<?xml version="1.0" encoding="utf-8"?>
<!-- Generator: Adobe Illustrator 15.1.0, SVG Export Plug-In . SVG Version: 6.00 Build 0)  -->
<!DOCTYPE svg PUBLIC "-//W3C//DTD SVG 1.1//EN" "http://www.w3.org/Graphics/SVG/1.1/DTD/svg11.dtd">
<svg version="1.1" id="Layer_1" xmlns="http://www.w3.org/2000/svg" xmlns:xlink="http://www.w3.org/1999/xlink" x="0px" y="0px"
	 width="325.984px" height="243.473px" viewBox="-25.02 -10.777 325.984 243.473"
	 enable-background="new -25.02 -10.777 325.984 243.473" xml:space="preserve">
<metadata><?xpacket begin="﻿" id="W5M0MpCehiHzreSzNTczkc9d"?>
<x:xmpmeta xmlns:x="adobe:ns:meta/" x:xmptk="Adobe XMP Core 5.0-c060 61.134777, 2010/02/12-17:32:00        ">
   <rdf:RDF xmlns:rdf="http://www.w3.org/1999/02/22-rdf-syntax-ns#">
      <rdf:Description rdf:about=""
            xmlns:dc="http://purl.org/dc/elements/1.1/">
         <dc:format>image/svg+xml</dc:format>
         <dc:title>
            <rdf:Alt>
               <rdf:li xml:lang="x-default">Print</rdf:li>
            </rdf:Alt>
         </dc:title>
      </rdf:Description>
      <rdf:Description rdf:about=""
            xmlns:xmp="http://ns.adobe.com/xap/1.0/"
            xmlns:xmpGImg="http://ns.adobe.com/xap/1.0/g/img/">
         <xmp:MetadataDate>2015-01-07T18:24:44+02:00</xmp:MetadataDate>
         <xmp:ModifyDate>2015-01-07T18:24:44+02:00</xmp:ModifyDate>
         <xmp:CreateDate>2015-01-07T18:24:44+02:00</xmp:CreateDate>
         <xmp:CreatorTool>Adobe Illustrator CS5</xmp:CreatorTool>
         <xmp:Thumbnails>
            <rdf:Alt>
               <rdf:li rdf:parseType="Resource">
                  <xmpGImg:width>256</xmpGImg:width>
                  <xmpGImg:height>192</xmpGImg:height>
                  <xmpGImg:format>JPEG</xmpGImg:format>
                  <xmpGImg:image>/9j/4AAQSkZJRgABAgEBLAEsAAD/7QAsUGhvdG9zaG9wIDMuMAA4QklNA+0AAAAAABABLAAAAAEA&#xA;AQEsAAAAAQAB/+4ADkFkb2JlAGTAAAAAAf/bAIQABgQEBAUEBgUFBgkGBQYJCwgGBggLDAoKCwoK&#xA;DBAMDAwMDAwQDA4PEA8ODBMTFBQTExwbGxscHx8fHx8fHx8fHwEHBwcNDA0YEBAYGhURFRofHx8f&#xA;Hx8fHx8fHx8fHx8fHx8fHx8fHx8fHx8fHx8fHx8fHx8fHx8fHx8fHx8fHx8f/8AAEQgAwAEAAwER&#xA;AAIRAQMRAf/EAaIAAAAHAQEBAQEAAAAAAAAAAAQFAwIGAQAHCAkKCwEAAgIDAQEBAQEAAAAAAAAA&#xA;AQACAwQFBgcICQoLEAACAQMDAgQCBgcDBAIGAnMBAgMRBAAFIRIxQVEGE2EicYEUMpGhBxWxQiPB&#xA;UtHhMxZi8CRygvElQzRTkqKyY3PCNUQnk6OzNhdUZHTD0uIIJoMJChgZhJRFRqS0VtNVKBry4/PE&#xA;1OT0ZXWFlaW1xdXl9WZ2hpamtsbW5vY3R1dnd4eXp7fH1+f3OEhYaHiImKi4yNjo+Ck5SVlpeYmZ&#xA;qbnJ2en5KjpKWmp6ipqqusra6voRAAICAQIDBQUEBQYECAMDbQEAAhEDBCESMUEFURNhIgZxgZEy&#xA;obHwFMHR4SNCFVJicvEzJDRDghaSUyWiY7LCB3PSNeJEgxdUkwgJChgZJjZFGidkdFU38qOzwygp&#xA;0+PzhJSktMTU5PRldYWVpbXF1eX1RlZmdoaWprbG1ub2R1dnd4eXp7fH1+f3OEhYaHiImKi4yNjo&#xA;+DlJWWl5iZmpucnZ6fkqOkpaanqKmqq6ytrq+v/aAAwDAQACEQMRAD8A6vc+ffO9iwuL6fSl0i31&#xA;l9K1K+FpOpgjQqiS+k14SVlllRCwY+l1KuCeKqj5F/Oe71HQ9a1TzHbwW6aXLp4CwK0LCHUyqpI4&#xA;lklX00Z/7zmOXFjwXaqqP1L867SC4uYdN0G91YW7Txme3ltFjaSBrwUBkmU0ZNMnflT+UdTsqlzf&#xA;n5pl9q8WmadaSW4a8giF5ctCyNAt3bW95yjjkaSEp9bXgZBRtyOm6rJvLHm/zBqWu2FrfW1vDYap&#xA;pdxq1pwEi3Cot1GsCSqxZQfq86c6ft16DbFWaYqwPyf5T8uanpt9e6hYR3N3JrGtB5pKliI9WukQ&#xA;df2VUAYqnn+APJv/AFaYPuP9cVd/gDyb/wBWmD7j/XFUst/InlA+Zb+I6XD6a2VmyrQ0DNLdAnr3&#xA;4jFUz/wB5N/6tMH3H+uKu/wB5N/6tMH3H+uKu/wB5N/6tMH3H+uKpZofkLyTKdQM+hWNyUvJkQ3F&#xA;vHMVUUoFMgag+WKpn/yrzyB/1LOlf9INt/zRirv+VeeQP+pZ0r/pBtv+aMVSy/8AIPkVdb0pF8ua&#xA;WEf6xzUWVuA1IwRUcN6Yqmf/ACrzyB/1LOlf9INt/wA0Yq7/AJV55A/6lnSv+kG2/wCaMVd/yrzy&#xA;B/1LOlf9INt/zRiqWW/kHyKfM1/EfLmlmNbKzZU+pW/EM0t0GIHDqeIr8sVTP/lXnkD/AKlnSv8A&#xA;pBtv+aMVd/yrzyB/1LOlf9INt/zRiqW+Y/IfkaDRriWHy5pcci8OLrZW4Iq6j+TFUy/5V55A/wCp&#xA;Z0r/AKQbb/mjFXH8vPIBFD5Z0kg9R9Rtv+aMVd/yrzyB/wBSzpX/AEg23/NGKpZq/kHyKmoaIqeX&#xA;NLVZL11kAsrcBl+pXDUb4NxyUHFUz/5V55A/6lnSv+kG2/5oxV3/ACrzyB/1LOlf9INt/wA0Yq7/&#xA;AJV55A/6lnSv+kG2/wCaMVS/8u7S0spvNNlZwR2tnb63IlvbQosccamztXIRFAVRyYnbucVZDceX&#xA;9BuZI5LnTbWeSGU3ETyQRuUmalZVLKaOeI+Ib4qhrjyd5Wm0m40j9F20Wm3UiS3NrDEkUcjxusil&#xA;1QKG+JBWvXFURB5f8v2yFYNNtIU7hII1H2XXso/ZlcfJj4nFUufTfy+kqz2ukv8ApMrbsWjtj9Za&#xA;IhFiNR+8KGihd6YqnFv+jbiQXVt6M0kIe3E8fBmQBhzi5Dp8Siq+IxVE4qxr8vf+ODdf9tnXP+6x&#xA;d4qyXFXYqlVt/wApVqP/ADA2P/J67xVNcVdirsVSrQP+ll/zHTf8a4qmuKuxVKtR/wCO9pH/AEcf&#xA;8mxiqa4q7FXYqlVt/wApVqP/ADA2P/J67xVNcVdiqVeaf+ODdf7D/k4uKprirsVdiqVaz/x0dB/5&#xA;jn/6gbnFU1xV2KuxVivkb/jo+b/+24//AFA2mKsqxV2KrZQxicKquxU8UY0UmnQmjUH0Yq8c0j8p&#xA;fNdolgVg060uINYur43SXUkzQWV3LbvNGIvqcMVxK4tuKPSL0hxpWhqqy78rPJeqeV9NuINQjtIJ&#xA;JVtIlt7B2eE/U7SO2M7Fo4P3kxjqRx2HEVOKsvvZruGINa231qQtQx81joKHerYqw/yDf60uh3QT&#xA;SuY/S+tEn6xGNzq90SNx2O2Ksj/SOvf9Wj/p4j/pirv0jr3/AFaP+niP+mKpXb6hrn+J9QP6J+I2&#xA;VkCv1iPYerdUNad8VTT9I69/1aP+niP+mKu/SOvf9Wj/AKeI/wCmKu/SOvf9Wj/p4j/piqV6FqGu&#xA;D9I00mtb2Yn/AEiMUO23TFU0/SOvf9Wj/p4j/pirv0jr3/Vo/wCniP8ApiqV6hqGufpzSSdJoR9Y&#xA;oPrEe/7se2Kpp+kde/6tH/TxH/TFXfpHXv8Aq0f9PEf9MVd+kde/6tH/AE8R/wBMVSu31DXP8T6g&#xA;f0T8RsrIFfrEew9W6oa074qmn6R17/q0f9PEf9MVd+kde/6tH/TxH/TFUr8zahrh0O5DaTxHwVP1&#xA;iM/7sX2xVNP0jr3/AFaP+niP+mKu/SOvf9Wj/p4j/pirv0jr3/Vo/wCniP8ApiqV6xqGuHUNDrpN&#xA;CL1yo+sR7n6lc7dPDFU0/SOvf9Wj/p4j/pirv0jr3/Vo/wCniP8Apirv0jr3/Vo/6eI/6Yqkv5ey&#xA;TyXfm154fQlOuScouQen+g2n7Q2xVl+KuxV2KuxV2KuxVjX5e/8AHBuv+2zrn/dYu8VZLirsVSq2&#xA;/wCUq1H/AJgbH/k9d4qmuKuxV2KpVoH/AEsv+Y6b/jXFU1xV2KpVqP8Ax3tI/wCjj/k2MVTXFXYq&#xA;7FUqtv8AlKtR/wCYGx/5PXeKprirsVSrzT/xwbr/AGH/ACcXFU1xV2KuxVKtZ/46Og/8xz/9QNzi&#xA;qa4q7FXYqxXyN/x0fN//AG3H/wCoG0xVlWKuxVbMypE7s/pqqklz0UAdd/DFXhWlfmp50mjh5ajH&#xA;cMNRnt7IrBE6akVvrWFbaKaJQkgW1uHk5xBTXrtFJVVnf5Seada8w6VdXGpXS34T6qy3aRLCqTT2&#xA;kctzacV2P1aZiu/xD7LVZScVZpe6jp9hEJr65itImbgsk7rGpYgniCxArQHFWH+QfM/lqLQ7pZNW&#xA;skY6vrTANcRA8X1e6ZTu3RlII9sVZH/izyr/ANXmx/6SYf8AmrFXf4s8q/8AV5sf+kmH/mrFUrt/&#xA;NXlgeZ9Qc6xZcDZWQDfWYqEiW6JFeXaoxVNP8WeVf+rzY/8ASTD/AM1Yq7/FnlX/AKvNj/0kw/8A&#xA;NWKu/wAWeVf+rzY/9JMP/NWKpXoXmrywv6R5axZLyvZiK3MQqDTf7WKpp/izyr/1ebH/AKSYf+as&#xA;Vd/izyr/ANXmx/6SYf8AmrFUr1DzV5YOuaSw1iyKr9Y5EXMVBWMUr8WKpp/izyr/ANXmx/6SYf8A&#xA;mrFXf4s8q/8AV5sf+kmH/mrFXf4s8q/9Xmx/6SYf+asVSu381eWB5n1BzrFlwNlZAN9ZioSJbokV&#xA;5dqjFU0/xZ5V/wCrzY/9JMP/ADVirv8AFnlX/q82P/STD/zViqV+ZvNXlh9DuVTWLJmPCgFzET/e&#xA;L/lYqmn+LPKv/V5sf+kmH/mrFXf4s8q/9Xmx/wCkmH/mrFXf4s8q/wDV5sf+kmH/AJqxVK9Y81eW&#xA;G1DQyusWRCXrliLmLYfUrkVPxeJxVNP8WeVf+rzY/wDSTD/zVirv8WeVf+rzY/8ASTD/AM1Yq7/F&#xA;nlX/AKvNj/0kw/8ANWKpL+Xt1bXV35tntZkngfXJCksTB0allaDZlqDirL8VdirsVdirsVdirGvy&#xA;9/44N1/22dc/7rF3irJcVdiqVW3/AClWo/8AMDY/8nrvFU1xV2KuxVKtA/6WX/MdN/xriqa4q7FU&#xA;j16+srHVdKub24itbaP6wXnmdY0X92OrMQBiqR3353/lLZTejJ5qsJpunp2kn1tqjc7W4l6Yqhx+&#xA;fP5YNXhqF46/zppWqup+TLakEe4xV3/K9Py/c0tW1S8fqyQaPqhIHieVsuKpdB+c/lNfMV9ObLW+&#xA;ElnaIoGj6jyqktyTVfRqB8Yoe+/hiqY/8rp0CQ/6LoXmS8A+20Gh6gQvseUS4q3/AMrk07/qVvNf&#xA;/cCvv+aMVS3zF+btnPo88MXlXzRzbhQyaNdRKKOp3eUIo6eOKpj/AMre/wC/K81/9wz/AK+4q7/l&#xA;b3/flea/+4Z/19xV3/K3Zm2i8jea5X/l/R8Ue3jylnjX8cVS7VPzS1B77R2PkLzQnpXjuFa2sgXr&#xA;aXC8UpeH4vi5b9gcVTL/AJWxqP8A5b7zX/0i2P8A2WYq7/lbGo/+W+81/wDSLY/9lmKu/wCVsaj/&#xA;AOW+81/9Itj/ANlmKqH5T+ZrjV9W82pJoWp6UG1RrgyahHDGoZrW2T0T6c0p9UcORFKcSN67Yq9G&#xA;xV2KtMSFJALECoUUqfYVoMVYLD+bNib+Gxu9LubC4e8nsbj6zJbenFJbrbO1JY5ZI5GZb1eKIxYs&#xA;rrSq4qnPk3zrZ+abaaaG0nsnhW3l9G59Pk0N3AtxBIPTaRfiR9xWoIIxVkWKsa/L3/jg3X/bZ1z/&#xA;ALrF3irJcVdiqVW3/KVaj/zA2P8Ayeu8VTXFXYq7FUq0D/pZf8x03/GuKpV5u/Mvyv5YuYtPuZJb&#xA;/XbgVtNB06Nrq/m9xCn2V/ynKr74qkK2v5x+axzurqDyHpD9LW1WPUNXdD1Ek7j6tASOnBXI8cVU&#xA;B+S/kK317SpdTtZvMl7J6/rXmvTyai78UqtUnLQrQn9mMYq9G0/S9M06EQafaQ2cIAAit40iWg6D&#xA;igA2xVE4q7FUqtv+Uq1H/mBsf+T13iqa4q7FUq80/wDHBuv9h/ycXFU1xV2KuxVKtZ/46Og/8xz/&#xA;APUDc4qmuKuxV2KsV8jf8dHzf/23H/6gbTFWVYq7FVssYkieMllDqVLKSrCopUEbg4qxGy/Knyla&#xA;WVlYD67PY2F39fgtLi+upYmuA6yq0qNIVk4yr6gD1+OrdTiqb+WPKOh+WrWW20mKRI5mQuZZZJ24&#xA;xRLDEgaVnYJHHGqqoNB8ycVTG9sYb2IRTNKqq3IGCaWBqgEbtC0bEb9K0xVh/kHy9YSaHdM0t6CN&#xA;X1pfhvrxRRdXulGyzAVoNz1J3O+Ksj/wzp3+/r7/ALiF9/1WxV3+GdO/39ff9xC+/wCq2KpXb+XN&#xA;PPmfUF9a9oLKyI/0+9rvLdd/Wr2xVNP8M6d/v6+/7iF9/wBVsVd/hnTv9/X3/cQvv+q2KrJ9A0e3&#xA;gknnuryKCJS8sr6leqiIoqzMxnoABuScVeSaZJ5g893V/Z+Rbu80ryyt7L9a85SXl47TAEAx6bA8&#xA;vGQ7bzyDj4VIxV6F5a/KbyZ5dWV9Niu1vrqjX+pPe3f1q6fqXnlWVS7E7+HgBiqef4Z07/f19/3E&#xA;L7/qtiqV6h5c08a5pK+te0b6xWt/ek7RjofWqMVTT/DOnf7+vv8AuIX3/VbFXf4Z07/f19/3EL7/&#xA;AKrYq7/DOnf7+vv+4hff9VsVSu38uaefM+oL617QWVkR/p97XeW67+tXtiqaf4Z07/f19/3EL7/q&#xA;tirv8M6d/v6+/wC4hff9VsVSvzN5c09dDuWE17UcOt/ekf3i9jMRiqaf4Z07/f19/wBxC+/6rYq7&#xA;/DOnf7+vv+4hff8AVbFXf4Z07/f19/3EL7/qtiqV6x5c08ahoYE178V64Nb+9P8Ax5XJ2rNt07Yq&#xA;mn+GdO/39ff9xC+/6rYq7/DOnf7+vv8AuIX3/VbFXf4Z07/f19/3EL7/AKrYqkv5e20dtd+bYYy7&#xA;ImuSUMsjyv8A7xWh3eQs5+k4qy/FXYq7FXYq7FXYqxr8vf8Ajg3X/bZ1z/usXeKslxV2KpVbf8pV&#xA;qP8AzA2P/J67xVNcVQ2p6np+l6fcajqNxHaWNpG0tzcysFREUVLMTirzC20/WPzanjv9Zin0v8to&#xA;yJNO0ZiY7jWCrVS4vBs0drsDHD1f7TbUGKs/8sQQW8F9BbxrDBFeSpFFGoVFVQoCqooAAOgGKpzi&#xA;rsVSrUf+O9pH/Rx/ybGKprirsVdiqVW3/KVaj/zA2P8Ayeu8VTXFXYqlXmn/AI4N1/sP+Ti4qmuK&#xA;uxV2KpVrP/HR0H/mOf8A6gbnFU1xV2KuxVivkb/jo+b/APtuP/1A2mKsqxV2KrJ6+hJSP1TxNIjQ&#xA;Btvs77b4q8Osfym80u8VwdGsdLkmvXuI7aGZfQ0p/rVlKJ7JIlFC0FoUbjxZpByoFkairOfym8n6&#xA;t5a0y7h1C2gsjMLRBa20nqI0ttaRwT3RIVPiuJELHapABb4iQFWZ3s13DEGtbb61IWoY+ax0FDvV&#xA;sVYf5Bv9aXQ7oJpXMfpfWiT9YjG51e6JG47HbFWR/pHXv+rR/wBPEf8ATFXfpHXv+rR/08R/0xVK&#xA;7fUNc/xPqB/RPxGysgV+sR7D1bqhrTviqYzavrEEMk8+lrFDEpeWV7qJVVVFWZmIoAB1OKvL4Jdc&#xA;/NjU7bVrnTGP5c6bP6mm6c0kajVrqBiBcz8t2tY2H7uPjRz8TbbYq9TGoa6BQaPQDoPrEf8ATFUr&#xA;0LUNcH6RppNa3sxP+kRih226Yqmn6R17/q0f9PEf9MVd+kde/wCrR/08R/0xVK9Q1DXP05pJOk0I&#xA;+sUH1iPf92PbFU0/SOvf9Wj/AKeI/wCmKu/SOvf9Wj/p4j/pirv0jr3/AFaP+niP+mKpXb6hrn+J&#xA;9QP6J+I2VkCv1iPYerdUNad8VTT9I69/1aP+niP+mKu/SOvf9Wj/AKeI/wCmKpX5m1DXDodyG0ni&#xA;PgqfrEZ/3YvtiqafpHXv+rR/08R/0xV36R17/q0f9PEf9MVd+kde/wCrR/08R/0xVK9Y1DXDqGh1&#xA;0mhF65UfWI9z9SudunhiqafpHXv+rR/08R/0xV36R17/AKtH/TxH/TFXfpHXv+rR/wBPEf8ATFUl&#xA;/L2SeS782vPF6Ep1yTlFyD0/0K0/aGxxVl+KuxV2KuxV2KuxVjX5e/8AHBuv+2zrn/dYu8VZLirs&#xA;VSq2/wCUq1H/AJgbH/k9d4qwLzTPcfmP5pn8jadKyeUtHdT5zv4iR9Ym2ZNKicf8FcFegouxNCq9&#xA;Otra3tbeK2tolht4EWOGGMBUREHFVVRsAAKAYqqYqlWgf9LL/mOm/wCNcVTXFXYqlWo/8d7SP+jj&#xA;/k2MVTXFXYq7FUqtv+Uq1H/mBsf+T13iqa4q7FUq80/8cG6/2H/JxcVTXFXYq7FUq1n/AI6Og/8A&#xA;Mc//AFA3OKprirsVdirFfI3/AB0fN/8A23H/AOoG0xVlWKuxV2KvMpPzI8zwWWi3t3bWUFrcarqO&#xA;latOnKULNa6qdPtIYEaWKUtc8H/ecHCsPiUKdlU8/LbznqfmaxuJNRit0mjSzuI2s+ZiEd/aR3Sx&#xA;MXLH1IvUIY9GHFqCtAqzHFWNfl7/AMcG6/7bOuf91i7xVkuKuxV5p+Y3mvVdM19/L/lwK/m/zLa2&#xA;dppHIVS3RZbs3F7KP9920Z5e7cRirL/JflDS/KPlu00LTeTRW4LTXEhrLPO55Szysd2eRyWP3dMV&#xA;TzFXYqlWgf8ASy/5jpv+NcVTXFXYqlWo/wDHe0j/AKOP+TYxVNcVdirsVSq2/wCUq1H/AJgbH/k9&#xA;d4qmuKuxVKvNP/HBuv8AYf8AJxcVTXFXYq7FUq1n/jo6D/zHP/1A3OKprirsVdirFfI3/HR83/8A&#xA;bcf/AKgbTFWVYq7FXYqgG0DQnuILl9NtWubV5JbWYwxl4pJnMkrxtxqrO5LMR1O5xVW0/S9M02Fo&#xA;NOtIbKF3MrxW8aRKXb7TlUABY03OKt3unaffxCG+toruJW5rHOiyKGAI5AMCK0JxVh/kHyx5al0O&#xA;6aTSbJ2Gr60oLW8RPFNXulUbr0VQAPbFWR/4T8q/9Wax/wCkaH/mnFUNqei+R9L0661K/wBM0+3s&#xA;bKJ7i6ne2h4pFGpZ2Pw9gMVec/lL5Wstb13WPOeu6Lawya3a2k+h6a8EdLLS3knECFKFfUmEImkP&#xA;i1NqUxV6f/hPyr/1ZrH/AKRof+acVd/hPyr/ANWax/6Rof8AmnFXf4T8q/8AVmsf+kaH/mnFUr0L&#xA;yr5Yb9I8tHsm43swFbaI0Apt9nFU0/wn5V/6s1j/ANI0P/NOKu/wn5V/6s1j/wBI0P8AzTiqV6h5&#xA;V8sDXNJUaPZBW+scgLaKhpGKV+HFU0/wn5V/6s1j/wBI0P8AzTirv8J+Vf8AqzWP/SND/wA04q7/&#xA;AAn5V/6s1j/0jQ/804qldv5V8sHzPqCHR7LgLKyIX6tFQEy3QJpx70GKpp/hPyr/ANWax/6Rof8A&#xA;mnFXf4T8q/8AVmsf+kaH/mnFUr8zeVfLCaHcsmj2SsOFCLaIH+8X/JxVNP8ACflX/qzWP/SND/zT&#xA;irv8J+Vf+rNY/wDSND/zTirv8J+Vf+rNY/8ASND/AM04qleseVfLC6hoYXR7IB71wwFtFuPqVyaH&#xA;4fEYqmn+E/Kv/Vmsf+kaH/mnFXf4T8q/9Wax/wCkaH/mnFXf4T8q/wDVmsf+kaH/AJpxVJfy9tba&#xA;1u/NsFrCkECa5IEiiUIi1srQ7KtAMVZfirsVdirCv+VteW/QspzbXypdS3EUwaEK1qLW/GmvJcqX&#xA;5Iv1k8RQFqVNKA0VTjyn5y0vzPbzT2MU8HoiFzFcoI3aK5hWeCZQGf4JI3BFfiG4YAgjFU9xVjX5&#xA;e/8AHBuv+2zrn/dYu8VZLirzL8wCfOfnHTvy5gIbSLdY9Y85MNwbaN62li3X/emZeTjY8F98VZva&#xA;gL5p1AAUAsLEADoB613iqbYq7FXYqlWgf9LL/mOm/wCNcVTXFXYqlWo/8d7SP+jj/k2MVTXFXYq7&#xA;FUqtv+Uq1H/mBsf+T13iqa4q7FUq80/8cG6/2H/JxcVTXFXYq7FUq1n/AI6Og/8AMc//AFA3OKpr&#xA;irsVdirFfI3/AB0fN/8A23H/AOoG0xVlWKuxV2KsQufyu8t3DwM73KrHcXVzNGsihZ/rmofpR4pv&#xA;h3jW6+JeNCB8NSC1VUy8peTdL8r2s1vYyzz+t6SmW6cSSLFbwrBBCrBV+COOMAV36kkkk4qmt7bT&#xA;XEQSG7ls2DcjLAIixFCOJ9aOVab+FcVYf5B0m/fQ7orrV7GBq+tDiqWdKrq90C3xW7GrEVPavSg2&#xA;xVMPMtx/hzy/qGu6n5hvo7HTYHuJ24WNSEFeK/6NuzH4VHc4qx78rPJWv2mgya7rOp3dt5m8zSfp&#xA;PWlRLQlGkUCC3Jkt3YehCFTjWgNaAVxVkFvo+of4n1Bf05egiysiW4WVTWW62/3mptTFU0/Q2o/9&#xA;X6+/4Cx/7JsVd+htR/6v19/wFj/2TYq79Daj/wBX6+/4Cx/7JsVSvQtH1A/pGmuXq0vZgaJZb9N9&#xA;7Y4qmn6G1H/q/X3/AAFj/wBk2Ku/Q2o/9X6+/wCAsf8AsmxVK9Q0fUBrmkj9OXpJ+sUYpZVH7sdP&#xA;9GpiqafobUf+r9ff8BY/9k2Ku/Q2o/8AV+vv+Asf+ybFXfobUf8Aq/X3/AWP/ZNiqV2+j6h/ifUF&#xA;/Tl6CLKyJbhZVNZbrb/eam1MVTT9Daj/ANX6+/4Cx/7JsVd+htR/6v19/wABY/8AZNiqV+ZtH1Bd&#xA;DuSdcvWHwfCUsqf3i+FsDiqafobUf+r9ff8AAWP/AGTYq79Daj/1fr7/AICx/wCybFXfobUf+r9f&#xA;f8BY/wDZNiqV6xo+oDUNDB1y9Nb1wCUstv8AQrk1FLb6N8VTT9Daj/1fr7/gLH/smxV36G1H/q/X&#xA;3/AWP/ZNirv0NqP/AFfr7/gLH/smxVJfy9hkhu/Nsck73LrrklZpQgdv9CtOojWNPuXFWX4q7FXY&#xA;q7FXYq7FWNfl7/xwbr/ts65/3WLvFWN/mBXzT558v+Qk+LToKeYfMwHQ21rIBZW7ePrXQDFf5UxV&#xA;6TiqVW3/AClWo/8AMDY/8nrvFU1xV2KuxVKtA/6WX/MdN/xriqa4q7FUq1H/AI72kf8ARx/ybGKp&#xA;rirsVdiqVW3/AClWo/8AMDY/8nrvFU1xV2KpV5p/44N1/sP+Ti4qmuKuxV2KpVrP/HR0H/mOf/qB&#xA;ucVTXFXYq7FWK+Rv+Oj5v/7bj/8AUDaYqyrFXYqsnlEUEkp3EaliNz0Ff2Qx+4Yq8S0vzl+YU36M&#xA;jlvdQneO7W3jvBYoYNTnW5tI5hT6naNFbiCSdhUKQQ7c2WNTir3DFUPe6jp9hEJr65itImbgsk7r&#xA;GpYgniCxArQHFWH+QfM/lqLQ7pZNWskY6vrTANcRA8X1e6ZTu3RlII9sVSj8s77TIrvzJ5o17ULK&#xA;11rzFqLlbd7mAvBp9nW3soSVdl+wpkND1fFWdf4s8q/9Xmx/6SYf+asVSu381eWB5n1BzrFlwNlZ&#xA;AN9ZioSJbokV5dqjFU0/xZ5V/wCrzY/9JMP/ADVirv8AFnlX/q82P/STD/zVirv8WeVf+rzY/wDS&#xA;TD/zViqV6F5q8sL+keWsWS8r2YitzEKg03+1iqaf4s8q/wDV5sf+kmH/AJqxV3+LPKv/AFebH/pJ&#xA;h/5qxVK9Q81eWDrmksNYsiq/WORFzFQVjFK/Fiqaf4s8q/8AV5sf+kmH/mrFXf4s8q/9Xmx/6SYf&#xA;+asVd/izyr/1ebH/AKSYf+asVSu381eWB5n1BzrFlwNlZAN9ZioSJbokV5dqjFU0/wAWeVf+rzY/&#xA;9JMP/NWKu/xZ5V/6vNj/ANJMP/NWKpX5m81eWH0O5VNYsmY8KAXMRP8AeL/lYqmn+LPKv/V5sf8A&#xA;pJh/5qxV3+LPKv8A1ebH/pJh/wCasVd/izyr/wBXmx/6SYf+asVSvWPNXlhtQ0MrrFkQl65Yi5i2&#xA;H1K5FT8XicVTT/FnlX/q82P/AEkw/wDNWKu/xZ5V/wCrzY/9JMP/ADVirv8AFnlX/q82P/STD/zV&#xA;iqS/l7dW11d+bZ7WZJ4H1yQpLEwdGpZWg2Zag4qy/FXYq7FXYq7FXYqxr8vf+ODdf9tnXP8AusXe&#xA;KslxV2KpVbf8pVqP/MDY/wDJ67xVNcVdirsVSrQP+ll/zHTf8a4qmuKuxVKtR/472kf9HH/JsYqm&#xA;uKuxV2KpVbf8pVqP/MDY/wDJ67xVNcVdiqVeaf8Ajg3X+w/5OLiqa4q7FXYqlWs/8dHQf+Y5/wDq&#xA;BucVTXFXYq7FWK+Rv+Oj5v8A+24//UDaYqyrFXYqh9SupLTTrq7jiM8lvDJKkC15OyKWCCgO7Upi&#xA;rEvyt836n5l0u8mv57S9e2ltwl7YI0cDi4soLtowGkn+KJpyh+LoBUA1xVmuKqc9xbwIHnlSJCaB&#xA;nYKK9aVOKsD8l+efJNhpV7a33mDTbS6TWNaLwT3kEcih9WunUlWcEclYEe2Kp9/ysj8u/wDqadI/&#xA;6T7b/qpiq+L8wfIUxIi8y6VIRuQl7btT7nxVAW/nTycPM9/Idd04I1lZKr/W4KErLdEgHn25DFU0&#xA;/wAb+S/+r/pv/SXB/wA14q7/ABv5L/6v+m/9JcH/ADXirv8AG/kv/q/6b/0lwf8ANeKpXoXnTycn&#xA;6Q567py8r2ZlrdwCoNKEfHiqaf438l/9X/Tf+kuD/mvFXf438l/9X/Tf+kuD/mvFUr1Dzp5OOt6U&#xA;413TiqfWOTC7goKxilTzxVNP8b+S/wDq/wCm/wDSXB/zXirv8b+S/wDq/wCm/wDSXB/zXirv8b+S&#xA;/wDq/wCm/wDSXB/zXiqV2/nTycPM9/Idd04I1lZKr/W4KErLdEgHn25DFU7XzR5ZYBl1eyKncEXE&#xA;VCP+CxVv/E/lr/q7Wf8A0kRf81YqlfmfzJ5dbQ7lV1WzZjwoBPET/eL/AJWKpp/ify1/1drP/pIi&#xA;/wCasVd/ify1/wBXaz/6SIv+asVd/ify1/1drP8A6SIv+asVSvWPMnl1tQ0MjVbMhb1yxE8Ww+pX&#xA;Iqfi8Tiqaf4n8tf9Xaz/AOkiL/mrFXf4n8tf9Xaz/wCkiL/mrFXf4n8tf9Xaz/6SIv8AmrFUj/L6&#xA;5t7m782z28qTQvrkhSWNg6n/AEK0GzCoOKsuxV2KuxVTt7a3to/Tt4khjqW4RqFWrGpNBTqcVVMV&#xA;U57e3nQJPEkqA1CuoYV6VocVUBpGkjpZQDv/AHSd/oxVv9E6V/yxQf8AIpP6Yqpy6Doc1BNp1rIB&#xA;05wxtT7xiql/hfy1Wv6Jsq+P1eL/AJpxVv8Awx5a/wCrTZ/9I8X/ADTirv8ADHlr/q02f/SPF/zT&#xA;irv8MeWv+rTZ/wDSPF/zTirQ8r+Wh00my/6R4v8AmnFW/wDDHlr/AKtNn/0jxf8ANOKu/wAMeWv+&#xA;rTZ/9I8X/NOKtf4X8tVr+ibKo6f6PF/zTirf+GPLX/Vps/8ApHi/5pxV3+GPLX/Vps/+keL/AJpx&#xA;V3+GPLX/AFabP/pHi/5pxVr/AAv5arX9E2VfH6vF/wA04qoHyT5MJJOgacSdyTaQf80Yq7/BHkv/&#xA;AKsGm/8ASJB/zRiq1/Inkh1Kv5f00qeo+qQf80Yqu/wR5L/6sGm/9IkH/NGKu/wR5L/6sGm/9IkH&#xA;/NGKu/wR5L/6sGm/9IkH/NGKtf4H8lf9S/pv/SHB/wA0Yq3/AII8l/8AVg03/pEg/wCaMVd/gjyX&#xA;/wBWDTf+kSD/AJoxV3+CPJf/AFYNN/6RIP8AmjFUw03SdL0yF4NNs4bKGR/UeK3jWJC5AUtxQAVo&#xA;oxVFYq7FXYq7FXYq7FUj80ec9D8srA2qNKBOJH/cxPLwhgAM08nEHjFEGXkx8cVTzFXYqhNX1S10&#xA;rTLnUrsSG2tI2lm9GN5n4qKnjHGGY/QMVVbO7gvLOC8tzyguY0miYgglHUMpoemxxVWxV2KpR5q8&#xA;06Z5Y0mTVtTS4axh3uJLaCW49KNQWeWQRKxWNFBZmOKpvirsVaZgqljWgFTQEnbwA3xVKfLHmjS/&#xA;MmnyX2m+qIoZ5bWVZ42idZYW4utGG9D3H664qm+KuxVB6xq+naNpd1qupTC3sbKNpriZqmiqKmgG&#xA;5J6ADcnYYqv0zUbXUtNtNRtGL2l7DHcW7kFSY5VDoSDuKq2KonFXYqlWn+ZtK1DWdR0i0aSS60pl&#xA;jvW4MIlkZEkCCQ/CW4yqaD+GKprirsVdiqUeXfNei+YlupNIla4t7SX0WuOJWN2HX0y1Cyj+alD1&#xA;FRviqb4q7FUp8zeZ9N8t6c2o6kk5s46mWSCF5uAHdggJFeg8TiqbYq7FXYq7FXYq7FWOecPJFh5o&#xA;SFLq7ubRUiuLS4FsYwJ7O8Ci5tpBIknwSiNalaMKbEYqyPFXYqh9Rsor/T7mxmLLFdxPBIyUDBZF&#xA;KkrUEVofDFXadZRWGn21jCWaK0iSCNnoWKxqFBagArQeGKojFXYqkfm7ypF5msIbGfULuxto5knl&#xA;jtPq9JzEeSRzC4hnVowwDFaUPeo2xVO1BCgEliBQsaVPuaUGKt4qtkVnjZVcxswIEi05KSOo5BhU&#xA;e4xVJPJ3lG08radcWNtdT3a3N1NeyPOIUpJOQXWOK3jghjSorxRBViWO7E4qnuKuxVK/MnlnR/Mm&#xA;ltperxNNaM6ShUkkiZZIm5RurRsrVRgGHviqp5f0Sz0HQ7DRbJpGtNOgjtoGmcySFI1Cgux6k0+X&#xA;hQYqmGKuxVIrHylb23mq78yPe3Fxd3VuLSOBxAkUUPqepxX0oo3c8ujSMxA6dTVVPcVdirsVYf8A&#xA;l/8AlhoPkeTUX0ue4mOo+irC4MVI4bb1PRiT00jqEEzDk/JiKVO2KswxV2Kpdreg2esrZR3jSehZ&#xA;3cV76CEBJZLerRLKCCSiS8ZQAR8Sr2qCqmOKuxV2KuxV2KuxV2KuxV2KuxV2KuxV2KuxV2KuxV2K&#xA;tc05lOQ5gVK13odq0xVvFXYq7FXYq7FXYq7FXYq7FXYq7FXYq7FXYq7FXYq7FXYq7FXYq7FXYq7F&#xA;XYq7FXYq7FXYq8d89eU/zPj8xa75x0O/igae0k0yC0RJHnjsYolnSZXUzK0huEkCItvyX1Sat0xV&#xA;S8hWP5xX2u6Nq+oXt5beWG+sSmyuyrXIX61crHHdpKts/wAdu8JVhGWHEbDeqqd+XPKn5kWOuw3l&#xA;zqTJp8epSs+mpJF9Wayn+tu7MgQN6nqSQNXl2P8AlVVYrqXkn89SdbvrC8VdavGW2hvZLtW/cR3F&#xA;5KjW6IsAiQLPCOEhalGNG2VlU/0Oz/NO81Frl76dtPs9YSCGOUm3SewhllluHlDqsx3uPRjZNnEC&#xA;k1RyxVer4q7FXYq7FXYq7FXYq7FXYq7FXYq7FXYq/wD/2Q==</xmpGImg:image>
               </rdf:li>
            </rdf:Alt>
         </xmp:Thumbnails>
      </rdf:Description>
      <rdf:Description rdf:about=""
            xmlns:xmpMM="http://ns.adobe.com/xap/1.0/mm/"
            xmlns:stRef="http://ns.adobe.com/xap/1.0/sType/ResourceRef#"
            xmlns:stEvt="http://ns.adobe.com/xap/1.0/sType/ResourceEvent#">
         <xmpMM:InstanceID>xmp.iid:7EE614AC8996E411A337A11BE3BA0E0D</xmpMM:InstanceID>
         <xmpMM:DocumentID>xmp.did:7EE614AC8996E411A337A11BE3BA0E0D</xmpMM:DocumentID>
         <xmpMM:OriginalDocumentID>uuid:5D20892493BFDB11914A8590D31508C8</xmpMM:OriginalDocumentID>
         <xmpMM:RenditionClass>proof:pdf</xmpMM:RenditionClass>
         <xmpMM:DerivedFrom rdf:parseType="Resource">
            <stRef:instanceID>xmp.iid:8589F1E99419E4118465F7AE137016A0</stRef:instanceID>
            <stRef:documentID>xmp.did:8589F1E99419E4118465F7AE137016A0</stRef:documentID>
            <stRef:originalDocumentID>uuid:5D20892493BFDB11914A8590D31508C8</stRef:originalDocumentID>
            <stRef:renditionClass>proof:pdf</stRef:renditionClass>
         </xmpMM:DerivedFrom>
         <xmpMM:History>
            <rdf:Seq>
               <rdf:li rdf:parseType="Resource">
                  <stEvt:action>saved</stEvt:action>
                  <stEvt:instanceID>xmp.iid:8589F1E99419E4118465F7AE137016A0</stEvt:instanceID>
                  <stEvt:when>2014-08-01T18:00:09+02:00</stEvt:when>
                  <stEvt:softwareAgent>Adobe Illustrator CS5</stEvt:softwareAgent>
                  <stEvt:changed>/</stEvt:changed>
               </rdf:li>
               <rdf:li rdf:parseType="Resource">
                  <stEvt:action>saved</stEvt:action>
                  <stEvt:instanceID>xmp.iid:7EE614AC8996E411A337A11BE3BA0E0D</stEvt:instanceID>
                  <stEvt:when>2015-01-07T18:24:44+02:00</stEvt:when>
                  <stEvt:softwareAgent>Adobe Illustrator CS5</stEvt:softwareAgent>
                  <stEvt:changed>/</stEvt:changed>
               </rdf:li>
            </rdf:Seq>
         </xmpMM:History>
      </rdf:Description>
      <rdf:Description rdf:about=""
            xmlns:illustrator="http://ns.adobe.com/illustrator/1.0/">
         <illustrator:StartupProfile>Print</illustrator:StartupProfile>
      </rdf:Description>
      <rdf:Description rdf:about=""
            xmlns:xmpTPg="http://ns.adobe.com/xap/1.0/t/pg/"
            xmlns:stDim="http://ns.adobe.com/xap/1.0/sType/Dimensions#"
            xmlns:xmpG="http://ns.adobe.com/xap/1.0/g/">
         <xmpTPg:HasVisibleOverprint>False</xmpTPg:HasVisibleOverprint>
         <xmpTPg:HasVisibleTransparency>False</xmpTPg:HasVisibleTransparency>
         <xmpTPg:NPages>1</xmpTPg:NPages>
         <xmpTPg:MaxPageSize rdf:parseType="Resource">
            <stDim:w>115.000043</stDim:w>
            <stDim:h>85.891915</stDim:h>
            <stDim:unit>Millimeters</stDim:unit>
         </xmpTPg:MaxPageSize>
         <xmpTPg:PlateNames>
            <rdf:Seq>
               <rdf:li>Cyan</rdf:li>
               <rdf:li>Magenta</rdf:li>
               <rdf:li>Yellow</rdf:li>
               <rdf:li>Black</rdf:li>
            </rdf:Seq>
         </xmpTPg:PlateNames>
         <xmpTPg:SwatchGroups>
            <rdf:Seq>
               <rdf:li rdf:parseType="Resource">
                  <xmpG:groupName>Default Swatch Group</xmpG:groupName>
                  <xmpG:groupType>0</xmpG:groupType>
               </rdf:li>
            </rdf:Seq>
         </xmpTPg:SwatchGroups>
      </rdf:Description>
      <rdf:Description rdf:about=""
            xmlns:pdf="http://ns.adobe.com/pdf/1.3/">
         <pdf:Producer>Adobe PDF library 9.90</pdf:Producer>
      </rdf:Description>
   </rdf:RDF>
</x:xmpmeta>
                                                                                                    
                                                                                                    
                                                                                                    
                                                                                                    
                                                                                                    
                                                                                                    
                                                                                                    
                                                                                                    
                                                                                                    
                                                                                                    
                                                                                                    
                                                                                                    
                                                                                                    
                                                                                                    
                                                                                                    
                                                                                                    
                                                                                                    
                                                                                                    
                                                                                                    
                                                                                                    
                           
<?xpacket end="w"?>
	</metadata>
<g>
	<line fill="none" stroke="#000000" stroke-width="0.5" x1="32.307" y1="15.857" x2="294.105" y2="15.857"/>
	<line fill="none" stroke="#000000" stroke-width="0.5" x1="32.307" y1="39.104" x2="293.503" y2="39.104"/>
	<line fill="none" stroke="#000000" stroke-width="0.5" x1="32.307" y1="62.854" x2="293.503" y2="62.854"/>
	<line fill="none" stroke="#000000" stroke-width="0.5" x1="32.307" y1="87.337" x2="293.503" y2="87.337"/>
	<line fill="none" stroke="#000000" stroke-width="0.5" x1="32.307" y1="111.969" x2="293.503" y2="111.969"/>
	<line fill="none" stroke="#000000" stroke-width="0.5" x1="32.307" y1="134.8" x2="293.503" y2="134.8"/>
	<line fill="none" stroke="#000000" stroke-width="0.5" x1="32.307" y1="161.722" x2="293.503" y2="161.722"/>
	<line fill="none" stroke="#000000" stroke-width="0.5" x1="32.307" y1="182.716" x2="293.503" y2="182.716"/>
	<line fill="none" stroke="#000000" stroke-width="0.5" x1="38.332" y1="-10.276" x2="38.332" y2="183.033"/>
	<line fill="none" stroke="#000000" stroke-width="0.5" x1="71.526" y1="-10.276" x2="71.526" y2="183.033"/>
	<line fill="none" stroke="#000000" stroke-width="0.5" x1="109.943" y1="-10.276" x2="109.943" y2="183.033"/>
	<line fill="none" stroke="#000000" stroke-width="0.5" x1="144.186" y1="-10.276" x2="144.186" y2="183.033"/>
	<line fill="none" stroke="#000000" stroke-width="0.5" x1="183.278" y1="-10.276" x2="183.278" y2="183.033"/>
	<line fill="none" stroke="#000000" stroke-width="0.5" x1="218.257" y1="-8.999" x2="218.257" y2="184.306"/>
	<line fill="none" stroke="#000000" stroke-width="0.5" x1="257.141" y1="-10.276" x2="257.141" y2="183.033"/>
	<line fill="none" stroke="#000000" stroke-width="0.5" x1="293.503" y1="-8.999" x2="293.503" y2="184.306"/>
	<g>
		<path d="M121.154,228.307l-0.712,2.154h-0.916l2.339-6.854h1.058l2.338,6.854h-0.946l-0.732-2.154H121.154L121.154,228.307z
			 M123.411,227.616l-0.682-1.973c-0.152-0.45-0.254-0.854-0.355-1.25h-0.021c-0.102,0.397-0.204,0.823-0.346,1.241l-0.671,1.986
			L123.411,227.616L123.411,227.616z"/>
		<path d="M130.339,229.742c0,1.14-0.233,1.821-0.702,2.255c-0.487,0.438-1.181,0.592-1.8,0.592c-0.589,0-1.241-0.142-1.637-0.406
			l0.225-0.692c0.326,0.214,0.833,0.399,1.443,0.399c0.916,0,1.587-0.479,1.587-1.727v-0.539h-0.021
			c-0.265,0.454-0.802,0.822-1.566,0.822c-1.22,0-2.094-1.038-2.094-2.403c0-1.667,1.088-2.603,2.227-2.603
			c0.856,0,1.313,0.437,1.536,0.844h0.021l0.031-0.742h0.793c-0.029,0.344-0.04,0.753-0.04,1.343L130.339,229.742L130.339,229.742z
			 M129.444,227.485c0-0.151-0.011-0.285-0.052-0.397c-0.161-0.529-0.589-0.956-1.25-0.956c-0.854,0-1.464,0.722-1.464,1.86
			c0,0.966,0.498,1.771,1.454,1.771c0.559,0,1.058-0.345,1.241-0.916c0.051-0.153,0.07-0.325,0.07-0.479V227.485L129.444,227.485z"
			/>
		<path d="M132.313,228.169c0.021,1.207,0.785,1.706,1.688,1.706c0.642,0,1.036-0.112,1.361-0.251l0.163,0.641
			c-0.315,0.14-0.864,0.315-1.646,0.315c-1.515,0-2.421-1.007-2.421-2.491s0.876-2.644,2.309-2.644c1.616,0,2.033,1.404,2.033,2.306
			c0,0.186-0.01,0.315-0.03,0.418H132.313z M134.938,227.525c0.011-0.559-0.234-1.444-1.24-1.444c-0.917,0-1.302,0.822-1.374,1.444
			H134.938z"/>
		<path d="M140.066,224.158c0,0.306-0.214,0.551-0.57,0.551c-0.325,0-0.538-0.244-0.538-0.551c0-0.304,0.223-0.559,0.559-0.559
			C139.842,223.599,140.066,223.843,140.066,224.158z M139.069,230.462v-4.92h0.896v4.92H139.069z"/>
		<path d="M141.45,226.874c0-0.519-0.01-0.925-0.041-1.332h0.793l0.052,0.813h0.021c0.242-0.455,0.816-0.915,1.625-0.915
			c0.682,0,1.738,0.407,1.738,2.094v2.928h-0.896v-2.835c0-0.794-0.294-1.454-1.139-1.454c-0.578,0-1.034,0.417-1.195,0.915
			c-0.039,0.112-0.062,0.265-0.062,0.416v2.958h-0.896L141.45,226.874L141.45,226.874z"/>
		<path d="M153.495,223.246v5.948c0,0.44,0.02,0.937,0.038,1.271h-0.792l-0.038-0.854h-0.032c-0.264,0.552-0.854,0.969-1.657,0.969
			c-1.19,0-2.116-1.007-2.116-2.504c-0.01-1.637,1.019-2.631,2.207-2.631c0.764,0,1.259,0.354,1.482,0.742h0.024v-2.94
			L153.495,223.246L153.495,223.246z M152.605,227.544c0-0.112-0.01-0.264-0.039-0.375c-0.132-0.559-0.619-1.032-1.292-1.032
			c-0.926,0-1.473,0.818-1.473,1.891c0,0.995,0.498,1.821,1.454,1.821c0.603,0,1.148-0.402,1.311-1.068
			c0.029-0.125,0.039-0.238,0.039-0.389V227.544z"/>
		<path d="M158.445,229.286c0,0.428,0.023,0.845,0.073,1.18h-0.803l-0.073-0.617h-0.028c-0.275,0.39-0.804,0.731-1.506,0.731
			c-0.995,0-1.509-0.705-1.509-1.413c0-1.192,1.058-1.837,2.958-1.828v-0.102c0-0.398-0.112-1.141-1.118-1.128
			c-0.467,0-0.946,0.132-1.295,0.365l-0.204-0.604c0.407-0.254,1.009-0.428,1.627-0.428c1.508,0,1.873,1.031,1.873,2.001v1.841
			L158.445,229.286L158.445,229.286z M157.586,227.952c-0.979-0.021-2.088,0.153-2.088,1.108c0,0.591,0.389,0.856,0.835,0.856
			c0.65,0,1.067-0.407,1.208-0.822c0.027-0.102,0.04-0.203,0.04-0.289v-0.854L157.586,227.952L157.586,227.952z"/>
		<path d="M160.147,225.542l1.068,2.908c0.123,0.325,0.242,0.712,0.325,1.006h0.023c0.09-0.294,0.19-0.67,0.313-1.03l0.979-2.888
			h0.946l-1.345,3.509c-0.641,1.688-1.079,2.542-1.688,3.081c-0.449,0.376-0.876,0.528-1.095,0.568l-0.228-0.741
			c0.228-0.076,0.52-0.214,0.783-0.44c0.242-0.19,0.539-0.539,0.752-0.994c0.043-0.092,0.076-0.166,0.076-0.214
			c0-0.051-0.023-0.124-0.076-0.237l-1.811-4.531L160.147,225.542L160.147,225.542z"/>
		<path d="M164.432,229.558c0.274,0.161,0.739,0.344,1.19,0.344c0.643,0,0.945-0.315,0.945-0.732c0-0.428-0.255-0.651-0.905-0.893
			c-0.895-0.327-1.312-0.806-1.312-1.396c0-0.794,0.652-1.444,1.697-1.444c0.5,0,0.936,0.132,1.2,0.303l-0.214,0.653
			c-0.192-0.124-0.552-0.292-1.006-0.292c-0.529,0-0.814,0.302-0.814,0.669c0,0.403,0.285,0.59,0.926,0.843
			c0.844,0.315,1.294,0.743,1.294,1.473c0,0.875-0.683,1.485-1.829,1.485c-0.542,0-1.034-0.142-1.387-0.345L164.432,229.558z"/>
	</g>
	<g>
		<path d="M5.341,14.842c0.254,0.151,0.834,0.406,1.463,0.406c1.14,0,1.505-0.721,1.494-1.281c-0.01-0.925-0.845-1.322-1.708-1.322
			H6.092v-0.672h0.499c0.651,0,1.474-0.335,1.474-1.118c0-0.529-0.335-0.996-1.16-0.996c-0.529,0-1.037,0.234-1.321,0.437
			L5.339,9.644c0.356-0.252,1.028-0.507,1.739-0.507c1.301,0,1.891,0.771,1.891,1.576c0,0.691-0.417,1.271-1.219,1.564v0.021
			c0.814,0.152,1.464,0.763,1.474,1.687c0,1.058-0.834,1.985-2.41,1.985c-0.741,0-1.393-0.235-1.718-0.448L5.341,14.842z"/>
		<path d="M14.291,10.001h-2.522l-0.254,1.697c0.152-0.02,0.295-0.028,0.539-0.028c0.519,0,1.016,0.102,1.423,0.354
			c0.519,0.287,0.946,0.866,0.946,1.688c0,1.293-1.027,2.258-2.461,2.258c-0.722,0-1.322-0.204-1.647-0.406l0.225-0.682
			c0.274,0.163,0.813,0.366,1.424,0.366c0.833,0,1.566-0.549,1.555-1.434c0-0.854-0.58-1.454-1.891-1.454
			c-0.387,0-0.682,0.03-0.926,0.062l0.427-3.173h3.161V10.001z"/>
		<path d="M19.968,12.482c0,2.247-0.845,3.487-2.298,3.487c-1.291,0-2.176-1.209-2.196-3.396c0-2.227,0.965-3.437,2.308-3.437
			C19.165,9.136,19.968,10.377,19.968,12.482z M16.379,12.584c0,1.717,0.529,2.693,1.342,2.693c0.905,0,1.342-1.066,1.342-2.754
			c0-1.627-0.407-2.695-1.342-2.695C16.949,9.828,16.379,10.783,16.379,12.584z"/>
	</g>
	<g>
		<path d="M5.341,38.718c0.254,0.153,0.834,0.407,1.463,0.407c1.14,0,1.505-0.723,1.494-1.282c-0.01-0.926-0.845-1.321-1.708-1.321
			H6.092V35.85h0.499c0.651,0,1.474-0.335,1.474-1.118c0-0.529-0.335-0.997-1.16-0.997c-0.529,0-1.037,0.236-1.321,0.437
			l-0.245-0.651c0.356-0.253,1.028-0.506,1.739-0.506c1.301,0,1.891,0.771,1.891,1.575c0,0.691-0.417,1.271-1.219,1.566v0.02
			c0.814,0.152,1.464,0.764,1.474,1.689c0,1.057-0.834,1.982-2.41,1.982c-0.741,0-1.393-0.233-1.718-0.447L5.341,38.718z"/>
		<path d="M14.749,36.361c0,2.247-0.844,3.486-2.298,3.486c-1.292,0-2.176-1.208-2.198-3.396c0-2.227,0.966-3.435,2.308-3.435
			C13.946,33.015,14.749,34.255,14.749,36.361z M11.16,36.463c0,1.718,0.529,2.692,1.342,2.692c0.905,0,1.342-1.067,1.342-2.756
			c0-1.625-0.406-2.692-1.342-2.692C11.729,33.707,11.16,34.662,11.16,36.463z"/>
		<path d="M19.968,36.361c0,2.247-0.845,3.486-2.298,3.486c-1.291,0-2.176-1.208-2.196-3.396c0-2.227,0.965-3.435,2.308-3.435
			C19.165,33.015,19.968,34.255,19.968,36.361z M16.379,36.463c0,1.718,0.529,2.692,1.342,2.692c0.905,0,1.342-1.067,1.342-2.756
			c0-1.625-0.407-2.692-1.342-2.692C16.949,33.707,16.379,34.662,16.379,36.463z"/>
	</g>
	<g>
		<path d="M5.126,63.166v-0.55l0.702-0.682c1.688-1.606,2.461-2.46,2.461-3.456c0-0.672-0.315-1.292-1.301-1.292
			c-0.601,0-1.099,0.303-1.404,0.558L5.3,57.113c0.448-0.375,1.109-0.669,1.86-0.669c1.423,0,2.023,0.976,2.023,1.922
			c0,1.22-0.884,2.206-2.277,3.548l-0.519,0.488v0.021h2.959v0.743H5.126z"/>
		<path d="M14.291,57.308h-2.522l-0.254,1.698c0.152-0.02,0.295-0.03,0.539-0.03c0.519,0,1.016,0.102,1.423,0.355
			c0.519,0.287,0.946,0.864,0.946,1.688c0,1.292-1.027,2.257-2.461,2.257c-0.722,0-1.322-0.204-1.647-0.406l0.225-0.682
			c0.274,0.163,0.813,0.367,1.424,0.367c0.833,0,1.566-0.549,1.555-1.435c0-0.853-0.58-1.453-1.891-1.453
			c-0.387,0-0.682,0.029-0.926,0.061l0.427-3.173h3.161V57.308z"/>
		<path d="M19.968,59.789c0,2.247-0.845,3.487-2.298,3.487c-1.291,0-2.176-1.209-2.196-3.396c0-2.228,0.965-3.436,2.308-3.436
			C19.165,56.445,19.968,57.684,19.968,59.789z M16.379,59.891c0,1.718,0.529,2.694,1.342,2.694c0.905,0,1.342-1.068,1.342-2.756
			c0-1.627-0.407-2.694-1.342-2.694C16.949,57.135,16.379,58.09,16.379,59.891z"/>
	</g>
	<g>
		<path d="M5.126,87.654v-0.55l0.702-0.682c1.688-1.606,2.461-2.46,2.461-3.457c0-0.67-0.315-1.292-1.301-1.292
			c-0.601,0-1.099,0.304-1.404,0.558L5.3,81.6c0.448-0.375,1.109-0.669,1.86-0.669c1.423,0,2.023,0.976,2.023,1.922
			c0,1.22-0.884,2.206-2.277,3.548l-0.519,0.488v0.021h2.959v0.743H5.126z"/>
		<path d="M14.749,84.277c0,2.247-0.844,3.487-2.298,3.487c-1.292,0-2.176-1.209-2.198-3.396c0-2.227,0.966-3.437,2.308-3.437
			C13.946,80.931,14.749,82.172,14.749,84.277z M11.16,84.379c0,1.717,0.529,2.693,1.342,2.693c0.905,0,1.342-1.066,1.342-2.755
			c0-1.627-0.406-2.694-1.342-2.694C11.729,81.623,11.16,82.578,11.16,84.379z"/>
		<path d="M19.968,84.277c0,2.247-0.845,3.487-2.298,3.487c-1.291,0-2.176-1.209-2.196-3.396c0-2.227,0.965-3.437,2.308-3.437
			C19.165,80.931,19.968,82.172,19.968,84.277z M16.379,84.379c0,1.717,0.529,2.693,1.342,2.693c0.905,0,1.342-1.066,1.342-2.755
			c0-1.627-0.407-2.694-1.342-2.694C16.949,81.623,16.379,82.578,16.379,84.379z"/>
	</g>
	<g>
		<path d="M7.069,106.508H7.048l-1.148,0.62l-0.173-0.682l1.444-0.771h0.762v6.61H7.069V106.508z"/>
		<path d="M14.291,106.426h-2.522l-0.254,1.698c0.152-0.021,0.295-0.03,0.539-0.03c0.519,0,1.016,0.102,1.423,0.355
			c0.519,0.287,0.946,0.864,0.946,1.688c0,1.292-1.027,2.257-2.461,2.257c-0.722,0-1.322-0.204-1.647-0.405l0.225-0.682
			c0.274,0.163,0.813,0.366,1.424,0.366c0.833,0,1.566-0.549,1.555-1.436c0-0.852-0.58-1.458-1.891-1.458
			c-0.387,0-0.682,0.031-0.926,0.067l0.427-3.177h3.161V106.426z"/>
		<path d="M19.968,108.906c0,2.248-0.845,3.487-2.298,3.487c-1.291,0-2.176-1.21-2.196-3.396c0-2.23,0.965-3.439,2.308-3.439
			C19.165,105.562,19.968,106.802,19.968,108.906z M16.379,109.009c0,1.722,0.529,2.695,1.342,2.695
			c0.905,0,1.342-1.069,1.342-2.755c0-1.627-0.407-2.695-1.342-2.695C16.949,106.255,16.379,107.208,16.379,109.009z"/>
	</g>
	<g>
		<path d="M7.069,129.338H7.048l-1.149,0.619l-0.173-0.682l1.443-0.771h0.763v6.608H7.067L7.069,129.338L7.069,129.338z"/>
		<path d="M14.749,131.738c0,2.25-0.844,3.486-2.298,3.486c-1.292,0-2.176-1.209-2.198-3.396c0-2.228,0.966-3.436,2.308-3.436
			C13.946,128.392,14.749,129.631,14.749,131.738z M11.16,131.84c0,1.722,0.529,2.692,1.342,2.692c0.905,0,1.342-1.066,1.342-2.756
			c0-1.625-0.406-2.69-1.342-2.69C11.729,129.086,11.16,130.039,11.16,131.84z"/>
		<path d="M19.968,131.738c0,2.25-0.845,3.486-2.298,3.486c-1.291,0-2.176-1.209-2.196-3.396c0-2.228,0.965-3.436,2.308-3.436
			C19.165,128.392,19.968,129.631,19.968,131.738z M16.379,131.84c0,1.722,0.529,2.692,1.342,2.692c0.905,0,1.342-1.066,1.342-2.756
			c0-1.625-0.407-2.69-1.342-2.69C16.949,129.086,16.379,130.039,16.379,131.84z"/>
	</g>
	<g>
		<path d="M9.071,155.544H6.55l-0.254,1.697c0.152-0.021,0.295-0.029,0.539-0.029c0.518,0,1.016,0.102,1.423,0.355
			c0.519,0.288,0.946,0.864,0.946,1.688c0,1.291-1.027,2.258-2.461,2.258c-0.721,0-1.321-0.204-1.646-0.407l0.224-0.681
			c0.274,0.162,0.813,0.366,1.422,0.366c0.835,0,1.566-0.55,1.557-1.435c0-0.854-0.58-1.458-1.891-1.458
			c-0.387,0-0.682,0.03-0.926,0.064l0.427-3.172h3.161V155.544z"/>
		<path d="M14.749,158.025c0,2.246-0.844,3.487-2.298,3.487c-1.292,0-2.176-1.21-2.198-3.401c0-2.227,0.966-3.432,2.308-3.432
			C13.946,154.68,14.749,155.92,14.749,158.025z M11.16,158.128c0,1.722,0.529,2.695,1.342,2.695c0.905,0,1.342-1.069,1.342-2.757
			c0-1.627-0.406-2.692-1.342-2.692C11.729,155.374,11.16,156.328,11.16,158.128z"/>
	</g>
	<g>
		<path d="M9.53,179.654c0,2.246-0.845,3.487-2.298,3.487c-1.291,0-2.176-1.21-2.196-3.398c0-2.226,0.965-3.435,2.308-3.435
			C8.727,176.308,9.53,177.549,9.53,179.654z M5.94,179.756c0,1.718,0.529,2.692,1.342,2.692c0.906,0,1.343-1.065,1.343-2.755
			c0-1.626-0.407-2.694-1.343-2.694C6.511,176.999,5.94,177.955,5.94,179.756z"/>
	</g>
	<g>
		<path d="M46.032,203.534c0,2.249-0.844,3.485-2.297,3.485c-1.291,0-2.176-1.208-2.196-3.397c0-2.227,0.965-3.436,2.308-3.436
			C45.229,200.186,46.032,201.427,46.032,203.534z M42.443,203.635c0,1.721,0.529,2.691,1.342,2.691
			c0.905,0,1.343-1.066,1.343-2.754c0-1.626-0.407-2.694-1.343-2.694C43.013,200.879,42.443,201.836,42.443,203.635z"/>
	</g>
	<g>
		<path d="M76.32,201.131H76.3l-1.15,0.621l-0.173-0.682l1.443-0.77h0.763v6.606h-0.864L76.32,201.131L76.32,201.131z"/>
	</g>
	<g>
		<path d="M113.435,206.907v-0.55l0.702-0.681c1.688-1.607,2.46-2.462,2.46-3.458c0-0.67-0.315-1.295-1.301-1.295
			c-0.601,0-1.099,0.305-1.404,0.559l-0.285-0.631c0.448-0.377,1.109-0.67,1.86-0.67c1.423,0,2.024,0.979,2.024,1.926
			c0,1.22-0.884,2.202-2.278,3.55l-0.519,0.486v0.021h2.959v0.742H113.435L113.435,206.907z"/>
	</g>
	<g>
		<path d="M147.892,205.89c0.254,0.152,0.832,0.407,1.461,0.407c1.14,0,1.507-0.723,1.497-1.282
			c-0.014-0.928-0.844-1.321-1.711-1.321h-0.502v-0.672h0.502c0.653,0,1.474-0.336,1.474-1.119c0-0.528-0.339-0.995-1.158-0.995
			c-0.529,0-1.033,0.236-1.322,0.437l-0.24-0.65c0.355-0.254,1.028-0.508,1.738-0.508c1.3,0,1.888,0.772,1.888,1.576
			c0,0.691-0.417,1.271-1.221,1.564v0.021c0.818,0.153,1.462,0.766,1.475,1.688c0,1.058-0.833,1.983-2.409,1.983
			c-0.743,0-1.396-0.233-1.722-0.447L147.892,205.89z"/>
	</g>
	<g>
		<path d="M188.901,206.907v-1.81h-3.07v-0.58l2.947-4.217h0.968v4.105h0.926v0.691h-0.926v1.81H188.901L188.901,206.907z
			 M188.901,204.406v-2.207c0-0.344,0.013-0.691,0.03-1.034h-0.03c-0.201,0.389-0.365,0.671-0.55,0.979l-1.616,2.252v0.021h2.166
			V204.406z"/>
	</g>
	<g>
		<path d="M225.372,201.05h-2.521l-0.252,1.698c0.151-0.024,0.292-0.029,0.539-0.029c0.517,0,1.02,0.102,1.423,0.354
			c0.52,0.286,0.946,0.865,0.946,1.687c0,1.293-1.029,2.255-2.464,2.255c-0.72,0-1.321-0.2-1.646-0.401l0.224-0.684
			c0.274,0.164,0.814,0.368,1.423,0.368c0.832,0,1.565-0.554,1.557-1.436c0-0.853-0.577-1.458-1.889-1.458
			c-0.388,0-0.684,0.028-0.928,0.062l0.427-3.169h3.162V201.05z"/>
	</g>
	<g>
		<path d="M264.4,200.928c-0.185-0.01-0.417,0.013-0.67,0.051c-1.411,0.226-2.147,1.243-2.3,2.341h0.021
			c0.313-0.427,0.875-0.77,1.608-0.77c1.17,0,1.991,0.854,1.991,2.135c0,1.22-0.822,2.34-2.204,2.34
			c-1.405,0-2.329-1.096-2.329-2.818c0-1.297,0.455-2.328,1.12-2.979c0.552-0.543,1.284-0.875,2.114-0.98
			c0.264-0.039,0.491-0.05,0.653-0.05v0.73H264.4z M264.145,204.741c0-0.943-0.538-1.513-1.358-1.513
			c-0.541,0-1.047,0.328-1.294,0.816c-0.052,0.102-0.092,0.224-0.092,0.39c0.014,1.086,0.52,1.897,1.466,1.897
			C263.623,206.327,264.145,205.686,264.145,204.741z"/>
	</g>
	<g>
		<path d="M300.965,200.301v0.589l-2.88,6.018h-0.928l2.866-5.847v-0.021h-3.231v-0.742h4.17v0.004H300.965z"/>
	</g>
	<polygon fill="none" stroke="#000000" points="38.258,-9.64 38.258,182.397 293.503,183.033 293.503,-10.276 	"/>
	<g>
		<path d="M-22.937-5.876h-2.083v-0.752h5.074v0.752h-2.095v6.109h-0.896L-22.937-5.876L-22.937-5.876z"/>
		<path d="M-19.356-0.85c0.396,0.254,0.967,0.45,1.576,0.45c0.905,0,1.433-0.479,1.433-1.172c0-0.631-0.366-1.007-1.291-1.353
			c-1.119-0.406-1.81-0.997-1.81-1.952c0-1.068,0.885-1.86,2.217-1.86c0.69,0,1.209,0.163,1.504,0.336l-0.244,0.72
			c-0.213-0.131-0.671-0.325-1.291-0.325c-0.936,0-1.292,0.559-1.292,1.027c0,0.642,0.417,0.958,1.362,1.321
			c1.16,0.45,1.739,1.007,1.739,2.013c0,1.062-0.772,1.992-2.39,1.992c-0.661,0-1.382-0.205-1.749-0.45L-19.356-0.85z"/>
		<path d="M-14.226-6.527c0.387-0.089,1.007-0.151,1.616-0.151c0.885,0,1.455,0.151,1.871,0.499c0.356,0.265,0.58,0.669,0.58,1.21
			c0,0.67-0.447,1.249-1.158,1.505v0.031c0.651,0.151,1.413,0.69,1.413,1.708c0,0.59-0.234,1.049-0.59,1.377
			c-0.468,0.438-1.241,0.643-2.359,0.643c-0.609,0-1.079-0.042-1.374-0.082L-14.226-6.527L-14.226-6.527z M-13.343-3.72h0.804
			c0.926,0,1.474-0.498,1.474-1.159c0-0.793-0.6-1.119-1.494-1.119c-0.407,0-0.641,0.031-0.783,0.061V-3.72z M-13.343-0.441
			c0.183,0.028,0.427,0.04,0.741,0.04c0.916,0,1.759-0.339,1.759-1.335c0-0.926-0.803-1.323-1.769-1.323h-0.733L-13.343-0.441
			L-13.343-0.441z"/>
		<path d="M-3.261-0.533c-0.204,0.389-0.682,0.859-1.413,0.859c-0.448,0-0.865-0.164-1.079-0.543v0.603
			c0,0.552,0.021,1.461,0.112,1.87h-0.802c-0.102-0.307-0.143-1.032-0.143-1.828v-5.124h0.896v2.909
			c0,0.762,0.315,1.397,1.109,1.397c0.59,0,1.007-0.418,1.169-0.827c0.051-0.131,0.081-0.293,0.081-0.466v-3.01h0.896v3.569
			c0,0.542,0.102,0.757,0.468,0.777l-0.071,0.652c-0.112,0.031-0.163,0.041-0.315,0.041c-0.438,0-0.793-0.243-0.875-0.88h-0.032
			V-0.533z"/>
		<path d="M-0.96-3.364c0-0.519-0.021-0.925-0.041-1.333h0.784l0.04,0.804h0.029C0.128-4.361,0.584-4.798,1.41-4.798
			c0.661,0,1.167,0.407,1.381,0.987h0.022C2.965-4.097,3.169-4.3,3.369-4.452c0.295-0.224,0.61-0.345,1.08-0.345
			c0.663,0,1.625,0.427,1.625,2.136v2.895H5.199V-2.55c0-0.956-0.354-1.514-1.068-1.514c-0.52,0-0.904,0.376-1.067,0.803
			C3.023-3.129,2.993-2.976,2.993-2.813v3.047H2.118v-2.956c0-0.784-0.346-1.342-1.028-1.342c-0.551,0-0.966,0.447-1.11,0.894
			c-0.049,0.123-0.069,0.286-0.069,0.437v2.967h-0.874v-3.599L-0.96-3.364L-0.96-3.364z"/>
		<path d="M11.978-2.277c0,1.824-1.272,2.622-2.45,2.622c-1.322,0-2.36-0.982-2.36-2.54c0-1.637,1.088-2.603,2.442-2.603
			C11.022-4.798,11.978-3.771,11.978-2.277z M8.083-2.226c0,1.079,0.609,1.895,1.483,1.895c0.854,0,1.495-0.807,1.495-1.916
			c0-0.833-0.417-1.88-1.475-1.88C8.54-4.126,8.083-3.15,8.083-2.226z"/>
		<path d="M13.108-6.995h0.896v7.228h-0.896V-6.995z"/>
		<path d="M14.757,0.629l2.829-7.38h0.702l-2.846,7.38H14.757z"/>
		<path d="M20.657-5.551h-0.021l-1.15,0.62l-0.174-0.68l1.443-0.772h0.764v6.617h-0.864L20.657-5.551L20.657-5.551z"/>
	</g>
	<g>
		<path fill="none" stroke="#000000" stroke-width="2" d="M161.997,48.832c75.102-1.502,142.991-1.51,132.778-1.36"/>
		<path fill="none" stroke="#000000" stroke-width="2" d="M47.484,160.133c0,0,39.415-109.799,114.513-111.301"/>
	</g>
</g>
</svg>
