<?xml version="1.0" encoding="utf-8"?>
<!-- Generator: Adobe Illustrator 15.0.2, SVG Export Plug-In . SVG Version: 6.00 Build 0)  -->
<!DOCTYPE svg PUBLIC "-//W3C//DTD SVG 1.1//EN" "http://www.w3.org/Graphics/SVG/1.1/DTD/svg11.dtd">
<svg version="1.1" id="Layer_1" xmlns="http://www.w3.org/2000/svg" xmlns:xlink="http://www.w3.org/1999/xlink" x="0px" y="0px"
	 width="411.023px" height="78.391px" viewBox="-42.02 -97.904 411.023 78.391"
	 enable-background="new -42.02 -97.904 411.023 78.391" xml:space="preserve">
<metadata><?xpacket begin="﻿" id="W5M0MpCehiHzreSzNTczkc9d"?>
<x:xmpmeta xmlns:x="adobe:ns:meta/" x:xmptk="Adobe XMP Core 5.0-c060 61.134777, 2010/02/12-17:32:00        ">
   <rdf:RDF xmlns:rdf="http://www.w3.org/1999/02/22-rdf-syntax-ns#">
      <rdf:Description rdf:about=""
            xmlns:dc="http://purl.org/dc/elements/1.1/">
         <dc:format>image/svg+xml</dc:format>
         <dc:title>
            <rdf:Alt>
               <rdf:li xml:lang="x-default">7-4</rdf:li>
            </rdf:Alt>
         </dc:title>
      </rdf:Description>
      <rdf:Description rdf:about=""
            xmlns:xmp="http://ns.adobe.com/xap/1.0/"
            xmlns:xmpGImg="http://ns.adobe.com/xap/1.0/g/img/">
         <xmp:CreatorTool>Adobe Illustrator CS5.1</xmp:CreatorTool>
         <xmp:CreateDate>2015-02-12T16:49:17+02:00</xmp:CreateDate>
         <xmp:ModifyDate>2015-02-12T16:49:17+02:00</xmp:ModifyDate>
         <xmp:MetadataDate>2015-02-12T16:49:17+02:00</xmp:MetadataDate>
         <xmp:Thumbnails>
            <rdf:Alt>
               <rdf:li rdf:parseType="Resource">
                  <xmpGImg:width>256</xmpGImg:width>
                  <xmpGImg:height>48</xmpGImg:height>
                  <xmpGImg:format>JPEG</xmpGImg:format>
                  <xmpGImg:image>/9j/4AAQSkZJRgABAgEASABIAAD/7QAsUGhvdG9zaG9wIDMuMAA4QklNA+0AAAAAABAASAAAAAEA&#xA;AQBIAAAAAQAB/+4ADkFkb2JlAGTAAAAAAf/bAIQABgQEBAUEBgUFBgkGBQYJCwgGBggLDAoKCwoK&#xA;DBAMDAwMDAwQDA4PEA8ODBMTFBQTExwbGxscHx8fHx8fHx8fHwEHBwcNDA0YEBAYGhURFRofHx8f&#xA;Hx8fHx8fHx8fHx8fHx8fHx8fHx8fHx8fHx8fHx8fHx8fHx8fHx8fHx8fHx8f/8AAEQgAMAEAAwER&#xA;AAIRAQMRAf/EAaIAAAAHAQEBAQEAAAAAAAAAAAQFAwIGAQAHCAkKCwEAAgIDAQEBAQEAAAAAAAAA&#xA;AQACAwQFBgcICQoLEAACAQMDAgQCBgcDBAIGAnMBAgMRBAAFIRIxQVEGE2EicYEUMpGhBxWxQiPB&#xA;UtHhMxZi8CRygvElQzRTkqKyY3PCNUQnk6OzNhdUZHTD0uIIJoMJChgZhJRFRqS0VtNVKBry4/PE&#xA;1OT0ZXWFlaW1xdXl9WZ2hpamtsbW5vY3R1dnd4eXp7fH1+f3OEhYaHiImKi4yNjo+Ck5SVlpeYmZ&#xA;qbnJ2en5KjpKWmp6ipqqusra6voRAAICAQIDBQUEBQYECAMDbQEAAhEDBCESMUEFURNhIgZxgZEy&#xA;obHwFMHR4SNCFVJicvEzJDRDghaSUyWiY7LCB3PSNeJEgxdUkwgJChgZJjZFGidkdFU38qOzwygp&#xA;0+PzhJSktMTU5PRldYWVpbXF1eX1RlZmdoaWprbG1ub2R1dnd4eXp7fH1+f3OEhYaHiImKi4yNjo&#xA;+DlJWWl5iZmpucnZ6fkqOkpaanqKmqq6ytrq+v/aAAwDAQACEQMRAD8A9U4q7FVsssUSGSV1jjX7&#xA;TsQAPmTiqG/S+ldPrsFf+Mqf1xV36X0mlfrsFB39VP64q79L6V/y2wf8jU/rirv0vpX/AC2wf8jU&#xA;/rirv0vpO3+mwb9P3qf1xV36X0rp9dgr/wAZU/rirv0vpP8Ay2weH96n9cVd+l9K6fXYK/8AGVP6&#xA;4qxPXF0XWYZfU8xwafeKZoY5llhDx8LuKaFhRkPwfVtq/wAxxVb5VWPR5YYrnziNeecpE/rSxmix&#xA;RSEtQySEFmpUgj3rirLv0vpO/wDpsG3X96n9cVaXWdIZVZb63KtupEqEEHfbfFW/0vpXT67BX/jK&#xA;n9cVd+l9J/5bYPD+9T+uKu/S+ldPrsFf+Mqf1xV36X0mlfrsFB39VP64q79L6V/y2wf8jU/rirv0&#xA;vpX/AC2wf8jU/rirv0vpO3+mwb9P3qf1xV36X0rp9dgr/wAZU/rirv0vpP8Ay2weH96n9cVd+l9K&#xA;6fXYK/8AGVP64q79L6TSv12Cg7+qn9cVd+l9K/5bYP8Akan9cVd+l9K/5bYP+Rqf1xV36X0nb/TY&#xA;N+n71P64q79L6V0+uwV/4yp/XFXfpfSf+W2Dw/vU/riq5NT02R1jS7heRjRUWRCSfYA4q8+tLj88&#xA;zEbe7tbFWjs7nhdxmIvJdpbstvzBk4BZJ2ViFTtuQPtKoy11X85pPrRudF02Ex1+qosvMSEkAVb1&#xA;agAb/ZHh81Uz8v3XnW40qc+a7O2s7pb63FoLU1DwmSJgWHOajKzFftdvvVSD8nr/AFu8tp31iaSW&#xA;5Wa5CCS4nuv3QW2CyLJPFC1JqerxUcRy2VPshVDeYtQ1eLz3ZWy3zxaRLaX3q2iTBVM5lu+POEIx&#xA;b1FX4Sxp8B3U/aVZZ+Yt3dWflqa6tLgWtzDzaKcskYVhDJ+3IUVa9Klh8x1xVT/LO9vb3yvFdX10&#xA;t5eyN/pMyMHX1BGiugYAV9MjhXfp1bqVWJ+VdT1uX8zzZXDXH6MjtuUCvK7QFhawgBY/7tCoYkUC&#xA;n4m5c9uKqM/NnU9b0+802XTJmhR5rdLxkmmhZISZuc4WGOT1PRWrcHqvij9Aqzb/AKV3/R9/2PYq&#xA;i5P+Orb/APGCf/icOKoR/wDjg3//AEe/8nJMVRd7/vTYf8Z2/wCTEuKoS6/3j1v/AGf/AFCx4q8O&#xA;8nal5nTTdGtoLh4LCHyhbS2VybqcJHcnRY+K+l9Xkij9MgyclDt8XU/3aqozU5/OFx+XWiyiTUl1&#xA;SRgb028l9d3MZRryqNJBB6rcCuzMAFYAqzAAMqnt9qOuJ5+uLOOW5+pOZCCk8noxymUMqCIo8fLk&#xA;hcERlt68qD08VTv8pr7VLzT+eoPO7xy3UcDXMrzO0Kra8HDSlpKPXnRnbcmhAoqqstf/AI4N/wD9&#xA;Hv8AyckxVF3v+9Nh/wAZ2/5MS4q6y/3pv/8AjOv/ACYixVCWv+8eif7D/qFkxVFx/wDHVuP+MEH/&#xA;ABObFUJ/0rv+j7/sexVFyf8AHVt/+ME//E4cVQj/APHBv/8Ao9/5OSYqi73/AHpsP+M7f8mJcVdZ&#xA;f703/wDxnX/kxFiqEtf949E/2H/ULJiqLj/46tx/xgg/4nNiqE/6V3/R9/2PYqi5P+Orb/8AGCf/&#xA;AInDirArzyt+b31jVEsfMlslhe3UstskodpYIZZyfTWQxswCwfCoUijbhtviVQttY/mlI4afzlpr&#xA;z6WR+lVhEaxxA7uZU9LaiLtzp3+zsQqyjT7u4PllI9Y1S31C+jljmuLqzYBTA14fSYekEIoicagd&#xA;VPXFW9I1Py1rt9bTaRfSXkLWZuFlSe54mK4MTRMGLCvIA9OnQ74qluqeYvKenR6ho95fyw6kIzMt&#xA;uZrmrJfX8ljblfio1biiN/LUFtjiqb+aLnQ9Cs4NV1W6mttPtpq3FwZrlgitG68jxZiACwqew67Y&#xA;qq6H+itRbUZrOeeWKO8eBm9a5X95DGiOPiYVHJTQ9CNxtirH9C8z+U9UuNL0u0u7hr2CWe3uIzLc&#xA;Lwks4hFKCS1BV50CHo3QdCMVTXV9V8uaHrEUeqXc1udQWOG0JmuSHlUTycKhjQsqHiD1Ow3OKqln&#xA;BYXmhwXlvLO8FxdLLC3rziqPeAqaFwRscVTCTTbf9KW45z/3E/8Ax8T/AM8X+XiqFfTbf9BX55z7&#xA;fXP+PiftJJ/l4qirzTbf6xY/HPvO3/HxP/viX/LxVC3Om2/1PWvjn25/8fE//LKn+Xirzb8rvPHl&#xA;m48meTNMC6gL60sLWKaINN8Xpaeq84lSSrJIzFU4jqrLtTFWWf438kJZS+Yvr1y+iyKkKXqPdshd&#xA;BcOaUNSCYzGvjJRB8Rpiq6TW9Kj1e38uNBqAv7q4+swyepL6Jt1vG9SQt6uwjcJGwpyDOm1DyCqJ&#xA;8v6zp2va7d28Fvf27aT69neGeaZR9YV4y0aESHlROD8hsVdfoVTJ9Nt/0FfnnPt9c/4+J+0kn+Xi&#xA;qKvNNt/rFj8c+87f8fE/++Jf8vFXWem2/wBYvvjn2nX/AI+J/wDfEX+XiqFttNt/qei/HPvw/wCP&#xA;if8A5ZX/AMvFUVHptv8ApS4HOf8AuIP+Pif+eX/LxVC/o23/AEdXnP8A73U/3on/AOW2n8+KoqTT&#xA;bf8ASluOc/8AcT/8fE/88X+XiqFfTbf9BX55z7fXP+PiftJJ/l4qirzTbf6xY/HPvO3/AB8T/wC+&#xA;Jf8ALxV1lpOl/WL4GzhNJ1AJjUn+4i7kYqhbbStL+p6L/ocG/Cv7tN/9Ff2xVFR6Vpf6UuB9Tgp6&#xA;EG3pp/PL7Yqhf0Vpf6Or9Tgr9ep/dp0+u08MVRh03To9XtWjtYUZYZirLGoIIeKhBAxVTtfN/lq6&#xA;hllj1CJRC80cqSkwyK1szJMDHKEf4Gjau3bFWB3vlX8sLrzAdZu9Zf63C8100IkVYzG8qXE0MqOj&#xA;cq+twKbPxbjTFVTyf5d8h2Vrf2flTUXuY5RaRvBLVxEvrrHs3GItUINiagUPRhirINA8lWnlzV2O&#xA;kejbi9hczJ6crJWIxKCqtMQvKpZuPViWO5JxVCa75H0zVUvrzUoba5vbGRJoLhopQySWryXtuycZ&#xA;xx4PdNX+bo1Rtiqea7pVzqK2dpeSwS273Ksyei4BMcbyLWk3TkoxVD+VPLSaBbXum6R9XtLFbt5U&#xA;gWKQqrTIkjBA0x4rVvhUbKNhtiqXWXkzT7WDTNXt4bWPUo1REuhFKZON5dpczKxM/wAQMzFgD9mp&#xA;40BOKo/WfKtvr97Nb6wlreQLbovpSQycaS+sjbCYb0Ox6g7ihxVUtLG8tNEhtLeWBLe3ulihT0ZD&#xA;xVLwKoqZiTSnfFUfJHqn6Ut/9Igr6E/+6H/ni/4txVCzx6ounavELiDhF61P3L1/eRCVv92/zSHF&#xA;UVeR6p9Ysf8ASIP79qfuH/3xL/xbiqFuY9U+p61/pEH7df3L/wDLKn/FuKsJ8k6VY6d+UnlHXjb2&#xA;nq6fo2n3Ec62vK4RZYoJJwjmVd5OA5dK4qhZtf06Hy1o6WejGfTL+5s7fT9MaKSRxLbNdX0cshtJ&#xA;71n/AHlpyNeVW+33xVlsM0kuq3VqBCNQszbSteG3O8N3qc6rGrety2e1LMKU3HXsqreXL19RaG8s&#xA;TZ24m+umaOKHrItwiM78ZRVpOHKpxVGvHqn6Cv8A/SIKf6ZX9y/+/JP+LcVRV5Hqn1ix/wBIg/v2&#xA;p+4f/fEv/FuKus49U+sX3+kQf361/cP/AL4i/wCLcVQsEeqLp2kSm4g4R+jX9y9R6kRiX/du/wAU&#xA;gxVFRx6p+lLj/SIK+hB/uh/55f8Ai3FUL6eqfo7/AHogp9e/3y/X67/xlxVFSR6p+lLf/SIK+hP/&#xA;ALof+eL/AItxVCvHqn6Cv/8ASIKf6ZX9y/8AvyT/AItxVFXkeqfWLH/SIP79qfuH/wB8S/8AFuKu&#xA;s49U+sX3+kQf361/cP8A74i/4txVCwx6oul6VN9YgpF6FF9F9/VT0f8Afvb1a4qio49U/Slx/pEF&#xA;fQg/3Q/88v8AxbiqF9PVP0d/vRBT69/vl+v13/jLiqMMeojV7X1J4WX0ZuQWFlJHOKtCZWxVIz+U&#xA;3kY6xeau1iWvb2WW4dvVkAWWeNo5mUKR/eK5ryqPCmKpNfeS/wAmrCSbT9Qa2hu5HjlkSe6dZxMk&#xA;LIsiVcFGMUpqEopFNsVTDRdK8iRy39/5SmtmuJ57UXQt5PWijZp1+IIG+Hn6YqFIX4dt+VVU3i1V&#xA;rnzLLpsF2sl7YQP9aK2VwbeMyei4je45+iJeDI4j5cuJ5UpiqIW01O4GqQG5gUSyemzeg5pyt4xX&#xA;+998VVLyPVPrFj/pEH9+1P3D/wC+Jf8Ai3FVaG01SOSdxdQH1nEhHoPtRFSn99/kYqk81+tlpGkx&#xA;3+pW1ubo2sdqhgkZ5JF4uFVVlJP2fiNKAbnbFUyjj1X9KXFLiCvoQf7ofpzl/wCLsVU7q01OCzVP&#xA;rMDA3Ub19BxvJdK/+/e3LFUU1pqjXMc/1qCsaPGF9B9+ZU1/vv8AIxVCraancDVIDcwKJZPTZvQc&#xA;05W8Yr/e++Kql5Hqn1ix/wBIg/v2p+4f/fEv/FuKqeoWmpxafqb/AFmA+tHJIw9BxSkISg/e/wCR&#xA;irDPIt7G/wCXHkXQp5kml1HRNNkW1SzluAIIoIOTTsr8EjqwUs9K126GirIo/KFgzHS5rezurG2S&#xA;3mggurd7lUkDzcWX1pnII5EDfoadMVXXvleBLyLV3ispdWSWKOLUGtCZ0je7MnprIZSwUGZunifH&#xA;FUo0zzP5Vt/Pk3lLTbiztNeQzm5tILL01d2it7p5HKSirFJF3PU8vDFWTQ2mpzWt9ZG5gX95NGzi&#xA;Bz/fj1aj972EuKql5Hqn1ix/0iD+/an7h/8AfEv/ABbiqtDaapHJO4uoD6ziQj0H2oipT++/yMVQ&#xA;tlaanPo9kn1mBQI7eQfuHP8Ad8XA/vf8nFVSOPVP0pcf6RBX0IP90P8Azy/8W4qp3VpqcFmqfWYG&#xA;Buo3r6DjeS6V/wDfvbliqKa01RrmOf61BWNHjC+g+/Mqa/33+RiqFitNTmgv7L6zAqepJHy9Byf3&#xA;6CVj/e9mlNMVVLyPVPrFj/pEH9+1P3D/AO+Jf+LcVVobTVI5J3F1AfWcSEeg+1EVKf33+RiqFsrT&#xA;U59Hsk+swKBHbyD9w5/u+Lgf3v8Ak4qqRx6p+lLj/SIK+hB/uh/55f8Ai3FVO6tNTgs1T6zAwN1G&#xA;9fQcbyXSv/v3tyxVGC01A3kVxJcQlY0dCiwspIcoTuZWp9jwxVG4qxTXPyw8pa3q7atqEM73rsGZ&#xA;knljXaIRceKsFpQA/MVxVEaJ5D0Hy/bXMOhRmz+tSQzS+o8s68oH5r8Lv9Gx/ViqJtPLptNUvNUt&#xA;5Y0vL8hro0uDGzBEj5CE3BiVikSAsqgmm+KouGz1SOSd/rUB9dxIR6D7URUp/ff5GKums9Ukkgf6&#xA;1APQcyAeg+9UZKf33+Xiqr6eq/8ALRB/yIf/AKrYqk8/lSe4uNKupL0JdaQhjglhSWLnGxjZ0kCz&#xA;fEjtAhI9qfZLAqpmtnqi3Uk/1qCsiJHx9B9uBc1/vu/PFXXNnqk8YQ3UC0eOSvoOf7tw9P77vxxV&#xA;V9PVf+WiD/kQ/wD1WxVShs9Ujknf61AfXcSEeg+1EVKf33+RirprPVJJIH+tQD0HMgHoPvVGSn99&#xA;/l4q66s9UuLWaA3UCiZGjLeg5pyBFf77FUg8veQU0jTfL9u88N1e+X9Pt9Ot770ZYzIlvEIgzxrc&#xA;cG6FgG5cSTTFU/Wz1RbqSf61BWREj4+g+3Aua/33fnirrmz1SeMIbqBaPHJX0HP924en99344qlc&#xA;fkvTo9a/TaW9mur8/UN76EnqlgsqCret/LcyCnT4vliqaQ2eqRyTv9agPruJCPQfaiKlP77/ACMV&#xA;dNZ6pJJA/wBagHoOZAPQfeqMlP77/LxVV9PVf+WiD/kQ/wD1WxVStbPVLe1hgF1AwhRYw3oOK8QB&#xA;X++xVy2eqLdST/WoKyIkfH0H24FzX++788Vdc2eqTxhDdQLR45K+g5/u3D0/vu/HFVX09V/5aIP+&#xA;RD/9VsVUobPVI5J3+tQH13EhHoPtRFSn99/kYq6az1SSSB/rUA9BzIB6D71Rkp/ff5eKqvp6r/y0&#xA;Qf8AIh/+q2KqVrZ6pb2sMAuoGEKLGG9BxXiAK/32KuWz1RbqSf61BWREj4+g+3Aua/33fnirrmz1&#xA;SeMIbqBaPHJX0HP924en99344qrJHqQcGSeFkr8SrCykj2Jlan3Yq//Z</xmpGImg:image>
               </rdf:li>
            </rdf:Alt>
         </xmp:Thumbnails>
      </rdf:Description>
      <rdf:Description rdf:about=""
            xmlns:xmpMM="http://ns.adobe.com/xap/1.0/mm/"
            xmlns:stRef="http://ns.adobe.com/xap/1.0/sType/ResourceRef#"
            xmlns:stEvt="http://ns.adobe.com/xap/1.0/sType/ResourceEvent#">
         <xmpMM:DocumentID>xmp.did:44C0730B3B20681188C69098C6AB8D67</xmpMM:DocumentID>
         <xmpMM:InstanceID>xmp.iid:44C0730B3B20681188C69098C6AB8D67</xmpMM:InstanceID>
         <xmpMM:OriginalDocumentID>uuid:8DA57CB5F225DF118833972942CE57BD</xmpMM:OriginalDocumentID>
         <xmpMM:DerivedFrom rdf:parseType="Resource">
            <stRef:instanceID>uuid:b5485f6b-a59a-4ae1-8de4-a15fdeba77d6</stRef:instanceID>
            <stRef:documentID>uuid:8DA57CB5F225DF118833972942CE57BD</stRef:documentID>
            <stRef:originalDocumentID>uuid:8DA57CB5F225DF118833972942CE57BD</stRef:originalDocumentID>
         </xmpMM:DerivedFrom>
         <xmpMM:History>
            <rdf:Seq>
               <rdf:li rdf:parseType="Resource">
                  <stEvt:action>saved</stEvt:action>
                  <stEvt:instanceID>xmp.iid:44C0730B3B20681188C69098C6AB8D67</stEvt:instanceID>
                  <stEvt:when>2015-02-12T16:49:17+02:00</stEvt:when>
                  <stEvt:softwareAgent>Adobe Illustrator CS5.1</stEvt:softwareAgent>
                  <stEvt:changed>/</stEvt:changed>
               </rdf:li>
            </rdf:Seq>
         </xmpMM:History>
      </rdf:Description>
      <rdf:Description rdf:about=""
            xmlns:pdf="http://ns.adobe.com/pdf/1.3/">
         <pdf:Producer>Adobe PDF library 7.77</pdf:Producer>
      </rdf:Description>
      <rdf:Description rdf:about=""
            xmlns:xmpTPg="http://ns.adobe.com/xap/1.0/t/pg/"
            xmlns:stDim="http://ns.adobe.com/xap/1.0/sType/Dimensions#"
            xmlns:xmpG="http://ns.adobe.com/xap/1.0/g/">
         <xmpTPg:MaxPageSize rdf:parseType="Resource">
            <stDim:w>144.999935</stDim:w>
            <stDim:h>27.654643</stDim:h>
            <stDim:unit>Millimeters</stDim:unit>
         </xmpTPg:MaxPageSize>
         <xmpTPg:NPages>1</xmpTPg:NPages>
         <xmpTPg:HasVisibleTransparency>False</xmpTPg:HasVisibleTransparency>
         <xmpTPg:HasVisibleOverprint>False</xmpTPg:HasVisibleOverprint>
         <xmpTPg:PlateNames>
            <rdf:Seq>
               <rdf:li>Cyan</rdf:li>
               <rdf:li>Magenta</rdf:li>
               <rdf:li>Yellow</rdf:li>
               <rdf:li>Black</rdf:li>
            </rdf:Seq>
         </xmpTPg:PlateNames>
         <xmpTPg:SwatchGroups>
            <rdf:Seq>
               <rdf:li rdf:parseType="Resource">
                  <xmpG:groupName>Default Swatch Group</xmpG:groupName>
                  <xmpG:groupType>0</xmpG:groupType>
               </rdf:li>
            </rdf:Seq>
         </xmpTPg:SwatchGroups>
      </rdf:Description>
   </rdf:RDF>
</x:xmpmeta>
                                                                                                    
                                                                                                    
                                                                                                    
                                                                                                    
                                                                                                    
                                                                                                    
                                                                                                    
                                                                                                    
                                                                                                    
                                                                                                    
                                                                                                    
                                                                                                    
                                                                                                    
                                                                                                    
                                                                                                    
                                                                                                    
                                                                                                    
                                                                                                    
                                                                                                    
                                                                                                    
                           
<?xpacket end="w"?>
	</metadata>
<g>
	<polygon points="-39.393,-75.964 -37.798,-75.964 -37.798,-75.509 -38.936,-75.509 -38.936,-73.686 -37.798,-73.686 
		-37.798,-73.231 -38.936,-73.231 -38.936,-70.802 -39.393,-70.802 	"/>
	<path d="M-35.824-72.777c0-0.379-0.077-0.683-0.152-0.835c-0.075-0.228-0.228-0.303-0.378-0.303l0,0v-0.38l0,0
		c0.304,0,0.531,0.152,0.683,0.455c0.152,0.303,0.228,0.683,0.228,1.292v0.152h-0.911v-0.381H-35.824L-35.824-72.777z
		 M-36.355-70.725v-0.38l0,0c0.152,0,0.226-0.077,0.304-0.228c0.152-0.152,0.152-0.304,0.152-0.607h0.455
		c0,0.381-0.152,0.684-0.304,0.912C-35.901-70.802-36.129-70.725-36.355-70.725z M-36.355-73.915c-0.152,0-0.305,0.077-0.381,0.303
		c-0.152,0.152-0.152,0.457-0.228,0.835h0.607v0.381h-0.606v0.076c0,0.38,0.075,0.683,0.152,0.912
		c0.152,0.227,0.228,0.303,0.457,0.303v0.38l0,0c-0.381,0-0.607-0.152-0.76-0.457c-0.152-0.304-0.228-0.683-0.228-1.291
		s0.076-1.063,0.228-1.366c0.229-0.305,0.456-0.456,0.76-0.456L-36.355-73.915L-36.355-73.915z"/>
	<polygon points="-34.762,-73.915 -35.141,-73.915 -35.141,-74.294 -34.762,-74.294 -34.762,-75.204 -34.306,-75.204 
		-34.306,-74.294 -33.776,-74.294 -33.776,-73.915 -34.306,-73.915 -34.306,-70.802 -34.762,-70.802 	"/>
	<path d="M-32.559-71.03L-32.559-71.03c0.228,0,0.304-0.152,0.378-0.379c0.152-0.152,0.152-0.533,0.152-1.064s0-0.909-0.152-1.14
		c-0.075-0.228-0.152-0.303-0.378-0.303l0,0v-0.38c0.075,0,0.152,0.077,0.228,0.077c0.152,0.075,0.229,0.151,0.304,0.303v-0.38
		h0.379v3.491h-0.38v-0.303c-0.076,0.151-0.152,0.228-0.228,0.303c-0.077,0.077-0.229,0.077-0.305,0.077v-0.303H-32.559z
		 M-33.09-72.472c0,0.531,0.075,0.912,0.152,1.14c0.076,0.152,0.228,0.304,0.38,0.304v0.304h-0.078
		c-0.305,0-0.531-0.152-0.683-0.379c-0.152-0.303-0.228-0.835-0.228-1.52c0-0.531,0.075-0.987,0.228-1.291
		c0.152-0.228,0.381-0.38,0.683-0.38h0.077v0.38c-0.152,0-0.305,0.077-0.381,0.303C-33.016-73.382-33.09-73.003-33.09-72.472z"/>
	<rect x="-30.815" y="-76.268" width="0.455" height="5.466"/>
	<path d="M-28.08-76.268h0.378v2.354c0.078-0.152,0.152-0.228,0.304-0.303c0.077-0.077,0.228-0.077,0.379-0.077
		c0.229,0,0.455,0.077,0.532,0.228c0.152,0.229,0.152,0.455,0.152,0.912v2.354h-0.38v-2.429c0-0.305-0.076-0.456-0.152-0.607
		c0-0.077-0.152-0.152-0.303-0.152c-0.152,0-0.304,0.076-0.379,0.228c-0.075,0.152-0.152,0.381-0.152,0.683v2.278h-0.378V-76.268z"
		/>
	<path d="M-24.133-72.777c-0.075-0.379-0.075-0.683-0.152-0.835c-0.152-0.228-0.228-0.303-0.38-0.303h-0.077v-0.38l0,0
		c0.379,0,0.607,0.152,0.758,0.455c0.152,0.304,0.228,0.683,0.228,1.292v0.152h-0.987v-0.381H-24.133L-24.133-72.777z
		 M-24.741-70.725v-0.38l0,0c0.152,0,0.304-0.077,0.379-0.228c0.076-0.152,0.152-0.304,0.152-0.607h0.379
		c0,0.381-0.077,0.684-0.229,0.912C-24.208-70.802-24.437-70.725-24.741-70.725z M-24.741-73.915c-0.152,0-0.305,0.077-0.38,0.303
		c-0.076,0.152-0.152,0.457-0.152,0.835h0.531v0.381h-0.531v0.076c0,0.38,0.077,0.683,0.152,0.912
		c0.075,0.227,0.228,0.303,0.38,0.303v0.38l0,0c-0.305,0-0.531-0.152-0.683-0.457c-0.228-0.304-0.304-0.683-0.304-1.291
		s0.077-1.063,0.304-1.366c0.152-0.305,0.38-0.456,0.683-0.456V-73.915z"/>
	<path d="M-22.386-71.03L-22.386-71.03c0.228,0,0.378-0.152,0.454-0.379c0.077-0.152,0.077-0.533,0.077-1.064s0-0.909-0.077-1.14
		c-0.076-0.228-0.228-0.303-0.454-0.303l0,0v-0.38c0.075,0,0.152,0.077,0.228,0.077c0.152,0.075,0.228,0.151,0.304,0.303v-0.38
		h0.379v3.491h-0.379v-0.303c-0.077,0.151-0.152,0.228-0.229,0.303c-0.075,0.077-0.151,0.077-0.303,0.077V-71.03z M-22.919-72.472
		c0,0.531,0.077,0.912,0.152,1.14c0.077,0.152,0.229,0.304,0.381,0.304v0.304h-0.078c-0.304,0-0.531-0.152-0.683-0.379
		c-0.151-0.303-0.151-0.835-0.151-1.52c0-0.531,0-0.987,0.151-1.291c0.152-0.228,0.38-0.38,0.683-0.38h0.077v0.38
		c-0.152,0-0.305,0.077-0.381,0.303C-22.843-73.382-22.919-73.003-22.919-72.472z"/>
	<path d="M-20.641-74.294h0.455v0.531c0.078-0.152,0.152-0.304,0.228-0.38c0.077-0.075,0.229-0.152,0.381-0.152v0.455
		c-0.229,0-0.381,0.076-0.457,0.228c-0.077,0.152-0.152,0.381-0.152,0.76v2.049h-0.455V-74.294z"/>
	<polygon points="-19.047,-73.915 -19.426,-73.915 -19.426,-74.294 -19.047,-74.294 -19.047,-75.204 -18.591,-75.204 
		-18.591,-74.294 -17.985,-74.294 -17.985,-73.915 -18.591,-73.915 -18.591,-70.802 -19.047,-70.802 	"/>
	<path d="M-16.238-74.294h0.457v0.531c0.076-0.152,0.152-0.304,0.227-0.38c0.078-0.075,0.229-0.152,0.304-0.152v0.455
		c-0.152,0-0.304,0.076-0.378,0.228c-0.152,0.152-0.152,0.381-0.152,0.76v2.049h-0.457V-74.294z"/>
	<path d="M-13.885-71.03L-13.885-71.03c0.152,0,0.304-0.152,0.381-0.379c0.075-0.152,0.152-0.533,0.152-1.064
		s-0.077-0.909-0.152-1.14c-0.077-0.228-0.229-0.303-0.381-0.303l0,0v-0.38c0.077,0,0.152,0.077,0.229,0.077
		c0.075,0.075,0.228,0.151,0.228,0.303v-0.38h0.456v3.491h-0.456v-0.303c0,0.151-0.075,0.228-0.228,0.303
		c-0.077,0.077-0.152,0.077-0.229,0.077V-71.03z M-14.416-72.472c0,0.531,0.077,0.912,0.152,1.14
		c0.075,0.152,0.152,0.304,0.378,0.304v0.304c-0.075,0-0.075,0-0.152,0c-0.303,0-0.455-0.152-0.606-0.379
		c-0.152-0.303-0.229-0.835-0.229-1.52c0-0.531,0.077-0.987,0.229-1.291c0.152-0.228,0.38-0.38,0.606-0.38c0.077,0,0.077,0,0.152,0
		v0.38c-0.228,0-0.304,0.077-0.378,0.303C-14.34-73.382-14.416-73.003-14.416-72.472z"/>
	<polygon points="-12.063,-73.915 -12.442,-73.915 -12.442,-74.294 -12.063,-74.294 -12.063,-75.204 -11.606,-75.204 
		-11.606,-74.294 -11.075,-74.294 -11.075,-73.915 -11.606,-73.915 -11.606,-70.802 -12.063,-70.802 	"/>
	<path d="M-9.33-72.777c0-0.379-0.076-0.683-0.152-0.835c-0.075-0.228-0.228-0.303-0.38-0.303l0,0v-0.38l0,0
		c0.305,0,0.531,0.152,0.683,0.455c0.152,0.304,0.304,0.683,0.304,1.292v0.152h-0.987v-0.381H-9.33L-9.33-72.777z M-9.861-70.725
		v-0.38l0,0c0.152,0,0.228-0.077,0.38-0.228c0.077-0.152,0.077-0.304,0.077-0.607h0.454c0,0.381-0.076,0.684-0.304,0.912
		C-9.404-70.802-9.633-70.725-9.861-70.725z M-9.861-73.915c-0.152,0-0.304,0.077-0.38,0.303c-0.151,0.152-0.151,0.457-0.228,0.835
		h0.607v0.381h-0.607v0.076c0,0.38,0.077,0.683,0.152,0.912c0.152,0.227,0.305,0.303,0.456,0.303v0.38l0,0
		c-0.38,0-0.607-0.152-0.76-0.457s-0.228-0.683-0.228-1.291s0.075-1.063,0.228-1.366c0.229-0.305,0.456-0.456,0.76-0.456V-73.915z"
		/>
	<path d="M-35.977-60.174c0.152-0.077,0.228-0.227,0.304-0.378c0.152-0.229,0.228-0.835,0.228-1.595
		c0-0.912-0.076-1.518-0.228-1.823c-0.077-0.152-0.152-0.304-0.304-0.378v-0.457c0.304,0.077,0.532,0.228,0.683,0.531
		c0.229,0.38,0.38,1.063,0.38,2.05s-0.151,1.595-0.38,1.973c-0.152,0.304-0.38,0.456-0.683,0.532V-60.174z M-36.584-64.424v4.327
		h0.077c0.152,0,0.378,0,0.531-0.077v0.457c-0.152,0.076-0.378,0.076-0.531,0.076h-0.607v-5.162h0.607c0.152,0,0.378,0,0.531,0
		v0.457c-0.152,0-0.303-0.077-0.531-0.077H-36.584z"/>
	<path d="M-32.864-61.615c0-0.38-0.077-0.683-0.152-0.911c-0.076-0.152-0.228-0.304-0.379-0.304h-0.077v-0.38h0.077
		c0.305,0,0.531,0.152,0.683,0.455c0.152,0.305,0.228,0.76,0.228,1.367v0.076h-0.987v-0.304L-32.864-61.615L-32.864-61.615z
		 M-33.471-59.565v-0.38l0,0c0.152,0,0.305-0.076,0.381-0.228c0.075-0.152,0.152-0.379,0.152-0.607h0.454
		c-0.075,0.381-0.152,0.683-0.303,0.835C-32.941-59.718-33.167-59.565-33.471-59.565z M-33.471-62.83
		c-0.152,0-0.228,0.152-0.38,0.304c-0.077,0.228-0.152,0.531-0.152,0.911h0.532v0.305h-0.531v0.152c0,0.38,0.076,0.683,0.152,0.911
		c0.075,0.152,0.228,0.304,0.38,0.304v0.38l0,0c-0.305,0-0.531-0.152-0.683-0.455c-0.152-0.304-0.228-0.76-0.228-1.366
		c0-0.532,0.075-0.987,0.228-1.367c0.152-0.304,0.38-0.454,0.683-0.454v0.376H-33.471z"/>
	<path d="M-30.51-63.059v0.532c-0.076-0.077-0.152-0.152-0.228-0.229c0,0-0.077,0-0.229,0c-0.15,0-0.378,0.077-0.454,0.304
		c-0.078,0.228-0.152,0.607-0.152,1.14c0,0.455,0.076,0.76,0.152,0.987c0.076,0.228,0.304,0.304,0.454,0.304
		c0.077,0,0.229,0,0.304-0.077c0,0,0.077-0.077,0.152-0.152v0.455c-0.076,0.077-0.152,0.152-0.228,0.152c-0.077,0-0.152,0-0.305,0
		c-0.304,0-0.531-0.152-0.683-0.456c-0.229-0.303-0.305-0.683-0.305-1.215c0-0.607,0.076-1.063,0.305-1.366
		c0.152-0.381,0.455-0.532,0.757-0.532c0.152,0,0.229,0.077,0.229,0.077C-30.663-63.135-30.586-63.059-30.51-63.059z"/>
	<path d="M-28.613-61.615c0-0.38-0.077-0.683-0.152-0.911c-0.077-0.152-0.229-0.304-0.38-0.304l0,0v-0.38l0,0
		c0.303,0,0.531,0.152,0.683,0.455c0.151,0.305,0.228,0.76,0.228,1.367v0.076h-0.909v-0.304L-28.613-61.615L-28.613-61.615z
		 M-29.143-59.565v-0.38l0,0c0.151,0,0.228-0.076,0.303-0.228c0.152-0.152,0.152-0.379,0.152-0.607h0.457
		c0,0.381-0.152,0.683-0.304,0.835C-28.689-59.718-28.916-59.565-29.143-59.565z M-29.143-62.83c-0.152,0-0.304,0.152-0.381,0.304
		c-0.152,0.228-0.152,0.531-0.228,0.911h0.607v0.305h-0.606v0.152c0,0.38,0.075,0.683,0.152,0.911
		c0.152,0.152,0.228,0.304,0.456,0.304v0.38l0,0c-0.381,0-0.607-0.152-0.76-0.455c-0.152-0.304-0.228-0.76-0.228-1.366
		c0-0.532,0.075-0.987,0.228-1.367c0.228-0.304,0.456-0.454,0.76-0.454V-62.83z"/>
	<rect x="-27.625" y="-65.185" width="0.455" height="5.542"/>
	<path d="M-24.968-61.615c0-0.38-0.077-0.683-0.152-0.911c-0.075-0.152-0.228-0.304-0.38-0.304h-0.077v-0.38h0.077
		c0.305,0,0.532,0.152,0.683,0.455c0.151,0.303,0.228,0.76,0.228,1.367v0.076h-0.987v-0.304L-24.968-61.615L-24.968-61.615z
		 M-25.576-59.565v-0.38l0,0c0.152,0,0.305-0.076,0.38-0.228c0.076-0.152,0.151-0.379,0.151-0.607h0.38
		c0,0.381-0.077,0.683-0.229,0.835C-25.044-59.718-25.272-59.565-25.576-59.565z M-25.576-62.83c-0.152,0-0.304,0.152-0.38,0.304
		c-0.077,0.228-0.152,0.531-0.152,0.911h0.531v0.305h-0.531v0.152c0,0.38,0.075,0.683,0.152,0.911
		c0.076,0.152,0.228,0.304,0.38,0.304v0.38l0,0c-0.304,0-0.531-0.152-0.683-0.455c-0.228-0.304-0.304-0.76-0.304-1.366
		c0-0.532,0.152-0.987,0.304-1.367c0.152-0.304,0.38-0.454,0.683-0.454V-62.83z"/>
	<path d="M-23.982-63.135h0.38v0.457c0.077-0.152,0.152-0.305,0.228-0.381c0.152-0.075,0.228-0.075,0.379-0.152v0.532
		c-0.228,0-0.379,0.076-0.455,0.152c-0.076,0.152-0.152,0.455-0.152,0.758v2.125h-0.38V-63.135z"/>
	<path d="M-21.704-59.947L-21.704-59.947c0.228,0,0.38-0.075,0.457-0.304c0.076-0.228,0.076-0.606,0.076-1.14
		c0-0.532,0-0.911-0.076-1.138c-0.077-0.152-0.229-0.304-0.457-0.304l0,0v-0.304c0.076,0,0.152,0,0.228,0.075
		c0.152,0,0.229,0.152,0.304,0.229v-0.304h0.38v3.491h-0.38v-0.303c-0.076,0.077-0.152,0.229-0.228,0.229
		c-0.077,0.076-0.152,0.152-0.305,0.152V-59.947z M-22.235-61.388c0,0.531,0.076,0.91,0.151,1.139
		c0.077,0.229,0.229,0.304,0.38,0.304v0.38h-0.077c-0.304,0-0.532-0.152-0.683-0.456c-0.151-0.303-0.152-0.759-0.152-1.442
		c0-0.607,0.077-1.063,0.152-1.291c0.152-0.304,0.38-0.456,0.683-0.456c0,0,0.077,0,0.077,0.077v0.304
		c-0.152,0-0.304,0.152-0.38,0.304C-22.159-62.3-22.235-61.92-22.235-61.388z"/>
	<polygon points="-19.883,-62.755 -20.186,-62.755 -20.186,-63.135 -19.883,-63.135 -19.883,-64.121 -19.426,-64.121 
		-19.426,-63.135 -18.82,-63.135 -18.82,-62.755 -19.426,-62.755 -19.426,-59.642 -19.883,-59.642 	"/>
	<path d="M-18.286-64.501c0.152,0,0.228,0,0.302,0.077c0,0.077,0.077,0.151,0.077,0.228c0,0.077-0.077,0.152-0.077,0.228
		c-0.075,0.077-0.152,0.077-0.302,0.077c-0.077,0-0.152,0-0.152-0.077c-0.077-0.077-0.152-0.152-0.152-0.228
		c0-0.077,0.075-0.151,0.075-0.228C-18.439-64.501-18.363-64.501-18.286-64.501L-18.286-64.501z M-18.439-63.135h0.38v3.491h-0.38
		V-63.135z"/>
	<path d="M-16.39-62.83L-16.39-62.83v-0.38l0,0c0.379,0,0.608,0.152,0.76,0.455c0.152,0.305,0.228,0.76,0.228,1.367
		c0,0.606-0.075,1.063-0.228,1.366c-0.152,0.304-0.381,0.455-0.76,0.455l0,0v-0.38l0,0c0.227,0,0.305-0.152,0.456-0.379
		c0.076-0.228,0.076-0.608,0.076-1.064c0-0.454,0-0.835-0.076-1.063C-16.085-62.755-16.163-62.83-16.39-62.83z M-16.39-62.83
		c-0.152,0-0.304,0.075-0.379,0.304c-0.152,0.228-0.152,0.606-0.152,1.14c0,0.532,0,0.835,0.152,1.063
		c0.075,0.228,0.228,0.379,0.379,0.379v0.38c-0.304,0-0.608-0.152-0.759-0.455c-0.15-0.303-0.228-0.76-0.228-1.366
		c0-0.607,0.077-1.064,0.228-1.367c0.152-0.303,0.457-0.454,0.759-0.454V-62.83z"/>
	<path d="M-14.719-63.135h0.381v0.304c0.075-0.077,0.228-0.229,0.303-0.229c0.152-0.075,0.229-0.152,0.38-0.152
		c0.305,0,0.457,0.152,0.532,0.304c0.152,0.152,0.228,0.455,0.228,0.835v2.429h-0.455v-2.504c0-0.228,0-0.456-0.077-0.531
		c-0.076-0.152-0.228-0.152-0.38-0.152c-0.152,0-0.305,0.075-0.381,0.228c-0.075,0.152-0.151,0.379-0.151,0.607v2.354h-0.381
		L-14.719-63.135L-14.719-63.135z"/>
	<path d="M-12.289-60.325c0.077,0.076,0.152,0.228,0.303,0.228c0.075,0.077,0.228,0.152,0.304,0.152c0.152,0,0.304-0.076,0.38-0.152
		c0.152-0.152,0.228-0.228,0.228-0.455c0-0.152-0.228-0.38-0.531-0.684l-0.076-0.076c-0.304-0.228-0.455-0.456-0.531-0.531
		c-0.077-0.152-0.152-0.304-0.152-0.531c0-0.228,0.077-0.457,0.228-0.607c0.152-0.152,0.378-0.229,0.607-0.229
		c0.152,0,0.228,0,0.304,0.077c0.151,0,0.228,0.076,0.303,0.152v0.38c-0.075-0.076-0.152-0.152-0.228-0.152
		c-0.152-0.076-0.228-0.076-0.303-0.076c-0.152,0-0.228,0.076-0.38,0.152c-0.077,0.076-0.152,0.152-0.152,0.304
		c0,0.228,0.228,0.454,0.532,0.683v0.076c0.303,0.229,0.531,0.455,0.607,0.607c0.076,0.152,0.152,0.304,0.152,0.455
		c0,0.303-0.077,0.531-0.304,0.683c-0.152,0.228-0.379,0.304-0.607,0.304c-0.152,0-0.305,0-0.38-0.077
		c-0.152,0-0.228-0.075-0.303-0.152v-0.532H-12.289z"/>
	<path d="M-23.449-55.769l0.455,0.151c-0.303,0.532-0.531,1.063-0.607,1.67c-0.152,0.529-0.228,1.138-0.228,1.745
		c0,0.533,0.076,1.139,0.228,1.671c0.077,0.606,0.305,1.138,0.607,1.67l-0.455,0.152c-0.228-0.607-0.456-1.138-0.606-1.746
		c-0.152-0.607-0.229-1.215-0.229-1.747c0-0.606,0.077-1.215,0.229-1.821C-23.906-54.631-23.678-55.163-23.449-55.769z"/>
	<polygon points="-21.932,-52.429 -22.919,-55.315 -22.464,-55.315 -21.704,-52.961 -21.021,-55.315 -20.49,-55.315 
		-21.476,-52.429 -21.476,-50.152 -21.932,-50.152 	"/>
	<path d="M-18.895-52.126c0-0.38,0-0.684-0.152-0.835c-0.077-0.229-0.227-0.381-0.379-0.381l0,0v-0.379l0,0
		c0.303,0,0.531,0.152,0.683,0.457c0.228,0.303,0.304,0.757,0.304,1.366v0.151h-0.987v-0.378L-18.895-52.126L-18.895-52.126z
		 M-19.426-50.078v-0.378l0,0c0.152,0,0.228-0.078,0.379-0.229c0.077-0.151,0.077-0.38,0.152-0.606h0.379
		c0,0.379-0.076,0.683-0.305,0.911C-18.97-50.152-19.198-50.078-19.426-50.078z M-19.426-53.342
		c-0.152,0.078-0.304,0.152-0.38,0.305c-0.077,0.228-0.152,0.532-0.152,0.911h0.532v0.378h-0.532v0.078c0,0.38,0,0.683,0.152,0.909
		c0.077,0.229,0.229,0.305,0.38,0.305v0.378l0,0c-0.304,0-0.607-0.151-0.76-0.454c-0.152-0.303-0.226-0.758-0.226-1.289
		c0-0.608,0.075-1.065,0.226-1.369c0.228-0.303,0.457-0.532,0.76-0.532V-53.342z"/>
	<path d="M-18.06-50.835c0.075,0.151,0.228,0.228,0.304,0.303c0.152,0.077,0.228,0.077,0.378,0.077c0.152,0,0.228-0.077,0.379-0.152
		c0.078-0.077,0.152-0.228,0.152-0.38c0-0.229-0.152-0.454-0.531-0.759l-0.074-0.074c-0.304-0.23-0.457-0.382-0.533-0.535
		c-0.075-0.15-0.152-0.301-0.152-0.454c0-0.302,0.077-0.454,0.229-0.607c0.228-0.227,0.38-0.303,0.683-0.303
		c0.076,0,0.152,0.077,0.304,0.077c0.076,0,0.152,0.076,0.305,0.152v0.455c-0.077-0.075-0.229-0.152-0.305-0.228
		c-0.078,0-0.229-0.078-0.304-0.078c-0.152,0-0.228,0.078-0.304,0.152c-0.152,0.078-0.152,0.229-0.152,0.303
		c0,0.23,0.152,0.457,0.457,0.76h0.076c0.304,0.228,0.457,0.455,0.607,0.605c0.077,0.152,0.077,0.304,0.077,0.533
		c0,0.228-0.077,0.454-0.229,0.683c-0.152,0.152-0.38,0.228-0.683,0.228c-0.152,0-0.228,0-0.378-0.076
		c-0.077,0-0.229-0.077-0.304-0.152V-50.835z"/>
	<polygon points="-14.567,-55.391 -14.189,-55.391 -16.39,-49.469 -16.769,-49.469 	"/>
	<path d="M-13.809-55.315h0.38l1.214,3.568c0,0,0,0.152,0.077,0.305c0.076,0.227,0.076,0.454,0.152,0.757
		c0-0.303-0.077-0.606-0.077-0.986c0-0.305,0-0.607,0-0.986v-2.659h0.381v5.163h-0.381l-1.139-3.492
		c-0.075-0.152-0.151-0.303-0.151-0.532c-0.077-0.152-0.152-0.379-0.152-0.606c0,0.38,0.075,0.683,0.075,0.987
		c0,0.378,0,0.684,0,0.909v2.733h-0.38V-55.315z"/>
	<path d="M-9.937-53.342L-9.937-53.342v-0.379l0,0c0.38,0,0.607,0.152,0.758,0.457c0.152,0.303,0.228,0.757,0.228,1.366
		s-0.075,1.064-0.228,1.367s-0.378,0.454-0.758,0.454l0,0v-0.378l0,0c0.229,0,0.38-0.078,0.455-0.305
		c0.077-0.303,0.152-0.607,0.152-1.138c0-0.457-0.076-0.835-0.152-1.063C-9.557-53.191-9.708-53.342-9.937-53.342z M-9.937-53.342
		c-0.152,0-0.305,0.152-0.38,0.381c-0.076,0.228-0.152,0.532-0.152,1.063c0,0.531,0.077,0.91,0.152,1.138
		c0.075,0.229,0.228,0.304,0.38,0.304v0.378c-0.305,0-0.531-0.151-0.758-0.454c-0.152-0.303-0.229-0.758-0.229-1.367
		c0-0.608,0.077-1.063,0.229-1.366c0.228-0.304,0.455-0.457,0.758-0.457V-53.342z"/>
	<path d="M-8.19-48.71l-0.379-0.152c0.227-0.532,0.454-1.064,0.606-1.67c0.152-0.532,0.228-1.138,0.228-1.671
		c0-0.606-0.077-1.215-0.228-1.745c-0.152-0.607-0.38-1.14-0.606-1.67l0.379-0.151c0.304,0.606,0.531,1.138,0.683,1.745
		c0.152,0.606,0.228,1.215,0.228,1.821c0,0.533-0.076,1.139-0.228,1.747C-7.659-49.848-7.887-49.317-8.19-48.71z"/>
	<polygon points="-37.495,-43.396 -38.253,-43.396 -38.253,-43.851 -36.203,-43.851 -36.203,-43.396 -36.963,-43.396 
		-36.963,-38.688 -37.495,-38.688 	"/>
	<path d="M-35.445-38.612l-0.911-3.568h0.454l0.457,2.051c0,0.228,0.077,0.378,0.077,0.531c0.075,0.228,0.075,0.38,0.075,0.532
		c0.077-0.228,0.152-0.532,0.152-0.76c0.077-0.229,0.077-0.38,0.152-0.454l0.38-1.898h0.455l-1.215,4.855h-0.457L-35.445-38.612z"/>
	<path d="M-32.788-38.917c0.152,0,0.303-0.151,0.38-0.378c0.076-0.152,0.152-0.533,0.152-1.064c0-0.606-0.077-0.987-0.152-1.14
		c-0.077-0.228-0.229-0.302-0.38-0.302v-0.381h0.077c0.304,0,0.531,0.151,0.683,0.381c0.152,0.302,0.227,0.757,0.227,1.366
		c0,0.683-0.076,1.14-0.227,1.367c-0.152,0.303-0.38,0.456-0.683,0.456h-0.077V-38.917z M-32.788-38.917L-32.788-38.917v0.305
		c-0.076,0-0.152,0-0.228-0.076c-0.076,0-0.228-0.078-0.305-0.23v1.67h-0.378v-4.935h0.378v0.303
		c0.077-0.074,0.229-0.152,0.305-0.228c0.075-0.077,0.152-0.077,0.228-0.077v0.381l0,0c-0.228,0-0.303,0.076-0.455,0.302
		c-0.077,0.229-0.077,0.607-0.077,1.139c0,0.531,0,0.911,0.077,1.064C-33.09-39.069-33.016-38.917-32.788-38.917z"/>
	<path d="M-29.827-40.665c0-0.378-0.076-0.682-0.152-0.834c-0.076-0.228-0.228-0.302-0.38-0.302l0,0v-0.381l0,0
		c0.304,0,0.531,0.151,0.683,0.381c0.152,0.302,0.229,0.757,0.229,1.366v0.152h-0.911v-0.382H-29.827L-29.827-40.665z
		 M-30.358-38.612v-0.381l0,0c0.152,0,0.229-0.075,0.304-0.228c0.152-0.152,0.152-0.304,0.152-0.607h0.455
		c0,0.381-0.152,0.684-0.304,0.911C-29.903-38.688-30.131-38.612-30.358-38.612z M-30.358-41.801c-0.152,0-0.305,0.075-0.379,0.302
		c-0.153,0.152-0.153,0.457-0.23,0.834h0.607v0.382h-0.607v0.075c0,0.38,0.077,0.683,0.152,0.912
		c0.152,0.228,0.229,0.302,0.455,0.302v0.381l0,0c-0.378,0-0.607-0.152-0.757-0.456c-0.152-0.304-0.229-0.684-0.229-1.291
		c0-0.606,0.077-1.064,0.229-1.367c0.227-0.304,0.454-0.455,0.757-0.455v0.38H-30.358z"/>
	<path d="M-26.562-44.307l0.457,0.151c-0.305,0.535-0.532,1.14-0.683,1.67c-0.078,0.607-0.152,1.14-0.152,1.747
		s0.076,1.138,0.152,1.745c0.151,0.533,0.378,1.064,0.683,1.595l-0.457,0.228c-0.305-0.606-0.454-1.215-0.606-1.822
		c-0.152-0.606-0.228-1.137-0.228-1.745s0.077-1.214,0.228-1.823C-27.019-43.093-26.867-43.698-26.562-44.307z"/>
	<path d="M-24.284-40.665c0-0.378-0.076-0.682-0.152-0.834c-0.076-0.228-0.228-0.302-0.38-0.302l0,0v-0.381l0,0
		c0.304,0,0.531,0.151,0.683,0.381c0.151,0.302,0.228,0.757,0.228,1.366v0.152h-0.911v-0.382H-24.284L-24.284-40.665z
		 M-24.817-38.612v-0.381l0,0c0.152,0,0.228-0.075,0.304-0.228c0.152-0.152,0.152-0.304,0.152-0.607h0.455
		c0,0.381-0.077,0.684-0.303,0.911C-24.36-38.688-24.589-38.612-24.817-38.612z M-24.817-41.801c-0.152,0-0.304,0.075-0.38,0.302
		c-0.152,0.152-0.152,0.456-0.229,0.834h0.608v0.382h-0.608v0.075c0,0.38,0.077,0.683,0.152,0.912
		c0.152,0.228,0.228,0.302,0.456,0.302v0.381l0,0c-0.38,0-0.608-0.152-0.76-0.456c-0.152-0.304-0.228-0.684-0.228-1.291
		c0-0.606,0.076-1.064,0.228-1.367c0.229-0.304,0.455-0.455,0.76-0.455L-24.817-41.801L-24.817-41.801z"/>
	<path d="M-22.464-38.917L-22.464-38.917c0.152,0,0.305-0.151,0.38-0.378c0.077-0.152,0.152-0.533,0.152-1.064
		c0-0.532-0.076-0.911-0.152-1.14c-0.075-0.228-0.228-0.302-0.38-0.302l0,0v-0.381c0.077,0,0.152,0,0.229,0.077
		c0.076,0.076,0.228,0.154,0.228,0.305v-2.356h0.457v5.469h-0.457v-0.306c0,0.153-0.077,0.229-0.228,0.306
		c-0.077,0.076-0.152,0.076-0.229,0.076V-38.917z M-22.994-40.359c0,0.531,0,0.911,0.076,1.064c0.152,0.228,0.229,0.302,0.455,0.378
		v0.305c-0.075,0-0.075,0-0.152,0c-0.304,0-0.457-0.152-0.606-0.456c-0.152-0.228-0.229-0.76-0.229-1.442
		c0-0.606,0.077-0.987,0.229-1.29c0.151-0.23,0.303-0.381,0.606-0.381c0.077,0,0.077,0,0.152,0v0.381
		c-0.228,0-0.304,0.076-0.455,0.302C-22.994-41.346-22.994-40.966-22.994-40.359z"/>
	<polygon points="-19.35,-43.927 -18.97,-43.927 -21.173,-38.006 -21.552,-38.006 	"/>
	<path d="M-19.047-42.182h0.457l0.454,2.278c0,0.151,0.077,0.303,0.077,0.456c0,0.152,0.075,0.303,0.075,0.454
		c0-0.151,0.077-0.454,0.152-0.835v-0.075l0.455-2.278h0.457l-0.835,3.494h-0.457L-19.047-42.182z"/>
	<path d="M-15.707-38.917L-15.707-38.917c0.229,0,0.304-0.151,0.38-0.378c0.076-0.152,0.151-0.533,0.151-1.064
		c0-0.532-0.075-0.911-0.151-1.14c-0.077-0.228-0.151-0.302-0.38-0.302l0,0v-0.381c0.077,0,0.152,0,0.229,0.077
		c0.151,0.076,0.227,0.154,0.227,0.305v-2.356h0.457v5.469h-0.457v-0.306c0,0.153-0.076,0.229-0.227,0.306
		c-0.078,0.076-0.152,0.076-0.229,0.076V-38.917z M-16.238-40.359c0,0.531,0.076,0.911,0.152,1.064
		c0.075,0.228,0.152,0.302,0.378,0.378v0.305h-0.075c-0.305,0-0.531-0.152-0.683-0.456c-0.152-0.228-0.229-0.76-0.229-1.442
		c0-0.606,0.077-0.987,0.229-1.29c0.152-0.23,0.38-0.381,0.683-0.381h0.075v0.381c-0.228,0-0.304,0.076-0.378,0.302
		C-16.163-41.346-16.238-40.966-16.238-40.359z"/>
	<polygon points="-12.594,-43.927 -12.138,-43.927 -14.416,-38.006 -14.795,-38.006 	"/>
	<rect x="-11.911" y="-44.156" width="0.38" height="5.469"/>
	<path d="M-9.861-38.917L-9.861-38.917c0.228,0,0.304-0.151,0.38-0.378c0.152-0.152,0.152-0.533,0.152-1.064
		c0-0.532,0-0.911-0.152-1.14c-0.076-0.228-0.152-0.302-0.38-0.302l0,0v-0.381c0.075,0,0.152,0,0.228,0.077
		c0.152,0.076,0.229,0.154,0.303,0.305v-2.356h0.38v5.469h-0.38v-0.306c-0.076,0.153-0.152,0.229-0.228,0.306
		c-0.077,0.076-0.229,0.076-0.305,0.076v-0.305H-9.861z M-10.391-40.359c0,0.531,0.075,0.911,0.151,1.064
		c0.077,0.228,0.229,0.302,0.38,0.378v0.305h-0.077c-0.305,0-0.531-0.152-0.683-0.456c-0.152-0.228-0.228-0.76-0.228-1.442
		c0-0.606,0.075-0.987,0.228-1.29c0.152-0.23,0.38-0.381,0.683-0.381h0.077v0.381c-0.152,0-0.304,0.076-0.38,0.302
		C-10.316-41.346-10.391-40.966-10.391-40.359z"/>
	<path d="M-8.039-37.171l-0.379-0.228c0.303-0.532,0.456-1.063,0.606-1.595c0.152-0.606,0.229-1.137,0.229-1.745
		c0-0.607-0.077-1.213-0.229-1.747c-0.152-0.531-0.304-1.136-0.606-1.67l0.379-0.151c0.304,0.607,0.531,1.215,0.683,1.746
		c0.152,0.609,0.228,1.215,0.228,1.822c0,0.608-0.076,1.139-0.228,1.745C-7.508-38.386-7.735-37.777-8.039-37.171z"/>
	<polygon points="-23.297,-30.491 -22.843,-30.491 -22.843,-25.708 -21.704,-25.708 -21.704,-25.252 -23.297,-25.252 	"/>
	<rect x="-21.173" y="-30.491" width="0.457" height="5.239"/>
	<path d="M-18.286-25.783l-0.381-0.606v-0.228l0.229-0.152l0.454,0.683c0-0.152,0.077-0.38,0.077-0.683
		c0.076-0.304,0.076-0.683,0.076-1.139c0-0.759-0.076-1.29-0.228-1.67c-0.077-0.379-0.305-0.531-0.607-0.531v-0.457
		c0.455,0,0.759,0.228,0.987,0.684c0.229,0.455,0.304,1.064,0.304,1.974c0,0.532,0,0.988-0.076,1.367
		c-0.077,0.303-0.152,0.608-0.304,0.835l0.378,0.532l-0.378,0.228l-0.304-0.456c-0.077,0.078-0.152,0.078-0.305,0.152
		c-0.075,0-0.152,0-0.304,0v-0.38h0.077c0,0,0.076,0,0.152-0.077C-18.363-25.708-18.363-25.783-18.286-25.783z M-18.667-26.39
		l-0.076-0.152l0.076-0.076V-26.39L-18.667-26.39z M-18.667-30.11v-0.457l0,0c-0.38,0-0.759,0.228-0.91,0.684
		c-0.229,0.455-0.381,1.064-0.381,1.974c0,0.912,0.152,1.595,0.381,2.051c0.152,0.454,0.531,0.606,0.91,0.606l0,0v-0.38
		c-0.228,0-0.456-0.228-0.606-0.531c-0.078-0.381-0.152-0.912-0.152-1.747c0-0.759,0.076-1.29,0.152-1.67
		C-19.123-29.958-18.895-30.11-18.667-30.11L-18.667-30.11z"/>
	<path d="M-16.542-30.491h0.457v3.721c0,0.455,0.075,0.758,0.152,0.909c0.076,0.152,0.228,0.229,0.457,0.229
		c0.227,0,0.379-0.077,0.531-0.229c0.076-0.151,0.076-0.454,0.076-0.909v-3.721h0.532v3.721c0,0.607-0.077,0.986-0.305,1.215
		c-0.152,0.229-0.455,0.303-0.834,0.303c-0.381,0-0.685-0.076-0.835-0.303c-0.152-0.229-0.229-0.606-0.229-1.215L-16.542-30.491
		L-16.542-30.491z"/>
	<path d="M-12.289-25.631c0.303,0,0.531-0.228,0.607-0.531c0.152-0.381,0.228-0.912,0.228-1.747c0-0.759-0.077-1.29-0.228-1.67
		c-0.077-0.379-0.304-0.531-0.607-0.531v-0.457c0.455,0,0.758,0.228,0.987,0.684c0.228,0.455,0.303,1.064,0.303,1.974
		c0,0.912-0.077,1.595-0.303,2.051c-0.228,0.454-0.532,0.606-0.987,0.606V-25.631z M-12.289-30.11c-0.228,0-0.457,0.152-0.607,0.531
		c-0.076,0.381-0.152,0.911-0.152,1.67c0,0.759,0.077,1.367,0.152,1.747c0.152,0.303,0.38,0.531,0.607,0.531l0,0v0.38l0,0
		c-0.457,0-0.76-0.152-0.987-0.606c-0.152-0.456-0.305-1.139-0.305-2.051c0-0.91,0.152-1.519,0.305-1.974
		c0.228-0.457,0.531-0.684,0.987-0.684l0,0V-30.11L-12.289-30.11z"/>
	<path d="M-9.254-28.213c0.152,0,0.304-0.075,0.379-0.152c0.077-0.152,0.152-0.379,0.152-0.757c0-0.305-0.077-0.533-0.152-0.683
		c-0.077-0.078-0.228-0.152-0.379-0.23v-0.456c0.304,0.078,0.532,0.151,0.684,0.303c0.227,0.23,0.303,0.607,0.303,1.065
		c0,0.454-0.077,0.757-0.228,0.909c-0.152,0.229-0.38,0.38-0.683,0.38l1.139,2.581h-0.531l-0.683-1.594v-1.367H-9.254z
		 M-9.708-30.034v1.898h0.228c0.077,0,0.152,0,0.229-0.077v1.367l-0.456-1.138v2.732h-0.457v-5.239h0.532c0.152,0,0.303,0,0.38,0
		v0.456c-0.077,0-0.152,0-0.229,0L-9.708-30.034L-9.708-30.034z"/>
	<rect x="-3.483" y="-80.063" fill="none" stroke="#000000" stroke-width="0.5" width="370.476" height="57.62"/>
	<line fill="none" stroke="#000000" stroke-width="0.5" x1="14.584" y1="-79.989" x2="14.812" y2="-22.519"/>
	<line fill="none" stroke="#000000" stroke-width="0.5" x1="5.701" y1="-79.989" x2="5.93" y2="-35.728"/>
	<line fill="none" stroke="#000000" stroke-width="0.5" x1="23.466" y1="-79.989" x2="23.695" y2="-35.728"/>
	<line fill="none" stroke="#000000" stroke-width="0.5" x1="41.307" y1="-79.989" x2="41.535" y2="-35.728"/>
	<line fill="none" stroke="#000000" stroke-width="0.5" x1="59.148" y1="-79.989" x2="59.376" y2="-35.728"/>
	<line fill="none" stroke="#000000" stroke-width="0.5" x1="76.989" y1="-79.989" x2="77.217" y2="-35.728"/>
	<line fill="none" stroke="#000000" stroke-width="0.5" x1="94.829" y1="-79.989" x2="95.056" y2="-35.728"/>
	<line fill="none" stroke="#000000" stroke-width="0.5" x1="112.594" y1="-79.989" x2="112.823" y2="-35.728"/>
	<line fill="none" stroke="#000000" stroke-width="0.5" x1="130.435" y1="-79.989" x2="130.661" y2="-35.728"/>
	<line fill="none" stroke="#000000" stroke-width="0.5" x1="148.275" y1="-79.989" x2="148.503" y2="-35.728"/>
	<line fill="none" stroke="#000000" stroke-width="0.5" x1="166.04" y1="-79.989" x2="166.267" y2="-35.728"/>
	<line fill="none" stroke="#000000" stroke-width="0.5" x1="183.881" y1="-79.989" x2="184.033" y2="-35.728"/>
	<line fill="none" stroke="#000000" stroke-width="0.5" x1="201.645" y1="-79.989" x2="201.872" y2="-35.728"/>
	<line fill="none" stroke="#000000" stroke-width="0.5" x1="219.484" y1="-79.989" x2="219.712" y2="-35.728"/>
	<line fill="none" stroke="#000000" stroke-width="0.5" x1="237.326" y1="-79.989" x2="237.553" y2="-35.728"/>
	<line fill="none" stroke="#000000" stroke-width="0.5" x1="255.166" y1="-79.989" x2="255.393" y2="-35.728"/>
	<line fill="none" stroke="#000000" stroke-width="0.5" x1="272.93" y1="-79.989" x2="273.158" y2="-35.728"/>
	<line fill="none" stroke="#000000" stroke-width="0.5" x1="290.77" y1="-79.989" x2="290.998" y2="-35.728"/>
	<line fill="none" stroke="#000000" stroke-width="0.5" x1="308.611" y1="-79.989" x2="308.84" y2="-35.728"/>
	<line fill="none" stroke="#000000" stroke-width="0.5" x1="326.452" y1="-79.989" x2="326.679" y2="-35.728"/>
	<line fill="none" stroke="#000000" stroke-width="0.5" x1="344.293" y1="-79.989" x2="344.522" y2="-35.728"/>
	<line fill="none" stroke="#000000" stroke-width="0.5" x1="362.056" y1="-79.989" x2="362.287" y2="-35.728"/>
	<line fill="none" stroke="#000000" stroke-width="0.5" x1="32.425" y1="-79.989" x2="32.653" y2="-22.519"/>
	<line fill="none" stroke="#000000" stroke-width="0.5" x1="50.265" y1="-79.989" x2="50.494" y2="-22.519"/>
	<line fill="none" stroke="#000000" stroke-width="0.5" x1="68.03" y1="-79.989" x2="68.259" y2="-22.519"/>
	<line fill="none" stroke="#000000" stroke-width="0.5" x1="85.871" y1="-79.989" x2="86.099" y2="-22.519"/>
	<line fill="none" stroke="#000000" stroke-width="0.5" x1="103.711" y1="-79.989" x2="103.94" y2="-22.519"/>
	<line fill="none" stroke="#000000" stroke-width="0.5" x1="121.552" y1="-79.989" x2="121.779" y2="-22.519"/>
	<line fill="none" stroke="#000000" stroke-width="2.0001" x1="139.393" y1="-79.989" x2="139.62" y2="-22.519"/>
	<line fill="none" stroke="#000000" stroke-width="0.5" x1="157.082" y1="-79.989" x2="157.308" y2="-22.519"/>
	<line fill="none" stroke="#000000" stroke-width="0.5" x1="174.921" y1="-79.989" x2="175.151" y2="-22.519"/>
	<line fill="none" stroke="#000000" stroke-width="0.5" x1="192.763" y1="-79.989" x2="192.991" y2="-22.519"/>
	<line fill="none" stroke="#000000" stroke-width="0.5" x1="210.602" y1="-79.989" x2="210.832" y2="-22.519"/>
	<line fill="none" stroke="#000000" stroke-width="0.5" x1="228.367" y1="-79.989" x2="228.596" y2="-22.519"/>
	<line fill="none" stroke="#000000" stroke-width="0.5" x1="246.209" y1="-79.989" x2="246.435" y2="-22.519"/>
	<line fill="none" stroke="#000000" stroke-width="0.5" x1="264.047" y1="-79.989" x2="264.275" y2="-22.519"/>
	<line fill="none" stroke="#000000" stroke-width="0.5" x1="281.89" y1="-79.989" x2="282.116" y2="-22.519"/>
	<line fill="none" stroke="#000000" stroke-width="0.5" x1="299.729" y1="-79.989" x2="299.957" y2="-22.519"/>
	<line fill="none" stroke="#000000" stroke-width="0.5" x1="317.494" y1="-79.989" x2="317.721" y2="-22.519"/>
	<line fill="none" stroke="#000000" stroke-width="0.5" x1="335.337" y1="-79.989" x2="335.561" y2="-22.519"/>
	<line fill="none" stroke="#000000" stroke-width="0.5" x1="353.176" y1="-79.989" x2="353.402" y2="-22.519"/>
	<line fill="none" stroke="#000000" stroke-width="0.5" x1="-3.256" y1="-65.185" x2="366.992" y2="-65.335"/>
	<line fill="none" stroke="#000000" stroke-width="0.5" x1="-3.408" y1="-48.785" x2="366.841" y2="-48.938"/>
	<line fill="none" stroke="#000000" stroke-width="0.5" x1="-3.256" y1="-35.425" x2="366.992" y2="-35.652"/>
	<rect x="103.711" y="-89.097" fill="none" stroke="#000000" stroke-width="0.5" width="17.843" height="9.035"/>
	<rect x="105.685" y="-92.363" fill="#FFFFFF" width="13.894" height="5.998"/>
	<polygon points="107.203,-91.299 106.52,-91.299 106.596,-91.755 107.658,-91.755 107.658,-86.516 107.203,-86.516 	"/>
	<path d="M110.619-92.058h0.455v2.354c0.076-0.152,0.152-0.228,0.228-0.303c0.152-0.077,0.304-0.077,0.457-0.077
		c0.229,0,0.378,0.077,0.531,0.228c0.077,0.229,0.152,0.456,0.152,0.911v2.43h-0.454v-2.504c0-0.304,0-0.457-0.077-0.607
		c-0.075-0.077-0.152-0.152-0.304-0.152c-0.228,0-0.304,0.076-0.455,0.228c-0.076,0.152-0.076,0.38-0.076,0.683v2.354h-0.456
		L110.619-92.058L110.619-92.058z"/>
	<path d="M114.036-89.781L114.036-89.781v-0.303l0,0c0.304,0,0.607,0.152,0.759,0.455c0.152,0.305,0.228,0.759,0.228,1.291
		c0,0.606-0.076,1.063-0.228,1.366c-0.152,0.304-0.455,0.455-0.759,0.455l0,0v-0.303l0,0c0.152,0,0.304-0.152,0.379-0.378
		c0.152-0.229,0.152-0.607,0.152-1.064c0-0.531,0-0.911-0.152-1.14C114.339-89.63,114.187-89.781,114.036-89.781z M114.036-89.781
		c-0.228,0.075-0.303,0.152-0.456,0.38c-0.075,0.229-0.075,0.607-0.075,1.064c0,0.531,0,0.909,0.075,1.139
		c0.152,0.228,0.229,0.379,0.456,0.379v0.304c-0.303,0-0.608-0.152-0.76-0.455c-0.152-0.305-0.228-0.76-0.228-1.366
		c0-0.532,0.078-0.987,0.228-1.291c0.152-0.304,0.457-0.455,0.76-0.455V-89.781z"/>
	<path d="M115.631-90.008h0.457v2.276c0,0.303,0,0.532,0.075,0.685c0.076,0.075,0.228,0.151,0.38,0.151
		c0.229,0,0.305-0.076,0.381-0.151c0.075-0.152,0.152-0.381,0.152-0.685v-2.276h0.38v2.354c0,0.378-0.077,0.683-0.229,0.91
		c-0.151,0.151-0.379,0.228-0.683,0.228s-0.531-0.077-0.683-0.228c-0.152-0.228-0.228-0.532-0.228-0.91v-2.354H115.631z"/>
	<path d="M118.287-90.008h0.38v0.455c0.077-0.152,0.152-0.304,0.304-0.379c0.077-0.076,0.152-0.152,0.305-0.152v0.455
		c-0.228,0-0.38,0.076-0.457,0.228c-0.076,0.152-0.152,0.381-0.152,0.759v2.126h-0.38V-90.008z"/>
	<line fill="none" stroke="#FFFFFF" stroke-width="2.0001" x1="366.992" y1="-81.202" x2="366.992" y2="-20.089"/>
	<path d="M6.083-30.491c-0.229,0-0.304-0.077-0.456-0.302c-0.077-0.152-0.152-0.229-0.152-0.229c-0.076,0-0.228-0.077-0.456-0.077
		c-0.38,0-0.835,0.229-1.366,0.91c-0.607,0.759-0.987,1.596-0.987,2.277c0,0.38,0.152,0.685,0.38,0.989
		c0.228,0.227,0.455,0.378,0.834,0.378c0.304,0,0.532-0.075,0.835-0.228c0.152-0.078,0.457-0.228,0.76-0.532
		c0.152-0.077,0.304-0.151,0.38-0.151c0.077,0,0.229,0.075,0.303,0.151c0.077,0.078,0.077,0.154,0.077,0.307
		c0,0.151-0.078,0.228-0.152,0.302c-0.76,0.684-1.443,0.987-2.202,0.987c-0.606,0-1.063-0.228-1.442-0.683
		c-0.381-0.38-0.607-0.911-0.607-1.52c0-0.91,0.38-1.896,1.215-2.883c0.607-0.684,1.29-1.14,1.973-1.14c0.152,0,0.229,0,0.381,0
		c0.075,0.077,0.152,0.077,0.228,0.077c0.152-0.153,0.228-0.228,0.38-0.228c0.229,0,0.38,0.151,0.38,0.378
		c0.075,0.229,0.075,0.531,0.075,0.76c0,0.152,0,0.228-0.075,0.303C6.309-30.491,6.157-30.491,6.083-30.491z"/>
	<path d="M60.667-29.579c-0.228,0-0.38-0.077-0.455-0.303c-0.077-0.152-0.152-0.304-0.229-0.304c0-0.075-0.152-0.075-0.378-0.075
		c-0.457,0-0.835,0.303-1.367,0.908c-0.683,0.835-0.987,1.67-0.987,2.356c0,0.38,0.152,0.683,0.38,0.909
		c0.228,0.303,0.455,0.456,0.835,0.456c0.303,0,0.531-0.077,0.835-0.229c0.152-0.075,0.38-0.228,0.759-0.531
		c0.152-0.077,0.304-0.152,0.38-0.152c0.077,0,0.151,0.077,0.228,0.152c0.151,0.077,0.151,0.151,0.151,0.303
		c0,0.077-0.076,0.228-0.151,0.303c-0.76,0.684-1.443,0.987-2.202,0.987c-0.608,0-1.063-0.228-1.443-0.683
		c-0.378-0.381-0.606-0.911-0.606-1.518c0-0.912,0.38-1.898,1.215-2.885c0.607-0.835,1.291-1.138,1.973-1.138
		c0.151,0,0.228,0,0.379,0c0.077,0,0.152,0,0.229,0c0.152-0.077,0.228-0.153,0.379-0.153c0.228,0,0.304,0.153,0.38,0.305
		c0.077,0.228,0.077,0.53,0.077,0.834c0,0.152,0,0.23-0.077,0.305C60.893-29.579,60.742-29.579,60.667-29.579z"/>
	<path d="M148.654-30.793c-0.228,0-0.302-0.077-0.378-0.229c-0.076-0.153-0.152-0.304-0.228-0.304
		c-0.077-0.076-0.229-0.076-0.455-0.076c-0.38,0-0.835,0.303-1.366,0.834c-0.607,0.836-0.987,1.596-0.987,2.354
		c0,0.38,0.152,0.683,0.38,0.911c0.228,0.304,0.531,0.381,0.835,0.381c0.304,0,0.607-0.077,0.835-0.154
		c0.152-0.151,0.455-0.303,0.76-0.531c0.152-0.078,0.304-0.152,0.378-0.152c0.077,0,0.228,0,0.304,0.152
		c0.076,0.076,0.076,0.152,0.076,0.303c0,0.077,0,0.228-0.151,0.304c-0.684,0.606-1.443,0.986-2.202,0.986
		c-0.531,0-1.063-0.229-1.443-0.684c-0.38-0.454-0.606-0.91-0.606-1.518c0-0.91,0.454-1.897,1.214-2.809
		c0.683-0.835,1.291-1.216,1.974-1.216c0.152,0,0.227,0,0.378,0c0.077,0,0.229,0,0.305,0.077c0.077-0.151,0.229-0.228,0.378-0.228
		c0.152,0,0.304,0.151,0.304,0.378c0.077,0.229,0.077,0.533,0.077,0.835c0,0.078,0,0.153-0.077,0.23
		C148.883-30.868,148.806-30.793,148.654-30.793z"/>
	<path d="M185.928-26.162c-0.151,0-0.227-0.078-0.379-0.229c-0.076-0.152-0.152-0.38-0.152-0.685l-0.151-0.683
		c-0.152-0.456-0.304-1.441-0.606-2.961l-0.759,2.505l-0.304,0.76c-0.076,0.378-0.152,0.605-0.304,0.835
		c-0.076,0.151-0.228,0.303-0.455,0.303c-0.152,0-0.304-0.077-0.38-0.303c-0.077-0.078-0.152-0.23-0.152-0.457l-0.152-0.455
		c-0.302-0.987-0.53-1.975-0.758-3.112l-0.151,0.758l-0.532,2.201c0,0.23-0.075,0.607-0.152,1.14
		c-0.075,0.152-0.228,0.303-0.454,0.303c-0.151,0-0.229-0.076-0.303-0.151c-0.078-0.077-0.078-0.152-0.078-0.305
		c0-0.454,0.078-1.063,0.229-1.67l0.454-1.67l0.304-1.291c0.077-0.606,0.228-0.986,0.381-1.215c0.076-0.151,0.227-0.229,0.38-0.229
		c0.151,0,0.303,0.152,0.38,0.304c0.151,0.303,0.228,0.758,0.38,1.443c0.152,0.911,0.379,1.898,0.684,2.96
		c0.38-1.063,0.758-2.201,1.063-3.265l0.152-0.606c0-0.229,0.076-0.456,0.15-0.532c0.152-0.228,0.306-0.38,0.457-0.38
		c0.228,0,0.456,0.303,0.53,0.76c0.078,0.151,0.078,0.454,0.152,0.908c0.152,1.217,0.38,2.279,0.607,3.191l0.228,0.683
		c0.078,0.381,0.152,0.606,0.152,0.684c0,0.151,0,0.228-0.152,0.303C186.159-26.239,186.081-26.162,185.928-26.162z"/>
	<path d="M4.26-51.519c0,0.077-0.077,0.303-0.077,0.606c-0.075,0.304-0.228,0.457-0.455,0.457c-0.152,0-0.303-0.078-0.531-0.305
		c-1.14-1.062-2.43-2.581-3.872-4.63v0.987v0.912c0,0.228,0,0.606,0,1.063c0,0.454,0,0.759,0,0.987c0,0.757-0.077,1.137-0.381,1.137
		c-0.152,0-0.305-0.075-0.379-0.151c-0.075-0.077-0.075-0.152-0.075-0.304c0-0.076,0-0.303,0-0.531c0-0.229,0-0.38,0-0.531
		c0-0.154,0-0.382,0-0.761c0.075-0.303,0.075-0.606,0.075-0.758c0-0.151,0-0.454,0-0.835c-0.075-0.379-0.075-0.606-0.075-0.835
		c0-0.152,0-0.454,0-0.757c-0.077-0.381-0.077-0.608-0.077-0.759c0-0.152,0.077-0.305,0.152-0.379
		c0.152-0.078,0.228-0.152,0.379-0.152c0.152,0,0.304,0.152,0.532,0.457c0.683,1.062,1.291,1.897,1.823,2.58
		c0.683,0.835,1.366,1.595,2.125,2.354c0-0.151,0-0.305,0-0.533v-0.531c0-1.214,0-2.201-0.152-2.884c0-0.077,0-0.229-0.077-0.455
		c-0.075-0.152-0.075-0.305-0.075-0.457c0-0.305,0.152-0.457,0.454-0.457c0.457,0,0.684,0.912,0.684,2.657c0,0.305,0,0.836,0,1.443
		C4.26-52.278,4.26-51.821,4.26-51.519z"/>
	<path d="M22.328-52.052c0,0.152-0.075,0.303-0.075,0.683c-0.076,0.229-0.228,0.381-0.457,0.381c-0.151,0-0.303-0.077-0.531-0.303
		c-1.139-1.065-2.43-2.583-3.873-4.631v0.987v0.911c0,0.229,0,0.606,0,1.064c0,0.456,0,0.757,0,1.063
		c0,0.683-0.075,1.064-0.378,1.064c-0.152,0-0.304,0-0.38-0.152c-0.077-0.077-0.077-0.152-0.077-0.303c0-0.078,0-0.305,0-0.531
		c0-0.23,0-0.382,0-0.535c0-0.15,0-0.378,0-0.756c0.077-0.306,0.077-0.609,0.077-0.761c0-0.152,0-0.454,0-0.835
		c-0.077-0.378-0.077-0.607-0.077-0.835c0-0.152,0-0.379,0-0.76c-0.076-0.302-0.076-0.606-0.076-0.759
		c0-0.152,0.076-0.229,0.152-0.378c0.152-0.077,0.228-0.152,0.38-0.152s0.303,0.152,0.531,0.454
		c0.684,1.064,1.291,1.898,1.821,2.583c0.684,0.834,1.367,1.595,2.125,2.352c0-0.152,0-0.302,0-0.531v-0.531
		c0-1.215,0-2.202-0.152-2.886c0-0.076,0-0.228-0.076-0.454c-0.076-0.152-0.076-0.304-0.076-0.457c0-0.304,0.151-0.455,0.456-0.455
		c0.455,0,0.683,0.912,0.683,2.733c0,0.304,0,0.758,0,1.366C22.328-52.81,22.328-52.356,22.328-52.052z"/>
	<path d="M40.396-51.899c0,0.151-0.076,0.38-0.076,0.683c-0.077,0.303-0.229,0.455-0.455,0.455c-0.152,0-0.305-0.152-0.531-0.303
		c-1.14-1.063-2.354-2.657-3.796-4.631l-0.077,0.911v0.987c0,0.228,0,0.532,0,0.986s0.077,0.835,0.077,1.063
		c0,0.76-0.152,1.14-0.457,1.14c-0.152,0-0.305-0.077-0.379-0.152c-0.077-0.075-0.077-0.228-0.077-0.303c0-0.152,0-0.304,0-0.532
		c0-0.227,0-0.456,0-0.531c0-0.152,0-0.457,0.077-0.76c0-0.378,0-0.606,0-0.758c0-0.229,0-0.456,0-0.835s-0.077-0.684-0.077-0.836
		c0-0.228,0-0.454,0-0.757c-0.075-0.38-0.075-0.609-0.075-0.835c0-0.078,0.075-0.229,0.152-0.304
		c0.152-0.152,0.228-0.152,0.379-0.152c0.152,0,0.304,0.152,0.531,0.457c0.683,1.062,1.292,1.897,1.821,2.58
		c0.683,0.836,1.368,1.595,2.126,2.278c0.077-0.075,0.077-0.228,0-0.454v-0.532c0-1.215,0-2.203-0.152-2.961
		c0-0.075,0-0.152-0.076-0.38c-0.077-0.227-0.077-0.378-0.077-0.455c0-0.305,0.152-0.457,0.456-0.457
		c0.457,0,0.683,0.836,0.683,2.659c0,0.303,0,0.758,0,1.367C40.396-52.656,40.396-52.203,40.396-51.899z"/>
	<path d="M57.781-52.429c0,0.151-0.075,0.379-0.075,0.682c-0.077,0.305-0.229,0.457-0.456,0.457c-0.152,0-0.303-0.151-0.531-0.305
		c-1.14-1.062-2.43-2.656-3.873-4.63v0.91v0.987c0,0.229,0,0.532,0,0.987c0,0.532,0,0.836,0,1.064c0,0.758-0.076,1.138-0.378,1.138
		c-0.152,0-0.305-0.077-0.381-0.151c-0.075-0.078-0.075-0.229-0.075-0.304c0-0.152,0-0.303,0-0.531c0-0.23,0-0.38,0-0.531
		c0-0.154,0-0.456,0-0.761c0.075-0.378,0.075-0.606,0.075-0.758c0-0.228,0-0.454,0-0.835c-0.075-0.379-0.075-0.683-0.075-0.835
		c0-0.152,0-0.455,0-0.757c-0.078-0.381-0.078-0.607-0.078-0.835c0-0.077,0.078-0.229,0.152-0.304
		c0.152-0.152,0.229-0.152,0.381-0.152s0.303,0.152,0.531,0.457c0.683,1.062,1.291,1.897,1.821,2.58
		c0.683,0.835,1.366,1.595,2.127,2.354c0-0.151,0-0.304,0-0.532v-0.532c0-1.215,0-2.201-0.152-2.884c0-0.077,0-0.229-0.075-0.456
		c-0.077-0.229-0.077-0.381-0.077-0.457c0-0.304,0.152-0.455,0.455-0.455c0.457,0,0.683,0.834,0.683,2.656c0,0.304,0,0.76,0,1.367
		C57.781-53.188,57.781-52.733,57.781-52.429z"/>
	<path d="M75.774-52.203c0,0.152,0,0.382,0,0.684c-0.077,0.229-0.228,0.38-0.455,0.38c-0.152,0-0.304-0.077-0.532-0.302
		c-1.139-1.064-2.429-2.582-3.871-4.631v0.987v0.91c0,0.229,0,0.607,0,1.065c0,0.456,0,0.834,0,1.062
		c0,0.683-0.152,1.064-0.379,1.064c-0.152,0-0.304,0-0.381-0.152c-0.076-0.077-0.152-0.151-0.152-0.302
		c0-0.077,0.077-0.305,0.077-0.533c0-0.229,0-0.381,0-0.531c0-0.151,0-0.381,0-0.758c0-0.304,0.076-0.609,0.076-0.76
		c0-0.152,0-0.455-0.076-0.835c0-0.38,0-0.606,0-0.835c0-0.152,0-0.378,0-0.758c-0.077-0.303-0.077-0.607-0.077-0.758
		c0-0.152,0.077-0.228,0.152-0.38c0.077-0.077,0.229-0.152,0.381-0.152c0.152,0,0.303,0.152,0.531,0.531
		c0.683,0.987,1.292,1.821,1.823,2.504c0.683,0.835,1.366,1.596,2.125,2.352c0-0.15,0-0.301,0-0.531v-0.533
		c0-1.214-0.077-2.201-0.152-2.884c0-0.075,0-0.228-0.077-0.454c-0.075-0.152-0.075-0.304-0.075-0.455
		c0-0.304,0.152-0.457,0.38-0.457c0.532,0,0.759,0.912,0.759,2.733c0,0.305,0,0.759,0,1.366S75.774-52.506,75.774-52.203z"/>
	<path d="M147.287-53.417c0,0.153-0.075,0.381-0.075,0.684c-0.077,0.304-0.229,0.378-0.456,0.378c-0.152,0-0.304-0.074-0.531-0.3
		c-1.139-1.065-2.43-2.583-3.873-4.556v0.909v0.987c0,0.229,0,0.532,0,0.987c0,0.456,0,0.836,0,1.064
		c0,0.759-0.075,1.139-0.38,1.139c-0.152,0-0.304-0.078-0.378-0.152c-0.077-0.078-0.077-0.228-0.077-0.304c0-0.151,0-0.303,0-0.53
		c0-0.23,0-0.457,0-0.532c0-0.229,0-0.456,0-0.76c0.077-0.38,0.077-0.607,0.077-0.835c0-0.152,0-0.455-0.077-0.759
		c0-0.38,0-0.683,0-0.835c0-0.228,0-0.457,0-0.835c-0.076-0.305-0.076-0.607-0.076-0.758c0-0.152,0.076-0.229,0.152-0.305
		c0.151-0.152,0.228-0.229,0.378-0.229c0.152,0,0.305,0.229,0.531,0.532c0.683,0.987,1.291,1.897,1.821,2.58
		c0.685,0.76,1.367,1.595,2.127,2.278c0-0.075,0-0.304,0-0.531v-0.531c0-1.216,0-2.125-0.152-2.885c0-0.076,0-0.228-0.075-0.38
		c-0.077-0.229-0.077-0.38-0.077-0.455c0-0.38,0.152-0.531,0.381-0.531c0.531,0,0.758,0.909,0.758,2.731c0,0.305,0,0.76,0,1.367
		C147.287-54.177,147.287-53.72,147.287-53.417z"/>
	<path d="M155.259-56.757c-0.077,0.075-0.152,0.228-0.229,0.454l-0.683,1.747c-0.304,0.683-0.532,1.292-0.835,1.746l-0.457,0.911
		l-0.228,0.457c-0.077,0.151-0.229,0.302-0.303,0.302c-0.077,0-0.228-0.077-0.305-0.151c-0.077-0.078-0.152-0.151-0.152-0.304
		c0-0.076,0.152-0.38,0.457-0.91l0.378-0.912c-0.378-0.606-0.683-1.138-0.835-1.517c-0.152-0.304-0.379-0.683-0.606-1.138
		c-0.457-0.609-0.684-0.912-0.76-1.064c0-0.076,0-0.152,0-0.228c0-0.076,0-0.228,0.076-0.305c0.077-0.075,0.228-0.075,0.304-0.075
		c0.152,0,0.228,0,0.38,0.152l0.303,0.531c0.304,0.456,0.457,0.683,0.532,0.909c0.228,0.304,0.305,0.607,0.454,0.912
		c0.077,0.228,0.305,0.531,0.532,0.911l0.987-2.276c0.075-0.229,0.228-0.457,0.454-0.912c0.077-0.152,0.152-0.228,0.381-0.228
		c0.076,0,0.152,0,0.305,0.076c0.075,0.077,0.075,0.152,0.075,0.304C155.487-57.212,155.411-57.061,155.259-56.757z"/>
	<path d="M164.294-56.833c-0.077,0.152-0.152,0.304-0.303,0.531l-0.683,1.747c-0.303,0.683-0.532,1.213-0.759,1.746l-0.531,0.911
		l-0.229,0.457c-0.076,0.151-0.152,0.227-0.303,0.227c-0.152,0-0.229,0-0.304-0.152c-0.077-0.074-0.152-0.151-0.152-0.228
		c0-0.152,0.152-0.456,0.378-0.91l0.531-0.912c-0.531-0.682-0.835-1.138-0.987-1.517c-0.076-0.304-0.305-0.683-0.606-1.138
		c-0.381-0.609-0.607-0.987-0.686-1.064c-0.075-0.076-0.075-0.152-0.075-0.228c0-0.152,0.075-0.228,0.152-0.305
		c0.076-0.075,0.152-0.152,0.303-0.152c0.076,0,0.228,0.077,0.304,0.229l0.302,0.454c0.304,0.456,0.532,0.76,0.607,0.912
		c0.228,0.378,0.378,0.683,0.455,0.987c0.152,0.228,0.305,0.531,0.606,0.911l0.912-2.354c0.152-0.152,0.305-0.455,0.456-0.833
		c0.075-0.228,0.228-0.305,0.379-0.305s0.228,0.077,0.304,0.152c0.076,0.077,0.152,0.152,0.152,0.304
		C164.521-57.29,164.445-57.061,164.294-56.833z"/>
	<path d="M173.252-57.896c-0.077,0.152-0.153,0.304-0.228,0.531l-0.685,1.746c-0.303,0.606-0.532,1.215-0.836,1.746l-0.454,0.912
		l-0.229,0.454c-0.075,0.151-0.228,0.229-0.38,0.229c-0.076,0-0.228-0.078-0.303-0.151c-0.077-0.078-0.152-0.153-0.152-0.304
		c0-0.077,0.152-0.379,0.455-0.835l0.456-0.987c-0.456-0.607-0.759-1.14-0.911-1.442c-0.152-0.38-0.379-0.759-0.607-1.14
		c-0.454-0.606-0.683-0.987-0.759-1.138c0-0.076,0-0.151,0-0.228c0-0.075,0-0.152,0.076-0.228c0.076-0.152,0.229-0.152,0.304-0.152
		c0.151,0,0.229,0.075,0.381,0.152l0.304,0.531c0.303,0.457,0.455,0.759,0.532,0.91c0.228,0.304,0.38,0.686,0.531,0.912
		c0.076,0.228,0.304,0.609,0.531,0.987l0.986-2.353c0.078-0.152,0.229-0.457,0.456-0.835c0.076-0.229,0.152-0.304,0.379-0.304
		c0.078,0,0.153,0,0.23,0.076c0.15,0.152,0.15,0.229,0.15,0.304C173.479-58.351,173.402-58.124,173.252-57.896z"/>
	<path d="M182.665-58.199c-0.077,0.076-0.151,0.228-0.228,0.457l-0.685,1.745c-0.302,0.683-0.532,1.291-0.835,1.747l-0.454,0.909
		l-0.229,0.456c-0.076,0.152-0.228,0.23-0.379,0.23c-0.076,0-0.229,0-0.305-0.078c-0.075-0.077-0.151-0.228-0.151-0.303
		c0-0.074,0.151-0.381,0.456-0.911l0.455-0.912c-0.455-0.683-0.76-1.139-0.911-1.518c-0.15-0.304-0.38-0.683-0.606-1.138
		c-0.455-0.607-0.684-0.911-0.759-1.063c0-0.077,0-0.152,0-0.229c0-0.152,0-0.228,0.076-0.303c0.077-0.076,0.229-0.152,0.304-0.152
		c0.151,0,0.228,0.077,0.381,0.229l0.303,0.531c0.304,0.38,0.454,0.683,0.532,0.835c0.228,0.379,0.38,0.683,0.53,0.987
		c0.078,0.229,0.229,0.531,0.532,0.912l0.987-2.278c0.076-0.229,0.229-0.531,0.454-0.912c0.078-0.152,0.152-0.304,0.381-0.304
		c0.076,0,0.151,0.077,0.229,0.152c0.151,0.077,0.151,0.152,0.151,0.303C182.893-58.655,182.817-58.504,182.665-58.199z"/>
	<path d="M163.839-45.825c-0.078,0-0.078,0-0.152-0.074c-0.456-0.078-0.912-0.152-1.367-0.152c-0.228,0-0.456,0-0.684,0.076
		c-0.303,0-0.606,0.078-0.91,0.151c0,0.153,0.076,0.304,0.076,0.457c0,0.378-0.076,0.909-0.076,1.594l1.821-0.228
		c0.531,0,0.835-0.077,0.987-0.077c0.076,0,0.227,0.077,0.305,0.151c0.075,0.077,0.075,0.152,0.075,0.306
		c0,0.227-0.075,0.379-0.378,0.379l-0.987,0.151l-1.898,0.152c0,0.152,0,0.38,0,0.532c0,0.228-0.076,0.379-0.076,0.531
		c0,0.607,0.076,0.912,0.152,1.064c0.075,0.077,0.304,0.077,0.683,0.077c0.152,0,0.38,0,0.76,0c0.379,0,0.606,0,0.759,0
		c0.077,0,0.152,0,0.229,0c0.152-0.077,0.228-0.077,0.302-0.077c0.304,0,0.381,0.15,0.381,0.456c0,0.229-0.078,0.38-0.304,0.455
		c-0.305,0-0.835,0.076-1.67,0.076c-0.912,0-1.443-0.151-1.67-0.38c-0.304-0.228-0.381-0.835-0.381-1.67c0-0.228,0-0.38,0-0.607
		c0-0.227,0-0.454,0-0.683c0-0.075,0-0.152,0-0.228c0-0.077,0-0.152,0.077-0.227c0-0.761,0.075-1.37,0.075-1.747
		c0-0.152-0.075-0.303-0.075-0.457c0-0.226,0-0.378,0-0.454c0-0.303,0.075-0.533,0.378-0.533c0.152,0,0.228,0.078,0.305,0.154
		c0.304-0.077,0.607-0.154,0.911-0.228c0.304,0,0.607-0.078,0.835-0.078c0.684,0,1.215,0.078,1.67,0.304
		c0.152,0.076,0.227,0.152,0.227,0.38c0,0.077,0,0.229-0.075,0.303C164.065-45.9,163.913-45.825,163.839-45.825z"/>
	<path d="M154.88-45.142c-0.077,0-0.077,0-0.152-0.076c-0.454-0.078-0.911-0.152-1.366-0.152c-0.228,0-0.455,0-0.683,0.076
		c-0.228,0-0.532,0.078-0.835,0.152c0.077,0.229,0.077,0.304,0.077,0.455c0,0.38-0.077,0.911-0.077,1.594l1.747-0.229
		c0.531,0,0.835-0.075,0.987-0.075c0.076,0,0.227,0.075,0.303,0.152c0.077,0.076,0.077,0.151,0.077,0.303
		c0,0.228-0.077,0.38-0.378,0.454l-0.987,0.078l-1.823,0.151c0,0.228,0,0.38,0,0.532c0,0.228,0,0.38,0,0.531
		c0,0.608,0,0.987,0.077,1.065c0.077,0.074,0.305,0.151,0.685,0.151c0.077,0,0.378,0,0.683-0.078c0.38,0,0.607,0,0.76,0
		c0.076,0,0.152,0,0.304,0c0.076,0,0.152-0.075,0.228-0.075c0.303,0,0.455,0.151,0.455,0.454c0,0.229-0.152,0.381-0.378,0.456
		c-0.305,0-0.835,0.077-1.672,0.077c-0.835,0-1.366-0.151-1.593-0.381c-0.305-0.228-0.38-0.757-0.38-1.67c0-0.151,0-0.378,0-0.605
		c0-0.23,0-0.457,0-0.686c0-0.076,0-0.151,0-0.151c0-0.151,0-0.229,0.077-0.303c0-0.758,0.077-1.367,0.077-1.746
		c0-0.151,0-0.228-0.077-0.456c0-0.228,0-0.38,0-0.454c0-0.303,0.077-0.533,0.38-0.533c0.152,0,0.228,0.078,0.304,0.152
		c0.303-0.076,0.683-0.152,0.835-0.228c0.303,0,0.608,0,0.834,0c0.683,0,1.216,0.075,1.67,0.228
		c0.152,0.078,0.229,0.151,0.229,0.381c0,0.076,0,0.228-0.077,0.302C155.108-45.217,154.955-45.142,154.88-45.142z"/>
	<path d="M182.058-40.966c-0.38,0.151-0.836,0.301-1.52,0.378c-0.606,0.152-1.138,0.152-1.518,0.152c-0.229,0-0.456,0-0.607-0.077
		c-0.152-0.153-0.229-0.38-0.229-0.684l0.076-1.366c0.077-1.215,0.152-2.656,0.152-4.176c0-0.151,0-0.229,0.076-0.303
		c0.077-0.077,0.151-0.152,0.305-0.152c0.152,0,0.228,0.077,0.303,0.152c0.077,0.075,0.077,0.152,0.077,0.303
		c0,1.52,0,2.961-0.077,4.25l-0.076,0.608c0,0.228,0,0.455,0,0.607c0.683,0,1.595-0.152,2.731-0.456
		c0.077-0.075,0.077-0.075,0.153-0.075c0.075,0,0.227,0.075,0.302,0.149c0.077,0.078,0.077,0.229,0.077,0.305
		C182.285-41.196,182.21-41.042,182.058-40.966z"/>
	<path d="M173.098-40.282c-0.304,0.152-0.835,0.303-1.518,0.38c-0.607,0.151-1.139,0.229-1.519,0.229
		c-0.229,0-0.456-0.078-0.606-0.153c-0.152-0.151-0.228-0.302-0.228-0.683l0.075-1.367c0.076-1.215,0.152-2.657,0.152-4.175
		c0-0.152,0-0.229,0.074-0.304c0.078-0.077,0.229-0.151,0.304-0.151c0.152,0,0.229,0.075,0.305,0.151
		c0.077,0.077,0.152,0.152,0.152,0.304c0,1.518-0.077,2.959-0.152,4.251l-0.076,0.605c0,0.23,0,0.457,0,0.607
		c0.758,0,1.67-0.151,2.731-0.455c0.078-0.076,0.078-0.076,0.152-0.076c0.078,0,0.229,0.076,0.305,0.152
		c0.076,0.075,0.076,0.228,0.076,0.3C173.327-40.511,173.252-40.359,173.098-40.282z"/>
	<path d="M21.19-69.055v0.607v0.683c0,0.152-0.077,0.228-0.077,0.303c0,0.076-0.076,0.152-0.228,0.152
		c-0.229,0-0.305-0.152-0.305-0.532v-0.152v-0.076c-0.077,0-0.229,0-0.455,0c-0.152,0-0.305,0-0.38,0c-0.304,0-0.683,0-1.215-0.077
		c-0.531,0-0.911-0.075-1.215,0c0.228,0.229,0.305,0.456,0.305,0.532c0,0.075,0,0.152-0.077,0.228c-0.077,0-0.152,0.077-0.228,0.077
		c-0.075,0-0.152-0.077-0.303-0.304c-0.075-0.077-0.228-0.229-0.379-0.456c-0.229-0.228-0.305-0.38-0.305-0.531
		s0.076-0.229,0.228-0.229c0.077,0,0.152,0,0.229,0c0.076,0,0.152,0.077,0.228,0.077c0.077,0,0.152-0.077,0.303-0.077
		s0.228,0,0.305,0c0.228,0,0.607,0.077,1.063,0.077c0.457,0.075,0.835,0.075,1.064,0.075c0.076,0,0.228,0,0.38,0
		c0.228,0,0.305,0,0.456,0v-0.378c0-0.077,0-0.152,0.075-0.228c0.077-0.077,0.152-0.077,0.229-0.077c0.076,0,0.152,0,0.228,0.077
		C21.113-69.207,21.19-69.132,21.19-69.055z"/>
	<path d="M19.823-72.777h1.14c0.152,0,0.304,0.077,0.304,0.304c0,0.229-0.152,0.304-0.457,0.304c-0.076,0-0.076,0-0.152,0
		c-0.075,0-0.152,0-0.152,0h-0.683l-0.076,1.366c0,0.304,0,0.532,0,0.607c-0.077,0.228-0.152,0.304-0.229,0.304
		c-0.076,0-0.228-0.077-0.38-0.152l-0.303-0.305l-0.606-0.455v-0.683c0.379,0.229,0.683,0.457,0.91,0.607l0.077-1.291h-0.987v-0.607
		h0.987c0-0.075,0-0.075,0-0.152c0-0.38,0.075-0.606,0.303-0.606c0.152,0,0.229,0.152,0.304,0.304
		C19.823-73.156,19.823-73.003,19.823-72.777z M18.229-70.802l-1.595-1.063c-0.229-0.152-0.304-0.378-0.304-0.531
		c0-0.304,0.075-0.381,0.304-0.381h1.595v0.607h-1.064c0.38,0.228,0.76,0.457,1.064,0.683V-70.802z"/>
	<path d="M21.341-75.433c0,0.532-0.228,0.987-0.606,1.29c-0.077,0-0.152,0.076-0.229,0.076c-0.076,0-0.152-0.076-0.152-0.151
		c-0.076,0-0.151-0.077-0.151-0.229c0-0.076,0.075-0.152,0.151-0.228c0.152-0.077,0.229-0.152,0.304-0.228
		c0.077-0.152,0.077-0.303,0.077-0.532c0-0.38-0.077-0.683-0.381-0.91c-0.228-0.229-0.606-0.381-0.911-0.381
		s-0.607,0.077-0.758,0.152c-0.228,0.152-0.38,0.303-0.38,0.607c0,0.228,0.078,0.38,0.078,0.531c0.076,0.152,0.151,0.229,0.303,0.38
		l0.38,0.304c0.076,0.152,0.076,0.229,0.076,0.303c0,0.077,0,0.152-0.076,0.229c-0.077,0.075-0.077,0.075-0.229,0.075
		c0,0-0.228,0-0.532-0.075c-0.607,0-1.062-0.077-1.291-0.077c-0.076,0-0.152,0-0.228,0.077c-0.077,0-0.152,0-0.152,0
		c-0.152,0-0.229-0.077-0.229-0.305c0,0,0-0.077,0-0.152c0-0.152,0.077-0.152,0.077-0.228c0-0.152-0.077-0.303-0.077-0.532
		c0-0.228,0-0.456,0-0.531c0-0.077,0-0.152,0-0.304c0-0.076,0-0.228,0-0.228c0-0.077,0-0.152,0-0.229c0-0.076,0-0.076,0-0.152
		c0-0.076,0-0.152,0.077-0.228c0.076-0.077,0.152-0.077,0.228-0.077c0.229,0,0.304,0.229,0.304,0.759c0,0.077,0,0.152,0,0.228
		c0,0.077,0,0.152,0,0.229v0.531v0.532c0.152,0,0.455,0,1.064,0.077c-0.229-0.304-0.304-0.683-0.304-1.14s0.152-0.835,0.531-1.064
		c0.228-0.228,0.684-0.303,1.14-0.303c0.531,0,0.987,0.151,1.366,0.456C21.19-76.495,21.341-76.041,21.341-75.433z"/>
	<path d="M3.728-69.36v0.608v0.606c0,0.152,0,0.305-0.076,0.305c0,0.152-0.077,0.152-0.228,0.152c-0.229,0-0.304-0.152-0.304-0.455
		v-0.151v-0.152c-0.077,0-0.229,0.075-0.456,0.075c-0.152,0-0.304,0-0.38,0c-0.304,0-0.684,0-1.215-0.075
		c-0.531,0-0.911-0.077-1.214-0.077c0.227,0.304,0.303,0.455,0.303,0.531c0,0.078,0,0.152-0.077,0.229
		c-0.076,0.075-0.076,0.075-0.227,0.075c-0.078,0-0.152-0.075-0.304-0.227c-0.077-0.152-0.228-0.304-0.38-0.457
		c-0.229-0.228-0.304-0.378-0.304-0.531c0-0.152,0.075-0.229,0.228-0.229c0.077,0,0.152,0,0.229,0c0.075,0,0.152,0.077,0.228,0.077
		c0.075,0,0.152-0.077,0.304-0.077c0.152,0,0.227,0,0.303,0c0.228,0,0.606,0.077,1.063,0.077c0.457,0.075,0.835,0.075,1.064,0.075
		c0.075,0,0.228,0,0.38,0c0.228,0,0.38,0,0.455-0.075v-0.305c0-0.075,0-0.152,0.076-0.228c0.077,0,0.152-0.077,0.229-0.077
		c0.075,0,0.152,0.077,0.228,0.077C3.653-69.511,3.728-69.435,3.728-69.36z"/>
	<path d="M2.362-73.003h1.14c0.152,0,0.303,0.076,0.303,0.304c0,0.228-0.152,0.305-0.456,0.305c-0.077,0-0.077,0-0.152,0
		c-0.076,0-0.152,0-0.152,0H2.362l-0.075,1.366c0,0.304,0,0.456,0,0.607c-0.077,0.152-0.077,0.228-0.229,0.228
		c-0.076,0-0.228,0-0.378-0.152l-0.305-0.228l-0.607-0.456v-0.76c0.38,0.305,0.684,0.533,0.912,0.685l0.075-1.291H0.767v-0.607
		h0.987c0,0,0-0.077,0-0.152c0-0.38,0.077-0.531,0.305-0.531c0.152,0,0.229,0.075,0.304,0.228
		C2.362-73.382,2.362-73.231,2.362-73.003z M0.767-71.03l-1.594-1.064c-0.229-0.151-0.304-0.303-0.304-0.532
		c0-0.227,0.152-0.378,0.304-0.378h1.594v0.607h-1.063c0.378,0.228,0.759,0.454,1.063,0.606V-71.03z"/>
	<path d="M3.803-75.736c0,0.607-0.303,1.063-0.835,1.367c-0.455,0.152-0.987,0.303-1.594,0.303v-0.606
		c0.607,0,1.064-0.077,1.366-0.305c0.304-0.152,0.455-0.455,0.455-0.758c0-0.455-0.228-0.758-0.683-0.987
		c-0.305-0.076-0.683-0.152-1.14-0.152v-0.606c0.76,0,1.366,0.152,1.746,0.378C3.576-76.799,3.803-76.343,3.803-75.736z
		 M1.375-74.067H1.223c-0.607,0-1.063-0.151-1.518-0.454c-0.531-0.304-0.835-0.76-0.835-1.367c0-0.531,0.228-0.911,0.758-1.215
		c0.381-0.303,0.836-0.379,1.443-0.379c0.077,0,0.229,0,0.304,0v0.606c-0.075,0-0.152,0-0.228,0c-0.532,0-0.987,0.077-1.215,0.229
		c-0.305,0.152-0.456,0.455-0.456,0.758c0,0.38,0.228,0.684,0.606,0.911c0.304,0.228,0.683,0.304,1.14,0.304c0,0,0.077,0,0.152,0
		V-74.067z"/>
	<path d="M39.408-68.752v0.606v0.607c0,0.152,0,0.229,0,0.305c0,0.075-0.076,0.152-0.228,0.152c-0.228,0-0.305-0.152-0.305-0.455
		v-0.152v-0.152c-0.075,0-0.228,0-0.455,0c-0.152,0.077-0.305,0.077-0.454,0.077c-0.229,0-0.607-0.077-1.14-0.077
		c-0.533-0.076-0.912-0.076-1.216-0.076c0.229,0.227,0.305,0.455,0.305,0.531c0,0.077,0,0.152-0.076,0.228
		c-0.077,0-0.152,0.077-0.229,0.077c-0.075,0-0.228-0.077-0.303-0.304c-0.075-0.076-0.228-0.228-0.379-0.455
		c-0.228-0.152-0.305-0.379-0.305-0.531c0-0.152,0.077-0.152,0.229-0.152c0.076,0,0.152,0,0.228,0c0.076,0,0.152,0,0.228,0
		c0.077,0,0.152,0,0.303,0c0.152,0,0.229,0,0.305,0c0.228,0,0.607,0,1.064,0.077c0.454,0,0.757,0.075,0.987,0.075
		c0.151,0,0.302,0,0.454-0.075c0.152,0,0.304,0,0.455,0v-0.303c0-0.077,0-0.152,0.077-0.229c0-0.075,0.076-0.075,0.228-0.075
		c0.075,0,0.152,0,0.152,0.075C39.408-68.904,39.408-68.828,39.408-68.752z"/>
	<path d="M38.118-72.396h1.14c0.152,0,0.229,0.076,0.229,0.228c0,0.228-0.152,0.379-0.381,0.379c-0.076,0-0.151,0-0.228,0
		l-0.076-0.076l-0.76,0.076v1.292c0,0.305,0,0.531,0,0.607c-0.075,0.228-0.152,0.305-0.226,0.305c-0.152,0-0.229-0.077-0.381-0.152
		l-0.303-0.304l-0.683-0.456v-0.684c0.457,0.228,0.759,0.457,0.987,0.683l0.078-1.292H36.45v-0.606h1.064c0-0.077,0-0.077,0-0.152
		c0-0.381,0.076-0.607,0.305-0.607c0.152,0,0.226,0.152,0.226,0.304C38.118-72.777,38.118-72.625,38.118-72.396z M36.448-70.498
		l-1.518-1.063c-0.228-0.152-0.304-0.305-0.304-0.532s0.077-0.303,0.304-0.303h1.518v0.606H35.46
		c0.381,0.229,0.76,0.381,0.987,0.607V-70.498z"/>
	<path d="M39.56-75.204c0,0.606-0.304,1.063-0.835,1.366c-0.457,0.228-0.987,0.304-1.595,0.38v-0.608
		c0.532-0.075,0.987-0.151,1.291-0.303c0.381-0.152,0.532-0.456,0.532-0.835c0-0.455-0.229-0.76-0.76-0.912
		c-0.304-0.152-0.683-0.227-1.064-0.227v-0.607c0.76,0.075,1.291,0.152,1.746,0.455C39.334-76.192,39.56-75.813,39.56-75.204z
		 M37.132-73.458h-0.151c-0.607,0-1.14-0.152-1.595-0.456c-0.456-0.38-0.76-0.835-0.76-1.367c0-0.531,0.229-0.987,0.683-1.291
		c0.38-0.228,0.911-0.38,1.442-0.38c0.152,0,0.229,0,0.38,0v0.607c-0.075,0-0.151,0-0.228,0c-0.531,0-0.987,0.076-1.292,0.303
		c-0.228,0.152-0.379,0.38-0.379,0.759c0,0.38,0.228,0.683,0.607,0.912c0.303,0.152,0.683,0.303,1.063,0.303
		c0.077,0,0.152,0,0.228,0V-73.458z"/>
	<path d="M74.484-69.282v0.683v0.606c0,0.152,0,0.229,0,0.304c-0.077,0.077-0.152,0.152-0.305,0.152
		c-0.152,0-0.304-0.152-0.304-0.531v-0.152v-0.077c-0.077,0-0.229,0-0.379,0c-0.229,0-0.381,0-0.456,0c-0.229,0-0.683,0-1.215-0.077
		c-0.531,0-0.911,0-1.139,0c0.152,0.228,0.304,0.457,0.304,0.531c0,0.077-0.076,0.152-0.076,0.152
		c-0.077,0.077-0.152,0.152-0.229,0.152c-0.151,0-0.228-0.152-0.379-0.304c-0.075-0.076-0.228-0.228-0.38-0.457
		c-0.152-0.227-0.304-0.378-0.304-0.531s0.152-0.228,0.304-0.228c0,0,0.076,0,0.152,0.075c0.152,0,0.228,0,0.228,0
		c0.077,0,0.152,0,0.304,0c0.152,0,0.228-0.075,0.303-0.075c0.228,0,0.607,0.075,1.063,0.075c0.455,0.077,0.834,0.077,1.063,0.077
		c0.152,0,0.228,0,0.456,0c0.151,0,0.303,0,0.379,0v-0.381c0-0.076,0.075-0.151,0.075-0.151c0.077-0.077,0.152-0.077,0.229-0.077
		c0.076,0,0.152,0,0.228,0.077C74.484-69.435,74.484-69.36,74.484-69.282z"/>
	<path d="M73.116-72.927h1.138c0.229,0,0.304,0.152,0.304,0.303c0,0.229-0.152,0.305-0.455,0.305c0,0-0.076,0-0.152,0
		c-0.076,0-0.076,0-0.152,0h-0.683l-0.076,1.366c0,0.305,0,0.457,0,0.607c0,0.152-0.077,0.305-0.229,0.305
		c-0.075,0-0.228-0.077-0.303-0.228l-0.379-0.229l-0.606-0.457v-0.683c0.378,0.229,0.683,0.456,0.987,0.607v-1.292h-0.987v-0.605
		h0.987v-0.076c0-0.378,0.151-0.607,0.303-0.607c0.152,0,0.229,0.077,0.304,0.229C73.116-73.307,73.116-73.156,73.116-72.927z
		 M71.523-70.954l-1.595-1.062c-0.152-0.152-0.305-0.304-0.305-0.531c0-0.229,0.152-0.381,0.305-0.381h1.595v0.607h-0.986
		c0.379,0.228,0.683,0.457,0.987,0.683L71.523-70.954L71.523-70.954z"/>
	<path d="M74.635-75.661c0,0.606-0.303,1.063-0.911,1.366c-0.38,0.228-0.912,0.304-1.595,0.304v-0.607
		c0.607,0,1.064-0.076,1.367-0.228c0.303-0.229,0.531-0.457,0.531-0.835c0-0.457-0.305-0.76-0.76-0.987
		c-0.305-0.077-0.683-0.152-1.14-0.152v-0.608c0.76,0,1.367,0.152,1.746,0.456C74.332-76.723,74.635-76.268,74.635-75.661z
		 M72.129-73.99h-0.076c-0.607,0-1.14-0.152-1.595-0.38c-0.531-0.38-0.76-0.835-0.76-1.367c0-0.606,0.229-0.987,0.684-1.292
		c0.38-0.303,0.835-0.379,1.441-0.379c0.077,0,0.229,0,0.305,0v0.608c-0.076,0-0.152,0-0.152,0c-0.607,0-0.987,0.075-1.292,0.228
		c-0.303,0.229-0.379,0.455-0.379,0.835s0.152,0.683,0.531,0.911c0.305,0.152,0.684,0.228,1.14,0.228c0.077,0,0.077,0,0.152,0
		V-73.99z"/>
	<path d="M57.477-69.36v0.608v0.606c0,0.152,0,0.305-0.076,0.305c0,0.152-0.077,0.152-0.229,0.152c-0.152,0-0.305-0.152-0.305-0.455
		v-0.151v-0.152c-0.075,0-0.226,0.075-0.378,0.075c-0.228,0-0.378,0-0.456,0c-0.303,0-0.683,0-1.215-0.075
		c-0.531,0-0.912-0.077-1.215-0.077c0.228,0.304,0.38,0.455,0.38,0.531c0,0.078-0.077,0.152-0.152,0.229
		c0,0.075-0.075,0.075-0.152,0.075c-0.152,0-0.226-0.075-0.378-0.227c-0.077-0.152-0.229-0.304-0.381-0.457
		c-0.151-0.228-0.302-0.378-0.302-0.531c0-0.152,0.076-0.229,0.302-0.229c0,0,0.077,0,0.152,0c0.152,0,0.152,0.077,0.229,0.077
		c0.076,0,0.152-0.077,0.303-0.077c0.152,0,0.228,0,0.303,0c0.229,0,0.607,0.077,1.064,0.077c0.455,0.075,0.835,0.075,1.063,0.075
		c0.077,0,0.228,0,0.456,0c0.152,0,0.304,0,0.378-0.075v-0.305c0-0.075,0-0.152,0.078-0.228c0.076,0,0.151-0.077,0.227-0.077
		c0.077,0,0.152,0.077,0.229,0.077C57.477-69.511,57.477-69.435,57.477-69.36z"/>
	<path d="M57.63-71.789c0,0.607-0.152,1.064-0.607,1.292c-0.076,0.077-0.152,0.077-0.152,0.077c-0.076,0-0.151,0-0.227-0.077
		c-0.077-0.075-0.077-0.152-0.077-0.228c0-0.077,0-0.152,0.077-0.229c0.152-0.075,0.227-0.228,0.304-0.228
		c0.076-0.152,0.151-0.304,0.151-0.607s-0.151-0.606-0.456-0.835c-0.228-0.226-0.531-0.378-0.911-0.378
		c-0.304,0-0.532,0.076-0.76,0.152c-0.228,0.152-0.304,0.378-0.304,0.607c0,0.228,0,0.378,0.077,0.531
		c0,0.152,0.076,0.227,0.228,0.378l0.379,0.305c0.077,0.075,0.152,0.228,0.152,0.304c0,0.076-0.077,0.152-0.152,0.228
		c0,0-0.076,0.077-0.152,0.077c-0.076,0-0.228-0.077-0.606-0.077c-0.607-0.075-1.064-0.075-1.216-0.075c-0.076,0-0.152,0-0.305,0
		c-0.075,0.075-0.075,0.075-0.152,0.075c-0.151,0-0.228-0.075-0.228-0.304c0-0.076,0.077-0.152,0.077-0.228c0-0.077,0-0.152,0-0.152
		c0-0.152,0-0.304,0-0.531c0-0.229-0.077-0.457-0.077-0.531c0-0.078,0-0.152,0.077-0.304c0-0.078,0-0.152,0-0.229
		c0,0,0-0.076-0.077-0.152c0-0.075,0-0.152,0-0.152c0-0.075,0-0.152,0.077-0.228c0.076-0.075,0.151-0.075,0.228-0.075
		c0.228,0,0.304,0.228,0.304,0.683c0,0.076,0,0.152,0,0.228c0,0.152,0,0.152,0,0.229v0.531l0.076,0.454
		c0.078,0,0.381,0.077,0.987,0.152c-0.228-0.303-0.305-0.684-0.305-1.14c0-0.455,0.152-0.758,0.532-1.063
		c0.303-0.152,0.683-0.305,1.14-0.305c0.531,0,0.987,0.229,1.366,0.532C57.477-72.777,57.63-72.32,57.63-71.789z"/>
	<path d="M57.554-75.736c0,0.607-0.229,1.063-0.835,1.367c-0.38,0.152-0.911,0.303-1.595,0.303v-0.606
		c0.608,0,1.063-0.077,1.366-0.305c0.304-0.152,0.531-0.455,0.531-0.758c0-0.455-0.303-0.758-0.758-0.987
		c-0.303-0.076-0.683-0.152-1.139-0.152v-0.606c0.759,0,1.366,0.152,1.745,0.378C57.325-76.799,57.554-76.343,57.554-75.736z
		 M55.124-74.067h-0.152c-0.532,0-1.064-0.151-1.518-0.454c-0.533-0.304-0.76-0.76-0.76-1.367c0-0.531,0.228-0.911,0.683-1.215
		c0.381-0.303,0.835-0.379,1.442-0.379c0.076,0,0.228,0,0.304,0v0.606c-0.077,0-0.152,0-0.229,0c-0.531,0-0.911,0.077-1.215,0.229
		c-0.304,0.152-0.455,0.455-0.455,0.758c0,0.38,0.229,0.684,0.607,0.911c0.304,0.228,0.683,0.304,1.14,0.304
		c0.075,0,0.075,0,0.152,0V-74.067z"/>
	<path d="M147.135-69.36v0.608v0.606c0,0.152,0,0.229-0.076,0.305c0,0.077-0.077,0.152-0.229,0.152
		c-0.152,0-0.302-0.152-0.302-0.455v-0.151v-0.152c-0.077,0-0.229,0-0.381,0c-0.228,0.075-0.38,0.075-0.456,0.075
		c-0.303,0-0.683-0.075-1.215-0.075c-0.531-0.077-0.91-0.077-1.214-0.077c0.227,0.304,0.379,0.455,0.379,0.531
		c0,0.078-0.076,0.152-0.152,0.229c0,0-0.076,0.075-0.152,0.075c-0.152,0-0.228-0.075-0.378-0.304
		c-0.077-0.076-0.229-0.227-0.38-0.454c-0.152-0.152-0.304-0.38-0.304-0.532c0-0.152,0.075-0.152,0.228-0.152
		c0.077,0,0.152,0,0.228,0c0.152,0,0.152,0,0.229,0c0.075,0,0.152,0,0.304,0c0.152,0,0.227,0,0.304,0c0.227,0,0.606,0,1.062,0.077
		c0.457,0,0.835,0.075,1.064,0.075c0.075,0,0.228,0,0.454-0.075c0.152,0,0.304,0,0.381,0v-0.305c0-0.075,0-0.152,0.076-0.228
		c0.077-0.077,0.152-0.077,0.228-0.077c0.077,0,0.152,0,0.229,0.077C147.06-69.511,147.135-69.435,147.135-69.36z"/>
	<path d="M145.769-73.003h1.14c0.228,0,0.304,0.076,0.304,0.228c0,0.229-0.152,0.381-0.455,0.381c-0.076,0-0.076,0-0.152,0
		c-0.075,0-0.152,0-0.152,0h-0.683l-0.076,1.366c0,0.228,0,0.456,0,0.531c0,0.229-0.077,0.305-0.229,0.305
		c-0.076,0-0.228-0.076-0.379-0.152l-0.304-0.304l-0.607-0.456v-0.684c0.38,0.229,0.683,0.457,0.986,0.684v-1.291h-0.986v-0.607
		h0.986c0-0.077,0-0.077,0-0.152c0-0.38,0.077-0.531,0.305-0.531c0.152,0,0.229,0.076,0.304,0.228
		C145.769-73.382,145.769-73.231,145.769-73.003z M144.175-71.105l-1.594-1.063c-0.152-0.152-0.304-0.304-0.304-0.531
		c0-0.228,0.152-0.304,0.304-0.304h1.594v0.607h-0.987c0.303,0.228,0.683,0.38,0.987,0.606V-71.105z"/>
	<path d="M147.212-75.813c0,0.607-0.229,1.063-0.835,1.366c-0.381,0.229-0.912,0.304-1.595,0.38v-0.606
		c0.607-0.077,1.063-0.152,1.366-0.304c0.304-0.152,0.531-0.455,0.531-0.835c0-0.456-0.303-0.759-0.758-0.911
		c-0.305-0.152-0.683-0.228-1.14-0.228v-0.607c0.76,0.077,1.366,0.152,1.747,0.456C146.983-76.799,147.212-76.419,147.212-75.813z
		 M144.782-74.067h-0.152c-0.531,0-1.062-0.151-1.518-0.454c-0.531-0.304-0.76-0.76-0.76-1.367c0-0.531,0.229-0.987,0.683-1.289
		c0.38-0.229,0.835-0.381,1.443-0.381c0.077,0,0.228,0,0.304,0v0.607c-0.077,0-0.152,0-0.228,0c-0.532,0-0.912,0.076-1.216,0.305
		c-0.303,0.152-0.455,0.378-0.455,0.758s0.229,0.684,0.607,0.911c0.304,0.152,0.684,0.304,1.14,0.304c0,0,0.078,0,0.152,0V-74.067z"
		/>
	<path d="M154.727-69.36v0.608v0.606c0,0.152,0,0.229,0,0.305c-0.076,0.077-0.152,0.152-0.303,0.152
		c-0.152,0-0.304-0.152-0.304-0.455v-0.151l0.075-0.152c-0.152,0-0.304,0-0.455,0c-0.228,0.075-0.38,0.075-0.456,0.075
		c-0.229,0-0.684-0.075-1.139-0.075c-0.532-0.077-0.911-0.077-1.14-0.077c0.152,0.304,0.304,0.455,0.304,0.531
		c0,0.078-0.077,0.152-0.077,0.229c-0.075,0-0.152,0.075-0.228,0.075c-0.151,0-0.228-0.075-0.38-0.304
		c-0.076-0.076-0.228-0.227-0.378-0.454c-0.152-0.152-0.228-0.38-0.228-0.532c0-0.152,0.076-0.152,0.228-0.152c0,0,0.077,0,0.152,0
		c0.152,0,0.228,0,0.228,0c0.077,0,0.152,0,0.305,0s0.229,0,0.304,0c0.229,0,0.607,0,1.064,0.077c0.38,0,0.759,0.075,0.987,0.075
		c0.152,0,0.228,0,0.456-0.075c0.152,0,0.304,0,0.38,0v-0.305c0-0.075,0.075-0.152,0.075-0.228c0.077-0.077,0.152-0.077,0.229-0.077
		c0.076,0,0.152,0,0.228,0.077C154.727-69.511,154.727-69.435,154.727-69.36z"/>
	<path d="M153.361-73.003h1.14c0.228,0,0.303,0.076,0.303,0.228c0,0.229-0.152,0.381-0.456,0.381c0,0-0.075,0-0.152,0
		c-0.076,0-0.076,0-0.152,0h-0.683v1.366c0,0.228-0.075,0.456-0.075,0.531c0,0.229-0.077,0.305-0.229,0.305
		c-0.076,0-0.228-0.076-0.304-0.152l-0.303-0.304l-0.607-0.456v-0.684c0.38,0.229,0.684,0.457,0.911,0.684v-1.291h-0.911v-0.607
		h0.911c0-0.077,0-0.077,0-0.152c0-0.38,0.152-0.531,0.304-0.531s0.229,0.076,0.304,0.228
		C153.361-73.382,153.361-73.231,153.361-73.003z M151.842-71.105l-1.594-1.063c-0.152-0.152-0.304-0.304-0.304-0.531
		c0-0.228,0.152-0.304,0.304-0.304h1.594v0.607h-0.986c0.379,0.228,0.683,0.38,0.986,0.606V-71.105z"/>
	<path d="M154.955-75.661c0,0.606-0.229,1.063-0.683,1.291c-0.077,0.076-0.152,0.076-0.152,0.076c-0.077,0-0.152,0-0.229-0.076
		c-0.076-0.077-0.076-0.152-0.076-0.229c0-0.075,0-0.152,0.152-0.228c0.076-0.152,0.152-0.229,0.228-0.304
		c0.077-0.077,0.152-0.305,0.152-0.531c0-0.38-0.152-0.607-0.457-0.835c-0.228-0.229-0.531-0.38-0.911-0.38
		c-0.303,0-0.455,0.077-0.683,0.152c-0.229,0.152-0.304,0.304-0.304,0.607c0,0.228,0,0.38,0.076,0.532
		c0,0.077,0.152,0.229,0.229,0.303l0.303,0.38c0.077,0.077,0.152,0.152,0.152,0.228c0,0.152-0.076,0.152-0.076,0.228
		c-0.077,0.077-0.152,0.077-0.152,0.077c-0.077,0-0.228,0-0.532,0c-0.683-0.077-1.138-0.152-1.291-0.152
		c-0.077,0-0.152,0.076-0.228,0.076c-0.152,0.077-0.152,0.077-0.229,0.077c-0.152,0-0.152-0.152-0.152-0.38c0,0,0-0.075,0-0.152
		c0-0.077,0-0.152,0-0.152c0-0.151,0-0.303,0-0.606c0-0.229,0-0.38,0-0.531c0,0,0-0.077,0-0.229c0-0.075,0-0.228,0-0.228
		c0-0.077,0-0.152-0.075-0.229c0-0.075,0-0.075,0-0.152c0-0.076,0.078-0.148,0.078-0.225c0.077,0,0.152-0.076,0.229-0.076
		c0.228,0,0.38,0.228,0.38,0.758c0,0.077,0,0.152,0,0.229c-0.077,0.076-0.077,0.152-0.077,0.152l0.077,0.531v0.531
		c0.076,0,0.38,0.075,0.987,0.152c-0.228-0.304-0.304-0.683-0.304-1.139c0-0.456,0.152-0.834,0.531-1.062
		c0.304-0.229,0.607-0.305,1.063-0.305c0.532,0,0.988,0.152,1.367,0.531C154.727-76.647,154.955-76.192,154.955-75.661z"/>
	<path d="M164.141-70.042v0.607v0.606c0,0.152,0,0.229,0,0.304c-0.076,0.077-0.152,0.152-0.229,0.152
		c-0.228,0-0.305-0.152-0.305-0.531v-0.152v-0.077c-0.152,0-0.303,0-0.454,0c-0.229,0-0.381,0-0.455,0c-0.229,0-0.683,0-1.216,0
		c-0.454-0.076-0.911-0.076-1.137-0.076c0.227,0.228,0.302,0.457,0.302,0.531c0,0.077,0,0.152-0.076,0.152
		c-0.077,0.077-0.152,0.152-0.227,0.152c-0.078,0-0.229-0.075-0.381-0.304c-0.076-0.075-0.152-0.228-0.378-0.455
		c-0.152-0.151-0.228-0.38-0.228-0.531c0-0.152,0.076-0.228,0.228-0.228c0,0,0.075,0,0.228,0.076c0.077,0,0.152,0,0.152,0
		c0.077,0,0.229,0,0.305,0c0.152,0,0.304,0,0.38,0c0.229,0,0.532,0,0.987,0.077c0.457,0,0.836,0.076,1.064,0.076
		c0.152,0,0.304-0.076,0.455-0.076s0.302,0,0.38,0v-0.304c0-0.152,0.076-0.152,0.076-0.228c0.077-0.077,0.152-0.077,0.229-0.077
		c0.075,0,0.152,0,0.226,0.077C164.141-70.195,164.141-70.195,164.141-70.042z"/>
	<path d="M164.369-72.472c0,0.607-0.228,0.987-0.683,1.291c-0.077,0-0.077,0.077-0.152,0.077c-0.078,0-0.152-0.077-0.228-0.151
		c-0.077-0.077-0.077-0.077-0.077-0.229c0-0.075,0.077-0.152,0.152-0.227c0.075-0.078,0.228-0.152,0.228-0.229
		c0.077-0.152,0.152-0.302,0.152-0.531c0-0.379-0.152-0.683-0.454-0.91c-0.229-0.229-0.532-0.304-0.91-0.304
		c-0.305,0-0.531,0-0.683,0.152c-0.305,0.075-0.38,0.304-0.38,0.531c0,0.226,0,0.457,0.075,0.607
		c0.077,0.075,0.152,0.228,0.228,0.303l0.381,0.303c0.076,0.152,0.152,0.229,0.152,0.305c0,0.078,0,0.152-0.077,0.229
		c-0.076,0.076-0.152,0.076-0.228,0.076c-0.077,0-0.229,0-0.532-0.076c-0.684-0.077-1.064-0.077-1.291-0.077
		c-0.077,0-0.152,0-0.229,0.077c-0.075,0-0.152,0-0.228,0c-0.077,0-0.152-0.077-0.152-0.304c0,0,0-0.077,0-0.152
		c0-0.078,0-0.152,0-0.229c0-0.076,0-0.302,0-0.531c0-0.228,0-0.379,0-0.531c0-0.077,0-0.152,0-0.228c0-0.152,0-0.229,0-0.304
		c0,0,0-0.077,0-0.152c-0.075-0.077-0.075-0.152-0.075-0.152c0-0.077,0.075-0.152,0.075-0.229c0.078-0.076,0.152-0.076,0.228-0.076
		c0.229,0,0.381,0.228,0.381,0.76c0,0,0,0.076,0,0.228c0,0.076,0,0.152,0,0.152v0.531v0.531c0.076,0,0.454,0,0.987,0.077
		c-0.229-0.229-0.304-0.607-0.304-1.139c0-0.456,0.152-0.76,0.531-0.987c0.304-0.229,0.683-0.305,1.14-0.305
		c0.531,0,1.062,0.152,1.366,0.456C164.141-73.458,164.369-73.003,164.369-72.472z"/>
	<path d="M164.294-76.495c0,0.606-0.303,1.063-0.911,1.366c-0.378,0.228-0.911,0.304-1.595,0.304v-0.608
		c0.607,0,1.064-0.076,1.367-0.228c0.38-0.229,0.531-0.457,0.531-0.835c0-0.456-0.229-0.76-0.76-0.911
		c-0.304-0.152-0.683-0.228-1.14-0.228v-0.607c0.76,0,1.367,0.152,1.821,0.455C164.063-77.483,164.294-77.103,164.294-76.495z
		 M161.787-74.825h-0.075c-0.607,0-1.14-0.077-1.595-0.38c-0.531-0.38-0.759-0.835-0.759-1.367c0-0.532,0.228-0.987,0.683-1.292
		c0.38-0.228,0.911-0.378,1.441-0.378c0.152,0,0.229,0,0.304,0v0.607c-0.075,0-0.075,0-0.152,0c-0.606,0-0.987,0.076-1.29,0.228
		c-0.229,0.229-0.381,0.456-0.381,0.835c0,0.378,0.152,0.683,0.531,0.911c0.381,0.152,0.76,0.228,1.14,0.228
		c0.077,0,0.152,0,0.152,0V-74.825z"/>
	<path d="M172.873-69.36v0.608v0.606c0,0.152,0,0.229,0,0.305c-0.078,0.077-0.152,0.152-0.229,0.152
		c-0.228,0-0.381-0.152-0.381-0.455l0.076-0.151v-0.152c-0.151,0-0.303,0-0.455,0c-0.229,0.075-0.381,0.075-0.455,0.075
		c-0.229,0-0.684-0.075-1.216-0.075c-0.531-0.077-0.91-0.077-1.138-0.077c0.152,0.304,0.303,0.455,0.303,0.531
		c0,0.078-0.075,0.152-0.075,0.229c-0.075,0-0.153,0.075-0.228,0.075c-0.077,0-0.229-0.075-0.381-0.304
		c-0.076-0.076-0.152-0.227-0.38-0.454c-0.151-0.152-0.228-0.38-0.228-0.532c0-0.152,0.076-0.152,0.228-0.152c0,0,0.075,0,0.228,0
		c0.076,0,0.152,0,0.152,0c0.076,0,0.229,0,0.304,0c0.151,0,0.305,0,0.305,0c0.305,0,0.607,0,1.063,0.077
		c0.454,0,0.836,0.075,1.063,0.075c0.152,0,0.303,0,0.455-0.075c0.152,0,0.305,0,0.379,0v-0.305c0-0.075,0.078-0.152,0.078-0.228
		c0.075-0.077,0.149-0.077,0.226-0.077c0.077,0,0.152,0,0.229,0.077C172.873-69.511,172.873-69.435,172.873-69.36z"/>
	<path d="M173.098-71.865c0,0.531-0.227,0.91-0.606,1.14c-0.229,0.152-0.531,0.304-0.909,0.304v-0.607
		c0.228,0,0.38-0.077,0.53-0.152c0.305-0.152,0.455-0.378,0.455-0.759c0-0.302-0.15-0.531-0.304-0.683
		c-0.227-0.152-0.454-0.227-0.682-0.227v-0.607c0.38,0,0.76,0.152,1.063,0.38C172.947-72.777,173.098-72.396,173.098-71.865z
		 M171.581-70.421c-0.151,0-0.229,0-0.38,0c-0.987,0-1.897-0.381-2.657-1.216l-0.303-0.305c-0.077-0.152-0.152-0.228-0.152-0.302
		c0-0.078,0-0.152,0.076-0.229c0.077-0.075,0.151-0.075,0.227-0.075c0.077,0,0.229,0.075,0.381,0.304l0.606,0.606
		c0.229,0.229,0.455,0.304,0.76,0.455c-0.076-0.152-0.076-0.304-0.152-0.455c0-0.152-0.075-0.228-0.075-0.379
		c0-0.457,0.151-0.835,0.38-1.064c0.303-0.303,0.683-0.38,1.139-0.38c0,0,0.075,0,0.151,0v0.607c-0.077,0-0.151,0-0.151,0
		c-0.304,0-0.532,0.076-0.684,0.227c-0.078,0.152-0.152,0.381-0.152,0.76c0,0.152,0,0.304,0.076,0.457
		c0,0.075,0.077,0.152,0.229,0.378c0.077,0,0.229,0,0.305,0c0.15,0,0.228,0,0.38,0v0.61H171.581z"/>
	<path d="M173.025-75.813c0,0.607-0.305,1.063-0.912,1.366c-0.38,0.229-0.909,0.304-1.594,0.38v-0.606
		c0.607-0.077,1.064-0.152,1.367-0.304c0.379-0.152,0.532-0.455,0.532-0.835c0-0.456-0.228-0.759-0.76-0.911
		c-0.302-0.152-0.683-0.228-1.138-0.228v-0.607c0.758,0.077,1.367,0.152,1.823,0.456C172.795-76.799,173.025-76.419,173.025-75.813z
		 M170.518-74.067h-0.076c-0.608,0-1.139-0.151-1.594-0.454c-0.532-0.304-0.759-0.76-0.759-1.367c0-0.531,0.228-0.987,0.683-1.289
		c0.379-0.229,0.911-0.381,1.443-0.381c0.151,0,0.228,0,0.303,0v0.607c-0.076,0-0.076,0-0.151,0c-0.607,0-0.987,0.076-1.29,0.305
		c-0.305,0.152-0.381,0.378-0.381,0.758s0.152,0.684,0.533,0.911c0.379,0.152,0.757,0.304,1.138,0.304c0.076,0,0.151,0,0.151,0
		V-74.067L170.518-74.067z"/>
	<path d="M181.222-69.36v0.608v0.606c0,0.152,0,0.229,0,0.305c0,0.077-0.076,0.152-0.229,0.152c-0.228,0-0.303-0.152-0.303-0.455
		v-0.151v-0.152c-0.075,0-0.228,0-0.454,0c-0.152,0.075-0.305,0.075-0.455,0.075c-0.23,0-0.607-0.075-1.141-0.075
		c-0.531-0.077-0.91-0.077-1.216-0.077c0.229,0.304,0.305,0.455,0.305,0.531c0,0.078,0,0.152-0.076,0.229
		c-0.077,0-0.151,0.075-0.229,0.075c-0.074,0-0.228-0.075-0.302-0.304c-0.076-0.076-0.229-0.227-0.38-0.454
		c-0.228-0.152-0.306-0.38-0.306-0.532c0-0.152,0.078-0.152,0.23-0.152c0.076,0,0.152,0,0.228,0c0.077,0,0.152,0,0.229,0
		s0.152,0,0.302,0c0.152,0,0.229,0,0.305,0c0.229,0,0.607,0,1.064,0.077c0.455,0,0.757,0.075,0.987,0.075
		c0.15,0,0.303,0,0.455-0.075c0.149,0,0.302,0,0.454,0v-0.305c0-0.075,0-0.152,0.077-0.228c0.076-0.077,0.076-0.077,0.228-0.077
		c0.077,0,0.151,0,0.151,0.077C181.222-69.511,181.222-69.435,181.222-69.36z"/>
	<path d="M181.451-71.865c0,0.531-0.153,0.91-0.533,1.14c-0.302,0.152-0.606,0.304-0.986,0.304v-0.607
		c0.228,0,0.38-0.077,0.532-0.152c0.303-0.152,0.454-0.378,0.454-0.759c0-0.302-0.075-0.531-0.302-0.683
		c-0.152-0.152-0.382-0.227-0.685-0.227v-0.607c0.454,0,0.759,0.152,1.063,0.38C181.298-72.777,181.451-72.396,181.451-71.865z
		 M179.932-70.421c-0.076,0-0.229,0-0.303,0c-1.064,0-1.898-0.381-2.657-1.216l-0.304-0.305c-0.151-0.152-0.23-0.228-0.23-0.302
		c0-0.078,0-0.152,0.078-0.229c0.074-0.075,0.151-0.075,0.228-0.075c0.077,0,0.229,0.075,0.454,0.304l0.607,0.606
		c0.152,0.229,0.38,0.304,0.759,0.455c-0.076-0.152-0.152-0.304-0.228-0.455c0-0.152,0-0.228,0-0.379
		c0-0.457,0.075-0.835,0.38-1.064c0.229-0.303,0.606-0.38,1.064-0.38c0.075,0,0.075,0,0.15,0v0.607c-0.076,0-0.076,0-0.15,0
		c-0.305,0-0.457,0.076-0.608,0.227c-0.151,0.152-0.228,0.381-0.228,0.76c0,0.152,0,0.304,0.076,0.457
		c0.076,0.075,0.151,0.152,0.228,0.378c0.152,0,0.229,0,0.381,0c0.075,0,0.228,0,0.303,0V-70.421L179.932-70.421z"/>
	<path d="M181.374-75.813c0,0.607-0.302,1.063-0.835,1.366c-0.454,0.229-0.987,0.304-1.592,0.38v-0.606
		c0.53-0.077,0.985-0.152,1.29-0.304c0.38-0.152,0.531-0.455,0.531-0.835c0-0.456-0.229-0.759-0.759-0.911
		c-0.305-0.152-0.685-0.228-1.063-0.228v-0.607c0.757,0.077,1.365,0.152,1.744,0.456C181.146-76.799,181.374-76.419,181.374-75.813z
		 M178.947-74.067h-0.152c-0.607,0-1.14-0.151-1.595-0.454c-0.454-0.304-0.76-0.76-0.76-1.367c0-0.531,0.229-0.987,0.686-1.289
		c0.454-0.229,0.909-0.381,1.517-0.381c0.076,0,0.153,0,0.306,0v0.607c-0.078,0-0.152,0-0.229,0c-0.531,0-0.987,0.076-1.291,0.305
		c-0.228,0.152-0.379,0.378-0.379,0.758s0.229,0.684,0.606,0.911c0.305,0.152,0.684,0.304,1.063,0.304c0.077,0,0.151,0,0.229,0
		L178.947-74.067L178.947-74.067z"/>
</g>
</svg>
