<?xml version="1.0" encoding="utf-8"?>
<!-- Generator: Adobe Illustrator 15.0.2, SVG Export Plug-In . SVG Version: 6.00 Build 0)  -->
<!DOCTYPE svg PUBLIC "-//W3C//DTD SVG 1.1//EN" "http://www.w3.org/Graphics/SVG/1.1/DTD/svg11.dtd">
<svg version="1.1" id="Layer_1" xmlns="http://www.w3.org/2000/svg" xmlns:xlink="http://www.w3.org/1999/xlink" x="0px" y="0px"
	 width="368px" height="60px" viewBox="0 0 368 60" enable-background="new 0 0 368 60" xml:space="preserve">
<rect x="58.296" y="22.384" fill="none" stroke="#231F20" stroke-width="0.5" width="125.424" height="13.104"/>
<rect x="236.568" y="22.96" fill="none" stroke="#231F20" stroke-width="0.5" width="111.442" height="12.528"/>
<g>
	<text transform="matrix(1 0 0 1 21.4321 31.8887)" fill="#231F20" font-family="'Arial-BoldMT'" font-size="9.936">RVD:</text>
</g>
<g>
	<text transform="matrix(1 0 0 1 60.6719 31.7441)" fill="#231F20" font-family="'ArialMT'" font-size="9.936">Test done </text>
</g>
<g>
	<text transform="matrix(1 0 0 1 133.752 31.7441)" fill="#231F20" font-family="'ArialMT'" font-size="9.936">Yes</text>
</g>
<g>
	<text transform="matrix(1 0 0 1 162.3359 31.7441)" fill="#231F20" font-family="'ArialMT'" font-size="9.936">No</text>
</g>
<text transform="matrix(1 0 0 1 237.7207 31.7441)" fill="#231F20" font-family="'ArialMT'" font-size="9.936">Precautions </text>
<g>
	<text transform="matrix(1 0 0 1 299.2158 31.7441)" fill="#231F20" font-family="'ArialMT'" font-size="9.936">Yes</text>
</g>
<g>
	<text transform="matrix(1 0 0 1 328.9521 31.7441)" fill="#231F20" font-family="'ArialMT'" font-size="9.936">No</text>
</g>
<path fill="none" stroke="#808184" stroke-width="1.0001" d="M142.968,39.816c7.416,0,13.392-4.824,13.392-10.729
	c0-5.904-5.976-10.656-13.392-10.656c-7.344,0-13.32,4.752-13.32,10.656C129.648,34.992,135.624,39.816,142.968,39.816z"/>
<path fill="none" stroke="#808184" stroke-width="1.0001" d="M334.488,39.447c6.695,0,12.096-4.823,12.096-10.727
	c0-5.832-5.4-10.656-12.096-10.656c-6.624,0-12.096,4.824-12.096,10.656C322.393,34.624,327.864,39.447,334.488,39.447z"/>
<rect x="0.5" y="0.5" fill="none" stroke="#000000" width="367" height="59"/>
</svg>
