<?xml version="1.0" encoding="utf-8"?>
<!-- Generator: Adobe Illustrator 19.2.0, SVG Export Plug-In . SVG Version: 6.00 Build 0)  -->
<svg version="1.1" xmlns="http://www.w3.org/2000/svg" xmlns:xlink="http://www.w3.org/1999/xlink" x="0px" y="0px"
	 viewBox="0 0 841.9 368.5" style="enable-background:new 0 0 841.9 368.5;" xml:space="preserve">
<style type="text/css">
	.st0{fill:none;stroke:#231F20;stroke-width:0.5;stroke-miterlimit:10;}
	.st1{fill:none;stroke:#231F20;stroke-width:0.5;stroke-linecap:round;stroke-linejoin:round;stroke-miterlimit:10;}
	.st2{fill:none;stroke:#231F20;stroke-width:1.4173;stroke-linecap:round;stroke-linejoin:round;}
	.st3{fill:#231F20;}
	.st4{font-family:'MyriadPro-Regular';}
	.st5{font-size:16px;}
</style>
<g id="illustration">
	<path class="st0" d="M253.3,345.4c0,0,0.4-26.2,79.7-28.3c7.4-0.2,17.2-2.2,29.5-7.8"/>
	<path class="st0" d="M293.7,345.4c0,0,8.3-6.7,15.3-9"/>
	<path class="st0" d="M490,326.1c0,0,11.7,11.7,17.3,12.3"/>
	<path class="st0" d="M472.4,307.9c0,0,33.3,7.1,65,4.8c0,0,22.7-4.7,37,31.3"/>
	<path class="st0" d="M414,306.8c-11.2,1.5-44-6.1-44-6.1s-5.5-3.5-6.2,1.5c0,0-3.8,9.5,1.5,9.8c0,0,56.8,19,104.2-1.5
		c0,0,5.5-2,2.5-8c0,0-0.2-6.1-7-2.9c0,0-14.6,4.4-27.2,5.8"/>
	<path class="st0" d="M369.5,290.7c0,0,41.5,19,55.8,17.3c0,0,34.2-4.3,57.2-22.3"/>
	<path class="st0" d="M355,270.7c0,0-10.2-1.5-9.5,11c0,0-0.5,11.5,11.8,10.2c0,0,50.6-5.5,67.5-6c17-0.5,51.2,1.3,68-1.2
		c3.4-0.5,7.8-2.2,5.9-12.5c0,0-1.4-12.2-12.2-9l-49.2-0.5l1.5-13.5c0,0-4.8-6-10,0l-3.2,13l-9.2,0.8l-0.5-15c0,0-6.5-6-11.5,3.2
		l1,13L355,270.7z"/>
	<path class="st0" d="M402.9,233.7c0,0-7.4,10.5,1.4,17.5"/>
	<path class="st0" d="M441,251.2c0,0,8-9.5,0-16.5"/>
	<path class="st0" d="M415.8,247.9c0,0,6.1,3.5,13,1.2"/>
	<path class="st0" d="M369.5,219.9c0,0,25.9-6.6,34.8,2.2"/>
	<path class="st0" d="M441,223.2c0,0,14.5-7.8,34.5,0"/>
	<path class="st0" d="M351.7,270.9c0,0,2.5-4.7-25.2-3.7c0,0-10.5,9.9-1.8,24.8c0,0,17.6,5.8,27,0"/>
	<path class="st0" d="M490.7,262.6c0,0,1.3-5.5,22.3-6.5c0,0,10.4-1.3,10.3,18.8c0,0-0.8,9.4-13.6,10.7c0,0-12.2,2.1-15-1.4"/>
	<line class="st0" x1="467.9" y1="294.7" x2="467.9" y2="298.6"/>
	<path class="st0" d="M357.2,291.9c0,0,5.5,4.7,10.8,4.7"/>
	<line class="st0" x1="366.7" y1="290.9" x2="368" y2="299.7"/>
	<path class="st0" d="M345.5,267.7c0,0-14.8-28.3,0-52.5c0,0,8.4-14.6,33.8-18.8c9.2-1.5,27.3-5.4,36.5-6.8c17-2.5,37.2-6.5,68,10.2
		c0,0,19.5,12.5,16.7,57.7"/>
	<path class="st0" d="M326.5,267.2c0,0-5.5-20.1-27.2-9c-3.2,1.6-7.9,5.4-14.2,2.5c-3-1.4-15-5.3-12.5,4c0,0,3.3,4.2,4.2,5.5
		c2.4,3.3,4,9.9-2.5,16.1c0,0-9.5,10.7,4,6.9c0,0,11.8-5.8,18.8-5c5.3,0.6,19.8-0.3,25-2.5"/>
	<path class="st0" d="M271,292c0,0-0.8,3,3.5,6.6c0,0,5.5,5.1,11,0c0,0,8.5-9.2,17.2-6.5c0,0,7.5,5.4,14.5,2c1.7-0.9,3.8-3,7.5-2"/>
	<path class="st0" d="M341,224.9c0,0-17.4,35.4,1.8,36.5"/>
	<path class="st0" d="M477.5,289.2c0,0,14.5-0.5,21.6-3.2"/>
	<path class="st0" d="M514.5,256.1c0,0,5.2-19.3,29.5-10.1c0,0,7.5,2.4,15.8-2.5c0,0,9-4.4,7.5,4.4c0,0-7.8,13,0.2,19.8
		c2.2,1.9,9.2,6.4,5.1,10.5c-2.7,2.6-6.5,3.8-14.5-3.5c0,0-6.4-4.3-15.2-0.2c-4.4,2-10.8,4-19.4,0.5"/>
	<path class="st0" d="M521,280.2c0,0,10.9,3.8,23.1-1.3c0,0,7.1-4.9,12.9,1.3c0,0,10.5,7.7,15.5-2.1"/>
	<circle class="st0" cx="313.9" cy="266" r="2.6"/>
	<circle class="st0" cx="528.3" cy="252.5" r="2.6"/>
	<path class="st0" d="M428.8,255l-0.6,2.1c0,0,4.8-1,7.8,0l0.6-2.1C436.5,255,430.4,254.2,428.8,255z"/>
	<polygon class="st0" points="407.4,256.1 407.4,258 414.5,258 414.5,255.9 	"/>
	<polygon class="st0" points="407.4,264 410.9,259.3 414.5,264 412.6,264 412.6,267.7 409.8,267.7 409.8,264.2 	"/>
	<polygon class="st0" points="428.1,264 431.7,259.3 435.2,264 433.4,264 433.4,267.7 430.5,267.7 430.5,264.2 	"/>
	<path class="st0" d="M297.2,259.3c0,0,0.5-41.6,4-60.9l4.1-31h-1.2l1.2-12c0,0,1.7-0.8,2,1.3c0,0,1.4,7.2-2,10.7"/>
	<path class="st0" d="M321.9,259.3c0,0-1.5-50.6,4.6-71.9"/>
	<path class="st0" d="M297.3,253.1c0,0,11.4-8.7,24.4,0"/>
	<path class="st0" d="M306.7,155.4l6.2-50.4c0,0,1.7-12.7,1.7-18.2c0,0,2.8-18.5,6-25.3c0,0,13.5-9.8,23.8,5.3c0,0-3,22.8-5.4,29.2
		c0,0-6.4,16-8.1,41l3.2,0.9c0,0,10-25.1,47.5-31c16-2.5,31-6.3,64.5-4.6c0,0,50.8,1.4,57.8,24.2"/>
	<path class="st0" d="M363.4,112c0,0,19.1-14.3,53.9-17.3c0,0,33.2-2.4,48,9.9"/>
	<path class="st0" d="M331,134.2c0,0,3.5-5.9,7-2.9"/>
	<path class="st0" d="M330.8,137.2c0,0-11.2-3.6-16.8,0c0,0-3.5,1.2-3.5,7.4c0,0,0.3,2.7,5,0c0,0,9.7-3,13.8,3l-1,24.2"/>
	<path class="st0" d="M329,193.1c0,0,3.4-7.5-11.3-7.5c0,0-6.4,0.6-8.2,2.5c-0.8,0.8-4,3.2-3.7-2.5c0,0-0.5-9.8,10.3-10
		c4.6-0.1,12.1-0.5,18.3,1.8"/>
	<path class="st1" d="M323.3,206.4l12.7-13.3l-0.7-7c0,0,0.2-4.8-3.7-0.7c0,0-5.6-3.9-11-1.7v-4.8c0,0,6.2-0.7,11.4,1.5l-5.5,2.9"/>
	<path class="st1" d="M332,180.4c0,0,3-1.8,2.5-6.3l-1.2-29.8l-1.9,0.8c0,0-3.8-3.3-8.7-3.1v-3.3c0,0,6.9,0.7,9.4,2.3
		c0,0,2.2-1.1,1.8-2.9"/>
	<line class="st1" x1="332.2" y1="140.9" x2="327.1" y2="142.6"/>
	<path class="st1" d="M320.5,61.7c0,0-3.8-10.2,7.5-10.8c0,0,12.7-1.1,17.2,5.4c0,0,2.8,4-0.9,10.6"/>
	<path class="st1" d="M508.8,131.4c0,0,3.9-62,4.4-82.8c0.2-7.9,0-31.8,0-31.8"/>
	<path class="st1" d="M534.2,15.4c0,0-0.9,96.3-4.2,135c0,0-4.4,8.1,1,12.8c0,0,1.4,0,0.9-4.1c0,0-0.5-8.6-1.9-8.6"/>
	<path class="st1" d="M509,128.2c0,0-2.9-3.4-6.2-1.2c0,0-1.5,1,0,4.4l0.9,1.7c0,0,6.8-2.7,14.6-1.7c0,0,6.7,0.4,7.5,6
		c0.1,1,1.3,5.2-2,3.5c0,0-7.3-4.4-15.5,0.4c0,0-0.7,2.4-0.7,6.4v23.2"/>
	<path class="st1" d="M505.1,134.8c0,0,3.6,3,5.2,2.7"/>
	<path class="st1" d="M502.2,171.6c0,0,15-2,21,0c0,0,7.2,2.5,6.8,10.5c0,0,0.6,5.3-3.8,1.3c0,0-7-5.7-17.3-1c0,0-3.5,1.5-2.8,5.7"
		/>
	<path class="st1" d="M508.8,182.4c0,0,0.5,12.7,1,17c-9.3-8-9.8-12-9.8-12l0.8-7.3c0.3-3.8,3,0,3,0c6.1-3,11.8-1.8,11.8-1.8v-4
		c-3-0.7-11.8,0.8-11.8,0.8c-1.2-0.8-1.6-2-1.6-2l1.6-34.7l1.8,1.2c1.2-2,8.7-2.7,8.7-2.7v-3.1l-7.7,1.3c-2,0.3-2.8-2-2.8-2"/>
	<path class="st1" d="M509.8,199.4c0,0,8.8,36.7,9,49.5"/>
	<line class="st1" x1="503.8" y1="175.1" x2="509.8" y2="178.2"/>
	<path class="st1" d="M531,163.2c0,0,0.8,20.8,3.2,28.8c0,0,9,42.4,9.8,54.1"/>
	<path class="st1" d="M518.3,242.4c0,0,10.9-11.3,25.1-2.3"/>
</g>
<g id="labels">
	<g>
		<g>
			<line class="st2" x1="522.9" y1="89.3" x2="600" y2="89.3"/>
			<g>
				<polygon class="st3" points="527.6,95.1 528.5,94 523.4,89.3 528.5,84.5 527.6,83.5 521.3,89.3 				"/>
			</g>
		</g>
	</g>
	<text transform="matrix(1 0 0 1 612 94.4635)" class="st3 st4 st5">Infant tubing</text>
	<text transform="matrix(1 0 0 1 160 94.4635)" class="st3 st4 st5">End cap</text>
	<text transform="matrix(1 0 0 1 188 148.6031)" class="st3 st4 st5">Clip</text>
	<text transform="matrix(1 0 0 1 174 276.3861)" class="st3 st4 st5">Elbow</text>
	<text transform="matrix(1 0 0 1 127 315.9196)" class="st3 st4 st5">Nasal prongs</text>
	<g>
		<g>
			<line class="st2" x1="462.9" y1="146.6" x2="600" y2="146.6"/>
			<g>
				<polygon class="st3" points="467.6,152.4 468.5,151.4 463.4,146.6 468.5,141.9 467.6,140.8 461.3,146.6 				"/>
			</g>
		</g>
	</g>
	<text transform="matrix(1 0 0 1 612 151.808)" class="st3 st4 st5">Cotton hat</text>
	<g>
		<g>
			<line class="st2" x1="525.9" y1="177.8" x2="600" y2="177.8"/>
			<g>
				<polygon class="st3" points="530.6,183.6 531.5,182.6 526.4,177.8 531.5,173.1 530.6,172 524.3,177.8 				"/>
			</g>
		</g>
	</g>
	<text transform="matrix(1 0 0 1 612 182.9956)" class="st3 st4 st5">Clip</text>
	<g>
		<g>
			<line class="st2" x1="545.9" y1="258.9" x2="600" y2="258.9"/>
			<g>
				<polygon class="st3" points="550.6,264.7 551.5,263.7 546.4,258.9 551.5,254.2 550.6,253.2 544.3,258.9 				"/>
			</g>
		</g>
	</g>
	<g>
		<g>
			<polyline class="st2" points="224.7,311.3 421.3,311.3 421.3,278.6 			"/>
			<g>
				<polygon class="st3" points="427.1,283.3 426.1,284.3 421.3,279.2 416.6,284.3 415.5,283.3 421.3,277.1 				"/>
			</g>
		</g>
	</g>
	<g>
		<g>
			<line class="st2" x1="289.5" y1="271.3" x2="226.2" y2="271.3"/>
			<g>
				<polygon class="st3" points="284.8,265.5 283.8,266.5 288.9,271.3 283.8,276 284.8,277 291,271.3 				"/>
			</g>
		</g>
	</g>
	<g>
		<g>
			<line class="st2" x1="300.3" y1="143.4" x2="226.2" y2="143.4"/>
			<g>
				<polygon class="st3" points="295.6,137.6 294.6,138.7 299.7,143.4 294.6,148.2 295.6,149.2 301.8,143.4 				"/>
			</g>
		</g>
	</g>
	<g>
		<g>
			<line class="st2" x1="320" y1="89.3" x2="226.2" y2="89.3"/>
			<g>
				<polygon class="st3" points="315.3,83.5 314.3,84.5 319.4,89.3 314.3,94 315.3,95.1 321.5,89.3 				"/>
			</g>
		</g>
	</g>
	<text transform="matrix(1 0 0 1 612 264.1313)" class="st3 st4 st5">Elbow</text>
</g>
</svg>
