<?xml version="1.0" encoding="utf-8"?>
<!-- Generator: Adobe Illustrator 19.2.0, SVG Export Plug-In . SVG Version: 6.00 Build 0)  -->
<svg version="1.1" xmlns="http://www.w3.org/2000/svg" xmlns:xlink="http://www.w3.org/1999/xlink" x="0px" y="0px"
	 viewBox="0 0 841.9 368.5" style="enable-background:new 0 0 841.9 368.5;" xml:space="preserve">
<style type="text/css">
	.st0{display:none;}
	.st1{fill:none;stroke:#231F20;stroke-width:0.5;stroke-miterlimit:10;}
	.st2{fill:none;stroke:#231F20;stroke-width:0.5;stroke-linecap:round;stroke-linejoin:round;stroke-miterlimit:10;}
	.st3{fill:none;stroke:#231F20;stroke-width:0.4888;stroke-miterlimit:10;}
	.st4{fill:none;stroke:#231F20;stroke-width:0.566;stroke-miterlimit:10;}
	.st5{fill:none;stroke:#231F20;stroke-width:0.6074;stroke-miterlimit:10;}
	.st6{fill:none;stroke:#231F20;stroke-width:0.555;stroke-miterlimit:10;}
	.st7{fill:#231F20;}
	.st8{fill:none;stroke:#231F20;stroke-width:1.4173;stroke-linecap:round;stroke-linejoin:round;}
</style>
<g id="trace" class="st0">
</g>
<g id="illustration">
	<path class="st1" d="M483,65.9c-45.7-2.2-110.7-1.8-110.7-1.8c-8.5-0.1-16.4,0.4-23.8,1.1"/>
	<path class="st1" d="M337.3,66.5c-13.4,1.9-24.8,4.3-34.6,5.2c-8,0.8-7.7,6-7.7,6v9.7c0,0,166.5,6.5,211,5c0,0,15-0.3,21-4.7
		l-1.3,237.3c12.7-3.7,11-17,11-17l1.3-214V75.7c0-6-21.3-7-21.3-7c-5.6-0.9-13.3-1.6-22.2-2.2"/>
	<path class="st1" d="M295,87.4l2,224.5c0,0-2,13.2,11,13.2c0,0,134.5,18.8,186.5,10.8c0,0,25.3-1.7,31.2-10.8"/>
	<path class="st1" d="M297,309.7l12,2l186,9.7c0,0,22.3,3,30.7-7.3"/>
	<path class="st2" d="M538,86.4c-4.5,3.2-11,1.3-11,1.3s0.1-6.3,0-8.3c-0.1-2.2-0.7-4.8-7-5.3"/>
	<polygon class="st1" points="309,96.9 494.5,102.4 494.5,311.8 309,303.4 	"/>
	<path class="st1" d="M337.2,68.2c0,0,6.2,1.5,11.2,0V43.7c0,0-0.8-5.5,8.2-5.5l119.8,2c0,0,6.5,0.8,6.5,7.8v20.9
		c0,0,5.2,3.2,11.5,0V45.7c0,0-0.8-17.2-19.2-17.2l-121-2c0,0-16.2-1.2-17,14.2V68.2z"/>
	<circle class="st3" cx="400.3" cy="150.1" r="38.5"/>
	<path class="st3" d="M421.8,129.3l-0.9,0.9c-2.9-3-6.5-5.4-10.5-6.9c-3.1-1.2-6.5-1.8-10-1.8c-15.7,0-28.5,12.8-28.5,28.5
		c0,14,10.1,25.7,23.5,28.1l-0.3,1.1"/>
	<path class="st3" d="M377.5,148.3c0,0.6-0.1,1.2-0.1,1.8c0,11.1,7.9,20.5,18.8,22.5"/>
	<path class="st3" d="M416.8,134.2c-2.4-2.4-5.3-4.4-8.4-5.5c-2.6-1-5.2-1.4-8-1.4c-10.8,0-19.9,7.5-22.2,17.6"/>
	<circle class="st1" cx="445.8" cy="228.5" r="32.7"/>
	<circle class="st1" cx="468.5" cy="280.4" r="16.3"/>
	<line class="st1" x1="309" y1="147.4" x2="361.9" y2="148.7"/>
	<line class="st1" x1="309" y1="151.4" x2="361.9" y2="152.7"/>
	<path class="st1" d="M438.8,150.1h4.2c0,0,4.1,0.3,5.5-2c1.3-2.1,1.6-3.7,9.1-3.1c9.2,0.7,36.9,0.9,36.9,0.9"/>
	<path class="st1" d="M438.5,154.8c0,0,9,0,12,0c3,0,7.1-0.1,10.9-4.7c0.9-1.1,1.4-1.5,5.3-1.3c7,0.4,27.9,0.6,27.9,0.6"/>
	<g>
		
			<ellipse transform="matrix(0.1419 -0.9899 0.9899 0.1419 196.65 524.9896)" class="st3" cx="401.1" cy="149.1" rx="3.2" ry="3.2"/>
		<path class="st3" d="M403.2,146.6c0,0,0.4-4.2,2.4-6.1c0,0,2.7-2.1-2.9-2.8c-5.6-0.9-3.6,1.9-3.6,1.9c1.4,2.4,0.6,6.5,0.6,6.5"/>
		<polyline class="st3" points="399.2,151.7 397.5,174.3 402.3,152.1 		"/>
	</g>
	<circle class="st3" cx="421.6" cy="149" r="2.6"/>
	<circle class="st3" cx="418.2" cy="153.8" r="1.7"/>
	<circle class="st3" cx="418.2" cy="143.8" r="1.7"/>
	<line class="st3" x1="408.2" y1="172.6" x2="409.6" y2="177.2"/>
	<path class="st4" d="M436.1,230.8c1.4-8.4,7.7-14.8,15.2-14.8c8.6,0,15.5,8.2,15.5,18.3c0,10.1-7,18.3-15.5,18.3
		c-4.5,0-8.5-2.2-11.3-5.8"/>
	<path class="st4" d="M442.4,226.4"/>
	<circle class="st5" cx="443.9" cy="237.4" r="10.3"/>
	<path class="st5" d="M438.1,229c0,0,6.8-5.8,13.2-4.1c0,0,7.7,3.2,7.6,10.8c0,0,0.2,9.6-12,11.6"/>
	<circle class="st6" cx="334.6" cy="272.7" r="12.4"/>
	<circle class="st6" cx="330.6" cy="274.7" r="6.2"/>
	<path class="st1" d="M352,267.7c4.4-12.1,17.9-16.4,17.9-16.4l0,0c10-5.1,16.8-15.5,16.8-27.5c0-17.1-13.8-30.9-30.9-30.9
		c-17.1,0-30.9,13.8-30.9,30.9c0,5.4,1.4,10.4,3.8,14.8l0,0c0,0,2.6,7.9-3.8,21.1c-5.7,11.9-5.1,15.5-5.1,15.5c0,7.7,6.3,14,14,14
		c4.6,0,8.9-2.1,11.2-5.6C347.4,279.9,349.3,275.1,352,267.7z"/>
	<path class="st6" d="M325,272.1c0,0,1.6-4.6,9.6-8.1c3-1.3,8.2-1.9,10.6,7.5c0.7,2.8-0.1,6.5-7.1,9.3c-2.3,0.9-5.2,1.8-9.9-0.5"/>
	<path class="st6" d="M345.7,194.5c0,0-0.3,10.8,9.5,10.8c0,0,8.7,1.2,12.3-10.2"/>
	<g>
		<circle class="st1" cx="331.2" cy="197.5" r="1.8"/>
		<circle class="st1" cx="335.9" cy="194" r="1.8"/>
		<circle class="st1" cx="340.9" cy="190.1" r="1.9"/>
		<circle class="st1" cx="347.3" cy="187.5" r="2.2"/>
		<circle class="st1" cx="355.2" cy="186.2" r="2.6"/>
		<circle class="st1" cx="364.1" cy="187.5" r="2.9"/>
		<circle class="st1" cx="372.3" cy="190.9" r="3.4"/>
		<circle class="st1" cx="381" cy="196.4" r="4"/>
	</g>
	<g>
		<circle class="st1" cx="422.2" cy="200.5" r="1.8"/>
		<circle class="st1" cx="426.9" cy="197" r="1.8"/>
		<circle class="st1" cx="431.9" cy="193.1" r="1.9"/>
		<circle class="st1" cx="438.3" cy="190.5" r="2.2"/>
		<circle class="st1" cx="446.2" cy="189.2" r="2.6"/>
		<circle class="st1" cx="455.1" cy="190.5" r="2.9"/>
		<circle class="st1" cx="463.3" cy="193.9" r="3.4"/>
		<circle class="st1" cx="472" cy="199.4" r="4"/>
	</g>
	<path class="st1" d="M442.9,216.9L442.9,216.9c-0.3,0.1-0.7-0.1-0.8-0.4l-3.2-9.3c-0.1-0.3,0.1-0.7,0.4-0.8l0,0
		c0.3-0.1,0.7,0.1,0.8,0.4l3.2,9.3C443.4,216.4,443.2,216.8,442.9,216.9z"/>
	<path class="st1" d="M447.6,215.3L447.6,215.3c-0.3,0.1-0.7-0.1-0.8-0.4l-3.2-9.3c-0.1-0.3,0.1-0.7,0.4-0.8l0,0
		c0.3-0.1,0.7,0.1,0.8,0.4l3.2,9.3C448.1,214.8,448,215.1,447.6,215.3z"/>
	<path class="st1" d="M452.6,214.9L452.6,214.9c-0.3,0.1-0.7-0.1-0.8-0.4l-3.2-9.3c-0.1-0.3,0.1-0.7,0.4-0.8l0,0
		c0.3-0.1,0.7,0.1,0.8,0.4l3.2,9.3C453.1,214.5,452.9,214.8,452.6,214.9z"/>
	<path class="st1" d="M457,215.3L457,215.3c-0.3,0.1-0.7-0.1-0.8-0.4l-3.2-9.3c-0.1-0.3,0.1-0.7,0.4-0.8l0,0
		c0.3-0.1,0.7,0.1,0.8,0.4l3.2,9.3C457.5,214.8,457.3,215.1,457,215.3z"/>
	<path class="st1" d="M461.7,217.5L461.7,217.5c-0.3,0.1-0.7-0.1-0.8-0.4l-3.2-9.3c-0.1-0.3,0.1-0.7,0.4-0.8h0
		c0.3-0.1,0.7,0.1,0.8,0.4l3.2,9.3C462.2,217,462,217.4,461.7,217.5z"/>
	<path class="st1" d="M360.3,204.3l-0.6-1.8c-0.1-0.3,0.1-0.7,0.4-0.8l0,0c0.3-0.1,0.7,0.1,0.8,0.4l0.6,1.6"/>
	<path class="st1" d="M355.8,205.3l-1-2.9c-0.1-0.3,0.1-0.7,0.4-0.8l0,0c0.3-0.1,0.7,0.1,0.8,0.4l1.1,3.2"/>
	<path class="st1" d="M350.9,204.4l-0.5-1.5c-0.1-0.3,0.1-0.7,0.4-0.8l0,0c0.3-0.1,0.7,0.1,0.8,0.4l0.9,2.5"/>
	<circle class="st1" cx="466" cy="280.7" r="3.6"/>
	<path class="st1" d="M462.8,276.3c0.9-3.3,4-5.8,7.6-5.8c4.4,0,7.9,3.5,7.9,7.9c0,4.4-3.5,7.9-7.9,7.9l-4.5-0.2"/>
	<circle class="st1" cx="466" cy="280.7" r="5.5"/>
	<path class="st1" d="M313,325.8c0,0-1.4,3.3,3.8,3.3c0,0,5.4,0.7,5.4-2.1"/>
	<path class="st1" d="M493,336.1c0,0-1.3,3.8,3.4,3.8h2.7c0,0,3.7,0.2,3.5-2.8l0-2.1"/>
	<line class="st1" x1="309" y1="303.4" x2="309" y2="325.2"/>
	<line class="st1" x1="494.5" y1="311.8" x2="494.5" y2="335.9"/>
	<path class="st1" d="M525.7,311.1c0,0,3.8,0.7,5.2,0l5.8-4.2"/>
	<path class="st1" d="M307.5,87.9v-8c0,0,4.8-2,21.3-3.5c0,0,104.5-4.4,155.8,3.3"/>
	<path class="st1" d="M331.3,71.7c0,0,104.3-2.8,153.3,3.4"/>
	<path class="st2" d="M532.5,88.3c0,0,0.3-8.9,0-11.9c-0.2-2-0.7-3.8-7-4.3l-9.8-0.7l-5.3,1.6l10.2,1"/>
</g>
<g id="labels">
	<g>
		<path class="st7" d="M147.6,177.9c-0.1-1.5-0.2-3.3-0.2-4.7h0c-0.4,1.3-0.8,2.6-1.4,4.1l-1.9,5.2h-1.1l-1.7-5.1
			c-0.5-1.5-0.9-2.9-1.2-4.2h0c0,1.3-0.1,3.2-0.2,4.8l-0.3,4.6h-1.3l0.8-10.8h1.8l1.8,5.2c0.4,1.3,0.8,2.5,1.1,3.6h0
			c0.3-1.1,0.7-2.3,1.1-3.6l1.9-5.2h1.8l0.7,10.8h-1.4L147.6,177.9z"/>
		<path class="st7" d="M155.8,182.7l-0.1-1h0c-0.4,0.6-1.3,1.2-2.4,1.2c-1.6,0-2.4-1.1-2.4-2.2c0-1.9,1.7-2.9,4.7-2.9v-0.2
			c0-0.6-0.2-1.8-1.8-1.8c-0.7,0-1.5,0.2-2,0.6l-0.3-0.9c0.6-0.4,1.6-0.7,2.5-0.7c2.4,0,2.9,1.6,2.9,3.2v2.9c0,0.7,0,1.3,0.1,1.9
			H155.8z M155.5,178.7c-1.5,0-3.3,0.2-3.3,1.7c0,0.9,0.6,1.3,1.3,1.3c1,0,1.6-0.6,1.9-1.3c0-0.1,0.1-0.3,0.1-0.4V178.7z"/>
		<path class="st7" d="M159.8,174.9l1.1,1.7c0.3,0.4,0.5,0.8,0.8,1.3h0c0.3-0.5,0.5-0.9,0.8-1.3l1.1-1.6h1.5l-2.6,3.7l2.7,4h-1.6
			l-1.1-1.7c-0.3-0.4-0.6-0.9-0.8-1.3h0c-0.3,0.5-0.5,0.9-0.8,1.3l-1.1,1.7h-1.6l2.8-4l-2.6-3.8H159.8z"/>
		<path class="st7" d="M168.2,172.7c0,0.5-0.3,0.9-0.9,0.9c-0.5,0-0.8-0.4-0.8-0.9c0-0.5,0.4-0.9,0.9-0.9
			C167.8,171.9,168.2,172.2,168.2,172.7z M166.6,182.7v-7.7h1.4v7.7H166.6z"/>
		<path class="st7" d="M170.3,177c0-0.8,0-1.5-0.1-2.1h1.2l0.1,1.2h0c0.4-0.7,1.2-1.4,2.4-1.4c1.1,0,1.9,0.6,2.2,1.6h0
			c0.2-0.4,0.5-0.8,0.9-1c0.5-0.4,1-0.5,1.7-0.5c1,0,2.5,0.7,2.5,3.4v4.6H180v-4.4c0-1.5-0.5-2.4-1.7-2.4c-0.8,0-1.4,0.6-1.7,1.3
			c-0.1,0.2-0.1,0.4-0.1,0.7v4.8h-1.4V178c0-1.2-0.5-2.1-1.6-2.1c-0.9,0-1.5,0.7-1.7,1.4c-0.1,0.2-0.1,0.4-0.1,0.7v4.7h-1.4V177z"/>
		<path class="st7" d="M190.2,180.6c0,0.8,0,1.5,0.1,2.1H189l-0.1-1.3h0c-0.4,0.6-1.2,1.4-2.6,1.4c-1.2,0-2.7-0.7-2.7-3.4v-4.5h1.4
			v4.3c0,1.5,0.4,2.5,1.7,2.5c0.9,0,1.6-0.7,1.9-1.3c0.1-0.2,0.1-0.5,0.1-0.7v-4.8h1.4V180.6z"/>
		<path class="st7" d="M192.5,177c0-0.8,0-1.5-0.1-2.1h1.2l0.1,1.2h0c0.4-0.7,1.2-1.4,2.4-1.4c1.1,0,1.9,0.6,2.2,1.6h0
			c0.2-0.4,0.5-0.8,0.9-1c0.5-0.4,1-0.5,1.7-0.5c1,0,2.5,0.7,2.5,3.4v4.6h-1.4v-4.4c0-1.5-0.5-2.4-1.7-2.4c-0.8,0-1.4,0.6-1.7,1.3
			c-0.1,0.2-0.1,0.4-0.1,0.7v4.8h-1.4V178c0-1.2-0.5-2.1-1.6-2.1c-0.9,0-1.5,0.7-1.7,1.4c-0.1,0.2-0.1,0.4-0.1,0.7v4.7h-1.4V177z"/>
		<path class="st7" d="M138.5,196.6c0-1,0-1.8-0.1-2.5h1.3l0.1,1.3h0c0.6-0.9,1.5-1.5,2.8-1.5c1.9,0,3.3,1.6,3.3,3.9
			c0,2.8-1.7,4.2-3.5,4.2c-1,0-1.9-0.4-2.4-1.2h0v4.2h-1.4V196.6z M139.9,198.7c0,0.2,0,0.4,0.1,0.6c0.3,1,1.1,1.6,2.1,1.6
			c1.5,0,2.4-1.2,2.4-3c0-1.6-0.8-2.9-2.3-2.9c-1,0-1.9,0.7-2.1,1.7c0,0.2-0.1,0.4-0.1,0.6V198.7z"/>
		<path class="st7" d="M147.6,196.5c0-0.9,0-1.7-0.1-2.4h1.2l0,1.5h0.1c0.4-1,1.2-1.7,2.1-1.7c0.2,0,0.3,0,0.4,0v1.3
			c-0.1,0-0.3,0-0.5,0c-1,0-1.7,0.8-1.9,1.8c0,0.2-0.1,0.4-0.1,0.7v4.1h-1.4V196.5z"/>
		<path class="st7" d="M153.5,198.2c0,1.9,1.2,2.7,2.7,2.7c1,0,1.6-0.2,2.1-0.4l0.2,1c-0.5,0.2-1.3,0.5-2.6,0.5
			c-2.4,0-3.8-1.6-3.8-3.9s1.4-4.2,3.6-4.2c2.5,0,3.2,2.2,3.2,3.6c0,0.3,0,0.5,0,0.7H153.5z M157.6,197.2c0-0.9-0.4-2.3-2-2.3
			c-1.4,0-2,1.3-2.2,2.3H157.6z"/>
		<path class="st7" d="M160.5,200.4c0.4,0.3,1.2,0.6,1.9,0.6c1,0,1.5-0.5,1.5-1.2c0-0.7-0.4-1-1.4-1.4c-1.4-0.5-2-1.3-2-2.2
			c0-1.2,1-2.3,2.7-2.3c0.8,0,1.5,0.2,1.9,0.5l-0.4,1c-0.3-0.2-0.9-0.4-1.6-0.4c-0.8,0-1.3,0.5-1.3,1.1c0,0.6,0.5,0.9,1.5,1.3
			c1.3,0.5,2,1.2,2,2.3c0,1.4-1.1,2.3-2.9,2.3c-0.8,0-1.6-0.2-2.2-0.5L160.5,200.4z"/>
		<path class="st7" d="M166.8,200.4c0.4,0.3,1.2,0.6,1.9,0.6c1,0,1.5-0.5,1.5-1.2c0-0.7-0.4-1-1.4-1.4c-1.4-0.5-2-1.3-2-2.2
			c0-1.2,1-2.3,2.7-2.3c0.8,0,1.5,0.2,1.9,0.5l-0.4,1c-0.3-0.2-0.9-0.4-1.6-0.4c-0.8,0-1.3,0.5-1.3,1.1c0,0.6,0.5,0.9,1.5,1.3
			c1.3,0.5,2,1.2,2,2.3c0,1.4-1.1,2.3-2.9,2.3c-0.8,0-1.6-0.2-2.2-0.5L166.8,200.4z"/>
		<path class="st7" d="M179.8,199.8c0,0.8,0,1.5,0.1,2.1h-1.2l-0.1-1.3h0c-0.4,0.6-1.2,1.4-2.6,1.4c-1.2,0-2.7-0.7-2.7-3.4v-4.5h1.4
			v4.3c0,1.5,0.4,2.5,1.7,2.5c0.9,0,1.6-0.7,1.9-1.3c0.1-0.2,0.1-0.5,0.1-0.7v-4.8h1.4V199.8z"/>
		<path class="st7" d="M182.2,196.5c0-0.9,0-1.7-0.1-2.4h1.2l0,1.5h0.1c0.4-1,1.2-1.7,2.1-1.7c0.2,0,0.3,0,0.4,0v1.3
			c-0.1,0-0.3,0-0.5,0c-1,0-1.7,0.8-1.9,1.8c0,0.2-0.1,0.4-0.1,0.7v4.1h-1.4V196.5z"/>
		<path class="st7" d="M188,198.2c0,1.9,1.2,2.7,2.7,2.7c1,0,1.6-0.2,2.1-0.4l0.2,1c-0.5,0.2-1.3,0.5-2.6,0.5
			c-2.4,0-3.8-1.6-3.8-3.9s1.4-4.2,3.6-4.2c2.5,0,3.2,2.2,3.2,3.6c0,0.3,0,0.5,0,0.7H188z M192.2,197.2c0-0.9-0.4-2.3-2-2.3
			c-1.4,0-2,1.3-2.2,2.3H192.2z"/>
		<path class="st7" d="M198.7,196.5c0-0.9,0-1.7-0.1-2.4h1.2l0,1.5h0.1c0.4-1,1.2-1.7,2.1-1.7c0.2,0,0.3,0,0.4,0v1.3
			c-0.1,0-0.3,0-0.5,0c-1,0-1.7,0.8-1.9,1.8c0,0.2-0.1,0.4-0.1,0.7v4.1h-1.4V196.5z"/>
		<path class="st7" d="M204.5,198.2c0,1.9,1.2,2.7,2.7,2.7c1,0,1.6-0.2,2.1-0.4l0.2,1c-0.5,0.2-1.3,0.5-2.6,0.5
			c-2.4,0-3.8-1.6-3.8-3.9s1.4-4.2,3.6-4.2c2.5,0,3.2,2.2,3.2,3.6c0,0.3,0,0.5,0,0.7H204.5z M208.6,197.2c0-0.9-0.4-2.3-2-2.3
			c-1.4,0-2,1.3-2.2,2.3H208.6z"/>
		<path class="st7" d="M211.7,190.5h1.4v11.4h-1.4V190.5z"/>
		<path class="st7" d="M217.1,191.9c0,0.5-0.3,0.9-0.9,0.9c-0.5,0-0.8-0.4-0.8-0.9c0-0.5,0.4-0.9,0.9-0.9
			C216.8,191.1,217.1,191.4,217.1,191.9z M215.5,201.9v-7.7h1.4v7.7H215.5z"/>
		<path class="st7" d="M220.1,198.2c0,1.9,1.2,2.7,2.7,2.7c1,0,1.6-0.2,2.1-0.4l0.2,1c-0.5,0.2-1.3,0.5-2.6,0.5
			c-2.4,0-3.8-1.6-3.8-3.9s1.4-4.2,3.6-4.2c2.5,0,3.2,2.2,3.2,3.6c0,0.3,0,0.5,0,0.7H220.1z M224.2,197.2c0-0.9-0.4-2.3-2-2.3
			c-1.4,0-2,1.3-2.2,2.3H224.2z"/>
		<path class="st7" d="M227.4,201.9v-6.7h-1.1v-1.1h1.1v-0.4c0-1.1,0.2-2.1,0.9-2.7c0.5-0.5,1.2-0.7,1.9-0.7c0.5,0,0.9,0.1,1.2,0.2
			l-0.2,1.1c-0.2-0.1-0.5-0.2-0.9-0.2c-1.2,0-1.5,1.1-1.5,2.2v0.4h1.9v1.1h-1.9v6.7H227.4z"/>
	</g>
	<g>
		<path class="st7" d="M183.4,275.9c-0.6,0.2-1.9,0.6-3.3,0.6c-1.6,0-3-0.4-4-1.4c-0.9-0.9-1.5-2.3-1.5-4c0-3.2,2.2-5.6,5.8-5.6
			c1.2,0,2.2,0.3,2.7,0.5l-0.3,1.1c-0.6-0.3-1.3-0.5-2.4-0.5c-2.6,0-4.3,1.6-4.3,4.3c0,2.7,1.6,4.4,4.2,4.4c0.9,0,1.5-0.1,1.9-0.3
			v-3.2h-2.2v-1.1h3.6V275.9z"/>
		<path class="st7" d="M189.9,276.4l-0.1-1h0c-0.4,0.6-1.3,1.2-2.4,1.2c-1.6,0-2.4-1.1-2.4-2.2c0-1.9,1.7-2.9,4.7-2.9v-0.2
			c0-0.6-0.2-1.8-1.8-1.8c-0.7,0-1.5,0.2-2,0.6l-0.3-0.9c0.6-0.4,1.6-0.7,2.5-0.7c2.4,0,2.9,1.6,2.9,3.2v2.9c0,0.7,0,1.3,0.1,1.9
			H189.9z M189.7,272.5c-1.5,0-3.3,0.2-3.3,1.7c0,0.9,0.6,1.3,1.3,1.3c1,0,1.6-0.6,1.9-1.3c0-0.1,0.1-0.3,0.1-0.4V272.5z"/>
		<path class="st7" d="M193.2,275c0.4,0.3,1.2,0.6,1.9,0.6c1,0,1.5-0.5,1.5-1.2c0-0.7-0.4-1-1.4-1.4c-1.4-0.5-2-1.3-2-2.2
			c0-1.2,1-2.3,2.7-2.3c0.8,0,1.5,0.2,1.9,0.5l-0.4,1c-0.3-0.2-0.9-0.4-1.6-0.4c-0.8,0-1.3,0.5-1.3,1.1c0,0.6,0.5,0.9,1.5,1.3
			c1.3,0.5,2,1.2,2,2.3c0,1.4-1.1,2.3-2.9,2.3c-0.8,0-1.6-0.2-2.2-0.5L193.2,275z"/>
		<path class="st7" d="M204.6,266.5c0,0.5-0.3,0.9-0.9,0.9c-0.5,0-0.8-0.4-0.8-0.9c0-0.5,0.4-0.9,0.9-0.9
			C204.3,265.6,204.6,266,204.6,266.5z M203.1,276.4v-7.7h1.4v7.7H203.1z"/>
		<path class="st7" d="M206.8,270.8c0-0.8,0-1.5-0.1-2.1h1.2l0.1,1.3h0c0.4-0.7,1.3-1.5,2.6-1.5c1.1,0,2.7,0.6,2.7,3.3v4.6H212v-4.5
			c0-1.2-0.5-2.3-1.8-2.3c-0.9,0-1.6,0.7-1.9,1.4c-0.1,0.2-0.1,0.4-0.1,0.7v4.7h-1.4V270.8z"/>
		<path class="st7" d="M215.7,265h1.4v11.4h-1.4V265z"/>
		<path class="st7" d="M220.3,272.8c0,1.9,1.2,2.7,2.7,2.7c1,0,1.6-0.2,2.1-0.4l0.2,1c-0.5,0.2-1.3,0.5-2.6,0.5
			c-2.4,0-3.8-1.6-3.8-3.9s1.4-4.2,3.6-4.2c2.5,0,3.2,2.2,3.2,3.6c0,0.3,0,0.5,0,0.7H220.3z M224.4,271.8c0-0.9-0.4-2.3-2-2.3
			c-1.4,0-2,1.3-2.2,2.3H224.4z"/>
		<path class="st7" d="M229.2,266.4v2.2h2v1.1h-2v4.2c0,1,0.3,1.5,1.1,1.5c0.4,0,0.6,0,0.8-0.1l0.1,1.1c-0.3,0.1-0.7,0.2-1.2,0.2
			c-0.7,0-1.2-0.2-1.5-0.6c-0.4-0.4-0.5-1.1-0.5-2v-4.2h-1.2v-1.1h1.2v-1.9L229.2,266.4z"/>
	</g>
	<g>
		<g>
			<line class="st8" x1="485.9" y1="198.8" x2="560" y2="198.8"/>
			<g>
				<polygon class="st7" points="490.6,204.6 491.5,203.6 486.4,198.8 491.5,194.1 490.6,193 484.3,198.8 				"/>
			</g>
		</g>
	</g>
	<g>
		<path class="st7" d="M574.6,193.2V204h-1.4v-10.8H574.6z"/>
		<path class="st7" d="M577.2,198.3c0-0.8,0-1.5-0.1-2.1h1.2l0.1,1.3h0c0.4-0.7,1.3-1.5,2.6-1.5c1.1,0,2.7,0.6,2.7,3.3v4.6h-1.4
			v-4.5c0-1.2-0.5-2.3-1.8-2.3c-0.9,0-1.6,0.7-1.9,1.4c-0.1,0.2-0.1,0.4-0.1,0.7v4.7h-1.4V198.3z"/>
		<path class="st7" d="M585.8,202.6c0.4,0.3,1.2,0.6,1.9,0.6c1,0,1.5-0.5,1.5-1.2c0-0.7-0.4-1-1.4-1.4c-1.4-0.5-2-1.3-2-2.2
			c0-1.2,1-2.3,2.7-2.3c0.8,0,1.5,0.2,1.9,0.5l-0.4,1c-0.3-0.2-0.9-0.4-1.6-0.4c-0.8,0-1.3,0.5-1.3,1.1c0,0.6,0.5,0.9,1.5,1.3
			c1.3,0.5,2,1.2,2,2.3c0,1.4-1.1,2.3-2.9,2.3c-0.8,0-1.6-0.2-2.2-0.5L585.8,202.6z"/>
		<path class="st7" d="M592.4,198.8c0-1,0-1.8-0.1-2.5h1.3l0.1,1.3h0c0.6-0.9,1.5-1.5,2.8-1.5c1.9,0,3.3,1.6,3.3,3.9
			c0,2.8-1.7,4.2-3.5,4.2c-1,0-1.9-0.4-2.4-1.2h0v4.2h-1.4V198.8z M593.8,200.8c0,0.2,0,0.4,0.1,0.6c0.3,1,1.1,1.6,2.1,1.6
			c1.5,0,2.4-1.2,2.4-3c0-1.6-0.8-2.9-2.3-2.9c-1,0-1.9,0.7-2.1,1.7c0,0.2-0.1,0.4-0.1,0.6V200.8z"/>
		<path class="st7" d="M603,194.1c0,0.5-0.3,0.9-0.9,0.9c-0.5,0-0.8-0.4-0.8-0.9c0-0.5,0.4-0.9,0.9-0.9
			C602.7,193.2,603,193.6,603,194.1z M601.5,204v-7.7h1.4v7.7H601.5z"/>
		<path class="st7" d="M605.2,198.7c0-0.9,0-1.7-0.1-2.4h1.2l0,1.5h0.1c0.4-1,1.2-1.7,2.1-1.7c0.2,0,0.3,0,0.4,0v1.3
			c-0.1,0-0.3,0-0.5,0c-1,0-1.7,0.8-1.9,1.8c0,0.2-0.1,0.4-0.1,0.7v4.1h-1.4V198.7z"/>
		<path class="st7" d="M614.7,204l-0.1-1h0c-0.4,0.6-1.3,1.2-2.4,1.2c-1.6,0-2.4-1.1-2.4-2.2c0-1.9,1.7-2.9,4.7-2.9v-0.2
			c0-0.6-0.2-1.8-1.8-1.8c-0.7,0-1.5,0.2-2,0.6l-0.3-0.9c0.6-0.4,1.6-0.7,2.5-0.7c2.4,0,2.9,1.6,2.9,3.2v2.9c0,0.7,0,1.3,0.1,1.9
			H614.7z M614.4,200c-1.5,0-3.3,0.2-3.3,1.7c0,0.9,0.6,1.3,1.3,1.3c1,0,1.6-0.6,1.9-1.3c0-0.1,0.1-0.3,0.1-0.4V200z"/>
		<path class="st7" d="M619.7,194v2.2h2v1.1h-2v4.2c0,1,0.3,1.5,1.1,1.5c0.4,0,0.6,0,0.8-0.1l0.1,1.1c-0.3,0.1-0.7,0.2-1.2,0.2
			c-0.7,0-1.2-0.2-1.5-0.6c-0.4-0.4-0.5-1.1-0.5-2v-4.2h-1.2v-1.1h1.2v-1.9L619.7,194z"/>
		<path class="st7" d="M630.2,200.1c0,2.9-2,4.1-3.9,4.1c-2.1,0-3.7-1.5-3.7-4c0-2.6,1.7-4.1,3.8-4.1
			C628.7,196.1,630.2,197.7,630.2,200.1z M624.1,200.1c0,1.7,1,3,2.4,3c1.3,0,2.4-1.3,2.4-3c0-1.3-0.7-3-2.3-3
			C624.8,197.1,624.1,198.7,624.1,200.1z"/>
		<path class="st7" d="M632,198.7c0-0.9,0-1.7-0.1-2.4h1.2l0,1.5h0.1c0.4-1,1.2-1.7,2.1-1.7c0.2,0,0.3,0,0.4,0v1.3
			c-0.1,0-0.3,0-0.5,0c-1,0-1.7,0.8-1.9,1.8c0,0.2-0.1,0.4-0.1,0.7v4.1H632V198.7z"/>
		<path class="st7" d="M638.1,196.2l1.7,4.6c0.2,0.5,0.4,1.1,0.5,1.6h0c0.1-0.5,0.3-1.1,0.5-1.6l1.5-4.5h1.5l-2.1,5.5
			c-1,2.7-1.7,4-2.7,4.8c-0.7,0.6-1.4,0.8-1.7,0.9l-0.4-1.2c0.4-0.1,0.8-0.3,1.2-0.7c0.4-0.3,0.9-0.8,1.2-1.6
			c0.1-0.1,0.1-0.3,0.1-0.3s0-0.2-0.1-0.4l-2.9-7.1H638.1z"/>
		<path class="st7" d="M648.6,198.8c0-1,0-1.8-0.1-2.5h1.3l0.1,1.3h0c0.6-0.9,1.5-1.5,2.8-1.5c1.9,0,3.3,1.6,3.3,3.9
			c0,2.8-1.7,4.2-3.5,4.2c-1,0-1.9-0.4-2.4-1.2h0v4.2h-1.4V198.8z M650,200.8c0,0.2,0,0.4,0.1,0.6c0.3,1,1.1,1.6,2.1,1.6
			c1.5,0,2.4-1.2,2.4-3c0-1.6-0.8-2.9-2.3-2.9c-1,0-1.9,0.7-2.1,1.7c0,0.2-0.1,0.4-0.1,0.6V200.8z"/>
		<path class="st7" d="M657.7,198.7c0-0.9,0-1.7-0.1-2.4h1.2l0,1.5h0.1c0.4-1,1.2-1.7,2.1-1.7c0.2,0,0.3,0,0.4,0v1.3
			c-0.1,0-0.3,0-0.5,0c-1,0-1.7,0.8-1.9,1.8c0,0.2-0.1,0.4-0.1,0.7v4.1h-1.4V198.7z"/>
		<path class="st7" d="M663.5,200.4c0,1.9,1.2,2.7,2.7,2.7c1,0,1.6-0.2,2.1-0.4l0.2,1c-0.5,0.2-1.3,0.5-2.6,0.5
			c-2.4,0-3.8-1.6-3.8-3.9s1.4-4.2,3.6-4.2c2.5,0,3.2,2.2,3.2,3.6c0,0.3,0,0.5,0,0.7H663.5z M667.6,199.4c0-0.9-0.4-2.3-2-2.3
			c-1.4,0-2,1.3-2.2,2.3H667.6z"/>
		<path class="st7" d="M670.6,202.6c0.4,0.3,1.2,0.6,1.9,0.6c1,0,1.5-0.5,1.5-1.2c0-0.7-0.4-1-1.4-1.4c-1.4-0.5-2-1.3-2-2.2
			c0-1.2,1-2.3,2.7-2.3c0.8,0,1.5,0.2,1.9,0.5l-0.4,1c-0.3-0.2-0.9-0.4-1.6-0.4c-0.8,0-1.3,0.5-1.3,1.1c0,0.6,0.5,0.9,1.5,1.3
			c1.3,0.5,2,1.2,2,2.3c0,1.4-1.1,2.3-2.9,2.3c-0.8,0-1.6-0.2-2.2-0.5L670.6,202.6z"/>
		<path class="st7" d="M676.9,202.6c0.4,0.3,1.2,0.6,1.9,0.6c1,0,1.5-0.5,1.5-1.2c0-0.7-0.4-1-1.4-1.4c-1.4-0.5-2-1.3-2-2.2
			c0-1.2,1-2.3,2.7-2.3c0.8,0,1.5,0.2,1.9,0.5l-0.4,1c-0.3-0.2-0.9-0.4-1.6-0.4c-0.8,0-1.3,0.5-1.3,1.1c0,0.6,0.5,0.9,1.5,1.3
			c1.3,0.5,2,1.2,2,2.3c0,1.4-1.1,2.3-2.9,2.3c-0.8,0-1.6-0.2-2.2-0.5L676.9,202.6z"/>
		<path class="st7" d="M689.9,201.9c0,0.8,0,1.5,0.1,2.1h-1.2l-0.1-1.3h0c-0.4,0.6-1.2,1.4-2.6,1.4c-1.2,0-2.7-0.7-2.7-3.4v-4.5h1.4
			v4.3c0,1.5,0.4,2.5,1.7,2.5c0.9,0,1.6-0.7,1.9-1.3c0.1-0.2,0.1-0.5,0.1-0.7v-4.8h1.4V201.9z"/>
		<path class="st7" d="M692.2,198.7c0-0.9,0-1.7-0.1-2.4h1.2l0,1.5h0.1c0.4-1,1.2-1.7,2.1-1.7c0.2,0,0.3,0,0.4,0v1.3
			c-0.1,0-0.3,0-0.5,0c-1,0-1.7,0.8-1.9,1.8c0,0.2-0.1,0.4-0.1,0.7v4.1h-1.4V198.7z"/>
		<path class="st7" d="M698.1,200.4c0,1.9,1.2,2.7,2.7,2.7c1,0,1.6-0.2,2.1-0.4l0.2,1c-0.5,0.2-1.3,0.5-2.6,0.5
			c-2.4,0-3.8-1.6-3.8-3.9s1.4-4.2,3.6-4.2c2.5,0,3.2,2.2,3.2,3.6c0,0.3,0,0.5,0,0.7H698.1z M702.2,199.4c0-0.9-0.4-2.3-2-2.3
			c-1.4,0-2,1.3-2.2,2.3H702.2z"/>
		<path class="st7" d="M578.7,222.9c-0.4,0.2-1.2,0.4-2.2,0.4c-2.3,0-3.9-1.6-3.9-4c0-2.4,1.6-4.1,4.2-4.1c0.8,0,1.6,0.2,2,0.4
			l-0.3,1.1c-0.3-0.2-0.9-0.4-1.6-0.4c-1.8,0-2.7,1.3-2.7,2.9c0,1.8,1.2,2.9,2.7,2.9c0.8,0,1.3-0.2,1.7-0.4L578.7,222.9z"/>
		<path class="st7" d="M587.3,219.3c0,2.9-2,4.1-3.9,4.1c-2.1,0-3.7-1.5-3.7-4c0-2.6,1.7-4.1,3.8-4.1
			C585.7,215.3,587.3,216.9,587.3,219.3z M581.1,219.3c0,1.7,1,3,2.4,3c1.3,0,2.4-1.3,2.4-3c0-1.3-0.7-3-2.3-3
			C581.8,216.3,581.1,217.9,581.1,219.3z"/>
		<path class="st7" d="M589,217.5c0-0.8,0-1.5-0.1-2.1h1.2l0.1,1.3h0c0.4-0.7,1.3-1.5,2.6-1.5c1.1,0,2.7,0.6,2.7,3.3v4.6h-1.4v-4.5
			c0-1.2-0.5-2.3-1.8-2.3c-0.9,0-1.6,0.7-1.9,1.4c-0.1,0.2-0.1,0.4-0.1,0.7v4.7H589V217.5z"/>
		<path class="st7" d="M599.5,213.2v2.2h2v1.1h-2v4.2c0,1,0.3,1.5,1.1,1.5c0.4,0,0.6,0,0.8-0.1l0.1,1.1c-0.3,0.1-0.7,0.2-1.2,0.2
			c-0.7,0-1.2-0.2-1.5-0.6c-0.4-0.4-0.5-1.1-0.5-2v-4.2H597v-1.1h1.2v-1.9L599.5,213.2z"/>
		<path class="st7" d="M603.1,217.9c0-0.9,0-1.7-0.1-2.4h1.2l0,1.5h0.1c0.4-1,1.2-1.7,2.1-1.7c0.2,0,0.3,0,0.4,0v1.3
			c-0.1,0-0.3,0-0.5,0c-1,0-1.7,0.8-1.9,1.8c0,0.2-0.1,0.4-0.1,0.7v4.1h-1.4V217.9z"/>
		<path class="st7" d="M615.2,219.3c0,2.9-2,4.1-3.9,4.1c-2.1,0-3.7-1.5-3.7-4c0-2.6,1.7-4.1,3.8-4.1
			C613.7,215.3,615.2,216.9,615.2,219.3z M609.1,219.3c0,1.7,1,3,2.4,3c1.3,0,2.4-1.3,2.4-3c0-1.3-0.7-3-2.3-3
			C609.8,216.3,609.1,217.9,609.1,219.3z"/>
		<path class="st7" d="M617,211.8h1.4v11.4H617V211.8z"/>
	</g>
	<g>
		<g>
			<line class="st8" x1="484.9" y1="279.9" x2="560" y2="279.9"/>
			<g>
				<polygon class="st7" points="489.6,285.7 490.5,284.7 485.4,279.9 490.5,275.2 489.6,274.2 483.3,279.9 				"/>
			</g>
		</g>
	</g>
	<g>
		<g>
			<line class="st8" x1="314.5" y1="271.3" x2="245.9" y2="271.3"/>
			<g>
				<polygon class="st7" points="309.8,265.5 308.8,266.5 313.9,271.3 308.8,276 309.8,277 316,271.3 				"/>
			</g>
		</g>
	</g>
	<g>
		<g>
			<line class="st8" x1="320" y1="197.3" x2="245.9" y2="197.3"/>
			<g>
				<polygon class="st7" points="315.3,191.5 314.3,192.5 319.5,197.3 314.3,202.1 315.3,203.1 321.5,197.3 				"/>
			</g>
		</g>
	</g>
	<g>
		<path class="st7" d="M581.4,284.7c-0.6,0.2-1.9,0.6-3.3,0.6c-1.6,0-3-0.4-4-1.4c-0.9-0.9-1.5-2.3-1.5-4c0-3.2,2.2-5.6,5.8-5.6
			c1.2,0,2.2,0.3,2.7,0.5l-0.3,1.1c-0.6-0.3-1.3-0.5-2.4-0.5c-2.6,0-4.3,1.6-4.3,4.3c0,2.7,1.6,4.4,4.2,4.4c0.9,0,1.5-0.1,1.9-0.3
			v-3.2h-2.2v-1.1h3.6V284.7z"/>
		<path class="st7" d="M587.9,285.1l-0.1-1h0c-0.4,0.6-1.3,1.2-2.4,1.2c-1.6,0-2.4-1.1-2.4-2.2c0-1.9,1.7-2.9,4.7-2.9V280
			c0-0.6-0.2-1.8-1.8-1.8c-0.7,0-1.5,0.2-2,0.6l-0.3-0.9c0.6-0.4,1.6-0.7,2.5-0.7c2.4,0,2.9,1.6,2.9,3.2v2.9c0,0.7,0,1.3,0.1,1.9
			H587.9z M587.7,281.2c-1.5,0-3.3,0.2-3.3,1.7c0,0.9,0.6,1.3,1.3,1.3c1,0,1.6-0.6,1.9-1.3c0-0.1,0.1-0.3,0.1-0.4V281.2z"/>
		<path class="st7" d="M591.2,283.7c0.4,0.3,1.2,0.6,1.9,0.6c1,0,1.5-0.5,1.5-1.2c0-0.7-0.4-1-1.4-1.4c-1.4-0.5-2-1.3-2-2.2
			c0-1.2,1-2.3,2.7-2.3c0.8,0,1.5,0.2,1.9,0.5l-0.4,1c-0.3-0.2-0.9-0.4-1.6-0.4c-0.8,0-1.3,0.5-1.3,1.1c0,0.6,0.5,0.9,1.5,1.3
			c1.3,0.5,2,1.2,2,2.3c0,1.4-1.1,2.3-2.9,2.3c-0.8,0-1.6-0.2-2.2-0.5L591.2,283.7z"/>
		<path class="st7" d="M608.1,281.2c0,2.9-2,4.1-3.9,4.1c-2.1,0-3.7-1.5-3.7-4c0-2.6,1.7-4.1,3.8-4.1
			C606.6,277.2,608.1,278.8,608.1,281.2z M601.9,281.3c0,1.7,1,3,2.4,3c1.3,0,2.4-1.3,2.4-3c0-1.3-0.7-3-2.3-3
			C602.7,278.3,601.9,279.8,601.9,281.3z"/>
		<path class="st7" d="M616.3,283c0,0.8,0,1.5,0.1,2.1h-1.2l-0.1-1.3h0c-0.4,0.6-1.2,1.4-2.6,1.4c-1.2,0-2.7-0.7-2.7-3.4v-4.5h1.4
			v4.3c0,1.5,0.4,2.5,1.7,2.5c0.9,0,1.6-0.7,1.9-1.3c0.1-0.2,0.1-0.5,0.1-0.7v-4.8h1.4V283z"/>
		<path class="st7" d="M620.4,275.2v2.2h2v1.1h-2v4.2c0,1,0.3,1.5,1.1,1.5c0.4,0,0.6,0,0.8-0.1l0.1,1.1c-0.3,0.1-0.7,0.2-1.2,0.2
			c-0.7,0-1.2-0.2-1.5-0.6c-0.4-0.4-0.5-1.1-0.5-2v-4.2h-1.2v-1.1h1.2v-1.9L620.4,275.2z"/>
		<path class="st7" d="M624,273.8h1.4v11.4H624V273.8z"/>
		<path class="st7" d="M628.5,281.5c0,1.9,1.2,2.7,2.7,2.7c1,0,1.6-0.2,2.1-0.4l0.2,1c-0.5,0.2-1.3,0.5-2.6,0.5
			c-2.4,0-3.8-1.6-3.8-3.9s1.4-4.2,3.6-4.2c2.5,0,3.2,2.2,3.2,3.6c0,0.3,0,0.5,0,0.7H628.5z M632.7,280.5c0-0.9-0.4-2.3-2-2.3
			c-1.4,0-2,1.3-2.2,2.3H632.7z"/>
		<path class="st7" d="M637.5,275.2v2.2h2v1.1h-2v4.2c0,1,0.3,1.5,1.1,1.5c0.4,0,0.6,0,0.8-0.1l0.1,1.1c-0.3,0.1-0.7,0.2-1.2,0.2
			c-0.7,0-1.2-0.2-1.5-0.6c-0.4-0.4-0.5-1.1-0.5-2v-4.2h-1.2v-1.1h1.2v-1.9L637.5,275.2z"/>
	</g>
	<g>
		<g>
			<line class="st8" x1="415.9" y1="138.8" x2="560" y2="138.8"/>
			<g>
				<polygon class="st7" points="420.6,144.6 421.5,143.6 416.4,138.8 421.5,134.1 420.6,133 414.3,138.8 				"/>
			</g>
		</g>
	</g>
	<g>
		<path class="st7" d="M573.2,133.3c0.7-0.1,1.6-0.2,2.7-0.2c1.4,0,2.4,0.3,3,0.9c0.6,0.5,0.9,1.3,0.9,2.3c0,1-0.3,1.7-0.8,2.3
			c-0.7,0.8-1.9,1.2-3.3,1.2c-0.4,0-0.8,0-1.1-0.1v4.3h-1.4V133.3z M574.6,138.5c0.3,0.1,0.7,0.1,1.2,0.1c1.7,0,2.7-0.8,2.7-2.3
			c0-1.4-1-2.1-2.5-2.1c-0.6,0-1.1,0-1.3,0.1V138.5z"/>
		<path class="st7" d="M581.4,138.7c0-0.9,0-1.7-0.1-2.4h1.2l0,1.5h0.1c0.4-1,1.2-1.7,2.1-1.7c0.2,0,0.3,0,0.4,0v1.3
			c-0.1,0-0.3,0-0.5,0c-1,0-1.7,0.8-1.9,1.8c0,0.2-0.1,0.4-0.1,0.7v4.1h-1.4V138.7z"/>
		<path class="st7" d="M587.3,140.4c0,1.9,1.2,2.7,2.7,2.7c1,0,1.6-0.2,2.1-0.4l0.2,1c-0.5,0.2-1.3,0.5-2.6,0.5
			c-2.4,0-3.8-1.6-3.8-3.9s1.4-4.2,3.6-4.2c2.5,0,3.2,2.2,3.2,3.6c0,0.3,0,0.5,0,0.7H587.3z M591.4,139.4c0-0.9-0.4-2.3-2-2.3
			c-1.4,0-2,1.3-2.2,2.3H591.4z"/>
		<path class="st7" d="M594.3,142.6c0.4,0.3,1.2,0.6,1.9,0.6c1,0,1.5-0.5,1.5-1.2c0-0.7-0.4-1-1.4-1.4c-1.4-0.5-2-1.3-2-2.2
			c0-1.2,1-2.3,2.7-2.3c0.8,0,1.5,0.2,1.9,0.5l-0.4,1c-0.3-0.2-0.9-0.4-1.6-0.4c-0.8,0-1.3,0.5-1.3,1.1c0,0.6,0.5,0.9,1.5,1.3
			c1.3,0.5,2,1.2,2,2.3c0,1.4-1.1,2.3-2.9,2.3c-0.8,0-1.6-0.2-2.2-0.5L594.3,142.6z"/>
		<path class="st7" d="M600.7,142.6c0.4,0.3,1.2,0.6,1.9,0.6c1,0,1.5-0.5,1.5-1.2c0-0.7-0.4-1-1.4-1.4c-1.4-0.5-2-1.3-2-2.2
			c0-1.2,1-2.3,2.7-2.3c0.8,0,1.5,0.2,1.9,0.5l-0.4,1c-0.3-0.2-0.9-0.4-1.6-0.4c-0.8,0-1.3,0.5-1.3,1.1c0,0.6,0.5,0.9,1.5,1.3
			c1.3,0.5,2,1.2,2,2.3c0,1.4-1.1,2.3-2.9,2.3c-0.8,0-1.6-0.2-2.2-0.5L600.7,142.6z"/>
		<path class="st7" d="M613.7,141.9c0,0.8,0,1.5,0.1,2.1h-1.2l-0.1-1.3h0c-0.4,0.6-1.2,1.4-2.6,1.4c-1.2,0-2.7-0.7-2.7-3.4v-4.5h1.4
			v4.3c0,1.5,0.4,2.5,1.7,2.5c0.9,0,1.6-0.7,1.9-1.3c0.1-0.2,0.1-0.5,0.1-0.7v-4.8h1.4V141.9z"/>
		<path class="st7" d="M616,138.7c0-0.9,0-1.7-0.1-2.4h1.2l0,1.5h0.1c0.4-1,1.2-1.7,2.1-1.7c0.2,0,0.3,0,0.4,0v1.3
			c-0.1,0-0.3,0-0.5,0c-1,0-1.7,0.8-1.9,1.8c0,0.2-0.1,0.4-0.1,0.7v4.1H616V138.7z"/>
		<path class="st7" d="M621.9,140.4c0,1.9,1.2,2.7,2.7,2.7c1,0,1.6-0.2,2.1-0.4l0.2,1c-0.5,0.2-1.3,0.5-2.6,0.5
			c-2.4,0-3.8-1.6-3.8-3.9s1.4-4.2,3.6-4.2c2.5,0,3.2,2.2,3.2,3.6c0,0.3,0,0.5,0,0.7H621.9z M626,139.4c0-0.9-0.4-2.3-2-2.3
			c-1.4,0-2,1.3-2.2,2.3H626z"/>
		<path class="st7" d="M639.2,136.2c0,0.6-0.1,1.2-0.1,2.1v4.5c0,1.8-0.4,2.9-1.1,3.5c-0.8,0.7-1.8,0.9-2.8,0.9
			c-0.9,0-2-0.2-2.6-0.6l0.4-1.1c0.5,0.3,1.3,0.6,2.3,0.6c1.4,0,2.5-0.8,2.5-2.7v-0.9h0c-0.4,0.7-1.3,1.3-2.5,1.3
			c-1.9,0-3.3-1.6-3.3-3.8c0-2.6,1.7-4.1,3.5-4.1c1.3,0,2.1,0.7,2.4,1.3h0l0.1-1.2H639.2z M637.7,139.3c0-0.2,0-0.4-0.1-0.6
			c-0.3-0.8-0.9-1.5-2-1.5c-1.3,0-2.3,1.1-2.3,2.9c0,1.5,0.8,2.8,2.3,2.8c0.9,0,1.6-0.5,2-1.4c0.1-0.2,0.1-0.5,0.1-0.8V139.3z"/>
		<path class="st7" d="M647.9,141.9c0,0.8,0,1.5,0.1,2.1h-1.2l-0.1-1.3h0c-0.4,0.6-1.2,1.4-2.6,1.4c-1.2,0-2.7-0.7-2.7-3.4v-4.5h1.4
			v4.3c0,1.5,0.4,2.5,1.7,2.5c0.9,0,1.6-0.7,1.9-1.3c0.1-0.2,0.1-0.5,0.1-0.7v-4.8h1.4V141.9z"/>
		<path class="st7" d="M654.5,144l-0.1-1h0c-0.4,0.6-1.3,1.2-2.4,1.2c-1.6,0-2.4-1.1-2.4-2.2c0-1.9,1.7-2.9,4.7-2.9v-0.2
			c0-0.6-0.2-1.8-1.8-1.8c-0.7,0-1.5,0.2-2,0.6l-0.3-0.9c0.6-0.4,1.6-0.7,2.5-0.7c2.4,0,2.9,1.6,2.9,3.2v2.9c0,0.7,0,1.3,0.1,1.9
			H654.5z M654.3,140c-1.5,0-3.3,0.2-3.3,1.7c0,0.9,0.6,1.3,1.3,1.3c1,0,1.6-0.6,1.9-1.3c0-0.1,0.1-0.3,0.1-0.4V140z"/>
		<path class="st7" d="M664.6,136.2c0,0.6-0.1,1.2-0.1,2.1v4.5c0,1.8-0.4,2.9-1.1,3.5c-0.8,0.7-1.8,0.9-2.8,0.9
			c-0.9,0-2-0.2-2.6-0.6l0.4-1.1c0.5,0.3,1.3,0.6,2.3,0.6c1.4,0,2.5-0.8,2.5-2.7v-0.9h0c-0.4,0.7-1.3,1.3-2.5,1.3
			c-1.9,0-3.3-1.6-3.3-3.8c0-2.6,1.7-4.1,3.5-4.1c1.3,0,2.1,0.7,2.4,1.3h0l0.1-1.2H664.6z M663.2,139.3c0-0.2,0-0.4-0.1-0.6
			c-0.3-0.8-0.9-1.5-2-1.5c-1.3,0-2.3,1.1-2.3,2.9c0,1.5,0.8,2.8,2.3,2.8c0.9,0,1.6-0.5,2-1.4c0.1-0.2,0.1-0.5,0.1-0.8V139.3z"/>
		<path class="st7" d="M667.7,140.4c0,1.9,1.2,2.7,2.7,2.7c1,0,1.6-0.2,2.1-0.4l0.2,1c-0.5,0.2-1.3,0.5-2.6,0.5
			c-2.4,0-3.8-1.6-3.8-3.9s1.4-4.2,3.6-4.2c2.5,0,3.2,2.2,3.2,3.6c0,0.3,0,0.5,0,0.7H667.7z M671.8,139.4c0-0.9-0.4-2.3-2-2.3
			c-1.4,0-2,1.3-2.2,2.3H671.8z"/>
	</g>
	<g>
	</g>
	<g>
	</g>
	<g>
	</g>
	<g>
	</g>
	<g>
	</g>
	<g>
	</g>
	<g>
	</g>
</g>
</svg>
