<?xml version="1.0" encoding="utf-8"?>
<!-- Generator: Adobe Illustrator 15.1.0, SVG Export Plug-In . SVG Version: 6.00 Build 0)  -->
<!DOCTYPE svg PUBLIC "-//W3C//DTD SVG 1.1//EN" "http://www.w3.org/Graphics/SVG/1.1/DTD/svg11.dtd">
<svg version="1.1" id="Layer_1" xmlns="http://www.w3.org/2000/svg" xmlns:xlink="http://www.w3.org/1999/xlink" x="0px" y="0px"
	 width="326.984px" height="392.417px" viewBox="-58.29 -72.019 326.984 392.417"
	 enable-background="new -58.29 -72.019 326.984 392.417" xml:space="preserve">
<metadata><?xpacket begin="﻿" id="W5M0MpCehiHzreSzNTczkc9d"?>
<x:xmpmeta xmlns:x="adobe:ns:meta/" x:xmptk="Adobe XMP Core 5.0-c060 61.134777, 2010/02/12-17:32:00        ">
   <rdf:RDF xmlns:rdf="http://www.w3.org/1999/02/22-rdf-syntax-ns#">
      <rdf:Description rdf:about=""
            xmlns:dc="http://purl.org/dc/elements/1.1/">
         <dc:format>image/svg+xml</dc:format>
         <dc:title>
            <rdf:Alt>
               <rdf:li xml:lang="x-default">Print</rdf:li>
            </rdf:Alt>
         </dc:title>
      </rdf:Description>
      <rdf:Description rdf:about=""
            xmlns:xmp="http://ns.adobe.com/xap/1.0/"
            xmlns:xmpGImg="http://ns.adobe.com/xap/1.0/g/img/">
         <xmp:MetadataDate>2014-07-09T21:40:39+02:00</xmp:MetadataDate>
         <xmp:ModifyDate>2014-07-09T21:40:39+02:00</xmp:ModifyDate>
         <xmp:CreateDate>2014-07-09T21:40:39+02:00</xmp:CreateDate>
         <xmp:CreatorTool>Adobe Illustrator CS5</xmp:CreatorTool>
         <xmp:Thumbnails>
            <rdf:Alt>
               <rdf:li rdf:parseType="Resource">
                  <xmpGImg:width>216</xmpGImg:width>
                  <xmpGImg:height>256</xmpGImg:height>
                  <xmpGImg:format>JPEG</xmpGImg:format>
                  <xmpGImg:image>/9j/4AAQSkZJRgABAgEBLAEsAAD/7QAsUGhvdG9zaG9wIDMuMAA4QklNA+0AAAAAABABLAAAAAEA&#xA;AQEsAAAAAQAB/+4ADkFkb2JlAGTAAAAAAf/bAIQABgQEBAUEBgUFBgkGBQYJCwgGBggLDAoKCwoK&#xA;DBAMDAwMDAwQDA4PEA8ODBMTFBQTExwbGxscHx8fHx8fHx8fHwEHBwcNDA0YEBAYGhURFRofHx8f&#xA;Hx8fHx8fHx8fHx8fHx8fHx8fHx8fHx8fHx8fHx8fHx8fHx8fHx8fHx8fHx8f/8AAEQgBAADYAwER&#xA;AAIRAQMRAf/EAaIAAAAHAQEBAQEAAAAAAAAAAAQFAwIGAQAHCAkKCwEAAgIDAQEBAQEAAAAAAAAA&#xA;AQACAwQFBgcICQoLEAACAQMDAgQCBgcDBAIGAnMBAgMRBAAFIRIxQVEGE2EicYEUMpGhBxWxQiPB&#xA;UtHhMxZi8CRygvElQzRTkqKyY3PCNUQnk6OzNhdUZHTD0uIIJoMJChgZhJRFRqS0VtNVKBry4/PE&#xA;1OT0ZXWFlaW1xdXl9WZ2hpamtsbW5vY3R1dnd4eXp7fH1+f3OEhYaHiImKi4yNjo+Ck5SVlpeYmZ&#xA;qbnJ2en5KjpKWmp6ipqqusra6voRAAICAQIDBQUEBQYECAMDbQEAAhEDBCESMUEFURNhIgZxgZEy&#xA;obHwFMHR4SNCFVJicvEzJDRDghaSUyWiY7LCB3PSNeJEgxdUkwgJChgZJjZFGidkdFU38qOzwygp&#xA;0+PzhJSktMTU5PRldYWVpbXF1eX1RlZmdoaWprbG1ub2R1dnd4eXp7fH1+f3OEhYaHiImKi4yNjo&#xA;+DlJWWl5iZmpucnZ6fkqOkpaanqKmqq6ytrq+v/aAAwDAQACEQMRAD8A9U4q7FXYq7FXYq7FXYql&#xA;vl3Vzq+jwXzxehOxkiurcNyEdxBI0M8Yai8uEsbLWm+KplirsVdirFm1bWPMd1Lb6BP9Q0a3dobn&#xA;XuKSSTSRni8dijho/gYFXmkVl5DiqtuVVREflK4tLq2utO1q/jljkU3kd3NJew3MVf3iNFK1ImK/&#xA;YaHhxahIYVUqoceRdPS1aa+1TUZNS3ln1f67PA4f7RKxo6wRxr2j4cKdQdyVUP5L84pqGr3/AJff&#xA;UrbW5tPiS4i1iyaNklhkZowtwsX7uO4RkIYL8LD4lC7qqrMcVdirsVWXE8VvBJPK3GKJWeRvBVFS&#xA;fuxVJfIUMsHkby7DMOMsWl2SSL4MtugI798VT3FXYq7FXYq7FXYq7FXYq7FXYq7FXYq7FXYqxewb&#xA;9C+crzTXASw8wV1DT36AXkSBLyAdhzREnUdWPqntirKMVdirsVedaj5O8v6Drd5qUukF9H1Ob6zL&#xA;faakkN5Y3LD967taFJ3glYc+S1MblifgaqKpzpej2N9arc+XfNt+1i32Xt7q21FCD/xbeRXr/wDD&#xA;4ql2qWnkOxuRb6k83mjXB8UGkzzNqM7OCKMlmzfV4aGlZeCKv7TAYqn/AJV0e+tVutS1VY01fUih&#xA;mhhPKK2ghUrb2kbUHJYgzEtQcnZiAAQAqn2KuxV2Ksc/MCSR/LkukwEi71510m34mjj63VZpF94b&#xA;cSzf7DFWRIiIioihUUAKoFAANgABireKuxV2KuxV2KuxV2KuxV2KuxV2KuxV2KuxVLPMehprOmm2&#xA;EptruJ1uNPvVFXt7mI1ilUd6HZl6MpKnYnFVHy1r02pQy2uoQCy1ywIj1KyBqoY14zQk7vBLQmN/&#xA;mpoysoVTnFXYq7FUn1Dyb5Q1K4a51HQ9PvblvtTXFrDK57bs6scVRum6RpOlwfV9MsoLGCtfStok&#xA;hSvjxQKMVRYIIqDUbjbxGxxV2KuxVL9Z8waNo0Ky6ldJB6h4wRbtNK/8kMS8pJXPZUUnFUp0Ow1P&#xA;U9X/AMSazbm0McbQaJpb0MlvDIR6k89CV9efivwj+7Uca1L4qybFXYq7FXYq7FXYq7FXYq7FXYq7&#xA;FXYq7FXYq7FXYqkvmPQNPv0TUJLiTTdQ09Ha21eAhZYEIDSBuQZHibiC8cilTQGlQCFUts/MHmq0&#xA;s4bi+0z9NWEsaSRalpQ9OYxuvIPNYXLJIm37Mckjf5IxVNdI83eXdWnNtZ3ii+UcpNPuFe2vEHi9&#xA;tOscyj3KUxVF6vZ3d5p0tvZ3bWF23FoLtFD8HRg68kJHNCVo61HJaio64qlEeu+bLYCG/wDLU11O&#xA;o3udLuLR7d/cC8ms5VJ68eJp05HriqnNceedXBgtbRPLdo4pJe3UkV1fKP8Aim3hMtsreDvMwB/3&#xA;W2Kp5pWl2WlafDYWSFLeAELyZndixLM7uxLM7sSzMTUk1OKoLU/OHlrTbn6nc3yNf9Rp9uHubsjx&#xA;FtAJJiP9hiqV32p+eNYtpYtBsF0RHRgmqaqFeYEr8LQ2UbNv7zunE9UYbYqv8g6Ro40LT9fii9fV&#xA;dYtILu81W4CvdzGeNZKPKAvwjlRUWiKNlUDFWU4q7FXYq7FXYq7FXYq7FXYq7FXYq7FXYq7FXYq7&#xA;FXYqx/8AMM8fIHmZq0ppV8a+H+jPirIAAoAAoBsAOgGKoHV9C0fWLdbfVLOK8iRucYlUEo46PG32&#xA;kYdmUgjFUnTy/wCZdK/44esG5tF+zpusB7kAfyx3ikXK/wCtN62Kqo1nzfH8Nx5cWSTu1pfRSRfQ&#xA;062r/wDCYq0b/wA93RAttJstPjbYzXt280i+/wBXt4uD/wDI9cVWnyje39G8wa1dXy1qbK0J060r&#xA;X+SBvrDr4rLO6nwxVONK0bSNItRaaVYwWFqDUQW0aRJU9TxQAVxVCeYPNGmaLGiTFrjUbgN9Q0q3&#xA;HqXVy4H2YoxvT+ZzRF6sQN8VS38t7+B/KemaQ/KHVtFs7ay1SwmHGeCaGFUPJe6sVJR1qrjdSRir&#xA;KcVUL2/sbG3a5vriK1tk+3NM6xoPmzEAYqkg/MDypJvZ3Umpp/vzTLW61BOtPt2kU6/jirbefPL6&#xA;DlMmoW8Q3ee40vUoYlHi8sluqIPdjiqcabqmmapaJe6bdw3tnJ/d3FvIssbfJ0JGKonFXYq7FXYq&#xA;7FXYq7FXYqlOt+adG0eWG3upWkv7kE2unW6PPdSgGhZIYwz8QftORxXuRiqBW9896hvbafaaHAac&#xA;JNRkN5cjbfna2rJEPoujiqoNL86nd9ftQx6iPT6KPkGuHb72OKoPVE/NK0s5G0240fVLgCkaTW9x&#xA;ZsAO9RPOsrf5P7sH+YYqk+lR6R5huhp/m+/urnVSOT+WNRiSxtSRTkY7WMul5HUdWnnQHvXFU9h8&#xA;s69pEYh8u6uqWKCkOmanE13FEo6RwTJJBOi+HqNIFGwFABirJY/U9NfUAElBzC1K8qb0r2xVdirs&#xA;VdirsVSjVtF1PUboU1m4sNO4BWtbNIkkdqnkWuHWRwCKU9PgR/Niqpo/lnQ9HaWTT7RY7if/AHpv&#xA;HZprmam49a4lLzSU7c2OKpF52by0bu35PcDzVGhGmDSKHUwjHcUIaP0Cw+L6yPRrQt2xV2laH59v&#xA;7SH/ABJri2gBLNZ6TCIZWWp4rcXTtLybjTl6CRfF0JGKppYeSPK1ncLdLYLc3ybrf3zSXt0PlcXT&#xA;TSgewbFU8xV2Ksf1TyfaTXcmqaRKdG116F9Qt1BWYjot3BVUuF7fF8YH2HU74q7RvM8sl8ui67Au&#xA;na9RjFGGLW92ibtLaSEDmAN3jPxp3HGjMqyDFXYq7FXYq7FXYqxSbXdV8xTPZeV5Rb6dGzR3nmRl&#xA;EiBlPForFG+GaQGoMrfu0PZzVQqnGh+W9J0WOUWUR+sXBD3l7KxlubhwKc5pnq7nwqaAbAAbYqme&#xA;KuxV2KoTVNJ0vVbRrPU7SG9tWIYwzosi8l+ywDA0Ydj1GKpKPKur6eD/AIf1ye3j/YsdSU6lbL40&#xA;LvFdj2H1jiOy4qv/AEl56tjS50WzvUH+7bG9KyMfH0LiGNU+XrNiqItNf1ae5jhl8talaxuwVriW&#xA;TTjGgP7TCK8keg/yVJxVOsVdiq2QuI2Ma83AJVCaAmmwrvTFWP8Ar/mDcfCLLStOU9Jnubi+YAjb&#xA;lCsFmKjuBL9OKrW8ra1ff8dnzFdSRk1e00xRpsJH+uhlvF/2NyMVTbSNC0bR4Gg0uzitEkbnMY1A&#xA;aR+heV/tSOe7MSTiqOxV2KuxV2KuxVA61omm6zYmy1CL1IuSyRsrMkkcqGqSxSIQ8ciHdWUgjFUi&#xA;g1vUvLk8dh5mm9fT5XEVh5j4hFJYgJDfBaLFKa0WQUjc/wAjEKVWV4q7FXYqtkkjijaSRgkaAs7s&#xA;QFVQKkknoBirECbvzsaI0lr5MPE+opaObVARWikFWjsz4/am9o/7xVl0EEFvBHBBGsUEShIokAVE&#xA;RRRVVRsABsAMVX4q7FXYq7FXYq7FXYq7FXYq7FXYq7FXYq7FXYq7FXYq7FXYq7FVlxbwXEElvcRr&#xA;NBKpSWKRQyMrChVlNQQR2xViv1DW/Kh5aTHLq3lsU5aTy53lmvc2juf30Q/3y55KP7tj8MeKsh0j&#xA;WdM1iyW9024W5tyShZahkddmjkRgGR1OzIwDA9Riqte3tnY2k15ezJbWlujST3ErBERFFWZmNAAB&#xA;irFks73zjIJtThktPKY3t9KmUxzX7BqrLdoQGSD4QUgO71/eCnwYqy8AAUGwHQYq7FXYq7FXYq7F&#xA;XYq7FXYq7FXYq7FXYq7FXYq7FXYq7FXYq7FXYq7FXYq7FUCmh6THqz6vFbJFqUsfpT3MdUaVBTiJ&#xA;eJAk40+EuDx3pSpxVJrXy9qWr3kWp+aTGVgf1NP0KFi9rAw+zLOxC/WJx1BI4IfsDkOZVZPirsVd&#xA;irsVQl9rGk6e8SX97b2jzkiBZ5UjLkbkIHI5U9sVRYIIqNwehxV2KuxV2KuxV2KuxV2KuxV2KuxV&#xA;2KuxV2KpCvmG8vtcfTtHtlmtLGQR6tqczFYUfYtbwBQTLMAfj6KnclqqFU+xV2KuxV2KuxV2KuxV&#xA;2KuxV2KuxVRubOzul43MEc60I4yIrijdRRgetMVYpPYxeS7y2u9MBh8r3U0drqGlr/cWclw4jhub&#xA;ZekUfqsqyxrRKN6gAKtyVZjirsVdirsVdirsVdirsVdirsVdirsVSDz75iPl7ynf6mkixXKqkFm7&#xA;qXUXNy6wQEoKlgJJFJA3piqV+XrfzUmkWljotpBoul26cYrnV0kub2ck1aaW1hktxG0zEyMzzcyT&#xA;8SKajFUxaw8/RDlFrOnXBG5jn0+VOR8FkjuvgB90bFVM+cLnTGCeadOOkxE0GqxSfWtO/wBnOFjk&#xA;g26tNEidgxOKslVlZQykMrCqsNwQe4xVvFXYq7FXYq7FXYq7FWO6p5jvZ7+XRfLcUd1qcJAvrybk&#xA;bOx5AMPWKkGSYqQywIQaULMikMVVsXkTS5v3utzXGuXrD95NeSt6QP8AxVbRlLeIDoOKcqfaZjvi&#xA;qVea/wAv7p/L2qWnli8ltGvbWaB9LuJZJrKUSRlKIJC72rivwNCQoO7I+Ksq0DU11XQtN1Racb+1&#xA;hulp0pNGrjr/AK2Ko/FWH6d+ZGkNZrPrF1Y6XLBAF1SxluT9bt75SBJbi3ZFeRa19Nhu+3FSGBxV&#xA;l0UiyxJIoYK6hgGVkahFd1YBlPsRXFV2KuxV2KuxV2KpV5g1xtJt1kFndXIkDgS20El0sbgfB6sV&#xA;uJLjix7pG1O9MVQ3l7zN+lpEgjt7iQRwc7rUntJ7K2M1QvpxJdBZHr8R+HkFpRjU0xVPsVYd+YGp&#xA;abZal5WbVA36Oj1J7maQRPMiNBaTek8oQMURJHV+ZFF4gkgb4qy23uLe5gjuLaVJreZQ8M0bB0dG&#xA;FVZWFQQR0IxVUxVplVlKsAysKMp3BB7HFWJT6bd+US17okTT+XRV77QYwWNspILT2CipCqKl7YbH&#xA;rHRvhdVlFle2l9Zw3tnMlxaXKLLbzxsGR0cVVlYbEEHFVbFXYq7FXYq4kAVOwHU4qxKTWNR80yPa&#xA;eXpmtNDVjHeeYkpylps0WnVqG32a4IKr0Tk1SirItJ0jTdIsIrDToFt7WEfAgJJJO7M7MSzux3Zm&#xA;JZjuTXFUXirsVY9+XnA+R9EMZBi+qR+iRuvp0/d8f8njTj7YqyHFVjW8DTLM0amZBRJCoLAHsD17&#xA;4qgtc1yy0ayF1dB5GkdYba2hXnNPM/2Iok25M1PkBVmIUEhVjWh2+p+bPrepa1Ldadaw3U9pZaRY&#xA;3ctuEFs5hkknuLVopJZGkVgVD+mtKAEgsVUdZPqmha7a6TdXUuo6Rqnqrp9zckNcW9xEhl+rO4A9&#xA;VHiR3Rm+McCGLVHFVF+aNQ1OL6hpmlSLb3+rTmBbx1Di3ijjaaWUIdnfgnFAduRBIKgjFVBPIPl5&#xA;gHvPrWoXXVru7u7iSXltVko6pFWnSJVXwAxVjNveat5P8y6tHLfXF95Xhe1uLiC8lkuZbK2vVMKT&#xA;x3EzPI0cdxby+qjMeKEMKcG5qvScVdirsVY/rFP8YeXQ/wBjhfFK9PU9OMCnvwL/AEVxVAXthc+U&#xA;7uTVtGt3m0Gdmk1nRoAWaJmYs15ZxCvxVJM0Kj4/tL+8qJFWU2N9Z39nDe2UyXNpcossE8TBkdGF&#xA;VZWGxBGKq2KuxVRs7GzsoPq9nClvBzeT0o1CrzlcySNQd2dyx9ziqtirsVdirsVY5q+hanr+oS2m&#xA;pOIPLEPEGyhYmS/YqGYXDCnCBT8JiXeT9o8PhZVkMcccUaxxqEjQBURQAqqBQAAdAMVXYq0zKqlm&#xA;IVVFWY7AAdzirD41uPO8hkk52/kxdood0k1Qg/bfoy2f8q9Zup/d7SKph+Xaqv5f+WFUAKNJsQAN&#xA;gALZMVZDirsVY1xGofmCwkHKHQLCN4K7r9Z1F5FdqH9uOG2AB/llYd8VVPIXxeW0n7Xd3f3a9acb&#xA;q+nnFK9qSbYql35i6v8Aoq+8nXIh+sV16GF15ceEd1a3No0xJB+GP6wCfuxVMtbHHzZ5blG5Y3kB&#xA;B8Hg9So96wgfTirIMVYx9Stb7zp5hs7qIS211oumwzxt0eOSfUlZT8wcVRXkW5uZ/KmnrdSme8s1&#xA;ewvJm6vPYyNazOa/zSQscVT3FXYqx7zGSnmDypINzJqE8BHgG066lr98IH04qyHFWJTRjylrAuoQ&#xA;E8s6vcBb2EABbK+naiXCAdIrmRuMo7SFX6NIcVZbirsVdirsVdirsVdirsVdirsVYnq4PmnWJfL6&#xA;b6Bp5X/EEgO1zKyh008EfscWD3HipVNwz0VT/V9Qg0nRr3UZAFt9Ptpbhx0ASGMufwXFUP5S06XT&#xA;PKujabNX1bKxtreSvXlFCqGv0riqa4q7FWPeWhy1/wA2SH7Y1KCEH/IXTLRwP+ClbFUjQa/pGn/o&#xA;SSDVLWG2uJ2sdU0dLS7Wa3kkkeGJ47hJniZEdVb90FqPhfjXFUJ5si1vVLJ9avdPk06w0a3LWsF2&#xA;8TXVxM09vIZXS3MkcQWOBkHxknmaqvHdVNfOcGs3Hmvy4mjyRrfWMV9qSQzsyQTrF6Fs8EjIGK80&#xA;vSVbieLANQ0oVV769qB1GK7k0nXo7uNTH+h4ktXtpDQ/EZufob12LTr2qB0xVM/Lenaolzf6xq0c&#xA;cGoam0QFnE3qLbwQKViiMlF5vV3diBQFuIqByKqn5QrFJr1j2s9WuOPh/paR35p9N2cVZDirsVY9&#xA;52/dWOm3o+1Z6rp7Dpss9ylq5322juGJxVkOKqF/Y2moWNxYXkQntLuN4LiFujxyKVZTTxBxVJ/J&#xA;t7cvYT6VfSmbUtDmNjczP9uVFVXt5295oHRmptz5Dtiqf4q7FXYq7FXYq7FXYq7FUq806xLpGgXd&#xA;9boJbwBYbGFtlku7h1gtoyeweaRFPzxVf5c0SLRNGttOSQzyRgvc3TAB57iVjJPO9P2pZWZ29ziq&#xA;S+ftStZYrPyqJaX/AJhuIrUQ0Px2nIy3tGpx/wB5IZR17jxxVlmKuxV2Ksf8pn1LrzFc9frGrSfF&#xA;0B9C3gtth7ehTFWQYqx/8wajyPrknUQWU07DxWFDIwHvRdsVdP8AF5/suW/o6TdemPD1bm35/f6S&#xA;4qyDFXYqx/yyP9zXm331aL/ulWOKsgxV2KpB+YEUsnkbXvRp9YjsLia2LEACeGMyRMSdhxkRTiqB&#xA;8qaz5r8yRWOr3FsmiaQYxILY/vbi8LLs9XVPQt9+SBl9VtuQjoVZVluKsbuh+j/P1lchuMGuWb2U&#xA;q9jc2TG4t6DxMMtxyP8Akr4YqyTFXYq7FXYq7FXYq7FXYqxzzF/pnmTy7pIPwLLPqt0h6NFZII0B&#xA;+VzdQuP9TFWR4qlfmXRF1nSZbRZfq12pWewvAOTW91EecMyg9eLjdejLVTsTirXljW21jSUuJohb&#xA;38LNbalaVr6N1CeMsdepXl8SH9pCrd8VTXFXYqx7yFR/Lv1kbre3uoXkbdzHc3000Vf+ebqMVZDi&#xA;rH/zCqfI+uxg09eymgY9aLMhjY/MBtsVdJ/yn9v/ANsqf/qJhxVkGKuxVj/ln/jtebP+2rF/3SrH&#xA;FWQYq7FWM+aydU1DT/KyjlDfcrvV6dBY2zLWJv8AmIlZIyP2o/U8MVZNirsVY/5qHHUPLMw+1Dqw&#xA;4g9P3tlcwn/hZTirIMVdirsVdirsVdirsVdirHNGP13zhr+odY7FbbSYOhHKNDdzsp/yjdoje8eK&#xA;sjxV2KsZuv8AcL5ztrpQFsPMY+qXfYLqFvGXt5Kf8XQRvGzHukSjFWTYql3mTVf0R5e1PVAvJrG1&#xA;muEQblmjjLKoHcsRQDFW/Lul/ojy/pmlcuf6PtILXn4+jGsdfp44qxfzx5f1DUNUtnGm/py12McN&#xA;xaabPFaklQ/CW4mtp4/U4hmKiQ7bdhiqZ+dLWG28lXVlAOEJWG1jqWYqssyRVqxJPHlXc4qq3NU8&#xA;/wCm9xPpN9X29C5s6ff6/wCGKpf558nfpeWPUEU3FxAqRRW6W1nNIAz/ABssl00JVaNVgJBsNqnb&#xA;FU+8u6IuiaTDpy3U956RdjcXL85DzctT2Va8VA6AfTiqB8tGmu+bEOzHU4ZAPFTplmoP/BIw+jFW&#xA;QYq7FWNeUKahe6x5jbcahcGzsm7iy09nhj+Yeczyqe6uMVZLirsVY/5pq2peWIenq6tu3h6VjdTf&#xA;j6VMVZBirsVdirsVdirsVdiq2aWOGJ5pWCRRqXdzsAqipJ+QxVj/AOX8cn+E7K8mThcar6mqToR8&#xA;SvqEjXXpt/xjEoT5LirIsVSzVvMmmaVKsd6LlQy8/VitLqeFRWnxzQxSRp/smGKpTr99pvmTypqD&#xA;eX7231G8tFW7svq0qScby0cXFur8CStZYlDA9qjFWQ6df22oafbX9q3O2u4kngfxjlUOp+44qkXm&#xA;4i+vdG8vKOX1+6W8uwP2bTTmW4Zj7NcehER4OcVZLirsVY956odGtY+rSarpChaVqBqduzCn+orE&#xA;4q3qPwee9DkIqH0/U4AR1DPLZSD6KQnFWQYq7FWKrqFlpX5gXdreXEdsuuWVtLp6yuqetc2skkVy&#xA;qciOTCOW32G+KsqxVinn/wA7aT5f0C+I1SzttYeP0dPhnnjQ/WZ2EMLMrMDwWRwXPZQT2xVvQfNP&#xA;5dabplhoun+YtMeGxgitreMXtuzlIkCL0epNFxVlKOkiB42DowqrKagjxBGKt4qxT8yNStdI0ex1&#xA;y6JFvpWpWc0xCliI5pRayNQfypcFvelNzsVWVI6OiujBkYAqwNQQdwQRireKuxV2KuxV2KuxVj35&#xA;gO3+Er61UlX1P0dLR1NGVtRmSzDAjpx9flirIERERURQqKAFUCgAGwAAxVvFXYqlWq+VfLerTrca&#xA;jptvc3cY4xXbRqJ0B/33MKSJ/sWGKsd4f4LkstJ0m7uNRtpIjFpXlZkWedY4QFX0bpmjaK3i5Lze&#xA;4LgCig1Kriqr5Bj1m9vdc17W3hkvJrptPs1tg3owW1j+7eFC/wATUuzPycgF6A0UBVVVmWKuxVJf&#xA;Mdld3l1oUcMZe3j1JZ71hSiRw280iMRUV/frGvzOKqOvUTzP5Yk6c57qDl487SSXh9Po8v8AY4qy&#xA;DFXYqxT8w9Jt7jTINVls0v10d2nu7GSNZVuLGRTHeQlGDc/3R9VF/akRBiqU6r5MZbSzvdHubnXP&#xA;L0IMzeWJrpnt54JFBX6vKWVpKUBjiuJHhI2ATZgqyfypH5VfSobzy5Z29rZTAgJbwLbFWRirxyRh&#xA;UZHR1KujCqsKHfFU3mhhmjaKaNZYm+0jgMp77g4ql+meWfL2lXU11pmnQWM1wKTm2QQrJvWronFW&#xA;b/KIriqZ4qx38xURvIevs1OUVhcTQk9poYzJCRXuJFUj3xVryKGtdJuNFYknQrubT469RbrSW0X3&#xA;42k0Qr3xVkeKuxV2KuxV2KuxVj3mwB7/AMswOaQzasvq9v7mzuZ4/wDkrEnX9eKshxV2KuxVK/Mm&#xA;uDRtNNwkJu72Z1t9PslPFp7mU0jjB34j9p2p8KBm6DFUNoWhro9vc6lqU4vdauV9TVNR40qEBZYY&#xA;l6pBFUiNPmTVmZiqt8gwvH5L0VpRxuLi0iurrvW4ul9ec/TLIxxVP8VdirCdV17U5fzB0a0s5jHo&#xA;tncvY6nQ0Wa7uLCe6jjPtAkUZ92lX+U4qnXmPUNJtNS8uJfIGnutSMOnuXKCOdrK5+Mgfa5R84wD&#xA;+0w70xVPMVdirsVYv5XX9C6rd+VXNLSNTfaAP+XJ3Cy24/5hJnCimyxvGvY4q7VNOvdE1hvMGjQt&#xA;PbXjouv6XGCxkFAi3kCD/d8QADgCskY7sqgqsoxV2KuxVjXnMi9fSvLqDk+q3SS3I/lsrF1uLhm/&#xA;yXZY4D/xkGKqvlkD9NebffVoq/8AcKscVZBirsVdirsVdirsVYB+YGuah9ftk01I/q3lq5s9U167&#xA;lJISB5DG0EQHWX6u0krE/ZAXb4wQqz/FXYq7FUBdaNb3WsWGpyuxfTknW3g29P1LgIvrdK80RXRT&#xA;Xo7eOKqPmz/lFdZ/5gbn/ky2KorSABpNkBsBBFQf7AYqi8VQWt6ta6PpF5ql1UwWcTzOqirNxFQi&#xA;DuzH4VHc4qxKfSbnR/KOiyXlDqw1ewu9RZNw15qN+kdzxYfsqbtlXwQAdMVWfmxbXciaBPaRNPdW&#xA;t811aQR7vLPZ28l8kKgb/vRaMn04qzxWDKGFaEVFQQd/EHfFW8VdirHfN6/VptE1hNpbHUbe3eg3&#xA;eHUXFi0Z/wAn1J45PmgxVkWKuxV2KuxVJLLSZ7fX9W17Upo6SJHb2IDHhBZQLzbmWCgPJM7s5G3E&#xA;IP2cVSH8u9Wvri+1OTUYUibzCw1/S2Sql7KRI7WOORWLUmihhhMlNv3iilQcVZzirsVdirsVdirs&#xA;VYdY6SutaN5ysnf05NYvL21mbun+jR2aE/8APKJG+X34qyuxN2bK3N4qreGNDcqh5IJOI5hTQVHL&#xA;ptiqtirsVdiriAwIIqDsQehGKuAAFBsB0GKuxVplVhRgCPA79MVSDz3t5dMg2aG80+dP9aG/gkWv&#xA;tVd8VW+dqw2ulX6/bsdWsCprSgupxYyGv/GO6auKsixV2KuxVbLDFKoWVFkUMrhWAI5IwZW37qwB&#xA;Hviq7FXYq7FXYqp3VrbXdtLa3UST21wjRTwSKGR43HFkZTsQwNCDiqQ3YX/lYGjqi7RaRqfKg2UP&#xA;c2HAeG/BvuxVkWKuxV2KuxV2KuxVi3k7ULabXfOFnE4Y2uqoQv8Aky2FsWINNx66yr81IxVlOKux&#xA;V2KuxV2KuxV2KuxVj/nz/lGZ/wDjPZ/9RcWKu/MHbyVrM462ls94Oxra/vxT3/d7YqyDFXYq7FXY&#xA;q7FXYq7FXYq7FWN6GfrvnDzDqI/urMWukQ9wWgRrqZ1+bXixn3jxVkmKuxV2KuxV2KuxVg/kHSZ4&#xA;tS1LVo2T6vd3Gp2t0p/vPVttavZIT06cLl/wxVnGKuxV2KuxV2KuxV2KuxVj3nqh0W1XYltW0cBT&#xA;3pqlsT/woJxVf+YEbyeQ/MkaAs76XeqqjqSbdwAKYqnkciSRrJGeSOAysOhBFQcVXYq7FXYq7FXY&#xA;q7FXYqsuJ4beCS4mYJDCrSSOeiqoqSfkMVSLyFBNH5TsLi4Qx3Woh9Suo26rNfyNdSIf9RpuA9hi&#xA;rIMVdirsVdirsVdirG9Db6h5r1zSHHGO8Mer2P8AKVlUQXKL7pND6jf8ZRirJMVdirsVdirsVdir&#xA;sVdirHvNlZL/AMtWf7Nzqyl/lbWtxdA/8HAuKpprdobzRr+0FSbi2miAXr8cZXb78VUfK12Lzyxp&#xA;F4CCLmyt5gVqB+8iVtq798VTPFXYq7FXYq7FXYq7FWPfmCS3k3VLVdpNRiGmxnfZ9QdbRDt/lTDF&#xA;WQKqqoVQFVRRVGwAHYYq3irsVdirsVdirsVYz53/ANx6WHmhPhbQpS181OunXFI7wMRvxjULcH3i&#xA;GKsmxV2KuxV2KuxV2KuxV2Ksdvybjz5pEHWOysL27kofsyySQQQkj/KQz/dirIsVY9+X1E8nabad&#xA;9NR9Mb/W0+RrNvDvBirIcVdirsVdirsVdirsVY95xAm/Qdgdxeata7eP1Plf/h9Ur/nQqshxV2Ku&#xA;xV2KuxV2KuxVTuLeC5t5bedBLBMjRyxsKqyOKMpHgQcVSTyJcTSeWba1uHMl1pbS6ZcSMas72MrW&#xA;3qt/xlWMSfJsVT/FXYq7FXYq7FXYq7FWOaF/pXm3zJqH7NubTSYx2It4TdswPu9+UPuvtirI8VY7&#xA;5XP1XVfMOlH4RBffXbZP+KL+NZmb/ZXQuPuxVkWKuxV2KuxV2KuxV2Kse1/975m8r29P7q5ur2vt&#xA;HZy2/wD2N4qyHFXYq7FXYq7FXYq7FXYqxzRiLPzl5g0/9m8S01aL/WljNnKq/wCr9SRj7v74qyPF&#xA;XYq7FXYq7FXYqsnniggknmYJDEpeRz0VVFST8hiqReQoJl8rWl1cKUutUMup3CN9pHv5WufTP/GI&#xA;SiP5LirIMVY3rNdN826Tqw2ttRVtI1BuwYkzWUjnwWQSRL/lTDFWSYq7FXYq7FXYq7FXYqx2f99+&#xA;YdkF/wCPDSboy9P+P25t/T+X+8b4qyLFXYq7FXYq7FXYq7FXYqx3XP8ARPNnl3Uf2bk3WkzdgBcR&#xA;C6jdvk9jwX3f3xVkWKuxV2KuxV2KuxVjfn0i50eLQQf3nmG4TTCtSCbeQNJeUI6EWkUtPemKskAA&#xA;FBsB0GKuxVLvMWjR61ol3pjyGFrhP3FwoBaGdCHhmUHblFKquvuMVU/LGstq+jxXMyCG+iLW+pWw&#xA;NfRu4G9OeP8A1Q6kqf2lo3Q4qmuKuxV2KuxV2KuxVjuiH6z5w8y3Y6WwsdLO4pWCFrzp/wBvEYqy&#xA;LFXYq7FXYq7FXYq7FXYqx/z7DM3la8uoEMlzphi1OCNftO9hKt0I1p/vz0uH04qnsM0U8Mc0LiSK&#xA;VQ8bruGVhUEH3GKr8VdirsVdirsVY1an9Keebu53Np5fgFjF4G8vAk9waf8AFcCwBT/luMVZLirs&#xA;VdirFdTP+HPMY1pfh0XWGjt9ZH7MN2KRW14f8lxxglP/ABjOyqxxVlWKuxV2KuxV2KuxVj/lQVvP&#xA;Mch3d9WfmfHha28a/cqAYqyDFXYq7FXYq7FXYq7FXYq4gMCCKg7EHoRiqVeVtIuNG0Cz0maRZRYK&#xA;1vbutf8AeaN2W2DV35CAIG/yq4qmuKuxV2KuxVAa9rEGjaNd6nMjSraxl1hT7crnaOJP8qRyEX3O&#xA;Kofyno8+k6Fb210yyahIXudSmT7L3dy5muGXvx9RyE8FoO2KpvirsVdiqleWlre2k1ndxLPa3CNF&#xA;PBIAyOjjiysD1BBpirHvLVxe6XfP5W1J5JzBGZtG1CQljcWakL6cjnrPb8lV6/bUq/UsFVZNirsV&#xA;dirsVdiqDsNLt7Ga+lhZydQuPrUqsQVV/SjiITYUBEQb/WJxVGYq7FXYq7FX/9k=</xmpGImg:image>
               </rdf:li>
            </rdf:Alt>
         </xmp:Thumbnails>
      </rdf:Description>
      <rdf:Description rdf:about=""
            xmlns:xmpMM="http://ns.adobe.com/xap/1.0/mm/"
            xmlns:stRef="http://ns.adobe.com/xap/1.0/sType/ResourceRef#"
            xmlns:stEvt="http://ns.adobe.com/xap/1.0/sType/ResourceEvent#">
         <xmpMM:InstanceID>xmp.iid:198110E8A007E41183468BB91137401D</xmpMM:InstanceID>
         <xmpMM:DocumentID>xmp.did:198110E8A007E41183468BB91137401D</xmpMM:DocumentID>
         <xmpMM:OriginalDocumentID>uuid:5D20892493BFDB11914A8590D31508C8</xmpMM:OriginalDocumentID>
         <xmpMM:RenditionClass>proof:pdf</xmpMM:RenditionClass>
         <xmpMM:DerivedFrom rdf:parseType="Resource">
            <stRef:instanceID>uuid:29e17876-faee-8948-9286-1741a44a591b</stRef:instanceID>
            <stRef:documentID>xmp.did:F77F11740720681188C6A5613A2C864B</stRef:documentID>
            <stRef:originalDocumentID>uuid:5D20892493BFDB11914A8590D31508C8</stRef:originalDocumentID>
            <stRef:renditionClass>proof:pdf</stRef:renditionClass>
         </xmpMM:DerivedFrom>
         <xmpMM:History>
            <rdf:Seq>
               <rdf:li rdf:parseType="Resource">
                  <stEvt:action>saved</stEvt:action>
                  <stEvt:instanceID>xmp.iid:198110E8A007E41183468BB91137401D</stEvt:instanceID>
                  <stEvt:when>2014-07-09T21:40:39+02:00</stEvt:when>
                  <stEvt:softwareAgent>Adobe Illustrator CS5</stEvt:softwareAgent>
                  <stEvt:changed>/</stEvt:changed>
               </rdf:li>
            </rdf:Seq>
         </xmpMM:History>
      </rdf:Description>
      <rdf:Description rdf:about=""
            xmlns:illustrator="http://ns.adobe.com/illustrator/1.0/">
         <illustrator:StartupProfile>Print</illustrator:StartupProfile>
      </rdf:Description>
      <rdf:Description rdf:about=""
            xmlns:xmpTPg="http://ns.adobe.com/xap/1.0/t/pg/"
            xmlns:stDim="http://ns.adobe.com/xap/1.0/sType/Dimensions#"
            xmlns:xmpG="http://ns.adobe.com/xap/1.0/g/">
         <xmpTPg:HasVisibleOverprint>False</xmpTPg:HasVisibleOverprint>
         <xmpTPg:HasVisibleTransparency>False</xmpTPg:HasVisibleTransparency>
         <xmpTPg:NPages>1</xmpTPg:NPages>
         <xmpTPg:MaxPageSize rdf:parseType="Resource">
            <stDim:w>115.352649</stDim:w>
            <stDim:h>138.435994</stDim:h>
            <stDim:unit>Millimeters</stDim:unit>
         </xmpTPg:MaxPageSize>
         <xmpTPg:PlateNames>
            <rdf:Seq>
               <rdf:li>Cyan</rdf:li>
               <rdf:li>Magenta</rdf:li>
               <rdf:li>Yellow</rdf:li>
               <rdf:li>Black</rdf:li>
            </rdf:Seq>
         </xmpTPg:PlateNames>
         <xmpTPg:SwatchGroups>
            <rdf:Seq>
               <rdf:li rdf:parseType="Resource">
                  <xmpG:groupName>Default Swatch Group</xmpG:groupName>
                  <xmpG:groupType>0</xmpG:groupType>
               </rdf:li>
            </rdf:Seq>
         </xmpTPg:SwatchGroups>
      </rdf:Description>
      <rdf:Description rdf:about=""
            xmlns:pdf="http://ns.adobe.com/pdf/1.3/">
         <pdf:Producer>Adobe PDF library 9.90</pdf:Producer>
      </rdf:Description>
   </rdf:RDF>
</x:xmpmeta>
                                                                                                    
                                                                                                    
                                                                                                    
                                                                                                    
                                                                                                    
                                                                                                    
                                                                                                    
                                                                                                    
                                                                                                    
                                                                                                    
                                                                                                    
                                                                                                    
                                                                                                    
                                                                                                    
                                                                                                    
                                                                                                    
                                                                                                    
                                                                                                    
                                                                                                    
                                                                                                    
                           
<?xpacket end="w"?>
	</metadata>
<g>
	<g>
		<g>
			<g>
				<g>
					<g>
						<g>
							<g>
								<g>
									<g>
										<g transform="matrix(1 0 0 1 -2.690945e-007 7.818471e-009)">
											<g>
												<g>
													<g>
														<path fill="none" stroke="#000000" stroke-linecap="round" d="M53.212,69.186c-0.148,0.064-0.298,0.128-0.445,0.192
															c-0.023,5.906,8.735,7.574,11.93,3.007"/>
														<path fill="none" stroke="#000000" stroke-linecap="round" d="M149.54,69.186c0.661-0.189,1.18-0.522,1.913-0.64"/>
														<path fill="none" stroke="#000000" stroke-linecap="round" d="M58.953,70.145c-0.481-0.084-1.037-0.391-1.276-0.96"/>
														<path fill="none" stroke="#000000" stroke-linecap="round" d="M145.074,71.104c0.064,0.148,0.127,0.297,0.193,0.445
															c3.312,1.802,10.247,3.134,11.923-1.085"/>
														<path fill="none" stroke="#000000" stroke-linecap="round" d="M118.281,103.083c1.211-0.275,2.688-0.671,3.828,0"/>
														<path fill="none" stroke="#000000" stroke-linecap="round" d="M84.471,103.723c1.488,0,2.977,0,4.465,0"/>
														<path fill="none" stroke="#000000" stroke-linecap="round" d="M83.195,136.98c2.335,0.454,5.247-0.466,7.018,1.28"/>
														<path fill="none" stroke="#000000" stroke-linecap="round" d="M118.918,137.623c3.369-0.216,6.687,0.223,9.889,0.958"
															/>
														<path fill="none" stroke="#000000" stroke-linecap="round" d="M80.643,140.178c2.064,1.58,4.501,1.015,7.017,1.28"/>
														<path fill="none" stroke="#000000" stroke-linecap="round" d="M118.281,140.818c3.323-0.452,6.735,1.076,9.889-0.32"
															/>
														<path fill="none" stroke="#000000" stroke-linecap="round" d="M122.747,144.978c0.379-0.185,1.145-0.282,1.914-0.324"
															/>
														<path fill="none" stroke="#000000" stroke-linecap="round" d="M149.858-30.907c1.072,5.2,1.667,10.6,0.532,15.883"/>
														<path fill="none" stroke="#000000" stroke-linecap="round" d="M150.391-15.024c4.877,3.917,9.394,8.032,15.524,9.805"
															/>
														<path fill="none" stroke="#000000" stroke-linecap="round" d="M165.915-5.217c2.242,0.021,4.196-1.312,6.085-2.214
															c4.9-0.91,8.14-2.258,12.12-3.199c17.489-4.142,26.55-4.3,39.573,5.475c13.406,10.062,27.068,23.022,42.74,32.617
															c0.706,0.143,1.086,0.616,1.761,0.791"/>
														<path fill="none" stroke="#000000" stroke-linecap="round" d="M165.915-5.217
															C154.68,4.007,139.734,7.32,125.298,9.066"/>
														<path fill="none" stroke="#000000" stroke-linecap="round" d="M150.391-15.024
															c-5.639,5.177-12.917,7.095-19.986,9.379"/>
														<path fill="none" stroke="#000000" stroke-linecap="round" d="M149.858-30.907
															c-6.522,4.434-15.992,6.286-24.018,9.178c-13.117,4.726-23.448,8.87-36.067,5.651
															c-7.079-1.806-12.996-5.226-20.745-7.984c-8.551-3.046-16.986-4.84-23.934-11.807
															c-7.475-7.494-13.532-17.672-16.764-29.894"/>
														<path fill="none" stroke="#000000" stroke-linecap="round" d="M149.858-30.907c1.595-0.971,3.257-1.691,4.295-3.369
															c16.754-3.739,21.396-22.327,21.541-37.243"/>
														<path fill="none" stroke="#000000" stroke-linecap="round" d="M99.144-66.402c-6.488-7.828-16.7,1.014-21.242,6.458
															c0.207,0.133,0.733,0.54,1.255,1.003"/>
														<path fill="none" stroke="#000000" stroke-linecap="round" d="M79.155-58.94c0.08-0.025,0.161-0.048,0.239-0.073
															c6.169,0.553,10.904,2.022,16.062,2.704c8.646,1.138,13.906-3.081,23.781-4.976"/>
														<path fill="none" stroke="#000000" stroke-linecap="round" d="M119.238-61.286c0.231-0.446,0.494-0.872,0.623-1.219
															c-3.502-5.111-13.608-12.016-18.166-4.538"/>
														<path fill="none" stroke="#000000" stroke-linecap="round" d="M79.155-58.94c6.095,17.148,35.871,16.291,40.083-2.345
															"/>
														<path fill="none" stroke="#000000" stroke-linecap="round" d="M86.386-32.506c5.434,9.292,24.495,6.802,29.344-2.559"
															/>
														<path fill="none" stroke="#000000" stroke-linecap="round" d="M51.618-10.601c2.922,4.214,8.522,4.937,13.077,6.236"
															/>
														<path fill="none" stroke="#000000" stroke-linecap="round" d="M36.837-4.152C51.78,3.631,68.374,11.062,86.384,9.707"
															/>
														<path fill="none" stroke="#000000" stroke-linecap="round" d="M36.837-4.152C-4.693-15.49-28.514,26.219-57.79,46.161
															"/>
														<path fill="none" stroke="#000000" stroke-linecap="round" d="M36.837-4.152c0.023-0.082,0.045-0.165,0.07-0.249
															c4.924-1.676,10.327-2.934,14.71-6.2"/>
														<path fill="none" stroke="#000000" stroke-linecap="round" d="M51.618-10.601c-0.143-4.761-0.98-10.179,0.957-14.871"
															/>
														<path fill="none" stroke="#000000" stroke-linecap="round" d="M109.35,175.995
															c-0.723-24.519-4.058-50.146-0.32-73.871"/>
														<path fill="none" stroke="#000000" stroke-linecap="round" d="M109.032,102.124
															c0.066-6.069-0.701-12.344,0.056-18.187c3.622-7.419,12.603-8.804,19.719-5.957"/>
														<path fill="none" stroke="#000000" stroke-linecap="round" d="M128.807,77.979c0.14-0.039,0.278-0.076,0.418-0.116
															c9.464,6.04,10.592,17.767,11.894,27.909c2.247,17.597-1.775,39.693,3.744,54.659"/>
														<path fill="none" stroke="#000000" stroke-linecap="round" d="M144.862,160.431c4.335-0.135,7.165,3.803,11.377,4.368
															"/>
														<path fill="none" stroke="#000000" stroke-linecap="round" d="M156.239,164.804c4.396-3.519,10.505-3.567,15.946-4.64
															"/>
														<path fill="none" stroke="#000000" stroke-linecap="round" d="M172.186,160.165
															c4.207-12.801,8.276-25.878,15.152-37.734"/>
														<path fill="none" stroke="#000000" stroke-linecap="round" d="M187.338,122.43c-0.987-1.08-1.794-2.909-1.117-4.319"
															/>
														<path fill="none" stroke="#000000" stroke-linecap="round" d="M186.221,118.111
															c-2.483-14.916-4.941-30.799-3.511-46.049"/>
														<path fill="none" stroke="#000000" stroke-linecap="round" d="M182.71,72.062c-0.418-3.172,0.522-6.017,1.386-8.954"
															/>
														<path fill="none" stroke="#000000" stroke-linecap="round" d="M184.096,63.11c1.664-7.268,5.707-15.775,12.652-18.867
															"/>
														<path fill="none" stroke="#000000" stroke-linecap="round" d="M184.096,63.11
															c17.098-16.942,42.104-2.537,54.436,13.431"/>
														<path fill="none" stroke="#000000" stroke-linecap="round" d="M182.71,72.062c4.456,2.054,8.777,5.002,11.657,9.101
															c12.872,11.461,20.001,22.937,24.574,39.32c3.46,12.399-0.423,26.228,2.472,36.538"/>
														<path fill="none" stroke="#000000" stroke-linecap="round" d="M221.413,157.02c6.691,9.13,7.853,22.459,5.315,33.678"
															/>
														<path fill="none" stroke="#000000" stroke-linecap="round" d="M226.731,190.705c0.187,0.073,0.362,0.143,0.55,0.216
															c8.695,10.23-0.853,28.254-3.981,44.847c-3.481,18.457-3.547,30.426-5.694,44.923
															c-1.61,10.871-4.185,21.065-2.349,31.531"/>
														<path fill="none" stroke="#000000" stroke-linecap="round" d="M226.731,190.705c-1.778,2.604-2.158,5.768-3.823,8.312
															"/>
														<path fill="none" stroke="#000000" stroke-linecap="round" d="M221.413,157.02c-0.516,0.861-0.766,2.359,0.085,3.111
															c4.263,11.777-1.888,22.387-6.887,32.488"/>
														<path fill="none" stroke="#000000" stroke-linecap="round" d="M189.729,120.35c2.205-1.401,4.059-3.283,6.38-4.477"/>
														<path fill="none" stroke="#000000" stroke-linecap="round" d="M172.186,160.165c7.26-0.338,14.761,0.233,21.691,2.717
															"/>
														<path fill="none" stroke="#000000" stroke-linecap="round" d="M156.239,164.804
															c6.667,5.131,12.163,11.782,17.543,18.229"/>
														<path fill="none" stroke="#000000" stroke-linecap="round" d="M144.862,160.431
															c3.979,12.957,15.082,23.6,15.522,37.947"/>
														<path fill="none" stroke="#000000" stroke-linecap="round" d="M109.032,102.124c3.513,8.46,16.01,9.219,21.041,1.905
															c1.359-8.408,2.009-18.177-1.267-26.048"/>
														<path fill="none" stroke="#000000" stroke-linecap="round" d="M187.338,122.43c1.281-0.134,1.77-1.119,2.392-2.08"/>
														<path fill="none" stroke="#000000" stroke-linecap="round" d="M189.729,120.35c-1.461-0.501-1.757-2.624-3.509-2.239"
															/>
														<path fill="none" stroke="#000000" stroke-linecap="round" d="M27.376,70.145c1.533,5.202,2.114,11.659,1.116,17.267"
															/>
														<path fill="none" stroke="#000000" stroke-linecap="round" d="M28.492,87.414c0.801,12.377-0.816,24.575-5.051,35.921
															"/>
														<path fill="none" stroke="#000000" stroke-linecap="round" d="M23.441,123.335
															c7.697,12.126,15.096,25.255,17.331,39.546"/>
														<path fill="none" stroke="#000000" stroke-linecap="round" d="M40.772,162.881c1.845,1.749,4.937,2.626,7.337,3.518"
															/>
														<path fill="none" stroke="#000000" stroke-linecap="round" d="M40.772,162.881c-6.915-0.738-13.011-4.39-20.094-4.156
															"/>
														<path fill="none" stroke="#000000" stroke-linecap="round" d="M23.441,123.335c-0.987-0.296-1.894-0.588-2.765-1.067"
															/>
														<path fill="none" stroke="#000000" stroke-linecap="round" d="M28.492,87.414
															c-7.574,4.461-22.917,21.858-26.824,33.068c-1.627,4.674-2.667,9.116-3.825,13.433
															c-3.576,13.312-7.989,28.391-10.21,41.57c-0.857,5.095-0.216,10.634,0.189,14.896"/>
														<path fill="none" stroke="#000000" stroke-linecap="round" d="M-12.177,190.384c2.229,4.752,1.802,10.471,3.509,15.03
															"/>
														<path fill="none" stroke="#000000" stroke-linecap="round" d="M-12.177,190.384
															c-8.704,6.742-6.228,19.047-5.209,28.675"/>
														<path fill="none" stroke="#000000" stroke-linecap="round" d="M-17.385,219.059c1.091,3.484,1.806,7.091,2.34,10.656"
															/>
														<path fill="none" stroke="#000000" stroke-linecap="round" d="M-17.385,219.059c-0.082,0.024-0.165,0.049-0.248,0.073
															c-6.022,15.2,5.099,29.604,9.475,44.613c4.76,16.325,8.169,35.059,13.526,51.035"/>
														<path fill="none" stroke="#000000" stroke-linecap="round" d="M-30.356,95.409
															c4.588-4.336,13.729-11.404,21.859-18.377c12.218-10.482,21.456-19.364,35.874-6.884"/>
														<path fill="none" stroke="#000000" stroke-linecap="round" d="M27.376,70.145c0.06-9.446-6.994-21.115-17.861-19.826"
															/>
														<path fill="none" stroke="#000000" stroke-linecap="round" d="M56.083,165.441c0.077,0.144,0.155,0.282,0.231,0.425
															c-3.293,10.079-5.167,20.882-4.379,31.874"/>
														<path fill="none" stroke="#000000" stroke-linecap="round" d="M56.083,165.441
															c-9.014,5.872-18.558,14.191-22.008,24.622"/>
														<path fill="none" stroke="#000000" stroke-linecap="round" d="M56.083,165.441c6.485-10.149,10-28.344,11.457-45.713
															c0.981-11.689-0.47-34.038,11.827-37.427"/>
														<path fill="none" stroke="#000000" stroke-linecap="round" d="M79.367,82.297c4.55-7.611,12.603-5.17,16.247,0.021
															c2.161,3.082,1.396,8.23,2.254,11.811"/>
														<path fill="none" stroke="#000000" stroke-linecap="round" d="M97.868,94.129c0.441,0.647,0.75,1.01,1.129,1.409
															c1.733,24.728,1.299,50.386-1.768,74.699"/>
														<path fill="none" stroke="#000000" stroke-linecap="round" d="M79.367,82.297c0.182,7.909-2.627,16.089-0.454,23.801
															c4.25,4.202,11.667,3.323,16.241,0.019c1.644-3.828,1.253-8.124,2.714-11.988"/>
														<path fill="none" stroke="#000000" stroke-linecap="round" d="M82.558,144.654c1.935,0.485,4.105,1.128,5.743-0.637"
															/>
														<path fill="none" stroke="#000000" stroke-linecap="round" d="M96.592,177.276c0-0.821,0-1.309,0-1.921"/>
														<path fill="none" stroke="#000000" stroke-linecap="round" d="M74.582,319.898
															c20.506-43.51,30.064-94.342,22.008-142.622"/>
														<path fill="none" stroke="#000000" stroke-linecap="round" d="M96.592,177.276c-4.257,5.861-6.425,13.78-9.568,20.464
															"/>
														<path fill="none" stroke="#000000" stroke-linecap="round" d="M109.35,183.668c0.259-1.06,0.687-2.089,0.637-3.199"/>
														<path fill="none" stroke="#000000" stroke-linecap="round" d="M109.35,183.668c0.466,0.318,0.777,0.545,1.082,0.771
															c0.445,3.991,1.521,7.589,2.746,11.383"/>
														<path fill="none" stroke="#000000" stroke-linecap="round" d="M145.393,319.578
															c-14.73-18.619-19.781-28.859-25.698-45.231c-2.795-7.734-4.812-18.862-5.791-28.729
															c-0.851-8.571-1.049-18.818-1.686-28.606c-0.909-13.899-4.779-25.692-2.861-33.343"/>
													</g>
												</g>
											</g>
										</g>
									</g>
								</g>
							</g>
						</g>
					</g>
				</g>
			</g>
		</g>
	</g>
</g>
</svg>
