<?xml version="1.0" encoding="utf-8"?>
<!-- Generator: Adobe Illustrator 15.0.2, SVG Export Plug-In . SVG Version: 6.00 Build 0)  -->
<!DOCTYPE svg PUBLIC "-//W3C//DTD SVG 1.1//EN" "http://www.w3.org/Graphics/SVG/1.1/DTD/svg11.dtd">
<svg version="1.1" id="Layer_1" xmlns="http://www.w3.org/2000/svg" xmlns:xlink="http://www.w3.org/1999/xlink" x="0px" y="0px"
	 width="325.962px" height="134.644px" viewBox="44.277 20.31 325.962 134.644"
	 enable-background="new 44.277 20.31 325.962 134.644" xml:space="preserve">
<metadata><?xpacket begin="﻿" id="W5M0MpCehiHzreSzNTczkc9d"?>
<x:xmpmeta xmlns:x="adobe:ns:meta/" x:xmptk="Adobe XMP Core 5.0-c060 61.134777, 2010/02/12-17:32:00        ">
   <rdf:RDF xmlns:rdf="http://www.w3.org/1999/02/22-rdf-syntax-ns#">
      <rdf:Description rdf:about=""
            xmlns:dc="http://purl.org/dc/elements/1.1/">
         <dc:format>image/svg+xml</dc:format>
         <dc:title>
            <rdf:Alt>
               <rdf:li xml:lang="x-default">Print</rdf:li>
            </rdf:Alt>
         </dc:title>
      </rdf:Description>
      <rdf:Description rdf:about=""
            xmlns:xmp="http://ns.adobe.com/xap/1.0/"
            xmlns:xmpGImg="http://ns.adobe.com/xap/1.0/g/img/">
         <xmp:MetadataDate>2014-08-09T17:04:19+02:00</xmp:MetadataDate>
         <xmp:ModifyDate>2014-08-09T17:04:19+02:00</xmp:ModifyDate>
         <xmp:CreateDate>2014-08-09T17:04:19+02:00</xmp:CreateDate>
         <xmp:CreatorTool>Adobe Illustrator CS5</xmp:CreatorTool>
         <xmp:Thumbnails>
            <rdf:Alt>
               <rdf:li rdf:parseType="Resource">
                  <xmpGImg:width>256</xmpGImg:width>
                  <xmpGImg:height>108</xmpGImg:height>
                  <xmpGImg:format>JPEG</xmpGImg:format>
                  <xmpGImg:image>/9j/4AAQSkZJRgABAgEASABIAAD/7QAsUGhvdG9zaG9wIDMuMAA4QklNA+0AAAAAABAASAAAAAEA&#xA;AQBIAAAAAQAB/+4ADkFkb2JlAGTAAAAAAf/bAIQABgQEBAUEBgUFBgkGBQYJCwgGBggLDAoKCwoK&#xA;DBAMDAwMDAwQDA4PEA8ODBMTFBQTExwbGxscHx8fHx8fHx8fHwEHBwcNDA0YEBAYGhURFRofHx8f&#xA;Hx8fHx8fHx8fHx8fHx8fHx8fHx8fHx8fHx8fHx8fHx8fHx8fHx8fHx8fHx8f/8AAEQgAbAEAAwER&#xA;AAIRAQMRAf/EAaIAAAAHAQEBAQEAAAAAAAAAAAQFAwIGAQAHCAkKCwEAAgIDAQEBAQEAAAAAAAAA&#xA;AQACAwQFBgcICQoLEAACAQMDAgQCBgcDBAIGAnMBAgMRBAAFIRIxQVEGE2EicYEUMpGhBxWxQiPB&#xA;UtHhMxZi8CRygvElQzRTkqKyY3PCNUQnk6OzNhdUZHTD0uIIJoMJChgZhJRFRqS0VtNVKBry4/PE&#xA;1OT0ZXWFlaW1xdXl9WZ2hpamtsbW5vY3R1dnd4eXp7fH1+f3OEhYaHiImKi4yNjo+Ck5SVlpeYmZ&#xA;qbnJ2en5KjpKWmp6ipqqusra6voRAAICAQIDBQUEBQYECAMDbQEAAhEDBCESMUEFURNhIgZxgZEy&#xA;obHwFMHR4SNCFVJicvEzJDRDghaSUyWiY7LCB3PSNeJEgxdUkwgJChgZJjZFGidkdFU38qOzwygp&#xA;0+PzhJSktMTU5PRldYWVpbXF1eX1RlZmdoaWprbG1ub2R1dnd4eXp7fH1+f3OEhYaHiImKi4yNjo&#xA;+DlJWWl5iZmpucnZ6fkqOkpaanqKmqq6ytrq+v/aAAwDAQACEQMRAD8A9U4q7FXYq7FXYq7FXYq7&#xA;FXYq7FXYq7FXYq7FXYq7FXYq7FXYq7FXYq7FXYq7FVO5ube1t5bm5lWG3hUyTTSEKiIoqzMx2AAx&#xA;VhcvmrzJ5inktvKdv9XsopPTm1i6HAVU0cRK6uFYdqo5qCrpHs2Kq8f5b2tz8evaldau7HlJFI1I&#xA;K+MauZZYvcJKB4AdMVVD+VPkPiAumcSv2G9adqEdDRnZTT3BGKoeXyh5p0gmfy5rcs4qGOn6m3qR&#xA;MBsERlHGNB14oilj+2BiqO8v+d4ry8Ok6vbtpWtIQv1aXZJCQxHpt05MqMQtSDxbg0iozYqyfFXY&#xA;q7FXYq7FXYq7FXYq7FXYq7FXYq7FXYq7FXYq4EHpirsVdirsVdirsVdirsVdiriQBU7AdTirAY3m&#xA;8+6qXR3j8padL+7kjYr9dmXfkCCKquxVhsvUfvKGFVnVtbW9rbxW1tEsNvCojhhjAVERRRVVRsAB&#xA;iqpirsVdiqUeZPLNhrlsFmAjvIQfql4BV4ySCRUFWKMUUsoYbgMCrqrKqlnlHzHeyXc/l7Wx6etW&#xA;QJRjQ+vCKUcEABiAy/EAAwNaKwdEVZVirsVdirsVdirsVdirsVdirsVdirsVdiqSWkGo3s17IdVu&#xA;YFjuZIo4okteKqtKD44Xb7ziqMg028jlV31W6mVTUxOtqFb2PCBG+44q8/T8qPM+mSX1zovmiSAX&#xA;dxfXcunRxehFM93EqRq8okd1MbIG5rv148D8QUs88s2Go6f5e02y1O4+tajb28cd5cB5JA8wUcyH&#xA;lJkYcuhfc98UJnirsVdirsVdirsVdirDvP8Ae3d4bTyppzUvNYPG7k2PpWlDzZh/lhW2OzqrqCGp&#xA;irKdO0+106xhsrVOEEChUBNSe5Zid2ZjuzHcnc4qiMVdirsVdirsVYn5/wBHuXtYdf01vS1XRz64&#xA;f4qPCtS4cLUsEBZqAcivNFp6hOKsg0bVINV0y3v4RxWdatGSCY3UlZI2I25I4Kn3GKqUXmPQZbf6&#xA;zFfwSQAwKZEcMoN1wMFSP9+CZCvswxVMFdGrxYGnWhr3I/WMVbxV2KuxV2KuxV2KuxV2KpZe+Y9N&#xA;trtrGMve6kgUtYWq+rKvMVUyUokIbs0rKvviqmLnzTcbx2drYRsfhe4maeZR/lwxKsde/wAM5Hvi&#xA;qja6d5osvWaO8sbr1pXmaFrea3qX7CQTT8en8hxVUOvXtn/x19Nktox9q8tW+t2yj/KKrHOv+UzQ&#xA;hR3bFU1trq2ureO4tZUnt5RyimiYOjKe6stQRiqjqWq6bplt9Z1C5jtYK8RJKwUFqE0FepoCdu2K&#xA;pUvnXSvRt7l7e9WzvCgsroWk0qzeoKoVWJZJF5Dcc1XFUR/inTOPL0b+lK/8c6/rT5ehX6MVRFhr&#xA;+i38xt7W8ie6VeT2hbhOg6VeFuMi/wCyXFUfirsVdirsVYX5KUavr2seapPiWV/qWmP1AtVCvyjb&#xA;vHKBG3E/ZcP0qcVZpirsVdirsVdirsVdirDPJYGj6/rPlc/DBE4vdMTp/o7hQyovaOLlGlf2n5HF&#xA;VCT8mfJslx6rfWjG3IS2xmJhkRrgXAjZCD8K8FjUD9hVHYHFU10DyDpHl+e7udJlnS7vYIYZ5539&#xA;cs0AI9VuQqXetW341qaAk1VTP6hrX/V0/wCSEf8AXFUXZw3USMLm4+suTUNwCUHhRcVeefnj+YsX&#xA;lXQYNNtpblNe1okad9UA5CO3kja4Z5DX0lKPw5hWYFqqCRirxXTvzP8APum3kFzql/qPoR/HNMkz&#xA;SKmwJpb3AZJhQuODOtdqMpAxV9TaPren6toVlrlo5/R+oWsV7bySDgfRmjEqFgenwtviqReXPzAt&#xA;9bszcR6ZeKw9JikcfqrwuLeK7i/eCi8vRuY+a9mqByA5FVFjX9R1DUJdP0q1+ry20KTXU+oRyxqv&#xA;qs6xpHGAvq8vRbkwcBdupNAqoWs/mHXpbqzu0/Q1tYzG2vfq03Oe4fisg9GZQpiiaKRTyoJKmg4c&#xA;eTKp/YadY6fbLbWUCW8CknggpVjuWbuzMdyx3PfFURirsVdiqTXWhSQXD3+hutneyMZLm3aotbpj&#xA;9r1UFeEjf79QcunLmBxxVdZafqdxqS6lq4gjkt0aKxtLd3lSP1KepK0jpFydgoUUQcVqKnkcVSu1&#xA;Bj8qaAdilncWUBpsSFlFqpA+bAnFWV4qhtQ0vTtRhEN/bRXUQPJVlQPxYdGWv2WHYjfFUomTVdAQ&#xA;3EDT6rpCbzWjlp72Be7wOayXCr1MbkydeLEhYyqmFr5h0G6hWe21G2mhcAq6TIQQQCO/gcVREGpa&#xA;dcTmCC6hlnVebRJIrOErTkVBrSu1cVS3znq6aT5X1G9Mwt5FhMcExNOM0v7uJvkHcE+2KrvKGmfo&#xA;zyzp1m0P1eRYhJNB2jlmJllQU7K7kDFU4xV2KuxV2KuxV2KuxVh/mRfqHnfy9qykRxXPOwvZO7hj&#xA;xtoh85bguf8AV9sVZhirsVY9b6tq2q6lqEGmXFrbW+ny/VyZ7eW4aRgPjYMs1uq8XV04jl9mte2K&#xA;oo2Xmdd49VtmJHxCazZlB/yRHPER9JOKvO9QPm/UvPU+r2emjUho1munBrC6itmMsk8puDH9dtzx&#xA;3hRX4Sgig+JqmiqU+WLv86rzU9btdf8AKV1bafz4aY0OpQzD0zy+CcahPeQzBl41dItjXbsFWR+U&#xA;/I+kv5Hkh8xaHY3Gp6bb/UQ08cV00cdpbJDGiO6kIqhPsp8NanqTiqcflUippupIgCqs1iFUCgAG&#xA;iafQAYqyG2/5SrUf+YGx2/57XeKu0b/jo69/zHJ/1A22KprirsVdirsVdirsVYoP+UbVegTWwiDs&#xA;FTW+KgewAoMVZXirsVdirxj8w/IWi217qV0Yo4rGae01OWJI1WWRZboRX8ccykOi8nSU03q5HQ0x&#xA;VOtO/Lnyta+S01zSrSa01t9HaSG6try8RxJNbrI3EiX9p0X7sVRuieWdR1+S2v8AWNVku9I0+8uh&#xA;p1gd+aW88kELzSURnrGo58wzN/MFZ1ZV6BirsVdirsVdirsVdirsVYn+Y68NO0y9JomnajDevtXa&#xA;FJG6DcitK07YqyzFUj8x+b9P0Ga1tp4Zrq8vUmktrW39P1HSAxiQr6rxBiDMnwg8jXpQGirEfKGr&#xA;+ZNPtbx5NEle71C6a7kimW9idWkRfUXl9TaIL6odl/edDiqdxec9el5FdERljNJGSeeXj81itHf7&#xA;hirH9M80TeXr173VNNuobOaGY6peLHItukgupblZFa6js2Ipcy8gFJ2XiMVZtB5y8ryxrJ+kYoo3&#xA;AZHuCYAQQGFDKErscVQemXdrd6Hrk9rNHcQPPecZYmDoaLQ0ZSRiqX/lb/xz9T/4z2P/AHRNPxVk&#xA;Ft/ylWo/8wNj/wAnrvFXaN/x0de/5jk/6gbbFU1xV2KuxV2KuxV2KsUFf8Ob/wDV9/7vmKsrxV2K&#xA;uxV57+acizWOpKpp+j7GH1Pc319DwFfb6mfvGKsh0plH5fWbE0UaTGSTtQfVh1riq7yICPLMIOxE&#xA;95Uf9HcuKp/irsVdirsVdirsVdirsVYp+aG/k28RdpXKCJulCrcm3/yo1ZfetMVZXirwr/nJqPXn&#xA;vfKf6Bsf0lqqjUHt7H6sbz1CgtnoYgDtVRUnp198VSKbWrv0r63GlazLrFnrCWzR6b5ZtpIP0WLu&#xA;MmeTnYSsk0tkzyKhbZqVXFVTVNb1767qHDSPM9zaKLD9CibyzZufTeSl96vHT/hKR7xrtv1BxVin&#xA;n+41+78r6ndW2jXJtbG4ulrdaDFb3UNvEsDwes8FvD6DOJXY1AoqqejAlV9VeX2lfQdNaZPTla1g&#xA;MkdKcWMa1Wh8DiqDudB1Im+jstQW3tNQZpJopIPVdGdAj+k/qIAG48qOrbk9qAKsb/LyXV7DTbov&#xA;o95OtxJaOkqi3iqYdLs7WUGOeaKRSs1u6mq9sVT7TNReTzZepdWsunyT2NqLWK5aHlN6MtyZTH6U&#xA;kob0/UTlvUchXqMVW+XNb0251rWreKYF57sTWjEEJcRR2tvDJJA/2ZFjljZH4n4SN+oqqyPFXYq7&#xA;FXYqhtR1Kw02ylvb+dbe1hFZJXNAKmgA7kk7ADcnYYqpaXrWn6mrm0aQPHxMkM8UtvMocVRminWO&#xA;QK1DQ8aGh8DiqRREP5R0thu13e2c6Gm7iS/S4LnvUpVzX6cVZXirsVS7Wdbh01EjWNrvUbjkLLT4&#xA;iPVmZetK7Ki1HJ2+Fe/bFWKap5P853Wkyxi+064u7y+hv7+CSGeFHEUiMsAuFklosSRIqt6Hxcak&#xA;AsTiqPl0vzafKD6BFZ2Af9HmwSdr6YgH0fSDn/RK++KpVcP5w8mRfpS8u4tT0ae5eXULGKPgbZry&#xA;4Z2+rsxMkn7ybipY/wAq8FDF0Vego6SIskbB0cBkdTUEHcEEYq3irsVdirsVdirsVdirE/zDYtFo&#xA;VsCStzq9rHMo6+k3JGP0M67+NMVZZiqhe6fYX8PoX1tFdQhgwinRZF5DoeLAioxVhsP5a/l5D5sl&#xA;ZPLWmVns/UlraQsCwlpWjKQNttsVTn/lXnkD/qWdK/6Qbb/mjFUD5G8meUbLyzo0tpoljDL9Vt5z&#xA;KltEH9VolLScuPLkTuT1xVl2KuxV2KqF7YWN9D6N7bRXUIIb0pkWReQ6HiwIrviqne6Tp17aJaXE&#xA;CtBEVaELVGiZBRWidCrRsv7LIQR2xVL0XzJpgCD/AHN2Y2BJSG+Ue5PCCb51joP5jiq9PN2hAAXc&#xA;7aa5/Y1CN7TfoQrThEeh/kYjwxVcfNvlUdNYsmPZVuImYnwVVYkn2GKqba/eXXw6Ppk9y1QPrF2G&#xA;sbdfGplX1m26GOJh7jFV9noLm7TUdXuP0hqEe8AC+nbW5IofQhq9GI6u7M+5AIX4cVb1jTdQe6h1&#xA;PSXhTUYEeF0uA3pTQvvwdk+JSkihlajU+IU+OoVSSCLzGmkaJpqaNL62mG2FxcTTWyQuLePi5jMc&#xA;k0lWI+EMg9yMVTv9J683wpozK42LTXESxkk9QY/Vfj41SvscVWNB5rvBxluLbSYzs31UG7mp/Mks&#xA;6RRofZoHxVF6bo1hpxkkgVnuZ6fWbuZjJPKVrTnI1TQVPFR8K/sgDFUdirsVQWt6e2o6Pe2COI5L&#xA;qCSKOQ/sOykK/wDsWocVSn8vb8XnlHTyFMZt0+riJvtokR4wh/8AKMPBvpxVkeKuxV2KuxV2KuxV&#xA;2KsO1OT9I/mVpNmn2NItp7qY9Vf1gEaM/wCVG3oOPZsVZjirsVY/fanpml+ZmuNVu4rKG5s4orKW&#xA;4kWKNpEkleZAzlV5cWjNOtAfA4qiX84eUkFW1qxFaAD6zESSSAAAGqSSQABiqp5Xjli8s6RFKjRS&#xA;pZW6yRupR1YRKCrK1CCD1BxVM8VdirsVdirsVdirsVdirsVdirsVdirsVdirsVdirsVdirC9CcaF&#xA;531PRJPgtdYJ1DTmPRpm5NMlT9pyFairsscY8cVZpirsVdirsVdirsVU7q5t7W2luriQRW8CNLNK&#xA;2yqiDkzH2AGKsT/L6Ga7OqeY7mMxz6tcEIhpVY4CUAbb7aGsJI2YRqcVZhiqXajrkNncx2cUE19q&#xA;EqmRLO2ClxGKjm7SNHHGpIIBdhyOy1OKob0NevdQ0+a7tra0trKZrj4Lh5pW5W8kIQoYY1X++qSH&#xA;PTvWoVRPmC0urnTONqgknintrlYi3HmLa4jnZAx2DMIyFrtXrtirVh5h068ufqZ9S11ALyaxukMU&#xA;1BsxQN8Mqqdi8TMvviqZYqpT3Vrb+n9YmSH1XWKL1GC85G+yi1Iqx7AYqpjVNNbTjqaXUT6cIjP9&#xA;cR1aH0gvIyBwSpXjvXFUTirsVdirsVdirsVdirsVdirsVdiqH1DUtO02zkvdRuobKzi4+rc3EixR&#xA;LyYKvJ3IUVZgBv1xVWjkjljWSNg8bgMjqQVZSKggjqDiq7FVkM8E8fqQSLLHyZeaEMOSMVYVHdWB&#xA;B98VY7570C61LT4b/Tdtb0h/rWnMNyxWheLqtRJxHw8gCQATxriqP8reYrTzBo0Oo244O3wXNua8&#xA;oZlA5xtUKdq1FQKqQehxVNsVdirsVdirsVYT5z1G41fU7fyjpUhE8rrLqk6iohhSj0J6chVXI36o&#xA;jDjLUKswsbK1sbKCytIxFa2sawwRCtFRAFVd6nYDFVV3REZ3YKiglmJoABuSScVSPycUvNM/T1S0&#xA;mukXyseotnUfVIwD9njBx5L05lj+0cVT3FXYqgNc0W01jT3s7gvG1edvdRNwmgmUHhNE43V1rt9x&#xA;qCRiqWaFpttfaXDPcSXa3Sl4LtUvr3gJ4JGhm4Vmrx9SNuPtiq/XfJWlazpkenXFxeRwxT/Wo5Eu&#xA;JHlEojaNGEkxlYcC/NR0DAHxqqxz/lSflsC4iS/1BLO4jEIs1khEUca2klkoj/dcgRFMdyTuF8Bi&#xA;ts30fTINK0qz0yBmeCyhSCJ5OPMrGoUFuCotaDsBiqLxV2KuxV2KuxV2KuxV2KuxV2Kpb5i8v6f5&#xA;g0mXStQ9T6nM8LyiJzGx9CZJlXkNwC0YBpvToR1xVijfk7oZjliOpag0cqTKVaZafv44422CAUpE&#xA;PhAC8fgpwHHFV8/5O+WZEuPSuLyCa6SUTTrIhZpJrlrkzPyRg8i+o0YL1+A8TXriqdaD5H0fRYNR&#xA;it5LmR9UumvLu4eYrOXah4iWH0n4g1IBJ6nffFUd/h6w/wB+3n/Sdef9VcVYpq/lzVvK+pnzF5VS&#xA;S5tpT/uc0Z3eVp1LVa4idy8nqJUtxFa70FSeSrK9A8xaTrtkLvTphIu3qxGgkjYioV13pXqD0Ybq&#xA;SpBxVMsVdirsVYl5p85zQTnRPLcQ1LzHNyQRqf3VtQAs8zbgcOSnifFa05LyVR3k/wArDQbBvrE5&#xA;vdWuvj1G/YUMj1LUHgoLtTxJJO5OKp/iqld20V1azWstfSnjaKSmx4uCpp9BxVg+k6xqvlhE0rUo&#xA;UaCKkcKM8dtUk0/0OSVkt5ImJ+GFpEkiHw0ZeJxVk6+ZbQUE1pfwyd4/qVxLT/ZwJLEf9ixxVs+Z&#xA;tNH+6b7/ALh99/1RxVA6n5untIVkGmvCshpDLfyx2ySH+VEQ3F00h/ZQQVOKonyhBqaaKs+qRrDf&#xA;3s013NAqlBGJpGaNCpLUYR8efxH4q4qnWKuxV2KuxV2KuxV2KuxV2KuxV2KuxV2KuxV2KuxV2Kux&#xA;V2KsX1ryFYXd9+ldKnfR9ZBLG7tx8Ehbc+rGCnLkd24svMgc+QAGKodLv8y9NAjmsLfXUGyPDKkE&#xA;pA/alkf0k5HsqQ098VVH8x+fdgvlDrty/SFsabHelFr8q4qh5dF/MDWxw1LVI9FsWryi04EXDKez&#xA;OS/puvXkkjKe64qyHy/5a0bQLQ22mW4iDUM0p3kkIJNXb5saAfCvRQBtiqZ4q7FXYqtm9L0n9bj6&#xA;XE+pzpx4035V2pTFWLJ/yq/mPq/6J9avw/VfQ9XvWno/H41xVVP+B6Gvp0719SlMVRWif4H+uP8A&#xA;oP8ARn13j+8+pfV/V4e/pfFTFU8xV2KuxV2KuxV2KuxV2KuxV2KuxV2KuxV2KuxV2KuxV2KuxV2K&#xA;uxV2KuxV2KuxV2KuxV//2Q==</xmpGImg:image>
               </rdf:li>
            </rdf:Alt>
         </xmp:Thumbnails>
      </rdf:Description>
      <rdf:Description rdf:about=""
            xmlns:xmpMM="http://ns.adobe.com/xap/1.0/mm/"
            xmlns:stRef="http://ns.adobe.com/xap/1.0/sType/ResourceRef#"
            xmlns:stEvt="http://ns.adobe.com/xap/1.0/sType/ResourceEvent#">
         <xmpMM:InstanceID>xmp.iid:AB81E8C6D31FE411904980895B70EB67</xmpMM:InstanceID>
         <xmpMM:DocumentID>xmp.did:AB81E8C6D31FE411904980895B70EB67</xmpMM:DocumentID>
         <xmpMM:OriginalDocumentID>uuid:5D20892493BFDB11914A8590D31508C8</xmpMM:OriginalDocumentID>
         <xmpMM:RenditionClass>proof:pdf</xmpMM:RenditionClass>
         <xmpMM:DerivedFrom rdf:parseType="Resource">
            <stRef:instanceID>xmp.iid:F58B765B9D07E41183468BB91137401D</stRef:instanceID>
            <stRef:documentID>xmp.did:F58B765B9D07E41183468BB91137401D</stRef:documentID>
            <stRef:originalDocumentID>uuid:5D20892493BFDB11914A8590D31508C8</stRef:originalDocumentID>
            <stRef:renditionClass>proof:pdf</stRef:renditionClass>
         </xmpMM:DerivedFrom>
         <xmpMM:History>
            <rdf:Seq>
               <rdf:li rdf:parseType="Resource">
                  <stEvt:action>saved</stEvt:action>
                  <stEvt:instanceID>xmp.iid:F58B765B9D07E41183468BB91137401D</stEvt:instanceID>
                  <stEvt:when>2014-07-09T21:35:34+02:00</stEvt:when>
                  <stEvt:softwareAgent>Adobe Illustrator CS5</stEvt:softwareAgent>
                  <stEvt:changed>/</stEvt:changed>
               </rdf:li>
               <rdf:li rdf:parseType="Resource">
                  <stEvt:action>saved</stEvt:action>
                  <stEvt:instanceID>xmp.iid:AB81E8C6D31FE411904980895B70EB67</stEvt:instanceID>
                  <stEvt:when>2014-08-09T17:04:19+02:00</stEvt:when>
                  <stEvt:softwareAgent>Adobe Illustrator CS5</stEvt:softwareAgent>
                  <stEvt:changed>/</stEvt:changed>
               </rdf:li>
            </rdf:Seq>
         </xmpMM:History>
      </rdf:Description>
      <rdf:Description rdf:about=""
            xmlns:illustrator="http://ns.adobe.com/illustrator/1.0/">
         <illustrator:StartupProfile>Print</illustrator:StartupProfile>
      </rdf:Description>
      <rdf:Description rdf:about=""
            xmlns:xmpTPg="http://ns.adobe.com/xap/1.0/t/pg/"
            xmlns:stDim="http://ns.adobe.com/xap/1.0/sType/Dimensions#"
            xmlns:xmpG="http://ns.adobe.com/xap/1.0/g/">
         <xmpTPg:HasVisibleOverprint>False</xmpTPg:HasVisibleOverprint>
         <xmpTPg:HasVisibleTransparency>False</xmpTPg:HasVisibleTransparency>
         <xmpTPg:NPages>1</xmpTPg:NPages>
         <xmpTPg:MaxPageSize rdf:parseType="Resource">
            <stDim:w>114.992120</stDim:w>
            <stDim:h>47.499254</stDim:h>
            <stDim:unit>Millimeters</stDim:unit>
         </xmpTPg:MaxPageSize>
         <xmpTPg:PlateNames>
            <rdf:Seq>
               <rdf:li>Cyan</rdf:li>
               <rdf:li>Magenta</rdf:li>
               <rdf:li>Yellow</rdf:li>
               <rdf:li>Black</rdf:li>
            </rdf:Seq>
         </xmpTPg:PlateNames>
         <xmpTPg:SwatchGroups>
            <rdf:Seq>
               <rdf:li rdf:parseType="Resource">
                  <xmpG:groupName>Default Swatch Group</xmpG:groupName>
                  <xmpG:groupType>0</xmpG:groupType>
               </rdf:li>
            </rdf:Seq>
         </xmpTPg:SwatchGroups>
      </rdf:Description>
      <rdf:Description rdf:about=""
            xmlns:pdf="http://ns.adobe.com/pdf/1.3/">
         <pdf:Producer>Adobe PDF library 9.90</pdf:Producer>
      </rdf:Description>
   </rdf:RDF>
</x:xmpmeta>
                                                                                                    
                                                                                                    
                                                                                                    
                                                                                                    
                                                                                                    
                                                                                                    
                                                                                                    
                                                                                                    
                                                                                                    
                                                                                                    
                                                                                                    
                                                                                                    
                                                                                                    
                                                                                                    
                                                                                                    
                                                                                                    
                                                                                                    
                                                                                                    
                                                                                                    
                                                                                                    
                           
<?xpacket end="w"?>
	</metadata>
<g>
	<g>
		<g>
			<g>
				<g>
					<g>
						<g>
							<g>
								<g>
									<defs>
										<rect id="SVGID_1_" x="53.616" y="20.31" width="316.623" height="134.644"/>
									</defs>
									<clipPath id="SVGID_2_">
										<use xlink:href="#SVGID_1_"  overflow="visible"/>
									</clipPath>
									<g transform="matrix(1 0 0 1 -8.631250e-007 3.231098e-007)" clip-path="url(#SVGID_2_)">
										<g>
											<g>
												<path d="M98.298,90.597c-0.949,0-1.898,0-2.847,0c-0.366,3.051,0.738,8.646-0.301,10.895l-0.174-0.223l-0.274,0.072
													c0-0.099,0-0.198,0-0.299c-0.438-0.607-1.646-0.45-2.249-0.896l0.226-0.173L92.603,99.7c0.2,0,0.399,0,0.602,0
													c0-1.192,0-2.388,0-3.58l0.226-0.172l-0.075-0.277c0.691-0.092,0.862,0.336,1.5,0.301c0-0.396,0-0.797,0-1.192
													l0.19-0.364l-0.341-0.229c0.18-0.199,0.058-0.236,0-0.448l0.341-0.231l-0.19-0.359c0-0.354,0-0.697,0-1.046l0.226-0.301
													l-0.228-0.3c0-0.1,0-0.199,0-0.299l0.188-0.373l-0.188-0.372c0-0.05,0-0.1,0-0.148h0.375l0.227-0.299
													c0.95,0.099,2.297-0.196,2.997,0.148l-0.226,0.175L98.298,90.597z M94.25,99.702c-0.034,0.253,0.169,0.369,0.149,0
													c0-0.245,0-0.498,0-0.745c0-0.546,0-1.096,0-1.64c-0.032-0.283,0.169-0.325,0.149-0.594
													c-0.033-0.119-0.127-0.175-0.3-0.148C94.25,97.612,94.25,98.656,94.25,99.702z"/>
												<path d="M87.578,102.722l0.074,0.409c-0.149,0-0.3,0-0.449,0l0.074-0.521l-0.523-0.074c-0.25,0-0.5,0-0.75,0
													l-0.365-0.189l-0.233,0.34c-3.173-0.271-7.439-0.148-11.245-0.148c-1.614,0-3.65-0.306-4.2,0.446l-0.354,0.043
													l-0.246,0.256c-1.335-0.213-3.075-0.021-4.197-0.447l0.226-0.174l-0.075-0.272c1.078-0.097,1.637,0.281,2.25,0
													c-0.829-0.21-0.847-1.622-0.449-2.095l0.173,0.227l0.276-0.074c0,0.396,0,0.798,0,1.194
													c4.949,0.503,15.681,0.317,20.394,0.146l-0.075,0.273l0.226,0.172c-0.028,0.123-0.15,0.146-0.149,0.298L87.578,102.722z
													 M69.509,102.537c-0.218,0.082-0.772-0.174-0.75,0.148C68.978,102.604,69.534,102.861,69.509,102.537z"/>
												<path d="M54.34,142.605l-0.276,0.074c0.166-1.032,0.369-2.021,0.899-2.688l0.175,0.225l0.274-0.072
													c-0.267,0.951-0.547,1.403-0.149,2.389l-0.275-0.075l-0.174,0.226c-0.121,0.025-0.148,0.148-0.3,0.148L54.34,142.605z"
													/>
												<path d="M60.538,101.269l-0.174,0.223c-0.243,0.042-0.259-0.142-0.45-0.148c0-4.077,0-8.157,0-12.234
													c0.242,0.042,0.257-0.144,0.45-0.148l0.104,0.252l0.197,0.194c0.07,0.471-0.271,0.526-0.149,1.044l-0.052,0.396
													l0.353,0.199c-0.081,0.12-0.157,0.242-0.149,0.445l-0.345,0.234l0.194,0.361c0,0.35,0,0.696,0,1.043l-0.052,0.396
													l0.353,0.201c-0.027,0.122-0.149,0.146-0.149,0.299c0.121,0.13,0.409,0.091,0.446,0.299l-0.225,0.171l0.074,0.274
													c-0.149,0-0.298,0-0.447,0c0,0.396,0,0.798,0,1.192c0.898,0.057,1.194-0.502,2.097-0.445l-0.074,0.273l0.226,0.172
													c-0.883,0.516-0.269,2.519-0.449,3.73c0.202,0,0.398,0,0.601,0l-0.075,0.271l0.226,0.174
													c-0.479,0.221-0.971,0.429-1.649,0.446l0.074-0.271l-0.225-0.175c0-1.19,0-2.389,0-3.581c-0.15,0-0.301,0-0.451,0
													c-0.471,0.876-0.249,2.437-0.3,3.729c0.101,0,0.201,0,0.3,0l-0.075,0.275l0.226,0.171
													c-0.116,0.133-0.16,0.338-0.149,0.598L60.538,101.269z"/>
												<path d="M64.336,88.087l-0.227-0.175c0.021-0.329,0.637-0.062,0.899-0.147c-0.026-0.128,0.058-0.143,0.15-0.149
													l0.3,0.299l0.3-0.299c0.301,0,0.601,0,0.9,0l-0.075,0.271l0.226,0.177c-0.68,0.269-1.581,0.314-2.548,0.298
													L64.336,88.087z"/>
												<path d="M89.452,77.392v-0.374c0.146-0.003,0.118-0.185,0.149-0.301h0.301V76.42c1.392,0.854,3.981,0.516,6.148,0.599
													c0.038-2.559,4.723-2.896,4.498,0.147c1.654,0.183,4.202,0.425,5.249-0.448l0.075,0.227l0.075,0.225
													c0,0.101,0,0.199,0,0.299c0.1,0,0.199,0,0.3,0l-0.075,0.272l0.227,0.174c-1.688,0.061-2.911,0.32-4.647,0.6l0.075-0.274
													l-0.226-0.175c-0.176-0.284-1.659-0.503-1.051,0.148l-0.074,0.273l0.226,0.174c-1.285,0.518-3.038,0.902-4.2,0
													l0.075-0.274l-0.226-0.173c-0.029-1.113-2.571-0.521-3.298-0.446l-0.226,0.175l0.074,0.271
													c-1.543,0.202-2.521-1.439-3.298-0.299l-0.173-0.224l-0.273,0.074c0-0.052,0-0.102,0-0.148L89.452,77.392z
													 M98.749,76.869c0.024-0.324-0.532-0.067-0.75-0.149C97.658,77.311,98.917,77.38,98.749,76.869z M98.899,78.062
													C97.938,77.89,98.569,78.519,98.899,78.062L98.899,78.062z"/>
												<path d="M89.577,75.601L89.3,75.676c0.308-2.481,0.881-4.695,1.199-7.162c0.895-0.404,1.466-1.13,2.698-1.194
													l-0.074,0.271l0.226,0.175c-0.095,0.133-0.182,0.267,0,0.298l-0.075,0.225l0.075,0.225
													c-0.284,0.27-1.998,0.522-1.35,0.745l-0.075,0.273l0.226,0.173c-0.068,0.244-1.133,0.246-0.6,0.597l-0.074,0.273
													L91.7,70.75c-0.075,0.334-1.229,0.354-0.75,0.747l-0.075,0.274l0.226,0.173c-0.659,0.537-0.923,1.467-0.899,2.686
													l-0.226,0.374l0.375,0.226c-0.134,0.264-0.336,0.463-0.601,0.598L89.577,75.601z"/>
												<path d="M94.025,67.343l-0.227-0.174c-0.027-0.127,0.058-0.141,0.15-0.147l0.46,0.011l-0.011-0.458
													c0.74,0.192-0.144-1.236,0.601-1.045l0.075,0.374l0.375,0.075c-0.028,0.127,0.057,0.14,0.149,0.147L95.523,66.4
													l0.227,0.174c0,0.099,0,0.199,0,0.298l-0.227,0.174l0.075,0.274c-0.466,0.185-1.068,0.23-1.65,0.298L94.025,67.343z"/>
												<path d="M102.672,66.995l0.428,0.024c0,0.05,0,0.1,0,0.147l-0.227,0.175l0.074,0.273
													c-0.654-0.046-1.227-0.171-1.8-0.298l0.075-0.274l-0.226-0.174c-0.026-0.126,0.058-0.141,0.149-0.147l0.525-0.075
													l0.523,0.075c0.12-0.079,0.244-0.156,0.451-0.149L102.672,66.995z"/>
												<path d="M105.471,68.438l0.173-0.227c0.471-0.069,0.396,0.401,0.75,0.448c0.009,2.01,0.135,2.984,0.149,4.925
													l-0.273-0.075l-0.175,0.227c-0.341-0.16-0.058-0.938-0.15-1.343c-0.199-0.15-0.451-0.246-0.6-0.448l0.308-0.241
													l-0.157-0.355c0-0.052,0-0.101,0-0.149l0.467-0.015l-0.167-0.435c0.087-0.584-0.616-0.381-0.75-0.746l0.227-0.174
													l-0.075-0.272c0.723-0.057-0.418-0.351-0.45-0.599l0.227-0.173l-0.075-0.272c0.173,0.022,0.268-0.034,0.3-0.149
													L105.471,68.438z"/>
												<path d="M109.77,71.969l-0.226-0.174c1.646-0.347,3.946-0.051,5.849-0.147c0.54-0.956,0.071-2.913,0.448-4.03
													l0.174,0.225l0.276-0.073c0,1.393,0,2.784,0,4.179h-0.502l-0.397,0.298c-1.9,0-3.8,0-5.698,0L109.77,71.969z"/>
												<path d="M68.584,79.331l-0.276,0.076c-0.028-0.428-0.02-0.814,0.448-0.747c0.118,0.104,0.334,0.832,0,0.896
													L68.584,79.331z"/>
												<path d="M87.628,79.182l-0.274,0.074c0.029-0.518,0.125-0.972,0.75-0.896c0.015,0.462-0.067,0.826-0.3,1.044
													L87.628,79.182z"/>
												<path d="M62.386,92.363l-0.075-0.272c0.779-0.08,1.11,0.286,1.799,0.3l-0.074,0.272l0.226,0.175
													c-0.928,0.221-1.872,0.426-2.85,0.598l0.074-0.274l-0.225-0.173c0.128-0.321,0.772-0.127,0.899-0.447L62.386,92.363z"/>
												<path d="M90.426,92.513l-0.074-0.273c1.28,0.079,2.317-0.086,3.299-0.299l-0.074,0.272l0.225,0.175
													c-0.112,0.281-0.447,0.102-0.149,0.443l-0.226,0.177l0.075,0.274c-1.036-0.266-2.316-0.284-3.298-0.598L90.426,92.513z"
													/>
												<path d="M62.086,94.901l-0.074-0.274c3.012,0.739,7.036,0.004,10.646-0.146c5.333-0.226,10.892-0.065,16.045,0.444
													L88.476,95.1l0.074,0.272c-0.052,0-0.1,0-0.149,0c0,1.243,0,2.487,0,3.73c0.311,0.089,0.985-0.188,1.047,0.146
													l-0.226,0.172l0.074,0.276c-0.556,0.208-1.583-0.378-1.498,0.148l-0.462-0.015l0.014,0.457c-6.547,0-13.096,0-19.646,0
													l0.074-0.271l-0.223-0.173c0.417-0.595-0.764,0.064-1.351-0.148l0.074-0.276l-0.225-0.172
													c0.553-0.738,0.199-2.39,0.3-3.581c-0.432-0.244-1.317,0.119-1.948,0.148c0,1.189,0,2.39,0,3.583c0.199,0,0.399,0,0.6,0
													l-0.074,0.271l0.226,0.176c-0.546,0.252-1.283,0.313-2.1,0.299l0.074-0.276L62.909,99.7
													c0.407-0.602,0.657-3.371-0.15-3.729l0.075-0.276l-0.226-0.172c-0.049-0.354-0.653-0.146-0.75-0.447L62.086,94.901z
													 M73.408,98.656c1.599,0,3.198,0,4.798,0c0-1.193,0-2.387,0-3.581c-1.601,0-3.199,0-4.798,0
													C73.408,96.27,73.408,97.462,73.408,98.656z M79.405,98.656c1.198,0.002,2.454-0.058,3.448,0.149
													c0.245-0.925,0.245-2.81,0-3.73c-1.148,0-2.299,0-3.448,0C79.405,96.27,79.405,97.462,79.405,98.656z M72.208,98.805
													c0.241-0.646,0.117-2.307,0.149-3.582c-1.762-0.111-3.06,0.237-4.798,0.148c0,1.191,0,2.387,0,3.58
													c2.848,0,2.771,0.275,2.771,0.275l0.227,0.174C74.856,99.7,80.804,99.7,86.752,99.7c0.229-0.079,0.01-0.159-0.149-0.149
													c-5.26-0.343-11.796-0.462-17.244,0c1.2-0.146,1.273-0.425,1.273-0.425l-0.225-0.173
													C70.409,98.954,70.336,98.828,72.208,98.805z M84.054,98.805c1.656,0.072,1.799,0.077,3.147,0.146
													c0-1.193,0-2.389,0-3.58c-1.193,0.093-1.939-0.26-3.147-0.148C84.054,96.419,84.054,97.612,84.054,98.805z"/>
												<path d="M89.826,95.349l-0.075-0.274c1.564,0.165,2.339-0.458,3.75-0.448l-0.075,0.274l0.226,0.174
													c-0.128,0.32-0.771,0.126-0.899,0.447l-0.226,0.172l0.075,0.274c-0.2,0-0.399,0-0.601,0
													c-0.063,1.181,0.15,2.64-0.149,3.581c0.218,0.081,0.774-0.174,0.75,0.149l-0.226,0.171l0.075,0.276
													c-0.816,0.017-1.557-0.047-2.101-0.299l0.227-0.176l-0.075-0.271c0.637-0.16,0.146-2.545,0.301-3.583
													c-0.156-0.343-1.071,0.071-1.2-0.298L89.826,95.349z"/>
												<g>
													<path fill="none" stroke="#000000" stroke-width="0.6431" stroke-linecap="round" d="M94.974,101.269
														c-2.086,1.291-4.96,1.475-7.396,1.453"/>
													<path fill="none" stroke="#000000" stroke-width="0.6408" stroke-linecap="round" d="M97.402,146.977
														c0.014,0.03,0.021,0.062,0.033,0.095c-0.682,2.845-3.307,4.83-6.309,5.714c-5.058,1.491-12.675,1.459-18.93,1.074
														c-2.628-0.161-5.587-0.563-7.7-1.042c-5.16-1.177-11.326-4.402-10.158-10.214"/>
													<path fill="none" stroke="#000000" stroke-width="0.6669" stroke-linecap="round" d="M71.675,121.448
														c-0.05-0.021-0.096-0.041-0.145-0.059c-0.282-0.096-0.586,0.006-0.866-0.079c-0.372-0.181-0.863-0.476-0.99-1.127
														c-0.448-2.299-0.016-5.607-0.016-8.611c0-3.106,0.042-6.29-0.055-8.538"/>
													<path fill="none" stroke="#000000" stroke-width="0.6187" stroke-linecap="round" d="M65.385,102.661
														c-1.58-0.477-3.58-0.198-4.848-1.392"/>
													<path fill="none" stroke="#000000" stroke-width="0.5974" stroke-linecap="round" d="M60.467,89.21
														c1.149-0.741,2.563-0.844,3.868-1.123"/>
													<path fill="none" stroke="#000000" stroke-width="0.6481" stroke-linecap="round" d="M65.46,87.912
														c0.325-2.688,1.211-6.257,1.787-8.918c0.563-2.601,0.859-2.735,3.325-3.177c2.506-0.448,4.812-0.657,7.627-0.652
														c3.635,0.005,7.063,0.689,11.252,2.229"/>
													<path fill="none" stroke="#000000" stroke-width="0.5315" stroke-linecap="round" d="M89.901,76.719
														c-0.319-0.275-0.481-0.71-0.322-1.116"/>
													<path fill="none" stroke="#000000" stroke-width="0.5255" stroke-linecap="round" d="M93.125,67.592
														c0.315-0.039,0.583-0.209,0.899-0.249"/>
													<path fill="none" stroke="#000000" stroke-width="0.6476" stroke-linecap="round" d="M92.885,64.93
														c-0.135-2.191,5.618-2.542,8.725-1.934c1.094,0.214,2.578,0.661,2.825,1.31c0.028,0.197-0.003,0.456-0.096,0.688"/>
													<path fill="none" stroke="#000000" stroke-width="0.6434" stroke-linecap="round" d="M104.338,64.996
														c0.57,1.189-0.923,1.537-1.666,1.998"/>
													<path fill="none" stroke="#000000" stroke-width="0.5919" stroke-linecap="round" d="M102.872,67.343
														c0.874,0.302,1.997,0.332,2.601,1.097"/>
													<path fill="none" stroke="#000000" stroke-width="0.6579" stroke-linecap="round" d="M106.38,75.152
														c0.354,0.621,0.16,1.48-0.509,1.791"/>
													<path fill="none" stroke="#000000" stroke-width="0.6357" stroke-linecap="round" d="M107.82,77.317
														c0.201-1.866-0.479-4.673,1.949-5.35"/>
													<path fill="none" stroke="#000000" stroke-width="0.6736" stroke-linecap="round" d="M118.976,68.811
														c3.666,0.228,7.497-0.483,11.044,0.404"/>
													<path fill="none" stroke="#000000" stroke-width="0.6266" stroke-linecap="round" d="M130.02,69.216
														c1.122-3.78,6.704-4.57,8.563-0.902"/>
													<path fill="none" stroke="#000000" stroke-width="0.6002" stroke-linecap="round" d="M138.583,68.313
														c10.38-9.063,24.184-14.65,37.103-12.182c6.155,1.178,12.513,4.147,18.466,8.608c1.444,1.083,2.876,2.806,4.771,2.421
														c1.146-0.229,2.128-1.182,2.944-2.268c1.117-1.486,2.144-6.17,5.085-4.879c0.052,0.012,0.103,0.021,0.15,0.032"/>
													<path fill="none" stroke="#000000" stroke-width="0.6424" stroke-linecap="round" d="M207.104,60.049
														c1.396-2.469,5.733-1.884,7.854-0.715"/>
													<path fill="none" stroke="#000000" stroke-width="0.6181" stroke-linecap="round" d="M214.955,59.334
														c12.485-1.793,26.478,2.08,34.563,12.238"/>
													<path fill="none" stroke="#000000" stroke-width="0.8092" stroke-linecap="round" d="M249.519,71.572
														c0.271-0.131,0.441-0.249,0.629-0.344c4.5,0.062,9.053,0.104,13.552-0.021c0.253,0.072,0.434,0.198,0.555,0.397
														c0.043,0.26,0.059,0.539-0.044,0.789"/>
													<path fill="none" stroke="#000000" stroke-width="0.6803" stroke-linecap="round" d="M264.213,72.392
														c0.114,0.257,0.059,0.547,0.076,0.818"/>
													<path fill="none" stroke="#000000" stroke-width="0.6855" stroke-linecap="round" d="M264.289,73.212
														c1,0.226,2.085-0.093,3.08,0.185"/>
													<path fill="none" stroke="#000000" stroke-width="0.6413" stroke-linecap="round" d="M267.369,73.395
														c0.525-0.246,1.148,0.042,1.668-0.245c0.917,0.104,0.615,1.303,1.1,1.835"/>
													<path fill="none" stroke="#000000" stroke-width="0.6109" stroke-linecap="round" d="M270.136,74.985
														c5.178-0.195,6.761-4.853,7.78-9.273c5.157-22.272,22.386-48.456,49.705-44.646
														c23.4,3.262,37.075,28.478,40.536,49.509c4.242,25.805-2.844,58.884-26.171,73.619
														c-7.575,4.787-15.137,6.231-22.876,5.606c-18.778-1.513-33.114-19.267-39.22-37.529
														c-1.247-3.729-1.821-8.215-3.191-11.725c-1.328-3.396-3.885-4.317-6.521-4.92"/>
													<path fill="none" stroke="#000000" stroke-width="0.6943" stroke-linecap="round" d="M270.136,74.985
														c0.069,0.521-0.177,1.153,0.206,1.586"/>
													<path fill="none" stroke="#000000" stroke-width="0.6056" stroke-linecap="round" d="M270.342,76.571
														c6.44-0.085,8.192-6.828,9.378-11.605c3.947-15.895,14.559-35.849,33.817-41.379
														c26.017-7.47,45.57,17.041,51.627,40.422c3.514,13.563,3.771,28.779-0.07,42.83
														c-4.938,18.044-16.742,37.775-37.14,41.071c-4.739,0.768-9.413,0.632-13.708-0.565
														c-17.607-4.909-27.523-19.88-32.722-35.272c-1.1-3.254-1.761-6.842-2.695-10.146c-1.182-4.146-3.5-6.992-8.437-7.813"
														/>
													<path fill="none" stroke="#000000" stroke-width="0.6664" stroke-linecap="round" d="M270.342,76.571
														c0.519,5.794,0.42,11.762,0.053,17.542"/>
													<path fill="none" stroke="#000000" stroke-width="0.6056" stroke-linecap="round" d="M138.934,98.969
														c4.174,3.356,10.013,7.394,16.449,9.856c5.135,1.969,10.27,3.075,16.851,2.506c8.448-0.732,16.931-4.824,22.732-9.779
														c1.083-0.924,2.238-2.038,3.713-1.852c3.674,0.472,3.688,5.167,5.971,6.971c0.771,0.608,0.946,0.592,2.355,0.279
														c0.023-0.005,0.055-0.009,0.081-0.013"/>
													<path fill="none" stroke="#000000" stroke-width="0.6626" stroke-linecap="round" d="M207.084,106.939
														c1.556-1.441,1.147-4.729,1.282-7.548c0.229-4.859,0.509-9.917,0.748-14.675c0.095-1.852-0.019-4.486-0.156-7.019
														c-0.222-3.949-0.433-8.743-0.602-12.386c-0.094-1.974-0.004-4.137-1.254-5.268"/>
													<path fill="none" stroke="#000000" stroke-width="0.6434" stroke-linecap="round" d="M207.084,106.939
														c1.017,2.891,5.746,2.244,7.871,0.984"/>
													<path fill="none" stroke="#000000" stroke-width="0.6693" stroke-linecap="round" d="M214.955,107.922
														c0.248-16.15,0.248-32.438,0-48.591"/>
													<path fill="none" stroke="#000000" stroke-width="0.6273" stroke-linecap="round" d="M214.955,107.922
														c12.456,1.802,26.343-2.126,34.519-12.099"/>
													<path fill="none" stroke="#000000" stroke-width="0.6306" stroke-linecap="round" d="M249.473,95.824
														c4.291-5.969,5.259-13.893,2.295-20.634"/>
													<path fill="none" stroke="#000000" stroke-width="0.6233" stroke-linecap="round" d="M251.768,75.19
														c-0.673-0.748-1.255-1.713-1.5-2.688"/>
													<path fill="none" stroke="#000000" stroke-width="0.6385" stroke-linecap="round" d="M92.885,64.93
														c3.595-1.369,7.879-1.55,11.451,0.064"/>
													<path fill="none" stroke="#000000" stroke-width="0.6429" stroke-linecap="round" d="M95.075,65.901
														c1.71-1.403,5.333-1.526,6.808,0.188c0.009,0.164-0.096,0.363-0.21,0.559"/>
													<path fill="none" stroke="#000000" stroke-width="0.7121" stroke-linecap="round" d="M92.885,64.93
														c-0.473,1.166,0.906,1.501,1.526,2.1"/>
													<path fill="none" stroke="#000000" stroke-width="0.6071" stroke-linecap="round" d="M129.979,98.125
														c0.233,4.931,7.733,5.675,8.953,0.845"/>
													<path fill="none" stroke="#000000" stroke-width="0.6703" stroke-linecap="round" d="M138.934,98.969
														c-0.001-9.774,0.001-19.553-0.001-29.326c-0.133-0.441-0.327-0.862-0.35-1.33"/>
													<path fill="none" stroke="#000000" stroke-width="0.6769" stroke-linecap="round" d="M97.924,67.02
														c0.324,0.018,0.665-0.054,0.976,0.073"/>
													<path fill="none" stroke="#000000" stroke-width="0.6583" stroke-linecap="round" d="M98.899,67.094
														c0.659-0.132,1.363-0.103,2.023,0"/>
													<path fill="none" stroke="#000000" stroke-width="0.513" stroke-linecap="round" d="M100.922,67.094
														c0.1-0.006,0.2-0.025,0.301-0.049"/>
													<path fill="none" stroke="#000000" stroke-width="0.6902" stroke-linecap="round" d="M101.673,66.647
														c-1.827-1.043-4.205-0.915-6.146-0.249"/>
													<path fill="none" stroke="#000000" stroke-width="0.6705" stroke-linecap="round" d="M115.789,95.533
														c0.433,1.57-0.396,5.491,2.015,4.909c0.95-0.231,1.05-1.04,1.175-2.084"/>
													<path fill="none" stroke="#000000" stroke-width="0.8335" stroke-linecap="round" d="M118.976,98.358
														c-0.1-9.834-0.1-19.713,0-29.547"/>
													<path fill="none" stroke="#000000" stroke-width="0.6431" stroke-linecap="round" d="M118.976,68.811
														c0.443-1.874-2.391-3.02-2.958-0.973"/>
													<path fill="none" stroke="#000000" stroke-width="0.6267" stroke-linecap="round" d="M93.275,68.289
														c1.527-0.358,3.073-0.55,4.648-0.597"/>
													<path fill="none" stroke="#000000" stroke-width="0.1905" stroke-linecap="round" d="M97.924,67.691
														c0-0.208,0-0.439,0-0.672"/>
													<path fill="none" stroke="#000000" stroke-width="0.6427" stroke-linecap="round" d="M97.924,67.02
														c-0.803-0.042-1.612,0.055-2.396,0.022"/>
													<path fill="none" stroke="#000000" stroke-width="0.5191" stroke-linecap="round" d="M97.924,67.691
														c0.325-0.021,0.678,0.077,0.976-0.101"/>
													<path fill="none" stroke="#000000" stroke-width="0.6668" stroke-linecap="round" d="M98.899,67.592
														c0-0.145,0-0.318,0-0.498"/>
													<path fill="none" stroke="#000000" stroke-width="0.6665" stroke-linecap="round" d="M98.899,67.592
														c0.548,0.324,1.229,0.113,1.837,0.175"/>
													<path fill="none" stroke="#000000" stroke-width="0.2447" stroke-linecap="round" d="M100.735,67.766
														c0.155-0.167,0.174-0.482,0.188-0.673"/>
													<path fill="none" stroke="#000000" stroke-width="0.6105" stroke-linecap="round" d="M100.735,67.766
														c1.413,0.308,2.87,0.498,4.236,1.02"/>
													<path fill="none" stroke="#000000" stroke-width="0.6373" stroke-linecap="round" d="M91.927,69.532
														c4.27-1.239,9.176-1.395,13.345,0.298"/>
													<path fill="none" stroke="#000000" stroke-width="0.6396" stroke-linecap="round" d="M91.476,70.576
														c4.619-1.583,10.104-1.763,14.486,0.607"/>
													<path fill="none" stroke="#000000" stroke-width="0.666" stroke-linecap="round" d="M118.976,98.358
														c3.661-0.118,7.411,0.257,11.003-0.232"/>
													<path fill="none" stroke="#000000" stroke-width="0.6704" stroke-linecap="round" d="M129.979,98.125
														c0.207-9.602,0.125-19.289,0.042-28.909"/>
													<path fill="none" stroke="#000000" stroke-width="0.6388" stroke-linecap="round" d="M90.876,71.771
														c4.588-1.962,10.128-1.806,14.777-0.066"/>
													<path fill="none" stroke="#000000" stroke-width="0.6652" stroke-linecap="round" d="M89.976,75.003
														c5.139-2.079,11.345-2.133,16.405,0.148"/>
													<path fill="none" stroke="#000000" stroke-width="0.6931" stroke-linecap="round" d="M106.38,75.152
														c-0.01-0.546,0.111-1.123-0.109-1.643"/>
													<path fill="none" stroke="#000000" stroke-width="0.6823" stroke-linecap="round" d="M249.519,71.572
														c0.004,0.451,0.375,0.745,0.749,0.933"/>
													<path fill="none" stroke="#000000" stroke-width="0.7392" stroke-linecap="round" d="M107.82,90.748
														c0.054,2.575-0.039,4.392,2.141,4.911c0.961,0.233,4.604-0.221,5.826-0.126"/>
													<path fill="none" stroke="#000000" stroke-width="0.9971" stroke-linecap="round" d="M115.789,95.533
														c0.093-7.852,0.086-15.735,0.003-23.588"/>
													<path fill="none" stroke="#000000" stroke-width="0.6737" stroke-linecap="round" d="M251.768,75.19
														c1.138-0.293,2.372,0.047,3.523-0.188"/>
													<path fill="none" stroke="#000000" stroke-width="0.7021" stroke-linecap="round" d="M255.292,75.003
														c0.011-0.562,0.106-1.25,0.586-1.61c0.115-0.022,0.244-0.012,0.348-0.004c0.019,0.002,0.032,0.006,0.051,0.007"/>
													<path fill="none" stroke="#000000" stroke-width="0.6551" stroke-linecap="round" d="M256.275,73.395
														c0.602-0.063,1.27-0.461,1.814-0.01"/>
													<path fill="none" stroke="#000000" stroke-width="0.6706" stroke-linecap="round" d="M264.213,72.392
														c-4.644,0.072-9.331-0.148-13.944,0.11"/>
													<path fill="none" stroke="#000000" stroke-width="0.6982" stroke-linecap="round" d="M256.341,97.388
														c0.558,0.109,1.186,0.141,1.733-0.034"/>
													<path fill="none" stroke="#000000" stroke-width="0.66" stroke-linecap="round" d="M258.074,97.354
														c1.381-7.825,1.369-16.117,0.017-23.969"/>
													<path fill="none" stroke="#000000" stroke-width="0.6623" stroke-linecap="round" d="M267.369,73.395
														c1.53,7.81,1.357,16.156,0.064,23.993"/>
													<path fill="none" stroke="#000000" stroke-width="0.6342" stroke-linecap="round" d="M267.437,97.388
														c1.563,0.572,2.471-0.334,2.743-1.762"/>
													<path fill="none" stroke="#000000" stroke-width="0.7103" stroke-linecap="round" d="M270.181,95.628
														c-0.06-0.502-0.133-1.094,0.211-1.516"/>
													<path fill="none" stroke="#000000" stroke-width="0.6715" stroke-linecap="round" d="M258.074,97.354
														c3.084,0.202,6.267,0.138,9.362,0.034"/>
													<path fill="none" stroke="#000000" stroke-width="0.6721" stroke-linecap="round" d="M264.289,73.212
														c-2.043,0.236-4.165-0.103-6.2,0.173"/>
													<path fill="none" stroke="#000000" stroke-width="0.6362" stroke-linecap="round" d="M255.292,96.045
														c0.019,0.487,0.212,1.037,0.559,1.376c0.131,0.032,0.271,0.017,0.396,0c0.03-0.014,0.063-0.021,0.096-0.031"/>
													<path fill="none" stroke="#000000" stroke-width="0.6638" stroke-linecap="round" d="M256.341,97.388
														c1.338-7.863,1.478-16.164-0.064-23.993"/>
													<path fill="none" stroke="#000000" stroke-width="0.6746" stroke-linecap="round" d="M249.473,95.824
														c1.882,0.382,3.904-0.044,5.819,0.221"/>
													<path fill="none" stroke="#000000" stroke-width="0.6616" stroke-linecap="round" d="M255.292,96.045
														c0.06-0.028,0.119-0.061,0.18-0.094c0.917-5.317,1.316-13.363,0.412-19.393c-0.095-0.625-0.119-1.111-0.592-1.557"/>
													<path fill="none" stroke="#000000" stroke-width="0.6726" stroke-linecap="round" d="M66.585,87.887
														c0.415-0.151,0.872-0.066,1.273-0.262"/>
													<path fill="none" stroke="#000000" stroke-width="0.6589" stroke-linecap="round" d="M67.859,87.627
														c-0.027-2.802,0.578-5.52,0.728-8.297"/>
													<path fill="none" stroke="#000000" stroke-width="0.7549" stroke-linecap="round" d="M67.859,87.627
														c6.099-0.335,12.344-0.321,18.446-0.089"/>
													<path fill="none" stroke="#000000" stroke-width="0.639" stroke-linecap="round" d="M86.302,87.539
														c-0.109-2.858,0.604-5.624,1.323-8.354"/>
													<path fill="none" stroke="#000000" stroke-width="0.67" stroke-linecap="round" d="M86.302,87.539
														c1.679,0.19,3.403,0.554,5.099,0.448"/>
													<path fill="none" stroke="#000000" stroke-width="0.6162" stroke-linecap="round" d="M91.401,87.986
														c-1.584-3.149-3.395-6.746-1.976-10.296"/>
													<path fill="none" stroke="#000000" stroke-width="0.6381" stroke-linecap="round" d="M91.401,87.986
														c1.172,0.641,2.736,0.355,3.71,1.375c0.087,0.308-0.021,0.642,0.115,0.937"/>
													<path fill="none" stroke="#000000" stroke-width="0.667" stroke-linecap="round" d="M98.224,90.325
														c3.189,0.207,6.378,0.396,9.596,0.423"/>
													<path fill="none" stroke="#000000" stroke-width="0.6711" stroke-linecap="round" d="M107.82,90.748
														c0.125-4.455,0.125-8.977,0-13.431"/>
													<path fill="none" stroke="#000000" stroke-width="0.6071" stroke-linecap="round" d="M107.82,77.317
														c-0.563,0.07-1.097,0.293-1.648,0.422"/>
													<path fill="none" stroke="#000000" stroke-width="0.6362" stroke-linecap="round" d="M92.825,77.939
														c1.206,0.394,2.497,0.496,3.749,0.448"/>
													<path fill="none" stroke="#000000" stroke-width="0.6374" stroke-linecap="round" d="M100.473,78.486
														c0.425-0.223,0.923-0.022,1.35-0.249"/>
													<path fill="none" stroke="#000000" stroke-width="0.6829" stroke-linecap="round" d="M64.036,92.662
														c8.667-1.205,17.701-1.166,26.39-0.146"/>
													<path fill="none" stroke="#000000" stroke-width="0.6153" stroke-linecap="round" d="M93.575,92.215
														c0.509-0.104,0.972-0.398,1.5-0.425"/>
													<path fill="none" stroke="#000000" stroke-width="0.6996" stroke-linecap="round" d="M95.038,90.822
														c-11.213-2.317-23.355-2.393-34.576,0.021"/>
													<path fill="none" stroke="#000000" stroke-width="0.6146" stroke-linecap="round" d="M62.386,92.363
														c-0.698-0.176-1.352-0.51-2.066-0.637"/>
													<path fill="none" stroke="#000000" stroke-width="0.639" stroke-linecap="round" d="M61.487,93.161
														c-0.346,0.115-0.678,0.26-1.023,0.373"/>
													<path fill="none" stroke="#000000" stroke-width="0.5609" stroke-linecap="round" d="M60.887,94.503
														c0.412,0.107,0.778,0.33,1.198,0.397"/>
													<path fill="none" stroke="#000000" stroke-width="0.6374" stroke-linecap="round" d="M88.477,95.1
														c0.425,0.223,0.923,0.021,1.348,0.249"/>
													<path fill="none" stroke="#000000" stroke-width="0.6258" stroke-linecap="round" d="M93.425,93.01
														c0.539,0.173,1.081,0.303,1.617,0.489"/>
													<path fill="none" stroke="#000000" stroke-width="0.5613" stroke-linecap="round" d="M92.526,95.698
														c0.309,0.056,0.605,0.141,0.899,0.249"/>
													<path fill="none" stroke="#000000" stroke-width="0.6025" stroke-linecap="round" d="M95.042,94.412
														c-0.558,0.102-1.077,0.324-1.617,0.489"/>
													<path fill="none" stroke="#000000" stroke-width="0.6374" stroke-linecap="round" d="M89.227,99.427
														c0.427,0.225,0.924,0.022,1.351,0.247"/>
													<path fill="none" stroke="#000000" stroke-width="0.6374" stroke-linecap="round" d="M64.936,99.675
														c0.425-0.223,0.923-0.021,1.351-0.247"/>
													<path fill="none" stroke="#000000" stroke-width="0.5218" stroke-linecap="round" d="M62.836,95.698
														c-0.099,0.033-0.199,0.064-0.3,0.099"/>
													<path fill="none" stroke="#000000" stroke-width="0.5218" stroke-linecap="round" d="M92.376,99.875
														c0.101,0.033,0.2,0.066,0.3,0.1"/>
													<path fill="none" stroke="#000000" stroke-width="0.5218" stroke-linecap="round" d="M70.634,99.129
														c-0.1,0.034-0.199,0.065-0.3,0.102"/>
													<path fill="none" stroke="#000000" stroke-width="0.5218" stroke-linecap="round" d="M63.137,99.875
														c-0.099,0.033-0.2,0.066-0.301,0.1"/>
													<path fill="none" stroke="#000000" stroke-width="0.581" stroke-linecap="round" d="M61.487,100.324
														c-0.245,0.09-0.501,0.159-0.748,0.246"/>
													<path fill="none" stroke="#000000" stroke-width="0.5005" stroke-linecap="round" d="M67.286,100.523
														c0.108-0.215,0.314-0.383,0.501-0.498"/>
													<path fill="none" stroke="#000000" stroke-width="0.6266" stroke-linecap="round" d="M87.877,102.064
														c0.769-0.567,0.449-2.021-0.538-2.227"/>
													<path fill="none" stroke="#000000" stroke-width="0.6711" stroke-linecap="round" d="M83.004,121.474
														c0.038-0.016,0.083-0.031,0.127-0.053c0.877-0.193,2.129,0.192,2.539-0.923c0.154-5.81-0.132-11.666,0.145-17.45"/>
													<path fill="none" stroke="#000000" stroke-width="0.6902" stroke-linecap="round" d="M85.812,103.051
														c-0.095-0.243-0.129-0.524-0.175-0.703"/>
													<path fill="none" stroke="#000000" stroke-width="0.6647" stroke-linecap="round" d="M85.812,103.051
														c0.503-0.103,1.093,0.017,1.466-0.438"/>
													<path fill="none" stroke="#000000" stroke-width="0.6104" stroke-linecap="round" d="M97.402,146.977
														c0.748-0.786,0.431-2.645,0.289-3.412c-0.665-3.688-2.336-9.021-6.532-11.602c-0.531-0.321-1.021-0.546-1.625-0.848
														c-2.275-1.136-6.118-1.926-6.681-4.354c-0.375-1.619,0.431-3.673,0.148-5.287"/>
													<path fill="none" stroke="#000000" stroke-width="0.6772" stroke-linecap="round" d="M83.004,121.474
														c-3.729-0.24-7.591-0.188-11.326-0.026"/>
													<path fill="none" stroke="#000000" stroke-width="0.6246" stroke-linecap="round" d="M71.675,121.448
														c-0.253,2.003,0.191,4.102-0.247,6.061c-0.594,0.729-2.493,0.294-3.481,0.397c-0.844,0.091-1.951,0.4-2.798,0.604
														c-6.395,1.529-7.53,5.359-10.008,11.706"/>
													<path fill="none" stroke="#000000" stroke-width="0.6395" stroke-linecap="round" d="M97.402,146.977
														c-0.05-0.001-0.099-0.005-0.15-0.01c-7.84,3.75-19.163,4.853-29.638,3.357c-5.538-0.79-10.746-2.75-12.625-7.871"/>
												</g>
											</g>
										</g>
									</g>
								</g>
							</g>
						</g>
					</g>
				</g>
			</g>
		</g>
	</g>
	<line fill="none" stroke="#231F20" stroke-width="0.5" x1="62.958" y1="64.96" x2="78.768" y2="64.96"/>
	<g enable-background="new    ">
		<path fill="#231F20" d="M45.876,64.392l-1.599-4.875h0.688l0.76,2.4c0.203,0.658,0.383,1.251,0.521,1.822h0.015
			c0.138-0.563,0.333-1.179,0.558-1.815l0.824-2.407h0.673l-1.743,4.875H45.876z"/>
	</g>
	<g enable-background="new    ">
		<path fill="#231F20" d="M51.049,63.552c0,0.305,0.015,0.602,0.051,0.84h-0.571l-0.051-0.441h-0.021
			c-0.194,0.275-0.571,0.521-1.069,0.521c-0.709,0-1.071-0.499-1.071-1.006c0-0.847,0.752-1.31,2.104-1.302v-0.072
			c0-0.281-0.08-0.811-0.795-0.803c-0.333,0-0.673,0.094-0.919,0.26l-0.145-0.427c0.29-0.181,0.716-0.304,1.156-0.304
			c1.07,0,1.331,0.729,1.331,1.425V63.552L51.049,63.552z M50.433,62.606c-0.694-0.016-1.482,0.107-1.482,0.788
			c0,0.42,0.275,0.606,0.593,0.606c0.463,0,0.76-0.289,0.86-0.586c0.021-0.072,0.029-0.145,0.029-0.202V62.606z"/>
		<path fill="#231F20" d="M52.076,59.258h0.637v5.136h-0.637V59.258z"/>
	</g>
	<g enable-background="new    ">
		<path fill="#231F20" d="M54.03,60.891l0.687,1.96c0.116,0.325,0.211,0.614,0.282,0.903h0.021c0.08-0.289,0.181-0.578,0.297-0.903
			l0.68-1.96h0.666l-1.375,3.501H54.68l-1.331-3.501H54.03z"/>
	</g>
	<g enable-background="new    ">
		<path fill="#231F20" d="M57.553,62.758c0.015,0.861,0.557,1.216,1.2,1.216c0.456,0,0.738-0.079,0.97-0.182l0.115,0.456
			c-0.224,0.103-0.614,0.225-1.172,0.225c-1.078,0-1.721-0.717-1.721-1.771s0.622-1.881,1.642-1.881c1.15,0,1.447,0.998,1.447,1.643
			c0,0.13-0.007,0.225-0.021,0.296L57.553,62.758L57.553,62.758z M59.419,62.302c0.007-0.397-0.167-1.026-0.882-1.026
			c-0.65,0-0.926,0.586-0.977,1.026H59.419z"/>
	</g>
	<line fill="none" stroke="#231F20" stroke-width="0.5" x1="275.905" y1="134.396" x2="291.716" y2="134.396"/>
	<g enable-background="new    ">
		<path fill="#231F20" d="M245.755,131.368c0.318-0.058,0.781-0.102,1.207-0.102c0.674,0,1.114,0.13,1.41,0.396
			c0.239,0.218,0.384,0.55,0.384,0.935c0,0.637-0.404,1.063-0.91,1.235v0.022c0.368,0.13,0.593,0.477,0.709,0.982
			c0.157,0.681,0.273,1.149,0.375,1.338h-0.65c-0.08-0.145-0.188-0.557-0.318-1.164c-0.145-0.673-0.412-0.926-0.982-0.947h-0.593
			v2.111h-0.63L245.755,131.368L245.755,131.368z M246.384,133.589h0.645c0.673,0,1.099-0.369,1.099-0.926
			c0-0.63-0.455-0.904-1.121-0.904c-0.303,0-0.513,0.021-0.621,0.052L246.384,133.589L246.384,133.589z"/>
	</g>
	<g enable-background="new    ">
		<path fill="#231F20" d="M250.001,134.543c0.016,0.861,0.558,1.215,1.201,1.215c0.455,0,0.737-0.078,0.969-0.181l0.115,0.456
			c-0.224,0.102-0.614,0.224-1.172,0.224c-1.077,0-1.721-0.716-1.721-1.771s0.622-1.881,1.642-1.881
			c1.149,0,1.446,0.998,1.446,1.643c0,0.13-0.007,0.225-0.021,0.296L250.001,134.543L250.001,134.543z M251.867,134.088
			c0.007-0.397-0.167-1.026-0.882-1.026c-0.652,0-0.926,0.586-0.978,1.026H251.867z"/>
		<path fill="#231F20" d="M253.185,135.534c0.194,0.115,0.527,0.246,0.847,0.246c0.456,0,0.673-0.225,0.673-0.521
			c0-0.304-0.182-0.463-0.645-0.636c-0.638-0.23-0.934-0.571-0.934-0.991c0-0.563,0.463-1.026,1.208-1.026
			c0.354,0,0.666,0.095,0.854,0.218l-0.152,0.463c-0.137-0.087-0.391-0.21-0.716-0.21c-0.376,0-0.579,0.217-0.579,0.479
			c0,0.288,0.203,0.419,0.658,0.6c0.602,0.225,0.919,0.528,0.919,1.049c0,0.622-0.484,1.056-1.302,1.056
			c-0.384,0-0.738-0.101-0.984-0.244L253.185,135.534z"/>
		<path fill="#231F20" d="M256.491,134.543c0.015,0.861,0.557,1.215,1.201,1.215c0.455,0,0.737-0.078,0.969-0.181l0.115,0.456
			c-0.225,0.102-0.614,0.224-1.172,0.224c-1.077,0-1.722-0.716-1.722-1.771s0.622-1.881,1.643-1.881
			c1.148,0,1.446,0.998,1.446,1.643c0,0.13-0.008,0.225-0.021,0.296L256.491,134.543L256.491,134.543z M258.358,134.088
			c0.007-0.397-0.167-1.026-0.882-1.026c-0.652,0-0.927,0.586-0.978,1.026H258.358z"/>
	</g>
	<g enable-background="new    ">
		<path fill="#231F20" d="M259.762,133.769c0-0.412-0.008-0.768-0.028-1.094h0.557l0.029,0.694h0.021
			c0.158-0.47,0.55-0.767,0.978-0.767c0.063,0,0.115,0.008,0.174,0.015v0.601c-0.066-0.015-0.131-0.015-0.218-0.015
			c-0.448,0-0.768,0.333-0.854,0.812c-0.015,0.086-0.021,0.194-0.021,0.296v1.865h-0.637V133.769z"/>
	</g>
	<g enable-background="new    ">
		<path fill="#231F20" d="M262.547,132.677l0.688,1.961c0.116,0.325,0.211,0.614,0.283,0.903h0.021
			c0.079-0.289,0.182-0.578,0.297-0.903l0.681-1.961h0.665l-1.374,3.501h-0.607l-1.331-3.501H262.547z"/>
	</g>
	<g enable-background="new    ">
		<path fill="#231F20" d="M268.885,134.398c0,1.295-0.903,1.857-1.743,1.857c-0.939,0-1.679-0.693-1.679-1.801
			c0-1.164,0.773-1.852,1.736-1.852C268.205,132.604,268.885,133.335,268.885,134.398z M266.115,134.434
			c0,0.767,0.435,1.346,1.057,1.346c0.607,0,1.063-0.571,1.063-1.36c0-0.593-0.296-1.338-1.049-1.338
			C266.441,133.082,266.115,133.776,266.115,134.434z"/>
		<path fill="#231F20" d="M270.398,131.693c0,0.217-0.151,0.391-0.404,0.391c-0.231,0-0.384-0.174-0.384-0.391
			s0.159-0.397,0.396-0.397C270.24,131.296,270.398,131.469,270.398,131.693z M269.689,136.177v-3.501h0.637v3.501H269.689z"/>
		<path fill="#231F20" d="M271.382,133.769c0-0.412-0.006-0.768-0.027-1.094h0.558l0.028,0.694h0.021
			c0.159-0.47,0.551-0.767,0.978-0.767c0.064,0,0.116,0.008,0.173,0.015v0.601c-0.064-0.015-0.129-0.015-0.217-0.015
			c-0.447,0-0.767,0.333-0.854,0.812c-0.014,0.086-0.021,0.194-0.021,0.296v1.865h-0.638V133.769z"/>
	</g>
	<line fill="none" stroke="#231F20" stroke-width="0.5" x1="93.34" y1="134.396" x2="109.15" y2="134.396"/>
	<g enable-background="new    ">
		<path fill="#231F20" d="M116.48,134.037c-0.036-0.68-0.08-1.505-0.08-2.104h-0.014c-0.175,0.563-0.369,1.179-0.615,1.852
			l-0.861,2.364h-0.478l-0.795-2.321c-0.231-0.694-0.42-1.315-0.558-1.895h-0.014c-0.016,0.606-0.051,1.417-0.094,2.154l-0.131,2.09
			h-0.601l0.34-4.875h0.803l0.832,2.358c0.203,0.6,0.362,1.135,0.492,1.642h0.016c0.13-0.491,0.304-1.026,0.521-1.642l0.868-2.358
			h0.803l0.305,4.875h-0.622L116.48,134.037z"/>
	</g>
	<g enable-background="new    ">
		<path fill="#231F20" d="M120.67,135.339c0,0.305,0.015,0.602,0.051,0.839h-0.571l-0.051-0.44h-0.021
			c-0.195,0.275-0.571,0.521-1.07,0.521c-0.709,0-1.07-0.499-1.07-1.005c0-0.847,0.752-1.31,2.104-1.302v-0.072
			c0-0.281-0.08-0.811-0.795-0.803c-0.333,0-0.673,0.094-0.919,0.26l-0.145-0.427c0.29-0.181,0.716-0.304,1.156-0.304
			c1.07,0,1.331,0.729,1.331,1.425V135.339z M120.054,134.391c-0.694-0.016-1.482,0.107-1.482,0.788c0,0.42,0.275,0.606,0.593,0.606
			c0.463,0,0.759-0.289,0.86-0.586c0.021-0.072,0.029-0.145,0.029-0.202V134.391z"/>
		<path fill="#231F20" d="M121.611,135.534c0.195,0.115,0.528,0.246,0.846,0.246c0.456,0,0.672-0.225,0.672-0.521
			c0-0.304-0.181-0.463-0.644-0.636c-0.637-0.23-0.933-0.571-0.933-0.991c0-0.563,0.463-1.026,1.207-1.026
			c0.354,0,0.666,0.095,0.854,0.218l-0.152,0.463c-0.138-0.087-0.391-0.21-0.716-0.21c-0.376,0-0.579,0.217-0.579,0.479
			c0,0.288,0.203,0.419,0.658,0.6c0.601,0.225,0.918,0.528,0.918,1.049c0,0.622-0.484,1.056-1.302,1.056
			c-0.383,0-0.738-0.101-0.984-0.244L121.611,135.534z"/>
		<path fill="#231F20" d="M125.192,134.283h0.015c0.086-0.123,0.202-0.275,0.305-0.398l1.033-1.208h0.76l-1.346,1.439l1.541,2.062
			h-0.78l-1.2-1.678l-0.326,0.361v1.315h-0.629v-5.135h0.629L125.192,134.283L125.192,134.283z"/>
	</g>
	<line fill="none" stroke="#231F20" stroke-width="0.5" x1="168.973" y1="43.809" x2="184.781" y2="43.809"/>
	<g enable-background="new    ">
		<path fill="#231F20" d="M188.003,40.789c0.274-0.063,0.715-0.107,1.149-0.107c0.63,0,1.034,0.107,1.331,0.354
			c0.253,0.188,0.412,0.479,0.412,0.86c0,0.478-0.318,0.89-0.824,1.07v0.021c0.463,0.107,1.005,0.491,1.005,1.215
			c0,0.42-0.167,0.745-0.419,0.978c-0.333,0.311-0.883,0.454-1.679,0.454c-0.435,0-0.768-0.027-0.977-0.058L188.003,40.789
			L188.003,40.789z M188.632,42.785h0.571c0.658,0,1.048-0.354,1.048-0.824c0-0.563-0.426-0.796-1.062-0.796
			c-0.289,0-0.455,0.022-0.558,0.044V42.785z M188.632,45.114c0.131,0.021,0.305,0.029,0.527,0.029c0.651,0,1.252-0.239,1.252-0.947
			c0-0.658-0.572-0.94-1.259-0.94h-0.521L188.632,45.114L188.632,45.114z"/>
		<path fill="#231F20" d="M194.363,44.753c0,0.305,0.014,0.602,0.05,0.839h-0.571l-0.051-0.44h-0.021
			c-0.195,0.274-0.571,0.521-1.07,0.521c-0.709,0-1.07-0.499-1.07-1.005c0-0.847,0.752-1.31,2.104-1.302v-0.072
			c0-0.282-0.079-0.811-0.796-0.803c-0.332,0-0.672,0.094-0.918,0.26l-0.146-0.427c0.289-0.181,0.715-0.304,1.156-0.304
			c1.07,0,1.332,0.729,1.332,1.425V44.753z M193.747,43.805c-0.695-0.016-1.481,0.107-1.481,0.787c0,0.421,0.273,0.607,0.593,0.607
			c0.463,0,0.759-0.289,0.859-0.586c0.021-0.072,0.029-0.146,0.029-0.202V43.805L193.747,43.805z"/>
		<path fill="#231F20" d="M198.384,45.078c0,0.812-0.166,1.295-0.497,1.605c-0.349,0.312-0.841,0.42-1.281,0.42
			c-0.419,0-0.882-0.103-1.164-0.289l0.159-0.492c0.23,0.152,0.593,0.282,1.025,0.282c0.651,0,1.129-0.34,1.129-1.229v-0.384h-0.015
			c-0.188,0.326-0.571,0.586-1.114,0.586c-0.867,0-1.488-0.737-1.488-1.707c0-1.186,0.773-1.852,1.584-1.852
			c0.606,0,0.933,0.312,1.093,0.601h0.014l0.021-0.528h0.563c-0.021,0.246-0.029,0.535-0.029,0.955V45.078L198.384,45.078z
			 M197.747,43.472c0-0.108-0.007-0.202-0.035-0.282c-0.115-0.376-0.42-0.681-0.891-0.681c-0.607,0-1.041,0.515-1.041,1.323
			c0,0.688,0.354,1.259,1.034,1.259c0.396,0,0.753-0.245,0.882-0.65c0.037-0.108,0.051-0.231,0.051-0.34V43.472L197.747,43.472z"/>
	</g>
	<line fill="none" stroke="#231F20" stroke-width="0.5" x1="169.079" y1="43.583" x2="169.079" y2="55.581"/>
</g>
</svg>
