<?xml version="1.0" encoding="utf-8"?>
<!-- Generator: Adobe Illustrator 15.1.0, SVG Export Plug-In . SVG Version: 6.00 Build 0)  -->
<!DOCTYPE svg PUBLIC "-//W3C//DTD SVG 1.1//EN" "http://www.w3.org/Graphics/SVG/1.1/DTD/svg11.dtd">
<svg version="1.1" id="Layer_1" xmlns="http://www.w3.org/2000/svg" xmlns:xlink="http://www.w3.org/1999/xlink" x="0px" y="0px"
	 width="324.751px" height="166.605px" viewBox="39.443 32.719 324.751 166.605"
	 enable-background="new 39.443 32.719 324.751 166.605" xml:space="preserve">
<metadata><?xpacket begin="﻿" id="W5M0MpCehiHzreSzNTczkc9d"?>
<x:xmpmeta xmlns:x="adobe:ns:meta/" x:xmptk="Adobe XMP Core 5.0-c060 61.134777, 2010/02/12-17:32:00        ">
   <rdf:RDF xmlns:rdf="http://www.w3.org/1999/02/22-rdf-syntax-ns#">
      <rdf:Description rdf:about=""
            xmlns:dc="http://purl.org/dc/elements/1.1/">
         <dc:format>image/svg+xml</dc:format>
         <dc:title>
            <rdf:Alt>
               <rdf:li xml:lang="x-default">Print</rdf:li>
            </rdf:Alt>
         </dc:title>
      </rdf:Description>
      <rdf:Description rdf:about=""
            xmlns:xmp="http://ns.adobe.com/xap/1.0/"
            xmlns:xmpGImg="http://ns.adobe.com/xap/1.0/g/img/">
         <xmp:MetadataDate>2014-07-09T21:36:21+02:00</xmp:MetadataDate>
         <xmp:ModifyDate>2014-07-09T21:36:21+02:00</xmp:ModifyDate>
         <xmp:CreateDate>2014-07-09T21:36:21+02:00</xmp:CreateDate>
         <xmp:CreatorTool>Adobe Illustrator CS5</xmp:CreatorTool>
         <xmp:Thumbnails>
            <rdf:Alt>
               <rdf:li rdf:parseType="Resource">
                  <xmpGImg:width>256</xmpGImg:width>
                  <xmpGImg:height>132</xmpGImg:height>
                  <xmpGImg:format>JPEG</xmpGImg:format>
                  <xmpGImg:image>/9j/4AAQSkZJRgABAgEBMAEwAAD/7QAsUGhvdG9zaG9wIDMuMAA4QklNA+0AAAAAABABMMzNAAEA&#xA;AQEwzM0AAQAB/+4ADkFkb2JlAGTAAAAAAf/bAIQABgQEBAUEBgUFBgkGBQYJCwgGBggLDAoKCwoK&#xA;DBAMDAwMDAwQDA4PEA8ODBMTFBQTExwbGxscHx8fHx8fHx8fHwEHBwcNDA0YEBAYGhURFRofHx8f&#xA;Hx8fHx8fHx8fHx8fHx8fHx8fHx8fHx8fHx8fHx8fHx8fHx8fHx8fHx8fHx8f/8AAEQgAhAEAAwER&#xA;AAIRAQMRAf/EAaIAAAAHAQEBAQEAAAAAAAAAAAQFAwIGAQAHCAkKCwEAAgIDAQEBAQEAAAAAAAAA&#xA;AQACAwQFBgcICQoLEAACAQMDAgQCBgcDBAIGAnMBAgMRBAAFIRIxQVEGE2EicYEUMpGhBxWxQiPB&#xA;UtHhMxZi8CRygvElQzRTkqKyY3PCNUQnk6OzNhdUZHTD0uIIJoMJChgZhJRFRqS0VtNVKBry4/PE&#xA;1OT0ZXWFlaW1xdXl9WZ2hpamtsbW5vY3R1dnd4eXp7fH1+f3OEhYaHiImKi4yNjo+Ck5SVlpeYmZ&#xA;qbnJ2en5KjpKWmp6ipqqusra6voRAAICAQIDBQUEBQYECAMDbQEAAhEDBCESMUEFURNhIgZxgZEy&#xA;obHwFMHR4SNCFVJicvEzJDRDghaSUyWiY7LCB3PSNeJEgxdUkwgJChgZJjZFGidkdFU38qOzwygp&#xA;0+PzhJSktMTU5PRldYWVpbXF1eX1RlZmdoaWprbG1ub2R1dnd4eXp7fH1+f3OEhYaHiImKi4yNjo&#xA;+DlJWWl5iZmpucnZ6fkqOkpaanqKmqq6ytrq+v/aAAwDAQACEQMRAD8A9U4q7FXYq7FXYq7FXYq7&#xA;FXYq7FXYq7FXYq7FXYq7FXYq7FXYq7FXYq7FXYq7FXYq7FUv8wa7YaFpU+p3zEQwgURd3d2NFRQa&#xA;bsf6nbFWC22n+ePPCi8v7x9B8vzCsFnb1E8sZ6Fj8JowP2n2P++6GuFUafyW8oca+pdib/f/ADj5&#xA;1pSv93T8MCoGf/F/kB0ne6fXfK3JUlWSpuLdSQq0LE07Ab8O3FKg4Veh6ff2moWUN7ZyCa2uFDxS&#xA;L0IP6iOhHbAqIxV2KuxV2KuxV2KuxV2KuxV2KuxV2KuxV2KuxV2KuxV2KuxV2KsR8/2fn2b6jN5R&#xA;nSOSL1TdwysqpJxKTQj4gftvD6Tf5MhPbFVHy/F+ZNpfQW2oGC40mO7uYnuHo1y9qorbTMfUAq5Y&#xA;hupFFHGhLBVLrP8A5XP6OnpcfVY2b00u2VIn9LlKyO78payenDGsg4EEs9KEA0VVTJ+cT3FpJLbW&#xA;KRW0s0k8cD09dVSQKh5t8KsWX0t9/tPw6YqqfWvzgaGGlpZRTvEPWqFkRJTbIRT99GSBcc+fyULU&#xA;EuFWdIJFiVWb1JFUAsfh5MB126VxVL/rHmT/AJYLP/pMl/7JcVYT5xXUNY84+WNB1K3hitXlkupY&#xA;45nnjk9NS/FlaKL9iKRe/wBrFXpGKuxVTuraC6tpbW4QSQTo0U0Z6Mjjiyn5g4qwj8m5XbypNFzL&#xA;wwXksduSa/AUR9u27Ox28cVZ3irsVdirsVdirsVdirsVdirsVdirsVdirsVdirsVdirsVdirsVdi&#xA;rsVdirsVdirsVdirA/P4Fh5p8ra4SIYIJ3t7u6c8Y0SXio5s3wKODSbnFWa2V/Y38AuLG5iuoCaC&#xA;WB1kSo7clJGKq+KsL8/+a3hj/wAN6L/pHmDUh6KxxtQwpIN2Yj7LFfs7ig+I7DdVPvKnl+LQNBtd&#xA;MQh3iUtNKBTnK55OflU0WvagxVNsVdirsVdirsVdirsVdirsVdirsVdirsVdirsVdirsVdirsVdi&#xA;rsVdirsVdirsVdiqS+avNuleW7A3N4/KZwRbWikepKw8K9FH7THYfOgKrFNK8o6t5rvk13ziGS1A&#xA;J07RQWQRq3eSnFh0BI6t+1QDjhVE3n5Wra3T3nlbVbjRJ33eAM0sLkdAQWDUrX7ZcDsvbAq2Tyx+&#xA;ad2n1e68zxQQOKSS28SiXx+EpHAw/wBi64qnnlPyNo3ltHe3DXF/MP8ASL+ahkau7Bf5VJ3p37k0&#xA;xVkWKuxV2KuxV2KuxV2KuxV2KuxV2KuxV2KuxV2KuxV2KuxV2KuxV2KuxV2KuxV2KuxVjvnHzlae&#xA;XrVERPrWq3R4WNitSzsTQMwFTxrt7nYYqlXlTyTeNff4j80v9b12SjRQNxaO2ANU4gbc17U2Xtv8&#xA;WKs3xV2KqdxcW9tbyXFxIsNvCpkllkIVERRVmZjsABiqQDzBqw46rLbrFocskcNvbOrLeuJG4rcc&#xA;Sf2mIpBx58firy/d4qyPFXYq7FXYq7FXYq7FXYq7FXYq7FXYq7FXYq7FXYq7FXYq7FXYq7FXYq7F&#xA;XYq7FUp80+Y7Py9o02pXPxFfgghrQySsCVQH6Kk9gCcVY75F8sXkty/mzzB+81q+HK3iYUEETABa&#xA;Kfstx28VXbryxVkmoeavLWnO0d7qltBMmzQNKnq7/wDFYJfv4Yq1pfmry5qk3oWGowT3G5EAcCQg&#xA;bkhGoxHvTFUL5z1C/tLC3+oOy3BmEziMcnaK0RrqSMCh2m9EQn/X8cVQs0w1ILq+rq8GhwOr6bpr&#xA;q3q3MvIelNNFTkWLU9GGlQaMw58VRVNbGxuZ7ldT1NQLkA/VLSoZbZWFDuNmmYbO42H2V2qWVTTF&#xA;XYq7FXYq7FXYq7FXYq7FXYq7FXYq7FXYq7FXYq7FXYq7FXYq7FXYq7FXYq7FWA/mLoHmW/1vRtQ0&#xA;yyTU7aw5s1m7xoolqCGfm8fJSQuwP7NO+KqX+FfzA8xvz8yaqNLsCf8Ajm6fsxU0DKzAleg/aaQe&#xA;w6YqtsPIflSUi10SwSaGOqXWtXf+kR1BoywQvWCWT/K4emp/mIK4q3qn5byWWq6Zq+kCJ006dJri&#xA;2jgit55UVgzcDD6FuzUWgBjU7n4u2Kp8fMOkzeYYp1leVILHlAsEUs0jfW5iH5Rxq7qY/qgBquxY&#xA;g4qpainmS+1SHUNJtDC8EZSEatwFqOVeUsUcDNcLKwPElwKLsAKtVVlFv6/oR/WChn4j1TGCE50+&#xA;LjWppXpXFV+KuxV2KuxV2KuxV2KuxV2KuxV2KuxV2KuxV2KuxV2KuxV2KuxV2KuxV2KuxVQvryCx&#xA;sri9nJEFrE80pUVPCNSzUHfYYq8ju/OWuvfC58xM9tYKHu/qunXZtpEjhIK26MZLdZ3c8BLyNf8A&#xA;fYoTwVZRbanqmuWMN/cTpfaMWb9LaTYpJHcwE04wyB6SzRou8icEZ+oDKfTxVm1o9o9pC9mUa0ZF&#xA;NuYqemY6fDw47cadKYqq4qlNmn1LX7q0Ucbe/j+uwLWoEyMI7mg/ZB5xN7sWOKptirsVdirsVY9o&#xA;2j6dqmm22qapbx395qESXDm4USpGJVDiKFX5KiIDx+H7VKtVqnFURNZz6NDJdad61xbR/HNpjM0t&#xA;VA+L6ty5Mr0+zHXgaUAUnliqZWN9Z39nDeWcqz2twoeGZDVWU9xiqvirsVdirsVdirsVdirsVdir&#xA;sVdirsVdirsVdirsVdirsVdiqncW8Nzby286CSCZGjljbcMjCjKfYg4q8jk0E2fmZNCglcOssVrH&#xA;cNRrq4in4zyXEjsOLGGJXjj+Gi8G61oCqYa1ous+WNVt9RsrkvyIjt71wFEgG/1S9CAKVck8HVRQ&#xA;9AGpzVZJoWt2h9HUbQGPStUmMN3asd7LUWbiVYdFWZ/hNNi/Flr6hbArJL/ULKwtmubyVYYQQvI7&#xA;ksxoqqoqWZjsqgVJ6Yql9lHqN9q0WqzwiztYIJYLaCQVuJBO0bGSShpEP3Iom53+LifhxVM7y7t7&#xA;O0nvLhuFvbRtNM9CaIilmNBvsBirG4fzK8rjT4Ly/kk01riGO6jtLhOc/ozuEhcpbmenqFxxWvLx&#xA;A3xVVb8x/IySBJNZt42aWaFPUJQM1sCZSpYAMi8COY+GuwNcVab8xvKMZkWe8e2kjZk9KeCeOQlV&#xA;VqLGyBySG+FaVNGoPhaiqN0p4tKdNFuHCLyf9EliAJIN3EK/5UC/Bx7oA381FUdqeq6bpdo95qN1&#xA;FaWqEBppmCLVjRVBPUk7AdTirGvL9tNa6WmqaDS5sJpLhxp0bIIp7f13EEts9Qit6IXjvxdaVp9o&#xA;KsnsNQtNQtlubST1ImJU7FWVlPFkdWAZWVhRlIqDiqzV9VstJ0y61O+f07OzjaaeSleKKKk0GKpP&#xA;Z/mH5OurI3o1OKC3CxPyuT6B4TpzibjJxYBx0qOxxVGL5v8AK5tfrZ1S2S29aa2EskixqZbbl6yq&#xA;X48uARjt236Yqhp/P3lCCTg2qQMPqbagzxsJAtsjxx824cju0ygbYqr3XnLyta263U+qWyWpma2a&#xA;4MqemkyUBjdq0VqkCh8cVW23nfyhczNBFq9qZlk9IxmRVbn6zQAANSvKWNlWn2qGlcVdaedvKt0J&#xA;2h1O3KW8hikcyLxJCPJVWrQrxhkNf8lvDFUTY+ZfL1/eNZWOpW1zdpyL28UqvIvpkB+SgkjiWFa9&#xA;K4qmWKuxV2KuxV2KuxV2KuxV2KrLi4gtoJLi4kSGCFS8s0jBURFFWZmNAAB1JxVjOoeYdSu5YrXS&#xA;4pIWnBaAFQtzKo29XhIrrbwg9ZJkJPRYyStVUx0Xy99UuDqWoT/pDXJYVt5r9kRCIkYsIo1QKFTk&#xA;xJ7sdz2AVQfmDzJ5TmtrzSby4abkrRTpbRSzlHFRTnEjqkiMKipBU0OKsF0HVfq2pHS7y3uLmLXL&#xA;ZYL62tkJK3RjcwyIwoqMywyKWLbcUJIC1wlQzzSPL8V7ZW955hEeramVHMzrFJDC9OLrBGoaNN6h&#xA;iKsehYgDAqYf4Y8t/wDVps/+keL/AJpxVGx2trHbi2jhRLYKUECqAnE9V4gUpirEPMtl+X/lHSoN&#xA;Rn0C3MMDJa2620FuroDJ66qpkaJQokj5BQ3WlBiqTW3m/wDLkTNZP5faOaGRVCG0T0yLh50qrScA&#xA;eQD8lpVmb015yfDilkXlnTvI/mDR9O16x0WGOKWs1obi3RJ42AELH9ri3GFVqDuB1xQyDVtI0zV7&#xA;CWw1K3S6tJh8cUgqKjcMD1VlO6sNwdxirCdY8laTf2seg+Zri8eB51bTtVF3LxkckhIpI5XkiWYq&#xA;xSnDg4Pw0PwqqxSCxf8ALrVhZ63pkGq+WbyQmG9+ro8kbMakqSpNQAWeHvu0e4ZSq9Fh0PR29HzH&#xA;5Ths1uJYwVaJEWC7hI2VnQfA3hIBUdCGG2KpmkumeYdNurK4icKwMF/YylopoyeqtwIIr1VlajD4&#xA;lJFDiqCt/wAvvJttNbzQaZHFJaej6BVpBx+rENDtyoeBX4a+/icVak/LzybJp0GmvpqmytWka2i9&#xA;SX936y8JQpD8grj7S1oTuRXfFVU+R/KpuLu4+oKs1/HPDduryLzW7kEs5+FgA7uq/GPi+FQDRRRV&#xA;faeS/LFmQbawSIi5F4CC/wDfqqqrbt+yqKAvQeGKoaP8u/JkVutummIIEaJkj9SUhfRMhQLV9lrN&#xA;JyUbNyblWpxVpfy48lLw46Yq+kax8ZJRxIUqhWj7GMMfSP8AuuvwccVR+jeVdA0ae4n0y0W3mumL&#xA;TuGduRY8mPxM1OTfEadTU9ScVTXFXYq7FXYq7FXYq7FXYqhdR1O00+FZLhiWkbhBAg5SyyEVCRoN&#xA;2agr7Dc0AJxVKZ4x6baz5mljtrO1IlgsWYGGAqRwkmbpLNypT9lWpwqw5lV5joXnLWbvzZdS6B6S&#xA;QwtPcam15csPrkCMzIWWYkRP6PEIsa/BsXIX4cVZ1qnmC98wJ+jtBkmto7uIEXaKUnKSbeqOY/cw&#xA;jf8AeNRpKERfzhVHX/5feXJpFuLayghuIoyIoHTnZvIIzHE89tVVk4V9m2G+woqxCH8rPMM0mmRX&#xA;Z09IdPZWe4Ly3LSBBUJ6Xp2ylGdVLIW47UpTFXpWkaXaaVp0Gn2gpBApAJCgsWJZmIUKtWYkniAP&#xA;ADFUXirsVWSwQSmMyxrIYmEkRYBuLgEBlr0NCd8VX4q7FXYqp3Ntb3VvJb3MazQSqVkjcVVgexBx&#xA;Vjt/bwWllJpfmAfX/Ls44LfXB5NCK1C3Tkg/CaenP1H7RDDmyrCLmz8yfljqLXlhz1LyldSA3Nsx&#xA;HKNmIFa7BJKbK+yP9l6NxbCrPLS40nzPZQa5oV56V2g4R3Sj4lI3a3uYiV5LvujbivJSDRsCo/Tt&#xA;Y9ac2N9H9U1RAWNuTVZFGxlgfbmn/DL+0BiqZYq7FXYq7FXYq7FXYq7FXYq7FXYq7FXYqld5rLtc&#xA;vYaXELu/SgmYki3t695pBX4qbiNfiO3RTyCqS6zrWgeUIjqWs3TX2tXCMIxRfWdRQskEVeMMINK7&#xA;06cmZtyq81816f8Amb530K414RtbWFsPVsNMhBaV4zs8ltGwX1ZFjJKvJTn0QKHriqc+VfKWo3F/&#xA;CNMt7Ow0+O3NrrE/1cTJNMk0rmSITF/jbmjFGB9JgVY/DxdS9V03S7LTrf0bVCAx5yyMS8kjkAF5&#xA;HarOxp1P6sUIrFXYq7FXYq7FXYq7FXYq7FXYq0yqylWAKkUIO4IOKpBNaSaNDJEsDX/l2RSktjx9&#xA;WS2jIowjShMsFK1j3ZeiBloiqsH1Tyrq3lm7HmvyFMLrTp1VrnT0JljeLqKBSfVj3PEr8afs1UkB&#xA;VkmkedvKHm3Q5p7uRbKXT4/rV5FJJ6ctqEFTcRTLxPACtJE7bGm64qlP5bfmrceYtNvdRv7GaHy/&#xA;Bdvbab5hlCqtxGhp6lxGoHpf5UgHp1qPhIpil6SrKyhlIKkVBG4IOKG8VdirsVdirsVdirsVdirs&#xA;VQuoapYafGr3cwj9Q8YowC8kjfyxxqGd29lBOKpcyatqamS6Z9I0wDkYVcLdyKOvqyqSIF9o2Ld+&#xA;a7rirDtX/Mm3jZPLvkGzW/uzVI54UrbJv8RiA4iTdqmQkRitSx3GKvP9D0zVNR1CfWdZuDHqdvdM&#xA;Fa9pLGt/ZKzPY6ipDCNZgyGFk+Gg+AV4VUvboRquvRI91FLpWluoZrQkpdz1FaSMpBhj/wAkfG37&#xA;XDdSoTuCCGCFIII1ihiUJHEgCqqqKBVUbADFV+KuxV2KuxV2KuxV2KuxV2KuxV2KuxV2KpPcaVd2&#xA;VxJfaLxVpWL3emueME7Hq6EA+lL/AJQHFv2hWjKq8P8APWjR+evzFk8s+XdCa19C1e48y3F4HtUS&#xA;aYAxhOIYc2P7SVWTkTuAWxSzTyR5/tfLlvb+UfM1kNEfTo1gt7hV4W/pr8KmWhYJWn96CY2NTyHT&#xA;FDOho81mPrHl+ZIonHP9HyEmzkqK1jK1aAt4pVep4MTXFVaHzBaiZLbUEbTbxyEjiuKBJGOwEMwJ&#xA;jkJ7KDzp1UYqmmKuxV2KuxV2KuxVB6hrOmaeyJdTqk0u8NuoMk0lOvpwoGkf/YqcVQf1jX9QoLaA&#xA;aVanrPchZLkj/iuFCUSo3DSMSO8eKsb1vzr5L8oyzAStquvgcJwrCa4G4JWaY/u4Er8Xp/D/AJKY&#xA;q8682eYvO2uahZ23mC2uNN0S6Vrs2cQEafUrdh9akIkKvO8MZ5cXX+VljpUhVln5X3F5o/6S0SPT&#xA;mutTiWB5ZvT9Ieu/qCVJbsLwaAcFlhYcm9OTiFYo2Ks607yzBHqD6vqAiuNXmId5I4xHEhVeC8F3&#xA;LMqfD6jkvSoBVfhCqd4q7FXYq7FXYq7FXYq7FXYq7FXYq7FXYq7FXYq7FUBqWjWt86T8ntr6EEW9&#xA;9AQsyA9VqQyshO5RwVPcbDFWH/mBbX115Yu7PU9Pt59SWMrpes7xWscrkKssrVZ7fh9pgxKNTjy+&#xA;LjirA/Kdx540jUtZs/KK3F5pmiSRpd2N7Eqc2kDsWjtg/JeSr6itEw5h1PBsVZzpP5u+V9RSSw8w&#xA;W7aTcGsVzDdL6ttWnxK8nEcBTr6yJirJ7TSrGWBLrQdSkt7ZxWMW0iXFow6gLHJ6saL7RcMVV6+a&#xA;IaDhY31Tu/Kaz4j/AFON5y/4IYq2NT1RdpdHnZvGCW2dPvklhb/hcVcdU1Rto9HuFbxmltlX70ll&#xA;b/hcVa5+aJSUENjaDtN6s1136el6dr/xPFULqEEVtbm51/Xmt7Wv7wLImn24PakgInHy9bFWJ3f5&#xA;p+StHJt/Ldg2pXs7cQbeP0I5JT05zyL6kpb+ZFkrirDPOPmv8z9QnhsbyKTSIr6Fp7WyhWaH1I0k&#xA;jjcO0SzXbMrSqGXigIO60qcVZl5Usvyx8taLpWs81W61G3jurFbviboLKoakVuoATjz4syrt+02K&#xA;preXei+YJ7WfVb+xsLezdpbWFLmB7wM6NExadWKw8o3ZWWIk/wCWOmKp5Y6v5OsLZLWyv7C3t0rx&#xA;ijmhVak1J2bqTuT3xVHWut6Ndy+jaX9tcTEEiOKVHag6miknFWNeZPzDHlzVrq31HTy+mwQRTR3V&#xA;tMHnYyx3MtGgkWFFCrYS7iVifh23PFVBn86fKX1L66sN21syCaKTjCoeFoppVlBeVQFP1Z1+KhrS&#xA;oANcVppPzo8qyT3EENrfyzWsMc86JCjcUkt3uQQRJRvhj41G24avA88VpG6X+aGj6nqcFlb2V4iz&#xA;rO6zyoijhAZRyWMO0jc2tZVCBefw7rTfFUuuvzq8uxaRcagtler6Vu1xAk6RRCTj6YZeTS0TiZ0B&#xA;L0r+xyNKqaV5fzh8trfyWsdtczLC88U0qeiAr28kEbfC8qmlLpWNaEDqK7YoW235w+Xr4abNp8Fx&#xA;PZ3siRzyFUV4fUVqExF+bqrLRmQFeyliGAVpU0383PL2q6pY6ZpsU7Xd4BKsc6CI+gWkjLqCTuGj&#xA;XZqbMPeiqDj/ADs0CRdLK2k6vfTW0VzCWhLwrd20lxGyhZCZP7sDivxNX4QzUUqaR13+bvlm20+z&#xA;v2tr+SG/e4itlS3+MyWzqhRlZlKs/MFQ1PA0IIxQs8rfmpba7q9tpzaZPafW0T0pWeKRRK9ubsI3&#xA;BuShoVJUle24FRVVnWKuxV2KuxV2KuxVxAIoemKpL/htbOVp9Dn/AEYznlJaBBJZyNSlWgqvA+8T&#xA;JX9quKsR/MbSLvVIbObU9IPp6c8tzczWKvcy3Kxwv6NrFJD6VxGskpUyVCrQU598VYz5I/LA6joY&#xA;1TS/MU9pqRlkilu4QU9RYnKK3GFrWaMSAcuEhJANDXqVVXzRqf5oeShbPea/Fc2Vy0ywBvSdgLe2&#xA;lunZ/VgV6cIW/wB2neg74qmGj+a/zq1HTor6y0uxu7acsUkYQ1BRjGy1S+RTRkO4+/FVHVPOH50W&#xA;97a6fNplrb3d7HO9qkK24LC3CtKect5JGvEMPtUxVV0XRvzZ806TZ6je+YTp1hfxLcQxRkR3CRyg&#xA;MvJbaK3Nab09bFV+o/kxpVvpd9qGoaxNc6stvKIb2coiCUofTZ2lZpTR6dZhiqK/Ke7W18sj09El&#xA;m1MyOpu4YBEZ4GIdDJcTrbK3pc/SO5ZuHMCjDFWS6v5QbzLJbP5gjtkhtefpWsK+u1JU4SK80yhW&#xA;R16qIQQQCGqMVTrSdD0nSLf6vptqltHRQ3AfE3AcV5uas5A2BYnFUdirsVdiriAQQRUHYg4qpXNr&#xA;bXULQXMSzQuKNG4BBHyOKsKg87ebA7JL5QnSJ5kjiaF5HpHWDm8qvBFxolwAoXlVkevFULYqp2n5&#xA;h+ZpbSK4m8mX0G1XiYSGSMlp0A4iE8q+lH9mtBJU7DdVv/HXnNkjji8nSrM/1dwJZZUiVLhPUNWS&#xA;3kIaLZHUqCGrXbjyVWt5883ScjbeTblH9JJFacupDTLbgKAsTKzLJcHmOa0RGJ+IFQqrXvnfzVaO&#xA;jweU5ruzFnHPK8LTrOZGWH9zHC1uPsvc/tOpARyQONMVQFv5/wDO1xfWjp5SurWzuQsUvqxy80kK&#xA;Qys7gRVC8pZIxvT4SxIPw4pWn81NcjuLbT5PKk0WqXFr9cNj6kjScS37CCDm3AFQ5dUHI0FQrMFX&#xA;pQAGwFO+3vvihwAFSBSu59+2KuxV2KuxV2KuxV2KuxV2KuxVJda/wl9ZT9KfVv0hx/cdPrlP+KuH&#xA;7/x+xirFvM/+FPqZ+ufpP0PSn4+vx9bh6R9f6v8ApT/SOXpVr6HxUxVX8qfpD9CRf4d+u/oz1J/+&#xA;Oj9W+sfWPXk+s+p+3z9fnz9T4ufKuKqXmPn61r/iH1fU9K7+qfVvqn1j0/QP1rh6n7Po15U36UxV&#xA;MrDh9QtvX/TX6N9JPqvH0aenwHCn6M/fdKdf1VxVHad/gr67H6XofpTl8H1zl9er2/3q/wBIxVkO&#xA;KuxV2KuxV2KuxV2KuxV2KuxV2KuxV2KuxV2KuxV2Kv8A/9k=</xmpGImg:image>
               </rdf:li>
            </rdf:Alt>
         </xmp:Thumbnails>
      </rdf:Description>
      <rdf:Description rdf:about=""
            xmlns:xmpMM="http://ns.adobe.com/xap/1.0/mm/"
            xmlns:stRef="http://ns.adobe.com/xap/1.0/sType/ResourceRef#"
            xmlns:stEvt="http://ns.adobe.com/xap/1.0/sType/ResourceEvent#">
         <xmpMM:InstanceID>xmp.iid:F68B765B9D07E41183468BB91137401D</xmpMM:InstanceID>
         <xmpMM:DocumentID>xmp.did:F68B765B9D07E41183468BB91137401D</xmpMM:DocumentID>
         <xmpMM:OriginalDocumentID>uuid:5D20892493BFDB11914A8590D31508C8</xmpMM:OriginalDocumentID>
         <xmpMM:RenditionClass>proof:pdf</xmpMM:RenditionClass>
         <xmpMM:DerivedFrom rdf:parseType="Resource">
            <stRef:instanceID>uuid:29e17876-faee-8948-9286-1741a44a591b</stRef:instanceID>
            <stRef:documentID>xmp.did:F77F11740720681188C6A5613A2C864B</stRef:documentID>
            <stRef:originalDocumentID>uuid:5D20892493BFDB11914A8590D31508C8</stRef:originalDocumentID>
            <stRef:renditionClass>proof:pdf</stRef:renditionClass>
         </xmpMM:DerivedFrom>
         <xmpMM:History>
            <rdf:Seq>
               <rdf:li rdf:parseType="Resource">
                  <stEvt:action>saved</stEvt:action>
                  <stEvt:instanceID>xmp.iid:F68B765B9D07E41183468BB91137401D</stEvt:instanceID>
                  <stEvt:when>2014-07-09T21:36:21+02:00</stEvt:when>
                  <stEvt:softwareAgent>Adobe Illustrator CS5</stEvt:softwareAgent>
                  <stEvt:changed>/</stEvt:changed>
               </rdf:li>
            </rdf:Seq>
         </xmpMM:History>
      </rdf:Description>
      <rdf:Description rdf:about=""
            xmlns:illustrator="http://ns.adobe.com/illustrator/1.0/">
         <illustrator:StartupProfile>Print</illustrator:StartupProfile>
      </rdf:Description>
      <rdf:Description rdf:about=""
            xmlns:xmpTPg="http://ns.adobe.com/xap/1.0/t/pg/"
            xmlns:stDim="http://ns.adobe.com/xap/1.0/sType/Dimensions#"
            xmlns:xmpG="http://ns.adobe.com/xap/1.0/g/">
         <xmpTPg:HasVisibleOverprint>False</xmpTPg:HasVisibleOverprint>
         <xmpTPg:HasVisibleTransparency>False</xmpTPg:HasVisibleTransparency>
         <xmpTPg:NPages>1</xmpTPg:NPages>
         <xmpTPg:MaxPageSize rdf:parseType="Resource">
            <stDim:w>114.565100</stDim:w>
            <stDim:h>58.774535</stDim:h>
            <stDim:unit>Millimeters</stDim:unit>
         </xmpTPg:MaxPageSize>
         <xmpTPg:PlateNames>
            <rdf:Seq>
               <rdf:li>Cyan</rdf:li>
               <rdf:li>Magenta</rdf:li>
               <rdf:li>Yellow</rdf:li>
               <rdf:li>Black</rdf:li>
            </rdf:Seq>
         </xmpTPg:PlateNames>
         <xmpTPg:SwatchGroups>
            <rdf:Seq>
               <rdf:li rdf:parseType="Resource">
                  <xmpG:groupName>Default Swatch Group</xmpG:groupName>
                  <xmpG:groupType>0</xmpG:groupType>
               </rdf:li>
            </rdf:Seq>
         </xmpTPg:SwatchGroups>
      </rdf:Description>
      <rdf:Description rdf:about=""
            xmlns:pdf="http://ns.adobe.com/pdf/1.3/">
         <pdf:Producer>Adobe PDF library 9.90</pdf:Producer>
      </rdf:Description>
   </rdf:RDF>
</x:xmpmeta>
                                                                                                    
                                                                                                    
                                                                                                    
                                                                                                    
                                                                                                    
                                                                                                    
                                                                                                    
                                                                                                    
                                                                                                    
                                                                                                    
                                                                                                    
                                                                                                    
                                                                                                    
                                                                                                    
                                                                                                    
                                                                                                    
                                                                                                    
                                                                                                    
                                                                                                    
                                                                                                    
                           
<?xpacket end="w"?>
	</metadata>
<g>
	<g>
		<g>
			<g>
				<g>
					<g>
						<path fill="#808184" d="M308.043,99.436l0.812-1.578l0.154-0.407l0.1-0.355l0.054-0.308l0.053-0.253v-0.205l-0.053-0.152
							l-0.054-0.153l-0.051-0.152l-0.101-0.152l-0.153-0.103l-0.205-0.153l-0.205-0.152l-0.354-0.152l-0.354-0.104l-0.461-0.152
							l-0.406-0.053l-0.459-0.101l-0.461-0.052l-0.459-0.051h-0.508l-0.459-0.052h-0.561l-0.51,0.052h-0.56l-0.56,0.051
							l-0.562,0.052l-0.613,0.101l-0.61,0.053l-0.612,0.102l-0.611,0.153l-0.664,0.101l-0.61,0.152l-0.661,0.206l-0.714,0.153
							l-0.662,0.203l-0.713,0.205l-0.713,0.203l-0.714,0.255l-0.766,0.255l-0.714,0.254l-0.765,0.307l-0.766,0.305l-0.765,0.305
							l-0.765,0.308l-0.814,0.356l-0.812,0.356l-0.814,0.354l-0.561,0.254l-0.612,0.256l-0.562,0.203l-0.561,0.205l-0.507,0.152
							l-0.56,0.153l-0.461,0.153l-0.509,0.053l-0.459,0.1l-0.461,0.053h-0.459h-0.407l-0.457-0.053l-0.356-0.1l-0.397-0.104
							l-0.408-0.152l-0.354-0.205l-0.308-0.256l-0.307-0.305l-0.205-0.354l-0.205-0.408l-0.101-0.356l-0.101-0.457v-0.408
							l0.053-0.407l0.052-0.458l0.101-0.408l0.153-0.406l0.205-0.459l0.205-0.46l0.254-0.458l0.308-0.457l0.765-1.223l0.765-1.171
							l0.814-1.121l0.867-1.12l0.813-1.07l0.866-1.119l0.867-1.02l0.916-1.068l0.914-1.02l0.916-0.967l0.914-0.968l0.914-0.968
							l0.969-0.968l0.969-0.967l0.967-0.917l0.967-0.916l0.969-0.866l1.02-0.917l0.969-0.865l1.021-0.866l0.968-0.868l1.02-0.866
							l0.967-0.865l1.021-0.866l1.02-0.816l0.968-0.865l1.021-0.816l0.969-0.866l0.966-0.815l1.021-0.866l0.967-0.815l0.969-0.867
							l0.461-0.407l0.457-0.307l0.462-0.355l0.459-0.255l0.507-0.204l0.459-0.206l0.508-0.101l0.51-0.101h0.459h0.51l0.508,0.101
							l0.458,0.101l0.509,0.153l0.458,0.206l0.509,0.253l0.461,0.205l0.765,0.458l0.764,0.357l0.765,0.408l0.715,0.305l0.766,0.305
							l0.766,0.255l0.711,0.254l0.767,0.204l0.765,0.205l0.713,0.153l0.764,0.1l0.714,0.102l0.712,0.053h0.714h0.767l0.713-0.053
							l0.715-0.051l0.713-0.152l0.713-0.153l0.661-0.153l0.714-0.254l0.712-0.254l0.714-0.306l0.662-0.357l0.714-0.355l0.661-0.46
							l0.713-0.458l0.66-0.51l0.715-0.56l0.661-0.611l0.66-0.61l0.715-0.715l0.765-0.866l0.713-0.866l0.611-0.866l0.614-0.815
							l0.506-0.815l0.461-0.815l0.406-0.814l0.308-0.814l0.307-0.765l0.205-0.815l0.205-0.764l0.101-0.713l0.052-0.765l0.053-0.713
							l-0.053-0.713l-0.1-0.713l-0.102-0.662l-0.164-0.663l-0.254-0.712l-0.254-0.661l-0.309-0.612l-0.354-0.662l-0.408-0.611
							l-0.459-0.663l-0.506-0.61l-0.511-0.562l-0.61-0.61l-0.613-0.561l-0.661-0.561l-0.714-0.56l-0.764-0.51l-0.816-0.51
							l-0.611-0.408l-0.66-0.305l-0.613-0.306l-0.66-0.305l-0.66-0.255l-0.662-0.205l-0.663-0.203l-0.712-0.153l-0.661-0.103
							l-0.659-0.102l-0.716-0.1h-0.661l-0.714-0.053l-0.714,0.053l-0.713,0.05l-0.66,0.05l-0.717,0.103l-0.711,0.153l-0.713,0.152
							l-0.715,0.206l-0.713,0.204l-0.714,0.254l-0.661,0.305l-0.714,0.308l-0.713,0.305l-0.714,0.355l-0.661,0.407l-0.714,0.408
							l-0.66,0.458l-0.715,0.51l-0.661,0.51l-0.66,0.507l-0.405,0.357l-0.408,0.356l-0.355,0.407l-0.307,0.357l-0.355,0.408
							l-0.305,0.407l-0.307,0.458l-0.254,0.408l-0.256,0.458l-0.252,0.51l-0.205,0.458l-0.205,0.509l-0.207,0.508l-0.152,0.561
							l-0.152,0.509l-0.102,0.56l-0.154,0.612l-0.102,0.561l-0.051,0.61l-0.052,0.663l-0.054,0.61v0.663l-0.051,0.661l0.051,0.661
							l0.054,0.713l0.052,0.714l0.051,0.713l0.102,0.764l0.104,0.765l0.152,0.764l0.152,0.765l0.406,2.036
							c0.307,1.426-2.141,2.038-2.442,0.613l-0.461-2.141l-0.153-0.815l-0.15-0.813l-0.104-0.815l-0.102-0.815l-0.053-0.765
							l-0.101-0.813v-0.765l-0.054-0.713V51.61l0.054-0.713l0.054-0.713l0.051-0.712l0.103-0.713l0.101-0.662l0.103-0.662
							l0.151-0.661l0.205-0.612l0.203-0.661l0.205-0.612l0.253-0.561l0.255-0.611l0.254-0.56l0.354-0.561l0.308-0.51l0.354-0.508
							l0.355-0.51l0.406-0.509l0.407-0.458l0.459-0.458l0.46-0.408l0.46-0.408l0.765-0.613l0.715-0.56l0.764-0.508l0.766-0.51
							l0.764-0.458l0.767-0.458l0.765-0.407l0.766-0.357l0.816-0.355l0.764-0.308l0.812-0.305l0.766-0.203l0.814-0.255l0.814-0.152
							l0.812-0.153l0.765-0.153l0.815-0.053l0.815-0.05l0.812-0.052h0.765l0.814,0.052l0.814,0.102l0.764,0.101l0.814,0.153
							l0.766,0.205l0.765,0.204l0.765,0.254l0.766,0.255l0.766,0.356l0.715,0.356l0.765,0.356l0.713,0.458l0.866,0.561l0.867,0.56
							l0.767,0.611l0.765,0.662l0.715,0.663l0.713,0.661l0.611,0.662l0.559,0.765l0.562,0.713l0.46,0.763l0.46,0.765l0.354,0.814
							l0.355,0.814l0.254,0.814l0.205,0.815l0.152,0.866l0.1,0.868l0.055,0.916l-0.055,0.866l-0.05,0.917l-0.153,0.916l-0.207,0.917
							l-0.252,0.917l-0.355,0.916l-0.416,0.917l-0.461,0.916l-0.508,0.967l-0.561,0.917l-0.662,0.917l-0.713,0.967l-0.765,0.917
							l-0.812,0.917l-0.767,0.765l-0.713,0.764l-0.765,0.661l-0.766,0.612l-0.764,0.56l-0.812,0.562l-0.766,0.458l-0.812,0.458
							l-0.812,0.407l-0.817,0.357l-0.812,0.305l-0.814,0.255l-0.813,0.203l-0.813,0.206l-0.867,0.101l-0.813,0.102l-0.813,0.052
							l-0.867,0.051l-0.814-0.051l-0.865-0.052l-0.814-0.102l-0.867-0.153l-0.812-0.153l-0.867-0.203l-0.814-0.255l-0.814-0.254
							l-0.865-0.305l-0.812-0.357l-0.814-0.356l-0.812-0.357l-0.816-0.458l-0.813-0.407l-0.407-0.255l-0.354-0.153l-0.308-0.152
							l-0.308-0.102l-0.306-0.051l-0.256-0.052h-0.252h-0.254l-0.205,0.052l-0.254,0.051l-0.252,0.102l-0.309,0.152l-0.307,0.153
							l-0.307,0.255l-0.355,0.255l-0.405,0.305l-0.968,0.866l-0.967,0.815l-1.022,0.865l-0.966,0.867l-0.969,0.814l-1.019,0.866
							l-1.021,0.814l-0.967,0.866l-1.021,0.814l-0.968,0.867l-1.021,0.866l-0.968,0.866l-0.966,0.866l-0.969,0.867l-0.967,0.867
							l-0.968,0.866l-0.969,0.916l-0.968,0.916l-0.916,0.917l-0.914,0.917l-0.916,0.968l-0.915,0.917l-0.915,1.019l-0.867,0.967
							l-0.865,1.02l-0.869,1.02l-0.812,1.02l-0.815,1.068l-0.814,1.07l-0.766,1.068l-0.765,1.121l-0.765,1.171l-0.204,0.356
							l-0.204,0.408l-0.155,0.305l-0.151,0.306l-0.1,0.254l-0.054,0.254l-0.052,0.204v0.153v0.151l0.052,0.053v0.102l0.054,0.051
							l0.051,0.051l0.051,0.053l0.104,0.051h0.152l0.205,0.051l0.205,0.053h0.252l0.309-0.053h0.305l0.355-0.051l0.354-0.102
							l0.408-0.051l0.461-0.154l0.458-0.152l0.46-0.152l0.51-0.205l0.508-0.203l0.56-0.256l0.813-0.356l0.813-0.354l0.815-0.357
							l0.814-0.355l0.814-0.308l0.765-0.306l0.812-0.305l0.767-0.255l0.765-0.254l0.764-0.253l0.717-0.255l0.766-0.205l0.713-0.204
							l0.713-0.205l0.713-0.204l0.716-0.151l0.659-0.153l0.714-0.103l0.661-0.103l0.662-0.101l0.61-0.102l0.662-0.053l0.612-0.051
							l0.613-0.051h0.611h0.561h0.615l0.561,0.051l0.561,0.051l0.561,0.104l0.506,0.051l0.51,0.101l0.609,0.206l0.615,0.152
							l0.506,0.254l0.51,0.306l0.408,0.306l0.406,0.407l0.354,0.458l0.254,0.459l0.153,0.561l0.102,0.562v0.508l-0.052,0.561
							l-0.101,0.561l-0.205,0.561l-0.25,0.561l-0.815,1.682L308.043,99.436z"/>
					</g>
				</g>
			</g>
		</g>
		<g>
			<g>
				<g>
					<g>
						<path fill="none" stroke="#231F20" stroke-width="0.395" d="M308.043,99.436l0.812-1.578l0.154-0.407l0.1-0.355l0.054-0.308
							l0.053-0.253v-0.205l-0.053-0.152l-0.054-0.153l-0.051-0.152l-0.101-0.152l-0.153-0.103l-0.205-0.153l-0.205-0.152
							l-0.354-0.152l-0.354-0.104l-0.461-0.152l-0.406-0.053l-0.459-0.101l-0.461-0.052l-0.459-0.051h-0.508l-0.459-0.052h-0.561
							l-0.51,0.052h-0.56l-0.56,0.051l-0.562,0.052l-0.613,0.101l-0.61,0.053l-0.612,0.102l-0.611,0.153l-0.664,0.101l-0.61,0.152
							l-0.661,0.206l-0.714,0.153l-0.662,0.203l-0.713,0.205l-0.713,0.203l-0.714,0.255l-0.766,0.255l-0.714,0.254l-0.765,0.307
							l-0.766,0.305l-0.765,0.305l-0.765,0.308l-0.814,0.356l-0.812,0.356l-0.814,0.354l-0.561,0.254l-0.612,0.256l-0.562,0.203
							l-0.561,0.205l-0.507,0.152l-0.56,0.153l-0.461,0.153l-0.509,0.053l-0.459,0.1l-0.461,0.053h-0.459h-0.407l-0.457-0.053
							l-0.356-0.1l-0.397-0.104l-0.408-0.152l-0.354-0.205l-0.308-0.256l-0.307-0.305l-0.205-0.354l-0.205-0.408l-0.101-0.356
							l-0.101-0.457v-0.408l0.053-0.407l0.052-0.458l0.101-0.408l0.153-0.406l0.205-0.459l0.205-0.46l0.254-0.458l0.308-0.457
							l0.765-1.223l0.765-1.171l0.814-1.121l0.867-1.12l0.813-1.07l0.866-1.119l0.867-1.02l0.916-1.068l0.914-1.02l0.916-0.967
							l0.914-0.968l0.914-0.968l0.969-0.968l0.969-0.967l0.967-0.917l0.967-0.916l0.969-0.866l1.02-0.917l0.969-0.865l1.021-0.866
							l0.968-0.868l1.02-0.866l0.967-0.865l1.021-0.866l1.02-0.816l0.968-0.865l1.021-0.816l0.969-0.866l0.966-0.815l1.021-0.866
							l0.967-0.815l0.969-0.867l0.461-0.407l0.457-0.307l0.462-0.355l0.459-0.255l0.507-0.204l0.459-0.206l0.508-0.101l0.51-0.101
							h0.459h0.51l0.508,0.101l0.458,0.101l0.509,0.153l0.458,0.206l0.509,0.253l0.461,0.205l0.765,0.458l0.764,0.357l0.765,0.408
							l0.715,0.305l0.766,0.305l0.766,0.255l0.711,0.254l0.767,0.204l0.765,0.205l0.713,0.153l0.764,0.1l0.714,0.102l0.712,0.053
							h0.714h0.767l0.713-0.053l0.715-0.051l0.713-0.152l0.713-0.153l0.661-0.153l0.714-0.254l0.712-0.254l0.714-0.306l0.662-0.357
							l0.714-0.355l0.661-0.46l0.713-0.458l0.66-0.51l0.715-0.56l0.661-0.611l0.66-0.61l0.715-0.715l0.765-0.866l0.713-0.866
							l0.611-0.866l0.614-0.815l0.506-0.815l0.461-0.815l0.406-0.814l0.308-0.814l0.307-0.765l0.205-0.815l0.205-0.764l0.101-0.713
							l0.052-0.765l0.053-0.713l-0.053-0.713l-0.1-0.713l-0.102-0.662l-0.164-0.663l-0.254-0.712l-0.254-0.661l-0.309-0.612
							l-0.354-0.662l-0.408-0.611l-0.459-0.663l-0.506-0.61l-0.511-0.562l-0.61-0.61l-0.613-0.561l-0.661-0.561l-0.714-0.56
							l-0.764-0.51l-0.816-0.51l-0.611-0.408l-0.66-0.305l-0.613-0.306l-0.66-0.305l-0.66-0.255l-0.662-0.205l-0.663-0.203
							l-0.712-0.153l-0.661-0.103l-0.659-0.102l-0.716-0.1h-0.661l-0.714-0.053l-0.714,0.053l-0.713,0.05l-0.66,0.05l-0.717,0.103
							l-0.711,0.153l-0.713,0.152l-0.715,0.206l-0.713,0.204l-0.714,0.254l-0.661,0.305l-0.714,0.308l-0.713,0.305l-0.714,0.355
							l-0.661,0.407l-0.714,0.408l-0.66,0.458l-0.715,0.51l-0.661,0.51l-0.66,0.507l-0.405,0.357l-0.408,0.356l-0.355,0.407
							l-0.307,0.357l-0.355,0.408l-0.305,0.407l-0.307,0.458l-0.254,0.408l-0.256,0.458l-0.252,0.51l-0.205,0.458l-0.205,0.509
							l-0.207,0.508l-0.152,0.561l-0.152,0.509l-0.102,0.56l-0.154,0.612l-0.102,0.561l-0.051,0.61l-0.052,0.663l-0.054,0.61v0.663
							l-0.051,0.661l0.051,0.661l0.054,0.713l0.052,0.714l0.051,0.713l0.102,0.764l0.104,0.765l0.152,0.764l0.152,0.765l0.406,2.036
							c0.307,1.426-2.141,2.038-2.442,0.613l-0.461-2.141l-0.153-0.815l-0.15-0.813l-0.104-0.815l-0.102-0.815l-0.053-0.765
							l-0.101-0.813v-0.765l-0.054-0.713V51.61l0.054-0.713l0.054-0.713l0.051-0.712l0.103-0.713l0.101-0.662l0.103-0.662
							l0.151-0.661l0.205-0.612l0.203-0.661l0.205-0.612l0.253-0.561l0.255-0.611l0.254-0.56l0.354-0.561l0.308-0.51l0.354-0.508
							l0.355-0.51l0.406-0.509l0.407-0.458l0.459-0.458l0.46-0.408l0.46-0.408l0.765-0.613l0.715-0.56l0.764-0.508l0.766-0.51
							l0.764-0.458l0.767-0.458l0.765-0.407l0.766-0.357l0.816-0.355l0.764-0.308l0.812-0.305l0.766-0.203l0.814-0.255l0.814-0.152
							l0.812-0.153l0.765-0.153l0.815-0.053l0.815-0.05l0.812-0.052h0.765l0.814,0.052l0.814,0.102l0.764,0.101l0.814,0.153
							l0.766,0.205l0.765,0.204l0.765,0.254l0.766,0.255l0.766,0.356l0.715,0.356l0.765,0.356l0.713,0.458l0.866,0.561l0.867,0.56
							l0.767,0.611l0.765,0.662l0.715,0.663l0.713,0.661l0.611,0.662l0.559,0.765l0.562,0.713l0.46,0.763l0.46,0.765l0.354,0.814
							l0.355,0.814l0.254,0.814l0.205,0.815l0.152,0.866l0.1,0.868l0.055,0.916l-0.055,0.866l-0.05,0.917l-0.153,0.916l-0.207,0.917
							l-0.252,0.917l-0.355,0.916l-0.416,0.917l-0.461,0.916l-0.508,0.967l-0.561,0.917l-0.662,0.917l-0.713,0.967l-0.765,0.917
							l-0.812,0.917l-0.767,0.765l-0.713,0.764l-0.765,0.661l-0.766,0.612l-0.764,0.56l-0.812,0.562l-0.766,0.458l-0.812,0.458
							l-0.812,0.407l-0.817,0.357l-0.812,0.305l-0.814,0.255l-0.813,0.203l-0.813,0.206l-0.867,0.101l-0.813,0.102l-0.813,0.052
							l-0.867,0.051l-0.814-0.051l-0.865-0.052l-0.814-0.102l-0.867-0.153l-0.812-0.153l-0.867-0.203l-0.814-0.255l-0.814-0.254
							l-0.865-0.305l-0.812-0.357l-0.814-0.356l-0.812-0.357l-0.816-0.458l-0.813-0.407l-0.407-0.255l-0.354-0.153l-0.308-0.152
							l-0.308-0.102l-0.306-0.051l-0.256-0.052h-0.252h-0.254l-0.205,0.052l-0.254,0.051l-0.252,0.102l-0.309,0.152l-0.307,0.153
							l-0.307,0.255l-0.355,0.255l-0.405,0.305l-0.968,0.866l-0.967,0.815l-1.022,0.865l-0.966,0.867l-0.969,0.814l-1.019,0.866
							l-1.021,0.814l-0.967,0.866l-1.021,0.814l-0.968,0.867l-1.021,0.866l-0.968,0.866l-0.966,0.866l-0.969,0.867l-0.967,0.867
							l-0.968,0.866l-0.969,0.916l-0.968,0.916l-0.916,0.917l-0.914,0.917l-0.916,0.968l-0.915,0.917l-0.915,1.019l-0.867,0.967
							l-0.865,1.02l-0.869,1.02l-0.812,1.02l-0.815,1.068l-0.814,1.07l-0.766,1.068l-0.765,1.121l-0.765,1.171l-0.204,0.356
							l-0.204,0.408l-0.155,0.305l-0.151,0.306l-0.1,0.254l-0.054,0.254l-0.052,0.204v0.153v0.151l0.052,0.053v0.102l0.054,0.051
							l0.051,0.051l0.051,0.053l0.104,0.051h0.152l0.205,0.051l0.205,0.053h0.252l0.309-0.053h0.305l0.355-0.051l0.354-0.102
							l0.408-0.051l0.461-0.154l0.458-0.152l0.46-0.152l0.51-0.205l0.508-0.203l0.56-0.256l0.813-0.356l0.813-0.354l0.815-0.357
							l0.814-0.355l0.814-0.308l0.765-0.306l0.812-0.305l0.767-0.255l0.765-0.254l0.764-0.253l0.717-0.255l0.766-0.205l0.713-0.204
							l0.713-0.205l0.713-0.204l0.716-0.151l0.659-0.153l0.714-0.103l0.661-0.103l0.662-0.101l0.61-0.102l0.662-0.053l0.612-0.051
							l0.613-0.051h0.611h0.561h0.615l0.561,0.051l0.561,0.051l0.561,0.104l0.506,0.051l0.51,0.101l0.609,0.206l0.615,0.152
							l0.506,0.254l0.51,0.306l0.408,0.306l0.406,0.407l0.354,0.458l0.254,0.459l0.153,0.561l0.102,0.562v0.508l-0.052,0.561
							l-0.101,0.561l-0.205,0.561l-0.25,0.561l-0.815,1.682L308.043,99.436z"/>
					</g>
				</g>
			</g>
		</g>
		<g>
			<g>
				<g>
					<g>
						<path fill="#FFFFFF" d="M303.814,128.672l-15.789-20.427l15.279-11.767c10.084,1.936,15.582,9.065,16.35,21.342
							L303.814,128.672z"/>
					</g>
				</g>
			</g>
		</g>
		<g>
			<g>
				<g>
					<g>
						<path fill="none" stroke="#231F20" stroke-width="0.79" d="M303.814,128.672l-15.789-20.427l15.279-11.767
							c10.084,1.936,15.582,9.065,16.35,21.342L303.814,128.672z"/>
					</g>
				</g>
			</g>
		</g>
		<g>
			<g>
				<g>
					<g>
						<path fill="#BBBDBF" d="M289.656,137.381c-7.282-4.736-12.327-10.541-14.108-17.877c2.394-1.527,3.869-3.414,2.495-4.329
							c-1.936-1.223-3.209,0.509-3.668,2.597c-2.141-2.342-2.443-4.889-1.734-6.472c0.867-1.782,3.057-3.259,6.365-2.495
							c-1.834,1.478-1.732,3.055,0.355,4.79c3.004,0.205,3.974-0.765,2.902-2.901c8.506,4.533,14.362,12.326,18.385,21.9
							c-2.342-1.682-3.562-1.427-2.647,1.069c0.714,1.778,2.188,2.34,3.414,2.034c-1.222,4.889-4.229,5.957-8.966,3.207
							c1.734-0.813,3.564-2.442,1.021-3.973C291.49,133.816,289.604,135.04,289.656,137.381"/>
					</g>
				</g>
			</g>
		</g>
		<g>
			<g>
				<g>
					<g>
						<path fill="none" stroke="#231F20" stroke-width="0.79" d="M289.656,137.381c-7.282-4.736-12.327-10.541-14.108-17.877
							c2.394-1.527,3.869-3.414,2.495-4.329c-1.936-1.223-3.209,0.509-3.668,2.597c-2.141-2.342-2.443-4.889-1.734-6.472
							c0.867-1.782,3.057-3.259,6.365-2.495c-1.834,1.478-1.732,3.055,0.355,4.79c3.004,0.205,3.974-0.765,2.902-2.901
							c8.506,4.533,14.362,12.326,18.385,21.9c-2.342-1.682-3.562-1.427-2.647,1.069c0.714,1.778,2.188,2.34,3.414,2.034
							c-1.222,4.889-4.229,5.957-8.966,3.207c1.734-0.813,3.564-2.442,1.021-3.973C291.49,133.816,289.604,135.04,289.656,137.381z"
							/>
					</g>
				</g>
			</g>
		</g>
		<g>
			<g>
				<g>
					<g>
						<path fill="#FFFFFF" d="M301.166,139.113v-2.647c0.102-0.252,0.152-0.507,0.254-0.766c-0.102,0-0.152,0-0.254,0.052v-0.459
							c0.102,0.052,0.206,0.152,0.309,0.204l3.613-1.476C305.241,136.311,303.458,138.044,301.166,139.113 M301.166,132.084v-8.963
							c1.325,2.291,2.495,4.635,3.518,7.077L301.166,132.084z M282.525,111.406c0.205,0.561,0.205,1.019,0,1.375V111.406z
							 M301.166,123.121c-3.82-6.673-8.859-12.377-15.229-15.739l-3.414,3.261v0.252c8.354,4.483,14.108,12.123,18.08,21.547v-0.053
							l0.561-0.307L301.166,123.121L301.166,123.121z M301.166,135.293v0.459c-1.173,0.152-2.495-0.407-3.154-2.088
							c-0.918-2.444,0.254-2.747,2.547-1.172c-0.459,0.508-0.562,1.02-0.408,1.476C300.3,134.376,300.657,134.834,301.166,135.293
							 M301.166,136.465v2.646c-0.611,0.308-1.323,0.562-2.035,0.715c-0.154,0.052-0.256,0.104-0.408,0.104
							C299.843,139.369,300.657,138.195,301.166,136.465 M273.053,110.591c0.053-0.051,0.053-0.153,0.102-0.204
							c0.714-1.834,5.603-5.757,8.912-4.992c-0.916,0.766-3.107,2.547-2.955,3.463c0.307,2.293,2.395,2.854,3.209,2.037
							c0.103,0.154,0.154,0.358,0.205,0.511v1.375c-0.354,0.661-1.375,0.915-3.155,0.815c-2.089-1.734-2.188-3.309-0.354-4.789
							C276.159,108.146,274.121,109.164,273.053,110.591 M282.525,110.643l-0.103,0.101c0,0,0,0.052-0.049,0.052l0.151,0.102
							V110.643L282.525,110.643z"/>
					</g>
				</g>
			</g>
		</g>
		<g>
			<g>
				<g>
					<g>
						<path fill="none" stroke="#231F20" stroke-width="0.79" d="M273.053,110.591c0.053-0.051,0.053-0.153,0.102-0.204
							c0.713-1.834,5.603-5.755,8.912-4.992c-0.914,0.766-3.106,2.547-2.955,3.465c0.307,2.291,2.395,2.852,3.209,2.037
							c0.969,1.986,0,2.901-2.952,2.701c-2.089-1.733-2.19-3.311-0.354-4.791C276.159,108.146,274.12,109.164,273.053,110.591z
							 M282.374,110.795c0.052,0,0.052-0.052,0.052-0.052l3.514-3.362c8.558,4.483,14.721,13.243,18.746,22.817l-4.076,2.19v0.051
							C296.582,122.967,290.777,115.277,282.374,110.795z M300.557,132.491c-0.459,0.509-0.562,1.021-0.406,1.478
							c0.203,0.506,0.66,1.02,1.324,1.527l3.613-1.477c0.155,2.953-2.749,4.941-5.957,5.807c-0.152,0.051-0.254,0.102-0.406,0.102
							c1.272-0.662,2.141-2.088,2.699-4.23c-1.221,0.308-2.699-0.254-3.412-2.033C297.092,131.218,298.264,130.912,300.557,132.491z
							"/>
					</g>
				</g>
			</g>
		</g>
		<g>
			<g>
				<g>
					<g>
						<path fill="none" stroke="#231F20" stroke-width="0.79" d="M57.76,120.318l6.213,6.062l3.262,2.956l3.261,2.9l3.208,2.802
							l3.157,2.854l3.208,2.801l3.157,2.699l3.108,2.701l3.156,2.594l3.108,2.601l3.107,2.442l3.108,2.396l3.056,2.338l3.107,2.244
							l3.056,2.141l3.108,2.033l3.107,1.989l3.056,1.835l3.108,1.73l3.107,1.631l3.157,1.525l3.107,1.377l3.157,1.272l3.158,1.121
							l3.209,1.018l3.259,0.869l3.262,0.765l3.261,0.609l3.361,0.46l3.361,0.308l3.463,0.203h3.515l3.362-0.151l3.361-0.255
							l3.361-0.405l3.414-0.509l3.361-0.662l3.361-0.764l3.414-0.865l3.361-0.969l3.363-1.119l3.361-1.172l3.309-1.326l3.363-1.426
							l3.361-1.476l3.311-1.579l3.31-1.681l3.31-1.782l3.312-1.781l3.31-1.935l3.262-1.99l3.209-2.034l3.26-2.089l3.21-2.142
							l3.157-2.241l3.154-2.24l3.156-2.294l3.107-2.341l3.057-2.345l3.055-2.393l3.004-2.396l3.004-2.442l2.955-2.396l6.978-4.684
							c4.685-3.109,15.024,9.779,10.542,13.141l-6.417,4.789l-3.058,2.549l-3.106,2.547l-3.106,2.496l-3.211,2.494l-3.207,2.496
							l-3.263,2.444l-3.31,2.396l-3.362,2.395l-3.362,2.342l-3.412,2.295l-3.462,2.24l-3.518,2.188l-3.515,2.142l-3.562,2.088
							l-3.562,1.988l-3.617,1.935l-3.668,1.836l-3.719,1.732l-3.715,1.682l-3.717,1.579l-3.82,1.476l-3.822,1.324l-3.769,1.273
							L191,194.699l-3.871,1.019l-3.975,0.916l-3.973,0.767l-3.975,0.611l-4.023,0.459l-4.021,0.307l-4.076,0.152h-4.277
							l-4.229-0.205l-4.176-0.408l-4.075-0.56l-4.023-0.714l-3.974-0.916l-3.922-1.066l-3.869-1.222l-3.77-1.375l-3.718-1.475
							l-3.667-1.63l-3.669-1.781l-3.563-1.834l-3.514-1.988l-3.464-2.088l-3.463-2.188l-3.414-2.242l-3.361-2.344l-3.361-2.443
							l-3.309-2.496l-3.311-2.548l-3.261-2.647l-3.31-2.646l-3.261-2.75l-3.208-2.803l-3.262-2.802l-3.259-2.853l-3.261-2.855
							l-3.209-2.9l-3.261-2.955l-3.309-2.901l-7.183-6.671C40.903,128.57,53.584,116.193,57.76,120.318z"/>
					</g>
				</g>
			</g>
		</g>
		<g>
			<g>
				<g>
					<g>
						<line fill="none" stroke="#231F20" stroke-width="1.58" x1="111.851" y1="175.682" x2="108.744" y2="181.693"/>
					</g>
				</g>
			</g>
		</g>
		<g>
			<g>
				<g>
					<g>
						<line fill="none" stroke="#231F20" stroke-width="1.58" x1="129.575" y1="184.494" x2="126.876" y2="190.71"/>
					</g>
				</g>
			</g>
		</g>
		<g>
			<g>
				<g>
					<g>
						<line fill="none" stroke="#231F20" stroke-width="1.58" x1="148.165" y1="189.333" x2="147.452" y2="196.105"/>
					</g>
				</g>
			</g>
		</g>
		<g>
			<g>
				<g>
					<g>
						<line fill="none" stroke="#231F20" stroke-width="1.58" x1="167.316" y1="190.148" x2="167.621" y2="196.921"/>
					</g>
				</g>
			</g>
		</g>
		<g>
			<g>
				<g>
					<g>
						<line fill="none" stroke="#231F20" stroke-width="1.58" x1="206.381" y1="180.572" x2="208.673" y2="186.939"/>
					</g>
				</g>
			</g>
		</g>
		<g>
			<g>
				<g>
					<g>
						<line fill="none" stroke="#231F20" stroke-width="1.58" x1="226.195" y1="170.335" x2="229.404" y2="176.294"/>
					</g>
				</g>
			</g>
		</g>
		<g>
			<g>
				<g>
					<g>
						<line fill="none" stroke="#231F20" stroke-width="1.58" x1="242.341" y1="159.995" x2="246.415" y2="165.395"/>
					</g>
				</g>
			</g>
		</g>
		<g>
			<g>
				<g>
					<g>
						<line fill="none" stroke="#231F20" stroke-width="1.58" x1="258.791" y1="147.516" x2="262.916" y2="152.864"/>
					</g>
				</g>
			</g>
		</g>
	</g>
	<g enable-background="new    ">
		<path fill="#231F20" d="M112.82,185.145l0.696-1.271l-2.303-1.26l0.327-0.597l4.305-2.116l0.532,0.292l-1.882,3.44l0.717,0.393
			l-0.327,0.598l-0.717-0.393l-0.696,1.271L112.82,185.145z M113.842,183.276l1.309-2.394l-2.972,1.484L113.842,183.276z"/>
	</g>
	<g enable-background="new    ">
		<path fill="#231F20" d="M129.575,191.27l0.757,0.201c-0.074,0.377-0.044,0.69,0.09,0.941c0.134,0.252,0.341,0.428,0.62,0.527
			c0.337,0.121,0.668,0.096,0.991-0.074c0.324-0.17,0.562-0.466,0.712-0.885c0.144-0.399,0.144-0.755,0.003-1.066
			c-0.143-0.31-0.395-0.53-0.757-0.66c-0.226-0.081-0.447-0.103-0.665-0.065s-0.408,0.119-0.57,0.245l-0.626-0.321l1.601-2.729
			l2.833,1.016l-0.24,0.668l-2.273-0.814l-0.855,1.422c0.428-0.116,0.829-0.106,1.205,0.027c0.497,0.179,0.855,0.501,1.074,0.968
			c0.219,0.468,0.23,0.973,0.036,1.514c-0.185,0.516-0.495,0.908-0.93,1.175c-0.53,0.331-1.112,0.383-1.744,0.156
			c-0.519-0.186-0.89-0.481-1.113-0.89C129.499,192.218,129.45,191.766,129.575,191.27z"/>
	</g>
	<g enable-background="new    ">
		<path fill="#231F20" d="M153.39,193.013l-0.74,0.041c-0.06-0.293-0.148-0.507-0.267-0.642c-0.196-0.217-0.441-0.328-0.735-0.334
			c-0.237-0.006-0.446,0.055-0.627,0.184c-0.238,0.165-0.428,0.409-0.57,0.733c-0.142,0.325-0.223,0.79-0.242,1.394
			c0.185-0.268,0.408-0.465,0.67-0.591c0.261-0.126,0.534-0.186,0.817-0.179c0.495,0.011,0.913,0.203,1.253,0.574
			c0.34,0.373,0.503,0.848,0.49,1.426c-0.009,0.379-0.099,0.73-0.27,1.053c-0.171,0.322-0.401,0.566-0.692,0.733
			c-0.29,0.167-0.617,0.246-0.979,0.237c-0.619-0.014-1.119-0.253-1.499-0.717c-0.379-0.465-0.558-1.219-0.534-2.265
			c0.027-1.169,0.262-2.015,0.706-2.534c0.387-0.454,0.9-0.674,1.539-0.659c0.476,0.011,0.863,0.153,1.16,0.427
			C153.167,192.168,153.34,192.541,153.39,193.013z M150.298,195.552c-0.006,0.256,0.042,0.502,0.146,0.737
			c0.104,0.236,0.251,0.418,0.444,0.545c0.193,0.127,0.396,0.193,0.611,0.197c0.313,0.008,0.586-0.112,0.817-0.36
			c0.231-0.248,0.352-0.589,0.362-1.023c0.009-0.419-0.094-0.751-0.312-0.997c-0.217-0.245-0.495-0.371-0.833-0.379
			c-0.336-0.008-0.624,0.105-0.863,0.341S150.307,195.161,150.298,195.552z"/>
	</g>
	<g enable-background="new    ">
		<path fill="#231F20" d="M169.352,192.521l-0.096-0.707l3.883-0.525l0.076,0.572c-0.326,0.459-0.631,1.05-0.916,1.773
			c-0.283,0.725-0.48,1.457-0.588,2.195c-0.08,0.521-0.1,1.084-0.059,1.688l-0.758,0.103c-0.057-0.474-0.039-1.057,0.047-1.747
			c0.088-0.693,0.254-1.371,0.502-2.037s0.529-1.236,0.846-1.713L169.352,192.521z"/>
	</g>
	<g enable-background="new    ">
		<path fill="#231F20" d="M191.923,190.376c-0.327-0.003-0.597-0.078-0.808-0.226c-0.21-0.147-0.363-0.358-0.461-0.634
			c-0.146-0.415-0.121-0.816,0.076-1.205c0.199-0.389,0.546-0.67,1.041-0.846c0.498-0.176,0.949-0.174,1.355,0.008
			s0.683,0.479,0.83,0.895c0.094,0.265,0.105,0.52,0.037,0.764c-0.07,0.245-0.229,0.471-0.473,0.678
			c0.391-0.01,0.723,0.08,0.996,0.27c0.272,0.188,0.471,0.46,0.596,0.812c0.174,0.488,0.146,0.959-0.08,1.413
			c-0.229,0.454-0.623,0.781-1.186,0.98s-1.076,0.194-1.539-0.018c-0.463-0.21-0.783-0.565-0.959-1.063
			c-0.131-0.371-0.148-0.714-0.049-1.031C191.4,190.856,191.607,190.591,191.923,190.376z M191.363,189.239
			c0.096,0.271,0.26,0.46,0.494,0.568c0.234,0.109,0.49,0.115,0.768,0.018c0.27-0.096,0.461-0.259,0.572-0.49
			c0.113-0.23,0.125-0.469,0.039-0.716c-0.092-0.257-0.257-0.441-0.497-0.554c-0.239-0.112-0.491-0.121-0.757-0.026
			c-0.266,0.094-0.457,0.258-0.573,0.492C191.293,188.765,191.277,189.001,191.363,189.239z M192.07,191.953
			c0.07,0.2,0.186,0.376,0.348,0.529c0.16,0.153,0.353,0.248,0.576,0.284c0.223,0.036,0.441,0.016,0.656-0.061
			c0.334-0.118,0.572-0.323,0.715-0.617c0.141-0.292,0.153-0.604,0.035-0.936c-0.119-0.337-0.33-0.576-0.633-0.717
			s-0.621-0.152-0.959-0.032c-0.33,0.116-0.564,0.322-0.703,0.617C191.967,191.315,191.954,191.626,192.07,191.953z"/>
	</g>
	<g enable-background="new    ">
		<path fill="#231F20" d="M209.861,185.109l0.65-0.3c0.169,0.296,0.36,0.487,0.571,0.573c0.212,0.085,0.443,0.082,0.694-0.007
			c0.215-0.076,0.387-0.192,0.514-0.349s0.213-0.334,0.259-0.535c0.046-0.202,0.054-0.455,0.024-0.76
			c-0.029-0.307-0.096-0.604-0.199-0.894c-0.011-0.031-0.028-0.077-0.053-0.139c-0.062,0.272-0.188,0.522-0.382,0.745
			c-0.193,0.225-0.432,0.388-0.714,0.488c-0.472,0.167-0.933,0.138-1.38-0.088c-0.448-0.227-0.771-0.621-0.971-1.18
			c-0.205-0.58-0.199-1.105,0.017-1.579s0.581-0.801,1.095-0.983c0.37-0.131,0.745-0.151,1.123-0.062
			c0.379,0.091,0.713,0.293,1.003,0.606c0.291,0.312,0.56,0.818,0.808,1.52c0.259,0.729,0.386,1.337,0.381,1.825
			s-0.124,0.9-0.357,1.235c-0.232,0.337-0.559,0.58-0.979,0.729c-0.446,0.158-0.854,0.164-1.225,0.018
			C210.371,185.826,210.077,185.539,209.861,185.109z M211.836,181.576c-0.143-0.402-0.362-0.684-0.66-0.843
			c-0.298-0.16-0.597-0.188-0.897-0.081c-0.312,0.111-0.537,0.334-0.679,0.67c-0.141,0.336-0.139,0.706,0.005,1.11
			c0.129,0.364,0.343,0.62,0.643,0.77c0.299,0.148,0.609,0.166,0.931,0.052c0.324-0.114,0.551-0.322,0.68-0.623
			C211.985,182.33,211.979,181.979,211.836,181.576z"/>
	</g>
	<g enable-background="new    ">
		<path fill="#231F20" d="M232.768,174.965l-0.662,0.338l-2.15-4.218c-0.082,0.233-0.214,0.492-0.395,0.776
			c-0.182,0.283-0.355,0.516-0.522,0.697l-0.327-0.641c0.281-0.362,0.498-0.737,0.648-1.127c0.15-0.389,0.225-0.729,0.221-1.021
			l0.427-0.218L232.768,174.965z"/>
	</g>
	<g enable-background="new    ">
		<path fill="#231F20" d="M233.148,171.39c-0.324-0.637-0.521-1.183-0.588-1.638c-0.068-0.456-0.025-0.854,0.125-1.197
			c0.151-0.343,0.423-0.614,0.814-0.814c0.289-0.147,0.573-0.219,0.852-0.214c0.277,0.006,0.543,0.082,0.797,0.229
			c0.254,0.147,0.502,0.356,0.744,0.63c0.24,0.274,0.498,0.679,0.77,1.212c0.323,0.633,0.52,1.177,0.588,1.631
			s0.027,0.854-0.123,1.198s-0.424,0.617-0.818,0.818c-0.52,0.265-1.021,0.286-1.51,0.064
			C234.215,173.043,233.666,172.402,233.148,171.39z M233.828,171.043c0.452,0.886,0.855,1.421,1.213,1.608
			c0.355,0.188,0.687,0.203,0.99,0.048c0.305-0.155,0.484-0.433,0.541-0.832c0.059-0.399-0.139-1.04-0.59-1.924
			c-0.453-0.887-0.855-1.423-1.213-1.609c-0.355-0.187-0.688-0.2-0.996-0.042c-0.305,0.154-0.48,0.407-0.531,0.757
			C233.182,169.494,233.377,170.159,233.828,171.043z"/>
	</g>
	<g enable-background="new    ">
		<path fill="#231F20" d="M249.877,163.402l-0.612,0.422l-2.686-3.902c-0.051,0.242-0.147,0.516-0.29,0.822
			c-0.143,0.305-0.284,0.559-0.426,0.76l-0.408-0.592c0.231-0.396,0.396-0.799,0.495-1.205c0.099-0.404,0.127-0.75,0.086-1.04
			l0.395-0.271L249.877,163.402z"/>
	</g>
	<g enable-background="new    ">
		<path fill="#231F20" d="M253.235,161.111l-0.612,0.421l-2.686-3.901c-0.051,0.242-0.146,0.516-0.29,0.82
			c-0.142,0.307-0.284,0.56-0.427,0.762l-0.407-0.592c0.231-0.397,0.396-0.799,0.495-1.205c0.1-0.404,0.127-0.751,0.086-1.04
			l0.395-0.272L253.235,161.111z"/>
	</g>
	<g enable-background="new    ">
		<path fill="#231F20" d="M265.799,151.441l-0.596,0.443l-2.826-3.799c-0.041,0.244-0.127,0.521-0.26,0.83
			c-0.131,0.311-0.264,0.568-0.398,0.775l-0.428-0.576c0.217-0.404,0.365-0.812,0.449-1.221s0.1-0.756,0.047-1.043l0.385-0.286
			L265.799,151.441z"/>
		<path fill="#231F20" d="M270.033,147.402l0.428,0.572l-3.211,2.388c-0.111-0.14-0.191-0.296-0.238-0.466
			c-0.082-0.279-0.111-0.592-0.088-0.938c0.021-0.346,0.1-0.785,0.232-1.315c0.207-0.826,0.309-1.434,0.305-1.825
			c-0.002-0.391-0.088-0.699-0.254-0.924c-0.176-0.236-0.408-0.373-0.699-0.409c-0.289-0.036-0.57,0.046-0.842,0.248
			c-0.287,0.214-0.453,0.47-0.496,0.771c-0.045,0.301,0.045,0.604,0.27,0.91l-0.658,0.393c-0.299-0.488-0.4-0.953-0.305-1.396
			c0.096-0.444,0.375-0.837,0.836-1.18c0.467-0.348,0.932-0.492,1.395-0.436c0.465,0.057,0.838,0.275,1.123,0.658
			c0.145,0.193,0.246,0.414,0.307,0.66c0.061,0.248,0.074,0.543,0.045,0.889c-0.029,0.344-0.125,0.856-0.283,1.537
			c-0.135,0.566-0.213,0.941-0.234,1.123c-0.023,0.184-0.025,0.354-0.012,0.512L270.033,147.402z"/>
	</g>
	<g>
		<g>
			<g>
				<g>
					<g>
						<path fill="#FFFFFF" d="M272.543,144.461l-8.453-7.895l13.6-11c1.781-1.476,3.153-3.312,3.308-6.112
							c0.255-4.123,3.87-3.513,9.573,3.717c4.178,5.197,3.72,9.168,0.767,9.017c-2.296-0.104-4.431,0.102-6.623,1.984
							L272.543,144.461z"/>
					</g>
				</g>
			</g>
		</g>
		<g>
			<g>
				<g>
					<g>
						<path fill="none" stroke="#231F20" stroke-width="0.79" d="M272.543,144.461l-8.453-7.895l13.6-11
							c1.781-1.476,3.153-3.312,3.308-6.112c0.255-4.123,3.87-3.513,9.573,3.717c4.178,5.197,3.72,9.168,0.767,9.017
							c-2.296-0.104-4.431,0.102-6.623,1.984L272.543,144.461z"/>
					</g>
				</g>
			</g>
		</g>
		<g>
			<g>
				<g>
					<g>
						<polygon fill="#FFFFFF" points="338.857,77.229 323.374,92.764 321.643,85.482 317.312,103.053 334.885,98.622 
							327.602,96.991 343.084,81.356 						"/>
					</g>
				</g>
			</g>
		</g>
		<g>
			<g>
				<g>
					<g>
						<polygon fill="none" stroke="#231F20" stroke-width="0.559" stroke-linecap="round" stroke-linejoin="round" points="
							338.857,77.229 323.374,92.764 321.643,85.482 317.312,103.053 334.885,98.622 327.602,96.991 343.084,81.356 						"/>
					</g>
				</g>
			</g>
		</g>
		<g>
			<g>
				<g>
					<g>
						<line fill="none" stroke="#231F20" stroke-width="3.16" x1="104.109" y1="160.082" x2="93.668" y2="173.941"/>
					</g>
				</g>
			</g>
		</g>
		<g>
			<g>
				<g>
					<g>
						<path fill="#FFFFFF" d="M270.404,138.195c2.295,2.189,3.311,4.84,2.242,5.96c-1.068,1.064-3.771,0.255-6.063-1.937
							c-2.294-2.188-3.259-4.839-2.242-5.908C265.413,135.189,268.111,136.057,270.404,138.195"/>
					</g>
				</g>
			</g>
		</g>
		<g>
			<g>
				<g>
					<g>
						<path fill="none" stroke="#231F20" stroke-width="0.79" d="M270.404,138.195c2.295,2.189,3.311,4.84,2.242,5.96
							c-1.068,1.064-3.771,0.255-6.063-1.937c-2.294-2.188-3.259-4.839-2.242-5.908
							C265.413,135.189,268.111,136.057,270.404,138.195z"/>
					</g>
				</g>
			</g>
		</g>
		<g>
			<g>
				<g>
					<g>
						<path fill="#231F20" d="M58.962,137.591c1.273,0,2.341-1.069,2.341-2.342c0-1.324-1.068-2.344-2.341-2.344
							c-1.325,0-2.396,1.021-2.396,2.344C56.567,136.52,57.636,137.591,58.962,137.591"/>
					</g>
				</g>
			</g>
		</g>
		<g>
			<g>
				<g>
					<g>
						<path fill="none" stroke="#231F20" stroke-width="0.171" d="M58.962,137.591c1.273,0,2.341-1.069,2.341-2.342
							c0-1.324-1.068-2.344-2.341-2.344c-1.325,0-2.396,1.021-2.396,2.344C56.567,136.52,57.636,137.591,58.962,137.591z"/>
					</g>
				</g>
			</g>
		</g>
		<g>
			<g>
				<g>
					<g>
						<path fill="none" stroke="#231F20" stroke-width="3.555" d="M60.093,135.941c34.928,30.688,60.7,55.339,102.179,54.545
							c37.972-0.721,76.986-26.344,108.156-52.35"/>
					</g>
				</g>
			</g>
		</g>
		<g>
			<g>
				<g>
					<g>
						<path fill="none" stroke="#808184" stroke-width="2.37" d="M59.664,135.757c35.014,30.841,60.848,55.625,102.429,54.826
							c39.305-0.746,77.151-26.461,108.422-52.623"/>
					</g>
				</g>
			</g>
		</g>
		<g>
			<g>
				<g>
					<g>
						<path fill="#808184" d="M59.047,137.445c1.153,0,2.123-0.971,2.123-2.123c0-1.201-0.97-2.123-2.123-2.123
							c-1.201,0-2.169,0.922-2.169,2.123C56.878,136.475,57.847,137.445,59.047,137.445"/>
					</g>
				</g>
			</g>
		</g>
		<g>
			<g>
				<g>
					<g>
						<path fill="none" stroke="#231F20" stroke-width="0.79" d="M57.099,119.402c4.941,4.992,6.062,11.867,2.546,15.229
							c-3.514,3.414-10.339,2.143-15.229-2.8c-4.89-5.044-6.062-11.869-2.546-15.331C45.385,113.086,52.21,114.359,57.099,119.402z"
							/>
					</g>
				</g>
			</g>
		</g>
		<g>
			<g>
				<g>
					<g>
						<path fill="#FFFFFF" d="M59.506,125.756c0,4.704-3.833,8.52-8.562,8.52s-8.563-3.814-8.563-8.52
							c0-4.701,3.832-8.516,8.563-8.516C55.676,117.24,59.506,121.055,59.506,125.756"/>
					</g>
				</g>
			</g>
		</g>
	</g>
	<g enable-background="new    ">
		<path fill="#231F20" d="M88.645,131.516c0.272-0.064,0.708-0.107,1.138-0.107c0.623,0,1.023,0.107,1.317,0.351
			c0.25,0.187,0.408,0.473,0.408,0.852c0,0.473-0.314,0.881-0.815,1.06v0.021c0.458,0.107,0.995,0.486,0.995,1.202
			c0,0.415-0.165,0.737-0.415,0.966c-0.329,0.308-0.873,0.451-1.661,0.451c-0.429,0-0.758-0.028-0.966-0.058V131.516z
			 M89.268,133.491h0.565c0.651,0,1.038-0.351,1.038-0.816c0-0.558-0.422-0.787-1.052-0.787c-0.287,0-0.451,0.021-0.551,0.043
			V133.491z M89.268,135.795c0.129,0.021,0.301,0.029,0.522,0.029c0.644,0,1.238-0.236,1.238-0.938c0-0.651-0.565-0.931-1.245-0.931
			h-0.515V135.795z"/>
		<path fill="#231F20" d="M92.506,131.187h0.63v5.081h-0.63V131.187z"/>
		<path fill="#231F20" d="M97.095,135.315c0,0.365,0.007,0.681,0.028,0.952h-0.558l-0.036-0.565h-0.014
			c-0.158,0.279-0.53,0.645-1.145,0.645c-0.544,0-1.195-0.308-1.195-1.518v-2.025h0.63v1.911c0,0.658,0.208,1.109,0.773,1.109
			c0.422,0,0.715-0.294,0.83-0.58c0.036-0.086,0.057-0.2,0.057-0.322v-2.118h0.63V135.315z"/>
	</g>
	<g enable-background="new    ">
		<path fill="#231F20" d="M98.143,133.741c0-0.365-0.007-0.651-0.029-0.938h0.558l0.036,0.572h0.014
			c0.172-0.321,0.573-0.644,1.145-0.644c0.479,0,1.224,0.286,1.224,1.475v2.061h-0.629v-1.997c0-0.558-0.208-1.022-0.802-1.022
			c-0.408,0-0.73,0.293-0.844,0.644c-0.029,0.079-0.043,0.187-0.043,0.294v2.082h-0.63V133.741z"/>
	</g>
	<g enable-background="new    ">
		<path fill="#231F20" d="M102.849,131.974v0.83h0.902v0.479h-0.902v1.868c0,0.429,0.122,0.673,0.473,0.673
			c0.172,0,0.272-0.015,0.365-0.043l0.029,0.479c-0.122,0.043-0.315,0.086-0.558,0.086c-0.293,0-0.53-0.101-0.68-0.266
			c-0.171-0.192-0.243-0.501-0.243-0.908v-1.89h-0.537v-0.479h0.537v-0.644L102.849,131.974z"/>
		<path fill="#231F20" d="M106.331,134.65c0.014,0.852,0.551,1.202,1.188,1.202c0.451,0,0.73-0.079,0.959-0.179l0.114,0.45
			c-0.222,0.101-0.608,0.223-1.159,0.223c-1.066,0-1.703-0.709-1.703-1.754s0.615-1.86,1.625-1.86c1.138,0,1.431,0.987,1.431,1.624
			c0,0.129-0.007,0.223-0.021,0.294H106.331z M108.177,134.199c0.007-0.394-0.165-1.016-0.873-1.016
			c-0.644,0-0.916,0.579-0.966,1.016H108.177z"/>
		<path fill="#231F20" d="M109.569,133.741c0-0.365-0.007-0.651-0.029-0.938h0.558l0.036,0.572h0.014
			c0.172-0.321,0.573-0.644,1.145-0.644c0.479,0,1.224,0.286,1.224,1.475v2.061h-0.629v-1.997c0-0.558-0.208-1.022-0.802-1.022
			c-0.408,0-0.73,0.293-0.844,0.644c-0.029,0.079-0.043,0.187-0.043,0.294v2.082h-0.63V133.741z"/>
		<path fill="#231F20" d="M116.529,131.187v4.187c0,0.308,0.014,0.658,0.028,0.895h-0.558l-0.029-0.602h-0.021
			c-0.186,0.387-0.601,0.681-1.167,0.681c-0.837,0-1.488-0.709-1.488-1.761c-0.007-1.152,0.716-1.854,1.553-1.854
			c0.537,0,0.888,0.25,1.045,0.522h0.014v-2.068H116.529z M115.906,134.214c0-0.079-0.007-0.187-0.028-0.265
			c-0.093-0.394-0.437-0.723-0.909-0.723c-0.651,0-1.038,0.572-1.038,1.331c0,0.701,0.351,1.28,1.023,1.28
			c0.422,0,0.809-0.286,0.923-0.751c0.021-0.086,0.028-0.172,0.028-0.272V134.214z"/>
	</g>
	<g enable-background="new    ">
		<path fill="#231F20" d="M119.862,131.974v0.83h0.902v0.479h-0.902v1.868c0,0.429,0.122,0.673,0.473,0.673
			c0.172,0,0.272-0.015,0.365-0.043l0.029,0.479c-0.122,0.043-0.315,0.086-0.558,0.086c-0.293,0-0.53-0.101-0.68-0.266
			c-0.171-0.192-0.243-0.501-0.243-0.908v-1.89h-0.537v-0.479h0.537v-0.644L119.862,131.974z"/>
	</g>
	<g enable-background="new    ">
		<path fill="#231F20" d="M124.565,134.507c0,1.281-0.895,1.84-1.725,1.84c-0.93,0-1.66-0.688-1.66-1.782
			c0-1.152,0.766-1.832,1.717-1.832C123.893,132.732,124.565,133.455,124.565,134.507z M121.824,134.543
			c0,0.759,0.429,1.331,1.045,1.331c0.601,0,1.052-0.565,1.052-1.346c0-0.587-0.293-1.323-1.038-1.323
			C122.146,133.205,121.824,133.892,121.824,134.543z"/>
		<path fill="#231F20" d="M127.583,131.831c0,0.214-0.15,0.386-0.401,0.386c-0.229,0-0.379-0.172-0.379-0.386
			c0-0.215,0.157-0.394,0.394-0.394C127.426,131.438,127.583,131.608,127.583,131.831z M126.882,136.268v-3.464h0.63v3.464H126.882z
			"/>
	</g>
	<g enable-background="new    ">
		<path fill="#231F20" d="M128.56,133.741c0-0.365-0.007-0.651-0.029-0.938h0.558l0.036,0.572h0.014
			c0.172-0.321,0.573-0.644,1.145-0.644c0.479,0,1.224,0.286,1.224,1.475v2.061h-0.629v-1.997c0-0.558-0.208-1.022-0.802-1.022
			c-0.408,0-0.73,0.293-0.844,0.644c-0.029,0.079-0.043,0.187-0.043,0.294v2.082h-0.63V133.741z"/>
	</g>
	<g enable-background="new    ">
		<path fill="#231F20" d="M133.271,131.974v0.83h0.902v0.479h-0.902v1.868c0,0.429,0.122,0.673,0.473,0.673
			c0.172,0,0.272-0.015,0.365-0.043l0.029,0.479c-0.122,0.043-0.315,0.086-0.558,0.086c-0.293,0-0.53-0.101-0.68-0.266
			c-0.171-0.192-0.243-0.501-0.243-0.908v-1.89h-0.537v-0.479h0.537v-0.644L133.271,131.974z"/>
	</g>
	<g enable-background="new    ">
		<path fill="#231F20" d="M134.885,133.885c0-0.408-0.007-0.759-0.029-1.081h0.551l0.028,0.688h0.021
			c0.158-0.466,0.544-0.759,0.966-0.759c0.064,0,0.115,0.007,0.172,0.015v0.594c-0.064-0.015-0.129-0.015-0.215-0.015
			c-0.444,0-0.758,0.329-0.844,0.802c-0.015,0.086-0.021,0.193-0.021,0.293v1.847h-0.63V133.885z"/>
	</g>
	<g enable-background="new    ">
		<path fill="#231F20" d="M140.29,134.507c0,1.281-0.895,1.84-1.725,1.84c-0.93,0-1.66-0.688-1.66-1.782
			c0-1.152,0.766-1.832,1.717-1.832C139.618,132.732,140.29,133.455,140.29,134.507z M137.549,134.543
			c0,0.759,0.429,1.331,1.045,1.331c0.601,0,1.052-0.565,1.052-1.346c0-0.587-0.293-1.323-1.038-1.323
			C137.872,133.205,137.549,133.892,137.549,134.543z"/>
		<path fill="#231F20" d="M144.073,131.187v4.187c0,0.308,0.014,0.658,0.028,0.895h-0.558l-0.029-0.602h-0.021
			c-0.186,0.387-0.601,0.681-1.167,0.681c-0.837,0-1.488-0.709-1.488-1.761c-0.007-1.152,0.716-1.854,1.553-1.854
			c0.537,0,0.888,0.25,1.045,0.522h0.014v-2.068H144.073z M143.45,134.214c0-0.079-0.007-0.187-0.028-0.265
			c-0.093-0.394-0.437-0.723-0.909-0.723c-0.651,0-1.038,0.572-1.038,1.331c0,0.701,0.351,1.28,1.023,1.28
			c0.422,0,0.809-0.286,0.923-0.751c0.021-0.086,0.028-0.172,0.028-0.272V134.214z"/>
		<path fill="#231F20" d="M148.027,135.315c0,0.365,0.007,0.681,0.028,0.952h-0.558l-0.036-0.565h-0.014
			c-0.158,0.279-0.53,0.645-1.145,0.645c-0.544,0-1.195-0.308-1.195-1.518v-2.025h0.63v1.911c0,0.658,0.208,1.109,0.773,1.109
			c0.422,0,0.715-0.294,0.83-0.58c0.036-0.086,0.057-0.2,0.057-0.322v-2.118h0.63V135.315z"/>
	</g>
	<g enable-background="new    ">
		<path fill="#231F20" d="M151.543,136.146c-0.165,0.079-0.529,0.201-0.995,0.201c-1.045,0-1.725-0.709-1.725-1.768
			c0-1.066,0.73-1.847,1.861-1.847c0.372,0,0.701,0.093,0.873,0.186l-0.144,0.479c-0.15-0.078-0.386-0.164-0.729-0.164
			c-0.794,0-1.224,0.594-1.224,1.31c0,0.802,0.516,1.295,1.203,1.295c0.357,0,0.594-0.086,0.772-0.164L151.543,136.146z"/>
	</g>
	<g enable-background="new    ">
		<path fill="#231F20" d="M152.591,134.65c0.014,0.852,0.551,1.202,1.188,1.202c0.451,0,0.73-0.079,0.959-0.179l0.114,0.45
			c-0.222,0.101-0.608,0.223-1.159,0.223c-1.066,0-1.703-0.709-1.703-1.754s0.615-1.86,1.625-1.86c1.138,0,1.431,0.987,1.431,1.624
			c0,0.129-0.007,0.223-0.021,0.294H152.591z M154.438,134.199c0.007-0.394-0.165-1.016-0.873-1.016
			c-0.644,0-0.916,0.579-0.966,1.016H154.438z"/>
		<path fill="#231F20" d="M155.83,133.885c0-0.408-0.007-0.759-0.029-1.081h0.551l0.028,0.688h0.021
			c0.158-0.466,0.544-0.759,0.966-0.759c0.064,0,0.115,0.007,0.172,0.015v0.594c-0.064-0.015-0.129-0.015-0.215-0.015
			c-0.444,0-0.758,0.329-0.844,0.802c-0.015,0.086-0.021,0.193-0.021,0.293v1.847h-0.63V133.885z"/>
	</g>
	<g enable-background="new    ">
		<path fill="#231F20" d="M256.635,180.621h-1.467v-0.529h3.57v0.529h-1.474v4.294h-0.63V180.621z"/>
	</g>
	<g enable-background="new    ">
		<path fill="#231F20" d="M258.936,182.532c0-0.408-0.008-0.759-0.029-1.081h0.552l0.028,0.688h0.021
			c0.158-0.466,0.544-0.759,0.967-0.759c0.064,0,0.114,0.007,0.172,0.015v0.594c-0.064-0.015-0.129-0.015-0.215-0.015
			c-0.444,0-0.759,0.329-0.845,0.802c-0.015,0.086-0.021,0.193-0.021,0.293v1.847h-0.63V182.532z"/>
	</g>
	<g enable-background="new    ">
		<path fill="#231F20" d="M263.682,184.085c0,0.301,0.014,0.594,0.05,0.83h-0.565l-0.051-0.437h-0.021
			c-0.192,0.271-0.564,0.516-1.059,0.516c-0.701,0-1.059-0.494-1.059-0.995c0-0.837,0.744-1.295,2.082-1.288v-0.071
			c0-0.279-0.078-0.802-0.787-0.795c-0.329,0-0.666,0.094-0.909,0.258l-0.144-0.422c0.287-0.18,0.709-0.301,1.146-0.301
			c1.06,0,1.317,0.723,1.317,1.41V184.085z M263.072,183.147c-0.687-0.015-1.467,0.107-1.467,0.78c0,0.415,0.272,0.601,0.588,0.601
			c0.457,0,0.75-0.286,0.852-0.579c0.021-0.072,0.027-0.144,0.027-0.2V183.147z"/>
		<path fill="#231F20" d="M264.701,182.389c0-0.365-0.008-0.651-0.029-0.938h0.559l0.035,0.572h0.015
			c0.172-0.321,0.573-0.644,1.146-0.644c0.479,0,1.223,0.286,1.223,1.475v2.061h-0.629v-1.997c0-0.558-0.208-1.022-0.802-1.022
			c-0.407,0-0.729,0.293-0.845,0.644c-0.028,0.079-0.043,0.187-0.043,0.294v2.082h-0.629V182.389z"/>
		<path fill="#231F20" d="M268.59,184.278c0.193,0.114,0.523,0.243,0.838,0.243c0.451,0,0.666-0.222,0.666-0.516
			c0-0.3-0.18-0.458-0.638-0.63c-0.63-0.229-0.923-0.564-0.923-0.98c0-0.558,0.458-1.016,1.195-1.016
			c0.351,0,0.658,0.093,0.844,0.215l-0.15,0.458c-0.135-0.086-0.386-0.208-0.708-0.208c-0.372,0-0.572,0.215-0.572,0.473
			c0,0.286,0.2,0.415,0.651,0.594c0.594,0.222,0.908,0.522,0.908,1.038c0,0.615-0.479,1.045-1.288,1.045
			c-0.379,0-0.729-0.101-0.974-0.244L268.59,184.278z"/>
		<path fill="#231F20" d="M271.514,182.582c0-0.443-0.015-0.802-0.029-1.131h0.559l0.035,0.594h0.015
			c0.251-0.422,0.665-0.665,1.231-0.665c0.844,0,1.474,0.708,1.474,1.753c0,1.245-0.766,1.861-1.581,1.861
			c-0.459,0-0.859-0.201-1.066-0.544h-0.015v1.882h-0.622V182.582z M272.136,183.505c0,0.094,0.007,0.18,0.028,0.258
			c0.115,0.437,0.494,0.737,0.945,0.737c0.665,0,1.052-0.544,1.052-1.338c0-0.688-0.365-1.281-1.03-1.281
			c-0.43,0-0.838,0.301-0.952,0.772c-0.021,0.079-0.043,0.172-0.043,0.251V183.505z"/>
		<path fill="#231F20" d="M278.021,184.085c0,0.301,0.015,0.594,0.051,0.83h-0.565l-0.05-0.437h-0.021
			c-0.193,0.271-0.566,0.516-1.06,0.516c-0.701,0-1.06-0.494-1.06-0.995c0-0.837,0.744-1.295,2.083-1.288v-0.071
			c0-0.279-0.079-0.802-0.787-0.795c-0.329,0-0.665,0.094-0.909,0.258l-0.143-0.422c0.286-0.18,0.708-0.301,1.145-0.301
			c1.059,0,1.316,0.723,1.316,1.41V184.085z M277.414,183.147c-0.688-0.015-1.467,0.107-1.467,0.78c0,0.415,0.271,0.601,0.586,0.601
			c0.459,0,0.752-0.286,0.852-0.579c0.021-0.072,0.029-0.144,0.029-0.2V183.147z"/>
	</g>
	<g enable-background="new    ">
		<path fill="#231F20" d="M279.043,182.532c0-0.408-0.008-0.759-0.029-1.081h0.551l0.029,0.688h0.021
			c0.157-0.466,0.543-0.759,0.966-0.759c0.064,0,0.114,0.007,0.172,0.015v0.594c-0.064-0.015-0.129-0.015-0.215-0.015
			c-0.444,0-0.759,0.329-0.845,0.802c-0.014,0.086-0.021,0.193-0.021,0.293v1.847h-0.629V182.532z"/>
	</g>
	<g enable-background="new    ">
		<path fill="#231F20" d="M281.664,183.298c0.015,0.852,0.552,1.202,1.188,1.202c0.45,0,0.729-0.079,0.959-0.179l0.114,0.45
			c-0.222,0.101-0.607,0.223-1.159,0.223c-1.066,0-1.703-0.709-1.703-1.754s0.615-1.86,1.624-1.86c1.139,0,1.432,0.987,1.432,1.624
			c0,0.129-0.008,0.223-0.021,0.294H281.664z M283.511,182.847c0.007-0.394-0.165-1.016-0.873-1.016
			c-0.644,0-0.916,0.579-0.966,1.016H283.511z"/>
	</g>
	<g enable-background="new    ">
		<path fill="#231F20" d="M284.904,182.389c0-0.365-0.007-0.651-0.028-0.938h0.558l0.037,0.572h0.014
			c0.172-0.321,0.572-0.644,1.145-0.644c0.48,0,1.225,0.286,1.225,1.475v2.061h-0.63v-1.997c0-0.558-0.208-1.022-0.802-1.022
			c-0.408,0-0.73,0.293-0.844,0.644c-0.029,0.079-0.043,0.187-0.043,0.294v2.082h-0.631V182.389z"/>
	</g>
	<g enable-background="new    ">
		<path fill="#231F20" d="M289.615,180.621v0.83h0.901v0.479h-0.901v1.868c0,0.429,0.121,0.673,0.473,0.673
			c0.172,0,0.271-0.015,0.364-0.043l0.028,0.479c-0.121,0.043-0.314,0.086-0.558,0.086c-0.294,0-0.53-0.101-0.681-0.266
			c-0.171-0.192-0.242-0.501-0.242-0.908v-1.89h-0.537v-0.479H289v-0.644L289.615,180.621z"/>
		<path fill="#231F20" d="M293.097,183.298c0.015,0.852,0.552,1.202,1.188,1.202c0.45,0,0.729-0.079,0.959-0.179l0.113,0.45
			c-0.221,0.101-0.607,0.223-1.158,0.223c-1.066,0-1.703-0.709-1.703-1.754s0.615-1.86,1.624-1.86c1.138,0,1.431,0.987,1.431,1.624
			c0,0.129-0.007,0.223-0.021,0.294H293.097z M294.943,182.847c0.007-0.394-0.165-1.016-0.873-1.016
			c-0.645,0-0.916,0.579-0.967,1.016H294.943z"/>
		<path fill="#231F20" d="M296.335,182.389c0-0.365-0.007-0.651-0.028-0.938h0.558l0.036,0.572h0.014
			c0.172-0.321,0.573-0.644,1.146-0.644c0.479,0,1.224,0.286,1.224,1.475v2.061h-0.629v-1.997c0-0.558-0.208-1.022-0.803-1.022
			c-0.407,0-0.729,0.293-0.844,0.644c-0.029,0.079-0.043,0.187-0.043,0.294v2.082h-0.63V182.389z"/>
		<path fill="#231F20" d="M303.295,179.834v4.187c0,0.308,0.014,0.658,0.028,0.895h-0.558l-0.029-0.602h-0.021
			c-0.186,0.387-0.602,0.681-1.166,0.681c-0.838,0-1.488-0.709-1.488-1.761c-0.008-1.152,0.715-1.854,1.553-1.854
			c0.537,0,0.887,0.25,1.045,0.522h0.014v-2.068H303.295z M302.672,182.861c0-0.079-0.007-0.187-0.028-0.265
			c-0.093-0.394-0.437-0.723-0.909-0.723c-0.65,0-1.037,0.572-1.037,1.331c0,0.701,0.351,1.28,1.023,1.28
			c0.422,0,0.809-0.286,0.923-0.751c0.021-0.086,0.028-0.172,0.028-0.272V182.861z"/>
		<path fill="#231F20" d="M307.484,183.154c0,1.281-0.895,1.84-1.725,1.84c-0.93,0-1.66-0.688-1.66-1.782
			c0-1.152,0.766-1.832,1.718-1.832C306.812,181.38,307.484,182.103,307.484,183.154z M304.744,183.19
			c0,0.759,0.43,1.331,1.045,1.331c0.602,0,1.052-0.565,1.052-1.346c0-0.587-0.294-1.323-1.038-1.323
			C305.066,181.853,304.744,182.539,304.744,183.19z"/>
		<path fill="#231F20" d="M309.042,180.621v0.83h0.901v0.479h-0.901v1.868c0,0.429,0.122,0.673,0.473,0.673
			c0.172,0,0.272-0.015,0.364-0.043l0.029,0.479c-0.121,0.043-0.314,0.086-0.559,0.086c-0.293,0-0.529-0.101-0.68-0.266
			c-0.172-0.192-0.243-0.501-0.243-0.908v-1.89h-0.536v-0.479h0.536v-0.644L309.042,180.621z"/>
	</g>
	<g enable-background="new    ">
		<path fill="#231F20" d="M310.654,182.532c0-0.408-0.007-0.759-0.028-1.081h0.552l0.027,0.688h0.021
			c0.158-0.466,0.545-0.759,0.967-0.759c0.064,0,0.115,0.007,0.172,0.015v0.594c-0.064-0.015-0.129-0.015-0.215-0.015
			c-0.443,0-0.758,0.329-0.844,0.802c-0.016,0.086-0.021,0.193-0.021,0.293v1.847h-0.631V182.532z"/>
	</g>
	<g enable-background="new    ">
		<path fill="#231F20" d="M315.396,184.085c0,0.301,0.015,0.594,0.05,0.83h-0.564l-0.051-0.437h-0.021
			c-0.193,0.271-0.565,0.516-1.059,0.516c-0.701,0-1.06-0.494-1.06-0.995c0-0.837,0.744-1.295,2.083-1.288v-0.071
			c0-0.279-0.079-0.802-0.787-0.795c-0.33,0-0.666,0.094-0.91,0.258l-0.143-0.422c0.287-0.18,0.709-0.301,1.145-0.301
			c1.06,0,1.317,0.723,1.317,1.41V184.085z M314.787,183.147c-0.688-0.015-1.467,0.107-1.467,0.78c0,0.415,0.271,0.601,0.587,0.601
			c0.458,0,0.751-0.286,0.852-0.579c0.021-0.072,0.028-0.144,0.028-0.2V183.147z"/>
		<path fill="#231F20" d="M318.884,184.793c-0.165,0.079-0.529,0.201-0.995,0.201c-1.045,0-1.725-0.709-1.725-1.768
			c0-1.066,0.73-1.847,1.861-1.847c0.372,0,0.701,0.093,0.873,0.186l-0.143,0.479c-0.15-0.078-0.387-0.164-0.73-0.164
			c-0.795,0-1.225,0.594-1.225,1.31c0,0.802,0.516,1.295,1.203,1.295c0.357,0,0.594-0.086,0.772-0.164L318.884,184.793z"/>
		<path fill="#231F20" d="M319.625,179.834h0.629v2.168h0.015c0.101-0.179,0.258-0.343,0.45-0.45
			c0.187-0.107,0.408-0.172,0.645-0.172c0.465,0,1.209,0.286,1.209,1.475v2.061h-0.629v-1.989c0-0.559-0.207-1.023-0.802-1.023
			c-0.407,0-0.723,0.286-0.845,0.622c-0.035,0.094-0.043,0.187-0.043,0.301v2.09h-0.629V179.834z"/>
		<path fill="#231F20" d="M323.951,183.298c0.014,0.852,0.551,1.202,1.188,1.202c0.451,0,0.73-0.079,0.959-0.179l0.114,0.45
			c-0.222,0.101-0.608,0.223-1.159,0.223c-1.066,0-1.703-0.709-1.703-1.754s0.615-1.86,1.625-1.86c1.137,0,1.431,0.987,1.431,1.624
			c0,0.129-0.007,0.223-0.021,0.294H323.951z M325.797,182.847c0.008-0.394-0.164-1.016-0.873-1.016
			c-0.645,0-0.916,0.579-0.966,1.016H325.797z"/>
		<path fill="#231F20" d="M329.622,184.085c0,0.301,0.015,0.594,0.05,0.83h-0.564l-0.051-0.437h-0.021
			c-0.193,0.271-0.565,0.516-1.059,0.516c-0.701,0-1.06-0.494-1.06-0.995c0-0.837,0.744-1.295,2.083-1.288v-0.071
			c0-0.279-0.079-0.802-0.787-0.795c-0.33,0-0.666,0.094-0.91,0.258l-0.143-0.422c0.287-0.18,0.709-0.301,1.145-0.301
			c1.06,0,1.317,0.723,1.317,1.41V184.085z M329.014,183.147c-0.688-0.015-1.467,0.107-1.467,0.78c0,0.415,0.271,0.601,0.587,0.601
			c0.458,0,0.751-0.286,0.852-0.579c0.021-0.072,0.028-0.144,0.028-0.2V183.147z"/>
		<path fill="#231F20" d="M330.642,179.834h0.63v5.081h-0.63V179.834z"/>
		<path fill="#231F20" d="M334.609,180.621v0.83h0.901v0.479h-0.901v1.868c0,0.429,0.121,0.673,0.473,0.673
			c0.172,0,0.271-0.015,0.364-0.043l0.028,0.479c-0.121,0.043-0.314,0.086-0.558,0.086c-0.294,0-0.53-0.101-0.681-0.266
			c-0.171-0.192-0.242-0.501-0.242-0.908v-1.89h-0.537v-0.479h0.537v-0.644L334.609,180.621z"/>
		<path fill="#231F20" d="M339.12,183.963c0,0.365,0.007,0.681,0.028,0.952h-0.559l-0.035-0.565h-0.014
			c-0.158,0.279-0.53,0.645-1.146,0.645c-0.544,0-1.195-0.308-1.195-1.518v-2.025h0.63v1.911c0,0.658,0.207,1.109,0.773,1.109
			c0.422,0,0.715-0.294,0.83-0.58c0.035-0.086,0.057-0.2,0.057-0.322v-2.118h0.63V183.963z"/>
		<path fill="#231F20" d="M340.169,179.834h0.622v2.176h0.015c0.222-0.387,0.622-0.63,1.181-0.63c0.866,0,1.467,0.716,1.467,1.761
			c0,1.237-0.787,1.854-1.56,1.854c-0.501,0-0.901-0.193-1.167-0.645h-0.014l-0.035,0.565h-0.537
			c0.014-0.236,0.028-0.587,0.028-0.895V179.834z M340.791,183.526c0,0.079,0.008,0.158,0.029,0.229
			c0.114,0.437,0.486,0.737,0.944,0.737c0.665,0,1.052-0.537,1.052-1.331c0-0.694-0.357-1.288-1.037-1.288
			c-0.422,0-0.823,0.3-0.952,0.772c-0.021,0.079-0.036,0.165-0.036,0.265V183.526z"/>
		<path fill="#231F20" d="M344.596,183.298c0.014,0.852,0.551,1.202,1.188,1.202c0.451,0,0.73-0.079,0.959-0.179l0.114,0.45
			c-0.222,0.101-0.608,0.223-1.159,0.223c-1.066,0-1.703-0.709-1.703-1.754s0.615-1.86,1.625-1.86c1.137,0,1.431,0.987,1.431,1.624
			c0,0.129-0.007,0.223-0.021,0.294H344.596z M346.441,182.847c0.008-0.394-0.164-1.016-0.873-1.016
			c-0.645,0-0.916,0.579-0.966,1.016H346.441z"/>
		<path fill="#231F20" d="M349.603,181.451l0.466,1.761c0.092,0.387,0.186,0.744,0.25,1.102h0.021
			c0.078-0.351,0.193-0.723,0.308-1.095l0.565-1.768h0.529l0.537,1.732c0.129,0.415,0.229,0.779,0.308,1.13h0.021
			c0.059-0.351,0.15-0.715,0.266-1.123l0.494-1.739h0.622l-1.116,3.464h-0.572l-0.529-1.653c-0.122-0.387-0.223-0.729-0.309-1.138
			h-0.014c-0.086,0.415-0.193,0.772-0.315,1.146l-0.558,1.646h-0.572l-1.045-3.464H349.603z"/>
		<path fill="#231F20" d="M355.326,180.479c0,0.214-0.15,0.386-0.401,0.386c-0.229,0-0.379-0.172-0.379-0.386
			c0-0.215,0.157-0.394,0.394-0.394C355.168,180.085,355.326,180.256,355.326,180.479z M354.625,184.915v-3.464h0.629v3.464H354.625
			z"/>
		<path fill="#231F20" d="M357.059,180.621v0.83h0.902v0.479h-0.902v1.868c0,0.429,0.123,0.673,0.473,0.673
			c0.172,0,0.272-0.015,0.365-0.043l0.029,0.479c-0.122,0.043-0.315,0.086-0.559,0.086c-0.293,0-0.529-0.101-0.68-0.266
			c-0.172-0.192-0.244-0.501-0.244-0.908v-1.89h-0.536v-0.479h0.536v-0.644L357.059,180.621z"/>
		<path fill="#231F20" d="M358.672,179.834h0.63v2.168h0.015c0.1-0.179,0.258-0.343,0.45-0.45c0.187-0.107,0.408-0.172,0.644-0.172
			c0.466,0,1.21,0.286,1.21,1.475v2.061h-0.63v-1.989c0-0.559-0.207-1.023-0.801-1.023c-0.408,0-0.723,0.286-0.845,0.622
			c-0.036,0.094-0.043,0.187-0.043,0.301v2.09h-0.63V179.834z"/>
	</g>
	<g enable-background="new    ">
		<path fill="#231F20" d="M273.748,190.985c0-0.365-0.014-0.651-0.029-0.938h0.552l0.028,0.565h0.021
			c0.193-0.329,0.516-0.637,1.096-0.637c0.465,0,0.822,0.286,0.973,0.694h0.014c0.107-0.2,0.251-0.344,0.395-0.451
			c0.207-0.157,0.43-0.243,0.758-0.243c0.466,0,1.146,0.301,1.146,1.503v2.032h-0.615v-1.954c0-0.672-0.251-1.065-0.751-1.065
			c-0.365,0-0.638,0.265-0.752,0.564c-0.029,0.094-0.051,0.201-0.051,0.315v2.14h-0.615v-2.075c0-0.551-0.243-0.944-0.723-0.944
			c-0.387,0-0.68,0.314-0.779,0.629c-0.036,0.086-0.051,0.201-0.051,0.309v2.082h-0.615V190.985z"/>
		<path fill="#231F20" d="M280.072,191.895c0.015,0.852,0.552,1.202,1.188,1.202c0.45,0,0.729-0.079,0.959-0.179l0.114,0.45
			c-0.222,0.101-0.607,0.223-1.159,0.223c-1.066,0-1.703-0.709-1.703-1.754s0.615-1.86,1.624-1.86c1.139,0,1.432,0.987,1.432,1.624
			c0,0.129-0.007,0.223-0.021,0.294H280.072z M281.919,191.443c0.007-0.394-0.165-1.016-0.873-1.016
			c-0.644,0-0.916,0.579-0.966,1.016H281.919z"/>
		<path fill="#231F20" d="M285.744,192.682c0,0.301,0.014,0.594,0.051,0.83h-0.566l-0.05-0.437h-0.021
			c-0.193,0.271-0.565,0.516-1.06,0.516c-0.701,0-1.059-0.494-1.059-0.995c0-0.837,0.744-1.295,2.082-1.288v-0.071
			c0-0.279-0.078-0.802-0.787-0.795c-0.328,0-0.665,0.094-0.908,0.258l-0.144-0.422c0.286-0.18,0.708-0.301,1.146-0.301
			c1.059,0,1.316,0.723,1.316,1.41V192.682z M285.136,191.744c-0.687-0.015-1.467,0.107-1.467,0.78c0,0.415,0.272,0.601,0.587,0.601
			c0.458,0,0.751-0.286,0.852-0.579c0.021-0.072,0.028-0.144,0.028-0.2V191.744z"/>
		<path fill="#231F20" d="M286.678,192.875c0.193,0.114,0.523,0.243,0.838,0.243c0.451,0,0.666-0.222,0.666-0.516
			c0-0.3-0.18-0.458-0.638-0.63c-0.63-0.229-0.923-0.564-0.923-0.98c0-0.558,0.458-1.016,1.195-1.016
			c0.351,0,0.658,0.093,0.844,0.215l-0.15,0.458c-0.135-0.086-0.386-0.208-0.708-0.208c-0.372,0-0.572,0.215-0.572,0.473
			c0,0.286,0.2,0.415,0.651,0.594c0.594,0.222,0.908,0.522,0.908,1.038c0,0.615-0.479,1.045-1.288,1.045
			c-0.379,0-0.729-0.101-0.974-0.244L286.678,192.875z"/>
		<path fill="#231F20" d="M292.499,192.56c0,0.365,0.007,0.681,0.028,0.952h-0.559l-0.035-0.565h-0.014
			c-0.158,0.279-0.53,0.645-1.146,0.645c-0.544,0-1.195-0.308-1.195-1.518v-2.025h0.63v1.911c0,0.658,0.207,1.109,0.773,1.109
			c0.422,0,0.715-0.294,0.83-0.58c0.035-0.086,0.057-0.2,0.057-0.322v-2.118h0.63V192.56z"/>
	</g>
	<g enable-background="new    ">
		<path fill="#231F20" d="M293.548,191.129c0-0.408-0.007-0.759-0.028-1.081h0.551l0.028,0.688h0.021
			c0.157-0.466,0.544-0.759,0.966-0.759c0.064,0,0.115,0.007,0.172,0.015v0.594c-0.064-0.015-0.129-0.015-0.215-0.015
			c-0.443,0-0.758,0.329-0.844,0.802c-0.015,0.086-0.021,0.193-0.021,0.293v1.847h-0.63V191.129z"/>
	</g>
	<g enable-background="new    ">
		<path fill="#231F20" d="M296.178,191.895c0.014,0.852,0.551,1.202,1.188,1.202c0.451,0,0.73-0.079,0.959-0.179l0.115,0.45
			c-0.223,0.101-0.608,0.223-1.16,0.223c-1.066,0-1.703-0.709-1.703-1.754s0.615-1.86,1.625-1.86c1.138,0,1.432,0.987,1.432,1.624
			c0,0.129-0.008,0.223-0.021,0.294H296.178z M298.023,191.443c0.008-0.394-0.164-1.016-0.873-1.016
			c-0.644,0-0.916,0.579-0.965,1.016H298.023z"/>
		<path fill="#231F20" d="M299.416,190.985c0-0.365-0.014-0.651-0.029-0.938h0.552l0.028,0.565h0.021
			c0.193-0.329,0.516-0.637,1.096-0.637c0.465,0,0.822,0.286,0.973,0.694h0.014c0.107-0.2,0.251-0.344,0.395-0.451
			c0.207-0.157,0.43-0.243,0.758-0.243c0.466,0,1.146,0.301,1.146,1.503v2.032h-0.615v-1.954c0-0.672-0.251-1.065-0.751-1.065
			c-0.365,0-0.638,0.265-0.752,0.564c-0.029,0.094-0.051,0.201-0.051,0.315v2.14h-0.615v-2.075c0-0.551-0.243-0.944-0.723-0.944
			c-0.387,0-0.68,0.314-0.779,0.629c-0.036,0.086-0.051,0.201-0.051,0.309v2.082h-0.615V190.985z"/>
		<path fill="#231F20" d="M305.74,191.895c0.015,0.852,0.552,1.202,1.188,1.202c0.45,0,0.729-0.079,0.959-0.179l0.114,0.45
			c-0.222,0.101-0.607,0.223-1.159,0.223c-1.066,0-1.703-0.709-1.703-1.754s0.615-1.86,1.624-1.86c1.139,0,1.432,0.987,1.432,1.624
			c0,0.129-0.007,0.223-0.021,0.294H305.74z M307.587,191.443c0.007-0.394-0.165-1.016-0.873-1.016
			c-0.644,0-0.916,0.579-0.966,1.016H307.587z"/>
	</g>
	<g enable-background="new    ">
		<path fill="#231F20" d="M308.98,190.985c0-0.365-0.008-0.651-0.029-0.938h0.559l0.035,0.572h0.015
			c0.172-0.321,0.573-0.644,1.146-0.644c0.479,0,1.223,0.286,1.223,1.475v2.061h-0.629v-1.997c0-0.558-0.207-1.022-0.802-1.022
			c-0.407,0-0.729,0.293-0.845,0.644c-0.028,0.079-0.043,0.187-0.043,0.294v2.082h-0.629V190.985z"/>
	</g>
	<g enable-background="new    ">
		<path fill="#231F20" d="M313.686,189.218v0.83h0.901v0.479h-0.901v1.868c0,0.429,0.121,0.673,0.473,0.673
			c0.172,0,0.271-0.015,0.364-0.043l0.028,0.479c-0.121,0.043-0.314,0.086-0.558,0.086c-0.294,0-0.53-0.101-0.681-0.266
			c-0.171-0.192-0.242-0.501-0.242-0.908v-1.89h-0.537v-0.479h0.537v-0.644L313.686,189.218z"/>
		<path fill="#231F20" d="M316.816,190.985c0-0.365-0.014-0.651-0.029-0.938h0.552l0.028,0.565h0.021
			c0.193-0.329,0.516-0.637,1.096-0.637c0.465,0,0.822,0.286,0.973,0.694h0.014c0.107-0.2,0.251-0.344,0.395-0.451
			c0.207-0.157,0.43-0.243,0.758-0.243c0.466,0,1.146,0.301,1.146,1.503v2.032h-0.615v-1.954c0-0.672-0.251-1.065-0.751-1.065
			c-0.365,0-0.638,0.265-0.752,0.564c-0.029,0.094-0.051,0.201-0.051,0.315v2.14h-0.615v-2.075c0-0.551-0.243-0.944-0.723-0.944
			c-0.387,0-0.68,0.314-0.779,0.629c-0.036,0.086-0.051,0.201-0.051,0.309v2.082h-0.615V190.985z"/>
		<path fill="#231F20" d="M325.224,192.682c0,0.301,0.015,0.594,0.05,0.83h-0.564l-0.051-0.437h-0.021
			c-0.193,0.271-0.565,0.516-1.059,0.516c-0.701,0-1.06-0.494-1.06-0.995c0-0.837,0.744-1.295,2.083-1.288v-0.071
			c0-0.279-0.079-0.802-0.787-0.795c-0.33,0-0.666,0.094-0.91,0.258l-0.143-0.422c0.287-0.18,0.709-0.301,1.145-0.301
			c1.06,0,1.317,0.723,1.317,1.41V192.682z M324.615,191.744c-0.688-0.015-1.467,0.107-1.467,0.78c0,0.415,0.271,0.601,0.587,0.601
			c0.458,0,0.751-0.286,0.852-0.579c0.021-0.072,0.028-0.144,0.028-0.2V191.744z"/>
	</g>
	<g enable-background="new    ">
		<path fill="#231F20" d="M326.242,191.129c0-0.408-0.007-0.759-0.028-1.081h0.552l0.027,0.688h0.021
			c0.158-0.466,0.545-0.759,0.967-0.759c0.064,0,0.115,0.007,0.172,0.015v0.594c-0.064-0.015-0.129-0.015-0.215-0.015
			c-0.443,0-0.758,0.329-0.844,0.802c-0.016,0.086-0.021,0.193-0.021,0.293v1.847h-0.631V191.129z"/>
	</g>
	<g enable-background="new    ">
		<path fill="#231F20" d="M329.235,191.637h0.015c0.086-0.122,0.2-0.271,0.301-0.394l1.023-1.195h0.751l-1.331,1.424l1.523,2.04
			h-0.772l-1.188-1.66l-0.322,0.357v1.303h-0.622v-5.081h0.622V191.637z"/>
	</g>
	<g enable-background="new    ">
		<path fill="#231F20" d="M332.789,189.075c0,0.214-0.15,0.386-0.4,0.386c-0.229,0-0.379-0.172-0.379-0.386
			c0-0.215,0.157-0.394,0.394-0.394C332.633,188.682,332.789,188.853,332.789,189.075z M332.088,193.512v-3.464h0.631v3.464H332.088
			z"/>
		<path fill="#231F20" d="M333.765,190.985c0-0.365-0.007-0.651-0.028-0.938h0.558l0.036,0.572h0.014
			c0.172-0.321,0.573-0.644,1.146-0.644c0.479,0,1.224,0.286,1.224,1.475v2.061h-0.629v-1.997c0-0.558-0.209-1.022-0.803-1.022
			c-0.407,0-0.729,0.293-0.844,0.644c-0.029,0.079-0.043,0.187-0.043,0.294v2.082h-0.63V190.985z"/>
		<path fill="#231F20" d="M340.703,193.004c0,0.801-0.164,1.28-0.494,1.589c-0.344,0.308-0.83,0.415-1.267,0.415
			c-0.415,0-0.873-0.101-1.151-0.287l0.156-0.486c0.229,0.15,0.588,0.279,1.017,0.279c0.644,0,1.116-0.336,1.116-1.217v-0.379
			h-0.014c-0.187,0.322-0.566,0.579-1.103,0.579c-0.858,0-1.474-0.729-1.474-1.688c0-1.174,0.766-1.832,1.566-1.832
			c0.602,0,0.924,0.308,1.081,0.594h0.015l0.021-0.522h0.558c-0.021,0.243-0.028,0.529-0.028,0.944V193.004z M340.073,191.415
			c0-0.107-0.007-0.2-0.036-0.279c-0.114-0.372-0.414-0.673-0.88-0.673c-0.601,0-1.03,0.509-1.03,1.31
			c0,0.68,0.35,1.245,1.023,1.245c0.393,0,0.744-0.243,0.873-0.644c0.035-0.107,0.05-0.229,0.05-0.337V191.415z"/>
		<path fill="#231F20" d="M341.658,192.875c0.193,0.114,0.523,0.243,0.838,0.243c0.451,0,0.666-0.222,0.666-0.516
			c0-0.3-0.18-0.458-0.638-0.63c-0.63-0.229-0.923-0.564-0.923-0.98c0-0.558,0.458-1.016,1.195-1.016
			c0.351,0,0.658,0.093,0.844,0.215l-0.15,0.458c-0.135-0.086-0.386-0.208-0.708-0.208c-0.372,0-0.572,0.215-0.572,0.473
			c0,0.286,0.2,0.415,0.651,0.594c0.594,0.222,0.908,0.522,0.908,1.038c0,0.615-0.479,1.045-1.287,1.045
			c-0.38,0-0.73-0.101-0.975-0.244L341.658,192.875z"/>
	</g>
	<g enable-background="new    ">
		<path fill="#231F20" d="M336.748,125.222c-0.221,0.114-0.687,0.229-1.273,0.229c-1.359,0-2.375-0.859-2.375-2.448
			c0-1.517,1.022-2.533,2.519-2.533c0.594,0,0.98,0.129,1.146,0.215l-0.158,0.508c-0.229-0.114-0.565-0.2-0.966-0.2
			c-1.131,0-1.882,0.723-1.882,1.989c0,1.188,0.68,1.939,1.846,1.939c0.387,0,0.773-0.078,1.023-0.2L336.748,125.222z"/>
	</g>
	<g enable-background="new    ">
		<path fill="#231F20" d="M340.582,123.611c0,1.281-0.895,1.84-1.725,1.84c-0.931,0-1.66-0.688-1.66-1.782
			c0-1.152,0.766-1.832,1.717-1.832C339.909,121.837,340.582,122.56,340.582,123.611z M337.841,123.647
			c0,0.759,0.429,1.331,1.045,1.331c0.601,0,1.052-0.565,1.052-1.346c0-0.587-0.293-1.323-1.037-1.323
			C338.163,122.31,337.841,122.996,337.841,123.647z"/>
		<path fill="#231F20" d="M341.38,122.846c0-0.365-0.007-0.651-0.028-0.938h0.558l0.036,0.572h0.014
			c0.172-0.321,0.573-0.644,1.146-0.644c0.479,0,1.224,0.286,1.224,1.475v2.061h-0.629v-1.997c0-0.558-0.208-1.022-0.803-1.022
			c-0.407,0-0.729,0.293-0.844,0.644c-0.029,0.079-0.043,0.187-0.043,0.294v2.082h-0.63V122.846z"/>
		<path fill="#231F20" d="M345.355,122.846c0-0.365-0.008-0.651-0.029-0.938h0.559l0.036,0.572h0.015
			c0.172-0.321,0.572-0.644,1.145-0.644c0.479,0,1.224,0.286,1.224,1.475v2.061h-0.63v-1.997c0-0.558-0.207-1.022-0.801-1.022
			c-0.408,0-0.73,0.293-0.845,0.644c-0.028,0.079-0.043,0.187-0.043,0.294v2.082h-0.63V122.846z"/>
		<path fill="#231F20" d="M349.682,123.755c0.015,0.852,0.552,1.202,1.188,1.202c0.45,0,0.729-0.079,0.959-0.179l0.114,0.45
			c-0.222,0.101-0.607,0.223-1.159,0.223c-1.066,0-1.703-0.709-1.703-1.754s0.615-1.86,1.624-1.86c1.139,0,1.432,0.987,1.432,1.624
			c0,0.129-0.007,0.223-0.021,0.294H349.682z M351.528,123.304c0.007-0.394-0.165-1.016-0.873-1.016
			c-0.644,0-0.916,0.579-0.966,1.016H351.528z"/>
	</g>
	<g enable-background="new    ">
		<path fill="#231F20" d="M355.389,125.25c-0.165,0.079-0.529,0.201-0.995,0.201c-1.045,0-1.725-0.709-1.725-1.768
			c0-1.066,0.729-1.847,1.86-1.847c0.373,0,0.701,0.093,0.873,0.186l-0.143,0.479c-0.15-0.078-0.387-0.164-0.73-0.164
			c-0.794,0-1.224,0.594-1.224,1.31c0,0.802,0.516,1.295,1.202,1.295c0.357,0,0.594-0.086,0.773-0.164L355.389,125.25z"/>
	</g>
	<g enable-background="new    ">
		<path fill="#231F20" d="M356.979,121.078v0.83h0.901v0.479h-0.901v1.868c0,0.429,0.122,0.673,0.473,0.673
			c0.172,0,0.272-0.015,0.364-0.043l0.029,0.479c-0.121,0.043-0.314,0.086-0.559,0.086c-0.293,0-0.529-0.101-0.68-0.266
			c-0.172-0.192-0.243-0.501-0.243-0.908v-1.89h-0.536v-0.479h0.536v-0.644L356.979,121.078z"/>
	</g>
	<g enable-background="new    ">
		<path fill="#231F20" d="M361.686,123.611c0,1.281-0.895,1.84-1.725,1.84c-0.93,0-1.66-0.688-1.66-1.782
			c0-1.152,0.766-1.832,1.717-1.832C361.014,121.837,361.686,122.56,361.686,123.611z M358.945,123.647
			c0,0.759,0.429,1.331,1.045,1.331c0.601,0,1.051-0.565,1.051-1.346c0-0.587-0.293-1.323-1.037-1.323
			C359.268,122.31,358.945,122.996,358.945,123.647z"/>
		<path fill="#231F20" d="M362.484,122.989c0-0.408-0.008-0.759-0.029-1.081h0.551l0.029,0.688h0.021
			c0.157-0.466,0.543-0.759,0.966-0.759c0.064,0,0.114,0.007,0.172,0.015v0.594c-0.064-0.015-0.129-0.015-0.215-0.015
			c-0.444,0-0.759,0.329-0.845,0.802c-0.014,0.086-0.021,0.193-0.021,0.293v1.847h-0.629V122.989z"/>
	</g>
	<g enable-background="new    ">
		<path fill="#231F20" d="M341.043,131.636c0-0.443-0.014-0.802-0.028-1.131h0.558l0.037,0.594h0.014
			c0.25-0.422,0.666-0.665,1.23-0.665c0.845,0,1.475,0.708,1.475,1.753c0,1.245-0.766,1.861-1.582,1.861
			c-0.457,0-0.858-0.201-1.066-0.544h-0.014v1.882h-0.623V131.636z M341.666,132.559c0,0.094,0.008,0.18,0.029,0.258
			c0.113,0.437,0.493,0.737,0.943,0.737c0.666,0,1.053-0.544,1.053-1.338c0-0.688-0.365-1.281-1.031-1.281
			c-0.429,0-0.837,0.301-0.951,0.772c-0.021,0.079-0.043,0.172-0.043,0.251V132.559z"/>
		<path fill="#231F20" d="M345.82,129.532c0,0.214-0.15,0.386-0.4,0.386c-0.229,0-0.379-0.172-0.379-0.386
			c0-0.215,0.156-0.394,0.393-0.394C345.663,129.139,345.82,129.31,345.82,129.532z M345.119,133.969v-3.464h0.63v3.464H345.119z"/>
		<path fill="#231F20" d="M347.146,132.352c0.014,0.852,0.551,1.202,1.188,1.202c0.451,0,0.73-0.079,0.959-0.179l0.114,0.45
			c-0.222,0.101-0.608,0.223-1.159,0.223c-1.066,0-1.703-0.709-1.703-1.754s0.615-1.86,1.625-1.86c1.137,0,1.431,0.987,1.431,1.624
			c0,0.129-0.007,0.223-0.021,0.294H347.146z M348.992,131.9c0.008-0.394-0.164-1.016-0.873-1.016c-0.645,0-0.916,0.579-0.966,1.016
			H348.992z"/>
	</g>
	<g enable-background="new    ">
		<path fill="#231F20" d="M352.854,133.847c-0.164,0.079-0.529,0.201-0.994,0.201c-1.045,0-1.725-0.709-1.725-1.768
			c0-1.066,0.729-1.847,1.86-1.847c0.372,0,0.701,0.093,0.873,0.186l-0.144,0.479c-0.15-0.078-0.387-0.164-0.729-0.164
			c-0.794,0-1.224,0.594-1.224,1.31c0,0.802,0.516,1.295,1.202,1.295c0.357,0,0.594-0.086,0.772-0.164L352.854,133.847z"/>
	</g>
	<g enable-background="new    ">
		<path fill="#231F20" d="M353.9,132.352c0.015,0.852,0.552,1.202,1.188,1.202c0.45,0,0.729-0.079,0.959-0.179l0.114,0.45
			c-0.222,0.101-0.607,0.223-1.159,0.223c-1.066,0-1.703-0.709-1.703-1.754s0.615-1.86,1.624-1.86c1.139,0,1.432,0.987,1.432,1.624
			c0,0.129-0.008,0.223-0.021,0.294H353.9z M355.747,131.9c0.007-0.394-0.165-1.016-0.873-1.016c-0.644,0-0.916,0.579-0.966,1.016
			H355.747z"/>
	</g>
	<g enable-background="new    ">
		<path fill="#231F20" d="M238.557,49.861l-1.225-4.823h0.658l0.573,2.44c0.144,0.601,0.272,1.202,0.358,1.667h0.014
			c0.078-0.479,0.229-1.052,0.394-1.675l0.644-2.433h0.652l0.586,2.447c0.137,0.572,0.266,1.146,0.336,1.653h0.016
			c0.1-0.529,0.235-1.066,0.386-1.668l0.638-2.433h0.637l-1.367,4.823h-0.651l-0.608-2.512c-0.15-0.615-0.25-1.088-0.314-1.574
			h-0.015c-0.079,0.479-0.193,0.951-0.372,1.574l-0.688,2.512H238.557z"/>
	</g>
	<g enable-background="new    ">
		<path fill="#231F20" d="M244.393,45.425c0,0.214-0.15,0.386-0.4,0.386c-0.229,0-0.379-0.172-0.379-0.386
			c0-0.215,0.157-0.394,0.394-0.394C244.236,45.031,244.393,45.202,244.393,45.425z M243.691,49.861v-3.464h0.631v3.464H243.691z"/>
	</g>
	<g enable-background="new    ">
		<path fill="#231F20" d="M245.367,47.479c0-0.408-0.008-0.759-0.029-1.081h0.551l0.029,0.688h0.021
			c0.157-0.466,0.543-0.759,0.966-0.759c0.064,0,0.114,0.007,0.172,0.015v0.594c-0.064-0.015-0.129-0.015-0.215-0.015
			c-0.444,0-0.759,0.329-0.845,0.802c-0.014,0.086-0.021,0.193-0.021,0.293v1.847h-0.629V47.479z"/>
	</g>
	<g enable-background="new    ">
		<path fill="#231F20" d="M247.996,48.244c0.015,0.852,0.552,1.202,1.188,1.202c0.45,0,0.729-0.079,0.959-0.179l0.114,0.45
			c-0.222,0.101-0.607,0.223-1.159,0.223c-1.066,0-1.703-0.709-1.703-1.754s0.615-1.86,1.624-1.86c1.139,0,1.432,0.987,1.432,1.624
			c0,0.129-0.008,0.223-0.021,0.294H247.996z M249.843,47.793c0.007-0.394-0.165-1.016-0.873-1.016
			c-0.644,0-0.916,0.579-0.966,1.016H249.843z"/>
		<path fill="#231F20" d="M253.455,45.425c0,0.214-0.15,0.386-0.401,0.386c-0.229,0-0.379-0.172-0.379-0.386
			c0-0.215,0.157-0.394,0.394-0.394C253.297,45.031,253.455,45.202,253.455,45.425z M252.754,49.861v-3.464h0.629v3.464H252.754z"/>
	</g>
	<g enable-background="new    ">
		<path fill="#231F20" d="M254.428,47.335c0-0.365-0.007-0.651-0.028-0.938h0.558l0.037,0.572h0.014
			c0.172-0.321,0.572-0.644,1.145-0.644c0.48,0,1.225,0.286,1.225,1.475v2.061h-0.63v-1.997c0-0.558-0.208-1.022-0.802-1.022
			c-0.408,0-0.73,0.293-0.844,0.644c-0.029,0.079-0.043,0.187-0.043,0.294v2.082h-0.631V47.335z"/>
	</g>
	<g enable-background="new    ">
		<path fill="#231F20" d="M259.135,45.567v0.83h0.902v0.479h-0.902v1.868c0,0.429,0.123,0.673,0.473,0.673
			c0.172,0,0.272-0.015,0.365-0.043l0.029,0.479c-0.122,0.043-0.315,0.086-0.559,0.086c-0.293,0-0.529-0.101-0.68-0.266
			c-0.172-0.192-0.244-0.501-0.244-0.908v-1.89h-0.536v-0.479h0.536v-0.644L259.135,45.567z"/>
	</g>
	<g enable-background="new    ">
		<path fill="#231F20" d="M260.748,47.479c0-0.408-0.008-0.759-0.029-1.081h0.551l0.029,0.688h0.021
			c0.157-0.466,0.543-0.759,0.966-0.759c0.064,0,0.114,0.007,0.172,0.015v0.594c-0.064-0.015-0.129-0.015-0.215-0.015
			c-0.444,0-0.759,0.329-0.845,0.802c-0.014,0.086-0.021,0.193-0.021,0.293v1.847h-0.629V47.479z"/>
	</g>
	<g enable-background="new    ">
		<path fill="#231F20" d="M266.16,48.101c0,1.281-0.895,1.84-1.725,1.84c-0.93,0-1.66-0.688-1.66-1.782
			c0-1.152,0.766-1.832,1.717-1.832C265.488,46.326,266.16,47.049,266.16,48.101z M263.42,48.137c0,0.759,0.429,1.331,1.045,1.331
			c0.601,0,1.051-0.565,1.051-1.346c0-0.587-0.293-1.323-1.037-1.323C263.742,46.799,263.42,47.485,263.42,48.137z"/>
		<path fill="#231F20" d="M269.943,44.78v4.187c0,0.308,0.014,0.658,0.027,0.895h-0.558l-0.028-0.602h-0.021
			c-0.187,0.387-0.602,0.681-1.167,0.681c-0.837,0-1.488-0.709-1.488-1.761c-0.007-1.152,0.716-1.854,1.553-1.854
			c0.537,0,0.888,0.25,1.045,0.522h0.015V44.78H269.943z M269.32,47.808c0-0.079-0.008-0.187-0.029-0.265
			c-0.093-0.394-0.436-0.723-0.908-0.723c-0.651,0-1.038,0.572-1.038,1.331c0,0.701,0.351,1.28,1.023,1.28
			c0.423,0,0.809-0.286,0.923-0.751c0.021-0.086,0.029-0.172,0.029-0.272V47.808z"/>
		<path fill="#231F20" d="M273.896,48.909c0,0.365,0.008,0.681,0.029,0.952h-0.559l-0.035-0.565h-0.015
			c-0.157,0.279-0.53,0.645-1.146,0.645c-0.543,0-1.195-0.308-1.195-1.518v-2.025h0.631v1.911c0,0.658,0.207,1.109,0.772,1.109
			c0.422,0,0.716-0.294,0.83-0.58c0.036-0.086,0.058-0.2,0.058-0.322v-2.118h0.629V48.909z"/>
	</g>
	<g enable-background="new    ">
		<path fill="#231F20" d="M277.414,49.739c-0.164,0.079-0.529,0.201-0.994,0.201c-1.045,0-1.725-0.709-1.725-1.768
			c0-1.066,0.73-1.847,1.861-1.847c0.371,0,0.701,0.093,0.873,0.186l-0.145,0.479c-0.149-0.078-0.386-0.164-0.729-0.164
			c-0.795,0-1.225,0.594-1.225,1.31c0,0.802,0.516,1.295,1.203,1.295c0.357,0,0.594-0.086,0.771-0.164L277.414,49.739z"/>
	</g>
	<g enable-background="new    ">
		<path fill="#231F20" d="M278.461,48.244c0.014,0.852,0.551,1.202,1.188,1.202c0.451,0,0.73-0.079,0.959-0.179l0.114,0.45
			c-0.222,0.101-0.608,0.223-1.159,0.223c-1.066,0-1.703-0.709-1.703-1.754s0.615-1.86,1.625-1.86c1.137,0,1.431,0.987,1.431,1.624
			c0,0.129-0.007,0.223-0.021,0.294H278.461z M280.307,47.793c0.008-0.394-0.164-1.016-0.873-1.016
			c-0.645,0-0.916,0.579-0.966,1.016H280.307z"/>
		<path fill="#231F20" d="M281.699,47.479c0-0.408-0.008-0.759-0.029-1.081h0.551l0.029,0.688h0.021
			c0.157-0.466,0.543-0.759,0.966-0.759c0.064,0,0.114,0.007,0.172,0.015v0.594c-0.064-0.015-0.129-0.015-0.215-0.015
			c-0.444,0-0.759,0.329-0.845,0.802c-0.014,0.086-0.021,0.193-0.021,0.293v1.847h-0.629V47.479z"/>
	</g>
	<line fill="none" stroke="#231F20" stroke-width="0.5" x1="216.791" y1="184.409" x2="249.154" y2="184.409"/>
	<line fill="none" stroke="#231F20" stroke-width="0.5" x1="309.753" y1="124.67" x2="325.406" y2="124.67"/>
	<line fill="none" stroke="#231F20" stroke-width="0.5" x1="293.148" y1="49.024" x2="308.803" y2="49.024"/>
	<line fill="none" stroke="#231F20" stroke-width="0.5" x1="61.112" y1="134.503" x2="76.764" y2="134.503"/>
</g>
</svg>
