<?xml version="1.0" encoding="utf-8"?>
<!-- Generator: Adobe Illustrator 15.1.0, SVG Export Plug-In . SVG Version: 6.00 Build 0)  -->
<!DOCTYPE svg PUBLIC "-//W3C//DTD SVG 1.1//EN" "http://www.w3.org/Graphics/SVG/1.1/DTD/svg11.dtd">
<svg version="1.1" id="Layer_1" xmlns="http://www.w3.org/2000/svg" xmlns:xlink="http://www.w3.org/1999/xlink" x="0px" y="0px"
	 width="325.892px" height="166.13px" viewBox="32.052 26.169 325.892 166.13"
	 enable-background="new 32.052 26.169 325.892 166.13" xml:space="preserve">
<metadata><?xpacket begin="﻿" id="W5M0MpCehiHzreSzNTczkc9d"?>
<x:xmpmeta xmlns:x="adobe:ns:meta/" x:xmptk="Adobe XMP Core 5.0-c060 61.134777, 2010/02/12-17:32:00        ">
   <rdf:RDF xmlns:rdf="http://www.w3.org/1999/02/22-rdf-syntax-ns#">
      <rdf:Description rdf:about=""
            xmlns:dc="http://purl.org/dc/elements/1.1/">
         <dc:format>image/svg+xml</dc:format>
         <dc:title>
            <rdf:Alt>
               <rdf:li xml:lang="x-default">Print</rdf:li>
            </rdf:Alt>
         </dc:title>
      </rdf:Description>
      <rdf:Description rdf:about=""
            xmlns:xmp="http://ns.adobe.com/xap/1.0/"
            xmlns:xmpGImg="http://ns.adobe.com/xap/1.0/g/img/">
         <xmp:MetadataDate>2014-07-09T21:36:58+02:00</xmp:MetadataDate>
         <xmp:ModifyDate>2014-07-09T21:36:58+02:00</xmp:ModifyDate>
         <xmp:CreateDate>2014-07-09T21:36:58+02:00</xmp:CreateDate>
         <xmp:CreatorTool>Adobe Illustrator CS5</xmp:CreatorTool>
         <xmp:Thumbnails>
            <rdf:Alt>
               <rdf:li rdf:parseType="Resource">
                  <xmpGImg:width>256</xmpGImg:width>
                  <xmpGImg:height>132</xmpGImg:height>
                  <xmpGImg:format>JPEG</xmpGImg:format>
                  <xmpGImg:image>/9j/4AAQSkZJRgABAgEBMAEwAAD/7QAsUGhvdG9zaG9wIDMuMAA4QklNA+0AAAAAABABMMzNAAEA&#xA;AQEwzM0AAQAB/+4ADkFkb2JlAGTAAAAAAf/bAIQABgQEBAUEBgUFBgkGBQYJCwgGBggLDAoKCwoK&#xA;DBAMDAwMDAwQDA4PEA8ODBMTFBQTExwbGxscHx8fHx8fHx8fHwEHBwcNDA0YEBAYGhURFRofHx8f&#xA;Hx8fHx8fHx8fHx8fHx8fHx8fHx8fHx8fHx8fHx8fHx8fHx8fHx8fHx8fHx8f/8AAEQgAhAEAAwER&#xA;AAIRAQMRAf/EAaIAAAAHAQEBAQEAAAAAAAAAAAQFAwIGAQAHCAkKCwEAAgIDAQEBAQEAAAAAAAAA&#xA;AQACAwQFBgcICQoLEAACAQMDAgQCBgcDBAIGAnMBAgMRBAAFIRIxQVEGE2EicYEUMpGhBxWxQiPB&#xA;UtHhMxZi8CRygvElQzRTkqKyY3PCNUQnk6OzNhdUZHTD0uIIJoMJChgZhJRFRqS0VtNVKBry4/PE&#xA;1OT0ZXWFlaW1xdXl9WZ2hpamtsbW5vY3R1dnd4eXp7fH1+f3OEhYaHiImKi4yNjo+Ck5SVlpeYmZ&#xA;qbnJ2en5KjpKWmp6ipqqusra6voRAAICAQIDBQUEBQYECAMDbQEAAhEDBCESMUEFURNhIgZxgZEy&#xA;obHwFMHR4SNCFVJicvEzJDRDghaSUyWiY7LCB3PSNeJEgxdUkwgJChgZJjZFGidkdFU38qOzwygp&#xA;0+PzhJSktMTU5PRldYWVpbXF1eX1RlZmdoaWprbG1ub2R1dnd4eXp7fH1+f3OEhYaHiImKi4yNjo&#xA;+DlJWWl5iZmpucnZ6fkqOkpaanqKmqq6ytrq+v/aAAwDAQACEQMRAD8A9U4q7FXYq7FXYq7FXYq7&#xA;FUAtvDd3d0blfVWF1iSJyWjAEavy4H4eVZDvTpirc+iabLC8aQRQOwos0cURZT4jmjr94OKpd5Sn&#xA;vDDdWlzcyXn1WaZI7qbj6jqtzNGASqoPhEQX7PUHtTFU/wAVdirsVdirsVdirsVdirsVdirsVUra&#xA;7tblC9tMk6DjVo2Dj4lDrupPVHVh7EHFVXFVk08ECB5pFiQskYZyFBeRgiLU92dgoHcmmKr8VaDK&#xA;SQCCR1HhireKrIJ4LiJZoJFlhcVSRCGVh4gjY4q714DObcSL64USGKo5hCSA3HrSoIriq4SIxKqw&#xA;LDqAdx2xVpJYnaRUdWaJuEqqQSrFQ3FqdDxYH5HFV2KuxV2KuxV2KuxV2KuxVjU+valBr19pWm6T&#xA;LfXKiK7mmd1t7ZI5UEcY9R+TOzNBJsiGnH4iKiqq288w+c7e3cx+VJLq429NLe9tShFRXk07W5X4&#xA;a9FPb6FUD5GM+r6Xc30dze6bIby5WaAwwxlXMzSyRUmil5elNLInIHcg4qyP9E3/AP1erz/gLP8A&#xA;7J8Vd+ib/wD6vV5/wFn/ANk+Ku/RN/8A9Xq8/wCAs/8AsnxV36Jv/wDq9Xn/AAFn/wBk+Ku/RN//&#xA;ANXq8/4Cz/7J8Vd+ib//AKvV5/wFn/2T4q79E3//AFerz/gLP/snxV36Jv8A/q9Xn/AWf/ZPirv0&#xA;Tf8A/V6vP+As/wDsnxV36Jv/APq9Xn/AWf8A2T4qjbWCWGLhJcSXTVJ9WURht+37tI1/DFWCW35P&#xA;2MNmYH1i9mlEbwpOSkZETWsdkqEQiOvGCBQT1JqfkqiJ/wAqdNmSUNqN2JH/ALu4RhDMFMkUpVpI&#xA;PSJFYAi8ePFKKtKDFVo/KTSBpmqaf+kbx49Te2fnMySmEWk6zRpErqVCcYo4ytN1Ud6kqqTflFat&#xA;NdNJreoSxXRnYxu42NwiId1C/sxAMRRnH2m3bkqmM35dWba7FrEF/cWs6TWk0wi48pjaRiMLLIwZ&#xA;3DooQliTxLivxnFUo1X8nba5kjNlq93aIXJmo7MVUicgwqT6YdXuAVZlJWlQd8VRlr+VVpbXUs6a&#xA;xfFJWtiLfkixr9WiaJTxVV+P4+ayfaVwhB+EYq1dflPp89pZW41O8iNjYSackisrl45A61kMolZg&#xA;PU+zWmwpSgxVC2P5L6RZzRTRahcfWEaN5rkBY7ido3SSs88XpyuWkDSH4vtcT+xurat/yqDTI7b6&#xA;va6pewR+h9XK+oWShhghdzGf3bu/1fk3qKyljuNsVZ9irsVdirsVdirsVdirsVSq2/5SrUf+YGx2&#xA;/wCe13iqa4qlXlmv6Nmr/wAt2of9R02KprirsVdirsVdirsVdirsVdirsVdirsVdirsVdirsVdir&#xA;sVdirsVdirsVdirsVdirsVdirsVdiqVKOPmqQrt6tinqe/pTPw+71G+/FU1xVjXlzVhHottSzupR&#xA;LznEqRclf1naXnUnflz5Yqmf6b/5cLz/AJE/24q79N/8uF5/yJ/txV36b/5cLz/kT/birv03/wAu&#xA;F5/yJ/txV36b/wCXC8/5E/24q79N/wDLhef8if7cVd+m/wDlwvP+RP8Abirv03/y4Xn/ACJ/txV3&#xA;6b/5cLz/AJE/24q79N/8uF5/yJ/txVG2tz9Yi9T0pIdyOEq8W29t8VeeWXmz81IjZW175bWae7oJ&#xA;LhGPowUtLd+UjBUO87Sqy8djsrNxNVK6681fmebn6zB5ddIIYoXaxqreoz2c0kn7ynL93P6a8VHI&#xA;0p1amKvQbSaWa0hmlj9GWSNXkiqTwZgCVqwQ7HbcD5YoVcVdirsVdirsVdirsVdirsVdirsVdirs&#xA;VdirsVSqo/xUR3FiKjwrMafqxVNcVSryl/yiujdv9Bttv+eK4qmuKuxV2KuxV2KuxV2KuxV2KuxV&#xA;2KuxV2KuxV2KuxV2KuxV2KuxV2KuxV2KuxV2KuxV2KuxVTlniiDFiSVAJRAXehNAeKgt+GKpTp85&#xA;l806kfSeNfqNjxMgA5D1rvcLXkP9kAcVTrFUm8mzwTeU9HaGRZFFjbAlSDQ+ihoad98VTnFXYq7F&#xA;XYq7FXYq7FXYq7FXYq7FXYq7FXYq7FXYq7FXYq7FXYq7FXYq7FXYq7FXYqhBcS3Q/wBEIEJ63RFQ&#xA;Qf8AfQ/a/wBbp/rYqv8AqMLqFnLXHw8WEpqrDly3jFI6gjY8cVXwvCGe3jX0/Q4jgAAOJHwlQP2e&#xA;o+g4qx3UNYk0vXdS1A2NxdWEdhbfWLqD0vTiFvLctNyMkkbMyo4JVAx+/FWTO6Ro0jkKiAszHoAN&#xA;yTiqS+XNMnTy7pUd9EttqVtaQwu8LVZfTQADkVWviVIIr49cVTW1neRXWQATQt6cvH7JbiGBHsVY&#xA;HFVbFXYq7FXYq7FXYq7FXYq7FXYq7FXYq7FXYq7FXYq7FXYq7FXYq7FXYq7FVKe5WIhADJM/2Il6&#xA;mnUnwUdyf14qoyxLJGPrpDkBnNvHyKkCmxX7UnHp0of5emKq0F1bXAJglWTj9oKQSpPZh2+nFUmX&#xA;X7DS59Vj1a8WL6qVuy0rHaCcuIljHVt4WAVRu2wxVUlkvLxFv7QPb27FY5VKkzSwrLuygGsfw8it&#xA;KsQ3RWpiq7zDCZ9Eu9Mt4zEt3A1qJQOKR/WB6S8R41b5Dv7qo7VP94Xr/dkoJv8AjEXHq19uFcVS&#xA;+5m0q3s7m91QRmSGV05S05/FKVt40ruC9VCBepO25xVE6H65t5WuKi4aQCVW+0GSNEq3+uFD/Tiq&#xA;Y4q7FXYq7FXYq7FXYq7FXYq7FXYq7FXYq7FXYq7FXYq7FXYq7FXYq7FVK5nMSgIOc0h4xJ0qfEns&#xA;o6k/xxV0EAiBZjzlfeSQ7Vp2HgB2GKoWfTpb0D626qBukSRxuFr4tKslT8gMVV5LCB+NTIoVQoEc&#xA;ska0HT4UZV/DFUu1byppOpWxt3hWMSMv1mVVHqyxrWqPIfiPLkdya71674qnCIiIqIoVFACqBQAD&#xA;YAAYqlMmrW0+syWCJLLLYIkzxpG3Fnm5qn7xgsfwhG6t19xiqKuL1Wme1UtEY4/VuZmUhUjPgxHA&#xA;k799qHwpiqEhstFW4t5WtZawELZzXAlZUY/CAgkLGM/FxFQOtBiqOsPi+szj7E8xZP8AVRVir8m9&#xA;Oo9sVRWKuxV2KuxV2KuxV2KuxV2KuxV2KuxV2KuxV2KuxV2KuxV2KuxV2KrZZUiQu54qvU4qpwIX&#xA;YXMicJmXiEJrxXkTT2Y7cqeHemKq2KuxVbJJHGhkkYIi7szEAAe5OKpedaV3ZLaFpCkqwSO7IiRy&#xA;ModVlFWlQkOtAY6/EvY1xVfbyX17GS/C2iDvGwiYu7em5Q0cqnH7PgT7jFUPZRJH5n1BEHFRYWIA&#xA;H/Ga7xVXv4aSTO4cxXESxF41LvG8bMyOFUEnd61HQj7lUJaX/wCmYxFPBJaw86gSgoZ/SbkrwkH+&#xA;7biGFTyp1UYqnSqqqFUBVUUVRsAB2GKt4q7FXYq7FXYq7FXYq7FXYq7FXYq7FXYq7FXYq7FXYq7F&#xA;XYq7FVKe49MhEX1Jn+xGDT/ZMeyjuf1nbFWhb8pElmbm6AcVGyK1N2UeJ9607d8VVsVdiqyYzhKw&#xA;orv/ACuxQU+YV/1Yqk2tXV1bRwxoUudXu39LTLWhEKvSrTSCtSkK/E7E9gq/EwBVRFvo8Gn6MLSF&#xA;nkaI/WHnajSTTh/WeR/sAtJJuwFBvQUHRVXhlSC4vzKeI5JNXr8DRqgO3+VEwpiqA0659bzXqgKe&#xA;myWNh8DEF6GW7ILAV417d8VTmcyCCQxLzlCngpNAWpsK9t8VSjVLhBDosdnsLm6gW3T7IMaRtK25&#xA;6UijY+9Kd8VTrFXYq7FXYq7FXYq7FXYq7FXYq7FXYq7FXYq7FXYq7FXYq7FXYq7FVG2gaMNJKQ08&#xA;lDIw6bdFX/JXt9/UnFVbFVplQSrET+8ZSyr4hSAT/wAMMVXYqhdS1K20+2NxcEkEhIokHKSSRvsx&#xA;xr+0zdhiqW6PbyLdXGp6oyvrEqUe3iJlFpb7MlunEdW+07Uq7f5KoFVTKad57K4METFvTYRiVCoZ&#xA;qGg4vQ9fEUxVC6irJqdpKFLQsCbhQC3L0gTGAvcgyM9Ovw1HTFWP6Pr2hWGv3dre3EGnTR6fYIVu&#xA;Hjh9Rllu+TLVgeu+9G8QMVT0+cPKnEFNYs5S26rFPHI7V/lVCzN17DFUJ5O0nTorBNSS2Md7ctO8&#xA;rSK6OrTTs8oET09IswHMBRWgr0GKsixV2KuxV2KuxV2KuxV2KuxV2KuxV2KuxV2KuxV2KuxV2Kux&#xA;V2KuxV2KuxVJ7ptQXTHmtAs2qadyUJMWCyhaFldlDMPVjowoDRqbGlMVaXWNcliUQaJIs7DaWa4t&#xA;1tfn6kTzSlT+z+6+dMVX6fociXg1LU5xfamAyQyBPThgRuqQRkvx5U+JixZvGlFCqbYq7FULJI9w&#xA;5it24qjUkuAFNCp3Raggt2O23zxVA6daXKT3r2/pRu85ElzIGmaXgoVd+SGiD4T8R+LkAAMVR3oa&#xA;gn93dCTuRNGCfkpjMdB8wcVUNMuWe/v7do/TMRjd1qGUPIprwO3w0UNuAak4qmOKuxV2KuxV2Kux&#xA;V2KuxV2KuxV2KuxV2KuxV2KuxV2KuxV2KuxV2KuxV2KoaVWiu0nUEpKBFOBvTf8Adt9BJU/Op2GK&#xA;qlvB6CtGrVirWJKfYU/sj2HbwG2KtyzxRGMOSDK4jjABarEE9gewO+KqTX68ikUE0rg0KiNkG3cP&#xA;L6aH/gsVa9C6uP8AelhHF3giJJP+tJ8Jp7AD5kYqiURERURQqKAFUCgAGwAAxVC6ayiOWMEHjPPQ&#xA;+NZCxp3+EtxPviqLJAFTsB1OKsf0S7uZvM2uA27iyItmtL0KwilAio6qzABird0qPetRirIMVdir&#xA;sVdirsVdirsVdirsVdirsVdirsVdirsVdirsVdirsVdirsVdirsVdiqhcTyiRYIArTOCSWrxRenN&#xA;qdd+i7V8euKuitmEgmmk9WYCimnFFr14LvSvuScVV8VdirsVeYx6B+XGuyahe6xps2qX899Obi5j&#xA;gv7hWWC6ZbXi8CtHRIo048e304qv0/yB+T2mzrPa6NcWUqSLKk80Wpxj1Uf1VPKccGIf4gDXFWaa&#xA;b5g0u4EwXUbe4ihcIJvUjDcioYqwBpUBh4eFNt1Ub+ltK/5bYP8Akan9cVd+ltK/5bYP+Rqf1xV3&#xA;6W0r/ltg/wCRqf1xVoavpZ+zdwsegVZFYk+AAJJPsMVWXGs2kELytHcEIKlRBKCfYclWpPYdT0G+&#xA;Kqf+IbD/AH1ef9IN5/1SxV3+IbD/AH1ef9IN5/1SxV3+IbD/AH1ef9IN5/1SxV3+IbD/AH1ef9IN&#xA;5/1SxV3+IbD/AH1ef9IN5/1SxVfdaqF0a71G3jdjbwyyJFNHJCzNGhYDjIqPvTwxV57on51GW0hk&#xA;1bSpkmuvrX1dLNHkU/VI+Zqx+D95+zxYj3ZfjxTTJfJHnyPzK9xbPZTWl1bRpM7OoETpKzBPTbk3&#xA;MALQsPhLVAOxxQyzFXYq7FXYq7FXYq7FXYq7FXYqsmaRUJjTm/RQTQb9yfAYqtt4BEpJPOVzWSQ9&#xA;Sf4AdhiqrirsVdirsVfMWo/lJ501/wA16pNovnqz06H67d29hod0jSywQwTvEqpHNyPGifCVFKdM&#xA;VR8H/OP351QJwj876aBUnkdNhZgT4M0RYffiqOX8mf8AnIFVCj8wrGgFBXT4SdvEmKuKpPL5B/PN&#xA;+aRfmhPJHGzKTY2F60QZSQyq1tCU2PZcVQs3kv8AO7TShm/NHUEa8lSCFZbDVGDzPskaepCVUt9A&#xA;xVES+QP+cnEO3nW/EZ3WZokKkV3+CJ5ZgeO4rH7bYqy7yf8Ak75vvYvrev8A5o+YdQjLkS2lk8+m&#xA;FXU1ZGMjNMBXwVDTFXsFho9hYxQpEjSPAoRLi4kkuJ6AU+KeZpJWNO5bFUZirsVdirsVdiqH1C+t&#xA;tPsLm/umKW1pE887gFiI4lLsaDc7DFWPP+Znk1dIh1X68Dazc6bUdREiyOzKaUVUdG5dKMp6EYqy&#xA;S0u7W8tYru0lSe2nQSQzRkMjowqGUjqDiqrirsVdirsVdirsVdirsVdirsVdirsVdirsVdirsVYH&#xA;qP1P6pd+r+kP0L9bueXrfob6r631iT1uP1346erzpy+jbFUlH+DamnXv/wAov1xVo/4B3+t/3P7f&#xA;/KP0rTv9V/e/574q1b/8qr+H6l6nPfh9T+r+p3rx9D4/GtPfFUc3+Bf9E9T/ABF63qQ/VPrn6Z4/&#xA;WPUT0vS+uf6P6tenp/s8v2a4qnw/SvM/U/07woOX/HOpXf8A5bPj/wCB2xVdbf4I9EfpH6v9cq3r&#xA;fpb0vrPPmfU/vPh4+py/uv3da8cVVf8AkG3/AGpv+nXFXf8AINv+1N/064q7/kG3/am/6dcVd/yD&#xA;b/tTf9OuKu/5Bt/2pv8Ap1xV3/INv+1N/wBOuKo6X/C3+HL3j9W/QPoTfXfq/H0fS4H1v7n/ACa1&#xA;pvirB5P+VG7cvT/3mnrx+ufY5D6zz4/7vrx9Tl+9+zX9nFL0DQf0T+h7X9Ecf0dw/wBH48q0qeXL&#xA;n8fPlXnz+LlXlvXFCPxV2KuxV2KuxV2KuxV2Kv8A/9k=</xmpGImg:image>
               </rdf:li>
            </rdf:Alt>
         </xmp:Thumbnails>
      </rdf:Description>
      <rdf:Description rdf:about=""
            xmlns:xmpMM="http://ns.adobe.com/xap/1.0/mm/"
            xmlns:stRef="http://ns.adobe.com/xap/1.0/sType/ResourceRef#"
            xmlns:stEvt="http://ns.adobe.com/xap/1.0/sType/ResourceEvent#">
         <xmpMM:InstanceID>xmp.iid:F78B765B9D07E41183468BB91137401D</xmpMM:InstanceID>
         <xmpMM:DocumentID>xmp.did:F78B765B9D07E41183468BB91137401D</xmpMM:DocumentID>
         <xmpMM:OriginalDocumentID>uuid:5D20892493BFDB11914A8590D31508C8</xmpMM:OriginalDocumentID>
         <xmpMM:RenditionClass>proof:pdf</xmpMM:RenditionClass>
         <xmpMM:DerivedFrom rdf:parseType="Resource">
            <stRef:instanceID>uuid:29e17876-faee-8948-9286-1741a44a591b</stRef:instanceID>
            <stRef:documentID>xmp.did:F77F11740720681188C6A5613A2C864B</stRef:documentID>
            <stRef:originalDocumentID>uuid:5D20892493BFDB11914A8590D31508C8</stRef:originalDocumentID>
            <stRef:renditionClass>proof:pdf</stRef:renditionClass>
         </xmpMM:DerivedFrom>
         <xmpMM:History>
            <rdf:Seq>
               <rdf:li rdf:parseType="Resource">
                  <stEvt:action>saved</stEvt:action>
                  <stEvt:instanceID>xmp.iid:F78B765B9D07E41183468BB91137401D</stEvt:instanceID>
                  <stEvt:when>2014-07-09T21:36:58+02:00</stEvt:when>
                  <stEvt:softwareAgent>Adobe Illustrator CS5</stEvt:softwareAgent>
                  <stEvt:changed>/</stEvt:changed>
               </rdf:li>
            </rdf:Seq>
         </xmpMM:History>
      </rdf:Description>
      <rdf:Description rdf:about=""
            xmlns:illustrator="http://ns.adobe.com/illustrator/1.0/">
         <illustrator:StartupProfile>Print</illustrator:StartupProfile>
      </rdf:Description>
      <rdf:Description rdf:about=""
            xmlns:xmpTPg="http://ns.adobe.com/xap/1.0/t/pg/"
            xmlns:stDim="http://ns.adobe.com/xap/1.0/sType/Dimensions#"
            xmlns:xmpG="http://ns.adobe.com/xap/1.0/g/">
         <xmpTPg:HasVisibleOverprint>False</xmpTPg:HasVisibleOverprint>
         <xmpTPg:HasVisibleTransparency>False</xmpTPg:HasVisibleTransparency>
         <xmpTPg:NPages>1</xmpTPg:NPages>
         <xmpTPg:MaxPageSize rdf:parseType="Resource">
            <stDim:w>114.967315</stDim:w>
            <stDim:h>58.607103</stDim:h>
            <stDim:unit>Millimeters</stDim:unit>
         </xmpTPg:MaxPageSize>
         <xmpTPg:PlateNames>
            <rdf:Seq>
               <rdf:li>Cyan</rdf:li>
               <rdf:li>Magenta</rdf:li>
               <rdf:li>Yellow</rdf:li>
               <rdf:li>Black</rdf:li>
            </rdf:Seq>
         </xmpTPg:PlateNames>
         <xmpTPg:SwatchGroups>
            <rdf:Seq>
               <rdf:li rdf:parseType="Resource">
                  <xmpG:groupName>Default Swatch Group</xmpG:groupName>
                  <xmpG:groupType>0</xmpG:groupType>
               </rdf:li>
            </rdf:Seq>
         </xmpTPg:SwatchGroups>
      </rdf:Description>
      <rdf:Description rdf:about=""
            xmlns:pdf="http://ns.adobe.com/pdf/1.3/">
         <pdf:Producer>Adobe PDF library 9.90</pdf:Producer>
      </rdf:Description>
   </rdf:RDF>
</x:xmpmeta>
                                                                                                    
                                                                                                    
                                                                                                    
                                                                                                    
                                                                                                    
                                                                                                    
                                                                                                    
                                                                                                    
                                                                                                    
                                                                                                    
                                                                                                    
                                                                                                    
                                                                                                    
                                                                                                    
                                                                                                    
                                                                                                    
                                                                                                    
                                                                                                    
                                                                                                    
                                                                                                    
                           
<?xpacket end="w"?>
	</metadata>
<g>
	<g id="Layer_1_1_">
		<g enable-background="new    ">
			<path fill="#231F20" d="M256.874,35.541v2.937c0,1.101,0.491,1.57,1.152,1.57c0.727,0,1.204-0.484,1.204-1.57v-2.937h0.646v2.893
				c0,1.519-0.8,2.136-1.872,2.136c-1.012,0-1.775-0.573-1.775-2.114v-2.914H256.874z"/>
			<path fill="#231F20" d="M260.957,37.897c0-0.374-0.008-0.668-0.029-0.962h0.572l0.037,0.588h0.015
				c0.177-0.331,0.587-0.661,1.175-0.661c0.491,0,1.254,0.294,1.254,1.513v2.113h-0.646V38.44c0-0.572-0.213-1.05-0.821-1.05
				c-0.419,0-0.749,0.302-0.867,0.661c-0.029,0.08-0.043,0.19-0.043,0.301v2.136h-0.646V37.897z"/>
			<path fill="#231F20" d="M264.938,39.835c0.198,0.117,0.536,0.25,0.858,0.25c0.463,0,0.683-0.228,0.683-0.528
				c0-0.309-0.183-0.47-0.653-0.646c-0.646-0.234-0.946-0.58-0.946-1.006c0-0.572,0.47-1.042,1.226-1.042
				c0.359,0,0.676,0.096,0.866,0.221l-0.154,0.47c-0.14-0.088-0.396-0.213-0.727-0.213c-0.382,0-0.587,0.22-0.587,0.484
				c0,0.293,0.205,0.426,0.668,0.609c0.609,0.228,0.932,0.535,0.932,1.063c0,0.632-0.492,1.072-1.321,1.072
				c-0.389,0-0.749-0.104-0.998-0.25L264.938,39.835z"/>
			<path fill="#231F20" d="M270.463,40.363c-0.17,0.081-0.543,0.206-1.021,0.206c-1.071,0-1.769-0.727-1.769-1.813
				c0-1.094,0.748-1.894,1.908-1.894c0.381,0,0.719,0.096,0.895,0.191l-0.146,0.491c-0.154-0.08-0.396-0.169-0.748-0.169
				c-0.814,0-1.256,0.609-1.256,1.344c0,0.821,0.529,1.328,1.233,1.328c0.367,0,0.609-0.088,0.793-0.169L270.463,40.363z"/>
		</g>
		<g enable-background="new    ">
			<path fill="#231F20" d="M271.215,38.044c0-0.418-0.008-0.777-0.029-1.108h0.564l0.029,0.705h0.022
				c0.161-0.478,0.558-0.778,0.991-0.778c0.065,0,0.117,0.008,0.176,0.015v0.609c-0.066-0.015-0.133-0.015-0.221-0.015
				c-0.455,0-0.777,0.338-0.865,0.822c-0.016,0.088-0.022,0.198-0.022,0.301v1.894h-0.646V38.044z"/>
		</g>
		<g enable-background="new    ">
			<path fill="#231F20" d="M273.906,38.829c0.015,0.874,0.564,1.233,1.219,1.233c0.462,0,0.748-0.081,0.982-0.184l0.118,0.463
				c-0.228,0.103-0.624,0.228-1.188,0.228c-1.094,0-1.748-0.727-1.748-1.799c0-1.071,0.632-1.908,1.666-1.908
				c1.168,0,1.469,1.013,1.469,1.666c0,0.133-0.008,0.228-0.022,0.301H273.906z M275.8,38.367c0.007-0.403-0.169-1.042-0.896-1.042
				c-0.66,0-0.939,0.595-0.99,1.042H275.8z"/>
			<path fill="#231F20" d="M277.476,36.935l0.477,1.806c0.096,0.396,0.191,0.764,0.258,1.131h0.021
				c0.081-0.36,0.198-0.741,0.316-1.123l0.579-1.813h0.544l0.55,1.776c0.132,0.426,0.235,0.8,0.315,1.16h0.022
				c0.059-0.36,0.153-0.734,0.271-1.152l0.507-1.784h0.639l-1.146,3.553h-0.587l-0.543-1.695c-0.125-0.396-0.229-0.749-0.316-1.167
				h-0.015c-0.088,0.426-0.198,0.793-0.323,1.174l-0.572,1.688h-0.587l-1.071-3.553H277.476z"/>
			<path fill="#231F20" d="M284.17,35.277h0.639v2.231h0.016c0.227-0.396,0.639-0.646,1.211-0.646c0.888,0,1.504,0.734,1.504,1.806
				c0,1.27-0.807,1.901-1.6,1.901c-0.514,0-0.925-0.198-1.196-0.661h-0.015l-0.037,0.58h-0.551c0.016-0.242,0.029-0.602,0.029-0.917
				V35.277z M284.808,39.064c0,0.081,0.008,0.161,0.029,0.234c0.118,0.448,0.5,0.757,0.969,0.757c0.684,0,1.08-0.551,1.08-1.365
				c0-0.712-0.367-1.321-1.064-1.321c-0.434,0-0.844,0.309-0.977,0.793c-0.021,0.08-0.037,0.168-0.037,0.271V39.064z"/>
			<path fill="#231F20" d="M290.838,39.636c0,0.309,0.015,0.609,0.051,0.852h-0.579l-0.052-0.447h-0.021
				c-0.198,0.278-0.58,0.528-1.086,0.528c-0.72,0-1.087-0.507-1.087-1.021c0-0.858,0.763-1.328,2.136-1.321v-0.073
				c0-0.286-0.08-0.822-0.807-0.814c-0.338,0-0.684,0.096-0.933,0.264l-0.147-0.433c0.294-0.184,0.727-0.309,1.175-0.309
				c1.087,0,1.351,0.741,1.351,1.446V39.636z M290.214,38.676c-0.704-0.015-1.505,0.109-1.505,0.8c0,0.426,0.279,0.616,0.602,0.616
				c0.471,0,0.771-0.293,0.874-0.595c0.022-0.073,0.029-0.146,0.029-0.205V38.676z"/>
			<path fill="#231F20" d="M291.789,39.835c0.197,0.117,0.535,0.25,0.858,0.25c0.462,0,0.683-0.228,0.683-0.528
				c0-0.309-0.184-0.47-0.653-0.646c-0.646-0.234-0.946-0.58-0.946-1.006c0-0.572,0.469-1.042,1.225-1.042
				c0.359,0,0.676,0.096,0.867,0.221l-0.154,0.47c-0.141-0.088-0.396-0.213-0.727-0.213c-0.383,0-0.588,0.22-0.588,0.484
				c0,0.293,0.205,0.426,0.668,0.609c0.609,0.228,0.932,0.535,0.932,1.063c0,0.632-0.491,1.072-1.32,1.072
				c-0.389,0-0.749-0.104-0.998-0.25L291.789,39.835z"/>
			<path fill="#231F20" d="M295.14,38.829c0.014,0.874,0.564,1.233,1.218,1.233c0.462,0,0.749-0.081,0.983-0.184l0.117,0.463
				c-0.227,0.103-0.623,0.228-1.188,0.228c-1.094,0-1.747-0.727-1.747-1.799c0-1.071,0.631-1.908,1.666-1.908
				c1.167,0,1.469,1.013,1.469,1.666c0,0.133-0.008,0.228-0.023,0.301H295.14z M297.033,38.367c0.008-0.403-0.168-1.042-0.895-1.042
				c-0.661,0-0.939,0.595-0.991,1.042H297.033z"/>
		</g>
		<g enable-background="new    ">
			<path fill="#231F20" d="M300.787,36.085v0.851h0.924v0.492h-0.924v1.916c0,0.439,0.124,0.689,0.484,0.689
				c0.176,0,0.278-0.015,0.373-0.044l0.029,0.491c-0.124,0.045-0.322,0.089-0.572,0.089c-0.301,0-0.543-0.104-0.697-0.271
				c-0.176-0.198-0.249-0.515-0.249-0.933v-1.938h-0.55v-0.492h0.55v-0.66L300.787,36.085z"/>
		</g>
		<g enable-background="new    ">
			<path fill="#231F20" d="M305.613,38.682c0,1.313-0.917,1.887-1.769,1.887c-0.954,0-1.702-0.705-1.702-1.828
				c0-1.182,0.785-1.879,1.762-1.879C304.924,36.862,305.613,37.603,305.613,38.682z M302.802,38.719
				c0,0.777,0.44,1.365,1.072,1.365c0.615,0,1.078-0.58,1.078-1.38c0-0.603-0.301-1.358-1.064-1.358
				C303.133,37.346,302.802,38.052,302.802,38.719z"/>
		</g>
		<g enable-background="new    ">
			<path fill="#231F20" d="M307.978,38.044c0-0.418-0.008-0.777-0.029-1.108h0.564l0.029,0.705h0.022
				c0.161-0.478,0.558-0.778,0.991-0.778c0.065,0,0.117,0.008,0.176,0.015v0.609c-0.066-0.015-0.133-0.015-0.221-0.015
				c-0.455,0-0.777,0.338-0.865,0.822c-0.016,0.088-0.022,0.198-0.022,0.301v1.894h-0.646V38.044z"/>
		</g>
		<g enable-background="new    ">
			<path fill="#231F20" d="M310.662,38.829c0.015,0.874,0.564,1.233,1.219,1.233c0.462,0,0.748-0.081,0.982-0.184l0.118,0.463
				c-0.228,0.103-0.624,0.228-1.188,0.228c-1.094,0-1.748-0.727-1.748-1.799c0-1.071,0.632-1.908,1.666-1.908
				c1.168,0,1.469,1.013,1.469,1.666c0,0.133-0.008,0.228-0.022,0.301H310.662z M312.555,38.367
				c0.007-0.403-0.169-1.042-0.896-1.042c-0.66,0-0.939,0.595-0.99,1.042H312.555z"/>
			<path fill="#231F20" d="M313.975,38.095c0-0.455-0.015-0.822-0.029-1.16h0.573l0.036,0.609h0.015
				c0.257-0.433,0.683-0.683,1.262-0.683c0.867,0,1.513,0.727,1.513,1.799c0,1.276-0.786,1.908-1.622,1.908
				c-0.47,0-0.881-0.206-1.094-0.559h-0.015v1.931h-0.639V38.095z M314.614,39.042c0,0.096,0.007,0.184,0.029,0.265
				c0.118,0.447,0.507,0.756,0.969,0.756c0.683,0,1.079-0.558,1.079-1.372c0-0.705-0.375-1.314-1.057-1.314
				c-0.441,0-0.859,0.309-0.977,0.793c-0.021,0.081-0.044,0.176-0.044,0.257V39.042z"/>
			<path fill="#231F20" d="M318.147,35.277h0.646v5.211h-0.646V35.277z"/>
			<path fill="#231F20" d="M322.373,39.636c0,0.309,0.016,0.609,0.052,0.852h-0.579l-0.053-0.447h-0.021
				c-0.198,0.278-0.58,0.528-1.086,0.528c-0.719,0-1.086-0.507-1.086-1.021c0-0.858,0.763-1.328,2.135-1.321v-0.073
				c0-0.286-0.08-0.822-0.807-0.814c-0.338,0-0.683,0.096-0.932,0.264l-0.147-0.433c0.294-0.184,0.727-0.309,1.175-0.309
				c1.086,0,1.35,0.741,1.35,1.446V39.636z M321.75,38.676c-0.705-0.015-1.505,0.109-1.505,0.8c0,0.426,0.278,0.616,0.602,0.616
				c0.47,0,0.771-0.293,0.874-0.595c0.021-0.073,0.029-0.146,0.029-0.205V38.676z"/>
		</g>
		<g enable-background="new    ">
			<path fill="#231F20" d="M325.943,40.363c-0.168,0.081-0.543,0.206-1.02,0.206c-1.072,0-1.77-0.727-1.77-1.813
				c0-1.094,0.749-1.894,1.908-1.894c0.383,0,0.72,0.096,0.896,0.191l-0.147,0.491c-0.153-0.08-0.396-0.169-0.749-0.169
				c-0.814,0-1.254,0.609-1.254,1.344c0,0.821,0.527,1.328,1.232,1.328c0.367,0,0.609-0.088,0.793-0.169L325.943,40.363z"/>
		</g>
		<g enable-background="new    ">
			<path fill="#231F20" d="M327.018,38.829c0.015,0.874,0.565,1.233,1.218,1.233c0.463,0,0.749-0.081,0.984-0.184l0.117,0.463
				c-0.228,0.103-0.624,0.228-1.189,0.228c-1.094,0-1.746-0.727-1.746-1.799c0-1.071,0.631-1.908,1.666-1.908
				c1.166,0,1.468,1.013,1.468,1.666c0,0.133-0.008,0.228-0.022,0.301H327.018z M328.912,38.367
				c0.008-0.403-0.169-1.042-0.896-1.042c-0.661,0-0.939,0.595-0.991,1.042H328.912z"/>
			<path fill="#231F20" d="M331.886,35.277h0.639v2.231h0.014c0.229-0.396,0.639-0.646,1.211-0.646c0.889,0,1.506,0.734,1.506,1.806
				c0,1.27-0.809,1.901-1.601,1.901c-0.514,0-0.925-0.198-1.196-0.661h-0.015l-0.037,0.58h-0.55
				c0.014-0.242,0.029-0.602,0.029-0.917V35.277z M332.525,39.064c0,0.081,0.007,0.161,0.029,0.234
				c0.117,0.448,0.498,0.757,0.969,0.757c0.682,0,1.078-0.551,1.078-1.365c0-0.712-0.367-1.321-1.064-1.321
				c-0.433,0-0.844,0.309-0.976,0.793c-0.022,0.08-0.036,0.168-0.036,0.271V39.064z"/>
		</g>
		<g enable-background="new    ">
			<path fill="#231F20" d="M338.554,39.636c0,0.309,0.015,0.609,0.051,0.852h-0.579l-0.052-0.447h-0.021
				c-0.198,0.278-0.58,0.528-1.086,0.528c-0.72,0-1.087-0.507-1.087-1.021c0-0.858,0.763-1.328,2.136-1.321v-0.073
				c0-0.286-0.08-0.822-0.807-0.814c-0.338,0-0.684,0.096-0.933,0.264l-0.147-0.433c0.294-0.184,0.727-0.309,1.175-0.309
				c1.087,0,1.351,0.741,1.351,1.446V39.636z M337.93,38.676c-0.704-0.015-1.505,0.109-1.505,0.8c0,0.426,0.279,0.616,0.602,0.616
				c0.471,0,0.771-0.293,0.874-0.595c0.022-0.073,0.029-0.146,0.029-0.205V38.676z"/>
		</g>
		<g enable-background="new    ">
			<path fill="#231F20" d="M340.342,36.085v0.851h0.926v0.492h-0.926v1.916c0,0.439,0.125,0.689,0.484,0.689
				c0.176,0,0.279-0.015,0.375-0.044l0.029,0.491c-0.125,0.045-0.323,0.089-0.572,0.089c-0.301,0-0.543-0.104-0.697-0.271
				c-0.177-0.198-0.25-0.515-0.25-0.933v-1.938h-0.551v-0.492h0.551v-0.66L340.342,36.085z"/>
		</g>
		<g enable-background="new    ">
			<path fill="#231F20" d="M342.769,36.085v0.851h0.926v0.492h-0.926v1.916c0,0.439,0.125,0.689,0.484,0.689
				c0.176,0,0.279-0.015,0.375-0.044l0.029,0.491c-0.125,0.045-0.323,0.089-0.572,0.089c-0.301,0-0.543-0.104-0.697-0.271
				c-0.177-0.198-0.25-0.515-0.25-0.933v-1.938h-0.551v-0.492h0.551v-0.66L342.769,36.085z"/>
		</g>
		<g enable-background="new    ">
			<path fill="#231F20" d="M344.733,38.829c0.015,0.874,0.565,1.233,1.218,1.233c0.463,0,0.749-0.081,0.984-0.184l0.117,0.463
				c-0.228,0.103-0.624,0.228-1.189,0.228c-1.094,0-1.746-0.727-1.746-1.799c0-1.071,0.631-1.908,1.666-1.908
				c1.166,0,1.468,1.013,1.468,1.666c0,0.133-0.008,0.228-0.022,0.301H344.733z M346.627,38.367
				c0.008-0.403-0.169-1.042-0.896-1.042c-0.661,0-0.939,0.595-0.991,1.042H346.627z"/>
		</g>
		<g enable-background="new    ">
			<path fill="#231F20" d="M348.047,38.044c0-0.418-0.007-0.777-0.029-1.108h0.566l0.029,0.705h0.021
				c0.161-0.478,0.558-0.778,0.99-0.778c0.066,0,0.118,0.008,0.177,0.015v0.609c-0.066-0.015-0.132-0.015-0.22-0.015
				c-0.455,0-0.778,0.338-0.867,0.822c-0.014,0.088-0.021,0.198-0.021,0.301v1.894h-0.646V38.044z"/>
		</g>
		<g enable-background="new    ">
			<path fill="#231F20" d="M351.196,35.937c0,0.221-0.153,0.396-0.411,0.396c-0.234,0-0.389-0.176-0.389-0.396
				c0-0.22,0.162-0.403,0.404-0.403C351.035,35.534,351.196,35.71,351.196,35.937z M350.476,40.488v-3.553h0.646v3.553H350.476z"/>
			<path fill="#231F20" d="M352.552,38.829c0.015,0.874,0.564,1.233,1.219,1.233c0.462,0,0.748-0.081,0.982-0.184l0.118,0.463
				c-0.228,0.103-0.624,0.228-1.188,0.228c-1.094,0-1.748-0.727-1.748-1.799c0-1.071,0.632-1.908,1.666-1.908
				c1.168,0,1.469,1.013,1.469,1.666c0,0.133-0.008,0.228-0.022,0.301H352.552z M354.446,38.367
				c0.007-0.403-0.169-1.042-0.896-1.042c-0.66,0-0.939,0.595-0.99,1.042H354.446z"/>
			<path fill="#231F20" d="M355.778,39.835c0.198,0.117,0.536,0.25,0.858,0.25c0.463,0,0.683-0.228,0.683-0.528
				c0-0.309-0.183-0.47-0.653-0.646c-0.646-0.234-0.946-0.58-0.946-1.006c0-0.572,0.47-1.042,1.226-1.042
				c0.359,0,0.676,0.096,0.866,0.221l-0.154,0.47c-0.14-0.088-0.396-0.213-0.727-0.213c-0.382,0-0.587,0.22-0.587,0.484
				c0,0.293,0.205,0.426,0.668,0.609c0.609,0.228,0.932,0.535,0.932,1.063c0,0.632-0.492,1.072-1.321,1.072
				c-0.389,0-0.749-0.104-0.998-0.25L355.778,39.835z"/>
		</g>
		<g enable-background="new    ">
			<path fill="#231F20" d="M255.634,173.528c0.279-0.066,0.727-0.11,1.167-0.11c0.639,0,1.05,0.11,1.351,0.359
				c0.257,0.191,0.419,0.484,0.419,0.874c0,0.484-0.323,0.902-0.838,1.086v0.021c0.471,0.11,1.021,0.499,1.021,1.233
				c0,0.426-0.17,0.756-0.426,0.991c-0.338,0.315-0.896,0.462-1.703,0.462c-0.44,0-0.778-0.029-0.991-0.059V173.528z
				 M256.272,175.553h0.58c0.667,0,1.063-0.359,1.063-0.837c0-0.572-0.433-0.808-1.078-0.808c-0.294,0-0.463,0.022-0.565,0.045
				V175.553z M256.272,177.917c0.132,0.022,0.308,0.029,0.536,0.029c0.66,0,1.27-0.242,1.27-0.962c0-0.667-0.58-0.954-1.277-0.954
				h-0.528V177.917z"/>
			<path fill="#231F20" d="M259.586,173.19h0.646v5.211h-0.646V173.19z"/>
			<path fill="#231F20" d="M263.811,177.55c0,0.309,0.015,0.609,0.052,0.852h-0.58l-0.052-0.447h-0.022
				c-0.197,0.278-0.579,0.528-1.086,0.528c-0.719,0-1.086-0.507-1.086-1.021c0-0.858,0.764-1.328,2.136-1.321v-0.073
				c0-0.286-0.081-0.822-0.808-0.814c-0.338,0-0.682,0.096-0.932,0.264l-0.146-0.433c0.293-0.184,0.727-0.309,1.174-0.309
				c1.086,0,1.351,0.741,1.351,1.446V177.55z M263.187,176.589c-0.705-0.015-1.504,0.109-1.504,0.8c0,0.426,0.278,0.616,0.602,0.616
				c0.469,0,0.771-0.293,0.873-0.595c0.021-0.073,0.029-0.146,0.029-0.205V176.589z"/>
			<path fill="#231F20" d="M267.91,173.19v4.294c0,0.315,0.016,0.675,0.029,0.917h-0.572l-0.029-0.616h-0.021
				c-0.191,0.396-0.617,0.697-1.196,0.697c-0.858,0-1.526-0.727-1.526-1.806c-0.008-1.182,0.733-1.901,1.592-1.901
				c0.551,0,0.91,0.257,1.072,0.536h0.015v-2.121H267.91z M267.272,176.295c0-0.081-0.007-0.19-0.03-0.271
				c-0.095-0.403-0.447-0.741-0.932-0.741c-0.668,0-1.064,0.587-1.064,1.365c0,0.719,0.36,1.313,1.05,1.313
				c0.433,0,0.829-0.294,0.946-0.771c0.023-0.088,0.03-0.176,0.03-0.279V176.295z"/>
			<path fill="#231F20" d="M269.345,176.742c0.014,0.874,0.564,1.233,1.218,1.233c0.462,0,0.749-0.081,0.983-0.184l0.117,0.463
				c-0.227,0.103-0.623,0.228-1.188,0.228c-1.094,0-1.747-0.727-1.747-1.799c0-1.071,0.631-1.908,1.666-1.908
				c1.167,0,1.469,1.013,1.469,1.666c0,0.133-0.008,0.228-0.023,0.301H269.345z M271.238,176.28
				c0.008-0.403-0.168-1.042-0.895-1.042c-0.661,0-0.939,0.595-0.991,1.042H271.238z"/>
		</g>
		<g enable-background="new    ">
			<path fill="#231F20" d="M255.245,186.359c0.279-0.066,0.727-0.11,1.167-0.11c0.639,0,1.05,0.11,1.351,0.359
				c0.257,0.191,0.419,0.484,0.419,0.874c0,0.484-0.323,0.902-0.838,1.086v0.021c0.471,0.11,1.021,0.499,1.021,1.233
				c0,0.426-0.17,0.756-0.426,0.991c-0.338,0.315-0.896,0.462-1.703,0.462c-0.44,0-0.778-0.029-0.991-0.059V186.359z
				 M255.884,188.385h0.58c0.667,0,1.063-0.359,1.063-0.837c0-0.572-0.433-0.808-1.078-0.808c-0.294,0-0.463,0.022-0.565,0.045
				V188.385z M255.884,190.748c0.132,0.022,0.308,0.029,0.536,0.029c0.66,0,1.27-0.242,1.27-0.962c0-0.667-0.58-0.954-1.277-0.954
				h-0.528V190.748z"/>
			<path fill="#231F20" d="M262.17,190.256c0,0.375,0.008,0.697,0.029,0.977h-0.572l-0.037-0.58h-0.015
				c-0.161,0.286-0.543,0.661-1.175,0.661c-0.557,0-1.225-0.315-1.225-1.557v-2.077h0.646v1.96c0,0.676,0.213,1.138,0.792,1.138
				c0.434,0,0.734-0.301,0.852-0.595c0.037-0.088,0.059-0.205,0.059-0.33v-2.173h0.646V190.256z"/>
			<path fill="#231F20" d="M263.237,186.021h0.646v5.211h-0.646V186.021z"/>
			<path fill="#231F20" d="M264.967,186.021h0.639v2.231h0.016c0.227-0.396,0.639-0.646,1.211-0.646
				c0.888,0,1.504,0.734,1.504,1.806c0,1.27-0.807,1.901-1.6,1.901c-0.514,0-0.925-0.198-1.196-0.661h-0.015l-0.037,0.58h-0.551
				c0.016-0.242,0.029-0.602,0.029-0.917V186.021z M265.605,189.808c0,0.081,0.008,0.161,0.029,0.234
				c0.118,0.448,0.5,0.757,0.969,0.757c0.684,0,1.08-0.551,1.08-1.365c0-0.712-0.367-1.321-1.064-1.321
				c-0.434,0-0.844,0.309-0.977,0.793c-0.021,0.08-0.037,0.168-0.037,0.271V189.808z"/>
		</g>
		<line fill="none" stroke="#231F20" stroke-width="0.5" x1="138.411" y1="39.764" x2="249.044" y2="39.764"/>
		<line fill="none" stroke="#231F20" stroke-width="0.5" x1="194.053" y1="177.46" x2="249.044" y2="177.46"/>
		<line fill="none" stroke="#231F20" stroke-width="0.5" x1="178.898" y1="189.584" x2="249.044" y2="189.584"/>
		<g enable-background="new    ">
			<path fill="#231F20" d="M256.88,60.006v2.07h2.393v-2.07h0.646v4.947h-0.646v-2.319h-2.393v2.319h-0.646v-4.947H256.88z"/>
			<path fill="#231F20" d="M263.496,64.101c0,0.309,0.014,0.609,0.051,0.852h-0.58l-0.051-0.447h-0.022
				c-0.198,0.278-0.579,0.528-1.086,0.528c-0.72,0-1.087-0.507-1.087-1.021c0-0.858,0.764-1.328,2.137-1.321v-0.073
				c0-0.286-0.081-0.822-0.808-0.814c-0.338,0-0.683,0.096-0.933,0.264l-0.146-0.433c0.293-0.184,0.727-0.309,1.174-0.309
				c1.087,0,1.352,0.741,1.352,1.446V64.101z M262.871,63.14c-0.704-0.015-1.504,0.109-1.504,0.8c0,0.426,0.279,0.616,0.602,0.616
				c0.47,0,0.771-0.293,0.873-0.595c0.022-0.073,0.029-0.146,0.029-0.205V63.14z"/>
			<path fill="#231F20" d="M264.533,62.362c0-0.374-0.007-0.668-0.029-0.962h0.573l0.036,0.588h0.016
				c0.176-0.331,0.586-0.661,1.174-0.661c0.492,0,1.255,0.294,1.255,1.513v2.113h-0.646v-2.048c0-0.572-0.213-1.05-0.822-1.05
				c-0.418,0-0.748,0.302-0.866,0.661c-0.029,0.08-0.044,0.19-0.044,0.301v2.136h-0.646V62.362z"/>
			<path fill="#231F20" d="M271.664,59.742v4.294c0,0.315,0.014,0.675,0.029,0.917h-0.572l-0.029-0.616h-0.022
				c-0.19,0.396-0.616,0.697-1.196,0.697c-0.859,0-1.527-0.727-1.527-1.806c-0.007-1.182,0.734-1.901,1.594-1.901
				c0.55,0,0.91,0.257,1.071,0.536h0.015v-2.121H271.664z M271.025,62.846c0-0.081-0.008-0.19-0.029-0.271
				c-0.096-0.403-0.447-0.741-0.933-0.741c-0.667,0-1.063,0.587-1.063,1.365c0,0.719,0.359,1.313,1.049,1.313
				c0.434,0,0.83-0.294,0.947-0.771c0.021-0.088,0.029-0.176,0.029-0.279V62.846z"/>
			<path fill="#231F20" d="M272.738,59.742h0.646v5.211h-0.646V59.742z"/>
			<path fill="#231F20" d="M274.828,63.294c0.016,0.874,0.565,1.233,1.219,1.233c0.463,0,0.748-0.081,0.983-0.184l0.118,0.463
				c-0.229,0.103-0.625,0.228-1.189,0.228c-1.094,0-1.747-0.727-1.747-1.799c0-1.071,0.632-1.908,1.666-1.908
				c1.167,0,1.468,1.013,1.468,1.666c0,0.133-0.007,0.228-0.021,0.301H274.828z M276.722,62.832c0.007-0.403-0.17-1.042-0.896-1.042
				c-0.66,0-0.939,0.595-0.99,1.042H276.722z"/>
		</g>
		<line fill="none" stroke="#231F20" stroke-width="0.5" x1="135.813" y1="64.229" x2="249.044" y2="64.229"/>
		<g>
			<g>
				<path d="M102.364,134.834c0.379-1.066,0.373,0.888,0.329,1.318C102.314,137.222,102.32,135.268,102.364,134.834z"/>
				<path d="M186.501,180.697c-3.672,2.378-9.069,3.025-13.856,4.289l0.167-0.495l-0.495,0.166
					c-19.847-0.34-38.023,0.12-56.751-0.327l0.165-0.495L115.235,184c-0.103-1.203,0.052-2.146,0.329-2.968l0.495,0.166
					l-0.167-0.495c13.628,0.421,26.641,1.629,41.572,0.329h0.327v-0.329c8.532,0.931,19.102-0.021,28.378-0.33v0.33h0.328
					L186.501,180.697L186.501,180.697z"/>
				<path d="M117.046,169.974l-0.493,0.166c0-0.222,0-0.438,0-0.661h0.66h0.661c0,0.221,0,0.438,0,0.661l-0.495-0.166l0.165,0.494
					c-0.082,0.415-0.655,0.333-0.66,0L117.046,169.974z"/>
				<path d="M99.395,88.641c-0.281,0.49-1.062,0.478-1.65,0.659C96.99,89.044,98.773,88.608,99.395,88.641z"/>
				<g>
					<path fill="none" stroke="#000000" stroke-width="0.534" stroke-linecap="round" d="M131.564,41.622
						c1.244-0.278,2.639,0.546,3.728-0.179c0.668-3.913,1.387-8.043,0.803-11.944c-1.238-0.255-2.468-0.384-3.707-0.58"/>
					<path fill="none" stroke="#000000" stroke-width="0.4513" stroke-linecap="round" d="M102.858,138.959c0-0.33,0-0.662,0-0.99"
						/>
					<path fill="none" stroke="#000000" stroke-width="0.4436" stroke-linecap="round" d="M103.188,145.888c0-1.431,0-2.859,0-4.289
						"/>
					<path fill="none" stroke="#000000" stroke-width="0.4426" stroke-linecap="round" d="M91.641,146.218
						c2.01-0.499,4.279-0.066,6.269-0.661"/>
					<path fill="none" stroke="#000000" stroke-width="0.6619" stroke-linecap="round" d="M169.179,186.142
						c1.988,1.05,4.59-0.146,6.684,0.897c0.046,0.113,0.135,0.273,0.246,0.421"/>
					<path fill="none" stroke="#000000" stroke-width="0.4952" stroke-linecap="round" d="M159.611,191.42
						c-14.473,0.234-29.448,0.84-44.114,0.56c-0.273-1.519-0.736-3.15-0.265-4.684"/>
					<path fill="none" stroke="#000000" stroke-width="0.5027" stroke-linecap="round" d="M115.232,187.296
						c0.428-1.107-0.217-2.464,0.494-3.464"/>
					<path fill="none" stroke="#000000" stroke-width="0.6513" stroke-linecap="round" d="M115.726,176.573
						c-0.111-1.921-0.579-4.033,0.094-5.851c0.404-0.114,0.696-0.362,1.227-0.749"/>
					<path fill="none" stroke="#000000" stroke-width="0.4235" stroke-linecap="round" d="M117.377,149.021
						c-1.842,1.092-3.724,2.34-5.834,2.902c-7.168,7.771-17.04,14.646-27.819,15.08"/>
					<path fill="none" stroke="#000000" stroke-width="0.4194" stroke-linecap="round" d="M105.168,123.781
						c1.396,8.326,2.883,16.616,4.949,24.746"/>
					<path fill="none" stroke="#000000" stroke-width="0.4228" stroke-linecap="round" d="M100.548,124.275
						c0.312,2.942,1.342,5.748,1.652,8.745"/>
					<path fill="none" stroke="#000000" stroke-width="0.4339" stroke-linecap="round" d="M79.763,133.679
						c8.359,0.176,12.547-9.557,20.786-9.403"/>
					<path fill="none" stroke="#000000" stroke-width="0.4674" stroke-linecap="round" d="M100.548,124.275
						c1.516-0.364,3.144,0.055,4.62-0.494"/>
					<path fill="none" stroke="#000000" stroke-width="0.4445" stroke-linecap="round" d="M105.168,123.781
						c4.872-1.05,9.243-4.287,12.045-8.414"/>
					<path fill="none" stroke="#000000" stroke-width="0.4373" stroke-linecap="round" d="M117.211,115.367
						c2.573-4.4,5.545-9.018,5.609-14.188"/>
					<path fill="none" stroke="#000000" stroke-width="0.4304" stroke-linecap="round" d="M122.82,101.177
						c-1.67,1.901-3.564,3.902-6.104,4.455"/>
					<path fill="none" stroke="#000000" stroke-width="0.5174" stroke-linecap="round" d="M122.82,101.177
						c0.668-2.188,1.03-4.728-0.188-6.738c-0.221-0.22-0.499-0.382-0.708-0.611c-0.392-0.075-0.833-0.077-1.146,0.027
						c-0.877,0.541-1.828,1.233-2.907,1.221"/>
					<path fill="none" stroke="#000000" stroke-width="0.4431" stroke-linecap="round" d="M117.872,95.075
						c-1.848,2.117-4.88,3.439-6.27,6.104"/>
					<path fill="none" stroke="#000000" stroke-width="0.4154" stroke-linecap="round" d="M111.602,101.177
						c-0.517,1.989-0.063,4.624,2.475,5.114"/>
					<path fill="none" stroke="#000000" stroke-width="0.4683" stroke-linecap="round" d="M111.602,101.177
						c-0.63,0.17-1.107,0.63-1.814,0.496"/>
					<path fill="none" stroke="#000000" stroke-width="0.4489" stroke-linecap="round" d="M109.787,101.674
						c-1.192,1.164-2.866,1.661-4.125,2.806"/>
					<path fill="none" stroke="#000000" stroke-width="0.4433" stroke-linecap="round" d="M105.663,104.479
						c-0.492,1.37-1.488,2.522-1.154,4.125"/>
					<path fill="none" stroke="#000000" stroke-width="0.4441" stroke-linecap="round" d="M105.663,104.479
						c-1.109-0.709-1.633,0.842-2.472,1.154"/>
					<path fill="none" stroke="#000000" stroke-width="0.4899" stroke-linecap="round" d="M103.188,105.634
						c-0.334,1.498-0.41,3.105-0.33,4.619"/>
					<path fill="none" stroke="#000000" stroke-width="0.4409" stroke-linecap="round" d="M103.188,105.634
						c-1.008-0.206-1.648,0.793-2.147,1.484"/>
					<path fill="none" stroke="#000000" stroke-width="0.54" stroke-linecap="round" d="M101.043,107.118
						c-0.478,1.677,0.143,3.458-0.165,5.114"/>
					<path fill="none" stroke="#000000" stroke-width="0.4409" stroke-linecap="round" d="M101.043,107.118
						c-1.122-0.436-1.937,1.088-3.134,0.824"/>
					<path fill="none" stroke="#000000" stroke-width="0.4587" stroke-linecap="round" d="M97.909,107.942
						c-3.643,1.283-7.611,1.646-11.549,1.979"/>
					<path fill="none" stroke="#000000" stroke-width="0.6043" stroke-linecap="round" d="M97.909,107.942
						c-0.078-0.632-0.486-1.206-0.66-1.814"/>
					<path fill="none" stroke="#000000" stroke-width="0.4288" stroke-linecap="round" d="M97.25,106.128
						c-1.813-1.568-2.106-4.456-2.641-6.764"/>
					<path fill="none" stroke="#000000" stroke-width="0.4342" stroke-linecap="round" d="M97.25,106.128
						c0.064-2.414-0.809-4.634-0.661-7.093"/>
					<path fill="none" stroke="#000000" stroke-width="0.4203" stroke-linecap="round" d="M109.787,101.674
						c-1.6-2.274-2.575-4.886-2.967-7.589"/>
					<path fill="none" stroke="#000000" stroke-width="0.5351" stroke-linecap="round" d="M117.872,95.075
						c-0.143-3.642,0.918-7.097,0.329-10.724"/>
					<path fill="none" stroke="#000000" stroke-width="0.4347" stroke-linecap="round" d="M118.201,84.352
						c-2.327,0.111-4.74,0.771-7.094,1.154"/>
					<path fill="none" stroke="#000000" stroke-width="0.5016" stroke-linecap="round" d="M118.201,84.352
						c0.554-12.88,0.455-26.607-0.329-39.348"/>
					<path fill="none" stroke="#000000" stroke-width="0.4705" stroke-linecap="round" d="M117.872,45.004
						c-0.425,0.188-0.798-0.229-1.076-0.491c-0.048-0.281-0.2-0.461-0.343-0.652c0.84-4.907,0.367-10.13,1.028-15.104
						c0.261-0.229,0.438-0.39,0.63-0.581c5.886-2.206,15.158-3.134,19.647,1.973c0.116,4.697,0.335,9.597-1.08,13.95"/>
					<path fill="none" stroke="#000000" stroke-width="0.5879" stroke-linecap="round" d="M136.679,44.098
						c0.16,0.304,0.16,0.755,0.059,1.057c-0.2,0.138-0.386,0.191-0.604,0.199c-0.094-0.034-0.188-0.067-0.281-0.102"/>
					<path fill="none" stroke="#000000" stroke-width="0.6081" stroke-linecap="round" d="M135.854,45.251
						c-0.418,13.588-1.552,27.479-1.155,41.079"/>
					<path fill="none" stroke="#000000" stroke-width="0.4184" stroke-linecap="round" d="M134.699,86.332
						c7.428,1.606,17.065,9.47,11.493,17.433"/>
					<path fill="none" stroke="#000000" stroke-width="0.4331" stroke-linecap="round" d="M146.192,103.764
						c1.345,5.434,1.568,12.595-3.739,16.059"/>
					<path fill="none" stroke="#000000" stroke-width="0.4615" stroke-linecap="round" d="M135.028,146.713
						c1.226,2.929,3.602,5.813,2.64,9.238"/>
					<path fill="none" stroke="#000000" stroke-width="0.6918" stroke-linecap="round" d="M137.668,155.951
						c-0.049,2.864,0.374,5.743-0.274,8.523"/>
					<path fill="none" stroke="#000000" stroke-width="0.4867" stroke-linecap="round" d="M137.393,164.475
						c0.156,0.089,0.63,0.166,1.008,0.315c0.318,0.23,0.399,0.696,0.687,0.965c0.059,0.318-0.024,0.505-0.114,0.638
						c-0.707-0.069-1.449-0.123-2.127,0.115"/>
					<path fill="none" stroke="#000000" stroke-width="0.4626" stroke-linecap="round" d="M136.844,166.509
						c-1.528,1.149-2.902,2.338-4.839,2.695"/>
					<path fill="none" stroke="#000000" stroke-width="0.5548" stroke-linecap="round" d="M132.005,169.204
						c0.021,0.52-0.416,1.11,0.058,1.594"/>
					<path fill="none" stroke="#000000" stroke-width="0.4511" stroke-linecap="round" d="M132.059,170.798
						c1.969,0.893,3.995,1.828,5.701,3.208c0.118,1.309-0.322,2.587-0.422,3.888"/>
					<path fill="none" stroke="#000000" stroke-width="0.4602" stroke-linecap="round" d="M137.338,177.893
						c18.92,0.597,38.59,1.864,57.066-1.782c-0.49,3.666-5.518,3.577-8.23,4.59"/>
					<path fill="none" stroke="#000000" stroke-width="0.9606" stroke-linecap="round" d="M117.872,45.004
						c0.554-2.711,4.062-2.42,6.231-2.44c3.165-0.032,7.023,0.671,9.771,1.039"/>
					<path fill="none" stroke="#000000" stroke-width="0.5427" stroke-linecap="round" d="M134.699,86.332
						c-0.164,2.414-0.298,4.933,0.166,7.259"/>
					<path fill="none" stroke="#000000" stroke-width="0.483" stroke-linecap="round" d="M134.865,93.591
						c0.419-0.102,0.897-0.384,0.989-0.824"/>
					<path fill="none" stroke="#000000" stroke-width="0.432" stroke-linecap="round" d="M134.865,93.591
						c-1.926,4.814-5.157,11.396,0.329,15.343"/>
					<path fill="none" stroke="#000000" stroke-width="0.4163" stroke-linecap="round" d="M135.194,108.933
						c1.915,0.592,4.359,1.774,5.774-0.496"/>
					<path fill="none" stroke="#000000" stroke-width="0.6893" stroke-linecap="round" d="M117.211,115.367
						c0.439,0.135,0.606,0.368,0.823,0.824"/>
					<path fill="none" stroke="#000000" stroke-width="0.4501" stroke-linecap="round" d="M118.036,116.191
						c1.926-0.92,4.126-1.022,6.271-0.989"/>
					<path fill="none" stroke="#000000" stroke-width="0.6511" stroke-linecap="round" d="M118.036,116.191
						c-0.438,5.989-0.265,12.01-0.495,17.98"/>
					<path fill="none" stroke="#000000" stroke-width="0.6186" stroke-linecap="round" d="M117.541,134.173
						c0.19,1.166,0.444,2.426,0.249,3.63"/>
					<path fill="none" stroke="#000000" stroke-width="0.7362" stroke-linecap="round" d="M117.789,137.802
						c0.021,2.406,0.228,4.977,0.249,7.261"/>
					<path fill="none" stroke="#000000" stroke-width="0.805" stroke-linecap="round" d="M118.036,147.042
						c0.058,0.025,0.11,0.057,0.167,0.082"/>
					<path fill="none" stroke="#000000" stroke-width="0.5742" stroke-linecap="round" d="M118.201,147.124
						c5.399,1.415,11.412,0.667,16.826-0.411"/>
					<path fill="none" stroke="#000000" stroke-width="0.641" stroke-linecap="round" d="M135.028,146.713
						c0.681-2.433-0.121-5.245,0.495-7.754"/>
					<path fill="none" stroke="#000000" stroke-width="0.4126" stroke-linecap="round" d="M135.523,138.959
						c-1.626-1.591-1.891-4.376-1.649-6.271"/>
					<path fill="none" stroke="#000000" stroke-width="0.5319" stroke-linecap="round" d="M135.523,138.959
						c0.973,0.287,1.813,1.067,2.904,0.808c2.176-1.071,3.056-3.663,3.2-5.922"/>
					<path fill="none" stroke="#000000" stroke-width="0.4355" stroke-linecap="round" d="M141.628,133.844
						c-0.427-1.21,0.146-2.617-0.495-3.796"/>
					<path fill="none" stroke="#000000" stroke-width="0.4144" stroke-linecap="round" d="M141.628,133.844
						c0.294-0.146,0.506-0.373,0.75-0.569c0.986-3.859-2.56-7.212-6.028-7.679"/>
					<path fill="none" stroke="#000000" stroke-width="0.4365" stroke-linecap="round" d="M136.349,125.596
						c-1.232,1.27-2.104,2.682-2.475,4.452"/>
					<path fill="none" stroke="#000000" stroke-width="0.7637" stroke-linecap="round" d="M136.349,125.596
						c0.003-0.229-0.025-0.436-0.059-0.605"/>
					<path fill="none" stroke="#000000" stroke-width="0.805" stroke-linecap="round" d="M136.293,124.99
						c-0.07-0.036-0.145-0.073-0.218-0.109"/>
					<path fill="none" stroke="#000000" stroke-width="0.4276" stroke-linecap="round" d="M136.073,124.881
						c-5.962,4.392-9.604-4.354-7.151-9.019"/>
					<path fill="none" stroke="#000000" stroke-width="0.426" stroke-linecap="round" d="M128.925,115.862
						c-0.775-0.071-1.491-0.478-2.31-0.33"/>
					<path fill="none" stroke="#000000" stroke-width="0.4847" stroke-linecap="round" d="M136.679,44.098
						c-0.863-0.467-1.796-0.583-2.808-0.495"/>
					<path fill="none" stroke="#000000" stroke-width="0.4984" stroke-linecap="round" d="M133.875,43.603
						c0.355,0.936,1.8,0.511,1.979,1.648"/>
					<path fill="none" stroke="#000000" stroke-width="0.5648" stroke-linecap="round" d="M118.201,147.124
						c-0.098,0.707-0.438,1.323-0.824,1.897"/>
					<path fill="none" stroke="#000000" stroke-width="0.4417" stroke-linecap="round" d="M117.377,149.021
						c-0.833,1.841-2.004,3.761-1.155,5.938"/>
					<path fill="none" stroke="#000000" stroke-width="0.4327" stroke-linecap="round" d="M118.036,147.042c0-0.715,0-1.227,0-1.979
						"/>
					<path fill="none" stroke="#000000" stroke-width="0.4267" stroke-linecap="round" d="M117.541,134.173
						c-6.518,1.438-11.468,11.646-1.77,12.989c0.643,0.088,1.662,0.095,2.265-0.12"/>
					<path fill="none" stroke="#000000" stroke-width="0.4386" stroke-linecap="round" d="M117.789,137.802
						c-1.266,0.213-2.706,0.139-3.636,1.229c-0.146,1.948,0.081,3.984,0.674,5.772c0.114,0.106,0.213,0.226,0.315,0.343
						c0.464,0.124,1.082,0.447,1.47,0.3c0.371-0.342,0.978-0.147,1.423-0.385"/>
					<path fill="none" stroke="#000000" stroke-width="0.4344" stroke-linecap="round" d="M137.668,155.951
						c-6.357-4.583-14.59-5.311-21.444-0.99"/>
					<path fill="none" stroke="#000000" stroke-width="0.4731" stroke-linecap="round" d="M116.221,154.961
						c-0.401,4.458-0.02,9.063-0.194,13.564c0.23,0.188,0.782,0.551,1.185,0.953"/>
					<path fill="none" stroke="#000000" stroke-width="0.6079" stroke-linecap="round" d="M117.211,169.479
						c1.203-0.707,3.636-0.977,4.619,0.247"/>
					<path fill="none" stroke="#000000" stroke-width="0.7637" stroke-linecap="round" d="M121.831,169.726
						c0.662-0.35,1.431-0.213,2.146-0.248"/>
					<path fill="none" stroke="#000000" stroke-width="0.6779" stroke-linecap="round" d="M123.976,169.479
						c0.635-0.086,1.354-0.338,1.813,0.33"/>
					<path fill="none" stroke="#000000" stroke-width="0.857" stroke-linecap="round" d="M125.79,169.809
						c0.697-0.575,1.661-0.135,2.476-0.33"/>
					<path fill="none" stroke="#000000" stroke-width="0.429" stroke-linecap="round" d="M137.393,164.475
						c-0.247,0.649-0.592,1.307-0.552,2.033"/>
					<path fill="none" stroke="#000000" stroke-width="0.54" stroke-linecap="round" d="M132.059,170.798
						c-0.69,0.426-1.444-0.074-2.146-0.164"/>
					<path fill="none" stroke="#000000" stroke-width="0.6235" stroke-linecap="round" d="M129.914,170.634
						c-0.545,0.223-1.099,0.155-1.648,0"/>
					<path fill="none" stroke="#000000" stroke-width="0.5577" stroke-linecap="round" d="M121.831,169.809
						c-1.214,0.656-3.125,0.653-4.453,0.165"/>
					<path fill="none" stroke="#000000" stroke-width="0.5263" stroke-linecap="round" d="M137.338,177.893
						c-0.023,0.03-0.048,0.062-0.072,0.096c-7.2-0.41-14.27-1.249-21.54-1.413"/>
					<path fill="none" stroke="#000000" stroke-width="0.4238" stroke-linecap="round" d="M115.726,176.573
						c-0.27,0.736-0.827,1.35-0.989,2.145"/>
					<path fill="none" stroke="#000000" stroke-width="0.4881" stroke-linecap="round" d="M114.737,178.718
						c14.136,1.941,28.711,1.037,43.058,2.311"/>
					<path fill="none" stroke="#000000" stroke-width="0.426" stroke-linecap="round" d="M123.976,169.479c0,0.445,0,0.786,0,1.154"
						/>
					<path fill="none" stroke="#000000" stroke-width="0.5692" stroke-linecap="round" d="M123.976,170.634
						c0.645,0.028,1.372,0.086,1.813-0.493"/>
					<path fill="none" stroke="#000000" stroke-width="0.426" stroke-linecap="round" d="M129.914,169.479c0,0.445,0,0.786,0,1.154"
						/>
					<path fill="none" stroke="#000000" stroke-width="0.5648" stroke-linecap="round" d="M132.005,169.204
						c-0.668,0.103-1.421,0.051-2.09,0.274"/>
					<path fill="none" stroke="#000000" stroke-width="1.44" stroke-linecap="round" d="M121.831,169.726c0,0.024,0,0.056,0,0.083"
						/>
					<path fill="none" stroke="#000000" stroke-width="0.561" stroke-linecap="round" d="M121.831,169.809
						c0.167,0.228,0.256,0.456,0.363,0.648c0.521,0.321,1.201,0.109,1.783,0.176"/>
					<path fill="none" stroke="#000000" stroke-width="0.534" stroke-linecap="round" d="M125.79,170.14
						c0.592,0.765,1.654,0.404,2.476,0.493"/>
					<path fill="none" stroke="#000000" stroke-width="1.4549" stroke-linecap="round" d="M125.79,169.809c0,0.108,0,0.22,0,0.329"
						/>
					<path fill="none" stroke="#000000" stroke-width="0.7637" stroke-linecap="round" d="M129.914,169.479c-0.55,0-1.098,0-1.648,0
						"/>
					<path fill="none" stroke="#000000" stroke-width="0.426" stroke-linecap="round" d="M128.266,169.479c0,0.445,0,0.786,0,1.154"
						/>
					<path fill="none" stroke="#000000" stroke-width="0.5921" stroke-linecap="round" d="M145.312,189.552
						c-0.109-0.613-0.012-1.34,0.29-1.858c5.126,0.037,10.433-0.529,15.49-0.727"/>
					<path fill="none" stroke="#000000" stroke-width="0.4409" stroke-linecap="round" d="M161.096,186.967
						c0.291-0.147,0.737-0.142,1.154-0.165"/>
					<path fill="none" stroke="#000000" stroke-width="0.6422" stroke-linecap="round" d="M162.25,186.802
						c2.388,0.02,4.551-0.771,6.932-0.659"/>
					<path fill="none" stroke="#000000" stroke-width="0.4601" stroke-linecap="round" d="M169.179,186.142
						c0.937-1.149,2.857-0.324,3.629-1.65"/>
					<path fill="none" stroke="#000000" stroke-width="0.4768" stroke-linecap="round" d="M176.272,191.256
						c0.513,0.031,1.008-0.128,1.486-0.267c0.227-0.264,0.388-0.439,0.583-0.628c0.576-1.492-0.612-3.144-2.234-2.9"/>
					<path fill="none" stroke="#000000" stroke-width="0.5106" stroke-linecap="round" d="M159.611,191.42
						c-4.614-1.192-9.715-1.153-14.299-1.868"/>
					<path fill="none" stroke="#000000" stroke-width="0.5209" stroke-linecap="round" d="M145.312,189.552
						c-10.142,0.187-20.604,1.891-30.08-2.256"/>
					<path fill="none" stroke="#000000" stroke-width="0.5805" stroke-linecap="round" d="M114.737,178.718
						c-0.056,0.017-0.11,0.032-0.167,0.049c-0.296,0.466-0.069,1.071-0.247,1.586c0.514,0.46,1.314,0.209,1.732,0.843"/>
					<path fill="none" stroke="#000000" stroke-width="0.5059" stroke-linecap="round" d="M162.25,186.802
						c0.022,1.593-0.342,3.173-0.116,4.77c4.498,0.2,9.098,0.346,13.546,0.41c0.25-0.188,0.401-0.479,0.592-0.726"/>
					<path fill="none" stroke="#000000" stroke-width="0.4444" stroke-linecap="round" d="M176.272,191.256
						c-0.401-1.214-0.08-2.523-0.165-3.795"/>
					<path fill="none" stroke="#000000" stroke-width="0.6406" stroke-linecap="round" d="M159.611,191.42
						c0.479,0.16,0.85,0.143,1.061,0.086c0.531-1.451,0.023-3.062,0.425-4.539"/>
					<path fill="none" stroke="#000000" stroke-width="0.4168" stroke-linecap="round" d="M136.293,124.99
						c2.115-1.624,4.796-2.761,6.161-5.169"/>
					<path fill="none" stroke="#000000" stroke-width="0.4162" stroke-linecap="round" d="M142.453,119.821
						c0.543-5.894-6.811-5.604-9.798-2.283c-0.439,2.902,1.619,5.323,3.418,7.343"/>
					<path fill="none" stroke="#000000" stroke-width="0.4726" stroke-linecap="round" d="M146.192,103.764
						c-1.486,0.41-1.842,2.384-3.411,2.694"/>
					<path fill="none" stroke="#000000" stroke-width="0.5792" stroke-linecap="round" d="M142.782,106.459
						c-0.533,0.738-0.914,1.603-1.813,1.979"/>
					<path fill="none" stroke="#000000" stroke-width="0.4168" stroke-linecap="round" d="M135.194,108.933
						c-2.263,2.123-5.025,4.112-6.27,6.93"/>
					<path fill="none" stroke="#000000" stroke-width="0.4273" stroke-linecap="round" d="M142.782,106.459
						c0.137-1.275,0.917-2.472,1.583-3.534c1.247-4.136-2.243-5.248-4.549-4.878c-6.252,1-5.649,9.637,1.153,10.393"/>
					<path fill="none" stroke="#000000" stroke-width="0.4513" stroke-linecap="round" d="M107.478,86.496c0.33,0,0.661,0,0.989,0"
						/>
					<path fill="none" stroke="#000000" stroke-width="0.4395" stroke-linecap="round" d="M100.88,88.476
						c1.375-0.549,2.834-0.736,4.289-0.99"/>
					<path fill="none" stroke="#000000" stroke-width="0.4151" stroke-linecap="round" d="M78.112,100.354
						c6.155-2.984,11.009-8.44,17.487-10.561"/>
					<path fill="none" stroke="#000000" stroke-width="0.4096" stroke-linecap="round" d="M56.335,120.81
						c5.208-7.686,11.743-14.69,19.798-19.467"/>
					<path fill="none" stroke="#000000" stroke-width="0.3996" stroke-linecap="round" d="M82.072,105.302
						c1.743,1.339,3.79,2.062,5.938,2.312"/>
					<path fill="none" stroke="#000000" stroke-width="0.4242" stroke-linecap="round" d="M78.112,107.284
						c1.577,1.262,3.698,1.036,5.609,1.319"/>
					<path fill="none" stroke="#000000" stroke-width="0.4383" stroke-linecap="round" d="M73.163,114.212
						c2.654-2.929,6.664-3.249,10.229-3.959"/>
					<path fill="none" stroke="#000000" stroke-width="0.4076" stroke-linecap="round" d="M54.685,122.79
						c-2.577,3.438-5.577,6.642-9.236,8.911"/>
					<path fill="none" stroke="#000000" stroke-width="0.3745" stroke-linecap="round" d="M60.79,152.981
						c-0.038,0.07-0.075,0.144-0.112,0.213c1.503,3.676,3.338,7.136,5.889,10.178"/>
					<path fill="none" stroke="#000000" stroke-width="0.4492" stroke-linecap="round" d="M57.655,146.218
						c0.535,2.356,1.45,4.882,3.134,6.765"/>
					<path fill="none" stroke="#000000" stroke-width="0.4971" stroke-linecap="round" d="M60.79,152.981
						c6.558,6.025,14.954-0.55,20.725-6.279c6.457-6.412,11.581-14.878,15.074-19.622"/>
					<path fill="none" stroke="#000000" stroke-width="0.3948" stroke-linecap="round" d="M32.249,144.237
						c3.288-4.229,6.525-8.741,11.219-11.549"/>
					<path fill="none" stroke="#000000" stroke-width="0.4331" stroke-linecap="round" d="M86.031,147.867
						c0.99-0.41,1.958-0.791,2.97-0.99"/>
					<path fill="none" stroke="#000000" stroke-width="0.386" stroke-linecap="round" d="M60.955,167.664
						c-3.091-5.571-6.411-11.425-8.249-17.487"/>
					<path fill="none" stroke="#000000" stroke-width="0.4272" stroke-linecap="round" d="M59.635,186.142
						c4.24-3.271,7.815-7.267,10.626-11.772c3.516-1.355,8.048-2.492,9.433-6.442c0.05-0.394,0.042-0.838,0.172-1.154
						c0.146-0.088,0.266-0.129,0.384-0.167c0.301,0.063,0.745,0.059,1.165,0.068"/>
				</g>
			</g>
		</g>
	</g>
	<g id="Layer_2" display="none">
	</g>
</g>
</svg>
