<?xml version="1.0" encoding="utf-8"?>
<!-- Generator: Adobe Illustrator 15.1.0, SVG Export Plug-In . SVG Version: 6.00 Build 0)  -->
<!DOCTYPE svg PUBLIC "-//W3C//DTD SVG 1.1//EN" "http://www.w3.org/Graphics/SVG/1.1/DTD/svg11.dtd">
<svg version="1.1" id="Layer_1" xmlns="http://www.w3.org/2000/svg" xmlns:xlink="http://www.w3.org/1999/xlink" x="0px" y="0px"
	 width="325.984px" height="363.878px" viewBox="-17.973 -24.51 325.984 363.878"
	 enable-background="new -17.973 -24.51 325.984 363.878" xml:space="preserve">
<metadata><?xpacket begin="﻿" id="W5M0MpCehiHzreSzNTczkc9d"?>
<x:xmpmeta xmlns:x="adobe:ns:meta/" x:xmptk="Adobe XMP Core 5.0-c060 61.134777, 2010/02/12-17:32:00        ">
   <rdf:RDF xmlns:rdf="http://www.w3.org/1999/02/22-rdf-syntax-ns#">
      <rdf:Description rdf:about=""
            xmlns:dc="http://purl.org/dc/elements/1.1/">
         <dc:format>image/svg+xml</dc:format>
         <dc:title>
            <rdf:Alt>
               <rdf:li xml:lang="x-default">Print</rdf:li>
            </rdf:Alt>
         </dc:title>
      </rdf:Description>
      <rdf:Description rdf:about=""
            xmlns:xmp="http://ns.adobe.com/xap/1.0/"
            xmlns:xmpGImg="http://ns.adobe.com/xap/1.0/g/img/">
         <xmp:MetadataDate>2015-02-13T17:34:02+02:00</xmp:MetadataDate>
         <xmp:ModifyDate>2015-02-13T17:34:02+02:00</xmp:ModifyDate>
         <xmp:CreateDate>2015-02-13T17:34:02+02:00</xmp:CreateDate>
         <xmp:CreatorTool>Adobe Illustrator CS5.1</xmp:CreatorTool>
         <xmp:Thumbnails>
            <rdf:Alt>
               <rdf:li rdf:parseType="Resource">
                  <xmpGImg:width>232</xmpGImg:width>
                  <xmpGImg:height>256</xmpGImg:height>
                  <xmpGImg:format>JPEG</xmpGImg:format>
                  <xmpGImg:image>/9j/4AAQSkZJRgABAgEASABIAAD/7QAsUGhvdG9zaG9wIDMuMAA4QklNA+0AAAAAABAASAAAAAEA&#xA;AQBIAAAAAQAB/+4ADkFkb2JlAGTAAAAAAf/bAIQABgQEBAUEBgUFBgkGBQYJCwgGBggLDAoKCwoK&#xA;DBAMDAwMDAwQDA4PEA8ODBMTFBQTExwbGxscHx8fHx8fHx8fHwEHBwcNDA0YEBAYGhURFRofHx8f&#xA;Hx8fHx8fHx8fHx8fHx8fHx8fHx8fHx8fHx8fHx8fHx8fHx8fHx8fHx8fHx8f/8AAEQgBAADoAwER&#xA;AAIRAQMRAf/EAaIAAAAHAQEBAQEAAAAAAAAAAAQFAwIGAQAHCAkKCwEAAgIDAQEBAQEAAAAAAAAA&#xA;AQACAwQFBgcICQoLEAACAQMDAgQCBgcDBAIGAnMBAgMRBAAFIRIxQVEGE2EicYEUMpGhBxWxQiPB&#xA;UtHhMxZi8CRygvElQzRTkqKyY3PCNUQnk6OzNhdUZHTD0uIIJoMJChgZhJRFRqS0VtNVKBry4/PE&#xA;1OT0ZXWFlaW1xdXl9WZ2hpamtsbW5vY3R1dnd4eXp7fH1+f3OEhYaHiImKi4yNjo+Ck5SVlpeYmZ&#xA;qbnJ2en5KjpKWmp6ipqqusra6voRAAICAQIDBQUEBQYECAMDbQEAAhEDBCESMUEFURNhIgZxgZEy&#xA;obHwFMHR4SNCFVJicvEzJDRDghaSUyWiY7LCB3PSNeJEgxdUkwgJChgZJjZFGidkdFU38qOzwygp&#xA;0+PzhJSktMTU5PRldYWVpbXF1eX1RlZmdoaWprbG1ub2R1dnd4eXp7fH1+f3OEhYaHiImKi4yNjo&#xA;+DlJWWl5iZmpucnZ6fkqOkpaanqKmqq6ytrq+v/aAAwDAQACEQMRAD8A9U4q7FXYq7FXYq7FXYq7&#xA;FXYq7FXYqkDW+o6xqmoW91NJZ6TYyxwQw2srRS3LGGOdpZJoyssaq0vBURlPwksSrBQqvj8jeTEk&#xA;Ev6DsXn73EtvHJMxIoS0rqzsT4k4q3L5K8qPyaLTILSc9LqyX6pcCoA+Ge39KVeg6Niqhov+INN1&#xA;ltHv521TTpYHudO1ORVWeMROiPbXPAKjn96pjkABYBgwqvJlWRYq7FXYq7FXYq7FXYq7FXYq7FXY&#xA;q7FXYq7FXYq7FXYq7FXYq7FXYq7FXYq7FXYqkOiajJL5m8yWDbraS2sqHwE9qgI++Kv04qn2KuxV&#xA;Ib++aHzxotoT+7utP1I08Xilsiv/AArNiqfYq7FXYq7FXYq7FXYq7FXYq7FXYq7FXYq7FXYq7FXY&#xA;q7FXYq7FXYq7FXYq7FXYq8q83ec9S8qeedTsdK0iTUdW1+1sJrBgQYfUEktqVYM0VWB4HjzVeNSX&#xA;XuqpW/kP85taZrrzF5vj09Ja00uxSYJGpB2WWzl06ZW/1pZKdAT1xVG/8qx8726q1r5rM7p0W4k1&#xA;oHbpR/0rInz9SJ/liqF/LfUPNmteeb4a5JFcx+VIrzTWuAtXNzdTQNxMqxW8cnGK15DjGrAOA4rR&#xA;mVer4q7FXYq7FXYq7FXYq7FXYq7FXYq7FXYq7FXYq7FXYq7FXYq7FXYq7FXYq7FXYqxjzhY2Uuqe&#xA;WLySCN7u21RUt7gqDIiyQS81VuoDcRUd6DwxVk+KuxVj/lRVjv8AzLCAA0erMXp0rLZ20w/4WQV9&#xA;8VZBirsVdirsVdirsVdirsVdirsVdirsVdirsVdirsVdirsVdirsVdirsVdirsVdirH/ADZ/vT5e&#xA;/wC2rF/yYmxVkGKuxVj/AJZ/47Xmz/tqxf8AdKscVZBirsVdirsVdirsVdirsVdirsVdirsVdirs&#xA;VdirsVdirsVdirsVdirsVdirsVdirHfOqp9X0iR9vS1ewKtWlC8wj/4bnx+nFWRYq7FWP+Wf+O15&#xA;s/7asX/dKscVZBirsVdirsVdirsVdirsVQV3rFja6hbWE7FZ7qKeeLb4eFtw9Qk9qequKoCPz15O&#xA;lZVj1m0ZnQSBRKpPFgSKjsTxbY77HwOKqEX5j+Q5hEYtesnExcRlZkIPphWYk12FJFNT2IOKqref&#xA;fJi20dydYtfQlRJI3Dg1WSUwpQDerSKyAdag+BxVUt/OnlK4kt44NYtJJLqWS3tkWZCXliKq6KK7&#xA;kGRP+CXxGKo/S9X0vVrX63pl1FeWvNo/WhYOnJDxYVHgcVReKuxV2KuxV2KuxV2KuxV2KuxV2Ksf&#xA;881/QttT/q7aP/3VbXFWQYq7FWM+X7O0m1zzY80EcrDVYgGdFY0/RVjtUjFU9/Rmm/8ALJD/AMi0&#xA;/pirv0Zpv/LJD/yLT+mKu/Rmm/8ALJD/AMi0/pirv0Zpv/LJD/yLT+mKu/Rmm/8ALJD/AMi0/pir&#xA;v0Zpv/LJD/yLT+mKu/Rmm/8ALJD/AMi0/pirv0Zpv/LJD/yLT+mKoLVvKuhas1u17A5NqksUPozT&#xA;W4Ec/ESowgeMMj8FqrVGKpNZ/lV5NsLewtNOs/qtnY3keoCDm83OaH1DGS0zSMtHmZvhpXp02xVT&#xA;1P8AKfytfzWY9N4LG3HG6so3crdRrbJapFOzMS0axwpt4iuxJJVRNt+WHky3UelaSiUCi3Jurkzh&#xA;vW9cyLMZPUWQyblwa0+H7O2KoVPyi8lpfW9ylvMIYC7NaNc3LRyM0kEkauGkPKKI2q8YT+7/AMnF&#xA;WS6HoWl6Hp6afpkJgs4yWSIu705dgXLGg7DFUfirsVdirsVdirsVdirsVdirsVdirH/Pu3lW8l/5&#xA;Z2guD40guI5dvf4NvfFWQYq7FWLeS5ZH1jzmktfUi1sI1afZOmWLx9P+K2XFWU4q7FXYq7FXYq7F&#xA;XYq7FXYq7FXYq7FXYq7FXYq7FXYq7FXYq7FXYq7FXYq7FXYqx78xCB5A8yPvWPS7yRSK1DJA7KRT&#xA;eoIqMVZDirsVYr5N/wCUi89/9tyH/uh6ZirKsVdirsVdirsVdirsVdirsVdirsVdirsVdirsVdir&#xA;sVdirsVdirsVdirsVdirsVY/+Yf/ACgHmb/tlX3/AFDPiqd2s4uLWGcDiJkWQL1pyANMVVcVYl5S&#xA;Ma+cvPEan4jf2csiV7tplsganuI6fRirLcVdirsVdirsVdirsVdirsVdirsVdirsVdirsVdirsVd&#xA;irsVdirsVdirsVdiriQoJJoBuSegGKvOL/X73zv5hh8vaJcRp5QKXP6b1OFuUt2kBSJ7e2kXZInk&#xA;laNpR8RKSBePHkyrJf8AlXXkcW8cEei20PokNFcQp6NyjAAB1uYys4fYfEHr74qg9H8zz2fnK48k&#xA;6o7z3K2keoaVqTLT17eR3RoZSoCevE0LHb7Sb0qDiqRWnmmy0L80PN8d/azx6bNHpk1xq6J6lvBI&#xA;YHSlyVJeJSsY/eFOAoeTDaqr0mKWKWJJYnWSKRQ0cikMrKwqCCNiCMVXYq7FXYq7FXYq7FXYq7FX&#xA;Yq7FXYq7FXYq7FXYq7FXYq7FXYq7FXYq7FUn1vzPaaZNHYwwyajrFwvK20u1AaZlBp6jliqQxA9Z&#xA;JGC9hVqAqsb8y6XetoV9rfnGVL2Gzhea38s2jOtg0gBEcMzHg940jkKPUAjqR+7rviqr+V3l6PSr&#xA;C8YcT6bppkLoAoZNO5RzNxAFC9891J/ssVZvirzKTXANBufPc0fJE1+N7DluRYLOujl067SQyTTo&#xA;PF8VTnQGI/NjzhGKBP0ZokhAAFXZ79SSep+FFH0Yq7ULOfyXM2r6WCfKpJk1rR0BYWqk1e9s1H2V&#xA;X7U0K7EVdBzqHVZmjpIiyRsHRwGR1NQQdwQRireKuxV2KuxV2KuxV2KuxV2KuxV2KuxV2KuxV2Ku&#xA;xV2KuxV2KuxVjD6/qOvSvaeWGEdipKXXmJ1DwqQaMlkhqLiQdOZ/dKf5yGTFU20XQNN0eB47RGaW&#xA;dvUu7uZjJcTyUp6k0rfE7UFB2A2UAADFUi83O+p+Z/LnlqPeIznWtUHhb6cytAp93vHhYV6hG8MV&#xA;REmj+ZtInuJfLktrd2VxNJcyaRqDSQhJp3aWZoLuJZmRXkdnKPE+5+EqNsVU21Dz/frJZDRYdI9Z&#xA;WjbVGvkn9HkKepDEkVZGXqqvwB7kdMVSzz/pVpB5V0Dyfp0fpwX+paZp9tCu/G2spVvJvutrN98V&#xA;RthK6/m/rkQX4JfL+kOW/wAqO91IU+6TFWYEAih3B6jFUj8qW8Vhb3miwbWuk3Bgs0/lt5I0nijA&#xA;qaJEJvST/JUYqnmKuxV2KuxV2KuxV2KuxV2KuxV2KuxV2KuxV2KuxV2KuxVA61rml6LYtfalOILc&#xA;MEXZnd5G2SOKNAzySMdlRAWPYYqx5NN1vzYRLrkUmleXTvFoXIC5uh2N+6EhIz/yzod/92MQTGFW&#xA;WwwxQxJDCixxRqEjjQBVVVFAqgbAAYquxVjflOAXl3qXmdzybV3WKxPUDT7QslvxPdZWeSce0gHb&#xA;FWSYq7FWLaYkevea5dd+3pujLLp+kv1WS4dgL24XxClFgQ+Kydm3VQFzrFppv5r3X1slI7jQ7NYm&#xA;Cs7NJ9euFWNEQMzsfUrt0Ar0xVnGKpHolz6/mHzEAPhtZ7a3Lb/a+qRzEf8AAzriqeYq7FXYq7FX&#xA;Yq7FXYq7FXYq7FXYq7FXYq7FXYq7FXYqlmta7HpzW9tDE15ql6StlYoaM/GnOR2oRHFHyBdz02Aq&#xA;xVSqhNJ8riO+XWtZlXUde4lUuCtIbVG+1FZxmvpqf2n3d/2moFCqp9irsVSHzldzrp0WlWbtHqGt&#xA;zCwt5ENHjR1LXE6kdDDbpI6/5QUd8VTu3ght4I7eBFighVY4o1FFVFFFUAdAAMVX4qkXnXXZtI0N&#xA;mtKHVr+RLDSIzvyvLk8IiR/LHvI/giscVTLR9LtdJ0my0u0BW1sII7aAHc8IkCLX3oMVYxPpEdz+&#xA;bttqUg5DT9EZYlJ2WWe5KiSn8wjV1B8GPjirMJJI4o2kkYJGgLO7EBVUCpJJ6AYqxf8ALoSXGl6h&#xA;rkgodf1G51CE1BrbArbWjEgn7VrbxNTtWnbFWVYq7FXYq7FXYq7FXYq7FXYq7FXYq7FXYq7FXYq7&#xA;FVO6ube1tpbq4kEVvAjSzStsqog5Mx9gBiqQ+ULKeaObzHqEbJqmshZBE4o1tZrU21rT9korc5P+&#xA;LGftSirIsVdirsVYxp3PU/M2oa6VaSz0pJNL0qNafHKrBr6Va0G8saQCp2Mb9mxVIH8x63eT/pHS&#xA;m1KFVkdVYwx6hp0hU0MFxbwhdQtpUpRv3a8G6+puCqz3TpNRks4n1GGG3vCP3sNvK88YP+TI8cDH&#xA;6UGKsUaA65+aYkf4rDyhZj0hvvqWpg8m+cNogH/PbFWaYqkjvBF5wLsOLNppLynZQkU9fiboKcyf&#xA;vxVJWjtfM+ny+YdXjWfy5AjXOj6XLtDPHEOa3t0p+GTnx5wowKqtHI5n4FUkufJXl7y/FF5gj0db&#xA;3RbiGJ9ZsIUZ3tiEq15awpuw3rNEgq320HLkHVTCLUvyzMEUtrq0+iRsge2mM95p0PFhVJBHcenb&#xA;yAihUsjA1HiMVdPrPnlY4ZPLGqaV5r06NyLuWiNfLH0BAt5obaVgftUEe3RSeqrejfmZeP5k07Qd&#xA;W01kbVTJHZ38EV3Eomiiecx3MF3BA8JaOJivF5K07Yqz/FXYq7FXYq7FXYq7FXYq7FXYq7FXYq7F&#xA;WOedgLy20/Qq/Drd5HbXC9QbWJWubpWH8ksMDQn/AFxirI8VdiriQoJJoBuSegGKsF8x+fNXn+qW&#xA;Xk6w+vSalcLZxa5OQljEzVZ5IQfju/SiR5P3Y9P4ac6/DirMNL0220zTrbT7UEQWsaxRljyYhRTk&#xA;7ftM3Viep3xVA6j5Q8uahenUJ7JU1EqFbULZ5LW6KgUCme3aKUgDoC22KprDEsMSRIWKoKAuzO1B&#xA;4s5Zj8ycVeZ+WoJp9P1PzVqHmO60/TNc1a4kgsrVII/UX1xp9nWVo5bh3lht4eAjZetN+uKsn1Ly&#xA;voFhYz311c6u0NuplnaPVdULBBu78EuBso+Kij5DtiqTDy35ZtdX0me1vbvUtI8ywXWlSpdald6l&#xA;bTxzwG5Xg1zNPTklu4BU0oT44qlHnDXL3SdFvfy4eSbVdc1azaDy76Bi+uXFjLWGfkHaKMTWsPNu&#xA;blVkABry5UVeieXtd0rVrRvqIeF7QiG5sZ0aG4t3A2jlif4l23U9GG6kjfFUondPJjvcAcfKUz8p&#xA;1Wp/RsjtVpAO1oxNX/30fi/uyfTVTnUvL3l/V1D31jBdMRWK4Kj1V22aOZaOh8GVgR2xV5ronl/z&#xA;Jpfnu4tNV1+6a5jLr5PuNVVL60msnUPJClPQl+txfEsjPL6jx0IJAairM7zzRq2gTWy+ZLWJtNuZ&#xA;ktV1uxLelHLMwSL61byVeBJHYIrLJIORHLj1xVlOKuxV2KuxV2KuxV2KuxV2KuxV2KuxVjppd/mC&#xA;B+zo+l19i+pz0B/1kXTz9D++KsixV2KsPskl85zvfXVR5Qjcrp1l0Go8DQ3U/wDNblqiGL7Lj425&#xA;BlAVTDQpBrGpTa8N7CMPZ6NTo0SsPXuB7TSRgJ/kIGH28VZBirsVSLz55hHlzyVruu8gr6bY3FxF&#xA;XvKkZMa/7J6DFUj8heX7u40nRrvWbBbG30iCKLy/pBkWYwRpAsYubhl+A3LLUUWoQVoSWY4qznFX&#xA;n/nDyJ5ftLUXVgsunw3upaal9YWrmO1mabU7dTL6QoIpviP72Hg++5O2Ksr0vyp5e0u5a7s7GMX8&#xA;g4y6hLynu3HYSXMxeZ/9k5xVA+b9Nu44x5j0eHnruloSsSUDXlqDzls28eYqYifsyUPQsCqnGm6j&#xA;p+r6XbajZSLc2F/Ck0Eg3V4pVDKaHxBxVi8BtPIDLDc3npeT7qUR2b3DAJps0h+CD1D0tZDtHyP7&#xA;tqJ9llCKp55obyx+iHXzG9sNMdl/3qZVUyA1j9Mk19Tl9jh8Vfs74qw+z8pa9rV/Dy1bU7TyRH8b&#xA;aRqDRzXN81Qyc5JojdwQrx+zJKZG7hKbqvR8VdirsVdirsVdirsVdirsVdirsVdirHfKT/W7zX9V&#xA;6pdalLbW57iPT1WzZf8ApJhmb6cVZFiqjfWkV7ZXFnMWEVzG8MhQ8WCyKVPE9jQ4qknm9poNDg0f&#xA;Sz9VudVmi0uzaKiejG4JnkjpSjQ2scrp7qMVTy0tLaztYbS1jWG2t41ighQUVI0AVVUeAApiqrir&#xA;sVec/nxexp5JGmNDJdNqtx6YtYlLvJ9Ugl1DjQVojGzCOx+EBvioMVWfmH5kl0vyLoOqWU07WrFZ&#xA;pks5TDLcQRaZc3QiSUCq+o0K74qp6lpPm/SNA1PV712lTTrOa5+qHWtQdpBDEXYNLHFbcWPE0Krt&#xA;iqHh1+xj/LHVoL/Uxc3em6pqUMH1u5Ek7rZ6tK9mjPI3J/3CRbk1pir0fSNYttTgZ40kgnhYx3Vn&#xA;OAk8Lj9mRQWG43UglWFGUlSDiqOxVh8Fg3k/WZ5rag8p6tMZbmHoun3srfFKn/Lvcuf3g/Yk+L7L&#xA;MVVTjzckp8vXckUBumtvTu/qiryaZbWVZ2iVe5kWMqPc4qxrQPLnlbQPMVvqOm2tvLpmvqDpN6EV&#xA;2tZDFzW3t5TVktpoULRoCFRlKjZkVVWe4q7FXYq7FXYq7FXYq7FXYq7FXYq7FVssscUTyyMFjjUs&#xA;7HoFAqScVY1+WKTDyDos08bRT3lv9emjenIPeMbluVO/KXfFWT4q7FUFeacLrUdPuX+xYNLMi/8A&#xA;FrxmFTT/AFJHH04qjcVdirsVYF5zttX1HzfaQWpS30zTtKu5dWvZYzP6aXsiIvoQgESTGK1mUcqq&#xA;oYkhtlKrHLLynceZ9H1IaPpek2liX1LSNN1G4uru+nhWCWfTjMkJURoWQMwVJBsaHFXql3pcVzo0&#xA;2lF2EU1u1qZNi4VkMfLwrQ4q8u8yeQ7bTLvy417q81xqE16LeKOyji065u39F5XpJbPbVfjDyJkY&#xA;r8q4qjfOA1Ty9caf5kuppSNMuGA1F/TWRrFXPr2l76R9OVJIOcts5UFZAqtR2+JV6hiq2SOOWNo5&#xA;FDxuCrowBVlIoQQeoOKscm1S78uajbWt8vqeXbyRbez1AE87SdyFjguK1rHI3wxy9mojDcMVWMeZ&#xA;NB1abVIvLflTUYFspbiK81GxlT1BpJhlFzHcwPG6MhkmReFu4Kt8RUoisMVemYq7FXYqlmu+YLfR&#xA;YoJbiCeWOeQQh4VUhGYgLzLMlAa9cVQv+O/JXCFzrtiEuImuIGNxGA8MYcu6mu6qIXr4cT4Yqq2/&#xA;nLyncW73MGr2klvGGLzLMhQCMMXq1afCI2r8sVTS2ube6torm2lSe2nRZIZo2DI6OOSsrDYgg1BG&#xA;KqmKuxV2KuxV2Ksc/MGUny1LpyEiXWpoNJTjs3G9lWGZl944Gkk/2OKsiVVVQqgKqiiqNgAOwxVv&#xA;FXYq7FXYq7FXYqxi0nF7qnmZBbyXFzZzWwtlIkiikWGBJoo1uKCMkXPqh0DHj+0tGHJVgHnL8w9A&#xA;/LC7uZNNX61Net6msWBdIrNL9grNOLiVowJnXeWGJXZhxcqm5dVLLX/nIXW5bBdTvLWLTbCZBNYt&#xA;JpupyC6RlLKsEr/Vo3NAPiG2Kst8pfVtT1a01vWLtrjzJfPC1tInBP0cktu12NPjt3M3BZbZT6ko&#xA;r6u5DqVjoqn/AOZWmaPeeTPMUeqW0S2LaXdSXF+/ENG0cRKsNuVUpyVu1MVR3lBtJ1jynourRWca&#xA;x6jYWt2geNCwWeFZBy26/FiqbfozTf8Alkh/5Fp/TFVK60LRbq2ltrmwt5redGjmieJCrIwoykU6&#xA;EYqx3yXpmhabLf8AlVNPhjudHMU3q+igNzbXfP0Ll3C/HKxhkjkY/EzoWP2hirJ/0Zpv/LJD/wAi&#xA;0/pirv0Zpv8AyyQ/8i0/pirv0Zpv/LJD/wAi0/piqB1u08u3kSaLqYQQyRSXS2xJjQw2zIJWJWgC&#xA;qZkrv3xVjKeQPy4TTprG3miZ54lmMlxdPcMwEM0cUr8peToI7pqfENqb7DFUFpv5efliNOS2vdRT&#xA;VZLwTJPPLfErc3DSvLNL6YkKGZZJ/tD4l23xW2aW2qeWdM0q1jj1C1h0+G2Q2ztNEqfV04xK4aoX&#xA;hUqtRtUjFUXHrGkSMix31u7SSNDGqyoS0iU5oKHdlruOoxVXt7q2uUZ7eVJkR2jdo2DAOhKupIr8&#xA;SsKEdsVVMVdirsVYnqrtqX5iaLpqb2+iW0+sXZ8Jp1ays1I/yke6bf8Al+5VlmKuxV2KuxV2KuxV&#xA;xIAqdgOpxV8s/mL5W80Wdlb+dLHV9Sj0fzRqR1HUtNtbiWCOSCeUtDAY42X949kqCMkVLgqfiMSh&#xA;VhfmDy/5V8/pa6fo+q2mk/oRzaRCV5VsRDd309yk8MojaJnmjuUV0leJuaAAsDiqc+W/IPnG5ji8&#xA;m6Dp8V+fLBTUbu+lu5ktXkuYFYxRsYkpJI6s0QVSoWnJvFVa12bTVbnUrVprVUSa9SQTzw3kbXcs&#xA;V0Y0kR0kSjPPBIv2eXUcl2VTHSNS/MHzglh5THmO71S9u4vU1awuQnowl4IprWR5FjSX0lkk9Y/F&#xA;8Sx8Du6clX07o3lvT9J0ix0u2aYW1hbxWsI9aUfBCgjXYNQbLiqM/R9v/PN/yPm/5rxV36Pt/wCe&#xA;b/kfN/zXiqQm1tI/PiQBpA9zpbO59ebkwt7hQv7fRfrDffiqffo+3/nm/wCR83/NeKu/R9v/ADzf&#xA;8j5v+a8Vd+j7f+eb/kfN/wA14qxDzyPLy6zo1nqep32lte2l9Zx3NqVKPDPLaRywzzPHO8XqO0YS&#xA;VWQg/tglcVeaW0X5Q6f5f0ya11G4mk0+4ttVu9PnhabU5BHZS3cFqTBHEiwFZG5O4aGlRUHcKrtR&#xA;8gfk9cQRzWfmBINAs9Qi0rW3MVS8otLW2igSeNI0hR/qscrTAcSzN8VGoqqL0+x/J21SytbHWNS1&#xA;C9u7q3tLL/R1DrPLfQzx3ZX6nFD6cUl7GVaRfRoxVV5O3JVTtvJ/5VW15cSPrt/p1ro93fyX1jME&#xA;V62c/r1idYP7lV0iVjLHWZqcWlqOOKsy/J/VvI1vZ3Xl7QBcWrpcSzJbXoBdx6cRYxyqoWQRo6L8&#xA;TNIBQt1BKr0jFXYq4kAVOwHU4qxXyEn12HUfNLj4/MVz69od9tPgX0bLjX9mSJfX+chxVlWKuxV2&#xA;KuxV2KuxVJfNLPcWSaLAxW41gm2LqaNHbkVuZQRuvGKqq387J44qiNd8u6XrWgXWhXkdLC6h9ArF&#xA;8BjA+w0RH2GjYBkI6EA4q8Vt/wAs7LS9QuYpLHQptXvZOWraXratb2uoPHuL+wuI0kMfq0Dywem6&#xA;xvWgXYuqnln5l0PT79tIg80+XNFt0PqP5c0q2F+iuaF3urnlFyYtvX0oz41xVivm2y/LHU5Jp9Nb&#xA;yzq+uXRYJfaLcXk18zy1DU0zTnkaVjyI+O4Vf5qCuKs8/Jr8qo/KWjtdzrLa6teqihGkWWWC3RVV&#xA;I5WPONpX4BpOI4rRUX4Y1OKvRfqlx/y2zfdD/wBU8Vd6OoLslyjKOhki5P8ASUeNf+FxV3DUhv6s&#xA;L0/Y9N0r7cub0+44qwLWdR80Rfm3YQ6bpNvfTNoc5Zprx7e3hjN1GWZnW3ncs7IiqoTxOKst0PX7&#xA;nU7D6w9g0U6SS29zbxyJJ6U0EhikQs/o1HJaqQPiWh74qmH1u4/5Ypvvh/6qYq79IQd0m/5ETfwT&#xA;FWJee7zyibixk1zS/wBIy2gjubJXqrAyXttBtGaFqSvG/Eg/ZHemKsdH/KlDp1zJpuk2863It5BE&#xA;kckSzcYLn0uL9KelBcK1Op5BtzirJtN0b8tfOOgtHa2kGo6PFfyT+ieZjjvVBV2Ra0T4ZDsnw0Y+&#xA;JxVM/wDAPk0GzYaTAG0+SKayYAgxvBw9Ohr0UwoaHaqqeoGKoW//ACv8gahNczXuiwTy3kjTXDvz&#xA;qzuJQ+/LYOLmXko2bkajFUbpnkfylpeqfpWw0yG31AI0YuFqSFk4h+IJIBYRqCQK0GKp5irsVY75&#xA;0llubW38u2rlbvXXa3kdDRorJQDeTVG60iPpqw6SOmKsghiihiSGJBHFGoSNFFFVVFAAB2AxVdir&#xA;sVdirsVdiqleXdrZWk15dyrBa26NLPPIQqIiDkzMT0AAriqVeX1uL1pNdu42ikvFC2NvICGhswao&#xA;GU/Zkl/vJB1HwofsVxVOsVYxrXmKzbV9U0KbTP0n+jtJTV5LMKkstz6kkyRwwRP8LtW1YHkRuyeO&#xA;yrG/y/1vyl5/06/1HRNPvvLd1b29xo13A9stnLEZ+LhkZQyF4ytVofhJPIbjFVPyr+YutDy95hvZ&#xA;fJ0+geXPLEYg0aK8kME93HbhlfhE0dECqihaFgSaAneir0/FXYq7FXYq8x/MaS8fztZQQXlxZJba&#xA;Jf6p6to7xM9xZSRG3hldCKwuJJGaNvhfjuNsVZb5MHNNauVAEVxq156dP+KGFs56D/dkDYqyHFXY&#xA;qgNQ0DRNRvLO9v7CC6u9OcyWNxNGrvC5IPKNiCVNVB28MVQh8leUDNDP+hrP1rZHjt5BCgZEkLs6&#xA;qQNgxmcn/WPjiqO0rRdI0i3a20uzhsbd3MjQ26LGhcgKW4qAK0UDFUZirsVdirsVcSAKnYDqcVYz&#xA;5UP6YvLvzW/xQXqi20T20+JiRMP+YqSstR1j9Ou4xVk2KuxV2KuxV2KrZJI4o2kkYJGgLO7EBVUC&#xA;pJJ6AYqwS1nuPzA1KC6RWj8hWMgmgLgo2rXUTVjfif8AjyiYBlr/AHrgH7A+NVmWq6vpekWMl/qd&#xA;1HZ2cVBJPMwRAWPECp8ScVSj/lY/5eep6f8AijSPUpy4fX7blxrStPU6YqxrRRp/n5r3VLDXFXUv&#xA;L2oT6dp/mbQzHSWCSGC5aF1lFzBLGDKqOpDAsnJeJ6KpwnnHU9HlfTfMemX1xdx/7y6lpVjc3drd&#xA;ofsmlusxtpOzpKQo6q5HRVda+W77Xrkar5oMq2xeOWw8tF1+rwCI8o2uhGStxPz+Mgs0aHiFBK8y&#xA;q7zBr7DzlpXlyS+/RNtcQPfG5JVHu3hlRVs4Hk+HoS0oUc+NKUqTirLcVaVlZQykMrCqsNwQe4xV&#xA;vFXk/wCYltfHz9JObow2h8vmG1tuI4y3Vxe/UyxbtwS8C0/y6jcYqzryJGy+UdMmk/vr2L6/PWlf&#xA;VvWN1JWn+XMcVT7FXYq7FXYq7FXYq7FXYq7FWMedJJtQ+q+VbR2SfWi31+VCQ0OmxFfrbhhurSBh&#xA;Ah6hn5D7JxVkkMMUEMcMKLHDEoSONQAqqooFAHQAYqvxV2KuxV2KoXU9TsdMspLy9l9KCPqaFmZj&#xA;sqIigs7sdlVQSTsMVYfpyW35go15qE6SeXreSP09BiYMsjGKO4jbUHX4ZPglRxApMYr8Rc/ZVZyq&#xA;qqhVAVVFFUbAAdhirUr+nE78WfgpbgoqxoK0A8TirGoNU856w8sdvpP+H7IfCL3U2inuHr3itLaR&#xA;0A/ypZgR/IemKo7yt5V03y3YzW1m0k0l3O93fXc5Uyz3EgVWkfgqIPhRVCoqqAAAMVTnFXYqwTz1&#xA;5dS61231XVfL0Pm7QIrX0G0qSKC4mtJw7Mbq3guKRy+qjBZAG5jgvANUjFW9G8jflNrVuLm28qWc&#xA;axMA9nd6b9VaNlAIDW08cdKdvhoe2Ks5VVVQqgKqiiqNgAOwxVvFXnv5jaTqK6rD5gZl/Q2l2y3d&#xA;7IxAEEemynUX7hmM89vbCg24o/I/ZBVZj5aszY+XNKsioU2tnbwlQKAenEq0APyxVMcVdirsVdir&#xA;sVdirsVdiqH1HULXT7OS7um4xR02ALMzMeKoijdndiFVRuTsMVS7y9pdzHJc6vqSBdY1Lj6yAhhB&#xA;BHX0LVWGxEfNmYjYuzEbEAKpzirsVdirsVWTTRQQyTTOscMSl5JGICqqipYk9ABirya2m1jzV548&#xA;neYZpZ7WymnvNQ0bS6lVTSoLN4DdXCd5rmW9gI5f3cZCijM9VV35L6l+i9S1ryfdlpbiO8u5rO7C&#xA;0jMNnP8Ao+O2YgcBLHbWsElPtMj8iNizKvU7+G6ns5YbS4+qXDrxjuQiyFCf2gjfCTTpXb2PTFUh&#xA;uND87q3Ky8zp8BAjS70+KZWWhB9X0XtmLbg1QqNvsnpiqVfoX83+IA8x6dyJDEvZFgF9TmYzxaLk&#xA;afB6gK/D+xz+PFU88p6F5g0y2dtf16TXtSl+Fp/RS0gVQ7uBHbxlgp/eULFiSAPDFU+xV2KpL5mv&#xA;PNdnDHcaBp1vqpVZfXspZ/q0rNxrCYpGDR05ijhqbGoO3FlWHy/mJ+aclzNb2X5ZXhaL0P3lzqVh&#xA;DGef998Ydx8BrxMfOopUKTTFWQRWf5h6lLTUru00OzDlgulN9ZuWSh4q0t3B6Y/yuMVfBu+KsqAA&#xA;AA6Dbc1P3nFXlfmt49a/NOz8u3l5M2kn6nBe6Us3G2uRJa6lePHPDyPL4rSBqhRVaq3IVGKvVMVd&#xA;irsVdirsVdirsVdirsVSHSfLVzHqMmrazfyanqBYm1ip6dpZqQV428Ir8XEkNK5ZzU0KqeOKp9ir&#xA;sVdirsVdirHfONvHq8Fv5YLfDq5Jv1HX9HwMrXQPiJeSQHv+8r2xVbpkaXnnfVr4D91pVtb6VAKU&#xA;4yyD63c8fZkktht3XFWBak93oP5mSiyM199XmOp22giCR2aDUYJzfTxXEasOfrW37tJyFBqnIeon&#xA;BV61YX1pqFjbX9lKJ7O7iSe2mX7LxSqHRhXsVNcVV8VdirsVdirsVdirsVdiq2WWOKJ5ZWCRxqWd&#xA;2NAFAqST7Yq8c8jwap5j81aV5g1LTLjT9V+u3Wr3U8yKiSWH1KWz02NQo6LHftxBq1VkLUJ44q9l&#xA;xV2KuxV2KuxV2KuxV2KuxV2KuxV2KuxV2KqGoX9np1jcX97MtvZ2kbTXE7mipHGCzMfkBirF/Lc0&#xA;sNhqnnfzAr2T3sRuFt5hRrLS7VWeGJl3IkKlppR1DsV/ZGKpt5Psrq20GB76P0tRvWe+v4zuUnun&#xA;MzxV7iLn6a+yjFWNfmVdXnly/wBJ84Ws7rbQTR2GsW5QvA1tN6ixyymMGVRFNIPsBqlh8JoKKrvy&#xA;5v7nTBB5YvrqGe1NnHeeWbhFKNJZGoe1YnZ5LP4FLALVGQ8QeWKs8xV2KuxV2KuxV2KuxV2KsV8/&#xA;TS3livliyi+sX+tKyyxF/SRLGNl+tySvxcqhRxEKKSWcdqkKoP8ALV9V1eO7816rdW9xNqFLOySx&#xA;R0tI7WykkWsRkrJJzmaQiU0DpwIVRtirNsVdirsVdirsVdirsVdirsVdirsVdirsVdiqA1XRbLVf&#xA;qy3vKW3tpluBa1HpSSRnlGZFp8XpsOSitOVCQaCiqTeZ5P0rrWm+V4xzhcrqWtEdFs7d6wxt/wAx&#xA;FwqrQ/ajWQYqyjFVDULCy1GxuLC+hW4sruN4bmCQVR45AVZWHgQcVeN3KaZ5YktPy/m0R7bVNWun&#xA;j8veY4uIjlkt7aV7S9YwCSVbqHhHDOzRfF9tiY6jFWa6b+Y9ra3DWXmyex0uT1JLe31EXHC0mnhI&#xA;WWAm5WB4pxyDCMgh0PJGYcuKrNVZWUMpDKwqrDcEHuMVbxV2KuxV2KuxVh+v/mFZpJPpflsx6rra&#xA;qyvIjK9lYsCFaS/mVgEWLlzeNT6nHsKg4qx2fy2txrtnp2kX8j65cJBL5x1SH0nVrYssrJNM8bSV&#xA;nAaOCBWVUjZnCigqq9RRERFRFCooAVQKAAbAADFW8VdirsVdirsVdirsVdirsVdirsVdirsVdiqB&#xA;1nWtO0awa9v5PTiDLHGoBaSSWQ8Y4okHxPI7HiqjcnFUF5Z0WayF5qN9vq+rzfWL3cMI1UcILZCP&#xA;2YIwF22ZuTftYqneKuxVLvMPl/S/MGk3Gl6nF6ltcIychtJGxFBJE/VJE6qw3B3xV5d5bbV/y2vZ&#xA;dN8665qmt6UYo4tK1WSJ5rR45ZXH1edVjb07mKgIZ5W9VW4KOQVcVT3Q9J84eX7vX7TS7+LUbaNI&#xA;tQ0/R5LVooImn5l7W2kMi+iGMR4IWcR8hXiDuqyvQ/OXlvWjFHY30ZvJYhN9QkIjulTvygakg4nZ&#xA;ttjtiqdYqgBr+hH1qalan6uzJcfvo/3bJ9pX+L4SvcHFUkm/NP8AL+OzuL1daguLW2YxtLbcrhXk&#xA;WlY4jEHEr/EBxjqa7Yqltx5g1rzRaXukWf1bSvrljPyiF00mtwCWD4OdmixpbSr6sbVac8SQDucV&#xA;S27Ol619W8o2HliyOsaZaxPIt9HBJZ6clxF+8V44XkdqkKvpVCymvxEIzBVm/lXyzYeW9Hj06z+N&#xA;qmW7umAElxcPT1JpKbcmI6DZRRRRQBiqb4q7FXYq7FXYq7FXYq7FXYq7FXYq7FXYq7FXYqll35es&#xA;LzXbPWLrlNPp0brYQuQYopJdnnVaf3pT4A37K1ApyaqqZ4q7FXYq7FVG+srS/sp7G8iWe0uo2huI&#xA;HFVeOQFWVh4EGmKsE8xflrq02i3Wl6Prd3LplyKSaRqN3cMrKahokv19S7jjkVirq/qin2QvXFVK&#xA;2tYbbSoP8TeXdSC6XBALe3gSC/ht3thx9WxawVboO3I1b01YjbjTFUgl80/l3NdSx012zjluGHqX&#xA;+p3+kx3MXpK7SRxapdWiyqX5RFVXkOJ6LQlVNdO138sHhubiO4050lRRo+gyQW4ihCx0CxLbJOZm&#xA;eRW5tHy47JxDLQqr/J0GtafcXD6P5MtdNFzHGsUqxrp8AUVJe4kctdO52ootQf526UVTK8/Li91+&#xA;1is/NOowyafFI0yWmjR3emMzSHk63E/1ud5lY7kgIxbeu5GKsn8u+VvLvlvTxp+g6fDp1pyLtHAo&#xA;Xm56vI32nY/zMScVTTFXYq7FXYq7FXYq7FXYq7FXYq7FX//Z</xmpGImg:image>
               </rdf:li>
            </rdf:Alt>
         </xmp:Thumbnails>
      </rdf:Description>
      <rdf:Description rdf:about=""
            xmlns:xmpMM="http://ns.adobe.com/xap/1.0/mm/"
            xmlns:stRef="http://ns.adobe.com/xap/1.0/sType/ResourceRef#"
            xmlns:stEvt="http://ns.adobe.com/xap/1.0/sType/ResourceEvent#">
         <xmpMM:InstanceID>xmp.iid:CF119786122068118083BCB8240ADB87</xmpMM:InstanceID>
         <xmpMM:DocumentID>xmp.did:CF119786122068118083BCB8240ADB87</xmpMM:DocumentID>
         <xmpMM:OriginalDocumentID>uuid:5D20892493BFDB11914A8590D31508C8</xmpMM:OriginalDocumentID>
         <xmpMM:RenditionClass>proof:pdf</xmpMM:RenditionClass>
         <xmpMM:DerivedFrom rdf:parseType="Resource">
            <stRef:instanceID>xmp.iid:CE119786122068118083BCB8240ADB87</stRef:instanceID>
            <stRef:documentID>xmp.did:CE119786122068118083BCB8240ADB87</stRef:documentID>
            <stRef:originalDocumentID>uuid:5D20892493BFDB11914A8590D31508C8</stRef:originalDocumentID>
            <stRef:renditionClass>proof:pdf</stRef:renditionClass>
         </xmpMM:DerivedFrom>
         <xmpMM:History>
            <rdf:Seq>
               <rdf:li rdf:parseType="Resource">
                  <stEvt:action>saved</stEvt:action>
                  <stEvt:instanceID>xmp.iid:F98B765B9D07E41183468BB91137401D</stEvt:instanceID>
                  <stEvt:when>2014-07-09T21:38:13+02:00</stEvt:when>
                  <stEvt:softwareAgent>Adobe Illustrator CS5</stEvt:softwareAgent>
                  <stEvt:changed>/</stEvt:changed>
               </rdf:li>
               <rdf:li rdf:parseType="Resource">
                  <stEvt:action>saved</stEvt:action>
                  <stEvt:instanceID>xmp.iid:ED6909DB7E20E411B291B65851995CE6</stEvt:instanceID>
                  <stEvt:when>2014-08-10T13:10:26+02:00</stEvt:when>
                  <stEvt:softwareAgent>Adobe Illustrator CS5</stEvt:softwareAgent>
                  <stEvt:changed>/</stEvt:changed>
               </rdf:li>
               <rdf:li rdf:parseType="Resource">
                  <stEvt:action>saved</stEvt:action>
                  <stEvt:instanceID>xmp.iid:CE119786122068118083BCB8240ADB87</stEvt:instanceID>
                  <stEvt:when>2015-02-13T17:22:27+02:00</stEvt:when>
                  <stEvt:softwareAgent>Adobe Illustrator CS5.1</stEvt:softwareAgent>
                  <stEvt:changed>/</stEvt:changed>
               </rdf:li>
               <rdf:li rdf:parseType="Resource">
                  <stEvt:action>saved</stEvt:action>
                  <stEvt:instanceID>xmp.iid:CF119786122068118083BCB8240ADB87</stEvt:instanceID>
                  <stEvt:when>2015-02-13T17:34:02+02:00</stEvt:when>
                  <stEvt:softwareAgent>Adobe Illustrator CS5.1</stEvt:softwareAgent>
                  <stEvt:changed>/</stEvt:changed>
               </rdf:li>
            </rdf:Seq>
         </xmpMM:History>
      </rdf:Description>
      <rdf:Description rdf:about=""
            xmlns:illustrator="http://ns.adobe.com/illustrator/1.0/">
         <illustrator:StartupProfile>Print</illustrator:StartupProfile>
      </rdf:Description>
      <rdf:Description rdf:about=""
            xmlns:xmpTPg="http://ns.adobe.com/xap/1.0/t/pg/"
            xmlns:stDim="http://ns.adobe.com/xap/1.0/sType/Dimensions#"
            xmlns:xmpG="http://ns.adobe.com/xap/1.0/g/">
         <xmpTPg:HasVisibleOverprint>False</xmpTPg:HasVisibleOverprint>
         <xmpTPg:HasVisibleTransparency>False</xmpTPg:HasVisibleTransparency>
         <xmpTPg:NPages>1</xmpTPg:NPages>
         <xmpTPg:MaxPageSize rdf:parseType="Resource">
            <stDim:w>115.000043</stDim:w>
            <stDim:h>128.368047</stDim:h>
            <stDim:unit>Millimeters</stDim:unit>
         </xmpTPg:MaxPageSize>
         <xmpTPg:PlateNames>
            <rdf:Seq>
               <rdf:li>Cyan</rdf:li>
               <rdf:li>Magenta</rdf:li>
               <rdf:li>Yellow</rdf:li>
               <rdf:li>Black</rdf:li>
            </rdf:Seq>
         </xmpTPg:PlateNames>
         <xmpTPg:SwatchGroups>
            <rdf:Seq>
               <rdf:li rdf:parseType="Resource">
                  <xmpG:groupName>Default Swatch Group</xmpG:groupName>
                  <xmpG:groupType>0</xmpG:groupType>
               </rdf:li>
            </rdf:Seq>
         </xmpTPg:SwatchGroups>
      </rdf:Description>
      <rdf:Description rdf:about=""
            xmlns:pdf="http://ns.adobe.com/pdf/1.3/">
         <pdf:Producer>Adobe PDF library 9.90</pdf:Producer>
      </rdf:Description>
   </rdf:RDF>
</x:xmpmeta>
                                                                                                    
                                                                                                    
                                                                                                    
                                                                                                    
                                                                                                    
                                                                                                    
                                                                                                    
                                                                                                    
                                                                                                    
                                                                                                    
                                                                                                    
                                                                                                    
                                                                                                    
                                                                                                    
                                                                                                    
                                                                                                    
                                                                                                    
                                                                                                    
                                                                                                    
                                                                                                    
                           
<?xpacket end="w"?>
	</metadata>
<g>
	<line fill="none" stroke="#231F20" stroke-width="0.5" x1="138.715" y1="226.783" x2="245.497" y2="235.198"/>
	<line fill="none" stroke="#231F20" stroke-width="0.5" x1="132.753" y1="215.751" x2="245.497" y2="215.751"/>
	<line fill="none" stroke="#231F20" stroke-width="0.5" x1="155.772" y1="203.07" x2="245.497" y2="203.07"/>
	<g enable-background="new    ">
		<path fill="#231F20" d="M249.924,40.208h0.82v5.606h2.688v0.682h-3.508V40.208z"/>
		<path fill="#231F20" d="M257.484,45.414c0,0.392,0.019,0.775,0.066,1.083h-0.737l-0.064-0.569h-0.028
			c-0.252,0.355-0.737,0.671-1.38,0.671c-0.915,0-1.382-0.644-1.382-1.297c0-1.092,0.971-1.688,2.714-1.68v-0.094
			c0-0.362-0.103-1.045-1.025-1.034c-0.43,0-0.868,0.121-1.186,0.335l-0.187-0.55c0.374-0.231,0.923-0.392,1.492-0.392
			c1.381,0,1.716,0.942,1.716,1.839L257.484,45.414L257.484,45.414z M256.691,44.192c-0.896-0.019-1.912,0.139-1.912,1.016
			c0,0.542,0.354,0.785,0.767,0.785c0.598,0,0.979-0.374,1.11-0.756c0.027-0.094,0.036-0.187,0.036-0.262L256.691,44.192
			L256.691,44.192z"/>
	</g>
	<g enable-background="new    ">
		<path fill="#231F20" d="M258.812,43.39c0-0.532-0.01-0.989-0.037-1.411h0.719l0.037,0.896h0.027
			c0.207-0.606,0.711-0.989,1.26-0.989c0.085,0,0.149,0.01,0.225,0.019v0.774c-0.083-0.019-0.167-0.019-0.278-0.019
			c-0.578,0-0.989,0.429-1.102,1.045c-0.02,0.112-0.029,0.252-0.029,0.383v2.407h-0.819V43.39H258.812z"/>
	</g>
	<g enable-background="new    ">
		<path fill="#231F20" d="M262.389,41.979l0.979,2.669c0.111,0.298,0.224,0.653,0.3,0.923h0.019c0.085-0.27,0.178-0.615,0.289-0.942
			l0.896-2.65h0.865l-1.23,3.22c-0.589,1.549-0.989,2.333-1.549,2.827c-0.409,0.345-0.803,0.484-1.008,0.522l-0.205-0.68
			c0.205-0.065,0.475-0.195,0.719-0.401c0.225-0.178,0.494-0.495,0.691-0.916c0.037-0.083,0.064-0.149,0.064-0.195
			c0-0.046-0.02-0.112-0.064-0.214l-1.66-4.162h0.895V41.979z"/>
		<path fill="#231F20" d="M266.485,43.203c0-0.477-0.009-0.849-0.035-1.223h0.728l0.046,0.747h0.021
			c0.224-0.419,0.745-0.839,1.492-0.839c0.624,0,1.595,0.374,1.595,1.922v2.687h-0.819v-2.604c0-0.728-0.271-1.334-1.046-1.334
			c-0.532,0-0.951,0.383-1.102,0.839c-0.038,0.103-0.057,0.243-0.057,0.382v2.716h-0.819v-3.293H266.485z"/>
		<path fill="#231F20" d="M275.529,45.833c0,1.045-0.215,1.669-0.642,2.071c-0.449,0.401-1.083,0.541-1.653,0.541
			c-0.54,0-1.137-0.13-1.502-0.373l0.205-0.635c0.299,0.196,0.767,0.364,1.324,0.364c0.841,0,1.457-0.439,1.457-1.587V45.72h-0.021
			c-0.242,0.42-0.736,0.757-1.437,0.757c-1.12,0-1.923-0.953-1.923-2.204c0-1.53,0.997-2.389,2.043-2.389
			c0.783,0,1.205,0.401,1.409,0.775h0.02l0.026-0.682h0.728c-0.027,0.318-0.037,0.692-0.037,1.233v2.623H275.529z M274.709,43.762
			c0-0.14-0.01-0.261-0.047-0.364c-0.149-0.485-0.541-0.878-1.147-0.878c-0.783,0-1.345,0.663-1.345,1.708
			c0,0.886,0.457,1.624,1.335,1.624c0.514,0,0.971-0.316,1.138-0.84c0.047-0.14,0.064-0.298,0.064-0.438v-0.812H274.709z"/>
		<path fill="#231F20" d="M280.972,44.201c0,1.67-1.168,2.398-2.25,2.398c-1.212,0-2.163-0.896-2.163-2.323
			c0-1.502,0.998-2.389,2.239-2.389C280.094,41.887,280.972,42.829,280.972,44.201z M277.399,44.247c0,0.989,0.56,1.736,1.362,1.736
			c0.783,0,1.371-0.737,1.371-1.754c0-0.766-0.383-1.726-1.353-1.726C277.818,42.502,277.399,43.398,277.399,44.247z"/>
		<path fill="#231F20" d="M281.899,45.666c0.252,0.149,0.68,0.317,1.091,0.317c0.587,0,0.867-0.29,0.867-0.672
			c0-0.392-0.231-0.598-0.83-0.82c-0.82-0.298-1.202-0.738-1.202-1.279c0-0.729,0.597-1.325,1.557-1.325
			c0.457,0,0.859,0.122,1.103,0.28l-0.196,0.598c-0.177-0.112-0.504-0.27-0.925-0.27c-0.485,0-0.745,0.279-0.745,0.615
			c0,0.373,0.26,0.541,0.849,0.775c0.775,0.289,1.186,0.681,1.186,1.353c0,0.802-0.625,1.361-1.68,1.361
			c-0.494,0-0.949-0.131-1.268-0.316L281.899,45.666z"/>
	</g>
	<g enable-background="new    ">
		<path fill="#231F20" d="M288.929,46.337c-0.217,0.103-0.692,0.261-1.297,0.261c-1.363,0-2.249-0.923-2.249-2.304
			c0-1.391,0.951-2.408,2.426-2.408c0.484,0,0.914,0.122,1.139,0.243l-0.188,0.625c-0.194-0.103-0.504-0.216-0.95-0.216
			c-1.036,0-1.596,0.775-1.596,1.708c0,1.045,0.671,1.689,1.567,1.689c0.467,0,0.775-0.113,1.009-0.215L288.929,46.337z"/>
	</g>
	<g enable-background="new    ">
		<path fill="#231F20" d="M293.921,44.201c0,1.67-1.166,2.398-2.248,2.398c-1.213,0-2.164-0.896-2.164-2.323
			c0-1.502,0.998-2.389,2.239-2.389C293.045,41.887,293.921,42.829,293.921,44.201z M290.348,44.247
			c0,0.989,0.561,1.736,1.363,1.736c0.782,0,1.371-0.737,1.371-1.754c0-0.766-0.384-1.726-1.353-1.726
			C290.767,42.502,290.348,43.398,290.348,44.247z"/>
		<path fill="#231F20" d="M294.96,43.455c0-0.58-0.019-1.045-0.037-1.475h0.728l0.047,0.775h0.019
			c0.327-0.55,0.868-0.868,1.604-0.868c1.103,0,1.923,0.924,1.923,2.286c0,1.624-0.998,2.426-2.061,2.426
			c-0.599,0-1.12-0.261-1.392-0.708h-0.018v2.454h-0.813V43.455z M295.774,44.658c0,0.122,0.009,0.234,0.035,0.336
			c0.148,0.568,0.645,0.96,1.232,0.96c0.866,0,1.37-0.708,1.37-1.745c0-0.896-0.476-1.671-1.343-1.671
			c-0.561,0-1.091,0.393-1.241,1.009c-0.026,0.103-0.054,0.223-0.054,0.326V44.658z"/>
		<path fill="#231F20" d="M300.73,44.387c0.018,1.111,0.718,1.567,1.548,1.567c0.588,0,0.952-0.103,1.25-0.233l0.148,0.587
			c-0.288,0.131-0.793,0.289-1.511,0.289c-1.391,0-2.221-0.923-2.221-2.286c0-1.362,0.802-2.426,2.118-2.426
			c1.484,0,1.867,1.287,1.867,2.119c0,0.168-0.009,0.29-0.028,0.383H300.73z M303.137,43.8c0.009-0.513-0.215-1.326-1.139-1.326
			c-0.84,0-1.195,0.756-1.26,1.326H303.137z"/>
	</g>
	<line fill="none" stroke="#231F20" stroke-width="0.5" x1="145.262" y1="45.022" x2="245.497" y2="45.022"/>
	<g>
		<g>
			<path fill="#231F20" d="M249.744,232.201v3.758c0,1.409,0.63,2.012,1.476,2.012c0.93,0,1.541-0.619,1.541-2.012v-3.758h0.826
				v3.703c0,1.944-1.024,2.734-2.396,2.734c-1.297,0-2.274-0.734-2.274-2.707v-3.73H249.744z"/>
			<path fill="#231F20" d="M255.266,233.986l0.893,2.547c0.15,0.422,0.273,0.797,0.367,1.173h0.028
				c0.103-0.376,0.234-0.751,0.385-1.173l0.883-2.547h0.864l-1.785,4.548h-0.79l-1.729-4.548H255.266z"/>
			<path fill="#231F20" d="M263.269,237.284c0,0.48,0.01,0.894,0.037,1.25h-0.733l-0.047-0.742h-0.019
				c-0.207,0.366-0.696,0.847-1.503,0.847c-0.715,0-1.57-0.405-1.57-1.992v-2.66h0.827v2.508c0,0.865,0.271,1.456,1.014,1.456
				c0.555,0,0.94-0.384,1.091-0.76c0.047-0.114,0.074-0.265,0.074-0.423v-2.783h0.827v3.3H263.269z"/>
			<path fill="#231F20" d="M264.639,231.862h0.825v6.672h-0.825V231.862z"/>
			<path fill="#231F20" d="M270.049,237.445c0,0.394,0.019,0.779,0.065,1.089h-0.742l-0.066-0.573h-0.027
				c-0.253,0.357-0.742,0.678-1.39,0.678c-0.922,0-1.392-0.65-1.392-1.308c0-1.099,0.978-1.701,2.735-1.69v-0.095
				c0-0.366-0.104-1.052-1.035-1.044c-0.431,0-0.872,0.122-1.192,0.339l-0.189-0.553c0.376-0.236,0.932-0.396,1.503-0.396
				c1.392,0,1.73,0.947,1.73,1.852V237.445z M269.251,236.213c-0.901-0.019-1.926,0.142-1.926,1.025
				c0,0.544,0.356,0.788,0.771,0.788c0.601,0,0.986-0.374,1.117-0.76c0.028-0.095,0.038-0.19,0.038-0.265V236.213z"/>
		</g>
	</g>
	<g>
		<g>
			<path fill="#231F20" d="M251.77,200.334h-1.926v-0.694h4.688v0.694h-1.936v5.638h-0.827V200.334L251.77,200.334z"/>
			<path fill="#231F20" d="M258.656,203.661c0,1.681-1.175,2.415-2.265,2.415c-1.222,0-2.18-0.902-2.18-2.34
				c0-1.513,1.005-2.406,2.255-2.406C257.773,201.33,258.656,202.279,258.656,203.661z M255.057,203.708
				c0,0.996,0.563,1.748,1.372,1.748c0.788,0,1.381-0.742,1.381-1.768c0-0.77-0.386-1.738-1.363-1.738
				C255.479,201.95,255.057,202.852,255.057,203.708z"/>
			<path fill="#231F20" d="M259.696,202.655c0-0.479-0.01-0.854-0.037-1.23h0.733l0.046,0.752h0.02
				c0.227-0.423,0.752-0.847,1.504-0.847c0.63,0,1.606,0.376,1.606,1.936v2.706h-0.827v-2.622c0-0.731-0.273-1.342-1.052-1.342
				c-0.534,0-0.958,0.386-1.109,0.844c-0.037,0.104-0.057,0.246-0.057,0.387v2.733h-0.827V202.655L259.696,202.655z"/>
			<path fill="#231F20" d="M268.798,205.305c0,1.054-0.218,1.684-0.649,2.087c-0.451,0.403-1.09,0.545-1.661,0.545
				c-0.546,0-1.148-0.132-1.515-0.376l0.207-0.64c0.301,0.199,0.77,0.368,1.334,0.368c0.846,0,1.465-0.443,1.465-1.599v-0.498h-0.02
				c-0.244,0.424-0.741,0.762-1.446,0.762c-1.127,0-1.936-0.958-1.936-2.218c0-1.542,1.005-2.406,2.058-2.406
				c0.789,0,1.212,0.402,1.419,0.778h0.019l0.029-0.685h0.731c-0.027,0.318-0.037,0.694-0.037,1.239v2.642H268.798z M267.971,203.22
				c0-0.143-0.01-0.264-0.047-0.368c-0.15-0.487-0.545-0.882-1.155-0.882c-0.79,0-1.354,0.668-1.354,1.719
				c0,0.894,0.461,1.636,1.344,1.636c0.517,0,0.978-0.318,1.146-0.847c0.048-0.141,0.065-0.299,0.065-0.441V203.22L267.971,203.22z"
				/>
			<path fill="#231F20" d="M273.963,204.722c0,0.481,0.011,0.896,0.037,1.25h-0.732l-0.048-0.741h-0.02
				c-0.205,0.365-0.695,0.847-1.503,0.847c-0.714,0-1.569-0.405-1.569-1.993v-2.659h0.825v2.508c0,0.865,0.274,1.457,1.016,1.457
				c0.555,0,0.941-0.385,1.091-0.761c0.047-0.113,0.075-0.264,0.075-0.424v-2.781h0.826v3.298H273.963z"/>
			<path fill="#231F20" d="M275.792,203.848c0.02,1.117,0.725,1.578,1.561,1.578c0.593,0,0.958-0.103,1.26-0.233l0.148,0.593
				c-0.291,0.132-0.797,0.291-1.521,0.291c-1.4,0-2.236-0.931-2.236-2.303s0.809-2.443,2.133-2.443c1.493,0,1.879,1.298,1.879,2.134
				c0,0.17-0.01,0.292-0.028,0.384H275.792z M278.218,203.258c0.009-0.519-0.217-1.335-1.148-1.335
				c-0.845,0-1.201,0.762-1.269,1.335H278.218z"/>
		</g>
	</g>
	<g>
		<path fill-rule="evenodd" clip-rule="evenodd" d="M110.427,152.911c-3.977,1.573-6.476-4.916-13.402-3.89
			c-0.822-0.852,3.468-0.257,4.755-0.433C104.691,150,106.798,152.217,110.427,152.911z"/>
		<path fill-rule="evenodd" clip-rule="evenodd" d="M139.392,165.017c0.875,2.32,3.23,3.362,5.621,4.755
			c1.51,0.88,4.286,1.744,3.891,3.458C145.885,170.34,140.22,170.096,139.392,165.017z"/>
		<path fill-rule="evenodd" clip-rule="evenodd" d="M141.121,185.768c-0.282,3.453,0.382,5.959,0.432,9.079
			c2.23,0.94,6.146,0.194,9.079,0.433c-1.673,1.813,0.072,4.595-0.865,7.35c-2.853,1.614-4.767,4.166-6.917,6.484
			c-4.258-1.836-9.323,0.426-16.428,0c-0.03-1.217,0.335-0.38,0.864-0.433c3.479-0.343,10.666-1.343,15.131-0.432
			c2.471-4.112,8.042-5.075,6.917-11.674c-2.092-0.933-5.854-0.199-8.647-0.432c0.673-2.366-0.825-6.013-0.432-9.512
			c-2.935-1.339-6.46,0.45-9.943,0c-1.428,2.333,0.429,7.498-0.865,10.809c-3.001,0.137-5.248,0.93-7.782,0.432
			c-2.646,4.469,2.306,8.187,4.324,10.809c-2.459-0.855-3.014-3.616-5.621-4.323c-0.556-3.24,0.241-4.539-0.432-6.917
			c2.402-0.769,6.381,0.041,8.646-0.865c0.838-1.651,0.21-6.768,0-9.943C132.537,185.663,136.813,185.321,141.121,185.768z"/>
		<path fill-rule="evenodd" clip-rule="evenodd" d="M154.09,196.575c0.771,0.318,0.063,0.786,0,1.297
			C153.32,197.556,154.028,197.086,154.09,196.575z"/>
		<path fill-rule="evenodd" clip-rule="evenodd" d="M154.09,198.737c0.288,0,0.577,0,0.865,0c0,0.288,0,0.577,0,0.864
			c-0.288,0-0.577,0-0.865,0C154.09,199.314,154.09,199.025,154.09,198.737z"/>
		<path fill-rule="evenodd" clip-rule="evenodd" d="M151.064,199.17c0.288,0,0.576,0,0.865,0c0,0.288,0,0.577,0,0.864
			c-0.29,0-0.578,0-0.865,0C151.064,199.747,151.064,199.458,151.064,199.17z"/>
		<path fill-rule="evenodd" clip-rule="evenodd" d="M117.343,200.899c0.289,0,0.577,0,0.865,0c0,0.288,0,0.575,0,0.864
			c-0.289,0-0.577,0-0.865,0C117.343,201.475,117.343,201.188,117.343,200.899z"/>
		<path fill-rule="evenodd" clip-rule="evenodd" d="M119.073,201.331c0.763-0.138,0.771,2.423-0.432,1.729
			C118.458,202.157,118.937,201.916,119.073,201.331z"/>
		<path fill-rule="evenodd" clip-rule="evenodd" d="M116.479,204.357c0.026-0.031-0.03-0.427,0-0.433
			C118.555,203.559,114.426,206.703,116.479,204.357z"/>
		<path fill-rule="evenodd" clip-rule="evenodd" d="M148.47,203.925c0.289,0,0.577,0,0.865,0c0,0.289,0,0.577,0,0.865
			c-0.288,0-0.577,0-0.865,0C148.47,204.502,148.47,204.214,148.47,203.925z"/>
		<path fill-rule="evenodd" clip-rule="evenodd" d="M119.505,205.222c1.075,0.065,0.126,1.464,0,1.729
			C118.43,206.887,119.379,205.487,119.505,205.222z"/>
		<path fill-rule="evenodd" clip-rule="evenodd" d="M150.199,206.086c0.289,0,0.577,0,0.865,0c0,0.289,0,0.577,0,0.865
			c-0.289,0-0.577,0-0.865,0C150.199,206.663,150.199,206.375,150.199,206.086z"/>
		<path fill-rule="evenodd" clip-rule="evenodd" d="M118.208,208.249c0.287,0,0.576,0,0.864,0c0,0.287,0,0.575,0,0.864
			c-0.288,0-0.577,0-0.864,0C118.208,208.824,118.208,208.536,118.208,208.249z"/>
		<path fill-rule="evenodd" clip-rule="evenodd" d="M117.343,209.546C119.217,209.726,116.889,212.055,117.343,209.546
			L117.343,209.546z"/>
		<path fill-rule="evenodd" clip-rule="evenodd" d="M149.335,209.546c0.77,0.316,0.062,0.785,0,1.297
			C148.565,210.525,149.273,210.056,149.335,209.546z"/>
		<path fill-rule="evenodd" clip-rule="evenodd" d="M157.982,209.546c0.288,0,0.576,0,0.864,0c0,0.287,0,0.576,0,0.864
			c-0.289,0-0.577,0-0.864,0C157.982,210.122,157.982,209.833,157.982,209.546z"/>
		<path fill-rule="evenodd" clip-rule="evenodd" d="M146.741,210.41c0.289,0,0.577,0,0.865,0c0,0.288,0,0.576,0,0.864
			c-0.289,0-0.576,0-0.865,0C146.741,210.986,146.741,210.698,146.741,210.41z"/>
		<path fill-rule="evenodd" clip-rule="evenodd" d="M111.724,211.706c0.288,0,0.576,0,0.864,0c0,0.29,0,0.577,0,0.865
			c-0.288,0-0.577,0-0.864,0C111.724,212.283,111.724,211.996,111.724,211.706z"/>
		<path fill-rule="evenodd" clip-rule="evenodd" d="M148.47,212.14c0.289,0,0.577,0,0.865,0c0,0.288,0,0.576,0,0.864
			c-0.288,0-0.577,0-0.865,0C148.47,212.716,148.47,212.428,148.47,212.14z"/>
		<path fill-rule="evenodd" clip-rule="evenodd" d="M148.47,213.869c0.655-1.526,0.821,0.795,0.433,0.864
			C148.647,214.778,148.36,214.126,148.47,213.869z"/>
		<path fill-rule="evenodd" clip-rule="evenodd" d="M144.579,215.165c1.301-0.808,1.086,5.451,0.865,7.782
			c-0.1,1.042-0.753,1.909-0.432,2.594C143.812,221.579,145.554,217.746,144.579,215.165z"/>
		<path fill-rule="evenodd" clip-rule="evenodd" d="M151.497,218.191c1.002,1.03,0.302,5.43,0.433,8.646
			C150.017,225.438,152.056,221.858,151.497,218.191z"/>
		<path fill-rule="evenodd" clip-rule="evenodd" d="M125.558,242.402c-3.276,2.39-0.675,6.694,1.296,8.646
			c4.251-0.068,6.602,5.829,10.808,6.054c3.688,0.194,6.23-2.705,8.214-6.054c4.841,0.024,6.341-4.102,4.756-8.215
			c2.133,0.174,1.011,3.602,1.297,5.621c-1.411,1.472-2.53,3.235-5.189,3.458c-2.693,1.954-5.433,8.235-11.672,5.62
			c-0.17-0.07-1.618-1.692-2.162-2.161c-0.734-0.632-1.479-1.726-2.162-2.162c-1.18-0.755-2.523-0.391-3.458-0.865
			C123.667,250.51,120.359,244.497,125.558,242.402z"/>
		<path fill-rule="evenodd" clip-rule="evenodd" d="M147.174,242.833c-0.38,2.647-2.055,3.999-4.756,4.324
			c-0.599-0.265-0.065-1.664-0.864-1.729C142.499,243.813,144.977,241.797,147.174,242.833z"/>
		<path fill-rule="evenodd" clip-rule="evenodd" d="M135.068,246.293c-0.7,3.105-6.576,1.141-6.485-1.73
			C130.441,243.005,133.766,244.736,135.068,246.293z"/>
		<path fill-rule="evenodd" clip-rule="evenodd" d="M176.138,259.695c0.025,1.182-1.465,1.242-1.729,1.297
			c-5.929,1.206-12.683-1.15-16.428,0.864c0.132,4.551,3.267,5.312,7.349,6.484c1.396,0.4,3.158,0.553,3.891,1.729
			c-4.809-0.418-11.99-2.611-12.104-6.918c-0.031-1.154,0.79-3.585,2.162-3.025c-0.087-1.643-1.818-1.641-1.729-3.459
			c0.472-3.131,2.98-4.226,4.755-6.052c1.611,0.566-1.23,1.608-1.728,2.162C153.632,260.49,167.186,261.034,176.138,259.695z"/>
		<path fill-rule="evenodd" clip-rule="evenodd" d="M106.104,268.341c5.475-2.45,12.666-3.186,15.563-8.214
			c-5.292-0.746-13.128-0.814-17.725-0.865c0.432-1.601,2.842-0.824,4.322-0.864c4.739-0.131,12.211,1.945,13.834-1.729
			c-0.425-1.88-1.204-3.406-3.026-3.89c3.461-1.839,4,5.229,3.458,8.214c-1.165,2.329-3.205,2.666-6.917,4.323
			C112.374,266.76,110.983,268.834,106.104,268.341z"/>
		<path fill-rule="evenodd" clip-rule="evenodd" d="M124.261,273.096c-2.052,4.99-8.581,3.501-12.97,4.324
			c2.243-0.928,4.552-1.79,6.052-3.459c-0.006,1.29-1.124,1.47-1.297,2.595c2.518-0.078,2.723-2.467,5.188-2.595
			c0.534,1.398-1.399,0.33-0.865,1.729C122.681,275.84,122.359,273.356,124.261,273.096z"/>
		<path fill-rule="evenodd" clip-rule="evenodd" d="M186.946,273.529c-0.653,1.795-3.396,1.502-5.187,2.161
			C182.779,274.26,185.522,274.554,186.946,273.529z"/>
		<path fill-rule="evenodd" clip-rule="evenodd" d="M98.754,274.393c-1.388,0.92-3.827,0.786-5.188,1.729
			C94.064,274.315,96.476,274.421,98.754,274.393z"/>
		<path fill-rule="evenodd" clip-rule="evenodd" d="M104.374,274.393c-1.271,1.469-4.048,1.429-6.485,1.729
			C98.996,274.491,102.445,275.202,104.374,274.393z"/>
		<path fill-rule="evenodd" clip-rule="evenodd" d="M109.994,274.393c-0.279,1.738-3.354,0.681-3.89,2.163
			C98.104,276.915,108.841,275.122,109.994,274.393z"/>
		<path fill-rule="evenodd" clip-rule="evenodd" d="M113.885,274.393c-1.433,1.883-4.03,2.599-6.917,3.027
			C108.849,275.986,111.5,275.323,113.885,274.393z"/>
		<path fill-rule="evenodd" clip-rule="evenodd" d="M158.846,275.69c1.513,0.792,2.056,2.555,4.323,2.594
			c1.277-0.375-1.003-0.647-0.432-1.729c1.64,0.809,2.788,2.112,5.188,2.161c1.027-0.128-0.481-1.17-0.865-1.297
			c1.478-1.026,3.517,1.079,5.621,0.864c1.426-0.646-1.448-0.509-0.866-1.729c1.133,1.027,3.774,0.55,5.188,1.296
			c1.058-0.047,0.092-1.429-0.433-1.296c1.346,0.343,5.926-1.295,6.918,0.431c-4.088-0.019-6.675,1.649-9.943,1.298
			c0.174,1.46,1.676-1.151,1.295,0.864c-1.855,0.594-5.237-0.339-6.051,1.297C165.591,278.992,158.398,279.361,158.846,275.69z"/>
		<path fill-rule="evenodd" clip-rule="evenodd" d="M76.706,287.795c1.074,1.231,0.692,3.919,2.594,4.324
			c1.612,0.458,0.685-1.622,2.162-1.298c0.651,2.236-1.504,1.666-2.594,2.162c-0.011,1.885-0.257,4.004,0.865,4.756
			c0.643-0.366,0.625-1.393,0.865-2.162c0.392,0.875-0.24,5.085,2.162,3.458c0.293,3.054-4.032-0.853-4.755-2.161
			C78.695,292.725,76.386,291.573,76.706,287.795z"/>
		<path fill-rule="evenodd" clip-rule="evenodd" d="M202.943,294.28c1.562-0.409,0.603,1.703,0.865,2.594
			c-1.629,1.686-3.202,3.427-3.027,6.917c-1.063,0.952-2.603,1.433-3.027,3.026c-0.566-2.307,3.512-3.688,3.027-7.35
			c-1.978-1.04-1.371,2.537-3.458,1.297C198.228,297.636,204.002,299.375,202.943,294.28z"/>
		<path fill-rule="evenodd" clip-rule="evenodd" d="M83.623,299.899c0.741-1.521,0.871,1.086,1.73,0.865
			C84.708,302.188,84.131,300.03,83.623,299.899z"/>
		<path fill-rule="evenodd" clip-rule="evenodd" d="M180.895,323.678c-0.719,0.866-1.161,2.01-2.595,2.161
			C179.019,324.972,179.461,323.83,180.895,323.678z"/>
		<path fill-rule="evenodd" clip-rule="evenodd" d="M104.374,324.109c1.605,0.125,1.171,2.288,3.026,2.162
			C106.014,327.629,104.665,325.282,104.374,324.109z"/>
		<path fill-rule="evenodd" clip-rule="evenodd" d="M113.021,324.542c-0.757,0.828-0.509,2.661-2.162,2.594
			C111.797,326.489,111.549,324.657,113.021,324.542z"/>
		<path fill-rule="evenodd" clip-rule="evenodd" d="M171.384,325.839c1.168,0.646-0.749,1.805-1.298,2.163
			c-0.985,0.119-1.625-0.104-1.729-0.866c-1.537,0.625-2.571,1.751-3.459,3.027c-0.911-1.223,1.738-2.569,2.595-3.459
			C169.492,327.335,170.464,327.898,171.384,325.839z"/>
		<path fill-rule="evenodd" clip-rule="evenodd" d="M120.369,328.002c-0.88,0.703-2.262,0.907-3.026,1.728
			c0.577,0.72,1.923,0.673,2.594,1.298c-0.113,1.189-3.582-1.413-3.458,0.864c-1.02-0.133-0.805-1.501-2.162-1.298
			c0.299-1.354,1.153-0.562,2.162-0.431C117.421,329.087,118.075,327.723,120.369,328.002z"/>
		<path fill-rule="evenodd" clip-rule="evenodd" d="M123.396,329.729c0.633,0.376,1.371,0.648,1.297,1.729
			c-0.845,0.506-2.419,1.421-3.458,0.433C122.177,331.021,124.925,331.953,123.396,329.729z"/>
		<path fill-rule="evenodd" clip-rule="evenodd" d="M147.606,331.027c0.315,1.421-0.859,0.662-0.865,0
			c-1.34,0.245-1.136,2.033-2.594,2.161C144.379,331.816,146.169,329.761,147.606,331.027z"/>
		<path fill-rule="evenodd" clip-rule="evenodd" d="M158.414,331.892c0.643,2.511-5.172,2.78-6.917,2.162
			C152.94,332.378,157.236,334.555,158.414,331.892z"/>
		<path fill-rule="evenodd" clip-rule="evenodd" d="M135.501,335.349c1.437-0.558,5.879-0.412,6.484,1.298
			c1.083,0.073,1.354-0.663,1.729-1.298c1.08,0.561-0.457,2.098-1.729,1.73c-1.162,0.299-0.835-0.894-1.297-1.297
			C138.975,335.623,136.546,336.179,135.501,335.349z"/>
		<path fill-rule="evenodd" clip-rule="evenodd" d="M198.62,204.357c1.267,2.912,2.87,5.488,4.755,7.782
			c0.856,7.537,1.557,13.149,0.864,20.751c1.101-1.062,2.67-1.654,5.188-1.297c6.158,4.309,2.442,14.72,1.297,23.777
			c-0.847,6.698-0.706,12.636-1.729,16.86c-0.567,1.161-1.905,1.554-2.594,2.595c-0.058,4.373,0.473,9.396-0.432,13.401
			c-0.471,2.078-2.309,3.224-2.161,5.188c-1.882-1.431,0.869-3.018,1.297-4.756c0.236-0.965-0.2-2.689,0-4.323
			c0.446-3.676,1.536-6.689,0-9.943c-2.251-0.439-2.369,4.602-0.866,5.188c-1.191,0.393-2.29,0.88-1.729,3.025
			c0.389,1.17,1.045-0.911,1.298-1.296c0.514,2.682-3.332,4.733-3.892,7.781c0.103,1.28,1.606,0.595,2.162,0
			c1.614,1.042-3.372,1.861-0.434,3.027c-0.624,1.275-1.74-0.516-1.297-1.729c-2.254,2.356-3.354,5.868-3.891,9.942
			c-1.809,1.506-3.135,3.495-3.891,6.053c-2.608-0.015-3.446,1.742-5.188,2.594c-0.594,1.368-0.095,1.445,0,3.026
			c-1.369-1.79-2.509,0.64-3.025,2.161c-2.936-0.686-4.713,2.904-8.216,3.027c-0.598,0.696-0.364,2.229-1.298,2.593
			c-0.521,1.25,2.594,1.971,0.435,2.162c-3.456-1.643,0.55-6.367,3.89-6.484c1.749-0.414,2.654-3.487,4.756-2.161
			c1.88-3.598,4.59-6.362,8.214-8.214c1.027-2,2.069-3.985,3.891-5.189c-0.282-5.183,2.904-6.895,3.026-11.672
			c0.419-1.889,2.222-2.39,3.027-3.892c-1.212-2.566,1.214-4.899,0-8.214c1.759-0.395,0.998-2.022,0.864-3.457
			c1.28,0.303,1.883,1.287,3.891,0.864c3.526-5.274,2.364-14.486,3.891-22.481c0.774-4.051,2.627-13.245,0-17.726
			c-5.276-4.074-7.138,3.263-6.916,8.647c1.867-0.295,0.773-3.55,3.025-3.46c2.75,0.562,1.68,4.482,1.729,6.918
			c0.098,4.853,0.061,10.94-0.863,15.995c-0.504,2.749-1.414,6.468-3.891,6.918c3.248-3.255,3.891-11.151,4.322-18.589
			c0.235-4.071,0.755-8.745-1.297-10.375c-4.343,2.77,1.409,12.137-3.025,15.561c1.456,3.708,0.567,7.741-0.434,11.242
			c-1.288-1.646,0.431-3.867,0.434-6.484c0-1.501-0.734-2.844-0.865-3.892c-0.317-2.547,0.32-4.964,0.432-7.35
			c0.318-6.822-0.155-13.19,0-19.021c0.169-6.303,0.899-11.174-0.864-16.429c-1.632-4.862-5.396-9.479-8.646-12.97
			c-5.997-6.438-12.227-12.635-18.157-20.319c-2.797-6.57-6.425-12.308-13.834-14.267c-0.726,1.147-1.138,2.61-1.729,3.891
			c-3.136-0.294-5.418,2.858-9.511,1.297c0.113,6.545,0.907,12.6,1.297,20.75c-2.55,0.621-5.445,0.897-8.647,0.865
			c-0.202-2.969-0.649-5.691-0.432-9.078c-4.829-0.727-10.27,0.71-15.564,0c-0.625,2.176,0.417,6.537-0.432,9.942
			c-1.894-0.004-5.325,0.603-8.646,0.433c-0.388-2.135,0.262-2.773-0.433-4.756c-4.067,0.544-2.902,6.32-4.755,9.078
			c1.826,0.662,3.023-3.02,5.62-3.025c-1.645,2.185-4.205,2.57-5.62,5.188c-2.045,3.782-1.416,9.229-3.027,13.835
			c0.555,1.174,2.215,1.244,2.594,2.594c2.809-0.965,5.112-0.747,7.781-2.162c2.088-1.106,3.261-3.22,5.189-3.891
			c5.09-1.773,11.166-0.393,16.859-0.432c-1.254,3.709-1.07,8.785-0.864,12.969c2.24-1.361,0.067-7.139,2.162-8.646
			c0.885,3.659-3.91,11.115,2.162,12.104c0.595-3.797,1.096-7.893,0.432-10.807c2.432,2.597-0.595,10.15,1.297,11.239
			c1.08-2.797-0.231-6.972,0.432-9.943c1.233,3.509,0.27,5.978,0.432,10.376c2.462-1.573-0.034-8.105,2.163-9.942
			c-0.233,3.413-0.697,6.678-0.433,9.942c0.721,0,1.441,0,2.163,0c0.932-2.577,0.163-8.003,0.864-9.511
			c-3.875-1.312-8.009-2.366-9.511-6.054c3.69,3.948,9.482,5.794,17.293,5.622c0.841-2.614,2.716-5.208,2.593-7.782
			c-0.217-4.593-4.274-11.805-9.079-14.267c-2.468-1.266-5.401-0.686-7.781-2.162c8.31-0.383,14.059,5.539,16.428,12.537
			c0.28-8.062-5.012-14.297-10.807-17.725c1.864-0.916,2.512,1.472,3.89,2.594c1.29,1.05,3.364,1.709,4.324,3.026
			c1.506,2.067,4.366,10.771,3.458,15.131c2.639,3.241,0.326,9.636-0.433,11.674c-6.708,5.539-6.917,17.579-20.318,16.428
			c-1.915,0.534-1.701,3.198-2.595,4.754c-1.285-1.454,0.818-3.197,0.865-4.754c-1.602-1.372-3.173-0.307-5.62-0.434
			c-0.632,0.67,1.673,3.855,0.433,5.188c-0.93-1.231-0.707-3.615-1.73-4.754c-14.804,4.741-17.144-12.334-24.642-19.022
			c-1.968,8.015-5.003,15.206-9.078,21.617c-4.032,6.339-7.711,12.805-12.97,17.725c-5.702,5.332-12.604,9.116-18.158,14.697
			c-0.095,1.393,0.765,1.829,0.433,3.459c-5.582,22.232-12.315,43.31-26.372,57.065c0.809-3.726,4.735-5.511,6.917-8.646
			c1.083-1.557,1.923-3.815,3.026-5.62c7.243-11.851,12.711-28.272,15.563-44.962c-10.351,8.095-12.782,27.855-24.209,36.314
			c3.331-3.829,5.516-7.08,8.214-11.671c1.116-1.901,2.645-3.94,3.891-6.485c1.46-2.983,2.295-6.418,3.891-9.512
			c3.246-6.294,8.751-10.86,13.834-15.131c5.171-4.344,10.319-8.009,15.131-13.402c8.675-9.719,16.833-21.272,19.454-38.044
			c2.345-15,5.625-29.82,9.079-44.528c1.522-6.485,2.726-13.01,4.755-19.022c0.112-0.332,0.467-0.967,0.865-2.162
			c1.475-4.423,5.323-8.968,6.052-14.267c6.578-7.932,12.63-25.161,5.188-37.179c-1.282,3.162-1.824,7.15-3.026,10.808
			c-1.859,5.657-3.432,10.824-9.511,10.807c-4.784-0.012-12.009-2.27-14.266-6.052c0.666-7.116,3.376-12.187,5.188-18.157
			c-2.476-0.059-3.142,2.73-3.891,4.323c-2.762,5.875-4.287,13.503-6.917,20.319c-1.605,4.159-3.846,8.271-5.621,12.537
			c-1.739,4.182-3.397,8.39-5.188,12.538c-3.341,7.74-7.703,16.055-12.105,24.21c-5.241,9.708-10.791,17.288-11.672,29.397
			c-0.597-14.719,9.102-22.889,13.401-34.153c-9.102,2.859-17.254,10.414-21.616,19.454c2.709-10.693,14.049-16.502,23.346-22.048
			c9.457-19.366,18.104-39.538,25.075-61.39c-14.809,7.179-28.58,18.158-41.503,28.102c-7.039,5.415-14.59,9.548-20.751,15.996
			c-8.125,8.503-11.244,21.812-14.267,36.314c-1.293,6.21-3,11.926-3.026,18.158c-3.105,7.75-4.186,16.271-6.917,24.21
			c-5.123,14.889-12.396,28.371-19.887,42.367c-4.689,8.761-10.849,18.639-20.319,22.912c-0.051-1.263,1.857-2.27,3.026-3.025
			c1.331-0.86,3.254-1.268,4.323-2.162c4.722-3.956,9.348-12.303,12.538-18.59c2.578-5.082,5.659-10.087,8.214-15.13
			c5.971-11.788,10.96-24.251,14.698-38.909c1.311-5.139,2.838-8.545,3.459-14.699c0.436-4.324,2.052-9.398,3.026-14.267
			c2.847-14.224,6.318-28.67,14.267-37.179c1.262-1.352,2.901-2.57,4.323-3.892c5.105-4.743,11.777-9.027,17.725-13.401
			c13.254-9.749,25.122-19.61,41.503-28.101c2.003-3.617,5.121-6.119,8.646-8.213c-0.002-26.755-3.707-52.905-2.594-84.302
			c6.898-5.053,20.457-5.843,29.397-2.162c0,1.153,0,2.306,0,3.459c0.726,0.974,1.632-1.51,2.162-2.162
			c-2.548-6.301-15.945-6.216-22.48-3.892c-3.753,1.335-9.966,1.697-10.808,6.053c-0.413,1.854,1.213,1.669,1.297,3.026
			c-2.427-0.523-3.139-4.022-3.458-6.485c-0.849-6.534,0.278-16.042-1.297-22.048c6.065-9.579,33.096-9.602,38.044,0.865
			c-0.688,9.144,2.79,20.101-3.458,26.371c0.982,30.553-0.301,54.105,1.729,86.032c6.476,4.011,12.504,7.454,16.86,13.834
			c3.938,5.768,5.887,10.754,5.188,21.184c-0.229,3.41-0.751,7.494-1.729,10.808c-0.494,1.673-1.851,2.907-2.161,4.755
			c-0.984,5.862,1.021,12.624-2.163,17.725c6.691,3.109,11.259,8.34,14.267,15.131c3.193,3.33,7.135,9.614,11.673,14.698
			c1.918,2.149,4.475,3.519,6.053,5.188c0.922,0.976,2.522,4.939,3.891,5.188c0.488,0.088,4.512-1.961,5.621-3.026
			c1.092-1.048,1.414-3.002,2.161-3.891c-3.918-0.953-6.948-4.767-8.646-8.214c-1.61-3.266-1.07-6.336-2.162-9.943
			c-1-3.305-4.385-5.409-7.35-8.646c-7.395-8.08-15.309-16.807-22.48-24.21c0.19-2.16,0.912,0.954,2.162,0.432
			c9.701-0.334,17.91,0.825,23.777,4.324c4.252-0.531,13.742,0.061,15.131,3.458c0.98,2.398-1.197,4.166-3.458,6.053
			c6.51,1.628,18.35,2.915,16.86,9.944c-0.372,1.757-5.697,5.075-7.781,6.484c-2.658,1.795-6.526,4.17-10.809,4.755
			c2.288,3.478,6.307,8.966,7.781,14.698C204.858,198.491,204.052,203.737,198.62,204.357z M147.606-16.125
			c-3.298-4.45-8.142-7.49-15.996-7.782c-5.917-0.22-19.196,0.87-20.751,6.917c-0.816,3.171,0.648,7.335,0.865,10.808
			c0.307,4.948-0.206,8.801,0.864,12.97c6.626-7.141,26.317-10.265,34.586-2.594C147.443-2.924,147.748-8.127,147.606-16.125z
			 M116.046,7.653c-1.112,30.704,2.001,53.3,2.595,82.573c2.531-0.495,5.564-0.488,8.646-0.433c3.831,2.586,7.874,5.083,9.943,9.511
			c0.624,1.335,0.724,3.242,1.297,5.188c0.51,1.732,1.613,3.616,1.729,5.188c0.707,9.566-4.634,19.458-9.079,25.507
			c-2.642,9.319-7.529,16.393-9.511,26.372c6.961-2.184,17.516-3.177,25.074-2.162c-0.344-30.427-1.929-60.281-2.594-89.922
			c-0.474-21.165,1.196-43.207-0.864-64.415C134.373,2.375,122.4,2.53,116.046,7.653z M131.61,107.95
			c1.089-3.367,3.406-6.907,2.594-10.808c-0.787-3.779-6.174-6.898-10.375-6.917c-8.387-0.038-9.548,5.963-11.672,12.104
			c-1.4,4.048-2.931,7.637-2.594,11.673c3.641,3.557,12.647,6.222,18.59,3.458C129.972,114.698,130.481,111.441,131.61,107.95z
			 M152.362,158.964c3.237,2.237,5.014,5.938,7.782,8.646c2.823-5.535,4.105-12.61,3.89-21.184
			C158.217,148.681,154.931,153.463,152.362,158.964z M164.466,145.13c2.481-7.81,4.449-16.818,3.026-25.507
			c-0.416-2.538-2.393-5.876-4.324-8.646c-4.401-6.314-10.373-11.069-16.86-13.834c0.515,11.167,0.665,28.129,1.297,40.206
			c1.092-1.797,2.406-5.654,4.324-5.188c-6.867,4.382-4.146,17.869-4.756,26.372c2.293,1.738,0.343,10.429,4.756,11.672
			c2.597,0.732,5.429-0.58,6.484-3.458c-1.889-3.155-4.807-5.28-6.917-8.214C154.759,153.004,158.371,147.824,164.466,145.13z
			 M121.667,176.257c-1.674-0.233-1.78,1.102-3.026,1.297c0.076,3.832-0.102,8.466,0,11.673c0.026,0.85,0.847,0.843,0.865,1.297
			c0.028,0.729-1.838,0.874-0.865,1.729c2.294,1.44,4.513,0.202,7.35,0c0.275-4.646-0.27-6.579,0.432-9.943
			c6.79,0.644,10.013-0.155,17.292,0c0.005,3.309,0.25,6.379,0.864,9.078c2.64,0.334,4.045-0.566,6.485-0.432
			c0.213-7.559-1.385-12.543-0.865-21.184c-2.508-1.382-1.708-6.073-2.593-9.079c-8.526-1.758-20-0.898-26.372,2.161
			c-0.247,5.086-2.417,8.247-3.026,12.97c4.692-0.524,7.583-6.518,10.808-9.943C127.902,170.529,122.522,172.739,121.667,176.257z
			 M115.182,189.227c3.509-0.243,2.904-6.89,2.162-9.943C116.763,182.737,115.931,185.941,115.182,189.227z M134.636,210.41
			c-7.465,0.107-15.946,1.973-13.834,9.51c0.543,1.938,5.604,4.576,9.079,4.324c1.218-0.088,4.392-0.14,3.892-2.595
			c-4.741-0.131-10.574,0.704-10.809-3.89c-0.133-2.62,2.541-4.841,5.188-5.62c3.431-1.011,9.324,0.168,13.402-0.434
			C140.776,209.478,137.008,210.376,134.636,210.41z M135.933,221.649c2.779-1.605,0.688-6.499,1.729-9.078
			c-2.107,0.199-5.063-0.452-6.484,0.433c-0.077,1.519,1.46,1.422,1.729,2.595c-0.057,2.104-2.224,3.916-1.729,5.187
			c3.712,0.399,1.687-4.941,3.026-6.916c-0.486,4.333,0.839,6.799,0.432,9.942c-2.633,1.546-7.056-0.176-6.917,2.594
			c1.863-1.193,1.273,0.347,3.026,0c6.16-1.219,4.458-7.336,5.188-13.401C136.562,216.39,135.917,218.865,135.933,221.649z
			 M137.662,220.354c2.36-0.924,0.585-5.645,1.729-7.783c-0.432,0-0.864,0-1.297,0C137.872,215.088,138.581,218.534,137.662,220.354
			z M140.688,220.785c0.229-2.653-0.494-6.259,0.433-8.214c-0.433,0-0.865,0-1.297,0
			C140.318,214.274,137.896,219.677,140.688,220.785z M157.117,225.974c-1.486,2.015-4.359,5.307-6.917,6.051
			c-4.049,1.183-6.491-1.504-10.375-1.728c-5.265-0.303-8.873,3.429-13.402,1.728c-1.714-0.643-4.04-2.772-5.188-3.89
			c-3.94-3.83-7.053-9.221-11.241-12.97c1.597,4.59,5.156,7.406,7.35,10.809c2.881,4.468,4.384,10.018,10.375,10.809
			c3.52,0.464,5.973-1.549,9.079-1.729c2.358-0.138,4.565,0.774,6.917,0.864c7.88,0.297,11.133-4.56,14.699-9.943
			c2.367-3.577,6.451-7.937,4.755-12.97C161.852,217.84,159.63,222.566,157.117,225.974z M124.693,219.92
			c0.568,0.441,1.593,0.425,2.162,0.865c0.37-1.398-2.227-3.13-2.162-5.62C123.563,216.512,125.154,217.906,124.693,219.92z
			 M117.775,221.218c0.829-1.045,0.273-3.474,0.433-5.188c-1.528,0.634-1.025,3.298-1.297,5.188c1.456,1.282,2.32,3.156,4.323,3.891
			c-0.139-2.383,0.935-3.446-0.865-4.323c-0.357,1.128,1.308,2.371,0,3.026c-1.524-1.646,0.93-7.271-1.296-8.213
			C117.709,216.539,119.857,220.993,117.775,221.218z M116.479,219.056c-0.262-0.891,0.697-3.003-0.865-2.593
			C115.015,217.055,115.202,219.07,116.479,219.056z M114.75,219.056c0.354-1.65-0.92-1.673-1.729-2.161
			C113.049,218.162,114.008,218.501,114.75,219.056z M154.522,227.703c1.38-1.568-0.075-6.112,0.433-9.512
			c-0.095-0.336-0.362-0.503-0.865-0.432C153.782,221.782,152.453,225.137,154.522,227.703z M156.251,225.541
			c-0.322-1.927,1.307-7.054-0.432-7.781C155.33,220.343,155.115,223.551,156.251,225.541z M157.549,223.812
			c1.105-1.201,1.491-3.12,1.297-5.62c-0.577,0-1.153,0-1.729,0C157.657,220.61,155.813,222.725,157.549,223.812z M159.278,219.488
			c1.162,0.298,0.835-0.893,1.297-1.297c-0.432,0-0.864,0-1.297,0C159.278,218.624,159.278,219.056,159.278,219.488z
			 M130.313,219.92c-0.865,0-1.729,0-2.594,0C127.79,221.175,130.758,221.754,130.313,219.92z M138.959,221.218
			c-2.6-0.172-3.482,4.313-6.917,5.62c-3.994,1.519-5.686-0.693-9.944,0.865c2.247,2.364,5.364,3.858,9.944,3.891
			c4.47-5.088,12.007,0.612,16.427,0c1.327-0.183,6.077-3.3,4.324-3.891c-3.096,1.227-6.271-0.444-9.079-0.865
			C141.77,225.006,141.345,221.376,138.959,221.218z M122.963,226.405c-0.356-1.084,0.841-3.722-0.865-3.458
			C122.233,224.255,121.619,226.31,122.963,226.405z M125.125,226.838c0-1.008,0-2.018,0-3.026
			c-0.595,0.019-0.949-0.203-1.297-0.432C124.14,225.289,122.358,227.054,125.125,226.838z M125.99,226.838
			c1.635,0.371,1.529-1.937,0.864-2.594c-0.432,0-0.864,0-1.296,0C125.846,225.917,125.559,225.781,125.99,226.838z
			 M204.239,252.344c0.542-1.947,2.128-4.404,0-5.62C204.22,247.543,203.165,250.742,204.239,252.344z M195.594,179.283
			c0.87,9.216,3.959,16.214,12.536,17.726C206.226,188.825,202.239,182.725,195.594,179.283z M195.161,177.986
			c1.825,0.913,3.238,2.238,4.756,3.459c7.126-1.232,12.278-4.438,16.428-8.647c-7.69-0.38-11.39-4.75-15.563-8.646
			c-1.229-8.724-17.578-6.047-25.94-9.079C180.709,163.616,189.393,169.343,195.161,177.986z M173.977,154.641
			c9.264,1.834,20.688,1.504,27.236,6.053c2.029-1.141,4.126-2.214,4.756-4.755c-2.365,0.708-5.658,0.121-6.918-0.433
			c-6.514-2.865-12.019-6.887-20.751-7.782c-3.079-0.315-7.58,0.508-10.375-0.433C169.167,150.518,172.136,152.015,173.977,154.641z
			 M205.537,155.073c-2.097-2.662-8.01-3.804-12.105-3.026C196.836,153.437,200.418,156.825,205.537,155.073z M219.371,171.069
			c-0.969-8.398-10.635-8.099-18.157-9.944C203.543,167.735,211.723,173.922,219.371,171.069z"/>
		<path fill-rule="evenodd" clip-rule="evenodd" d="M97.024,152.047c2.869,1.743,7.205,2.018,10.375,3.458
			C104.821,155.197,98.658,154.741,97.024,152.047z"/>
		<path fill-rule="evenodd" clip-rule="evenodd" d="M109.129,159.396c-5.686,0.927-11.912-1.344-13.834-5.62
			c-0.319-0.905,2.354,2.099,3.026,3.026C101.389,158.202,104.987,159.071,109.129,159.396z"/>
		<path fill-rule="evenodd" clip-rule="evenodd" d="M145.012,208.249c1.14-0.132,1.114,0.902,1.296,1.729
			C145.979,209.298,144.938,209.331,145.012,208.249z"/>
		<path fill-rule="evenodd" clip-rule="evenodd" d="M117.343,321.516c0.14,2.599,2.138,3.339,3.026,5.188
			c3.56-1.038,6.812,1.781,9.079,3.459c-2.909-0.106-5.97-4.334-9.511-3.027c-1.15-1.73-2.777-2.986-3.458-5.188
			c-1.315-0.847-4.498,0.175-5.188-1.296c-1.352,0.554,2.041,2.213,0.865,2.593c-1.6,0.304-1.079-1.516-1.729-2.162
			c-1.882-0.617-1.988,1.478-3.027,0.433c0.606-0.69,1.49-1.104,2.594-1.297c-1.045-2.702-3.213-4.28-7.349-3.891
			c-0.91-3.67-5.038-5.832-8.647-4.323c-0.298-1.162,0.894-0.837,1.297-1.297c-0.574-4.902-6.028-4.925-6.485-9.943
			c-0.701-1.317-2.194-1.842-3.458-2.595c-0.65-3.962-0.706-8.518-4.756-9.078c0.191-1.633-0.852-2.03-1.297-3.025
			c-0.162-1.643,1.689-5.051-0.864-5.188c-1.831-0.39-0.44,2.441-2.162,2.162c-0.183-2.057,1.518-2.229,2.162-3.459
			c-1.697-0.896-1.187-4.001-3.459-4.323c1.424,2.133,0.62,5.479,0.864,9.512c1.024,0.993,2.872,1.163,2.595,3.458
			c-1.749-0.414-1.88-2.443-3.459-3.026c0.909-7.123-2.102-10.041-1.297-15.995c2.582,0.503-0.443,3.624,0.865,5.187
			c2.533-1.032,1.895-3.253,1.296-5.62c2.171,1.259,1.461,3.575,0.433,5.62c1.228,4.055,5.643,5.917,3.89,11.674
			c2.007,3.47,6.138,4.814,5.621,10.808c0.623,1.394,2.116,1.918,3.458,2.594c0.288,5.766,6.07,6.034,6.917,11.24
			c0.865,0,1.729,0,2.594,0c0.08,0.368-0.168,0.408-0.432,0.433c1.513,0.112,3.903,2.201,4.755,4.323
			C110.307,315.007,109.878,322.208,117.343,321.516z"/>
		<path fill-rule="evenodd" clip-rule="evenodd" d="M172.248,330.594c-0.383-1.652-2.414,0.361-2.161-1.296
			c4.683-0.193,11.212-1.181,12.537-6.053c1.817,0.089,1.814-1.643,3.459-1.729c2.377-4.829,7.285-7.124,9.512-12.105
			c-0.153-0.566-0.763-0.68-0.866-1.296c-1.606-0.165-1.13,1.752-3.025,1.296c2.136-3.103,3.524-0.324,5.62-2.16
			c-1.876,6.769-7.879,9.415-10.809,15.13c-3.625,0.21-4.397,4.268-6.917,6.053c-3.051,2.162-7.57,2.353-10.376,5.188
			c-5.721-1.399-9.348,4.163-14.699,3.025c-2.466,1.712-6.814,3.251-9.51,1.297c-2.262,2.488-9.204,1.309-11.24-0.431
			c-1.768,1.25-5.022,0.541-6.485-0.866c-7.816,0.562-13.533-4.589-20.319-6.483c-1.609-2.771-2.705-3.375-6.052-4.324
			c-0.221-1.221-1.046-1.836-1.297-3.025c-3.708-0.177-5.109-4.004-6.052-5.62c-0.502-0.363-1.159-0.571-2.162-0.434
			c-0.33-1.254-2.049-1.121-1.729-3.026c-1.042,0.177-0.939-0.789-2.162-0.431c-1.77-5.004-5.767-7.779-7.35-12.971
			c1.222-0.068,1.007,1.299,2.162,1.298c0.004,1.147-0.164,2.469,0.432,3.025c3.665,1.668,2.918,7.746,7.782,8.214
			c0.03,1.267,0.157,2.438,1.729,2.161c1.149-1.109-0.832-0.618-0.865-1.728c-0.322-1.332,1.187-0.832,0.865-2.162
			c1.515,0.558-1.371,3.198,2.161,3.025c0.159,1.312-1.408,0.897-2.161,1.298c1.573,1.597,3.917,2.422,4.755,4.755
			c1.046-0.393-0.98-1.275-0.432-2.595c1.54,0.047,0.989,2.183,2.594,2.162c1.102-0.05,2.224-0.081,2.161-1.296
			c0.901,0.828,1.801,1.656,2.162,3.025c-0.642-0.51-1.932-0.373-1.729-1.729c-1.375,0.066-1.901,0.979-3.458,0.866
			c0.802,1.503,3.16,1.45,3.026,3.89c2.429,1.029,5.046,1.871,5.62,4.756c5.149,0.327,6.415,4.537,12.105,4.323
			c2.217,3.057,9.75,2.812,13.402,3.025c1.109-0.043,0.695-1.61,1.297-2.161c1.267,0.366-0.259,1.393,0,2.161
			c2.872,1.594,8.925,3.214,11.24,0.433c1.179-0.313,0.87,0.859,1.729,0.864c2.817,0.079,5.413-0.062,6.485-1.729
			c5.656,0.037,9.021-2.22,12.97-3.892C168.538,333.056,171.417,332.582,172.248,330.594z"/>
		<path fill-rule="evenodd" clip-rule="evenodd" d="M84.919,302.494c0.177,1.041-0.79,0.938-0.432,2.161
			c1.613,0.981,4.978,0.21,4.755,3.026c-1.021-1.141-2.264-2.059-4.755-1.729C84.145,304.951,82.507,302.551,84.919,302.494z"/>
		<path fill-rule="evenodd" clip-rule="evenodd" d="M97.024,314.166c0.913,0.386,1.277,1.316,2.594,1.298
			C99.188,317.156,97.368,315.158,97.024,314.166z"/>
		<path fill-rule="evenodd" clip-rule="evenodd" d="M186.083,315.896c1.179-0.314,0.87,0.858,1.729,0.864
			c-1.513,0.47-4.111,2.907-6.485,0.434c0.083-0.351,0.435-0.432,0.434-0.865c0.367,0.08,0.406-0.168,0.433-0.433
			c0.8,0.065,0.265,1.464,0.864,1.729c0.72,0,1.441,0,2.162,0C185.797,317.341,186.022,316.701,186.083,315.896z"/>
		<path fill-rule="evenodd" clip-rule="evenodd" d="M172.681,321.083c0.569,1.734-3.529,2.516-6.054,2.595
			c-1.761,0.636-1.3,2.768-3.458,3.458c-2.358,0.757-5.472-1.049-7.782,0c0.831,0.352,1.771,2.803,3.027,1.297
			c1.285,1.435-2.588,1.719-2.595,0c-1.442-0.001-1.475,1.406-3.025,1.297c-0.132-1.14,0.901-1.115,1.728-1.297
			c-4.836,0.883-12.38-2.155-14.698,2.595c-3.32-0.068-6.293-1.551-9.511-0.434c1.536-2.623,5.767-0.348,8.646-0.431
			c1.784-0.811,3.066-2.122,4.755-3.027c4.485,1.521,9.155,0.625,12.537-1.297c2.153,1.062,6.679,1.142,6.485-0.864
			c0.959-0.238,0.615,0.825,1.297,0.864C164.653,321.99,170.649,323.52,172.681,321.083z"/>
		<path fill-rule="evenodd" clip-rule="evenodd" d="M177.003,323.678c1.136,0.614-0.911,1.643-1.729,1.729
			c-0.547-0.578-1.3-0.85-0.435-1.729C175.134,324.534,176.805,325.052,177.003,323.678z"/>
	</g>
	<g>
		<path d="M249.705,211.861h0.83v5.666h2.715v0.688h-3.545V211.861z"/>
		<path d="M257.349,217.122c0,0.396,0.02,0.782,0.066,1.094h-0.744l-0.076-0.575h-0.028c-0.245,0.358-0.744,0.679-1.395,0.679
			c-0.925,0-1.396-0.651-1.396-1.311c0-1.104,0.979-1.707,2.743-1.697v-0.094c0-0.377-0.104-1.065-1.037-1.057
			c-0.434,0-0.877,0.123-1.197,0.34l-0.188-0.557c0.377-0.234,0.934-0.396,1.508-0.396c1.405,0,1.744,0.952,1.744,1.866V217.122z
			 M256.54,215.887c-0.906-0.019-1.934,0.142-1.934,1.027c0,0.548,0.358,0.793,0.773,0.793c0.604,0,0.989-0.377,1.121-0.765
			c0.029-0.084,0.039-0.179,0.039-0.264V215.887z"/>
		<path d="M258.688,215.076c0-0.537-0.01-1-0.038-1.424h0.726l0.038,0.896h0.028c0.208-0.612,0.717-0.999,1.272-0.999
			c0.085,0,0.15,0.009,0.227,0.028v0.773c-0.095-0.01-0.179-0.019-0.292-0.019c-0.585,0-0.999,0.442-1.112,1.056
			c-0.019,0.122-0.028,0.254-0.028,0.396v2.433h-0.83L258.688,215.076z"/>
		<path d="M262.289,213.652l0.989,2.697c0.113,0.301,0.227,0.659,0.302,0.933h0.019c0.085-0.273,0.18-0.622,0.293-0.952l0.904-2.678
			h0.877l-1.244,3.253c-0.594,1.565-0.999,2.366-1.565,2.865c-0.414,0.35-0.811,0.49-1.018,0.528l-0.207-0.697
			c0.207-0.057,0.479-0.189,0.725-0.405c0.227-0.18,0.5-0.5,0.698-0.925c0.037-0.085,0.066-0.141,0.066-0.197
			c0-0.048-0.02-0.113-0.066-0.207l-1.678-4.215H262.289z"/>
		<path d="M266.426,214.888c0-0.481-0.009-0.858-0.037-1.235h0.735l0.047,0.745h0.019c0.227-0.424,0.754-0.849,1.509-0.849
			c0.631,0,1.611,0.377,1.611,1.942v2.725h-0.828v-2.63c0-0.735-0.274-1.358-1.057-1.358c-0.537,0-0.962,0.387-1.112,0.849
			c-0.038,0.104-0.057,0.255-0.057,0.387v2.753h-0.83V214.888z"/>
		<path d="M275.561,217.546c0,1.057-0.217,1.688-0.65,2.093c-0.453,0.405-1.094,0.547-1.669,0.547c-0.547,0-1.149-0.132-1.518-0.377
			l0.207-0.642c0.302,0.199,0.772,0.368,1.339,0.368c0.849,0,1.471-0.442,1.471-1.603v-0.5h-0.019
			c-0.245,0.425-0.745,0.765-1.452,0.765c-1.131,0-1.942-0.962-1.942-2.234c0-1.547,1.009-2.414,2.065-2.414
			c0.791,0,1.216,0.406,1.423,0.783h0.019l0.029-0.68h0.735c-0.029,0.321-0.038,0.688-0.038,1.245V217.546z M274.732,215.443
			c0-0.132-0.01-0.255-0.048-0.367c-0.15-0.49-0.547-0.887-1.159-0.887c-0.792,0-1.358,0.67-1.358,1.735
			c0,0.886,0.463,1.64,1.349,1.64c0.519,0,0.98-0.32,1.15-0.857c0.048-0.132,0.066-0.292,0.066-0.443V215.443z"/>
		<path d="M278.784,218.319c-1.226,0-2.187-0.905-2.187-2.348c0-1.527,1.009-2.423,2.263-2.423c1.31,0,2.195,0.952,2.195,2.338
			c0,1.697-1.178,2.433-2.262,2.433H278.784z M278.812,217.697c0.792,0,1.387-0.744,1.387-1.782c0-0.772-0.388-1.744-1.367-1.744
			c-0.972,0-1.396,0.905-1.396,1.772c0,0.999,0.566,1.754,1.367,1.754H278.812z"/>
		<path d="M281.989,217.377c0.255,0.15,0.688,0.32,1.104,0.32c0.594,0,0.877-0.293,0.877-0.679c0-0.396-0.236-0.613-0.84-0.84
			c-0.83-0.301-1.216-0.745-1.216-1.291c0-0.735,0.604-1.339,1.574-1.339c0.463,0,0.867,0.122,1.112,0.283l-0.198,0.594
			c-0.179-0.104-0.509-0.265-0.933-0.265c-0.49,0-0.754,0.283-0.754,0.623c0,0.386,0.264,0.557,0.857,0.782
			c0.782,0.292,1.197,0.688,1.197,1.376c0,0.812-0.632,1.377-1.696,1.377c-0.5,0-0.962-0.133-1.283-0.32L281.989,217.377z"/>
		<path d="M289.088,218.055c-0.218,0.104-0.698,0.265-1.312,0.265c-1.376,0-2.271-0.934-2.271-2.338
			c0-1.405,0.962-2.433,2.451-2.433c0.49,0,0.924,0.122,1.15,0.245l-0.188,0.632c-0.198-0.104-0.51-0.217-0.962-0.217
			c-1.047,0-1.612,0.782-1.612,1.734c0,1.056,0.679,1.706,1.585,1.706c0.47,0,0.782-0.113,1.018-0.217L289.088,218.055z"/>
		<path d="M291.86,218.319c-1.226,0-2.187-0.905-2.187-2.348c0-1.527,1.009-2.423,2.263-2.423c1.31,0,2.195,0.952,2.195,2.338
			c0,1.697-1.178,2.433-2.262,2.433H291.86z M291.888,217.697c0.792,0,1.386-0.744,1.386-1.782c0-0.772-0.387-1.744-1.367-1.744
			c-0.971,0-1.396,0.905-1.396,1.772c0,0.999,0.566,1.754,1.367,1.754H291.888z"/>
		<path d="M295.178,215.143c0-0.585-0.009-1.056-0.038-1.49h0.745l0.047,0.782h0.02c0.33-0.565,0.876-0.886,1.611-0.886
			c1.113,0,1.942,0.934,1.942,2.319c0,1.641-1.009,2.451-2.074,2.451c-0.612,0-1.131-0.265-1.404-0.717h-0.02v2.479h-0.829V215.143z
			 M296.007,216.358c0,0.113,0.01,0.236,0.038,0.34c0.142,0.574,0.65,0.97,1.235,0.97c0.877,0,1.386-0.715,1.386-1.763
			c0-0.914-0.472-1.696-1.349-1.696c-0.565,0-1.103,0.396-1.263,1.019c-0.019,0.113-0.048,0.235-0.048,0.339V216.358z"/>
		<path d="M301.022,216.076c0.019,1.122,0.726,1.583,1.555,1.583c0.595,0,0.962-0.104,1.264-0.227l0.15,0.585
			c-0.292,0.132-0.801,0.292-1.526,0.292c-1.396,0-2.244-0.933-2.244-2.3c0-1.386,0.82-2.471,2.149-2.471
			c1.489,0,1.877,1.312,1.877,2.149c0,0.17-0.011,0.303-0.029,0.396L301.022,216.076z M303.445,215.481
			c0.009-0.518-0.218-1.348-1.141-1.348c-0.849,0-1.207,0.772-1.272,1.348H303.445z"/>
		<path d="M249.68,221.049h0.829v2.856h0.019c0.293-0.51,0.821-0.829,1.557-0.829c1.131,0,1.923,0.942,1.923,2.318
			c0,1.641-1.037,2.451-2.055,2.451c-0.66,0-1.179-0.254-1.527-0.857h-0.019l-0.048,0.754h-0.717
			c0.029-0.311,0.038-0.772,0.038-1.178V221.049z M250.509,225.913c0,0.104,0.01,0.208,0.029,0.302
			c0.16,0.576,0.65,0.972,1.244,0.972c0.877,0,1.386-0.707,1.386-1.754c0-0.924-0.472-1.706-1.357-1.706
			c-0.566,0-1.094,0.396-1.254,1.018c-0.029,0.104-0.048,0.217-0.048,0.35V225.913z"/>
		<path d="M255.044,221.049h0.829v6.693h-0.829V221.049z"/>
		<path d="M260.464,226.648c0,0.396,0.02,0.783,0.066,1.094h-0.744l-0.076-0.574h-0.028c-0.245,0.357-0.744,0.678-1.395,0.678
			c-0.925,0-1.396-0.65-1.396-1.311c0-1.103,0.979-1.706,2.743-1.696v-0.095c0-0.377-0.104-1.064-1.037-1.056
			c-0.434,0-0.877,0.123-1.197,0.339l-0.188-0.556c0.377-0.235,0.934-0.396,1.508-0.396c1.405,0,1.744,0.951,1.744,1.866V226.648z
			 M259.655,225.413c-0.906-0.019-1.934,0.143-1.934,1.028c0,0.547,0.358,0.792,0.773,0.792c0.604,0,0.989-0.377,1.121-0.764
			c0.029-0.085,0.039-0.18,0.039-0.264V225.413z"/>
		<path d="M265.735,221.049v5.516c0,0.405,0.009,0.867,0.037,1.178h-0.744l-0.039-0.792h-0.019c-0.255,0.51-0.801,0.896-1.546,0.896
			c-1.103,0-1.961-0.934-1.961-2.319c-0.01-1.527,0.943-2.45,2.046-2.45c0.707,0,1.179,0.329,1.377,0.688h0.019v-2.715H265.735z
			 M264.905,225.036c0-0.112-0.01-0.245-0.037-0.357c-0.123-0.52-0.576-0.952-1.198-0.952c-0.857,0-1.367,0.754-1.367,1.753
			c0,0.933,0.463,1.697,1.349,1.697c0.556,0,1.064-0.377,1.217-0.989c0.027-0.113,0.037-0.227,0.037-0.358V225.036z"/>
		<path d="M267.581,225.603c0.019,1.122,0.727,1.584,1.556,1.584c0.595,0,0.962-0.104,1.264-0.227l0.15,0.585
			c-0.292,0.132-0.801,0.292-1.526,0.292c-1.396,0-2.244-0.934-2.244-2.301c0-1.386,0.819-2.47,2.149-2.47
			c1.489,0,1.876,1.311,1.876,2.149c0,0.169-0.01,0.302-0.028,0.396L267.581,225.603z M270.004,225.008
			c0.009-0.518-0.218-1.348-1.141-1.348c-0.849,0-1.207,0.773-1.273,1.348H270.004z"/>
		<path d="M277.044,226.648c0,0.396,0.019,0.783,0.066,1.094h-0.744l-0.076-0.574h-0.028c-0.245,0.357-0.744,0.678-1.395,0.678
			c-0.925,0-1.396-0.65-1.396-1.311c0-1.103,0.979-1.706,2.743-1.696v-0.095c0-0.377-0.104-1.064-1.037-1.056
			c-0.434,0-0.877,0.123-1.197,0.339l-0.188-0.556c0.377-0.235,0.934-0.396,1.508-0.396c1.405,0,1.744,0.951,1.744,1.866V226.648z
			 M276.235,225.413c-0.906-0.019-1.934,0.143-1.934,1.028c0,0.547,0.358,0.792,0.773,0.792c0.604,0,0.989-0.377,1.121-0.764
			c0.029-0.085,0.039-0.18,0.039-0.264V225.413z"/>
		<path d="M278.374,224.414c0-0.48-0.009-0.857-0.037-1.234h0.734l0.048,0.744h0.019c0.227-0.424,0.754-0.848,1.509-0.848
			c0.631,0,1.611,0.377,1.611,1.941v2.725h-0.829v-2.63c0-0.735-0.273-1.358-1.056-1.358c-0.537,0-0.962,0.387-1.112,0.849
			c-0.038,0.104-0.057,0.255-0.057,0.387v2.753h-0.83V224.414z"/>
		<path d="M287.545,221.049v5.516c0,0.405,0.01,0.867,0.038,1.178h-0.744l-0.038-0.792h-0.02c-0.255,0.51-0.801,0.896-1.546,0.896
			c-1.103,0-1.961-0.934-1.961-2.319c-0.01-1.527,0.943-2.45,2.046-2.45c0.707,0,1.179,0.329,1.377,0.688h0.019v-2.715H287.545z
			 M286.716,225.036c0-0.112-0.01-0.245-0.037-0.357c-0.123-0.52-0.576-0.952-1.198-0.952c-0.857,0-1.367,0.754-1.367,1.753
			c0,0.933,0.463,1.697,1.349,1.697c0.556,0,1.064-0.377,1.217-0.989c0.027-0.113,0.037-0.227,0.037-0.358V225.036z"/>
		<path d="M290.92,221.049h0.829v2.856h0.019c0.293-0.51,0.821-0.829,1.557-0.829c1.131,0,1.923,0.942,1.923,2.318
			c0,1.641-1.037,2.451-2.055,2.451c-0.661,0-1.18-0.254-1.527-0.857h-0.02l-0.047,0.754h-0.717
			c0.028-0.311,0.038-0.772,0.038-1.178V221.049z M291.75,225.913c0,0.104,0.01,0.208,0.028,0.302
			c0.161,0.576,0.651,0.972,1.244,0.972c0.877,0,1.387-0.707,1.387-1.754c0-0.924-0.472-1.706-1.357-1.706
			c-0.566,0-1.094,0.396-1.254,1.018c-0.029,0.104-0.048,0.217-0.048,0.35V225.913z"/>
		<path d="M300.101,226.498c0,0.472,0.01,0.886,0.039,1.244h-0.735l-0.048-0.745h-0.019c-0.208,0.368-0.697,0.849-1.509,0.849
			c-0.717,0-1.575-0.405-1.575-1.998v-2.668h0.83v2.518c0,0.867,0.273,1.46,1.019,1.46c0.557,0,0.943-0.387,1.094-0.764
			c0.047-0.113,0.075-0.264,0.075-0.424v-2.79h0.829V226.498z"/>
		<path d="M301.477,221.049h0.83v6.693h-0.83V221.049z"/>
		<path d="M303.683,221.049h0.83v2.856h0.019c0.292-0.51,0.82-0.829,1.556-0.829c1.131,0,1.924,0.942,1.924,2.318
			c0,1.641-1.038,2.451-2.056,2.451c-0.66,0-1.179-0.254-1.527-0.857h-0.019l-0.048,0.754h-0.716
			c0.028-0.311,0.037-0.772,0.037-1.178V221.049z M304.513,225.913c0,0.104,0.01,0.208,0.028,0.302
			c0.16,0.576,0.65,0.972,1.244,0.972c0.877,0,1.386-0.707,1.386-1.754c0-0.924-0.472-1.706-1.357-1.706
			c-0.565,0-1.094,0.396-1.254,1.018c-0.028,0.104-0.047,0.217-0.047,0.35V225.913z"/>
	</g>
</g>
</svg>
