<?xml version="1.0" encoding="utf-8"?>
<!-- Generator: Adobe Illustrator 15.1.0, SVG Export Plug-In . SVG Version: 6.00 Build 0)  -->
<!DOCTYPE svg PUBLIC "-//W3C//DTD SVG 1.1//EN" "http://www.w3.org/Graphics/SVG/1.1/DTD/svg11.dtd">
<svg version="1.1" id="Layer_1" xmlns="http://www.w3.org/2000/svg" xmlns:xlink="http://www.w3.org/1999/xlink" x="0px" y="0px"
	 width="326.286px" height="359.338px" viewBox="0 0 326.286 359.338" enable-background="new 0 0 326.286 359.338"
	 xml:space="preserve">
<metadata><?xpacket begin="﻿" id="W5M0MpCehiHzreSzNTczkc9d"?>
<x:xmpmeta xmlns:x="adobe:ns:meta/" x:xmptk="Adobe XMP Core 5.0-c060 61.134777, 2010/02/12-17:32:00        ">
   <rdf:RDF xmlns:rdf="http://www.w3.org/1999/02/22-rdf-syntax-ns#">
      <rdf:Description rdf:about=""
            xmlns:dc="http://purl.org/dc/elements/1.1/">
         <dc:format>image/svg+xml</dc:format>
         <dc:title>
            <rdf:Alt>
               <rdf:li xml:lang="x-default">Print</rdf:li>
            </rdf:Alt>
         </dc:title>
      </rdf:Description>
      <rdf:Description rdf:about=""
            xmlns:xmp="http://ns.adobe.com/xap/1.0/"
            xmlns:xmpGImg="http://ns.adobe.com/xap/1.0/g/img/">
         <xmp:MetadataDate>2014-08-10T13:10:26+02:00</xmp:MetadataDate>
         <xmp:ModifyDate>2014-08-10T13:10:26+02:00</xmp:ModifyDate>
         <xmp:CreateDate>2014-08-10T13:10:26+02:00</xmp:CreateDate>
         <xmp:CreatorTool>Adobe Illustrator CS5</xmp:CreatorTool>
         <xmp:Thumbnails>
            <rdf:Alt>
               <rdf:li rdf:parseType="Resource">
                  <xmpGImg:width>232</xmpGImg:width>
                  <xmpGImg:height>256</xmpGImg:height>
                  <xmpGImg:format>JPEG</xmpGImg:format>
                  <xmpGImg:image>/9j/4AAQSkZJRgABAgEBMAEwAAD/7QAsUGhvdG9zaG9wIDMuMAA4QklNA+0AAAAAABABMMzNAAEA&#xA;AQEwzM0AAQAB/+4ADkFkb2JlAGTAAAAAAf/bAIQABgQEBAUEBgUFBgkGBQYJCwgGBggLDAoKCwoK&#xA;DBAMDAwMDAwQDA4PEA8ODBMTFBQTExwbGxscHx8fHx8fHx8fHwEHBwcNDA0YEBAYGhURFRofHx8f&#xA;Hx8fHx8fHx8fHx8fHx8fHx8fHx8fHx8fHx8fHx8fHx8fHx8fHx8fHx8fHx8f/8AAEQgBAADoAwER&#xA;AAIRAQMRAf/EAaIAAAAHAQEBAQEAAAAAAAAAAAQFAwIGAQAHCAkKCwEAAgIDAQEBAQEAAAAAAAAA&#xA;AQACAwQFBgcICQoLEAACAQMDAgQCBgcDBAIGAnMBAgMRBAAFIRIxQVEGE2EicYEUMpGhBxWxQiPB&#xA;UtHhMxZi8CRygvElQzRTkqKyY3PCNUQnk6OzNhdUZHTD0uIIJoMJChgZhJRFRqS0VtNVKBry4/PE&#xA;1OT0ZXWFlaW1xdXl9WZ2hpamtsbW5vY3R1dnd4eXp7fH1+f3OEhYaHiImKi4yNjo+Ck5SVlpeYmZ&#xA;qbnJ2en5KjpKWmp6ipqqusra6voRAAICAQIDBQUEBQYECAMDbQEAAhEDBCESMUEFURNhIgZxgZEy&#xA;obHwFMHR4SNCFVJicvEzJDRDghaSUyWiY7LCB3PSNeJEgxdUkwgJChgZJjZFGidkdFU38qOzwygp&#xA;0+PzhJSktMTU5PRldYWVpbXF1eX1RlZmdoaWprbG1ub2R1dnd4eXp7fH1+f3OEhYaHiImKi4yNjo&#xA;+DlJWWl5iZmpucnZ6fkqOkpaanqKmqq6ytrq+v/aAAwDAQACEQMRAD8A9U4q7FXYq7FXYq7FXYq7&#xA;FXYq7FXYqkk76rqmoXVnbXP6PsLGRYbmeIBrqWRokm4oXUxxIFlWrUZjvThQMVVRfKHlrrPp8V5L&#xA;/wAtF6DdzHalPVuPUkp7Vpiq2Tyloqjnp0I0m6FeF1p4W3cH/LVR6coB34yqy+2KojRL+5uoriC8&#xA;Ci+sJjbXZjBEbMEWVZEBJIDxyo3Ek8SeNTSpVTHFXYq7FXYq7FXYq7FXYq7FXYq7FXYq7FXYq7FX&#xA;Yq7FXYq7FXYq7FXYq7FXYq7FUq0b/jo69/zHJ/1A22KprirsVSnSaNrGuOtAq3EMTAd3W1icsfms&#xA;ij6MVTbFXYq7FXYq7FXYq7FXYq7FXYq7FXYq7FXYq7FXYq7FXYq7FXYq7FXYq7FXYq7FWDazdaxH&#xA;5g1Cys+ccd5LahIYXWOa5mkgav75uX1eFYrZvUkCmQhaR0YDkqi4vIzSfHdpppkbcv8AUvrM9T2k&#xA;ubqWZ5afzFVJ/DFVOfyjf2KmfTY7XmlWCacjaXcuRuCXSSS2mYfspNFwJ6kDFUV5Au5r6y1HUHuB&#xA;dxXd4JLe7CekZY1tLeOrx1YLIjxskgG3NTsv2QqyjFXYq7FXYq7FXYq7FXYq7FXYq7FXYq7FXYq7&#xA;FXYq7FXYq7FXYq7FXYq7FXYq7FUj1Sysh5n0XUGgj+tH17VbrgPUoYmlEfOnLjRGPhiqeYq7FUq8&#xA;r1GjJGesE1zAx7Ew3EkZI+ZXFU1xV2KuxV2KuxV2KuxV2KuxV2KuxV2KuxV2KuxV2KuxV2KuxV2K&#xA;uxV2KuxV2KuxVKtar+ktB/5jnr/0g3WKprirsVSryz/xzZu3+nah/wBR02KprirsVdirsVdirsVd&#xA;irsVdirsVdirsVdirsVdirsVdirsVdirsVdirsVdirsVdiqVa1X9JaD/AMxz1/6QbrFU1xV2KpH5&#xA;evrKKxnSW4jjcX2oVVnVTvfTdicVTP8ASem/8tcP/IxP64q79J6b/wAtcP8AyMT+uKu/Sem/8tcP&#xA;/IxP64q79J6b/wAtcP8AyMT+uKu/Sem/8tcP/IxP64q79J6b/wAtcP8AyMT+uKu/Sem/8tcP/IxP&#xA;64q79J6b/wAtcP8AyMT+uKohHR0DowZGFVYGoI9iMVY/qHnjRdLkuRqb/VY4dRh0uNyQfUlmtorh&#xA;WC7GgE29K0pXpiqWN+bXlURIwjvWmkiW4itRbP6zwOUWOVU7o7SgKe+/YYqtf84vJKOwaa4EQk9M&#xA;T/VpfTYKsjSyA0/u4lt5C7U24/LFVe4/NLytDJOgF3MbYhJ/RtpHKu9ybOKMgCvOW4Uoi0rXrQYq&#xA;pTfm/wCRYoZ5mu5DHGiyQMsEp+shxGf9GHGspX14+QXcchXFWaYq7FXYq7FXYq7FXYq7FXYq7FXY&#xA;qlWvCkmlSDZ476PgfDmjxt96ORiqa4q7FUq8skHTZqf8t2of9R02KprirsVdirsVdirsVdirsVdi&#xA;qV3flTyteXb3l5o9jc3kjJJJczW0LyM8ahUZnZSxKqoAPYYq1D5X0GK7kuhZxtI8UFuiOoaOKG1q&#xA;YY4YyOEaqXLfCOvyFFUBH+XPksX99fTaTb3c2oNA04uo0mjH1VWSARxuCiemrkAgVpt0Aoqj7jyn&#xA;5VuYRDcaNYzQr6nGOS2hZR6xDS0BUj4yoLeNN8VUbbyR5QtjdGLRrMfXQqXIMERDxxhQkRqv92np&#xA;rxT7Iptiqd4q7FXYq7FXYq7FXYq7FXYq7FXYqlPmf/jnQ7Vpf6fT/pOhxVNsVdiqVeWf+OdN/wAx&#xA;2of9R02KprirsVdirsVdirsVdirsVdirsVdirsVdirsVdirsVdirsVdirsVdirsVdirsVdiqU+aN&#xA;tKVzssV3ZSyEdkjvInc/QqnFU2xV2KpV5Z/4503/ADHah/1HTYqmuKuxV2KuxV2KuxV2KuxV2Kux&#xA;V2KuxV2KuxV2KuxV2KuxV2KuxV2KuxV2KuxV2KsO/OLWbrRfyx8xaracfrNpaGSHluAwZQD9HbFU&#xA;3j84aA8aTGWaG2koVu57W5gt6MKq3ryxpFRux5UP04qnWKpV5Z/4503/ADHah/1HTYqmuKuxV2Ku&#xA;xV2KuxV2KuxV2KuxV2KuxV2KuxV2KuxV2KuxV2KuxV2KuxV2KuxVD6hqNlp1o93eyiG3TiC5qas7&#xA;BUVVFWZmYhVUCpOw3xViXl/VLnzhq11c3dp9X0LSZQllaS0Z5rtS4aW4FSo9MBWiQVHxB+RbiEVZ&#xA;nJHHLG0cih43BV0YAqykUIIPUHFWMeTL+WF7nQZ4wqWUtwNLlUlkks4rh4ljBNTztl9NH3PVd61A&#xA;Vb8ua7FB6tlfwvaCbUb9LG6ehgnY303wBx9iT/IcDl+xy3oqyjFXYq7FXYq7FXYq7FXYq7FXYq7F&#xA;XYq7FXYq7FXYq7FXYq7FXYq7FXYq7FUv1XW7PTjHEwae+uK/VLCEBp5ePXipIAUVHJ2IVe5GKpBq&#xA;dtqYSG6vplHmC/c2mjW0R5wWLyo3qSoGAEssUKu7SOBUAonEMQyqN/L+2sYfKtm9pQC4BllWtWjc&#xA;mnoOevK3VRCeXxDhQ7jFU7v761sLKe9u39O2t0aSV6E0VRU7DcnwA64qx3Qra6g1LSluk4XcllqN&#xA;3eRDcRS3t3BOYqgn7LMyr48cVR2i2VreaJdWt3EtxbTXuorJFIAysPr0xoQcVb0e4urK/fQr6Vp2&#xA;SMz6ZdyHk81srBXRz1MkDMqsx+0rK27cqKp1irsVdirsVdirsVdirsVdirsVdirsVdirsVdirsVd&#xA;irsVdirsVWzTRQxPNM6xxRqXkkchVVVFSzE7AAYqkh1TVNXHDRE+rWTddYuEqGHjawEhn9pHonQg&#xA;SDbFUdpWiWOm+q8QaW7uKG7vZjznmIrTm57Cp4qtFXooA2xVBaMf0pqlxrhblaIHstKG1DErj15w&#xA;R19aRAF7cEVh9o4qiLvy3p0941/CZbHUH4mS7tJDEzlRRTKm8U1BsPVRqYqtXy6kk8Muo31zqYt3&#xA;WWCK59FY1lQ1WQpBHCrspAK868TutDviqzSCbrWtX1AUMStFp8BG4ZbUM8jV8RNcSRn/AFMVVPLv&#xA;wxX0Q+xHfXPAeHqSGVv+GkOKqfmoejpq6qu0mkSLe8v+KowRcinflbtIB70PbFU5xV2KuxV2KuxV&#xA;2KuxV2KuxV2KuxV2KuxV2KuxV2KuxV2KuxVLdU12CzlW0gje+1SReUWnwcfU4k09SQsQsUe323IH&#xA;YVagKqGi0Ge9njvNekW5kjIeDTo6/U4WG4biwBnkU9HkG1AVVDXFU7xVJ/MdxO8cGj2bvHe6oWj9&#xA;aM0eG2QA3E4P7JVWCIaH94yV2xVNLe3gtreK3t41ighRY4YkFFVEFFVQOgAGKqmKoXVL+PTtNur+&#xA;RS6WsTzGNacm4KW4rX9pqUGKqehWElhpFrazMJLlU5XUo6PcSEvNJ/s5WZvpxVj3k/Wn1DzL5ks7&#xA;Zq2Gk3bQzPTaS8mpI6VPxD0Iwns3P2BxVkOviE6FqInp6BtZhLU0HD025VPyxVXsDMbG2M1fWMSG&#xA;XkKNy4jlUeNcVV8VdirsVdirsVdirsVdirsVdirsVdirsVdirsVdirsVSW/1HUL27fStGIjkj2v9&#xA;UYB47WtD6aIdpLhlNQD8Kfaevwo6qO0vSLLTIWjtlJeVudxcSEvNNJSheVzuzdvYbCgAGKozFXYq&#xA;x+xle51LUtXRTIiSHTrN1HqBI7Yn6w/CqtVrjmjBevpriqcWVzLPGTInEjYOK0bcj7LUdTturDbx&#xA;OKojFUo8xATNpdi2yXd/DyYGhH1VXvR8+TWoU+xxVN8VSLyrYWlpJrclvGI2vNTnuLgj9qQpHHy/&#xA;4GNcVd5xuYf0SdLMiLNq7CyVWIB9KUH6zIK0/urcSPv4UxVPcVdirsVdirsVdirsVdirsVdirsVd&#xA;irsVdirsVdirsVSzzDf3FrYiKzIGo30i2lhUcgJZAT6hXusSK0rDuqnFUTpmm2mmWEVjaJwghBpU&#xA;8mZmJZ3djuzu5LOx3ZiSd8VRWKuxVL9e1R9O09pIVEt9Mwg0+3bpJcSbRqab8R9pyOigt2xVRi8t&#xA;WiaVZWHrTh7FFEd3FK8UzOBR3dkI5+ofiYNUE7kYqjrG2mtoTHNdy3rFiwlnEQYA/s/uY4loPlXF&#xA;URirFp9f0b/FkzXl5DENKh+rW8DOplkuLjjLMyRbu3pxrGoZR+047HFUzbzXoMe91cNYr2e+ims0&#xA;Pya4SJT9BxVS0u5jgl191+OOG9BjQHq0lnbycV8S7ybe5xVbfW/+5TRImpJctcTXNyadY0tZompX&#xA;9lXuEUfPFVZ4YrKb05GuuErMbaaOSaTiftcDGC3Tfj8HHiKH3VdJqU0EbenPHM9D6UV6Gs3Zv+Mh&#xA;ShFdto/p8VVCPXtaVuM+ko7gEtbWlyr3C06nhcJaKy/5SsfauKpppmqWOp2aXllJ6kDllqVZGVkY&#xA;o6MjBWVlZSCpFQcVRWKuxV2KuxV2KuxV2KuxV2KuxV2KuxV2KpOa3fmsKf7rS7QOB1UzXjsoPs8U&#xA;cB+iTFU4xV2KqM9wUYRxp6s7CqpWgA/mZt+I/wAxXFUHDaCXVPWmb1pLRSBIR8KySjcRr+xxT5kh&#xA;tztiqZYq7FUv13UZbDTXlt1WS8lZLeyjevFp5mEcfKlDwDNyenRQT2xVQ8v6VbaWslnagEJR7264&#xA;qslxdzEyTSykAVdqhj2+L2pirfmC9m05LfUi9NPt346nGQCot5fhM3Tb0W4sxrQJz70xVJrSXyvo&#xA;OqazpFxc2ulxXMsGp20LSx24CvEsXKNWIUUls2Y079RvuqqaJqp1LV5dXuo5oLS0hNlYTPE6xTB3&#xA;V7i6VqFfRk9OIRlj+yT0YEqsomijniKNurUII6gg1DA+IO4xVThlfn9XnoZQtQ3RZF6EgfrHbFUk&#xA;8xI9ktgtmLaG3urtbe4W7iMtsnONzGQoeP02eYJGD0q/QmmKofR7nUdDjuBrWnStPdztcXOoacjX&#xA;NszFRHGqxR1uU4RRon91TapY1JxVklne2d7bpc2cyXFvJXhLEwdTQ0O48DiqtirsVdirsVdirsVd&#xA;irsVdirsVdirsVSfy5WU6rfGn+l6hPRR+yLXjZU+k2xb6cVTjFVspkETmNQ0gUlFJoC1NgTiqh8F&#xA;lbNI5Mkmxdv2pJDRQB8zQAdsVX2kDQwAOQ0zEvMw6F23ale3Ye2Kq2KuxViHmv1bzWbVY5XhXR5r&#xA;GZXSlfrF9di2qCQRVLb1VKmu0tfDFU4k1Vra7k02w024vGgRXkljaFY1aUsQrtNKkhY05MQrdfHF&#xA;VHUNb1W0sLm7utHJtreJ5Zws8TExopZqKaA7DpXFVDy/pMGleYtStLaWVrRbGw+rW8pDrAgluwI4&#xA;mpz4DsGY06CgoMVZJiqEYCyPNRSzP21GwiP848F/m8OvjiqvPAsycSSrKeUcg+0rdmH+e/Q7Yqoc&#xA;INQs5rW+hjmU1hu7d1DxtUCoKtUFWUgivY4qlsmkfo9VW01m8tIif3No7JdgkdQvrpLcMP8AJWTb&#xA;tTFV+gaTqNrd399fTxPJfmI+jBCYFBiUr6kgMs3KVwQGIIHFVFNsVTrFXYq7FXYq7FXYq7FXYq7F&#xA;XYq7FVlxPDbwSXEzBIYVaSRz0VVFST8hiqXeV4JofLmmpcLwumt45Lof8XyLzmP0yMxxVNMVdiqH&#xA;Mby3YZxSG33jB/akYbt8lU0HuT4DFURirsVdirD7qWP0dTmDFpLrWbaaGBAZJWjsJbSKcxxqC7hP&#xA;q7M3EGmKqVvbWeteb3mvbJpNPlhnMFvfW7oHMK2dJvRuEUggzOgJWux8cVa8/eWtHg8qXsum2FnY&#xA;3pMMaXaxx2/BZZ0jk5SqvwoY2YP241riqNtdZuHv77V49PllhMNrBJbRS201yscZnkMwjhlkVlrL&#xA;TiG5nieIJoCqyOzvLa8to7q1kEsEo5RyL0I/gR0IPTFVYgEUO4PUYqhYCbaUWrf3TVNsx8BuYz7r&#xA;+z/k/InFWNanpdxd+ZtQmsp5IdXtbe0mt09WWKCe3JnX0JvTIqC4chqckYhtxVWVT/Q5tOurJLyz&#xA;t/q5lqs8bIFlSSMlXjlpX40cEHc/M4qmGKuxV2KuxV2KuxV2KuxV2KuxV2KuxVJ/Nx56FNZgVOpP&#xA;Fp9B9rjdyLDIwH+RG7P9GKpxirsVdirsVdirsVdirx7y15ku/NEfmYeVkF5e2t7f2LXDStbLb2wu&#xA;3laOKVQWFxdl24shAVVR2IKqGVZ95Sn8r3hnuNLjaLULf9xfW10XN5alqN6Miys7xqxXkOJ4N9pS&#xA;w3xVkMkkcUbSSMEjQFndiAqqBUkk9AMVYN+h7bVdTuNVsoY9IuZEt4dCuygillEP1iUujU2EvI1j&#xA;KtWNQzKQ1AqjvJWptPqerWrBI3CWt9PFEeUBluvVVprZqkGC4W3WVaftM1fi5UVZbiqncQLPEYyS&#xA;p2KuOqsDVWHyOKpVfWFzfGG9tJVtdb04vGrsC8TLJxMkUigqTHIFVgQaqQp7FSqg/Llxfv5j1yG5&#xA;tY7akdnNOsM31iI3UiyJJRykTV9GKDYoNiDTfFWS4q7FXYq7FXYq7FXYq7FXYq7FXYq7FUkZ/wBJ&#xA;eZUjQ1tdDrJK3jezxFEQH/iu3kZnH/FieGKp3irsVdirsVdirsVQOu38mn6Ne3sSh54IXa3jbo8t&#xA;KRp/snouKvOfIGhaZ+XFlqGkafa3N3MNSb69PJOtZhcoZYZ+MswUfCVRmCKPhf7RG6rzH82/zosd&#xA;P1+wk1KKW11xbcD6vp8ssXoW11wmEVzNEba5lbjxc8JI1RjQK7KXxV6pLp1j5n8j2uuWE5kF2Ibi&#xA;JJHuZJWDEcYvUeS6ZHbkAjFGC1B413xVMtM/MPyhbtaxm5uLMOs0aaWkJmRXhVDIqRwxtMqW6xmh&#xA;oqUY16rRVAaN5r0lfNGm/o+wu+Gpz3kF1frFGEkeRJbtTMkSxyeoq2oVSY9gzAkncqvQv0hb/wAk&#xA;3/Iib/mjFXfpC3/km/5ETf8ANGKpD5oumU2d3b3F5aQ/WIoNSEMLK0lvKTEo5PE3DhLKrFlIPHlQ&#xA;1piqaaamlabbC2s4J446l2LRXEju7faeSR1Z5HbuzEk4qiv0hb/yTf8AIib/AJoxV36Qt/5Jv+RE&#xA;3/NGKu/SFv8AyTf8iJv+aMVRCOHQMKgMKioKn6QaEYq8jtvzL8+2drBZX2jTXur3dtNcrHFDcieM&#xA;hOMaej9VRABJu3NyKVCs7fDildc/mt5ye+uks9DLjSZjDqEES3M4QSSNGjzsluXHpxr67CENUHj9&#xA;oGiqMT8wvPss0JbQJLeOaeD/AEU2t208cMsmnlhI6rIlViu7jmeP+6z0KnFWe+W9SvNT0Gx1C9tW&#xA;sbu5iWSa0YEGNj1X4qHFCZYq7FXYql+u6lLYWQ+rIJdQuXFvp8LV4vO4JXlx34IFLyEdEVjiqppG&#xA;mRabYR2qO0rAs88705yyyMXklam1Xck7bDoNsVRmKuxV2KuxV2KuxVJ9f/0i50rThv8AWLtJ5gPt&#xA;LFZ/6QH+XrpEh/1sVYL+cepXnl3VdB8wFmXy/P6+m+Y2VQQiGMz2U7HizKIpo3FfByOrYq8w82fl&#xA;j5e8z3EWvasUjjIuLeEpID6pt5pbJL2ZQ1ssSzGGOUrGsil+9GOKs58o6fe+WtF07UdR0yyXlqcU&#xA;Vvq1nGoS0je4FrKAkkcckUEqvIIzyaisuyk7KsR1TSbQzalfXtz9XmjuYfq8RoqhblJZpC7MQAw9&#xA;KMVPTp+1XFWVf847Wk+s2c3murR6BDLe2fli0eMIximujLPcud+TMVWJP5QrDvir2zFXYqhNX09N&#xA;R0q8092KLeQSQFx1X1EK1HyrirWi3z3+jWF/IvB7u3inZBuFMiByPoriqMxV2KuxV2KrfSi9X1eC&#xA;+rx4+pQcuNa0r1pXFWoreCEuYo0jMjF5OCheTnqzU6k+OKr8VdirsVdirsVSaAfXvM9xO28GkRi1&#xA;hB/5abhVmmYj/JhMQRv8pxiqc4q7FXYq7FXYq7FXYqk1gRfeYb2/6wWCfo+1bxkJEt0ykdVLCKM+&#xA;DRsMVV/Mug2uv6DfaNdHjFewtF6gAYxv1jlUNtyjcB1r3GKvGvKXkD8ufLtpcWGoXtzpuoyvxvPL&#xA;d2Ir2JZF3rpltcQztNCzr6kbBZDTrRx8KrOYrnyGYI9LnvdS0sTRmC3XVTf2cMqhd0jjv1W0k+AG&#xA;sXA0X9kDFUi1L8tfJPmK6sLLT1bU4bKc3DXUPoQadaMQFaUR2UdvBPdlVAj5BimzN8NFdV6rZWVp&#xA;Y2cNnZwpb2luixwQRgKiIooqqB2AxVWxV2KrZpY4YnmlYJFGpd3OwCqKkn5DFUg8j6gsvl/T7CWC&#xA;W0vrKxtBcWk4UOqvFRH+AuhVijDY9QQaEUxVkOKuxV2KuxV2KuxV2KuxV2KuxVRvLu3srOe8uX9O&#xA;2to3mmkPRUjUsx28AMVQPlq1uLfR4Wu09O9ui93eR9Sk1y5leOvcR8/TB8FGKppirsVdirsVdirs&#xA;VSvXtVms4Y7WxVZdXviY9PgapWopzmkAIPpQg8nNfBR8TKCqidJ02HTdOgsoSzrCvxSvu8jsS0kj&#xA;nu8jksx7k4qq/XrP679R9eP656frC25D1DHXjzC9ePLauKsM80fmvp/lrS4NRvtH1O9hmvrmxcaX&#xA;B9cMBtpWi9S4o0fph+PIAVPhXFUVq+qaDpPk+DzQbTULzTdLhe5tNMjt5Dct9YHpIPq0qpKGVJWQ&#xA;B6BVY8ulQqu8nefJvMsNhI2kXWkTXUM1xcaffKEuYIkdUhkkUE8PWJPBWoWAJGwOKsraaJZFiZ1E&#xA;j1KISAxA60HemKrsVdiqR+eJLhfK1/Fbw/WZrtUs0gDBOZu5Ft6czUL/AHvXtiqloeqW2o+YtSmh&#xA;DIyWlpFNDKOMkckc92rqwqensaEUI2OKshxV2KuxV2KuxV2KuxV2KuxV2KpDrqHVNUstEXe1Qrf6&#xA;r7wxPW3hP/Gada77MkbqeuKp9irsVdirsVdirsVSzV9cjsWS1giN5qtwpNpYRmjMAaGSRqERxKT8&#xA;Tn5AFqKVW9K0qSCSS+vpBcapcACaYAhEQGohhB+zGv3sdz7Ko64lMNvLMI3mMaM4ijALvxFeKgkD&#xA;keg3xVhnmnzBJeaJcyQeXdWe8tY3m064W3QSQ3KoeEiAyep8JNDxU8lqKMpoVU6ezNw0fmDy7cRt&#xA;JexRyOjs31S9i41iZiob034EBZVUnjQMrgKAq0+r+Zrm2MVpoctjevVFuL6W1a3i7eoRbzyyyDuq&#xA;gKW6Ep1CqLstNh0XSJUtv3kyrJPPcS0DTztV3llYcRV2+gDYUAxVDW3mPy3ClFuuV1JQyRtHJ9bk&#xA;Pi0HH1vanHb7PtiqeYq7FUq8zh/0SHReXo3VnO4qAfThu4pJCORUbIpxVJ7GsPnO6u1H7m8uprJj&#xA;2aRbG1lQ/wCw+rzL8/kMVZbirsVdirsVdirsVdirsVdiqH1HULXTrGa9um4QQKWcgFmPYKqjdmY7&#xA;Ko3J2GKoLy9Y3MNvLe36hdU1F/rF4oNRHsFjgB32hjAWo2ZuTUHI4qmuKuxV2KuxV2KsS88eadW0&#xA;6Gey0CCO41aK3W6k9ZgqpG8oiRUUlecsr1VKkIv2nP2VdVEfl9PYX/l6PWLaGVJNRklaae6ZXupv&#xA;SmeJHmdCy14rsinin2VAApirJcVdiqS3yeYdSaWzhX9E2JYxyX3NXu3QGhMCJySPkPsyOxYf77r0&#xA;VTa1tre1torW3jEVvAixQxLsqog4qo9gBiqpiqldwGe2kiB4sw+FjuARuKjuK9R3xVfEztGpkXg5&#xA;HxLXkAfY98VXYq7FUo1djcarpem8FeGUz3N2rgFWhgj9Pjv+161xGwp4Yqk3kvTdUeHTbq/tmtEt&#xA;LZi0c0izTz390Q91cOUaRVUHkqDlX4mHFQq1VZhirsVdirsVdirsVdirsVdiqQ20U2uahFqNwhj0&#xA;izbnplu4IM8va6lUioVP90qf9civDiqn2KuxV2KuxV2KqVzP6SDivOVzxijrTk3z3oB1JxVj/mzy&#xA;HpPmfQ203USfWLLKLxKq3qBlcqwUgtDJ6aq8fKjLtUEAhVR/LO6nl8p2sV2FXUYjL+kVQAJ9aM8g&#xA;uuAX4Qq3SyotOy12BGKsrxVLf0vc/WfR/Rd3QKS0pEPANQEJUSbkipqPh2pWtAVVYakXH7u1nLGo&#xA;QPGUBP7NS3QEb+3Q77YqjBWgr1706VxV2KrJpHjTkkbSn+RCoP0cio/HFUpTW9Ze4WH/AA9eIppW&#xA;4kmshGPio32Lh5NhuPg39sVTAfpCQbiOAggqamXkO4ZaJT6GxVE4qld9BMdf025g3MUVzHOhOxhl&#xA;MVSP8sSRof8AV5d6YqitM/3mf/jPcf8AJ98VRWKuxV2KuxV2KuxV2KuxV2KuxV2KuxV2KuxVp2Ko&#xA;WClyBsq0qT4CtB9+KqMED8zPPQzsOIC7qi9eK1A69z3+gUVV8VYT5E8vx+VrvW9IgnmksG1Ka/tk&#xA;k9MpbWt5GJvS5EhxGLkzFevevjirNsVdirsVdirsVdirsVdirsVQKMrahcNz9MkxW69Ks0atORuD&#xA;sUkp9+KrtGihh0q0ggDC2hjWO35tzYwoOMbFjvVkAO+/jiqMxV2KuxV2KuxV2KuxV2KuxV2KuxV2&#xA;KuxV2KuxV2KuxVj2qW8cfm/Sbr4YvrcE1q8pXkJJYmSeCMitOQjFwUYj4QXp9rFUw0rUUnhiT6u1&#xA;uhDrACUKlY24haoz0YKNwffwxVMcVdirsVdirsVdirsVWTTRwxmSQ0UfSST0AHcnsMVSn1SgW85r&#xA;K1xNWGONRIizMnoDlKOXFV2UkU3r48cVTW2gEEKxA8qVJJ7kmp27bnpiqpirsVdirsVdirsVdirs&#xA;VdirsVdirsVdirsVdirsVdiqG1LT7e/tDbzryXkkkZBKlZImEkbqw6FXUEYqgw09xJJbXbehSRWQ&#xA;PwLMrVp6LIRx+JaAn4tj0qKKouCeSN0gm+PlUQ3AoQ9ATRqdHoDXah6jwCqKxV2KuxV2KuxVSnuY&#xA;oAOZJdvsRqCzMR4KN8VSdtStpxHdrqlqzxySRQ26Mkkf1kRORF8B5vKq8iyg7gH4e4VTGBvrc4uN&#xA;zbIo+rsQQGdq8nAO9KUCn54qjMVdirsVdirsVdirsVdirsVdirsVdirsVdirsVdirsVdirsVUbm1&#xA;jnA5VV0+xIOo6HvsRsNjtiqEW6lSThqKxRQhVKkiic0INVckqRXcAhWFO/UKr2kukkkmBkeNObfV&#xA;iImMiKtQYOBBqWoPjP8AXFUIfN2ixyCG4M9tcMCVgmtrhHcKQH9MFP3gTkORSoFd8VTW2ura6t47&#xA;m2lSe3mUPFNGwZGU9CrDYjFUvPmrywt0todXsxcvKLdYTcRcjMzcFiA5fbLbBeuKq9zfzK/oxwlJ&#xA;ZCUgllMYjLDvTmHPyA3/ABxVDPKbNzeNPJOJD9XEcsYR2ZS1Au0f7VaUX4u3L4cVREYNxEsNsr2l&#xA;mihQQhiegFAiKwBQAd6fLFUaiIiKiKFRQAqgUAA2AAGKt4q7FXYq7FXYq7FXYq7FXYq7FXYq7FXY&#xA;q7FXYq7FXYq7FXYq7FWnRJEKSKHRhRlYVBHgQcVSt9IWKGa3t4FME68ZHjle2uAvgssQDk+B5g+/&#xA;fFUPJffUxbWkEF6QgoZ3VpOPGvwT3Ewf4f8ALBYnx8VUDdaL5KmL3N5aWV5P9YedESRDu7NU0kdV&#xA;+LmWkX7LHcgnFUwlbSDFHClrHKIigsY44ATEq0ZZIwQQyo6BgYxQbfPFVRIdbmPBppIkHEcpFiFV&#xA;CgMW9J2ZnZ6mqtGAOg23VTGC24OZZG9WdhQyEUAB3KoP2V/zJOKq2KuxV2KuxV2KuxV2KuxV2Kux&#xA;V2KuxV//2Q==</xmpGImg:image>
               </rdf:li>
            </rdf:Alt>
         </xmp:Thumbnails>
      </rdf:Description>
      <rdf:Description rdf:about=""
            xmlns:xmpMM="http://ns.adobe.com/xap/1.0/mm/"
            xmlns:stRef="http://ns.adobe.com/xap/1.0/sType/ResourceRef#"
            xmlns:stEvt="http://ns.adobe.com/xap/1.0/sType/ResourceEvent#">
         <xmpMM:InstanceID>xmp.iid:ED6909DB7E20E411B291B65851995CE6</xmpMM:InstanceID>
         <xmpMM:DocumentID>xmp.did:ED6909DB7E20E411B291B65851995CE6</xmpMM:DocumentID>
         <xmpMM:OriginalDocumentID>uuid:5D20892493BFDB11914A8590D31508C8</xmpMM:OriginalDocumentID>
         <xmpMM:RenditionClass>proof:pdf</xmpMM:RenditionClass>
         <xmpMM:DerivedFrom rdf:parseType="Resource">
            <stRef:instanceID>xmp.iid:F98B765B9D07E41183468BB91137401D</stRef:instanceID>
            <stRef:documentID>xmp.did:F98B765B9D07E41183468BB91137401D</stRef:documentID>
            <stRef:originalDocumentID>uuid:5D20892493BFDB11914A8590D31508C8</stRef:originalDocumentID>
            <stRef:renditionClass>proof:pdf</stRef:renditionClass>
         </xmpMM:DerivedFrom>
         <xmpMM:History>
            <rdf:Seq>
               <rdf:li rdf:parseType="Resource">
                  <stEvt:action>saved</stEvt:action>
                  <stEvt:instanceID>xmp.iid:F98B765B9D07E41183468BB91137401D</stEvt:instanceID>
                  <stEvt:when>2014-07-09T21:38:13+02:00</stEvt:when>
                  <stEvt:softwareAgent>Adobe Illustrator CS5</stEvt:softwareAgent>
                  <stEvt:changed>/</stEvt:changed>
               </rdf:li>
               <rdf:li rdf:parseType="Resource">
                  <stEvt:action>saved</stEvt:action>
                  <stEvt:instanceID>xmp.iid:ED6909DB7E20E411B291B65851995CE6</stEvt:instanceID>
                  <stEvt:when>2014-08-10T13:10:26+02:00</stEvt:when>
                  <stEvt:softwareAgent>Adobe Illustrator CS5</stEvt:softwareAgent>
                  <stEvt:changed>/</stEvt:changed>
               </rdf:li>
            </rdf:Seq>
         </xmpMM:History>
      </rdf:Description>
      <rdf:Description rdf:about=""
            xmlns:illustrator="http://ns.adobe.com/illustrator/1.0/">
         <illustrator:StartupProfile>Print</illustrator:StartupProfile>
      </rdf:Description>
      <rdf:Description rdf:about=""
            xmlns:xmpTPg="http://ns.adobe.com/xap/1.0/t/pg/"
            xmlns:stDim="http://ns.adobe.com/xap/1.0/sType/Dimensions#"
            xmlns:xmpG="http://ns.adobe.com/xap/1.0/g/">
         <xmpTPg:HasVisibleOverprint>False</xmpTPg:HasVisibleOverprint>
         <xmpTPg:HasVisibleTransparency>False</xmpTPg:HasVisibleTransparency>
         <xmpTPg:NPages>1</xmpTPg:NPages>
         <xmpTPg:MaxPageSize rdf:parseType="Resource">
            <stDim:w>115.106325</stDim:w>
            <stDim:h>126.766423</stDim:h>
            <stDim:unit>Millimeters</stDim:unit>
         </xmpTPg:MaxPageSize>
         <xmpTPg:PlateNames>
            <rdf:Seq>
               <rdf:li>Cyan</rdf:li>
               <rdf:li>Magenta</rdf:li>
               <rdf:li>Yellow</rdf:li>
               <rdf:li>Black</rdf:li>
            </rdf:Seq>
         </xmpTPg:PlateNames>
         <xmpTPg:SwatchGroups>
            <rdf:Seq>
               <rdf:li rdf:parseType="Resource">
                  <xmpG:groupName>Default Swatch Group</xmpG:groupName>
                  <xmpG:groupType>0</xmpG:groupType>
               </rdf:li>
            </rdf:Seq>
         </xmpTPg:SwatchGroups>
      </rdf:Description>
      <rdf:Description rdf:about=""
            xmlns:pdf="http://ns.adobe.com/pdf/1.3/">
         <pdf:Producer>Adobe PDF library 9.90</pdf:Producer>
      </rdf:Description>
   </rdf:RDF>
</x:xmpmeta>
                                                                                                    
                                                                                                    
                                                                                                    
                                                                                                    
                                                                                                    
                                                                                                    
                                                                                                    
                                                                                                    
                                                                                                    
                                                                                                    
                                                                                                    
                                                                                                    
                                                                                                    
                                                                                                    
                                                                                                    
                                                                                                    
                                                                                                    
                                                                                                    
                                                                                                    
                                                                                                    
                           
<?xpacket end="w"?>
	</metadata>
<g>
	<g>
		<g>
			<g>
				<g>
					<g>
						<g>
							<g transform="matrix(1 0 0 1 -4.015296e-007 -2.805036e-007)">
								<g>
									<g>
										<path d="M163.767,218.289c0.276,0,0.551,0,0.826,0c0,0.278,0,0.556,0,0.835c-0.275,0-0.55,0-0.826,0
											C163.767,218.845,163.767,218.567,163.767,218.289z"/>
										<path d="M166.656,220.372c-0.181,0.507-0.528,0.854-1.239,0.832C165.225,220.315,166.006,220.413,166.656,220.372z"/>
										<path d="M160.051,222.454c0.271,0,0.55,0,0.824,0c0,0.275,0,0.554,0,0.832c-0.274,0-0.553,0-0.824,0
											C160.051,223.008,160.051,222.729,160.051,222.454z"/>
										<path d="M162.942,224.535c0.272,0,0.551,0,0.826,0c0,0.278,0,0.554,0,0.834c-0.275,0-0.554,0-0.826,0
											C162.942,225.089,162.942,224.813,162.942,224.535z"/>
										<path d="M167.069,224.535c0.275,0,0.555,0,0.829,0c0,0.278,0,0.554,0,0.834c-0.274,0-0.554,0-0.829,0
											C167.069,225.089,167.069,224.813,167.069,224.535z"/>
										<path d="M157.162,226.2C155.909,227.737,155.771,224.938,157.162,226.2L157.162,226.2z"/>
										<path d="M169.133,226.2c0.06-0.165,0.873-0.737,1.238-0.416C171.188,226.498,168.549,227.771,169.133,226.2z"/>
										<path d="M127.024,227.449C128.276,225.911,128.415,228.714,127.024,227.449L127.024,227.449z"/>
										<path d="M154.684,227.866c0.275,0,0.554,0,0.829,0c0,0.277,0,0.555,0,0.832c-0.275,0-0.554,0-0.829,0
											C154.684,228.421,154.684,228.144,154.684,227.866z"/>
										<path d="M158.4,227.866c0.273,0,0.553,0,0.828,0c0,0.277,0,0.555,0,0.832c-0.275,0-0.555,0-0.828,0
											C158.4,228.421,158.4,228.144,158.4,227.866z"/>
										<path d="M161.702,228.698c0.275,0,0.55,0,0.826,0c0,0.277,0,0.556,0,0.834c-0.276,0-0.551,0-0.826,0
											C161.702,229.254,161.702,228.978,161.702,228.698z"/>
										<path d="M168.308,228.698c0.274,0,0.555,0,0.825,0c0,0.277,0,0.556,0,0.834c-0.271,0-0.551,0-0.825,0
											C168.308,229.254,168.308,228.978,168.308,228.698z"/>
										<path d="M126.612,229.532c-0.181,0.511-0.529,0.854-1.239,0.832C125.18,229.476,125.963,229.569,126.612,229.532z"/>
										<path d="M129.501,230.781c0.275,0,0.55,0,0.826,0c0,0.274,0,0.554,0,0.831c-0.275,0-0.55,0-0.826,0
											C129.501,231.336,129.501,231.06,129.501,230.781z"/>
										<path d="M171.612,231.197c0.664-0.118,0.708,0.395,1.235,0.415C173.014,232.421,170.969,232.22,171.612,231.197z"/>
										<path d="M169.545,231.612c-0.361,0.609-0.616,1.32-1.652,1.25C167.77,231.765,168.465,231.497,169.545,231.612z"/>
										<path d="M159.228,266.172c-0.405,2.742-3.561,3.653-6.192,2.914C153.142,266.339,156.657,265.083,159.228,266.172z"/>
										<path d="M146.428,268.254c-1.47,1.779-5.523,1.408-7.019,0C139.929,264.058,144.528,267.29,146.428,268.254z"/>
										<path d="M210.417,281.161c-0.133,0.979-1.277,0.932-1.651,1.666C207.681,282.235,209.636,281.245,210.417,281.161z"/>
										<path d="M212.068,304.894c1.407-0.026,1.226,1.543,1.238,2.915C212.82,306.91,212.45,305.897,212.068,304.894z"/>
										<path d="M95.649,316.137c0.065-1.036,1.398-0.121,1.655,0C97.238,317.172,95.903,316.26,95.649,316.137z"/>
										<path d="M200.097,335.706c0.071,0.906-0.337,1.324-1.238,1.249C199.297,336.565,198.988,335.419,200.097,335.706z"/>
										<path d="M197.618,337.371C196.646,338.711,195.952,335.906,197.618,337.371L197.618,337.371z"/>
										<path d="M181.108,346.529c-0.271,0.559-0.887,0.779-1.654,0.838C179.554,346.631,180.165,346.414,181.108,346.529z"/>
										<path d="M166.656,352.359c0.275,0,0.55,0,0.824,0c0,0.277,0,0.556,0,0.838c-0.274,0-0.549,0-0.824,0
											C166.656,352.915,166.656,352.638,166.656,352.359z"/>
										<path d="M171.198,354.025C170.223,355.365,169.529,352.561,171.198,354.025L171.198,354.025z"/>
										<path d="M125.373,221.619c0.037,1.562,0.463,1.187,0,2.498c0.275,0,0.553,0,0.825,0l-0.206,0.626l0.619,0.208
											c0.078,0.336,0.411,0.415,0.41,0.837c-1.126,0.031-0.83-0.697-1.651,0c-0.361,1.331,1.071,0.861,1.239,1.663
											c-1.296-0.196-1.686,0.521-2.064,1.25l-0.62-0.211l-0.206,0.625c-0.334-0.078-0.412-0.417-0.826-0.414l-0.413-0.211
											l-0.41,0.211c0.987-1.916,0.888-4.937,1.651-7.08h0.826h0.826V221.619z"/>
										<path d="M173.057,239.315l0.615,0.209c-0.51,1.285-1.019,2.58-2.062,3.33l-0.481-0.625l-0.756,0.209
											c-0.24-0.252-0.968-1.975,0-2.082c0.447,0.104,0.279,0.828,0.826,0.834c0.24-0.865,0.866-1.348,1.237-2.084
											L173.057,239.315z"/>
										<path d="M170.579,243.896l0.211,0.625c-0.692,1.662-1.403,3.309-2.893,4.164l-0.209-0.625l-0.62,0.207
											c-0.134,0-0.271,0-0.409,0l0.207-0.623l-0.619-0.207c0.319-0.371,0.447-0.942,0.412-1.666l0.619,0.211l-0.21-0.623
											c0.886,0.193,0.791-0.599,0.829-1.25l0.867-0.039l0.367-0.793c0.548,0.5,0.652,0.164,1.24,0L170.579,243.896z"/>
										<path d="M130.121,246.396l0.206,0.623c-1.76-1.695-1.958-4.965-2.89-7.494l0.62,0.209l0.206-0.625
											c1.665,1.097,2.174,3.358,2.89,5.418l-0.206,0.412l0.206,0.416c-0.483,0.067-0.348,0.758-0.41,1.248L130.121,246.396z"/>
										<path d="M90.282,303.854l0.414,0.207c0.184,2.106,3.218,3.082,1.236,4.996l-0.41-0.207l-0.414,0.207
											c-0.6-1.477-2.724-3.164-1.239-5.412L90.282,303.854z"/>
										<path d="M86.361,295.942l-0.619,0.207c0.116-0.672-0.39-0.717-0.414-1.248l0.619-0.209l-0.206-0.625
											c0.011-0.404,0.505-0.321,0.825-0.416l0.619,0.211l0.62,0.211c0.354,1.324-0.652,1.283-0.829,2.082L86.361,295.942z"/>
										<path d="M132.186,112.74l-0.62,0.208c-0.255-3.131-0.255-4.364,0-7.495l0.62,0.208l0.616,0.208
											c0.31,1.913,0.147,4.293,0.827,5.83l-0.207,0.416l0.207,0.417c-0.269,0.559-0.883,0.775-1.652,0.833L132.186,112.74z"/>
										<path d="M158.4,160.415c-0.793-1.007-0.263-3.347-0.412-4.994c0.915-0.229,0.589,0.795,1.24,0.832l0.206,0.625
											l0.618-0.209c-0.227,1.295-0.336,2.714-0.824,3.746l-0.413-0.209L158.4,160.415z"/>
										<path d="M144.776,233.694c0.034,0.66-0.199,1.589,0.41,1.666l-0.205,0.625l0.619-0.213c0,0.555,0,1.113,0,1.666
											l-0.619-0.213l0.205,0.623c-0.271,0-0.55,0-0.825,0c-0.317,0.37-0.444,0.94-0.41,1.666h-0.413v0.418
											c-0.334-0.08-0.409-0.418-0.826-0.418c-0.303,0.389-0.751,0.631-1.239,0.832l-0.41-0.207l-0.414,0.207
											c-0.011-0.404-0.505-0.322-0.826-0.414l-0.207-0.625l-0.209,0.625c-0.449-0.104-0.277-0.828-0.826-0.834l0.209-0.623
											l-0.619-0.209c0.168-1.002-0.754-0.906-0.413-2.082l0.206-0.416l-0.206-0.416c0.902-0.062,0.889-1.045,0.825-2.082
											c1.539,0.439,1.333-0.877,2.065-1.25c0.07,0.488,0.753,0.354,1.239,0.416c0-0.139,0-0.277,0-0.416l0.41,0.213l0.414-0.213
											c-0.363,1.334,0.635,1.302,1.239,1.666l0.41,0.207L144.776,233.694z"/>
										<path d="M162.117,249.103c0.399-0.013,0.315-0.512,0.408-0.834l0.618,0.209l0.208-0.625c0.138,0,0.275,0,0.413,0
											l0.619,0.207l-0.211-0.623c0.59-0.035,1.173-0.069,1.238,0.416l-0.205,0.625l0.619,0.207
											c-0.664,1.275-1.818,2.053-3.303,2.498l-0.208-0.623l-0.618-0.209c0-0.277,0-0.556,0-0.834l0.618,0.209L162.117,249.103z"
											/>
										<path d="M133.217,247.019c0.86,0.244,1.335,0.875,2.065,1.25l0.41,0.209l0.414-0.209c-0.193,0.889,0.59,0.793,1.239,0.834
											l0.206,0.414l0.207,0.412c-1.196,0.233,0.632,0.652,0.414,1.25l-0.62,0.207l0.207,0.625
											c-2.991-0.172-4.352-1.996-5.367-4.162l0.62-0.214L133.217,247.019z"/>
										<path d="M208.353,323.215c-0.177,0.793-0.89,1.044-0.825,2.082C206.805,325.198,207.351,322.947,208.353,323.215z"/>
										<path d="M200.922,331.126c1.084,0.592-0.869,1.581-1.651,1.662C199.309,331.721,200.881,332.195,200.922,331.126z"/>
										<g>
											<path fill="none" stroke="#000000" stroke-width="0.5118" stroke-linecap="round" d="M109.067,162.496
												c2.528,0.77,4.607,2.529,7.226,3.332"/>
											<path fill="none" stroke="#000000" stroke-width="0.4434" stroke-linecap="round" d="M106.589,165.203
												c2.397,1.106,4.748,2.461,7.435,2.915"/>
											<path fill="none" stroke="#000000" stroke-width="0.4699" stroke-linecap="round" d="M170.579,238.483
												c0.752-0.746,0.271-1.967,0.412-2.914"/>
											<path fill="none" stroke="#000000" stroke-width="0.6027" stroke-linecap="round" d="M165.418,245.562
												c0.035-3.211,0.636-6.353,0.619-9.576"/>
											<path fill="none" stroke="#000000" stroke-width="0.4372" stroke-linecap="round" d="M149.524,240.981
												c0-0.554,0-1.11,0-1.662"/>
											<path fill="none" stroke="#000000" stroke-width="0.5919" stroke-linecap="round" d="M146.222,262.217
												c-0.218-0.834-0.409-1.665-0.62-2.499"/>
											<path fill="none" stroke="#000000" stroke-width="0.751" stroke-linecap="round" d="M136.176,264.99
												c-4.951,2.53,5.22,10.428,8.749,12.432c5.904,3.358,10.483-1.34,13.533-6.547c2.72-0.853,5.178-3.547,4.072-6.578"/>
											<path fill="none" stroke="#000000" stroke-width="0.4637" stroke-linecap="round" d="M188.743,297.19
												c-1.021-0.111-2.144,0.24-3.096-0.209"/>
											<path fill="none" stroke="#000000" stroke-width="0.4501" stroke-linecap="round" d="M128.677,302.396
												c2.073-0.685,3.631-2.488,4.95-4.168"/>
											<path fill="none" stroke="#000000" stroke-width="0.4432" stroke-linecap="round" d="M179.247,298.44
												c1.627,0.451,3.229,0.998,4.955,1.246"/>
											<path fill="none" stroke="#000000" stroke-width="0.4881" stroke-linecap="round" d="M163.561,299.688
												c1.48,0.648,3.443,1.517,4.951,0.838"/>
											<path fill="none" stroke="#000000" stroke-width="0.3991" stroke-linecap="round" d="M168.514,300.522
												c-0.375-0.551-0.664-0.797-0.825-1.25"/>
											<path fill="none" stroke="#000000" stroke-width="0.7216" stroke-linecap="round" d="M168.514,300.522
												c1.505,0.057,2.984,0.449,4.406,0.139"/>
											<path fill="none" stroke="#000000" stroke-width="0.5452" stroke-linecap="round" d="M172.918,300.661
												c-0.123-0.49-0.676-0.807-1.104-0.975"/>
											<path fill="none" stroke="#000000" stroke-width="0.5958" stroke-linecap="round" d="M172.918,300.661
												c1.014,0.217,1.99-0.314,3.026-0.139"/>
											<path fill="none" stroke="#000000" stroke-width="0.4372" stroke-linecap="round" d="M175.327,299.063
												c1.014,0.955,2.346,0.894,3.512,1.459"/>
											<path fill="none" stroke="#000000" stroke-width="0.5367" stroke-linecap="round" d="M117.942,299.897
												c-1.049,1.062-2.458,1.379-3.921,1.457"/>
											<path fill="none" stroke="#000000" stroke-width="0.5048" stroke-linecap="round" d="M123.928,302.604
												c2.095,0.006,3.346-1.818,4.955-2.5"/>
											<path fill="none" stroke="#000000" stroke-width="0.5048" stroke-linecap="round" d="M111.132,300.938
												c0.874-0.145,1.528-0.965,2.477-0.834"/>
											<path fill="none" stroke="#000000" stroke-width="0.4894" stroke-linecap="round" d="M117.737,301.354
												c1.508,0.078,2.879-0.59,4.125-1.25"/>
											<path fill="none" stroke="#000000" stroke-width="0.4372" stroke-linecap="round" d="M209.383,307.185
												c0.275,0,0.556,0,0.83,0"/>
											<path fill="none" stroke="#000000" stroke-width="0.4864" stroke-linecap="round" d="M96.269,308.434
												c-0.341-0.352-1.043-0.332-1.235-0.833"/>
											<path fill="none" stroke="#000000" stroke-width="0.4515" stroke-linecap="round" d="M96.681,312.18
												c0-0.275,0-0.555,0-0.833"/>
											<path fill="none" stroke="#000000" stroke-width="0.5973" stroke-linecap="round" d="M95.443,312.598
												c-0.061-0.361-0.255-0.48-0.41-0.626"/>
											<path fill="none" stroke="#000000" stroke-width="0.5048" stroke-linecap="round" d="M204.844,320.924
												c0.57-2.021,3.383-0.816,4.127-2.498"/>
											<path fill="none" stroke="#000000" stroke-width="0.5254" stroke-linecap="round" d="M96.269,320.506
												c0.554-0.264,0.62-1.457,1.499-1.274c0.2,0.161,0.265,0.303,0.321,0.439c0.012,0.072,0.023,0.143,0.038,0.217"/>
											<path fill="none" stroke="#000000" stroke-width="0.4223" stroke-linecap="round" d="M201.542,325.921
												c0.203-0.072,0.354-0.203,0.504-0.338c0.466-0.062,0.709,0.245,1.147,0.338"/>
											<path fill="none" stroke="#000000" stroke-width="0.4906" stroke-linecap="round" d="M196.174,332.167
												c0.311-0.384,0.99-0.389,1.654-0.412"/>
											<path fill="none" stroke="#000000" stroke-width="0.553" stroke-linecap="round" d="M190.395,338.412
												c-0.018-0.445,0.098-0.719,0.229-0.957c0.938-0.315,1.969-0.133,2.869-0.5"/>
											<path fill="none" stroke="#000000" stroke-width="0.4515" stroke-linecap="round" d="M111.956,337.995
												c0.048-0.223,0.225-0.322,0.41-0.411"/>
											<path fill="none" stroke="#000000" stroke-width="0.4235" stroke-linecap="round" d="M182.138,342.992
												c0.555-0.217,0.911-0.747,1.332-1.156c0.37-0.084,0.723-0.041,1.024,0.034c0.137,0.137,0.284,0.265,0.433,0.391
												c0.131,0.562,0.44,0.943,0.927,1.146"/>
											<path fill="none" stroke="#000000" stroke-width="0.4266" stroke-linecap="round" d="M114.021,342.159
												c0.677,0.011,1.445-0.072,1.938,0.122c0.049,0.649,0.314,1.071,0.634,1.442c0.229,0.045,0.479,0.073,0.731,0.096"/>
											<path fill="none" stroke="#000000" stroke-width="0.4372" stroke-linecap="round" d="M124.134,346.115
												c0.789-0.212,1.387-0.797,2.273-0.625"/>
											<path fill="none" stroke="#000000" stroke-width="0.4158" stroke-linecap="round" d="M173.468,347.572
												c0.698-0.604,2.206-0.674,2.479,0.416"/>
											<path fill="none" stroke="#000000" stroke-width="0.4756" stroke-linecap="round" d="M128.057,348.821
												c-0.363,0.329-0.573,0.811-0.919,1.153c-2.033-0.055-4.197-0.582-5.893-1.778"/>
											<path fill="none" stroke="#000000" stroke-width="0.4722" stroke-linecap="round" d="M171.404,352.151
												c2.073,1.117,4.272-0.072,6.192-0.832"/>
											<path fill="none" stroke="#000000" stroke-width="0.4403" stroke-linecap="round" d="M140.028,353.401
												c1.228-0.055,2.074-1.207,3.302-1.25"/>
											<path fill="none" stroke="#000000" stroke-width="0.4372" stroke-linecap="round" d="M158.606,354.65
												c0.375-0.316,0.978-0.404,1.652-0.416"/>
											<path fill="none" stroke="#000000" stroke-width="0.6678" stroke-linecap="round" d="M146.222,354.65
												c0.428-0.12,0.764-0.185,1.235-0.208"/>
											<path fill="none" stroke="#000000" stroke-width="0.4699" stroke-linecap="round" d="M163.146,356.731
												c0.655-0.702,1.78-0.181,2.479-0.832"/>
											<path fill="none" stroke="#000000" stroke-width="0.5214" stroke-linecap="round" d="M152.827,357.148
												c0.909,0.234,2.144,0.022,3.096-0.214"/>
											<path fill="none" stroke="#000000" stroke-width="0.7485" stroke-linecap="round" d="M131.566,219.644
												c0.386-1.16,0.159-2.506,0.7-3.582c2.207-0.959,5.293,0.651,7.13-0.895c0.245-3.756,0.025-7.255,0.518-10.915
												c4.247-0.874,8.812-0.726,13.085-0.058c0.988,2.906,0.762,6.273,0.947,9.392c1.972,1.261,4.567,0.013,6.722,0.748"/>
											<path fill="none" stroke="#000000" stroke-width="0.5983" stroke-linecap="round" d="M160.671,214.334
												c5.311,1.183,7.539,7.248,11.351,10.619"/>
											<path fill="none" stroke="#000000" stroke-width="0.5838" stroke-linecap="round" d="M172.024,224.951
												c1.104-6.167-3.479-13.294-9.289-15.202"/>
											<path fill="none" stroke="#000000" stroke-width="0.7119" stroke-linecap="round" d="M172.024,224.951
												c0.757,2.621,2.434,5.01,2.409,7.841"/>
											<path fill="none" stroke="#000000" stroke-width="0.9578" stroke-linecap="round" d="M174.432,232.794
												c0.941,2.078-0.689,4.512-1.374,6.527"/>
											<path fill="none" stroke="#000000" stroke-width="0.629" stroke-linecap="round" d="M152.62,258.677
												c-0.541,1.407-1.168,2.898-1.444,4.372"/>
											<path fill="none" stroke="#000000" stroke-width="0.6582" stroke-linecap="round" d="M131.359,248.06
												c-0.178-0.568-0.848-1.24-1.235-1.664"/>
											<path fill="none" stroke="#000000" stroke-width="0.9775" stroke-linecap="round" d="M86.498,286.92
												c0.468,0.452,0.641,1.269,0.794,1.839"/>
											<path fill="none" stroke="#000000" stroke-width="1.1098" stroke-linecap="round" d="M87.29,288.759
												c0.347,0.068,0.698,0.127,1.032,0.209"/>
											<path fill="none" stroke="#000000" stroke-width="0.6182" stroke-linecap="round" d="M88.321,288.968
												c0.722-0.16,1.384,0.038,1.858,0.104"/>
											<path fill="none" stroke="#000000" stroke-width="0.7572" stroke-linecap="round" d="M90.179,289.071
												c0.183-0.674,0.069-1.391,0.103-2.081"/>
											<path fill="none" stroke="#000000" stroke-width="0.7213" stroke-linecap="round" d="M90.179,289.071
												c0.57,2.57,0.909,5.324-0.517,7.703"/>
											<path fill="none" stroke="#000000" stroke-width="0.5048" stroke-linecap="round" d="M89.664,296.774
												c2.338,2.248,3.417,5.43,4.128,8.328"/>
											<path fill="none" stroke="#000000" stroke-width="0.8824" stroke-linecap="round" d="M89.664,296.774
												c-0.136,0.078-0.268,0.156-0.407,0.234c-0.172,0.465-0.311,1.219-0.523,1.535"/>
											<path fill="none" stroke="#000000" stroke-width="0.9239" stroke-linecap="round" d="M88.734,298.545
												c0.556,1.791,1.925,3.308,1.547,5.31"/>
											<path fill="none" stroke="#000000" stroke-width="0.6393" stroke-linecap="round" d="M91.522,308.851
												c1.641,2.701,0.193,7.184,3.392,8.77c-1.893,4.584,1.749,8.424,3.833,12.05"/>
											<path fill="none" stroke="#000000" stroke-width="0.7847" stroke-linecap="round" d="M88.734,298.545
												c-0.903-0.765-1.686-1.668-2.374-2.603"/>
											<path fill="none" stroke="#000000" stroke-width="0.4792" stroke-linecap="round" d="M81.957,291.502
												c-5.354,7.463-10.625,15.331-17.89,21.094"/>
											<path fill="none" stroke="#000000" stroke-width="0.5702" stroke-linecap="round" d="M81.957,291.502
												c0.907-1.915,2.474-3.894,4.541-4.582"/>
											<path fill="none" stroke="#000000" stroke-width="0.5449" stroke-linecap="round" d="M86.498,286.92
												c0.019-0.054,0.033-0.108,0.049-0.164c9.239-6.866,17.477-12.823,23.252-21.718c7.027-10.822,9.28-24.119,12.685-36.553"
												/>
											<path fill="none" stroke="#000000" stroke-width="0.5649" stroke-linecap="round" d="M125.166,119.819
												c-4.527,11.954-11.612,23.164-18.482,36.32c-4.272,8.186-6.263,18.961-10.825,24.467"/>
											<path fill="none" stroke="#000000" stroke-width="0.5248" stroke-linecap="round" d="M95.857,180.606
												c-3.265,10.961-9.319,21.619-15.688,31.229"/>
											<path fill="none" stroke="#000000" stroke-width="0.5161" stroke-linecap="round" d="M95.857,180.606
												c-6.99,5.64-15.349,10.457-20.024,18.53"/>
											<path fill="none" stroke="#000000" stroke-width="0.6031" stroke-linecap="round" d="M-1.16,303.021
												c11.563-11.066,15.59-21.957,20.32-31.08c3.717-7.162,5.276-16.871,10.136-25.635c3.122-5.625,8.64-12.992,10.516-18.916
												c5.953-18.817,5.48-39.529,15.815-56.278c8.434-9.806,20.022-16.539,30.836-23.71
												c8.089-5.366,18.415-10.835,26.413-17.49c0.863-0.718,1.596-1.385,2.477-2.082c3.366-2.659,6.622-6.209,9.816-8.009"/>
											<path fill="none" stroke="#000000" stroke-width="0.8336" stroke-linecap="round" d="M125.166,119.819
												c0.458-0.757,1.265-1.297,2.065-1.666"/>
											<path fill="none" stroke="#000000" stroke-width="0.577" stroke-linecap="round" d="M127.232,118.153
												c2.174-1.406,2.475-4.166,4.954-5.413"/>
											<path fill="none" stroke="#000000" stroke-width="0.8635" stroke-linecap="round" d="M128.882,35.713
												c-0.63-0.248-1.336-0.264-1.945-0.541c-1.012-1.266-0.491-2.779-0.742-4.247"/>
											<path fill="none" stroke="#000000" stroke-width="0.4946" stroke-linecap="round" d="M170.168,188.937
												c7.943,0.373,12.076,5.721,17.236,12.17c8.191,10.23,13.223,17.324,18.795,26.437c0.651,0.203,1.021,0.749,1.531,1.156"
												/>
											<path fill="none" stroke="#000000" stroke-width="0.6095" stroke-linecap="round" d="M207.734,228.698
												c4.177,0.15,8.994-2.771,9.288-7.286"/>
											<path fill="none" stroke="#000000" stroke-width="0.5596" stroke-linecap="round" d="M217.022,221.412
												c-8.402,0.36-14.128-10.218-11.766-17.487"/>
											<path fill="none" stroke="#000000" stroke-width="0.4257" stroke-linecap="round" d="M205.256,203.925
												c-4.795-10.097-14.594-16.882-20.506-26.37"/>
											<path fill="none" stroke="#000000" stroke-width="0.4608" stroke-linecap="round" d="M184.75,177.555
												c-1.97-1.48-3.601-3.787-4.885-5.897"/>
											<path fill="none" stroke="#000000" stroke-width="0.4981" stroke-linecap="round" d="M179.866,171.657
												c-1.236-0.921-1.846-2.656-3.095-3.539"/>
											<path fill="none" stroke="#000000" stroke-width="0.5088" stroke-linecap="round" d="M179.866,171.657
												c7.196-1.142,13.379,2.562,20.023,4.372"/>
											<path fill="none" stroke="#000000" stroke-width="0.5736" stroke-linecap="round" d="M207.734,228.698
												c3.336,8.438,6.382,17.758,4.541,27.271"/>
											<path fill="none" stroke="#000000" stroke-width="0.8245" stroke-linecap="round" d="M212.275,255.972
												c7.735-0.842,3.738,8.87,5.47,17.338c0.286,1.41,0.969,2.75,1.237,4.164c0.995,5.295-1.046,11.832-5.821,12.045
												c-0.089,0.024-0.175,0.051-0.266,0.074"/>
											<path fill="none" stroke="#000000" stroke-width="0.5137" stroke-linecap="round" d="M212.894,289.593
												c0.745,4.975,1.461,9.682,1.034,14.262"/>
											<path fill="none" stroke="#000000" stroke-width="0.6275" stroke-linecap="round" d="M212.894,289.593
												c-0.099-0.074-0.195-0.15-0.293-0.226c-0.492-1.604-0.603-3.433,0.188-4.979"/>
											<path fill="none" stroke="#000000" stroke-width="0.5048" stroke-linecap="round" d="M212.79,284.388
												c-2.526-1.646-0.107-4.343-1.342-6.35"/>
											<path fill="none" stroke="#000000" stroke-width="0.7279" stroke-linecap="round" d="M210.624,265.408
												c-0.14,0.075-0.276,0.149-0.412,0.223c-1.303,4.128-0.373,8.729-0.618,13.032"/>
											<path fill="none" stroke="#000000" stroke-width="0.5881" stroke-linecap="round" d="M160.981,190.81
												c-0.5,1.596,0.114,3.318-0.723,4.789"/>
											<path fill="none" stroke="#000000" stroke-width="0.651" stroke-linecap="round" d="M130.121,192.267
												c-4.679,8.607-5.961,19.855-5.574,29.354"/>
											<path fill="none" stroke="#000000" stroke-width="0.7097" stroke-linecap="round" d="M124.548,221.619
												c1.591-2.813,2.771-5.888,4.748-8.534"/>
											<path fill="none" stroke="#000000" stroke-width="0.6416" stroke-linecap="round" d="M152.757,227.033
												c0.414,0.905,0.795,2.071,0.21,2.983"/>
											<path fill="none" stroke="#000000" stroke-width="0.6268" stroke-linecap="round" d="M152.965,230.019
												c0.052,0.193,0.19,0.554,0.387,0.862c0.724,0.088,1.43,0.433,1.811,1.079"/>
											<path fill="none" stroke="#000000" stroke-width="0.7711" stroke-linecap="round" d="M155.165,231.96
												c0.475,0.03,0.99,0.062,1.277,0.486"/>
											<path fill="none" stroke="#000000" stroke-width="0.5048" stroke-linecap="round" d="M156.439,232.446
												c2.447,0.117,4.677,0.902,6.915,1.664"/>
											<path fill="none" stroke="#000000" stroke-width="0.6849" stroke-linecap="round" d="M158.916,29.154
												c0.07-6.893,2.614-15.513-0.809-21.605c-7.621-9.912-23.396-6.932-32.081,0.297c-0.002,7.525-0.006,15.653,0.173,23.079"
												/>
											<path fill="none" stroke="#000000" stroke-width="0.8171" stroke-linecap="round" d="M157.059,33.735
												c0.493-0.092,0.984-0.232,1.322-0.362c1.003-1.147,1.105-2.818,0.536-4.219"/>
											<path fill="none" stroke="#000000" stroke-width="0.6356" stroke-linecap="round" d="M158.916,29.154
												c-9.071-7.535-25.068-7.716-32.718,1.77"/>
											<path fill="none" stroke="#000000" stroke-width="0.7509" stroke-linecap="round" d="M158.09,119.611
												c0.036-28.617,0.108-57.273-1.032-85.876"/>
											<path fill="none" stroke="#000000" stroke-width="0.6348" stroke-linecap="round" d="M157.059,33.735
												c-1.338-8.493-28.413-8.402-27.579,1.055c-0.119,0.175-0.374,0.538-0.6,0.923"/>
											<path fill="none" stroke="#000000" stroke-width="0.8153" stroke-linecap="round" d="M128.882,35.713
												c1.25,23.312,1.428,46.853,3.301,69.95"/>
											<path fill="none" stroke="#000000" stroke-width="0.6388" stroke-linecap="round" d="M146.944,118.362
												c8.445,5.011,1.342,24.148-1.903,33.58c-1.825,5.312-3.814,11.248-4.022,15.693c-1.145,4.752-3.498,9.065-5.328,13.599"
												/>
											<path fill="none" stroke="#000000" stroke-width="0.6428" stroke-linecap="round" d="M135.694,181.233
												c7.224-3.126,16.575-3.686,23.325,1.039"/>
											<path fill="none" stroke="#000000" stroke-width="0.7044" stroke-linecap="round" d="M159.019,182.272
												c0.43-7.056-1.156-14.783-0.205-22.066"/>
											<path fill="none" stroke="#000000" stroke-width="0.613" stroke-linecap="round" d="M127.232,118.153
												c-0.748,5.139-3.878,10.041-4.721,15.341c2.487,3.265,9.968,6.224,14.812,5.578c7.226-0.962,10.934-13.306,9.622-20.71"
												/>
											<path fill="none" stroke="#000000" stroke-width="0.5659" stroke-linecap="round" d="M146.944,118.362
												c-1.104-6.145-8.087-9.469-13.521-6.246"/>
											<path fill="none" stroke="#000000" stroke-width="1.1002" stroke-linecap="round" d="M169.752,188.937
												c0.139,0,0.275,0,0.414,0"/>
											<path fill="none" stroke="#000000" stroke-width="0.6234" stroke-linecap="round" d="M170.168,188.937
												c3.904-6.047,4.523-13.751,4.539-20.817"/>
											<path fill="none" stroke="#000000" stroke-width="0.6811" stroke-linecap="round" d="M159.019,182.272
												c1.182,2.768,0.34,6.074,1.962,8.537"/>
											<path fill="none" stroke="#000000" stroke-width="0.5341" stroke-linecap="round" d="M160.981,190.81
												c3.064,0.969,6.643,0.811,8.771-1.873"/>
											<path fill="none" stroke="#000000" stroke-width="0.5001" stroke-linecap="round" d="M169.752,188.937
												c-1.746-2.17-2.396-5.18-4.85-6.766c-0.1-0.197-0.148-0.354-0.193-0.508c1.606-5.179,4.699-11.782,10-13.545"/>
											<path fill="none" stroke="#000000" stroke-width="0.5435" stroke-linecap="round" d="M174.708,168.118
												c8.758-17.921,0.412-39.452-16.618-48.505"/>
											<path fill="none" stroke="#000000" stroke-width="0.7087" stroke-linecap="round" d="M158.09,119.611
												c-0.438,11.602,0.858,22.855,0.41,34.437c0.504,0.403,1.163,0.299,1.759,0.329"/>
											<path fill="none" stroke="#000000" stroke-width="0.81" stroke-linecap="round" d="M160.258,154.377
												c0.586-1.333,1.422-2.584,1.857-3.955"/>
											<path fill="none" stroke="#000000" stroke-width="0.915" stroke-linecap="round" d="M160.258,154.377
												c-0.078,0.892-0.42,1.713-0.826,2.499"/>
											<path fill="none" stroke="#000000" stroke-width="0.6036" stroke-linecap="round" d="M135.694,181.233
												c-2.127,3.533-4.546,7.018-5.57,11.033"/>
											<path fill="none" stroke="#000000" stroke-width="0.5331" stroke-linecap="round" d="M130.121,192.267
												c0.785,0.912,0.082,2.338,0.826,3.332"/>
											<path fill="none" stroke="#000000" stroke-width="0.508" stroke-linecap="round" d="M130.947,195.597
												c4.899-1.477,7.047-6.818,8.256-11.24"/>
											<path fill="none" stroke="#000000" stroke-width="0.7357" stroke-linecap="round" d="M130.947,195.597
												c-0.728,5.428,0.377,10.891,0.303,16.324c1.703,0.551,3.853,0.497,5.559,0.048c1.006-4.046,0.402-8.36,1.003-12.442
												c5.466-0.993,11.014-0.453,16.581-0.785c0.198,0.127,0.398,0.31,0.585,0.453c0.157,3.533,0.045,7.063,0.159,10.531
												c0.063,0.106,0.164,0.205,0.265,0.303c0.042,0.105,0.102,0.229,0.166,0.354c1.315,0.703,3.106,0.531,4.404-0.022
												c0.797-4.823,0.544-9.854,0.289-14.764"/>
											<path fill="none" stroke="#000000" stroke-width="0.607" stroke-linecap="round" d="M160.258,195.597
												c-5.138-1.986-7.048-7.729-9.289-12.281"/>
											<path fill="none" stroke="#000000" stroke-width="0.783" stroke-linecap="round" d="M140.441,227.241
												c1.182-0.301,2.532-0.344,3.715,0"/>
											<path fill="none" stroke="#000000" stroke-width="0.8627" stroke-linecap="round" d="M144.157,227.241
												c2.857-0.215,5.729-0.288,8.601-0.208"/>
											<path fill="none" stroke="#000000" stroke-width="0.7022" stroke-linecap="round" d="M152.757,227.033
												c3.4-1.856,5.47-5.205,8.218-7.777c0.156-1.642-0.386-3.37-0.305-4.922"/>
											<path fill="none" stroke="#000000" stroke-width="0.647" stroke-linecap="round" d="M123.928,228.49
												c0.742,1.435,0.314,3.233,1.239,4.579"/>
											<path fill="none" stroke="#000000" stroke-width="0.4515" stroke-linecap="round" d="M125.166,233.069
												c1.541,0.016,2.918,0.687,4.542,0.418"/>
											<path fill="none" stroke="#000000" stroke-width="0.4888" stroke-linecap="round" d="M129.708,233.487
												c0.311-0.385,0.992-0.389,1.651-0.418"/>
											<path fill="none" stroke="#000000" stroke-width="0.5508" stroke-linecap="round" d="M131.359,233.069
												c1.205-0.541,2.51-1.531,3.925-1.353"/>
											<path fill="none" stroke="#000000" stroke-width="0.7322" stroke-linecap="round" d="M135.281,231.718
												c1.253-1.475,3.147-2.178,4.746-3.228"/>
											<path fill="none" stroke="#000000" stroke-width="0.8371" stroke-linecap="round" d="M140.028,228.49
												c0.133-0.415,0.252-0.832,0.413-1.249"/>
											<path fill="none" stroke="#000000" stroke-width="0.8776" stroke-linecap="round" d="M140.441,227.241
												c-2.768-2.751-7.033-4.213-8.875-7.6"/>
											<path fill="none" stroke="#000000" stroke-width="0.5543" stroke-linecap="round" d="M131.566,219.644
												c-2.552,0.705-4.077,3.064-5.573,5.101"/>
											<path fill="none" stroke="#000000" stroke-width="0.579" stroke-linecap="round" d="M140.028,228.49
												c1.257,0.563,2.388-0.556,3.654-0.474c0.174-0.158,0.3-0.467,0.476-0.775"/>
											<path fill="none" stroke="#000000" stroke-width="0.7162" stroke-linecap="round" d="M135.281,231.718
												c-1.759,2.213-2.632,5.01-1.858,8.016"/>
											<path fill="none" stroke="#000000" stroke-width="0.6609" stroke-linecap="round" d="M133.424,239.733
												c1.061,0.699,1.805,1.859,2.064,3.121"/>
											<path fill="none" stroke="#000000" stroke-width="0.5954" stroke-linecap="round" d="M135.488,242.854
												c1.878,0.024,3.508,1.033,5.366,1.25"/>
											<path fill="none" stroke="#000000" stroke-width="0.5581" stroke-linecap="round" d="M140.854,244.104
												c1.664-0.44,3.632-0.182,4.955-1.457"/>
											<path fill="none" stroke="#000000" stroke-width="1.1002" stroke-linecap="round" d="M145.809,242.647
												c0-0.312,0-0.709,0-1.11"/>
											<path fill="none" stroke="#000000" stroke-width="1.0856" stroke-linecap="round" d="M145.809,241.537
												c-0.301-0.114-0.666-0.281-1.033-0.453"/>
											<path fill="none" stroke="#000000" stroke-width="0.7656" stroke-linecap="round" d="M144.776,241.087
												c-0.41,0.104-0.875,0.076-1.169,0.033"/>
											<path fill="none" stroke="#000000" stroke-width="0.5173" stroke-linecap="round" d="M143.607,241.12
												c-0.507,0.831-1.56,0.779-2.34,0.486"/>
											<path fill="none" stroke="#000000" stroke-width="0.6975" stroke-linecap="round" d="M141.267,241.606
												c-0.088,0.082-0.181,0.193-0.273,0.307c-0.659,0.25-1.418,0.059-1.997-0.307"/>
											<path fill="none" stroke="#000000" stroke-width="0.6557" stroke-linecap="round" d="M138.997,241.606
												c-0.507-0.049-1.182-0.172-1.307-0.765"/>
											<path fill="none" stroke="#000000" stroke-width="0.9376" stroke-linecap="round" d="M145.809,234.319
												c-0.026-0.694-0.202-1.389-0.207-2.082"/>
											<path fill="none" stroke="#000000" stroke-width="0.6052" stroke-linecap="round" d="M147.253,236.608
												c1.567,0.8,3.23,0.867,4.889,0.485"/>
											<path fill="none" stroke="#000000" stroke-width="0.4848" stroke-linecap="round" d="M152.965,230.019
												c-3.06-0.949-5.959,0.256-9.013,0.347"/>
											<path fill="none" stroke="#000000" stroke-width="0.6182" stroke-linecap="round" d="M143.952,230.364
												c0.874,1.082-0.061,2.387,0.41,3.539"/>
											<path fill="none" stroke="#000000" stroke-width="0.5783" stroke-linecap="round" d="M143.952,230.364
												c-0.53,0.178-1.09,0.314-1.446,0.417"/>
											<path fill="none" stroke="#000000" stroke-width="0.5048" stroke-linecap="round" d="M142.506,230.781
												c-0.002,0.772-0.159,1.096-0.209,1.456"/>
											<path fill="none" stroke="#000000" stroke-width="0.5728" stroke-linecap="round" d="M142.506,230.781
												c-2.59,0.188-5.057,1.702-5.78,4.37"/>
											<path fill="none" stroke="#000000" stroke-width="0.5048" stroke-linecap="round" d="M136.726,235.151
												c0.207,0.211,0.41,0.418,0.62,0.627"/>
											<path fill="none" stroke="#000000" stroke-width="0.743" stroke-linecap="round" d="M137.346,235.778
												c0.162,0,0.389,0,0.616,0"/>
											<path fill="none" stroke="#000000" stroke-width="0.4414" stroke-linecap="round" d="M131.359,233.069
												c0.074,2.517,0.021,4.972,0,7.494"/>
											<path fill="none" stroke="#000000" stroke-width="0.4372" stroke-linecap="round" d="M129.708,233.487
												c0.254,1.363-0.349,2.462-0.41,3.744"/>
											<path fill="none" stroke="#000000" stroke-width="0.7" stroke-linecap="round" d="M125.166,233.069
												c0.713,2.453,2.254,4.086,2.891,6.664"/>
											<path fill="none" stroke="#000000" stroke-width="0.5563" stroke-linecap="round" d="M152.139,237.095
												c0.047,0.206-0.141,0.735-0.138,1.389"/>
											<path fill="none" stroke="#000000" stroke-width="0.4608" stroke-linecap="round" d="M145.809,242.647
												c0.273,0.425,0.44,0.77,0.688,1.109"/>
											<path fill="none" stroke="#000000" stroke-width="0.647" stroke-linecap="round" d="M146.496,243.758
												c0.535-0.188,1.058-0.388,1.582-0.591"/>
											<path fill="none" stroke="#000000" stroke-width="0.5554" stroke-linecap="round" d="M148.078,243.167
												c-0.372-1.505,0.264-2.756,0.211-4.268"/>
											<path fill="none" stroke="#000000" stroke-width="0.671" stroke-linecap="round" d="M148.078,243.167
												c1.089,0.131,2.202,0.161,3.234,0.591"/>
											<path fill="none" stroke="#000000" stroke-width="0.4906" stroke-linecap="round" d="M151.313,243.758
												c0.472-0.562,0.024-1.47,0.691-1.944"/>
											<path fill="none" stroke="#000000" stroke-width="0.6641" stroke-linecap="round" d="M151.313,243.758
												c0.651,0.882,0.699,2.181,1.927,2.638"/>
											<path fill="none" stroke="#000000" stroke-width="0.6048" stroke-linecap="round" d="M153.24,246.396
												c0.35-2.193,0.46-4.42,0.413-6.664"/>
											<path fill="none" stroke="#000000" stroke-width="0.5048" stroke-linecap="round" d="M155.165,231.96
												c-0.265,1.324-0.723,2.58-1.26,3.8c-0.759,0.175-1.421,0.589-1.764,1.335"/>
											<path fill="none" stroke="#000000" stroke-width="0.6067" stroke-linecap="round" d="M163.146,244.729
												c-0.21,1.153-0.833,2.674,0,3.746"/>
											<path fill="none" stroke="#000000" stroke-width="0.5445" stroke-linecap="round" d="M164.387,248.06
												c-0.676-3.578,0.098-7.552,0.41-11.24"/>
											<path fill="none" stroke="#000000" stroke-width="0.5535" stroke-linecap="round" d="M167.277,245.979
												c-0.96-3.186,0.177-6.713,0.41-9.994"/>
											<path fill="none" stroke="#000000" stroke-width="1.0252" stroke-linecap="round" d="M168.763,244.063
												c0.848-2.396-0.459-5.385,0.784-8.078"/>
											<path fill="none" stroke="#000000" stroke-width="1.0345" stroke-linecap="round" d="M170.579,243.896
												c0.198-0.422,0.364-1.062,0.553-1.666"/>
											<path fill="none" stroke="#000000" stroke-width="0.6731" stroke-linecap="round" d="M174.432,232.794
												c-0.63,0.023-1.195,0.322-1.789,0.484"/>
											<path fill="none" stroke="#000000" stroke-width="0.4608" stroke-linecap="round" d="M172.643,233.278
												c0.12,1.375-0.696,2.547-0.414,3.957"/>
											<path fill="none" stroke="#000000" stroke-width="0.5583" stroke-linecap="round" d="M172.643,233.278
												c-3.005,0.646-6.131,1.353-9.289,0.838"/>
											<path fill="none" stroke="#000000" stroke-width="0.5354" stroke-linecap="round" d="M163.354,234.11
												c-0.189,0.382-0.334,0.757-0.41,1.146"/>
											<path fill="none" stroke="#000000" stroke-width="0.6182" stroke-linecap="round" d="M162.942,235.256
												c0.088,0.056,0.172,0.112,0.263,0.166c0.39,2.114-0.192,4.267-0.055,6.396"/>
											<path fill="none" stroke="#000000" stroke-width="0.8371" stroke-linecap="round" d="M162.942,235.256
												c-0.268,0.063-0.669,0.177-1.036,0.313"/>
											<path fill="none" stroke="#000000" stroke-width="0.6859" stroke-linecap="round" d="M161.908,235.569
												c0.372,0.941,0.161,2.107-0.41,2.914"/>
											<path fill="none" stroke="#000000" stroke-width="1.1002" stroke-linecap="round" d="M161.497,238.483
												c0,0.139,0,0.276,0,0.416"/>
											<path fill="none" stroke="#000000" stroke-width="0.6044" stroke-linecap="round" d="M161.497,238.899
												c0.817,0.789,0.212,1.851-0.414,2.498"/>
											<path fill="none" stroke="#000000" stroke-width="0.8038" stroke-linecap="round" d="M161.083,241.397
												c0.036,2.095-0.353,4.138-0.205,6.244"/>
											<path fill="none" stroke="#000000" stroke-width="0.4827" stroke-linecap="round" d="M156.439,232.446
												c-0.57,5.254-0.124,10.574-0.997,15.753"/>
											<path fill="none" stroke="#000000" stroke-width="0.647" stroke-linecap="round" d="M155.442,248.199
												c0.485,0.301,1.065,0.606,1.651,0.416"/>
											<path fill="none" stroke="#000000" stroke-width="0.5469" stroke-linecap="round" d="M157.092,248.615
												c0.238-4.65,0.381-9.496,0.692-14.296"/>
											<path fill="none" stroke="#000000" stroke-width="0.6557" stroke-linecap="round" d="M157.092,248.615
												c0.507,0.353,1.104,0.538,1.72,0.485"/>
											<path fill="none" stroke="#000000" stroke-width="0.5759" stroke-linecap="round" d="M158.814,249.103
												c0.016-4.545,0.279-9.227,0.825-13.742"/>
											<path fill="none" stroke="#000000" stroke-width="0.442" stroke-linecap="round" d="M158.814,249.103
												c1.079,0.586,2.536-0.283,3.508,0.623"/>
											<path fill="none" stroke="#000000" stroke-width="0.5354" stroke-linecap="round" d="M145.809,241.537
												c0.12-0.073,0.237-0.149,0.357-0.224c0.409-1.48,0.113-3.353,1.087-4.703"/>
											<path fill="none" stroke="#000000" stroke-width="0.4789" stroke-linecap="round" d="M147.253,236.608
												c-0.217-0.905-0.538-1.844-1.444-2.289"/>
											<path fill="none" stroke="#000000" stroke-width="0.6835" stroke-linecap="round" d="M145.809,234.319
												c-0.217,0.508-0.332,0.984-0.826,1.666"/>
											<path fill="none" stroke="#000000" stroke-width="0.7265" stroke-linecap="round" d="M136.726,238.899
												c0.421-0.996-0.073-2.205,0.62-3.121"/>
											<path fill="none" stroke="#000000" stroke-width="0.6546" stroke-linecap="round" d="M136.726,235.151
												c-0.964,0.901-1.69,3.207,0,3.748"/>
											<path fill="none" stroke="#000000" stroke-width="0.8243" stroke-linecap="round" d="M136.726,238.899
												c0.141,0.717,0.086,1.715,0.963,1.942"/>
											<path fill="none" stroke="#000000" stroke-width="0.5644" stroke-linecap="round" d="M137.69,240.843
												c0.502-0.721-0.002-2.044,1.102-2.357"/>
											<path fill="none" stroke="#000000" stroke-width="0.6678" stroke-linecap="round" d="M161.908,235.569
												c-0.14,0.041-0.272,0.082-0.413,0.123c-0.551,0.733-0.716,2.092,0.003,2.789"/>
											<path fill="none" stroke="#000000" stroke-width="0.4888" stroke-linecap="round" d="M144.776,241.087
												c0.133-1.273,1.23-2.664,0.207-3.852"/>
											<path fill="none" stroke="#000000" stroke-width="0.4888" stroke-linecap="round" d="M138.997,241.606
												c0.412-0.707,0.723-1.438,0.619-2.289"/>
											<path fill="none" stroke="#000000" stroke-width="0.5563" stroke-linecap="round" d="M143.607,241.12
												c-0.073-0.512,0.366-1.112-0.072-1.596"/>
											<path fill="none" stroke="#000000" stroke-width="0.5592" stroke-linecap="round" d="M161.497,238.899
												c-0.798,0.531-1.168,1.76-0.414,2.498"/>
											<path fill="none" stroke="#000000" stroke-width="0.5048" stroke-linecap="round" d="M141.267,241.606
												c-0.002-0.772-0.156-1.097-0.206-1.457"/>
											<path fill="none" stroke="#000000" stroke-width="0.5248" stroke-linecap="round" d="M133.424,239.733
												c-1.157,2.006,0.289,4.701-0.826,6.66"/>
											<path fill="none" stroke="#000000" stroke-width="1.0905" stroke-linecap="round" d="M132.598,246.396
												c0,0.275,0,0.554,0,0.832"/>
											<path fill="none" stroke="#000000" stroke-width="1.0096" stroke-linecap="round" d="M132.598,247.228
												c0.138,0.14,0.275,0.276,0.413,0.414"/>
											<path fill="none" stroke="#000000" stroke-width="0.4372" stroke-linecap="round" d="M137.552,249.517
												c0-1.179,0-2.357,0-3.537"/>
											<path fill="none" stroke="#000000" stroke-width="0.6609" stroke-linecap="round" d="M138.791,249.517
												c0.202-1.021,0.032-2.16,0.41-3.121"/>
											<path fill="none" stroke="#000000" stroke-width="0.5337" stroke-linecap="round" d="M142.368,249.031
												c-0.506-1.107,0.158-1.942,0.138-3.054"/>
											<path fill="none" stroke="#000000" stroke-width="0.5337" stroke-linecap="round" d="M144.019,248.615
												c0.168-0.951-0.212-2.437,0.554-3.054"/>
											<path fill="none" stroke="#000000" stroke-width="0.4372" stroke-linecap="round" d="M140.854,244.104
												c0,1.182,0,2.358,0,3.539"/>
											<path fill="none" stroke="#000000" stroke-width="1.3592" stroke-linecap="round" d="M135.488,242.854
												c-0.113,0.184-0.161,0.304-0.207,0.418"/>
											<path fill="none" stroke="#000000" stroke-width="0.6182" stroke-linecap="round" d="M135.281,243.272
												c0.75,0.521,0.688,1.529,0.41,2.289"/>
											<path fill="none" stroke="#000000" stroke-width="0.5512" stroke-linecap="round" d="M135.694,245.562
												c0.121,0.961,0.403,1.971,0,2.916"/>
											<path fill="none" stroke="#000000" stroke-width="0.6787" stroke-linecap="round" d="M155.442,248.199
												c-1.276,0.522-1.903-0.806-2.202-1.806"/>
											<path fill="none" stroke="#000000" stroke-width="0.5945" stroke-linecap="round" d="M146.496,243.758
												c-0.563,1.627,0.084,5.101-2.477,4.857"/>
											<path fill="none" stroke="#000000" stroke-width="0.7265" stroke-linecap="round" d="M144.019,248.615
												c-0.629,0.532-1.274,0.442-1.651,0.416"/>
											<path fill="none" stroke="#000000" stroke-width="0.6373" stroke-linecap="round" d="M142.368,249.031
												c-1.107,0.452-2.369,0.515-3.579,0.485"/>
											<path fill="none" stroke="#000000" stroke-width="0.7572" stroke-linecap="round" d="M138.791,249.517
												c-0.414,0-0.829,0-1.239,0"/>
											<path fill="none" stroke="#000000" stroke-width="0.5331" stroke-linecap="round" d="M135.281,243.272
												c-0.646,0.473-0.778,1.467-0.492,2.162c0.235,0.062,0.567,0.096,0.903,0.127"/>
											<path fill="none" stroke="#000000" stroke-width="0.6182" stroke-linecap="round" d="M132.598,246.396
												c-0.914-0.073-1.017-1.098-1.651-1.459"/>
											<path fill="none" stroke="#000000" stroke-width="0.782" stroke-linecap="round" d="M166.863,247.642
												c-0.59,0.508-0.963,0.56-1.651,0.84"/>
											<path fill="none" stroke="#000000" stroke-width="0.8679" stroke-linecap="round" d="M162.322,250.56
												c-5.695,3.211-11.565-3.154-18.105,0.633c-1.115,0.646-4.671,1.406-6.664,0.199"/>
											<path fill="none" stroke="#000000" stroke-width="0.6182" stroke-linecap="round" d="M132.598,247.228
												c-0.41,0.269-0.826,0.508-1.239,0.832"/>
											<path fill="none" stroke="#000000" stroke-width="0.9917" stroke-linecap="round" d="M131.359,248.06
												c0.231,0.81,0.193,1.787,0.92,2.357c0.499,0.828,1.778,4.221,3.416,5.902c4.944,5.076,7.983-1.248,14.158,0.711
												c0.933,0.296,1.816,0.99,2.771,1.646"/>
											<path fill="none" stroke="#000000" stroke-width="0.7078" stroke-linecap="round" d="M152.62,258.677
												c7.035,1.83,12.675-4.664,15.066-10.617"/>
											<path fill="none" stroke="#000000" stroke-width="0.82" stroke-linecap="round" d="M81.957,291.502
												c1.579,0.743,1.953,3.11,3.991,3.19"/>
											<path fill="none" stroke="#000000" stroke-width="0.6958" stroke-linecap="round" d="M87.187,293.858
												c0.594-0.321,1.377-0.35,1.749-1c0.318-1.325-0.123-2.666-0.613-3.892"/>
											<path fill="none" stroke="#000000" stroke-width="0.8179" stroke-linecap="round" d="M87.29,288.759
												c-0.554,1.639-0.855,3.45-0.103,5.102"/>
											<path fill="none" stroke="#000000" stroke-width="0.6182" stroke-linecap="round" d="M212.894,186.229
												c-1.67,0.01-3.233-0.873-4.886-0.764"/>
											<path fill="none" stroke="#000000" stroke-width="0.5334" stroke-linecap="round" d="M226.933,196.64
												c0.471-0.217,0.915-0.463,1.335-0.733c-0.844-6.562-10.723-6.396-15.376-9.677"/>
											<path fill="none" stroke="#000000" stroke-width="0.6763" stroke-linecap="round" d="M212.275,255.972
												c-0.403,3.176-2.13,6.244-1.651,9.438"/>
											<path fill="none" stroke="#000000" stroke-width="0.6144" stroke-linecap="round" d="M210.624,265.408
												c0.121,0.075,0.233,0.151,0.352,0.225c0.158,1.567,1.695,1.765,2.915,2.041c2.662,4.629,1.239,10.992,0.334,16.068
												c-0.384,0.237-0.881,0.432-1.429,0.649"/>
											<path fill="none" stroke="#000000" stroke-width="0.4907" stroke-linecap="round" d="M207.734,205.174
												c6.851-0.925,14.986-2.629,19.201-8.534"/>
											<path fill="none" stroke="#000000" stroke-width="0.5449" stroke-linecap="round" d="M226.933,196.64
												c-7.039-1.31-19.327-1.184-18.923-11.173"/>
											<path fill="none" stroke="#000000" stroke-width="0.5425" stroke-linecap="round" d="M214.2,179.499
												c-3.285-3.325-9.563-4.003-14.312-3.47"/>
											<path fill="none" stroke="#000000" stroke-width="0.507" stroke-linecap="round" d="M184.75,177.555
												c7.58,1.542,17.707,1.501,23.258,7.912"/>
											<path fill="none" stroke="#000000" stroke-width="0.5485" stroke-linecap="round" d="M212.894,186.229
												c1.44-1.698,3.709-4.916,1.308-6.73"/>
											<path fill="none" stroke="#000000" stroke-width="0.4891" stroke-linecap="round" d="M214.2,179.499
												c-4.171,3.445-10.777-0.667-14.312-3.47"/>
											<path fill="none" stroke="#000000" stroke-width="0.6074" stroke-linecap="round" d="M217.022,221.412
												c-0.242-6.622-5.396-11.437-9.288-16.238"/>
											<path fill="none" stroke="#000000" stroke-width="0.7835" stroke-linecap="round" d="M207.734,205.174
												c-0.875-0.368-1.476-1.146-2.478-1.249"/>
											<path fill="none" stroke="#000000" stroke-width="0.5449" stroke-linecap="round" d="M106.177,170.198
												c2.093,2.524,5.533,1.837,8.256,2.917"/>
											<path fill="none" stroke="#000000" stroke-width="0.5561" stroke-linecap="round" d="M131.669,278.56
												c0.886,0.828,2.144,1.178,2.607,2.543c-1.002,4.756-6.17,7.057-10.348,8.176"/>
											<path fill="none" stroke="#000000" stroke-width="0.9079" stroke-linecap="round" d="M121.038,278.663
												c3.59,0.552,7.021-0.41,10.63-0.104"/>
											<path fill="none" stroke="#000000" stroke-width="0.5407" stroke-linecap="round" d="M131.669,278.56
												c0.568-0.527,0.891-1.11,1.25-1.44c1.061-3.837-3.315-6.746-6.308-8.032"/>
											<path fill="none" stroke="#000000" stroke-width="0.4625" stroke-linecap="round" d="M167.481,279.912
												c-3.652-5.347,3.525-9.181,7.639-10.617"/>
											<path fill="none" stroke="#000000" stroke-width="0.6555" stroke-linecap="round" d="M167.481,279.912
												c3.484,0.625,7.084,0.782,10.527-0.208"/>
											<path fill="none" stroke="#000000" stroke-width="0.5199" stroke-linecap="round" d="M169.34,289.278
												c-3.514-1.35-5.617-6.631-1.855-9.367"/>
											<path fill="none" stroke="#000000" stroke-width="0.5887" stroke-linecap="round" d="M208.42,298.579
												c-3.224-5.102-0.359-9.471,0.139-14.29"/>
											<path fill="none" stroke="#000000" stroke-width="0.4833" stroke-linecap="round" d="M208.42,298.579
												c0.85,0.273,1.846,0.957,1.793,1.947"/>
											<path fill="none" stroke="#000000" stroke-width="0.4874" stroke-linecap="round" d="M168.514,346.739
												c0.227-0.467,0.604-0.779,0.919-1.155c2.651-1.115,7.065,1.368,7.802-2.962c1.287-1.836,3.834-0.587,5.2-2.233
												c1.081-4.768,7.351-4.019,8.595-8.842c1.799-0.846,3.76-1.191,5.651-1.771c0.981-1.085,0.502-2.448,0.858-3.734
												c3.319-1.6,3.687-4.916,6.385-7.297c1.812-4.385,0.078-9.761,1.854-13.944c1.204-2.024,0.102-4.979,2.645-6.229"/>
											<path fill="none" stroke="#000000" stroke-width="0.4802" stroke-linecap="round" d="M121.864,302.188
												c1.1-0.506,2.24-1.084,3.302-1.662"/>
											<path fill="none" stroke="#000000" stroke-width="0.4559" stroke-linecap="round" d="M99.158,332.583
												c1.342,0.334,2.464,1.994,3.925,1.457"/>
											<path fill="none" stroke="#000000" stroke-width="0.5148" stroke-linecap="round" d="M103.081,334.04
												c-0.175-1.462,1.608-1.115,1.854-2.289"/>
											<path fill="none" stroke="#000000" stroke-width="0.5113" stroke-linecap="round" d="M103.081,334.04
												c0.711,0.537,1.319,1.194,2.05,1.676c-0.449,4.748,6.062,3.919,6.12,7.984c5.55,2.979,11.272,5.919,15.657,10.856
												c2.295,0.684,4.961,0.483,6.602,2.499c2.18,0.721,4.407,0.562,6.655,0.647"/>
											<path fill="none" stroke="#000000" stroke-width="0.7711" stroke-linecap="round" d="M140.167,357.704
												c0.039-0.122,0.053-0.339,0.072-0.554"/>
											<path fill="none" stroke="#000000" stroke-width="0.485" stroke-linecap="round" d="M140.236,357.148
												c-0.237-0.999-1.261-1.737-2.273-1.665"/>
											<path fill="none" stroke="#000000" stroke-width="0.4654" stroke-linecap="round" d="M140.236,357.148
												c1.569-0.085,3.314-0.988,3.922-2.498"/>
											<path fill="none" stroke="#000000" stroke-width="0.4943" stroke-linecap="round" d="M140.167,357.704
												c0.532,0.339,1.183,0.521,1.603,1.023c4.603,0.201,9.232,0.398,13.821,1.212c2.246-2.483,5.367-0.496,8.253-1.252
												c2.979-2.787,7.98-0.428,10.549-3.935c0.355-0.061,0.576-0.252,0.814-0.429c5.144-0.005,7.897-4.746,11.976-6.659
												c1.306-0.611,2.991-0.031,4.328-0.631c2.92-1.31,3.856-4.507,6.821-6.025c3.271-0.129,1.877-3.903,3.72-5.41
												c1.587-0.573,3.208-1.476,3.942-3.103c-0.392-3.253,2.642-4.7,4.127-7.082c-0.44-3.411,2.047-5.441,3.721-7.912
												c0.035-1.256-0.991-2.251-1.485-3.331c0.009-1.559,2.47-2.729,1.155-4.489"/>
											<path fill="none" stroke="#000000" stroke-width="0.4243" stroke-linecap="round" d="M208.971,316.344
												c-0.096-0.041-0.192-0.082-0.289-0.123c-0.122-0.903-0.385-2.035,0.289-2.789"/>
											<path fill="none" stroke="#000000" stroke-width="0.5219" stroke-linecap="round" d="M98.746,314.263
												c0.229,1.104,1.984,1.433,2.061,2.914"/>
											<path fill="none" stroke="#000000" stroke-width="0.5169" stroke-linecap="round" d="M100.397,326.337
												c0.437,0.025,0.795-0.023,1.117-0.124c0.11-0.184,0.161-0.335,0.21-0.484c0.02-1.242-2.102-1.339-1.061-2.924
												c0.243-0.145,0.523-0.247,0.752-0.369c0.074-0.019,0.147-0.028,0.22-0.045"/>
											<path fill="none" stroke="#000000" stroke-width="0.4888" stroke-linecap="round" d="M101.636,322.381
												c0.065-0.984-0.105-1.469-0.413-1.87"/>
											<path fill="none" stroke="#000000" stroke-width="0.4791" stroke-linecap="round" d="M101.636,322.381
												c1.207,0.786,2.875,0.121,4.017,1.15c0.602,1.693,1.59,2.786,2.474,4.166c4,0.586,4.269,6.269,8.314,6.194
												c1.168,1.568,2.485,3.161,3.362,4.939"/>
											<path fill="none" stroke="#000000" stroke-width="0.4243" stroke-linecap="round" d="M101.223,330.915
												c1.136,0.352,1.678-0.821,2.477-1.243"/>
											<path fill="none" stroke="#000000" stroke-width="0.5063" stroke-linecap="round" d="M106.589,331.333
												c0.974-0.181,1.872-1.422,2.891-0.832"/>
											<path fill="none" stroke="#000000" stroke-width="0.4332" stroke-linecap="round" d="M107.621,336.955
												c0.17,0.902,1.061,1.132,1.854,1.036"/>
											<path fill="none" stroke="#000000" stroke-width="0.4507" stroke-linecap="round" d="M130.121,343.825
												c-0.071-0.626-0.34-1.045-0.531-1.54c-1.805-0.86-3.923-0.568-5.663-1.374"/>
											<path fill="none" stroke="#000000" stroke-width="0.4313" stroke-linecap="round" d="M186.266,346.322
												c0.974-0.551,2.025-0.875,2.89-1.662"/>
											<path fill="none" stroke="#000000" stroke-width="0.4452" stroke-linecap="round" d="M140.028,347.988
												c-0.472,0.669-0.718,1.036-1.236,1.249"/>
											<path fill="none" stroke="#000000" stroke-width="0.5288" stroke-linecap="round" d="M132.186,345.906
												c2.758,0.689,5.44,0.289,7.841,2.082"/>
											<path fill="none" stroke="#000000" stroke-width="0.6095" stroke-linecap="round" d="M140.028,347.988
												c2.242-1.386,6.253-0.64,6.835,2.257c2.062,1.394,4.157-1.593,6.241,0.102"/>
											<path fill="none" stroke="#000000" stroke-width="0.5941" stroke-linecap="round" d="M153.103,350.347
												c4-0.757,7.25-4.023,11.283-1.945"/>
											<path fill="none" stroke="#000000" stroke-width="0.7711" stroke-linecap="round" d="M164.387,348.404
												c0.271-0.113,0.552-0.163,0.826-0.208"/>
											<path fill="none" stroke="#000000" stroke-width="1.1002" stroke-linecap="round" d="M164.387,348.404
												c0,0.14,0,0.276,0,0.417"/>
											<path fill="none" stroke="#000000" stroke-width="0.6182" stroke-linecap="round" d="M164.387,348.821
												c0.189,0.433,0.335,0.77,0.41,1.249"/>
											<path fill="none" stroke="#000000" stroke-width="0.5048" stroke-linecap="round" d="M164.387,348.821
												c-1.103,0.42-2.157,0.734-3.099,1.458"/>
											<path fill="none" stroke="#000000" stroke-width="0.58" stroke-linecap="round" d="M153.103,350.347
												c0,0.185-0.286,0.531-0.691,0.974"/>
											<path fill="none" stroke="#000000" stroke-width="0.5348" stroke-linecap="round" d="M131.566,351.527
												c0.873-0.112,1.505-1.101,2.46-0.771c0.282,0.229,0.681,0.624,1.046,0.981"/>
										</g>
									</g>
								</g>
							</g>
						</g>
					</g>
				</g>
			</g>
		</g>
	</g>
	<g enable-background="new    ">
		<path fill="#231F20" d="M271.918,232.351h-2.414v2.247h2.701v0.675h-3.515v-6.232h3.375v0.675h-2.562v1.97h2.414V232.351z"/>
		<path fill="#231F20" d="M273.225,232.258c0-0.573-0.019-1.035-0.037-1.461h0.721l0.047,0.768h0.018
			c0.324-0.546,0.861-0.86,1.592-0.86c1.09,0,1.904,0.916,1.904,2.266c0,1.609-0.99,2.404-2.043,2.404
			c-0.592,0-1.11-0.259-1.379-0.702h-0.018v2.432h-0.805V232.258z M274.03,233.451c0,0.12,0.009,0.23,0.037,0.333
			c0.147,0.563,0.637,0.952,1.22,0.952c0.86,0,1.359-0.703,1.359-1.729c0-0.888-0.472-1.655-1.331-1.655
			c-0.555,0-1.082,0.389-1.23,0.999c-0.027,0.102-0.055,0.222-0.055,0.323V233.451z"/>
		<path fill="#231F20" d="M279.395,229.539c0,0.277-0.193,0.5-0.518,0.5c-0.295,0-0.49-0.223-0.49-0.5s0.204-0.508,0.51-0.508
			C279.192,229.031,279.395,229.253,279.395,229.539z M278.489,235.272v-4.476h0.814v4.476H278.489z"/>
		<path fill="#231F20" d="M284.483,234.616c0,1.035-0.213,1.655-0.639,2.053c-0.443,0.397-1.072,0.536-1.637,0.536
			c-0.535,0-1.127-0.13-1.488-0.37l0.203-0.629c0.297,0.194,0.759,0.361,1.313,0.361c0.832,0,1.442-0.435,1.442-1.572v-0.49h-0.019
			c-0.24,0.416-0.73,0.749-1.424,0.749c-1.11,0-1.905-0.943-1.905-2.183c0-1.516,0.99-2.367,2.025-2.367
			c0.777,0,1.193,0.398,1.396,0.768h0.018l0.028-0.675h0.722c-0.028,0.314-0.037,0.685-0.037,1.221V234.616z M283.668,232.563
			c0-0.139-0.009-0.259-0.046-0.361c-0.147-0.48-0.536-0.869-1.138-0.869c-0.776,0-1.331,0.657-1.331,1.692
			c0,0.879,0.453,1.609,1.322,1.609c0.509,0,0.962-0.314,1.128-0.833c0.047-0.139,0.064-0.296,0.064-0.435V232.563z"/>
		<path fill="#231F20" d="M285.827,228.707h0.813v6.565h-0.813V228.707z"/>
		<path fill="#231F20" d="M292.06,232.998c0,1.655-1.155,2.376-2.229,2.376c-1.202,0-2.146-0.888-2.146-2.303
			c0-1.488,0.99-2.367,2.22-2.367C291.191,230.704,292.06,231.639,292.06,232.998z M288.518,233.044c0,0.98,0.555,1.72,1.351,1.72
			c0.776,0,1.359-0.73,1.359-1.738c0-0.758-0.38-1.711-1.341-1.711C288.934,231.314,288.518,232.202,288.518,233.044z"/>
		<path fill="#231F20" d="M294.07,229.725v1.072h1.165v0.62h-1.165v2.413c0,0.555,0.157,0.869,0.61,0.869
			c0.222,0,0.352-0.019,0.472-0.056l0.036,0.62c-0.156,0.055-0.406,0.11-0.721,0.11c-0.379,0-0.684-0.129-0.879-0.342
			c-0.221-0.25-0.314-0.647-0.314-1.175v-2.44h-0.693v-0.62h0.693v-0.832L294.07,229.725z"/>
		<path fill="#231F20" d="M297.132,229.725v1.072h1.165v0.62h-1.165v2.413c0,0.555,0.157,0.869,0.61,0.869
			c0.222,0,0.352-0.019,0.472-0.056l0.036,0.62c-0.156,0.055-0.406,0.11-0.721,0.11c-0.379,0-0.684-0.129-0.879-0.342
			c-0.221-0.25-0.314-0.647-0.314-1.175v-2.44h-0.693v-0.62h0.693v-0.832L297.132,229.725z"/>
		<path fill="#231F20" d="M300.121,229.539c0,0.277-0.194,0.5-0.518,0.5c-0.296,0-0.49-0.223-0.49-0.5s0.204-0.508,0.509-0.508
			C299.917,229.031,300.121,229.253,300.121,229.539z M299.214,235.272v-4.476h0.813v4.476H299.214z"/>
		<path fill="#231F20" d="M301.268,234.449c0.25,0.148,0.676,0.314,1.082,0.314c0.583,0,0.86-0.286,0.86-0.666
			c0-0.388-0.231-0.592-0.823-0.813c-0.813-0.296-1.192-0.73-1.192-1.267c0-0.722,0.592-1.313,1.544-1.313
			c0.453,0,0.851,0.121,1.092,0.277l-0.195,0.592c-0.176-0.11-0.498-0.268-0.915-0.268c-0.48,0-0.739,0.277-0.739,0.61
			c0,0.37,0.259,0.536,0.842,0.768c0.767,0.286,1.174,0.675,1.174,1.341c0,0.795-0.619,1.35-1.664,1.35
			c-0.49,0-0.943-0.129-1.258-0.314L301.268,234.449z"/>
	</g>
	<line fill="none" stroke="#231F20" stroke-width="0.5" x1="152.695" y1="233.976" x2="258.531" y2="233.976"/>
	<g enable-background="new    ">
		<path fill="#231F20" d="M270.961,63.271h0.813v5.558h2.663v0.675h-3.477V63.271z"/>
		<path fill="#231F20" d="M278.454,68.432c0,0.388,0.019,0.768,0.064,1.072h-0.73l-0.064-0.564h-0.027
			c-0.25,0.352-0.73,0.666-1.369,0.666c-0.906,0-1.368-0.638-1.368-1.285c0-1.082,0.962-1.674,2.69-1.664v-0.093
			c0-0.36-0.102-1.036-1.018-1.026c-0.425,0-0.859,0.12-1.174,0.333l-0.185-0.546c0.37-0.231,0.915-0.389,1.479-0.389
			c1.368,0,1.701,0.935,1.701,1.822V68.432z M277.668,67.22c-0.889-0.019-1.896,0.139-1.896,1.008c0,0.536,0.352,0.777,0.758,0.777
			c0.592,0,0.972-0.37,1.102-0.749c0.027-0.093,0.037-0.186,0.037-0.259V67.22z"/>
	</g>
	<g enable-background="new    ">
		<path fill="#231F20" d="M279.77,66.425c0-0.527-0.008-0.98-0.036-1.396h0.712l0.037,0.888h0.027
			c0.203-0.601,0.703-0.98,1.248-0.98c0.084,0,0.148,0.01,0.223,0.019v0.768c-0.084-0.019-0.166-0.019-0.277-0.019
			c-0.574,0-0.98,0.426-1.092,1.036c-0.018,0.11-0.027,0.249-0.027,0.379v2.386h-0.814V66.425z"/>
	</g>
	<g enable-background="new    ">
		<path fill="#231F20" d="M283.315,65.028l0.971,2.645c0.111,0.296,0.223,0.647,0.297,0.916h0.018
			c0.084-0.269,0.176-0.61,0.287-0.935l0.888-2.626h0.86l-1.221,3.19c-0.583,1.535-0.98,2.312-1.535,2.802
			c-0.407,0.342-0.795,0.48-0.999,0.518l-0.203-0.675c0.203-0.064,0.472-0.194,0.712-0.397c0.222-0.176,0.49-0.49,0.684-0.906
			c0.037-0.083,0.065-0.148,0.065-0.194s-0.019-0.111-0.065-0.213l-1.646-4.124H283.315z"/>
		<path fill="#231F20" d="M287.377,66.24c0-0.472-0.01-0.842-0.037-1.212h0.721l0.047,0.74h0.018c0.223-0.416,0.74-0.833,1.48-0.833
			c0.619,0,1.581,0.37,1.581,1.905v2.663h-0.813v-2.58c0-0.721-0.269-1.322-1.036-1.322c-0.526,0-0.942,0.379-1.091,0.832
			c-0.037,0.103-0.056,0.241-0.056,0.38v2.69h-0.813V66.24z"/>
		<path fill="#231F20" d="M296.34,68.848c0,1.035-0.213,1.655-0.638,2.053c-0.444,0.397-1.073,0.536-1.637,0.536
			c-0.536,0-1.128-0.13-1.489-0.37l0.204-0.629c0.296,0.194,0.758,0.361,1.313,0.361c0.832,0,1.441-0.435,1.441-1.572v-0.49h-0.018
			c-0.24,0.416-0.73,0.749-1.424,0.749c-1.11,0-1.905-0.943-1.905-2.183c0-1.516,0.989-2.367,2.024-2.367
			c0.777,0,1.193,0.398,1.396,0.768h0.019l0.028-0.675h0.721c-0.027,0.314-0.037,0.685-0.037,1.221V68.848z M295.527,66.795
			c0-0.139-0.009-0.259-0.046-0.361c-0.148-0.48-0.537-0.869-1.138-0.869c-0.776,0-1.331,0.657-1.331,1.692
			c0,0.879,0.453,1.609,1.322,1.609c0.508,0,0.961-0.314,1.128-0.833c0.046-0.139,0.064-0.296,0.064-0.435V66.795z"/>
		<path fill="#231F20" d="M301.735,67.229c0,1.655-1.156,2.376-2.229,2.376c-1.203,0-2.146-0.888-2.146-2.303
			c0-1.488,0.989-2.367,2.22-2.367C300.866,64.936,301.735,65.87,301.735,67.229z M298.193,67.275c0,0.98,0.555,1.72,1.351,1.72
			c0.776,0,1.359-0.73,1.359-1.738c0-0.758-0.38-1.711-1.342-1.711C298.609,65.546,298.193,66.434,298.193,67.275z"/>
		<path fill="#231F20" d="M302.653,68.681c0.25,0.148,0.676,0.314,1.082,0.314c0.582,0,0.859-0.286,0.859-0.666
			c0-0.388-0.23-0.592-0.822-0.813c-0.814-0.296-1.193-0.73-1.193-1.267c0-0.722,0.592-1.313,1.545-1.313
			c0.453,0,0.851,0.121,1.091,0.277l-0.194,0.592c-0.176-0.11-0.499-0.268-0.916-0.268c-0.48,0-0.739,0.277-0.739,0.61
			c0,0.37,0.259,0.536,0.842,0.768c0.768,0.286,1.175,0.675,1.175,1.341c0,0.795-0.62,1.35-1.665,1.35
			c-0.49,0-0.943-0.129-1.258-0.314L302.653,68.681z"/>
	</g>
	<g enable-background="new    ">
		<path fill="#231F20" d="M309.62,69.347c-0.213,0.102-0.685,0.259-1.285,0.259c-1.35,0-2.229-0.915-2.229-2.284
			c0-1.377,0.943-2.386,2.404-2.386c0.48,0,0.906,0.121,1.128,0.241l-0.185,0.619c-0.195-0.102-0.5-0.213-0.943-0.213
			c-1.027,0-1.582,0.768-1.582,1.692c0,1.036,0.666,1.674,1.555,1.674c0.461,0,0.767-0.111,0.998-0.213L309.62,69.347z"/>
	</g>
	<g enable-background="new    ">
		<path fill="#231F20" d="M314.569,67.229c0,1.655-1.155,2.376-2.229,2.376c-1.201,0-2.145-0.888-2.145-2.303
			c0-1.488,0.989-2.367,2.219-2.367C313.7,64.936,314.569,65.87,314.569,67.229z M311.028,67.275c0,0.98,0.555,1.72,1.35,1.72
			c0.777,0,1.359-0.73,1.359-1.738c0-0.758-0.379-1.711-1.34-1.711C311.444,65.546,311.028,66.434,311.028,67.275z"/>
		<path fill="#231F20" d="M315.598,66.489c0-0.573-0.018-1.035-0.036-1.461h0.722l0.046,0.768h0.019
			c0.323-0.546,0.859-0.86,1.59-0.86c1.092,0,1.905,0.916,1.905,2.266c0,1.609-0.989,2.404-2.044,2.404
			c-0.592,0-1.109-0.259-1.377-0.702h-0.02v2.432h-0.805V66.489z M316.403,67.683c0,0.12,0.01,0.23,0.037,0.333
			c0.148,0.563,0.639,0.952,1.221,0.952c0.86,0,1.359-0.703,1.359-1.729c0-0.888-0.472-1.655-1.332-1.655
			c-0.555,0-1.081,0.389-1.229,0.999c-0.028,0.102-0.057,0.222-0.057,0.323V67.683z"/>
		<path fill="#231F20" d="M321.317,67.414c0.018,1.101,0.712,1.554,1.535,1.554c0.582,0,0.943-0.102,1.238-0.231l0.148,0.583
			c-0.287,0.129-0.786,0.286-1.498,0.286c-1.378,0-2.201-0.915-2.201-2.266c0-1.35,0.795-2.404,2.1-2.404
			c1.47,0,1.85,1.276,1.85,2.1c0,0.166-0.01,0.286-0.028,0.379H321.317z M323.702,66.832c0.01-0.509-0.212-1.313-1.127-1.313
			c-0.833,0-1.184,0.749-1.249,1.313H323.702z"/>
	</g>
	<line fill="none" stroke="#231F20" stroke-width="0.5" x1="159.184" y1="68.042" x2="258.531" y2="68.042"/>
</g>
</svg>
