<?xml version="1.0" encoding="utf-8"?>
<!-- Generator: Adobe Illustrator 15.1.0, SVG Export Plug-In . SVG Version: 6.00 Build 0)  -->
<!DOCTYPE svg PUBLIC "-//W3C//DTD SVG 1.1//EN" "http://www.w3.org/Graphics/SVG/1.1/DTD/svg11.dtd">
<svg version="1.1" id="Layer_1" xmlns="http://www.w3.org/2000/svg" xmlns:xlink="http://www.w3.org/1999/xlink" x="0px" y="0px"
	 width="326.668px" height="184.252px" viewBox="47.845 5.749 326.668 184.252"
	 enable-background="new 47.845 5.749 326.668 184.252" xml:space="preserve">
<metadata><?xpacket begin="﻿" id="W5M0MpCehiHzreSzNTczkc9d"?>
<x:xmpmeta xmlns:x="adobe:ns:meta/" x:xmptk="Adobe XMP Core 5.0-c060 61.134777, 2010/02/12-17:32:00        ">
   <rdf:RDF xmlns:rdf="http://www.w3.org/1999/02/22-rdf-syntax-ns#">
      <rdf:Description rdf:about=""
            xmlns:xmp="http://ns.adobe.com/xap/1.0/"
            xmlns:xmpGImg="http://ns.adobe.com/xap/1.0/g/img/">
         <xmp:CreatorTool>Adobe Illustrator CS5</xmp:CreatorTool>
         <xmp:CreateDate>2015-01-07T18:24:58+02:00</xmp:CreateDate>
         <xmp:Thumbnails>
            <rdf:Alt>
               <rdf:li rdf:parseType="Resource">
                  <xmpGImg:width>256</xmpGImg:width>
                  <xmpGImg:height>144</xmpGImg:height>
                  <xmpGImg:format>JPEG</xmpGImg:format>
                  <xmpGImg:image>/9j/4AAQSkZJRgABAgEBLAEsAAD/7QAsUGhvdG9zaG9wIDMuMAA4QklNA+0AAAAAABABLAAAAAEA&#xA;AQEsAAAAAQAB/+4ADkFkb2JlAGTAAAAAAf/bAIQABgQEBAUEBgUFBgkGBQYJCwgGBggLDAoKCwoK&#xA;DBAMDAwMDAwQDA4PEA8ODBMTFBQTExwbGxscHx8fHx8fHx8fHwEHBwcNDA0YEBAYGhURFRofHx8f&#xA;Hx8fHx8fHx8fHx8fHx8fHx8fHx8fHx8fHx8fHx8fHx8fHx8fHx8fHx8fHx8f/8AAEQgAkAEAAwER&#xA;AAIRAQMRAf/EAaIAAAAHAQEBAQEAAAAAAAAAAAQFAwIGAQAHCAkKCwEAAgIDAQEBAQEAAAAAAAAA&#xA;AQACAwQFBgcICQoLEAACAQMDAgQCBgcDBAIGAnMBAgMRBAAFIRIxQVEGE2EicYEUMpGhBxWxQiPB&#xA;UtHhMxZi8CRygvElQzRTkqKyY3PCNUQnk6OzNhdUZHTD0uIIJoMJChgZhJRFRqS0VtNVKBry4/PE&#xA;1OT0ZXWFlaW1xdXl9WZ2hpamtsbW5vY3R1dnd4eXp7fH1+f3OEhYaHiImKi4yNjo+Ck5SVlpeYmZ&#xA;qbnJ2en5KjpKWmp6ipqqusra6voRAAICAQIDBQUEBQYECAMDbQEAAhEDBCESMUEFURNhIgZxgZEy&#xA;obHwFMHR4SNCFVJicvEzJDRDghaSUyWiY7LCB3PSNeJEgxdUkwgJChgZJjZFGidkdFU38qOzwygp&#xA;0+PzhJSktMTU5PRldYWVpbXF1eX1RlZmdoaWprbG1ub2R1dnd4eXp7fH1+f3OEhYaHiImKi4yNjo&#xA;+DlJWWl5iZmpucnZ6fkqOkpaanqKmqq6ytrq+v/aAAwDAQACEQMRAD8A9U4q7FXYq7FXYq7FXYq7&#xA;FXYq7FUn1LUb24vv0PpTiO6CCW9vmUOtrExotFOzzSUPBT8KgFm/ZV1WovKHl+ga7tV1K4/autQA&#xA;upST1o0vLgP8lAFHYDFV58o+VDv+hrEHsy28SsPkQtRirX+GraM8rO8vrRxspS6llUAdliuDPCB/&#xA;sMVcNM1+H/efWTNX7X1+2il7/s/VvqdPpriruXm2H4fTsL7p+89Sayp4/BwvP+JYq4a5qEQH1zRb&#xA;uMKP3s0BhuIx/qqknrt9EVcVXW/mnQZp1tzdrb3TkLHa3avazMT04xXCxu30DFU1xV2KuxV2KuxV&#xA;2KuxV2KuxV2KuxV2KuxV2KuxV2KuxV2KuxV2KuxV2KuxVLtb1c6fBGkEX1nUbpjFYWgJHqSUrVmA&#xA;bhGg+J3psPE0BVXaLpY06z9N5PXvJmM99d04madwA7kVNBsFRa/CgVRsBiqPxV2KuxV2KuxV2Kqd&#xA;xb29zA8FxEk0EoKyRSKHRlPUMpqCMVY9f2Oh6Nxa11ZfL7vvHA8yfVW3+yLaZvTVa9fR4N/lYqo2&#xA;nn/SIriO01W/08NLUQ6ha3UT2zlVLfGpbnCxCk0bkvbmWNMVZPbXVtdQJcWsqT28grHNEwdGHirL&#xA;UHFVTFXYq7FXYq7FXYq7FXYq7FXYq7FXYq7FXYq7FXYq7FXYq7FUFq+rQaXZm4lR5pGYR21rCA00&#xA;8rfZijUkAsadyABVmIUEhVC6Jpd1HJJqmq8G1m6UK4jPKO3hBqttCxCkqvV3oC7b7DiqqpvirsVd&#xA;irsVdirsVUb28gsrOe8uCVgto3mmYAsQkalmIA3OwxVI9Vvn1aHSrbT7x7K11dXlN4gKSlEj9QQJ&#xA;WjJJJWrdGCq9CrUIVeL/AJYeeP8AEHmrzFPoutaZdabDBJJYwQadc2txAZWEUCs8vBZpZSQvJ/VZ&#xA;nPb7LKor8y/Nf58aTri6Z5K0SxfQIJIWjlW4RpA0il+NwPWt3hTkfjZ6qW/b+LjirJvKWu6nokmk&#xA;nzT6Vp5ovFkPmbT7JRJHHEsPNbqYxvJzcMqAybtvJ1SPkqr1iKWKWJJYnWSKRQ0cikMrKwqCCNiC&#xA;MVXYq7FXYq7FXYq7FXYq7FXYq7FXYq7FXYq7FXYq7FXYqhdU1O10yyku7ktwSgWNFLySOxokcaDd&#xA;ndjRVHU4qgtJ0y7a6fV9VodQlXjb2wIZLSE0rEhHV2pWR/2jt9lVxVN8VdirsVdirsVQmrfpUadO&#xA;dJ9A6iFrbi65+iWqKh+HxCoruMVY3a+b9VtrlLbVrUNM3IvbxRPDdKq7lobfncpdoq/ExgmZxsOF&#xA;dsVTLzFf2V55J1e7tplmtZLC64yoajaJ1I26EEUI6g7YqxnV4BNpujLFCk0P+KJ1HM8aJLPdRzOr&#xA;A1R19R/TKkH7PjTFU9tPKltby3cGk315p9rJ/vT6LxyM8rCh/eXEc0tVX9oP1O3TFVz+WpGmgsDq&#xA;9/JaRovrWwaCFREgZY1DQQxSKS3dWB+HrsMVYxP9V0/V9PitY19PSNStWa4jDos1xfM9hd1EksjP&#xA;SS/Ul/i+L4WblHXFWWvpN7pErXOhIJLR2L3OiswRCTuz2jH4YpD1KH92x/kJZyqmWmatZalEz2zE&#xA;SRELcW8gKTRORXhLG1GU0336jcbYqjMVdirsVdirsVdirsVdirsVdirsVdirsVdirsVUb29tLG1k&#xA;u7uVYbeEcpJG2AHT7ydgO+KpTpdpcaleR65qUTRcAf0RYSCjW6OpVppFIqLiVGo1fsL8AoS5ZVPM&#xA;VdirsVYrq+g3UepXepLbvfw3BVyLWeS1voQkSx8IXV0SWMlOfBmShLH4iaYq7TfMMtrHHNcXZ1LR&#xA;JZPRGpMgiubSYsF9G+iCpSjHjz4KU6OvV8VZVirsVQ2o2Gn31o8F/DHNbfaZZAKKV3Dgn7LL1DDc&#xA;YqxTy75a0i7hurqYzy6dcXplsRLNKq3MSrGElmjDKsxMqN6cjgs6BCxbriqD88eWrfQPJ/1/y9Bc&#xA;mTQZrS+g05bm4eFoLS4SSaMQu7oP3Kv9la1xVkq+YYZ/3Og2ralQkfWYyI7JSTuWuTUPvWvorIQe&#xA;oxVqDSfMMnN7nVBZeqxkMdjFGzhm/Zaa5WYSKqgKKRJiqlqHkjTdRt1ivru+meOWK4hm+svGUmgk&#xA;EySLHHwh5CRa7p+GKrNKu9W0zX/0Bql0+oW93A9zpGoyoiSn0WVZ7af0lSNnT1EeNgoLLyqKoWZV&#xA;M9T0O0vpUuQz2uoRLxg1C3ISZFrXiSQyuld+Eistd6VxVCxaxe6dNHa68qKkjBLfVoQVtpGY0VJV&#xA;JY28jHYVJRjSjcmCYqneKuxV2KuxV2KuxV2KuxV2KuxV2KuxV2Kqd1c29rbS3NzIsNvAjSTSuaKq&#xA;KKsxPgBiqR2FhPrF9DreqI8dvCeej6ZIOPpVqBczIf8Ad7qfhDf3amlAxbFWQYq7FXYqk8fma3ud&#xA;9Ms7rUox/u6CNY4iPFJbhoI5B7xs2KtnzLbxbXtlfWbdw1tJMoHiZLYTxAd6lsVSifVPLV15ishY&#xA;X1petrPqafqdikscgljS3lmSR4gxPKP0Wj6bqxDfZWiqbeW5JYo7rSJ3aSXSpRBHK5JaS3ZBJA5J&#xA;3YhG9Nm/aZGOKptLLFFG0srrHGgLO7EBQB1JJ6Yqw6+8xaTrerGxiklvtFs1VroWUE1zDdXDglbd&#xA;5okeP041ozjlRiwUmiupVTO8uNT1a2a1Pl4NbSbyLqssKRkA1UhIPrjEg70YLT54qh7PyQGWVNX1&#xA;C4v7WbZ9L9Wb6kR4Mk0k8rgjZkaX02H7GKsnRERFRFCooAVQKAAbAADFUPBqVlPe3FkklLu14maB&#xA;gVfg4qrgGnJG3AYbVBHUEYqicVY95qAXUvLEw/vY9Vog8RJZXUbj6Ect9FcVZDiqndWttd20trdR&#xA;JPbTo0c0MihkdGFGVlOxBHUYqlvlVn/QyxNIZRaz3VpG7MXYx2tzJBHzY7swSMcidyeuKptirsVd&#xA;irsVdirsVdirsVdirsVdirsVY+wHmDUyn2tD0yb4u63V5E32fAxWzjfxlHb0zyVZBirsVdirsVSe&#xA;Ly2tqDHp2oXen25JItomiljWpJoguY5+C77KlFHQClMVUNQtV0+39fU/Mt3Da1VKymzhDOfsqGSC&#xA;N+THoFNT0xVLbfVJ7K/ivpbq7ttEZXiWDUFLXV5Of7tba14fWVKhWNCAzfyUo2KouCw8yX+q3Opm&#xA;X9CW11BBbrBwjnvaQPM4kLkyQRk+vThxk2Fag7Yqj4PKmipIs1zE2o3KNzSe/drplf8AmjEpZIvl&#xA;Gqj2xVN8VdirsVdiqA1XRbXUTFKzyW17b1NrfW5CTxcqcgpIZWVuI5I6sjUFVNBiqtp8WoRQcL65&#xA;jupQfhljiMNVoKcl5yAt4kUH+SMVYr+krrzLq9pqeiW6XejaKXns7qWRoIry8lRrflbyBJOcUMEk&#xA;vx8eDs68W+FjiqeL5iKbX2mX9m3b9z9aB+Rszc0/2VMVUrnVNZv0Nvo1nJbepVf0rfR+lHEOhZLd&#xA;ys8jj9lWRVP83YqpnpmnW2m2ENlbcvShWgZzydmJqzux+07sSzHuTXFUTiqC1HWtI00oL68ht3l2&#xA;hikcCSQ+Eafac+ygnFUtbznY+taKtneG3vJmt1u2iEUaOsscAEizNHKC0svEAIT8LGnEVxVP8Vdi&#xA;rsVdirsVdirsVdiqS6xe3N1dDQ9NlMV1IqyX92nW1tnJHJf+LpeLLF4bua8eLKprZ2ltZ2sNpaxi&#xA;K3gRY4Y16KqigGKquKuxV2KuxV2KsVttB8xi7luZGs11By4GsSGS7lWNj/dwW7LAlutKbCRhtVuZ&#xA;qSqnGm6BZWMxui0l3qLrwl1G5Iedl2JUEBUjQkV4RqqV/ZxVMsVdirsVdirsVcSAKnYDqcVSaTzV&#xA;pzs0emJJq861qtiokjUr1V7glYEYfys/LwBxV5L54886tr1tc2kOow2ejRoj3d/YmWa3+IgtboRC&#xA;0t8/HjyCrFCC3pSFiaYqmfksebbDQo9O0ix16C1smZDZSrovKCSRfXMVZ5Y5SvKZWUsoom3EbBVU&#xA;8e+/MgW68NO1prmh5AvoCx8gTQchIzAEU3oab7HFWp7P8zpFpHqOqwEGoZYNDevwAEEM38++3Qbf&#xA;EdwqiI7H8zHjSNdSuxKCazXEOlwIRwoA3pfXG+2eRITpt74qt/wf5xkkSW61C4uHRixjOrzQxPsF&#xA;HNILKKoIFWXpXpxG2Koiw/L+SB1mWHTYJh9p3tmunPKNonJcNaIWZZHrWOh5dKBQFWRWfl22huo7&#xA;27ml1C+i5ehPccAIuf2jFFEscSMakc+PMg0LHFU1xV2KuxV2KuxV2KuxVJtW1e7e4fSdF4SasVBl&#xA;mkDNBaI3+7JuNOTU3SKoZ/8AJWrBVGaPpNvpdmLeJ3mkZjLc3UxDTTzP9uWRgACx8AAFFFUBQAFU&#xA;birsVdirsVdirsVdirsVdirsVdiqVXHmOyW5ktLOKbUr2I8ZrezUN6ZAqVkldo4I2pvxeQMewxVj&#xA;Olebte8xecdc8swrHpEXl6K0fUbuBhdTNNeq0scMZliWFCkSAyfDJ9qg8cVY3+YOkRvePp0qXOq2&#xA;6GOT64k4e6s7pxSEIl9cLbPJIzcuKADjxQx/vFJVY3HYak4SC91Oz08vGJLiXUdKl/SKyPy5W5F8&#xA;9wZkQPRZUYfZHEFFVcVTnQfJ+u3EizXGh6FHYyslvpF1LpbRzqE5TyzyWjmKQ+o9VHxxllXkyLWm&#xA;Kp7+T6WmueU2k1F7qHzHY3U9j5kt4ry6hCX9u3psBHFIiKhjVDGFWgSg7Yqzf/DGm/7+v/H/AI6N&#xA;9/1WxV36Amj2tdXv7dP5ecU+1enK6jnb8cVa+oeZIqLBq8UqfzXtoJJP+Ct5bRP+ExVv1vNifD9U&#xA;sLin+7frM0Ff+efoT0/4M4qtOt6nFX6xod3RaF5YHtpo/wDYj1Uman/GOuKrh5s8vhglxd/UnagR&#xA;L5JLNnr/ACC5WIt9GKpqrKyhlIZWFVYbgg9xireKuxV2KuxVp3REZ3YKiglmJoABuSScVSD9Kahr&#xA;v7vRHNtph/vNbKgmQeFkjgq//GZxw6cRJU8VU203TLLTbYW1nH6cdS7kku7u32pJHYl3dv2mYknv&#xA;iqKxV2KuxV2KuxV2KuxV2KuxV2KuxVJtdurmeeDRLGRorq8Be6uUNGt7RSBJID2kkJ9OP3JbfgRi&#xA;qZWFhZ6fZw2VlCsFrAoSGFBRVUYqgdH8s6TpGo6vqNnGVu9cuFu9QkY1LOkKQqF8FCx9PEnFWN+X&#xA;LQ6n5kuby4Ikhtppr1evF5pJ5rW1enSsdrB47hkagKjFWWWuk21vGoVpGnEMNvJdu7NNIlvUpzdq&#xA;lt3YmvWp8cVVP0dZ+v65j5S+t9YDPV+Mvo+hyTlXh+7+H4ad/E1VU7LRdLsby8vbS3WC51Ble9dK&#xA;j1HStGYVpy+LrSp+gYqjcVdirsVdirsVaZVZSrAMrCjKdwQexxVKD5R0BSzWlsdOdiWZtPd7Pkx/&#xA;acQNGrn/AFwcVaFj5ltKfVtRj1CMbmK/iVJWPgLi2EaIPnAxxVs6zqtt/wAdDR5go3e4sXW7iVf9&#xA;U+jcsfELCcVRNhr+kX8pgtrlTdKvJ7OQNFcKvi8EoSVf9kuKpFp3n17yzsJjo90lxq8Sz6TADGyy&#xA;o6epSSXkI4XRN5EY+PDnQ4qmC6Ddai4m8wyJcIDWPSYamzTeqmTkA1w48XAXoQikVxVPMVdirsVd&#xA;irsVdirsVdirsVdirsVdiqE1TVLLS7J7y8fhEhCqACzu7kKkcajd3diFVRuTtiqF0Gwuokm1DUFC&#xA;6pqBWS5QEMIUWvpWysOqxAnfoXLMKcqYqmuKoHXNQbTtGvr5E9SS2gkkii7vIqngg92aijFWMflZ&#xA;Dbx6bqy26t6Kah6EcjBBzFraW9tzHFV2JhP2hXxr1xVmuKuxV2KuxV2KuxV2KuxV2KuxV2KuxVDX&#xA;+madqESxX1tHcop5IJVDcW7MpP2WHYjfFWMajYz2s8+k2/FHuJH1Ty3K1AqXqEyzWxbrSRiz9atG&#xA;8i7KmKso02/t9R0+2v7evoXcSTRchRuMihgGHY77jFURirsVdirsVdirsVdirsVdirsVdiqD1TVb&#xA;bTbdZZg8kkrCK2toV5zTSEEhI12qaAkk7KAWYhQTiqC03S72a7Gq6yVa8H+8dmh5Q2isKEKT/eSt&#xA;uGkoNvhUAV5KpzirsVYr581MQx6fYrLHHJNMbyX1Cu0NgPXLqGktw3CYRMy+oDw5U6YqmnlW2ng0&#xA;O3a4Ro7m6Ml3PG9eaPdSNMY2JJJMfPhue2KptirsVdirsVdirsVdirsVdirsVdirsVdiqB1rSk1O&#xA;wa39QwTqyy2l0oq8M8Z5RyqD14t1B2YVU7E4qkXk7VON7faNcIILlZJLlbdalUkZg11EpIqQJZVm&#xA;QmlY5UoNjirK8VdirsVdirsVdirsVdirsVcSAKnYDqcVSN/MwvHMGgQ/pSTveBuFihrT4rgBg5G/&#xA;wxByDs3HriqI0vRZLedr+/uTfapIpQ3BUJHEhILRW8VW9NCQK1Zmag5M1BRVNMVdiq2aaKGJ5pnW&#xA;OKNS8kjkKqqoqWYnYADFXnlu3+LNekE0Li1naOWRJFkj46bbljFG6PxDfWpmJIZKcea15RbKvRcV&#xA;dirsVdirsVdirsVdirsVdirsVdirsVdirsVYl510uWCSLzHZuIZ7KhupSCVVE5cJ2A6rHzdZR1MT&#xA;vT4lTFU+0TWIdVsvXRTDPGxiu7ViC8MygFo2p7EMrdGUhhsRiqPxV2KuxV2KuxV2KpTfea9AtCI2&#xA;vI57ph+6srYie5k/4xwx8nb50oOpoMVQEGniUNc65cXSajcuZVsLW7ulEEJ+GKMRWsgBKqP3j0IL&#xA;1oaUxVHt5V0SQcbmOW8i6mC8uLi6iJHQmKeSRCR22xVNVVVUKoCqooqjYADsMVbxV2KuxV555484&#xA;abPryeVFLzrbCO41iK3MZkLyfFZ2iq5FXlYc6U/kDfC5xVlvlzSJbCzaS7IfUrtvVvXDM4DUokSu&#xA;/wATJEtFDHdt3PxMcVTbFXYq7FXYq7FXYq7FXYq7FXYq7FXYq7FXYq7FXEAih3B6jFWDSWN35b1l&#xA;Bp0ZljkjK2NsCq/WLeINI1gCxA9a3Xm9qSQCnKM0C88VZlY31pf2kV5aSCW3mHKNxUexBBoVYHYg&#xA;ioOx3xVXxVCavqK6dps96yGT0lHCMELydiFReR2WrEDkdh1OKoFNK1u7HLU9TaFW62enqIYwp/Za&#xA;dw87EH9tGjr/ACjFUFfWXkuymS3vy17dEco7G4kudSnK7/Etu7XEhUV3IWgxVDro1pOymz8mWEUI&#xA;H278W9uxB6cEgiuz9D8T7Yqm+h3UV5Z3UMMCafNa3DW1ytsVeL1ECljE/FQ44sFJKAg1BFRiqZwW&#xA;8MCFYl4gnkx6lm/mYncn3OKqmKuxV2KuxV2KpY3ljy42ur5gbS7U64iekupmFDchKFeIlpy+yxHX&#xA;oaYqmeKuxV2KuxV2KuxV2KuxV2KuxV2KuxV2KuxV2KuxV2KoLWNLi1Owe1kdonqskFwlOcU0bB45&#xA;Ur3RgDvseh2xVAeVmhkjvJGiFrqXrcNXs0YmJbtVHKWMHosyFZFPdSCQG5YqnmKoXVZtNh064bU2&#xA;iXTyhS59enplJPg4sG2PLlxp3rTFWLx2dxeQiPT7LVWswB6LahqFxYoy08Q0l9X2lQe+Kt6RJEJ5&#xA;tN0vVNJs5eLz3NjpduJbhfTIR29UyFXdSyhi8FdxUYqm6eW47mIfpK9vr0ncxzTCEUP7Dx2Qgicf&#xA;6wbFU1tLS1s7aO1tIY7e2hUJDBEoSNFHRVVQAB8sVVcVdirsVdirsVdirsVdirsVdirsVdirsVdi&#xA;rsVdirsVdirsVdirsVdirsVdirsVSjV9Ou47kazpa8tRij9Oa1qFW7hUllhZjQB1JJic/ZJIOzHF&#xA;Udpuo2mpWMV7aPzgmBpUFWVlJV0dTurowKsp3BBB3xVB6zo1xfXVjd29ysM9g0jRJNEZ4S0ihfUM&#xA;YeI+ogqEblsGbbfFUBq2mWEFsZtdurnWBI3pwaa3BY5pHFRCltEIkm5ca0m5BQKkgAnFUT5f0m9i&#xA;dtS1MRpfSxiKCyhp6Flb1BEERAHIkgGR/wBogUAVVAVTvFXYq7FXYq7FXYq7FXYq7FXYq7FXYq7F&#xA;XYq7FXYq7FXYq7FXYq7FXYq7FXYq7FXYq7FXYqkt7pt9Y3kuqaMokknIbUNNZuKXHEcRJExPGOcA&#xA;AVPwuBxanwuqq0+aredRHYiL9IDeewvpfqc0KgVLSIySPx22ZVKnqCRviqh5SLavEvmW8PK6ug8d&#xA;tbAh47ONHKPFE4FHZnSryDZ9uJ4BcVZHirsVdirsVdirsVdirsVdirsVdirsVdirsVdirsVdirsV&#xA;dirsVdirsVdirsVdir//2Q==</xmpGImg:image>
               </rdf:li>
            </rdf:Alt>
         </xmp:Thumbnails>
      </rdf:Description>
      <rdf:Description rdf:about=""
            xmlns:xmpTPg="http://ns.adobe.com/xap/1.0/t/pg/"
            xmlns:stDim="http://ns.adobe.com/xap/1.0/sType/Dimensions#"
            xmlns:xmpG="http://ns.adobe.com/xap/1.0/g/">
         <xmpTPg:MaxPageSize rdf:parseType="Resource">
            <stDim:w>115.241372</stDim:w>
            <stDim:h>64.999995</stDim:h>
            <stDim:unit>Millimeters</stDim:unit>
         </xmpTPg:MaxPageSize>
         <xmpTPg:NPages>1</xmpTPg:NPages>
         <xmpTPg:HasVisibleTransparency>False</xmpTPg:HasVisibleTransparency>
         <xmpTPg:HasVisibleOverprint>False</xmpTPg:HasVisibleOverprint>
         <xmpTPg:PlateNames>
            <rdf:Seq>
               <rdf:li>Cyan</rdf:li>
               <rdf:li>Magenta</rdf:li>
               <rdf:li>Yellow</rdf:li>
               <rdf:li>Black</rdf:li>
            </rdf:Seq>
         </xmpTPg:PlateNames>
         <xmpTPg:SwatchGroups>
            <rdf:Seq>
               <rdf:li rdf:parseType="Resource">
                  <xmpG:groupName>Default Swatch Group</xmpG:groupName>
                  <xmpG:groupType>0</xmpG:groupType>
               </rdf:li>
            </rdf:Seq>
         </xmpTPg:SwatchGroups>
      </rdf:Description>
      <rdf:Description rdf:about=""
            xmlns:dc="http://purl.org/dc/elements/1.1/">
         <dc:format>image/svg+xml</dc:format>
      </rdf:Description>
   </rdf:RDF>
</x:xmpmeta>
                                                                                                    
                                                                                                    
                                                                                                    
                                                                                                    
                                                                                                    
                                                                                                    
                                                                                                    
                                                                                                    
                                                                                                    
                                                                                                    
                                                                                                    
                                                                                                    
                                                                                                    
                                                                                                    
                                                                                                    
                                                                                                    
                                                                                                    
                                                                                                    
                                                                                                    
                                                                                                    
                           
<?xpacket end="w"?>
	</metadata>
<g>
	<path d="M243.003,26.321c0.188,0,0.379,0,0.566,0c0,0.188,0,0.377,0,0.565c-0.186,0-0.378,0-0.566,0
		C243.003,26.699,243.003,26.51,243.003,26.321z"/>
	<path d="M237.911,26.887c0.188,0,0.379,0,0.565,0c0,0.189,0,0.377,0,0.566c-0.186,0-0.377,0-0.565,0
		C237.911,27.264,237.911,27.076,237.911,26.887z"/>
	<path d="M241.59,27.171c0.208,0.452,1.381-0.065,1.131,0.849C241.981,28.099,241.503,27.916,241.59,27.171z"/>
	<path d="M248.944,27.454c0.131-0.556,1.983-0.509,1.413,0.566C249.654,28.063,249.481,27.575,248.944,27.454z"/>
	<path d="M238.76,28.019C238.094,28.929,237.617,27.024,238.76,28.019L238.76,28.019z"/>
	<path d="M236.498,28.019c0.184,0,0.377,0,0.565,0c0,0.188,0,0.377,0,0.566c-0.188,0-0.379,0-0.565,0
		C236.498,28.396,236.498,28.208,236.498,28.019z"/>
	<path d="M251.771,28.302c-0.107-0.548,1.293-0.414,0.854,0.283c-0.189,0-0.379,0-0.565,0
		C252.106,28.344,251.946,28.318,251.771,28.302z"/>
	<path d="M243.569,28.585C242.902,29.495,242.426,27.59,243.569,28.585L243.569,28.585z"/>
	<path d="M249.794,28.302c-0.124,0.348-0.363,0.581-0.853,0.566C248.81,28.264,249.346,28.33,249.794,28.302z"/>
	<path d="M235.083,28.868c1.002-0.428,3.062,0.513,3.394,1.697c-0.601,2.077-4.194,1.389-5.939,0.849
		C232.353,29.714,235.035,29.397,235.083,28.868z"/>
	<path d="M241.872,28.585c-0.123,0.348-0.362,0.581-0.852,0.565C240.89,28.547,241.426,28.611,241.872,28.585z"/>
	<path d="M252.904,28.585c0.188,0,0.376,0,0.564,0c0,0.188,0,0.377,0,0.565c-0.188,0-0.377,0-0.564,0
		C252.904,28.962,252.904,28.773,252.904,28.585z"/>
	<path d="M244.418,29.15c0.528,0.225,1.036,0.473,1.693,0.565C245.986,30.685,244.594,29.803,244.418,29.15z"/>
	<path d="M252.904,33.676c-1.135,0-2.264,0-3.395,0c-0.018,0.484,0.21,0.733,0.565,0.849c-0.286,0.796-1.201-0.078-1.698,0
		c0.158-0.577,0.856-0.554,0.283-1.131c-1.29,0.517-2.09-0.22-3.111,0.566c0.796-1.341-1.591-0.737-1.415-2.263
		c1.187-0.417,1.681-1.53,3.398-1.415c0.936-1.69,3.525,0.186,5.093-0.565c0.241,0.89,1.088,1.174,1.977,1.414
		c-0.07,1.059-0.657,1.607-1.133,2.263l-0.424-0.142L252.904,33.676z"/>
	<path d="M243.851,30.565c0.755,0.414-0.118,1.553-0.849,1.414C243.257,31.479,243.685,31.154,243.851,30.565z"/>
	<path d="M257.429,30.565c-0.123,0.348-0.362,0.581-0.85,0.566C256.704,30.783,256.943,30.55,257.429,30.565z"/>
	<path d="M239.043,31.696c0.5,0.208,0.041,0.514,0,0.85C238.539,32.337,239.002,32.031,239.043,31.696z"/>
	<path d="M241.023,31.979c0.188,0,0.378,0,0.568,0c0,0.188,0,0.377,0,0.567c-0.189,0-0.378,0-0.568,0
		C241.023,32.356,241.023,32.168,241.023,31.979z"/>
	<path d="M237.062,32.546c0.993,0.124,1.2,0.596,0.849,1.414C237.581,33.536,237.094,33.268,237.062,32.546z"/>
	<path d="M255.45,32.829c0.397,0.056,0.18,1.85-0.566,1.696C255.276,34.164,255.056,33.189,255.45,32.829z"/>
	<path d="M231.687,33.676c1.276,0.469,5.866-1.068,5.658,1.697c-0.682,1.775-4.013,1.553-5.658,0.848
		C231.339,35.422,231.339,34.477,231.687,33.676z"/>
	<path d="M239.043,33.959C238.375,34.87,237.899,32.965,239.043,33.959L239.043,33.959z"/>
	<path d="M244.982,35.092c-0.123,0.348-0.362,0.581-0.853,0.565C244.259,35.31,244.497,35.076,244.982,35.092z"/>
	<path d="M250.357,35.092c0.189,0,0.377,0,0.565,0c0,0.188,0,0.377,0,0.565c-0.188,0-0.376,0-0.565,0
		C250.357,35.468,250.357,35.28,250.357,35.092z"/>
	<path d="M239.608,35.375c0.282,0,0.565,0,0.85,0c0,0.188,0,0.377,0,0.565c-0.284,0-0.567,0-0.85,0
		C239.608,35.751,239.608,35.562,239.608,35.375z"/>
	<path d="M245.549,35.375c0.188,0,0.379,0,0.565,0c0,0.188,0,0.377,0,0.565c-0.184,0-0.377,0-0.565,0
		C245.549,35.751,245.549,35.562,245.549,35.375z"/>
	<path d="M253.469,35.656C254.328,34.611,254.423,36.516,253.469,35.656L253.469,35.656z"/>
	<path d="M241.872,36.223C241.204,37.132,240.728,35.227,241.872,36.223L241.872,36.223z"/>
	<path d="M243.003,36.506c0.704,0.115,0.016,1.097-0.566,0.848C242.281,36.727,242.977,36.951,243.003,36.506z"/>
	<path d="M241.304,38.203c0.189,0,0.379,0,0.57,0c0,0.188,0,0.377,0,0.565c-0.188,0-0.379,0-0.57,0
		C241.304,38.58,241.304,38.391,241.304,38.203z"/>
	<path d="M254.034,38.203c0.805,0.034,0.545,1.206-0.281,1.131C253.716,38.827,254.098,38.737,254.034,38.203z"/>
	<path d="M257.146,38.203c0.056,0.617-0.228,0.9-0.849,0.849C256.6,38.787,256.386,38.007,257.146,38.203z"/>
	<path d="M255.45,40.466c0.051,0.617-0.232,0.9-0.852,0.849C254.902,41.05,254.69,40.271,255.45,40.466z"/>
	<path d="M252.622,40.75c0.185,0,0.377,0,0.565,0c0,0.188,0,0.377,0,0.565c-0.188,0-0.379,0-0.565,0
		C252.622,41.126,252.622,40.938,252.622,40.75z"/>
	<path d="M258.278,43.012c0.206,0.771-0.562,0.569-0.565,1.132C257.024,43.966,257.562,42.714,258.278,43.012z"/>
	<path d="M256.58,44.991c0.481-0.104,0.539,0.221,0.566,0.565c-0.24-0.051-0.262,0.111-0.282,0.283
		C256.533,45.794,256.625,45.325,256.58,44.991z"/>
	<path d="M258.278,45.275c0.805,0.034,0.539,1.206-0.282,1.131C257.876,45.814,258.19,45.657,258.278,45.275z"/>
	<path d="M259.126,47.255c0.189,0,0.379,0,0.566,0c0,0.188,0,0.377,0,0.565c-0.185,0-0.377,0-0.566,0
		C259.126,47.632,259.126,47.443,259.126,47.255z"/>
	<path d="M324.755,76.108c0.877,0.066,0.883,1.003,1.132,1.698C325.01,77.739,325.004,76.803,324.755,76.108z"/>
	<path d="M321.927,77.239c0.924-0.074,0.6,1.098,1.412,1.132C322.72,79.245,321.874,77.974,321.927,77.239z"/>
	<path d="M319.098,77.806c0.259-0.771,0.884,0.395,1.693,0c-0.008,0.275-0.343,0.219-0.566,0.283
		c0.004,0.562,0.772,0.359,0.566,1.132C319.78,79.199,319.816,78.126,319.098,77.806z"/>
	<path d="M317.117,78.089c1.063-0.026,0.657,1.417,1.413,1.697C317.902,80.488,317.023,79.049,317.117,78.089z"/>
	<path d="M315.419,78.654c0.777,0.244,1.502,1.47,1.136,1.98C315.979,80.169,315.422,79.689,315.419,78.654z"/>
	<path d="M311.46,79.786c0.696-0.954,1.049,0.815,0.848,1.697C311.559,81.382,312.053,80.042,311.46,79.786z"/>
	<path d="M259.126,80.635c0.189,0,0.379,0,0.566,0c0,0.189,0,0.376,0,0.565c-0.185,0-0.377,0-0.566,0
		C259.126,81.011,259.126,80.824,259.126,80.635z"/>
	<path d="M268.463,80.917c1.04-0.097,0.855,1.031,1.133,1.698C268.952,82.313,268.566,81.757,268.463,80.917z"/>
	<path d="M302.124,80.917c1.021-0.269,0.395,1.114,0.57,1.698C302.285,82.267,302.154,81.643,302.124,80.917z"/>
	<path d="M264.219,81.2c0.968-0.119,0.85,0.848,1.414,1.132C265.21,83.009,264.218,81.884,264.219,81.2z"/>
	<path d="M266.481,81.483c0.653-0.905,1.372,0.493,1.132,1.415C266.583,83.079,267.263,81.55,266.481,81.483z"/>
	<path d="M273.271,81.2c1.243,0.028,0.034,1.709,0,2.264C272.434,82.968,273.435,81.956,273.271,81.2z"/>
	<path d="M279.777,81.2C281.172,82.864,279.745,83.912,279.777,81.2L279.777,81.2z"/>
	<path d="M283.171,81.2c0.896,0.049,0.768,1.12,0.85,1.981C283.228,83.03,283.498,81.818,283.171,81.2z"/>
	<path d="M287.133,81.2c0.656,0.285,0.912,0.975,0.849,1.981C287.521,82.698,287.124,82.151,287.133,81.2z"/>
	<path d="M297.599,81.2c1.113-0.453,0.098,1.221,0.849,1.132C298.055,83.15,297.446,81.857,297.599,81.2z"/>
	<path d="M274.969,81.483c0.39,0.138,0.687,2.55-0.284,2.264C274.731,82.42,274.744,82.137,274.969,81.483z"/>
	<path d="M277.23,81.483c1.023-0.267,0.396,1.115,0.566,1.698C277.329,82.895,277.49,81.98,277.23,81.483z"/>
	<path d="M256.58,83.464c-0.497,0.09-0.5-1.584,0.284-1.131C256.983,82.923,256.67,83.081,256.58,83.464z"/>
	<path d="M251.489,88.556c1.251-0.001-0.259,1.137,0.853,1.415C251.778,90.871,251.237,89.399,251.489,88.556z"/>
	<path d="M246.114,89.121c0.334,0.425,0.817,0.693,0.853,1.414C246.08,90.665,246.058,89.932,246.114,89.121z"/>
	<path d="M252.904,92.516C253.921,94.129,252.187,93.758,252.904,92.516L252.904,92.516z"/>
	<path d="M258.278,94.212c0.188,0,0.377,0,0.566,0c0,0.189,0,0.378,0,0.566c-0.189,0-0.378,0-0.566,0
		C258.278,94.591,258.278,94.402,258.278,94.212z"/>
	<path d="M260.543,94.779c0.185,0,0.377,0,0.565,0c0,0.188,0,0.378,0,0.566c-0.188,0-0.379,0-0.565,0
		C260.543,95.155,260.543,94.967,260.543,94.779z"/>
	<path d="M238.193,95.626c0.498,0.067,0.645,0.488,0.566,1.133C237.909,97.044,238.259,96.129,238.193,95.626z"/>
	<path d="M258.278,95.91c0.116-0.705,1.095-0.018,0.848,0.566C258.756,96.376,258.682,95.978,258.278,95.91z"/>
	<path d="M236.498,97.325c0.289-0.631,1.891-0.224,1.692,0.567C237.534,97.796,237.024,97.55,236.498,97.325z"/>
	<path d="M258.561,97.325c0.188,0,0.377,0,0.564,0c0,0.188,0,0.378,0,0.567c-0.188,0-0.376,0-0.564,0
		C258.561,97.701,258.561,97.513,258.561,97.325z"/>
	<path d="M245.832,97.892C247.057,98.009,245.534,99.531,245.832,97.892L245.832,97.892z"/>
	<path d="M254.601,98.173c0.606-0.133,0.538,0.405,0.569,0.853c-0.229-0.058-0.283-0.287-0.569-0.283
		C254.601,98.55,254.601,98.362,254.601,98.173z"/>
	<path d="M258.844,98.173c0.188,0,0.379,0,0.564,0c0,0.188,0,0.379,0,0.569c-0.184,0-0.376,0-0.564,0
		C258.844,98.55,258.844,98.362,258.844,98.173z"/>
	<path d="M250.076,99.022C250.932,97.975,251.029,99.882,250.076,99.022L250.076,99.022z"/>
	<path d="M242.436,99.022c0.189,0,0.378,0,0.566,0c0,0.188,0,0.377,0,0.565c-0.188,0-0.377,0-0.566,0
		C242.436,99.399,242.436,99.209,242.436,99.022z"/>
	<path d="M245.549,99.587c0.115-0.703,1.097-0.018,0.849,0.565C245.77,100.308,245.995,99.613,245.549,99.587z"/>
	<path d="M254.884,99.304c0.187,0,0.378,0,0.566,0c0,0.189,0,0.379,0,0.565c-0.188,0-0.379,0-0.566,0
		C254.884,99.683,254.884,99.494,254.884,99.304z"/>
	<path d="M242.436,99.87c0.189,0,0.378,0,0.566,0c0,0.19,0,0.379,0,0.567c-0.188,0-0.377,0-0.566,0
		C242.436,100.248,242.436,100.06,242.436,99.87z"/>
	<path d="M250.357,99.87c0.189,0,0.377,0,0.565,0c0,0.19,0,0.379,0,0.567c-0.188,0-0.376,0-0.565,0
		C250.357,100.248,250.357,100.06,250.357,99.87z"/>
	<path d="M259.126,99.87c0.826-0.415,0.826,1.265,0,0.851C259.126,100.437,259.126,100.153,259.126,99.87z"/>
	<path d="M234.233,102.417c0.399-0.651,1.844,0.021,1.693,0.849C235.225,103.122,234.986,102.511,234.233,102.417z"/>
	<path d="M233.385,115.995c0.126,0.54,0.613,0.711,0.569,1.415c-1.11,0.26-0.713-0.985-1.979-0.566
		C232.166,116.286,232.725,116.089,233.385,115.995z"/>
	<path d="M228.294,129.855c0,0.379,0,0.756,0,1.135c-0.275-0.01-0.22-0.345-0.287-0.568c-0.4-0.021-0.801-0.047-0.849,0.285
		C226.326,130.297,227.501,129.566,228.294,129.855z"/>
	<path d="M244.134,89.687c0.624-0.119,1.564,0.847,0.853,1.132c-0.71,0.243-1.515,0.37-1.413-0.849l0.424,0.141L244.134,89.687z"/>
	<path d="M262.38,91.525l-0.425-0.141c0.246-0.414,0.425-0.897,1.136-0.85l0.139,0.425l0.425-0.141
		c0.02,3.182,1.965,4.447,2.546,7.072l-0.425-0.141l-0.139,0.423c-0.256-0.175-0.506-0.339-0.57,0l-0.282-0.139l-0.282-0.141
		c-0.795-1.939-2.09-3.381-2.264-5.943L262.38,91.525z"/>
	<path d="M226.393,92.617l0.485,0.465c-0.999,2.584-0.589,6.579-2.829,7.92c-0.643-0.987-0.32-2.857,0-4.24
		c0.348-1.5,1.026-2.849,1.697-3.961L226.393,92.617z"/>
	<path d="M228.577,43.012c-0.316-1.014-0.038-2.922,0-3.678l0.212,0.283h0.354c0.503,0.84,0.811,2.361,0.281,3.677l-0.329-0.424
		L228.577,43.012z"/>
	<path d="M230.555,55.458c-0.698-0.995-1.014-2.379-1.131-3.96l0.518,0.142l0.33-0.424c0.923,0.776,0.896,2.502,0.853,4.243
		l-0.281-0.141L230.555,55.458z"/>
	<path d="M222.069,47.821v0.566c-0.698,0.043-1.173-0.146-1.412-0.566c0.871,0.211,0.54-0.777,1.412-0.565V47.821z"/>
	<path d="M254.318,30c-0.207-0.931,0.562-0.434,0.568,0c0.226-0.243,0.775-0.168,0.85-0.566c0.712,0.284-0.226,1.252-0.85,1.132
		C254.988,30.083,254.663,30.032,254.318,30z"/>
	<path d="M243.003,101.283C242.732,99.466,243.222,102.762,243.003,101.283L243.003,101.283z"/>
	<g>
		<path fill="none" stroke="#000000" stroke-width="0.6893" stroke-linecap="round" d="M253.469,33.676
			c-0.141-0.141-0.282-0.283-0.424-0.424"/>
		<path fill="none" stroke="#000000" stroke-width="0.5692" stroke-linecap="round" d="M242.012,33.394
			c-0.111,0.08-0.177,0.364-0.358,0.636c-0.151,0.035-0.32,0.054-0.49,0.072"/>
		<path fill="none" stroke="#000000" stroke-width="0.4576" stroke-linecap="round" d="M250.217,37.495
			c0.896-0.46,1.37-1.386,1.696-2.263"/>
		<path fill="none" stroke="#000000" stroke-width="0.4303" stroke-linecap="round" d="M247.387,36.364
			c0.26-0.118,0.458-0.296,0.566-0.566"/>
		<path fill="none" stroke="#000000" stroke-width="0.4513" stroke-linecap="round" d="M246.256,38.345
			c0.1-0.182,0.219-0.346,0.283-0.566"/>
		<path fill="none" stroke="#000000" stroke-width="0.4767" stroke-linecap="round" d="M232.678,47.961
			c1.431-2.294,3.204-4.644,4.521-7.072"/>
		<path fill="none" stroke="#000000" stroke-width="0.5043" stroke-linecap="round" d="M257.006,40.891
			c-0.184,2.243-2.347,3.584-2.829,5.658"/>
		<path fill="none" stroke="#000000" stroke-width="0.5504" stroke-linecap="round" d="M255.592,71.582
			c-4.588-0.498-8.093-4.14-11.171-7.071"/>
		<path fill="none" stroke="#000000" stroke-width="0.7816" stroke-linecap="round" d="M314.288,80.776
			c-0.051-0.347-0.26-0.458-0.282-0.849"/>
		<path fill="none" stroke="#000000" stroke-width="0.6024" stroke-linecap="round" d="M271.432,82.474
			c-0.051-0.241-0.106-0.392-0.14-0.566"/>
		<path fill="none" stroke="#000000" stroke-width="0.4554" stroke-linecap="round" d="M251.066,85.868
			c0.15-0.034,0.219-0.157,0.283-0.282"/>
		<path fill="none" stroke="#000000" stroke-width="0.4554" stroke-linecap="round" d="M253.895,90.112c0-0.189,0-0.377,0-0.566"/>
		<path fill="none" stroke="#000000" stroke-width="0.4513" stroke-linecap="round" d="M257.853,90.676c0-0.283,0-0.564,0-0.848"/>
		<path fill="none" stroke="#000000" stroke-width="0.4702" stroke-linecap="round" d="M236.072,90.96
			c0.471-0.344,1.214-0.529,1.413-1.132"/>
		<path fill="none" stroke="#000000" stroke-width="0.4854" stroke-linecap="round" d="M238.053,91.809
			c0.457-0.01,0.728-0.463,1.133-0.565"/>
		<path fill="none" stroke="#000000" stroke-width="0.5091" stroke-linecap="round" d="M240.315,92.657
			c0.094-0.19,0.286-0.28,0.422-0.424"/>
		<path fill="none" stroke="#000000" stroke-width="0.3944" stroke-linecap="round" d="M251.349,93.505
			c0.061,0.03,0.128,0.061,0.193,0.09c0.044,0.239,0.199,0.367,0.371,0.477"/>
		<path fill="none" stroke="#000000" stroke-width="0.4409" stroke-linecap="round" d="M244.275,94.354
			c0.19-0.094,0.281-0.286,0.425-0.423"/>
		<path fill="none" stroke="#000000" stroke-width="0.4303" stroke-linecap="round" d="M249.367,93.79
			c0.066,0.027,0.133,0.057,0.198,0.084c0.057,0.226,0.067,0.499,0.085,0.764"/>
		<path fill="none" stroke="#000000" stroke-width="0.5692" stroke-linecap="round" d="M235.79,99.729
			c0.186,0.19,0.27,0.483,0.42,0.707"/>
		<path fill="none" stroke="#000000" stroke-width="0.4714" stroke-linecap="round" d="M230.979,119.813
			c0.425-0.319,1.071-0.407,1.558-0.141"/>
		<path fill="none" stroke="#000000" stroke-width="0.6043" stroke-linecap="round" d="M230.134,122.641
			c0.443-0.136,1.239-0.31,1.412,0.284"/>
		<path fill="none" stroke="#000000" stroke-width="0.5755" stroke-linecap="round" d="M230.555,125.33
			c-0.319-0.497-0.836-0.049-1.273-0.141"/>
		<path fill="none" stroke="#000000" stroke-width="0.6155" stroke-linecap="round" d="M228.151,127.734
			c0.548-0.452,1.295,0.219,1.131,0.849"/>
		<path fill="none" stroke="#000000" stroke-width="0.4221" stroke-linecap="round" d="M225.889,132.26
			c0.498-0.024,0.979-0.037,1.134,0.282"/>
		<path fill="none" stroke="#000000" stroke-width="0.4948" stroke-linecap="round" d="M224.898,134.666
			c0.386-0.222,0.962-0.218,1.272,0.14"/>
		<path fill="none" stroke="#000000" stroke-width="0.6997" stroke-linecap="round" d="M223.485,136.362
			c0.439-0.057,0.852,0.056,1.273,0.141"/>
		<path fill="none" stroke="#000000" stroke-width="0.4762" stroke-linecap="round" d="M222.494,138.2
			c0.365,0.041,1.031-0.281,1.131,0.284"/>
		<path fill="none" stroke="#000000" stroke-width="0.7576" stroke-linecap="round" d="M222.069,140.04c-0.271,0-0.608,0-0.849,0"/>
		<path fill="none" stroke="#000000" stroke-width="0.4117" stroke-linecap="round" d="M221.362,142.161
			c-0.252-0.125-0.442-0.312-0.629-0.507c-0.363-0.021-0.609,0.223-1.065,0.223"/>
		<path fill="none" stroke="#000000" stroke-width="0.4204" stroke-linecap="round" d="M218.818,143.576
			c0.023-0.065,0.056-0.133,0.083-0.198c0.407-0.219,0.967,0.039,1.047,0.479"/>
		<path fill="none" stroke="#000000" stroke-width="0.4605" stroke-linecap="round" d="M128.862,166.771
			c0.564-0.487,1.271-1.06,1.976-1.414"/>
		<path fill="none" stroke="#000000" stroke-width="0.8538" stroke-linecap="round" d="M240.74,90.252
			c1.215,1.306,3.109,1.834,4.856,1.838"/>
		<path fill="none" stroke="#000000" stroke-width="0.7862" stroke-linecap="round" d="M245.596,92.092
			c0.891-1.077,2.488-0.74,3.629-1.343"/>
		<path fill="none" stroke="#000000" stroke-width="0.6235" stroke-linecap="round" d="M249.225,90.749
			c-0.001-0.357-0.104-0.585-0.139-0.92"/>
		<path fill="none" stroke="#000000" stroke-width="0.7969" stroke-linecap="round" d="M249.225,90.749
			c0.572,0.17,1.265-0.111,1.729,0.382"/>
		<path fill="none" stroke="#000000" stroke-width="0.8867" stroke-linecap="round" d="M250.953,91.129
			c1.81-0.203,3.189,0.819,4.767,1.425"/>
		<path fill="none" stroke="#000000" stroke-width="1.4843" stroke-linecap="round" d="M255.719,92.555
			c0.1-0.025,0.193-0.05,0.296-0.075"/>
		<path fill="none" stroke="#000000" stroke-width="0.6406" stroke-linecap="round" d="M256.014,92.48
			c0.304-0.975-0.23-1.965,0.143-2.935"/>
		<path fill="none" stroke="#000000" stroke-width="0.9476" stroke-linecap="round" d="M256.014,92.48
			c2.054,0.954,4.384-0.308,6.365-0.955"/>
		<path fill="none" stroke="#000000" stroke-width="0.7576" stroke-linecap="round" d="M263.228,90.96
			c0.46-0.758,0.857-1.653,1.697-2.075"/>
		<path fill="none" stroke="#000000" stroke-width="0.7697" stroke-linecap="round" d="M264.926,88.885
			c-0.102-1.191,0.764-2.13,0.707-3.299"/>
		<path fill="none" stroke="#000000" stroke-width="0.7929" stroke-linecap="round" d="M264.926,88.885
			c11.106,0.008,22.492,0.909,33.561,2.708c7.835,1.273,15.982,1.861,23.479,3.396c6.935,1.417,14.032,3.142,21.216,5.09
			c2.839,0.774,5.626,1.864,8.487,2.547c7.853,1.871,15.61,3.635,22.448,6.581"/>
		<path fill="none" stroke="#000000" stroke-width="0.8314" stroke-linecap="round" d="M266.481,99.446
			c-0.17-0.562-0.452-1.131-0.707-1.694"/>
		<path fill="none" stroke="#000000" stroke-width="0.7684" stroke-linecap="round" d="M264.784,99.165c0-0.379,0-0.754,0-1.133"/>
		<path fill="none" stroke="#000000" stroke-width="0.8589" stroke-linecap="round" d="M255.719,92.555
			c-1.999,5.859-9.933,4.29-14.063,2.293"/>
		<path fill="none" stroke="#000000" stroke-width="0.8264" stroke-linecap="round" d="M241.659,94.849
			c-1.412,0.147-2.534-0.884-3.887-1.059"/>
		<path fill="none" stroke="#000000" stroke-width="0.5861" stroke-linecap="round" d="M237.769,93.79
			c-4.056,2.993-3.896,9.112-5.158,14.327c-2.783,11.494-5.317,22.89-13.16,31.851c-0.683,1.793-2.248,3.164-2.756,5.022"/>
		<path fill="none" stroke="#000000" stroke-width="0.6304" stroke-linecap="round" d="M216.695,144.989
			c0.707,0.004,1.971-0.548,2.126,0.566"/>
		<path fill="none" stroke="#000000" stroke-width="0.7099" stroke-linecap="round" d="M216.695,144.989
			c-0.434,0.287-0.968,0.652-0.849,1.272"/>
		<path fill="none" stroke="#000000" stroke-width="0.4992" stroke-linecap="round" d="M215.846,146.261
			c0.716-0.254,1.453-0.145,2.122,0.14"/>
		<path fill="none" stroke="#000000" stroke-width="0.8818" stroke-linecap="round" d="M215.846,146.261
			c-0.53,0.282-0.873,0.835-0.99,1.414"/>
		<path fill="none" stroke="#000000" stroke-width="0.7387" stroke-linecap="round" d="M214.856,147.677
			c1.256-0.235,2.487,0.138,2.97,1.413"/>
		<path fill="none" stroke="#000000" stroke-width="0.541" stroke-linecap="round" d="M217.827,149.09
			c1.155-0.749,3.091-3.404,4.364-5.25c5.55-8.051,12.182-20.489,12.252-28.978"/>
		<path fill="none" stroke="#000000" stroke-width="0.5931" stroke-linecap="round" d="M234.446,114.863
			c-0.215,0.011-0.348-0.015-0.475-0.042c-0.096-0.172-0.14-0.407-0.245-0.585c-0.185-0.106-0.326-0.17-0.479-0.208
			c-0.137,0.042-0.353,0.1-0.57,0.127"/>
		<path fill="none" stroke="#000000" stroke-width="0.5669" stroke-linecap="round" d="M234.446,114.863
			c0.354-1.16,0.213-2.44,0.307-3.633"/>
		<path fill="none" stroke="#000000" stroke-width="0.7637" stroke-linecap="round" d="M234.753,111.23
			c-0.279-0.048-0.793-0.041-1.085-0.044"/>
		<path fill="none" stroke="#000000" stroke-width="0.6767" stroke-linecap="round" d="M234.753,111.23
			c0.337-0.685,0.402-1.501,0.282-2.26"/>
		<path fill="none" stroke="#000000" stroke-width="0.6235" stroke-linecap="round" d="M235.035,108.969
			c-0.419-0.025-0.797-0.232-1.226-0.188"/>
		<path fill="none" stroke="#000000" stroke-width="0.6758" stroke-linecap="round" d="M235.035,108.969
			c0.97-4.364,2.408-8.915,5.423-12.352"/>
		<path fill="none" stroke="#000000" stroke-width="0.6315" stroke-linecap="round" d="M237.769,93.79
			c-0.657-1.394-2.604-1.247-3.536-2.405"/>
		<path fill="none" stroke="#000000" stroke-width="0.5773" stroke-linecap="round" d="M241.659,94.849
			c0.221-0.694,1-0.942,1.206-1.626"/>
		<path fill="none" stroke="#000000" stroke-width="0.654" stroke-linecap="round" d="M246.821,92.657
			c-0.067,0.582,0.212,1.115,0.142,1.697"/>
		<path fill="none" stroke="#000000" stroke-width="0.5752" stroke-linecap="round" d="M109.766,185.868
			c1.241,0.554,1.534,2.229,0.688,3.237c-3.791,1.677-8.167-0.437-11.355-2.449c-0.632-0.888-1.617-1.453-2.554-1.977
			c-2.866-2.401-5.204-4.638-7.504-7.785c-1.818-2.493-3.731-3.959-5.786-6.625c-2.583-3.354-5.04-7.605-7.942-11.895
			c-3.672-5.431-8.059-10.812-11.167-15.989c-4.924-8.201-10.345-15.383-14.354-22.83c-0.943-1.762-3.558-6.001,0.707-5.52
			c1.101,0.125,1.613,1.151,3.257,2.249"/>
		<path fill="none" stroke="#000000" stroke-width="0.5189" stroke-linecap="round" d="M53.757,116.279
			c14.399-7.761,30.731-19.085,41.425-32.403c7.851-9.78,14.624-21.157,24.408-29.042c6.889-8.251,14.301-16.229,21.915-23.925
			c2.05-2.77,4.54-5.209,6.798-7.912c2.966-3.549,5.091-7.581,8.067-10.881c7.504-8.326,17.316-6.354,28.274-4.378
			c20.242,3.694,42.025,4.608,60.259,14.139c1.612,0.843,3.397,1.468,4.463,3.175"/>
		<path fill="none" stroke="#000000" stroke-width="0.5292" stroke-linecap="round" d="M249.367,25.049
			c4.095,0.526,10.35,2.643,9.335,7.92"/>
		<path fill="none" stroke="#000000" stroke-width="0.5667" stroke-linecap="round" d="M258.703,32.97
			c0.624,0.315,0.937,1.039,1.615,1.213c3.857,3.239,8.535,6.986,13.727,10.602c6.189,4.31,13.377,7.827,18.092,12.409
			c0.309,0.3,0.624,0.547,0.856,0.854c5.763,7.74-1.029,16.173-9.108,16.918c-4.523,0.418-9.689-0.683-14.148-2.534"/>
		<path fill="none" stroke="#000000" stroke-width="0.7721" stroke-linecap="round" d="M258.703,32.97
			c-0.426,0.453-0.39,1.089-0.638,1.627"/>
		<path fill="none" stroke="#000000" stroke-width="0.9583" stroke-linecap="round" d="M258.065,34.597
			c1.318,4.636,2.343,9.413,2.196,14.32"/>
		<path fill="none" stroke="#000000" stroke-width="0.8497" stroke-linecap="round" d="M263.039,76.91
			c0.33,0.416,0.385,0.848,0.473,1.32"/>
		<path fill="none" stroke="#000000" stroke-width="0.7348" stroke-linecap="round" d="M263.511,78.23
			c0.28,0.237,0.383,0.675,0.569,1.132"/>
		<path fill="none" stroke="#000000" stroke-width="0.707" stroke-linecap="round" d="M264.077,79.362
			c0.543,0.265,0.665,0.433,0.707,0.919"/>
		<path fill="none" stroke="#000000" stroke-width="0.6832" stroke-linecap="round" d="M264.784,80.281
			c6.825,0.155,13.682,0.093,20.51,0.354"/>
		<path fill="none" stroke="#000000" stroke-width="0.7654" stroke-linecap="round" d="M285.294,80.635
			c1.176,0.045,2.372-0.092,3.535,0.07"/>
		<path fill="none" stroke="#000000" stroke-width="0.8375" stroke-linecap="round" d="M288.829,80.705
			c0.891-0.087,1.827-0.249,2.688,0.072"/>
		<path fill="none" stroke="#000000" stroke-width="0.8589" stroke-linecap="round" d="M291.516,80.776
			c0.628-0.168,1.354-0.208,1.98,0"/>
		<path fill="none" stroke="#000000" stroke-width="1.0143" stroke-linecap="round" d="M293.498,80.776
			c0.666,0.007,1.317,0.206,1.977,0.283"/>
		<path fill="none" stroke="#000000" stroke-width="0.7018" stroke-linecap="round" d="M295.476,81.059
			c1.42-0.608,3.01-0.378,4.526-0.424"/>
		<path fill="none" stroke="#000000" stroke-width="0.5773" stroke-linecap="round" d="M300.003,80.635
			c1.339-0.188,2.642-0.519,3.96-0.707"/>
		<path fill="none" stroke="#000000" stroke-width="0.493" stroke-linecap="round" d="M303.963,79.928
			c0.744-0.079,1.495-0.52,2.264-0.142"/>
		<path fill="none" stroke="#000000" stroke-width="0.5091" stroke-linecap="round" d="M306.226,79.786
			c0.577-0.178,1.284-0.255,1.843,0"/>
		<path fill="none" stroke="#000000" stroke-width="0.6845" stroke-linecap="round" d="M308.066,79.786
			c0.467-0.578,1.294-0.673,1.977-0.496"/>
		<path fill="none" stroke="#000000" stroke-width="0.5241" stroke-linecap="round" d="M310.045,79.291
			c5.844-1.229,11.354-2.967,16.977-4.879"/>
		<path fill="none" stroke="#000000" stroke-width="0.7589" stroke-linecap="round" d="M310.045,79.291c0,0.56,0,1.025,0,1.344"/>
		<path fill="none" stroke="#000000" stroke-width="0.6831" stroke-linecap="round" d="M308.066,79.786
			c-0.075,0.453,0.18,0.853,0.283,1.273"/>
		<path fill="none" stroke="#000000" stroke-width="0.5692" stroke-linecap="round" d="M306.226,79.786
			c0.002,0.525,0.106,0.745,0.141,0.99"/>
		<path fill="none" stroke="#000000" stroke-width="0.5217" stroke-linecap="round" d="M303.963,79.928
			c-0.19,0.611,0.563,0.856,0.57,1.414"/>
		<path fill="none" stroke="#000000" stroke-width="0.493" stroke-linecap="round" d="M300.003,80.635
			c-0.096,0.522,0.213,0.972,0.424,1.414"/>
		<path fill="none" stroke="#000000" stroke-width="0.54" stroke-linecap="round" d="M295.476,81.059
			c0.19,0.292,0.281,0.501,0.425,0.707"/>
		<path fill="none" stroke="#000000" stroke-width="0.4221" stroke-linecap="round" d="M293.498,80.776
			c-0.072,0.518,0.032,0.985,0.282,1.414"/>
		<path fill="none" stroke="#000000" stroke-width="0.5755" stroke-linecap="round" d="M291.516,80.776
			c-0.287,0.545,0.245,1.068,0.421,1.556"/>
		<path fill="none" stroke="#000000" stroke-width="0.6831" stroke-linecap="round" d="M288.829,80.705
			c-0.14,0.669,0.673,0.929,0.853,1.485"/>
		<path fill="none" stroke="#000000" stroke-width="0.5427" stroke-linecap="round" d="M285.294,80.635
			c-0.104,0.644,0.17,1.229,0.286,1.839"/>
		<path fill="none" stroke="#000000" stroke-width="0.7798" stroke-linecap="round" d="M261.249,81.342
			c-0.51,0.636-1.474,0.512-1.84,1.273"/>
		<path fill="none" stroke="#000000" stroke-width="0.6925" stroke-linecap="round" d="M259.409,82.615
			c0.441,0.39,1.161,0.222,1.557,0.707"/>
		<path fill="none" stroke="#000000" stroke-width="0.9895" stroke-linecap="round" d="M259.409,82.615
			c-1.271-0.286-2.111,0.555-2.687,1.556"/>
		<path fill="none" stroke="#000000" stroke-width="0.649" stroke-linecap="round" d="M256.723,84.171
			c0.064,0.175,0.12,0.295,0.168,0.411c0.416,0.345,0.918-0.094,1.388,0.013"/>
		<path fill="none" stroke="#000000" stroke-width="0.7397" stroke-linecap="round" d="M255.237,85.515
			c0.437,0.29,1.007,0.177,1.488,0.354"/>
		<path fill="none" stroke="#000000" stroke-width="0.8689" stroke-linecap="round" d="M253.895,87.565
			c1.174,0.205,2.423,0.193,3.602,0.213"/>
		<path fill="none" stroke="#000000" stroke-width="0.7945" stroke-linecap="round" d="M257.5,87.778
			c0.667-1.628,2.548-2.667,4.174-2.829"/>
		<path fill="none" stroke="#000000" stroke-width="0.7494" stroke-linecap="round" d="M261.674,84.949
			c0.604-0.296,1.174-0.634,1.838-0.778"/>
		<path fill="none" stroke="#000000" stroke-width="0.649" stroke-linecap="round" d="M263.511,84.171
			c-0.136-0.658-0.139-1.385-0.849-1.697"/>
		<path fill="none" stroke="#000000" stroke-width="0.827" stroke-linecap="round" d="M263.511,84.171
			c5.965,0.615,12.002,0.279,17.966-0.142"/>
		<path fill="none" stroke="#000000" stroke-width="0.6315" stroke-linecap="round" d="M281.474,84.029
			c-0.087-0.63,0.217-1.206,0.14-1.839"/>
		<path fill="none" stroke="#000000" stroke-width="0.5855" stroke-linecap="round" d="M281.474,84.029
			c5.05,0.607,10.358-0.246,15.414-0.012c10.568-1.812,22.181-0.201,31.887-5.02c1.254-1.25,3.549-2.159,3.05-4.405
			c-0.528-0.93-1.938-1.348-2.895-0.812c-0.062,0.131-0.12,0.235-0.18,0.339c-0.047,0.649-0.259,1.754,0.67,1.848"/>
		<path fill="none" stroke="#000000" stroke-width="0.7637" stroke-linecap="round" d="M261.674,84.949
			c-0.008,0.47,0.007,0.783,0.045,1.014"/>
		<path fill="none" stroke="#000000" stroke-width="0.5792" stroke-linecap="round" d="M261.719,85.963
			c0.787,0.118,1.555-0.215,2.358-0.095"/>
		<path fill="none" stroke="#000000" stroke-width="0.5091" stroke-linecap="round" d="M260.681,87.282
			c0.789,0.363,1.813,0.219,2.126,1.273"/>
		<path fill="none" stroke="#000000" stroke-width="0.4537" stroke-linecap="round" d="M259.363,87.942
			c0.16,0.934,1.415,1.106,1.318,2.169"/>
		<path fill="none" stroke="#000000" stroke-width="0.6024" stroke-linecap="round" d="M243.521,89.075
			c0.214,0.382,0.288,0.631,0.472,1.037"/>
		<path fill="none" stroke="#000000" stroke-width="0.5579" stroke-linecap="round" d="M53.757,116.279
			c0.003,0.021,0.008,0.045,0.012,0.067c2.854,4.118,3.983,8.081,5.939,12.757c2.847,6.804,6.283,12.403,10.53,17.654
			c3.895,4.813,8.214,9.729,12.655,15.066"/>
		<path fill="none" stroke="#000000" stroke-width="0.5625" stroke-linecap="round" d="M109.766,185.868
			c-0.187-0.098-0.339-0.225-0.485-0.362c-1.409-0.219-2.785,0.086-4.182,0.078"/>
		<path fill="none" stroke="#000000" stroke-width="0.5748" stroke-linecap="round" d="M109.766,185.868
			c3.34-4.066,7.217-7.703,10.968-11.381c1.688-1.787,4.44-3.774,4.547-6.428c-0.232-0.143-0.465-0.245-0.66-0.286
			c-4.876,0.936-11.006,4.712-15.758,5.311c-1.357,0.176-3.589,0.935-4.182-1.47c2.923-4.85,8.58-5.769,13.057-6.908
			c4.1-1.047,11.586-2.249,16.256-3.266c2.585-0.565,9.976-2.012,8.611-5.401c-1.507-3.728-10.848-0.274-13.219,0.511
			c-4.71,1.562-11.275,4.811-16.077,4.98c-5.098,0.18-7.876-4.952-3.618-7.421c8.603-4.991,23.771-4.518,33.569-5.587
			c4.495-0.494,8.295-3.045,9.674-7.464c4.803-2.024,10.458-0.012,15.475-1.6c5.488-2.41,12.121-5.867,17.015-9.606
			c1.077-0.822,1.848-2.049,2.864-2.95c2.565-2.271,5.075-4.07,7.513-6.668c0.936-0.999,2.27-1.883,3.398-3.103
			c4.325-4.699,6.918-10.831,10.468-15.842c1.07-1.517,2.344-3.074,4.243-4.174c3.558-2.061,9.304-3.795,12.484-4.5"/>
		<path fill="none" stroke="#000000" stroke-width="0.7263" stroke-linecap="round" d="M226.393,92.617
			c3.731-2.27,7.997-3.33,12.225-4.203"/>
		<path fill="none" stroke="#000000" stroke-width="0.5955" stroke-linecap="round" d="M238.618,88.415
			c7.628-2.032,14.842-5.158,21.594-9.242"/>
		<path fill="none" stroke="#000000" stroke-width="0.6457" stroke-linecap="round" d="M260.212,79.173
			c0.712-0.955,1.822-1.661,2.827-2.263"/>
		<path fill="none" stroke="#000000" stroke-width="0.8627" stroke-linecap="round" d="M263.039,76.91
			c0.017-0.037,0.023-0.073,0.034-0.11c1.016-1.186,2.68-1.932,3.977-3.646c4.843-6.386,2.716-20.864-3.438-23.562
			c-0.805-0.353-2.774-0.254-3.354-0.677"/>
		<path fill="none" stroke="#000000" stroke-width="0.6764" stroke-linecap="round" d="M260.259,48.917
			c-10.31-0.357-20.282,3.365-29.088,8.287"/>
		<path fill="none" stroke="#000000" stroke-width="0.5304" stroke-linecap="round" d="M231.17,57.204
			c-1.151,1.212-2.926,2.096-4.526,2.452"/>
		<path fill="none" stroke="#000000" stroke-width="0.542" stroke-linecap="round" d="M226.643,59.655
			c-6.925,3.681-15.067,4.484-22.631,6.223"/>
		<path fill="none" stroke="#000000" stroke-width="0.5751" stroke-linecap="round" d="M204.013,65.877
			c-6.273,1.631-12.62,3.765-18.65,5.988"/>
		<path fill="none" stroke="#000000" stroke-width="0.5408" stroke-linecap="round" d="M204.013,65.877
			c-0.016-0.05-0.024-0.101-0.035-0.15c-0.018-0.602,0.418-1.242,1.038-1.278c1.217-4.225,6.779-7.849,8.927-11.176
			c0.459-0.712,1.07-1.572,0.548-2.683c-4.62-3.647-10.247-5.864-15.28-9c-0.053-0.266-0.061-0.604-0.012-0.829
			c3.725-0.384,7.86,0.93,10.633,3.457c2.281,0.819,3.204,2.379,4.8,3.678c4.867,3.957,7.018-2.768,6.398-8.375
			c-0.209-1.909-0.791-4.336,0.121-5.718c0.25-0.099,0.489,0.03,0.687,0.091c1.9,4.223,3.191,9.806,0.229,13.928"/>
		<path fill="none" stroke="#000000" stroke-width="0.6146" stroke-linecap="round" d="M222.069,47.821
			c2.4,0.512,4.798,0.888,7.167,1.414"/>
		<path fill="none" stroke="#000000" stroke-width="0.9693" stroke-linecap="round" d="M229.236,49.235
			c0.401-2.049-0.708-4.203-0.14-6.365"/>
		<path fill="none" stroke="#000000" stroke-width="0.4787" stroke-linecap="round" d="M226.643,59.655
			c-0.012-0.052-0.02-0.102-0.034-0.153c-2.622-0.641-5.649-1.259-7.791-2.771"/>
		<path fill="none" stroke="#000000" stroke-width="0.7422" stroke-linecap="round" d="M231.17,57.204
			c-0.538-0.476-0.259-1.265-0.33-1.887"/>
		<path fill="none" stroke="#000000" stroke-width="0.6461" stroke-linecap="round" d="M228.505,37
			c6.419,2.612,13.961,3.03,20.862,2.05"/>
		<path fill="none" stroke="#000000" stroke-width="0.5222" stroke-linecap="round" d="M249.367,39.052
			c3.282-0.704,5.863-2.764,8.697-4.455"/>
		<path fill="none" stroke="#000000" stroke-width="0.5977" stroke-linecap="round" d="M249.367,25.049
			c-3.947,0.151-11.843,0.217-16.873,2.33c-3.72,1.561-6.776,5.406-3.989,9.622"/>
		<path fill="none" stroke="#000000" stroke-width="1.075" stroke-linecap="round" d="M229.236,49.235
			c0.378,0.773,0.639,1.549,0.706,2.405"/>
		<path fill="none" stroke="#000000" stroke-width="0.4759" stroke-linecap="round" d="M249.367,39.052
			c-1.151,4.262-3.894,7.724-6.364,11.315"/>
		<path fill="none" stroke="#000000" stroke-width="0.7476" stroke-linecap="round" d="M228.505,37
			c-0.062,0.898,0.613,1.709,0.283,2.617"/>
		<path fill="none" stroke="#000000" stroke-width="0.6129" stroke-linecap="round" d="M185.365,71.865
			c-0.467-11.494-9.587-23.491-21.403-24.334c-0.369,0.572-1.171,1-1.011,1.803c0.259,2.004,2.466,2.283,4.3,3.235
			c5.637,2.926,10.944,7.329,10.474,13.991c-4.171,0.484-8.677-1.313-13.275-2.025c-4.515-0.697-9.596-0.947-13.873,1.716
			c0.599,5.297,7.547,2.681,11.093,3.905c4.943,0.189,10.37-1.777,15.129,0.022c0.161,0.305,0.14,0.812,0.149,1.261
			c-4.339,4.765-12.126,5.069-15.969,10.179c0.06,0.184,0.099,0.525,0.211,0.773c3.718,1.436,8.311-1.142,12.12-3.271
			C177.503,76.779,181.744,73.948,185.365,71.865"/>
		<path fill="none" stroke="#000000" stroke-width="0.7422" stroke-linecap="round" d="M260.212,79.173
			c0.329,0.39,0.537,0.863,0.754,1.321"/>
		<path fill="none" stroke="#000000" stroke-width="0.5516" stroke-linecap="round" d="M260.966,80.494
			c0.987-0.498,1.939-1.186,3.111-1.132"/>
		<path fill="none" stroke="#000000" stroke-width="0.6085" stroke-linecap="round" d="M263.511,78.23
			c-0.651,0.018-1.078,0.558-1.693,0.566"/>
		<path fill="none" stroke="#000000" stroke-width="0.8191" stroke-linecap="round" d="M238.618,88.415
			c0.264,0.956,1.306,1.457,2.122,1.839"/>
		<path fill="none" stroke="#000000" stroke-width="0.7614" stroke-linecap="round" d="M240.74,90.252
			c0.731-0.822,1.807-0.94,2.781-1.179"/>
		<path fill="none" stroke="#000000" stroke-width="0.767" stroke-linecap="round" d="M243.521,89.075
			c2.585-1.644,5.984-1.14,8.958-1.51"/>
		<path fill="none" stroke="#000000" stroke-width="0.5692" stroke-linecap="round" d="M252.479,87.565
			c-0.299-0.58,0.042-1.197,0.282-1.697"/>
		<path fill="none" stroke="#000000" stroke-width="0.8818" stroke-linecap="round" d="M252.479,87.565
			c0.471,0.166,0.942,0.145,1.415,0"/>
		<path fill="none" stroke="#000000" stroke-width="0.8606" stroke-linecap="round" d="M253.895,87.565
			c0.126-0.891,0.969-1.29,1.339-2.05"/>
		<path fill="none" stroke="#000000" stroke-width="0.8183" stroke-linecap="round" d="M255.237,85.515
			c0.146-0.751,0.753-1.24,1.488-1.344"/>
		<path fill="none" stroke="#000000" stroke-width="1.0182" stroke-linecap="round" d="M260.966,80.494
			c0.084,0.362,0.188,0.579,0.283,0.848"/>
		<path fill="none" stroke="#000000" stroke-width="0.7494" stroke-linecap="round" d="M261.249,81.342
			c1.203-0.326,2.411-0.488,3.535-1.061"/>
		<path fill="none" stroke="#000000" stroke-width="0.7915" stroke-linecap="round" d="M257.5,87.778
			c0.543,0.334,1.257,0.211,1.863,0.164"/>
		<path fill="none" stroke="#000000" stroke-width="0.8595" stroke-linecap="round" d="M259.363,87.942
			c0.328-0.365,0.979-0.191,1.318-0.66"/>
		<path fill="none" stroke="#000000" stroke-width="0.6854" stroke-linecap="round" d="M260.681,87.282
			c0.26-0.555,0.844-0.736,1.037-1.319"/>
		<path fill="none" stroke="#000000" stroke-width="0.9859" stroke-linecap="round" d="M245.596,92.092
			c0.266,0.381,0.777,0.479,1.225,0.565"/>
		<path fill="none" stroke="#000000" stroke-width="0.9303" stroke-linecap="round" d="M246.821,92.657
			c1.401-0.247,3.373-0.087,4.131-1.527"/>
		<path fill="none" stroke="#000000" stroke-width="1.2685" stroke-linecap="round" d="M214.856,147.677
			c-0.043,0.076-0.087,0.152-0.131,0.231c-0.405,1.495,2.434,2.654,3.101,1.182"/>
		<path fill="none" stroke="#000000" stroke-width="0.534" stroke-linecap="round" d="M230.979,29.857
			c-0.047,0.133,0.003,0.348,0,0.566"/>
		<path fill="none" stroke="#000000" stroke-width="0.5483" stroke-linecap="round" d="M240.032,30.424
			c0.475-0.22,0.87-0.564,1.415-0.283"/>
		<path fill="none" stroke="#000000" stroke-width="0.4556" stroke-linecap="round" d="M147.531,152.629
			c3.884-2.631,7.925-5.199,12.443-6.225"/>
	</g>
</g>
</svg>
