<?xml version="1.0" encoding="utf-8"?>
<!-- Generator: Adobe Illustrator 15.1.0, SVG Export Plug-In . SVG Version: 6.00 Build 0)  -->
<!DOCTYPE svg PUBLIC "-//W3C//DTD SVG 1.1//EN" "http://www.w3.org/Graphics/SVG/1.1/DTD/svg11.dtd">
<svg version="1.1" id="Layer_1" xmlns="http://www.w3.org/2000/svg" xmlns:xlink="http://www.w3.org/1999/xlink" x="0px" y="0px"
	 width="326.195px" height="405.954px" viewBox="-54.635 -72.363 326.195 405.954"
	 enable-background="new -54.635 -72.363 326.195 405.954" xml:space="preserve">
<metadata><?xpacket begin="﻿" id="W5M0MpCehiHzreSzNTczkc9d"?>
<x:xmpmeta xmlns:x="adobe:ns:meta/" x:xmptk="Adobe XMP Core 5.0-c060 61.134777, 2010/02/12-17:32:00        ">
   <rdf:RDF xmlns:rdf="http://www.w3.org/1999/02/22-rdf-syntax-ns#">
      <rdf:Description rdf:about=""
            xmlns:xmp="http://ns.adobe.com/xap/1.0/"
            xmlns:xmpGImg="http://ns.adobe.com/xap/1.0/g/img/">
         <xmp:CreatorTool>Adobe Illustrator CS5</xmp:CreatorTool>
         <xmp:CreateDate>2015-01-07T18:24:55+02:00</xmp:CreateDate>
         <xmp:Thumbnails>
            <rdf:Alt>
               <rdf:li rdf:parseType="Resource">
                  <xmpGImg:width>208</xmpGImg:width>
                  <xmpGImg:height>256</xmpGImg:height>
                  <xmpGImg:format>JPEG</xmpGImg:format>
                  <xmpGImg:image>/9j/4AAQSkZJRgABAgEBLAEsAAD/7QAsUGhvdG9zaG9wIDMuMAA4QklNA+0AAAAAABABLAAAAAEA&#xA;AQEsAAAAAQAB/+4ADkFkb2JlAGTAAAAAAf/bAIQABgQEBAUEBgUFBgkGBQYJCwgGBggLDAoKCwoK&#xA;DBAMDAwMDAwQDA4PEA8ODBMTFBQTExwbGxscHx8fHx8fHx8fHwEHBwcNDA0YEBAYGhURFRofHx8f&#xA;Hx8fHx8fHx8fHx8fHx8fHx8fHx8fHx8fHx8fHx8fHx8fHx8fHx8fHx8fHx8f/8AAEQgBAADQAwER&#xA;AAIRAQMRAf/EAaIAAAAHAQEBAQEAAAAAAAAAAAQFAwIGAQAHCAkKCwEAAgIDAQEBAQEAAAAAAAAA&#xA;AQACAwQFBgcICQoLEAACAQMDAgQCBgcDBAIGAnMBAgMRBAAFIRIxQVEGE2EicYEUMpGhBxWxQiPB&#xA;UtHhMxZi8CRygvElQzRTkqKyY3PCNUQnk6OzNhdUZHTD0uIIJoMJChgZhJRFRqS0VtNVKBry4/PE&#xA;1OT0ZXWFlaW1xdXl9WZ2hpamtsbW5vY3R1dnd4eXp7fH1+f3OEhYaHiImKi4yNjo+Ck5SVlpeYmZ&#xA;qbnJ2en5KjpKWmp6ipqqusra6voRAAICAQIDBQUEBQYECAMDbQEAAhEDBCESMUEFURNhIgZxgZEy&#xA;obHwFMHR4SNCFVJicvEzJDRDghaSUyWiY7LCB3PSNeJEgxdUkwgJChgZJjZFGidkdFU38qOzwygp&#xA;0+PzhJSktMTU5PRldYWVpbXF1eX1RlZmdoaWprbG1ub2R1dnd4eXp7fH1+f3OEhYaHiImKi4yNjo&#xA;+DlJWWl5iZmpucnZ6fkqOkpaanqKmqq6ytrq+v/aAAwDAQACEQMRAD8A9U4q7FXYq7FXYq7FXYq7&#xA;FXYq7FXYq7FXYq7FWL/mH+ZHlbyDoL6xr9z6aGq2tolGnuJB+xEhIr13PQdzir5U1L8wvzv/AD21&#xA;5tJ8qxS6ToMTfHFbSvDBEh6Ne3agFzT9kDf9lCcVZRp//OEFzKnq6v5wH1lxWRLezMg5Gm/qyTKW&#xA;7/sDFV0//OIn5gaEDP5N89NHOnxRowuNOINSQBJbyT7+/EYqgtN/O/8AOr8ptbh0f80bCXVtKnqY&#xA;bljG05QbF7e5T93NStSkh5eJXFX1H5a8yaL5l0O01vRblbvTr1BJBMh+9WH7LKdmU7g7YqmeKuxV&#xA;2KuxV2KuxV2KuxV2KuxV2KuxV2KuxV2KuxV2KuxV2KsT/Mz8yvL35e+WZdc1lyxr6VlZIf3txOQS&#xA;saeHSrMdgPuxV8reU/JPn/8A5yG85zeaPMk72Pli3k9JpkqEjjG4tbJWqCw/bc9K1ap2Kr7D8t+W&#xA;9E8taLa6LolollptmgSGCMfezE7szHdmO5PXFUyxV2Ksb/MLyB5f89+Wbjy/rcZNvLR4LhOPrQTL&#xA;9mWJmDUYVp7gkdDir5V/5x31nXfy+/PC8/L7ULgtYXs9xYXMVT6RuYFZoLhFqaGQR8fk2/TFX2di&#xA;rsVdirsVdirsVdirsVdirsVdirsVdirsVdirsVdirsVcSAKnYDqcVfEXnK8178/fzvGiaRMV0Gxd&#xA;4LSahaKCyhak94QOplbda9aouKvsvy35d0ry3oNjoWkw+hp2nQrBbx9TxXqzHuzGrMe5NcVTLFXY&#xA;q7FXYq+Rzp8eq/8AObcgtQRDbXSXExBGxttMUuf2vtSrT6e2KvrjFXYq7FXYq7FXYq7FXYq7FXYq&#xA;7FXYq7FXYq7FXYq7FXYq89/P7za3lb8ptf1CGT07y4g+o2bA0YS3Z9Hkp/mRGZ/oxV57/wA4a+Sk&#xA;0zyLeeaZ4qXmvXBjt5CN/qlqSgp3HKb1K+NBir6ExV2KuxV2KtO6IjO7BUUEsxNAANySTir5W/5x&#xA;djfzX+cPnjz7IpaCsoty23FtQuDIgH+pFAV9gcVfVWKuxV2KuxV2KuxV2KuxV2KuxV2KuxV2KuxV&#xA;2KuxV2KuxV8wf85u+ZPT0vy35ajfe4mm1G4QdhCvow1+fqyfdir6C8h+Xo/LnkrQ9CReP6OsYIJP&#xA;eRYx6jH3Z6k4qnuKuxV2KuxVgf57eZT5c/KTzLqKPwne0a0t2BowlvCLdSvuvqcvoxViH/OIvlga&#xA;R+UkOounG4126mvGJHxemh+rxj5fuiw/1sVe14q7FXYq7FXYq7FXYq7FXYq7FXYq7FXYq7FXYq7F&#xA;XYq7FXxj+eF3/i7/AJyg0rQVPqW9nc6ZpWx24vIs8x/2JnYH5Yq+zsVdirsVdirsVfNv/ObfmFrf&#xA;yr5e0BGp+kbyW7lA6lLSMIAfYtc1+jFXuvkLRk0TyRoGkIKCx0+1gbtVkhUMTTuWqTiqe4q7FXYq&#xA;7FXYq7FXYq7FXYq7FXYq7FXYq7FXYq7FXYql8/mHQbdGebUbZAg5NWVK0+VanFXxn+Rr/wCNP+cl&#xA;p/Mcp/0dLi/1hg3ZHLRwD/YvPHTFX25irsVdirsVdir5R/5zktJBceT7vrEyX8R9mBgYfeD+GKvq&#xA;m1uYrq1huYTyhnRZY223VwGB29jiqrirsVdiq2WaKGMySusca/adyFAqabk4quBBFRuD0OKuxV2K&#xA;uxV2KuxV2KuxV2KuxV2KuxVgv5j6vrDadqOm6BLb/pmK2MkUV06iJKgETzru/p78E24l616DFWA/&#xA;lT5rvPNugzafea/Z635ksTcSzi0aeW0VJF4xGWKePjKxfn/d+NV5UICrAvyY/Jzzt5D85X+oarPZ&#xA;29lLZNaR3YDXAZpJYZaKvCiuDHwo9PjonVhVV9QeXtQjvbV3hIMA4FAr8wheNXMYbuF5Ag+9O2Kp&#xA;rirsVdirsVeTf85MflvqPnj8umi0iD6xrOkzrfWcC/blUKyTRJXuyNyA7lQMVeS/lB/zlbF5d0iH&#xA;yr5/srhTpMYtbTULeOsqpCOCw3ULFG5IF48xuf2hWrFVl97/AM5r/lvHG31PR9YnlBookjtokI8e&#xA;Qnkb/hcVYtL/AM5l+b9WuDB5X8lLLJ0VHkmvHNTt8EEcVK0OKqd75s/5zE87J6WnaJL5etZNm9GB&#xA;dPanj6l85mH+wI9sVQkX/OIP5oa+hvvNXmqAagyllWV7i/kDGnwySOUp78S304qxrzF5A/O78iZI&#xA;Ne03VTNoaTIHmspZWtSSfhS7tXCijnatCKn7QYjFX1v+WPn/AE3z75MsPMdiPTNwvC8ta1MFzHtL&#xA;ET3od1PdSD3xVlWKuxV2KuxV2KuxV2KuxV2KuxVi2r+SdB1PzS+q3UNb64076ixPxRS28c3qmOeI&#xA;/C3GSRGRhRhvRhiqXeVvy30PynDfab5c0iwtI7hoZmmUTcioBUcvXN1ykX95xblQch8J3qqmGo22&#xA;oW2iXMnqxXk6VacmJauyJuruiq0my8KxpzHapFMVTDy28vCVHTgGWOZSeHJuXKMMfTJT4lhU1XYm&#xA;pGxACqdYq7FXYq7FXYqkuseSPJetzi41nQNN1O4GwmvLSC4eg/ypEY4q3pXkrybpDctJ0HTtOate&#xA;VpaQQGo7/u0XFU5xV2KuxVJfOvlXT/NvlTVPLl/ta6nbtCzgVKP1jkUHvG4Vx7jFXzh/zh/qOpaF&#xA;5x84fl9qRKzWxa59GtVSezm+q3HHt8fNPmFxV9U4q7FXYq7FXYq7FXYq7FXYq7FULP8ADqNq5+yy&#xA;Swg/5bcHA/4GJsVV55DHEzqhkYfZRepJ2A9t+52HfFUs1KA2+jCtDcRMsn1ivHhKzVkm5cXCU5MS&#xA;SvGmxHGoxVT8v3STsJVk5xzQKsIYsXUQSOHik5BWEkRkVGDjlXY/EGxVOsVdirsVdirsVdirsVdi&#xA;rsVdirsVfK3lA/Uf+c0tbt4No7r6z6o6V9SzS4bpT9sd8VfVOKuxV2KuxV2KuxV2KuxV2KuxVKdU&#xA;1Wyg1PT7aV+LmVmLGgUfuJaLU0qxp9lanFVuoape2YjuGjAglbcSVARRsik7BZJXcCrEKvzG6qtL&#xA;cJfaUstJ4CXiMkKofWRlkVmjK0qOlCw7fEDTfFVC+1G3tNas7cElhFwaPi7NS4lREbkKjYxnkWxV&#xA;OcVdirsVdirsVdirsVdirsVdirsVfKfktxqX/OZ+uXVvvHaNeLKRU09G1W1bt/vzFX1ZirsVdirs&#xA;VdirsVdirsVdirsVef2j6/b67cTXRgvZ4NVnkaOEehN9SkRo7dKFf3kirNCAzScW8AVJCq/X9Z1L&#xA;XIms7XSP3A9ExLqUkSW08jyVRuVu1y37ox8uLx8djyFVxVLdLkuIoYda06a0s9TuGhtSltE7wTwM&#xA;0bRJcW6EuzQLedVbnsNwvMFVlGg2+pT3s41AzMQsEzz3ARWkKyy+mqRptGqiMN0BqTWtahVk+Kux&#xA;V2KuxV2KuxV2KuxV2KuxVLfMuvWPl7y9qWu3zcbTTLaW6m3oSsSluI92pQe+KvnP/nD3y9f6pq3m&#xA;n8yNTFbjUZntIJCPtyTSC6u2Fe3L0wD88VfT2KuxV2KuxV2KuxV2KuxV2KuxV5t5887+S9O84WWl&#xA;STagvmOKJbm6OkWct7KlmOZj+sIkVwnESfGvJCV3Ipy3VSiy89aFKl4uk3za5ZQmytZXv7eeykEt&#xA;z/o6Ry8LNBIgUDkClAGNVYihVZXHqkGnW7XE8WoXiwN60enWOlX0dSqhI0AdeDcFUUB4jkAQF2XF&#xA;Uhl/PfyxpmtD/Eeka55bs7tIoYtS1bT5ILX1FaQ8TKpkp9sew70xV6QNX0kgEXsBB3BEqf1xVv8A&#xA;S2lf8tsH/I1P64q79LaV/wAtsH/I1P64qqQXlncEiCeOUruwR1Yge9DiqtirsVdirsVdirsVfOH/&#xA;ADlz54uJrbSvyy0Ss+r67NDLewx15ekZONtCad5Zhyp/kjxxV7d+X3k+z8neTNJ8t2lCmnQLHLIP&#xA;92TN8c0nb7cjM2KshxV2KuxV2KqM95Z25AnnjiLbqHdVJHtU4qp/pKBtoklmJ+xwifi3usjBY6e/&#xA;KmKu+sX7/wB3Z8KdfXkVK/6vp+t9NaYq7jqrfF6kEVf918Hlp/s+cVf+BGKu+pTn7V7OQftKBEoP&#xA;tURhh9BriqF1T9E6Xpl3qd/cTQWVjDJc3UzXE9EiiUu7H4+yjFWI/kto7L5fvPNd5ZfUtW833cmq&#xA;zxPQyR2rnjYwsevwWwU0/mZsVZdq2jm7uYbmMIzoAkschKqyq3NGqoLco2qU7Anl9pVIVTKFHSJE&#xA;d/UdVAaQihYgbmg8cVYxdSxXyX+n6rai7s+cltqdq0c80UiSqWX7Q9JFFsiSMBUcm47MfiVSv8kN&#xA;Wu7zyBb6dfqy6n5dnn0K+RiWIewcxJUnc8ofTavvirPcVdiqnPa21wAJ4klC7qHUMAfauKqP6J0v&#xA;taQqezKiqw9wQAQflirv0bCN1knVh9lvXlah8aMzKfpFMVd9VvU3jvWdvCZI2X7oxE1f9liqtALg&#xA;IROyO9dmRSoI+RLfrxVUxVIPPnnbRvJXlW+8x6u5FrZJVYlp6k0rHjHFGD+07be3U7A4q+b/APnH&#xA;jQNV/Mn81tY/NnzDD/olrOx0+Nqsn1plCxRoSPiW1goPnxPXFX1firsVdirsVUZ7S3nIMy+oo29N&#xA;iSh/1krxb6Riq6C1trcEQRJEG3YIoUE+9MVVMVdirsVdirHvPflI+bNDXQ5Lo2unXFxC+qKqcmnt&#xA;YnEj26mo4eqyqrNv8NRTfFWQgBQABQDYAdAMVdirsVQF3BzvFjRpEaZS78Y/3TJGQjpJIFqC6yji&#xA;OVfhqOjYqs0fy9p2ky3c1oretfMkl5I5q0skaCJZHNBV/TVULdSFFd98VTLFXYq7FXYq7FXYq7FU&#xA;Nqep6fpen3Go6jcR2ljaRtLc3MrBURFFSzE4q+SPM2v69/zkd+Y9t5a0L1LHyPozmea6YGvGvFrq&#xA;RenqOPghQ9Knxair6s8r+WNF8r6DZ6FolsLXTbJOEMQ3PWrMzHdmZjViepxVNMVdirsVdirsVdir&#xA;sVdirsVdirsVdirsVdirsVdirsVdirsVdirsVdiqB1zXNI0HSbnV9Yu47LTbNDJcXMpoqr0+ZJOw&#xA;A3J2G+Kvjj8wvzJ87/nz5ug8meT7aSDy8svOOBiV9RUNDd3rCoVE6qnb/KamKvqX8q/yy0P8u/Ks&#xA;GiaaPVnakuo37ACS4uCPic+Cjoi9h71JVZhirsVdirsVdirsVdirsVdirsVdirsVdirsVdirsVdi&#xA;rsVdirsVdirsVY359/MLyt5F0N9Y8w3Ygh3W3gWjTzyAV9OGOoLN+A6kgYq+Sb/UvzS/5yQ83Cys&#xA;o/0b5WsJOYQljaWinYSTOKetcMpoAPoCryOKvqr8svyt8r/l3oI0vRIeU0vFr/UJADPcSAU5Oeyj&#xA;9lBsvzqSqzDFXYq7FXYq7FXYq7FXYq7FXYq7FXYq7FXYq7FXYq7FXYq7FXYq7FXYq8t/OT8//Kv5&#xA;c2r2ildT8zyLW30mNv7vkNpLlxX017hftN2FPiCrwTyf+U/5o/nb5kh84eeZ5LTy67qwklrG0lvX&#xA;l6NhDvwjI29Q7b1+M1xV9c+WfK3l/wAr6PDo2gWMen6db/3cEQ6k9WdjVnc92YknFU0xV2KuxV2K&#xA;uxV2KuxV2KuxV2KuxV2KuxV2KuxV2KuxV2KuxV2KuxV2Kvm/88v+cnRYTyeUfy7cX2uSN6Fzq0K+&#xA;ssLsePpWygESzV25CqjoKt9lVT/JP/nF/wBCdPN35lL+kNZnf6xDo87esqOx5GW8Zi3qysTXgagf&#xA;tcjsqr6UACgACgGwA6AYq7FXYq7FXYq7FXYq7FXYq7FXYq7FXYq7FXYq7FXYq7FXYq7FXYq7FUs1&#xA;DXYYDNBZhLu+iBLQeoqKhpUes9G9NfE8SQO2KvCP+cgr388dSudA8oaB9Wis/NUcqyLpxkWasYVp&#xA;op55eNIERweaqnMVqB9kqst/Jj/nHTyx+XiR6neFdX81FaNqDr+6t+Qoy2qH7O2xkPxH/JBK4q9d&#xA;xV2KuxV2KuxV2KuxV2KuxV2KuxV2KuxV2KuxV2KuxV2KuxV2KrJp4oU5ytxBNANyST2UDcn2GKoa&#xA;C/Z7kwyxiKv938YZ605FZFAojcfiUVNRiqC1O7vJ72CztOS2jLMbq6QAlnjKqLeIllHNuTMW3A4E&#xA;HvRVbDFBHbj0+ICOPRiXk6epvuCKCaRePT7K0/ya4qjrPT0jk+syqGuiCA7fEyhqchy8W4ry+QHQ&#xA;DFUbirsVdirsVdirsVdirsVdirsVdirsVdirsVdirsVdirsVdirsVQlxfqnNYeLMm0kjH93GfBiO&#xA;rf5I3+Va4qgxDdXHqSRuVlQgMz/DK6mjFFH+6FZdtvi8aEYqq6hpNpNahBHHHEtBIjBQnAMH5GoK&#xA;8o3HNT4j3OKoa1R7mNtOR/q8CIjj00o0YJJj9Iv8Kr8PJPhbj9n4SBiqaW9osJ5F2lkA4q78aqv8&#xA;qhQqgbdhv36DFVfFXYq7FXYq7FXYq7FXYq7FXYq7FXYq7FXYq7FXYq7FXYq7FVk00UKF5GCqNqnx&#xA;PQDxJ7DFUvuLq4mLRxo9aVW3jPCU+Blf/dKn/gj964q3bWSSpbXSMOcRqkQHGJFNVdBGOjLvufir&#xA;7bYqr3jJBNFdUfr6UgjQvyU1IqBv8LdOvUgCrYqqiZDbercqIUpyZZCKKK7cidsVQUV1JeXqS2kR&#xA;WKM8ZZ3qvNd6oFpuQ247ggg0/aVTPFXYq7FXYq7FXYq7FXYq7FXYq7FXYq7FXYq7FXYq7FXYq7FU&#xA;Nc3qQ8lQB5FHJ6niiDxkehCj8fbFUqguLq6upaDnxUtbXRonqBapJHCpqYyrj4mYbgihPVVU1s4o&#xA;AFmtiRE60ZDXdq15NXfn15V3Pfpiqy4ZrZ5Gt43lmnFUhVTw5r1Zn2VK1Fanem2/VVde6lBa/Cf3&#xA;kxpxiXc1PStK0rT5nsDiqGjsbq8cTX7FUG6WqmgHuxB/z+RK4qmSqqqFUBVUUVRsAB2GKt4q7FXY&#xA;q7FXYq7FXYq7FXYq7FXYq7FXYq7FXYq7FXYq07pGheRgiKKszGgA8STiqAnu55CqRq8ayV4KBSeQ&#xA;ClSqttGoqKs2/agNDiqX6bFcNB++H+m2Tki1BJVwp3Zi1DJI387U+KhAAJ5Kps1vBcRGaBuLy8ZY&#xA;5RU0cCitTb9n4WHcbYqlOi6hrkusanDd2EVppsJWSGdZWk5llo4NVQKyvGxZaUoVbkeRAVRst/cX&#xA;TmDT9gPt3LDYfKoI+Va18KHkFUTZadDbfHX1JjXlI3ievGpNK99yTtUnFUVirsVdirsVdirsVdir&#xA;sVdirsVdirsVdirsVdirsVdiqFvLmaF4hGoYHkzKQeTBaVRKbc6VYeNOncKrnvoQE9L99JIoeOOO&#xA;hJU9G8AvucVaS1eSRZroh3XeOIbxofEVpyb/ACj9FN8VbuopCUuIRynhrxXYc1anJN/Ggp7gdsVW&#xA;zJ6sSXVsP3yj1ItuJcECqNWhHIADfoaHtiqF+txxP9cllEcDA/VraM/a3JkZwQlGLMOXLZSOoq2K&#xA;qCadd6hem8uJHt7NkCmwFAJGU/DI5IDhgNvu2BUMVU5iijiQRxqEReiqKAYquxV2KuxV2KuxV2Ku&#xA;xV2KuxV2KuxV2KuxV2KuxV2KuxV2KqF8IDbN6z+kuxWStCrg1UivevQYqg9NuSH4SJ6YlYjiQRxl&#xA;+0VodwsgPNK7jcGh2xVM8VdiqSQlLa5ul03ldXN5IZpZpOLKv7IAYBSVWlBU0FCBUjjiqJ07Q7a1&#xA;lluXrNdzv6ssjkkB6AVRTsvTt4mlK0xVMsVdirsVdirsVdirsVdirsVdirsVdirsVdirsVdirsVd&#xA;irsVQ8l3VzFbL60q7MekaH/Lfff/ACRv7U3xVBS3McMtQfrl9UqrU+BG7qiiprTqFq38xA3xVQng&#xA;mh53l5IQZlWN4Bu5CtzVowpYB4qllVQT4sxoQqjl1SCOE/WXUTIKkLvzWlRIg/kI3r0G9Ttiqhxv&#xA;tS+1W2sj0XYu48CDsfp+H2cEHFUxt7aC3j9OFOC9T1JJpSpJ3J274qqYq7FXYq7FXYq7FXYq7FXY&#xA;q7FXYq7FXYq7FXYq7FXYq7FVk08UKc5G4r0HcknoABuSewGKoSeV3QPcM1rbMaJGtfXkPh8NSO54&#xA;r8XuNxiqGQ3V4gitVW2s12+HYUHbkhFfkhp/lndcVVbVI0HDT0DtTi15IPgoOy8ePL/VSijfp0xV&#xA;GQWscTGQlpZmFGmehYjw2AAHsABiqW3kCWkwm9H1FQ84qIXJHLk0VADvy+OP3+HYdVU4xV2KuxV2&#xA;KuxV2KuxV2KuxV2KuxV2KuxV2KuxV2KuxV2KuxVDy3RLmG3X1Zhsx/YT/Xb/AI1G/wBG+KoOS4jh&#xA;k5Kfrd7Up6hBKIx6oiiv0qu9B8Z74qt+rKGEt+TJLICEtx8TuNjxYDanSqr8Pdi32sVRYtpbgf6V&#xA;RYf2bVT8NP8Aiw/tf6v2fn1xVFgACg2A6DFXYq7FXYq7FXYq7FXYq7FXYq7FXYq7FXYq7FXYq7FX&#xA;Yq7FXYq7FUlhvLmggvp/TUihdRSV5BtJCoUbU6qV+JlYU6VxVUVri5H1e1UQQISrKCdjXfmync16&#xA;ohr/ADMK0xVUtY1G1ioc04G9cDgAP2Y1WlQPBaL71riqNgtY4SWBLyv9uV93anv2HsNsVVcVdirs&#xA;VdirsVdirsVdirsVdirsVdirsVdirsVdirsVdirsVdirsVdiqXalbqpM9QkbcTKxFQjLsspG21Ph&#xA;k8U70GKuskF9bJJNxW2FUS1iNYqIxT7QC+op47CgWnbviqYgACg2A6DFXYq7FXYq7FXYq7FXYq7F&#xA;XYq7FXYq7FXYq7FXYq7FXYq7FXYq7FXYq7FXYq//2Q==</xmpGImg:image>
               </rdf:li>
            </rdf:Alt>
         </xmp:Thumbnails>
      </rdf:Description>
      <rdf:Description rdf:about=""
            xmlns:xmpTPg="http://ns.adobe.com/xap/1.0/t/pg/"
            xmlns:stDim="http://ns.adobe.com/xap/1.0/sType/Dimensions#"
            xmlns:xmpG="http://ns.adobe.com/xap/1.0/g/">
         <xmpTPg:MaxPageSize rdf:parseType="Resource">
            <stDim:w>115.074457</stDim:w>
            <stDim:h>143.211414</stDim:h>
            <stDim:unit>Millimeters</stDim:unit>
         </xmpTPg:MaxPageSize>
         <xmpTPg:NPages>1</xmpTPg:NPages>
         <xmpTPg:HasVisibleTransparency>False</xmpTPg:HasVisibleTransparency>
         <xmpTPg:HasVisibleOverprint>False</xmpTPg:HasVisibleOverprint>
         <xmpTPg:PlateNames>
            <rdf:Seq>
               <rdf:li>Cyan</rdf:li>
               <rdf:li>Magenta</rdf:li>
               <rdf:li>Yellow</rdf:li>
               <rdf:li>Black</rdf:li>
            </rdf:Seq>
         </xmpTPg:PlateNames>
         <xmpTPg:SwatchGroups>
            <rdf:Seq>
               <rdf:li rdf:parseType="Resource">
                  <xmpG:groupName>Default Swatch Group</xmpG:groupName>
                  <xmpG:groupType>0</xmpG:groupType>
               </rdf:li>
            </rdf:Seq>
         </xmpTPg:SwatchGroups>
      </rdf:Description>
      <rdf:Description rdf:about=""
            xmlns:dc="http://purl.org/dc/elements/1.1/">
         <dc:format>image/svg+xml</dc:format>
      </rdf:Description>
   </rdf:RDF>
</x:xmpmeta>
                                                                                                    
                                                                                                    
                                                                                                    
                                                                                                    
                                                                                                    
                                                                                                    
                                                                                                    
                                                                                                    
                                                                                                    
                                                                                                    
                                                                                                    
                                                                                                    
                                                                                                    
                                                                                                    
                                                                                                    
                                                                                                    
                                                                                                    
                                                                                                    
                                                                                                    
                                                                                                    
                           
<?xpacket end="w"?>
	</metadata>
<g>
	<g>
		<path d="M92.187,15.67c0.557,0.443,1.675,0.325,1.499,1.498C92.733,17.125,92.233,16.625,92.187,15.67z"/>
		<path d="M94.811,15.67c0.605-0.105,0.645,0.354,1.124,0.375C96.084,16.772,94.228,16.593,94.811,15.67z"/>
		<path d="M89.562,16.047c0.303,0.07,0.373,0.375,0.75,0.374C90.112,17.302,88.539,16.65,89.562,16.047z"/>
		<path d="M106.428,17.545c0.368-1.15,1,0.432,1.5,0.374C107.56,19.068,106.928,17.489,106.428,17.545z"/>
		<path d="M94.435,17.545c0.605-0.105,0.645,0.354,1.124,0.374C95.708,18.648,93.854,18.468,94.435,17.545z"/>
		<path d="M83.941,17.92c1.094-0.551,1.094,1.674,0,1.124C83.941,18.669,83.941,18.294,83.941,17.92z"/>
		<path d="M86.565,17.92C88.283,18.171,86.264,20.189,86.565,17.92L86.565,17.92z"/>
		<path d="M92.187,18.294c0.25,0,0.498,0,0.75,0c0,0.25,0,0.5,0,0.75c-0.25,0-0.5,0-0.75,0
			C92.187,18.794,92.187,18.544,92.187,18.294z"/>
		<path d="M88.063,19.044C89.783,19.295,87.762,21.313,88.063,19.044L88.063,19.044z"/>
		<path d="M108.302,19.044c0.912,0.211,1.927,0.322,1.874,1.5C109.47,20.125,108.455,20.017,108.302,19.044z"/>
		<path d="M81.693,19.418c0.831-0.207,0.534,0.715,1.125,0.75C82.664,21.102,81.363,20.19,81.693,19.418z"/>
		<path d="M85.441,19.418c0.25,0,0.5,0,0.75,0c0,0.25,0,0.498,0,0.75c-0.25,0-0.5,0-0.75,0
			C85.441,19.918,85.441,19.669,85.441,19.418z"/>
		<path d="M93.311,19.418c0.25,0,0.5,0,0.75,0c0,0.25,0,0.498,0,0.75c-0.25,0-0.5,0-0.75,0
			C93.311,19.918,93.311,19.669,93.311,19.418z"/>
		<path d="M106.053,19.794c1.061-0.31,0.972,0.529,1.875,0.375C107.993,20.78,105.476,20.925,106.053,19.794z"/>
		<path d="M83.941,20.168c1.708,0.54,4.237,0.261,5.247,1.498c0,0.626,0,1.25,0,1.875c-0.872,1.251-3.251,0.997-4.873,1.498
			c-0.186-1.188-1.217-1.532-2.249-1.875C82,21.476,84.39,22.241,83.941,20.168z"/>
		<path d="M94.435,20.542c0.637-0.137,0.708,0.293,0.75,0.75c-0.318-0.068-0.354,0.146-0.374,0.374
			C94.371,21.606,94.495,20.983,94.435,20.542z"/>
		<path d="M106.428,21.668c0.98-0.104,1.612,0.137,1.5,1.125C107.651,22.195,106.094,22.877,106.428,21.668z"/>
		<path d="M108.678,21.668c0.25,0,0.5,0,0.749,0c0,0.25,0,0.5,0,0.75c-0.249,0-0.5,0-0.749,0
			C108.678,22.167,108.678,21.918,108.678,21.668z"/>
		<path d="M91.062,22.417c0.717,0.157,1.613,0.135,1.5,1.125C91.844,23.385,90.948,23.405,91.062,22.417z"/>
		<path d="M111.302,23.166c1.048-0.059,1.222,1.059,0.749,1.498C111.547,24.419,111.352,23.864,111.302,23.166z"/>
		<path d="M92.937,23.542c0.557,0.442,1.675,0.324,1.498,1.498C93.48,24.994,92.982,24.494,92.937,23.542z"/>
		<path d="M89.188,24.291c0.366-1.147,1.263,0.167,1.498,0.374C90.319,25.814,89.687,24.234,89.188,24.291z"/>
		<path d="M97.058,23.917c-0.164,0.461-0.479,0.769-1.125,0.75C95.759,23.865,96.47,23.953,97.058,23.917z"/>
		<path d="M89.939,26.54c1.154-0.278,0.719,1.028,1.874,0.75c0.589,2.256-3.119,3.214-1.498,4.123
			c-0.132,0.982-3.418-1.217-3.374,0.75c-1.038-0.895-1.229-2.025-2.624-0.75c-0.844-4.25,2.269-5.509,5.247-4.874l0.188,0.188
			L89.939,26.54z"/>
		<path d="M103.806,25.041c0.25,0,0.498,0,0.749,0c0,0.25,0,0.5,0,0.75c-0.25,0-0.5,0-0.749,0
			C103.806,25.541,103.806,25.29,103.806,25.041z"/>
		<path d="M78.695,25.416c0.605-0.105,0.645,0.355,1.124,0.374C79.967,26.518,78.111,26.338,78.695,25.416z"/>
		<path d="M80.943,25.416c0.25,0,0.499,0,0.75,0c0,0.25,0,0.5,0,0.75c-0.25,0-0.5,0-0.75,0
			C80.943,25.914,80.943,25.667,80.943,25.416z"/>
		<path d="M97.809,25.416c0.25,0,0.5,0,0.749,0c0,0.25,0,0.5,0,0.75c-0.25,0-0.5,0-0.749,0
			C97.809,25.914,97.809,25.667,97.809,25.416z"/>
		<path d="M82.443,25.79c0.869-0.119,1.439,0.061,1.874,0.374C84.382,26.776,81.865,26.922,82.443,25.79z"/>
		<path d="M91.437,25.79c0.818-0.067,1.192,0.307,1.125,1.125C91.744,26.982,91.37,26.608,91.437,25.79z"/>
		<path d="M102.68,26.54c0.933-0.058,1.161,0.589,1.874,0.75C104.282,28.127,102.417,27.471,102.68,26.54z"/>
		<path d="M106.053,26.54c0.25,0,0.501,0,0.75,0c0,0.25,0,0.5,0,0.75c-0.25,0-0.499,0-0.75,0
			C106.053,27.04,106.053,26.79,106.053,26.54z"/>
		<path d="M82.067,27.29C81.184,28.495,80.553,25.972,82.067,27.29L82.067,27.29z"/>
		<path d="M109.803,26.914c0.373,0,0.749,0,1.123,0c0.273,1.022-0.745,0.755-0.75,1.498
			C109.668,28.298,109.865,27.475,109.803,26.914z"/>
		<path d="M78.695,27.29c0.25,0,0.5,0,0.75,0c0,0.25,0,0.499,0,0.75c-0.25,0-0.5,0-0.75,0C78.695,27.789,78.695,27.538,78.695,27.29
			z"/>
		<path d="M93.687,27.664c0.129-0.452,0.997-0.302,1.124,0C95.15,28.474,93.438,28.533,93.687,27.664z"/>
		<path d="M107.554,27.664c0.25,0,0.499,0,0.75,0c0,0.25,0,0.5,0,0.75c-0.25,0-0.5,0-0.75,0
			C107.554,28.164,107.554,27.914,107.554,27.664z"/>
		<path d="M104.93,28.038c0.658,0.091,0.854,0.645,0.75,1.498C105.019,29.448,104.824,28.893,104.93,28.038z"/>
		<path d="M111.302,28.038c0.249,0,0.497,0,0.749,0c0,0.25,0,0.5,0,0.75c-0.252,0-0.5,0-0.749,0
			C111.302,28.538,111.302,28.289,111.302,28.038z"/>
		<path d="M82.817,28.414c0.35,0.399,1.382,0.117,1.124,1.124C83.124,29.606,82.75,29.23,82.817,28.414z"/>
		<path d="M98.933,28.414c0.604-0.105,0.645,0.355,1.125,0.375C100.206,29.516,98.35,29.335,98.933,28.414z"/>
		<path d="M101.93,28.788c0.25,0,0.5,0,0.75,0c0,0.25,0,0.5,0,0.75c-0.25,0-0.498,0-0.75,0
			C101.93,29.288,101.93,29.038,101.93,28.788z"/>
		<path d="M95.559,29.538c-0.12-0.662,2.1-0.668,1.5,0.375C96.387,29.96,96.269,29.454,95.559,29.538z"/>
		<path d="M109.052,29.538c-0.148-0.728,1.706-0.547,1.124,0.375c-0.249,0-0.5,0-0.749,0
			C109.495,29.594,109.28,29.56,109.052,29.538z"/>
		<path d="M100.432,29.913c0.129-0.453,0.997-0.303,1.124,0C101.895,30.723,100.184,30.782,100.432,29.913z"/>
		<path d="M82.067,29.913c0.25,0,0.5,0,0.75,0c0,0.25,0,0.5,0,0.749c-0.25,0-0.5,0-0.75,0
			C82.067,30.412,82.067,30.162,82.067,29.913z"/>
		<path d="M107.554,30.662c0.274-0.667,0.681-0.054,1.124,0C108.402,31.329,107.995,30.716,107.554,30.662z"/>
		<path d="M96.311,32.536c-0.15-0.728,1.706-0.548,1.124,0.374c-0.25,0-0.5,0-0.75,0C96.753,32.591,96.538,32.556,96.311,32.536z"/>
		<path d="M99.307,32.536c0.333-0.785,2.092,0.121,1.874,1.124C100.52,33.324,100.087,32.755,99.307,32.536z"/>
		<path d="M111.302,32.536c0.819,0.368-0.339,1.876-1.126,1.874C110.396,33.63,110.963,33.198,111.302,32.536z"/>
		<path d="M98.182,33.286c0.25,0,0.5,0,0.75,0c0,0.25,0,0.5,0,0.75c-0.25,0-0.5,0-0.75,0C98.182,33.785,98.182,33.536,98.182,33.286
			z"/>
		<path d="M88.815,34.036c0.25,0,0.498,0,0.749,0c0,0.25,0,0.5,0,0.75c-0.25,0-0.5,0-0.749,0
			C88.815,34.536,88.815,34.285,88.815,34.036z"/>
		<path d="M94.811,34.41c-0.148-0.728,1.707-0.547,1.124,0.374c-0.25,0-0.498,0-0.75,0C95.255,34.467,95.038,34.432,94.811,34.41z"
			/>
		<path d="M112.424,34.036c0.869,0.105,0.861,1.001,0.373,1.5C112.29,35.419,112.489,34.596,112.424,34.036z"/>
		<path d="M108.302,34.41C110.496,34.908,106.945,36.18,108.302,34.41L108.302,34.41z"/>
		<path d="M109.052,35.909c0.25,0,0.499,0,0.751,0c0,0.25,0,0.5,0,0.75c-0.252,0-0.501,0-0.751,0
			C109.052,36.41,109.052,36.16,109.052,35.909z"/>
		<path d="M107.178,36.284c0.785,0.331-0.121,2.092-1.125,1.873C106.273,37.378,106.84,36.946,107.178,36.284z"/>
		<path d="M112.051,36.659c-0.56,0.439-0.441,1.557-1.499,1.498C110.68,37.288,110.793,36.401,112.051,36.659z"/>
		<path d="M113.175,36.659c0.249,0,0.499,0,0.751,0c0,0.25,0,0.5,0,0.75c-0.252,0-0.497,0-0.751,0
			C113.175,37.158,113.175,36.909,113.175,36.659z"/>
		<path d="M108.302,37.784c0.25,0,0.5,0,0.75,0c0,0.25,0,0.5,0,0.75c-0.25,0-0.5,0-0.75,0
			C108.302,38.283,108.302,38.033,108.302,37.784z"/>
		<path d="M113.175,37.784c0.272,1.023-0.744,0.755-0.751,1.5C111.631,39.164,112.344,37.506,113.175,37.784z"/>
		<path d="M109.052,39.282c0.25,0,0.499,0,0.751,0c0.104,0.604-0.354,0.645-0.376,1.124c-0.244,0-0.498,0-0.744,0
			C108.571,39.801,109.031,39.76,109.052,39.282z"/>
		<path d="M111.302,40.781c-0.165,0.462-0.482,0.769-1.126,0.75C110.341,41.069,110.655,40.761,111.302,40.781z"/>
		<path d="M107.178,41.531c0.943,0.377-0.298,1.658-1.125,1.5C105.724,41.828,107.025,42.253,107.178,41.531z"/>
		<path d="M108.678,43.029c1.125,0.561-0.276,1.68-1.124,1.498C107.664,43.765,108.566,43.793,108.678,43.029z"/>
		<path d="M111.302,43.029c0.777,0.21,0.793,0.584,0.373,1.124c-0.249,0-0.499,0-0.756,0
			C110.819,43.549,111.28,43.509,111.302,43.029z"/>
		<path d="M109.803,45.279c0.727-0.148,0.547,1.706-0.376,1.125c0-0.25,0-0.5,0-0.75C109.747,45.722,109.781,45.507,109.803,45.279z
			"/>
		<path d="M112.424,45.279c1.019,0.34-0.381,1.313-0.373,1.874C110.916,46.695,112.315,45.722,112.424,45.279z"/>
		<path d="M108.678,47.527c-0.129,0.871-0.242,1.756-1.5,1.498C107.738,48.588,107.619,47.47,108.678,47.527z"/>
		<path d="M113.926,47.903c-0.164,0.462-0.481,0.769-1.125,0.75C112.964,48.191,113.279,47.882,113.926,47.903z"/>
		<path d="M110.926,48.277c-0.561,0.439-0.442,1.557-1.499,1.5C109.474,48.823,109.973,48.323,110.926,48.277z"/>
		<path d="M108.302,50.9c0.896,0.562-0.594,1.876-1.5,1.875C106.998,51.845,107.718,51.438,108.302,50.9z"/>
		<path d="M110.926,51.275c0.25,0,0.5,0,0.749,0c0.105,0.604-0.354,0.644-0.367,1.124c-0.252,0-0.497,0-0.756,0
			C110.445,51.793,110.905,51.754,110.926,51.275z"/>
		<path d="M113.926,51.651C115.062,50.264,115.188,52.787,113.926,51.651L113.926,51.651z"/>
		<path d="M110.176,53.525c-0.165,0.461-0.479,0.769-1.124,0.75C108.877,53.474,109.588,53.559,110.176,53.525z"/>
		<path d="M112.424,53.525c0.373,0,0.751,0,1.126,0c-0.326,0.547-0.562,1.187-1.499,1.124
			C112.248,54.346,112.441,54.041,112.424,53.525z"/>
		<path d="M108.302,55.772c-0.164,0.462-0.479,0.769-1.126,0.75C107.002,55.724,107.712,55.807,108.302,55.772z"/>
		<path d="M110.926,56.146c0.068,0.818-0.305,1.192-1.123,1.125C110.201,56.922,109.918,55.889,110.926,56.146z"/>
		<path d="M107.928,58.396c0.25,0,0.498,0,0.75,0c0.105,0.605-0.355,0.646-0.375,1.124c-0.25,0-0.5,0-0.75,0
			C107.446,58.916,107.907,58.876,107.928,58.396z"/>
		<path d="M108.302,64.018c1.771-1.772-0.163,2.074-0.374,0.374C107.872,63.947,108.124,64.196,108.302,64.018z"/>
		<path d="M117.297,92.5C116.414,93.708,115.782,91.183,117.297,92.5L117.297,92.5z"/>
		<path d="M113.926,94.749C114.894,93.459,114.829,96.676,113.926,94.749L113.926,94.749z"/>
		<path d="M111.675,96.998c0.802-0.175,0.715,0.535,0.756,1.125c-0.302-0.07-0.373-0.375-0.756-0.374
			C111.675,97.498,111.675,97.249,111.675,96.998z"/>
		<path d="M116.921,97.749c0.42-1.095,1.22,0.477,1.125,1.125C116.716,99.455,117.821,97.599,116.921,97.749z"/>
		<path d="M119.172,98.496c0.822-0.066,1.191,0.307,1.123,1.126C119.479,99.689,119.104,99.315,119.172,98.496z"/>
		<path d="M112.051,99.622c0.249,0,0.498,0,0.75,0c0,0.25,0,0.5,0,0.75c-0.249,0-0.498,0-0.75,0
			C112.051,100.122,112.051,99.872,112.051,99.622z"/>
		<path d="M115.049,99.622c0.249,0,0.499,0,0.749,0c0,0.25,0,0.5,0,0.75c-0.244,0-0.497,0-0.749,0
			C115.049,100.122,115.049,99.872,115.049,99.622z"/>
		<path d="M120.295,100.746c-0.099-0.885,1.099,0.135,1.125,0.374C121.488,101.736,120.391,101.603,120.295,100.746z"/>
		<path d="M112.801,101.12c0.46,0.164,0.77,0.479,0.749,1.124C113.087,102.082,112.78,101.765,112.801,101.12z"/>
		<path d="M115.798,101.87c0.8-0.175,0.712,0.535,0.75,1.126c-0.302-0.072-0.374-0.375-0.75-0.374
			C115.798,102.37,115.798,102.12,115.798,101.87z"/>
		<path d="M121.044,102.621c0.154-0.933,1.452-0.023,1.126,0.749C121.338,103.575,121.635,102.654,121.044,102.621z"/>
		<path d="M118.796,102.621c0.249,0,0.5,0,0.749,0c0,0.25,0,0.498,0,0.749c-0.249,0-0.497,0-0.749,0
			C118.796,103.12,118.796,102.87,118.796,102.621z"/>
		<path d="M113.55,102.996c0.373,0,0.749,0,1.123,0c0,0.25,0,0.498,0,0.75c-0.374,0-0.75,0-1.123,0
			C113.55,103.494,113.55,103.244,113.55,102.996z"/>
		<path d="M113.926,104.868C114.894,103.578,114.829,106.796,113.926,104.868L113.926,104.868z"/>
		<path d="M121.795,104.868c0.604-0.105,0.646,0.355,1.124,0.375C123.066,105.972,121.212,105.792,121.795,104.868z"/>
		<path d="M117.672,106.368C118.809,104.983,118.934,107.506,117.672,106.368L117.672,106.368z"/>
		<path d="M114.673,106.744c0.274-0.667,0.682-0.054,1.125,0C115.524,107.409,115.117,106.796,114.673,106.744z"/>
		<path d="M122.919,106.744C124.637,106.992,122.617,109.011,122.919,106.744L122.919,106.744z"/>
		<path d="M119.172,108.242C120.889,108.492,118.87,110.511,119.172,108.242L119.172,108.242z"/>
		<path d="M124.418,108.242C126.138,108.492,124.116,110.511,124.418,108.242L124.418,108.242z"/>
		<path d="M115.424,108.992c0.46,0.164,0.77,0.479,0.75,1.126C115.711,109.952,115.403,109.636,115.424,108.992z"/>
		<path d="M120.295,110.865c0.831-0.207,0.534,0.715,1.125,0.75C121.268,112.548,119.968,111.638,120.295,110.865z"/>
		<path d="M89.188,240.164c-0.715-0.16-0.678-1.071-1.874-0.749c-0.043-1.295,0.756-1.743,2.249-1.497l-0.187,0.564l0.562,0.185
			c0,0.372,0,0.753,0,1.123l-0.562-0.184L89.188,240.164z"/>
		<path d="M165.643,174.576c8.816-5.346,15.876-12.967,24.362-19.111c6.061-4.393,12.56-9.618,18.738-14.618
			c8.904-7.199,17.367-14.583,25.492-22.487c3.924-3.822,8.158-7.678,11.244-12.743c1.363-2.245,2.857-4.989,5.249-6.745
			c5.354-11.075,13.259-23.137,14.618-37.853c0.149-1.617-0.07-3.537,0-5.247c0.202-4.942,0.224-10.056-0.753-14.618
			c-0.98-4.61-4.042-7.802-5.245-12.741c-2.444-4.485-8.856-5.526-14.241-5.246c-2.837,0.147-5.804,1.608-8.991,2.249
			c-5.749,1.156-11.938,2.19-18.364,3.374c-2.588,0.476-5.012,0.125-7.498,0.374c-4.231,0.429-7.568,1.616-12.739,1.498
			c-6.199-0.138-9.954-1.709-13.869-5.996c-2.503-5.299-3.924-12.182-3.748-19.488c0.119-5.045,1.983-10.698,3.372-16.115
			c1.835-7.165,3.721-14.154,5.247-20.989c1.688-7.546,2.048-17.167-2.619-22.861c-0.327-0.396-1.016,0.358-1.126-0.374
			c-0.118-0.772-0.14-0.746-1.123-1.874c-1.427-1.633-3.482-4.044-5.622-5.246c-3.995-2.244-10.314-3.727-14.991-4.122
			c-3.8-0.322-8.538-0.123-12.371,0.75c-4.414,1.006-7.437,4.405-11.617,6.371c-4.271,4.476-9.318,8.174-13.494,12.742
			c-1.922,4.026-5.174,7.195-7.497,11.244c-2.227,3.889-3.71,8.748-5.246,13.492c-3.165,9.791-3.813,20.846-6,30.733
			c-1.035,4.693-2.654,9.03-0.75,13.866c-0.93,1.318-2.016,2.482-4.498,2.25l-0.188-0.562l-0.188,0.562
			c-1.241-0.025-2.791-0.935-4.122-1.874c-0.463-2.384,1.933-5.86-0.375-5.622c1.218-0.599,1.395-0.814,1.498-1.874
			c0.062-1.062-2.31,0.311-2.249-0.75h0.375v-0.375c0.499,0,0.998,0,1.498,0c3.047-13.542,5.953-28.078,10.12-42.349
			c0.943-3.231,2.382-6.682,3.748-9.745c1.291-2.887,2.555-5.097,4.497-7.871c4.126-5.901,9.63-10.534,14.991-15.741
			c2.837-2.757,5.864-4.837,9.74-7.122c2.017-1.182,3.114-2.436,5.622-2.998c8.544-1.914,19.471-1.148,27.734,1.124
			c4.199,1.154,5.406,1.828,8.62,4.122c1.083,0.771,2.642,1.358,3.748,2.25c0.46,0.371,0.548,1.296,1.123,1.874
			c1.844,1.847,5.076,3.766,6.371,6.372c0.992,1.996,1.832,5.154,2.252,7.122c0.694,3.294-0.49,8.5-1.126,12.368
			c-3.022,18.272-13.312,38.691-7.126,55.843c3.037,2.1,5.674,5.366,9.746,5.621c0.888,0.056,2.057-0.625,2.997-0.75
			c1.247-0.166,2.337,0.111,3.749,0c4.087-0.322,8.803-1.489,13.493-2.25c3.521-0.572,7.302-0.58,10.87-1.499
			c6.935-1.787,13.067-4.824,20.61-4.497c3.49,0.151,7.514,1.335,10.867,2.998c3.263,3.881,5.038,6.294,7.125,11.244
			c3.72,8.844,5.08,24.211,2.997,36.354c-0.935,5.44-4.03,11.611-6.741,17.615c-3.742,8.263-6.297,15.342-11.244,21.737
			c-1.501,1.939-3.327,3.652-4.876,5.622c-4.49,5.709-9.214,11.759-14.62,16.865c-3.664,3.464-7.413,6.713-11.245,9.745
			c-3.903,3.089-7.37,6.746-11.618,8.994c-0.646,0.227,0.028,1.777-0.752,1.873c-9.729,5.461-18.928,13.659-27.732,20.99
			c-4.679,3.89-10.072,6.347-13.118,11.617l-0.373-0.182l-0.37,0.182c0.914-3.287-0.693-4.973-2.25-6.741l0.188-0.374
			L165.643,174.576z"/>
		<path d="M101.368,25.228l0.188-0.188c0.005,0.745,1.022,0.476,0.75,1.498c-0.548-0.327-1.453-0.298-1.125-1.498L101.368,25.228z"
			/>
		<path d="M77.383,28.6l-0.188-0.562c3,0.83,1.142,2.452,3.748,4.122l-0.563,0.188l0.188,0.562c-1.25,0-1.278-1.22-2.622-1.124
			l-0.188-0.562l-0.562,0.188c0.266-1.39-0.64-1.608-0.375-2.999L77.383,28.6z"/>
		<path d="M116.548,88.191l0.373,0.187c2.687,0.182,4.098,1.648,5.998,2.622l-0.188,0.376l0.188,0.374
			c0.56,1.688,1.914,2.583,1.874,4.872l-0.688-0.188l-0.438,0.562c-1.679-5.69-7.86-6.879-15.365-6.745l0.188-0.688l-0.562-0.437
			c1.958-1.162,5.997-0.251,8.245-1.124L116.548,88.191z"/>
		<path d="M124.355,97.187l0.431-0.562c1.494,3.251,2.278,7.223,3.374,10.869l-0.564-0.188l-0.189,0.562
			c-1.89-2.985-4.186-5.557-3.747-10.87L124.355,97.187z"/>
		<path d="M89.751,91.564l-0.188,0.562c-0.318,0.068-0.353-0.146-0.374-0.374c-3.179,0.366-5.386-1.232-7.869-0.75
			c-3.374,0.658-3.909,3.881-5.622,6.372l-0.437-0.563L74.573,97c-0.318-1.415,1.246-1.759,0.375-2.624v-0.374h-0.375
			c2.596-1.652,1.808-3.895,4.123-4.872c3.007-1.269,8.126,1.959,10.493,0.374l0.562,0.188l0.188-0.562
			c0.54,0.084,0.13,1.119,0.75,1.124l-0.188,0.562l0.561,0.188c0.138,0.639-0.292,0.708-0.749,0.75L89.751,91.564z"/>
		<path d="M75.009,97.561l0.688-0.188c-0.194,1.644-0.116,1.231-0.374,2.624c-0.992,2.057-2.275,4.057-3.374,6.372
			c-0.925,1.948-1.2,5.112-4.122,5.246c2.013-5.109,4.216-10.026,6.745-14.618L75.009,97.561z"/>
		<path d="M74.759,73.575l-0.562,0.188c0-0.626,0-1.25,0-1.875l0.562,0.188l0.188-0.562c0.25,0,0.5,0,0.75,0l-0.188,0.562
			l0.561,0.187c-0.119,0.87,0.061,1.438,0.375,1.875c-0.499,0-0.999,0-1.498,0L74.759,73.575z"/>
		<path d="M90.313,19.044c0.89,0.234,1.744,0.504,1.874,1.5C91.833,19.773,90.255,20.226,90.313,19.044z"/>
		<path d="M116.921,114.987c-0.068-0.318,0.147-0.353,0.37-0.374c0.25,0,0.497,0,0.755,0c-0.006,0.746-1.029,0.477-0.755,1.498
			C115.969,116.07,118.093,114.873,116.921,114.987z"/>
		<g>
			<path fill="none" stroke="#000000" stroke-width="0.2814" stroke-linecap="round" d="M80.005,23.729
				c0.559-0.061,0.936,0.063,1.125,0.374"/>
			<path fill="none" stroke="#000000" stroke-width="0.2354" stroke-linecap="round" d="M89.377,25.978
				c0.134,0.24,0.292,0.457,0.374,0.75"/>
			<path fill="none" stroke="#000000" stroke-width="0.3668" stroke-linecap="round" d="M109.239,25.978
				c0.944,0.029,1.797-1.003,2.812-0.188"/>
			<path fill="none" stroke="#000000" stroke-width="0.4077" stroke-linecap="round" d="M96.122,25.978
				c0.244,0.243,0.606,0.606,0.936,0.938"/>
			<path fill="none" stroke="#000000" stroke-width="0.2602" stroke-linecap="round" d="M93.499,29.351
				c0.667-0.079,1.275,0.574,1.498,1.125"/>
			<path fill="none" stroke="#000000" stroke-width="0.2354" stroke-linecap="round" d="M98.371,31.224
				c-0.206-0.044-0.293-0.207-0.374-0.374"/>
			<path fill="none" stroke="#000000" stroke-width="0.3675" stroke-linecap="round" d="M89.751,40.969
				c0.358-1.003,0.705-2.017,1.124-2.999"/>
			<path fill="none" stroke="#000000" stroke-width="0.3114" stroke-linecap="round" d="M117.485,94.562
				c0.202,0.522,0.726,0.898,0.751,1.5"/>
			<path fill="none" stroke="#000000" stroke-width="0.3223" stroke-linecap="round" d="M162.646,179.45
				c-5.876,3.689-10.984,8.421-17.055,11.806"/>
			<path fill="none" stroke="#000000" stroke-width="0.3263" stroke-linecap="round" d="M157.211,188.634
				c2.945-2.064,5.606-4.717,8.245-7.122"/>
			<path fill="none" stroke="#000000" stroke-width="0.3311" stroke-linecap="round" d="M148.592,194.628
				c1.647-1.768,4.235-2.628,5.995-4.122"/>
			<path fill="none" stroke="#000000" stroke-width="0.2807" stroke-linecap="round" d="M113.736,204.748
				c2.222,2.49,3.837,5.783,5.997,8.246"/>
			<path fill="none" stroke="#000000" stroke-width="0.439" stroke-linecap="round" d="M136.598,204.748
				c0.01,0.062,0.016,0.126,0.025,0.188c-0.425,1.433-2.093,1.951-3.273,2.685"/>
			<path fill="none" stroke="#000000" stroke-width="0.4367" stroke-linecap="round" d="M120.295,218.053
				c-0.268-0.119-0.498-0.232-0.672-0.386c-0.205-0.529-0.625-1.011-0.483-1.625c1.279-0.574,2.523,0.858,3.892,0.493
				c1.295-0.419,2.652-1.867,1.012-2.979"/>
			<path fill="none" stroke="#000000" stroke-width="0.3187" stroke-linecap="round" d="M90.125,221.238
				c0.746,1.098,1.208,2.571,2.25,3.372"/>
			<path fill="none" stroke="#000000" stroke-width="0.4321" stroke-linecap="round" d="M103.992,229.108
				c0.064,0.062,0.126,0.124,0.19,0.187c1.923,0.871,2.976-1.172,4.963-1.415c0.081-0.171,0.157-0.311,0.235-0.452
				c0.044-0.443,0.078-1.131-0.016-1.489c-0.223-0.125-0.387-0.331-0.5-0.583"/>
			<path fill="none" stroke="#000000" stroke-width="0.3266" stroke-linecap="round" d="M83.005,226.11
				c2.461,3.001,4.415,6.557,6.746,9.744"/>
			<path fill="none" stroke="#000000" stroke-width="0.4186" stroke-linecap="round" d="M89.377,238.478
				c0.928-0.322,1.951-0.155,2.918-0.168c0.186,0.105,0.383,0.307,0.562,0.481c0.007,0.241-0.106,0.493-0.217,0.709
				c-0.885,0.492-1.677,1.015-2.703,1.32"/>
			<path fill="none" stroke="#000000" stroke-width="0.6761" stroke-linecap="round" d="M89.939,240.82
				c0,0.556,0.431,1.208,0.936,1.407"/>
			<path fill="none" stroke="#000000" stroke-width="0.7062" stroke-linecap="round" d="M89.939,240.82
				c-0.141-0.325-0.379-0.838-0.562-1.221"/>
			<path fill="none" stroke="#000000" stroke-width="0.4036" stroke-linecap="round" d="M74.386,251.221
				c0.57,1.041,1.721,0.673,2.587,0.334c0.861-0.648,0.591-1.814,0.18-2.64c0.223-0.981,1.433-1.681,2.426-1.628
				c0.568,0.195,0.952,0.812,1.177,1.312"/>
			<path fill="none" stroke="#000000" stroke-width="0.438" stroke-linecap="round" d="M63.422,258.811
				c0.542-0.725,1.521-0.762,2.344-0.843"/>
			<path fill="none" stroke="#000000" stroke-width="0.5075" stroke-linecap="round" d="M63.422,258.811
				c-0.918-0.239-1.876,0.294-2.289,1.097c-0.099,0.567,0.045,0.912,0.179,1.397c0.789,0.631,2.227,0.964,3.039,0.242
				C65.146,260.456,64,259.638,63.422,258.811"/>
			<path fill="none" stroke="#000000" stroke-width="0.2354" stroke-linecap="round" d="M101.368,24.479c0,0.25,0,0.5,0,0.75"/>
			<path fill="none" stroke="#000000" stroke-width="0.2718" stroke-linecap="round" d="M79.757,20.856
				c0.309,0.153,0.482,0.361,0.624,0.624"/>
			<path fill="none" stroke="#000000" stroke-width="0.4086" stroke-linecap="round" d="M114.393,27.382
				c2.721-5.932-2.923-9.792-7.396-11.899"/>
			<path fill="none" stroke="#000000" stroke-width="0.4304" stroke-linecap="round" d="M115.984,75.447
				c0.897,4.168-0.423,8.551,0.564,12.744"/>
			<path fill="none" stroke="#000000" stroke-width="0.4005" stroke-linecap="round" d="M122.73,91.377
				c31.405-0.501,63.144,1.501,93.696,7.683"/>
			<path fill="none" stroke="#000000" stroke-width="0.7444" stroke-linecap="round" d="M124.105,96.436
				c0.084,0.25,0.166,0.5,0.25,0.75"/>
			<path fill="none" stroke="#000000" stroke-width="0.5015" stroke-linecap="round" d="M129.29,109.928
				c-0.497-0.958-1.216-1.654-1.688-2.622"/>
			<path fill="none" stroke="#000000" stroke-width="0.9987" stroke-linecap="round" d="M95.185,91
				c-0.103,0.104-0.209,0.209-0.312,0.312"/>
			<path fill="none" stroke="#000000" stroke-width="0.4439" stroke-linecap="round" d="M94.872,91.315
				c0.425,0.793,0.638,1.647,0.875,2.498"/>
			<path fill="none" stroke="#000000" stroke-width="0.5356" stroke-linecap="round" d="M95.747,93.812
				c0.621,0.54,1.096,1.282,1.835,1.665c0.287,0.358,0.473,0.808,0.572,1.048c0.11,1.878-1.383,2.968-2.963,3.52
				c-0.275-0.009-0.772-0.514-1.036-0.893"/>
			<path fill="none" stroke="#000000" stroke-width="0.5157" stroke-linecap="round" d="M90.687,93.876
				c-0.711-0.58-0.694-1.506-0.936-2.312"/>
			<path fill="none" stroke="#000000" stroke-width="0.7444" stroke-linecap="round" d="M75.259,96.81
				c-0.083,0.25-0.167,0.5-0.25,0.75"/>
			<path fill="none" stroke="#000000" stroke-width="0.3746" stroke-linecap="round" d="M-10.878,107.492
				c28.41-4.86,56.833-11.062,85.826-13.493"/>
			<path fill="none" stroke="#000000" stroke-width="0.3685" stroke-linecap="round" d="M81.131,83.319
				c-0.603,1.243-0.132,2.686-0.563,3.935"/>
			<path fill="none" stroke="#000000" stroke-width="0.5932" stroke-linecap="round" d="M76.54,78.165
				c-1.677-0.57-2.023-3.061-1.78-4.591"/>
			<path fill="none" stroke="#000000" stroke-width="0.5205" stroke-linecap="round" d="M75.884,68.328
				c0.079-1.441,0.913-2.737,2.156-3.468"/>
			<path fill="none" stroke="#000000" stroke-width="0.4669" stroke-linecap="round" d="M78.04,64.86
				c0.334-1.156,1.308-2.098,2.467-2.403"/>
			<path fill="none" stroke="#000000" stroke-width="0.4427" stroke-linecap="round" d="M80.505,62.457
				c0.413-10.467-1.594-20.946-2.748-31.232"/>
			<path fill="none" stroke="#000000" stroke-width="0.3495" stroke-linecap="round" d="M77.383,28.6
				c-1.78-2.393,0.158-6.212,2.374-7.746"/>
			<path fill="none" stroke="#000000" stroke-width="0.3353" stroke-linecap="round" d="M79.757,20.856
				c3.417-5.246,10.653-6.255,16.553-5.935"/>
			<path fill="none" stroke="#000000" stroke-width="0.3158" stroke-linecap="round" d="M147.342,197.377
				c-1.449,0.969-2.883,2.017-4.372,2.875"/>
			<path fill="none" stroke="#000000" stroke-width="0.296" stroke-linecap="round" d="M76.915,260.777
				c-10.839,8.29-22.642,15.889-34.01,23.423"/>
			<path fill="none" stroke="#000000" stroke-width="0.3807" stroke-linecap="round" d="M-40.548,328.677
				c-0.058,1.24,1.53,2.032,1.133,3.309c-0.973,0.397-1.753,1.19-2.799,1.396c-4.763-5.942-9.05-12.774-12.21-19.607
				c0.181-0.365,0.348-0.556,0.496-0.776c0.638-0.339,1.127-1.098,1.958-0.896c0.771,1.09,1.749,2.222,2.387,3.374
				c0.175,0.025,0.296,0.056,0.416,0.092"/>
			<path fill="none" stroke="#000000" stroke-width="0.3025" stroke-linecap="round" d="M-49.167,315.558
				c23.727-17.205,48.251-32.875,72.956-48.973"/>
			<path fill="none" stroke="#000000" stroke-width="0.308" stroke-linecap="round" d="M23.788,266.585
				c-2.391-4.388-5.53-8.222-8.245-12.368"/>
			<path fill="none" stroke="#000000" stroke-width="0.3827" stroke-linecap="round" d="M27.413,272.333
				c0.759,0.525,1.525,1.393,1.811,2.312"/>
			<path fill="none" stroke="#000000" stroke-width="0.3851" stroke-linecap="round" d="M32.972,280.547
				c4.579,3.485,5.831,10.945,11.003,13.582c0.696-0.365,1.36-0.78,2.024-1.2c0.056-0.111,0.07-0.282,0.082-0.454
				c-1.559-3.356-4.269-5.959-5.987-9.21"/>
			<path fill="none" stroke="#000000" stroke-width="0.3485" stroke-linecap="round" d="M40.093,283.265
				c-7.363-10.671-14.604-21.521-21.659-32.313c-0.322-0.194-0.567-0.284-0.828-0.337c-0.771,0.231-1.633,0.712-2.062,1.355"/>
			<path fill="none" stroke="#000000" stroke-width="0.2982" stroke-linecap="round" d="M40.093,283.265
				c12.135-7.594,24.036-15.798,35.791-24.174"/>
			<path fill="none" stroke="#000000" stroke-width="0.2998" stroke-linecap="round" d="M75.884,259.091
				c-4.928-6.801-9.077-13.956-14.118-20.489"/>
			<path fill="none" stroke="#000000" stroke-width="0.3668" stroke-linecap="round" d="M61.766,238.602
				c-0.485,0.095-0.858,0.364-1.062,0.813"/>
			<path fill="none" stroke="#000000" stroke-width="0.3898" stroke-linecap="round" d="M60.704,239.415
				c0.659,2.156,1.923,3.986,3.186,5.807"/>
			<path fill="none" stroke="#000000" stroke-width="0.3226" stroke-linecap="round" d="M60.704,239.415
				c-2.66,1.206-5.225,3.217-7.471,5.06c2.023,4.273,5.437,7.826,7.66,11.993"/>
			<path fill="none" stroke="#000000" stroke-width="0.5085" stroke-linecap="round" d="M61.766,238.602
				c0.04-0.214,0.077-0.444,0.126-0.63"/>
			<path fill="none" stroke="#000000" stroke-width="0.3114" stroke-linecap="round" d="M61.892,237.979
				c-1.065-0.737-1.372-2.169-2.312-3.062"/>
			<path fill="none" stroke="#000000" stroke-width="0.3126" stroke-linecap="round" d="M59.58,234.917
				c-11.458,7.211-22.259,15.587-33.73,22.861"/>
			<path fill="none" stroke="#000000" stroke-width="0.3069" stroke-linecap="round" d="M59.58,234.917
				c22.208-15.902,45.159-31.444,67.916-46.767c0.188-0.211,0.475-0.253,0.719-0.294c1.338,2.313,2.687,5.126,4.822,6.677"/>
			<path fill="none" stroke="#000000" stroke-width="0.4354" stroke-linecap="round" d="M133.037,194.536
				c1.048-0.875,2.47-1.11,3.686-0.407"/>
			<path fill="none" stroke="#000000" stroke-width="0.3576" stroke-linecap="round" d="M136.723,194.129
				c1.902-1.158,3.248-2.973,5.497-3.623"/>
			<path fill="none" stroke="#000000" stroke-width="0.6228" stroke-linecap="round" d="M142.22,190.506
				c0.146-1.2,0.24-2.322,1.312-3.092"/>
			<path fill="none" stroke="#000000" stroke-width="0.569" stroke-linecap="round" d="M143.532,187.414
				c1.882-3.292,5.711-5.119,8.993-6.84"/>
			<path fill="none" stroke="#000000" stroke-width="0.4785" stroke-linecap="round" d="M152.528,180.574
				c2.388-1.748,4.727-3.807,7.681-4.31"/>
			<path fill="none" stroke="#000000" stroke-width="1.1104" stroke-linecap="round" d="M160.209,176.265
				c0.255-0.199,0.521-0.29,0.749-0.373"/>
			<path fill="none" stroke="#000000" stroke-width="0.6393" stroke-linecap="round" d="M160.958,175.892
				c1.147-1.559,3.266-1.661,4.878-0.939"/>
			<path fill="none" stroke="#000000" stroke-width="0.3434" stroke-linecap="round" d="M61.892,237.979
				c2.039-0.667,3.383-2.642,5.498-3.124"/>
			<path fill="none" stroke="#000000" stroke-width="0.2978" stroke-linecap="round" d="M67.39,234.854
				c1.662-1.936,4.205-3.572,6.621-4.62"/>
			<path fill="none" stroke="#000000" stroke-width="0.3329" stroke-linecap="round" d="M77.383,227.609
				c-0.632-0.649-0.673-1.847-1.5-2.248"/>
			<path fill="none" stroke="#000000" stroke-width="0.3074" stroke-linecap="round" d="M77.383,227.609
				c6.429-4.587,12.846-9.443,19.675-13.303"/>
			<path fill="none" stroke="#000000" stroke-width="0.3142" stroke-linecap="round" d="M97.058,214.307
				c2.354-2.105,5.179-3.946,7.87-5.622"/>
			<path fill="none" stroke="#000000" stroke-width="0.2996" stroke-linecap="round" d="M104.93,208.682
				c4.894-3.43,9.717-7.155,14.927-10.184"/>
			<path fill="none" stroke="#000000" stroke-width="0.3256" stroke-linecap="round" d="M119.857,198.501
				c2.397-1.701,5.314-5.255,8.397-4.523c2.074,2.62,3.716,5.58,5.719,8.146"/>
			<path fill="none" stroke="#000000" stroke-width="0.2733" stroke-linecap="round" d="M119.857,198.501
				c1.363,1.183,2.442,2.873,3.248,4.373"/>
			<path fill="none" stroke="#000000" stroke-width="0.2883" stroke-linecap="round" d="M104.93,208.682
				c1.63,1.339,2.066,3.71,3.56,5.061"/>
			<path fill="none" stroke="#000000" stroke-width="0.3097" stroke-linecap="round" d="M97.058,214.307
				c2.388,3.523,4.67,7.037,7.122,10.492"/>
			<path fill="none" stroke="#000000" stroke-width="0.7062" stroke-linecap="round" d="M91.249,248.599c0.125,0,0.25,0,0.374,0"/>
			<path fill="none" stroke="#000000" stroke-width="0.305" stroke-linecap="round" d="M91.624,248.599
				c16.681-12.372,33.994-23.688,50.973-35.231"/>
			<path fill="none" stroke="#000000" stroke-width="0.2991" stroke-linecap="round" d="M92.375,250.097
				c17.764-12.129,35.536-24.459,52.996-36.714c-0.06-0.252-0.115-0.702-0.262-1.03c-1.563-2.35-3.415-4.427-4.636-6.979"/>
			<path fill="none" stroke="#000000" stroke-width="0.3102" stroke-linecap="round" d="M140.47,205.373
				c-2.644-3.366-5.482-7.08-7.433-10.84"/>
			<path fill="none" stroke="#000000" stroke-width="0.6002" stroke-linecap="round" d="M160.958,175.892
				c0.251,0.231,0.501,0.395,0.75,0.563"/>
			<path fill="none" stroke="#000000" stroke-width="0.35" stroke-linecap="round" d="M142.22,190.506
				c1.53,2.488,3.694,4.379,5.122,6.866"/>
			<path fill="none" stroke="#000000" stroke-width="0.3331" stroke-linecap="round" d="M147.342,197.377
				c0.557,0.253,1.035,0.688,1.495,1.083c3.87-0.332,6.651-4.014,9.775-6.547c3.695-3.002,7.298-6.389,9.653-10.025"/>
			<path fill="none" stroke="#000000" stroke-width="0.3682" stroke-linecap="round" d="M140.47,205.373
				c0.728-0.433,1.33-1.051,1.692-1.807c-0.377-3.757-4.651-5.872-5.446-9.443"/>
			<path fill="none" stroke="#000000" stroke-width="0.3177" stroke-linecap="round" d="M81.505,67.016
				c4.263-1.56,6.44-6.247,9.37-9.556"/>
			<path fill="none" stroke="#000000" stroke-width="0.7444" stroke-linecap="round" d="M80.943,73.48
				c0.553,0.423,0.884,1.002,0.999,1.406"/>
			<path fill="none" stroke="#000000" stroke-width="0.4757" stroke-linecap="round" d="M81.943,74.886
				c1.132-0.176,1.77,0.909,2.749,1.217"/>
			<path fill="none" stroke="#000000" stroke-width="0.5264" stroke-linecap="round" d="M84.691,76.104
				c0.636-0.168,1.406-0.17,1.911,0.319"/>
			<path fill="none" stroke="#000000" stroke-width="0.7644" stroke-linecap="round" d="M86.602,76.424
				c0.735-0.34,1.625-0.266,2.399-0.1"/>
			<path fill="none" stroke="#000000" stroke-width="0.7062" stroke-linecap="round" d="M89,76.324
				c0.479-0.198,0.768-0.337,1.124-0.5"/>
			<path fill="none" stroke="#000000" stroke-width="0.4619" stroke-linecap="round" d="M90.125,75.824
				c-0.519-1.494,0.871-2.852,1.624-3.998"/>
			<path fill="none" stroke="#000000" stroke-width="0.4582" stroke-linecap="round" d="M91.749,71.826
				c0.336-1.25,1.548-2.344,2.78-2.841"/>
			<path fill="none" stroke="#000000" stroke-width="0.7127" stroke-linecap="round" d="M94.529,68.984
				c0.474-0.402,1.031-0.728,1.457-1.201"/>
			<path fill="none" stroke="#000000" stroke-width="0.9562" stroke-linecap="round" d="M95.985,67.782
				c-0.029-0.134-0.04-0.263-0.051-0.391"/>
			<path fill="none" stroke="#000000" stroke-width="0.5111" stroke-linecap="round" d="M95.934,67.391
				c-0.679-0.335-1.028-1.021-1.312-1.687"/>
			<path fill="none" stroke="#000000" stroke-width="0.5234" stroke-linecap="round" d="M94.623,65.704
				c-1.04-0.296-1.934-0.972-2.702-1.737c-0.099-0.296-0.1-0.809-0.087-1.188c0.36-0.576,0.845-1.071,1.179-1.665
				c0.193-0.054,0.548-0.159,0.861-0.281"/>
			<path fill="none" stroke="#000000" stroke-width="0.7307" stroke-linecap="round" d="M103.563,68.784
				c1.432-0.056,2,1.278,2.488,2.354"/>
			<path fill="none" stroke="#000000" stroke-width="0.6518" stroke-linecap="round" d="M106.053,71.138
				c0.53,0.513,1.012,1.108,1.688,1.437"/>
			<path fill="none" stroke="#000000" stroke-width="0.5944" stroke-linecap="round" d="M107.74,72.576
				c0.624-0.293,1.25-0.317,1.874-0.125"/>
			<path fill="none" stroke="#000000" stroke-width="0.6658" stroke-linecap="round" d="M109.613,72.45
				c0.575-0.592,1.458-0.738,2.251-0.75"/>
			<path fill="none" stroke="#000000" stroke-width="0.5111" stroke-linecap="round" d="M111.864,71.7
				c0.209-0.525,0.767-0.78,1.247-0.999"/>
			<path fill="none" stroke="#000000" stroke-width="0.4757" stroke-linecap="round" d="M113.111,70.701
				c0.465-0.62,1.089-1.311,1.875-1.5"/>
			<path fill="none" stroke="#000000" stroke-width="0.4842" stroke-linecap="round" d="M114.986,69.202
				c0.352-0.869,0.578-1.859,1.373-2.374"/>
			<path fill="none" stroke="#000000" stroke-width="0.3329" stroke-linecap="round" d="M116.359,66.828
				c-0.123-0.872-0.082-1.945,0.188-2.811"/>
			<path fill="none" stroke="#000000" stroke-width="0.4021" stroke-linecap="round" d="M117.11,60.082
				c-0.383-10.899-1.732-21.963-2.718-32.7"/>
			<path fill="none" stroke="#000000" stroke-width="0.3734" stroke-linecap="round" d="M114.393,27.382
				c-7.96,9.118-23.441,11.328-34.012,4.966"/>
			<path fill="none" stroke="#000000" stroke-width="0.5024" stroke-linecap="round" d="M120.484,64.58
				c0.432-1.918-1.496-4.09-3.374-4.498"/>
			<path fill="none" stroke="#000000" stroke-width="0.3939" stroke-linecap="round" d="M117.11,60.082
				c-0.473,1.167-1.116,2.703-0.562,3.936"/>
			<path fill="none" stroke="#000000" stroke-width="0.4077" stroke-linecap="round" d="M94.623,65.704
				c1.029-0.151,0.801-1.421,1.326-2.049c0.781-0.371,1.801-0.03,2.518-0.667"/>
			<path fill="none" stroke="#000000" stroke-width="0.5062" stroke-linecap="round" d="M98.464,62.988
				c-0.788-1.667-2.718-2.965-4.592-2.156"/>
			<path fill="none" stroke="#000000" stroke-width="0.2936" stroke-linecap="round" d="M93.873,60.833
				c0.276,0.39,0.352,0.661,0.454,0.914c-0.29,0.135-0.396,0.528-0.454,0.96"/>
			<path fill="none" stroke="#000000" stroke-width="0.4589" stroke-linecap="round" d="M81.131,66.454
				c0.312-1.313-0.145-2.773-0.625-3.997"/>
			<path fill="none" stroke="#000000" stroke-width="0.4757" stroke-linecap="round" d="M95.934,67.391
				c1.097-1.303,2.107-2.521,3.936-2.561"/>
			<path fill="none" stroke="#000000" stroke-width="0.5924" stroke-linecap="round" d="M99.87,64.83
				c-0.181-0.78-0.542-1.641-1.406-1.841"/>
			<path fill="none" stroke="#000000" stroke-width="0.438" stroke-linecap="round" d="M116.359,66.828
				c0.897-0.033,1.755,0.222,2.623,0.375"/>
			<path fill="none" stroke="#000000" stroke-width="0.3011" stroke-linecap="round" d="M114.986,69.202
				c0.643,0.591,1.854,0.437,2.124,1.375"/>
			<path fill="none" stroke="#000000" stroke-width="0.3264" stroke-linecap="round" d="M113.111,70.701
				c0.715,0.667,1.767,0.667,2.416,1.46c0.23,0.936-0.234,2.092,0.688,2.763"/>
			<path fill="none" stroke="#000000" stroke-width="0.5123" stroke-linecap="round" d="M116.21,74.924
				c2.713-2.271,6.616-6.851,4.274-10.344"/>
			<path fill="none" stroke="#000000" stroke-width="0.4545" stroke-linecap="round" d="M120.484,64.58
				c-1.328-0.242-2.592-1.178-3.937-0.562"/>
			<path fill="none" stroke="#000000" stroke-width="0.4359" stroke-linecap="round" d="M81.255,70.076
				c0.884-0.823,0.18-2.059,0.25-3.06"/>
			<path fill="none" stroke="#000000" stroke-width="0.6658" stroke-linecap="round" d="M81.505,67.016
				c-0.205-0.146-0.292-0.353-0.374-0.562"/>
			<path fill="none" stroke="#000000" stroke-width="0.3878" stroke-linecap="round" d="M81.131,66.454
				c-1.09-0.476-1.882-1.356-3.091-1.592"/>
			<path fill="none" stroke="#000000" stroke-width="0.5766" stroke-linecap="round" d="M95.985,67.782
				c0.785,0.162,1.63-0.232,2.385,0.17"/>
			<path fill="none" stroke="#000000" stroke-width="0.5816" stroke-linecap="round" d="M98.371,67.952
				c1.276-0.524,2.655,0.158,3.936-0.187"/>
			<path fill="none" stroke="#000000" stroke-width="0.5571" stroke-linecap="round" d="M102.307,67.766
				c-0.431-1.194-1.092-2.604-2.437-2.937"/>
			<path fill="none" stroke="#000000" stroke-width="0.438" stroke-linecap="round" d="M80.905,72.676
				c0.908-0.654,0.843-1.73,0.351-2.599"/>
			<path fill="none" stroke="#000000" stroke-width="0.357" stroke-linecap="round" d="M81.255,70.076
				c-1.522-1.071-3.14-2.961-5.372-1.748"/>
			<path fill="none" stroke="#000000" stroke-width="0.5211" stroke-linecap="round" d="M75.884,68.328
				c-1.106,0.802-1.61,2.426-1.125,3.748"/>
			<path fill="none" stroke="#000000" stroke-width="0.6658" stroke-linecap="round" d="M97.62,73.575
				c0.625-0.011,1.25-0.159,1.875-0.374"/>
			<path fill="none" stroke="#000000" stroke-width="0.3677" stroke-linecap="round" d="M99.495,73.2
				c0.673-1.943-0.805-3.594-1.124-5.249"/>
			<path fill="none" stroke="#000000" stroke-width="0.7382" stroke-linecap="round" d="M99.495,73.2
				c0.568,0.126,1.07,0.386,1.562,0.687"/>
			<path fill="none" stroke="#000000" stroke-width="0.4553" stroke-linecap="round" d="M101.056,73.887
				c1.185-1.576,2.076-3.169,2.507-5.104"/>
			<path fill="none" stroke="#000000" stroke-width="1.0056" stroke-linecap="round" d="M103.563,68.784
				c-0.259-0.373-0.821-0.653-1.259-1.018"/>
			<path fill="none" stroke="#000000" stroke-width="0.7256" stroke-linecap="round" d="M95.425,74.591
				c0.453,0.097,0.954,0.092,1.446,0.107"/>
			<path fill="none" stroke="#000000" stroke-width="0.6574" stroke-linecap="round" d="M96.873,74.7
				c0.25-0.456,0.5-0.793,0.75-1.125"/>
			<path fill="none" stroke="#000000" stroke-width="0.3874" stroke-linecap="round" d="M97.62,73.575
				c-0.552-1.89-1.449-3.448-3.091-4.591"/>
			<path fill="none" stroke="#000000" stroke-width="0.4728" stroke-linecap="round" d="M102.118,79.571
				c0.761,2.226-0.738,4.235-1.668,6.133"/>
			<path fill="none" stroke="#000000" stroke-width="0.5832" stroke-linecap="round" d="M100.45,85.704
				c2.677,1.1,5.366-0.777,6.104-3.321"/>
			<path fill="none" stroke="#000000" stroke-width="0.4359" stroke-linecap="round" d="M106.554,82.382
				c-1.258-0.354-1.832,1.07-2.937,1.123"/>
			<path fill="none" stroke="#000000" stroke-width="0.4954" stroke-linecap="round" d="M106.554,82.382
				c1.144-1.136,2.041-2.628,1.749-4.31"/>
			<path fill="none" stroke="#000000" stroke-width="0.3737" stroke-linecap="round" d="M108.302,78.072
				c-1.5,0.386-2.8,0.953-4.122,1.687"/>
			<path fill="none" stroke="#000000" stroke-width="0.8487" stroke-linecap="round" d="M108.302,78.072
				c0.07-0.054,0.129-0.121,0.188-0.188"/>
			<path fill="none" stroke="#000000" stroke-width="0.5803" stroke-linecap="round" d="M108.49,77.885
				c-0.137-1.057-0.084-2.157-0.374-3.186"/>
			<path fill="none" stroke="#000000" stroke-width="0.3227" stroke-linecap="round" d="M108.116,74.7
				c-0.319-0.021-0.642,0.025-0.966,0.12c-0.575,1.494-2.166,2.189-3.156,3.252"/>
			<path fill="none" stroke="#000000" stroke-width="0.3693" stroke-linecap="round" d="M106.053,71.138
				c-0.419,1.532-1.372,2.86-2.436,3.936"/>
			<path fill="none" stroke="#000000" stroke-width="0.4708" stroke-linecap="round" d="M113.27,76.386
				c0.949-0.132,1.845-0.501,2.715-0.938"/>
			<path fill="none" stroke="#000000" stroke-width="0.7983" stroke-linecap="round" d="M115.984,75.447
				c0.081-0.222,0.16-0.375,0.231-0.525"/>
			<path fill="none" stroke="#000000" stroke-width="0.4316" stroke-linecap="round" d="M76.54,78.165
				c0.634-0.968,0.608-2.159,0.716-3.257c0.205-0.143,0.402-0.316,0.586-0.5c1.074-0.247,2.019-0.699,3.101-0.928"/>
			<path fill="none" stroke="#000000" stroke-width="0.9562" stroke-linecap="round" d="M80.943,73.48
				c0.002-0.322-0.017-0.575-0.038-0.806"/>
			<path fill="none" stroke="#000000" stroke-width="0.4127" stroke-linecap="round" d="M80.905,72.676
				c-1.487-1.183-3.767-2.076-5.396-0.6"/>
			<path fill="none" stroke="#000000" stroke-width="0.7256" stroke-linecap="round" d="M90.125,75.824
				c0.386-0.003,0.664,0.029,0.936,0.063"/>
			<path fill="none" stroke="#000000" stroke-width="0.5669" stroke-linecap="round" d="M91.062,75.886
				c0.391-0.72,1.082-1.253,1.969-1.094"/>
			<path fill="none" stroke="#000000" stroke-width="0.4545" stroke-linecap="round" d="M95.249,74.323
				c0.582-2.24-2.154-2.125-3.499-2.498"/>
			<path fill="none" stroke="#000000" stroke-width="0.3787" stroke-linecap="round" d="M109.613,72.45
				c0.101,1.234,1.106,2.153,1.125,3.373"/>
			<path fill="none" stroke="#000000" stroke-width="0.5085" stroke-linecap="round" d="M107.74,72.576
				c-0.342,0.729,0.115,1.451,0.375,2.124"/>
			<path fill="none" stroke="#000000" stroke-width="0.4734" stroke-linecap="round" d="M108.49,77.885
				c1.786,0.285,3.458-0.533,4.777-1.498"/>
			<path fill="none" stroke="#000000" stroke-width="0.4631" stroke-linecap="round" d="M113.27,76.386
				c0.036-1.751-0.164-3.371-1.405-4.686"/>
			<path fill="none" stroke="#000000" stroke-width="0.5379" stroke-linecap="round" d="M96.873,74.7
				c0.619,0.595,1.292,1.13,1.874,1.874"/>
			<path fill="none" stroke="#000000" stroke-width="0.3939" stroke-linecap="round" d="M98.745,76.573
				c0.39-0.166,0.694-0.021,1.125,0"/>
			<path fill="none" stroke="#000000" stroke-width="0.4559" stroke-linecap="round" d="M98.84,78.727
				c1.094,0.378,2.063,1.062,3.28,0.843"/>
			<path fill="none" stroke="#000000" stroke-width="0.5145" stroke-linecap="round" d="M102.118,79.571
				c0.508-1.941-0.553-3.846-1.062-5.684"/>
			<path fill="none" stroke="#000000" stroke-width="0.5959" stroke-linecap="round" d="M76.54,78.165
				c0.589,2.441,2.887,3.578,4.591,5.153"/>
			<path fill="none" stroke="#000000" stroke-width="0.6956" stroke-linecap="round" d="M81.131,83.319
				c1.613,0.271,3.242,0.538,4.872,0.75"/>
			<path fill="none" stroke="#000000" stroke-width="0.3422" stroke-linecap="round" d="M86.003,84.069
				c-0.704-2.544-1.812-5.451,0.599-7.645"/>
			<path fill="none" stroke="#000000" stroke-width="0.3733" stroke-linecap="round" d="M84.691,76.104
				c0.242,1.223-1.129,1.095-1.796,1.425c-0.702,1.396,0.215,2.85,0.109,4.291"/>
			<path fill="none" stroke="#000000" stroke-width="0.3615" stroke-linecap="round" d="M81.943,74.886
				c-1.104,0.864-2.487,1.438-2.772,2.987c0.364,0.802,0.566,1.915,1.209,2.446"/>
			<path fill="none" stroke="#000000" stroke-width="0.3929" stroke-linecap="round" d="M93.031,74.793
				c-0.537,1.955,0.006,3.713,0.468,5.527"/>
			<path fill="none" stroke="#000000" stroke-width="0.3208" stroke-linecap="round" d="M91.062,75.886
				c-0.399,1.532-0.901,3.124-0.45,4.698c0.126,0.126,0.24,0.26,0.355,0.395c0.336,0.038,0.506,0.243,0.657,0.466"/>
			<path fill="none" stroke="#000000" stroke-width="0.3625" stroke-linecap="round" d="M89,76.324
				c-0.441,0.989-1.147,1.769-1.296,2.865c0.199,1.208,0.892,2.127,1.672,3.006"/>
			<path fill="none" stroke="#000000" stroke-width="0.7969" stroke-linecap="round" d="M86.003,84.069
				c1.04,0.018,2.111-0.175,3.079,0.322"/>
			<path fill="none" stroke="#000000" stroke-width="0.541" stroke-linecap="round" d="M89.082,84.391
				c2.703-1.019,5.583-1.904,7.791-3.693"/>
			<path fill="none" stroke="#000000" stroke-width="0.322" stroke-linecap="round" d="M96.873,80.696
				c-0.915-1.876-2.706-3.999-1.446-6.104"/>
			<path fill="none" stroke="#000000" stroke-width="0.8487" stroke-linecap="round" d="M95.425,74.591
				c-0.059-0.089-0.12-0.179-0.178-0.268"/>
			<path fill="none" stroke="#000000" stroke-width="0.5548" stroke-linecap="round" d="M95.249,74.323
				c-0.812-0.353-1.615-0.155-2.218,0.469"/>
			<path fill="none" stroke="#000000" stroke-width="0.5766" stroke-linecap="round" d="M96.873,80.696
				c0.538-0.16,0.956-0.173,1.249-0.25"/>
			<path fill="none" stroke="#000000" stroke-width="0.5329" stroke-linecap="round" d="M98.12,80.445
				c-0.055-0.687,0.299-1.205,0.718-1.718"/>
			<path fill="none" stroke="#000000" stroke-width="0.7256" stroke-linecap="round" d="M98.84,78.727
				c-0.162-0.705-0.065-1.437-0.094-2.156"/>
			<path fill="none" stroke="#000000" stroke-width="0.3139" stroke-linecap="round" d="M94.997,87.816
				c-0.012,0.755,0.088,1.531-0.188,2.249"/>
			<path fill="none" stroke="#000000" stroke-width="0.6518" stroke-linecap="round" d="M94.811,90.065
				c0.125,0.272,0.25,0.603,0.374,0.936"/>
			<path fill="none" stroke="#000000" stroke-width="0.9236" stroke-linecap="round" d="M95.185,91
				c4.393-0.549,8.939-0.459,13.305-1.436"/>
			<path fill="none" stroke="#000000" stroke-width="0.3868" stroke-linecap="round" d="M98.12,80.445
				c0.715,0.561,1.179,1.568,2.124,1.75"/>
			<path fill="none" stroke="#000000" stroke-width="0.7391" stroke-linecap="round" d="M89.082,84.391
				c0.132,0.793,0.773,1.287,1.168,1.926"/>
			<path fill="none" stroke="#000000" stroke-width="0.5654" stroke-linecap="round" d="M90.25,86.317
				c1.196,0.07,1.989,1.2,3.248,0.938"/>
			<path fill="none" stroke="#000000" stroke-width="0.4226" stroke-linecap="round" d="M93.499,87.254
				c-0.099-0.732-0.557-1.291-0.936-1.874"/>
			<path fill="none" stroke="#000000" stroke-width="0.7173" stroke-linecap="round" d="M93.499,87.254
				c0.387,0.217,0.836,0.427,1.498,0.562"/>
			<path fill="none" stroke="#000000" stroke-width="0.6375" stroke-linecap="round" d="M94.997,87.816
				c0.771-0.193,1.683-0.062,2.25-0.75"/>
			<path fill="none" stroke="#000000" stroke-width="0.2846" stroke-linecap="round" d="M97.247,87.067
				c-0.629-0.993-1.624-1.645-2.25-2.622"/>
			<path fill="none" stroke="#000000" stroke-width="0.5662" stroke-linecap="round" d="M97.247,87.067
				c1.063-0.147,1.802-0.993,2.812-1.312"/>
			<path fill="none" stroke="#000000" stroke-width="0.3438" stroke-linecap="round" d="M100.058,85.755
				c-0.797-0.989-2.333-1.159-2.812-2.436"/>
			<path fill="none" stroke="#000000" stroke-width="0.9562" stroke-linecap="round" d="M100.058,85.755
				c0.127-0.006,0.26-0.029,0.392-0.051"/>
			<path fill="none" stroke="#000000" stroke-width="0.5296" stroke-linecap="round" d="M90.25,86.317
				c-0.234,1.095-0.633,2.299-0.5,3.374"/>
			<path fill="none" stroke="#000000" stroke-width="0.3635" stroke-linecap="round" d="M94.811,90.065
				c-1.14,0.213-1.95-1.63-3.084-0.643c-0.165,0.622-0.57,1.211-1.225,1.393"/>
			<path fill="none" stroke="#000000" stroke-width="0.5479" stroke-linecap="round" d="M90.687,93.876
				c-0.208,1.203,0.878,1.928,1.312,2.935"/>
			<path fill="none" stroke="#000000" stroke-width="0.5532" stroke-linecap="round" d="M94.872,91.315
				c-1.986,0.044-2.655,1.759-4.186,2.562"/>
			<path fill="none" stroke="#000000" stroke-width="0.5924" stroke-linecap="round" d="M91.999,96.81
				c0.406,1.011,0.931,2.228,2.156,2.342"/>
			<path fill="none" stroke="#000000" stroke-width="0.3722" stroke-linecap="round" d="M94.155,99.152
				c0.468-0.807,0.814-1.85,1.592-2.342"/>
			<path fill="none" stroke="#000000" stroke-width="0.3424" stroke-linecap="round" d="M95.747,93.812
				c-0.713,0.64-1.836,0.102-2.523,0.849c-0.387,0.74-0.232,1.917-1.224,2.148"/>
			<path fill="none" stroke="#000000" stroke-width="0.3039" stroke-linecap="round" d="M152.528,180.574
				c0.118,0.255,0.227,0.521,0.373,0.749"/>
			<path fill="none" stroke="#000000" stroke-width="0.4032" stroke-linecap="round" d="M152.901,181.323
				c2.693-0.87,5.955-2.616,7.308-5.059"/>
			<path fill="none" stroke="#000000" stroke-width="0.3276" stroke-linecap="round" d="M143.532,187.414
				c3.314-1.12,6.97-3.529,9.369-6.091"/>
			
				<line fill="none" stroke="#000000" stroke-width="0.7192" stroke-linecap="round" x1="75.884" y1="259.091" x2="75.884" y2="259.091"/>
			<path fill="none" stroke="#000000" stroke-width="0.3075" stroke-linecap="round" d="M75.884,259.091
				c5.215-3.351,10.353-6.791,15.365-10.495"/>
			<path fill="none" stroke="#000000" stroke-width="0.305" stroke-linecap="round" d="M91.249,248.599
				c-4.479-7.227-9.137-13.963-13.866-20.989"/>
			
				<line fill="none" stroke="#000000" stroke-width="0.7192" stroke-linecap="round" x1="77.383" y1="227.609" x2="77.383" y2="227.609"/>
			<path fill="none" stroke="#000000" stroke-width="0.3106" stroke-linecap="round" d="M77.383,227.609
				c-1.162,0.853-2.638,1.392-3.374,2.621"/>
			<path fill="none" stroke="#000000" stroke-width="0.3245" stroke-linecap="round" d="M74.009,230.234
				c1.339,1.568,2.236,3.517,3.374,5.245"/>
			<path fill="none" stroke="#000000" stroke-width="0.3372" stroke-linecap="round" d="M67.39,234.854
				c2.88,3.2,4.634,7.481,7.37,10.744"/>
			<path fill="none" stroke="#000000" stroke-width="0.3596" stroke-linecap="round" d="M92.375,250.097
				c-0.292-0.475-0.553-0.963-0.75-1.498"/>
			<path fill="none" stroke="#000000" stroke-width="0.3979" stroke-linecap="round" d="M75.884,259.091
				c0.549,0.418,0.805,1.061,1.03,1.687"/>
			<path fill="none" stroke="#000000" stroke-width="0.2975" stroke-linecap="round" d="M76.915,260.777
				c5.31-3.136,10.771-6.777,15.459-10.681"/>
			<path fill="none" stroke="#000000" stroke-width="0.3084" stroke-linecap="round" d="M-40.548,328.677
				c24.51-16.26,48.488-32.537,73.52-48.127"/>
			<path fill="none" stroke="#000000" stroke-width="0.3019" stroke-linecap="round" d="M32.972,280.547
				c-0.675-2.19-2.506-4.021-3.748-5.902"/>
			<path fill="none" stroke="#000000" stroke-width="0.3049" stroke-linecap="round" d="M29.224,274.645
				c-24.808,14.794-47.858,31.812-71.771,47.785"/>
			<path fill="none" stroke="#000000" stroke-width="0.3512" stroke-linecap="round" d="M27.413,272.333
				c-0.93-2.062-2.108-4.017-3.625-5.745"/>
			<path fill="none" stroke="#000000" stroke-width="0.3042" stroke-linecap="round" d="M-45.794,320.805
				c24.37-16.414,48.206-32.823,73.207-48.472"/>
			<path fill="none" stroke="#000000" stroke-width="0.3916" stroke-linecap="round" d="M-40.548,328.677
				c-2.126-2.216-3.968-4.995-5.247-7.866"/>
			<path fill="none" stroke="#000000" stroke-width="0.33" stroke-linecap="round" d="M-45.794,320.805
				c-1.494-1.374-2.586-3.332-3.373-5.247"/>
			<path fill="none" stroke="#000000" stroke-width="0.3478" stroke-linecap="round" d="M106.615,24.104
				c0.878,0.429,1.494-0.902,2.25-0.374"/>
			<path fill="none" stroke="#000000" stroke-width="0.338" stroke-linecap="round" d="M94.997,52.586
				c3.394-3.832,4.283-9.036,6.372-13.491"/>
		</g>
	</g>
</g>
</svg>
