<?xml version="1.0" encoding="utf-8"?>
<!-- Generator: Adobe Illustrator 15.1.0, SVG Export Plug-In . SVG Version: 6.00 Build 0)  -->
<!DOCTYPE svg PUBLIC "-//W3C//DTD SVG 1.1//EN" "http://www.w3.org/Graphics/SVG/1.1/DTD/svg11.dtd">
<svg version="1.1" id="Layer_1" xmlns="http://www.w3.org/2000/svg" xmlns:xlink="http://www.w3.org/1999/xlink" x="0px" y="0px"
	 width="326.828px" height="74.15px" viewBox="43.663 26.281 326.828 74.15" enable-background="new 43.663 26.281 326.828 74.15"
	 xml:space="preserve">
<metadata><?xpacket begin="﻿" id="W5M0MpCehiHzreSzNTczkc9d"?>
<x:xmpmeta xmlns:x="adobe:ns:meta/" x:xmptk="Adobe XMP Core 5.0-c060 61.134777, 2010/02/12-17:32:00        ">
   <rdf:RDF xmlns:rdf="http://www.w3.org/1999/02/22-rdf-syntax-ns#">
      <rdf:Description rdf:about=""
            xmlns:xmp="http://ns.adobe.com/xap/1.0/"
            xmlns:xmpGImg="http://ns.adobe.com/xap/1.0/g/img/">
         <xmp:CreatorTool>Adobe Illustrator CS5</xmp:CreatorTool>
         <xmp:CreateDate>2015-01-07T18:24:53+02:00</xmp:CreateDate>
         <xmp:Thumbnails>
            <rdf:Alt>
               <rdf:li rdf:parseType="Resource">
                  <xmpGImg:width>256</xmpGImg:width>
                  <xmpGImg:height>60</xmpGImg:height>
                  <xmpGImg:format>JPEG</xmpGImg:format>
                  <xmpGImg:image>/9j/4AAQSkZJRgABAgEBLAEsAAD/7QAsUGhvdG9zaG9wIDMuMAA4QklNA+0AAAAAABABLAAAAAEA&#xA;AQEsAAAAAQAB/+4ADkFkb2JlAGTAAAAAAf/bAIQABgQEBAUEBgUFBgkGBQYJCwgGBggLDAoKCwoK&#xA;DBAMDAwMDAwQDA4PEA8ODBMTFBQTExwbGxscHx8fHx8fHx8fHwEHBwcNDA0YEBAYGhURFRofHx8f&#xA;Hx8fHx8fHx8fHx8fHx8fHx8fHx8fHx8fHx8fHx8fHx8fHx8fHx8fHx8fHx8f/8AAEQgAPAEAAwER&#xA;AAIRAQMRAf/EAaIAAAAHAQEBAQEAAAAAAAAAAAQFAwIGAQAHCAkKCwEAAgIDAQEBAQEAAAAAAAAA&#xA;AQACAwQFBgcICQoLEAACAQMDAgQCBgcDBAIGAnMBAgMRBAAFIRIxQVEGE2EicYEUMpGhBxWxQiPB&#xA;UtHhMxZi8CRygvElQzRTkqKyY3PCNUQnk6OzNhdUZHTD0uIIJoMJChgZhJRFRqS0VtNVKBry4/PE&#xA;1OT0ZXWFlaW1xdXl9WZ2hpamtsbW5vY3R1dnd4eXp7fH1+f3OEhYaHiImKi4yNjo+Ck5SVlpeYmZ&#xA;qbnJ2en5KjpKWmp6ipqqusra6voRAAICAQIDBQUEBQYECAMDbQEAAhEDBCESMUEFURNhIgZxgZEy&#xA;obHwFMHR4SNCFVJicvEzJDRDghaSUyWiY7LCB3PSNeJEgxdUkwgJChgZJjZFGidkdFU38qOzwygp&#xA;0+PzhJSktMTU5PRldYWVpbXF1eX1RlZmdoaWprbG1ub2R1dnd4eXp7fH1+f3OEhYaHiImKi4yNjo&#xA;+DlJWWl5iZmpucnZ6fkqOkpaanqKmqq6ytrq+v/aAAwDAQACEQMRAD8A9U4q7FXYq7FXYq7FXYq7&#xA;FXYq7FXYq7FXYq7FXYq0zog5OwVdhUmgqTQYq3irsVdirsVdirsVdiqReerTULvylqdvp80kFy0V&#xA;ecMhhlMasGlSOUbxu8QZVf8AZJriqv5VoNAtAIZLcAOFgnuZbyVB6jUWSeYs7MB1HIhfsgkAHFU2&#xA;xV2KuxV2KoVr9/WliitZZvRYI7oYgKlQ9BzdT0YdsVY95R0wWes62xsoLeaW5kuJ7rd7qc3L+rH6&#xA;rVYKsSUjVQzbAU49MVZXirsVdirsVdirsVdirsVdirsVdirsVdirsVdirsVYr5zitdVitrVLX9Iv&#xA;ZXK3L2jxGa3cqjxqJlBHIIz8wKEc0A2O4VTrSNQtpYIrcL6E8SKrW7RGClFH2YyW4im4XkaCmKph&#xA;irsVdirsVdirsVQuq76dcIPtSoYUHi8vwKP+CYYqlXkAk+TdJJ3JgFT9JxVP8VdirsVdiqFsv96b&#xA;/wD4zr/yYixVCaN+9vNRuf2jMYH92hZgD8vTZR9GKprirsVdirsVdirsVdirsVdirsVdirsVdirs&#xA;VdiqB1y7e10ueZK8gAooaH4mCkg9iAajFVeytEtbZIVoSoHNgKcmpQmnb2HYbdMVQ2s24a1e5U8J&#xA;rccxKBUhV3aniQBVR4+1cVRdnObi0gnI4maNZCvWnJQaYqq4q7FXYq7FXYqhdT/3mT/jPb/8n0xV&#xA;KfIH/KG6T/xgH6zirIMVdirsVdiqF0z/AHmf/jPcf8n3xVCeX+moHs17KynxVgpBHsQa4qmuKuxV&#xA;2KuxV2KuxV2KuxV2KuxV2KuxV2KuxV2KpZ5jjc6YZYhWe3kjlh9mDAVPanFjWuKpjHIkkayRnkjg&#xA;MrDoQRUHFUv1qZ2hWxh3nu/g8QENeRPsQCPGlSOmKo+CFIII4Y/sRKEWu5oooMVX4q7FXYq7FXYq&#xA;hdV20+eT9qFfXTwLQn1FB9qrviqU+QP+UN0n/jAP1nFWQYq7FXYq7FULpn+8z/8AGe4/5PviqWaD&#xA;dstvJHHbyTlfQ5lOAAJtYSBV2TenhiqG8x/mBovl82kd7HJ9YvJhbxQM9vb/ALwoXp6l3NbwnZf2&#xA;XNTSnXFWTYq7FXYq7FXYq7FXYq7FXYq7FXYq7FXYqpz3FvAgeeVIkJoGdgor1pU4qh5NS0eSNo5L&#xA;u3ZHBVlMqUIIoR1xVB6NfQrM+mrMtx6Y5xSRsHHCv7XGtN/6dKVVU9Jv7Fy9/dXMUdzPsscjqrJH&#xA;WvGhP+2AD1JqqmP6X0mtPrsFfD1U/riqvBdW1wrNbypMqnizRsGAagNDSu9CMVVMVdiqyaeCCMyz&#xA;yLFGKAu5CqCTQbnxJpiqh+ltK/5bYP8Akan9cVQ99qFhPCsMNzFK8ksKmNHViymVQ4oDuCta+2Kp&#xA;X5HvrK38o6VFcXEcMot0JjkdVYBviU0JB3UgjFU8/S2lf8tsH/I1P64qiIpopoxJE6yRt9l0IYGh&#xA;psRiq7FXEhQSTQDck9AMVSm01fT7bTmmuZhB/e3LRy1jcI7NL9l+JNAaVG1cVU9EFzHp8ViB6c6G&#xA;RZpj2CuR8AP2zSlD0H4FVV1PyxpGpR2y3SzhrSRpoJre5uLWUO6FGJlt5InPJWIIJpiqVaDZ+WtX&#xA;/SMiv9euLbULqC7k5SrxkEpcRgcqURHVQRsaYqmv+FtB/wCWX/h5P+asVYtpOpeS73zpqXlRLWU6&#xA;jah5iWlQoEiS3Djgk7zIK3CkGSNVap4k4qyn/C2g/wDLL/w8n/NWKu/wtoP/ACy/8PJ/zViqReVo&#xA;dA15Lu6h0m8t7L1mFncXZ4JPGjGEvAEmkfgWiLD1FQ0YGlDiqe/4W0H/AJZf+Hk/5qxV3+FtB/5Z&#xA;f+Hk/wCasVY15Lm8u6/AwOlXNnObe31KOO5k5FrTUTI9u6tFLIP91OhU0I49KEEqsl/wtoP/ACy/&#xA;8PJ/zViqQeRdcsrjXPMWk2dnPbxWl7JWSUkoWiWO3YR1JNC0RbFWaYq7FWLebdL8yX+saJJp0cD6&#xA;bp84nv4p3p6wkIhZVSjBjHA8rfEVHLhStDiqf/onSv8Alig/5FJ/TFWG6LpPm21/M7Ubg2KW/lZ4&#xA;nWCVWQIaxWojCKJ3NfUjm5D6vHSv23xVZ5N8r6rb65ez6lYTR20pujdNe3CXSTzyXZkt5LSMSTfV&#xA;4kgZlK0Svwjh8NSqy690Sxls547e1t453jZYZGiWiuQeLGgrscVSH8rdG1fSPK6WerR3Ud+HBm+t&#xA;yiZmb0kDMjC6vvgLg0+Jf9UdSqy/FXYqxvzpaea7uGyi0FLZ0inFzfx3TlRNHCQy2wHpyf3pP2tq&#xA;cffFU6/ROlf8sUH/ACKT+mKsK/Nfy5rl3oNonlSwL6gl0zSi1MUDBDaXCRsxa4sgyLcNExXmen2W&#xA;G2KqHkjytrtvrks+sWEqRyLfm/kubiO6t5pZb0SWJtIucnorFbF0ekcQ3X4WpsqyjzToAufLOrW+&#xA;k2sMeqzWVxHp8ioiMtw8LLEwf4eJDkb1GKrfItlqVl5eit9QikgnR34xTFi6oTUAlr3VD/yXPyGK&#xA;sgxVCj/TGDf8eimqf8Wn+b/U8P5uvTqql3m3VTp+h6ndrH6y6dZzX1xF05rDG0ixb0H7wpQ/5Nel&#xA;RirAPLkF95611PNccGniO0ntLJtUVgbuJtKubiaZbYQ/WoSl0tyIn43bAKWBqfhCr1rFUq0Lyr5c&#xA;0CN49F06DT1kSOOX0ECFxDyCGQjd2+M1Zqse5xVNcVSaHyf5fh8wv5hS3f8ASrhx6jTzvEplVEka&#xA;O3ZzBGzrCgZkQE03OKpzirsVS3SPLmj6RJcyafA0TXTmSUNJLIoqzOVjWRmWJOTseEYC79MVTLFX&#xA;Yqlmh+WtD0KBoNJtFtY3CK3EsxKxjjGvJyzcUGyitB2xVM8VS2z8u6PZ6nPqdtAYry55+swkk4MZ&#xA;CrOfSLenVigNeNcVTLFXYq7FXYq7FXYq7FXYq7FXYq7FXYq7FXYq7FXYqh76G4liVYeJHIGWNyVD&#xA;pQ/DyAam9K7Go274qsN1eIvE2Ls4G3pPGY/ahdo2/wCFxVQ0LUbC9iuxazevNa3MltfvxZaXMdPU&#xA;UcgKhagD2xVMgABQbAdBirsVdirsVdirsVdirsVdirsVdirsVdirsVdirsVdirsVdirsVdirsVdi&#xA;rsVdirsVdirsVdirsVdirFPIv/Kuv9L/AMG/VP7uD9IfU6/a/een9Y/5ePtepz/e9Of7OKsrxV2K&#xA;v//Z</xmpGImg:image>
               </rdf:li>
            </rdf:Alt>
         </xmp:Thumbnails>
      </rdf:Description>
      <rdf:Description rdf:about=""
            xmlns:xmpTPg="http://ns.adobe.com/xap/1.0/t/pg/"
            xmlns:stDim="http://ns.adobe.com/xap/1.0/sType/Dimensions#"
            xmlns:xmpG="http://ns.adobe.com/xap/1.0/g/">
         <xmpTPg:MaxPageSize rdf:parseType="Resource">
            <stDim:w>115.297700</stDim:w>
            <stDim:h>26.158610</stDim:h>
            <stDim:unit>Millimeters</stDim:unit>
         </xmpTPg:MaxPageSize>
         <xmpTPg:NPages>1</xmpTPg:NPages>
         <xmpTPg:HasVisibleTransparency>False</xmpTPg:HasVisibleTransparency>
         <xmpTPg:HasVisibleOverprint>False</xmpTPg:HasVisibleOverprint>
         <xmpTPg:PlateNames>
            <rdf:Seq>
               <rdf:li>Cyan</rdf:li>
               <rdf:li>Magenta</rdf:li>
               <rdf:li>Yellow</rdf:li>
               <rdf:li>Black</rdf:li>
            </rdf:Seq>
         </xmpTPg:PlateNames>
         <xmpTPg:SwatchGroups>
            <rdf:Seq>
               <rdf:li rdf:parseType="Resource">
                  <xmpG:groupName>Default Swatch Group</xmpG:groupName>
                  <xmpG:groupType>0</xmpG:groupType>
               </rdf:li>
            </rdf:Seq>
         </xmpTPg:SwatchGroups>
      </rdf:Description>
      <rdf:Description rdf:about=""
            xmlns:dc="http://purl.org/dc/elements/1.1/">
         <dc:format>image/svg+xml</dc:format>
      </rdf:Description>
   </rdf:RDF>
</x:xmpmeta>
                                                                                                    
                                                                                                    
                                                                                                    
                                                                                                    
                                                                                                    
                                                                                                    
                                                                                                    
                                                                                                    
                                                                                                    
                                                                                                    
                                                                                                    
                                                                                                    
                                                                                                    
                                                                                                    
                                                                                                    
                                                                                                    
                                                                                                    
                                                                                                    
                                                                                                    
                                                                                                    
                           
<?xpacket end="w"?>
	</metadata>
<g>
	<g>
		<path d="M311.266,81.369c0.099-0.468,1.122-0.144,1.267,0.024c0.082,0.661-0.464,0.666-1.067,0.614l0.113-0.383L311.266,81.369z"
			/>
		<path d="M182.791,79.4c0.002-0.142,0.005-0.281,0.008-0.422c0.605-0.029,1.152-0.005,1.043,0.652l-0.112,0.315l-0.111,0.316
			c-0.167-0.117-0.338-0.226-0.629-0.22l0.112-0.385L182.791,79.4z"/>
		<path d="M148.73,84.042c0.035,0.181-0.083,0.198-0.214,0.207l-0.241-0.32l-0.388,0.097c0.038-0.243-0.04-0.375-0.203-0.424
			c0.07-0.282,0.532-0.166,0.847-0.197l-0.112,0.386L148.73,84.042z"/>
		<path d="M150.061,86.212l-0.312-0.251c0.409-0.381,2.198-0.332,2.317,0.254c-0.122,0.732-1.384,0.283-2.117,0.382L150.061,86.212z
			"/>
		<path d="M151.486,88.982l-0.312-0.251c0.235-0.539,1.218-0.09,1.262,0.236c-0.04,0.458-0.539,0.443-1.063,0.403L151.486,88.982z"
			/>
		<g>
			<path fill="none" stroke="#000000" stroke-width="0.7908" stroke-linecap="round" d="M355.781,31.026
				c-4.854,4.546-5.629-7.39-0.147-3.59"/>
			<path fill="none" stroke="#000000" stroke-width="0.8034" stroke-linecap="round" d="M290.976,32.141
				c-4.555,4.512-5.574-7.386-0.148-3.59"/>
			<path fill="none" stroke="#000000" stroke-width="0.4206" stroke-linecap="round" d="M266.067,77.891
				c7.6-0.025,15.216-0.078,22.745-0.477c0.204-9.103-0.011-18.598,0.047-27.799c0.027-4.595-0.142-9.11,0.373-13.489
				c0.812,2.19,0.383,4.65,0.383,6.962c-0.007,11.086-0.056,23.106,0.076,34.429c6.927,0.421,14.213,0.119,21.269,0.089
				c0.107-0.385,0.116-0.81-0.019-1.188c-6.538-0.334-13.268,0.213-19.872-0.235c-0.234-13.633,0.282-27.392-0.208-41.027
				c-0.895-0.671-2.118-0.627-3.039-0.058c-0.774,13.547,0.009,27.348-0.468,41.015c-7.028,0.398-14.328,0.1-21.277,0.606
				C266.08,77.116,266.016,77.493,266.067,77.891"/>
			<path fill="none" stroke="#000000" stroke-width="0.7874" stroke-linecap="round" d="M207.669,40.93
				c-4.564,4.469-5.477-7.379-0.144-3.59"/>
			<path fill="none" stroke="#000000" stroke-width="0.8149" stroke-linecap="round" d="M366.797,66.472
				c0.959-0.022,1.934,0.122,2.883-0.017"/>
			<path fill="none" stroke="#000000" stroke-width="0.8746" stroke-linecap="round" d="M370.053,69.064
				c-1.075-0.116-2.195,0.392-3.229,0.017c-0.258-0.815-0.121-1.763-0.028-2.609"/>
			<path fill="none" stroke="#000000" stroke-width="0.8644" stroke-linecap="round" d="M366.797,66.472
				c-0.051-0.772-0.118-1.583-0.061-2.337c1.028-0.338,2.138-0.095,3.202-0.138"/>
			<path fill="none" stroke="#000000" stroke-width="0.8367" stroke-linecap="round" d="M354.259,82.486
				c0.024,0.131,0.019,0.361,0.067,0.49c5.12,1.986,5.38-7.043,0.036-5.041C354.175,79.421,354.183,80.986,354.259,82.486"/>
			<path fill="none" stroke="#000000" stroke-width="0.9239" stroke-linecap="round" d="M308.782,81.641
				c-0.064,0.877-0.222,1.823,0.091,2.657c0.997,0.216,2.055,0.075,3.075,0.147"/>
			<path fill="none" stroke="#000000" stroke-width="0.9023" stroke-linecap="round" d="M308.782,81.641
				c-0.278-0.763,0.056-1.596,0.032-2.382c0.951-0.303,2.022-0.028,3.021-0.091"/>
			<path fill="none" stroke="#000000" stroke-width="0.8149" stroke-linecap="round" d="M308.782,81.641
				c0.931-0.021,1.875,0.12,2.796-0.017"/>
			<path fill="none" stroke="#000000" stroke-width="0.8813" stroke-linecap="round" d="M285.477,81.84
				c-0.278-0.753-0.146-1.609-0.09-2.388c1.054-0.126,2.821-0.538,3.365,0.716c0.2,0.615-0.452,1.01-0.666,1.51"/>
			<path fill="none" stroke="#000000" stroke-width="0.7826" stroke-linecap="round" d="M285.477,81.84
				c0.849-0.268,1.731-0.17,2.609-0.162"/>
			<path fill="none" stroke="#000000" stroke-width="0.8035" stroke-linecap="round" d="M285.477,81.84
				c-0.104,0.839-0.203,1.763,0.001,2.585c1.372,0.093,4.03,0.283,3.443-1.89c-0.211-0.357-0.649-0.489-0.838-0.857"/>
			<path fill="none" stroke="#000000" stroke-width="0.8456" stroke-linecap="round" d="M291.055,84.477
				c-0.849-1.184-0.225-3.523-0.391-5.138C295.598,77.122,296.255,86.024,291.055,84.477"/>
			<path fill="none" stroke="#000000" stroke-width="0.7683" stroke-linecap="round" d="M267.191,82.713
				c0.353,0.437,0.66,0.963,0.656,1.542"/>
			<path fill="none" stroke="#000000" stroke-width="0.7895" stroke-linecap="round" d="M263.84,84.18
				c0.25-0.498,0.229-1.134,0.662-1.535"/>
			<path fill="none" stroke="#000000" stroke-width="0.7041" stroke-linecap="round" d="M264.502,82.645
				c0.277-1.081,0.622-2.361,1.326-3.163c0.808,0.803,1.151,2.119,1.363,3.231"/>
			<path fill="none" stroke="#000000" stroke-width="0.8159" stroke-linecap="round" d="M264.502,82.645
				c0.881,0.131,1.802,0.136,2.689,0.068"/>
			<path fill="none" stroke="#000000" stroke-width="0.8785" stroke-linecap="round" d="M227.805,81.505
				c0.981-0.013,1.964-0.128,2.955-0.05"/>
			<path fill="none" stroke="#000000" stroke-width="0.88" stroke-linecap="round" d="M231.132,84.204
				c-1.082-0.109-2.166,0.09-3.229,0.003c-0.26-0.843-0.092-1.829-0.097-2.702"/>
			<path fill="none" stroke="#000000" stroke-width="0.9359" stroke-linecap="round" d="M227.805,81.505
				c-0.169-0.734-0.087-1.538-0.022-2.278c1.021-0.296,2.168-0.03,3.231-0.086"/>
			<path fill="none" stroke="#000000" stroke-width="0.5619" stroke-linecap="round" d="M149.197,78.775
				c0.099,1.011-0.017,2.041-0.004,3.06"/>
			<path fill="none" stroke="#000000" stroke-width="0.4189" stroke-linecap="round" d="M149.197,78.775
				c-7.364,0.069-14.714,0.264-22.104,0.117"/>
			<path fill="none" stroke="#000000" stroke-width="0.333" stroke-linecap="round" d="M127.091,78.892
				c0.211,1.029,0.006,2.114,0.047,3.166"/>
			<path fill="none" stroke="#000000" stroke-width="0.4579" stroke-linecap="round" d="M97.335,78.97
				c-0.098,1.067,0.125,2.101,0.047,3.168"/>
			<path fill="none" stroke="#000000" stroke-width="0.3529" stroke-linecap="round" d="M67.894,79.161
				c-0.093,1.161,0.061,2.359-0.065,3.479"/>
			<path fill="none" stroke="#000000" stroke-width="0.4957" stroke-linecap="round" d="M45.988,82.657
				c0.182-1.173-0.229-2.407,0.101-3.516"/>
			<path fill="none" stroke="#000000" stroke-width="0.4484" stroke-linecap="round" d="M46.088,79.142
				c-0.002-0.41-0.133-0.91,0.087-1.269c34.253-0.406,68.735-0.235,102.93-0.407c0.007,0.439,0.207,0.878,0.089,1.31"/>
			<path fill="none" stroke="#000000" stroke-width="0.4501" stroke-linecap="round" d="M46.088,79.142
				c7.267,0.123,14.522-0.146,21.806,0.02"/>
			<path fill="none" stroke="#000000" stroke-width="0.442" stroke-linecap="round" d="M67.894,79.161
				c9.81-0.198,19.615,0.011,29.443-0.191"/>
			<path fill="none" stroke="#000000" stroke-width="0.4538" stroke-linecap="round" d="M97.335,78.97
				c9.951,0.02,19.836,0.046,29.755-0.078"/>
			<path fill="none" stroke="#000000" stroke-width="0.8249" stroke-linecap="round" d="M208.676,84.293
				c1.164,0.288,2.608,0.146,3.547-0.64c0.688-1.283,0.779-3.289-0.484-4.243c-0.922-0.364-2.045-0.281-3.004-0.176
				C208.576,80.886,208.475,82.646,208.676,84.293"/>
			<path fill="none" stroke="#000000" stroke-width="0.7878" stroke-linecap="round" d="M199.805,81.723
				c-0.071-0.798-0.122-1.674,0.065-2.443c1.046-0.045,2.501-0.41,3.209,0.606c0.256,0.7-0.22,1.326-0.703,1.778"/>
			<path fill="none" stroke="#000000" stroke-width="0.8342" stroke-linecap="round" d="M199.805,81.723
				c0.854-0.036,1.733,0.144,2.571-0.058"/>
			<path fill="none" stroke="#000000" stroke-width="0.8063" stroke-linecap="round" d="M199.805,81.723
				c-0.084,0.844-0.226,1.778,0.017,2.596c1.835,1.123,5.083-1.08,2.553-2.653"/>
			<path fill="none" stroke="#000000" stroke-width="0.7925" stroke-linecap="round" d="M349.578,84.511
				c-0.082-0.787-0.103-1.615,0.039-2.393c1.025-0.146,2.522-0.438,3.234,0.554c0.291,0.729-0.275,1.28-0.705,1.778"/>
			<path fill="none" stroke="#000000" stroke-width="0.9812" stroke-linecap="round" d="M349.578,84.511
				c0.862,0.051,1.703-0.152,2.568-0.059"/>
			<path fill="none" stroke="#000000" stroke-width="0.8471" stroke-linecap="round" d="M349.578,84.511
				c-0.085,0.843-0.227,1.778,0.018,2.596c1.199,0.249,3.327,0.325,3.567-1.314c0.038-0.654-0.55-1.011-1.017-1.341"/>
			<path fill="none" stroke="#000000" stroke-width="0.7708" stroke-linecap="round" d="M184.61,82.579
				c0.382,0.529,0.698,1.164,0.726,1.828"/>
			<path fill="none" stroke="#000000" stroke-width="0.7671" stroke-linecap="round" d="M181.116,84.329
				c0.31-0.573,0.448-1.247,0.88-1.742"/>
			<path fill="none" stroke="#000000" stroke-width="0.7018" stroke-linecap="round" d="M181.993,82.587
				c0.2-0.989,0.477-2.164,1.109-2.936"/>
			<path fill="none" stroke="#000000" stroke-width="0.8227" stroke-linecap="round" d="M181.993,82.587
				c0.85,0.094,1.778,0.213,2.614-0.008"/>
			<path fill="none" stroke="#000000" stroke-width="0.7361" stroke-linecap="round" d="M184.61,82.579
				c-0.175-0.915-0.615-1.747-0.879-2.635"/>
			<path fill="none" stroke="#000000" stroke-width="0.8166" stroke-linecap="round" d="M148.297,86.154
				c0.569,0.144,1.187,0.163,1.763,0.058"/>
			<path fill="none" stroke="#000000" stroke-width="0.9129" stroke-linecap="round" d="M148.297,86.154
				c-0.223,0.849,0.003,1.806-0.037,2.69c1.01,0.301,2.175,0.19,3.226,0.138"/>
			<path fill="none" stroke="#000000" stroke-width="0.8405" stroke-linecap="round" d="M148.297,86.154
				c-0.218-0.704-0.122-1.504-0.02-2.226"/>
			<path fill="none" stroke="#000000" stroke-width="0.8157" stroke-linecap="round" d="M148.418,83.79
				c0.975-0.131,1.971,0.003,2.955-0.016"/>
			<path fill="none" stroke="#000000" stroke-width="0.8478" stroke-linecap="round" d="M125.95,89.104
				c1.062-0.012,2.221,0.203,3.172-0.394c2.385-2.208-0.219-5.962-3.199-4.687C125.823,85.665,125.551,87.548,125.95,89.104"/>
			<path fill="none" stroke="#000000" stroke-width="0.8132" stroke-linecap="round" d="M99.736,88.481
				c-4.83,4.654-5.47-7.405-0.296-3.562"/>
			<path fill="none" stroke="#000000" stroke-width="0.8204" stroke-linecap="round" d="M69.545,86.788
				c0.481,0.394,1.009,0.76,1.014,1.442c-0.229,1.636-2.359,1.557-3.556,1.225c-0.255-0.814-0.119-1.763-0.026-2.609"/>
			<path fill="none" stroke="#000000" stroke-width="0.8455" stroke-linecap="round" d="M69.545,86.788
				c0.681-0.471,1.087-1.562,0.297-2.133c-0.882-0.413-1.985-0.448-2.912-0.164c-0.14,0.759,0.021,1.577,0.051,2.354"/>
			<path fill="none" stroke="#000000" stroke-width="0.8342" stroke-linecap="round" d="M69.545,86.788
				c-0.834,0.203-1.716,0.021-2.568,0.058"/>
			<path fill="none" stroke="#000000" stroke-width="0.7478" stroke-linecap="round" d="M47.559,87.836
				c0.327,0.491,0.551,1.06,0.729,1.616"/>
			<path fill="none" stroke="#000000" stroke-width="0.813" stroke-linecap="round" d="M44.07,89.375
				c0.273-0.506,0.456-1.075,0.796-1.559"/>
			<path fill="none" stroke="#000000" stroke-width="0.791" stroke-linecap="round" d="M44.866,87.816
				c0.269-1.067,0.548-2.298,1.321-3.111c0.754,0.76,1.059,2.068,1.373,3.134"/>
			<path fill="none" stroke="#000000" stroke-width="0.8227" stroke-linecap="round" d="M44.866,87.816
				c0.872,0.138,1.831,0.234,2.693,0.02"/>
			<path fill="none" stroke="#000000" stroke-width="0.7976" stroke-linecap="round" d="M343.658,98.398
				c0.615,0.316,0.552,1.136,0.919,1.635"/>
			<path fill="none" stroke="#000000" stroke-width="0.7663" stroke-linecap="round" d="M341.148,98.365
				c-0.396,0.45-0.492,1.075-0.786,1.588"/>
			<path fill="none" stroke="#000000" stroke-width="0.7527" stroke-linecap="round" d="M341.148,98.365
				c0.162-1.062,0.572-2.289,1.194-3.108c0.111,0.026,0.283,0.137,0.434,0.227c0.232,0.964,0.843,1.87,0.882,2.915"/>
			<path fill="none" stroke="#000000" stroke-width="0.8301" stroke-linecap="round" d="M341.148,98.365
				c0.787,0.211,1.717,0.251,2.51,0.033"/>
			<path fill="none" stroke="#000000" stroke-width="0.4449" stroke-linecap="round" d="M353.304,33.618
				c-1.845,14.374-2.074,29.128-3.555,43.616"/>
			<path fill="none" stroke="#000000" stroke-width="0.4237" stroke-linecap="round" d="M341.025,75.489
				c0.736-14.116,1.247-28.14,2.168-42.227c3.325,0.196,6.771,0.054,10.112,0.356"/>
			<path fill="none" stroke="#000000" stroke-width="0.4567" stroke-linecap="round" d="M353.304,33.618
				c0.05-0.025,0.093-0.049,0.139-0.073c0.115-0.037,0.196-0.056,0.281-0.074c0.09,0.025,0.197,0.053,0.303,0.08
				c0.147,10.785-1.03,21.735-1.326,32.66"/>
			<path fill="none" stroke="#000000" stroke-width="0.3742" stroke-linecap="round" d="M352.698,66.211
				c-0.111,3.384-0.54,6.859-0.388,10.156c4.312-3.475,8.861-7.016,12.762-10.902c-2.812-0.88-5.968-1.479-8.94-2.01
				C354.821,64.106,354.126,65.865,352.698,66.211"/>
			<path fill="none" stroke="#000000" stroke-width="0.3716" stroke-linecap="round" d="M341.025,75.489
				c2.89,0.61,5.839,1.159,8.726,1.746"/>
			<path fill="none" stroke="#000000" stroke-width="0.3636" stroke-linecap="round" d="M341.025,75.489
				c-5.11,5.52-10.431,11.142-15.159,16.915c4.165,0.977,8.453,2.091,12.617,2.807c3.777-6.006,7.642-11.953,11.268-17.975"/>
			<path fill="none" stroke="#000000" stroke-width="0.3819" stroke-linecap="round" d="M183.364,76.985
				c-0.57,0.085-0.268,0.948-0.311,1.355c6.334,0.06,12.873,0.148,19.221-0.221c0.73-0.567,1.346-1.438,1.126-2.414
				c-3.719-4.061-7.736-10.076-7.872-16.862c-0.098-4.915,1.939-10.665,5.981-13.122c7.902-4.806,17.535,5.288,14.394,14.079
				c-0.899,2.521-2.711,4.958-4.308,7.355c-1.75,2.626-6.068,7.747-3.104,10.689c7.247,0.583,14.869-0.224,22.193-0.305
				c0.065-0.405,0.088-0.839,0.035-1.246c-7.112-0.184-14.441,0.62-21.551,0.274c-1.097-1.717,0.419-3.359,1.254-4.825
				c3.034-5.329,9.792-12.168,6.933-20.048c-2.762-7.602-13.427-11.584-19.247-4.772c-6.34,7.425-4.272,19.63,2.025,27.165
				c0.652,0.781,1.73,1.25,1.744,2.548C195.905,77.279,189.51,76.857,183.364,76.985"/>
		</g>
	</g>
</g>
</svg>
