<?xml version="1.0" encoding="utf-8"?>
<!-- Generator: Adobe Illustrator 15.1.0, SVG Export Plug-In . SVG Version: 6.00 Build 0)  -->
<!DOCTYPE svg PUBLIC "-//W3C//DTD SVG 1.1//EN" "http://www.w3.org/Graphics/SVG/1.1/DTD/svg11.dtd">
<svg version="1.1" id="Layer_1" xmlns="http://www.w3.org/2000/svg" xmlns:xlink="http://www.w3.org/1999/xlink" x="0px" y="0px"
	 width="326.386px" height="427.22px" viewBox="-72.449 -112.89 326.386 427.22"
	 enable-background="new -72.449 -112.89 326.386 427.22" xml:space="preserve">
<metadata><?xpacket begin="﻿" id="W5M0MpCehiHzreSzNTczkc9d"?>
<x:xmpmeta xmlns:x="adobe:ns:meta/" x:xmptk="Adobe XMP Core 5.0-c060 61.134777, 2010/02/12-17:32:00        ">
   <rdf:RDF xmlns:rdf="http://www.w3.org/1999/02/22-rdf-syntax-ns#">
      <rdf:Description rdf:about=""
            xmlns:xmp="http://ns.adobe.com/xap/1.0/"
            xmlns:xmpGImg="http://ns.adobe.com/xap/1.0/g/img/">
         <xmp:CreatorTool>Adobe Illustrator CS5</xmp:CreatorTool>
         <xmp:CreateDate>2015-01-07T18:24:51+02:00</xmp:CreateDate>
         <xmp:Thumbnails>
            <rdf:Alt>
               <rdf:li rdf:parseType="Resource">
                  <xmpGImg:width>196</xmpGImg:width>
                  <xmpGImg:height>256</xmpGImg:height>
                  <xmpGImg:format>JPEG</xmpGImg:format>
                  <xmpGImg:image>/9j/4AAQSkZJRgABAgEBLAEsAAD/7QAsUGhvdG9zaG9wIDMuMAA4QklNA+0AAAAAABABLAAAAAEA&#xA;AQEsAAAAAQAB/+4ADkFkb2JlAGTAAAAAAf/bAIQABgQEBAUEBgUFBgkGBQYJCwgGBggLDAoKCwoK&#xA;DBAMDAwMDAwQDA4PEA8ODBMTFBQTExwbGxscHx8fHx8fHx8fHwEHBwcNDA0YEBAYGhURFRofHx8f&#xA;Hx8fHx8fHx8fHx8fHx8fHx8fHx8fHx8fHx8fHx8fHx8fHx8fHx8fHx8fHx8f/8AAEQgBAADEAwER&#xA;AAIRAQMRAf/EAaIAAAAHAQEBAQEAAAAAAAAAAAQFAwIGAQAHCAkKCwEAAgIDAQEBAQEAAAAAAAAA&#xA;AQACAwQFBgcICQoLEAACAQMDAgQCBgcDBAIGAnMBAgMRBAAFIRIxQVEGE2EicYEUMpGhBxWxQiPB&#xA;UtHhMxZi8CRygvElQzRTkqKyY3PCNUQnk6OzNhdUZHTD0uIIJoMJChgZhJRFRqS0VtNVKBry4/PE&#xA;1OT0ZXWFlaW1xdXl9WZ2hpamtsbW5vY3R1dnd4eXp7fH1+f3OEhYaHiImKi4yNjo+Ck5SVlpeYmZ&#xA;qbnJ2en5KjpKWmp6ipqqusra6voRAAICAQIDBQUEBQYECAMDbQEAAhEDBCESMUEFURNhIgZxgZEy&#xA;obHwFMHR4SNCFVJicvEzJDRDghaSUyWiY7LCB3PSNeJEgxdUkwgJChgZJjZFGidkdFU38qOzwygp&#xA;0+PzhJSktMTU5PRldYWVpbXF1eX1RlZmdoaWprbG1ub2R1dnd4eXp7fH1+f3OEhYaHiImKi4yNjo&#xA;+DlJWWl5iZmpucnZ6fkqOkpaanqKmqq6ytrq+v/aAAwDAQACEQMRAD8A9U4q7FXYq7FXYq7FXYq7&#xA;FXYq7FXYq7FXYqsmmjhQvI3FRt4kk9AANyT2AxVBXdteXsDVZrdAVZIA3Fn4sGpI6GoDU40Xt1r0&#xA;CqUeQ/LlroVhNbWMJgsHcPFGdqyVPqyf3k9eZpvy+Q4hcVZPirsVdirsVdirsVdirsVdirsVdirs&#xA;VdirsVdirsVdirsVdirsVdiqlPcLEAKc5X2jjHViP4DucVUCFhZZ7k+rdNUQxJvQn9mMH8WP00Gw&#xA;VXfVZbje8PwHpbIfg/2Z2L/L7Pt3xVFAACg2A6DFXYq7FXYq7FXYq7FXYq7FXYq7FXYq7FXYq7FX&#xA;Yq7FXYq7FXYq7FVO4nWGPmQWJIVEHVmOwUfPFVDe3X1JB6t5OQoUdK9lWvRF6/jiqrBb8CZJDznf&#xA;7clO38q+CjwxVWxV2KuxV2KuxV2KuxV2KuxV2KuxV2KuxV2KuxV2KuxV2KuxV2KuxV2KoSMia6kn&#xA;Y/ubascRPTmB+8fw2+x7fF44q3Zgyk3jihlFIVPVIuo+lvtN9A7YqisVdirsVdirsVdirsVdirsV&#xA;dirsVdirsVdirsVdirsVdirsVdirsVdiq2aWOGJ5ZDxjjUu7bmgUVJ2xVLzFIunWdpKOMtyyJcdD&#xA;UkGWYGnXnxYfTiqZYq7FXYq7FXYq7FXYq7FXYq7FXYq7FXYq7FXYq7FXYq7FXYq7FXYq7FXYqhdW&#xA;/wCOVe/8YJf+IHFXT/FqNqh+yqSzAf5a8EB/4GVsVRWKuxV2KuxV2KuxV2KuxV2KuxV2KuxV2Kux&#xA;V2KuxV2KuxV2KuxV2KuxV2KoXVN7Jo/2Zmjhf/VlkWNqe/FsVdJ/x1bf/jBP/wAThxVFYq7FXYq7&#xA;FXYq7FXYq7FXYq7FXYq7FXYq7FXYq7FXYq7FXYq7FXYq7FXYqhdT/wB5k/4z2/8AyfTFXfb1UdvQ&#xA;g39/Xf8Ah6H44qisVdirsVdirsVdirsVdirsVdirsVdirsVdirsVdirsVdirsVdirsVdirsVQup/&#xA;7zJ/xnt/+T6Yq4fBqr1/3fAvD/ni7cq/8jlpiqKxV2KuxV2KuxV2KuxV2KuxV2KuxV2KuxV2KuxV&#xA;2KuxV2KuxV2KuxV2KuxVC6t/xy7s91hdlPgyqSCPcEVxV0n/AB1bf/jBP/xOHFUVirsVdiqyaaGF&#xA;DJNIscY6u5Cjf3OKqH6V047R3CTN/JCfVf8A4GPk34Yq79Io20UE8rfy+k0e3+tL6a/jiqnNqckK&#xA;B5bK4VCyIWHotQuwUbLISd27DFUZFKksSSxnlHIoZG8QRUHFV2KuxV2KuxV2KuxV2KuxV2KqM97Z&#xA;wMFnnjiYioV2Ckj2BOKqf6RRtooJ5H/l9J4/+GlEa/jiqz9KBbqK3mtpYDMG4SP6ZT4SBuUdqVLA&#xA;D3xVG4q7FXYqhdW/45V7/wAYJf8AiBxV0/w6jaufssksIP8AltwcD/gYmxVFYq7FXYqhb3/emw/4&#xA;zt/yYlxVFYq7FULqf+8yf8Z7f/k+mKu0nbTLVf2kiRHHgyDiwPuGFMVRWKuxV2KuxV2KuxV2KuxV&#xA;BXUazX9vDJVoTFM7R1IVirRgcgDRhRjsdsVRMFtb26lYIkiUmpVFCgnx2xVUxVKta+Ce3mbaOMFm&#xA;b/UlhmYfPhEx+jFU1xV2KuxVbLEksTxSDlHIpV18QRQjFUujleS20ieQ1ZmRpHPi9u4qfmzUxVM8&#xA;VdirsVQt7/vTYf8AGdv+TEuKorFXYqhdT/3mT/jPb/8AJ9MVdpn+8z/8Z7j/AJPviqKxV2KuxV2K&#xA;uxV2KuxV2KoWT/jq2/8Axgn/AOJw4qisVdiqV+ZARpjSgcvT5DiOpMsbQin0y1xVNAQwBBqDuCOh&#xA;GKuxV2KuxVKl20W1Q9YJLeF/DlDOiP8ARVTiqa4q7FXYqhdS2hicbMs8HFu45SqjferEYqisVdiq&#xA;F1P/AHmT/jPb/wDJ9MVdpv8AvPIO4nnqPnM5H4HFUVirsVdirsVdirsVdirsVQt18N5ZSD7TO8J/&#xA;1GjMh/4aJcVRWKuxVC6ptZNJ+zC0cz/6sUiyNT34rirtJ/45Vl/xgi/4gMVRWKuxV2KpVJ/xw9QH&#xA;cfXKj5vIR+BxVNcVdirsVQuq7adPJ+1CvrJ/rRH1Fr7clxVFYq7FULqm1m0h+zC8cz/6kUiyN/wq&#xA;nFXWX+9N/wD8Z1/5MRYqisVdirsVdirsVdirsVdiqFvf96bD/jO3/JiXFUVirsVQurf8cq9/4wS/&#xA;8QOKu0vazCD7MUksUY8EjlZEH0KoGKorFXYqgpNa01N/W5rQsXiR5Fov2viQMu3ffFVHSLm21CO7&#xA;mQB7a6dJIiSrLJDJbx8XXiWBRxWmKqek65BJZxCfmkscUXryPRgGaMN8bIXCdf26Yqm4IIqNwehx&#xA;V2KoXU/95k/4z2//ACfTFUVirsVQurf8cq9/4wS/8QOKusv96b//AIzr/wAmIsVRWKuxV2KuxV2K&#xA;uxV2KuxVC6h8It5u8U8dB4+qfRP3CWuKorFXYqhtTR3027RFLO0MgVQKkkoQAAMVWaS6PaF0YMjT&#xA;TlWBqCDO5BBGKozFWHeZrvVtV0GVdCuorTWrpSNGXUI5FtPUMbSD6wnEu/7pGfdSgIGxpuq8f/K/&#xA;V9Zi8w3GsfmF+Y2iX15cE2MWirdWHF/33ASsVaAmPhzKIq0bkv8Aq4q900s6dp11cLJcGNpUjZnu&#xA;ykUsr1ctJxpGtCHX7KgA7UBBGKsb1eMiwuZm1FoIIjPp+mT26zRQ24nUKrvIjurXDfsXKRn0+RUr&#xA;yryVZVoFzI8l1bEw+lGVltlhlM3GGUt6YckLRmVOZG4FdiRiqb4qhdT/AN5k/wCM9v8A8n0xVFYq&#xA;7FWnRJEaNwGRwVZT0IOxBxVLdId5HWRyWd7K0ZmPUk+qSTiqZ4q7FXYq7FXYq7FXYq7FULqm1mXP&#xA;2YpIpZD4JHKrufoVScVRWKuxV2KpV5W/44VsO45/8nGOKprirGrDy4PrMOvWzRrqU1nFB6rx1YQB&#xA;mlWCoIHpq0lBVeVP2q74qwTQv+cb/wAvNG80HzGdD+s3CSie1tvrck8MUv2uaxTCMGjHYO7U274q&#xA;z2107XZPrX1lUX1F9KOSNhbSFSiD1WdPrMnq8kpX1OPEL8OKpgumsYoor+5EhdkJ4osbSyxqCHd1&#xA;AJcemDVAnTpTbFVaOKK31FY4kVI5oD8CgKF9FxSgHj65xVG4qhdT/wB5k/4z2/8AyfTFUVirsVdi&#xA;qVaZ+7vGHX1hOAOnEW9y9B9In+imKprirsVdirsVdirsVdirsVQ2po8mm3caAs7wyKqjqSVIAGKo&#xA;hHSRFkQhkcBlYdCDuCMVbxV2KpV5c/3jb/nj/wBQsOKpriqF0n/jlWX/ABgi/wCIDFV9nM8yPKf7&#xA;tnb0f9RfhBr3DEFgfAjFVfFULL+91GFOq26NMw8Hf4Iz71X1P86Yq6T/AI6tv/xgn/4nDiqKxVC6&#xA;n/vMp7CaAk+AEyEn6BiqKxV2KuxVKrf/AI703/PX/k3a4qmuKuxV2KuxV2KuxV2KuxV2KoXSdtMt&#xA;V/aSJEceDIOLA+4YUxVFYq7FUq8vbRXcfaC4MAPiIY0jB+kLXFU1xVC6btA6HYpNMCvdQZWZRTt8&#xA;BBHtiqIhijhiSKMcY41CIu5oFFAN8VXYqhbD94JLs/8AHw1Yz/xUu0dPZh8f+yxV022p2zHZTFMg&#xA;P+UTGwHz4ox+jFUViqF1b/jlXv8Axgl/4gcVRWKuxV2KpUvw+ZmQfZa1MxH+WzohP/AxLiqa4q7F&#xA;XYq7FXYq7FXYq7FXYqhdO2imjOzpPNzHhzkMi/ejg4qisVdiqVaPtd3ijZSzOQOhY3M6lvnRQPoG&#xA;KpriqFtfgvb2M/adkmH+q0YjH08omxVdf3X1W0ef4fhKirnig5MF5MeyrWpxVBxXzTTfU5pA8Vyj&#xA;LDdRI0KlwCSil2bkxSrKUqKKcVTNVVVCqAqqKKo2AA7DFWO6Rq8V8lqRcPcLFcsUnnVUkeFoZvTl&#xA;YIkcfF+JZCo3TiTuTirIwQwBBqDuCOhGKrZoo5onikHKORSjruKhhQjbFVHTpZJtPtpZDykkiR3b&#xA;YVLKCTtiqIxV2KpUu/mE3B2URmyA8XCrcA/SpP3e+KprirsVdirsVdirsVdirsVdiqFtfhvL1D9p&#xA;nSYD/IaNUB/4KJsVRWKuxVKtN21rVUGyJ6HEeHMM7fezk4qmpIUEk0A3JPQDFUvtZ2k1SVzGUimg&#xA;j+rsTu4iZubcf2R+9Wld8VRs8KTwSQyfYlUo1NjRhQ4qx5ry0OpfVJWd76GJJ7h44ZZ1RlmFB6o5&#xA;hBIY2oigUFeXbFU5k1G3ME5X1g8cbScBE4lIUbmON1q5+QO+KpG73Ml61zYtbm3keeWsHp+tPcJF&#xA;9X5+tyaJWiPGDiysSwHQCmKpr5be5bRoDco8c4Mgkjl9MOrLIw4sImeMEUpRGK+G2KpliqF0vaxj&#xA;j/3xygB8RCxjr9PCuKorFXYqlX/Sx/6Pv+xHFU1xV2KuxV2KuxV2KuxV2KuxVCj4NVav+74F4U7e&#xA;i55V/wCRy0+nFUVirsVSq1+HXrrjt6vL1Pf047fh93qN9+KovVN7MqfsO8SS/wDGN5FV6+3EnFUv&#xA;tGe3vIDdcYy/1hOQ35OzxnkzcI+pWleIFaLvUVVRusXjW1qBGwWe4b0YCxI+MqW7ByTxU0AU1O2K&#xA;sbv9bSyga7isZr60sQxube2Im9NiphVKS+nJv8XONVZhRSF33VW6Zq31tzCjtbahZz2kjQTisrC4&#xA;t4YkmaNWr6bK8q/HxPMdiMVTflderxQoX9X07iSQDiqEMipwAP8Au0q6KKEjqR3VTmCFIYliSpC9&#xA;SdySTUsfcnc4qvxVC6Z/vM//ABnuP+T74qisVdiqVSfDNPMPtRX0PEdv3kUUJr/sZD9OKprirsVd&#xA;irsVdirsVdirsVdiqFuPg1C0kPRxLAB/lMBID8qQnFUVirsVSq3/AOO9N/z1/wCTdriqZyxJLE8U&#xA;g5RyKVdfEEUIxVLbozQy28c0LXQdjGrx+nWRfTclJg7IOm+2xI6DpiqUfoe3+txC4iuZjBbxx/V5&#xA;nEihiWUTR+pO0Mbk/CKbkVFKYq1c6rLHfT+pZtBHHbRHTpWlaOxlZiyCJX+ExTUlpyEdOJ6tw+FV&#xA;K/JOk+Zora+m83ahaane310bq6ubN3NlBAJOUNlGHVRJwIHxsOXFqHopKqfJ9fXTZ5gkfpVlmEZr&#xA;A9ssQ9W2QQL6qs1aM/JkO+4/ZCrIsVdiqF0z/eZ/+M9x/wAn3xVFYq7FUqvtruYDoTYEj3+ssK/c&#xA;Biqa4q7FXYq7FXYq7FXYq7FXYqhb/wCFrWY/ZinWo7n1Q0I/GQHFUVirsVSd54LTVnmnkWJZJmiH&#xA;MhBxkt43D1PatsV+/wAMVVZvM2gppN/qyX0NxYaYk0l7NbuswjFupeVTwLfEoU/D1xV5ZDZfn755&#xA;9HXYNZtvIWklvX0nSms0vr0x8SI3vPVoqM6tuinYHcVGKsl0Sb80YLm9j8xtpl7Lbm3t9PuNKdrR&#xA;7nmS0/1iO6EqhokKMoj/AJmoewVZFax6+9ZbOGzhjlLGG/nlnuZjCTWPlEVjP2aHj633YqrSaLq9&#xA;2P8ATdYYUZWWO0trdIqowdGK3K3jclZQQQ3XFUI3k+aK3vksNXuLaXUGeW5Yw2bpLO8YjMkwWCN2&#xA;+FFB4uuwoCMVR2na1Myvb6jbSQajbkLcLDFLLC1RVZInVTVG7V3BqDuMVRn6Ttv5J/8ApHn/AOaM&#xA;VWaRKslvKFDDjPNXmrIfikLj4XCt0fwxVG4q7FUo1qSOK5tndgiAKXZjQUW6t6VJ8KnFU1ililQS&#xA;ROskbfZdSCD8iMVXYq7FXYq7FXYq7FXYqhn1KyRzH6oeVTRooqyOKdaogZvwxVD3t0ZbV3EMiwwt&#xA;HO0rrwBWGRXcBWIkrxU9VxVMcVdiqVajWDUre54s6njVUUsfgLR7BQSfhuS3yQ/QqxLTvy/8q+Wt&#xA;NNlo+nJbSa9rkd56Tjl9mZbh1XnVkX6taMeHY7bYq9CxVIeUslhxqwW6twW6hPWvXp3ShVTJ2kqB&#xA;28VU+xVTuDcCFzbqjT0/drISqE+5AY/hirHnkWx1BjHdyC0iv2TUFlZuKrfQqyAPJLGqj12TjwVi&#xA;K8QoqWxVMLa5VdSWFmrMFNvNVWTmVHqwuodnYpx9Qcq7sD4bKpriqFsv96b/AP4zr/yYixVFYq7F&#xA;Up18cTYyKjO31mNGCqXPphhK1FUE7GFTt4Yqrpp6zTPdvzt5X2RYmKUA6NIoPF3/ANcEAbeNVVX6&#xA;repvHeM7dKTxoy09hGITX6foxV3+5VP98XFf9eCn/J/lX6MVcbm9TaSzZz2MEiMPp9Qwn8MVb+vf&#xA;B/vPN6taejw3r1+3X0+nflT6cVVZ7mCAAyvxLbIu5Zj4KoqWPyxVR9W/m/uo1t4+0k3xOf8AnmpF&#xA;K+7V8VxV36Ngf/ehnuj3Exqh8KxqFj2/1cVRKIkaBI1CIooqqKADwAGKobVPispIR9q5pAPEeqeB&#xA;anfiCWp7YqisVdiqD1N1jW3mJ+OKZWRetQQVk2G/wxM7fRiqB05LjU9SXWJ43gs4Y2j0u2lUpIfU&#xA;P7y4ljYAozBQsakBlXly3fiqqdYqkd5oskkkKqnJIZecTj0qcBUrE5kRnjVCQUMJDVUbjuqnCRN9&#xA;XWKRy7cAryD4WY0oW+GlCfbFUHYSW11DbahbwIZHj9GV3dHmjVSecTSRmZXZJBxcCQioO5xVQi0s&#xA;tPcQXMsdxbziZbmzctJyt7h2ZOfqtI5oxkUCoTieKqAoGKrvql6to0NxLI8dtI0qNEsXKaKjNHGF&#xA;Cji0TFePEb8V3NWGKplbu0kEbsGVnVWKsOLAkVoV3ofbFVDTfit2m6meR5Q38yFiIz/yLC4qisVd&#xA;iqFu/iu7JBuyyPKR/kLEyE/8FIo+nFUVirsVdirsVdiqjb2kUJLCrzMKPM5q7fM9h/kigHYYqrYq&#xA;7FXYqhZP3uoxp+zbIZmH+XJVEI/2Ikr9GKorFXYqhW/fago6x2q8j4erICBuO6pWo/ygfDFUVirs&#xA;VdirsVdiq0RxiRpAoEjAKz0HIqpJUE+A5GnzxVdiqH1CV47OQxnjK9I4m8HkIRCfYMwriqtFEkUS&#xA;RRjjHGoVF8ABQDFV2KuxVCbvqx7C3gFPf13Nfu9D8cVReKuxV2KuxV2KuxV2KuxV2KoXTfjga573&#xA;TmYf6hAWP/kmq198VRWKuJCgkmgG5J6AYqhdNBNsJmFHuSZmr1AfdVPuqcV+jFUVirsVdirsVdir&#xA;sVdiqFl/e6hBGPs26md6dQzAxxj5EGT7h9KqKxV2KuxVC6d8cLXR63TGUf6hAEf/AAgWvvXFUVir&#xA;sVdirsVdirsVdirsVQuokvCLVftXR9Ko6hCKyN7UStPemKooAAUGwHQYq7FULqXx24tx1unEJHih&#xA;3k37fu1bFUVirsVdirsVdirsVdirsVQun/vFluv+Whyyf8Y1+FKHwYDn/ssVRWKuxVC6iS0Atl+1&#xA;dN6PuFIJkI8CEBp70xVFAACg2A6DFXYq7FXYq7FXYq7FXYq7FULa/v5nuzum8dt/xjB+Jh/rsPpU&#xA;LiqKxV2KoX+91L/ItY6+IMkp/BkVPuf71UVirsVdirsVdirsVdiqG1B3FsY4yVmnIhjYdQX2LD/U&#xA;WrfRiqIREjRY0AVEAVVHQAbADFW8VdiqFg/fXks/VIawQ/PYykH/AFgF9iuKorFXYq7FXYq7FXYq&#xA;7FXYqhbwmUrZoaGaplYdViH2vpb7I+de2KooAKAAKAbADoBirsVdiqF0347c3J63TGav+S1BHt4+&#xA;mFBxVFYq7FXYq7FXYq7FXYqhT++1EDrHapXxHqybD5MqA/Q2KorFXYqpXc5gt3kA5OKLGnTk7Hii&#xA;17VYgVxV1rAILdIq8io+JzsWY7sx92O5xVVxV2KuxV2KuxV2KuxV2KoL09Qjup5Y4opVlK8GeVkY&#xA;IqgcaCN/2uR698VXfWNRTeW0Vx2EEodvpEiwj8cVb+vSjeSznRB1ekb0/wBjG7ufoGKqVxcNdxG2&#xA;ghlKy0SaV0aIIjfaP7zgxJWoHEHfriqPAAFBsB0GKuxV2KuxV2KuxV2KuxVLbO+tIYmN1ILe4ldp&#xA;JUn/AHZqTsoLUD8FovJdtsVRH6W0r/ltg/5Gp/XFXfpbSv8Altg/5Gp/XFVkcsV7dK8TrJbW24dS&#xA;CrSsKbEfyKf+G8RiqNxV2KuxV2KuxV2KuxV//9k=</xmpGImg:image>
               </rdf:li>
            </rdf:Alt>
         </xmp:Thumbnails>
      </rdf:Description>
      <rdf:Description rdf:about=""
            xmlns:xmpTPg="http://ns.adobe.com/xap/1.0/t/pg/"
            xmlns:stDim="http://ns.adobe.com/xap/1.0/sType/Dimensions#"
            xmlns:xmpG="http://ns.adobe.com/xap/1.0/g/">
         <xmpTPg:MaxPageSize rdf:parseType="Resource">
            <stDim:w>115.141809</stDim:w>
            <stDim:h>150.713626</stDim:h>
            <stDim:unit>Millimeters</stDim:unit>
         </xmpTPg:MaxPageSize>
         <xmpTPg:NPages>1</xmpTPg:NPages>
         <xmpTPg:HasVisibleTransparency>False</xmpTPg:HasVisibleTransparency>
         <xmpTPg:HasVisibleOverprint>False</xmpTPg:HasVisibleOverprint>
         <xmpTPg:PlateNames>
            <rdf:Seq>
               <rdf:li>Cyan</rdf:li>
               <rdf:li>Magenta</rdf:li>
               <rdf:li>Yellow</rdf:li>
               <rdf:li>Black</rdf:li>
            </rdf:Seq>
         </xmpTPg:PlateNames>
         <xmpTPg:SwatchGroups>
            <rdf:Seq>
               <rdf:li rdf:parseType="Resource">
                  <xmpG:groupName>Default Swatch Group</xmpG:groupName>
                  <xmpG:groupType>0</xmpG:groupType>
               </rdf:li>
            </rdf:Seq>
         </xmpTPg:SwatchGroups>
      </rdf:Description>
      <rdf:Description rdf:about=""
            xmlns:dc="http://purl.org/dc/elements/1.1/">
         <dc:format>image/svg+xml</dc:format>
      </rdf:Description>
   </rdf:RDF>
</x:xmpmeta>
                                                                                                    
                                                                                                    
                                                                                                    
                                                                                                    
                                                                                                    
                                                                                                    
                                                                                                    
                                                                                                    
                                                                                                    
                                                                                                    
                                                                                                    
                                                                                                    
                                                                                                    
                                                                                                    
                                                                                                    
                                                                                                    
                                                                                                    
                                                                                                    
                                                                                                    
                                                                                                    
                           
<?xpacket end="w"?>
	</metadata>
<g>
	<g>
		<path d="M75.648,85.689c0.078,1.709-1.397,1.868-2.72,2.176C73.148,86.452,74.624,86.294,75.648,85.689z"/>
		<path d="M91.959,85.689c0.362,0,0.727,0,1.088,0c0,0.362,0,0.726,0,1.088c-0.361,0-0.726,0-1.088,0
			C91.959,86.415,91.959,86.051,91.959,85.689z"/>
		<path d="M69.121,86.777C71.134,88.425,67.471,88.608,69.121,86.777L69.121,86.777z"/>
		<path d="M90.873,87.32c1.587-0.801,1.587,2.431,0,1.631C90.873,88.408,90.873,87.865,90.873,87.32z"/>
		<path d="M65.316,87.865c1.676-0.406,1.045,1.494,2.719,1.088C67.607,90.2,64.669,89.48,65.316,87.865z"/>
		<path d="M97.942,87.865c-0.236,0.669-0.696,1.117-1.631,1.088C96.055,87.791,97.087,87.915,97.942,87.865z"/>
		<path d="M77.279,88.408c0.364,0,0.726,0,1.088,0c0,0.362,0,0.726,0,1.088c-0.364,0-0.726,0-1.088,0
			C77.279,89.134,77.279,88.77,77.279,88.408z"/>
		<path d="M71.298,88.951c1.056-0.216,0.794,2.476-0.543,1.631c0-0.362,0-0.726,0-1.088C71.217,89.596,71.268,89.282,71.298,88.951z
			"/>
		<path d="M96.311,90.039c-0.058,1.026-1.797,0.377-1.631,1.631C92.947,90.817,95.357,88.406,96.311,90.039z"/>
		<path d="M99.574,89.496c0.543,0,1.086,0,1.631,0C101.23,92.594,99.548,92.594,99.574,89.496z"/>
		<path d="M75.103,91.127c0.364,0,0.726,0,1.088,0c0,0.364,0,0.726,0,1.088c-0.364,0-0.727,0-1.088,0
			C75.103,91.851,75.103,91.489,75.103,91.127z"/>
		<path d="M90.873,92.758c0.976,0.069,1.146-0.666,2.174-0.543c0,0.726,0,1.449,0,2.175C91.629,94.542,90.714,94.19,90.873,92.758z"
			/>
		<path d="M97.942,92.215c1.131,0.305,1.15,0.848,0.543,1.63c-0.363,0-0.726,0-1.088,0C97.246,92.967,97.913,92.911,97.942,92.215z"
			/>
		<path d="M99.574,93.845c0.361,0,0.724,0,1.086,0c0,0.362,0,0.726,0,1.088c-0.362,0-0.725,0-1.086,0
			C99.574,94.569,99.574,94.208,99.574,93.845z"/>
		<path d="M103.922,93.845c0.362,0,0.727,0,1.088,0c0.151,0.879-0.513,0.936-0.543,1.631c-0.361,0-0.724,0-1.088,0
			C103.225,94.598,103.894,94.542,103.922,93.845z"/>
		<path d="M71.298,94.931c0.668,0.239,1.116,0.696,1.088,1.632C71.717,96.325,71.27,95.867,71.298,94.931z"/>
		<path d="M94.68,96.02c-0.175-0.959,3.045-0.97,2.172,0.544C95.719,96.793,95.413,96.189,94.68,96.02z"/>
		<path d="M69.666,96.563c1.586-0.798,1.586,2.432,0,1.631C69.666,97.649,69.666,97.108,69.666,96.563z"/>
		<path d="M97.397,97.108C99.89,97.471,96.961,100.401,97.397,97.108L97.397,97.108z"/>
		<path d="M101.748,97.108c-0.234,0.669-0.696,1.116-1.631,1.086C100.353,97.526,100.813,97.079,101.748,97.108z"/>
		<path d="M64.773,97.649c-0.473,0.796-0.815,1.725-2.176,1.631C62.433,97.85,63.348,97.499,64.773,97.649z"/>
		<path d="M101.748,99.826C100.464,101.576,99.548,97.914,101.748,99.826L101.748,99.826z"/>
		<path d="M97.942,99.826c0.439,0.103,0.541,0.545,1.086,0.545c-0.102,0.438-0.545,0.541-0.543,1.086
			c-0.44-0.102-0.543-0.545-1.088-0.545C97.5,100.473,97.942,100.371,97.942,99.826z"/>
		<path d="M77.822,100.912c-0.217-1.054,2.477-0.792,1.631,0.545c-0.361,0-0.726,0-1.088,0
			C78.468,100.997,78.154,100.946,77.822,100.912z"/>
		<path d="M90.873,100.371c0.639-0.639,2.155,0.564,1.631,1.086C92.519,101.444,90.562,100.682,90.873,100.371z"/>
		<path d="M53.896,103.088c0.654,0.715,0.213,0.857,0,1.631c-0.59-0.137-0.368-1.082-1.088-1.086
			C52.825,103.105,53.475,103.213,53.896,103.088z"/>
		<path d="M87.068,103.633C85.784,105.383,84.868,101.721,87.068,103.633L87.068,103.633z"/>
		<path d="M57.158,104.178c0.879-0.151,0.939,0.511,1.633,0.541C59.007,105.775,56.313,105.511,57.158,104.178z"/>
		<path d="M80.544,104.178c0.361,0,0.726,0,1.088,0c0,0.362,0,0.724,0,1.086c-0.362,0-0.727,0-1.088,0
			C80.544,104.902,80.544,104.541,80.544,104.178z"/>
		<path d="M87.613,104.178c0.362,0,0.724,0,1.084,0c0,0.362,0,0.724,0,1.086c-0.36,0-0.722,0-1.084,0
			C87.613,104.902,87.613,104.541,87.613,104.178z"/>
		<path d="M75.648,105.809c0.364,0,0.726,0,1.088,0c0,0.362,0,0.725,0,1.086c-0.364,0-0.727,0-1.088,0
			C75.648,106.534,75.648,106.171,75.648,105.809z"/>
		<path d="M78.367,106.895c2.57-2.572-0.236,3.011-0.545,0.545C77.741,106.793,78.107,107.155,78.367,106.895z"/>
		<path d="M102.291,144.415c0.362,0,0.726,0,1.088,0c0,0.362,0,0.725,0,1.086c-0.362,0-0.726,0-1.088,0
			C102.291,145.139,102.291,144.777,102.291,144.415z"/>
		<path d="M104.467,147.136c0.362,0,0.725,0,1.089,0c0,0.362,0,0.724,0,1.086c-0.364,0-0.727,0-1.089,0
			C104.467,147.86,104.467,147.499,104.467,147.136z"/>
		<path d="M102.836,149.849c1.899-0.485,0.929,1.771,0.543,2.176C102.639,151.859,102.927,150.663,102.836,149.849z"/>
		<path d="M106.098,151.48c1.158-0.251,1.034,0.771,1.086,1.636c-0.439-0.106-0.541-0.55-1.086-0.545
			C106.098,152.208,106.098,151.846,106.098,151.48z"/>
		<path d="M101.748,152.025C104.243,152.387,101.311,155.322,101.748,152.025L101.748,152.025z"/>
		<path d="M105.01,153.657c0.782,0.127,0.189,1.622,1.089,1.631C105.485,157.038,104.544,154.768,105.01,153.657z"/>
		<path d="M113.168,158.011c0.394-1.216,3.101-0.265,2.717,1.086C114.153,159.559,114.205,158.243,113.168,158.011z"/>
		<path d="M107.729,159.097C110.222,159.463,107.293,162.387,107.729,159.097L107.729,159.097z"/>
		<path d="M106.638,160.732c0.952,0.135,0.234,3.064-1.083,2.718C105.089,161.714,106.409,161.765,106.638,160.732z"/>
		<path d="M112.623,162.364c2.297-0.488,3.07,0.554,3.807,1.631C115.646,165.089,113.023,163.45,112.623,162.364z"/>
		<path d="M101.205,163.45c1.149,0.168,0.117,2.583-1.088,2.176C99.493,163.914,100.972,164.299,101.205,163.45z"/>
		<path d="M102.836,166.165C106.019,166.888,100.866,168.732,102.836,166.165L102.836,166.165z"/>
		<path d="M52.808,173.779c-0.511,1.484-2.743,1.244-4.348,1.631C49.29,174.282,51.188,172.429,52.808,173.779z"/>
		<path d="M86.527,178.127c0.928-0.115,1.407,0.928,1.631,0C90.541,178.905,85.596,180.368,86.527,178.127z"/>
		<path d="M79.455,183.02c0.364,0,0.727,0,1.089,0c0,0.366,0,0.729,0,1.091c-0.364,0-0.727,0-1.089,0
			C79.455,183.749,79.455,183.386,79.455,183.02z"/>
		<path d="M106.638,183.02c-0.28,0.806-0.803,1.372-1.083,2.177C104.232,184.856,105.267,182.45,106.638,183.02z"/>
		<path d="M68.035,185.197c0.703-1.358,2.636,0.575,2.176,2.172C68.813,187.322,69.432,185.254,68.035,185.197z"/>
		<path d="M103.922,185.738C107.107,186.461,101.954,188.31,103.922,185.738L103.922,185.738z"/>
		<path d="M94.68,187.914c0.166,1.257-1.571,0.604-1.634,1.631C91.457,188.94,93.739,187.782,94.68,187.914z"/>
		<path d="M108.815,187.914c0.362,0,0.724,0,1.086,0c0,0.362,0,0.725,0,1.091c-0.362,0-0.724,0-1.086,0
			C108.815,188.638,108.815,188.276,108.815,187.914z"/>
		<path d="M78.912,188.458c1.421,0.754,2.979,1.372,3.263,3.263C80.414,191.304,79.325,190.218,78.912,188.458z"/>
		<path d="M102.836,189.004C104.845,190.652,101.183,190.835,102.836,189.004L102.836,189.004z"/>
		<path d="M102.291,191.176c0.098,1.188-0.443,1.729-1.631,1.631C101.245,192.304,100.83,190.807,102.291,191.176z"/>
		<path d="M99.574,193.352c1.149,0.171,0.119,2.581-1.089,2.177C97.861,193.816,99.342,194.208,99.574,193.352z"/>
		<path d="M106.098,193.897c-0.009,1.078-1.486,0.682-1.089,2.172C102.969,195.596,104.39,193.667,106.098,193.897z"/>
		<path d="M70.755,202.053c0.907,0,1.812,0,2.719,0C74.304,203.722,69.922,203.722,70.755,202.053z"/>
		<path d="M103.379,209.123c1.693-0.256,1.944,1.367,1.088,2.176C103.51,211.167,103.227,210.362,103.379,209.123z"/>
		<path d="M108.815,209.667c1.162-0.253,1.037,0.775,1.086,1.631c-0.437-0.102-0.541-0.545-1.086-0.545
			C108.815,210.391,108.815,210.03,108.815,209.667z"/>
		<path d="M113.709,210.212c0.188-0.655,1.447-0.442,1.631,0C115.836,211.388,113.35,211.469,113.709,210.212z"/>
		<path d="M103.922,211.843c1.188-0.102,1.731,0.443,1.634,1.632C104.369,213.573,103.824,213.028,103.922,211.843z"/>
		<path d="M109.36,212.929c0.362,0,0.724,0,1.086,0c0,0.362,0,0.725,0,1.087c-0.362,0-0.724,0-1.086,0
			C109.36,213.654,109.36,213.292,109.36,212.929z"/>
		<path d="M115.344,213.475c-0.224-1.055,2.477-0.797,1.632,0.541c-0.362,0-0.725,0-1.091,0
			C115.982,213.556,115.674,213.506,115.344,213.475z"/>
		<path d="M99.028,214.016c0.362,0,0.725,0,1.089,0c0,0.361,0,0.728,0,1.09c-0.364,0-0.727,0-1.089,0
			C99.028,214.744,99.028,214.377,99.028,214.016z"/>
		<path d="M104.467,215.106c1.591-0.801,1.591,2.428,0,1.631C104.467,216.192,104.467,215.647,104.467,215.106z"/>
		<path d="M110.446,215.647c0.671,0.238,1.118,0.694,1.091,1.631c-0.88,0.153-0.938-0.511-1.636-0.541
			C110.008,216.294,110.45,216.192,110.446,215.647z"/>
		<path d="M118.063,216.737c0.675,0.234,1.115,0.694,1.09,1.631c-0.545,0-1.09,0-1.631,0
			C117.805,217.929,118.082,217.487,118.063,216.737z"/>
		<path d="M105.555,218.368C108.738,219.092,103.586,220.936,105.555,218.368L105.555,218.368z"/>
		<path d="M112.077,218.909c0.671,0.239,1.118,0.694,1.091,1.636c-0.88,0.149-0.945-0.516-1.631-0.545
			C111.638,219.556,112.082,219.458,112.077,218.909z"/>
		<path d="M119.694,220c0.875-0.153,0.937,0.511,1.631,0.545C121.536,221.598,118.846,221.336,119.694,220z"/>
		<path d="M95.221,221.63C93.573,223.64,93.389,219.978,95.221,221.63L95.221,221.63z"/>
		<path d="M106.638,221.085c1.589-0.797,1.589,2.428,0,1.631C106.638,222.175,106.638,221.63,106.638,221.085z"/>
		<path d="M113.709,221.085C116.07,221.311,113.139,224.243,113.709,221.085L113.709,221.085z"/>
		<path d="M87.068,222.716c-0.218-1.057,2.479-0.792,1.629,0.541c-0.36,0-0.722,0-1.084,0
			C87.711,222.797,87.398,222.747,87.068,222.716z"/>
		<path d="M102.836,222.716c0.362,0,0.724,0,1.086,0c0,0.362,0,0.724,0,1.086c-0.362,0-0.724,0-1.086,0
			C102.836,223.44,102.836,223.079,102.836,222.716z"/>
		<path d="M107.729,223.802c1.158-0.251,1.035,0.771,1.086,1.631c-0.438-0.102-0.541-0.545-1.086-0.545
			C107.729,224.526,107.729,224.165,107.729,223.802z"/>
		<path d="M71.298,224.347c0,0.541,0,1.086,0,1.631c-0.975,0.068-1.148-0.664-2.176-0.545
			C69.251,224.479,70.056,224.199,71.298,224.347z"/>
		<path d="M115.886,224.888c0.366,0,0.729,0,1.091,0c0,0.366,0,0.729,0,1.09c-0.362,0-0.725,0-1.091,0
			C115.886,225.617,115.886,225.254,115.886,224.888z"/>
		<path d="M122.956,224.888c0.362,0,0.729,0,1.091,0c0,0.366,0,0.729,0,1.09c-0.362,0-0.729,0-1.091,0
			C122.956,225.617,122.956,225.254,122.956,224.888z"/>
		<path d="M103.922,226.524c0.362,0,0.727,0,1.088,0c0,0.361,0,0.724,0,1.086c-0.361,0-0.726,0-1.088,0
			C103.922,227.248,103.922,226.885,103.922,226.524z"/>
		<path d="M108.815,227.065c-0.218-1.053,2.479-0.793,1.631,0.545c-0.362,0-0.724,0-1.086,0
			C109.458,227.15,109.149,227.098,108.815,227.065z"/>
		<path d="M117.522,227.065c0.924-0.2,1.022,0.417,1.086,1.09c-0.464-0.103-0.509,0.213-0.545,0.541
			C117.428,228.611,117.607,227.704,117.522,227.065z"/>
		<path d="M95.766,228.696c1.137-0.226,1.439,0.375,2.176,0.545C98.115,230.204,94.899,230.211,95.766,228.696z"/>
		<path d="M88.158,229.241c0.36,0,0.724,0,1.084,0c0,0.362,0,0.724,0,1.086c-0.36,0-0.724,0-1.084,0
			C88.158,229.967,88.158,229.603,88.158,229.241z"/>
		<path d="M119.153,229.241c0.59,0.137,0.366,1.082,1.086,1.086C119.756,231.8,117.822,229.874,119.153,229.241z"/>
		<path d="M127.304,230.329c0.362,0,0.727,0,1.088,0c0,0.362,0,0.729,0,1.091c-0.361,0-0.726,0-1.088,0
			C127.304,231.057,127.304,230.693,127.304,230.329z"/>
		<path d="M89.242,233.05c0.362,0,0.724,0,1.086,0c0,0.362,0,0.724,0,1.09c-0.362,0-0.724,0-1.086,0
			C89.242,233.774,89.242,233.413,89.242,233.05z"/>
		<path d="M106.638,233.595c0.366,0,0.729,0,1.091,0c0,0.362,0,0.724,0,1.086c-0.362,0-0.725,0-1.091,0
			C106.638,234.319,106.638,233.958,106.638,233.595z"/>
		<path d="M68.035,200.969c-0.075,1.014-0.358,1.818-1.088,2.174l-0.272-0.815l-0.815,0.272c-7.812-3.831-15.183-1.187-18.487,4.892
			l-0.381-0.925l-0.705-0.707c1.791-4.19,4.989-6.974,9.787-8.153l0.815,0.272l0.273-0.817c3.765,0.59,5.862,2.841,10.332,2.722
			l-0.272,0.813L68.035,200.969z"/>
		<path d="M39.487,207.764l0.273,0.817c-0.754,0.877-0.46,2.803-1.631,3.262l-0.272-0.817l-0.815,0.272
			c-0.392-1.429-3.22-2.059-1.633-3.807l0.815-0.273l-0.272-0.812c1.446,0.004,3.104-0.205,3.807,0.54L39.487,207.764z"/>
		<path d="M128.665-111.697l-0.272-0.545c0.46-0.508,3.469-1.161,3.806,0l-0.815,0.272l0.272,0.815c0,0.181,0,0.362,0,0.545
			l-0.815-0.272l-0.272,0.815c-0.362,0-0.725,0-1.087,0l-0.272-0.815l-0.815,0.272c0-0.181,0-0.364,0-0.545L128.665-111.697z"/>
		<path d="M66.404,105.264c-1.731-0.805-4.339-0.736-4.895-2.717l0.815-0.272l-0.272-0.818c-0.354-0.549-1.25-0.562-1.088-1.631
			c3.903,0.207,7.932-1.688,12.506,0v0.545h0.545c-1.531,2.096-3.294,3.952-6.527,4.349l-0.815-0.272L66.404,105.264z"/>
		<path d="M59.062,93.031l0.272-0.815c2.674-1.779,8.583-2.936,10.877-1.088c-1.026,1.33-0.969,3.745-3.808,3.263l-0.815-0.273
			l0.272,0.816c-2.027-0.577-0.86,2.041-2.719,1.63c-1.441-1.458-5.396-0.4-4.893-3.805L59.062,93.031z"/>
		<path d="M92.504,185.197c-0.098,2.619-1.86,3.577-4.348,3.808l0.269-0.818l-0.812-0.272c1.173-1.362,1.712-3.36,3.26-4.348v0.545
			h0.543c0.181,0,0.364,0,0.543,0l-0.271,0.813L92.504,185.197z"/>
		<path d="M56.615,100.371c-0.288-0.438-0.566-0.884-0.545-1.631c0.632,0.09,0.969-0.119,1.088-0.545
			c1.358,0.873-0.373,3.209-1.631,3.262C55.327,100.533,55.953,100.43,56.615,100.371z"/>
		<path d="M52.808,100.371c1.058,0.754,1.671,1.953,3.262,2.177c-0.166,0.736-1.363,0.451-2.176,0.541
			C54.303,101.415,52.022,102.425,52.808,100.371z"/>
		<g>
			<path fill="none" stroke="#000000" stroke-width="0.4098" stroke-linecap="round" d="M74.56,104.447
				c0.477-0.767,0.89-1.768,1.904-1.899"/>
			<path fill="none" stroke="#000000" stroke-width="0.3154" stroke-linecap="round" d="M100.387,157.739
				c-0.064,0.304-0.299,0.423-0.543,0.545"/>
			<path fill="none" stroke="#000000" stroke-width="0.3336" stroke-linecap="round" d="M78.639,160.459
				c1.708,0.509,2.888-1.229,4.351-1.631"/>
			<path fill="none" stroke="#000000" stroke-width="0.4319" stroke-linecap="round" d="M50.091,167.795
				c0.575-0.228,1.325-0.843,1.904-0.269"/>
			<path fill="none" stroke="#000000" stroke-width="0.3415" stroke-linecap="round" d="M111.804,166.982
				c0.979-0.07,1.448,0.362,1.632,1.086"/>
			<path fill="none" stroke="#000000" stroke-width="0.3741" stroke-linecap="round" d="M48.187,171.331
				c0.053-0.124,0.109-0.249,0.162-0.38c0.858,0.056,1.793-0.766,2.557-0.161"/>
			<path fill="none" stroke="#000000" stroke-width="0.288" stroke-linecap="round" d="M105.282,172.961
				c0.126,0.056,0.25,0.117,0.373,0.17c0.541,0.959,0.886,1.925,0.716,3.092"/>
			<path fill="none" stroke="#000000" stroke-width="0.3782" stroke-linecap="round" d="M102.563,175.683
				c0.13,0.051,0.256,0.11,0.383,0.161c0.78,0.754,0.037,1.665,0.162,2.556"/>
			<path fill="none" stroke="#000000" stroke-width="0.3527" stroke-linecap="round" d="M49.821,179.49
				c0.156-1.281,1.774-1.486,2.447-2.448"/>
			<path fill="none" stroke="#000000" stroke-width="0.3363" stroke-linecap="round" d="M57.701,186.283
				c-0.46-1.001-0.52-2.27,0-3.263"/>
			<path fill="none" stroke="#000000" stroke-width="0.3741" stroke-linecap="round" d="M86.255,183.293
				c0.46,0.08,0.749,0.336,1.086,0.545"/>
			<path fill="none" stroke="#000000" stroke-width="0.2732" stroke-linecap="round" d="M77.552,190.904
				c0.226,0.498,0.568,0.873,1.088,1.09"/>
			<path fill="none" stroke="#000000" stroke-width="0.2732" stroke-linecap="round" d="M75.919,193.625
				c-0.313-0.408-0.478-0.971-0.543-1.631"/>
			<path fill="none" stroke="#000000" stroke-width="0.3741" stroke-linecap="round" d="M72.113,193.08
				c0.083,0.464,0.336,0.754,0.545,1.086"/>
			<path fill="none" stroke="#000000" stroke-width="0.3606" stroke-linecap="round" d="M68.851,207.218
				c0.865-0.285,1.97-0.973,2.719,0"/>
			<path fill="none" stroke="#000000" stroke-width="0.3943" stroke-linecap="round" d="M69.937,211.026
				c-0.462-0.103-0.745-0.213-1.082-0.251c-0.626,0.386-1.38,0.702-1.638,1.337"/>
			<path fill="none" stroke="#000000" stroke-width="0.3244" stroke-linecap="round" d="M66.404,215.647
				c0.833-0.777,1.863-0.92,2.992-0.813"/>
			<path fill="none" stroke="#000000" stroke-width="0.3848" stroke-linecap="round" d="M-72.257,238.489
				c18.935-11.23,39.675-18.307,61.718-21.752"/>
			<path fill="none" stroke="#000000" stroke-width="0.3834" stroke-linecap="round" d="M68.306,218.095
				c-1.026-0.319-2.076,0.265-2.719,1.086"/>
			<path fill="none" stroke="#000000" stroke-width="0.5395" stroke-linecap="round" d="M72.113,222.444
				c-1.995-0.188-5.119-1.171-6.254,1.086"/>
			<path fill="none" stroke="#000000" stroke-width="0.4591" stroke-linecap="round" d="M72.113,222.444
				c0.63-7.022,0.929-15.421,5.572-20.94"/>
			<path fill="none" stroke="#000000" stroke-width="0.4665" stroke-linecap="round" d="M77.685,201.514
				c-0.504-1.229-0.193-1.623-0.134-2.449"/>
			<path fill="none" stroke="#000000" stroke-width="0.7964" stroke-linecap="round" d="M77.685,201.514
				c12.166-0.366,24.007-6.765,35.97-2.123"/>
			<path fill="none" stroke="#000000" stroke-width="0.4913" stroke-linecap="round" d="M113.655,199.391
				c1.725-6.938-1.077-14.043-2.118-20.991"/>
			<path fill="none" stroke="#000000" stroke-width="1.0211" stroke-linecap="round" d="M113.655,199.391
				c1.725,2.074,4.221,3.407,5.673,5.72"/>
			<path fill="none" stroke="#000000" stroke-width="0.4918" stroke-linecap="round" d="M119.328,205.111
				c8.015-2.406,16.943,0.792,25.109,0.477"/>
			<path fill="none" stroke="#000000" stroke-width="0.4549" stroke-linecap="round" d="M144.431,205.587
				c0.063-0.151,0.127-0.302,0.188-0.455c-0.439-6.527-0.005-16.256-0.32-24.258c-1.135-29.25-7.147-58.224-5.713-87.542
				c0.725-14.862,2.145-29.717-0.89-44.596c-0.137-9.133-2.364-18.365-0.611-27.431c0.196-0.223,0.437-0.474,0.635-0.709
				c4.816-2.037,10.257-1.312,15.406-1.812c8.807-0.855,17.541-3.695,25.697-2.017"/>
			<path fill="none" stroke="#000000" stroke-width="0.4677" stroke-linecap="round" d="M178.831,16.766
				c0.945,0.427,1.861,0.874,2.707,1.463c3.317,27.956,2.659,55.675,6.104,83.492c0.094,0.769-0.056,1.398,0,2.176
				c1.685,23.181,0.907,45.539,3.77,70.401c1.305,11.354-0.771,23.224,0.603,33.329"/>
			<path fill="none" stroke="#000000" stroke-width="0.4212" stroke-linecap="round" d="M192.016,207.627
				c2.926-0.86,7.412-0.247,9.512,2.312"/>
			<path fill="none" stroke="#000000" stroke-width="0.4194" stroke-linecap="round" d="M201.528,209.94
				c17.14,3.518,34.907,4.962,52.199,8.155"/>
			<path fill="none" stroke="#000000" stroke-width="0.6159" stroke-linecap="round" d="M119.328,205.111
				c2.771,7.273,3.438,16.398,9.88,21.413"/>
			<path fill="none" stroke="#000000" stroke-width="0.4344" stroke-linecap="round" d="M72.113,222.444
				c5.469,1.984,1.672,6.192-0.839,6.784c-7.812,1.853-10.938-8.969-8.106-18.1c0.864-2.777,3.168-6.135,3.507-8.812"/>
			<path fill="none" stroke="#000000" stroke-width="0.8291" stroke-linecap="round" d="M45.741,208.582
				c-0.763,8.871-3.42,19.213-11.69,23.928"/>
			<path fill="none" stroke="#000000" stroke-width="0.5276" stroke-linecap="round" d="M45.741,208.582
				c-1.91-0.639-4.268-0.96-6.254-0.817"/>
			<path fill="none" stroke="#000000" stroke-width="0.4525" stroke-linecap="round" d="M14.609,30.088
				c0.149-0.031,0.298-0.061,0.449-0.091c0.914,0.114,1.687,0.17,2.262,0.741c2.785,13.312,3.688,32.611,5.523,48.405
				c1.329,11.458,0.143,23.809,1.635,35.884c1.987,16.095,0.969,31.703,2.67,48.529c1.446,14.312,0.181,29.226,3.232,42.987"/>
			<path fill="none" stroke="#000000" stroke-width="0.5517" stroke-linecap="round" d="M30.38,206.538
				c1.97-0.106,4.12-0.55,5.845,0.681"/>
			<path fill="none" stroke="#000000" stroke-width="0.7886" stroke-linecap="round" d="M45.741,208.582
				c0.504-0.566,0.833-1.55,1.25-2.015"/>
			<path fill="none" stroke="#000000" stroke-width="0.4447" stroke-linecap="round" d="M57.431,190.363
				c-14.32-4.174-15.123-20.229-6.395-27.03c0.575-0.974,1.444-2.172,2.726-2.06"/>
			<path fill="none" stroke="#000000" stroke-width="0.4681" stroke-linecap="round" d="M53.76,161.273
				c-0.464-19.009-8.07-38.194-4.078-57.095"/>
			<path fill="none" stroke="#000000" stroke-width="0.418" stroke-linecap="round" d="M49.682,104.178
				c-0.72-1.917-2.764-3.995-1.133-6.073"/>
			<path fill="none" stroke="#000000" stroke-width="0.4702" stroke-linecap="round" d="M48.552,98.105
				c-0.025-0.098-0.049-0.191-0.072-0.29c1.593-3.219,4.237-6.174,7.864-7.504"/>
			<path fill="none" stroke="#000000" stroke-width="0.4371" stroke-linecap="round" d="M56.343,90.312
				c5.983-4.721,14.754-6.029,22.296-6.526"/>
			<path fill="none" stroke="#000000" stroke-width="0.4141" stroke-linecap="round" d="M78.639,83.785
				c0.066-0.181,0.13-0.364,0.194-0.545C74.355,40.808,69.839-4.637,74.04-46.164c3.049-30.142,27.872-46.605,51.91-64.718"/>
			<path fill="none" stroke="#000000" stroke-width="0.5323" stroke-linecap="round" d="M125.946-110.881
				c0.884-0.401,1.678-1.019,2.719-0.816"/>
			<path fill="none" stroke="#000000" stroke-width="0.4252" stroke-linecap="round" d="M99.028,181.934
				c4.519,0.941,8.214-4.041,11.508-6.435"/>
			<path fill="none" stroke="#000000" stroke-width="0.4045" stroke-linecap="round" d="M110.536,175.5
				c-1.551-1.371,1.227-4.156-1.448-4.71"/>
			<path fill="none" stroke="#000000" stroke-width="0.4466" stroke-linecap="round" d="M110.536,175.5
				c7.672-4.434,10.221-17.636,2.9-22.929"/>
			<path fill="none" stroke="#000000" stroke-width="0.4391" stroke-linecap="round" d="M69.213,197.796
				c-0.237,1.229-1.118,2.071-1.996,2.9"/>
			<path fill="none" stroke="#000000" stroke-width="0.4403" stroke-linecap="round" d="M78.639,83.785
				c1.376,4.365,2.788,9.899,0.354,14.056c0.013,0.34,0.182,0.702,0.341,1.028c0.867,0.765,2.143,0.73,2.933,1.591"/>
			<path fill="none" stroke="#000000" stroke-width="0.5228" stroke-linecap="round" d="M82.263,100.46
				c3.248-0.68,7.681,0.66,9.832-2.266"/>
			<path fill="none" stroke="#000000" stroke-width="0.4462" stroke-linecap="round" d="M88.791,83.059
				c-0.147-0.175-0.299-0.349-0.445-0.523c-2.709-34.025-9.324-64.554-6.77-106.12c0.794-12.937,0.747-24.728,4.666-33.491
				c6.16-13.778,17.763-26.517,31.154-35.72c4.772-3.277,12.071-5.828,14.401-10.883"/>
			<path fill="none" stroke="#000000" stroke-width="0.4156" stroke-linecap="round" d="M144.431,205.587
				c3.07,16.275-3.158,31.511-8.043,46.336c-6.508,19.772-14.12,39.655-21.104,58.819c6.859,3.812,20.308,3.422,30.766,3.315
				c4.048-0.047,8.083-0.224,11.933-0.52c7.915-12.546,12.069-26.933,18.411-40.088c4.033-9.039,6.871-19.062,10.915-28.227
				c0.191-1.214-0.06-2.449,0.162-3.65c6.06-19.002-0.562-48.469-2.481-71.556c-0.819-9.85,1.493-19.262,1.515-28.29
				c0.083-26.903-6.744-50.032-7.034-74.779c-1.761-5.822,1.12-11.827-0.376-17.661c1.31-10.746-2.341-22.041-0.286-32.513"/>
			<path fill="none" stroke="#000000" stroke-width="0.4491" stroke-linecap="round" d="M125.946-110.881
				c-0.792,3.589,1.295,8.717,5.847,7.204"/>
			<path fill="none" stroke="#000000" stroke-width="0.4728" stroke-linecap="round" d="M131.791-103.678
				c0.277-0.179,0.647-0.323,0.933-0.466c2.658-2.152,1.729-6.563-1.341-7.823"/>
			<path fill="none" stroke="#000000" stroke-width="0.4845" stroke-linecap="round" d="M129.208-110.881
				c-0.153,1.219-1.283,2.331-0.646,3.595c0.63,0.482,1.364,1.051,2.219,1.014c0.321-0.059,0.684-0.233,1.013-0.408
				c0.887-1.413,0.447-3.279-0.953-4.201"/>
			<path fill="none" stroke="#000000" stroke-width="0.4481" stroke-linecap="round" d="M14.609,30.088
				c-12.904-0.528-25.832,3.82-38.663,6.136c-2.24,63.047,11.529,125.736,17.561,188.828c-4.137,13.422-8.822,26.691-13.777,39.888
				c-5.647,15.044-15.308,27.818-22.114,42.104c0.499,0.682,0.839,1.502,1.595,1.97c14.793-1.688,29.771,3.795,44.73,1.627
				c8.236-19.924,13.862-42.975,21.351-63.262c2.396-6.496,6.723-14.002,5.82-20.488c-0.784-5.609-3.373-10.694-4.344-16.119
				c-3.799-21.227-0.969-45.739-3.341-68.801c-3.588-34.896-0.975-68.836-8.624-102.483C14.899,36.349,14.443,33.203,14.609,30.088"
				/>
			<path fill="none" stroke="#000000" stroke-width="0.4775" stroke-linecap="round" d="M62.324,102.275
				c-0.462-0.175-0.75-0.333-1.088-0.546"/>
			<path fill="none" stroke="#000000" stroke-width="0.319" stroke-linecap="round" d="M73.471,100.371
				c1.555-0.826,2.181-2.632,3.535-3.535"/>
			<path fill="none" stroke="#000000" stroke-width="0.4512" stroke-linecap="round" d="M65.589,108.253
				c13.688,3.139,29.392-1.021,40.512-9.107"/>
			<path fill="none" stroke="#000000" stroke-width="0.4383" stroke-linecap="round" d="M106.098,99.146
				c3.013-9.831-9.217-15.511-17.311-16.085"/>
			<path fill="none" stroke="#000000" stroke-width="0.4988" stroke-linecap="round" d="M88.791,83.059
				c-0.656,4.793,1.194,9.298,1.667,13.894c0.756,0.07,1.436,0.462,1.64,1.242"/>
			<path fill="none" stroke="#000000" stroke-width="0.3741" stroke-linecap="round" d="M92.095,98.195
				c0.354,0.098,0.771,0.213,1.225,0.272"/>
			<path fill="none" stroke="#000000" stroke-width="0.4988" stroke-linecap="round" d="M82.263,100.46
				c-0.168,0.396,0.014,0.933,0.454,1.541"/>
			<path fill="none" stroke="#000000" stroke-width="0.3834" stroke-linecap="round" d="M56.343,90.312
				c0.498,1.291,1.688,1.917,2.719,2.719"/>
			<path fill="none" stroke="#000000" stroke-width="0.3834" stroke-linecap="round" d="M66.675,97.381
				c-0.153-0.026-0.307-0.053-0.46-0.079c-0.17-0.992,0.573-2.333-0.626-3.187"/>
			<path fill="none" stroke="#000000" stroke-width="0.4963" stroke-linecap="round" d="M48.552,98.105
				c2.6,1.571,4.418-0.034,6.16-1.814"/>
			<path fill="none" stroke="#000000" stroke-width="0.4713" stroke-linecap="round" d="M49.682,104.178
				c2.964,2.415,7.133,3.521,11.192,3.168"/>
			<path fill="none" stroke="#000000" stroke-width="0.4319" stroke-linecap="round" d="M60.874,107.346
				c0.087-0.231,0.283-0.689,0.364-1.265"/>
			<path fill="none" stroke="#000000" stroke-width="0.5674" stroke-linecap="round" d="M60.874,107.346
				c1.374,1.035,3.164,0.411,4.714,0.907"/>
			<path fill="none" stroke="#000000" stroke-width="0.4988" stroke-linecap="round" d="M65.589,108.253
				c-0.068-1.474,1.989-2.295,1.088-3.807"/>
			<path fill="none" stroke="#000000" stroke-width="0.4824" stroke-linecap="round" d="M53.76,161.273
				c1.529,5.671,1.627,11.528,2.402,17.31"/>
			<path fill="none" stroke="#000000" stroke-width="0.3976" stroke-linecap="round" d="M56.162,178.583
				c2.472,0.943,4.067,2.973,6.527,3.986"/>
			<path fill="none" stroke="#000000" stroke-width="0.4891" stroke-linecap="round" d="M62.689,182.569
				c1.386-0.354,2.745,0.145,3.988,0.725"/>
			<path fill="none" stroke="#000000" stroke-width="0.6358" stroke-linecap="round" d="M66.675,183.293
				c0.952-0.469,2.181,0.021,2.992-0.813"/>
			<path fill="none" stroke="#000000" stroke-width="0.5323" stroke-linecap="round" d="M69.666,182.48
				c0.209-0.912-0.492-2.3,0.545-2.858"/>
			<path fill="none" stroke="#000000" stroke-width="0.4262" stroke-linecap="round" d="M72.52,174.457
				c1.501-3.398,3.284-7.951,7.208-8.842"/>
			<path fill="none" stroke="#000000" stroke-width="0.6905" stroke-linecap="round" d="M79.727,165.625
				c0.694-0.349,1.114-0.56,1.632-0.817"/>
			<path fill="none" stroke="#000000" stroke-width="0.3987" stroke-linecap="round" d="M81.359,164.808
				c-0.218-0.564-0.224-0.927-0.222-1.284c0.428-0.321,0.76-0.709,1.31-0.893"/>
			<path fill="none" stroke="#000000" stroke-width="0.4766" stroke-linecap="round" d="M99.12,173.328
				c0.307-0.062,0.79-0.062,1.194-0.085c13.111-4.41,10.596-19.865,9.107-34.784c-1.162-11.637-0.494-27.677-2.57-38.846
				c-0.228-0.22-0.498-0.315-0.753-0.467"/>
			<path fill="none" stroke="#000000" stroke-width="0.5502" stroke-linecap="round" d="M57.431,190.363
				c3.396,0.848,7.148-0.4,10.468,0.682"/>
			<path fill="none" stroke="#000000" stroke-width="0.4957" stroke-linecap="round" d="M67.899,191.044
				c7.942-1.596,17.167-5.066,17.263-14.638"/>
			<path fill="none" stroke="#000000" stroke-width="0.8271" stroke-linecap="round" d="M85.164,176.407
				c-0.809-0.196-1.656-0.171-2.446-0.451"/>
			<path fill="none" stroke="#000000" stroke-width="0.4702" stroke-linecap="round" d="M82.718,175.956
				c-0.496,0.953-1.107,1.822-2.177,2.172"/>
			<path fill="none" stroke="#000000" stroke-width="0.5076" stroke-linecap="round" d="M80.544,178.127
				c-0.352,0.549-0.729,1.131-1.105,1.533c-0.514,0.242-1.495,0.004-2.157-0.443"/>
			<path fill="none" stroke="#000000" stroke-width="0.4801" stroke-linecap="round" d="M77.279,179.217
				c-1.131,1.77-2.958,2.7-4.894,3.263"/>
			<path fill="none" stroke="#000000" stroke-width="0.3899" stroke-linecap="round" d="M72.385,182.48
				c0.624,0.707,0.313,2.159,1.361,2.444"/>
			<path fill="none" stroke="#000000" stroke-width="0.3407" stroke-linecap="round" d="M66.675,183.293
				c-0.72,1.346-0.815,3.092,0,4.348"/>
			<path fill="none" stroke="#000000" stroke-width="0.4147" stroke-linecap="round" d="M62.689,182.569
				c-0.483,1.47-0.76,2.994-0.907,4.531"/>
			<path fill="none" stroke="#000000" stroke-width="0.3725" stroke-linecap="round" d="M56.162,178.583
				c-0.381,1.403-2.238,2.006-1.995,3.624"/>
			<path fill="none" stroke="#000000" stroke-width="0.4459" stroke-linecap="round" d="M85.164,192.535
				c0.106,0.179,0.209,0.357,0.312,0.536c7.064,3.271,12.418-5.246,13.562-11.137"/>
			<path fill="none" stroke="#000000" stroke-width="0.5368" stroke-linecap="round" d="M99.028,181.934
				c0.18-2.87-0.161-5.74,0.092-8.606"/>
			<path fill="none" stroke="#000000" stroke-width="0.4988" stroke-linecap="round" d="M99.12,173.328
				c-0.862-1.137-0.413-3.036-1.995-3.629"/>
			<path fill="none" stroke="#000000" stroke-width="0.4564" stroke-linecap="round" d="M97.125,169.699
				c-0.983,1.565-0.905,3.656-1.903,5.166"/>
			<path fill="none" stroke="#000000" stroke-width="0.4688" stroke-linecap="round" d="M97.125,169.699
				c-2.462-6.209-10.338-5.937-15.766-4.891"/>
			<path fill="none" stroke="#000000" stroke-width="0.4169" stroke-linecap="round" d="M79.727,165.625
				c-0.021,0.773,0.128,1.14,0.301,1.51c3.149-0.183,4.659,3.054,4.32,5.826"/>
			<path fill="none" stroke="#000000" stroke-width="0.4129" stroke-linecap="round" d="M82.718,175.956
				c-0.875-1.67-1.652-3.348-2.738-4.87c-0.503-0.272-0.95-0.471-1.331-0.545c-0.332,0.138-0.986,0.228-1.64,0.249"/>
			<path fill="none" stroke="#000000" stroke-width="0.6539" stroke-linecap="round" d="M85.164,176.407
				c0.929-0.392,1.849-0.409,2.449-0.59"/>
			<path fill="none" stroke="#000000" stroke-width="0.4865" stroke-linecap="round" d="M87.613,175.817
				c0.684-2.771,0.981-6.037-0.545-8.566"/>
			<path fill="none" stroke="#000000" stroke-width="0.6148" stroke-linecap="round" d="M87.613,175.817
				c1.165,0.2,2.372,0.121,3.532,0.411"/>
			<path fill="none" stroke="#000000" stroke-width="0.4561" stroke-linecap="round" d="M91.145,176.223
				c0.211-2.887,1.468-5.772,0.543-8.696"/>
			<path fill="none" stroke="#000000" stroke-width="0.853" stroke-linecap="round" d="M91.145,176.223
				c0.366,0,0.613,0.115,0.858,0.23c0.296,0.839,0.269,1.768,0.682,2.581"/>
			<path fill="none" stroke="#000000" stroke-width="0.9658" stroke-linecap="round" d="M92.685,179.035
				c0.217,0.094,0.767,0.608,1.178,0.996"/>
			<path fill="none" stroke="#000000" stroke-width="0.4665" stroke-linecap="round" d="M93.863,180.031
				c0.975-0.604,2.806,0.272,3.262-1.086"/>
			<path fill="none" stroke="#000000" stroke-width="0.4792" stroke-linecap="round" d="M93.863,180.031
				c0.502,1.277-0.559,2.594-0.273,3.945"/>
			<path fill="none" stroke="#000000" stroke-width="0.4319" stroke-linecap="round" d="M93.59,183.976
				c0.822,0.371,1.602-0.3,2.449-0.138"/>
			<path fill="none" stroke="#000000" stroke-width="0.4988" stroke-linecap="round" d="M93.59,183.976
				c-0.468,0.2-1.135,0.616-1.901,0.957"/>
			<path fill="none" stroke="#000000" stroke-width="0.4724" stroke-linecap="round" d="M72.52,174.457
				c-1.244,1.409-2.295,3.206-2.311,5.165"/>
			<path fill="none" stroke="#000000" stroke-width="0.4249" stroke-linecap="round" d="M80.544,178.127
				c-0.577-1.6-1.812-2.771-3.203-3.671c-1.625-0.729-3.334,0.864-4.818,0"/>
			<path fill="none" stroke="#000000" stroke-width="0.5252" stroke-linecap="round" d="M67.899,191.044
				c-0.873,2.325-0.739,5.187,1.314,6.752"/>
			<path fill="none" stroke="#000000" stroke-width="0.4573" stroke-linecap="round" d="M69.213,197.796
				c6.066,0.599,10.905-2.843,15.949-5.256"/>
			<path fill="none" stroke="#000000" stroke-width="0.4319" stroke-linecap="round" d="M85.164,192.535
				c0.343-1.529,1.836-2.278,2.177-3.803"/>
			<path fill="none" stroke="#000000" stroke-width="0.3325" stroke-linecap="round" d="M87.341,188.732
				c-0.954-0.741-1.883-1.436-2.99-1.904"/>
			<path fill="none" stroke="#000000" stroke-width="0.7053" stroke-linecap="round" d="M87.341,188.732
				c0.361-0.184,0.724-0.362,1.084-0.546"/>
			<path fill="none" stroke="#000000" stroke-width="0.5257" stroke-linecap="round" d="M69.666,182.48c1.227,0,2.091,0,2.719,0"/>
			<path fill="none" stroke="#000000" stroke-width="0.382" stroke-linecap="round" d="M77.279,179.217
				c-2.253-2.069-4.761,0.379-7.07,0.407"/>
			<path fill="none" stroke="#000000" stroke-width="0.5464" stroke-linecap="round" d="M92.685,179.035
				c-1.122,1.439-0.891,3.509-1.812,5.076"/>
			<path fill="none" stroke="#000000" stroke-width="0.4429" stroke-linecap="round" d="M57.431,190.363
				c-0.967,2.231-0.911,5.14-0.545,7.61"/>
			<path fill="none" stroke="#000000" stroke-width="0.4559" stroke-linecap="round" d="M30.38,206.538
				c-0.369,3.922,0.703,8.466,1.737,12.218c0.637,0.153,1.638,0.139,2.392,0.153c2.643-1.663,2.063-5.345,3.347-7.892"/>
			<path fill="none" stroke="#000000" stroke-width="0.4413" stroke-linecap="round" d="M192.016,207.627
				c-0.684,3.735-0.188,7.675,0.388,11.303c4.391-0.796,5.935-6.241,9.131-8.99"/>
			<path fill="none" stroke="#000000" stroke-width="0.3292" stroke-linecap="round" d="M71.57,93.031
				c0.767-0.035,1.403,0.456,1.904,0.814"/>
			<path fill="none" stroke="#000000" stroke-width="0.3584" stroke-linecap="round" d="M86.255,145.233
				c4.687-10.586,9.147-21.626,10.87-33.172"/>
			<path fill="none" stroke="#000000" stroke-width="0.3217" stroke-linecap="round" d="M61.239,130.548
				c1.218-4.131,2.9-8.13,4.623-12.233"/>
			<path fill="none" stroke="#000000" stroke-width="0.4782" stroke-linecap="round" d="M81.63,149.849
				c-2.473,2.282-5.758,2.845-8.974,2.994"/>
			<path fill="none" stroke="#000000" stroke-width="0.4528" stroke-linecap="round" d="M72.656,152.843
				c1.065,3.624,2.513,7.167,4.08,10.6"/>
			<path fill="none" stroke="#000000" stroke-width="0.452" stroke-linecap="round" d="M81.63,149.849
				c0.894,1.146,1.652,2.482,2.176,3.808"/>
			<path fill="none" stroke="#000000" stroke-width="0.4528" stroke-linecap="round" d="M83.805,153.657
				c1.595,2.172,1.041,5.221,2.722,7.342"/>
			<path fill="none" stroke="#000000" stroke-width="0.3339" stroke-linecap="round" d="M83.805,153.657
				c-2.44,0.979-4.27,3.475-7.342,2.989"/>
			<path fill="none" stroke="#000000" stroke-width="0.4553" stroke-linecap="round" d="M81.63,149.849
				c-1.129-0.929-0.737-2.623-1.975-3.424c-2.659-0.669-5.057,0.507-7.25,1.818c-1.067,1.503-0.884,3.202,0.251,4.6"/>
			<path fill="none" stroke="#000000" stroke-width="0.2993" stroke-linecap="round" d="M103.108,159.915
				c0.296-0.362,0.422-0.724,0.543-1.086"/>
		</g>
	</g>
</g>
</svg>
