<?xml version="1.0" encoding="utf-8"?>
<!-- Generator: Adobe Illustrator 15.1.0, SVG Export Plug-In . SVG Version: 6.00 Build 0)  -->
<!DOCTYPE svg PUBLIC "-//W3C//DTD SVG 1.1//EN" "http://www.w3.org/Graphics/SVG/1.1/DTD/svg11.dtd">
<svg version="1.1" id="Layer_1" xmlns="http://www.w3.org/2000/svg" xmlns:xlink="http://www.w3.org/1999/xlink" x="0px" y="0px"
	 width="326.396px" height="366.628px" viewBox="-71.078 -83.302 326.396 366.628"
	 enable-background="new -71.078 -83.302 326.396 366.628" xml:space="preserve">
<metadata><?xpacket begin="﻿" id="W5M0MpCehiHzreSzNTczkc9d"?>
<x:xmpmeta xmlns:x="adobe:ns:meta/" x:xmptk="Adobe XMP Core 5.0-c060 61.134777, 2010/02/12-17:32:00        ">
   <rdf:RDF xmlns:rdf="http://www.w3.org/1999/02/22-rdf-syntax-ns#">
      <rdf:Description rdf:about=""
            xmlns:xmp="http://ns.adobe.com/xap/1.0/"
            xmlns:xmpGImg="http://ns.adobe.com/xap/1.0/g/img/">
         <xmp:CreatorTool>Adobe Illustrator CS5</xmp:CreatorTool>
         <xmp:CreateDate>2015-01-07T18:24:48+02:00</xmp:CreateDate>
         <xmp:Thumbnails>
            <rdf:Alt>
               <rdf:li rdf:parseType="Resource">
                  <xmpGImg:width>228</xmpGImg:width>
                  <xmpGImg:height>256</xmpGImg:height>
                  <xmpGImg:format>JPEG</xmpGImg:format>
                  <xmpGImg:image>/9j/4AAQSkZJRgABAgEBLAEsAAD/7QAsUGhvdG9zaG9wIDMuMAA4QklNA+0AAAAAABABLAAAAAEA&#xA;AQEsAAAAAQAB/+4ADkFkb2JlAGTAAAAAAf/bAIQABgQEBAUEBgUFBgkGBQYJCwgGBggLDAoKCwoK&#xA;DBAMDAwMDAwQDA4PEA8ODBMTFBQTExwbGxscHx8fHx8fHx8fHwEHBwcNDA0YEBAYGhURFRofHx8f&#xA;Hx8fHx8fHx8fHx8fHx8fHx8fHx8fHx8fHx8fHx8fHx8fHx8fHx8fHx8fHx8f/8AAEQgBAADkAwER&#xA;AAIRAQMRAf/EAaIAAAAHAQEBAQEAAAAAAAAAAAQFAwIGAQAHCAkKCwEAAgIDAQEBAQEAAAAAAAAA&#xA;AQACAwQFBgcICQoLEAACAQMDAgQCBgcDBAIGAnMBAgMRBAAFIRIxQVEGE2EicYEUMpGhBxWxQiPB&#xA;UtHhMxZi8CRygvElQzRTkqKyY3PCNUQnk6OzNhdUZHTD0uIIJoMJChgZhJRFRqS0VtNVKBry4/PE&#xA;1OT0ZXWFlaW1xdXl9WZ2hpamtsbW5vY3R1dnd4eXp7fH1+f3OEhYaHiImKi4yNjo+Ck5SVlpeYmZ&#xA;qbnJ2en5KjpKWmp6ipqqusra6voRAAICAQIDBQUEBQYECAMDbQEAAhEDBCESMUEFURNhIgZxgZEy&#xA;obHwFMHR4SNCFVJicvEzJDRDghaSUyWiY7LCB3PSNeJEgxdUkwgJChgZJjZFGidkdFU38qOzwygp&#xA;0+PzhJSktMTU5PRldYWVpbXF1eX1RlZmdoaWprbG1ub2R1dnd4eXp7fH1+f3OEhYaHiImKi4yNjo&#xA;+DlJWWl5iZmpucnZ6fkqOkpaanqKmqq6ytrq+v/aAAwDAQACEQMRAD8A9U4q7FXYq7FXYq7FXYq7&#xA;FXYq7FXYq7FXYq7FXYq7FWmZVUsxCqoqzHYADucVQ3rXNz/vOPShP/Hw4+Ij/itD+DN9xGKpXFYt&#xA;NqJmiZ50V1Zb1ypFAYy6Ka8v91Nsg4fGe9RiqfYq7FXYq7FXYq7FXYq7FXYq7FXYq7FXYq7FXYq7&#xA;FXYq7FXYq7FXYq7FXYq7FXYqsmmjhQvIaKNtgSST0AAqST4DFUM4DD6xfUWNSDFb/aoa/DyArzev&#xA;QCu/SvXFV3oy3W9yOEHa22+If8Wnv/qjbxr2VRQAAoNgOgxV2KuxV2KuxV2KuxV2KuxV2KuxV2Ku&#xA;xV2KuxV2KuxV2KuxV2KuxV2KuxV2KuxVbJIkcbSSHiiAszHoABUnFULyoPrlypDdIIOpWvTbvI3f&#xA;w6eJKqrDA5cTz0ab9hRusYPZffxOKq+KuxV2KuxV2KuxV2KuxV2KuxV2KuxV2KuxV2KuxV2KuxV2&#xA;KuxV2KuxV2KuxV2KuxVC3H767ht/2I/383+xNI1Pzf4q/wCTirrf/SZjdH+7SqWw9gaNJ/sui/5P&#xA;zOKorFXYq7FXYq7FXYq7FXYq7FXYq7FXYq7FXYq7FXYq7FXYq7FXYq7FXYq7FXYq7FXYq7FUsklc&#xA;R6hPGaSu4t7aT3ACKP8AYzO2KpjFEkUSRRjjHGoVF8ABQDFV2KuxV2KuxV2KuxV2KuxV2KuxV2Ku&#xA;xV2KuxV2KuxV2KuxV2KuxV2KuxV2KuxV2KuxV2KpV/0rQezXoZT4q17UEexBriqa4q7FXYq7FXYq&#xA;7FXYq7FXYq7FXYq7FXYq7FXYq7FXYq7FXYq7FXYq7FXYq7FXYq7FXYq7FUqtt7HRVO6t6fJex427&#xA;sK/JlB+eKprirsVdirsVdirsVdirsVdirsVdirsVdirsVdirsVdirsVdirsVdirsVdirsVdirsVd&#xA;irsVSq1/3j0T/Yf9QsmKprirsVdirsVdirsVdirsVdirsVdirsVdirsVdirsVdirsVdirsVdirsV&#xA;dirsVdirsVdirsVSq1/3j0T/AGH/AFCyYqmuKuxV2KuxV2KuxV2KuxV2KuxV2KuxV2KuxV2KuxV2&#xA;KuxV2KuxV2KuxV2KuxV2KuxV2KuxVKrX/ePRP9h/1CyYqmuKuxV2KuJAFTsB1OKoX9LaV/y2wf8A&#xA;I1P64q79LaV/y2wf8jU/riqpBfWU7lILiOVwKlUdWNOlaA4qrYq7FXYq7FXYq7FXYq7FXYq7FXYq&#xA;7FXYqk99eaNJrEdpdywFoIJGkimK0Bdo+Bo+1aA9OgIr9oVVXkeVSKH6iQeo/c4q7/nVf+XH/kji&#xA;qC1q30Q2cU1tHa/bkVJkEYAf6vLxAYdDWmKpuusaSyhlvYCrCo/eJ0P04q3+ltK/5bYP+Rqf1xV3&#xA;6W0r/ltg/wCRqf1xV36V08/3c6zN/JBWZgPErHyNPfFUg1XVb7T9F8v3NjYHUHa5toZ4g7RmOJ4n&#xA;SaU0SQ/uVqxWm9KbYqnw1S2IqEnIPQ/V5/8AmjFW/wBJ238k/wD0jz/80Yq79K6eP7yYQHsJwYSf&#xA;kJApP0Yqhzdafe3cqtNFNa2sSSOOSsnKRmFX6j4RHt88VV/0vpP/AC2wb9P3qf1xVFghgCDUHcEd&#xA;CMVY5541CzsdJkuZ0Mz2cF1fRQIA0zmC3ccYFO7SlpVCAYqm2iaouraNY6otvNaLfQR3C2t0ojnj&#xA;EqhuEqAsFda0IriqNxV2KuxV2KuxV2KuxV2KuxV2KuxV2KoXT/iFxN3lnkqPD0j6I+8RVxVFYq7F&#xA;UPcwx+tDOttHLchgiysKFENeRDhWI+HlQdztUVxVEYq7FXYqg9ZvLuy0q7u7SBbm4t4mkjt3aRFc&#xA;qK8S0UVxIP8AYxsfbFVOGC3OnfWZVguppbYfWLgRems4KDkSv7xgj/y/Ft44qirKT1LOCTgsfONG&#xA;4JUqtVBovJUNB2qo+QxVWxV2KoUxwTag3qCCVrdEaIUDTRsxbkSTWitxXj8jiqKxVCnStLYkmzgJ&#xA;O5JjSpP3YqqwWdpbkmCCOEt9oxqq1p40GKqWk/8AHKsv+MEX/EBiqKxV2KuxV2KuxV2KuxV2KuxV&#xA;2KuxV2KoXTdoJFP2lnnqO4rMzD7wQcVRWKuxVTnuIYEDytxUukYNCfikcIg28WYDFVTFXYq7FVO4&#xA;hhnt5YZ4lnhlRklhcBldWFGVlbYhhtQ4qgYEvdO8uqg9O4vrW1229GOSZE/ymbgGfxY07nFUfA8j&#xA;wRvKnpyMoLx1rxYjcV9sVX4q7FVNYUWeSYKoaRVVmCgMeNacm7j4th2xVUxV2KuxVC6T/wAcqy/4&#xA;wRf8QGKorFXYq7FXYq7FXYq7FXYq7FXYq7FXYqgJZxY3bM6O8N44IaNS5WRY6EFV+KhWMU4g71rQ&#xA;Yqq/pO2/kn/6R5/+aMVd+k7b+Sf/AKR5/wDmjFUPea7b20JcQzySUYxxmKSMMURpCOciqo+FD1P4&#xA;4qriXVqb20Fe/wC/f/qjirf1i/T+8s+denoSK9P9b1PR+ilcVa+s3zmkdmUPczyIg+j0/WP4Yq3X&#xA;VX24wQd+fJ5q+3GkP38voxVAahetNpd2LjSxeRxB+UbtEbeRoTXfmeYAdaVMexGwOxKqYumoFyY5&#xA;4Vj/AGVaJmI+ZEi1+7FVvp6r/wAtEH/Ih/8AqtiruGqrv6sElP2PTeOv+y5yU/4E4qpNf3sdwkEt&#xA;nzaRHdTBIr0CFQeXqCH+cUpXFVX67c/8sE//AAUH/VXFWvrtzX/eCf58oP8AqriqF1HW7izhVhps&#xA;8kkjenEnOBQWIJAJ9Qnt2BPYCuKphaQfV7WG35cvRjWPlSleIArTfFVXFXYq7FXYq7FXYq7FXYq7&#xA;FXYq7FXYqhZvi1K1Q7qsc0oH+WpRAf8AgZGH04qisVdiqVeY/wDeNf8Ant/1CzYqmuKuxVJdR836&#xA;JYzQwTXMayXBpE0jpFH0Yhi7kfB8B+NQRXb7RAKqJhvrm6cJBLaqSgkDRl7kFGAKmq+iFqGBXf4h&#xA;06YqhlMzeW7sMR68v1tFPEqOcksiqOPInqQPtYqrXWrNp55XjxSW4ZElmSkXpPIypGrB3bkXZwFA&#xA;PLfYGuKpmjpIiyIQyOAysOhB3BGKt4qhR8eqvX/dEC8P+eztyr/yJWmKorFXYqlWt/HPYxnokyTg&#xA;/wCUs0UYHypMcVTXFXYq7FXYq7FXYq7FXYq7FXYq7FXYq7FULJ/x1bf/AIwT/wDE4cVRWKuxVKvM&#xA;f+8a/wDPb/qFmxVNcVQmrGmnTsRWNF5zKOrRKQ0ij3ZAQMVeHfm9+Q2hfmDqUnmb9Kz2upWlvHaX&#xA;MUFs0jXU8J5fCheis8Xwqq/ZP2uhGKpJ+Qv5oefZNbsvKg8jT2flyztltpLvjcCW3jtkf05J5JQq&#xA;SOx+Fgqhj+yu3HFX0EIboRmxikRkMZJSWBmPFq19WTnwLMftbEnrQ4qgZbKxuJbT0Z1lgS2eBhZu&#xA;xlnRwY3ClGHoqHjU+qHrUcSwpuqm+keobENIAC0kzDjUrxaZ2XiTSo4kUPfFUZiqFj/46tx/xgg/&#xA;4nNiqKxV2KpVq/8AvZafR/1FW2KprirsVdirsVdirsVdirsVdirsVdirsVdiqFm+HU7VjsrRzRg/&#xA;5ZMbAf8AAox+jFUVirsVSrzH/vGv/Pb/AKhZsVTXFULqm9k8f7MzJA/iFmdY2I96Ntiq6awtpXMl&#xA;GjlahaSNmjLEfZ5cSOVO3KuKof6l9Y9QG+uGC8oXK+mhowHIK6Rqw+amoPeoxVW/R0R3kmndv5vW&#xA;kTbttGUX8MVU4IreWFEtYnt7eQrOJouEYbg6sAaHkfUC77briqppP/HKsv8AjBF/xAYqisVQsf8A&#xA;x1bj/jBB/wATmxVFYq7FUq1f/ey0+j/qKtsVTXFXYq7FXYq7FXYq7FXYq7FXYq7FXYq7FULe/wC9&#xA;Nh/xnb/kxLiqKxV2KpV5j/3jX/nt/wBQs2KpriqF1P8A3mT/AIz2/wDyfTFVS7naKMcAGmkYJCp6&#xA;Fj4+wALH2GKrreBYIEiUluI3Y9WY7sx92O5xVSvmZ1W1jJElxUFhsVjFPUavbY0HuRiqDkSWfUre&#xA;H0TAltVvUQOtYwwIVZVCpxYonKPv9G6qL0n/AI5Vl/xgi/4gMVRWKoWP/jq3H/GCD/ic2KorFXYq&#xA;lWo/8d3SB2P1j/k2Diqa4q7FXYq7FXYq7FXYq7FXYq7FXYq7FXYqhb3/AHpsP+M7f8mJcVRWKuxV&#xA;KvMf+8a/89v+oWbFU1xVC6n/ALzJ/wAZ7f8A5PpiqKxVBy61pMOpRaXLdxJqM45RWpYeowIdgePu&#xA;InI8eJ8DiqIWBFmeapLuAtT2Veij6ST/AJjFUmha49RNQt4rX63d+tD6czv6r8HaSCEzhOUYRfUZ&#xA;4yjcGJVTtUqpnpP/AByrL/jBF/xAYqisVQsf/HVuP+MEH/E5sVRWKuxVKrv49esq/wC6PsU7+tHN&#xA;yr/yJWn04qmuKuxV2KuxV2KuxV2KuxV2KuxV2KuxV2KoW/8AhNtN1EU6fD4+rWH8PVriqKxV2KpV&#xA;5j/3jX/nt/1CzYqmuKoTVCBbISaD6xbDfxM6AYqi8VY4NMgsbq8lZHnmu7g3MlRH8YcBEPIjlSMB&#xA;Y9uTj4aUBpiqb2sjTRTW7SHnH8KzAjmUdao46ivVa9CynFUlhkuoeBufWgAWKe9ldomMKRAFLMvF&#xA;J8U0krcmbiQ6lhXdcVR/lm9u5dMgt9QtvqWoW6BJbcOZUKoeKvHLxQOCACaD4Tt7lVN8VQsf/HVu&#xA;P+MEH/E5sVRWKuxVKrj/AI70P/PL/k3dYqmuKuxV2KuxV2KuxV2KuxV2KuxV2KuxV2KoXU/95k/4&#xA;z2//ACfTFUVirsVSrzH/ALxr/wA9v+oWbFU1xVj2r3Rdmm2aO2mSRApJcR28itMyxhJDUlXj5NxH&#xA;TcVrirIcVS3Ubu3EqU4tJDzZi7BE4hDzQmjM225VVPQVpiqFiludPuJC4WWOOMJKoDIyxQIZDIGY&#xA;v6m83H9nf6cVXW0xjjlsUnaa5QJGbmb0mbkPgE8pREjMrMAAg8F2Wpoq3pUMZuoJYlKIts5Cc3Kr&#xA;FNIvofCzMAxSI8qd8VTnFULbfHfXkh6oY4AP8lUEgPzrMcVRWKuxVKrj/jvQ/wDPL/k3dYqmuKux&#xA;V2KuxV2KuxV2KuxV2KuxV2KuxV2KoXU/95l9p7cn5CdMVRWKuxVKvMX+8kY7sZVUeLNbSgAe5Jpi&#xA;qa4qkOsWxiEwmC/o6Yjk/EOEMrgOZVZWXjGGeRS9UqfiA4rVVLrEXF5Akem6/eJGzxpGEazn9MOh&#xA;mKFpbeWQ8YRszM1W9sVUtVso9T0d7e21LUIg1qkhSy+rAsHHNVeeSGRUYU+18Joe5xV0cmpaffuY&#xA;6TW6pHdTPcNc3Tsyh1ZA7+n6HBE2UIw5HmVQ1JVV5g+leXVliiWmmWkrxJMGhQyRUueCIQrsF9EU&#xA;2UUHfoFWUW9usKEA8mY8pHPVm6V+4UHtiqriqFsv96b/AP4zr/yYixVFYq7FUqn31yEjcAxKT/lC&#xA;K5JHzowOKprirsVdirsVdirsVdirsVdirsVdirsVdiqF1b/jlXv/ABgl/wCIHFUVirsVSrzAQP0b&#xA;U0/0+D8a4qmuKpR5h1SG3ijsUjku729YJHYwBWleHkBM/wARRURUJq7sorQV5FQVUi8yat5Q4HUd&#xA;bjj0ua2RkuJdUhWAPCVJaBbmRTE+/wAXGOQ16AipOKqdtqRfS7eDgNHsJoVtrVr9kiAlmi4xxrFG&#xA;3GUxqWaT4lBYhVY8dlUde6touhWz3HmbWLKyjTlJO8twE9UM3PdX4UUVAoASRxFSNiq82vvz0/Lf&#xA;VbXU7iXzHaxXNxpUsUemGeZkjuAsyhE5wpAzSCYcpFauwUVWpxV7bY31nf2cF7ZTJc2dzGstvcRM&#xA;HR43HJWVhsQQdsVVsVQtl/vTf/8AGdf+TEWKorFXYqlUHxa3Kp3VXkkA/wAsQ26g/wDAuw+nFU1x&#xA;V2KuxV2KuxV2KuxV2KuxV2KuxVDy6hYxSGJ50Ew/3SCDJuKgBBViT8sVW/pAN/c288p7j0zFT6Zv&#xA;SB+jFULql1dvp1zGtm6NJGyKZXjAJccQBwaRixJoBTFU0xV2KpN5mBZNNT01kV7+BZFY0HA8g3Y1&#xA;27YqtfRdBu0e4urS3FjDUxVVUTgoPKRiKAqRWlduO/fFVDyVpFlbWM2qQ2kdrNrEhuikaCMrAdra&#xA;MrQcOMVGZenqM56sSVUTrzSSzQWiGLga+qk32WaQMka7sK8h6mwVjUDbFVXSLCBYZgY0MFWgii4I&#xA;oEcZKsCqAJUuG6DdQuKouz0vTLKNo7O0hto3+2kMaRqfmFAxVjHm/wAg/l9rdq8Gs+V7fUvUaGIy&#xA;RWqCdRcSiHmk6enIojrzkKvVVFcVebflnD5n/L382r78rLe4/SPlKewbWdBF47CW3RpAjRJIoeq8&#xA;+YI49uQ41NVXt/1u7XZ7KRmHUxPEyfQXaNvvUYqt0l/UtGk4lS089Qwo20zih+VKYqjMVdiqTLcW&#xA;8GuTNPIsSH1RychVr6drtU7Yqm0M8E6epDIsqdOSEMKj3GKr8VdirsVdirsVdirTMqqWYhVUVZjs&#xA;AB3OKob9JQv/ALzI917wgFPokYrGflyriruOpy/aaO2XoeFZXp4hmCKp/wBi2Ku/RsD/AO9DSXJP&#xA;2hKxKHwrEvGLb/VxVERQxQxiOJFjjX7KIAoFTXYDFV2KoW9/eTW1sN+cnqyDuEho1a/8ZOA+nFUV&#xA;irsVQd8iS3NnCyhxzd3QioMYidGrXtWRR9OKpbrbDVLlfLtvvCwV9ZcD4Uta1+r16c7j7PHtHyOx&#xA;41VT7FUjvb82mpMvpvPdTSL6MCtwBh4KvNmofhWRmAUnq3TocVTHSyPqfiwkmWRuxcSsHYeFWqad&#xA;sVSvVtftJrO4itJpk4JdmW8gMMZiawdVmX/SN92PHkqMO9RscVRIhF7LI1xGgW4S5sbiKOSWVWRJ&#xA;GERLIURCY+RYFeQLcQ226rGtf8syX35ieUfNllNAZ9Ga80zXI0ev7q7tS6LX+aOcIQrU2f5YqzvF&#xA;ULpn+8pPZpp2U+KtM5BHsQa4qisVdiqUKzRatPP6bugd4/3aljzeK3KjbpXgdzt4nFURFpf7xrtp&#xA;Hhv51VZ5YmBHFalU4uGSi8jQ8a4qq8dTj+y8VwvQK4aJqeLOvqAn5IPo6Yq76/6f+9MMkH+WRzj2&#xA;6nknLio8X4/rxVERTRTRiSJ1kjb7LoQwNDTYjFV2KuxV2KoZdOtuQeYG4kBqHmPOhHdVPwp/sQMV&#xA;ROKuxV2KuxV2KoW0/fTS3Z+y37qD/jGh3b/ZNXcdVC4qisVdiqFi/e6hNJ+zbqIU/wBZqPJ8xTh9&#xA;xxVfZWFpZRNFaxiNXdpZDUszO5qzszEszHxJxVXxVTntoJwBKgbjujdGU+KsN1PuMVXRxpGgRBxV&#xA;dgBiqW2+iW4vpbqaIBo55JbNo5CPhniRZeaIkQ+Jw2z8+zcv2VVW21ne2do9pFS8WzSAWInRUqI4&#xA;wpBkU0LkqTyCKFr0OKplcQJPC0TEgGhDDqpBqrCvcEVGKrbycwWssqjk6qfTQ/tOdlX/AGTUGKrr&#xA;WAW9tFADyESKgY9SFFK4qqYq7FUNaI63F6WUgPMCpI6j0YxUfSMVROKuxV2KoeXT7OWQytEBM3WZ&#xA;KpJsKfbWjdPfFVv1OdP7i6kUD7MctJU+kt+9P/B/htiruWqR9UhnHUsrNE3yCESCvzcfRirvrlxS&#xA;v1Gevhygr/ycxVFYq7FXYq7FXYqhr93EIhjJWW4YRRsNiKglmB8VQMw+WKohESNFjQBUQBVUdABs&#xA;AMVbxVTuZxBA8pHIr9lB1ZiaKo92Jpiq2zgMFukbHk+7SMOhdyWcj5sTiqtirsVdirsVdirsVdiq&#xA;Fm/f3kUA+xDSabwJ3Ea/fVvbiMVRWKuxVZPMkELzPXjGpYgbk07D3OKrbVJkt0Ezcpj8UhrUBmPI&#xA;hf8AJBNF9sVVcVdirsVdirsVdirsVdirsVdirsVdiqFi/f3sk3+64AYYj2LGhkI8egX2IbFUVirs&#xA;VQr/AL++WPrFbUkfwMjfYX/Yj4iPdTiqKxV2KuxV2KuxV2KuxVTuJ0ghaVgSF6Kv2mJ2Cr7k7DFV&#xA;tpA8URMhBnkPOZh0LnsK9lACj2GKq2KuxVCz/v7uO3/Yi4zze5qfSH/BKW/2PviqKxV2KuxV2Kux&#xA;V2KuxV2KuxV2KuxV2KqF3M6hYof96JqrH34j9pyPBfxNB3xVUghSGJY0+yvc7kk7kk9yTuTiq/FV&#xA;s0scMTyyHjHGpd23NAoqTtiqjYxSJBylFJ5SZZhsaM2/Go68BRQfAYqiMVdirsVdirsVdirsVQq/&#xA;6Tdc/wDdFsxVP8qWlGb5ICV+dfAYqisVdiq2aWOGJ5ZDxjjUu7bmgUVJ2xVRsopEiMko4zzt6sy7&#xA;GhIAC7bHgoC1HWlcVRGKuxV2KuxV2KuxV2KuxV2KuxV2KuxVC2P74G9bcz/3PtD+x/wX2j33p2xV&#xA;FYq7FULd/vpobUbqT6s/+ohqB/snp8xyxVFYq7FXYq7FXYq7FXYqh7yWQBIYTSeY8UOx4qPtPQ/y&#xA;j6K0HfFVaKKOGJIoxxRAFUbnYe5xVdirsVQtx+/uorYfYjpPP8lP7ofS45f7GnfFUVirsVdirsVd&#xA;irsVdirsVdirsVdirsVcQCKHcHqMVQaWd3AgjtrlRCooiTR8+KjZVUo0RoB/NU++KrvV1NPtQRyK&#xA;vUxyEO3uEZQor4F/pxV31913ltJ40/mokn/CxNI34YqqQQMkksshBklalR0CLUIo++p9ycVVsVdi&#xA;rsVdirsVdirsVQtn++kkvDusnwQf8YlP2h/rn4vcccVRWKuxVbJIkcbSSHiiAszHoABUnFVGxjcR&#xA;NLKOM07GR1PUV2VT/qqAPniqIxV2KuxV2KuxV2KuxV2KuxV2KuxV2KuxV2KuxV2KuxV2KuxV2Kux&#xA;V2KuxVplDKVNaEUNCQd/AjfFUIlneQIqW91VFAULNGrAAbAL6Xo0+muKrvrF+n95aepXp6EisfpE&#xA;npU+gnFXfpO0H96XgHdpo3jQHw5sAn44qpS3VreyxWtvMkysfUuPTYNSOMg8TQn7TFRQ9VriqPxV&#xA;2KuxV2KuxV2KuxV2KuxV2Kv/2Q==</xmpGImg:image>
               </rdf:li>
            </rdf:Alt>
         </xmp:Thumbnails>
      </rdf:Description>
      <rdf:Description rdf:about=""
            xmlns:xmpTPg="http://ns.adobe.com/xap/1.0/t/pg/"
            xmlns:stDim="http://ns.adobe.com/xap/1.0/sType/Dimensions#"
            xmlns:xmpG="http://ns.adobe.com/xap/1.0/g/">
         <xmpTPg:MaxPageSize rdf:parseType="Resource">
            <stDim:w>115.145254</stDim:w>
            <stDim:h>129.338186</stDim:h>
            <stDim:unit>Millimeters</stDim:unit>
         </xmpTPg:MaxPageSize>
         <xmpTPg:NPages>1</xmpTPg:NPages>
         <xmpTPg:HasVisibleTransparency>False</xmpTPg:HasVisibleTransparency>
         <xmpTPg:HasVisibleOverprint>False</xmpTPg:HasVisibleOverprint>
         <xmpTPg:PlateNames>
            <rdf:Seq>
               <rdf:li>Cyan</rdf:li>
               <rdf:li>Magenta</rdf:li>
               <rdf:li>Yellow</rdf:li>
               <rdf:li>Black</rdf:li>
            </rdf:Seq>
         </xmpTPg:PlateNames>
         <xmpTPg:SwatchGroups>
            <rdf:Seq>
               <rdf:li rdf:parseType="Resource">
                  <xmpG:groupName>Default Swatch Group</xmpG:groupName>
                  <xmpG:groupType>0</xmpG:groupType>
               </rdf:li>
            </rdf:Seq>
         </xmpTPg:SwatchGroups>
      </rdf:Description>
      <rdf:Description rdf:about=""
            xmlns:dc="http://purl.org/dc/elements/1.1/">
         <dc:format>image/svg+xml</dc:format>
      </rdf:Description>
   </rdf:RDF>
</x:xmpmeta>
                                                                                                    
                                                                                                    
                                                                                                    
                                                                                                    
                                                                                                    
                                                                                                    
                                                                                                    
                                                                                                    
                                                                                                    
                                                                                                    
                                                                                                    
                                                                                                    
                                                                                                    
                                                                                                    
                                                                                                    
                                                                                                    
                                                                                                    
                                                                                                    
                                                                                                    
                                                                                                    
                           
<?xpacket end="w"?>
	</metadata>
<g>
	<g>
		<path d="M100.091,42.625c0.309,0,0.616,0,0.926,0c0,0.31,0,0.617,0,0.926c-0.31,0-0.617,0-0.926,0
			C100.091,43.242,100.091,42.934,100.091,42.625z"/>
		<path d="M89.447,47.251c0.701-1.632,0.878,0.852,0.463,0.925C89.637,48.226,89.331,47.527,89.447,47.251z"/>
		<path d="M139.885,47.714C141.594,49.119,138.479,49.274,139.885,47.714L139.885,47.714z"/>
		<path d="M40.399,48.642c0.608,0.162,0.728,0.814,1.388,0.924C41.6,50.718,39.993,49.594,40.399,48.642z"/>
		<path d="M87.135,49.103c0.188-1.023,2.712-0.618,1.849,0.926C88.299,49.789,87.818,49.343,87.135,49.103z"/>
		<path d="M100.553,48.642c0.308,0,0.616,0,0.924,0c0,0.309,0,0.616,0,0.924c-0.308,0-0.616,0-0.924,0
			C100.553,49.256,100.553,48.948,100.553,48.642z"/>
		<path d="M40.399,50.954c1.351-0.68,1.351,2.068,0,1.387C40.399,51.88,40.399,51.416,40.399,50.954z"/>
		<path d="M87.598,51.416c0.341,0.738,2.264-0.106,1.849,1.387C88.238,52.936,87.459,52.635,87.598,51.416z"/>
		<path d="M100.553,51.88C102.559,52.073,100.065,54.564,100.553,51.88L100.553,51.88z"/>
		<path d="M90.373,53.268c0.629,0.144,0.385,1.159,0.463,1.85C89.764,54.989,89.771,53.883,90.373,53.268z"/>
		<path d="M88.984,53.73c0.629,0.144,0.386,1.16,0.463,1.85c-0.374-0.321-1.267-0.719-1.388,0c-1.279-0.198-0.024-1.456,0.925-0.925
			C88.984,54.348,88.984,54.04,88.984,53.73z"/>
		<path d="M139.422,53.73c0.308,0,0.617,0,0.925,0c0,0.31,0,0.618,0,0.925c-0.308,0-0.617,0-0.925,0
			C139.422,54.348,139.422,54.04,139.422,53.73z"/>
		<path d="M89.447,56.044c0.504,0.115,0.315,0.921,0.926,0.924C90.174,58.251,88.917,56.992,89.447,56.044z"/>
		<path d="M89.447,58.359c0.463,0,0.926,0,1.389,0c0.195,0.966-0.317,1.225-0.463,1.85C89.558,60.097,89.318,59.412,89.447,58.359z"
			/>
		<path d="M100.091,59.283c1.44,0.103,0.782,2.303,0.926,3.702C99.809,61.819,100.456,61.482,100.091,59.283z"/>
		<path d="M88.984,62.061c0.176-0.881,0.591,0.294,0.463,0.924C89.272,63.867,88.861,62.689,88.984,62.061z"/>
		<path d="M40.861,63.447c0.988-0.216,0.883,0.661,0.925,1.387c-0.376-0.086-0.462-0.463-0.925-0.461
			C40.861,64.065,40.861,63.757,40.861,63.447z"/>
		<path d="M99.168,65.297C100.78,67.021,97.907,67.646,99.168,65.297L99.168,65.297z"/>
		<path d="M100.553,65.297c0.899-0.183,0.673,2.109-0.463,1.388c0-0.31,0-0.618,0-0.925
			C100.483,65.845,100.526,65.58,100.553,65.297z"/>
		<path d="M73.716,86.122c0.31,0,0.617,0,0.925,0c0,0.308,0,0.618,0,0.924c-0.308,0-0.618,0-0.925,0
			C73.716,86.737,73.716,86.43,73.716,86.122z"/>
		<path d="M84.358,86.122c-0.162,0.607-0.815,0.726-0.923,1.387C82.28,87.32,83.405,85.714,84.358,86.122z"/>
		<path d="M110.27,87.046c0.569,0.202,0.947,0.591,0.925,1.387C109.59,88.838,109.608,87.722,110.27,87.046z"/>
		<path d="M105.18,87.972c-0.304,0.621-0.988,0.863-1.847,0.925C103.26,87.6,104.636,87.389,105.18,87.972z"/>
		<path d="M81.582,88.434c0.7-1.634,0.877,0.852,0.462,0.925C81.77,89.408,81.466,88.71,81.582,88.434z"/>
		<path d="M107.957,89.359c-0.056,1.178-0.671,1.795-1.847,1.85C106.651,90.524,106.506,89.144,107.957,89.359z"/>
		<path d="M111.197,89.824c0.963,0.258,0.982,0.721,0.461,1.387c-0.306,0-0.615,0-0.922,0
			C110.602,90.463,111.17,90.415,111.197,89.824z"/>
		<path d="M82.971,90.286c1.417,0.455-0.533,1.234-0.463,1.85C81.09,91.683,82.714,90.577,82.971,90.286z"/>
		<path d="M107.957,92.598c2.187-2.187-0.199,2.562-0.461,0.463C107.426,92.511,107.739,92.819,107.957,92.598z"/>
		<path d="M66.776,92.598c0.308,0,0.617,0,0.925,0c0,0.31,0,0.618,0,0.926c-0.31,0-0.618,0-0.925,0
			C66.776,93.215,66.776,92.908,66.776,92.598z"/>
		<path d="M85.746,94.451c0.666,0.105,0.16,1.381,0.925,1.387V96.3h0.462c-2.053,2.629-6.19,4.166-9.718,1.851
			c-1.356-4.397,4.002-5.964,7.866-4.165l-0.232,0.694L85.746,94.451z"/>
		<path d="M106.57,94.451c-0.197,0.569-0.591,0.949-1.382,0.924C104.963,94.388,105.841,94.494,106.57,94.451z"/>
		<path d="M68.624,95.837c0.826,0.339,0.066,0.843,0,1.388C67.802,96.887,68.558,96.385,68.624,95.837z"/>
		<path d="M75.567,97.69c-0.164,0.606-0.815,0.726-0.925,1.388C73.489,98.888,74.612,97.285,75.567,97.69z"/>
		<path d="M70.014,98.151c0.31,0,0.618,0,0.925,0c0.216,0.988-0.662,0.881-1.388,0.928C69.638,98.704,70.016,98.616,70.014,98.151z"
			/>
		<path d="M102.869,99.077C101.776,100.566,100.994,97.451,102.869,99.077L102.869,99.077z"/>
		<path d="M109.805,102.317c0.31,0,0.619,0,0.926,0c0,0.307,0,0.616,0,0.924c-0.307,0-0.616,0-0.926,0
			C109.805,102.933,109.805,102.624,109.805,102.317z"/>
		<path d="M107.496,107.409c-0.203,0.575-0.592,0.951-1.386,0.922C106.307,107.762,106.698,107.382,107.496,107.409z"/>
		<path d="M107.035,111.571c0.901-0.185,0.673,2.109-0.465,1.387c0-0.307,0-0.616,0-0.922
			C106.965,112.121,107.006,111.851,107.035,111.571z"/>
		<path d="M108.42,113.421c0.827,0.34,0.066,0.839,0,1.385C107.595,114.472,108.353,113.967,108.42,113.421z"/>
		<path d="M109.805,113.421c0.789-0.169,0.874,0.359,0.926,0.924c-0.395-0.085-0.436,0.183-0.461,0.461
			C109.728,114.732,109.88,113.967,109.805,113.421z"/>
		<path d="M107.496,116.198c-0.496,0.432-0.144,1.707-1.386,1.387C106.021,116.578,106.486,116.113,107.496,116.198z"/>
		<path d="M108.883,116.659c0.899-0.181,0.676,2.108-0.463,1.39c0-0.31,0-0.615,0-0.925
			C108.812,117.208,108.854,116.941,108.883,116.659z"/>
		<path d="M103.793,118.048c-0.201,0.568-0.592,0.951-1.385,0.924C102.605,118.406,102.996,118.027,103.793,118.048z"/>
		<path d="M104.718,119.439c0.787-0.17,0.872,0.357,0.926,0.925c-0.395-0.089-0.437,0.181-0.463,0.461
			C104.638,120.75,104.79,119.984,104.718,119.439z"/>
		<path d="M107.957,119.439c0.818-0.147,0.827,2.592-0.461,1.851C107.299,120.318,107.813,120.065,107.957,119.439z"/>
		<path d="M106.104,123.138C107.82,124.544,104.699,124.7,106.104,123.138L106.104,123.138z"/>
		<path d="M102.404,124.526c0.826,0.343,0.066,0.841,0,1.391C101.581,125.577,102.337,125.072,102.404,124.526z"/>
		<path d="M104.718,125.452c0.828,0.339,0.066,0.839,0,1.388C103.897,126.502,104.651,125.998,104.718,125.452z"/>
		<path d="M107.035,127.767c0.306,0,0.612,0,0.922,0c0,0.306,0,0.615,0,0.925c-0.31,0-0.616,0-0.922,0
			C107.035,128.382,107.035,128.073,107.035,127.767z"/>
		<path d="M102.404,128.692c0.311,0,0.616,0,0.926,0c0,0.307,0,0.616,0,0.926c-0.31,0-0.615,0-0.926,0
			C102.404,129.308,102.404,128.999,102.404,128.692z"/>
		<path d="M110.736,128.692C112.738,128.882,110.244,131.376,110.736,128.692L110.736,128.692z"/>
		<path d="M108.42,132.394c0.787-0.17,0.872,0.361,0.925,0.925c-0.395-0.084-0.437,0.181-0.462,0.461
			C108.341,133.707,108.491,132.936,108.42,132.394z"/>
		<path d="M103.793,133.319c0.085,1.011-0.378,1.47-1.385,1.385C102.898,134.274,102.552,132.999,103.793,133.319z"/>
		<path d="M106.57,135.17c0.903-0.185,0.673,2.104-0.46,1.386c0-0.306,0-0.615,0-0.922
			C106.499,135.719,106.543,135.45,106.57,135.17z"/>
		<path d="M100.553,136.556c1.547,0.42,0.404,1.04,0,1.849C99.171,138.105,100.994,137.418,100.553,136.556z"/>
		<path d="M109.805,136.556C111.929,136.866,109.435,139.358,109.805,136.556L109.805,136.556z"/>
		<path d="M103.793,137.946C106.499,138.56,102.117,140.13,103.793,137.946L103.793,137.946z"/>
		<path d="M107.957,139.336c0.308,0,0.617,0,0.926,0c0,0.31,0,0.615,0,0.921c-0.309,0-0.618,0-0.926,0
			C107.957,139.952,107.957,139.646,107.957,139.336z"/>
		<path d="M101.477,141.183C104.187,141.798,99.805,143.37,101.477,141.183L101.477,141.183z"/>
		<path d="M106.57,141.648c0.311,0,0.616,0,0.926,0c0.129,0.746-0.435,0.796-0.461,1.384c-0.31,0-0.619,0-0.925,0
			C105.975,142.29,106.543,142.241,106.57,141.648z"/>
		<path d="M105.18,144.884c-0.241,0.685-0.686,1.169-0.925,1.85C103.129,146.448,104.01,144.398,105.18,144.884z"/>
		<path d="M110.27,144.884c0.897-0.183,0.669,2.109-0.465,1.389c0-0.309,0-0.614,0-0.924
			C110.2,145.434,110.244,145.167,110.27,144.884z"/>
		<path d="M90.838,147.2c1.419,0.454-0.531,1.235-0.463,1.851C88.955,148.597,90.905,147.819,90.838,147.2z"/>
		<path d="M101.477,148.589C104.187,149.206,99.805,150.772,101.477,148.589L101.477,148.589z"/>
		<path d="M106.104,149.05c1.35-0.678,1.35,2.072,0,1.389C106.104,149.976,106.104,149.515,106.104,149.05z"/>
		<path d="M104.718,152.292c-0.403,0.675-0.692,1.464-1.849,1.386C102.727,152.46,103.505,152.161,104.718,152.292z"/>
		<path d="M108.42,167.562c1.4,0.563-0.328,1.77-0.463,2.312C106.559,169.306,108.285,168.108,108.42,167.562z"/>
		<path d="M106.104,170.333C108.814,170.954,104.432,172.524,106.104,170.333L106.104,170.333z"/>
		<path d="M108.883,171.724c1.349-0.678,1.349,2.068,0,1.387C108.883,172.65,108.883,172.185,108.883,171.724z"/>
		<path d="M105.18,172.185c0.308,0,0.614,0,0.924,0c0.125,0.748-0.436,0.8-0.461,1.39c-0.31,0-0.617,0-0.926,0
			C104.591,172.831,105.157,172.777,105.18,172.185z"/>
		<path d="M102.869,174.965c-0.239,0.682-0.686,1.165-0.926,1.851C100.493,176.7,101.156,174.509,102.869,174.965z"/>
		<path d="M106.104,174.965c0.465,0,0.925,0,1.383,0c0,0.31,0,0.615,0,0.925c-0.458,0-0.918,0-1.383,0
			C106.104,175.581,106.104,175.275,106.104,174.965z"/>
		<path d="M110.736,187.92c0.196,0.97-0.316,1.224-0.464,1.849C108.93,189.684,109.159,187.568,110.736,187.92z"/>
		<path d="M105.18,188.381c0.749,0.453,1.063,1.234,0.463,1.849C104.57,190.103,104.58,188.997,105.18,188.381z"/>
		<path d="M106.104,192.547c0.571,0.201,0.951,0.59,0.925,1.384c-0.748,0.131-0.802-0.433-1.386-0.459
			C105.73,193.096,106.108,193.011,106.104,192.547z"/>
		<path d="M111.197,192.547c0.307,0,0.616,0,0.924,0c0,0.306,0,0.615,0,0.925c-0.308,0-0.617,0-0.924,0
			C111.197,193.163,111.197,192.853,111.197,192.547z"/>
		<path d="M100.091,194.396c0.058,0.828-0.567,0.979-0.462,1.849C98.285,196.164,98.513,194.047,100.091,194.396z"/>
		<path d="M107.035,196.249c0.982-0.214,0.881,0.664,0.922,1.385c-0.372-0.085-0.457-0.459-0.922-0.459
			C107.035,196.865,107.035,196.558,107.035,196.249z"/>
		<path d="M112.121,197.174c-0.185-0.901,2.107-0.675,1.387,0.459c-0.307,0-0.616,0-0.924,0
			C112.669,197.243,112.401,197.2,112.121,197.174z"/>
		<path d="M102.404,198.097c0.311,0,0.616,0,0.926,0c0,0.311,0,0.616,0,0.926c-0.31,0-0.615,0-0.926,0
			C102.404,198.719,102.404,198.408,102.404,198.097z"/>
		<path d="M99.168,199.025C100.568,197.312,100.723,200.429,99.168,199.025L99.168,199.025z"/>
		<path d="M95.925,199.025c0.311,0,0.618,0,0.926,0c0.129,0.748-0.434,0.8-0.463,1.386c-0.308,0-0.615,0-0.922,0
			C95.332,199.667,95.901,199.615,95.925,199.025z"/>
		<path d="M107.496,200.411c0.747-0.125,0.796,0.438,1.387,0.465C109.064,201.775,106.775,201.554,107.496,200.411z"/>
		<path d="M91.3,200.875c0.31,0,0.616,0,0.926,0c0,0.614,0,1.233,0,1.849c-0.31,0-0.616,0-0.926,0
			C91.3,202.109,91.3,201.49,91.3,200.875z"/>
		<path d="M99.631,201.336c0.306,0,0.613,0,0.923,0c0,0.308,0,0.617,0,0.924c-0.31,0-0.617,0-0.923,0
			C99.631,201.954,99.631,201.644,99.631,201.336z"/>
		<path d="M102.869,202.262c-0.187-0.9,2.105-0.668,1.387,0.464c-0.311,0-0.618,0-0.922,0
			C103.419,202.335,103.149,202.292,102.869,202.262z"/>
		<path d="M114.899,201.799c0.31,0,0.615,0,0.923,0c0,0.31,0,0.615,0,0.925c-0.308,0-0.613,0-0.923,0
			C114.899,202.418,114.899,202.109,114.899,201.799z"/>
		<path d="M95.925,202.262c0.507,0.117,0.315,0.921,0.926,0.929c0.087,0.391-0.181,0.432-0.463,0.461c-0.308,0-0.615,0-0.922,0
			C95.332,202.902,95.901,202.855,95.925,202.262z"/>
		<path d="M92.688,204.117C91.594,205.602,90.815,202.491,92.688,204.117L92.688,204.117z"/>
		<path d="M108.883,204.117c0.158-0.561,1.229-0.377,1.388,0C110.69,205.116,108.576,205.183,108.883,204.117z"/>
		<path d="M100.553,204.577C101.957,202.867,102.111,205.982,100.553,204.577L100.553,204.577z"/>
		<path d="M96.387,204.577c0.376,0.089,0.463,0.465,0.926,0.465c-0.087,0.371-0.463,0.459-0.463,0.924
			c-0.374-0.089-0.461-0.465-0.926-0.465C96.015,205.126,96.389,205.042,96.387,204.577z"/>
		<path d="M93.149,206.429C92.057,207.917,91.278,204.802,93.149,206.429L93.149,206.429z"/>
		<path d="M101.016,206.892C102.418,205.18,102.572,208.297,101.016,206.892L101.016,206.892z"/>
		<path d="M104.256,207.353c0.308,0,0.615,0,0.925,0c0,0.31,0,0.616,0,0.926c-0.31,0-0.617,0-0.925,0
			C104.256,207.969,104.256,207.663,104.256,207.353z"/>
		<path d="M109.344,207.818c0.159-0.561,1.231-0.372,1.387,0C111.151,208.817,109.039,208.887,109.344,207.818z"/>
		<path d="M92.223,209.204c0.308,0,0.617,0,0.926,0c0,0.309,0,0.614,0,0.924c-0.309,0-0.618,0-0.926,0
			C92.223,209.818,92.223,209.512,92.223,209.204z"/>
		<path d="M110.736,209.667c0.307,0,0.616,0,0.922,0c0,0.307,0,0.616,0,0.926c-0.306,0-0.615,0-0.922,0
			C110.736,210.285,110.736,209.973,110.736,209.667z"/>
		<path d="M104.718,211.058c0.309,0,0.616,0,0.926,0c0,0.307,0,0.612,0,0.922c-0.31,0-0.617,0-0.926,0
			C104.718,211.67,104.718,211.365,104.718,211.058z"/>
		<path d="M119.524,186.531c-0.278,4.409,0.866,7.465,1.388,12.494l-0.693-0.232l-0.231,0.693
			c-2.369-3.646-2.766-9.265-4.624-13.416c-3.495-4.967-10.193-5.354-16.66-6.018l0.232-0.692l-0.693-0.232
			c3.897-1.811,8.92-1.298,13.416-0.461l0.463,0.229l0.463-0.229c2.243,2.389,4.374,4.878,6.94,6.946l-0.227,0.457L119.524,186.531z
			"/>
		<path d="M97.544,37.767l0.232-0.695c3.342,0.35,1.589,1.936,0.46,2.314c-0.044,0.016,0.039,0.419,0,0.463l-0.229,0.695
			l-0.694,0.232c-0.764-0.207-0.764-3.496,0-3.703L97.544,37.767z"/>
		<path d="M180.372,39.153l0.23-0.694c1.449-0.216,2.066,0.402,1.852,1.85l-0.693-0.232l0.232,0.694
			c-0.608,0.165-0.736,0.816-1.391,0.925l-0.23-0.695l-0.694,0.232c0-0.77,0-1.542,0-2.313L180.372,39.153z"/>
		<path d="M113.047,141.183v-0.926c0.656-0.038,1.309-0.073,1.386,0.465l0.232,0.461l0.232,0.465
			c-0.944,0.258-0.907,1.392-1.851,0.459V141.183z"/>
		<path d="M69.552,90.286c0.214-2.132,1.761-0.059,1.851-2.314c2.673,0.966,7.589-1.799,8.33,1.85
			c-0.234,2.85-2.509,3.662-4.629,4.627c1.276-1.83-3.773-0.816-4.164,0C72.042,93.799,71.517,90.503,69.552,90.286z"/>
		<path d="M101.942,131.003c-0.301,0.473-1.065,0.479-0.926,1.387C99.862,132.206,100.989,130.602,101.942,131.003z"/>
		<g>
			<path fill="none" stroke="#000000" stroke-width="0.4677" stroke-linecap="round" d="M141.042-78.375
				c-0.418-0.863-0.467-2.752,0.928-2.562C143.054-80.275,142.188-78.522,141.042-78.375"/>
			<path fill="none" stroke="#000000" stroke-width="0.3073" stroke-linecap="round" d="M140.115,59.514c0-0.462,0-0.924,0-1.387"/>
			<path fill="none" stroke="#000000" stroke-width="0.3101" stroke-linecap="round" d="M89.679,85.89
				c0.056-0.253,0.256-0.36,0.463-0.462"/>
			<path fill="none" stroke="#000000" stroke-width="0.3002" stroke-linecap="round" d="M86.673,96.3
				c0.456-0.317,0.883-0.659,1.619-0.695"/>
			<path fill="none" stroke="#000000" stroke-width="0.3002" stroke-linecap="round" d="M85.052,94.68
				c0.253-0.307,0.361-0.617,0.463-0.925"/>
			<path fill="none" stroke="#000000" stroke-width="0.2956" stroke-linecap="round" d="M100.321,94.68
				c0.689-0.234,0.99-1.133,1.85-0.925"/>
			<path fill="none" stroke="#000000" stroke-width="0.3289" stroke-linecap="round" d="M93.381,98.844
				c1.37-0.361,2.334-1.499,3.702-1.851"/>
			<path fill="none" stroke="#000000" stroke-width="0.3002" stroke-linecap="round" d="M75.799,100.234
				c0.252-0.057,0.359-0.258,0.46-0.463"/>
			<path fill="none" stroke="#000000" stroke-width="0.331" stroke-linecap="round" d="M84.358,139.336
				c0.99-0.446,2.122-1.055,2.546-2.083"/>
			<path fill="none" stroke="#000000" stroke-width="0.373" stroke-linecap="round" d="M85.052,142.338
				c0.717,0.307,1.486,0.176,2.176-0.134c0.337-0.504,0.945-1.053,1.063-1.715"/>
			<path fill="none" stroke="#000000" stroke-width="0.3026" stroke-linecap="round" d="M87.135,144.884
				c1.003-0.812,2.185-1.234,2.544-2.546"/>
			<path fill="none" stroke="#000000" stroke-width="0.3032" stroke-linecap="round" d="M91.067,145.117
				c-0.47,0.859-1.257,1.57-2.083,2.083"/>
			<path fill="none" stroke="#000000" stroke-width="0.3217" stroke-linecap="round" d="M114.204,150.207
				c0.102-0.008,0.195-0.019,0.303-0.026c0.357,0.24,0.476,0.592,0.59,0.97c-0.515,0.647-0.432,1.493-0.432,2.295"/>
			<path fill="none" stroke="#000000" stroke-width="0.3142" stroke-linecap="round" d="M92.456,156.221
				c0.068-1.113,0.901-2.227,0-3.236"/>
			<path fill="none" stroke="#000000" stroke-width="0.3857" stroke-linecap="round" d="M111.888,153.216
				c0.076,0.022,0.151,0.047,0.227,0.074c1.079,1.148,0.932,2.86,0.699,4.32"/>
			<path fill="none" stroke="#000000" stroke-width="0.298" stroke-linecap="round" d="M110.038,156.221
				c0.108,0.048,0.218,0.096,0.324,0.141c0.454,1.456-0.285,2.761-0.789,4.025"/>
			<path fill="none" stroke="#000000" stroke-width="0.3798" stroke-linecap="round" d="M98.47,157.611
				c-0.037,1.067-1.228,1.237-1.849,1.85"/>
			<path fill="none" stroke="#000000" stroke-width="0.3798" stroke-linecap="round" d="M94.306,170.565
				c0.59,0.232,1.678,0.391,1.847-0.461"/>
			<path fill="none" stroke="#000000" stroke-width="0.3387" stroke-linecap="round" d="M73.946,188.614
				c1.025-1.35,2.764-1.829,4.396-1.154"/>
			<path fill="none" stroke="#000000" stroke-width="0.3972" stroke-linecap="round" d="M73.716,191.622
				c0.936-0.575,1.813-1.456,3.006-1.386"/>
			<path fill="none" stroke="#000000" stroke-width="0.3404" stroke-linecap="round" d="M72.558,195.555
				c0.638-0.873,1.458-1.691,2.545-2.083"/>
			<path fill="none" stroke="#000000" stroke-width="0.4539" stroke-linecap="round" d="M77.185,197.866
				c-1.055,0.003-2.247-0.6-3.239,0"/>
			<path fill="none" stroke="#000000" stroke-width="0.4955" stroke-linecap="round" d="M123.688,207.125
				c-2.083-2.434-3.119-5.217-3.47-8.328"/>
			<path fill="none" stroke="#000000" stroke-width="0.6491" stroke-linecap="round" d="M58.755,181.747
				c-3.488,8.452-6.684,18.084-14.192,23.523"/>
			<path fill="none" stroke="#000000" stroke-width="0.3852" stroke-linecap="round" d="M40.631,187.227
				c-0.131,0.155-0.264,0.306-0.395,0.461c0.972,20.377-11.519,37.425-18.478,55.626c-3.434,7.871-6.572,16.259-10.972,23.731"/>
			<path fill="none" stroke="#000000" stroke-width="0.3818" stroke-linecap="round" d="M8.24,187.227
				c-1.685,9.682-4.841,18.021-9.148,26.479c-3.728,7.322-6.542,15.167-9.96,22.434c-3.805,8.085-11.311,15.223-14.419,25.118
				c0.487,1.198,1.528,1.987,2.304,2.935c10.797,1.807,21.47,4.27,32.379,5.169"/>
			<path fill="none" stroke="#000000" stroke-width="0.3893" stroke-linecap="round" d="M-70.883,206.66
				c25.529-8.696,51.521-18.094,79.124-19.433"/>
			<path fill="none" stroke="#000000" stroke-width="0.474" stroke-linecap="round" d="M8.24,187.227
				C7.741,149.596,3.103,111.7,5.077,74.09"/>
			<path fill="none" stroke="#000000" stroke-width="0.4553" stroke-linecap="round" d="M5.077,74.09
				c-0.062-0.076-0.125-0.151-0.19-0.227c-6.485-3.264-5.042-24.1-3.589-31.471"/>
			<path fill="none" stroke="#000000" stroke-width="0.533" stroke-linecap="round" d="M1.299,42.393
				c0.001-1.111,0.877-2.127,2.005-2.159"/>
			<path fill="none" stroke="#000000" stroke-width="0.4487" stroke-linecap="round" d="M3.304,40.236
				c1.298-2.411-0.223-5.397,1.021-7.774c0.431-0.2,0.979-0.275,1.347-0.356c11.686,1.149,23.111-0.71,34.726-0.583"/>
			<path fill="none" stroke="#000000" stroke-width="0.5171" stroke-linecap="round" d="M40.399,31.52
				c0.099-0.056,0.199-0.115,0.298-0.171c0.918-0.178,1.676,0.713,2.149,1.376c0.418,2.967,0.268,5.961,0.792,8.86"/>
			<path fill="none" stroke="#000000" stroke-width="0.4366" stroke-linecap="round" d="M43.639,41.583
				c15.35-0.258,30.925,1.761,46.041-1.042"/>
			<path fill="none" stroke="#000000" stroke-width="0.4113" stroke-linecap="round" d="M89.679,40.543
				c3.441-28.296-3.974-59.854,7.545-85.464c3.142-6.99,11.35-15.229,18.489-21.293c7.053-5.984,13.601-11.097,23.249-15.054"/>
			<path fill="none" stroke="#000000" stroke-width="0.4581" stroke-linecap="round" d="M138.963-81.27
				c0.505-0.497,1.319-0.704,1.448-1.499c5.033-2.15,5.446,7.787,0.176,7.167"/>
			<path fill="none" stroke="#000000" stroke-width="0.3953" stroke-linecap="round" d="M140.579-75.601
				c-0.053,0.133-0.106,0.265-0.158,0.396c-15.147,10.713-36.457,25.002-40.741,44.237c-1.207,5.419-1.465,12.609-1.851,19.429
				c-0.937,16.406,0.557,35.02-0.276,49.303"/>
			<path fill="none" stroke="#000000" stroke-width="0.4265" stroke-linecap="round" d="M98.008,40.543
				c13.852,0.439,28.3,0.748,42.107,0.924"/>
			<path fill="none" stroke="#000000" stroke-width="0.4422" stroke-linecap="round" d="M140.115,41.468
				c-0.05-10.202,5.39-11.544,18.259-10.461c8.354,0.702,16.276-0.604,18.994,0.513"/>
			<path fill="none" stroke="#000000" stroke-width="0.4788" stroke-linecap="round" d="M177.362,31.52
				c0.855,0.034,2.05-0.275,2.457,0.753c0.553,2.27-0.039,4.654,0.553,6.88"/>
			<path fill="none" stroke="#000000" stroke-width="0.3886" stroke-linecap="round" d="M179.677,72.702
				c-1.613,39.068-3.276,78.084-3.007,117.534"/>
			<path fill="none" stroke="#000000" stroke-width="0.4121" stroke-linecap="round" d="M176.671,190.23
				c3.188,1.084,6.465,0.986,9.692,1.849c0.135,0.105,0.212,0.275,0.286,0.436c0.007,0.225-0.276,0.619-0.571,1.021"/>
			<path fill="none" stroke="#000000" stroke-width="0.4333" stroke-linecap="round" d="M186.083,193.55
				c0.019,0.057,0.039,0.117,0.05,0.181c8.434,2.739,17.168,4.162,25.813,7.273c11.016,3.967,26.006,6.67,38.829,9.752
				c1.493,0.357,2.86,0.513,4.326,0.763"/>
			<path fill="none" stroke="#000000" stroke-width="0.4784" stroke-linecap="round" d="M178.06,73.396
				c-2.085,6.554-1.434,17.61-1.961,26.12c-1.456,23.367-0.232,47.021-2.409,69.658c-0.199,14.407-0.039,29.42-0.716,43.961"/>
			<path fill="none" stroke="#000000" stroke-width="0.3683" stroke-linecap="round" d="M172.044,216.375
				c-9.69,22.29-21.922,44.022-31.336,66.755c-13.604-1.261-27.013-5.569-40.196-8.537c11.063-29.293,38.556-52.119,36.981-85.669"
				/>
			<path fill="none" stroke="#000000" stroke-width="0.4353" stroke-linecap="round" d="M137.493,188.923
				c-6.156-0.764-12.312-1.687-18.207-2.855"/>
			<path fill="none" stroke="#000000" stroke-width="0.3245" stroke-linecap="round" d="M176.671,190.23
				c-0.017,3.354-1.311,7.079,0.127,10.277c0.275,0.357,0.671,0.576,1.015,0.771c4.208-0.859,4.079-6.808,8.266-7.742"/>
			<path fill="none" stroke="#000000" stroke-width="0.4082" stroke-linecap="round" d="M5.077,74.09
				c11.641,1.27,23.654,2.091,35.089,0.232"/>
			<path fill="none" stroke="#000000" stroke-width="0.4556" stroke-linecap="round" d="M40.17,74.323
				c0.905-0.684,1.633-1.897,3.007-1.621"/>
			<path fill="none" stroke="#000000" stroke-width="0.4504" stroke-linecap="round" d="M43.177,72.702
				c0.1-0.077,0.199-0.157,0.3-0.234c6.552-0.469,14.067,0.372,23.734,0.576c5.76,0.121,12.494-1.064,18.052-1.68
				c3.399-0.375,5.301-0.441,7.191,2.032"/>
			<path fill="none" stroke="#000000" stroke-width="0.4976" stroke-linecap="round" d="M92.456,73.396
				c2.479,0.591,5.267,0.677,7.403-0.925"/>
			<path fill="none" stroke="#000000" stroke-width="0.5749" stroke-linecap="round" d="M99.859,72.471
				c0.127-0.31,0.182-0.617,0.231-0.925"/>
			<path fill="none" stroke="#000000" stroke-width="0.4265" stroke-linecap="round" d="M99.859,72.471
				c1.531,2.892-0.972,6.012-0.118,9.022"/>
			<path fill="none" stroke="#000000" stroke-width="0.3789" stroke-linecap="round" d="M99.741,81.493
				c3.141-0.109,6.173,0.901,8.679,2.777"/>
			<path fill="none" stroke="#000000" stroke-width="0.4184" stroke-linecap="round" d="M108.42,84.271
				c3.94,1.308,6.715,5.37,5.475,9.64"/>
			<path fill="none" stroke="#000000" stroke-width="0.3543" stroke-linecap="round" d="M113.894,93.91
				c-0.656,15.563-2.008,31.921-0.848,47.273"/>
			<path fill="none" stroke="#000000" stroke-width="0.5806" stroke-linecap="round" d="M111.311,162.817
				c-0.221,5.287-0.573,10.813,0.81,16.082"/>
			<path fill="none" stroke="#000000" stroke-width="0.415" stroke-linecap="round" d="M137.493,188.923
				c1.271-17.546,2.085-43.095,2.87-61.844c0.762-18.323-0.689-36.48,1.142-53.684"/>
			<path fill="none" stroke="#000000" stroke-width="0.4903" stroke-linecap="round" d="M141.505,73.396
				c-0.247-0.553-0.618-1.24-1.001-1.533c-12.463-1.008-25.031-0.865-37.402-1.476"/>
			<path fill="none" stroke="#000000" stroke-width="0.4418" stroke-linecap="round" d="M141.505,73.396
				c11.915,2.065,24.679-1.814,36.554,0"/>
			<path fill="none" stroke="#000000" stroke-width="0.5661" stroke-linecap="round" d="M178.06,73.396
				c0.409-0.481,1.138-0.657,1.617-0.695"/>
			<path fill="none" stroke="#000000" stroke-width="0.4516" stroke-linecap="round" d="M179.677,72.702
				c4.052-3.673,2.127-11.627,2.195-18.021c0.046-4.417,1.24-10.034-0.112-14.601"/>
			<path fill="none" stroke="#000000" stroke-width="0.479" stroke-linecap="round" d="M138.963-81.27
				c-0.074,2-0.193,4.348,1.616,5.668"/>
			<path fill="none" stroke="#000000" stroke-width="0.4047" stroke-linecap="round" d="M89.679,40.543
				c1.456,3.239,7.254,3.73,8.33,0"/>
			<path fill="none" stroke="#000000" stroke-width="0.4887" stroke-linecap="round" d="M140.115,41.468
				c0.314,0.672,0.634,1.235,0.796,1.506c0.361,0.061,0.662,0.221,0.897,0.455c11.241-3.53,23.631,2.089,34.87-1.034"/>
			<path fill="none" stroke="#000000" stroke-width="0.4424" stroke-linecap="round" d="M3.846,42.51
				c12.113-0.083,24.563-0.097,36.324,0.348"/>
			<path fill="none" stroke="#000000" stroke-width="0.4105" stroke-linecap="round" d="M40.17,42.856
				c-0.905-3.732,0.155-7.55,0.23-11.336"/>
			<path fill="none" stroke="#000000" stroke-width="0.4633" stroke-linecap="round" d="M40.17,42.856
				c1.126-0.521,2.327-0.799,3.469-1.273"/>
			<path fill="none" stroke="#000000" stroke-width="0.4262" stroke-linecap="round" d="M177.362,31.52
				c-0.839,3.588-0.646,7.302-0.691,10.873"/>
			<path fill="none" stroke="#000000" stroke-width="0.4941" stroke-linecap="round" d="M176.671,42.393
				c1.289,0.485,3.259,0.062,3.701-1.388"/>
			<path fill="none" stroke="#000000" stroke-width="0.5272" stroke-linecap="round" d="M1.299,42.393
				c0.796,0.247,1.738,0.395,2.545,0.117"/>
			<path fill="none" stroke="#000000" stroke-width="0.4979" stroke-linecap="round" d="M3.846,42.51
				c0.044-0.944,0.072-1.491-0.54-2.274"/>
			<path fill="none" stroke="#000000" stroke-width="0.4146" stroke-linecap="round" d="M43.177,72.702
				c-0.658,35.926-0.505,71.571-1.388,107.35"/>
			<path fill="none" stroke="#000000" stroke-width="0.4626" stroke-linecap="round" d="M41.788,180.052
				c2.901,1.567,7.152-1.043,9.37,1.391"/>
			<path fill="none" stroke="#000000" stroke-width="0.5714" stroke-linecap="round" d="M51.158,181.443
				c2.557,0.792,5.176-1.472,7.597,0.304"/>
			<path fill="none" stroke="#000000" stroke-width="0.8246" stroke-linecap="round" d="M58.755,181.747
				c1.841-1.62,3.694-3.184,5.55-4.779"/>
			<path fill="none" stroke="#000000" stroke-width="0.4717" stroke-linecap="round" d="M64.305,176.967
				c-0.216-0.504-0.465-1.061-0.708-1.707c0.99-2.36,2.424-4.473,2.715-7.119"/>
			<path fill="none" stroke="#000000" stroke-width="0.4903" stroke-linecap="round" d="M66.313,168.135
				c-0.787-0.476-1.814-0.681-2.393-1.427"/>
			<path fill="none" stroke="#000000" stroke-width="0.4712" stroke-linecap="round" d="M40.17,74.323
				c0.052,0.155,0.107,0.308,0.163,0.462c-0.03,37.288-0.684,74.966,0.298,112.442"/>
			
				<line fill="none" stroke="#000000" stroke-width="1.2338" stroke-linecap="round" x1="40.631" y1="187.227" x2="40.631" y2="187.227"/>
			<path fill="none" stroke="#000000" stroke-width="0.3744" stroke-linecap="round" d="M40.631,187.227
				c2.006-1.865,0.242-4.896,1.158-7.175"/>
			<path fill="none" stroke="#000000" stroke-width="0.4206" stroke-linecap="round" d="M92.456,73.396
				c-0.82,2.593-0.542,5.56-0.695,8.328"/>
			<path fill="none" stroke="#000000" stroke-width="0.4761" stroke-linecap="round" d="M91.76,81.726
				c-0.411,2.952,1.165,7.341-1.73,8.999c-0.085,0.166-0.129,0.324-0.172,0.481c1.939,4.298,12.987,3.475,11.521-2.199
				c-0.391-0.124-1.3-0.056-1.973-0.178c-0.499-2.371,0.55-4.853,0.336-7.335"/>
			<path fill="none" stroke="#000000" stroke-width="0.4388" stroke-linecap="round" d="M91.76,81.726
				c-5.208,0.944-21.317,2.203-25.647,7.439c-1.587,1.92-2.404,5.504-0.033,7.829"/>
			<path fill="none" stroke="#000000" stroke-width="0.4508" stroke-linecap="round" d="M66.08,96.994
				c5.361,6.175,15.005,7.198,22.442,5.784"/>
			<path fill="none" stroke="#000000" stroke-width="0.4039" stroke-linecap="round" d="M88.522,102.778
				c-0.006-0.351,0.166-0.945,0.694-1.157"/>
			<path fill="none" stroke="#000000" stroke-width="0.3803" stroke-linecap="round" d="M88.522,102.778
				c9.106,0.766,19.146-2.389,25.372-8.868"/>
			<path fill="none" stroke="#000000" stroke-width="0.318" stroke-linecap="round" d="M108.42,84.271
				c-0.704,0.674-1.121,1.734-2.083,2.084"/>
			<path fill="none" stroke="#000000" stroke-width="0.5222" stroke-linecap="round" d="M77.648,160.852
				c2.066,0.596,4.312,1.062,6.478,0.461"/>
			<path fill="none" stroke="#000000" stroke-width="0.3764" stroke-linecap="round" d="M84.125,161.313
				c-0.448-1.142-0.875-2.644-2.313-2.778"/>
			<path fill="none" stroke="#000000" stroke-width="0.5389" stroke-linecap="round" d="M84.125,161.313
				c1.128-0.229,2.17-0.828,3.355-0.693"/>
			<path fill="none" stroke="#000000" stroke-width="0.4215" stroke-linecap="round" d="M87.482,160.62
				c-0.949-1.01-0.243-2.644-1.289-3.613c-0.523-0.096-1.353-0.081-1.836-0.088"/>
			<path fill="none" stroke="#000000" stroke-width="0.9302" stroke-linecap="round" d="M87.482,160.62
				c0.44,0.026,0.771-0.085,1.272-0.232"/>
			<path fill="none" stroke="#000000" stroke-width="0.6486" stroke-linecap="round" d="M88.755,160.387
				c0.154-0.31,0.31-0.615,0.462-0.925"/>
			<path fill="none" stroke="#000000" stroke-width="0.3467" stroke-linecap="round" d="M89.217,159.462
				c-0.297-1.416,0.635-3.599-1.157-4.395"/>
			<path fill="none" stroke="#000000" stroke-width="0.4179" stroke-linecap="round" d="M94.423,150.439
				c-0.122-6.29-2.697-13.201-8.444-16.427"/>
			<path fill="none" stroke="#000000" stroke-width="0.3255" stroke-linecap="round" d="M85.978,134.012
				c-1.101,1.941-3.086,3.685-5.245,4.471"/>
			<path fill="none" stroke="#000000" stroke-width="0.3633" stroke-linecap="round" d="M80.734,138.483
				c-0.079,0.248-0.422,0.731-0.503,1.063c2.139,3.417,5.083,6.614,5.978,10.66"/>
			<path fill="none" stroke="#000000" stroke-width="0.464" stroke-linecap="round" d="M94.423,150.439
				c0.667,0.777,2.315,0.488,2.548,1.849"/>
			<path fill="none" stroke="#000000" stroke-width="0.4008" stroke-linecap="round" d="M66.08,96.994
				c-3.13,15.967-0.944,31.974-1.734,48.355"/>
			<path fill="none" stroke="#000000" stroke-width="0.4903" stroke-linecap="round" d="M64.346,145.349
				c0.052,1.404,0.245,2.835,0.462,4.166"/>
			<path fill="none" stroke="#000000" stroke-width="0.52" stroke-linecap="round" d="M64.808,149.515
				c0.218,0.903,0.072,1.849,0.116,2.776"/>
			<path fill="none" stroke="#000000" stroke-width="0.4862" stroke-linecap="round" d="M64.925,152.292
				c0.693,1.028,0.4,2.304,0.463,3.469"/>
			<path fill="none" stroke="#000000" stroke-width="0.5127" stroke-linecap="round" d="M66.08,157.611
				c0.183,0.808,0.988,1.23,1.233,2.006"/>
			<path fill="none" stroke="#000000" stroke-width="0.5909" stroke-linecap="round" d="M67.316,159.617
				c2.638,2.197,5.938,0.83,8.944,1.696"/>
			<path fill="none" stroke="#000000" stroke-width="0.7489" stroke-linecap="round" d="M76.26,161.313
				c0.463,0.025,0.926-0.21,1.388-0.461"/>
			<path fill="none" stroke="#000000" stroke-width="0.3589" stroke-linecap="round" d="M77.648,160.852
				c2.951-6.409,10.329-8.948,16.775-10.413"/>
			<path fill="none" stroke="#000000" stroke-width="0.6881" stroke-linecap="round" d="M85.978,134.012
				c-0.151-0.492-0.214-0.771-0.33-1.026c-0.404-0.139-1.3-0.131-1.884-0.111c-1.226,1.455-4.328,3.604-3.03,5.608"/>
			<path fill="none" stroke="#000000" stroke-width="0.3914" stroke-linecap="round" d="M113.047,141.183
				c-1.663,1.566-1.073,3.894-0.483,5.777c-0.476,4.229-3.906,6.684-7.152,8.8"/>
			<path fill="none" stroke="#000000" stroke-width="0.3251" stroke-linecap="round" d="M105.411,155.76
				c0.31,1.044,1.051,1.692,1.781,2.393c-0.159,1.52-0.612,3.027-0.855,4.55"/>
			<path fill="none" stroke="#000000" stroke-width="0.4864" stroke-linecap="round" d="M105.411,155.76
				c-1.265,0.521-2.594,0.959-3.469,2.083"/>
			<path fill="none" stroke="#000000" stroke-width="0.3833" stroke-linecap="round" d="M101.942,157.843
				c0.412,1.449,1.957,2.734,1.153,4.394"/>
			<path fill="none" stroke="#000000" stroke-width="0.52" stroke-linecap="round" d="M101.942,157.843
				c-0.317-0.009-0.646,0.05-0.926,0.114"/>
			<path fill="none" stroke="#000000" stroke-width="0.4121" stroke-linecap="round" d="M101.016,157.958
				c0.181,2.024,0.652,3.927-0.118,5.899"/>
			<path fill="none" stroke="#000000" stroke-width="0.4747" stroke-linecap="round" d="M100.904,163.857
				c0.011,1.051-0.616,2.108-0.351,3.24"/>
			<path fill="none" stroke="#000000" stroke-width="0.4529" stroke-linecap="round" d="M100.553,167.097
				c4.064-0.431,6.778-3.609,10.758-4.28"/>
			<path fill="none" stroke="#000000" stroke-width="0.3588" stroke-linecap="round" d="M111.311,162.817
				c4.165-3.439,8.277-8.704,7.055-14.459"/>
			<path fill="none" stroke="#000000" stroke-width="0.4974" stroke-linecap="round" d="M118.37,148.358
				c-1.19-0.476-2.312-1.858-3.701-1.158"/>
			<path fill="none" stroke="#000000" stroke-width="0.4438" stroke-linecap="round" d="M118.37,148.358
				c0.557-1.626-0.166-3.497-1.388-4.627"/>
			<path fill="none" stroke="#000000" stroke-width="0.452" stroke-linecap="round" d="M116.98,143.731
				c-0.822,0.339-1.759,0.298-2.548,0.692"/>
			<path fill="none" stroke="#000000" stroke-width="0.4003" stroke-linecap="round" d="M116.98,143.731
				c-0.523-1.003-1.113-2.268-2.315-2.548"/>
			<path fill="none" stroke="#000000" stroke-width="0.3826" stroke-linecap="round" d="M59.835,163.396
				c0.328-0.133,0.719-0.203,1.023-0.369c0.61-2.559,2.537-4.833,5.222-5.408"/>
			<path fill="none" stroke="#000000" stroke-width="0.3467" stroke-linecap="round" d="M66.08,157.611
				c-0.45-0.844-0.558-1.428-0.695-1.851"/>
			<path fill="none" stroke="#000000" stroke-width="0.3764" stroke-linecap="round" d="M65.387,155.76
				c-2.094-0.409-4.94,0.07-5.783,2.315"/>
			<path fill="none" stroke="#000000" stroke-width="0.4148" stroke-linecap="round" d="M64.925,152.292
				c-1.5,0.35-3.406-0.538-4.628,0.925"/>
			<path fill="none" stroke="#000000" stroke-width="0.52" stroke-linecap="round" d="M64.808,149.515c-0.543,0-1.014,0-1.504,0"/>
			<path fill="none" stroke="#000000" stroke-width="0.4003" stroke-linecap="round" d="M64.346,145.349
				c-5.728,3.226-9.475,12.697-4.511,18.047"/>
			<path fill="none" stroke="#000000" stroke-width="0.4622" stroke-linecap="round" d="M93.106,159.739
				c0.893,0.546,1.698,1.024,2.128,2.039"/>
			<path fill="none" stroke="#000000" stroke-width="0.5672" stroke-linecap="round" d="M95.234,161.778
				c1.105,0.405,2.318,0.158,3.469,0.227"/>
			<path fill="none" stroke="#000000" stroke-width="0.4221" stroke-linecap="round" d="M101.016,157.958
				c-1.441-1.799-0.715-5.662-4.05-5.666"/>
			<path fill="none" stroke="#000000" stroke-width="0.3833" stroke-linecap="round" d="M96.97,152.292
				c-0.232,3.17-2.384,4.818-3.864,7.447"/>
			<path fill="none" stroke="#000000" stroke-width="0.4055" stroke-linecap="round" d="M59.835,163.396
				c1.165,1.22,2.363,2.802,4.088,3.318"/>
			<path fill="none" stroke="#000000" stroke-width="0.3737" stroke-linecap="round" d="M63.92,166.71
				c0.5-1.884,0.645-3.846,1.373-5.726c0.207-0.114,0.378-0.203,0.546-0.303c0.828,0.174,1.158-0.431,1.475-1.062"/>
			<path fill="none" stroke="#000000" stroke-width="0.4779" stroke-linecap="round" d="M88.755,160.387
				c0.652,0.424,1.017,0.587,1.384,0.669c0.863-0.49,1.936-0.426,2.55-1.369"/>
			<path fill="none" stroke="#000000" stroke-width="0.5322" stroke-linecap="round" d="M92.688,159.694
				c-0.815-1.349-2.402-0.954-3.472-0.231"/>
			<path fill="none" stroke="#000000" stroke-width="0.5295" stroke-linecap="round" d="M66.313,168.135
				c0.317-0.077,0.608-0.12,0.848-0.197"/>
			<path fill="none" stroke="#000000" stroke-width="0.3608" stroke-linecap="round" d="M67.161,167.946
				c0.411-1.87,0.197-3.871,1.463-5.476"/>
			<path fill="none" stroke="#000000" stroke-width="0.5258" stroke-linecap="round" d="M67.161,167.946
				c1.018,0.885,2.409,0.258,3.546,0.771"/>
			<path fill="none" stroke="#000000" stroke-width="0.3732" stroke-linecap="round" d="M70.707,168.716
				c-0.276-1.862-0.07-3.735,0.463-5.549"/>
			<path fill="none" stroke="#000000" stroke-width="0.5835" stroke-linecap="round" d="M70.707,168.716
				c0.608,0.729,1.508,0.611,2.313,0.925"/>
			<path fill="none" stroke="#000000" stroke-width="0.5295" stroke-linecap="round" d="M73.021,169.641
				c0.612-0.249,1.22-0.523,1.851-0.693"/>
			<path fill="none" stroke="#000000" stroke-width="0.3677" stroke-linecap="round" d="M76.26,161.313
				c-1.019,2.359-2.026,4.951-1.386,7.635"/>
			<path fill="none" stroke="#000000" stroke-width="0.52" stroke-linecap="round" d="M76.722,168.948c0.583,0,1.274,0,2.085,0"/>
			<path fill="none" stroke="#000000" stroke-width="0.6933" stroke-linecap="round" d="M78.807,168.948
				c0.077-0.077,0.155-0.154,0.232-0.231"/>
			<path fill="none" stroke="#000000" stroke-width="0.3718" stroke-linecap="round" d="M79.038,168.716
				c-0.962-1.606,0.35-3.403,0-5.088"/>
			<path fill="none" stroke="#000000" stroke-width="0.4279" stroke-linecap="round" d="M79.038,168.716
				c1.565,0.397,3.279-0.749,4.511-1.619"/>
			<path fill="none" stroke="#000000" stroke-width="0.5226" stroke-linecap="round" d="M83.549,167.097
				c-0.214-0.825-0.07-1.692-0.114-2.544"/>
			<path fill="none" stroke="#000000" stroke-width="0.4138" stroke-linecap="round" d="M83.549,167.097
				c1.865,0.409,2.765-1.611,4.435-1.928"/>
			<path fill="none" stroke="#000000" stroke-width="0.4166" stroke-linecap="round" d="M94.539,164.089
				c0.1-0.789,0.121-1.69,0.693-2.312"/>
			<path fill="none" stroke="#000000" stroke-width="0.9957" stroke-linecap="round" d="M93.106,159.739
				c-0.129-0.028-0.274-0.039-0.418-0.045"/>
			<path fill="none" stroke="#000000" stroke-width="0.8838" stroke-linecap="round" d="M78.706,176.65
				c0.142-0.105,0.236-0.199,0.332-0.299"/>
			<path fill="none" stroke="#000000" stroke-width="0.3467" stroke-linecap="round" d="M79.038,176.351
				c0.857-2.006,3.036-3.524,3.239-5.781"/>
			<path fill="none" stroke="#000000" stroke-width="0.6087" stroke-linecap="round" d="M82.507,176.463
				c0.428-0.007,0.776-0.267,1.158-0.812"/>
			<path fill="none" stroke="#000000" stroke-width="0.4131" stroke-linecap="round" d="M83.665,175.658
				c0.767-1.78,1.72-3.521,1.618-5.552"/>
			<path fill="none" stroke="#000000" stroke-width="0.4082" stroke-linecap="round" d="M83.665,175.658
				c1.755,0.222,3.726-0.719,5.088-1.847"/>
			<path fill="none" stroke="#000000" stroke-width="0.3829" stroke-linecap="round" d="M88.755,173.807
				c-1.803-1.784,0.871-4.094-0.463-6.021"/>
			<path fill="none" stroke="#000000" stroke-width="0.7489" stroke-linecap="round" d="M88.755,173.807c0.154,0,0.31,0,0.462,0"/>
			<path fill="none" stroke="#000000" stroke-width="0.452" stroke-linecap="round" d="M89.217,173.807
				c0.745-0.179,0.815-1.211,1.621-1.157"/>
			<path fill="none" stroke="#000000" stroke-width="0.3754" stroke-linecap="round" d="M90.838,172.65
				c0.835-2.135,2.459-3.871,3.353-6.019"/>
			<path fill="none" stroke="#000000" stroke-width="0.4823" stroke-linecap="round" d="M94.539,164.089
				c-1.296,0.493-2.008-0.564-2.986-1.11c-1.016,0.515-2.243,0.177-3.198,0.745c-0.255,0.586-0.271,1.099-0.376,1.452"/>
			<path fill="none" stroke="#000000" stroke-width="0.3524" stroke-linecap="round" d="M87.982,165.169
				c0.846,1.067,2.775,1.169,3.085,2.621"/>
			<path fill="none" stroke="#000000" stroke-width="0.3552" stroke-linecap="round" d="M78.807,168.948
				c-0.319,1.814-0.052,3.916-1.853,5.086"/>
			<path fill="none" stroke="#000000" stroke-width="0.5749" stroke-linecap="round" d="M77.34,179.514
				c0.393,0.513,0.488,1.062,0.654,1.464"/>
			<path fill="none" stroke="#000000" stroke-width="0.4419" stroke-linecap="round" d="M77.994,180.978
				c1.063,0.297,2.144-0.542,3.125,0"/>
			<path fill="none" stroke="#000000" stroke-width="0.452" stroke-linecap="round" d="M77.994,180.978
				c-0.076,0.313-0.489,0.793-0.809,1.156"/>
			<path fill="none" stroke="#000000" stroke-width="0.3953" stroke-linecap="round" d="M75.545,179.655
				c-0.729,2.064-1.687,3.893-2.293,5.95"/>
			<path fill="none" stroke="#000000" stroke-width="0.4246" stroke-linecap="round" d="M73.253,185.605
				c2.505-0.203,5.35-2.535,8.098-0.461"/>
			<path fill="none" stroke="#000000" stroke-width="0.3919" stroke-linecap="round" d="M81.351,185.144
				c1.81-1.659,1.858-5.021,4.511-5.902"/>
			<path fill="none" stroke="#000000" stroke-width="0.52" stroke-linecap="round" d="M85.862,179.242
				c0.298-0.644,0.444-1.362,0.811-1.965"/>
			<path fill="none" stroke="#000000" stroke-width="0.7164" stroke-linecap="round" d="M85.862,179.242
				c3.895,2.312,8.854,0.796,13.073,0.118"/>
			<path fill="none" stroke="#000000" stroke-width="0.293" stroke-linecap="round" d="M90.838,172.65
				c0.453,0.316,0.883,0.66,1.618,0.692"/>
			<path fill="none" stroke="#000000" stroke-width="0.4037" stroke-linecap="round" d="M89.217,173.807
				c0.087,0.149,0.176,0.301,0.262,0.448c5.372,2.704,9.295-3.036,11.077-7.16"/>
			<path fill="none" stroke="#000000" stroke-width="0.4193" stroke-linecap="round" d="M100.904,163.857
				c-2.313,0.258-4.004,1.198-6.363,0.232"/>
			
				<line fill="none" stroke="#000000" stroke-width="0.5481" stroke-linecap="round" x1="94.539" y1="164.089" x2="94.539" y2="164.089"/>
			<path fill="none" stroke="#000000" stroke-width="0.4651" stroke-linecap="round" d="M94.539,164.089
				c0.274,0.904-0.553,1.691-0.354,2.547"/>
			<path fill="none" stroke="#000000" stroke-width="0.3383" stroke-linecap="round" d="M94.19,166.633
				c0.947,0.117,1.755,0.52,2.646,0.814c0.743-0.033,0.949-0.962,1.633-1.044"/>
			<path fill="none" stroke="#000000" stroke-width="0.8396" stroke-linecap="round" d="M64.305,176.967
				c3.845-0.268,7.602,1.411,11.239,2.688"/>
			<path fill="none" stroke="#000000" stroke-width="1.0157" stroke-linecap="round" d="M75.545,179.655
				c0.427-0.041,1.052-0.074,1.641-0.181"/>
			<path fill="none" stroke="#000000" stroke-width="0.572" stroke-linecap="round" d="M77.185,179.474
				c-0.118-1.225,1.054-1.848,1.521-2.824"/>
			<path fill="none" stroke="#000000" stroke-width="0.3721" stroke-linecap="round" d="M78.706,176.65
				c-1.854-0.81-4.492-1.578-4.527-4"/>
			<path fill="none" stroke="#000000" stroke-width="0.4028" stroke-linecap="round" d="M74.178,172.65
				c-0.97-0.689-1.241-1.888-1.158-3.009"/>
			<path fill="none" stroke="#000000" stroke-width="0.3467" stroke-linecap="round" d="M74.178,172.65
				c1.775-0.141,2.804-2.031,2.544-3.702"/>
			<path fill="none" stroke="#000000" stroke-width="0.5159" stroke-linecap="round" d="M76.722,168.948c-0.618,0-1.231,0-1.849,0"
				/>
			<path fill="none" stroke="#000000" stroke-width="1.0107" stroke-linecap="round" d="M77.185,179.474
				c0.051,0.015,0.103,0.025,0.155,0.04"/>
			<path fill="none" stroke="#000000" stroke-width="0.4246" stroke-linecap="round" d="M77.34,179.514
				c1.506-0.413,2.923-0.973,4.422-1.342c0.468-0.417,0.595-1.121,0.745-1.703"/>
			<path fill="none" stroke="#000000" stroke-width="0.52" stroke-linecap="round" d="M82.507,176.463
				c-1.136-0.232-2.319-0.061-3.469-0.119"/>
			<path fill="none" stroke="#000000" stroke-width="0.4111" stroke-linecap="round" d="M40.631,187.227
				c1.771,1.231,0.03,4.8,2.677,4.859c3.091-3.034,4.347-7.86,7.849-10.644"/>
			<path fill="none" stroke="#000000" stroke-width="0.3841" stroke-linecap="round" d="M73.253,185.605
				c-1.574,4.85-5.495,13.573-0.925,17.007"/>
			<path fill="none" stroke="#000000" stroke-width="0.5103" stroke-linecap="round" d="M72.326,202.612
				c0.076-0.816,0.583-1.431,1.158-1.969"/>
			<path fill="none" stroke="#000000" stroke-width="0.4102" stroke-linecap="round" d="M72.326,202.612
				c1.465,1.611,3.694,1.877,5.775,2.406c1.191-0.213,1.801-1.459,2.072-2.519c-1.971-5.782-0.426-11.805,1.178-17.355"/>
			<path fill="none" stroke="#000000" stroke-width="0.4853" stroke-linecap="round" d="M73.484,200.643
				c1.073,0.043,1.106,1.354,1.926,1.601c1.167,0.007,1.908-1.578,1.455-2.596c-0.915-0.288-1.967-0.232-2.867,0.121
				C73.815,199.954,73.675,200.294,73.484,200.643"/>
			<path fill="none" stroke="#000000" stroke-width="0.3305" stroke-linecap="round" d="M88.29,97.918
				c0.75-0.017,1.19-0.755,1.851-0.925"/>
			<path fill="none" stroke="#000000" stroke-width="0.2959" stroke-linecap="round" d="M83.665,101.624
				c0.136-0.298,0.571-0.563,0.923-0.925"/>
			<path fill="none" stroke="#000000" stroke-width="0.3087" stroke-linecap="round" d="M92.919,127.07
				c3.157-6.418,7.489-12.498,9.716-19.433"/>
			<path fill="none" stroke="#000000" stroke-width="0.314" stroke-linecap="round" d="M73.484,122.906
				c2.798-4.681,6.059-9.125,7.866-14.351"/>
		</g>
	</g>
</g>
</svg>
