<?xml version="1.0" encoding="utf-8"?>
<!-- Generator: Adobe Illustrator 15.0.2, SVG Export Plug-In . SVG Version: 6.00 Build 0)  -->
<!DOCTYPE svg PUBLIC "-//W3C//DTD SVG 1.1//EN" "http://www.w3.org/Graphics/SVG/1.1/DTD/svg11.dtd">
<svg version="1.1" id="Layer_1" xmlns="http://www.w3.org/2000/svg" xmlns:xlink="http://www.w3.org/1999/xlink" x="0px" y="0px"
	 width="309.297px" height="76.2px" viewBox="0 0 309.297 76.2" enable-background="new 0 0 309.297 76.2" xml:space="preserve">
<metadata><?xpacket begin="﻿" id="W5M0MpCehiHzreSzNTczkc9d"?>
<x:xmpmeta xmlns:x="adobe:ns:meta/" x:xmptk="Adobe XMP Core 5.0-c060 61.134777, 2010/02/12-17:32:00        ">
   <rdf:RDF xmlns:rdf="http://www.w3.org/1999/02/22-rdf-syntax-ns#">
      <rdf:Description rdf:about=""
            xmlns:dc="http://purl.org/dc/elements/1.1/">
         <dc:format>image/svg+xml</dc:format>
         <dc:title>
            <rdf:Alt>
               <rdf:li xml:lang="x-default">bettercare-logo_as-outlines</rdf:li>
            </rdf:Alt>
         </dc:title>
      </rdf:Description>
      <rdf:Description rdf:about=""
            xmlns:xmp="http://ns.adobe.com/xap/1.0/"
            xmlns:xmpGImg="http://ns.adobe.com/xap/1.0/g/img/">
         <xmp:MetadataDate>2014-08-04T13:40:19+02:00</xmp:MetadataDate>
         <xmp:ModifyDate>2014-08-04T13:40:19+02:00</xmp:ModifyDate>
         <xmp:CreateDate>2014-08-04T13:40:19+02:00</xmp:CreateDate>
         <xmp:CreatorTool>Adobe Illustrator CS5</xmp:CreatorTool>
         <xmp:Thumbnails>
            <rdf:Alt>
               <rdf:li rdf:parseType="Resource">
                  <xmpGImg:width>256</xmpGImg:width>
                  <xmpGImg:height>64</xmpGImg:height>
                  <xmpGImg:format>JPEG</xmpGImg:format>
                  <xmpGImg:image>/9j/4AAQSkZJRgABAgEASABIAAD/7QAsUGhvdG9zaG9wIDMuMAA4QklNA+0AAAAAABAASAAAAAEA&#xA;AQBIAAAAAQAB/+4ADkFkb2JlAGTAAAAAAf/bAIQABgQEBAUEBgUFBgkGBQYJCwgGBggLDAoKCwoK&#xA;DBAMDAwMDAwQDA4PEA8ODBMTFBQTExwbGxscHx8fHx8fHx8fHwEHBwcNDA0YEBAYGhURFRofHx8f&#xA;Hx8fHx8fHx8fHx8fHx8fHx8fHx8fHx8fHx8fHx8fHx8fHx8fHx8fHx8fHx8f/8AAEQgAQAEAAwER&#xA;AAIRAQMRAf/EAaIAAAAHAQEBAQEAAAAAAAAAAAQFAwIGAQAHCAkKCwEAAgIDAQEBAQEAAAAAAAAA&#xA;AQACAwQFBgcICQoLEAACAQMDAgQCBgcDBAIGAnMBAgMRBAAFIRIxQVEGE2EicYEUMpGhBxWxQiPB&#xA;UtHhMxZi8CRygvElQzRTkqKyY3PCNUQnk6OzNhdUZHTD0uIIJoMJChgZhJRFRqS0VtNVKBry4/PE&#xA;1OT0ZXWFlaW1xdXl9WZ2hpamtsbW5vY3R1dnd4eXp7fH1+f3OEhYaHiImKi4yNjo+Ck5SVlpeYmZ&#xA;qbnJ2en5KjpKWmp6ipqqusra6voRAAICAQIDBQUEBQYECAMDbQEAAhEDBCESMUEFURNhIgZxgZEy&#xA;obHwFMHR4SNCFVJicvEzJDRDghaSUyWiY7LCB3PSNeJEgxdUkwgJChgZJjZFGidkdFU38qOzwygp&#xA;0+PzhJSktMTU5PRldYWVpbXF1eX1RlZmdoaWprbG1ub2R1dnd4eXp7fH1+f3OEhYaHiImKi4yNjo&#xA;+DlJWWl5iZmpucnZ6fkqOkpaanqKmqq6ytrq+v/aAAwDAQACEQMRAD8A7x+bN99V8mXEYNGu5YoA&#xA;f9l6h/4WM5n9mw4sw8t3D10qxnzYR+S9j63mO5u2FVtbchT4PKwA/wCFDZsu1p1jA7y4XZ8bmT3B&#xA;7RnPO5dirsVdirsVdiqF1DVtL06P1L+7itUPQyuqV+VTv9GThilP6QSwlOMeZpZpGtabrFq11p03&#xA;r26uY/U4soLLStOQBPXrhy4pYzUhRXHkjMWEaSFBJNANyT0Aytmk583+Wv0hDp8eoRTXk7+nHDCT&#xA;KeXuU5Kv0nMj8rk4TKtg0+PC6vdOMx252KuxV2KuxV2KuxV2KuxV2KuxV2KuxV2KuxV2KuxV2Kux&#xA;V2KvLPzwvvg0uwU9TJPIPlRE/W2brsiH1S+Dq+0pcgh/y11rRfLflu81TU5fTe8uPThhUcpJFgQH&#xA;4V8KyHc7ZPX4p5sgjHoPvY6PJHHAyl1KbR/nZoJn4vY3Kw1/vP3Zb6V5fxyg9kTrmG4dowvkWd6Z&#xA;qlhqljFfWMwmtphVHH4gg7gjuDmsyY5QlwyFFzoTEhY5Il3REZ3YKigszMaAAbkknIAWyYRq/wCb&#xA;3lexmaG2EuoOuxeEAR1H+WxFfoBGbHF2XlkLPpcLJr4R2G63SPzg8tX1wsFzHLYM5CrLLxaKp2HJ&#xA;lNV+ZFMOXsvJEWKkjHr4SNHZlusaxZ6Tpc2p3RP1aABnKAMTyYKKbjqWzBxYjOQiOZcvJkEI8R5P&#xA;C/zD80WnmLW47uzDrawwLEgkAVqhmZjQE/zZ0mh05xQo87dJq8wySscmW+R/zE8taP5fstKkjuXu&#xA;1Lep6cakM8khIoSw7EDMHWaHJkyGQqnK02rhCAjvab/mB5+0mztdV0BRKdSaAw1Cj0x6yA/arX7D&#xA;+GUaLRSkYz24b+5u1WqiAYdXmPkjV9O0fzJbalqAdoLcSECNQzcmQoNiR/Nm51mKWTGYx5l1mmyC&#xA;ExIvcfLPm3S/McM82nrKqW7BHMqhalhXahbOb1GmliIEq3d3hzxyDZf5g82aFoEQfUrkJI4rHAo5&#xA;St8lHb3O2DBpp5T6QnLnjj+osQb87dD9Wi6fcmL+cmMNT/V5Efjmf/JE65hw/wCUY9xZf5c81aN5&#xA;htmn06UsY6CaFxxkQnpyXfr4jbMDPpp4jUnMxZ45BYW+ZvNel+XLeGfUBIUncogiUMagVNalcOn0&#xA;0spIj0RmzxxiyhLb8wPLk2hSa28j29lHKYB6qgO8gUNRFUty+1k5aLIJ8HMsBqoGPF0UfKn5g2Pm&#xA;XUp7OztJoo4IzL60pXf4goHFS1Ca+PbJanRSwxBJG6MGqGSRADKswnKYh5h/NXyfokzW8lw15dIa&#xA;PBaKJCp8GclU+jlXFUgi/Pvy8ZaSaddpF2dfTY/8DyX9eKvSLK6ju7OC7jDLHcRpKiuKMFdQwDDs&#xA;d8VSbzH568seXjw1K8C3JFRaxgySkHpVV+zX/KpirDpvz80BXpDpt06fzOY0P3Bn/Xiqb+Xfze8t&#xA;63qMGnRwXVvd3DcIhIilCaV+0jMfvGKsn8xeYLDQNKl1O/5m2iKqwjAZquwUUBI8cVSjQvzJ8s6x&#xA;aX95E8lta6aqPdzXKqigScuNKMxJPA7YqgND/NnRtc8xwaNp1pcOJi9Lp+KKBGjOW41Jp8PfFWXa&#xA;nqunaXZveahcJbWsf2pZDQV7AdyT2A3xV5/f/nv5ZhlKWlpdXSg09WiRqfdeRLfeBiqd+VPzQ8s+&#xA;Y7kWcLSWl832Le4AHOgqeDKWU/LY+2KvOfzcv/rPnGWEGq2cMUI8Kkeof+TmdL2ZCsV95dHr5Xk9&#xA;yN8hflsddtE1LVpZI9P3W1hQ0aQAmpqa8V5V7b5Xrdf4Z4Y/V1Z6XScY4pclL8yfINj5ehtr7Tmf&#xA;6pM/oyRyHkVfiWXiaDYhT1w6DWyykxlzCNZpRjAI5Jx+SF/Ny1PT2JMIEc6L2DGqN/wQ4/dlHa8B&#xA;6ZfBu7OlzCE/NvzhNcXreX7OQra29DelT/eSdQhp+yn6/lk+zNKBHxDzPJhrtQSeAcuqZ+Tfym0x&#xA;tNivdeR5ri4UOtoGaNI1bdeRQqxanXfbplOq7TlxVDYDq26fQxq5sK/MTRtD0jzC1po71hEatNDy&#xA;LiKQkgpyNT0AO+bHQ5Z5MdzcLV44wnUXp3ljSo/Mf5cadZao8ojkSjGNgrFIZWEW5DbcUXNNqMnh&#xA;aiUo/iw7PDDxMIEnjGpWkC61c2liGaBbh4bbmasVDlUqRTc50OOR4AZc6dNOI4iB3vZrD8pPK9pc&#xA;29yr3LzW7pIA0i8SyENuOPQkZz8+08sgRtu7iOhgCDuxf83vLmk2HDVY3lbUdRuD6gdgUCKm/FQA&#xA;dvhHXMzsvPKXp/hiHG1+KMfV1JS78tfI2m+Y4L641EyrFA0ccPpMFqxBL1qG6Djluv1ksRAj1a9H&#xA;po5ASXoUsGjfl/5WvJrMO68y8aSsGZ5nARVqAvw/DX5VzVgz1WUA/gOwIjggSHlnlzQ9U87+Y5ZL&#xA;y4bj/fX10dyq1oqoOgJ6KOw+WbrPmjp8ew9wdXhxyzT3PvZz5r/LvyTpfli7uVRre5giZoLl5nLP&#xA;KBVEKk8DzbbZc1um12aeQDmCe5zc+kxRgTyLDvylnuY/OlvHET6c0UyXAB24BCwr/s1XM/tMA4Tf&#xA;k4mhJ8QMg/PG6Bl0m1B3VZpXH+sUVf8AiJzF7IjtI+5v7Sl9IYf5W8t615pmj0+3kEdlZ8nklcfu&#xA;4/UO5oPtO3Gn0eAzP1GeGEcR5lxMOGWXYcg9g8l+RLTyv9ZaK5e6luggZ3UIFCcj8IBPXl45odXr&#xA;DmqxVO30+mGK97tiH5x+f7mxb/DmlyGKeRA2oTrsyo4qsSntyG7e1PfMNyWJ/l5+Vtx5li/SN9K1&#xA;ppIYqhQD1ZiNjwrUKoP7RB8MVehyfkj5LZFCfWY2Ug8/VBrTqCCpG+Kq/wCaPnpvLGlx2tgVGq3o&#xA;IgNARFGuxkp49l/sxV5P5H8jap5y1GaeeZ47KNq3t8/xuztvwWv2nPcnp9wKrNvPf5b+TPL3k68v&#xA;reCRr2IRpBNJK5Jd3C1KgqnQk9MVYt+Sun/WvO0c5FVsYJZ69qsBEP8Ak5irPvz0uxF5RggB+K5u&#xA;0FP8lEdifvAxV495b0rXNeuBoOmCq3DrNODsg9MFRJIf5UDmnz8cVe0+SvytsvKl+dWm1A3M6Quj&#xA;VQRxpyoWbqx2AOKvLvNvmTVvPPmmO0s+TWpl9DTLWtFoTT1G92+0x7D5Yq9N0r8l/J1npwXU0e9u&#xA;uNZrlpXiVTTcoqMoCj/KrirxTUPR07zHP+hp2litLpvqFwDViI5P3bAjr0G464qnHmG6fVPM1/PH&#xA;8RubpxEPYvxQfdTOuwR4MYHcHnMp4pk95fRmn2UNjYW9lCKRW0aRJ8kUD+GcnOZlIk9XoYR4QAOj&#xA;zf8AO7VIha6dpSsDKztdSL3CqCiE/Pk33Zt+yMZuUvg67tGewj8W/wAkdNdbbUtSYfDKyW8R/wBQ&#xA;Fn/4muPa+TeMfivZ0NjJ5hK93qmqu6qZbu+nJVRuzSSvsB7lmzcgCEfIB1puUvMspOgfmvdj0ZP0&#xA;jIp6rLcsF32/bkAzC8bSx39Py/Y5PhZz/O+aZ6D+TWrzzJJrUyWtuDV4YmEkze1R8C/OpynN2rAC&#xA;oCz9jbi7PkT6tnqV29to2gzvAgit9PtnaJB0CxISB+GaWIOSYvnIuzlUIbdA8E8j2TX/AJw0uE1b&#xA;/SFmeu9RFWU1+fDOn1k+HFI+X7HRaaPFkHvfRecm9C8e/O2+9TWdPsQdreBpT85np+qIZv8AsiFQ&#xA;Mu8/c6jtGXqA8mW/lHY/VvJ0UpFDeTSzGvgD6Q/5N5gdpzvNXcHL0Eax+9JPzwu5FtdJtAf3cjzS&#xA;uPeMKq/8nGzJ7IjvI+5o7SltEME8u6d51lt5bjy+LxYGf05ntZGjBdBWjcWWtA/45ss88INZKvzc&#xA;HFDIRcL+Cap+XX5hatKrXsbj/i68nDUr7cnf8MpOuwQG32Bt/KZpc/tL0nyN5AtPLKyXDy/WtRmX&#xA;g81OKolalEHXc9SetO2ajWa05tuUQ7LTaUY9+Zeb/m7ffWfOMkINRZwxQ07VIMp/5OZtuzIVivvL&#xA;rtfK8nuelflnpCad5QszxpNej61K3j6n2P8AhOOajtDLx5T5bOx0ePhxjz3ZVmE5T5V813sl95m1&#xA;S7kJLS3UpFeyhyFH0KAMVfT+k6dDpul2mnwALFaxJEoH+SKV+nriqLxV82fmpqcl/wCedSLElLVh&#xA;axKf2ViFCB835H6cVe5+QNIh0ryhpltGvF3gSec9zJMObV+XKnyGKsL/AD61iOPStP0hW/fXEpuZ&#xA;FHURxKVWvszP/wALiqG/IHT6RavqLD7TRW8Z8OIZ3/4kuKob8/tQ5Xuk6eD/AHcclw48fUYIv/Jt&#xA;sVTn8itFjt9AutWZf397MY0b/iqEU2+blq/IYqyf8y717LyLrEyEhmhENR4TusR/B8VfPPl6x8wX&#xA;eoj9ArOdQhRpFa2YpIqbIzBgVI+3T6cUsmfyV+bOr/u7yK9mj6H63c/CKe0kmKGY+R/yYOnX0Op6&#xA;9NHNLAwkgsoasgdd1aRyByof2QKe5xV5tC1xpeqo8kdLixnBeJtvjiepU/SudkanHyIeaFxl7i9f&#xA;uvzm8tpZerbwXEt2V+G3ZQgDeDPU7fKuaGPZWS6JFO2l2hCtrt5qkPmDzt5kd1X1Lq4artuIoYxs&#xA;Knfiqj6T7nNuTj0+PyH2uuAnmn5vetB0a10XSbbTbbeK3Whc7FmO7MfdmNc5nNlOSRkervMWMQiI&#xA;h8/a7pl55b8yy24rHJaTCW0k8UDconH4fTnUYcgy477xv+l0OWBxzruem6d+dGgyWqG/triG6AAk&#xA;WJVeMnxUllNPmM08+yZg+kgh2UO0IVuDaK0X81LDWfMdppVnZyJDccwbicqrVSNnACLy6lf5shl7&#xA;OljxmRO4ZY9aJzEQE4/MEyjyZq3pCrejvT+XkOX/AAtcx9DXjRvvbtV/dl4n5M1+DQfMNvqVxE00&#xA;MYdXRKcqOpWq1IHfvnRavAcuMxDptPlEJiRe8+W/MFtr+lpqVtFJFBI7oiy8Qx4GlfhLD8c5nPgO&#xA;KXCebvMOUZI8QeNfmyZT52u+YIURw+mT3X0xuP8AZVzoOza8EfF0+u/vSzD8ufP+nyWul+W/qswv&#xA;QGiEi8TFRQz8q15dB/LmBr9FIGWSxTmaTVChCt0R+cui3F5otrqEClzpzv6yjciKUAM30FFrkeys&#xA;wjMxP8TLtDGTEEdGFfl75/Xy0ZrS7habT7hvUPp09RJKBSwBIBBAFd82Gu0XjUQfUHC0uq8PY8mb&#xA;XP50eWUjJt7a6mk7KVRF+luR/Vmuj2TkPMhzT2hDoCyryrrv6d0G21QxiE3HOsQPLjwkZKV2/lzC&#xA;1OHw5mPc5WDLxwEngfma6fU/NOozR/GZ7p1hp3XnwjH/AAIGdPp48GKI7g6LNLimT5voyytUtLK3&#xA;tU+xbxpEvyRQo/VnJzlxEnvegjGgArZFk+ZPzC8v3Wiea7+GVCsFxK9xaPT4WikYsKH/ACa8T7jF&#xA;XoHlf88NNh0qC11y2n+t26CP6xAFdZAooGIZkKse/b5Yqyryb+ZNh5q1a5srO0lgit4fWEsxXk3x&#xA;BacF5AUr/Nirxr8ztNubDzvqizKQtxKbmFqUDJL8VR8jVfmMVZz5f/O3SbLy3bWt7ZzyalaQrCBH&#xA;w9OT014qxcmq1A3+HFXnvm2813WJY/Mmqpwj1J5I7Jdwojt+NQgP7K+oBXua4q9e/I+AR+S2cdZr&#xA;uVz9Con/ABrirzX84NQ+t+erxAeSWiRW6H5IHYfQ7nFXtX5eWH1DyTo8FKE26zMPeesp/wCJ4qif&#xA;OGjPrPljUdMjp6txCRDXYeopDpX/AGSjFXzp5V8w33lTzFHfCEmSAtDdWr1Qsp2dDUVUgivzGKvX&#xA;l/PXyeYQ7W96JKVMQjjJr4V9SmKpr5E/MOHzbd6jHFaG1isxEYi78ncSFwxYAALTiNqnFUX5h/Lz&#xA;yzrs5ubqF4btvt3FuwRm/wBYEMpPuRXMzBrsmMUDt5uNl0sJmzzSm3/JrylFIHeS7nUdY5JECn/g&#xA;ERvxy+XauUjoGodn4x3sv0rRtL0m2+radbJbQ9SqDdj4sxqzH3JzAyZZTNyNuXDHGAoCkZlbNK9e&#xA;8saJrsKxanbCUp/dyglZEr/K60P0dMuw6ieM3EtWXDGY9QYr/wAqW8q8q/Wb2la8fUip8v7quZv8&#xA;rZe6P2/rcX+Tsfefx8E90LyF5X0SZbiztOV0n2biVjI4qKbV+FfoGY2bW5MgonZvxaWEDYG6fyRx&#xA;yxvFIoeNwVdGFQVIoQQexzGBrcN5FsIuvyc8pTztJG91bKxr6UUicB8vUR2/HNjHtXKBWxcKXZ+M&#xA;nqGV6Ho1noulw6bZcvq8HLgXPJjzYuamg7tmFmynJIyPMuXjxiEeEIDzN5K0HzFwa/jZZ4xxjuYW&#xA;4yBetNwwI+YyzT6ueL6eTXm08cnNL/L35Z+XtC1OPUrWS5luYgwj9Z0KjmpU7Kidmy3P2hkyR4TV&#xA;NeLRwhLiF2yxlVlKsAysKMp3BBzBcthup/lL5QvZzMiTWRY1ZLZ1VK+yusgH0ZsMfaeWIrY+9w56&#xA;HHI9ylafk95QgkDS/WboD9iaUAf8kljP44ZdqZTyoIjoMY7yzCx0+ysLRLSyhW3t4wQkcYAAruT8&#xA;65gTmZGybLlxiIigxi1/KvylbXcN1HHMZYJFlTlKSOSMGFR33GZsu0cpBG27jR0WMG2X5gOW7FUt&#xA;17y5ouvWn1XVbVbiIEmMmodCe6OtGX6MVYY/5FeTmkLi4vkUmvpiWLiPbeIt+OKsm8seRvLnlsvJ&#xA;pkDLPKvCW4kdndlrWm54jcdhiqp5n8naD5lt0i1SAs8VfRuIzwlSvXi3h7GoxVjmn/kn5LtLhZpP&#xA;rV6FoRDcSLwqN9xGkZPyJxVPPMfkHy55gW0W/idY7FDHbRwN6SqrU2CqKfsimKph5e8vaboGmrp2&#xA;nKy2yszgO3I1brvirH9T/KXyhqWoXF/dJO1zdSNLKRKQOTGpoKdMVZfBDHBDHDGOMcShEXwVRQYq&#xA;vxVjHmb8uPKvmKY3N7btFeMKNdW7enI1Nvi2ZW+bLiqQxfkV5ORwzXF9IB1RpYgD/wADEp/HFWX6&#xA;B5U8v6BGyaTZpbmQASSVLyNT+Z2LN9GKptirsVdirsVdirsVdirsVdirsVdirsVdirsVdirsVdir&#xA;sVdirsVdirsVdiqXa5q0mmW0MscKzvNMkCo8npKC9dy5DU6Yqg7jzFewQ2Zazh9e8kkRVN0PSURq&#xA;Wr6oQjfjTpirY8zPNaWMlnaGe5v2kWOAyKij0aiQmSjCm222+KuHmq29HS5niMaalK0DcmFYpFJW&#xA;h2+L4xx/HFUo82eZZLnyP5rudPd7aXTobiKC6ikKvzSOvqIy8Su/ShyGQ+kuf2XCMtTjjIWDIPCr&#xA;K58yt5Vtddv/AD1r1u92k7x28CXdzGvoO0fxzrcoF5Fe67ZggnhsyL3mSGHxzijp8R4a3PCDuL2H&#xA;CixYeeX8uR6pH521o3T6U2stA7XS2wiQuDF9bE7D1T6fwqUFajDUqviPK2rxNMMxgcGLh8Tgv08V&#xA;7b8PDy371iaZ+ZVxo9zqln5w1WeGDS7TU4l+sXKmV7lnV4F/fHeL0ZanevHoK7NTq7PJJzaOOQQl&#xA;hxgnJKH0x24ao/T1uPzZd+UN75it/wA19c8vaj5gvdbt9Ospk5XM0rR+tHPArsI5JJQCpZlrX9eW&#xA;4SeMgm3V9uY8UtDjywxxxmchyA5VLqAPIvcsy3jHYq7FXYq7FXYq7FXYq7FXYq7FXYq7FXYq7FXY&#xA;q7FXYq7FXYq7FXYq7FUBq+lrqKW0bleEFxHO6MvIOqVqtPeuKqOoeX7O7kslMca2lo0pa2CDiwlj&#xA;ZNgKAULcsVQ6+X76Kz09IL1Vu9N5pDM0fJHicceLpyXcLTevUYqtfylBJp9nYzTs8Vv6xlkA4uzz&#xA;VJdeoUh25DriqT+avLbWHkDzRaWKtP8AWrST6vAilpKiARhaDdmYrXYZXlHpLsOypCOqxkmhxh4X&#xA;Yz6qvlC20G+8t+YS9qlwgazkmt4JPXkaQerD6L86cqdcwhfDRBe8yRh45yxy4d6+oAkUK2PFsjo/&#xA;MPmKLyvDpaeVtaa8i0p9I+Iz/USshcmZrUQ/FIPU+Eluw8MPEaqjyppOlxHMZ+Li4Tk4+nFtW3Fx&#xA;ctlvlrzX530bTvLlg3le/uINEuLiW4BglH1iGdJEWI1jP2PrEtK164xnIACuSdXotNlnll4sAcgj&#xA;W42Irfn14QnX5Bad5jH5javqmr6fdWpvLG4keaeGSNWlluoXIDOAKnc5PTg8ZJcP2ly4fykIY5Rl&#xA;wyjyIOwjIP8A/9k=</xmpGImg:image>
               </rdf:li>
            </rdf:Alt>
         </xmp:Thumbnails>
      </rdf:Description>
      <rdf:Description rdf:about=""
            xmlns:xmpMM="http://ns.adobe.com/xap/1.0/mm/"
            xmlns:stRef="http://ns.adobe.com/xap/1.0/sType/ResourceRef#"
            xmlns:stEvt="http://ns.adobe.com/xap/1.0/sType/ResourceEvent#">
         <xmpMM:InstanceID>xmp.iid:8989F1E99419E4118465F7AE137016A0</xmpMM:InstanceID>
         <xmpMM:DocumentID>xmp.did:8989F1E99419E4118465F7AE137016A0</xmpMM:DocumentID>
         <xmpMM:OriginalDocumentID>uuid:5D20892493BFDB11914A8590D31508C8</xmpMM:OriginalDocumentID>
         <xmpMM:RenditionClass>proof:pdf</xmpMM:RenditionClass>
         <xmpMM:DerivedFrom rdf:parseType="Resource">
            <stRef:instanceID>uuid:62d1af48-5cb4-4ead-9102-2e9b5a3c772b</stRef:instanceID>
            <stRef:documentID>xmp.did:FE6DFFBC45DBE3119A12CD1866EA72A7</stRef:documentID>
            <stRef:originalDocumentID>uuid:5D20892493BFDB11914A8590D31508C8</stRef:originalDocumentID>
            <stRef:renditionClass>proof:pdf</stRef:renditionClass>
         </xmpMM:DerivedFrom>
         <xmpMM:History>
            <rdf:Seq>
               <rdf:li rdf:parseType="Resource">
                  <stEvt:action>saved</stEvt:action>
                  <stEvt:instanceID>xmp.iid:0C6574F8331CE211B5B5E2A194B6ACD4</stEvt:instanceID>
                  <stEvt:when>2012-10-22T12:33:51+02:00</stEvt:when>
                  <stEvt:softwareAgent>Adobe Illustrator CS5</stEvt:softwareAgent>
                  <stEvt:changed>/</stEvt:changed>
               </rdf:li>
               <rdf:li rdf:parseType="Resource">
                  <stEvt:action>saved</stEvt:action>
                  <stEvt:instanceID>xmp.iid:FE6DFFBC45DBE3119A12CD1866EA72A7</stEvt:instanceID>
                  <stEvt:when>2014-05-14T10:57:12+02:00</stEvt:when>
                  <stEvt:softwareAgent>Adobe Illustrator CS5</stEvt:softwareAgent>
                  <stEvt:changed>/</stEvt:changed>
               </rdf:li>
               <rdf:li rdf:parseType="Resource">
                  <stEvt:action>saved</stEvt:action>
                  <stEvt:instanceID>xmp.iid:8989F1E99419E4118465F7AE137016A0</stEvt:instanceID>
                  <stEvt:when>2014-08-04T13:40:19+02:00</stEvt:when>
                  <stEvt:softwareAgent>Adobe Illustrator CS5</stEvt:softwareAgent>
                  <stEvt:changed>/</stEvt:changed>
               </rdf:li>
            </rdf:Seq>
         </xmpMM:History>
      </rdf:Description>
      <rdf:Description rdf:about=""
            xmlns:illustrator="http://ns.adobe.com/illustrator/1.0/">
         <illustrator:StartupProfile>Print</illustrator:StartupProfile>
      </rdf:Description>
      <rdf:Description rdf:about=""
            xmlns:xmpTPg="http://ns.adobe.com/xap/1.0/t/pg/"
            xmlns:stDim="http://ns.adobe.com/xap/1.0/sType/Dimensions#"
            xmlns:xmpG="http://ns.adobe.com/xap/1.0/g/">
         <xmpTPg:HasVisibleOverprint>False</xmpTPg:HasVisibleOverprint>
         <xmpTPg:HasVisibleTransparency>False</xmpTPg:HasVisibleTransparency>
         <xmpTPg:NPages>1</xmpTPg:NPages>
         <xmpTPg:MaxPageSize rdf:parseType="Resource">
            <stDim:w>109.113236</stDim:w>
            <stDim:h>26.881563</stDim:h>
            <stDim:unit>Millimeters</stDim:unit>
         </xmpTPg:MaxPageSize>
         <xmpTPg:PlateNames>
            <rdf:Seq>
               <rdf:li>Cyan</rdf:li>
               <rdf:li>Magenta</rdf:li>
               <rdf:li>Yellow</rdf:li>
               <rdf:li>Black</rdf:li>
            </rdf:Seq>
         </xmpTPg:PlateNames>
         <xmpTPg:SwatchGroups>
            <rdf:Seq>
               <rdf:li rdf:parseType="Resource">
                  <xmpG:groupName>Default Swatch Group</xmpG:groupName>
                  <xmpG:groupType>0</xmpG:groupType>
               </rdf:li>
            </rdf:Seq>
         </xmpTPg:SwatchGroups>
      </rdf:Description>
      <rdf:Description rdf:about=""
            xmlns:pdf="http://ns.adobe.com/pdf/1.3/">
         <pdf:Producer>Adobe PDF library 9.90</pdf:Producer>
      </rdf:Description>
   </rdf:RDF>
</x:xmpmeta>
                                                                                                    
                                                                                                    
                                                                                                    
                                                                                                    
                                                                                                    
                                                                                                    
                                                                                                    
                                                                                                    
                                                                                                    
                                                                                                    
                                                                                                    
                                                                                                    
                                                                                                    
                                                                                                    
                                                                                                    
                                                                                                    
                                                                                                    
                                                                                                    
                                                                                                    
                                                                                                    
                           
<?xpacket end="w"?>
	</metadata>
<g id="bettercare">
	<g>
		<path fill="#4F89D2" d="M43.964,19.374l-4.32,21.169l0.144,0.072c2.808-3.816,6.913-5.976,11.449-5.976
			c7.489,0,10.585,6.12,10.585,12.385c0,11.089-7.632,24.269-22.538,24.269c-7.345,0-11.737-3.099-11.737-9.436
			c0-1.941,0.288-4.104,0.72-6.048l7.272-36.435L43.964,19.374L43.964,19.374z M36.62,56.243c-0.288,1.223-0.504,2.521-0.432,4.176
			c0.072,2.881,1.729,4.465,4.681,4.465c7.345,0,12.169-9.434,12.169-16.346c0-3.815-1.656-7.057-5.544-7.057
			c-4.32,0-8.785,4.464-10.225,11.521L36.62,56.243z"/>
		<path fill="#4F89D2" d="M93.069,68.482c-3.456,1.802-8.137,2.81-12.385,2.81c-9.721,0-14.401-5.978-14.401-14.545
			c0-10.584,7.777-22.105,19.874-22.105c6.913,0,11.305,3.96,11.305,9.865c0,9-9.433,11.881-22.97,11.593
			c-0.144,1.224,0.144,3.601,0.936,4.969c1.368,2.375,3.888,3.601,7.2,3.601c3.96,0,7.129-1.008,9.649-2.306L93.069,68.482z
			 M85.076,40.903c-5.256,0-8.712,4.682-9.721,8.93c8.641,0.071,14.185-1.08,14.185-5.328
			C89.541,42.271,87.741,40.903,85.076,40.903z"/>
		<path fill="#4F89D2" d="M117.835,26.43l-1.656,9.001h7.849l-1.296,6.479h-7.849l-2.736,14.113
			c-0.36,1.656-0.648,3.456-0.648,4.971c0,1.941,0.864,3.168,3.096,3.168c1.008,0,2.016-0.072,2.88-0.219l-0.792,6.555
			c-1.224,0.504-3.457,0.721-5.473,0.721c-5.76,0-8.281-3.168-8.281-7.201c0-1.943,0.216-3.889,0.72-6.48l3.024-15.625h-4.68
			l1.224-6.479h4.68l1.296-6.553L117.835,26.43z"/>
		<path fill="#4F89D2" d="M141.811,26.43l-1.656,9.001h7.849l-1.296,6.479h-7.849l-2.736,14.113
			c-0.36,1.656-0.648,3.456-0.648,4.971c0,1.941,0.864,3.168,3.096,3.168c1.008,0,2.016-0.072,2.88-0.219l-0.792,6.555
			c-1.224,0.504-3.457,0.721-5.473,0.721c-5.76,0-8.281-3.168-8.281-7.201c0-1.943,0.216-3.889,0.72-6.48l3.024-15.625h-4.68
			l1.224-6.479h4.68l1.296-6.553L141.811,26.43z"/>
		<path fill="#4F89D2" d="M175.148,68.482c-3.456,1.802-8.137,2.81-12.385,2.81c-9.721,0-14.401-5.978-14.401-14.545
			c0-10.584,7.777-22.105,19.874-22.105c6.913,0,11.306,3.96,11.306,9.865c0,9-9.434,11.881-22.971,11.593
			c-0.145,1.224,0.145,3.601,0.936,4.969c1.369,2.375,3.889,3.601,7.201,3.601c3.959,0,7.129-1.008,9.648-2.306L175.148,68.482z
			 M167.155,40.903c-5.256,0-8.712,4.682-9.721,8.93c8.641,0.071,14.186-1.08,14.186-5.328
			C171.62,42.271,169.82,40.903,167.155,40.903z"/>
		<path fill="#4F89D2" d="M182.129,70.499l4.104-21.603c0.938-4.968,1.438-10.369,1.803-13.465h7.271
			c-0.216,2.376-0.433,4.823-0.791,7.345h0.215c2.377-4.681,6.192-8.137,10.944-8.137c0.647,0,1.298,0.072,1.873,0.072l-1.655,8.208
			c-0.433-0.071-1.009-0.071-1.584-0.071c-5.978,0-9.793,6.048-11.162,13.536l-2.664,14.113h-8.353V70.499z"/>
	</g>
	<g>
		<path fill="#706F6F" d="M236.189,69.204c-2.088,1.008-5.614,2.017-10.081,2.017c-8.783,0-14.186-5.617-14.186-13.97
			c0-12.242,9.287-22.539,22.248-22.539c3.1,0,5.834,0.72,7.201,1.296l-2.16,6.553c-1.295-0.576-2.95-1.08-5.328-1.08
			c-8.063,0-13.178,7.417-13.178,14.762c0,5.258,3.024,8.209,7.705,8.209c3.24,0,5.688-0.863,7.416-1.656L236.189,69.204z"/>
		<path fill="#706F6F" d="M264.271,70.499c0-2.088,0.287-4.896,0.576-7.849h-0.146c-3.457,6.408-8.138,8.642-12.603,8.642
			c-6.265,0-10.369-4.896-10.369-11.953c0-11.953,8.354-24.697,24.699-24.697c3.815,0,7.92,0.72,10.655,1.584l-3.672,18.29
			c-1.009,5.185-1.584,11.81-1.439,15.985h-7.703L264.271,70.499L264.271,70.499z M267.654,41.479
			c-0.862-0.216-1.942-0.359-3.454-0.359c-7.705,0-13.756,8.711-13.756,16.707c0,3.672,1.369,6.694,5.041,6.694
			c3.96,0,8.715-4.896,10.369-13.825L267.654,41.479z"/>
		<path fill="#706F6F" d="M280.25,70.499l4.104-21.603c0.938-4.968,1.438-10.369,1.801-13.465h7.272
			c-0.217,2.376-0.434,4.823-0.792,7.345h0.216c2.376-4.681,6.191-8.137,10.943-8.137c0.648,0,1.298,0.072,1.873,0.072l-1.655,8.208
			c-0.433-0.071-1.009-0.071-1.584-0.071c-5.978,0-9.793,6.048-11.161,13.536l-2.664,14.113h-8.354V70.499z"/>
		<path fill="#706F6F" d="M332.454,68.482c-3.457,1.802-8.138,2.81-12.386,2.81c-9.723,0-14.401-5.978-14.401-14.545
			c0-10.584,7.776-22.105,19.875-22.105c6.912,0,11.305,3.96,11.305,9.865c0,9-9.434,11.881-22.971,11.593
			c-0.146,1.224,0.145,3.601,0.936,4.969c1.369,2.375,3.891,3.601,7.201,3.601c3.961,0,7.129-1.008,9.648-2.306L332.454,68.482z
			 M324.459,40.903c-5.258,0-8.713,4.682-9.721,8.93c8.641,0.071,14.184-1.08,14.184-5.328
			C328.922,42.271,327.125,40.903,324.459,40.903z"/>
	</g>
</g>
<g id="from_EBW">
	<g>
		<rect x="296.726" y="78.827" fill="#CC071E" width="36.346" height="16.748"/>
		<g>
			<path fill="#FFFFFF" d="M300.965,82.368h5.98v1.379h-4.564v2.766h3.896v1.298h-3.896v2.847h4.564v1.377h-5.98V82.368z"/>
			<path fill="#FFFFFF" d="M309.861,82.368h3.629c0.921,0.01,1.609,0.248,2.074,0.717c0.467,0.474,0.697,1.099,0.697,1.875
				c0.012,0.396-0.082,0.777-0.273,1.142c-0.1,0.172-0.239,0.336-0.424,0.489c-0.187,0.164-0.41,0.313-0.683,0.445v0.024
				c0.511,0.137,0.896,0.413,1.158,0.828c0.244,0.429,0.367,0.896,0.367,1.397c-0.008,0.836-0.262,1.496-0.758,1.981
				c-0.494,0.509-1.107,0.763-1.846,0.763h-3.945v-9.664h0.003V82.368z M311.279,83.667v2.777h2.052c0.518,0,0.896-0.14,1.143-0.42
				c0.248-0.257,0.373-0.582,0.373-0.973c0-0.393-0.125-0.723-0.373-0.993c-0.244-0.253-0.625-0.386-1.143-0.394h-2.052V83.667z
				 M311.279,87.743v2.911h2.188c0.529-0.009,0.914-0.155,1.158-0.444c0.246-0.283,0.367-0.621,0.367-1.012
				c0-0.396-0.121-0.738-0.367-1.021c-0.244-0.279-0.629-0.424-1.158-0.434H311.279z"/>
			<path fill="#FFFFFF" d="M318.659,82.368h1.495l1.47,6.87h0.026l1.813-6.87h1.027l1.812,6.87h0.024l1.478-6.87h1.495l-2.338,9.664
				h-1.188l-1.785-6.971h-0.025l-1.791,6.971h-1.182L318.659,82.368z"/>
		</g>
		<g>
			<path fill="#9D9D9C" d="M256.433,82.368h5.979v1.379h-4.563v2.856h3.896v1.298h-3.896v4.131h-1.416V82.368L256.433,82.368z"/>
			<path fill="#9D9D9C" d="M265.067,82.368h3.658c0.777,0,1.416,0.213,1.908,0.637c0.594,0.48,0.902,1.168,0.93,2.063
				c-0.02,1.313-0.619,2.205-1.811,2.678l2.168,4.289h-1.686l-1.938-4.131h-1.814v4.131h-1.418L265.067,82.368L265.067,82.368z
				 M266.485,86.603h2.148c0.531-0.009,0.934-0.168,1.197-0.479c0.262-0.289,0.395-0.644,0.395-1.063
				c-0.012-0.505-0.166-0.87-0.473-1.098c-0.238-0.198-0.588-0.299-1.043-0.299h-2.227L266.485,86.603L266.485,86.603z"/>
			<path fill="#9D9D9C" d="M274.375,87.2c0-1.123,0.029-1.878,0.096-2.259c0.068-0.381,0.174-0.688,0.314-0.924
				c0.227-0.444,0.59-0.843,1.092-1.188c0.492-0.354,1.104-0.533,1.842-0.543c0.744,0.01,1.365,0.19,1.861,0.545
				c0.49,0.35,0.848,0.746,1.063,1.192c0.156,0.233,0.27,0.542,0.328,0.922c0.055,0.38,0.082,1.132,0.082,2.253
				c0,1.105-0.027,1.854-0.082,2.241c-0.063,0.39-0.172,0.7-0.328,0.935c-0.221,0.446-0.572,0.84-1.063,1.182
				c-0.496,0.354-1.117,0.539-1.861,0.557c-0.736-0.018-1.35-0.201-1.842-0.557c-0.502-0.342-0.865-0.733-1.092-1.182
				c-0.068-0.146-0.133-0.285-0.188-0.418c-0.053-0.137-0.096-0.309-0.131-0.517C274.405,89.051,274.375,88.304,274.375,87.2z
				 M275.792,87.2c0,0.952,0.033,1.598,0.103,1.934c0.062,0.338,0.185,0.609,0.367,0.818c0.149,0.197,0.348,0.358,0.592,0.482
				c0.239,0.146,0.526,0.22,0.86,0.22c0.341,0,0.634-0.071,0.882-0.22c0.235-0.124,0.426-0.285,0.565-0.482
				c0.185-0.209,0.312-0.48,0.379-0.818c0.063-0.336,0.099-0.979,0.099-1.934c0-0.951-0.033-1.602-0.099-1.945
				c-0.067-0.328-0.194-0.596-0.379-0.805c-0.142-0.199-0.33-0.365-0.565-0.498c-0.248-0.13-0.541-0.197-0.882-0.205
				c-0.334,0.008-0.621,0.075-0.86,0.205c-0.244,0.133-0.44,0.299-0.592,0.498c-0.185,0.209-0.308,0.477-0.367,0.805
				C275.827,85.598,275.792,86.249,275.792,87.2z"/>
			<path fill="#9D9D9C" d="M284.315,82.368h1.336l2.686,6.301l2.633-6.301h1.34v9.664h-1.416v-6.025h-0.033l-1.959,4.642h-1.182
				l-1.959-4.642h-0.027v6.025h-1.416L284.315,82.368L284.315,82.368z"/>
		</g>
	</g>
</g>
<g id="community" display="none">
	<g display="inline">
		<rect x="296.726" y="78.827" fill="#CC071E" width="36.346" height="16.748"/>
		<text transform="matrix(1 0 0 1 299.978 92.0317)" fill="#FFFFFF" font-family="'DINMittelschriftLT'" font-size="13.5762">E</text>
		<text transform="matrix(1 0 0 1 308.8726 92.0317)" fill="#FFFFFF" font-family="'DINMittelschriftLT'" font-size="13.5762">B</text>
		<text transform="matrix(1 0 0 1 318.5112 92.0317)" fill="#FFFFFF" font-family="'DINMittelschriftLT'" font-size="13.5762">W</text>
		<text transform="matrix(1 0 0 1 210.4448 92.0317)" fill="#9D9D9C" font-family="'DINMittelschriftLT'" font-size="13.5762">COMMUNITY</text>
	</g>
</g>
<g id="professional" display="none">
	<g display="inline">
		<rect x="296.726" y="78.827" fill="#CC071E" width="36.346" height="16.748"/>
		<text transform="matrix(1 0 0 1 299.978 92.0317)" fill="#FFFFFF" font-family="'DINMittelschriftLT'" font-size="13.5762">E</text>
		<text transform="matrix(1 0 0 1 308.8726 92.0317)" fill="#FFFFFF" font-family="'DINMittelschriftLT'" font-size="13.5762">B</text>
		<text transform="matrix(1 0 0 1 318.5112 92.0317)" fill="#FFFFFF" font-family="'DINMittelschriftLT'" font-size="13.5762">W</text>
		<text transform="matrix(1 0 0 1 185.4448 92.0317)" fill="#9D9D9C" font-family="'DINMittelschriftLT'" font-size="13.5762">PROFESSIONAL</text>
	</g>
</g>
<g id="foundation" display="none">
	
		<text transform="matrix(1 0 0 1 243.4448 88.0317)" display="inline" fill="#9D9D9C" font-family="'DINMittelschriftLT'" font-size="13.5762">FOUNDATION</text>
</g>
<g id="blog" display="none">
	
		<text transform="matrix(1 0 0 1 297.4448 88.0317)" display="inline" fill="#9D9D9C" font-family="'DINMittelschriftLT'" font-size="13.5762">BLOG</text>
</g>
</svg>
