<?xml version="1.0" encoding="utf-8"?>
<!-- Generator: Adobe Illustrator 15.0.2, SVG Export Plug-In . SVG Version: 6.00 Build 0)  -->
<!DOCTYPE svg PUBLIC "-//W3C//DTD SVG 1.1//EN" "http://www.w3.org/Graphics/SVG/1.1/DTD/svg11.dtd">
<svg version="1.1" id="Layer_1" xmlns="http://www.w3.org/2000/svg" xmlns:xlink="http://www.w3.org/1999/xlink" x="0px" y="0px"
	 width="307.08px" height="234px" viewBox="54.633 18.663 307.08 234" enable-background="new 54.633 18.663 307.08 234"
	 xml:space="preserve">
<metadata><?xpacket begin="﻿" id="W5M0MpCehiHzreSzNTczkc9d"?>
<x:xmpmeta xmlns:x="adobe:ns:meta/" x:xmptk="Adobe XMP Core 5.0-c060 61.134777, 2010/02/12-17:32:00        ">
   <rdf:RDF xmlns:rdf="http://www.w3.org/1999/02/22-rdf-syntax-ns#">
      <rdf:Description rdf:about=""
            xmlns:dc="http://purl.org/dc/elements/1.1/">
         <dc:format>image/svg+xml</dc:format>
         <dc:title>
            <rdf:Alt>
               <rdf:li xml:lang="x-default">Print</rdf:li>
            </rdf:Alt>
         </dc:title>
      </rdf:Description>
      <rdf:Description rdf:about=""
            xmlns:xmp="http://ns.adobe.com/xap/1.0/"
            xmlns:xmpGImg="http://ns.adobe.com/xap/1.0/g/img/">
         <xmp:MetadataDate>2014-08-10T13:09:54+02:00</xmp:MetadataDate>
         <xmp:ModifyDate>2014-08-10T13:09:54+02:00</xmp:ModifyDate>
         <xmp:CreateDate>2014-08-10T13:09:49+02:00</xmp:CreateDate>
         <xmp:CreatorTool>Adobe Illustrator CS5</xmp:CreatorTool>
         <xmp:Thumbnails>
            <rdf:Alt>
               <rdf:li rdf:parseType="Resource">
                  <xmpGImg:width>256</xmpGImg:width>
                  <xmpGImg:height>196</xmpGImg:height>
                  <xmpGImg:format>JPEG</xmpGImg:format>
                  <xmpGImg:image>/9j/4AAQSkZJRgABAgEAlgCWAAD/7QAsUGhvdG9zaG9wIDMuMAA4QklNA+0AAAAAABAAlgAAAAEA&#xA;AQCWAAAAAQAB/+4ADkFkb2JlAGTAAAAAAf/bAIQABgQEBAUEBgUFBgkGBQYJCwgGBggLDAoKCwoK&#xA;DBAMDAwMDAwQDA4PEA8ODBMTFBQTExwbGxscHx8fHx8fHx8fHwEHBwcNDA0YEBAYGhURFRofHx8f&#xA;Hx8fHx8fHx8fHx8fHx8fHx8fHx8fHx8fHx8fHx8fHx8fHx8fHx8fHx8fHx8f/8AAEQgAxAEAAwER&#xA;AAIRAQMRAf/EAaIAAAAHAQEBAQEAAAAAAAAAAAQFAwIGAQAHCAkKCwEAAgIDAQEBAQEAAAAAAAAA&#xA;AQACAwQFBgcICQoLEAACAQMDAgQCBgcDBAIGAnMBAgMRBAAFIRIxQVEGE2EicYEUMpGhBxWxQiPB&#xA;UtHhMxZi8CRygvElQzRTkqKyY3PCNUQnk6OzNhdUZHTD0uIIJoMJChgZhJRFRqS0VtNVKBry4/PE&#xA;1OT0ZXWFlaW1xdXl9WZ2hpamtsbW5vY3R1dnd4eXp7fH1+f3OEhYaHiImKi4yNjo+Ck5SVlpeYmZ&#xA;qbnJ2en5KjpKWmp6ipqqusra6voRAAICAQIDBQUEBQYECAMDbQEAAhEDBCESMUEFURNhIgZxgZEy&#xA;obHwFMHR4SNCFVJicvEzJDRDghaSUyWiY7LCB3PSNeJEgxdUkwgJChgZJjZFGidkdFU38qOzwygp&#xA;0+PzhJSktMTU5PRldYWVpbXF1eX1RlZmdoaWprbG1ub2R1dnd4eXp7fH1+f3OEhYaHiImKi4yNjo&#xA;+DlJWWl5iZmpucnZ6fkqOkpaanqKmqq6ytrq+v/aAAwDAQACEQMRAD8A9U4q7FXYq7FXYq7FXYq7&#xA;FXYq7FXYq7FXYq7FXYq7FXYq7FXYq7FXYq7FXYq7FXYq7FWKax+afkXR/MkflrUNRePXJfT9KyS1&#xA;upmb1RVOLRROpr88VZWDUVxVbJJHFG0kjBI0FWdiAAB3JOKpT/ivSJdrAy6mx2Q2MTzxFv5frCj6&#xA;up/1pBiq1vMksE9uNQ0u6sLW4kEC3UzW7okrmkayehLNxDn4VY7cqDuKqp1irsVdirsVdirsVdir&#xA;sVdirsVdirsVdiqTS+YZLmdrbQ7cahLGxWa6ZzFZxMvVWnCvzeopxiVqHZuOKrlsfM0opcarDCp/&#xA;5Y7Xg4B7cp5LhTTx4D5Yqu/Q2o/9X6+/4Cx/7JsVQNxOtopL+a0Ra8SbsWezeAKLB9xxVCt5luSP&#xA;9G17Tr5v992Gn3F6477rbXUrCviRiqLsLzzxfRsJrKz0pQaJcTu9xJIB3NrGY1jDdq3BPiuKqfLV&#xA;pNUudPk1O8F3BDFcgWsFpFA8czSJ+7M6TsSjRHmC9QCvjuqmDaXrkYrba1I7+F5bwSp90C2rf8Ni&#xA;rVfN0ApwsNQr1YNNY8fbjS95f8EMVUbbzLfzy3MCaDe+taSCGY+pZ+n6hjSUUY3AYrxlXfj9GKog&#xA;6jr1P+OPX2+sR/0xVfpuu295dS2UkE1jqEKiR7K5CBzGTQSI0bSRyLXYlHPE7NQ4qmWKpddaJDdz&#xA;O93c3M0LEcLUSmKJRQArxh9MuD3Ehb7sVUoPKvley1MaxBplrbX8UBt0u0jRGSHkzlVIACgliTTr&#xA;3xVZ/ivT7iq6THLrDg05WShoKgb/AOkuUt6juvqcvbFUi0n9FSyarJ5sghXU9NujJL9bma5t44Ll&#xA;zJZyW4mCog4t6NURSXRhv1KqPv8A8wtFtHESw3U1wyhktjELaVq9OEd21u8nXogOKpXH5/tdTuzo&#xA;+pWEIs7uUWNynrStMv1gFAJbaS3hkReZWNmag5OOJbFWTeWp7l9N+rXchlvLCWSznlb7b+i1I5X6&#xA;/FLEUkP+tiqa4q7FXYq7FXYq7FXYq7FXYq7FUtvvMFja3Bs4hJe6iAD9QtQJJQDuDJUqkQPZpWUH&#xA;scVQh0jU9WqdckWGxPTSLVm4MPC5norS/wCooVOobmMVTqGGGCJIYY1ihjULHGgCqqgUAUDYAYqv&#xA;xVSurS1u4Gt7uGO4t3pzhlUOjUIIqrAg0Iriqy307T7Yg29rDCVHFTHGqUHgKAYqiMVdirsVdirs&#xA;VSO2u4dP8xXtndsIv0rJHdWEjfCkjrCkEkCsdvUX0A/HqVbavFqKp5irHdb1DTIfMWnGeeK2bT45&#xA;bi8u5XEaxwTqYUhZmoB68tHUE7+kfDFUV/iWOc00yxu9R/4sjj9GGh6Ms1yYUkX3jLYq16Pmq7A9&#xA;W4ttLjOzpbK13NTxSaZYo1PsYGxVtfKuku4kvxJqkwPLnfuZ0Dj9tID+4jb3jjXFU4AAFBsB0GKv&#xA;OvzRs5bXUdK1q3Mqs/O0ultxE0jrArXikLOrxsywQ3UcYYU5S+NMVYjdaXFbJJBcD6tbzScTbPwS&#xA;2kfjUhovVFkZPAw3kb+CdsVVtJk0eyh1O2e6gtPUtJLLk0ZrDO39yGlf6tcR0k4MplidV/Zl3xV6&#xA;h5TuTfQX2rLDJBBqlwtzbpNG8UnAWsENWSQK4q0TUqBUUOKp7irsVdirsVdirsVdirsVUrq6trS2&#xA;kubqVILaFS8s0jBERRuWZjQADFUlB1fXqFTNpOjHvQx31yv00a1jI/56n/isjdVN9P06x062FtZQ&#xA;JbwAluCClWY1ZmPVmY7sx3J3OKojFXYq7FXYq7FXYq7FXYqpyXNvHIkUkqJJJ9hGYBm+QPXFVTFV&#xA;K6tbW7t3t7qFLi3kFJIZVDow60KsCDirFLmHyw8jWegadDf3gJVo7VjFZwEHixnki/dx07ooMh7L&#xA;1IVTDy35I0HQzJcxW0U2q3EjT3epOgMzyuAp4sxdkjCqFRA2yjuakqsgxV2KuxVJ5PNejmQxWTSa&#xA;nOKqY7BGuAHH7EkqfuYm/wCMrriqX6xY+Zddit1S3g0pLa6gvIZbl/rE5MEgYxtDFSNRIlULCZqA&#xA;9MVSPQvyV0WwiUX+pXuoyNGIrlS/pQyxrsiFRzl4qtFFZT0xVl2leVPLulGNrGwjjliHGKZ6yyop&#xA;/ZWSQu4Xf7INMVTbFXYq7FXYq7FXYq7FXYqh9R1Gy02ylvb2UQWsA5SSNU9TQAAVLMxICqBUnYb4&#xA;qlFhY3msSxanrMBt4Yn9XTtJc19On2JrkA8Xm7hd1j7VYcsVT/FXYq7FXYq7FXYq7FUv1TzDo2ly&#xA;Qw3tyqXNwaW9qgaW4l8fThjDyvTvxXbFWPa/5/h00IlzJa6J621vJqkitcSHfibewt2aeatPslkb&#xA;2xVJ/wBIa/rY/wBB0XVNYVj8NzrEn6C02jGtPqqr9ckT2mt32/axVWi/K271CIxa5e2tlYSD97o/&#xA;l+0jsImFa8ZbpvUun+cbRfLFWS6d5H8t6ZZxWWmwTWNrCvGOG2urqFaVJq3pyryJJJJbfFVdvKfl&#xA;+Xa6tfr42ot9JLeAU6UFy0oH0YqmsUUUUaxRIscaAKiKAFAHQADpiq7FUqn8z6Qk721vI1/dxtwk&#xA;trJGuHR6V4ylKpCT/wAWsoxVSE3mq+X91BBo8TdGuD9buaUpQxRMkKN3BEsg9sVbHlWwmAOqyzaw&#xA;/cXrBoTQUH+jRiO2qOx9OvviqcIiRoscahEQBURRQADYAAYq3irsVdirsVdirsVdirsVdirsVU7i&#xA;4gtoJLi4kWGCFS8srkKqqoqWYnYADFUl063udYuo9X1CNo7KMh9I06VCjoaH/SJ1bpK1fgQj92Ov&#xA;xkhVU+xV2KuxV2KuxV2KpTdeaNJime2tnbUb5Dxazsl9eRW7LIV/dw18ZWUe+KqLweZNUDLPINFs&#xA;XFPTgKy3rA/zSkGGHwIQOe4cYqk8Pl/SNM9HSte0y11KwupBHDrNxEk0ks7/AAot96ocmWTZVl5E&#xA;O3w0QlFZVd5J8l+V/K3mDzDbaLp0Fl9ckg1ELDEiLGlxH6JiSgqqepaO/D7I5bAYqzLFXYqo3l9Z&#xA;WNu1xe3Edrbp9qaZ1jQfNmIGKpb/AIr0iReVn69+rf3b2dvNPE5PQCdEMPfqXp36YqtafzZeKfq1&#xA;vbaSjL8Et4TdzBvB7eB44/pFwcVQGkaZHqXrwa/LPe6jZuEurSeQC1KsKo6QRCKKWJ+qmRGIIKk1&#xA;U4qyW3t7e2gSC3iSGCIBY4o1CIqjoFUUAGKqmKuxV2KuxV2KuxV2KuxV2KuxV2KuxVpmVVLMQqqK&#xA;sx2AA7nFWP26N5juo72dCuhWsgksIHA/0qWNg0d23/FSMKwg/aP7z+TFWQ4q7FXYq7FUn1jVtWtN&#xA;SsLOzsoZo74SoLmed4Qk0a+osfFIZi3JFduo+ziqUW155lv7T1rrUVsGjlkDx2MCU4210be4rJc/&#xA;WeSqBy5cErt7jFU3/wALadLvqElxqbH7a3krPC3ztl4W3/JPFXkX5Yzrov5lpody6i5SHUNKKwhQ&#xA;krwSRzQSyooX05Hgt3fcfEG5Yq91xVJ/OIRvKuqqwqz2sqwjevqspEVCNw3qFaHsd8VQeo6l6fme&#xA;F9Mt5dSuIIZLbVba19MemrhZoWklleKLmlKCMty4ycqceqqYRXnmSSRD+jLeGAkcvWu2EyrUVPCO&#xA;CVCQO3qfTirVzaeYLud1+vR6fZ1IT6tGJblgPsn1ZgYkr3X0m9m74qusvLWi2k63S2/r3q9L65Zr&#xA;i4HsJpi7qv8AkqQB2GKpnirsVSiYCPzbaFPhNzYXInH8/wBXmg9Kv+p9Ykp/rYqm+KuxV2KuxV2K&#xA;uxV2KuxV2KuxV2KuxV2KsfngbzKzwTxsnl6NyskUisjXzo24ZWoRbBh0P97/AMYv7xVkGKtK6OKq&#xA;wYAkVBrupoR9BGKt4q7FXYqk/mtJF0d72FeVxpjpfwgA8iLc8pUSn7UsPOP/AGWKoLThA2n3g+GS&#xA;G0v7l3I6NDdsZ3JI6j07rmKdaDFU90+V5LRPUPKWOsUreLxkozfSVqMVeK+bUutH/OOTVLaKWSNb&#xA;jTtS1BzC7JFayRGxnmV496RwwOzV269aUxV7lirBPzq8wjQvIVzdpPJBdfWbM25gQSTUiu4pZnjQ&#xA;hh+7hjeQkggAVOKpnoOhXcul24mml03T2XlBpVq/Fwj/ABcrm6q08k7E8nZJF3J+2fjKqZf4Z04G&#xA;onvw3Y/pC9NPoMxH4Yqv8tz3c2lD63L688M91bGYgBnW2uZIUd+IC82SMFqACtaADFUzxV2KrJpo&#xA;YInmmkWKGNS0kjkKqqBUlidgBiqTaLJ+ktWvNZUE2QRLPTJDWkkakyTTp/kSOwQeIj5CqsMVTzFX&#xA;Yq7FXYq7FXYq7FXYq7FXYq7FULqOp2Gm24nvZREjMI4xQs7yN9mONFDO7t2VQSe2KpbFaapq88Vz&#xA;qIew0+FxJb6Yr0lkZTVXunQ041FRCpI/nLV4qqnmKuxVC2vwXd3Ce7LMgHQLIvH7y8bE4qisVdir&#xA;sVdirC/JQFlqGq+XZ15pGx9IldikEcVuI2I2PG0Nq5J6lz4bKp3BfTWkJVLSe+uX+2sTRc3eGkEj&#xA;/vniUAcEO7VPLbviq/TdNuJDe3mqxxm51FViktVPqJHbRhgkJYhQ+8jsxp1YjcAHFVK28t3dvbx2&#xA;0eu6ibeJQiI31RmEYFApkNv6poP2i3LuWrviqtpWi6Ci/X7RVvGvIgBfyytdvLA45BVmlaQmJq1C&#xA;qePgMVSTy8db0aa/0W2tzquiaW8cNjIJVW7hV4xKLVlmKpKsCOnGQyBuJCkMylmVTa51bzAYJHtN&#xA;HWF0UkNqNzHDHWh72wvDT6MVQmg3OradpcFrLo15cTjnLc3KPacJJpnMsrqJJ4XUPJIx4lFp0piq&#xA;OOr6zJ8MGh3CSHo11Naxxf7JoZbh/uQ4q16Pmq5/vbm006M7NHbo91KB4pPL6KA/60BxVAeXNEtb&#xA;y1F5qzyatfQXVzEs94wkUG1upIY5UgULbxScUFWjjU4qyfFXYq7FXYq7FXYq7FXYq7FXYq7FXYqg&#xA;10jTxqbam0XO+KemkzkuY02qsQYkRhqVbjTl3rQYqjMVdirsVQ14jq0d1GpZ4KhkAqWjanNQPGoD&#xA;DuaU74qopr2jveix+txreNQxwOeDyKQCGiDU9Rd/tJUduuKo/FUrutfjjvZLKztLjUbqAA3KWwjC&#xA;xFlDKryzPDFzKsDwDcqEEihBxVL9V89adaWFlNaQSX1/qVy1jYaWClvO9xGGMqOLhownpLGxcnt0&#xA;rVaqvMtZ/NCXR/z08t6Pf2f6Ok1lDZ39tI4Yo7hlhnjkX4JY7lvRSuxBioRtir1y5/0bUxL0VmSU&#xA;nuQ4EEor/Kv7pzX/AGlU1xVQv5JYrG4ki/vUido9q/EFJG3zxVT0f/jk2W9f9Hi3AAH2B2FB92Kp&#xA;O+q2ujeZLy3ui4g1ONL6KRI5JeMkSpbTCT01b014rCVLU5Et4YqmtlPDqUcV/E4lsZAslkVNVkUi&#xA;qzVHUN1T2+LvsqjsVdiqA1vVV0yxMwjM9zIwisrVTRpp3rwjXwrSrHoqgsdgcVb0PTn07Sre0lkE&#xA;1woL3U4HESTysZJpApJ485HZqdq4qjsVdirsVdirsVdirsVdirsVdirsVdirsVdirsVdirsVUJ7C&#xA;xuLZrW4t45rZvtQSIrod67qwIxVJtR0fyLplv697pmnwxluKD6rEzu53CRxqheR27KoLHsMVVvJ+&#xA;lJpuiKotEsZLqWW8ltI1VBEbiQusRCALyijKxmg344ql1hoPlHVJNYu7Oa2udSv5Ve51K3WH67CU&#xA;4GBWkALVheEGMONuIqDQ1VfJX/OWOqauv5o6bFqCw/XtL062UXVszKJqTSyrLx2eAksf3fNuPUMa&#xA;4q+hfyk1mC/0W7sUEo06yeNrMy1VvqF5CBx+LcBUaOdyf5ge+Ksi8uz61bQ6bLby3Oq3NxZLcazb&#xA;3UwYtKXpIYC3GOKVJSy+mOEZG3w8RirIxr1yQAujX5m/ai4wLT/ZtMIj9DnFV2l6zazzDTZBPBqM&#xA;UXNre7QLK6IQrSKyVilALLzMbEKSK0qMVSTWDe3Wq6zYaMwl1K+s4rOS8BKx2AVZmVpXHVx6/NI1&#xA;+M1+LilGxVP9H068soBFcXSSqirHDbwQrb28SIKKI0rLJ02+KQjwAxVMMVS7Wtbg0uGKsb3N5cv6&#xA;VjYw0Ms0tK8VqQAFA5MzHio3JxVi36H8xyearrVGvxNrNlYW0ltp5p+jws8twJYEVh6is6wqPrGz&#xA;chUjh+6xVmWm39vqFhb31vX0bmNZUDCjAMK0YdmHQjscVRGKuxV2KuxV2KuxV2KuxV2KuxV2KuxV&#xA;2KuxV2KpRPr7S3Ulno9sdRuYWKXEvP0rWFx1SWej/H/kRo7D9oKDXFWlsPMs4/0rVY7YGppY2yq4&#xA;r253LXKtTx9MfLwVXfoG4kNLnWL+4i/33yhg/wCHtooJP+GxVDFvJmg3ZkuLq3g1EoB615cerdmN&#xA;jsoknd5ipK7LWmKp1a3Vvd20VzbuJLedRJFIOjIwqrCvYjFVXFX53/8AOQmpyaj+c3mqdySY7z6q&#xA;tey2sawD/k3ir0X8ifzHm0Swj1zVrOWby5ZiDQde1JTGVgS4eQQzOvNZT8IgjZgpokQ7nFX1R5Qu&#xA;THLqOlO/qNBMbuCUUIkivGaQvUfzTiVgOyFPHFWR4qkHmLnd6jYadYHhqiFrn66N/qkBRoXkK/ZZ&#xA;pOZSJH+Hl8dG9MjFU2sNPstOtFtrWMRQpVjUkszMas7u1Wd2O7MxqTucVda6npt3I8Vrdw3Esf8A&#xA;eJFIjsv+sFJI64qp6rq9rpsUbShpZ529K0tIgDLPLQsEjUkDoCSSQqipYgAnFUPo+lXMU0upam6z&#xA;arcVB47x28JIIt4CQp4igLuRV23NAFVVVPy6wu5dS1UbpeXLR2zHr6FqPQWhGxVpUkkU9w+KrvKl&#xA;G0VJl/urqe6uoD4w3NzJNEfpjkBxVN8VdirsVdirsVdirsVdirsVdirsVdirsVdiqS6rcXV/qA0S&#xA;xlaFQgl1W7jJV4oXqEiiYfZlmKn4huignZihxVNbS0trS2jtbWJYbeFQkUSAKqqOwAxVVxVKtbuG&#xA;hvtEPNkikvjHKQSFIa0uAgem1DJxAr+1TvTFU04ryDUHIAgN3ANKj8MVYfpvlO3SO/jsYzpWsWV9&#xA;NJa6jGhCyRzObmJGHSW3CT+k0Z2BU8eLBWCrKrCW7ls4ZLyAW10yj14FcSKr9GCuAOS1+yaA06gH&#xA;bFX50/ncjp+bvm8OCpOqXLAHwaQkH6QcVYUHcKyBiEanJQdjTpUYq9w/L7/nI7WPL2leXxc8bp/L&#xA;0jWl5C/97d6TOFCpE5IAlt2Reu7KI/2Veqr7N8reaND806Daa7olyt3pt6nOGVdiCNmR1O6sp2ZT&#xA;0OKrPL8ayzanqbAetd3ckIPdYrJjbIlf5ecbyU8XPjiqE07RdN1iOe81aI6g/wBbu4lhumaW3RIL&#xA;qSKPhbsfRBCxj4uHI+OKteZbPTWfSrK3to/0obuCWwKIoeGK3mSW4kDAVSMR1RugYsE/bxVNLDRL&#xA;S0upb1mkutQmBR7y4IaQRk1ESUCrHGKD4UUA9TVt8VU/Ml5cwaeLeyf09R1CQWdi9AeEkgJaXidm&#xA;9GNXlI7haYqqzPY6DoLukZSx0q1JWJdyIbeOoUV/yVxVC+S2lbydoLS8fVOnWhk4V48jAlaV3pXF&#xA;U1ubq2tYWnuZUggTd5ZGCIB7s1AMVSsebNEkJ+pySagOgexgmuoif5fWhR4gfmwxVsaxrEoAg0O4&#xA;jZuj3cttFHQ+JikuJB/yL/HbFW/X82PRfqVhDXrJ9amlp/sPq8Vf+CxVsQeam3N9Yx1/Y+qTPT25&#xA;fWUr/wACMVcYPNS/EL2xlp/uv6rNFX/Z/WJKf8CcVa+sebF2+oWMoH7YvJkLfJDbOB/wf04qiLC/&#xA;vriVornTZ7PgK+s7wPExrSienI0n/BIMVR2KuxV2KuxV2KobU9RtdNsZb25JEUQGyjk7MxCoiKN2&#xA;d3YKqjckgYqlPk2US6dNJOjRavLM02sQSrxkjuZVVhEeodYouEaOpIKqKHFU/wAVdiqE1fTIdT06&#xA;aylZoxIAY5kpzikRg8UqVBHOORVdajqMVa0ibUpbFP0lCIb6MmOcIQY3ZDT1Y92ISQfEoJqK0O4x&#xA;VGYq7FXwr/zlr5Tn0X82bnUxGVstfhiu4HA+H1I0WGZa/wA3JOZ/1hirxXFUw0PSTq+oJp6XEVtc&#xA;TqwtWnYJG8oFUiMh+FDJ9lWb4eVKkCpCr2v/AJxa886/5R/MweStSWaCw1mR7a60+dWVre+jUmN+&#xA;DUKMSvpt41FfsjFX1bPd+Y9IudblsNHk1GzlnElkiyRxuJ3hjEh9Nqf6P6g5M4JfkXohFCVVXSrb&#xA;zOumQafbwrpion+k6hdmOa5kmclppUgheSIGR2LcmlNCfsEYqo+VbRbDUPMl/qDkTwTR2095LM0p&#xA;eCCBblZWdljCf71tVEUInRdsVRVnpDa8i6jr8Qlt5f3ljo0q1hhiYVRriNqiWcjc8hxT7KioLsqx&#xA;5o7Kx1y+li1+CxbRplg0fTr+dPQRZIIprmL4m5+nIJFVDuYePw/B+7Kq3VdQ80edEg0q28v3NjoR&#xA;cSavd3s8dql0IWV1trdozNcGGY/bl9EckHEU5llVZYmj61Oire6p6EKgKLXTolt04/ytJJ60u3QN&#xA;GY/liqtbeWNBt7hboWaTXifYvLktc3AHgJ5zJLT25YqmmKuxV2KuxV2KuxV2KuxV2KuxV2KuxVJb&#xA;4Q3PmnToZKSR2VvPdMpO0c8jxw27keLIZ1SvviqX3f6U0/U7TWIre6uIrqIHWUREbhFGqKirAn7x&#xA;pFeR5Pg5txDp8X7viqyDT9V03UYmlsLqK5RDxk9JgxRqV4uBurex3xVFYq7FXYq7FXYq81/P38ql&#xA;/MTyNLZ2qqNe04m60eRiBWQCjwlj0WZdvDlxJ6Yq/Pu7tLqzuprS7he3urd2jngkUq6Opoysp3BB&#xA;xVRxV7p+TX/OSR8r3lnaebtMh1azgX0IddWNW1S2iPRfVb4pYlGwSoIHQmgXFX1d5f8Azj/K3X4k&#xA;k0zzPp7s4BEE0628+/8AxTP6cnf+XFWV2l/Y3ic7S4iuEoDyidXFD0NVJ64qlF8LrS9Vmvktnu9J&#xA;1BR+kYoUMksU0a8FmEShmlWSMLG4QFhxWikFiqqU6Z5gFlHfaTpVvcX8scg/QsBimWNIpkBCTTMi&#xA;rFHBIHG+6x8VALUBVZJomjW+lWSwJSS4esl5d8QrzzuS8kr07u7M1OgrQbYqmGKuxV2KuxV2KuxV&#xA;2KuxV2KuxV2KuxV2KuxV2KpKtlFPq+pu6x3JrZUQsaobdjMgbbYo7eoB7++KuvNSnuItQS2gm+s6&#xA;XcRr6MbqrTHjFMpr8f7plk4v8PLZuIJpVVBavLcx6rYXUFk/6bt4Q86QqGhuLeRgtxapcyCFWkjI&#xA;9VAeJPHoAWxVP7C/tb+0S6tWLQvyA5KyMGRijoyMAysrKVZSKgihxVEYq7FXYq7FXYq8k/Or/nHn&#xA;y5+YsL6lasuleakSkWoqtY5+Iosd0o3YUFA4+Jf8oDjir4o87/l/5s8kau2leY7B7Ofcwy/ahmQf&#xA;twyD4XX5bjvQ4qx3FUbo2j6hrOq2mlaciy397IsFtE8kcKtI5oq+pKyIKnYVbFWQ+bvys/MjyP6d&#xA;x5h0W502IkBLxSksIY9B68DSRhvblXFW9M/N780NMsPqFh5p1KC09RZVjFzIeLJUAKzEsq77qDxP&#xA;cGmKsz0n/nLH857Ca3abU7fUYYFCNb3VrFxlpXeR4hFLX5OMVTXT/wDnMn817dpmuYNMvRItIlkt&#xA;3QRtXqPSkQsPYnFUw8i/85P/AJn6/wCedL03VtcsNI0u+nEMs72KSQxlqlKjkklGeiVMgpWpxV9m&#xA;itBU1PcjYVxV2KuxV2KuxV2KuxV2KuxV2KuxV2KuxV2KpDa3ltZS+ZLme4itIo71C1xPtGpNjagF&#xA;qlK7kDr7YqjJNIgur3T9UkhSDULb4pHCq0hRonQwmQb8A0nLwqMVRF3PBFc2gdWE0zPFBIFLKGKF&#xA;+DsAeKtw77EgDrQFVJdKvm069lgvgqW2pXAezu4q/VxcOipNASx5Kzzo7oWHFuQAPLbFWSYq7FXY&#xA;q7FXYqg9U1SHT4Y3eOSeaeRYba2hCmWWRgW4pyKLsqsxLMAFBJ6Yqw7VtN0rX9P+qeYom1jQ7m6F&#xA;hqemapHb+tZ3LtxgeN7YJxLPIi7Emjq6soB5KvCvzJ/5wyvYnlv/ACDei4hNW/Q18wSRf8mG4Pwt&#xA;7CTj/rHFXzp5k8peZ/LN79R8waXc6Zc78UuY2QOB3Rj8Lr7qSMVR9j+Z35i2EH1a18zamlpxK/VT&#xA;dzPAVPUGJmaMj/Y4qiP+Vm67NZrY6nZaVqlmjB1iuNOtY2DAUJ9e2S3n37/vN8VTaz/MX8vpbyC6&#xA;1v8ALfTrgwKq+jp17e2EThPsl0L3IJ/mP7XfFU+07zd/zjN9Ze41DyJq9HLEWiai0kS1JoFIe2ko&#xA;B4tir3T8nPy9/wCcevPGjv5h0TyTLax21x6JTVHuJkZ4wGqgknnikWjfEPHYjFXv2KuxV2KuxV2K&#xA;uxV2KuxV2KuxV2KuxV2KuxVKNIbhrWu277SvPBdov/FMltHCrfTJbSD6MVV72fUoNQsTGBLZTzND&#xA;cIqHlGpiLpIWBbpJHxOwFH/yd1W9Piit7O3KpHGYlaOaGz/3nSRmBloo414uDvSvX3xVZd29lq1k&#xA;1qOE+n31uzhkB4HmQySLKjKQTy5KV3r8QIIxVKPL+t+ahpMI1LR57u5AKC6ge3QShGKepIkz2zIW&#xA;48vhSjLRqKT6aqpjJrepW453ejXIhG7zW7wzhFHUsgdZW+UaMcVWwX/mW9Rp7ewhtLYk/V0vJJBP&#xA;IgNAzxqn7nlSoBLNQ/EFaq4qiIptaFoGuxa297LzSKCMyzRCSpMdZisJIKjf92N+nuqsbXUtNPvr&#xA;nV0S1l02B7u8ihc3HG3XmVkUhI2PIRNtxrUUxVXfTPW1WDUZZnK28TrBZkJwWSSgaUkDkXCjiN9g&#xA;W8dlWNeXlOo39k8hEnH1dbvZBUBprpngsQP5o1t0kC/6sZ64qzPFUNqWl6Zqdq1nqVpDfWj/AG7e&#xA;5jSaM/NHDKcVeUeav+cVPyg14vLb2E2h3L1Pq6bL6aV6/wBzIJYgPZVGKvNL/wD5wcf1ydP83AQG&#xA;tEuLKrqO3xJNRv8AgRirH9Z/5wp8+2ys+k61p2oBdwkvrW0jfIcZk+9hirBNW/5xr/OrTJGV/Lct&#xA;yg+zLaSwThtq1ARy46d1GKvrT/nGrS/NOk/lNp+leY9Pk027sp7lLe3nXhL6DSmRWdDuvxuwFe1D&#xA;ir0+C4guI/VgkWWMllDowZaqSrCo8GBBxVfirsVdirsVdirsVdirsVdirsVdirsVdirHvMNor6rb&#xA;ApGyara3WmOkgJR5Sn1iD1OJDcUWKboa/Fiq6zh1jS7zSbSeZtTglhktrm8PqCRZYwZY5GTk0fpl&#xA;VZCzfHy41ZuRoqmjhLia6srn05IJIx+4bctG4KvyH8p6ff7YquesUS2tkscbxiMJGVIRYuQVuIHE&#xA;fCgNADttiqHtrqO9vtSspQtxDaSRKaxgIrNEknpHkW5utVk5UAo6jqCcVXuY4dOhubm9jSK2jElz&#xA;fMEVGiVauSzllRGoCxr0798VSTWl1CfQrzTIbKOaRVgTTp4GZUT1DxiuOKqzR/V3XlRC5oAe+yrJ&#xA;JYJJJoZBO8aRFi8KiMpLUUAfkrMOJ+IcGXfrUbYqxXX2tG1C9hvpPqlrrVlDp6XUifDb3UbTPF6t&#xA;SFpJ9Y/dkniWQrWrKCqra5qetxaWyaksOlwyAxXN5bTPPO5YECOxiEau80nRK7qeiviqzT477y3p&#xA;wvZ7WJLOZ0fUII3PKzhAWCJU+0jR20KIJKEdHcVrxKrLMVQUGou+r3enSxhDDHFPBIDUSRy8lOxA&#xA;oyPGa0rsV8aYqjcVdirsVdirsVY3qy32hX6X+mRxSWmpXCRajazyNFGk8tEiuUdUmKl3CROgSjFg&#xA;/wANG5Ko7j5reg9Swt67k8Jp6e1OcFfnX6MVb+reav8Aq42Pt/oM3/ZXirhbeaqb6jY17/6DN/2V&#xA;4q4af5gO76soY9RHbKFHyDO7fexxVx0/zCN01ZCw6CS1Vk+kI8bfcwxVo23mvamo2A8f9Bm6f9Je&#xA;Ku9DzWp5fXbCYf77+qzRVH+v9Ylp/wADirvrPmteunWLgdSt7KCfkptafQW+nFUbY3N1PGxubR7O&#xA;RW48HaNw3+UpjZtv9YA+2KonFXYq7FXYql2v2Fxe6ay2hUX8Dpc2TOSq+tCwdVZgCQklOD0H2ScV&#xA;W6Xq1tqnG5hgKLGhEsko4vHJyKvD0PxI0bCQV226g1xVEyMySJIkjyi5dFjoquiKByY1UKQrBftM&#xA;TvT5YqpOYdN5XFzeLBp4ZYo4pOCRq0rokY5tv9s8VFabgU6Yqua5tU1NbBPR9a4ikuJ4ukhVOEYc&#xA;gKQRuF+Ij2rQ4qh9Ht7SGO600QRq8Mhe4EVnJa2zmYmRTHz5xyHjTmUdvirXiTTFVfS7c2Vk6tAk&#xA;CGWWZbeBPsLLIZNwpbk5LFn49yaV64quezCaj9fi5GaZI7eZSWZPSjMjAqpYKjcpPiYCrAAHtRVS&#xA;vTFaW7QiI3El9KV4ShmjdpOqyOFZUXgOI5bdF3NAVUm1CyttIhhl0HRrO31eSSOL1YLT1USJ5Qsx&#xA;rD6D/Cu+5Ar123xVKbSfXPNcWmy2cX1P0VuLbXry7UHiZwFu7G3hZXSUxSrxLN8KMgFZPjXFWVSa&#xA;LfJGiWWr3NssKIkMLJbzRfu1Cj1C8XrOGp8X70E9iMVQ+hm+uNb1Ge99MzWccFg5h5CMygNcSOgb&#xA;4gHjnh2NaEEVNKlVPsVdirsVdirsVWyxRSoY5UWSNvtIwBB+YOKrsVdirsVdirsVdirsVdirsVdi&#xA;rsVdirsVdirH9WH6FvX1uPbTbii65GNuAUcUvRT/AH2AFl/4ro1f3dCqm4ubC3+q2yuqfWKpaRrv&#xA;yCIXPGnYKOv9cVQd/pYv7FbOGaONI7yOeYPCr/3U4uOASqBWJC0cg/zUJNcVRdxdxw2st3dM1nb2&#xA;vKSZ34EGOMEljTn8NN+xxVfJG0cjXIRppKBEjVqUQkV2Zgla7k9abYqgW1azS6sbe8LpqN7E5jgt&#xA;vrE8VFKLKeaIq8UaRR6jqvXtirUGtQPpN1LpsElzPpzPbyWBakyyw7em3IsalaMp35KQwrUVVQC/&#xA;pK40m6m0l5hcXDPcR294U9WKeKYBoGB5D02KMmzUAHwtuGCqGFrNqguNE06SbSrEepJrMkTRtNHc&#xA;XUjXElvDIBIodzMWlap4qVCgFqqqybTtPs9NsYLCyjENrbII4YwSaKvizEsx8STUnc4qiMVSnywA&#xA;bC5krV5L+/5t3JS8ljX7lQL9GKptirsVdirsVdirsVdirsVdirsVdirsVdirsVdiqhe39jYw+te3&#xA;MVrCSF9WZ1jXkeg5MQK7Yqgf8WeVf+rzY/8ASTD/AM1YqrQeYNBuATBqVrKF2YpPGwB96NiqKgu7&#xA;W45fV5o5uNOXpsGpXpWh9sVVcVcQCKHcHqMVYu1kPK7rc2sSz6InJFtfh9eyWVgzi1LU5QEqpMAN&#xA;Vp8FaLGFU10LVNL1a2nurC6hulaVo5ntnJ4soHFJFryjlWMrzU0IxV15He2tpCLKFZ55ri3S6Ri7&#xA;BoiUjnfm5anCFS3xfapT7TVxVfepqBuZBYziKeSFSvrq0kCmNz0jUxklw5DESbUXbxVQn6ftYdCi&#xA;1rXIBpzQsyuk3VH9Qw1jLiNiJOqfCGZSPhrtiqhrGk6VBrJ1e5luq6pBHo09rDIUicSyN6cjIpV/&#xA;UT1GAdDVVJPQVCqF1WJbj09A0ya4NzHwtppUZpvqUIpI8sl1IrSevJAQoVnYksCVK8mxVkmn6fZa&#xA;faR2llEsNvHXii+LHkzMTUszMSWY7k7nfFURirsVSXSn+p63qOluaLO36RsFJ2MctFuFXxKT1d/D&#xA;1F8cVTrFXYq7FXYq7FXYq7FXYq7FXYq7FXYq7FXYq7FXYq7FVGeys7hg08EcrAUDOisQPDcYqgj5&#xA;Z0CSONLjT7a6MYosk8ETtv78cVU18reUZOQXSNPfieLgW8JoadD8Pviq2Pyb5VStdIspCWZgXtoC&#xA;V5H7Iog2GKq8Plny3C4kh0mzjkHR0t4lO/uFxVufy55euHD3Gl2kzgcQ0kETGg6CpU4qpHyj5UPX&#xA;RbA9v95oeh/2OKu/wroan/R4Hsx/LZTTWi/8DbvEMVUrry3brbv6WpajaxKvJ+NzJOaLuf8Aej6w&#xA;dx2GKtv5cuJGjabWb2T0q8TwslYBhRgrpbI6chtVGBxVDw6Va2VtH9Q1u4s7Wd/9HiAtpFaSVu7S&#xA;wvNIzOasWcse5xVG/o7Xv+rv/wBO8f8AXFVk2k640UjLrc6zhT6SxxWyRlqbc+cM7detPuxVf+hd&#xA;Sr/x3r75cLH/ALJcVQbeVr65NlcXet3ovbQ+ojxCzAV3QpIoP1VeSEMRRh4HqAQqjP0LqX/V+vv+&#xA;Asf+yXFWv0NqYHw69elh05x2RUn/ACgtupp8iMVbOn+YRumrIWHQSWqsn0hHjb7mGKuNt5q7ajY/&#xA;9IM3/ZXirjbeau2o2P8A0gzf9leKu+reav8Aq42P/SDN/wBleKuH+Kqb/Ua9/wC+xVRe/wDM0NzF&#xA;atZWk8kyu6SrLcxoAnGodhbTIh+L4eTgtvQbHFVY3Pmrtp1j/wBJ03/ZJirvrPmr/q3WP/SdN/2S&#xA;Yq76z5qr/wAc6xp/zHTf9kmKu+s+av8Aq3WP/SdN/wBkmKuGoeYBs2kKWGxKXKFT/qllQ0+YGKu/&#xA;SOvf9Wj/AKeI/wCmKoqxvbq5LifT57LjShmaBg1f5fRllO3uBiqLxVTt3meFWmjEUpryjDcwN9vi&#xA;oO2KuhgjhDiOtHdpG5MzfExqaciaD2G2KqmKrUjjQsUUKXPJ6ACrdKn32xVwjjEjSBQJGADOAKkL&#xA;WgJ9qnFV2KrI4Yo2kdFCtK3OQj9pgoSp/wBioGKr8VUDLeUtv3CkyNS5Hqf3S8GPJfh+P4wq0261&#xA;7UKqvirsVUJ5rVJKyrykhRplIRnIUCjFaA779BucVXG5jEKTUcpIUCgI5b94Qq1UDkPtfFUfCNzQ&#xA;A4qq4q7FWkYsgYqUJFSjUqPY0JH44qtinhlaRY3DmFvTlA/ZbiGofoYYqvxV2KuxV2KqMl5BGju5&#xA;YLG6xsQrH4nKgUoN/tjcbD6Dirf1u3+qm6L8bdVMjOwK0VRUkhqEYqqKysoZTVWFQfY4q3iqyaIS&#xA;wyRFmQSKVLoSrCopVWG4PgcVX4q7FVC6tjcK0MjD6pLFJHPGOayEvQArKjKUovLoK7ggim6qvirs&#xA;VdirsVdirsVdirsVdirsVdirsVdirsVdirsVdirsVdirsVdirsVdirsVdirsVdirsVdirsVdirsV&#xA;dirsVf/Z</xmpGImg:image>
               </rdf:li>
            </rdf:Alt>
         </xmp:Thumbnails>
      </rdf:Description>
      <rdf:Description rdf:about=""
            xmlns:xmpMM="http://ns.adobe.com/xap/1.0/mm/"
            xmlns:stRef="http://ns.adobe.com/xap/1.0/sType/ResourceRef#"
            xmlns:stEvt="http://ns.adobe.com/xap/1.0/sType/ResourceEvent#">
         <xmpMM:InstanceID>xmp.iid:EC6909DB7E20E411B291B65851995CE6</xmpMM:InstanceID>
         <xmpMM:DocumentID>xmp.did:EC6909DB7E20E411B291B65851995CE6</xmpMM:DocumentID>
         <xmpMM:OriginalDocumentID>uuid:5D20892493BFDB11914A8590D31508C8</xmpMM:OriginalDocumentID>
         <xmpMM:RenditionClass>proof:pdf</xmpMM:RenditionClass>
         <xmpMM:DerivedFrom rdf:parseType="Resource">
            <stRef:instanceID>xmp.iid:FA8B765B9D07E41183468BB91137401D</stRef:instanceID>
            <stRef:documentID>xmp.did:FA8B765B9D07E41183468BB91137401D</stRef:documentID>
            <stRef:originalDocumentID>uuid:5D20892493BFDB11914A8590D31508C8</stRef:originalDocumentID>
            <stRef:renditionClass>proof:pdf</stRef:renditionClass>
         </xmpMM:DerivedFrom>
         <xmpMM:History>
            <rdf:Seq>
               <rdf:li rdf:parseType="Resource">
                  <stEvt:action>saved</stEvt:action>
                  <stEvt:instanceID>xmp.iid:FA8B765B9D07E41183468BB91137401D</stEvt:instanceID>
                  <stEvt:when>2014-07-09T21:38:42+02:00</stEvt:when>
                  <stEvt:softwareAgent>Adobe Illustrator CS5</stEvt:softwareAgent>
                  <stEvt:changed>/</stEvt:changed>
               </rdf:li>
               <rdf:li rdf:parseType="Resource">
                  <stEvt:action>saved</stEvt:action>
                  <stEvt:instanceID>xmp.iid:EC6909DB7E20E411B291B65851995CE6</stEvt:instanceID>
                  <stEvt:when>2014-08-10T13:09:54+02:00</stEvt:when>
                  <stEvt:softwareAgent>Adobe Illustrator CS5</stEvt:softwareAgent>
                  <stEvt:changed>/</stEvt:changed>
               </rdf:li>
            </rdf:Seq>
         </xmpMM:History>
      </rdf:Description>
      <rdf:Description rdf:about=""
            xmlns:illustrator="http://ns.adobe.com/illustrator/1.0/">
         <illustrator:StartupProfile>Print</illustrator:StartupProfile>
      </rdf:Description>
      <rdf:Description rdf:about=""
            xmlns:xmpTPg="http://ns.adobe.com/xap/1.0/t/pg/"
            xmlns:stDim="http://ns.adobe.com/xap/1.0/sType/Dimensions#"
            xmlns:xmpG="http://ns.adobe.com/xap/1.0/g/">
         <xmpTPg:HasVisibleOverprint>False</xmpTPg:HasVisibleOverprint>
         <xmpTPg:HasVisibleTransparency>False</xmpTPg:HasVisibleTransparency>
         <xmpTPg:NPages>1</xmpTPg:NPages>
         <xmpTPg:MaxPageSize rdf:parseType="Resource">
            <stDim:w>108.331028</stDim:w>
            <stDim:h>82.550000</stDim:h>
            <stDim:unit>Millimeters</stDim:unit>
         </xmpTPg:MaxPageSize>
         <xmpTPg:PlateNames>
            <rdf:Seq>
               <rdf:li>Cyan</rdf:li>
               <rdf:li>Magenta</rdf:li>
               <rdf:li>Yellow</rdf:li>
               <rdf:li>Black</rdf:li>
            </rdf:Seq>
         </xmpTPg:PlateNames>
         <xmpTPg:SwatchGroups>
            <rdf:Seq>
               <rdf:li rdf:parseType="Resource">
                  <xmpG:groupName>Default Swatch Group</xmpG:groupName>
                  <xmpG:groupType>0</xmpG:groupType>
               </rdf:li>
            </rdf:Seq>
         </xmpTPg:SwatchGroups>
      </rdf:Description>
      <rdf:Description rdf:about=""
            xmlns:pdf="http://ns.adobe.com/pdf/1.3/">
         <pdf:Producer>Adobe PDF library 9.90</pdf:Producer>
      </rdf:Description>
   </rdf:RDF>
</x:xmpmeta>
                                                                                                    
                                                                                                    
                                                                                                    
                                                                                                    
                                                                                                    
                                                                                                    
                                                                                                    
                                                                                                    
                                                                                                    
                                                                                                    
                                                                                                    
                                                                                                    
                                                                                                    
                                                                                                    
                                                                                                    
                                                                                                    
                                                                                                    
                                                                                                    
                                                                                                    
                                                                                                    
                           
<?xpacket end="w"?>
	</metadata>
<g>
	<g>
		<g>
			<g>
				<g>
					<defs>
						<rect id="SVGID_1_" x="54.633" y="18.663" width="307.08" height="234"/>
					</defs>
					<clipPath id="SVGID_2_">
						<use xlink:href="#SVGID_1_"  overflow="visible"/>
					</clipPath>
					<g transform="matrix(1 0 0 1 -2.781284e-006 -1.504544e-006)" clip-path="url(#SVGID_2_)">
						<g>
							<g>
								<path d="M208.532,103.95c1.584-0.052-0.034,0.878,0.357,1.792C208.112,105.802,208.729,104.471,208.532,103.95z"/>
								<path d="M151.134,131.9c-0.142-0.695,1.634-0.523,1.076,0.355c-0.239,0-0.478,0-0.717,0
									C151.559,131.954,151.353,131.921,151.134,131.9z"/>
								<path d="M105.574,155.91c0.239,0,0.478,0,0.717,0c0.167,0.765-0.512,0.684-1.076,0.717
									C105.284,156.337,105.575,156.27,105.574,155.91z"/>
								<path d="M103.422,156.27c1.079-0.558,1.079,1.988,0,1.436C104.019,156.99,103.389,157.246,103.422,156.27z"/>
								<path d="M103.063,158.777c0.514,0.439,0.68,1.229,0.717,2.146C102.864,160.887,103.068,159.727,103.063,158.777z"/>
								<path d="M110.955,165.229C109.336,166.044,108.784,163.508,110.955,165.229L110.955,165.229z"/>
								<path d="M116.695,169.169c0.265,0.571,1.756-0.082,1.435,1.075c-0.846-0.877-0.667,0.535-1.793,0.357
									C116.962,169.871,116.069,169.898,116.695,169.169z"/>
								<path d="M118.848,171.678c1.108,0.668-1.25,1.967-1.794,1.074C117.203,171.945,119.021,172.807,118.848,171.678z"/>
								<path d="M101.269,175.979c0.353-1.1,0.958,0.412,1.435,0.357C102.352,177.436,101.747,175.924,101.269,175.979z"/>
								<path d="M121.717,177.053C122.805,175.729,122.926,178.141,121.717,177.053L121.717,177.053z"/>
								<path d="M102.704,177.411c0.481,0.235,0.668,0.767,0.718,1.433C102.343,179.205,102.786,178.046,102.704,177.411z"/>
								<path d="M100.552,180.994C102.76,179.654,102.898,182.044,100.552,180.994L100.552,180.994z"/>
								<path d="M117.771,183.145c0.633-0.111,0.641,2.008-0.358,1.437C117.261,183.829,117.658,183.629,117.771,183.145z"/>
								<path d="M165.842,185.652c-0.11,0.486-0.897,0.298-1.435,0.355C164.507,185.182,165.365,185.188,165.842,185.652z"/>
								<path d="M105.215,186.012c-0.101-0.57,1.938-0.502,1.076,0.357C106.43,186.23,105.211,185.986,105.215,186.012z"/>
								<path d="M113.825,190.67c-0.142-0.695,1.634-0.523,1.076,0.357c-0.239,0-0.479,0-0.717,0
									C114.25,190.725,114.044,190.689,113.825,190.67z"/>
								<path d="M150.417,191.387c0.496-1.037,1.269,0.604,1.076,1.434C150.502,192.975,151.156,191.482,150.417,191.387z"/>
								<path d="M139.654,191.745c0.239,0,0.479,0,0.717,0c0.168,0.765-0.512,0.683-1.076,0.716
									C139.364,192.171,139.655,192.104,139.654,191.745z"/>
								<path d="M106.292,193.178c0.438-1.084,1.369,0.254,1.794,0.358C107.647,194.621,106.716,193.283,106.292,193.178z"/>
								<path d="M148.981,193.895c-0.044,0.912-0.522,1.393-1.435,1.437C148.083,194.908,147.969,193.839,148.981,193.895z"/>
								<path d="M133.915,195.328C135.002,194.003,135.123,196.416,133.915,195.328L133.915,195.328z"/>
								<path d="M152.21,194.971c0.969,0.319-0.167,1.453-1.076,1.074C151.024,195.219,152.17,195.646,152.21,194.971z"/>
								<path d="M153.286,196.762c0.239,0,0.479,0,0.718,0c0.167,0.766-0.513,0.684-1.076,0.717
									C152.996,197.188,153.288,197.121,153.286,196.762z"/>
								<path d="M116.336,199.628c0.946-0.108,0.925,0.748,1.076,1.435C116.466,201.171,116.487,200.313,116.336,199.628z"/>
								<path d="M149.34,200.346C151.097,199.02,151.49,201.449,149.34,200.346L149.34,200.346z"/>
								<path d="M152.928,201.42c0.075,0.613-0.612,0.93,0,1.075c-0.154,0.991-1.128,0.019-0.718-0.718c-0.358,0-0.717,0-1.076,0
									C151.382,200.654,152.091,201.313,152.928,201.42z"/>
								<path d="M107.368,202.137c0.236-1.072,0.767,0.344,1.435,0C108.749,203.027,107.588,202.24,107.368,202.137z"/>
								<path d="M190.597,203.212c0.237,0,0.479,0,0.717,0c0,0.238,0,0.478,0,0.718c-0.238,0-0.479,0-0.717,0
									C190.597,203.689,190.597,203.45,190.597,203.212z"/>
								<path d="M126.381,203.93c0.239,0,0.479,0,0.718,0c0,0.237,0,0.479,0,0.717c-0.239,0-0.479,0-0.718,0
									C126.381,204.406,126.381,204.167,126.381,203.93z"/>
								<path d="M141.448,204.646c0.305-1.055,0.903,0.465,1.794,0C142.958,205.902,141.987,205.059,141.448,204.646z"/>
								<path d="M166.201,204.646c0.44,0.154,0.735,0.457,0.718,1.074C166.478,205.563,166.183,205.262,166.201,204.646z"/>
								<path d="M136.426,205.721c0.36-0.902,1.586,0.285,1.435,1.074C137.129,206.689,137.157,205.825,136.426,205.721z"/>
								<path d="M108.444,206.078C110.201,205.962,105.595,206.27,108.444,206.078L108.444,206.078z"/>
								<path d="M105.933,207.152c0.723,0.473,1.213,1.178,1.435,2.148C106.256,209.221,106.249,208.033,105.933,207.152z"/>
								<path d="M143.601,208.587c0.668-0.343,1.199,1.073,1.435,0C146.666,209.193,142.975,210.038,143.601,208.587z"/>
								<path d="M129.609,209.662c0.756-1.579,1.44,2.42-0.358,1.434C129.197,210.618,130.709,210.014,129.609,209.662z"/>
								<path d="M112.031,210.021c0.361-0.901,1.586,0.285,1.435,1.074C112.315,211.409,112.723,210.166,112.031,210.021z"/>
								<path d="M122.793,210.736c0.146-0.895,1.391-0.021,1.076,0.718C123.398,211.327,123.306,210.822,122.793,210.736z"/>
								<path d="M137.502,213.604c0.236-1.07,0.767,0.346,1.435,0C138.883,214.495,137.722,213.709,137.502,213.604z"/>
								<path d="M151.852,215.754C151.063,216.85,149.554,215.34,151.852,215.754L151.852,215.754z"/>
								<path d="M148.264,216.471c0.225-0.871,1.813-0.188,1.435,0.717C148.986,217.184,149.243,216.21,148.264,216.471z"/>
								<path d="M132.479,216.829c0.326-0.974,1.257,0.364,1.793,0.358C133.947,218.16,133.016,216.822,132.479,216.829z"/>
								<path d="M171.224,218.264c0.609-0.133,0.678,0.278,0.719,0.715c-0.305-0.063-0.338,0.144-0.358,0.358
									C171.162,219.279,171.278,218.684,171.224,218.264z"/>
								<path d="M170.862,221.129c1.082,1.225-1.163,1.077-2.15,0.717C168.763,220.316,170.313,222.335,170.862,221.129z"/>
								<path d="M144.677,222.204C146.321,222.443,144.388,224.373,144.677,222.204L144.677,222.204z"/>
								<path d="M138.937,223.639c-0.086,0.629-0.618,0.815-1.435,0.717C137.14,223.275,138.301,223.719,138.937,223.639z"/>
								<path d="M123.87,223.996c0.792,0.044,0.152,1.52,0.359,2.148C123.245,226.139,123.376,224.455,123.87,223.996z"/>
								<path d="M138.937,225.07c0.686-1.648,1.427,2.406,0,1.791C139.144,226.646,139.776,225.163,138.937,225.07z"/>
								<path d="M144.677,228.296c0.352-1.099,0.957,0.412,1.435,0.358C145.759,229.753,145.154,228.242,144.677,228.296z"/>
								<path d="M160.461,230.805c-0.05,1.024-1.496,0.655-2.511,0.717C158.296,230.792,159.328,230.747,160.461,230.805z"/>
								<path d="M84.05,231.88c0.239,0,0.479,0,0.717,0c0,0.238,0,0.478,0,0.716c-0.239,0-0.478,0-0.717,0
									C84.05,232.357,84.05,232.118,84.05,231.88z"/>
								<path d="M104.498,231.88c0.239,0,0.478,0,0.717,0c0,0.238,0,0.478,0,0.716c-0.239,0-0.478,0-0.717,0
									C104.498,232.357,104.498,232.118,104.498,231.88z"/>
								<path d="M197.411,234.389c0.238,0,0.479,0,0.717,0c0,0.238,0,0.479,0,0.717c-0.238,0-0.479,0-0.717,0
									C197.411,234.865,197.411,234.627,197.411,234.389z"/>
								<path d="M208.532,234.389c0.238,0,0.478,0,0.717,0c0,0.238,0,0.479,0,0.717c-0.239,0-0.479,0-0.717,0
									C208.532,234.865,208.532,234.627,208.532,234.389z"/>
								<path d="M290.325,237.255c0.238,0,0.479,0,0.717,0c0,0.238,0,0.478,0,0.718c-0.238,0-0.479,0-0.717,0
									C290.325,237.732,290.325,237.493,290.325,237.255z"/>
								<path d="M159.024,237.613c0.473,0.125,0.563,0.631,1.078,0.717C159.957,239.223,158.711,238.352,159.024,237.613z"/>
								<path d="M170.506,237.973c0.239,0,0.479,0,0.718,0c0,0.237,0,0.479,0,0.717c-0.238,0-0.479,0-0.718,0
									C170.506,238.449,170.506,238.21,170.506,237.973z"/>
								<path d="M177.321,237.973c0.238,0,0.479,0,0.718,0c0,0.237,0,0.479,0,0.717c-0.239,0-0.479,0-0.718,0
									C177.321,238.449,177.321,238.21,177.321,237.973z"/>
								<path d="M95.171,239.046c0.239,0,0.478,0,0.717,0c0,0.239,0,0.479,0,0.718c-0.239,0-0.479,0-0.717,0
									C95.171,239.523,95.171,239.285,95.171,239.046z"/>
								<path d="M175.526,239.046c0.24,0,0.479,0,0.72,0c0,0.239,0,0.479,0,0.718c-0.239,0-0.479,0-0.72,0
									C175.526,239.523,175.526,239.285,175.526,239.046z"/>
								<path d="M124.229,240.121c0.239,0,0.479,0,0.717,0c0,0.238,0,0.479,0,0.717c-0.239,0-0.478,0-0.717,0
									C124.229,240.6,124.229,240.359,124.229,240.121z"/>
								<path d="M75.799,240.479c0.239,0,0.479,0,0.717,0c0,0.24,0,0.479,0,0.717c-0.239,0-0.478,0-0.717,0
									C75.799,240.957,75.799,240.719,75.799,240.479z"/>
								<path d="M341.624,240.479c0.238,0,0.479,0,0.718,0c0,0.24,0,0.479,0,0.717c-0.239,0-0.479,0-0.718,0
									C341.624,240.957,341.624,240.719,341.624,240.479z"/>
								<path d="M312.925,241.195c0.238,0,0.479,0,0.717,0c0,0.24,0,0.479,0,0.718c-0.238,0-0.479,0-0.717,0
									C312.925,241.674,312.925,241.436,312.925,241.195z"/>
								<path d="M338.037,242.988c0.239,0,0.479,0,0.718,0c0,0.238,0,0.478,0,0.717c-0.238,0-0.479,0-0.718,0
									C338.037,243.466,338.037,243.229,338.037,242.988z"/>
								<path d="M147.546,244.422c0.766-0.168,0.684,0.512,0.718,1.074c-0.359,0-0.718,0-1.076,0
									C147.377,245.208,147.562,244.915,147.546,244.422z"/>
								<path d="M65.037,244.779c0.239,0,0.479,0,0.718,0c0,0.238,0,0.479,0,0.717c-0.239,0-0.479,0-0.718,0
									C65.037,245.258,65.037,245.02,65.037,244.779z"/>
								<path d="M142.524,244.779c0.362,1.078-0.799,0.636-1.435,0.717C141.325,245.016,141.856,244.829,142.524,244.779z"/>
								<path d="M208.532,245.854c0.578-0.101,0.615,0.34,1.074,0.358C209.75,246.908,207.976,246.736,208.532,245.854z"/>
								<path d="M179.115,246.93C180.76,247.169,178.827,249.1,179.115,246.93L179.115,246.93z"/>
								<path d="M186.647,246.93c0.24,0,0.479,0,0.719,0c0,0.239,0,0.479,0,0.717c-0.239,0-0.479,0-0.719,0
									C186.647,247.408,186.647,247.169,186.647,246.93z"/>
								<path d="M174.452,247.288c0.238,0,0.479,0,0.718,0c0,0.239,0,0.478,0,0.717c-0.237,0-0.479,0-0.718,0
									C174.452,247.766,174.452,247.527,174.452,247.288z"/>
								<path d="M269.159,247.288c-0.156,0.44-0.459,0.735-1.076,0.717C268.239,247.564,268.542,247.27,269.159,247.288z"/>
								<path d="M273.463,247.288c0.239,0,0.479,0,0.72,0c0,0.239,0,0.478,0,0.717c-0.24,0-0.479,0-0.72,0
									C273.463,247.766,273.463,247.527,273.463,247.288z"/>
								<path d="M275.976,247.288c0.238,0,0.479,0,0.717,0c0,0.239,0,0.478,0,0.717c-0.237,0-0.479,0-0.717,0
									C275.976,247.766,275.976,247.527,275.976,247.288z"/>
								<path d="M220.013,248.005C221.101,246.68,221.222,249.094,220.013,248.005L220.013,248.005z"/>
								<path d="M284.228,248.005C285.313,246.68,285.435,249.094,284.228,248.005L284.228,248.005z"/>
								<path d="M216.424,94.274c-0.577-0.101-0.616,0.339-1.075,0.358v-0.358h-0.356c0.526-1.264,0.934-2.651,0.717-4.658
									l0.538,0.179l0.538,0.179c-0.046,1.478,0.623,2.244,0.358,3.941l-0.539-0.179L216.424,94.274z"/>
								<path d="M176.246,109.863l0.358-0.179c0.873,1.755,0.842,4.414,2.15,5.733l-0.18,0.538l0.537,0.179
									c-0.615,2.132,0.721,5.192,1.436,7.167h-0.357v0.358c-0.119,0-0.237,0-0.357,0c0.126,1.067,0.207,2.182,1.076,2.508
									l0.179,0.538l0.181-0.538c0.777,1.74,1.453,4.229,1.793,5.375l-0.18,0.537l0.538,0.179c-0.194,1.905,1.451,2.521,2.87,1.793
									c0.126-1.439-0.005-2.623-1.076-2.867l0.182-0.539l0.179-0.537c0.306,0.066,0.339-0.14,0.358-0.356l0.357,0.181l0.357-0.181
									c3.563,4.206,5.521,10.017,10.045,13.26c-0.75-1.879-1.813-3.444-2.869-5.018h0.359v-0.357
									c0.764,0.166,0.682-0.514,0.717-1.075l0.357,0.181l0.357-0.181c3.314,5.646,9.771,8.157,10.763,16.125
									c-4.831,3.443-8.058-2.873-11.121-4.658c-0.043,3.512,4.583,5.453,6.457,8.242c2.703,0.662,4.349,2.941,6.815,3.94
									c4.502,1.822,9.625,1.979,15.065,2.51c3.521,0.343,7.063,0.7,9.327,2.509c1.214,0.137,0.563-1.586,2.152-1.074
									c1.688,0.343,3.451,0.611,4.305,1.791c1.977-1.41,4.891-0.322,6.458,0.718c2.052-1.521,5.802-1.239,7.533,0.356
									c2.745-0.994,7.2-2.074,10.762-1.074l-0.179,0.537l0.179,0.537c-2.875,2.375,1.446,3.422,1.437,6.092
									c-2.215,1.803-7.396,0.963-11.479,1.436c-2.947,0.342-6.086,1.67-7.531-1.074c-1.604,1.713-6.106,2.137-7.177-0.356
									c-1.837,1.815-5.923,1.09-7.175-0.718c-6.188,2.858-10.45-5.227-16.859-2.148c1.715,3.416,6.122,3.122,9.688,3.583
									c10.188,1.317,22.781,4.528,33.359,4.301c-0.164,1.119,0.77,1.146,1.795,1.074c-0.271,1.761-1.972,2.095-2.15,3.94
									c0.72,2.392,2.007,4.367,0.355,6.451c-6.188,0.392-13.604-2.173-20.808-2.867c-1.278-0.123-2.459,0.095-3.944,0
									c-5.328-0.336-10.675-2.328-16.145-3.94c-9.551-2.815-19.168-8.063-26.905-13.26c-4.043-2.716-8.274-5.849-11.12-8.959
									c-1.543-1.685-4.859-7.548-5.74-9.675c-2.819-6.81-3.026-17.183-1.436-25.084c0.377-1.869,2.063-4.252,0-5.375l0.538-0.18
									l-0.179-0.537c0.58-0.102,0.617,0.338,1.076,0.357c0.633-0.6-0.318-1.201,0-2.51l0.537,0.18l0.18-0.538
									c1.078,0.36,0.636-0.798,0.718-1.433c-0.239,0-0.479,0-0.718,0l-0.358-0.179l-0.358,0.179
									c-0.65-0.932,0.154-1.081-0.357-2.15l0.538,0.179l-0.181-0.538c0.119,0,0.238,0,0.358,0
									c0.877-1.134-0.127-3.443-0.358-4.659l0.418-0.06l0.299-0.299c0.732,0.225,0.103,1.811,1.437,1.434L176.246,109.863z"/>
								<path d="M221.446,67.398c-0.188,0.289-0.375,0.582-0.358,1.075l-0.537-0.179l-0.18,0.538
									c-1.317-0.188-1.035-1.973-2.513-1.075l0.129-0.64l-0.486-0.435c0.79-0.996,2.559,0.05,3.587,0l-0.179,0.537L221.446,67.398
									z"/>
								<path d="M220.909,69.011l0.179-0.538c0.487,0.111,0.3,0.897,0.358,1.434l-0.537-0.179l-0.182,0.538
									c-0.485-0.111-0.297-0.897-0.356-1.434L220.909,69.011z"/>
								<path d="M126.381,185.295c-0.106-0.641,1.392-0.021,1.076,0.717C126.662,186.208,126.946,185.327,126.381,185.295z"/>
								<path d="M155.08,211.813c0.538-1.185,0.877,0.744,1.793,0.357C156.547,213.145,155.617,211.807,155.08,211.813z"/>
								<path d="M131.044,221.846c0.353-1.099,0.957,0.412,1.435,0.358C132.379,223.051,131.521,221.793,131.044,221.846z"/>
								<path d="M146.829,225.43c1.105,0.356-0.4,0.969-0.718,1.074C145.003,226.145,147.142,226.165,146.829,225.43z"/>
								<path d="M106.292,240.121C108.616,239.066,105.243,240.598,106.292,240.121L106.292,240.121z"/>
								<g>
									<path fill="none" stroke="#000000" stroke-width="0.5633" stroke-linecap="round" d="M230.953,34.251
										c0.205,1.026,0.338,2.418,1.437,2.867"/>
									<path fill="none" stroke="#000000" stroke-width="0.3925" stroke-linecap="round" d="M234.899,35.327
										c-0.006-0.472-0.271-0.685-0.358-1.075"/>
									<path fill="none" stroke="#000000" stroke-width="0.424" stroke-linecap="round" d="M236.873,35.147
										c-0.104-0.373-0.216-0.74-0.539-0.896"/>
									<path fill="none" stroke="#000000" stroke-width="0.4808" stroke-linecap="round" d="M332.476,38.91
										c4.863-1.144,9.672-2.523,14.529-3.763"/>
									<path fill="none" stroke="#000000" stroke-width="0.4907" stroke-linecap="round" d="M333.373,42.673
										c4.752-2.05,10.136-2.766,14.888-4.838"/>
									<path fill="none" stroke="#000000" stroke-width="0.474" stroke-linecap="round" d="M334.987,46.436
										c4.861-1.237,9.393-3.373,14.171-4.838"/>
									<path fill="none" stroke="#000000" stroke-width="0.469" stroke-linecap="round" d="M86.382,107.354
										c5.072-3.609,10.555-6.784,15.067-11.108"/>
									<path fill="none" stroke="#000000" stroke-width="0.6415" stroke-linecap="round" d="M208.354,114.163
										c-0.354-2.271-0.352-4.535,0-6.809"/>
									<path fill="none" stroke="#000000" stroke-width="0.4533" stroke-linecap="round" d="M208.711,117.746
										c0-0.239,0-0.478,0-0.717"/>
									<path fill="none" stroke="#000000" stroke-width="0.7283" stroke-linecap="round" d="M160.461,122.941
										c1.304,0.334,2.674,1.127,4.125,0.539"/>
									<path fill="none" stroke="#000000" stroke-width="0.5729" stroke-linecap="round" d="M152.604,135.162
										c4.254-2.438,6.542,2.945,9.112,5.16"/>
									<path fill="none" stroke="#000000" stroke-width="0.6345" stroke-linecap="round" d="M152.604,135.162
										c-0.433,2.46,0.338,4.852,1.581,6.951"/>
									<path fill="none" stroke="#000000" stroke-width="0.5836" stroke-linecap="round" d="M144.497,133.154
										c1.647,1.201,3.489,0.423,5.016-0.521c1.642,0.105,1.833,1.924,3.091,2.527"/>
									<path fill="none" stroke="#000000" stroke-width="0.5748" stroke-linecap="round" d="M137.86,135.126
										c-1.415,5.468,2.397,11.638,5.919,15.588"/>
									<path fill="none" stroke="#000000" stroke-width="0.4568" stroke-linecap="round" d="M100.731,164.331
										c-0.012-0.64,0.16-1.082-0.179-1.612"/>
									<path fill="none" stroke="#000000" stroke-width="0.3583" stroke-linecap="round" d="M107.906,167.197
										c0.196,0.043,0.28,0.197,0.359,0.359"/>
									<path fill="none" stroke="#000000" stroke-width="0.4469" stroke-linecap="round" d="M100.731,168.632
										c0.535,0.058,0.896-0.062,1.077-0.358"/>
									<path fill="none" stroke="#000000" stroke-width="0.3583" stroke-linecap="round" d="M118.31,174.365
										c0.329,0.148,0.581,0.375,0.717,0.717"/>
									<path fill="none" stroke="#000000" stroke-width="0.55" stroke-linecap="round" d="M189.698,175.082
										c3.587-1.623,6.557,2.855,6.98,6.084c-2.791,5.053-4.431,15.588-9.938,19.273c-6.856,4.588-15.533-2.857-12.473-10.666"/>
									<path fill="none" stroke="#000000" stroke-width="0.5433" stroke-linecap="round" d="M182.882,185.115
										c0.061,0.041,0.12,0.082,0.18,0.123c0.209,0.054,0.515,0.191,0.914,0.22c0.283-0.164,0.603-0.328,0.867-0.534
										c0.764-3.17,2.526-8.283,5.836-5.811c2.381,1.781,0.535,4.973-0.703,7.6c1.316,4.489-3.146,11.335-7.804,10.751
										c-3.558-0.446-5.071-5.118-2.877-8.765"/>
									<path fill="none" stroke="#000000" stroke-width="0.5275" stroke-linecap="round" d="M117.951,179.202
										c0.756,0.167,1.303,0.884,1.435,1.612"/>
									<path fill="none" stroke="#000000" stroke-width="0.4296" stroke-linecap="round" d="M123.69,180.1
										c-0.128,0.229-0.423,0.293-0.618,0.457c-0.069,0.293-0.081,0.646-0.095,0.979c0.127,0.229,0.276,0.438,0.354,0.715"/>
									<path fill="none" stroke="#000000" stroke-width="0.5666" stroke-linecap="round" d="M112.928,182.428
										c0.213,0.104,0.645,0.157,1.076,0.18"/>
									<path fill="none" stroke="#000000" stroke-width="0.5375" stroke-linecap="round" d="M112.928,187.624
										c-0.031-0.517,0.028-0.938,0.198-1.183c0.054-0.023,0.107-0.049,0.161-0.072"/>
									<path fill="none" stroke="#000000" stroke-width="0.5068" stroke-linecap="round" d="M168.533,186.189
										c0.608,1.541,2.489-0.09,3.493,1.168c0.063,0.297,0.072,0.645,0.094,0.98"/>
									<path fill="none" stroke="#000000" stroke-width="0.3583" stroke-linecap="round" d="M119.027,188.699
										c0.23,0.128,0.438,0.279,0.717,0.357"/>
									<path fill="none" stroke="#000000" stroke-width="0.4635" stroke-linecap="round" d="M157.771,191.924
										c2.131,0.9,1.875,2.92,1.938,4.821c-0.536,0.396-1.433-0.065-1.856,0.637c-0.074,0.324-0.037,0.626,0.027,0.888
										c0.118,0.117,0.227,0.248,0.334,0.379c0.313,0.045,0.568,0.147,0.811,0.266"/>
									<path fill="none" stroke="#000000" stroke-width="0.5666" stroke-linecap="round" d="M167.099,194.434
										c-0.461,0.182-1.302,0.301-1.436-0.356"/>
									<path fill="none" stroke="#000000" stroke-width="0.4359" stroke-linecap="round" d="M154.185,199.809
										c0.062,0.024,0.123,0.051,0.185,0.074c0.315-0.064,0.546-0.314,0.813-0.516c-0.242-0.979,0.055-2.398-0.638-3.145"/>
									<path fill="none" stroke="#000000" stroke-width="0.5365" stroke-linecap="round" d="M134.812,201.24
										c-0.102-0.018-0.204-0.033-0.306-0.051c-0.502-1.246,1.006-2.799,1.023-3.894"/>
									<path fill="none" stroke="#000000" stroke-width="0.4006" stroke-linecap="round" d="M170.326,198.374
										c0.38-0.021,0.554,0.164,0.718,0.358"/>
									<path fill="none" stroke="#000000" stroke-width="0.5157" stroke-linecap="round" d="M164.944,201.958
										c-0.19,0.292-0.629,0.338-0.829,0.554c-0.068,0.207,0.056,0.514,0.209,0.788c0.19,0.046,0.403,0.068,0.62,0.091"/>
									<path fill="none" stroke="#000000" stroke-width="0.4432" stroke-linecap="round" d="M115.081,204.466
										c-0.004-0.481,0.251-0.704,0.441-0.991c0.407-0.072,0.885-0.072,1.353-0.084"/>
									<path fill="none" stroke="#000000" stroke-width="0.5505" stroke-linecap="round" d="M201.356,203.57
										c3.193-0.041,6.617,0.711,8.789,3.046"/>
									<path fill="none" stroke="#000000" stroke-width="0.5068" stroke-linecap="round" d="M153.107,204.466
										c-0.011,0.601,0.214,1.854-0.717,1.792"/>
									<path fill="none" stroke="#000000" stroke-width="0.4533" stroke-linecap="round" d="M118.848,208.587
										c0.339-0.14,0.5-0.456,0.717-0.717"/>
									<path fill="none" stroke="#000000" stroke-width="0.3925" stroke-linecap="round" d="M159.206,209.124
										c-0.005-0.472-0.271-0.685-0.357-1.074"/>
									<path fill="none" stroke="#000000" stroke-width="0.5068" stroke-linecap="round" d="M135.529,210.021
										c0.128-0.164,0.924-0.112,1.328-0.289c0.256-0.351,0.142-0.795-0.252-0.967"/>
									<path fill="none" stroke="#000000" stroke-width="0.5729" stroke-linecap="round" d="M181.088,210.559
										c-0.034,0.644-0.401,1.291,0.474,1.402c-0.035,0.329-0.065,0.936-0.474,1.105"/>
									<path fill="none" stroke="#000000" stroke-width="0.4389" stroke-linecap="round" d="M112.569,212.708
										c-0.239,0-0.478,0-0.717,0"/>
									<path fill="none" stroke="#000000" stroke-width="0.5942" stroke-linecap="round" d="M171.763,211.991
										c0.233,0.69,0.523,1.396,0.536,2.149"/>
									<path fill="none" stroke="#000000" stroke-width="0.4307" stroke-linecap="round" d="M123.69,214.5
										c0.084-0.682-0.225-0.971-0.359-1.434"/>
									<path fill="none" stroke="#000000" stroke-width="0.424" stroke-linecap="round" d="M183.241,213.425
										c0.251,0.106,0.273,0.443,0.357,0.718"/>
									<path fill="none" stroke="#000000" stroke-width="0.6207" stroke-linecap="round" d="M161.356,217.008
										c0.203,1.872,2.389,2.61,3.108,4.42"/>
									<path fill="none" stroke="#000000" stroke-width="0.6275" stroke-linecap="round" d="M164.467,221.428
										c-0.586,0.682-0.252,1.805,0.46,2.206c0.594-0.085,1.363-0.475,1.247-1.19
										C165.825,221.833,165.146,221.502,164.467,221.428"/>
									<path fill="none" stroke="#000000" stroke-width="0.4596" stroke-linecap="round" d="M158.487,218.441
										c-0.92,0.992-2.043-0.418-2.979,0.197c-0.146,0.848,0.854,1.271,1.267,1.875c0.094,0.022,0.187,0.051,0.281,0.075"/>
									<path fill="none" stroke="#000000" stroke-width="0.4469" stroke-linecap="round" d="M152.031,218.8
										c-0.005,0.474-0.271,0.685-0.359,1.075"/>
									<path fill="none" stroke="#000000" stroke-width="0.4336" stroke-linecap="round" d="M177.501,223.458
										c-0.006-0.591,0.053-1.246-0.105-1.685c-0.817-0.948-2.02-1.375-3.121-1.898"/>
									<path fill="none" stroke="#000000" stroke-width="0.6207" stroke-linecap="round" d="M173.914,222.921
										c0.241,0.074,0.612,0.188,0.896,0.358"/>
									<path fill="none" stroke="#000000" stroke-width="0.4492" stroke-linecap="round" d="M131.762,225.43
										c0.162-0.316,0.155-0.802,0.179-1.255"/>
									<path fill="none" stroke="#000000" stroke-width="0.6353" stroke-linecap="round" d="M157.771,228.834
										c0.035,0.083,0.071,0.166,0.107,0.249c0.385,0.284,1,0.728,1.432,0.271c0.107-0.295,0.157-0.83,0.016-1.24
										c-0.395-0.205-0.58-0.656-0.656-1.068"/>
									<path fill="none" stroke="#000000" stroke-width="0.7098" stroke-linecap="round" d="M166.021,230.088
										c2.217,0.383,2.785-2.615,1.076-3.584"/>
									<path fill="none" stroke="#000000" stroke-width="0.424" stroke-linecap="round" d="M137.681,228.117
										c0.359,0,0.717,0,1.076,0"/>
									<path fill="none" stroke="#000000" stroke-width="0.4961" stroke-linecap="round" d="M192.927,94.274
										c0.879,4.241-2.597,8.073-6.814,8.063"/>
									<path fill="none" stroke="#000000" stroke-width="0.7741" stroke-linecap="round" d="M192.927,94.274
										c-0.183-0.106-0.176-0.72-0.089-1.075"/>
									<path fill="none" stroke="#000000" stroke-width="0.7686" stroke-linecap="round" d="M192.837,93.2
										c-0.095-0.345-0.063-0.771,0-1.075"/>
									<path fill="none" stroke="#000000" stroke-width="0.5666" stroke-linecap="round" d="M192.837,92.125
										c-0.271-0.5-0.273-1.058-0.27-1.613"/>
									<path fill="none" stroke="#000000" stroke-width="0.6207" stroke-linecap="round" d="M192.567,90.512
										c-0.434-0.646-0.209-1.094-0.18-1.523"/>
									<path fill="none" stroke="#000000" stroke-width="0.8127" stroke-linecap="round" d="M192.39,88.989
										c-0.076-0.046-0.152-0.092-0.229-0.139c-0.146-0.273-0.083-0.758,0.048-1.205"/>
									<path fill="none" stroke="#000000" stroke-width="0.7167" stroke-linecap="round" d="M192.209,87.645
										c-0.39-0.3-0.533-0.854-0.358-1.433"/>
									<path fill="none" stroke="#000000" stroke-width="0.5315" stroke-linecap="round" d="M191.853,86.212
										c-0.252-0.348-0.273-0.799-0.358-1.254"/>
									<path fill="none" stroke="#000000" stroke-width="0.5806" stroke-linecap="round" d="M191.492,84.958
										c-0.062-0.018-0.12-0.035-0.181-0.053c-0.158-0.404-0.342-0.879-0.299-1.321"/>
									<path fill="none" stroke="#000000" stroke-width="0.6583" stroke-linecap="round" d="M191.015,83.584
										c-0.382-0.511-0.466-1.14-0.418-1.762"/>
									<path fill="none" stroke="#000000" stroke-width="0.5806" stroke-linecap="round" d="M190.597,81.822
										c-0.123-0.037-0.242-0.085-0.361-0.134c-0.232-0.406-0.047-0.894,0.002-1.3"/>
									<path fill="none" stroke="#000000" stroke-width="0.5375" stroke-linecap="round" d="M190.235,80.389
										c-0.123-0.037-0.24-0.085-0.359-0.133c-0.159-0.25-0.152-0.793-0.178-1.39"/>
									<path fill="none" stroke="#000000" stroke-width="0.6515" stroke-linecap="round" d="M189.698,78.866
										c-0.061-0.018-0.12-0.035-0.182-0.053c-0.367-2.083,2.985-1.908,4.436-2.131c0.232,0.35,0.169,0.829,0.051,1.288"/>
									<path fill="none" stroke="#000000" stroke-width="0.5246" stroke-linecap="round" d="M197.353,93.856
										c0.985,1.567,1.312,3.547,2.83,4.817c5.185-0.216,11.449-0.801,15.166-4.399"/>
									<path fill="none" stroke="#000000" stroke-width="0.496" stroke-linecap="round" d="M208.173,68.832
										c-9.787,5-20.162,8.861-31.21,10.75"/>
									<path fill="none" stroke="#000000" stroke-width="0.4354" stroke-linecap="round" d="M176.963,79.583
										c1.649,6.448,3.931,12.483,5.919,18.813"/>
									<path fill="none" stroke="#000000" stroke-width="0.5732" stroke-linecap="round" d="M176.963,79.583
										c-2.125,0.133-4.221,0.629-6.157,1.493"/>
									<path fill="none" stroke="#000000" stroke-width="0.6054" stroke-linecap="round" d="M170.806,81.076
										c2.146,7.5,0.157,15.826,4.471,22.775c-0.037,2.109,0.711,3.978,0.972,6.012"/>
									<path fill="none" stroke="#000000" stroke-width="0.5184" stroke-linecap="round" d="M180.013,115.775
										c0.291-0.087,0.788-0.324,1.275-0.289c2.57,4.519,2.863,9.745,5.001,14.444"/>
									<path fill="none" stroke="#000000" stroke-width="0.4339" stroke-linecap="round" d="M194.185,137.993
										c-9.063-17.728-12.593-37.631-20.271-56.082"/>
									<path fill="none" stroke="#000000" stroke-width="0.4389" stroke-linecap="round" d="M183.601,100.545
										c1.822,5.692,3.405,11.703,5.621,17.439"/>
									<path fill="none" stroke="#000000" stroke-width="0.7467" stroke-linecap="round" d="M189.222,117.984
										c0.047-0.012,0.094-0.025,0.139-0.039c3.63-4.557,4.437,1.527,8.464,3.109c6.422,2.524,14.407-3.052,17.168,5.471"/>
									<path fill="none" stroke="#000000" stroke-width="0.5158" stroke-linecap="round" d="M189.222,117.984
										c0.799,6.604,3.113,12.906,6.037,18.754"/>
									<path fill="none" stroke="#000000" stroke-width="1.0948" stroke-linecap="round" d="M263.958,166.48
										c0.479-0.098,0.956,0.017,1.436,0.18"/>
									<path fill="none" stroke="#000000" stroke-width="0.746" stroke-linecap="round" d="M163.032,115.477
										c-0.328,0.71-0.647,1.438-0.754,2.21c0.234,0.36,0.57,0.652,0.873,0.955"/>
									<path fill="none" stroke="#000000" stroke-width="0.5088" stroke-linecap="round" d="M102.884,149.997
										c0.083,0.12,0.166,0.239,0.249,0.36c0.504,0.646,1.601,0.104,2.165,0.813c0.092,0.505,0.56,0.635,0.755,1.037
										c0.076,0.563,0.298,1.082,0.257,1.664c0.172,0.209,0.278,0.391,0.389,0.607c1.091,0.791,1.914,1.875,2.92,2.766
										c-0.104,4.854,5.678,4.021,8.251,6.449c0.076,2.063,2.277,3.172,2.284,5.246c0.62,0.813,1.692,0.902,2.553,1.383
										c2.206,2.389,1.066,5.818,3.233,8.246c5.038,2.211,5.763,9.906,12.475,10.115c4.042-1.849,8.43-0.773,12.359,0.953
										c0.223-0.031,0.53-0.15,0.805-0.32c1.815-3.576,7.461-2.963,10.314-1.937c0.098-0.438,0.361-0.774,0.719-1.014"/>
									<path fill="none" stroke="#000000" stroke-width="0.5796" stroke-linecap="round" d="M102.884,149.997
										c-0.116,0.067-0.232,0.134-0.348,0.2c-0.602,0.887-1.594,1.527-1.904,2.566c-0.902,0.715-1.298,1.766-1.986,2.646
										c0.888,4.771-3.317,8.482-1.86,13.219"/>
									<path fill="none" stroke="#000000" stroke-width="0.5684" stroke-linecap="round" d="M102.884,149.997
										c2.32-6.334,6.492-13.204,12.637-17.478c9.506-6.609,17.995-4.229,28.203-6.947c2.478-0.659,5.278-2.043,7.506-3.969
										c0.56-2.188,1.904-4.093,1.697-6.458"/>
									<path fill="none" stroke="#000000" stroke-width="0.5411" stroke-linecap="round" d="M152.928,115.148
										c-6.412,0.962-13.419,0.562-19.193-2.419"/>
									<path fill="none" stroke="#000000" stroke-width="0.5976" stroke-linecap="round" d="M152.928,115.148
										c2.11-4.169,8.754-5.187,10.104,0.328"/>
									<path fill="none" stroke="#000000" stroke-width="0.885" stroke-linecap="round" d="M163.032,115.477
										c1.677,0.188,2.865-0.937,4.006-1.971"/>
									<path fill="none" stroke="#000000" stroke-width="0.7517" stroke-linecap="round" d="M167.038,113.506
										c-0.016-0.04-0.028-0.079-0.042-0.119c0.045-0.402,0.221-0.92,0.282-1.299c0.9-0.931,2.365-1.437,3.707-1.333
										c1.285,0.69,2.207,1.806,2.928,3.049"/>
									<path fill="none" stroke="#000000" stroke-width="0.9206" stroke-linecap="round" d="M165.663,81.912
										c-0.239,0.098-0.479,0.14-0.719,0.179"/>
									<path fill="none" stroke="#000000" stroke-width="0.5433" stroke-linecap="round" d="M221.626,33.893
										c-7.521,4.144-16.619,3.64-25.111,4.3"/>
									<path fill="none" stroke="#000000" stroke-width="0.4789" stroke-linecap="round" d="M103.601,94.454
										c0.035-0.084,0.07-0.169,0.104-0.254c17.056-15.872,30.715-38.004,53.069-48.399c7.178-3.337,13.119-7.605,19.73-11.467
										c7.684-4.486,27.663-2.563,38.604-1.817c2.303,0.157,4.563,0.54,6.517,1.376"/>
									<path fill="none" stroke="#000000" stroke-width="0.5521" stroke-linecap="round" d="M221.626,33.893
										c12.332-4.697,25.49-1.754,37.848,0.986"/>
									<path fill="none" stroke="#000000" stroke-width="0.5319" stroke-linecap="round" d="M259.474,34.879
										c2.112,0.014,12.362-1.622,16.928-0.157c6.091,1.955,7.289,8.263,1.549,13.863"/>
									<path fill="none" stroke="#000000" stroke-width="1.1332" stroke-linecap="round" d="M277.948,48.585
										c0.02,0.06,0.039,0.12,0.06,0.179"/>
									<path fill="none" stroke="#000000" stroke-width="0.5748" stroke-linecap="round" d="M278.007,48.765
										c15.782-4.959,32.073-9.223,47.354-15.29"/>
									<path fill="none" stroke="#000000" stroke-width="0.7177" stroke-linecap="round" d="M325.36,33.475
										c-0.118-0.985-0.693-1.995-0.198-2.97c7.362-2.325,15.04-5.069,22.644-5.834c5.563,5.036,8.69,13.22,6.519,20.652
										c-0.487,0.44-1.193,0.891-1.875,0.873"/>
									<path fill="none" stroke="#000000" stroke-width="0.5649" stroke-linecap="round" d="M352.446,46.196
										c-5.731,2.774-12.215,3.522-18.297,5.017"/>
									<path fill="none" stroke="#000000" stroke-width="0.7195" stroke-linecap="round" d="M331.042,51.811
										c-18.822,5.516-37.419,12.519-55.964,18.634"/>
									<path fill="none" stroke="#000000" stroke-width="0.5284" stroke-linecap="round" d="M275.078,70.444
										c0.153,0.753,0.68,1.209,1.342,1.527c6.113,5.463,5.086,15.292,1.076,21.672c-3.269,2.286-7.177,3.307-10.849,4.752"/>
									<path fill="none" stroke="#000000" stroke-width="0.5696" stroke-linecap="round" d="M266.647,98.396
										c3.41,6.929-1.494,13.472-5.92,18.276"/>
									<path fill="none" stroke="#000000" stroke-width="0.5296" stroke-linecap="round" d="M260.729,116.671
										c3.867,1.761,5.031,3.946,6.022,6.524c2.103,5.449-1.217,10.199-0.375,14.887"/>
									<path fill="none" stroke="#000000" stroke-width="0.5325" stroke-linecap="round" d="M266.378,138.082
										c0.525,2.246-0.009,6.145-2.15,7.436"/>
									<path fill="none" stroke="#000000" stroke-width="0.7979" stroke-linecap="round" d="M264.228,145.518
										c-0.754,1.537-2.451,2.465-2.961,4.032"/>
									<path fill="none" stroke="#000000" stroke-width="0.5668" stroke-linecap="round" d="M261.267,149.55
										c0.164,0.063,0.324,0.125,0.486,0.188c27.073-9.342,57.2-14.967,86.148-9.057"/>
									<path fill="none" stroke="#000000" stroke-width="0.6189" stroke-linecap="round" d="M259.396,150.406
										c-2.725,2.088-6.963,2.34-10.326,2.637"/>
									<path fill="none" stroke="#000000" stroke-width="0.5419" stroke-linecap="round" d="M240.759,161.227
										c-6.717,1.361-11.457-5.723-10.402-11.826"/>
									<path fill="none" stroke="#000000" stroke-width="0.5293" stroke-linecap="round" d="M230.354,149.4
										c-0.851,0.099-1.287-0.875-1.914-1.194"/>
									<path fill="none" stroke="#000000" stroke-width="0.5838" stroke-linecap="round" d="M230.354,149.4
										c0.562-1.655,0.873-3.396,0.957-5.137"/>
									<path fill="none" stroke="#000000" stroke-width="0.4907" stroke-linecap="round" d="M212.181,148.684
										c-0.609,0.752-1.109,1.646-1.676,2.391"/>
									<path fill="none" stroke="#000000" stroke-width="0.6332" stroke-linecap="round" d="M223.24,113.088
										c-1.238,1.971-2.318,4.438-1.613,6.809"/>
									<path fill="none" stroke="#000000" stroke-width="0.9018" stroke-linecap="round" d="M217.321,94.454
										c-0.291-0.188-0.506-0.45-0.719-0.716"/>
									<path fill="none" stroke="#000000" stroke-width="0.8013" stroke-linecap="round" d="M220.55,68.294
										c0.119,0.239,0.238,0.478,0.358,0.717"/>
									<path fill="none" stroke="#000000" stroke-width="0.6057" stroke-linecap="round" d="M224.496,82.987
										c3.75-0.621,7.517-1.195,11.301-1.613"/>
									<path fill="none" stroke="#000000" stroke-width="1.2152" stroke-linecap="round" d="M216.365,89.437
										c-0.04,0.119-0.08,0.239-0.12,0.358"/>
									<path fill="none" stroke="#000000" stroke-width="0.6523" stroke-linecap="round" d="M275.078,70.444
										c-3.856,1.338-8.153,2.288-11.653,4.048c-8.205,0.358-15.498,3.763-22.777,6.537c-0.688,0.261-1.438,0.131-2.158,0.165"/>
									<path fill="none" stroke="#000000" stroke-width="0.5739" stroke-linecap="round" d="M278.007,48.765
										c-6.553,9.807-19.5,10.846-29.979,9.281"/>
									<path fill="none" stroke="#000000" stroke-width="1.1555" stroke-linecap="round" d="M248.028,58.046
										c-8.682,3.759-18.116,6.043-27.119,9.173"/>
									<path fill="none" stroke="#000000" stroke-width="0.4848" stroke-linecap="round" d="M260.549,116.851
										c-8.435,5.426-13.722,15.456-22.778,20.247"/>
									<path fill="none" stroke="#000000" stroke-width="0.5733" stroke-linecap="round" d="M266.647,98.396
										c-9.834,2.411-20.448,5.986-30.494,2.329"/>
									<path fill="none" stroke="#000000" stroke-width="0.7097" stroke-linecap="round" d="M236.153,100.725
										c-4.573,1.04-9.618,1.752-14.079,0.09"/>
									<path fill="none" stroke="#000000" stroke-width="0.5904" stroke-linecap="round" d="M222.074,100.814
										c-2.49,3.933-0.923,8.534,1.166,12.273"/>
									<path fill="none" stroke="#000000" stroke-width="0.5444" stroke-linecap="round" d="M223.24,113.088
										c1.674,0.135,3.384,0.289,5.022,0.538"/>
									<path fill="none" stroke="#000000" stroke-width="0.4434" stroke-linecap="round" d="M228.265,113.625
										c2.631-4.087,6.279-7.707,9.863-10.93"/>
									<path fill="none" stroke="#000000" stroke-width="0.5571" stroke-linecap="round" d="M228.265,113.625
										c-0.521,1.878-1.938,3.592-1.734,5.673"/>
									<path fill="none" stroke="#000000" stroke-width="0.5969" stroke-linecap="round" d="M226.528,119.299
										c1.875-0.359,3.675-1.357,5.681-1.374"/>
									<path fill="none" stroke="#000000" stroke-width="0.491" stroke-linecap="round" d="M226.528,119.299
										c-9.026,6.372-20.981,17.521-14.35,29.385"/>
									<path fill="none" stroke="#000000" stroke-width="0.5813" stroke-linecap="round" d="M212.181,148.684
										c1.354,0.266,2.473,1.068,3.707,1.672"/>
									<path fill="none" stroke="#000000" stroke-width="0.5479" stroke-linecap="round" d="M215.888,150.355
										c3.729-3.66,4.217-9.002,4.021-13.922c4.631-1.625,10.191-4.346,14.896-1.752c2.461,3.647-1.021,7.123-3.494,9.582"/>
									<path fill="none" stroke="#000000" stroke-width="0.5157" stroke-linecap="round" d="M252.119,144.98
										c2.073,2.299,4.053,4.82,7.276,5.426"/>
									<path fill="none" stroke="#000000" stroke-width="1.3408" stroke-linecap="round" d="M259.396,150.406
										c0.604-0.317,1.437-0.213,1.869-0.856"/>
									<path fill="none" stroke="#000000" stroke-width="1.075" stroke-linecap="round" d="M260.729,116.671
										c-0.063,0.06-0.119,0.119-0.182,0.179"/>
									<path fill="none" stroke="#000000" stroke-width="0.5396" stroke-linecap="round" d="M260.549,116.851
										c0.615,10.317-4.526,19.133-8.431,28.129"/>
									<path fill="none" stroke="#000000" stroke-width="0.5275" stroke-linecap="round" d="M248.028,58.046
										c-0.032-0.071-0.066-0.142-0.104-0.213c-7.992-2.776-19.502,3.086-28.169,6.087c-2.159,0.749-4.821,1.039-6.022,2.583"/>
									<path fill="none" stroke="#000000" stroke-width="0.7898" stroke-linecap="round" d="M213.733,66.503
										c1.367,0.424,2.836,0.492,4.254,0.614"/>
									<path fill="none" stroke="#000000" stroke-width="0.9877" stroke-linecap="round" d="M325.36,33.475
										c3.035,5.237,4.943,11.986,5.682,18.335"/>
									<path fill="none" stroke="#000000" stroke-width="0.6881" stroke-linecap="round" d="M331.042,51.811
										c0.92,1.137,2.32,0.15,3.107-0.597"/>
									<path fill="none" stroke="#000000" stroke-width="0.7662" stroke-linecap="round" d="M334.149,51.213
										c-0.068-0.357-0.063-1.013,0-1.314"/>
									<path fill="none" stroke="#000000" stroke-width="0.6939" stroke-linecap="round" d="M334.149,49.899
										c-0.293-0.347-0.318-0.541-0.418-0.776"/>
									<path fill="none" stroke="#000000" stroke-width="0.5767" stroke-linecap="round" d="M349.785,36.223
										c0.022-0.077,0.046-0.154,0.067-0.231c-0.765-4.86-5.648-2.041-9.179-1.074c-3.979,1.091-12.214,0.867-10.063,6.003
										c0.084,0.106,0.168,0.212,0.252,0.318"/>
									<path fill="none" stroke="#000000" stroke-width="0.5633" stroke-linecap="round" d="M259.474,34.879
										c0.43,3.96-0.843,7.433,1.174,10.206c3.043,4.188,10.276,3.634,17.303,3.501"/>
									<path fill="none" stroke="#000000" stroke-width="0.5564" stroke-linecap="round" d="M352.446,46.196
										c-0.571-3.396-0.86-7.095-2.661-9.974"/>
									<path fill="none" stroke="#000000" stroke-width="0.4951" stroke-linecap="round" d="M349.785,36.223
										c-6.119,2.174-12.744,3.079-18.923,5.017"/>
									<path fill="none" stroke="#000000" stroke-width="0.6207" stroke-linecap="round" d="M330.862,41.239
										c0.174,1.247,0.554,2.788,1.375,3.644"/>
									<path fill="none" stroke="#000000" stroke-width="0.4919" stroke-linecap="round" d="M332.237,44.883
										c5.461-1.371,10.64-3.279,16.021-4.897"/>
									<path fill="none" stroke="#000000" stroke-width="0.6162" stroke-linecap="round" d="M332.237,44.883
										c0.232,1.498,0.986,2.835,1.494,4.24"/>
									<path fill="none" stroke="#000000" stroke-width="0.4562" stroke-linecap="round" d="M333.731,49.123
										c4.75-1.884,9.938-2.882,14.709-5.017"/>
									<path fill="none" stroke="#000000" stroke-width="0.4967" stroke-linecap="round" d="M334.149,49.899
										c5.688-0.635,10.9-2.9,16.264-4.181"/>
									<path fill="none" stroke="#000000" stroke-width="0.5681" stroke-linecap="round" d="M213.733,66.503
										c-2.021-0.159-3.783,1.479-5.563,2.329"/>
									<path fill="none" stroke="#000000" stroke-width="0.7008" stroke-linecap="round" d="M208.173,68.832
										c1.641,2.582,5.453,3.24,6.896,5.992c4.296,3.783,0.451,9.953,1.297,14.613"/>
									<path fill="none" stroke="#000000" stroke-width="0.4731" stroke-linecap="round" d="M216.365,89.437
										c2.485-2.372,4.979-5.08,8.131-6.45"/>
									<path fill="none" stroke="#000000" stroke-width="0.7127" stroke-linecap="round" d="M224.496,82.987
										c-1.886-4.239-2.742-8.693-3.587-13.259"/>
									<path fill="none" stroke="#000000" stroke-width="0.7131" stroke-linecap="round" d="M189.698,78.866
										c1.52,0.057,2.863-0.589,4.305-0.896"/>
									<path fill="none" stroke="#000000" stroke-width="0.7328" stroke-linecap="round" d="M190.235,80.389
										c1.41-0.305,2.697-0.808,4.125-0.985"/>
									<path fill="none" stroke="#000000" stroke-width="0.5315" stroke-linecap="round" d="M194.36,79.403
										c0.055-0.363-0.062-0.915-0.357-1.434"/>
									<path fill="none" stroke="#000000" stroke-width="0.7294" stroke-linecap="round" d="M190.597,81.822
										c1.269-0.302,2.514-0.618,3.766-0.986"/>
									<path fill="none" stroke="#000000" stroke-width="0.8404" stroke-linecap="round" d="M194.36,80.836
										c0.189-0.478,0.125-0.956,0-1.433"/>
									<path fill="none" stroke="#000000" stroke-width="0.5932" stroke-linecap="round" d="M170.806,81.076
										c-1.707,0.096-3.502,0.269-5.143,0.836"/>
									<path fill="none" stroke="#000000" stroke-width="0.6221" stroke-linecap="round" d="M165.663,81.912
										c2.805,8.817,5.688,17.783,8.488,26.637"/>
									<path fill="none" stroke="#000000" stroke-width="0.6906" stroke-linecap="round" d="M191.015,83.584
										c1.209-0.593,2.666-0.498,3.826-1.194"/>
									<path fill="none" stroke="#000000" stroke-width="0.7387" stroke-linecap="round" d="M194.84,82.39
										c0.214-0.584-0.026-1.162-0.479-1.553"/>
									<path fill="none" stroke="#000000" stroke-width="0.7541" stroke-linecap="round" d="M191.492,84.958
										c1.31,0.215,2.387-0.604,3.587-0.896"/>
									<path fill="none" stroke="#000000" stroke-width="0.6057" stroke-linecap="round" d="M195.079,84.062
										c0.232-0.503,0.031-1.203-0.239-1.672"/>
									<path fill="none" stroke="#000000" stroke-width="0.8051" stroke-linecap="round" d="M191.853,86.212
										c1.205-0.209,2.433-0.249,3.586-0.717"/>
									<path fill="none" stroke="#000000" stroke-width="0.6862" stroke-linecap="round" d="M195.438,85.495
										c0.201-0.437,0.033-0.846-0.358-1.434"/>
									<path fill="none" stroke="#000000" stroke-width="0.6985" stroke-linecap="round" d="M192.209,87.645
										c1.204-0.249,2.435-0.43,3.587-0.896"/>
									<path fill="none" stroke="#000000" stroke-width="0.4389" stroke-linecap="round" d="M195.797,86.75
										c0.021-0.484-0.164-0.854-0.358-1.254"/>
									<path fill="none" stroke="#000000" stroke-width="0.5813" stroke-linecap="round" d="M192.39,88.989
										c1.139-0.458,2.365-0.514,3.527-0.866"/>
									<path fill="none" stroke="#000000" stroke-width="0.7707" stroke-linecap="round" d="M195.917,88.123
										c0.034-0.436,0.212-1.017-0.12-1.374"/>
									<path fill="none" stroke="#000000" stroke-width="0.7741" stroke-linecap="round" d="M217.321,94.454
										c0.839,2.591,2.656,4.634,4.753,6.361"/>
									<path fill="none" stroke="#000000" stroke-width="0.6243" stroke-linecap="round" d="M236.153,100.725
										c3.512-2.817,4.156-9.499,1.092-12.5c-2.193-0.431-4.479-0.163-6.645-0.745c-5.131,0.188-11.386,1.526-13.279,6.973"/>
									<path fill="none" stroke="#000000" stroke-width="0.7256" stroke-linecap="round" d="M192.567,90.512
										c1.267-0.166,2.473-0.59,3.678-0.896"/>
									<path fill="none" stroke="#000000" stroke-width="0.6496" stroke-linecap="round" d="M196.245,89.616
										c0.199-0.505-0.038-1.079-0.329-1.493"/>
									<path fill="none" stroke="#000000" stroke-width="0.5888" stroke-linecap="round" d="M192.837,92.125
										c1.354-0.319,2.661-0.701,3.855-1.434"/>
									<path fill="none" stroke="#000000" stroke-width="0.5996" stroke-linecap="round" d="M196.692,90.691
										c-0.213-0.435-0.322-0.771-0.447-1.075"/>
									<path fill="none" stroke="#000000" stroke-width="0.6876" stroke-linecap="round" d="M192.837,93.2
										c1.52,0.336,2.762-0.475,4.155-0.776"/>
									<path fill="none" stroke="#000000" stroke-width="0.6207" stroke-linecap="round" d="M196.993,92.423
										c0.099-0.576-0.081-1.203-0.301-1.732"/>
									<path fill="none" stroke="#000000" stroke-width="0.6207" stroke-linecap="round" d="M192.927,94.274
										c1.454,0.348,2.938-0.406,4.426-0.418"/>
									<path fill="none" stroke="#000000" stroke-width="0.5584" stroke-linecap="round" d="M197.353,93.856
										c-0.013-0.464-0.076-1.028-0.357-1.433"/>
									<path fill="none" stroke="#000000" stroke-width="0.7602" stroke-linecap="round" d="M174.271,117.746
										c-0.287-0.678-0.135-1.436-0.179-2.15"/>
									<path fill="none" stroke="#000000" stroke-width="0.7297" stroke-linecap="round" d="M167.038,113.506
										c1.313,2.745,2.771,5.559,5.799,6.749"/>
									<path fill="none" stroke="#000000" stroke-width="0.5275" stroke-linecap="round" d="M180.013,115.775
										c0.733,2.959,0.709,6.491,2.779,8.87"/>
									<path fill="none" stroke="#000000" stroke-width="0.5832" stroke-linecap="round" d="M182.792,124.645
										c0.248-2.25-0.996-4.64-1.346-6.896"/>
									<path fill="none" stroke="#000000" stroke-width="1.2585" stroke-linecap="round" d="M182.792,124.645
										c0.288,1.313,0.823,2.551,1.166,3.854"/>
									<path fill="none" stroke="#000000" stroke-width="0.5717" stroke-linecap="round" d="M183.958,128.497
										c1.023,0.233,1.047,1.362,1.436,2.149"/>
									<path fill="none" stroke="#000000" stroke-width="0.7602" stroke-linecap="round" d="M180.013,115.775
										c-0.479-0.028-0.957,0.03-1.436,0.179"/>
									<path fill="none" stroke="#000000" stroke-width="0.4202" stroke-linecap="round" d="M181.088,126.705
										c0.103-1.246-0.503-2.279-0.896-3.404"/>
									<path fill="none" stroke="#000000" stroke-width="0.7602" stroke-linecap="round" d="M183.869,130.826
										c0.56,0.027,1.032-0.03,1.524-0.18"/>
									<path fill="none" stroke="#000000" stroke-width="0.6032" stroke-linecap="round" d="M183.958,128.497
										c-0.639,0.655-0.209,1.571-0.09,2.329"/>
									<path fill="none" stroke="#000000" stroke-width="0.6862" stroke-linecap="round" d="M183.869,130.826
										c-0.062,0.295-0.66,0.908-0.986,1.254"/>
									<path fill="none" stroke="#000000" stroke-width="0.5408" stroke-linecap="round" d="M215.888,150.355
										c0.035,0.103,0.071,0.203,0.107,0.306c5.42-0.466,10.568-3.679,15.314-6.397"/>
									<path fill="none" stroke="#000000" stroke-width="0.6032" stroke-linecap="round" d="M266.378,138.082
										c-1.035,2.173-1.475,5.023-2.15,7.436"/>
									<path fill="none" stroke="#000000" stroke-width="0.5171" stroke-linecap="round" d="M240.759,161.227
										c0.115,0.1,0.231,0.194,0.35,0.293c4.445-0.213,5.771-5.369,7.963-8.477"/>
									<path fill="none" stroke="#000000" stroke-width="0.5276" stroke-linecap="round" d="M250.326,147.488
										c-0.815-1.898-2.72-2.422-4.027-3.861c-0.415-0.074-0.896-0.084-1.301-0.023c-3.416,2.539-7.59,5.021-8.424,9.438
										c2.396,1.854,4.221,5.116,4.187,8.185"/>
									<path fill="none" stroke="#000000" stroke-width="0.641" stroke-linecap="round" d="M250.326,147.488
										c-0.478,1.859-0.938,3.68-1.257,5.555"/>
									<path fill="none" stroke="#000000" stroke-width="0.7476" stroke-linecap="round" d="M252.119,144.98
										c-0.847,0.67-0.938,1.849-1.793,2.508"/>
									<path fill="none" stroke="#000000" stroke-width="0.4829" stroke-linecap="round" d="M131.224,186.189
										c0.323,1.051,1.52,1.356,1.931,2.316c0.187,0.729-0.72,1.027-0.855,1.623"/>
									<path fill="none" stroke="#000000" stroke-width="0.4477" stroke-linecap="round" d="M133.376,115.955
										c-4.804-6.22-8.849-13.453-9.327-21.501"/>
									<path fill="none" stroke="#000000" stroke-width="0.6207" stroke-linecap="round" d="M193.646,123.838
										c0.334-1.125,0.385-2.254,0.181-3.404"/>
									<path fill="none" stroke="#000000" stroke-width="0.4512" stroke-linecap="round" d="M107.727,160.21
										c0.32-0.157,0.55-0.405,0.821-0.618c0.06-0.406-0.205-0.885-0.283-1.354"/>
									<path fill="none" stroke="#000000" stroke-width="0.5017" stroke-linecap="round" d="M112.569,167.557
										c0.043,0.063,0.085,0.119,0.128,0.18c0.04,0.121,0.018,0.24-0.007,0.359c-0.335,0.198-1.036,0.105-1.447,0.287
										c-0.218,0.162-0.418,0.271-0.525,0.438c0.029,0.143,0.041,0.344,0.052,0.548c0.127,0.223,0.287,0.421,0.391,0.673
										c0.051,0.066,0.102,0.141,0.153,0.206"/>
									<path fill="none" stroke="#000000" stroke-width="0.4906" stroke-linecap="round" d="M104.677,168.452
										c0.061,0.019,0.122,0.034,0.184,0.053c1.659,0.966,0.566,2.826,1.692,3.987c0.821,0.164,1.776-0.401,2.348,0.521
										c0.163,1.155,0.044,2.336,0.081,3.502"/>
									<path fill="none" stroke="#000000" stroke-width="0.5535" stroke-linecap="round" d="M124.767,229.55
										c0.072,0.063,0.144,0.128,0.215,0.188c0.223,0.199,0.463,0.293,0.671,0.381c10.598-0.838,22.305,1.533,33.497,2.354
										c5.006,0.368,11.035,1.45,14.131-3.916c4.003-0.238,4.061-4.953,6.613-7.011"/>
									<path fill="none" stroke="#000000" stroke-width="0.4389" stroke-linecap="round" d="M179.894,221.547
										c-0.273-0.167-0.625-0.182-0.957-0.238"/>
									<path fill="none" stroke="#000000" stroke-width="0.595" stroke-linecap="round" d="M179.894,221.547
										c3.194-1.664,4.303-6.418,7.652-8.122"/>
									<path fill="none" stroke="#000000" stroke-width="0.7167" stroke-linecap="round" d="M187.546,213.425
										c0.201-0.465,0.385-0.937,0.541-1.415c0.454-0.412,1.229-0.172,1.791-0.107"/>
									<path fill="none" stroke="#000000" stroke-width="0.6364" stroke-linecap="round" d="M189.877,211.9
										c0.786-0.322,0.989-1.402,1.138-2.18"/>
									<path fill="none" stroke="#000000" stroke-width="0.5679" stroke-linecap="round" d="M191.015,209.723
										c-0.899-0.445-1.291-1.412-1.813-2.201c0.262-0.14,0.75-0.188,0.964-0.385c-0.144-0.675-0.097-1.746-0.826-2.068
										c-0.878,0.402-1.767-0.639-2.604,0.02c-0.063,0.188-0.098,0.434-0.131,0.624c0.131,0.813,0.694,1.47,1.225,2.062
										c0.061,0.219,0.01,0.381-0.043,0.539c-0.169,0.098-0.307,0.182-0.438,0.266c-0.684-0.104-1.369-0.158-1.951-0.521"/>
									<path fill="none" stroke="#000000" stroke-width="0.608" stroke-linecap="round" d="M191.015,209.723
										c1.063-1.152,2.104-2.393,3.707-3.104"/>
									<path fill="none" stroke="#000000" stroke-width="0.461" stroke-linecap="round" d="M194.722,206.616
										c0.36-0.744,0.59-1.511,0.807-2.316c-0.418-1.049-1.363-1.938-1.523-3.06"/>
									<path fill="none" stroke="#000000" stroke-width="0.4781" stroke-linecap="round" d="M194.722,206.616
										c2.014,0.176,2.229-2.462,3.846-2.968c0.115-0.123,0.246-0.231,0.377-0.34c0.045-0.203,0.061-0.424,0.072-0.644
										c-1.731-2.38-1.974-6.521-5.729-6.623"/>
									<path fill="none" stroke="#000000" stroke-width="0.5946" stroke-linecap="round" d="M61.27,229.371
										c21.015-0.07,42.651,1.872,63.497,0.179"/>
									<path fill="none" stroke="#000000" stroke-width="0.5418" stroke-linecap="round" d="M124.767,229.55
										c-0.081-0.081-0.161-0.161-0.241-0.243c-3.711-1.308-6.06-3.729-9.698-6.67c-1.178-0.951-2.094-1.813-2.892-2.844
										c-2.79-3.604-5.525-7.656-8.249-11.111c-4.193-5.32-4.635-12.729-6.825-18.982c-1.851-5.282-0.773-8.467-0.903-13.788
										c-0.057-2.341-0.218-3.138,0.827-5.128"/>
									<path fill="none" stroke="#000000" stroke-width="0.5068" stroke-linecap="round" d="M187.546,213.425
										c0.102,0.041,0.202,0.082,0.303,0.124c0.955,0.021,1.867-0.705,2.028-1.646"/>
									<path fill="none" stroke="#000000" stroke-width="0.5019" stroke-linecap="round" d="M107.906,185.115
										c1.182,1.5,1.821,3.16,1.794,5.017"/>
									<path fill="none" stroke="#000000" stroke-width="0.4144" stroke-linecap="round" d="M126.561,190.49
										c-0.084-0.035-0.167-0.071-0.251-0.107c-0.366-0.91,0.388-1.949,1.328-2.042"/>
									<path fill="none" stroke="#000000" stroke-width="0.3925" stroke-linecap="round" d="M166.737,189.415
										c-0.024,0.841,0.826,1.411,1.078,2.149"/>
									<path fill="none" stroke="#000000" stroke-width="0.5128" stroke-linecap="round" d="M120.82,192.641
										c0.136-0.854,1.192-0.563,1.587-1.098c-0.054-0.535-0.301-0.952-0.511-1.411"/>
									<path fill="none" stroke="#000000" stroke-width="0.4615" stroke-linecap="round" d="M266.827,190.49
										c1.697,2.09,3.529,3.979,5.201,6.092"/>
									<path fill="none" stroke="#000000" stroke-width="0.6408" stroke-linecap="round" d="M272.028,196.582
										c27.953-1.624,56.214-2.826,83.767,1.255"/>
									<path fill="none" stroke="#000000" stroke-width="0.4852" stroke-linecap="round" d="M272.028,196.582
										c0.479,1.85,1.857,3.25,2.152,5.195"/>
									<path fill="none" stroke="#000000" stroke-width="0.4713" stroke-linecap="round" d="M102.166,196.582
										c-0.084-0.036-0.169-0.072-0.253-0.109c-0.36-1.213,0.993-1.519,1.909-1.289c0.214-0.131,0.325-0.289,0.431-0.447
										c-0.563-1.342-2.444-1.695-2.804-3.17"/>
									<path fill="none" stroke="#000000" stroke-width="0.4389" stroke-linecap="round" d="M145.932,191.564
										c0.196,0.043,0.28,0.199,0.359,0.356"/>
									<path fill="none" stroke="#000000" stroke-width="0.4272" stroke-linecap="round" d="M141.269,195.865
										c0.38,0.021,0.693-0.024,0.97-0.11c0.517-0.776-0.244-1.769-0.97-2.039"/>
									<path fill="none" stroke="#000000" stroke-width="0.4382" stroke-linecap="round" d="M114.722,197.656
										c0.322-0.623,1.049-0.944,1.685-1.174c0.095-0.313,0.058-0.613-0.001-0.871c-0.202-0.276-0.516-0.445-0.776-0.602
										c-0.063-0.015-0.126-0.025-0.19-0.043"/>
									<path fill="none" stroke="#000000" stroke-width="0.4297" stroke-linecap="round" d="M129.789,197.656
										c-0.082-0.034-0.164-0.07-0.246-0.106c-0.164-0.476-0.509-1.149-0.357-1.577c0.116-0.119,0.222-0.25,0.328-0.383
										c0.596-0.029,1.079-0.162,0.993-0.439"/>
									<path fill="none" stroke="#000000" stroke-width="0.4698" stroke-linecap="round" d="M107.188,195.148
										c0.325,1.199,1.312,1.99,2.072,2.947c0.191,0.621,0.123,1.555-0.637,1.711"/>
									<path fill="none" stroke="#000000" stroke-width="0.5256" stroke-linecap="round" d="M215.526,232.417
										c47.274,2.044,94.05,2.812,141.345,3.583"/>
									<path fill="none" stroke="#000000" stroke-width="0.6362" stroke-linecap="round" d="M171.763,232.954
										c14.438,0.823,29.275,0.04,43.766-0.537"/>
									<path fill="none" stroke="#000000" stroke-width="0.5414" stroke-linecap="round" d="M215.526,232.417
										c-4.395-6.085-6.987-13.125-4.735-21.933c1.452-5.676,3.783-9.244,0.433-14.262"/>
									<path fill="none" stroke="#000000" stroke-width="0.4184" stroke-linecap="round" d="M172.12,204.107
										c-0.085-0.035-0.169-0.071-0.254-0.107c-0.282-0.413-0.461-0.836-0.547-1.131c2.574-0.146,2.344-2.773,1.519-4.495"/>
									<path fill="none" stroke="#000000" stroke-width="0.3372" stroke-linecap="round" d="M125.484,198.732
										c0.329,0.584,0.889,1.09,1.435,1.434"/>
									<path fill="none" stroke="#000000" stroke-width="0.4437" stroke-linecap="round" d="M122.435,201.063
										c0.494,1.666,2.592,2.674,2.511,4.838"/>
									<path fill="none" stroke="#000000" stroke-width="0.6382" stroke-linecap="round" d="M141.089,201.24
										c0.043-0.043,0.086-0.086,0.129-0.129c1.133-0.198,2.461-0.063,2.92,1.203"/>
									<path fill="none" stroke="#000000" stroke-width="0.3925" stroke-linecap="round" d="M148.802,201.6
										c0.271,0.207,0.642,0.314,1.076,0.358"/>
									<path fill="none" stroke="#000000" stroke-width="0.3925" stroke-linecap="round" d="M119.744,204.466
										c0.329,0.474,0.581,0.685,0.718,1.075"/>
									<path fill="none" stroke="#000000" stroke-width="0.4389" stroke-linecap="round" d="M178.577,206.975
										c0.957,0,1.914,0,2.869,0"/>
									<path fill="none" stroke="#000000" stroke-width="0.429" stroke-linecap="round" d="M176.604,208.945
										c0.359,0.887,0.955,1.693,1.793,2.15"/>
									<path fill="none" stroke="#000000" stroke-width="0.5068" stroke-linecap="round" d="M175.708,208.766
										c0.369-0.01,0.635,0.082,0.896,0.18"/>
									<path fill="none" stroke="#000000" stroke-width="0.4389" stroke-linecap="round" d="M176.604,208.945
										c0.881-0.25,1.939-0.979,1.974-1.971"/>
									<path fill="none" stroke="#000000" stroke-width="0.3843" stroke-linecap="round" d="M178.577,206.975
										c-0.59-0.218-0.965-0.836-1.076-1.434"/>
									<path fill="none" stroke="#000000" stroke-width="0.4389" stroke-linecap="round" d="M167.099,208.408
										c0.182-0.534,0.879-0.768,0.719-1.434"/>
									<path fill="none" stroke="#000000" stroke-width="0.4108" stroke-linecap="round" d="M150.596,207.333
										c0.155,0.328,0.647,0.58,1.076,0.717"/>
									<path fill="none" stroke="#000000" stroke-width="0.3654" stroke-linecap="round" d="M183.601,207.691
										c0.51,0.697,1.069,1.392,1.437,2.146"/>
									<path fill="none" stroke="#000000" stroke-width="0.4355" stroke-linecap="round" d="M159.744,212.887
										c0.253-0.104,0.555-0.158,0.794-0.283c0.298-0.386,0.402-0.861,0.461-1.328"/>
									<path fill="none" stroke="#000000" stroke-width="0.4406" stroke-linecap="round" d="M172.658,211.273
										c0.458,1.914,1.685,3.31,2.61,5.021c-0.078,0.228-0.218,0.437-0.279,0.714"/>
									<path fill="none" stroke="#000000" stroke-width="0.6207" stroke-linecap="round" d="M145.573,212.35
										c0.427-0.076,0.467-0.322,0.538-0.537"/>
									<path fill="none" stroke="#000000" stroke-width="0.4684" stroke-linecap="round" d="M128.354,215.037
										c0.625-0.122,1.132-0.387,1.691-0.641c0.235-0.61,0.128-1.537-0.615-1.688"/>
									<path fill="none" stroke="#000000" stroke-width="0.5639" stroke-linecap="round" d="M177.321,212.887
										c1.125,0.909,1.707,1.918,0.732,3.041c0.031,0.192,0.146,0.426,0.262,0.629c0.307,0.07,0.554,0.135,0.783,0.18
										c0.639-0.383,1.586-0.299,1.629,0.633"/>
									<path fill="none" stroke="#000000" stroke-width="0.3583" stroke-linecap="round" d="M143.78,214.143
										c0.15,0.328,0.376,0.578,0.717,0.717"/>
									<path fill="none" stroke="#000000" stroke-width="0.4691" stroke-linecap="round" d="M171.044,217.366
										c-0.061-0.042-0.12-0.085-0.18-0.128c-0.504-0.172-0.622,0.558-0.979,0.77c-0.707,0.172-1.396-0.361-1.63-1.006
										c0.058-0.242,0.229-0.418,0.36-0.628c0.197-0.039,0.414-0.062,0.632-0.083"/>
									<path fill="none" stroke="#000000" stroke-width="0.4521" stroke-linecap="round" d="M117.233,220.95
										c1.087-0.237,1.896-1.685,1.615-2.688"/>
									<path fill="none" stroke="#000000" stroke-width="0.4609" stroke-linecap="round" d="M140.551,220.232
										c-0.339-0.16-0.594-0.656-0.636-1.025c0.065-0.154,0.2-0.253,0.338-0.35c0.099-0.021,0.199-0.039,0.298-0.061"/>
									<path fill="none" stroke="#000000" stroke-width="0.4292" stroke-linecap="round" d="M123.511,218.621
										c0.487,0.205,0.778,0.65,1.175,0.977c0.292,0.906-0.399,2.411,0.797,2.785"/>
									<path fill="none" stroke="#000000" stroke-width="0.4158" stroke-linecap="round" d="M134.812,220.232
										c-0.854,0.322-1.021,1.936,0,2.147"/>
									<path fill="none" stroke="#000000" stroke-width="0.5363" stroke-linecap="round" d="M151.313,228.117
										c0.168-0.311,0.666-0.29,0.971-0.467c0.139-0.231,0.22-0.41,0.272-0.604c-0.875-1.72-2.8-2.368-4.292-3.229"/>
									<path fill="none" stroke="#000000" stroke-width="0.4006" stroke-linecap="round" d="M171.401,225.967
										c-0.127-0.23-0.278-0.438-0.357-0.717"/>
								</g>
							</g>
						</g>
					</g>
				</g>
			</g>
		</g>
	</g>
</g>
<line fill="none" stroke="#231F20" stroke-width="0.5" x1="296.771" y1="31.465" x2="309.253" y2="27.65"/>
<polygon fill="#231F20" points="313.776,26.268 307.056,25.915 308.399,30.317 "/>
</svg>
