<?xml version="1.0" encoding="utf-8"?>
<!-- Generator: Adobe Illustrator 15.0.2, SVG Export Plug-In . SVG Version: 6.00 Build 0)  -->
<!DOCTYPE svg PUBLIC "-//W3C//DTD SVG 1.1//EN" "http://www.w3.org/Graphics/SVG/1.1/DTD/svg11.dtd">
<svg version="1.1" id="Layer_1" xmlns="http://www.w3.org/2000/svg" xmlns:xlink="http://www.w3.org/1999/xlink" x="0px" y="0px"
	 width="360.422px" height="148.868px" viewBox="27.037 13.198 360.422 148.868"
	 enable-background="new 27.037 13.198 360.422 148.868" xml:space="preserve">
<metadata><?xpacket begin="﻿" id="W5M0MpCehiHzreSzNTczkc9d"?>
<x:xmpmeta xmlns:x="adobe:ns:meta/" x:xmptk="Adobe XMP Core 5.0-c060 61.134777, 2010/02/12-17:32:00        ">
   <rdf:RDF xmlns:rdf="http://www.w3.org/1999/02/22-rdf-syntax-ns#">
      <rdf:Description rdf:about=""
            xmlns:dc="http://purl.org/dc/elements/1.1/">
         <dc:format>image/svg+xml</dc:format>
         <dc:title>
            <rdf:Alt>
               <rdf:li xml:lang="x-default">Print</rdf:li>
            </rdf:Alt>
         </dc:title>
      </rdf:Description>
      <rdf:Description rdf:about=""
            xmlns:xmp="http://ns.adobe.com/xap/1.0/"
            xmlns:xmpGImg="http://ns.adobe.com/xap/1.0/g/img/">
         <xmp:MetadataDate>2014-08-09T17:04:19+02:00</xmp:MetadataDate>
         <xmp:ModifyDate>2014-08-09T17:04:19+02:00</xmp:ModifyDate>
         <xmp:CreateDate>2014-08-09T17:04:19+02:00</xmp:CreateDate>
         <xmp:CreatorTool>Adobe Illustrator CS5</xmp:CreatorTool>
         <xmp:Thumbnails>
            <rdf:Alt>
               <rdf:li rdf:parseType="Resource">
                  <xmpGImg:width>256</xmpGImg:width>
                  <xmpGImg:height>108</xmpGImg:height>
                  <xmpGImg:format>JPEG</xmpGImg:format>
                  <xmpGImg:image>/9j/4AAQSkZJRgABAgEAlgCWAAD/7QAsUGhvdG9zaG9wIDMuMAA4QklNA+0AAAAAABAAlgAAAAEA&#xA;AQCWAAAAAQAB/+4ADkFkb2JlAGTAAAAAAf/bAIQABgQEBAUEBgUFBgkGBQYJCwgGBggLDAoKCwoK&#xA;DBAMDAwMDAwQDA4PEA8ODBMTFBQTExwbGxscHx8fHx8fHx8fHwEHBwcNDA0YEBAYGhURFRofHx8f&#xA;Hx8fHx8fHx8fHx8fHx8fHx8fHx8fHx8fHx8fHx8fHx8fHx8fHx8fHx8fHx8f/8AAEQgAbAEAAwER&#xA;AAIRAQMRAf/EAaIAAAAHAQEBAQEAAAAAAAAAAAQFAwIGAQAHCAkKCwEAAgIDAQEBAQEAAAAAAAAA&#xA;AQACAwQFBgcICQoLEAACAQMDAgQCBgcDBAIGAnMBAgMRBAAFIRIxQVEGE2EicYEUMpGhBxWxQiPB&#xA;UtHhMxZi8CRygvElQzRTkqKyY3PCNUQnk6OzNhdUZHTD0uIIJoMJChgZhJRFRqS0VtNVKBry4/PE&#xA;1OT0ZXWFlaW1xdXl9WZ2hpamtsbW5vY3R1dnd4eXp7fH1+f3OEhYaHiImKi4yNjo+Ck5SVlpeYmZ&#xA;qbnJ2en5KjpKWmp6ipqqusra6voRAAICAQIDBQUEBQYECAMDbQEAAhEDBCESMUEFURNhIgZxgZEy&#xA;obHwFMHR4SNCFVJicvEzJDRDghaSUyWiY7LCB3PSNeJEgxdUkwgJChgZJjZFGidkdFU38qOzwygp&#xA;0+PzhJSktMTU5PRldYWVpbXF1eX1RlZmdoaWprbG1ub2R1dnd4eXp7fH1+f3OEhYaHiImKi4yNjo&#xA;+DlJWWl5iZmpucnZ6fkqOkpaanqKmqq6ytrq+v/aAAwDAQACEQMRAD8A9U4q7FXYq7FXYq7FXYq7&#xA;FXYq7FXYq7FXYq7FXYq7FXYq7FXYq7FXYq7FXYq7FVO5ube1t5bm5lWG3hUyTTSEKiIoqzMx2AAx&#xA;VhcvmrzJ5inktvKdv9XsopPTm1i6HAVU0cRK6uFYdqo5qCrpHs2Kq8f5b2tz8evaldau7HlJFI1I&#xA;K+MauZZYvcJKB4AdMVVD+VPkPiAumcSv2G9adqEdDRnZTT3BGKqEvlHzTpBM/lzW5ZwCCdP1I+pE&#xA;wHREZQFRB14qisx/3YBiqN8v+d4ry8Ok6vbtpWtIQv1aXZJCQxHpt05MqMQtSDxbg0iozYqyfFXY&#xA;q7FXYq7FXYq7FXYq7FXYq7FXYq7FXYq7FXYq7FXYq7FXYq7FXYq7FXYq7FXEgCp2A6nFWAxvN591&#xA;UujvH5S06X93JGxX67Mu/IEEVVdirDZeo/eUMKrOra2t7W3itraJYbeFRHDDGAqIiiiqqjYADFVT&#xA;FXYq7FUo8yeWbDXLYLMBHeQg/VLwCrxkkEioKsUYopZQw3AYFXVWVVK/KPmS9kvLjy9rY9PWrIEo&#xA;xofXhFKOCAAxAZSWAAYEGgYOkarK8VdirsVdirsVdirsVdirsVdirsVdirsVQUaXM1xdf6VKiRyh&#xA;URRFQD00b9pGPVj3xVWS2mVwxupXA6owiofnRAfxxV5Rcfk75s02/wBR1PR/Nt5FbXV1e6hJoljC&#xA;8XrzXpeoZ3voELAMo5Bo/s1Uo3xYpej+T7TVbPypo9rq7vLqsFlAl/JI5lczrGok5SFn5nlWrcjX&#xA;xxQm+KuxV2KuxV2KuxV2KsO/MC+urs2nlPTWpe6yeN24ofStN+bMD2cK2x+2quoIYjFWU6dp9rp1&#xA;jDZWqcIIFCoCak9yzE7szHdmO5O5xVEYq7FXYq7FXYqxPz/o9y9rDr+mt6Wq6OfXD/FR4VqXDhal&#xA;ggLNQDkV5otPUJxVkGjapBqumW9/COKzrVoyQTG6krJGxG3JHBU+4xVqDXNEuIBcQahbTQM0KLLH&#xA;NGyFrkK0ADA0rKsqFP5uQp1GKo3FXYq7FXYq7FXYq7FXYq7FUsvfMem2121jGXvdSQKWsLVfVlXm&#xA;KqZKUSEN2aVlX3xVTFz5puN47O1sI2PwvcTNPMo/y4YlWOvf4ZyPfFViWnmqB5ZVu7G5Mj82hNvN&#xA;b1IRUoJPWn4/Z/kOKtnXr2z/AOOvpsltGPtXlq31u2Uf5RVY51/ymaEKO7YqmttdW11bx3FrKk9v&#xA;KOUU0TB0ZT3VlqCMVUdS1XTdMtvrOoXMdrBXiJJWCgtQmgr1NATt2xVKl866UYre5a3vVsrzh9Su&#xA;ltJpUm9QVQqsSySLyG45ouKon/E+m0r6N/0r/wAc6/8A+qGKq9jr+i305tra8ie7C8mtGbhcKPF4&#xA;X4yL9K4qj8VdirsVdirC/JI/S+u6z5pk+JJX+paY3UC1QK3KNh1SUCN6H7L8+lTirNMVdirsVdir&#xA;sVdirsVYZ5LA0fX9Z8rn4YInF7pidP8AR3ChlRe0cXKNK/tPyOKpDff846+RL2+W6ludRVBUSWiz&#xA;RiGSMyF1ikBiLsiLwjVeWyIg6ipU2yHyp+WOieVtVvdW0y6vJb6/t4ba4a7l9WNjAoHqlFEdZJGB&#xA;d2r9pmpStMUMn9PUv9/w/wDIl/8AqriqtCs4U+s6O1diilBT5FnxV5x+eP5hw+VtBg023muYtd1s&#xA;sunNaKvIJbvG1wXkavpKUcJzCsw5VVSRirxbTvzP896bd293qmoai1uvxzSxzNIqEgGv1e4DJMKF&#xA;/gZ1rtRlIxV9S6PrVhq+h2Ot2jn9H6haxXtvJIOB9GaMSoWB+z8Lb4qknl/z3HrFit0ul3ic1ikU&#xA;Rp6q+ncQR3MXxig5elOnNezVA5Aciqihr+o6hqMmnaVbG3lt4kmu7jUIpUCeq7rGkcYCerX0W5MH&#xA;AXbqTQKoe1n8w69LdWV2n6GtrGY2179Wm9Se4bgsg9GZQphiaORTyoJNyBwK8iqn9hp1jp9sttZQ&#xA;JbwKSeCClWO5Zu7Mx3LHc98VRGKuxV2KpNd6FJBcyahojrZ3sjepc27V+q3Td/WQV4uf9+oOXTlz&#xA;A44q3ZadqVxqSanq6wJJbI8djaW7PMkfqU9SVpXSLlIwXiKIOK8hU8jiqWWwMflPQiKEWVxZQAdK&#xA;qJ1tAfublirK8VQ2oaXp2owiG/torqIHkqyoH4sOjLX7LDsRviqTzR6r5fT17d59V0dN57SQtPew&#xA;p3eCQ1kuFXq0blpDvxYkLGVUzg13RZ4Y54b+3eGVQ8biVKMrCoI37jFURBe2dwxWCeOVgKlUdWIH&#xA;jscVSvznq6aT5X1G9Mwt5FhMcExNOM0v7uJvkHcE+2KrvJ+lnTPLOn2bRehIsQkmg2pHLMTLKgp2&#xA;V3IGKpxirsVdirsVdirsVdirD/Mi/UPO/l7VlIjiuedheyd3DHjbRD5y3Bc/6vtirMMVdirHrfVt&#xA;X1TU9Rg0y4tra306UQEz20s7StQcnDLNbqvFw8fH4vs1rvTFUUbLzOq/utVtmcj4vWs2dQf8kRzw&#xA;kfSxxV55qJ836n55m1ay00al+hrRdO5WN1HbMZJJ5DcGP67bsF3hRX4Sgin2mrsqlPli6/Ou61TW&#xA;bbX/AClc2unM/HTHg1OGYCIlhwnF/PeRShlC1ZIhvXboAqyLyp5H0h/JEsXmLRLG41TTrf6iGmii&#xA;ujHHaWyQxojuhCKoT7KfDWp6k4qyP8uI1j0NlUBUpZcFWlABploKUHTp0xVNrYf87VqJ/wCXGx/5&#xA;PXeKu0b/AI6Ovf8AMcn/AFA22KprirsVdirsVdirsVYou3lpVAoqa2EVewVdb4qB7ADbFWV4q7FX&#xA;Yq8f/MDydYWV1qVwr/V9PlntNTkgiHCWRZboRX6RzKVdBydJiRU1cjocVTmx8iaBD5LGt6dDc22t&#xA;y6MzR3NvfXqvzlgWUhT63eRFP0YqiNF8s6jr8ttqGsarJd6Rp95dDTrA/FzS3uJIYWmkojPWNRz5&#xA;hmbpz4tIrqs/xV2KuxV2KuxV2KuxV2KsT/MdeGnaZek0TTtRhvX2rtCkjdBuRWladsVZZiqR+ZPN&#xA;+naDPa208M11eXqTSW1rb+n6jrbmMScfVeIMQZk+EHka9KA0VYj5P1XzFYW967aHIbvUbpruSKVb&#xA;yJ1aRVMi8vqbRcfVDsv7zofHFU6h86a7Ny9PREdUp6jR3E8vGvisdq7fcMVSHTfNE/l++e+1TTLu&#xA;K0nhmOqXixyrbo4upblHVrqO0YilzLyAUtstBtirNYPOXleaJJRqUMUcih0ecmAMGAYU9YJvQ9MV&#xA;QemXdrd6Hrk9rNHcQPPecZYmDoaLQ0ZSRiqj+XNf0PL/ANGdP+4XZ4qm1t/ylWo/8wNj/wAnrvFX&#xA;aN/x0de/5jk/6gbbFU1xV2KuxV2KuxV2KsUFf8Ob/wDV9/7vmKsrxV2KuxV55+ajifT9TRW4/ULC&#xA;ISH3vr6HhQnaq/Uz94xVkWlMo/L6zYmijSYySdqD6sOtcVXeRAR5ZhB2InvKj/o7lxVP8VdirsVd&#xA;irsVdirsVdirFPzQ38m3iLtK5QRN0oQeT/8ABRqy/TirK8VeFf8AOTSa81/5S/QNidS1VRqLW9iL&#xA;c3YkKC2ejRAGoqvU9MVSK41m8EV9bfovWX1mz1iO3Mem+WbWSH9Fi7jLTyc7CVkmlsWeRVLVDEVU&#xA;Yqu1zXPMqzaobbSPM13Ei2X6AWfyzZybM9L31uGn1Xim6DbfrXFWLef59eu/K+p3ltoty1tp9xdq&#xA;Gu9Bit7qG2iW3eD1ngtoTAziR2aoHwqppQglV9U+XjM3l/TDMvCY2kBkShHFvTWoofA4qhLnQtRJ&#xA;vY7LUEt7TUGZ5o5IPVdGdAj+k/qIAGpWjK25PagCqQ+Qr3VLbRyraNfTchaj1QLeGrRWFtBKOE80&#xA;Ug4yxOp+HqNq4qm+mag8nmy9W6tZdPknsbQWsVy0PKb0ZbkymP0pJVPp+qnLeo5CvUYq15d1vTLj&#xA;WtZt4pgXuLv1rMnZbiKK1ghkeB/syCOWNkfifhI36iqrI8VdirsVdiqG1HUrDTbKW9v51t7WEVkl&#xA;c0AqaADuSTsANydhiqlpet6dqiubRpA8XEyQzwy20yhxVWaKdI5ArUNDxoaHwOKpFEQfJ+muNzc3&#xA;tlcIT1f1tQjm5771ZW5HFWV4q7FUu1nW4dNRI1ja71G45Cy0+Ij1ZmXrSuyotRydvhXv2xVimqeT&#xA;/Od1pUsYvtOuLu8vob++gkhnhRxE6MIBcLJLRY0iRVb0Pi47gFicVR8ml+bf8ItoMVnYB/0ebGOd&#xA;r2YgH0fSDH/RPpxVKp383+TIv0peXcep6PNctJqFjFHwNs15Ozt9XZiZJP3k3FeR32XgoYuir0FH&#xA;SRFkjYOjgMjqagg7ggjFW8VdirsVdirsVdirsVYn+YbFotCtgSVudXtY5lHX0m5Ix+hnXfxpirLM&#xA;VUL3T7C/h9C+torqEMGEU6LIvIdDxYEVGKsNi/LX8vYvNkrJ5a0ys9mHlraQMCwloDQqQNttsVTn&#xA;/lXnkD/qWdK/6Qbb/mjFUD5G8meULLyzo0lpoljBL9Vt5/VS2iD+q0SlpOXHlyJ6nFWXYq7FXYqo&#xA;XthY30Po3ttFdQghvSmRZF5DoeLAiu+Kqd7pOnXtolpcQK0ERVoQtUaJkFFaJ0KtGy/sshBHbFUv&#xA;RfMmmAIP9zdmNgSUhvlHuTwgm+dY6D+Y4qvj83aHQfW5m01unHUI3tN60orTBEf/AGDEYquPm7yq&#xA;Kf7mLJidlVbiJmY0rRVDEsfYYqptr95dfDo+mT3LVA+sXYaxt18amVfWbboY4mHuMVX2egubtNR1&#xA;e4/SGoR7wAL6dtbkih9CGr0Yjq7sz7kAhfhxVvV9N1B7qHU9JeGPUYUeF0uA3pTQvvwdk+JSkihl&#xA;ajU+IU+OoVSS3i8xpo2iaamjS+vphthcTzTWyQsLaPi5jMck0hLH7IZB78cVTv8ASWvN8KaMVcbF&#xA;pbiJY6k9Qyeq9PH4K+AOKqZg82Xi8Zri20lDs4tK3k1P5kmnSGND7NA+KozTdGsNOMkkCs9zPT6z&#xA;dzMZJ5Stac5GqaCp4qPhX9kAYqjsVdiqC1vTzqOj3tgGCNdQSRJIf2WdSFb/AGJ3xVKfy9vxeeUd&#xA;PIUxm3T6uIm+2iRHjCH/AMow8G+nFWR4q7FXYq7FXYq7FXYqw7U5P0j+ZWk2afY0i2nupj1V/WAR&#xA;oz/lRt6Dj2bFWY4q7FUgvdU07TPMxm1S6is4Lm0jisZbh1ijaRJJGmQM5UF+JjIXwB98VREnnHyl&#xA;GtX1qxFSFUfWYiSzGgUANUknYAdcVVPK8csXlnSIpUaKVLK3WSN1KOrCJQVZWoQQeoOKpnirsVdi&#xA;rsVdirsVdirsVdirsVdirsVdirsVdirsVdirsVYVoLHQvPGp6LL8NnrLHUdOY7VmYEzJU/ac8Woo&#xA;+zHGPHFWa4q7FXYq7FXYq7FVO6ube1tpbq4kEVvAjSzStsqog5Mx9gBirE/y+hmuzqnmO5jMc+rX&#xA;BCIaVWOAlAG2+2hrCSNmEanFWYYqlupa5BZ3MdlFBLfajKhkSytgpcRg05u0jRxxrUUBdhyOy1OK&#xA;of0NevdQ0+a7tra0trKZrj4Lh5pW5W8kIQoYY1X++qSHPTvWoVRPmC0urnTONqgknintrlYi3HmL&#xA;a4jnZAx2DMIyFrtXrtirVh5g067ufqTF7XUeJc2N0himIH2ilfhlVTsXiZl98VTLFVG6vrK09L61&#xA;cRW/rv6UHquqc5OLPwTkRybijNQdgcVWDU9NOnDUxdwnTWiFwt76i+gYSvMSiSvDgV35VpTFUTir&#xA;sVdirsVdirsVdirsVdirsVdiqG1LU9N0yze91K7hsbKLiJLm5kSGJeTBV5O5VRViAN+uKq8Uscsa&#xA;SxOJI5AGR1IKspFQQR1BxVdiqyC4gnQyQSLLGGZC6MGHKNijrUd1ZSpHY4qx3z15futS0+G+0z4d&#xA;c0l/rWnMKVYiheLcrUScRsWAJADHjXFUf5W8xWnmDRodRtxwdvgubc15QzKBzjaoU7VqKgVUg9Di&#xA;qbYq7FXYq7FXYqwrznqFzq2p23lHSpCJ5nWTVJ1FRDClHoT05Dkrkb9UVhxlqFWX2Nla2NlBZWkY&#xA;itbWNYYIhWiogCqu9TsBiqq7oiM7sFRQSzE0AA3JJOKpF5OaO90v9PirSa8Vv0Zq1FtIo+qx0P2e&#xA;MHHkv85Y9ziqfYq7FUDrWj2urWDWk5aNgedvcxHjNBMoPCaJv2XWv8DUEjFULoQF9pcM9wZFulLw&#xA;XapPPwE8EjQzcKvXj6kbcfbFUF5y/L/Q/Nul22m6nLdJbWt0L2MwTESGRYpIgC7iRgtJSaLTf6QV&#xA;WOyfkT5Ukjmia/1L05obO34iWAcY7Gxl0+IJSGorDcMWPXlSlBtim2daLpVvpGkWWlW7M9vYwpbw&#xA;s4QMUjUKtRGsaVoOyjFCNxV2KuxV2KuxV2KuxV2KuxV2KpV5n8taf5k0h9Kv3mjtnlhmZraQwy8o&#xA;JVlXjIvxL8SCpWh8CMVed3f/ADjV5HukdJNR1YCSaWd+M8C/FMFDqAIKKtIxsoHh0pim00ufyI8l&#xA;zxQp6t2hiWRSxNvL6rSXElwJJknhljleMzyIjOporH9qjBW0/wDKP5e6B5Wi1BNOM7vqc/1i6uJp&#xA;AZyRXinqoI3KKWYqGJ3Y+JxQnv6Pt/55v+R83/NeKsM13Qda8t6v/iXytGbm2mb/AHP6KSzGdSam&#xA;4hJ5N6qVJKj7W5A5EhlWU+X/ADHpOvWK3mnTCRdvViNBJGxFeLqCaexGzDdSVIOKpnirsVdirEvN&#xA;PnOaGdtD8txjUfMcoKiNT+7t6AcnmehUcOQJU9KrypyUMqjvJ3lVdAsG+sTfXNWuj6mo37ChkkJL&#xA;UH+SGdj7kljuTiqf4qpXdtFdWs1tKCYp0aKQDY8XBU/gcVYPpGsar5ZjTS9ThjMER4QRl0t61aii&#xA;zllMdvJG1arC0iPEPho68TirJ18y2goJrS/hk7x/UriWn+zgSWI/7FjirZ8zaaP9033/AHD77/qj&#xA;iqB1PzdPaQrINNeFZDSGW/ljtkkP8qIhuLppD+yggqcVRPlGHUk0YT6nGsN9ezTXU0CqUEYmkLRo&#xA;VLPRhHx5/EfjriqdYq7FXYq7FXYq7FXYq7FXYq7FXYq7FXYq7FXYq7FXYq7FXYqxjWvIdjeXp1TS&#xA;7h9H1gksbu3rxcnr6sYZOVTu3Fl5UHPkABiqFju/zL00enPY2+uoNonhljgkIA6zSP6KcieyQ098&#xA;VVX8xefqUXyjQmvxfpC3am3XjRa/KoxVDzaJ+YGtr6ep6pFo9iw+OLTgROyn9lmYv6br/MsjKe6n&#xA;FWQ6B5a0bQbU22mW6wh95ZOskhqTV29ixoOi9FAGKpnirsVdiq2b0vSf1uPpcT6nOnHjTflXalMV&#xA;YrF/yq7l/ov6I9app9U+r+rXetPR+PxrT3xVWP8Agehr6dO9fUpTFUVon+B/rj/oP9GfXeP7z6l9&#xA;X9Xh7+l8VMVTzFXYq7FXYq7FXYq7FXYq7FXYq7FXYq7FXYq7FXYq7FXYq7FXYq7FXYq7FXYq7FXY&#xA;q7FX/9k=</xmpGImg:image>
               </rdf:li>
            </rdf:Alt>
         </xmp:Thumbnails>
      </rdf:Description>
      <rdf:Description rdf:about=""
            xmlns:xmpMM="http://ns.adobe.com/xap/1.0/mm/"
            xmlns:stRef="http://ns.adobe.com/xap/1.0/sType/ResourceRef#"
            xmlns:stEvt="http://ns.adobe.com/xap/1.0/sType/ResourceEvent#">
         <xmpMM:InstanceID>xmp.iid:AB81E8C6D31FE411904980895B70EB67</xmpMM:InstanceID>
         <xmpMM:DocumentID>xmp.did:AB81E8C6D31FE411904980895B70EB67</xmpMM:DocumentID>
         <xmpMM:OriginalDocumentID>uuid:5D20892493BFDB11914A8590D31508C8</xmpMM:OriginalDocumentID>
         <xmpMM:RenditionClass>proof:pdf</xmpMM:RenditionClass>
         <xmpMM:DerivedFrom rdf:parseType="Resource">
            <stRef:instanceID>xmp.iid:F58B765B9D07E41183468BB91137401D</stRef:instanceID>
            <stRef:documentID>xmp.did:F58B765B9D07E41183468BB91137401D</stRef:documentID>
            <stRef:originalDocumentID>uuid:5D20892493BFDB11914A8590D31508C8</stRef:originalDocumentID>
            <stRef:renditionClass>proof:pdf</stRef:renditionClass>
         </xmpMM:DerivedFrom>
         <xmpMM:History>
            <rdf:Seq>
               <rdf:li rdf:parseType="Resource">
                  <stEvt:action>saved</stEvt:action>
                  <stEvt:instanceID>xmp.iid:F58B765B9D07E41183468BB91137401D</stEvt:instanceID>
                  <stEvt:when>2014-07-09T21:35:34+02:00</stEvt:when>
                  <stEvt:softwareAgent>Adobe Illustrator CS5</stEvt:softwareAgent>
                  <stEvt:changed>/</stEvt:changed>
               </rdf:li>
               <rdf:li rdf:parseType="Resource">
                  <stEvt:action>saved</stEvt:action>
                  <stEvt:instanceID>xmp.iid:AB81E8C6D31FE411904980895B70EB67</stEvt:instanceID>
                  <stEvt:when>2014-08-09T17:04:19+02:00</stEvt:when>
                  <stEvt:softwareAgent>Adobe Illustrator CS5</stEvt:softwareAgent>
                  <stEvt:changed>/</stEvt:changed>
               </rdf:li>
            </rdf:Seq>
         </xmpMM:History>
      </rdf:Description>
      <rdf:Description rdf:about=""
            xmlns:illustrator="http://ns.adobe.com/illustrator/1.0/">
         <illustrator:StartupProfile>Print</illustrator:StartupProfile>
      </rdf:Description>
      <rdf:Description rdf:about=""
            xmlns:xmpTPg="http://ns.adobe.com/xap/1.0/t/pg/"
            xmlns:stDim="http://ns.adobe.com/xap/1.0/sType/Dimensions#"
            xmlns:stFnt="http://ns.adobe.com/xap/1.0/sType/Font#"
            xmlns:xmpG="http://ns.adobe.com/xap/1.0/g/">
         <xmpTPg:HasVisibleOverprint>False</xmpTPg:HasVisibleOverprint>
         <xmpTPg:HasVisibleTransparency>False</xmpTPg:HasVisibleTransparency>
         <xmpTPg:NPages>1</xmpTPg:NPages>
         <xmpTPg:MaxPageSize rdf:parseType="Resource">
            <stDim:w>127.148828</stDim:w>
            <stDim:h>52.517380</stDim:h>
            <stDim:unit>Millimeters</stDim:unit>
         </xmpTPg:MaxPageSize>
         <xmpTPg:Fonts>
            <rdf:Bag>
               <rdf:li rdf:parseType="Resource">
                  <stFnt:fontName>MyriadPro-Regular</stFnt:fontName>
                  <stFnt:fontFamily>Myriad Pro</stFnt:fontFamily>
                  <stFnt:fontFace>Regular</stFnt:fontFace>
                  <stFnt:fontType>Open Type</stFnt:fontType>
                  <stFnt:versionString>Version 2.062;PS 2.000;hotconv 1.0.57;makeotf.lib2.0.21895</stFnt:versionString>
                  <stFnt:composite>False</stFnt:composite>
                  <stFnt:fontFileName>MyriadPro-Regular.otf</stFnt:fontFileName>
               </rdf:li>
            </rdf:Bag>
         </xmpTPg:Fonts>
         <xmpTPg:PlateNames>
            <rdf:Seq>
               <rdf:li>Cyan</rdf:li>
               <rdf:li>Magenta</rdf:li>
               <rdf:li>Yellow</rdf:li>
               <rdf:li>Black</rdf:li>
            </rdf:Seq>
         </xmpTPg:PlateNames>
         <xmpTPg:SwatchGroups>
            <rdf:Seq>
               <rdf:li rdf:parseType="Resource">
                  <xmpG:groupName>Default Swatch Group</xmpG:groupName>
                  <xmpG:groupType>0</xmpG:groupType>
               </rdf:li>
            </rdf:Seq>
         </xmpTPg:SwatchGroups>
      </rdf:Description>
      <rdf:Description rdf:about=""
            xmlns:pdf="http://ns.adobe.com/pdf/1.3/">
         <pdf:Producer>Adobe PDF library 9.90</pdf:Producer>
      </rdf:Description>
   </rdf:RDF>
</x:xmpmeta>
                                                                                                    
                                                                                                    
                                                                                                    
                                                                                                    
                                                                                                    
                                                                                                    
                                                                                                    
                                                                                                    
                                                                                                    
                                                                                                    
                                                                                                    
                                                                                                    
                                                                                                    
                                                                                                    
                                                                                                    
                                                                                                    
                                                                                                    
                                                                                                    
                                                                                                    
                                                                                                    
                           
<?xpacket end="w"?>
	</metadata>
<g>
	<g>
		<g>
			<g>
				<g>
					<defs>
						<rect id="SVGID_1_" x="37.386" y="13.198" width="350.072" height="148.868"/>
					</defs>
					<clipPath id="SVGID_2_">
						<use xlink:href="#SVGID_1_"  overflow="visible"/>
					</clipPath>
					<g transform="matrix(1 0 0 1 -8.631250e-007 3.231098e-007)" clip-path="url(#SVGID_2_)">
						<g>
							<g>
								<path d="M86.789,90.911c-1.05,0-2.1,0-3.148,0c-0.404,3.373,0.817,9.56-0.332,12.045l-0.193-0.247l-0.304,0.082
									c0-0.109,0-0.221,0-0.33c-0.483-0.674-1.82-0.498-2.487-0.99l0.249-0.191l-0.083-0.303c0.221,0,0.442,0,0.664,0
									c0-1.318,0-2.641,0-3.959l0.249-0.19l-0.083-0.306c0.765-0.102,0.954,0.371,1.658,0.33c0-0.438,0-0.879,0-1.318l0.212-0.402
									l-0.377-0.257c0.199-0.22,0.063-0.261,0-0.495l0.377-0.256l-0.212-0.4c0-0.389,0-0.771,0-1.156l0.249-0.33l-0.249-0.33
									c0-0.109,0-0.219,0-0.33l0.208-0.411l-0.208-0.413c0-0.055,0-0.109,0-0.165h0.415l0.249-0.329
									c1.052,0.107,2.54-0.218,3.314,0.164l-0.249,0.193L86.789,90.911z M82.313,100.977c-0.037,0.28,0.187,0.408,0.166,0
									c0-0.272,0-0.551,0-0.824c0-0.604,0-1.211,0-1.813c-0.037-0.313,0.187-0.36,0.166-0.657
									c-0.037-0.131-0.141-0.191-0.332-0.164C82.313,98.666,82.313,99.82,82.313,100.977z"/>
								<path d="M74.936,104.316l0.083,0.455c-0.166,0-0.332,0-0.498,0l0.083-0.578l-0.58-0.082c-0.276,0-0.553,0-0.829,0
									L72.79,103.9l-0.258,0.375c-3.508-0.297-8.227-0.164-12.434-0.164c-1.784,0-4.035-0.338-4.644,0.494l-0.391,0.047
									l-0.272,0.283c-1.476-0.235-3.401-0.022-4.642-0.494l0.249-0.192l-0.083-0.304c1.192-0.105,1.81,0.313,2.487,0
									c-0.917-0.231-0.936-1.793-0.497-2.313l0.191,0.248l0.306-0.083c0,0.44,0,0.882,0,1.32
									c5.472,0.558,17.336,0.354,22.547,0.165l-0.083,0.303l0.249,0.189c-0.032,0.137-0.167,0.164-0.166,0.33L74.936,104.316z
									 M54.958,104.111c-0.241,0.09-0.855-0.193-0.829,0.164C54.371,104.186,54.986,104.469,54.958,104.111z"/>
								<path d="M38.187,148.412l-0.306,0.083c0.183-1.142,0.408-2.233,0.995-2.972l0.193,0.248l0.304-0.082
									c-0.294,1.054-0.605,1.553-0.166,2.641l-0.304-0.083l-0.193,0.248c-0.134,0.03-0.165,0.165-0.332,0.165L38.187,148.412z"/>
								<path d="M45.039,102.709l-0.191,0.247c-0.27,0.047-0.286-0.156-0.498-0.165c0-4.51,0-9.02,0-13.529
									c0.268,0.047,0.284-0.156,0.498-0.164l0.114,0.279l0.218,0.215c0.079,0.521-0.301,0.582-0.166,1.154l-0.057,0.439
									l0.389,0.221c-0.089,0.133-0.175,0.268-0.166,0.494l-0.38,0.258l0.214,0.402c0,0.385,0,0.771,0,1.153l-0.057,0.438
									l0.389,0.222c-0.031,0.135-0.166,0.165-0.166,0.33c0.134,0.144,0.452,0.101,0.495,0.33l-0.249,0.19l0.083,0.303
									c-0.166,0-0.33,0-0.496,0c0,0.44,0,0.882,0,1.32c0.995,0.06,1.322-0.554,2.319-0.494l-0.083,0.304l0.249,0.19
									c-0.975,0.568-0.296,2.784-0.497,4.125c0.223,0,0.442,0,0.663,0l-0.083,0.303l0.249,0.19
									c-0.53,0.243-1.073,0.474-1.824,0.495l0.083-0.302l-0.249-0.193c0-1.317,0-2.64,0-3.959c-0.166,0-0.332,0-0.498,0
									c-0.521,0.968-0.275,2.693-0.332,4.125c0.111,0,0.223,0,0.332,0l-0.083,0.304l0.249,0.19
									c-0.129,0.146-0.178,0.373-0.166,0.66L45.039,102.709z"/>
								<path d="M49.239,88.135l-0.249-0.193c0.021-0.364,0.703-0.07,0.995-0.165c-0.03-0.14,0.063-0.155,0.166-0.165l0.332,0.33
									l0.332-0.33c0.332,0,0.663,0,0.995,0l-0.083,0.303l0.249,0.192c-0.751,0.297-1.748,0.351-2.818,0.33L49.239,88.135z"/>
								<path d="M77.008,76.31v-0.413c0.161-0.004,0.131-0.202,0.166-0.33h0.332v-0.33c1.538,0.944,4.403,0.568,6.799,0.66
									c0.042-2.827,5.221-3.202,4.973,0.165c1.829,0.2,4.646,0.47,5.803-0.495l0.083,0.248l0.083,0.248c0,0.11,0,0.22,0,0.33
									c0.111,0,0.221,0,0.332,0l-0.083,0.302l0.249,0.192c-1.867,0.064-3.218,0.354-5.139,0.66l0.083-0.303l-0.249-0.192
									c-0.193-0.315-1.834-0.557-1.161,0.165l-0.083,0.303l0.249,0.192c-1.421,0.572-3.359,0.997-4.644,0l0.083-0.303
									l-0.249-0.192c-0.032-1.233-2.843-0.578-3.646-0.495l-0.249,0.193l0.083,0.302c-1.706,0.224-2.788-1.593-3.647-0.33
									l-0.191-0.248l-0.304,0.083c0-0.055,0-0.11,0-0.165L77.008,76.31z M87.287,75.732c0.028-0.358-0.588-0.075-0.829-0.165
									C86.081,76.221,87.473,76.298,87.287,75.732z M87.453,77.052C86.391,76.861,87.088,77.556,87.453,77.052L87.453,77.052z"/>
								<path d="M77.146,74.33l-0.306,0.083c0.339-2.745,0.973-5.193,1.326-7.92c0.988-0.447,1.621-1.247,2.984-1.32l-0.083,0.302
									l0.249,0.192c-0.104,0.147-0.2,0.295,0,0.33l-0.083,0.248l0.083,0.248c-0.314,0.297-2.209,0.578-1.492,0.825l-0.083,0.302
									l0.249,0.192c-0.077,0.269-1.253,0.272-0.663,0.66l-0.083,0.302l0.249,0.193c-0.083,0.369-1.358,0.391-0.829,0.825
									l-0.083,0.303l0.249,0.192c-0.729,0.594-1.021,1.622-0.995,2.97l-0.249,0.413l0.414,0.248
									c-0.147,0.291-0.371,0.511-0.663,0.66L77.146,74.33z"/>
								<path d="M82.064,65.2l-0.249-0.192c-0.031-0.141,0.063-0.156,0.166-0.165l0.509,0.012l-0.012-0.507
									c0.819,0.212-0.158-1.367,0.663-1.155l0.083,0.413l0.414,0.083c-0.03,0.14,0.063,0.155,0.166,0.165l-0.083,0.303
									l0.249,0.192c0,0.11,0,0.22,0,0.33l-0.249,0.192l0.083,0.303c-0.514,0.205-1.181,0.257-1.824,0.33L82.064,65.2z"/>
								<path d="M91.625,64.815l0.472,0.027c0,0.055,0,0.11,0,0.165l-0.25,0.193l0.083,0.302c-0.724-0.051-1.356-0.19-1.99-0.33
									l0.083-0.303l-0.249-0.192c-0.03-0.14,0.063-0.156,0.166-0.165l0.581-0.083l0.58,0.083c0.133-0.087,0.269-0.172,0.498-0.165
									L91.625,64.815z"/>
								<path d="M94.719,66.41l0.191-0.248c0.521-0.078,0.438,0.444,0.829,0.495c0.01,2.222,0.149,3.299,0.166,5.445l-0.304-0.083
									l-0.193,0.248c-0.376-0.176-0.063-1.037-0.166-1.485c-0.221-0.166-0.5-0.271-0.663-0.495l0.341-0.266l-0.175-0.395
									c0-0.055,0-0.11,0-0.165l0.516-0.016l-0.184-0.479c0.097-0.646-0.682-0.421-0.829-0.825l0.249-0.192l-0.083-0.303
									c0.798-0.061-0.463-0.385-0.498-0.66l0.249-0.192l-0.083-0.303c0.192,0.027,0.295-0.037,0.332-0.165L94.719,66.41z"/>
								<path d="M99.472,70.314l-0.249-0.192c1.822-0.384,4.363-0.056,6.466-0.165c0.597-1.056,0.08-3.22,0.497-4.455l0.191,0.248
									l0.306-0.083c0,1.54,0,3.08,0,4.62h-0.555l-0.44,0.33c-2.102,0-4.2,0-6.3,0L99.472,70.314z"/>
								<path d="M53.936,78.454l-0.306,0.083c-0.031-0.472-0.021-0.9,0.497-0.825c0.13,0.114,0.369,0.92,0,0.99L53.936,78.454z"/>
								<path d="M74.991,78.29l-0.304,0.083c0.033-0.572,0.138-1.073,0.829-0.99c0.016,0.511-0.075,0.915-0.332,1.155L74.991,78.29z
									"/>
								<path d="M47.083,92.863L47,92.561c0.863-0.088,1.229,0.316,1.989,0.33l-0.083,0.303l0.249,0.193
									c-1.025,0.243-2.07,0.469-3.15,0.659l0.083-0.303l-0.249-0.192c0.142-0.355,0.855-0.14,0.995-0.494L47.083,92.863z"/>
								<path d="M78.085,93.029l-0.083-0.303c1.416,0.088,2.563-0.094,3.647-0.33l-0.083,0.303l0.249,0.191
									c-0.125,0.313-0.495,0.112-0.166,0.494L81.4,93.578l0.083,0.303c-1.146-0.293-2.562-0.313-3.647-0.66L78.085,93.029z"/>
								<path d="M46.752,95.669l-0.083-0.304c3.33,0.818,7.78,0.004,11.771-0.164c5.896-0.247,12.041-0.071,17.739,0.494
									l-0.249,0.193l0.083,0.303c-0.057,0-0.11,0-0.166,0c0,1.375,0,2.75,0,4.125c0.343,0.098,1.089-0.205,1.158,0.164
									l-0.249,0.19l0.083,0.306c-0.615,0.229-1.75-0.418-1.656,0.164l-0.511-0.015l0.014,0.507c-7.239,0-14.479,0-21.72,0
									l0.083-0.302l-0.247-0.19c0.461-0.656-0.844,0.073-1.492-0.164l0.083-0.306l-0.249-0.19
									c0.612-0.818,0.221-2.642,0.332-3.959c-0.476-0.271-1.457,0.131-2.155,0.164c0,1.317,0,2.641,0,3.961
									c0.221,0,0.442,0,0.663,0l-0.083,0.301l0.249,0.193c-0.603,0.279-1.419,0.348-2.321,0.33l0.083-0.305l-0.249-0.189
									c0.451-0.666,0.727-3.728-0.166-4.125l0.083-0.306l-0.249-0.19c-0.054-0.389-0.723-0.16-0.829-0.494L46.752,95.669z
									 M59.269,99.82c1.768,0,3.537,0,5.305,0c0-1.319,0-2.639,0-3.959c-1.769,0-3.537,0-5.305,0
									C59.269,97.182,59.269,98.501,59.269,99.82z M65.9,99.82c1.325,0.002,2.713-0.063,3.813,0.166
									c0.271-1.021,0.271-3.104,0-4.125c-1.271,0-2.542,0-3.813,0C65.9,97.182,65.9,98.501,65.9,99.82z M57.943,99.986
									c0.267-0.713,0.13-2.549,0.166-3.961c-1.948-0.123-3.382,0.265-5.305,0.166c0,1.318,0,2.64,0,3.959
									c3.148,0,3.065,0.304,3.065,0.304l0.249,0.192c4.752,0.33,11.329,0.33,17.905,0.33c0.255-0.088,0.01-0.176-0.166-0.166
									c-5.814-0.379-13.042-0.51-19.065,0c1.327-0.164,1.409-0.469,1.409-0.469l-0.249-0.191
									C55.953,100.15,55.873,100.01,57.943,99.986z M71.04,99.986c1.832,0.082,1.99,0.086,3.481,0.164c0-1.319,0-2.641,0-3.959
									c-1.319,0.103-2.145-0.287-3.481-0.166C71.04,97.348,71.04,98.666,71.04,99.986z"/>
								<path d="M77.422,96.164l-0.083-0.303c1.731,0.183,2.586-0.506,4.146-0.496l-0.083,0.304l0.249,0.192
									c-0.142,0.354-0.854,0.14-0.995,0.494l-0.249,0.19l0.083,0.306c-0.221,0-0.442,0-0.663,0
									c-0.071,1.303,0.167,2.916-0.166,3.959c0.241,0.09,0.857-0.192,0.829,0.166l-0.249,0.189l0.083,0.305
									c-0.902,0.018-1.72-0.051-2.321-0.33l0.249-0.193l-0.083-0.301c0.703-0.176,0.16-2.813,0.332-3.961
									c-0.172-0.379-1.184,0.078-1.326-0.33L77.422,96.164z"/>
								<g>
									<path fill="none" stroke="#000000" stroke-width="0.6431" stroke-linecap="round" d="M83.114,102.709
										c-2.307,1.428-5.484,1.631-8.179,1.607"/>
									<path fill="none" stroke="#000000" stroke-width="0.6408" stroke-linecap="round" d="M85.798,153.247
										c0.014,0.034,0.024,0.069,0.036,0.104c-0.753,3.146-3.655,5.34-6.974,6.317c-5.591,1.649-14.014,1.614-20.929,1.188
										c-2.905-0.178-6.177-0.621-8.514-1.152c-5.705-1.301-12.522-4.868-11.231-11.294"/>
									<path fill="none" stroke="#000000" stroke-width="0.6669" stroke-linecap="round" d="M57.353,125.02
										c-0.055-0.021-0.106-0.045-0.159-0.064c-0.313-0.104-0.648,0.006-0.959-0.088c-0.411-0.197-0.954-0.523-1.095-1.246
										c-0.496-2.539-0.017-6.2-0.017-9.521c0-3.434,0.046-6.955-0.06-9.441"/>
									<path fill="none" stroke="#000000" stroke-width="0.6187" stroke-linecap="round" d="M50.399,104.249
										c-1.748-0.528-3.959-0.22-5.36-1.54"/>
									<path fill="none" stroke="#000000" stroke-width="0.5974" stroke-linecap="round" d="M44.961,89.377
										c1.271-0.82,2.832-0.932,4.277-1.242"/>
									<path fill="none" stroke="#000000" stroke-width="0.6481" stroke-linecap="round" d="M50.482,87.941
										c0.359-2.973,1.339-6.918,1.975-9.861c0.622-2.875,0.951-3.023,3.677-3.511c2.77-0.496,5.321-0.727,8.432-0.722
										c4.019,0.006,7.808,0.763,12.441,2.462"/>
									<path fill="none" stroke="#000000" stroke-width="0.5315" stroke-linecap="round" d="M77.505,75.567
										c-0.354-0.307-0.533-0.786-0.357-1.237"/>
									<path fill="none" stroke="#000000" stroke-width="0.5255" stroke-linecap="round" d="M81.07,65.475
										c0.349-0.043,0.645-0.231,0.995-0.275"/>
									<path fill="none" stroke="#000000" stroke-width="0.6476" stroke-linecap="round" d="M80.804,62.532
										c-0.149-2.422,6.211-2.81,9.645-2.136c1.209,0.237,2.851,0.731,3.124,1.447c0.032,0.219-0.003,0.503-0.105,0.762"/>
									<path fill="none" stroke="#000000" stroke-width="0.6434" stroke-linecap="round" d="M93.467,62.605
										c0.63,1.315-1.021,1.699-1.842,2.209"/>
									<path fill="none" stroke="#000000" stroke-width="0.5919" stroke-linecap="round" d="M91.846,65.2
										c0.966,0.331,2.207,0.367,2.874,1.21"/>
									<path fill="none" stroke="#000000" stroke-width="0.6579" stroke-linecap="round" d="M95.725,73.834
										c0.391,0.686,0.177,1.638-0.563,1.98"/>
									<path fill="none" stroke="#000000" stroke-width="0.6357" stroke-linecap="round" d="M97.317,76.227
										c0.222-2.063-0.53-5.167,2.155-5.913"/>
									<path fill="none" stroke="#000000" stroke-width="0.6736" stroke-linecap="round" d="M109.651,66.822
										c4.053,0.252,8.289-0.534,12.211,0.449"/>
									<path fill="none" stroke="#000000" stroke-width="0.6266" stroke-linecap="round" d="M121.862,67.271
										c1.24-4.181,7.412-5.055,9.468-1"/>
									<path fill="none" stroke="#000000" stroke-width="0.6002" stroke-linecap="round" d="M131.33,66.272
										c11.476-10.018,26.738-16.198,41.021-13.467c6.806,1.301,13.835,4.585,20.416,9.517c1.598,1.198,3.181,3.103,5.276,2.677
										c1.265-0.256,2.354-1.307,3.256-2.507c1.236-1.643,2.37-6.822,5.622-5.395c0.058,0.013,0.112,0.025,0.167,0.038"/>
									<path fill="none" stroke="#000000" stroke-width="0.6424" stroke-linecap="round" d="M207.09,57.135
										c1.542-2.73,6.34-2.083,8.682-0.79"/>
									<path fill="none" stroke="#000000" stroke-width="0.6181" stroke-linecap="round" d="M215.77,56.345
										c13.805-1.983,29.273,2.299,38.215,13.53"/>
									<path fill="none" stroke="#000000" stroke-width="0.8092" stroke-linecap="round" d="M253.984,69.875
										c0.301-0.145,0.488-0.275,0.695-0.38c4.975,0.068,10.008,0.115,14.982-0.023c0.281,0.08,0.48,0.22,0.615,0.439
										c0.046,0.288,0.063,0.596-0.049,0.872"/>
									<path fill="none" stroke="#000000" stroke-width="0.6803" stroke-linecap="round" d="M270.23,70.782
										c0.127,0.285,0.064,0.605,0.084,0.907"/>
									<path fill="none" stroke="#000000" stroke-width="0.6855" stroke-linecap="round" d="M270.314,71.689
										c1.107,0.248,2.306-0.103,3.406,0.202"/>
									<path fill="none" stroke="#000000" stroke-width="0.6413" stroke-linecap="round" d="M273.721,71.891
										c0.582-0.272,1.27,0.047,1.844-0.271c1.013,0.118,0.681,1.441,1.215,2.029"/>
									<path fill="none" stroke="#000000" stroke-width="0.6109" stroke-linecap="round" d="M276.779,73.649
										c5.725-0.216,7.475-5.364,8.604-10.253c5.701-24.628,24.749-53.575,54.955-49.363c25.874,3.607,40.993,31.487,44.818,54.74
										c4.692,28.53-3.143,65.104-28.933,81.396c-8.378,5.293-16.736,6.892-25.293,6.201
										c-20.764-1.673-36.613-21.302-43.363-41.497c-1.379-4.121-2.014-9.082-3.53-12.96c-1.468-3.754-4.294-4.776-7.212-5.44"/>
									<path fill="none" stroke="#000000" stroke-width="0.6943" stroke-linecap="round" d="M276.779,73.649
										c0.078,0.575-0.194,1.275,0.229,1.753"/>
									<path fill="none" stroke="#000000" stroke-width="0.6056" stroke-linecap="round" d="M277.007,75.402
										c7.121-0.094,9.058-7.549,10.368-12.831c4.365-17.574,16.096-39.636,37.39-45.75c28.764-8.259,50.386,18.841,57.08,44.692
										c3.885,14.996,4.17,31.82-0.078,47.354c-5.457,19.951-18.51,41.766-41.062,45.41c-5.24,0.849-10.407,0.699-15.156-0.625
										c-19.468-5.43-30.432-21.979-36.177-39c-1.215-3.598-1.947-7.566-2.981-11.219c-1.306-4.584-3.869-7.734-9.326-8.639"/>
									<path fill="none" stroke="#000000" stroke-width="0.6664" stroke-linecap="round" d="M277.007,75.402
										c0.572,6.406,0.464,13.004,0.058,19.396"/>
									<path fill="none" stroke="#000000" stroke-width="0.6056" stroke-linecap="round" d="M131.717,100.168
										c4.615,3.712,11.071,8.172,18.188,10.898c5.676,2.176,11.354,3.4,18.63,2.771c9.34-0.813,18.719-5.334,25.135-10.813
										c1.197-1.021,2.475-2.256,4.104-2.047c4.062,0.522,4.078,5.713,6.601,7.707c0.853,0.672,1.046,0.653,2.605,0.309
										c0.028-0.006,0.06-0.01,0.09-0.014"/>
									<path fill="none" stroke="#000000" stroke-width="0.6626" stroke-linecap="round" d="M207.066,108.979
										c1.72-1.594,1.271-5.229,1.418-8.346c0.255-5.373,0.563-10.964,0.829-16.222c0.103-2.048-0.021-4.963-0.175-7.76
										c-0.243-4.367-0.477-9.667-0.663-13.695c-0.104-2.18-0.005-4.571-1.387-5.822"/>
									<path fill="none" stroke="#000000" stroke-width="0.6434" stroke-linecap="round" d="M207.066,108.979
										c1.124,3.195,6.354,2.48,8.704,1.09"/>
									<path fill="none" stroke="#000000" stroke-width="0.6693" stroke-linecap="round" d="M215.77,110.066
										c0.274-17.859,0.274-35.868,0-53.724"/>
									<path fill="none" stroke="#000000" stroke-width="0.6273" stroke-linecap="round" d="M215.77,110.066
										c13.771,1.99,29.125-2.35,38.164-13.377"/>
									<path fill="none" stroke="#000000" stroke-width="0.6306" stroke-linecap="round" d="M253.934,96.689
										c4.744-6.598,5.813-15.36,2.537-22.813"/>
									<path fill="none" stroke="#000000" stroke-width="0.6233" stroke-linecap="round" d="M256.471,73.876
										c-0.744-0.827-1.388-1.894-1.658-2.97"/>
									<path fill="none" stroke="#000000" stroke-width="0.6385" stroke-linecap="round" d="M80.804,62.532
										c3.974-1.514,8.71-1.712,12.661,0.073"/>
									<path fill="none" stroke="#000000" stroke-width="0.6429" stroke-linecap="round" d="M83.225,63.605
										c1.891-1.551,5.896-1.687,7.527,0.21c0.009,0.181-0.106,0.401-0.232,0.615"/>
									<path fill="none" stroke="#000000" stroke-width="0.7121" stroke-linecap="round" d="M80.804,62.532
										c-0.522,1.289,1.002,1.66,1.687,2.322"/>
									<path fill="none" stroke="#000000" stroke-width="0.6071" stroke-linecap="round" d="M121.816,99.234
										c0.259,5.449,8.551,6.275,9.899,0.934"/>
									<path fill="none" stroke="#000000" stroke-width="0.6703" stroke-linecap="round" d="M131.717,100.168
										c-0.001-10.809,0.001-21.618-0.001-32.426c-0.146-0.487-0.361-0.953-0.386-1.47"/>
									<path fill="none" stroke="#000000" stroke-width="0.6769" stroke-linecap="round" d="M86.375,64.842
										c0.358,0.02,0.735-0.058,1.078,0.083"/>
									<path fill="none" stroke="#000000" stroke-width="0.6583" stroke-linecap="round" d="M87.453,64.925
										c0.728-0.146,1.507-0.114,2.238,0"/>
									<path fill="none" stroke="#000000" stroke-width="0.513" stroke-linecap="round" d="M89.69,64.925
										c0.109-0.007,0.221-0.03,0.332-0.055"/>
									<path fill="none" stroke="#000000" stroke-width="0.6902" stroke-linecap="round" d="M90.52,64.43
										c-2.021-1.153-4.649-1.011-6.797-0.275"/>
									<path fill="none" stroke="#000000" stroke-width="0.6705" stroke-linecap="round" d="M106.127,96.368
										c0.477,1.735-0.439,6.071,2.227,5.427c1.051-0.255,1.161-1.15,1.299-2.305"/>
									<path fill="none" stroke="#000000" stroke-width="0.8335" stroke-linecap="round" d="M109.651,99.49
										c-0.11-10.873-0.11-21.794,0-32.668"/>
									<path fill="none" stroke="#000000" stroke-width="0.6431" stroke-linecap="round" d="M109.651,66.822
										c0.491-2.072-2.643-3.336-3.271-1.073"/>
									<path fill="none" stroke="#000000" stroke-width="0.6267" stroke-linecap="round" d="M81.235,66.245
										c1.688-0.398,3.398-0.608,5.14-0.66"/>
									<path fill="none" stroke="#000000" stroke-width="0.1905" stroke-linecap="round" d="M86.375,65.585
										c0-0.23,0-0.486,0-0.743"/>
									<path fill="none" stroke="#000000" stroke-width="0.6427" stroke-linecap="round" d="M86.375,64.842
										c-0.888-0.046-1.783,0.061-2.651,0.027"/>
									<path fill="none" stroke="#000000" stroke-width="0.5191" stroke-linecap="round" d="M86.375,65.585
										c0.359-0.021,0.748,0.085,1.078-0.11"/>
									<path fill="none" stroke="#000000" stroke-width="0.6668" stroke-linecap="round" d="M87.453,65.475c0-0.16,0-0.354,0-0.55
										"/>
									<path fill="none" stroke="#000000" stroke-width="0.6665" stroke-linecap="round" d="M87.453,65.475
										c0.606,0.358,1.36,0.125,2.031,0.192"/>
									<path fill="none" stroke="#000000" stroke-width="0.2447" stroke-linecap="round" d="M89.483,65.667
										c0.172-0.185,0.191-0.533,0.207-0.742"/>
									<path fill="none" stroke="#000000" stroke-width="0.6105" stroke-linecap="round" d="M89.483,65.667
										c1.562,0.34,3.173,0.551,4.683,1.128"/>
									<path fill="none" stroke="#000000" stroke-width="0.6373" stroke-linecap="round" d="M79.744,67.62
										c4.721-1.37,10.146-1.542,14.755,0.33"/>
									<path fill="none" stroke="#000000" stroke-width="0.6396" stroke-linecap="round" d="M79.246,68.774
										c5.107-1.751,11.171-1.949,16.017,0.671"/>
									<path fill="none" stroke="#000000" stroke-width="0.666" stroke-linecap="round" d="M109.651,99.49
										c4.047-0.129,8.193,0.285,12.165-0.256"/>
									<path fill="none" stroke="#000000" stroke-width="0.6704" stroke-linecap="round" d="M121.816,99.234
										c0.229-10.616,0.138-21.328,0.046-31.963"/>
									<path fill="none" stroke="#000000" stroke-width="0.6388" stroke-linecap="round" d="M78.583,70.095
										c5.073-2.169,11.199-1.995,16.339-0.073"/>
									<path fill="none" stroke="#000000" stroke-width="0.6652" stroke-linecap="round" d="M77.588,73.669
										c5.681-2.298,12.543-2.358,18.139,0.165"/>
									<path fill="none" stroke="#000000" stroke-width="0.6931" stroke-linecap="round" d="M95.725,73.834
										c-0.011-0.604,0.123-1.242-0.122-1.815"/>
									<path fill="none" stroke="#000000" stroke-width="0.6823" stroke-linecap="round" d="M253.984,69.875
										c0.004,0.499,0.414,0.824,0.828,1.031"/>
									<path fill="none" stroke="#000000" stroke-width="0.7392" stroke-linecap="round" d="M97.317,91.076
										c0.058,2.848-0.043,4.854,2.366,5.431c1.063,0.257,5.09-0.245,6.442-0.139"/>
									<path fill="none" stroke="#000000" stroke-width="0.9971" stroke-linecap="round" d="M106.127,96.368
										c0.103-8.682,0.095-17.398,0.004-26.081"/>
									<path fill="none" stroke="#000000" stroke-width="0.6737" stroke-linecap="round" d="M256.471,73.876
										c1.258-0.324,2.623,0.052,3.896-0.207"/>
									<path fill="none" stroke="#000000" stroke-width="0.7021" stroke-linecap="round" d="M260.367,73.669
										c0.011-0.622,0.119-1.381,0.648-1.782c0.127-0.024,0.27-0.011,0.383-0.004c0.02,0.003,0.037,0.006,0.056,0.008"/>
									<path fill="none" stroke="#000000" stroke-width="0.6551" stroke-linecap="round" d="M261.454,71.891
										c0.664-0.07,1.403-0.51,2.008-0.009"/>
									<path fill="none" stroke="#000000" stroke-width="0.6706" stroke-linecap="round" d="M270.23,70.782
										c-5.133,0.082-10.316-0.164-15.418,0.124"/>
									<path fill="none" stroke="#000000" stroke-width="0.6982" stroke-linecap="round" d="M261.527,98.419
										c0.615,0.122,1.31,0.156,1.916-0.037"/>
									<path fill="none" stroke="#000000" stroke-width="0.66" stroke-linecap="round" d="M263.443,98.382
										c1.527-8.653,1.515-17.821,0.019-26.5"/>
									<path fill="none" stroke="#000000" stroke-width="0.6623" stroke-linecap="round" d="M273.721,71.891
										c1.692,8.635,1.502,17.866,0.072,26.528"/>
									<path fill="none" stroke="#000000" stroke-width="0.6342" stroke-linecap="round" d="M273.795,98.419
										c1.729,0.634,2.73-0.37,3.033-1.946"/>
									<path fill="none" stroke="#000000" stroke-width="0.7103" stroke-linecap="round" d="M276.829,96.473
										c-0.065-0.555-0.146-1.209,0.233-1.675"/>
									<path fill="none" stroke="#000000" stroke-width="0.6715" stroke-linecap="round" d="M263.443,98.382
										c3.41,0.222,6.929,0.151,10.353,0.037"/>
									<path fill="none" stroke="#000000" stroke-width="0.6721" stroke-linecap="round" d="M270.314,71.689
										c-2.258,0.261-4.604-0.114-6.854,0.192"/>
									<path fill="none" stroke="#000000" stroke-width="0.6362" stroke-linecap="round" d="M260.367,96.934
										c0.02,0.539,0.234,1.146,0.617,1.522c0.145,0.035,0.298,0.015,0.437-0.001c0.035-0.014,0.071-0.023,0.106-0.036"/>
									<path fill="none" stroke="#000000" stroke-width="0.6638" stroke-linecap="round" d="M261.527,98.419
										c1.478-8.694,1.632-17.872-0.073-26.528"/>
									<path fill="none" stroke="#000000" stroke-width="0.6746" stroke-linecap="round" d="M253.934,96.689
										c2.08,0.422,4.317-0.049,6.434,0.244"/>
									<path fill="none" stroke="#000000" stroke-width="0.6616" stroke-linecap="round" d="M260.367,96.934
										c0.064-0.033,0.132-0.066,0.197-0.104c1.015-5.879,1.457-14.775,0.457-21.441c-0.104-0.691-0.133-1.229-0.654-1.719"/>
									<path fill="none" stroke="#000000" stroke-width="0.6726" stroke-linecap="round" d="M51.726,87.914
										c0.459-0.168,0.964-0.074,1.409-0.286"/>
									<path fill="none" stroke="#000000" stroke-width="0.6589" stroke-linecap="round" d="M53.135,87.628
										c-0.031-3.099,0.639-6.104,0.803-9.174"/>
									<path fill="none" stroke="#000000" stroke-width="0.7549" stroke-linecap="round" d="M53.135,87.628
										c6.742-0.372,13.647-0.359,20.394-0.099"/>
									<path fill="none" stroke="#000000" stroke-width="0.639" stroke-linecap="round" d="M73.526,87.529
										c-0.121-3.164,0.669-6.219,1.464-9.24"/>
									<path fill="none" stroke="#000000" stroke-width="0.67" stroke-linecap="round" d="M73.526,87.529
										c1.856,0.21,3.763,0.612,5.637,0.495"/>
									<path fill="none" stroke="#000000" stroke-width="0.6162" stroke-linecap="round" d="M79.163,88.023
										c-1.752-3.481-3.753-7.458-2.183-11.384"/>
									<path fill="none" stroke="#000000" stroke-width="0.6381" stroke-linecap="round" d="M79.163,88.023
										c1.296,0.709,3.025,0.395,4.102,1.521c0.097,0.34-0.024,0.708,0.127,1.035"/>
									<path fill="none" stroke="#000000" stroke-width="0.667" stroke-linecap="round" d="M86.707,90.609
										c3.527,0.229,7.052,0.439,10.61,0.467"/>
									<path fill="none" stroke="#000000" stroke-width="0.6711" stroke-linecap="round" d="M97.317,91.076
										c0.138-4.925,0.138-9.924,0-14.849"/>
									<path fill="none" stroke="#000000" stroke-width="0.6071" stroke-linecap="round" d="M97.317,76.227
										c-0.624,0.078-1.213,0.325-1.824,0.467"/>
									<path fill="none" stroke="#000000" stroke-width="0.6362" stroke-linecap="round" d="M80.738,76.915
										c1.334,0.435,2.761,0.548,4.145,0.495"/>
									<path fill="none" stroke="#000000" stroke-width="0.6374" stroke-linecap="round" d="M89.193,77.52
										c0.47-0.246,1.021-0.025,1.492-0.275"/>
									<path fill="none" stroke="#000000" stroke-width="0.6829" stroke-linecap="round" d="M48.907,93.193
										c9.583-1.332,19.572-1.289,29.178-0.164"/>
									<path fill="none" stroke="#000000" stroke-width="0.6153" stroke-linecap="round" d="M81.567,92.699
										c0.563-0.116,1.074-0.443,1.658-0.469"/>
									<path fill="none" stroke="#000000" stroke-width="0.6996" stroke-linecap="round" d="M83.184,91.159
										c-12.398-2.563-25.824-2.646-38.229,0.026"/>
									<path fill="none" stroke="#000000" stroke-width="0.6146" stroke-linecap="round" d="M47.083,92.863
										c-0.771-0.195-1.493-0.564-2.284-0.705"/>
									<path fill="none" stroke="#000000" stroke-width="0.639" stroke-linecap="round" d="M46.089,93.744
										c-0.383,0.127-0.75,0.287-1.133,0.412"/>
									<path fill="none" stroke="#000000" stroke-width="0.5609" stroke-linecap="round" d="M45.426,95.229
										c0.456,0.119,0.861,0.365,1.326,0.44"/>
									<path fill="none" stroke="#000000" stroke-width="0.6374" stroke-linecap="round" d="M75.93,95.889
										c0.47,0.246,1.021,0.025,1.49,0.275"/>
									<path fill="none" stroke="#000000" stroke-width="0.6258" stroke-linecap="round" d="M81.401,93.579
										c0.595,0.188,1.195,0.332,1.787,0.541"/>
									<path fill="none" stroke="#000000" stroke-width="0.5613" stroke-linecap="round" d="M80.407,96.549
										c0.34,0.063,0.67,0.156,0.995,0.275"/>
									<path fill="none" stroke="#000000" stroke-width="0.6025" stroke-linecap="round" d="M83.188,95.128
										c-0.615,0.11-1.191,0.358-1.787,0.541"/>
									<path fill="none" stroke="#000000" stroke-width="0.6374" stroke-linecap="round" d="M76.759,100.674
										c0.472,0.246,1.022,0.025,1.492,0.273"/>
									<path fill="none" stroke="#000000" stroke-width="0.6374" stroke-linecap="round" d="M49.902,100.947
										c0.47-0.245,1.021-0.023,1.492-0.273"/>
									<path fill="none" stroke="#000000" stroke-width="0.5218" stroke-linecap="round" d="M47.581,96.549
										c-0.108,0.037-0.221,0.073-0.332,0.11"/>
									<path fill="none" stroke="#000000" stroke-width="0.5218" stroke-linecap="round" d="M80.241,101.169
										c0.11,0.036,0.221,0.073,0.332,0.108"/>
									<path fill="none" stroke="#000000" stroke-width="0.5218" stroke-linecap="round" d="M56.202,100.344
										c-0.11,0.037-0.221,0.073-0.332,0.11"/>
									<path fill="none" stroke="#000000" stroke-width="0.5218" stroke-linecap="round" d="M47.913,101.169
										c-0.108,0.036-0.221,0.073-0.332,0.108"/>
									<path fill="none" stroke="#000000" stroke-width="0.581" stroke-linecap="round" d="M46.089,101.664
										c-0.272,0.1-0.555,0.176-0.827,0.273"/>
									<path fill="none" stroke="#000000" stroke-width="0.5005" stroke-linecap="round" d="M52.5,101.885
										c0.121-0.238,0.349-0.423,0.554-0.551"/>
									<path fill="none" stroke="#000000" stroke-width="0.6266" stroke-linecap="round" d="M75.267,103.589
										c0.849-0.628,0.496-2.235-0.594-2.46"/>
									<path fill="none" stroke="#000000" stroke-width="0.6711" stroke-linecap="round" d="M69.879,125.049
										c0.042-0.016,0.092-0.035,0.14-0.056c0.97-0.216,2.354,0.212,2.807-1.021c0.17-6.422-0.146-12.897,0.159-19.293"/>
									<path fill="none" stroke="#000000" stroke-width="0.6902" stroke-linecap="round" d="M72.983,104.68
										c-0.104-0.271-0.143-0.582-0.193-0.779"/>
									<path fill="none" stroke="#000000" stroke-width="0.6647" stroke-linecap="round" d="M72.983,104.68
										c0.556-0.113,1.209,0.016,1.621-0.486"/>
									<path fill="none" stroke="#000000" stroke-width="0.6104" stroke-linecap="round" d="M85.798,153.247
										c0.827-0.869,0.475-2.923,0.319-3.774c-0.735-4.078-2.583-9.972-7.223-12.824c-0.587-0.358-1.128-0.604-1.796-0.938
										c-2.515-1.256-6.764-2.128-7.386-4.813c-0.414-1.791,0.476-4.06,0.165-5.847"/>
									<path fill="none" stroke="#000000" stroke-width="0.6772" stroke-linecap="round" d="M69.879,125.049
										c-4.124-0.266-8.393-0.208-12.524-0.029"/>
									<path fill="none" stroke="#000000" stroke-width="0.6246" stroke-linecap="round" d="M57.353,125.02
										c-0.28,2.215,0.211,4.535-0.274,6.701c-0.655,0.805-2.756,0.324-3.849,0.44c-0.933,0.099-2.158,0.442-3.094,0.668
										c-7.069,1.69-8.326,5.926-11.065,12.942"/>
									<path fill="none" stroke="#000000" stroke-width="0.6395" stroke-linecap="round" d="M85.798,153.247
										c-0.056-0.003-0.109-0.007-0.167-0.009c-8.668,4.146-21.187,5.363-32.768,3.712c-6.124-0.873-11.882-3.041-13.958-8.703"/>
								</g>
							</g>
						</g>
					</g>
				</g>
			</g>
		</g>
	</g>
</g>
<line fill="none" stroke="#231F20" stroke-width="0.5" x1="47.716" y1="62.565" x2="65.196" y2="62.565"/>
<text transform="matrix(1 0 0 1 27.0369 61.9375)" fill="#231F20" font-family="'MyriadPro-Regular'" font-size="8">V</text>
<text transform="matrix(1 0 0 1 31.2449 61.9375)" fill="#231F20" font-family="'MyriadPro-Regular'" font-size="8">al</text>
<text transform="matrix(1 0 0 1 36.9885 61.9375)" fill="#231F20" font-family="'MyriadPro-Regular'" font-size="8">v</text>
<text transform="matrix(1 0 0 1 40.7644 61.9375)" fill="#231F20" font-family="'MyriadPro-Regular'" font-size="8">e</text>
<line fill="none" stroke="#231F20" stroke-width="0.5" x1="283.158" y1="139.337" x2="300.638" y2="139.337"/>
<text transform="matrix(1 0 0 1 249.2146 141.3066)" fill="#231F20" font-family="'MyriadPro-Regular'" font-size="8">R</text>
<text transform="matrix(1 0 0 1 253.5427 141.3066)" fill="#231F20" font-family="'MyriadPro-Regular'" font-size="8">ese</text>
<text transform="matrix(1 0 0 1 264.7263 141.3066)" fill="#231F20" font-family="'MyriadPro-Regular'" font-size="8">r</text>
<text transform="matrix(1 0 0 1 267.533 141.3066)" fill="#231F20" font-family="'MyriadPro-Regular'" font-size="8">v</text>
<text transform="matrix(1 0 0 1 271.3103 141.3066)" fill="#231F20" font-family="'MyriadPro-Regular'" font-size="8">oir</text>
<line fill="none" stroke="#231F20" stroke-width="0.5" x1="81.307" y1="139.337" x2="98.787" y2="139.337"/>
<text transform="matrix(1 0 0 1 101.741 141.3066)" fill="#231F20" font-family="'MyriadPro-Regular'" font-size="8">M</text>
<text transform="matrix(1 0 0 1 108.2209 141.3066)" fill="#231F20" font-family="'MyriadPro-Regular'" font-size="8">ask</text>
<line fill="none" stroke="#231F20" stroke-width="0.5" x1="164.929" y1="39.179" x2="182.409" y2="39.179"/>
<text transform="matrix(1 0 0 1 185.3625 41.1504)" fill="#231F20" font-family="'MyriadPro-Regular'" font-size="8">Bag</text>
<line fill="none" stroke="#231F20" stroke-width="0.5" x1="165.047" y1="38.929" x2="165.047" y2="52.195"/>
</svg>
