<?xml version="1.0" encoding="utf-8"?>
<!-- Generator: Adobe Illustrator 15.0.2, SVG Export Plug-In . SVG Version: 6.00 Build 0)  -->
<!DOCTYPE svg PUBLIC "-//W3C//DTD SVG 1.1//EN" "http://www.w3.org/Graphics/SVG/1.1/DTD/svg11.dtd">
<svg version="1.1" id="Layer_1" xmlns="http://www.w3.org/2000/svg" xmlns:xlink="http://www.w3.org/1999/xlink" x="0px" y="0px"
	 width="388.346px" height="243.529px" viewBox="15.285 11.856 388.346 243.529"
	 enable-background="new 15.285 11.856 388.346 243.529" xml:space="preserve">
<metadata><?xpacket begin="﻿" id="W5M0MpCehiHzreSzNTczkc9d"?>
<x:xmpmeta xmlns:x="adobe:ns:meta/" x:xmptk="Adobe XMP Core 5.0-c060 61.134777, 2010/02/12-17:32:00        ">
   <rdf:RDF xmlns:rdf="http://www.w3.org/1999/02/22-rdf-syntax-ns#">
      <rdf:Description rdf:about=""
            xmlns:dc="http://purl.org/dc/elements/1.1/">
         <dc:format>image/svg+xml</dc:format>
         <dc:title>
            <rdf:Alt>
               <rdf:li xml:lang="x-default">Print</rdf:li>
            </rdf:Alt>
         </dc:title>
      </rdf:Description>
      <rdf:Description rdf:about=""
            xmlns:xmp="http://ns.adobe.com/xap/1.0/"
            xmlns:xmpGImg="http://ns.adobe.com/xap/1.0/g/img/">
         <xmp:MetadataDate>2014-07-09T21:36:21+02:00</xmp:MetadataDate>
         <xmp:ModifyDate>2014-07-09T21:36:21+02:00</xmp:ModifyDate>
         <xmp:CreateDate>2014-07-09T21:36:21+02:00</xmp:CreateDate>
         <xmp:CreatorTool>Adobe Illustrator CS5</xmp:CreatorTool>
         <xmp:Thumbnails>
            <rdf:Alt>
               <rdf:li rdf:parseType="Resource">
                  <xmpGImg:width>256</xmpGImg:width>
                  <xmpGImg:height>164</xmpGImg:height>
                  <xmpGImg:format>JPEG</xmpGImg:format>
                  <xmpGImg:image>/9j/4AAQSkZJRgABAgEAlgCWAAD/7QAsUGhvdG9zaG9wIDMuMAA4QklNA+0AAAAAABAAlgAAAAEA&#xA;AQCWAAAAAQAB/+4ADkFkb2JlAGTAAAAAAf/bAIQABgQEBAUEBgUFBgkGBQYJCwgGBggLDAoKCwoK&#xA;DBAMDAwMDAwQDA4PEA8ODBMTFBQTExwbGxscHx8fHx8fHx8fHwEHBwcNDA0YEBAYGhURFRofHx8f&#xA;Hx8fHx8fHx8fHx8fHx8fHx8fHx8fHx8fHx8fHx8fHx8fHx8fHx8fHx8fHx8f/8AAEQgApAEAAwER&#xA;AAIRAQMRAf/EAaIAAAAHAQEBAQEAAAAAAAAAAAQFAwIGAQAHCAkKCwEAAgIDAQEBAQEAAAAAAAAA&#xA;AQACAwQFBgcICQoLEAACAQMDAgQCBgcDBAIGAnMBAgMRBAAFIRIxQVEGE2EicYEUMpGhBxWxQiPB&#xA;UtHhMxZi8CRygvElQzRTkqKyY3PCNUQnk6OzNhdUZHTD0uIIJoMJChgZhJRFRqS0VtNVKBry4/PE&#xA;1OT0ZXWFlaW1xdXl9WZ2hpamtsbW5vY3R1dnd4eXp7fH1+f3OEhYaHiImKi4yNjo+Ck5SVlpeYmZ&#xA;qbnJ2en5KjpKWmp6ipqqusra6voRAAICAQIDBQUEBQYECAMDbQEAAhEDBCESMUEFURNhIgZxgZEy&#xA;obHwFMHR4SNCFVJicvEzJDRDghaSUyWiY7LCB3PSNeJEgxdUkwgJChgZJjZFGidkdFU38qOzwygp&#xA;0+PzhJSktMTU5PRldYWVpbXF1eX1RlZmdoaWprbG1ub2R1dnd4eXp7fH1+f3OEhYaHiImKi4yNjo&#xA;+DlJWWl5iZmpucnZ6fkqOkpaanqKmqq6ytrq+v/aAAwDAQACEQMRAD8A9U4q7FXYq7FXYq7FXYq7&#xA;FXYq7FXYq7FXYq7FXYq7FXYq7FXYq7FXYq7FXYq7FXYq7FUPe6lp1ige9uobVGrxaaRYwabmhYjF&#xA;Vtlqul34Y2N5BdhPtGCRJKV8eJPhiqKxV2KuxV2KuxV2KuxV2KuxV2KuxV2KuxV2KuxV2KuxV2Ku&#xA;xV2KuxV2KuxV2KuxV2KuxV2KuxVhPmzzTrc2tJ5V8rqv6WZBLeXr04W0ex6MGFaMpJIOxAAJPwqt&#xA;aZ+U3l6NmutZebWdTloZrq4kkUV78VVgaf67N7UxVvVfym8uTBZ9IabR9Si3guoJJGo21KqzVHT9&#xA;hlPviqp5O8zav+k5/K/mRQutWi84blSOFzF2Zfs1NN9huK1AIbFWZYq7FXYq7FXYq7FXYq7FXYq7&#xA;FXYq7FXYq7FXYq7FXYq7FXYq7FXYqxb8xfIkXnTRIdLkvZNP9G4W4E8S8mK+nJDJHTkm0kUzrWu1&#xA;cVSDy7+U+u6LcaO0fnG+e00yQSXFkqNHDdVluJZBInqsg9Q3I5Hj+z404qUFb/krr8EdokfnjUlN&#xA;tbC1LI9ytF9f1C0Ki64RH0VSGnErQVpXorarP+UfmuVGdfO11HfC0ltba84XTvB613DcN6ZkvWbj&#xA;wg9Pdi5B+KRgFUKpjp/5beZYPMmn6rdecb+5sbPkZ9KDXKR3L+o8ivKTcuK/GoKqoQhaBAppihns&#xA;glKERMqv2ZgWH3Ar+vFVD09S/wB/w/8AIl/+quKsL/LdGfX/ADdcznncnUHhZ6U+COWULQEkgU98&#xA;VZ7irsVYH5keKX80/K0Nr8N7DFcSXb0qPQeNxGD/AMBKPYsDirPMVdirsVdirsVdirsVdirsVdir&#xA;sVdirsVdirsVdirsVdirsVdirsVdirsVdirsVdirsVcSACSaAdTiryTSfO+l6B5m8y3MUVxqWjXV&#xA;xHK99ax1ihZubNyZiq0Z3Kg1FaVWtcKvQ9O84+VtRhEtpqlu4O5R5BHIP9aOTi6/SMCpb5j/ADH8&#xA;vaRCUt5l1LUn+G3srVhIxc7KHZOQQFtv5j2BxVT8j+WdRtri78xa63LXdU+3GD8MEJoREPf4VB3N&#xA;AoHiSqy7FXYq7FXYq7FXYq7FXYq7FXYq7FXYq7FXYq7FXYq7FXYq7FXYq7FXYq7FXYq7FXYqpXV1&#xA;bWltJc3Mqw28Kl5ZXNFVR3JOKvPZ7zWvzBuns9PL6f5Ribjc3pFJbrid1QHsfDt1ap+DCrOtJ0bT&#xA;dJ0+OwsIFhtox9kDdiRQs5/aZu5OBUnvfy28kXkpll0pEY9RA8tuv/AQvGv4Yqi9G8meV9Fl9fTt&#xA;PjhuAKLOxaWVRShCySl2Wveh3xVOsVdirsVdirsVdirsVdirsVdirsVdirsVdirsVdirsVdirsVd&#xA;irsVdirsVdirsVdiqnc3MFrby3Nw4ighUySyNsFVRUk4q86SHUPzE1P1pvUtfJ1nIfRj3R7t1NCT&#xA;vWle/wCz0HxVKlXottbW9rBHb20awwRKFjiQBVVR0AA6YFVMVU1uYGllhVwZIQplX+XkKj9WKqEj&#xA;pOheXazHY/7s+j+XwH7Xy6qqllHIkR5fCrNyiiO5jQgUUn57+3QbDFVfFXYq7FXYq7FXYq7FXYq7&#xA;FXYq7FXYq7FXYq7FXYq7FXYq7FXYq7FXYq7FXYq7FXnHn7VYdW8xW/lOW+TTdLiQXes3UsiwhkBB&#xA;WJWfiKjkp77kH9k4VRC/mVpMXDSfKOkXGsG2UIkcCNDAiigFWKu43P2mSnvgVQn8z/mjHMIZrPS7&#xA;Sdk9QWjx3d3PwrTmVsWuSFrtyYAVxVN/y+856h5h/SVtqEMMd5prosktsSYXEnMbAs9CDGa/F3HT&#xA;FU9gtUlL3rs3CYu0saiolRTSE0FTQIvQda4qqW1zb3U4LSL6wBeO0JpIiigLMh+Ll8Q7bV+9VHYq&#xA;7FXYq7FXYq7FXYq7FXYq7FXYq7FXYq7FXYq7FXYq7FXYq7FXYq7FXYq7FXYq1JJHHG0kjBI0BZ3Y&#xA;0AA3JJPQDFXncuo/l/5t1kXMdnb6jBBGzXuqi5EYigjDFZZEjavAsCq+rxJ3KgqCQqn2n6la3Ctp&#xA;Hla3WxjtqfWpZLdrdbYSVI420ixO8jgVUlePck/ZKqd6ZpVpp0TLCGeWU87m5lPOaZ6U5yP3NNh2&#xA;UbKAABiqC1rTJUdtY0xSmqQrWRIwP9LiQH9xINgzUJ9Jj9hv8ksrKomwtbeaxtpIrqa4tWiRrdg3&#xA;pgoVBU/uxGTUU+1iqLhtbaAkwxJGW+0VUAmnjTriqrirsVdirsVS3UL++F5Fp+nRo9zIhlnnmJ9O&#xA;CKvFWZFozs7VCrVa0b4hTdVYZ/MNo4a4ig1C26yPaq8Eyf6sLtMsg7n94p8FY7YqmUE8M8SzQuJI&#xA;nFVddwRiq/FXYq7FXYq7FXYq7FXYq7FXYq7FXYq7FXYq7FXYq7FXYqlXmvTrnUvLmoWNsA888RCR&#xA;MaLLTcxMT0WUDgT4HFXkA0u51C+a3FvK928sQMNmY4XW5teUskSzSMhHomFVeSORQzCg6VJVlOie&#xA;YZbu9is9Sn9HWYna20vWHj4SCUfE1nfRgIPjpt0D7U4vwZgrPtI1L69bsZI/QvLdzDe21eXpzKAS&#xA;AaCqsrBkagqpBoK0xVE3Nzb2sD3FzKkMEQ5SSyMFVQO5J2GKpd5YqNFiHB44hJOLaORGiYW4ncQD&#xA;gwVl/dcaAjpiqLuNV0y2u7ayubyCC8vOQtLaSRElm4CremjEM/Gu9BiqKxVaZYxIsZcCRwWVCRyI&#xA;WlSB7chXFV2KuxVK5+Vpr0Vy3+899CLWRz+zNEzPANugcSyCp7hR1OKppirE+Go6R5m1Wex53Wly&#xA;RQXt7pijk6STGWN5bVR3P1fk8f7ZJZfi2dVk9pd213bx3NtIJYJBVHXoe30EHYjtiqrirsVdirsV&#xA;dirsVdirsVdirsVdirsVdirsVdirsVdiqQ6t5vsbJ3it4nvpo39KUQ04LKekPL9qU/77jDP3IA3x&#xA;VDeWvLD2+q3mu3cf1ea8Z3tdOqr/AFZZyrS8nXZpJXXm1NlqVUkblVL/AMx9As5LZdVA4sXitr1R&#xA;8JljlcRxMCCCJIpGUqw3Ar340VQmkeaJ1gtr9yLnV45k0TUrcvHEbmRvitLhQT/lgvxHwhpNj6YG&#xA;KsmTy/c3VzFf6tdtJdxHlBbRBPqtu3jGsiMXcf78ffrxCA8cVTWO3mRwzXUsgHVGEVD/AMCin8cV&#xA;STzJ5IsdeuHnmvLm19e2+p3UUHoNHNErmRFkWeKaoRyTQUDV4uGXbFXmlx+VP5IevJpD+YPTv0t2&#xA;spSt1ZieORb1HEjt6VEuRLIsKcvi4fCB1xSmGm/k3+V2pKLfTNdkv3hgjVTHNp95KsK8IhVnglco&#xA;z2lKNVAQ6qAGdSq9I8s+W9O8uaQml6fzNuks0xeUhpGe4laZy7ALyPJ6VO9OuKE1xVTuLeG4geCZ&#xA;Q8UgKup7g/LFWKy/4k0S4NtNqyvpE5paaleW4me3ZqKkE0iSwbV/u5HDcj8Lnlx5qsRtZ/OHkPWJ&#xA;JfM19Pqukak4V9XiAkeMqx4VSRZCijmT6IJ6koWPIFVm66fMvHXPLt6bqO74T3FoDCILtDQmRGVA&#xA;FmK9H6N9liNmVVGXotPNHlnUrG1uDB9etp7KV2U+rbySxFCJIiVYOnMHiafxxV535d/IvXtDiFva&#xA;+c54rOe9ivdRt7S2exWQR8uUUItbmJbdZBIQ/FT9lKU47qbR5/KPzUuj2OnW/nvUbd7V72S5u09Y&#xA;y3JvEUKZGa5Yj0WDMvE99qNViqqQflLriwXf1nzbdT3066YkOolZvWT9GzNKS3K5dW9UOVoAq/tM&#xA;HapKqs35Xa+4si3m68SW3e3N3JF9YVriK3uLqb0Wdrl5SjLeCP8AeO9AgO/ZQg7P8ofNFrpkFivn&#xA;i/cR26QSs5vOLlJ+eyreqY0aHjEQjBtqhxVgylCxfk153h0i30uD8wbyCK0tRZ20kMVzG6IspkV/&#xA;hvQrSBG9KrKV4UooYBgq9F8saNd6PpCWN5qM2q3IkmlkvrgsZH9WVpFWjM/EIrBAAabbAdMUJrir&#xA;sVdirsVdirsVdiq2WWKGJ5pnWOKNS8kjkKqqoqWYnYADFUl9W916noNJZaIftTjlHcXQP++js0MR&#xA;/n+237PEUZlWCeVPN9qvmJIhbJe28UIS4ubWForfSlY8DHDRnRoTIvxSgLyA5VdRRVWYan5klvdQ&#xA;g0jRnFbiVorjUFoSix19b6uDUM0dCrSH4Eei/E1VCrFtY/LzUNMW4v7aabVHR4zaERxyXPxMfXku&#xA;3dXln4pQL6PFjWhH7WKoTyf5a8xf4lu7qzhudMsJDB6t5NBDAzhZ3nniHqp9aYN6nEGijf7RCKhV&#xA;et4q7FXYqwdPyd8lT3NzeavafpS8ubqe69WaScKizXjXiRLF6pjVUdt+IHLckfEcVTrQPInlXQL1&#xA;r7SrIw3j28dm1xJNNPJ9XiNY4uUzyHivQewA6AUVT7FXYq7FVskccsbRyKHjcFXRgCrKRQgg9QcV&#xA;Y9dWi6XbSWl7H9f8sSgrIso9V7UE1o9a87cfzfaj903RViMltrP5eXJ1DSueq+S7lvUmtQwZ7fnQ&#xA;l0c7e6t9luj0ajlVmFu9jrlvF5h8uXaC6dApk39OZV39C6j+0CpPWnND7FlZVMtL1eK9MkEkbWuo&#xA;W4H1qyk+2nLo6kbSRtT4XXY7jZgwCqPxV2KuxV2KuxV2KuxV2KuxV2KuxV2KoPUtWs9PWMTFnnnJ&#xA;W2tYhzmlYdRGg60r8R6KN2IG+KpReiNLc6x5qnjtrG3Ikh07lyhjYGqGUje4m5fZUDiGpxUsA5Ve&#xA;cee/N/nDzLoF/c6FbPY+VoKx3V/KD8aV4vJIq/GYUP8AeCOvFeRatCmKqHkzypeHWdQsdO02dLK7&#xA;tY4tWuru9uFSC8Wa49WNo4GiFyPTeNUWqho1VtvULYpew6PodjpUPC3UtKwVZbh6eo4QUUHiFVVU&#xA;fZRQFX9kDFCYYq7FXYq7FXYq7FXYq7FXYq7FXYq7FUilsbjRy8unwm50qQk3Wlru0dalpLYHsf2o&#xA;eh6rRqq6rD7vy7qGg3DeafIMi3OnzfHf6IKmORVqGEaj4gV7LTmh2FR+7xVkOj6/5b86aetzbTNa&#xA;alZDm1GVLq0ZurA7ho249d0elGGxAVQXkf8AM+w8wxXTSo6WVvePYWeulPTsr5koOURJb0+TGgDG&#xA;jH7LE1UKs5xV2KuxV2KuxV2KuxV2KuxVp3REZ3YKigszMaAAbkknFUm/TF5qdF0NFNsftatMCYKf&#xA;8UICrTnwYER9wxpxxVIdb82eXvKcrwRGTWvM84VGiBElw7HdFlZFpEpLVWNF71VMVeZ3s/mvzP5g&#xA;kk16WOzbT5SLa1uxwsvrNurzvYTLyDQevCiusp5coyfiNAmKXsVhPf61Y2y2UEmi6OYk5NRUuGXi&#xA;P3MCrVY0H2fV6kf3e3GTFCeWdna2VsltaxLDBGKJGooBU1J9ySak9ziqtirsVdirsVdirsVdirsV&#xA;dirsVdirsVdirsVSm90i4iun1HSHWG9ehubZ6i3uabfvAASklNhKor05BgAMVeRfmBpZ81+c7fy7&#xA;5d0mfTtantJ5/Ml5Kz2kUdvKDGF5xBxK8rbF46qw2blvwUso8nea9L0Gxt/JfmTTo9CNpCLeAMv+&#xA;hzREEfEzFwvPfkzMVY1+LkeOKGZLpuo6YAdHdZ7OtTpty7cVH/LvNR2Qf5DBl6BeAxVXsvMFhczr&#xA;ayh7G/atLG7AjlPHc+nuUlA7tEzL74qmWKuxV2KuxV2Kqdzc21rA9xcypBBGOUksjBEUeLM1AMVS&#xA;z9Oz3YA0eza7Rul5MTb2vzDsrSSVG4MaMp/mGKpXrtxoWlRJe+btSS5fdrexK8YSy0/ubNS7SsNj&#xA;ycvx6gqMVYN5u/MPz1qumpN5f0yfT9IvJVtLW9ZkSaaeZSIV9QtxiWST92Gj5fER8anbFVH8tq6J&#xA;5kl+rWlxqsWpW73FtL6MXqqrPGYuMlVMXItKlysrCkkY3+IAqXplv5YiudRbV9XihkvZBGPq0Sj0&#xA;V9Es0XqMQrXDxlzxZxRTuqqakqE+xV2KuxV2KuxV2KuxV2KuxV2KuxV2KuxV2KuxV2KuxVB6lpNp&#xA;qCxmXlHcQktbXcLcJomPUo48afEpqrdGBG2KsR89adql35cuNN1GCC5ZuK2mvcDS25MFeeWJA7Rv&#xA;HGWYMlY2I+P01NMVYR5C1TzmF1O58mpNfeWdNuRaR6bqTIJ2KKGkMSKVVFUHYxtQk/3ZNcVZnafm&#xA;b5S1RG0vzNZtpV0OP1iz1GPnAG+0CXZaKB1BlVMVZHaadE8CXGh6vKLZvijX1FvbZtqDeTnIF/yY&#xA;5FGKq4bzRFsUsb3/AIs5y2dP9hxu6/8ABYq39b8wj4Tp1uWP2WW6YoP9YmFWH0KcVd6/mYmn1KyQ&#xA;H9v61K9P9j9XSv8AwQxVTmtNaaMyXusJaQp8TNaQRxUHfm9y10Ke4C4qxbUfOv5aaPKJ/rH6Z1GI&#xA;gxPGzX0gbuI55WMMRqfsiRfliqUeZPOn5k3Oi3eqWelnQdFtV9Se6l4tdeiGAeQCUKFCoxc/uzsN&#xA;nxVLPy4Xybd2tzrHmWOa51+KZIZY7z17p5WaJZE9GBoxNMy8+DKyPwdTxPGjFV6FeTXevwNbXNrJ&#xA;p+kyULpPbNNdScWDKQhSSGIVUEFubeyNiqaabFpGmwtFZW0sQducr+hOzyOdi8jspd2NPtMScVR0&#xA;V5FK4RVkBPdopEH3soGKsK82+bvPGg69P9S0T9N6ItoksMdvBcrOJ2S4dlM8YuVehtVXiIQayrVt&#xA;viVSWf8AOPzZb28NxdeRby1jughgad7kcfWvEtIY5hHZyMszcmk9NA548ePLlspVj+bPnX151T8v&#xA;dSaGC9hs+XKVXdZeRaZFa2CMkfpkOwfjUrRiDyxVv/laXnyKw1C7n8hXjzWyWDW1hbtO7Sm8DPLS&#xA;V7aMH6uvFZFCVV6g7fFiqhdfmv8AmAk1sE8h3aJ+7e7Ui9l+CaJnXg8VmQPSJT1agsDVVRvtBVWn&#xA;/NbzvatMJ/IV/MEmaONYBcO5QmfgWC2zx7LDHzKyMPj2qRxxV0f5oefYUrdeR7q5WR5mhmtPrQVY&#xA;FNzw9SOa1SYN/oybcKsHDcVYiMqui/M7z2nl+21i48lXbyXEF1O2lxx3Iuo3ivoreGF19GQ1aCUy&#xA;1oOXEkKADiq/y9+Z3nu8tUXUPI15HeCxubmSRPXhha4t7eOWO3C3ECSK0sjtF+1Rh8JkFSFUCPzS&#xA;/NC6vI0tPIk9pBMkXp/XRc1En1pYZVkeKFlQFObKSKBQH+LkExV6hpV5LfaZZ3stvJZy3UEc0lpM&#xA;KSRNIgYxuDSjITQ++KEVirsVdirsVdirsVdirsVSmXy9BHI0+lTNpdw7GSQQBTBK7HkxlgYcGLN9&#xA;pl4uf5sVYF+Z/lrzXqtt9Yew/SL21u9tbtp5TnH6siPNcrDOysJSsSoiq7FVLkNypilbpP5deU3g&#xA;thZ6xcaP5haCMXMME7RS+txHMlJViuqcum64oY7r+v8Anfyv5lXy/b+Yru5aRohHM9usq8WMYkaS&#xA;SYXXBY/rEVWZgNzuP2lWa/4f/OT/AKma2/5FQ/8AZJirFbK4/NTWtdstIn1/0be5l1OKeaJVWSIa&#xA;XcG3dwsMVsWV2MRB9QU9T2OKsmuPyv8AK0Biu/NWt3N+ymga/uQkRPgrSFpV/wBjJiqVaXoF3pH5&#xA;lx6p5X0+a78vSWognChlRVKPUxy3LxI7eskRBXkSrP8AFsq4q9BuNP1zVIJLe/lgsrKZGjntbdRc&#xA;yOrChVpZ09PiwNGX0T/rYqraH5X8v6FG6aTYxWpkJaaVRWWQkliZJGq77nucVTTFXYq7FXYqo3dv&#xA;DPDxkhSfgyyxJIoYCWNg8bb9CrqCD2OKvMo9f/5yFSOD1vLelyu9vcSTmJ1X051VxbwhXvTy5OqM&#xA;zcqcWp1WpUoldf8AzzknSL/DdjAk9xbp9YaSORLe3aOty8qi8R5GWRgI+A+IK1QPhqqh7bXP+chm&#xA;0+W5uPL+kpeKknpaerVLuGjWP9/9c4gMJHY/D/uun7YIVRdrq354vqUpu9G0+KxTTWkgSIoxk1I2&#xA;iuIndrqqxi6DJyC9Kf64VU5dX/PqO9t7VdF0ue3mLLPqSUjWEC4Mat6D3jO/7hfVoG/aC7FDyVQ1&#xA;nqv5/wAcdq0+k2cnDT4hepILdpHvRdPE5i9O8gT/AHnZZjyYK3HiPSLfCqy7yLqvnPUrF7nzNp0e&#xA;ntJFaS2iIpjYmW1je4WSNpZnQx3DOlGoaDv1xQybFXYq7FXYq7FXYq7FXYq7FXYq7FXYqpXVpaXc&#xA;Jgu4Y7iFvtRSqHU/NWBGKpLqHkLyffmE3Glxf6PIJoBFyhCSAhgwERQVqoPzGKoz/Dun/wC/b3x/&#xA;3uvf+q2KqJ8n6A1yty8Mss6I8avLc3MlElKtIvxyMKOyKT4kA9hiqNs9F0eykMtnYW9tIerwxJGx&#xA;r7qBiqMxV2KuxV2KuxV2KuxV2KuxV2KuxV2KuxV2KuxV2KuxV2KuxV2KuxV2KuxV2KuxV2KuxV2K&#xA;uxV2KuxV2KuxV2KuxV2KuxV2KuxV2KuxV2KuxV2KuxV2KuxV2KuxV2KuxV2KuxV2KuxV2KuxV2Ku&#xA;xV2KuxV2KuxV2KuxV2KuxV2KuxV2KuxV2KuxV2KuxV2KuxV2KuxV2KuxV2KuxV2KuxV2KuxV2Kux&#xA;V2KuxV2KuxV2KuxV2KuxV2KuxV2KuxV2KuxV2KuxV2KuxV2KuxV2KuxV2KuxV2KuxV2KuxV2KuxV&#xA;2KuxV2KuxV2KuxV2KuxV2KuxV2KuxV2KuxV2KuxV2KuxV2KuxV2KuxV2KuxV2KuxV2Kv/9k=</xmpGImg:image>
               </rdf:li>
            </rdf:Alt>
         </xmp:Thumbnails>
      </rdf:Description>
      <rdf:Description rdf:about=""
            xmlns:xmpMM="http://ns.adobe.com/xap/1.0/mm/"
            xmlns:stRef="http://ns.adobe.com/xap/1.0/sType/ResourceRef#"
            xmlns:stEvt="http://ns.adobe.com/xap/1.0/sType/ResourceEvent#">
         <xmpMM:InstanceID>xmp.iid:F68B765B9D07E41183468BB91137401D</xmpMM:InstanceID>
         <xmpMM:DocumentID>xmp.did:F68B765B9D07E41183468BB91137401D</xmpMM:DocumentID>
         <xmpMM:OriginalDocumentID>uuid:5D20892493BFDB11914A8590D31508C8</xmpMM:OriginalDocumentID>
         <xmpMM:RenditionClass>proof:pdf</xmpMM:RenditionClass>
         <xmpMM:DerivedFrom rdf:parseType="Resource">
            <stRef:instanceID>uuid:29e17876-faee-8948-9286-1741a44a591b</stRef:instanceID>
            <stRef:documentID>xmp.did:F77F11740720681188C6A5613A2C864B</stRef:documentID>
            <stRef:originalDocumentID>uuid:5D20892493BFDB11914A8590D31508C8</stRef:originalDocumentID>
            <stRef:renditionClass>proof:pdf</stRef:renditionClass>
         </xmpMM:DerivedFrom>
         <xmpMM:History>
            <rdf:Seq>
               <rdf:li rdf:parseType="Resource">
                  <stEvt:action>saved</stEvt:action>
                  <stEvt:instanceID>xmp.iid:F68B765B9D07E41183468BB91137401D</stEvt:instanceID>
                  <stEvt:when>2014-07-09T21:36:21+02:00</stEvt:when>
                  <stEvt:softwareAgent>Adobe Illustrator CS5</stEvt:softwareAgent>
                  <stEvt:changed>/</stEvt:changed>
               </rdf:li>
            </rdf:Seq>
         </xmpMM:History>
      </rdf:Description>
      <rdf:Description rdf:about=""
            xmlns:illustrator="http://ns.adobe.com/illustrator/1.0/">
         <illustrator:StartupProfile>Print</illustrator:StartupProfile>
      </rdf:Description>
      <rdf:Description rdf:about=""
            xmlns:xmpTPg="http://ns.adobe.com/xap/1.0/t/pg/"
            xmlns:stDim="http://ns.adobe.com/xap/1.0/sType/Dimensions#"
            xmlns:stFnt="http://ns.adobe.com/xap/1.0/sType/Font#"
            xmlns:xmpG="http://ns.adobe.com/xap/1.0/g/">
         <xmpTPg:HasVisibleOverprint>False</xmpTPg:HasVisibleOverprint>
         <xmpTPg:HasVisibleTransparency>False</xmpTPg:HasVisibleTransparency>
         <xmpTPg:NPages>1</xmpTPg:NPages>
         <xmpTPg:MaxPageSize rdf:parseType="Resource">
            <stDim:w>136.999734</stDim:w>
            <stDim:h>85.911552</stDim:h>
            <stDim:unit>Millimeters</stDim:unit>
         </xmpTPg:MaxPageSize>
         <xmpTPg:Fonts>
            <rdf:Bag>
               <rdf:li rdf:parseType="Resource">
                  <stFnt:fontName>ArialMT</stFnt:fontName>
                  <stFnt:fontFamily>Arial</stFnt:fontFamily>
                  <stFnt:fontFace>Regular</stFnt:fontFace>
                  <stFnt:fontType>Open Type</stFnt:fontType>
                  <stFnt:versionString>Version 5.20</stFnt:versionString>
                  <stFnt:composite>False</stFnt:composite>
                  <stFnt:fontFileName>arial.ttf</stFnt:fontFileName>
               </rdf:li>
               <rdf:li rdf:parseType="Resource">
                  <stFnt:fontName>MyriadPro-Regular</stFnt:fontName>
                  <stFnt:fontFamily>Myriad Pro</stFnt:fontFamily>
                  <stFnt:fontFace>Regular</stFnt:fontFace>
                  <stFnt:fontType>Open Type</stFnt:fontType>
                  <stFnt:versionString>Version 2.062;PS 2.000;hotconv 1.0.57;makeotf.lib2.0.21895</stFnt:versionString>
                  <stFnt:composite>False</stFnt:composite>
                  <stFnt:fontFileName>MyriadPro-Regular.otf</stFnt:fontFileName>
               </rdf:li>
            </rdf:Bag>
         </xmpTPg:Fonts>
         <xmpTPg:PlateNames>
            <rdf:Seq>
               <rdf:li>Cyan</rdf:li>
               <rdf:li>Magenta</rdf:li>
               <rdf:li>Yellow</rdf:li>
               <rdf:li>Black</rdf:li>
            </rdf:Seq>
         </xmpTPg:PlateNames>
         <xmpTPg:SwatchGroups>
            <rdf:Seq>
               <rdf:li rdf:parseType="Resource">
                  <xmpG:groupName>Default Swatch Group</xmpG:groupName>
                  <xmpG:groupType>0</xmpG:groupType>
               </rdf:li>
            </rdf:Seq>
         </xmpTPg:SwatchGroups>
      </rdf:Description>
      <rdf:Description rdf:about=""
            xmlns:pdf="http://ns.adobe.com/pdf/1.3/">
         <pdf:Producer>Adobe PDF library 9.90</pdf:Producer>
      </rdf:Description>
   </rdf:RDF>
</x:xmpmeta>
                                                                                                    
                                                                                                    
                                                                                                    
                                                                                                    
                                                                                                    
                                                                                                    
                                                                                                    
                                                                                                    
                                                                                                    
                                                                                                    
                                                                                                    
                                                                                                    
                                                                                                    
                                                                                                    
                                                                                                    
                                                                                                    
                                                                                                    
                                                                                                    
                                                                                                    
                                                                                                    
                           
<?xpacket end="w"?>
	</metadata>
<g>
	<g>
		<g>
			<g>
				<defs>
					<rect id="SVGID_1_" x="15.285" y="11.856" width="388.346" height="243.529"/>
				</defs>
				<clipPath id="SVGID_2_">
					<use xlink:href="#SVGID_1_"  overflow="visible"/>
				</clipPath>
				<path clip-path="url(#SVGID_2_)" fill="#808184" d="M320.329,97.419l0.909-1.763l0.172-0.455l0.111-0.397l0.059-0.343
					l0.059-0.283v-0.229l-0.059-0.17l-0.059-0.171l-0.058-0.171l-0.111-0.17l-0.172-0.114l-0.229-0.171l-0.229-0.17l-0.396-0.171
					l-0.396-0.114l-0.515-0.17l-0.454-0.058l-0.512-0.113l-0.514-0.058l-0.514-0.057h-0.567l-0.513-0.057h-0.625l-0.568,0.057
					h-0.625l-0.625,0.057l-0.627,0.058l-0.685,0.113l-0.682,0.058l-0.685,0.113l-0.684,0.171l-0.74,0.113l-0.682,0.17l-0.739,0.229
					l-0.797,0.171l-0.74,0.227l-0.796,0.229l-0.796,0.227l-0.797,0.285l-0.854,0.284l-0.797,0.284l-0.854,0.342l-0.854,0.341
					l-0.854,0.341l-0.854,0.342l-0.909,0.398l-0.909,0.398l-0.909,0.397l-0.626,0.284l-0.684,0.285l-0.627,0.227l-0.625,0.229
					l-0.566,0.17l-0.625,0.171l-0.515,0.171l-0.567,0.058l-0.513,0.112l-0.515,0.058h-0.512h-0.455l-0.511-0.058l-0.399-0.112
					L288.47,98.9l-0.456-0.171l-0.396-0.228l-0.341-0.285l-0.343-0.341l-0.229-0.397l-0.229-0.455l-0.112-0.398l-0.113-0.512v-0.455
					l0.059-0.455l0.058-0.512l0.112-0.455l0.172-0.455l0.229-0.512l0.229-0.513l0.283-0.512l0.343-0.512l0.854-1.365l0.854-1.308
					l0.909-1.252l0.969-1.251l0.909-1.195l0.968-1.251l0.969-1.138l1.022-1.194l1.021-1.138l1.023-1.08l1.021-1.081l1.022-1.081
					l1.08-1.081l1.082-1.08l1.08-1.024l1.08-1.023l1.081-0.967l1.138-1.024l1.081-0.967l1.139-0.967l1.081-0.968l1.137-0.967
					l1.081-0.966l1.14-0.967l1.138-0.911l1.081-0.966l1.138-0.911l1.081-0.967l1.08-0.91l1.139-0.967l1.08-0.91l1.08-0.967
					l0.515-0.455l0.511-0.342l0.515-0.397l0.513-0.284l0.566-0.228l0.513-0.229l0.568-0.113l0.568-0.113h0.513h0.568l0.567,0.113
					l0.511,0.113l0.568,0.171l0.512,0.229l0.569,0.284l0.513,0.228l0.854,0.511l0.853,0.399l0.854,0.455l0.798,0.341l0.854,0.341
					l0.854,0.285l0.796,0.284l0.854,0.228l0.854,0.228l0.795,0.171l0.854,0.113l0.796,0.113l0.796,0.058h0.797h0.854l0.798-0.058
					l0.797-0.057l0.796-0.17l0.797-0.171l0.738-0.171l0.797-0.284l0.795-0.284l0.798-0.342l0.739-0.398l0.797-0.397l0.738-0.513
					l0.797-0.512l0.737-0.569l0.798-0.625l0.738-0.683l0.738-0.682l0.797-0.797l0.854-0.968l0.796-0.967l0.683-0.967l0.687-0.91
					l0.564-0.91l0.515-0.91l0.454-0.909l0.344-0.91l0.341-0.854l0.229-0.91l0.229-0.854l0.112-0.796l0.058-0.854l0.057-0.796
					l-0.057-0.797l-0.112-0.796l-0.112-0.739L361,38.092l-0.284-0.796l-0.282-0.739l-0.344-0.683l-0.396-0.739l-0.455-0.683
					l-0.513-0.74l-0.566-0.682l-0.569-0.626l-0.682-0.682l-0.685-0.626l-0.739-0.626l-0.797-0.625l-0.854-0.569l-0.91-0.569
					l-0.683-0.455l-0.739-0.341l-0.684-0.342l-0.739-0.341l-0.737-0.284l-0.739-0.229l-0.74-0.227l-0.795-0.171l-0.739-0.114
					l-0.737-0.114l-0.799-0.112h-0.738l-0.797-0.058l-0.797,0.058l-0.796,0.057l-0.738,0.056l-0.799,0.114l-0.795,0.171l-0.796,0.17
					l-0.798,0.229l-0.796,0.228l-0.797,0.284l-0.738,0.341l-0.797,0.343l-0.796,0.341l-0.798,0.397l-0.738,0.455l-0.797,0.455
					l-0.737,0.512l-0.798,0.569l-0.739,0.569l-0.737,0.567l-0.454,0.398l-0.456,0.398l-0.397,0.455l-0.342,0.398l-0.397,0.455
					l-0.341,0.455l-0.342,0.512l-0.284,0.455l-0.284,0.512l-0.282,0.569l-0.229,0.512l-0.229,0.568l-0.23,0.568l-0.172,0.627
					l-0.17,0.568l-0.113,0.625l-0.172,0.684l-0.113,0.626l-0.057,0.682l-0.058,0.74l-0.059,0.682v0.74l-0.057,0.739l0.057,0.738
					l0.059,0.797l0.058,0.797l0.057,0.796l0.113,0.854l0.114,0.854l0.171,0.853l0.17,0.854l0.455,2.274
					c0.342,1.593-2.391,2.276-2.729,0.684l-0.514-2.39l-0.172-0.91l-0.169-0.909l-0.114-0.91l-0.114-0.91l-0.057-0.854l-0.113-0.909
					v-0.854l-0.059-0.796v-0.854l0.059-0.797l0.06-0.796l0.057-0.796l0.113-0.797l0.112-0.739l0.113-0.739l0.171-0.739l0.229-0.683
					l0.227-0.739l0.229-0.683l0.282-0.626l0.285-0.683l0.283-0.625l0.397-0.626l0.342-0.569l0.396-0.568l0.397-0.569l0.455-0.568
					l0.454-0.512l0.513-0.512l0.513-0.455l0.514-0.455l0.854-0.684l0.797-0.625l0.854-0.568l0.854-0.569l0.854-0.512l0.854-0.512
					l0.854-0.455l0.854-0.398l0.911-0.397l0.854-0.343l0.908-0.341l0.854-0.227l0.911-0.285l0.909-0.17l0.908-0.171l0.854-0.171
					l0.911-0.058l0.91-0.056l0.907-0.058h0.854l0.91,0.058l0.91,0.113l0.853,0.113l0.91,0.171l0.854,0.228l0.854,0.228l0.854,0.284
					l0.854,0.285l0.854,0.398l0.798,0.397l0.854,0.398l0.796,0.512l0.967,0.626l0.97,0.625l0.854,0.683l0.854,0.739l0.798,0.74
					l0.796,0.739l0.683,0.739l0.625,0.854l0.626,0.796l0.514,0.853l0.514,0.854l0.396,0.91l0.396,0.91l0.285,0.909l0.227,0.91
					l0.172,0.967l0.112,0.968l0.06,1.023l-0.06,0.967l-0.056,1.023l-0.173,1.024l-0.229,1.023l-0.284,1.024l-0.396,1.023
					L362.6,48.27l-0.515,1.023l-0.566,1.08l-0.626,1.024l-0.739,1.024l-0.796,1.08l-0.854,1.023l-0.908,1.024l-0.854,0.854
					l-0.796,0.854l-0.854,0.738l-0.854,0.684l-0.854,0.625l-0.908,0.626l-0.854,0.512l-0.908,0.512l-0.907,0.455l-0.912,0.398
					l-0.909,0.341l-0.91,0.285l-0.91,0.227l-0.909,0.229l-0.969,0.113l-0.908,0.113l-0.909,0.058l-0.969,0.057l-0.909-0.057
					l-0.968-0.058l-0.909-0.113l-0.969-0.171l-0.907-0.171l-0.97-0.227l-0.909-0.285l-0.91-0.284l-0.967-0.341l-0.909-0.398
					l-0.908-0.398l-0.909-0.398l-0.912-0.512l-0.909-0.455l-0.455-0.284l-0.396-0.171l-0.343-0.17l-0.344-0.114l-0.341-0.057
					l-0.285-0.057h-0.282h-0.283l-0.229,0.057l-0.284,0.057l-0.282,0.114l-0.343,0.17l-0.342,0.171l-0.342,0.284l-0.398,0.285
					l-0.453,0.341l-1.08,0.967l-1.079,0.91l-1.143,0.967l-1.079,0.968l-1.08,0.909l-1.138,0.968l-1.139,0.909l-1.08,0.968
					l-1.139,0.909l-1.08,0.968l-1.141,0.967l-1.08,0.967l-1.079,0.967l-1.082,0.968l-1.078,0.967l-1.081,0.967l-1.081,1.024
					l-1.08,1.022l-1.024,1.024l-1.021,1.023l-1.024,1.081l-1.021,1.024l-1.023,1.137l-0.967,1.081l-0.967,1.138l-0.971,1.138
					l-0.906,1.138l-0.91,1.194l-0.911,1.194l-0.854,1.194l-0.853,1.252l-0.854,1.308l-0.228,0.398l-0.229,0.455l-0.173,0.341
					l-0.171,0.342l-0.109,0.284l-0.061,0.284l-0.057,0.228v0.171v0.17l0.057,0.058v0.114l0.061,0.057l0.057,0.057l0.056,0.057
					l0.114,0.057h0.171l0.229,0.057l0.228,0.058h0.284l0.342-0.058h0.34l0.398-0.057l0.396-0.113l0.455-0.057l0.516-0.171
					l0.511-0.171l0.513-0.17l0.569-0.229l0.567-0.227l0.625-0.285l0.909-0.398l0.909-0.397l0.911-0.398l0.91-0.397l0.91-0.343
					l0.853-0.341l0.909-0.341l0.854-0.285l0.854-0.284l0.853-0.283l0.799-0.285l0.854-0.228l0.796-0.228l0.797-0.228l0.796-0.228
					l0.799-0.17l0.737-0.171l0.796-0.114l0.74-0.114l0.739-0.112l0.682-0.114l0.74-0.058l0.683-0.057l0.686-0.057h0.683h0.625h0.687
					l0.626,0.057l0.625,0.057l0.626,0.114l0.565,0.058l0.568,0.112l0.683,0.229l0.687,0.171l0.565,0.284l0.568,0.341l0.456,0.342
					l0.454,0.455l0.396,0.511l0.284,0.513l0.171,0.626l0.113,0.626v0.568l-0.057,0.625l-0.112,0.626l-0.229,0.626l-0.28,0.625
					l-0.91,1.877L320.329,97.419z"/>
			</g>
		</g>
	</g>
	<g>
		<g>
			<g>
				<defs>
					<rect id="SVGID_3_" x="15.285" y="11.856" width="388.346" height="243.529"/>
				</defs>
				<clipPath id="SVGID_4_">
					<use xlink:href="#SVGID_3_"  overflow="visible"/>
				</clipPath>
				<path clip-path="url(#SVGID_4_)" fill="none" stroke="#231F20" stroke-width="0.395" d="M320.329,97.419l0.909-1.763
					l0.172-0.455l0.111-0.397l0.059-0.343l0.059-0.283v-0.229l-0.059-0.17l-0.059-0.171l-0.058-0.171l-0.111-0.17l-0.172-0.114
					l-0.229-0.171l-0.229-0.17l-0.396-0.171l-0.396-0.114l-0.515-0.17l-0.454-0.058l-0.512-0.113l-0.514-0.058l-0.514-0.057h-0.567
					l-0.513-0.057h-0.625l-0.568,0.057h-0.625l-0.625,0.057l-0.627,0.058l-0.685,0.113l-0.682,0.058l-0.685,0.113l-0.684,0.171
					l-0.74,0.113l-0.682,0.17l-0.739,0.229l-0.797,0.171l-0.74,0.227l-0.796,0.229l-0.796,0.227l-0.797,0.285l-0.854,0.284
					l-0.797,0.284l-0.854,0.342l-0.854,0.341l-0.854,0.341l-0.854,0.342l-0.909,0.398l-0.909,0.398l-0.909,0.397l-0.626,0.284
					l-0.684,0.285l-0.627,0.227l-0.625,0.229l-0.566,0.17l-0.625,0.171l-0.515,0.171l-0.567,0.058l-0.513,0.112l-0.515,0.058h-0.512
					h-0.455l-0.511-0.058l-0.399-0.112L288.47,98.9l-0.456-0.171l-0.396-0.228l-0.341-0.285l-0.343-0.341l-0.229-0.397l-0.229-0.455
					l-0.112-0.398l-0.113-0.512v-0.455l0.059-0.455l0.058-0.512l0.112-0.455l0.172-0.455l0.229-0.512l0.229-0.513l0.283-0.512
					l0.343-0.512l0.854-1.365l0.854-1.308l0.909-1.252l0.969-1.251l0.909-1.195l0.968-1.251l0.969-1.138l1.022-1.194l1.021-1.138
					l1.023-1.08l1.021-1.081l1.022-1.081l1.08-1.081l1.082-1.08l1.08-1.024l1.08-1.023l1.081-0.967l1.138-1.024l1.081-0.967
					l1.139-0.967l1.081-0.968l1.137-0.967l1.081-0.966l1.14-0.967l1.138-0.911l1.081-0.966l1.138-0.911l1.081-0.967l1.08-0.91
					l1.139-0.967l1.08-0.91l1.08-0.967l0.515-0.455l0.511-0.342l0.515-0.397l0.513-0.284l0.566-0.228l0.513-0.229l0.568-0.113
					l0.568-0.113h0.513h0.568l0.567,0.113l0.511,0.113l0.568,0.171l0.512,0.229l0.569,0.284l0.513,0.228l0.854,0.511l0.853,0.399
					l0.854,0.455l0.798,0.341l0.854,0.341l0.854,0.285l0.796,0.284l0.854,0.228l0.854,0.228l0.795,0.171l0.854,0.113l0.796,0.113
					l0.796,0.058h0.797h0.854l0.798-0.058l0.797-0.057l0.796-0.17l0.797-0.171l0.738-0.171l0.797-0.284l0.795-0.284l0.798-0.342
					l0.739-0.398l0.797-0.397l0.738-0.513l0.797-0.512l0.737-0.569l0.798-0.625l0.738-0.683l0.738-0.682l0.797-0.797l0.854-0.968
					l0.796-0.967l0.683-0.967l0.687-0.91l0.564-0.91l0.515-0.91l0.454-0.909l0.344-0.91l0.341-0.854l0.229-0.91l0.229-0.854
					l0.112-0.796l0.058-0.854l0.057-0.796l-0.057-0.797l-0.112-0.796l-0.112-0.739L361,38.092l-0.284-0.796l-0.282-0.739
					l-0.344-0.683l-0.396-0.739l-0.455-0.683l-0.513-0.74l-0.566-0.682l-0.569-0.626l-0.682-0.682l-0.685-0.626l-0.739-0.626
					l-0.797-0.625l-0.854-0.569l-0.91-0.569l-0.683-0.455l-0.739-0.341l-0.684-0.342l-0.739-0.341l-0.737-0.284l-0.739-0.229
					l-0.74-0.227l-0.795-0.171l-0.739-0.114l-0.737-0.114l-0.799-0.112h-0.738l-0.797-0.058l-0.797,0.058l-0.796,0.057l-0.738,0.056
					l-0.799,0.114l-0.795,0.171l-0.796,0.17l-0.798,0.229l-0.796,0.228l-0.797,0.284l-0.738,0.341l-0.797,0.343l-0.796,0.341
					l-0.798,0.397l-0.738,0.455l-0.797,0.455l-0.737,0.512l-0.798,0.569l-0.739,0.569l-0.737,0.567l-0.454,0.398l-0.456,0.398
					l-0.397,0.455l-0.342,0.398l-0.397,0.455l-0.341,0.455l-0.342,0.512l-0.284,0.455l-0.284,0.512l-0.282,0.569l-0.229,0.512
					l-0.229,0.568l-0.23,0.568l-0.172,0.627l-0.17,0.568l-0.113,0.625l-0.172,0.684l-0.113,0.626l-0.057,0.682l-0.058,0.74
					l-0.059,0.682v0.74l-0.057,0.739l0.057,0.738l0.059,0.797l0.058,0.797l0.057,0.796l0.113,0.854l0.114,0.854l0.171,0.853
					l0.17,0.854l0.455,2.274c0.342,1.593-2.391,2.276-2.729,0.684l-0.514-2.39l-0.172-0.91l-0.169-0.909l-0.114-0.91l-0.114-0.91
					l-0.057-0.854l-0.113-0.909v-0.854l-0.059-0.796v-0.854l0.059-0.797l0.06-0.796l0.057-0.796l0.113-0.797l0.112-0.739
					l0.113-0.739l0.171-0.739l0.229-0.683l0.227-0.739l0.229-0.683l0.282-0.626l0.285-0.683l0.283-0.625l0.397-0.626l0.342-0.569
					l0.396-0.568l0.397-0.569l0.455-0.568l0.454-0.512l0.513-0.512l0.513-0.455l0.514-0.455l0.854-0.684l0.797-0.625l0.854-0.568
					l0.854-0.569l0.854-0.512l0.854-0.512l0.854-0.455l0.854-0.398l0.911-0.397l0.854-0.343l0.908-0.341l0.854-0.227l0.911-0.285
					l0.909-0.17l0.908-0.171l0.854-0.171l0.911-0.058l0.91-0.056l0.907-0.058h0.854l0.91,0.058l0.91,0.113l0.853,0.113l0.91,0.171
					l0.854,0.228l0.854,0.228l0.854,0.284l0.854,0.285l0.854,0.398l0.798,0.397l0.854,0.398l0.796,0.512l0.967,0.626l0.97,0.625
					l0.854,0.683l0.854,0.739l0.798,0.74l0.796,0.739l0.683,0.739l0.625,0.854l0.626,0.796l0.514,0.853l0.514,0.854l0.396,0.91
					l0.396,0.91l0.285,0.909l0.227,0.91l0.172,0.967l0.112,0.968l0.06,1.023l-0.06,0.967l-0.056,1.023l-0.173,1.024l-0.229,1.023
					l-0.284,1.024l-0.396,1.023L362.6,48.27l-0.515,1.023l-0.566,1.08l-0.626,1.024l-0.739,1.024l-0.796,1.08l-0.854,1.023
					l-0.908,1.024l-0.854,0.854l-0.796,0.854l-0.854,0.738l-0.854,0.684l-0.854,0.625l-0.908,0.626l-0.854,0.512l-0.908,0.512
					l-0.907,0.455l-0.912,0.398l-0.909,0.341l-0.91,0.285l-0.91,0.227l-0.909,0.229l-0.969,0.113l-0.908,0.113l-0.909,0.058
					l-0.969,0.057l-0.909-0.057l-0.968-0.058l-0.909-0.113l-0.969-0.171l-0.907-0.171l-0.97-0.227l-0.909-0.285l-0.91-0.284
					l-0.967-0.341l-0.909-0.398l-0.908-0.398l-0.909-0.398l-0.912-0.512l-0.909-0.455l-0.455-0.284l-0.396-0.171l-0.343-0.17
					l-0.344-0.114l-0.341-0.057l-0.285-0.057h-0.282h-0.283l-0.229,0.057l-0.284,0.057l-0.282,0.114l-0.343,0.17l-0.342,0.171
					l-0.342,0.284l-0.398,0.285l-0.453,0.341l-1.08,0.967l-1.079,0.91l-1.143,0.967l-1.079,0.968l-1.08,0.909l-1.138,0.968
					l-1.139,0.909l-1.08,0.968l-1.139,0.909l-1.08,0.968l-1.141,0.967l-1.08,0.967l-1.079,0.967l-1.082,0.968l-1.078,0.967
					l-1.081,0.967l-1.081,1.024l-1.08,1.022l-1.024,1.024l-1.021,1.023l-1.024,1.081l-1.021,1.024l-1.023,1.137l-0.967,1.081
					l-0.967,1.138l-0.971,1.138l-0.906,1.138l-0.91,1.194l-0.911,1.194l-0.854,1.194l-0.853,1.252l-0.854,1.308l-0.228,0.398
					l-0.229,0.455l-0.173,0.341l-0.171,0.342l-0.109,0.284l-0.061,0.284l-0.057,0.228v0.171v0.17l0.057,0.058v0.114l0.061,0.057
					l0.057,0.057l0.056,0.057l0.114,0.057h0.171l0.229,0.057l0.228,0.058h0.284l0.342-0.058h0.34l0.398-0.057l0.396-0.113
					l0.455-0.057l0.516-0.171l0.511-0.171l0.513-0.17l0.569-0.229l0.567-0.227l0.625-0.285l0.909-0.398l0.909-0.397l0.911-0.398
					l0.91-0.397l0.91-0.343l0.853-0.341l0.909-0.341l0.854-0.285l0.854-0.284l0.853-0.283l0.799-0.285l0.854-0.228l0.796-0.228
					l0.797-0.228l0.796-0.228l0.799-0.17l0.737-0.171l0.796-0.114l0.74-0.114l0.739-0.112l0.682-0.114l0.74-0.058l0.683-0.057
					l0.686-0.057h0.683h0.625h0.687l0.626,0.057l0.625,0.057l0.626,0.114l0.565,0.058l0.568,0.112l0.683,0.229l0.687,0.171
					l0.565,0.284l0.568,0.341l0.456,0.342l0.454,0.455l0.396,0.511l0.284,0.513l0.171,0.626l0.113,0.626v0.568l-0.057,0.625
					l-0.112,0.626l-0.229,0.626l-0.28,0.625l-0.91,1.877L320.329,97.419z"/>
			</g>
		</g>
	</g>
	<g>
		<g>
			<g>
				<defs>
					<rect id="SVGID_5_" x="15.285" y="11.856" width="388.346" height="243.529"/>
				</defs>
				<clipPath id="SVGID_6_">
					<use xlink:href="#SVGID_5_"  overflow="visible"/>
				</clipPath>
				<path clip-path="url(#SVGID_6_)" fill="#FFFFFF" d="M315.607,130.068l-17.633-22.812l17.063-13.14
					c11.262,2.161,17.403,10.124,18.259,23.833L315.607,130.068z"/>
			</g>
		</g>
	</g>
	<g>
		<g>
			<g>
				<defs>
					<rect id="SVGID_7_" x="15.285" y="11.856" width="388.346" height="243.529"/>
				</defs>
				<clipPath id="SVGID_8_">
					<use xlink:href="#SVGID_7_"  overflow="visible"/>
				</clipPath>
				<path clip-path="url(#SVGID_8_)" fill="none" stroke="#231F20" stroke-width="0.79" d="M315.607,130.068l-17.633-22.812
					l17.063-13.14c11.262,2.161,17.403,10.124,18.259,23.833L315.607,130.068z"/>
			</g>
		</g>
	</g>
	<g>
		<g>
			<g>
				<defs>
					<rect id="SVGID_9_" x="15.285" y="11.856" width="388.346" height="243.529"/>
				</defs>
				<clipPath id="SVGID_10_">
					<use xlink:href="#SVGID_9_"  overflow="visible"/>
				</clipPath>
				<path clip-path="url(#SVGID_10_)" fill="#BBBDBF" d="M299.795,139.795c-8.133-5.29-13.766-11.773-15.756-19.965
					c2.674-1.706,4.322-3.813,2.787-4.835c-2.161-1.365-3.584,0.567-4.096,2.899c-2.391-2.615-2.729-5.459-1.937-7.226
					c0.968-1.99,3.413-3.64,7.109-2.787c-2.048,1.65-1.936,3.413,0.398,5.349c3.354,0.229,4.437-0.854,3.239-3.24
					c9.499,5.062,16.041,13.765,20.534,24.458c-2.616-1.878-3.979-1.593-2.958,1.194c0.797,1.988,2.445,2.614,3.813,2.272
					c-1.364,5.46-4.723,6.653-10.012,3.583c1.936-0.91,3.98-2.729,1.14-4.438C301.842,135.813,299.737,137.18,299.795,139.795"/>
			</g>
		</g>
	</g>
	<g>
		<g>
			<g>
				<defs>
					<rect id="SVGID_11_" x="15.285" y="11.856" width="388.346" height="243.529"/>
				</defs>
				<clipPath id="SVGID_12_">
					<use xlink:href="#SVGID_11_"  overflow="visible"/>
				</clipPath>
				<path clip-path="url(#SVGID_12_)" fill="none" stroke="#231F20" stroke-width="0.79" d="M299.795,139.795
					c-8.133-5.29-13.766-11.773-15.756-19.965c2.674-1.706,4.322-3.813,2.787-4.835c-2.161-1.365-3.584,0.567-4.096,2.899
					c-2.391-2.615-2.729-5.459-1.937-7.226c0.968-1.99,3.413-3.64,7.109-2.787c-2.048,1.65-1.936,3.413,0.398,5.349
					c3.354,0.229,4.437-0.854,3.239-3.24c9.499,5.062,16.041,13.765,20.534,24.458c-2.616-1.878-3.979-1.593-2.958,1.194
					c0.797,1.988,2.445,2.614,3.813,2.272c-1.364,5.46-4.723,6.653-10.012,3.583c1.936-0.91,3.98-2.729,1.14-4.438
					C301.842,135.813,299.737,137.18,299.795,139.795z"/>
			</g>
		</g>
	</g>
	<g>
		<g>
			<g>
				<defs>
					<rect id="SVGID_13_" x="15.285" y="11.856" width="388.346" height="243.529"/>
				</defs>
				<clipPath id="SVGID_14_">
					<use xlink:href="#SVGID_13_"  overflow="visible"/>
				</clipPath>
				<path clip-path="url(#SVGID_14_)" fill="#FFFFFF" d="M312.65,141.729v-2.957c0.113-0.281,0.171-0.566,0.283-0.854
					c-0.112,0-0.17,0-0.283,0.057v-0.512c0.113,0.057,0.229,0.171,0.343,0.227l4.037-1.646
					C317.2,138.6,315.209,140.535,312.65,141.729 M312.65,133.879v-10.01c1.479,2.559,2.786,5.176,3.926,7.904L312.65,133.879z
					 M291.832,110.786c0.229,0.626,0.229,1.138,0,1.536V110.786z M312.65,123.869c-4.268-7.452-9.896-13.822-17.008-17.576
					l-3.813,3.64v0.284c9.328,5.006,15.756,13.538,20.191,24.063v-0.059l0.626-0.342L312.65,123.869L312.65,123.869z
					 M312.65,137.463v0.512c-1.311,0.17-2.787-0.455-3.525-2.332c-1.023-2.729,0.285-3.068,2.846-1.308
					c-0.514,0.567-0.628,1.138-0.456,1.647C311.682,136.438,312.081,136.95,312.65,137.463 M312.65,138.771v2.957
					c-0.685,0.342-1.479,0.627-2.274,0.797c-0.172,0.058-0.285,0.115-0.455,0.115C311.171,142.014,312.081,140.705,312.65,138.771
					 M281.252,109.876c0.059-0.057,0.059-0.171,0.114-0.228c0.796-2.048,6.256-6.428,9.953-5.574
					c-1.023,0.854-3.471,2.844-3.301,3.867c0.343,2.561,2.675,3.186,3.584,2.275c0.114,0.171,0.172,0.399,0.229,0.569v1.536
					c-0.396,0.738-1.536,1.023-3.524,0.91c-2.333-1.935-2.445-3.694-0.397-5.348C284.722,107.146,282.447,108.283,281.252,109.876
					 M291.832,109.933l-0.114,0.114c0,0,0,0.057-0.056,0.057l0.17,0.113V109.933z"/>
			</g>
		</g>
	</g>
	<g>
		<g>
			<g>
				<defs>
					<rect id="SVGID_15_" x="15.285" y="11.856" width="388.346" height="243.529"/>
				</defs>
				<clipPath id="SVGID_16_">
					<use xlink:href="#SVGID_15_"  overflow="visible"/>
				</clipPath>
				<path clip-path="url(#SVGID_16_)" fill="none" stroke="#231F20" stroke-width="0.79" d="M281.252,109.876
					c0.06-0.057,0.06-0.171,0.114-0.228c0.795-2.048,6.256-6.427,9.953-5.574c-1.022,0.854-3.47,2.844-3.3,3.868
					c0.342,2.559,2.674,3.185,3.583,2.275c1.082,2.218,0,3.241-3.297,3.016c-2.333-1.935-2.447-3.696-0.398-5.348
					C284.722,107.146,282.446,108.283,281.252,109.876z M291.662,110.104c0.059,0,0.059-0.058,0.059-0.058l3.924-3.754
					c9.555,5.007,16.438,14.789,20.933,25.481l-4.551,2.447v0.057C307.531,123.697,301.047,115.109,291.662,110.104z
					 M311.968,134.334c-0.513,0.568-0.626,1.139-0.453,1.65c0.227,0.565,0.737,1.137,1.479,1.705l4.036-1.649
					c0.172,3.299-3.071,5.519-6.654,6.485c-0.171,0.057-0.283,0.113-0.454,0.113c1.422-0.74,2.39-2.332,3.016-4.725
					c-1.364,0.344-3.016-0.282-3.813-2.271C308.099,132.912,309.408,132.57,311.968,134.334z"/>
			</g>
		</g>
	</g>
	<g>
		<g>
			<g>
				<defs>
					<rect id="SVGID_17_" x="15.285" y="11.856" width="388.346" height="243.529"/>
				</defs>
				<clipPath id="SVGID_18_">
					<use xlink:href="#SVGID_17_"  overflow="visible"/>
				</clipPath>
				<path clip-path="url(#SVGID_18_)" fill="none" stroke="#231F20" stroke-width="0.79" d="M40.82,120.74l6.938,6.769l3.643,3.3
					l3.641,3.241l3.583,3.128l3.526,3.188l3.583,3.129l3.525,3.014l3.472,3.017l3.524,2.897l3.472,2.902l3.47,2.729l3.47,2.676
					l3.413,2.612l3.47,2.505l3.413,2.391l3.471,2.271l3.47,2.221l3.413,2.049l3.47,1.935l3.47,1.819l3.526,1.705l3.47,1.537
					l3.526,1.422l3.526,1.252l3.584,1.137l3.64,0.969l3.642,0.854l3.642,0.682l3.754,0.513l3.754,0.342l3.868,0.229h3.925
					l3.754-0.171l3.755-0.284l3.754-0.453l3.813-0.568l3.754-0.739l3.754-0.854l3.812-0.965l3.754-1.082l3.756-1.25l3.754-1.309
					l3.695-1.48l3.755-1.592l3.755-1.648l3.696-1.764l3.696-1.877l3.697-1.99l3.696-1.989l3.696-2.161l3.643-2.223l3.583-2.271
					l3.641-2.333l3.583-2.391l3.527-2.504l3.523-2.502l3.526-2.561l3.469-2.615l3.414-2.617l3.412-2.672l3.354-2.676l3.354-2.729
					l3.3-2.674l7.792-5.23c5.232-3.473,16.779,10.921,11.773,14.675l-7.166,5.347l-3.413,2.847l-3.471,2.844l-3.471,2.787
					l-3.584,2.787l-3.583,2.787l-3.642,2.729l-3.697,2.675l-3.754,2.674l-3.755,2.615l-3.812,2.563l-3.865,2.502l-3.928,2.443
					l-3.925,2.391l-3.979,2.332l-3.98,2.22l-4.039,2.161l-4.096,2.049l-4.152,1.936l-4.149,1.877l-4.151,1.764l-4.267,1.648
					l-4.268,1.479l-4.209,1.422l-4.381,1.252l-4.322,1.137l-4.437,1.024l-4.438,0.854l-4.438,0.684l-4.493,0.512l-4.493,0.342
					l-4.551,0.17h-4.777l-4.722-0.228l-4.664-0.456l-4.551-0.625l-4.493-0.796l-4.438-1.024l-4.38-1.191l-4.32-1.364l-4.21-1.536
					l-4.152-1.646l-4.095-1.82l-4.098-1.99l-3.979-2.048l-3.925-2.22l-3.868-2.332l-3.868-2.443l-3.813-2.504l-3.754-2.617
					l-3.754-2.729l-3.695-2.787l-3.697-2.846l-3.642-2.956l-3.696-2.957l-3.642-3.071l-3.583-3.129l-3.642-3.129l-3.64-3.186
					l-3.642-3.188l-3.584-3.24l-3.641-3.301l-3.696-3.241l-8.021-7.45C21.994,129.955,36.156,116.133,40.82,120.74z"/>
			</g>
		</g>
	</g>
	<g>
		<g>
			<g>
				<defs>
					<rect id="SVGID_19_" x="15.285" y="11.856" width="388.346" height="243.529"/>
				</defs>
				<clipPath id="SVGID_20_">
					<use xlink:href="#SVGID_19_"  overflow="visible"/>
				</clipPath>
				
					<line clip-path="url(#SVGID_20_)" fill="none" stroke="#231F20" stroke-width="1.58" x1="101.227" y1="182.568" x2="97.757" y2="189.281"/>
			</g>
		</g>
	</g>
	<g>
		<g>
			<g>
				<defs>
					<rect id="SVGID_21_" x="15.285" y="11.856" width="388.346" height="243.529"/>
				</defs>
				<clipPath id="SVGID_22_">
					<use xlink:href="#SVGID_21_"  overflow="visible"/>
				</clipPath>
				
					<line clip-path="url(#SVGID_22_)" fill="none" stroke="#231F20" stroke-width="1.58" x1="121.021" y1="192.409" x2="118.006" y2="199.35"/>
			</g>
		</g>
	</g>
	<g>
		<g>
			<g>
				<defs>
					<rect id="SVGID_23_" x="15.285" y="11.856" width="388.346" height="243.529"/>
				</defs>
				<clipPath id="SVGID_24_">
					<use xlink:href="#SVGID_23_"  overflow="visible"/>
				</clipPath>
				
					<line clip-path="url(#SVGID_24_)" fill="none" stroke="#231F20" stroke-width="1.58" x1="141.782" y1="197.813" x2="140.986" y2="205.378"/>
			</g>
		</g>
	</g>
	<g>
		<g>
			<g>
				<defs>
					<rect id="SVGID_25_" x="15.285" y="11.856" width="388.346" height="243.529"/>
				</defs>
				<clipPath id="SVGID_26_">
					<use xlink:href="#SVGID_25_"  overflow="visible"/>
				</clipPath>
				
					<line clip-path="url(#SVGID_26_)" fill="none" stroke="#231F20" stroke-width="1.58" x1="163.169" y1="198.723" x2="163.51" y2="206.287"/>
			</g>
		</g>
	</g>
	<g>
		<g>
			<g>
				<defs>
					<rect id="SVGID_27_" x="15.285" y="11.856" width="388.346" height="243.529"/>
				</defs>
				<clipPath id="SVGID_28_">
					<use xlink:href="#SVGID_27_"  overflow="visible"/>
				</clipPath>
				
					<line clip-path="url(#SVGID_28_)" fill="none" stroke="#231F20" stroke-width="1.58" x1="206.796" y1="188.029" x2="209.356" y2="195.141"/>
			</g>
		</g>
	</g>
	<g>
		<g>
			<g>
				<defs>
					<rect id="SVGID_29_" x="15.285" y="11.856" width="388.346" height="243.529"/>
				</defs>
				<clipPath id="SVGID_30_">
					<use xlink:href="#SVGID_29_"  overflow="visible"/>
				</clipPath>
				
					<line clip-path="url(#SVGID_30_)" fill="none" stroke="#231F20" stroke-width="1.58" x1="228.924" y1="176.596" x2="232.507" y2="183.251"/>
			</g>
		</g>
	</g>
	<g>
		<g>
			<g>
				<defs>
					<rect id="SVGID_31_" x="15.285" y="11.856" width="388.346" height="243.529"/>
				</defs>
				<clipPath id="SVGID_32_">
					<use xlink:href="#SVGID_31_"  overflow="visible"/>
				</clipPath>
				
					<line clip-path="url(#SVGID_32_)" fill="none" stroke="#231F20" stroke-width="1.58" x1="246.954" y1="165.05" x2="251.505" y2="171.079"/>
			</g>
		</g>
	</g>
	<g>
		<g>
			<g>
				<defs>
					<rect id="SVGID_33_" x="15.285" y="11.856" width="388.346" height="243.529"/>
				</defs>
				<clipPath id="SVGID_34_">
					<use xlink:href="#SVGID_33_"  overflow="visible"/>
				</clipPath>
				
					<line clip-path="url(#SVGID_34_)" fill="none" stroke="#231F20" stroke-width="1.58" x1="265.326" y1="151.114" x2="269.933" y2="157.086"/>
			</g>
		</g>
	</g>
</g>
<text transform="matrix(0.8773 0.4799 -0.4799 0.8773 99.6326 191.6699)" fill="#231F20" font-family="'ArialMT'" font-size="9.4419">4</text>
<text transform="matrix(0.9414 0.3373 -0.3373 0.9414 120.0554 201.5098)" fill="#231F20" font-family="'ArialMT'" font-size="9.4421">5</text>
<text transform="matrix(0.9997 0.0228 -0.0228 0.9997 142.8049 206.9141)" fill="#231F20" font-family="'ArialMT'" font-size="9.4405">6</text>
<text transform="matrix(0.991 -0.134 0.134 0.991 165.7859 207.2539)" fill="#231F20" font-family="'ArialMT'" font-size="9.4423">7</text>
<text transform="matrix(0.9425 -0.3341 0.3341 0.9425 190.301 202.9873)" fill="#231F20" font-family="'ArialMT'" font-size="9.4409">8</text>
<text transform="matrix(0.9425 -0.3341 0.3341 0.9425 210.7175 194.7393)" fill="#231F20" font-family="'ArialMT'" font-size="9.4409">9</text>
<text transform="matrix(0.8907 -0.4545 0.4545 0.8907 233.1296 183.3652)" fill="#231F20" font-family="'ArialMT'" font-size="9.4404">1</text>
<text transform="matrix(0.8907 -0.4545 0.4545 0.8907 237.8533 180.9229)" fill="#231F20" font-family="'ArialMT'" font-size="9.4404">0</text>
<text transform="matrix(0.8237 -0.5671 0.5671 0.8237 252.4714 170.8506)" fill="#231F20" font-family="'ArialMT'" font-size="9.4437">1</text>
<text transform="matrix(0.8237 -0.5671 0.5671 0.8237 256.2224 168.291)" fill="#231F20" font-family="'ArialMT'" font-size="9.4437">1</text>
<text transform="matrix(0.8024 -0.5968 0.5968 0.8024 270.3298 157.5967)" fill="#231F20" font-family="'ArialMT'" font-size="9.4421">12</text>
<g>
	<g>
		<g>
			<g>
				<defs>
					<rect id="SVGID_35_" x="15.285" y="11.856" width="388.346" height="243.529"/>
				</defs>
				<clipPath id="SVGID_36_">
					<use xlink:href="#SVGID_35_"  overflow="visible"/>
				</clipPath>
				<path clip-path="url(#SVGID_36_)" fill="#FFFFFF" d="M280.684,147.701l-9.441-8.816L286.43,126.6
					c1.989-1.647,3.523-3.697,3.694-6.826c0.284-4.604,4.323-3.924,10.693,4.151c4.664,5.804,4.152,10.239,0.854,10.068
					c-2.563-0.114-4.948,0.114-7.396,2.218L280.684,147.701z"/>
			</g>
		</g>
	</g>
	<g>
		<g>
			<g>
				<defs>
					<rect id="SVGID_37_" x="15.285" y="11.856" width="388.346" height="243.529"/>
				</defs>
				<clipPath id="SVGID_38_">
					<use xlink:href="#SVGID_37_"  overflow="visible"/>
				</clipPath>
				<path clip-path="url(#SVGID_38_)" fill="none" stroke="#231F20" stroke-width="0.79" d="M280.684,147.701l-9.441-8.816
					L286.43,126.6c1.989-1.647,3.523-3.697,3.694-6.826c0.284-4.604,4.323-3.924,10.693,4.151
					c4.664,5.804,4.152,10.239,0.854,10.068c-2.563-0.114-4.948,0.114-7.396,2.218L280.684,147.701z"/>
			</g>
		</g>
	</g>
	<g>
		<g>
			<g>
				<defs>
					<rect id="SVGID_39_" x="15.285" y="11.856" width="388.346" height="243.529"/>
				</defs>
				<clipPath id="SVGID_40_">
					<use xlink:href="#SVGID_39_"  overflow="visible"/>
				</clipPath>
				<polygon clip-path="url(#SVGID_40_)" fill="#FFFFFF" points="354.741,72.619 337.45,89.968 335.516,81.835 330.681,101.458 
					350.305,96.51 342.171,94.688 359.462,77.227 				"/>
			</g>
		</g>
	</g>
	<g>
		<g>
			<g>
				<defs>
					<rect id="SVGID_41_" x="15.285" y="11.856" width="388.346" height="243.529"/>
				</defs>
				<clipPath id="SVGID_42_">
					<use xlink:href="#SVGID_41_"  overflow="visible"/>
				</clipPath>
				
					<polygon clip-path="url(#SVGID_42_)" fill="none" stroke="#231F20" stroke-width="0.559" stroke-linecap="round" stroke-linejoin="round" points="
					354.741,72.619 337.45,89.968 335.516,81.835 330.681,101.458 350.305,96.51 342.171,94.688 359.462,77.227 				"/>
			</g>
		</g>
	</g>
	<g>
		<g>
			<g>
				<defs>
					<rect id="SVGID_43_" x="15.285" y="11.856" width="388.346" height="243.529"/>
				</defs>
				<clipPath id="SVGID_44_">
					<use xlink:href="#SVGID_43_"  overflow="visible"/>
				</clipPath>
				
					<line clip-path="url(#SVGID_44_)" fill="none" stroke="#231F20" stroke-width="3.16" x1="92.58" y1="165.146" x2="80.921" y2="180.625"/>
			</g>
		</g>
	</g>
	<g>
		<g>
			<g>
				<defs>
					<rect id="SVGID_45_" x="15.285" y="11.856" width="388.346" height="243.529"/>
				</defs>
				<clipPath id="SVGID_46_">
					<use xlink:href="#SVGID_45_"  overflow="visible"/>
				</clipPath>
				<path clip-path="url(#SVGID_46_)" fill="#FFFFFF" d="M278.295,140.705c2.562,2.445,3.696,5.404,2.503,6.654
					c-1.193,1.191-4.209,0.285-6.771-2.161c-2.562-2.445-3.64-5.403-2.504-6.599C272.721,137.348,275.734,138.316,278.295,140.705"
					/>
			</g>
		</g>
	</g>
	<g>
		<g>
			<g>
				<defs>
					<rect id="SVGID_47_" x="15.285" y="11.856" width="388.346" height="243.529"/>
				</defs>
				<clipPath id="SVGID_48_">
					<use xlink:href="#SVGID_47_"  overflow="visible"/>
				</clipPath>
				<path clip-path="url(#SVGID_48_)" fill="none" stroke="#231F20" stroke-width="0.79" d="M278.295,140.705
					c2.562,2.445,3.696,5.404,2.503,6.654c-1.193,1.191-4.209,0.285-6.771-2.161c-2.562-2.445-3.64-5.403-2.504-6.599
					C272.721,137.348,275.734,138.316,278.295,140.705z"/>
			</g>
		</g>
	</g>
	<g>
		<g>
			<g>
				<defs>
					<rect id="SVGID_49_" x="15.285" y="11.856" width="388.346" height="243.529"/>
				</defs>
				<clipPath id="SVGID_50_">
					<use xlink:href="#SVGID_49_"  overflow="visible"/>
				</clipPath>
				<path clip-path="url(#SVGID_50_)" fill="#231F20" d="M42.161,140.029c1.422,0,2.615-1.195,2.615-2.616
					c0-1.479-1.193-2.617-2.615-2.617c-1.479,0-2.674,1.14-2.674,2.617C39.488,138.834,40.682,140.029,42.161,140.029"/>
			</g>
		</g>
	</g>
	<g>
		<g>
			<g>
				<defs>
					<rect id="SVGID_51_" x="15.285" y="11.856" width="388.346" height="243.529"/>
				</defs>
				<clipPath id="SVGID_52_">
					<use xlink:href="#SVGID_51_"  overflow="visible"/>
				</clipPath>
				<path clip-path="url(#SVGID_52_)" fill="none" stroke="#231F20" stroke-width="0.171" d="M42.161,140.029
					c1.422,0,2.615-1.195,2.615-2.616c0-1.479-1.193-2.617-2.615-2.617c-1.479,0-2.674,1.14-2.674,2.617
					C39.488,138.834,40.682,140.029,42.161,140.029z"/>
			</g>
		</g>
	</g>
	<g>
		<g>
			<g>
				<defs>
					<rect id="SVGID_53_" x="15.285" y="11.856" width="388.346" height="243.529"/>
				</defs>
				<clipPath id="SVGID_54_">
					<use xlink:href="#SVGID_53_"  overflow="visible"/>
				</clipPath>
				<path clip-path="url(#SVGID_54_)" fill="none" stroke="#231F20" stroke-width="3.555" d="M43.425,138.188
					c39.007,34.271,67.788,61.799,114.11,60.914c42.407-0.805,85.977-29.42,120.787-58.463"/>
			</g>
		</g>
	</g>
	<g>
		<g>
			<g>
				<defs>
					<rect id="SVGID_55_" x="15.285" y="11.856" width="388.346" height="243.529"/>
				</defs>
				<clipPath id="SVGID_56_">
					<use xlink:href="#SVGID_55_"  overflow="visible"/>
				</clipPath>
				<path clip-path="url(#SVGID_56_)" fill="none" stroke="#808184" stroke-width="2.37" d="M42.946,137.98
					c39.102,34.443,67.953,62.121,114.39,61.229c43.896-0.833,86.16-29.551,121.083-58.768"/>
			</g>
		</g>
	</g>
	<g>
		<g>
			<g>
				<defs>
					<rect id="SVGID_57_" x="15.285" y="11.856" width="388.346" height="243.529"/>
				</defs>
				<clipPath id="SVGID_58_">
					<use xlink:href="#SVGID_57_"  overflow="visible"/>
				</clipPath>
				<path clip-path="url(#SVGID_58_)" fill="#808184" d="M42.257,139.867c1.288,0,2.371-1.084,2.371-2.372
					c0-1.341-1.083-2.371-2.371-2.371c-1.341,0-2.423,1.03-2.423,2.371C39.834,138.783,40.917,139.867,42.257,139.867"/>
			</g>
		</g>
	</g>
	<g>
		<g>
			<g>
				<defs>
					<rect id="SVGID_59_" x="15.285" y="11.856" width="388.346" height="243.529"/>
				</defs>
				<clipPath id="SVGID_60_">
					<use xlink:href="#SVGID_59_"  overflow="visible"/>
				</clipPath>
				<path clip-path="url(#SVGID_60_)" fill="none" stroke="#231F20" stroke-width="0.79" d="M40.081,119.716
					c5.519,5.574,6.771,13.253,2.844,17.007c-3.925,3.813-11.547,2.393-17.007-3.127c-5.461-5.632-6.77-13.254-2.844-17.121
					C26.999,112.663,34.621,114.085,40.081,119.716z"/>
			</g>
		</g>
	</g>
	<g>
		<g>
			<g>
				<defs>
					<rect id="SVGID_61_" x="15.285" y="11.856" width="388.346" height="243.529"/>
				</defs>
				<clipPath id="SVGID_62_">
					<use xlink:href="#SVGID_61_"  overflow="visible"/>
				</clipPath>
				<path clip-path="url(#SVGID_62_)" fill="#FFFFFF" d="M42.77,126.811c0,5.254-4.281,9.514-9.563,9.514
					c-5.281,0-9.563-4.26-9.563-9.514c0-5.25,4.279-9.509,9.563-9.509S42.77,121.561,42.77,126.811"/>
			</g>
		</g>
	</g>
</g>
<text transform="matrix(1 0 0 1 74.7043 138.5508)" fill="#231F20" font-family="'MyriadPro-Regular'" font-size="8">Blu</text>
<text transform="matrix(1 0 0 1 85.3352 138.5508)" fill="#231F20" font-family="'MyriadPro-Regular'" font-size="8">n</text>
<text transform="matrix(1 0 0 1 89.7434 138.5508)" fill="#231F20" font-family="'MyriadPro-Regular'" font-size="8">t end </text>
<text transform="matrix(1 0 0 1 108.7434 138.5508)" fill="#231F20" font-family="'MyriadPro-Regular'" font-size="8">t</text>
<text transform="matrix(1 0 0 1 111.3425 138.5508)" fill="#231F20" font-family="'MyriadPro-Regular'" font-size="8">o i</text>
<text transform="matrix(1 0 0 1 119.3035 138.5508)" fill="#231F20" font-family="'MyriadPro-Regular'" font-size="8">n</text>
<text transform="matrix(1 0 0 1 123.7185 138.5508)" fill="#231F20" font-family="'MyriadPro-Regular'" font-size="8">t</text>
<text transform="matrix(1 0 0 1 126.3669 138.5508)" fill="#231F20" font-family="'MyriadPro-Regular'" font-size="8">r</text>
<text transform="matrix(1 0 0 1 128.9036 138.5508)" fill="#231F20" font-family="'MyriadPro-Regular'" font-size="8">odu</text>
<text transform="matrix(1 0 0 1 142.2141 138.5508)" fill="#231F20" font-family="'MyriadPro-Regular'" font-size="8">c</text>
<text transform="matrix(1 0 0 1 145.7502 138.5508)" fill="#231F20" font-family="'MyriadPro-Regular'" font-size="8">er</text>
<text transform="matrix(1 0 0 1 261.2878 192.8789)" fill="#231F20" font-family="'MyriadPro-Regular'" font-size="8">T</text>
<text transform="matrix(1 0 0 1 264.905 192.8789)" fill="#231F20" font-family="'MyriadPro-Regular'" font-size="8">r</text>
<text transform="matrix(1 0 0 1 267.4871 192.8789)" fill="#231F20" font-family="'MyriadPro-Regular'" font-size="8">anspa</text>
<text transform="matrix(1 0 0 1 287.3582 192.8789)" fill="#231F20" font-family="'MyriadPro-Regular'" font-size="8">r</text>
<text transform="matrix(1 0 0 1 289.8953 192.8789)" fill="#231F20" font-family="'MyriadPro-Regular'" font-size="8">e</text>
<text transform="matrix(1 0 0 1 293.905 192.8789)" fill="#231F20" font-family="'MyriadPro-Regular'" font-size="8">n</text>
<text transform="matrix(1 0 0 1 298.3191 192.8789)" fill="#231F20" font-family="'MyriadPro-Regular'" font-size="8">t endot</text>
<text transform="matrix(1 0 0 1 322.6628 192.8789)" fill="#231F20" font-family="'MyriadPro-Regular'" font-size="8">r</text>
<text transform="matrix(1 0 0 1 325.24 192.8789)" fill="#231F20" font-family="'MyriadPro-Regular'" font-size="8">acheal tube with </text>
<text transform="matrix(1 0 0 1 281.446 202.4795)" fill="#231F20" font-family="'MyriadPro-Regular'" font-size="8">measu</text>
<text transform="matrix(1 0 0 1 303.5583 202.4795)" fill="#231F20" font-family="'MyriadPro-Regular'" font-size="8">r</text>
<text transform="matrix(1 0 0 1 306.1042 202.4795)" fill="#231F20" font-family="'MyriadPro-Regular'" font-size="8">eme</text>
<text transform="matrix(1 0 0 1 320.7917 202.4795)" fill="#231F20" font-family="'MyriadPro-Regular'" font-size="8">n</text>
<text transform="matrix(1 0 0 1 325.2 202.4795)" fill="#231F20" font-family="'MyriadPro-Regular'" font-size="8">t ma</text>
<text transform="matrix(1 0 0 1 340.071 202.4795)" fill="#231F20" font-family="'MyriadPro-Regular'" font-size="8">r</text>
<text transform="matrix(1 0 0 1 342.7175 202.4795)" fill="#231F20" font-family="'MyriadPro-Regular'" font-size="8">k</text>
<text transform="matrix(1 0 0 1 346.5984 202.4795)" fill="#231F20" font-family="'MyriadPro-Regular'" font-size="8">ings</text>
<text transform="matrix(1 0 0 1 348.0232 126.3828)" fill="#231F20" font-family="'MyriadPro-Regular'" font-size="8">C</text>
<text transform="matrix(1 0 0 1 352.5837 126.3828)" fill="#231F20" font-family="'MyriadPro-Regular'" font-size="8">onne</text>
<text transform="matrix(1 0 0 1 369.8621 126.3828)" fill="#231F20" font-family="'MyriadPro-Regular'" font-size="8">c</text>
<text transform="matrix(1 0 0 1 373.5496 126.3828)" fill="#231F20" font-family="'MyriadPro-Regular'" font-size="8">t</text>
<text transform="matrix(1 0 0 1 376.1521 126.3828)" fill="#231F20" font-family="'MyriadPro-Regular'" font-size="8">or </text>
<text transform="matrix(1 0 0 1 356.6003 135.9834)" fill="#231F20" font-family="'MyriadPro-Regular'" font-size="8">pie</text>
<text transform="matrix(1 0 0 1 367.032 135.9834)" fill="#231F20" font-family="'MyriadPro-Regular'" font-size="8">c</text>
<text transform="matrix(1 0 0 1 370.5671 135.9834)" fill="#231F20" font-family="'MyriadPro-Regular'" font-size="8">e</text>
<text transform="matrix(1 0 0 1 241.241 42.0547)" fill="#231F20" font-family="'MyriadPro-Regular'" font-size="8">W</text>
<text transform="matrix(1 0 0 1 247.8796 42.0547)" fill="#231F20" font-family="'MyriadPro-Regular'" font-size="8">i</text>
<text transform="matrix(1 0 0 1 249.7507 42.0547)" fill="#231F20" font-family="'MyriadPro-Regular'" font-size="8">r</text>
<text transform="matrix(1 0 0 1 252.2957 42.0547)" fill="#231F20" font-family="'MyriadPro-Regular'" font-size="8">e i</text>
<text transform="matrix(1 0 0 1 259.8708 42.0547)" fill="#231F20" font-family="'MyriadPro-Regular'" font-size="8">n</text>
<text transform="matrix(1 0 0 1 264.28 42.0547)" fill="#231F20" font-family="'MyriadPro-Regular'" font-size="8">t</text>
<text transform="matrix(1 0 0 1 266.9275 42.0547)" fill="#231F20" font-family="'MyriadPro-Regular'" font-size="8">r</text>
<text transform="matrix(1 0 0 1 269.4714 42.0547)" fill="#231F20" font-family="'MyriadPro-Regular'" font-size="8">odu</text>
<text transform="matrix(1 0 0 1 282.7839 42.0547)" fill="#231F20" font-family="'MyriadPro-Regular'" font-size="8">c</text>
<text transform="matrix(1 0 0 1 286.3171 42.0547)" fill="#231F20" font-family="'MyriadPro-Regular'" font-size="8">er</text>
<line fill="none" stroke="#231F20" stroke-width="0.5" x1="218.421" y1="192.314" x2="254.563" y2="192.314"/>
<line fill="none" stroke="#231F20" stroke-width="0.5" x1="322.24" y1="125.598" x2="339.72" y2="125.598"/>
<line fill="none" stroke="#231F20" stroke-width="0.5" x1="303.696" y1="41.12" x2="321.177" y2="41.12"/>
<line fill="none" stroke="#231F20" stroke-width="0.5" x1="44.563" y1="136.58" x2="62.043" y2="136.58"/>
</svg>
