<?xml version="1.0" encoding="utf-8"?>
<!-- Generator: Adobe Illustrator 15.1.0, SVG Export Plug-In . SVG Version: 6.00 Build 0)  -->
<!DOCTYPE svg PUBLIC "-//W3C//DTD SVG 1.1//EN" "http://www.w3.org/Graphics/SVG/1.1/DTD/svg11.dtd">
<svg version="1.1" id="Layer_1" xmlns="http://www.w3.org/2000/svg" xmlns:xlink="http://www.w3.org/1999/xlink" x="0px" y="0px"
	 width="325.987px" height="294.806px" viewBox="-23.14 -3.089 325.987 294.806"
	 enable-background="new -23.14 -3.089 325.987 294.806" xml:space="preserve">
<g>
	<g>
		<g>
			
				<line fill="none" stroke="#231F20" stroke-miterlimit="10" stroke-dasharray="5,3" x1="-22.605" y1="72.895" x2="302.846" y2="73.275"/>
		</g>
	</g>
	<rect x="109.447" y="74.417" fill="#BBBDBF" width="10.96" height="13.244"/>
	
		<rect x="109.447" y="74.417" fill="none" stroke="#231F20" stroke-width="0.5" stroke-miterlimit="10" width="10.96" height="13.244"/>
	<g>
		<path fill="#FFFFFF" d="M82.732,100.6l-6.089-27.172c10.352,0,20.854-1.295,31.129,0c1.903,0.229,3.35,2.587,3.35,4.415v7.763
			c0,1.219-1.6,2.437-2.894,2.513C97.422,88.498,89.278,92.685,82.732,100.6"/>
	</g>
	<g>
		<path fill="none" stroke="#231F20" stroke-width="1.502" stroke-miterlimit="10" d="M76.644,73.428
			c10.352,0,20.854-1.295,31.129,0c1.903,0.229,3.35,2.587,3.35,4.415v7.763c0,1.219-1.6,2.437-2.894,2.513
			c-10.808,0.381-18.952,4.566-25.497,12.481"/>
	</g>
	<g>
		<path fill="#FFFFFF" d="M146.361,100.828l6.09-27.172c-10.275,0-20.778-1.219-31.055,0c-1.75,0.229-3.425,2.512-3.425,4.413v7.688
			c0,1.294,1.598,2.512,2.969,2.512C131.748,88.727,139.816,92.836,146.361,100.828"/>
	</g>
	<g>
		<path fill="none" stroke="#231F20" stroke-width="1.502" stroke-miterlimit="10" d="M152.45,73.656
			c-10.275,0-20.778-1.219-31.055,0c-1.75,0.229-3.425,2.512-3.425,4.413v7.688c0,1.294,1.598,2.512,2.969,2.512
			c10.809,0.457,18.875,4.565,25.421,12.56"/>
	</g>
	<g>
		<rect x="225.44" y="74.95" fill="#BBBDBF" width="12.026" height="13.167"/>
	</g>
	<g>
		
			<rect x="225.44" y="74.95" fill="none" stroke="#231F20" stroke-width="0.5" stroke-miterlimit="10" width="12.026" height="13.167"/>
	</g>
	<g>
		<path fill="#FFFFFF" d="M198.726,101.057l-6.089-27.172c10.351,0,20.854-1.294,31.129,0c1.904,0.228,3.424,2.588,3.424,4.414
			v7.688c0,1.217-1.674,2.513-2.97,2.513C213.416,88.954,205.271,93.064,198.726,101.057"/>
	</g>
	<g>
		<path fill="none" stroke="#231F20" stroke-width="1.502" stroke-miterlimit="10" d="M192.637,73.885
			c10.351,0,20.854-1.294,31.129,0c1.904,0.228,3.424,2.588,3.424,4.414v7.688c0,1.217-1.674,2.513-2.97,2.513
			c-10.806,0.456-18.951,4.565-25.495,12.559"/>
	</g>
	<g>
		<path fill="#FFFFFF" d="M262.354,101.284l6.166-27.173c-10.351,0-20.854-1.216-31.129,0c-1.75,0.153-3.424,2.513-3.424,4.339
			v7.765c0,1.217,1.598,2.436,2.97,2.512C247.74,89.106,255.809,93.293,262.354,101.284"/>
	</g>
	<g>
		<path fill="none" stroke="#231F20" stroke-width="1.502" stroke-miterlimit="10" d="M268.52,74.112
			c-10.351,0-20.854-1.218-31.129,0c-1.75,0.153-3.424,2.513-3.424,4.339v7.765c0,1.217,1.598,2.436,2.97,2.512
			c10.807,0.38,18.874,4.566,25.42,12.559"/>
	</g>
	<g>
		<path fill="none" stroke="#231F20" stroke-width="4" stroke-miterlimit="10" d="M228.256,20.607
			c19.638-0.229,35.85,15.526,36.153,35.164c0.229,19.712-15.526,35.924-35.164,36.229c-19.712,0.229-35.925-15.526-36.229-35.239
			C192.789,37.046,208.543,20.911,228.256,20.607z M114.318,10.94c19.713-0.304,35.85,15.451,36.076,35.163
			c0.307,19.714-15.374,35.85-35.087,36.153c-19.712,0.305-35.924-15.451-36.152-35.163C78.851,27.381,94.605,11.169,114.318,10.94z
			 M26.715-1.085C46.427-1.39,62.563,14.366,62.867,34.078c0.305,19.713-15.45,35.925-35.163,36.152
			C7.991,70.536-8.22,54.781-8.449,35.068C-8.753,15.355,7.002-0.856,26.715-1.085z"/>
	</g>
	<g>
		<rect x="21.234" y="73.504" fill="#D0D2D3" width="9.209" height="13.776"/>
	</g>
	<g>
		
			<rect x="21.234" y="73.504" fill="none" stroke="#231F20" stroke-width="0.5" stroke-miterlimit="10" width="9.209" height="13.776"/>
	</g>
	<g>
		<path fill="#FFFFFF" d="M-5.48,100.219l-6.165-27.172c10.352,0,20.854-1.294,31.13,0c1.979,0.229,3.426,2.589,3.426,4.338v7.766
			c0,1.217-1.6,2.437-2.969,2.513C9.133,88.041,1.065,92.228-5.48,100.219"/>
	</g>
	<g>
		<path fill="none" stroke="#231F20" stroke-width="1.502" stroke-miterlimit="10" d="M-11.646,73.047
			c10.352,0,20.854-1.294,31.13,0c1.979,0.229,3.426,2.589,3.426,4.338v7.766c0,1.217-1.6,2.437-2.969,2.513
			C9.133,88.041,1.065,92.228-5.48,100.22"/>
	</g>
	<g>
		<path fill="#FFFFFF" d="M58.148,100.448L64.237,73.2c-10.351,0-20.777-1.218-31.13,0c-1.75,0.229-3.424,2.587-3.424,4.414v7.765
			c0,1.217,1.674,2.435,2.968,2.511C43.459,88.27,51.603,92.455,58.148,100.448"/>
	</g>
	<g>
		<path fill="none" stroke="#231F20" stroke-width="1.502" stroke-miterlimit="10" d="M64.237,73.2c-10.351,0-20.777-1.218-31.13,0
			c-1.75,0.229-3.424,2.587-3.424,4.414v7.765c0,1.217,1.674,2.435,2.968,2.511c10.809,0.38,18.951,4.567,25.497,12.56"/>
	</g>
	<g>
		<g>
			<g>
				<path fill="#231F20" d="M282.453,33.853c-7.52,8.404-23.089,24.806-13.645,36.853c0.814,1.039,4.077,4.948,5.663,4.055
					c3.093-1.742,5.359-4.101,7.182-7.136c1.146-1.907,1.47-4.523,3.166-6.071c2.033-1.854,3.917-3.866,5.733-5.932
					c2.961-3.368,5.491-7.095,7.744-10.964c0.434-0.746-0.611-1.6-1.103-0.758c-3.859,6.635-8.697,12.414-14.361,17.582
					c-0.752,0.688-0.888,2.438-1.306,3.441c-0.652,1.566-1.577,2.999-2.6,4.346c-0.951,1.254-2.17,2.272-3.434,3.193
					c-2.46,1.793-5.158-1.861-6.312-3.622c-3.369-5.137-1.772-10.691,0.767-15.809c3.33-6.708,8.446-12.576,13.405-18.118
					C283.905,34.298,283.091,33.141,282.453,33.853L282.453,33.853z"/>
			</g>
		</g>
	</g>
	<g>
		<g>
			<g>
				<path fill="#231F20" d="M292.008,33.445c-3.577,6.014-7.153,12.026-10.73,18.039c-0.317,0.536,0.49,1.061,0.82,0.506
					c3.577-6.014,7.153-12.026,10.73-18.039C293.146,33.414,292.338,32.89,292.008,33.445L292.008,33.445z"/>
				<path fill="#231F20" d="M283.335,61.605c-5.689-2.521-10.393,7.53-12.257,11.113c-0.287,0.551,0.521,1.079,0.819,0.505
					c1.693-3.252,6.091-12.911,11.186-10.654C283.651,62.821,283.885,61.849,283.335,61.605L283.335,61.605z"/>
			</g>
		</g>
	</g>
	<g>
		<path fill="#231F20" d="M280.24,54.172l1.218-9.21c1.445,2.437,3.35,3.729,6.242,3.808L280.24,54.172z"/>
	</g>
	<g>
		
			<path fill="none" stroke="#231F20" stroke-width="0.046" stroke-linecap="round" stroke-linejoin="round" stroke-miterlimit="10" d="
			M280.24,54.172l1.218-9.21c1.445,2.437,3.35,3.729,6.242,3.808L280.24,54.172z"/>
	</g>
	<g>
		<g>
			<g>
				<path fill="#231F20" d="M174.377,34.38c7.546,8.436,21.579,22.818,13.6,34.764c-0.622,0.932-3.433,4.189-4.988,3.323
					c-1.354-0.754-2.505-1.827-3.563-2.942c-1.146-1.208-2-2.668-2.782-4.125c-0.629-1.172-0.949-3.654-1.82-4.449
					c-5.654-5.158-10.521-10.898-14.285-17.582c-0.479-0.851-1.524,0.006-1.103,0.757c1.995,3.541,4.271,6.852,6.839,10.001
					c1.705,2.089,3.593,4.022,5.519,5.908c1.971,1.929,2.604,3.728,3.751,6.123c1.36,2.847,3.467,5.24,6.001,7.091
					c2.665,1.946,4.598-0.035,6.64-2.171c11.169-11.681-5.414-29.385-12.901-37.758C174.642,32.607,173.827,33.765,174.377,34.38
					L174.377,34.38z"/>
			</g>
		</g>
	</g>
	<g>
		<g>
			<g>
				<path fill="#231F20" d="M164.827,33.417c3.603,6.012,7.204,12.024,10.808,18.037c0.332,0.554,1.141,0.029,0.82-0.505
					c-3.604-6.013-7.205-12.025-10.809-18.037C165.315,32.359,164.507,32.882,164.827,33.417L164.827,33.417z"/>
				<path fill="#231F20" d="M174.762,62.062c4.867-2.324,9.474,7.609,11.071,10.628c0.303,0.572,1.11,0.044,0.819-0.505
					c-1.906-3.604-6.671-13.708-12.372-10.986C173.731,61.462,174.191,62.334,174.762,62.062L174.762,62.062z"/>
			</g>
		</g>
	</g>
	<g>
		<path fill="#231F20" d="M177.414,53.64l-1.219-9.21c-1.444,2.437-3.271,3.729-6.24,3.807L177.414,53.64z"/>
	</g>
	<g>
		
			<path fill="none" stroke="#231F20" stroke-width="0.046" stroke-linecap="round" stroke-linejoin="round" stroke-miterlimit="10" d="
			M177.414,53.64l-1.219-9.21c-1.444,2.437-3.271,3.729-6.24,3.807L177.414,53.64z"/>
	</g>
	<g>
		<path fill="#231F20" d="M19.637,106.612l0.913-0.075c0.076,0.458,0.229,0.762,0.532,1.066c0.229,0.229,0.608,0.305,0.914,0.305
			c0.457,0,0.837-0.153,1.142-0.458c0.305-0.382,0.456-0.838,0.456-1.369c0-0.533-0.076-0.914-0.38-1.22
			c-0.304-0.304-0.686-0.455-1.217-0.455c-0.306,0-0.533,0-0.763,0.151c-0.305,0.153-0.456,0.304-0.607,0.533l-0.837-0.075
			l0.685-3.883h3.806v0.838h-3.045l-0.38,2.055c0.457-0.306,0.913-0.457,1.446-0.457c0.609,0,1.218,0.229,1.598,0.685
			c0.457,0.458,0.686,1.064,0.686,1.75s-0.152,1.296-0.532,1.751c-0.533,0.608-1.218,0.914-2.055,0.914
			c-0.687,0-1.219-0.154-1.676-0.533C19.941,107.754,19.637,107.222,19.637,106.612"/>
	</g>
	<g>
		<polygon fill="#231F20" points="25.04,108.667 27.247,100.903 28.009,100.903 25.802,108.667 		"/>
	</g>
	<g>
		<path fill="#231F20" d="M28.389,106.612l0.99-0.075c0.077,0.458,0.228,0.762,0.533,1.066c0.229,0.229,0.532,0.305,0.914,0.305
			c0.457,0,0.837-0.153,1.142-0.458c0.304-0.382,0.456-0.838,0.456-1.369c0-0.533-0.152-0.914-0.456-1.22
			c-0.229-0.304-0.686-0.455-1.142-0.455c-0.305,0-0.533,0-0.838,0.151c-0.229,0.153-0.381,0.304-0.531,0.533l-0.838-0.075
			l0.686-3.883h3.805v0.838h-3.044l-0.38,2.055c0.457-0.306,0.913-0.457,1.37-0.457c0.686,0,1.218,0.229,1.675,0.685
			c0.457,0.458,0.686,1.064,0.686,1.75s-0.152,1.296-0.608,1.751c-0.457,0.608-1.142,0.914-1.979,0.914
			c-0.686,0-1.219-0.154-1.675-0.533C28.693,107.754,28.465,107.222,28.389,106.612"/>
	</g>
	<g>
		<path fill="#231F20" d="M108.078,106.765h-2.056v-0.838l2.056-2.969v1.218l-1.143,1.749h1.143V106.765z M109.295,108.591v-1.826
			h-1.217v-0.838h1.217v-3.424l-1.217,1.674v-1.218l1.369-1.979h0.762v4.947h0.99v0.838h-0.99v1.827L109.295,108.591
			L109.295,108.591z"/>
	</g>
	<g>
		<polygon fill="#231F20" points="111.73,108.667 113.938,100.903 114.699,100.903 112.492,108.667 		"/>
	</g>
	<g>
		<path fill="#231F20" d="M115.079,106.612l0.989-0.075c0.076,0.458,0.229,0.762,0.533,1.066c0.229,0.229,0.533,0.305,0.913,0.305
			c0.457,0,0.837-0.153,1.142-0.458c0.306-0.382,0.457-0.838,0.457-1.369c0-0.533-0.151-0.914-0.381-1.22
			c-0.304-0.304-0.685-0.455-1.217-0.455c-0.305,0-0.533,0-0.761,0.151c-0.304,0.153-0.457,0.304-0.608,0.533l-0.838-0.075
			l0.687-3.883h3.806v0.838h-3.045l-0.381,2.055c0.457-0.306,0.914-0.457,1.371-0.457c0.685,0,1.218,0.229,1.674,0.685
			c0.457,0.458,0.685,1.064,0.685,1.75s-0.151,1.296-0.608,1.751c-0.457,0.608-1.143,0.914-1.979,0.914
			c-0.685,0-1.218-0.154-1.674-0.533C115.384,107.754,115.156,107.222,115.079,106.612"/>
	</g>
	<g>
		<path fill="#231F20" d="M224.527,106.536l0.913-0.076c0.152,0.534,0.307,0.914,0.532,1.142c0.306,0.229,0.609,0.307,0.99,0.307
			s0.761-0.153,1.064-0.458c0.305-0.306,0.457-0.686,0.457-1.065c0-0.457-0.151-0.837-0.38-1.066
			c-0.305-0.303-0.684-0.457-1.066-0.457c-0.228,0-0.456,0.076-0.684,0.154l0.076-0.838h0.152c0.456,0,0.762-0.076,1.064-0.305
			c0.38-0.229,0.532-0.532,0.532-0.99c0-0.304-0.152-0.609-0.379-0.837c-0.229-0.229-0.533-0.305-0.913-0.305
			c-0.306,0-0.609,0.075-0.915,0.305c-0.227,0.228-0.379,0.607-0.456,1.064l-0.912-0.151c0.152-0.687,0.38-1.143,0.76-1.446
			c0.458-0.379,0.914-0.533,1.522-0.533c0.381,0,0.761,0.077,1.142,0.229c0.382,0.229,0.609,0.458,0.837,0.762
			c0.153,0.304,0.229,0.609,0.229,0.99c0,0.305-0.076,0.608-0.229,0.837c-0.228,0.305-0.455,0.533-0.837,0.686
			c0.458,0.074,0.837,0.305,1.066,0.607c0.228,0.306,0.38,0.763,0.38,1.218c0,0.687-0.229,1.218-0.686,1.675
			c-0.532,0.456-1.143,0.687-1.826,0.687c-0.685,0-1.217-0.154-1.674-0.533C224.831,107.678,224.604,107.222,224.527,106.536"/>
	</g>
	<g>
		<polygon fill="#231F20" points="229.931,108.667 232.138,100.903 232.9,100.903 230.692,108.667 		"/>
	</g>
	<g>
		<path fill="#231F20" d="M233.356,106.612l0.988-0.151c0,0.532,0.229,0.838,0.459,1.142c0.304,0.229,0.606,0.304,0.991,0.304
			c0.456,0,0.76-0.151,1.142-0.456c0.304-0.381,0.456-0.838,0.456-1.37s-0.152-0.913-0.456-1.218
			c-0.306-0.38-0.686-0.532-1.219-0.532c-0.306,0-0.532,0.075-0.762,0.228c-0.229,0.154-0.457,0.306-0.608,0.535l-0.837-0.076
			l0.761-3.882h3.73v0.836h-3.046l-0.38,2.055c0.456-0.304,0.912-0.456,1.444-0.456c0.609,0,1.219,0.229,1.675,0.684
			c0.457,0.459,0.686,0.991,0.686,1.751c0,0.686-0.229,1.295-0.608,1.751c-0.532,0.608-1.142,0.912-1.978,0.912
			c-0.687,0-1.296-0.152-1.751-0.532C233.66,107.754,233.433,107.222,233.356,106.612"/>
	</g>
	<g>
		<g>
			<g>
				<path fill="#231F20" d="M208.918,5.871c-1.805,6.826-3.874,13.614-7.091,19.924c-2.385,4.676-6.044,9.762-11.645,10.464
					c-1.682,0.211-3.346,0.181-5.018-0.116c-3.362-0.596-3.607-2.224-3.196-5.206c0.257-1.864,1.037-3.621,1.868-5.289
					c0.708-1.424,2.786-3.04,3.02-4.538c1.184-7.566,3.311-14.823,6.786-21.665c0.389-0.765-0.658-1.628-1.102-0.757
					c-1.746,3.438-3.179,6.979-4.355,10.647c-0.772,2.409-1.347,4.877-1.86,7.353c-0.572,2.747-1.468,4.776-2.968,7.112
					c-2.175,3.386-3.077,7.362-2.775,11.344c0.155,2.061,5.107,2.629,6.578,2.752c15.076,1.256,20.146-20.881,22.987-31.627
					C210.38,5.394,209.167,4.929,208.918,5.871L208.918,5.871z"/>
			</g>
		</g>
	</g>
	<g>
		<g>
			<g>
				<path fill="#231F20" d="M204.404-2.555c-3.045,6.292-6.089,12.584-9.134,18.876c-0.27,0.558,0.538,1.088,0.82,0.506
					c3.045-6.292,6.089-12.584,9.134-18.876C205.494-2.607,204.687-3.138,204.404-2.555L204.404-2.555z"/>
				<path fill="#231F20" d="M186.004,21.495c4.56,2.906-1.068,12.001-2.758,15.069c-0.302,0.545,0.508,1.072,0.819,0.505
					c1.994-3.62,7.725-13.055,2.416-16.438C185.946,20.29,185.49,21.168,186.004,21.495L186.004,21.495z"/>
			</g>
		</g>
	</g>
	<g>
		<path fill="#231F20" d="M194.463,19.085l7.003-6.015c-2.816,0.076-4.87-0.761-6.622-3.118L194.463,19.085z"/>
	</g>
	<g>
		
			<path fill="none" stroke="#231F20" stroke-width="0.046" stroke-linecap="round" stroke-linejoin="round" stroke-miterlimit="10" d="
			M194.463,19.085l7.003-6.015c-2.816,0.076-4.87-0.761-6.622-3.118L194.463,19.085z"/>
	</g>
	<g>
		<g>
			<g>
				<path fill="#231F20" d="M246.822,7.259c3.046,11.563,7.322,30.463,21.838,31.624c1.649,0.132,7.203-0.33,7.705-2.474
					c0.807-3.447-0.625-7.424-2.133-10.453c-1.208-2.428-2.854-4.104-3.337-6.908c-0.438-2.538-1.062-5.039-1.762-7.515
					c-1.151-4.077-2.788-8.009-4.705-11.779c-0.443-0.872-1.49-0.008-1.102,0.757c3.265,6.42,5.351,13.197,6.57,20.286
					c0.313,1.825,0.089,1.343,1.233,2.799c1.707,2.17,2.894,4.665,3.638,7.311c0.332,1.177,1.183,4.317-0.197,5.209
					c-2.081,1.345-4.751,1.359-7.117,1.171c-5.706-0.457-9.208-4.953-11.851-9.611c-3.636-6.413-5.688-13.731-7.552-20.814
					C247.805,5.918,246.592,6.382,246.822,7.259L246.822,7.259z"/>
			</g>
		</g>
	</g>
	<g>
		<g>
			<g>
				<path fill="#231F20" d="M251.746-0.984c3.044,6.292,6.089,12.583,9.133,18.875c0.282,0.583,1.09,0.052,0.82-0.505
					c-3.045-6.292-6.09-12.583-9.134-18.875C252.284-2.071,251.477-1.541,251.746-0.984L251.746-0.984z"/>
				<path fill="#231F20" d="M270.562,21.698c-5.34,3.342,0.362,12.739,2.343,16.362c0.312,0.568,1.119,0.041,0.82-0.505
					c-1.688-3.086-7.28-12.118-2.683-14.995C271.559,22.237,271.103,21.359,270.562,21.698L270.562,21.698z"/>
			</g>
		</g>
	</g>
	<g>
		<path fill="#231F20" d="M262.507,20.15l-7.002-6.014c2.814,0.075,4.948-0.762,6.622-3.119L262.507,20.15z"/>
	</g>
	<g>
		
			<path fill="none" stroke="#231F20" stroke-width="0.046" stroke-linecap="round" stroke-linejoin="round" stroke-miterlimit="10" d="
			M262.507,20.15l-7.002-6.014c2.814,0.075,4.948-0.762,6.622-3.119L262.507,20.15z"/>
	</g>
	<g>
		<rect x="32.271" y="214.615" fill="#BBBDBF" width="10.429" height="13.242"/>
	</g>
	<g>
		
			<rect x="32.271" y="214.615" fill="none" stroke="#231F20" stroke-width="0.5" stroke-miterlimit="10" width="10.429" height="13.242"/>
	</g>
	<g>
		<path fill="#FFFFFF" d="M5.556,240.796l-6.165-27.171c10.428,0,20.931-1.296,31.206,0c1.903,0.229,3.349,2.587,3.349,4.414v7.687
			c0,1.218-1.598,2.511-2.892,2.511C20.245,228.694,12.102,232.805,5.556,240.796"/>
	</g>
	<g>
		<path fill="#FFFFFF" d="M69.185,241.024l6.165-27.171c-10.352,0-20.854-1.219-31.129,0c-1.75,0.151-3.425,2.512-3.425,4.338v7.765
			c0,1.217,1.598,2.437,2.968,2.513C54.571,228.847,62.639,233.032,69.185,241.024"/>
	</g>
	<g>
		<path fill="none" stroke="#231F20" stroke-width="1.502" stroke-miterlimit="10" d="M75.35,213.854
			c-10.352,0-20.854-1.219-31.129,0c-1.75,0.151-3.425,2.512-3.425,4.338v7.765c0,1.217,1.598,2.437,2.968,2.513
			c10.808,0.379,18.875,4.564,25.421,12.558 M-0.609,213.625c10.428,0,20.931-1.296,31.206,0c1.903,0.229,3.349,2.587,3.349,4.414
			v7.687c0,1.218-1.598,2.511-2.892,2.511c-10.808,0.458-18.951,4.567-25.497,12.561"/>
	</g>
	<g>
		<rect x="136.01" y="214.842" fill="#BBBDBF" width="10.808" height="12.711"/>
	</g>
	<g>
		
			<rect x="136.01" y="214.842" fill="none" stroke="#231F20" stroke-width="0.5" stroke-miterlimit="10" width="10.808" height="12.711"/>
	</g>
	<g>
		<path fill="#FFFFFF" d="M109.295,240.492l-6.089-27.174c10.351,0,20.854-1.295,31.13,0c1.901,0.229,3.425,2.588,3.425,4.415v7.687
			c0,1.219-1.675,2.513-2.968,2.513C123.984,228.391,115.917,232.5,109.295,240.492"/>
	</g>
	<g>
		<path fill="none" stroke="#231F20" stroke-width="1.502" stroke-miterlimit="10" d="M103.206,213.319
			c10.351,0,20.854-1.295,31.13,0c1.901,0.229,3.425,2.588,3.425,4.415v7.687c0,1.219-1.675,2.513-2.968,2.513
			c-10.809,0.458-18.875,4.566-25.498,12.561"/>
	</g>
	<g>
		<path fill="#FFFFFF" d="M172.924,240.721l6.089-27.172c-10.351,0-20.854-1.219-31.053,0c-1.75,0.152-3.425,2.512-3.425,4.338
			v7.765c0,1.217,1.674,2.437,2.969,2.512C158.234,228.542,166.303,232.729,172.924,240.721"/>
	</g>
	<g>
		<path fill="none" stroke="#231F20" stroke-width="1.502" stroke-miterlimit="10" d="M179.013,213.549
			c-10.351,0-20.854-1.219-31.053,0c-1.75,0.152-3.425,2.512-3.425,4.338v7.765c0,1.217,1.674,2.437,2.969,2.512
			c10.729,0.38,18.799,4.566,25.421,12.56"/>
	</g>
	<g>
		<rect x="234.954" y="214.995" fill="#BBBDBF" width="11.035" height="12.861"/>
	</g>
	<g>
		
			<rect x="234.954" y="214.995" fill="none" stroke="#231F20" stroke-width="0.5" stroke-miterlimit="10" width="11.035" height="12.861"/>
	</g>
	<g>
		<path fill="#FFFFFF" d="M208.24,240.796l-6.165-27.171c10.427,0,20.854-1.296,31.129,0c1.979,0.229,3.426,2.587,3.426,4.414v7.687
			c0,1.295-1.601,2.511-2.969,2.511C222.854,228.694,214.785,232.805,208.24,240.796"/>
	</g>
	<g>
		<path fill="none" stroke="#231F20" stroke-width="1.502" stroke-miterlimit="10" d="M202.074,213.625
			c10.427,0,20.854-1.296,31.129,0c1.979,0.229,3.426,2.587,3.426,4.414v7.687c0,1.295-1.601,2.511-2.969,2.511
			c-10.81,0.458-18.875,4.567-25.423,12.561"/>
	</g>
	<g>
		<path fill="#FFFFFF" d="M271.868,241.024l6.165-27.171c-10.428,0-20.854-1.219-31.13,0c-1.826,0.229-3.424,2.512-3.424,4.338
			v7.765c0,1.217,1.599,2.437,2.971,2.513C257.254,228.847,265.323,233.032,271.868,241.024"/>
	</g>
	<g>
		<path fill="none" stroke="#231F20" stroke-width="1.502" stroke-miterlimit="10" d="M278.033,213.854
			c-10.428,0-20.854-1.219-31.13,0c-1.826,0.229-3.424,2.512-3.424,4.338v7.765c0,1.217,1.599,2.437,2.971,2.513
			c10.806,0.379,18.874,4.564,25.42,12.558"/>
	</g>
	<g>
		<path fill="none" stroke="#231F20" stroke-width="4" stroke-miterlimit="10" d="M140.577,196.728
			c19.637-0.304,35.849,15.375,36.074,35.087c0.307,19.712-15.448,35.925-35.086,36.152c-19.713,0.305-35.925-15.45-36.152-35.163
			C105.109,213.092,120.864,196.956,140.577,196.728z M36.533,187.062c19.712-0.304,35.924,15.449,36.152,35.086
			c0.304,19.714-15.451,35.85-35.164,36.153S1.598,242.85,1.369,223.137C1.065,203.502,16.82,187.29,36.533,187.062z"/>
	</g>
	<g>
		<path fill="#231F20" d="M233.433,287.909c0-0.913,0.076-1.676,0.304-2.208c0.152-0.532,0.457-0.912,0.763-1.219
			c0.38-0.304,0.837-0.456,1.369-0.456v0.763c-0.382,0-0.761,0.151-0.989,0.532c-0.304,0.457-0.456,1.295-0.456,2.588
			c0,1.218,0.075,2.055,0.379,2.436c0.305,0.458,0.684,0.608,1.066,0.608v0.763c-0.685,0-1.296-0.229-1.676-0.763
			C233.66,290.345,233.433,289.278,233.433,287.909 M235.867,284.027c0.458,0,0.762,0.076,1.065,0.229s0.608,0.381,0.76,0.686
			c0.23,0.305,0.383,0.685,0.533,1.142c0.076,0.457,0.154,1.065,0.154,1.827c0,0.837-0.076,1.598-0.305,2.133
			c-0.152,0.532-0.457,0.988-0.837,1.216c-0.304,0.305-0.763,0.458-1.37,0.458v-0.762c0.458,0,0.837-0.152,1.142-0.609
			c0.229-0.38,0.38-1.217,0.38-2.436c0-1.294-0.153-2.132-0.38-2.513c-0.305-0.381-0.684-0.607-1.142-0.607L235.867,284.027
			L235.867,284.027L235.867,284.027z"/>
	</g>
	<g>
		<polygon fill="#231F20" points="238.836,291.714 241.043,283.951 241.805,283.951 239.598,291.714 		"/>
	</g>
	<g>
		<path fill="#231F20" d="M242.261,289.66l0.989-0.153c0.076,0.532,0.229,0.836,0.458,1.142c0.305,0.229,0.608,0.305,0.99,0.305
			c0.456,0,0.837-0.151,1.143-0.456c0.304-0.381,0.456-0.838,0.456-1.37c0-0.534-0.152-0.914-0.456-1.218
			c-0.306-0.38-0.687-0.533-1.143-0.533c-0.306,0-0.608,0.075-0.838,0.229c-0.228,0.152-0.457,0.306-0.608,0.532l-0.836-0.074
			l0.761-3.884h3.729v0.839h-3.045l-0.38,2.054c0.456-0.305,0.912-0.455,1.445-0.455c0.608,0,1.218,0.229,1.674,0.684
			c0.458,0.458,0.687,0.991,0.687,1.751c0,0.686-0.229,1.294-0.608,1.75c-0.533,0.609-1.143,0.913-1.979,0.913
			c-0.687,0-1.296-0.153-1.675-0.532C242.565,290.802,242.338,290.269,242.261,289.66"/>
	</g>
	<g>
		<path fill="none" stroke="#231F20" stroke-width="4" stroke-miterlimit="10" d="M239.521,206.698
			c19.713-0.229,35.925,15.449,36.152,35.164c0.305,19.712-15.45,35.85-35.164,36.151c-19.712,0.229-35.848-15.524-36.151-35.164
			C204.054,223.139,219.808,207.003,239.521,206.698z"/>
	</g>
	<g>
		
			<line fill="none" stroke="#231F20" stroke-miterlimit="10" stroke-dasharray="5,3" x1="-23.139" y1="213.092" x2="302.313" y2="213.473"/>
	</g>
	<g>
		<path fill="#231F20" d="M34.174,272.077v0.911h-4.948c0-0.228,0-0.455,0.077-0.683c0.152-0.305,0.304-0.686,0.608-0.991
			c0.305-0.304,0.685-0.684,1.218-1.14c0.837-0.687,1.37-1.219,1.674-1.602c0.304-0.38,0.456-0.761,0.456-1.142
			c0-0.38-0.152-0.684-0.38-0.912c-0.305-0.229-0.609-0.38-1.065-0.38c-0.457,0-0.837,0.152-1.065,0.38
			c-0.305,0.303-0.38,0.685-0.38,1.143l-0.99-0.076c0.077-0.764,0.305-1.295,0.761-1.675c0.381-0.381,0.99-0.533,1.675-0.533
			c0.762,0,1.293,0.229,1.75,0.608c0.457,0.381,0.609,0.913,0.609,1.521c0,0.305-0.077,0.533-0.152,0.838
			c-0.151,0.305-0.381,0.608-0.608,0.913c-0.306,0.38-0.762,0.836-1.445,1.37c-0.533,0.456-0.914,0.761-1.066,0.914
			c-0.151,0.228-0.304,0.379-0.38,0.532h3.653V272.077z"/>
	</g>
	<g>
		<polygon fill="#231F20" points="34.782,273.067 36.99,265.304 37.675,265.304 35.543,273.067 		"/>
	</g>
	<g>
		<path fill="#231F20" d="M38.131,271.012l0.99-0.075c0.075,0.456,0.229,0.837,0.532,1.065c0.229,0.228,0.533,0.305,0.913,0.305
			c0.457,0,0.838-0.153,1.143-0.457c0.304-0.381,0.457-0.838,0.457-1.371c0-0.532-0.152-0.912-0.457-1.217
			c-0.306-0.305-0.686-0.457-1.143-0.457c-0.304,0-0.607,0.075-0.837,0.152c-0.228,0.152-0.38,0.305-0.533,0.532l-0.913-0.075
			l0.762-3.882h3.729v0.837h-2.968l-0.457,2.056c0.457-0.305,0.99-0.458,1.446-0.458c0.685,0,1.217,0.229,1.674,0.686
			c0.456,0.456,0.685,1.064,0.685,1.75c0,0.685-0.229,1.294-0.608,1.749c-0.457,0.609-1.143,0.914-1.979,0.914
			c-0.685,0-1.217-0.151-1.674-0.532C38.436,272.151,38.207,271.621,38.131,271.012"/>
	</g>
	<g>
		<path fill="#231F20" d="M135.706,281.896h-0.913v-5.937c-0.229,0.228-0.533,0.456-0.914,0.606
			c-0.305,0.229-0.686,0.38-0.913,0.534v-0.914c0.457-0.228,0.913-0.532,1.37-0.913c0.38-0.305,0.608-0.685,0.761-0.988h0.608
			L135.706,281.896L135.706,281.896z"/>
	</g>
	<g>
		<polygon fill="#231F20" points="137.685,282.049 139.892,274.209 140.577,274.209 138.446,282.049 		"/>
	</g>
	<g>
		<path fill="#231F20" d="M141.033,279.916l0.988-0.075c0.076,0.458,0.229,0.838,0.533,1.064c0.23,0.229,0.533,0.382,0.915,0.382
			c0.456,0,0.836-0.229,1.142-0.532c0.305-0.381,0.457-0.762,0.457-1.371c0-0.532-0.152-0.912-0.457-1.217
			c-0.306-0.306-0.686-0.458-1.142-0.458c-0.306,0-0.609,0.077-0.838,0.152c-0.229,0.152-0.38,0.381-0.533,0.532l-0.912-0.076
			l0.762-3.881h3.729v0.838h-2.969l-0.457,2.056c0.457-0.306,0.989-0.457,1.444-0.457c0.686,0,1.218,0.229,1.675,0.684
			c0.458,0.458,0.685,1.065,0.685,1.751c0,0.685-0.228,1.293-0.609,1.827c-0.455,0.607-1.141,0.912-1.977,0.912
			c-0.686,0-1.218-0.229-1.674-0.608C141.338,281.059,141.11,280.525,141.033,279.916"/>
	</g>
	<g>
		<g>
			<g>
				<path fill="#231F20" d="M17.728,172.706c-1.804,6.825-3.875,13.614-7.091,19.924c-2.384,4.675-6.044,9.761-11.643,10.463
					c-1.682,0.211-3.348,0.183-5.019-0.105c-3.373-0.579-3.607-2.152-3.197-5.155c0.258-1.878,1.037-3.648,1.868-5.33
					c0.708-1.434,2.785-3.052,3.021-4.555c1.185-7.561,3.386-14.763,6.861-21.589c0.391-0.766-0.656-1.629-1.101-0.758
					c-1.746,3.428-3.199,6.952-4.396,10.606c-0.787,2.396-1.37,4.855-1.893,7.321c-0.581,2.744-1.477,4.778-2.972,7.117
					c-2.176,3.405-3.078,7.412-2.776,11.409c0.154,2.028,5.133,2.561,6.578,2.676c15.085,1.219,20.14-20.851,22.988-31.627
					C19.189,172.229,17.977,171.764,17.728,172.706L17.728,172.706z"/>
			</g>
		</g>
	</g>
	<g>
		<g>
			<g>
				<path fill="#231F20" d="M13.214,164.281c-3.02,6.316-6.039,12.635-9.059,18.951c-0.267,0.559,0.541,1.09,0.82,0.504
					c3.02-6.316,6.039-12.635,9.059-18.951C14.301,164.228,13.493,163.696,13.214,164.281L13.214,164.281z"/>
				<path fill="#231F20" d="M-5.188,188.331c4.531,2.994-1.037,11.943-2.758,15.068c-0.3,0.545,0.508,1.071,0.82,0.504
					c2.033-3.689,7.684-12.955,2.417-16.437C-5.239,187.117-5.695,187.996-5.188,188.331L-5.188,188.331z"/>
			</g>
		</g>
	</g>
	<g>
		<path fill="#231F20" d="M3.272,185.92l7.002-6.013c-2.815,0.151-4.872-0.762-6.622-3.121L3.272,185.92z"/>
	</g>
	<g>
		
			<path fill="none" stroke="#231F20" stroke-width="0.046" stroke-linecap="round" stroke-linejoin="round" stroke-miterlimit="10" d="
			M3.272,185.92l7.002-6.013c-2.815,0.151-4.872-0.762-6.622-3.121L3.272,185.92z"/>
	</g>
	<g>
		<g>
			<g>
				<path fill="#231F20" d="M55.631,174.171c3.042,11.508,7.361,30.476,21.838,31.624c1.684,0.134,7.272-0.375,7.781-2.55
					c0.8-3.421-0.708-7.457-2.205-10.452c-1.208-2.418-2.856-4.095-3.34-6.889c-0.439-2.533-1.064-5.029-1.763-7.503
					c-1.153-4.087-2.786-8.03-4.707-11.812c-0.441-0.871-1.488-0.008-1.101,0.758c3.262,6.421,5.344,13.21,6.572,20.297
					c0.313,1.813,0.093,1.337,1.233,2.788c1.708,2.172,2.898,4.668,3.655,7.312c0.342,1.19,1.226,4.321-0.165,5.233
					c-2.098,1.376-4.772,1.413-7.169,1.224c-5.691-0.451-9.224-5.04-11.849-9.668c-3.629-6.398-5.687-13.693-7.554-20.76
					C56.611,172.83,55.399,173.295,55.631,174.171L55.631,174.171z"/>
			</g>
		</g>
	</g>
	<g>
		<g>
			<g>
				<path fill="#231F20" d="M60.554,165.851c3.044,6.292,6.089,12.584,9.133,18.876c0.282,0.583,1.09,0.053,0.82-0.504
					c-3.044-6.292-6.089-12.584-9.133-18.876C61.092,164.764,60.285,165.294,60.554,165.851L60.554,165.851z"/>
				<path fill="#231F20" d="M79.372,188.533c-5.373,3.348,0.426,12.822,2.417,16.437c0.312,0.567,1.121,0.041,0.819-0.504
					c-1.689-3.068-7.375-12.192-2.758-15.069C80.369,189.074,79.912,188.196,79.372,188.533L79.372,188.533z"/>
			</g>
		</g>
	</g>
	<g>
		<path fill="#231F20" d="M71.315,186.986l-7.002-6.014c2.816,0.076,4.947-0.761,6.622-3.12L71.315,186.986z"/>
	</g>
	<g>
		
			<path fill="none" stroke="#231F20" stroke-width="0.046" stroke-linecap="round" stroke-linejoin="round" stroke-miterlimit="10" d="
			M71.315,186.986l-7.002-6.014c2.816,0.076,4.947-0.761,6.622-3.12L71.315,186.986z"/>
	</g>
</g>
</svg>
