<?xml version="1.0" encoding="utf-8"?>
<!-- Generator: Adobe Illustrator 15.1.0, SVG Export Plug-In . SVG Version: 6.00 Build 0)  -->
<!DOCTYPE svg PUBLIC "-//W3C//DTD SVG 1.1//EN" "http://www.w3.org/Graphics/SVG/1.1/DTD/svg11.dtd">
<svg version="1.1" id="Layer_10" xmlns="http://www.w3.org/2000/svg" xmlns:xlink="http://www.w3.org/1999/xlink" x="0px" y="0px"
	 width="325.984px" height="120.854px" viewBox="0 0 325.984 120.854" enable-background="new 0 0 325.984 120.854"
	 xml:space="preserve">
<g>
	<g>
		<path d="M-0.002,104.307v-6.206h4.488v0.73H0.819v1.901h3.434v0.729H0.819v2.112H4.63v0.731L-0.002,104.307L-0.002,104.307z"/>
		<path d="M8.585,104.307v-0.566c-0.286,0.445-0.705,0.67-1.257,0.67c-0.358,0-0.688-0.1-0.989-0.298
			c-0.301-0.196-0.532-0.472-0.698-0.827c-0.165-0.354-0.248-0.761-0.248-1.222c0-0.447,0.074-0.854,0.226-1.221
			c0.148-0.364,0.373-0.646,0.673-0.841c0.299-0.194,0.633-0.291,1.002-0.291c0.271,0,0.513,0.057,0.726,0.17
			c0.213,0.114,0.385,0.266,0.518,0.447V98.1h0.757v6.208L8.585,104.307L8.585,104.307L8.585,104.307z M6.175,102.063
			c0,0.576,0.122,1.005,0.364,1.29c0.243,0.286,0.529,0.429,0.86,0.429c0.333,0,0.615-0.138,0.849-0.409s0.35-0.688,0.35-1.246
			c0-0.615-0.118-1.067-0.355-1.355s-0.529-0.433-0.876-0.433c-0.338,0-0.621,0.14-0.85,0.416
			C6.288,101.031,6.175,101.468,6.175,102.063z"/>
		<path d="M10.349,104.68l0.74,0.109c0.032,0.229,0.117,0.396,0.259,0.498c0.188,0.143,0.447,0.213,0.774,0.213
			c0.354,0,0.625-0.07,0.818-0.213c0.19-0.141,0.321-0.338,0.389-0.593c0.039-0.155,0.058-0.479,0.055-0.979
			c-0.332,0.394-0.747,0.59-1.243,0.59c-0.617,0-1.097-0.225-1.437-0.671c-0.339-0.446-0.509-0.979-0.509-1.604
			c0-0.431,0.078-0.824,0.231-1.188c0.155-0.362,0.381-0.643,0.677-0.841c0.295-0.198,0.642-0.296,1.04-0.296
			c0.528,0,0.968,0.215,1.312,0.644v-0.542h0.704v3.888c0,0.7-0.072,1.196-0.214,1.487c-0.144,0.292-0.368,0.522-0.677,0.691
			c-0.311,0.169-0.689,0.254-1.144,0.254c-0.536,0-0.969-0.121-1.3-0.36C10.499,105.528,10.339,105.164,10.349,104.68z
			 M10.981,101.979c0,0.59,0.116,1.021,0.351,1.292c0.234,0.271,0.528,0.405,0.88,0.405s0.646-0.135,0.881-0.403
			c0.236-0.271,0.355-0.691,0.355-1.27c0-0.55-0.122-0.965-0.366-1.244c-0.244-0.278-0.538-0.419-0.883-0.419
			c-0.339,0-0.627,0.139-0.864,0.414C11.098,101.028,10.981,101.437,10.981,101.979z"/>
		<path d="M18.389,102.861l0.786,0.096c-0.125,0.46-0.354,0.817-0.688,1.071c-0.335,0.255-0.766,0.383-1.287,0.383
			c-0.658,0-1.18-0.201-1.565-0.605c-0.385-0.406-0.577-0.975-0.577-1.705c0-0.758,0.194-1.344,0.583-1.762
			c0.39-0.417,0.896-0.627,1.517-0.627c0.602,0,1.093,0.205,1.473,0.613c0.382,0.408,0.572,0.984,0.572,1.727
			c0,0.048,0,0.113-0.004,0.203h-3.354c0.027,0.494,0.167,0.873,0.418,1.137c0.251,0.262,0.563,0.395,0.939,0.395
			c0.279,0,0.519-0.073,0.715-0.223C18.117,103.414,18.275,103.181,18.389,102.861z M15.887,101.626h2.511
			c-0.034-0.379-0.129-0.661-0.288-0.854c-0.243-0.293-0.56-0.438-0.944-0.438c-0.35,0-0.645,0.117-0.884,0.354
			C16.045,100.922,15.913,101.234,15.887,101.626z"/>
		<path d="M22.259,102.059c0-0.832,0.231-1.448,0.694-1.85c0.387-0.335,0.858-0.5,1.414-0.5c0.618,0,1.123,0.203,1.516,0.605
			c0.395,0.406,0.589,0.966,0.589,1.682c0,0.578-0.087,1.032-0.261,1.363c-0.173,0.332-0.426,0.591-0.757,0.772
			c-0.332,0.184-0.694,0.274-1.086,0.274c-0.629,0-1.138-0.201-1.526-0.605C22.454,103.401,22.259,102.82,22.259,102.059z
			 M23.043,102.059c0,0.575,0.125,1.008,0.377,1.294s0.567,0.431,0.948,0.431c0.379,0,0.693-0.145,0.944-0.433
			s0.377-0.729,0.377-1.316c0-0.557-0.126-0.978-0.38-1.264c-0.253-0.287-0.565-0.431-0.941-0.431c-0.381,0-0.697,0.144-0.948,0.429
			S23.043,101.483,23.043,102.059z"/>
		<path d="M27.548,104.307v-3.903h-0.673v-0.593h0.673v-0.479c0-0.302,0.026-0.526,0.08-0.674c0.073-0.197,0.202-0.357,0.389-0.479
			c0.186-0.125,0.443-0.186,0.775-0.186c0.215,0,0.452,0.023,0.711,0.074l-0.113,0.665c-0.157-0.026-0.309-0.041-0.447-0.041
			c-0.231,0-0.396,0.05-0.492,0.147c-0.096,0.1-0.145,0.282-0.145,0.555v0.416h0.876v0.593h-0.876v3.903L27.548,104.307
			L27.548,104.307z"/>
		<path d="M35.1,104.307v-0.566c-0.284,0.445-0.703,0.67-1.259,0.67c-0.356,0-0.688-0.1-0.986-0.298
			c-0.302-0.196-0.533-0.472-0.699-0.827c-0.165-0.354-0.248-0.761-0.248-1.222c0-0.447,0.075-0.854,0.224-1.221
			c0.149-0.364,0.374-0.646,0.674-0.841c0.3-0.194,0.634-0.291,1.002-0.291c0.271,0,0.514,0.057,0.726,0.17
			c0.212,0.114,0.384,0.266,0.517,0.447V98.1h0.758v6.208L35.1,104.307L35.1,104.307z M32.692,102.063
			c0,0.576,0.122,1.005,0.363,1.29c0.241,0.286,0.528,0.429,0.858,0.429c0.333,0,0.616-0.138,0.85-0.409
			c0.232-0.271,0.35-0.688,0.35-1.246c0-0.615-0.119-1.067-0.356-1.355c-0.235-0.288-0.527-0.433-0.876-0.433
			c-0.338,0-0.62,0.14-0.849,0.416C32.804,101.031,32.692,101.468,32.692,102.063z"/>
		<path d="M36.998,104.307v-4.496h0.687v0.683c0.176-0.318,0.338-0.528,0.484-0.632c0.147-0.103,0.312-0.15,0.489-0.15
			c0.256,0,0.518,0.082,0.783,0.244l-0.264,0.707c-0.187-0.109-0.373-0.164-0.56-0.164c-0.167,0-0.315,0.05-0.449,0.149
			c-0.133,0.101-0.227,0.237-0.283,0.418c-0.085,0.271-0.128,0.564-0.128,0.891v2.354h-0.761L36.998,104.307L36.998,104.307z"/>
		<path d="M39.61,102.059c0-0.832,0.229-1.448,0.693-1.85c0.387-0.335,0.857-0.5,1.413-0.5c0.618,0,1.124,0.203,1.518,0.605
			c0.393,0.406,0.588,0.966,0.588,1.682c0,0.578-0.087,1.032-0.26,1.363c-0.175,0.332-0.427,0.591-0.759,0.772
			c-0.332,0.184-0.693,0.274-1.087,0.274c-0.629,0-1.138-0.201-1.524-0.605C39.802,103.401,39.61,102.82,39.61,102.059z
			 M40.394,102.059c0,0.575,0.125,1.008,0.376,1.294s0.565,0.431,0.947,0.431c0.379,0,0.693-0.145,0.944-0.433
			s0.377-0.729,0.377-1.316c0-0.557-0.126-0.978-0.379-1.264c-0.253-0.287-0.565-0.431-0.942-0.431
			c-0.381,0-0.695,0.144-0.947,0.429C40.519,101.054,40.394,101.483,40.394,102.059z"/>
		<path d="M44.716,106.031v-6.221h0.693v0.583c0.164-0.229,0.349-0.397,0.555-0.514c0.206-0.113,0.456-0.171,0.749-0.171
			c0.385,0,0.725,0.099,1.019,0.295c0.294,0.198,0.515,0.479,0.665,0.837c0.147,0.359,0.224,0.753,0.224,1.184
			c0,0.459-0.083,0.875-0.248,1.243c-0.165,0.367-0.405,0.649-0.72,0.848c-0.315,0.195-0.646,0.293-0.993,0.293
			c-0.254,0-0.48-0.054-0.685-0.16c-0.201-0.106-0.367-0.242-0.498-0.407v2.188L44.716,106.031L44.716,106.031z M45.406,102.084
			c0,0.578,0.117,1.006,0.352,1.284c0.235,0.274,0.52,0.416,0.853,0.416c0.339,0,0.628-0.145,0.87-0.433
			c0.24-0.286,0.36-0.729,0.36-1.329c0-0.574-0.117-1.003-0.354-1.289c-0.236-0.283-0.52-0.426-0.846-0.426
			c-0.324,0-0.611,0.15-0.86,0.455C45.531,101.066,45.406,101.505,45.406,102.084z"/>
		<path d="M49.522,104.307v-6.206h0.762v6.206H49.522z"/>
		<path d="M54.543,102.861l0.787,0.096c-0.125,0.46-0.354,0.817-0.689,1.071c-0.336,0.255-0.765,0.383-1.286,0.383
			c-0.658,0-1.181-0.201-1.564-0.605c-0.386-0.406-0.579-0.975-0.579-1.705c0-0.758,0.195-1.344,0.584-1.762
			c0.391-0.417,0.896-0.627,1.517-0.627c0.602,0,1.093,0.205,1.474,0.613s0.572,0.984,0.572,1.727c0,0.048-0.002,0.113-0.005,0.203
			h-3.354c0.028,0.494,0.167,0.873,0.419,1.137c0.251,0.261,0.564,0.395,0.939,0.395c0.277,0,0.518-0.073,0.716-0.223
			C54.271,103.414,54.427,103.181,54.543,102.861z M52.04,101.626h2.511c-0.033-0.379-0.13-0.661-0.287-0.854
			c-0.242-0.293-0.559-0.438-0.943-0.438c-0.351,0-0.646,0.117-0.882,0.354C52.198,100.922,52.066,101.234,52.04,101.626z"/>
		<path d="M57.951,103.625l0.11,0.672c-0.215,0.046-0.407,0.068-0.576,0.068c-0.277,0-0.491-0.046-0.646-0.131
			c-0.149-0.089-0.259-0.202-0.32-0.346c-0.062-0.145-0.095-0.443-0.095-0.899v-2.588h-0.558v-0.594h0.558v-1.112l0.761-0.456v1.57
			h0.766v0.593h-0.766v2.632c0,0.216,0.013,0.354,0.039,0.417c0.026,0.062,0.07,0.111,0.132,0.147
			c0.061,0.036,0.146,0.058,0.26,0.058C57.701,103.656,57.813,103.646,57.951,103.625z"/>
		<path d="M64.039,102.66l0.75,0.096c-0.082,0.52-0.292,0.923-0.628,1.215c-0.338,0.293-0.751,0.438-1.243,0.438
			c-0.614,0-1.109-0.199-1.481-0.603c-0.375-0.401-0.562-0.979-0.562-1.729c0-0.486,0.08-0.91,0.242-1.272
			c0.161-0.365,0.406-0.639,0.733-0.82c0.329-0.181,0.688-0.271,1.072-0.271c0.489,0,0.889,0.123,1.198,0.37
			c0.312,0.247,0.51,0.599,0.597,1.052l-0.739,0.114c-0.07-0.302-0.195-0.527-0.375-0.682c-0.182-0.152-0.396-0.229-0.65-0.229
			c-0.384,0-0.696,0.139-0.937,0.414c-0.239,0.273-0.359,0.709-0.359,1.307c0,0.604,0.116,1.043,0.347,1.316
			c0.231,0.271,0.533,0.411,0.906,0.411c0.299,0,0.549-0.091,0.75-0.274C63.858,103.323,63.986,103.041,64.039,102.66z"/>
		<path d="M65.424,104.307v-6.206h0.765v6.206H65.424z"/>
		<path d="M70.445,102.861l0.788,0.096c-0.125,0.46-0.354,0.817-0.69,1.071c-0.336,0.255-0.765,0.383-1.288,0.383
			c-0.657,0-1.18-0.201-1.562-0.605c-0.386-0.406-0.578-0.975-0.578-1.705c0-0.758,0.194-1.344,0.584-1.762
			c0.389-0.417,0.895-0.627,1.516-0.627c0.603,0,1.093,0.205,1.476,0.613c0.381,0.408,0.569,0.984,0.569,1.727
			c0,0.048-0.001,0.113-0.004,0.203h-3.353c0.027,0.494,0.168,0.873,0.419,1.137c0.251,0.262,0.562,0.395,0.939,0.395
			c0.278,0,0.52-0.073,0.715-0.223C70.173,103.414,70.329,103.181,70.445,102.861z M67.943,101.626h2.511
			c-0.034-0.379-0.129-0.661-0.288-0.854c-0.243-0.293-0.558-0.438-0.943-0.438c-0.351,0-0.645,0.117-0.884,0.354
			C68.099,100.923,67.969,101.234,67.943,101.626z"/>
		<path d="M75.124,103.751c-0.283,0.24-0.555,0.411-0.814,0.51c-0.261,0.099-0.541,0.146-0.84,0.146
			c-0.493,0-0.874-0.119-1.14-0.361c-0.264-0.241-0.396-0.55-0.396-0.925c0-0.222,0.051-0.422,0.149-0.604
			c0.1-0.182,0.231-0.327,0.396-0.438c0.161-0.108,0.345-0.194,0.547-0.25c0.148-0.04,0.376-0.077,0.679-0.114
			c0.614-0.072,1.067-0.159,1.358-0.263c0.003-0.104,0.005-0.171,0.005-0.199c0-0.31-0.072-0.527-0.217-0.655
			c-0.193-0.174-0.483-0.261-0.868-0.261c-0.358,0-0.623,0.062-0.794,0.188c-0.172,0.126-0.298,0.349-0.38,0.667l-0.744-0.102
			c0.066-0.318,0.18-0.575,0.334-0.773c0.154-0.195,0.38-0.346,0.673-0.452c0.293-0.105,0.634-0.158,1.02-0.158
			c0.385,0,0.695,0.046,0.937,0.134c0.24,0.092,0.417,0.205,0.528,0.344c0.112,0.138,0.191,0.31,0.237,0.52
			c0.026,0.13,0.038,0.362,0.038,0.704v1.016c0,0.709,0.017,1.155,0.048,1.346c0.033,0.188,0.098,0.365,0.194,0.539h-0.796
			C75.197,104.149,75.146,103.964,75.124,103.751z M75.058,102.05c-0.275,0.113-0.689,0.208-1.244,0.288
			c-0.312,0.047-0.535,0.097-0.665,0.152c-0.129,0.056-0.23,0.14-0.302,0.246c-0.07,0.109-0.104,0.229-0.104,0.363
			c0,0.201,0.077,0.373,0.23,0.508c0.152,0.137,0.379,0.202,0.676,0.202c0.293,0,0.555-0.062,0.781-0.191
			c0.229-0.128,0.396-0.306,0.504-0.528c0.082-0.172,0.123-0.426,0.123-0.762L75.058,102.05L75.058,102.05z"/>
		<path d="M77.003,104.307v-4.496h0.688v0.683c0.175-0.318,0.336-0.528,0.484-0.632c0.146-0.103,0.312-0.15,0.487-0.15
			c0.257,0,0.52,0.082,0.784,0.244l-0.265,0.707c-0.187-0.109-0.372-0.164-0.559-0.164c-0.167,0-0.315,0.05-0.448,0.149
			c-0.133,0.102-0.229,0.237-0.284,0.418c-0.084,0.271-0.127,0.564-0.127,0.891v2.354h-0.763L77.003,104.307L77.003,104.307z"/>
		<path d="M79.883,104.307v-6.206h0.763v6.206H79.883z"/>
		<path d="M81.792,106.039l-0.085-0.716c0.167,0.046,0.312,0.066,0.438,0.066c0.169,0,0.305-0.028,0.405-0.085
			c0.103-0.058,0.186-0.136,0.249-0.237c0.049-0.075,0.126-0.267,0.233-0.566c0.014-0.041,0.037-0.104,0.067-0.187l-1.705-4.505
			h0.819l0.937,2.604c0.122,0.331,0.229,0.677,0.325,1.041c0.09-0.35,0.192-0.69,0.313-1.024l0.96-2.62h0.764l-1.71,4.572
			c-0.185,0.492-0.327,0.833-0.428,1.021c-0.136,0.253-0.292,0.437-0.467,0.553c-0.176,0.118-0.384,0.176-0.625,0.176
			C82.135,106.133,81.971,106.1,81.792,106.039z"/>
		<path d="M88.287,102.059c0-0.832,0.229-1.448,0.694-1.85c0.386-0.335,0.855-0.5,1.415-0.5c0.616,0,1.123,0.203,1.515,0.605
			c0.394,0.406,0.588,0.966,0.588,1.682c0,0.578-0.087,1.032-0.26,1.363c-0.173,0.332-0.425,0.591-0.758,0.772
			c-0.332,0.184-0.693,0.274-1.085,0.274c-0.631,0-1.141-0.201-1.527-0.605C88.48,103.401,88.287,102.82,88.287,102.059z
			 M89.07,102.059c0,0.575,0.126,1.008,0.377,1.294s0.566,0.431,0.949,0.431c0.377,0,0.69-0.145,0.942-0.433
			c0.25-0.288,0.376-0.729,0.376-1.316c0-0.557-0.128-0.978-0.378-1.264c-0.254-0.287-0.565-0.431-0.94-0.431
			c-0.383,0-0.698,0.144-0.949,0.429S89.07,101.483,89.07,102.059z"/>
		<path d="M96.339,104.307v-0.661c-0.35,0.508-0.825,0.763-1.427,0.763c-0.266,0-0.513-0.052-0.744-0.151
			c-0.229-0.104-0.4-0.229-0.512-0.382c-0.112-0.152-0.19-0.346-0.235-0.564c-0.031-0.149-0.046-0.389-0.046-0.711v-2.785h0.763
			v2.492c0,0.397,0.016,0.668,0.046,0.806c0.05,0.199,0.149,0.355,0.306,0.474c0.154,0.113,0.348,0.17,0.576,0.17
			c0.228,0,0.441-0.058,0.644-0.176c0.2-0.117,0.342-0.275,0.425-0.479c0.083-0.201,0.124-0.494,0.124-0.878v-2.41h0.766v4.496
			L96.339,104.307L96.339,104.307z"/>
		<path d="M99.878,103.625l0.11,0.672c-0.215,0.046-0.407,0.068-0.576,0.068c-0.275,0-0.491-0.046-0.646-0.131
			c-0.15-0.089-0.26-0.202-0.32-0.346c-0.062-0.145-0.093-0.443-0.093-0.899v-2.588h-0.561v-0.594h0.561v-1.112l0.758-0.456v1.57
			h0.766v0.593h-0.766v2.632c0,0.216,0.013,0.354,0.04,0.417c0.026,0.062,0.07,0.111,0.132,0.147s0.146,0.058,0.26,0.058
			C99.629,103.656,99.741,103.646,99.878,103.625z"/>
		<path d="M100.606,104.307v-6.206h0.763v6.206H100.606z"/>
		<path d="M102.552,98.976V98.1h0.765v0.876H102.552z M102.552,104.307v-4.496h0.765v4.496H102.552z"/>
		<path d="M104.475,104.307v-4.496h0.688v0.641c0.329-0.495,0.807-0.742,1.432-0.742c0.271,0,0.521,0.05,0.746,0.146
			c0.229,0.099,0.397,0.227,0.511,0.382c0.112,0.157,0.19,0.348,0.235,0.563c0.028,0.141,0.042,0.388,0.042,0.74v2.766h-0.763
			v-2.733c0-0.312-0.029-0.545-0.089-0.697c-0.062-0.152-0.165-0.275-0.316-0.368c-0.15-0.092-0.328-0.136-0.53-0.136
			c-0.324,0-0.604,0.103-0.841,0.309c-0.235,0.206-0.354,0.599-0.354,1.173v2.456L104.475,104.307L104.475,104.307z"/>
		<path d="M112.377,102.861l0.787,0.096c-0.125,0.46-0.354,0.817-0.689,1.071c-0.336,0.255-0.765,0.383-1.286,0.383
			c-0.658,0-1.181-0.201-1.564-0.605c-0.385-0.406-0.578-0.975-0.578-1.705c0-0.758,0.194-1.344,0.584-1.762
			c0.391-0.417,0.896-0.627,1.517-0.627c0.602,0,1.093,0.205,1.473,0.613c0.382,0.408,0.572,0.984,0.572,1.727
			c0,0.048,0,0.113-0.004,0.203h-3.354c0.027,0.494,0.167,0.873,0.419,1.137c0.25,0.262,0.563,0.395,0.939,0.395
			c0.279,0,0.519-0.073,0.716-0.223C112.105,103.414,112.26,103.181,112.377,102.861z M109.874,101.626h2.51
			c-0.033-0.379-0.129-0.661-0.287-0.854c-0.241-0.293-0.559-0.438-0.943-0.438c-0.351,0-0.646,0.117-0.883,0.354
			C110.032,100.922,109.901,101.234,109.874,101.626z"/>
		<path d="M117.038,104.307v-0.566c-0.285,0.445-0.704,0.67-1.258,0.67c-0.358,0-0.688-0.1-0.989-0.298
			c-0.3-0.196-0.533-0.472-0.697-0.827c-0.165-0.354-0.248-0.761-0.248-1.222c0-0.447,0.074-0.854,0.226-1.221
			c0.147-0.364,0.374-0.646,0.672-0.841c0.298-0.194,0.633-0.291,1.003-0.291c0.271,0,0.513,0.057,0.726,0.17
			c0.211,0.114,0.384,0.266,0.517,0.447V98.1h0.759v6.208L117.038,104.307L117.038,104.307L117.038,104.307z M114.63,102.063
			c0,0.576,0.121,1.005,0.364,1.29c0.243,0.286,0.529,0.429,0.86,0.429c0.333,0,0.613-0.138,0.849-0.409
			c0.234-0.271,0.351-0.688,0.351-1.246c0-0.615-0.119-1.067-0.355-1.355c-0.237-0.288-0.529-0.433-0.876-0.433
			c-0.339,0-0.622,0.14-0.851,0.416C114.743,101.031,114.63,101.468,114.63,102.063z"/>
	</g>
	<g>
		<path d="M193.774,104.307v-6.206h4.487v0.73h-3.666v1.901h3.436v0.729h-3.436v2.112h3.811v0.731L193.774,104.307L193.774,104.307z
			"/>
		<path d="M202.36,104.307v-0.566c-0.284,0.445-0.704,0.67-1.258,0.67c-0.357,0-0.688-0.1-0.988-0.298
			c-0.301-0.196-0.532-0.472-0.699-0.827c-0.163-0.354-0.247-0.761-0.247-1.222c0-0.447,0.075-0.854,0.225-1.221
			c0.148-0.364,0.375-0.646,0.674-0.841c0.3-0.194,0.634-0.291,1.002-0.291c0.271,0,0.514,0.057,0.725,0.17
			c0.213,0.114,0.385,0.266,0.52,0.447V98.1h0.758v6.208h-0.706v-0.001H202.36z M199.95,102.063c0,0.576,0.122,1.005,0.364,1.29
			c0.24,0.286,0.526,0.429,0.856,0.429c0.333,0,0.617-0.138,0.852-0.409c0.231-0.271,0.349-0.688,0.349-1.246
			c0-0.615-0.117-1.067-0.354-1.355c-0.234-0.288-0.528-0.433-0.877-0.433c-0.337,0-0.619,0.14-0.85,0.416
			C200.063,101.031,199.95,101.468,199.95,102.063z"/>
		<path d="M204.125,104.68l0.741,0.109c0.031,0.229,0.116,0.396,0.258,0.498c0.189,0.143,0.448,0.213,0.775,0.213
			c0.353,0,0.626-0.07,0.816-0.213c0.192-0.141,0.322-0.338,0.392-0.593c0.039-0.155,0.057-0.479,0.055-0.979
			c-0.332,0.394-0.747,0.59-1.245,0.59c-0.617,0-1.096-0.225-1.436-0.671s-0.511-0.979-0.511-1.604c0-0.431,0.078-0.824,0.233-1.188
			c0.156-0.362,0.381-0.643,0.674-0.841c0.297-0.198,0.645-0.296,1.04-0.296c0.531,0,0.969,0.215,1.312,0.644v-0.542h0.703v3.888
			c0,0.7-0.07,1.196-0.213,1.487c-0.145,0.292-0.37,0.522-0.678,0.691c-0.311,0.169-0.688,0.254-1.143,0.254
			c-0.536,0-0.971-0.121-1.3-0.36C204.275,105.528,204.113,105.164,204.125,104.68z M204.756,101.979
			c0,0.59,0.117,1.021,0.354,1.292c0.231,0.271,0.527,0.405,0.88,0.405c0.351,0,0.644-0.135,0.88-0.403
			c0.237-0.271,0.354-0.691,0.354-1.27c0-0.55-0.12-0.965-0.364-1.244c-0.244-0.278-0.539-0.419-0.884-0.419
			c-0.339,0-0.627,0.139-0.863,0.414C204.875,101.028,204.756,101.437,204.756,101.979z"/>
		<path d="M212.166,102.861l0.786,0.096c-0.125,0.46-0.354,0.817-0.689,1.071c-0.335,0.255-0.764,0.383-1.286,0.383
			c-0.658,0-1.183-0.201-1.564-0.605c-0.385-0.406-0.577-0.975-0.577-1.705c0-0.758,0.194-1.344,0.585-1.762
			c0.389-0.417,0.895-0.627,1.515-0.627c0.602,0,1.094,0.205,1.475,0.613c0.382,0.408,0.573,0.984,0.573,1.727
			c0,0.048-0.002,0.113-0.008,0.203h-3.354c0.028,0.494,0.166,0.873,0.419,1.137c0.25,0.262,0.564,0.395,0.938,0.395
			c0.278,0,0.519-0.073,0.717-0.223C211.892,103.414,212.049,103.181,212.166,102.861z M209.663,101.626h2.511
			c-0.033-0.379-0.13-0.661-0.287-0.854c-0.241-0.293-0.559-0.438-0.943-0.438c-0.352,0-0.646,0.117-0.884,0.354
			C209.821,100.922,209.689,101.234,209.663,101.626z"/>
		<path d="M216.036,102.059c0-0.832,0.23-1.448,0.693-1.85c0.387-0.335,0.856-0.5,1.415-0.5c0.615,0,1.122,0.203,1.515,0.605
			c0.395,0.406,0.588,0.966,0.588,1.682c0,0.578-0.086,1.032-0.26,1.363c-0.173,0.332-0.425,0.591-0.758,0.772
			c-0.331,0.184-0.693,0.274-1.085,0.274c-0.631,0-1.141-0.201-1.527-0.605C216.229,103.401,216.036,102.82,216.036,102.059z
			 M216.819,102.059c0,0.575,0.126,1.008,0.377,1.294s0.566,0.431,0.947,0.431c0.38,0,0.691-0.145,0.942-0.433
			c0.252-0.288,0.377-0.729,0.377-1.316c0-0.557-0.127-0.978-0.379-1.264c-0.252-0.287-0.563-0.431-0.94-0.431
			c-0.382,0-0.697,0.144-0.947,0.429C216.945,101.054,216.819,101.483,216.819,102.059z"/>
		<path d="M221.323,104.307v-3.903h-0.674v-0.593h0.674v-0.479c0-0.302,0.026-0.526,0.08-0.674c0.072-0.197,0.202-0.357,0.387-0.479
			c0.187-0.125,0.445-0.186,0.777-0.186c0.215,0,0.45,0.023,0.711,0.074l-0.114,0.665c-0.159-0.026-0.309-0.041-0.449-0.041
			c-0.229,0-0.396,0.05-0.491,0.147c-0.096,0.1-0.146,0.282-0.146,0.555v0.416h0.878v0.593h-0.878v3.903h-0.757v-0.002h0.002
			V104.307L221.323,104.307z"/>
		<path d="M228.875,104.307v-0.566c-0.284,0.445-0.704,0.67-1.257,0.67c-0.357,0-0.688-0.1-0.989-0.298
			c-0.3-0.196-0.531-0.472-0.698-0.827c-0.164-0.354-0.247-0.761-0.247-1.222c0-0.447,0.074-0.854,0.226-1.221
			c0.148-0.364,0.373-0.646,0.672-0.841c0.301-0.194,0.636-0.291,1.004-0.291c0.271,0,0.513,0.057,0.725,0.17
			c0.214,0.114,0.386,0.266,0.518,0.447V98.1h0.758v6.208h-0.706v-0.001H228.875z M226.467,102.063c0,0.576,0.121,1.005,0.365,1.29
			c0.242,0.286,0.528,0.429,0.858,0.429c0.333,0,0.615-0.138,0.85-0.409s0.35-0.688,0.35-1.246c0-0.615-0.118-1.067-0.354-1.355
			c-0.237-0.288-0.528-0.433-0.877-0.433c-0.339,0-0.621,0.14-0.85,0.416C226.579,101.031,226.467,101.468,226.467,102.063z"/>
		<path d="M230.773,104.307v-4.496h0.687v0.683c0.174-0.318,0.337-0.528,0.485-0.632c0.146-0.103,0.311-0.15,0.487-0.15
			c0.258,0,0.52,0.082,0.782,0.244l-0.264,0.707c-0.187-0.109-0.371-0.164-0.557-0.164c-0.167,0-0.317,0.05-0.451,0.149
			c-0.132,0.102-0.229,0.237-0.284,0.418c-0.085,0.271-0.128,0.564-0.128,0.891v2.354h-0.76L230.773,104.307L230.773,104.307z"/>
		<path d="M233.385,102.059c0-0.832,0.229-1.448,0.692-1.85c0.385-0.335,0.855-0.5,1.415-0.5c0.616,0,1.123,0.203,1.514,0.605
			c0.396,0.406,0.59,0.966,0.59,1.682c0,0.578-0.089,1.032-0.262,1.363c-0.172,0.332-0.424,0.591-0.757,0.772
			c-0.332,0.184-0.692,0.274-1.085,0.274c-0.631,0-1.139-0.201-1.527-0.605C233.58,103.401,233.385,102.82,233.385,102.059z
			 M234.169,102.059c0,0.575,0.125,1.008,0.377,1.294c0.251,0.286,0.567,0.431,0.948,0.431c0.379,0,0.693-0.145,0.943-0.433
			c0.253-0.288,0.379-0.729,0.379-1.316c0-0.557-0.128-0.978-0.38-1.264c-0.254-0.287-0.565-0.431-0.942-0.431
			c-0.381,0-0.697,0.144-0.948,0.429C234.294,101.054,234.169,101.483,234.169,102.059z"/>
		<path d="M238.492,106.031v-6.221h0.692v0.583c0.164-0.229,0.349-0.397,0.557-0.514c0.205-0.113,0.455-0.171,0.748-0.171
			c0.384,0,0.723,0.099,1.017,0.295c0.294,0.198,0.517,0.479,0.665,0.837c0.149,0.359,0.226,0.753,0.226,1.184
			c0,0.459-0.082,0.875-0.247,1.243c-0.164,0.367-0.405,0.649-0.722,0.848c-0.312,0.195-0.646,0.293-0.992,0.293
			c-0.254,0-0.481-0.054-0.686-0.16c-0.2-0.106-0.367-0.242-0.496-0.407v2.188L238.492,106.031L238.492,106.031z M239.181,102.084
			c0,0.578,0.115,1.006,0.353,1.284c0.233,0.274,0.519,0.416,0.852,0.416c0.339,0,0.629-0.145,0.869-0.433
			c0.241-0.286,0.362-0.729,0.362-1.329c0-0.574-0.118-1.003-0.354-1.289c-0.236-0.285-0.52-0.426-0.847-0.426
			c-0.325,0-0.611,0.15-0.86,0.455C239.306,101.066,239.181,101.505,239.181,102.084z"/>
		<path d="M243.297,104.307v-6.206h0.763v6.206H243.297z"/>
		<path d="M248.319,102.861l0.787,0.096c-0.124,0.46-0.354,0.817-0.69,1.071c-0.336,0.255-0.766,0.383-1.287,0.383
			c-0.656,0-1.18-0.201-1.562-0.605c-0.386-0.406-0.578-0.975-0.578-1.705c0-0.758,0.193-1.344,0.583-1.762
			c0.391-0.417,0.896-0.627,1.518-0.627c0.602,0,1.092,0.205,1.475,0.613c0.382,0.408,0.568,0.984,0.568,1.727
			c0,0.048-0.001,0.113-0.003,0.203h-3.354c0.028,0.494,0.168,0.873,0.419,1.137c0.25,0.261,0.562,0.395,0.938,0.395
			c0.28,0,0.521-0.073,0.717-0.223C248.045,103.414,248.202,103.181,248.319,102.861z M245.816,101.626h2.511
			c-0.034-0.379-0.129-0.661-0.288-0.854c-0.241-0.293-0.557-0.438-0.943-0.438c-0.35,0-0.644,0.117-0.882,0.354
			C245.972,100.922,245.841,101.234,245.816,101.626z"/>
		<path d="M251.725,103.625l0.109,0.672c-0.215,0.046-0.406,0.068-0.576,0.068c-0.274,0-0.489-0.046-0.643-0.131
			c-0.151-0.089-0.259-0.202-0.322-0.346c-0.062-0.145-0.092-0.443-0.092-0.899v-2.588h-0.562v-0.594h0.562v-1.112l0.757-0.456v1.57
			h0.768v0.593h-0.768v2.632c0,0.216,0.015,0.354,0.041,0.417c0.025,0.062,0.069,0.111,0.129,0.147
			c0.062,0.036,0.148,0.058,0.262,0.058C251.477,103.656,251.589,103.646,251.725,103.625z"/>
		<path d="M254.88,104.307v-4.496h0.688v0.641c0.328-0.495,0.806-0.742,1.43-0.742c0.272,0,0.521,0.05,0.748,0.146
			c0.228,0.099,0.396,0.227,0.51,0.382c0.112,0.157,0.192,0.348,0.235,0.563c0.028,0.141,0.042,0.388,0.042,0.74v2.766h-0.762
			v-2.733c0-0.312-0.028-0.545-0.089-0.697c-0.062-0.152-0.164-0.275-0.314-0.368c-0.152-0.092-0.327-0.136-0.53-0.136
			c-0.325,0-0.604,0.103-0.841,0.309c-0.236,0.206-0.354,0.599-0.354,1.173v2.456L254.88,104.307L254.88,104.307z"/>
		<path d="M259.419,102.059c0-0.832,0.23-1.448,0.693-1.85c0.388-0.335,0.855-0.5,1.415-0.5c0.617,0,1.123,0.203,1.516,0.605
			c0.393,0.406,0.588,0.966,0.588,1.682c0,0.578-0.087,1.032-0.261,1.363c-0.173,0.332-0.425,0.591-0.757,0.772
			c-0.332,0.184-0.694,0.274-1.086,0.274c-0.631,0-1.14-0.201-1.527-0.605C259.613,103.401,259.419,102.82,259.419,102.059z
			 M260.203,102.059c0,0.575,0.124,1.008,0.377,1.294c0.25,0.286,0.565,0.431,0.947,0.431c0.379,0,0.691-0.145,0.943-0.433
			c0.251-0.288,0.377-0.729,0.377-1.316c0-0.557-0.126-0.978-0.379-1.264c-0.255-0.287-0.564-0.431-0.941-0.431
			c-0.382,0-0.697,0.144-0.947,0.429C260.327,101.054,260.203,101.483,260.203,102.059z"/>
		<path d="M266.19,103.625l0.106,0.672c-0.215,0.046-0.404,0.068-0.575,0.068c-0.274,0-0.489-0.046-0.644-0.131
			c-0.153-0.089-0.261-0.202-0.322-0.346c-0.062-0.145-0.092-0.443-0.092-0.899v-2.588h-0.561v-0.594h0.561v-1.112l0.757-0.456v1.57
			h0.768v0.593h-0.768v2.632c0,0.216,0.016,0.354,0.039,0.417c0.027,0.062,0.072,0.111,0.132,0.147
			c0.062,0.036,0.148,0.058,0.263,0.058C265.939,103.656,266.051,103.646,266.19,103.625z"/>
		<path d="M272.278,102.66l0.748,0.096c-0.082,0.52-0.291,0.923-0.627,1.215c-0.34,0.293-0.752,0.438-1.244,0.438
			c-0.615,0-1.109-0.199-1.483-0.603c-0.375-0.401-0.562-0.979-0.562-1.729c0-0.486,0.08-0.91,0.239-1.272
			c0.161-0.365,0.405-0.639,0.734-0.82c0.329-0.181,0.688-0.271,1.073-0.271c0.486,0,0.889,0.123,1.198,0.37
			c0.311,0.247,0.51,0.599,0.597,1.052l-0.741,0.114c-0.069-0.302-0.195-0.527-0.375-0.682c-0.179-0.153-0.396-0.229-0.647-0.229
			c-0.386,0-0.697,0.139-0.938,0.414c-0.24,0.273-0.359,0.709-0.359,1.307c0,0.604,0.115,1.043,0.348,1.316
			c0.229,0.271,0.533,0.411,0.905,0.411c0.301,0,0.55-0.091,0.749-0.274C272.096,103.323,272.222,103.041,272.278,102.66z"/>
		<path d="M273.661,104.307v-6.206h0.762v6.206H273.661z"/>
		<path d="M278.682,102.861l0.787,0.096c-0.124,0.46-0.354,0.817-0.689,1.071c-0.335,0.255-0.766,0.383-1.286,0.383
			c-0.658,0-1.18-0.201-1.564-0.605c-0.386-0.406-0.577-0.975-0.577-1.705c0-0.758,0.193-1.344,0.583-1.762
			c0.391-0.417,0.896-0.627,1.516-0.627c0.603,0,1.095,0.205,1.473,0.613c0.383,0.408,0.573,0.984,0.573,1.727
			c0,0.048-0.002,0.113-0.005,0.203h-3.354c0.026,0.494,0.167,0.873,0.419,1.137c0.251,0.262,0.563,0.395,0.938,0.395
			c0.279,0,0.519-0.073,0.716-0.223C278.41,103.414,278.567,103.181,278.682,102.861z M276.18,101.626h2.513
			c-0.033-0.379-0.131-0.661-0.288-0.854c-0.243-0.293-0.56-0.438-0.943-0.438c-0.35,0-0.645,0.117-0.884,0.354
			C276.337,100.922,276.206,101.234,276.18,101.626z"/>
		<path d="M283.362,103.751c-0.281,0.24-0.555,0.411-0.814,0.51c-0.263,0.099-0.542,0.146-0.843,0.146
			c-0.492,0-0.872-0.119-1.138-0.361c-0.269-0.239-0.397-0.55-0.397-0.925c0-0.222,0.052-0.422,0.149-0.604
			c0.1-0.182,0.23-0.327,0.395-0.438c0.162-0.108,0.345-0.194,0.548-0.25c0.149-0.04,0.377-0.077,0.678-0.114
			c0.614-0.072,1.066-0.159,1.358-0.263c0.001-0.104,0.003-0.171,0.003-0.199c0-0.31-0.069-0.527-0.217-0.655
			c-0.193-0.174-0.482-0.261-0.867-0.261c-0.355,0-0.624,0.062-0.794,0.188c-0.171,0.126-0.297,0.349-0.379,0.667l-0.746-0.102
			c0.068-0.318,0.182-0.575,0.334-0.773c0.156-0.195,0.381-0.346,0.674-0.452c0.295-0.105,0.636-0.158,1.021-0.158
			c0.382,0,0.695,0.046,0.937,0.134c0.237,0.092,0.416,0.205,0.527,0.344c0.112,0.138,0.191,0.31,0.237,0.52
			c0.021,0.13,0.037,0.362,0.037,0.704v1.016c0,0.709,0.017,1.155,0.05,1.346c0.032,0.188,0.095,0.365,0.191,0.539h-0.797
			C283.434,104.149,283.384,103.964,283.362,103.751z M283.298,102.05c-0.273,0.113-0.689,0.208-1.244,0.288
			c-0.312,0.047-0.533,0.097-0.665,0.152c-0.131,0.056-0.229,0.14-0.303,0.246c-0.069,0.109-0.104,0.229-0.104,0.363
			c0,0.201,0.076,0.373,0.229,0.508c0.155,0.137,0.38,0.202,0.676,0.202c0.293,0,0.557-0.062,0.781-0.191
			c0.23-0.128,0.397-0.306,0.505-0.528c0.082-0.172,0.123-0.426,0.123-0.762L283.298,102.05L283.298,102.05z"/>
		<path d="M285.241,104.307v-4.496h0.687v0.683c0.175-0.318,0.337-0.528,0.484-0.632c0.147-0.103,0.312-0.15,0.489-0.15
			c0.258,0,0.519,0.082,0.781,0.244l-0.264,0.707c-0.186-0.109-0.373-0.164-0.559-0.164c-0.167,0-0.315,0.05-0.45,0.149
			c-0.131,0.102-0.228,0.237-0.283,0.418c-0.085,0.271-0.127,0.564-0.127,0.891v2.354h-0.761L285.241,104.307L285.241,104.307z"/>
		<path d="M288.12,104.307v-6.206h0.762v6.206H288.12z"/>
		<path d="M290.029,106.039l-0.086-0.716c0.168,0.046,0.312,0.066,0.437,0.066c0.171,0,0.308-0.028,0.407-0.085
			c0.102-0.058,0.188-0.136,0.251-0.237c0.048-0.075,0.126-0.267,0.231-0.566c0.016-0.041,0.037-0.104,0.066-0.187l-1.706-4.505
			h0.82l0.937,2.604c0.121,0.331,0.23,0.677,0.326,1.041c0.087-0.35,0.19-0.69,0.312-1.024l0.963-2.62h0.763l-1.712,4.572
			c-0.183,0.492-0.325,0.833-0.428,1.021c-0.135,0.253-0.29,0.437-0.465,0.553c-0.175,0.118-0.385,0.176-0.628,0.176
			C290.373,106.133,290.21,106.1,290.029,106.039z"/>
		<path d="M296.525,102.059c0-0.832,0.23-1.448,0.694-1.85c0.387-0.335,0.856-0.5,1.412-0.5c0.617,0,1.123,0.203,1.518,0.605
			c0.392,0.406,0.588,0.966,0.588,1.682c0,0.578-0.087,1.032-0.259,1.363c-0.175,0.332-0.429,0.591-0.761,0.772
			c-0.33,0.184-0.691,0.274-1.086,0.274c-0.629,0-1.139-0.201-1.525-0.605C296.719,103.401,296.525,102.82,296.525,102.059z
			 M297.306,102.059c0,0.575,0.128,1.008,0.38,1.294c0.25,0.286,0.563,0.431,0.945,0.431c0.38,0,0.692-0.145,0.944-0.433
			c0.251-0.288,0.377-0.729,0.377-1.316c0-0.557-0.126-0.978-0.379-1.264c-0.254-0.287-0.564-0.431-0.942-0.431
			c-0.382,0-0.695,0.144-0.945,0.429C297.434,101.054,297.306,101.483,297.306,102.059z"/>
		<path d="M304.576,104.307v-0.661c-0.35,0.508-0.824,0.763-1.427,0.763c-0.268,0-0.515-0.052-0.743-0.151
			c-0.231-0.104-0.4-0.229-0.513-0.382c-0.11-0.152-0.19-0.346-0.235-0.564c-0.032-0.149-0.048-0.389-0.048-0.711v-2.785h0.764
			v2.492c0,0.397,0.017,0.668,0.046,0.806c0.051,0.199,0.15,0.355,0.308,0.474c0.153,0.113,0.348,0.17,0.575,0.17
			c0.229,0,0.442-0.058,0.644-0.176c0.199-0.117,0.343-0.275,0.424-0.479c0.084-0.201,0.127-0.494,0.127-0.878v-2.41h0.763v4.496
			L304.576,104.307L304.576,104.307z"/>
		<path d="M308.116,103.625l0.108,0.672c-0.216,0.046-0.404,0.068-0.575,0.068c-0.276,0-0.491-0.046-0.645-0.131
			c-0.149-0.089-0.259-0.202-0.32-0.346c-0.062-0.145-0.094-0.443-0.094-0.899v-2.588h-0.559v-0.594h0.559v-1.112l0.761-0.456v1.57
			h0.765v0.593h-0.765v2.632c0,0.216,0.014,0.354,0.038,0.417c0.026,0.062,0.07,0.111,0.132,0.147
			c0.06,0.036,0.146,0.058,0.261,0.058C307.866,103.656,307.979,103.646,308.116,103.625z"/>
		<path d="M308.844,104.307v-6.206h0.763v6.206H308.844z"/>
		<path d="M310.793,98.976V98.1h0.763v0.876H310.793z M310.793,104.307v-4.496h0.763v4.496H310.793z"/>
		<path d="M312.715,104.307v-4.496h0.688v0.641c0.331-0.495,0.808-0.742,1.432-0.742c0.271,0,0.521,0.05,0.747,0.146
			c0.228,0.099,0.396,0.227,0.509,0.382c0.113,0.157,0.193,0.348,0.237,0.563c0.027,0.141,0.043,0.388,0.043,0.74v2.766h-0.763
			v-2.733c0-0.312-0.03-0.545-0.091-0.697c-0.059-0.152-0.163-0.275-0.312-0.368c-0.151-0.092-0.329-0.136-0.532-0.136
			c-0.322,0-0.604,0.103-0.84,0.309c-0.234,0.206-0.354,0.599-0.354,1.173v2.456L312.715,104.307L312.715,104.307z"/>
		<path d="M320.615,102.861l0.786,0.096c-0.125,0.46-0.354,0.817-0.69,1.071c-0.336,0.255-0.764,0.383-1.287,0.383
			c-0.656,0-1.18-0.201-1.562-0.605c-0.386-0.406-0.578-0.975-0.578-1.705c0-0.758,0.194-1.344,0.583-1.762
			c0.391-0.417,0.896-0.627,1.518-0.627c0.602,0,1.091,0.205,1.474,0.613c0.382,0.408,0.57,0.984,0.57,1.727
			c0,0.048-0.002,0.113-0.003,0.203h-3.354c0.026,0.494,0.167,0.873,0.417,1.137c0.253,0.262,0.565,0.395,0.94,0.395
			c0.278,0,0.518-0.073,0.717-0.223C320.344,103.414,320.499,103.181,320.615,102.861z M318.113,101.626h2.511
			c-0.034-0.379-0.13-0.661-0.288-0.854c-0.241-0.293-0.558-0.438-0.943-0.438c-0.351,0-0.646,0.117-0.883,0.354
			C318.27,100.922,318.138,101.234,318.113,101.626z"/>
		<path d="M325.276,104.307v-0.566c-0.285,0.445-0.704,0.67-1.256,0.67c-0.36,0-0.689-0.1-0.991-0.298
			c-0.3-0.196-0.531-0.472-0.696-0.827c-0.166-0.354-0.249-0.761-0.249-1.222c0-0.447,0.075-0.854,0.226-1.221
			c0.149-0.364,0.375-0.646,0.675-0.841c0.298-0.194,0.632-0.291,1.002-0.291c0.271,0,0.513,0.057,0.725,0.17
			c0.211,0.114,0.384,0.266,0.518,0.447V98.1h0.759v6.208h-0.707v-0.001H325.276z M322.867,102.063c0,0.576,0.122,1.005,0.364,1.29
			c0.241,0.286,0.527,0.429,0.857,0.429c0.334,0,0.615-0.138,0.851-0.409c0.232-0.271,0.35-0.688,0.35-1.246
			c0-0.615-0.119-1.067-0.354-1.355c-0.237-0.288-0.528-0.433-0.876-0.433c-0.341,0-0.622,0.14-0.853,0.416
			C322.982,101.031,322.867,101.468,322.867,102.063z"/>
	</g>
	<g>
		<path stroke="#000000" stroke-width="0.216" stroke-miterlimit="10" d="M45.871,6.854c1.131,0,2.074-0.941,2.074-2.073
			s-0.943-2.073-2.074-2.073s-2.073,0.941-2.073,2.073C43.798,5.911,44.74,6.854,45.871,6.854z"/>
		<path stroke="#000000" stroke-width="0.216" stroke-miterlimit="10" d="M50.207,5.597c1.131,0,2.073-0.941,2.073-2.073
			c0-1.131-0.942-2.073-2.073-2.073s-2.074,0.942-2.074,2.073C48.133,4.656,49.076,5.597,50.207,5.597z"/>
		<path stroke="#000000" stroke-width="0.216" stroke-miterlimit="10" d="M54.04,4.34c1.131,0,2.073-0.88,2.073-2.011
			c0-1.193-0.942-2.074-2.073-2.074s-2.074,0.88-2.074,2.074C51.966,3.46,52.908,4.34,54.04,4.34z"/>
		<path stroke="#000000" stroke-width="0.216" stroke-miterlimit="10" d="M58.375,4.529c1.131,0,2.074-0.94,2.074-2.072
			c0-1.131-0.942-2.073-2.074-2.073c-1.131,0-2.072,0.942-2.072,2.073C56.301,3.587,57.244,4.529,58.375,4.529z"/>
		<path stroke="#000000" stroke-width="0.216" stroke-miterlimit="10" d="M62.773,3.587c1.131,0,2.011-0.942,2.011-2.073
			c0-1.132-0.879-2.073-2.011-2.073c-1.194,0-2.074,0.941-2.074,2.073C60.699,2.645,61.579,3.587,62.773,3.587z"/>
		<path stroke="#000000" stroke-width="0.216" stroke-miterlimit="10" d="M71.067,5.597c1.131,0,2.073-0.88,2.073-2.011
			c0-1.193-0.941-2.072-2.073-2.072s-2.073,0.879-2.073,2.072C68.994,4.718,69.936,5.597,71.067,5.597z"/>
		<path stroke="#000000" stroke-width="0.216" stroke-miterlimit="10" d="M76.595,9.179c1.132,0,2.073-0.88,2.073-2.073
			c0-1.131-0.941-2.012-2.073-2.012s-2.072,0.88-2.072,2.012C74.523,8.299,75.466,9.179,76.595,9.179z"/>
		<path stroke="#000000" stroke-width="0.216" stroke-miterlimit="10" d="M80.931,14.33c1.132,0,2.072-0.941,2.072-2.073
			s-0.94-2.073-2.072-2.073s-2.073,0.941-2.073,2.073S79.801,14.33,80.931,14.33z"/>
		<path stroke="#000000" stroke-width="0.216" stroke-miterlimit="10" d="M86.147,19.987c1.131,0,2.073-0.942,2.073-2.073
			c0-1.132-0.942-2.074-2.073-2.074s-2.073,0.942-2.073,2.074C84.074,19.043,85.015,19.987,86.147,19.987z"/>
		<path stroke="#000000" stroke-width="0.216" stroke-miterlimit="10" d="M88.284,24.07c1.13,0,2.009-0.941,2.009-2.072
			s-0.879-2.073-2.009-2.073c-1.195,0-2.074,0.942-2.074,2.073S87.089,24.07,88.284,24.07z"/>
		<path stroke="#000000" stroke-width="0.216" stroke-miterlimit="10" d="M90.357,28.156c1.131,0,2.073-0.942,2.073-2.074
			c0-1.131-0.942-2.073-2.073-2.073c-1.132,0-2.073,0.942-2.073,2.073S89.225,28.156,90.357,28.156z"/>
		<path stroke="#000000" stroke-width="0.216" stroke-miterlimit="10" d="M94.693,35.318c1.13,0,2.072-0.88,2.072-2.073
			c0-1.132-0.942-2.012-2.072-2.012c-1.132,0-2.074,0.88-2.074,2.012C92.618,34.438,93.561,35.318,94.693,35.318z"/>
		<path stroke="#000000" stroke-width="0.216" stroke-miterlimit="10" d="M96.137,42.668c1.13,0,2.072-0.879,2.072-2.01
			c0-1.194-0.942-2.074-2.072-2.074c-1.133,0-2.073,0.879-2.073,2.074C94.064,41.788,95.006,42.668,96.137,42.668z"/>
		<path stroke="#000000" stroke-width="0.216" stroke-miterlimit="10" d="M97.897,44.867c1.131,0,2.072-0.88,2.072-2.011
			c0-1.193-0.94-2.073-2.072-2.073c-1.133,0-2.074,0.879-2.074,2.073C95.822,43.99,96.764,44.867,97.897,44.867z"/>
		<path stroke="#000000" stroke-width="0.216" stroke-miterlimit="10" d="M97.582,48.323c1.131,0,2.074-0.942,2.074-2.073
			s-0.942-2.074-2.074-2.074c-1.131,0-2.073,0.943-2.073,2.074S96.451,48.323,97.582,48.323z"/>
		<path stroke="#000000" stroke-width="0.216" stroke-miterlimit="10" d="M95.697,50.333c1.193,0,2.073-0.941,2.073-2.073
			c0-1.131-0.88-2.073-2.073-2.073c-1.131,0-2.011,0.942-2.011,2.073C93.686,49.392,94.567,50.333,95.697,50.333z"/>
		<path stroke="#000000" stroke-width="0.216" stroke-miterlimit="10" d="M95.258,53.727c1.132,0,2.074-0.941,2.074-2.074
			c0-1.131-0.942-2.072-2.074-2.072c-1.131,0-2.071,0.941-2.071,2.072C93.183,52.784,94.127,53.727,95.258,53.727z"/>
		<path stroke="#000000" stroke-width="0.216" stroke-miterlimit="10" d="M92.68,56.616c1.193,0,2.073-0.942,2.073-2.073
			s-0.88-2.074-2.073-2.074c-1.132,0-2.011,0.943-2.011,2.074S91.55,56.616,92.68,56.616z"/>
		<path stroke="#000000" stroke-width="0.216" stroke-miterlimit="10" d="M88.973,62.712c1.133,0,2.073-0.941,2.073-2.071
			c0-1.068-0.94-2.013-2.073-2.013c-1.132,0-2.072,0.942-2.072,2.013C86.902,61.77,87.844,62.712,88.973,62.712z"/>
		<path stroke="#000000" stroke-width="0.216" stroke-miterlimit="10" d="M84.702,67.675c1.131,0,2.074-0.941,2.074-2.071
			c0-1.132-0.943-2.073-2.074-2.073s-2.073,0.941-2.073,2.073C82.629,66.733,83.571,67.675,84.702,67.675z"/>
		<path stroke="#000000" stroke-width="0.216" stroke-miterlimit="10" d="M83.382,69.184c1.133,0,2.074-0.941,2.074-2.072
			c0-1.132-0.941-2.074-2.074-2.074c-1.13,0-2.072,0.942-2.072,2.074C81.308,68.241,82.252,69.184,83.382,69.184z"/>
		<path stroke="#000000" stroke-width="0.216" stroke-miterlimit="10" d="M79.11,68.807c1.131,0,2.073-0.941,2.073-2.074
			c0-1.13-0.942-2.071-2.073-2.071s-2.073,0.941-2.073,2.071C77.036,67.865,77.979,68.807,79.11,68.807z"/>
		<path stroke="#000000" stroke-width="0.216" stroke-miterlimit="10" d="M78.293,72.701c1.131,0,2.074-0.942,2.074-2.072
			c0-1.132-0.943-2.073-2.074-2.073c-1.13,0-2.072,0.941-2.072,2.073C76.219,71.759,77.162,72.701,78.293,72.701z"/>
		<path stroke="#000000" stroke-width="0.216" stroke-miterlimit="10" d="M77.098,74.713c1.132,0,2.072-0.88,2.072-2.072
			c0-1.132-0.94-2.012-2.072-2.012c-1.133,0-2.073,0.88-2.073,2.012C75.025,73.833,75.967,74.713,77.098,74.713z"/>
		<path stroke="#000000" stroke-width="0.216" stroke-miterlimit="10" d="M72.512,76.408c1.13,0,2.071-0.942,2.071-2.072
			c0-1.132-0.941-2.073-2.071-2.073c-1.133,0-2.074,0.941-2.074,2.073C70.438,75.466,71.381,76.408,72.512,76.408z"/>
		<path stroke="#000000" stroke-width="0.216" stroke-miterlimit="10" d="M69.433,76.911c1.132,0,2.072-0.942,2.072-2.072
			c0-1.132-0.94-2.073-2.072-2.073c-1.131,0-2.073,0.941-2.073,2.073C67.36,75.969,68.302,76.911,69.433,76.911z"/>
		<path stroke="#000000" stroke-width="0.216" stroke-miterlimit="10" d="M69.685,78.734c1.131,0,2.011-0.941,2.011-2.071
			c0-1.132-0.879-2.074-2.011-2.074s-2.073,0.942-2.073,2.074C67.612,77.791,68.553,78.734,69.685,78.734z"/>
		<path stroke="#000000" stroke-width="0.216" stroke-miterlimit="10" d="M62.648,78.86c1.131,0,2.073-0.941,2.073-2.071
			c0-1.132-0.942-2.074-2.073-2.074c-1.132,0-2.073,0.942-2.073,2.074C60.574,77.917,61.515,78.86,62.648,78.86z"/>
		<path stroke="#000000" stroke-width="0.216" stroke-miterlimit="10" d="M56.803,77.288c1.193,0,2.073-0.939,2.073-2.072
			c0-1.132-0.879-2.073-2.073-2.073c-1.132,0-2.011,0.941-2.011,2.073C54.794,76.349,55.673,77.288,56.803,77.288z"/>
		<path stroke="#000000" stroke-width="0.216" stroke-miterlimit="10" d="M54.291,78.42c1.131,0,2.074-0.88,2.074-2.012
			c0-1.192-0.943-2.072-2.074-2.072s-2.074,0.88-2.074,2.072C52.217,77.54,53.16,78.42,54.291,78.42z"/>
		<path stroke="#000000" stroke-width="0.216" stroke-miterlimit="10" d="M47.254,77.037c1.132,0,2.074-0.941,2.074-2.072
			c0-1.132-0.942-2.073-2.074-2.073c-1.131,0-2.072,0.941-2.072,2.073C45.179,76.096,46.123,77.037,47.254,77.037z"/>
		<path stroke="#000000" stroke-width="0.216" stroke-miterlimit="10" d="M40.907,72.514c1.193,0,2.074-0.941,2.074-2.074
			c0-1.132-0.879-2.071-2.074-2.071c-1.131,0-2.011,0.939-2.011,2.071C38.896,71.573,39.777,72.514,40.907,72.514z"/>
		<path stroke="#000000" stroke-width="0.216" stroke-miterlimit="10" d="M32.363,68.681c1.131,0,2.073-0.941,2.073-2.072
			c0-1.132-0.942-2.073-2.073-2.073s-2.074,0.941-2.074,2.073C30.289,67.74,31.232,68.681,32.363,68.681z"/>
		<path stroke="#000000" stroke-width="0.216" stroke-miterlimit="10" d="M26.582,65.036c1.131,0,2.01-0.942,2.01-2.074
			c0-1.13-0.879-2.071-2.01-2.071s-2.073,0.941-2.073,2.071C24.509,64.094,25.451,65.036,26.582,65.036z"/>
		<path stroke="#000000" stroke-width="0.216" stroke-miterlimit="10" d="M23.126,58.69c1.193,0,2.073-0.94,2.073-2.072
			s-0.88-2.073-2.073-2.073c-1.131,0-2.011,0.941-2.011,2.073C21.115,57.748,21.995,58.69,23.126,58.69z"/>
		<path stroke="#000000" stroke-width="0.216" stroke-miterlimit="10" d="M19.922,53.286c1.132,0,2.074-0.942,2.074-2.073
			s-0.942-2.073-2.074-2.073c-1.131,0-2.073,0.941-2.073,2.073C17.847,52.344,18.79,53.286,19.922,53.286z"/>
		<path stroke="#000000" stroke-width="0.216" stroke-miterlimit="10" d="M23.943,51.906c1.131,0,2.072-0.942,2.072-2.073
			s-0.941-2.074-2.072-2.074s-2.074,0.943-2.074,2.074S22.812,51.906,23.943,51.906z"/>
		<path stroke="#000000" stroke-width="0.216" stroke-miterlimit="10" d="M20.864,48.073c1.131,0,2.073-0.941,2.073-2.073
			c0-1.131-0.942-2.073-2.073-2.073s-2.074,0.942-2.074,2.073S19.733,48.073,20.864,48.073z"/>
		<path stroke="#000000" stroke-width="0.216" stroke-miterlimit="10" d="M24.885,46.816c1.132,0,2.074-0.942,2.074-2.073
			c0-1.132-0.941-2.073-2.074-2.073c-1.131,0-2.071,0.941-2.071,2.073C22.813,45.873,23.754,46.816,24.885,46.816z"/>
		<path stroke="#000000" stroke-width="0.216" stroke-miterlimit="10" d="M21.618,44.554c1.131,0,2.074-0.943,2.074-2.074
			s-0.943-2.072-2.074-2.072s-2.073,0.941-2.073,2.072S20.487,44.554,21.618,44.554z"/>
		<path stroke="#000000" stroke-width="0.216" stroke-miterlimit="10" d="M23.252,42.103c1.131,0,2.011-0.941,2.011-2.072
			c0-1.132-0.88-2.074-2.011-2.074c-1.193,0-2.072,0.942-2.072,2.074C21.179,41.161,22.057,42.103,23.252,42.103z"/>
		<path stroke="#000000" stroke-width="0.216" stroke-miterlimit="10" d="M24.822,39.653c1.131,0,2.073-0.94,2.073-2.072
			c0-1.131-0.942-2.074-2.073-2.074s-2.074,0.943-2.074,2.074C22.749,38.71,23.692,39.653,24.822,39.653z"/>
		<path stroke="#000000" stroke-width="0.216" stroke-miterlimit="10" d="M23.126,36.636c1.131,0,2.073-0.879,2.073-2.01
			c0-1.193-0.942-2.072-2.073-2.072s-2.073,0.879-2.073,2.072C21.052,35.756,21.995,36.636,23.126,36.636z"/>
		<path stroke="#000000" stroke-width="0.216" stroke-miterlimit="10" d="M26.959,33.684c1.131,0,2.074-0.942,2.074-2.074
			c0-1.131-0.942-2.072-2.074-2.072c-1.131,0-2.074,0.941-2.074,2.072C24.885,32.741,25.828,33.684,26.959,33.684z"/>
		<path stroke="#000000" stroke-width="0.216" stroke-miterlimit="10" d="M28.529,29.158c1.131,0,2.074-0.88,2.074-2.074
			c0-1.131-0.943-2.01-2.074-2.01s-2.073,0.879-2.073,2.01C26.456,28.281,27.399,29.158,28.529,29.158z"/>
		<path stroke="#000000" stroke-width="0.216" stroke-miterlimit="10" d="M29.471,26.708c1.132,0,2.073-0.941,2.073-2.074
			c0-1.131-0.94-2.01-2.073-2.01c-1.132,0-2.072,0.879-2.072,2.01C27.399,25.767,28.341,26.708,29.471,26.708z"/>
		<path stroke="#000000" stroke-width="0.216" stroke-miterlimit="10" d="M30.351,24.258c1.132,0,2.072-0.941,2.072-2.072
			c0-1.132-0.94-2.074-2.071-2.074c-1.132,0-2.074,0.942-2.074,2.074C28.278,23.317,29.22,24.258,30.351,24.258z"/>
		<path stroke="#000000" stroke-width="0.216" stroke-miterlimit="10" d="M29.345,21.809c1.132,0,2.072-0.941,2.072-2.073
			c0-1.131-0.94-2.073-2.072-2.073s-2.072,0.942-2.072,2.073C27.273,20.867,28.216,21.809,29.345,21.809z"/>
		<path stroke="#000000" stroke-width="0.216" stroke-miterlimit="10" d="M32.676,17.283c1.132,0,2.073-0.88,2.073-2.073
			c0-1.131-0.941-2.011-2.073-2.011c-1.131,0-2.071,0.88-2.071,2.011C30.603,16.406,31.546,17.283,32.676,17.283z"/>
		<path stroke="#000000" stroke-width="0.216" stroke-miterlimit="10" d="M34.247,19.671c1.131,0,2.074-0.941,2.074-2.073
			s-0.942-2.073-2.074-2.073c-1.131,0-2.074,0.941-2.074,2.073C32.174,18.73,33.116,19.671,34.247,19.671z"/>
		<path stroke="#000000" stroke-width="0.216" stroke-miterlimit="10" d="M35.881,13.766c1.132,0,2.012-0.941,2.012-2.074
			c0-1.131-0.88-2.01-2.012-2.01c-1.192,0-2.073,0.879-2.073,2.01C33.806,12.823,34.687,13.766,35.881,13.766z"/>
		<path stroke="#000000" stroke-width="0.216" stroke-miterlimit="10" d="M40.342,9.116c1.194,0,2.074-0.943,2.074-2.074
			c0-1.132-0.88-2.073-2.074-2.073c-1.131,0-2.011,0.941-2.011,2.073C38.331,8.173,39.211,9.116,40.342,9.116z"/>
		<path stroke="#000000" stroke-width="0.216" stroke-miterlimit="10" d="M42.478,12.823c1.131,0,2.072-0.881,2.072-2.074
			c0-1.131-0.941-2.012-2.072-2.012c-1.132,0-2.073,0.881-2.073,2.012C40.405,11.944,41.346,12.823,42.478,12.823z"/>
		<path stroke="#000000" stroke-width="0.216" stroke-miterlimit="10" d="M47.316,14.205c1.131,0,2.073-0.942,2.073-2.074
			c0-1.131-0.941-2.072-2.073-2.072c-1.131,0-2.011,0.941-2.011,2.072C45.305,13.264,46.185,14.205,47.316,14.205z"/>
		<path stroke="#000000" stroke-width="0.216" stroke-miterlimit="10" d="M59.255,14.646c1.132,0,2.074-0.941,2.074-2.072
			c0-1.132-0.942-2.073-2.074-2.073c-1.131,0-2.072,0.941-2.072,2.073C57.182,13.704,58.124,14.646,59.255,14.646z"/>
		<path stroke="#000000" stroke-width="0.216" stroke-miterlimit="10" d="M67.046,16.341c1.132,0,2.073-0.942,2.073-2.073
			c0-1.132-0.941-2.073-2.073-2.073c-1.131,0-2.073,0.941-2.073,2.073C64.971,15.399,65.915,16.341,67.046,16.341z"/>
		<path stroke="#000000" stroke-width="0.216" stroke-miterlimit="10" d="M60.385,22.311c1.131,0,2.073-0.941,2.073-2.073
			c0-1.131-0.942-2.073-2.073-2.073c-1.132,0-2.072,0.942-2.072,2.073C58.313,21.369,59.255,22.311,60.385,22.311z"/>
		<path stroke="#000000" stroke-width="0.216" stroke-miterlimit="10" d="M40.091,22.247c1.132,0,2.073-0.879,2.073-2.012
			c0-1.131-0.941-2.073-2.073-2.073c-1.131,0-2.073,0.942-2.073,2.073C38.017,21.367,38.96,22.247,40.091,22.247z"/>
		<path stroke="#000000" stroke-width="0.216" stroke-miterlimit="10" d="M32.927,32.93c1.131,0,2.072-0.942,2.072-2.074
			s-0.941-2.073-2.072-2.073c-1.132,0-2.073,0.942-2.073,2.073S31.797,32.93,32.927,32.93z"/>
		<path stroke="#000000" stroke-width="0.216" stroke-miterlimit="10" d="M30.351,39.778c1.132,0,2.072-0.942,2.072-2.073
			s-0.94-2.073-2.071-2.073c-1.132,0-2.074,0.942-2.074,2.073S29.22,39.778,30.351,39.778z"/>
		<path stroke="#000000" stroke-width="0.216" stroke-miterlimit="10" d="M28.153,43.863c1.131,0,2.072-0.941,2.072-2.072
			s-0.941-2.074-2.072-2.074s-2.074,0.943-2.074,2.074S27.022,43.863,28.153,43.863z"/>
		<path stroke="#000000" stroke-width="0.216" stroke-miterlimit="10" d="M33.367,45.685c1.131,0,2.074-0.879,2.074-2.074
			c0-1.131-0.942-2.011-2.074-2.011c-1.131,0-2.073,0.88-2.073,2.011C31.294,44.805,32.237,45.685,33.367,45.685z"/>
		<path stroke="#000000" stroke-width="0.216" stroke-miterlimit="10" d="M42.73,39.653c1.131,0,2.072-0.94,2.072-2.072
			c0-1.131-0.941-2.074-2.072-2.074c-1.132,0-2.073,0.943-2.073,2.074C40.656,38.71,41.598,39.653,42.73,39.653z"/>
		<path stroke="#000000" stroke-width="0.216" stroke-miterlimit="10" d="M47.945,29.097c1.131,0,2.01-0.941,2.01-2.073
			s-0.879-2.073-2.01-2.073c-1.194,0-2.074,0.941-2.074,2.073S46.751,29.097,47.945,29.097z"/>
		<path stroke="#000000" stroke-width="0.216" stroke-miterlimit="10" d="M55.359,34.374c1.131,0,2.073-0.941,2.073-2.073
			c0-1.131-0.942-2.011-2.073-2.011s-2.073,0.88-2.073,2.011C53.286,33.433,54.228,34.374,55.359,34.374z"/>
		<path stroke="#000000" stroke-width="0.216" stroke-miterlimit="10" d="M63.15,40.908c1.131,0,2.073-0.942,2.073-2.074
			c0-1.131-0.942-2.073-2.073-2.073s-2.073,0.942-2.073,2.073C61.077,39.966,62.019,40.908,63.15,40.908z"/>
		<path stroke="#000000" stroke-width="0.216" stroke-miterlimit="10" d="M71.131,35.003c1.131,0,2.072-0.941,2.072-2.072
			c0-1.133-0.941-2.074-2.072-2.074s-2.073,0.941-2.073,2.074C69.055,34.061,69.999,35.003,71.131,35.003z"/>
		<path stroke="#000000" stroke-width="0.216" stroke-miterlimit="10" d="M77.665,26.206c1.193,0,2.073-0.942,2.073-2.074
			c0-1.131-0.88-2.072-2.073-2.072c-1.132,0-2.011,0.941-2.011,2.072C75.654,25.264,76.533,26.206,77.665,26.206z"/>
		<path stroke="#000000" stroke-width="0.216" stroke-miterlimit="10" d="M83.948,31.672c1.131,0,2.073-0.941,2.073-2.073
			s-0.942-2.073-2.073-2.073s-2.074,0.941-2.074,2.073S82.817,31.672,83.948,31.672z"/>
		<path stroke="#000000" stroke-width="0.216" stroke-miterlimit="10" d="M81.937,42.607c1.131,0,2.011-0.88,2.011-2.073
			c0-1.133-0.88-2.012-2.011-2.012c-1.193,0-2.073,0.879-2.073,2.012C79.864,41.726,80.743,42.607,81.937,42.607z"/>
		<path stroke="#000000" stroke-width="0.216" stroke-miterlimit="10" d="M88.848,44.805c1.132,0,2.073-0.881,2.073-2.074
			c0-1.132-0.941-2.012-2.073-2.012s-2.072,0.88-2.072,2.012C86.776,43.924,87.719,44.805,88.848,44.805z"/>
		<path stroke="#000000" stroke-width="0.216" stroke-miterlimit="10" d="M80.429,55.486c1.13,0,2.072-0.941,2.072-2.072
			s-0.942-2.074-2.072-2.074c-1.133,0-2.073,0.942-2.073,2.074C78.356,54.543,79.298,55.486,80.429,55.486z"/>
		<path stroke="#000000" stroke-width="0.216" stroke-miterlimit="10" d="M66.857,69.31c1.131,0,2.073-0.941,2.073-2.074
			c0-1.132-0.941-2.073-2.073-2.073s-2.073,0.941-2.073,2.073C64.784,68.368,65.725,69.31,66.857,69.31z"/>
		<path stroke="#000000" stroke-width="0.216" stroke-miterlimit="10" d="M63.653,61.517c1.131,0,2.072-0.941,2.072-2.012
			c0-1.131-0.941-2.072-2.072-2.072s-2.074,0.941-2.074,2.072C61.579,60.574,62.522,61.517,63.653,61.517z"/>
		<path stroke="#000000" stroke-width="0.216" stroke-miterlimit="10" d="M54.04,65.916c1.131,0,2.073-0.88,2.073-2.011
			c0-1.193-0.942-2.073-2.073-2.073s-2.074,0.88-2.074,2.073C51.966,65.036,52.908,65.916,54.04,65.916z"/>
		<path stroke="#000000" stroke-width="0.216" stroke-miterlimit="10" d="M55.108,64.031c1.131,0,2.073-0.942,2.073-2.074
			c0-1.131-0.942-2.073-2.073-2.073s-2.073,0.942-2.073,2.073C53.034,63.089,53.977,64.031,55.108,64.031z"/>
		<path stroke="#000000" stroke-width="0.216" stroke-miterlimit="10" d="M37.075,57.686c1.131,0,2.073-0.942,2.073-2.074
			c0-1.131-0.942-2.072-2.073-2.072s-2.074,0.941-2.074,2.072C35.001,56.743,35.944,57.686,37.075,57.686z"/>
		<path stroke="#000000" stroke-width="0.216" stroke-miterlimit="10" d="M30.038,56.24c1.194,0,2.073-0.942,2.073-2.073
			c0-1.132-0.879-2.073-2.073-2.073c-1.131,0-2.011,0.941-2.011,2.073C28.027,55.298,28.906,56.24,30.038,56.24z"/>
		<path stroke="#000000" stroke-width="0.216" stroke-miterlimit="10" d="M51.652,46.565c1.131,0,2.01-0.942,2.01-2.073
			c0-1.132-0.879-2.074-2.01-2.074c-1.194,0-2.074,0.941-2.074,2.074C49.578,45.623,50.458,46.565,51.652,46.565z"/>
	</g>
	<g>
		<g>
			<g>
				<path d="M222.753,35.253c0.051-5.332,0.65-10.615,2.566-15.622c2.026-5.294,6.625-8.96,10.956-12.358
					c2.298-1.802,4.166-2.914,7.131-2.881c1.618,0.019,3.416,0.323,5-0.14c2.229-0.649,3.437-2.589,5.912-2.766
					c2.138-0.151,4.351,1.111,6.502,1.279c0.832,0.064,0.836-1.436,0-1.5c-2.225-0.175-4.276-1.091-6.502-1.279
					c-2.788-0.237-4.34,2.531-6.994,2.93c-2.257,0.338-4.664-0.471-6.893,0.159c-2.561,0.723-4.667,2.764-6.688,4.411
					c-3.972,3.237-7.466,6.632-9.523,11.388c-2.201,5.085-2.688,10.9-2.74,16.379C221.469,36.203,222.744,36.201,222.753,35.253
					L222.753,35.253z"/>
			</g>
		</g>
		<g>
			<g>
				<path d="M270.938,4.461c2.605-0.012,4.659,0.808,6.461,2.733c0.956,1.021,2.314,1.213,3.632,1.448
					c1.383,0.248,4.135,1.27,5.102,2.384c0.643,0.738,1.182,1.573,1.95,2.189c0.712,0.57,1.271-0.793,0.646-1.295
					c-0.8-0.64-1.287-1.964-2.158-2.461c-1.411-0.807-2.843-1.729-4.426-2.12c-1.202-0.297-2.374-0.339-3.509-0.908
					c-0.691-0.348-1.695-1.517-2.373-1.989c-1.883-1.315-2.944-1.494-5.323-1.482C270.098,2.965,270.098,4.465,270.938,4.461
					L270.938,4.461z"/>
			</g>
		</g>
		<g>
			<g>
				<path d="M222.044,42.982c0.194,4.054,1.868,7.515,3.787,11.025c1.778,3.257,3.203,6.74,5.336,9.782
					c2.021,2.878,3.983,3.758,7.357,3.861c4.648,0.146,8.501,2.528,12.998,2.908c0.831,0.069,0.835-1.431,0-1.5
					c-3.069-0.261-5.713-2.043-8.735-2.513c-3.879-0.603-7.241,0.211-10.104-3.031c-2.099-2.376-3.144-5.485-4.626-8.233
					c-2.116-3.923-4.52-7.719-4.736-12.302C223.275,42.039,221.999,42.031,222.044,42.982L222.044,42.982z"/>
			</g>
		</g>
		<g>
			<g>
				<path d="M296.248,31.737c0.073,1.492,0.421,2.925,0.722,4.384c0.396,1.918,0.223,3.972,0.223,5.921c0,0.949,1.273,0.949,1.273,0
					c0-1.558,0.038-3.12-0.031-4.675c-0.086-1.906-0.815-3.719-0.909-5.63C297.478,30.794,296.201,30.784,296.248,31.737
					L296.248,31.737z"/>
			</g>
		</g>
		<g>
			<g>
				<path d="M293.423,55.361c-0.11,1.519-1.229,1.334-2.072,2.056c-0.641,0.546-0.704,1.23-0.751,2.043
					c-0.031,0.562,0.188,1.356-0.38,1.743c-0.313,0.214-0.588,0.357-0.841,0.642c-0.629,0.702-1.3,2.114-2.273,2.347
					c-0.792,0.188-0.515,1.648,0.34,1.446c1.049-0.25,1.797-1.42,2.421-2.211c0.629-0.797,1.688-1.107,1.93-2.147
					c0.334-1.445-0.322-2.482,1.306-3.182c1.192-0.514,1.509-1.502,1.601-2.734C294.769,54.409,293.492,54.424,293.423,55.361
					L293.423,55.361z"/>
			</g>
		</g>
		<g>
			<g>
				<path d="M283.87,65.639c-1.435,1.784-2.729,3.327-4.987,4.024c-2.438,0.753-5.4,0.905-7.943,0.971
					c-0.84,0.021-0.839,1.521,0,1.5c2.744-0.068,5.607-0.384,8.283-1.022c2.477-0.593,4.03-2.521,5.552-4.411
					C285.286,66.059,284.469,64.894,283.87,65.639L283.87,65.639z"/>
			</g>
		</g>
		<path stroke="#000000" stroke-width="0.216" stroke-miterlimit="10" d="M256.234,31.737c0.378,0,0.629-0.313,0.629-0.629
			c0-0.314-0.251-0.564-0.629-0.564c-0.313,0-0.564,0.251-0.564,0.564C255.669,31.421,255.92,31.737,256.234,31.737z"/>
		<path stroke="#000000" stroke-width="0.216" stroke-miterlimit="10" d="M255.354,33.62c0.313,0,0.629-0.251,0.629-0.565
			c0-0.312-0.313-0.564-0.629-0.564c-0.313,0-0.563,0.251-0.563,0.564C254.79,33.369,255.04,33.62,255.354,33.62z"/>
		<path stroke="#000000" stroke-width="0.216" stroke-miterlimit="10" d="M255.104,34.751c0.377,0,0.629-0.251,0.629-0.564
			s-0.252-0.564-0.629-0.564c-0.313,0-0.566,0.25-0.566,0.564C254.537,34.5,254.79,34.751,255.104,34.751z"/>
		<circle stroke="#000000" stroke-width="0.216" stroke-miterlimit="10" cx="255.417" cy="35.442" r="0.565"/>
		<path stroke="#000000" stroke-width="0.216" stroke-miterlimit="10" d="M255.669,37.328c0.313,0,0.564-0.251,0.564-0.629
			c0-0.314-0.251-0.565-0.564-0.565c-0.312,0-0.563,0.251-0.563,0.565C255.104,37.076,255.354,37.328,255.669,37.328z"/>
		<circle stroke="#000000" stroke-width="0.216" stroke-miterlimit="10" cx="256.988" cy="36.448" r="0.565"/>
		<path stroke="#000000" stroke-width="0.216" stroke-miterlimit="10" d="M257.114,38.207c0.312,0,0.563-0.312,0.563-0.629
			c0-0.313-0.252-0.564-0.563-0.564c-0.315,0-0.565,0.251-0.565,0.564C256.549,37.894,256.799,38.207,257.114,38.207z"/>
		<circle stroke="#000000" stroke-width="0.216" stroke-miterlimit="10" cx="256.11" cy="37.956" r="0.565"/>
		<path stroke="#000000" stroke-width="0.216" stroke-miterlimit="10" d="M255.104,39.463c0.312,0,0.563-0.312,0.563-0.629
			c0-0.312-0.252-0.564-0.563-0.564c-0.313,0-0.566,0.251-0.566,0.564C254.537,39.151,254.79,39.463,255.104,39.463z"/>
		<path stroke="#000000" stroke-width="0.216" stroke-miterlimit="10" d="M253.847,38.899c0.312,0,0.562-0.251,0.562-0.564
			s-0.25-0.564-0.562-0.564c-0.314,0-0.631,0.251-0.631,0.564C253.217,38.647,253.532,38.899,253.847,38.899z"/>
		<path stroke="#000000" stroke-width="0.216" stroke-miterlimit="10" d="M252.779,38.396c0.377,0,0.629-0.251,0.629-0.628
			c0-0.313-0.252-0.564-0.629-0.564c-0.313,0-0.565,0.25-0.565,0.564C252.213,38.144,252.465,38.396,252.779,38.396z"/>
		<path stroke="#000000" stroke-width="0.216" stroke-miterlimit="10" d="M252.842,37.076c0.313,0,0.563-0.251,0.563-0.566
			c0-0.312-0.25-0.628-0.563-0.628s-0.629,0.313-0.629,0.628S252.527,37.076,252.842,37.076z"/>
		<path stroke="#000000" stroke-width="0.216" stroke-miterlimit="10" d="M253.72,43.109c0.313,0,0.629-0.251,0.629-0.564
			c0-0.312-0.313-0.628-0.629-0.628c-0.312,0-0.564,0.312-0.564,0.628C253.156,42.859,253.407,43.109,253.72,43.109z"/>
		<circle stroke="#000000" stroke-width="0.216" stroke-miterlimit="10" cx="254.664" cy="40.72" r="0.565"/>
		<path stroke="#000000" stroke-width="0.216" stroke-miterlimit="10" d="M256.11,41.537c0.312,0,0.562-0.251,0.562-0.564
			s-0.25-0.63-0.562-0.63c-0.314,0-0.629,0.314-0.629,0.63C255.481,41.285,255.794,41.537,256.11,41.537z"/>
		<circle stroke="#000000" stroke-width="0.216" stroke-miterlimit="10" cx="256.234" cy="42.48" r="0.565"/>
		<path stroke="#000000" stroke-width="0.216" stroke-miterlimit="10" d="M256.988,40.596c0.377,0,0.627-0.252,0.627-0.564
			c0-0.313-0.25-0.565-0.627-0.565c-0.315,0-0.565,0.251-0.565,0.565C256.423,40.343,256.673,40.596,256.988,40.596z"/>
		<path stroke="#000000" stroke-width="0.216" stroke-miterlimit="10" d="M258.307,40.847c0.312,0,0.565-0.251,0.565-0.564
			s-0.253-0.63-0.565-0.63s-0.564,0.313-0.564,0.63C257.742,40.596,257.994,40.847,258.307,40.847z"/>
		<path stroke="#000000" stroke-width="0.216" stroke-miterlimit="10" d="M259.627,41.098c0.313,0,0.565-0.251,0.565-0.564
			c0-0.377-0.252-0.63-0.565-0.63c-0.312,0-0.563,0.252-0.563,0.63C259.062,40.847,259.314,41.098,259.627,41.098z"/>
		<path stroke="#000000" stroke-width="0.216" stroke-miterlimit="10" d="M257.302,41.726c0.312,0,0.565-0.251,0.565-0.564
			c0-0.377-0.253-0.628-0.565-0.628s-0.562,0.25-0.562,0.628C256.737,41.475,256.988,41.726,257.302,41.726z"/>
		<path stroke="#000000" stroke-width="0.216" stroke-miterlimit="10" d="M258.747,42.229c0.314,0,0.566-0.251,0.566-0.564
			c0-0.377-0.252-0.629-0.566-0.629c-0.312,0-0.564,0.251-0.564,0.629C258.181,41.977,258.433,42.229,258.747,42.229z"/>
		<circle stroke="#000000" stroke-width="0.216" stroke-miterlimit="10" cx="258.497" cy="40.971" r="0.565"/>
		<path stroke="#000000" stroke-width="0.216" stroke-miterlimit="10" d="M259.314,39.841c0.312,0,0.562-0.251,0.562-0.564
			s-0.251-0.564-0.562-0.564c-0.315,0-0.63,0.251-0.63,0.564S258.998,39.841,259.314,39.841z"/>
		<path stroke="#000000" stroke-width="0.216" stroke-miterlimit="10" d="M258.811,38.71c0.312,0,0.563-0.251,0.563-0.565
			c0-0.377-0.252-0.628-0.563-0.628c-0.313,0-0.63,0.251-0.63,0.628C258.181,38.459,258.497,38.71,258.811,38.71z"/>
		<path stroke="#000000" stroke-width="0.216" stroke-miterlimit="10" d="M259.941,38.144c0.313,0,0.629-0.25,0.629-0.564
			c0-0.313-0.313-0.564-0.629-0.564c-0.313,0-0.564,0.251-0.564,0.564C259.376,37.894,259.627,38.144,259.941,38.144z"/>
		<path stroke="#000000" stroke-width="0.216" stroke-miterlimit="10" d="M260.633,39.212c0.313,0,0.565-0.313,0.565-0.628
			c0-0.313-0.252-0.565-0.565-0.565c-0.312,0-0.564,0.251-0.564,0.565C260.067,38.9,260.32,39.212,260.633,39.212z"/>
		<circle stroke="#000000" stroke-width="0.216" stroke-miterlimit="10" cx="260.633" cy="36.009" r="0.565"/>
		<circle stroke="#000000" stroke-width="0.216" stroke-miterlimit="10" cx="259.25" cy="36.134" r="0.566"/>
		<circle stroke="#000000" stroke-width="0.216" stroke-miterlimit="10" cx="259.25" cy="34.437" r="0.566"/>
		<path stroke="#000000" stroke-width="0.216" stroke-miterlimit="10" d="M256.926,35.003c0.313,0,0.63-0.251,0.63-0.564
			s-0.314-0.565-0.63-0.565c-0.312,0-0.564,0.251-0.564,0.565C256.36,34.751,256.612,35.003,256.926,35.003z"/>
		<path stroke="#000000" stroke-width="0.216" stroke-miterlimit="10" d="M261.072,35.003c0.312,0,0.565-0.251,0.565-0.564
			c0-0.377-0.254-0.629-0.565-0.629c-0.313,0-0.565,0.251-0.565,0.629C260.507,34.751,260.759,35.003,261.072,35.003z"/>
		<path stroke="#000000" stroke-width="0.216" stroke-miterlimit="10" d="M263.145,35.505c0.313,0,0.564-0.251,0.564-0.564
			c0-0.377-0.251-0.628-0.564-0.628s-0.563,0.25-0.563,0.628C262.581,35.253,262.831,35.505,263.145,35.505z"/>
		<path stroke="#000000" stroke-width="0.216" stroke-miterlimit="10" d="M263.711,37.265c0.313,0,0.565-0.251,0.565-0.564
			s-0.252-0.565-0.565-0.565c-0.377,0-0.627,0.251-0.627,0.565C263.084,37.014,263.334,37.265,263.711,37.265z"/>
		<path stroke="#000000" stroke-width="0.216" stroke-miterlimit="10" d="M262.769,36.888c0.376,0,0.629-0.252,0.629-0.564
			c0-0.378-0.253-0.629-0.629-0.629c-0.313,0-0.564,0.25-0.564,0.629C262.204,36.636,262.455,36.888,262.769,36.888z"/>
		<path stroke="#000000" stroke-width="0.216" stroke-miterlimit="10" d="M261.762,38.019c0.314,0,0.629-0.25,0.629-0.564
			c0-0.312-0.312-0.564-0.629-0.564c-0.312,0-0.563,0.251-0.563,0.564C261.198,37.768,261.449,38.019,261.762,38.019z"/>
		<path stroke="#000000" stroke-width="0.216" stroke-miterlimit="10" d="M262.204,39.151c0.312,0,0.563-0.251,0.563-0.564
			s-0.251-0.564-0.563-0.564c-0.314,0-0.629,0.25-0.629,0.564C261.575,38.899,261.888,39.151,262.204,39.151z"/>
		<path stroke="#000000" stroke-width="0.216" stroke-miterlimit="10" d="M262.957,38.773c0.314,0,0.566-0.251,0.566-0.564
			c0-0.377-0.252-0.629-0.566-0.629c-0.312,0-0.564,0.251-0.564,0.629C262.391,38.522,262.644,38.773,262.957,38.773z"/>
		<path stroke="#000000" stroke-width="0.216" stroke-miterlimit="10" d="M263.774,39.527c0.312,0,0.564-0.25,0.564-0.564
			c0-0.313-0.252-0.628-0.564-0.628c-0.313,0-0.629,0.313-0.629,0.628S263.46,39.527,263.774,39.527z"/>
		<path stroke="#000000" stroke-width="0.216" stroke-miterlimit="10" d="M264.528,40.281c0.313,0,0.629-0.251,0.629-0.565
			c0-0.313-0.312-0.629-0.629-0.629c-0.313,0-0.564,0.312-0.564,0.629C263.963,40.031,264.214,40.281,264.528,40.281z"/>
		<path stroke="#000000" stroke-width="0.216" stroke-miterlimit="10" d="M265.345,41.034c0.312,0,0.562-0.25,0.562-0.565
			c0-0.312-0.25-0.628-0.562-0.628c-0.313,0-0.565,0.312-0.565,0.628S265.03,41.034,265.345,41.034z"/>
		<path stroke="#000000" stroke-width="0.216" stroke-miterlimit="10" d="M266.098,41.788c0.312,0,0.63-0.251,0.63-0.564
			s-0.313-0.564-0.63-0.564c-0.312,0-0.564,0.251-0.564,0.564C265.533,41.537,265.785,41.788,266.098,41.788z"/>
		<circle stroke="#000000" stroke-width="0.216" stroke-miterlimit="10" cx="265.093" cy="41.851" r="0.565"/>
		<path stroke="#000000" stroke-width="0.216" stroke-miterlimit="10" d="M264.717,43.171c0.313,0,0.63-0.251,0.63-0.564
			s-0.313-0.564-0.63-0.564c-0.313,0-0.564,0.251-0.564,0.564C264.151,42.919,264.403,43.171,264.717,43.171z"/>
		<path stroke="#000000" stroke-width="0.216" stroke-miterlimit="10" d="M263.586,42.542c0.314,0,0.564-0.313,0.564-0.628
			c0-0.315-0.25-0.564-0.564-0.564c-0.312,0-0.563,0.25-0.563,0.564C263.021,42.228,263.272,42.542,263.586,42.542z"/>
		<circle stroke="#000000" stroke-width="0.216" stroke-miterlimit="10" cx="262.455" cy="42.041" r="0.566"/>
		<path stroke="#000000" stroke-width="0.216" stroke-miterlimit="10" d="M261.323,42.732c0.314,0,0.564-0.251,0.564-0.564
			s-0.25-0.565-0.564-0.565s-0.628,0.251-0.628,0.565C260.696,42.48,261.009,42.732,261.323,42.732z"/>
		<circle stroke="#000000" stroke-width="0.216" stroke-miterlimit="10" cx="261.952" cy="40.72" r="0.565"/>
		<circle stroke="#000000" stroke-width="0.216" stroke-miterlimit="10" cx="260.696" cy="43.297" r="0.565"/>
		<path stroke="#000000" stroke-width="0.216" stroke-miterlimit="10" d="M261.323,44.49c0.314,0,0.629-0.251,0.629-0.565
			c0-0.312-0.312-0.564-0.629-0.564c-0.314,0-0.564,0.251-0.564,0.564C260.759,44.24,261.009,44.49,261.323,44.49z"/>
		<circle stroke="#000000" stroke-width="0.216" stroke-miterlimit="10" cx="262.014" cy="44.554" r="0.565"/>
		<path stroke="#000000" stroke-width="0.216" stroke-miterlimit="10" d="M263.586,44.741c0.314,0,0.564-0.251,0.564-0.565
			c0-0.377-0.25-0.628-0.564-0.628c-0.312,0-0.629,0.25-0.629,0.628C262.957,44.49,263.272,44.741,263.586,44.741z"/>
		<path stroke="#000000" stroke-width="0.216" stroke-miterlimit="10" d="M264.088,45.621c0.314,0,0.565-0.251,0.565-0.564
			s-0.251-0.63-0.565-0.63c-0.312,0-0.562,0.313-0.562,0.63C263.524,45.37,263.774,45.621,264.088,45.621z"/>
		<path stroke="#000000" stroke-width="0.216" stroke-miterlimit="10" d="M258.307,45.244c0.312,0,0.565-0.312,0.565-0.629
			c0-0.313-0.253-0.565-0.565-0.565s-0.564,0.251-0.564,0.565C257.742,44.931,257.994,45.244,258.307,45.244z"/>
		<path stroke="#000000" stroke-width="0.216" stroke-miterlimit="10" d="M259.627,46.375c0.313,0,0.565-0.251,0.565-0.628
			c0-0.313-0.252-0.565-0.565-0.565c-0.312,0-0.563,0.251-0.563,0.565C259.062,46.123,259.314,46.375,259.627,46.375z"/>
		<path stroke="#000000" stroke-width="0.216" stroke-miterlimit="10" d="M256.423,33.181c0.313,0,0.63-0.25,0.63-0.564
			c0-0.313-0.312-0.565-0.63-0.565c-0.312,0-0.564,0.251-0.564,0.565C255.858,32.93,256.11,33.181,256.423,33.181z"/>
		<path stroke="#000000" stroke-width="0.216" stroke-miterlimit="10" d="M258.181,33.055c0.314,0,0.564-0.313,0.564-0.629
			c0-0.312-0.25-0.564-0.564-0.564c-0.312,0-0.563,0.251-0.563,0.564C257.615,32.74,257.868,33.055,258.181,33.055z"/>
		<path stroke="#000000" stroke-width="0.216" stroke-miterlimit="10" d="M258.998,31.484c0.315,0,0.565-0.251,0.565-0.629
			c0-0.312-0.25-0.564-0.565-0.564c-0.377,0-0.627,0.251-0.627,0.564C258.371,31.233,258.621,31.484,258.998,31.484z"/>
		<circle stroke="#000000" stroke-width="0.216" stroke-miterlimit="10" cx="260.256" cy="32.427" r="0.565"/>
		<circle stroke="#000000" stroke-width="0.216" stroke-miterlimit="10" cx="259.501" cy="33.055" r="0.566"/>
		<path stroke="#000000" stroke-width="0.216" stroke-miterlimit="10" d="M260.57,30.164c0.312,0,0.565-0.312,0.565-0.628
			c0-0.312-0.254-0.564-0.565-0.564c-0.313,0-0.565,0.251-0.565,0.564C260.005,29.851,260.256,30.164,260.57,30.164z"/>
		<path stroke="#000000" stroke-width="0.216" stroke-miterlimit="10" d="M261.888,30.918c0.314,0,0.565-0.312,0.565-0.629
			c0-0.313-0.251-0.564-0.565-0.564c-0.377,0-0.627,0.251-0.627,0.564C261.261,30.606,261.511,30.918,261.888,30.918z"/>
		<circle stroke="#000000" stroke-width="0.216" stroke-miterlimit="10" cx="262.517" cy="32.615" r="0.565"/>
		<path stroke="#000000" stroke-width="0.216" stroke-miterlimit="10" d="M263.711,32.93c0.313,0,0.565-0.251,0.565-0.565
			c0-0.313-0.252-0.629-0.565-0.629c-0.312,0-0.627,0.312-0.627,0.629C263.084,32.678,263.398,32.93,263.711,32.93z"/>
		<path stroke="#000000" stroke-width="0.216" stroke-miterlimit="10" d="M265.785,33.432c0.312,0,0.563-0.251,0.563-0.564
			c0-0.377-0.251-0.628-0.563-0.628c-0.314,0-0.629,0.251-0.629,0.628C265.156,33.181,265.469,33.432,265.785,33.432z"/>
		<circle stroke="#000000" stroke-width="0.216" stroke-miterlimit="10" cx="266.035" cy="33.998" r="0.565"/>
		<circle stroke="#000000" stroke-width="0.216" stroke-miterlimit="10" cx="265.659" cy="35.129" r="0.566"/>
		<path stroke="#000000" stroke-width="0.216" stroke-miterlimit="10" d="M265.785,37.076c0.312,0,0.627-0.251,0.627-0.566
			c0-0.312-0.312-0.564-0.627-0.564s-0.565,0.252-0.565,0.564C265.219,36.825,265.469,37.076,265.785,37.076z"/>
		<path stroke="#000000" stroke-width="0.216" stroke-miterlimit="10" d="M265.972,38.522c0.314,0,0.564-0.251,0.564-0.564
			c0-0.377-0.25-0.629-0.564-0.629c-0.312,0-0.627,0.251-0.627,0.629C265.345,38.27,265.659,38.522,265.972,38.522z"/>
		<path stroke="#000000" stroke-width="0.216" stroke-miterlimit="10" d="M267.355,37.955c0.312,0,0.629-0.251,0.629-0.564
			s-0.313-0.564-0.629-0.564c-0.313,0-0.563,0.251-0.563,0.564S267.041,37.955,267.355,37.955z"/>
	</g>
	<g>
		<path d="M39.692,120.078v-6.206h2.341c0.413,0,0.728,0.02,0.944,0.06c0.305,0.051,0.56,0.146,0.766,0.291
			c0.206,0.143,0.372,0.343,0.497,0.6c0.126,0.257,0.188,0.537,0.188,0.847c0,0.525-0.168,0.976-0.505,1.34
			c-0.336,0.366-0.941,0.55-1.818,0.55h-1.593v2.523L39.692,120.078L39.692,120.078z M40.511,116.823h1.604
			c0.531,0,0.908-0.1,1.13-0.297c0.224-0.197,0.334-0.477,0.334-0.834c0-0.259-0.064-0.481-0.197-0.668
			c-0.13-0.185-0.305-0.308-0.518-0.363c-0.139-0.038-0.395-0.056-0.768-0.056H40.51v2.218H40.511z"/>
		<path d="M45.224,117.055c0-1.031,0.275-1.837,0.83-2.42s1.269-0.876,2.144-0.876c0.573,0,1.09,0.139,1.55,0.412
			c0.46,0.272,0.812,0.655,1.053,1.146c0.242,0.491,0.362,1.045,0.362,1.665c0,0.63-0.127,1.19-0.381,1.69
			c-0.254,0.497-0.613,0.872-1.08,1.128c-0.466,0.257-0.969,0.383-1.508,0.383c-0.584,0-1.106-0.143-1.566-0.424
			c-0.46-0.28-0.809-0.668-1.045-1.154C45.343,118.116,45.224,117.6,45.224,117.055z M46.072,117.069
			c0,0.748,0.201,1.337,0.603,1.769c0.402,0.43,0.907,0.645,1.515,0.645c0.617,0,1.127-0.216,1.524-0.649
			c0.399-0.436,0.602-1.053,0.602-1.851c0-0.506-0.086-0.946-0.257-1.323c-0.17-0.377-0.42-0.671-0.75-0.876
			c-0.327-0.208-0.696-0.312-1.106-0.312c-0.581,0-1.081,0.2-1.501,0.6C46.281,115.466,46.072,116.133,46.072,117.069z"/>
		<path d="M51.94,118.084l0.772-0.067c0.037,0.312,0.123,0.565,0.257,0.767c0.135,0.198,0.343,0.356,0.625,0.481
			c0.281,0.121,0.601,0.185,0.951,0.185c0.313,0,0.591-0.049,0.83-0.141c0.24-0.093,0.418-0.221,0.536-0.383
			c0.117-0.162,0.175-0.341,0.175-0.53c0-0.193-0.057-0.364-0.169-0.511c-0.112-0.146-0.3-0.268-0.56-0.365
			c-0.167-0.064-0.535-0.166-1.105-0.303c-0.569-0.139-0.969-0.268-1.197-0.389c-0.297-0.155-0.518-0.348-0.661-0.578
			c-0.146-0.229-0.22-0.486-0.22-0.771c0-0.312,0.09-0.604,0.269-0.878c0.178-0.271,0.438-0.479,0.779-0.62
			c0.343-0.143,0.723-0.213,1.14-0.213c0.46,0,0.866,0.074,1.218,0.225c0.352,0.146,0.621,0.365,0.811,0.653
			s0.291,0.612,0.307,0.979l-0.787,0.059c-0.043-0.392-0.187-0.688-0.43-0.891c-0.244-0.199-0.605-0.3-1.081-0.3
			c-0.497,0-0.859,0.09-1.087,0.271c-0.229,0.183-0.342,0.399-0.342,0.657c0,0.224,0.079,0.405,0.24,0.551
			c0.158,0.145,0.571,0.292,1.239,0.442c0.667,0.149,1.125,0.283,1.374,0.396c0.36,0.165,0.628,0.379,0.8,0.634
			c0.172,0.256,0.258,0.55,0.258,0.885c0,0.33-0.094,0.642-0.283,0.933c-0.188,0.293-0.46,0.521-0.814,0.682
			c-0.354,0.164-0.753,0.244-1.197,0.244c-0.562,0-1.031-0.084-1.412-0.245c-0.379-0.164-0.677-0.41-0.893-0.739
			C52.065,118.871,51.951,118.498,51.94,118.084z"/>
		<path d="M58.142,120.078v-6.206h0.82v6.206H58.142z"/>
		<path d="M61.991,120.078v-5.476h-2.045v-0.73h4.919v0.73h-2.053v5.476H61.991z"/>
		<path d="M65.847,120.078v-6.206h0.82v6.206H65.847z"/>
		<path d="M69.891,120.078l-2.403-6.206h0.889l1.613,4.509c0.129,0.361,0.238,0.7,0.327,1.017c0.096-0.339,0.208-0.677,0.335-1.017
			l1.675-4.509h0.838l-2.43,6.206H69.891z"/>
		<path d="M73.917,120.078v-6.206h4.488v0.73h-3.667v1.899h3.435v0.729h-3.435v2.111h3.81v0.732h-4.631V120.078z"/>
	</g>
	<g>
		<path d="M239.113,120.078v-6.206h0.843l3.26,4.873v-4.873h0.786v6.206h-0.842l-3.261-4.878v4.878H239.113z"/>
		<path d="M245.401,120.078v-6.206h4.488v0.73h-3.666v1.899h3.434v0.729h-3.434v2.111h3.81v0.732h-4.632V120.078z"/>
		<path d="M254.072,117.645v-0.729l2.63-0.005v2.303c-0.404,0.322-0.82,0.563-1.249,0.728c-0.43,0.163-0.869,0.243-1.321,0.243
			c-0.608,0-1.163-0.129-1.661-0.393c-0.499-0.261-0.874-0.639-1.129-1.132c-0.254-0.494-0.382-1.047-0.382-1.655
			c0-0.604,0.126-1.167,0.378-1.691c0.253-0.522,0.617-0.912,1.092-1.166c0.477-0.254,1.021-0.382,1.64-0.382
			c0.447,0,0.854,0.072,1.219,0.219c0.362,0.146,0.646,0.349,0.854,0.605c0.206,0.26,0.362,0.601,0.472,1.019l-0.741,0.203
			c-0.093-0.314-0.21-0.563-0.347-0.747c-0.142-0.182-0.337-0.324-0.596-0.436c-0.257-0.108-0.54-0.163-0.854-0.163
			c-0.375,0-0.701,0.057-0.974,0.173c-0.274,0.113-0.494,0.264-0.663,0.45c-0.169,0.188-0.299,0.392-0.394,0.614
			c-0.158,0.383-0.235,0.799-0.235,1.249c0,0.554,0.096,1.016,0.285,1.39c0.19,0.371,0.469,0.647,0.832,0.828
			c0.362,0.182,0.75,0.271,1.16,0.271c0.354,0,0.702-0.069,1.041-0.204c0.338-0.139,0.597-0.282,0.771-0.438v-1.154L254.072,117.645
			L254.072,117.645z"/>
		<path d="M257.231,120.078l2.383-6.206h0.885l2.541,6.206h-0.936l-0.727-1.88h-2.596l-0.683,1.88H257.231z M259.021,117.531h2.104
			l-0.646-1.721c-0.199-0.522-0.348-0.951-0.439-1.289c-0.08,0.398-0.19,0.795-0.334,1.188L259.021,117.531z"/>
		<path d="M264.63,120.078v-5.476h-2.044v-0.73h4.919v0.73h-2.052v5.476H264.63z"/>
		<path d="M268.487,120.078v-6.206h0.821v6.206H268.487z"/>
		<path d="M272.531,120.078l-2.406-6.206h0.891l1.613,4.509c0.129,0.361,0.236,0.7,0.325,1.017c0.097-0.339,0.208-0.677,0.334-1.017
			l1.677-4.509h0.84l-2.432,6.206H272.531z"/>
		<path d="M276.557,120.078v-6.206h4.486v0.73h-3.666v1.899h3.437v0.729h-3.437v2.111h3.812v0.732h-4.633V120.078L276.557,120.078z"
			/>
	</g>
</g>
</svg>
