<?xml version="1.0" encoding="utf-8"?>
<!-- Generator: Adobe Illustrator 15.1.0, SVG Export Plug-In . SVG Version: 6.00 Build 0)  -->
<!DOCTYPE svg PUBLIC "-//W3C//DTD SVG 1.1//EN" "http://www.w3.org/Graphics/SVG/1.1/DTD/svg11.dtd">
<svg version="1.1" id="Layer_1" xmlns="http://www.w3.org/2000/svg" xmlns:xlink="http://www.w3.org/1999/xlink" x="0px" y="0px"
	 width="326.984px" height="53.406px" viewBox="20.508 3.297 326.984 53.406" enable-background="new 20.508 3.297 326.984 53.406"
	 xml:space="preserve">
<rect x="21.008" y="3.797" fill="none" stroke="#000000" width="325.984" height="52.406"/>
<rect x="72.345" y="23.192" fill="none" stroke="#231F20" stroke-width="0.5" width="111.406" height="11.64"/>
<g>
	<g enable-background="new    ">
		<path fill="#231F20" d="M40.248,31.699v-6.317h2.686c0.675,0,1.166,0.057,1.472,0.17c0.306,0.114,0.551,0.315,0.735,0.605
			c0.184,0.291,0.275,0.622,0.275,0.996c0,0.474-0.14,0.867-0.418,1.174c-0.278,0.309-0.694,0.503-1.25,0.584
			c0.276,0.161,0.503,0.337,0.684,0.53c0.18,0.192,0.421,0.535,0.726,1.025l0.771,1.232h-1.525l-0.922-1.375
			c-0.328-0.491-0.552-0.801-0.672-0.93c-0.12-0.127-0.249-0.215-0.384-0.263c-0.135-0.047-0.349-0.071-0.642-0.071h-0.259v2.638
			L40.248,31.699L40.248,31.699z M41.523,28.055h0.943c0.612,0,0.994-0.027,1.146-0.078c0.152-0.053,0.271-0.142,0.357-0.268
			c0.086-0.126,0.129-0.285,0.129-0.475c0-0.212-0.058-0.383-0.17-0.515c-0.113-0.131-0.273-0.213-0.48-0.248
			c-0.104-0.015-0.414-0.022-0.931-0.022h-0.996L41.523,28.055L41.523,28.055z"/>
		<path fill="#231F20" d="M48.069,31.699l-2.258-6.317h1.383l1.599,4.675l1.547-4.675h1.354l-2.262,6.317H48.069z"/>
		<path fill="#231F20" d="M52.34,25.382h2.332c0.526,0,0.927,0.04,1.202,0.121c0.371,0.109,0.688,0.303,0.953,0.582
			c0.264,0.279,0.465,0.62,0.604,1.023c0.138,0.404,0.207,0.901,0.207,1.494c0,0.52-0.065,0.967-0.194,1.344
			c-0.158,0.46-0.384,0.832-0.677,1.117c-0.222,0.215-0.521,0.383-0.896,0.504c-0.281,0.089-0.658,0.134-1.129,0.134h-2.4
			L52.34,25.382L52.34,25.382z M53.616,26.45v4.185h0.952c0.355,0,0.613-0.02,0.771-0.061c0.207-0.051,0.378-0.139,0.516-0.264
			c0.137-0.123,0.248-0.326,0.334-0.609s0.129-0.668,0.129-1.157s-0.043-0.862-0.129-1.125c-0.086-0.261-0.207-0.465-0.362-0.612
			s-0.352-0.246-0.59-0.297c-0.178-0.04-0.527-0.061-1.047-0.061L53.616,26.45L53.616,26.45z"/>
		<path fill="#231F20" d="M58.942,28.333v-1.211h1.211v1.211H58.942z M58.942,31.699v-1.211h1.211v1.211H58.942z"/>
	</g>
</g>
<g>
	<g enable-background="new    ">
		<path fill="#231F20" d="M76.744,31.572V26h-2.081v-0.746h5.007V26h-2.09v5.572H76.744z"/>
		<path fill="#231F20" d="M82.583,30.1l0.801,0.099c-0.126,0.468-0.359,0.832-0.701,1.09c-0.343,0.259-0.779,0.388-1.311,0.388
			c-0.669,0-1.2-0.205-1.592-0.617c-0.393-0.412-0.588-0.992-0.588-1.735c0-0.771,0.198-1.368,0.595-1.792
			c0.396-0.425,0.911-0.638,1.542-0.638c0.612,0,1.112,0.208,1.5,0.625c0.388,0.418,0.582,1.004,0.582,1.758
			c0,0.047-0.001,0.115-0.004,0.207h-3.413c0.029,0.502,0.171,0.889,0.427,1.154c0.257,0.269,0.575,0.401,0.957,0.401
			c0.285,0,0.527-0.075,0.729-0.226C82.309,30.663,82.465,30.426,82.583,30.1z M80.037,28.844h2.555
			c-0.033-0.385-0.132-0.673-0.293-0.865c-0.246-0.299-0.566-0.448-0.961-0.448c-0.355,0-0.655,0.118-0.897,0.356
			C80.197,28.126,80.062,28.445,80.037,28.844z"/>
		<path fill="#231F20" d="M84.049,30.206l0.768-0.121c0.043,0.308,0.163,0.543,0.359,0.707c0.197,0.164,0.473,0.246,0.825,0.246
			c0.356,0,0.621-0.072,0.793-0.218c0.172-0.146,0.259-0.315,0.259-0.512c0-0.175-0.076-0.312-0.229-0.414
			c-0.105-0.068-0.371-0.156-0.793-0.263c-0.569-0.144-0.963-0.268-1.183-0.373c-0.221-0.104-0.387-0.25-0.5-0.435
			c-0.113-0.186-0.17-0.391-0.17-0.614c0-0.204,0.046-0.394,0.14-0.565c0.093-0.175,0.22-0.318,0.381-0.434
			c0.121-0.089,0.285-0.165,0.493-0.227s0.432-0.093,0.67-0.093c0.359,0,0.674,0.052,0.946,0.155
			c0.271,0.103,0.472,0.244,0.601,0.42c0.129,0.177,0.218,0.413,0.267,0.708l-0.758,0.104c-0.035-0.234-0.134-0.418-0.3-0.551
			c-0.165-0.132-0.397-0.197-0.7-0.197c-0.355,0-0.609,0.059-0.763,0.176c-0.152,0.118-0.229,0.256-0.229,0.414
			c0,0.101,0.032,0.191,0.096,0.271c0.062,0.082,0.162,0.151,0.297,0.207c0.077,0.028,0.306,0.094,0.685,0.197
			c0.55,0.146,0.933,0.268,1.148,0.36c0.217,0.094,0.387,0.229,0.511,0.407c0.124,0.178,0.186,0.398,0.186,0.664
			c0,0.258-0.075,0.502-0.227,0.729c-0.15,0.228-0.369,0.405-0.653,0.53s-0.605,0.188-0.965,0.188c-0.595,0-1.048-0.124-1.359-0.371
			C84.334,31.059,84.135,30.691,84.049,30.206z"/>
		<path fill="#231F20" d="M90.465,30.879l0.112,0.686c-0.218,0.045-0.414,0.068-0.586,0.068c-0.282,0-0.5-0.045-0.655-0.134
			c-0.154-0.089-0.265-0.206-0.328-0.353c-0.062-0.145-0.095-0.449-0.095-0.916v-2.633h-0.568v-0.604h0.568v-1.133l0.771-0.465
			v1.599h0.779V27.6h-0.779v2.676c0,0.221,0.014,0.363,0.041,0.427c0.026,0.062,0.071,0.112,0.134,0.149
			c0.062,0.037,0.149,0.057,0.265,0.057C90.211,30.908,90.325,30.898,90.465,30.879z"/>
		<path fill="#231F20" d="M96.645,31.572v-0.577c-0.29,0.454-0.717,0.681-1.28,0.681c-0.365,0-0.7-0.101-1.006-0.302
			s-0.543-0.481-0.711-0.843c-0.168-0.36-0.252-0.774-0.252-1.243c0-0.457,0.076-0.871,0.229-1.243s0.38-0.656,0.686-0.855
			c0.304-0.198,0.645-0.297,1.021-0.297c0.276,0,0.521,0.059,0.737,0.175c0.215,0.116,0.391,0.268,0.525,0.456v-2.268h0.771v6.317
			L96.645,31.572L96.645,31.572z M94.193,29.288c0,0.586,0.123,1.024,0.371,1.313c0.247,0.291,0.539,0.437,0.875,0.437
			c0.339,0,0.627-0.14,0.864-0.416c0.236-0.277,0.354-0.7,0.354-1.269c0-0.627-0.121-1.086-0.362-1.379
			c-0.24-0.293-0.539-0.44-0.892-0.44c-0.345,0-0.632,0.141-0.864,0.422C94.308,28.238,94.193,28.682,94.193,29.288z"/>
		<path fill="#231F20" d="M98.295,29.284c0-0.849,0.236-1.476,0.707-1.884c0.395-0.338,0.873-0.508,1.439-0.508
			c0.629,0,1.144,0.207,1.543,0.619c0.398,0.412,0.599,0.982,0.599,1.708c0,0.59-0.088,1.053-0.265,1.391
			c-0.177,0.336-0.435,0.6-0.771,0.785c-0.337,0.187-0.706,0.28-1.104,0.28c-0.642,0-1.158-0.205-1.553-0.616
			C98.494,30.648,98.295,30.057,98.295,29.284z M99.094,29.284c0,0.586,0.128,1.024,0.383,1.315
			c0.256,0.293,0.578,0.438,0.965,0.438c0.385,0,0.706-0.146,0.961-0.438c0.256-0.293,0.384-0.74,0.384-1.341
			c0-0.565-0.129-0.995-0.386-1.286c-0.257-0.293-0.577-0.438-0.959-0.438c-0.388,0-0.709,0.146-0.965,0.436
			C99.221,28.26,99.094,28.698,99.094,29.284z"/>
		<path fill="#231F20" d="M103.492,31.572v-4.577h0.698v0.651c0.336-0.503,0.822-0.754,1.457-0.754c0.275,0,0.528,0.05,0.761,0.149
			c0.231,0.099,0.404,0.229,0.52,0.391c0.114,0.16,0.194,0.352,0.241,0.572c0.028,0.145,0.043,0.395,0.043,0.754v2.814h-0.775
			v-2.784c0-0.315-0.03-0.552-0.09-0.709c-0.061-0.157-0.167-0.282-0.321-0.375c-0.153-0.093-0.334-0.14-0.541-0.14
			c-0.331,0-0.616,0.104-0.855,0.313c-0.239,0.21-0.359,0.608-0.359,1.194v2.5H103.492z"/>
		<path fill="#231F20" d="M111.534,30.1l0.801,0.099c-0.126,0.468-0.359,0.832-0.702,1.09c-0.342,0.259-0.778,0.388-1.31,0.388
			c-0.669,0-1.2-0.205-1.592-0.617c-0.394-0.412-0.588-0.992-0.588-1.735c0-0.771,0.197-1.368,0.595-1.792
			c0.396-0.425,0.911-0.638,1.542-0.638c0.612,0,1.112,0.208,1.5,0.625c0.388,0.418,0.582,1.004,0.582,1.758
			c0,0.047-0.001,0.115-0.004,0.207h-3.413c0.029,0.502,0.171,0.889,0.427,1.154c0.256,0.269,0.575,0.401,0.957,0.401
			c0.285,0,0.527-0.075,0.729-0.226C111.26,30.663,111.416,30.426,111.534,30.1z M108.987,28.844h2.555
			c-0.034-0.385-0.132-0.673-0.293-0.865c-0.247-0.299-0.566-0.448-0.961-0.448c-0.355,0-0.656,0.118-0.897,0.356
			C109.147,28.126,109.013,28.445,108.987,28.844z"/>
	</g>
</g>
<g>
	<g enable-background="new    ">
		<path fill="#231F20" d="M141.829,31.572v-2.676l-2.435-3.642h1.017l1.245,1.905c0.23,0.355,0.444,0.712,0.642,1.068
			c0.19-0.33,0.419-0.703,0.689-1.117l1.224-1.857h0.975l-2.521,3.642v2.676H141.829z"/>
		<path fill="#231F20" d="M148.16,30.1l0.801,0.099c-0.126,0.468-0.359,0.832-0.702,1.09c-0.342,0.259-0.778,0.388-1.31,0.388
			c-0.669,0-1.2-0.205-1.592-0.617c-0.394-0.412-0.588-0.992-0.588-1.735c0-0.771,0.197-1.368,0.595-1.792
			c0.396-0.425,0.911-0.638,1.542-0.638c0.612,0,1.112,0.208,1.5,0.625c0.388,0.418,0.582,1.004,0.582,1.758
			c0,0.047-0.001,0.115-0.004,0.207h-3.413c0.029,0.502,0.171,0.889,0.427,1.154c0.256,0.269,0.575,0.401,0.957,0.401
			c0.285,0,0.527-0.075,0.729-0.226C147.886,30.663,148.042,30.426,148.16,30.1z M145.613,28.844h2.555
			c-0.034-0.385-0.132-0.673-0.293-0.865c-0.247-0.299-0.566-0.448-0.961-0.448c-0.355,0-0.656,0.118-0.897,0.356
			C145.773,28.126,145.639,28.445,145.613,28.844z"/>
		<path fill="#231F20" d="M149.625,30.206l0.768-0.121c0.043,0.308,0.163,0.543,0.359,0.707c0.197,0.164,0.473,0.246,0.825,0.246
			c0.356,0,0.621-0.072,0.793-0.218c0.172-0.146,0.258-0.315,0.258-0.512c0-0.175-0.075-0.312-0.228-0.414
			c-0.106-0.068-0.371-0.156-0.793-0.263c-0.569-0.144-0.963-0.268-1.184-0.373c-0.22-0.104-0.386-0.25-0.5-0.435
			c-0.112-0.186-0.17-0.391-0.17-0.614c0-0.204,0.046-0.394,0.141-0.565c0.093-0.175,0.22-0.318,0.381-0.434
			c0.121-0.089,0.285-0.165,0.493-0.227s0.432-0.093,0.67-0.093c0.358,0,0.674,0.052,0.945,0.155
			c0.272,0.103,0.473,0.244,0.602,0.42c0.129,0.177,0.218,0.413,0.267,0.708l-0.758,0.104c-0.035-0.234-0.134-0.418-0.3-0.551
			c-0.165-0.132-0.398-0.197-0.7-0.197c-0.355,0-0.61,0.059-0.763,0.176c-0.152,0.118-0.229,0.256-0.229,0.414
			c0,0.101,0.032,0.191,0.096,0.271c0.062,0.082,0.161,0.151,0.297,0.207c0.077,0.028,0.306,0.094,0.685,0.197
			c0.549,0.146,0.933,0.268,1.148,0.36c0.217,0.094,0.387,0.229,0.511,0.407c0.124,0.178,0.185,0.398,0.185,0.664
			c0,0.258-0.074,0.502-0.226,0.729s-0.369,0.405-0.653,0.53c-0.285,0.125-0.605,0.188-0.965,0.188
			c-0.595,0-1.048-0.124-1.359-0.371C149.91,31.059,149.711,30.691,149.625,30.206z"/>
	</g>
</g>
<g>
	<g enable-background="new    ">
		<path fill="#231F20" d="M165.431,31.572v-6.317h0.856l3.318,4.96v-4.96h0.801v6.317h-0.857l-3.317-4.964v4.964H165.431z"/>
		<path fill="#231F20" d="M171.425,29.284c0-0.849,0.236-1.476,0.707-1.884c0.395-0.338,0.873-0.508,1.439-0.508
			c0.629,0,1.144,0.207,1.543,0.619c0.399,0.412,0.599,0.982,0.599,1.708c0,0.59-0.088,1.053-0.265,1.391
			c-0.177,0.336-0.434,0.6-0.771,0.785c-0.338,0.187-0.706,0.28-1.105,0.28c-0.641,0-1.158-0.205-1.553-0.616
			C171.624,30.648,171.425,30.057,171.425,29.284z M172.222,29.284c0,0.586,0.128,1.024,0.383,1.315
			c0.256,0.293,0.578,0.438,0.965,0.438c0.385,0,0.706-0.146,0.961-0.438c0.256-0.293,0.384-0.74,0.384-1.341
			c0-0.565-0.129-0.995-0.386-1.286c-0.257-0.293-0.577-0.438-0.959-0.438c-0.388,0-0.709,0.146-0.965,0.436
			C172.35,28.26,172.222,28.698,172.222,29.284z"/>
	</g>
</g>
<path fill="none" stroke="#808184" stroke-width="1.0001" d="M147.17,38.854c6.587,0,11.896-4.221,11.896-9.465
	c0-5.244-5.309-9.529-11.896-9.529c-6.522,0-11.832,4.285-11.832,9.529C135.338,34.633,140.646,38.854,147.17,38.854z"/>
<rect x="230.524" y="23.12" fill="none" stroke="#231F20" stroke-width="0.5" width="98.989" height="11.127"/>
<g enable-background="new    ">
	<path fill="#231F20" d="M232.229,30.922v-6.317h2.383c0.42,0,0.74,0.02,0.962,0.06c0.31,0.052,0.569,0.15,0.779,0.295
		s0.379,0.348,0.507,0.61c0.128,0.261,0.191,0.549,0.191,0.862c0,0.537-0.172,0.992-0.514,1.364s-0.96,0.558-1.853,0.558h-1.621
		v2.568H232.229z M233.065,27.607h1.634c0.54,0,0.924-0.101,1.15-0.301c0.227-0.202,0.341-0.484,0.341-0.85
		c0-0.265-0.067-0.491-0.201-0.679c-0.133-0.188-0.31-0.312-0.527-0.373c-0.141-0.037-0.4-0.056-0.779-0.056h-1.616L233.065,27.607
		L233.065,27.607z"/>
	<path fill="#231F20" d="M238.009,30.922v-4.577h0.698v0.694c0.179-0.325,0.343-0.539,0.493-0.642s0.316-0.155,0.498-0.155
		c0.261,0,0.527,0.083,0.797,0.25l-0.268,0.72c-0.189-0.112-0.379-0.168-0.568-0.168c-0.17,0-0.322,0.051-0.457,0.153
		c-0.135,0.102-0.23,0.244-0.288,0.425c-0.087,0.274-0.13,0.577-0.13,0.905v2.396L238.009,30.922L238.009,30.922z"/>
	<path fill="#231F20" d="M244.089,29.448l0.803,0.099c-0.127,0.469-0.361,0.832-0.703,1.09s-0.778,0.389-1.311,0.389
		c-0.67,0-1.199-0.207-1.593-0.619c-0.392-0.412-0.588-0.99-0.588-1.734c0-0.77,0.198-1.367,0.595-1.792s0.91-0.638,1.543-0.638
		c0.611,0,1.111,0.208,1.499,0.625c0.389,0.417,0.582,1.003,0.582,1.758c0,0.046-0.001,0.115-0.004,0.207h-3.413
		c0.028,0.502,0.171,0.889,0.428,1.154c0.255,0.268,0.573,0.402,0.955,0.402c0.284,0,0.527-0.076,0.729-0.225
		S243.971,29.775,244.089,29.448z M241.542,28.193h2.557c-0.035-0.385-0.134-0.672-0.293-0.865
		c-0.247-0.298-0.567-0.448-0.961-0.448c-0.356,0-0.656,0.119-0.899,0.356C241.702,27.477,241.567,27.795,241.542,28.193z"/>
	<path fill="#231F20" d="M248.852,29.246l0.763,0.099c-0.084,0.526-0.297,0.938-0.64,1.234c-0.345,0.298-0.767,0.446-1.267,0.446
		c-0.626,0-1.13-0.205-1.51-0.614c-0.381-0.409-0.571-0.996-0.571-1.761c0-0.493,0.082-0.926,0.246-1.297
		c0.163-0.371,0.412-0.647,0.747-0.833c0.335-0.186,0.699-0.278,1.093-0.278c0.497,0,0.903,0.126,1.221,0.377
		c0.314,0.251,0.519,0.608,0.606,1.071l-0.754,0.115c-0.072-0.307-0.199-0.539-0.382-0.694s-0.403-0.232-0.661-0.232
		c-0.391,0-0.709,0.14-0.953,0.42c-0.244,0.28-0.366,0.723-0.366,1.33c0,0.615,0.118,1.062,0.354,1.34
		c0.235,0.278,0.543,0.418,0.923,0.418c0.304,0,0.56-0.093,0.763-0.279C248.667,29.921,248.797,29.633,248.852,29.246z"/>
	<path fill="#231F20" d="M253.264,30.357c-0.287,0.244-0.564,0.416-0.83,0.518c-0.267,0.1-0.552,0.15-0.855,0.15
		c-0.502,0-0.889-0.123-1.159-0.369c-0.27-0.245-0.403-0.559-0.403-0.941c0-0.224,0.051-0.429,0.151-0.613
		c0.104-0.186,0.235-0.334,0.401-0.446c0.165-0.112,0.351-0.197,0.558-0.255c0.152-0.039,0.382-0.078,0.689-0.115
		c0.626-0.075,1.088-0.164,1.384-0.268c0.002-0.105,0.004-0.174,0.004-0.203c0-0.315-0.073-0.539-0.22-0.667
		c-0.198-0.175-0.493-0.263-0.884-0.263c-0.364,0-0.635,0.064-0.809,0.192s-0.303,0.354-0.386,0.679l-0.759-0.104
		c0.068-0.323,0.183-0.585,0.341-0.785c0.158-0.2,0.387-0.354,0.686-0.461c0.3-0.107,0.646-0.162,1.038-0.162
		c0.392,0,0.708,0.046,0.952,0.138c0.244,0.092,0.424,0.208,0.539,0.347c0.115,0.14,0.195,0.315,0.241,0.528
		c0.025,0.132,0.039,0.371,0.039,0.716v1.034c0,0.722,0.017,1.177,0.049,1.368c0.033,0.191,0.099,0.374,0.196,0.549h-0.811
		C253.338,30.762,253.286,30.572,253.264,30.357z M253.199,28.625c-0.282,0.115-0.704,0.212-1.268,0.293
		c-0.318,0.046-0.544,0.098-0.678,0.155c-0.132,0.058-0.232,0.142-0.306,0.252c-0.071,0.11-0.107,0.233-0.107,0.368
		c0,0.207,0.078,0.38,0.234,0.518c0.157,0.139,0.386,0.207,0.688,0.207c0.299,0,0.563-0.064,0.797-0.195
		c0.232-0.132,0.403-0.311,0.514-0.537c0.083-0.176,0.125-0.435,0.125-0.776V28.625z"/>
	<path fill="#231F20" d="M258.185,30.922V30.25c-0.356,0.518-0.84,0.775-1.452,0.775c-0.271,0-0.522-0.051-0.757-0.154
		c-0.233-0.104-0.407-0.232-0.521-0.391c-0.114-0.155-0.192-0.348-0.239-0.574c-0.031-0.152-0.048-0.395-0.048-0.725v-2.834h0.775
		v2.539c0,0.405,0.017,0.679,0.048,0.818c0.049,0.204,0.152,0.364,0.312,0.479c0.156,0.117,0.353,0.176,0.586,0.176
		c0.231,0,0.45-0.061,0.654-0.18c0.203-0.119,0.349-0.281,0.434-0.486s0.127-0.504,0.127-0.895v-2.452h0.774v4.577h-0.692V30.922z"
		/>
	<path fill="#231F20" d="M261.788,30.229l0.112,0.685c-0.219,0.046-0.414,0.069-0.586,0.069c-0.282,0-0.5-0.045-0.655-0.135
		c-0.155-0.089-0.265-0.205-0.328-0.351c-0.062-0.146-0.095-0.451-0.095-0.916v-2.633h-0.568v-0.604h0.568v-1.133l0.771-0.465v1.599
		h0.78v0.604h-0.78v2.676c0,0.221,0.015,0.363,0.041,0.426c0.027,0.063,0.072,0.114,0.135,0.151
		c0.062,0.038,0.149,0.056,0.265,0.056C261.534,30.258,261.647,30.248,261.788,30.229z"/>
	<path fill="#231F20" d="M262.55,25.497v-0.892h0.775v0.892H262.55z M262.55,30.922v-4.577h0.775v4.577H262.55z"/>
	<path fill="#231F20" d="M264.218,28.634c0-0.848,0.235-1.476,0.707-1.883c0.395-0.339,0.873-0.509,1.439-0.509
		c0.629,0,1.143,0.207,1.542,0.619c0.399,0.413,0.6,0.982,0.6,1.708c0,0.59-0.089,1.053-0.266,1.391s-0.434,0.6-0.771,0.787
		c-0.339,0.188-0.706,0.279-1.105,0.279c-0.641,0-1.159-0.205-1.554-0.615C264.415,29.998,264.218,29.406,264.218,28.634z
		 M265.015,28.634c0,0.586,0.128,1.025,0.384,1.316s0.577,0.438,0.966,0.438c0.385,0,0.705-0.146,0.961-0.44
		c0.255-0.293,0.383-0.74,0.383-1.341c0-0.565-0.128-0.994-0.386-1.287c-0.257-0.292-0.576-0.438-0.958-0.438
		c-0.389,0-0.71,0.146-0.966,0.436C265.143,27.609,265.015,28.047,265.015,28.634z"/>
	<path fill="#231F20" d="M269.415,30.922v-4.577h0.698v0.651c0.336-0.503,0.821-0.754,1.456-0.754c0.276,0,0.529,0.05,0.761,0.149
		c0.232,0.099,0.404,0.229,0.521,0.39c0.113,0.161,0.194,0.352,0.24,0.572c0.028,0.145,0.043,0.396,0.043,0.754v2.814h-0.774v-2.783
		c0-0.316-0.03-0.553-0.091-0.709c-0.062-0.158-0.167-0.283-0.321-0.375c-0.153-0.093-0.334-0.14-0.541-0.14
		c-0.33,0-0.615,0.105-0.855,0.314c-0.238,0.209-0.358,0.607-0.358,1.193v2.5H269.415z"/>
	<path fill="#231F20" d="M274.014,29.557l0.767-0.121c0.044,0.308,0.163,0.543,0.36,0.707c0.195,0.164,0.472,0.246,0.824,0.246
		c0.356,0,0.62-0.074,0.793-0.219s0.26-0.314,0.26-0.511c0-0.175-0.076-0.313-0.229-0.414c-0.105-0.069-0.371-0.157-0.793-0.263
		c-0.568-0.145-0.963-0.269-1.183-0.373c-0.221-0.105-0.388-0.25-0.5-0.436c-0.114-0.186-0.171-0.39-0.171-0.613
		c0-0.205,0.047-0.394,0.141-0.566c0.093-0.174,0.221-0.318,0.381-0.433c0.121-0.089,0.285-0.165,0.494-0.227
		c0.208-0.062,0.432-0.093,0.67-0.093c0.358,0,0.674,0.052,0.945,0.155c0.271,0.103,0.473,0.244,0.602,0.42
		c0.129,0.176,0.22,0.413,0.269,0.708l-0.76,0.104c-0.033-0.235-0.135-0.419-0.3-0.551c-0.165-0.132-0.397-0.198-0.7-0.198
		c-0.355,0-0.609,0.059-0.763,0.176c-0.151,0.118-0.229,0.255-0.229,0.414c0,0.102,0.031,0.191,0.095,0.271
		c0.062,0.083,0.162,0.152,0.298,0.207c0.077,0.029,0.306,0.095,0.686,0.197c0.549,0.146,0.932,0.268,1.147,0.36
		c0.217,0.095,0.388,0.229,0.511,0.407c0.124,0.178,0.187,0.398,0.187,0.664c0,0.259-0.075,0.502-0.228,0.73
		c-0.149,0.229-0.367,0.404-0.651,0.529s-0.606,0.188-0.966,0.188c-0.596,0-1.049-0.123-1.359-0.371
		C274.299,30.408,274.1,30.042,274.014,29.557z"/>
</g>
<g>
	<g enable-background="new    ">
		<path fill="#231F20" d="M288.632,30.922v-2.676l-2.436-3.641h1.018l1.245,1.905c0.23,0.356,0.444,0.713,0.644,1.068
			c0.188-0.33,0.419-0.702,0.688-1.116l1.225-1.857h0.974l-2.521,3.641v2.676H288.632z"/>
		<path fill="#231F20" d="M294.962,29.448l0.803,0.099c-0.127,0.469-0.361,0.832-0.703,1.09s-0.778,0.389-1.311,0.389
			c-0.67,0-1.2-0.207-1.593-0.619c-0.392-0.412-0.588-0.99-0.588-1.734c0-0.77,0.198-1.367,0.595-1.792s0.91-0.638,1.543-0.638
			c0.611,0,1.111,0.208,1.499,0.625c0.389,0.417,0.582,1.003,0.582,1.758c0,0.046-0.001,0.115-0.004,0.207h-3.413
			c0.028,0.502,0.171,0.889,0.427,1.154c0.256,0.268,0.574,0.402,0.956,0.402c0.284,0,0.527-0.076,0.729-0.225
			S294.844,29.775,294.962,29.448z M292.415,28.193h2.557c-0.035-0.385-0.134-0.672-0.293-0.865
			c-0.247-0.298-0.567-0.448-0.962-0.448c-0.355,0-0.655,0.119-0.898,0.356C292.575,27.477,292.44,27.795,292.415,28.193z"/>
		<path fill="#231F20" d="M296.427,29.557l0.767-0.121c0.044,0.308,0.163,0.543,0.36,0.707c0.195,0.164,0.472,0.246,0.824,0.246
			c0.356,0,0.62-0.074,0.793-0.219s0.26-0.314,0.26-0.511c0-0.175-0.076-0.313-0.229-0.414c-0.105-0.069-0.371-0.157-0.793-0.263
			c-0.569-0.145-0.963-0.269-1.183-0.373c-0.221-0.105-0.388-0.25-0.5-0.436c-0.114-0.186-0.171-0.39-0.171-0.613
			c0-0.205,0.047-0.394,0.141-0.566c0.093-0.174,0.221-0.318,0.381-0.433c0.121-0.089,0.285-0.165,0.494-0.227
			c0.208-0.062,0.432-0.093,0.67-0.093c0.358,0,0.674,0.052,0.945,0.155c0.271,0.103,0.473,0.244,0.602,0.42
			c0.129,0.176,0.219,0.413,0.269,0.708l-0.76,0.104c-0.033-0.235-0.135-0.419-0.3-0.551c-0.165-0.132-0.397-0.198-0.7-0.198
			c-0.355,0-0.609,0.059-0.763,0.176c-0.152,0.118-0.229,0.255-0.229,0.414c0,0.102,0.031,0.191,0.095,0.271
			c0.062,0.083,0.162,0.152,0.298,0.207c0.077,0.029,0.306,0.095,0.685,0.197c0.55,0.146,0.933,0.268,1.148,0.36
			c0.217,0.095,0.388,0.229,0.511,0.407c0.124,0.178,0.187,0.398,0.187,0.664c0,0.259-0.075,0.502-0.228,0.73
			c-0.149,0.229-0.368,0.404-0.651,0.529c-0.284,0.125-0.606,0.188-0.967,0.188c-0.595,0-1.048-0.123-1.358-0.371
			C296.712,30.408,296.513,30.042,296.427,29.557z"/>
	</g>
</g>
<g>
	<g enable-background="new    ">
		<path fill="#231F20" d="M313.256,30.922v-6.317h0.858l3.317,4.959v-4.959h0.802v6.317h-0.857l-3.317-4.964v4.964H313.256z"/>
		<path fill="#231F20" d="M319.25,28.634c0-0.848,0.235-1.476,0.707-1.883c0.395-0.339,0.873-0.509,1.439-0.509
			c0.629,0,1.143,0.207,1.542,0.619c0.398,0.413,0.6,0.982,0.6,1.708c0,0.59-0.089,1.053-0.266,1.391s-0.435,0.6-0.771,0.787
			c-0.338,0.188-0.706,0.279-1.104,0.279c-0.642,0-1.159-0.205-1.554-0.615C319.447,29.998,319.25,29.406,319.25,28.634z
			 M320.047,28.634c0,0.586,0.128,1.025,0.385,1.316c0.256,0.291,0.576,0.438,0.966,0.438c0.385,0,0.705-0.146,0.961-0.44
			c0.255-0.293,0.383-0.74,0.383-1.341c0-0.565-0.128-0.994-0.386-1.287c-0.257-0.292-0.576-0.438-0.958-0.438
			c-0.39,0-0.71,0.146-0.966,0.436C320.175,27.609,320.047,28.047,320.047,28.634z"/>
	</g>
</g>
<path fill="none" stroke="#808184" stroke-width="1.0001" d="M294.406,37.766c5.948,0,10.745-4.285,10.745-9.529
	c0-5.18-4.795-9.464-10.745-9.464c-5.884,0-10.744,4.285-10.744,9.464C283.662,33.48,288.522,37.766,294.406,37.766z"/>
</svg>
