<?xml version="1.0" encoding="utf-8"?>
<!-- Generator: Adobe Illustrator 15.0.2, SVG Export Plug-In . SVG Version: 6.00 Build 0)  -->
<!DOCTYPE svg PUBLIC "-//W3C//DTD SVG 1.1//EN" "http://www.w3.org/Graphics/SVG/1.1/DTD/svg11.dtd">
<svg version="1.1" id="Layer_1" xmlns="http://www.w3.org/2000/svg" xmlns:xlink="http://www.w3.org/1999/xlink" x="0px" y="0px"
	 width="368px" height="60px" viewBox="0 0 368 60" enable-background="new 0 0 368 60" xml:space="preserve">
<rect x="0.5" y="0.5" fill="none" stroke="#000000" width="367" height="59"/>
<rect x="59.296" y="21.992" fill="none" stroke="#231F20" stroke-width="0.5" width="125.425" height="13.104"/>
<g>
	<text transform="matrix(1 0 0 1 22.4321 31.498)" fill="#231F20" font-family="'Arial-BoldMT'" font-size="9.936">RVD:</text>
</g>
<g>
	<text transform="matrix(1 0 0 1 61.6719 31.4238)" fill="#231F20" font-family="'ArialMT'" font-size="9.936">Test done </text>
</g>
<g>
	<text transform="matrix(1 0 0 1 134.752 31.4238)" fill="#231F20" font-family="'ArialMT'" font-size="9.936">Yes</text>
</g>
<g>
	<text transform="matrix(1 0 0 1 163.3359 31.4238)" fill="#231F20" font-family="'ArialMT'" font-size="9.936">No</text>
</g>
<path fill="none" stroke="#808184" stroke-width="1.0001" d="M170.392,39.848c6.696,0,12.096-4.824,12.096-10.728
	c0-5.904-5.4-10.656-12.096-10.656c-6.624,0-12.096,4.752-12.096,10.656C158.296,35.023,163.768,39.848,170.392,39.848z"/>
<rect x="236.96" y="21.565" fill="none" stroke="#231F20" stroke-width="0.5" width="111.442" height="12.529"/>
<text transform="matrix(1 0 0 1 238.1113 30.3501)" fill="#231F20" font-family="'ArialMT'" font-size="9.936">Precautions </text>
<g>
	<text transform="matrix(1 0 0 1 299.6074 30.3501)" fill="#231F20" font-family="'ArialMT'" font-size="9.936">Yes</text>
</g>
<g>
	<text transform="matrix(1 0 0 1 329.3438 30.3501)" fill="#231F20" font-family="'ArialMT'" font-size="9.936">No</text>
</g>
</svg>
