<?xml version="1.0" encoding="utf-8"?>
<!-- Generator: Adobe Illustrator 15.1.0, SVG Export Plug-In . SVG Version: 6.00 Build 0)  -->
<!DOCTYPE svg PUBLIC "-//W3C//DTD SVG 1.1//EN" "http://www.w3.org/Graphics/SVG/1.1/DTD/svg11.dtd">
<svg version="1.1" id="Layer_1" xmlns="http://www.w3.org/2000/svg" xmlns:xlink="http://www.w3.org/1999/xlink" x="0px" y="0px"
	 width="325.984px" height="211.391px" viewBox="0 0 325.984 211.391" enable-background="new 0 0 325.984 211.391"
	 xml:space="preserve">
<metadata><?xpacket begin="﻿" id="W5M0MpCehiHzreSzNTczkc9d"?>
<x:xmpmeta xmlns:x="adobe:ns:meta/" x:xmptk="Adobe XMP Core 5.0-c060 61.134777, 2010/02/12-17:32:00        ">
   <rdf:RDF xmlns:rdf="http://www.w3.org/1999/02/22-rdf-syntax-ns#">
      <rdf:Description rdf:about=""
            xmlns:dc="http://purl.org/dc/elements/1.1/">
         <dc:format>image/svg+xml</dc:format>
         <dc:title>
            <rdf:Alt>
               <rdf:li xml:lang="x-default">figure1-1</rdf:li>
            </rdf:Alt>
         </dc:title>
      </rdf:Description>
      <rdf:Description rdf:about=""
            xmlns:xmp="http://ns.adobe.com/xap/1.0/"
            xmlns:xmpGImg="http://ns.adobe.com/xap/1.0/g/img/">
         <xmp:CreatorTool>Adobe Illustrator CS5.1</xmp:CreatorTool>
         <xmp:CreateDate>2015-02-12T14:35:38+02:00</xmp:CreateDate>
         <xmp:ModifyDate>2015-02-12T14:35:38+02:00</xmp:ModifyDate>
         <xmp:MetadataDate>2015-02-12T14:35:38+02:00</xmp:MetadataDate>
         <xmp:Thumbnails>
            <rdf:Alt>
               <rdf:li rdf:parseType="Resource">
                  <xmpGImg:width>256</xmpGImg:width>
                  <xmpGImg:height>168</xmpGImg:height>
                  <xmpGImg:format>JPEG</xmpGImg:format>
                  <xmpGImg:image>/9j/4AAQSkZJRgABAgEBMAEwAAD/7QAsUGhvdG9zaG9wIDMuMAA4QklNA+0AAAAAABABMMzNAAEA&#xA;AQEwzM0AAQAB/+4ADkFkb2JlAGTAAAAAAf/bAIQABgQEBAUEBgUFBgkGBQYJCwgGBggLDAoKCwoK&#xA;DBAMDAwMDAwQDA4PEA8ODBMTFBQTExwbGxscHx8fHx8fHx8fHwEHBwcNDA0YEBAYGhURFRofHx8f&#xA;Hx8fHx8fHx8fHx8fHx8fHx8fHx8fHx8fHx8fHx8fHx8fHx8fHx8fHx8fHx8f/8AAEQgAqAEAAwER&#xA;AAIRAQMRAf/EAaIAAAAHAQEBAQEAAAAAAAAAAAQFAwIGAQAHCAkKCwEAAgIDAQEBAQEAAAAAAAAA&#xA;AQACAwQFBgcICQoLEAACAQMDAgQCBgcDBAIGAnMBAgMRBAAFIRIxQVEGE2EicYEUMpGhBxWxQiPB&#xA;UtHhMxZi8CRygvElQzRTkqKyY3PCNUQnk6OzNhdUZHTD0uIIJoMJChgZhJRFRqS0VtNVKBry4/PE&#xA;1OT0ZXWFlaW1xdXl9WZ2hpamtsbW5vY3R1dnd4eXp7fH1+f3OEhYaHiImKi4yNjo+Ck5SVlpeYmZ&#xA;qbnJ2en5KjpKWmp6ipqqusra6voRAAICAQIDBQUEBQYECAMDbQEAAhEDBCESMUEFURNhIgZxgZEy&#xA;obHwFMHR4SNCFVJicvEzJDRDghaSUyWiY7LCB3PSNeJEgxdUkwgJChgZJjZFGidkdFU38qOzwygp&#xA;0+PzhJSktMTU5PRldYWVpbXF1eX1RlZmdoaWprbG1ub2R1dnd4eXp7fH1+f3OEhYaHiImKi4yNjo&#xA;+DlJWWl5iZmpucnZ6fkqOkpaanqKmqq6ytrq+v/aAAwDAQACEQMRAD8A9U4q7FXYqhdS09L+2Nu8&#xA;09uCQ3qW0rQybduaUNMVSn/Btt/1ddV/6T5/+asVd/g22/6uuq/9J8//ADVirv8ABtt/1ddV/wCk&#xA;+f8A5qxVQ1HyQlxpGo2MOp3pkvrWW2Bu7iW5iX1BSrRMy8h2O42qMVYvpX5Q6xp919ctNeXTZBLq&#xA;k0dpp9sIrVH1JGCSemzNykhYrxbb4FC0G5KqjZflR59jv3nufPd9LbN6xjtFkugELSmWH4zOxYJ0&#xA;avUfDsu2KvRvL+nTaZoWnadPMbieztooJrgl2MjxoFZ6yM7/ABEV+JiffFUeCCSAdx1GKuxV2Kux&#xA;VAQ6LZw3898kl0Z7lSkiPd3TwgMQT6cDyNDGfh2KICPpOKqMflrTk02TTlmvjbyv6jO2oXzThhTZ&#xA;bhpjOq/D9lXA67bnFVSXQbGRrFmluwdPCiDje3aBuFKeuFlAuPs7+tyrvXqcVXx6NaR6hPfrJcme&#xA;4QxyI13ctCAafYgaQwxt8P2kQHr4nFWG/mH+Vk/mZNJbTNXm0m60dWFvdFpZpSxaMxs0rSeqWQK9&#xA;GLVq1a4qlOr/AJQebr2G5Nv5ultb83UMthfhZ3mgt4GvqQeq05maqajw5epWgNO1FWR+UfJfmTSd&#xA;cm1TWNffWBJDPDFFIJAIvWufXHphpJFChOK9OWwqxAUKqzPFXYq7FXYq7FXYq7FXYq7FXYq7FXYq&#xA;7FXYq7FXYq7FXYq7FXYq7FUq07/jvav/ANG//Js4qmuKuxV2KuxV2KuxV2KuxV2KuxV2KuxV2Kux&#xA;V2KuxV2KuxV2KuxV2KuxV2KpX5kmu4tMX6rcPazSXVnD68YjZ1Sa7ijeglWRN0cjdcVa/Q2o/wDV&#xA;+vv+Asf+ybFXfobUf+r9ff8AAWP/AGTYq79Daj/1fr7/AICx/wCybFXfobUf+r9ff8BY/wDZNirv&#xA;0NqP/V+vv+Asf+ybFXfobUf+r9ff8BY/9k2Ku/Q2o/8AV+vv+Asf+ybFUr0/R9QOuasP05egj6vV&#xA;gllU/uz1/wBGpiqafobUf+r9ff8AAWP/AGTYq79Daj/1fr7/AICx/wCybFXfobUf+r9ff8BY/wDZ&#xA;Nirv0NqP/V+vv+Asf+ybFXfobUf+r9ff8BY/9k2Ku/Q2o/8AV+vv+Asf+ybFXfobUf8Aq/X3/AWP&#xA;/ZNirv0NqP8A1fr7/gLH/smxV36G1H/q/X3/AAFj/wBk2Ku/Q2o/9X6+/wCAsf8AsmxV36G1H/q/&#xA;X3/AWP8A2TYqgbN7e90xdUtfNc82murSLeIdPMXFOXM8/q1Ph4Ny8KHFUVb6bd3EEc8HmG9lhlUP&#xA;HIq2JVlYVBBFt3xVU/Q2o/8AV+vv+Asf+ybFXfobUf8Aq/X3/AWP/ZNirv0NqP8A1fr7/gLH/smx&#xA;VDyxalYalpQOq3N1FdXLwTQzpahSotZpQQYoYmBDRL+1iqe4q7FXYq7FXYq7FUq8zf8AHOh/5jtP&#xA;/wCo6HFU1xV2KuxV2KuxV2KuxVKtO/472r/9G/8AybOKprirsVdirsVdirsVdirsVdirsVdiry7W&#xA;PyL8oPp9Jr/VNo0t5XWaHlID68QZlaFowQL59lUDpt1qqzvyx5Y07y3pp07Ti/1b1DKFfhszAByA&#xA;ioo5sC7bbsxPfFU2xV2KuxVKtZ/46Og/8xz/APUDc4qmuKuxV2KuxV2KuxVKvM3/ABzof+Y7T/8A&#xA;qOhxVNcVdirsVWmSMSLGWAkYFlSo5FVIDEDwHIV+eKrsVdirsVSrTv8Ajvav/wBG/wDybOKprirs&#xA;VdirsVdirsVdirsVdirsVdiqU+ZL0WtkDJG31dmTnONwhEikch1o3j47d8VTG1mkmt0lkiMLPv6b&#xA;faAr8PLwNOo7Yqq4q7FXYqlWs/8AHR0H/mOf/qBucVTXFXYq7FXYqwzzt+bHlfyZLKmtJdgQrbuz&#xA;wQ+qvG69cRkUav2rVlO3Ur1rsqjfI/5g6F5ztbm50lLiNLVkSRbqL0mJda1XdgQGDId/tKfmVUx8&#xA;zf8AHOh/5jtP/wCo6HFU1xV2KuxVjFxquhf4ij1FbaWW+tbo+Xpb3kwjiF1FFdmicuDq0ohiLceQ&#xA;fbscVZPirsVdiqVad/x3tX/6N/8Ak2cVTXFXYq7FXYq7FXYq7FXYq7FXYq7FVC+uZLa0knjgkunS&#xA;nGCKnNiSBQciB37nFVfFXYq7FXYqlWs/8dHQf+Y5/wDqBucVReq6lbaXpd5qd2SLWxgkuZyo5MI4&#xA;ULtQdzRcVSA/mh5Ba6tbODW7W5vLy4S1treCQSO8skphFAvYMrVPgPlirKcVdiqUa35P8ra6wbWd&#xA;KttQZeFDcRrJ/diRU6/yi4kp/rHFVDT/ACJ5U0yFoNKsf0XC7B5E0+WazDsqLGpf6u8fKiRqBXp9&#xA;JxVK/OflOKXSIVtNQv7OX69Yj1ReXUpo13Ev2ZZWXYtWvtiren/pryxqFrb6ncDU9N1OZbVdR53I&#xA;lgnIYwrLHPNcoVlb4PUjKfGVUoa8gqzHFWnbijNQtxBNBuTTwxVIxP5i/wAGteQWcMHmSSyNyLGn&#xA;7oXrR8/SY1Ff3nwlq++Kp4pJUEgqSKlTSo9jSoxVvFXYqlWnf8d7V/8Ao3/5NnFU1xV2KuxV2Kux&#xA;V2KuxV2Kpdo3mTQNas0vdJ1C3vrSRjGk0EiupZWZSAQfFDiqv+ldL9X0vrkHq8RJ6fqJy4Ho1K1o&#xA;fHFVkmuaNHLHFJfQJLLKIIo2kUM8ppRFUmpb4hsMVUdYtfr4sIY7wQL9ahumVWo00du3q8EoRsWV&#xA;S3+T88VTPFXYq7FVskayRtGxIVwVJVirUIpsykEH3GKsY1jy5p41DQwJr34r1wa396f+PK5O1Ztu&#xA;nbFUfdeUNFuraW1uTeTW06NFPDJf3rI6OOLKwM1CCDQjFUns/wAo/ItnrUWqwWADW6AWtqTWCKQT&#xA;m4MyAjn6heg+JiAoCgAYqzLFUt8y39/p/l/Ub7T4PrN9bW8sttBxaTlIqkqOCUd9/wBldz0G+KsP&#xA;8q+d/Omoa1a2V9pIl02a6vIJdYitp7SJUgDm3PpTySv++WLnzrxHJV61OKvQsVSrzN/xzof+Y7T/&#xA;APqOhxVT85addah5Y1C3sxy1BIxcacD0+t2zCe2J+U0aHFUfpWo22p6XZ6lanlbX0EdzAT1McqB1&#xA;/BsVQ3mCN7m0isIb8WF1dzwiNw/CSRIpFmuI4qFW5NBG4+Hp17YqmeKpb5egmtdPNjPe/X7izllj&#xA;eUuXkVGcyQJKWLN6iwSR8i3Xr3xVMsVdiqVad/x3tX/6N/8Ak2cVTXFXYq7FXYq7FXYq7FXYq+ev&#xA;M35Yfl35Sv4473UNVnW1t4Z7WFUikkk9JpxFE1wIvgZ34RI7AcR8IPJy2KoHUvLn5G2/ly3Q3+rf&#xA;U4xHPe3lpFASvoyC0rK/1UcuO9FiTdSCBxMeKsm0byd+UHm3UYI9NvNRE04jvYIBF9VAt7KgCxu1&#xA;ujJHW4Ufu2DfDQEcWxV6jaabpCa1ZQJcO9/oOneitvxRE9C9ZUSZlSNE5k6eyr6fEAcvhoVxVPMV&#xA;dirsVdiqVaz/AMdHQf8AmOf/AKgbnFU1xV2KuxV5PF5p/OCf9CKmk8LbnBJqF40dJZU9AmRJIwkg&#xA;RWYq7FOLKT6aqxRziqvF5q/OVtRt0XQYBaXdt6sjzxODbXKloDEfTlIKF4xN9pvhagY7HFU68kat&#xA;59v722n8x2wsVvLW5lm01EHC1khlhig/eFQ9Zh6z8SzUFN+2Ksi8zf8AHOh/5jtP/wCo6HFU1xVj&#xA;nkUfVtNvNHJ+LRb64s1X+WBmFzaoP9W1uIlxVFpJpV/5nkAjke+0OEIZif3Km+ozIBXeVUgQkldl&#xA;cUPxNiqcYqlNv+i7LzHcW8fNb/V4jfSIf7txaCK2d1/ygrxK3tTFU2xV2KpVp3/He1f/AKN/+TZx&#xA;VNcVdirsVdirsVdirsVdiqCvtE0bUG539hbXblVUtPDHIeKNzUVcHZX+Ie++Koa68n+Urvl9a0Sw&#xA;uObF39W1herF3kJPJTuXldvmzHucVW6Do+iWyC4s9NtLOaEz2kT28EcRWCOdlEalQCF+AEjpXFV+&#xA;i3Gm315qd/aQMkqzmwnuW6TGzqp47n4Y5HkT/WBxVNcVdirsVdiqVaz/AMdHQf8AmOf/AKgbnFUX&#xA;qs17Bpd5NYRLPfRQSPaQNUK8qoTGhpvRmoMVeYWP54Xly9rbvoksM+ozQrZSMG4CO4Q3C+qnVWSA&#xA;fFv9sgAU5UVQ1x/zkILazuopNAun1aAMkSItIXkEaPzLMfgjQScn5NXjQivLZV7FirH/ADj550Py&#xA;lawXGqGRvrLSLBFCqs7GGF5m2ZkHROI33ZlXqcVUfIf5haD5402fUdFW4W2gl9Em5j9JmIUHkoq2&#xA;1SV37g4qmPmb/jnQ/wDMdp//AFHQ4qmuKsdtf9C8+3sHSLWLCK7iUd5rKT0Lhj847i2H0Yqmehya&#xA;nLYmbU4EtruSadvRSm0QlYQcyGcF/QCciDSvTFUfiqW6vO9pPYXUdj9bdrhbSWVV5Sww3JCs60DH&#xA;j6ix8+g4/Efs4qmLMqqWYhVUVZjsAB3OKsfHn/yvIa2c1xqMVafWNOsry/gqO3rWkM0X/DYqllj5&#xA;88rw63qsl7dSaZE31ek2pW1zYR7Rn9u7jhX8cVZfaXlpeQLcWk8dxA/2JYmV0PyZSRiqrirsVdir&#xA;sVdirsVdirsVWTCYwuIWVJSD6bMOShu1QCKj6cVSK1uNUttPnN2YNNklllishM3MNc3M7GImhWq8&#xA;nACjdvbFU20qyksdMtLOS4ku5LaFIpLuYlpJWRQpkcmvxMRU4qisVdirsVdiqVaz/wAdHQf+Y5/+&#xA;oG5xVFavqdtpWk3uqXQY21hBLczhBVuEKF24gkVNF2xVjx/NbyA09vbwaxBdXN3PFawQQEyO0k1y&#xA;LRdgOglPxeC/F0xVlmKuxVA6voWi6zbrbatYwX9upYrFcRrIoLo0bGjA9Udl+RxVA2Xknyvp8Bt9&#xA;LsRpcDOZZItOeSyV3KqnJxbNFzPGNQOVadsVQXmPy5p66fCRNe/722A3v709b2Ed5sVT+x0y2sef&#xA;ovO/qU5evcT3FONacfWeTj13p1xViv5lWrMmjzxXp02ee5k0n68u8iLqsD2yemKrVhc+g43/AGcV&#xA;ZmihEVF+yoAFSSaD3OKt4qg9ai1KbR76LS5hbanJbyrY3DAMsc5QiJyCCCFehO2KsalhPm/Wriyv&#xA;Vr5d0ZkivrMHlFeagUWRopTQepBbKy1X7LyGjfYoVWYIiIioihUUAKoFAANgABiqV6d/x3tX/wCj&#xA;f/k2cVQ135E8qXE5ul09LO9Y1a9sGexuT/rTWrRSMPZiRiqg2l+c9M+LTNUj1iBf+PHVlEcp8FS8&#xA;tkHED/iyCQnu2Kqln52003MVjrEMuhanKQsdtfhUSV26Lb3KFreYnsqPzp1UYqyHFXYq7FWHebPz&#xA;R8v+VL94tbEkFjH9Wja9VWlrcXnqmKIRRqz04WzlnNANhv2VSy9/PPybavEBDeyxvNbQPIsHHg93&#xA;H6iAo5V/hXdtunSvQqt/8r18hi7lgMlzxjf0klW3kcSMIPrBKKgZuPEgVNKttTocVT7yt+YGgeaL&#xA;64ttHdp47aGKWWcgqKzKsipQ714OrHwrQ7g4qjpXtdR18WU9k7jRxDfQ3jEiMXE6zQhFAoHZI+Ra&#xA;uw5KevRVN8VdirsVdiq2SNZI2jYkK4KkqxVqEU2ZSCD7jFWMax5c08ahoYE178V64Nb+9P8Ax5XJ&#xA;2rNt07Yqj7ryhot1bS2tybya2nRop4ZL+9ZHRxxZWBmoQQaEYqlVn+U3kS01VdRg01A0aoIbc0MU&#xA;bpci7Eq1HPn6qr1agUcQAu2KsvxV2KuxV2KpV5m/450P/Mdp/wD1HQ4qmuKsO8/WtvrcFzo8Vq8+&#xA;raVaNrWmz1IjhvUEkVmSFPxFmElART4a9aEKsp02/t9R0611C2PK3vIY7iFvFJVDqfuOKojFUp80&#xA;6zLpGiT3Vsiy6hJxt9Nt2NBLdzsIrdDTfiZGHI9lqe2KoH8v9DsfLvl5fLltfNqE2lSyreTuoSQz&#xA;XTG8PIKANxcg7frrirJMVSrTv+O9q/8A0b/8mziqa4q7FVG8s7O9tpLS8gjubWYcZYJkWSN18GVg&#xA;QR88VY4fK+raMTN5VvOMA3bQb93ksmHhBLR5rU/6vOMf7774qjtI82WV9efoy7ik0vW1UudMu+Ky&#xA;Oq/akgdS0c8Y7tGxp+1xO2Kp3irHPOlhp36OfVG0K01nUbcxRwrcQLK/pvMqPRuDsAiyM29F/mZV&#xA;qwVeYJ521xoFvZvy1tFsJfqc2muI/UaaS+MRUIRDx58GoaHZhuaVxVW0jW/N7m29f8srGIQtF9Zl&#xA;FtJDT9wiyGFPQlPw8nQbn4dt98Veo+X4NLs9Eg1RtNt9DluLWK41CMRR25ib0lLrKRSnp04mp2pi&#xA;qN0WDVYdOjTVZ0uL9mkkmeMUjX1JGdYk2UlYlYIpIqQKnfFUdirsVdirsVdiqVaz/wAdHQf+Y5/+&#xA;oG5xVNcVdirsVdirsVdiqVeZv+OdD/zHaf8A9R0OKpriqB0s6s0l++oBUja6YafEtCVtlREXkQTU&#xA;u6vJ7BgO2KpX5D/caG+lHZtGurnTlT+WCGU/VR/0itEcVZFirGrhRqvnq2hYcrTy7bm7YEVBvr0N&#xA;DCQf5ordZqjwlU4qjjcabZ+aUtVtyl9rFrJcPcgng4sGij4EVpzpdVFBuAfDFU3xVKtO/wCO9q//&#xA;AEb/APJs4qmuKuxV2KuxVA61oela1ZGz1K3E8NQ6GpSSN1+zJFIhV45F/ZdCGHY4qkIvfMPlg8NS&#xA;9XW/L6iianGnO/tgO11DGP36D/fsS8x+0h+KTFWS2F/Y6hZxXthcR3dnOvOC5gdZI3U91dSQR8sV&#xA;Udc/44uof8w03/Js4qjcVSTUYH1jU5NIu7Fm0SCOG5munZkEtysyyRQoq05ogi5S12NVXf4gFU7x&#xA;V2KuxV2KuxV2KpVrP/HR0H/mOf8A6gbnFU1xV2KuxV2KpB5x856d5UsIr2/guJ4pneKNbYRs5kWJ&#xA;5lQK7x1LiIqtNq9aDfFVLyH5+0bztpVzqekRXEVta3T2bfWkWNmdI0k5qFZ/gKyrStD7Yqj/ADN/&#xA;xzof+Y7T/wDqOhxVF6neQ2llJLLOtsGKxRzuvILLM4ii+EdayOopirWj6ammaTZabHI0qWUEcAlk&#xA;NXf00C83PdmpUnxxVJ9L/wBD8765adI9RgtNTjr+1KFaznp/qx20H/BYqyCeeGCCSeZxHDEpeWRj&#xA;RVVRViT4AYqkHkWCZtGfV7lDHe6/M+qTowo6JMFW2ifYfFFaxxRt7qcVTPWJtWhjtJNOhWc/WoEu&#xA;4m6/VpH9OV1JKgGMN6nyUilcVR+KpVp3/He1f/o3/wCTZxVNcVdirsVdirsVdirG73ynLa3c2qeW&#xA;J10zUZ2Mt3aspaxu3P2jPCtOEjf7+jo/83MDjiqHk1zT9WUaLrkUmg63LWO3inI4ySFSpNncbR3A&#xA;Kk/CKPx+0i4qmlzGkNtJounX62utXcE00E8qiaWqlUkuWSq8uLSL126DptiqY2FmtlY29msssy20&#xA;aRCa4dpZnCKF5SSNVnc0qzHqcVV8VdirsVdirsVdiqVaz/x0dB/5jn/6gbnFUVq+p22laTe6pdBj&#xA;bWEEtzOEFW4QoXbiCRU0XbFUhg/M7yVdXUVrY6gt9PJLHCyW4LFPVuBaq7Vp8HrMqkrX7Qb7PxYq&#xA;ynFXYqluteWtA1xY01jT4L9IhIsa3CCQBZl4SCh7OuxxVQtfJ3luyga306zGmQPK9xJFp0klkrzS&#xA;BQ8kgtmiDsQi7tXFUv8AMflzT10+Eia9/wB7bAb396et7CO82Komew02LU7LSGtrm8S7rfNLcXFx&#xA;PHCdOkieNqzPJR/WlQqopWld+OKsgxVjHmq4i0nXdD8wXDenYwm403ULhqCOGG9EbpLIx+yv1i1i&#xA;Tl2577VxVR8xXkXmO7/wnpzrPbyUPmO5jYMkNpWptWZT/e3X2OPaMsxp8PJVluKoTWLGW/0i+sYb&#xA;iS0mu7eWCO7hYpJE0iFRIjLQqyE1BHfFVSwn9eyhkM0c7FQJJoSDGzrs/Eiu3IHFUDp3/He1f/o3&#xA;/wCTZxVNcVdirsVdirsVdirsVS3zLHpT6Fe/pWy/SNgkTPNZCH6w0gUVCpEASzV+zTvirF9L8veZ&#xA;9CC6tpsCX091BCl7o+oXJluoEjDMLe21Ig+osTSNxWZTyJ/vFGKsg0vzfo99eLp0pk07WCC36Kvl&#xA;ENyQv2jGKskyr3eFnX3xVOsVdirsVdirsVWyRpJG0biqOCrDpUEUPTFWMax5Z0NdQ0MC22a9cN8c&#xA;nT6lcn+bxGKphceT/LdxBJbz2QkhmVo5Y2eQhlYUYEcuhBxVKrP8qfJFnrkOsWlgLe4tl42sULGK&#xA;OJjI0rSL6fFizl6HkxHHYADFWXYq7FXYq7FUq8zf8c6H/mO0/wD6jocVV7MasdT1B7plFhWJNOiW&#xA;hJVY+UsjGlas78aV6KD3xVHYqtkjjljaORQ8bgq6MAVZSKEEHqDiqjY6dp+n2y21hbRWlsu6wQIs&#xA;SAnrRUAGKojFXYqlVtpeq21tfQx6lzaeaSWyklhDG3ErlyhAZfUVS1F6UG2KpXZ2XmBrvUoI9UjT&#xA;UFe3M14bUMjp6b/CIfUHHqu/Lt74qnNxaay9xaPBqEcMEXH63EbcOZqEcuLcx6dRt0NMVXLbasNV&#xA;edr5G04iiWPoAODxAr63Pf4qn7OKqdtZ64kd4LjUo5nlBFk62wQQGjULD1G9Tqvh098VW/UvMH6M&#xA;9D9KR/pDnX659VHDh/L6PqfjyxVdc2euPHZi31KOF4gBeu1sHE5otSo9RfT6N49fbFVRrbVjqqTr&#xA;fIunAUex9AFyeJFfW57fFQ/ZxVbb2mspcXbz6hHNBLy+qRC3CGGpPHk3M+pQbdBXFVtvp2qLqMV3&#xA;dak00MVv6P1SONYo3mbjzmfdmJ+D4FrRanrtRVMsVQmqaPpWrWptNTtIry3JDCOZA4DDoy1+yy9m&#xA;G47YqkY0LzNoqj9A6h+kLJK00nV3eRgOyw3/AMc6/wDPZZfmuKo7RPNOn6pPJYuklhrEC8rrSbsB&#xA;LhFrTmtCySx12EkTMnatajFU5xV2KuxV2KpVrP8Ax0dB/wCY5/8AqBucVTXFXYq7FXYq7FXYqkXn&#xA;fULPTfLsmo3sghsrK5sri6mIJCRRXkTuxCgk0UE7DFUdoelJpWmR2aytOQ0sss8gozyzytNK5A6c&#xA;pJGNMVR+KuxV2KuxV2KuxVKtO/472r/9G/8AybOKprirsVdirsVdirsVdirsVdirsVdiqX615f0n&#xA;WoEh1CD1DE3O2nRminhkpT1IJoyskT0/aRgcVSb1vN/l/wDv1fzLpC1/fxKkepwr/lxLwhugPGPg&#xA;9P2HbfFU60fXdI1m3afTblbhY24TIKrLE9K+nNE4WSJx3R1DDwxVH4q7FUq1n/jo6D/zHP8A9QNz&#xA;iqa4q7FXYq7FXYq7FWP+d4mn0q1tmtY7u1uNR0+O8SUgKsJu4yW4kHnVgq8ffFWQYq7FXYqgJrud&#xA;des7NT+4mtbqaRaCpeKS3VDX2ErYqj8VdirsVSrTv+O9q/8A0b/8mziqa4q7FXYqgNIu57n676pr&#xA;6N1LDHsBRFpQbfPFUfirsVdiqA8v3c95oOm3lweU9zawTSsAAC7xqzGg6bnFUfirsVQHmC7ns9B1&#xA;K8tzxntrWeaJiAQHSNmU0PXcYqj8VdiqTax5R0XVLpb943tNWjXjFqtm5gulUdFMif3if8VyBk8V&#xA;xVCsPM+lWo+uanDqEP1mzhhnNsIbkrNdxxSesUcwuSjndI0+WKsjxVKtZ/46Og/8xz/9QNziqa4q&#xA;7FXYq7FXYq7FVG9sbK+t2tr23jurZypeCZFkQlGDqSrAj4WUEe+KoD/CflX/AKs1j/0jQ/8ANOKu&#xA;/wAJ+Vf+rNY/9I0P/NOKofUdD8kabYXGoX2mafb2VpG01zO9tCFSNByZj8PYDFUDL5Y8rP5k03jo&#xA;9mI5LG8fgbWNd/VtKclKAgjkeo2xVNv8J+Vf+rNY/wDSND/zTiqW61a/l7oqxNqWmWUInEpi42Ik&#xA;r6EbTSf3cb/ZjRm+QOKpgnlbylIiyR6RYOjgMjrbwkEHcEELiqW6f5V8sHXNWU6PZFV+r8QbaKgr&#xA;Ga0+HFU0/wAJ+Vf+rNY/9I0P/NOKu/wn5V/6s1j/ANI0P/NOKu/wn5V/6s1j/wBI0P8AzTiqV6F5&#xA;V8sN+keWj2Tcb2YCttEaAU2+ziqaf4T8q/8AVmsf+kaH/mnFXf4T8q/9Wax/6Rof+acVQumaN5G1&#xA;Swiv9P0zT7iznBaCdbWLi6gleS1QVBpseh6jbFUL5V8q+WH8saO76PZM7WVsWY20RJJiUkklcVTT&#xA;/CflX/qzWP8A0jQ/804q7/CflX/qzWP/AEjQ/wDNOKsf17TfItzofmS2srDTnvdMtZku447eLnC7&#xA;25kSvw9x0I71HUHFWQf4T8q/9Wax/wCkaH/mnFXf4T8q/wDVmsf+kaH/AJpxVD32g+S7G2NzdaTY&#xA;pCrIhYWkbUMjiNdlRj9phv26nbFUp1HSPJeoaHb3thpdk0L39nFy+qJGwaPUI4ZY2R0V1ZWVkZWF&#xA;Qag4qn3+E/Kv/Vmsf+kaH/mnFVW18vaBaTrcWmmWlvcJXhNFBGjrUEGjKoIqDTFUwxV2KuxV2Kux&#xA;V2KuxV2KuxVB6xpNjrGl3Wl38fq2d5G0UyVIPFu4I3BHUHscVbt9MsLd7X0E4Gxtza26hieEL8Ph&#xA;3Jr/AHC7nwxVFM6KCWYKFHJiTSgHc4qlfmPyzpXmKySz1JZGhRndfSkaNqyQyW7iqkVDRTupHviq&#xA;aIvFFWpbiAKncmnjiqV6d/x3tX/6N/8Ak2cVTXFXYq7FVG2tILb1fSFPWkaaTcmrt1O/yxVWxVxA&#xA;IodweoxVLfL+g6P5c0a30jSoha6dbFhBCWLBfVkLkAsSd3c0+7FUZY2cNlZW9nACILaNIYgTU8I1&#xA;CrU/IYqqqysoZSGU9CNxireKpT/hfR/U1mX0j6+vKE1KatGdFi9FFBHQKlaYqm2KuxVRvLSC7t3t&#xA;5xyienIAkdCCNx7jFUFYeXdMsdIt9JhV2tLaRZo/Ucs5kSb6wGZz8TH1BUk9e+KpnirsVdirsVdi&#xA;rsVdirsVdirsVdiry1vyf16DVPrWkeZ59Htzqc9+9tZCSKMxXE7SmJohJ6LlQaAujD2oSMVVbv8A&#xA;K7zjcXunTw+cbyxNpFbJeXMBYy3hhjETLMHJXiKO6kliXck9PiVWN+VvnRZo7lvNk988axLJbXLT&#xA;JHMka25aJ3jfnwdrZlavKqyOzBn3Kr0bSrN7LS7Oykk9Z7WCOF5enMxoFLb160riqKxVCW1iYdQv&#xA;LsvyF16dEp9n0149ffFUXirsVdirsVdirFPPPkibzIbeW1vTp15bxyRJeRB1nVZJYXPCWNo5E2hI&#xA;+Fu+Kscm/Lfztb+Wbmzj8y3GrX/1aBLUXc0igXEEssnrLK3rSK/71WRjU8kUE8QvFVY35WefAvpL&#xA;58v3hWCaNHdphN6kioInZ45lB9EoafDVqnkWrQKs78raRc6TosdlcyLJMJrmZjHyKKLi4knCJy34&#xA;oJOI9hiqbYq7FXYq7FXYq7FXYq7FXYq7FXYq/wD/2Q==</xmpGImg:image>
               </rdf:li>
            </rdf:Alt>
         </xmp:Thumbnails>
      </rdf:Description>
      <rdf:Description rdf:about=""
            xmlns:xmpMM="http://ns.adobe.com/xap/1.0/mm/"
            xmlns:stRef="http://ns.adobe.com/xap/1.0/sType/ResourceRef#"
            xmlns:stEvt="http://ns.adobe.com/xap/1.0/sType/ResourceEvent#">
         <xmpMM:DocumentID>xmp.did:F97F11740720681188C69098C6AB8D67</xmpMM:DocumentID>
         <xmpMM:InstanceID>xmp.iid:F97F11740720681188C69098C6AB8D67</xmpMM:InstanceID>
         <xmpMM:RenditionClass>proof:pdf</xmpMM:RenditionClass>
         <xmpMM:OriginalDocumentID>uuid:570DE5EAF634E011A20BCBBC97D5B8D7</xmpMM:OriginalDocumentID>
         <xmpMM:DerivedFrom rdf:parseType="Resource">
            <stRef:instanceID>uuid:f28504f0-f55d-4b4c-8669-18012a34c095</stRef:instanceID>
            <stRef:documentID>uuid:570DE5EAF634E011A20BCBBC97D5B8D7</stRef:documentID>
            <stRef:originalDocumentID>uuid:570DE5EAF634E011A20BCBBC97D5B8D7</stRef:originalDocumentID>
            <stRef:renditionClass>proof:pdf</stRef:renditionClass>
         </xmpMM:DerivedFrom>
         <xmpMM:History>
            <rdf:Seq>
               <rdf:li rdf:parseType="Resource">
                  <stEvt:action>saved</stEvt:action>
                  <stEvt:instanceID>xmp.iid:F97F11740720681188C69098C6AB8D67</stEvt:instanceID>
                  <stEvt:when>2015-02-12T14:35:38+02:00</stEvt:when>
                  <stEvt:softwareAgent>Adobe Illustrator CS5.1</stEvt:softwareAgent>
                  <stEvt:changed>/</stEvt:changed>
               </rdf:li>
            </rdf:Seq>
         </xmpMM:History>
      </rdf:Description>
      <rdf:Description rdf:about=""
            xmlns:pdf="http://ns.adobe.com/pdf/1.3/">
         <pdf:Producer>Adobe PDF library 7.77</pdf:Producer>
      </rdf:Description>
      <rdf:Description rdf:about=""
            xmlns:xmpTPg="http://ns.adobe.com/xap/1.0/t/pg/"
            xmlns:stDim="http://ns.adobe.com/xap/1.0/sType/Dimensions#"
            xmlns:xmpG="http://ns.adobe.com/xap/1.0/g/">
         <xmpTPg:MaxPageSize rdf:parseType="Resource">
            <stDim:w>115.000043</stDim:w>
            <stDim:h>74.573915</stDim:h>
            <stDim:unit>Millimeters</stDim:unit>
         </xmpTPg:MaxPageSize>
         <xmpTPg:NPages>1</xmpTPg:NPages>
         <xmpTPg:HasVisibleTransparency>False</xmpTPg:HasVisibleTransparency>
         <xmpTPg:HasVisibleOverprint>False</xmpTPg:HasVisibleOverprint>
         <xmpTPg:PlateNames>
            <rdf:Seq>
               <rdf:li>Cyan</rdf:li>
               <rdf:li>Magenta</rdf:li>
               <rdf:li>Yellow</rdf:li>
               <rdf:li>Black</rdf:li>
            </rdf:Seq>
         </xmpTPg:PlateNames>
         <xmpTPg:SwatchGroups>
            <rdf:Seq>
               <rdf:li rdf:parseType="Resource">
                  <xmpG:groupName>Default Swatch Group</xmpG:groupName>
                  <xmpG:groupType>0</xmpG:groupType>
               </rdf:li>
            </rdf:Seq>
         </xmpTPg:SwatchGroups>
      </rdf:Description>
   </rdf:RDF>
</x:xmpmeta>
                                                                                                    
                                                                                                    
                                                                                                    
                                                                                                    
                                                                                                    
                                                                                                    
                                                                                                    
                                                                                                    
                                                                                                    
                                                                                                    
                                                                                                    
                                                                                                    
                                                                                                    
                                                                                                    
                                                                                                    
                                                                                                    
                                                                                                    
                                                                                                    
                                                                                                    
                                                                                                    
                           
<?xpacket end="w"?>
	</metadata>
<g>
	<polygon fill="none" stroke="#000000" stroke-width="0.5" points="38.782,24.207 38.782,66.165 38.782,184.804 291.642,184.804 
		291.642,24.207 	"/>
	<g>
		<path fill="none" stroke="#000000" d="M37.71,65.585c0,0,7.526-0.229,10.165,3.289c2.538,3.384,19.025,74.939,19.176,75.783
			c0.405,2.241,1.003,4.187,1.152,5.083c0.149,0.896,2.242,4.782,5.231,4.034c2.988-0.747,5.53-5.68,6.277-6.576
			c0.748-0.896,7.325-18.685,7.922-20.628c0.599-1.941,7.869-16.604,8.276-17.271c0.547-0.892,3.625-7.244,11.251-8.316
			c7.827-1.1,10.762,0.403,16.388,1.626c7.879,1.713,17.014,5.219,19.242,6.323c0.986,0.489,10.332,4.779,12.312,5.651
			c1.979,0.871,15.104,8.452,18.779,11.09c4.911,3.527,19.18,12.771,20.328,13.603c2.69,1.943,5.952,3.106,11.211,6.429
			c5.681,3.587,27.346,13.188,28.55,14.051c4.598,3.283,30.63,18.438,36.174,19.133"/>
	</g>
	<line fill="none" stroke="#000000" stroke-dasharray="3.929,3.929" x1="39.707" y1="175.328" x2="75.969" y2="55.776"/>
	<line fill="none" stroke="#000000" stroke-dasharray="4.089,4.089" x1="78.521" y1="57.841" x2="103.515" y2="153.607"/>
	<line fill="none" stroke="#000000" stroke-dasharray="4.134,4.134" x1="110.381" y1="157.362" x2="194.741" y2="157.362"/>
	<line fill="none" stroke="#000000" stroke-dasharray="4.33,4.33" x1="202.257" y1="152.352" x2="220.215" y2="127.296"/>
	<line fill="none" stroke="#000000" stroke-dasharray="3.821,3.821" x1="224.729" y1="118.944" x2="235.322" y2="93.888"/>
	<line fill="none" stroke="#000000" stroke-dasharray="4.369,4.369" x1="237.971" y1="84.452" x2="242.503" y2="62.102"/>
	<path fill="none" stroke="#000000" d="M242.915,60.069l0.411-2.031 M236.029,92.218l0.706-1.67l0.412-2.032 M221.412,125.626
		l1.197-1.67l0.707-1.672 M196.702,157.362h1.962l1.197-1.67 M104.005,155.485l0.49,1.877h1.961 M76.51,53.993l0.54-1.785
		l0.49,1.878 M38.083,180.682l0.541-1.784"/>
	<line fill="none" stroke="#000000" stroke-width="0.5" x1="26.021" y1="64.136" x2="46.155" y2="64.136"/>
	<line fill="none" stroke="#000000" stroke-width="0.5" x1="26.021" y1="104.507" x2="46.155" y2="104.507"/>
	<line fill="none" stroke="#000000" stroke-width="0.5" x1="26.021" y1="144.82" x2="46.155" y2="144.82"/>
	<line fill="none" stroke="#000000" stroke-width="0.5" x1="284.056" y1="64.104" x2="304.189" y2="64.104"/>
	<line fill="none" stroke="#000000" stroke-width="0.5" x1="284.033" y1="104.525" x2="304.168" y2="104.525"/>
	<line fill="none" stroke="#000000" stroke-width="0.5" x1="284.033" y1="144.749" x2="304.168" y2="144.749"/>
	<line fill="none" stroke="#000000" stroke-width="0.5" x1="272.703" y1="176.87" x2="272.703" y2="197.004"/>
	<line fill="none" stroke="#000000" stroke-width="0.5" x1="233.798" y1="176.888" x2="233.798" y2="197.022"/>
	<line fill="none" stroke="#000000" stroke-width="0.5" x1="194.391" y1="176.888" x2="194.391" y2="197.022"/>
	<line fill="none" stroke="#000000" stroke-width="0.5" x1="155.425" y1="176.836" x2="155.425" y2="196.971"/>
	<line fill="none" stroke="#000000" stroke-width="0.5" x1="77.162" y1="176.836" x2="77.162" y2="196.971"/>
	<line fill="none" stroke="#000000" stroke-width="0.5" x1="116.175" y1="11.124" x2="116.175" y2="209.493"/>
	<g enable-background="new    ">
		<path d="M15.017,59.304h-0.015l-0.821,0.472l-0.114-0.456l1.041-0.608h0.479v4.939h-0.57V59.304z"/>
		<path d="M19.232,61.173c0,1.801-0.57,2.538-1.284,2.538c-0.768,0-1.231-0.912-1.231-2.522c0-1.664,0.494-2.538,1.299-2.538
			C18.814,58.651,19.232,59.601,19.232,61.173z M17.302,61.181c-0.008,1.193,0.197,2.029,0.684,2.029
			c0.471,0,0.661-0.844,0.661-2.029c0-1.155-0.19-2.028-0.661-2.028C17.507,59.153,17.302,59.988,17.302,61.181z"/>
		<path d="M22.155,61.173c0,1.801-0.57,2.538-1.284,2.538c-0.767,0-1.231-0.912-1.231-2.522c0-1.664,0.494-2.538,1.299-2.538
			C21.737,58.651,22.155,59.601,22.155,61.173z M20.225,61.181c-0.007,1.193,0.198,2.029,0.684,2.029
			c0.471,0,0.661-0.844,0.661-2.029c0-1.155-0.19-2.028-0.661-2.028C20.43,59.153,20.225,59.988,20.225,61.181z"/>
		<path d="M25.078,61.173c0,1.801-0.57,2.538-1.284,2.538c-0.768,0-1.231-0.912-1.231-2.522c0-1.664,0.494-2.538,1.299-2.538
			C24.66,58.651,25.078,59.601,25.078,61.173z M23.149,61.181c-0.008,1.193,0.197,2.029,0.684,2.029
			c0.471,0,0.661-0.844,0.661-2.029c0-1.155-0.19-2.028-0.661-2.028C23.354,59.153,23.149,59.988,23.149,61.181z"/>
	</g>
	<g enable-background="new    ">
		<path d="M18.669,99.715c-0.099,0-0.212,0.015-0.349,0.045c-0.821,0.205-1.147,1.034-1.269,1.786h0.022
			c0.19-0.281,0.464-0.471,0.836-0.471c0.623,0,1.064,0.577,1.064,1.52c0,0.935-0.426,1.687-1.216,1.687
			c-0.866,0-1.299-0.874-1.299-2.014c0-0.957,0.25-1.694,0.638-2.227c0.296-0.41,0.768-0.684,1.201-0.774
			c0.152-0.023,0.281-0.038,0.372-0.046V99.715z M18.388,102.641c0-0.745-0.266-1.117-0.661-1.117c-0.251,0-0.501,0.159-0.646,0.531
			c-0.015,0.046-0.038,0.152-0.038,0.297c0.008,1.011,0.312,1.474,0.722,1.474C18.092,103.825,18.388,103.499,18.388,102.641z"/>
		<path d="M21.889,101.743c0,1.801-0.57,2.538-1.284,2.538c-0.768,0-1.231-0.912-1.231-2.522c0-1.664,0.494-2.538,1.299-2.538
			C21.471,99.221,21.889,100.171,21.889,101.743z M19.959,101.751c-0.008,1.193,0.197,2.029,0.684,2.029
			c0.471,0,0.661-0.844,0.661-2.029c0-1.155-0.19-2.028-0.661-2.028C20.164,99.723,19.959,100.558,19.959,101.751z"/>
		<path d="M24.812,101.743c0,1.801-0.57,2.538-1.284,2.538c-0.767,0-1.231-0.912-1.231-2.522c0-1.664,0.494-2.538,1.299-2.538
			C24.394,99.221,24.812,100.171,24.812,101.743z M22.882,101.751c-0.007,1.193,0.198,2.029,0.684,2.029
			c0.471,0,0.661-0.844,0.661-2.029c0-1.155-0.19-2.028-0.661-2.028C23.088,99.723,22.882,100.558,22.882,101.751z"/>
	</g>
	<g enable-background="new    ">
		<path d="M16.231,144.716v-0.38l0.41-0.562c0.593-0.82,1.284-1.748,1.284-2.675c0-0.547-0.235-0.881-0.699-0.881
			c-0.357,0-0.593,0.189-0.714,0.273l-0.144-0.441c0.167-0.145,0.517-0.334,0.965-0.334c0.821,0,1.17,0.607,1.17,1.353
			c0,0.927-0.601,1.823-1.216,2.659l-0.327,0.456v0.016h1.641v0.517H16.231z"/>
		<path d="M21.623,142.239c0,1.801-0.57,2.538-1.284,2.538c-0.768,0-1.231-0.912-1.231-2.522c0-1.664,0.494-2.538,1.299-2.538
			C21.205,139.716,21.623,140.666,21.623,142.239z M19.694,142.246c-0.008,1.193,0.197,2.029,0.684,2.029
			c0.471,0,0.661-0.844,0.661-2.029c0-1.155-0.19-2.028-0.661-2.028C19.899,140.218,19.694,141.053,19.694,142.246z"/>
		<path d="M24.547,142.239c0,1.801-0.57,2.538-1.284,2.538c-0.767,0-1.231-0.912-1.231-2.522c0-1.664,0.494-2.538,1.299-2.538
			C24.129,139.716,24.547,140.666,24.547,142.239z M22.616,142.246c-0.007,1.193,0.198,2.029,0.684,2.029
			c0.471,0,0.661-0.844,0.661-2.029c0-1.155-0.19-2.028-0.661-2.028C22.822,140.218,22.616,141.053,22.616,142.246z"/>
	</g>
	<g enable-background="new    ">
		<path d="M304.58,58.923h0.585v5.259h-0.585V58.923z"/>
		<path d="M308.287,62.343c0,1.421-0.654,1.899-1.224,1.899c-0.661,0-1.192-0.6-1.192-1.892c0-1.338,0.6-1.9,1.23-1.9
			C307.762,60.45,308.287,61.067,308.287,62.343z M306.455,62.343c0,0.607,0.107,1.437,0.639,1.437c0.502,0,0.607-0.859,0.607-1.437
			c0-0.562-0.105-1.429-0.623-1.429C306.554,60.914,306.455,61.781,306.455,62.343z"/>
		<path d="M311.157,63.711c0,0.965-0.122,1.329-0.364,1.603c-0.221,0.243-0.562,0.388-0.98,0.388c-0.312,0-0.615-0.076-0.807-0.182
			l0.138-0.456c0.144,0.075,0.388,0.159,0.684,0.159c0.464,0,0.753-0.289,0.753-1.125v-0.372h-0.016
			c-0.121,0.289-0.395,0.448-0.707,0.448c-0.653,0-1.078-0.737-1.078-1.816c0-1.353,0.615-1.907,1.162-1.907
			c0.387,0,0.57,0.259,0.684,0.464h0.016l0.03-0.41h0.517c-0.008,0.251-0.03,0.577-0.03,1.147V63.711z M310.58,61.773
			c0-0.091-0.008-0.189-0.031-0.266c-0.061-0.251-0.197-0.555-0.531-0.555c-0.426,0-0.654,0.57-0.654,1.383
			c0,0.935,0.297,1.36,0.654,1.36c0.182,0,0.41-0.084,0.523-0.524c0.031-0.114,0.039-0.228,0.039-0.334V61.773z"/>
		<path d="M313.981,59.676c-0.099,0-0.212,0.015-0.349,0.045c-0.821,0.205-1.148,1.034-1.27,1.786h0.022
			c0.19-0.281,0.464-0.471,0.836-0.471c0.623,0,1.063,0.577,1.063,1.52c0,0.935-0.426,1.687-1.215,1.687
			c-0.867,0-1.3-0.874-1.3-2.014c0-0.957,0.251-1.694,0.638-2.227c0.297-0.41,0.768-0.684,1.201-0.774
			c0.152-0.023,0.281-0.038,0.372-0.046V59.676z M313.701,62.602c0-0.745-0.267-1.117-0.662-1.117c-0.25,0-0.501,0.159-0.646,0.531
			c-0.015,0.046-0.038,0.152-0.038,0.297c0.008,1.011,0.312,1.474,0.723,1.474C313.404,63.786,313.701,63.46,313.701,62.602z"/>
	</g>
	<g enable-background="new    ">
		<path d="M304.58,99.418h0.585v5.259h-0.585V99.418z"/>
		<path d="M308.287,102.838c0,1.421-0.654,1.899-1.224,1.899c-0.661,0-1.192-0.6-1.192-1.892c0-1.338,0.6-1.9,1.23-1.9
			C307.762,100.946,308.287,101.562,308.287,102.838z M306.455,102.838c0,0.607,0.107,1.437,0.639,1.437
			c0.502,0,0.607-0.859,0.607-1.437c0-0.562-0.105-1.429-0.623-1.429C306.554,101.409,306.455,102.276,306.455,102.838z"/>
		<path d="M311.157,104.206c0,0.965-0.122,1.329-0.364,1.603c-0.221,0.243-0.562,0.388-0.98,0.388c-0.312,0-0.615-0.076-0.807-0.182
			l0.138-0.456c0.144,0.075,0.388,0.159,0.684,0.159c0.464,0,0.753-0.289,0.753-1.125v-0.372h-0.016
			c-0.121,0.289-0.395,0.448-0.707,0.448c-0.653,0-1.078-0.737-1.078-1.816c0-1.353,0.615-1.907,1.162-1.907
			c0.387,0,0.57,0.259,0.684,0.464h0.016l0.03-0.41h0.517c-0.008,0.251-0.03,0.577-0.03,1.147V104.206z M310.58,102.268
			c0-0.091-0.008-0.189-0.031-0.266c-0.061-0.251-0.197-0.555-0.531-0.555c-0.426,0-0.654,0.57-0.654,1.383
			c0,0.935,0.297,1.36,0.654,1.36c0.182,0,0.41-0.084,0.523-0.524c0.031-0.114,0.039-0.228,0.039-0.334V102.268z"/>
		<path d="M313.336,104.677v-1.368h-1.642v-0.395l1.604-3.177h0.569v3.093h0.532v0.479h-0.532v1.368H313.336z M313.336,102.83
			v-1.391c0-0.342,0.022-0.646,0.045-0.973h-0.029c-0.168,0.396-0.273,0.623-0.418,0.927l-0.685,1.422v0.015H313.336z"/>
	</g>
	<g enable-background="new    ">
		<path d="M304.58,139.913h0.585v5.259h-0.585V139.913z"/>
		<path d="M308.287,143.333c0,1.421-0.654,1.899-1.224,1.899c-0.661,0-1.192-0.6-1.192-1.892c0-1.338,0.6-1.9,1.23-1.9
			C307.762,141.441,308.287,142.057,308.287,143.333z M306.455,143.333c0,0.607,0.107,1.437,0.639,1.437
			c0.502,0,0.607-0.859,0.607-1.437c0-0.562-0.105-1.429-0.623-1.429C306.554,141.905,306.455,142.771,306.455,143.333z"/>
		<path d="M311.157,144.701c0,0.965-0.122,1.329-0.364,1.603c-0.221,0.243-0.562,0.388-0.98,0.388c-0.312,0-0.615-0.076-0.807-0.182
			l0.138-0.456c0.144,0.075,0.388,0.159,0.684,0.159c0.464,0,0.753-0.289,0.753-1.125v-0.372h-0.016
			c-0.121,0.289-0.395,0.448-0.707,0.448c-0.653,0-1.078-0.737-1.078-1.816c0-1.353,0.615-1.907,1.162-1.907
			c0.387,0,0.57,0.259,0.684,0.464h0.016l0.03-0.41h0.517c-0.008,0.251-0.03,0.577-0.03,1.147V144.701z M310.58,142.763
			c0-0.091-0.008-0.189-0.031-0.266c-0.061-0.251-0.197-0.555-0.531-0.555c-0.426,0-0.654,0.57-0.654,1.383
			c0,0.935,0.297,1.36,0.654,1.36c0.182,0,0.41-0.084,0.523-0.524c0.031-0.114,0.039-0.228,0.039-0.334V142.763z"/>
		<path d="M311.808,145.172v-0.38l0.41-0.562c0.593-0.82,1.284-1.748,1.284-2.675c0-0.547-0.235-0.881-0.699-0.881
			c-0.356,0-0.593,0.189-0.714,0.273l-0.145-0.441c0.167-0.145,0.517-0.334,0.965-0.334c0.82,0,1.17,0.607,1.17,1.353
			c0,0.927-0.6,1.823-1.215,2.659l-0.327,0.456v0.016h1.642v0.517H311.808z"/>
	</g>
	<g enable-background="new    ">
		<path d="M305.461,92.019l-1.17-5.122h0.631l0.494,2.401c0.121,0.578,0.273,1.314,0.364,1.969h0.022
			c0.076-0.661,0.221-1.376,0.342-1.983l0.486-2.387h0.623l-1.192,5.122H305.461z"/>
	</g>
	<g enable-background="new    ">
		<path d="M308.225,87.391c0,0.229-0.137,0.38-0.356,0.38c-0.19,0-0.335-0.151-0.335-0.38c0-0.228,0.151-0.38,0.342-0.38
			C308.089,87.011,308.225,87.163,308.225,87.391z M307.594,92.019v-3.678h0.585v3.678H307.594z"/>
	</g>
	<g enable-background="new    ">
		<path d="M308.983,89.291c0-0.312-0.022-0.677-0.03-0.95h0.523l0.031,0.585h0.016c0.121-0.35,0.433-0.639,0.774-0.639
			c0.046,0,0.083,0,0.122,0.008v0.593c-0.039,0-0.076,0-0.122,0c-0.372,0-0.646,0.342-0.706,0.76
			c-0.016,0.099-0.023,0.213-0.023,0.335v2.036h-0.585V89.291z"/>
	</g>
	<g enable-background="new    ">
		<path d="M312.774,91.183c0,0.281,0.007,0.601,0.038,0.836h-0.524l-0.038-0.388h-0.023c-0.158,0.281-0.418,0.448-0.736,0.448
			c-0.486,0-0.866-0.41-0.866-1.049c0-0.927,0.737-1.329,1.565-1.337v-0.114c0-0.494-0.129-0.828-0.586-0.828
			c-0.228,0-0.433,0.068-0.607,0.19l-0.129-0.411c0.159-0.113,0.494-0.243,0.858-0.243c0.737,0,1.049,0.479,1.049,1.3V91.183z
			 M312.205,90.112c-0.305,0-1.012,0.061-1.012,0.858c0,0.486,0.244,0.653,0.449,0.653c0.258,0,0.471-0.189,0.539-0.555
			c0.016-0.068,0.023-0.144,0.023-0.213V90.112z"/>
		<path d="M313.6,86.76h0.585v5.259H313.6V86.76z"/>
		<path d="M316.242,86.76h0.586v5.259h-0.586V86.76z"/>
		<path d="M319.949,90.18c0,1.421-0.652,1.899-1.223,1.899c-0.661,0-1.193-0.6-1.193-1.892c0-1.338,0.601-1.9,1.231-1.9
			C319.426,88.287,319.949,88.904,319.949,90.18z M318.119,90.18c0,0.607,0.105,1.437,0.638,1.437c0.501,0,0.608-0.859,0.608-1.437
			c0-0.562-0.107-1.429-0.623-1.429C318.217,88.751,318.119,89.617,318.119,90.18z"/>
		<path d="M322.539,91.183c0,0.281,0.008,0.601,0.038,0.836h-0.524l-0.038-0.388h-0.022c-0.16,0.281-0.418,0.448-0.737,0.448
			c-0.486,0-0.866-0.41-0.866-1.049c0-0.927,0.736-1.329,1.564-1.337v-0.114c0-0.494-0.129-0.828-0.584-0.828
			c-0.229,0-0.434,0.068-0.608,0.19l-0.129-0.411c0.159-0.113,0.493-0.243,0.858-0.243c0.737,0,1.049,0.479,1.049,1.3V91.183z
			 M321.969,90.112c-0.304,0-1.01,0.061-1.01,0.858c0,0.486,0.242,0.653,0.447,0.653c0.259,0,0.472-0.189,0.54-0.555
			c0.015-0.068,0.022-0.144,0.022-0.213V90.112z"/>
		<path d="M325.576,86.76v4.377c0,0.251,0.023,0.669,0.031,0.882h-0.502l-0.038-0.456h-0.022c-0.121,0.259-0.38,0.517-0.775,0.517
			c-0.615,0-1.063-0.668-1.063-1.885c0-1.299,0.54-1.907,1.102-1.907c0.273,0,0.532,0.122,0.677,0.434h0.015V86.76H325.576z
			 M324.999,89.746c0-0.075,0-0.167-0.007-0.243c-0.039-0.387-0.267-0.714-0.548-0.714c-0.486,0-0.653,0.677-0.653,1.405
			c0,0.775,0.197,1.398,0.623,1.398c0.182,0,0.434-0.099,0.562-0.631c0.016-0.068,0.022-0.151,0.022-0.243V89.746z"/>
	</g>
	<g enable-background="new    ">
		<path d="M72.066,192.506c-0.099,0-0.212,0.015-0.349,0.045c-0.821,0.205-1.147,1.034-1.269,1.786h0.022
			c0.19-0.281,0.464-0.471,0.836-0.471c0.623,0,1.064,0.577,1.064,1.52c0,0.935-0.426,1.687-1.216,1.687
			c-0.866,0-1.299-0.874-1.299-2.014c0-0.957,0.25-1.694,0.638-2.227c0.296-0.41,0.768-0.684,1.201-0.774
			c0.152-0.023,0.281-0.038,0.372-0.046V192.506z M71.785,195.432c0-0.745-0.266-1.117-0.661-1.117
			c-0.251,0-0.501,0.159-0.646,0.531c-0.015,0.046-0.038,0.152-0.038,0.297c0.008,1.011,0.312,1.474,0.722,1.474
			C71.489,196.616,71.785,196.29,71.785,195.432z"/>
	</g>
	<g enable-background="new    ">
		<path d="M98.368,192.665h-0.015l-0.821,0.472l-0.114-0.456l1.041-0.608h0.479v4.939h-0.57V192.665z"/>
		<path d="M100.114,197.012v-0.38l0.41-0.562c0.593-0.82,1.284-1.748,1.284-2.675c0-0.547-0.235-0.881-0.699-0.881
			c-0.357,0-0.593,0.189-0.714,0.273l-0.144-0.441c0.167-0.145,0.517-0.334,0.965-0.334c0.821,0,1.17,0.607,1.17,1.353
			c0,0.927-0.601,1.823-1.216,2.659l-0.327,0.456v0.016h1.641v0.517H100.114z"/>
	</g>
	<g enable-background="new    ">
		<path d="M263.052,192.665h-0.016l-0.82,0.472l-0.115-0.456l1.041-0.608h0.479v4.939h-0.569V192.665z"/>
		<path d="M264.798,197.012v-0.38l0.41-0.562c0.593-0.82,1.284-1.748,1.284-2.675c0-0.547-0.235-0.881-0.699-0.881
			c-0.357,0-0.593,0.189-0.715,0.273l-0.144-0.441c0.167-0.145,0.517-0.334,0.965-0.334c0.821,0,1.171,0.607,1.171,1.353
			c0,0.927-0.602,1.823-1.217,2.659l-0.326,0.456v0.016h1.641v0.517H264.798z"/>
	</g>
	<g enable-background="new    ">
		<path d="M185.549,192.506c-0.1,0-0.213,0.015-0.35,0.045c-0.82,0.205-1.147,1.034-1.27,1.786h0.023
			c0.189-0.281,0.463-0.471,0.836-0.471c0.623,0,1.063,0.577,1.063,1.52c0,0.935-0.426,1.687-1.216,1.687
			c-0.866,0-1.299-0.874-1.299-2.014c0-0.957,0.25-1.694,0.638-2.227c0.296-0.41,0.768-0.684,1.2-0.774
			c0.152-0.023,0.281-0.038,0.373-0.046V192.506z M185.267,195.432c0-0.745-0.266-1.117-0.661-1.117
			c-0.251,0-0.501,0.159-0.646,0.531c-0.016,0.046-0.039,0.152-0.039,0.297c0.008,1.011,0.312,1.474,0.723,1.474
			C184.97,196.616,185.267,196.29,185.267,195.432z"/>
	</g>
	<g enable-background="new    ">
		<path d="M226.482,196.572c0.129,0,0.235-0.016,0.365-0.046c0.25-0.061,0.493-0.197,0.676-0.388
			c0.273-0.296,0.494-0.752,0.578-1.398h-0.016c-0.19,0.229-0.449,0.411-0.813,0.411c-0.615,0-1.071-0.57-1.071-1.467
			c0-0.904,0.486-1.672,1.246-1.672c0.844,0,1.238,0.896,1.238,1.983c0,0.98-0.242,1.74-0.653,2.287
			c-0.288,0.396-0.706,0.653-1.14,0.745c-0.16,0.037-0.289,0.045-0.41,0.045V196.572z M226.779,193.638
			c0,0.722,0.273,1.071,0.668,1.071c0.243,0,0.486-0.167,0.607-0.44c0.031-0.076,0.047-0.145,0.047-0.312
			c0-1.041-0.297-1.489-0.692-1.489C227.113,192.468,226.771,192.787,226.779,193.638z"/>
	</g>
	<g>
		<g enable-background="new    ">
			<path d="M62.906,204.895h-0.935v-0.524h2.455v0.524h-0.935v4.598h-0.585V204.895z"/>
		</g>
		<g enable-background="new    ">
			<path d="M65.503,204.865c0,0.229-0.137,0.38-0.357,0.38c-0.19,0-0.334-0.151-0.334-0.38c0-0.228,0.152-0.38,0.342-0.38
				C65.366,204.485,65.503,204.637,65.503,204.865z M64.872,209.492v-3.678h0.585v3.678H64.872z"/>
			<path d="M66.269,206.765c0-0.434-0.022-0.654-0.03-0.95h0.509l0.03,0.456h0.015c0.16-0.297,0.441-0.51,0.829-0.51
				c0.342,0,0.63,0.16,0.767,0.562h0.015c0.099-0.183,0.228-0.334,0.365-0.418c0.145-0.099,0.319-0.145,0.509-0.145
				c0.494,0,0.881,0.357,0.881,1.3v2.432h-0.577v-2.303c0-0.479-0.068-0.942-0.517-0.942c-0.243,0-0.456,0.206-0.54,0.555
				c-0.015,0.092-0.022,0.206-0.022,0.327v2.363h-0.578v-2.409c0-0.402-0.068-0.836-0.509-0.836c-0.243,0-0.479,0.206-0.547,0.601
				c-0.015,0.092-0.023,0.197-0.023,0.312v2.333h-0.578V206.765z"/>
			<path d="M71.387,207.706c0,1.133,0.448,1.368,0.866,1.368c0.258,0,0.463-0.061,0.608-0.137l0.099,0.426
				c-0.205,0.106-0.517,0.175-0.813,0.175c-0.881,0-1.337-0.723-1.337-1.847c0-1.186,0.509-1.931,1.246-1.931
				c0.745,0,1.049,0.791,1.049,1.611c0,0.145-0.008,0.243-0.015,0.334H71.387z M72.542,207.274c0.008-0.729-0.266-1.057-0.547-1.057
				c-0.388,0-0.578,0.555-0.601,1.057H72.542z"/>
			<path d="M76.247,204.234c-0.433,0.685-0.79,1.71-0.79,3.093c0,1.36,0.357,2.387,0.79,3.078h-0.456
				c-0.396-0.578-0.829-1.596-0.829-3.085c0.015-1.49,0.433-2.516,0.829-3.086H76.247z"/>
		</g>
		<g enable-background="new    ">
			<path d="M77.142,205.815l0.357,1.801c0.076,0.396,0.152,0.79,0.197,1.17h0.031c0.053-0.38,0.144-0.805,0.228-1.154l0.426-1.816
				h0.448l0.403,1.763c0.091,0.41,0.175,0.798,0.235,1.208h0.031c0.045-0.387,0.114-0.768,0.197-1.186l0.35-1.785h0.585
				l-0.927,3.678h-0.479l-0.425-1.786c-0.091-0.356-0.145-0.684-0.205-1.102h-0.015c-0.061,0.434-0.129,0.775-0.213,1.125
				l-0.441,1.763h-0.494l-0.897-3.678H77.142z"/>
		</g>
		<g enable-background="new    ">
			<path d="M81.457,207.706c0,1.133,0.448,1.368,0.866,1.368c0.258,0,0.463-0.061,0.608-0.137l0.099,0.426
				c-0.205,0.106-0.517,0.175-0.813,0.175c-0.881,0-1.337-0.723-1.337-1.847c0-1.186,0.509-1.931,1.246-1.931
				c0.745,0,1.049,0.791,1.049,1.611c0,0.145-0.008,0.243-0.015,0.334H81.457z M82.612,207.274c0.008-0.729-0.266-1.057-0.547-1.057
				c-0.388,0-0.578,0.555-0.601,1.057H82.612z"/>
			<path d="M84.213,207.706c0,1.133,0.448,1.368,0.866,1.368c0.258,0,0.463-0.061,0.608-0.137l0.099,0.426
				c-0.205,0.106-0.517,0.175-0.813,0.175c-0.881,0-1.337-0.723-1.337-1.847c0-1.186,0.509-1.931,1.246-1.931
				c0.745,0,1.049,0.791,1.049,1.611c0,0.145-0.008,0.243-0.015,0.334H84.213z M85.368,207.274c0.008-0.729-0.266-1.057-0.547-1.057
				c-0.388,0-0.578,0.555-0.601,1.057H85.368z"/>
			<path d="M87.129,207.525h0.015c0.068-0.145,0.129-0.289,0.197-0.411l0.729-1.299h0.631l-0.973,1.55l1.064,2.128h-0.654
				l-0.798-1.732l-0.212,0.342v1.391h-0.578v-5.259h0.578V207.525z"/>
			<path d="M89.148,208.885c0.129,0.083,0.357,0.189,0.593,0.189c0.327,0,0.54-0.205,0.54-0.532c0-0.281-0.099-0.471-0.471-0.722
				c-0.479-0.304-0.737-0.623-0.737-1.041c0-0.601,0.441-1.019,1.011-1.019c0.289,0,0.501,0.1,0.654,0.19l-0.152,0.44
				c-0.144-0.099-0.296-0.167-0.494-0.167c-0.312,0-0.471,0.229-0.471,0.471c0,0.244,0.091,0.381,0.456,0.631
				c0.425,0.273,0.76,0.608,0.76,1.117c0,0.737-0.501,1.095-1.109,1.095c-0.266,0-0.562-0.084-0.722-0.213L89.148,208.885z"/>
			<path d="M91.221,210.405c0.433-0.685,0.791-1.726,0.791-3.093c0-1.368-0.357-2.394-0.791-3.078h0.456
				c0.395,0.562,0.828,1.573,0.828,3.078c-0.015,1.504-0.433,2.508-0.828,3.093H91.221z"/>
		</g>
		<g enable-background="new    ">
			<path d="M178.597,204.895h-0.935v-0.524h2.454v0.524h-0.934v4.598h-0.586V204.895z"/>
		</g>
		<g enable-background="new    ">
			<path d="M181.194,204.865c0,0.229-0.137,0.38-0.356,0.38c-0.19,0-0.335-0.151-0.335-0.38c0-0.228,0.151-0.38,0.342-0.38
				C181.057,204.485,181.194,204.637,181.194,204.865z M180.563,209.492v-3.678h0.585v3.678H180.563z"/>
			<path d="M181.961,206.765c0-0.434-0.023-0.654-0.031-0.95h0.51l0.03,0.456h0.015c0.16-0.297,0.441-0.51,0.829-0.51
				c0.342,0,0.63,0.16,0.767,0.562h0.016c0.1-0.183,0.229-0.334,0.365-0.418c0.145-0.099,0.318-0.145,0.509-0.145
				c0.494,0,0.882,0.357,0.882,1.3v2.432h-0.578v-2.303c0-0.479-0.068-0.942-0.517-0.942c-0.243,0-0.456,0.206-0.54,0.555
				c-0.015,0.092-0.021,0.206-0.021,0.327v2.363h-0.578v-2.409c0-0.402-0.068-0.836-0.51-0.836c-0.242,0-0.479,0.206-0.547,0.601
				c-0.015,0.092-0.022,0.197-0.022,0.312v2.333h-0.577V206.765z"/>
			<path d="M187.079,207.706c0,1.133,0.448,1.368,0.866,1.368c0.258,0,0.463-0.061,0.607-0.137l0.1,0.426
				c-0.205,0.106-0.518,0.175-0.813,0.175c-0.882,0-1.337-0.723-1.337-1.847c0-1.186,0.509-1.931,1.246-1.931
				c0.744,0,1.049,0.791,1.049,1.611c0,0.145-0.008,0.243-0.016,0.334H187.079z M188.234,207.274
				c0.008-0.729-0.266-1.057-0.547-1.057c-0.389,0-0.578,0.555-0.602,1.057H188.234z"/>
			<path d="M191.939,204.234c-0.434,0.685-0.791,1.71-0.791,3.093c0,1.36,0.357,2.387,0.791,3.078h-0.456
				c-0.396-0.578-0.829-1.596-0.829-3.085c0.016-1.49,0.434-2.516,0.829-3.086H191.939z"/>
		</g>
		<g enable-background="new    ">
			<path d="M192.834,205.815l0.494,2.112c0.061,0.289,0.099,0.524,0.152,0.76h0.015c0.038-0.213,0.099-0.486,0.151-0.752l0.441-2.12
				h0.578l-0.602,2.363c-0.227,0.919-0.486,1.809-0.911,2.371c-0.259,0.326-0.532,0.493-0.661,0.555l-0.221-0.494
				c0.176-0.099,0.357-0.259,0.525-0.464c0.151-0.197,0.266-0.44,0.326-0.623c0.03-0.083,0.045-0.129,0.045-0.183
				c0-0.045-0.008-0.091-0.022-0.137l-0.927-3.389H192.834z"/>
		</g>
		<g enable-background="new    ">
			<path d="M195.476,207.706c0,1.133,0.449,1.368,0.867,1.368c0.258,0,0.463-0.061,0.607-0.137l0.099,0.426
				c-0.205,0.106-0.517,0.175-0.813,0.175c-0.881,0-1.337-0.723-1.337-1.847c0-1.186,0.509-1.931,1.246-1.931
				c0.745,0,1.049,0.791,1.049,1.611c0,0.145-0.008,0.243-0.015,0.334H195.476z M196.632,207.274
				c0.008-0.729-0.266-1.057-0.547-1.057c-0.388,0-0.577,0.555-0.601,1.057H196.632z"/>
			<path d="M199.76,208.656c0,0.281,0.007,0.601,0.038,0.836h-0.524l-0.038-0.388h-0.023c-0.159,0.281-0.418,0.448-0.736,0.448
				c-0.486,0-0.866-0.41-0.866-1.049c0-0.927,0.737-1.329,1.565-1.337v-0.114c0-0.494-0.129-0.828-0.586-0.828
				c-0.228,0-0.433,0.068-0.607,0.19l-0.129-0.411c0.159-0.113,0.494-0.243,0.858-0.243c0.737,0,1.049,0.479,1.049,1.3V208.656z
				 M199.191,207.585c-0.305,0-1.012,0.061-1.012,0.858c0,0.486,0.244,0.653,0.449,0.653c0.258,0,0.471-0.189,0.539-0.555
				c0.016-0.068,0.023-0.144,0.023-0.213V207.585z"/>
			<path d="M200.579,206.765c0-0.312-0.022-0.677-0.03-0.95h0.523l0.031,0.585h0.016c0.121-0.35,0.433-0.639,0.774-0.639
				c0.046,0,0.083,0,0.122,0.008v0.593c-0.039,0-0.076,0-0.122,0c-0.372,0-0.646,0.342-0.706,0.76
				c-0.016,0.099-0.023,0.213-0.023,0.335v2.036h-0.585V206.765z"/>
			<path d="M202.371,208.885c0.129,0.083,0.357,0.189,0.593,0.189c0.327,0,0.54-0.205,0.54-0.532c0-0.281-0.1-0.471-0.472-0.722
				c-0.479-0.304-0.737-0.623-0.737-1.041c0-0.601,0.441-1.019,1.011-1.019c0.289,0,0.501,0.1,0.653,0.19l-0.152,0.44
				c-0.144-0.099-0.296-0.167-0.493-0.167c-0.312,0-0.472,0.229-0.472,0.471c0,0.244,0.092,0.381,0.457,0.631
				c0.425,0.273,0.76,0.608,0.76,1.117c0,0.737-0.502,1.095-1.109,1.095c-0.267,0-0.562-0.084-0.723-0.213L202.371,208.885z"/>
			<path d="M204.443,210.405c0.434-0.685,0.791-1.726,0.791-3.093c0-1.368-0.357-2.394-0.791-3.078h0.457
				c0.395,0.562,0.828,1.573,0.828,3.078c-0.016,1.504-0.434,2.508-0.828,3.093H204.443z"/>
		</g>
	</g>
	<g enable-background="new    ">
		<path d="M234.172,30.233c0.221-0.068,0.494-0.099,0.783-0.099c0.539,0,0.919,0.137,1.2,0.388c0.396,0.342,0.691,1.003,0.691,2.074
			c0,1.171-0.288,1.809-0.615,2.166c-0.335,0.372-0.821,0.547-1.413,0.547c-0.236,0-0.479-0.015-0.646-0.053V30.233z M234.75,34.808
			c0.083,0.015,0.166,0.015,0.22,0.015c0.646,0,1.269-0.471,1.269-2.211c0-1.292-0.395-1.999-1.215-1.999
			c-0.092,0-0.197,0.008-0.273,0.03V34.808z"/>
	</g>
	<g enable-background="new    ">
		<path d="M237.969,33.492c0,1.133,0.447,1.368,0.865,1.368c0.259,0,0.464-0.061,0.608-0.137l0.099,0.426
			c-0.205,0.106-0.517,0.175-0.812,0.175c-0.882,0-1.338-0.723-1.338-1.847c0-1.186,0.51-1.931,1.246-1.931
			c0.744,0,1.049,0.791,1.049,1.611c0,0.145-0.008,0.243-0.016,0.334H237.969z M239.123,33.06c0.008-0.729-0.266-1.057-0.547-1.057
			c-0.388,0-0.578,0.555-0.601,1.057H239.123z"/>
	</g>
	<g enable-background="new    ">
		<path d="M242.252,34.443c0,0.281,0.008,0.601,0.039,0.836h-0.525l-0.037-0.388h-0.023c-0.159,0.281-0.418,0.448-0.736,0.448
			c-0.486,0-0.867-0.41-0.867-1.049c0-0.927,0.737-1.329,1.565-1.337v-0.114c0-0.494-0.129-0.828-0.585-0.828
			c-0.229,0-0.434,0.068-0.607,0.19l-0.129-0.411c0.158-0.113,0.493-0.243,0.857-0.243c0.738,0,1.049,0.479,1.049,1.3V34.443z
			 M241.682,33.371c-0.304,0-1.011,0.061-1.011,0.858c0,0.486,0.243,0.653,0.448,0.653c0.259,0,0.472-0.189,0.54-0.555
			c0.015-0.068,0.022-0.144,0.022-0.213V33.371z"/>
	</g>
	<g enable-background="new    ">
		<path d="M243.732,30.742v0.858h0.707v0.44h-0.707v2.188c0,0.479,0.167,0.608,0.379,0.608c0.1,0,0.176-0.008,0.236-0.023
			l0.03,0.448c-0.106,0.038-0.243,0.062-0.433,0.062c-0.236,0-0.441-0.062-0.578-0.221c-0.152-0.167-0.221-0.418-0.221-0.927v-2.136
			h-0.447v-0.44h0.447v-0.623L243.732,30.742z"/>
		<path d="M244.953,30.02h0.586v1.983h0.016c0.075-0.129,0.189-0.243,0.311-0.326c0.129-0.084,0.281-0.13,0.486-0.13
			c0.464,0,0.859,0.365,0.859,1.292v2.439h-0.586v-2.371c0-0.448-0.098-0.866-0.493-0.866c-0.274,0-0.479,0.198-0.57,0.585
			c-0.015,0.076-0.022,0.183-0.022,0.273v2.379h-0.586V30.02z"/>
	</g>
	<g enable-background="new    ">
		<path d="M206.633,73.184c0,1.922-0.654,2.659-1.482,2.659c-0.851,0-1.42-0.904-1.42-2.629c0-1.694,0.615-2.614,1.504-2.614
			C206.108,70.6,206.633,71.55,206.633,73.184z M204.338,73.222c0,1.056,0.205,2.104,0.859,2.104c0.652,0,0.828-1.117,0.828-2.12
			c0-0.957-0.176-2.09-0.836-2.09C204.543,71.116,204.338,72.181,204.338,73.222z"/>
	</g>
	<g enable-background="new    ">
		<path d="M207.322,73.252c0-0.562-0.022-0.89-0.029-1.147h0.516l0.031,0.471h0.015c0.205-0.388,0.494-0.524,0.782-0.524
			c0.646,0,1.064,0.677,1.064,1.885c0,1.368-0.562,1.907-1.14,1.907c-0.35,0-0.548-0.22-0.646-0.426H207.9v1.824h-0.578V73.252z
			 M207.9,74.438c0,0.106,0.008,0.213,0.03,0.304c0.114,0.524,0.38,0.615,0.54,0.615c0.486,0,0.646-0.668,0.646-1.405
			c0-0.76-0.183-1.398-0.653-1.398c-0.267,0-0.51,0.327-0.54,0.661c-0.015,0.084-0.022,0.183-0.022,0.281V74.438z"/>
		<path d="M210.352,73.252c0-0.562-0.022-0.89-0.03-1.147h0.517l0.03,0.471h0.016c0.205-0.388,0.494-0.524,0.782-0.524
			c0.646,0,1.063,0.677,1.063,1.885c0,1.368-0.562,1.907-1.14,1.907c-0.349,0-0.547-0.22-0.646-0.426h-0.016v1.824h-0.577V73.252z
			 M210.929,74.438c0,0.106,0.008,0.213,0.031,0.304c0.113,0.524,0.379,0.615,0.539,0.615c0.486,0,0.646-0.668,0.646-1.405
			c0-0.76-0.184-1.398-0.654-1.398c-0.266,0-0.509,0.327-0.539,0.661c-0.016,0.084-0.023,0.183-0.023,0.281V74.438z"/>
		<path d="M215.646,73.944c0,1.421-0.654,1.899-1.224,1.899c-0.661,0-1.192-0.6-1.192-1.892c0-1.338,0.6-1.9,1.23-1.9
			C215.122,72.051,215.646,72.667,215.646,73.944z M213.814,73.944c0,0.607,0.107,1.437,0.639,1.437
			c0.502,0,0.607-0.859,0.607-1.437c0-0.562-0.105-1.429-0.623-1.429C213.914,72.515,213.814,73.381,213.814,73.944z"/>
	</g>
	<g enable-background="new    ">
		<path d="M216.289,73.055c0-0.312-0.023-0.677-0.031-0.95h0.524l0.03,0.585h0.016c0.121-0.35,0.434-0.639,0.775-0.639
			c0.045,0,0.083,0,0.121,0.008v0.593c-0.038,0-0.076,0-0.121,0c-0.373,0-0.646,0.342-0.707,0.76
			c-0.016,0.099-0.023,0.213-0.023,0.335v2.036h-0.584V73.055z"/>
	</g>
	<g enable-background="new    ">
		<path d="M219.076,71.246v0.858h0.707v0.44h-0.707v2.188c0,0.479,0.168,0.608,0.38,0.608c0.099,0,0.175-0.008,0.235-0.023
			l0.031,0.448c-0.107,0.038-0.244,0.062-0.434,0.062c-0.235,0-0.441-0.062-0.578-0.221c-0.151-0.167-0.22-0.418-0.22-0.927v-2.136
			h-0.448v-0.44h0.448v-0.623L219.076,71.246z"/>
		<path d="M222.502,74.78c0,0.402,0.022,0.729,0.03,1.003h-0.509l-0.046-0.388h-0.015c-0.107,0.183-0.389,0.448-0.783,0.448
			c-0.639,0-0.896-0.501-0.896-1.413v-2.325h0.585v2.241c0,0.578,0.091,1.003,0.493,1.003c0.342,0,0.494-0.318,0.525-0.486
			c0.022-0.099,0.029-0.212,0.029-0.334v-2.424h0.586V74.78z"/>
		<path d="M223.32,73.055c0-0.434-0.022-0.654-0.03-0.95h0.509l0.031,0.448h0.015c0.159-0.296,0.456-0.502,0.844-0.502
			c0.509,0,0.889,0.373,0.889,1.262v2.47h-0.585v-2.363c0-0.44-0.084-0.874-0.51-0.874c-0.242,0-0.479,0.205-0.547,0.593
			c-0.022,0.092-0.029,0.205-0.029,0.334v2.311h-0.586V73.055z"/>
		<path d="M227.026,71.155c0,0.229-0.137,0.38-0.356,0.38c-0.19,0-0.335-0.151-0.335-0.38c0-0.228,0.151-0.38,0.342-0.38
			C226.889,70.775,227.026,70.927,227.026,71.155z M226.395,75.782v-3.678h0.585v3.678H226.395z"/>
		<path d="M227.693,75.175c0.13,0.083,0.357,0.189,0.594,0.189c0.326,0,0.539-0.205,0.539-0.532c0-0.281-0.099-0.471-0.471-0.722
			c-0.479-0.304-0.738-0.623-0.738-1.041c0-0.601,0.441-1.019,1.012-1.019c0.289,0,0.501,0.1,0.653,0.19l-0.152,0.44
			c-0.144-0.099-0.296-0.167-0.493-0.167c-0.312,0-0.472,0.229-0.472,0.471c0,0.244,0.091,0.381,0.456,0.631
			c0.426,0.273,0.76,0.608,0.76,1.117c0,0.737-0.502,1.095-1.109,1.095c-0.266,0-0.562-0.084-0.723-0.213L227.693,75.175z"/>
		<path d="M230.701,71.246v0.858h0.707v0.44h-0.707v2.188c0,0.479,0.168,0.608,0.38,0.608c0.099,0,0.175-0.008,0.235-0.023
			l0.031,0.448c-0.107,0.038-0.244,0.062-0.434,0.062c-0.235,0-0.441-0.062-0.578-0.221c-0.151-0.167-0.22-0.418-0.22-0.927v-2.136
			h-0.448v-0.44h0.448v-0.623L230.701,71.246z"/>
		<path d="M232.553,71.155c0,0.229-0.137,0.38-0.356,0.38c-0.19,0-0.335-0.151-0.335-0.38c0-0.228,0.151-0.38,0.342-0.38
			C232.417,70.775,232.553,70.927,232.553,71.155z M231.923,75.782v-3.678h0.585v3.678H231.923z"/>
		<path d="M235.113,75.692c-0.129,0.075-0.35,0.137-0.607,0.137c-0.805,0-1.345-0.646-1.345-1.862c0-1.056,0.532-1.915,1.451-1.915
			c0.198,0,0.41,0.054,0.517,0.114l-0.113,0.479c-0.076-0.038-0.229-0.099-0.418-0.099c-0.594,0-0.852,0.699-0.852,1.421
			c0,0.859,0.326,1.376,0.866,1.376c0.151,0,0.288-0.03,0.418-0.099L235.113,75.692z"/>
	</g>
	<g enable-background="new    ">
		<path d="M208.955,78.747c0,0.229-0.137,0.38-0.356,0.38c-0.19,0-0.335-0.151-0.335-0.38c0-0.228,0.152-0.38,0.342-0.38
			C208.818,78.367,208.955,78.52,208.955,78.747z M208.324,83.375v-3.678h0.586v3.678H208.324z"/>
		<path d="M209.721,80.648c0-0.434-0.022-0.654-0.03-0.95h0.51l0.029,0.448h0.016c0.16-0.296,0.456-0.502,0.844-0.502
			c0.509,0,0.889,0.373,0.889,1.262v2.47h-0.585v-2.363c0-0.44-0.083-0.874-0.509-0.874c-0.244,0-0.479,0.205-0.547,0.593
			c-0.023,0.092-0.031,0.205-0.031,0.334v2.311h-0.585V80.648z"/>
	</g>
	<g enable-background="new    ">
		<path d="M212.92,83.375v-3.237h-0.464v-0.44h0.464v-0.221c0-0.402,0.061-0.806,0.326-1.109c0.213-0.235,0.51-0.312,0.737-0.312
			c0.198,0,0.35,0.038,0.456,0.091l-0.092,0.456c-0.075-0.03-0.174-0.061-0.326-0.061c-0.418,0-0.517,0.448-0.517,0.92v0.235h0.669
			v0.44h-0.669v3.237H212.92z"/>
	</g>
	<g enable-background="new    ">
		<path d="M214.916,81.589c0,1.133,0.449,1.368,0.867,1.368c0.258,0,0.463-0.061,0.607-0.137l0.099,0.426
			c-0.205,0.106-0.517,0.175-0.813,0.175c-0.881,0-1.337-0.723-1.337-1.847c0-1.186,0.509-1.931,1.246-1.931
			c0.745,0,1.049,0.791,1.049,1.611c0,0.145-0.008,0.243-0.015,0.334H214.916z M216.071,81.156c0.008-0.729-0.266-1.057-0.547-1.057
			c-0.388,0-0.577,0.555-0.601,1.057H216.071z"/>
	</g>
	<g enable-background="new    ">
		<path d="M219.056,83.284c-0.129,0.075-0.35,0.137-0.608,0.137c-0.806,0-1.345-0.646-1.345-1.862c0-1.056,0.531-1.915,1.451-1.915
			c0.197,0,0.41,0.054,0.517,0.114l-0.114,0.479c-0.076-0.038-0.228-0.099-0.418-0.099c-0.592,0-0.851,0.699-0.851,1.421
			c0,0.859,0.327,1.376,0.866,1.376c0.152,0,0.289-0.03,0.418-0.099L219.056,83.284z"/>
	</g>
	<g enable-background="new    ">
		<path d="M220.383,78.839v0.858h0.707v0.44h-0.707v2.188c0,0.479,0.168,0.608,0.381,0.608c0.099,0,0.174-0.008,0.235-0.023
			l0.03,0.448c-0.106,0.038-0.243,0.062-0.434,0.062c-0.234,0-0.44-0.062-0.577-0.221c-0.151-0.167-0.22-0.418-0.22-0.927v-2.136
			h-0.449v-0.44h0.449v-0.623L220.383,78.839z"/>
		<path d="M222.236,78.747c0,0.229-0.137,0.38-0.357,0.38c-0.189,0-0.334-0.151-0.334-0.38c0-0.228,0.151-0.38,0.342-0.38
			C222.099,78.367,222.236,78.52,222.236,78.747z M221.605,83.375v-3.678h0.585v3.678H221.605z"/>
		<path d="M225.26,81.536c0,1.421-0.654,1.899-1.224,1.899c-0.661,0-1.192-0.6-1.192-1.892c0-1.338,0.6-1.9,1.23-1.9
			C224.735,79.644,225.26,80.26,225.26,81.536z M223.427,81.536c0,0.607,0.107,1.437,0.639,1.437c0.502,0,0.607-0.859,0.607-1.437
			c0-0.562-0.105-1.429-0.623-1.429C223.527,80.108,223.427,80.974,223.427,81.536z"/>
		<path d="M225.91,80.648c0-0.434-0.021-0.654-0.029-0.95h0.509l0.03,0.448h0.016c0.159-0.296,0.455-0.502,0.844-0.502
			c0.508,0,0.889,0.373,0.889,1.262v2.47h-0.586v-2.363c0-0.44-0.083-0.874-0.509-0.874c-0.243,0-0.479,0.205-0.547,0.593
			c-0.022,0.092-0.03,0.205-0.03,0.334v2.311h-0.586V80.648z"/>
		<path d="M228.886,82.768c0.13,0.083,0.357,0.189,0.594,0.189c0.326,0,0.539-0.205,0.539-0.532c0-0.281-0.099-0.471-0.471-0.722
			c-0.479-0.304-0.738-0.623-0.738-1.041c0-0.601,0.441-1.019,1.012-1.019c0.289,0,0.501,0.1,0.653,0.19l-0.152,0.44
			c-0.144-0.099-0.296-0.167-0.493-0.167c-0.312,0-0.472,0.229-0.472,0.471c0,0.244,0.091,0.381,0.456,0.631
			c0.426,0.273,0.76,0.608,0.76,1.117c0,0.737-0.502,1.095-1.109,1.095c-0.266,0-0.562-0.084-0.723-0.213L228.886,82.768z"/>
	</g>
	<g enable-background="new    ">
		<path d="M189.449,113.627c-0.16,0.083-0.418,0.137-0.737,0.137c-0.995,0-1.718-0.806-1.718-2.546c0-2.021,1.004-2.667,1.816-2.667
			c0.305,0,0.532,0.061,0.631,0.129l-0.129,0.494c-0.121-0.054-0.243-0.106-0.51-0.106c-0.547,0-1.192,0.532-1.192,2.098
			c0,1.564,0.577,2.082,1.208,2.082c0.221,0,0.41-0.054,0.531-0.106L189.449,113.627z"/>
	</g>
	<g enable-background="new    ">
		<path d="M192.121,111.879c0,1.421-0.652,1.899-1.223,1.899c-0.661,0-1.193-0.6-1.193-1.892c0-1.338,0.601-1.9,1.231-1.9
			C191.597,109.987,192.121,110.603,192.121,111.879z M190.291,111.879c0,0.607,0.105,1.437,0.638,1.437
			c0.501,0,0.608-0.859,0.608-1.437c0-0.562-0.107-1.429-0.623-1.429C190.388,110.45,190.291,111.317,190.291,111.879z"/>
		<path d="M192.773,110.99c0-0.434-0.023-0.654-0.031-0.95h0.51l0.03,0.448h0.015c0.16-0.296,0.457-0.502,0.844-0.502
			c0.51,0,0.889,0.373,0.889,1.262v2.47h-0.584v-2.363c0-0.44-0.084-0.874-0.51-0.874c-0.243,0-0.479,0.205-0.547,0.593
			c-0.023,0.092-0.03,0.205-0.03,0.334v2.311h-0.585V110.99z"/>
		<path d="M195.75,113.111c0.129,0.083,0.357,0.189,0.592,0.189c0.327,0,0.54-0.205,0.54-0.532c0-0.281-0.099-0.471-0.472-0.722
			c-0.479-0.304-0.736-0.623-0.736-1.041c0-0.601,0.44-1.019,1.01-1.019c0.289,0,0.502,0.1,0.654,0.19l-0.152,0.44
			c-0.145-0.099-0.297-0.167-0.494-0.167c-0.311,0-0.471,0.229-0.471,0.471c0,0.244,0.092,0.381,0.456,0.631
			c0.425,0.273,0.76,0.608,0.76,1.117c0,0.737-0.501,1.095-1.109,1.095c-0.267,0-0.562-0.084-0.722-0.213L195.75,113.111z"/>
		<path d="M198.757,109.182v0.858h0.707v0.44h-0.707v2.188c0,0.479,0.167,0.608,0.38,0.608c0.1,0,0.175-0.008,0.236-0.023
			l0.029,0.448c-0.105,0.038-0.242,0.062-0.433,0.062c-0.235,0-0.44-0.062-0.577-0.221c-0.152-0.167-0.221-0.418-0.221-0.927v-2.136
			h-0.448v-0.44h0.448v-0.623L198.757,109.182z"/>
		<path d="M200.609,109.09c0,0.229-0.137,0.38-0.356,0.38c-0.19,0-0.335-0.151-0.335-0.38c0-0.228,0.152-0.38,0.342-0.38
			C200.472,108.71,200.609,108.863,200.609,109.09z M199.978,113.718v-3.678h0.586v3.678H199.978z"/>
		<path d="M202.09,109.182v0.858h0.707v0.44h-0.707v2.188c0,0.479,0.168,0.608,0.381,0.608c0.099,0,0.174-0.008,0.235-0.023
			l0.03,0.448c-0.106,0.038-0.243,0.062-0.434,0.062c-0.234,0-0.44-0.062-0.577-0.221c-0.151-0.167-0.22-0.418-0.22-0.927v-2.136
			h-0.449v-0.44h0.449v-0.623L202.09,109.182z"/>
		<path d="M205.515,112.715c0,0.402,0.023,0.729,0.031,1.003h-0.51l-0.045-0.388h-0.016c-0.106,0.183-0.388,0.448-0.783,0.448
			c-0.639,0-0.896-0.501-0.896-1.413v-2.325h0.586v2.241c0,0.578,0.09,1.003,0.493,1.003c0.342,0,0.494-0.318,0.524-0.486
			c0.023-0.099,0.03-0.212,0.03-0.334v-2.424h0.585V112.715z"/>
		<path d="M207.049,109.182v0.858h0.707v0.44h-0.707v2.188c0,0.479,0.167,0.608,0.379,0.608c0.1,0,0.176-0.008,0.236-0.023
			l0.03,0.448c-0.106,0.038-0.243,0.062-0.433,0.062c-0.236,0-0.441-0.062-0.578-0.221c-0.152-0.167-0.221-0.418-0.221-0.927v-2.136
			h-0.447v-0.44h0.447v-0.623L207.049,109.182z"/>
		<path d="M208.901,109.09c0,0.229-0.137,0.38-0.356,0.38c-0.19,0-0.335-0.151-0.335-0.38c0-0.228,0.151-0.38,0.342-0.38
			C208.764,108.71,208.901,108.863,208.901,109.09z M208.27,113.718v-3.678h0.585v3.678H208.27z"/>
		<path d="M211.924,111.879c0,1.421-0.652,1.899-1.223,1.899c-0.661,0-1.193-0.6-1.193-1.892c0-1.338,0.601-1.9,1.231-1.9
			C211.4,109.987,211.924,110.603,211.924,111.879z M210.094,111.879c0,0.607,0.105,1.437,0.638,1.437
			c0.501,0,0.608-0.859,0.608-1.437c0-0.562-0.107-1.429-0.623-1.429C210.191,110.45,210.094,111.317,210.094,111.879z"/>
		<path d="M212.576,110.99c0-0.434-0.023-0.654-0.031-0.95h0.51l0.03,0.448h0.015c0.16-0.296,0.457-0.502,0.844-0.502
			c0.51,0,0.889,0.373,0.889,1.262v2.47h-0.584v-2.363c0-0.44-0.084-0.874-0.51-0.874c-0.243,0-0.479,0.205-0.547,0.593
			c-0.023,0.092-0.03,0.205-0.03,0.334v2.311h-0.585V110.99z"/>
		<path d="M217.589,112.882c0,0.281,0.007,0.601,0.038,0.836h-0.524l-0.038-0.388h-0.023c-0.158,0.281-0.418,0.448-0.736,0.448
			c-0.486,0-0.866-0.41-0.866-1.049c0-0.927,0.737-1.329,1.565-1.337v-0.114c0-0.494-0.129-0.828-0.586-0.828
			c-0.228,0-0.433,0.068-0.607,0.19l-0.129-0.411c0.159-0.113,0.494-0.243,0.858-0.243c0.737,0,1.049,0.479,1.049,1.3V112.882z
			 M217.019,111.811c-0.305,0-1.012,0.061-1.012,0.858c0,0.486,0.244,0.653,0.449,0.653c0.258,0,0.471-0.189,0.539-0.555
			c0.016-0.068,0.023-0.144,0.023-0.213V111.811z"/>
		<path d="M218.415,108.459H219v5.259h-0.585V108.459z"/>
	</g>
	<g enable-background="new    ">
		<path d="M191.285,120.704c0.13,0.083,0.357,0.189,0.594,0.189c0.326,0,0.539-0.205,0.539-0.532c0-0.281-0.099-0.471-0.471-0.722
			c-0.479-0.304-0.738-0.623-0.738-1.041c0-0.601,0.441-1.019,1.012-1.019c0.289,0,0.501,0.1,0.653,0.19l-0.152,0.44
			c-0.144-0.099-0.296-0.167-0.493-0.167c-0.312,0-0.472,0.229-0.472,0.471c0,0.244,0.091,0.381,0.456,0.631
			c0.426,0.273,0.76,0.608,0.76,1.117c0,0.737-0.502,1.095-1.109,1.095c-0.266,0-0.562-0.084-0.723-0.213L191.285,120.704z"/>
		<path d="M193.875,117.634l0.494,2.112c0.061,0.289,0.099,0.524,0.152,0.76h0.015c0.038-0.213,0.099-0.486,0.151-0.752l0.441-2.12
			h0.578l-0.602,2.363c-0.227,0.919-0.486,1.809-0.911,2.371c-0.259,0.326-0.532,0.493-0.661,0.555l-0.221-0.494
			c0.176-0.099,0.357-0.259,0.525-0.464c0.151-0.197,0.266-0.44,0.326-0.623c0.03-0.083,0.045-0.129,0.045-0.183
			c0-0.045-0.008-0.091-0.022-0.137l-0.927-3.389H193.875z"/>
		<path d="M196.206,118.584c0-0.434-0.022-0.654-0.03-0.95h0.51l0.029,0.456h0.016c0.16-0.297,0.441-0.51,0.828-0.51
			c0.342,0,0.631,0.16,0.768,0.562h0.016c0.099-0.183,0.228-0.334,0.364-0.418c0.145-0.099,0.319-0.145,0.509-0.145
			c0.494,0,0.882,0.357,0.882,1.3v2.432h-0.577v-2.303c0-0.479-0.068-0.942-0.518-0.942c-0.242,0-0.455,0.206-0.539,0.555
			c-0.016,0.092-0.022,0.206-0.022,0.327v2.363h-0.577v-2.409c0-0.402-0.068-0.836-0.51-0.836c-0.243,0-0.479,0.206-0.547,0.601
			c-0.016,0.092-0.023,0.197-0.023,0.312v2.333h-0.577V118.584z"/>
		<path d="M200.906,118.781c0-0.562-0.023-0.89-0.03-1.147h0.517l0.03,0.471h0.015c0.205-0.388,0.494-0.524,0.783-0.524
			c0.646,0,1.064,0.677,1.064,1.885c0,1.368-0.562,1.907-1.141,1.907c-0.35,0-0.547-0.22-0.646-0.426h-0.015v1.824h-0.578V118.781z
			 M201.484,119.967c0,0.106,0.007,0.213,0.029,0.304c0.114,0.524,0.381,0.615,0.54,0.615c0.486,0,0.646-0.668,0.646-1.405
			c0-0.76-0.182-1.398-0.653-1.398c-0.267,0-0.509,0.327-0.54,0.661c-0.015,0.084-0.021,0.183-0.021,0.281V119.967z"/>
	</g>
	<g enable-background="new    ">
		<path d="M204.658,116.776v0.858h0.707v0.44h-0.707v2.188c0,0.479,0.167,0.608,0.379,0.608c0.1,0,0.176-0.008,0.236-0.023
			l0.03,0.448c-0.106,0.038-0.243,0.062-0.433,0.062c-0.236,0-0.441-0.062-0.578-0.221c-0.152-0.167-0.221-0.418-0.221-0.927v-2.136
			h-0.447v-0.44h0.447v-0.623L204.658,116.776z"/>
	</g>
	<g enable-background="new    ">
		<path d="M208.083,119.473c0,1.421-0.653,1.899-1.224,1.899c-0.66,0-1.192-0.6-1.192-1.892c0-1.338,0.601-1.9,1.231-1.9
			C207.558,117.58,208.083,118.197,208.083,119.473z M206.252,119.473c0,0.607,0.106,1.437,0.639,1.437
			c0.501,0,0.607-0.859,0.607-1.437c0-0.562-0.106-1.429-0.623-1.429C206.35,118.044,206.252,118.91,206.252,119.473z"/>
		<path d="M208.734,118.584c0-0.434-0.022-0.654-0.03-0.95h0.509l0.031,0.456h0.015c0.159-0.297,0.44-0.51,0.828-0.51
			c0.343,0,0.631,0.16,0.768,0.562h0.015c0.1-0.183,0.229-0.334,0.365-0.418c0.145-0.099,0.319-0.145,0.51-0.145
			c0.494,0,0.881,0.357,0.881,1.3v2.432h-0.577v-2.303c0-0.479-0.068-0.942-0.517-0.942c-0.244,0-0.456,0.206-0.54,0.555
			c-0.015,0.092-0.022,0.206-0.022,0.327v2.363h-0.578v-2.409c0-0.402-0.068-0.836-0.509-0.836c-0.243,0-0.479,0.206-0.547,0.601
			c-0.015,0.092-0.022,0.197-0.022,0.312v2.333h-0.578V118.584z"/>
		<path d="M213.344,120.704c0.129,0.083,0.357,0.189,0.593,0.189c0.327,0,0.54-0.205,0.54-0.532c0-0.281-0.1-0.471-0.472-0.722
			c-0.479-0.304-0.737-0.623-0.737-1.041c0-0.601,0.441-1.019,1.011-1.019c0.289,0,0.501,0.1,0.653,0.19l-0.152,0.44
			c-0.144-0.099-0.296-0.167-0.493-0.167c-0.312,0-0.472,0.229-0.472,0.471c0,0.244,0.092,0.381,0.457,0.631
			c0.425,0.273,0.76,0.608,0.76,1.117c0,0.737-0.502,1.095-1.109,1.095c-0.267,0-0.562-0.084-0.723-0.213L213.344,120.704z"/>
	</g>
	<line fill="none" stroke="#939598" x1="242.942" y1="37.365" x2="242.942" y2="51.398"/>
	<polyline fill="none" stroke="#939598" points="246.478,47.597 242.942,51.398 239.409,47.597 	"/>
	<line fill="none" stroke="#939598" x1="226.156" y1="86.063" x2="226.156" y2="100.097"/>
	<polyline fill="none" stroke="#939598" points="229.689,96.295 226.155,100.098 222.621,96.295 	"/>
	<line fill="none" stroke="#939598" x1="203.285" y1="123.192" x2="203.285" y2="137.227"/>
	<polyline fill="none" stroke="#939598" points="206.82,133.425 203.285,137.227 199.752,133.425 	"/>
	<line fill="none" stroke="#000000" x1="38.038" y1="3.329" x2="77.993" y2="3.329"/>
	<line fill="none" stroke="#000000" stroke-dasharray="3.827,3.827" x1="155.077" y1="3.131" x2="195.032" y2="3.131"/>
	<g enable-background="new    ">
		<path d="M82.709,6.265c-0.16,0.083-0.418,0.137-0.737,0.137c-0.996,0-1.717-0.806-1.717-2.546c0-2.021,1.003-2.667,1.816-2.667
			c0.304,0,0.532,0.061,0.631,0.129l-0.129,0.494c-0.122-0.054-0.243-0.106-0.509-0.106c-0.547,0-1.193,0.532-1.193,2.098
			c0,1.564,0.577,2.082,1.208,2.082c0.22,0,0.41-0.054,0.532-0.106L82.709,6.265z"/>
		<path d="M83.306,1.31c0.221-0.068,0.494-0.099,0.783-0.099c0.54,0,0.919,0.137,1.201,0.388c0.395,0.342,0.691,1.003,0.691,2.074
			c0,1.171-0.289,1.809-0.615,2.166c-0.334,0.372-0.821,0.547-1.414,0.547c-0.235,0-0.479-0.015-0.646-0.053V1.31z M83.884,5.885
			C83.968,5.9,84.051,5.9,84.104,5.9c0.646,0,1.269-0.471,1.269-2.211c0-1.292-0.395-1.999-1.216-1.999
			c-0.091,0-0.197,0.008-0.273,0.03V5.885z"/>
		<path d="M88,6.356V4.988h-1.642V4.593l1.604-3.177h0.57v3.093h0.532v0.479h-0.532v1.368H88z M88,4.509V3.118
			c0-0.342,0.022-0.646,0.045-0.973h-0.03c-0.167,0.396-0.274,0.623-0.418,0.927l-0.684,1.422v0.015H88z"/>
	</g>
	<g enable-background="new    ">
		<path d="M92.542,6.265c-0.129,0.075-0.35,0.137-0.608,0.137c-0.806,0-1.345-0.646-1.345-1.862c0-1.056,0.532-1.915,1.451-1.915
			c0.198,0,0.41,0.054,0.517,0.114l-0.114,0.479c-0.076-0.038-0.228-0.099-0.418-0.099c-0.593,0-0.851,0.699-0.851,1.421
			c0,0.859,0.327,1.376,0.866,1.376c0.152,0,0.289-0.03,0.418-0.099L92.542,6.265z"/>
	</g>
	<g enable-background="new    ">
		<path d="M95.26,4.517c0,1.421-0.653,1.899-1.223,1.899c-0.661,0-1.193-0.6-1.193-1.892c0-1.338,0.6-1.9,1.231-1.9
			C94.736,2.624,95.26,3.24,95.26,4.517z M93.429,4.517c0,0.607,0.106,1.437,0.638,1.437c0.501,0,0.608-0.859,0.608-1.437
			c0-0.562-0.106-1.429-0.623-1.429C93.528,3.088,93.429,3.954,93.429,4.517z"/>
		<path d="M98.115,5.353c0,0.402,0.022,0.729,0.03,1.003h-0.509l-0.045-0.388h-0.015c-0.106,0.183-0.388,0.448-0.783,0.448
			c-0.639,0-0.897-0.501-0.897-1.413V2.678h0.585v2.241c0,0.578,0.091,1.003,0.494,1.003c0.342,0,0.494-0.318,0.524-0.486
			c0.023-0.099,0.03-0.212,0.03-0.334V2.678h0.585V5.353z"/>
	</g>
	<g enable-background="new    ">
		<path d="M98.933,3.628c0-0.434-0.022-0.654-0.03-0.95h0.509l0.03,0.448h0.015c0.16-0.296,0.456-0.502,0.844-0.502
			c0.509,0,0.889,0.373,0.889,1.262v2.47h-0.585V3.992c0-0.44-0.083-0.874-0.509-0.874c-0.243,0-0.479,0.205-0.547,0.593
			c-0.023,0.092-0.03,0.205-0.03,0.334v2.311h-0.585V3.628z"/>
	</g>
	<g enable-background="new    ">
		<path d="M102.684,1.82v0.858h0.707v0.44h-0.707v2.188c0,0.479,0.167,0.608,0.38,0.608c0.099,0,0.175-0.008,0.236-0.023l0.03,0.448
			c-0.106,0.038-0.243,0.062-0.433,0.062c-0.235,0-0.441-0.062-0.578-0.221c-0.152-0.167-0.22-0.418-0.22-0.927V3.118h-0.448v-0.44
			h0.448V2.055L102.684,1.82z"/>
	</g>
	<g enable-background="new    ">
		<path d="M199.418,6.356l-1.171-5.122h0.631l0.493,2.401c0.122,0.578,0.273,1.314,0.365,1.969h0.023
			c0.076-0.661,0.22-1.376,0.342-1.983l0.486-2.387h0.623l-1.193,5.122H199.418z"/>
	</g>
	<g enable-background="new    ">
		<path d="M202.181,1.728c0,0.229-0.137,0.38-0.357,0.38c-0.189,0-0.334-0.151-0.334-0.38c0-0.228,0.152-0.38,0.342-0.38
			C202.045,1.348,202.181,1.5,202.181,1.728z M201.551,6.356V2.678h0.586v3.678H201.551z"/>
	</g>
	<g enable-background="new    ">
		<path d="M202.939,3.628c0-0.312-0.023-0.677-0.03-0.95h0.524l0.03,0.585h0.015c0.122-0.35,0.434-0.639,0.775-0.639
			c0.045,0,0.084,0,0.121,0.008v0.593c-0.037,0-0.076,0-0.121,0c-0.372,0-0.646,0.342-0.707,0.76
			c-0.015,0.099-0.022,0.213-0.022,0.335v2.036h-0.585V3.628z"/>
	</g>
	<g enable-background="new    ">
		<path d="M206.73,5.52c0,0.281,0.008,0.601,0.038,0.836h-0.524l-0.038-0.388h-0.022c-0.16,0.281-0.418,0.448-0.737,0.448
			c-0.486,0-0.866-0.41-0.866-1.049c0-0.927,0.736-1.329,1.564-1.337V3.916c0-0.494-0.129-0.828-0.584-0.828
			c-0.229,0-0.434,0.068-0.608,0.19l-0.129-0.411c0.159-0.113,0.493-0.243,0.858-0.243c0.737,0,1.049,0.479,1.049,1.3V5.52z
			 M206.16,4.448c-0.304,0-1.01,0.061-1.01,0.858c0,0.486,0.242,0.653,0.447,0.653c0.259,0,0.472-0.189,0.54-0.555
			c0.015-0.068,0.022-0.144,0.022-0.213V4.448z"/>
		<path d="M207.556,1.097h0.586v5.259h-0.586V1.097z"/>
		<path d="M210.199,1.097h0.585v5.259h-0.585V1.097z"/>
		<path d="M213.906,4.517c0,1.421-0.654,1.899-1.224,1.899c-0.661,0-1.192-0.6-1.192-1.892c0-1.338,0.6-1.9,1.23-1.9
			C213.382,2.624,213.906,3.24,213.906,4.517z M212.074,4.517c0,0.607,0.107,1.437,0.639,1.437c0.502,0,0.607-0.859,0.607-1.437
			c0-0.562-0.105-1.429-0.623-1.429C212.174,3.088,212.074,3.954,212.074,4.517z"/>
		<path d="M216.495,5.52c0,0.281,0.007,0.601,0.038,0.836h-0.524l-0.038-0.388h-0.023c-0.158,0.281-0.418,0.448-0.736,0.448
			c-0.486,0-0.866-0.41-0.866-1.049c0-0.927,0.737-1.329,1.565-1.337V3.916c0-0.494-0.129-0.828-0.586-0.828
			c-0.228,0-0.433,0.068-0.607,0.19l-0.129-0.411c0.159-0.113,0.494-0.243,0.858-0.243c0.737,0,1.049,0.479,1.049,1.3V5.52z
			 M215.926,4.448c-0.305,0-1.012,0.061-1.012,0.858c0,0.486,0.244,0.653,0.449,0.653c0.258,0,0.471-0.189,0.539-0.555
			c0.016-0.068,0.023-0.144,0.023-0.213V4.448z"/>
		<path d="M219.533,1.097v4.377c0,0.251,0.022,0.669,0.029,0.882h-0.501L219.023,5.9h-0.022c-0.122,0.259-0.38,0.517-0.775,0.517
			c-0.615,0-1.063-0.668-1.063-1.885c0-1.299,0.539-1.907,1.102-1.907c0.273,0,0.531,0.122,0.676,0.434h0.016V1.097H219.533z
			 M218.955,4.083c0-0.075,0-0.167-0.008-0.243c-0.037-0.387-0.266-0.714-0.547-0.714c-0.486,0-0.653,0.677-0.653,1.405
			c0,0.775,0.198,1.398,0.623,1.398c0.183,0,0.433-0.099,0.562-0.631c0.015-0.068,0.022-0.151,0.022-0.243V4.083z"/>
	</g>
	<g enable-background="new    ">
		<path d="M11.688,81.234c-0.16,0.083-0.418,0.137-0.737,0.137c-0.996,0-1.717-0.806-1.717-2.546c0-2.021,1.003-2.667,1.816-2.667
			c0.304,0,0.532,0.061,0.631,0.129l-0.129,0.494c-0.122-0.054-0.243-0.106-0.509-0.106c-0.547,0-1.193,0.532-1.193,2.098
			c0,1.564,0.577,2.082,1.208,2.082c0.22,0,0.41-0.054,0.532-0.106L11.688,81.234z"/>
		<path d="M12.286,76.279c0.221-0.068,0.494-0.099,0.783-0.099c0.54,0,0.919,0.137,1.201,0.388c0.395,0.342,0.691,1.003,0.691,2.074
			c0,1.171-0.289,1.809-0.615,2.166c-0.334,0.372-0.821,0.547-1.414,0.547c-0.235,0-0.479-0.015-0.646-0.053V76.279z M12.864,80.854
			c0.083,0.015,0.167,0.015,0.22,0.015c0.646,0,1.269-0.471,1.269-2.211c0-1.292-0.395-1.999-1.216-1.999
			c-0.091,0-0.197,0.008-0.273,0.03V80.854z"/>
		<path d="M16.98,81.324v-1.368h-1.642v-0.395l1.604-3.177h0.57v3.093h0.532v0.479h-0.532v1.368H16.98z M16.98,79.478v-1.391
			c0-0.342,0.022-0.646,0.045-0.973h-0.03c-0.167,0.396-0.274,0.623-0.418,0.927l-0.684,1.422v0.015H16.98z"/>
	</g>
	<g enable-background="new    ">
		<path d="M1.733,85.178c-0.433,0.685-0.79,1.71-0.79,3.093c0,1.36,0.357,2.387,0.79,3.078H1.277
			c-0.395-0.578-0.828-1.596-0.828-3.085c0.015-1.49,0.433-2.516,0.828-3.086H1.733z"/>
	</g>
	<g enable-background="new    ">
		<path d="M4.057,90.346c-0.129,0.075-0.35,0.137-0.608,0.137c-0.806,0-1.345-0.646-1.345-1.862c0-1.056,0.532-1.915,1.451-1.915
			c0.198,0,0.41,0.054,0.517,0.114l-0.114,0.479C3.882,87.26,3.73,87.199,3.54,87.199c-0.593,0-0.851,0.699-0.851,1.421
			c0,0.859,0.327,1.376,0.866,1.376c0.152,0,0.289-0.03,0.418-0.099L4.057,90.346z"/>
	</g>
	<g enable-background="new    ">
		<path d="M4.929,88.651c0,1.133,0.448,1.368,0.866,1.368c0.258,0,0.463-0.061,0.608-0.137l0.099,0.426
			c-0.205,0.106-0.517,0.175-0.813,0.175c-0.881,0-1.337-0.723-1.337-1.847c0-1.186,0.509-1.931,1.246-1.931
			c0.745,0,1.049,0.791,1.049,1.611c0,0.145-0.008,0.243-0.015,0.334H4.929z M6.084,88.218c0.008-0.729-0.266-1.057-0.547-1.057
			c-0.388,0-0.578,0.555-0.601,1.057H6.084z"/>
		<path d="M7.275,85.178H7.86v5.259H7.275V85.178z"/>
		<path d="M8.725,85.178H9.31v5.259H8.725V85.178z"/>
		<path d="M10.076,89.829c0.129,0.083,0.357,0.189,0.593,0.189c0.327,0,0.54-0.205,0.54-0.532c0-0.281-0.099-0.471-0.471-0.722
			C10.259,88.461,10,88.142,10,87.724c0-0.601,0.441-1.019,1.011-1.019c0.289,0,0.501,0.1,0.654,0.19l-0.152,0.44
			c-0.144-0.099-0.296-0.167-0.494-0.167c-0.312,0-0.471,0.229-0.471,0.471c0,0.244,0.091,0.381,0.456,0.631
			c0.425,0.273,0.76,0.608,0.76,1.117c0,0.737-0.501,1.095-1.109,1.095c-0.266,0-0.562-0.084-0.722-0.213L10.076,89.829z"/>
		<path d="M12.02,90.74l1.633-5.486h0.441l-1.634,5.486H12.02z"/>
		<path d="M14.503,87.709c0-0.434-0.022-0.654-0.03-0.95h0.509l0.03,0.456h0.015c0.16-0.297,0.441-0.51,0.829-0.51
			c0.342,0,0.63,0.16,0.767,0.562h0.015c0.099-0.183,0.228-0.334,0.365-0.418c0.145-0.099,0.319-0.145,0.509-0.145
			c0.494,0,0.881,0.357,0.881,1.3v2.432h-0.577v-2.303c0-0.479-0.068-0.942-0.517-0.942c-0.243,0-0.456,0.206-0.54,0.555
			c-0.015,0.092-0.022,0.206-0.022,0.327v2.363H16.16v-2.409c0-0.402-0.068-0.836-0.509-0.836c-0.243,0-0.479,0.206-0.547,0.601
			c-0.015,0.092-0.023,0.197-0.023,0.312v2.333h-0.578V87.709z"/>
		<path d="M19.211,87.709c0-0.434-0.022-0.654-0.03-0.95h0.509l0.03,0.456h0.015c0.16-0.297,0.441-0.51,0.829-0.51
			c0.342,0,0.63,0.16,0.767,0.562h0.015c0.099-0.183,0.228-0.334,0.365-0.418c0.145-0.099,0.319-0.145,0.509-0.145
			c0.494,0,0.881,0.357,0.881,1.3v2.432h-0.577v-2.303c0-0.479-0.068-0.942-0.517-0.942c-0.243,0-0.456,0.206-0.54,0.555
			c-0.015,0.092-0.022,0.206-0.022,0.327v2.363h-0.578v-2.409c0-0.402-0.068-0.836-0.509-0.836c-0.243,0-0.479,0.206-0.547,0.601
			c-0.015,0.092-0.023,0.197-0.023,0.312v2.333h-0.578V87.709z"/>
	</g>
	<g enable-background="new    ">
		<path d="M23.693,87.539c0.088,0.053,0.239,0.119,0.412,0.119c0.301,0,0.5-0.217,0.5-0.57c0-0.381-0.235-0.598-0.58-0.598h-0.08
			v-0.257h0.066c0.204,0,0.518-0.154,0.518-0.513c0-0.293-0.155-0.443-0.381-0.443c-0.142,0-0.265,0.071-0.358,0.138l-0.075-0.257
			c0.106-0.084,0.301-0.164,0.518-0.164c0.407,0,0.637,0.293,0.637,0.664c0,0.288-0.15,0.544-0.429,0.673v0.009
			c0.257,0.07,0.504,0.301,0.504,0.752c0,0.47-0.301,0.85-0.823,0.85c-0.186,0-0.39-0.053-0.504-0.133L23.693,87.539z"/>
	</g>
	<g enable-background="new    ">
		<path d="M25.388,91.347c0.433-0.685,0.791-1.726,0.791-3.093c0-1.368-0.357-2.394-0.791-3.078h0.456
			c0.395,0.562,0.828,1.573,0.828,3.078c-0.015,1.504-0.433,2.508-0.828,3.093H25.388z"/>
	</g>
</g>
</svg>
