<?xml version="1.0" encoding="utf-8"?>
<!-- Generator: Adobe Illustrator 15.0.2, SVG Export Plug-In . SVG Version: 6.00 Build 0)  -->
<!DOCTYPE svg PUBLIC "-//W3C//DTD SVG 1.1//EN" "http://www.w3.org/Graphics/SVG/1.1/DTD/svg11.dtd">
<svg version="1.1" id="Layer_1" xmlns="http://www.w3.org/2000/svg" xmlns:xlink="http://www.w3.org/1999/xlink" x="0px" y="0px"
	 width="371.672px" height="508.466px" viewBox="0 0 371.672 508.466" enable-background="new 0 0 371.672 508.466"
	 xml:space="preserve">
<g>
	
		<rect x="176.578" y="176.938" fill-rule="evenodd" clip-rule="evenodd" stroke="#000000" stroke-width="0.216" stroke-miterlimit="10" width="104.4" height="2.376"/>
</g>
<line fill-rule="evenodd" clip-rule="evenodd" fill="none" stroke="#000000" stroke-width="0.216" stroke-miterlimit="10" x1="177.802" y1="178.09" x2="279.754" y2="178.09"/>
<g>
	
		<rect x="129.85" y="215.098" fill-rule="evenodd" clip-rule="evenodd" stroke="#000000" stroke-width="0.216" stroke-miterlimit="10" width="2.376" height="138.6"/>
</g>
<line fill-rule="evenodd" clip-rule="evenodd" fill="none" stroke="#000000" stroke-width="0.216" stroke-miterlimit="10" x1="131.074" y1="216.322" x2="131.074" y2="352.474"/>
<g>
	
		<rect x="265.786" y="377.602" fill-rule="evenodd" clip-rule="evenodd" stroke="#000000" stroke-width="0.216" stroke-miterlimit="10" width="17.784" height="2.376"/>
</g>
<line fill-rule="evenodd" clip-rule="evenodd" fill="none" stroke="#000000" stroke-width="0.216" stroke-miterlimit="10" x1="282.346" y1="378.826" x2="266.938" y2="378.826"/>
<g>
	
		<rect x="173.914" y="378.25" fill-rule="evenodd" clip-rule="evenodd" stroke="#000000" stroke-width="0.216" stroke-miterlimit="10" width="12.96" height="2.448"/>
</g>
<line fill-rule="evenodd" clip-rule="evenodd" fill="none" stroke="#000000" stroke-width="0.216" stroke-miterlimit="10" x1="185.65" y1="379.474" x2="175.138" y2="379.474"/>
<g>
	
		<rect x="250.882" y="471.058" fill-rule="evenodd" clip-rule="evenodd" stroke="#000000" stroke-width="0.216" stroke-miterlimit="10" width="30.744" height="2.448"/>
</g>
<line fill-rule="evenodd" clip-rule="evenodd" fill="none" stroke="#000000" stroke-width="0.216" stroke-miterlimit="10" x1="280.402" y1="472.282" x2="252.106" y2="472.282"/>
<polygon fill-rule="evenodd" clip-rule="evenodd" stroke="#000000" stroke-width="0.216" stroke-miterlimit="10" points="
	38.338,109.33 38.338,102.562 319.786,103.21 319.786,154.978 317.338,154.978 317.338,105.586 40.786,104.938 40.786,109.33 "/>
<polyline fill-rule="evenodd" clip-rule="evenodd" fill="none" stroke="#000000" stroke-width="0.216" stroke-miterlimit="10" points="
	39.562,108.106 39.562,103.714 318.562,104.434 318.562,153.754 "/>
<g>
	
		<polygon fill-rule="evenodd" clip-rule="evenodd" fill="#D1D3D4" stroke="#D1D3D4" stroke-width="0.5" stroke-miterlimit="10" points="
		189.826,383.938 226.546,345.346 263.338,383.938 226.546,422.602 	"/>
	
		<polygon fill-rule="evenodd" clip-rule="evenodd" fill="#D1D3D4" stroke="#D1D3D4" stroke-width="0.5" stroke-miterlimit="10" points="
		285.082,476.962 321.802,445.786 358.45,476.962 321.802,508.138 	"/>
	
		<rect x="284.65" y="364.498" fill-rule="evenodd" clip-rule="evenodd" fill="#D1D3D4" stroke="#D1D3D4" stroke-width="0.5" stroke-miterlimit="10" width="74.232" height="41.112"/>
	
		<rect x="180.754" y="456.154" fill-rule="evenodd" clip-rule="evenodd" fill="#D1D3D4" stroke="#D1D3D4" stroke-width="0.5" stroke-miterlimit="10" width="67.608" height="41.616"/>
	
		<rect x="98.53" y="363.274" fill-rule="evenodd" clip-rule="evenodd" fill="#D1D3D4" stroke="#D1D3D4" stroke-width="0.5" stroke-miterlimit="10" width="72.432" height="41.256"/>
	<g>
		
			<polygon fill-rule="evenodd" clip-rule="evenodd" fill="#D1D3D4" stroke="#D1D3D4" stroke-width="0.5" stroke-miterlimit="10" points="
			154.618,47.698 226.33,47.698 246.706,4.498 174.994,4.498 		"/>
		<text transform="matrix(1 0 0 1 179.9619 13.1382)" fill="#D1D3D4" font-family="'ArialNarrow'" font-size="9">Gestation 28 </text>
		<text transform="matrix(1 0 0 1 176.6499 23.3618)" fill="#D1D3D4" font-family="'ArialNarrow'" font-size="9">weeks or more</text>
		<text transform="matrix(1 0 0 1 181.978 33.5142)" fill="#D1D3D4" font-family="'ArialNarrow'" font-size="9">with normal</text>
		<text transform="matrix(1 0 0 1 181.7622 43.7378)" fill="#D1D3D4" font-family="'ArialNarrow'" font-size="9">fetal growth</text>
		
			<text transform="matrix(1 0 0 1 179.9619 13.1382)" fill="none" stroke="#D1D3D4" stroke-width="0.5" stroke-miterlimit="10" font-family="'ArialNarrow'" font-size="9">Gestation 28 </text>
		
			<text transform="matrix(1 0 0 1 176.6499 23.3618)" fill="none" stroke="#D1D3D4" stroke-width="0.5" stroke-miterlimit="10" font-family="'ArialNarrow'" font-size="9">weeks or more</text>
		
			<text transform="matrix(1 0 0 1 181.978 33.5142)" fill="none" stroke="#D1D3D4" stroke-width="0.5" stroke-miterlimit="10" font-family="'ArialNarrow'" font-size="9">with normal</text>
		
			<text transform="matrix(1 0 0 1 181.7622 43.7378)" fill="none" stroke="#D1D3D4" stroke-width="0.5" stroke-miterlimit="10" font-family="'ArialNarrow'" font-size="9">fetal growth</text>
	</g>
	<g>
		<path fill-rule="evenodd" clip-rule="evenodd" fill="#D1D3D4" stroke="#D1D3D4" stroke-width="0.5" stroke-miterlimit="10" d="
			M155.77,93.058h52.128c8.856,0,16.128,7.272,16.128,16.128l0,0c0,8.856-7.272,16.128-16.128,16.128H155.77
			c-8.856,0-16.128-7.272-16.128-16.128l0,0C139.642,100.33,146.914,93.058,155.77,93.058z"/>
		<text transform="matrix(1 0 0 1 157.7139 106.4502)" fill="#D1D3D4" font-family="'ArialNarrow'" font-size="9">Concern about</text>
		<text transform="matrix(1 0 0 1 158.5059 116.6021)" fill="#D1D3D4" font-family="'ArialNarrow'" font-size="9">fetal wellbeing</text>
		
			<text transform="matrix(1 0 0 1 157.7139 106.4502)" fill="none" stroke="#D1D3D4" stroke-width="0.5" stroke-miterlimit="10" font-family="'ArialNarrow'" font-size="9">Concern about</text>
		
			<text transform="matrix(1 0 0 1 158.5059 116.6021)" fill="none" stroke="#D1D3D4" stroke-width="0.5" stroke-miterlimit="10" font-family="'ArialNarrow'" font-size="9">fetal wellbeing</text>
	</g>
	
		<rect x="3.418" y="154.33" fill-rule="evenodd" clip-rule="evenodd" fill="#D1D3D4" stroke="#D1D3D4" stroke-width="0.5" stroke-miterlimit="10" width="84.024" height="56.592"/>
	
		<polygon fill-rule="evenodd" clip-rule="evenodd" fill="#D1D3D4" stroke="#D1D3D4" stroke-width="0.5" stroke-miterlimit="10" points="
		93.274,182.626 134.746,144.898 176.146,182.626 134.746,220.282 	"/>
	
		<polygon fill-rule="evenodd" clip-rule="evenodd" fill="#D1D3D4" stroke="#D1D3D4" stroke-width="0.5" stroke-miterlimit="10" points="
		272.266,285.082 321.802,246.418 371.266,285.082 321.802,323.674 	"/>
	
		<rect x="283.714" y="162.466" fill-rule="evenodd" clip-rule="evenodd" fill="#D1D3D4" stroke="#D1D3D4" stroke-width="0.5" stroke-miterlimit="10" width="76.104" height="40.248"/>
</g>
<polygon fill-rule="evenodd" clip-rule="evenodd" fill="#FFFFFF" stroke="#000000" stroke-width="0.5" stroke-miterlimit="10" points="
	186.658,379.762 223.378,341.098 260.098,379.762 223.378,418.354 "/>
<polygon fill-rule="evenodd" clip-rule="evenodd" fill="#FFFFFF" stroke="#000000" stroke-width="0.5" stroke-miterlimit="10" points="
	281.914,472.714 318.562,441.538 355.282,472.714 318.562,503.89 "/>
<rect x="281.41" y="360.25" fill-rule="evenodd" clip-rule="evenodd" fill="#FFFFFF" stroke="#000000" stroke-width="0.5" stroke-miterlimit="10" width="74.304" height="41.112"/>
<rect x="177.586" y="451.978" fill-rule="evenodd" clip-rule="evenodd" fill="#FFFFFF" stroke="#000000" stroke-width="0.5" stroke-miterlimit="10" width="67.608" height="41.544"/>
<rect x="95.362" y="359.098" fill-rule="evenodd" clip-rule="evenodd" fill="#FFFFFF" stroke="#000000" stroke-width="0.5" stroke-miterlimit="10" width="72.432" height="41.256"/>
<polygon fill-rule="evenodd" clip-rule="evenodd" fill="#FFFFFF" stroke="#000000" stroke-width="0.5" stroke-miterlimit="10" points="
	151.45,43.522 223.162,43.522 243.538,0.25 171.826,0.25 "/>
<text transform="matrix(1 0 0 1 176.7939 8.9619)" font-family="'ArialNarrow'" font-size="9">Gestation 28 </text>
<text transform="matrix(1 0 0 1 173.4819 19.1138)" font-family="'ArialNarrow'" font-size="9">weeks or more</text>
<text transform="matrix(1 0 0 1 178.8101 29.3379)" font-family="'ArialNarrow'" font-size="9">with normal</text>
<text transform="matrix(1 0 0 1 178.5938 39.4902)" font-family="'ArialNarrow'" font-size="9">fetal growth</text>
<g>
	<path fill-rule="evenodd" clip-rule="evenodd" fill="#FFFFFF" stroke="#000000" stroke-width="0.5" stroke-miterlimit="10" d="
		M152.602,88.81h52.128c8.856,0,16.128,7.272,16.128,16.128l0,0c0,8.928-7.272,16.2-16.128,16.2h-52.128
		c-8.856,0-16.128-7.272-16.128-16.2l0,0C136.474,96.082,143.746,88.81,152.602,88.81z"/>
	<text transform="matrix(1 0 0 1 154.5459 102.2021)" font-family="'ArialNarrow'" font-size="9">Concern about</text>
	<text transform="matrix(1 0 0 1 155.3379 112.4263)" font-family="'ArialNarrow'" font-size="9">fetal wellbeing</text>
</g>
<rect x="0.25" y="150.082" fill-rule="evenodd" clip-rule="evenodd" fill="#FFFFFF" stroke="#000000" stroke-width="0.5" stroke-miterlimit="10" width="84.024" height="56.592"/>
<polygon fill-rule="evenodd" clip-rule="evenodd" fill="#FFFFFF" stroke="#000000" stroke-width="0.5" stroke-miterlimit="10" points="
	90.106,178.378 131.578,140.722 172.978,178.378 131.578,216.034 "/>
<polygon fill-rule="evenodd" clip-rule="evenodd" fill="#FFFFFF" stroke="#000000" stroke-width="0.5" stroke-miterlimit="10" points="
	269.026,280.834 318.562,242.17 368.098,280.834 318.562,319.426 "/>
<rect x="280.546" y="158.29" fill-rule="evenodd" clip-rule="evenodd" fill="#FFFFFF" stroke="#000000" stroke-width="0.5" stroke-miterlimit="10" width="76.104" height="40.176"/>
<text transform="matrix(1 0 0 1 89.2422 94.498)" font-family="'ArialNarrow-Bold'" font-size="9.936">No</text>
<text transform="matrix(1 0 0 1 267.2979 94.498)" font-family="'ArialNarrow-Bold'" font-size="9.936">Yes</text>
<text transform="matrix(1 0 0 1 4.0659 166.2822)" font-family="'ArialNarrow'" font-size="9">1. Inform patient about</text>
<text transform="matrix(1 0 0 1 4.0659 176.5059)" font-family="'ArialNarrow'" font-size="9">    importance of fetal</text>
<text transform="matrix(1 0 0 1 4.0659 186.6582)" font-family="'ArialNarrow'" font-size="9">    movements</text>
<text transform="matrix(1 0 0 1 4.0659 196.8818)" font-family="'ArialNarrow'" font-size="9">2. Routine low risk care</text>
<text transform="matrix(1 0 0 1 114.5142 167.8662)" font-family="'ArialNarrow'" font-size="9">Good fetal</text>
<text transform="matrix(1 0 0 1 99.7539 178.0898)" font-family="'ArialNarrow'" font-size="9">movements, or 4 or</text>
<text transform="matrix(1 0 0 1 102.9941 188.2422)" font-family="'ArialNarrow'" font-size="9">more movements</text>
<text transform="matrix(1 0 0 1 116.7461 198.4658)" font-family="'ArialNarrow'" font-size="9"> per hour</text>
<text transform="matrix(1 0 0 1 284.0737 170.5298)" font-family="'ArialNarrow'" font-size="9">Use fetal movements</text>
<text transform="matrix(1 0 0 1 284.6499 180.6821)" font-family="'ArialNarrow'" font-size="9">chart for 1 hour each</text>
<text transform="matrix(1 0 0 1 305.3857 190.9063)" font-family="'ArialNarrow'" font-size="9">morning</text>
<text transform="matrix(1 0 0 1 286.4497 275.7939)" font-family="'ArialNarrow'" font-size="9">Decrease of 50% or</text>
<text transform="matrix(1 0 0 1 287.8901 286.0181)" font-family="'ArialNarrow'" font-size="9">more, or 3 or fewer</text>
<text transform="matrix(1 0 0 1 299.9858 296.1699)" font-family="'ArialNarrow'" font-size="9">movements </text>
<text transform="matrix(1 0 0 1 305.314 306.394)" font-family="'ArialNarrow'" font-size="9">per hour</text>
<text transform="matrix(1 0 0 1 288.394 378.9702)" font-family="'ArialNarrow'" font-size="9">Repeat count for a </text>
<text transform="matrix(1 0 0 1 299.6978 389.1221)" font-family="'ArialNarrow'" font-size="9">further hour</text>
<text transform="matrix(1 0 0 1 206.458 377.8179)" font-family="'ArialNarrow'" font-size="9">Good fetal</text>
<text transform="matrix(1 0 0 1 204.4419 388.042)" font-family="'ArialNarrow'" font-size="9">movements</text>
<text transform="matrix(1 0 0 1 119.6978 371.77)" font-family="'ArialNarrow'" font-size="9">Repeat</text>
<text transform="matrix(1 0 0 1 102.418 381.9941)" font-family="'ArialNarrow'" font-size="9">movements count</text>
<text transform="matrix(1 0 0 1 111.4897 392.146)" font-family="'ArialNarrow'" font-size="9">the next day</text>
<text transform="matrix(1 0 0 1 186.5142 464.938)" font-family="'ArialNarrow'" font-size="9">Send patient to</text>
<text transform="matrix(1 0 0 1 185.5059 475.0898)" font-family="'ArialNarrow'" font-size="9">nearest clinic or</text>
<text transform="matrix(1 0 0 1 198.6099 485.314)" font-family="'ArialNarrow'" font-size="9">hospital</text>
<text transform="matrix(1 0 0 1 290.4102 473.6499)" font-family="'ArialNarrow'" font-size="9">Fetal movements</text>
<text transform="matrix(1 0 0 1 304.9541 483.8022)" font-family="'ArialNarrow'" font-size="9">still poor</text>
<path fill-rule="evenodd" clip-rule="evenodd" stroke="#000000" stroke-width="0.1012" stroke-linecap="round" stroke-linejoin="round" stroke-miterlimit="10" d="
	M130.858,358.666l6.264-19.08c-4.248,2.952-8.064,3.24-12.456,0.144L130.858,358.666z"/>
<path fill-rule="evenodd" clip-rule="evenodd" stroke="#000000" stroke-width="0.1012" stroke-linecap="round" stroke-linejoin="round" stroke-miterlimit="10" d="
	M39.346,149.578l6.264-19.08c-4.248,3.024-8.136,3.312-12.456,0.144L39.346,149.578z"/>
<path fill-rule="evenodd" clip-rule="evenodd" stroke="#000000" stroke-width="0.1012" stroke-linecap="round" stroke-linejoin="round" stroke-miterlimit="10" d="
	M167.506,380.122l19.08,6.264c-3.024-4.248-3.312-8.136-0.144-12.456L167.506,380.122z"/>
<path fill-rule="evenodd" clip-rule="evenodd" stroke="#000000" stroke-width="0.1012" stroke-linecap="round" stroke-linejoin="round" stroke-miterlimit="10" d="
	M259.81,379.186l19.08,6.264c-3.024-4.176-3.312-8.064-0.144-12.384L259.81,379.186z"/>
<path fill-rule="evenodd" clip-rule="evenodd" stroke="#000000" stroke-width="0.1012" stroke-linecap="round" stroke-linejoin="round" stroke-miterlimit="10" d="
	M246.202,472.426l19.08,6.264c-2.952-4.176-3.312-8.064-0.144-12.384L246.202,472.426z"/>
<path fill-rule="evenodd" clip-rule="evenodd" stroke="#000000" stroke-width="0.1012" stroke-linecap="round" stroke-linejoin="round" stroke-miterlimit="10" d="
	M171.682,177.874l19.008,6.264c-2.952-4.176-3.24-8.064-0.144-12.456L171.682,177.874z"/>
<path fill-rule="evenodd" clip-rule="evenodd" stroke="#000000" stroke-width="0.1012" stroke-linecap="round" stroke-linejoin="round" stroke-miterlimit="10" d="
	M318.85,441.25l6.264-19.08c-4.176,2.952-8.064,3.24-12.384,0.144L318.85,441.25z"/>
<path fill-rule="evenodd" clip-rule="evenodd" stroke="#000000" stroke-width="0.1012" stroke-linecap="round" stroke-linejoin="round" stroke-miterlimit="10" d="
	M318.418,360.034l6.264-19.08c-4.176,2.952-8.064,3.312-12.384,0.144L318.418,360.034z"/>
<path fill-rule="evenodd" clip-rule="evenodd" stroke="#000000" stroke-width="0.1012" stroke-linecap="round" stroke-linejoin="round" stroke-miterlimit="10" d="
	M318.706,240.658l6.264-19.008c-4.248,3.024-8.136,3.312-12.456,0.144L318.706,240.658z"/>
<path fill-rule="evenodd" clip-rule="evenodd" stroke="#000000" stroke-width="0.1012" stroke-linecap="round" stroke-linejoin="round" stroke-miterlimit="10" d="
	M181.546,87.658l6.336-19.08c-4.248,2.952-8.136,3.24-12.456,0.144L181.546,87.658z"/>
<g>
	
		<rect x="180.538" y="43.954" fill-rule="evenodd" clip-rule="evenodd" stroke="#000000" stroke-width="0.216" stroke-miterlimit="10" width="2.376" height="39.96"/>
</g>
<line fill-rule="evenodd" clip-rule="evenodd" fill="none" stroke="#000000" stroke-width="0.216" stroke-miterlimit="10" x1="181.762" y1="45.178" x2="181.762" y2="82.69"/>
<g>
	
		<rect x="317.338" y="400.642" fill-rule="evenodd" clip-rule="evenodd" stroke="#000000" stroke-width="0.216" stroke-miterlimit="10" width="2.448" height="36"/>
</g>
<line fill-rule="evenodd" clip-rule="evenodd" fill="none" stroke="#000000" stroke-width="0.216" stroke-miterlimit="10" x1="318.562" y1="401.866" x2="318.562" y2="435.418"/>
<g>
	
		<rect x="317.338" y="319.642" fill-rule="evenodd" clip-rule="evenodd" stroke="#000000" stroke-width="0.216" stroke-miterlimit="10" width="2.448" height="36"/>
</g>
<line fill-rule="evenodd" clip-rule="evenodd" fill="none" stroke="#000000" stroke-width="0.216" stroke-miterlimit="10" x1="318.562" y1="320.866" x2="318.562" y2="354.418"/>
<g>
	
		<rect x="317.338" y="198.61" fill-rule="evenodd" clip-rule="evenodd" stroke="#000000" stroke-width="0.216" stroke-miterlimit="10" width="2.448" height="38.592"/>
</g>
<line fill-rule="evenodd" clip-rule="evenodd" fill="none" stroke="#000000" stroke-width="0.216" stroke-miterlimit="10" x1="318.562" y1="199.834" x2="318.562" y2="235.978"/>
<g>
	<polygon fill-rule="evenodd" clip-rule="evenodd" stroke="#000000" stroke-width="0.216" stroke-miterlimit="10" points="
		38.338,115.522 38.338,113.146 38.338,106.954 40.786,106.954 40.786,113.146 40.786,115.522 40.786,117.538 40.786,119.914 
		40.786,128.626 40.786,131.074 40.786,133.378 40.786,135.754 40.786,141.802 38.338,141.802 38.338,135.754 38.338,133.378 
		38.338,131.074 38.338,128.626 38.338,119.914 38.338,117.538 	"/>
</g>
<path fill-rule="evenodd" clip-rule="evenodd" fill="none" stroke="#000000" stroke-width="0.216" stroke-miterlimit="10" d="
	M39.562,114.37v-6.264 M39.562,140.578v-5.976 M39.562,134.602v-4.752 M39.562,129.85v-11.088 M39.562,118.762v-4.392"/>
</svg>
