<?xml version="1.0" encoding="utf-8"?>
<!-- Generator: Adobe Illustrator 15.0.2, SVG Export Plug-In . SVG Version: 6.00 Build 0)  -->
<!DOCTYPE svg PUBLIC "-//W3C//DTD SVG 1.1//EN" "http://www.w3.org/Graphics/SVG/1.1/DTD/svg11.dtd">
<svg version="1.1" xmlns="http://www.w3.org/2000/svg" xmlns:xlink="http://www.w3.org/1999/xlink" x="0px" y="0px"
	 width="349.126px" height="507.73px" viewBox="0 0 349.126 507.73" enable-background="new 0 0 349.126 507.73"
	 xml:space="preserve">
<g id="Layer_1">
	
		<path fill-rule="evenodd" clip-rule="evenodd" stroke="#000000" stroke-width="0.091" stroke-linecap="round" stroke-linejoin="round" stroke-miterlimit="10" d="
		M175.426,88.954l5.616-17.136c-3.744,2.664-7.2,2.952-11.16,0.072L175.426,88.954z"/>
	
		<path fill-rule="evenodd" clip-rule="evenodd" stroke="#000000" stroke-width="0.091" stroke-linecap="round" stroke-linejoin="round" stroke-miterlimit="10" d="
		M294.154,88.306l5.616-17.208c-3.744,2.664-7.272,2.952-11.16,0.144L294.154,88.306z"/>
	
		<path fill-rule="evenodd" clip-rule="evenodd" stroke="#000000" stroke-width="0.091" stroke-linecap="round" stroke-linejoin="round" stroke-miterlimit="10" d="
		M293.938,223.306l5.688-17.208c-3.816,2.664-7.272,2.952-11.232,0.144L293.938,223.306z"/>
	
		<path fill-rule="evenodd" clip-rule="evenodd" stroke="#000000" stroke-width="0.091" stroke-linecap="round" stroke-linejoin="round" stroke-miterlimit="10" d="
		M174.634,221.218l5.688-17.208c-3.816,2.664-7.272,2.952-11.232,0.144L174.634,221.218z"/>
	
		<path fill-rule="evenodd" clip-rule="evenodd" stroke="#000000" stroke-width="0.091" stroke-linecap="round" stroke-linejoin="round" stroke-miterlimit="10" d="
		M175.066,303.658l5.616-17.208c-3.744,2.736-7.272,2.952-11.16,0.144L175.066,303.658z"/>
	
		<path fill-rule="evenodd" clip-rule="evenodd" stroke="#000000" stroke-width="0.091" stroke-linecap="round" stroke-linejoin="round" stroke-miterlimit="10" d="
		M252.898,442.546l-17.208-5.688c2.736,3.816,2.952,7.272,0.144,11.232L252.898,442.546z"/>
	
		<path fill-rule="evenodd" clip-rule="evenodd" stroke="#000000" stroke-width="0.091" stroke-linecap="round" stroke-linejoin="round" stroke-miterlimit="10" d="
		M175.138,420.514l5.616-17.208c-3.744,2.736-7.2,2.952-11.16,0.144L175.138,420.514z"/>
	
		<path fill-rule="evenodd" clip-rule="evenodd" stroke="#000000" stroke-width="0.091" stroke-linecap="round" stroke-linejoin="round" stroke-miterlimit="10" d="
		M251.17,342.826l-17.136-5.616c2.664,3.816,2.952,7.272,0.144,11.16L251.17,342.826z"/>
	
		<path fill-rule="evenodd" clip-rule="evenodd" stroke="#000000" stroke-width="0.091" stroke-linecap="round" stroke-linejoin="round" stroke-miterlimit="10" d="
		M54.826,461.626l-5.616,17.136c3.744-2.664,7.272-2.952,11.16-0.144L54.826,461.626z"/>
	
		<path fill-rule="evenodd" clip-rule="evenodd" stroke="#000000" stroke-width="0.091" stroke-linecap="round" stroke-linejoin="round" stroke-miterlimit="10" d="
		M97.594,343.042l17.136,5.616c-2.664-3.744-2.952-7.272-0.144-11.16L97.594,343.042z"/>
	
		<path fill-rule="evenodd" clip-rule="evenodd" stroke="#000000" stroke-width="0.091" stroke-linecap="round" stroke-linejoin="round" stroke-miterlimit="10" d="
		M54.754,273.634l-5.616,17.136c3.744-2.664,7.272-2.952,11.16-0.144L54.754,273.634z"/>
	
		<path fill-rule="evenodd" clip-rule="evenodd" stroke="#000000" stroke-width="0.091" stroke-linecap="round" stroke-linejoin="round" stroke-miterlimit="10" d="
		M54.466,214.09l5.616-17.208c-3.744,2.736-7.272,3.024-11.16,0.144L54.466,214.09z"/>
	
		<path fill-rule="evenodd" clip-rule="evenodd" stroke="#000000" stroke-width="0.091" stroke-linecap="round" stroke-linejoin="round" stroke-miterlimit="10" d="
		M54.466,87.874l5.688-17.208c-3.816,2.664-7.272,2.952-11.232,0.144L54.466,87.874z"/>
</g>
<g id="Layer_4">
	<g>
		<g>
			
				<polygon fill-rule="evenodd" clip-rule="evenodd" fill="#D1D3D4" stroke="#D1D3D4" stroke-width="0.5" stroke-miterlimit="10" points="
				132.154,53.674 201.202,53.674 224.098,4.066 155.05,4.066 			"/>
			<text transform="matrix(1 0 0 1 163.4741 16.594)" fill="#D1D3D4" font-family="'ArialNarrow-Bold'" font-size="9">Random</text>
			<text transform="matrix(1 0 0 1 168.1543 26.8901)" fill="#D1D3D4" font-family="'ArialNarrow-Bold'" font-size="9">blood</text>
			<text transform="matrix(1 0 0 1 164.2661 37.186)" fill="#D1D3D4" font-family="'ArialNarrow-Bold'" font-size="9">glucose</text>
			<text transform="matrix(1 0 0 1 154.2583 47.4822)" fill="#D1D3D4" font-family="'ArialNarrow-Bold'" font-size="9">measurement</text>
			
				<text transform="matrix(1 0 0 1 163.4741 16.594)" fill="none" stroke="#D1D3D4" stroke-width="0.5" stroke-miterlimit="10" font-family="'ArialNarrow-Bold'" font-size="9">Random</text>
			
				<text transform="matrix(1 0 0 1 168.1543 26.8901)" fill="none" stroke="#D1D3D4" stroke-width="0.5" stroke-miterlimit="10" font-family="'ArialNarrow-Bold'" font-size="9">blood</text>
			
				<text transform="matrix(1 0 0 1 164.2661 37.186)" fill="none" stroke="#D1D3D4" stroke-width="0.5" stroke-miterlimit="10" font-family="'ArialNarrow-Bold'" font-size="9">glucose</text>
			
				<text transform="matrix(1 0 0 1 154.2583 47.4822)" fill="none" stroke="#D1D3D4" stroke-width="0.5" stroke-miterlimit="10" font-family="'ArialNarrow-Bold'" font-size="9">measurement</text>
		</g>
		<g>
			
				<polygon fill-rule="evenodd" clip-rule="evenodd" fill="#D1D3D4" stroke="#D1D3D4" stroke-width="0.5" stroke-miterlimit="10" points="
				15.01,132.01 57.706,92.77 100.33,132.01 57.706,171.178 			"/>
			<text transform="matrix(1 0 0 1 41.938 124.9543)" fill="#D1D3D4" font-family="'ArialNarrow'" font-size="9">Less than</text>
			<text transform="matrix(1 0 0 1 44.0264 135.178)" fill="#D1D3D4" font-family="'ArialNarrow'" font-size="9">8 mmol/l</text>
			<text transform="matrix(1 0 0 1 43.522 145.3303)" fill="#D1D3D4" font-family="'ArialNarrow'" font-size="9">= normal</text>
			
				<text transform="matrix(1 0 0 1 41.938 124.9543)" fill="none" stroke="#D1D3D4" stroke-width="0.5" stroke-miterlimit="10" font-family="'ArialNarrow'" font-size="9">Less than</text>
			
				<text transform="matrix(1 0 0 1 44.0264 135.178)" fill="none" stroke="#D1D3D4" stroke-width="0.5" stroke-miterlimit="10" font-family="'ArialNarrow'" font-size="9">8 mmol/l</text>
			
				<text transform="matrix(1 0 0 1 43.522 145.3303)" fill="none" stroke="#D1D3D4" stroke-width="0.5" stroke-miterlimit="10" font-family="'ArialNarrow'" font-size="9">= normal</text>
		</g>
		<g>
			
				<polygon fill-rule="evenodd" clip-rule="evenodd" fill="#D1D3D4" stroke="#D1D3D4" stroke-width="0.5" stroke-miterlimit="10" points="
				15.01,346.642 57.706,307.474 100.33,346.642 57.706,385.882 			"/>
			<text transform="matrix(1 0 0 1 41.938 337.1379)" fill="#D1D3D4" font-family="'ArialNarrow'" font-size="9">Less than</text>
			<text transform="matrix(1 0 0 1 44.0264 347.2903)" fill="#D1D3D4" font-family="'ArialNarrow'" font-size="9">6 mmol/l</text>
			<text transform="matrix(1 0 0 1 43.522 357.5139)" fill="#D1D3D4" font-family="'ArialNarrow'" font-size="9">= normal</text>
			
				<text transform="matrix(1 0 0 1 41.938 337.1379)" fill="none" stroke="#D1D3D4" stroke-width="0.5" stroke-miterlimit="10" font-family="'ArialNarrow'" font-size="9">Less than</text>
			
				<text transform="matrix(1 0 0 1 44.0264 347.2903)" fill="none" stroke="#D1D3D4" stroke-width="0.5" stroke-miterlimit="10" font-family="'ArialNarrow'" font-size="9">6 mmol/l</text>
			
				<text transform="matrix(1 0 0 1 43.522 357.5139)" fill="none" stroke="#D1D3D4" stroke-width="0.5" stroke-miterlimit="10" font-family="'ArialNarrow'" font-size="9">= normal</text>
		</g>
		<g>
			
				<polygon fill-rule="evenodd" clip-rule="evenodd" fill="#D1D3D4" stroke="#D1D3D4" stroke-width="0.5" stroke-miterlimit="10" points="
				135.538,132.01 178.162,92.77 220.786,132.01 178.162,171.178 			"/>
			<text transform="matrix(1 0 0 1 156.2739 124.9543)" fill="#D1D3D4" font-family="'ArialNarrow'" font-size="9">8 or more but</text>
			<text transform="matrix(1 0 0 1 163.4023 135.178)" fill="#D1D3D4" font-family="'ArialNarrow'" font-size="9">less than</text>
			<text transform="matrix(1 0 0 1 162.4663 145.3303)" fill="#D1D3D4" font-family="'ArialNarrow'" font-size="9">11 mmol/l</text>
			
				<text transform="matrix(1 0 0 1 156.2739 124.9543)" fill="none" stroke="#D1D3D4" stroke-width="0.5" stroke-miterlimit="10" font-family="'ArialNarrow'" font-size="9">8 or more but</text>
			
				<text transform="matrix(1 0 0 1 163.4023 135.178)" fill="none" stroke="#D1D3D4" stroke-width="0.5" stroke-miterlimit="10" font-family="'ArialNarrow'" font-size="9">less than</text>
			
				<text transform="matrix(1 0 0 1 162.4663 145.3303)" fill="none" stroke="#D1D3D4" stroke-width="0.5" stroke-miterlimit="10" font-family="'ArialNarrow'" font-size="9">11 mmol/l</text>
		</g>
		<g>
			
				<polygon fill-rule="evenodd" clip-rule="evenodd" fill="#D1D3D4" stroke="#D1D3D4" stroke-width="0.5" stroke-miterlimit="10" points="
				135.538,346.642 178.162,307.474 220.786,346.642 178.162,385.882 			"/>
			<text transform="matrix(1 0 0 1 156.2739 336.5623)" fill="#D1D3D4" font-family="'ArialNarrow'" font-size="9">6 or more but</text>
			<text transform="matrix(1 0 0 1 163.4023 346.7859)" fill="#D1D3D4" font-family="'ArialNarrow'" font-size="9">less than</text>
			<text transform="matrix(1 0 0 1 164.2661 356.9382)" fill="#D1D3D4" font-family="'ArialNarrow'" font-size="9">8 mmol/l</text>
			
				<text transform="matrix(1 0 0 1 156.2739 336.5623)" fill="none" stroke="#D1D3D4" stroke-width="0.5" stroke-miterlimit="10" font-family="'ArialNarrow'" font-size="9">6 or more but</text>
			
				<text transform="matrix(1 0 0 1 163.4023 346.7859)" fill="none" stroke="#D1D3D4" stroke-width="0.5" stroke-miterlimit="10" font-family="'ArialNarrow'" font-size="9">less than</text>
			
				<text transform="matrix(1 0 0 1 164.2661 356.9382)" fill="none" stroke="#D1D3D4" stroke-width="0.5" stroke-miterlimit="10" font-family="'ArialNarrow'" font-size="9">8 mmol/l</text>
		</g>
		<g>
			
				<polygon fill-rule="evenodd" clip-rule="evenodd" fill="#D1D3D4" stroke="#D1D3D4" stroke-width="0.5" stroke-miterlimit="10" points="
				254.41,132.01 297.034,92.77 339.73,132.01 297.034,171.178 			"/>
			<text transform="matrix(1 0 0 1 281.4819 125.0261)" fill="#D1D3D4" font-family="'ArialNarrow'" font-size="9">11 mmol/l</text>
			<text transform="matrix(1 0 0 1 284.4341 135.178)" fill="#D1D3D4" font-family="'ArialNarrow'" font-size="9">or more</text>
			<text transform="matrix(1 0 0 1 280.042 145.4021)" fill="#D1D3D4" font-family="'ArialNarrow'" font-size="9">= diabetes</text>
			
				<text transform="matrix(1 0 0 1 281.4819 125.0261)" fill="none" stroke="#D1D3D4" stroke-width="0.5" stroke-miterlimit="10" font-family="'ArialNarrow'" font-size="9">11 mmol/l</text>
			
				<text transform="matrix(1 0 0 1 284.4341 135.178)" fill="none" stroke="#D1D3D4" stroke-width="0.5" stroke-miterlimit="10" font-family="'ArialNarrow'" font-size="9">or more</text>
			
				<text transform="matrix(1 0 0 1 280.042 145.4021)" fill="none" stroke="#D1D3D4" stroke-width="0.5" stroke-miterlimit="10" font-family="'ArialNarrow'" font-size="9">= diabetes</text>
		</g>
		<g>
			
				<polygon fill-rule="evenodd" clip-rule="evenodd" fill="#D1D3D4" stroke="#D1D3D4" stroke-width="0.5" stroke-miterlimit="10" points="
				254.41,346.642 297.034,307.474 339.73,346.642 297.034,385.882 			"/>
			<text transform="matrix(1 0 0 1 283.21 336.9221)" fill="#D1D3D4" font-family="'ArialNarrow'" font-size="9">8 mmol/l</text>
			<text transform="matrix(1 0 0 1 284.4341 347.074)" fill="#D1D3D4" font-family="'ArialNarrow'" font-size="9">or more</text>
			<text transform="matrix(1 0 0 1 280.042 357.2981)" fill="#D1D3D4" font-family="'ArialNarrow'" font-size="9">= diabetes</text>
			
				<text transform="matrix(1 0 0 1 283.21 336.9221)" fill="none" stroke="#D1D3D4" stroke-width="0.5" stroke-miterlimit="10" font-family="'ArialNarrow'" font-size="9">8 mmol/l</text>
			
				<text transform="matrix(1 0 0 1 284.4341 347.074)" fill="none" stroke="#D1D3D4" stroke-width="0.5" stroke-miterlimit="10" font-family="'ArialNarrow'" font-size="9">or more</text>
			
				<text transform="matrix(1 0 0 1 280.042 357.2981)" fill="none" stroke="#D1D3D4" stroke-width="0.5" stroke-miterlimit="10" font-family="'ArialNarrow'" font-size="9">= diabetes</text>
		</g>
		<g>
			
				<rect x="3.274" y="217.114" fill-rule="evenodd" clip-rule="evenodd" fill="#D1D3D4" stroke="#D1D3D4" stroke-width="0.5" stroke-miterlimit="10" width="108.864" height="60.048"/>
			<text transform="matrix(1 0 0 1 9.25 234.178)" fill="#D1D3D4" font-family="'ArialNarrow'" font-size="9">1. Routine primary perinatal</text>
			<text transform="matrix(1 0 0 1 9.25 244.3303)" fill="#D1D3D4" font-family="'ArialNarrow'" font-size="9">    care</text>
			<text transform="matrix(1 0 0 1 9.25 254.554)" fill="#D1D3D4" font-family="'ArialNarrow'" font-size="9">2. Repeat random blood</text>
			<text transform="matrix(1 0 0 1 9.25 264.7781)" fill="#D1D3D4" font-family="'ArialNarrow'" font-size="9">    glucose if glycosuna recurs</text>
			
				<text transform="matrix(1 0 0 1 9.25 234.178)" fill="none" stroke="#D1D3D4" stroke-width="0.5" stroke-miterlimit="10" font-family="'ArialNarrow'" font-size="9">1. Routine primary perinatal</text>
			
				<text transform="matrix(1 0 0 1 9.25 244.3303)" fill="none" stroke="#D1D3D4" stroke-width="0.5" stroke-miterlimit="10" font-family="'ArialNarrow'" font-size="9">    care</text>
			
				<text transform="matrix(1 0 0 1 9.25 254.554)" fill="none" stroke="#D1D3D4" stroke-width="0.5" stroke-miterlimit="10" font-family="'ArialNarrow'" font-size="9">2. Repeat random blood</text>
			
				<text transform="matrix(1 0 0 1 9.25 264.7781)" fill="none" stroke="#D1D3D4" stroke-width="0.5" stroke-miterlimit="10" font-family="'ArialNarrow'" font-size="9">    glucose if glycosuna recurs</text>
		</g>
		<g>
			
				<rect x="143.386" y="225.322" fill-rule="evenodd" clip-rule="evenodd" fill="#D1D3D4" stroke="#D1D3D4" stroke-width="0.5" stroke-miterlimit="10" width="69.552" height="43.704"/>
			<text transform="matrix(1 0 0 1 152.1704 240.2258)" fill="#D1D3D4" font-family="'ArialNarrow'" font-size="9">Measure fasting</text>
			<text transform="matrix(1 0 0 1 155.6982 250.3782)" fill="#D1D3D4" font-family="'ArialNarrow'" font-size="9">blood glucose</text>
			<text transform="matrix(1 0 0 1 156.2739 260.6023)" fill="#D1D3D4" font-family="'ArialNarrow'" font-size="9">concentration</text>
			
				<text transform="matrix(1 0 0 1 152.1704 240.2258)" fill="none" stroke="#D1D3D4" stroke-width="0.5" stroke-miterlimit="10" font-family="'ArialNarrow'" font-size="9">Measure fasting</text>
			
				<text transform="matrix(1 0 0 1 155.6982 250.3782)" fill="none" stroke="#D1D3D4" stroke-width="0.5" stroke-miterlimit="10" font-family="'ArialNarrow'" font-size="9">blood glucose</text>
			
				<text transform="matrix(1 0 0 1 156.2739 260.6023)" fill="none" stroke="#D1D3D4" stroke-width="0.5" stroke-miterlimit="10" font-family="'ArialNarrow'" font-size="9">concentration</text>
		</g>
		<g>
			
				<rect x="261.538" y="227.05" fill-rule="evenodd" clip-rule="evenodd" fill="#D1D3D4" stroke="#D1D3D4" stroke-width="0.5" stroke-miterlimit="10" width="70.992" height="40.248"/>
			<text transform="matrix(1 0 0 1 264.3462 244.4021)" fill="#D1D3D4" font-family="'ArialNarrow'" font-size="9">Admit to hospital for</text>
			<text transform="matrix(1 0 0 1 272.1943 254.6262)" fill="#D1D3D4" font-family="'ArialNarrow'" font-size="9">glucose control</text>
			
				<text transform="matrix(1 0 0 1 264.3462 244.4021)" fill="none" stroke="#D1D3D4" stroke-width="0.5" stroke-miterlimit="10" font-family="'ArialNarrow'" font-size="9">Admit to hospital for</text>
			
				<text transform="matrix(1 0 0 1 272.1943 254.6262)" fill="none" stroke="#D1D3D4" stroke-width="0.5" stroke-miterlimit="10" font-family="'ArialNarrow'" font-size="9">glucose control</text>
		</g>
		<g>
			
				<rect x="22.21" y="424.834" fill-rule="evenodd" clip-rule="evenodd" fill="#D1D3D4" stroke="#D1D3D4" stroke-width="0.5" stroke-miterlimit="10" width="70.992" height="40.248"/>
			<text transform="matrix(1 0 0 1 37.834 443.842)" fill="#D1D3D4" font-family="'ArialNarrow'" font-size="9">Follow up at</text>
			<text transform="matrix(1 0 0 1 37.042 454.0662)" fill="#D1D3D4" font-family="'ArialNarrow'" font-size="9">special clinic</text>
			
				<text transform="matrix(1 0 0 1 37.834 443.842)" fill="none" stroke="#D1D3D4" stroke-width="0.5" stroke-miterlimit="10" font-family="'ArialNarrow'" font-size="9">Follow up at</text>
			
				<text transform="matrix(1 0 0 1 37.042 454.0662)" fill="none" stroke="#D1D3D4" stroke-width="0.5" stroke-miterlimit="10" font-family="'ArialNarrow'" font-size="9">special clinic</text>
		</g>
		<g>
			
				<rect x="142.666" y="424.834" fill-rule="evenodd" clip-rule="evenodd" fill="#D1D3D4" stroke="#D1D3D4" stroke-width="0.5" stroke-miterlimit="10" width="70.92" height="40.248"/>
			<text transform="matrix(1 0 0 1 158.29 442.5461)" fill="#D1D3D4" font-family="'ArialNarrow'" font-size="9">7 600 kj/day</text>
			<text transform="matrix(1 0 0 1 158.5063 452.698)" fill="#D1D3D4" font-family="'ArialNarrow'" font-size="9">diabetic diet</text>
			
				<text transform="matrix(1 0 0 1 158.29 442.5461)" fill="none" stroke="#D1D3D4" stroke-width="0.5" stroke-miterlimit="10" font-family="'ArialNarrow'" font-size="9">7 600 kj/day</text>
			
				<text transform="matrix(1 0 0 1 158.5063 452.698)" fill="none" stroke="#D1D3D4" stroke-width="0.5" stroke-miterlimit="10" font-family="'ArialNarrow'" font-size="9">diabetic diet</text>
		</g>
		<g>
			
				<rect x="256.786" y="423.106" fill-rule="evenodd" clip-rule="evenodd" fill="#D1D3D4" stroke="#D1D3D4" stroke-width="0.5" stroke-miterlimit="10" width="80.496" height="43.704"/>
			<text transform="matrix(1 0 0 1 272.5542 436.9299)" fill="#D1D3D4" font-family="'ArialNarrow'" font-size="9">Glucose profile</text>
			<text transform="matrix(1 0 0 1 268.2344 447.0823)" fill="#D1D3D4" font-family="'ArialNarrow'" font-size="9">2 weeks later and</text>
			<text transform="matrix(1 0 0 1 265.354 457.3059)" fill="#D1D3D4" font-family="'ArialNarrow'" font-size="9">then every 4 weeks</text>
			
				<text transform="matrix(1 0 0 1 272.5542 436.9299)" fill="none" stroke="#D1D3D4" stroke-width="0.5" stroke-miterlimit="10" font-family="'ArialNarrow'" font-size="9">Glucose profile</text>
			
				<text transform="matrix(1 0 0 1 268.2344 447.0823)" fill="none" stroke="#D1D3D4" stroke-width="0.5" stroke-miterlimit="10" font-family="'ArialNarrow'" font-size="9">2 weeks later and</text>
			
				<text transform="matrix(1 0 0 1 265.354 457.3059)" fill="none" stroke="#D1D3D4" stroke-width="0.5" stroke-miterlimit="10" font-family="'ArialNarrow'" font-size="9">then every 4 weeks</text>
		</g>
	</g>
	<g>
		
			<rect x="173.986" y="263.77" fill-rule="evenodd" clip-rule="evenodd" stroke="#000000" stroke-width="0.216" stroke-miterlimit="10" width="2.448" height="33.048"/>
	</g>
	
		<line fill-rule="evenodd" clip-rule="evenodd" fill="none" stroke="#000000" stroke-width="0.216" stroke-miterlimit="10" x1="175.21" y1="264.994" x2="175.21" y2="295.594"/>
	<g>
		
			<rect x="53.53" y="281.41" fill-rule="evenodd" clip-rule="evenodd" stroke="#000000" stroke-width="0.216" stroke-miterlimit="10" width="2.376" height="25.056"/>
	</g>
	
		<line fill-rule="evenodd" clip-rule="evenodd" fill="none" stroke="#000000" stroke-width="0.216" stroke-miterlimit="10" x1="54.682" y1="305.242" x2="54.682" y2="282.634"/>
	<g>
		
			<rect x="53.17" y="166.138" fill-rule="evenodd" clip-rule="evenodd" stroke="#000000" stroke-width="0.216" stroke-miterlimit="10" width="2.448" height="37.224"/>
	</g>
	
		<line fill-rule="evenodd" clip-rule="evenodd" fill="none" stroke="#000000" stroke-width="0.216" stroke-miterlimit="10" x1="54.394" y1="167.362" x2="54.394" y2="202.21"/>
	<g>
		
			<rect x="173.986" y="166.858" fill-rule="evenodd" clip-rule="evenodd" stroke="#000000" stroke-width="0.216" stroke-miterlimit="10" width="2.448" height="42.696"/>
	</g>
	
		<line fill-rule="evenodd" clip-rule="evenodd" fill="none" stroke="#000000" stroke-width="0.216" stroke-miterlimit="10" x1="175.21" y1="168.01" x2="175.21" y2="208.33"/>
	<g>
		
			<rect x="292.714" y="166.858" fill-rule="evenodd" clip-rule="evenodd" stroke="#000000" stroke-width="0.216" stroke-miterlimit="10" width="2.376" height="46.08"/>
	</g>
	
		<line fill-rule="evenodd" clip-rule="evenodd" fill="none" stroke="#000000" stroke-width="0.216" stroke-miterlimit="10" x1="293.866" y1="168.01" x2="293.866" y2="211.714"/>
	<g>
		<polygon fill-rule="evenodd" clip-rule="evenodd" stroke="#000000" stroke-width="0.216" stroke-miterlimit="10" points="
			141.586,241.594 123.874,241.594 123.874,344.626 104.362,344.626 104.362,342.178 121.426,342.178 121.426,239.218 
			141.586,239.218 		"/>
	</g>
	
		<polyline fill-rule="evenodd" clip-rule="evenodd" fill="none" stroke="#000000" stroke-width="0.216" stroke-miterlimit="10" points="
		140.362,240.37 122.65,240.37 122.65,343.402 105.586,343.402 	"/>
	<g>
		<polygon fill-rule="evenodd" clip-rule="evenodd" stroke="#000000" stroke-width="0.216" stroke-miterlimit="10" points="
			208.762,239.218 227.554,239.218 226.834,342.178 244.042,342.322 244.042,344.77 224.386,344.626 225.106,241.594 
			208.762,241.594 		"/>
	</g>
	
		<polyline fill-rule="evenodd" clip-rule="evenodd" fill="none" stroke="#000000" stroke-width="0.216" stroke-miterlimit="10" points="
		209.914,240.37 226.33,240.37 225.61,343.402 242.818,343.546 	"/>
	<g>
		<polygon fill-rule="evenodd" clip-rule="evenodd" stroke="#000000" stroke-width="0.216" stroke-miterlimit="10" points="
			280.114,461.626 280.114,495.466 53.818,495.466 53.818,468.466 56.266,468.466 56.266,493.018 277.666,493.018 277.666,461.626 
					"/>
	</g>
	
		<polyline fill-rule="evenodd" clip-rule="evenodd" fill="none" stroke="#000000" stroke-width="0.216" stroke-miterlimit="10" points="
		278.89,462.85 278.89,494.242 55.042,494.242 55.042,469.69 	"/>
	<g>
		
			<rect x="209.41" y="441.178" fill-rule="evenodd" clip-rule="evenodd" stroke="#000000" stroke-width="0.216" stroke-miterlimit="10" width="37.872" height="2.376"/>
	</g>
	
		<line fill-rule="evenodd" clip-rule="evenodd" fill="none" stroke="#000000" stroke-width="0.216" stroke-miterlimit="10" x1="210.634" y1="442.402" x2="246.13" y2="442.402"/>
	<g>
		<polygon fill-rule="evenodd" clip-rule="evenodd" stroke="#000000" stroke-width="0.216" stroke-miterlimit="10" points="
			176.794,376.594 176.074,414.898 173.626,414.898 174.346,376.594 		"/>
	</g>
	
		<line fill-rule="evenodd" clip-rule="evenodd" fill="none" stroke="#000000" stroke-width="0.216" stroke-miterlimit="10" x1="175.57" y1="377.818" x2="174.85" y2="413.674"/>
	<g>
		<polygon fill-rule="evenodd" clip-rule="evenodd" stroke="#000000" stroke-width="0.216" stroke-miterlimit="10" points="
			208.762,22.786 295.09,22.786 295.09,79.81 292.714,79.81 292.714,25.234 208.762,25.234 		"/>
	</g>
	
		<polyline fill-rule="evenodd" clip-rule="evenodd" fill="none" stroke="#000000" stroke-width="0.216" stroke-miterlimit="10" points="
		209.914,24.01 293.866,24.01 293.866,78.658 	"/>
	
		<polygon fill-rule="evenodd" clip-rule="evenodd" fill="#FFFFFF" stroke="#000000" stroke-width="0.5" stroke-miterlimit="10" points="
		129.202,49.786 198.25,49.786 221.146,0.25 152.098,0.25 	"/>
	<text transform="matrix(1 0 0 1 161.314 12.7781)" font-family="'ArialNarrow'" font-size="9">Random</text>
	<text transform="matrix(1 0 0 1 166.21 22.9302)" font-family="'ArialNarrow'" font-size="9">blood</text>
	<text transform="matrix(1 0 0 1 162.5381 33.1541)" font-family="'ArialNarrow'" font-size="9">glucose</text>
	<text transform="matrix(1 0 0 1 152.6743 43.3062)" font-family="'ArialNarrow'" font-size="9">measurement</text>
	<g>
		
			<polygon fill-rule="evenodd" clip-rule="evenodd" fill="#FFFFFF" stroke="#000000" stroke-width="0.5" stroke-miterlimit="10" points="
			12.058,128.122 54.682,88.954 97.378,128.122 54.682,167.362 		"/>
		<text transform="matrix(1 0 0 1 38.9863 121.1379)" font-family="'ArialNarrow'" font-size="9">Less than</text>
		<text transform="matrix(1 0 0 1 41.002 131.2903)" font-family="'ArialNarrow'" font-size="9">8 mmol/l</text>
		<text transform="matrix(1 0 0 1 40.498 141.5139)" font-family="'ArialNarrow'" font-size="9">= normal</text>
	</g>
	<g>
		
			<polygon fill-rule="evenodd" clip-rule="evenodd" fill="#FFFFFF" stroke="#000000" stroke-width="0.5" stroke-miterlimit="10" points="
			12.058,342.826 54.682,303.658 97.378,342.826 54.682,382.066 		"/>
		<text transform="matrix(1 0 0 1 38.9863 333.2502)" font-family="'ArialNarrow'" font-size="9">Less than</text>
		<text transform="matrix(1 0 0 1 41.002 343.4739)" font-family="'ArialNarrow'" font-size="9">6 mmol/l</text>
		<text transform="matrix(1 0 0 1 40.498 353.698)" font-family="'ArialNarrow'" font-size="9">= normal</text>
	</g>
	<g>
		
			<polygon fill-rule="evenodd" clip-rule="evenodd" fill="#FFFFFF" stroke="#000000" stroke-width="0.5" stroke-miterlimit="10" points="
			132.514,128.122 175.21,88.954 217.762,128.122 175.21,167.362 		"/>
		<text transform="matrix(1 0 0 1 153.25 121.1379)" font-family="'ArialNarrow'" font-size="9">8 or more but</text>
		<text transform="matrix(1 0 0 1 160.4502 131.2903)" font-family="'ArialNarrow'" font-size="9">less than</text>
		<text transform="matrix(1 0 0 1 159.5142 141.5139)" font-family="'ArialNarrow'" font-size="9">11 mmol/l</text>
	</g>
	<g>
		
			<polygon fill-rule="evenodd" clip-rule="evenodd" fill="#FFFFFF" stroke="#000000" stroke-width="0.5" stroke-miterlimit="10" points="
			132.514,342.826 175.21,303.658 217.762,342.826 175.21,382.066 		"/>
		<text transform="matrix(1 0 0 1 153.25 332.7463)" font-family="'ArialNarrow'" font-size="9">6 or more but</text>
		<text transform="matrix(1 0 0 1 160.4502 342.8982)" font-family="'ArialNarrow'" font-size="9">less than</text>
		<text transform="matrix(1 0 0 1 161.314 353.1223)" font-family="'ArialNarrow'" font-size="9">8 mmol/l</text>
	</g>
	<g>
		
			<polygon fill-rule="evenodd" clip-rule="evenodd" fill="#FFFFFF" stroke="#000000" stroke-width="0.5" stroke-miterlimit="10" points="
			251.386,128.122 294.082,88.954 336.706,128.122 294.082,167.362 		"/>
		<text transform="matrix(1 0 0 1 278.458 121.1379)" font-family="'ArialNarrow'" font-size="9">11 mmol/l</text>
		<text transform="matrix(1 0 0 1 281.4819 131.3621)" font-family="'ArialNarrow'" font-size="9">or more</text>
		<text transform="matrix(1 0 0 1 277.0903 141.5862)" font-family="'ArialNarrow'" font-size="9">= diabetes</text>
	</g>
	<g>
		
			<polygon fill-rule="evenodd" clip-rule="evenodd" fill="#FFFFFF" stroke="#000000" stroke-width="0.5" stroke-miterlimit="10" points="
			251.386,342.826 294.082,303.658 336.706,342.826 294.082,382.066 		"/>
		<text transform="matrix(1 0 0 1 280.2583 333.0339)" font-family="'ArialNarrow'" font-size="9">8 mmol/l</text>
		<text transform="matrix(1 0 0 1 281.4819 343.2581)" font-family="'ArialNarrow'" font-size="9">or more</text>
		<text transform="matrix(1 0 0 1 277.0903 353.4099)" font-family="'ArialNarrow'" font-size="9">= diabetes</text>
	</g>
	
		<rect x="0.25" y="213.298" fill-rule="evenodd" clip-rule="evenodd" fill="#FFFFFF" stroke="#000000" stroke-width="0.5" stroke-miterlimit="10" width="108.936" height="59.976"/>
	<text transform="matrix(1 0 0 1 6.2261 230.3621)" font-family="'ArialNarrow'" font-size="9">1. Routine primary perinatal</text>
	<text transform="matrix(1 0 0 1 6.2261 240.5139)" font-family="'ArialNarrow'" font-size="9">    care</text>
	<text transform="matrix(1 0 0 1 6.2261 250.738)" font-family="'ArialNarrow'" font-size="9">2. Repeat random blood</text>
	<text transform="matrix(1 0 0 1 6.2261 260.8899)" font-family="'ArialNarrow'" font-size="9">    glucose if glycosuria recurs</text>
	<g>
		
			<rect x="140.362" y="221.506" fill-rule="evenodd" clip-rule="evenodd" fill="#FFFFFF" stroke="#000000" stroke-width="0.5" stroke-miterlimit="10" width="69.552" height="43.632"/>
		<text transform="matrix(1 0 0 1 149.2183 236.3381)" font-family="'ArialNarrow'" font-size="9">Measure fasting</text>
		<text transform="matrix(1 0 0 1 152.6743 246.5623)" font-family="'ArialNarrow'" font-size="9">blood glucose</text>
		<text transform="matrix(1 0 0 1 153.3223 256.7141)" font-family="'ArialNarrow'" font-size="9">concentration</text>
	</g>
	<g>
		
			<rect x="258.586" y="223.162" fill-rule="evenodd" clip-rule="evenodd" fill="#FFFFFF" stroke="#000000" stroke-width="0.5" stroke-miterlimit="10" width="70.992" height="40.32"/>
		<text transform="matrix(1 0 0 1 261.394 240.5862)" font-family="'ArialNarrow'" font-size="9">Admit to hospital for</text>
		<text transform="matrix(1 0 0 1 269.1704 250.738)" font-family="'ArialNarrow'" font-size="9">glucose control</text>
	</g>
	<g>
		
			<rect x="19.258" y="420.946" fill-rule="evenodd" clip-rule="evenodd" fill="#FFFFFF" stroke="#000000" stroke-width="0.5" stroke-miterlimit="10" width="70.92" height="40.32"/>
		<text transform="matrix(1 0 0 1 34.8823 440.0261)" font-family="'ArialNarrow'" font-size="9">Follow up at</text>
		<text transform="matrix(1 0 0 1 34.0181 450.178)" font-family="'ArialNarrow'" font-size="9">special clinic</text>
	</g>
	
		<rect x="139.714" y="420.946" fill-rule="evenodd" clip-rule="evenodd" fill="#FFFFFF" stroke="#000000" stroke-width="0.5" stroke-miterlimit="10" width="70.92" height="40.32"/>
	<text transform="matrix(1 0 0 1 155.3384 438.658)" font-family="'ArialNarrow'" font-size="9">7 600 kj/day</text>
	<text transform="matrix(1 0 0 1 155.5542 448.8821)" font-family="'ArialNarrow'" font-size="9">diabetic diet</text>
	<g>
		<polygon fill-rule="evenodd" clip-rule="evenodd" stroke="#000000" stroke-width="0.216" stroke-miterlimit="10" points="
			53.17,81.178 53.17,22.786 140.938,22.786 140.938,25.234 55.618,25.234 55.618,81.178 		"/>
	</g>
	
		<polyline fill-rule="evenodd" clip-rule="evenodd" fill="none" stroke="#000000" stroke-width="0.216" stroke-miterlimit="10" points="
		54.394,80.026 54.394,24.01 139.714,24.01 	"/>
	<g>
		<polygon fill-rule="evenodd" clip-rule="evenodd" stroke="#000000" stroke-width="0.216" stroke-miterlimit="10" points="
			176.362,50.146 177.082,80.53 174.706,80.53 173.986,50.146 		"/>
	</g>
	
		<line fill-rule="evenodd" clip-rule="evenodd" fill="none" stroke="#000000" stroke-width="0.216" stroke-miterlimit="10" x1="175.21" y1="51.298" x2="175.858" y2="79.306"/>
	<g>
		
			<rect x="292.714" y="271.906" fill-rule="evenodd" clip-rule="evenodd" stroke="#000000" stroke-width="0.216" stroke-miterlimit="10" width="2.376" height="32.4"/>
	</g>
	
		<line fill-rule="evenodd" clip-rule="evenodd" fill="none" stroke="#000000" stroke-width="0.216" stroke-miterlimit="10" x1="293.866" y1="303.154" x2="293.866" y2="273.058"/>
	<text transform="matrix(1 0 0 1 157.354 504.97)" font-family="'ArialNarrow'" font-size="9">Normal</text>
	<text transform="matrix(1 0 0 1 310.354 504.97)" font-family="'ArialNarrow'" font-size="9">Abnormal</text>
	<g>
		<polygon fill-rule="evenodd" clip-rule="evenodd" stroke="#000000" stroke-width="0.216" stroke-miterlimit="10" points="
			333.61,239.218 349.018,239.218 349.018,494.746 305.674,494.746 305.674,461.626 308.05,461.626 308.05,492.37 346.642,492.37 
			346.642,241.594 333.61,241.594 		"/>
	</g>
	
		<polyline fill-rule="evenodd" clip-rule="evenodd" fill="none" stroke="#000000" stroke-width="0.216" stroke-miterlimit="10" points="
		334.834,240.37 347.794,240.37 347.794,493.594 306.826,493.594 306.826,462.85 	"/>
	
		<path fill-rule="evenodd" clip-rule="evenodd" stroke="#000000" stroke-width="0.091" stroke-linecap="round" stroke-linejoin="round" stroke-miterlimit="10" d="
		M293.434,263.77l-5.688,17.136c3.816-2.664,7.272-2.952,11.232-0.144L293.434,263.77z"/>
	
		<path fill-rule="evenodd" clip-rule="evenodd" stroke="#000000" stroke-width="0.0763" stroke-linecap="round" stroke-linejoin="round" stroke-miterlimit="10" d="
		M329.434,240.298l14.4,4.752c-2.232-3.168-2.448-6.12-0.072-9.36L329.434,240.298z"/>
	<g>
		
			<rect x="253.762" y="419.218" fill-rule="evenodd" clip-rule="evenodd" fill="#FFFFFF" stroke="#000000" stroke-width="0.5" stroke-miterlimit="10" width="80.568" height="43.704"/>
		<text transform="matrix(1 0 0 1 269.6021 433.0422)" font-family="'ArialNarrow'" font-size="9">Glucose profile</text>
		<text transform="matrix(1 0 0 1 265.2822 443.2659)" font-family="'ArialNarrow'" font-size="9">2 weeks later and</text>
		<text transform="matrix(1 0 0 1 262.4023 453.49)" font-family="'ArialNarrow'" font-size="9">then every 4 weeks</text>
	</g>
</g>
</svg>
