<svg version="1.1" id="Layer_1" xmlns="http://www.w3.org/2000/svg" xmlns:xlink="http://www.w3.org/1999/xlink" x="0px" y="0px"
	 width="511.244px" height="389.452px" viewBox="0 0 511.244 389.452" enable-background="new 0 0 511.244 389.452"
	 xml:space="preserve">
<g>
	<defs>
		<rect id="SVGID_1_" x="0.244" width="511" height="389"/>
	</defs>
	<clipPath id="SVGID_2_">
		<use xlink:href="#SVGID_1_"  overflow="visible"/>
	</clipPath>
	<path clip-path="url(#SVGID_2_)" fill="none" stroke="#231F20" stroke-miterlimit="10" d="M510.62,388.952V0.728h-149.4v388.224
		H510.62z M352.868,388.952V0.728H173.876v388.224H352.868z M165.452,388.952V0.728H0.5v388.224H165.452z"/>
</g>
<path fill="none" stroke="#231F20" stroke-width="0.5" stroke-miterlimit="10" d="M49.676,72.44h115.633 M49.316,59.768h115.632
	 M40.893,44.432h120.096 M41.108,29.816h119.88 M23.468,15.2h137.521"/>
<g>
	<defs>
		<rect id="SVGID_3_" x="0.244" width="511" height="389"/>
	</defs>
	<clipPath id="SVGID_4_">
		<use xlink:href="#SVGID_3_"  overflow="visible"/>
	</clipPath>
	<path clip-path="url(#SVGID_4_)" fill="none" stroke="#231F20" stroke-width="0.737" stroke-miterlimit="10" d="M4.316,1.952
		h156.96c0.936,0,1.728,0.792,1.728,1.728v41.688c0,0.936-0.792,1.728-1.728,1.728H4.316c-0.937,0-1.729-0.792-1.729-1.728V3.68
		C2.588,2.744,3.38,1.952,4.316,1.952z"/>
</g>
<text transform="matrix(1 0 0 1 4.3164 15.7041)" fill="#231F20" font-family="'ArialNarrow'" font-size="6.984">NAME:</text>
<text transform="matrix(1 0 0 1 4.3164 30.0352)" fill="#231F20" font-family="'ArialNarrow'" font-size="6.984">FOLDER NO.:</text>
<text transform="matrix(1 0 0 1 4.3154 44.3662)" fill="#231F20" font-family="'ArialNarrow'" font-size="6.984">BIRTH DATE:</text>
<text transform="matrix(1 0 0 1 2.1577 60.0596)" fill="#231F20" font-family="'ArialNarrow'" font-size="6.984">CLINIC/DOCTOR:</text>
<text transform="matrix(1 0 0 1 2.1577 71.5762)" fill="#231F20" font-family="'ArialNarrow'" font-size="6.984">TELEPHONE NO:</text>
<g>
	<defs>
		<rect id="SVGID_5_" x="0.244" width="511" height="389"/>
	</defs>
	<clipPath id="SVGID_6_">
		<use xlink:href="#SVGID_5_"  overflow="visible"/>
	</clipPath>
	
		<line clip-path="url(#SVGID_6_)" fill="none" stroke="#231F20" stroke-width="0.737" stroke-miterlimit="10" x1="0.645" y1="73.808" x2="165.452" y2="73.808"/>
	<path clip-path="url(#SVGID_6_)" fill="none" stroke="#231F20" stroke-width="0.5" stroke-miterlimit="10" d="M1.004,159.488
		H165.74 M1.004,149.48H165.74 M1.004,139.472H165.74 M1.004,129.464H165.74 M1.004,119.456H165.74"/>
	
		<line clip-path="url(#SVGID_6_)" fill="none" stroke="#231F20" stroke-width="0.737" stroke-miterlimit="10" x1="0.716" y1="169.496" x2="165.524" y2="169.496"/>
	<path clip-path="url(#SVGID_6_)" fill="none" stroke="#231F20" stroke-width="0.5" stroke-miterlimit="10" d="M0.716,189.44
		h164.809 M0.716,179.432h164.809"/>
	<path clip-path="url(#SVGID_6_)" fill="none" stroke="#231F20" stroke-width="0.737" stroke-miterlimit="10" d="M0.716,209.384
		h164.809 M0.716,199.376h164.809"/>
	<path clip-path="url(#SVGID_6_)" fill="none" stroke="#231F20" stroke-width="0.5" stroke-miterlimit="10" d="M0.716,299.168
		h164.809 M0.716,289.16h164.809 M0.716,279.225h164.809 M0.716,269.216h164.809 M0.716,259.279h164.809 M0.716,249.271h164.809
		 M0.716,239.264h164.809 M0.716,229.328h164.809 M0.716,219.32h164.809"/>
	
		<line clip-path="url(#SVGID_6_)" fill="none" stroke="#231F20" stroke-width="0.737" stroke-miterlimit="10" x1="0.716" y1="309.104" x2="165.524" y2="309.104"/>
	<path clip-path="url(#SVGID_6_)" fill="none" stroke="#231F20" stroke-width="0.5" stroke-miterlimit="10" d="M0.716,329.048
		h164.809 M0.716,319.111h164.809"/>
	
		<line clip-path="url(#SVGID_6_)" fill="none" stroke="#231F20" stroke-width="0.737" stroke-miterlimit="10" x1="0.716" y1="339.057" x2="165.524" y2="339.057"/>
	
		<line clip-path="url(#SVGID_6_)" fill="none" stroke="#231F20" stroke-width="0.5" stroke-miterlimit="10" x1="0.716" y1="349.064" x2="165.524" y2="349.064"/>
	
		<line clip-path="url(#SVGID_6_)" fill="none" stroke="#231F20" stroke-width="0.737" stroke-miterlimit="10" x1="0.716" y1="359" x2="165.524" y2="359"/>
	
		<line clip-path="url(#SVGID_6_)" fill="none" stroke="#231F20" stroke-width="0.5" stroke-miterlimit="10" x1="0.716" y1="369.008" x2="165.524" y2="369.008"/>
	
		<line clip-path="url(#SVGID_6_)" fill="none" stroke="#231F20" stroke-width="0.737" stroke-miterlimit="10" x1="0.716" y1="378.943" x2="165.524" y2="378.943"/>
	
		<line clip-path="url(#SVGID_6_)" fill="none" stroke="#231F20" stroke-width="0.5" stroke-miterlimit="10" x1="0.716" y1="388.952" x2="165.524" y2="388.952"/>
</g>
<text transform="matrix(1 0 0 1 2.8755 87.7764)" fill="#808184" font-family="'ArialNarrow-Bold'" font-size="9">HISTORY </text>
<text transform="matrix(1 0 0 1 37.2202 87.7764)" fill="#808184" font-family="'ArialNarrow-Bold'" font-size="10.944">*</text>
<text transform="matrix(1 0 0 1 2.8765 98.0723)" fill="#231F20" font-family="'ArialNarrow'" font-size="6.984">Obstetric history</text>
<g>
	<defs>
		<rect id="SVGID_7_" x="0.244" width="511" height="389"/>
	</defs>
	<clipPath id="SVGID_8_">
		<use xlink:href="#SVGID_7_"  overflow="visible"/>
	</clipPath>
	
		<rect x="104.324" y="108.656" clip-path="url(#SVGID_8_)" fill="none" stroke="#231F20" stroke-width="0.737" stroke-miterlimit="10" width="60.84" height="60.696"/>
	<path clip-path="url(#SVGID_8_)" fill="none" stroke="#231F20" stroke-width="0.5" stroke-miterlimit="10" d="M90.716,73.592v95.76
		 M79.916,103.4v66.168 M59.828,103.76v66.168 M37.004,103.4v66.096 M12.452,102.968v66.168"/>
</g>
<text transform="matrix(1 0 0 1 1.6528 116.9355)" fill="#231F20" font-family="'ArialNarrow'" font-size="5.976">Year</text>
<text transform="matrix(1 0 0 1 14.1772 110.0938)" fill="#231F20" font-family="'ArialNarrow'" font-size="5.976">Gestation</text>
<text transform="matrix(1 0 0 1 16.0479 116.8643)" fill="#231F20" font-family="'ArialNarrow'" font-size="5.976">(weeks)</text>
<text transform="matrix(1 0 0 1 38.8706 116.9355)" fill="#231F20" font-family="'ArialNarrow'" font-size="5.976">Delivery</text>
<text transform="matrix(1 0 0 1 61.1909 116.9355)" fill="#231F20" font-family="'ArialNarrow'" font-size="5.976">Weight</text>
<text transform="matrix(1 0 0 1 81.0615 117.0078)" fill="#231F20" font-family="'ArialNarrow'" font-size="5.976">Sex</text>
<text transform="matrix(1 0 0 1 117.8599 116.9355)" fill="#231F20" font-family="'ArialNarrow'" font-size="6.984">Complications</text>
<g>
	<defs>
		<rect id="SVGID_9_" x="0.244" width="511" height="389"/>
	</defs>
	<clipPath id="SVGID_10_">
		<use xlink:href="#SVGID_9_"  overflow="visible"/>
	</clipPath>
	<path clip-path="url(#SVGID_10_)" fill-rule="evenodd" clip-rule="evenodd" fill="#231F20" d="M95.972,118.088l2.881-8.928
		c-1.944,1.44-3.744,1.584-5.761,0.072L95.972,118.088z"/>
	
		<path clip-path="url(#SVGID_10_)" fill="none" stroke="#231F20" stroke-width="0.047" stroke-linecap="round" stroke-linejoin="round" stroke-miterlimit="10" d="
		M95.972,118.088l2.881-8.928c-1.944,1.44-3.744,1.584-5.761,0.072L95.972,118.088z"/>
	<polyline clip-path="url(#SVGID_10_)" fill="none" stroke="#231F20" stroke-miterlimit="10" points="95.685,111.68 95.685,94.616 
		97.556,89.36 	"/>
</g>
<text transform="matrix(1 0 0 1 2.228 177.4873)" fill="#231F20" font-family="'ArialNarrow'" font-size="6.984">Description of complications</text>
<text transform="matrix(1 0 0 1 2.2285 206.5762)" fill="#231F20" font-family="'ArialNarrow'" font-size="6.984">Age</text>
<text transform="matrix(1 0 0 1 74.9453 206.5762)" fill="#231F20" font-family="'ArialNarrow'" font-size="6.984">P</text>
<text transform="matrix(1 0 0 1 120.8091 206.7227)" fill="#231F20" font-family="'ArialNarrow'" font-size="6.984">G</text>
<text transform="matrix(1 0 0 1 2.2275 216.5137)" fill="#231F20" font-family="'ArialNarrow'" font-size="6.984">Medical and general history</text>
<text transform="matrix(1 0 0 1 2.5137 316.1621)" fill="#231F20" font-family="'ArialNarrow'" font-size="6.984">Medication</text>
<text transform="matrix(1 0 0 1 2.5146 346.1855)" fill="#231F20" font-family="'ArialNarrow'" font-size="6.984">Operations</text>
<text transform="matrix(1 0 0 1 2.5142 365.6992)" fill="#231F20" font-family="'ArialNarrow'" font-size="6.984">Allergies</text>
<text transform="matrix(1 0 0 1 2.5151 386.4355)" fill="#231F20" font-family="'ArialNarrow'" font-size="6.984">Smoking:  Yes          No</text>
<text transform="matrix(1 0 0 1 120.1597 386.4346)" fill="#231F20" font-family="'ArialNarrow'" font-size="6.984">Counselling</text>
<g>
	<defs>
		<rect id="SVGID_11_" x="0.244" width="511" height="389"/>
	</defs>
	<clipPath id="SVGID_12_">
		<use xlink:href="#SVGID_11_"  overflow="visible"/>
	</clipPath>
	
		<rect x="157.028" y="380.6" clip-path="url(#SVGID_12_)" fill="none" stroke="#231F20" stroke-width="0.737" stroke-miterlimit="10" width="6.768" height="6.769"/>
</g>
<text transform="matrix(1 0 0 1 232.3398 16.9277)" fill="#231F20" font-family="'ArialNarrow-Bold'" font-size="9.936">EXAMINATION *</text>
<g>
	<defs>
		<rect id="SVGID_13_" x="0.244" width="511" height="389"/>
	</defs>
	<clipPath id="SVGID_14_">
		<use xlink:href="#SVGID_13_"  overflow="visible"/>
	</clipPath>
	<path clip-path="url(#SVGID_14_)" fill="none" stroke="#231F20" stroke-width="0.5" stroke-miterlimit="10" d="M350.996,41.408
		V26.504h-10.44v14.904H350.996z M340.556,41.408V26.504h-10.439v14.904H340.556z M330.044,41.408V26.504h-10.44v14.904H330.044z
		 M319.532,41.408V26.504h-10.368v14.904H319.532z M309.092,41.408V26.504h-10.439v14.904H309.092z M298.58,41.408V26.504h-10.439
		v14.904H298.58z"/>
</g>
<text transform="matrix(1 0 0 1 288.501 31.6162)"><tspan x="0" y="0" fill="#231F20" font-family="'ArialNarrow'" font-size="5.976" letter-spacing="7">D</tspan><tspan x="10.798" y="0" fill="#231F20" font-family="'ArialNarrow'" font-size="5.976">D</tspan></text>
<text transform="matrix(1 0 0 1 309.667 31.6162)"><tspan x="0" y="0" fill="#231F20" font-family="'ArialNarrow'" font-size="5.976" letter-spacing="6">M</tspan><tspan x="10.655" y="0" fill="#231F20" font-family="'ArialNarrow'" font-size="5.976">M</tspan></text>
<text transform="matrix(1 0 0 1 331.1211 31.6157)"><tspan x="0" y="0" fill="#231F20" font-family="'ArialNarrow'" font-size="5.976" letter-spacing="6">Y</tspan><tspan x="10.146" y="0" fill="#231F20" font-family="'ArialNarrow'" font-size="5.976">Y</tspan></text>
<text transform="matrix(1 0 0 1 268.7715 38.2397)" fill="#231F20" font-family="'ArialNarrow'" font-size="6.984">Date</text>
<text transform="matrix(1 0 0 1 268.7725 54.1489)" fill="#231F20" font-family="'ArialNarrow'" font-size="6.984">Weight</text>
<text transform="matrix(1 0 0 1 268.7715 66.9648)" fill="#231F20" font-family="'ArialNarrow'" font-size="6.984">Hb</text>
<text transform="matrix(1 0 0 1 176.6807 54.1504)" fill="#231F20" font-family="'ArialNarrow'" font-size="6.984">Height</text>
<text transform="matrix(1 0 0 1 176.6812 66.9658)" fill="#231F20" font-family="'ArialNarrow'" font-size="6.984">BP</text>
<text transform="matrix(1 0 0 1 176.6812 79.7813)" fill="#231F20" font-family="'ArialNarrow'" font-size="6.984">Urine</text>
<text transform="matrix(1 0 0 1 176.6816 93.2461)" fill="#231F20" font-family="'ArialNarrow'" font-size="6.984">General</text>
<g>
	<defs>
		<rect id="SVGID_15_" x="0.244" width="511" height="389"/>
	</defs>
	<clipPath id="SVGID_16_">
		<use xlink:href="#SVGID_15_"  overflow="visible"/>
	</clipPath>
	<path clip-path="url(#SVGID_16_)" fill="none" stroke="#231F20" stroke-width="0.5" stroke-miterlimit="10" d="M177.62,181.592
		H349.7 M177.62,168.704H349.7 M207.5,243.584h142.056 M198.932,230.768h150.624 M200.084,217.952h149.4 M198.356,205.137h151.128
		 M204.332,155.888H349.7 M195.548,143.072H349.7 M193.82,130.256H349.7 M201.236,117.368h42.479 M285.548,117.368H349.7
		 M177.62,104.552H349.7 M199.22,92.312H349.7 M194.108,79.28H349.7 M280.508,66.608H349.7 M289.868,53.864H349.7 M187.269,66.608
		h57.888 M195.836,53.864h49.896"/>
	
		<line clip-path="url(#SVGID_16_)" fill="none" stroke="#231F20" stroke-width="0.737" stroke-miterlimit="10" x1="173.948" y1="271.088" x2="352.292" y2="271.088"/>
	
		<rect x="311.54" y="157.328" clip-path="url(#SVGID_16_)" fill="none" stroke="#231F20" stroke-width="0.5" stroke-miterlimit="10" width="37.584" height="10.512"/>
</g>
<text transform="matrix(1 0 0 1 177.8359 119.168)" fill="#231F20" font-family="'ArialNarrow'" font-size="6.984">Thyroid</text>
<text transform="matrix(1 0 0 1 177.8359 131.9839)" fill="#231F20" font-family="'ArialNarrow'" font-size="6.984">Heart</text>
<text transform="matrix(1 0 0 1 177.8354 144.2969)" fill="#231F20" font-family="'ArialNarrow'" font-size="6.984">Lungs</text>
<text transform="matrix(1 0 0 1 263.0127 118.3022)" fill="#231F20" font-family="'ArialNarrow'" font-size="6.984">Breasts</text>
<text transform="matrix(1 0 0 1 177.8369 157.9014)" fill="#231F20" font-family="'ArialNarrow'" font-size="6.984">Abdomen</text>
<text transform="matrix(1 0 0 1 261.3574 165.8916)" fill="#231F20" font-family="'ArialNarrow'" font-size="6.984">SF- Measurement</text>
<text transform="matrix(1 0 0 1 177.8364 179.5728)" fill="#231F20" font-family="'ArialNarrow'" font-size="6.984">Other</text>
<text transform="matrix(1 0 0 1 177.8369 206.3564)" fill="#231F20" font-family="'ArialNarrow'" font-size="6.984">V + V</text>
<text transform="matrix(1 0 0 1 237.5977 195.2656)" fill="#231F20" font-family="'ArialNarrow'" font-size="6.984">Vaginal Examination</text>
<text transform="matrix(1 0 0 1 177.8364 218.5918)" fill="#231F20" font-family="'ArialNarrow'" font-size="6.984">Cervix</text>
<text transform="matrix(1 0 0 1 177.8369 231.6943)" fill="#231F20" font-family="'ArialNarrow'" font-size="6.984">Uterus</text>
<text transform="matrix(1 0 0 1 177.8359 244.0078)" fill="#231F20" font-family="'ArialNarrow'" font-size="6.984">Abdomen</text>
<text transform="matrix(1 0 0 1 177.8364 261.9355)" fill="#231F20" font-family="'ArialNarrow'" font-size="6.984">NAME</text>
<g>
	<defs>
		<rect id="SVGID_17_" x="0.244" width="511" height="389"/>
	</defs>
	<clipPath id="SVGID_18_">
		<use xlink:href="#SVGID_17_"  overflow="visible"/>
	</clipPath>
	<path clip-path="url(#SVGID_18_)" fill="none" stroke="#231F20" stroke-width="0.5" stroke-miterlimit="10" d="M349.988,263.384
		v-12.239h-6.336v12.239H349.988z M343.292,263.384v-12.239h-6.408v12.239H343.292z M336.596,263.384v-12.239h-6.408v12.239H336.596
		z M329.828,263.384v-12.239h-6.336v12.239H329.828z M323.132,263.384v-12.239h-6.408v12.239H323.132z M316.364,263.384v-12.239
		h-6.336v12.239H316.364z M309.668,263.384v-12.239h-6.408v12.239H309.668z M302.972,263.384v-12.239h-6.407v12.239H302.972z
		 M296.204,263.384v-12.239h-6.336v12.239H296.204z M289.508,263.384v-12.239h-6.407v12.239H289.508z M282.813,263.384v-12.239
		h-6.408v12.239H282.813z M276.044,263.384v-12.239h-6.336v12.239H276.044z M269.348,263.384v-12.239h-6.407v12.239H269.348z
		 M262.652,263.384v-12.239h-6.336v12.239H262.652z M255.956,263.384v-12.239h-6.336v12.239H255.956z M249.26,263.384v-12.239
		h-6.407v12.239H249.26z M242.492,263.384v-12.239h-6.336v12.239H242.492z M235.796,263.384v-12.239h-6.408v12.239H235.796z
		 M229.101,263.384v-12.239h-6.408v12.239H229.101z M222.332,263.384v-12.239h-6.336v12.239H222.332z M215.636,263.384v-12.239
		h-6.407v12.239H215.636z M208.94,263.384v-12.239h-6.408v12.239H208.94z M202.172,263.384v-12.239h-6.336v12.239H202.172z"/>
</g>
<text transform="matrix(1 0 0 1 204.189 285.0557)" fill="#231F20" font-family="'ArialNarrow-Bold'" font-size="9">SPECIAL INVESTIGATIONS *</text>
<text transform="matrix(1 0 0 1 177.8369 300.4639)" fill="#231F20" font-family="'ArialNarrow'" font-size="6.984">VDRL</text>
<text transform="matrix(1 0 0 1 235.4326 300.4629)" fill="#231F20" font-family="'ArialNarrow'" font-size="6.984">TPHA</text>
<text transform="matrix(1 0 0 1 286.6963 300.4648)" fill="#231F20" font-family="'ArialNarrow'" font-size="6.984">FTA - Abs</text>
<text transform="matrix(1 0 0 1 177.8296 313.5654)" fill="#231F20" font-family="'ArialNarrow'" font-size="6.984">Rx received 1st</text>
<text transform="matrix(1 0 0 1 254.8003 313.5664)" fill="#231F20" font-family="'ArialNarrow'" font-size="6.984">2nd</text>
<text transform="matrix(1 0 0 1 299.2246 313.5664)" fill="#231F20" font-family="'ArialNarrow'" font-size="6.984">3rd</text>
<text transform="matrix(1 0 0 1 177.8359 326.668)" fill="#231F20" font-family="'ArialNarrow'" font-size="6.984">Bloodgroup and Rb</text>
<text transform="matrix(1 0 0 1 177.8364 338.9805)" fill="#231F20" font-family="'ArialNarrow'" font-size="6.984">Cytology</text>
<text transform="matrix(1 0 0 1 177.8354 351.7969)" fill="#231F20" font-family="'ArialNarrow'" font-size="6.984">MSU</text>
<text transform="matrix(1 0 0 1 177.8354 376.8555)" fill="#231F20" font-family="'ArialNarrow'" font-size="6.984">Other</text>
<text transform="matrix(1 0 0 1 177.8364 365.1914)" fill="#231F20" font-family="'ArialNarrow'" font-size="6.984">RVD</text>
<text transform="matrix(1 0 0 1 200.0884 365.1914)" fill="#231F20" font-family="'ArialNarrow'" font-size="6.984">Test accepted:   Yes   No</text>
<text transform="matrix(1 0 0 1 272.4492 365.1914)" fill="#231F20" font-family="'ArialNarrow'" font-size="6.984">Precautions:   Yes   No</text>
<g>
	<defs>
		<rect id="SVGID_19_" x="0.244" width="511" height="389"/>
	</defs>
	<clipPath id="SVGID_20_">
		<use xlink:href="#SVGID_19_"  overflow="visible"/>
	</clipPath>
	<path clip-path="url(#SVGID_20_)" fill="none" stroke="#231F20" stroke-width="0.5" stroke-miterlimit="10" d="M177.836,386.721
		h171.432 M192.38,376.784h157.464 M194.108,351.152h154.8 M200.372,338.624h148.536 M228.668,326.096h120.24 M312.404,313.568
		h36.72 M265.316,313.568h26.279 M218.3,313.568h26.28 M311.828,300.176h37.584 M251.708,300.464h24.408 M194.108,299.889h33.336"/>
	
		<line clip-path="url(#SVGID_20_)" fill="none" stroke="#231F20" stroke-width="0.737" stroke-miterlimit="10" x1="361.292" y1="42.272" x2="510.548" y2="42.272"/>
	<path clip-path="url(#SVGID_20_)" fill="none" stroke="#231F20" stroke-width="0.5" stroke-miterlimit="10" d="M361.292,93.104
		h149.256 M361.292,80.432h149.256 M361.292,67.688h149.256 M361.292,55.016h149.256"/>
	
		<line clip-path="url(#SVGID_20_)" fill="none" stroke="#231F20" stroke-width="0.737" stroke-miterlimit="10" x1="361.292" y1="105.848" x2="510.548" y2="105.848"/>
</g>
<text transform="matrix(1 0 0 1 426.165 51.2002)" fill="#231F20" font-family="'ArialNarrow-Bold'" font-size="9">PLAN</text>
<g>
	<defs>
		<rect id="SVGID_21_" x="0.244" width="511" height="389"/>
	</defs>
	<clipPath id="SVGID_22_">
		<use xlink:href="#SVGID_21_"  overflow="visible"/>
	</clipPath>
	
		<line clip-path="url(#SVGID_22_)" fill="none" stroke="#231F20" stroke-width="0.5" stroke-miterlimit="10" x1="430.268" y1="55.088" x2="430.268" y2="105.848"/>
</g>
<text transform="matrix(1 0 0 1 373.5313 64.9517)" fill="#231F20" font-family="'ArialNarrow'" font-size="6.984">Antenatal Care</text>
<text transform="matrix(1 0 0 1 457.123 64.0859)" fill="#231F20" font-family="'ArialNarrow'" font-size="6.984">Labour</text>
<text transform="matrix(1 0 0 1 401.1074 120.1758)" fill="#231F20" font-family="'ArialNarrow-Bold'" font-size="9">GESTATIONAL AGE</text>
<g>
	<defs>
		<rect id="SVGID_23_" x="0.244" width="511" height="389"/>
	</defs>
	<clipPath id="SVGID_24_">
		<use xlink:href="#SVGID_23_"  overflow="visible"/>
	</clipPath>
	<path clip-path="url(#SVGID_24_)" fill="none" stroke="#231F20" stroke-width="0.5" stroke-miterlimit="10" d="M508.892,158.12V143
		h-15.048v15.12H508.892z M493.628,158.12V143h-15.12v15.12H493.628z M508.82,141.56v-15.192H493.7v15.192H508.82z M493.484,141.56
		v-15.192h-15.049v15.192H493.484z"/>
</g>
<text transform="matrix(1 0 0 1 363.9561 136.5923)" fill="#231F20" font-family="'ArialNarrow'" font-size="7.992">LMP</text>
<g>
	<defs>
		<rect id="SVGID_25_" x="0.244" width="511" height="389"/>
	</defs>
	<clipPath id="SVGID_26_">
		<use xlink:href="#SVGID_25_"  overflow="visible"/>
	</clipPath>
	<path clip-path="url(#SVGID_26_)" fill="none" stroke="#231F20" stroke-width="0.5" stroke-miterlimit="10" d="M433.796,142.856
		v-15.192h-8.928v15.192H433.796z M424.796,142.856v-15.192h-8.928v15.192H424.796z M415.796,142.856v-15.192h-8.928v15.192H415.796
		z M406.796,142.856v-15.192h-8.928v15.192H406.796z M397.724,142.856v-15.192h-8.928v15.192H397.724z M388.724,142.856v-15.192
		h-8.928v15.192H388.724z"/>
</g>
<text transform="matrix(1 0 0 1 379.9404 132.6323)"><tspan x="0" y="0" fill="#231F20" font-family="'ArialNarrow'" font-size="5.976" letter-spacing="5">D</tspan><tspan x="9.286" y="0" fill="#231F20" font-family="'ArialNarrow'" font-size="5.976">D</tspan></text>
<text transform="matrix(1 0 0 1 398.3701 132.6318)"><tspan x="0" y="0" fill="#231F20" font-family="'ArialNarrow'" font-size="5.976" letter-spacing="4">M</tspan><tspan x="8.995" y="0" fill="#231F20" font-family="'ArialNarrow'" font-size="5.976">M</tspan></text>
<text transform="matrix(1 0 0 1 416.5127 132.6323)"><tspan x="0" y="0" fill="#231F20" font-family="'ArialNarrow'" font-size="5.976" letter-spacing="5">Y</tspan><tspan x="8.999" y="0" fill="#231F20" font-family="'ArialNarrow'" font-size="5.976">Y</tspan></text>
<g>
	<defs>
		<rect id="SVGID_27_" x="0.244" width="511" height="389"/>
	</defs>
	<clipPath id="SVGID_28_">
		<use xlink:href="#SVGID_27_"  overflow="visible"/>
	</clipPath>
	<path clip-path="url(#SVGID_28_)" fill="none" stroke="#231F20" stroke-width="0.5" stroke-miterlimit="10" d="M509.036,205.641
		v-15.192h-8.929v15.192H509.036z M499.964,205.641v-15.192h-8.928v15.192H499.964z M490.964,205.641v-15.192h-8.928v15.192H490.964
		z M481.964,205.641v-15.192h-8.928v15.192H481.964z M472.964,205.641v-15.192h-8.928v15.192H472.964z M463.892,205.641v-15.192
		h-8.928v15.192H463.892z"/>
</g>
<text transform="matrix(1 0 0 1 455.1797 195.416)"><tspan x="0" y="0" fill="#231F20" font-family="'ArialNarrow'" font-size="5.976" letter-spacing="5">D</tspan><tspan x="9.214" y="0" fill="#231F20" font-family="'ArialNarrow'" font-size="5.976">D</tspan></text>
<text transform="matrix(1 0 0 1 473.5381 195.416)"><tspan x="0" y="0" fill="#231F20" font-family="'ArialNarrow'" font-size="5.976" letter-spacing="4">MM</tspan><tspan x="18.132" y="0" fill="#231F20" font-family="'ArialNarrow'" font-size="5.976">Y</tspan></text>
<text transform="matrix(1 0 0 1 500.7529 195.416)" fill="#231F20" font-family="'ArialNarrow'" font-size="5.976">Y</text>
<text transform="matrix(1 0 0 1 481.3877 136.4478)" fill="#231F20" font-family="'ArialNarrow'" font-size="6.984">Yes</text>
<text transform="matrix(1 0 0 1 481.3877 152.8672)" fill="#231F20" font-family="'ArialNarrow'" font-size="6.984">Yes</text>
<text transform="matrix(1 0 0 1 497.7314 136.4482)" fill="#231F20" font-family="'ArialNarrow'" font-size="6.984">No</text>
<text transform="matrix(1 0 0 1 497.7305 152.8677)" fill="#231F20" font-family="'ArialNarrow'" font-size="6.984">No</text>
<text transform="matrix(1 0 0 1 458.7813 136.4482)" fill="#231F20" font-family="'ArialNarrow'" font-size="6.984">Certain</text>
<text transform="matrix(1 0 0 1 441.5732 152.4346)" fill="#231F20" font-family="'ArialNarrow'" font-size="6.984">Contraception</text>
<text transform="matrix(1 0 0 1 441.5723 170.5791)" fill="#231F20" font-family="'ArialNarrow'" font-size="6.984">Type</text>
<text transform="matrix(1 0 0 1 363.96 152.4346)" fill="#231F20" font-family="'ArialNarrow'" font-size="6.984">Cycle</text>
<g>
	<defs>
		<rect id="SVGID_29_" x="0.244" width="511" height="389"/>
	</defs>
	<clipPath id="SVGID_30_">
		<use xlink:href="#SVGID_29_"  overflow="visible"/>
	</clipPath>
	<path clip-path="url(#SVGID_30_)" fill="none" stroke="#231F20" stroke-width="0.5" stroke-miterlimit="10" d="M455.324,170h53.712
		 M379.076,152.36h54.576"/>
</g>
<text transform="matrix(1 0 0 1 363.957 201.8242)" fill="#231F20" font-family="'ArialNarrow'" font-size="7.992">SONAR</text>
<text transform="matrix(1 0 0 1 440.2051 201.8242)" fill="#231F20" font-family="'ArialNarrow'" font-size="6.984">Date</text>
<text transform="matrix(1 0 0 1 363.9531 221.9863)" fill="#231F20" font-family="'ArialNarrow'" font-size="6.984">BPD</text>
<text transform="matrix(1 0 0 1 423.7852 221.9863)" fill="#231F20" font-family="'ArialNarrow'" font-size="6.984">mm</text>
<text transform="matrix(1 0 0 1 423.1357 234.2295)" fill="#231F20" font-family="'ArialNarrow'" font-size="6.984">mm</text>
<text transform="matrix(1 0 0 1 489.3018 221.917)" fill="#231F20" font-family="'ArialNarrow'" font-size="6.984">weeks</text>
<text transform="matrix(1 0 0 1 489.3008 234.1602)" fill="#231F20" font-family="'ArialNarrow'" font-size="6.984">weeks</text>
<text transform="matrix(1 0 0 1 363.9521 234.2305)" fill="#231F20" font-family="'ArialNarrow'" font-size="6.984">FL</text>
<text transform="matrix(1 0 0 1 363.9531 246.3262)" fill="#231F20" font-family="'ArialNarrow'" font-size="6.984">Placenta</text>
<text transform="matrix(1 0 0 1 363.9531 259.2109)" fill="#231F20" font-family="'ArialNarrow'" font-size="6.984">Other</text>
<g>
	<defs>
		<rect id="SVGID_31_" x="0.244" width="511" height="389"/>
	</defs>
	<clipPath id="SVGID_32_">
		<use xlink:href="#SVGID_31_"  overflow="visible"/>
	</clipPath>
	<path clip-path="url(#SVGID_32_)" fill="none" stroke="#231F20" stroke-width="0.5" stroke-miterlimit="10" d="M365.252,272.096
		h144.072 M380.588,258.992h127.8 M386.492,245.816h120.96 M372.74,233.792h49.536 M439.124,233.792h49.752 M439.124,221.336h49.752
		 M377.132,221.12l45.145,0.216"/>
</g>
<text transform="matrix(1 0 0 1 364.1719 283.1113)" fill="#231F20" font-family="'ArialNarrow'" font-size="7.992">EDD</text>
<text transform="matrix(1 0 0 1 389.8047 282.8965)" fill="#231F20" font-family="'ArialNarrow'" font-size="6.984">according to:   dates / sonar / both / uncertain</text>
<g>
	<defs>
		<rect id="SVGID_33_" x="0.244" width="511" height="389"/>
	</defs>
	<clipPath id="SVGID_34_">
		<use xlink:href="#SVGID_33_"  overflow="visible"/>
	</clipPath>
	<path clip-path="url(#SVGID_34_)" fill="none" stroke="#231F20" stroke-width="0.5" stroke-miterlimit="10" d="M505.147,314
		v-21.672h-19.512V314H505.147z M485.78,314v-21.672h-19.513V314H485.78z M466.412,314v-21.672h-19.44V314H466.412z M447.116,314
		v-21.672h-19.513V314H447.116z M427.748,314v-21.672h-19.512V314H427.748z M408.452,314v-21.672h-19.513V314H408.452z"/>
</g>
<text transform="matrix(1 0 0 1 389.8047 298.0156)" fill="#231F20" font-family="'ArialNarrow'" font-size="5.976">Da</text>
<text transform="matrix(1 0 0 1 396.0664 298.0156)"><tspan x="0" y="0" fill="#231F20" font-family="'ArialNarrow'" font-size="5.976" letter-spacing="10">y</tspan><tspan x="13.035" y="0" fill="#231F20" font-family="'ArialNarrow'" font-size="5.976">D</tspan></text>
<text transform="matrix(1 0 0 1 412.6387 298.0156)" fill="#231F20" font-family="'ArialNarrow'" font-size="5.976">ay</text>
<text transform="matrix(1 0 0 1 428.6113 298.0156)" fill="#231F20" font-family="'ArialNarrow'" font-size="5.976">Month</text>
<text transform="matrix(1 0 0 1 447.9082 298.0156)" fill="#231F20" font-family="'ArialNarrow'" font-size="5.976">Month</text>
<text transform="matrix(1 0 0 1 471.0176 298.0156)" fill="#231F20" font-family="'ArialNarrow'" font-size="5.976">Year</text>
<text transform="matrix(1 0 0 1 490.3867 298.0156)" fill="#231F20" font-family="'ArialNarrow'" font-size="5.976">Year</text>
<g>
	<defs>
		<rect id="SVGID_35_" x="0.244" width="511" height="389"/>
	</defs>
	<clipPath id="SVGID_36_">
		<use xlink:href="#SVGID_35_"  overflow="visible"/>
	</clipPath>
	
		<line clip-path="url(#SVGID_36_)" fill="none" stroke="#231F20" stroke-width="0.737" stroke-miterlimit="10" x1="361.076" y1="321.632" x2="510.548" y2="321.632"/>
	<path clip-path="url(#SVGID_36_)" fill="none" stroke="#231F20" stroke-width="0.5" stroke-miterlimit="10" d="M400.604,347.264
		h110.16 M400.532,334.376h110.231 M400.532,321.416v37.943"/>
	
		<line clip-path="url(#SVGID_36_)" fill="none" stroke="#231F20" stroke-width="0.737" stroke-miterlimit="10" x1="361.292" y1="359.359" x2="510.548" y2="359.792"/>
</g>
<text transform="matrix(1 0 0 1 362.4434 337.6875)" fill="#231F20" font-family="'ArialNarrow'" font-size="7.992">Future family</text>
<text transform="matrix(1 0 0 1 362.4453 346.6865)" fill="#231F20" font-family="'ArialNarrow'" font-size="7.992">planning</text>
<text transform="matrix(1 0 0 1 389.5889 370.9521)" fill="#231F20" font-family="'ArialNarrow-Italic'" font-size="9">*</text>
<text transform="matrix(1 0 0 1 392.4678 370.9512)" fill="#231F20" font-family="'ArialNarrow-Italic'" font-size="6.984">  Note problems from history, examination and</text>
<text transform="matrix(1 0 0 1 389.5898 379.2344)" fill="#231F20" font-family="'ArialNarrow-Italic'" font-size="6.984">   special investigations on problem list</text>
<text transform="matrix(1 0 0 1 99.2119 79.4238)" fill="#231F20" font-family="'ArialNarrow'" font-size="5.688">L</text>
<text transform="matrix(1 0 0 1 98.9961 86.335)" fill="#231F20" font-family="'ArialNarrow'" font-size="5.688">IU</text>
<text transform="matrix(1 0 0 1 103.6602 86.335)" fill="#231F20" font-family="'ArialNarrow'" font-size="5.688">D</text>
<text transform="matrix(1 0 0 1 98.6382 93.3877)" fill="#231F20" font-family="'ArialNarrow'" font-size="5.688">END</text>
<text transform="matrix(1 0 0 1 98.4951 100.083)" fill="#231F20" font-family="'ArialNarrow'" font-size="5.688">LND</text>
<text transform="matrix(1 0 0 1 98.853 106.9258)" fill="#231F20" font-family="'ArialNarrow'" font-size="5.688">ID</text>
<text transform="matrix(1 0 0 1 112.7495 79.3496)" fill="#231F20" font-family="'ArialNarrow'" font-size="5.688">=   Liv</text>
<text transform="matrix(1 0 0 1 125.3257 79.3496)" fill="#231F20" font-family="'ArialNarrow'" font-size="5.688">e</text>
<text transform="matrix(1 0 0 1 112.749 86.335)" fill="#231F20" font-family="'ArialNarrow'" font-size="5.688">=   intra-uterine deat</text>
<text transform="matrix(1 0 0 1 154.6191 86.335)" fill="#231F20" font-family="'ArialNarrow'" font-size="5.688">h</text>
<text transform="matrix(1 0 0 1 112.7495 93.3877)" fill="#231F20" font-family="'ArialNarrow'" font-size="5.688">=   early neonatal deat</text>
<text transform="matrix(1 0 0 1 159.0327 93.3877)" fill="#231F20" font-family="'ArialNarrow'" font-size="5.688">h</text>
<text transform="matrix(1 0 0 1 112.75 100.082)" fill="#231F20" font-family="'ArialNarrow'" font-size="5.688">=   late neonatal deat</text>
<text transform="matrix(1 0 0 1 156.4443 100.083)" fill="#231F20" font-family="'ArialNarrow'" font-size="5.688">h</text>
<text transform="matrix(1 0 0 1 112.75 106.8516)" fill="#231F20" font-family="'ArialNarrow'" font-size="5.688">=   infant deat</text>
<text transform="matrix(1 0 0 1 141.1445 106.8516)" fill="#231F20" font-family="'ArialNarrow'" font-size="5.688">h</text>
</svg>
