<?xml version="1.0" encoding="utf-8"?>
<!-- Generator: Adobe Illustrator 15.0.2, SVG Export Plug-In . SVG Version: 6.00 Build 0)  -->
<!DOCTYPE svg PUBLIC "-//W3C//DTD SVG 1.1//EN" "http://www.w3.org/Graphics/SVG/1.1/DTD/svg11.dtd">
<svg version="1.1" id="Layer_10" xmlns="http://www.w3.org/2000/svg" xmlns:xlink="http://www.w3.org/1999/xlink" x="0px" y="0px"
	 width="380.164px" height="141.574px" viewBox="0 0 380.164 141.574" enable-background="new 0 0 380.164 141.574"
	 xml:space="preserve">
<g>
	<text transform="matrix(1 0 0 1 0 120.2759)" font-family="'ArialMT'" font-size="9.936">Edge of droplet clearly outlined</text>
	<text transform="matrix(1 0 0 1 227.1602 120.2759)" font-family="'ArialMT'" font-size="9.936">Edge of droplet not clearly outlined</text>
	<g>
		<path fill-rule="evenodd" clip-rule="evenodd" stroke="#000000" stroke-width="0.216" stroke-miterlimit="10" d="M53.352,8.604
			c1.296,0,2.376-1.08,2.376-2.376s-1.08-2.376-2.376-2.376s-2.376,1.08-2.376,2.376S52.056,8.604,53.352,8.604z"/>
		<path fill-rule="evenodd" clip-rule="evenodd" stroke="#000000" stroke-width="0.216" stroke-miterlimit="10" d="M58.32,7.164
			c1.296,0,2.376-1.08,2.376-2.376c0-1.296-1.08-2.376-2.376-2.376s-2.376,1.08-2.376,2.376C55.944,6.084,57.024,7.164,58.32,7.164z
			"/>
		<path fill-rule="evenodd" clip-rule="evenodd" stroke="#000000" stroke-width="0.216" stroke-miterlimit="10" d="M62.712,5.724
			c1.296,0,2.376-1.008,2.376-2.304c0-1.368-1.08-2.376-2.376-2.376s-2.376,1.008-2.376,2.376
			C60.336,4.716,61.416,5.724,62.712,5.724z"/>
		<path fill-rule="evenodd" clip-rule="evenodd" stroke="#000000" stroke-width="0.216" stroke-miterlimit="10" d="M67.68,5.94
			c1.296,0,2.376-1.08,2.376-2.376s-1.08-2.376-2.376-2.376c-1.296,0-2.376,1.08-2.376,2.376S66.384,5.94,67.68,5.94z"/>
		<path fill-rule="evenodd" clip-rule="evenodd" stroke="#000000" stroke-width="0.216" stroke-miterlimit="10" d="M72.72,4.86
			c1.296,0,2.304-1.08,2.304-2.376s-1.008-2.376-2.304-2.376c-1.368,0-2.376,1.08-2.376,2.376S71.352,4.86,72.72,4.86z"/>
		<path fill-rule="evenodd" clip-rule="evenodd" stroke="#000000" stroke-width="0.216" stroke-miterlimit="10" d="M82.224,7.164
			c1.296,0,2.376-1.008,2.376-2.304c0-1.368-1.08-2.376-2.376-2.376c-1.296,0-2.376,1.008-2.376,2.376
			C79.848,6.156,80.928,7.164,82.224,7.164z"/>
		<path fill-rule="evenodd" clip-rule="evenodd" stroke="#000000" stroke-width="0.216" stroke-miterlimit="10" d="M88.56,11.268
			c1.296,0,2.376-1.008,2.376-2.376c0-1.296-1.08-2.304-2.376-2.304s-2.376,1.008-2.376,2.304
			C86.184,10.26,87.264,11.268,88.56,11.268z"/>
		<path fill-rule="evenodd" clip-rule="evenodd" stroke="#000000" stroke-width="0.216" stroke-miterlimit="10" d="M93.528,17.172
			c1.296,0,2.376-1.08,2.376-2.376s-1.08-2.376-2.376-2.376s-2.376,1.08-2.376,2.376S92.232,17.172,93.528,17.172z"/>
		<path fill-rule="evenodd" clip-rule="evenodd" stroke="#000000" stroke-width="0.216" stroke-miterlimit="10" d="M99.504,23.652
			c1.296,0,2.376-1.08,2.376-2.376S100.8,18.9,99.504,18.9s-2.376,1.08-2.376,2.376S98.208,23.652,99.504,23.652z"/>
		<path fill-rule="evenodd" clip-rule="evenodd" stroke="#000000" stroke-width="0.216" stroke-miterlimit="10" d="M101.952,28.332
			c1.296,0,2.304-1.08,2.304-2.376s-1.008-2.376-2.304-2.376c-1.368,0-2.376,1.08-2.376,2.376S100.584,28.332,101.952,28.332z"/>
		<path fill-rule="evenodd" clip-rule="evenodd" stroke="#000000" stroke-width="0.216" stroke-miterlimit="10" d="M104.328,33.012
			c1.296,0,2.376-1.08,2.376-2.376c0-1.296-1.08-2.376-2.376-2.376c-1.296,0-2.376,1.08-2.376,2.376
			C101.952,31.932,103.032,33.012,104.328,33.012z"/>
		<path fill-rule="evenodd" clip-rule="evenodd" stroke="#000000" stroke-width="0.216" stroke-miterlimit="10" d="M109.296,41.22
			c1.296,0,2.376-1.008,2.376-2.376c0-1.296-1.08-2.304-2.376-2.304s-2.376,1.008-2.376,2.304
			C106.92,40.212,108,41.22,109.296,41.22z"/>
		<path fill-rule="evenodd" clip-rule="evenodd" stroke="#000000" stroke-width="0.216" stroke-miterlimit="10" d="M110.952,49.644
			c1.296,0,2.376-1.008,2.376-2.304c0-1.368-1.08-2.376-2.376-2.376c-1.296,0-2.376,1.008-2.376,2.376
			C108.576,48.636,109.656,49.644,110.952,49.644z"/>
		<path fill-rule="evenodd" clip-rule="evenodd" stroke="#000000" stroke-width="0.216" stroke-miterlimit="10" d="M112.968,52.164
			c1.296,0,2.376-1.008,2.376-2.304c0-1.368-1.08-2.376-2.376-2.376c-1.296,0-2.376,1.008-2.376,2.376
			C110.592,51.156,111.672,52.164,112.968,52.164z"/>
		<path fill-rule="evenodd" clip-rule="evenodd" stroke="#000000" stroke-width="0.216" stroke-miterlimit="10" d="M112.608,56.124
			c1.296,0,2.376-1.08,2.376-2.376s-1.08-2.376-2.376-2.376s-2.376,1.08-2.376,2.376S111.312,56.124,112.608,56.124z"/>
		<path fill-rule="evenodd" clip-rule="evenodd" stroke="#000000" stroke-width="0.216" stroke-miterlimit="10" d="M110.448,58.428
			c1.368,0,2.376-1.08,2.376-2.376c0-1.296-1.008-2.376-2.376-2.376c-1.296,0-2.304,1.08-2.304,2.376
			C108.144,57.348,109.152,58.428,110.448,58.428z"/>
		<path fill-rule="evenodd" clip-rule="evenodd" stroke="#000000" stroke-width="0.216" stroke-miterlimit="10" d="M109.944,62.316
			c1.296,0,2.376-1.08,2.376-2.376s-1.08-2.376-2.376-2.376s-2.376,1.08-2.376,2.376S108.648,62.316,109.944,62.316z"/>
		<path fill-rule="evenodd" clip-rule="evenodd" stroke="#000000" stroke-width="0.216" stroke-miterlimit="10" d="M106.992,65.628
			c1.368,0,2.376-1.08,2.376-2.376s-1.008-2.376-2.376-2.376c-1.296,0-2.304,1.08-2.304,2.376S105.696,65.628,106.992,65.628z"/>
		<path fill-rule="evenodd" clip-rule="evenodd" stroke="#000000" stroke-width="0.216" stroke-miterlimit="10" d="M102.744,72.612
			c1.296,0,2.376-1.08,2.376-2.376c0-1.224-1.08-2.304-2.376-2.304c-1.296,0-2.376,1.08-2.376,2.304
			C100.368,71.532,101.448,72.612,102.744,72.612z"/>
		<path fill-rule="evenodd" clip-rule="evenodd" stroke="#000000" stroke-width="0.216" stroke-miterlimit="10" d="M97.848,78.3
			c1.296,0,2.376-1.08,2.376-2.376s-1.08-2.376-2.376-2.376c-1.296,0-2.376,1.08-2.376,2.376S96.552,78.3,97.848,78.3z"/>
		<path fill-rule="evenodd" clip-rule="evenodd" stroke="#000000" stroke-width="0.216" stroke-miterlimit="10" d="M96.336,80.028
			c1.296,0,2.376-1.08,2.376-2.376s-1.08-2.376-2.376-2.376s-2.376,1.08-2.376,2.376S95.04,80.028,96.336,80.028z"/>
		<path fill-rule="evenodd" clip-rule="evenodd" stroke="#000000" stroke-width="0.216" stroke-miterlimit="10" d="M91.44,79.596
			c1.296,0,2.376-1.08,2.376-2.376c0-1.296-1.08-2.376-2.376-2.376s-2.376,1.08-2.376,2.376
			C89.064,78.516,90.144,79.596,91.44,79.596z"/>
		<path fill-rule="evenodd" clip-rule="evenodd" stroke="#000000" stroke-width="0.216" stroke-miterlimit="10" d="M90.504,84.06
			c1.296,0,2.376-1.08,2.376-2.376c0-1.296-1.08-2.376-2.376-2.376s-2.376,1.08-2.376,2.376C88.128,82.98,89.208,84.06,90.504,84.06
			z"/>
		<path fill-rule="evenodd" clip-rule="evenodd" stroke="#000000" stroke-width="0.216" stroke-miterlimit="10" d="M89.136,86.364
			c1.296,0,2.376-1.008,2.376-2.376c0-1.296-1.08-2.304-2.376-2.304c-1.296,0-2.376,1.008-2.376,2.304
			C86.76,85.356,87.84,86.364,89.136,86.364z"/>
		<path fill-rule="evenodd" clip-rule="evenodd" stroke="#000000" stroke-width="0.216" stroke-miterlimit="10" d="M83.88,88.308
			c1.296,0,2.376-1.08,2.376-2.376c0-1.296-1.08-2.376-2.376-2.376s-2.376,1.08-2.376,2.376
			C81.504,87.228,82.584,88.308,83.88,88.308z"/>
		<path fill-rule="evenodd" clip-rule="evenodd" stroke="#000000" stroke-width="0.216" stroke-miterlimit="10" d="M80.352,88.884
			c1.296,0,2.376-1.08,2.376-2.376s-1.08-2.376-2.376-2.376s-2.376,1.08-2.376,2.376S79.056,88.884,80.352,88.884z"/>
		<path fill-rule="evenodd" clip-rule="evenodd" stroke="#000000" stroke-width="0.216" stroke-miterlimit="10" d="M80.64,90.972
			c1.296,0,2.304-1.08,2.304-2.376c0-1.296-1.008-2.376-2.304-2.376c-1.296,0-2.376,1.08-2.376,2.376
			C78.264,89.892,79.344,90.972,80.64,90.972z"/>
		<path fill-rule="evenodd" clip-rule="evenodd" stroke="#000000" stroke-width="0.216" stroke-miterlimit="10" d="M72.576,91.116
			c1.296,0,2.376-1.08,2.376-2.376c0-1.296-1.08-2.376-2.376-2.376c-1.296,0-2.376,1.08-2.376,2.376
			C70.2,90.036,71.28,91.116,72.576,91.116z"/>
		<path fill-rule="evenodd" clip-rule="evenodd" stroke="#000000" stroke-width="0.216" stroke-miterlimit="10" d="M65.88,89.316
			c1.368,0,2.376-1.08,2.376-2.376s-1.008-2.376-2.376-2.376c-1.296,0-2.304,1.08-2.304,2.376S64.584,89.316,65.88,89.316z"/>
		<path fill-rule="evenodd" clip-rule="evenodd" stroke="#000000" stroke-width="0.216" stroke-miterlimit="10" d="M63,90.612
			c1.296,0,2.376-1.008,2.376-2.304c0-1.368-1.08-2.376-2.376-2.376s-2.376,1.008-2.376,2.376
			C60.624,89.604,61.704,90.612,63,90.612z"/>
		<path fill-rule="evenodd" clip-rule="evenodd" stroke="#000000" stroke-width="0.216" stroke-miterlimit="10" d="M54.936,89.028
			c1.296,0,2.376-1.08,2.376-2.376s-1.08-2.376-2.376-2.376s-2.376,1.08-2.376,2.376S53.64,89.028,54.936,89.028z"/>
		<path fill-rule="evenodd" clip-rule="evenodd" stroke="#000000" stroke-width="0.216" stroke-miterlimit="10" d="M47.664,83.844
			c1.368,0,2.376-1.08,2.376-2.376s-1.008-2.376-2.376-2.376c-1.296,0-2.304,1.08-2.304,2.376S46.368,83.844,47.664,83.844z"/>
		<path fill-rule="evenodd" clip-rule="evenodd" stroke="#000000" stroke-width="0.216" stroke-miterlimit="10" d="M37.872,79.452
			c1.296,0,2.376-1.08,2.376-2.376c0-1.296-1.08-2.376-2.376-2.376s-2.376,1.08-2.376,2.376
			C35.496,78.372,36.576,79.452,37.872,79.452z"/>
		<path fill-rule="evenodd" clip-rule="evenodd" stroke="#000000" stroke-width="0.216" stroke-miterlimit="10" d="M31.248,75.276
			c1.296,0,2.304-1.08,2.304-2.376s-1.008-2.376-2.304-2.376s-2.376,1.08-2.376,2.376S29.952,75.276,31.248,75.276z"/>
		<path fill-rule="evenodd" clip-rule="evenodd" stroke="#000000" stroke-width="0.216" stroke-miterlimit="10" d="M27.288,68.004
			c1.368,0,2.376-1.08,2.376-2.376s-1.008-2.376-2.376-2.376c-1.296,0-2.304,1.08-2.304,2.376S25.992,68.004,27.288,68.004z"/>
		<path fill-rule="evenodd" clip-rule="evenodd" stroke="#000000" stroke-width="0.216" stroke-miterlimit="10" d="M23.616,61.812
			c1.296,0,2.376-1.08,2.376-2.376s-1.08-2.376-2.376-2.376c-1.296,0-2.376,1.08-2.376,2.376S22.32,61.812,23.616,61.812z"/>
		<path fill-rule="evenodd" clip-rule="evenodd" stroke="#000000" stroke-width="0.216" stroke-miterlimit="10" d="M28.224,60.228
			c1.296,0,2.376-1.08,2.376-2.376s-1.08-2.376-2.376-2.376c-1.296,0-2.376,1.08-2.376,2.376S26.928,60.228,28.224,60.228z"/>
		<path fill-rule="evenodd" clip-rule="evenodd" stroke="#000000" stroke-width="0.216" stroke-miterlimit="10" d="M24.696,55.836
			c1.296,0,2.376-1.08,2.376-2.376s-1.08-2.376-2.376-2.376s-2.376,1.08-2.376,2.376S23.4,55.836,24.696,55.836z"/>
		<path fill-rule="evenodd" clip-rule="evenodd" stroke="#000000" stroke-width="0.216" stroke-miterlimit="10" d="M29.304,54.396
			c1.296,0,2.376-1.08,2.376-2.376s-1.08-2.376-2.376-2.376c-1.296,0-2.376,1.08-2.376,2.376S28.008,54.396,29.304,54.396z"/>
		<path fill-rule="evenodd" clip-rule="evenodd" stroke="#000000" stroke-width="0.216" stroke-miterlimit="10" d="M25.56,51.804
			c1.296,0,2.376-1.08,2.376-2.376c0-1.296-1.08-2.376-2.376-2.376s-2.376,1.08-2.376,2.376
			C23.184,50.724,24.264,51.804,25.56,51.804z"/>
		<path fill-rule="evenodd" clip-rule="evenodd" stroke="#000000" stroke-width="0.216" stroke-miterlimit="10" d="M27.432,48.996
			c1.296,0,2.304-1.08,2.304-2.376c0-1.296-1.008-2.376-2.304-2.376c-1.368,0-2.376,1.08-2.376,2.376
			C25.056,47.916,26.064,48.996,27.432,48.996z"/>
		<path fill-rule="evenodd" clip-rule="evenodd" stroke="#000000" stroke-width="0.216" stroke-miterlimit="10" d="M29.232,46.188
			c1.296,0,2.376-1.08,2.376-2.376s-1.08-2.376-2.376-2.376s-2.376,1.08-2.376,2.376S27.936,46.188,29.232,46.188z"/>
		<path fill-rule="evenodd" clip-rule="evenodd" stroke="#000000" stroke-width="0.216" stroke-miterlimit="10" d="M27.288,42.732
			c1.296,0,2.376-1.008,2.376-2.304c0-1.368-1.08-2.376-2.376-2.376c-1.296,0-2.376,1.008-2.376,2.376
			C24.912,41.724,25.992,42.732,27.288,42.732z"/>
		<path fill-rule="evenodd" clip-rule="evenodd" stroke="#000000" stroke-width="0.216" stroke-miterlimit="10" d="M31.68,39.348
			c1.296,0,2.376-1.08,2.376-2.376c0-1.296-1.08-2.376-2.376-2.376c-1.296,0-2.376,1.08-2.376,2.376
			C29.304,38.268,30.384,39.348,31.68,39.348z"/>
		<path fill-rule="evenodd" clip-rule="evenodd" stroke="#000000" stroke-width="0.216" stroke-miterlimit="10" d="M33.48,34.164
			c1.296,0,2.376-1.008,2.376-2.376c0-1.296-1.08-2.304-2.376-2.304s-2.376,1.008-2.376,2.304
			C31.104,33.156,32.184,34.164,33.48,34.164z"/>
		<path fill-rule="evenodd" clip-rule="evenodd" stroke="#000000" stroke-width="0.216" stroke-miterlimit="10" d="M34.56,31.356
			c1.296,0,2.376-1.08,2.376-2.376s-1.08-2.304-2.376-2.304s-2.376,1.008-2.376,2.304S33.264,31.356,34.56,31.356z"/>
		<path fill-rule="evenodd" clip-rule="evenodd" stroke="#000000" stroke-width="0.216" stroke-miterlimit="10" d="M35.568,28.548
			c1.296,0,2.376-1.08,2.376-2.376s-1.08-2.376-2.376-2.376s-2.376,1.08-2.376,2.376S34.272,28.548,35.568,28.548z"/>
		<path fill-rule="evenodd" clip-rule="evenodd" stroke="#000000" stroke-width="0.216" stroke-miterlimit="10" d="M34.416,25.74
			c1.296,0,2.376-1.08,2.376-2.376c0-1.296-1.08-2.376-2.376-2.376s-2.376,1.08-2.376,2.376C32.04,24.66,33.12,25.74,34.416,25.74z"
			/>
		<path fill-rule="evenodd" clip-rule="evenodd" stroke="#000000" stroke-width="0.216" stroke-miterlimit="10" d="M38.232,20.556
			c1.296,0,2.376-1.008,2.376-2.376c0-1.296-1.08-2.304-2.376-2.304s-2.376,1.008-2.376,2.304
			C35.856,19.548,36.936,20.556,38.232,20.556z"/>
		<path fill-rule="evenodd" clip-rule="evenodd" stroke="#000000" stroke-width="0.216" stroke-miterlimit="10" d="M40.032,23.292
			c1.296,0,2.376-1.08,2.376-2.376s-1.08-2.376-2.376-2.376c-1.296,0-2.376,1.08-2.376,2.376S38.736,23.292,40.032,23.292z"/>
		<path fill-rule="evenodd" clip-rule="evenodd" stroke="#000000" stroke-width="0.216" stroke-miterlimit="10" d="M41.904,16.524
			c1.296,0,2.304-1.08,2.304-2.376s-1.008-2.304-2.304-2.304c-1.368,0-2.376,1.008-2.376,2.304S40.536,16.524,41.904,16.524z"/>
		<path fill-rule="evenodd" clip-rule="evenodd" stroke="#000000" stroke-width="0.216" stroke-miterlimit="10" d="M47.016,11.196
			c1.368,0,2.376-1.08,2.376-2.376s-1.008-2.376-2.376-2.376c-1.296,0-2.304,1.08-2.304,2.376S45.72,11.196,47.016,11.196z"/>
		<path fill-rule="evenodd" clip-rule="evenodd" stroke="#000000" stroke-width="0.216" stroke-miterlimit="10" d="M49.464,15.444
			c1.296,0,2.376-1.008,2.376-2.376c0-1.296-1.08-2.304-2.376-2.304s-2.376,1.008-2.376,2.304
			C47.088,14.436,48.168,15.444,49.464,15.444z"/>
		<path fill-rule="evenodd" clip-rule="evenodd" stroke="#000000" stroke-width="0.216" stroke-miterlimit="10" d="M55.008,17.028
			c1.296,0,2.376-1.08,2.376-2.376s-1.08-2.376-2.376-2.376s-2.304,1.08-2.304,2.376S53.712,17.028,55.008,17.028z"/>
		<path fill-rule="evenodd" clip-rule="evenodd" stroke="#000000" stroke-width="0.216" stroke-miterlimit="10" d="M68.688,17.532
			c1.296,0,2.376-1.08,2.376-2.376c0-1.296-1.08-2.376-2.376-2.376s-2.376,1.08-2.376,2.376
			C66.312,16.452,67.392,17.532,68.688,17.532z"/>
		<path fill-rule="evenodd" clip-rule="evenodd" stroke="#000000" stroke-width="0.216" stroke-miterlimit="10" d="M77.616,19.476
			c1.296,0,2.376-1.08,2.376-2.376c0-1.296-1.08-2.376-2.376-2.376c-1.296,0-2.376,1.08-2.376,2.376
			C75.24,18.396,76.32,19.476,77.616,19.476z"/>
		<path fill-rule="evenodd" clip-rule="evenodd" stroke="#000000" stroke-width="0.216" stroke-miterlimit="10" d="M69.984,26.316
			c1.296,0,2.376-1.08,2.376-2.376s-1.08-2.376-2.376-2.376s-2.376,1.08-2.376,2.376S68.688,26.316,69.984,26.316z"/>
		<path fill-rule="evenodd" clip-rule="evenodd" stroke="#000000" stroke-width="0.216" stroke-miterlimit="10" d="M46.728,26.244
			c1.296,0,2.376-1.008,2.376-2.304s-1.08-2.376-2.376-2.376s-2.376,1.08-2.376,2.376S45.432,26.244,46.728,26.244z"/>
		<path fill-rule="evenodd" clip-rule="evenodd" stroke="#000000" stroke-width="0.216" stroke-miterlimit="10" d="M38.52,38.484
			c1.296,0,2.376-1.08,2.376-2.376s-1.08-2.376-2.376-2.376s-2.376,1.08-2.376,2.376S37.224,38.484,38.52,38.484z"/>
		<path fill-rule="evenodd" clip-rule="evenodd" stroke="#000000" stroke-width="0.216" stroke-miterlimit="10" d="M35.568,46.332
			c1.296,0,2.376-1.08,2.376-2.376s-1.08-2.376-2.376-2.376s-2.376,1.08-2.376,2.376S34.272,46.332,35.568,46.332z"/>
		<path fill-rule="evenodd" clip-rule="evenodd" stroke="#000000" stroke-width="0.216" stroke-miterlimit="10" d="M33.048,51.012
			c1.296,0,2.376-1.08,2.376-2.376c0-1.296-1.08-2.376-2.376-2.376s-2.376,1.08-2.376,2.376
			C30.672,49.932,31.752,51.012,33.048,51.012z"/>
		<path fill-rule="evenodd" clip-rule="evenodd" stroke="#000000" stroke-width="0.216" stroke-miterlimit="10" d="M39.024,53.1
			c1.296,0,2.376-1.008,2.376-2.376c0-1.296-1.08-2.304-2.376-2.304s-2.376,1.008-2.376,2.304
			C36.648,52.092,37.728,53.1,39.024,53.1z"/>
		<path fill-rule="evenodd" clip-rule="evenodd" stroke="#000000" stroke-width="0.216" stroke-miterlimit="10" d="M49.752,46.188
			c1.296,0,2.376-1.08,2.376-2.376s-1.08-2.376-2.376-2.376s-2.376,1.08-2.376,2.376S48.456,46.188,49.752,46.188z"/>
		<path fill-rule="evenodd" clip-rule="evenodd" stroke="#000000" stroke-width="0.216" stroke-miterlimit="10" d="M55.728,34.092
			c1.296,0,2.304-1.08,2.304-2.376s-1.008-2.376-2.304-2.376c-1.368,0-2.376,1.08-2.376,2.376S54.36,34.092,55.728,34.092z"/>
		<path fill-rule="evenodd" clip-rule="evenodd" stroke="#000000" stroke-width="0.216" stroke-miterlimit="10" d="M64.224,40.14
			c1.296,0,2.376-1.08,2.376-2.376c0-1.296-1.08-2.304-2.376-2.304c-1.296,0-2.376,1.008-2.376,2.304
			C61.848,39.06,62.928,40.14,64.224,40.14z"/>
		<path fill-rule="evenodd" clip-rule="evenodd" stroke="#000000" stroke-width="0.216" stroke-miterlimit="10" d="M73.152,47.628
			c1.296,0,2.376-1.08,2.376-2.376s-1.08-2.376-2.376-2.376s-2.376,1.08-2.376,2.376S71.856,47.628,73.152,47.628z"/>
		<path fill-rule="evenodd" clip-rule="evenodd" stroke="#000000" stroke-width="0.216" stroke-miterlimit="10" d="M82.296,40.86
			c1.296,0,2.376-1.08,2.376-2.376s-1.08-2.376-2.376-2.376s-2.376,1.08-2.376,2.376S81,40.86,82.296,40.86z"/>
		<path fill-rule="evenodd" clip-rule="evenodd" stroke="#000000" stroke-width="0.216" stroke-miterlimit="10" d="M89.784,30.78
			c1.368,0,2.376-1.08,2.376-2.376s-1.008-2.376-2.376-2.376c-1.296,0-2.304,1.08-2.304,2.376S88.488,30.78,89.784,30.78z"/>
		<path fill-rule="evenodd" clip-rule="evenodd" stroke="#000000" stroke-width="0.216" stroke-miterlimit="10" d="M96.984,37.044
			c1.296,0,2.376-1.08,2.376-2.376s-1.08-2.376-2.376-2.376s-2.376,1.08-2.376,2.376S95.688,37.044,96.984,37.044z"/>
		<path fill-rule="evenodd" clip-rule="evenodd" stroke="#000000" stroke-width="0.216" stroke-miterlimit="10" d="M94.68,49.572
			c1.296,0,2.304-1.008,2.304-2.376c0-1.296-1.008-2.304-2.304-2.304c-1.368,0-2.376,1.008-2.376,2.304
			C92.304,48.564,93.312,49.572,94.68,49.572z"/>
		<path fill-rule="evenodd" clip-rule="evenodd" stroke="#000000" stroke-width="0.216" stroke-miterlimit="10" d="M102.6,52.092
			c1.296,0,2.376-1.008,2.376-2.376c0-1.296-1.08-2.304-2.376-2.304c-1.296,0-2.376,1.008-2.376,2.304
			C100.224,51.084,101.304,52.092,102.6,52.092z"/>
		<path fill-rule="evenodd" clip-rule="evenodd" stroke="#000000" stroke-width="0.216" stroke-miterlimit="10" d="M92.952,64.332
			c1.296,0,2.376-1.08,2.376-2.376s-1.08-2.376-2.376-2.376c-1.296,0-2.376,1.08-2.376,2.376S91.656,64.332,92.952,64.332z"/>
		<path fill-rule="evenodd" clip-rule="evenodd" stroke="#000000" stroke-width="0.216" stroke-miterlimit="10" d="M77.4,80.172
			c1.296,0,2.376-1.08,2.376-2.376s-1.08-2.376-2.376-2.376s-2.376,1.08-2.376,2.376S76.104,80.172,77.4,80.172z"/>
		<path fill-rule="evenodd" clip-rule="evenodd" stroke="#000000" stroke-width="0.216" stroke-miterlimit="10" d="M73.728,71.244
			c1.296,0,2.376-1.08,2.376-2.304c0-1.296-1.08-2.376-2.376-2.376s-2.376,1.08-2.376,2.376
			C71.352,70.164,72.432,71.244,73.728,71.244z"/>
		<path fill-rule="evenodd" clip-rule="evenodd" stroke="#000000" stroke-width="0.216" stroke-miterlimit="10" d="M62.712,76.284
			c1.296,0,2.376-1.008,2.376-2.304c0-1.368-1.08-2.376-2.376-2.376s-2.376,1.008-2.376,2.376
			C60.336,75.276,61.416,76.284,62.712,76.284z"/>
		<path fill-rule="evenodd" clip-rule="evenodd" stroke="#000000" stroke-width="0.216" stroke-miterlimit="10" d="M63.936,74.124
			c1.296,0,2.376-1.08,2.376-2.376s-1.08-2.376-2.376-2.376s-2.376,1.08-2.376,2.376S62.64,74.124,63.936,74.124z"/>
		<path fill-rule="evenodd" clip-rule="evenodd" stroke="#000000" stroke-width="0.216" stroke-miterlimit="10" d="M43.272,66.852
			c1.296,0,2.376-1.08,2.376-2.376c0-1.296-1.08-2.376-2.376-2.376s-2.376,1.08-2.376,2.376
			C40.896,65.772,41.976,66.852,43.272,66.852z"/>
		<path fill-rule="evenodd" clip-rule="evenodd" stroke="#000000" stroke-width="0.216" stroke-miterlimit="10" d="M35.208,65.196
			c1.368,0,2.376-1.08,2.376-2.376s-1.008-2.376-2.376-2.376c-1.296,0-2.304,1.08-2.304,2.376S33.912,65.196,35.208,65.196z"/>
		<path fill-rule="evenodd" clip-rule="evenodd" stroke="#000000" stroke-width="0.216" stroke-miterlimit="10" d="M59.976,54.108
			c1.296,0,2.304-1.08,2.304-2.376s-1.008-2.376-2.304-2.376c-1.368,0-2.376,1.08-2.376,2.376S58.608,54.108,59.976,54.108z"/>
	</g>
	<g>
		<path fill-rule="evenodd" clip-rule="evenodd" fill="none" stroke="#808285" stroke-width="0.5" stroke-miterlimit="10" d="
			M260.424,41.148c0-9.216,1.8-19.656,7.56-25.488c3.744-3.672,7.272-6.768,11.808-9.864C283.32,3.564,289.8,6.66,293.04,3.42
			c3.816-3.888,8.064-0.36,11.736-0.36"/>
		<path fill-rule="evenodd" clip-rule="evenodd" fill="none" stroke="#808285" stroke-width="0.5" stroke-miterlimit="10" d="
			M316.368,5.004c2.16,0,3.888-0.144,5.04,1.008c0.792,0.792,2.232,1.44,2.88,2.376c1.296,1.656,5.472,1.152,6.768,2.448
			c0.648,0.648,2.952,1.152,3.24,1.944c0.144,0.288,1.944,2.376,2.088,2.376"/>
		<path fill-rule="evenodd" clip-rule="evenodd" fill="none" stroke="#808285" stroke-width="0.5" stroke-miterlimit="10" d="
			M261.072,50.004c0,6.768,5.328,13.104,7.776,19.08c1.08,2.448,4.68,8.28,8.064,8.28c1.944,0,5.328,0.144,7.2,0.504
			c3.096,0.432,7.128,2.88,10.008,2.88"/>
		<path fill-rule="evenodd" clip-rule="evenodd" fill="none" stroke="#808285" stroke-width="0.5" stroke-miterlimit="10" d="
			M346.104,37.116c0,2.232,1.08,4.824,1.08,7.272c0,1.44,0,3.024,0,4.536"/>
		<path fill-rule="evenodd" clip-rule="evenodd" fill="none" stroke="#808285" stroke-width="0.5" stroke-miterlimit="10" d="
			M342.864,64.188c0,1.008-0.36,2.088-1.296,2.304c-0.144,0-1.296,0.792-1.44,0.792c-0.504,0.144-0.504,1.44-0.504,2.016
			c0,0.504,0,1.44-0.144,1.8c-0.144,0.288-1.152,0.792-1.296,0.936c-0.504,0.504-2.232,3.096-3.096,3.096"/>
		<path fill-rule="evenodd" clip-rule="evenodd" fill="none" stroke="#808285" stroke-width="0.5" stroke-miterlimit="10" d="
			M331.704,76.572c-2.592,3.24-3.672,4.536-7.704,5.184c-2.088,0.288-5.688,0.792-7.632,0.792"/>
		<path fill-rule="evenodd" clip-rule="evenodd" stroke="#000000" stroke-width="0.216" stroke-miterlimit="10" d="M299.52,37.116
			c0.432,0,0.72-0.36,0.72-0.72s-0.288-0.648-0.72-0.648c-0.36,0-0.648,0.288-0.648,0.648S299.16,37.116,299.52,37.116z"/>
		<path fill-rule="evenodd" clip-rule="evenodd" stroke="#000000" stroke-width="0.216" stroke-miterlimit="10" d="M298.512,39.276
			c0.36,0,0.72-0.288,0.72-0.648s-0.36-0.648-0.72-0.648c-0.36,0-0.648,0.288-0.648,0.648S298.152,39.276,298.512,39.276z"/>
		<path fill-rule="evenodd" clip-rule="evenodd" stroke="#000000" stroke-width="0.216" stroke-miterlimit="10" d="M298.224,40.572
			c0.432,0,0.72-0.288,0.72-0.648c0-0.36-0.288-0.648-0.72-0.648c-0.36,0-0.648,0.288-0.648,0.648
			C297.576,40.284,297.864,40.572,298.224,40.572z"/>
		
			<circle fill-rule="evenodd" clip-rule="evenodd" stroke="#000000" stroke-width="0.216" stroke-miterlimit="10" cx="298.584" cy="41.364" r="0.648"/>
		<path fill-rule="evenodd" clip-rule="evenodd" stroke="#000000" stroke-width="0.216" stroke-miterlimit="10" d="M298.872,43.524
			c0.36,0,0.648-0.288,0.648-0.72c0-0.36-0.288-0.648-0.648-0.648c-0.36,0-0.648,0.288-0.648,0.648
			C298.224,43.236,298.512,43.524,298.872,43.524z"/>
		
			<circle fill-rule="evenodd" clip-rule="evenodd" stroke="#000000" stroke-width="0.216" stroke-miterlimit="10" cx="300.384" cy="42.516" r="0.648"/>
		<path fill-rule="evenodd" clip-rule="evenodd" stroke="#000000" stroke-width="0.216" stroke-miterlimit="10" d="M300.528,44.532
			c0.36,0,0.648-0.36,0.648-0.72s-0.288-0.648-0.648-0.648c-0.36,0-0.648,0.288-0.648,0.648S300.168,44.532,300.528,44.532z"/>
		
			<circle fill-rule="evenodd" clip-rule="evenodd" stroke="#000000" stroke-width="0.216" stroke-miterlimit="10" cx="299.376" cy="44.244" r="0.648"/>
		<path fill-rule="evenodd" clip-rule="evenodd" stroke="#000000" stroke-width="0.216" stroke-miterlimit="10" d="M298.224,45.972
			c0.36,0,0.648-0.36,0.648-0.72s-0.288-0.648-0.648-0.648c-0.36,0-0.648,0.288-0.648,0.648S297.864,45.972,298.224,45.972z"/>
		<path fill-rule="evenodd" clip-rule="evenodd" stroke="#000000" stroke-width="0.216" stroke-miterlimit="10" d="M296.784,45.324
			c0.36,0,0.648-0.288,0.648-0.648c0-0.36-0.288-0.648-0.648-0.648c-0.36,0-0.72,0.288-0.72,0.648
			C296.064,45.036,296.424,45.324,296.784,45.324z"/>
		<path fill-rule="evenodd" clip-rule="evenodd" stroke="#000000" stroke-width="0.216" stroke-miterlimit="10" d="M295.56,44.748
			c0.432,0,0.72-0.288,0.72-0.72c0-0.36-0.288-0.648-0.72-0.648c-0.36,0-0.648,0.288-0.648,0.648
			C294.912,44.46,295.2,44.748,295.56,44.748z"/>
		<path fill-rule="evenodd" clip-rule="evenodd" stroke="#000000" stroke-width="0.216" stroke-miterlimit="10" d="M295.632,43.236
			c0.36,0,0.648-0.288,0.648-0.648s-0.288-0.72-0.648-0.72s-0.72,0.36-0.72,0.72S295.272,43.236,295.632,43.236z"/>
		<path fill-rule="evenodd" clip-rule="evenodd" stroke="#000000" stroke-width="0.216" stroke-miterlimit="10" d="M296.64,50.148
			c0.36,0,0.72-0.288,0.72-0.648s-0.36-0.72-0.72-0.72c-0.36,0-0.648,0.36-0.648,0.72S296.28,50.148,296.64,50.148z"/>
		
			<circle fill-rule="evenodd" clip-rule="evenodd" stroke="#000000" stroke-width="0.216" stroke-miterlimit="10" cx="297.72" cy="47.412" r="0.648"/>
		<path fill-rule="evenodd" clip-rule="evenodd" stroke="#000000" stroke-width="0.216" stroke-miterlimit="10" d="M299.376,48.348
			c0.36,0,0.648-0.288,0.648-0.648c0-0.36-0.288-0.72-0.648-0.72s-0.72,0.36-0.72,0.72C298.656,48.06,299.016,48.348,299.376,48.348
			z"/>
		
			<circle fill-rule="evenodd" clip-rule="evenodd" stroke="#000000" stroke-width="0.216" stroke-miterlimit="10" cx="299.52" cy="49.428" r="0.648"/>
		<path fill-rule="evenodd" clip-rule="evenodd" stroke="#000000" stroke-width="0.216" stroke-miterlimit="10" d="M300.384,47.268
			c0.432,0,0.72-0.288,0.72-0.648c0-0.36-0.288-0.648-0.72-0.648c-0.36,0-0.648,0.288-0.648,0.648
			C299.736,46.98,300.024,47.268,300.384,47.268z"/>
		<path fill-rule="evenodd" clip-rule="evenodd" stroke="#000000" stroke-width="0.216" stroke-miterlimit="10" d="M301.896,47.556
			c0.36,0,0.648-0.288,0.648-0.648c0-0.36-0.288-0.72-0.648-0.72s-0.648,0.36-0.648,0.72
			C301.248,47.268,301.536,47.556,301.896,47.556z"/>
		<path fill-rule="evenodd" clip-rule="evenodd" stroke="#000000" stroke-width="0.216" stroke-miterlimit="10" d="M303.408,47.844
			c0.36,0,0.648-0.288,0.648-0.648c0-0.432-0.288-0.72-0.648-0.72c-0.36,0-0.648,0.288-0.648,0.72
			C302.76,47.556,303.048,47.844,303.408,47.844z"/>
		<path fill-rule="evenodd" clip-rule="evenodd" stroke="#000000" stroke-width="0.216" stroke-miterlimit="10" d="M300.744,48.564
			c0.36,0,0.648-0.288,0.648-0.648c0-0.432-0.288-0.72-0.648-0.72c-0.36,0-0.648,0.288-0.648,0.72
			C300.096,48.276,300.384,48.564,300.744,48.564z"/>
		<path fill-rule="evenodd" clip-rule="evenodd" stroke="#000000" stroke-width="0.216" stroke-miterlimit="10" d="M302.4,49.14
			c0.36,0,0.648-0.288,0.648-0.648c0-0.432-0.288-0.72-0.648-0.72s-0.648,0.288-0.648,0.72C301.752,48.852,302.04,49.14,302.4,49.14
			z"/>
		
			<circle fill-rule="evenodd" clip-rule="evenodd" stroke="#000000" stroke-width="0.216" stroke-miterlimit="10" cx="302.112" cy="47.7" r="0.648"/>
		<path fill-rule="evenodd" clip-rule="evenodd" stroke="#000000" stroke-width="0.216" stroke-miterlimit="10" d="M303.048,46.404
			c0.36,0,0.648-0.288,0.648-0.648s-0.288-0.648-0.648-0.648s-0.72,0.288-0.72,0.648S302.688,46.404,303.048,46.404z"/>
		<path fill-rule="evenodd" clip-rule="evenodd" stroke="#000000" stroke-width="0.216" stroke-miterlimit="10" d="M302.472,45.108
			c0.36,0,0.648-0.288,0.648-0.648c0-0.432-0.288-0.72-0.648-0.72c-0.36,0-0.72,0.288-0.72,0.72
			C301.752,44.82,302.112,45.108,302.472,45.108z"/>
		<path fill-rule="evenodd" clip-rule="evenodd" stroke="#000000" stroke-width="0.216" stroke-miterlimit="10" d="M303.768,44.46
			c0.36,0,0.72-0.288,0.72-0.648s-0.36-0.648-0.72-0.648c-0.36,0-0.648,0.288-0.648,0.648S303.408,44.46,303.768,44.46z"/>
		<path fill-rule="evenodd" clip-rule="evenodd" stroke="#000000" stroke-width="0.216" stroke-miterlimit="10" d="M304.56,45.684
			c0.36,0,0.648-0.36,0.648-0.72s-0.288-0.648-0.648-0.648c-0.36,0-0.648,0.288-0.648,0.648S304.2,45.684,304.56,45.684z"/>
		
			<circle fill-rule="evenodd" clip-rule="evenodd" stroke="#000000" stroke-width="0.216" stroke-miterlimit="10" cx="304.56" cy="42.012" r="0.648"/>
		
			<circle fill-rule="evenodd" clip-rule="evenodd" stroke="#000000" stroke-width="0.216" stroke-miterlimit="10" cx="302.976" cy="42.156" r="0.648"/>
		
			<circle fill-rule="evenodd" clip-rule="evenodd" stroke="#000000" stroke-width="0.216" stroke-miterlimit="10" cx="302.976" cy="40.212" r="0.648"/>
		<path fill-rule="evenodd" clip-rule="evenodd" stroke="#000000" stroke-width="0.216" stroke-miterlimit="10" d="M300.312,40.86
			c0.36,0,0.72-0.288,0.72-0.648s-0.36-0.648-0.72-0.648s-0.648,0.288-0.648,0.648S299.952,40.86,300.312,40.86z"/>
		<path fill-rule="evenodd" clip-rule="evenodd" stroke="#000000" stroke-width="0.216" stroke-miterlimit="10" d="M305.064,40.86
			c0.36,0,0.648-0.288,0.648-0.648c0-0.432-0.288-0.72-0.648-0.72s-0.648,0.288-0.648,0.72
			C304.416,40.572,304.704,40.86,305.064,40.86z"/>
		<path fill-rule="evenodd" clip-rule="evenodd" stroke="#000000" stroke-width="0.216" stroke-miterlimit="10" d="M307.44,41.436
			c0.36,0,0.648-0.288,0.648-0.648c0-0.432-0.288-0.72-0.648-0.72s-0.648,0.288-0.648,0.72
			C306.792,41.148,307.08,41.436,307.44,41.436z"/>
		<path fill-rule="evenodd" clip-rule="evenodd" stroke="#000000" stroke-width="0.216" stroke-miterlimit="10" d="M308.088,43.452
			c0.36,0,0.648-0.288,0.648-0.648c0-0.36-0.288-0.648-0.648-0.648c-0.432,0-0.72,0.288-0.72,0.648
			C307.368,43.164,307.656,43.452,308.088,43.452z"/>
		<path fill-rule="evenodd" clip-rule="evenodd" stroke="#000000" stroke-width="0.216" stroke-miterlimit="10" d="M307.008,43.02
			c0.432,0,0.72-0.288,0.72-0.648c0-0.432-0.288-0.72-0.72-0.72c-0.36,0-0.648,0.288-0.648,0.72
			C306.36,42.732,306.648,43.02,307.008,43.02z"/>
		<path fill-rule="evenodd" clip-rule="evenodd" stroke="#000000" stroke-width="0.216" stroke-miterlimit="10" d="M305.856,44.316
			c0.36,0,0.72-0.288,0.72-0.648s-0.36-0.648-0.72-0.648s-0.648,0.288-0.648,0.648S305.496,44.316,305.856,44.316z"/>
		<path fill-rule="evenodd" clip-rule="evenodd" stroke="#000000" stroke-width="0.216" stroke-miterlimit="10" d="M306.36,45.612
			c0.36,0,0.648-0.288,0.648-0.648s-0.288-0.648-0.648-0.648s-0.72,0.288-0.72,0.648S306,45.612,306.36,45.612z"/>
		<path fill-rule="evenodd" clip-rule="evenodd" stroke="#000000" stroke-width="0.216" stroke-miterlimit="10" d="M307.224,45.18
			c0.36,0,0.648-0.288,0.648-0.648c0-0.432-0.288-0.72-0.648-0.72c-0.36,0-0.648,0.288-0.648,0.72
			C306.576,44.892,306.864,45.18,307.224,45.18z"/>
		<path fill-rule="evenodd" clip-rule="evenodd" stroke="#000000" stroke-width="0.216" stroke-miterlimit="10" d="M308.16,46.044
			c0.36,0,0.648-0.288,0.648-0.648s-0.288-0.72-0.648-0.72c-0.36,0-0.72,0.36-0.72,0.72S307.8,46.044,308.16,46.044z"/>
		<path fill-rule="evenodd" clip-rule="evenodd" stroke="#000000" stroke-width="0.216" stroke-miterlimit="10" d="M309.024,46.908
			c0.36,0,0.72-0.288,0.72-0.648c0-0.36-0.36-0.72-0.72-0.72s-0.648,0.36-0.648,0.72C308.376,46.62,308.664,46.908,309.024,46.908z"
			/>
		<path fill-rule="evenodd" clip-rule="evenodd" stroke="#000000" stroke-width="0.216" stroke-miterlimit="10" d="M309.96,47.772
			c0.36,0,0.648-0.288,0.648-0.648c0-0.36-0.288-0.72-0.648-0.72s-0.648,0.36-0.648,0.72C309.312,47.484,309.6,47.772,309.96,47.772
			z"/>
		<path fill-rule="evenodd" clip-rule="evenodd" stroke="#000000" stroke-width="0.216" stroke-miterlimit="10" d="M310.824,48.636
			c0.36,0,0.72-0.288,0.72-0.648c0-0.36-0.36-0.648-0.72-0.648c-0.36,0-0.648,0.288-0.648,0.648
			C310.176,48.348,310.464,48.636,310.824,48.636z"/>
		
			<circle fill-rule="evenodd" clip-rule="evenodd" stroke="#000000" stroke-width="0.216" stroke-miterlimit="10" cx="309.672" cy="48.708" r="0.648"/>
		<path fill-rule="evenodd" clip-rule="evenodd" stroke="#000000" stroke-width="0.216" stroke-miterlimit="10" d="M309.24,50.22
			c0.36,0,0.72-0.288,0.72-0.648c0-0.36-0.36-0.648-0.72-0.648c-0.36,0-0.648,0.288-0.648,0.648
			C308.592,49.932,308.88,50.22,309.24,50.22z"/>
		<path fill-rule="evenodd" clip-rule="evenodd" stroke="#000000" stroke-width="0.216" stroke-miterlimit="10" d="M307.944,49.5
			c0.36,0,0.648-0.36,0.648-0.72c0-0.36-0.288-0.648-0.648-0.648s-0.648,0.288-0.648,0.648C307.296,49.14,307.584,49.5,307.944,49.5
			z"/>
		
			<circle fill-rule="evenodd" clip-rule="evenodd" stroke="#000000" stroke-width="0.216" stroke-miterlimit="10" cx="306.648" cy="48.924" r="0.648"/>
		<path fill-rule="evenodd" clip-rule="evenodd" stroke="#000000" stroke-width="0.216" stroke-miterlimit="10" d="M305.352,49.716
			c0.36,0,0.648-0.288,0.648-0.648s-0.288-0.648-0.648-0.648c-0.36,0-0.72,0.288-0.72,0.648S304.992,49.716,305.352,49.716z"/>
		
			<circle fill-rule="evenodd" clip-rule="evenodd" stroke="#000000" stroke-width="0.216" stroke-miterlimit="10" cx="306.072" cy="47.412" r="0.648"/>
		
			<circle fill-rule="evenodd" clip-rule="evenodd" stroke="#000000" stroke-width="0.216" stroke-miterlimit="10" cx="304.632" cy="50.364" r="0.648"/>
		<path fill-rule="evenodd" clip-rule="evenodd" stroke="#000000" stroke-width="0.216" stroke-miterlimit="10" d="M305.352,51.732
			c0.36,0,0.72-0.288,0.72-0.648s-0.36-0.648-0.72-0.648c-0.36,0-0.648,0.288-0.648,0.648S304.992,51.732,305.352,51.732z"/>
		
			<circle fill-rule="evenodd" clip-rule="evenodd" stroke="#000000" stroke-width="0.216" stroke-miterlimit="10" cx="306.144" cy="51.804" r="0.648"/>
		<path fill-rule="evenodd" clip-rule="evenodd" stroke="#000000" stroke-width="0.216" stroke-miterlimit="10" d="M307.944,52.02
			c0.36,0,0.648-0.288,0.648-0.648c0-0.432-0.288-0.72-0.648-0.72s-0.72,0.288-0.72,0.72
			C307.224,51.732,307.584,52.02,307.944,52.02z"/>
		<path fill-rule="evenodd" clip-rule="evenodd" stroke="#000000" stroke-width="0.216" stroke-miterlimit="10" d="M308.52,53.028
			c0.36,0,0.648-0.288,0.648-0.648s-0.288-0.72-0.648-0.72s-0.648,0.36-0.648,0.72S308.16,53.028,308.52,53.028z"/>
		<path fill-rule="evenodd" clip-rule="evenodd" stroke="#000000" stroke-width="0.216" stroke-miterlimit="10" d="M301.896,52.596
			c0.36,0,0.648-0.36,0.648-0.72s-0.288-0.648-0.648-0.648s-0.648,0.288-0.648,0.648S301.536,52.596,301.896,52.596z"/>
		<path fill-rule="evenodd" clip-rule="evenodd" stroke="#000000" stroke-width="0.216" stroke-miterlimit="10" d="M303.408,53.892
			c0.36,0,0.648-0.288,0.648-0.72c0-0.36-0.288-0.648-0.648-0.648c-0.36,0-0.648,0.288-0.648,0.648
			C302.76,53.604,303.048,53.892,303.408,53.892z"/>
		<path fill-rule="evenodd" clip-rule="evenodd" stroke="#000000" stroke-width="0.216" stroke-miterlimit="10" d="M299.736,38.772
			c0.36,0,0.72-0.288,0.72-0.648c0-0.36-0.36-0.648-0.72-0.648c-0.36,0-0.648,0.288-0.648,0.648
			C299.088,38.484,299.376,38.772,299.736,38.772z"/>
		<path fill-rule="evenodd" clip-rule="evenodd" stroke="#000000" stroke-width="0.216" stroke-miterlimit="10" d="M301.752,38.628
			c0.36,0,0.648-0.36,0.648-0.72c0-0.36-0.288-0.648-0.648-0.648s-0.648,0.288-0.648,0.648
			C301.104,38.268,301.392,38.628,301.752,38.628z"/>
		<path fill-rule="evenodd" clip-rule="evenodd" stroke="#000000" stroke-width="0.216" stroke-miterlimit="10" d="M302.688,36.828
			c0.36,0,0.648-0.288,0.648-0.72c0-0.36-0.288-0.648-0.648-0.648c-0.432,0-0.72,0.288-0.72,0.648
			C301.968,36.54,302.256,36.828,302.688,36.828z"/>
		
			<circle fill-rule="evenodd" clip-rule="evenodd" stroke="#000000" stroke-width="0.216" stroke-miterlimit="10" cx="304.128" cy="37.908" r="0.648"/>
		
			<circle fill-rule="evenodd" clip-rule="evenodd" stroke="#000000" stroke-width="0.216" stroke-miterlimit="10" cx="303.264" cy="38.628" r="0.648"/>
		<path fill-rule="evenodd" clip-rule="evenodd" stroke="#000000" stroke-width="0.216" stroke-miterlimit="10" d="M304.488,35.316
			c0.36,0,0.648-0.36,0.648-0.72c0-0.36-0.288-0.648-0.648-0.648c-0.36,0-0.648,0.288-0.648,0.648
			C303.84,34.956,304.128,35.316,304.488,35.316z"/>
		<path fill-rule="evenodd" clip-rule="evenodd" stroke="#000000" stroke-width="0.216" stroke-miterlimit="10" d="M306,36.18
			c0.36,0,0.648-0.36,0.648-0.72s-0.288-0.648-0.648-0.648c-0.432,0-0.72,0.288-0.72,0.648S305.568,36.18,306,36.18z"/>
		
			<circle fill-rule="evenodd" clip-rule="evenodd" stroke="#000000" stroke-width="0.216" stroke-miterlimit="10" cx="306.72" cy="38.124" r="0.648"/>
		<path fill-rule="evenodd" clip-rule="evenodd" stroke="#000000" stroke-width="0.216" stroke-miterlimit="10" d="M308.088,38.484
			c0.36,0,0.648-0.288,0.648-0.648s-0.288-0.72-0.648-0.72s-0.72,0.36-0.72,0.72S307.728,38.484,308.088,38.484z"/>
		<path fill-rule="evenodd" clip-rule="evenodd" stroke="#000000" stroke-width="0.216" stroke-miterlimit="10" d="M310.464,39.06
			c0.36,0,0.648-0.288,0.648-0.648c0-0.432-0.288-0.72-0.648-0.72s-0.72,0.288-0.72,0.72
			C309.744,38.772,310.104,39.06,310.464,39.06z"/>
		
			<circle fill-rule="evenodd" clip-rule="evenodd" stroke="#000000" stroke-width="0.216" stroke-miterlimit="10" cx="310.752" cy="39.708" r="0.648"/>
		
			<circle fill-rule="evenodd" clip-rule="evenodd" stroke="#000000" stroke-width="0.216" stroke-miterlimit="10" cx="310.32" cy="41.004" r="0.648"/>
		<path fill-rule="evenodd" clip-rule="evenodd" stroke="#000000" stroke-width="0.216" stroke-miterlimit="10" d="M310.464,43.236
			c0.36,0,0.72-0.288,0.72-0.648s-0.36-0.648-0.72-0.648s-0.648,0.288-0.648,0.648S310.104,43.236,310.464,43.236z"/>
		<path fill-rule="evenodd" clip-rule="evenodd" stroke="#000000" stroke-width="0.216" stroke-miterlimit="10" d="M310.68,44.892
			c0.36,0,0.648-0.288,0.648-0.648c0-0.432-0.288-0.72-0.648-0.72c-0.36,0-0.72,0.288-0.72,0.72
			C309.96,44.604,310.32,44.892,310.68,44.892z"/>
		<path fill-rule="evenodd" clip-rule="evenodd" stroke="#000000" stroke-width="0.216" stroke-miterlimit="10" d="M312.264,44.244
			c0.36,0,0.72-0.288,0.72-0.648c0-0.36-0.36-0.648-0.72-0.648c-0.36,0-0.648,0.288-0.648,0.648
			C311.616,43.956,311.904,44.244,312.264,44.244z"/>
	</g>
	<text transform="matrix(1 0 0 1 45.5039 138.3481)" font-family="'ArialMT'" font-size="9.936">POSITIVE</text>
	<text transform="matrix(1 0 0 1 279.144 138.3481)" font-family="'ArialMT'" font-size="9.936">NEGATIVE</text>
</g>
</svg>
