<?xml version="1.0" encoding="utf-8"?>
<!-- Generator: Adobe Illustrator 15.0.2, SVG Export Plug-In . SVG Version: 6.00 Build 0)  -->
<!DOCTYPE svg PUBLIC "-//W3C//DTD SVG 1.1//EN" "http://www.w3.org/Graphics/SVG/1.1/DTD/svg11.dtd">
<svg version="1.1" id="Layer_7" xmlns="http://www.w3.org/2000/svg" xmlns:xlink="http://www.w3.org/1999/xlink" x="0px" y="0px"
	 width="285.979px" height="197.854px" viewBox="0 0 285.979 197.854" enable-background="new 0 0 285.979 197.854"
	 xml:space="preserve">
<path fill-rule="evenodd" clip-rule="evenodd" fill="#E6E7E8" stroke="#E6E7E8" stroke-width="0.5" stroke-miterlimit="10" d="
	M208.944,197.602c2.16-24.768,8.856-79.128-7.632-106.272c-8.856-14.616,8.928-78.336,8.928-91.08h-69.984h-16.56H68.4
	c0,12.744,17.784,76.464,8.856,91.08c-16.416,27.144-9.792,81.504-7.632,106.272l59.184-0.504L208.944,197.602z"/>
<g>
	<path fill-rule="evenodd" clip-rule="evenodd" fill="none" stroke="#000000" stroke-width="1.0001" stroke-miterlimit="10" d="
		M210.24,0.25c0,12.744-17.784,76.464-8.928,91.08c16.488,27.144,9.792,81.504,7.632,106.272"/>
	<path fill-rule="evenodd" clip-rule="evenodd" fill="none" stroke="#000000" stroke-width="1.0001" stroke-miterlimit="10" d="
		M68.4,0.25c0,12.744,17.784,76.464,8.856,91.08c-16.416,27.144-9.792,81.504-7.632,106.272"/>
</g>
<path fill-rule="evenodd" clip-rule="evenodd" fill="none" stroke="#000000" stroke-width="0.737" stroke-miterlimit="10" stroke-dasharray="1.474,0.737" d="
	M73.872,27.826c17.928-4.896,43.2-16.272,59.04-26.136l4.968,8.784l8.28-8.28c18.288,13.536,37.8,19.8,58.968,24.84"/>
<g>
	
		<polyline fill-rule="evenodd" clip-rule="evenodd" fill="none" stroke="#000000" stroke-width="1.0001" stroke-miterlimit="10" points="
		94.32,154.978 141.408,188.098 188.136,154.69 	"/>
	
		<line fill-rule="evenodd" clip-rule="evenodd" fill="none" stroke="#000000" stroke-width="1.0001" stroke-miterlimit="10" x1="141.12" y1="187.45" x2="141.12" y2="197.098"/>
</g>
<path fill-rule="evenodd" clip-rule="evenodd" fill="none" stroke="#000000" stroke-width="1.0001" stroke-miterlimit="10" stroke-dasharray="5.0003,3.0002,1.0001,3.0002" d="
	M110.232,166.714l23.976-0.504c1.656,0,4.392,0.936,4.392,3.6v8.856"/>
<path fill-rule="evenodd" clip-rule="evenodd" fill="none" stroke="#000000" stroke-width="1.0001" stroke-miterlimit="10" stroke-dasharray="5.0003,3.0002,1.0001,3.0002" d="
	M169.992,166.714l-23.904-0.504c-1.656,0-4.392,0.936-4.392,3.6v8.856"/>
<path fill-rule="evenodd" clip-rule="evenodd" fill="none" stroke="#000000" stroke-width="0.737" stroke-miterlimit="10" stroke-dasharray="3.685,2.211" d="
	M134.136,166.354c0.864-3.024,3.024-5.472,6.696-5.976c3.024-0.432,5.472,2.16,7.2,6.192"/>
<path fill-rule="evenodd" clip-rule="evenodd" fill="none" stroke="#000000" stroke-width="0.737" stroke-miterlimit="10" stroke-dasharray="3.685,2.211" d="
	M131.904,166.57c-4.248-7.776-4.68-15.624-0.792-23.328c2.808-5.472,6.624-8.496,10.944-8.208c5.328,0.36,10.44,3.24,12.456,10.152
	c2.664,9.504-0.432,16.128-4.968,21.168"/>
<path fill-rule="evenodd" clip-rule="evenodd" fill="none" stroke="#000000" stroke-width="0.737" stroke-miterlimit="10" stroke-dasharray="3.685,2.211" d="
	M128.16,166.354c-4.968-9.648-7.92-19.728-5.976-29.808c2.664-13.608,9.792-19.8,18.648-19.368
	c10.944,0.504,17.856,7.848,19.8,22.32c1.368,10.008-1.44,19.08-7.632,27.072"/>
<path fill-rule="evenodd" clip-rule="evenodd" fill="none" stroke="#000000" stroke-width="0.737" stroke-miterlimit="10" stroke-dasharray="3.685,2.211" d="
	M122.472,166.354c-7.488-11.16-9.144-23.184-5.472-35.568c3.816-13.032,12.168-20.664,23.832-20.808
	c12.672-0.216,21.456,7.704,23.976,24.336c1.872,11.664-1.008,22.248-6.624,32.04"/>
<path fill-rule="evenodd" clip-rule="evenodd" fill="none" stroke="#000000" stroke-width="0.737" stroke-miterlimit="10" stroke-dasharray="3.685,2.211" d="
	M117,166.786c-7.992-12.024-10.872-25.272-6.984-39.168c4.464-15.768,15.48-24.12,30.528-25.128
	c12.384-0.792,21.456,6.336,26.496,18.36c6.48,15.408,4.464,30.96-3.672,45.936"/>
<path fill-rule="evenodd" clip-rule="evenodd" fill="none" stroke="#000000" stroke-width="0.5" stroke-miterlimit="10" d="
	M140.184,113.65c2.16,0,3.888-1.728,3.888-3.816c0-2.088-1.728-3.816-3.888-3.816c-2.088,0-3.816,1.728-3.816,3.816
	C136.368,111.922,138.096,113.65,140.184,113.65z"/>
<line fill-rule="evenodd" clip-rule="evenodd" fill="none" stroke="#000000" stroke-width="0.5" stroke-miterlimit="10" x1="140.544" y1="102.274" x2="249.264" y2="102.274"/>
<line fill-rule="evenodd" clip-rule="evenodd" fill="none" stroke="#000000" stroke-width="0.5" stroke-miterlimit="10" x1="142.056" y1="109.69" x2="248.256" y2="109.69"/>
<line fill-rule="evenodd" clip-rule="evenodd" fill="none" stroke="#000000" stroke-width="0.5" stroke-miterlimit="10" x1="140.04" y1="117.178" x2="248.76" y2="117.178"/>
<line fill-rule="evenodd" clip-rule="evenodd" fill="none" stroke="#000000" stroke-width="0.5" stroke-miterlimit="10" x1="140.544" y1="135.034" x2="248.76" y2="135.034"/>
<line fill-rule="evenodd" clip-rule="evenodd" fill="none" stroke="#000000" stroke-width="0.5" stroke-miterlimit="10" x1="140.544" y1="160.378" x2="248.256" y2="160.378"/>
<line fill-rule="evenodd" clip-rule="evenodd" fill="none" stroke="#000000" stroke-width="0.5" stroke-miterlimit="10" x1="136.584" y1="107.746" x2="45.72" y2="107.746"/>
<text transform="matrix(1 0 0 1 0 110.698)" font-family="'ArialMT'" font-size="9.936">Umbilicus</text>
<text transform="matrix(1 0 0 1 252.2158 103.282)" font-family="'ArialMT'" font-size="7.992">24 weeks</text>
<text transform="matrix(1 0 0 1 252.2158 112.2102)" font-family="'ArialMT'" font-size="7.992">22 weeks</text>
<text transform="matrix(1 0 0 1 252.2158 121.6418)" font-family="'ArialMT'" font-size="7.992">20 weeks</text>
<text transform="matrix(1 0 0 1 252.2158 137.05)" font-family="'ArialMT'" font-size="7.992">16 weeks</text>
<text transform="matrix(1 0 0 1 252.2158 162.8259)" font-family="'ArialMT'" font-size="7.992">12 weeks</text>
</svg>
