<?xml version="1.0" encoding="utf-8"?>
<!-- Generator: Adobe Illustrator 15.0.2, SVG Export Plug-In . SVG Version: 6.00 Build 0)  -->
<!DOCTYPE svg PUBLIC "-//W3C//DTD SVG 1.1//EN" "http://www.w3.org/Graphics/SVG/1.1/DTD/svg11.dtd">
<svg version="1.1" id="Layer_7" xmlns="http://www.w3.org/2000/svg" xmlns:xlink="http://www.w3.org/1999/xlink" x="0px" y="0px"
	 width="332.415px" height="197.854px" viewBox="145.339 171.862 332.415 197.854"
	 enable-background="new 145.339 171.862 332.415 197.854" xml:space="preserve">
<path fill="#E6E7E8" stroke="#E6E7E8" stroke-width="0.5" stroke-miterlimit="10" d="M348.111,369.464
	c2.16-24.769,8.856-79.128-7.631-106.272c-8.856-14.615,8.928-78.336,8.928-91.08h-69.984h-16.56h-55.296
	c0,12.744,17.784,76.465,8.856,91.08c-16.416,27.145-9.792,81.504-7.632,106.272l59.184-0.504L348.111,369.464z"/>
<g>
	<path fill="none" stroke="#000000" stroke-width="1.0001" stroke-miterlimit="10" d="M349.408,172.112
		c0,12.744-17.784,76.465-8.928,91.08c16.487,27.145,9.791,81.504,7.631,106.272"/>
	<path fill="none" stroke="#000000" stroke-width="1.0001" stroke-miterlimit="10" d="M207.568,172.112
		c0,12.744,17.784,76.465,8.856,91.08c-16.416,27.145-9.792,81.504-7.632,106.272"/>
</g>
<path fill="none" stroke="#000000" stroke-width="0.5" stroke-miterlimit="10" d="M175.384,199.04c0-0.721,0.216-6.192-0.792-6.192
	c-11.16,0-8.856,20.808-8.856,29.521c0,4.68-2.088,8.64-2.088,13.607c0,2.952,6.408,1.944,6.408-3.023"/>
<path fill="#D1D3D4" stroke="#000000" stroke-width="0.5" stroke-miterlimit="10" d="M167.464,198.32
	c10.368,1.584,31.32,7.92,37.368,3.456c11.232-8.424,32.04-5.615,47.088-5.615c4.824,0,9.864-0.721,14.76-0.721
	c4.536,0,9.36,0,14.184,0c1.8,0,3.816,1.008,3.816,2.809c0,2.735-1.224,3.815-4.32,3.815c-2.016,0-16.776,0.504-16.776,0.504
	c-0.216,0.217-4.536,0.721-5.616,1.009c-1.008,0.216-2.736,1.224-4.32,1.224c-1.728,0-1.512,1.296-1.512,2.304
	c8.424,1.296,18.288,0.792,27,0.792c3.024,0,13.68-0.792,15.192,0.721c3.096,3.096-0.216,6.911-3.816,6.911
	c-7.344,0-16.776,2.017-25.128,2.017c-3.096,0-6.336,1.296-9.648,1.296c-0.792,0-2.808,2.52-1.008,2.52h2.016
	c0.504,0,1.8,0.217,1.8,0.217l23.328,0.287c3.816,0,16.991-1.008,18.792,1.513c6.84,10.151-14.688,8.136-19.512,8.136
	c-3.816,0-24.912-1.008-24.912,1.512c1.512,2.088,15.48,2.305,18.576,2.305c4.824,0,10.152,0.504,15.192,0.504
	c2.592,0,6.12,0.504,6.12,3.312c0,6.624-4.032,4.32-9.648,4.32c-5.616,0-11.448-0.216-17.064-0.216
	c-10.656-1.296-27.936-1.801-35.568,2.016c-1.008,0.504,2.016,3.313,2.016,3.313c3.816,3.815,4.104,11.159,4.104,18.287
	c0,5.112-1.512,11.952-7.416,11.952c-4.68,0,0.792-18.288-8.352-21.888c-4.248-1.656-7.632-4.32-12.24-5.832
	c-2.304-0.792-11.664-9.144-11.952-9.144c0-2.305-4.32-3.313-6.048-4.104c-2.304-0.936-8.136-1.008-10.728-2.231
	c-4.176-2.017-12.168-3.744-18.792-4.32c0.576-2.736,1.296-5.328,1.296-8.136C165.736,217.04,164.656,205.232,167.464,198.32z"/>
<path fill="none" stroke="#000000" stroke-width="0.5" stroke-miterlimit="10" d="M282.952,196.448c-0.288,0-1.296,0-1.584,0h-0.72
	h-0.504h-0.504h-0.504h-0.576h-0.504l-0.504,0.36l-0.216,0.792l-0.288,0.36v0.359v0.36v0.432v0.36v0.36h0.288v0.359h0.216
	l0.288,0.433h0.504c0.216,0,0.792,0,1.008,0h0.792h0.72h0.504h0.288h0.504h0.216c0.288,0,1.08,0,1.296,0"/>
<path fill="none" stroke="#000000" stroke-width="0.5" stroke-miterlimit="10" d="M294.328,209.408c-0.504,0-1.224,0-1.728,0h-0.792
	c-0.216,0-0.504,0-0.72,0h-0.576c-0.216,0-0.504,0.216-0.504,0.216h-0.504H289c-0.216,0-0.216,0.792-0.216,1.08l-0.288,0.216v0.504
	v0.288l-0.216,0.216v0.288v0.216v0.288v0.216v0.288v0.216v0.288h0.216l0.288,0.216c0.216,0.288,0.72,0,1.008,0
	c0.216,0,0.72,0,1.008,0c0.288,0,0.792,0,1.008,0h0.504h0.504h0.288h0.216h0.288c0.216,0,1.008,0,1.296,0"/>
<path fill="none" stroke="#000000" stroke-width="0.5" stroke-miterlimit="10" d="M300.664,223.376
	c-0.792,0-1.296,0.288-2.088,0.288c-0.145,0-0.648,0-0.936,0c-0.216,0-0.504,0.216-1.008,0.216h-0.72h-0.792
	c-0.504,0-0.216,0-0.504,0.288l-0.504,0.216l-0.288,0.288v0.504l-0.216,0.216v0.504v0.576v0.504l0.216,0.504h0.504v0.216h0.288
	v0.288h0.288l0.216,0.217h0.288h0.216h0.288v0.287h0.504h0.216c0.288,0,0.792,0,1.008,0c0.288,0,0.792,0,0.936,0h0.792h0.504h0.288
	h0.216h0.288c0.216,0,1.008,0,1.225,0"/>
<path fill="none" stroke="#000000" stroke-width="0.5" stroke-miterlimit="10" d="M295.624,237.632c-0.504,0-1.296,0-1.8,0h-0.72
	h-0.792c-0.504,0-0.216,0-0.504-0.288h-0.72h-0.576h-0.504h-0.504l-0.216,0.288L289,238.28v0.576v0.576v0.288v0.288v0.288v0.288
	v0.288h0.288v0.359h0.216l0.288,0.288h0.216h0.504h0.288c0.288,0,0.792,0.288,1.296,0.288c0.504,0,0.72,0.288,1.008,0.288h0.72
	l0.504,0.288h0.288h0.288h0.216c0.288,0,0.792,0,1.008,0"/>
<path fill="none" stroke="#000000" stroke-width="0.5" stroke-miterlimit="10" d="M230.32,269.096c0.288,0,1.008,0,1.296,0
	l0.504,0.288l0.288,0.216v0.504l0.216,0.288l0.288,0.216v0.504l0.216,0.288v0.217h0.288v0.287v0.217v0.288v0.216v0.288v0.288v0.216
	v0.288v0.216c0,0.288,0,0.792,0,1.008v0.792v0.72v0.576v0.216v0.288v0.504c0,0.216-0.504,0.504-0.504,0.721"/>
<polygon fill="#FFFFFF" stroke="#000000" stroke-width="0.5" stroke-miterlimit="10" points="172.432,198.248 182.872,199.904 
	177.256,235.112 166.816,233.384 "/>
<path fill="#939598" stroke="#000000" stroke-width="0.5" stroke-miterlimit="10" d="M175.6,221.36c3.672,0,6.624-2.951,6.624-6.624
	c0-3.6-2.952-6.624-6.624-6.624c-3.6,0-6.624,3.024-6.624,6.624C168.976,218.408,172,221.36,175.6,221.36z"/>
<path fill="#FFFFFF" stroke="#000000" stroke-width="0.216" stroke-miterlimit="10" d="M175.6,219.848
	c2.808,0,5.112-2.304,5.112-5.112c0-2.808-2.304-5.111-5.112-5.111s-5.112,2.304-5.112,5.111
	C170.488,217.544,172.792,219.848,175.6,219.848z"/>
<path fill="none" stroke="#000000" stroke-width="0.5" stroke-miterlimit="10" d="M145.36,233.312
	c6.12-0.504,12.24,0.792,18.36,2.88c0.216-4.68,2.016-8.496,2.016-13.031c0-8.641-2.16-29.017,7.848-30.24l-18.576-4.896"/>
<path fill="none" stroke="#000000" stroke-width="0.737" stroke-miterlimit="10" stroke-dasharray="1.474,0.737" d="
	M221.464,195.656c17.928-4.896,34.776-12.239,50.616-22.104l4.968,8.784l8.28-8.28c18.288,13.536,37.8,19.8,58.968,24.84"/>
<polygon stroke="#000000" stroke-width="0.1281" stroke-linecap="round" stroke-linejoin="round" stroke-miterlimit="10" points="
	275.032,202.496 275.032,220.28 273.16,217.112 268.768,217.184 276.904,231.224 285.04,217.184 280.576,217.112 278.776,220.28 
	278.776,202.496 "/>
<g>
	<polyline fill="none" stroke="#000000" stroke-width="1.0001" stroke-miterlimit="10" points="233.488,326.84 280.576,359.96 
		327.305,326.552 	"/>
	
		<line fill="none" stroke="#000000" stroke-width="1.0001" stroke-miterlimit="10" x1="280.288" y1="359.312" x2="280.288" y2="368.96"/>
</g>
<path fill="none" stroke="#000000" stroke-width="1.0001" stroke-miterlimit="10" stroke-dasharray="5.0003,3.0002,1.0001,3.0002" d="
	M249.4,338.575l23.976-0.504c1.656,0,4.392,0.937,4.392,3.601v8.855"/>
<path fill="none" stroke="#000000" stroke-width="1.0001" stroke-miterlimit="10" stroke-dasharray="5.0003,3.0002,1.0001,3.0002" d="
	M309.16,338.575l-23.904-0.504c-1.656,0-4.392,0.937-4.392,3.601v8.855"/>
<path fill="none" stroke="#000000" stroke-width="1.0001" stroke-miterlimit="10" stroke-dasharray="5.0003,3.0002,1.0001,3.0002" d="
	M252.496,338.072c-5.4-15.12-16.632-29.376-16.2-45.504c0.648-22.968,16.128-47.376,41.472-47.735
	c26.568-0.288,39.816,23.76,39.24,43.704c-0.576,16.991-7.488,33.264-11.232,49.896"/>
<g>
	<path d="M377.496,215.024v-7.111h0.941v6.272h3.502v0.839H377.496z"/>
	<path d="M382.624,212.448c0-0.953,0.265-1.66,0.795-2.119c0.442-0.383,0.983-0.572,1.621-0.572c0.708,0,1.287,0.231,1.737,0.696
		c0.449,0.464,0.674,1.104,0.674,1.924c0,0.663-0.1,1.185-0.299,1.563c-0.198,0.38-0.487,0.675-0.868,0.887
		c-0.38,0.21-0.794,0.314-1.244,0.314c-0.722,0-1.304-0.23-1.749-0.693C382.846,213.984,382.624,213.318,382.624,212.448z
		 M383.521,212.448c0,0.66,0.144,1.154,0.432,1.482c0.288,0.329,0.65,0.493,1.087,0.493c0.433,0,0.794-0.165,1.082-0.495
		s0.433-0.833,0.433-1.509c0-0.638-0.146-1.12-0.435-1.448c-0.29-0.328-0.649-0.492-1.08-0.492c-0.437,0-0.799,0.164-1.087,0.49
		C383.666,211.295,383.521,211.788,383.521,212.448z"/>
	<path d="M389.426,215.024l-1.576-5.151h0.901l0.819,2.974l0.307,1.106c0.014-0.056,0.102-0.409,0.268-1.063l0.819-3.018h0.897
		l0.771,2.988l0.257,0.985l0.297-0.995l0.883-2.979h0.849l-1.61,5.151H392.4l-0.82-3.085l-0.199-0.878l-1.043,3.964H389.426z"/>
	<path d="M399.177,213.365l0.902,0.111c-0.142,0.527-0.406,0.938-0.791,1.229c-0.386,0.291-0.876,0.437-1.476,0.437
		c-0.752,0-1.351-0.231-1.791-0.696c-0.441-0.464-0.662-1.114-0.662-1.952c0-0.867,0.223-1.54,0.668-2.019
		c0.447-0.478,1.025-0.718,1.738-0.718c0.688,0,1.25,0.233,1.688,0.703c0.438,0.469,0.654,1.129,0.654,1.979
		c0,0.052,0,0.129-0.004,0.233h-3.842c0.031,0.565,0.191,1,0.479,1.3c0.288,0.301,0.647,0.451,1.077,0.451
		c0.32,0,0.594-0.084,0.82-0.252S399.045,213.733,399.177,213.365z M396.311,211.953h2.877c-0.039-0.435-0.149-0.76-0.33-0.977
		c-0.278-0.336-0.64-0.504-1.082-0.504c-0.401,0-0.738,0.134-1.012,0.403C396.489,211.145,396.339,211.503,396.311,211.953z"/>
	<path d="M401.167,215.024v-5.151h0.786v0.78c0.199-0.365,0.386-0.605,0.555-0.723c0.17-0.116,0.357-0.174,0.561-0.174
		c0.295,0,0.594,0.094,0.897,0.281l-0.301,0.81c-0.213-0.126-0.427-0.188-0.64-0.188c-0.191,0-0.362,0.057-0.516,0.172
		c-0.152,0.114-0.26,0.273-0.324,0.478c-0.098,0.312-0.146,0.65-0.146,1.02v2.696H401.167L401.167,215.024z"/>
	<path d="M410.771,213.365l0.902,0.111c-0.142,0.527-0.406,0.938-0.791,1.229s-0.876,0.437-1.475,0.437
		c-0.753,0-1.352-0.231-1.792-0.696c-0.441-0.464-0.662-1.114-0.662-1.952c0-0.867,0.224-1.54,0.669-2.019
		c0.445-0.478,1.025-0.718,1.736-0.718c0.689,0,1.252,0.233,1.688,0.703c0.437,0.469,0.655,1.129,0.655,1.979
		c0,0.052-0.001,0.129-0.005,0.233h-3.843c0.033,0.565,0.192,1,0.48,1.3c0.288,0.301,0.646,0.451,1.077,0.451
		c0.319,0,0.594-0.084,0.819-0.252C410.46,214.002,410.641,213.733,410.771,213.365z M407.904,211.953h2.878
		c-0.039-0.435-0.149-0.76-0.33-0.977c-0.278-0.336-0.64-0.504-1.082-0.504c-0.401,0-0.738,0.134-1.013,0.403
		C408.084,211.145,407.936,211.503,407.904,211.953z"/>
	<path d="M416.114,215.024v-0.649c-0.327,0.511-0.808,0.766-1.441,0.766c-0.411,0-0.789-0.113-1.133-0.339
		c-0.345-0.227-0.61-0.542-0.801-0.949c-0.189-0.406-0.284-0.872-0.284-1.398c0-0.515,0.086-0.981,0.257-1.4
		c0.171-0.418,0.429-0.74,0.771-0.963c0.344-0.223,0.727-0.334,1.149-0.334c0.312,0,0.587,0.064,0.83,0.196
		c0.243,0.131,0.44,0.302,0.593,0.512v-2.552h0.867v7.111H416.114z M413.354,212.453c0,0.659,0.14,1.152,0.418,1.479
		c0.277,0.327,0.605,0.49,0.984,0.49c0.381,0,0.706-0.156,0.973-0.468c0.268-0.313,0.4-0.788,0.4-1.43
		c0-0.705-0.136-1.223-0.408-1.553c-0.271-0.33-0.605-0.495-1.004-0.495c-0.388,0-0.712,0.159-0.973,0.477
		C413.482,211.27,413.354,211.77,413.354,212.453z"/>
	<path d="M418.137,215.451l0.85,0.126c0.035,0.262,0.134,0.452,0.296,0.571c0.217,0.162,0.513,0.243,0.888,0.243
		c0.404,0,0.716-0.081,0.938-0.243c0.22-0.162,0.368-0.388,0.445-0.679c0.045-0.178,0.066-0.551,0.063-1.121
		c-0.381,0.45-0.857,0.674-1.427,0.674c-0.707,0-1.256-0.255-1.645-0.767c-0.388-0.511-0.583-1.124-0.583-1.839
		c0-0.491,0.089-0.945,0.267-1.361c0.179-0.416,0.437-0.736,0.774-0.963s0.735-0.339,1.19-0.339c0.608,0,1.109,0.246,1.505,0.737
		v-0.621h0.806v4.454c0,0.802-0.082,1.37-0.245,1.705c-0.164,0.334-0.422,0.6-0.775,0.793c-0.354,0.194-0.79,0.291-1.309,0.291
		c-0.614,0-1.11-0.138-1.489-0.414C418.309,216.422,418.125,216.007,418.137,215.451z M418.859,212.355
		c0,0.676,0.135,1.169,0.402,1.48c0.268,0.311,0.605,0.466,1.01,0.466c0.4,0,0.736-0.155,1.009-0.463
		c0.271-0.31,0.407-0.793,0.407-1.453c0-0.631-0.141-1.106-0.42-1.426c-0.279-0.32-0.617-0.48-1.012-0.48
		c-0.388,0-0.718,0.158-0.99,0.474C418.996,211.267,418.859,211.734,418.859,212.355z"/>
	<path d="M427.351,213.365l0.902,0.111c-0.143,0.527-0.406,0.938-0.791,1.229s-0.876,0.437-1.475,0.437
		c-0.754,0-1.353-0.231-1.793-0.696c-0.441-0.464-0.662-1.114-0.662-1.952c0-0.867,0.223-1.54,0.669-2.019
		c0.446-0.478,1.025-0.718,1.737-0.718c0.688,0,1.252,0.233,1.688,0.703c0.438,0.469,0.655,1.129,0.655,1.979
		c0,0.052-0.001,0.129-0.005,0.233h-3.843c0.032,0.565,0.192,1,0.48,1.3c0.288,0.301,0.646,0.451,1.077,0.451
		c0.319,0,0.593-0.084,0.819-0.252C427.038,214.002,427.218,213.733,427.351,213.365z M424.483,211.953h2.877
		c-0.039-0.435-0.149-0.76-0.33-0.977c-0.278-0.336-0.64-0.504-1.082-0.504c-0.401,0-0.738,0.134-1.013,0.403
		C424.664,211.145,424.512,211.503,424.483,211.953z"/>
	<path d="M431.785,212.448c0-0.953,0.265-1.66,0.796-2.119c0.443-0.383,0.983-0.572,1.62-0.572c0.708,0,1.288,0.231,1.736,0.696
		c0.45,0.464,0.675,1.104,0.675,1.924c0,0.663-0.1,1.185-0.298,1.563c-0.199,0.38-0.488,0.675-0.868,0.887
		c-0.38,0.21-0.795,0.314-1.245,0.314c-0.721,0-1.305-0.23-1.749-0.693C432.007,213.984,431.785,213.318,431.785,212.448z
		 M432.682,212.448c0,0.66,0.145,1.154,0.433,1.482c0.288,0.329,0.649,0.493,1.086,0.493c0.434,0,0.794-0.165,1.082-0.495
		s0.432-0.833,0.432-1.509c0-0.638-0.145-1.12-0.434-1.448c-0.29-0.328-0.649-0.492-1.08-0.492c-0.438,0-0.799,0.164-1.086,0.49
		C432.826,211.295,432.682,211.788,432.682,212.448z"/>
	<path d="M437.844,215.024v-4.473h-0.771v-0.679h0.771v-0.549c0-0.346,0.031-0.603,0.092-0.771c0.084-0.226,0.232-0.41,0.444-0.55
		c0.212-0.142,0.509-0.211,0.89-0.211c0.246,0,0.519,0.028,0.815,0.087l-0.131,0.762c-0.181-0.032-0.354-0.048-0.514-0.048
		c-0.266,0-0.453,0.057-0.563,0.17s-0.165,0.325-0.165,0.635v0.477h1.004v0.679h-1.004v4.473h-0.868V215.024z"/>
	<path d="M442.808,213.486l0.863-0.136c0.049,0.346,0.185,0.611,0.405,0.796c0.222,0.185,0.531,0.276,0.929,0.276
		c0.401,0,0.698-0.082,0.894-0.245c0.193-0.163,0.291-0.355,0.291-0.575c0-0.197-0.086-0.353-0.258-0.466
		c-0.119-0.078-0.417-0.176-0.893-0.296c-0.64-0.162-1.084-0.302-1.332-0.42s-0.436-0.281-0.563-0.49
		c-0.129-0.209-0.191-0.438-0.191-0.691c0-0.229,0.052-0.441,0.158-0.638c0.104-0.195,0.248-0.357,0.429-0.487
		c0.136-0.1,0.321-0.185,0.556-0.255c0.234-0.068,0.486-0.104,0.754-0.104c0.404,0,0.76,0.058,1.065,0.174
		c0.306,0.117,0.531,0.274,0.677,0.473c0.146,0.199,0.246,0.466,0.301,0.799l-0.854,0.116c-0.039-0.265-0.151-0.472-0.337-0.621
		c-0.187-0.148-0.449-0.223-0.788-0.223c-0.401,0-0.688,0.066-0.859,0.199s-0.257,0.288-0.257,0.466
		c0,0.113,0.035,0.215,0.106,0.306c0.07,0.095,0.183,0.171,0.335,0.233c0.087,0.032,0.344,0.107,0.771,0.223
		c0.618,0.165,1.048,0.301,1.293,0.405c0.244,0.105,0.437,0.258,0.575,0.458s0.208,0.45,0.208,0.747
		c0,0.291-0.085,0.565-0.254,0.822c-0.17,0.257-0.415,0.456-0.735,0.597c-0.319,0.141-0.682,0.211-1.086,0.211
		c-0.67,0-1.18-0.139-1.53-0.417C443.128,214.445,442.904,214.033,442.808,213.486z"/>
	<path d="M450.031,214.243l0.126,0.771c-0.246,0.052-0.466,0.078-0.66,0.078c-0.317,0-0.563-0.05-0.737-0.15
		c-0.174-0.1-0.297-0.231-0.369-0.396c-0.07-0.163-0.106-0.507-0.106-1.031v-2.964h-0.64v-0.679h0.64v-1.276l0.869-0.524v1.801
		h0.878v0.679h-0.878v3.013c0,0.249,0.015,0.409,0.046,0.48c0.031,0.07,0.081,0.128,0.149,0.17c0.07,0.042,0.169,0.063,0.298,0.063
		C449.745,214.277,449.873,214.266,450.031,214.243z"/>
	<path d="M454.413,213.365l0.902,0.111c-0.144,0.527-0.406,0.938-0.791,1.229c-0.386,0.291-0.876,0.437-1.476,0.437
		c-0.754,0-1.352-0.231-1.793-0.696c-0.44-0.464-0.662-1.114-0.662-1.952c0-0.867,0.224-1.54,0.669-2.019
		c0.446-0.478,1.025-0.718,1.737-0.718c0.689,0,1.252,0.233,1.688,0.703c0.438,0.469,0.655,1.129,0.655,1.979
		c0,0.052-0.001,0.129-0.005,0.233h-3.842c0.032,0.565,0.191,1,0.479,1.3c0.288,0.301,0.646,0.451,1.077,0.451
		c0.32,0,0.594-0.084,0.82-0.252S454.28,213.733,454.413,213.365z M451.545,211.953h2.877c-0.039-0.435-0.147-0.76-0.33-0.977
		c-0.277-0.336-0.639-0.504-1.082-0.504c-0.4,0-0.737,0.134-1.012,0.403C451.726,211.145,451.574,211.503,451.545,211.953z"/>
	<path d="M456.401,215.024v-5.151h0.786v0.78c0.2-0.365,0.386-0.605,0.556-0.723c0.169-0.116,0.355-0.174,0.56-0.174
		c0.294,0,0.594,0.094,0.897,0.281l-0.301,0.81c-0.214-0.126-0.428-0.188-0.641-0.188c-0.19,0-0.362,0.057-0.514,0.172
		c-0.152,0.114-0.261,0.273-0.325,0.478c-0.097,0.312-0.146,0.65-0.146,1.02v2.696H456.401L456.401,215.024z"/>
	<path d="M459.72,215.024v-5.151h0.786v0.731c0.378-0.565,0.925-0.849,1.641-0.849c0.31,0,0.596,0.056,0.855,0.167
		c0.26,0.112,0.455,0.258,0.585,0.438c0.129,0.182,0.22,0.396,0.271,0.646c0.031,0.162,0.048,0.445,0.048,0.849v3.168h-0.873v-3.134
		c0-0.354-0.034-0.622-0.103-0.798c-0.067-0.176-0.188-0.317-0.36-0.422c-0.173-0.105-0.376-0.157-0.609-0.157
		c-0.372,0-0.693,0.118-0.963,0.354c-0.27,0.235-0.405,0.684-0.405,1.344v2.813H459.72z"/>
	<path d="M468.623,215.024v-0.757c-0.401,0.582-0.946,0.873-1.635,0.873c-0.305,0-0.588-0.058-0.853-0.174
		c-0.264-0.117-0.459-0.263-0.587-0.439c-0.128-0.176-0.218-0.393-0.27-0.647c-0.036-0.171-0.054-0.443-0.054-0.815v-3.191h0.873
		v2.856c0,0.456,0.019,0.765,0.055,0.922c0.055,0.23,0.171,0.41,0.349,0.541s0.398,0.196,0.66,0.196s0.508-0.067,0.738-0.201
		c0.229-0.134,0.392-0.316,0.486-0.548c0.096-0.23,0.144-0.567,0.144-1.006v-2.761h0.874v5.151H468.623z"/>
	<path d="M470.771,215.024v-5.151h0.781v0.723c0.162-0.252,0.377-0.455,0.646-0.609c0.269-0.152,0.574-0.229,0.917-0.229
		c0.381,0,0.693,0.079,0.938,0.237s0.417,0.38,0.518,0.665c0.407-0.603,0.938-0.902,1.591-0.902c0.511,0,0.904,0.141,1.179,0.424
		c0.275,0.283,0.413,0.719,0.413,1.308v3.537h-0.869v-3.246c0-0.35-0.027-0.601-0.085-0.754c-0.057-0.153-0.159-0.276-0.308-0.371
		c-0.149-0.094-0.323-0.141-0.524-0.141c-0.362,0-0.663,0.12-0.901,0.361c-0.239,0.24-0.359,0.626-0.359,1.156v2.994h-0.874v-3.348
		c0-0.388-0.071-0.679-0.213-0.873c-0.143-0.194-0.375-0.291-0.699-0.291c-0.246,0-0.473,0.064-0.682,0.194
		c-0.208,0.129-0.36,0.317-0.454,0.566c-0.094,0.25-0.142,0.608-0.142,1.077v2.673H470.771z"/>
</g>
<g>
	<path d="M377.496,241.232v-7.111h0.941v6.272h3.502v0.839H377.496z"/>
	<path d="M386.477,239.573l0.901,0.111c-0.144,0.527-0.405,0.938-0.791,1.229c-0.385,0.291-0.876,0.437-1.476,0.437
		c-0.754,0-1.35-0.231-1.791-0.696c-0.442-0.464-0.663-1.114-0.663-1.952c0-0.867,0.223-1.54,0.669-2.019
		c0.447-0.479,1.025-0.718,1.736-0.718c0.688,0,1.252,0.233,1.688,0.703c0.437,0.469,0.655,1.129,0.655,1.979
		c0,0.052-0.002,0.129-0.006,0.233h-3.842c0.032,0.565,0.191,1,0.479,1.3s0.647,0.451,1.077,0.451c0.32,0,0.593-0.084,0.82-0.252
		C386.164,240.21,386.343,239.941,386.477,239.573z M383.609,238.161h2.877c-0.039-0.435-0.149-0.76-0.33-0.977
		c-0.278-0.336-0.639-0.504-1.082-0.504c-0.401,0-0.738,0.134-1.012,0.403C383.789,237.353,383.639,237.711,383.609,238.161z"/>
	<path d="M388.684,241.232v-4.473h-0.771v-0.679h0.771v-0.549c0-0.346,0.031-0.603,0.092-0.771c0.084-0.226,0.232-0.41,0.445-0.55
		c0.211-0.142,0.508-0.211,0.889-0.211c0.246,0,0.519,0.028,0.815,0.087l-0.131,0.762c-0.181-0.032-0.353-0.048-0.515-0.048
		c-0.264,0-0.452,0.057-0.563,0.17c-0.109,0.113-0.165,0.325-0.165,0.635v0.477h1.005v0.679h-1.005v4.473h-0.868V241.232z"/>
	<path d="M393.143,240.451l0.125,0.771c-0.246,0.052-0.466,0.078-0.66,0.078c-0.316,0-0.563-0.05-0.736-0.15
		c-0.176-0.1-0.298-0.231-0.369-0.396c-0.07-0.163-0.107-0.507-0.107-1.031v-2.964h-0.641v-0.679h0.641v-1.276l0.869-0.524v1.801
		h0.879v0.679h-0.879v3.013c0,0.249,0.016,0.409,0.047,0.48c0.03,0.07,0.08,0.128,0.149,0.17s0.169,0.063,0.298,0.063
		C392.855,240.485,392.982,240.474,393.143,240.451z"/>
	<path d="M396.756,241.232v-7.111h0.874v2.552c0.407-0.472,0.922-0.708,1.542-0.708c0.383,0,0.713,0.075,0.995,0.226
		s0.483,0.358,0.604,0.623c0.121,0.267,0.182,0.65,0.182,1.155v3.265h-0.874v-3.265c0-0.438-0.095-0.754-0.284-0.953
		s-0.457-0.298-0.803-0.298c-0.26,0-0.502,0.067-0.73,0.201c-0.228,0.134-0.39,0.315-0.486,0.546
		c-0.098,0.229-0.146,0.546-0.146,0.951v2.818h-0.873V241.232z"/>
	<path d="M405.645,240.596c-0.322,0.275-0.635,0.469-0.934,0.583c-0.299,0.113-0.62,0.169-0.963,0.169
		c-0.566,0-1.001-0.138-1.305-0.415c-0.305-0.275-0.457-0.63-0.457-1.06c0-0.252,0.059-0.483,0.173-0.691s0.265-0.376,0.45-0.502
		c0.187-0.126,0.396-0.222,0.629-0.287c0.171-0.045,0.43-0.089,0.775-0.131c0.705-0.084,1.225-0.184,1.559-0.301
		c0.003-0.12,0.005-0.196,0.005-0.229c0-0.354-0.083-0.605-0.248-0.752c-0.224-0.196-0.556-0.296-0.995-0.296
		c-0.411,0-0.714,0.072-0.91,0.216c-0.195,0.145-0.34,0.399-0.434,0.765l-0.854-0.116c0.077-0.366,0.205-0.661,0.383-0.886
		c0.178-0.226,0.435-0.397,0.771-0.52c0.336-0.121,0.726-0.182,1.169-0.182c0.439,0,0.797,0.052,1.072,0.155
		s0.477,0.233,0.605,0.391s0.221,0.354,0.272,0.594c0.028,0.149,0.043,0.417,0.043,0.807v1.163c0,0.813,0.019,1.326,0.056,1.541
		c0.037,0.216,0.11,0.422,0.221,0.619h-0.912C405.729,241.051,405.67,240.839,405.645,240.596z M405.572,238.646
		c-0.317,0.129-0.793,0.239-1.426,0.33c-0.359,0.052-0.613,0.11-0.763,0.174c-0.149,0.065-0.264,0.16-0.345,0.284
		c-0.081,0.125-0.121,0.263-0.121,0.415c0,0.233,0.088,0.427,0.264,0.583s0.436,0.232,0.774,0.232c0.336,0,0.636-0.073,0.897-0.222
		c0.262-0.146,0.455-0.348,0.578-0.604c0.094-0.197,0.141-0.488,0.141-0.873V238.646z"/>
	<path d="M407.809,241.232v-5.151h0.785v0.731c0.379-0.565,0.926-0.849,1.641-0.849c0.311,0,0.596,0.056,0.855,0.167
		c0.26,0.112,0.455,0.258,0.584,0.438c0.129,0.182,0.221,0.396,0.272,0.646c0.032,0.162,0.048,0.445,0.048,0.849v3.168h-0.873
		v-3.134c0-0.354-0.034-0.622-0.102-0.798c-0.068-0.176-0.188-0.317-0.361-0.422c-0.174-0.105-0.376-0.157-0.609-0.157
		c-0.371,0-0.693,0.118-0.963,0.354c-0.271,0.235-0.404,0.684-0.404,1.344v2.813H407.809z"/>
	<path d="M416.677,241.232v-0.649c-0.327,0.511-0.807,0.766-1.44,0.766c-0.411,0-0.788-0.113-1.133-0.339
		c-0.345-0.227-0.611-0.542-0.801-0.949c-0.188-0.406-0.283-0.872-0.283-1.398c0-0.515,0.084-0.981,0.256-1.4
		c0.172-0.418,0.43-0.74,0.771-0.963s0.727-0.334,1.15-0.334c0.311,0,0.587,0.064,0.83,0.196c0.242,0.131,0.439,0.302,0.592,0.512
		v-2.552h0.869v7.111H416.677z M413.917,238.661c0,0.659,0.14,1.152,0.417,1.479c0.277,0.327,0.605,0.49,0.984,0.49
		c0.383,0,0.707-0.156,0.974-0.468c0.267-0.313,0.399-0.788,0.399-1.43c0-0.705-0.135-1.223-0.406-1.553
		c-0.272-0.33-0.606-0.495-1.004-0.495c-0.389,0-0.713,0.159-0.973,0.477C414.046,237.479,413.917,237.978,413.917,238.661z"/>
</g>
<g>
	<path d="M382.202,276.672h0.94v4.108c0,0.716-0.08,1.282-0.242,1.703s-0.455,0.764-0.875,1.026
		c-0.422,0.264-0.977,0.395-1.662,0.395c-0.668,0-1.211-0.114-1.635-0.344c-0.424-0.229-0.727-0.562-0.908-0.997
		c-0.18-0.435-0.271-1.028-0.271-1.783v-4.108h0.941v4.104c0,0.618,0.058,1.073,0.172,1.366c0.114,0.292,0.312,0.519,0.592,0.677
		s0.622,0.238,1.026,0.238c0.691,0,1.185-0.157,1.479-0.471c0.295-0.314,0.441-0.917,0.441-1.811L382.202,276.672L382.202,276.672z"
		/>
	<path d="M386.505,283.003l0.126,0.771c-0.246,0.053-0.466,0.078-0.66,0.078c-0.316,0-0.563-0.05-0.738-0.149
		c-0.174-0.101-0.297-0.232-0.368-0.396c-0.071-0.163-0.106-0.507-0.106-1.031v-2.964h-0.641v-0.679h0.641v-1.276l0.868-0.523v1.8
		h0.878v0.679h-0.878v3.014c0,0.248,0.015,0.408,0.046,0.479c0.03,0.071,0.081,0.128,0.15,0.17c0.068,0.042,0.169,0.063,0.298,0.063
		C386.219,283.037,386.348,283.026,386.505,283.003z"/>
	<path d="M390.886,282.125l0.902,0.11c-0.144,0.527-0.406,0.938-0.791,1.229c-0.386,0.291-0.876,0.437-1.476,0.437
		c-0.754,0-1.351-0.231-1.793-0.695c-0.44-0.464-0.662-1.115-0.662-1.953c0-0.867,0.224-1.54,0.67-2.019
		c0.445-0.478,1.025-0.718,1.736-0.718c0.689,0,1.252,0.234,1.688,0.703s0.655,1.129,0.655,1.979c0,0.053-0.002,0.13-0.004,0.233
		h-3.844c0.032,0.566,0.192,1,0.48,1.3c0.287,0.301,0.646,0.451,1.076,0.451c0.32,0,0.594-0.084,0.82-0.252
		C390.574,282.762,390.753,282.494,390.886,282.125z M388.02,280.713h2.877c-0.039-0.435-0.149-0.759-0.33-0.977
		c-0.278-0.336-0.639-0.504-1.082-0.504c-0.401,0-0.738,0.135-1.012,0.403S388.048,280.264,388.02,280.713z"/>
	<path d="M392.875,283.784v-5.152h0.786v0.781c0.2-0.366,0.386-0.606,0.556-0.724c0.17-0.115,0.356-0.174,0.561-0.174
		c0.293,0,0.594,0.094,0.897,0.281l-0.301,0.81c-0.214-0.126-0.427-0.188-0.642-0.188c-0.19,0-0.361,0.057-0.514,0.172
		s-0.261,0.273-0.324,0.478c-0.098,0.312-0.146,0.65-0.146,1.02v2.697H392.875z"/>
	<path d="M399.57,283.784v-0.758c-0.401,0.582-0.946,0.873-1.635,0.873c-0.305,0-0.588-0.058-0.853-0.174
		c-0.265-0.117-0.459-0.263-0.587-0.438c-0.128-0.177-0.219-0.394-0.27-0.648c-0.037-0.171-0.054-0.443-0.054-0.815v-3.191h0.873
		v2.856c0,0.456,0.019,0.765,0.054,0.923c0.055,0.229,0.172,0.409,0.35,0.541c0.178,0.131,0.398,0.195,0.66,0.195
		s0.508-0.066,0.738-0.201c0.229-0.134,0.391-0.316,0.486-0.548c0.096-0.23,0.143-0.566,0.143-1.006v-2.761h0.875v5.152H399.57z"/>
	<path d="M401.37,282.246l0.864-0.137c0.048,0.347,0.184,0.611,0.404,0.796s0.531,0.276,0.93,0.276c0.4,0,0.699-0.082,0.893-0.245
		s0.291-0.354,0.291-0.575c0-0.196-0.086-0.353-0.257-0.466c-0.12-0.078-0.417-0.176-0.894-0.296
		c-0.641-0.162-1.084-0.302-1.332-0.42s-0.435-0.281-0.563-0.49s-0.191-0.438-0.191-0.69c0-0.229,0.053-0.442,0.157-0.639
		c0.104-0.194,0.249-0.357,0.431-0.486c0.135-0.101,0.32-0.186,0.555-0.255s0.486-0.104,0.754-0.104
		c0.404,0,0.759,0.058,1.064,0.174c0.307,0.117,0.531,0.274,0.678,0.474c0.146,0.198,0.246,0.465,0.301,0.798l-0.854,0.117
		c-0.039-0.266-0.151-0.473-0.338-0.621c-0.186-0.149-0.449-0.224-0.787-0.224c-0.401,0-0.688,0.066-0.859,0.199
		c-0.172,0.133-0.258,0.288-0.258,0.466c0,0.113,0.037,0.215,0.107,0.307c0.071,0.094,0.184,0.171,0.335,0.232
		c0.087,0.032,0.345,0.107,0.771,0.224c0.619,0.165,1.05,0.3,1.294,0.404c0.243,0.105,0.436,0.258,0.575,0.458
		c0.139,0.201,0.207,0.45,0.207,0.747c0,0.291-0.084,0.565-0.254,0.822s-0.416,0.456-0.735,0.597
		c-0.32,0.142-0.683,0.211-1.087,0.211c-0.67,0-1.18-0.139-1.53-0.417C401.691,283.205,401.467,282.793,401.37,282.246z"/>
</g>
<g>
	<path d="M377.535,343.976v-7.112h2.683c0.474,0,0.833,0.022,1.082,0.068c0.351,0.058,0.642,0.169,0.878,0.333
		c0.236,0.163,0.426,0.392,0.57,0.686s0.216,0.618,0.216,0.972c0,0.604-0.192,1.116-0.577,1.535s-1.08,0.628-2.086,0.628h-1.824
		v2.892L377.535,343.976L377.535,343.976z M378.477,340.244h1.838c0.608,0,1.041-0.112,1.295-0.339
		c0.256-0.227,0.384-0.545,0.384-0.956c0-0.297-0.075-0.552-0.226-0.764c-0.15-0.211-0.35-0.352-0.595-0.419
		c-0.159-0.042-0.45-0.063-0.878-0.063h-1.818V340.244z"/>
	<path d="M387.577,342.317l0.901,0.111c-0.142,0.526-0.405,0.937-0.791,1.228c-0.385,0.291-0.875,0.438-1.475,0.438
		c-0.753,0-1.352-0.232-1.792-0.696s-0.662-1.115-0.662-1.953c0-0.867,0.224-1.54,0.669-2.018c0.446-0.479,1.025-0.719,1.737-0.719
		c0.688,0,1.252,0.234,1.688,0.703c0.437,0.47,0.654,1.129,0.654,1.979c0,0.052-0.001,0.129-0.005,0.232h-3.842
		c0.032,0.566,0.192,1,0.479,1.301c0.289,0.301,0.646,0.45,1.077,0.45c0.32,0,0.595-0.084,0.82-0.252
		C387.266,342.953,387.445,342.686,387.577,342.317z M384.71,340.905h2.877c-0.039-0.434-0.147-0.759-0.33-0.976
		c-0.278-0.336-0.639-0.504-1.082-0.504c-0.401,0-0.737,0.134-1.012,0.402C384.889,340.097,384.739,340.455,384.71,340.905z"/>
	<path d="M389.557,343.976v-7.112h0.875v7.112H389.557z"/>
	<path d="M393.215,343.976l-1.96-5.152h0.922l1.106,3.085c0.119,0.333,0.229,0.68,0.33,1.039c0.078-0.271,0.186-0.599,0.324-0.979
		l1.146-3.145h0.897l-1.951,5.152H393.215L393.215,343.976z"/>
	<path d="M396.756,337.867v-1.004h0.874v1.004H396.756z M396.756,343.976v-5.152h0.874v5.152H396.756z"/>
	<path d="M402.32,342.089l0.859,0.11c-0.094,0.592-0.334,1.057-0.721,1.391c-0.387,0.335-0.861,0.502-1.424,0.502
		c-0.705,0-1.271-0.23-1.701-0.691c-0.429-0.461-0.643-1.122-0.643-1.981c0-0.557,0.092-1.043,0.275-1.46
		c0.186-0.417,0.465-0.73,0.842-0.939c0.377-0.208,0.787-0.313,1.23-0.313c0.561,0,1.018,0.141,1.373,0.424
		c0.355,0.282,0.583,0.685,0.684,1.206l-0.849,0.131c-0.081-0.347-0.224-0.606-0.429-0.781c-0.207-0.175-0.454-0.262-0.745-0.262
		c-0.44,0-0.798,0.158-1.072,0.473c-0.274,0.315-0.412,0.814-0.412,1.497c0,0.692,0.132,1.195,0.398,1.509
		c0.265,0.314,0.61,0.472,1.038,0.472c0.343,0,0.629-0.105,0.859-0.315C402.114,342.849,402.26,342.525,402.32,342.089z"/>
	<path d="M406.691,337.867v-1.004h0.875v1.004H406.691z M406.691,343.976v-5.152h0.875v5.152H406.691z"/>
	<path d="M408.895,343.976v-5.152h0.787v0.732c0.377-0.566,0.924-0.85,1.639-0.85c0.312,0,0.597,0.057,0.856,0.167
		c0.261,0.112,0.455,0.259,0.585,0.439c0.129,0.181,0.219,0.396,0.271,0.645c0.031,0.162,0.048,0.445,0.048,0.85v3.168h-0.874
		v-3.134c0-0.355-0.034-0.622-0.102-0.798c-0.068-0.177-0.188-0.317-0.361-0.423c-0.173-0.104-0.376-0.156-0.609-0.156
		c-0.371,0-0.693,0.117-0.963,0.354s-0.404,0.685-0.404,1.344v2.814H408.895L408.895,343.976z"/>
	<path d="M414.4,343.976v-7.112h0.875v7.112H414.4z"/>
	<path d="M420.156,342.317l0.901,0.111c-0.143,0.526-0.405,0.937-0.79,1.228c-0.386,0.291-0.877,0.438-1.476,0.438
		c-0.754,0-1.353-0.232-1.793-0.696s-0.662-1.115-0.662-1.953c0-0.867,0.224-1.54,0.669-2.018c0.446-0.479,1.025-0.719,1.737-0.719
		c0.688,0,1.252,0.234,1.688,0.703c0.437,0.47,0.654,1.129,0.654,1.979c0,0.052-0.001,0.129-0.005,0.232h-3.842
		c0.032,0.566,0.192,1,0.479,1.301c0.288,0.301,0.646,0.45,1.077,0.45c0.32,0,0.595-0.084,0.82-0.252
		C419.843,342.953,420.023,342.686,420.156,342.317z M417.288,340.905h2.877c-0.039-0.434-0.147-0.759-0.33-0.976
		c-0.278-0.336-0.64-0.504-1.082-0.504c-0.401,0-0.737,0.134-1.012,0.402C417.469,340.097,417.316,340.455,417.288,340.905z"/>
	<path d="M424.061,343.195l0.127,0.771c-0.246,0.052-0.466,0.078-0.66,0.078c-0.317,0-0.563-0.051-0.737-0.15
		s-0.298-0.232-0.369-0.396c-0.071-0.162-0.106-0.507-0.106-1.03v-2.964h-0.641v-0.68h0.641v-1.275l0.868-0.524v1.8h0.878v0.68
		h-0.878v3.013c0,0.249,0.016,0.409,0.046,0.479c0.031,0.071,0.081,0.128,0.15,0.171c0.069,0.042,0.169,0.063,0.298,0.063
		C423.775,343.229,423.902,343.218,424.061,343.195z"/>
</g>
<polyline fill="none" stroke="#000000" stroke-width="0.5" stroke-miterlimit="10" points="276.76,182.984 353.225,212.432 
	373.527,212.432 "/>
<line fill="none" stroke="#000000" stroke-width="0.5" stroke-miterlimit="10" x1="372.88" y1="237.272" x2="282.592" y2="237.272"/>
<line fill="none" stroke="#000000" stroke-width="0.5" stroke-miterlimit="10" x1="373.527" y1="279.824" x2="285.904" y2="279.824"/>
<line fill="none" stroke="#000000" stroke-width="0.5" stroke-miterlimit="10" x1="373.527" y1="341.384" x2="291.808" y2="341.384"/>
</svg>
