<?xml version="1.0" encoding="utf-8"?>
<!-- Generator: Adobe Illustrator 15.1.0, SVG Export Plug-In . SVG Version: 6.00 Build 0)  -->
<!DOCTYPE svg PUBLIC "-//W3C//DTD SVG 1.1//EN" "http://www.w3.org/Graphics/SVG/1.1/DTD/svg11.dtd">
<svg version="1.1" id="Layer_1" xmlns="http://www.w3.org/2000/svg" xmlns:xlink="http://www.w3.org/1999/xlink" x="0px" y="0px"
	 width="326.484px" height="337.847px" viewBox="0 0 326.484 337.847" enable-background="new 0 0 326.484 337.847"
	 xml:space="preserve">
<metadata><?xpacket begin="﻿" id="W5M0MpCehiHzreSzNTczkc9d"?>
<x:xmpmeta xmlns:x="adobe:ns:meta/" x:xmptk="Adobe XMP Core 5.0-c060 61.134777, 2010/02/12-17:32:00        ">
   <rdf:RDF xmlns:rdf="http://www.w3.org/1999/02/22-rdf-syntax-ns#">
      <rdf:Description rdf:about=""
            xmlns:xmp="http://ns.adobe.com/xap/1.0/"
            xmlns:xmpGImg="http://ns.adobe.com/xap/1.0/g/img/">
         <xmp:CreatorTool>Adobe Illustrator CS5.1</xmp:CreatorTool>
         <xmp:CreateDate>2015-02-23T15:00:21+02:00</xmp:CreateDate>
         <xmp:Thumbnails>
            <rdf:Alt>
               <rdf:li rdf:parseType="Resource">
                  <xmpGImg:width>248</xmpGImg:width>
                  <xmpGImg:height>256</xmpGImg:height>
                  <xmpGImg:format>JPEG</xmpGImg:format>
                  <xmpGImg:image>/9j/4AAQSkZJRgABAgEBTQFNAAD/7QAsUGhvdG9zaG9wIDMuMAA4QklNA+0AAAAAABABTQAAAAEA&#xA;AQFNAAAAAQAB/+4ADkFkb2JlAGTAAAAAAf/bAIQABgQEBAUEBgUFBgkGBQYJCwgGBggLDAoKCwoK&#xA;DBAMDAwMDAwQDA4PEA8ODBMTFBQTExwbGxscHx8fHx8fHx8fHwEHBwcNDA0YEBAYGhURFRofHx8f&#xA;Hx8fHx8fHx8fHx8fHx8fHx8fHx8fHx8fHx8fHx8fHx8fHx8fHx8fHx8fHx8f/8AAEQgBAAD4AwER&#xA;AAIRAQMRAf/EAaIAAAAHAQEBAQEAAAAAAAAAAAQFAwIGAQAHCAkKCwEAAgIDAQEBAQEAAAAAAAAA&#xA;AQACAwQFBgcICQoLEAACAQMDAgQCBgcDBAIGAnMBAgMRBAAFIRIxQVEGE2EicYEUMpGhBxWxQiPB&#xA;UtHhMxZi8CRygvElQzRTkqKyY3PCNUQnk6OzNhdUZHTD0uIIJoMJChgZhJRFRqS0VtNVKBry4/PE&#xA;1OT0ZXWFlaW1xdXl9WZ2hpamtsbW5vY3R1dnd4eXp7fH1+f3OEhYaHiImKi4yNjo+Ck5SVlpeYmZ&#xA;qbnJ2en5KjpKWmp6ipqqusra6voRAAICAQIDBQUEBQYECAMDbQEAAhEDBCESMUEFURNhIgZxgZEy&#xA;obHwFMHR4SNCFVJicvEzJDRDghaSUyWiY7LCB3PSNeJEgxdUkwgJChgZJjZFGidkdFU38qOzwygp&#xA;0+PzhJSktMTU5PRldYWVpbXF1eX1RlZmdoaWprbG1ub2R1dnd4eXp7fH1+f3OEhYaHiImKi4yNjo&#xA;+DlJWWl5iZmpucnZ6fkqOkpaanqKmqq6ytrq+v/aAAwDAQACEQMRAD8A6f5ytIdU823qXSLJJHeW&#xA;GnWkrKGaCOcW7FoifsuHuWbkKHYeAwoetYEuxV2KuxVBy6zpEWpxaXLewJqU6epDZNIomdPi+JUJ&#xA;5EfA3/AnwOKozFXYq7FXYq7FXYq7FXYq7FXYq7FXYq7FXYq7FXYq7FXYq7FXYq7FXYq7FXYq7FXl&#xA;Xn5W0zzBqF2K0aK21mFjtWWyIV0Unaii2iJ/18KHquBLsVdirsVeT+eUay8xavcmjSRLZ6xbv14/&#xA;VxRI6Hwksmbw+L54UPWMCXYq7FXYq7FXYq7FXYq7FXYq7FXYq7FXYq7FXYq7FXYq7FXYq7FXYq7F&#xA;XYq7FWG/mXYI9lYaiVBFrcfVrknqbe9pCUA95/RJ9hiFTbyPePd+U9MeRi00MX1Wdz+1LasbeVv9&#xA;k8ROKp5irsVdirzP83olSRZVFDNpOorMfEQ+kY/u9Z/vwhD0zAl2KpR5m8z6d5esUurxZZpJpFht&#xA;bS3UPPNK2/GNSVXYAszMwVQKkgYqi9G1W21fSLLVbUOttfwR3MIkADBJVDrWhYVoexI8DirzC6n8&#xA;weU/MFzqFxPP6ks8gZryadtNvIZHLRD1D6kVtKFooooYUoFZOOFD0Hy55r0/XBLFGklrf2wU3VjO&#xA;AJEVyQjqylkdG4mjKfY0NRgSnWKpV5l8w22haabqRDPcSsIbK0U0aadgSqA0NBRSzNT4VBPbFWH+&#xA;UNQ8zan5oRrq/knFqkj6oIhws4/UX91apH/NVxIGar8V+I0daqvRcVdirsVdirsVdirsVdirsVdi&#xA;rsVdirsVSrVPNGiaVqNnYX9x6E9/UQMyt6YIZVAeQDhHzZgqciOR2G+KonWNVs9I0u61O8LC2tI2&#xA;ll4KXchR9lEXdmY7Ko6nFUL5a8yWuv2Ml1Bbz2jwyejPa3QQSxvwSQBvTeVD8Ein4WPWnWoxVD+f&#xA;IVk8naux621u93H/AMZLX/SI/wDh4xiqXfltIfqerW9aLBfsYo/BZbeGVjTwaV3PzriVZDqOv6Fp&#xA;jpHqWo2tk8gLRpczRxFlGxIDstQMVRVvcW9zAk9vKk0Eg5RyxsGRge6sKgjFVTFXm/5wD4IKCp/R&#xA;mqU/6d8IVm3mHXrPQ9Ne+uVeQ8ljgt4gDLNK+yRoCQKnxJoBUkgAnArFR+YXmArU6JaA+H1+T/sk&#xA;w0i2NpFq/m3XHjab6zduDb3l5bgpbadakgyRQsS1JnoNuRdmozAIoCqvXLa2t7W3itreNYbeBFjh&#xA;iQUVEQcVVQOgAFMCV7ojoyOoZGBVlYVBB2IIOKvMPMmhT+TtbsNb0BT9SkkaFdPrxiiLrye2VtuE&#xA;NwsfwA7RzBKVVuIVej6ZqVpqen2+oWb87a6RZImIKmjDoyndWHRlO4OxxV5dq2oX/mPzQTYqHmkk&#xA;ksNFDDkkVvEw+tXjgH7LunKtRyURLszYUPS9C0Sy0XTY7C0BKJVpZnIMksjbvLIQBVmO57dhQUGB&#xA;KPxV2KuxV2KuxV2KuxV5rL5581WeuXNtcfVXuYnkrosimFmgRysctvN8TFWWh5lGUnaiGoBVnGge&#xA;YdO12yN1ZFlMbmK5tpQFmglADGORQSAwDA1BKkEFSVIOBUyxV2KuxV2KvMvzeZZp0t4xynTS71So&#xA;3PK6aJIFHXdmhYDCrJvzGlC+WvSr+8nvLNYx48LmOVv+EjbAqh+W8ZGn6pP/ALruNQdoz4+nBDA3&#xA;3PEwxKpt50IHk7XSdgNOuyT/AM8HxViPlvVv0TaeaL8IJVtIIJ0jJK85+EoWINv9rjGBt+1hKEB5&#xA;V8rX2tzX9xNfGDhKsd9qCRo1zdXfprI7BpAyLFGrqqjif5RxCbqqb/pHyJ5hMjyI1jKBdXjRK0MV&#xA;zbcglzK0NZAtxagq7Mu7rRe9FVes4EvOfzZUyXOnwAVa4sdQhQ/5UslpGv4tiqn+Z13PJq8VtCQs&#xA;lhZme2LDkv1m9doIpCp2/diFh8nOEIZZbeRPJ0NukLaPaXBUUae5hjnmc92kkkVmdj3JOBKdW9vb&#xA;20CQW8SQwRjjHFGoVFA7KooAMVVMVdirHfzBSJvKN76hA4NBJFXvLHcRvEPpkVRTFWOeXtRudO8l&#xA;+a5reTi1lPctp6ncJJJaQzAAb/auZWb5tiqN/K7RLeCwm1QJRnZrCyVh8UVrYu0HHcdZJUZyR1Xh&#xA;/LirOMVdirsVdirsVdirsVdiqX65oOm63Ym0vouQB5QTLQSwyUossTkHg612P37Yq868oX1zp/mi&#xA;z+sEercvNo+qFfhRprYyNFNTfb1ImWMHtLhQmPnTXNXvvMCeX9KmkjCPHA0cMrWzzXcsZnKPOg9S&#xA;OKG3AlYx7tUjenFglDeXta1vQvMa6VqsszQTSx211BcTy3fpyXG1tcW8837x4pX/AHRBAHLspVql&#xA;XpuBXYq8485KH892i+H6Fb7tTlP8MVTf8yGpbaKO7aidv+jK5xCo78voynlKzY/ZuHuLmP3juLmS&#xA;ZD9KSDFV3n+YxeUNRQf8fSx2ZPgLyVLYn6BLirCYkr5T8wzHZv0vp0I3FOKPZOPxlbChl35cyIfL&#xA;rQgUlt7y7WYe8lw8yffFKhwJSL81/Ta7so5KGM6dqfqKenEm2G57d8IQzzTGlbTbRpqmZoYzIW68&#xA;iorX6cCWBeen9bztpcLbi1bTGUEV/wB6dTHL5f7zL/mMVb/NPTpXurWaGiHUbW508yHp66r61tt7&#xA;L65whWcaJq1vq+kWmp24KxXUayem1OSMdnjenR0aqsOxBGBUbiqC1u51C10e+udNtheahDBJJaWj&#xA;NwEsqoSiFqGnJtsVecJ+ZHmeGNE1C+0q1u+IMkU9lc2rV70jnulkAr44UKJn80+bJoo4Z21CEOJF&#xA;dYvQ0qJlNVlZxVpzGd1jEr/FQ/CRzCrN7jyfGnkyXy9YzESmMstzL/uy4L+sZJeI6SS7uFFKGgFN&#xA;sCWF27ectIRrVE1XTY2d5BbW9tFfwh5GLyNHKkN0QruS1GI6/ZHTChE2msfmIZ0Fk1/fz8gPR1Cx&#xA;S2typIqXl9GzKgDurEj+VumKXp2BXYq7FXYq7FXYq7FXYq8s80RNZecbtj0kvNL1MU2/diWKJlHu&#xA;TZsfpwoV9CKy/mB60+8j32o8Sf8AfkQeCP6fq8ZA9sUrPzTZY9SnmiqLiHSzMXXYq0UjyW7V8VdX&#xA;K4oen4EuxV5x50JTz1ZMduX6GVdutNTkB/4kMVTH8xH/ANO0ePoFFzOxPTiixp+uUYQpT7yYhTyf&#xA;oSEUK6fagj5QJgVJPzIuuX6I0xTUz3D3cydjDapT8J5oSMIVC6VpM17+V156EZe81Bbm/s6dZH9V&#xA;pbJvpRIsCtflrqMTX+pW0bg297Fb6lbHu5ZfRlK+ypHB/wAFhKAlH5ht9d84nRV5tc6nZ21jbQqj&#xA;OyrLNMLi4AUGkUaOCzGgqtOtKqXquBXm2sN9Z/MiMvusF3ZWoU+EUTXS7ez3Ffn9GFWa+ZtDXWtG&#xA;nsQ4iuPhltLgjl6U8Z5RvTYleQowBHJajvgV575b8y3nl68uorm2l+rep/uX0tAXmtZz9q4t1oDL&#xA;HIByKoPjHxoC/JXKHp2n6hY6jaR3ljOlzazCsc0TBlPY7jwOxwJRGKuxV2KuxV2KuxV2KuxV2Kux&#xA;V2KuxV2KuxV5h5wkS686lFPwJLpGnzePI3frSAf88rpcKFmtP+h/Pkt2w4pDfWt+oP2BbXkP1KZy&#xA;e3E+u/0YqyTzV5A/T2sLfDUpLSCa1+o6laiNZPVhV3dDE5I9KQeq4LEMCD9moBwJZdirsVebfm1W&#xA;C6tbtNpE0+9mDf5drJbyxH6GY4VRv5nwyPJprIOTSRXluF6byJG4Nf8AnlT6cQrLfL0qTaBps0Zr&#xA;HJawOh8Q0akYFecedby7vfMuopbPSaEW+kaaDuoubji5kB7Avcxq/wDxjwoeoWNnb2Nlb2VsvC3t&#xA;Y0hhTrRI1CqPoAwJY35d8gW2ha7LqVvfzzWvpSwWenyiMpbpPJHI6I6qrsimFRGGqVFRUilFWVYq&#xA;7FXl+rP6Xnu5mX7Saxp608fVgtYTX6JMKHqGBKT6/wCVdJ1sI9yrw3sIIt7+3ISeME1KhiGVlJ3K&#xA;OrL3pirAL3QfOHli7kutPMkksm63tjBJLDcOAPhvbFPVYE8aeolTQbOlQuFD1K0llmtIZpoTbyyR&#xA;q8kDEMY2YAlCRsSp2wJVcVdirsVdirsVdirsVdirsVdirsVdirTuiIzuwVFBZmY0AA3JJOKvLPKA&#xA;l1vzdb6jKD8b3GszchuqSKbeyhkHQMsMgp7xYUMz80+RtI8yS2813LcW0sKvC72rqnrQSfbglDK6&#xA;sh7GnJf2WWpwJZDirsVdirz/APMwRNq2lLM3GFrHURKSQAF52lSa+AwhBd5kFxJ5P8qXNyhSWKS1&#xA;e55ChVpbGWKhHUfvZFXAlO/y81CK48sW1mGX6xpH+464jBqVNuAIi3vJAY5P9liqZL5a0JdZbWfq&#xA;aHUmPL6w1Wo3ARc1UkqrmMcCyipXatMVTPFXYq7FXYq8r87H6h5pv5zusR0/WWr0pBIFI7drH8cK&#xA;HqmBLsVdirsVdirsVdirsVdirsVdirsVdirsVdirsVWTwxzwSQSiscqlHHSqsKHFUl8q+ULLy7FM&#xA;Ip5bu5uBGkt1Pw5mOEERRgRqihV5MenVicVT3FXYq7FXYqlOueVtE12S1fVIDP8AVC3ppzdEZZOP&#xA;OOVVIEkbFF5I1Qab7YqitZ0m01fTZtPu+Xoy8TyQ8XV43Ekbqf5kdQwrttuCMVQflvyvZaClz6E0&#xA;11PeSCS4ubgxmRuKhFX90kSBVA2ouKpxirsVSfy3Z6xajU01O4lued9LJZSzNGT9XdUKKojChVVu&#xA;SqCK0G9TuVU4xV2Ksf8AMfkbQfMF/Y398sq3NjVeUL8BNAxDPbzrQrJEzKCVIr4EVNVWQYqxP8u4&#xA;PM0dhfvr8N5ayzXZktLS+ngupI4fTRP76CSVT6jq0jKOKoWKqvEAlVlmKuxV2KuxVinlqy8zw+bv&#xA;MVxf+uNFuBB+jkuJllX1EknMrwqsknBGjeIUKR04gUY8nZVleKuxV2KuxV2KuxV2KuxV2KuxVCav&#xA;+lf0VdjSPR/ShhcWP1kssAmKn0zKUV24ButBiqW+R7bzDa+VrK38xOZNYi9VbqQyictSZ/TYyBYw&#xA;eUfE/ZFOlMVT3FXYq7FXYqxKGx81L+ZE144mk8vSWvBC83GCNlCUEcKz/FIz8+ReDpSj/s4qy3FX&#xA;Yq7FXYq7FXYq7FXYq7FXYq7FXYq7FXYq7FXYq7FXYq7FXYq7FXYq7FXYq7FXYq7FXYq7FXYq7FXY&#xA;q7FXYq7FXYq7FXYq7FXYq7FXYq7FXYq7FXYq7FXYq7FXYq7FXYq7FXYq7FXYq7FXYq7FXYq7FXYq&#xA;7FXluufu/wAw31A0+u2+o6db20p+0ltOsETxqf5GNxL9JOFXqWBWK+dvNV5poTS9H9M63cp6glmU&#xA;vDbQ8uPrSIrIWLEERpUciDvRTiqO8kanfan5ZtL69f1Z5WmAnChBLEk7pDKAKL+8iVXquxrUbYqv&#xA;81+YX0LTUuIbYXl1PMlva27SeijOwLEvLxk4KqIzV4npQCpxVFaDrNvrOkwajAjRpNyV4npySSNz&#xA;HJG1KglJEZag0NNtsVR+KuxV2KuxV2KuxVC2eq6Zez3NvaXUVxPZt6d3HG6s0bmo4uAdjVSPoPhi&#xA;qKxVRvb6zsbWS7vZkt7aEcpZpGCqorTcn32xV1neWl7ax3VpKk9tMvKKWMhlYexGKq2KuxV2KuxV&#xA;2KuxV2KuxVKdC82eX9ekuo9Ju/rL2fD1xwkj+GXl6cieoqc434NxdKqaGh2xVNsVdirsVdirsVdi&#xA;rzHzzSDziZk24R6TdsOvJ4r2U/isSjCh6LqeoW2m6ddajdMVtrOF552AqQkalmoB1NBgS8q0zTb7&#xA;zDrJtLolbjUWN9r0ikn0reoVbZHWlOQAgQih4q7j4hhQ9ciiihiSKJFjijUJHGgCqqqKAADYADAl&#xA;JvOmly6l5Yv7eBDJdpGLizQdTcWzCaFfk0kag+2KpD+WV9HI2q20R5QO1vqMLj7PC7jMfED/AFrU&#xA;uf8AWwlU78w+cLDRrhLP0Jr2/kQS/VbfhVIySqyStIyKqsykDcsaGgNDQKk5/MTUCarovwD7Qe6U&#xA;Of8AVCxsp+lhhpbT3y55os9dW4WKCa0ubUqJ7a4CcgJASjho2kRlbiaUbtuBgVMNUtJrzTLu0gna&#xA;1muIZIormMkPEzoVWRSKGqk1GKvOPKvmvVdFv103WnkFkJEtbmK4YyzWNy5AjPqks0ltLyHFiSVq&#xA;D9jlwKs682ajNp3lrUryBuN1HA62hpX/AEiQcIRT3kZRgVjf5W6XDbw6ldwrxg5w6fbAbhobJCeV&#xA;epb1p5Ub/VxKs6xVjX5igHypMCK/6VYH7r6A4qo/lvJ/uIvbUfZtb+ZVA6fv1S6P/DXBxViN1f6l&#xA;5y8w2yWs8kdtO/qaaiOyRw2UDqWv2A+1NJyHpch8PJVoP3hJV6zgV2KsW/MS4vYtItI7e4ltori8&#xA;jiu5YHaKX0+DsqrIhDrylVFJU9K4qpaBrN7D+XdxqUsrXFxYRahwklYu7CzmmSPm7VLHjEtWNSep&#xA;riqW/lbDc2l1qdhLeXN6I7ezmea6meZ3nle4EshLk0L+mtQKDYUGKvQMVQHmCyuL7QdSsbZuNxdW&#xA;s8MLE0AeSNlU1HTc4qwL8vri2n8yWlxAnprcaVOwWgUhVmtiqMP8jmdu2+EoCf8AnDzo2mO+naaE&#xA;bUFT1Lm7m/3mtIyKhpN15uRuEB6bsVFOQSgvIOp+ZNQ1OaW4vrm/0cQE/WLmCKGN52dfTNs8cMIk&#xA;Xgr8iCV+z3rirOsVeR/mjZm71u/aUubvT7GC70eVGKvbyAysskLA/A7Sw/Ef2gADVdsKHrKTRPCs&#xA;ysDEyh1foOJFa7+2BLzk+e9e1DWLKXTZI49Nu7yKDT7MRcpLmBmHqSyMeTKPSV5V4AcVFWruuFVn&#xA;5rxiG8MwFTdaVdqw/wCYRlK7H/mKOKp/+ZMx/Q9lY1ol/fQxyHvxgV7un+yNsFPscCrvy5sFTRZN&#xA;VcH19XlacMf+WdCY7YL/AJDRKJKeLnFWV4q7FXl3kLjp3me3s6kQrHfaSlP23s5wIa/88reU/ThQ&#xA;6/hXVfP9xZySOtteagtrJJGxST0bbT/WaNWWjIDNG6kjfckEGhxVmK+QPKKqAdPDkftySSyOfmzu&#xA;zH6TgSmek6LpOkWzW+m2sdrE7epIEG7uQBzdjVnagAqxJxVG4qwX8zdFtpEtdWZAUY/o3Ul7SW10&#xA;SsYam5KTsqrvsHfxxCoTUtWuL/8ALzR47ljLdXF3DaXM56vLp0zPJJ2+21kT9OKsm8gwCLyfpbj/&#xA;AI+4jen2N47XJH0GXFU/xVjn5ggnytNT/lpsj917DirFbG6eDyT5tCMVkuL0WcTjYo93a2lurVr+&#xA;y0tcKE5/LWxjWLVNRCBTPOtpblegt7RAAoUbCk8k34eGApZpirsVY1+Yqg+V5G/aS7sSrdxW8hU/&#xA;erEYqkWmsB+WXmbsETU/l/dsx/XiqJ/LpGfVNbuV3hVbS0Lf8WxCWZx9CXMf34SgM5wJdiryy9Vt&#xA;B89NJEOEceoQzoh6G11UiKcsf5RcNLL/ALAdsKFfztbRJ53tgygxXr6Q7x0qHdNQ9ORm/wBh6an2&#xA;GKXpmBXYq888/Wo/xLGXrw1DTzFt/wAusrcqf9JYwhBVtd1KV/y40W35Ul1yG0tZGGwMbwevcL/s&#xA;4IpE26VwJVvy80lZpbrX5lqxeSy04H9iGFgs7U7NJOhB/wAlFp1NSVS/83weEDDtpmqfj9X/AKYq&#xA;m/5kxkWukXIB4w3wSWTsqTQSoK/60vpj54Aqa+R5FfyZoRHVbC2R1rXi6RKrqfdWBB98VTvFXYq8&#xA;s0N42852JB2bWtV4HxPG+wodp7rD51tWk+H09avhJXrWZbpY/v8AVT6MVep4EuxV2Ksb/MRgvlaW&#xA;ve6sQB7/AF2H/bxViDf8oVoNev6bv6f8Ff4UM58kMG8maFQg00+1VqdmWFQw+YIocCU6xVj3n/8A&#xA;5Ref/mIs/wDqMhxVhkCO3lPzLItRDDqNlLL7GH6rLK30RBfuwoZV+XE4OiXVp3sr64Qnx9dhd/qu&#xA;aYEsqxV2KsZ/MVgPK7p+093YhR40vInP3KpOKsU9dk8gS261C6pqz2zOdl9MSlplPs6wPF8zhQy3&#xA;8uxajylZmD+9ZpmvdqH62ZW+sD5CXkF/yaYEskxV2KvLvPrC4803UUTfE0GnWAb+W4luZCoH+UBc&#xA;xkV8RhQ3+Yc3DzLdTKamzsbGcEHcSQ3NxNQEdG+FSPoxV6hgS7FWAfmPcxxazprt9m2sr2SbpsrP&#xA;blevj6TYQgrPMVpNbeSvKYkFFsZLRLlhuF5WUlstfnLKi/M4Ep7+XTBvK0VKVW6vwQOx+uzdf14q&#xA;xn84LmCsUAkUzrpepyNHUcgv+jgEjwJxCs68x6Ous6Jd6aX9J5kBgmpy9OaNhJDJTvwkVWp7Yq8+&#xA;8oebH0B7i01WNodM9d/rYHxtp12TynElPtW8jH1A4Hw8uZ/dtVCh6ijpIiujBkYBlZTUEHcEEYEo&#xA;PXdS/ReiahqfEP8AUbaa54E0B9GMvSvvxxV57+X+mkeYbS3JMqaPYF5pDWvrzkQxSe5ZI56/24Sh&#xA;Cedn/RPmXUpWkiikd7XWbISsI43+remGiJ6/3lp+8IBoHBxV6tazme2hnMbwmVFcxSCjpyFeLDsw&#xA;6HAlUxV2KsG/Mq/j+saVYFwqxNLqN0xOwigjMSqw/wAp5+ak/wAhwhULf6c9t+WOlTSKUuoJLS+n&#xA;UinCW8mH1mtOgUXUmBU3/Le7VtHudOJ/e6ddzKR4x3DG5jIH8oE3pj3U4qyzFWN/mGaeVZj/AMvV&#xA;iPHrfQjFUm8p6adT8t+atO5+n9fuJrcSfy+rp9vHX6K4lUJ+Wmqu2rPG6+mmrWa3LREgelc2pEcy&#xA;MK/bZZVUjt6ZwlD0jAl2KsZ/MOGd/LwlhjeUW1zBNMkal39NXAZgqgk8A3I+wOKoXyho0Wq/l7DY&#xA;6vaSwQ6g1zcG2lDQzok93JcQMaEPFKqsj9mVvAjFUm/LsahY+bNT0eVpGaGFjqgdQoaaORYrS6oA&#xA;FDXUAY1XY8KbcKYq9JxV2KvK1tjP+YcunSvznbWBc3LD7XpwWyXcBoP2V4QxE/1woTfzH5T1u883&#xA;CaCH1tMvXs5Li6LoohW2cGaJkJDn1I0+AoD8TGvEAHAlnuKuxV5Z+bTiK/uBNT/TdJeDT0Y/3kyt&#xA;IJI0Hdm9WKgG57YUPR9Y0q11bS7nTrqvo3KFGZdnU9VdD2ZGoynsRgS810uHzpoWtLbwW1093NPG&#xA;LuKOItpt2oIja4M3F1tyYlrTmGBABWSg5FCM0X8qtQilSHVbm3mtuXPUbuPk11qLcubGcsqiMStv&#xA;IoL7EqKdcCXo6zQvI8SyK0sdPUQEFl5bryHavbFUi8xeS7DWbhbxLibT9QVRG93benykjFaJIsqy&#xA;I3GtVJFVPehYFVN9M0+203TbTTrYEW1lDHbwBjU8IkCLU9zRcVW6xpseqaRfaZJI0Ud9by2zypTk&#xA;qzIULLUEVHLauKpZ5W8s2/luyujNdm6uruU3F7eygRg7BURFqRHFGgoq18SSWJJVTdorC+jjdkiu&#xA;olbnExCyKHWo5KdxUb7jFVfFXYq7FWNeZfI9rr2oxXM11JDAYTbX9vGAfrEIYsicz/d0LuCQKkMa&#xA;UNCFU5vLaw1jS7qzdxNZ3kUltM0TA/C4MbgMK0I3+RxVLvK/lWLQvrchuXvbq7ZA9xIqowiiBEUd&#xA;EouxZmJAFWY7AUAVT3FUJq2l2eq2EtjeKXgl4k8SVYMjB0ZSOjK6hh7jFVPR9P0nS7YaXp3FFg+N&#xA;4jIZJKyEtzkZyzkuankx3xV1toOi2uozalbWMMF/cBhPcxoqu/Mhm5EDcsVWp70FemKo/FXYq7FV&#xA;I3loJBGZ4xIX9IJyWvPjy4Ur9ria08MVVcVdirsVUTa2SXX10wxLdlBCbkqokKFqiPn9rjy7V64q&#xA;qqysKqQRUio33BoR9+Kt4q7FWmRH48lDcTyWorQjuMVWrNC7BVkVmKhwoIJ4no3yPjiq/FXYqxHy&#xA;p5Gm0LzRr+sm6SePWZPUCcD6tTLJL8bsW2QS8EVKCgqd+irLsVdirsVQ+pWzXWn3NsgjLzROiCZR&#xA;JHyZSF5oftLXqMVQnljQLPy/5fsNFs1AgsYViqBTm/WSQ/5Ujkux7k4qmeKuxV2KtOGZGVW4MQQr&#xA;UrQ+NDirE/yy8jy+TPLr6TJdLdcpvVVkUqFAhiiI+Isx5GIvufh5cRsoxVluKuxV2KsQ0fyLNYfm&#xA;Fq3mo3UZg1CIxxWiR8WDOtuHaWQ1ZyPqo470AOwXfkqy/FXYq7FXYq871L8po5/MUWqWc9vBAuqD&#xA;UmgaEuy/vdOuJDE/MUkkl0o8mpuJD4bqvRMVdirsVSjzPoEet2VpA3EPaahY6hEz1IDWV1HOaAdy&#xA;sZUe5xV3lXQI9A0g6bFx9IXd7cxhKgKl3eS3KrvvVRNQnxxVN8Vdiqy4giuIJIJl5wzK0ci7iqsK&#xA;Ebe2KsF8o/l5eaJrunXk5s3ttL0a30m2a3Ro5i8cUUcrynj+8DegoQFqIo+zUk4qz3FUj8xebrDQ&#xA;buwt7uGZ1vi9ZownCGON40aSTkyniGnWvEHap7YqmGq6xpuk2v1rUJ1ghLBFJBZmduiIigs7GnRQ&#xA;TiqvZ3lre2sN3aTJcWtwiyQTxsGR0YVVlYbEEYqq4q7FXYq7FXYq7FXYq7FXYq7FXYq7FXYq7FXY&#xA;q7FXYq7FXYq7FXYq7FXYq7FXYq7FXYq7FXnH5uRvJJaxp9p9M1RVG1Kk2wHXCFTP8wnt7nStEvEY&#xA;iU3sb2iECjiW3l5hv5eMJdwRvUU6E4AqM/LgMPLjgf3IvLv0Pl67c+v/ABbzxVlGKuJCgkmgG5J6&#xA;AYqxzyj5yi8xy3qpatbR24hmtnZ+RltrjmIpGXivpsxib4N6Cm9agKp3f6jp+n25ub+6hs7cEKZp&#xA;5FiSrGgHJyBU4q3YahY6hapd2NxHdWsleE8Lh0PElTRlJGxFDiqvirsVeU/lqjP5rt9SaSQ3WqaT&#xA;NPqJLErNL61s6O46co/WdU/lVuI2pQoTHzX5t80L5guNP0qeOzhs5re0jRolke4urpYmjLyMWCQV&#xA;uFVgqctmPLAl6LirsVdirsVdirsVdirAPzIH1zVdN093cWyQXFxIiOU/elo0hkBWh5Rj1OJrsTUb&#xA;9CFT+w8wC08iWOuam7SuNPt7i4KgepLLJEp4oo4gvJI3FR3JpgVjvkvVPNep+Y2e5vGmghjLarCF&#xA;j+qwvKvKK3gIRXLr9qpJPD7f2kwq9CwK7FWE+aPO+q6Nr0kKRQNpdlFBPeq6v67QyM/qyROHCjgq&#xA;EheB5FSKiuyqa+bvM82jra21nGk2o3pf0llJ4RxRAepMwWhYKzovEEElutK4qj/Lertq+iWuoOix&#xA;TSqVniU8lSWNjHIoJpsHUjFUyxVLdf1+y0SyW6ulkkMsiw29vCA0ksrAsEQEqv2VZiWIAAJJxVDL&#xA;5u0s+Wz5gZZUtATGYSoM3rCY2/pUVmXkZvgHxcfem+Kt+XfNVprj3MUVtPaT2ojeWG5EXLhNyCMD&#xA;FJKtCY2HWu3yxVj/AOYVP07owPe1v/8Ak5aYQgpZqnL/AAp5Hlb7Bt4kr/xY1jyXb/VRsQrKPy6Z&#xA;T5XRP2o7u+DjuCbyVx96sDgSyXFVs0Uc0TxSDlHIpR13FQwoRtirzT8r5pYNW+qTbzT6aqTkdBLp&#xA;03pP97XRwoQWoS3/AJo82EWrAzNNNbaazjnHaWdq/pXN0FNAWlfpT7XKNT8IJxV6do+kWWkabBp1&#xA;kpW3gBALHk7sxLPI7ftO7EszHqTXAlGYq7FXlv5Zf8djSf8Atizf8Ts8JQjb70Z/zYtOA/dxTRRT&#xA;r1DTx2FzNyNfBJIvuBwJei4q7FXYq7FXYq7FXYq8+87Hn5rRaUENhGa+PrTSfq9H8cIQUJq0jnyf&#xA;5LsWqtvLBbzSk/Zdre0DRxHxPNvVH/GOuKWS/lx9W/wuhip6xubr64duXri4cNXvQAAJX9jjgVk+&#xA;KuxV5f8AmBZXE/mLUrZ3IN/pkaWcrLRQqmZHQfzGN5Obf64HhhCFXzDePfy6L5hEZW01a1S2ETGr&#xA;wXCCScofHkvMFh3QdajEKyn8vIJY/J2nySUBuxLfIoNeKXsz3Man/KVJQG98CWRYqxr8xI428stI&#xA;wHOK7smifoVZruKM0PaqOyn2JGKsUYMfy+tn/Yl1mT93TYCO8kT8Xj5/M4UMm/Le0hTQHvd2u725&#xA;uDdSMKGsEzwIi/5CLGAPHdurHAlAfmCP9zWjMen1e9WvuXtjT7lOEIKG1G2Q/lToN5x+PTbbTbpW&#xA;HRE9NIZ3P+StvLIT4dcCUw/LVyYtbRfiiW/FG8HNrBySnts1f8rEqzLFVssscUbyyuI44wWd2ICq&#xA;oFSST0AxV5Z5Ckku/MmmXXErLdW97qM6kUIFy6SOD0/3ZcLthQgvKOo3+jra3VvaxXU0dp9Qu4J5&#xA;WgeKWFgJAGWOb4lkRldSOoG+2KvTfLXmCDXNPa5SMwzQytb3UBIbhKgBIDigZSGDA+B3ANQAlNcV&#xA;diryz8sB/uV0ivUaLLt/s7PCUNaLLz88W0ztyll1vU0kc9T6UV3DGD/qxxKo9gMVeqYEuxV2KuxV&#xA;2KuxV2KvNfzFuRpvmE3twKQT6egtjv8AHJayTPJGKA/FSdOIpU70rQ4Qgsnk8qrfeTbDR7hzBd2l&#xA;tbi3ulALQ3EMYUOBXfurLX4lJXvgSkHkrTvN9h5jkS5sDbWkisNWk9RWtZZUXjDPampdnYKFNUX4&#xA;PtmqKCq9CxV2KsC/MeVYdX0mVqlY7PUGYDrRXtTthCCgNehXTfKPlBrp1RLeJY7iZiABIbF5HkYn&#xA;t+6ck4pZt5Qili8p6JFMjRzR2FqskbCjKywqCCOxBwKm2KsV/Mi5CaDBbUPK9vbWNX7L6UguTX/W&#xA;W3Kj3IxViiSH/CF5DX91aa5Eq9KL6ywzGtOlZbg/fhQzD8uTXypF/wAxV/8A9R0+BKN8zeW4ddtY&#xA;ImuJLSe2l9a3uYQhZSUZGBDqylSrnbxoe2KoiC10iw0uDSC0Ys4IYrNIZmU1j4+kiMG+1yC0364q&#xA;q6TpOnaRYRafp0C29nDX04lqd2JZiSSSxZiSSTUnFUXiqB13TDqui3+mer6H163lt/V48+PqoUrx&#xA;qtevSo+YxVLvLPlW30L1rme5+t6ldBEnumURIFUnhFFHVuCcmJoWZiTuTsAqqah5P8sandyXk9qP&#xA;rTmlxNbyy27SMoCj1TA8fMqoAHOtBiqaWNhZWFpHZ2MCW1rCKRQRKERQTU0A8SanFVfFXYqxnyz5&#xA;LsfLlzLc/XJLjkotbJZuKiCDnVYlp9pmPFSx3IVe9SVXXPkvQtR1tNct7uaKZZop547WSMwyzW5B&#xA;VnDI5VuKhW4MvJdmrirJsVdirsVdirsVdirsVU57a3nCCeJJRG6yRh1DcXXdWWvRh2OKtfWrXnw9&#xA;ZOfP0uPIV58eXClftcTWnhiqrirsVdiqSeY/KWi67Jbzal6qtbJLAjRSvDWO5MfqIShB+IxJ0NfD&#xA;FUbJaaJqUCQSQ217b27q0cTLHKkboKKQpDBWUdMVR2KuxVDalptjqVnJZX0Kz20tC8bV6qwZWBFC&#xA;GVlBBG4O4xVAW2geV7LS30cW8LWEsn7+2um+sepLIwYeoZzIzsSBx5E9BToMVTKzsrOytktbKCO2&#xA;tohSKCFFjjUE1+FVAA3OKq2KvP8Azd+Vo1t9UNq9pb/pSa2nkmmgaaWOWGOWMzRNyXjJ+8XrUFAU&#xA;Ox2VegYq7FXYqkPm/wAsfp+301UkWGfTtRtNQhlYE8TbSh2oBtVkqor44qg/y68nXvlPSLywvNRO&#xA;qS3N9Pe/XHUrI3r8SxlqWq7OGZiNt9sVZVirsVdiqS+ZfLkWtfo56qlxp15FdwStU8eB+PjQj4mW&#xA;oriqC/LvyfL5S0A6S00csYl5wxQrII4kEUcfBDNJNKwZozJ8bkjlxB4qMVZPirsVdirsVdirsVdi&#xA;rsVecal+Ufr+abbWbO6itobfVjqa2pjZl/efUHmanIK0rvpzirVA9TmPiUVVej4q7FXYqlHmfQI9&#xA;bsrSBuIe01Cx1CJnqQGsrqOc0A7lYyo9ziql5U8r22gw6gUSIXOpX1xeXEkKCNSruVt0oAP7q3WO&#xA;P3IJ74qnmKuxV2KvNvOP5Ry67eTXFnex2Qm1OLVGHBmJlS1FsXajDkw6hT8JGxxV6TirsVdirsVd&#xA;irsVdirsVdirsVdirsVdirsVdirsVdirsVdirsVdirsVdirsVdirsVdirsVdirsVdirsVQ9/qFjp&#xA;1pJeX06W1rFT1JpWCqCxCqKnuzEADudsVaXU9NbTl1MXUP6OaMTreeovomJhyEnqV48SN61xVdY3&#xA;9jf2y3VjcRXds5ISeB1kjJUlWoykg0IIOKq+KuxV2KuxV2KuxV2KuxV2KuxV2KuxV2KuxV2KuxV2&#xA;KuxV2KuxV2KuxV2KuxV5fo88z/mHFftKWubnUNQsJnJJrawLcenCorRVU2sbUH7VT1Y4VeoYFdir&#xA;sVY5+Ydu0vlK9lXrZGK+b/jHaSrPKB7mNGA98VYQjMfKp0z/AI8l1/iif5Ig/SNK96XVW9unbChm&#xA;X5cx08uNL09e8vG4+HC4eL8fTr9OBLKMVdirybTtOtbn8w7O8uYg2oprF+puXAMwjjjuvST1DVwn&#xA;prHRQacadsKER5itYE/MX14+M139b0qRZ6AyQ+pKkUlur7lR6UfMr4SGuxxS9RwK7FXYq7FXYq7F&#xA;XYq7FXYq7FXYqk+veatO0W70+1ukleXUZRHF6QUhAZI4jJIWZKIrzpWlTvWlAcVQOredk0/zFDow&#xA;snkDNarPcs4QL9dl9GIxoQfUAYfGaqB25EEBVd5m85LoupWVklqLkzlHu3Mnp+hC8qxB6cX5sasV&#xA;XavE7jFWSYq7FWJedvOOpaHPBBp1nFeSmCa6nWV2T4YioSNOIb4pSzfF0Xj0NcVUfOfnW70ptHuN&#xA;PaJrC5ikv7yV1LFrSBoOax/EoVmjnLBt9wPHFWZ4q7FXl1xIukfmEizArBFqaTqNqmLVIZIEcf5P&#xA;1yZ1/wBiThV6jgV2KsPtPzHsrzWrO1tLVn0u+kEFvqbvw9R2jaRWjhZeTRnhxDEgnqAV+LFUV+Y7&#xA;n/Cs1uCVW7ntreUg0BiknQSoxH7MkfJCO9aYqxMgL5L0Q0AZ9avuR7n4r4An6ABhQy78ujy8pWsg&#xA;3SWa7libs0cl3K8br4qyMGU9xvgSyTFXYq8t8uXX6R/MEAL6V1DeXt7dWj7SwRLG9rH6i9mf1kYd&#xA;jX4Sw3wqukKW/wCZLyS/FFHrEYkY7mtxpqRxV3/ZlnRR4ADFD1DAl2KuxV2KuxV2KuxV2KuxV2Ku&#xA;xV5N5qVW81avNJ8Uq3llbws1SVjMVswiSvRTJIxoP2j44UIr8xOY8zymM8ZzZaf9UbpScXk/pMP9&#xA;WQocVd+YFG83PGKepLa6XEg7lpL64RB9LNQYq9PwJdirAPPpCeZbDlt6tlPwPj6UsfP7vVX78IQU&#xA;k1hbaXQPJvrgfVH0CYTBtl9No7LlWv8Ak4hXpPluS5l8u6XJdEm5e0gact9oyGJS1feuBKY4qwP8&#xA;0NMt5n0ydzQ3Zn0ydAeJaKWF5wwI/aja3+Hw5HCFZF5M1O71Py1Z3d4Q1yfUiklGwlMErQ+sAAAB&#xA;KE50G2+1cCprdQC4tZoCeImRoy3WnIEVxV5z+Wem3EerytqWhvDeQ2sIF/cQMjQSRD02t4pJECuG&#xA;Lu3KGRh1r1FVXoOp6XY6pZSWN9H6ttKVLoGZDWNw6EMhVlKsoIIOKqUWg6NHpa6V9Tik05f+PaZf&#xA;VRiW5ln9TlyYv8RZqknfriqORERFRFCooCqqigAGwAAxVvFXYq7FUjufJui3GtjWJBL9YMkc8kIk&#xA;YQvNCqrFIyeKBF2BANASCQMVTzFXYq7FXYq7FXYq7FXYq7FXz/8A85Ia3+ePlWRte8ra9FbeUpIg&#xA;tzC66fHLbzcQvCNrlfVl9WnJRGS4PLsBir5wsfze/OvX9Ws9LtvNepteahcRW1vHDO0VZJWEaAen&#xA;x7tir7lj/LvTPV06ea9vJp7EWpuGeXl9bmslQRTXBkDyc+USsxVxyp8XLFWRXGnafczwXFzaxTT2&#xA;x5W00kau8bHujEEqfliqjd6Dot5f2+o3VlDNfWtPq9y6KXTiSVox/lJJXwO4xVHYq7FUs1/yzoXm&#xA;C2S21i0W7hjbkisWUio4sOSFTxdTxZa0YbEEYqrX+haJqFtHa3+n215bQ/3UE8McsaUHH4VcEDbb&#xA;bFUbirsVecfmncS/pKxisyGvobK6MEbUI+sXUkMVrt4s6Mo+nCFZ9pun2+nada6fbAi2s4Y7eEMa&#xA;nhEoRanuaDAqJxV2KuxV2KuxV2KuxV2KuxV2KuxV2KuxV2KuxV2KuxVg/wCa35veV/y30Zb3VmM9&#xA;9chxp2mRGks7JSu5qEReQ5OenudsVfNWgeUPzR/5yI8yLr3mS4fS/J9s7CF1UiFErvDZRt9tzSjS&#xA;tsO5JAXFWV+Rf+cfLzy7/wA5GLM1mB5U0yB9T0ierMj8VEEMbN/v6OR+bV68a9DTFX1FirsVdirs&#xA;VdirsVdirsVdirzDzBBqNz+YRV7eV2N3paWXGJ/TNpayJdSSGTiUqskk1d+yjvuVen4FdirsVdir&#xA;zPz3+Z/mHyzcXqDT7WSOC6gitE9QvLOk1tPKqcWMNJZZbf01C8uIPKjbgKvTMVdirsVeYec/zXvd&#xA;F8zaho1pNphSyihe5muXZfqZmaHg1yDJGXEiyP8ACgAT4Cz/ABhQq9D0a+k1DR7G/lga1lu7eKd7&#xA;Z92jaVA5Rum6k0xVGYq7FXYq7FXYq7FXYq7FWN+d/wAu/KHneztbTzLYLfQ2U63NvUlHVl+0vNSG&#xA;4ONnWtD9AxVP7W1tbS2itbSFLe2gURwwRKEjRFFFVVUAKAOgGKquKuxV515U/MrVtdu9PEUem3Wm&#xA;3WrXWmTahZ3DuOMFjJcp6UZHJv3sLJ6j8OSryVOLghV6LirsVdirHvP3mY+WfK13rAltoWgMaq12&#xA;X9MmSRUChUoXduVEXkoJ6soqcVSj8vvP955n1XVrKdbGmnR2zObGf1/TmmVmeBmP94UAUl0XhU8Q&#xA;WKk4qzjFXYqwzyZ53vde8w6zpc62yQaUzLbTw+r/AKavryR+vDzovpxen6UnEt+9DbhePNVmeKux&#xA;VjOj655luvNmpaPd2dvDY6Z+8N6jFjcR3J5WgjTlVGRUkWbl1IBXZvhVf//Z</xmpGImg:image>
               </rdf:li>
            </rdf:Alt>
         </xmp:Thumbnails>
      </rdf:Description>
      <rdf:Description rdf:about=""
            xmlns:xmpTPg="http://ns.adobe.com/xap/1.0/t/pg/"
            xmlns:stDim="http://ns.adobe.com/xap/1.0/sType/Dimensions#"
            xmlns:xmpG="http://ns.adobe.com/xap/1.0/g/">
         <xmpTPg:MaxPageSize rdf:parseType="Resource">
            <stDim:w>115.176432</stDim:w>
            <stDim:h>119.184973</stDim:h>
            <stDim:unit>Millimeters</stDim:unit>
         </xmpTPg:MaxPageSize>
         <xmpTPg:NPages>1</xmpTPg:NPages>
         <xmpTPg:HasVisibleTransparency>False</xmpTPg:HasVisibleTransparency>
         <xmpTPg:HasVisibleOverprint>False</xmpTPg:HasVisibleOverprint>
         <xmpTPg:PlateNames>
            <rdf:Seq>
               <rdf:li>Cyan</rdf:li>
               <rdf:li>Magenta</rdf:li>
               <rdf:li>Yellow</rdf:li>
               <rdf:li>Black</rdf:li>
            </rdf:Seq>
         </xmpTPg:PlateNames>
         <xmpTPg:SwatchGroups>
            <rdf:Seq>
               <rdf:li rdf:parseType="Resource">
                  <xmpG:groupName>Default Swatch Group</xmpG:groupName>
                  <xmpG:groupType>0</xmpG:groupType>
               </rdf:li>
            </rdf:Seq>
         </xmpTPg:SwatchGroups>
      </rdf:Description>
      <rdf:Description rdf:about=""
            xmlns:dc="http://purl.org/dc/elements/1.1/">
         <dc:format>image/svg+xml</dc:format>
      </rdf:Description>
   </rdf:RDF>
</x:xmpmeta>
                                                                                                    
                                                                                                    
                                                                                                    
                                                                                                    
                                                                                                    
                                                                                                    
                                                                                                    
                                                                                                    
                                                                                                    
                                                                                                    
                                                                                                    
                                                                                                    
                                                                                                    
                                                                                                    
                                                                                                    
                                                                                                    
                                                                                                    
                                                                                                    
                                                                                                    
                                                                                                    
                           
<?xpacket end="w"?>
	</metadata>
<g>
	<path fill="#BCBEC0" stroke="#000000" stroke-width="0.5" stroke-miterlimit="10" d="M4.186,2.084
		C4.728,0.458,7.62-0.205,9.125,0.578c1.205,0.603,0.182,2.711,0,4.036c-1.084,8.614,1.266,17.047,3.435,25.781
		c4.036,16.204,2.229,34.576-4.097,52.828c-0.602,1.747-3.253,3.614-4.938,2.771c-1.566-0.843-0.542-3.675,0-5.361
		C10.27,61.238,11.775,44.01,7.86,28.047C5.812,19.794,1.053,11.542,4.186,2.084z"/>
	<path fill="#BCBEC0" stroke="#000000" stroke-width="0.5" stroke-miterlimit="10" d="M26.955,77.803
		c1.266-0.723,0.121-3.012-0.241-4.458c-1.987-8.854-6.023-18.373-0.843-25.541c2.229-3.132,9.036-2.108,10.722,1.927
		c2.53,6.084,0.422,12.951-0.662,19.517c-0.182,1.265-0.904,3.313,0.24,3.855c1.387,0.603,3.676-0.481,4.097-1.927
		c3.494-11.686,2.289-21.204-2.168-25.782C33.28,40.515,24.787,39.43,21.353,46.9c-3.916,8.614-2.289,19.517,1.084,28.974
		C22.979,77.441,25.57,78.646,26.955,77.803z"/>
	<path fill="#BCBEC0" stroke="#000000" stroke-width="0.5" stroke-miterlimit="10" d="M56.351,15.156
		c-0.604-1.928,0.121-5.301,2.168-5.783c1.807-0.421,3.132,2.65,3.434,4.518c2.229,15.059,0.542,31.986-1.084,50.66
		c-0.843,9.156,0.362,18.131,1.265,26.806c0.241,2.228,1.084,5.24-0.662,6.626c-1.266,1.023-3.494-1.386-3.855-2.952
		c-2.108-10.3-1.686-20.902-0.421-31.383C59.845,42.504,59.543,25.035,56.351,15.156z"/>
	<path fill="#BCBEC0" stroke="#000000" stroke-width="0.5" stroke-miterlimit="10" d="M91.108,31.239
		c1.084-1.445,3.012-3.976,4.518-3.012c1.506,1.024-0.12,3.735-0.843,5.361c-2.892,6.747-8.312,9.939-15.06,9.277
		c-3.795-0.422-6.867,1.626-7.049,7.289c-0.422,13.312,8.192,21.023,20.18,27.228c1.506,0.783,2.771,2.891,2.35,4.518
		c-0.301,1.205-2.711,0.964-3.675,0.241c-8.734-6.928-19.095-6.747-23.131-27.709c-0.724-3.734-0.121-7.771,2.107-11.987
		c2.771-5.24,5.662-5.782,8.614-4.939C83.879,38.829,87.494,36.118,91.108,31.239z"/>
	<path fill="#BCBEC0" stroke="#000000" stroke-width="0.5" stroke-miterlimit="10" d="M107.01,23.529
		c0.482-2.349,4.218-0.903,5.121,0.663c2.229,3.554,7.35,3.735,9.457,7.47c1.507,2.65,3.313,4.939,4.939,7.349
		c2.59,3.855,4.699,8.253,3.434,12.229c-1.987,6.023-6.927,10.602-13.733,11.385c-2.831,0.301-5.421-0.301-8.132-0.663
		c-1.507-0.181-3.555-1.084-3.676-2.59c-0.121-1.325,1.867-2.41,3.252-2.349c9.639,0.542,17.529,0.241,17.771-7.108
		c0.301-9.518-5.181-17.228-13.312-19.758C109.601,29.372,106.227,27.143,107.01,23.529z"/>
	<path fill="#BCBEC0" stroke="#000000" stroke-width="0.5" stroke-miterlimit="10" d="M150.08,24.613
		c1.084-1.084,3.435-1.988,4.519-0.843s0.181,3.494-0.845,4.699c-5.301,6.023-10.722,12.229-14.154,20.601
		c-1.988,4.879-0.241,7.229,4.758,7.108c2.711-0.12,5.542-0.542,8.312,0c1.808,0.301,5,0.723,4.939,2.53
		c-0.121,1.928-3.313,2.168-5.181,2.41c-10,0.964-16.687-0.844-16.687-5.603C135.864,45.214,139.9,34.312,150.08,24.613z"/>
	<path fill="#BCBEC0" stroke="#000000" stroke-width="0.5" stroke-miterlimit="10" d="M235.015,40.275
		c-1.146-0.783-2.049-2.65-1.386-3.855c0.603-1.205,2.591-1.446,3.795-0.904c4.939,2.229,9.578,5.663,11.204,9.638
		c4.94,12.348,4.157,25.179-0.18,36.986c-0.843,2.349-1.566,5.782-4.036,6.264c-1.748,0.362-2.048-3.554-1.386-5.24
		c3.132-7.831,5.301-15.481,3.674-24.577c-2.108-11.626-4.096-14.096-7.349-16.083C238.026,41.66,236.28,41.118,235.015,40.275z"/>
	<path fill="#BCBEC0" stroke="#000000" stroke-width="0.5" stroke-miterlimit="10" d="M262.543,77.2
		c1.325-0.903,0.603-3.313,0.12-4.879c-1.928-6.264-3.854-12.951-2.048-20.119c1.024-4.156,3.374-5,5.181-3.554
		c3.013,2.53,4.699,7.65,2.65,15.963c-0.361,1.446,1.084,3.192,2.53,3.554c1.205,0.301,3.011-0.783,3.071-2.048
		c0.542-9.156-1.324-16.686-5.18-20.541c-2.952-2.951-8.554-2.048-10.783,2.53c-3.976,8.252-2.47,18.251,0.604,26.866
		C259.17,76.357,261.278,77.983,262.543,77.2z"/>
	<path fill="#BCBEC0" stroke="#000000" stroke-width="0.5" stroke-miterlimit="10" d="M305.071,31.661
		c-0.663-1.265-2.229-3.192-3.554-2.47c-1.325,0.722-0.182,3.012-0.241,4.578c-0.121,1.566,0.12,2.952-0.181,4.698
		c-1.747,10.903-0.604,21.926,0.421,32.95c0.36,3.855-0.663,7.71-0.241,11.565c0.12,1.446,0.481,4.458,1.867,3.976
		c2.169-0.783,3.494-3.674,3.434-5.903c-0.542-12.77-4.396-25.48-2.107-38.009C305.251,39.01,306.877,35.215,305.071,31.661z"/>
	<path fill="#BCBEC0" stroke="#000000" stroke-width="0.5" stroke-miterlimit="10" d="M315.311,30.817
		c0.181-1.385,1.867-3.072,3.191-2.65c1.506,0.362,2.108,2.59,1.929,4.096c-2.289,18.553-6.266,38.552-1.146,49.937
		c0.723,1.687,3.072,3.855,0.301,5.603c-1.626,1.024-4.639-0.663-5.06-2.47C311.034,68.406,312.661,49.792,315.311,30.817z"/>
	<path fill="#BCBEC0" stroke="#000000" stroke-width="0.5" stroke-miterlimit="10" d="M325.009,145.75
		c0.965-1.205,1.386-3.493,0.182-4.457c-1.266-1.024-3.916-0.542-4.879,0.783c-11.325,15.421-7.53,25.962-1.024,34.095
		c1.808,2.349,5.301,1.988,6.808-0.723c0.603-1.146-0.844-3.133-2.108-3.254c-4.036-0.361-5.783-3.252-5.482-11.686
		C318.323,155.027,321.154,150.69,325.009,145.75z"/>
	<path fill="#BCBEC0" stroke="#000000" stroke-width="0.5" stroke-miterlimit="10" d="M299.468,141.293
		c-0.06-1.566,1.566-3.374,3.134-3.554c1.385-0.12,2.95,1.566,3.071,3.012c0.604,8.916,1.387,18.674,0.421,26.986
		c-0.239,2.53-1.626,3.916-0.542,6.084c0.845,1.808-0.12,5.421-2.107,5.603c-1.988,0.181-3.072-3.192-2.951-5.18l0.783-11.205
		C301.697,155.81,299.89,148.702,299.468,141.293z"/>
	<path fill="#BCBEC0" stroke="#000000" stroke-width="0.5" stroke-miterlimit="10" d="M275.374,140.57
		c1.506-0.723,3.977-0.843,5.061,0.422c0.902,1.205,0.061,3.494-1.205,4.337c-2.289,1.386-6.266,1.325-6.506,4.096
		c-0.663,7.831,1.626,15.481,0.181,22.77c-0.361,1.566-0.904,4.157-2.53,4.157s-2.71-2.53-2.649-4.157
		c0.181-7.108,2.529-14.336,0.603-21.143c-0.783-2.59-1.565-4.277,1.145-6.024C271.519,143.702,273.085,141.714,275.374,140.57z"/>
	<path fill="#BCBEC0" stroke="#000000" stroke-width="0.5" stroke-miterlimit="10" d="M256.339,134.968
		c-1.866,0.241-3.132,2.59-3.434,4.397c-0.542,3.734,1.506,7.229,2.831,10.662c2.349,6.023,2.53,11.927,1.506,17.589
		c-0.422,2.168-1.868,4.215-1.325,6.504c0.422,2.049,0.422,5.482,2.471,5.783c1.928,0.182,2.107-3.312,2.529-5.18
		c1.747-8.132,3.435-16.384-0.602-24.517c-1.084-3.855-1.688-7.71-1.205-11.566C258.206,137.438,257.845,134.787,256.339,134.968z"
		/>
	<path fill="#BCBEC0" stroke="#000000" stroke-width="0.5" stroke-miterlimit="10" d="M225.016,138.522
		c-1.325-0.422-3.073,1.145-3.253,2.47c-1.084,6.987,0.723,14.517-2.53,22.77c-1.325,3.494-0.301,5.542,2.53,8.012
		c1.324,1.084,1.265,2.47,1.746,4.276c0.422,1.326,1.747,3.555,2.952,2.953c1.565-0.783,1.386-3.375,1.084-5.061
		c-0.422-1.928-2.048-3.434-3.132-5.12c-1.687-2.65-2.35-5.482-1.023-8.313c1.445-3.012,3.976-5.12,2.951-18.011
		C226.22,141.112,226.341,138.944,225.016,138.522z"/>
	<path fill="#BCBEC0" stroke="#000000" stroke-width="0.5" stroke-miterlimit="10" d="M210.799,138.823
		c-1.626-0.121-3.012,2.349-2.771,3.976c1.386,9.879,0.783,20.3,0.421,30.601c-0.06,1.747,0.482,4.396,2.229,4.879
		c1.386,0.361,2.409-2.107,2.529-3.554c0.783-10.542,0.845-21.143,0.121-31.625C213.208,141.413,212.486,138.883,210.799,138.823z"
		/>
	<path fill="#BCBEC0" stroke="#000000" stroke-width="0.5" stroke-miterlimit="10" d="M178.03,138.522
		c0.904,0.723,0.783,2.65,0,3.554c-8.252,9.758-8.554,20.782-2.952,34.697c0.482,1.266,0.843,3.615-0.422,3.977
		c-1.687,0.481-4.096-0.844-4.638-2.471c-3.252-10.843-3.132-18.553-2.771-22.167c0.604-6.024,2.59-12.047,7.409-16.867
		C175.44,138.401,177.126,137.739,178.03,138.522z"/>
	<path fill="#BCBEC0" stroke="#000000" stroke-width="0.5" stroke-miterlimit="10" d="M155.983,139.967
		c-0.061-1.566,0.663-4.036,2.229-4.096c1.566-0.121,2.53,2.289,2.65,3.795c1.265,13.312,2.048,26.745,0.301,39.636
		c-0.181,1.566-2.349,3.072-3.976,2.771c-1.266-0.182-1.145-2.41-1.024-3.675C157.309,165.328,156.767,152.678,155.983,139.967z"/>
	<path fill="#BCBEC0" stroke="#000000" stroke-width="0.5" stroke-miterlimit="10" d="M127.25,138.221
		c0.421-1.265,2.289-2.892,3.435-2.229c1.205,0.723,0.902,2.952,0.421,4.277c-4.819,13.915-5,26.986-0.182,39.033
		c0.604,1.386,0,3.615-1.324,4.398c-1.023,0.662-3.012-0.303-3.373-1.447C122.01,168.219,122.793,153.039,127.25,138.221z"/>
	<path fill="#BCBEC0" stroke="#000000" stroke-width="0.5" stroke-miterlimit="10" d="M108.818,140.148
		c-0.964-0.844-2.893-2.229-3.554-1.205c-0.965,1.385-0.182,3.734,1.023,4.879c9.096,8.373,10.18,19.396,4.397,35.299
		c-0.542,1.506-0.422,3.855,0.902,4.76c1.084,0.723,3.013-0.543,3.435-1.807C122.431,158.701,116.95,146.955,108.818,140.148z"/>
	<path fill="#BCBEC0" stroke="#000000" stroke-width="0.5" stroke-miterlimit="10" d="M85.024,144.003
		c1.506,0.301,3.854,1.205,3.795,2.771c0,1.566-2.41,2.59-3.977,2.53c-8.854-0.361-13.733-0.421-13.854,3.855
		c-0.422,11.747,0.361,20.662,2.952,22.588c0.963,0.724,0.18,2.953-0.904,3.555c-1.385,0.662-4.036,0.662-4.578-0.783
		c-3.675-9.156-3.312-19.577-1.205-29.516c0.844-3.855,4.217-5.181,7.409-5.181C78.097,143.823,81.65,143.281,85.024,144.003z"/>
	<path fill="#BCBEC0" stroke="#000000" stroke-width="0.5" stroke-miterlimit="10" d="M51.472,132.438
		c-1.325-0.12-2.289,2.35-1.808,3.554c3.977,10,5.482,19.758,5.181,30.119c-0.964,4.338-2.53,8.614-2.951,13.012
		c-0.121,1.625-0.241,4.276,1.325,4.758c1.506,0.482,2.83-1.807,3.434-3.252c1.747-4.276,2.771-8.854,3.373-13.434
		c0.481-3.374-0.181-6.807-0.301-10.24c-1.566-6.807-2.47-13.734-4.698-20.36C54.423,134.848,53.279,132.679,51.472,132.438z"/>
	<path fill="#BCBEC0" stroke="#000000" stroke-width="0.5" stroke-miterlimit="10" d="M28.582,133.04
		c1.146-1.325,3.313-3.674,4.578-2.53c1.506,1.446,0.604,4.518-0.602,6.205c-13.434,18.734-14.879,32.046-2.65,40.781
		c2.048,1.506,3.373,3.133,2.65,4.457c-0.663,1.266-2.29,2.17-3.676,1.146c-7.771-5.421-11.022-13.915-11.686-23.915
		C18.221,150.388,21.534,141.052,28.582,133.04z"/>
	<path fill="#BCBEC0" stroke="#000000" stroke-width="0.5" stroke-miterlimit="10" d="M3.463,131.112
		c-0.121-1.988,0.783-4.698,2.771-4.156c1.627,0.482,1.928,2.951,2.107,4.578c1.205,14.878,1.688,29.757,1.929,44.635
		c0.06,4.879-2.35,8.434-6.386,9.156c-1.204,0.241-3.132,0.182-3.554-1.023c-0.422-1.385,0.903-2.952,1.927-3.977
		c0.965-0.964,3.555-0.181,3.675-1.625C7.499,164.785,4.366,147.196,3.463,131.112z"/>
	<path fill="#BCBEC0" stroke="#000000" stroke-width="0.5" stroke-miterlimit="10" d="M5.812,212.494
		c0.061-1.808-0.422-5.301,1.325-5.181c2.048,0.121,2.409,3.435,2.649,5.421c1.205,9.939,1.868,19.938,1.626,29.878
		c0,1.626-0.723,4.578-2.349,4.277c-1.928-0.361-2.47-3.253-2.65-5.181C5.511,232.009,5.631,222.191,5.812,212.494z"/>
	<path fill="#BCBEC0" stroke="#000000" stroke-width="0.5" stroke-miterlimit="10" d="M20.75,209.542
		c-1.626-0.844-4.457,2.892-3.252,4.276c1.988,2.228,1.566,3.252,0.603,5.722c-2.771,6.808,0.422,14.699,1.627,21.867
		c0.181,1.324,1.445,3.975,2.469,3.133c2.048-1.748,3.434-5,2.65-7.531c-1.867-6.625-1.808-12.77-1.023-19.938
		C24.124,214.361,23.161,210.746,20.75,209.542z"/>
	<path fill="#BCBEC0" stroke="#000000" stroke-width="0.5" stroke-miterlimit="10" d="M55.749,216.891
		c-1.205-0.302-2.107,1.626-2.529,2.831c-0.965,2.711,0,5.542,0.603,8.554c1.144,5.722,0.241,11.022-1.748,15.542
		c-0.542,1.145-0.963,3.133,0.121,3.794c1.085,0.724,2.771-0.36,3.675-1.325c4.578-4.697,4.216-11.324,2.409-18.011
		c-0.421-2.168-0.361-4.458-0.783-7.409C57.315,219.419,57.134,217.312,55.749,216.891z"/>
	<path fill="#BCBEC0" stroke="#000000" stroke-width="0.5" stroke-miterlimit="10" d="M72.615,220.867
		c1.145-0.361,2.951-0.664,3.674,0.301c0.603,0.902-0.723,2.047-1.506,2.83c-4.337,4.459-6.927,8.555-6.024,12.711
		c0.423,2.047,3.193,1.385,6.325,1.928c1.205,0.181,2.53,1.988,1.928,3.072c-0.903,1.746-3.192,2.951-5.181,2.951
		c-6.205,0.12-8.614-3.977-7.831-9.578C65.146,227.251,67.917,222.433,72.615,220.867z"/>
	<path fill="#BCBEC0" stroke="#000000" stroke-width="0.5" stroke-miterlimit="10" d="M109.239,211.71
		c-1.626,0.24-2.831,2.469-2.831,4.156c0,9.096-0.361,18.312-0.121,27.467c0.061,1.447,0.783,3.855,2.229,3.735
		c1.687-0.241,2.71-2.59,2.771-4.337c0.542-9.156,0.061-18.432,0.603-27.588C112.01,213.699,110.685,211.529,109.239,211.71z"/>
	<path fill="#BCBEC0" stroke="#000000" stroke-width="0.5" stroke-miterlimit="10" d="M120.443,216.289
		c1.385-1.084,3.434-2.108,5.06-1.447c1.084,0.482,0.302,2.471-0.181,3.555c-2.53,5.602-2.65,15.662-1.626,23.613
		c0.181,1.506,1.867,3.976,0.482,4.457c-1.868,0.603-3.916-1.385-5.061-2.951c-2.048-3.012-1.325-6.686,0-10.662
		c1.446-4.277,1.626-8.916,0.301-13.132C118.938,218.155,119.54,217.071,120.443,216.289z"/>
	<path fill="#BCBEC0" stroke="#000000" stroke-width="0.5" stroke-miterlimit="10" d="M206.101,216.468
		c0.12-1.747,1.084-4.518,2.831-4.457c1.807,0.06,2.95,2.771,2.95,4.578c-0.24,7.709-0.48,15.48-0.602,23.492
		c-0.061,1.385-1.446,3.674-2.65,3.133c-2.048-0.965-3.374-3.676-3.253-5.903C205.74,230.384,205.679,223.335,206.101,216.468z"/>
	<path fill="#BCBEC0" stroke="#000000" stroke-width="0.5" stroke-miterlimit="10" d="M223.389,214.962
		c0.782-1.385,3.312-1.625,4.698-0.842c1.084,0.541,0.844,2.649,0,3.494c-6.084,6.324-6.807,11.444-1.023,17.77
		c0.843,0.843,2.289,1.988,1.807,3.072c-0.603,1.324-2.952,2.649-4.036,1.625c-3.434-3.191-8.011-7.469-7.228-12.106
		C218.389,223.517,221.1,218.878,223.389,214.962z"/>
	<path fill="#BCBEC0" stroke="#000000" stroke-width="0.5" stroke-miterlimit="10" d="M257.664,224.601
		c0.421-1.506-0.903-8.012,0-8.434c6.084-2.951,5.783,7.229,5.783,10.36c0,0.542,1.867,2.649,1.867,4.698
		c0,3.855-1.325,5.783-1.325,10.18c0,4.277-0.422,4.157-4.699,4.157c-0.18,0-0.18-3.132-0.18-3.374V231.83
		c0-1.024-1.566-1.627-1.566-3.855C257.543,225.746,256.037,225.324,257.664,224.601z"/>
	<path fill="#BCBEC0" stroke="#000000" stroke-width="0.5" stroke-miterlimit="10" d="M270.795,229.179l-0.723-0.783
		c0-1.867-1.024-0.241-1.024-1.445c0-1.326-0.301-3.676,0.121-4.88c0.302-0.903,2.229-5.18,2.53-5.301
		c2.349-1.205,4.277-1.024,4.277,2.47c0,1.807,0.902,3.555,0.902,4.578v2.107c0,1.748-1.927,2.049-1.927,4.277
		c0,4.156,1.626,13.312-3.132,13.312C270.073,243.515,270.795,231.528,270.795,229.179z"/>
	<path fill="#BCBEC0" stroke="#000000" stroke-width="0.5" stroke-miterlimit="10" d="M308.625,226.951
		c0.542-0.904-0.302-8.013-0.903-8.252c-2.169-1.084-4.699,0.723-4.699,2.649c0,1.325,1.446,2.349,1.446,4.276
		c0,3.254,0,9.459-0.844,12.41c-0.782,2.229-1.265,4.879,0.844,6.022C313.685,249.238,306.637,230.324,308.625,226.951z"/>
	<path fill="#BCBEC0" stroke="#000000" stroke-width="0.5" stroke-miterlimit="10" d="M314.227,241.287
		c0-2.951-0.121-6.506-0.121-9.638c0-3.675-1.205-13.433,3.675-13.433c1.325,0,3.434,0,3.434,1.625c0,1.627,0.121,2.832-0.903,3.855
		c-1.205,1.205-2.53,2.35-2.048,5.182c0.723,3.854,0.843,8.553,0.843,12.83C319.106,244.839,314.106,244.66,314.227,241.287z"/>
	<path fill="#BCBEC0" stroke="#000000" stroke-width="0.5" stroke-miterlimit="10" d="M323.383,290.921
		c-2.349-0.18-3.493,1.929-5.301,2.832c-2.048,1.023-1.145,5.724-1.145,7.65c0,2.35,2.47,3.252,4.578,3.252
		c1.023,0,1.145-0.723,1.145-1.746c0-2.41-2.048-0.181-2.048-2.65c0-0.903-0.181-3.254,0.422-3.855
		c1.325-1.324,3.734,1.023,3.734-1.928c0-0.602,0-1.807-0.302-2.049C324.286,292.248,323.624,290.921,323.383,290.921z"/>
	<path fill="#BCBEC0" stroke="#000000" stroke-width="0.5" stroke-miterlimit="10" d="M287.06,282.791
		c0.181-2.65-0.121-5.182,1.325-6.627c4.276-4.275,4.035,6.627,3.854,7.65c-0.904,5.542,1.506,10.963,3.434,14.879
		c1.205,2.289,2.771,3.253,1.747,5.662c-2.168,5.119-3.795,11.807-3.854,16.686c0,1.688-0.181,5-1.747,5.061
		c-6.205,0.182-2.59-6.686-2.71-5.781c-0.301,3.07,1.626-6.627,1.626-9.578c0-2.652,1.626-4.88,1.626-7.41
		c0-1.746-3.072-10.18-4.277-11.385c-0.421-0.422-0.603-4.156-0.603-5c0-0.902-0.12-2.107-0.24-2.83L287.06,282.791z"/>
	<path fill="#BCBEC0" stroke="#000000" stroke-width="0.5" stroke-miterlimit="10" d="M261.519,288.996
		c-1.929-0.302-1.446,0.301-1.929,1.324c-1.144,2.409-0.602,8.133-0.602,11.084c0,1.023,0.301,2.65,0.301,3.434
		c0,0.422,0.422,2.047,0.724,2.047c0.301,0,1.324,0.422,2.107,0.422c2.65,0,2.048-5.902,2.048-8.251
		c0-1.929-1.324-4.578-1.324-6.386c0-0.541-0.482-1.625-0.482-1.867C262.362,290.019,261.82,289.055,261.519,288.996z"/>
	<path fill="#BCBEC0" stroke="#000000" stroke-width="0.5" stroke-miterlimit="10" d="M251.881,290.32
		c-4.818-1.386-3.675,5.48-3.675,9.156c0,2.229-0.301,5.602,1.205,7.107c0.542,0.602,0.121,0.904,1.146,1.326
		c1.626,0.723,2.95-1.205,3.433-2.049c0.301-0.783,0.301-2.529,0.121-3.434c-0.421-1.928,0.301-5.903-0.421-7.35
		C252.905,293.453,253.568,290.8,251.881,290.32z"/>
	<path fill="#BCBEC0" stroke="#000000" stroke-width="0.5" stroke-miterlimit="10" d="M219.834,290.8
		c-1.022,0-2.529-0.301-2.831,0.724c-1.023,3.072-1.445,6.927-1.445,10.36c0,2.049-0.422,4.699,1.205,5.422
		c3.253,1.625,3.675-3.855,3.675-6.626c0-1.808,0-3.976,0-5.783C220.438,294.054,220.738,290.921,219.834,290.8z"/>
	<path fill="#BCBEC0" stroke="#000000" stroke-width="0.5" stroke-miterlimit="10" d="M206.824,291.223
		c-0.843-0.06-1.446,0.422-1.928,0.903c-1.446,1.445,0.301,2.047,0.301,3.373c0,2.65,0,5.603,0,8.252c0,0.783,0,2.108,0.602,2.41
		c1.747,0.844,3.977,0.844,3.977-1.625c0-1.928,1.023-6.687-0.301-8.012c-0.542-0.604-0.421-2.47-0.421-3.554
		C209.053,291.042,208.028,291.285,206.824,291.223z"/>
	<path fill="#BCBEC0" stroke="#000000" stroke-width="0.5" stroke-miterlimit="10" d="M198.391,292.248
		c-3.494-0.121-1.446,2.229-3.072,3.854c-0.421,0.422-1.325,0.903-1.928,1.446c-0.724,0.783,0.301,7.107,0.301,8.312
		c0,0.422,0,2.35,0.12,2.471c0.603,0.602,1.325,0.783,2.107,1.084c3.555,1.746,3.253-5.481,3.253-7.529
		C199.173,300.378,199.475,292.308,198.391,292.248z"/>
	<path fill="#BCBEC0" stroke="#000000" stroke-width="0.5" stroke-miterlimit="10" d="M57.978,285.44
		c-5.481,0.603-2.53,7.108-2.53,10.36c0,1.326,0,3.072,0,4.459c0,1.445-2.53,2.47-1.325,3.675c5.783,5.782,5.603-2.832,5.603-6.929
		c0-2.709,0-5.48,0-8.131c0-0.301,0.782-0.783,0.903-1.205C61.652,285.44,58.58,285.32,57.978,285.44z"/>
	<path fill="#BCBEC0" stroke="#000000" stroke-width="0.5" stroke-miterlimit="10" d="M69.664,285.621
		c-1.205,0-3.132-0.481-3.132,1.146c0,1.506,1.205,3.735,1.205,5.903c0,2.107-1.626,3.131-1.626,5.181
		c0,3.252,0.422,7.71,0.422,10.239c0,1.146,5.18,2.049,5.18-1.205c0-2.649-2.229-9.758-0.301-11.686
		c0.604-0.603,0.301-4.879,0.301-5.902C71.711,287.067,72.133,285.742,69.664,285.621z"/>
	<path fill="#BCBEC0" stroke="#000000" stroke-width="0.5" stroke-miterlimit="10" d="M10.27,283.693
		c-4.879,0.241-0.182,9.458-0.182,11.204c0,2.108-1.928,3.253-1.928,5.181c0,2.049-0.843,8.131,1.626,8.131
		c0.903,0,2.65,0.301,2.65-0.902c0-2.471,0.301-5.422,0.301-7.951s1.205-5.783,1.205-8.312
		C13.944,289.296,11.775,283.632,10.27,283.693z"/>
	<path fill="#BCBEC0" stroke="#000000" stroke-width="0.5" stroke-miterlimit="10" d="M22.799,284.296
		c-0.723,0-1.506-0.061-2.229,0.121c-2.952,0.723-2.35,8.252-2.35,11.082c0,2.953-0.121,6.205-0.121,9.156
		c0,1.506,0.422,1.928,1.867,1.928c4.458,0,3.013-7.529,3.013-11.084C22.979,293.753,25.028,284.296,22.799,284.296z"/>
	<g>
		<path d="M24.33,102.801H23.6v-4.656c-0.177,0.167-0.407,0.335-0.692,0.503c-0.286,0.168-0.542,0.294-0.769,0.378V98.32
			c0.407-0.192,0.765-0.425,1.07-0.698c0.307-0.273,0.522-0.539,0.649-0.796h0.471V102.801z"/>
	</g>
	<g>
		<path d="M78.004,102.099v0.702h-3.933c-0.005-0.176,0.023-0.345,0.085-0.507c0.1-0.268,0.26-0.532,0.481-0.792
			c0.221-0.259,0.538-0.56,0.955-0.901c0.646-0.53,1.083-0.95,1.312-1.26c0.228-0.31,0.341-0.603,0.341-0.879
			c0-0.289-0.104-0.534-0.311-0.732s-0.478-0.298-0.811-0.298c-0.352,0-0.633,0.105-0.844,0.317
			c-0.211,0.21-0.318,0.503-0.321,0.876l-0.751-0.077c0.051-0.56,0.245-0.987,0.581-1.281c0.335-0.293,0.786-0.44,1.352-0.44
			c0.57,0,1.022,0.159,1.355,0.475c0.333,0.316,0.5,0.709,0.5,1.177c0,0.238-0.049,0.473-0.146,0.703
			c-0.098,0.23-0.26,0.472-0.485,0.727c-0.226,0.254-0.601,0.604-1.126,1.047c-0.438,0.368-0.72,0.618-0.844,0.749
			s-0.228,0.263-0.31,0.396h2.918V102.099z"/>
	</g>
	<g>
		<path d="M128.322,101.11l0.731-0.098c0.084,0.414,0.227,0.712,0.428,0.895c0.201,0.183,0.447,0.274,0.736,0.274
			c0.345,0,0.635-0.119,0.871-0.357c0.236-0.238,0.355-0.533,0.355-0.885c0-0.335-0.109-0.612-0.329-0.83
			c-0.219-0.218-0.498-0.327-0.836-0.327c-0.138,0-0.31,0.027-0.516,0.081l0.081-0.641c0.049,0.005,0.088,0.008,0.117,0.008
			c0.312,0,0.592-0.081,0.84-0.244c0.249-0.162,0.374-0.413,0.374-0.751c0-0.268-0.091-0.49-0.271-0.665
			c-0.182-0.176-0.416-0.264-0.702-0.264c-0.285,0-0.521,0.089-0.71,0.268c-0.188,0.179-0.312,0.446-0.365,0.804l-0.73-0.13
			c0.089-0.49,0.292-0.87,0.608-1.139c0.316-0.27,0.71-0.404,1.182-0.404c0.324,0,0.624,0.07,0.896,0.209
			c0.273,0.139,0.482,0.329,0.627,0.57c0.146,0.241,0.217,0.497,0.217,0.767c0,0.257-0.068,0.491-0.207,0.702
			c-0.138,0.211-0.342,0.379-0.612,0.503c0.352,0.081,0.625,0.25,0.819,0.505c0.195,0.255,0.292,0.575,0.292,0.96
			c0,0.52-0.188,0.96-0.567,1.321c-0.378,0.361-0.858,0.542-1.438,0.542c-0.521,0-0.956-0.155-1.301-0.467
			C128.568,102.008,128.371,101.605,128.322,101.11z"/>
	</g>
	<g>
		<path d="M254.388,102.801v-1.425h-2.582v-0.67l2.716-3.856h0.596v3.856h0.804v0.67h-0.804v1.425H254.388z M254.388,100.707v-2.683
			l-1.863,2.683H254.388z"/>
	</g>
	<g>
		<path d="M309.271,101.122l0.767-0.065c0.059,0.374,0.189,0.654,0.396,0.842s0.457,0.282,0.749,0.282
			c0.352,0,0.648-0.132,0.893-0.397c0.243-0.265,0.365-0.617,0.365-1.055c0-0.417-0.117-0.746-0.352-0.987
			c-0.233-0.241-0.541-0.361-0.919-0.361c-0.234,0-0.447,0.053-0.637,0.16c-0.188,0.107-0.338,0.246-0.446,0.416l-0.686-0.089
			l0.576-3.056h2.959v0.698h-2.375l-0.321,1.599c0.357-0.249,0.732-0.373,1.125-0.373c0.519,0,0.958,0.18,1.315,0.54
			c0.356,0.36,0.534,0.822,0.534,1.388c0,0.538-0.156,1.003-0.47,1.396c-0.382,0.482-0.902,0.722-1.562,0.722
			c-0.541,0-0.983-0.151-1.325-0.454C309.516,102.025,309.32,101.623,309.271,101.122z"/>
	</g>
	<g>
		<path d="M16.092,191.134l-0.727,0.057c-0.065-0.287-0.157-0.495-0.276-0.625c-0.197-0.208-0.44-0.312-0.73-0.312
			c-0.232,0-0.438,0.065-0.612,0.195c-0.229,0.168-0.412,0.413-0.544,0.734c-0.132,0.322-0.201,0.781-0.207,1.376
			c0.176-0.269,0.392-0.466,0.646-0.597c0.254-0.129,0.521-0.194,0.8-0.194c0.486,0,0.9,0.181,1.244,0.538
			c0.343,0.359,0.514,0.822,0.514,1.391c0,0.374-0.081,0.721-0.241,1.041c-0.161,0.321-0.382,0.566-0.664,0.736
			c-0.28,0.171-0.601,0.256-0.958,0.256c-0.607,0-1.104-0.225-1.488-0.671c-0.385-0.448-0.577-1.187-0.577-2.214
			c0-1.15,0.212-1.986,0.638-2.508c0.37-0.455,0.87-0.683,1.498-0.683c0.468,0,0.852,0.132,1.15,0.394
			C15.854,190.309,16.033,190.671,16.092,191.134z M13.109,193.699c0,0.252,0.054,0.493,0.16,0.723
			c0.106,0.23,0.257,0.406,0.448,0.527c0.192,0.119,0.395,0.18,0.605,0.18c0.309,0,0.574-0.125,0.795-0.373
			c0.222-0.25,0.333-0.588,0.333-1.016c0-0.412-0.109-0.734-0.329-0.973c-0.219-0.236-0.495-0.355-0.828-0.355
			c-0.33,0-0.609,0.119-0.84,0.355C13.224,193.003,13.109,193.314,13.109,193.699z"/>
	</g>
	<g>
		<path d="M61.865,190.578v-0.703h3.852v0.567c-0.378,0.403-0.754,0.938-1.126,1.606c-0.371,0.668-0.659,1.356-0.862,2.062
			c-0.146,0.498-0.239,1.043-0.28,1.637h-0.751c0.008-0.469,0.1-1.035,0.276-1.697c0.176-0.664,0.428-1.303,0.757-1.918
			c0.329-0.616,0.679-1.135,1.049-1.557h-2.914V190.578z"/>
	</g>
	<g>
		<path d="M117.034,192.4c-0.303-0.111-0.528-0.27-0.674-0.475c-0.146-0.207-0.219-0.452-0.219-0.738
			c0-0.434,0.155-0.797,0.467-1.092c0.311-0.295,0.725-0.442,1.242-0.442c0.52,0,0.938,0.151,1.254,0.453
			c0.315,0.302,0.475,0.669,0.475,1.103c0,0.275-0.073,0.516-0.217,0.719c-0.146,0.205-0.365,0.363-0.659,0.474
			c0.365,0.119,0.644,0.312,0.833,0.577c0.191,0.266,0.287,0.582,0.287,0.949c0,0.51-0.18,0.938-0.54,1.283
			c-0.36,0.347-0.833,0.52-1.42,0.52s-1.062-0.173-1.421-0.521c-0.36-0.348-0.54-0.781-0.54-1.301c0-0.387,0.098-0.711,0.294-0.972
			C116.392,192.671,116.671,192.496,117.034,192.4z M116.652,193.91c0,0.209,0.05,0.41,0.147,0.605
			c0.099,0.195,0.246,0.346,0.44,0.453s0.404,0.16,0.629,0.16c0.349,0,0.638-0.112,0.865-0.338c0.227-0.225,0.341-0.51,0.341-0.855
			c0-0.352-0.117-0.643-0.351-0.873c-0.234-0.229-0.527-0.346-0.879-0.346c-0.344,0-0.629,0.113-0.854,0.342
			C116.765,193.285,116.652,193.569,116.652,193.91z M116.887,191.162c0,0.282,0.091,0.512,0.271,0.69s0.417,0.269,0.706,0.269
			c0.281,0,0.512-0.088,0.692-0.267c0.18-0.177,0.27-0.396,0.27-0.651c0-0.268-0.093-0.492-0.278-0.676
			c-0.185-0.182-0.416-0.273-0.691-0.273c-0.278,0-0.51,0.09-0.694,0.269C116.979,190.699,116.887,190.914,116.887,191.162z"/>
	</g>
	<g>
		<path d="M160.835,194.251l0.702-0.065c0.06,0.33,0.173,0.569,0.341,0.718c0.167,0.149,0.384,0.223,0.646,0.223
			c0.225,0,0.422-0.051,0.591-0.153s0.308-0.24,0.416-0.412s0.199-0.403,0.272-0.696c0.072-0.291,0.108-0.59,0.108-0.893
			c0-0.033-0.001-0.081-0.004-0.146c-0.146,0.233-0.346,0.422-0.599,0.566s-0.527,0.218-0.822,0.218
			c-0.493,0-0.909-0.179-1.25-0.536s-0.511-0.828-0.511-1.412c0-0.604,0.178-1.09,0.533-1.457c0.356-0.369,0.803-0.553,1.338-0.553
			c0.387,0,0.74,0.104,1.062,0.312c0.321,0.207,0.564,0.504,0.73,0.891s0.25,0.943,0.25,1.674c0,0.76-0.083,1.366-0.248,1.816
			c-0.165,0.449-0.411,0.794-0.737,1.029c-0.326,0.234-0.708,0.353-1.146,0.353c-0.465,0-0.846-0.129-1.141-0.388
			C161.071,195.082,160.895,194.718,160.835,194.251z M163.827,191.625c0-0.418-0.112-0.752-0.335-0.998s-0.492-0.369-0.806-0.369
			c-0.325,0-0.607,0.132-0.849,0.396c-0.24,0.266-0.36,0.609-0.36,1.031c0,0.379,0.113,0.688,0.343,0.924
			c0.229,0.236,0.511,0.355,0.847,0.355c0.338,0,0.616-0.119,0.834-0.355C163.718,192.373,163.827,192.044,163.827,191.625z"/>
	</g>
	<g>
		<path d="M214.559,195.626h-0.73v-4.655c-0.176,0.168-0.407,0.335-0.691,0.503c-0.285,0.168-0.542,0.294-0.77,0.378v-0.706
			c0.409-0.191,0.766-0.425,1.071-0.697c0.305-0.273,0.521-0.539,0.649-0.797h0.471V195.626z"/>
		<path d="M216.43,192.692c0-0.702,0.071-1.271,0.217-1.698c0.145-0.429,0.359-0.76,0.646-0.992s0.646-0.35,1.078-0.35
			c0.319,0,0.601,0.064,0.84,0.193c0.241,0.129,0.439,0.314,0.598,0.556c0.156,0.242,0.279,0.537,0.37,0.886
			c0.089,0.348,0.133,0.815,0.133,1.405c0,0.698-0.071,1.263-0.215,1.69c-0.144,0.43-0.358,0.761-0.644,0.996
			c-0.286,0.233-0.646,0.351-1.082,0.351c-0.573,0-1.023-0.206-1.352-0.617C216.626,194.617,216.43,193.81,216.43,192.692z
			 M217.181,192.692c0,0.978,0.113,1.627,0.343,1.951c0.229,0.323,0.511,0.485,0.846,0.485s0.618-0.164,0.847-0.487
			c0.229-0.325,0.344-0.974,0.344-1.949c0-0.979-0.115-1.63-0.344-1.952s-0.514-0.482-0.854-0.482c-0.335,0-0.604,0.142-0.803,0.426
			C217.307,191.046,217.181,191.714,217.181,192.692z"/>
	</g>
	<g>
		<path d="M262.508,195.748h-0.729v-4.656c-0.176,0.168-0.407,0.336-0.692,0.504c-0.286,0.168-0.542,0.294-0.77,0.378v-0.706
			c0.409-0.191,0.766-0.426,1.072-0.698c0.305-0.272,0.521-0.538,0.648-0.796h0.471V195.748z"/>
		<path d="M266.514,195.748h-0.73v-4.656c-0.176,0.168-0.407,0.336-0.692,0.504s-0.542,0.294-0.769,0.378v-0.706
			c0.409-0.191,0.766-0.426,1.072-0.698c0.305-0.272,0.521-0.538,0.648-0.796h0.472L266.514,195.748L266.514,195.748z"/>
	</g>
	<g>
		<path d="M307.385,195.748h-0.73v-4.656c-0.176,0.168-0.407,0.336-0.692,0.504c-0.284,0.168-0.542,0.294-0.769,0.378v-0.706
			c0.409-0.191,0.766-0.426,1.071-0.698s0.521-0.538,0.649-0.796h0.472L307.385,195.748L307.385,195.748z"/>
		<path d="M313.096,195.044v0.703h-3.934c-0.005-0.176,0.022-0.345,0.085-0.508c0.101-0.268,0.26-0.531,0.481-0.791
			c0.221-0.26,0.539-0.561,0.956-0.902c0.646-0.529,1.083-0.949,1.311-1.26c0.229-0.31,0.341-0.603,0.341-0.879
			c0-0.289-0.104-0.533-0.311-0.732c-0.207-0.198-0.478-0.297-0.811-0.297c-0.352,0-0.633,0.104-0.844,0.315
			s-0.317,0.503-0.321,0.877l-0.751-0.077c0.053-0.56,0.245-0.986,0.581-1.281c0.336-0.293,0.786-0.439,1.353-0.439
			c0.571,0,1.022,0.159,1.355,0.475c0.333,0.316,0.499,0.709,0.499,1.178c0,0.238-0.049,0.473-0.146,0.701
			c-0.099,0.23-0.259,0.474-0.485,0.728c-0.226,0.254-0.601,0.604-1.126,1.047c-0.438,0.368-0.72,0.618-0.845,0.749
			c-0.124,0.131-0.228,0.264-0.309,0.396h2.919V195.044z"/>
	</g>
	<g>
		<path d="M15.053,258.998h-0.73v-4.656c-0.176,0.168-0.407,0.336-0.692,0.502c-0.285,0.168-0.542,0.294-0.77,0.378v-0.706
			c0.409-0.191,0.766-0.426,1.072-0.698c0.306-0.272,0.521-0.539,0.648-0.796h0.472V258.998z"/>
		<path d="M16.929,257.425l0.729-0.098c0.083,0.414,0.228,0.713,0.428,0.896c0.201,0.183,0.447,0.274,0.737,0.274
			c0.343,0,0.633-0.121,0.871-0.357c0.237-0.238,0.354-0.533,0.354-0.885c0-0.336-0.109-0.612-0.328-0.83
			c-0.22-0.219-0.498-0.327-0.837-0.327c-0.138,0-0.31,0.026-0.515,0.081l0.081-0.641c0.049,0.004,0.088,0.008,0.118,0.008
			c0.311,0,0.591-0.082,0.84-0.244c0.25-0.162,0.374-0.413,0.374-0.752c0-0.268-0.091-0.489-0.271-0.666
			c-0.183-0.176-0.416-0.264-0.703-0.264c-0.284,0-0.521,0.09-0.71,0.269c-0.189,0.178-0.312,0.446-0.365,0.804l-0.73-0.13
			c0.089-0.49,0.292-0.869,0.609-1.138c0.317-0.27,0.71-0.404,1.181-0.404c0.325,0,0.624,0.07,0.897,0.209
			c0.272,0.139,0.481,0.329,0.627,0.57c0.145,0.24,0.217,0.496,0.217,0.767c0,0.257-0.069,0.491-0.207,0.702
			s-0.342,0.379-0.613,0.503c0.353,0.081,0.625,0.25,0.82,0.505s0.292,0.576,0.292,0.96c0,0.521-0.189,0.96-0.568,1.321
			S19.4,259.1,18.821,259.1c-0.522,0-0.956-0.155-1.301-0.468C17.174,258.324,16.977,257.921,16.929,257.425z"/>
	</g>
	<g>
		<path d="M61.436,259.117h-0.73v-4.656c-0.176,0.168-0.407,0.336-0.691,0.504c-0.285,0.166-0.542,0.293-0.77,0.377v-0.707
			c0.409-0.191,0.767-0.424,1.071-0.697s0.521-0.539,0.649-0.796h0.472L61.436,259.117L61.436,259.117z"/>
		<path d="M65.649,259.117v-1.425h-2.582v-0.67l2.716-3.854h0.596v3.854h0.805v0.67h-0.805v1.425H65.649z M65.649,257.022v-2.683
			l-1.863,2.683H65.649z"/>
	</g>
	<g>
		<path d="M114.023,258.998h-0.73v-4.656c-0.176,0.168-0.406,0.336-0.691,0.502c-0.286,0.168-0.542,0.294-0.771,0.378v-0.706
			c0.409-0.191,0.767-0.426,1.072-0.698s0.521-0.539,0.649-0.796h0.471V258.998z"/>
		<path d="M115.894,257.438l0.768-0.065c0.058,0.375,0.188,0.654,0.396,0.842c0.207,0.188,0.457,0.283,0.749,0.283
			c0.352,0,0.648-0.133,0.893-0.397s0.366-0.617,0.366-1.056c0-0.416-0.117-0.746-0.353-0.986c-0.233-0.241-0.541-0.361-0.919-0.361
			c-0.235,0-0.447,0.053-0.637,0.16c-0.19,0.107-0.338,0.246-0.447,0.416l-0.686-0.089l0.577-3.056h2.959v0.697h-2.375l-0.32,1.6
			c0.357-0.25,0.732-0.373,1.125-0.373c0.519,0,0.958,0.18,1.315,0.539c0.356,0.361,0.535,0.822,0.535,1.389
			c0,0.538-0.156,1.003-0.471,1.396c-0.381,0.481-0.901,0.722-1.562,0.722c-0.542,0-0.983-0.151-1.326-0.454
			S115.943,257.938,115.894,257.438z"/>
	</g>
	<g>
		<path d="M214.559,258.998h-0.73v-4.656c-0.176,0.168-0.407,0.336-0.691,0.502c-0.285,0.168-0.542,0.294-0.77,0.378v-0.706
			c0.409-0.191,0.766-0.426,1.071-0.698c0.305-0.272,0.521-0.539,0.649-0.796h0.471V258.998z"/>
		<path d="M220.221,254.503l-0.728,0.057c-0.064-0.287-0.157-0.495-0.276-0.625c-0.197-0.208-0.44-0.312-0.73-0.312
			c-0.233,0-0.438,0.065-0.613,0.195c-0.229,0.167-0.411,0.413-0.544,0.734c-0.132,0.322-0.202,0.781-0.207,1.376
			c0.175-0.269,0.392-0.466,0.646-0.597c0.254-0.129,0.521-0.194,0.8-0.194c0.487,0,0.9,0.179,1.244,0.538
			c0.343,0.359,0.514,0.822,0.514,1.39c0,0.374-0.081,0.72-0.242,1.041s-0.382,0.565-0.664,0.737
			c-0.281,0.17-0.601,0.255-0.958,0.255c-0.608,0-1.104-0.224-1.489-0.671c-0.386-0.448-0.577-1.186-0.577-2.215
			c0-1.149,0.212-1.985,0.637-2.508c0.371-0.455,0.87-0.682,1.498-0.682c0.468,0,0.852,0.133,1.15,0.395
			C219.982,253.677,220.162,254.041,220.221,254.503z M217.238,257.068c0,0.251,0.054,0.493,0.16,0.723
			c0.106,0.23,0.256,0.405,0.449,0.526c0.192,0.121,0.394,0.181,0.604,0.181c0.309,0,0.573-0.125,0.795-0.373
			c0.223-0.25,0.333-0.588,0.333-1.016c0-0.412-0.108-0.734-0.329-0.972c-0.219-0.237-0.495-0.354-0.828-0.354
			c-0.33,0-0.609,0.118-0.84,0.354C217.353,256.373,217.238,256.685,217.238,257.068z"/>
	</g>
	<g>
		<path d="M262.508,259.117h-0.729v-4.656c-0.176,0.168-0.407,0.336-0.692,0.504c-0.286,0.166-0.542,0.293-0.77,0.377v-0.707
			c0.409-0.191,0.766-0.424,1.072-0.697c0.305-0.273,0.521-0.539,0.648-0.796h0.471V259.117z"/>
		<path d="M264.428,253.946v-0.702h3.852v0.568c-0.378,0.402-0.754,0.939-1.126,1.607s-0.66,1.355-0.862,2.062
			c-0.146,0.498-0.239,1.043-0.279,1.636h-0.751c0.008-0.468,0.1-1.033,0.275-1.697c0.176-0.662,0.428-1.301,0.757-1.918
			c0.329-0.615,0.68-1.133,1.049-1.556H264.428z"/>
	</g>
	<g>
		<path d="M310.457,258.998h-0.729v-4.656c-0.177,0.168-0.407,0.336-0.692,0.502c-0.286,0.168-0.542,0.294-0.769,0.378v-0.706
			c0.407-0.191,0.765-0.426,1.07-0.698c0.307-0.272,0.522-0.539,0.649-0.796h0.471V258.998z"/>
		<path d="M313.452,255.77c-0.303-0.11-0.528-0.269-0.674-0.476c-0.146-0.205-0.219-0.451-0.219-0.737
			c0-0.433,0.155-0.798,0.467-1.093c0.311-0.295,0.725-0.441,1.242-0.441c0.52,0,0.938,0.15,1.254,0.453
			c0.316,0.302,0.475,0.669,0.475,1.104c0,0.274-0.072,0.516-0.217,0.719c-0.145,0.205-0.364,0.363-0.659,0.474
			c0.365,0.119,0.644,0.312,0.833,0.577c0.191,0.266,0.287,0.582,0.287,0.949c0,0.51-0.18,0.938-0.54,1.283
			c-0.36,0.348-0.833,0.52-1.42,0.52s-1.061-0.173-1.421-0.521c-0.36-0.348-0.54-0.781-0.54-1.301c0-0.387,0.098-0.711,0.294-0.972
			C312.81,256.042,313.089,255.865,313.452,255.77z M313.071,257.28c0,0.208,0.049,0.41,0.148,0.604
			c0.099,0.195,0.245,0.346,0.439,0.453c0.194,0.106,0.404,0.16,0.629,0.16c0.35,0,0.637-0.111,0.864-0.336
			c0.228-0.226,0.341-0.511,0.341-0.856c0-0.353-0.117-0.644-0.351-0.873c-0.234-0.229-0.527-0.345-0.879-0.345
			c-0.344,0-0.628,0.113-0.854,0.341C313.183,256.655,313.071,256.938,313.071,257.28z M313.306,254.533
			c0,0.28,0.09,0.51,0.271,0.689c0.181,0.179,0.417,0.268,0.706,0.268c0.282,0,0.512-0.088,0.692-0.266
			c0.18-0.178,0.27-0.395,0.27-0.65c0-0.269-0.092-0.494-0.278-0.677c-0.186-0.183-0.416-0.274-0.691-0.274
			c-0.278,0-0.51,0.09-0.694,0.269C313.398,254.069,313.306,254.283,313.306,254.533z"/>
	</g>
	<g>
		<path d="M15.053,337.726h-0.73v-4.654c-0.176,0.168-0.407,0.336-0.692,0.502c-0.285,0.168-0.542,0.293-0.77,0.379v-0.707
			c0.409-0.193,0.766-0.426,1.072-0.699c0.306-0.271,0.521-0.537,0.648-0.795h0.472V337.726z"/>
		<path d="M17.034,336.351l0.702-0.064c0.059,0.33,0.173,0.57,0.341,0.717c0.167,0.15,0.383,0.225,0.646,0.225
			c0.225,0,0.422-0.053,0.591-0.154c0.169-0.104,0.308-0.24,0.416-0.412c0.107-0.172,0.199-0.404,0.271-0.697
			c0.073-0.293,0.109-0.59,0.109-0.893c0-0.033-0.001-0.082-0.004-0.146c-0.146,0.234-0.347,0.422-0.6,0.566
			s-0.526,0.217-0.821,0.217c-0.493,0-0.909-0.178-1.25-0.535s-0.513-0.828-0.513-1.412c0-0.604,0.179-1.09,0.534-1.457
			c0.356-0.369,0.802-0.553,1.337-0.553c0.388,0,0.741,0.105,1.062,0.312c0.32,0.209,0.563,0.506,0.73,0.891
			c0.166,0.387,0.25,0.945,0.25,1.676c0,0.76-0.083,1.365-0.248,1.816s-0.41,0.793-0.736,1.027
			c-0.326,0.236-0.708,0.354-1.146,0.354c-0.466,0-0.846-0.129-1.141-0.387C17.271,337.181,17.094,336.82,17.034,336.351z
			 M20.025,333.724c0-0.418-0.111-0.752-0.335-0.998s-0.492-0.369-0.807-0.369c-0.324,0-0.606,0.133-0.848,0.396
			c-0.241,0.268-0.361,0.609-0.361,1.031c0,0.379,0.114,0.688,0.344,0.924c0.229,0.236,0.511,0.355,0.847,0.355
			c0.338,0,0.616-0.119,0.834-0.355S20.025,334.144,20.025,333.724z"/>
	</g>
	<g>
		<path d="M59.452,337.025v0.701h-3.933c-0.005-0.176,0.022-0.346,0.085-0.508c0.1-0.268,0.26-0.531,0.48-0.791
			s0.539-0.561,0.956-0.9c0.647-0.531,1.084-0.951,1.312-1.262c0.228-0.309,0.341-0.602,0.341-0.879c0-0.289-0.104-0.531-0.312-0.73
			s-0.477-0.299-0.81-0.299c-0.353,0-0.633,0.105-0.845,0.316c-0.211,0.211-0.318,0.502-0.321,0.877l-0.75-0.078
			c0.051-0.561,0.245-0.986,0.581-1.281c0.335-0.293,0.786-0.439,1.351-0.439c0.571,0,1.023,0.158,1.356,0.475
			s0.499,0.707,0.499,1.178c0,0.236-0.048,0.471-0.146,0.701c-0.097,0.23-0.259,0.473-0.484,0.727
			c-0.227,0.254-0.603,0.604-1.126,1.047c-0.438,0.369-0.721,0.619-0.845,0.75c-0.125,0.131-0.227,0.264-0.309,0.396H59.452z"/>
		<path d="M60.235,334.792c0-0.705,0.072-1.27,0.217-1.699c0.146-0.43,0.36-0.76,0.646-0.992c0.285-0.232,0.645-0.35,1.077-0.35
			c0.319,0,0.6,0.064,0.841,0.193c0.24,0.129,0.438,0.314,0.596,0.557s0.28,0.537,0.37,0.885c0.089,0.348,0.134,0.816,0.134,1.406
			c0,0.699-0.071,1.262-0.215,1.691c-0.145,0.43-0.358,0.76-0.645,0.994c-0.285,0.234-0.646,0.352-1.082,0.352
			c-0.573,0-1.023-0.207-1.352-0.617C60.431,336.716,60.235,335.91,60.235,334.792z M60.986,334.792
			c0,0.977,0.115,1.627,0.343,1.951c0.229,0.322,0.511,0.484,0.847,0.484c0.337,0,0.618-0.162,0.847-0.486
			c0.229-0.326,0.343-0.977,0.343-1.949c0-0.98-0.114-1.631-0.343-1.953c-0.229-0.322-0.514-0.482-0.854-0.482
			c-0.335,0-0.604,0.143-0.804,0.426C61.112,333.146,60.986,333.816,60.986,334.792z"/>
	</g>
	<g>
		<path d="M204.804,337.144v0.703h-3.934c-0.005-0.176,0.022-0.346,0.085-0.508c0.101-0.268,0.26-0.531,0.481-0.791
			c0.221-0.26,0.539-0.561,0.956-0.9c0.646-0.531,1.083-0.951,1.311-1.262c0.229-0.309,0.341-0.602,0.341-0.879
			c0-0.289-0.103-0.533-0.311-0.73c-0.207-0.199-0.478-0.299-0.811-0.299c-0.352,0-0.633,0.105-0.844,0.316
			s-0.317,0.502-0.321,0.877l-0.751-0.078c0.053-0.561,0.245-0.986,0.581-1.281c0.335-0.293,0.786-0.439,1.353-0.439
			c0.571,0,1.022,0.158,1.354,0.475c0.333,0.316,0.5,0.709,0.5,1.178c0,0.238-0.049,0.473-0.146,0.701
			c-0.097,0.23-0.259,0.473-0.485,0.729c-0.226,0.254-0.601,0.604-1.126,1.047c-0.438,0.367-0.72,0.617-0.845,0.748
			c-0.125,0.133-0.228,0.264-0.308,0.396h2.918V337.144z"/>
		<path d="M208.339,337.847h-0.729v-4.656c-0.176,0.168-0.407,0.336-0.692,0.504c-0.286,0.168-0.542,0.293-0.77,0.377v-0.707
			c0.409-0.191,0.766-0.424,1.072-0.697c0.306-0.273,0.521-0.539,0.648-0.797h0.471V337.847z"/>
	</g>
	<g>
		<path d="M254.319,337.144v0.703h-3.933c-0.006-0.176,0.022-0.346,0.085-0.508c0.1-0.268,0.26-0.531,0.48-0.791
			s0.539-0.561,0.956-0.9c0.646-0.531,1.083-0.951,1.312-1.262c0.228-0.309,0.341-0.602,0.341-0.879c0-0.289-0.104-0.533-0.312-0.73
			c-0.207-0.199-0.477-0.299-0.81-0.299c-0.353,0-0.633,0.105-0.844,0.316s-0.318,0.502-0.321,0.877l-0.751-0.078
			c0.052-0.561,0.245-0.986,0.581-1.281c0.335-0.293,0.786-0.439,1.352-0.439c0.571,0,1.023,0.158,1.355,0.475
			c0.333,0.316,0.5,0.709,0.5,1.178c0,0.238-0.049,0.473-0.146,0.701c-0.097,0.23-0.259,0.473-0.484,0.729
			c-0.227,0.254-0.602,0.604-1.126,1.047c-0.438,0.367-0.721,0.617-0.846,0.748c-0.125,0.133-0.227,0.264-0.308,0.396h2.918V337.144
			z"/>
		<path d="M258.942,337.144v0.703h-3.934c-0.005-0.176,0.022-0.346,0.086-0.508c0.1-0.268,0.26-0.531,0.48-0.791
			s0.54-0.561,0.956-0.9c0.646-0.531,1.083-0.951,1.311-1.262c0.229-0.309,0.342-0.602,0.342-0.879c0-0.289-0.104-0.533-0.312-0.73
			c-0.207-0.199-0.477-0.299-0.81-0.299c-0.353,0-0.633,0.105-0.844,0.316c-0.212,0.211-0.318,0.502-0.321,0.877l-0.751-0.078
			c0.052-0.561,0.245-0.986,0.581-1.281c0.335-0.293,0.786-0.439,1.352-0.439c0.571,0,1.023,0.158,1.356,0.475
			s0.499,0.709,0.499,1.178c0,0.238-0.05,0.473-0.146,0.701c-0.098,0.23-0.259,0.473-0.484,0.729
			c-0.227,0.254-0.602,0.604-1.126,1.047c-0.438,0.367-0.721,0.617-0.846,0.748c-0.124,0.133-0.227,0.264-0.308,0.396h2.918V337.144
			z"/>
	</g>
	<g>
		<path d="M285.771,337.847l2.302-3.102l-2.029-2.848h0.938l1.08,1.525c0.225,0.316,0.384,0.561,0.479,0.73
			c0.132-0.217,0.29-0.443,0.472-0.68l1.196-1.578h0.857l-2.09,2.805l2.252,3.146h-0.975l-1.498-2.123
			c-0.083-0.123-0.17-0.254-0.26-0.396c-0.132,0.215-0.227,0.365-0.284,0.447l-1.493,2.072H285.771L285.771,337.847z"/>
	</g>
	<g>
		<path d="M320.52,337.847v-2.521l-2.293-3.43h0.958l1.173,1.795c0.217,0.334,0.418,0.67,0.604,1.006
			c0.18-0.312,0.396-0.662,0.649-1.053l1.153-1.748h0.917l-2.375,3.43v2.521H320.52z"/>
	</g>
	<polygon stroke="#000000" stroke-width="0.1865" stroke-linecap="round" stroke-linejoin="round" stroke-miterlimit="10" points="
		166.525,330.439 182.668,317.607 181.343,321.763 185.018,326.341 191.102,307.728 171.585,309.416 175.199,314.052 
		179.536,313.693 163.393,326.583 	"/>
</g>
</svg>
