<?xml version="1.0" encoding="utf-8"?>
<!-- Generator: Adobe Illustrator 15.1.0, SVG Export Plug-In . SVG Version: 6.00 Build 0)  -->
<!DOCTYPE svg PUBLIC "-//W3C//DTD SVG 1.1//EN" "http://www.w3.org/Graphics/SVG/1.1/DTD/svg11.dtd">
<svg version="1.1" id="Layer_10" xmlns="http://www.w3.org/2000/svg" xmlns:xlink="http://www.w3.org/1999/xlink" x="0px" y="0px"
	 width="325.984px" height="211.174px" viewBox="0 0 325.984 211.174" enable-background="new 0 0 325.984 211.174"
	 xml:space="preserve">
<metadata><?xpacket begin="﻿" id="W5M0MpCehiHzreSzNTczkc9d"?>
<x:xmpmeta xmlns:x="adobe:ns:meta/" x:xmptk="Adobe XMP Core 5.0-c060 61.134777, 2010/02/12-17:32:00        ">
   <rdf:RDF xmlns:rdf="http://www.w3.org/1999/02/22-rdf-syntax-ns#">
      <rdf:Description rdf:about=""
            xmlns:dc="http://purl.org/dc/elements/1.1/">
         <dc:format>image/svg+xml</dc:format>
         <dc:title>
            <rdf:Alt>
               <rdf:li xml:lang="x-default">C DW BD F5_1</rdf:li>
            </rdf:Alt>
         </dc:title>
      </rdf:Description>
      <rdf:Description rdf:about=""
            xmlns:xmp="http://ns.adobe.com/xap/1.0/"
            xmlns:xmpGImg="http://ns.adobe.com/xap/1.0/g/img/">
         <xmp:CreatorTool>Adobe Illustrator CS5.1</xmp:CreatorTool>
         <xmp:CreateDate>2015-02-23T14:55:11+02:00</xmp:CreateDate>
         <xmp:ModifyDate>2015-02-23T14:55:11+02:00</xmp:ModifyDate>
         <xmp:MetadataDate>2015-02-23T14:55:11+02:00</xmp:MetadataDate>
         <xmp:Thumbnails>
            <rdf:Alt>
               <rdf:li rdf:parseType="Resource">
                  <xmpGImg:width>256</xmpGImg:width>
                  <xmpGImg:height>168</xmpGImg:height>
                  <xmpGImg:format>JPEG</xmpGImg:format>
                  <xmpGImg:image>/9j/4AAQSkZJRgABAgEBTQFNAAD/7QAsUGhvdG9zaG9wIDMuMAA4QklNA+0AAAAAABABTQAAAAEA&#xA;AQFNAAAAAQAB/+4ADkFkb2JlAGTAAAAAAf/bAIQABgQEBAUEBgUFBgkGBQYJCwgGBggLDAoKCwoK&#xA;DBAMDAwMDAwQDA4PEA8ODBMTFBQTExwbGxscHx8fHx8fHx8fHwEHBwcNDA0YEBAYGhURFRofHx8f&#xA;Hx8fHx8fHx8fHx8fHx8fHx8fHx8fHx8fHx8fHx8fHx8fHx8fHx8fHx8fHx8f/8AAEQgAqAEAAwER&#xA;AAIRAQMRAf/EAaIAAAAHAQEBAQEAAAAAAAAAAAQFAwIGAQAHCAkKCwEAAgIDAQEBAQEAAAAAAAAA&#xA;AQACAwQFBgcICQoLEAACAQMDAgQCBgcDBAIGAnMBAgMRBAAFIRIxQVEGE2EicYEUMpGhBxWxQiPB&#xA;UtHhMxZi8CRygvElQzRTkqKyY3PCNUQnk6OzNhdUZHTD0uIIJoMJChgZhJRFRqS0VtNVKBry4/PE&#xA;1OT0ZXWFlaW1xdXl9WZ2hpamtsbW5vY3R1dnd4eXp7fH1+f3OEhYaHiImKi4yNjo+Ck5SVlpeYmZ&#xA;qbnJ2en5KjpKWmp6ipqqusra6voRAAICAQIDBQUEBQYECAMDbQEAAhEDBCESMUEFURNhIgZxgZEy&#xA;obHwFMHR4SNCFVJicvEzJDRDghaSUyWiY7LCB3PSNeJEgxdUkwgJChgZJjZFGidkdFU38qOzwygp&#xA;0+PzhJSktMTU5PRldYWVpbXF1eX1RlZmdoaWprbG1ub2R1dnd4eXp7fH1+f3OEhYaHiImKi4yNjo&#xA;+DlJWWl5iZmpucnZ6fkqOkpaanqKmqq6ytrq+v/aAAwDAQACEQMRAD8AmMMnlLU/N2maZpvlawFz&#xA;NKY9X1G/kifVBOkg9Uwap9aE0jxp8amBpnJ+FxF1xV7tDGIokiBZgihQzksxoKVZjuT74qx/W/O1&#xA;jpHmC00e5tbk/WbW4vXvljP1aOO2QuyeoftyEKTwWpA3NKrVVjSfnGzhbZPLl4dZljS6t9MMtsGe&#xA;ykt2uVnMvP0weMbLwqTz26fFirLP8Z+XV0u11Sa69C0vLaK9heRWH7mZeSM1AabHFVY+adE/YmeV&#xA;uyRQTSOfkiIzH6Birv8AE2nf75vv+4fff9UcVd/ibTv9833/AHD77/qjirv8Tad/vm+/7h99/wBU&#xA;cVd/ibTv9833/cPvv+qOKu/xNp3++b7/ALh99/1RxV3+JtO/3zff9w++/wCqOKu/xNp3++b7/uH3&#xA;3/VHFXHzNpoFfRvv+4fff9UcVd/ibTv9833/AHD77/qjirv8Tad/vm+/7h99/wBUcVd/ibTv9833&#xA;/cPvv+qOKu/xNp3++b7/ALh99/1RxV3+JtO/3zff9w++/wCqOKu/xNp3++b7/uH33/VHFXf4m07/&#xA;AHzff9w++/6o4q7/ABNp3++b7/uH33/VHFXDzNppFfRvv+4fff8AVHFXf4m07/fN9/3D77/qjirv&#xA;8Tad/vm+/wC4fff9UcVd/ibTv9833/cPvv8Aqjirv8Tad/vm+/7h99/1RxV3+JtO/wB833/cPvv+&#xA;qOKu/wATad/vm+/7h99/1RxV3+JtO/3zff8AcPvv+qOKuHmGNt49PvnTs31Z0r/sZODD6Rirv0//&#xA;ANq2+/5E/wDN2KvH9L1bSPy7vbjRJrFNX0i1vraK+1AWWqk200MSSW4RnXU4ZXgi4FVSSOnajdVX&#xA;uUE8M8Ec8LiSGVQ8UimqsrCqkHwIxVK9a8s2Or3tnc3bPSzjuYhEpAV0u4vSkDbV+z0pirFV/Jyw&#xA;SIOmv6qupoqwQ6qGtPXS0SBrZbZVNv6PARux5FC/M8uXbFU5832Frp35e3un2iena2dmsFvHUnjH&#xA;EFRBU77KMVZRirsVdirsVdirsVdirsVdirsVdirsVdirsVdirsVQuo6pZ6ekT3Jk/fyelCkUUszs&#xA;/FnoEiV2+yjHp2xVCf4m07/fN9/3D77/AKo4q7/E2nf75vv+4fff9UcVd/ibTv8AfN9/3D77/qji&#xA;rv8AE2nf75vv+4fff9UcVd/ibTv9833/AHD77/qjirv8Tad/vm+/7h99/wBUcVd/ibTv9833/cPv&#xA;v+qOKu/xNp3++b7/ALh99/1RxV3+JtO/3zff9w++/wCqOKo2wv7W/tVubZmaJmdPjR42DRuY3Vkk&#xA;CspVlI3GKvE9Q0Ia/wDm1qpksbyTTItQitLz6paSPYy87KFZXuJTeRKkwjmKGRbeqpShOKvcoYoo&#xA;YkhiQRxRqEjRRRVVRQAAdgMVUdRkuI9PuZLbiLhInaEuCV5hSV5Bd6V8MVfPmk/mT5pvYvq2p+Zb&#xA;jSdLZI5ZddkfSnf63+jZLh7eOeBZrQRPIglRCvqcfAGmKvTvMeo+ZLz8slu5bO39a70uCe+9WaSB&#xA;0nkRWkURCGTYE93GKso+s+av+rdY/wDSdN/2SYq76z5q/wCrdY/9J03/AGSYq76z5q/6t1j/ANJ0&#xA;3/ZJiqya/wDMkELzTWWnxQxKXkke/lVVVRUsxNpQADFUq/x3D/y2aD/3GB/2TYqmltqXmK6t4rm2&#xA;s9Ontp0WSGaO/ldHRxyVlZbQhlYGoIxVUB81EVK2KE9VrM1PblRa/OgxV3/O1f8ALj/yWxV3/O1f&#xA;8uP/ACWxV3/O1f8ALj/yWxV3/O1f8uP/ACWxV3/O1f8ALj/yWxV3/O1f8uP/ACWxV3/O1f8ALj/y&#xA;WxV3o+am+L65Yw16R/VZpaf7P6xFX/gcVd9W81f9XGx/6QZv+yvFUFeQ60mr6Gb66tp4vrkgVILa&#xA;SFg31K53LNPMKUrtx+nFUt8zPcTeZZLY3NxFBDZW8iRwTzQDnLLcK5PpMnKojXriqzy21xF5qhgF&#xA;1cywS2N1I8U9xNOvOOa2CsBK7gECRunjihkPm7zAnl3yxqeuvF66abbyXLQlxGGEa1oXIYL86YpY&#xA;3p35t+XTpi3+rXVlFFK03oyaTcvrMAitVjaeaaa1g4wpD6y+oz0VQQSwriqaaj+ZXkzTrYXN1fsI&#xA;me5jT07e5mdnsr+LTJ1VIo3dit5cRxAAfFWq1WpxVQ82/mX5f8t2sLTiea9uYop7eyW3uQwjmmSF&#xA;WnYRMLYc5Ao9bj8Xw9cVQi/nF5La64rPObNv3cVwLO+5y3Bn+riKCH6vymBkHEPHyBaq9Riq2H85&#xA;/I7XV4k156NtbWy30c/pzsz2whM00zwrH6kKxceLGQD4iF+0QMVZVoWvaZrunrqGmtK1szMg9eCa&#xA;2kDKaGsVwkUg+ld8VSrRINfa1uGtL20itzfX/COW1klcf6bNWrrcRA7/AOSMVYhcfl6IfNX1ubW9&#xA;CXVriSN49Tn0yL9OOyALGfVFzHbvIABxb6rT/IxV6lCjRxIjO0rIoUyPTkxApybiFFT7DFV2Ksa/&#xA;xX+W6aNJefpfR10Vbn0pbj6xbC1F3X1ODPy9P1a/FTr3xVV8/EN5L1Ug1BtyQR0IqMVZBirsVdiq&#xA;UecP+US1v/mAuv8Aky2KsbwoZF5L/wCUO0L/ALZ1p/yYTAlOcVdirsVdirsVdirsVdirsVdiqVaz&#xA;/wAdHQf+Y5/+oG5xVDax5WbUNSN/DfPaytDHBIgRHUrE7up+Lof3rYqt0fypJYasupTX73Tpby26&#xA;RmNEUCZ43Zvh3r+5GKph5g0S113RL3R7t5Etr+JoJniIEgVxQlSwYV+YxVK/N3kTTPM7xvc3V1ZS&#xA;LbXFhO9m8aGeyvOH1i2lLpJ8D+ku6cXX9lhiqVL+UGgLqUd59f1D0YLh7qzsOcH1eB5tUttYlEf7&#xA;n1OMl3YqTycnizAEfDxVR/mz8utL8yXyXs99e2MphS2ulsniVbmCKcXEccoljl2SVagpxO5BJBpi&#xA;qjB+V+gQ3OlXCXF2X0jj9WBeOjcJ3uBz/d7/AByEbU2xVLU/JDynHO11b3V/b3rxPbPeRSQrM1tL&#xA;HJHJAzelvGxk58SPtKpHTdVkvkzybpflLSG0vTnkkheeS5dpRCn7yU1bjFbxwQRrtsscaj2qTiqI&#xA;8s/8c6b/AJjtQ/6jpsVeQ3Ma2n5x3V3ClpJYT65a293NLZWMt2l5JZwFEhd5TdiMqFrIFHA1ZV4i&#xA;uKvc8VUNQhmnsLmGAqs8sTpE0gqgdlIUsB1FeuKvENB/K7zxokcV2mnrqJt41tBp99exySkHTjYP&#xA;Ik3p+msCkLwjPxcCx6nhirOvMvleOy/LMWV1PPJc6bpcFm8kNxcQxuYEVC3po6qan+YVxVk/+GdO&#xA;/wB/X3/cQvv+q2Ku/wAM6d/v6+/7iF9/1WxV3+GdO/39ff8AcQvv+q2KrZfKmkyxtHK968bqUdGv&#xA;74qytsQQZqEHFWGeTvyy8kX+l3N/c6YJBe3t48AM05X6sk7wW/Gj9GgiRvpxVGT+TLvy26zaGb7U&#xA;dARQsmgLqF2k1sij7Vg/rKrKP98SH/UZaBCqnej2nlrWbIXmnXt7PByaN/8AT79XjkQ0eOWNpleO&#xA;RDsyMAw7jFUd/hnTv9/X3/cQvv8Aqtirv8M6d/v6+/7iF9/1WxV3+GdO/wB/X3/cQvv+q2Ku/wAM&#xA;6d/v6+/7iF9/1WxV3+GdO/39ff8AcQvv+q2Ku/wzpta+tff9xC+/6rYq7/DOnf7+vv8AuIX3/VbF&#xA;Xf4Z07/f19/3EL7/AKrYq7/DOnf7+vv+4hff9VsVQV5o9pZavocsMlyzNeSKRPdXM60NlcnZZpJF&#xA;B260rirIiQBU7AdTiqX6Fr+k67p66hpVwLm0ZmRZACu6Gn2WAah+0u26kEbEYqmGKuxV2KuxV2Ku&#xA;xV2Ksa0TQNJu7W4uLiDnK99f8m5uK0vZgNgwHQYq8YgmuLX83LC21DUIxr9tf21p6xubu+kNsVjB&#xA;id49Hij5yofi5XaAE7inVV9GYqtmaRYnaJQ8oUlEJ4hmA2BahpU96Yq82j/NjzDK91aw+WI5b+C8&#xA;uLKFV1AfV5TYwGa8KzNArViakQHp0aSoqApbFU184+a9Bu/y/muzew236T0+O8tbeeRI5TFOA6Hg&#xA;Wr92Ksh/xZ5V/wCrzY/9JMP/ADVirv8AFnlX/q82P/STD/zVirv8WeWiaR6nbznusEizEDxIj5EY&#xA;ql3mPz1o+m+X9S1CCf1J7S1mmgj4P8ciIWRd1p8TADFWM6P52h0WXTNLgKSeVNKt4dJuL8o4kNzG&#xA;oj9Za9Yo3URN8NeTMSaJuqzf/FOg/wDLV/wkn/NOKsW823OiKJtd0TUJNO18CNJLi3Q8bmMMEEdx&#xA;HIjRScVb4HYck7GhZSqpXl95lhtJ5U1675Rxs61isaVVSR/x7YUMm0/zbo8lhbSTXX754kaT93J9&#xA;oqCei+OBKI/xToP/AC1f8JJ/zTirv8U6J0SaSVj0jignlc/JERmP3Yq7/E2nf75vv+4fff8AVHFX&#xA;f4m07/fN9/3D77/qjirv8Tad/vm+/wC4fff9UcVd/ibTv9833/cPvv8Aqjirv8Tad/vm+/7h99/1&#xA;RxVBXmsWl7q+hxQx3Kst5IxM9rcwLQWVyNmmjjUnfpWuKpV+Z2vwW9nBoTTpb/pUP9bmdggW0Sgl&#xA;QEkfFNyEf+ryPUDFUg8o+ZdP07zNFDb3UU1nrDJbzwROrlLlRxgmCKT9pR6Tmn8nRVOEoem6lpmn&#xA;6nYy2GoW6XVnOAJoJRyRgCGFR8xgS8Ph8p+Z9C8uaFqPle2vNI1qz8razd3i29msr3OoIbB7e1uI&#xA;5opfjmaNqKAJCFbieuKo3zLqv52WiC60y5vZVur/AFsJAbGJxCtpfNDpcHpxWUsphntx6hkkdeWx&#xA;9WMbsqyHyNrH5n3XnzVLbzDDJHoym99KEwFYYRHcqtkYbj6vCsnqQcmb97Ka7n06cSqxOwk/NW+8&#xA;0wPLd6zZXk6wWeqXP6NgWCzBvpWmis5JLZ4JY/RCESv6lK15ndQqrQv+an6GuVrfx2qGO1XSU0+F&#xA;EkiuY7n15CVgE1Vb0yCjKAeteWKoS01/86bDT9Ft5YdR+uQTGG/sLawBt3h/0U2ywXT2lx8PoM/q&#xA;esY/3nMGVOKrir1fRNcsrW1uIJI7tnS+v6mKzupk3vZjs8cToevY4q8oi1TR7/8ANWSdNNj1NH1y&#xA;IW9zFe6lbyRkxWyN6tgLV7eT0pLdZamRRVQTTeqr3zFXYqxK5/LPQpdEstKiub2z/R73ElvfW0wj&#xA;ua3pc3PJuJVvV9Vq/D7ihFcVVvONla2H5f31jaRiK1tLNYLeIdFjjCqiivgoxVk+KuxV2KsS/MuL&#xA;Ub3RLTRtMkWHUNWvoIbaaSvBWtuV8xfZvhKWjAim/TFWHaf5W8x3mkajaWNjYyW9k81hGkt3MwuG&#xA;hULLu0ArWQtGxY7sCThtFM98gahNe+UrB7m5NzeQq1vds6lJklhYo0U6sWImjpxk33apGxGBKZa7&#xA;pbappFzp6yiBrheKzFeYUggglapXp0qMVY5ceSvME0EkLavaASKyEixkqAwp/wAteKKR/lXVrtG/&#xA;w7rEawazp8S8HSohvLZKItzb13p0EsfWNjQ1UozKWR4q7FXYq7FXYq7FXYqlWs/8dHQf+Y5/+oG5&#xA;xVNcVdirsVdirsVdirsVdirsVSryz/xzpv8AmO1D/qOmxV5HezrH+dM31hIbyJtTtUivZZ9UBtWa&#xA;CELAix0tD8ZWgoVDyBWNTsq9xxVBa5cX1vomoXFhH6t9DbTSWkVK8pVjJjWnuwGKvn3R/PGrz6TE&#xA;uteZ7q101uM1/rVtec40vH05pY7X1jDE0MwnH7y3+zz4oFHIoVXqPmO980T/AJYrPc2kDXU+lW8m&#xA;omeV7eVLh0UzL6KwyDZv8oeGKsp+s+av+rdY/wDSdN/2SYq76z5q/wCrdY/9J03/AGSYq76z5q/6&#xA;t1j/ANJ03/ZJirFdd1nXYPNCXl1Y2YtfLmlXWpXg+uSlV9chIpK/VdmEdtcAbb1O+Kpl5QtvN+n+&#xA;W7G3n02yF26G4veV5KrG6uWM9wxAtWoTNIx6nFUDrQ82aDqE/miy0y1e2kQfp7T4LqaRpkQBVu40&#xA;FqD6sCD4uIJeMcaFlTFWQ2upeYbu2iurWz06e2uEWWCeO/lZHjccldWFpQhgagjFVU3Pmqm2nWNe&#xA;3+nTf9kmKpZ5g0rzJrFmsX1S0tLyBxNYahDeyetbzrsJE5WZB2JVlOzKSrbE4qhtD80+bZ72XRNU&#xA;02wg160jEki/XJkiuotlN1ag20lY+Royli0Z2bqrMqnn1nzV/wBW6x/6Tpv+yTFXfWfNX/Vusf8A&#xA;pOm/7JMVd9Z81f8AVusf+k6b/skxV31nzV/1brH/AKTpv+yTFXfWfNX/AFbrH/pOm/7JMVd9Z81f&#xA;9W6x/wCk6b/skxVA3Z1s6toRvxbLEbySiwGRmDfUrnarhQRSvbFUq8/+bNWsL230jSXFtNJF9Zu7&#xA;0ortHGXKRpErgpyco9WYEAL0PKoIVR8hebdcvNal0bVJVvFa2e7trwokcq+lJGkkcgjCxsD66lCq&#xA;ilDWvXEqzXUptQhsZZNPtku7xQPRtpZfQRzUVBk4S8dt/snArC/L35t6Vd2VnP5gSHQ59SFk+nW3&#xA;rSXJkXUZWgt6sIIlUtLGVIBPHqxAIxVNtI/MryZq+oW1jp1680t5RbaX6tcpA8hg+siITvGsXqm3&#xA;/eiPlyKfFSmKpdrf5w+T9I1o6bcyzFLcXP6QvFt7loYTaIjOiOsTLO4MqqyxMxUncYqvh/N3ycZv&#xA;Rup5redpCqxG0vi6Rh0iElyrW6G3pJKqt6lApO5xVRsPzo8kzaal1c3EkM5mNrJawW9zeMtxSST0&#xA;Q1vE4aQRQtIyLuq05AVFVWcQzRzQxzRnlHIodDQiqsKjY74qx3RINfa1uGtL20itzfX/AAjltZJX&#xA;H+mzVq63EQO/+SMVeZarJo6fneouPqcXmL9J2rWjPd2CQvYvaRxtzt3uFumuy9QhEBOyUPCuKvcs&#xA;VdirGE/M3yE2lDVv0zAuml1jS6fmiMzoZBwLKOQ4KWqu3EV6Yqq+e5I5fJOqSRsHje35I6kFWUkE&#xA;EEdQcVZFirsVdirznV6alda1CTU67q9l5fgI/wB2WVnELm8j/wCBN6uKs/jv7GW6ktIrmJ7qEBpr&#xA;dXUyID0LIDyH04qr4qxGKvlDVltyKeVNVnpbkbLp99O390fC3uXb4P5JDx+y6hFWXYq7FWO+fdMh&#xA;ufLl3fKzQalpEM19pd9HQSwXEUTMGU91b7LofhZSVIpiqT/pPzV/1dE/6Ro/64UMq8u309/5f0y+&#xA;uKfWLu0gnm4ii85I1ZqDegqcCUwxV2KuxV2KpVrP/HR0H/mOf/qBucVQPm7yXB5ga3uYrk2Wo2oZ&#xA;IrgIJUaNyC8csdU5CqgrRgVPehYFVR8peRYtDvJdQubs32oyRmCOVY/RiihZlZlSPlIauyKWLMeg&#xA;pTuqynFWAa1+Sfk7WNM0jT7yS846JZXOn2M8ciLLwuYvS9Vj6fEyxfaibjRWJ2NcVTDTfyu8u6dq&#xA;1pfWk11HbWUkdxb6SHQWYuYbMWCXHAIJOYtlCU58P2uPLfFUJqX5QaBf6nPeSahqEcE009yNOjkh&#xA;+rRz3RRp5EDRNJWRogaFyAa8QKnFUVP+V+gTXOq3D3F2H1fl9ZAeOi850uDw/d7fHGBvXbFUnufy&#xA;F8nzadcadFdXttZXjrNeW6fVXilnAlU3DxT28sRlZJ+Bbj+yhFGXlir0GwsobGxtrKAsYbWJIYi7&#xA;F34xqFXkzVLGg3JxVA+Wf+OdN/zHah/1HTYq8ufW7jTPzevbSx1KS2tNQ1e2h1DSVu9PFzPO9lC3&#xA;rx2MmnyXJtRGqrI63anZmHTFXs2KqN9btcWVxbqQGmjeME1oCykb8Sp79jiryDTPyx896VDBPYxW&#xA;NLOJrWz0GfUr25tYlks2tZZo7meGWVA78G9HhTgOvInFWU+ZvLJ0/wDLT9Hm9nrpmlwWZMTenHIY&#xA;EVOZTf7VPHFWT/oD/tZX3/I7/m3FXfoD/tZX3/I7/m3FVsuiRxRPLJql8scalnYz7BQKkn4cVeTH&#xA;TtUbQrW7t729juLPSJNfvQJSJIZdcujIzx0AIeKBbvpvWn0qpRe29tbaYJtMVYLuEctKmtqLILmT&#xA;4YfRZdy0jsFoPt1pvXJIe5Dy1YU+Ke+Zu7fX7wVPjRZVUfQKZFKB13y35XGi3zaw91JpQgkN8k19&#xA;evGYQpLhlMx5Dj2xV5fo9vNpMsOt393qE4BK6gJry4NyNOqfSieWJ1d2tVPPvyb1KbvhQ9dTy5pb&#xA;orpcXrIwDKy6jfEEHcEETYEoXV/Jtle6Te2cVxeJLcwSwo8l9eyIrSIVBZDNRgCdweuKpb/hjzT/&#xA;AL/sfumxRSV6ZZHytBa6X5qmufqKrHBZ+YLa8vobStAqRXUYnpbN+yr/AN23ijEJilmP+GdO/wB/&#xA;X3/cQvv+q2Ku/wAM6b/v6+3/AO1hff8AVbFXf4Z07/f19/3EL7/qtirv8M6d/v6+/wC4hff9VsVQ&#xA;V5o9pZavocsMlyzNeSKRPdXM60NlcnZZpJFB260rirIiQBU7AdTiqA0XXtF1yzN5o97Df2qyNE01&#xA;u4dQ6GjLUfQR4ggjYjFUfirsVdirsVdirsVdirGtE0OyurW4nkku1d76/qIry6hTa9mGyRyog6dh&#xA;iqUXPknzPL51bVRfQjTjfQ30dz6tyLyKGKBYnsEiB+r+hIyszf6xPHnR8VZ5iqy4uILeCS4uJFig&#xA;hVpJZXIVVRRVmYnYAAb4q8wsvzk1HWYbkaFo8T3X16eCxW9uTCklnBp0OoLcScI5XRp1uFVE4/D+&#xA;0QQVxVOvN3mzQ7z8u5LyS7htH1TTory3tZ5Y0l9OdVdfhJqfDbFWR/4t8q/9Xmx26/6TD/zVirv8&#xA;WeVf+rzY/wDSTD/zViqQ+e/Nnl1/Keo2lvrFn9Y1FF06JkuYiyNfSLaiTZv91+tzr2piqW6V538q&#xA;adY+afMrX9q4NzMtnapPH6rwabGLSOGNQST6k8MjR7b8/CmKofT/ACx+XEflu3tptQ0qDzCsazPr&#xA;MEtv60WochM1xCSfhpPvx6FfhNV2xVkXln8wtB1HTAdQ1KxtdVtXNtqVuLiPgs8dOTRkt8UUgIkj&#xA;burCu9RiqK1fVfIur2D2GoarZS2sjRu6LeJGeUUiyoQ8ciMKOgOxxVJZdG/KySN0/Ssa8wV5LrE4&#xA;YV7g/WNjiql5T836JoZg8palqtm8dpCE0XVVniEVzbQgKsctG4x3MS05Lsrj40/aVFWVjzVoBFVu&#xA;wwPRlRyCPEELQ4q7/FOg/wDLV/wkn/NOKrJvMflyaJ4ZplkikUpJG8TsrKwoVYFaEEYqxN9Yg8oq&#xA;ZtFmfUfLcYLS6GQ/1i1QdWsJJAA0a/8ALO7bD+7YACMqp5F58iliSVNG1ApIoZTWz6EVH/HziqLs&#xA;POmgXlpFciV4fUFTFIjc1INCrcOa1BHZjiqI/wAU6D/y1f8ACSf804qgrzWtNvtX0OK1m9SRbyRy&#xA;vF12FlcivxAeOKsR/PS88xw6VawQqY/LFyWj1m5iJ5lmIEUM38lvJUhmH2jRGopo6FYP+XUvmK28&#xA;42o8urzecourWzVFu9mrUZ5iPsNGCfSYb1+HdSRhKA9l/Mex16/8i61aaA8iavNautr6Mnoysdiy&#xA;RyVHB3Wqq1dia4EvOLXStc/xAknkTTtS8p+X7v6laapztBFI0pmdp5o7a6WVAyQ/DJcGP4iwNWpi&#xA;q/RdZ/Oz/F2h22oJcNpZ9CO6LWyCOaL96tzPcsluFilHFWAE0fbijVbFVL8wJ/zOfzVdy6YNUeTS&#xA;pdQuNCt7ezik08Rjy5craz+sYmaS4OoStH6buV6fB9klVW1Sx/NfT7rzFb6VqWoyJZwalf2d8LOy&#xA;aTULu10zSPqMUhW2CsJJ2uU+ABmCFa/CKKp/+WY87WvmLXrHXIZ4dGe71O60KkY9Fo5dYu3czyMv&#xA;qCYq8bRKG4GIggVDUVej4qxrRNdsrW1uIJYrtnS+v6mKzu5k3vZjs8UToevY4q8mn0fypo/5yWth&#xA;ZWWi6bexajbHT7KODy9DB9SaGMu3EhNVW8M5b0+G32aAryOKvfsVWTQwzwyQTxrLDKpSWJwGVlYU&#xA;ZWU7EEdRirEbj8pPIci3AttP/Rr3Vx9akl02R7Jwxt1tHRWtzGVjeFeLINqkt9o1xVGedbW3tPIe&#xA;oWttGsVtb2oihiUUVESiqoHgAKYqyXFXYqw38xNVWyk0tyvqLYfXNauIP9+Q6dauFUe/1q4gp74q&#xA;oLpLxJ5S8nOwm+pxpqWsSbUk/R/AoW2NGlvnSUePBsVZzirFvNCtoeoR+brdSbaJFt/MMKAkvZBi&#xA;VuaDq1ozFz/xWX6njirKEdHRXRgyMAVYGoIO4IIxVvFUJqulWOq2Mllex84XowKko6Oh5JJG60ZH&#xA;RgGVlNQdxiqSaJreo2Wop5c8xuG1Fgx0vVAoSLUIkFTsKKlyiiskY2I+NPh5KirJsVdiqG1NHfTb&#xA;tEUs7QyBVAqSShAAAxV55YXbx2Nuj2Ooq6RIrA6fe7EKAf8AdOFDKvy/u4LjytarGWElu0kFzDIr&#xA;RyxSo5qkkbhXRqEGjAbEHocCWRYql2sade3jWMtncx209lcG4BmhadGBglhK8VkhI/vq15dumKoe&#xA;407zHcwSW9xeadNbzK0c0MlhKyOjCjKym7IIINCDiqV+WfJN35Zs5LTRp7C3ilcySE2lzI7H9kGS&#xA;S8ZyEGyiuwxVOPq3mr/q42P/AEgzf9leKu+reav+rjY/9IM3/ZXirvq3mr/q42P/AEgzf9leKu+r&#xA;eav+rjY/9IM3/ZXirvq3mr/q42P/AEgzf9leKu+reav+rjY/9IM3/ZXirvq3mr/q42P/AEgzf9le&#xA;Kq+iafcWFh9XuJ0uJ2muJ5JY4zEhNxO81AheUjj6lPtHFXj2n6jqOgfmdcaVB5gvLqK71e3i1Ozu&#xA;LrSVv7mea0hYXAsI9Ljf6qI1VHeOdD8LMOhqq9vxVTuiVtpSOdQjEekAZOn7ANQW8MVfPVveagPr&#xA;sdze66fJhupJLe+ik1UTiQ6efQimdv8ASlmE68pQD6RmYCldsVemeY5/NX/Ksl+uWsL3jaXAdTee&#xA;dopVuSi+sPTSGVT8X+WMVZR9Z81f9W6x/wCk6b/skxV31nzV/wBW6x/6Tpv+yTFXnvma58w6t54g&#xA;0xrC0aj2NmAt3IypxkfVbtWP1avGWOxt42+H9oda7Kp/5VuPM1/f6v5iFhZsL6f6lacryVeNrpzP&#xA;CtP9FPJXuDPKrbVVx8yqyP6z5q/6t1j/ANJ03/ZJirRn80sCDptgQdiDezUI/wCkTFWMeW7nzN5f&#xA;v/8ACktjZ/Vij3OgM97NxFsrDnZq/wBVPJrUsONQP3RXrwY4qyj6z5q/6t1j/wBJ03/ZJirvrPmr&#xA;/q3WP/SdN/2SYqlvmGy1TVNJmttU06wW0UCb1/0hNE8DxfGs8cotAY3jI5K4O2KvOtM1zzVE0Hmy&#xA;7k+v6pBEYhbgNEs2nA/YZAu00gpOSIwedF4hfhwoep2+o+Y7m3iubey0+WCZFkhlS/lKsjiqsCLT&#xA;cEHAlU+s+av+rdY/9J03/ZJirvrPmr/q3WP/AEnTf9kmKse1jSvOkOqf4h0OwsY9TCBNQsvrsvpa&#xA;hCgPGN62qKsyf7qlrt9lqr0VTPRfMWuaxp6XtnYWXAlklhkvZllhlQ8ZIZU+qfBJG3wsvY4qjvrP&#xA;mr/q3WP/AEnTf9kmKu+s+av+rdY/9J03/ZJirvrPmr/q3WP/AEnTf9kmKu+s+av+rdY/9J03/ZJi&#xA;rvrPmr/q3WP/AEnTf9kmKu+s+av+rdY/9J03/ZJirvrPmr/q3WP/AEnTf9kmKu9bzU+31Oxh8X+t&#xA;TS/8J9Xi/wCJYq7/AJ2r/lx/5LYq7/nav+XH/ktirv8Anav+XH/ktiryf9Nahc/mZEkn1qyhu9Tt&#xA;bqKW5E0N5CghSH6j6Pq+j9XlILHbflXiXo2KvbcVWySRxRtJIwSNAWd2ICqoFSST0AxViX/K2/IP&#xA;1A336RkEIcIENneCYhommEiwGH1mh9JGk9UJw4jlypiqM88XEFx5F1K4t5FlgmtfUilQhlZGoVZS&#xA;NiCDtirI8Vdirx6DUrqXWPMGsWLU1GR5rTSz9pPrmqXa6bbSlQDX0rfSoZj/AMVuT0JxV6vpOmWm&#xA;laXZ6ZZrwtLGGO3gU7kJEoRanxoMVVY7y0luZrWOeN7m3CG4gVlLxiQEoXUGq8qGleuKquKpL5u0&#xA;ldQ0hpI7hLK/05vrunahLslvcQqaPIdv3TKWSUV3jZh3xVjWn/nHo01rbXF/pt9p8MqI1xcyLC8M&#xA;PJQWLcJGm4KduXp+5oN8aVn4IIqNwehxVCatpVjq2m3Gm36NJZ3aGK4jV3iLIeq842RwD0NDuNsV&#xA;Sb/lXflX/fN1/wBJ99/1WxVDQ6HrnlaML5crqeiR9dBuJP38Q6n6lcyHf/jFOaeDoNsVTrQ/Mela&#xA;1FIbKRhPbsEvLKZWiuYHIrwmhcB0PcbUYbqSN8VTLkvILUciCQvcgUqfxxVvFWKeZtOuNGnufN2i&#xA;0W4hjMmtaeTxivreFalvBLmNF/dyftD4H+HiyKr/APHX/aj1H77H/sqxVPdI1OLVNNt9QijeKO4X&#xA;msUvHmu9KNwZ1qPZjiqLxV2KuxV2KuxV2KuxV2KuxV4sdD/KXWPzJtvMen+d9Gn1S4v4rlbGKawn&#xA;uZZUWFY4oZVk9UVaDsCSrsvcUVe04qpXf1n6rN9VEbXXpt6CzVEZkoeIcqCeNetMVeVaf+W3n+FB&#xA;qlxcaZL5pLzG7vpJLiSK5W4t2tyOKxQ+gluOPoxIpFKgnkS+Ksg81eXJ9N/LhtOg1S4SHTNNhswq&#xA;Jb8ZfQVU5t6kUjgsB0D0xVkv6G1H/q/X3/AWP/ZNiqXeYk1DR/L+p6sdbvnGn2s116fCy+L0Yy/H&#xA;a2rvxpirzz8tPLN9c3ttAdWuRDpXO9lkRbVg1wEOlWLqzQNXlZ2ksrBv9+I3U1KrM/PsvmjQvLNz&#xA;qWl6lfXdzFTkWjsmSGM/bnkRbYO6RjchfpIWrBV4fDqWsWOo/prTr6Ya3M3x3Q5SSXbTFQYpVQVk&#xA;EpCqqqKg8eFKLhQ+iNN0e7udOtbi8uL+yu5okkuLM3KyGGRlBeMuq8W4NtUdcCVPXPKD6jouoaem&#xA;p3aveW01upkl5IDLGUHJabrvuMVeaHRfNckjWCaLcLqRqvGRT9VBp9o3X90Y+/wnlT9nlthtDKdN&#xA;n/w/p1rp/mibUNISzhjgGqi4Eumv6aheX1lVX0Bt/wAfCR+AJwJZbHokcsayR6pevG4DI6zgqykV&#xA;BBA3BxVamkW7zPCmr3bTR09SMXALLXpyAFRiqp+gP+1lff8AI7/m3FUq1j8v9Mv5FvpNSv7TUbZC&#xA;tvqsFwI7iJOpXmVIaOu5RwUPcYq80gh1S746415NeX1s/wDuLkWe6gMtojH4ayTSyQ/XU3ej0HwH&#xA;jVKYUPVtK0zQtU0631Czub97a6QSRk398GAP7LKZqqynZlO4OxwJUfMXlS2m8v6nDbPfS3ElpOkM&#xA;f1+9bk7RsFXi0xBqexxVIfrjf8sV/wD9IF5/1SwoXeTm0WSG20fUv0lpWtEO8VndXV7bCdORb1LY&#xA;LKI2HE1ZF+JP2lXAlln+GdO/39ff9xC+/wCq2Ku/wzp3+/r7/uIX3/VbFXf4Z07/AH9ff9xC+/6r&#xA;Yq4eWdNH+7r7/uIX3/VbFXf4Z07/AH9ff9xC+/6rYq7/AAzp3+/r7/uIX3/VbFXf4Z07/f19/wBx&#xA;C+/6rYq7/DOnf7+vv+4hff8AVbFXf4Z07/f19/3EL7/qtiryS/uLZPzhmtVuFWyfXLN7nRzd2y38&#xA;t/8AU4jHexWxtDcNaInHn/pQHwuaUBUqvcMVdirzNfzG85XVmIINLs7HW3v9Qt/q9zK80MUOnQ+t&#xA;R2hpylk5KtVPFdz8VN1Uy80+bdHvfy4a9uLqCyn1TTYb2KzmmRZAs6q4ABILU3FQO2Ksl/xZ5V/6&#xA;vNj/ANJMP/NWKsK/N/zzodv5LmisNUspr27nhjgiFxEysY3+sNG9G+zIkDR7/wA2Kqv5V6h5T0ry&#xA;jbMdWtEkvuM4WW4iWRbdIkgs0dS54utpDEHH8/LFVXU/OekeZb6bRdO1y2stEt24avqyXMcckx/a&#xA;tLJ+QI8JZ1+z9lDzq0aqEtvJP5NQXtzcC8snhmULbWTXcQhs27yWgVleJ6gFXDVj/wB18RiqNtPP&#xA;uneX7uPTtb1u0v8ASpm4WGvCeEvHX7MN+qEBT2WcDg3R+LU5qsp/xZ5V/wCrzY/9JMP/ADVirv8A&#xA;FnlX/q82P/STD/zVirR81+VGBB1iwIOxBuYaEf8ABYqwXzf/AIV0vRL2+8q6+mkTHj9YstOu4Rbv&#xA;FJIouHW2JdY5BGzv6kAR+QrVumKsHvVstIsP0lYJHaXdiDLp9xEFVlmP2ArDr6jHiw6MDQ1BySHq&#xA;kH5xfl87BJtSazelW+swTxIvsZino/c+RSj5POf5c6xZ3FifMOlXltcxvBcRR30Dco3Uq6nhJUVU&#xA;4qwT9PeSXl9W00XULjSf2LtL65Ekib0ligM3xRkbjkysR+zhQnVrc6Ho8KX/AJM8w2L2NwDcS6Ff&#xA;3oaCYzH1GkhnkaSa2lblU1DIT1QMS2BKfaL+ZfkzVY3X9J29lew7XOn3c0Mc8Z+QdkdfCSNmQ9mO&#xA;KolvP3k1dSTTzq9sZ3jMvMSKYQK0CtNX0w7cWKoW5EKTSgxVbq2qeQtXsnsdT1DTbu1chjHJcQmj&#xA;Kaq6nlVXU7qy7g7jFWM33mq+8sWNzLpmoR+adKhjdokkkD3lsVUkVuR+7uo125B2WULU8pG2xVM/&#xA;0/5s/wCWiw/6RJv+yrFFpno3nTSbzSLG8uJhHcXNvFNNGqSFVd0DMo+E7AnFKM/xToP/AC1f8JJ/&#xA;zTirv8U6D/y1f8JJ/wA04q7/ABToP/LV/wAJJ/zTirv8U6D/AMtX/CSf804q7/FOg/8ALV/wkn/N&#xA;OKu/xRo5NI2nnp19C1uZqf63pxvT6cVeWJfanqP5nRX9sNXSGe+ga1v5rXzFaxxWAijSWxexlsUs&#xA;OMkqsxmkkFOXIkFRir2jFXYqx7VPy/8AKWqW0tteWTNHNcy3khjnuIZPWuE9OYiSKRHCyIeLIG4k&#xA;bEYqt88W8Fv5F1K3t41ightfTiiQBVVFoFVQNgABtirIZJI40aSRgiKKs7GgAHck4q8b/Oaez8y+&#xA;avJ/lKK4glsbu4kudVf1ABHDHxbmsin4X9OOZVNerDxxVm13e3Xmu6l0jRpmtvL9sxh1bWIGKNMy&#xA;Gj2dk69KfZmmX7H2E+OpjVZVY2NnYWcNlZQpbWlsixQQRKFREUUVVUbAAYqrYqtmhimieGZFkikU&#xA;pJG4DKysKFWB2IIxVhlyZ/IUDXUbPdeS4uPq2pPOfTVJ48oK/FLbDb91u6f7r5LRFVQ3lX83tJ1v&#xA;XX0q5tm036w1NHmmcEXIA+w4oPSmNOQSpqOhqCMVZ9irsVYNo2oflbH50k0jTLS0g12Dn6M8cCJG&#xA;ZQCJ4beUDj6qL/eKlO/Xi/FVnOKpZrflrQdctpLfVbC3u1kQpymijkZQRSqF1biR1BxV5HF5e8zQ&#xA;X8nl6C1hvtUso05vHdWqIY2+GOeSMyG4jRqb/umI7ctiTaKeg6P5S81aNplpZ6f5kEogiWNor+yi&#xA;mgBAHL0lt2spVWteIeRyPE4EpZ5z/TkOkT6nr+kWl1HpET3MGq6VeS21/CVWrNAkkXwVA3HrsG+y&#xA;VI2KrzoWnmGVl1K41qd9eMsV414Fh9P6xEqhP3axoPTAQKQKVWorQnDSGeaT+f3kOewtJdWlm0q7&#xA;uEUm2khlmq52IjMKyMy8q8WKio3wJTbV/PXkjWvL2oWNr5g0+G41C1mt7ZbycW1XmjZFqsoV6VPZ&#xA;TtirE/8AFWoGsiWlq9mLgW4vlu5DAQXEZnDfV6+iGO706fF9n4sKGXaPZefvLukWNqws9ftrW3ii&#xA;kt4ybS6j4IFKxSPWC4pSi8xDt1auBKOH5g+W41lS/kk0y+hjklfTr6MwXDCJSz+iG+C4oB1hZ198&#xA;Va/xuv8A1Z7/AO+z/wCyjFU902/h1DTrXUIAyw3kMc8QcAMFlUOvIAkVofHFURirsVdirwnyr+Tf&#xA;n3Tdb0nUL+10T6xZSadJcarFf3013yteQv5YlltUXlfq59VeYUnc1O+KvdsVdirAPzZt2nh0kXVr&#xA;fXmiLJcm+g06O5mlMxtnFoWjtKzFfVOxAoH4k0pXFWtel8y2/wCVkUGo2hudQGk241O4aVVYXQjU&#xA;TVB5EnmCa1xVM/OF7q8vlu+jn0oRwugWRzPGwClxU8QN8VSj9G6d/wAssP8AyLX+mFCb+TrnVrfy&#xA;losFto6rBHY2yxhZ41HERLSi02wJTj9I69/1aP8Ap4j/AKYq79I69/1aP+niP+mKu/SOvf8AVo/6&#xA;eI/6Yqxb8xPLvmPzVosdrb2Ztby0mFzbcrlDBI6gj05kA3UhtmG6tRt91KryfSfJHmfzJfT6UNOu&#xA;LJLOQJrE8nGJ4GBDenA71R5jsyOnJVFH3qgY2h69Fov5mwRLHBrCuEUBDdzQStsKfG0enQ8vfv74&#xA;EoLXdJ/Om60u5trbUdLT1Vo5h9aO5Kg1ZIZuKrGzr8PIrUdip3xV41Dp93d3sWi2FpIdYEvpW9ih&#xA;MM0E8JDciw3g9HZjJ+zsRWq1kh7npifnLa2VtDe/oHUJ4o1Secy3cDSOFoZDxgZASdyAgHyyKVPz&#xA;Bq35uWWi3lxb6TpUsyR/CbS6uZ5o6kcpUge2iExRat6fMFu1T8JVeJWV7f2t3FqunXkp1d5RNFfi&#xA;s8088xA+JR/fetspQdRQLTakkPorTL/ztNp1tNfaRY295JEjXEH16Q8JCAWX4bZxsfBj8z1yKUQ8&#xA;3md0ZH0ywZGBVla9lIIOxBBtMVYG35Var6hijKppZNBYrfsGWP8A30s/1L1QlNga8/8ALrvhtWcR&#xA;DzBFapaRaTpyWsaCJIFvJQgjA4hAv1SnEDamBWOeZPIR1jT7yKPy3oNrqNzG0cepk+pLEX6up+po&#xA;3Lw+LriqUJ+XfntbMWfPRfqgj9EQcbnh6YXjw40pTjtTDaKdpH5b/mHpdsot/NN+tyoIq2pC4twC&#xA;dgsN9p94wAXb+8+VOmBKn5h8v/nRL5a1Gzv73QdasjBIXiubOd7pgEJ/dtD6MXqD9g+j9qmKpj+l&#xA;rHxk/wCRUv8AzThQ7y3YfmrF5e0s2N7p6xfU7f0oL9ZGKL6a0RlihgYUGxBYmvfAlb5lh/NI6DeJ&#xA;rT6DcaY6hbpLaO7jl9MyLXiJHlRttqHFUJqPl3y+NPuiNMtARDIQRBH/ACn/ACcKGaaRceaP0VZc&#xA;dPsivoRcSb2UEjgOo+qn9eBLIMVdirsVdiqldWttd2729zGs0Eo4yROKqw8CDirV5Z2t7ay2t1Gs&#xA;1vMpSWJtwynscVSn/BHlX/q3p/wT/wDNWKpzBBDbwRwQII4YVEcUaiiqqiiqB4AYqvxVJfLXmzTP&#xA;MR1X6hHcINJvW0+driJoeciwRXHONW+MxlLheLEDl1Hw0JVTrFVG+u1s7K4u2jkmW3jeVooEaWVw&#xA;iluMca1Z3NKKo3JxVKvK/my18wLfqlpc6feaZcC1vrG8EXqxyNDHOtTBJPGeUcynZ6joaHbFU7xV&#xA;TuJhBbyzlHkESM5SNS7txFaKo3Zj2GKsY8la9oHmO61TVrTSG07WLaRNP1J7hLf6yeMazxxvLbvM&#xA;p4rMKpzqjVUioxVleKuxVgXkm1/L/XfMeteZtCtna5sL19PkmcAW5ufRjmlubVKkfvkuFBk25bld&#xA;nZnVZ7irsVYt5D/MPSPO1tdXelQSx2lsyKs8s1lJ6nPkRRLW4uZYiAoPGdEahG3WirKcVdirFPJf&#xA;5kaH5wur+HSY5TFZEUumaBo5AXZOkUkkkTVTkFmVGKkMAR0VZXirsVY3pPnX9Iea73y1Jo1/Y3Vj&#xA;bi6ku5zZvbtG8piio1tc3Dq0vFmRZEU8VJNMVZJiqH1CwtdQs5bK7QyW068ZEDMhI9mQqw+YOKvP&#xA;NHvfIOt+btS8pQ2uoi7sVn9WSS+nMbi3eKOYcFummQcrheBkjUOKlagYq9JiijhiSKMcY41CIvgq&#xA;igGKrsVdirsVdirsVdirsVdirsVSvSNDTTdQ1y8WYynWr1L5kK09MpZW1nwBqeW1pyr707YqmmKo&#xA;XVra9utLu7Wxu/qF5PC8dvehBKYZHUhZQjEBihNQDtiqS+QfKM3lXQzpcl3FefvWm+sRwNA7vJvJ&#xA;JOzy3Dyyu9WZ2apxVkmKqV1Abi1mgErwmVGQTRGjpyBHJDvRh1GKpB5N8lx+W21K4e9e/vtVljmv&#xA;Lho4oFZooliUiKFVTkyrV26s3tQBVkmKofUo7OXTrqO+f07J4ZFunMhiCxFSHPqKVZKLX4gRTrXF&#xA;WNeRvJHl3yhc6rb6RdyumqSQXUNjPd3Fz6FvBaw2kaxi4mmJX9z9vbbin2Y0AVZbiriAQQeh22ND&#xA;94xVi3lDyJH5evbm9k1GbUbqa1ttPjkljhh4Wtm0rxKVgSMO9bhuTnrtQDeqrKcVdirDfJX5Zad5&#xA;T1GW7tbyWeIW5s7K3dIkEMDTvcFXaNVMzc3oHfcD3JJVZlirsVSjRPL0WmahrV+ZfXudauxdSyFe&#xA;JREgjt4oQatVUWKvzJ23xVN8VdirDtD/AC007SPNs/mKK6d3ka+eOAxxIQ2pTpcT+rMqiWZVeP8A&#xA;dK5og23otFWY4q7FXYq7FXYq7FXYq7FXYq7FXYq7FXYq7FXYq7FXYq7FUo84addal5S1vTrRQ93e&#xA;2F1b26EhQZJYWRASdhVmxV51q35fedLS+gurK+1LVrYWVpBqEX1uC2vHiiuRJPa2s8P1L0yyivIu&#xA;Kiq8hWuKoW00H85k082M5u2lnaCeG8Goq31eKIXCG2lcyiR5eDQcnUFXIZi1QKqovQvJ35gaR508&#xA;vyRzajdaNBbRLqs17qUt1EZDby/WWKyXPL1HuJFPEwSL0KyRhQuKvW8VdirsVdirsVdirsVdirsV&#xA;dirsVf/Z</xmpGImg:image>
               </rdf:li>
            </rdf:Alt>
         </xmp:Thumbnails>
      </rdf:Description>
      <rdf:Description rdf:about=""
            xmlns:xmpMM="http://ns.adobe.com/xap/1.0/mm/"
            xmlns:stRef="http://ns.adobe.com/xap/1.0/sType/ResourceRef#"
            xmlns:stEvt="http://ns.adobe.com/xap/1.0/sType/ResourceEvent#">
         <xmpMM:DocumentID>xmp.did:F17F11740720681188C6E26AA11C7A53</xmpMM:DocumentID>
         <xmpMM:InstanceID>xmp.iid:F17F11740720681188C6E26AA11C7A53</xmpMM:InstanceID>
         <xmpMM:OriginalDocumentID>uuid:1763E5161E3BDF1191EBB6372ABBE5F3</xmpMM:OriginalDocumentID>
         <xmpMM:DerivedFrom rdf:parseType="Resource">
            <stRef:instanceID>uuid:8e6139ae-cec4-4280-b5e7-e6e431f40ca9</stRef:instanceID>
            <stRef:documentID>uuid:1763E5161E3BDF1191EBB6372ABBE5F3</stRef:documentID>
            <stRef:originalDocumentID>uuid:1763E5161E3BDF1191EBB6372ABBE5F3</stRef:originalDocumentID>
         </xmpMM:DerivedFrom>
         <xmpMM:History>
            <rdf:Seq>
               <rdf:li rdf:parseType="Resource">
                  <stEvt:action>saved</stEvt:action>
                  <stEvt:instanceID>xmp.iid:F17F11740720681188C6E26AA11C7A53</stEvt:instanceID>
                  <stEvt:when>2015-02-23T14:55:11+02:00</stEvt:when>
                  <stEvt:softwareAgent>Adobe Illustrator CS5.1</stEvt:softwareAgent>
                  <stEvt:changed>/</stEvt:changed>
               </rdf:li>
            </rdf:Seq>
         </xmpMM:History>
      </rdf:Description>
      <rdf:Description rdf:about=""
            xmlns:pdf="http://ns.adobe.com/pdf/1.3/">
         <pdf:Producer>Adobe PDF library 7.77</pdf:Producer>
      </rdf:Description>
      <rdf:Description rdf:about=""
            xmlns:xmpTPg="http://ns.adobe.com/xap/1.0/t/pg/"
            xmlns:stDim="http://ns.adobe.com/xap/1.0/sType/Dimensions#"
            xmlns:xmpG="http://ns.adobe.com/xap/1.0/g/">
         <xmpTPg:MaxPageSize rdf:parseType="Resource">
            <stDim:w>115.000043</stDim:w>
            <stDim:h>74.497434</stDim:h>
            <stDim:unit>Millimeters</stDim:unit>
         </xmpTPg:MaxPageSize>
         <xmpTPg:NPages>1</xmpTPg:NPages>
         <xmpTPg:HasVisibleTransparency>False</xmpTPg:HasVisibleTransparency>
         <xmpTPg:HasVisibleOverprint>False</xmpTPg:HasVisibleOverprint>
         <xmpTPg:PlateNames>
            <rdf:Seq>
               <rdf:li>Cyan</rdf:li>
               <rdf:li>Magenta</rdf:li>
               <rdf:li>Yellow</rdf:li>
               <rdf:li>Black</rdf:li>
            </rdf:Seq>
         </xmpTPg:PlateNames>
         <xmpTPg:SwatchGroups>
            <rdf:Seq>
               <rdf:li rdf:parseType="Resource">
                  <xmpG:groupName>Default Swatch Group</xmpG:groupName>
                  <xmpG:groupType>0</xmpG:groupType>
               </rdf:li>
            </rdf:Seq>
         </xmpTPg:SwatchGroups>
      </rdf:Description>
   </rdf:RDF>
</x:xmpmeta>
                                                                                                    
                                                                                                    
                                                                                                    
                                                                                                    
                                                                                                    
                                                                                                    
                                                                                                    
                                                                                                    
                                                                                                    
                                                                                                    
                                                                                                    
                                                                                                    
                                                                                                    
                                                                                                    
                                                                                                    
                                                                                                    
                                                                                                    
                                                                                                    
                                                                                                    
                                                                                                    
                           
<?xpacket end="w"?>
	</metadata>
<g>
	<polyline fill="none" stroke="#000000" stroke-width="1.0001" points="65.792,179.946 95.808,149.931 127.399,176.215 
		157.498,177.873 187.928,178.868 	"/>
	<polyline fill="none" stroke="#000000" stroke-width="1.0001" points="65.294,178.868 95.808,96.78 126.901,145.204 
		156.917,159.383 189.005,164.688 219.52,170.991 250.613,175.22 280.711,178.868 	"/>
	<polyline fill="none" stroke="#000000" stroke-width="1.0001" points="65.294,179.449 96.388,60.96 126.404,98.356 
		157.498,129.864 190.083,150.427 219.022,169.415 249.039,173.646 280.711,179.449 	"/>
	<polyline fill="none" stroke="#000000" stroke-width="1.0001" points="65.792,173.063 95.808,36.749 127.399,59.883 
		157.498,90.479 189.503,114.606 219.022,145.204 249.039,163.61 280.131,176.215 312.303,178.868 	"/>
	<g>
		<path d="M8.331,179.356H0.14v-3.073c0-0.625,0.083-1.127,0.249-1.505c0.166-0.379,0.421-0.676,0.766-0.889
			c0.346-0.215,0.705-0.322,1.081-0.322c0.352,0,0.681,0.096,0.989,0.285c0.31,0.189,0.56,0.478,0.749,0.859
			c0.146-0.494,0.394-0.876,0.743-1.143c0.351-0.266,0.764-0.398,1.241-0.398c0.384,0,0.74,0.08,1.069,0.242
			c0.33,0.162,0.584,0.361,0.764,0.602c0.179,0.238,0.312,0.537,0.404,0.896s0.138,0.8,0.138,1.32v3.125H8.331z M3.581,178.272
			v-1.771c0-0.48-0.031-0.825-0.095-1.034c-0.082-0.274-0.218-0.483-0.407-0.623c-0.19-0.14-0.43-0.209-0.716-0.209
			c-0.271,0-0.511,0.065-0.718,0.195c-0.207,0.131-0.349,0.315-0.425,0.56c-0.076,0.241-0.114,0.656-0.114,1.245v1.638H3.581z
			 M7.364,178.272v-2.039c0-0.352-0.013-0.596-0.038-0.737c-0.046-0.25-0.119-0.458-0.225-0.625
			c-0.104-0.168-0.256-0.308-0.455-0.414c-0.199-0.108-0.429-0.162-0.689-0.162c-0.307,0-0.571,0.078-0.796,0.233
			c-0.226,0.158-0.385,0.375-0.476,0.65c-0.091,0.278-0.137,0.678-0.137,1.199v1.895H7.364L7.364,178.272z"/>
		<path d="M8.331,171.831H0.14v-1.006h8.191V171.831z"/>
		<path d="M5.364,169.644c-1.099,0-1.912-0.307-2.44-0.918c-0.44-0.509-0.659-1.132-0.659-1.865c0-0.814,0.267-1.481,0.801-2
			c0.535-0.519,1.273-0.776,2.215-0.776c0.765,0,1.364,0.115,1.803,0.344c0.438,0.229,0.777,0.563,1.02,1.001
			c0.242,0.438,0.363,0.915,0.363,1.434c0,0.83-0.266,1.502-0.798,2.014C7.133,169.386,6.366,169.644,5.364,169.644z M5.364,168.608
			c0.761,0,1.329-0.166,1.707-0.498c0.379-0.33,0.567-0.748,0.567-1.25c0-0.5-0.189-0.916-0.57-1.246
			c-0.379-0.332-0.958-0.497-1.736-0.497c-0.733,0-1.29,0.166-1.668,0.5c-0.378,0.333-0.567,0.748-0.567,1.243
			c0,0.502,0.188,0.92,0.565,1.25C4.036,168.442,4.604,168.608,5.364,168.608z"/>
		<path d="M5.364,163.28c-1.099,0-1.912-0.305-2.44-0.916c-0.44-0.51-0.659-1.133-0.659-1.866c0-0.815,0.267-1.481,0.801-2.001
			c0.535-0.518,1.273-0.775,2.215-0.775c0.765,0,1.364,0.114,1.803,0.344c0.438,0.229,0.777,0.562,1.02,1
			c0.242,0.438,0.363,0.916,0.363,1.434c0,0.831-0.266,1.503-0.798,2.016C7.133,163.024,6.366,163.28,5.364,163.28z M5.364,162.247
			c0.761,0,1.329-0.166,1.707-0.497c0.379-0.332,0.567-0.749,0.567-1.252c0-0.499-0.189-0.914-0.57-1.246
			c-0.379-0.332-0.958-0.497-1.736-0.497c-0.733,0-1.29,0.166-1.668,0.5c-0.378,0.333-0.567,0.748-0.567,1.243
			c0,0.503,0.188,0.92,0.565,1.252C4.036,162.081,4.604,162.247,5.364,162.247z"/>
		<path d="M8.331,152.694H7.582c0.588,0.377,0.882,0.93,0.882,1.66c0,0.472-0.13,0.906-0.391,1.305
			c-0.262,0.396-0.625,0.703-1.094,0.921c-0.467,0.218-1.004,0.327-1.611,0.327c-0.593,0-1.13-0.1-1.612-0.297
			s-0.853-0.493-1.109-0.889c-0.257-0.395-0.385-0.837-0.385-1.324c0-0.355,0.075-0.676,0.226-0.955
			c0.15-0.278,0.349-0.506,0.59-0.682H0.14v-1h8.191V152.694z M5.369,155.874c0.76,0,1.327-0.16,1.704-0.48
			c0.376-0.319,0.563-0.697,0.563-1.135c0-0.439-0.18-0.812-0.539-1.119c-0.359-0.309-0.908-0.461-1.646-0.461
			c-0.812,0-1.408,0.155-1.788,0.469c-0.379,0.312-0.57,0.699-0.57,1.156c0,0.446,0.183,0.821,0.548,1.12
			C4.008,155.724,4.583,155.874,5.369,155.874z"/>
		<path d="M8.331,142.928c-0.208,0.104-0.453,0.171-0.732,0.201c0.317,0.373,0.541,0.731,0.671,1.075
			c0.13,0.346,0.195,0.715,0.195,1.109c0,0.651-0.159,1.151-0.479,1.504c-0.317,0.35-0.725,0.523-1.221,0.523
			c-0.291,0-0.556-0.066-0.796-0.199c-0.24-0.131-0.433-0.305-0.578-0.52c-0.146-0.213-0.255-0.455-0.33-0.723
			c-0.052-0.198-0.103-0.496-0.15-0.896c-0.098-0.812-0.212-1.409-0.348-1.793c-0.138-0.004-0.225-0.006-0.262-0.006
			c-0.41,0-0.699,0.096-0.866,0.285c-0.227,0.257-0.341,0.639-0.341,1.146c0,0.475,0.083,0.822,0.249,1.049
			c0.166,0.225,0.459,0.392,0.88,0.498l-0.134,0.984c-0.421-0.09-0.761-0.236-1.021-0.441c-0.258-0.205-0.458-0.5-0.598-0.889
			c-0.139-0.388-0.209-0.836-0.209-1.348c0-0.506,0.06-0.918,0.178-1.233c0.12-0.315,0.271-0.549,0.45-0.698
			c0.181-0.148,0.409-0.254,0.686-0.312c0.171-0.033,0.479-0.051,0.928-0.051h1.34c0.936,0,1.527-0.021,1.774-0.063
			c0.248-0.043,0.484-0.127,0.712-0.254v1.051H8.331z M5.353,143.213c0.149,0.365,0.275,0.913,0.38,1.644
			c0.061,0.414,0.127,0.705,0.201,0.877c0.075,0.17,0.185,0.304,0.327,0.396c0.143,0.094,0.302,0.141,0.477,0.141
			c0.27,0,0.492-0.103,0.672-0.306c0.178-0.202,0.269-0.501,0.269-0.891s-0.085-0.732-0.255-1.034
			c-0.169-0.303-0.401-0.523-0.696-0.666c-0.227-0.107-0.562-0.161-1.005-0.161H5.353z"/>
		<path d="M8.331,140.662H0.14v-1.007h8.191V140.662z"/>
		<path d="M6.157,134.228l0.128-0.988c0.682,0.107,1.215,0.385,1.601,0.83c0.386,0.443,0.578,0.99,0.578,1.64
			c0,0.812-0.266,1.464-0.796,1.958c-0.531,0.493-1.292,0.74-2.282,0.74c-0.641,0-1.201-0.106-1.682-0.318
			c-0.481-0.213-0.842-0.536-1.082-0.97c-0.24-0.435-0.36-0.906-0.36-1.416c0-0.646,0.163-1.172,0.489-1.581
			c0.326-0.41,0.789-0.673,1.388-0.788l0.151,0.979c-0.398,0.092-0.699,0.256-0.899,0.492c-0.201,0.237-0.302,0.523-0.302,0.858
			c0,0.506,0.182,0.917,0.545,1.233s0.937,0.476,1.723,0.476c0.797,0,1.377-0.151,1.738-0.457c0.361-0.308,0.542-0.704,0.542-1.196
			c0-0.395-0.121-0.725-0.363-0.988C7.033,134.465,6.66,134.298,6.157,134.228z"/>
		<path d="M5.364,132.752c-1.099,0-1.912-0.306-2.44-0.916c-0.44-0.511-0.659-1.133-0.659-1.866c0-0.816,0.267-1.482,0.801-2
			c0.535-0.518,1.273-0.777,2.215-0.777c0.765,0,1.364,0.115,1.803,0.345c0.438,0.229,0.777,0.562,1.02,1s0.363,0.915,0.363,1.435
			c0,0.829-0.266,1.502-0.798,2.014C7.133,132.496,6.366,132.752,5.364,132.752z M5.364,131.718c0.761,0,1.329-0.165,1.707-0.496
			c0.379-0.332,0.567-0.748,0.567-1.252c0-0.498-0.189-0.914-0.57-1.246c-0.379-0.33-0.958-0.496-1.736-0.496
			c-0.733,0-1.29,0.166-1.668,0.5s-0.567,0.746-0.567,1.242c0,0.504,0.188,0.92,0.565,1.252
			C4.036,131.553,4.604,131.718,5.364,131.718z"/>
		<path d="M8.331,126.017H0.14v-1.008h2.939c-0.544-0.469-0.815-1.061-0.815-1.775c0-0.438,0.086-0.821,0.26-1.146
			c0.173-0.323,0.412-0.556,0.718-0.694c0.306-0.142,0.749-0.211,1.329-0.211h3.761v1.006H4.57c-0.503,0-0.868,0.109-1.098,0.326
			c-0.229,0.219-0.344,0.526-0.344,0.926c0,0.297,0.077,0.578,0.231,0.841c0.155,0.264,0.364,0.45,0.628,0.562
			c0.266,0.112,0.63,0.167,1.096,0.167h3.246v1.007H8.331z"/>
		<path d="M5.364,120.028c-1.099,0-1.912-0.307-2.44-0.918c-0.44-0.51-0.659-1.131-0.659-1.864c0-0.815,0.267-1.483,0.801-2.001
			c0.535-0.518,1.273-0.777,2.215-0.777c0.765,0,1.364,0.115,1.803,0.346c0.438,0.229,0.777,0.562,1.02,1
			c0.242,0.438,0.363,0.914,0.363,1.434c0,0.83-0.266,1.501-0.798,2.013C7.133,119.771,6.366,120.028,5.364,120.028z M5.364,118.993
			c0.761,0,1.329-0.165,1.707-0.497c0.379-0.33,0.567-0.747,0.567-1.25c0-0.499-0.189-0.916-0.57-1.246
			c-0.379-0.332-0.958-0.497-1.736-0.497c-0.733,0-1.29,0.166-1.668,0.499c-0.378,0.334-0.567,0.748-0.567,1.244
			c0,0.503,0.188,0.92,0.565,1.25C4.036,118.828,4.604,118.993,5.364,118.993z"/>
		<path d="M8.331,113.313H0.14v-1.006h8.191V113.313z"/>
		<path d="M6.157,103.698l0.128-0.989c0.682,0.108,1.215,0.385,1.601,0.83c0.386,0.445,0.578,0.992,0.578,1.64
			c0,0.812-0.266,1.464-0.796,1.958c-0.531,0.493-1.292,0.739-2.282,0.739c-0.641,0-1.201-0.106-1.682-0.317
			c-0.481-0.213-0.842-0.537-1.082-0.971s-0.36-0.906-0.36-1.417c0-0.644,0.163-1.171,0.489-1.581
			c0.326-0.409,0.789-0.672,1.388-0.787l0.151,0.977c-0.398,0.093-0.699,0.258-0.899,0.495c-0.201,0.236-0.302,0.522-0.302,0.857
			c0,0.507,0.182,0.918,0.545,1.235c0.363,0.316,0.937,0.475,1.723,0.475c0.797,0,1.377-0.152,1.738-0.458
			c0.361-0.305,0.542-0.703,0.542-1.195c0-0.395-0.121-0.724-0.363-0.989C7.033,103.937,6.66,103.769,6.157,103.698z"/>
		<path d="M5.364,102.223c-1.099,0-1.912-0.305-2.44-0.916c-0.44-0.511-0.659-1.132-0.659-1.866c0-0.816,0.267-1.482,0.801-2
			c0.535-0.518,1.273-0.776,2.215-0.776c0.765,0,1.364,0.115,1.803,0.344c0.438,0.229,0.777,0.562,1.02,1
			c0.242,0.438,0.363,0.915,0.363,1.433c0,0.831-0.266,1.502-0.798,2.014C7.133,101.967,6.366,102.223,5.364,102.223z
			 M5.364,101.189c0.761,0,1.329-0.166,1.707-0.497c0.379-0.332,0.567-0.749,0.567-1.251c0-0.5-0.189-0.915-0.57-1.246
			c-0.379-0.332-0.958-0.497-1.736-0.497c-0.733,0-1.29,0.167-1.668,0.5s-0.567,0.748-0.567,1.243c0,0.502,0.188,0.92,0.565,1.251
			C4.036,101.024,4.604,101.189,5.364,101.189z"/>
		<path d="M8.331,95.487H2.397v-0.905H3.24c-0.651-0.436-0.978-1.066-0.978-1.889c0-0.357,0.064-0.686,0.192-0.985
			c0.128-0.3,0.297-0.525,0.506-0.673c0.208-0.149,0.456-0.253,0.743-0.313c0.186-0.037,0.512-0.056,0.978-0.056H8.33v1.005H4.721
			c-0.41,0-0.716,0.039-0.919,0.117s-0.365,0.217-0.486,0.417c-0.121,0.2-0.181,0.433-0.181,0.701c0,0.428,0.135,0.798,0.408,1.109
			c0.271,0.312,0.788,0.467,1.547,0.467h3.241V95.487z"/>
		<path d="M6.157,85.253l0.128-0.989c0.682,0.108,1.215,0.384,1.601,0.83c0.386,0.445,0.578,0.992,0.578,1.64
			c0,0.812-0.266,1.465-0.796,1.958c-0.531,0.494-1.292,0.741-2.282,0.741c-0.641,0-1.201-0.106-1.682-0.318
			c-0.481-0.212-0.842-0.536-1.082-0.969c-0.24-0.434-0.36-0.906-0.36-1.417c0-0.645,0.163-1.171,0.489-1.581
			s0.789-0.673,1.388-0.788l0.151,0.978c-0.398,0.093-0.699,0.258-0.899,0.494C3.19,86.068,3.09,86.354,3.09,86.688
			c0,0.507,0.182,0.918,0.545,1.235c0.363,0.317,0.937,0.475,1.723,0.475c0.797,0,1.377-0.153,1.738-0.458s0.542-0.704,0.542-1.195
			c0-0.395-0.121-0.725-0.363-0.989C7.033,85.492,6.66,85.324,6.157,85.253z"/>
		<path d="M6.42,79.342l0.128-1.04c0.606,0.164,1.079,0.468,1.414,0.911c0.335,0.443,0.503,1.009,0.503,1.699
			c0,0.868-0.267,1.556-0.801,2.064c-0.535,0.508-1.284,0.763-2.25,0.763c-0.998,0-1.773-0.257-2.324-0.771
			c-0.551-0.514-0.827-1.181-0.827-2c0-0.793,0.271-1.442,0.811-1.945c0.54-0.502,1.3-0.754,2.279-0.754
			c0.061,0,0.149,0.002,0.269,0.006V82.7c0.651-0.037,1.15-0.222,1.498-0.553c0.347-0.331,0.52-0.745,0.52-1.24
			c0-0.369-0.097-0.684-0.291-0.944C7.154,79.701,6.844,79.495,6.42,79.342z M4.793,82.644v-3.313
			c-0.499,0.044-0.873,0.171-1.123,0.38c-0.387,0.32-0.581,0.736-0.581,1.246c0,0.462,0.154,0.85,0.464,1.165
			S4.276,82.61,4.793,82.644z"/>
		<path d="M8.331,77.042H2.397v-0.905H3.24c-0.651-0.436-0.978-1.065-0.978-1.888c0-0.357,0.064-0.686,0.192-0.986
			c0.128-0.3,0.297-0.524,0.506-0.673c0.208-0.149,0.456-0.253,0.743-0.313c0.186-0.038,0.512-0.056,0.978-0.056H8.33v1.006H4.721
			c-0.41,0-0.716,0.039-0.919,0.117c-0.203,0.079-0.365,0.217-0.486,0.417c-0.121,0.199-0.181,0.433-0.181,0.701
			c0,0.428,0.135,0.798,0.408,1.109c0.271,0.311,0.788,0.467,1.547,0.467h3.241V77.042z"/>
		<path d="M7.47,68.925c0-0.112-0.013-0.259-0.04-0.441l0.889-0.145c0.061,0.283,0.09,0.536,0.09,0.759
			c0,0.365-0.059,0.648-0.174,0.849c-0.114,0.202-0.267,0.343-0.456,0.425c-0.188,0.082-0.583,0.123-1.187,0.123H3.179v0.738H2.397
			v-0.738H0.928l-0.604-1h2.072v-1.011h0.782v1.011h3.469c0.287,0,0.472-0.018,0.555-0.053c0.082-0.036,0.146-0.093,0.194-0.173
			C7.446,69.189,7.47,69.074,7.47,68.925L7.47,68.925z"/>
		<path d="M8.331,67.51H2.397v-0.905h0.9c-0.421-0.23-0.699-0.444-0.833-0.639C2.33,65.77,2.263,65.554,2.263,65.32
			c0-0.339,0.108-0.684,0.324-1.034l0.933,0.346c-0.145,0.246-0.218,0.492-0.218,0.737c0,0.22,0.066,0.417,0.198,0.593
			c0.133,0.175,0.315,0.3,0.551,0.374c0.357,0.112,0.749,0.167,1.173,0.167H8.33L8.331,67.51L8.331,67.51z"/>
		<path d="M8.331,59.615c-0.208,0.104-0.453,0.171-0.732,0.201c0.317,0.373,0.541,0.731,0.671,1.076
			c0.13,0.345,0.195,0.714,0.195,1.109c0,0.652-0.159,1.153-0.479,1.503c-0.317,0.35-0.725,0.525-1.221,0.525
			c-0.291,0-0.556-0.066-0.796-0.199c-0.24-0.132-0.433-0.305-0.578-0.52c-0.146-0.214-0.255-0.456-0.33-0.723
			c-0.052-0.197-0.103-0.496-0.15-0.894c-0.098-0.812-0.212-1.41-0.348-1.794c-0.138-0.003-0.225-0.005-0.262-0.005
			c-0.41,0-0.699,0.095-0.866,0.285c-0.227,0.257-0.341,0.639-0.341,1.145c0,0.473,0.083,0.822,0.249,1.048s0.459,0.392,0.88,0.5
			L4.09,63.856c-0.421-0.089-0.761-0.237-1.021-0.441c-0.258-0.205-0.458-0.501-0.598-0.889c-0.139-0.387-0.209-0.836-0.209-1.346
			c0-0.506,0.06-0.918,0.178-1.235c0.12-0.316,0.271-0.549,0.45-0.698c0.181-0.149,0.409-0.253,0.686-0.313
			c0.171-0.033,0.479-0.05,0.928-0.05h1.34c0.936,0,1.527-0.021,1.774-0.064c0.248-0.043,0.484-0.128,0.712-0.254v1.049H8.331z
			 M5.353,59.9c0.149,0.366,0.275,0.913,0.38,1.643c0.061,0.414,0.127,0.706,0.201,0.877c0.075,0.171,0.185,0.304,0.327,0.396
			c0.143,0.093,0.302,0.139,0.477,0.139c0.27,0,0.492-0.101,0.672-0.304c0.178-0.203,0.269-0.5,0.269-0.891
			c0-0.388-0.085-0.732-0.255-1.034c-0.169-0.302-0.401-0.523-0.696-0.665C6.5,59.954,6.165,59.9,5.721,59.9H5.353z"/>
		<path d="M7.47,55.572c0-0.112-0.013-0.259-0.04-0.441l0.889-0.145c0.061,0.283,0.09,0.537,0.09,0.76
			c0,0.365-0.059,0.648-0.174,0.849c-0.114,0.201-0.267,0.343-0.456,0.424c-0.188,0.082-0.583,0.124-1.187,0.124H3.179v0.737H2.397
			v-0.737H0.928l-0.604-1h2.072V55.13h0.782v1.012h3.469c0.287,0,0.472-0.018,0.555-0.053c0.082-0.036,0.146-0.093,0.194-0.173
			C7.446,55.835,7.47,55.721,7.47,55.572L7.47,55.572z"/>
		<path d="M1.296,54.14H0.14v-1.005h1.157L1.296,54.14L1.296,54.14z M8.331,54.14H2.397v-1.005h5.935V54.14z"/>
		<path d="M5.364,51.979c-1.099,0-1.912-0.306-2.44-0.916c-0.44-0.511-0.659-1.133-0.659-1.867c0-0.815,0.267-1.482,0.801-2
			C3.6,46.678,4.338,46.42,5.28,46.42c0.765,0,1.364,0.115,1.803,0.343c0.438,0.229,0.777,0.562,1.02,1s0.363,0.916,0.363,1.433
			c0,0.831-0.266,1.502-0.798,2.014C7.133,51.724,6.366,51.979,5.364,51.979z M5.364,50.946c0.761,0,1.329-0.166,1.707-0.497
			c0.379-0.332,0.567-0.749,0.567-1.252c0-0.499-0.189-0.914-0.57-1.246c-0.379-0.331-0.958-0.497-1.736-0.497
			c-0.733,0-1.29,0.167-1.668,0.5s-0.567,0.748-0.567,1.243c0,0.503,0.188,0.92,0.565,1.252C4.036,50.78,4.604,50.946,5.364,50.946z
			"/>
		<path d="M8.331,45.243H2.397v-0.905H3.24c-0.651-0.436-0.978-1.065-0.978-1.888c0-0.357,0.064-0.687,0.192-0.986
			c0.128-0.299,0.297-0.524,0.506-0.673c0.208-0.149,0.456-0.254,0.743-0.313c0.186-0.037,0.512-0.056,0.978-0.056H8.33v1.005H4.721
			c-0.41,0-0.716,0.04-0.919,0.118s-0.365,0.217-0.486,0.416c-0.121,0.2-0.181,0.433-0.181,0.701c0,0.429,0.135,0.798,0.408,1.109
			c0.271,0.312,0.788,0.467,1.547,0.467h3.241V45.243z"/>
		<path d="M10.738,33.778c-0.699,0.555-1.52,1.024-2.458,1.407c-0.938,0.384-1.91,0.576-2.917,0.576
			c-0.886,0-1.735-0.144-2.548-0.43c-0.94-0.335-1.88-0.852-2.814-1.553v-0.721c0.774,0.45,1.328,0.748,1.659,0.894
			c0.515,0.227,1.05,0.406,1.608,0.536c0.697,0.16,1.397,0.241,2.102,0.241c1.792,0,3.582-0.557,5.368-1.67V33.778z"/>
		<path d="M8.331,31.89H2.397v-0.9h0.832c-0.29-0.186-0.523-0.434-0.701-0.743c-0.176-0.309-0.265-0.661-0.265-1.056
			c0-0.439,0.091-0.8,0.273-1.081c0.183-0.281,0.438-0.48,0.766-0.595c-0.693-0.469-1.039-1.08-1.039-1.833
			c0-0.589,0.163-1.042,0.489-1.358c0.326-0.317,0.828-0.475,1.506-0.475h4.073v1H4.593c-0.402,0-0.692,0.033-0.869,0.098
			c-0.177,0.065-0.319,0.183-0.427,0.354c-0.108,0.171-0.162,0.372-0.162,0.604c0,0.417,0.138,0.764,0.416,1.039
			c0.277,0.276,0.722,0.414,1.333,0.414h3.447v1.006H4.475c-0.447,0-0.782,0.082-1.005,0.246c-0.224,0.165-0.335,0.433-0.335,0.805
			c0,0.283,0.074,0.545,0.223,0.785c0.149,0.24,0.367,0.415,0.653,0.522c0.288,0.108,0.701,0.162,1.241,0.162h3.079V31.89z"/>
		<path d="M8.822,22.542l0.146-0.978c0.301-0.041,0.521-0.155,0.659-0.341c0.187-0.25,0.28-0.59,0.28-1.022
			c0-0.465-0.094-0.825-0.28-1.079C9.44,18.87,9.18,18.699,8.844,18.609c-0.205-0.052-0.635-0.077-1.29-0.073
			c0.518,0.439,0.776,0.987,0.776,1.643c0,0.816-0.294,1.447-0.884,1.894c-0.588,0.447-1.294,0.671-2.117,0.671
			c-0.566,0-1.088-0.103-1.567-0.308c-0.479-0.205-0.848-0.502-1.109-0.892c-0.261-0.389-0.391-0.846-0.391-1.371
			c0-0.7,0.283-1.278,0.849-1.732H2.397v-0.928h5.129c0.925,0,1.579,0.095,1.965,0.283c0.385,0.188,0.689,0.486,0.912,0.894
			c0.225,0.408,0.335,0.91,0.335,1.506c0,0.707-0.158,1.279-0.478,1.715C9.943,22.347,9.463,22.557,8.822,22.542z M5.257,21.71
			c0.779,0,1.347-0.154,1.705-0.463c0.356-0.31,0.536-0.697,0.536-1.163c0-0.461-0.179-0.849-0.533-1.162
			c-0.356-0.312-0.914-0.469-1.674-0.469c-0.728,0-1.274,0.161-1.643,0.483c-0.369,0.322-0.554,0.711-0.554,1.165
			c0,0.447,0.182,0.827,0.545,1.14C4.003,21.554,4.542,21.71,5.257,21.71z"/>
		<path d="M8.47,16.75L0,14.376v-0.805l8.47,2.369V16.75z"/>
		<path d="M8.632,11.15L0,6.669V5.854l8.632,4.464V11.15z M2.106,12.905c-0.585,0-1.082-0.147-1.492-0.441
			C0.205,12.169,0,11.742,0,11.184c0-0.514,0.184-0.94,0.55-1.277C0.917,9.57,1.456,9.401,2.168,9.401
			c0.692,0,1.227,0.17,1.601,0.511c0.375,0.341,0.562,0.761,0.562,1.26c0,0.495-0.185,0.907-0.554,1.237
			C3.408,12.74,2.852,12.905,2.106,12.905z M0.693,11.156c0,0.25,0.108,0.457,0.324,0.623s0.612,0.249,1.19,0.249
			c0.524,0,0.895-0.084,1.108-0.251s0.321-0.375,0.321-0.62c0-0.253-0.108-0.463-0.324-0.628c-0.216-0.166-0.61-0.249-1.184-0.249
			c-0.529,0-0.9,0.083-1.115,0.251C0.799,10.699,0.693,10.906,0.693,11.156z M6.409,7.608c-0.59,0-1.088-0.147-1.495-0.442
			C4.506,6.873,4.302,6.444,4.302,5.881c0-0.514,0.183-0.939,0.55-1.276S5.758,4.099,6.47,4.099c0.693,0,1.227,0.17,1.601,0.511
			c0.374,0.341,0.562,0.763,0.562,1.266c0,0.495-0.187,0.907-0.556,1.237C7.707,7.443,7.149,7.608,6.409,7.608z M4.995,5.854
			c0,0.253,0.107,0.463,0.323,0.629c0.217,0.166,0.613,0.249,1.19,0.249c0.521,0,0.89-0.084,1.106-0.251
			c0.216-0.168,0.323-0.375,0.323-0.62c0-0.257-0.107-0.468-0.323-0.634c-0.217-0.166-0.611-0.25-1.185-0.25
			c-0.529,0-0.901,0.084-1.115,0.251C5.102,5.396,4.995,5.604,4.995,5.854z"/>
		<path d="M10.738,1.983v0.721C8.95,1.59,7.161,1.034,5.369,1.034c-0.7,0-1.396,0.08-2.083,0.24c-0.56,0.127-1.097,0.303-1.61,0.531
			C1.341,1.95,0.782,2.25,0,2.704V1.983c0.935-0.7,1.874-1.218,2.815-1.553C3.628,0.144,4.478,0,5.364,0
			C6.369,0,7.341,0.193,8.28,0.578C9.219,0.964,10.038,1.432,10.738,1.983z"/>
	</g>
	<line fill="none" stroke="#000000" stroke-width="0.5" x1="44.731" y1="8.806" x2="325.984" y2="7.728"/>
	<line fill="none" stroke="#000000" stroke-width="0.5" x1="44.731" y1="25.887" x2="325.984" y2="24.809"/>
	<line fill="none" stroke="#000000" stroke-width="0.5" x1="44.731" y1="42.968" x2="325.984" y2="41.973"/>
	<line fill="none" stroke="#000000" stroke-width="0.5" x1="44.731" y1="60.131" x2="325.984" y2="59.053"/>
	<line fill="none" stroke="#000000" stroke-width="0.5" x1="44.731" y1="77.212" x2="325.984" y2="76.134"/>
	<line fill="none" stroke="#000000" stroke-width="0.5" x1="44.731" y1="94.293" x2="325.984" y2="93.215"/>
	<line fill="none" stroke="#000000" stroke-width="0.5" x1="44.731" y1="111.291" x2="325.984" y2="110.296"/>
	<line fill="none" stroke="#000000" stroke-width="0.5" x1="44.731" y1="128.372" x2="325.984" y2="127.377"/>
	<line fill="none" stroke="#000000" stroke-width="0.5" x1="44.731" y1="145.535" x2="325.984" y2="144.457"/>
	<line fill="none" stroke="#000000" stroke-width="0.5" x1="44.731" y1="162.615" x2="325.984" y2="161.538"/>
	<line fill="none" stroke="#000000" stroke-width="0.5" x1="44.731" y1="179.696" x2="325.984" y2="178.702"/>
	<line fill="none" stroke="#000000" stroke-width="1.0001" x1="49.955" y1="8.806" x2="49.955" y2="184.672"/>
	<rect x="59.987" y="173.063" fill="#D1D3D4" stroke="#000000" stroke-width="0.5" width="11.608" height="11.607"/>
	<polygon fill="#BCBEC0" stroke="#000000" stroke-width="0.707" stroke-linecap="round" stroke-linejoin="round" points="
		97.135,54.576 90.169,66.433 104.016,66.35 	"/>
	<polygon fill="#BCBEC0" stroke="#000000" stroke-width="0.707" stroke-linecap="round" stroke-linejoin="round" points="
		126.818,91.806 119.853,103.663 133.701,103.58 	"/>
	<polygon fill="#BCBEC0" stroke="#000000" stroke-width="0.707" stroke-linecap="round" stroke-linejoin="round" points="
		158.078,122.567 151.113,134.507 164.876,134.425 	"/>
	<polygon fill="#BCBEC0" stroke="#000000" stroke-width="0.707" stroke-linecap="round" stroke-linejoin="round" points="
		189.255,142.467 182.291,154.325 196.137,154.242 	"/>
	<polygon fill="#BCBEC0" stroke="#000000" stroke-width="0.707" stroke-linecap="round" stroke-linejoin="round" points="
		219.436,160.211 212.472,172.067 226.319,171.985 	"/>
	<polygon fill="#BCBEC0" stroke="#000000" stroke-width="0.707" stroke-linecap="round" stroke-linejoin="round" points="
		249.702,165.767 242.736,177.707 256.583,177.542 	"/>
	<rect x="91.247" y="29.701" fill="#D1D3D4" stroke="#000000" stroke-width="0.5" width="11.607" height="11.609"/>
	<rect x="120.931" y="53.996" fill="#D1D3D4" stroke="#000000" stroke-width="0.5" width="11.608" height="11.608"/>
	<polygon fill="#808285" stroke="#000000" stroke-width="0.5" points="88.511,149.267 95.725,141.97 102.939,149.267 
		95.725,156.479 	"/>
	
		<rect x="120.31" y="170.285" transform="matrix(0.7072 -0.7071 0.7071 0.7072 -87.2822 140.0334)" fill="#808285" stroke="#000000" stroke-width="0.5" width="10.201" height="10.201"/>
	<polygon fill="#808285" stroke="#000000" stroke-width="0.5" points="149.952,177.292 157.249,170.079 164.379,177.292 
		157.249,184.506 	"/>
	<polygon fill="#808285" stroke="#000000" stroke-width="0.5" points="180.631,179.282 187.845,171.985 195.058,179.282 
		187.845,186.496 	"/>
	<rect x="152.191" y="85.172" fill="#D1D3D4" stroke="#000000" stroke-width="0.5" width="11.525" height="11.608"/>
	<rect x="183.368" y="108.969" fill="#D1D3D4" stroke="#000000" stroke-width="0.5" width="11.607" height="11.525"/>
	<rect x="213.632" y="139.067" fill="#D1D3D4" stroke="#000000" stroke-width="0.5" width="11.606" height="11.607"/>
	<rect x="243.813" y="157.642" fill="#D1D3D4" stroke="#000000" stroke-width="0.5" width="11.609" height="11.525"/>
	<rect x="274.577" y="170.327" fill="#D1D3D4" stroke="#000000" stroke-width="0.5" width="11.607" height="11.607"/>
	<rect x="304.26" y="173.646" fill="#D1D3D4" stroke="#000000" stroke-width="0.5" width="11.607" height="11.523"/>
	<path fill="#A7A9AC" stroke="#000000" stroke-width="0.5" d="M95.808,103.083c3.234,0,5.804-2.571,5.804-5.804
		c0-3.151-2.569-5.804-5.804-5.804c-3.15,0-5.804,2.653-5.804,5.804C90.003,100.511,92.657,103.083,95.808,103.083z"/>
	<path fill="#A7A9AC" stroke="#000000" stroke-width="0.5" d="M127.067,150.76c3.234,0,5.805-2.569,5.805-5.804
		c0-3.15-2.57-5.807-5.805-5.807c-3.149,0-5.804,2.654-5.804,5.807C121.263,148.188,123.917,150.76,127.067,150.76z"/>
	<path fill="#A7A9AC" stroke="#000000" stroke-width="0.5" d="M156.751,164.274c3.233,0,5.804-2.57,5.804-5.805
		c0-3.15-2.57-5.722-5.804-5.722c-3.15,0-5.805,2.571-5.805,5.722C150.947,161.704,153.601,164.274,156.751,164.274z"/>
	<path fill="#A7A9AC" stroke="#000000" stroke-width="0.5" d="M189.005,170.41c3.233,0,5.805-2.57,5.805-5.804
		c0-3.15-2.57-5.722-5.805-5.722c-3.15,0-5.804,2.57-5.804,5.722C183.202,167.84,185.855,170.41,189.005,170.41z"/>
	<path fill="#A7A9AC" stroke="#000000" stroke-width="0.5" d="M219.188,177.127c3.233,0,5.805-2.653,5.805-5.805
		c0-3.233-2.57-5.804-5.805-5.804c-3.15,0-5.722,2.569-5.722,5.804C213.466,174.474,216.037,177.127,219.188,177.127z"/>
	<rect x="220.597" y="18.839" fill="#FFFFFF" stroke="#000000" stroke-width="0.5" width="97.51" height="97.842"/>
	<g>
		<path d="M255.155,59.551v-7.224h-2.698V51.36h6.493v0.966h-2.711v7.224L255.155,59.551L255.155,59.551z"/>
		<path d="M259.932,59.551v-8.19h1.006v2.938c0.47-0.544,1.062-0.815,1.776-0.815c0.438,0,0.821,0.086,1.146,0.26
			c0.323,0.173,0.557,0.412,0.696,0.718c0.139,0.306,0.209,0.749,0.209,1.33v3.76h-1.006v-3.76c0-0.502-0.108-0.869-0.327-1.098
			c-0.218-0.229-0.525-0.343-0.925-0.343c-0.298,0-0.577,0.077-0.841,0.231c-0.263,0.155-0.45,0.364-0.562,0.629
			c-0.11,0.264-0.167,0.629-0.167,1.095v3.246L259.932,59.551L259.932,59.551z"/>
		<path d="M266.285,59.551v-5.934h0.904v0.9c0.23-0.421,0.444-0.699,0.641-0.833c0.194-0.134,0.41-0.201,0.646-0.201
			c0.339,0,0.684,0.108,1.033,0.324l-0.346,0.933c-0.247-0.146-0.492-0.218-0.738-0.218c-0.219,0-0.417,0.066-0.593,0.198
			c-0.174,0.132-0.299,0.316-0.373,0.55c-0.112,0.358-0.168,0.749-0.168,1.174v3.106L266.285,59.551L266.285,59.551z"/>
		<path d="M274.167,57.64l1.04,0.128c-0.165,0.607-0.47,1.079-0.911,1.414c-0.443,0.335-1.009,0.502-1.698,0.502
			c-0.868,0-1.556-0.267-2.064-0.801c-0.509-0.535-0.763-1.284-0.763-2.249c0-0.999,0.257-1.773,0.771-2.324
			c0.514-0.551,1.181-0.827,1.999-0.827c0.794,0,1.441,0.27,1.943,0.81c0.503,0.541,0.755,1.3,0.755,2.28
			c0,0.06-0.002,0.149-0.006,0.268h-4.425c0.037,0.652,0.222,1.151,0.553,1.498c0.332,0.347,0.746,0.52,1.241,0.52
			c0.368,0,0.685-0.097,0.944-0.291C273.808,58.374,274.015,58.064,274.167,57.64z M270.866,56.015h3.312
			c-0.045-0.5-0.171-0.874-0.38-1.124c-0.32-0.387-0.735-0.581-1.246-0.581c-0.461,0-0.851,0.155-1.164,0.464
			C271.074,55.083,270.9,55.497,270.866,56.015z"/>
		<path d="M280.532,57.64l1.039,0.128c-0.164,0.607-0.468,1.079-0.91,1.414c-0.443,0.335-1.011,0.502-1.698,0.502
			c-0.868,0-1.558-0.267-2.065-0.801c-0.508-0.535-0.762-1.284-0.762-2.249c0-0.999,0.256-1.773,0.77-2.324
			c0.516-0.551,1.183-0.827,2.002-0.827c0.793,0,1.441,0.27,1.943,0.81c0.503,0.541,0.755,1.3,0.755,2.28
			c0,0.06-0.002,0.149-0.006,0.268h-4.425c0.037,0.652,0.222,1.151,0.553,1.498c0.331,0.347,0.745,0.52,1.241,0.52
			c0.367,0,0.683-0.097,0.943-0.291C280.172,58.374,280.379,58.064,280.532,57.64z M277.23,56.015h3.313
			c-0.045-0.5-0.172-0.874-0.38-1.124c-0.32-0.387-0.735-0.581-1.246-0.581c-0.463,0-0.852,0.155-1.165,0.464
			C277.437,55.083,277.263,55.497,277.23,56.015z"/>
		<path d="M289.862,59.551v-0.749c-0.375,0.588-0.929,0.882-1.657,0.882c-0.475,0-0.909-0.13-1.306-0.391
			c-0.396-0.261-0.704-0.625-0.923-1.093c-0.218-0.467-0.327-1.004-0.327-1.611c0-0.592,0.101-1.13,0.297-1.612
			c0.197-0.482,0.493-0.852,0.89-1.109c0.395-0.257,0.836-0.385,1.324-0.385c0.356,0,0.676,0.075,0.953,0.226
			c0.28,0.151,0.509,0.348,0.684,0.589V51.36h1v8.19L289.862,59.551L289.862,59.551z M286.683,56.59c0,0.759,0.16,1.328,0.481,1.704
			c0.318,0.377,0.697,0.564,1.133,0.564c0.439,0,0.812-0.18,1.12-0.539s0.462-0.908,0.462-1.646c0-0.812-0.156-1.408-0.47-1.788
			c-0.312-0.379-0.698-0.57-1.157-0.57c-0.446,0-0.819,0.183-1.12,0.548C286.833,55.229,286.683,55.804,286.683,56.59z"/>
		<path d="M292.366,59.551v-5.934h0.904v0.9c0.23-0.421,0.444-0.699,0.641-0.833c0.193-0.134,0.409-0.201,0.645-0.201
			c0.34,0,0.684,0.108,1.033,0.324l-0.346,0.933c-0.245-0.146-0.492-0.218-0.737-0.218c-0.22,0-0.417,0.066-0.593,0.198
			c-0.176,0.132-0.301,0.316-0.374,0.55c-0.111,0.358-0.168,0.749-0.168,1.174v3.106L292.366,59.551L292.366,59.551z"/>
		<path d="M296.193,52.517V51.36h1.005v1.156L296.193,52.517L296.193,52.517z M296.193,59.551v-5.934h1.005v5.934H296.193z"/>
		<path d="M298.729,59.551v-5.934h0.905v0.844c0.437-0.652,1.063-0.978,1.888-0.978c0.358,0,0.688,0.064,0.986,0.192
			c0.301,0.129,0.523,0.297,0.674,0.506c0.148,0.209,0.253,0.456,0.312,0.743c0.036,0.186,0.057,0.512,0.057,0.978v3.648h-1.006
			v-3.609c0-0.41-0.039-0.716-0.118-0.919c-0.077-0.203-0.217-0.365-0.416-0.486s-0.433-0.181-0.7-0.181
			c-0.429,0-0.799,0.136-1.109,0.408c-0.312,0.271-0.467,0.788-0.467,1.547v3.241H298.729z"/>
		<path d="M305.098,59.551v-8.19h1.006v4.67l2.381-2.414h1.302l-2.269,2.202l2.497,3.732h-1.24l-1.961-3.034l-0.71,0.682v2.352
			H305.098z"/>
		<path d="M310.412,57.779l0.994-0.156c0.056,0.399,0.212,0.704,0.468,0.917c0.254,0.212,0.61,0.318,1.068,0.318
			c0.462,0,0.805-0.094,1.028-0.282s0.335-0.409,0.335-0.662c0-0.228-0.1-0.406-0.296-0.537c-0.139-0.089-0.48-0.203-1.028-0.341
			c-0.736-0.186-1.249-0.348-1.534-0.483c-0.283-0.136-0.5-0.324-0.646-0.563c-0.147-0.24-0.221-0.506-0.221-0.796
			c0-0.264,0.06-0.509,0.182-0.735c0.121-0.225,0.285-0.412,0.495-0.561c0.156-0.116,0.368-0.213,0.639-0.294
			c0.271-0.08,0.561-0.12,0.869-0.12c0.466,0,0.875,0.067,1.227,0.201c0.353,0.134,0.611,0.316,0.779,0.545s0.282,0.535,0.348,0.919
			l-0.984,0.134c-0.045-0.305-0.174-0.544-0.388-0.715c-0.216-0.171-0.519-0.257-0.907-0.257c-0.463,0-0.792,0.077-0.99,0.229
			c-0.196,0.153-0.296,0.332-0.296,0.536c0,0.13,0.041,0.248,0.123,0.352c0.082,0.108,0.21,0.197,0.386,0.269
			c0.101,0.037,0.397,0.123,0.89,0.257c0.712,0.19,1.208,0.346,1.488,0.467s0.501,0.297,0.662,0.528
			c0.159,0.231,0.239,0.518,0.239,0.86c0,0.335-0.098,0.651-0.293,0.947s-0.479,0.525-0.846,0.688
			c-0.369,0.162-0.786,0.243-1.253,0.243c-0.771,0-1.357-0.16-1.763-0.48C310.782,58.884,310.524,58.409,310.412,57.779z"/>
	</g>
	<g>
		<path d="M255.155,85.006v-7.224h-2.698v-0.967h6.493v0.967h-2.711v7.224H255.155z"/>
		<path d="M260.396,85.006l-1.815-5.934h1.039l0.943,3.425l0.354,1.274c0.015-0.063,0.117-0.471,0.307-1.224l0.945-3.475h1.033
			l0.889,3.442l0.296,1.134l0.34-1.146l1.019-3.431h0.978l-1.854,5.934h-1.046l-0.942-3.553l-0.229-1.012l-1.201,4.565
			L260.396,85.006L260.396,85.006z"/>
		<path d="M267.19,82.04c0-1.099,0.307-1.913,0.916-2.442c0.512-0.439,1.133-0.659,1.866-0.659c0.815,0,1.482,0.267,2.001,0.801
			c0.517,0.535,0.775,1.273,0.775,2.215c0,0.764-0.114,1.364-0.344,1.802c-0.229,0.438-0.562,0.778-1.001,1.02
			c-0.438,0.242-0.915,0.363-1.433,0.363c-0.83,0-1.502-0.266-2.015-0.798C267.446,83.809,267.19,83.042,267.19,82.04z
			 M268.223,82.04c0,0.76,0.165,1.329,0.497,1.707s0.749,0.567,1.252,0.567c0.499,0,0.914-0.19,1.246-0.57
			c0.331-0.379,0.497-0.958,0.497-1.737c0-0.734-0.167-1.29-0.5-1.668c-0.334-0.378-0.747-0.567-1.243-0.567
			c-0.503,0-0.92,0.188-1.252,0.564S268.223,81.28,268.223,82.04z"/>
		<path d="M280.957,85.006v-0.749c-0.376,0.588-0.931,0.882-1.659,0.882c-0.474,0-0.908-0.13-1.305-0.391
			c-0.396-0.261-0.704-0.625-0.923-1.092c-0.219-0.467-0.326-1.004-0.326-1.612c0-0.592,0.099-1.129,0.297-1.612
			c0.195-0.482,0.492-0.852,0.888-1.109c0.396-0.257,0.836-0.385,1.324-0.385c0.356,0,0.676,0.075,0.955,0.226
			c0.278,0.15,0.507,0.347,0.683,0.589v-2.939h0.999v8.191L280.957,85.006L280.957,85.006z M277.777,82.045
			c0,0.76,0.161,1.328,0.481,1.704c0.319,0.376,0.698,0.564,1.134,0.564c0.439,0,0.812-0.18,1.12-0.539
			c0.307-0.359,0.461-0.908,0.461-1.646c0-0.812-0.156-1.408-0.469-1.788c-0.313-0.38-0.698-0.57-1.157-0.57
			c-0.446,0-0.82,0.183-1.12,0.548C277.927,80.684,277.777,81.259,277.777,82.045z"/>
		<path d="M283.459,85.006v-5.934h0.904v0.899c0.23-0.421,0.444-0.698,0.641-0.833c0.195-0.134,0.411-0.201,0.645-0.201
			c0.34,0,0.686,0.108,1.034,0.324l-0.347,0.933c-0.245-0.145-0.491-0.218-0.736-0.218c-0.221,0-0.418,0.066-0.593,0.198
			c-0.176,0.133-0.301,0.316-0.375,0.551c-0.111,0.357-0.167,0.749-0.167,1.173v3.106h-1.006V85.006z"/>
		<path d="M287.287,77.972v-1.157h1.006v1.157H287.287z M287.287,85.006v-5.934h1.006v5.934H287.287z"/>
		<path d="M289.823,85.006v-5.934h0.905v0.843c0.438-0.651,1.065-0.977,1.89-0.977c0.356,0,0.687,0.064,0.985,0.192
			s0.523,0.297,0.673,0.506c0.148,0.208,0.254,0.456,0.313,0.743c0.037,0.187,0.056,0.512,0.056,0.978v3.648h-1.005v-3.61
			c0-0.409-0.04-0.716-0.118-0.918c-0.078-0.203-0.218-0.365-0.416-0.486c-0.199-0.121-0.434-0.181-0.701-0.181
			c-0.429,0-0.799,0.135-1.109,0.408c-0.311,0.271-0.465,0.788-0.465,1.547v3.241H289.823z"/>
		<path d="M296.193,85.006v-8.191h1.005v4.671l2.382-2.414h1.302l-2.27,2.201l2.498,3.732h-1.24l-1.961-3.034l-0.711,0.682v2.352
			L296.193,85.006L296.193,85.006z"/>
		<path d="M301.506,83.235l0.994-0.156c0.056,0.398,0.212,0.704,0.467,0.917c0.254,0.212,0.612,0.318,1.069,0.318
			c0.463,0,0.805-0.094,1.027-0.282c0.225-0.188,0.335-0.409,0.335-0.662c0-0.227-0.099-0.406-0.296-0.536
			c-0.138-0.089-0.479-0.203-1.026-0.341c-0.738-0.186-1.25-0.348-1.534-0.484c-0.285-0.135-0.501-0.324-0.647-0.564
			c-0.146-0.24-0.221-0.505-0.221-0.796c0-0.265,0.06-0.51,0.181-0.735c0.122-0.225,0.286-0.412,0.495-0.561
			c0.156-0.115,0.369-0.213,0.641-0.293c0.271-0.08,0.56-0.12,0.867-0.12c0.467,0,0.875,0.067,1.229,0.201
			c0.351,0.134,0.61,0.316,0.779,0.545c0.167,0.229,0.281,0.535,0.346,0.919l-0.983,0.134c-0.045-0.306-0.175-0.544-0.389-0.715
			c-0.215-0.171-0.518-0.257-0.907-0.257c-0.462,0-0.792,0.076-0.989,0.229c-0.196,0.153-0.296,0.332-0.296,0.537
			c0,0.13,0.04,0.248,0.122,0.352c0.082,0.108,0.211,0.197,0.386,0.268c0.102,0.037,0.397,0.123,0.89,0.257
			c0.712,0.19,1.208,0.346,1.489,0.466c0.28,0.121,0.501,0.297,0.661,0.528s0.239,0.518,0.239,0.86c0,0.335-0.098,0.651-0.293,0.947
			c-0.194,0.296-0.477,0.525-0.846,0.687s-0.786,0.243-1.252,0.243c-0.771,0-1.358-0.16-1.764-0.48
			C301.875,84.339,301.618,83.865,301.506,83.235z"/>
	</g>
	<g>
		<path d="M252.742,106.39c0-1.359,0.363-2.424,1.095-3.194c0.729-0.769,1.673-1.154,2.826-1.154c0.758,0,1.438,0.181,2.046,0.542
			c0.605,0.361,1.068,0.865,1.388,1.511c0.319,0.646,0.479,1.379,0.479,2.199c0,0.831-0.168,1.573-0.504,2.229
			c-0.335,0.656-0.811,1.152-1.425,1.49c-0.613,0.336-1.276,0.506-1.988,0.506c-0.771,0-1.461-0.187-2.067-0.561
			c-0.607-0.372-1.067-0.88-1.38-1.523C252.899,107.79,252.742,107.108,252.742,106.39z M253.858,106.407
			c0,0.986,0.267,1.765,0.797,2.333c0.53,0.567,1.196,0.853,1.997,0.853c0.816,0,1.488-0.287,2.016-0.861
			c0.526-0.572,0.79-1.388,0.79-2.44c0-0.667-0.112-1.249-0.337-1.746c-0.228-0.497-0.557-0.883-0.99-1.157s-0.92-0.411-1.461-0.411
			c-0.768,0-1.427,0.264-1.98,0.791C254.135,104.293,253.858,105.174,253.858,106.407z"/>
		<path d="M261.843,110.379v-5.934h0.905v0.844c0.436-0.652,1.063-0.978,1.889-0.978c0.357,0,0.686,0.064,0.985,0.192
			c0.3,0.129,0.523,0.297,0.673,0.506c0.148,0.209,0.253,0.456,0.312,0.743c0.037,0.186,0.058,0.513,0.058,0.978v3.648h-1.006
			v-3.609c0-0.41-0.039-0.716-0.116-0.918c-0.079-0.203-0.218-0.365-0.418-0.486c-0.199-0.121-0.434-0.181-0.7-0.181
			c-0.429,0-0.799,0.136-1.109,0.408c-0.312,0.271-0.467,0.788-0.467,1.547v3.241H261.843L261.843,110.379z"/>
		<path d="M272.268,108.468l1.039,0.129c-0.164,0.606-0.468,1.077-0.91,1.412c-0.442,0.336-1.009,0.504-1.697,0.504
			c-0.868,0-1.558-0.268-2.065-0.803c-0.508-0.534-0.762-1.284-0.762-2.249c0-0.998,0.257-1.773,0.771-2.324
			c0.515-0.551,1.182-0.827,1.999-0.827c0.794,0,1.442,0.27,1.944,0.81c0.503,0.541,0.755,1.3,0.755,2.279
			c0,0.061-0.002,0.149-0.006,0.269h-4.425c0.036,0.651,0.222,1.151,0.553,1.498c0.332,0.346,0.745,0.521,1.24,0.521
			c0.368,0,0.685-0.098,0.944-0.291C271.909,109.201,272.116,108.894,272.268,108.468z M268.966,106.843h3.312
			c-0.045-0.5-0.171-0.874-0.38-1.124c-0.32-0.387-0.734-0.581-1.246-0.581c-0.462,0-0.851,0.155-1.165,0.464
			S269,106.325,268.966,106.843z"/>
		<path d="M281.599,110.379v-0.749c-0.376,0.59-0.93,0.883-1.659,0.883c-0.474,0-0.907-0.13-1.305-0.392
			c-0.397-0.261-0.704-0.624-0.923-1.093c-0.217-0.467-0.326-1.004-0.326-1.61c0-0.592,0.099-1.13,0.296-1.612
			s0.494-0.852,0.889-1.109c0.396-0.257,0.837-0.385,1.324-0.385c0.357,0,0.676,0.075,0.955,0.226
			c0.279,0.151,0.507,0.348,0.683,0.589v-2.938h1v8.19H281.599L281.599,110.379z M278.42,107.418c0,0.76,0.159,1.327,0.479,1.704
			c0.32,0.376,0.698,0.564,1.134,0.564c0.439,0,0.812-0.182,1.12-0.539c0.309-0.359,0.462-0.908,0.462-1.646
			c0-0.812-0.157-1.408-0.471-1.788c-0.312-0.379-0.698-0.569-1.156-0.569c-0.446,0-0.819,0.183-1.119,0.547
			C278.57,106.057,278.42,106.632,278.42,107.418z"/>
		<path d="M284.102,110.379v-5.934h0.905v0.9c0.229-0.421,0.444-0.699,0.64-0.833c0.195-0.134,0.41-0.201,0.646-0.201
			c0.339,0,0.683,0.108,1.033,0.324l-0.347,0.933c-0.247-0.145-0.492-0.218-0.737-0.218c-0.221,0-0.417,0.066-0.594,0.198
			c-0.174,0.132-0.299,0.316-0.374,0.551c-0.11,0.357-0.168,0.748-0.168,1.174v3.105L284.102,110.379L284.102,110.379z"/>
		<path d="M287.929,103.345v-1.156h1.005v1.156H287.929z M287.929,110.379v-5.934h1.005v5.934H287.929z"/>
		<path d="M290.466,110.379v-5.934h0.905v0.844c0.435-0.652,1.063-0.978,1.888-0.978c0.358,0,0.687,0.064,0.986,0.192
			c0.3,0.129,0.523,0.297,0.673,0.506c0.148,0.209,0.253,0.456,0.312,0.743c0.038,0.186,0.058,0.513,0.058,0.978v3.648h-1.007
			v-3.609c0-0.41-0.038-0.716-0.116-0.918c-0.078-0.203-0.218-0.365-0.417-0.486c-0.199-0.121-0.434-0.181-0.7-0.181
			c-0.429,0-0.799,0.136-1.109,0.408c-0.312,0.271-0.467,0.788-0.467,1.547v3.241H290.466L290.466,110.379z"/>
		<path d="M296.834,110.379v-8.19h1.006v4.669l2.381-2.414h1.301l-2.268,2.203l2.497,3.731h-1.24l-1.961-3.034l-0.71,0.682v2.353
			H296.834z"/>
	</g>
	<polygon fill="#BCBEC0" stroke="#000000" stroke-width="0.707" stroke-linecap="round" stroke-linejoin="round" points="
		235.854,48.44 228.888,60.297 242.736,60.214 	"/>
	<rect x="228.888" y="22.653" fill="#D1D3D4" stroke="#000000" stroke-width="0.5" width="11.609" height="11.608"/>
	<polygon fill="#808285" stroke="#000000" stroke-width="0.5" points="228.888,107.478 236.103,100.263 243.316,107.478 
		236.103,114.606 	"/>
	<path fill="#A7A9AC" stroke="#000000" stroke-width="0.5" d="M234.694,86.084c3.149,0,5.805-2.57,5.805-5.804
		c0-3.15-2.654-5.804-5.805-5.804c-3.233,0-5.806,2.654-5.806,5.804C228.888,83.514,231.459,86.084,234.694,86.084z"/>
	<g>
		<path d="M253.127,34.095v-8.189h5.524v0.967h-4.441v2.536h3.844v0.967h-3.844v3.721h-1.083V34.095z"/>
		<path d="M259.558,31.128c0-1.099,0.305-1.912,0.916-2.441c0.51-0.439,1.132-0.659,1.866-0.659c0.814,0,1.481,0.267,1.999,0.801
			c0.519,0.535,0.777,1.273,0.777,2.216c0,0.764-0.114,1.364-0.345,1.802c-0.229,0.438-0.562,0.777-1,1.02
			c-0.438,0.242-0.915,0.362-1.433,0.362c-0.831,0-1.503-0.266-2.016-0.798C259.813,32.897,259.558,32.131,259.558,31.128z
			 M260.591,31.128c0,0.76,0.165,1.329,0.497,1.707s0.749,0.567,1.252,0.567c0.499,0,0.914-0.19,1.246-0.57
			c0.33-0.379,0.497-0.959,0.497-1.738c0-0.734-0.167-1.289-0.501-1.667c-0.332-0.378-0.747-0.567-1.242-0.567
			c-0.503,0-0.92,0.188-1.252,0.564S260.591,30.369,260.591,31.128z"/>
		<path d="M270.184,34.095v-0.872c-0.462,0.67-1.09,1.005-1.882,1.005c-0.352,0-0.678-0.067-0.981-0.201
			c-0.304-0.134-0.528-0.302-0.676-0.505c-0.146-0.203-0.251-0.452-0.311-0.746c-0.041-0.197-0.062-0.51-0.062-0.938v-3.676h1.007
			v3.291c0,0.525,0.021,0.879,0.062,1.062c0.062,0.265,0.198,0.472,0.402,0.623c0.204,0.151,0.458,0.226,0.761,0.226
			c0.301,0,0.583-0.077,0.849-0.231c0.266-0.155,0.451-0.365,0.562-0.632c0.109-0.266,0.165-0.653,0.165-1.159v-3.179h1.006v5.933
			h-0.901V34.095z"/>
		<path d="M272.649,34.095v-5.933h0.905v0.899c0.23-0.421,0.444-0.698,0.639-0.833c0.195-0.134,0.411-0.201,0.646-0.201
			c0.34,0,0.684,0.108,1.033,0.324l-0.348,0.933c-0.245-0.145-0.49-0.217-0.735-0.217c-0.222,0-0.417,0.065-0.594,0.198
			c-0.175,0.133-0.3,0.316-0.374,0.55c-0.11,0.358-0.168,0.749-0.168,1.174v3.105H272.649z"/>
		<path d="M283.499,34.095v-0.748c-0.376,0.588-0.931,0.882-1.659,0.882c-0.473,0-0.908-0.13-1.305-0.391
			c-0.397-0.261-0.704-0.625-0.924-1.092c-0.217-0.467-0.325-1.004-0.325-1.612c0-0.592,0.099-1.13,0.296-1.612
			s0.494-0.852,0.889-1.109c0.396-0.257,0.836-0.385,1.324-0.385c0.356,0,0.677,0.076,0.955,0.226
			c0.278,0.151,0.507,0.348,0.682,0.589v-2.938h1v8.19L283.499,34.095L283.499,34.095z M280.32,31.134
			c0,0.76,0.159,1.328,0.48,1.704c0.32,0.377,0.698,0.565,1.135,0.565c0.438,0,0.812-0.18,1.12-0.54
			c0.307-0.359,0.461-0.908,0.461-1.645c0-0.812-0.158-1.408-0.471-1.789c-0.312-0.379-0.698-0.569-1.156-0.569
			c-0.447,0-0.82,0.183-1.12,0.547C280.469,29.773,280.32,30.348,280.32,31.134z"/>
		<path d="M286.001,34.095v-5.933h0.904v0.899c0.23-0.421,0.444-0.698,0.641-0.833c0.196-0.134,0.41-0.201,0.646-0.201
			c0.339,0,0.684,0.108,1.033,0.324l-0.346,0.933c-0.246-0.145-0.491-0.217-0.738-0.217c-0.219,0-0.417,0.065-0.593,0.198
			c-0.174,0.133-0.299,0.316-0.373,0.55c-0.112,0.358-0.167,0.749-0.167,1.174v3.105H286.001z"/>
		<path d="M289.829,27.062v-1.157h1.006v1.157H289.829z M289.829,34.095v-5.933h1.006v5.933H289.829z"/>
		<path d="M292.366,34.095v-5.933h0.904v0.843c0.437-0.652,1.064-0.978,1.889-0.978c0.357,0,0.687,0.064,0.985,0.192
			c0.3,0.129,0.524,0.297,0.673,0.506c0.149,0.208,0.254,0.456,0.313,0.743c0.037,0.186,0.056,0.512,0.056,0.978v3.648h-1.006
			v-3.609c0-0.409-0.039-0.716-0.116-0.919c-0.079-0.203-0.218-0.365-0.417-0.486c-0.2-0.121-0.433-0.181-0.701-0.181
			c-0.429,0-0.799,0.136-1.108,0.408c-0.312,0.272-0.467,0.788-0.467,1.548v3.24L292.366,34.095L292.366,34.095z"/>
		<path d="M298.734,34.095v-8.189h1.008v4.67l2.38-2.413h1.303l-2.27,2.201l2.496,3.732h-1.239l-1.96-3.034l-0.71,0.682v2.352
			H298.734z"/>
		<path d="M304.048,32.324l0.994-0.156c0.056,0.398,0.211,0.704,0.467,0.917c0.255,0.212,0.611,0.318,1.069,0.318
			c0.462,0,0.806-0.094,1.028-0.283c0.224-0.188,0.335-0.409,0.335-0.662c0-0.227-0.099-0.406-0.297-0.537
			c-0.138-0.089-0.479-0.203-1.027-0.341c-0.737-0.186-1.248-0.347-1.532-0.483c-0.286-0.135-0.502-0.324-0.649-0.564
			c-0.146-0.24-0.221-0.505-0.221-0.796c0-0.264,0.062-0.509,0.182-0.735c0.121-0.225,0.287-0.412,0.495-0.561
			c0.156-0.115,0.369-0.213,0.64-0.293s0.561-0.12,0.868-0.12c0.467,0,0.875,0.067,1.228,0.201s0.611,0.316,0.778,0.544
			c0.168,0.229,0.284,0.536,0.348,0.919l-0.982,0.134c-0.045-0.305-0.175-0.543-0.39-0.715c-0.214-0.172-0.518-0.257-0.907-0.257
			c-0.463,0-0.792,0.077-0.989,0.229c-0.196,0.153-0.297,0.332-0.297,0.537c0,0.13,0.042,0.248,0.124,0.352
			c0.082,0.108,0.21,0.197,0.385,0.268c0.103,0.037,0.396,0.123,0.89,0.257c0.712,0.19,1.208,0.346,1.487,0.467
			c0.281,0.121,0.504,0.297,0.663,0.528c0.159,0.231,0.24,0.518,0.24,0.86c0,0.335-0.098,0.651-0.293,0.947
			c-0.196,0.296-0.479,0.525-0.847,0.687c-0.369,0.162-0.786,0.243-1.252,0.243c-0.771,0-1.358-0.16-1.764-0.48
			C304.418,33.429,304.16,32.954,304.048,32.324z"/>
	</g>
	<g>
		<path d="M27.353,14.03h-1.005V7.621c-0.243,0.231-0.56,0.461-0.953,0.693c-0.393,0.231-0.746,0.404-1.059,0.52V7.861
			c0.562-0.265,1.054-0.585,1.475-0.961s0.719-0.741,0.895-1.095h0.647V14.03z"/>
		<path d="M30.736,13.32c-0.54-0.682-0.81-1.792-0.81-3.33c0-0.968,0.1-1.748,0.298-2.338c0.199-0.59,0.496-1.046,0.889-1.366
			c0.394-0.32,0.888-0.48,1.483-0.48c0.439,0,0.825,0.088,1.157,0.266c0.331,0.177,0.604,0.432,0.821,0.765
			c0.216,0.333,0.386,0.74,0.508,1.218c0.124,0.479,0.185,1.124,0.185,1.936c0,0.961-0.098,1.736-0.296,2.327
			c-0.197,0.59-0.493,1.047-0.885,1.369c-0.394,0.322-0.891,0.484-1.489,0.484C31.808,14.169,31.188,13.886,30.736,13.32
			L30.736,13.32z M31.48,7.224c-0.347,0.5-0.52,1.421-0.52,2.766c0,1.344,0.157,2.24,0.472,2.685
			c0.315,0.445,0.704,0.667,1.165,0.667c0.462,0,0.85-0.224,1.165-0.67c0.314-0.447,0.472-1.341,0.472-2.682
			c0-1.349-0.156-2.244-0.472-2.688c-0.315-0.443-0.707-0.665-1.176-0.665C32.125,6.638,31.755,6.833,31.48,7.224L31.48,7.224z"/>
		<path d="M37.099,13.32c-0.54-0.682-0.81-1.792-0.81-3.33c0-0.968,0.1-1.748,0.299-2.338c0.199-0.59,0.495-1.046,0.888-1.366
			c0.394-0.32,0.888-0.48,1.483-0.48c0.438,0,0.825,0.088,1.157,0.266c0.332,0.177,0.604,0.432,0.82,0.765s0.387,0.74,0.508,1.218
			c0.123,0.479,0.185,1.124,0.185,1.936c0,0.961-0.099,1.736-0.295,2.327c-0.197,0.591-0.493,1.047-0.887,1.369
			c-0.393,0.322-0.89,0.484-1.488,0.484C38.17,14.169,37.549,13.886,37.099,13.32L37.099,13.32z M37.842,7.224
			c-0.346,0.5-0.521,1.421-0.521,2.766c0,1.344,0.157,2.24,0.473,2.685c0.314,0.445,0.704,0.667,1.165,0.667
			c0.462,0,0.851-0.224,1.166-0.67c0.313-0.447,0.472-1.341,0.472-2.682c0-1.349-0.158-2.244-0.472-2.688
			c-0.315-0.443-0.707-0.665-1.178-0.665C38.486,6.638,38.117,6.833,37.842,7.224L37.842,7.224z"/>
	</g>
	<g>
		<path d="M30.1,28.968l0.966-0.089c0.082,0.454,0.239,0.784,0.47,0.989s0.526,0.307,0.888,0.307c0.31,0,0.581-0.07,0.812-0.212
			c0.232-0.142,0.424-0.331,0.572-0.567c0.149-0.236,0.274-0.556,0.375-0.958c0.102-0.402,0.151-0.812,0.151-1.229
			c0-0.044-0.002-0.111-0.006-0.201c-0.201,0.32-0.477,0.58-0.824,0.779c-0.35,0.199-0.727,0.299-1.131,0.299
			c-0.679,0-1.252-0.246-1.722-0.737c-0.47-0.492-0.704-1.14-0.704-1.944c0-0.831,0.245-1.5,0.734-2.006
			c0.49-0.507,1.104-0.76,1.841-0.76c0.533,0,1.021,0.144,1.461,0.43c0.441,0.286,0.777,0.696,1.007,1.227
			c0.229,0.531,0.343,1.299,0.343,2.304c0,1.047-0.113,1.88-0.341,2.5c-0.228,0.62-0.565,1.092-1.015,1.416
			c-0.449,0.325-0.975,0.486-1.578,0.486c-0.641,0-1.165-0.178-1.569-0.534C30.425,30.112,30.182,29.612,30.1,28.968z
			 M34.218,25.353c0-0.578-0.153-1.036-0.461-1.375c-0.307-0.338-0.677-0.508-1.109-0.508c-0.446,0-0.836,0.183-1.168,0.548
			c-0.332,0.365-0.497,0.838-0.497,1.419c0,0.521,0.157,0.944,0.473,1.271c0.314,0.326,0.704,0.489,1.165,0.489
			c0.466,0,0.849-0.163,1.147-0.489S34.218,25.93,34.218,25.353z"/>
		<path d="M37.121,30.152c-0.54-0.682-0.811-1.792-0.811-3.33c0-0.968,0.101-1.748,0.299-2.338c0.199-0.59,0.496-1.046,0.89-1.367
			c0.393-0.32,0.887-0.48,1.482-0.48c0.439,0,0.825,0.088,1.156,0.266c0.332,0.176,0.605,0.432,0.821,0.765s0.386,0.739,0.509,1.218
			c0.123,0.479,0.184,1.124,0.184,1.937c0,0.961-0.099,1.737-0.296,2.327c-0.196,0.59-0.493,1.047-0.886,1.369
			c-0.393,0.322-0.89,0.483-1.489,0.483C38.192,31.001,37.572,30.718,37.121,30.152L37.121,30.152z M37.864,24.057
			c-0.346,0.499-0.52,1.421-0.52,2.766c0,1.345,0.158,2.239,0.472,2.685c0.315,0.445,0.704,0.667,1.166,0.667
			c0.461,0,0.851-0.223,1.165-0.67c0.314-0.447,0.473-1.341,0.473-2.682c0-1.348-0.158-2.244-0.473-2.688
			c-0.314-0.443-0.707-0.665-1.177-0.665C38.509,23.47,38.14,23.666,37.864,24.057L37.864,24.057z"/>
	</g>
	<g>
		<path d="M31.497,43.252c-0.417-0.152-0.728-0.371-0.928-0.653c-0.2-0.283-0.302-0.622-0.302-1.017
			c0-0.596,0.214-1.097,0.644-1.502c0.428-0.406,0.998-0.609,1.709-0.609c0.715,0,1.291,0.208,1.727,0.622
			C34.782,40.508,35,41.014,35,41.609c0,0.38-0.101,0.711-0.299,0.992c-0.199,0.281-0.501,0.498-0.907,0.65
			c0.502,0.165,0.885,0.429,1.146,0.793c0.264,0.365,0.395,0.801,0.395,1.308c0,0.701-0.248,1.289-0.743,1.766
			c-0.496,0.477-1.147,0.715-1.955,0.715c-0.809,0-1.46-0.24-1.956-0.718c-0.495-0.479-0.743-1.076-0.743-1.791
			c0-0.532,0.135-0.979,0.405-1.337C30.613,43.628,30.998,43.383,31.497,43.252z M30.972,45.331c0,0.287,0.068,0.564,0.204,0.833
			c0.135,0.269,0.338,0.476,0.606,0.623s0.557,0.221,0.865,0.221c0.48,0,0.877-0.155,1.189-0.463c0.312-0.31,0.47-0.703,0.47-1.179
			c0-0.484-0.161-0.885-0.482-1.201c-0.322-0.316-0.727-0.475-1.209-0.475c-0.474,0-0.865,0.157-1.177,0.469
			C31.127,44.47,30.972,44.861,30.972,45.331z M31.295,41.548c0,0.387,0.125,0.704,0.375,0.95s0.574,0.369,0.972,0.369
			c0.388,0,0.705-0.122,0.953-0.366s0.372-0.543,0.372-0.897c0-0.369-0.127-0.679-0.383-0.93s-0.572-0.377-0.953-0.377
			c-0.383,0-0.702,0.124-0.955,0.369C31.422,40.911,31.295,41.205,31.295,41.548z"/>
		<path d="M37.121,46.985c-0.54-0.682-0.811-1.792-0.811-3.33c0-0.969,0.101-1.748,0.299-2.339c0.199-0.59,0.496-1.045,0.89-1.366
			c0.393-0.321,0.887-0.48,1.482-0.48c0.439,0,0.825,0.088,1.156,0.265c0.332,0.177,0.605,0.432,0.821,0.765s0.386,0.74,0.509,1.218
			c0.123,0.479,0.184,1.124,0.184,1.936c0,0.961-0.099,1.736-0.296,2.327c-0.196,0.591-0.493,1.046-0.886,1.369
			c-0.393,0.323-0.89,0.484-1.489,0.484C38.192,47.834,37.572,47.55,37.121,46.985L37.121,46.985z M37.864,40.889
			c-0.346,0.5-0.52,1.421-0.52,2.766c0,1.344,0.158,2.239,0.472,2.685c0.315,0.445,0.704,0.667,1.166,0.667
			c0.461,0,0.851-0.223,1.165-0.67c0.314-0.447,0.473-1.341,0.473-2.682c0-1.349-0.158-2.244-0.473-2.688
			c-0.314-0.443-0.707-0.665-1.177-0.665C38.509,40.302,38.14,40.498,37.864,40.889L37.864,40.889z"/>
	</g>
	<g>
		<path d="M30.016,57.325v-0.967h5.302v0.782c-0.521,0.555-1.038,1.293-1.55,2.213s-0.908,1.866-1.188,2.838
			c-0.201,0.686-0.329,1.436-0.386,2.251h-1.033c0.011-0.645,0.138-1.422,0.379-2.335c0.243-0.913,0.59-1.792,1.042-2.64
			c0.453-0.848,0.934-1.562,1.444-2.143L30.016,57.325L30.016,57.325z"/>
		<path d="M37.121,63.733c-0.54-0.682-0.811-1.792-0.811-3.33c0-0.969,0.101-1.748,0.299-2.339c0.199-0.59,0.496-1.045,0.89-1.366
			c0.393-0.32,0.887-0.48,1.482-0.48c0.439,0,0.825,0.088,1.156,0.265c0.331,0.177,0.605,0.432,0.821,0.766s0.386,0.739,0.509,1.218
			s0.184,1.124,0.184,1.936c0,0.961-0.099,1.736-0.296,2.327c-0.196,0.591-0.493,1.047-0.886,1.369
			c-0.393,0.322-0.89,0.483-1.489,0.483C38.192,64.583,37.572,64.299,37.121,63.733L37.121,63.733z M37.864,57.638
			c-0.346,0.5-0.52,1.421-0.52,2.766c0,1.345,0.158,2.239,0.472,2.685c0.315,0.445,0.704,0.667,1.166,0.667
			c0.461,0,0.851-0.223,1.165-0.67c0.314-0.447,0.473-1.341,0.473-2.682c0-1.349-0.158-2.244-0.473-2.688
			c-0.314-0.443-0.707-0.665-1.177-0.665C38.509,57.051,38.14,57.247,37.864,57.638L37.864,57.638z"/>
	</g>
	<g>
		<path d="M35.167,75.09l-1,0.078c-0.089-0.395-0.216-0.682-0.379-0.86c-0.272-0.287-0.607-0.43-1.006-0.43
			c-0.321,0-0.603,0.089-0.845,0.268c-0.315,0.231-0.565,0.568-0.749,1.012c-0.182,0.443-0.276,1.075-0.284,1.894
			c0.242-0.369,0.538-0.643,0.889-0.822s0.718-0.268,1.101-0.268c0.67,0,1.241,0.247,1.712,0.741
			c0.472,0.494,0.707,1.131,0.707,1.914c0,0.514-0.11,0.992-0.332,1.433c-0.222,0.441-0.525,0.779-0.914,1.014
			c-0.387,0.234-0.826,0.352-1.317,0.352c-0.838,0-1.521-0.308-2.052-0.924c-0.528-0.617-0.793-1.632-0.793-3.048
			c0-1.583,0.292-2.734,0.878-3.453c0.511-0.625,1.197-0.938,2.062-0.938c0.645,0,1.172,0.181,1.584,0.542
			C34.84,73.956,35.085,74.454,35.167,75.09z M31.061,78.622c0,0.347,0.074,0.678,0.22,0.994c0.147,0.317,0.354,0.559,0.618,0.724
			c0.266,0.166,0.542,0.249,0.833,0.249c0.426,0,0.79-0.171,1.096-0.514c0.306-0.342,0.458-0.808,0.458-1.397
			c0-0.566-0.151-1.012-0.453-1.337c-0.302-0.326-0.683-0.489-1.141-0.489c-0.455,0-0.84,0.163-1.156,0.489
			C31.219,77.665,31.061,78.093,31.061,78.622z"/>
		<path d="M37.121,80.566c-0.54-0.682-0.811-1.792-0.811-3.33c0-0.968,0.101-1.748,0.299-2.338c0.199-0.59,0.496-1.046,0.89-1.366
			c0.393-0.32,0.887-0.48,1.482-0.48c0.439,0,0.825,0.088,1.156,0.266c0.332,0.176,0.605,0.432,0.821,0.765s0.386,0.74,0.509,1.218
			c0.123,0.479,0.184,1.124,0.184,1.936c0,0.961-0.099,1.736-0.296,2.327c-0.196,0.591-0.493,1.047-0.886,1.369
			c-0.393,0.322-0.89,0.483-1.489,0.483C38.192,81.415,37.572,81.132,37.121,80.566L37.121,80.566z M37.864,74.47
			c-0.346,0.499-0.52,1.421-0.52,2.766c0,1.344,0.158,2.24,0.472,2.684c0.315,0.446,0.704,0.667,1.166,0.667
			c0.461,0,0.851-0.223,1.165-0.67s0.473-1.341,0.473-2.682c0-1.349-0.158-2.244-0.473-2.688c-0.314-0.444-0.707-0.665-1.177-0.665
			C38.509,73.884,38.14,74.079,37.864,74.47L37.864,74.47z"/>
	</g>
	<g>
		<path d="M29.949,95.961l1.056-0.09c0.078,0.514,0.26,0.9,0.544,1.16c0.285,0.259,0.628,0.388,1.03,0.388
			c0.483,0,0.895-0.182,1.229-0.547c0.335-0.365,0.503-0.85,0.503-1.453c0-0.573-0.162-1.026-0.483-1.357
			c-0.322-0.331-0.744-0.497-1.266-0.497c-0.324,0-0.617,0.073-0.877,0.221c-0.261,0.147-0.466,0.338-0.615,0.572l-0.943-0.123
			l0.793-4.207h4.073v0.961h-3.27l-0.44,2.201c0.491-0.343,1.008-0.514,1.548-0.514c0.715,0,1.318,0.248,1.81,0.743
			c0.492,0.496,0.737,1.132,0.737,1.911c0,0.742-0.216,1.382-0.647,1.922c-0.524,0.663-1.242,0.995-2.151,0.995
			c-0.744,0-1.354-0.208-1.824-0.626S30.016,96.65,29.949,95.961z"/>
		<path d="M37.121,97.397c-0.54-0.682-0.811-1.792-0.811-3.33c0-0.968,0.101-1.748,0.299-2.338c0.199-0.59,0.496-1.046,0.89-1.366
			c0.393-0.32,0.887-0.48,1.482-0.48c0.439,0,0.825,0.088,1.156,0.265c0.332,0.177,0.605,0.432,0.821,0.765s0.386,0.74,0.509,1.218
			c0.123,0.479,0.184,1.124,0.184,1.936c0,0.961-0.099,1.736-0.296,2.327c-0.196,0.591-0.493,1.047-0.886,1.369
			c-0.393,0.322-0.89,0.484-1.489,0.484C38.192,98.247,37.572,97.963,37.121,97.397L37.121,97.397z M37.864,91.301
			c-0.346,0.5-0.52,1.421-0.52,2.766c0,1.344,0.158,2.239,0.472,2.685c0.315,0.445,0.704,0.667,1.166,0.667
			c0.461,0,0.851-0.223,1.165-0.67c0.314-0.447,0.473-1.341,0.473-2.682c0-1.349-0.158-2.244-0.473-2.688
			c-0.314-0.443-0.707-0.665-1.177-0.665C38.509,90.715,38.14,90.911,37.864,91.301L37.864,91.301z"/>
	</g>
	<g>
		<path d="M33.173,114.856v-1.963h-3.554v-0.922l3.737-5.308h0.821v5.308h1.106v0.922h-1.106v1.963H33.173z M33.173,111.974v-3.693
			l-2.564,3.693H33.173z"/>
		<path d="M37.121,114.146c-0.54-0.682-0.811-1.791-0.811-3.33c0-0.969,0.101-1.748,0.299-2.338c0.199-0.59,0.496-1.045,0.89-1.367
			c0.393-0.319,0.887-0.479,1.482-0.479c0.439,0,0.825,0.088,1.156,0.265c0.331,0.178,0.605,0.433,0.821,0.767
			s0.386,0.739,0.509,1.218s0.184,1.124,0.184,1.936c0,0.961-0.099,1.736-0.296,2.328c-0.196,0.59-0.493,1.047-0.886,1.367
			c-0.393,0.323-0.89,0.483-1.489,0.483C38.192,114.995,37.572,114.712,37.121,114.146L37.121,114.146z M37.864,108.05
			c-0.346,0.5-0.52,1.422-0.52,2.766c0,1.345,0.158,2.24,0.472,2.686c0.315,0.445,0.704,0.668,1.166,0.668
			c0.461,0,0.851-0.225,1.165-0.672c0.314-0.446,0.473-1.34,0.473-2.682c0-1.349-0.158-2.243-0.473-2.688
			c-0.314-0.443-0.707-0.665-1.177-0.665C38.509,107.464,38.14,107.66,37.864,108.05L37.864,108.05z"/>
	</g>
	<g>
		<path d="M29.955,129.442l1.005-0.135c0.115,0.57,0.312,0.98,0.589,1.231c0.277,0.252,0.616,0.378,1.014,0.378
			c0.474,0,0.872-0.164,1.198-0.492c0.326-0.326,0.489-0.732,0.489-1.219c0-0.461-0.151-0.842-0.452-1.143
			c-0.302-0.299-0.687-0.448-1.151-0.448c-0.189,0-0.427,0.036-0.71,0.11l0.112-0.883c0.067,0.008,0.121,0.012,0.162,0.012
			c0.428,0,0.813-0.111,1.156-0.336c0.343-0.224,0.515-0.566,0.515-1.033c0-0.368-0.125-0.674-0.375-0.916
			c-0.25-0.241-0.572-0.363-0.967-0.363c-0.393,0-0.718,0.123-0.979,0.369s-0.428,0.613-0.502,1.105l-1.006-0.179
			c0.123-0.675,0.402-1.196,0.838-1.567c0.437-0.369,0.979-0.556,1.625-0.556c0.447,0,0.858,0.097,1.235,0.288
			c0.376,0.191,0.664,0.453,0.863,0.785c0.198,0.331,0.299,0.683,0.299,1.056c0,0.354-0.096,0.677-0.285,0.966
			c-0.19,0.291-0.471,0.522-0.843,0.693c0.483,0.111,0.859,0.344,1.128,0.695c0.269,0.353,0.401,0.792,0.401,1.322
			c0,0.713-0.261,1.32-0.781,1.817c-0.521,0.497-1.182,0.745-1.979,0.745c-0.719,0-1.316-0.215-1.791-0.643
			C30.293,130.681,30.022,130.124,29.955,129.442z"/>
		<path d="M37.121,130.896c-0.54-0.682-0.811-1.791-0.811-3.33c0-0.967,0.101-1.748,0.299-2.338c0.199-0.591,0.496-1.045,0.89-1.365
			c0.393-0.321,0.887-0.48,1.482-0.48c0.439,0,0.825,0.09,1.156,0.266c0.331,0.178,0.605,0.433,0.821,0.766
			c0.216,0.334,0.386,0.74,0.509,1.218c0.123,0.479,0.184,1.125,0.184,1.937c0,0.961-0.099,1.736-0.296,2.328
			c-0.196,0.59-0.493,1.047-0.886,1.367c-0.393,0.323-0.89,0.484-1.489,0.484C38.192,131.745,37.572,131.461,37.121,130.896
			L37.121,130.896z M37.864,124.8c-0.346,0.5-0.52,1.422-0.52,2.766c0,1.346,0.158,2.24,0.472,2.686
			c0.315,0.445,0.704,0.668,1.166,0.668c0.461,0,0.851-0.225,1.165-0.671c0.314-0.447,0.473-1.341,0.473-2.683
			c0-1.349-0.158-2.244-0.473-2.688s-0.707-0.665-1.177-0.665C38.509,124.213,38.14,124.408,37.864,124.8L37.864,124.8z"/>
	</g>
	<g>
		<path d="M35.234,147.472v0.967H29.82c-0.007-0.244,0.032-0.477,0.118-0.698c0.139-0.369,0.358-0.732,0.662-1.091
			c0.304-0.356,0.743-0.771,1.316-1.239c0.89-0.729,1.492-1.31,1.805-1.734c0.313-0.428,0.469-0.829,0.469-1.21
			c0-0.398-0.142-0.734-0.427-1.009c-0.285-0.272-0.657-0.411-1.114-0.411c-0.483,0-0.872,0.146-1.163,0.438
			c-0.291,0.289-0.438,0.692-0.44,1.207l-1.033-0.106c0.071-0.771,0.336-1.358,0.799-1.763c0.462-0.403,1.082-0.606,1.86-0.606
			c0.786,0,1.408,0.22,1.866,0.653c0.458,0.438,0.687,0.977,0.687,1.621c0,0.326-0.066,0.648-0.201,0.966
			c-0.134,0.317-0.356,0.649-0.668,1.001c-0.311,0.35-0.828,0.83-1.55,1.439c-0.604,0.508-0.991,0.852-1.163,1.031
			c-0.171,0.182-0.312,0.362-0.424,0.545H35.234L35.234,147.472z"/>
		<path d="M37.121,147.728c-0.54-0.682-0.811-1.791-0.811-3.33c0-0.967,0.101-1.746,0.299-2.338c0.199-0.59,0.496-1.045,0.89-1.365
			c0.393-0.32,0.887-0.48,1.482-0.48c0.439,0,0.825,0.089,1.156,0.266c0.331,0.178,0.605,0.433,0.821,0.766
			c0.216,0.334,0.386,0.74,0.509,1.218c0.123,0.479,0.184,1.125,0.184,1.937c0,0.961-0.099,1.736-0.296,2.328
			c-0.196,0.59-0.493,1.047-0.886,1.369c-0.393,0.321-0.89,0.482-1.489,0.482C38.192,148.577,37.572,148.294,37.121,147.728
			L37.121,147.728z M37.864,141.633c-0.346,0.499-0.52,1.42-0.52,2.765c0,1.346,0.158,2.24,0.472,2.686
			c0.315,0.445,0.704,0.668,1.166,0.668c0.461,0,0.851-0.225,1.165-0.67c0.314-0.447,0.473-1.342,0.473-2.684
			c0-1.348-0.158-2.244-0.473-2.688s-0.707-0.665-1.177-0.665C38.509,141.045,38.14,141.241,37.864,141.633L37.864,141.633z"/>
	</g>
	<g>
		<path d="M33.737,165.271h-1.005v-6.41c-0.241,0.231-0.56,0.464-0.953,0.693c-0.393,0.231-0.745,0.404-1.059,0.521v-0.972
			c0.562-0.266,1.054-0.586,1.475-0.961c0.421-0.377,0.719-0.742,0.895-1.097h0.646L33.737,165.271L33.737,165.271z"/>
		<path d="M37.121,164.562c-0.54-0.683-0.811-1.793-0.811-3.33c0-0.969,0.101-1.748,0.299-2.34c0.199-0.59,0.496-1.045,0.89-1.365
			c0.393-0.32,0.887-0.48,1.482-0.48c0.439,0,0.825,0.089,1.156,0.266c0.331,0.178,0.605,0.433,0.821,0.766
			c0.216,0.334,0.386,0.74,0.509,1.219s0.184,1.124,0.184,1.938c0,0.959-0.099,1.735-0.296,2.326
			c-0.196,0.59-0.493,1.047-0.886,1.369c-0.393,0.321-0.89,0.482-1.489,0.482C38.192,165.409,37.572,165.126,37.121,164.562
			L37.121,164.562z M37.864,158.465c-0.346,0.499-0.52,1.42-0.52,2.767c0,1.345,0.158,2.238,0.472,2.685
			c0.315,0.444,0.704,0.668,1.166,0.668c0.461,0,0.851-0.226,1.165-0.672s0.473-1.341,0.473-2.681c0-1.35-0.158-2.246-0.473-2.688
			s-0.707-0.664-1.177-0.664C38.509,157.878,38.14,158.073,37.864,158.465L37.864,158.465z"/>
	</g>
	<g>
		<path d="M37.227,181.31c-0.54-0.682-0.81-1.791-0.81-3.33c0-0.969,0.1-1.748,0.298-2.338c0.199-0.591,0.496-1.045,0.889-1.367
			c0.394-0.319,0.888-0.479,1.483-0.479c0.439,0,0.825,0.087,1.157,0.266c0.331,0.176,0.604,0.433,0.82,0.765
			c0.216,0.334,0.387,0.739,0.51,1.219c0.122,0.479,0.184,1.124,0.184,1.937c0,0.961-0.098,1.736-0.296,2.326
			c-0.197,0.592-0.493,1.049-0.885,1.369c-0.394,0.322-0.891,0.483-1.489,0.483C38.298,182.158,37.678,181.875,37.227,181.31
			L37.227,181.31z M37.97,175.214c-0.347,0.499-0.52,1.42-0.52,2.766c0,1.345,0.156,2.239,0.472,2.686
			c0.314,0.445,0.704,0.668,1.165,0.668c0.462,0,0.85-0.225,1.165-0.672c0.313-0.446,0.472-1.342,0.472-2.682
			c0-1.349-0.157-2.244-0.472-2.688c-0.315-0.441-0.707-0.664-1.176-0.664C38.615,174.627,38.246,174.822,37.97,175.214
			L37.97,175.214z"/>
	</g>
	<g>
		<path d="M95.344,198.022h-1.005v-6.41c-0.243,0.231-0.561,0.463-0.953,0.693s-0.746,0.404-1.059,0.52v-0.973
			c0.562-0.264,1.054-0.584,1.475-0.959c0.42-0.377,0.719-0.742,0.894-1.097h0.648V198.022z"/>
	</g>
	<g>
		<path d="M126.277,197.056v0.967h-5.414c-0.007-0.242,0.031-0.476,0.117-0.697c0.139-0.369,0.358-0.732,0.662-1.09
			c0.304-0.358,0.742-0.771,1.316-1.24c0.89-0.73,1.492-1.309,1.804-1.735c0.313-0.427,0.47-0.829,0.47-1.209
			c0-0.397-0.143-0.733-0.428-1.009c-0.285-0.273-0.657-0.411-1.114-0.411c-0.484,0-0.872,0.146-1.162,0.437
			c-0.291,0.291-0.438,0.693-0.44,1.207l-1.034-0.106c0.071-0.771,0.337-1.358,0.799-1.762c0.462-0.405,1.082-0.606,1.86-0.606
			c0.786,0,1.408,0.219,1.866,0.653c0.458,0.437,0.687,0.978,0.687,1.621c0,0.327-0.067,0.649-0.201,0.966s-0.355,0.65-0.667,1
			c-0.311,0.352-0.828,0.831-1.55,1.441c-0.604,0.506-0.991,0.851-1.162,1.031c-0.172,0.182-0.312,0.361-0.425,0.545h4.017V197.056z
			"/>
	</g>
	<g>
		<path d="M151.925,195.692l1.005-0.133c0.115,0.569,0.312,0.979,0.589,1.23c0.278,0.252,0.616,0.378,1.016,0.378
			c0.473,0,0.871-0.164,1.197-0.493c0.325-0.326,0.488-0.732,0.488-1.218c0-0.461-0.15-0.842-0.452-1.142
			c-0.302-0.301-0.686-0.449-1.15-0.449c-0.19,0-0.428,0.037-0.709,0.111l0.111-0.884c0.067,0.009,0.121,0.011,0.162,0.011
			c0.428,0,0.813-0.11,1.156-0.334c0.343-0.225,0.515-0.568,0.515-1.033c0-0.369-0.125-0.676-0.375-0.918
			c-0.25-0.24-0.571-0.362-0.966-0.362c-0.392,0-0.717,0.123-0.978,0.369c-0.262,0.245-0.43,0.614-0.503,1.106l-1.007-0.18
			c0.123-0.675,0.403-1.195,0.838-1.566c0.437-0.371,0.979-0.557,1.625-0.557c0.447,0,0.859,0.096,1.235,0.288
			c0.376,0.19,0.664,0.453,0.863,0.784s0.299,0.683,0.299,1.057c0,0.354-0.095,0.676-0.285,0.967
			c-0.189,0.289-0.471,0.521-0.843,0.691c0.484,0.111,0.86,0.345,1.128,0.695c0.268,0.354,0.402,0.793,0.402,1.322
			c0,0.715-0.262,1.319-0.782,1.818c-0.521,0.497-1.181,0.745-1.979,0.745c-0.719,0-1.315-0.215-1.791-0.644
			C152.263,196.931,151.992,196.375,151.925,195.692z"/>
	</g>
	<g>
		<path d="M186.071,198.022v-1.963h-3.554v-0.922l3.738-5.307h0.821v5.307h1.105v0.922h-1.105v1.963H186.071z M186.071,195.14
			v-3.693l-2.563,3.693H186.071z"/>
	</g>
	<g>
		<path d="M213.859,195.71l1.057-0.089c0.078,0.514,0.26,0.899,0.544,1.157c0.286,0.261,0.629,0.391,1.032,0.391
			c0.482,0,0.894-0.184,1.229-0.548c0.335-0.365,0.503-0.849,0.503-1.453c0-0.573-0.161-1.024-0.482-1.356
			c-0.322-0.332-0.743-0.498-1.267-0.498c-0.323,0-0.616,0.074-0.877,0.222s-0.466,0.338-0.615,0.571l-0.942-0.123l0.793-4.207
			h4.072v0.963h-3.269l-0.441,2.201c0.491-0.344,1.009-0.516,1.548-0.516c0.716,0,1.318,0.248,1.811,0.744
			c0.492,0.494,0.738,1.131,0.738,1.91c0,0.74-0.216,1.381-0.649,1.922c-0.523,0.663-1.241,0.994-2.148,0.994
			c-0.746,0-1.354-0.209-1.824-0.626C214.195,196.953,213.925,196.399,213.859,195.71z"/>
	</g>
	<g>
		<path d="M250.17,191.671l-1,0.078c-0.09-0.395-0.216-0.682-0.38-0.859c-0.272-0.287-0.607-0.432-1.005-0.432
			c-0.321,0-0.603,0.09-0.846,0.27c-0.315,0.229-0.564,0.567-0.748,1.012c-0.184,0.441-0.277,1.072-0.286,1.894
			c0.243-0.368,0.539-0.643,0.89-0.821c0.352-0.179,0.718-0.269,1.102-0.269c0.67,0,1.241,0.247,1.713,0.74s0.706,1.131,0.706,1.914
			c0,0.514-0.109,0.991-0.333,1.433c-0.222,0.442-0.524,0.779-0.913,1.016c-0.387,0.234-0.826,0.352-1.317,0.352
			c-0.838,0-1.521-0.309-2.05-0.924c-0.53-0.616-0.794-1.635-0.794-3.049c0-1.584,0.292-2.733,0.877-3.453
			c0.511-0.625,1.196-0.938,2.062-0.938c0.646,0,1.173,0.181,1.584,0.542C249.842,190.534,250.088,191.034,250.17,191.671z
			 M246.063,195.202c0,0.346,0.074,0.678,0.223,0.994c0.146,0.316,0.353,0.558,0.617,0.724s0.542,0.249,0.832,0.249
			c0.425,0,0.789-0.172,1.096-0.514c0.306-0.344,0.458-0.809,0.458-1.397c0-0.565-0.15-1.012-0.452-1.338
			c-0.303-0.326-0.684-0.489-1.141-0.489c-0.454,0-0.841,0.163-1.155,0.489C246.222,194.246,246.063,194.673,246.063,195.202z"/>
	</g>
	<g>
		<path d="M276.029,190.903v-0.967h5.304v0.781c-0.521,0.557-1.038,1.295-1.552,2.215c-0.512,0.92-0.906,1.864-1.187,2.838
			c-0.201,0.686-0.329,1.436-0.386,2.252h-1.033c0.011-0.646,0.137-1.424,0.38-2.336c0.242-0.912,0.59-1.793,1.042-2.641
			c0.453-0.848,0.936-1.562,1.443-2.145h-4.012V190.903z"/>
	</g>
	<g>
		<path d="M308.521,193.414c-0.417-0.153-0.726-0.37-0.927-0.654c-0.201-0.282-0.303-0.62-0.303-1.017
			c0-0.596,0.215-1.098,0.644-1.503c0.429-0.406,0.997-0.608,1.709-0.608c0.716,0,1.291,0.207,1.728,0.623
			c0.437,0.415,0.652,0.921,0.652,1.518c0,0.379-0.099,0.709-0.298,0.99c-0.2,0.281-0.503,0.498-0.909,0.651
			c0.503,0.164,0.888,0.428,1.148,0.794c0.264,0.363,0.394,0.801,0.394,1.307c0,0.7-0.247,1.289-0.741,1.767
			c-0.496,0.477-1.146,0.715-1.955,0.715c-0.81,0-1.46-0.239-1.956-0.718c-0.495-0.479-0.743-1.076-0.743-1.791
			c0-0.532,0.135-0.979,0.405-1.338C307.638,193.79,308.023,193.544,308.521,193.414z M307.996,195.492
			c0,0.286,0.067,0.563,0.205,0.833c0.136,0.268,0.337,0.476,0.604,0.621c0.269,0.147,0.557,0.223,0.866,0.223
			c0.479,0,0.877-0.154,1.188-0.465c0.313-0.309,0.471-0.701,0.471-1.18c0-0.482-0.161-0.885-0.482-1.2
			c-0.323-0.316-0.726-0.476-1.21-0.476c-0.474,0-0.865,0.156-1.177,0.471C308.152,194.632,307.996,195.022,307.996,195.492z
			 M308.321,191.71c0,0.387,0.125,0.704,0.373,0.949c0.25,0.246,0.574,0.369,0.974,0.369c0.387,0,0.705-0.122,0.953-0.366
			c0.247-0.244,0.371-0.543,0.371-0.896c0-0.369-0.128-0.68-0.384-0.932c-0.255-0.251-0.571-0.377-0.952-0.377
			c-0.384,0-0.701,0.123-0.955,0.369S308.321,191.367,308.321,191.71z"/>
	</g>
	<g>
		<path d="M182.542,211.04v-8.189h1.084v3.361h4.258v-3.361h1.083v8.189h-1.083v-3.861h-4.258v3.861H182.542z"/>
		<path d="M190.267,208.073c0-1.1,0.306-1.913,0.917-2.441c0.511-0.439,1.132-0.66,1.865-0.66c0.816,0,1.481,0.269,2.001,0.803
			c0.518,0.535,0.776,1.272,0.776,2.216c0,0.764-0.114,1.362-0.345,1.801c-0.229,0.438-0.562,0.778-0.999,1.021
			c-0.438,0.242-0.916,0.363-1.435,0.363c-0.83,0-1.501-0.267-2.014-0.8C190.524,209.842,190.267,209.075,190.267,208.073z
			 M191.301,208.073c0,0.759,0.166,1.328,0.498,1.705c0.33,0.38,0.748,0.568,1.25,0.568c0.5,0,0.915-0.189,1.246-0.57
			c0.332-0.381,0.497-0.959,0.497-1.737c0-0.733-0.166-1.29-0.499-1.667c-0.334-0.378-0.748-0.566-1.244-0.566
			c-0.502,0-0.92,0.188-1.25,0.562C191.467,206.745,191.301,207.312,191.301,208.073z"/>
		<path d="M200.893,211.04v-0.872c-0.463,0.671-1.09,1.006-1.883,1.006c-0.351,0-0.677-0.067-0.98-0.2
			c-0.303-0.135-0.529-0.304-0.676-0.507c-0.146-0.202-0.251-0.45-0.311-0.745c-0.042-0.197-0.062-0.511-0.062-0.938v-3.677h1.007
			v3.291c0,0.523,0.021,0.877,0.062,1.062c0.062,0.265,0.198,0.472,0.403,0.623c0.204,0.149,0.457,0.226,0.759,0.226
			c0.303,0,0.585-0.076,0.851-0.23c0.265-0.155,0.45-0.365,0.562-0.633c0.109-0.266,0.165-0.651,0.165-1.159v-3.179h1.006v5.935
			L200.893,211.04L200.893,211.04z"/>
		<path d="M203.355,211.04v-5.934h0.905v0.898c0.229-0.422,0.444-0.699,0.64-0.833c0.196-0.134,0.41-0.2,0.646-0.2
			c0.339,0,0.683,0.106,1.033,0.324l-0.347,0.932c-0.247-0.145-0.491-0.218-0.737-0.218c-0.222,0-0.417,0.066-0.594,0.199
			c-0.174,0.131-0.299,0.315-0.374,0.55c-0.11,0.357-0.168,0.749-0.168,1.174v3.106L203.355,211.04L203.355,211.04z"/>
		<path d="M206.774,209.269l0.995-0.156c0.056,0.398,0.211,0.705,0.467,0.916c0.254,0.213,0.611,0.32,1.069,0.32
			c0.462,0,0.804-0.096,1.027-0.283c0.225-0.188,0.336-0.409,0.336-0.662c0-0.228-0.101-0.406-0.296-0.536
			c-0.14-0.089-0.48-0.202-1.028-0.341c-0.737-0.188-1.249-0.349-1.534-0.483c-0.284-0.137-0.5-0.324-0.646-0.563
			c-0.147-0.24-0.223-0.506-0.223-0.797c0-0.264,0.062-0.509,0.184-0.734c0.121-0.225,0.285-0.411,0.494-0.562
			c0.155-0.116,0.368-0.214,0.639-0.294s0.561-0.119,0.87-0.119c0.465,0,0.874,0.066,1.226,0.2c0.353,0.134,0.611,0.316,0.779,0.545
			c0.169,0.229,0.283,0.536,0.348,0.919l-0.983,0.135c-0.045-0.306-0.175-0.543-0.389-0.715c-0.215-0.172-0.518-0.258-0.906-0.258
			c-0.464,0-0.792,0.077-0.99,0.229c-0.196,0.154-0.296,0.332-0.296,0.537c0,0.131,0.041,0.248,0.123,0.353
			c0.082,0.106,0.21,0.198,0.386,0.269c0.1,0.037,0.396,0.123,0.889,0.258c0.712,0.188,1.207,0.346,1.488,0.467
			s0.502,0.297,0.663,0.527c0.159,0.23,0.239,0.519,0.239,0.86c0,0.335-0.099,0.65-0.294,0.947
			c-0.194,0.295-0.478,0.524-0.847,0.687c-0.368,0.162-0.786,0.243-1.251,0.243c-0.771,0-1.358-0.159-1.763-0.479
			C207.143,210.373,206.886,209.897,206.774,209.269z"/>
	</g>
</g>
</svg>
