<?xml version="1.0" encoding="utf-8"?>
<!-- Generator: Adobe Illustrator 15.0.0, SVG Export Plug-In . SVG Version: 6.00 Build 0)  -->
<!DOCTYPE svg PUBLIC "-//W3C//DTD SVG 1.1//EN" "http://www.w3.org/Graphics/SVG/1.1/DTD/svg11.dtd">
<svg version="1.1" id="Layer_1" xmlns="http://www.w3.org/2000/svg" xmlns:xlink="http://www.w3.org/1999/xlink" x="0px" y="0px"
	 width="399.039px" height="333.074px" viewBox="6.579 7.417 399.039 333.074" enable-background="new 6.579 7.417 399.039 333.074"
	 xml:space="preserve">
<g>
	<g>
		<g>
			<g>
				<g>
					<path d="M32.187,143.656c5.03-15.276,12.019-29.452,22.136-42.649c-0.602-0.384-1.226-0.676-1.717-1.115
						c-0.865-0.777-1.606-1.692-2.491-2.445c-0.312-0.267-0.972-0.443-1.325-0.3c-3.077,1.257-7.657-1.179-6.746-5.615
						c0.163-0.79,0.189-1.637,0.504-2.36c1.269-2.92,5.354-3.078,7.665-1.396c1.266,0.92,2.137,2.074,2.346,3.622
						c0.214,1.573,1.212,2.667,2.153,3.812c0.173,0.21,0.347,0.42,0.508,0.641c1.474,2.017,1.565,2.001,3.367,0.3
						c2.859-2.696,5.672-5.449,8.66-7.997c2.601-2.219,5.383-4.231,8.149-6.253c2.671-1.952,5.293-4.022,8.167-5.631
						c3.594-2.01,7.424-3.599,11.15-5.37c0.173-0.081,0.335-0.182,0.459-0.249c-0.284-1.417-0.527-2.781-0.841-4.129
						c-0.178-0.771-0.639-1.238-1.516-1.405c-1.026-0.194-2.058-0.511-3.001-0.956c-2.235-1.055-3.064-3.104-2.128-5.425
						c0.409-1.011,1.156-1.891,1.778-2.811c0.91-1.343,2.291-1.317,3.688-1.206c1.739,0.14,3.474,0.323,5.214,0.415
						c0.892,0.048,1.401,0.403,1.797,1.216c0.77,1.575,1.33,3.105,0.234,4.751c-0.108,0.161-0.172,0.396-0.322,0.477
						c-1.464,0.765-1.067,2.038-0.799,3.176c0.299,1.274,0.797,2.505,1.176,3.653c3.12-0.854,6.18-1.747,9.271-2.523
						c3.14-0.79,6.279-1.641,9.469-2.15c3.777-0.604,7.604-0.905,11.416-1.273c1.941-0.188,3.895-0.249,5.845-0.338
						c0.6-0.025,0.918-0.186,0.987-0.859c0.115-1.121,0.482-2.231,0.485-3.348c0-0.675-0.418-1.393-0.788-2.008
						c-0.199-0.331-0.695-0.483-1.056-0.718c-1.405-0.91-1.838-2.336-1.167-3.861c0.159-0.356,0.384-0.687,0.515-1.052
						c0.552-1.559,1.71-2.263,3.299-2.369c0.664-0.045,1.351-0.154,1.993-0.043c0.604,0.105,1.213,0.39,1.728,0.73
						c0.729,0.489,1.193,1.275,2.19,0.141c1.015-1.154,3.879-0.021,4.417,1.603c0.517,1.55-0.341,4.213-1.718,5.142
						c-0.829,0.559-1.742,0.991-2.588,1.525c-1.101,0.693-1.982,3.581-1.386,4.713c0.16,0.304,0.667,0.535,1.045,0.592
						c1.895,0.285,3.827,0.373,5.695,0.769c4.713,0.998,9.54,1.451,14.115,3.129c2.263,0.83,4.692,1.199,6.978,1.979
						c2.547,0.869,5.012,1.979,7.521,2.967c0.892,0.352,1.791,0.7,2.713,0.957c0.826,0.23,1.426-0.169,1.851-0.894
						c0.669-1.14,1.436-2.228,2.024-3.403c0.277-0.557,0.311-1.27,0.314-1.913c0.004-0.612-0.188-1.225-0.271-1.839
						c-0.308-2.306,0.281-3.389,2.313-4.276c1.839-0.805,4.086-0.355,5.279,1.062c0.251,0.3,0.536,0.588,0.714,0.929
						c0.589,1.132,1.299,1.958,2.708,2.234c1.232,0.241,1.52,1.541,1.028,2.693c-0.767,1.803-2.379,2.44-3.999,2.997
						c-2.738,0.94-4.864,2.59-6.433,4.987c-0.082,0.126-0.131,0.273-0.278,0.583c1.967,1.057,3.946,2.042,5.845,3.159
						c2.086,1.227,4.125,2.534,6.133,3.881c1.544,1.034,3.051,2.132,4.501,3.292c3.553,2.841,7.604,5.067,10.576,8.629
						c1.118,1.339,2.392,2.558,3.668,3.751c0.25,0.233,0.979,0.298,1.263,0.106c2.017-1.367,3.631-3.021,4.142-5.569
						c0.343-1.714,2.267-3.038,4.205-3.197c0.39-0.031,0.812,0.028,1.167-0.097c2.412-0.854,3.879,0.354,4.695,2.579
						c0.541,1.474,0.81,3.077,0.968,4.646c0.114,1.136-1.298,2.675-2.438,2.933c-1.808,0.405-3.691,0.575-5.422,1.187
						c-1.66,0.586-3.166,1.606-4.736,2.437c2.537,3.001,4.682,5.988,6.588,9.156c1.095,1.818,2.479,3.471,3.5,5.323
						c1.668,3.021,3.295,6.084,4.668,9.247c1.527,3.521,2.734,7.179,4.135,10.758c0.107,0.275,0.669,0.601,0.951,0.546
						c2.38-0.438,4.74-0.964,7.109-1.452c0.612-0.126,0.635-0.456,0.58-1.021c-0.133-1.333,2.014-3.91,3.268-3.693
						c0.902,0.156,1.752,0.938,2.486,1.598c0.434,0.392,0.596,1.083,0.879,1.641c0.523,1.033,0.992,2.097,1.582,3.091
						c0.816,1.372,0.865,2.354,0.021,3.465c-0.095,0.124-0.179,0.304-0.304,0.352c-1.935,0.71-3.924,1.83-5.967,0.85
						c-2.139-1.024-4.173-0.999-6.353-0.41c-0.994,0.271-2.042,0.336-2.774,0.45c0.563,5.705,1.107,11.219,1.654,16.736
						c0.145,1.467,0.361,2.932,0.421,4.402c0.045,1.103-0.168,2.212-0.157,3.315c0.031,2.567,0.205,5.135,0.17,7.701
						c-0.021,1.737-0.271,3.473-0.471,5.201c-0.105,0.919,0.066,1.358,1.158,1.363c0.954,0.006,1.936,0.271,2.854,0.575
						c1.525,0.508,2.361-0.245,3.266-1.325c2.063-2.467,4.076-2.405,5.641-0.382c1.25,1.614,2.377,3.386,3.208,5.242
						c1.07,2.389-0.698,4.647-3.67,4.965c-0.854,0.092-1.716,0.083-2.573,0.113c-1.363,0.052-2.556-0.384-3.492-1.366
						c-1.529-1.603-3.461-2.367-5.592-2.674c-0.361-0.055-0.969,0.263-1.148,0.583c-0.379,0.67-0.584,1.446-0.799,2.196
						c-0.733,2.566-1.381,5.164-2.178,7.715c-0.658,2.11-1.367,4.221-2.252,6.243c-1.412,3.237-2.945,6.431-4.513,9.6
						c-1.116,2.256-2.339,4.457-3.58,6.647c-0.495,0.874-1.116,1.688-1.761,2.46c-0.835,1.004-0.799,1.649,0.277,2.363
						c0.748,0.497,1.483,1.023,2.27,1.459c0.928,0.521,1.852,0.833,2.984,0.348c1.465-0.63,2.793-0.172,4.191,0.639
						c1.711,0.99,1.891,2.49,2.292,4.135c0.767,3.161-0.055,3.457-2.911,4.628c-0.543,0.224-1.098,0.407-1.643,0.621
						c-1.909,0.755-4.23-1.377-5.01-3.278c-0.631-1.542-1.58-2.801-3.086-3.608c-0.887-0.478-1.713-1.075-2.625-1.496
						c-0.299-0.136-0.955-0.031-1.146,0.207c-1.96,2.423-3.751,4.988-5.803,7.329c-2.309,2.63-4.771,5.134-7.287,7.569
						c-2.025,1.963-4.195,3.781-6.368,5.588c-1.612,1.338-3.309,2.583-5.018,3.8c-0.817,0.583-0.945,1.188-0.592,2.086
						c0.592,1.508,1.152,3.037,1.61,4.589c0.357,1.208,1.107,2.093,2.25,2.317c1.504,0.294,2.261,1.23,2.935,2.421
						c0.777,1.372,0.881,2.813,0.57,4.308c-0.39,1.885-2.671,3.383-4.542,3.015c-3.125-0.615-5.64-3.631-5.72-6.895
						c-0.033-1.392,0.137-2.805-0.041-4.177c-0.157-1.214-0.642-2.394-1.031-3.57c-0.227-0.688-0.669-0.843-1.373-0.492
						c-2.023,1.012-4.081,1.954-6.119,2.936c-2.813,1.354-5.553,2.888-8.446,4.042c-4.178,1.666-8.445,3.125-12.714,4.55
						c-1.987,0.666-4.093,0.967-6.099,1.581c-1.625,0.5-1.761,0.969-1.463,2.599c0.414,2.256,0.787,4.521,1.106,6.793
						c0.097,0.688,0.644,1.364,0.111,2.158c-0.08,0.118,0.58,0.99,1.025,1.139c0.735,0.248,1.142,0.609,1.258,1.348
						c0.017,0.112,0.027,0.252,0.097,0.329c1.723,1.938,0.734,3.644-0.313,5.472c-0.834,1.455-2.012,1.979-3.541,1.869
						c-1.197-0.087-2.51-0.093-3.549-0.594c-2.275-1.097-3.6-3.262-2.992-5.969c0.182-0.813,0.862-1.552,1.427-2.233
						c0.962-1.16,1.539-2.276,1.172-3.934c-0.527-2.372-0.736-4.816-1-7.241c-0.096-0.888-0.462-1.108-1.293-1.025
						c-5.365,0.538-10.722,1.277-16.102,1.495c-4.189,0.165-8.41-0.259-12.607-0.559c-3.096-0.219-6.18-0.626-9.258-1.019
						c-1.351-0.173-2.687-0.49-4.017-0.796c-0.737-0.17-1.143-0.021-1.426,0.745c-0.613,1.676-1.276,3.338-2.026,4.958
						c-0.838,1.813-0.642,3.467,0.469,5.076c0.794,1.146,0.305,4.419-0.829,5.611c-0.188,0.199-0.396,0.382-0.586,0.575
						c-1.534,1.566-3.62,1.41-5.357,0.022c-1.57-1.253-2.328-2.941-2.697-4.656c-0.278-1.284,0.124-2.91,0.729-4.136
						c0.667-1.347,1.831-2.49,2.929-3.57c1.261-1.24,2.313-2.563,2.527-4.345c0.041-0.354-0.322-0.971-0.652-1.11
						c-3.361-1.446-6.791-2.735-10.127-4.23c-4.233-1.896-8.273-4.163-12.137-6.739c-2.647-1.764-5.366-3.423-7.991-5.222
						c-2.577-1.763-5.092-3.621-7.598-5.485c-0.487-0.36-0.824-0.519-1.305-0.074c-1.119,1.03-2.325,1.979-3.349,3.094
						c-0.476,0.517-0.856,1.344-0.857,2.032c-0.006,4.025-2.822,6.444-6.622,6.762c-1.207,0.101-2.534,0.308-3.61-0.077
						c-0.981-0.348-1.965-1.288-2.474-2.225c-1.026-1.891,0.157-5.986,1.841-7.354c1.188-0.961,2.545-1.355,4.046-1.27
						c1.69,0.102,3.18-0.324,4.397-1.536c0.851-0.843,1.732-1.661,2.51-2.564c0.168-0.195,0.089-0.827-0.108-1.072
						c-2.73-3.398-5.64-6.665-8.221-10.167c-2.346-3.185-4.377-6.601-6.489-9.952c-1.339-2.127-2.725-4.247-3.814-6.5
						c-1.347-2.787-2.427-5.703-3.585-8.578c-0.433-1.074-0.721-2.209-1.163-3.278c-0.106-0.256-0.61-0.569-0.85-0.514
						c-1.886,0.443-3.763,0.932-5.617,1.493c-0.534,0.159-0.99,0.598-1.467,0.93c-2.425,1.691-5.058,2.48-8.05,2.097
						c-2.377-0.305-4.563-3.242-3.603-5.353c0.429-0.94,1.586-1.77,2.604-2.188c2.416-0.998,4.941-1.698,7.613-1.709
						c1.952-0.008,3.906-0.104,5.855-0.22c1.261-0.071,1.41-0.354,1.212-1.53c-0.785-4.669-1.666-9.327-2.268-14.021
						c-0.45-3.508-0.604-7.062-0.745-10.602c-0.151-3.835-0.241-7.68-0.152-11.515c0.061-2.632,0.473-5.257,0.734-7.884
						c0.109-1.119,0.214-2.238,0.353-3.354c0.097-0.779-0.192-1.146-0.972-1.417c-2.763-0.962-5.512-1.498-8.481-0.998
						c-1.94,0.328-3.837-0.288-5.647-1.126c-1.13-0.522-2.372-0.767-2.94-2.086c-0.496-1.15-0.526-2.26,0.032-3.375
						c1.399-2.803,4.479-3.878,7.425-3.074c2.554,0.695,4.558,2.084,6.188,4.112C28.58,143.023,30.26,143.682,32.187,143.656z
						 M222.436,226.951c-1.016-0.61-1.798-1.116-2.611-1.567c-2.338-1.297-2.379-1.399-1.289-3.778
						c0.129-0.281,0.186-0.596,0.307-0.882c0.318-0.762,1.257-1.045,1.947-0.643c1.293,0.755,2.604,1.484,3.906,2.228
						c0.75,0.428,1.287,0.291,1.729-0.503c0.642-1.152,1.42-2.23,2.051-3.391c1.9-3.49,3.904-6.938,5.594-10.529
						c1.473-3.125,2.665-6.391,3.813-9.651c1.097-3.111,1.996-6.296,2.938-9.459c0.249-0.838,0.337-1.726,0.505-2.625
						c-1.121-0.24-2.076-0.42-3.019-0.651c-1.699-0.424-3.418-0.794-5.078-1.344c-2.312-0.761-1.815-2.419-0.854-4.141
						c0.387-0.693,1.063-0.896,1.922-0.682c1.774,0.44,3.582,0.763,5.371,1.151c2.062,0.449,2.065,0.454,2.188-1.739
						c0.012-0.193,0.009-0.39,0.016-0.586c0.084-3.155,0.217-6.313,0.229-9.47c0.005-1.126-0.303-2.253-0.42-3.386
						c-0.036-0.354,0.056-0.729,0.131-1.088c0.063-0.291,0.285-0.571,0.275-0.854c-0.041-1.191-0.111-2.388-0.229-3.572
						c-0.288-2.906-0.575-5.813-0.928-8.711c-0.265-2.158-0.647-4.304-0.946-6.458c-0.134-0.969-0.523-1.403-1.566-1.074
						c-0.895,0.283-1.813,0.593-2.733,0.647c-1.056,0.063-2.259,0.134-3.155-0.298c-0.998-0.479-1.303-1.664-1.066-2.843
						c0.258-1.297,1.271-1.526,2.354-1.714c1.646-0.286,3.281-0.616,5.14-0.969c-0.641-1.703-1.129-3.173-1.738-4.592
						c-1.737-4.042-3.396-8.127-5.34-12.07c-1.354-2.749-3.066-5.333-4.731-7.919c-1.747-2.71-3.554-5.391-5.479-7.976
						c-1.338-1.799-1.615-1.744-3.414-0.462c-0.443,0.316-0.832,0.726-1.299,1.002c-1.06,0.629-2.093,1.375-3.242,1.759
						c-1.588,0.53-3.648-1.598-3.244-3.236c0.082-0.336,0.375-0.669,0.658-0.901c1.5-1.239,2.992-2.496,4.563-3.645
						c0.862-0.633,0.913-1.18,0.183-1.865c-2.98-2.801-5.908-5.665-8.979-8.365c-1.986-1.747-4.135-3.326-6.307-4.845
						c-2.268-1.586-4.608-3.078-6.992-4.483c-2.314-1.366-4.722-2.574-7.091-3.846c-0.736-0.396-1.283-0.264-1.787,0.475
						c-0.955,1.401-1.979,2.762-3.024,4.099c-0.612,0.781-1.417,0.933-2.296,0.386c-1.197-0.742-1.869-1.815-1.45-2.6
						c0.708-1.328,1.539-2.593,2.337-3.871c0.358-0.574,0.76-1.122,1.215-1.789c-0.86-0.313-1.512-0.561-2.171-0.789
						c-3.059-1.062-6.115-2.127-9.179-3.173c-2.385-0.813-4.74-1.756-7.177-2.358c-3.862-0.957-7.77-1.753-11.685-2.472
						c-2.371-0.436-4.789-0.626-7.193-0.864c-0.927-0.092-1.348,0.469-1.286,1.386c0.08,1.182,0.268,2.371,0.188,3.542
						c-0.045,0.651-0.384,1.474-0.875,1.854c-0.461,0.355-1.315,0.36-1.962,0.273c-0.541-0.071-1.106-0.42-1.53-0.792
						c-0.422-0.372-0.886-0.895-0.971-1.408c-0.199-1.223-0.299-2.486-0.229-3.722c0.071-1.249-0.437-1.546-1.571-1.512
						c-7.211,0.221-14.334,1.149-21.376,2.671c-4.539,0.979-9.056,2.068-13.438,3.853c0.472,1.571,1.076,3.063,1.324,4.611
						c0.153,0.957,0.121,2.354-0.456,2.937c-1.489,1.5-3.889,0.668-4.564-1.354c-0.344-1.034-0.707-2.063-1.047-3.097
						c-0.242-0.738-0.697-0.998-1.44-0.7c-1.051,0.423-2.115,0.815-3.154,1.266c-5.045,2.187-9.747,4.958-14.084,8.326
						c-3.817,2.963-7.688,5.863-11.372,8.983c-2.614,2.213-4.953,4.75-7.423,7.129c-0.784,0.755-0.563,1.397,0.078,2.112
						c1.225,1.363,2.421,2.753,3.594,4.16c0.923,1.104,0.542,3.127-0.758,3.743c-0.355,0.169-1.085,0.07-1.358-0.193
						c-1.559-1.52-3.07-3.093-4.514-4.722c-0.542-0.61-0.927-0.643-1.4-0.066c-0.668,0.811-1.347,1.616-1.939,2.481
						c-1.714,2.508-3.444,5.009-5.058,7.581c-1.297,2.064-2.527,4.186-3.623,6.361c-1.904,3.786-3.725,7.613-5.497,11.464
						c-0.949,2.065-1.784,4.191-2.547,6.332c-0.777,2.179-1.405,4.408-2.117,6.677c2.142,0.479,4.031,0.938,5.935,1.313
						c1.075,0.213,1.833,0.745,2.395,1.677c0.513,0.856,0.48,2.174-0.271,3.029c-0.695,0.792-1.415,1.321-2.643,0.771
						c-1.623-0.729-3.365-1.196-5.044-1.807c-0.691-0.25-1.072-0.053-1.138,0.659c-0.329,3.561-0.842,7.117-0.914,10.687
						c-0.103,5.063,0.108,10.134,0.217,15.203c0.033,1.511,0.08,3.029,0.278,4.524c0.385,2.923,0.854,5.839,1.341,8.75
						c0.448,2.671,0.943,5.332,1.482,7.981c0.054,0.267,0.601,0.663,0.844,0.615c1.832-0.348,3.642-0.813,5.468-1.188
						c0.429-0.088,0.977-0.104,1.344,0.089c1.289,0.67,1.609,1.819,1.199,3.888c-0.226,1.135-1.121,1.352-2.085,1.536
						c-1.549,0.296-3.088,0.654-4.678,0.996c0.089,0.439,0.118,0.709,0.197,0.958c1.302,4.095,2.604,8.181,4.888,11.885
						c1.936,3.142,3.689,6.396,5.664,9.514c1.35,2.125,2.888,4.142,4.44,6.128c2.454,3.147,5.032,6.203,7.47,9.363
						c0.824,1.067,1.293,0.668,2.007-0.041c0.881-0.879,1.837-1.698,2.836-2.443c0.343-0.255,0.985-0.393,1.366-0.25
						c0.91,0.338,1.758,0.852,2.609,1.335c0.91,0.519,1.05,1.323,0.352,2.085c-0.339,0.374-0.772,0.657-1.146,1.003
						c-0.905,0.833-1.799,1.677-2.806,2.615c1.172,0.86,2.182,1.643,3.234,2.363c1.561,1.07,3.171,2.067,4.726,3.148
						c2.581,1.788,5.052,3.748,7.718,5.396c2.83,1.751,5.828,3.225,8.759,4.811c4.292,2.323,8.66,4.477,13.316,6.006
						c0.784,0.255,1.129,0.148,1.472-0.694c0.759-1.863,1.676-3.671,2.602-5.463c0.183-0.354,0.661-0.722,1.049-0.78
						c1.258-0.193,2.806,1.678,2.449,2.896c-0.317,1.079-0.683,2.146-1.031,3.22c-0.512,1.567-0.354,1.813,1.269,2.056
						c2.042,0.308,4.076,0.684,6.125,0.943c3.328,0.42,6.657,0.92,10.002,1.108c2.794,0.157,5.622,0.033,8.417-0.173
						c4.898-0.36,9.793-0.819,14.675-1.36c2.342-0.262,2.345-0.388,2.372-2.831c0.008-0.684,0.205-1.097,0.936-1.24
						c0.489-0.098,0.951-0.335,1.419-0.522c1.393-0.563,2.204-0.032,2.383,1.471c0.109,0.912,0.357,1.808,0.568,2.831
						c2.274-0.585,4.451-1.044,6.559-1.715c3.34-1.064,6.664-2.196,9.938-3.446c3.059-1.168,6.063-2.484,9.052-3.82
						c1.406-0.63,2.706-1.487,4.083-2.184c1.582-0.8,3.192-1.545,4.796-2.295c0.854-0.398,0.851-1,0.504-1.74
						c-0.394-0.841-0.818-1.676-1.117-2.55c-0.971-2.848-0.851-3.012,2.039-3.663c0.802-0.182,1.321-0.063,1.669,0.777
						c0.584,1.408,1.274,2.77,1.962,4.244c0.504-0.273,0.878-0.407,1.17-0.646c3.128-2.523,6.403-4.9,9.323-7.646
						c3.284-3.089,6.267-6.502,9.34-9.808c0.982-1.055,1.861-2.209,2.761-3.341C220.681,229.29,221.504,228.177,222.436,226.951z
						 M228.946,90.328c-0.797,0.158-1.578,0.255-2.324,0.479c-1.391,0.416-2.354,1.198-2.691,2.76
						c-0.233,1.074-0.641,2.29-1.379,3.038c-1.545,1.557-3.125,3.08-5.119,4.193c-1.837,1.026-3.395,2.566-5.021,3.941
						c-0.271,0.229-0.498,0.967-0.356,1.122c0.372,0.415,0.926,0.766,1.469,0.895c0.33,0.079,0.817-0.234,1.155-0.479
						c2.367-1.716,4.654-3.551,7.097-5.154c1.274-0.84,2.772-1.396,4.237-1.885c1.753-0.585,3.605-0.873,5.355-1.47
						c0.871-0.3,1.424-1.146,1.182-2.156c-0.293-1.207-0.684-2.394-1.086-3.569C231.146,91.115,229.877,90.305,228.946,90.328z
						 M67.984,240.659c-1.413-1.292-2.117-1.513-3.051-0.722c-1.069,0.901-1.953,2.021-2.921,3.042
						c-0.208,0.219-0.422,0.437-0.647,0.641c-0.719,0.648-1.543,1.212-2.151,1.95c-1.707,2.071-3.535,3.646-6.541,3.268
						c-1.617-0.203-3.12,0.484-3.923,2.037c-0.478,0.926-0.808,1.94-1.078,2.949s0.538,2.455,1.462,2.792
						c2.433,0.888,4.786,0.743,6.867-0.854c1.034-0.797,2.048-1.764,1.878-3.29c-0.197-1.771,0.053-3.337,1.748-4.348
						c0.16-0.096,0.249-0.302,0.393-0.429c1.254-1.096,2.521-2.176,3.769-3.275C65.177,243.19,66.548,241.945,67.984,240.659z
						 M253.952,189.511c0.881-0.173,2.133-0.321,3.316-0.688c0.764-0.235,1.385-0.84,0.977-1.805
						c-0.627-1.479-1.195-2.995-1.979-4.394c-0.438-0.781-1.176-1.481-1.938-1.979c-0.699-0.454-3.906,1.104-4.236,1.896
						c-0.696,1.67-0.744,1.684-2.5,1.198c-1.28-0.354-2.562-0.709-3.859-0.984c-0.716-0.151-1.492-0.046-2.197-0.222
						c-1.647-0.405-3.269-0.929-4.91-1.369c-0.752-0.201-1.525-0.417-2.297-0.434c-0.408-0.008-1.037,0.313-1.176,0.646
						c-0.13,0.313,0.123,1.021,0.432,1.234c0.656,0.458,1.429,0.844,2.207,1.022c3.484,0.817,7.019,1.446,10.474,2.369
						c1.337,0.357,2.601,1.196,3.731,2.034C251.102,188.862,252.2,189.493,253.952,189.511z M99.383,59.209
						c-0.004-2.311-0.751-2.938-2.91-2.756c-0.834,0.07-1.691-0.173-2.541-0.25c-0.794-0.072-1.75-0.423-2.355-0.111
						c-1.776,0.911-2.545,2.618-2.583,4.552c-0.012,0.604,0.35,1.445,0.824,1.772c0.838,0.576,1.861,0.965,2.862,1.212
						c2.292,0.566,3.14,1.229,3.327,3.575c0.258,3.242,1.971,5.963,2.944,8.944c0.12,0.37,0.682,0.598,1.039,0.891
						c0.374-0.47,0.821-0.901,1.089-1.425c0.126-0.25-0.055-0.686-0.155-1.019c-1.104-3.654-2.194-7.313-3.349-10.952
						c-0.275-0.868-0.358-1.454,0.542-2.066C98.901,61.046,99.61,60.262,99.383,59.209z M19.228,138.56
						c-1.664,0.112-3.109,0.674-4.085,2.121c-0.758,1.127-0.781,2.177,0.028,2.844c0.614,0.506,1.279,1.036,2.015,1.288
						c1.957,0.673,3.965,1.089,6.07,0.667c0.829-0.167,1.738-0.366,2.532-0.195c1.846,0.398,3.65,0.991,5.46,1.544
						c2.785,0.852,5.553,1.75,8.345,2.569c0.311,0.09,0.922-0.088,1.06-0.33c0.196-0.347,0.266-0.986,0.064-1.284
						c-0.278-0.41-0.822-0.763-1.314-0.888c-2.521-0.642-5.035-1.463-7.602-1.717c-2.699-0.271-4.522-1.598-6.209-3.481
						C23.917,139.829,21.766,138.79,19.228,138.56z M141.239,69.396c0.149-2.942,0.254-5.813,0.451-8.679
						c0.201-2.932,0.205-4.348,3.587-5.54c1.714-0.604,2.555-2.136,2.47-4.078c-0.05-1.182-1.372-1.882-2.354-1.222
						c-0.351,0.235-0.652,0.563-0.928,0.89c-0.65,0.767-1.083,0.887-1.762-0.104c-1.113-1.621-3.515-2.102-4.875-1.17
						c-2.158,1.479-2.122,3.875,0.083,5.253c1.584,0.99,1.804,1.637,1.462,3.53c-0.205,1.144-0.282,2.316-0.31,3.479
						c-0.01,0.509,0.38,1.029,0.357,1.533c-0.063,1.374-0.317,2.739-0.37,4.112C138.994,68.936,139.455,69.329,141.239,69.396z
						 M157.205,289.511c2.092,0.199,2.989-0.668,3.591-1.967c0.719-1.556,0.367-3.444-1.801-4.396
						c-0.401-0.175-0.959-0.449-1.051-0.786c-0.242-0.879-0.481-1.854-0.336-2.729c0.344-2.063-0.219-3.988-0.571-5.956
						c-0.281-1.58-0.528-3.167-0.814-4.746c-0.191-1.061-0.403-2.117-0.646-3.166c-0.143-0.624-0.631-0.75-1.049-0.361
						c-0.325,0.305-0.631,0.825-0.627,1.245c0.016,1.377,0.125,2.759,0.292,4.13c0.3,2.468,0.661,4.927,1.008,7.39
						c0.265,1.869-0.064,3.49-1.473,4.924c-0.592,0.604-1.034,1.638-1.034,2.474C152.696,288.075,154.398,289.461,157.205,289.511z
						 M186.868,66.822c0.055,0.017,0.112,0.03,0.167,0.046c-0.222,0.652-0.329,1.377-0.686,1.944
						c-1.182,1.874-2.462,3.687-3.689,5.529c-1.052,1.582-2.117,3.156-3.094,4.783c-0.188,0.313,0.006,0.854,0.025,1.288
						c0.408-0.09,0.936-0.05,1.203-0.292c0.612-0.559,1.116-1.238,1.628-1.896c1.329-1.708,2.622-3.444,3.961-5.146
						c1.306-1.661,2.707-3.136,4.843-3.867c1.509-0.519,2.893-1.453,4.254-2.322c0.409-0.262,0.556-0.931,0.821-1.413
						c-0.486-0.173-0.967-0.369-1.463-0.511c-0.296-0.085-0.667,0-0.917-0.144c-0.293-0.167-0.692-0.494-0.696-0.758
						c-0.024-1.563-1.124-2.369-2.236-3.014c-1.78-1.029-4.281,0.471-4.313,2.521C186.655,64.656,186.798,65.74,186.868,66.822z
						 M98.454,279.939c0,0.157-0.02,0.316,0.005,0.469c0.023,0.152,0.094,0.297,0.135,0.446c0.63,2.248,1.52,4.295,4.104,4.9
						c0.401,0.096,0.998,0.09,1.277-0.14c2.1-1.727,2.06-3.638,0.904-6.208c-0.637-1.412-0.652-2.69-0.199-4.058
						c0.828-2.493,1.684-4.977,2.531-7.464c0.049-0.142,0.089-0.319,0.194-0.406c1.557-1.282,1.194-3.283,1.828-4.909
						c0.093-0.233-0.33-0.717-0.602-1c-0.063-0.066-0.636,0.148-0.726,0.346c-0.874,1.938-1.824,3.856-2.496,5.867
						c-0.742,2.215-1.317,4.48-2.976,6.239c-0.641,0.678-1.4,1.243-2.056,1.907C99.285,277.042,98.504,278.323,98.454,279.939z
						 M42.933,199.695c-0.579-0.797-0.294-2.014-1.591-1.756c-1.294,0.258-2.552,0.695-3.847,0.949
						c-2.052,0.401-4.111,0.925-6.182,1.013c-3.234,0.138-6.474-0.005-9.567,1.196c-0.86,0.333-1.789,0.519-2.604,0.934
						c-0.704,0.358-1.469,0.833-1.315,1.854c0.152,1.012,0.738,1.655,1.666,2.089c2.177,1.021,4.192,0.335,6.145-0.585
						c1.543-0.729,2.94-1.806,4.526-2.394c1.953-0.726,4.034-1.107,6.064-1.628C38.4,200.816,40.581,200.28,42.933,199.695z
						 M252.186,141.946c0.771-0.17,1.583-0.302,2.365-0.529c1.896-0.555,2.135-1.426,1.043-3.065
						c-0.568-0.854-0.883-1.869-1.375-2.776c-0.344-0.633-0.68-1.403-1.244-1.742c-0.415-0.249-1.245-0.014-1.788,0.231
						c-0.278,0.126-0.548,0.8-0.458,1.129c0.396,1.459-0.271,2.41-1.811,2.462c-0.619,0.021-1.244,0.113-1.852,0.244
						c-2.39,0.514-4.763,1.104-7.16,1.568c-2.021,0.392-4.082,0.589-6.098,1.004c-0.495,0.102-0.882,0.72-1.316,1.102
						c0.485,0.5,0.896,1.275,1.477,1.429c0.718,0.189,1.583-0.087,2.367-0.246c2.711-0.55,5.433-1.069,8.117-1.729
						c2.325-0.57,4.545-0.68,6.676,0.614C251.417,141.812,251.793,141.838,252.186,141.946z M43.234,91.602
						c0.22,3.063,1.451,4.419,4.111,4.275c0.349-0.02,0.893-0.204,0.994-0.453c0.494-1.234,1.093-0.708,1.629-0.132
						c2.444,2.621,4.832,5.295,7.301,7.893c1.044,1.097,2.228,2.063,3.377,3.055c0.183,0.157,0.531,0.123,0.802,0.177
						c-0.026-0.312,0.054-0.692-0.098-0.919c-0.299-0.446-0.74-0.795-1.101-1.204c-0.848-0.96-1.709-1.911-2.517-2.903
						c-1.362-1.676-2.611-3.448-4.05-5.053c-1.192-1.329-2.225-2.751-2.542-4.475c-0.263-1.429-1.066-2.305-2.144-3.043
						c-1.249-0.856-2.755-1-3.997-0.36C43.813,89.069,43.278,90.41,43.234,91.602z M204.388,266.673
						c-0.05-2.297-0.853-3.366-3.094-3.923c-1.249-0.313-1.886-1.104-2.288-2.253c-0.92-2.633-1.849-5.263-2.868-7.855
						c-0.523-1.333-1.221-2.604-1.912-3.862c-0.126-0.229-0.663-0.431-0.91-0.348c-0.267,0.088-0.584,0.525-0.582,0.81
						c0.003,0.487,0.185,0.995,0.383,1.457c0.869,2.014,1.792,4.003,2.654,6.021c0.767,1.795,1.292,3.592,0.927,5.637
						c-0.428,2.396,0.979,5.83,3.258,7.021C202.269,270.584,204.443,269.271,204.388,266.673z M238.784,232.418
						c-0.129-3.384-3.006-5.917-5.941-4.458c-0.316,0.156-0.813,0.195-1.135,0.063c-1.354-0.555-2.744-1.075-3.987-1.825
						c-2.204-1.321-4.313-2.808-6.466-4.218c-0.445-0.293-0.938-0.568-1.229,0.163c-0.223,0.563-0.775,1.146,0.178,1.663
						c1.951,1.054,3.867,2.168,5.787,3.278c2.318,1.34,4.907,2.416,5.486,5.488c0.048,0.256,0.244,0.49,0.393,0.718
						c0.707,1.066,1.795,1.943,2.963,1.787c1.459-0.193,2.957-0.805,3.826-2.229C238.754,232.69,238.766,232.481,238.784,232.418z"
						/>
					<path fill="#FFFFFF" d="M228.946,90.328c0.932-0.021,2.2,0.787,2.518,1.715c0.402,1.177,0.793,2.362,1.086,3.569
						c0.244,1.012-0.311,1.856-1.182,2.156c-1.75,0.597-3.604,0.884-5.355,1.47c-1.465,0.489-2.963,1.045-4.237,1.885
						c-2.44,1.604-4.729,3.438-7.097,5.154c-0.338,0.244-0.825,0.559-1.155,0.479c-0.543-0.129-1.097-0.479-1.469-0.895
						c-0.142-0.155,0.087-0.896,0.356-1.122c1.627-1.375,3.185-2.916,5.021-3.941c1.994-1.114,3.572-2.639,5.119-4.193
						c0.738-0.748,1.146-1.964,1.379-3.038c0.339-1.563,1.302-2.344,2.691-2.76C227.368,90.584,228.149,90.487,228.946,90.328z"/>
					<path fill="#FFFFFF" d="M67.984,240.659c-1.436,1.287-2.808,2.532-4.195,3.76c-1.248,1.102-2.515,2.182-3.769,3.275
						c-0.145,0.127-0.233,0.333-0.393,0.429c-1.695,1.011-1.945,2.575-1.748,4.347c0.17,1.526-0.844,2.493-1.878,3.29
						c-2.081,1.6-4.434,1.743-6.867,0.855c-0.924-0.337-1.731-1.783-1.462-2.792c0.27-1.008,0.6-2.023,1.078-2.949
						c0.803-1.553,2.306-2.24,3.923-2.037c3.006,0.379,4.834-1.195,6.541-3.268c0.608-0.738,1.432-1.302,2.151-1.951
						c0.226-0.203,0.44-0.42,0.647-0.64c0.968-1.022,1.852-2.141,2.921-3.042C65.868,239.145,66.571,239.367,67.984,240.659z"/>
					<path fill="#FFFFFF" d="M253.952,189.511c-1.752-0.02-2.85-0.649-3.957-1.47c-1.133-0.838-2.396-1.677-3.731-2.034
						c-3.455-0.923-6.988-1.552-10.474-2.368c-0.777-0.182-1.549-0.565-2.207-1.023c-0.309-0.214-0.562-0.921-0.432-1.234
						c0.139-0.332,0.768-0.651,1.176-0.646c0.771,0.017,1.545,0.231,2.297,0.434c1.643,0.44,3.262,0.964,4.91,1.369
						c0.707,0.175,1.481,0.069,2.197,0.222c1.299,0.276,2.579,0.632,3.859,0.985c1.756,0.483,1.804,0.472,2.5-1.199
						c0.33-0.792,3.537-2.35,4.236-1.896c0.762,0.495,1.498,1.196,1.938,1.979c0.783,1.396,1.354,2.913,1.979,4.394
						c0.408,0.965-0.213,1.567-0.977,1.806C256.084,189.189,254.833,189.34,253.952,189.511z"/>
					<path fill="#FFFFFF" d="M99.383,59.209c0.227,1.055-0.482,1.837-1.265,2.369c-0.901,0.611-0.817,1.197-0.542,2.065
						c1.155,3.639,2.245,7.298,3.349,10.953c0.1,0.333,0.281,0.768,0.155,1.018c-0.268,0.523-0.715,0.955-1.089,1.425
						c-0.357-0.293-0.919-0.521-1.039-0.891c-0.973-2.98-2.686-5.702-2.944-8.944c-0.187-2.349-1.035-3.009-3.327-3.575
						c-1-0.247-2.024-0.636-2.862-1.212c-0.474-0.327-0.835-1.171-0.824-1.772c0.039-1.934,0.807-3.641,2.583-4.552
						c0.605-0.312,1.561,0.039,2.355,0.111c0.85,0.076,1.707,0.319,2.541,0.25C98.632,56.269,99.379,56.898,99.383,59.209z"/>
					<path fill="#FFFFFF" d="M19.228,138.56c2.538,0.229,4.689,1.27,6.364,3.138c1.687,1.885,3.51,3.212,6.209,3.481
						c2.566,0.254,5.08,1.076,7.602,1.717c0.492,0.125,1.036,0.478,1.314,0.888c0.201,0.297,0.132,0.938-0.064,1.284
						c-0.138,0.242-0.749,0.42-1.06,0.33c-2.792-0.819-5.561-1.721-8.345-2.569c-1.81-0.553-3.615-1.146-5.46-1.544
						c-0.794-0.171-1.703,0.028-2.532,0.195c-2.105,0.422-4.113,0.006-6.07-0.667c-0.736-0.252-1.401-0.782-2.015-1.288
						c-0.81-0.667-0.786-1.717-0.028-2.844C16.119,139.234,17.564,138.674,19.228,138.56z"/>
					<path fill="#FFFFFF" d="M141.239,69.396c-1.784-0.067-2.246-0.46-2.189-1.992c0.053-1.374,0.307-2.738,0.37-4.112
						c0.023-0.504-0.368-1.024-0.357-1.533c0.027-1.161,0.104-2.336,0.31-3.479c0.342-1.895,0.123-2.54-1.462-3.53
						c-2.204-1.379-2.24-3.773-0.083-5.254c1.36-0.931,3.763-0.45,4.875,1.171c0.679,0.989,1.112,0.869,1.762,0.104
						c0.276-0.326,0.577-0.653,0.928-0.89c0.982-0.66,2.304,0.04,2.354,1.222c0.085,1.942-0.755,3.475-2.47,4.079
						c-3.382,1.19-3.387,2.606-3.587,5.54C141.493,63.583,141.389,66.454,141.239,69.396z"/>
					<path fill="#FFFFFF" d="M157.205,289.511c-2.808-0.052-4.509-1.437-4.512-3.943c0-0.836,0.442-1.869,1.034-2.474
						c1.409-1.434,1.738-3.055,1.473-4.924c-0.347-2.462-0.708-4.921-1.008-7.39c-0.167-1.372-0.276-2.753-0.292-4.13
						c-0.004-0.42,0.302-0.94,0.627-1.245c0.417-0.389,0.906-0.263,1.049,0.361c0.243,1.049,0.455,2.105,0.646,3.166
						c0.286,1.579,0.534,3.166,0.814,4.746c0.352,1.968,0.916,3.894,0.571,5.956c-0.145,0.874,0.094,1.849,0.336,2.729
						c0.091,0.338,0.65,0.611,1.051,0.786c2.168,0.951,2.52,2.841,1.801,4.396C160.195,288.844,159.298,289.711,157.205,289.511z"/>
					<path fill="#FFFFFF" d="M186.868,66.822c-0.07-1.082-0.213-2.166-0.195-3.247c0.032-2.05,2.533-3.549,4.313-2.52
						c1.112,0.644,2.212,1.449,2.236,3.013c0.004,0.264,0.403,0.591,0.696,0.758c0.251,0.144,0.621,0.059,0.917,0.144
						c0.497,0.142,0.977,0.337,1.463,0.511c-0.266,0.481-0.413,1.15-0.821,1.413c-1.361,0.87-2.745,1.805-4.254,2.322
						c-2.136,0.731-3.537,2.207-4.843,3.867c-1.339,1.699-2.632,3.438-3.961,5.146c-0.512,0.657-1.016,1.338-1.628,1.896
						c-0.267,0.242-0.794,0.202-1.203,0.292c-0.019-0.437-0.213-0.977-0.025-1.288c0.977-1.627,2.042-3.202,3.094-4.783
						c1.228-1.845,2.507-3.656,3.689-5.529c0.357-0.567,0.464-1.292,0.686-1.943C186.98,66.852,186.923,66.839,186.868,66.822z"/>
					<path fill="#FFFFFF" d="M98.454,279.939c0.05-1.617,0.831-2.897,1.924-4.009c0.656-0.665,1.416-1.23,2.056-1.908
						c1.659-1.758,2.234-4.024,2.976-6.239c0.672-2.011,1.622-3.929,2.496-5.867c0.09-0.195,0.662-0.412,0.726-0.346
						c0.272,0.283,0.695,0.767,0.602,1c-0.634,1.626-0.271,3.627-1.828,4.909c-0.105,0.087-0.146,0.266-0.194,0.406
						c-0.847,2.488-1.703,4.971-2.531,7.464c-0.454,1.366-0.438,2.646,0.199,4.058c1.156,2.571,1.196,4.481-0.904,6.208
						c-0.28,0.229-0.876,0.234-1.277,0.14c-2.584-0.605-3.474-2.652-4.104-4.9c-0.041-0.148-0.112-0.294-0.135-0.446
						C98.434,280.257,98.454,280.096,98.454,279.939z"/>
					<path fill="#FFFFFF" d="M42.933,199.695c-2.351,0.585-4.532,1.121-6.706,1.673c-2.03,0.521-4.111,0.902-6.064,1.628
						c-1.585,0.588-2.983,1.664-4.526,2.394c-1.953,0.92-3.968,1.605-6.145,0.585c-0.928-0.434-1.513-1.077-1.666-2.088
						c-0.154-1.021,0.611-1.496,1.315-1.854c0.815-0.415,1.744-0.601,2.604-0.934c3.094-1.201,6.333-1.06,9.567-1.196
						c2.071-0.088,4.13-0.61,6.182-1.013c1.294-0.254,2.553-0.691,3.847-0.949C42.639,197.681,42.354,198.898,42.933,199.695z"/>
					<path fill="#FFFFFF" d="M252.186,141.946c-0.393-0.108-0.77-0.134-1.057-0.307c-2.131-1.295-4.351-1.186-6.676-0.614
						c-2.686,0.659-5.406,1.18-8.117,1.729c-0.785,0.159-1.649,0.438-2.367,0.246c-0.579-0.152-0.99-0.93-1.477-1.43
						c0.437-0.381,0.821-0.999,1.316-1.102c2.016-0.416,4.074-0.611,6.097-1.003c2.397-0.464,4.771-1.056,7.161-1.568
						c0.605-0.131,1.23-0.224,1.852-0.244c1.539-0.052,2.207-1.003,1.811-2.462c-0.09-0.329,0.178-1.003,0.458-1.129
						c0.543-0.245,1.373-0.479,1.788-0.231c0.564,0.339,0.898,1.108,1.244,1.742c0.494,0.907,0.807,1.924,1.375,2.776
						c1.092,1.641,0.854,2.512-1.043,3.065C253.769,141.644,252.958,141.776,252.186,141.946z"/>
					<path fill="#FFFFFF" d="M43.234,91.602c0.043-1.192,0.579-2.533,1.766-3.145c1.242-0.64,2.748-0.496,3.997,0.36
						c1.078,0.738,1.881,1.614,2.144,3.043c0.317,1.724,1.35,3.146,2.542,4.475c1.438,1.604,2.688,3.376,4.05,5.053
						c0.807,0.992,1.668,1.943,2.517,2.903c0.361,0.408,0.802,0.758,1.101,1.204c0.152,0.228,0.072,0.607,0.098,0.919
						c-0.271-0.055-0.619-0.021-0.802-0.177c-1.15-0.99-2.333-1.958-3.377-3.055c-2.47-2.598-4.857-5.271-7.301-7.893
						c-0.536-0.576-1.136-1.104-1.629,0.132c-0.101,0.249-0.645,0.436-0.994,0.453C44.685,96.021,43.454,94.664,43.234,91.602z"/>
					<path fill="#FFFFFF" d="M204.388,266.673c0.056,2.6-2.118,3.911-4.432,2.702c-2.279-1.19-3.686-4.625-3.258-7.021
						c0.365-2.044-0.16-3.841-0.927-5.637c-0.862-2.02-1.785-4.009-2.654-6.021c-0.198-0.462-0.38-0.97-0.383-1.457
						c-0.002-0.283,0.315-0.722,0.582-0.81c0.248-0.083,0.784,0.118,0.91,0.348c0.691,1.258,1.388,2.529,1.912,3.862
						c1.02,2.594,1.948,5.224,2.868,7.855c0.402,1.148,1.039,1.94,2.288,2.253C203.536,263.305,204.338,264.376,204.388,266.673z"/>
					<path fill="#FFFFFF" d="M238.784,232.418c-0.018,0.063-0.029,0.272-0.125,0.431c-0.867,1.426-2.367,2.036-3.826,2.229
						c-1.168,0.156-2.256-0.72-2.963-1.787c-0.147-0.228-0.345-0.461-0.393-0.718c-0.579-3.072-3.168-4.147-5.486-5.488
						c-1.918-1.11-3.836-2.226-5.787-3.278c-0.953-0.517-0.399-1.102-0.178-1.663c0.291-0.731,0.781-0.457,1.229-0.163
						c2.154,1.411,4.262,2.896,6.466,4.218c1.243,0.75,2.635,1.271,3.987,1.825c0.322,0.131,0.817,0.093,1.135-0.063
						C235.776,226.501,238.653,229.034,238.784,232.418z"/>
					<path d="M152.379,204.575c-3.369,0-6.738,0.055-10.106-0.013c-3.91-0.077-7.817-0.313-11.727-0.385
						c-4.235-0.077-8.47-0.049-12.707-0.056c-1.757-0.003-3.01-0.495-3.769-2.354c-0.693-1.702-1.939-3.182-2.966-4.744
						c-3.127-4.754-6.269-9.5-9.402-14.249c-2.337-3.542-4.647-7.101-7.014-10.619c-2.63-3.91-5.322-7.777-7.961-11.683
						c-0.546-0.809-0.788-1.546,0.152-2.45c1.85-1.775,3.558-3.705,5.262-5.625c3.87-4.356,7.71-8.739,11.545-13.125
						c3.432-3.924,6.874-7.839,10.248-11.813c2.015-2.374,3.896-4.859,5.873-7.267c0.196-0.237,0.663-0.389,0.99-0.369
						c3.191,0.189,6.381,0.448,9.572,0.637c1.843,0.108,3.695,0.119,5.541,0.183c2.855,0.098,5.713,0.157,8.564,0.313
						c4.986,0.273,9.968,0.615,14.953,0.916c2.298,0.137,4.598,0.254,6.898,0.345c0.455,0.019,0.945-0.051,1.366-0.211
						c0.791-0.301,1.293,0.017,1.676,0.639c2.149,3.481,4.278,6.977,6.431,10.455c0.531,0.857,0.958,1.904,1.725,2.471
						c1.985,1.467,2.042,4.014,3.579,5.754c1.356,1.537,2.176,3.531,3.337,5.254c1.508,2.231,3.158,4.369,4.677,6.597
						c0.895,1.313,1.62,2.739,2.481,4.076c1.219,1.896,2.439,3.795,3.768,5.611c0.786,1.075-0.144,1.661-0.582,2.202
						c-1.188,1.471-2.659,2.712-3.841,4.186c-2.155,2.688-4.191,5.471-6.261,8.224c-2.087,2.776-4.134,5.582-6.237,8.345
						c-1.713,2.251-3.506,4.441-5.221,6.692c-2.008,2.636-3.974,5.304-5.948,7.965c-0.696,0.937-1.442,1.849-2.024,2.855
						c-0.748,1.294-1.861,1.593-3.231,1.578c-3.214-0.031-6.429-0.012-9.642-0.012C152.379,204.793,152.379,204.683,152.379,204.575
						z M158.679,202.542c0,0.069,0,0.141,0,0.206c0.626,0,1.267-0.085,1.875,0.02c1.515,0.258,2.524-0.354,3.381-1.556
						c1.354-1.896,2.787-3.744,4.224-5.582c2.271-2.902,4.585-5.772,6.857-8.673c2.513-3.204,4.997-6.433,7.498-9.645
						c0.403-0.521,0.86-1.003,1.245-1.537c1.317-1.822,2.577-3.69,3.928-5.49c1.516-2.02,3.138-3.96,4.63-5.994
						c0.24-0.326,0.246-1.088,0.026-1.443c-2.427-3.896-4.895-7.769-7.404-11.613c-2.483-3.804-5.052-7.551-7.539-11.353
						c-3.05-4.663-6.064-9.35-9.063-14.043c-0.433-0.679-0.953-0.917-1.736-0.937c-2.265-0.055-4.532-0.121-6.79-0.303
						c-3.306-0.267-6.599-0.718-9.908-0.946c-4.17-0.287-8.351-0.431-12.526-0.637c-0.549-0.027-1.096-0.063-1.645-0.088
						c-4.618-0.192-9.234-0.392-13.853-0.556c-0.343-0.013-0.807,0.131-1.026,0.373c-1.49,1.631-2.929,3.308-4.384,4.971
						c-4.289,4.896-8.563,9.808-12.87,14.688c-2.684,3.043-5.431,6.028-8.12,9.064c-1.913,2.161-3.776,4.366-5.663,6.552
						c-0.494,0.571-0.797,1.201-0.348,1.916c1.38,2.195,2.762,4.394,4.189,6.558c1.3,1.973,2.671,3.897,3.992,5.855
						c0.603,0.896,1.15,1.827,1.748,2.726c1.155,1.735,2.346,3.444,3.484,5.188c0.813,1.247,1.525,2.563,2.35,3.803
						c0.985,1.481,2.07,2.899,3.063,4.377c0.973,1.447,1.878,2.938,2.826,4.406c1.158,1.786,2.355,3.545,3.483,5.35
						c1.303,2.085,2.751,3.873,5.561,3.801c1.792-0.046,3.585,0.063,5.378,0.074c3.12,0.021,6.24-0.03,9.359,0.036
						c2.656,0.057,5.308,0.284,7.966,0.357c2.694,0.072,5.392,0.061,8.089,0.07C153.53,202.55,156.104,202.542,158.679,202.542z"/>
					<path fill="#FFFFFF" d="M158.679,202.542c-2.574,0-5.148,0.008-7.721-0.002c-2.697-0.011-5.395,0.002-8.089-0.07
						c-2.658-0.073-5.31-0.302-7.966-0.357c-3.119-0.066-6.239-0.016-9.359-0.036c-1.793-0.011-3.586-0.121-5.378-0.074
						c-2.81,0.072-4.258-1.714-5.561-3.801c-1.128-1.805-2.325-3.563-3.483-5.35c-0.948-1.468-1.853-2.959-2.826-4.406
						c-0.993-1.478-2.078-2.896-3.063-4.377c-0.825-1.239-1.537-2.555-2.35-3.803c-1.138-1.743-2.329-3.452-3.484-5.188
						c-0.598-0.896-1.145-1.831-1.748-2.727c-1.321-1.958-2.692-3.884-3.992-5.855c-1.427-2.164-2.809-4.361-4.189-6.558
						c-0.449-0.714-0.146-1.344,0.348-1.916c1.887-2.186,3.75-4.392,5.663-6.551c2.689-3.037,5.436-6.022,8.12-9.065
						c4.307-4.881,8.582-9.791,12.87-14.688c1.456-1.662,2.894-3.339,4.384-4.971c0.219-0.241,0.683-0.386,1.026-0.373
						c4.619,0.164,9.235,0.362,13.853,0.557c0.549,0.021,1.096,0.06,1.645,0.087c4.175,0.206,8.356,0.35,12.526,0.637
						c3.309,0.229,6.602,0.681,9.908,0.946c2.257,0.182,4.525,0.248,6.79,0.303c0.784,0.021,1.303,0.259,1.736,0.937
						c3,4.693,6.014,9.38,9.063,14.043c2.487,3.802,5.056,7.548,7.539,11.353c2.51,3.846,4.977,7.718,7.404,11.613
						c0.22,0.354,0.214,1.117-0.026,1.443c-1.493,2.034-3.114,3.976-4.63,5.995c-1.351,1.799-2.61,3.667-3.928,5.489
						c-0.385,0.533-0.842,1.017-1.245,1.537c-2.501,3.212-4.985,6.439-7.498,9.645c-2.272,2.899-4.586,5.771-6.857,8.673
						c-1.438,1.838-2.87,3.685-4.224,5.582c-0.857,1.201-1.867,1.813-3.381,1.556c-0.607-0.104-1.248-0.02-1.875-0.02
						C158.679,202.68,158.679,202.611,158.679,202.542z M122.78,123.556c-0.036-0.079-0.072-0.158-0.108-0.237
						c-0.391,0.253-0.861,0.437-1.16,0.771c-0.935,1.05-1.776,2.18-2.706,3.232c-2.58,2.926-5.209,5.808-7.773,8.745
						c-2.667,3.057-5.266,6.174-7.927,9.235c-3.811,4.387-7.65,8.746-11.481,13.113c-1.103,1.255-1.074,1.715,0.075,2.954
						c0.447,0.481,0.795,1.061,1.164,1.608c1.479,2.204,2.944,4.417,4.423,6.621c1.686,2.512,3.389,5.014,5.072,7.527
						c3.615,5.394,7.229,10.787,10.827,16.192c1.339,2.012,2.612,4.065,3.969,6.063c0.246,0.361,0.741,0.759,1.142,0.781
						c2.489,0.145,4.985,0.197,7.479,0.258c3.641,0.085,7.281,0.131,10.921,0.228c5.244,0.141,10.485,0.319,15.729,0.464
						c2.116,0.058,4.255-0.104,6.346,0.149c1.948,0.236,3.216-0.063,4.441-1.849c2.532-3.689,5.434-7.126,8.175-10.675
						c1.432-1.852,2.834-3.725,4.272-5.57c1.815-2.336,3.668-4.642,5.475-6.98c1.712-2.217,3.37-4.479,5.079-6.698
						c1.356-1.764,2.792-3.466,4.109-5.257c0.386-0.524,1.044-1.104,0.369-1.965c-1.606-2.044-3.219-4.092-4.693-6.229
						c-2.126-3.083-4.138-6.243-6.188-9.377c-1.791-2.735-3.575-5.478-5.346-8.226c-0.57-0.887-1.051-1.83-1.644-2.699
						c-1.816-2.665-3.655-5.314-5.512-7.95c-0.714-1.014-1.241-1.978-2.937-1.998c-4.646-0.056-9.285-0.496-13.93-0.751
						c-3.087-0.169-6.181-0.256-9.268-0.426C135.041,124.279,128.911,123.912,122.78,123.556z"/>
					<path d="M122.78,123.556c6.131,0.354,12.262,0.723,18.395,1.06c3.087,0.169,6.181,0.257,9.268,0.426
						c4.645,0.255,9.284,0.695,13.93,0.751c1.695,0.021,2.222,0.984,2.937,1.998c1.857,2.636,3.696,5.287,5.512,7.95
						c0.593,0.869,1.074,1.813,1.644,2.699c1.771,2.748,3.555,5.489,5.346,8.226c2.049,3.134,4.062,6.293,6.188,9.377
						c1.475,2.138,3.087,4.185,4.693,6.229c0.675,0.86,0.017,1.439-0.369,1.965c-1.317,1.791-2.753,3.493-4.109,5.257
						c-1.709,2.22-3.367,4.48-5.079,6.698c-1.806,2.341-3.66,4.646-5.475,6.98c-1.438,1.847-2.84,3.721-4.272,5.57
						c-2.742,3.548-5.644,6.984-8.175,10.675c-1.225,1.786-2.493,2.085-4.441,1.849c-2.091-0.256-4.229-0.093-6.346-0.149
						c-5.244-0.144-10.485-0.323-15.729-0.464c-3.64-0.096-7.28-0.143-10.921-0.228c-2.494-0.061-4.99-0.113-7.479-0.258
						c-0.401-0.022-0.896-0.42-1.142-0.78c-1.357-1.998-2.63-4.054-3.969-6.064c-3.598-5.405-7.212-10.8-10.827-16.192
						c-1.684-2.515-3.386-5.017-5.072-7.527c-1.479-2.204-2.943-4.417-4.423-6.621c-0.369-0.549-0.717-1.126-1.164-1.608
						c-1.148-1.239-1.177-1.699-0.075-2.954c3.831-4.368,7.671-8.728,11.481-13.112c2.661-3.063,5.259-6.181,7.927-9.236
						c2.563-2.938,5.193-5.818,7.773-8.745c0.929-1.054,1.771-2.184,2.706-3.232c0.299-0.335,0.77-0.519,1.16-0.771
						C122.707,123.398,122.744,123.477,122.78,123.556z M189.647,162.463c-0.066-0.042-0.491-0.16-0.672-0.437
						c-1.456-2.213-2.841-4.471-4.292-6.688c-2.135-3.256-4.285-6.502-6.469-9.727c-1.426-2.104-2.947-4.146-4.371-6.25
						c-0.557-0.821-0.904-1.784-1.457-2.61c-1.794-2.68-3.735-5.266-5.429-8.005c-0.962-1.557-2.156-2.084-3.919-2.135
						c-3.164-0.091-6.319-0.427-9.48-0.625c-5.345-0.335-10.692-0.667-16.041-0.954c-4.455-0.237-8.915-0.376-13.37-0.632
						c-1.219-0.069-2.078,0.313-2.851,1.226c-1.514,1.782-3.103,3.5-4.654,5.251c-4.071,4.601-8.162,9.183-12.2,13.813
						c-3.733,4.284-7.399,8.625-11.109,12.932c-1.647,1.91-1.712,1.967-0.268,4.179c2.194,3.362,4.46,6.68,6.699,10.013
						c3.038,4.522,6.078,9.048,9.123,13.564c2.743,4.072,5.582,8.085,8.201,12.234c0.943,1.496,2.158,1.862,3.68,1.891
						c4.686,0.085,9.373,0.143,14.06,0.229c3.722,0.066,7.442,0.146,11.164,0.247c4.814,0.129,9.629,0.299,14.445,0.393
						c0.42,0.008,0.968-0.333,1.255-0.679c1.196-1.438,2.297-2.955,3.47-4.414c1.538-1.909,3.143-3.768,4.66-5.691
						c2.048-2.603,4.027-5.254,6.058-7.869c1.436-1.849,2.941-3.64,4.356-5.504c2.869-3.784,5.701-7.598,8.537-11.405
						c0.223-0.303,0.392-0.656,0.522-1.01C189.44,163.41,189.511,162.996,189.647,162.463z"/>
					<path d="M166.858,158.948c-0.274,0.893-0.458,1.825-0.839,2.668c-1.258,2.779-2.615,5.481-5.267,7.305
						c-1.882,1.294-4.19,1.067-5.58-0.735c-0.328-0.426-0.658-0.851-1.085-1.401c-0.464,0.534-0.829,1.023-1.265,1.439
						c-1.04,0.989-1.998,2.131-3.198,2.877c-2.542,1.576-4.403,0.549-5.431-1.888c-0.24-0.566-0.5-1.127-0.842-1.893
						c-1.489,1.019-2.809,2.037-4.241,2.866c-1.026,0.596-2.166,1.177-3.316,1.344c-1.994,0.286-4.064-1.222-4.998-3.276
						c-0.252-0.56-0.541-1.102-0.891-1.803c-0.415,0.34-0.713,0.627-1.053,0.852c-1.944,1.282-3.829,2.672-5.869,3.78
						c-1.587,0.862-3.054,0.171-3.933-1.418c-0.892-1.614-1.276-3.333-1.246-5.162c0.005-0.216-0.051-0.434-0.089-0.708
						c-2.146,1.268-4.218,2.479-6.276,3.712c-0.474,0.285-0.919,0.741-1.364,0.006c-0.498-0.826,0.273-0.984,0.727-1.263
						c1.994-1.228,3.976-2.48,6.015-3.632c1.331-0.75,1.217-2.061,1.475-3.227c0.521-2.367,0.938-4.754,3.002-6.414
						c0.783-0.629,1.569-0.933,2.437-0.294c0.811,0.597,1.101,2.157,0.549,2.938c-1.483,2.089-2.956,4.191-4.531,6.213
						c-0.855,1.096-0.731,2.313-0.601,3.463c0.139,1.212,0.533,2.436,1.037,3.555c0.564,1.256,1.734,1.646,2.889,0.913
						c1.972-1.25,3.833-2.68,5.734-4.04c0.628-0.449,0.785-1.038,0.455-1.743c-1.093-2.338-0.38-4.697,0.08-6.992
						c0.226-1.126,0.984-2.187,1.65-3.176c0.657-0.978,2.225-1.34,3.284-0.88c0.743,0.323,1.138,0.801,1.253,1.752
						c0.47,3.888-1.554,6.786-3.808,9.484c-1.14,1.367-0.414,2.358,0.071,3.391c0.398,0.847,1.118,1.64,1.889,2.188
						c0.518,0.365,1.423,0.476,2.071,0.329c2.69-0.604,4.677-2.436,6.712-4.132c0.28-0.233,0.365-0.83,0.357-1.254
						c-0.07-3.318,0.491-6.483,2.194-9.392c0.798-1.36,1.72-1.94,2.666-1.667c1.08,0.315,2.057,1.744,1.713,3.104
						c-0.482,1.901-1.168,3.779-2.008,5.557c-0.492,1.039-1.44,1.867-2.204,2.773c-1.217,1.438-0.08,2.713,0.431,3.899
						c0.26,0.605,1.29,1.098,2.039,1.218c0.586,0.092,1.43-0.315,1.893-0.768c1.361-1.337,2.621-2.781,3.846-4.245
						c0.258-0.308,0.245-0.876,0.275-1.33c0.13-2.054,0.148-4.117,0.366-6.159c0.186-1.729,1.551-3.118,2.844-3.045
						c0.398,0.022,1.092,0.361,1.111,0.596c0.09,1.17,0.255,2.433-0.081,3.515c-0.589,1.896-1.625,3.648-2.283,5.526
						c-0.464,1.325-0.093,2.604,0.957,3.643c0.775,0.768,1.927,0.826,2.858,0.289c3.231-1.872,4.723-5.034,6.274-8.17
						c0.22-0.446,0.562-0.835,0.847-1.25C166.657,158.838,166.757,158.892,166.858,158.948z M130.413,163.689
						c0.184,0.019,0.369,0.036,0.554,0.054c0.651-1.123,1.137-2.395,1.99-3.336c1.48-1.632,1.449-3.519,1.341-5.452
						c-0.016-0.271-0.709-0.787-0.835-0.718c-0.758,0.402-1.81,0.799-2.078,1.468c-0.684,1.709-1.121,3.541-1.423,5.361
						C129.826,161.894,130.246,162.812,130.413,163.689z M147.669,154.642c-0.607,0.521-1.231,0.854-1.563,1.371
						c-1.473,2.31-1.682,4.958-1.863,7.598c-0.009,0.124,0.12,0.259,0.191,0.398C146.113,162.628,149.066,157.972,147.669,154.642z
						 M119.706,159.597c0.155,0.021,0.312,0.041,0.467,0.062c0.634-0.974,1.251-1.959,1.91-2.916
						c0.346-0.505,0.876-0.912,1.116-1.453c0.166-0.374-0.025-0.904-0.057-1.364c-0.441,0.138-0.969,0.162-1.303,0.429
						c-1.185,0.947-1.605,2.331-1.917,3.74C119.815,158.588,119.776,159.096,119.706,159.597z M155.189,161.792
						c1.713-2.125,2.154-4.452,1.052-5.8C154.813,157.799,155.073,159.806,155.189,161.792z"/>
					<path d="M139.224,146.325c-1.928,1.061-3.636,2.144-5.467,2.942c-0.99,0.433-2.202,0.549-3.3,0.501
						c-1.542-0.068-2.402-1.208-2.719-3.154c-0.048-0.296-0.094-0.593-0.164-1.041c-0.807,0.332-1.542,0.571-2.22,0.923
						c-3.055,1.589-5.061-0.301-5.614-3.074c-0.506-2.536,0.449-4.895,1.123-7.272c0.031-0.109,0.08-0.246,0.166-0.306
						c0.342-0.236,0.703-0.448,1.056-0.67c0.104,0.435,0.376,0.907,0.283,1.295c-0.319,1.36-0.846,2.674-1.142,4.037
						c-0.341,1.576-0.093,3.129,0.861,4.46c0.25,0.351,0.936,0.708,1.293,0.608c1.196-0.333,2.375-0.795,3.473-1.373
						c0.384-0.201,0.71-0.877,0.726-1.348c0.09-2.66,1.534-4.885,2.367-7.289c0.464-1.335,1.637-2.46,3.168-2.917
						c1.594-0.476,2.587,0.2,2.606,1.842c0.031,2.593-1.366,4.568-2.993,6.392c-0.984,1.104-2.091,2.104-3.155,3.135
						c-1.101,1.065-0.522,2.26-0.236,3.396c0.272,1.075,1.254,1.135,2.106,1.059c2.968-0.262,5.23-1.948,7.321-3.861
						c0.366-0.334,0.478-1.086,0.479-1.646c0.008-3.182,1.112-6.011,2.759-8.65c0.416-0.667,1.027-1.333,1.711-1.677
						c0.53-0.267,1.435-0.236,1.947,0.056c0.395,0.225,0.625,1.064,0.608,1.623c-0.092,3.197-1.676,5.77-3.648,8.151
						c-0.473,0.57-0.888,1.201-1.424,1.705c-1.059,0.998-0.333,3.323,0.642,4.249c0.248,0.235,0.821,0.25,1.218,0.189
						c2.418-0.369,4.391-1.593,6.007-3.361c0.316-0.346,0.436-1.017,0.394-1.516c-0.265-3.061,0.287-5.97,1.594-8.724
						c0.356-0.749,0.945-1.434,1.56-2.006c1.102-1.027,2.454-0.617,2.917,0.806c0.625,1.921,0.399,3.842-0.445,5.583
						c-0.81,1.666-1.866,3.24-3.006,4.708c-0.668,0.859-0.83,1.474-0.171,2.348c0.778,1.031,1.928,1.638,2.801,1.094
						c1.307-0.813,2.47-1.855,3.709-2.78c0.337-0.251,0.732-0.426,1.101-0.635c-0.035,0.406,0.045,0.871-0.124,1.213
						c-0.843,1.714-2.191,2.965-3.99,3.591c-1.621,0.563-3.102,0.111-4.25-1.177c-1.184-1.327-0.946-1.384-2.503-0.244
						c-1.348,0.986-2.646,1.965-4.335,2.409c-2.485,0.655-4.226-0.245-4.857-2.755C139.377,146.844,139.281,146.526,139.224,146.325
						z M154.083,134.094c-2.034,0.642-4.079,6.706-2.995,8.758C153.272,140.594,155.638,136.227,154.083,134.094z M129.344,142.143
						c2.135-0.995,5.179-5.791,5.066-7.981C132.329,133.77,128.647,139.574,129.344,142.143z M140.778,141.73
						c0.13,0.047,0.259,0.095,0.389,0.143c0.534-0.499,1.213-0.911,1.575-1.514c1.017-1.694,2.069-3.404,2.25-5.447
						c0.031-0.345-0.063-0.699-0.1-1.051c-0.329,0.155-0.699,0.257-0.982,0.473c-1.534,1.168-1.885,2.987-2.481,4.652
						C141.113,139.865,140.989,140.813,140.778,141.73z"/>
					<path d="M162.222,179.21c0.095,0.369,0.357,0.794,0.257,1.1c-1.088,3.314-2.623,6.373-5.402,8.639
						c-0.512,0.417-1.092,0.761-1.669,1.085c-2.288,1.289-3.679,1.023-5.284-1.049c-0.543-0.699-0.988-1.472-1.562-2.338
						c-1.104,0.896-2.247,1.704-3.238,2.663c-1.901,1.841-4.819,1.896-6.687,0.028c-0.817-0.816-1.249-0.809-2.007,0.107
						c-1.309,1.583-3.116,2.345-4.995,2.888c-1.387,0.399-2.9-0.445-3.708-1.677c-1.078-1.646-1.766-3.379-1.618-5.38
						c0.014-0.19-0.03-0.387-0.07-0.576c-0.013-0.063-0.093-0.115-0.272-0.321c-0.75,0.468-1.503,0.998-2.318,1.408
						c-0.349,0.178-0.827,0.101-1.248,0.139c0.163-0.417,0.205-0.986,0.509-1.226c1.066-0.833,2.607-1.321,3.239-2.376
						c0.64-1.062,0.298-2.664,0.59-3.985c0.358-1.61,1.073-3.086,2.598-3.979c1.045-0.616,2.534-0.42,3.203,0.404
						c0.585,0.722,0.429,1.732-0.431,2.767c-1.321,1.585-2.678,3.146-3.944,4.771c-0.358,0.459-0.632,1.114-0.642,1.685
						c-0.041,2.199,0.19,4.313,1.655,6.178c0.773,0.983,1.637,1.047,2.583,0.772c2.151-0.616,3.698-2.155,5.169-3.726
						c0.26-0.275,0.245-0.99,0.108-1.423c-0.737-2.326,0.045-4.479,0.755-6.604c0.433-1.297,1.166-2.495,1.784-3.729
						c0.392-0.776,1.079-0.979,1.887-0.844c0.84,0.14,1.472,0.57,1.669,1.432c0.414,1.802,0.361,3.6-0.54,5.238
						c-1.063,1.935-2.28,3.785-3.364,5.708c-0.163,0.287-0.099,0.869,0.095,1.152c0.856,1.256,2.48,1.805,3.716,0.984
						c1.736-1.149,3.308-2.561,4.875-3.944c0.29-0.256,0.34-0.913,0.313-1.374c-0.192-3.262,0.289-6.371,2.066-9.177
						c0.45-0.709,1.03-1.469,2.091-1.126c1.102,0.354,1.539,1.281,1.457,2.294c-0.1,1.229-0.287,2.509-0.762,3.634
						c-0.706,1.668-1.551,3.322-2.619,4.776c-0.701,0.957-0.479,1.688-0.231,2.591c0.644,2.331,2.458,3.097,4.546,1.959
						c2.26-1.229,3.803-3.078,4.93-5.325c0.701-1.4,1.392-2.807,2.087-4.208C161.94,179.219,162.08,179.215,162.222,179.21z
						 M141.56,175.843c-2.293,0.723-4.263,7.179-2.963,9.713C141.487,182.631,142.902,177.992,141.56,175.843z M149.518,182.769
						c1.978-1.701,3.549-6.312,2.692-7.713C150.704,175.706,149.128,180.12,149.518,182.769z M131.74,175.83
						c-0.891-0.746-1.491-0.614-2.134-0.006c-1.21,1.143-2.082,3.651-1.532,4.881C129.31,179.062,130.504,177.474,131.74,175.83z"/>
					<path fill="#FFFFFF" d="M130.413,163.689c-0.167-0.876-0.588-1.794-0.451-2.622c0.302-1.82,0.739-3.652,1.423-5.361
						c0.269-0.669,1.32-1.064,2.078-1.468c0.126-0.069,0.82,0.446,0.835,0.718c0.108,1.935,0.139,3.819-1.341,5.452
						c-0.853,0.941-1.339,2.213-1.99,3.337C130.782,163.725,130.598,163.708,130.413,163.689z"/>
					<path fill="#FFFFFF" d="M147.669,154.642c1.397,3.33-1.556,7.983-3.234,9.368c-0.071-0.142-0.2-0.275-0.191-0.398
						c0.181-2.64,0.39-5.288,1.863-7.598C146.438,155.496,147.062,155.164,147.669,154.642z"/>
					<path fill="#FFFFFF" d="M119.706,159.597c0.07-0.501,0.108-1.012,0.217-1.504c0.312-1.41,0.732-2.793,1.917-3.74
						c0.334-0.267,0.862-0.291,1.303-0.429c0.031,0.46,0.222,0.99,0.057,1.364c-0.24,0.542-0.771,0.948-1.116,1.453
						c-0.659,0.957-1.276,1.942-1.91,2.916C120.018,159.638,119.861,159.618,119.706,159.597z"/>
					<path fill="#FFFFFF" d="M155.189,161.792c-0.116-1.984-0.376-3.994,1.052-5.8C157.343,157.34,156.902,159.668,155.189,161.792z
						"/>
					<path fill="#FFFFFF" d="M154.083,134.094c1.554,2.134-0.811,6.5-2.995,8.758C150.005,140.801,152.049,134.736,154.083,134.094z
						"/>
					<path fill="#FFFFFF" d="M129.344,142.143c-0.696-2.57,2.985-8.373,5.066-7.981
						C134.523,136.352,131.478,141.149,129.344,142.143z"/>
					<path fill="#FFFFFF" d="M140.778,141.73c0.211-0.917,0.335-1.865,0.651-2.744c0.597-1.665,0.947-3.484,2.481-4.652
						c0.284-0.216,0.653-0.316,0.982-0.473c0.037,0.352,0.131,0.706,0.1,1.051c-0.182,2.043-1.233,3.753-2.25,5.447
						c-0.362,0.603-1.042,1.015-1.575,1.514C141.037,141.825,140.908,141.777,140.778,141.73z"/>
					<path fill="#FFFFFF" d="M141.56,175.843c1.342,2.149-0.073,6.788-2.963,9.713C137.297,183.02,139.266,176.564,141.56,175.843z"
						/>
					<path fill="#FFFFFF" d="M149.518,182.769c-0.391-2.649,1.185-7.063,2.692-7.713
						C153.067,176.459,151.496,181.068,149.518,182.769z"/>
					<path fill="#FFFFFF" d="M131.74,175.83c-1.236,1.646-2.43,3.232-3.666,4.875c-0.55-1.229,0.321-3.738,1.532-4.881
						C130.248,175.217,130.849,175.085,131.74,175.83z"/>
				</g>
			</g>
			<g>
				
					<line fill="none" stroke="#000000" stroke-width="0.496" stroke-miterlimit="10" x1="176.822" y1="46.802" x2="145.379" y2="97.458"/>
			</g>
			<g>
				
					<line fill="none" stroke="#000000" stroke-width="0.496" stroke-miterlimit="10" x1="194.287" y1="163.394" x2="287.297" y2="163.394"/>
			</g>
			<g>
				
					<line fill="none" stroke="#000000" stroke-width="0.496" stroke-miterlimit="10" x1="162.411" y1="142.433" x2="287.299" y2="76.059"/>
			</g>
			<g>
				
					<line fill="none" stroke="#000000" stroke-width="0.496" stroke-miterlimit="10" x1="211.318" y1="240.247" x2="260.225" y2="279.549"/>
			</g>
			<g>
				
					<line fill="none" stroke="#000000" stroke-width="0.496" stroke-miterlimit="10" x1="159.791" y1="278.676" x2="180.313" y2="296.576"/>
			</g>
		</g>
	</g>
</g>
<g>
	<path d="M290.336,148.706h1.41l1.662,5.606c0.381,1.234,0.618,2.217,1.014,3.438h0.063c0.38-1.221,0.634-2.202,0.997-3.438
		l1.663-5.606h1.347l-3.293,10.391h-1.537L290.336,148.706z"/>
	<path d="M299.508,148.974c0-0.508,0.396-0.84,0.902-0.84c0.508,0,0.902,0.333,0.902,0.84c0,0.49-0.396,0.84-0.902,0.84
		S299.508,149.466,299.508,148.974z M299.747,151.397h1.299v7.697h-1.299V151.397z"/>
	<path d="M303.641,151.397h1.078l0.111,1.395h0.047c0.521-0.967,1.313-1.584,2.186-1.584c0.332,0,0.57,0.047,0.824,0.157
		l-0.254,1.142c-0.252-0.079-0.428-0.127-0.744-0.127c-0.648,0-1.426,0.477-1.947,1.773v4.94h-1.299L303.641,151.397
		L303.641,151.397z"/>
	<path d="M313.098,154.218c0-0.981-0.334-1.933-1.584-1.933c-0.902,0-1.693,0.412-2.297,0.824l-0.521-0.902
		c0.713-0.459,1.791-0.998,3.025-0.998c1.885,0,2.678,1.251,2.678,3.168v4.721h-1.078l-0.113-0.92h-0.031
		c-0.744,0.603-1.6,1.107-2.551,1.107c-1.299,0-2.264-0.808-2.264-2.186C308.362,155.421,309.819,154.582,313.098,154.218z
		 M310.991,158.24c0.746,0,1.361-0.363,2.105-1.028v-2.139c-2.582,0.317-3.453,0.95-3.453,1.933
		C309.645,157.876,310.231,158.24,310.991,158.24z"/>
	<path d="M316.852,147.818h1.299v9.82c0,0.411,0.174,0.569,0.363,0.569c0.08,0,0.145,0,0.285-0.032l0.174,0.981
		c-0.174,0.079-0.395,0.126-0.744,0.126c-0.982,0-1.379-0.617-1.379-1.741L316.852,147.818L316.852,147.818z"/>
	<path d="M327.225,151.208c1.016,0,1.729,0.428,2.25,0.919l-0.648,0.839c-0.459-0.396-0.936-0.682-1.551-0.682
		c-1.395,0-2.408,1.204-2.408,2.979c0,1.758,0.965,2.945,2.375,2.945c0.729,0,1.346-0.365,1.807-0.775l0.586,0.854
		c-0.695,0.617-1.584,0.997-2.502,0.997c-2.043,0-3.609-1.473-3.609-4.021C323.52,152.68,325.247,151.208,327.225,151.208z"/>
	<path d="M335.51,154.218c0-0.981-0.332-1.933-1.584-1.933c-0.9,0-1.693,0.412-2.295,0.824l-0.523-0.903
		c0.713-0.459,1.791-0.998,3.025-0.998c1.885,0,2.676,1.251,2.676,3.168v4.721h-1.076l-0.111-0.919h-0.031
		c-0.744,0.603-1.6,1.107-2.551,1.107c-1.299,0-2.264-0.808-2.264-2.186C330.776,155.421,332.233,154.582,335.51,154.218z
		 M333.405,158.24c0.744,0,1.361-0.363,2.105-1.028v-2.139c-2.582,0.317-3.453,0.95-3.453,1.933
		C332.057,157.876,332.643,158.24,333.405,158.24z"/>
	<path d="M340.565,159.745v2.598h-1.301v-10.944h1.078l0.111,0.887h0.047c0.697-0.586,1.551-1.076,2.455-1.076
		c1.979,0,3.041,1.537,3.041,3.928c0,2.613-1.568,4.148-3.326,4.148c-0.713,0-1.426-0.333-2.139-0.887L340.565,159.745z
		 M342.45,158.192c1.268,0,2.201-1.155,2.201-3.058c0-1.694-0.57-2.835-2.027-2.835c-0.648,0-1.299,0.364-2.059,1.045v4.039
		C341.26,157.971,341.942,158.192,342.45,158.192z"/>
	<path d="M347.85,157.353c0.666,0.539,1.346,0.918,2.266,0.918c1.014,0,1.521-0.539,1.521-1.204c0-0.792-0.92-1.142-1.76-1.457
		c-1.092-0.396-2.295-0.919-2.295-2.218c0-1.235,0.98-2.187,2.645-2.187c0.967,0,1.809,0.396,2.395,0.871L352,152.901
		c-0.523-0.396-1.076-0.682-1.758-0.682c-0.965,0-1.41,0.522-1.41,1.109c0,0.729,0.84,0.998,1.711,1.33
		c1.109,0.412,2.344,0.871,2.344,2.328c0,1.251-0.998,2.296-2.818,2.296c-1.094,0-2.139-0.459-2.867-1.061L347.85,157.353z"/>
	<path d="M354.456,148.974c0-0.508,0.396-0.84,0.902-0.84c0.508,0,0.902,0.333,0.902,0.84c0,0.49-0.395,0.84-0.902,0.84
		S354.456,149.466,354.456,148.974z M354.694,151.397h1.299v7.697h-1.299V151.397z"/>
	<path d="M361.377,151.208c0.887,0,1.473,0.333,2.154,0.887l-0.064-1.313v-2.962h1.314v11.276h-1.076l-0.111-0.902h-0.047
		c-0.602,0.586-1.426,1.093-2.33,1.093c-1.932,0-3.182-1.456-3.182-4.021C358.036,152.76,359.62,151.208,361.377,151.208z
		 M361.504,158.192c0.713,0,1.33-0.35,1.963-1.062v-4.022c-0.648-0.586-1.234-0.809-1.869-0.809c-1.234,0-2.217,1.188-2.217,2.946
		C359.381,157.084,360.159,158.192,361.504,158.192z"/>
	<path d="M373.575,151.208c1.885,0,3.563,1.474,3.563,4.056c0,2.55-1.68,4.021-3.563,4.021c-1.885,0-3.564-1.473-3.564-4.021
		C370.01,152.68,371.69,151.208,373.575,151.208z M373.575,158.209c1.33,0,2.217-1.188,2.217-2.945c0-1.774-0.887-2.979-2.217-2.979
		c-1.314,0-2.219,1.204-2.219,2.979C371.356,157.02,372.258,158.209,373.575,158.209z"/>
	<path d="M379.165,151.397h1.078l0.109,1.395h0.049c0.521-0.967,1.313-1.584,2.186-1.584c0.332,0,0.57,0.047,0.824,0.157
		l-0.254,1.142c-0.252-0.079-0.428-0.127-0.744-0.127c-0.648,0-1.426,0.477-1.947,1.773v4.94h-1.299v-7.696H379.165z"/>
	<path d="M291.635,170.405h1.076l0.11,1.109h0.048c0.729-0.729,1.521-1.3,2.582-1.3c1.615,0,2.344,1.045,2.344,3.01v4.878h-1.299
		v-4.704c0-1.44-0.442-2.06-1.457-2.06c-0.791,0-1.33,0.412-2.105,1.188v5.575h-1.299V170.405L291.635,170.405z"/>
	<path d="M300.19,170.405h1.313v4.704c0,1.44,0.428,2.06,1.441,2.06c0.793,0,1.346-0.396,2.074-1.299v-5.465h1.299v7.698h-1.076
		l-0.111-1.204h-0.047c-0.713,0.839-1.473,1.395-2.533,1.395c-1.631,0-2.359-1.045-2.359-3.01V170.405L300.19,170.405z"/>
	<path d="M312.053,170.216c1.014,0,1.727,0.429,2.248,0.919l-0.648,0.84c-0.459-0.396-0.936-0.682-1.553-0.682
		c-1.393,0-2.406,1.204-2.406,2.979c0,1.758,0.965,2.945,2.375,2.945c0.729,0,1.346-0.364,1.807-0.775l0.586,0.854
		c-0.697,0.618-1.584,0.998-2.502,0.998c-2.043,0-3.611-1.474-3.611-4.022C308.346,171.688,310.073,170.216,312.053,170.216z"/>
	<path d="M316.139,166.825h1.301v9.82c0,0.412,0.174,0.569,0.363,0.569c0.078,0,0.143,0,0.285-0.031l0.174,0.981
		c-0.174,0.079-0.396,0.126-0.744,0.126c-0.982,0-1.379-0.618-1.379-1.742V166.825L316.139,166.825z"/>
	<path d="M323.059,170.216c1.965,0,3.074,1.41,3.074,3.61c0,0.271-0.016,0.522-0.047,0.714h-5.195
		c0.096,1.663,1.094,2.708,2.564,2.708c0.729,0,1.348-0.237,1.918-0.603l0.459,0.854c-0.666,0.428-1.49,0.792-2.535,0.792
		c-2.059,0-3.689-1.504-3.689-4.022C319.608,171.753,321.303,170.216,323.059,170.216z M324.993,173.684
		c0-1.568-0.697-2.438-1.9-2.438c-1.076,0-2.059,0.887-2.217,2.438H324.993z"/>
	<path d="M331.028,170.216c1.885,0,3.563,1.474,3.563,4.056c0,2.55-1.678,4.022-3.563,4.022s-3.564-1.474-3.564-4.022
		C327.463,171.688,329.143,170.216,331.028,170.216z M331.028,177.217c1.33,0,2.217-1.188,2.217-2.945
		c0-1.773-0.887-2.979-2.217-2.979c-1.314,0-2.219,1.204-2.219,2.979C328.809,176.028,329.713,177.217,331.028,177.217z"/>
	<path d="M339.756,170.216c1.014,0,1.727,0.429,2.25,0.919l-0.648,0.84c-0.459-0.396-0.936-0.682-1.553-0.682
		c-1.395,0-2.408,1.204-2.408,2.979c0,1.758,0.967,2.945,2.377,2.945c0.729,0,1.346-0.364,1.805-0.775l0.586,0.854
		c-0.695,0.618-1.584,0.998-2.502,0.998c-2.043,0-3.609-1.474-3.609-4.022C336.049,171.688,337.776,170.216,339.756,170.216z"/>
	<path d="M348.04,173.224c0-0.982-0.332-1.933-1.584-1.933c-0.9,0-1.693,0.412-2.295,0.823l-0.521-0.902
		c0.711-0.459,1.789-0.998,3.023-0.998c1.887,0,2.678,1.251,2.678,3.168v4.721h-1.076l-0.109-0.918h-0.033
		c-0.744,0.603-1.602,1.107-2.549,1.107c-1.301,0-2.268-0.809-2.268-2.187C343.303,174.427,344.762,173.59,348.04,173.224z
		 M345.932,177.248c0.746,0,1.363-0.364,2.107-1.029v-2.138c-2.582,0.316-3.453,0.949-3.453,1.933
		C344.586,176.884,345.172,177.248,345.932,177.248z"/>
	<path d="M353.092,178.753v2.599h-1.299v-10.945h1.078l0.109,0.888h0.049c0.695-0.586,1.551-1.077,2.453-1.077
		c1.98,0,3.041,1.537,3.041,3.929c0,2.612-1.566,4.148-3.324,4.148c-0.713,0-1.426-0.333-2.141-0.888L353.092,178.753z
		 M354.977,177.2c1.268,0,2.203-1.155,2.203-3.057c0-1.695-0.57-2.835-2.027-2.835c-0.648,0-1.299,0.363-2.059,1.045v4.039
		C353.79,176.978,354.471,177.2,354.977,177.2z"/>
	<path d="M360.379,176.361c0.666,0.539,1.346,0.918,2.264,0.918c1.016,0,1.521-0.539,1.521-1.204c0-0.792-0.918-1.141-1.758-1.457
		c-1.092-0.396-2.295-0.919-2.295-2.218c0-1.234,0.98-2.187,2.645-2.187c0.967,0,1.807,0.396,2.393,0.871l-0.617,0.823
		c-0.523-0.396-1.076-0.681-1.758-0.681c-0.967,0-1.41,0.522-1.41,1.108c0,0.729,0.84,0.998,1.711,1.331
		c1.107,0.412,2.344,0.871,2.344,2.328c0,1.251-0.998,2.296-2.818,2.296c-1.094,0-2.139-0.459-2.867-1.062L360.379,176.361z"/>
	<path d="M366.985,167.982c0-0.507,0.396-0.839,0.902-0.839c0.508,0,0.904,0.333,0.904,0.839c0,0.491-0.396,0.84-0.904,0.84
		C367.381,168.822,366.985,168.473,366.985,167.982z M367.223,170.405h1.299v7.698h-1.299V170.405z"/>
	<path d="M373.907,170.216c0.887,0,1.473,0.333,2.154,0.888l-0.063-1.314v-2.963h1.313v11.277h-1.076l-0.111-0.903h-0.047
		c-0.604,0.586-1.426,1.094-2.328,1.094c-1.934,0-3.184-1.457-3.184-4.022C370.565,171.767,372.149,170.216,373.907,170.216z
		 M374.034,177.2c0.713,0,1.33-0.349,1.963-1.061v-4.023c-0.648-0.586-1.234-0.808-1.869-0.808c-1.234,0-2.217,1.188-2.217,2.945
		C371.911,176.092,372.686,177.2,374.034,177.2z"/>
</g>
<g>
	<path d="M260.579,260.968h1.314v9.267h4.545v1.125h-5.859V260.968z"/>
	<path d="M267.913,261.236c0-0.507,0.396-0.839,0.902-0.839c0.508,0,0.902,0.333,0.902,0.839c0,0.491-0.395,0.84-0.902,0.84
		C268.308,262.076,267.913,261.727,267.913,261.236z M268.149,263.659h1.299v7.698h-1.299V263.659z"/>
	<path d="M273.345,272.007v2.599h-1.3V263.66h1.078l0.109,0.888h0.049c0.695-0.586,1.551-1.077,2.454-1.077
		c1.979,0,3.041,1.537,3.041,3.929c0,2.612-1.567,4.148-3.325,4.148c-0.714,0-1.427-0.333-2.14-0.888L273.345,272.007z
		 M275.229,270.455c1.268,0,2.202-1.156,2.202-3.058c0-1.694-0.569-2.835-2.026-2.835c-0.65,0-1.3,0.363-2.06,1.045v4.039
		C274.042,270.232,274.723,270.455,275.229,270.455z"/>
	<path d="M280.599,261.236c0-0.507,0.396-0.839,0.903-0.839c0.506,0,0.901,0.333,0.901,0.839c0,0.491-0.396,0.84-0.901,0.84
		C280.995,262.076,280.599,261.727,280.599,261.236z M280.836,263.659h1.299v7.698h-1.299V263.659z"/>
	<path d="M287.521,263.469c0.888,0,1.474,0.333,2.153,0.888l-0.063-1.314v-2.962h1.314v11.276h-1.077l-0.11-0.902h-0.048
		c-0.603,0.586-1.426,1.093-2.329,1.093c-1.932,0-3.183-1.457-3.183-4.022C284.179,265.021,285.763,263.469,287.521,263.469z
		 M287.647,270.455c0.713,0,1.331-0.35,1.965-1.062v-4.022c-0.65-0.587-1.236-0.809-1.869-0.809c-1.234,0-2.218,1.188-2.218,2.945
		C285.525,269.344,286.301,270.455,287.647,270.455z"/>
	<path d="M296.724,266.954c0-2.788,0.776-5.068,2.091-7.189l0.809,0.38c-1.221,2.012-1.82,4.402-1.82,6.812
		c0,2.407,0.604,4.799,1.82,6.812l-0.809,0.38C297.499,272.022,296.724,269.741,296.724,266.954z"/>
	<path d="M304.993,261.141c-0.285-0.127-0.586-0.19-0.871-0.19c-0.729,0-1.078,0.508-1.078,1.489v1.219h1.633v1.063h-1.633v6.636
		h-1.299v-6.636H300.7v-0.982l1.045-0.08v-1.219c0-1.567,0.713-2.55,2.25-2.55c0.475,0,0.936,0.11,1.283,0.253L304.993,261.141z"/>
	<path d="M310.186,266.478c0-0.981-0.332-1.933-1.584-1.933c-0.9,0-1.693,0.412-2.295,0.824l-0.521-0.903
		c0.711-0.459,1.789-0.998,3.023-0.998c1.887,0,2.678,1.251,2.678,3.168v4.721h-1.076l-0.111-0.918h-0.031
		c-0.744,0.603-1.602,1.107-2.551,1.107c-1.299,0-2.266-0.809-2.266-2.187C305.452,267.682,306.909,266.844,310.186,266.478z
		 M308.081,270.502c0.746,0,1.363-0.363,2.105-1.028v-2.139c-2.582,0.316-3.451,0.949-3.451,1.933
		C306.735,270.136,307.321,270.502,308.081,270.502z"/>
	<path d="M314.163,264.721h-1.139v-0.982l1.203-0.08l0.158-2.153h1.092v2.153h2.076v1.063h-2.076v4.275
		c0,0.949,0.303,1.488,1.189,1.488c0.27,0,0.617-0.11,0.871-0.206l0.252,0.982c-0.428,0.143-0.949,0.284-1.424,0.284
		c-1.648,0-2.203-1.045-2.203-2.565V264.721L314.163,264.721z"/>
	<path d="M319.516,264.721h-1.139v-0.982l1.203-0.08l0.158-2.153h1.094v2.153h2.074v1.063h-2.074v4.275
		c0,0.949,0.301,1.488,1.188,1.488c0.27,0,0.617-0.11,0.871-0.206l0.252,0.982c-0.428,0.143-0.949,0.284-1.424,0.284
		c-1.646,0-2.203-1.045-2.203-2.565V264.721L319.516,264.721z"/>
	<path d="M324.713,273.591c0.871,0,1.424-0.696,1.742-1.646l0.174-0.569l-3.09-7.714h1.346l1.568,4.262
		c0.236,0.665,0.508,1.457,0.744,2.17h0.063c0.223-0.696,0.441-1.488,0.648-2.17l1.377-4.262h1.268l-2.896,8.332
		c-0.539,1.521-1.33,2.677-2.883,2.677c-0.35,0-0.648-0.063-0.902-0.157l0.252-1.029
		C324.286,273.527,324.522,273.591,324.713,273.591z"/>
	<path d="M333.17,266.954c0-2.407-0.602-4.8-1.82-6.812l0.809-0.381c1.313,2.122,2.09,4.403,2.09,7.19
		c0,2.786-0.775,5.067-2.09,7.19l-0.809-0.381C332.569,271.754,333.17,269.361,333.17,266.954z"/>
	<path d="M263.334,282.477c1.963,0,3.072,1.409,3.072,3.61c0,0.27-0.018,0.521-0.049,0.713h-5.193
		c0.094,1.663,1.092,2.708,2.563,2.708c0.729,0,1.349-0.236,1.917-0.603l0.459,0.854c-0.665,0.429-1.488,0.792-2.534,0.792
		c-2.059,0-3.688-1.504-3.688-4.022C259.881,284.013,261.577,282.477,263.334,282.477z M265.266,285.946
		c0-1.567-0.697-2.438-1.9-2.438c-1.078,0-2.06,0.888-2.218,2.438H265.266z"/>
	<path d="M268.308,282.668h1.077l0.111,1.108h0.047c0.729-0.729,1.521-1.299,2.582-1.299c1.615,0,2.344,1.045,2.344,3.009v4.878
		h-1.299v-4.704c0-1.44-0.443-2.059-1.457-2.059c-0.793,0-1.332,0.411-2.106,1.188v5.574h-1.299V282.668L268.308,282.668z"/>
	<path d="M275.864,282.668h1.346l1.457,4.372c0.224,0.76,0.477,1.536,0.713,2.266h0.063c0.224-0.729,0.476-1.506,0.697-2.266
		l1.458-4.372h1.281l-2.723,7.697h-1.521L275.864,282.668z"/>
	<path d="M287.188,282.477c1.965,0,3.072,1.409,3.072,3.61c0,0.27-0.016,0.521-0.047,0.713h-5.195
		c0.096,1.663,1.094,2.708,2.564,2.708c0.729,0,1.348-0.236,1.918-0.603l0.459,0.854c-0.666,0.429-1.49,0.792-2.535,0.792
		c-2.059,0-3.689-1.504-3.689-4.022C283.735,284.013,285.43,282.477,287.188,282.477z M289.12,285.946
		c0-1.567-0.695-2.438-1.899-2.438c-1.077,0-2.06,0.888-2.218,2.438H289.12z"/>
	<path d="M292.163,279.088h1.299v9.819c0,0.412,0.175,0.57,0.363,0.57c0.08,0,0.145,0,0.285-0.032l0.174,0.981
		c-0.174,0.079-0.396,0.126-0.744,0.126c-0.98,0-1.377-0.617-1.377-1.741V279.088L292.163,279.088z"/>
	<path d="M299.196,282.477c1.885,0,3.563,1.473,3.563,4.055c0,2.551-1.68,4.023-3.563,4.023c-1.886,0-3.564-1.474-3.564-4.023
		C295.631,283.95,297.309,282.477,299.196,282.477z M299.196,289.478c1.33,0,2.217-1.188,2.217-2.946
		c0-1.773-0.887-2.979-2.217-2.979c-1.316,0-2.219,1.204-2.219,2.979C296.977,288.291,297.879,289.478,299.196,289.478z"/>
	<path d="M306.084,291.014v2.598h-1.299v-10.944h1.078l0.109,0.888h0.047c0.697-0.587,1.553-1.077,2.455-1.077
		c1.979,0,3.041,1.537,3.041,3.928c0,2.613-1.566,4.149-3.326,4.149c-0.713,0-1.426-0.333-2.139-0.888L306.084,291.014z
		 M307.969,289.463c1.268,0,2.203-1.155,2.203-3.058c0-1.694-0.57-2.835-2.027-2.835c-0.648,0-1.299,0.364-2.059,1.045v4.039
		C306.782,289.24,307.463,289.463,307.969,289.463z"/>
	<path d="M316.459,282.477c1.965,0,3.074,1.409,3.074,3.61c0,0.27-0.018,0.521-0.047,0.713h-5.195
		c0.094,1.663,1.092,2.708,2.564,2.708c0.729,0,1.348-0.236,1.916-0.603l0.459,0.854c-0.664,0.429-1.488,0.792-2.533,0.792
		c-2.061,0-3.689-1.504-3.689-4.022C313.006,284.013,314.702,282.477,316.459,282.477z M318.391,285.946
		c0-1.567-0.695-2.438-1.9-2.438c-1.076,0-2.059,0.888-2.217,2.438H318.391z"/>
	<path d="M323.985,285.898h3.643v0.998h-3.643V285.898z"/>
	<path d="M260.245,307.631c0.666,0.538,1.348,0.919,2.266,0.919c1.015,0,1.521-0.539,1.521-1.203c0-0.792-0.92-1.142-1.759-1.457
		c-1.093-0.396-2.296-0.92-2.296-2.219c0-1.234,0.982-2.187,2.645-2.187c0.967,0,1.808,0.396,2.394,0.871l-0.618,0.822
		c-0.521-0.396-1.077-0.681-1.758-0.681c-0.967,0-1.41,0.521-1.41,1.107c0,0.729,0.839,0.998,1.711,1.331
		c1.107,0.411,2.346,0.871,2.346,2.328c0,1.251-0.998,2.297-2.82,2.297c-1.092,0-2.137-0.46-2.866-1.063L260.245,307.631z"/>
	<path d="M270.081,301.485c1.887,0,3.563,1.474,3.563,4.056c0,2.55-1.679,4.022-3.563,4.022c-1.884,0-3.563-1.475-3.563-4.022
		C266.517,302.958,268.196,301.485,270.081,301.485z M270.081,308.486c1.33,0,2.219-1.188,2.219-2.945
		c0-1.772-0.889-2.979-2.219-2.979c-1.313,0-2.217,1.204-2.217,2.979C267.864,307.298,268.766,308.486,270.081,308.486z"/>
	<path d="M275.672,301.676h1.078l0.11,1.107h0.048c0.663-0.729,1.473-1.299,2.391-1.299c1.173,0,1.807,0.556,2.123,1.474
		c0.809-0.871,1.601-1.474,2.535-1.474c1.582,0,2.344,1.046,2.344,3.011v4.878h-1.299v-4.704c0-1.44-0.459-2.06-1.426-2.06
		c-0.603,0-1.22,0.396-1.933,1.188v5.575h-1.3v-4.704c0-1.44-0.459-2.06-1.44-2.06c-0.569,0-1.22,0.396-1.933,1.188v5.575h-1.299
		V301.676L275.672,301.676z"/>
	<path d="M291.686,301.485c1.964,0,3.072,1.41,3.072,3.61c0,0.271-0.016,0.521-0.047,0.714h-5.194
		c0.095,1.663,1.093,2.708,2.565,2.708c0.729,0,1.347-0.237,1.916-0.603l0.459,0.854c-0.664,0.428-1.488,0.792-2.533,0.792
		c-2.059,0-3.69-1.505-3.69-4.022S289.929,301.485,291.686,301.485z M293.62,304.954c0-1.568-0.697-2.438-1.9-2.438
		c-1.077,0-2.061,0.888-2.219,2.438H293.62z"/>
	<path d="M298.75,301.676h1.348l1.457,4.371c0.223,0.762,0.477,1.536,0.713,2.266h0.063c0.223-0.729,0.477-1.504,0.697-2.266
		l1.459-4.371h1.281l-2.723,7.697h-1.521L298.75,301.676z"/>
	<path d="M307.02,299.252c0-0.507,0.396-0.839,0.902-0.839c0.508,0,0.904,0.332,0.904,0.839c0,0.49-0.396,0.84-0.904,0.84
		C307.417,300.092,307.02,299.742,307.02,299.252z M307.258,301.676h1.299v7.697h-1.299V301.676z"/>
	<path d="M311.155,301.676h1.076l0.111,1.395h0.047c0.521-0.966,1.314-1.584,2.186-1.584c0.334,0,0.57,0.048,0.824,0.158
		l-0.254,1.141c-0.252-0.078-0.428-0.127-0.742-0.127c-0.65,0-1.428,0.477-1.949,1.774v4.94h-1.299V301.676L311.155,301.676z"/>
	<path d="M316.54,301.676h1.313v4.704c0,1.44,0.43,2.06,1.441,2.06c0.793,0,1.346-0.396,2.076-1.299v-5.465h1.299v7.697h-1.078
		l-0.109-1.204h-0.049c-0.713,0.84-1.473,1.396-2.533,1.396c-1.631,0-2.359-1.046-2.359-3.011V301.676z"/>
	<path d="M325.061,307.631c0.666,0.538,1.346,0.919,2.266,0.919c1.014,0,1.521-0.539,1.521-1.203c0-0.792-0.92-1.142-1.76-1.457
		c-1.092-0.396-2.295-0.92-2.295-2.219c0-1.234,0.982-2.187,2.645-2.187c0.969,0,1.809,0.396,2.395,0.871l-0.619,0.822
		c-0.521-0.396-1.076-0.681-1.758-0.681c-0.965,0-1.41,0.521-1.41,1.107c0,0.729,0.84,0.998,1.711,1.331
		c1.109,0.411,2.344,0.871,2.344,2.328c0,1.251-0.998,2.297-2.818,2.297c-1.092,0-2.139-0.46-2.867-1.063L325.061,307.631z"/>
	<path d="M334.786,301.485c1.965,0,3.074,1.41,3.074,3.61c0,0.271-0.018,0.521-0.049,0.714h-5.193
		c0.094,1.663,1.092,2.708,2.564,2.708c0.729,0,1.348-0.237,1.916-0.603l0.459,0.854c-0.664,0.428-1.488,0.792-2.533,0.792
		c-2.059,0-3.689-1.505-3.689-4.022S333.028,301.485,334.786,301.485z M336.719,304.954c0-1.568-0.697-2.438-1.9-2.438
		c-1.078,0-2.061,0.888-2.219,2.438H336.719z"/>
	<path d="M339.553,307.631c0.666,0.538,1.348,0.919,2.266,0.919c1.014,0,1.521-0.539,1.521-1.203c0-0.792-0.92-1.142-1.758-1.457
		c-1.094-0.396-2.297-0.92-2.297-2.219c0-1.234,0.98-2.187,2.645-2.187c0.967,0,1.807,0.396,2.393,0.871l-0.617,0.822
		c-0.523-0.396-1.078-0.681-1.758-0.681c-0.967,0-1.41,0.521-1.41,1.107c0,0.729,0.84,0.998,1.711,1.331
		c1.107,0.411,2.344,0.871,2.344,2.328c0,1.251-0.998,2.297-2.818,2.297c-1.094,0-2.139-0.46-2.865-1.063L339.553,307.631z"/>
</g>
<g>
	<path d="M114.938,297.049h5.987v1.108h-4.672v3.264h3.944v1.124h-3.944v3.771h4.831v1.125h-6.146V297.049z"/>
	<path d="M123.159,299.742h1.077l0.111,1.108h0.047c0.729-0.729,1.521-1.3,2.582-1.3c1.616,0,2.344,1.047,2.344,3.011v4.878h-1.299
		v-4.704c0-1.44-0.443-2.06-1.457-2.06c-0.792,0-1.331,0.411-2.106,1.188v5.575h-1.299V299.742L123.159,299.742z"/>
	<path d="M130.715,299.742h1.346l1.458,4.371c0.222,0.762,0.475,1.536,0.712,2.266h0.063c0.222-0.729,0.475-1.504,0.697-2.266
		l1.458-4.371h1.283l-2.724,7.697h-1.521L130.715,299.742z"/>
	<path d="M142.04,299.552c1.964,0,3.072,1.41,3.072,3.611c0,0.271-0.016,0.521-0.047,0.713h-5.195
		c0.095,1.663,1.093,2.708,2.565,2.708c0.729,0,1.347-0.236,1.917-0.603l0.459,0.854c-0.665,0.429-1.489,0.792-2.534,0.792
		c-2.059,0-3.69-1.505-3.69-4.022S140.282,299.552,142.04,299.552z M143.972,303.02c0-1.567-0.697-2.438-1.901-2.438
		c-1.077,0-2.059,0.888-2.217,2.438H143.972z"/>
	<path d="M147.014,296.162h1.299v9.819c0,0.412,0.174,0.569,0.364,0.569c0.079,0,0.143,0,0.285-0.031l0.174,0.981
		c-0.174,0.079-0.396,0.127-0.744,0.127c-0.982,0-1.378-0.618-1.378-1.742V296.162L147.014,296.162z"/>
	<path d="M154.046,299.552c1.885,0,3.563,1.474,3.563,4.056c0,2.55-1.679,4.022-3.563,4.022c-1.885,0-3.564-1.475-3.564-4.022
		C150.482,301.024,152.161,299.552,154.046,299.552z M154.046,306.552c1.33,0,2.217-1.188,2.217-2.945
		c0-1.772-0.887-2.979-2.217-2.979c-1.315,0-2.218,1.204-2.218,2.979C151.829,305.364,152.731,306.552,154.046,306.552z"/>
	<path d="M160.937,308.089v2.599h-1.299v-10.944h1.077l0.111,0.888h0.047c0.697-0.586,1.552-1.077,2.455-1.077
		c1.98,0,3.041,1.536,3.041,3.929c0,2.612-1.568,4.149-3.326,4.149c-0.713,0-1.425-0.333-2.138-0.889L160.937,308.089z
		 M162.822,306.537c1.267,0,2.202-1.156,2.202-3.059c0-1.694-0.57-2.835-2.027-2.835c-0.649,0-1.299,0.363-2.059,1.046v4.038
		C161.634,306.314,162.315,306.537,162.822,306.537z"/>
	<path d="M171.311,299.552c1.964,0,3.073,1.41,3.073,3.611c0,0.271-0.016,0.521-0.047,0.713h-5.195
		c0.095,1.663,1.093,2.708,2.565,2.708c0.729,0,1.347-0.236,1.917-0.603l0.459,0.854c-0.665,0.429-1.489,0.792-2.534,0.792
		c-2.059,0-3.69-1.505-3.69-4.022S169.554,299.552,171.311,299.552z M173.244,303.02c0-1.567-0.697-2.438-1.901-2.438
		c-1.077,0-2.059,0.888-2.217,2.438H173.244z"/>
	<path d="M180.784,308.089v2.599h-1.299v-10.944h1.077l0.111,0.888h0.047c0.697-0.586,1.552-1.077,2.455-1.077
		c1.98,0,3.041,1.536,3.041,3.929c0,2.612-1.568,4.149-3.326,4.149c-0.713,0-1.425-0.333-2.138-0.889L180.784,308.089z
		 M182.668,306.537c1.267,0,2.202-1.156,2.202-3.059c0-1.694-0.57-2.835-2.027-2.835c-0.649,0-1.299,0.363-2.059,1.046v4.038
		C181.48,306.314,182.162,306.537,182.668,306.537z"/>
	<path d="M188.276,299.742h1.077l0.111,1.395h0.047c0.522-0.966,1.314-1.584,2.186-1.584c0.333,0,0.57,0.049,0.824,0.158
		l-0.253,1.142c-0.253-0.079-0.428-0.127-0.744-0.127c-0.649,0-1.426,0.476-1.948,1.773v4.94h-1.299L188.276,299.742
		L188.276,299.742z"/>
	<path d="M196.608,299.552c1.885,0,3.563,1.474,3.563,4.056c0,2.55-1.679,4.022-3.563,4.022c-1.885,0-3.564-1.475-3.564-4.022
		C193.044,301.024,194.723,299.552,196.608,299.552z M196.608,306.552c1.33,0,2.217-1.188,2.217-2.945
		c0-1.772-0.887-2.979-2.217-2.979c-1.315,0-2.218,1.204-2.218,2.979C194.39,305.364,195.293,306.552,196.608,306.552z"/>
	<path d="M202.42,300.802h-1.14v-0.98l1.204-0.079l0.158-2.153h1.093v2.153h2.075v1.063h-2.075v4.275
		c0,0.95,0.301,1.488,1.188,1.488c0.271,0,0.619-0.11,0.871-0.206l0.254,0.981c-0.428,0.144-0.95,0.285-1.426,0.285
		c-1.646,0-2.202-1.046-2.202-2.565V300.802L202.42,300.802z"/>
	<path d="M210.278,299.552c1.963,0,3.071,1.41,3.071,3.611c0,0.271-0.017,0.521-0.048,0.713h-5.194
		c0.095,1.663,1.093,2.708,2.565,2.708c0.729,0,1.347-0.236,1.916-0.603l0.459,0.854c-0.664,0.429-1.488,0.792-2.533,0.792
		c-2.059,0-3.689-1.505-3.689-4.022S208.519,299.552,210.278,299.552z M212.209,303.02c0-1.567-0.697-2.438-1.901-2.438
		c-1.077,0-2.06,0.888-2.218,2.438H212.209z"/>
	<path d="M215.013,297.318c0-0.507,0.396-0.839,0.903-0.839c0.506,0,0.901,0.332,0.901,0.839c0,0.491-0.396,0.84-0.901,0.84
		C215.409,298.158,215.013,297.809,215.013,297.318z M215.25,299.742h1.299v7.697h-1.299V299.742z"/>
	<path d="M219.147,299.742h1.077l0.11,1.108h0.047c0.729-0.729,1.521-1.3,2.582-1.3c1.617,0,2.345,1.047,2.345,3.011v4.878h-1.3
		v-4.704c0-1.44-0.442-2.06-1.457-2.06c-0.791,0-1.33,0.411-2.105,1.188v5.575h-1.299V299.742z"/>
	<path d="M227.606,305.697c0.666,0.538,1.346,0.919,2.266,0.919c1.015,0,1.521-0.538,1.521-1.203c0-0.792-0.919-1.142-1.758-1.457
		c-1.094-0.396-2.297-0.919-2.297-2.219c0-1.234,0.982-2.187,2.646-2.187c0.968,0,1.808,0.396,2.394,0.871l-0.619,0.823
		c-0.522-0.396-1.076-0.682-1.758-0.682c-0.965,0-1.41,0.521-1.41,1.107c0,0.729,0.841,0.998,1.712,1.331
		c1.108,0.411,2.344,0.871,2.344,2.328c0,1.251-0.998,2.297-2.819,2.297c-1.093,0-2.138-0.46-2.867-1.063L227.606,305.697z"/>
</g>
<g>
	<path d="M149.653,33.123h-3.136v-1.108h7.603v1.108h-3.136v9.28h-1.331V33.123z"/>
	<path d="M157.699,34.516c1.964,0,3.073,1.409,3.073,3.61c0,0.27-0.016,0.521-0.047,0.713h-5.195
		c0.095,1.663,1.093,2.708,2.565,2.708c0.729,0,1.347-0.236,1.917-0.603l0.459,0.854c-0.665,0.429-1.489,0.792-2.534,0.792
		c-2.059,0-3.69-1.504-3.69-4.022C154.246,36.052,155.941,34.516,157.699,34.516z M159.632,37.985c0-1.567-0.697-2.438-1.901-2.438
		c-1.077,0-2.059,0.888-2.217,2.438H159.632z"/>
	<path d="M163.054,42.135v-0.063c-0.38-0.237-0.681-0.648-0.681-1.251c0-0.648,0.443-1.155,0.839-1.425v-0.063
		c-0.507-0.412-0.998-1.156-0.998-2.075c0-1.679,1.33-2.739,2.898-2.739c0.427,0,0.808,0.079,1.093,0.189h2.677v0.998h-1.584
		c0.364,0.35,0.633,0.936,0.633,1.584c0,1.646-1.251,2.677-2.819,2.677c-0.38,0-0.808-0.095-1.156-0.271
		c-0.27,0.238-0.491,0.491-0.491,0.919c0,0.491,0.317,0.84,1.362,0.84h1.489c1.79,0,2.692,0.554,2.692,1.837
		c0,1.426-1.504,2.661-3.896,2.661c-1.885,0-3.184-0.745-3.184-2.075C161.929,43.227,162.356,42.61,163.054,42.135z M165.303,45.05
		c1.473,0,2.439-0.76,2.439-1.567c0-0.713-0.554-0.95-1.552-0.95h-1.33c-0.301,0-0.666-0.031-0.998-0.127
		c-0.554,0.396-0.792,0.854-0.792,1.3C163.069,44.526,163.909,45.05,165.303,45.05z M166.744,37.257c0-1.125-0.729-1.79-1.631-1.79
		c-0.902,0-1.631,0.666-1.631,1.79s0.744,1.837,1.631,1.837C165.999,39.094,166.744,38.382,166.744,37.257z"/>
	<path d="M170.388,34.707h1.314v4.703c0,1.441,0.428,2.06,1.441,2.06c0.792,0,1.346-0.396,2.075-1.299v-5.464h1.299v7.697h-1.077
		l-0.111-1.204h-0.047c-0.713,0.84-1.473,1.395-2.534,1.395c-1.631,0-2.36-1.045-2.36-3.009V34.707z"/>
	<path d="M179.115,34.707h1.077l0.111,1.108h0.047c0.665-0.729,1.473-1.299,2.392-1.299c1.172,0,1.806,0.554,2.123,1.473
		c0.808-0.871,1.6-1.473,2.534-1.473c1.583,0,2.344,1.045,2.344,3.009v4.878h-1.298v-4.704c0-1.44-0.459-2.059-1.426-2.059
		c-0.602,0-1.22,0.396-1.932,1.188v5.574h-1.299v-4.704c0-1.44-0.459-2.059-1.441-2.059c-0.57,0-1.22,0.396-1.932,1.188v5.574
		h-1.299L179.115,34.707L179.115,34.707z"/>
	<path d="M195.129,34.516c1.964,0,3.073,1.409,3.073,3.61c0,0.27-0.016,0.521-0.047,0.713h-5.195
		c0.095,1.663,1.093,2.708,2.565,2.708c0.729,0,1.347-0.236,1.917-0.603l0.459,0.854c-0.665,0.429-1.489,0.792-2.534,0.792
		c-2.059,0-3.69-1.504-3.69-4.022C191.676,36.052,193.371,34.516,195.129,34.516z M197.061,37.985c0-1.567-0.697-2.438-1.901-2.438
		c-1.077,0-2.059,0.888-2.217,2.438H197.061z"/>
	<path d="M200.103,34.707h1.077l0.111,1.108h0.047c0.729-0.729,1.521-1.299,2.583-1.299c1.615,0,2.345,1.045,2.345,3.009v4.878h-1.3
		v-4.704c0-1.44-0.442-2.059-1.457-2.059c-0.792,0-1.331,0.411-2.106,1.188v5.574h-1.299L200.103,34.707L200.103,34.707z"/>
	<path d="M208.989,35.767h-1.14v-0.982l1.204-0.079l0.158-2.154h1.093v2.154h2.075v1.063h-2.075v4.275
		c0,0.949,0.301,1.488,1.188,1.488c0.27,0,0.616-0.11,0.87-0.206l0.253,0.982c-0.429,0.143-0.949,0.284-1.426,0.284
		c-1.646,0-2.202-1.045-2.202-2.565L208.989,35.767L208.989,35.767z"/>
</g>
<g>
	<rect x="290.336" y="51.797" fill="none" width="115.281" height="73.041"/>
	<path d="M295.786,52.495c1.25,0,2.232,0.603,2.834,1.282l-0.744,0.839c-0.539-0.586-1.205-0.966-2.074-0.966
		c-1.979,0-3.279,1.615-3.279,4.197c0,2.612,1.251,4.26,3.217,4.26c0.996,0,1.727-0.412,2.391-1.156l0.746,0.809
		c-0.824,0.95-1.838,1.505-3.168,1.505c-2.613,0-4.545-1.996-4.545-5.386C291.161,54.538,293.124,52.495,295.786,52.495z"/>
	<path d="M303.674,55.186c1.885,0,3.563,1.473,3.563,4.055c0,2.551-1.68,4.023-3.563,4.023c-1.885,0-3.564-1.474-3.564-4.023
		C300.11,56.659,301.79,55.186,303.674,55.186z M303.674,62.187c1.33,0,2.217-1.188,2.217-2.946c0-1.773-0.887-2.978-2.217-2.978
		c-1.314,0-2.219,1.203-2.219,2.978C301.456,61,302.36,62.187,303.674,62.187z"/>
	<path d="M309.028,52.954c0-0.508,0.396-0.84,0.902-0.84s0.902,0.333,0.902,0.84c0,0.49-0.396,0.84-0.902,0.84
		S309.028,53.444,309.028,52.954z M309.264,55.377h1.301v7.697h-1.301V55.377z"/>
	<path d="M313.163,51.798h1.299v9.819c0,0.412,0.174,0.57,0.363,0.57c0.08,0,0.145,0,0.285-0.031l0.174,0.982
		c-0.174,0.078-0.396,0.126-0.744,0.126c-0.982,0-1.379-0.618-1.379-1.742v-9.726L313.163,51.798L313.163,51.798z"/>
	<path d="M320.083,55.186c1.965,0,3.074,1.41,3.074,3.61c0,0.27-0.018,0.521-0.047,0.713h-5.195
		c0.096,1.663,1.094,2.708,2.564,2.708c0.729,0,1.348-0.236,1.916-0.603l0.461,0.854c-0.666,0.429-1.49,0.793-2.535,0.793
		c-2.059,0-3.689-1.505-3.689-4.023C316.629,56.723,318.325,55.186,320.083,55.186z M322.016,58.655c0-1.567-0.697-2.438-1.9-2.438
		c-1.078,0-2.061,0.888-2.217,2.438H322.016z"/>
	<path d="M327.844,55.186c0.889,0,1.475,0.333,2.154,0.887l-0.064-1.314v-2.961h1.314v11.276h-1.076l-0.111-0.902h-0.047
		c-0.604,0.586-1.428,1.094-2.328,1.094c-1.934,0-3.186-1.457-3.186-4.023C324.502,56.739,326.086,55.186,327.844,55.186z
		 M327.971,62.172c0.713,0,1.33-0.35,1.963-1.062v-4.022c-0.648-0.586-1.234-0.809-1.867-0.809c-1.236,0-2.219,1.188-2.219,2.946
		C325.848,61.062,326.625,62.172,327.971,62.172z"/>
	<path d="M337.174,52.684h2.598c3.199,0,4.91,1.854,4.91,5.146c0,3.312-1.711,5.242-4.848,5.242h-2.66V52.684z M339.676,61.998
		c2.424,0,3.645-1.536,3.645-4.166c0-2.613-1.221-4.069-3.645-4.069h-1.188v8.235H339.676z"/>
	<path d="M346.915,52.684h1.363l3.754,6.524l1.125,2.153h0.063c-0.063-1.045-0.158-2.218-0.158-3.312v-5.368h1.25v10.39h-1.359
		l-3.771-6.542l-1.125-2.138h-0.063c0.08,1.045,0.174,2.153,0.174,3.247v5.433h-1.25V52.684H346.915z"/>
	<path d="M361.915,59.907h-3.785l-0.998,3.167h-1.346l3.516-10.39h1.488l3.518,10.39h-1.41L361.915,59.907z M361.583,58.844
		l-0.49-1.584c-0.381-1.155-0.715-2.296-1.047-3.5h-0.063c-0.316,1.204-0.648,2.345-1.029,3.5l-0.49,1.584H361.583z"/>
	<path d="M371.846,55.186c1.887,0,3.564,1.473,3.564,4.055c0,2.551-1.682,4.023-3.564,4.023c-1.885,0-3.563-1.474-3.563-4.023
		C368.284,56.659,369.961,55.186,371.846,55.186z M371.846,62.187c1.33,0,2.219-1.188,2.219-2.946c0-1.773-0.889-2.978-2.219-2.978
		c-1.314,0-2.217,1.203-2.217,2.978C369.629,61,370.532,62.187,371.846,62.187z"/>
	<path d="M377.438,55.377h1.076l0.111,1.395h0.047c0.523-0.966,1.314-1.584,2.188-1.584c0.332,0,0.568,0.047,0.822,0.159
		l-0.252,1.14c-0.254-0.079-0.428-0.126-0.744-0.126c-0.648,0-1.426,0.476-1.947,1.772v4.941h-1.301V55.377L377.438,55.377z"/>
	<path d="M297.463,82.083l-2.502-4.388h-1.885v4.388h-1.314V71.692h3.246c2.123,0,3.645,0.761,3.645,2.915
		c0,1.615-0.92,2.598-2.33,2.945l2.629,4.53H297.463L297.463,82.083z M293.077,76.618h1.742c1.615,0,2.518-0.664,2.518-2.011
		c0-1.361-0.901-1.854-2.518-1.854h-1.742V76.618z"/>
	<path d="M300.965,71.692h1.363l3.754,6.524l1.125,2.154h0.063c-0.063-1.046-0.158-2.218-0.158-3.312V71.69h1.25v10.391H307
		l-3.771-6.542l-1.125-2.139h-0.063c0.08,1.045,0.174,2.154,0.174,3.247v5.434h-1.25V71.692z"/>
	<path d="M315.965,78.915h-3.787l-0.998,3.168h-1.346l3.516-10.391h1.49l3.516,10.391h-1.41L315.965,78.915z M315.631,77.853
		l-0.49-1.584c-0.381-1.156-0.713-2.296-1.045-3.5h-0.063c-0.318,1.204-0.65,2.344-1.029,3.5l-0.492,1.584H315.631z"/>
	<path d="M322.903,77.679c0-2.788,0.775-5.068,2.092-7.19l0.809,0.381c-1.221,2.012-1.82,4.402-1.82,6.812
		c0,2.408,0.602,4.799,1.82,6.811l-0.809,0.381C323.678,82.748,322.903,80.468,322.903,77.679z"/>
	<path d="M328.241,81.813V81.75c-0.379-0.237-0.682-0.648-0.682-1.251c0-0.648,0.443-1.156,0.84-1.426V79.01
		c-0.508-0.411-0.998-1.155-0.998-2.074c0-1.68,1.33-2.74,2.898-2.74c0.426,0,0.809,0.079,1.092,0.189h2.678v0.998h-1.584
		c0.363,0.35,0.633,0.936,0.633,1.584c0,1.646-1.25,2.678-2.818,2.678c-0.381,0-0.809-0.096-1.156-0.271
		c-0.27,0.237-0.49,0.49-0.49,0.919c0,0.49,0.316,0.839,1.361,0.839h1.488c1.791,0,2.693,0.555,2.693,1.837
		c0,1.427-1.504,2.661-3.896,2.661c-1.885,0-3.184-0.745-3.184-2.074C327.118,82.906,327.543,82.289,328.241,81.813z
		 M330.491,84.727c1.473,0,2.438-0.761,2.438-1.568c0-0.713-0.553-0.949-1.551-0.949h-1.33c-0.301,0-0.666-0.032-0.998-0.127
		c-0.555,0.396-0.793,0.854-0.793,1.299C328.256,84.206,329.096,84.727,330.491,84.727z M331.932,76.935
		c0-1.125-0.729-1.79-1.631-1.79s-1.631,0.666-1.631,1.79s0.744,1.837,1.631,1.837C331.186,78.772,331.932,78.059,331.932,76.935z"
		/>
	<path d="M338.346,74.195c1.965,0,3.074,1.41,3.074,3.611c0,0.269-0.016,0.521-0.047,0.713h-5.195
		c0.096,1.663,1.092,2.708,2.564,2.708c0.729,0,1.348-0.237,1.918-0.603l0.459,0.854c-0.666,0.428-1.49,0.792-2.535,0.792
		c-2.059,0-3.689-1.504-3.689-4.022C334.893,75.731,336.588,74.195,338.346,74.195z M340.28,77.664c0-1.567-0.697-2.438-1.902-2.438
		c-1.076,0-2.059,0.887-2.217,2.438H340.28z"/>
	<path d="M343.321,74.385h1.078l0.109,1.109h0.047c0.73-0.729,1.521-1.3,2.582-1.3c1.617,0,2.346,1.045,2.346,3.01v4.878h-1.301
		v-4.704c0-1.44-0.441-2.06-1.457-2.06c-0.791,0-1.33,0.412-2.105,1.188v5.575h-1.299V74.385L343.321,74.385z"/>
	<path d="M354.868,74.195c1.965,0,3.072,1.41,3.072,3.611c0,0.269-0.016,0.521-0.047,0.713h-5.195
		c0.096,1.663,1.094,2.708,2.564,2.708c0.73,0,1.348-0.237,1.918-0.603l0.459,0.854c-0.666,0.428-1.488,0.792-2.533,0.792
		c-2.061,0-3.691-1.504-3.691-4.022C351.415,75.731,353.11,74.195,354.868,74.195z M356.799,77.664c0-1.567-0.697-2.438-1.9-2.438
		c-1.076,0-2.059,0.887-2.217,2.438H356.799z"/>
	<path d="M359.842,75.446h-1.141v-0.981l1.203-0.08l0.156-2.153h1.096v2.153h2.074v1.063h-2.074v4.276
		c0,0.949,0.301,1.488,1.188,1.488c0.27,0,0.617-0.11,0.871-0.206l0.252,0.981c-0.428,0.144-0.949,0.285-1.424,0.285
		c-1.648,0-2.203-1.045-2.203-2.565L359.842,75.446L359.842,75.446z"/>
	<path d="M364.737,71.962c0-0.507,0.396-0.839,0.902-0.839s0.902,0.333,0.902,0.839c0,0.491-0.396,0.84-0.902,0.84
		S364.737,72.453,364.737,71.962z M364.973,74.385h1.301v7.698h-1.301V74.385z"/>
	<path d="M372.006,74.195c1.014,0,1.727,0.429,2.25,0.919l-0.648,0.84c-0.459-0.396-0.936-0.682-1.553-0.682
		c-1.395,0-2.408,1.204-2.408,2.979c0,1.758,0.967,2.945,2.377,2.945c0.729,0,1.346-0.364,1.805-0.775l0.586,0.854
		c-0.695,0.618-1.584,0.998-2.502,0.998c-2.043,0-3.609-1.474-3.609-4.022C368.299,75.669,370.028,74.195,372.006,74.195z"/>
	<path d="M291.635,93.392h1.078l0.111,1.108h0.047c0.664-0.729,1.473-1.299,2.392-1.299c1.172,0,1.806,0.554,2.122,1.473
		c0.809-0.87,1.602-1.473,2.535-1.473c1.582,0,2.344,1.045,2.344,3.009v4.878h-1.299v-4.704c0-1.44-0.459-2.06-1.426-2.06
		c-0.604,0-1.221,0.396-1.934,1.188v5.574h-1.299v-4.704c0-1.44-0.459-2.06-1.44-2.06c-0.569,0-1.221,0.396-1.933,1.188v5.574
		h-1.299V93.392L291.635,93.392z"/>
	<path d="M309.122,96.213c0-0.981-0.332-1.933-1.584-1.933c-0.902,0-1.693,0.412-2.295,0.824l-0.521-0.903
		c0.711-0.459,1.789-0.997,3.023-0.997c1.885,0,2.678,1.251,2.678,3.168v4.72h-1.076l-0.111-0.918h-0.031
		c-0.744,0.603-1.602,1.107-2.549,1.107c-1.301,0-2.268-0.808-2.268-2.187C304.387,97.416,305.844,96.576,309.122,96.213z
		 M307.016,100.235c0.744,0,1.361-0.363,2.105-1.028v-2.139c-2.582,0.316-3.453,0.95-3.453,1.933
		C305.67,99.871,306.256,100.235,307.016,100.235z"/>
	<path d="M313.098,94.455h-1.141v-0.981l1.205-0.08l0.158-2.154h1.092v2.154h2.076v1.063h-2.076v4.275
		c0,0.95,0.301,1.488,1.188,1.488c0.271,0,0.617-0.11,0.871-0.205l0.252,0.981c-0.428,0.144-0.949,0.284-1.424,0.284
		c-1.646,0-2.203-1.045-2.203-2.565L313.098,94.455L313.098,94.455z"/>
	<path d="M320.956,93.203c1.963,0,3.072,1.409,3.072,3.61c0,0.27-0.016,0.521-0.047,0.713h-5.195
		c0.096,1.663,1.094,2.708,2.564,2.708c0.73,0,1.348-0.236,1.918-0.603l0.459,0.854c-0.666,0.429-1.488,0.792-2.533,0.792
		c-2.061,0-3.691-1.504-3.691-4.022C317.502,94.739,319.198,93.203,320.956,93.203z M322.887,96.672c0-1.567-0.695-2.438-1.9-2.438
		c-1.076,0-2.059,0.888-2.217,2.438H322.887z"/>
	<path d="M325.928,93.392h1.078l0.111,1.395h0.047c0.52-0.967,1.313-1.584,2.186-1.584c0.332,0,0.57,0.047,0.824,0.157l-0.254,1.142
		c-0.252-0.079-0.428-0.127-0.744-0.127c-0.648,0-1.426,0.477-1.947,1.773v4.94h-1.299L325.928,93.392L325.928,93.392z"/>
	<path d="M331.186,90.969c0-0.507,0.396-0.839,0.904-0.839c0.506,0,0.902,0.333,0.902,0.839c0,0.491-0.396,0.841-0.902,0.841
		C331.583,91.809,331.186,91.461,331.186,90.969z M331.424,93.392h1.299v7.697h-1.299V93.392z"/>
	<path d="M339.676,96.213c0-0.981-0.332-1.933-1.584-1.933c-0.902,0-1.693,0.412-2.295,0.824l-0.521-0.903
		c0.711-0.459,1.789-0.997,3.023-0.997c1.885,0,2.678,1.251,2.678,3.168v4.72h-1.076l-0.111-0.918h-0.031
		c-0.744,0.603-1.602,1.107-2.551,1.107c-1.299,0-2.266-0.808-2.266-2.187C334.942,97.416,336.399,96.576,339.676,96.213z
		 M337.571,100.235c0.746,0,1.361-0.363,2.105-1.028v-2.139c-2.582,0.316-3.453,0.95-3.453,1.933
		C336.225,99.871,336.809,100.235,337.571,100.235z"/>
	<path d="M343.432,89.813h1.299v9.819c0,0.412,0.174,0.57,0.363,0.57c0.08,0,0.145,0,0.285-0.032l0.174,0.981
		c-0.174,0.079-0.395,0.126-0.744,0.126c-0.98,0-1.377-0.617-1.377-1.741V89.813L343.432,89.813z"/>
	<path d="M348.594,96.687c0-2.407-0.602-4.799-1.82-6.812l0.809-0.38c1.313,2.121,2.092,4.402,2.092,7.189s-0.775,5.067-2.092,7.19
		l-0.809-0.38C347.993,101.486,348.594,99.094,348.594,96.687z"/>
</g>
<g>
	<path fill="none" stroke="#626262" stroke-miterlimit="10" d="M204.511,8.058c62.448,0,124.896,0.104,187.341-0.141
		c7.373-0.029,9.775,1.677,9.762,8.821c-0.242,104.807-0.238,209.608-0.002,314.411c0.016,7.108-2.328,8.854-9.736,8.841
		c-125.144-0.19-250.288-0.184-375.43-0.011c-7.042,0.008-9.381-1.683-9.367-8.463c0.21-105.031,0.21-210.066,0-315.102
		c-0.014-6.757,2.27-8.515,9.344-8.49C79.119,8.153,141.815,8.058,204.511,8.058z"/>
	<path fill="none" stroke="#626262" stroke-miterlimit="10" d="M87.704,336.095c0.179,0.077,0.357,0.156,0.537,0.234
		c0.094-0.168,0.188-0.335,0.281-0.504"/>
	<path fill="none" stroke="#626262" stroke-miterlimit="10" d="M88.522,335.827c-0.094,0.169-0.187,0.336-0.281,0.504
		c-0.179-0.078-0.358-0.157-0.537-0.234"/>
	<path fill="none" stroke="#626262" stroke-miterlimit="10" d="M11.733,214.111c-0.531-0.491-1.063-0.982-1.594-1.476
		C10.67,213.129,11.202,213.62,11.733,214.111z"/>
</g>
</svg>
