<?xml version="1.0" encoding="utf-8"?>
<!-- Generator: Adobe Illustrator 15.0.0, SVG Export Plug-In . SVG Version: 6.00 Build 0)  -->
<!DOCTYPE svg PUBLIC "-//W3C//DTD SVG 1.1//EN" "http://www.w3.org/Graphics/SVG/1.1/DTD/svg11.dtd">
<svg version="1.1" id="Layer_1" xmlns="http://www.w3.org/2000/svg" xmlns:xlink="http://www.w3.org/1999/xlink" x="0px" y="0px"
	 width="215.929px" height="285.446px" viewBox="-13.914 -19.308 215.929 285.446"
	 enable-background="new -13.914 -19.308 215.929 285.446" xml:space="preserve">
<g>
	<g>
		<path fill="#FEFEFE" d="M95.174-17.133c32.651,0,65.311,0.232,97.96-0.19c6.728-0.088,8.09,1.307,8.072,7.752
			c-0.28,87.513-0.188,175.026-0.188,262.536c-7.302,1.056-7.456-4.758-8.437-8.822c-2.699-11.188-6.359-22.065-10.259-32.896
			c-6.038-16.764-16.992-29.981-31.236-41.054c-3.658-2.844-8.841-1.854-11.932-5.405c-3.917-2.69-2.889-7.264-4.508-10.823
			c-0.325-1.607,0.014-3.141,0.555-4.637c0.61-1.542,1.835-2.923,1.376-4.802c-4.562-15.677-3.131-31.239,1.368-46.541
			c5.521-18.791-3.45-34.125-11.861-49.7c-2.563-4.749-6.526-8.745-8.206-13.98c1.616-6.005-3.434-9.447-5.859-13.871
			c-5.096-9.3-9.487-19.041-17.583-26.523C92.231-9.921,93.273-13.554,95.174-17.133z"/>
		<path fill="#FEFEFE" d="M201.014,263.77c0.771,3.449-2.01,2.113-3.377,2.116c-68.311,0.052-136.617-0.019-204.926,0.179
			c-4.837,0.016-5.777-0.896-5.766-5.534c0.184-90.755,0.184-181.508,0-272.259c-0.011-4.64,0.922-5.603,5.767-5.545
			c24.391,0.306,48.789,0.143,73.186,0.143c1.302,1.738,1.459,3.74,1.469,5.784c-0.404,3.868-4.215,5.616-5.862,8.714
			c-0.581,0.829-1.183,1.639-1.779,2.456c-5.155,7.782-3.867,14.587,3.4,20.439c2.153,1.736,3.159,3.813,2.7,6.505
			c-6.075,7.389-13.948,12.458-22.659,16.638c-12.196,5.85-20.439,14.664-21.346,28.424c0.491,1.034,0.699,2.1,0.721,3.225
			c-1.125,7.135-6.063,11.606-11.793,15.508c-1.433,0.279-2.882,0.577-4.03,1.551c-1.386,1.173-2.411,2.588-3.044,4.271
			c-0.633,5.286,1.593,9.751,4.3,14.071c4.655,3.615,9.317,7.223,11.591,12.817c0.845,3.441,3.441,6.399,2.993,10.185
			c-1.401,4.601,1.146,9.229-0.087,13.823c-0.458,5.811-3.77,11.293-2.182,17.337c0.861,1.826,2.686,2.82,3.994,4.248
			c3.153,2.873,3.423,7.837,7.772,9.845c6.349,4.205,13.212,7.225,20.872,8.465c6.465,0.618,13.084,0.715,18.28,5.329
			c0.957,0.784,1.642,1.749,2.112,2.864c1.599,4.408-1.25,7.51-3.478,10.799c-8.565,12.649-18.295,24.54-26.5,37.415
			c-2.472,3.881-7.719,7.758-5.557,12.235c2.354,4.87,8.732,2.52,13.327,2.532c43.792,0.163,87.589,0.021,131.383,0.151
			C189.137,258.516,196.197,257.646,201.014,263.77z"/>
		<path fill="#AFAFAF" d="M201.014,263.77c-59.553,0-119.104,0-178.723,0c16.288-23.442,32.139-46.256,47.988-69.067
			c-0.41-2.4-0.096-4.589,1.98-6.262c2.064-1.293,4.352-1.272,6.667-1.031c10.836,3.473,6.295,12.081,7.135,19.037
			c6.638-5.396,15.282-6.414,23.366-8.921c11.396-3.54,22.681-7.46,28.463-18.862c0.951-2.772,0.877-5.545,0.021-8.339
			c-0.495-3.631-1.599-7.589,4.438-7.749c19.936,5.452,31.852,19.224,40.717,36.148c8.995,17.162,12.434,36.018,17.954,54.242
			C201.014,256.57,201.014,260.17,201.014,263.77z"/>
		<path fill="#DCDCDC" d="M63.649-12.776c0.749-1.452,1.5-2.905,2.249-4.356c0.75,0,1.5,0,2.252,0c4.503,1.71,9.006,1.71,13.511,0
			c3.003,0,6.004,0,9.008,0c3.661,2.217,6.69,5.039,8.956,8.599c10.252,12.371,19.425,25.278,22.475,41.26
			c-3.143,4.195-7.04,2.691-10.984,1.42c-6.664-2.146-12.714-5.839-19.709-7.134c-4.894-1.436-5.767-5.469-6.63-9.476
			c0.043-3.113,2.104-5.208,4.216-7.266c-2.464,2.163-4.002,5.332-7.738,5.964c-1.643,0.046-3.265-0.022-4.868-0.409
			c-1.6-0.567-2.803-1.562-3.614-2.986c-0.923-1.654-0.804-4.173-3.882-4.032C58.875,4.236,58.599,3.066,63.649-12.776z"/>
		<path fill="#D0D0D0" d="M99.627-8.534c-3.707-2.174-6.676-5.058-8.956-8.599c1.499,0,3.002,0,4.504,0
			C96.66-14.268,98.145-11.4,99.627-8.534z"/>
		<path fill="#BFBFBF" d="M81.662-17.133c-4.504,2.725-9.007,2.643-13.511,0C72.655-17.133,77.159-17.133,81.662-17.133z"/>
		<path fill="#747474" d="M92.715,24.136c11.035-1.041,19.738,5.263,29.389,8.588c11.311,13.764,18.173,29.428,22.072,46.469
			c3.425,14.965-4.814,28.77-4.245,43.52c0.217,5.684-2.118,11.952,2.83,16.146c4.081,3.45-2.373,4.245-0.746,6.5
			c-1.107,4.613-6.148,2.935-8.805,5.09c-5.552,1.338-8.407-1.964-10.911-5.844c-0.923-1.472-1.422-3.116-2.063-4.695
			c-1.36-6.074,2.037-12.001,0.645-18.121c-1.044-4.592-3.181-7.84-8.44-4.896c-7.845,4.392-14.349,1.191-20.956-2.512
			c-2.118-1.65-4.134-3.407-6.252-5.061c-2.324-2.453-6.822-2.333-7.949-6.202c0.516-8.221,6.649-14.247,9.16-21.747
			c5.117-15.287,6.901-30.583,3.164-46.426C88.73,31.255,87.893,26.716,92.715,24.136z"/>
		<path fill="#DDDDDD" d="M144.365,181.705c-8.247,11.483-20.461,18.099-33.726,21.505c-12.956,3.33-24.676,8.817-37.597,14.325
			c5.297-8.804,10.708-17.11,6.368-27.23c-2.353-2.272-2.299-4.749-0.693-7.357c1.601-2.153,3.622-3.954,5.525-5.848
			c4.514-3.641,9.477-6.627,14.761-9.125c10.388-3.428,21.243-5.856,29.867-13.019c2.636-2.72,5.64-3.182,9.011-1.354
			c1.489,2.988,2.977,5.977,4.462,8.973c-1.964,2.686-0.269,4.426,1.709,6.096C147.169,172.947,146.507,177.31,144.365,181.705z"/>
		<path fill="#DCDCDC" d="M137.883,153.602c-2.041,1.428-4.078,2.858-6.117,4.286c-11.196,2.849-20.777,10.683-33.167,9.899
			c-2.876-1.94-3.671-4.652-3.273-7.846c6.458-14.612,16.493-20.537,29.279-17.328c2.88,1.561,5.762,3.117,8.645,4.675
			c1.345,1.198,3.652,0.33,4.758,2.045C137.964,150.753,137.921,152.177,137.883,153.602z"/>
		<path fill="#989898" d="M138.005,149.33c-1.585-0.681-3.172-1.363-4.759-2.043c2.923-0.643,5.849-1.287,8.771-1.931
			c1.926,0.669,3.852,1.336,5.782,2c-0.014,0.658-0.024,1.317-0.034,1.972C144.511,149.33,141.258,149.33,138.005,149.33z"/>
		<path fill="#757575" d="M16.801,70.831c0.103-12.051,6.084-21.37,15.987-27.873c9.699-6.372,20.282-11.503,30.479-17.177
			c0.913-1.704,1.779-3.445,3.771-4.274c5.349-1.278,10.689-1.514,16.015,0.071c3.677,1.386,5.07,4.87,5.778,7.792
			c5.407,22.335,2.882,43.941-8.147,64.354c-1.308,2.417-3.508,5.186-6.784,6.222c-5.042,1.352-9.766-0.992-14.666-1.226
			c-1.037-0.386-1.972-0.965-2.779-1.698c-2.705-2.17-5.012-4.86-8.339-6.309c-1.8-0.816-3.755-1.39-5.103-2.937
			c-0.813-1.121-1.691-2.199-2.279-3.454c-0.708-1.52-0.572-3.177-0.818-4.773c-0.137,1.868-1.228,3.125-2.824,4.066
			C27.176,83.965,24.024,74.427,16.801,70.831z"/>
		<path fill="#DDDDDD" d="M72.889,190.3c-0.871,1.468-1.74,2.937-2.61,4.404l0.169-0.019c-6.556-3.025-13.907,0.692-20.473-2.22
			c-7.994-1.214-14.39-5.252-20.098-10.493c-1.681-1.52-3.779-2.785-3.688-5.419c0.603-3.194,2.866-5.603,5.909-5.423
			c13.302,0.796,25.198-4.695,37.754-7.174c3.566,0.918,6.136,3.296,8.839,5.481c0.708,0.892,1.144,1.904,1.352,2.997
			C79.103,178.906,82.542,187.02,72.889,190.3z"/>
		<path fill="#E9E9E9" d="M16.327,144.949c3.038-3.175-0.146-7.511,2.179-10.821c2.795-2.37,5.493-2.029,7.359,0.864
			c3.353,5.206,8.056,4.998,13.238,3.585c1.133,0.021,2.209,0.256,3.251,0.68c4.581,6.663,13.118,5.008,19.263,8.425
			c1.954,1.813,2.812,4.001,2.541,6.592c-10.246,16.645-37.162,19.583-48.712,5.326C15.547,154.705,14.18,149.731,16.327,144.949z"
			/>
		<path fill="#E2E2E2" d="M16.528,160.015c16.638,8.609,30.853,1.685,44.878-6.446c8.939-1.871,10.99,3.216,11.188,10.187
			c-0.448,1.177-1.229,2.099-2.334,2.771c-12.513,9.784-27.831,9.38-42.646,10.813c-5.42,0.875-6.359-4.217-9.404-6.502
			c-0.617-1.425-1.233-2.854-1.855-4.278C14.793,164.334,14.701,162.152,16.528,160.015z"/>
		<path fill="#D7D7D7" d="M16.801,70.831c10.997-3.159,14.177,6.146,19.86,11.463c4.715-0.246,4.709,3.041,4.985,6.122
			c-0.662,2.386-1.771,4.542-3.502,6.385c-3.248,1.83-6.921,2.451-10.471,3.411c-2.857,0.149-5.751,0.518-8.364-1.071
			c-2.724-3.141-3.406-6.912-3.547-10.855c1.117-4.039,2.916-8.026,0.888-12.267C16.697,72.954,16.749,71.893,16.801,70.831z"/>
		<path fill="#F4F4F4" d="M2.819,116.834c-3.155-7.783-4.324-15.881-4.163-24.194c2.48-1.23,5.237-0.5,7.823-1.042
			c5.149-0.714,7.304,3.702,10.803,5.806c0.823,0.6,1.519,1.319,2.05,2.17c1.239,3.221,2.974,6.173,5.281,8.815
			c0.965,1.219,1.975,2.398,2.902,3.653c1.423,4.262,1.87,8.384-1.87,11.895c-0.935,0.606-1.963,0.976-3.082,1.112
			c-2.458-0.03-3.911-1.556-5.236-3.259C14.253,115.405,10.15,111.768,2.819,116.834z"/>
		<path fill="#C1C1C1" d="M65.905,23.96c-0.877,0.607-1.757,1.216-2.634,1.821c-12.164-12.06-13.833-19.895-6.36-29.83
			c3.904,1.889,2.773,6.145,4.601,9.01c2.05,4.236,6.798,5.86,9.746,9.237C77.554,21.529,68.243,20.976,65.905,23.96z"/>
		<path fill="#B5B5B5" d="M18.629,121.123c1.508,0.706,3.016,1.414,4.526,2.118c5.963,6.136,14.85,10.025,16.328,19.598
			c-10.332,4.507-13.908-5.975-20.978-8.706c-0.821-3.57-1.64-7.135-2.461-10.702C15.524,121.235,16.488,120.572,18.629,121.123z"/>
		<path fill="#DEDEDE" d="M16.145,99.68c-3.712-1.361-7.425-2.72-11.138-4.078c-0.555-2.375-5.145-3.786-1.842-7.085
			c0.688-0.68,1.375-1.356,2.063-2.034c4.458-1.192,8.916-2.279,13.364,0.036c0.738,2.854,3.555,5.714-0.024,8.555
			C18.656,97.045,18.33,98.81,16.145,99.68z"/>
		<path fill="#C6C6C6" d="M75.013,11.095c0.921,0.776,1.846,1.555,2.77,2.332c0.252,1.156-0.099,2.107-1.05,2.854
			c-2.753,1.474-5.465-0.151-8.197-0.109c-6.722-4.66-9.634-11.068-9.428-18.91c-0.019-0.528-0.035-1.054-0.051-1.582
			c0.841-3.166,2.12-6.111,4.597-8.458c0.113,4.266-0.096,8.567,0.431,12.786c0.502,4.016,2.436,6.234,6.417,2.333
			C77.12,2.829,73.972,7.958,75.013,11.095z"/>
		<path fill="#D2D2D2" d="M18.629,121.123c-0.859,0.771-1.719,1.537-2.58,2.306c-2.002-6.642-8.799-4.436-13.231-6.592
			C11.076,109.276,12.726,109.724,18.629,121.123z"/>
		<path fill="#C1C1C1" d="M18.593,86.519c-4.456-0.011-8.909-0.024-13.364-0.036C10.934,83.928,17.384,82,16.642,74.015
			C19.162,77.916,18.416,82.284,18.593,86.519z"/>
		<path fill="#C1C1C1" d="M16.528,160.015c-0.057,2.181-0.114,4.359-0.17,6.537c-3.405-7.196-3.306-14.396-0.029-21.603
			C16.395,149.974,16.461,154.992,16.528,160.015z"/>
		<path fill="#B5B5B5" d="M3.167,88.517c0.84,2.307,3.028,4.291,1.842,7.083c-2.118-0.984-4.236-1.967-6.353-2.958
			C-0.809,90.291-0.363,87.851,3.167,88.517z"/>
		<path fill="#C9C9C9" d="M18.211,170.833c3.134,2.168,6.269,4.332,9.404,6.502c0.753,1.542,1.507,3.087,2.261,4.636
			C24.032,180.146,20.198,176.38,18.211,170.833z"/>
		<path fill="#B8B8B8" d="M49.974,192.466c6.845,0.562,14-1.501,20.473,2.222C63.602,194.12,56.454,196.123,49.974,192.466z"/>
		<path fill="#BABABA" d="M59.031,6.613c-2.174-3.286-2.106-6.982-2.123-10.664c0.707-0.136,1.423-0.223,2.146-0.266
			c0-0.001,0.051,0.118,0.051,0.118C60.856-0.583,60.989,3.021,59.031,6.613z"/>
		<path fill="#B0B0B0" d="M72.889,190.3c5.747-5.753,4.368-9.672-3.563-11.717c1.468-3.721,5.78-3.131,7.847-5.523
			c5.366-5.28,11.098-9.691,19.569-7.575c2.137,1.264,3.055,3.168,3.136,5.509c-4.582,2.868-9.164,5.73-13.744,8.596
			c-2.778,0.166-4.236,1.613-4.48,4.236c-0.747,2.16-1.494,4.319-2.243,6.482C77.236,190.302,75.062,190.302,72.889,190.3z"/>
		<path fill="#9D9D9D" d="M144.365,181.705c-0.1-4.343-0.199-8.69-0.306-13.038C147.75,172.934,147.554,177.287,144.365,181.705z"/>
		<path fill="#050505" d="M77.721,15.094c0.017-0.557,0.034-1.112,0.062-1.667c1.294-0.242,2.591-0.485,3.887-0.728
			c3.154-1.268,5.397-0.404,6.713,2.636c0.745,3.25,1.798,6.361,4.332,8.801c7.745,28.458,4.791,55.309-13.041,79.923
			c0.641,1.186,0.692,2.4,0.154,3.641c-0.41,0.592-0.75,1.275-1.319,1.681c-4.361,3.079-9.297,5.961-13.338,0.403
			c-4.641-6.384,1.071-9.355,5.787-12.261c17.41-22.755,20.221-47.428,10.515-73.739C78.617,21.526,75.844,19.235,77.721,15.094z"/>
		<path fill="#C2C2C2" d="M88.383,15.336c-2.238-0.879-4.473-1.76-6.713-2.638c0.577-0.455,1.434-0.796,1.687-1.376
			c2.833-6.535,7.302-8.043,14.139-3.914C94.374,10.125,91.377,12.729,88.383,15.336z"/>
		<path fill="#BDBDBD" d="M75.013,11.095C73.505,8.177,72,5.258,70.498,2.342c1.279-2.802,3.426-5.148,6.592-3.55
			c2.991,1.509,0.302,4.335,0.026,6.499C76.865,7.277,75.748,9.165,75.013,11.095z"/>
		<path fill="#DDDDDD" d="M97.419,166.854c-6.24,3.598-12.738,6.417-20.247,6.204c0.008-0.691,0.017-1.376,0.028-2.061
			c-2.253-2.271-5.29-3.81-6.833-6.741c-2.986-3.563-5.975-7.124-8.959-10.688c-0.749-1.413-1.501-2.822-2.251-4.24
			c-3.615-6.763,2.036-12.311,2.632-18.515c2.533-2.552,4.66-5.463,7.295-7.942c8.937-2.398,13.827-11.958,23.854-12.429
			c6.743,1.768,12.957,6.439,19.504-2.231c4.063-5.378,12.465-1.656,13.907,5.829c1.573,8.188,1.577,16.499-2.229,24.353
			c-2.581,4.51-5.608,8.396-11.875,7.536c-4.242-0.584-5.929,1.921-6.874,5.234c-1.178,4.124-3.151,7.836-5.988,11.123
			c0.1,1.418,0.199,2.832,0.299,4.251C99.022,167.271,98.267,167.376,97.419,166.854z"/>
		<path fill="#B3B3B3" d="M92.939,110.438c-7.18,5.478-12.371,13.696-22.54,15.063c-4.76-5.204-1.471-8.126,3.244-10.659
			c1.522-1.18,2.665-2.832,4.55-3.585c2.897-2.484,6.298-4.035,10.053-4.921C89.81,107.706,91.374,109.072,92.939,110.438z"/>
		<path fill="#BABABA" d="M99.378,162.284c1.594-3.975,3.353-7.895,4.736-11.938c1.58-4.63,2.697-8.657,9.781-6.439
			c4.226,1.323,6.893-3.43,10.223-5.512c0.163,1.406,0.323,2.814,0.483,4.221C113.433,145.91,105.435,152.952,99.378,162.284z"/>
		<path fill="#D2D2D2" d="M88.244,106.335c-2.194,2.796-4.39,5.59-6.585,8.384c-6.6-1.578-3.69-5.545-2.48-9.086
			c0.035-0.562,0.203-1.086,0.498-1.575C82.92,103.471,85.66,104.628,88.244,106.335z"/>
		<path fill="#BEBEBE" d="M118.079,93.436c-1.178,0.924-2.19,1.813-3.328,2.519c-0.191,0.12-0.929-0.569-1.412-0.884
			c0.949-0.946,1.86-1.935,2.897-2.785C116.358,92.186,117.166,92.854,118.079,93.436z"/>
		<path fill="#8A8A8A" d="M136.41,74.737c-0.392,0.536-0.679,1.221-1.203,1.516c-0.267,0.153-0.965-0.397-1.469-0.632
			c0.379-0.525,0.655-1.208,1.18-1.517C135.175,73.954,135.875,74.495,136.41,74.737z"/>
		<path fill="#B6B6B6" d="M97.419,166.854c0.75-0.107,1.508-0.214,2.258-0.315c11.226-1.056,20.187-9.854,32.082-8.648
			c-9.18,7.602-20.361,10.734-31.883,13.1C99.058,169.611,98.24,168.233,97.419,166.854z"/>
		<path fill="#D9D9D9" d="M81.657,183.825c-1.04-1.516-2.01-3.199-0.389-4.722c1.608-1.514,3.345-0.67,4.867,0.483
			C84.643,181.001,83.148,182.414,81.657,183.825z"/>
		<path fill="#AFAFAF" d="M79.178,105.634c0.35,3.148,0.297,6.398,2.48,9.085c-1.533,1.421-3.064,2.837-4.599,4.256
			c-1.621-1.681-3.702-2.116-5.98-2.012c-5.692,0.032-8.576-4.064-11.937-7.458c-0.843-5.474-1.629-10.954,0-16.433
			c4.674-0.317,8.097,2.428,11.815,4.45c-0.121,0.331-0.302,0.654-0.354,0.996c-0.554,3.593-8.462,5.839-2.568,10.451
			C72.886,112.766,75.832,107.965,79.178,105.634z"/>
		<path fill="#D8D8D8" d="M59.143,93.07c7.427,4.139,3.942,9.767,2.249,15.152c0.645,0.55,0.876,1.116,0.698,1.698
			c-0.183,0.592-0.375,0.889-0.58,0.892c-7.453,0.35-9.175-6.463-13.555-9.974c-1.33-2.713-0.911-5.301,0.58-7.813
			c0.732-0.823,1.645-1.406,2.71-1.761c2.292-0.355,4.172,0.842,6.184,1.558C58.009,92.837,58.581,92.921,59.143,93.07z"/>
		<path fill="#CFCFCF" d="M77.721,15.094c2.176,2.529,3.953,5.213,3.751,8.687c-5.188,0.06-10.379,0.121-15.567,0.179
			c-0.494-2.568,4.78-3.278,2.271-6.495c-0.59-0.493-0.783-0.986-0.585-1.477c0.198-0.49,0.396-0.738,0.595-0.738
			C71.362,15.2,74.542,15.146,77.721,15.094z"/>
		<path fill="#D8D8D8" d="M38.879,88.856c-0.741-2.189-1.478-4.373-2.219-6.563c1.046-1.768,2.092-3.542,3.14-5.312
			c3.522,2.237,3.781,6.373,5.945,9.401c2.436,1.621,3.785,3.819,0.682,5.55C43.08,93.803,40.262,92.461,38.879,88.856z"/>
		<path fill="#AEAEAE" d="M38.879,88.856c2.869,0.663,6.88,4.24,6.867-2.474c1.463-0.655,2.924-1.31,4.386-1.966
			c1.996,2.878,2.576,5.747-0.071,8.59h-0.024c-2.05,3.111-5.06,3.846-8.624,3.227c-1.993-0.515-3.681-1.428-4.59-3.328
			C37.506,91.557,38.194,90.207,38.879,88.856z"/>
		<path fill="#CECECE" d="M50.061,93.005c0.023-2.864,0.047-5.725,0.071-8.59c3.778,1.729,5.038,5.465,7.297,8.409
			C54.971,92.883,52.517,92.945,50.061,93.005z"/>
		<path fill="#BFBFBF" d="M70.368,164.254c3.05,1.524,5.917,3.221,6.831,6.739c-3.03-0.462-5.19-2.17-6.936-4.47
			C70.296,165.767,70.332,165.01,70.368,164.254z"/>
		<path fill="#AAAAAA" d="M50.241,99.438c4.723,2.701,7.719,7.023,11.133,10.95c3.396,2.608,5.713,5.775,5.759,10.132
			c-0.374,3.793,1.86,7.92-1.491,11.354c-2.162,5.817-4.323,11.637-6.486,17.454c-7.5,1.581-13.842,0.223-18.037-6.564
			c0.723-3.004,3.501-3.786,5.859-5.022c9.477-9.745,9.807-18.288,1.037-27.422c-0.824-1.876-2.008-3.57-3.024-5.358
			c-0.746-1.479-0.984-2.992-0.362-4.571C46.19,98.421,47.994,97.713,50.241,99.438z"/>
		<path fill="#EFEFEF" d="M49.977,142.625c-2.953,0.048-5.906,0.091-8.859,0.139c-0.549,0.004-1.095,0.03-1.638,0.075
			c-6.221-5.932-14.188-10.528-16.324-19.596c0-0.002-0.098,0.071-0.098,0.071c4.181-1.748,7.504,0.574,11.002,2.118
			c2.17,1.967,5.04,2.49,7.735,3.243C49.353,130.786,52.841,134.955,49.977,142.625z"/>
		<path fill="#B9B9B9" d="M16.145,99.68c-0.479-2.158-0.029-3.868,2.423-4.605c3.129-0.018,6.257-0.032,9.387-0.051
			c1.661-1.016,3.324-0.942,4.998-0.032c2.116,1.658,3.066,3.53,1.192,5.928c-5.787,2.502-11.636,3.256-17.609,0.593
			C16.446,100.892,16.314,100.284,16.145,99.68z"/>
		<path fill="#EEEEEE" d="M32.077,95.368c-1.375-0.114-2.75-0.227-4.124-0.343c2.958-0.705,5.91-1.412,8.865-2.119
			c1.352,0.095,2.704,0.193,4.053,0.287C39.361,99.211,35.585,96.797,32.077,95.368z"/>
		<path fill="#DDDDDD" d="M49.977,142.625c-3.055-8.146-12.94-8.732-17.835-14.843c-7.581-2.582-4.159-11.346-9.322-15.286
			c-0.645-0.725-1.291-1.447-1.935-2.173c0.58-1.664,1.189-3.308,2.832-4.334c4.07-1.596,8.354-0.82,12.546-1.034
			c5.389-0.221,10.702,0.556,16.024,1.191c5.837,7.191,7.558,15.399,6.792,24.328C58.572,136.378,56.242,140.799,49.977,142.625z"/>
		<path fill="#D1D1D1" d="M23.407,107.698c-0.843,0.875-1.681,1.751-2.522,2.625c-1.45-2.934-2.898-5.873-4.348-8.812
			c5.653-2.504,11.695-1.903,17.64-2.05c4.74-3.281,8.601-2.118,11.845,2.15c0.758,0.702,1.514,1.407,2.271,2.109
			c-1.996,2.846-5.121,2.101-7.946,2.302C34.637,105.959,28.917,105.834,23.407,107.698z"/>
		<path fill="#C9C9C9" d="M22.821,112.494c5.807,3.58,5.03,10.854,9.322,15.286c-3.029-1.487-6.057-2.973-9.085-4.465
			C25.285,119.665,23.993,116.081,22.821,112.494z"/>
		<path fill="#D9D9D9" d="M68.184,15.252c-0.003,0.74-0.008,1.476-0.012,2.214c-6.131-1.226-6.873-6.626-9.14-10.852
			c0.024-3.604,0.048-7.209,0.073-10.813C61.837,2.412,63.89,9.314,68.184,15.252z"/>
		<path fill="#D2D2D2" d="M65.642,131.874c-0.554-3.68-1.102-7.354-1.655-11.029c1.27-3.748,4.219-5.29,8.061-5.656
			c2.464,0.294,4.174,1.51,5.014,3.785c-4.665-0.121-5.6,3.267-6.662,6.528C71.601,129.542,68.51,130.632,65.642,131.874z"/>
		<path fill="#E9E9E9" d="M72.048,115.187c-2.688,1.885-5.377,3.773-8.063,5.658c-0.868-3.488-1.74-6.972-2.61-10.455
			c0.007-0.721,0.012-1.444,0.019-2.166C64.943,110.544,68.496,112.867,72.048,115.187z"/>
		<path fill="#CECECE" d="M46.023,101.613c-3.947-0.716-7.893-1.434-11.843-2.151c-0.7-1.365-1.403-2.73-2.102-4.093
			c3.064-0.227,6.186-0.264,8.799-2.173c3.055-0.062,6.109-0.124,9.162-0.187c2.256,2.079,2.588,4.217,0.205,6.431
			C48.835,100.162,47.429,100.887,46.023,101.613z"/>
		<path fill="#CECECE" d="M38.19,104.158c3.364-0.145,6.729-0.289,10.102-0.436c1.334,0.806,2.667,1.614,3.999,2.421
			c-5.137,2.123-10.521,2.295-15.983,1.874C35.17,105.937,36.911,105.151,38.19,104.158z"/>
		<path fill="#686868" d="M40.813,122.938c-4.583,0.571-8.522,0.258-8.396-5.633c3.808-3.679,6.433-1.85,8.689,1.715l-0.073,0.107
			C42.451,120.478,42.454,121.751,40.813,122.938z"/>
		<path fill="#727272" d="M38.19,104.158c-0.627,1.286-1.254,2.574-1.881,3.859c-4.304-0.108-8.604-0.214-12.901-0.319
			C27.567,103.565,33.076,104.624,38.19,104.158z"/>
		<path fill="#A1A1A1" d="M40.813,122.938c0.073-1.271,0.147-2.541,0.22-3.81c2.291-0.428,5.882-3.244,6.583-0.097
			C48.675,123.759,43.813,122.646,40.813,122.938z"/>
		<path fill="#B1B1B1" d="M41.106,119.02c-2.735-1.326-5.588-2.102-8.689-1.717C36.81,110.893,39.492,112.464,41.106,119.02z"/>
	</g>
</g>
<g>
	<path fill="none" stroke="#626262" stroke-miterlimit="10" d="M94.141-18.687c34.019,0,68.036,0.088,102.056-0.121
		c4.018-0.025,5.326,1.43,5.318,7.53c-0.132,89.464-0.128,178.922-0.001,268.388c0.009,6.068-1.269,7.556-5.304,7.547
		c-68.173-0.165-136.349-0.158-204.522-0.012c-3.836,0.01-5.111-1.433-5.102-7.221c0.115-89.658,0.114-179.316,0-268.976
		c-0.009-5.766,1.236-7.266,5.088-7.247C25.833-18.607,59.988-18.687,94.141-18.687z"/>
	<path fill="none" stroke="#626262" stroke-miterlimit="10" d="M153.257,261.006c0.32,0.16,0.64,0.361,0.973,0.428 M30.509,261.329
		c0.097,0.068,0.194,0.134,0.292,0.201c0.051-0.143,0.102-0.285,0.154-0.427"/>
	<path fill="none" stroke="#626262" stroke-miterlimit="10" d="M129.804,263.321c1.107-2.706,2.215-2.706,3.322,0
		C132.019,263.321,130.911,263.321,129.804,263.321z"/>
	<path fill="none" stroke="#626262" stroke-miterlimit="10" d="M154.23,261.434c-0.333-0.066-0.652-0.268-0.973-0.428"/>
	<path fill="none" stroke="#626262" stroke-miterlimit="10" d="M30.955,261.101c-0.051,0.143-0.102,0.285-0.154,0.43
		c-0.097-0.07-0.194-0.136-0.292-0.201"/>
	<path fill="none" stroke="#626262" stroke-miterlimit="10" d="M-10.877,157.201c-0.29-0.418-0.579-0.841-0.868-1.257
		C-11.457,156.362-11.167,156.783-10.877,157.201z"/>
</g>
</svg>
