<?xml version="1.0" encoding="utf-8"?>
<!-- Generator: Adobe Illustrator 15.1.0, SVG Export Plug-In . SVG Version: 6.00 Build 0)  -->
<!DOCTYPE svg PUBLIC "-//W3C//DTD SVG 1.1//EN" "http://www.w3.org/Graphics/SVG/1.1/DTD/svg11.dtd">
<svg version="1.1" id="Layer_1" xmlns="http://www.w3.org/2000/svg" xmlns:xlink="http://www.w3.org/1999/xlink" x="0px" y="0px"
	 width="411.021px" height="227.191px" viewBox="0 0 411.021 227.191" enable-background="new 0 0 411.021 227.191"
	 xml:space="preserve">
<metadata><?xpacket begin="﻿" id="W5M0MpCehiHzreSzNTczkc9d"?>
<x:xmpmeta xmlns:x="adobe:ns:meta/" x:xmptk="Adobe XMP Core 5.0-c060 61.134777, 2010/02/12-17:32:00        ">
   <rdf:RDF xmlns:rdf="http://www.w3.org/1999/02/22-rdf-syntax-ns#">
      <rdf:Description rdf:about=""
            xmlns:dc="http://purl.org/dc/elements/1.1/">
         <dc:format>image/svg+xml</dc:format>
         <dc:title>
            <rdf:Alt>
               <rdf:li xml:lang="x-default">figure2-1</rdf:li>
            </rdf:Alt>
         </dc:title>
      </rdf:Description>
      <rdf:Description rdf:about=""
            xmlns:xmp="http://ns.adobe.com/xap/1.0/"
            xmlns:xmpGImg="http://ns.adobe.com/xap/1.0/g/img/">
         <xmp:MetadataDate>2015-02-25T16:31:12+02:00</xmp:MetadataDate>
         <xmp:ModifyDate>2015-02-25T16:31:12+02:00</xmp:ModifyDate>
         <xmp:CreateDate>2015-02-25T16:31:12+02:00</xmp:CreateDate>
         <xmp:CreatorTool>Adobe Illustrator CS5.1</xmp:CreatorTool>
         <xmp:Thumbnails>
            <rdf:Alt>
               <rdf:li rdf:parseType="Resource">
                  <xmpGImg:width>256</xmpGImg:width>
                  <xmpGImg:height>144</xmpGImg:height>
                  <xmpGImg:format>JPEG</xmpGImg:format>
                  <xmpGImg:image>/9j/4AAQSkZJRgABAgEAyQDJAAD/7QAsUGhvdG9zaG9wIDMuMAA4QklNA+0AAAAAABAAyQAAAAEA&#xA;AQDJAAAAAQAB/+4ADkFkb2JlAGTAAAAAAf/bAIQABgQEBAUEBgUFBgkGBQYJCwgGBggLDAoKCwoK&#xA;DBAMDAwMDAwQDA4PEA8ODBMTFBQTExwbGxscHx8fHx8fHx8fHwEHBwcNDA0YEBAYGhURFRofHx8f&#xA;Hx8fHx8fHx8fHx8fHx8fHx8fHx8fHx8fHx8fHx8fHx8fHx8fHx8fHx8fHx8f/8AAEQgAkAEAAwER&#xA;AAIRAQMRAf/EAaIAAAAHAQEBAQEAAAAAAAAAAAQFAwIGAQAHCAkKCwEAAgIDAQEBAQEAAAAAAAAA&#xA;AQACAwQFBgcICQoLEAACAQMDAgQCBgcDBAIGAnMBAgMRBAAFIRIxQVEGE2EicYEUMpGhBxWxQiPB&#xA;UtHhMxZi8CRygvElQzRTkqKyY3PCNUQnk6OzNhdUZHTD0uIIJoMJChgZhJRFRqS0VtNVKBry4/PE&#xA;1OT0ZXWFlaW1xdXl9WZ2hpamtsbW5vY3R1dnd4eXp7fH1+f3OEhYaHiImKi4yNjo+Ck5SVlpeYmZ&#xA;qbnJ2en5KjpKWmp6ipqqusra6voRAAICAQIDBQUEBQYECAMDbQEAAhEDBCESMUEFURNhIgZxgZEy&#xA;obHwFMHR4SNCFVJicvEzJDRDghaSUyWiY7LCB3PSNeJEgxdUkwgJChgZJjZFGidkdFU38qOzwygp&#xA;0+PzhJSktMTU5PRldYWVpbXF1eX1RlZmdoaWprbG1ub2R1dnd4eXp7fH1+f3OEhYaHiImKi4yNjo&#xA;+DlJWWl5iZmpucnZ6fkqOkpaanqKmqq6ytrq+v/aAAwDAQACEQMRAD8A9U4q7FXYq7FXYq7FXYq7&#xA;FUr8w+afLnlyzF7rupW+m2zsEje4kCc3P7KKfidvZQTirGYPzv8AyyuATBq0koXZillfMAfekGKq&#xA;rfnJ+XaKGk1GaNCKh3sb5FpWlSzQAAVHXFU+8u+b/K/mS3a40DVbXU446CX6tKkjRk9BIgPJDt0Y&#xA;DFU3xV2KuxV5r5j81axbecfMXlVrOXV473SLS/0vTYHihmeF5pLPURDJLxRpI1KShWYV6VFa4qkm&#xA;ha9+bPl7yNpdhrltoflaPSrWK0n1zXtQExkEKiNHW3tiE5FVWtbnriqH0/8AMLVxLpurWXnqHzNp&#xA;41bT7DWbKPTUsIUt9UdreGZGflLx9X4lb1Cpod8Ve24q7FXYq7FXYq7FXYq7FXYq7FXYq7FXYq7F&#xA;XYqwvzzqWpXWv6D5N028k0+TWxdXWpahbkC4isbJU5rAxrwkmlmjQPT4V5Eb0IVY3r+gXX5aT2Xm&#xA;vR9Y1K50EXVva+ZdJ1O8mvojbXUqwfW4WnMkkcsMkis1DRlrWlMVesYq7FXYq7FXYq800i50/wD5&#xA;Xn5hg1xEXVvqVkfKUk/7Vh6R+ti15bcxc8vV47lePYYq9LxV2KvMfzUsNFstc8tavpSra+e7jVbS&#xA;2sGtQFnu7RplF9FcBaGS3S25uxb7BAoRXFXp2KuxV2KpB5s8h+U/Nsdsmv2AumsmZ7SdJJbeeIuA&#xA;G9OeB4pVDUHIBqGm+KoXRfyt/L/Rpxc2WiW7Xijit7dc7y5AHYT3TTSgf7LFXll3JaW/5W+ZPK1n&#xA;azy6rp2t3umaItnay3Uhksbs6tpkUvoIzLGokRQx+Fa9t8VT3zFrHmW6srfUfPGpXPkzSrlhHp3l&#xA;bQ5Gn1m9lp9l7i3Vpa9/Tth8I+0/gqnn5W6tcLqOr+X31C51XTY4LLWvL1/fO8ty+m6qjlI5JJP3&#xA;knpTQSAM5LcSAemKs6vtT02wRZL67htEc8UeeRYwT1oCxGKohWVlDKQysKqw3BB7jFW8VdirsVYX&#xA;+a2r6zZaHp+n6NdjTtQ1/U7XR01I0LWyXJYySxhtjJ6aME/yiMVS/wD5UJ+W/wBX/wB5bv8AS3H/&#xA;AJSD67dfpP1OvrfWvU5c+XxU+zX9mm2Kpn+XOra0yar5a1+4+ua35buFtpNQK8Td2k0YltLplA4h&#xA;3jJSQD9tGxVV87eb9T0y7sNA8uWceo+atXEj2cE7MltbwQ8RNd3TL8QijLqOK/E7EKPEKsb12P8A&#xA;MPyZo0vmvUfOC6wLPg+o6PcWdta2UsbOFMdq8Q9eKX4/3ZeR+RoGHgq9QxV2KuxVh/nvyprN/qOi&#xA;+ZfLskK+YvLzzG3troslvd210qpc20joGZCwRWR+LcWA2pXFUh8w6V+Yfn2O30HVdHi8s+WvrEFx&#xA;rMz3kd3dXUdvKswtrdIV4orvGvJ3atP2cVemLJGzsisC6U5qCCRXcVHauKrsVdirsVdiqS+aPJnl&#xA;jzVaR2uv6fHfRQP6lu7Fklif+aKaMpJGfdGGKpGfyi8thDFHqevxWxBAtk13VfTCnqtDcHbFUM35&#xA;F/l7JI8lxHqdyzH4TLrGqsVH8oIuQafOuKsg8ueQfJ3lyaS40bSoba7lXhLenlLcula8WuJS8pWv&#xA;YtTFU/xV2KuxV2KuxV5tqXkb8wtP8469rHk3VtPs7LzMts1+moQyzPa3Nugga4to4yqOXiUVV2A5&#xA;DfFUB5p8kab5at9D8z3NxNquu2Wt6a2peYb4q9yYbqb6lIqUCrBAPrVfSiCrtU1PVVByat5q80fm&#xA;N+mvIMH1axXSm0jV9b1i1mhhglS59VRBBIYpLiaH96rLQIGO79sVSSyb8uD54tY77RJfPEN9dpo9&#xA;/wDmBqrx3duupyq7paW9uy+iEHHiWt1CoSFO+Ks7/JTT30XSfMXlhXd7Dy7rt1Y6WJGLslpJFDeQ&#xA;x8j/ACC644q9ExV2KuxVKPNXlXR/NGkNpeqrIYPUjnhmgkaGeGeFw8U0MqEMjowqGGKvOPJvlzTr&#xA;L82JovKaXa6botrPb+btWurme5/SGo3HpSW8LvMz+rLbJydm/Z58dsVZTosjTfm75paA0t7fSdHg&#xA;uh2NyZb6UU9xDIlfmMVQmm0f899cM4/eweXdOSzJ2IikvLppePiC6LU+wxVIvOnoWv5mw6n59s7q&#xA;58l262v+HLtP3ml2V6SRJLqMSHkJDIUEUsimNQexqQq9N8w69pnl/RL3WtUl9HT7CJpriQAseK9l&#xA;UbszHZQOpxVh+mfm2G8wado/mHy5qXlk62SuiXeoegYZ3A5CGQwySehMw+zG+56dcVZN5o85eW/K&#xA;9tBPrd59WF3J6FpCkck800pFeEUMKySyH/VU4qt8redvLXmmK4fRbszSWbLHe2ssctvcwO45Ks0E&#xA;6xypyHSq0PbFUs/NHV73T/LcENldNp82r6hY6U2pJTnbR3twsMkyEggOEYhCejEHFWJeZPIXkPyV&#xA;e+V9Q8uWR07zNPrFjYWs8EkjT3cFxcJ9fW75MxnX6oJXZnqVYA1GKvXMVdirsVQ2p6jZaZpt3qV9&#xA;KILKxhkubqZq0SKJS7safyqpOKsG0PXvzN84WkWraXBY+V9AuwJbBtRhlvtRngPxJK0McttDAJF6&#xA;Au5A64qmo8vfmGoRl83QtIPtiTS4jG21DRUmjYb7j48VQV5p352WvOTT9b0DU67rb3mnXVptvt6s&#xA;N3Pv034fRiqaeRfNt5r9pfQarYforX9GufqWr6eJBMiSmNJo5IpAF5RyxSq6kgHenbFWTYq7FXYq&#xA;7FXYq7FUp82+XLTzL5Z1PQLtikGpW8luZV3aNmHwSL0+KNqMPcYqxWT8tvMmtolp5081yatpCKBJ&#xA;pWnW36KiuSBT/S3Sa4nlU90WRFPcHFV/5mWWn2Hlvy5ZWkMVra2/mHy/FaW8aqiIqanAFWNRQCij&#xA;oO2KpHYeeNO8t/mD540Jba5v9c1HULS+0nRbROclwsumWsckvJiI4oxJC3OSRlUfcMVTTUNT/NOW&#xA;eaKx1by5a69FbteQeUHjmup5IloP3l19YtnA5MF9RbbiGI64qyHyj570bzBoug3pmjtb/XbMXkGm&#xA;O49b4VBnAQ0ZhE/wlqYqyTFXYq8Y8o+db/yjbav5Vm8uanqfnFtY1K5ggtraRYL2O8uWnhvHvHAt&#xA;44isoRmL1Xj9mvVV6D5C8sXuiaXcT6tMlz5i1m4bUNbuYhSM3EiqixRV39KCJEiSvULXqTiqTefN&#xA;C8x2XmrSPPfliz/SV9YQS6brWkB0ilu9OmcSj0XkKp6sEq81ViOVSK+KqC8y635n87+Xr7yxpHlj&#xA;UdKGswyWN/qutRw28NrbTqY5nSNZZJJ5eBPpqo41oS1MVVfzB8w+U7rQ9R8kJYX3mi/WBILjSNJS&#xA;RpYmAV4TcXScIbY8lVvjcHvxI2xVC+fdJ1Y/kFcDzLcK/mXSNKi1CS9FCy6pYos6MjKAORmj41Xr&#xA;X3xVNXbTZPzxEd/veW/l6KTQVk+yDLdzrqDRV/3ZwS2DU34+2KqWnC2u/wA8tVu9Oo0djoUNnrcs&#xA;dOJu5Loy20b06yRwq5PcKy17YqzTW9E0nXNKudJ1e1S9068T07m2lFVZa1HShBBAII3B3G+KpJ5f&#xA;/LXypoWpJqltFc3WpQxmC1vNRvLq/lghalYoGupJfSU034Ur3xVlGKuxV2KpN508ujzL5R1ny+Zf&#xA;QOq2U9os1KhGljKq5HfiTWmKsV0Tzp5406xt9O1vyFqTXVrGkLXOlT6fdWsvABPUQy3FrIqtSvFk&#xA;qMVRt9+ZOpWhQf4G8yXAeu8ENi4FPH/TBTFUDN51/NTUj6Og+RHsC+wv9fvbeCKPwZoLRrqZ/kKf&#xA;PFU78h+UNQ0GPUr/AFm/XVPMWu3C3erXkUQgh5RxJBFFDECeMcUUaqCxLNuT1xVlOKuxV2KuxV2K&#xA;uxV2KuxVg35zWmoyeSGv9NtZL6+0S/0/V4bSFPUlkFjeRTSCNe7ekrU8emKse8t22p3kk9t5B0Gb&#xA;ytpl0a6j5u1qFzfzgCii1trktPJQH4HuKRoPso3TFUX+W3kvy95f8/ebYLYTXd/D9RuDqF9I1xdt&#xA;9cgYSs0z/EfUe3qR0qNhiqD/ACO0Lypoei2N47sfMmtS6haW5umZpxbWV5MWt4Eb+7hj48mpsWIJ&#xA;JJXFXreKuxV2KuxV2KuxV5r+R2qac+hazp0rrH5kstZ1R/MUEhAm9eW8kdJnB3KNAYwrdKCg6Yqh&#xA;9d1RPzK8w23lfRD9Z8n6XdR3fmnWU3triS2cSQ6ZbyDaUmQK85U0VRStTTFWdeZfJ/lnzNBBDrun&#xA;x3q2z+rau3JZYnOxaKVCsiE9+LDFVfQfLuh+X9PXTtFsYbCyVmf0YFCgu32nY9WZu7NucVTGoqRX&#xA;cbkd6HFXYq7FXYq7FXYqtMkYkWMsBIwLKlRyKqQGIHgOQr88VWXF5aWyhrmeOBTWjSMqDbr9ojFV&#xA;UEMAQag7gjoRirsVdirsVdirsVdirsVdirgQRUGo8Riq2OSORecbB1NQGUgioNDuPfFV2KvPfMNz&#xA;qnln8x28wQaRf6tpetaQllcppkPryJeWE7yW5kUlAqyR3cihyaArvTriqY+SfK2pR6jd+bPMYA8x&#xA;ampihslYPDptlz5paREbF2NHncfbfp8KrirMcVdirsVcSFBJNANyT0AxVak0UiJJG6vHKAY3Ughg&#xA;RUFSOu2+KrsVY15g/LT8v/MWoLqWueX7HUL9QF+szQqZGVeiu37ajwaoxVP7KxsrC0is7G3jtbSB&#xA;eENvAixxoo/ZVFAVR8sVVsVeSeavy7/NjUdeurzSfM31KzklvXjT67epWKe1SK3h9BF9KPhIrfGh&#xA;5L/eL8ZOKsj/AC98oeaNE1XV77Xb5bz69FDDbgXVzdsohu72cVNyq8KRXkUQVdvgr3xVnGKuxV2K&#xA;uxV2KsJ/MHyj5o1rU9Fv/L99HYzacLhJ2kmuYeaTPA/Ei2KtIjfVyrKXXryB5KMVYJd/k1+Zmq27&#xA;xa3r0F7J9XaKOWS6u5VBa3ghCCF4xGvB4Hcyj45C55bjdV6/5b0240vQrLT7iQSzW0YjeRakEjwr&#xA;viqZYq7FXYq7FXYq7FXYq81/Nzyr+YmtTWp8p6jLYo8X1WVo724tuEkkoYXBSAKOMSrVqli2y8VH&#xA;LkqkV/8AlN+af1mN9M82PBahZRJai8vYUNbKOAIixDinqTq8hkA5Rn4lqzHFXTfk/wDmAY7i1j8w&#xA;yDS5Wu5YdOXULtI0e49OQI7GGSR09VGpxZDHXktashVej+RNF13RvLkGn65fyanqETOZb2WdrhpO&#xA;TcuXJo4WUEkkRnlwHwhmAGKsgxV2KuxV2KuxVh/5ieUNe8yQW8OlatJpsaw3kF5EskiJMs8B9HkE&#xA;7pcRxkmn2OYH2iCq86X8lfzPj0y2ih80GG506SMafAmoagIEgWzuraVAaVjaVpoirKtYl5BOi1Ve&#xA;n/l/oXmXRdFktfMOpHVb9pQ4umkklJVYYojUyBAvJ42fiigLyp8TcnZVk2KuxV2KuxV2KuxV2Kux&#xA;V2KuxV2KuxV2KuxV2KuxV2KuxV2KuxV2KuxV2KuxV2KuxV2KuxV2KuxV2KuxV2KuxV2KuxV2KuxV&#xA;2KuxV2KuxV2KuxV2KuxV2KuxV2KuxV2KuxV2KuxV2KuxV2KuxV2KuxV2KuxV2KuxV2KuxV2KuxV2&#xA;KuxV2KuxV2KuxV2KuxV2KuxV2KuxVBarrmiaRGkuq6hbafHISsb3U0cKsR1CmQrXFUj1r8yfLWl6&#xA;vFoy/WtT1aSFbo2Wl2s17JHbuaLNL6KsqI3bkantXFU50LX9J12wF9pc/rwB2ikBV45I5YzR4pYp&#xA;Askcin7SOoIxVMMVdirsVdirsVdirsVdirsVdirsVdirsVdirsVYT5613zHNrWmeTfK11FYazqkM&#xA;17d6rNH631OwtnjjeSOE/C8skkyogb4epPbFWNa3pv5oaDr2j6BofmybULbzK0sdxf6vb281zp5t&#xA;lM0s9sYY4I2EifAsciMFahrSuKtax5f87aV510TQbLzfqQ8u+Y454725uGhuL+O5tI2m/wBFkaH0&#xA;4RMn2jxNKHiFNDiqK0u485eUvzU0zyvd6xceYfLPmSzu7iylvxEbyzuLHg0qmWJI/UiZZVA5L1Ps&#xA;aqvUsVefnzx5z1+91BfI+kWV1pWlzyWkmq6pcyW8d1cwHjNFaJDFMxWNgVMrUUtsAaVxVJNF8z/n&#xA;V54tZtU0KDSvKmlwyS20MOorJqFzNc2shhuAzQvFGkSzRugIBY0riqO8jfnl5W1TT7ez8y6lYaT5&#xA;rjnmstS09ZT6K3ME72/wyPsiymPlGrty3pv1Kr03FXYq7FXYq7FWG+Y/zN0/S/MKeWNM0298xeZG&#xA;jWebTtNWI/V4WNFkuZp5IYYQ37PJqnbxGKsc/K/SdF81zeYfNXmLT0u/MMmrXunS2uoJFPJp9tay&#xA;enBZKlZYo/3QWRyn22blUimKoT8qrvyB5c86+ftDsriCylOoxz2xlcRo9pHaRq0MBegaOzuBPHxU&#xA;0Tptiq3y1r/m3U/zA82at5H0qz1LytfPaRDV7u6e1tZruyieK4a29OG4ebkSkRkC8P3fVsVej+UP&#xA;M6eYtIN4bV7C8t5pbPUdPlKu9vdW7lJY+a/C4qKqw2ZSD3xVO8Vdiqld3lpZWst3eTx21rApknuJ&#xA;mWONEUVLO7EKoA6k4q8t1q58tfmx5jtvLljrqXvlCxtDqGtQ6ZdL/pk0kxigtpniPNY0Ebu61Fap&#xA;iqLh8p6F5E85+VbXyoW0yx1ye6s9R0NJZJLeSKGxmuVulikZxHJHLBGjOtOXOjV2xV6ZirsVdirs&#xA;VdirsVdirsVdirxvSLb8wvMmqaf+bOiSWbrPbT2mn+WboNbiXR5pVkRmvAJStxI0KS/3fECi+JKq&#xA;He//ADc8+6vbaro+kaf5ZPlHUbiKOW+vJLv67Okb29zbUgiVRDVuDvuQy/DuDiq3y5Y/ml+YF3fe&#xA;aLvW4/K+peXr+90vRtGtoIry1SWCkNxJcvMOc3qMGSqcaLutK4qyP8vrXzD5k8yXPmvzfBbWur6D&#xA;62iWGl2bySRW7kq93cl3pya5X0+Ap8MYHUk4qzTzb5n0/wAseXrzW79ZJILVV4wQrzlmlkYRxQxL&#xA;+08kjKijxOKvHvL+tfmz5L0by55AHl2yXVdakuU0zVzfeulsrs93PJdW4iQu1ssnxcZOLt0bfdV2&#xA;j2P5wfl/e2v5c6TLZ61a6411daN5nu+SSWABE169zaqGEn72flEA9OTfEabBVU8v635B/Lvyfrfk&#xA;bz/JZJeWvqSXzOS7a3FeI0wuQj1laRzyiYGvFl2alMVejflFNfT/AJYeWJb6cXNy+nwFphIs1V4/&#xA;ADKuzsqUDHxxVl2KuxV2KuxV5l+XuseW9E1DzhFrl9aab5kl1q7u9TW7njjka0Zq2DhpCvKFbTgF&#xA;I2B5d64qgNG8j+XvO/m3XvOlvcahaaNqItbS0m028udPTUVtUdbi4f6u0TSxSF1jRj19Pkp4tUqv&#xA;Rf8AB/lQ6Ta6Q+j2cul2Qpa2csEcsUfuquG+I13PU98VYH5H8zWXkPy+PKHmS0ubK70V5o7GW3s7&#xA;ieC/tmmZ4ZbZreOVS7K4DxV5Bq7UxVLPInkM+btGu/Pjazq2k6r5nnm1LS4rO8kigsomPp21bdSI&#xA;JnaKNDL6ikN098VUPyr89fmf+ZukSTxXtp5ettGf9H6hqEdut5Ne6hEA0rRq7LFDFwZGI4kksQCB&#xA;irfkjytq/wCY95req/mLfNe2uk6hcaLY6DYTT2mniSwYQzXbxxSB3eWQMVDseI+iiqW+ctO07yd5&#xA;+8u6U1xdzflqjDUfMOm3Msl5bWEo9SKxmleYyyJbSXLBijNwDR8uxxVPtdstD87fmdoV/wCTtaeK&#xA;fT7C+TWfMOhSwSCNGMBtLeaVknt5eTcyImDELVqDY4qzny75CsdJ1WTWrzUL3XNeli9D9J6k8bvH&#xA;CSGaKCKFIYYUZgCwRBWgqTTFWT4q7FXYq7FXhk13521jyX5l/NCDzLe6fNpr6lcaDokRj/R4s9Il&#xA;lj9K6g4kzPP9Xfk3Pao40pir0zyR+Y3lLzjYwyaRqlpc35tori80+CdJJYDIoJV1U1+FjxJ8cVZP&#xA;irzPzf57/MBdc1208m2Gmz2XlO2iuNbk1Npw9xNLF9Z+q2nokKjC34sXeoqwFOuKs88ua1b675e0&#xA;vW7ZGjt9VtIL2FH+0qXEayqG9wGxV5VYebdf/KjytB5Z1Ty1qWtRWFx9Q8v6nYtbNBcwzzcLKKUv&#xA;Msscw5iMr6R6VFRiqI8sea/OvkvyzdWfmTyVfyTQS3l/DPpctpc2vpXU8l2UlmeWAxtCZSrsUoac&#xA;hXFUk8v6l+eWi+UNY84WWjaRdWeuTTeYo9HlnuFvLSKeMP6XERokrcEViOSnkT47KvUfy3036p5T&#xA;tbqS8Oo3esltWvL8x+iJZb2k1Vjq3BFRlRFqaKBiqB/NzStWvfKsN1pVs99eaLqWn6wNOi/vLlLC&#xA;6SeSFB3ZkU8R3NBirDPOPnSPzdr/AJct/wAubiU+edPeW7iS/tLi3s4bCRRDd/XhPHE/AkooEVX5&#xA;06dcVS3znZ/m95Y/MDyp5we7s/Nd9qDS6Cvly3jbTreE3ETXLNBJJJctT/RuUkj7/CB0I4qsh8jQ&#xA;yXX5heZ9Q8+aZY2HmxLO1aziVxcQx6OEZS8U8irX9/6omNB+zX4aEqp9+TkFsnlm+uNPQRaFfatq&#xA;F1oUKjii2Uk54NEo6RyOHkjFPssKbYqzvFXYq7FXYqkfmDy15I1GeC98w6Vpl5PEVjtrnULe3ldW&#xA;JqqxvMpINegBxVO0RERURQqKAFUCgAGwAAxVvFXYqwGx/LjzFpUE2i6N5obT/KUjSG305LNGvbWO&#xA;Zy7xW160nFEBZhHyhZkGwOwxVC6N+Ver+UJL208g6va6NoOpGOSbT7uze9a3uEhWF57aT6xD8UqR&#xA;qWEocchX/JxVF6V+U0Og2kkXlrzDqejz3f7zU50Nvci7uW/vLuSO6hnRJ3/aaMKD3BoMVTzyl5J0&#xA;zy1DeGKe51HUNTkE2qarfyCa5uXVeCc2ARQiL8KIqhVHQYqn0MMMKCOGNY4x0RAFG/sMVX4q7FXY&#xA;q7FXYq+evzA0bzl5O8p3/lq4a0P5b6vr0S3GrrLKLyy0vVLz1buF4uHDiryMvq+p9lulT8KrKLN/&#xA;KOofmn5SsPIi2b2XlizvpNaudNCNBFbXEIgtrRpYqozPMRLw5VHCuKvVtQvrXT7C5v7t/TtbSJ57&#xA;iTrxjiUu528FGKvnu9n/ADPj8m+Z/wAwolstN8vechDe3+lBHlv7HTDAts17C3NInuGtVWRo2FK+&#xA;9VxV79oem2Gl6Lp+m6cKafY20NtZivKkMMYSPfv8KjFWO/mfoGsatoFrPosS3OsaJqFpq9hZyOI0&#xA;uHtJOTQFzsvqRllDHYGmKsU1vzN5g/MvRdW8m6Bo99oFxJSw8x6lqqwotlFPEskkUcccrvPLJDIA&#xA;tKKA3It0BVdP5x8+No0XkOLyzcQedprE2/6QMlv+iUiQLbyagsqyer6a8w6xekHr8NO+KvTdD0m3&#xA;0fRNP0i2JNvp1tDaQk0BKQRiNa09lxVG4qw/zd5S8wXXmDTvNHljUILLW7C3mspYL2N5rS6tZ2SQ&#xA;xyCNkkRkkjDK6/IgjFWH61oX5kWHm/y3548yXC63Z6RLcRT6FoNnIy2kd1bPD9ajR3kuLlwxAeg5&#xA;BSeK9cVRkXlSy/MTz2/mTzB5ekXy1punjT9MtNYgMUl1cSzieWdrSSjokYRUUSqOVWNOmKvUo444&#xA;o1jjUJGgCoigBVUCgAA6AYquxV2KuxV2KvKrvyd5a/ML8yPM0Xmu0bUrLyzHZ6fpthK7rbobu3W7&#xA;nuFVGWsreoqcuwXFUj8neUdWuvP3nDyivmnVrbyr5XNmdGtLO8ZZYjqEBlaGSd/VmdIPTpGrsQAc&#xA;VTXyzd/m5rGoa5odh5gsYdO8sXzaeuvXll9cvL1xHHOI5YopLSFPSjmVHdRVj2G+KrtE/Mb8ztf1&#xA;fUfK2maRpcOv+W5Fi8x6neSziwJlLGA2kMYaZzLEnqEO44dKnFUUPPn5lXuuz+S7LRbG380WUa3O&#xA;oaxNLJJpSWcu0M8Ma8biSSRg6+k3HiVNXIxVZrvn3z55L8w6bouq2cfm6TzDFKNC/RUH1CYXltwM&#xA;sM6zTzxrEY3Mgl5fDQgg9cVWy/mz57/TaeUR5INv5zuoReWsT30c2mrZcij3M13HGrqI5KKUEVSS&#xA;KHcYqq3f5meb/KGo2lj590y1uBq0cg0efy99Ynaa8jKgWXoTqrc5Q9UfkF2NadcVTvy55/1u6122&#xA;0TzP5am8t3uowSXGls9zBeRT+hxM0ReD+7lRXDcT1FaHbFWa4q7FXYq7FXYqtlhimieKZFkikBV4&#xA;3AZWU7EEHYjFVKysLGxh9GytorWEkt6UKLGvI9TxUAV2xVS1rS4dW0a/0qZikOoW8trK6/aCzIY2&#xA;I96Niry9vKX5o675PsvIGt21hp+kRJFZazrttcvJJd2NsVULbW/BTFJcInFy7UUVpXYYq9bRERFR&#xA;FCooAVQKAAbAADFW8VYPqPlrztpXmnU9e8pS6fcwa4IX1TStUeeBRc28QgSeCeBJyOUSIro0f7II&#xA;IxVFeS/KeuWOo6l5i8z3sN/5k1URwsLRWS0tLSAsYrW3ElXI5yM7u1CxPTbFWXYq7FXYq7FXYq7F&#xA;XYq7FXYq7FWIa/8AlzDqWuya5p+u6p5fv7mJINQOmSwrHcpFX0zJHPFOnqIGIV1Aam2KpZY/lGPL&#xA;+pSal5N1iTSLq9t1t9Ya7i/SP12RJHkS6maR43NwGmf4yxBBpxoMVSny75S8+fl1qWqwaBZnzbpO&#xA;uyLqEtxeXkdrdRam6LHcyTFkKtFPwV/3YLLuOJ2xVb5b8sef/JPmjWdcexPms+bEiudWWwlt7ZrS&#xA;+gMirHCl3JAHtvSkRAxcuONeO9MVUdO0X80dA8+XHnvULEaxD5hi+p6roOmyRGTTYYCDYmJ7hoFu&#xA;KVk9ahX4mqoIGKqWsQ/mfe/mDonn6Ty440DQ1uLOHy8Jbd9VMV5GVmvaCT0A3JIwIhKW4g9zirce&#xA;ted4fzTTzvqvljULbyhNpr6LbQRRm71CFhMlz9bns7X15FSVg0dE5MOILAd1VDzTrXm/VfPHlfzk&#xA;vly+g8k+VrqUTrPBINRna/t3t2u1sQrTiG15KaFQ5qTx22VZTbSz+c/Pui63aWlxbeXPLCXUsF9d&#xA;wy2z3l5eQ/V+MMMyxyejFEzlnZaMxHGtCcVehYq7FXYq7FXYq7FXYq7FXYq7FUqvPNXl2y1NNMut&#xA;QghvWXmYXkUFF2CmSp+Dny+Hl9rtiqxfOPlNr+XT11myN7AFaW39ePkvL1KAjl1/cvUdRTFUwsdR&#xA;0+/iM1jdQ3cQIBkgkWRQWRZFFVJG6OrD2IPfFURirsVdirsVdirsVdirsVdirsVdiqWeYfM2h+Xd&#xA;PN/rN5HZ2wPENIwBY9SFXq1BVjToAT0GKtTeaPLkM6wy6lbo71+IyLwBX0vhZ/sKx+sx8VYgtyFK&#xA;4qj7a7tbpGe2mjnRHaJ2jYOFkjPF0JUmjKwoR2xVVxV2KuxV2KuxV2KuxV2KuxVD3mo6fZGEXl1D&#xA;bG4kENuJpFj9SRtlRORHJj2A3xVAJ5v8rvN6I1W1DlUdC0qKrrIFKtGxIWQHmu6E9R44qm+KuxV2&#xA;KuxV575g/Kjy35h1rWZ31S6hu714Li6hgMBME6RwxxyLzic/FHZx/A/JepAHLFUJe/kL5VuZorma&#xA;+vOUJVqMYTH+7murhCEMfFeL30h+Gnb3qqy/y/o2jeVtGu3guqaYzyX8kshjWGGP01r6YjCIkYSP&#xA;lt1NWJJJOKpzLdW0U0MMkipNcFlgjJoXKqWYKO9FFcVVcVQy6lp7XzaetzG16qmRrYMDIFXjUleu&#xA;3qJ/wQ8RiqJxV2KuxV2KuxV2KuxV2KsS89eTNF8y3OkpqF9JZzxtPDbRR+kfXWVBJJGVkR+gtw1V&#xA;oaAjocVY4/5AeXJPXEmp38qTafDpYjkMLLHDAsSp6Y9Mcf7gGniTirO/LejWWjWMun2lw06JcTyu&#xA;HKVje4kNwYwsaoqKPV+FQo2xVMxLEZWiDqZUUM0dRyCsSFJHWhKmnyxVdiqGtNT068mnhtbmOeW1&#xA;bhcJGwYo1StGp0PJWHzBHbFUTirsVdirsVdirsVYj+YvlLT/ADPFoNlfXv1KG31WO6AXh6k7R284&#xA;EMZdXoW5ciRuFUkEYqkOj/kP5e02eK4/Sl/dXMUjTC6nMDTl3vYr5mMnpAhmkhALLRqE74q9MxV2&#xA;KuxVDX2p6dYCE3tzHbC4kSCD1WC85ZGCIi16lmYADFWHXX5fatL5+/xRBqaQRQySTwWrrNIrPPaW&#xA;9q/NI5bdfgW0BUsXrzOylQSqkXlT8ptfj8gReWtav4FEd/HdD9w0ztFBJSk3Kd4ne4jRGeoYK5Zh&#xA;U8SqqU3v/OP+uXM0NmfMMEel/VpEP1aw+riGQQ28AEcSXHE+ssTc2ap41Q15BlVVr/8AIK71GDWL&#xA;RdaewhnuLf8AR7FGnRYLeNfhWJZoTGjikLIH3VK7cqBVs/8AOPN6dQN23mYS71Mc9nJIJx9fN7S8&#xA;/wBLAnDqwhk2XkiJ0C0KrJvIf5Z6h5W1S0nm1GLUIbaxntWmETQyySzvakyOpeYFmFpzkfn8TsTQ&#xA;Yq9AxV2KuxV2KuxV2KuxV2KsO/MbyLeebba0tbe8WyjRitzKwkZvT9WKeiiNomPJrZY2AkX4Gbfs&#xA;VUp0nyD5ptvzI1jXp9Qjk029shagukvM8oo4wkfG5LIsf1dHLE1LNJSnIFFUsi/IKKK5trmPWESS&#xA;2lt5g0Vq0DP6FtbQNzaC4iJJe19VSKcWIryoeSqQ+Xv+cb9Vh0nRZL7X1tdVthYzX/o2zM6yWokZ&#xA;4oZ/rAO7Tks5BBcc+IrxCqLT/nHC+WCeIeaQqzRwxhEspFRTFYSWXqcTdn95WX1UevwtyO5NQq9A&#xA;8jeS7vy3NdmeeCaOWGOCAW0bQIqpdXd2QsLNII1U3xjRQ7fCo33oFWW4q7FXYq7FXYq7FWK/mL5O&#xA;uvNek2un290LMxXEkkkx5VCS2lxatQJQt/vRUryXktRyWtcVSHSPy98z6f8AmRYa22oRXGl2ejDT&#xA;5XdJS7OkiCNIw9zM+8SlndyTz3+LkQqrGtK/5x61AaNxu9fMF/dRWguY4opTHGIJPXmt+SXKM6Sy&#xA;UMhDLyYFhStFVTSb8hjPNLNLr7tIst1Np8pgk9S3a5qUbn9Y+NonPINt0HQ74qlbf844XxjlT/Fk&#xA;hMrBhI1rIzx8XZi0bfWvhd+XORujSqj0AXgVUy0/8j9R051kTWob1zJbeq0ts8Mhjjkb1T6oml+N&#xA;kcyfZHKarVUEBVX/2Q==</xmpGImg:image>
               </rdf:li>
            </rdf:Alt>
         </xmp:Thumbnails>
      </rdf:Description>
      <rdf:Description rdf:about=""
            xmlns:xmpMM="http://ns.adobe.com/xap/1.0/mm/"
            xmlns:stRef="http://ns.adobe.com/xap/1.0/sType/ResourceRef#"
            xmlns:stEvt="http://ns.adobe.com/xap/1.0/sType/ResourceEvent#">
         <xmpMM:InstanceID>xmp.iid:F77F117407206811871FC35430C36F00</xmpMM:InstanceID>
         <xmpMM:DocumentID>xmp.did:F77F117407206811871FC35430C36F00</xmpMM:DocumentID>
         <xmpMM:OriginalDocumentID>uuid:5D20892493BFDB11914A8590D31508C8</xmpMM:OriginalDocumentID>
         <xmpMM:RenditionClass>proof:pdf</xmpMM:RenditionClass>
         <xmpMM:DerivedFrom rdf:parseType="Resource">
            <stRef:instanceID>uuid:f322645c-dd94-4448-9124-fd76014d4355</stRef:instanceID>
            <stRef:documentID>xmp.did:EF7F1174072068118083C8EC6E2BF39A</stRef:documentID>
            <stRef:originalDocumentID>uuid:5D20892493BFDB11914A8590D31508C8</stRef:originalDocumentID>
            <stRef:renditionClass>proof:pdf</stRef:renditionClass>
         </xmpMM:DerivedFrom>
         <xmpMM:History>
            <rdf:Seq>
               <rdf:li rdf:parseType="Resource">
                  <stEvt:action>saved</stEvt:action>
                  <stEvt:instanceID>xmp.iid:ED7F1174072068118083C8EC6E2BF39A</stEvt:instanceID>
                  <stEvt:when>2014-06-10T11:22:40+02:00</stEvt:when>
                  <stEvt:softwareAgent>Adobe Illustrator CS5</stEvt:softwareAgent>
                  <stEvt:changed>/</stEvt:changed>
               </rdf:li>
               <rdf:li rdf:parseType="Resource">
                  <stEvt:action>saved</stEvt:action>
                  <stEvt:instanceID>xmp.iid:EF7F1174072068118083C8EC6E2BF39A</stEvt:instanceID>
                  <stEvt:when>2014-06-10T11:49+02:00</stEvt:when>
                  <stEvt:softwareAgent>Adobe Illustrator CS5</stEvt:softwareAgent>
                  <stEvt:changed>/</stEvt:changed>
               </rdf:li>
               <rdf:li rdf:parseType="Resource">
                  <stEvt:action>saved</stEvt:action>
                  <stEvt:instanceID>xmp.iid:F77F117407206811871FC35430C36F00</stEvt:instanceID>
                  <stEvt:when>2015-02-25T16:31:12+02:00</stEvt:when>
                  <stEvt:softwareAgent>Adobe Illustrator CS5.1</stEvt:softwareAgent>
                  <stEvt:changed>/</stEvt:changed>
               </rdf:li>
            </rdf:Seq>
         </xmpMM:History>
      </rdf:Description>
      <rdf:Description rdf:about=""
            xmlns:illustrator="http://ns.adobe.com/illustrator/1.0/">
         <illustrator:StartupProfile>Print</illustrator:StartupProfile>
      </rdf:Description>
      <rdf:Description rdf:about=""
            xmlns:xmpTPg="http://ns.adobe.com/xap/1.0/t/pg/"
            xmlns:stDim="http://ns.adobe.com/xap/1.0/sType/Dimensions#"
            xmlns:xmpG="http://ns.adobe.com/xap/1.0/g/">
         <xmpTPg:HasVisibleOverprint>False</xmpTPg:HasVisibleOverprint>
         <xmpTPg:HasVisibleTransparency>False</xmpTPg:HasVisibleTransparency>
         <xmpTPg:NPages>1</xmpTPg:NPages>
         <xmpTPg:MaxPageSize rdf:parseType="Resource">
            <stDim:w>144.999246</stDim:w>
            <stDim:h>80.148079</stDim:h>
            <stDim:unit>Millimeters</stDim:unit>
         </xmpTPg:MaxPageSize>
         <xmpTPg:PlateNames>
            <rdf:Seq>
               <rdf:li>Cyan</rdf:li>
               <rdf:li>Magenta</rdf:li>
               <rdf:li>Yellow</rdf:li>
               <rdf:li>Black</rdf:li>
            </rdf:Seq>
         </xmpTPg:PlateNames>
         <xmpTPg:SwatchGroups>
            <rdf:Seq>
               <rdf:li rdf:parseType="Resource">
                  <xmpG:groupName>Default Swatch Group</xmpG:groupName>
                  <xmpG:groupType>0</xmpG:groupType>
               </rdf:li>
            </rdf:Seq>
         </xmpTPg:SwatchGroups>
      </rdf:Description>
      <rdf:Description rdf:about=""
            xmlns:pdf="http://ns.adobe.com/pdf/1.3/">
         <pdf:Producer>Adobe PDF library 9.90</pdf:Producer>
      </rdf:Description>
   </rdf:RDF>
</x:xmpmeta>
                                                                                                    
                                                                                                    
                                                                                                    
                                                                                                    
                                                                                                    
                                                                                                    
                                                                                                    
                                                                                                    
                                                                                                    
                                                                                                    
                                                                                                    
                                                                                                    
                                                                                                    
                                                                                                    
                                                                                                    
                                                                                                    
                                                                                                    
                                                                                                    
                                                                                                    
                                                                                                    
                           
<?xpacket end="w"?>
	</metadata>
<g>
	<g>
		<path d="M205.777,0c1.465,1.78,1.096,5.393,2.576,7.156c7.065-0.897,13.297-4.679,19.458-3.148
			c2.377,5.235,1.348,11.504,4.007,16.597c4.927-1.846,7.204-6.34,14.31-6.01c4.93,4.453,4.068,10.333,6.01,17.458
			c4.301-1.591,7.661-4.996,11.446-6.297c3.34-1.148,7.915-1.234,9.442,2.29c2.589,5.968,0.535,15.462,2.576,21.749
			c5.191-1.979,12.426-9.862,20.03-5.151c1.709,2.299,2.293,5.722,2.29,9.73c2.244-0.285,3.488-5.411,6.582-4.864
			c-1.392,3.283-4.552,4.796-6.582,7.439c-0.611,2.79,1.605,5.716-0.858,7.727c-2.143-7.043,1.882-20.282-7.153-20.032
			c-7.388,0.206-12.696,8.167-19.175,10.019c-0.325-0.629-0.736-1.171-0.571-2.29c2.136,0.557,2.487,0.229,4.008-0.858
			c-2.751-8.479,1.021-19.261-5.438-24.896c-8.783,1.271-15.034,7.141-22.319,11.446c-1.232-0.482-1.992-1.44-2.004-3.146
			c0.972-0.764,1.185,1.146,2.289,1.145c1.431-0.669,2.688-1.51,3.721-2.575c-1.32-5.562-0.979-14.199-5.438-17.455
			c-7.781,1.502-10.523,7-18.602,8.585c-0.317-0.963-1.007-2.129,0-2.862c1.179-0.227,0.539,1.37,1.718,1.144
			c0.895-0.25,1.511-0.776,2.289-1.144c-2.474-5.241-2.209-10.407-3.72-16.312c-8.537-0.432-15.394,4.218-23.466,4.292
			c-0.744-0.819-2.517-2.224-1.146-3.434c1.303,0.7,1.711,2.295,4.292,1.716c-0.488-2.646-2.124-5.582-1.431-7.726
			C205.325,0.312,205.729,0.335,205.777,0z"/>
		<path d="M196.62,2.863c0.254,0.222,0.646,0.308,1.145,0.285c1.32,3.26,1.846,7.312,3.72,10.017
			c3.109,1.521,7.537,0.767,12.02-0.572c5.268-1.573,11.594-5.521,11.16,1.431c-1.264-0.453-1.063-2.37-2.574-2.574
			c-0.619,0.238-0.978,0.74-2.004,0.571c2.292,5.924,2.078,14.773,6.009,19.746c3.154-1.243,8.759-4.049,12.307-6.582
			c2.157-1.54,7.093-6.578,6.867,0.287c-1.518,0.374-0.693-1.595-1.716-1.717c-1.467-0.228-1.214,1.266-2.576,1.144
			c0.477,6.419,1.336,12.402,3.72,18.029c3.118,0.744,5.426-0.326,7.728-1.718c3.859-2.331,9.021-5.391,10.017-8.299
			c0.796,0.317,2.144,0.246,2.575-0.572c6.193,5.734,0.229,21.159,4.864,28.903c4.099-1.202,7.333-3.493,10.589-5.438
			c3.271-1.955,5.73-5.325,10.016-6.01c0.58,0.849,0.829,2.579,0.286,3.721c-1.509-0.162-0.669-2.697-2.576-1.717
			c-0.301,3.067-0.371,6.484,0.287,10.875c0.487,3.244,1.188,9.972,3.148,10.587c3.583,1.128,6.247-3.93,7.726-6.295
			c2.487-0.873,2.923-5.252,5.438-5.151c-2.149,5.291-6.179,8.703-9.729,12.593c-1.683,0.253-3.399,0.912-5.15,0.284
			c-3.065-4.628-3.128-15.101-3.435-20.604c-6.582,2.229-10.396,8.636-18.028,8.872c-3.861-5.86-1.729-17.094-2.003-22.894
			c-1.131-1.256-0.7-4.068-1.717-5.438c-1.017,0.986-3.048,0.959-3.147,2.861c-1.86,0.339-3.881,2.027-4.293,2.86
			c-4.008,1.761-7.272,5.64-13.45,4.292c-2.838-4.73-3.54-12.492-4.292-18.027c-4.226,0.437-10.497,9.117-15.453,6.01
			c-3.904-2.45-2.699-14.696-5.724-19.746c-5.808,0.533-13.614,5.592-18.314,1.431C197.05,11.65,197.404,6.432,196.62,2.863z"/>
		<path d="M118.497,10.302c5.95,0.083,14.68-0.761,22.606,0.287c6.223,0.823,14.102,4.583,11.16,12.02
			c-2.819,7.127-15.896,6.22-24.61,6.295c-5.329,0.048-11.92,0.462-15.452-1.146c-1.659-0.754-4.87-3.617-5.438-5.438
			C104.306,14.442,111.735,9.952,118.497,10.302z M110.484,14.022c-4.866,3.685-1.289,11.146,4.007,12.593
			c5.662,1.547,12.188,0.606,18.313,0.286c7.826-0.409,14.171,0.833,17.17-3.72c3.547-5.387-1.976-9.432-7.155-10.589
			c-7.244-1.619-16.259-0.729-21.176-0.572C116.463,12.186,113.228,11.946,110.484,14.022z"/>
		<path d="M35.794,31.766c-5.426,5.907-16.327,2.625-16.599-6.295c-0.219-7.209,6.236-13.309,12.592-10.589
			C36.301,16.814,40.519,26.99,35.794,31.766z M30.356,32.91c10.718-2.463,4.417-21.304-6.295-15.739
			C18.306,22.763,21.396,34.97,30.356,32.91z"/>
		<path d="M395.505,40.637c-0.28-7.135,6.854-9.31,11.161-5.724c7.396,8.387,4.857,21.361-3.722,28.044
			c-1.465,1.141-5.206,3.291-8.012,3.435c-5.162,0.265-8.106-3.303-8.585-6.868c-0.377-2.818,0.503-7.041,2.289-9.157
			c1.736-2.06,10.229-2.905,9.729-6.867C398.121,41.546,396.448,42.318,395.505,40.637z M397.51,38.634
			c-0.143,2.726,2.337,3.022,2.574,4.577c0.373,2.447-1.286,4.438-2.574,5.15c-1.78,0.986-5.706,0.661-7.728,3.436
			c-4.288,5.887,0.259,15.25,8.013,12.306c5.219-1.981,10.911-9.829,11.731-15.74c0.7-5.032-3.82-14.232-8.584-13.163
			C399.129,35.607,397.594,36.984,397.51,38.634z"/>
		<path d="M41.804,38.634c7.27-1.528,10.024,7.227,6.296,12.59c-3.579,5.148-12.666,5.063-13.451-2.574
			C34.252,44.784,37.5,39.538,41.804,38.634z M36.367,46.36c-0.589,4.256,2.191,6.576,4.577,6.869
			c4.281,0.523,8.09-5.145,7.44-9.729c-0.171-1.211-3.577-3.3-5.723-3.148C39.522,40.573,36.769,43.448,36.367,46.36z"/>
		<path d="M123.934,42.639c2.333,1.171,15.067-0.509,19.746,2.862c2.57,1.852,3.781,6.964,2.289,9.729
			c-1.848,3.428-9.672,5.525-14.308,6.011c-4.238,0.442-10.447,0.13-15.167,0c-4.491-0.123-11.145,0.666-13.735-2.289
			c-2.155-2.457-2.227-7.149-0.859-9.73C105.214,42.971,115.566,42.808,123.934,42.639z M143.965,48.363
			c-2.284-3.421-15.2-4.022-22.321-4.292c-10.368-0.391-21.542,2.704-18.027,13.45c4.275,2.632,11.274,2.326,17.741,2.289
			c8.825-0.051,17.534-0.87,23.18-5.438C144.838,52.681,144.975,49.875,143.965,48.363z"/>
		<path d="M12.9,48.078c0.056-0.326,0.288-0.16,0.286,0c12.097,0.776,7.915,21.444-3.434,18.313
			c-7.127-1.968-5.749-14.229-0.287-17.457C10.716,48.752,11.852,48.458,12.9,48.078z M6.319,56.948
			c-0.355,3.512,1.613,7.458,4.292,8.013c9.703,2.013,10.951-15.615,2.005-15.167C9.971,49.926,6.643,53.752,6.319,56.948z"/>
		<path d="M211.214,135.93c5.373-3.62,12.326,0.399,11.161,7.728c5.006-3.002,10.527,1.527,12.306,6.009
			c1.487-4.212,9.778-6.604,11.732-1.716c2.099-6.775,13.879-8.401,17.456-1.719c2.106-4.073,5.935-9.253,11.159-5.437
			c-0.408-5.013,2.113-10.33,5.725-11.732c4.219-1.641,10.267,1.28,11.16,5.437c2.071,9.629-7.921,14.083-14.309,10.303
			c4.381,8.701-9.683,13.602-12.592,5.438c-1.888,2.275-2.06,5.94-5.151,7.727c-4.297,2.481-9.978,1.04-12.877-2.29
			c-1.908,5.927-12.182,7.535-12.879-0.285c-3.017,2.512-6.81,6.532-12.018,4.292c-1.755-1.966-3.812-3.63-3.721-7.439
			c-6.29,3.215-14.236-2.468-12.02-10.303c-3.573,1.188-6.636,0.028-9.444-2.574c-1.933,3.716-5.945,6.854-10.874,5.148
			c0.102,6.19-6.366,13.183-12.877,10.589c-2.229-0.888-2.964-3.65-4.578-5.723c-0.157-7.223,4.385-14.966,12.877-12.592
			c-0.742-7.915,11.2-13.453,14.309-5.725C197.904,119.611,214.345,125.217,211.214,135.93z M201.771,140.795
			c8.311,1.837,11.702-11.685,3.435-14.595C196.327,124.352,194.69,139.229,201.771,140.795z M183.17,137.361
			c0.754,6.944,9.681,7.738,12.591,1.718C198.089,123.787,182.157,128.046,183.17,137.361z M290.482,134.786
			c-2.524-8.116-16.494-2.925-13.735,6.295C281.078,148.666,293.003,142.884,290.482,134.786z M208.353,141.081
			c-2.933,6.093,3.817,13.645,9.443,9.729c1.156-0.805,3.118-4.626,3.434-6.297c0.578-3.055-1.702-10.044-6.295-8.298
			C211.452,137.844,209.529,138.637,208.353,141.081z M170.292,146.804c-0.831,10.987,16.071,7.553,14.021-2.575
			c-0.443-2.195-2.848-3.327-3.147-6.297C175.485,136.963,170.546,143.443,170.292,146.804z M275.029,142.226
			c-3.107-2.678-8.213-0.725-8.869,3.721c-0.862,5.812,4.78,9.494,10.015,5.149C276.843,147.541,277.102,144.012,275.029,142.226z
			 M248.988,155.675c4.279,5.924,18.323-1.056,13.164-9.729c-0.809-1.357-4.785-2.414-7.727-2.005
			C250.503,144.491,245.531,150.889,248.988,155.675z M224.663,158.824c9.961,1.494,9.188-14.993,1.431-14.311
			C219.98,145.054,217.554,157.756,224.663,158.824z M240.117,159.396c5.479-0.021,7.903-7.786,4.007-12.306
			C234.652,144.487,232.762,159.426,240.117,159.396z"/>
		<path d="M33.218,133.927c1.263-0.739,2.226-1.78,3.434-2.576c3.903-1.174,9.247,0.325,10.589,4.579
			c0.889,2.819-1.017,4.698,0.285,6.868c-1.721,1.235-2.34,3.573-3.72,5.151c-0.654,0.489-1.446,0.843-2.003,1.431
			c1.856,4.76,0.416,10.993-4.006,12.018c3.978,4.936,1.588,14.98-4.579,15.74c-0.242,4.396-2.751,9.458-7.154,10.303
			c-6.683,1.28-11.177-3.662-9.729-10.018c-6.927,0.312-9.612-8.718-6.01-13.735c-6.097,2.397-9.963-2.949-10.303-8.585
			c-0.31-5.146,2.539-8.906,6.011-10.302c-1.726-6.963,3.741-14.613,10.874-13.45c2.021,0.33,3.352,2.633,4.864,3.147
			C24.008,131.176,31.55,128.467,33.218,133.927z M31.788,134.499c-0.589-0.938-1.48-1.571-2.289-2.289
			c-5.1-0.182-9.114,5.428-7.728,10.589c0.579,2.154,3.07,4.952,5.438,4.864c0.835-0.03,4.946-3.01,5.437-3.722
			c1.445-2.093,0.292-4.71,0.286-7.438c-0.635-0.603-0.774,0.854-1.431-0.287C31.598,135.204,32.289,135.513,31.788,134.499z
			 M41.231,147.663c2.096-0.182,4.556-5.024,4.006-8.585c-0.827-5.372-5.161-8.159-10.016-5.15c-0.07,1.626-0.089,1.185-1.145,1.431
			c0.891,3.571,0.532,6.731,0,9.443C37.661,143.579,38.551,147.894,41.231,147.663z M16.907,133.068
			c-3.624-0.921-6.537,2.406-8.584,4.008c-0.234,2.168-0.937,4.511-0.287,7.438c2.789,5.572,8.5,3.802,13.449,2.005
			c-1.693-2.665-1.492-7.859-0.857-10.589C18.92,135.576,18.389,133.445,16.907,133.068z M6.319,146.519
			c-6.28,2.028-5.243,12.243-1.145,15.738c3.771,0.745,6.53-0.549,9.443-2.003c-1.071-3.994-0.021-7.125,1.431-10.302
			C12.035,150.809,9.289,148.746,6.319,146.519z M31.501,159.682c1.828,1.222,3.202-0.112,5.437,0.572
			c3.426-1.358,5.82-5.755,3.721-9.73c-0.295-0.556-1.149-0.924-2.004-1.716c-1.719-1.594-3.135-3.176-6.295-2.004
			C28.462,147.144,28.905,157.946,31.501,159.682z M22.058,148.521c-5.416,0.501-7.771,6.799-6.01,11.161
			c1.987,4.916,11.315,3.373,12.306-1.717c0.311-1.595-0.882-5.119-1.145-7.728c-1.537-1.038-3.398-1.754-5.151-2.575
			C22.058,147.95,22.058,148.235,22.058,148.521z M29.212,161.398c-4.211,3.434-4.843,12.95,1.431,14.022
			c7.063,1.209,10.146-8.881,5.151-13.163C33.789,162.498,31.788,161.412,29.212,161.398z M14.904,162.257
			c-6.523,2.021-5.5,13.075,1.145,13.45c7.224,0.407,8.007-6.845,9.729-12.592C23.243,165.27,17.716,164.312,14.904,162.257z
			 M18.052,177.423c-1.15,3.073,0.559,7.118,2.861,8.013c6.425,2.501,10.215-3.437,11.446-8.298
			c-4.619,0.328-5.937-2.647-8.013-4.864C23.432,175.173,20.418,175.975,18.052,177.423z"/>
		<path d="M93.313,140.222c6.749-5.231,16.123,6.007,9.444,12.021c8.012,3.483,3.176,18.895-5.151,16.598
			c1.025,10.069-12.779,13.108-13.45,2.861c-4.94,4.309-15.314,3.592-14.021-5.725c-12.355,2.012-11.762-14.893-4.578-18.026
			c-3.622-8.413,6.328-18.085,13.735-11.446C82.276,131.731,94.748,130.357,93.313,140.222z M90.738,136.503
			c-3.651-2.938-8.925-0.905-10.588,2.574c-1.179,5.08,1.494,6.997,4.579,9.156C88.944,146.687,93.117,142.832,90.738,136.503z
			 M78.433,138.506c-5.343-7.048-14.281,1.847-11.161,8.584C73.242,150.387,79.177,146.116,78.433,138.506z M103.329,146.519
			c0.058-2.188-2.256-5.099-4.292-5.724c-3.469-1.065-6.361,2.198-7.44,5.724c2.744,1.072,3.713,3.918,4.579,6.866
			c1.138-1.055,2.707-1.679,5.151-1.431C102.056,150.099,103.278,148.467,103.329,146.519z M78.146,146.804
			c-3.776,1.562-7.788,9.338-3.146,11.732c5.039,2.603,10.656-2.938,8.584-8.584C80.71,150.17,80.32,145.906,78.146,146.804z
			 M91.596,148.235c-5.553-2.523-9.146,9.079-4.006,12.306c1.709,0.192,3.478-0.081,5.438-0.572
			C95.696,156.897,94.831,149.707,91.596,148.235z M66.414,149.093c-4.849,3.198-5.848,11.058-1.145,14.882
			c4.413,1.58,7.263-0.889,9.443-3.721c-3.844-0.511-4.346-7.271-2.29-10.302C70.008,150.738,68.516,149.425,66.414,149.093z
			 M101.898,154.245c-4.423-1.032-7.632,3.92-6.868,8.013c0.343,1.832,2.222,2.47,2.29,5.151
			C105.267,169.328,108.274,155.732,101.898,154.245z M71.852,166.549c-1.044,10.09,15.626,6.33,13.163-3.72
			c-0.333-1.361-1.537-2.347-3.434-3.147C77.688,161.427,72.321,162.014,71.852,166.549z M87.304,163.975
			c-0.971,4.447-2.945,9.581,0.859,12.305c8.731,2.097,9.793-10.153,4.579-13.735C90.274,162.367,88.577,162.958,87.304,163.975z"/>
		<path d="M360.308,153.1c7.075-3.951,11.021,5.373,7.154,10.875c-1.997,5.022-12.538,5.686-12.021-2.003
			c-1.089,0.246-1.896,0.774-3.434,0.571c-4.405-1.825-5.938-11.382-2.575-16.312C353.65,140.047,362.169,145.145,360.308,153.1z
			 M352.295,160.254c5.449,3.672,9.494-15.851,1.716-14.881C348.512,146.059,348.621,157.78,352.295,160.254z M359.449,165.977
			c6.253,1.117,8.969-6.031,6.866-10.874C360.004,151.483,355.196,162.378,359.449,165.977z"/>
		<path d="M395.792,160.827c5.337,4.819,1.721,15.711-6.869,14.881c-7.034-1.959-5.753-14.709,0.574-16.599
			c-3.015-5.464,1.384-15.863,7.438-12.02C401.166,149.776,400.475,158.678,395.792,160.827z M394.361,159.682
			c4.564-0.479,4.711-12.403-0.571-11.161C389.623,149.5,388.732,160.272,394.361,159.682z M396.077,163.975
			c-7.528-11.013-15.444,9.66-4.864,10.302C394.747,172.764,397.232,169.294,396.077,163.975z"/>
		<path d="M339.988,28.045c-2.787-0.755-4.165,2.074-7.152,1.431c-2.544-0.547-3.518-4.194-3.147-7.726
			c0.838-8.01,11.878-11.523,18.313-5.724c1.775,1.601,3.501,5.172,4.294,7.439c0.562,1.606,0.409,4.636,0.856,4.579
			c1.103,7.676-2.276,15.478-6.866,19.459c-1.425,1.235-4.439,3.17-6.582,2.861c-3.107-0.445-4.465-4.001-4.579-6.296
			c-0.145-2.878,1.469-6.946,2.861-8.871C339.352,33.314,342.15,31.934,339.988,28.045z M347.716,18.315
			c-6.582-7.678-20.778-0.93-14.881,9.158c2.646,0.872,3.784-1.573,6.582-1.431c0.742,0.975,2.043,1.391,2.86,2.29
			c1.72,5.382-2.52,6.646-4.006,9.729c-1.978,4.103-1.419,7.379,0.859,10.302C351.556,47.734,355.656,27.58,347.716,18.315z"/>
		<path d="M384.631,25.47c-1.243,3.157-6.956,3.326-6.295,7.439c4.166,1.972,8.938,4.95,6.868,10.589
			c-1.646,4.471-9.714,7.182-14.882,4.292c-6.632-3.707-8.009-18.454-3.434-25.183c2.492-3.667,8.642-7.723,13.164-6.297
			c0.689,0.22,3.343,1.851,4.005,2.862C385.228,20.961,384.509,23.038,384.631,25.47z M372.898,46.932
			c6.361,1.955,12.824-2.908,10.874-8.013c-1.077-2.824-6.938-3.004-7.438-6.295c-0.858-5.617,9.146-5.592,6.867-11.733
			c-0.607-1.639-3.25-2.971-4.864-3.147c-2.967-0.328-8.1,3.378-9.158,4.579c-2.455,2.785-3.547,8.732-2.861,13.448
			C367.208,41.902,369.622,45.926,372.898,46.932z"/>
		<path d="M184.887,171.416c3.394-4.38,11.092-2.173,12.305,2.574c3.036-4.532,12.84-3.181,12.593,3.434
			c1.327-6.239,11.745-7.022,14.022-0.856c3.139-5.211,14.021-8.296,16.024,0c2.184-3.599,9.309-4.075,11.159,0
			c3.168-5.303,14.332-6.421,14.882,1.717c1.731-1.32,2.968-3.138,4.863-4.293c1.872-0.154,3.259,0.177,4.866,0.286
			c2.354,2.219,3.541,4.701,3.435,7.727c-0.287,8.023-11.54,14.345-14.596,4.293c-2.189,4.79-12.393,7.109-14.308,0.571
			c-2.347,4.562-10.705,4.105-12.021-1.145c-3.142,5.269-13.483,6.104-14.308-1.718c-2.68,5.593-12.478,8.212-14.023,0
			c-2.427,1.633-4.375,5.137-8.299,4.866c-3.046-0.211-4.958-2.6-5.723-6.011c-2.625,4.149-11.4,4.26-11.447-2.289
			c-2.435,2.408-4.441,4.504-8.871,4.007c-8.076-0.906-5.396-17.866,1.432-18.029c2.677-0.063,3.309,1.543,6.582,2.576
			C183.997,169.825,184.549,170.513,184.887,171.416z M175.729,169.125c-1.06,0.274-0.52,2.149-2.29,1.717
			c-1.46,2.069-1.132,5.927-1.145,9.443c3.012,5.11,11.501,2.179,11.447-4.007c-0.021-2.307-1.122-3.968-1.718-6.01
			C179.894,169.915,177.646,168.825,175.729,169.125z M188.035,184.005c6.108,3.14,8.921-7.803,7.154-10.874
			c-1.237-2.151-5.769-3.279-8.3-1.431C185.529,175.535,184.931,182.412,188.035,184.005z M225.809,176.567
			c-2.497,3.852,0.584,11.134,3.721,11.732c8.807,1.68,12.229-15.699,3.722-15.453C231.396,172.899,226.623,175.31,225.809,176.567z
			 M197.765,176.28c-1.542,4.382,0.185,12.682,6.295,10.588c6.646-2.274,5.994-14.972-1.717-13.735
			C199.514,173.585,198.35,174.616,197.765,176.28z M213.503,187.154c6.25,4.262,13.434-8.918,6.869-12.592
			c-2.131-1.191-4.086-0.064-7.441,0.573C210.489,178.12,210.647,185.207,213.503,187.154z M251.85,178.569
			c-0.547,3.99-0.47,8.279,1.718,10.304c8.14,3.674,14.729-9.44,8.299-14.311C257.679,174.15,254.108,174.687,251.85,178.569z
			 M241.834,176.852c-2.637,2.411-3.314,12.289,3.147,11.732c4.834-0.416,7.506-13.556,0.572-13.164
			C244.469,175.482,242.525,176.218,241.834,176.852z M267.017,179.428c-1.534,3.122-0.934,10.094,2.861,10.587
			c4.933,0.644,9.456-7.18,6.582-12.305c-1.011-1.804-3.113-2.021-4.578-1.718C270.466,176.289,267.869,177.693,267.017,179.428z"/>
	</g>
	<g>
		<path d="M18.4,84.519c-0.203,0.12-0.549,0.214-0.954,0.214c-1.263,0-2.109-1.013-2.109-2.92c0-1.655,0.835-3.002,2.276-3.002
			c0.311,0,0.644,0.083,0.811,0.18l-0.179,0.751c-0.119-0.061-0.357-0.155-0.656-0.155c-0.929,0-1.334,1.096-1.334,2.228
			c0,1.348,0.512,2.157,1.358,2.157c0.238,0,0.453-0.048,0.656-0.154L18.4,84.519z"/>
		<path d="M22.657,81.779c0,2.229-1.025,2.979-1.92,2.979c-1.035,0-1.87-0.94-1.87-2.966c0-2.099,0.941-2.979,1.931-2.979
			C21.834,78.811,22.657,79.776,22.657,81.779z M19.785,81.779c0,0.953,0.167,2.252,1.001,2.252c0.785,0,0.952-1.347,0.952-2.252
			c0-0.882-0.167-2.241-0.978-2.241C19.939,79.537,19.785,80.897,19.785,81.779z"/>
		<path d="M26.497,84.519c-0.203,0.12-0.548,0.214-0.953,0.214c-1.265,0-2.11-1.013-2.11-2.92c0-1.655,0.834-3.002,2.276-3.002
			c0.31,0,0.643,0.083,0.811,0.18l-0.179,0.751c-0.12-0.061-0.357-0.155-0.656-0.155c-0.93,0-1.335,1.096-1.335,2.228
			c0,1.348,0.512,2.157,1.359,2.157c0.239,0,0.453-0.048,0.656-0.154L26.497,84.519z"/>
		<path d="M30.026,84.519c-0.203,0.12-0.548,0.214-0.954,0.214c-1.263,0-2.109-1.013-2.109-2.92c0-1.655,0.835-3.002,2.276-3.002
			c0.311,0,0.644,0.083,0.812,0.18l-0.179,0.751c-0.119-0.061-0.357-0.155-0.656-0.155c-0.929,0-1.334,1.096-1.334,2.228
			c0,1.348,0.512,2.157,1.359,2.157c0.237,0,0.452-0.048,0.655-0.154L30.026,84.519z"/>
		<path d="M31.803,77.406c0,0.355-0.214,0.596-0.56,0.596c-0.299,0-0.524-0.239-0.524-0.596c0-0.358,0.239-0.598,0.536-0.598
			C31.589,76.808,31.803,77.046,31.803,77.406z M30.814,84.662v-5.769h0.917v5.769H30.814z"/>
	</g>
	<g>
		<path d="M109.849,76.415h0.905v3.171h0.023c0.299-0.572,0.728-0.774,1.229-0.774c0.905,0,1.573,1.024,1.573,2.92
			c0,2.073-0.858,3.025-1.751,3.025c-0.608,0-0.918-0.356-1.145-0.846h-0.047l-0.06,0.751H109.8
			c0.013-0.333,0.048-0.989,0.048-1.384L109.849,76.415L109.849,76.415z M110.754,82.636c0,0.131,0.012,0.25,0.036,0.357
			c0.214,0.846,0.607,1,0.87,1c0.738,0,1.001-1,1.001-2.229c0-1.155-0.274-2.168-1.025-2.168c-0.429,0-0.774,0.525-0.858,1.024
			c-0.012,0.132-0.023,0.264-0.023,0.395V82.636z"/>
		<path d="M117.657,83.35c0,0.441,0.011,0.942,0.06,1.312h-0.822l-0.06-0.608h-0.036c-0.25,0.441-0.656,0.703-1.156,0.703
			c-0.763,0-1.357-0.645-1.357-1.643c0-1.455,1.155-2.087,2.455-2.099v-0.18c0-0.773-0.202-1.3-0.918-1.3
			c-0.356,0-0.679,0.107-0.953,0.299l-0.202-0.645c0.25-0.179,0.773-0.381,1.346-0.381c1.156,0,1.646,0.751,1.646,2.037
			L117.657,83.35L117.657,83.35z M116.763,81.67c-0.477,0-1.585,0.095-1.585,1.347c0,0.764,0.381,1.024,0.703,1.024
			c0.405,0,0.739-0.297,0.846-0.868c0.023-0.108,0.036-0.229,0.036-0.335V81.67z"/>
		<path d="M121.771,84.519c-0.203,0.12-0.548,0.214-0.953,0.214c-1.264,0-2.109-1.013-2.109-2.92c0-1.655,0.834-3.002,2.275-3.002
			c0.311,0,0.645,0.083,0.812,0.18l-0.179,0.751c-0.12-0.061-0.357-0.155-0.656-0.155c-0.931,0-1.335,1.096-1.335,2.228
			c0,1.348,0.513,2.157,1.358,2.157c0.239,0,0.453-0.048,0.656-0.154L121.771,84.519z"/>
		<path d="M123.548,77.406c0,0.355-0.214,0.596-0.561,0.596c-0.298,0-0.524-0.239-0.524-0.596c0-0.358,0.239-0.598,0.537-0.598
			C123.334,76.808,123.548,77.046,123.548,77.406z M122.559,84.662v-5.769h0.918v5.769H122.559z"/>
		<path d="M124.752,76.415h0.917v8.247h-0.917V76.415z"/>
		<path d="M127.029,76.415h0.918v8.247h-0.918V76.415z"/>
		<path d="M130.295,77.406c0,0.355-0.214,0.596-0.561,0.596c-0.298,0-0.523-0.239-0.523-0.596c0-0.358,0.238-0.598,0.536-0.598
			C130.082,76.808,130.295,77.046,130.295,77.406z M129.307,84.662v-5.769h0.917v5.769H129.307z"/>
	</g>
	<g>
		<path d="M236.768,83.708c0.202,0.131,0.56,0.299,0.929,0.299c0.514,0,0.848-0.322,0.848-0.834c0-0.441-0.155-0.74-0.739-1.133
			c-0.751-0.479-1.155-0.979-1.155-1.633c0-0.942,0.689-1.598,1.583-1.598c0.454,0,0.788,0.154,1.026,0.298l-0.238,0.69
			c-0.226-0.154-0.465-0.263-0.773-0.263c-0.487,0-0.738,0.357-0.738,0.739s0.143,0.596,0.713,0.989
			c0.669,0.428,1.194,0.953,1.194,1.751c0,1.156-0.788,1.716-1.741,1.716c-0.416,0-0.882-0.131-1.132-0.333L236.768,83.708z"/>
		<path d="M240.356,80.694c0-0.882-0.036-1.395-0.049-1.8h0.812l0.047,0.739h0.022c0.323-0.608,0.774-0.822,1.229-0.822
			c1.013,0,1.668,1.062,1.668,2.954c0,2.146-0.882,2.991-1.787,2.991c-0.548,0-0.859-0.345-1.014-0.666h-0.022v2.859h-0.906
			L240.356,80.694L240.356,80.694z M241.263,82.553c0,0.166,0.011,0.333,0.046,0.476c0.182,0.822,0.597,0.966,0.849,0.966
			c0.763,0,1.013-1.049,1.013-2.203c0-1.192-0.287-2.193-1.024-2.193c-0.418,0-0.8,0.512-0.848,1.037
			c-0.023,0.131-0.034,0.285-0.034,0.441L241.263,82.553L241.263,82.553z"/>
		<path d="M246.115,77.406c0,0.355-0.217,0.596-0.562,0.596c-0.299,0-0.525-0.239-0.525-0.596c0-0.358,0.238-0.598,0.537-0.598
			C245.899,76.808,246.115,77.046,246.115,77.406z M245.125,84.662v-5.769h0.917v5.769H245.125z"/>
		<path d="M247.309,80.384c0-0.489-0.036-1.062-0.05-1.49h0.824l0.046,0.918h0.022c0.192-0.549,0.683-1.001,1.218-1.001
			c0.07,0,0.131,0,0.19,0.013v0.93c-0.061,0-0.12,0-0.19,0c-0.585,0-1.014,0.535-1.108,1.189c-0.023,0.156-0.035,0.335-0.035,0.525
			v3.193h-0.917V80.384L247.309,80.384z"/>
		<path d="M253.648,81.779c0,2.229-1.023,2.979-1.918,2.979c-1.036,0-1.872-0.94-1.872-2.966c0-2.099,0.943-2.979,1.933-2.979
			C252.828,78.811,253.648,79.776,253.648,81.779z M250.777,81.779c0,0.953,0.167,2.252,1.001,2.252
			c0.787,0,0.953-1.347,0.953-2.252c0-0.882-0.166-2.241-0.978-2.241C250.933,79.537,250.777,80.897,250.777,81.779z"/>
		<path d="M257.488,84.519c-0.201,0.12-0.547,0.214-0.951,0.214c-1.264,0-2.11-1.013-2.11-2.92c0-1.655,0.836-3.002,2.276-3.002
			c0.311,0,0.644,0.083,0.81,0.18l-0.178,0.751c-0.119-0.061-0.358-0.155-0.655-0.155c-0.93,0-1.336,1.096-1.336,2.228
			c0,1.348,0.513,2.157,1.359,2.157c0.238,0,0.452-0.048,0.654-0.154L257.488,84.519z"/>
		<path d="M258.277,76.415h0.917v3.11h0.024c0.119-0.202,0.299-0.382,0.488-0.513c0.203-0.131,0.441-0.202,0.763-0.202
			c0.728,0,1.348,0.571,1.348,2.025v3.825H260.9v-3.72c0-0.702-0.155-1.356-0.775-1.356c-0.43,0-0.749,0.31-0.895,0.918
			c-0.023,0.118-0.036,0.285-0.036,0.428v3.73h-0.917V76.415L258.277,76.415z"/>
		<path d="M263.75,81.862c0,1.775,0.704,2.146,1.358,2.146c0.404,0,0.728-0.097,0.952-0.216l0.155,0.668
			c-0.321,0.166-0.812,0.272-1.274,0.272c-1.382,0-2.098-1.132-2.098-2.895c0-1.86,0.798-3.027,1.953-3.027
			c1.169,0,1.645,1.238,1.645,2.526c0,0.226-0.012,0.382-0.021,0.523L263.75,81.862L263.75,81.862z M265.561,81.182
			c0.015-1.145-0.416-1.656-0.854-1.656c-0.608,0-0.907,0.87-0.943,1.656H265.561z"/>
		<path d="M268.556,77.547v1.347h1.106v0.691h-1.106v3.432c0,0.751,0.263,0.953,0.595,0.953c0.155,0,0.274-0.012,0.369-0.034
			l0.048,0.703c-0.167,0.061-0.381,0.094-0.68,0.094c-0.369,0-0.688-0.094-0.905-0.345c-0.237-0.262-0.345-0.656-0.345-1.454v-3.349
			h-0.703v-0.691h0.703v-0.977L268.556,77.547z"/>
		<path d="M271.024,81.862c0,1.775,0.702,2.146,1.356,2.146c0.406,0,0.729-0.097,0.955-0.216l0.153,0.668
			c-0.32,0.166-0.81,0.272-1.274,0.272c-1.382,0-2.097-1.132-2.097-2.895c0-1.86,0.799-3.027,1.953-3.027
			c1.168,0,1.646,1.238,1.646,2.526c0,0.226-0.012,0.382-0.023,0.523L271.024,81.862L271.024,81.862z M272.835,81.182
			c0.012-1.145-0.417-1.656-0.858-1.656c-0.607,0-0.905,0.87-0.939,1.656H272.835z"/>
	</g>
	<g>
		<path d="M354.446,78.894l0.729,3.241c0.083,0.393,0.178,0.906,0.251,1.406h0.034c0.062-0.478,0.156-0.965,0.239-1.406l0.716-3.241
			h0.904l-1.514,5.769h-0.811l-1.501-5.769H354.446z"/>
		<path d="M359.108,77.406c0,0.355-0.214,0.596-0.561,0.596c-0.297,0-0.523-0.239-0.523-0.596c0-0.358,0.238-0.598,0.535-0.598
			C358.895,76.808,359.108,77.046,359.108,77.406z M358.12,84.662v-5.769h0.917v5.769H358.12z"/>
		<path d="M360.301,76.415h0.905v3.171h0.023c0.299-0.572,0.728-0.774,1.228-0.774c0.905,0,1.573,1.024,1.573,2.92
			c0,2.073-0.856,3.025-1.751,3.025c-0.607,0-0.919-0.356-1.145-0.846h-0.048l-0.061,0.751h-0.773
			c0.012-0.333,0.047-0.989,0.047-1.384L360.301,76.415L360.301,76.415z M361.206,82.636c0,0.131,0.013,0.25,0.038,0.357
			c0.212,0.846,0.605,1,0.867,1c0.738,0,1-1,1-2.229c0-1.155-0.272-2.168-1.023-2.168c-0.428,0-0.774,0.525-0.857,1.024
			c-0.012,0.132-0.023,0.264-0.023,0.395L361.206,82.636L361.206,82.636z"/>
		<path d="M365.059,80.384c0-0.489-0.036-1.062-0.048-1.49h0.822l0.048,0.918h0.022c0.192-0.549,0.681-1.001,1.218-1.001
			c0.069,0,0.131,0,0.188,0.013v0.93c-0.059,0-0.119,0-0.188,0c-0.585,0-1.014,0.535-1.109,1.189
			c-0.023,0.156-0.035,0.335-0.035,0.525v3.193h-0.918V80.384z"/>
		<path d="M369.016,77.406c0,0.355-0.214,0.596-0.559,0.596c-0.3,0-0.525-0.239-0.525-0.596c0-0.358,0.239-0.598,0.537-0.598
			C368.802,76.808,369.016,77.046,369.016,77.406z M368.026,84.662v-5.769h0.919v5.769H368.026z"/>
		<path d="M373.761,81.779c0,2.229-1.025,2.979-1.919,2.979c-1.037,0-1.871-0.94-1.871-2.966c0-2.099,0.94-2.979,1.931-2.979
			C372.938,78.811,373.761,79.776,373.761,81.779z M370.888,81.779c0,0.953,0.166,2.252,1.002,2.252
			c0.786,0,0.953-1.347,0.953-2.252c0-0.882-0.167-2.241-0.977-2.241C371.042,79.537,370.888,80.897,370.888,81.779z"/>
		<path d="M374.632,83.708c0.203,0.131,0.562,0.299,0.932,0.299c0.513,0,0.845-0.322,0.845-0.834c0-0.441-0.154-0.74-0.738-1.133
			c-0.751-0.479-1.155-0.979-1.155-1.633c0-0.942,0.691-1.598,1.585-1.598c0.453,0,0.786,0.154,1.024,0.298l-0.238,0.69
			c-0.229-0.154-0.465-0.263-0.774-0.263c-0.488,0-0.738,0.357-0.738,0.739s0.143,0.596,0.716,0.989
			c0.667,0.428,1.189,0.953,1.189,1.751c0,1.156-0.784,1.716-1.738,1.716c-0.418,0-0.883-0.131-1.133-0.333L374.632,83.708z"/>
	</g>
	<g>
		<path d="M6.493,210.215c-0.203,0.119-0.55,0.214-0.953,0.214c-1.265,0-2.11-1.013-2.11-2.92c0-1.656,0.834-3.003,2.276-3.003
			c0.31,0,0.643,0.083,0.81,0.18l-0.178,0.751c-0.12-0.06-0.357-0.155-0.656-0.155c-0.93,0-1.335,1.096-1.335,2.229
			c0,1.347,0.512,2.157,1.359,2.157c0.237,0,0.453-0.048,0.655-0.154L6.493,210.215z"/>
		<path d="M7.281,202.111h0.919v8.247H7.281V202.111z"/>
		<path d="M13.014,208.785c0,0.632,0.036,1.144,0.047,1.572h-0.798l-0.071-0.607h-0.023c-0.167,0.286-0.608,0.703-1.228,0.703
			c-1.001,0-1.405-0.786-1.405-2.217v-3.646h0.917v3.517c0,0.905,0.144,1.572,0.774,1.572c0.537,0,0.774-0.501,0.823-0.763
			c0.036-0.154,0.047-0.334,0.047-0.524v-3.802h0.917V208.785z"/>
		<path d="M14.149,209.405c0.203,0.132,0.561,0.299,0.931,0.299c0.513,0,0.846-0.321,0.846-0.834c0-0.44-0.155-0.739-0.739-1.133
			c-0.751-0.478-1.155-0.979-1.155-1.634c0-0.94,0.69-1.597,1.585-1.597c0.453,0,0.786,0.154,1.024,0.299l-0.238,0.689
			c-0.227-0.154-0.464-0.263-0.773-0.263c-0.488,0-0.739,0.358-0.739,0.739c0,0.382,0.144,0.596,0.714,0.99
			c0.667,0.428,1.192,0.953,1.192,1.751c0,1.155-0.787,1.716-1.74,1.716c-0.417,0-0.882-0.131-1.132-0.333L14.149,209.405z"/>
		<path d="M18.871,203.243v1.347h1.106v0.691h-1.106v3.433c0,0.751,0.262,0.953,0.595,0.953c0.155,0,0.274-0.013,0.37-0.035
			l0.047,0.703c-0.167,0.06-0.381,0.095-0.679,0.095c-0.37,0-0.691-0.095-0.905-0.345c-0.239-0.264-0.346-0.657-0.346-1.454v-3.35
			h-0.704v-0.691h0.704v-0.978L18.871,203.243z"/>
		<path d="M21.339,207.557c0,1.776,0.703,2.146,1.357,2.146c0.406,0,0.728-0.097,0.954-0.217l0.155,0.67
			c-0.321,0.166-0.81,0.272-1.275,0.272c-1.382,0-2.097-1.133-2.097-2.896c0-1.859,0.798-3.027,1.954-3.027
			c1.168,0,1.646,1.239,1.646,2.527c0,0.226-0.013,0.381-0.023,0.522L21.339,207.557L21.339,207.557z M23.149,206.877
			c0.014-1.145-0.417-1.656-0.856-1.656c-0.608,0-0.906,0.87-0.942,1.656H23.149z"/>
		<path d="M25.011,206.08c0-0.488-0.036-1.062-0.048-1.49h0.822l0.048,0.919h0.022c0.19-0.549,0.681-1.002,1.216-1.002
			c0.071,0,0.132,0,0.19,0.012v0.931c-0.06,0-0.119,0-0.19,0c-0.584,0-1.013,0.535-1.107,1.19c-0.024,0.155-0.036,0.334-0.036,0.525
			v3.192H25.01L25.011,206.08L25.011,206.08z"/>
		<path d="M27.825,209.405c0.202,0.132,0.561,0.299,0.93,0.299c0.512,0,0.846-0.321,0.846-0.834c0-0.44-0.155-0.739-0.739-1.133
			c-0.751-0.478-1.155-0.979-1.155-1.634c0-0.94,0.69-1.597,1.584-1.597c0.453,0,0.787,0.154,1.024,0.299l-0.238,0.689
			c-0.227-0.154-0.465-0.263-0.774-0.263c-0.488,0-0.739,0.358-0.739,0.739c0,0.382,0.144,0.596,0.715,0.99
			c0.667,0.428,1.192,0.953,1.192,1.751c0,1.155-0.787,1.716-1.74,1.716c-0.417,0-0.882-0.131-1.132-0.333L27.825,209.405z"/>
		<path d="M5.753,216.418c-0.679,1.072-1.239,2.682-1.239,4.852c0,2.132,0.561,3.74,1.239,4.826H5.039
			c-0.62-0.906-1.299-2.504-1.299-4.84c0.023-2.334,0.679-3.944,1.299-4.838H5.753L5.753,216.418z"/>
		<path d="M7.22,221.865c0,1.775,0.704,2.146,1.359,2.146c0.404,0,0.727-0.096,0.954-0.215l0.154,0.668
			c-0.321,0.166-0.81,0.272-1.274,0.272c-1.384,0-2.099-1.133-2.099-2.895c0-1.86,0.798-3.028,1.955-3.028
			c1.167,0,1.645,1.239,1.645,2.527c0,0.226-0.013,0.381-0.024,0.522H7.22V221.865z M9.033,221.185
			c0.012-1.144-0.418-1.656-0.859-1.656c-0.608,0-0.905,0.87-0.941,1.656H9.033z"/>
		<path d="M10.727,224.07c0-0.404,0.274-0.69,0.608-0.69c0.356,0,0.607,0.273,0.607,0.69s-0.227,0.69-0.619,0.69
			C10.99,224.76,10.727,224.487,10.727,224.07z"/>
		<path d="M16.58,223.926c0,1.514-0.191,2.086-0.572,2.515c-0.346,0.383-0.882,0.607-1.538,0.607c-0.488,0-0.965-0.118-1.263-0.285
			l0.214-0.715c0.227,0.119,0.607,0.25,1.073,0.25c0.727,0,1.18-0.452,1.18-1.764v-0.584H15.65c-0.19,0.452-0.619,0.702-1.107,0.702
			c-1.025,0-1.692-1.154-1.692-2.849c0-2.12,0.965-2.991,1.824-2.991c0.606,0,0.894,0.405,1.073,0.728h0.022l0.048-0.645h0.811
			c-0.012,0.395-0.047,0.905-0.047,1.801L16.58,223.926L16.58,223.926z M15.673,220.888c0-0.144-0.012-0.298-0.047-0.417
			c-0.096-0.394-0.311-0.871-0.834-0.871c-0.668,0-1.025,0.895-1.025,2.169c0,1.466,0.465,2.134,1.025,2.134
			c0.285,0,0.644-0.131,0.821-0.821c0.049-0.18,0.061-0.358,0.061-0.524L15.673,220.888L15.673,220.888z"/>
		<path d="M17.534,224.07c0-0.404,0.273-0.69,0.607-0.69c0.357,0,0.608,0.273,0.608,0.69s-0.228,0.69-0.62,0.69
			C17.797,224.76,17.534,224.487,17.534,224.07z"/>
		<path d="M21.624,223.712c0.203,0.131,0.561,0.298,0.93,0.298c0.512,0,0.846-0.321,0.846-0.834c0-0.44-0.154-0.739-0.738-1.132
			c-0.751-0.479-1.156-0.979-1.156-1.634c0-0.941,0.689-1.598,1.585-1.598c0.453,0,0.786,0.154,1.025,0.299l-0.239,0.689
			c-0.228-0.154-0.464-0.262-0.774-0.262c-0.489,0-0.739,0.357-0.739,0.738c0,0.383,0.144,0.597,0.716,0.99
			c0.667,0.428,1.191,0.953,1.191,1.751c0,1.155-0.787,1.716-1.74,1.716c-0.417,0-0.882-0.131-1.133-0.333L21.624,223.712z"/>
		<path d="M26.345,217.551v1.346h1.108v0.691h-1.108v3.433c0,0.751,0.263,0.953,0.596,0.953c0.155,0,0.274-0.012,0.37-0.035
			l0.047,0.703c-0.167,0.061-0.381,0.095-0.679,0.095c-0.37,0-0.691-0.095-0.906-0.345c-0.237-0.263-0.345-0.656-0.345-1.454v-3.35
			h-0.703v-0.691h0.703v-0.977L26.345,217.551z"/>
		<path d="M31.304,223.354c0,0.441,0.012,0.941,0.06,1.312h-0.821l-0.061-0.608h-0.036c-0.25,0.441-0.655,0.703-1.155,0.703
			c-0.764,0-1.359-0.644-1.359-1.644c0-1.454,1.156-2.086,2.455-2.099v-0.179c0-0.774-0.203-1.3-0.918-1.3
			c-0.357,0-0.679,0.106-0.953,0.299l-0.203-0.645c0.25-0.18,0.774-0.382,1.348-0.382c1.155,0,1.645,0.751,1.645,2.038V223.354z
			 M30.411,221.674c-0.478,0-1.585,0.095-1.585,1.347c0,0.764,0.381,1.024,0.702,1.024c0.405,0,0.739-0.297,0.848-0.869
			c0.022-0.107,0.036-0.227,0.036-0.335L30.411,221.674L30.411,221.674z"/>
		<path d="M32.594,220.698c0-0.883-0.036-1.396-0.048-1.802h0.811l0.047,0.739h0.024c0.322-0.608,0.775-0.822,1.228-0.822
			c1.014,0,1.669,1.062,1.669,2.955c0,2.146-0.883,2.991-1.788,2.991c-0.549,0-0.858-0.345-1.014-0.667h-0.023v2.86h-0.905V220.698z
			 M33.499,222.556c0,0.166,0.013,0.334,0.048,0.478c0.178,0.821,0.596,0.965,0.846,0.965c0.763,0,1.012-1.048,1.012-2.204
			c0-1.191-0.285-2.193-1.023-2.193c-0.417,0-0.798,0.514-0.847,1.038c-0.023,0.131-0.036,0.285-0.036,0.44L33.499,222.556
			L33.499,222.556z"/>
		<path d="M37.363,216.418h0.917v3.109h0.024c0.119-0.201,0.297-0.381,0.488-0.513c0.203-0.131,0.44-0.202,0.763-0.202
			c0.728,0,1.347,0.572,1.347,2.026v3.825h-0.918v-3.72c0-0.702-0.154-1.357-0.774-1.357c-0.43,0-0.75,0.311-0.895,0.919
			c-0.022,0.117-0.036,0.285-0.036,0.428v3.73h-0.917L37.363,216.418L37.363,216.418z"/>
		<path d="M42.55,218.897l0.774,3.313c0.095,0.454,0.154,0.822,0.238,1.19h0.023c0.06-0.333,0.155-0.763,0.239-1.179l0.69-3.326
			h0.905l-0.941,3.707c-0.357,1.441-0.763,2.836-1.43,3.718c-0.405,0.514-0.834,0.774-1.037,0.87l-0.345-0.773
			c0.273-0.155,0.56-0.405,0.821-0.729c0.239-0.31,0.418-0.69,0.513-0.977c0.048-0.131,0.07-0.202,0.07-0.287
			c0-0.07-0.012-0.143-0.035-0.214l-1.453-5.315L42.55,218.897L42.55,218.897z"/>
		<path d="M46.211,216.418h0.917v8.247h-0.917V216.418z"/>
		<path d="M52.028,221.782c0,2.229-1.024,2.979-1.919,2.979c-1.037,0-1.871-0.94-1.871-2.967c0-2.097,0.942-2.979,1.932-2.979
			C51.206,218.814,52.028,219.78,52.028,221.782z M49.155,221.782c0,0.953,0.167,2.252,1.001,2.252c0.786,0,0.954-1.348,0.954-2.252
			c0-0.883-0.167-2.241-0.978-2.241C49.311,219.541,49.155,220.9,49.155,221.782z"/>
		<path d="M55.868,224.523c-0.203,0.119-0.549,0.214-0.954,0.214c-1.264,0-2.11-1.013-2.11-2.92c0-1.655,0.835-3.003,2.277-3.003
			c0.31,0,0.643,0.083,0.811,0.181l-0.179,0.751c-0.119-0.061-0.357-0.156-0.656-0.156c-0.929,0-1.334,1.097-1.334,2.229
			c0,1.348,0.512,2.157,1.359,2.157c0.237,0,0.453-0.048,0.654-0.154L55.868,224.523z"/>
		<path d="M60.124,221.782c0,2.229-1.025,2.979-1.919,2.979c-1.036,0-1.871-0.94-1.871-2.967c0-2.097,0.941-2.979,1.931-2.979
			C59.302,218.814,60.124,219.78,60.124,221.782z M57.252,221.782c0,0.953,0.167,2.252,1.001,2.252c0.787,0,0.954-1.348,0.954-2.252
			c0-0.883-0.167-2.241-0.979-2.241C57.407,219.541,57.252,220.9,57.252,221.782z"/>
		<path d="M63.964,224.523c-0.203,0.119-0.549,0.214-0.953,0.214c-1.264,0-2.11-1.013-2.11-2.92c0-1.655,0.834-3.003,2.276-3.003
			c0.31,0,0.643,0.083,0.81,0.181l-0.178,0.751c-0.12-0.061-0.356-0.156-0.656-0.156c-0.93,0-1.335,1.097-1.335,2.229
			c0,1.348,0.513,2.157,1.359,2.157c0.238,0,0.453-0.048,0.656-0.154L63.964,224.523z"/>
		<path d="M67.493,224.523c-0.203,0.119-0.549,0.214-0.953,0.214c-1.265,0-2.11-1.013-2.11-2.92c0-1.655,0.835-3.003,2.276-3.003
			c0.31,0,0.644,0.083,0.811,0.181l-0.179,0.751c-0.12-0.061-0.357-0.156-0.656-0.156c-0.929,0-1.335,1.097-1.335,2.229
			c0,1.348,0.513,2.157,1.359,2.157c0.238,0,0.453-0.048,0.655-0.154L67.493,224.523z"/>
		<path d="M69.27,217.409c0,0.355-0.214,0.595-0.56,0.595c-0.298,0-0.525-0.238-0.525-0.595c0-0.358,0.239-0.599,0.537-0.599
			C69.056,216.811,69.27,217.05,69.27,217.409z M68.281,224.666v-5.77h0.919v5.77H68.281z"/>
		<path d="M70.129,226.096c0.68-1.072,1.239-2.706,1.239-4.852s-0.561-3.754-1.239-4.826h0.715c0.619,0.882,1.299,2.467,1.299,4.826
			c-0.023,2.358-0.68,3.934-1.299,4.852H70.129z"/>
	</g>
	<g>
		<path d="M189.818,210.215c-0.203,0.119-0.549,0.214-0.954,0.214c-1.263,0-2.108-1.013-2.108-2.92c0-1.656,0.834-3.003,2.275-3.003
			c0.311,0,0.644,0.083,0.811,0.18l-0.179,0.751c-0.119-0.06-0.357-0.155-0.655-0.155c-0.93,0-1.335,1.096-1.335,2.229
			c0,1.347,0.512,2.157,1.358,2.157c0.238,0,0.453-0.048,0.656-0.154L189.818,210.215z"/>
		<path d="M190.606,202.111h0.918v3.11h0.024c0.119-0.202,0.297-0.381,0.488-0.513c0.202-0.131,0.44-0.202,0.763-0.202
			c0.727,0,1.347,0.572,1.347,2.026v3.824h-0.918v-3.719c0-0.703-0.154-1.358-0.774-1.358c-0.43,0-0.75,0.312-0.895,0.92
			c-0.023,0.116-0.036,0.284-0.036,0.428v3.729h-0.918L190.606,202.111L190.606,202.111z"/>
		<path d="M198.474,209.046c0,0.439,0.012,0.94,0.061,1.312h-0.823l-0.061-0.607h-0.035c-0.25,0.439-0.656,0.703-1.156,0.703
			c-0.764,0-1.358-0.645-1.358-1.645c0-1.454,1.155-2.086,2.455-2.098v-0.179c0-0.774-0.202-1.301-0.918-1.301
			c-0.357,0-0.679,0.107-0.953,0.3l-0.202-0.645c0.25-0.18,0.774-0.382,1.347-0.382c1.155,0,1.645,0.751,1.645,2.038V209.046z
			 M197.581,207.367c-0.478,0-1.585,0.095-1.585,1.347c0,0.763,0.381,1.023,0.703,1.023c0.404,0,0.738-0.297,0.846-0.868
			c0.022-0.107,0.036-0.228,0.036-0.335V207.367L197.581,207.367z"/>
		<path d="M200.765,203.1c0,0.357-0.214,0.596-0.56,0.596c-0.298,0-0.525-0.237-0.525-0.596c0-0.357,0.239-0.597,0.537-0.597
			C200.551,202.503,200.765,202.743,200.765,203.1z M199.775,210.358v-5.769h0.918v5.769H199.775z"/>
		<path d="M201.969,206.08c0-0.681-0.035-1.024-0.047-1.49h0.798l0.047,0.703h0.024c0.25-0.464,0.715-0.786,1.322-0.786
			c0.799,0,1.396,0.584,1.396,1.979v3.873h-0.917v-3.706c0-0.69-0.131-1.37-0.798-1.37c-0.381,0-0.751,0.32-0.858,0.931
			c-0.036,0.143-0.048,0.321-0.048,0.522v3.623h-0.918L201.969,206.08L201.969,206.08z"/>
		<path d="M206.644,209.405c0.203,0.132,0.561,0.299,0.931,0.299c0.513,0,0.846-0.321,0.846-0.834c0-0.44-0.155-0.739-0.738-1.133
			c-0.751-0.478-1.156-0.979-1.156-1.634c0-0.94,0.69-1.597,1.585-1.597c0.453,0,0.786,0.154,1.025,0.299l-0.239,0.689
			c-0.227-0.154-0.464-0.263-0.773-0.263c-0.489,0-0.739,0.358-0.739,0.739c0,0.382,0.143,0.596,0.715,0.99
			c0.667,0.428,1.192,0.953,1.192,1.751c0,1.155-0.787,1.716-1.74,1.716c-0.417,0-0.882-0.131-1.132-0.333L206.644,209.405z"/>
		<path d="M189.079,216.418c-0.68,1.072-1.239,2.682-1.239,4.852c0,2.132,0.56,3.74,1.239,4.826h-0.716
			c-0.619-0.906-1.299-2.504-1.299-4.84c0.024-2.334,0.68-3.944,1.299-4.838H189.079L189.079,216.418z"/>
		<path d="M190.546,221.865c0,1.775,0.704,2.146,1.358,2.146c0.405,0,0.728-0.096,0.954-0.215l0.155,0.668
			c-0.322,0.166-0.81,0.272-1.275,0.272c-1.383,0-2.098-1.133-2.098-2.895c0-1.86,0.798-3.028,1.955-3.028
			c1.167,0,1.644,1.239,1.644,2.527c0,0.226-0.012,0.381-0.023,0.522h-2.67V221.865z M192.358,221.185
			c0.012-1.144-0.418-1.656-0.858-1.656c-0.608,0-0.905,0.87-0.941,1.656H192.358z"/>
		<path d="M194.052,224.07c0-0.404,0.274-0.69,0.608-0.69c0.356,0,0.607,0.273,0.607,0.69s-0.227,0.69-0.62,0.69
			C194.315,224.76,194.052,224.487,194.052,224.07z"/>
		<path d="M199.905,223.926c0,1.514-0.19,2.086-0.571,2.515c-0.347,0.383-0.882,0.607-1.538,0.607c-0.488,0-0.965-0.118-1.263-0.285
			l0.214-0.715c0.227,0.119,0.607,0.25,1.072,0.25c0.728,0,1.181-0.452,1.181-1.764v-0.584h-0.024
			c-0.19,0.452-0.62,0.702-1.107,0.702c-1.025,0-1.692-1.154-1.692-2.849c0-2.12,0.965-2.991,1.824-2.991
			c0.606,0,0.894,0.405,1.072,0.728h0.023l0.048-0.645h0.811c-0.012,0.395-0.048,0.905-0.048,1.801L199.905,223.926L199.905,223.926
			z M198.999,220.888c0-0.144-0.013-0.298-0.047-0.417c-0.096-0.394-0.311-0.871-0.834-0.871c-0.668,0-1.025,0.895-1.025,2.169
			c0,1.466,0.465,2.134,1.025,2.134c0.284,0,0.644-0.131,0.821-0.821c0.048-0.18,0.061-0.358,0.061-0.524L198.999,220.888
			L198.999,220.888z"/>
		<path d="M200.86,224.07c0-0.404,0.274-0.69,0.608-0.69c0.357,0,0.608,0.273,0.608,0.69s-0.228,0.69-0.62,0.69
			C201.123,224.76,200.86,224.487,200.86,224.07z"/>
		<path d="M204.949,223.712c0.202,0.131,0.561,0.298,0.93,0.298c0.512,0,0.846-0.321,0.846-0.834c0-0.44-0.155-0.739-0.739-1.132
			c-0.751-0.479-1.155-0.979-1.155-1.634c0-0.941,0.689-1.598,1.585-1.598c0.453,0,0.786,0.154,1.024,0.299l-0.238,0.689
			c-0.228-0.154-0.465-0.262-0.774-0.262c-0.489,0-0.739,0.357-0.739,0.738c0,0.383,0.144,0.597,0.715,0.99
			c0.667,0.428,1.192,0.953,1.192,1.751c0,1.155-0.787,1.716-1.74,1.716c-0.417,0-0.882-0.131-1.133-0.333L204.949,223.712z"/>
		<path d="M209.67,217.551v1.346h1.107v0.691h-1.107v3.433c0,0.751,0.263,0.953,0.596,0.953c0.155,0,0.274-0.012,0.37-0.035
			l0.047,0.703c-0.167,0.061-0.381,0.095-0.679,0.095c-0.37,0-0.691-0.095-0.906-0.345c-0.238-0.263-0.345-0.656-0.345-1.454v-3.35
			h-0.703v-0.691h0.703v-0.977L209.67,217.551z"/>
		<path d="M211.579,220.387c0-0.488-0.036-1.061-0.049-1.49h0.822l0.048,0.919h0.024c0.191-0.549,0.679-1.002,1.215-1.002
			c0.071,0,0.131,0,0.191,0.013v0.931c-0.061,0-0.12,0-0.191,0c-0.584,0-1.013,0.535-1.107,1.189
			c-0.024,0.155-0.036,0.336-0.036,0.525v3.193h-0.917V220.387z"/>
		<path d="M215.025,221.865c0,1.775,0.703,2.146,1.358,2.146c0.405,0,0.728-0.096,0.953-0.215l0.155,0.668
			c-0.321,0.166-0.811,0.272-1.275,0.272c-1.382,0-2.097-1.133-2.097-2.895c0-1.86,0.798-3.028,1.953-3.028
			c1.169,0,1.646,1.239,1.646,2.527c0,0.226-0.012,0.381-0.023,0.522h-2.67V221.865z M216.836,221.185
			c0.012-1.144-0.417-1.656-0.857-1.656c-0.607,0-0.906,0.87-0.941,1.656H216.836z"/>
		<path d="M218.697,220.698c0-0.883-0.034-1.396-0.048-1.802h0.812l0.047,0.739h0.023c0.321-0.608,0.774-0.822,1.229-0.822
			c1.014,0,1.669,1.062,1.669,2.955c0,2.146-0.882,2.991-1.788,2.991c-0.548,0-0.857-0.345-1.013-0.667h-0.024v2.86h-0.904v-6.255
			H218.697z M219.603,222.556c0,0.166,0.014,0.334,0.048,0.478c0.181,0.821,0.598,0.965,0.847,0.965
			c0.763,0,1.014-1.048,1.014-2.204c0-1.191-0.286-2.193-1.025-2.193c-0.417,0-0.798,0.514-0.846,1.038
			c-0.022,0.131-0.036,0.285-0.036,0.44L219.603,222.556L219.603,222.556z"/>
		<path d="M224.586,217.551v1.346h1.107v0.691h-1.107v3.433c0,0.751,0.264,0.953,0.596,0.953c0.155,0,0.275-0.012,0.37-0.035
			l0.048,0.703c-0.168,0.061-0.382,0.095-0.68,0.095c-0.37,0-0.69-0.095-0.905-0.345c-0.239-0.263-0.346-0.656-0.346-1.454v-3.35
			h-0.702v-0.691h0.702v-0.977L224.586,217.551z"/>
		<path d="M229.951,221.782c0,2.229-1.026,2.979-1.921,2.979c-1.035,0-1.869-0.94-1.869-2.967c0-2.097,0.94-2.979,1.932-2.979
			C229.129,218.814,229.951,219.78,229.951,221.782z M227.08,221.782c0,0.953,0.165,2.252,1.001,2.252
			c0.786,0,0.952-1.348,0.952-2.252c0-0.883-0.166-2.241-0.978-2.241C227.234,219.541,227.08,220.9,227.08,221.782z"/>
		<path d="M233.791,224.523c-0.202,0.119-0.549,0.214-0.953,0.214c-1.264,0-2.11-1.013-2.11-2.92c0-1.655,0.835-3.003,2.276-3.003
			c0.312,0,0.643,0.083,0.811,0.181l-0.179,0.751c-0.12-0.061-0.357-0.156-0.655-0.156c-0.929,0-1.335,1.097-1.335,2.229
			c0,1.348,0.514,2.157,1.358,2.157c0.238,0,0.454-0.048,0.656-0.154L233.791,224.523z"/>
		<path d="M238.049,221.782c0,2.229-1.026,2.979-1.92,2.979c-1.037,0-1.871-0.94-1.871-2.967c0-2.097,0.939-2.979,1.931-2.979
			C237.225,218.814,238.049,219.78,238.049,221.782z M235.175,221.782c0,0.953,0.168,2.252,1.002,2.252
			c0.786,0,0.953-1.348,0.953-2.252c0-0.883-0.167-2.241-0.978-2.241C235.329,219.541,235.175,220.9,235.175,221.782z"/>
		<path d="M241.888,224.523c-0.203,0.119-0.548,0.214-0.954,0.214c-1.264,0-2.108-1.013-2.108-2.92c0-1.655,0.834-3.003,2.275-3.003
			c0.312,0,0.645,0.083,0.812,0.181l-0.18,0.751c-0.119-0.061-0.355-0.156-0.655-0.156c-0.93,0-1.334,1.097-1.334,2.229
			c0,1.348,0.513,2.157,1.357,2.157c0.239,0,0.453-0.048,0.656-0.154L241.888,224.523z"/>
		<path d="M245.416,224.523c-0.202,0.119-0.547,0.214-0.951,0.214c-1.264,0-2.111-1.013-2.111-2.92c0-1.655,0.836-3.003,2.276-3.003
			c0.311,0,0.644,0.083,0.812,0.181l-0.18,0.751c-0.119-0.061-0.357-0.156-0.654-0.156c-0.931,0-1.337,1.097-1.337,2.229
			c0,1.348,0.514,2.157,1.359,2.157c0.239,0,0.453-0.048,0.655-0.154L245.416,224.523z"/>
		<path d="M247.195,217.409c0,0.355-0.216,0.595-0.561,0.595c-0.299,0-0.525-0.238-0.525-0.595c0-0.358,0.238-0.599,0.537-0.599
			C246.979,216.811,247.195,217.05,247.195,217.409z M246.205,224.666v-5.77h0.917v5.77H246.205z"/>
		<path d="M248.054,226.096c0.679-1.072,1.238-2.706,1.238-4.852s-0.561-3.754-1.238-4.826h0.715c0.618,0.882,1.3,2.467,1.3,4.826
			c-0.024,2.358-0.682,3.934-1.3,4.852H248.054z"/>
	</g>
	<g>
		<path d="M342,206.39c0-0.882-0.036-1.395-0.048-1.801h0.811l0.048,0.739h0.023c0.321-0.608,0.773-0.822,1.229-0.822
			c1.015,0,1.668,1.062,1.668,2.955c0,2.146-0.882,2.991-1.787,2.991c-0.549,0-0.857-0.347-1.013-0.667h-0.024v2.859H342V206.39z
			 M342.905,208.249c0,0.166,0.015,0.333,0.049,0.477c0.178,0.822,0.598,0.965,0.848,0.965c0.763,0,1.012-1.048,1.012-2.204
			c0-1.191-0.287-2.192-1.024-2.192c-0.417,0-0.8,0.513-0.846,1.038c-0.022,0.131-0.037,0.285-0.037,0.439L342.905,208.249
			L342.905,208.249z"/>
		<path d="M349.809,209.046c0,0.439,0.012,0.94,0.06,1.312h-0.82l-0.062-0.607h-0.034c-0.25,0.439-0.655,0.703-1.155,0.703
			c-0.764,0-1.359-0.645-1.359-1.645c0-1.454,1.155-2.086,2.455-2.098v-0.179c0-0.774-0.202-1.301-0.918-1.301
			c-0.357,0-0.679,0.107-0.952,0.3l-0.204-0.645c0.25-0.18,0.774-0.382,1.349-0.382c1.155,0,1.645,0.751,1.645,2.038v2.503H349.809z
			 M348.915,207.367c-0.479,0-1.586,0.095-1.586,1.347c0,0.763,0.381,1.023,0.704,1.023c0.403,0,0.737-0.297,0.846-0.868
			c0.022-0.107,0.036-0.228,0.036-0.335V207.367L348.915,207.367z"/>
		<path d="M352.099,203.1c0,0.357-0.214,0.596-0.561,0.596c-0.297,0-0.523-0.237-0.523-0.596c0-0.357,0.238-0.597,0.535-0.597
			C351.885,202.503,352.099,202.743,352.099,203.1z M351.11,210.358v-5.769h0.917v5.769H351.11z"/>
		<path d="M353.291,206.08c0-0.488-0.035-1.062-0.047-1.49h0.82l0.049,0.919h0.023c0.189-0.549,0.679-1.002,1.216-1.002
			c0.071,0,0.131,0,0.19,0.012v0.931c-0.061,0-0.119,0-0.19,0c-0.584,0-1.014,0.535-1.107,1.19
			c-0.024,0.155-0.036,0.334-0.036,0.525v3.192h-0.918V206.08L353.291,206.08z"/>
		<path d="M356.105,209.405c0.202,0.132,0.56,0.299,0.93,0.299c0.513,0,0.848-0.321,0.848-0.834c0-0.44-0.156-0.739-0.74-1.133
			c-0.751-0.478-1.155-0.979-1.155-1.634c0-0.94,0.689-1.597,1.584-1.597c0.454,0,0.787,0.154,1.025,0.299l-0.238,0.689
			c-0.226-0.154-0.465-0.263-0.773-0.263c-0.487,0-0.738,0.358-0.738,0.739c0,0.382,0.143,0.596,0.714,0.99
			c0.668,0.428,1.193,0.953,1.193,1.751c0,1.155-0.787,1.716-1.741,1.716c-0.416,0-0.882-0.131-1.132-0.333L356.105,209.405z"/>
		<path d="M344.086,216.418c-0.681,1.072-1.24,2.682-1.24,4.852c0,2.132,0.562,3.74,1.24,4.826h-0.716
			c-0.62-0.906-1.3-2.504-1.3-4.84c0.023-2.334,0.68-3.944,1.3-4.838H344.086L344.086,216.418z"/>
		<path d="M345.553,221.865c0,1.775,0.703,2.146,1.358,2.146c0.405,0,0.727-0.096,0.952-0.215l0.154,0.668
			c-0.32,0.166-0.809,0.272-1.273,0.272c-1.384,0-2.098-1.133-2.098-2.895c0-1.86,0.798-3.028,1.954-3.028
			c1.167,0,1.646,1.239,1.646,2.527c0,0.226-0.013,0.381-0.023,0.522h-2.67V221.865z M347.364,221.185
			c0.012-1.144-0.417-1.656-0.858-1.656c-0.606,0-0.905,0.87-0.94,1.656H347.364z"/>
		<path d="M349.058,224.07c0-0.404,0.275-0.69,0.608-0.69c0.357,0,0.607,0.273,0.607,0.69s-0.227,0.69-0.62,0.69
			C349.321,224.76,349.058,224.487,349.058,224.07z"/>
		<path d="M354.912,223.926c0,1.514-0.192,2.086-0.573,2.515c-0.345,0.383-0.882,0.607-1.537,0.607
			c-0.489,0-0.965-0.118-1.264-0.285l0.216-0.715c0.227,0.119,0.607,0.25,1.071,0.25c0.728,0,1.181-0.452,1.181-1.764v-0.584h-0.025
			c-0.188,0.452-0.618,0.702-1.105,0.702c-1.025,0-1.694-1.154-1.694-2.849c0-2.12,0.967-2.991,1.826-2.991
			c0.605,0,0.894,0.405,1.07,0.728h0.022l0.05-0.645h0.811c-0.012,0.395-0.047,0.905-0.047,1.801L354.912,223.926L354.912,223.926z
			 M354.006,220.888c0-0.144-0.012-0.298-0.049-0.417c-0.096-0.394-0.31-0.871-0.832-0.871c-0.67,0-1.026,0.895-1.026,2.169
			c0,1.466,0.464,2.134,1.026,2.134c0.285,0,0.643-0.131,0.819-0.821c0.05-0.18,0.062-0.358,0.062-0.524V220.888z"/>
		<path d="M355.867,224.07c0-0.404,0.272-0.69,0.607-0.69c0.356,0,0.606,0.273,0.606,0.69s-0.227,0.69-0.62,0.69
			C356.129,224.76,355.867,224.487,355.867,224.07z"/>
		<path d="M360.1,220.698c0-0.883-0.036-1.396-0.05-1.802h0.812l0.048,0.739h0.022c0.322-0.608,0.773-0.822,1.229-0.822
			c1.014,0,1.669,1.062,1.669,2.955c0,2.146-0.884,2.991-1.788,2.991c-0.547,0-0.858-0.345-1.014-0.667h-0.022v2.86H360.1V220.698z
			 M361.005,222.556c0,0.166,0.012,0.334,0.047,0.478c0.181,0.821,0.597,0.965,0.847,0.965c0.764,0,1.015-1.048,1.015-2.204
			c0-1.191-0.287-2.193-1.025-2.193c-0.418,0-0.799,0.514-0.847,1.038c-0.023,0.131-0.035,0.285-0.035,0.44L361.005,222.556
			L361.005,222.556z"/>
		<path d="M364.868,220.387c0-0.68-0.035-1.024-0.048-1.49h0.799l0.047,0.703h0.023c0.25-0.464,0.715-0.786,1.323-0.786
			c0.797,0,1.396,0.584,1.396,1.979v3.873h-0.919v-3.706c0-0.691-0.131-1.371-0.799-1.371c-0.381,0-0.751,0.322-0.856,0.931
			c-0.037,0.144-0.049,0.321-0.049,0.523v3.623h-0.917V220.387L364.868,220.387z"/>
		<path d="M370.341,221.865c0,1.775,0.703,2.146,1.356,2.146c0.406,0,0.728-0.096,0.954-0.215l0.154,0.668
			c-0.32,0.166-0.81,0.272-1.275,0.272c-1.383,0-2.096-1.133-2.096-2.895c0-1.86,0.797-3.028,1.953-3.028
			c1.167,0,1.646,1.239,1.646,2.527c0,0.226-0.013,0.381-0.023,0.522h-2.669V221.865z M372.151,221.185
			c0.013-1.144-0.416-1.656-0.857-1.656c-0.607,0-0.906,0.87-0.94,1.656H372.151z"/>
		<path d="M377.481,223.092c0,0.632,0.035,1.144,0.047,1.573h-0.798l-0.073-0.608h-0.021c-0.166,0.287-0.609,0.703-1.229,0.703
			c-1.001,0-1.406-0.786-1.406-2.216v-3.647h0.918v3.518c0,0.904,0.145,1.571,0.775,1.571c0.535,0,0.774-0.501,0.82-0.763
			c0.037-0.154,0.048-0.333,0.048-0.523v-3.803h0.919V223.092z"/>
		<path d="M378.771,220.387c0-0.68-0.037-1.024-0.049-1.49h0.8l0.046,0.717h0.023c0.25-0.466,0.693-0.8,1.3-0.8
			c0.537,0,0.988,0.251,1.204,0.883h0.023c0.153-0.286,0.356-0.523,0.572-0.656c0.227-0.154,0.499-0.227,0.798-0.227
			c0.773,0,1.384,0.562,1.384,2.038v3.813h-0.906v-3.611c0-0.751-0.107-1.478-0.812-1.478c-0.382,0-0.714,0.321-0.845,0.87
			c-0.023,0.144-0.037,0.321-0.037,0.513v3.706h-0.906v-3.777c0-0.632-0.104-1.312-0.797-1.312c-0.382,0-0.751,0.321-0.858,0.941
			c-0.023,0.144-0.034,0.311-0.034,0.487v3.659h-0.905V220.387L378.771,220.387z"/>
		<path d="M389.702,221.782c0,2.229-1.024,2.979-1.919,2.979c-1.036,0-1.871-0.94-1.871-2.967c0-2.097,0.942-2.979,1.932-2.979
			C388.881,218.814,389.702,219.78,389.702,221.782z M386.83,221.782c0,0.953,0.168,2.252,1.002,2.252
			c0.787,0,0.953-1.348,0.953-2.252c0-0.883-0.166-2.241-0.979-2.241C386.986,219.541,386.83,220.9,386.83,221.782z"/>
		<path d="M393.542,224.523c-0.203,0.119-0.548,0.214-0.952,0.214c-1.264,0-2.11-1.013-2.11-2.92c0-1.655,0.835-3.003,2.276-3.003
			c0.31,0,0.644,0.083,0.809,0.181l-0.177,0.751c-0.12-0.061-0.358-0.156-0.655-0.156c-0.93,0-1.336,1.097-1.336,2.229
			c0,1.348,0.513,2.157,1.359,2.157c0.238,0,0.452-0.048,0.654-0.154L393.542,224.523z"/>
		<path d="M397.799,221.782c0,2.229-1.026,2.979-1.92,2.979c-1.036,0-1.87-0.94-1.87-2.967c0-2.097,0.941-2.979,1.932-2.979
			C396.977,218.814,397.799,219.78,397.799,221.782z M394.928,221.782c0,0.953,0.165,2.252,1.001,2.252
			c0.786,0,0.952-1.348,0.952-2.252c0-0.883-0.166-2.241-0.978-2.241C395.082,219.541,394.928,220.9,394.928,221.782z"/>
		<path d="M401.639,224.523c-0.202,0.119-0.549,0.214-0.953,0.214c-1.264,0-2.11-1.013-2.11-2.92c0-1.655,0.835-3.003,2.276-3.003
			c0.312,0,0.643,0.083,0.812,0.181l-0.18,0.751c-0.12-0.061-0.356-0.156-0.655-0.156c-0.929,0-1.335,1.097-1.335,2.229
			c0,1.348,0.514,2.157,1.358,2.157c0.238,0,0.454-0.048,0.656-0.154L401.639,224.523z"/>
		<path d="M405.168,224.523c-0.203,0.119-0.548,0.214-0.953,0.214c-1.265,0-2.109-1.013-2.109-2.92c0-1.655,0.834-3.003,2.277-3.003
			c0.309,0,0.643,0.083,0.809,0.181l-0.178,0.751c-0.119-0.061-0.357-0.156-0.656-0.156c-0.93,0-1.335,1.097-1.335,2.229
			c0,1.348,0.513,2.157,1.36,2.157c0.237,0,0.45-0.048,0.653-0.154L405.168,224.523z"/>
		<path d="M406.945,217.409c0,0.355-0.214,0.595-0.561,0.595c-0.297,0-0.523-0.238-0.523-0.595c0-0.358,0.238-0.599,0.535-0.599
			C406.731,216.811,406.945,217.05,406.945,217.409z M405.956,224.666v-5.77h0.917v5.77H405.956z"/>
		<path d="M407.805,226.096c0.68-1.072,1.238-2.706,1.238-4.852s-0.56-3.754-1.238-4.826h0.714c0.62,0.882,1.3,2.467,1.3,4.826
			c-0.023,2.358-0.68,3.934-1.3,4.852H407.805z"/>
	</g>
</g>
</svg>
