<?xml version="1.0" encoding="utf-8"?>
<!-- Generator: Adobe Illustrator 15.1.0, SVG Export Plug-In . SVG Version: 6.00 Build 0)  -->
<!DOCTYPE svg PUBLIC "-//W3C//DTD SVG 1.1//EN" "http://www.w3.org/Graphics/SVG/1.1/DTD/svg11.dtd">
<svg version="1.1" id="Layer_1" xmlns="http://www.w3.org/2000/svg" xmlns:xlink="http://www.w3.org/1999/xlink" x="0px" y="0px"
	 width="411.023px" height="260.736px" viewBox="0 0 411.023 260.736" enable-background="new 0 0 411.023 260.736"
	 xml:space="preserve">
<metadata><?xpacket begin="﻿" id="W5M0MpCehiHzreSzNTczkc9d"?>
<x:xmpmeta xmlns:x="adobe:ns:meta/" x:xmptk="Adobe XMP Core 5.0-c060 61.134777, 2010/02/12-17:32:00        ">
   <rdf:RDF xmlns:rdf="http://www.w3.org/1999/02/22-rdf-syntax-ns#">
      <rdf:Description rdf:about=""
            xmlns:dc="http://purl.org/dc/elements/1.1/">
         <dc:format>image/svg+xml</dc:format>
         <dc:title>
            <rdf:Alt>
               <rdf:li xml:lang="x-default">Print</rdf:li>
            </rdf:Alt>
         </dc:title>
      </rdf:Description>
      <rdf:Description rdf:about=""
            xmlns:xmp="http://ns.adobe.com/xap/1.0/"
            xmlns:xmpGImg="http://ns.adobe.com/xap/1.0/g/img/">
         <xmp:MetadataDate>2015-02-25T16:32:22+02:00</xmp:MetadataDate>
         <xmp:ModifyDate>2015-02-25T16:32:22+02:00</xmp:ModifyDate>
         <xmp:CreateDate>2015-02-25T16:32:22+02:00</xmp:CreateDate>
         <xmp:CreatorTool>Adobe Illustrator CS5.1</xmp:CreatorTool>
         <xmp:Thumbnails>
            <rdf:Alt>
               <rdf:li rdf:parseType="Resource">
                  <xmpGImg:width>256</xmpGImg:width>
                  <xmpGImg:height>164</xmpGImg:height>
                  <xmpGImg:format>JPEG</xmpGImg:format>
                  <xmpGImg:image>/9j/4AAQSkZJRgABAgEAyQDJAAD/7QAsUGhvdG9zaG9wIDMuMAA4QklNA+0AAAAAABAAyQAAAAEA&#xA;AQDJAAAAAQAB/+4ADkFkb2JlAGTAAAAAAf/bAIQABgQEBAUEBgUFBgkGBQYJCwgGBggLDAoKCwoK&#xA;DBAMDAwMDAwQDA4PEA8ODBMTFBQTExwbGxscHx8fHx8fHx8fHwEHBwcNDA0YEBAYGhURFRofHx8f&#xA;Hx8fHx8fHx8fHx8fHx8fHx8fHx8fHx8fHx8fHx8fHx8fHx8fHx8fHx8fHx8f/8AAEQgApAEAAwER&#xA;AAIRAQMRAf/EAaIAAAAHAQEBAQEAAAAAAAAAAAQFAwIGAQAHCAkKCwEAAgIDAQEBAQEAAAAAAAAA&#xA;AQACAwQFBgcICQoLEAACAQMDAgQCBgcDBAIGAnMBAgMRBAAFIRIxQVEGE2EicYEUMpGhBxWxQiPB&#xA;UtHhMxZi8CRygvElQzRTkqKyY3PCNUQnk6OzNhdUZHTD0uIIJoMJChgZhJRFRqS0VtNVKBry4/PE&#xA;1OT0ZXWFlaW1xdXl9WZ2hpamtsbW5vY3R1dnd4eXp7fH1+f3OEhYaHiImKi4yNjo+Ck5SVlpeYmZ&#xA;qbnJ2en5KjpKWmp6ipqqusra6voRAAICAQIDBQUEBQYECAMDbQEAAhEDBCESMUEFURNhIgZxgZEy&#xA;obHwFMHR4SNCFVJicvEzJDRDghaSUyWiY7LCB3PSNeJEgxdUkwgJChgZJjZFGidkdFU38qOzwygp&#xA;0+PzhJSktMTU5PRldYWVpbXF1eX1RlZmdoaWprbG1ub2R1dnd4eXp7fH1+f3OEhYaHiImKi4yNjo&#xA;+DlJWWl5iZmpucnZ6fkqOkpaanqKmqq6ytrq+v/aAAwDAQACEQMRAD8A9U4q7FXYq7FXYq7FXYq7&#xA;FXYq7FXYq7FXYq7FXYq8p88Q/mLqH5n29hofrv5dtrLT7jUoi1utqedxe89pQJGm5QQMOBoqq3L7&#xA;S1VS/wAkaL+cunX2l2F/FPDo9idOhZTcWjQtbxwyfWF+F3lURkovwoS7KBshLhV7DBOZC0bjhNH9&#xA;tOuxrxYezUxVVxV2KuxV2KuxV2KuxV2KuxV2KuxV2KuxV2KvK5fz+0v09OaDRLyuoxW1/CJnhjpp&#xA;t1cJbx3RKNLuTJUR/a2INMVQT/8AORWl3cNkmnaVdW9zevagS3ogMMX1i7aIpL6U5bk0EMkistVG&#xA;wbfbFUzb8/fLh0qPUrfStQuYngkuRHGLYMyQyyRy+kXmVJfTWH1GKMRxZN6soxVmnlDzTaeZtEi1&#xA;W3gltOclxDJZ3Hp+tG9tcS2sgf02kT+8gahDEHFU6xV2Kpdr/mLRfL+n/pHWbpbKx9WKA3Dhigee&#xA;QRRhioPEF2A5HYd8VTHFXYq7FUPqGo2OnWrXd9OltbKyI00rBUDSuI0qx2FXYDFURirsVdirsVSr&#xA;U/M+kaZrOkaPeS+nfa480enJTZ2t4jNICa7fAMVTXFVG4gZ+MkRCzx19Nj0Neqt/kmgxVJvNnnPT&#xA;PLHle78x6ikn1KwMYvI0AMiB5Uibau/D1OXuOnXFU+R0dFdGDIwBVgagg7ggjFW8VdirsVdirsVd&#xA;irsVdirsVdirsVdirG7T8uvJ1rPcPFpkHoXCQxrZenGLaJbedrpPSiVQqn6xIZa9eVP5RRVStfyu&#xA;/L+0v0vbfQbKJ4reK1to0t4ljhjinkuf3KhRwLTTFmp1oMVRcHkLyTbwNb2+hWMMLoY2jjt41BRu&#xA;dV2A2PrPt/lHFUwg0exs7ZYdOhjsxHJLNGIlCrznkMs1VFKiWRiz+JNetDiqJt5xKpqOEiHjLGdy&#xA;rUrT39jiqriqUebvLGneafLOpeXtRXlaalA0LmgYox3SRQduUbgOte4xVjf5La7qGpeSI7HVpDJr&#xA;fl+4m0XVWJJJnsyFBLHdyYylW7mpxVneKuxV5r/zkcjyfk5rsK8qzSafCQn2iJNRt0YCniGpirKP&#xA;J3mOxvvKOh3txewm4utPtZpiZUqXkhVmrv4nFU2fWtHjQvJf26IoqzNKgAHiSTiqBn87+S7cAz6/&#xA;psIb7Jku4FrTwq+KqP8AysPyB/1M2lf9J1t/zXirz/8AMrzP5R1DzN5MvLDXdPnm0/UY2cw3UMhW&#xA;Ka7tY5K8WbjVTv02B3xV6vZ6ppl8K2V3DdChNYZEk2BoT8JPfFUTiry3/nI4xD8s761BrPq0sFol&#xA;uNzcFH+smJQCD6jR27Bf86KvS9Pga3sLa3fdoYkjbcndVAO569MVYN+b35s2HkPSI4raMaj5r1Qi&#xA;DQtFj+KWWaQlUd0U8/SDbGn2j8I36Ksv8t/pn/Dul/pwqda+pwfpQoAEN16S+vxC/DT1K0piqY4q&#xA;7FXYqwjzh+bGj+V9Z/RVxp99fTJHbSzNZxpJx+uSypEqx8xI7cbaZzxU7LT7TAYqkdh+dYs/K1xr&#xA;3mK0/cpqh0yL6ih2P1JLpOSyOxLO5ZBTuVFMVQ91+fNneajYWOgQAzS3Fut39bUOPq13DJLE8TQy&#xA;0D/uviVtxttvir1vFXYq7FXYq7FXYq7FXYq8/wDK35iS6x538x+Ur+x/RvmLQJne0AYtDfacxVoZ&#xA;A1PhYRzRcxvxZgR1K4qy3VPM/l7SLD6/rGo22l2oJVpbyWOBQ46pVyBy9hirFx+bmmagQvlbRdX8&#xA;yl/sXFpaNb2le1bu+NrCR7ozYqwfylc/mh/jzzdaaHZ6TpE1zJDf6haarLcXRhnlDgel9V9NHrH6&#xA;byfGKcgBXqFWd/4W/NK63vvPEdny6x6VpUEfEbbB7yS+++mKrh+WBlH+n+bfMl6e5/SH1Sv/AEgx&#xA;2lP8/eqq3/lSv5buyveaZLqTKQ1dRvb2+BYUoStzNKvbwxVqD8jfyghQqnlHTCCa/HAsh+9+RxVH&#xA;wflR+V0HAw+UNFVo/sP+j7UsKf5Rj5Yqj4PI/kq3JMHl/TYS32jHZwLWnjRMVVv8J+Vf+rNY/wDS&#xA;ND/zTiry3zd5Q8nat+cXl3RF0OwaC1t3u9WhFrDwmimWVkEoC8X4TWUWzdA/+VirOZ/yg/KmZAre&#xA;T9GShqGisbeJgf8AWjRW/HFUK35N+TIvi0ptS0SXaj6Zqd9bCgNaemJjER80xV5OvlTzR51/Moab&#xA;pvmm/n0Dym31yx1PVI7a+43iSemCAkduJVeaJlT1GJAicg0dTir1K51v83tDgd73QbDzRCikibR5&#xA;2srk08bS75of9jcV8Biry38hZPL+q+ctV81+edTjH5kXM7x2ui6iPq09nFxCkQRTBWJqGReNeKDs&#xA;WbFX0hirsVQ8t4iyGGJTNOOsa9FqKjm3Rf1+AOKrRaPMeV4wkHUW67RD593p4tt34jFUHqvlLyvq&#xA;90LvVdIs766WMQCa4gjlf0hIJQnJgTxEi8gOxxVtPKnlpLN7JdMthaSTC5e39JeBmUKqyFaU5AIB&#xA;X2xVDp5D8lR3YvI9DsUuh6X79YI1f9wnpxfEBX92h4r4DFU9xV2KuxV2KuxV2KuxVZcXEFvBJcXE&#xA;iwwRKXllkYKiqoqWZjQAAd8VeG3OjeafPf5ijzh5Eum0HRYoEt/8SXcIf62yrLHI9jayD95G8cqf&#xA;vJOKs0aFeQG6r0DRvyq8r6NeJrH1d9b8wKB62r6s/wBcvJP9SSX4YSP2RGFXt7hVmcUscsayRmqN&#xA;0O4+8HcH2xV5dfumifnpa3ClYYNZtRHdMx4q7zW8peRqmn7oaLAgP/FlMVZpf/mD5D09gl75i023&#xA;kP2Ynu4A7HfZU5cj07DFUA35o+W5P+Ofb6pqpPQ2Ol38sf8AyOMKw9v58VaTz3rcwY23kfXpVABD&#xA;OdLtwa1ptPfxP2/lxVVHmrzeaV8lXwr43mm7fdc4qqz+YPOCgeh5VkkP7XqXtqlPlQvXFVL/ABF5&#xA;7/6lH/uY2/8AzTiqxNe/MdyxHlO1jUGi+rqqhiPGkdtKB9+Ksct9D/Ma288S+bv0LYTy3UdxbPZH&#xA;UnQwQvHZCMrJ9VYSVks5DTitOXXrirJ/8UebYP8AevydeS70LWF3YTgD+b/SJrNiOvRa+2KpX5h8&#xA;+X0+jXlhp+i65Ya3eRNbWEz6dNKkU8wKJI0tv60KiNviLM4X3piqF/LDUPKei2c2kSzxaXrV1eTn&#xA;9F3dba49GFvq1nHGkwjaQJZwwrySoJ374q9HxVLtc8uaBr1mbLW9NttTtTX9zdxJMoJ7qHBofcYq&#xA;we68keYvKJE/kDWSsB+z5S1hpbyykC0qtrLVrq1IB7F4x3WmKpt5Z8+WvmHUJtF1COby/wCYLZeV&#xA;z5fuSFuWT/fsMy/BNCf54SfcjpirMYoooYxHEgRF6KooNzU4quxV2KuxV2KuxV2KuxV2KqGoWYvb&#xA;G4tDLLALiNozPbuYpk5CnKNxurDscVebXv5R+coAToP5k65btWqrqRi1BQfYkQn/AILkPY4qowaz&#xA;+fHlTfXdJtPO2kJ9q90dxb6mqDq72sixQyt4JFT54qlOjeevLf5teZX0/UJ/0d5Y06RUg8tahS3u&#xA;tUvkoX+sRMaPDbP8Poqx5OKvsAMVe1qqqoVQFVRRVGwAHYYqhtV1XTtJ0+bUNRuEtbO3XlLM52A6&#xA;AADcknYKNydhvirzTW/NOsqV1rWdWPkny5dyLFZaWsccus3wIP7z03Sf0nIpSKKNpOO7FW+EKtWF&#xA;jpGqBbrSvI+o66JOLR6n5ouGER48ihRNRkurpB8ZI42wXfbFWRWWjfmCicbT/D/l1D9qK1tJ780r&#xA;UgSc9NX6TH9GKpX51bVPKvlq98xeZfPWpwabZhPWTTLPTYmYyOsaqgmt7l6lm7OPniqH8h2ek+e/&#xA;K0HmTTfNPmV7HUOYVLi5itpY2icxupW2jVQar+yx+eKp4v5Y2kbB38y+YmRd2VtWuApA8SCD+OKs&#xA;b1O5/J3Tbx4tQ87ahNdgcTZQ+YtUklUj/iizuedf9jiqN0e2/J3zDfLa215PeX8/JorS/vdTEsnA&#xA;VZo4ryVWcqvUqNh7Yqny/ll+X7sypp6syGjqLi4JUneh/ebYqrwflp5HhcsmloSRT45JpB9zuwxV&#xA;0/5beTJSWFg0DFeJe1uLm2ala9YJIziqHH5dR25rpnmPXtPI3UfpB74Cle2pLfDv3xVbPonneCyk&#xA;tZ7qw82WLiklnqsC2kzr3DTW6yW7ey/Vl92xVjdqum6dfxWOk3995D1eVuFtompqLjSLhuyW6s72&#xA;9D2S0njenVRirLdH833A1KLQvM1quk67MpNoUcyWV6EFXNpMyoSyjdoXUOBuAyjlirJViiWR5FQC&#xA;SSnNwNzxFBU+2KpH5w8k6J5qsUt9QV4rq2b1dN1O2YxXlnOPszW8y/EjD7j0IIxV5jr35q/mJoOo&#xA;W/kRtM+veb5P95tYjg9WK9tSSsdzBaJJCBLs3rCWaOKMivKjKMVUX0L/AJyS1O64NqkunROtY7l7&#xA;vTIUiJpXlb2+n3bt7L65/wBbFXqPkTy1qvl7y+ljq+t3PmDU3kae71G6J3kelUiQk+nEtPhWvie+&#xA;KshxV2KuxV2KuxV2KuxV2KsT/MTWNUt7Cy0PRJTBr3mK5FhY3IAY20fEyXV3Q7fuIEYrXbnxHfFU&#xA;Hrf5M+QNX0WDS5NPW3a0hW3tr+EL9ZCp9n1HdXWf4qtSZXHI8qct8VYsLz8zvyzkWCe0m85eT+VE&#xA;uYXJvbNPBhKzvwUfzuy9+cSgJiqLvfMM2vxWfmoWqTJLcx2PkPSZpIZopL+UEPqNw1rJNG3ogSEB&#xA;XPCON2HxOOKrNvK/k6z0T1LueeTVdeut7/W7oA3EpqTwSnwwwrX4Io6KvzqSqncUAikcoaRuSxj7&#xA;Biakjwr398VYN+Z35gzaKkWgaCyyeatTpHaA0ZbYScgksnIMo5FG48gQAryMCkb4qkWvfmB5Q1zy&#xA;xbaJrumt5jgvIoRPcyrFptjdzRgMZbcXk0E8iM6lk9BJNulRviqG0m5842ukRaL5J8vnRNIhqsUN&#xA;hZFWUk1Mn1vWW09Ty7sLSavieuKqn/KrfOmuSepr81nxO5OqT3Ovv9FoRpumRN/q27j54qibrS/y&#xA;98rwyweY/Md3qV1GFFxaR3H1OGNTuiy2um/VLeKM/sm4HH/KxVL/ADJoejppOm+avKYbRIVuhFfw&#xA;ykxpb3qSFLa4uU5MoaK6At52Bo0EslWKgHFXk/5P6hJ5b896r5i0jUrjzhqfmC3eQ6NaRTKRJcyL&#xA;MXv5AsgV4pA6VhSRQakugqMVe1v5k/P0RNfN5bsYrZQXOmgJNdFR29Rb9Ur1+yjHwBO2Ksq8i/mB&#xA;pvmq2KcPqerwLyu9NcsWWjFGaMusTOgccTVFZT8LqrbYqkv56aR+ZOqeTVh8g3k1rqa3CNdx2siQ&#xA;XEtsVZSIpnKhWVyrU5LyAI5DuqyT8v7LzRY+S9Is/NVwt15ggt1TULhHMgeQE0Jcgcm405Hxriqc&#xA;ahp2n6lZy2Oo20V5ZTrxmtp0WSN18GRgVOKvONf8uRaIYNC1Cee68i6xPFbWUskjvdaLqRcGzeC5&#xA;YtJ6LzcVi5EmOTiK8GoqrL/J2tX17a3Om6uV/T+jSC11MoAqS1XlDdRqOiXERD0/Zbkn7OKsgxVg&#xA;f5meppOpeV/OMK1GkagtjqZ/7V2qlbaYmnaOf0Zf9jirPMVdirsVdiqWah5p8tac9yl/q1nayWcY&#xA;mu45p40eKIlQHdWYFVJdQCfEeOKrLbzd5Vukhe31iykW4MSw8biKrNOoaJQOVeTqwKjqa4qp6Z5z&#xA;8s6joVrrkWoQRaddwxTrJPIkRRZrcXSrIGb4H9FuZU9Bv0xVd/jHyryAGrWjL6bytKsyNEqRhCxe&#xA;QEom0yEciKg7YqnGKuxViFpw1P8ANO/nb4o/LumQ2kAP7NxqUjT3G3iIba33/wAo4qy/FUg89XVz&#xA;D5angtZWgu9Rkt9Nt50NHia/nS19VfeISmT/AGOKpHpml2E35ix2VpAsOk+SdKit9PtkFEjutR5B&#xA;uPvFa2yqPaU+OKs1jvrKW5ltYriN7mChngV1MiBhUc1BqtffFUB5m1+LQ9La7Mf1i6kYQWFmGCNP&#xA;cSV4Rhj9kbFnboqBmOwOKvBLqaytLVrzUJX1XzL5xW5kK26yNcjSvT5TSxxoJJIDfhY4ICaelCyV&#xA;oySFlU68ma9q8WnLY+V9NtW1uXk+sahaxRahcyXMjF5Vd4pIrC1jQ7RLNeMyoFX0vhpiqQeeNR/R&#xA;9xBHrvm36/5hkuY1Gi281xccI43V7sTXUJt7S3kjt+TD0baJweO7DfFWb6F5e/N7zhodivmnU/8A&#xA;DOmm3iWWz06X1L2eiAFpbgE8GbrX1GVq0aPviqZavoX5Vflh5WkvJtKjuWWKWO3ilAubu4ZkLSxx&#xA;GSvAOAWk48UA3OKvJvLuj6NqKWWn/mBq93ommNbTi98rtdBQ13YC2+rmUcTO8h026tWooEgZGY0N&#xA;cVRv5V/mzpHl2e98teXdEm1cTui2q2Nu0SPeRCWF3kCRvJGtzb2iXNDF8LGX4QAKqvQ9W/Mv8yNH&#xA;t7fUNU8pi3sZrhITH6kbH94CUVZUmd+cjDhH6lugLlVYrWuKqn5jaZb262H5haCyRzK1vLNcL8KO&#xA;JOKW87n+RwwgnP8Avl+RqYY6KvQ9D1iz1rSLTVbPl9XvI1lRXHF1r9pHX9l0aqsOxFMVR2KuxVLP&#xA;M2g2vmDy9qOi3RKw6hA8BkH2kZh8MiHsyNRlPYjFWA2Ulzcax5C813BkhuPMVkdH1+OOSRFM4tXv&#xA;ICeDL/dTW8yL/wAZDir0f9GW388//SRP/wA14qxb809Fin/LTzVHHJOJhpN68J+sTbSJbu6HdyPt&#xA;KMVTzRYoL/RrC+Zpw13bxTkC4npWRA38/viqN/Rlt/PP/wBJE/8AzXirv0Zbfzz/APSRP/zXirhp&#xA;tuDXnP8A9JE//NeKvO9c/J1dS8xvcm65aZf6jJql8SqrPGfqYgECuATKrTxwzLzp6fpU3qKKpB/0&#xA;LnHBfxXJ1oSRSXNtcajK1tEhEdosrn0+Rf45JZmo5asa0ArTdVEw/wDOOVvHpt3YP5juZUudOt9N&#xA;SV4QzxLbadPp/wC7rIVCOLks0YWmw35fHiqKvf8AnHzSn1STULDUVsCZTcQWyWcTQLINS/SMfOPk&#xA;quilVjK7VUdRir1rFXYqwzyYWHnn8wFc1P6RsXjBNaRnSbVR8hzV8VZnirGvOxTl5f8AU5emdZte&#xA;XGvXjJwrTt6nHFVHyjHx80+eHf8AvH1W24b/AO6RpFjx/wCSnqYqwL8s/wDnH+98n/mhrXnG51r6&#xA;7b3puTZwKpWU/WpebC5ZgefEAfZO7b7dMVejecPKI8wfUZBqD2D2DTHkIoZ0eO4haCVWjnV0r6bk&#xA;BqbVPUHFXknkz8vvKmt63FDDDJd6RLOuuSxzlRC1lETFYGW3hSG2Z7+eN7gfu/7lAhpXdVO9NHnH&#xA;8w7F0s7iLy9oEa24FjCHVY0urWK8SNliML3DiC5j5fHHCrEoY5gCcVSX83dF8g+T/JsOiWksK6ne&#xA;yCG9dpYhem0WCZ2biOAihD04qipErMKAE4qytfzR84+YBw8k+WfWhbZNSvZAbdR2YGIrazJ4+jds&#xA;w/l8FXjH5nW+oJ54hk/M7WDqU8UMT/ovQ5xBHDBIzlV9V1X0lWeOMv6iB3DKyOzJxxV6L+Uf5OCO&#xA;9n1PX/L9pY6Cks9xougXKteMk10ltG1w5ug0gZUs/hMgDkyOSkey4qyX82vLM9vcaL5q0JI7fVdN&#xA;nhtA32IyrvS0VyNlT6w/oM1PhimlOKrPNf5qeR9W8oRNZ36z6hLc6dImmRBpLmC6W8hkSG4SIOYJ&#xA;FkSlJKbjFWJabr35hecvy8svJvlzy60OmvpUWl6jr+pkRxOogWCUxApwIdakSRrLToUB6KvYPI+g&#xA;3+h+Xo7LUZop7+Se6u7prcMsIlvLmS5dYuZL8VaWlWNT1PXFUL+Z/mvUfKXkHWvMenWi317psHqw&#xA;2z8uBJdVLPxoxVA3JqEbDqMVYV/zjj+a/m78xdA1O88xafFbGynSO0vraN4obhXDF1Adnq8RX4iD&#xA;T4h3xV6b5i12w0DQdQ1u/bjZ6dbyXM5HUrGpbiterNSgHjirw/QPP8y6N5R8uXegatBrOmaqDqIg&#xA;hS5UvbQPc3fom3kkZghuUR1Kgjlx+0CMVeq/8rP8qJtdDUrFh9oXelalbgb0+3JbqhFe4anviqQe&#xA;fPzU/LmfyJ5lgh8xWDXbaVeiOyaeOO5djbyKFSGQpIzFhSgGKs28rW0Vr5Z0m0idHjtrOCBWjYMh&#xA;EUap8LAmo+HxxVNMVdirsVeR+aPLn5z3HmDWrzRNVnt7RhONIt/Wt/QHK0McZMbgsCJmLCveh6Yq&#xA;leqeTPzp1GLU45dTvJrSe0a2gtJZbOFJgbG1gPrRRvOFLytdM3GWnKh6UxVVsdB/PyAWk5vJnc6j&#xA;EJobq6t5Wj003Exfl6YhieX6u6K7cT8QHBa1YKp/5F0f82LLzRC3mLUZrjQ4rIwqjm2l9SYySSGS&#xA;Z0eN1cBo1QqjVUENx6lV6TNNDBE800ixQxqWkkchVVQKksTsAMVeT+Yv+cnvyv0vUf0Xps8/mLUS&#xA;eAi0tUePl4evK8UTdP2C2Kob8qvzCj8yfmr5mVbRrH69pdhdC1kfm4e0klhkYjihWqzxihHao2OK&#xA;vZMVYt+ZrNB5PudTUMTo09pqz8dz6Wn3UdzOAP8AKhidfpxV0l1b6V52huWYCw8z28dvFOD+7+vW&#xA;nN41r05XFvIeP/GKnUjFWU4qg9a0xNV0a/0t5GhS/t5bZpk+2gmQoWWvccqjFUn8o+W/8MaTN9du&#xA;VvtUvJfVvryKIQrI4VYYIooeTenHFEiRonLtXqScVYRpX5OebEgW0uPMzadZCGC2lXSjdxXE0drC&#xA;lvDI8puVRZfRiRWIjKt4Yqxb8xPJnlfyNqHl0aTZSXuozTfpJjLODdXs9hqFg7RonRnkhklLrDFV&#xA;hXYnFWZNb/m/5wThLKPKOlygcilfrBB6qgVhcN/kyF7Zl7xNiqDt/If5RRTXfky11iFvOyoJRc3U&#xA;sUuoJLIPU5LCwWKkoUevEiASIf3gIapVQ3l38ytR8j2Z8teabSS8uNO4w2jQ3Nok/EHisZF9PaNL&#xA;FSjQzKWqlFkpKrVVRuq/mdqHmDT7nS4PJN1fWN9G9vcR3K3TRvG44sPUs7a7tzs3+/19jiqQv5B8&#xA;/an9Rms9HtrS5sbm1urO61v1J5YjaTpOqxXk2oarcojGJVZFt46ioqK1Cr2TyrozaH5Y0jRWl9Zt&#xA;Msrazabf4zbxLHy33341xVNMVdirsVeX+bAn5hmS1i1KTSvIeiSfWtV12IxqL24tTzSO2eZZIjb2&#xA;0ic5ZGVlZwEHRjiqTflj+XPmiOaXzRFrtxArrc2+gR6paRSzmzu5/rU11cov1YiW6uP3lNmEYVW3&#xA;2VVn0tj+aaEmHWdDnWh4pJpd3Ca9iXXUJQfoQYqxzWvNn5k6ZrmjaBf6Homuz620/ow291cWxVLW&#xA;ISTTSLNb3ChAWC/a+0yjvUKoS5i8o2Dm51jy/qP5fXjMS2saYwjsyxH95NPp7SWxX3vIgPbpirJb&#xA;TUPO2k26XjzQecdAdRIl7ZIkOpCJhUOIoybW7FN/3XpGn2UY7FVlGkaxpesafFqGmXKXVnNXhKh7&#xA;qaMrA0ZWVhRlYAg7EVxVGYq7FXYq7FXYqx7zx5E0DztpKaPr3ryaYJlnltoJ5IFmKV4pKYyrMlTW&#xA;leoB7YqqeVvInk7ypbfV/Luj2umIRR3gjAkf/XlNZH/2THFUn/MqC906Kw86aZC0995aZ3u7ZBV7&#xA;jS5+IvoVA6sqxrMn+VGB3xVR80/nF5T0iyjfTrmHWL64jjkt4IJQIVScAxPcTgOIlcGqLRpH6Ro5&#xA;2xVj0Xlbz959Uv5lu5dL0KU72fp+i0qb7JZMX4qa7m+Mpb/fEWKp4ItP0gJ5H81P9a0PUj6Xl7UZ&#xA;/gBIbkllJKvH07iEgG3deJYAcfjTdVMG1Dzd5YpHf2s3mXRFNI9Rs1DalCnYXFqoUXHH/fkHxn/f&#xA;f7RVTnQvN/ljXoJZtJ1KC6W3/wB6ow3GWAjqJ4n4yREeDqDiqOgR5pBcyqQB/vPEwoVBFORB/bYe&#xA;PQbeNVXiflf8vvzji/5yF1PzTrGoS/4OV7o2g+shop7aZGW2t1tlclPRLqSWQbrUVrir3TivINQc&#xA;gCA3cA0qPwxVvFXj8X/OPnl5/wA6rrz/AHN/cTOrQ6hBp1AqrdnkvIyKQWRfSBCU+ZI2Kr2DFXYq&#xA;7FXz5+fn5Sfmp51852FzoU0TaRCkC2UrXLQHT5lZ/Wm4Ky8i3JTyVWagoKU3Ve+WUdxBYQR3cwmu&#xA;IokW4uKcQ7qoDvTtU74qxm9/Mzy+Lp7DRI7jzLqaEq9ro6C4SNh2nuiyWsJ9pJQfbFWKa/5jhurx&#xA;bDz3rNtpVtKQW8o6VM88zRtsDql4gUxwHo3wxxdmkdcVTPydaz+dNPtNV1WKKw0CzkaLT/KNuKJB&#xA;LZyGKmofCgeSGSP4YVURoRX4yFYKvRcVQWt61peh6Td6vqtylpp1jG011cSfZVFHtuSegA3J2G+K&#xA;sT8gafqWrajd+fdbt2tb3VYlt9F0+UUkstLVuaK47TXLfvZR2+Ff2cVZzirCNa8vXflczeYfJ8BE&#xA;cZafV/LUIAgvI92kkt4x8MN2N2UpQSH4X3IZVVOJtL0/zdo/mXRnU6P51T6ve+l/dS3P1drqyvOP&#xA;QM8UUkTtSrVjr9nFWd4q7FXYq7FXYq7FUq8z+atA8r6RLq2u3iWVlFtzepZ3P2Y40FWkdv2VUEnF&#xA;Xmkmn/md+ZUq3FzJceTfKTbw2D8o7+4Q9DOkTpIvIfstIqjo0cg+LFUNY+Tbf8pNfGsG2OseS5Bx&#xA;a/kiR73Q3cfvZUSFEjFnKd5fSRSnUgqMVeyWl3a3lrFd2kyXFrOgkgniYOjowqrKy1BBHcYqs1DT&#xA;7DUbKax1C3ju7O4XhPbToskbr4MrAg4qxgaF5x0Bz/h29j1bSx9nRdXldXiHhb36pNLxA6JMkn+u&#xA;oxVItSbQde9K/wDOXlK8029tarFfWkMt7OGViOUF9pYe4jjA3qeG/UUAqq3pGqWN1e/UPLP5jepe&#xA;fsaPq6W93KvX/dTizv2/2cpxVkMTfmYkSukuh6orAFJVF3YKwO4IHLUOo/ysVaOrfmej0fyzpLoQ&#xA;aNBrM7EH3EmnQ/hXFVjeZfP6xc/8Gl5ABWNNStq17gFgg++mKoVvNfnddQmaDyRdySGGENG99p6A&#xA;ANLvUTPWuKouLzJ+YEsYP+DhDI37M+pW4A3/AGjEsv4A4qiV1H8xWEbDQdKQNX1FfVrgMo/2OnOp&#xA;+/FUJdXH5q8HdYvL9iiioklnvLgDf9r91a0298VY3ca/rsszQ3f5iack462HlvTBd3ajoPgkl1OQ&#xA;k/8AGHFUO/lqXU2UDy/q/mpq1W782331TTvm1gob8bEfPFWSWfkbzBewJB5g1r6tpqDjHoPl9G0y&#xA;0Vf5HuFY3b/7B41PdcVZDp/lPyzp2lT6TYaXbW2nXSut1bRRqqzCUESGWgq5YE8i1ScVYL+UpuNJ&#xA;8weYPLFzI8j27K6PIas72x+rGQ+72X1GV/F3Y+5VZ/5g8x6F5d0yXVNcvodPsIRV5524ivZVHVmP&#xA;ZVBJ7Yq8m84+XfPX5r6ct0lsuk+VbRxPpug6gZra61Zh0muZIWD2aKKtAtGPKjOtKDFUDof55av5&#xA;TkPl3zvp9xLdWij0Li6ms7LUHi6D1FupoLW7YMCvrW0zc+pRWqMVejeQPzb8jeezcQ6Dfcr+zqbr&#xA;Tpx6dxGoIUtxqyuoYgckYrXvirMsVeS6NIknlnyDp8Aqb7XZ7qxWvSwt3u7qOUf8V+gI1X/WXFXr&#xA;WKuxV2KuxV2KpZ5l0/WtQ0eez0bVf0Lfy0EeoiBLloxX4uMchCEkbVNaYqx3yp+VWi6LeR6vqd3d&#xA;+ZfMaV46zq8hnki5faFtGf3VuvtGtfEnFWa4q4gMCCKg7EHoRirwnzvfXn5Y+cLKLyFymh1JHutR&#xA;8lvU2btLKIYPqVAz289xM7URBwIVmIAU1VZ9B+aunWMrWvnLT7nyldIFLT3wEmnNyIA9PUYuVv1I&#xA;FJCjf5OKsot9Rs9WjB066jubJhWW7t3WRCCKhEdCRUg1JHQe5BCqPVVVQqgKqiiqNgAOwxV5r+c0&#xA;TXg0qwjYR3CJeXkE3w8kl4R6dE6luhjl1NJF/wApVPbFU9i/KnyPbxpHY2lzpscahI107UL+xAVR&#xA;QD/RZ4u2KomPyNFCoW31zWYgAwPK+knJDU73HrHbtTFWh5HcQmH/ABFrXAmpP1pOf/B+ny/HFUIP&#xA;IOnzanKtxqutShLeANx1W9gLfFLuxt5YT77U+7FUq85eT/KWieX7i7W3ub7UJStvp0V/qeo3CPdz&#xA;HjEZDNcSHghPOR+qoGPQYql/5W/l5b3flmy1TX7m71H1oAmjxyzTQelYklkkaON0pLdc/Wk5bryE&#xA;fRMVZlB+WvkCJ1k/w/YzSpQpNcQJcSKRWhDzCRh18cVZBb29vbxLDbxJDCmyRxqFUD2AoMVVMVcS&#xA;FBJNANyT0AxViOp/mr5JsrtrC2vjrOqr/wBKzR431C5BrSjrbCQRfOQqMVeV+Ztf89WXn/T9dj05&#xA;fJ9vrMn1W3utV9O8ISeOOC5mnhtZQqN/o9kVjMvRGZjxVgFXqOifljo9rqMWt67cz+ZvMcXxRapq&#xA;ZVxAx3P1S2ULb2wr09NOXixxVmOKqc9tb3ChZ4klUGoV1DAHx3xVZBYWNvI0lvbRQyMArPGiqxUG&#xA;oBIHTfFWJ+ZNZGu/XtB0u5Fvplurr5m18NwitYFH763hl2BuGSoZgaQj4m+LipVW+TNKN/qh8zyW&#xA;xstPgtRpnlXTmUxmHTwVLztGwBR7lo0ov7MaJWjFhirNcVdirsVdirsVdirsVdirsVeN+UdJvNc/&#xA;P7zjrGoR/wCh+W3t7fT69Gnnso1Qiv8AvmNpiP8AjOcVet3jCQfVFVXeYfGGAZVj6FmB2PgB3PsD&#xA;irFbn8nvy7ll+sW+kjTL0je90uWbTpy38zSWbwFm92riqkPy98y2IH6E89avAoNTBqS2upxnwHKa&#xA;Jbj/AJLYqwvzlH5+t9XtbTXbjTtbnS2iOlNbwzaaJ3k1zSl9K4LS3YTkyoOUfQHocVZVqv5o6/5d&#xA;sZL7zT5K1G1s4RymvdNntNQgUVp8VZLacDcf7qxVdpv506FqFkL6LQvMItecsZlXSbqcCSCRopUP&#xA;1dZt0eNlPYEU64qiT+dP5boSLnVJbIrUkXtlfWh2of8Aj4gi7GuKtWn5vflVNqNzIvm/R1T0YVDS&#xA;X1vGCQ0pIHN1rSo6Yqwb81vPHlHzAwt7LX7C40WytVhvr62uopYoZtZuY9N9RpY2ZEMNi94x3ruD&#xA;81WcQfnH+WfpLDpuptqCxjhFFplpd3uy/CAotYZdttu2Ktv+Zeo3AI0fyV5g1Bz9hpreHToyf8o3&#xA;81s4/wCAxVjfl784vPvmLXptF0/yTbWlxEt0xk1DVwiqbG6+pTqwtrW53Sbb4SQR0OKsik0X84NT&#xA;Y/WvMem6BBX+60qxa7np/wAxF6/p1/6N8VWR/k15buWEnmW/1TzVIDXjq95JJb170tIfQtaexjOK&#xA;sz0zSdK0q1W00uygsLRPsW9tEkMY7bIgVcVS3zn5Q0rzb5fuNG1JaRyjlDOoBeGUAhZFDVBpyIZT&#xA;8LKSrAqSMVUfy+0nzHo/lDT9K8xXcd/qlgr273sRYrLDHIy27nn8XL0eHOpJ5V3PXFWRYqp3Nzb2&#xA;tvLc3MqQW8KmSaaRgiIiirMzNQAAdScVYFrnmY6vpc+oT3cnl/yNFQT6oweK91AMeKx2i09SKKQk&#xA;KrgerJWkYX4XKqJ8t6Jeava2rX2mjQvK1pxOk+WOKrI4Uho5r9VqFIPxLbjofics1AirOMVdirsV&#xA;dirsVdirsVdirsVdiqGkFvamSSGFPrN04LBQFaWQKFBdgKmiIBU9FGKqlvB6QYs3OWQ8pZKUqfAD&#xA;eijoB/HfFVXFXYq868xXEOsfmxomi27iU6XbvdalGNwkfqRXC8iOjrcW9owU70fkMVVfz21qLR/y&#xA;5urqYVt2vdOjuSTQCFr+H1vDrGGGKp1+WWltpvkDQraRudxJaJdXcg6Nc3dbi4b/AGU0rHFWTYql&#xA;72dpcarOZ4I5isEPH1FVqVeXpUYq8z83WNtbfnh5Is7O2WFNUWe5vfRjVUZdMguHRpKU5H1biPjs&#xA;afdir1zFXYq8Z/KN/X/Njz2hIRdLaSFIacTyvdWv7iR6d+XFKn5Yq9mxV2KuxV2KuxVA61rWm6Lp&#xA;s2o6jL6VrDSpALuzMeKRxooLPI7EKiKCWOwxV5/rGpz3Mtle+abGW5vLxxJ5Y8g25V5WaOjC4vzX&#xA;0meNiGYufRg2+1JRsVZPpnlO4udSh17zPIl9q8PxWNnHU2VgSKH6urBS8tDRp3HI/shFPHFU91XV&#xA;LHStMu9Tv5RDZWUL3FzK3RY41LMfuGKsf0P8z/JeraANcbUoNNtF9T101CeCCSIR3L2fKUeoyqrz&#xA;RMqNyo3bFW778zPJtpe21r+kYbhbkTlru3likt4fqsltHMJ5Q9Iyv16NjXotSfdVHHz15JF7FYnz&#xA;DpovZ39OC1+uQeq7+qYOCJz5M3rKY6AfaBXriqd4q7FXYqxHXPzU8naLqkul3txMt3DcQ2cnC3ne&#xA;NZ7mNZY0aREZR8EiMx6KGWvUYqkdt+ffkg2TtezGDUvqy3kGnRLNO80Us4toPTKxKWeWVgAnHlTe&#xA;lMVQ+q/niNNgs7iXQpJobyxsbmJYJw8puNQtri7S3CGNagRWcnx13ag4itcVTTyh+cGi+ZtbXS7O&#xA;Bv3mnz6nDcI/qh47e8e04qoUMWZVSQezUxVm9vC5c3E4/fMKKnURr14j5/tHv9AxVXxV2KtMWCkq&#xA;KsBsOlTirCfyy/L248rwahqWsXg1LzTrsxudYvhURglmdIIAdxFHzNK7n2AVVVTvzz5VtvNflLVP&#xA;L1wwRNQgKRykBhHMpDwycTsfTlVWp7Yql/5V6Z5r0jyPp2jeaVh/SulqbMTW8hkilghPGCRS1H/u&#xA;uIPP4qipxVlmKoWP/jq3H/GCD/ic2Kty6ZYS6jb6lJAr39pFNBbXBHxRx3BjaVV/1zClfliqJxV2&#xA;KvPYPy31DSfzffztoVxFHpeu2zW/mnT5S3JpYk/0a5goGHLkoVwSNqncnFXoWKuxV2KuxVDalqVj&#xA;pmn3GoX8y29laRtLcTv9lUQVJ2/hirBLi/vZNQstZ1Kye58w3vqHyl5Xc8BaR0CvdXbUYRycZB60&#xA;hr6at6UYZ2PqKp95Z8kWmnC5vtV9LVPMGot6upai0SqpP7MMCHl6cEdfgWvizEsxJVTz9E6V/wAs&#xA;UH/IpP6YqhtU8u6Zf6RqGmektsmo2s1nLNCiK4SdCjUNPeu+KvMPMn/OPsE1td3Wi6ncPrDR3Mdg&#xA;l7MgtIXvNROoSSBfq9x9lnIChfi7kN8YVR9n/wA4+eWIYDG95PWSK8inaNIY2f6/NBPMWcJybi9v&#xA;RC1SFNDXFURa/kToEMdoJdSvLme1uDdtcSCANJK1618xYLGqgGVzsoG2KvS8VdirsVYrrH5XeRtZ&#xA;1V9V1HTmmvZbiC7kcXFzGjT2yCOJ2jjlWM0RFB+H4uK8q8RRVRf8ovy/ayey/RsiWkkUEMkMd5eR&#xA;hltZTPATwmX44pCWR/tDxxVFf8q18lfWba5OncprS3t7S2LTTlUiswRBxQyceaKxXnTkQSCaE4qq&#xA;aD+Xnk3QJ0n0fTEtJo5JZI3V5TxM6hZFHJ2ohCj4Psg7gVxVkWKuxV2KuxV2KuxVTubm3tbeW5uJ&#xA;Fht4VMksrkKqooqzMT0AGKrbO8try2jurWQS28o5RyL0YeIxVakUg1CaUj928USK225VpCR/wwxV&#xA;EYq7FXYq7FXYq7FXYq7FWA+bdatpNRv7vUAz+WvJyx3V5AlGa81VlWW2tgn7Xoq8cir+1K8f8mKp&#xA;15O0LULaGTWde4SeZ9UVXv2TdLeMbx2UBP8AuqGv+zbk53bFWSYq7FXYq7FXYq7FXYq7FXYq7FXY&#xA;q7FXYq7FXYq7FXYq7FXYqxL8w/JEvmy1tIEnSH6r9bYc+RHqT2U1vC/wn/dcsqyfR44q86T8gPMi&#xA;3iTjWLdIlmvZPQha8hKrdW8MIMbrKeEknosJWC0o3wjFVRP+cftaa5vnvdcguo7h7Z4lWKWBQ9uk&#xA;i8zEkjRpQS8EWMABFAxVNfKv5N65ol7azSawLlYbnTrhi7zOgjsLUW/pC3f92a/Fwct8JYNTkgqq&#xA;9ZxV2KuxV2KuxV2KuxV5lpCx6tpXkqM7x+YL2XzRfK3V4gHvoF36+lcT21K9FQDFXpuKuxV2KuxV&#xA;2KsE84/mtYaPcNpWiWj6/wCYDIbdLK2P7tZ+PL0pJQH/AHgX4mRAWUUZ+CfHiqf+S383yeXrebze&#xA;ltDr0xeS5tbKpghVmPpxKxLFiqU5Gp+KtNsVTzFXYq7FXYq7FXYq7FXYq7FXYq7FXYq7FXYq7FXY&#xA;q7FXYq7FXYq7FXYq7FXYq8y8n38cMP5eyTleUdheeXLlqUCajbpD6se5+E8tLmUYq9NxV2KuxVQv&#xA;7+x0+zmvr+4jtbO3QyXFzMwSNEXcszNQADFXnPmXzZq+uJBY6dHc2NlqXJdOtULW2qamooGdCw5a&#xA;fZqGBkncerT7AVuPNVkvkjyJYeW7YSssUuqPGIpJYo/ThhiB5fV7WPcxxBiWNSWdvidmbFWUYq7F&#xA;XYq7FXYq7FXYq7FXYq7FXYq7FXYq7FXYq7FXYq7FXYq7FXYq7FXYq7FXYq8684eUhaHUp0tbm98v&#xA;avNHe6lbafUX9hfwlSmpWAUEuaxo0kagtyXkqvyZWVRnl/zV5oWxjkkt4vNunVMcet6NJBHMeOxF&#xA;1ZTvCscq9HEUjfF+wn2cVTd/OsSpVNG1eVzQCNbKRTv7vwUfScVQ1z5g85XFs81ro0GiWyKWkvtd&#xA;uY6xqP2/q9m06uKb0e4jxViUdxN5gvYm02dvO+p28geHUZkNp5asXU7SxpHyW6kQ7qFeZwf92Rjf&#xA;FWe+W/LEWj+vdXFzJqWtX3E6hqk4AeTjXjHGg+GKFKnhEuwqTuxZiqneKuxV2KuxV2KuxV2KuxV2&#xA;KuxV2KuxV2KuxV2KuxV2KuxV2KuxV2KuxV2KuxV2KuxV2KsQ1/8A5V/+lJPrPL9OUX6z+h/rf6R4&#xA;fs+t+jP9J4dac9uvviqUXPP0m9P/ABf9VqKenx5dunqf6RSvj+rFVOH/AJVP9Zi/Tv1n6zzH1f8A&#xA;xX9f9P1e3ofpX/Ruf/GHFXpEfp+mvp09Og4caceNNqU7YquxV2KuxV2KuxV2Kv8A/9k=</xmpGImg:image>
               </rdf:li>
            </rdf:Alt>
         </xmp:Thumbnails>
      </rdf:Description>
      <rdf:Description rdf:about=""
            xmlns:xmpMM="http://ns.adobe.com/xap/1.0/mm/"
            xmlns:stRef="http://ns.adobe.com/xap/1.0/sType/ResourceRef#"
            xmlns:stEvt="http://ns.adobe.com/xap/1.0/sType/ResourceEvent#">
         <xmpMM:InstanceID>xmp.iid:F87F117407206811871FC35430C36F00</xmpMM:InstanceID>
         <xmpMM:DocumentID>xmp.did:F87F117407206811871FC35430C36F00</xmpMM:DocumentID>
         <xmpMM:OriginalDocumentID>uuid:5D20892493BFDB11914A8590D31508C8</xmpMM:OriginalDocumentID>
         <xmpMM:RenditionClass>proof:pdf</xmpMM:RenditionClass>
         <xmpMM:DerivedFrom rdf:parseType="Resource">
            <stRef:instanceID>uuid:8a472713-95c8-634c-a4a1-c0abaff8e97f</stRef:instanceID>
            <stRef:documentID>xmp.did:EE7F1174072068118083C8EC6E2BF39A</stRef:documentID>
            <stRef:originalDocumentID>uuid:5D20892493BFDB11914A8590D31508C8</stRef:originalDocumentID>
            <stRef:renditionClass>proof:pdf</stRef:renditionClass>
         </xmpMM:DerivedFrom>
         <xmpMM:History>
            <rdf:Seq>
               <rdf:li rdf:parseType="Resource">
                  <stEvt:action>saved</stEvt:action>
                  <stEvt:instanceID>xmp.iid:ED7F1174072068118083C8EC6E2BF39A</stEvt:instanceID>
                  <stEvt:when>2014-06-10T11:22:40+02:00</stEvt:when>
                  <stEvt:softwareAgent>Adobe Illustrator CS5</stEvt:softwareAgent>
                  <stEvt:changed>/</stEvt:changed>
               </rdf:li>
               <rdf:li rdf:parseType="Resource">
                  <stEvt:action>saved</stEvt:action>
                  <stEvt:instanceID>xmp.iid:EE7F1174072068118083C8EC6E2BF39A</stEvt:instanceID>
                  <stEvt:when>2014-06-10T11:31:49+02:00</stEvt:when>
                  <stEvt:softwareAgent>Adobe Illustrator CS5</stEvt:softwareAgent>
                  <stEvt:changed>/</stEvt:changed>
               </rdf:li>
               <rdf:li rdf:parseType="Resource">
                  <stEvt:action>saved</stEvt:action>
                  <stEvt:instanceID>xmp.iid:F87F117407206811871FC35430C36F00</stEvt:instanceID>
                  <stEvt:when>2015-02-25T16:32:22+02:00</stEvt:when>
                  <stEvt:softwareAgent>Adobe Illustrator CS5.1</stEvt:softwareAgent>
                  <stEvt:changed>/</stEvt:changed>
               </rdf:li>
            </rdf:Seq>
         </xmpMM:History>
      </rdf:Description>
      <rdf:Description rdf:about=""
            xmlns:illustrator="http://ns.adobe.com/illustrator/1.0/">
         <illustrator:StartupProfile>Print</illustrator:StartupProfile>
      </rdf:Description>
      <rdf:Description rdf:about=""
            xmlns:xmpTPg="http://ns.adobe.com/xap/1.0/t/pg/"
            xmlns:stDim="http://ns.adobe.com/xap/1.0/sType/Dimensions#"
            xmlns:xmpG="http://ns.adobe.com/xap/1.0/g/">
         <xmpTPg:HasVisibleOverprint>False</xmpTPg:HasVisibleOverprint>
         <xmpTPg:HasVisibleTransparency>False</xmpTPg:HasVisibleTransparency>
         <xmpTPg:NPages>1</xmpTPg:NPages>
         <xmpTPg:MaxPageSize rdf:parseType="Resource">
            <stDim:w>144.999935</stDim:w>
            <stDim:h>91.981982</stDim:h>
            <stDim:unit>Millimeters</stDim:unit>
         </xmpTPg:MaxPageSize>
         <xmpTPg:PlateNames>
            <rdf:Seq>
               <rdf:li>Cyan</rdf:li>
               <rdf:li>Magenta</rdf:li>
               <rdf:li>Yellow</rdf:li>
               <rdf:li>Black</rdf:li>
            </rdf:Seq>
         </xmpTPg:PlateNames>
         <xmpTPg:SwatchGroups>
            <rdf:Seq>
               <rdf:li rdf:parseType="Resource">
                  <xmpG:groupName>Default Swatch Group</xmpG:groupName>
                  <xmpG:groupType>0</xmpG:groupType>
               </rdf:li>
            </rdf:Seq>
         </xmpTPg:SwatchGroups>
      </rdf:Description>
      <rdf:Description rdf:about=""
            xmlns:pdf="http://ns.adobe.com/pdf/1.3/">
         <pdf:Producer>Adobe PDF library 9.90</pdf:Producer>
      </rdf:Description>
   </rdf:RDF>
</x:xmpmeta>
                                                                                                    
                                                                                                    
                                                                                                    
                                                                                                    
                                                                                                    
                                                                                                    
                                                                                                    
                                                                                                    
                                                                                                    
                                                                                                    
                                                                                                    
                                                                                                    
                                                                                                    
                                                                                                    
                                                                                                    
                                                                                                    
                                                                                                    
                                                                                                    
                                                                                                    
                                                                                                    
                           
<?xpacket end="w"?>
	</metadata>
<g>
	<g>
		<path d="M59.384,160.691c-6.408-4.861-12.807-9.734-18.223-15.591c-8.701,2.922-15.229,8.029-23.284,12.352
			c-2.476,1.328-5.453,3.321-8.707,2.431c0.29-1.853,2.813-2.457,4.455-3.038c1.915-0.677,4.105-1.238,5.669-2.024
			c6.625-3.33,11.548-11.03,19.641-12.554c-2.565-4.481-5.48-9.136-7.087-13.97c-9.721-3.139-15.945,3.687-24.095,4.049
			c-0.058-1.678,1.313-1.926,1.822-3.037c5.758-3.154,12.373-6.519,20.854-6.276c-0.237-6.023-1.744-11.11-1.216-17.412
			c0.427-5.07,1.95-10.579,3.442-15.187c1.504-4.644,3.597-9.003,6.48-11.946c-0.063-1.277,0.818-1.609,1.214-2.43
			c-7.416-3.972-16.182-5.677-24.904-7.289c-1.45-0.269-3.293-0.041-4.455-1.013c-0.169-2.214,3.115-1.432,5.062-1.215
			c2.205,0.246,4.678,0.106,6.681,0.405c6.774,1.007,12.632,4.84,18.223,6.479c4.711-5.952,10.404-10.922,16.604-15.388
			c-1.572-2.429-1.733-5.531-2.632-8.302c-0.603-1.852-2.414-3.652-1.62-5.669c1.87,0.567,4.063,2.916,5.062,4.657
			c1.262,2.204,1.58,5.127,3.037,7.29c8.594-5.501,20.861-7.985,31.586-10.73c0.127-5.336-1.489-10.18-3.645-14.578
			c-1.232-2.518-3.334-5.12-2.633-7.896c2.021,0.061,2.601,2.422,3.442,3.846c2.784,4.706,4.857,10.905,5.467,17.615
			c3.893-0.13,10.625-1.235,16.198-2.023c8.83-1.25,17.859-2.052,26.523-3.239c0.114-4.559,0.104-10.969,0.202-15.591
			c4.381,2.774,3.241,9.496,4.05,14.982c20.132,0.722,36.401-1.927,57.098-0.607c1.866-5.035-1.383-11.565,1.012-16.603
			c1.247,0.244,1.112,1.738,1.417,2.834c1.148,4.125,1.794,9.062,1.014,13.769c10.989,0.528,23.955,2.049,34.217,4.252
			c4.065-5.338,4.317-14.774,4.05-21.867c3.37,2.121,3.25,7.93,2.834,12.351c-0.334,3.563-2.074,7.001-3.036,9.313
			c4.48,2.074,10.336,3.101,14.982,4.86c1.505-4.614,5.059-7.294,8.302-10.529c2.165-2.159,4.047-4.4,5.872-6.884
			c1.516,1.717,0.514,4.601-0.608,6.276c-0.838,1.252-2.681,2.923-3.846,4.252c-2.31,2.635-4.776,4.52-5.67,8.504
			c6.313,2.596,13.691,4.128,18.83,7.896c0.831,0.014,1.155,0.418,2.43,0.405c0.062,0.467-0.585,0.225-0.605,0.606
			c6.308,3.739,12.758,7.644,17.815,13.363c0.577,0.653,1.903,2.415,2.025,2.43c0.341,0.042,2.236-1.812,2.834-2.227
			c3.03-2.101,5.701-2.653,10.123-3.239c2.335-0.31,4.788-0.028,6.682-0.203c1.762-0.162,3.571-1.598,5.468-0.81
			c-1.131,3.532-5.797,5.27-10.124,6.276c-2.601-0.493-6.83,0.267-9.312,1.417c-0.795,0.367-2.668,1.793-2.836,2.633
			c-0.323,1.622,1.787,5.428,2.431,7.49c1.875,6.031,2.695,11.176,3.036,17.21c0.283,5.011-0.364,8.987-1.214,13.363
			c6.409,1.177,13.427,3.885,19.437,6.479c5.16,2.227,8.876,5.913,12.957,8.908c1.522,3.812,3.317,6.901,3.849,11.339
			c1.526,12.768-6.981,22.222-13.565,28.144c-6.26,6.023-13.098,11.467-20.247,16.603c-3.077,2.659-6.043,5.432-9.516,7.693
			c-0.246,0.646-0.026,0.603-0.405,1.216c-10.386,9.77-22.19,19.23-22.676,38.874c-0.302,12.174,8.045,17.069,18.627,19.234
			c0.521,0.106,1.305,0.18,1.82,0.202c2.726,0.127,6.013-0.23,8.908-0.606c6.38-0.83,11.996-3.061,17.009-4.859
			c5.161-1.853,8.648-5.238,12.958-8.302c8.425-5.985,16.087-13.061,26.321-17.209c0.482,0.907-0.073,1.748-0.404,2.43
			c-0.435,0.713-1.394,0.901-1.62,1.821c-5.028,2.39-8.902,6.6-12.957,10.326c-6.78,6.233-12.359,12.702-21.059,17.413
			c-1.938,1.05-4.443,1.949-6.885,2.834c-6.325,2.294-13.58,3.876-21.664,3.037c-4.772-0.494-8.972-1.532-12.958-3.442
			c-7.896-3.78-14.115-9.42-15.59-19.032c-1.354-8.83,1.578-17.859,4.453-23.891c1.098-2.301,2.46-4.022,3.848-6.075
			c5.38-7.953,12.101-14.823,18.83-20.854c6.792-6.085,14.908-11.568,22.069-17.615c7.099-5.995,16.394-11.467,16.197-23.487
			c-0.02-1.181-0.24-2.346-0.606-3.441c-3.976-11.883-17.528-16.733-29.359-19.235c-2.597,7.393-6.843,13.135-11.338,18.627
			c0.995,1.108,2.075,2.265,3.24,3.24c1.056,0.884,2.336,2.157,3.646,2.834c2.933,1.521,7.104,1.327,10.325,2.43
			c1.819,0.623,3.104,1.915,4.656,2.834c-0.748,1.766-2.702,1.013-4.05,1.014c-3.423,0.002-8.216,0.495-10.934-1.014
			c-3.543-1.965-7.217-3.944-9.921-6.681c-3.525,2.188-6.501,5.357-10.124,7.491c-4.652,2.74-9.568,5.058-14.78,7.29
			c1.369,5.318,6.66,7.774,6.682,13.768c-1.923-0.614-3.109-2.428-4.454-3.847c-2.383-2.513-4.14-5.487-5.872-8.909
			c-16.064,5.335-31.317,10.469-49.808,12.958c0.339,6.878-2.139,12.591-0.405,18.83c0.633,2.28,2.659,3.595,2.229,6.682
			c-3.181-0.532-3.585-3.84-5.671-5.467c-2.254-5.71-0.959-12.281-1.821-19.032c-3.555-0.322-7.622,0.659-11.743,1.215
			c-6.01,0.81-12.294,1.959-18.021,2.024c-0.94,2.861-0.671,6.654-1.214,9.921c-0.357,2.142-1.067,4.486-2.431,5.467
			c-1.035-0.578-0.385-2.35-0.405-3.44c-0.07-3.897-0.77-7.729-0.809-11.339c-6.427-0.295-15.469-0.479-24.904-1.417
			c-5.375-0.535-9.879-0.938-15.995-1.62c0.066,5.523-3.484,9.955-2.43,15.793c0.56,3.094,3.11,5.733,3.037,8.909
			c-1.414,0.84-2.582-1.616-4.049-2.025c-1.115-3.259-3.125-5.808-3.239-9.718c-0.117-4.023,1.595-8.198,1.417-12.756
			c-4.239-0.979-8.933-1.886-12.352-2.632c-0.713,8.102-2.601,15.975-6.479,21.462c-0.58,0.819-1.568,1.561-2.228,2.431
			c-0.696,0.916-1.225,2.545-2.633,2.023c0.168-4.62,3.864-7.647,5.468-11.743c1.724-4.405,0.745-9.451,1.013-14.781
			c-11.528-2.464-24.957-4.271-35.028-7.693c-0.713-0.096-0.975-0.644-1.417-1.012c-3.249,0.757-5.762-3.242-8.301-2.632
			c-0.985,0.236-2.213,2.265-2.834,3.441c-2.211,4.188-4.527,10.431-5.669,14.78c-1.736-1.431-1.651-4.211-1.62-5.264
			C54.152,170.282,57.095,165.09,59.384,160.691z M270.562,120.602c-1.302-0.129-2.058-1.239-3.24-1.012
			c-0.856,0.164-1.607,1.633-2.633,2.834c-6.128,7.187-13.116,11.968-22.476,15.793c-10.127,4.138-21.355,7.902-33.609,9.516
			c-6.624,0.873-13.259,0.975-19.842,1.215c-6.605,0.241-13.396,1.103-20.449,1.215c-8.425,0.134-17.146,0.077-26.119-0.404
			c-12.351-0.664-29.203-1.666-40.09-5.467c-3.718-1.298-6.8-2.307-9.921-3.646c-7.671-3.289-13.646-6.828-19.033-12.553
			c-4.748-8.114-7.073-18.026-4.252-28.953c1.497-5.798,4.25-12.471,7.29-16.399c2.936-3.796,7.3-5.646,10.933-7.897
			c14.052-4.071,29.438-6.882,45.759-7.896c10.521-0.654,21.594-0.616,31.182-0.811c4.245-0.086,8.564-0.609,12.958-0.81
			c4.91-0.227,9.917,0.221,14.779,0c14.188-0.646,27.185-0.229,39.889,2.632c1.094,0.201-0.082-0.605,1.012-0.405
			c0.609,0.133,0.559,0.926,1.417,0.811c8.677,2.555,17.357,6.092,24.702,10.325c8.77,5.055,14.706,18.584,12.553,31.585
			c2.088,0.613,3.922,1.479,6.683,1.418c1.064-4.18,0.76-7.596,0.201-10.528c-1.864-9.827-7.543-19.387-13.971-25.106
			c-6.409-5.707-14.681-8.258-23.081-11.743c-3.225-0.622-6.387-1.307-9.112-2.43c1.623-14.005,13.547-21.262,10.731-37.458
			c-0.111,4.071-0.7,6.957-1.417,10.124c-0.461,2.042-0.72,4.085-1.417,5.669c-3.247,7.371-9.958,12.575-10.123,22.272
			c-10.297-0.756-20.911-3.259-30.979-3.037c0.035-11.663,6.004-22.265,2.43-34.421c-1.002,1.222-0.286,2.968-0.202,4.859
			c0.142,3.244-0.348,6.998,0.202,9.313c-0.364,0.311-0.607,0.743-0.812,1.215c-1.139,6.487-2.842,12.41-3.645,19.235
			c-18.525,0.305-38.385,0.172-56.895,1.012c-13.09,0.595-25.42,3.467-39.481,4.455c-0.968-0.023-0.858,1.032-1.822,1.013
			c0.27-4.496-1.487-8.996-2.632-13.769c-1.167-4.862-1.131-9.991-2.227-14.578c-1.232-5.159-3.809-9.651-6.277-13.363
			c2.061,5.873,5.823,10.681,6.277,17.615c0.121,1.866-0.163,3.855,0,5.872c0.479,5.931,2.9,11.947,3.238,18.021
			c-1.556,1.218-3.7,0.931-5.669,1.417c-2.445,0.604-4.579,2.344-6.681,2.431c-6.753,4.721-13.355,9.592-17.21,17.21
			c-3.144,0.13-3.928-0.697-6.479-1.417c-3.858-3.245-9.18-6.104-14.375-8.505c-1.728-0.799-3.604-2.312-5.669-1.822
			c7.931,4.218,15.847,8.451,23.284,13.161c1.183,0.031,2.521-0.092,3.037,0.607c-3.47,2.674-5.161,8.813-5.669,14.577
			c-0.909,10.301,0.743,18.697,3.442,25.917c-3.643,1.262-7.293,2.753-10.731,4.657c-3.37,1.865-6.254,4.383-9.516,6.276
			c-6.749,3.918-14.961,5.604-19.844,11.743c4.893-3.189,9.597-5.73,15.389-7.693c0.496-0.315,0.578-1.042,1.012-1.418
			c0.629-0.021,0.578,0.638,1.417,0.404c3.751-2.369,7.588-4.395,11.339-6.681c3.704-2.258,7.579-4.606,11.946-6.075
			c3.707,5.955,9.104,10.864,15.59,14.173c2.159,1.104,4.677,2.687,6.884,3.24c0.865,0.217,1.713-0.211,2.632,0
			c0.971,0.223,1.477,1.194,2.431,1.621c3.273,1.462,7.667,1.588,11.542,2.227c2.807,0.463,5.695,1.124,8.301,2.024
			c-3.645,7.539-3.388,17.197-3.24,26.12c0.14,8.369-3.743,13.488-6.276,19.234c4.469-5.224,8.237-12.305,8.908-21.665
			c0.618-8.617-0.542-18.073,3.442-24.297c0.914,2.11,3.099,1.739,5.67,2.025c5.801,0.644,11.184,1.227,15.995,1.62
			c1.59,0.129,3.252-0.287,4.859-0.203c13.94,0.729,27.513-1.833,39.481-1.62c0.16,2.938-1.824,4.412-3.037,6.479
			c-2.892,4.931-4.721,10.673-5.873,17.21c0.786,4.378,0.484,7.687,1.216,12.148c1.69-14.891,3.455-27.314,11.54-35.838
			c1.32,0.596,3.087,0.292,4.657,0.203c8.258-0.473,17.271-1.817,25.105-3.645c12.126-2.829,22.196-6.713,32.396-11.137
			c1.855-0.805,3.863-1.432,5.266-2.834c3.262,2.579,5.017,6.609,6.479,10.935c1.155,3.415,1.44,7.354,2.632,10.73
			c0.168,0.475,0.447,1.112,1.014,1.417c0,0.54,0,1.08,0,1.62c2.258,3.953,4.935,8.563,8.302,10.731
			c-2.205-4.208-5.436-7.391-7.087-12.148c-1.55-6.644-2.589-13.717-5.266-19.234c-0.968-1.994-2.285-3.494-3.238-5.266
			c7.607-3.661,13.467-9.075,17.614-16.198C272.859,119.848,271.79,120.725,270.562,120.602z M139.765,39.006
			c0.798-0.158,0.618-0.158,1.417,0c-0.985-3.924,0.351-8.229-1.417-11.542C140.301,31.567,139.472,35.448,139.765,39.006z
			 M258.008,47.711c1.709-0.68,1.335-2.375,2.025-3.645c1.799-3.309,5.78-4.95,7.289-8.504c0.383,0.045,0.447-0.228,0.81-0.202
			c0.039-0.778,1.086-1.604,0.812-2.023C265.8,38.498,258.957,41.032,258.008,47.711z M143.207,40.625
			c-1.186,0.032-2.425-0.319-3.644-0.203c-0.971,0.092-1.82,0.52-2.835,0.606c-13.595,1.181-27.121,2.951-40.697,5.468
			c0.604,6.616,3.46,10.881,3.442,17.614c11.568-0.434,23.417-3.593,35.229-4.454c6.206-0.453,12.872-0.169,18.83-0.405
			c13.919-0.553,26.662-0.454,42.722-1.014c0.064-5.365,2.392-11.667,3.442-18.627C182.437,38.191,162.455,40.107,143.207,40.625z
			 M236.547,43.46c-11.105-1.85-22.66-4.179-33.609-3.442c-0.863,6.155-2.681,11.358-3.037,18.02
			c9.259,0.539,19.29,2.362,29.356,3.038C228.54,55.685,234.027,48.609,236.547,43.46z M306.4,90.434
			c-2.639-5.36-3.509-12.269-6.685-16.399c-3.657-4.761-9.023-8.635-13.97-11.946c-7.635-5.113-16.445-9.765-26.929-11.743
			c-0.638-0.24-0.573-1.181-1.418-1.214c-5.054-2.215-10.41-3.664-16.804-5.265c-0.015-0.124-0.031-0.24-0.203-0.203
			c-2.224,6.08-6.49,10.112-7.086,17.817c14.022,3.457,26.999,7.961,35.229,17.21c3.481,4.481,6.329,9.599,9.112,14.78
			c1.817,5.315,2.738,12.178,1.819,18.223c8.548,1.5,18.53,1.532,26.932,3.037C308.537,106.013,306.858,99.291,306.4,90.434z
			 M92.387,46.902c-10.896,3.394-22.038,4.816-30.371,11.137c-0.399,0.276-1.157,0.193-1.621,0.405
			c-6.871,4.196-13.076,9.061-17.615,15.591c2.993,1.516,5.626,2.462,8.504,3.847c5.262,2.532,9.007,7.341,15.591,8.099
			c2.135-3.607,4.712-7.165,8.301-10.124c3.148-2.595,6.661-6.698,10.731-7.896c0.533-0.157,1.086,0.12,1.62,0
			c1.029-0.23,1.976-1.094,3.038-1.417c1.792-0.546,3.628-0.467,5.466-1.214c-0.414-3.452-1.422-7.326-1.62-10.326
			c-1.471-2.333-0.691-5.562-1.823-8.1C92.521,46.902,92.454,46.902,92.387,46.902z M59.181,57.633
			c-0.028-0.703,1.025-0.325,1.012-1.013c-1.609-2.643-2.134-6.37-4.252-8.504C56.697,51.612,57.307,55.255,59.181,57.633z
			 M268.334,113.313c0.43-1.072,1.081-2.222,1.417-3.238c2.131-6.461,0.827-11.902-1.417-17.413
			c-2.188-5.376-5.284-9.7-9.516-12.554c-3.884-2.617-8.693-4.721-13.565-6.884c-5.029-2.231-10.648-3.922-16.197-4.656
			c-5.808-0.768-11.401-1.768-17.009-2.228c-5.55-0.454-11.185-0.045-16.806,0c-10.3,0.084-21.058,0.066-29.763,0.81
			c-8.499,0.728-18.087,0.781-28.954,1.013c-12.47,0.267-29.553,2.472-41.708,5.872c-2.027,0.565-4.111,1.339-6.074,2.024
			c-2.046,0.714-4.305,1.341-5.872,2.228c-1.49,0.843-4.862,3.816-5.872,5.062c-1.907,2.353-3.131,6.032-4.657,9.518
			c-4.506,10.294-5.024,25.103,1.014,33.609c6.1,8.594,17.209,12.15,27.536,16.198c5.834,2.286,12.442,3.234,19.032,4.252
			c6.443,0.995,13.162,0.933,19.843,1.417c10.025,0.728,20.639,0.696,30.371,0.405c24.441-0.731,48.967-1.607,68.84-10.731
			C251.77,133.854,263.354,125.804,268.334,113.313z M35.086,72.211c-6.223-2.746-14.211-4.974-20.854-4.657
			C21.667,68.488,28.988,70.616,35.086,72.211z M314.296,70.591c2.338,0.731,5.846-0.544,7.693-1.62
			c-0.023-0.247-0.06-0.479-0.404-0.404c-4.92,0.697-11.697,0.356-15.996,2.633c-1.291,0.685-5.027,2.977-3.035,4.252
			C304.831,72.195,310.062,71.893,314.296,70.591z M40.351,74.843c0.084-0.893-2.309-1.245-2.024-1.012
			C39.108,74.062,39.479,74.703,40.351,74.843z M65.053,89.421c-4.471-1.347-8.201-4.562-12.554-6.884
			c-3.694-1.973-7.435-3.788-10.934-5.872c-4.728,6.528-8.737,14.498-10.326,23.892c-1.356,8.02-0.222,15.166,1.215,22.271
			c0.455,2.253,0.633,4.604,1.214,6.479c0.687,2.207,2.201,4.25,3.239,6.276c1.133,2.21,2.207,4.494,3.848,5.872
			c5.102-2.393,9.087-6.314,14.174-8.706c2.837-1.335,5.734-2.562,8.504-3.849C59.453,116.195,58.721,100.135,65.053,89.421z
			 M270.765,111.693c-0.776,2.045-1.994,4.533-3.038,6.884c0.653,0.292,1.697,0.191,2.633,0.202
			c1.188-1.913,2.004-4.205,2.834-6.479C272.256,112.226,271.925,111.544,270.765,111.693z M274.61,112.705
			c-0.856,2.111-2.021,3.917-2.429,6.479c1.17,0.053,1.77,0.022,2.429,0.203c0.763-2.275,2.215-3.861,2.836-6.277
			C276.444,113.452,276.449,112.434,274.61,112.705z M347.703,233.176c-4.052,2.961-8.278,5.935-12.351,9.111
			c-4.095,3.192-8.061,6.059-13.363,7.692c-5.236,1.615-10.798,3.702-16.603,4.253c-8.172,0.774-15.823-0.649-21.26-4.253
			c-1.119-0.738-2.521-1.63-3.238-2.429c-7.006-7.816-3.991-22.747,0-31.788c2.281-5.174,6.729-8.269,9.109-12.147
			c3.349-2.811,6.643-6.019,9.718-9.518c2.885-3.277,6.859-5.966,10.529-8.706c3.455-2.579,6.865-5.607,10.326-8.504
			c3.642-3.047,7.734-5.604,10.73-8.706c6.816-7.058,14.821-18.271,10.529-31.383c-1.449-4.423-3.126-6.115-6.278-8.909
			c-1.482-1.313-3.317-2.188-4.655-3.644c-7.853-3.283-15.101-6.76-23.284-8.302c-1.936-0.364-4.004-0.308-6.075-0.607
			c-6.032-0.874-14.376-1.222-21.056-2.228c-2.493-0.375-2.991,5.272-4.253,6.683c10.572,1.264,22.493,0.804,32.801,3.037
			c2.248,0.486,4.589,1.517,6.884,2.228c2.368,0.734,4.489,1.76,6.479,2.834c3.932,2.123,8.033,4.937,10.325,8.1
			c1.558,2.148,3.463,5.781,3.849,8.707c1.443,10.989-7.401,18.071-12.757,22.474c-6.729,5.532-13.35,10.708-19.843,15.59
			c-3.039,2.283-5.97,5.422-9.313,8.302c-3.229,2.778-6.293,5.812-8.908,8.908c-5.551,6.571-10.957,13.791-13.362,22.069
			c-1.034,3.558-1.917,9.432-1.417,14.577c0.479,4.962,2.87,8.918,5.668,13.16c4.48,3.595,8.739,7.066,14.78,8.706
			c7.085,1.926,13.825,1.344,19.642,0.608c3.696-0.468,6.993-1.982,10.527-3.239c12.015-4.271,19.659-13.56,28.347-21.261
			c1.904-1.689,3.678-3.469,5.466-5.062c1.849-1.646,4.182-2.581,5.467-4.657C355.943,226.695,351.935,230.086,347.703,233.176z
			 M275.826,120.602c-4.75,6.726-10.675,12.271-17.615,16.806c4.768,5.898,5.229,15.367,7.896,22.475
			c9.913-4.609,20.732-9.488,26.524-18.83c4.513-5.003,8.825-10.207,10.934-17.615C293.085,122.125,285.061,121.775,275.826,120.602
			z M27.595,124.247c-5.052,1.293-11.099,2.67-14.174,5.264c5.112-2.396,10.938-4.577,18.021-3.037
			c0.066-0.742-0.226-1.125-0.405-1.62C29.958,124.371,28.268,125.362,27.595,124.247z M88.135,149.15
			c-5.973-2.016-11.01-6.008-15.793-8.907c-2.229-2.833-4.487-5.636-6.884-8.302c-0.011-0.124-0.028-0.239-0.202-0.203
			c-7.676,3.866-14.361,8.721-22.271,12.352c4.985,6.083,11.064,11.072,18.223,14.982c0.119,0.422,0.425,0.655,0.607,1.013
			c4.287,1.248,8.051,3.162,11.541,4.657c1.295-0.718,1.848,0.425,2.835,0.81c1.242,0.483,2.924,0.873,4.252,1.214
			c8.909,2.294,19.316,3.955,28.751,5.67c0.356-5.667,0.611-13.144,2.834-17.615C103.558,152.594,95.541,151.65,88.135,149.15z
			 M253.96,139.432c-2.841,1.449-6.432,2.987-9.923,4.252c-3.218,1.167-6.362,2.751-9.312,3.848
			c-6.477,2.403-13.5,3.917-20.45,5.467c-7.487,1.671-14.879,2.851-22.272,3.441c-1.801,0.145-4.29-0.394-5.668,0.405
			c-0.921,0.533-1.856,2.197-2.431,3.038c-3.363,4.932-5.039,11.494-6.479,18.222c12.854-0.689,21.521-2.695,34.42-4.656
			c4.182,0.783,8.157-0.611,12.352-1.621c13.434-3.23,25.838-6.103,37.863-11.136C260.093,152.871,258.641,144.536,253.96,139.432z
			 M300.933,149.96c-2.405-2.117-5.224-3.82-7.289-6.276c-1.138,0.079-1.374,1.056-1.822,1.823
			c4.781,3.997,11.971,8.97,20.044,7.086C308.494,151.442,304.683,150.731,300.933,149.96z M116.278,155.832
			c-2.299,3.505-2.091,11.271-2.43,17.413c4.892,0.969,9.723,2.204,14.577,2.43c14.801,0.687,28.885,3.323,43.938,2.632
			c1.007-8.199,5.217-15.368,8.707-22.271C157.169,157.994,138.343,159.266,116.278,155.832z M11.398,159.273
			c1.527-0.899,3.801-1.058,5.062-2.227C14.723,157.607,12.006,158.26,11.398,159.273z M60.801,161.299
			c-2.152,4.346-5.646,8.98-4.858,14.982c1.283-5.805,4.251-9.922,6.884-14.375C61.811,161.698,61.69,161.248,60.801,161.299z
			 M208.604,176.079c1.173,6.693-0.993,13.443,2.228,18.627c0.021-2.15-0.765-3.898-0.809-6.073
			c-0.094-4.408,2.424-9.019,0.809-12.958C210.014,175.732,209.425,176.021,208.604,176.079z M128.021,177.497
			c-0.969,7.056-3.057,16.207,1.62,21.057c-0.316-2.653-1.812-4.128-2.228-6.682c0.051-4.586,2.414-8.611,2.632-14.174
			C129.162,177.841,128.906,177.354,128.021,177.497z"/>
		<path d="M214.071,132.75c-0.116-0.423-0.501-0.579-0.405-1.215c-0.797,0.489-0.931,0.266-1.417-0.404
			c-0.649,0.427-0.901,1.256-1.214,2.024c0.69,0.149,0.334-0.746,0.81-0.811c1.266-0.117,1.685,0.611,2.024,1.417
			c-0.438,0.384-0.472,1.028-1.215,0.608c-0.255,0.354,0.137,1.152-0.812,1.214c2.148,0.931,1.754-2.43,3.646-2.43
			c0.363,0.271,0.627,1.172,0.203,1.619c0.125,0.3,1.697,0.167,0.811,0.811c0.082,0.374,0.962-0.685,1.417,0
			c-2.249,3.359-8.543,2.293-8.301-2.632c1.69-2.645,3.384-5.212,7.087-3.848c1.691,1.238,3.023,3.84,1.822,6.277
			c-0.982,0.17-0.644-0.979-1.822-0.608C216.176,133.751,215.756,132.619,214.071,132.75z M215.691,131.535
			c0.799-0.259,0.524,0.555,0.811,0.81c0.553,0.147,0.407-0.402,0.811-0.405c-0.023-0.517-0.038-1.042-0.606-1.013
			C216.574,131.338,215.757,131.062,215.691,131.535z"/>
		<path d="M130.249,72.413c0.598,0.618,0.735,1.693,1.62,2.024c-0.054,1.501,0.335,2.39,0.203,3.848
			c-1.707,0.444-2.45,1.717-3.848,1.417c0.094,0.02-0.585-0.606-0.607-0.608c-0.984-0.072-2.808,0.844-2.43-1.012
			c-0.021,0.098-0.537-2.077-0.203-1.013c-0.191-0.607-0.18-2.125,1.013-3.645C127.878,73.262,128.474,72.248,130.249,72.413z"/>
		<path d="M187.548,83.144c-1.157,0.799-2.776,1.138-4.05,1.822c-1.438-0.72-2.638-1.681-3.441-3.037
			c0.71-1.521,0.243-3.296,1.619-4.252C184.957,75.4,189.267,78.319,187.548,83.144z M184.512,78.893
			c0.265,0.206,0.745,0.198,1.012,0.404c-0.147-0.553,0.401-0.408,0.405-0.811C185.399,78.567,184.818,78.591,184.512,78.893z
			 M181.676,81.12c0.035-0.237,0.321-0.221,0.608-0.203c-0.112-0.36-0.104-0.841-0.405-1.012
			C182.035,80.422,181.086,80.835,181.676,81.12z M182.892,82.132c0.758-0.146,2.311,0.731,3.037-0.405
			C184.988,82.056,183.449,81.107,182.892,82.132z"/>
		<path d="M233.104,80.107c0.086,2.296,1.007,2.396,0.404,4.657c-1.818,0.312-1.739,1.748-3.848,2.024
			c-1.847-1.19-3.771-2.303-3.44-5.669C228.232,79.33,230.688,78.057,233.104,80.107z M229.257,80.513
			c0.494,0.113,0.433,0.783,1.216,0.607C230.699,79.898,229.595,79.658,229.257,80.513z M228.852,84.157
			c-0.688-0.714,0.465-0.726,0.811-1.014c-0.549-0.125-0.504-0.845-1.214-0.81c-0.104,0.503-0.494,0.722-0.811,1.013
			C228.521,83.017,228.484,84.641,228.852,84.157z M231.282,82.942c0.029-0.451,0.511,0.264,1.012,0
			C232.633,81.656,230.585,82.698,231.282,82.942z M229.865,83.549c1.015-0.015,0.949,1.211,0.202,1.417
			c0.488-0.082,0.439,0.37,1.012,0.203c-0.586-0.666,0.483-1.73-0.405-2.025C230.819,83.694,229.72,83,229.865,83.549z"/>
		<path d="M78.416,103.797c1.07-0.281,1.539-1.162,2.431-1.62c2.713-0.045,5.041,0.35,4.656,3.847
			c0.045,0.292,0.604,0.071,0.607,0.405c-0.108,0.634-0.755,0.729-1.417,0.811c0.166,1.245-0.746,1.414-0.811,2.43
			C79.684,111.094,76.96,107.793,78.416,103.797z M82.667,105.012c0.678-0.301,0.991-0.52,1.62,0
			c-0.045-0.383,0.229-0.447,0.203-0.81c-0.675,0-1.35,0-2.025,0C82.45,104.555,82.51,104.832,82.667,105.012z M82.87,109.264
			c-0.763,0.155-0.968-0.247-1.62-0.203C81.285,109.652,82.946,109.779,82.87,109.264z"/>
		<path d="M249.909,113.313c-1.695,2.07-5.748,3.362-8.099,1.014c-0.253-1.439-0.041-2.346-0.607-3.646
			C242.5,105.732,251.393,106.113,249.909,113.313z M243.634,109.264c0.787-0.365,0.708,1.154,1.215,0.405
			c-0.563,0.091,0.157-1.104-0.405-1.013C244.388,109.073,243.546,108.704,243.634,109.264z M248.087,111.085
			c0.471-0.064,0.778,0.033,1.013,0.203c0.071-0.813-0.003-1.481-0.606-1.62C248.611,110.395,248.257,110.648,248.087,111.085z
			 M243.836,112.503c-0.171-0.706-0.564-1.19-1.216-1.417C242.796,111.787,242.992,112.469,243.836,112.503z"/>
		<path d="M182.081,88.206c6.434-2.821,11.484-6.529,19.842-5.872c3.651,0.288,5.869,2.456,8.303,4.658
			c1.688,1.526,3.32,2.743,4.656,4.455c1.562,1.996,2.624,4.691,3.848,6.883c2.377,4.258,4.857,9.319,0.606,11.744
			c-0.247,0.141-1.082,0.065-1.417,0.201c-3.151,1.278-7.299,3.209-10.935,4.455c-0.42,2.636,0.16,6.104-1.214,8.1
			c-7.307,1.995-14.586,3.288-24.297,4.455c-3.049,0.366-8.155,1.399-10.325,0c-0.761-0.491-1.452-1.783-2.228-2.834
			c-1.904-2.583-4.985-5.33-5.872-8.303c-6.585,3.367-13.629,7.041-21.057,9.922c-2.354,0.913-4.667,2.354-7.087,2.431
			c-0.192-3.656,0.951-7.673,1.417-11.339c-5.19,1.963-11.35,4.712-18.425,5.467c-0.186-0.355-0.375-0.704-1.013-0.608
			c-1.367-3.285-1.558-7.815-0.607-11.944c6.882-4.254,14.378-7.896,22.07-11.34c-0.27-0.873,0.32-2.467,0.202-3.847
			c-5.4,0.544-10.167,3.839-15.388,5.872c-1.702,0.663-3.331,1.521-4.859,2.024c-1.562,0.517-3.114,0.264-4.252,1.215
			c-0.806,0.674-1.851,3.438-2.429,4.657c-2.304,4.86-4.559,9.917-7.29,13.565c-7.048-2.914,1.812-11.277,2.835-15.793
			c-2.522-0.596-8.668,3.838-9.718,0.203c-0.644-2.225,1.95-5.979,3.239-7.694c1.802-2.396,3.081-4.629,4.455-6.479
			c3.539-4.767,7.066-8.188,9.718-11.945c0.831,0.32,2.177,1.191,2.227,1.62c-0.737,2.231-2.828,3.111-3.441,5.466
			c-4.021,4.888-7.98,9.837-10.73,15.995c2.434,0.412,4.791-1.639,6.479-2.023c0.858-3.184,2.503-5.142,4.252-8.303
			c0.955-1.724,1.707-4.534,2.835-5.466c2.062-1.705,9.23-2.613,12.147-3.441c10.873-3.09,25.287-8.186,36.647-9.719
			c3.73-0.504,7.181,0.09,10.327,1.214C177.97,79.765,179.916,84.096,182.081,88.206z M175.399,77.071
			c-1.343-0.268-2.201-0.354-3.239-1.215c-3.438,0.208-9.708,0.409-12.147,1.417c-2.582-0.487-6.004,0.888-8.706,1.621
			c-7.449,2.022-13.606,4.138-20.854,5.669c-4.22,1.854-9.861,2.288-13.769,4.455c-1.249,4.487-4.65,6.823-5.468,11.743
			c1.26-0.091,1.904-0.796,3.038-1.012c0.801-3.655,3.022-5.888,4.05-9.314c8.95-2.336,18.205-4.957,27.738-7.29
			c7.936-1.939,15.451-4.734,25.31-5.466c4.879,1.667,4.613,8.479,7.693,11.946c0.308-0.64,1.217-0.675,1.822-1.014
			C179.4,84.408,177.192,80.948,175.399,77.071z M171.351,78.69c-5.601,0.512-9.82,1.01-14.781,3.239
			c-1.562-0.508-3.702,0.77-5.264,1.214c-10.205,2.917-22.183,4.743-32.193,8.101c-0.877,2.9-2.812,4.747-3.442,7.896
			c3.519-1.556,7.201-3.22,11.338-4.657c4.255-1.479,10.191-4.971,14.78-2.632c0.731,0.905,0.793,3.276,0.405,4.657
			c8.299-3.985,16.693-7.874,25.916-10.933c1.562,2.218,2.886,4.673,3.847,7.49c2.252-0.785,4.264-1.812,5.873-3.239
			C175.732,86.051,174.834,81.077,171.351,78.69z M114.658,81.727c-4.085,6.15-9.238,11.973-13.566,18.021
			c-1.307,1.826-3.092,4.442-2.227,7.086c1.883,0.139,3.959-0.288,5.669-0.811c3.295-1.006,6.442-1.845,9.111-3.238
			c4.297-0.718,7.942-2.521,11.945-4.05c4.505-1.72,8.423-4.812,13.161-5.062c1.367,1.657,0.454,3.57,0.202,5.669
			c-0.354,2.964-0.258,6.714-0.606,9.719c-0.749,6.438-2.214,12.931-2.431,18.425c6.337-2.438,12.569-5.139,18.627-8.099
			c6.52-3.186,14.185-6.812,18.829-11.542c0.588-1.099,0.574-2.801,0.812-4.252c0.212-0.888-0.687-0.665-0.608-1.417
			c1.17-2.927-0.922-5.724-2.429-8.909c-0.784-1.654-2.003-6.05-3.645-6.479c-1.398-0.364-5.247,1.594-6.884,2.228
			c-2.529,0.978-4.543,2.271-6.277,3.037c-4.782,2.113-9.856,3.119-12.351,6.276c7.2-2.613,15.839-7.223,24.499-9.719
			c1.091,1.738,1.999,3.557,2.834,5.67c1.146,2.896,1.503,6.52,2.835,8.504c-1.206,1.521,0.31,3.141-0.405,4.858
			c-0.96,2.315-6.299,3.288-7.289,5.467c-0.983-0.37-1.174,0.354-2.023,0.607c-0.706,0.334-0.005,1.027-0.812,1.417
			c-0.549-0.251-0.503-0.782-1.214-0.405c-4.911,3.691-11.562,5.357-16.805,7.694c-1.864,0.832-3.487,2.749-5.669,2.43
			c0.486-11.636,2.686-21.376,3.239-32.192c-5.7-1.684-9.511,1.334-13.972,2.835c-6.005,2.019-11.816,4.706-17.614,7.086
			c-2.92,1.199-5.282,3.119-7.896,1.621c3.073-7.45,8.382-13.296,12.553-19.438c0.573-0.844,1.625-1.695,1.417-2.835
			C115.183,82.012,115.23,81.56,114.658,81.727z M219.741,108.049c1.402-0.975,1.009-2.735,0.405-4.455
			c-1.219-3.467-3.834-8.613-6.075-11.541c-2.563-3.352-7.67-8.405-12.552-8.707c-7.736-0.476-12.912,2.891-18.225,5.265
			c-3.825,1.71-7.68,3.464-10.527,5.67c3.275-0.646,6.783-2.795,9.312-4.859c0.466,0.487,0.652,0.309,1.417,0.203
			c1.642-1.083,3.406-1.594,5.062-2.229c3.271-1.251,5.061-2.315,8.707-2.834c9.15-1.301,14.665,7.479,18.222,13.565
			c1.807,3.089,4.785,7.798,1.417,10.124c-2,0.425-3.767,2.064-5.87,2.834c-1.312,0.479-4.099,0.22-4.051,2.429
			C211.432,112.118,216.8,109.616,219.741,108.049z M212.249,94.281c-1.765-2.622-5.625-6.4-8.301-7.694
			c-7.117-3.44-14.836,2.271-20.854,4.252c1.518,2.261,2.525,5.032,3.846,7.492c5.244-1.108,10.231-3.939,16.198-2.228
			c4.018,3.01,3.371,9.164,3.846,14.781c3.847-0.481,7.824-2.567,10.529-4.86C216.687,102.274,214.644,97.835,212.249,94.281z
			 M163.252,100.76c0.879-0.889,5.313-4.281,5.466-5.467c0.119-0.915-2.051-5.36-3.036-5.669c-0.262-0.082-0.458,0.154-0.608,0.202
			c-6.646,2.112-16.883,6.831-23.486,10.124c-0.266,4.447-1.521,8.406-1.417,12.146c5.066-2.043,12.311-3.417,17.817-5.669
			C159.587,104.436,161.179,102.855,163.252,100.76z M180.056,91.851c1.276,2.503,2.172,5.389,3.847,7.491
			c0.419-0.526,1.606-0.282,2.025-0.81C184.009,96.828,183.562,89.365,180.056,91.851z M173.375,95.496
			c0.674,1.756,1.416,3.443,1.417,5.872c1.961,0.115,4.742-1.312,7.492-1.62c-1.041-2.333-1.518-5.231-3.239-6.884
			C177.044,93.641,174.993,94.95,173.375,95.496z M167.706,121.209c1.135,1.318,2.781,4.7,4.455,5.467
			c1.303,0.598,5.001,0.18,7.087,0c2.855-0.246,6.369-1.04,9.921-1.62c6.022-0.981,11.657-0.882,15.592-3.645
			c0.533-0.526,0.305-1.5,1.012-2.228c0.425-5.665,0.391-10.452-0.203-16.198c-0.482-4.685-3.214-6.828-7.287-6.479
			c-4.83,0.415-12.296,3.242-17.819,4.657c-2.125,0.544-4.599,0.672-5.467,2.024c4.516-0.07,9.466-2.58,12.757-3.238
			c4.296-0.861,8.428-1.812,13.16-2.025c3.886,2.324,2.668,9.751,3.849,14.78c-1.162,1.674-0.979,4.691-1.015,7.492
			c-0.892,1.729-2.465,1.222-4.453,1.417c-5.389,0.527-12.436,2.367-17.615,3.036c-2.519,0.326-5.746,0.969-7.288,0.608
			c-2.886-0.674-3.793-4.279-5.873-5.467c-1.642-1.444-2.443-6.023-5.062-4.049C164.598,117.781,166.015,119.245,167.706,121.209z
			 M168.921,96.71c-2.999,2.874-6.307,5.438-8.707,8.909c3.114-0.596,4.319-3.406,6.277-5.266c1.216-1.154,2.612-2.06,3.037-3.441
			C169.27,96.901,169.248,96.653,168.921,96.71z M164.669,104.202c2.048-0.598,4.394-1.237,5.872-1.823
			c-0.231-1.567-0.642-2.149-0.606-3.646C168.071,100.315,165.469,102.234,164.669,104.202z M200.709,99.14
			c-4.082-0.671-8.377,1.181-12.148,1.822c0.681,2.595,1.826,4.933,3.037,7.087c1.249,2.218,2.195,4.594,3.848,6.479
			c2.753-0.554,5.493-1.12,7.896-2.023C203.103,106.07,203.586,103.292,200.709,99.14z M117.291,110.681
			c-0.867,2.955-0.91,7.833,0.405,10.326c5.728,1.106,14.03-3.42,18.626-4.657c0.336-0.204,0.221-0.859,0.405-1.214
			c-5.167,1.078-10.981,5.237-17.008,3.847c-0.263-2.057-0.717-4.431-0.404-7.49c4.465-2.211,10.438-5.876,15.186-8.504
			c1.354-0.749,4.533-2.006,3.239-3.239C131.377,103.479,123.608,106.271,117.291,110.681z M185.523,101.57
			c-0.213,1.31,1.05,2.062,1.619,3.239c0.441,0.912,1.048,2.294,1.62,3.645c2.24,5.286,2.384,10.234,8.301,8.707
			c2.065-0.533,4.529-1.943,6.075-2.024c-0.018-0.353,0.045-0.63,0.202-0.81c-2.752-1.037-6.178,2.202-9.313,0.81
			c-2.121-4.629-4.821-8.677-6.479-13.768C186.507,101.363,185.957,101.401,185.523,101.57z M183.903,102.177
			c-3.089,0.623-5.711,1.713-8.909,2.227c0.579,6.233-5.273,7.28-8.908,9.923c2.358,3.783,5.074,7.209,8.505,9.921
			c9.647-0.722,19.276-2.816,27.737-4.252c0.783-1.136,0.325-2.255,0.812-3.646c-3.298,0.433-6.862,2.897-11.34,1.823
			C189.007,113.001,187.655,106.389,183.903,102.177z M137.335,102.379c-2.938,1.648-5.904,3.271-8.706,5.062
			c-1.67,2.33-7.113,2.089-8.301,4.859c-0.752,1.753,0.443,3.79,0.202,6.075c6.242,0.149,11.087-2.803,16.198-4.455
			c0.686-3.963,0.689-7.386,1.215-11.541c-0.135,0-0.271,0-0.405,0C137.47,102.379,137.402,102.379,137.335,102.379z
			 M169.73,103.594c-4.378,1.534-8.293,2.388-12.148,4.252c-4.54,1.307-9.633,2.711-14.375,4.049
			c-1.27,0.359-3.82,0.767-3.441,2.835c11.096-3.446,20.731-7.003,30.572-11.136c-0.135,0-0.27,0-0.403,0
			C169.866,103.594,169.798,103.594,169.73,103.594z M108.584,105.619c-1.896,4.716-4.799,8.429-6.275,13.564
			c0.573,0.641,1.152,1.275,2.023,1.62c2.752-5.414,5.786-10.547,8.302-16.198C111.08,104.741,109.896,105.243,108.584,105.619z
			 M162.037,108.251c0.938,0.816,1.668,1.841,2.228,3.037c2.639-1.613,6.436-2.068,6.479-6.276
			C167.407,105.942,164.891,106.673,162.037,108.251z M159,109.061c0.628,1.531,1.568,2.751,2.431,4.049
			c0.854-0.225,1.536-0.622,2.023-1.215c-0.987-1.104-1.509-2.674-2.631-3.644C160.461,108.769,159.717,108.901,159,109.061z
			 M158.19,109.668c-6.025,1.47-12.18,4.557-18.627,6.276c-0.003,2.63-0.469,4.797-0.405,7.491c3.594-1.595,7.48-2.958,11.136-4.455
			c3.69-1.511,7.199-3.237,10.124-5.467C159.686,112.222,158.751,111.131,158.19,109.668z"/>
		<path d="M162.239,127.283c0.694-0.356,1.309,0.035,1.822,0.404c0.025,0.5,0.03,0.977-0.203,1.214c0.338,0,0.675,0,1.013,0
			c0.122,0.485,0.291,0.925,0.202,1.62c-0.385,0.087-0.366,0.579-1.012,0.405c0.156,0.18,0.218,0.458,0.202,0.81
			c-1.52,0.328-1.812,2.879-3.645,2.228c-0.147,0.595-0.763,0.723-1.215,1.012c-0.354-0.183-0.78-0.453-0.404-0.81
			c-4.069-1.366-2.4-6.815,0.404-8.301C160.414,126.275,162.345,125.761,162.239,127.283z M158.19,128.903
			c1.164-0.354,0.483,1.136,1.214,1.216c0.517-0.823-0.343-1.741-0.81-2.229C158.626,128.395,158.276,128.518,158.19,128.903z
			 M157.987,131.535c0.377-0.703-0.104-1.071-0.405-1.62C157.397,130.71,157.48,131.033,157.987,131.535z M160.62,132.75
			c-0.784,0.176-0.331-0.884-1.215-0.608C159.284,132.751,160.259,133.292,160.62,132.75z"/>
		<path d="M118.1,131.131c0.196,0.005,0.157,0.247,0.203,0.404c0.839-0.995,1.736-2.475,4.252-2.024
			c4.107,0.734,2.84,7.797-1.418,8.301c-2.921,0.346-2.916-2.035-3.847-4.05C117.465,132.461,118.179,132.283,118.1,131.131z"/>
	</g>
	<g>
		<path d="M3.468,27.179c-0.229,0.135-0.621,0.242-1.079,0.242C0.958,27.421,0,26.274,0,24.115c0-1.875,0.945-3.399,2.577-3.399
			c0.352,0,0.729,0.094,0.917,0.203l-0.202,0.85c-0.135-0.066-0.403-0.176-0.742-0.176c-1.052,0-1.511,1.241-1.511,2.522
			c0,1.523,0.58,2.441,1.538,2.441c0.27,0,0.512-0.054,0.742-0.174L3.468,27.179z"/>
		<path d="M5.156,20.81l0.876,3.75c0.108,0.515,0.175,0.932,0.27,1.351H6.33c0.067-0.377,0.175-0.863,0.271-1.334l0.782-3.766h1.025
			l-1.065,4.197c-0.404,1.631-0.862,3.21-1.618,4.208c-0.459,0.58-0.945,0.877-1.175,0.985l-0.391-0.876
			c0.312-0.177,0.634-0.459,0.931-0.824c0.271-0.352,0.473-0.783,0.58-1.105c0.056-0.147,0.081-0.229,0.081-0.325
			c0-0.08-0.013-0.161-0.041-0.241l-1.647-6.02H5.156z"/>
		<path d="M10.569,19.286v1.523h1.254v0.783h-1.254v3.885c0,0.851,0.296,1.079,0.674,1.079c0.175,0,0.312-0.013,0.418-0.04
			l0.054,0.796c-0.188,0.068-0.432,0.107-0.769,0.107c-0.419,0-0.783-0.107-1.025-0.392c-0.271-0.297-0.392-0.742-0.392-1.646
			v-3.792H8.734V20.81H9.53v-1.104L10.569,19.286z"/>
		<path d="M16.641,24.076c0,2.522-1.161,3.372-2.172,3.372c-1.174,0-2.118-1.064-2.118-3.358c0-2.374,1.065-3.373,2.186-3.373
			C15.71,20.716,16.641,21.809,16.641,24.076z M13.389,24.076c0,1.08,0.188,2.549,1.134,2.549c0.891,0,1.079-1.524,1.079-2.549
			c0-0.999-0.188-2.538-1.106-2.538C13.565,21.538,13.389,23.077,13.389,24.076z"/>
		<path d="M17.791,22.848c0-0.999-0.04-1.579-0.054-2.038h0.918l0.053,0.837h0.027c0.364-0.688,0.876-0.931,1.39-0.931
			c1.147,0,1.89,1.201,1.89,3.345c0,2.43-0.998,3.387-2.023,3.387c-0.621,0-0.972-0.392-1.146-0.756h-0.027v3.238h-1.025
			L17.791,22.848L17.791,22.848z M18.816,24.953c0,0.188,0.014,0.377,0.055,0.539c0.203,0.931,0.675,1.092,0.957,1.092
			c0.864,0,1.147-1.187,1.147-2.495c0-1.349-0.324-2.483-1.16-2.483c-0.473,0-0.904,0.58-0.957,1.176
			c-0.027,0.147-0.042,0.322-0.042,0.499V24.953z"/>
		<path d="M23.189,18.004h1.039v9.336h-1.039V18.004z"/>
		<path d="M29.208,25.855c0,0.499,0.014,1.066,0.068,1.484h-0.931l-0.067-0.688h-0.041c-0.283,0.499-0.742,0.797-1.309,0.797
			c-0.863,0-1.537-0.729-1.537-1.86c0-1.646,1.308-2.361,2.778-2.375V23.01c0-0.876-0.229-1.472-1.039-1.472
			c-0.403,0-0.769,0.122-1.078,0.338l-0.229-0.729c0.283-0.203,0.876-0.432,1.524-0.432c1.309,0,1.861,0.85,1.861,2.307
			L29.208,25.855L29.208,25.855z M28.196,23.954c-0.54,0-1.794,0.106-1.794,1.523c0,0.863,0.432,1.16,0.796,1.16
			c0.458,0,0.836-0.336,0.958-0.984c0.026-0.121,0.04-0.257,0.04-0.379V23.954z"/>
		<path d="M30.506,26.261c0.23,0.148,0.635,0.338,1.054,0.338c0.58,0,0.958-0.364,0.958-0.943c0-0.499-0.177-0.838-0.836-1.282
			c-0.851-0.541-1.309-1.107-1.309-1.85c0-1.065,0.782-1.807,1.794-1.807c0.513,0,0.891,0.174,1.16,0.337l-0.27,0.781
			c-0.257-0.175-0.525-0.297-0.876-0.297c-0.555,0-0.836,0.405-0.836,0.837c0,0.431,0.161,0.674,0.809,1.121
			c0.755,0.483,1.35,1.079,1.35,1.981c0,1.309-0.891,1.943-1.97,1.943c-0.472,0-0.999-0.148-1.282-0.377L30.506,26.261z"/>
		<path d="M34.582,22.497c0-0.77-0.041-1.16-0.054-1.688h0.904l0.054,0.812h0.027c0.283-0.527,0.782-0.904,1.471-0.904
			c0.606,0,1.12,0.283,1.363,0.999h0.026c0.174-0.325,0.404-0.593,0.647-0.743c0.256-0.175,0.565-0.255,0.903-0.255
			c0.876,0,1.564,0.634,1.564,2.307v4.317h-1.025v-4.088c0-0.851-0.122-1.672-0.918-1.672c-0.432,0-0.809,0.363-0.957,0.984
			c-0.026,0.162-0.042,0.364-0.042,0.58v4.195h-1.024v-4.276c0-0.715-0.121-1.483-0.904-1.483c-0.432,0-0.85,0.363-0.971,1.065
			c-0.027,0.162-0.041,0.352-0.041,0.553v4.142h-1.025L34.582,22.497L34.582,22.497z"/>
	</g>
	<g>
		<path d="M197.785,4.845c0-0.999-0.039-1.579-0.053-2.039h0.917l0.054,0.837h0.028c0.362-0.688,0.877-0.931,1.389-0.931
			c1.147,0,1.89,1.201,1.89,3.345c0,2.429-0.999,3.386-2.023,3.386c-0.621,0-0.971-0.391-1.146-0.755h-0.027v3.238h-1.025V4.845
			H197.785z M198.811,6.949c0,0.188,0.015,0.377,0.056,0.538c0.201,0.932,0.674,1.094,0.958,1.094c0.863,0,1.146-1.188,1.146-2.495
			c0-1.35-0.322-2.483-1.16-2.483c-0.472,0-0.902,0.58-0.957,1.175c-0.026,0.148-0.041,0.323-0.041,0.5L198.811,6.949L198.811,6.949
			z"/>
		<path d="M204.304,1.121c0,0.403-0.24,0.674-0.634,0.674c-0.338,0-0.593-0.271-0.593-0.674c0-0.405,0.271-0.676,0.606-0.676
			C204.063,0.445,204.304,0.715,204.304,1.121z M203.186,9.336v-6.53h1.039v6.53H203.186z"/>
		<path d="M205.668,0h1.038v9.336h-1.038V0z"/>
		<path d="M212.158,7.555c0,0.715,0.042,1.295,0.055,1.781h-0.903l-0.081-0.688h-0.026c-0.188,0.325-0.688,0.796-1.391,0.796
			c-1.135,0-1.592-0.89-1.592-2.508v-4.13h1.037v3.981c0,1.024,0.163,1.779,0.88,1.779c0.606,0,0.876-0.566,0.931-0.863
			c0.039-0.175,0.053-0.377,0.053-0.594V2.806h1.039L212.158,7.555L212.158,7.555z"/>
		<path d="M213.442,8.257c0.229,0.148,0.636,0.338,1.055,0.338c0.58,0,0.955-0.364,0.955-0.944c0-0.499-0.175-0.837-0.835-1.281
			c-0.851-0.541-1.309-1.107-1.309-1.85c0-1.065,0.782-1.808,1.795-1.808c0.512,0,0.89,0.175,1.159,0.338l-0.271,0.781
			c-0.258-0.175-0.525-0.296-0.877-0.296c-0.554,0-0.837,0.404-0.837,0.837c0,0.432,0.161,0.674,0.811,1.121
			c0.755,0.483,1.349,1.079,1.349,1.981c0,1.31-0.891,1.943-1.97,1.943c-0.473,0-0.998-0.148-1.281-0.377L213.442,8.257z"/>
	</g>
	<g>
		<path d="M329.372,40c-0.229,0.135-0.621,0.242-1.079,0.242c-1.43,0-2.388-1.147-2.388-3.306c0-1.875,0.944-3.398,2.577-3.398
			c0.35,0,0.729,0.094,0.916,0.203l-0.2,0.85c-0.136-0.067-0.406-0.176-0.743-0.176c-1.054,0-1.512,1.241-1.512,2.522
			c0,1.524,0.58,2.442,1.539,2.442c0.269,0,0.511-0.055,0.742-0.175L329.372,40z"/>
		<path d="M330.913,36.991c0,2.01,0.796,2.429,1.537,2.429c0.458,0,0.824-0.109,1.079-0.244l0.177,0.756
			c-0.366,0.188-0.918,0.311-1.442,0.311c-1.565,0-2.376-1.282-2.376-3.277c0-2.106,0.903-3.427,2.213-3.427
			c1.322,0,1.86,1.401,1.86,2.859c0,0.255-0.013,0.433-0.025,0.594H330.913z M332.963,36.221c0.016-1.295-0.473-1.875-0.971-1.875
			c-0.688,0-1.023,0.985-1.064,1.875H332.963z"/>
		<path d="M335.083,30.825h1.038v9.336h-1.038V30.825z"/>
		<path d="M337.66,30.825h1.04v9.336h-1.04V30.825z"/>
		<path d="M342.884,33.631l0.636,3.198c0.135,0.699,0.27,1.401,0.351,2.078h0.055c0.095-0.677,0.256-1.432,0.403-2.053l0.756-3.225
			h0.796l0.717,3.131c0.16,0.729,0.31,1.415,0.418,2.146h0.053c0.083-0.689,0.204-1.363,0.353-2.106l0.62-3.17h1.038l-1.645,6.53
			h-0.852l-0.755-3.17c-0.163-0.635-0.257-1.215-0.365-1.956h-0.025c-0.109,0.768-0.23,1.376-0.379,1.997l-0.781,3.129h-0.877
			l-1.592-6.53H342.884z"/>
		<path d="M353.317,38.676c0,0.5,0.013,1.066,0.066,1.485h-0.931l-0.068-0.689h-0.04c-0.283,0.499-0.741,0.796-1.309,0.796
			c-0.864,0-1.538-0.729-1.538-1.859c0-1.646,1.31-2.361,2.78-2.375V35.83c0-0.876-0.23-1.472-1.04-1.472
			c-0.403,0-0.771,0.122-1.079,0.339l-0.229-0.729c0.283-0.203,0.877-0.432,1.523-0.432c1.31,0,1.862,0.85,1.862,2.307
			L353.317,38.676L353.317,38.676z M352.306,36.775c-0.541,0-1.795,0.107-1.795,1.524c0,0.863,0.432,1.16,0.796,1.16
			c0.458,0,0.837-0.336,0.959-0.984c0.025-0.122,0.04-0.257,0.04-0.379V36.775z"/>
		<path d="M354.79,30.825h1.038v9.336h-1.038V30.825z"/>
		<path d="M357.367,30.825h1.038v9.336h-1.038V30.825z"/>
	</g>
	<g>
		<path d="M6.798,208.428c-0.229,0.135-0.619,0.242-1.078,0.242c-1.431,0-2.389-1.146-2.389-3.306c0-1.875,0.945-3.399,2.577-3.399
			c0.351,0,0.729,0.095,0.918,0.203l-0.203,0.851c-0.135-0.067-0.405-0.177-0.742-0.177c-1.052,0-1.511,1.241-1.511,2.522
			c0,1.523,0.58,2.441,1.538,2.441c0.271,0,0.513-0.055,0.743-0.175L6.798,208.428z"/>
		<path d="M11.617,205.325c0,2.521-1.161,3.37-2.172,3.37c-1.173,0-2.118-1.063-2.118-3.357c0-2.374,1.066-3.373,2.187-3.373
			C10.686,201.965,11.617,203.058,11.617,205.325z M8.365,205.325c0,1.078,0.189,2.549,1.134,2.549c0.892,0,1.079-1.524,1.079-2.549
			c0-0.999-0.188-2.538-1.105-2.538C8.541,202.787,8.365,204.326,8.365,205.325z"/>
		<path d="M13.899,200.374c0,0.402-0.242,0.674-0.634,0.674c-0.339,0-0.595-0.271-0.595-0.674c0-0.406,0.271-0.676,0.607-0.676
			C13.657,199.698,13.899,199.968,13.899,200.374z M12.78,208.589v-6.529h1.039v6.529H12.78z"/>
		<path d="M15.264,199.253h1.039v9.336h-1.039V199.253z"/>
		<path d="M18.57,205.419c0,2.01,0.796,2.429,1.538,2.429c0.459,0,0.823-0.107,1.079-0.244l0.176,0.757
			c-0.364,0.188-0.917,0.311-1.443,0.311c-1.564,0-2.375-1.282-2.375-3.277c0-2.104,0.904-3.428,2.212-3.428
			c1.322,0,1.862,1.402,1.862,2.861c0,0.255-0.013,0.432-0.026,0.593L18.57,205.419L18.57,205.419z M20.62,204.649
			c0.014-1.295-0.472-1.875-0.97-1.875c-0.689,0-1.026,0.985-1.066,1.875H20.62z"/>
		<path d="M26.667,199.253v7.771c0,0.445,0.041,1.188,0.056,1.565h-0.892l-0.067-0.81h-0.04c-0.217,0.458-0.676,0.916-1.376,0.916
			c-1.094,0-1.89-1.187-1.89-3.345c0-2.307,0.958-3.387,1.957-3.387c0.485,0,0.944,0.216,1.201,0.77h0.027v-3.48H26.667z
			 M25.642,204.556c0-0.136,0-0.297-0.015-0.432c-0.066-0.689-0.472-1.27-0.971-1.27c-0.863,0-1.161,1.201-1.161,2.496
			c0,1.376,0.352,2.481,1.106,2.481c0.323,0,0.769-0.175,0.999-1.119c0.025-0.122,0.04-0.271,0.04-0.432L25.642,204.556
			L25.642,204.556z"/>
		<path d="M30.34,199.631c0.392-0.121,0.876-0.175,1.39-0.175c0.958,0,1.633,0.242,2.132,0.688c0.701,0.606,1.228,1.779,1.228,3.684
			c0,2.077-0.512,3.21-1.092,3.844c-0.594,0.661-1.458,0.973-2.51,0.973c-0.418,0-0.85-0.027-1.146-0.096L30.34,199.631
			L30.34,199.631z M31.365,207.752c0.148,0.027,0.297,0.027,0.391,0.027c1.147,0,2.253-0.837,2.253-3.927
			c0-2.294-0.701-3.548-2.158-3.548c-0.162,0-0.352,0.014-0.486,0.055L31.365,207.752L31.365,207.752z"/>
		<path d="M36.347,208.589v-9.092h0.971l1.672,4.263c0.378,0.985,0.85,2.185,1.161,3.17h0.026c-0.081-1.43-0.121-2.604-0.121-4.182
			v-3.251h0.931v9.092h-0.971l-1.728-4.371c-0.378-0.916-0.769-1.956-1.093-3.09H37.17c0.081,1.215,0.108,2.375,0.108,4.316v3.145
			H36.347z"/>
		<path d="M43.702,205.865l-0.594,2.725h-1.012l2.077-9.092h1.147l2.023,9.092H46.32l-0.594-2.725H43.702z M45.578,205.028
			l-0.472-2.309c-0.135-0.647-0.256-1.402-0.364-2.076h-0.04c-0.107,0.688-0.243,1.47-0.378,2.076l-0.472,2.309H45.578z"/>
	</g>
	<g>
		<path d="M136.421,220.58c0-0.555-0.041-1.199-0.055-1.688h0.931l0.055,1.041h0.026c0.217-0.623,0.77-1.134,1.376-1.134
			c0.081,0,0.148,0,0.217,0.014v1.052c-0.068,0-0.136,0-0.217,0c-0.662,0-1.146,0.605-1.255,1.348
			c-0.026,0.178-0.041,0.379-0.041,0.597v3.615h-1.039v-4.845H136.421z"/>
		<path d="M140.901,217.209c0,0.401-0.242,0.673-0.634,0.673c-0.337,0-0.595-0.271-0.595-0.673c0-0.405,0.271-0.676,0.607-0.676
			C140.659,216.533,140.901,216.804,140.901,217.209z M139.782,225.425v-6.531h1.039v6.531H139.782z"/>
		<path d="M142.251,216.089h1.025v3.589h0.027c0.337-0.649,0.822-0.877,1.39-0.877c1.024,0,1.781,1.16,1.781,3.306
			c0,2.347-0.973,3.425-1.983,3.425c-0.688,0-1.039-0.402-1.295-0.956h-0.054l-0.067,0.851h-0.877
			c0.014-0.379,0.054-1.12,0.054-1.565L142.251,216.089L142.251,216.089z M143.276,223.131c0,0.147,0.014,0.283,0.042,0.405
			c0.242,0.956,0.688,1.131,0.984,1.131c0.836,0,1.133-1.131,1.133-2.521c0-1.309-0.311-2.455-1.16-2.455
			c-0.485,0-0.876,0.595-0.971,1.16c-0.014,0.148-0.027,0.297-0.027,0.445L143.276,223.131L143.276,223.131z"/>
		<path d="M151.658,222.159c0,2.523-1.161,3.37-2.172,3.37c-1.173,0-2.118-1.063-2.118-3.357c0-2.372,1.066-3.371,2.187-3.371
			C150.727,218.801,151.658,219.892,151.658,222.159z M148.406,222.159c0,1.081,0.189,2.551,1.134,2.551
			c0.891,0,1.079-1.526,1.079-2.551c0-0.999-0.188-2.538-1.105-2.538C148.582,219.621,148.406,221.16,148.406,222.159z"/>
		<path d="M152.645,224.344c0.229,0.148,0.635,0.34,1.053,0.34c0.58,0,0.957-0.366,0.957-0.946c0-0.496-0.175-0.837-0.836-1.281
			c-0.852-0.54-1.31-1.106-1.31-1.85c0-1.063,0.782-1.806,1.795-1.806c0.513,0,0.89,0.175,1.159,0.336l-0.271,0.781
			c-0.256-0.175-0.525-0.297-0.876-0.297c-0.554,0-0.836,0.404-0.836,0.837c0,0.432,0.161,0.676,0.809,1.121
			c0.756,0.483,1.351,1.081,1.351,1.982c0,1.31-0.892,1.941-1.971,1.941c-0.472,0-0.999-0.148-1.281-0.376L152.645,224.344z"/>
		<path d="M160.729,222.159c0,2.523-1.161,3.37-2.173,3.37c-1.174,0-2.118-1.063-2.118-3.357c0-2.372,1.065-3.371,2.186-3.371
			C159.797,218.801,160.729,219.892,160.729,222.159z M157.477,222.159c0,1.081,0.188,2.551,1.134,2.551
			c0.89,0,1.079-1.526,1.079-2.551c0-0.999-0.189-2.538-1.106-2.538C157.652,219.621,157.477,221.16,157.477,222.159z"/>
		<path d="M161.891,220.58c0-0.769-0.04-1.159-0.054-1.688h0.904l0.053,0.812h0.027c0.284-0.527,0.783-0.903,1.471-0.903
			c0.607,0,1.12,0.283,1.363,0.999h0.027c0.175-0.326,0.404-0.594,0.646-0.745c0.256-0.175,0.566-0.254,0.904-0.254
			c0.877,0,1.563,0.633,1.563,2.307v4.317h-1.023v-4.09c0-0.852-0.122-1.671-0.918-1.671c-0.433,0-0.81,0.361-0.958,0.984
			c-0.027,0.162-0.041,0.362-0.041,0.58v4.195h-1.025v-4.277c0-0.716-0.121-1.482-0.903-1.482c-0.433,0-0.851,0.361-0.972,1.063
			c-0.026,0.161-0.041,0.354-0.041,0.555v4.143h-1.025L161.891,220.58L161.891,220.58z"/>
		<path d="M170.988,222.255c0,2.01,0.797,2.429,1.538,2.429c0.458,0,0.824-0.108,1.08-0.244l0.176,0.755
			c-0.366,0.188-0.918,0.311-1.444,0.311c-1.564,0-2.375-1.282-2.375-3.275c0-2.105,0.904-3.428,2.213-3.428
			c1.322,0,1.861,1.4,1.861,2.86c0,0.254-0.013,0.432-0.028,0.594L170.988,222.255L170.988,222.255z M173.04,221.483
			c0.014-1.295-0.474-1.875-0.973-1.875c-0.688,0-1.025,0.985-1.065,1.875H173.04z"/>
		<path d="M174.984,224.344c0.229,0.148,0.633,0.34,1.051,0.34c0.58,0,0.959-0.366,0.959-0.946c0-0.496-0.176-0.837-0.837-1.281
			c-0.85-0.54-1.309-1.106-1.309-1.85c0-1.063,0.78-1.806,1.793-1.806c0.514,0,0.892,0.175,1.162,0.336l-0.271,0.781
			c-0.255-0.175-0.526-0.297-0.877-0.297c-0.552,0-0.835,0.404-0.835,0.837c0,0.432,0.162,0.676,0.808,1.121
			c0.756,0.483,1.352,1.081,1.352,1.982c0,1.31-0.893,1.941-1.972,1.941c-0.471,0-0.999-0.148-1.281-0.376L174.984,224.344z"/>
	</g>
	<g>
		<path d="M332.971,197.755v-5.748h-0.822v-0.782h0.822v-0.351c0-0.688,0.204-1.483,0.742-1.996
			c0.378-0.352,0.893-0.566,1.659-0.566c0.567,0,1.2,0.148,1.579,0.336v9.107h-1.038v-8.46c-0.188-0.08-0.432-0.133-0.715-0.133
			c-0.905,0-1.188,0.779-1.188,1.644v0.419h1.118v0.782h-1.118v5.748H332.971z"/>
		<path d="M341.839,196.27c0,0.5,0.015,1.066,0.066,1.485h-0.93l-0.069-0.689h-0.039c-0.283,0.5-0.741,0.796-1.309,0.796
			c-0.863,0-1.539-0.728-1.539-1.859c0-1.646,1.309-2.36,2.779-2.374v-0.202c0-0.877-0.229-1.472-1.04-1.472
			c-0.402,0-0.768,0.122-1.077,0.338l-0.23-0.729c0.283-0.203,0.877-0.432,1.526-0.432c1.308,0,1.86,0.85,1.86,2.307L341.839,196.27
			L341.839,196.27z M340.827,194.368c-0.54,0-1.796,0.106-1.796,1.523c0,0.863,0.432,1.16,0.798,1.16
			c0.458,0,0.835-0.336,0.957-0.983c0.026-0.121,0.041-0.258,0.041-0.379V194.368z"/>
		<path d="M347.25,196.917c0,1.714-0.214,2.36-0.646,2.848c-0.394,0.433-0.999,0.688-1.742,0.688c-0.552,0-1.092-0.135-1.428-0.323
			l0.239-0.81c0.258,0.136,0.688,0.283,1.217,0.283c0.821,0,1.335-0.513,1.335-1.997v-0.66h-0.026
			c-0.218,0.513-0.702,0.796-1.256,0.796c-1.16,0-1.915-1.31-1.915-3.226c0-2.399,1.093-3.386,2.062-3.386
			c0.688,0,1.013,0.458,1.217,0.822h0.025l0.053-0.729h0.919c-0.015,0.445-0.056,1.024-0.056,2.038L347.25,196.917L347.25,196.917z
			 M346.226,193.479c0-0.163-0.015-0.338-0.054-0.473c-0.108-0.445-0.353-0.985-0.945-0.985c-0.755,0-1.16,1.013-1.16,2.455
			c0,1.659,0.527,2.416,1.16,2.416c0.322,0,0.729-0.147,0.932-0.932c0.054-0.202,0.067-0.405,0.067-0.593V193.479L346.226,193.479z"
			/>
		<path d="M349.425,194.584c0,2.011,0.799,2.429,1.539,2.429c0.458,0,0.822-0.108,1.078-0.243l0.176,0.756
			c-0.363,0.188-0.918,0.311-1.442,0.311c-1.563,0-2.374-1.281-2.374-3.277c0-2.104,0.903-3.427,2.211-3.427
			c1.323,0,1.862,1.402,1.862,2.86c0,0.255-0.015,0.432-0.026,0.593L349.425,194.584L349.425,194.584z M351.475,193.814
			c0.016-1.295-0.472-1.875-0.97-1.875c-0.688,0-1.025,0.985-1.066,1.875H351.475z"/>
		<path d="M353.598,188.419h1.038v9.336h-1.038V188.419z"/>
		<path d="M356.174,188.419h1.038v9.336h-1.038V188.419z"/>
		<path d="M362.665,195.974c0,0.715,0.041,1.295,0.055,1.781h-0.904l-0.081-0.689h-0.026c-0.188,0.325-0.688,0.796-1.391,0.796
			c-1.134,0-1.592-0.89-1.592-2.508v-4.129h1.038v3.98c0,1.024,0.162,1.779,0.879,1.779c0.606,0,0.876-0.566,0.931-0.862
			c0.039-0.175,0.053-0.378,0.053-0.595v-4.304h1.04L362.665,195.974L362.665,195.974z"/>
		<path d="M364.124,192.912c0-0.771-0.041-1.16-0.054-1.688h0.904l0.055,0.812h0.026c0.282-0.527,0.781-0.904,1.47-0.904
			c0.606,0,1.12,0.283,1.364,0.998h0.025c0.175-0.324,0.405-0.593,0.647-0.743c0.256-0.174,0.564-0.255,0.903-0.255
			c0.878,0,1.564,0.634,1.564,2.307v4.317h-1.025v-4.088c0-0.852-0.122-1.673-0.918-1.673c-0.432,0-0.809,0.363-0.957,0.984
			c-0.027,0.161-0.041,0.364-0.041,0.58v4.195h-1.024v-4.276c0-0.715-0.122-1.483-0.902-1.483c-0.432,0-0.851,0.363-0.973,1.065
			c-0.026,0.161-0.039,0.352-0.039,0.552v4.144h-1.027L364.124,192.912L364.124,192.912z"/>
	</g>
	<g>
		<path d="M365.847,95.463c-0.23,0.135-0.621,0.242-1.08,0.242c-1.431,0-2.388-1.147-2.388-3.306c0-1.875,0.943-3.398,2.577-3.398
			c0.35,0,0.729,0.094,0.916,0.203l-0.201,0.85c-0.136-0.067-0.404-0.176-0.742-0.176c-1.054,0-1.512,1.241-1.512,2.522
			c0,1.524,0.58,2.442,1.539,2.442c0.27,0,0.511-0.055,0.741-0.175L365.847,95.463z"/>
		<path d="M367.533,89.095l0.877,3.75c0.108,0.514,0.177,0.931,0.271,1.349h0.026c0.068-0.377,0.175-0.862,0.271-1.334l0.784-3.765
			h1.023l-1.065,4.197c-0.405,1.631-0.863,3.21-1.619,4.208c-0.458,0.58-0.944,0.876-1.173,0.984l-0.394-0.877
			c0.312-0.176,0.636-0.459,0.933-0.823c0.27-0.352,0.472-0.783,0.58-1.105c0.054-0.147,0.079-0.229,0.079-0.325
			c0-0.081-0.014-0.162-0.04-0.242l-1.646-6.018L367.533,89.095L367.533,89.095z"/>
		<path d="M372.948,87.571v1.524h1.254v0.783h-1.254v3.885c0,0.852,0.297,1.08,0.674,1.08c0.176,0,0.312-0.013,0.418-0.04
			l0.056,0.796c-0.189,0.067-0.433,0.107-0.771,0.107c-0.418,0-0.782-0.107-1.023-0.392c-0.271-0.296-0.392-0.742-0.392-1.646
			v-3.792h-0.798v-0.783h0.798V87.99L372.948,87.571z"/>
		<path d="M379.02,92.36c0,2.523-1.161,3.372-2.173,3.372c-1.174,0-2.117-1.063-2.117-3.357c0-2.375,1.064-3.373,2.187-3.373
			C378.089,89.001,379.02,90.093,379.02,92.36z M375.769,92.36c0,1.08,0.188,2.55,1.134,2.55c0.89,0,1.078-1.524,1.078-2.55
			c0-0.998-0.188-2.536-1.105-2.536C375.943,89.823,375.769,91.362,375.769,92.36z"/>
		<path d="M380.17,91.133c0-0.998-0.041-1.578-0.055-2.038h0.918l0.055,0.837h0.026c0.364-0.688,0.877-0.931,1.391-0.931
			c1.146,0,1.89,1.201,1.89,3.345c0,2.429-0.999,3.386-2.023,3.386c-0.621,0-0.973-0.391-1.146-0.755h-0.027v3.238h-1.025v-7.082
			H380.17z M381.195,93.237c0,0.188,0.015,0.378,0.054,0.539c0.203,0.932,0.676,1.094,0.958,1.094c0.863,0,1.146-1.188,1.146-2.495
			c0-1.351-0.325-2.483-1.16-2.483c-0.473,0-0.904,0.58-0.957,1.175c-0.026,0.148-0.041,0.323-0.041,0.5V93.237z"/>
		<path d="M385.568,86.289h1.039v9.336h-1.039V86.289z"/>
		<path d="M391.587,94.14c0,0.5,0.015,1.066,0.067,1.485h-0.931l-0.067-0.689h-0.041c-0.284,0.499-0.742,0.796-1.309,0.796
			c-0.863,0-1.537-0.729-1.537-1.859c0-1.646,1.308-2.361,2.778-2.375v-0.203c0-0.876-0.229-1.471-1.04-1.471
			c-0.402,0-0.769,0.121-1.078,0.338l-0.229-0.729c0.283-0.203,0.876-0.432,1.524-0.432c1.308,0,1.86,0.85,1.86,2.307v2.833H391.587
			z M390.575,92.24c-0.54,0-1.794,0.106-1.794,1.523c0,0.863,0.432,1.16,0.796,1.16c0.458,0,0.837-0.336,0.959-0.984
			c0.026-0.122,0.039-0.257,0.039-0.379V92.24z"/>
		<path d="M392.886,94.545c0.229,0.147,0.633,0.338,1.051,0.338c0.58,0,0.959-0.364,0.959-0.944c0-0.499-0.176-0.837-0.837-1.281
			c-0.852-0.541-1.31-1.107-1.31-1.85c0-1.065,0.781-1.808,1.795-1.808c0.514,0,0.891,0.175,1.16,0.338l-0.271,0.781
			c-0.256-0.175-0.525-0.296-0.877-0.296c-0.555,0-0.835,0.404-0.835,0.837c0,0.432,0.16,0.674,0.808,1.121
			c0.756,0.483,1.351,1.078,1.351,1.981c0,1.31-0.892,1.943-1.971,1.943c-0.471,0-0.998-0.148-1.282-0.377L392.886,94.545z"/>
		<path d="M396.961,90.782c0-0.771-0.041-1.16-0.055-1.688h0.904l0.055,0.811h0.026c0.283-0.526,0.782-0.903,1.47-0.903
			c0.607,0,1.12,0.283,1.364,0.999h0.026c0.175-0.325,0.404-0.593,0.646-0.743c0.255-0.175,0.564-0.255,0.904-0.255
			c0.877,0,1.562,0.634,1.562,2.307v4.317h-1.023v-4.088c0-0.851-0.122-1.672-0.918-1.672c-0.433,0-0.81,0.363-0.957,0.984
			c-0.028,0.162-0.041,0.364-0.041,0.58v4.195H399.9V91.35c0-0.715-0.122-1.484-0.903-1.484c-0.432,0-0.85,0.363-0.972,1.065
			c-0.026,0.161-0.039,0.352-0.039,0.552v4.144h-1.026L396.961,90.782L396.961,90.782z"/>
		<path d="M406.449,87.409c0,0.403-0.243,0.674-0.634,0.674c-0.338,0-0.595-0.271-0.595-0.674c0-0.405,0.27-0.677,0.606-0.677
			C406.206,86.733,406.449,87.004,406.449,87.409z M405.329,95.625v-6.53h1.038v6.53H405.329z"/>
		<path d="M410.997,95.463c-0.229,0.135-0.62,0.242-1.08,0.242c-1.431,0-2.389-1.147-2.389-3.306c0-1.875,0.944-3.398,2.577-3.398
			c0.352,0,0.729,0.094,0.918,0.203l-0.202,0.85c-0.136-0.067-0.403-0.176-0.743-0.176c-1.052,0-1.51,1.241-1.51,2.522
			c0,1.524,0.58,2.442,1.537,2.442c0.271,0,0.513-0.055,0.743-0.175L410.997,95.463z"/>
		<path d="M362.663,106.979c0-0.769-0.041-1.16-0.055-1.687h0.904l0.053,0.811h0.026c0.283-0.526,0.784-0.903,1.472-0.903
			c0.607,0,1.119,0.282,1.363,0.998h0.025c0.176-0.324,0.405-0.594,0.648-0.743c0.256-0.176,0.564-0.255,0.902-0.255
			c0.877,0,1.565,0.634,1.565,2.307v4.317h-1.025v-4.089c0-0.85-0.121-1.672-0.919-1.672c-0.432,0-0.808,0.364-0.956,0.985
			c-0.026,0.161-0.041,0.364-0.041,0.58v4.195h-1.025v-4.276c0-0.715-0.12-1.484-0.903-1.484c-0.432,0-0.85,0.364-0.972,1.066
			c-0.026,0.162-0.04,0.351-0.04,0.552v4.143h-1.024L362.663,106.979L362.663,106.979z"/>
		<path d="M371.76,108.651c0,2.012,0.796,2.43,1.537,2.43c0.458,0,0.823-0.109,1.079-0.244l0.177,0.756
			c-0.365,0.188-0.918,0.31-1.443,0.31c-1.565,0-2.376-1.281-2.376-3.276c0-2.105,0.904-3.427,2.213-3.427
			c1.323,0,1.862,1.401,1.862,2.859c0,0.255-0.015,0.433-0.026,0.593H371.76z M373.81,107.882c0.015-1.295-0.474-1.875-0.972-1.875
			c-0.688,0-1.023,0.985-1.064,1.875H373.81z"/>
		<path d="M375.931,106.979c0-0.769-0.04-1.16-0.054-1.687h0.902l0.053,0.811h0.028c0.283-0.526,0.782-0.903,1.472-0.903
			c0.606,0,1.118,0.282,1.36,0.998h0.028c0.175-0.324,0.403-0.594,0.646-0.743c0.257-0.176,0.567-0.255,0.903-0.255
			c0.877,0,1.564,0.634,1.564,2.307v4.317h-1.024v-4.089c0-0.85-0.122-1.672-0.917-1.672c-0.434,0-0.811,0.364-0.958,0.985
			c-0.026,0.161-0.041,0.364-0.041,0.58v4.195h-1.024v-4.276c0-0.715-0.121-1.484-0.904-1.484c-0.433,0-0.851,0.364-0.972,1.066
			c-0.026,0.162-0.041,0.351-0.041,0.552v4.143h-1.023L375.931,106.979L375.931,106.979z"/>
		<path d="M384.286,102.486h1.024v3.59h0.027c0.336-0.647,0.822-0.876,1.39-0.876c1.024,0,1.78,1.159,1.78,3.305
			c0,2.348-0.972,3.425-1.982,3.425c-0.688,0-1.038-0.403-1.295-0.957h-0.053l-0.069,0.851h-0.877
			c0.014-0.378,0.055-1.121,0.055-1.565V102.486L384.286,102.486z M385.311,109.528c0,0.148,0.016,0.283,0.042,0.405
			c0.242,0.957,0.688,1.132,0.983,1.132c0.836,0,1.134-1.132,1.134-2.521c0-1.31-0.312-2.455-1.16-2.455
			c-0.486,0-0.877,0.595-0.972,1.16c-0.013,0.149-0.027,0.298-0.027,0.446V109.528L385.311,109.528z"/>
		<path d="M389.673,106.979c0-0.553-0.042-1.201-0.057-1.687h0.933l0.054,1.04h0.027c0.217-0.621,0.771-1.133,1.376-1.133
			c0.08,0,0.148,0,0.217,0.013v1.053c-0.067,0-0.137,0-0.217,0c-0.662,0-1.146,0.606-1.256,1.348c-0.025,0.177-0.04,0.38-0.04,0.596
			v3.615h-1.037V106.979L389.673,106.979z"/>
		<path d="M396.392,110.337c0,0.499,0.014,1.065,0.067,1.483h-0.932l-0.067-0.688h-0.041c-0.283,0.499-0.741,0.795-1.309,0.795
			c-0.863,0-1.537-0.728-1.537-1.86c0-1.646,1.308-2.36,2.779-2.375v-0.202c0-0.876-0.23-1.473-1.039-1.473
			c-0.404,0-0.771,0.122-1.08,0.338l-0.229-0.728c0.283-0.203,0.876-0.433,1.524-0.433c1.308,0,1.861,0.851,1.861,2.308v2.834
			H396.392z M395.38,108.436c-0.54,0-1.794,0.107-1.794,1.524c0,0.863,0.433,1.16,0.796,1.16c0.458,0,0.838-0.336,0.959-0.984
			c0.026-0.122,0.039-0.257,0.039-0.379V108.436z"/>
		<path d="M397.865,106.979c0-0.769-0.04-1.16-0.053-1.687h0.902l0.053,0.796h0.028c0.282-0.526,0.809-0.89,1.498-0.89
			c0.901,0,1.577,0.66,1.577,2.238v4.384h-1.038v-4.194c0-0.783-0.147-1.552-0.903-1.552c-0.433,0-0.852,0.363-0.972,1.053
			c-0.04,0.162-0.056,0.364-0.056,0.593v4.101h-1.038L397.865,106.979L397.865,106.979z"/>
		<path d="M404.061,108.651c0,2.012,0.797,2.43,1.539,2.43c0.458,0,0.822-0.109,1.077-0.244l0.177,0.756
			c-0.364,0.188-0.918,0.31-1.443,0.31c-1.564,0-2.375-1.281-2.375-3.276c0-2.105,0.903-3.427,2.213-3.427
			c1.321,0,1.86,1.401,1.86,2.859c0,0.255-0.013,0.433-0.026,0.593H404.061z M406.111,107.882c0.015-1.295-0.473-1.875-0.972-1.875
			c-0.688,0-1.025,0.985-1.066,1.875H406.111z"/>
	</g>
	<line fill="none" stroke="#000000" stroke-width="0.5" stroke-miterlimit="10" x1="219.45" y1="6.302" x2="242.51" y2="33.861"/>
	<line fill="none" stroke="#000000" stroke-width="0.5" stroke-miterlimit="10" x1="44.535" y1="24.862" x2="96.84" y2="82.792"/>
	<line fill="none" stroke="#000000" stroke-width="0.5" stroke-miterlimit="10" x1="320.684" y1="38.923" x2="273.44" y2="65.919"/>
	<line fill="none" stroke="#000000" stroke-width="0.5" stroke-miterlimit="10" x1="273.44" y1="92.353" x2="358.93" y2="92.353"/>
	
		<line fill="none" stroke="#000000" stroke-width="0.5" stroke-miterlimit="10" x1="297.062" y1="194.151" x2="329.12" y2="194.151"/>
	
		<line fill="none" stroke="#000000" stroke-width="0.5" stroke-miterlimit="10" x1="159.269" y1="132.284" x2="159.269" y2="214.96"/>
	
		<line fill="none" stroke="#000000" stroke-width="0.5" stroke-miterlimit="10" x1="118.212" y1="121.036" x2="50.159" y2="203.712"/>
</g>
</svg>
