<?xml version="1.0" encoding="utf-8"?>
<!-- Generator: Adobe Illustrator 15.0.2, SVG Export Plug-In . SVG Version: 6.00 Build 0)  -->
<!DOCTYPE svg PUBLIC "-//W3C//DTD SVG 1.1//EN" "http://www.w3.org/Graphics/SVG/1.1/DTD/svg11.dtd">
<svg version="1.1" id="Layer_1" xmlns="http://www.w3.org/2000/svg" xmlns:xlink="http://www.w3.org/1999/xlink" x="0px" y="0px"
	 width="411.023px" height="313.769px" viewBox="-42.52 0 411.023 313.769" enable-background="new -42.52 0 411.023 313.769"
	 xml:space="preserve">
<g>
	<g>
		<g>
			<g>
				<g>
					<path d="M-18.029,123.61c5.524-16.778,13.203-32.347,24.313-46.843c-0.661-0.42-1.346-0.743-1.885-1.224
						c-0.951-0.854-1.765-1.858-2.737-2.686c-0.342-0.294-1.067-0.487-1.456-0.331c-3.38,1.381-8.41-1.295-7.409-6.166
						c0.178-0.868,0.208-1.798,0.554-2.593c1.395-3.207,5.88-3.38,8.417-1.534c1.392,1.01,2.348,2.279,2.58,3.978
						c0.234,1.728,1.33,2.93,2.362,4.187c0.191,0.231,0.382,0.462,0.559,0.705c1.619,2.216,1.718,2.197,3.697,0.329
						c3.142-2.959,6.23-5.983,9.515-8.784c2.854-2.437,5.911-4.647,8.951-6.869c2.933-2.144,5.813-4.417,8.97-6.185
						c3.945-2.208,8.153-3.954,12.243-5.899c0.192-0.088,0.368-0.199,0.506-0.272c-0.312-1.557-0.578-3.055-0.924-4.535
						c-0.194-0.847-0.702-1.359-1.665-1.543c-1.127-0.214-2.261-0.562-3.295-1.051c-2.455-1.158-3.366-3.408-2.336-5.958
						c0.448-1.11,1.271-2.076,1.952-3.088c1.002-1.475,2.517-1.445,4.051-1.325c1.91,0.154,3.815,0.355,5.727,0.458
						c0.979,0.052,1.541,0.441,1.976,1.335c0.844,1.729,1.46,3.41,0.256,5.217c-0.12,0.178-0.189,0.435-0.353,0.524
						c-1.608,0.84-1.173,2.238-0.876,3.486c0.327,1.4,0.874,2.753,1.289,4.014c3.429-0.938,6.788-1.919,10.184-2.771
						c3.448-0.868,6.896-1.802,10.399-2.361c4.148-0.664,8.349-0.993,12.537-1.398c2.134-0.206,4.278-0.272,6.421-0.371
						c0.659-0.028,1.006-0.205,1.085-0.944c0.126-1.231,0.527-2.45,0.53-3.677c0-0.742-0.459-1.53-0.864-2.206
						c-0.219-0.363-0.765-0.53-1.163-0.788c-1.542-1-2.018-2.565-1.28-4.24c0.176-0.392,0.42-0.754,0.566-1.156
						c0.605-1.712,1.878-2.486,3.623-2.602c0.729-0.05,1.482-0.17,2.188-0.047c0.663,0.114,1.333,0.429,1.897,0.801
						c0.802,0.537,1.311,1.401,2.405,0.155c1.114-1.266,4.263-0.022,4.853,1.762c0.566,1.702-0.375,4.626-1.888,5.646
						c-0.911,0.614-1.913,1.089-2.844,1.674c-1.209,0.761-2.176,3.934-1.523,5.177c0.178,0.334,0.733,0.588,1.15,0.65
						c2.081,0.314,4.204,0.411,6.255,0.844c5.175,1.098,10.478,1.594,15.5,3.437c2.485,0.913,5.152,1.318,7.665,2.173
						c2.797,0.954,5.505,2.174,8.263,3.259c0.979,0.385,1.966,0.767,2.979,1.052c0.906,0.251,1.565-0.187,2.033-0.982
						c0.733-1.251,1.578-2.446,2.223-3.737c0.303-0.612,0.341-1.396,0.345-2.101c0.002-0.672-0.207-1.346-0.298-2.021
						c-0.339-2.532,0.307-3.721,2.541-4.696c2.02-0.883,4.484-0.389,5.796,1.167c0.275,0.329,0.589,0.646,0.785,1.021
						c0.648,1.245,1.427,2.15,2.975,2.454c1.352,0.265,1.667,1.691,1.126,2.958c-0.841,1.979-2.613,2.679-4.39,3.292
						c-3.008,1.032-5.344,2.845-7.066,5.477c-0.089,0.138-0.143,0.3-0.303,0.64c2.16,1.161,4.332,2.242,6.42,3.47
						c2.291,1.348,4.532,2.783,6.735,4.262c1.697,1.136,3.352,2.342,4.943,3.616c3.904,3.12,8.354,5.565,11.618,9.478
						c1.227,1.471,2.627,2.809,4.027,4.119c0.275,0.256,1.075,0.328,1.388,0.117c2.217-1.5,3.987-3.318,4.55-6.116
						c0.375-1.883,2.485-3.337,4.618-3.512c0.429-0.034,0.891,0.031,1.28-0.107c2.648-0.938,4.262,0.389,5.155,2.833
						c0.593,1.619,0.894,3.378,1.063,5.103c0.125,1.247-1.429,2.937-2.679,3.221c-1.984,0.444-4.054,0.632-5.954,1.304
						c-1.823,0.644-3.478,1.763-5.202,2.675c2.787,3.295,5.143,6.577,7.236,10.057c1.203,1.997,2.723,3.812,3.844,5.846
						c1.831,3.318,3.619,6.684,5.129,10.156c1.676,3.867,3.003,7.885,4.54,11.816c0.117,0.301,0.734,0.659,1.043,0.6
						c2.618-0.482,5.206-1.06,7.809-1.597c0.676-0.138,0.697-0.5,0.638-1.12c-0.146-1.465,2.213-4.293,3.589-4.056
						c0.991,0.171,1.926,1.031,2.73,1.755c0.479,0.431,0.655,1.189,0.966,1.802c0.574,1.135,1.089,2.304,1.738,3.396
						c0.897,1.506,0.95,2.585,0.024,3.805c-0.104,0.136-0.195,0.333-0.335,0.386c-2.125,0.781-4.312,2.009-6.552,0.933
						c-2.352-1.125-4.585-1.097-6.978-0.451c-1.092,0.299-2.242,0.369-3.048,0.494c0.621,6.267,1.219,12.323,1.819,18.382
						c0.158,1.612,0.397,3.221,0.461,4.835c0.05,1.211-0.184,2.429-0.172,3.641c0.032,2.819,0.226,5.639,0.188,8.458
						c-0.023,1.908-0.298,3.817-0.516,5.715c-0.114,1.005,0.074,1.491,1.271,1.495c1.051,0.005,2.127,0.299,3.137,0.63
						c1.675,0.559,2.592-0.269,3.586-1.454c2.267-2.71,4.478-2.643,6.196-0.42c1.373,1.771,2.609,3.719,3.523,5.757
						c1.176,2.627-0.768,5.105-4.03,5.456c-0.94,0.1-1.886,0.089-2.826,0.126c-1.497,0.057-2.809-0.424-3.837-1.5
						c-1.679-1.762-3.803-2.599-6.143-2.938c-0.395-0.061-1.063,0.291-1.26,0.64c-0.416,0.735-0.64,1.588-0.879,2.412
						c-0.804,2.82-1.516,5.673-2.393,8.476c-0.723,2.315-1.5,4.637-2.472,6.857c-1.552,3.554-3.235,7.062-4.958,10.543
						c-1.224,2.478-2.57,4.896-3.933,7.303c-0.545,0.958-1.225,1.855-1.931,2.699c-0.918,1.107-0.879,1.814,0.3,2.596
						c0.821,0.548,1.629,1.125,2.494,1.604c1.019,0.57,2.035,0.916,3.278,0.382c1.608-0.692,3.067-0.188,4.602,0.702
						c1.88,1.09,2.077,2.736,2.52,4.541c0.842,3.474-0.061,3.8-3.197,5.082c-0.596,0.244-1.207,0.445-1.805,0.68
						c-2.095,0.831-4.645-1.509-5.504-3.6c-0.694-1.692-1.735-3.076-3.392-3.963c-0.972-0.523-1.881-1.18-2.882-1.642
						c-0.328-0.15-1.053-0.034-1.26,0.227c-2.15,2.659-4.118,5.479-6.374,8.049c-2.536,2.891-5.239,5.64-8.005,8.317
						c-2.224,2.151-4.608,4.152-6.995,6.136c-1.77,1.472-3.633,2.837-5.511,4.172c-0.896,0.644-1.037,1.306-0.651,2.29
						c0.651,1.655,1.269,3.338,1.77,5.042c0.393,1.33,1.216,2.3,2.47,2.545c1.656,0.323,2.483,1.351,3.228,2.66
						c0.852,1.505,0.967,3.088,0.624,4.73c-0.43,2.069-2.935,3.718-4.989,3.312c-3.433-0.679-6.195-3.989-6.281-7.573
						c-0.037-1.532,0.149-3.082-0.046-4.587c-0.172-1.333-0.706-2.631-1.132-3.924c-0.248-0.754-0.734-0.926-1.509-0.538
						c-2.221,1.112-4.479,2.145-6.719,3.227c-3.089,1.485-6.099,3.171-9.274,4.437c-4.59,1.829-9.277,3.434-13.967,4.999
						c-2.181,0.731-4.494,1.06-6.697,1.735c-1.787,0.55-1.936,1.065-1.607,2.854c0.457,2.475,0.864,4.967,1.215,7.464
						c0.107,0.753,0.708,1.495,0.122,2.368c-0.088,0.128,0.638,1.086,1.126,1.249c0.807,0.272,1.254,0.671,1.381,1.482
						c0.019,0.122,0.031,0.277,0.107,0.36c1.894,2.132,0.807,4.003-0.344,6.012c-0.916,1.596-2.21,2.173-3.889,2.05
						c-1.314-0.093-2.756-0.102-3.896-0.654c-2.499-1.203-3.954-3.583-3.286-6.552c0.201-0.895,0.947-1.707,1.568-2.455
						c1.057-1.275,1.691-2.499,1.286-4.32c-0.578-2.606-0.808-5.287-1.099-7.952c-0.106-0.978-0.506-1.22-1.419-1.126
						c-5.891,0.591-11.776,1.401-17.685,1.642c-4.6,0.182-9.238-0.285-13.849-0.613c-3.398-0.243-6.787-0.688-10.168-1.12
						c-1.483-0.189-2.951-0.535-4.413-0.875c-0.808-0.188-1.253-0.024-1.566,0.819c-0.673,1.84-1.401,3.666-2.224,5.447
						c-0.921,1.989-0.705,3.808,0.515,5.572c0.873,1.262,0.336,4.857-0.91,6.163c-0.208,0.219-0.436,0.42-0.644,0.63
						c-1.685,1.721-3.978,1.549-5.885,0.027c-1.723-1.377-2.558-3.231-2.96-5.116c-0.307-1.41,0.136-3.193,0.8-4.541
						c0.731-1.48,2.011-2.737,3.216-3.924c1.384-1.358,2.541-2.811,2.776-4.768c0.044-0.394-0.353-1.066-0.716-1.224
						c-3.691-1.585-7.459-3.003-11.123-4.642c-4.649-2.082-9.086-4.574-13.33-7.401c-2.905-1.939-5.893-3.762-8.775-5.736
						c-2.831-1.935-5.593-3.976-8.345-6.024c-0.536-0.395-0.905-0.57-1.433-0.079c-1.231,1.128-2.554,2.171-3.679,3.393
						c-0.523,0.57-0.939,1.477-0.94,2.234c-0.006,4.424-3.1,7.078-7.273,7.425c-1.328,0.111-2.785,0.341-3.965-0.084
						c-1.078-0.382-2.158-1.413-2.718-2.443c-1.126-2.077,0.173-6.574,2.023-8.076c1.304-1.059,2.794-1.488,4.444-1.395
						c1.856,0.112,3.492-0.356,4.83-1.685c0.934-0.927,1.901-1.827,2.755-2.817c0.186-0.214,0.097-0.908-0.12-1.179
						c-2.998-3.73-6.193-7.319-9.029-11.168c-2.578-3.496-4.809-7.247-7.127-10.928c-1.471-2.335-2.993-4.665-4.189-7.14
						c-1.481-3.063-2.666-6.266-3.938-9.423c-0.477-1.18-0.792-2.424-1.276-3.599c-0.117-0.281-0.67-0.625-0.935-0.563
						c-2.072,0.483-4.132,1.021-6.168,1.637c-0.585,0.177-1.085,0.656-1.611,1.022c-2.663,1.858-5.554,2.724-8.841,2.306
						c-2.611-0.338-5.011-3.561-3.958-5.881c0.472-1.031,1.742-1.944,2.86-2.403c2.655-1.098,5.428-1.868,8.362-1.877
						c2.145-0.009,4.29-0.115,6.43-0.243c1.386-0.077,1.549-0.391,1.331-1.68c-0.861-5.131-1.831-10.246-2.492-15.399
						c-0.494-3.853-0.663-7.757-0.818-11.646c-0.167-4.214-0.265-8.436-0.167-12.648c0.067-2.891,0.52-5.773,0.807-8.658
						c0.12-1.231,0.234-2.46,0.387-3.686c0.108-0.855-0.21-1.258-1.066-1.556c-3.035-1.057-6.054-1.646-9.313-1.097
						c-2.133,0.36-4.214-0.316-6.204-1.236c-1.242-0.573-2.606-0.841-3.229-2.292c-0.545-1.263-0.579-2.482,0.033-3.706
						c1.538-3.079,4.918-4.26,8.155-3.376c2.805,0.764,5.006,2.29,6.797,4.517C-21.99,122.916-20.147,123.64-18.029,123.61z
						 M190.929,215.097c-1.116-0.67-1.975-1.222-2.868-1.72c-2.567-1.425-2.612-1.538-1.415-4.15
						c0.14-0.306,0.204-0.654,0.337-0.968c0.352-0.837,1.383-1.147,2.141-0.707c1.42,0.829,2.857,1.631,4.289,2.448
						c0.824,0.467,1.415,0.316,1.899-0.553c0.705-1.266,1.558-2.449,2.252-3.726c2.09-3.83,4.288-7.621,6.143-11.563
						c1.619-3.433,2.929-7.02,4.189-10.603c1.208-3.415,2.194-6.915,3.229-10.389c0.274-0.92,0.371-1.896,0.556-2.884
						c-1.231-0.262-2.282-0.461-3.316-0.714c-1.867-0.466-3.754-0.872-5.576-1.475c-2.539-0.842-1.993-2.66-0.939-4.55
						c0.425-0.76,1.168-0.983,2.111-0.749c1.946,0.484,3.935,0.837,5.898,1.265c2.264,0.494,2.265,0.499,2.403-1.911
						c0.013-0.212,0.009-0.427,0.018-0.642c0.092-3.467,0.241-6.936,0.252-10.401c0.005-1.236-0.333-2.475-0.462-3.72
						c-0.037-0.389,0.063-0.799,0.144-1.195c0.069-0.319,0.314-0.627,0.302-0.938c-0.044-1.307-0.123-2.623-0.25-3.923
						c-0.316-3.192-0.633-6.384-1.02-9.568c-0.292-2.37-0.712-4.728-1.04-7.092c-0.146-1.064-0.573-1.542-1.721-1.181
						c-0.981,0.312-1.987,0.653-3,0.71c-1.161,0.069-2.481,0.149-3.465-0.327c-1.098-0.525-1.431-1.827-1.17-3.122
						c0.284-1.424,1.395-1.676,2.583-1.881c1.81-0.314,3.606-0.678,5.646-1.064c-0.704-1.872-1.237-3.486-1.906-5.043
						c-1.909-4.441-3.73-8.928-5.868-13.258c-1.484-3.019-3.367-5.856-5.195-8.698c-1.919-2.976-3.901-5.921-6.016-8.761
						c-1.47-1.976-1.772-1.915-3.751-0.506c-0.483,0.347-0.913,0.797-1.427,1.1c-1.166,0.692-2.3,1.51-3.56,1.931
						c-1.746,0.584-4.006-1.755-3.563-3.553c0.09-0.37,0.412-0.734,0.723-0.991c1.65-1.36,3.285-2.742,5.015-4.002
						c0.947-0.695,1.002-1.297,0.197-2.049c-3.272-3.075-6.487-6.222-9.858-9.187c-2.184-1.919-4.541-3.654-6.929-5.32
						c-2.49-1.742-5.061-3.382-7.678-4.925c-2.543-1.501-5.188-2.828-7.792-4.224c-0.807-0.434-1.407-0.29-1.961,0.521
						c-1.05,1.539-2.173,3.035-3.323,4.502c-0.673,0.857-1.556,1.025-2.522,0.424c-1.316-0.816-2.053-1.994-1.593-2.855
						c0.777-1.459,1.69-2.849,2.565-4.251c0.396-0.631,0.837-1.233,1.335-1.965c-0.943-0.344-1.661-0.617-2.385-0.867
						c-3.359-1.167-6.716-2.336-10.081-3.486c-2.619-0.893-5.206-1.928-7.883-2.589c-4.241-1.052-8.534-1.928-12.833-2.715
						c-2.605-0.48-5.261-0.688-7.9-0.951c-1.017-0.101-1.481,0.517-1.413,1.522c0.088,1.299,0.296,2.604,0.206,3.89
						c-0.051,0.715-0.422,1.62-0.962,2.037c-0.506,0.39-1.442,0.395-2.153,0.3c-0.595-0.079-1.215-0.461-1.681-0.871
						c-0.463-0.409-0.974-0.982-1.066-1.547c-0.219-1.344-0.328-2.73-0.25-4.088c0.078-1.372-0.479-1.696-1.724-1.66
						c-7.92,0.244-15.745,1.262-23.481,2.934c-4.984,1.076-9.946,2.272-14.761,4.232c0.519,1.726,1.182,3.364,1.456,5.065
						c0.168,1.05,0.135,2.584-0.501,3.226c-1.634,1.647-4.271,0.733-5.011-1.488c-0.379-1.135-0.779-2.265-1.151-3.401
						c-0.265-0.81-0.766-1.096-1.583-0.769c-1.154,0.464-2.322,0.895-3.464,1.39c-5.541,2.402-10.707,5.446-15.469,9.144
						c-4.193,3.256-8.443,6.439-12.49,9.867c-2.871,2.43-5.442,5.216-8.154,7.83c-0.86,0.829-0.617,1.536,0.085,2.32
						c1.345,1.496,2.659,3.022,3.947,4.568c1.012,1.211,0.596,3.433-0.835,4.111c-0.388,0.187-1.192,0.077-1.491-0.212
						c-1.713-1.669-3.371-3.397-4.959-5.187c-0.594-0.669-1.017-0.706-1.539-0.071c-0.732,0.891-1.48,1.774-2.129,2.725
						c-1.882,2.755-3.783,5.502-5.555,8.327c-1.427,2.269-2.775,4.599-3.982,6.987c-2.089,4.158-4.091,8.362-6.037,12.592
						c-1.042,2.269-1.96,4.604-2.796,6.955c-0.854,2.394-1.545,4.842-2.325,7.333c2.352,0.527,4.424,1.031,6.518,1.441
						c1.181,0.234,2.013,0.818,2.63,1.843c0.566,0.94,0.527,2.387-0.298,3.326c-0.762,0.869-1.555,1.45-2.905,0.848
						c-1.783-0.802-3.695-1.313-5.541-1.986c-0.76-0.273-1.174-0.057-1.25,0.727c-0.357,3.91-0.924,7.814-1.003,11.736
						c-0.113,5.563,0.119,11.131,0.238,16.697c0.036,1.657,0.088,3.329,0.305,4.968c0.424,3.21,0.938,6.411,1.473,9.61
						c0.491,2.932,1.034,5.856,1.627,8.766c0.059,0.298,0.66,0.73,0.926,0.68c2.012-0.382,4.001-0.895,6.006-1.306
						c0.468-0.097,1.07-0.117,1.476,0.097c1.417,0.735,1.765,1.999,1.317,4.271c-0.247,1.246-1.232,1.483-2.29,1.688
						c-1.701,0.324-3.393,0.716-5.14,1.093c0.099,0.481,0.132,0.78,0.218,1.055c1.431,4.497,2.862,8.985,5.369,13.053
						c2.126,3.452,4.053,7.025,6.221,10.448c1.484,2.334,3.172,4.551,4.878,6.732c2.694,3.456,5.525,6.814,8.204,10.287
						c0.902,1.168,1.42,0.731,2.201-0.046c0.968-0.965,2.017-1.868,3.117-2.686c0.378-0.279,1.083-0.433,1.498-0.274
						c1.003,0.371,1.932,0.934,2.867,1.466c0.999,0.571,1.153,1.453,0.385,2.291c-0.373,0.409-0.847,0.723-1.258,1.104
						c-0.994,0.913-1.975,1.84-3.082,2.87c1.289,0.944,2.396,1.808,3.554,2.594c1.713,1.173,3.481,2.271,5.188,3.456
						c2.834,1.965,5.549,4.118,8.478,5.928c3.11,1.924,6.401,3.543,9.619,5.288c4.715,2.551,9.514,4.915,14.629,6.595
						c0.86,0.285,1.24,0.163,1.616-0.761c0.833-2.044,1.841-4.034,2.855-5.999c0.201-0.39,0.728-0.791,1.152-0.857
						c1.384-0.212,3.083,1.843,2.69,3.184c-0.347,1.184-0.75,2.354-1.132,3.535c-0.563,1.721-0.39,1.99,1.395,2.255
						c2.242,0.341,4.476,0.751,6.727,1.041c3.656,0.458,7.311,1.005,10.986,1.214c3.069,0.173,6.176,0.036,9.244-0.19
						c5.38-0.397,10.757-0.898,16.119-1.493c2.573-0.289,2.578-0.425,2.605-3.111c0.009-0.751,0.225-1.207,1.03-1.361
						c0.537-0.107,1.043-0.369,1.559-0.571c1.53-0.622,2.419-0.036,2.616,1.614c0.12,1.002,0.392,1.984,0.625,3.109
						c2.496-0.645,4.888-1.148,7.201-1.884c3.669-1.167,7.32-2.412,10.915-3.783c3.361-1.281,6.661-2.729,9.942-4.198
						c1.546-0.688,2.973-1.631,4.484-2.397c1.737-0.878,3.502-1.697,5.267-2.523c0.938-0.438,0.935-1.097,0.553-1.911
						c-0.433-0.921-0.897-1.84-1.224-2.798c-1.067-3.131-0.938-3.309,2.237-4.025c0.88-0.197,1.451-0.068,1.835,0.855
						c0.64,1.546,1.396,3.041,2.152,4.658c0.553-0.298,0.964-0.445,1.286-0.71c3.436-2.771,7.03-5.383,10.237-8.397
						c3.61-3.391,6.883-7.14,10.259-10.771c1.079-1.162,2.045-2.427,3.032-3.669C189.003,217.666,189.904,216.442,190.929,215.097z
						 M198.079,65.04c-0.876,0.172-1.733,0.278-2.553,0.525c-1.527,0.458-2.585,1.316-2.957,3.031
						c-0.256,1.181-0.705,2.515-1.514,3.337c-1.698,1.71-3.433,3.383-5.62,4.605c-2.019,1.128-3.73,2.819-5.516,4.329
						c-0.298,0.25-0.547,1.062-0.392,1.231c0.408,0.456,1.017,0.842,1.613,0.984c0.36,0.086,0.896-0.257,1.269-0.527
						c2.6-1.884,5.112-3.9,7.795-5.66c1.396-0.923,3.043-1.534,4.652-2.069c1.928-0.644,3.958-0.959,5.883-1.615
						c0.954-0.33,1.563-1.258,1.299-2.368c-0.322-1.326-0.752-2.629-1.193-3.921C200.495,65.904,199.102,65.014,198.079,65.04z
						 M21.288,230.151c-1.553-1.417-2.326-1.66-3.351-0.792c-1.175,0.992-2.146,2.222-3.208,3.34
						c-0.229,0.243-0.464,0.481-0.711,0.705c-0.79,0.71-1.698,1.33-2.363,2.145c-1.873,2.272-3.881,4.002-7.185,3.588
						c-1.775-0.224-3.426,0.532-4.312,2.237c-0.521,1.016-0.887,2.132-1.182,3.24c-0.299,1.108,0.592,2.693,1.604,3.068
						c2.672,0.975,5.257,0.814,7.542-0.942c1.136-0.875,2.252-1.934,2.063-3.611c-0.216-1.944,0.059-3.665,1.92-4.774
						c0.178-0.106,0.273-0.333,0.433-0.474c1.379-1.201,2.768-2.387,4.141-3.596C18.206,232.933,19.712,231.564,21.288,230.151z
						 M225.544,173.976c0.965-0.189,2.344-0.353,3.644-0.755c0.837-0.259,1.52-0.925,1.07-1.982
						c-0.687-1.623-1.313-3.287-2.174-4.825c-0.48-0.857-1.29-1.629-2.129-2.176c-0.769-0.496-4.291,1.217-4.653,2.086
						c-0.764,1.835-0.816,1.85-2.742,1.315c-1.408-0.39-2.815-0.777-4.239-1.08c-0.788-0.167-1.639-0.049-2.415-0.245
						c-1.809-0.445-3.591-1.019-5.394-1.504c-0.825-0.22-1.674-0.458-2.523-0.474c-0.451-0.009-1.139,0.344-1.291,0.711
						c-0.143,0.343,0.135,1.118,0.474,1.354c0.721,0.504,1.568,0.929,2.423,1.12c3.829,0.898,7.709,1.589,11.503,2.602
						c1.469,0.393,2.857,1.316,4.1,2.235C222.415,173.262,223.62,173.957,225.544,173.976z M55.775,30.86
						c-0.004-2.539-0.825-3.227-3.195-3.027c-0.916,0.077-1.856-0.189-2.792-0.273c-0.873-0.079-1.923-0.464-2.587-0.123
						c-1.951,1.001-2.797,2.877-2.836,5.001c-0.015,0.662,0.384,1.585,0.903,1.945c0.921,0.633,2.045,1.06,3.145,1.332
						c2.52,0.622,3.449,1.35,3.653,3.926c0.287,3.56,2.165,6.549,3.233,9.823c0.132,0.407,0.75,0.657,1.142,0.979
						c0.41-0.516,0.902-0.99,1.195-1.564c0.139-0.275-0.06-0.753-0.17-1.12c-1.211-4.013-2.409-8.031-3.679-12.026
						c-0.3-0.954-0.394-1.598,0.597-2.27C55.246,32.876,56.023,32.016,55.775,30.86z M-32.262,118.014
						c-1.826,0.123-3.416,0.739-4.484,2.33c-0.836,1.238-0.859,2.391,0.028,3.123c0.677,0.557,1.405,1.139,2.214,1.415
						c2.149,0.74,4.354,1.195,6.666,0.732c0.91-0.182,1.909-0.401,2.782-0.214c2.027,0.437,4.01,1.088,5.996,1.696
						c3.062,0.935,6.102,1.922,9.166,2.82c0.344,0.1,1.014-0.097,1.167-0.361c0.215-0.381,0.292-1.083,0.069-1.41
						c-0.304-0.451-0.902-0.839-1.443-0.977c-2.769-0.706-5.528-1.607-8.348-1.887c-2.964-0.298-4.968-1.755-6.819-3.823
						C-27.114,119.408-29.474,118.267-32.262,118.014z M101.748,42.048c0.165-3.231,0.28-6.385,0.497-9.533
						c0.22-3.22,0.225-4.776,3.938-6.084c1.882-0.662,2.806-2.346,2.713-4.479c-0.055-1.299-1.508-2.068-2.583-1.344
						c-0.388,0.258-0.719,0.619-1.021,0.977c-0.713,0.842-1.19,0.975-1.936-0.113c-1.222-1.781-3.86-2.309-5.354-1.285
						c-2.37,1.625-2.33,4.256,0.09,5.77c1.739,1.086,1.982,1.797,1.606,3.876c-0.224,1.257-0.311,2.545-0.342,3.821
						c-0.01,0.561,0.417,1.131,0.394,1.684c-0.071,1.509-0.351,3.008-0.407,4.516C99.281,41.543,99.788,41.975,101.748,42.048z
						 M119.282,283.811c2.3,0.217,3.286-0.734,3.945-2.163c0.79-1.709,0.403-3.781-1.978-4.825c-0.44-0.192-1.056-0.494-1.157-0.865
						c-0.265-0.964-0.526-2.035-0.367-2.996c0.378-2.264-0.243-4.381-0.628-6.542c-0.31-1.733-0.581-3.479-0.894-5.212
						c-0.211-1.169-0.445-2.324-0.711-3.477c-0.156-0.688-0.692-0.827-1.153-0.4c-0.355,0.336-0.691,0.906-0.686,1.37
						c0.017,1.509,0.135,3.028,0.32,4.535c0.33,2.71,0.727,5.408,1.108,8.116c0.29,2.05-0.069,3.831-1.618,5.406
						c-0.65,0.665-1.136,1.797-1.136,2.716C114.329,282.232,116.2,283.755,119.282,283.811z M151.863,39.222
						c0.061,0.019,0.124,0.032,0.183,0.051c-0.246,0.716-0.361,1.513-0.753,2.134c-1.299,2.059-2.705,4.05-4.052,6.074
						c-1.155,1.737-2.324,3.466-3.396,5.254c-0.208,0.343,0.005,0.938,0.026,1.414c0.452-0.098,1.029-0.055,1.325-0.321
						c0.672-0.614,1.224-1.36,1.788-2.083c1.458-1.875,2.878-3.783,4.35-5.651c1.436-1.824,2.973-3.444,5.32-4.248
						c1.656-0.571,3.176-1.597,4.671-2.55c0.449-0.29,0.611-1.023,0.9-1.552c-0.533-0.191-1.06-0.406-1.606-0.562
						c-0.324-0.094-0.733,0-1.008-0.159c-0.321-0.184-0.758-0.543-0.764-0.833c-0.026-1.716-1.234-2.602-2.456-3.31
						c-1.955-1.129-4.702,0.518-4.735,2.769C151.629,36.842,151.785,38.032,151.863,39.222z M54.755,273.297
						c0,0.172-0.021,0.348,0.005,0.516c0.028,0.169,0.104,0.325,0.15,0.488c0.691,2.472,1.669,4.719,4.506,5.385
						c0.44,0.104,1.097,0.098,1.404-0.153c2.306-1.898,2.26-3.994,0.993-6.816c-0.7-1.549-0.715-2.956-0.218-4.459
						c0.909-2.737,1.849-5.467,2.779-8.198c0.055-0.155,0.098-0.353,0.214-0.446c1.71-1.41,1.312-3.607,2.008-5.394
						c0.102-0.254-0.363-0.787-0.662-1.101c-0.069-0.069-0.699,0.166-0.798,0.382c-0.958,2.132-2.004,4.235-2.741,6.443
						c-0.815,2.433-1.447,4.919-3.27,6.854c-0.704,0.745-1.539,1.364-2.258,2.091C55.667,270.112,54.809,271.521,54.755,273.297z
						 M-6.226,185.163c-0.636-0.877-0.323-2.214-1.747-1.93c-1.424,0.285-2.804,0.764-4.225,1.044
						c-2.253,0.441-4.515,1.015-6.789,1.111c-3.555,0.154-7.112-0.003-10.508,1.318c-0.944,0.362-1.965,0.57-2.858,1.023
						c-0.775,0.395-1.613,0.915-1.444,2.036c0.167,1.111,0.811,1.818,1.83,2.296c2.39,1.119,4.604,0.367,6.75-0.645
						c1.695-0.799,3.229-1.982,4.969-2.629c2.144-0.796,4.43-1.216,6.661-1.786C-11.206,186.392-8.811,185.804-6.226,185.163z
						 M223.604,121.732c0.844-0.187,1.74-0.331,2.598-0.581c2.083-0.61,2.347-1.565,1.146-3.366
						c-0.625-0.938-0.973-2.054-1.511-3.049c-0.379-0.695-0.747-1.541-1.366-1.913c-0.46-0.274-1.368-0.016-1.965,0.252
						c-0.305,0.139-0.604,0.88-0.506,1.241c0.436,1.602-0.298,2.647-1.984,2.706c-0.681,0.022-1.368,0.123-2.036,0.267
						c-2.624,0.565-5.229,1.213-7.863,1.722c-2.217,0.432-4.48,0.648-6.697,1.104c-0.545,0.112-0.97,0.791-1.447,1.21
						c0.535,0.549,0.989,1.401,1.624,1.569c0.788,0.208,1.739-0.095,2.599-0.271c2.978-0.604,5.967-1.174,8.917-1.898
						c2.555-0.625,4.992-0.747,7.332,0.675C222.76,121.585,223.172,121.614,223.604,121.732z M-5.896,66.438
						c0.241,3.364,1.593,4.853,4.515,4.697c0.383-0.022,0.98-0.225,1.09-0.498c0.543-1.355,1.202-0.776,1.791-0.145
						c2.687,2.878,5.307,5.815,8.02,8.669c1.146,1.205,2.446,2.267,3.708,3.356c0.201,0.171,0.584,0.135,0.879,0.194
						c-0.026-0.343,0.06-0.76-0.106-1.008c-0.329-0.49-0.813-0.873-1.209-1.323c-0.932-1.055-1.876-2.098-2.766-3.188
						c-1.494-1.841-2.868-3.788-4.449-5.55c-1.309-1.461-2.444-3.022-2.792-4.915c-0.292-1.57-1.172-2.531-2.357-3.343
						c-1.372-0.941-3.025-1.098-4.389-0.394C-5.26,63.656-5.847,65.128-5.896,66.438z M171.107,258.724
						c-0.057-2.521-0.938-3.696-3.401-4.31c-1.372-0.343-2.07-1.213-2.512-2.473c-1.011-2.893-2.03-5.781-3.148-8.625
						c-0.576-1.466-1.344-2.859-2.101-4.243c-0.136-0.252-0.729-0.473-1-0.384c-0.295,0.095-0.643,0.576-0.64,0.891
						c0.004,0.534,0.204,1.093,0.422,1.602c0.953,2.212,1.966,4.396,2.914,6.615c0.841,1.97,1.42,3.942,1.016,6.189
						c-0.467,2.632,1.077,6.403,3.579,7.712C168.78,263.021,171.168,261.581,171.107,258.724z M208.884,221.103
						c-0.14-3.72-3.301-6.5-6.524-4.897c-0.35,0.172-0.896,0.214-1.247,0.069c-1.488-0.611-3.015-1.181-4.378-2.003
						c-2.421-1.451-4.736-3.084-7.104-4.633c-0.486-0.322-1.028-0.625-1.349,0.177c-0.245,0.62-0.85,1.26,0.194,1.826
						c2.145,1.159,4.248,2.382,6.357,3.603c2.547,1.471,5.388,2.651,6.026,6.026c0.05,0.283,0.267,0.54,0.43,0.788
						c0.778,1.169,1.972,2.134,3.256,1.962c1.601-0.21,3.246-0.886,4.201-2.448C208.852,221.401,208.865,221.172,208.884,221.103z"
						/>
					<path fill="#FFFFFF" d="M198.079,65.04c1.023-0.023,2.415,0.864,2.766,1.883c0.441,1.292,0.871,2.595,1.193,3.921
						c0.267,1.112-0.345,2.038-1.3,2.368c-1.924,0.655-3.957,0.971-5.883,1.615c-1.608,0.537-3.256,1.146-4.652,2.071
						c-2.681,1.762-5.193,3.776-7.793,5.66c-0.373,0.269-0.907,0.614-1.27,0.527c-0.597-0.143-1.207-0.527-1.612-0.984
						c-0.157-0.17,0.095-0.984,0.391-1.232c1.786-1.51,3.501-3.203,5.515-4.328c2.19-1.224,3.922-2.898,5.62-4.605
						c0.809-0.822,1.26-2.156,1.514-3.337c0.372-1.716,1.434-2.574,2.958-3.031C196.345,65.32,197.203,65.213,198.079,65.04z"/>
					<path fill="#FFFFFF" d="M21.288,230.151c-1.579,1.413-3.084,2.783-4.608,4.131c-1.373,1.21-2.761,2.398-4.141,3.598
						c-0.159,0.139-0.255,0.365-0.432,0.47c-1.862,1.112-2.137,2.827-1.921,4.774c0.188,1.677-0.926,2.739-2.063,3.612
						c-2.284,1.758-4.869,1.914-7.542,0.94c-1.013-0.371-1.901-1.958-1.604-3.067c0.296-1.108,0.659-2.223,1.182-3.237
						c0.884-1.709,2.534-2.462,4.312-2.237c3.303,0.413,5.309-1.313,7.185-3.591c0.668-0.81,1.573-1.432,2.363-2.145
						c0.246-0.226,0.483-0.462,0.711-0.702c1.06-1.121,2.034-2.354,3.208-3.341C18.965,228.491,19.736,228.736,21.288,230.151z"/>
					<path fill="#FFFFFF" d="M225.544,173.976c-1.927-0.024-3.129-0.714-4.347-1.614c-1.243-0.921-2.633-1.842-4.101-2.233
						c-3.794-1.015-7.674-1.707-11.503-2.602c-0.853-0.199-1.702-0.619-2.422-1.123c-0.34-0.234-0.62-1.008-0.474-1.354
						c0.151-0.364,0.841-0.715,1.292-0.71c0.845,0.021,1.697,0.252,2.521,0.478c1.805,0.48,3.584,1.058,5.394,1.501
						c0.778,0.192,1.626,0.076,2.416,0.246c1.426,0.3,2.832,0.69,4.236,1.079c1.928,0.53,1.981,0.518,2.745-1.316
						c0.361-0.871,3.884-2.578,4.652-2.084c0.84,0.545,1.646,1.315,2.13,2.174c0.858,1.534,1.489,3.196,2.173,4.825
						c0.45,1.06-0.235,1.719-1.07,1.982C227.885,173.621,226.511,173.786,225.544,173.976z"/>
					<path fill="#FFFFFF" d="M55.775,30.86c0.247,1.159-0.529,2.017-1.39,2.603c-0.99,0.67-0.896,1.314-0.597,2.268
						c1.272,3.997,2.469,8.016,3.679,12.029c0.111,0.366,0.31,0.843,0.171,1.118c-0.294,0.575-0.785,1.049-1.196,1.565
						c-0.392-0.32-1.011-0.572-1.142-0.979c-1.068-3.272-2.948-6.262-3.233-9.824c-0.203-2.58-1.134-3.305-3.652-3.926
						c-1.098-0.271-2.224-0.699-3.145-1.331c-0.518-0.36-0.917-1.286-0.902-1.947c0.039-2.124,0.885-3.999,2.836-5
						c0.666-0.341,1.713,0.043,2.585,0.123c0.934,0.082,1.875,0.351,2.792,0.273C54.949,27.63,55.77,28.32,55.775,30.86z"/>
					<path fill="#FFFFFF" d="M-32.262,118.014c2.79,0.252,5.148,1.395,6.989,3.447c1.853,2.071,3.856,3.528,6.819,3.823
						c2.817,0.278,5.578,1.182,8.348,1.887c0.541,0.136,1.139,0.523,1.443,0.976c0.22,0.326,0.146,1.031-0.069,1.41
						c-0.151,0.266-0.826,0.461-1.167,0.362c-3.065-0.899-6.106-1.892-9.166-2.821c-1.985-0.607-3.97-1.259-5.996-1.696
						c-0.873-0.188-1.873,0.031-2.782,0.214c-2.311,0.464-4.519,0.007-6.666-0.732c-0.809-0.276-1.54-0.858-2.214-1.415
						c-0.889-0.732-0.864-1.885-0.028-3.124C-35.678,118.754-34.09,118.139-32.262,118.014z"/>
					<path fill="#FFFFFF" d="M101.748,42.048c-1.959-0.073-2.468-0.505-2.405-2.188c0.059-1.509,0.338-3.007,0.407-4.517
						c0.024-0.554-0.406-1.125-0.395-1.684c0.029-1.276,0.116-2.565,0.342-3.822c0.375-2.081,0.135-2.79-1.606-3.876
						c-2.419-1.516-2.461-4.144-0.092-5.771c1.494-1.023,4.135-0.494,5.355,1.286c0.746,1.087,1.223,0.956,1.936,0.113
						c0.302-0.358,0.632-0.716,1.02-0.977c1.076-0.726,2.528,0.043,2.584,1.342c0.094,2.133-0.83,3.816-2.713,4.48
						c-3.714,1.307-3.718,2.863-3.938,6.085C102.027,35.664,101.912,38.817,101.748,42.048z"/>
					<path fill="#FFFFFF" d="M119.282,283.811c-3.081-0.059-4.952-1.582-4.954-4.332c0-0.918,0.486-2.054,1.136-2.718
						c1.549-1.575,1.908-3.356,1.618-5.407c-0.381-2.702-0.778-5.401-1.108-8.116c-0.185-1.507-0.303-3.023-0.32-4.532
						c-0.006-0.462,0.331-1.033,0.686-1.372c0.461-0.428,0.998-0.287,1.152,0.399c0.267,1.153,0.502,2.309,0.711,3.477
						c0.312,1.736,0.584,3.479,0.895,5.215c0.387,2.161,1.006,4.278,0.627,6.541c-0.159,0.96,0.1,2.031,0.366,2.998
						c0.101,0.372,0.714,0.672,1.157,0.863c2.381,1.043,2.769,3.12,1.978,4.827C122.567,283.079,121.582,284.027,119.282,283.811z"
						/>
					<path fill="#FFFFFF" d="M151.863,39.222c-0.079-1.188-0.235-2.38-0.214-3.566c0.034-2.251,2.783-3.897,4.736-2.768
						c1.222,0.708,2.431,1.592,2.456,3.31c0.004,0.291,0.441,0.65,0.765,0.833c0.275,0.159,0.682,0.065,1.008,0.159
						c0.545,0.155,1.07,0.37,1.604,0.561c-0.29,0.527-0.452,1.262-0.898,1.552c-1.497,0.955-3.016,1.982-4.671,2.55
						c-2.349,0.803-3.886,2.424-5.32,4.247c-1.469,1.868-2.893,3.776-4.352,5.653c-0.563,0.722-1.114,1.469-1.786,2.082
						c-0.295,0.266-0.875,0.221-1.323,0.32c-0.021-0.479-0.234-1.073-0.027-1.414c1.07-1.787,2.244-3.517,3.396-5.253
						c1.349-2.026,2.754-4.016,4.052-6.073c0.391-0.623,0.51-1.419,0.753-2.135C151.987,39.254,151.924,39.239,151.863,39.222z"/>
					<path fill="#FFFFFF" d="M54.755,273.297c0.055-1.775,0.913-3.183,2.112-4.405c0.72-0.731,1.555-1.349,2.256-2.094
						c1.824-1.93,2.456-4.419,3.271-6.851c0.735-2.212,1.779-4.315,2.741-6.444c0.1-0.217,0.729-0.454,0.797-0.382
						c0.298,0.313,0.763,0.843,0.662,1.101c-0.696,1.783-0.296,3.983-2.008,5.391c-0.116,0.097-0.16,0.294-0.213,0.446
						c-0.929,2.737-1.871,5.461-2.779,8.2c-0.499,1.498-0.482,2.905,0.217,4.457c1.27,2.824,1.313,4.921-0.991,6.816
						c-0.308,0.251-0.963,0.257-1.403,0.155c-2.836-0.665-3.816-2.914-4.506-5.384c-0.044-0.163-0.125-0.322-0.149-0.491
						C54.733,273.645,54.755,273.469,54.755,273.297z"/>
					<path fill="#FFFFFF" d="M-6.226,185.163c-2.583,0.641-4.978,1.229-7.366,1.837c-2.229,0.57-4.515,0.989-6.66,1.787
						c-1.742,0.646-3.277,1.827-4.969,2.63c-2.146,1.012-4.36,1.763-6.75,0.642c-1.02-0.476-1.662-1.183-1.83-2.295
						c-0.169-1.118,0.671-1.642,1.443-2.036c0.896-0.454,1.915-0.658,2.858-1.022c3.399-1.319,6.956-1.164,10.508-1.316
						c2.274-0.097,4.534-0.669,6.789-1.111c1.421-0.28,2.802-0.759,4.225-1.041C-6.549,182.948-6.863,184.286-6.226,185.163z"/>
					<path fill="#FFFFFF" d="M223.604,121.732c-0.433-0.118-0.846-0.147-1.164-0.336c-2.339-1.423-4.777-1.303-7.331-0.675
						c-2.951,0.723-5.938,1.296-8.917,1.898c-0.861,0.174-1.811,0.481-2.599,0.271c-0.633-0.167-1.086-1.023-1.623-1.571
						c0.482-0.418,0.902-1.097,1.446-1.21c2.215-0.456,4.475-0.671,6.696-1.102c2.634-0.509,5.24-1.16,7.864-1.722
						c0.666-0.144,1.352-0.247,2.036-0.269c1.688-0.056,2.42-1.101,1.985-2.704c-0.1-0.362,0.196-1.102,0.505-1.241
						c0.597-0.27,1.506-0.526,1.965-0.254c0.62,0.373,0.986,1.219,1.367,1.915c0.542,0.995,0.886,2.113,1.51,3.048
						c1.2,1.803,0.938,2.76-1.147,3.366C225.344,121.4,224.452,121.546,223.604,121.732z"/>
					<path fill="#FFFFFF" d="M-5.896,66.438c0.047-1.31,0.636-2.782,1.939-3.455c1.364-0.704,3.016-0.544,4.388,0.395
						c1.185,0.811,2.067,1.772,2.359,3.341c0.346,1.894,1.481,3.456,2.791,4.915c1.579,1.763,2.955,3.708,4.449,5.551
						c0.888,1.088,1.833,2.133,2.764,3.188c0.397,0.448,0.882,0.833,1.21,1.322c0.168,0.251,0.082,0.667,0.107,1.009
						c-0.296-0.06-0.678-0.023-0.88-0.195c-1.264-1.086-2.562-2.151-3.708-3.355c-2.714-2.854-5.334-5.79-8.018-8.669
						c-0.589-0.632-1.249-1.213-1.791,0.145c-0.11,0.273-0.708,0.479-1.09,0.498C-4.302,71.291-5.655,69.801-5.896,66.438z"/>
					<path fill="#FFFFFF" d="M171.107,258.724c0.062,2.857-2.327,4.297-4.87,2.969c-2.501-1.308-4.045-5.078-3.578-7.711
						c0.405-2.246-0.175-4.219-1.015-6.192c-0.95-2.22-1.961-4.403-2.914-6.614c-0.219-0.506-0.419-1.063-0.423-1.6
						c-0.002-0.313,0.346-0.791,0.64-0.893c0.274-0.088,0.863,0.131,1,0.382c0.757,1.385,1.522,2.78,2.101,4.244
						c1.12,2.852,2.137,5.737,3.149,8.628c0.441,1.262,1.14,2.13,2.512,2.473C170.17,255.024,171.051,256.206,171.107,258.724z"/>
					<path fill="#FFFFFF" d="M208.884,221.103c-0.021,0.069-0.031,0.299-0.137,0.473c-0.949,1.564-2.601,2.235-4.201,2.448
						c-1.284,0.172-2.478-0.79-3.256-1.965c-0.161-0.248-0.38-0.508-0.43-0.788c-0.639-3.375-3.479-4.556-6.026-6.029
						c-2.107-1.22-4.213-2.443-6.357-3.603c-1.046-0.568-0.436-1.209-0.194-1.823c0.32-0.805,0.858-0.501,1.349-0.18
						c2.368,1.548,4.683,3.179,7.104,4.634c1.363,0.824,2.895,1.397,4.378,2.003c0.353,0.144,0.896,0.102,1.247-0.07
						C205.582,214.603,208.741,217.386,208.884,221.103z"/>
					<path d="M113.982,190.52c-3.699,0-7.398,0.063-11.102-0.013c-4.295-0.085-8.587-0.346-12.881-0.425
						c-4.651-0.083-9.302-0.054-13.956-0.061c-1.928-0.003-3.306-0.545-4.14-2.584c-0.761-1.87-2.129-3.496-3.258-5.211
						c-3.433-5.22-6.887-10.436-10.325-15.65c-2.57-3.889-5.104-7.8-7.705-11.663c-2.888-4.295-5.846-8.542-8.744-12.833
						c-0.6-0.889-0.867-1.698,0.166-2.69c2.032-1.949,3.909-4.069,5.78-6.178c4.254-4.785,8.469-9.599,12.681-14.417
						c3.77-4.309,7.55-8.609,11.256-12.975c2.213-2.607,4.279-5.337,6.45-7.981c0.215-0.26,0.728-0.427,1.087-0.405
						c3.503,0.208,7.009,0.491,10.514,0.699c2.024,0.118,4.057,0.132,6.085,0.202c3.134,0.108,6.272,0.172,9.407,0.344
						c5.476,0.3,10.945,0.675,16.423,1.006c2.526,0.149,5.049,0.279,7.577,0.378c0.5,0.022,1.039-0.055,1.501-0.231
						c0.869-0.33,1.42,0.019,1.839,0.702c2.362,3.825,4.698,7.664,7.064,11.483c0.583,0.942,1.054,2.089,1.894,2.714
						c2.184,1.612,2.246,4.409,3.935,6.321c1.489,1.687,2.39,3.878,3.664,5.77c1.657,2.45,3.469,4.8,5.136,7.246
						c0.984,1.443,1.78,3.01,2.725,4.477c1.34,2.082,2.678,4.168,4.138,6.163c0.866,1.181-0.156,1.824-0.637,2.419
						c-1.303,1.614-2.92,2.979-4.219,4.596c-2.368,2.954-4.604,6.01-6.876,9.034c-2.293,3.049-4.539,6.131-6.852,9.166
						c-1.881,2.472-3.851,4.876-5.734,7.349c-2.204,2.898-4.365,5.829-6.533,8.751c-0.765,1.031-1.583,2.031-2.223,3.135
						c-0.822,1.42-2.042,1.751-3.548,1.732c-3.53-0.033-7.061-0.014-10.591-0.014C113.982,190.759,113.982,190.641,113.982,190.52z
						 M120.902,188.288c0,0.079,0,0.155,0,0.227c0.688,0,1.392-0.092,2.061,0.022c1.664,0.285,2.771-0.388,3.716-1.71
						c1.486-2.082,3.06-4.11,4.638-6.131c2.496-3.186,5.037-6.339,7.532-9.526c2.76-3.518,5.488-7.066,8.233-10.593
						c0.446-0.572,0.947-1.104,1.37-1.688c1.444-2.002,2.829-4.054,4.314-6.029c1.666-2.22,3.448-4.35,5.086-6.586
						c0.265-0.357,0.27-1.195,0.027-1.584c-2.665-4.28-5.376-8.533-8.131-12.755c-2.729-4.179-5.548-8.294-8.28-12.47
						c-3.351-5.122-6.662-10.268-9.955-15.423c-0.475-0.746-1.049-1.008-1.908-1.029c-2.488-0.06-4.977-0.133-7.458-0.332
						c-3.633-0.295-7.247-0.791-10.882-1.041c-4.583-0.315-9.172-0.473-13.761-0.7c-0.602-0.029-1.204-0.069-1.806-0.096
						c-5.072-0.211-10.142-0.43-15.216-0.61c-0.377-0.015-0.888,0.144-1.126,0.409c-1.636,1.792-3.218,3.633-4.815,5.46
						c-4.71,5.376-9.405,10.772-14.135,16.132c-2.949,3.342-5.966,6.621-8.919,9.955c-2.101,2.372-4.149,4.796-6.22,7.196
						c-0.543,0.627-0.875,1.319-0.383,2.104c1.517,2.41,3.035,4.826,4.603,7.203c1.427,2.167,2.933,4.279,4.385,6.431
						c0.662,0.984,1.262,2.007,1.919,2.996c1.269,1.905,2.576,3.78,3.827,5.698c0.895,1.368,1.676,2.813,2.582,4.175
						c1.082,1.627,2.272,3.185,3.363,4.807c1.07,1.592,2.063,3.229,3.104,4.842c1.275,1.96,2.588,3.891,3.829,5.874
						c1.43,2.291,3.02,4.256,6.107,4.174c1.969-0.051,3.937,0.071,5.907,0.082c3.427,0.022,6.854-0.03,10.279,0.038
						c2.917,0.063,5.832,0.311,8.749,0.394c2.96,0.08,5.921,0.064,8.885,0.077C115.247,188.296,118.073,188.288,120.902,188.288z"/>
					<path fill="#FFFFFF" d="M120.902,188.288c-2.826,0-5.654,0.008-8.48-0.003c-2.96-0.013-5.925,0.003-8.885-0.077
						c-2.917-0.08-5.831-0.331-8.749-0.393c-3.425-0.072-6.851-0.017-10.279-0.039c-1.97-0.01-3.938-0.135-5.907-0.081
						c-3.086,0.081-4.676-1.88-6.108-4.173c-1.238-1.982-2.553-3.913-3.828-5.878c-1.041-1.611-2.035-3.25-3.105-4.838
						c-1.089-1.624-2.28-3.179-3.363-4.808c-0.906-1.359-1.687-2.805-2.581-4.177c-1.247-1.914-2.558-3.791-3.827-5.697
						c-0.658-0.984-1.257-2.012-1.92-2.994c-1.452-2.153-2.959-4.267-4.384-6.432c-1.568-2.379-3.086-4.791-4.602-7.203
						c-0.494-0.785-0.161-1.476,0.382-2.105c2.071-2.4,4.119-4.825,6.221-7.194c2.952-3.336,5.971-6.614,8.918-9.957
						c4.729-5.363,9.426-10.754,14.135-16.133c1.601-1.826,3.179-3.667,4.815-5.458c0.242-0.266,0.75-0.424,1.126-0.409
						c5.074,0.18,10.144,0.397,15.216,0.611c0.603,0.023,1.203,0.067,1.806,0.096c4.589,0.226,9.177,0.384,13.76,0.701
						c3.634,0.251,7.249,0.748,10.883,1.038c2.479,0.201,4.969,0.272,7.459,0.332c0.859,0.024,1.432,0.285,1.906,1.03
						c3.293,5.155,6.604,10.303,9.955,15.423c2.731,4.178,5.552,8.29,8.28,12.47c2.755,4.224,5.464,8.478,8.13,12.755
						c0.244,0.389,0.237,1.228-0.027,1.586c-1.639,2.234-3.419,4.367-5.085,6.584c-1.485,1.978-2.868,4.03-4.314,6.03
						c-0.424,0.586-0.926,1.115-1.369,1.688c-2.746,3.527-5.475,7.075-8.234,10.596c-2.496,3.181-5.037,6.336-7.531,9.526
						c-1.58,2.018-3.152,4.046-4.639,6.131c-0.944,1.319-2.051,1.99-3.716,1.709c-0.667-0.115-1.369-0.021-2.059-0.021
						C120.902,188.438,120.902,188.365,120.902,188.288z M81.473,101.534c-0.041-0.086-0.081-0.173-0.12-0.26
						c-0.429,0.279-0.947,0.481-1.276,0.847c-1.027,1.153-1.951,2.395-2.969,3.551c-2.837,3.213-5.724,6.378-8.54,9.605
						c-2.93,3.356-5.783,6.781-8.706,10.143c-4.187,4.818-8.402,9.606-12.611,14.403c-1.213,1.378-1.18,1.883,0.08,3.244
						c0.491,0.529,0.872,1.165,1.279,1.766c1.624,2.42,3.232,4.852,4.857,7.272c1.852,2.758,3.722,5.508,5.571,8.27
						c3.97,5.925,7.939,11.845,11.892,17.782c1.47,2.209,2.869,4.464,4.358,6.657c0.271,0.398,0.814,0.835,1.253,0.86
						c2.736,0.155,5.476,0.213,8.217,0.283c3.997,0.09,7.997,0.141,11.997,0.248c5.758,0.155,11.515,0.353,17.274,0.513
						c2.325,0.061,4.674-0.117,6.971,0.16c2.142,0.259,3.532-0.068,4.876-2.029c2.782-4.051,5.97-7.829,8.98-11.727
						c1.571-2.036,3.114-4.092,4.692-6.116c1.993-2.567,4.029-5.098,6.014-7.665c1.88-2.437,3.701-4.922,5.577-7.358
						c1.492-1.938,3.068-3.808,4.514-5.774c0.423-0.574,1.145-1.213,0.407-2.159c-1.765-2.243-3.535-4.494-5.155-6.841
						c-2.335-3.387-4.545-6.856-6.795-10.298c-1.966-3.005-3.928-6.017-5.873-9.036c-0.626-0.975-1.156-2.009-1.807-2.964
						c-1.993-2.927-4.015-5.836-6.053-8.73c-0.787-1.114-1.363-2.172-3.229-2.194c-5.103-0.063-10.196-0.545-15.297-0.825
						c-3.393-0.186-6.788-0.281-10.18-0.468C94.939,102.329,88.207,101.926,81.473,101.534z"/>
					<path d="M81.473,101.534c6.733,0.39,13.467,0.793,20.203,1.165c3.394,0.187,6.79,0.283,10.18,0.468
						c5.103,0.28,10.196,0.764,15.298,0.825c1.864,0.023,2.442,1.082,3.229,2.196c2.037,2.894,4.06,5.806,6.053,8.731
						c0.652,0.954,1.181,1.993,1.809,2.965c1.946,3.018,3.905,6.028,5.872,9.033c2.25,3.443,4.461,6.913,6.796,10.299
						c1.62,2.35,3.39,4.598,5.155,6.843c0.741,0.944,0.018,1.58-0.407,2.157c-1.446,1.967-3.022,3.838-4.514,5.774
						c-1.876,2.438-3.697,4.92-5.575,7.357c-1.985,2.572-4.02,5.104-6.015,7.669c-1.579,2.028-3.122,4.083-4.693,6.115
						c-3.012,3.896-6.2,7.671-8.98,11.723c-1.345,1.965-2.736,2.293-4.878,2.033c-2.295-0.282-4.644-0.102-6.97-0.162
						c-5.759-0.159-11.516-0.355-17.276-0.515c-3.997-0.102-7.999-0.152-11.995-0.247c-2.742-0.065-5.482-0.122-8.218-0.282
						c-0.439-0.028-0.982-0.462-1.253-0.857c-1.49-2.196-2.889-4.454-4.358-6.659c-3.953-5.937-7.921-11.864-11.892-17.784
						c-1.851-2.764-3.72-5.51-5.571-8.269c-1.625-2.42-3.229-4.851-4.857-7.272c-0.407-0.604-0.788-1.236-1.279-1.765
						c-1.26-1.362-1.289-1.868-0.08-3.246c4.207-4.797,8.425-9.586,12.609-14.4c2.923-3.365,5.776-6.79,8.707-10.145
						c2.816-3.228,5.705-6.391,8.54-9.605c1.02-1.158,1.943-2.398,2.969-3.549c0.328-0.369,0.846-0.571,1.275-0.847
						C81.392,101.362,81.433,101.448,81.473,101.534z M154.917,144.269c-0.075-0.047-0.541-0.177-0.74-0.481
						c-1.598-2.431-3.122-4.911-4.714-7.347c-2.346-3.576-4.705-7.141-7.106-10.682c-1.565-2.313-3.235-4.555-4.8-6.865
						c-0.612-0.901-0.992-1.958-1.601-2.867c-1.971-2.943-4.102-5.783-5.962-8.792c-1.059-1.711-2.368-2.289-4.306-2.345
						c-3.475-0.101-6.938-0.467-10.409-0.687c-5.873-0.368-11.747-0.732-17.62-1.046c-4.892-0.26-9.791-0.413-14.684-0.694
						c-1.339-0.076-2.282,0.344-3.132,1.346c-1.663,1.957-3.408,3.844-5.11,5.768c-4.472,5.053-8.965,10.085-13.401,15.171
						c-4.099,4.706-8.127,9.473-12.202,14.204c-1.809,2.098-1.878,2.162-0.294,4.591c2.41,3.691,4.898,7.335,7.356,10.998
						c3.339,4.967,6.676,9.936,10.021,14.897c3.012,4.476,6.131,8.879,9.006,13.438c1.037,1.642,2.372,2.046,4.043,2.077
						c5.146,0.094,10.295,0.157,15.445,0.251c4.087,0.072,8.172,0.16,12.262,0.27c5.288,0.141,10.574,0.329,15.866,0.433
						c0.46,0.01,1.061-0.363,1.377-0.744c1.314-1.58,2.526-3.246,3.811-4.85c1.691-2.096,3.454-4.138,5.121-6.251
						c2.25-2.859,4.425-5.771,6.652-8.64c1.578-2.036,3.232-3.999,4.785-6.05c3.151-4.154,6.265-8.346,9.377-12.525
						c0.245-0.332,0.43-0.722,0.574-1.11C154.689,145.307,154.767,144.854,154.917,144.269z"/>
					<path d="M129.886,140.407c-0.302,0.979-0.505,2.004-0.921,2.931c-1.383,3.052-2.874,6.019-5.786,8.021
						c-2.067,1.423-4.602,1.173-6.129-0.807c-0.357-0.468-0.721-0.935-1.192-1.538c-0.509,0.584-0.908,1.124-1.387,1.581
						c-1.143,1.084-2.197,2.341-3.514,3.157c-2.791,1.732-4.834,0.604-5.963-2.074c-0.265-0.621-0.55-1.236-0.925-2.078
						c-1.635,1.119-3.086,2.238-4.659,3.146c-1.125,0.655-2.377,1.293-3.643,1.477c-2.189,0.315-4.463-1.34-5.489-3.598
						c-0.276-0.615-0.594-1.211-0.979-1.979c-0.456,0.372-0.783,0.688-1.155,0.935c-2.137,1.409-4.208,2.934-6.447,4.152
						c-1.742,0.947-3.354,0.189-4.319-1.557c-0.979-1.773-1.401-3.662-1.371-5.67c0.006-0.237-0.056-0.478-0.096-0.778
						c-2.359,1.394-4.634,2.723-6.893,4.076c-0.522,0.315-1.01,0.816-1.499,0.008c-0.547-0.907,0.3-1.081,0.799-1.388
						c2.188-1.349,4.366-2.724,6.604-3.988c1.461-0.825,1.336-2.266,1.619-3.545c0.573-2.6,1.032-5.223,3.297-7.045
						c0.86-0.691,1.724-1.026,2.677-0.323c0.892,0.655,1.209,2.368,0.602,3.226c-1.629,2.295-3.245,4.604-4.974,6.824
						c-0.94,1.204-0.803,2.542-0.661,3.804c0.15,1.331,0.584,2.674,1.14,3.903c0.619,1.381,1.904,1.809,3.172,1.005
						c2.166-1.374,4.208-2.944,6.298-4.438c0.69-0.494,0.863-1.141,0.5-1.915c-1.201-2.567-0.418-5.159,0.088-7.68
						c0.246-1.238,1.081-2.404,1.812-3.489c0.723-1.075,2.445-1.472,3.609-0.966c0.816,0.354,1.25,0.88,1.376,1.925
						c0.517,4.271-1.708,7.452-4.182,10.416c-1.252,1.503-0.455,2.591,0.078,3.726c0.439,0.931,1.228,1.8,2.077,2.402
						c0.569,0.401,1.562,0.521,2.274,0.362c2.956-0.665,5.136-2.676,7.371-4.539c0.308-0.255,0.403-0.912,0.393-1.378
						c-0.079-3.645,0.54-7.121,2.412-10.315c0.875-1.494,1.888-2.131,2.928-1.831c1.187,0.347,2.256,1.916,1.879,3.409
						c-0.528,2.088-1.281,4.151-2.204,6.104c-0.541,1.14-1.582,2.051-2.42,3.046c-1.336,1.579-0.085,2.979,0.472,4.281
						c0.285,0.665,1.417,1.208,2.24,1.339c0.644,0.1,1.57-0.347,2.079-0.844c1.494-1.469,2.878-3.055,4.225-4.662
						c0.284-0.339,0.27-0.962,0.301-1.461c0.142-2.257,0.163-4.521,0.402-6.764c0.205-1.899,1.705-3.425,3.124-3.346
						c0.437,0.025,1.2,0.397,1.22,0.655c0.1,1.285,0.281,2.673-0.086,3.86c-0.646,2.083-1.785,4.007-2.508,6.067
						c-0.51,1.457-0.102,2.861,1.053,4.003c0.851,0.843,2.116,0.906,3.139,0.317c3.548-2.056,5.186-5.53,6.891-8.973
						c0.242-0.49,0.617-0.918,0.93-1.374C129.665,140.286,129.774,140.346,129.886,140.407z M89.858,145.614
						c0.201,0.02,0.406,0.04,0.609,0.059c0.715-1.232,1.249-2.63,2.185-3.663c1.627-1.793,1.592-3.864,1.472-5.988
						c-0.017-0.299-0.777-0.865-0.917-0.789c-0.832,0.442-1.985,0.879-2.28,1.613c-0.753,1.876-1.23,3.89-1.564,5.889
						C89.212,143.643,89.672,144.651,89.858,145.614z M108.809,135.677c-0.668,0.571-1.352,0.938-1.717,1.505
						c-1.619,2.539-1.848,5.446-2.046,8.347c-0.01,0.136,0.133,0.284,0.21,0.436C107.1,144.449,110.344,139.335,108.809,135.677z
						 M78.097,141.119c0.169,0.024,0.342,0.046,0.513,0.068c0.697-1.069,1.375-2.151,2.098-3.203
						c0.381-0.555,0.962-1.002,1.226-1.596c0.183-0.412-0.028-0.993-0.063-1.499c-0.485,0.153-1.063,0.177-1.433,0.472
						c-1.3,1.04-1.761,2.56-2.106,4.106C78.217,140.013,78.173,140.568,78.097,141.119z M117.069,143.53
						c1.878-2.335,2.363-4.891,1.154-6.37C116.656,139.145,116.941,141.351,117.069,143.53z"/>
					<path d="M99.535,126.542c-2.117,1.167-3.994,2.354-6.006,3.231c-1.085,0.477-2.415,0.603-3.624,0.55
						c-1.692-0.073-2.634-1.327-2.985-3.464c-0.052-0.326-0.102-0.652-0.179-1.143c-0.886,0.365-1.694,0.626-2.438,1.012
						c-3.357,1.746-5.56-0.329-6.164-3.376c-0.558-2.786,0.493-5.375,1.232-7.986c0.034-0.121,0.089-0.271,0.185-0.337
						c0.375-0.259,0.772-0.491,1.159-0.736c0.114,0.479,0.414,0.997,0.312,1.422c-0.353,1.495-0.929,2.937-1.254,4.434
						c-0.375,1.731-0.102,3.437,0.945,4.899c0.273,0.385,1.028,0.777,1.42,0.668c1.313-0.366,2.607-0.873,3.816-1.507
						c0.42-0.222,0.781-0.963,0.795-1.482c0.099-2.922,1.685-5.366,2.6-8.006c0.509-1.466,1.796-2.702,3.479-3.204
						c1.75-0.522,2.843,0.22,2.863,2.024c0.03,2.848-1.5,5.018-3.289,7.021c-1.082,1.212-2.295,2.311-3.464,3.444
						c-1.21,1.169-0.574,2.482-0.259,3.729c0.298,1.181,1.377,1.247,2.312,1.164c3.259-0.288,5.744-2.14,8.04-4.24
						c0.403-0.366,0.525-1.194,0.527-1.809c0.009-3.494,1.223-6.601,3.03-9.5c0.457-0.732,1.129-1.464,1.878-1.842
						c0.582-0.292,1.578-0.259,2.139,0.063c0.434,0.248,0.687,1.167,0.668,1.783c-0.102,3.512-1.843,6.337-4.007,8.952
						c-0.518,0.627-0.975,1.32-1.562,1.873c-1.164,1.098-0.366,3.651,0.705,4.668c0.272,0.258,0.9,0.274,1.336,0.207
						c2.656-0.405,4.823-1.75,6.597-3.691c0.347-0.38,0.479-1.118,0.434-1.665c-0.292-3.362,0.316-6.558,1.751-9.583
						c0.389-0.823,1.036-1.574,1.71-2.204c1.211-1.128,2.695-0.678,3.204,0.886c0.686,2.11,0.44,4.221-0.488,6.132
						c-0.891,1.83-2.049,3.559-3.3,5.172c-0.734,0.943-0.913,1.619-0.191,2.579c0.855,1.132,2.118,1.8,3.077,1.201
						c1.437-0.893,2.714-2.036,4.073-3.053c0.37-0.276,0.806-0.468,1.21-0.698c-0.038,0.445,0.05,0.958-0.135,1.33
						c-0.925,1.883-2.409,3.257-4.382,3.945c-1.78,0.619-3.408,0.121-4.668-1.293c-1.3-1.458-1.04-1.521-2.75-0.269
						c-1.48,1.083-2.904,2.16-4.759,2.647c-2.732,0.718-4.642-0.271-5.337-3.027C99.702,127.112,99.596,126.764,99.535,126.542z
						 M115.853,113.108c-2.233,0.707-4.479,7.366-3.288,9.621C114.963,120.248,117.563,115.452,115.853,113.108z M88.683,121.949
						c2.344-1.092,5.688-6.36,5.563-8.767C91.961,112.753,87.917,119.128,88.683,121.949z M101.24,121.496
						c0.144,0.051,0.284,0.104,0.427,0.156c0.587-0.547,1.333-1,1.729-1.663c1.115-1.859,2.273-3.739,2.47-5.982
						c0.034-0.379-0.069-0.768-0.11-1.155c-0.358,0.17-0.767,0.283-1.078,0.52c-1.686,1.283-2.072,3.281-2.725,5.11
						C101.609,119.447,101.472,120.489,101.24,121.496z"/>
					<path d="M124.795,162.662c0.104,0.405,0.391,0.87,0.281,1.208c-1.195,3.64-2.881,6.999-5.934,9.488
						c-0.565,0.457-1.199,0.835-1.834,1.191c-2.512,1.415-4.04,1.121-5.804-1.154c-0.597-0.768-1.085-1.615-1.713-2.568
						c-1.215,0.985-2.47,1.875-3.557,2.926c-2.088,2.021-5.292,2.082-7.344,0.028c-0.898-0.896-1.372-0.889-2.207,0.117
						c-1.437,1.738-3.421,2.579-5.485,3.175c-1.523,0.438-3.183-0.489-4.072-1.842c-1.185-1.812-1.939-3.713-1.776-5.909
						c0.017-0.209-0.032-0.423-0.078-0.631c-0.014-0.071-0.103-0.129-0.298-0.354c-0.826,0.517-1.653,1.096-2.546,1.548
						c-0.383,0.194-0.909,0.111-1.374,0.152c0.182-0.461,0.228-1.084,0.562-1.346c1.169-0.914,2.862-1.45,3.555-2.609
						c0.704-1.168,0.327-2.927,0.649-4.377c0.392-1.767,1.179-3.388,2.854-4.37c1.147-0.68,2.783-0.462,3.517,0.442
						c0.641,0.792,0.471,1.901-0.474,3.042c-1.451,1.738-2.94,3.452-4.332,5.238c-0.393,0.506-0.695,1.224-0.705,1.85
						c-0.046,2.415,0.209,4.738,1.818,6.786c0.848,1.082,1.798,1.151,2.838,0.849c2.361-0.68,4.062-2.366,5.676-4.092
						c0.288-0.304,0.268-1.09,0.118-1.563c-0.807-2.555,0.048-4.921,0.83-7.254c0.475-1.425,1.279-2.74,1.96-4.094
						c0.433-0.853,1.186-1.075,2.071-0.93c0.924,0.153,1.618,0.626,1.834,1.573c0.454,1.979,0.397,3.951-0.592,5.754
						c-1.169,2.126-2.504,4.154-3.695,6.269c-0.18,0.316-0.109,0.955,0.104,1.266c0.94,1.382,2.724,1.982,4.081,1.081
						c1.906-1.261,3.635-2.813,5.354-4.331c0.318-0.281,0.373-1.005,0.346-1.51c-0.212-3.583,0.318-6.996,2.269-10.077
						c0.494-0.78,1.13-1.613,2.297-1.236c1.209,0.391,1.689,1.407,1.6,2.521c-0.109,1.352-0.313,2.756-0.837,3.989
						c-0.775,1.834-1.703,3.649-2.877,5.244c-0.769,1.053-0.526,1.857-0.252,2.85c0.706,2.559,2.7,3.398,4.993,2.148
						c2.483-1.347,4.177-3.382,5.415-5.846c0.77-1.54,1.53-3.083,2.293-4.622C124.483,162.669,124.637,162.667,124.795,162.662z
						 M102.1,158.964c-2.518,0.793-4.682,7.885-3.254,10.67C102.018,166.42,103.573,161.324,102.1,158.964z M110.84,166.571
						c2.172-1.872,3.899-6.934,2.956-8.471C112.143,158.813,110.411,163.66,110.84,166.571z M91.313,158.948
						c-0.979-0.819-1.638-0.674-2.343-0.005c-1.33,1.253-2.287,4.009-1.684,5.36C88.646,162.499,89.955,160.756,91.313,158.948z"/>
					<path fill="#FFFFFF" d="M89.858,145.614c-0.185-0.962-0.646-1.971-0.497-2.88c0.333-1.999,0.812-4.011,1.564-5.889
						c0.296-0.734,1.448-1.169,2.28-1.613c0.139-0.075,0.902,0.49,0.917,0.789c0.119,2.125,0.154,4.194-1.472,5.988
						c-0.937,1.033-1.47,2.431-2.185,3.664C90.262,145.654,90.06,145.634,89.858,145.614z"/>
					<path fill="#FFFFFF" d="M108.809,135.677c1.535,3.658-1.71,8.769-3.553,10.289c-0.078-0.156-0.22-0.301-0.21-0.435
						c0.198-2.901,0.429-5.81,2.046-8.347C107.458,136.615,108.142,136.25,108.809,135.677z"/>
					<path fill="#FFFFFF" d="M78.097,141.119c0.076-0.551,0.118-1.113,0.236-1.651c0.346-1.548,0.806-3.067,2.106-4.107
						c0.368-0.294,0.947-0.319,1.432-0.472c0.033,0.506,0.246,1.088,0.064,1.497c-0.264,0.597-0.846,1.042-1.226,1.597
						c-0.724,1.052-1.402,2.133-2.1,3.203C78.439,141.165,78.267,141.144,78.097,141.119z"/>
					<path fill="#FFFFFF" d="M117.069,143.53c-0.131-2.18-0.414-4.387,1.154-6.37C119.435,138.64,118.95,141.198,117.069,143.53z"/>
					<path fill="#FFFFFF" d="M115.853,113.108c1.71,2.344-0.89,7.14-3.288,9.621C111.375,120.475,113.619,113.814,115.853,113.108z"
						/>
					<path fill="#FFFFFF" d="M88.683,121.949c-0.765-2.824,3.278-9.197,5.563-8.767C94.371,115.589,91.027,120.857,88.683,121.949z"
						/>
					<path fill="#FFFFFF" d="M101.24,121.496c0.231-1.007,0.369-2.049,0.716-3.014c0.654-1.829,1.038-3.827,2.725-5.11
						c0.311-0.237,0.719-0.346,1.078-0.52c0.041,0.387,0.144,0.777,0.109,1.155c-0.197,2.244-1.355,4.123-2.47,5.982
						c-0.397,0.664-1.144,1.115-1.729,1.663C101.524,121.6,101.384,121.547,101.24,121.496z"/>
					<path fill="#FFFFFF" d="M102.1,158.964c1.474,2.361-0.08,7.457-3.254,10.67C97.418,166.846,99.58,159.757,102.1,158.964z"/>
					<path fill="#FFFFFF" d="M110.84,166.571c-0.43-2.911,1.302-7.758,2.956-8.471C114.74,159.641,113.012,164.7,110.84,166.571z"/>
					<path fill="#FFFFFF" d="M91.313,158.948c-1.358,1.81-2.667,3.551-4.026,5.355c-0.603-1.35,0.354-4.107,1.684-5.36
						C89.676,158.276,90.335,158.13,91.313,158.948z"/>
				</g>
			</g>
			<g>
				
					<line fill="none" stroke="#000000" stroke-width="0.496" stroke-miterlimit="10" x1="123.597" y1="19.675" x2="106.294" y2="72.871"/>
			</g>
			<g>
				
					<line fill="none" stroke="#000000" stroke-width="0.496" stroke-miterlimit="10" x1="160.011" y1="145.29" x2="262.169" y2="145.29"/>
			</g>
			<g>
				
					<line fill="none" stroke="#000000" stroke-width="0.496" stroke-miterlimit="10" x1="125.001" y1="122.267" x2="262.17" y2="49.368"/>
			</g>
			<g>
				
					<line fill="none" stroke="#000000" stroke-width="0.496" stroke-miterlimit="10" x1="178.718" y1="229.7" x2="228.65" y2="258.165"/>
			</g>
			<g>
				
					<line fill="none" stroke="#000000" stroke-width="0.496" stroke-miterlimit="10" x1="120.929" y1="271.186" x2="145.253" y2="293.401"/>
			</g>
		</g>
	</g>
</g>
<g>
	<path d="M265.507,139.775h1.547l1.825,6.157c0.416,1.356,0.679,2.435,1.112,3.776h0.071c0.415-1.342,0.694-2.419,1.096-3.776
		l1.824-6.157h1.481l-3.616,11.412h-1.69L265.507,139.775z"/>
	<path d="M275.579,140.069c0-0.559,0.435-0.922,0.991-0.922c0.561,0,0.992,0.364,0.992,0.922c0,0.537-0.434,0.923-0.992,0.923
		C276.013,140.992,275.579,140.609,275.579,140.069z M275.842,142.729h1.429v8.454h-1.429V142.729z"/>
	<path d="M280.12,142.729h1.186l0.119,1.532h0.052c0.57-1.061,1.441-1.74,2.403-1.74c0.363,0,0.623,0.053,0.904,0.174l-0.283,1.254
		c-0.277-0.088-0.468-0.14-0.816-0.14c-0.711,0-1.563,0.523-2.139,1.948v5.423h-1.426V142.729L280.12,142.729z"/>
	<path d="M290.506,145.829c0-1.078-0.365-2.122-1.738-2.122c-0.99,0-1.86,0.452-2.524,0.903l-0.572-0.989
		c0.784-0.505,1.969-1.098,3.324-1.098c2.07,0,2.94,1.375,2.94,3.48v5.185h-1.183l-0.125-1.01h-0.032
		c-0.815,0.664-1.761,1.216-2.802,1.216c-1.427,0-2.486-0.886-2.486-2.399C285.304,147.149,286.905,146.229,290.506,145.829z
		 M288.193,150.247c0.819,0,1.494-0.4,2.313-1.13v-2.349c-2.837,0.347-3.794,1.043-3.794,2.122
		C286.714,149.846,287.358,150.247,288.193,150.247z"/>
	<path d="M294.629,138.799h1.429v10.787c0,0.451,0.191,0.624,0.401,0.624c0.084,0,0.158,0,0.308-0.036l0.192,1.079
		c-0.192,0.086-0.433,0.137-0.816,0.137c-1.08,0-1.516-0.678-1.516-1.912L294.629,138.799L294.629,138.799z"/>
	<path d="M306.024,142.521c1.112,0,1.897,0.471,2.47,1.01l-0.711,0.922c-0.506-0.436-1.028-0.749-1.703-0.749
		c-1.533,0-2.646,1.322-2.646,3.271c0,1.932,1.061,3.235,2.609,3.235c0.802,0,1.478-0.4,1.985-0.851l0.643,0.938
		c-0.765,0.678-1.738,1.095-2.747,1.095c-2.245,0-3.964-1.619-3.964-4.418C301.953,144.141,303.849,142.521,306.024,142.521z"/>
	<path d="M315.123,145.829c0-1.078-0.361-2.122-1.74-2.122c-0.988,0-1.86,0.452-2.521,0.903l-0.574-0.991
		c0.785-0.504,1.969-1.098,3.324-1.098c2.071,0,2.94,1.375,2.94,3.48v5.186h-1.182l-0.123-1.009h-0.035
		c-0.815,0.664-1.757,1.216-2.802,1.216c-1.427,0-2.481-0.886-2.481-2.399C309.925,147.149,311.522,146.229,315.123,145.829z
		 M312.81,150.247c0.818,0,1.493-0.4,2.31-1.13v-2.349c-2.835,0.347-3.789,1.043-3.789,2.122
		C311.331,149.846,311.974,150.247,312.81,150.247z"/>
	<path d="M320.674,151.898v2.854h-1.431V142.73h1.185l0.121,0.975h0.053c0.765-0.645,1.706-1.182,2.696-1.182
		c2.173,0,3.339,1.688,3.339,4.314c0,2.871-1.721,4.557-3.656,4.557c-0.782,0-1.564-0.366-2.349-0.976L320.674,151.898z
		 M322.745,150.193c1.391,0,2.415-1.268,2.415-3.359c0-1.862-0.623-3.113-2.227-3.113c-0.71,0-1.425,0.398-2.259,1.147v4.436
		C321.438,149.951,322.189,150.193,322.745,150.193z"/>
	<path d="M328.677,149.272c0.732,0.592,1.478,1.007,2.489,1.007c1.112,0,1.671-0.593,1.671-1.323c0-0.869-1.012-1.254-1.935-1.601
		c-1.199-0.435-2.521-1.01-2.521-2.436c0-1.356,1.076-2.403,2.904-2.403c1.064,0,1.988,0.435,2.633,0.957l-0.684,0.905
		c-0.573-0.434-1.182-0.748-1.928-0.748c-1.06,0-1.549,0.572-1.549,1.219c0,0.8,0.923,1.094,1.879,1.461
		c1.219,0.451,2.576,0.955,2.576,2.557c0,1.373-1.095,2.521-3.096,2.521c-1.202,0-2.349-0.505-3.149-1.165L328.677,149.272z"/>
	<path d="M335.931,140.069c0-0.559,0.435-0.922,0.992-0.922c0.557,0,0.99,0.364,0.99,0.922c0,0.537-0.434,0.923-0.99,0.923
		C336.365,140.991,335.931,140.609,335.931,140.069z M336.194,142.729h1.427v8.454h-1.427V142.729z"/>
	<path d="M343.532,142.521c0.976,0,1.617,0.367,2.367,0.976l-0.073-1.441v-3.255h1.442v12.385h-1.181l-0.123-0.991h-0.052
		c-0.662,0.645-1.565,1.2-2.558,1.2c-2.123,0-3.497-1.599-3.497-4.416C339.864,144.227,341.602,142.521,343.532,142.521z
		 M343.675,150.193c0.784,0,1.46-0.384,2.154-1.168v-4.417c-0.711-0.643-1.355-0.888-2.054-0.888c-1.355,0-2.434,1.303-2.434,3.235
		C341.342,148.977,342.196,150.193,343.675,150.193z"/>
	<path d="M356.933,142.521c2.07,0,3.914,1.62,3.914,4.456c0,2.8-1.847,4.416-3.914,4.416c-2.07,0-3.916-1.617-3.916-4.416
		C353.016,144.141,354.863,142.521,356.933,142.521z M356.933,150.211c1.461,0,2.433-1.304,2.433-3.233
		c0-1.948-0.972-3.272-2.433-3.272c-1.442,0-2.438,1.323-2.438,3.272C354.494,148.905,355.483,150.211,356.933,150.211z"/>
	<path d="M363.072,142.729h1.183l0.121,1.532h0.054c0.57-1.061,1.439-1.74,2.4-1.74c0.363,0,0.626,0.053,0.903,0.174l-0.279,1.254
		c-0.277-0.088-0.468-0.14-0.817-0.14c-0.712,0-1.565,0.523-2.139,1.948v5.423h-1.428v-8.451H363.072z"/>
	<path d="M266.933,163.608h1.181l0.121,1.217h0.053c0.801-0.8,1.67-1.427,2.837-1.427c1.773,0,2.575,1.147,2.575,3.308v5.354h-1.429
		v-5.166c0-1.581-0.484-2.262-1.601-2.262c-0.868,0-1.46,0.452-2.312,1.305v6.123h-1.428L266.933,163.608L266.933,163.608z"/>
	<path d="M276.33,163.608h1.438v5.167c0,1.58,0.47,2.261,1.586,2.261c0.872,0,1.478-0.433,2.277-1.427v-6.001h1.427v8.455h-1.182
		l-0.122-1.325h-0.053c-0.785,0.92-1.614,1.533-2.78,1.533c-1.792,0-2.591-1.147-2.591-3.306L276.33,163.608L276.33,163.608z"/>
	<path d="M289.359,163.398c1.112,0,1.897,0.471,2.469,1.009l-0.713,0.922c-0.503-0.433-1.027-0.747-1.704-0.747
		c-1.53,0-2.643,1.32-2.643,3.271c0,1.933,1.06,3.236,2.607,3.236c0.802,0,1.479-0.4,1.983-0.852l0.646,0.938
		c-0.767,0.68-1.742,1.097-2.747,1.097c-2.245,0-3.967-1.618-3.967-4.419C285.288,165.016,287.184,163.398,289.359,163.398z"/>
	<path d="M293.847,159.674h1.429v10.786c0,0.453,0.189,0.623,0.398,0.623c0.085,0,0.156,0,0.313-0.03l0.19,1.076
		c-0.19,0.084-0.436,0.138-0.817,0.138c-1.078,0-1.513-0.678-1.513-1.914V159.674L293.847,159.674z"/>
	<path d="M301.448,163.398c2.153,0,3.376,1.549,3.376,3.967c0,0.298-0.021,0.569-0.052,0.783h-5.705
		c0.104,1.828,1.201,2.976,2.816,2.976c0.798,0,1.48-0.262,2.102-0.664l0.508,0.938c-0.732,0.47-1.638,0.871-2.788,0.871
		c-2.259,0-4.048-1.653-4.048-4.419C297.657,165.087,299.519,163.398,301.448,163.398z M303.57,167.208
		c0-1.722-0.767-2.679-2.088-2.679c-1.182,0-2.259,0.976-2.437,2.679H303.57z"/>
	<path d="M310.201,163.398c2.068,0,3.91,1.619,3.91,4.454c0,2.801-1.842,4.419-3.91,4.419c-2.072,0-3.916-1.616-3.916-4.419
		C306.284,165.016,308.129,163.398,310.201,163.398z M310.201,171.09c1.46,0,2.434-1.305,2.434-3.236
		c0-1.947-0.974-3.271-2.434-3.271c-1.445,0-2.438,1.321-2.438,3.271C307.763,169.783,308.755,171.09,310.201,171.09z"/>
	<path d="M319.785,163.398c1.115,0,1.897,0.471,2.472,1.009l-0.712,0.922c-0.506-0.433-1.027-0.747-1.707-0.747
		c-1.532,0-2.643,1.32-2.643,3.271c0,1.933,1.06,3.236,2.611,3.236c0.797,0,1.478-0.4,1.981-0.852l0.646,0.938
		c-0.765,0.68-1.742,1.097-2.75,1.097c-2.242,0-3.963-1.618-3.963-4.419C315.715,165.016,317.612,163.398,319.785,163.398z"/>
	<path d="M328.885,166.706c0-1.081-0.367-2.125-1.741-2.125c-0.989,0-1.858,0.454-2.523,0.903l-0.57-0.993
		c0.779-0.504,1.964-1.096,3.32-1.096c2.071,0,2.94,1.376,2.94,3.479v5.186h-1.182l-0.121-1.007h-0.033
		c-0.818,0.662-1.761,1.216-2.8,1.216c-1.429,0-2.49-0.89-2.49-2.401C323.681,168.024,325.286,167.105,328.885,166.706z
		 M326.569,171.124c0.819,0,1.496-0.402,2.314-1.133v-2.347c-2.836,0.347-3.793,1.044-3.793,2.123
		C325.091,170.724,325.734,171.124,326.569,171.124z"/>
	<path d="M334.434,172.777v2.854h-1.429v-12.022h1.185l0.121,0.974h0.052c0.765-0.643,1.704-1.183,2.694-1.183
		c2.174,0,3.339,1.689,3.339,4.316c0,2.871-1.719,4.556-3.649,4.556c-0.785,0-1.566-0.363-2.353-0.975L334.434,172.777z
		 M336.504,171.07c1.393,0,2.42-1.27,2.42-3.356c0-1.863-0.626-3.115-2.227-3.115c-0.713,0-1.429,0.399-2.26,1.15v4.434
		C335.201,170.829,335.948,171.07,336.504,171.07z"/>
	<path d="M342.436,170.149c0.731,0.593,1.479,1.008,2.487,1.008c1.114,0,1.669-0.592,1.669-1.323c0-0.871-1.008-1.255-1.927-1.603
		c-1.201-0.434-2.524-1.009-2.524-2.436c0-1.354,1.076-2.402,2.905-2.402c1.06,0,1.982,0.435,2.627,0.955l-0.678,0.902
		c-0.572-0.435-1.181-0.747-1.93-0.747c-1.06,0-1.547,0.571-1.547,1.22c0,0.796,0.924,1.096,1.877,1.461
		c1.219,0.453,2.577,0.954,2.577,2.557c0,1.375-1.099,2.523-3.097,2.523c-1.201,0-2.35-0.506-3.148-1.167L342.436,170.149z"/>
	<path d="M349.693,160.947c0-0.559,0.435-0.924,0.992-0.924c0.56,0,0.993,0.365,0.993,0.924c0,0.537-0.434,0.922-0.993,0.922
		C350.128,161.869,349.693,161.484,349.693,160.947z M349.955,163.608h1.428v8.455h-1.428V163.608z"/>
	<path d="M357.296,163.398c0.972,0,1.617,0.366,2.365,0.976l-0.069-1.442v-3.255h1.44v12.387h-1.18l-0.124-0.993h-0.051
		c-0.663,0.645-1.566,1.201-2.557,1.201c-2.125,0-3.499-1.6-3.499-4.417C353.626,165.103,355.364,163.398,357.296,163.398z
		 M357.435,171.07c0.784,0,1.461-0.382,2.154-1.167v-4.417c-0.711-0.644-1.354-0.891-2.051-0.891c-1.356,0-2.436,1.305-2.436,3.235
		C355.103,169.853,355.956,171.07,357.435,171.07z"/>
</g>
<g>
	<path d="M232.823,252.462h1.441v10.179h4.992v1.233h-6.434V252.462L232.823,252.462z"/>
	<path d="M240.878,252.753c0-0.556,0.436-0.921,0.991-0.921c0.559,0,0.989,0.365,0.989,0.921c0,0.536-0.432,0.924-0.989,0.924
		C241.312,253.677,240.878,253.289,240.878,252.753z M241.136,255.415h1.428v8.454h-1.428V255.415z"/>
	<path d="M246.844,264.581v2.854h-1.428v-12.022h1.183l0.122,0.975h0.055c0.764-0.642,1.702-1.184,2.691-1.184
		c2.173,0,3.342,1.689,3.342,4.317c0,2.865-1.723,4.554-3.656,4.554c-0.784,0-1.565-0.367-2.351-0.975L246.844,264.581z
		 M248.915,262.881c1.392,0,2.418-1.271,2.418-3.359c0-1.861-0.626-3.113-2.226-3.113c-0.716,0-1.43,0.398-2.264,1.147v4.434
		C247.608,262.636,248.358,262.881,248.915,262.881z"/>
	<path d="M254.812,252.753c0-0.556,0.434-0.921,0.991-0.921c0.555,0,0.99,0.365,0.99,0.921c0,0.536-0.437,0.924-0.99,0.924
		C255.246,253.677,254.812,253.289,254.812,252.753z M255.072,255.415h1.43v8.454h-1.43V255.415z"/>
	<path d="M262.414,255.207c0.976,0,1.618,0.366,2.362,0.975l-0.068-1.442v-3.252h1.44v12.384h-1.18l-0.125-0.99h-0.052
		c-0.663,0.641-1.564,1.199-2.56,1.199c-2.12,0-3.493-1.601-3.493-4.417C258.744,256.91,260.484,255.207,262.414,255.207z
		 M262.552,262.881c0.785,0,1.463-0.385,2.158-1.166v-4.417c-0.715-0.646-1.357-0.89-2.052-0.89c-1.356,0-2.436,1.306-2.436,3.23
		C260.223,261.658,261.074,262.881,262.552,262.881z"/>
	<path d="M272.522,259.033c0-3.062,0.85-5.564,2.297-7.895l0.89,0.415c-1.339,2.211-1.997,4.835-1.997,7.482
		c0,2.642,0.662,5.271,1.997,7.482l-0.89,0.414C273.372,264.601,272.522,262.096,272.522,259.033z"/>
	<path d="M281.605,252.648c-0.314-0.139-0.646-0.208-0.955-0.208c-0.801,0-1.184,0.561-1.184,1.636v1.339h1.793v1.167h-1.793v7.287
		h-1.43v-7.287h-1.147v-1.079l1.147-0.086v-1.339c0-1.718,0.784-2.797,2.472-2.797c0.521,0,1.028,0.119,1.408,0.277L281.605,252.648
		z"/>
	<path d="M287.308,258.513c0-1.079-0.365-2.125-1.74-2.125c-0.989,0-1.859,0.453-2.521,0.904l-0.571-0.993
		c0.782-0.504,1.964-1.098,3.32-1.098c2.072,0,2.941,1.375,2.941,3.479v5.186h-1.179l-0.126-1.007h-0.029
		c-0.818,0.662-1.763,1.218-2.802,1.218c-1.428,0-2.491-0.892-2.491-2.403C282.108,259.834,283.709,258.912,287.308,258.513z
		 M284.997,262.931c0.819,0,1.495-0.399,2.311-1.126v-2.353c-2.836,0.35-3.789,1.045-3.789,2.123
		C283.519,262.528,284.161,262.931,284.997,262.931z"/>
	<path d="M291.677,256.582h-1.251v-1.079l1.32-0.085l0.175-2.363h1.2v2.363h2.28v1.167h-2.28v4.697c0,1.038,0.332,1.631,1.304,1.631
		c0.3,0,0.68-0.117,0.958-0.224l0.276,1.077c-0.471,0.158-1.043,0.311-1.563,0.311c-1.811,0-2.418-1.148-2.418-2.817
		L291.677,256.582L291.677,256.582z"/>
	<path d="M297.556,256.582h-1.252v-1.079l1.322-0.085l0.173-2.363h1.202v2.363h2.279v1.167h-2.279v4.697
		c0,1.038,0.333,1.631,1.308,1.631c0.295,0,0.677-0.117,0.954-0.224l0.276,1.077c-0.469,0.158-1.042,0.311-1.564,0.311
		c-1.808,0-2.416-1.148-2.416-2.817L297.556,256.582L297.556,256.582z"/>
	<path d="M303.263,266.323c0.957,0,1.564-0.767,1.913-1.811l0.19-0.625l-3.394-8.473h1.48l1.72,4.684
		c0.26,0.729,0.561,1.6,0.82,2.379h0.07c0.243-0.761,0.481-1.631,0.711-2.379l1.513-4.684h1.391l-3.179,9.151
		c-0.593,1.668-1.459,2.939-3.168,2.939c-0.384,0-0.713-0.07-0.993-0.173l0.277-1.131
		C302.795,266.256,303.053,266.323,303.263,266.323z"/>
	<path d="M312.553,259.033c0-2.642-0.663-5.271-1.999-7.482l0.89-0.415c1.44,2.331,2.295,4.836,2.295,7.9
		c0,3.057-0.85,5.563-2.295,7.895l-0.89-0.418C311.893,264.304,312.553,261.679,312.553,259.033z"/>
	<path d="M235.848,276.083c2.156,0,3.377,1.548,3.377,3.965c0,0.298-0.022,0.571-0.053,0.784h-5.706
		c0.102,1.824,1.197,2.975,2.813,2.975c0.801,0,1.484-0.26,2.106-0.664l0.504,0.939c-0.73,0.468-1.634,0.87-2.783,0.87
		c-2.26,0-4.051-1.654-4.051-4.418C232.056,277.77,233.919,276.083,235.848,276.083z M237.971,279.893
		c0-1.72-0.766-2.678-2.088-2.678c-1.184,0-2.263,0.975-2.436,2.678H237.971z"/>
	<path d="M241.312,276.294h1.183l0.121,1.218h0.051c0.802-0.799,1.671-1.427,2.837-1.427c1.775,0,2.578,1.148,2.578,3.304v5.356
		h-1.431v-5.167c0-1.58-0.484-2.259-1.6-2.259c-0.871,0-1.463,0.45-2.312,1.306v6.12h-1.428V276.294L241.312,276.294z"/>
	<path d="M249.611,276.294h1.479l1.6,4.804c0.247,0.835,0.524,1.688,0.785,2.487h0.069c0.247-0.8,0.522-1.655,0.766-2.487
		l1.603-4.804h1.406l-2.991,8.453h-1.669L249.611,276.294z"/>
	<path d="M262.048,276.083c2.159,0,3.374,1.548,3.374,3.965c0,0.298-0.016,0.571-0.051,0.784h-5.707
		c0.106,1.824,1.203,2.975,2.816,2.975c0.801,0,1.481-0.26,2.107-0.664l0.503,0.939c-0.731,0.468-1.634,0.87-2.783,0.87
		c-2.262,0-4.052-1.654-4.052-4.418C258.256,277.77,260.119,276.083,262.048,276.083z M264.172,279.893
		c0-1.72-0.765-2.678-2.086-2.678c-1.184,0-2.264,0.975-2.437,2.678H264.172z"/>
	<path d="M267.513,272.36h1.427v10.785c0,0.451,0.19,0.623,0.399,0.623c0.088,0,0.16,0,0.313-0.03l0.189,1.076
		c-0.189,0.084-0.433,0.138-0.816,0.138c-1.073,0-1.51-0.68-1.51-1.914L267.513,272.36L267.513,272.36z"/>
	<path d="M275.238,276.083c2.07,0,3.911,1.615,3.911,4.453c0,2.803-1.844,4.421-3.911,4.421c-2.072,0-3.916-1.618-3.916-4.421
		C271.321,277.701,273.165,276.083,275.238,276.083z M275.238,283.772c1.46,0,2.436-1.303,2.436-3.233
		c0-1.947-0.976-3.273-2.436-3.273c-1.447,0-2.438,1.324-2.438,3.273C272.801,282.47,273.79,283.772,275.238,283.772z"/>
	<path d="M282.802,285.46v2.853h-1.426v-12.021h1.185l0.118,0.978h0.052c0.765-0.646,1.705-1.186,2.693-1.186
		c2.176,0,3.341,1.689,3.341,4.314c0,2.868-1.72,4.556-3.653,4.556c-0.785,0-1.564-0.366-2.353-0.975L282.802,285.46z
		 M284.875,283.757c1.392,0,2.418-1.269,2.418-3.359c0-1.861-0.627-3.113-2.227-3.113c-0.712,0-1.426,0.398-2.261,1.148v4.433
		C283.569,283.515,284.317,283.757,284.875,283.757z"/>
	<path d="M294.198,276.083c2.157,0,3.376,1.548,3.376,3.965c0,0.298-0.019,0.571-0.052,0.784h-5.706
		c0.104,1.824,1.201,2.975,2.817,2.975c0.799,0,1.479-0.26,2.104-0.664l0.505,0.939c-0.729,0.468-1.635,0.87-2.783,0.87
		c-2.262,0-4.05-1.654-4.05-4.418C290.406,277.77,292.268,276.083,294.198,276.083z M296.321,279.893
		c0-1.72-0.765-2.678-2.088-2.678c-1.183,0-2.261,0.975-2.435,2.678H296.321z"/>
	<path d="M302.464,279.839h4.002v1.099h-4.002V279.839z"/>
	<path d="M232.456,303.712c0.732,0.589,1.48,1.009,2.489,1.009c1.112,0,1.669-0.593,1.669-1.324c0-0.868-1.01-1.252-1.931-1.6
		c-1.201-0.436-2.524-1.01-2.524-2.438c0-1.354,1.08-2.4,2.904-2.4c1.061,0,1.984,0.436,2.631,0.956l-0.679,0.899
		c-0.572-0.433-1.182-0.747-1.929-0.747c-1.062,0-1.548,0.572-1.548,1.218c0,0.801,0.923,1.098,1.877,1.461
		c1.218,0.453,2.578,0.956,2.578,2.559c0,1.374-1.096,2.523-3.096,2.523c-1.201,0-2.348-0.508-3.148-1.167L232.456,303.712z"/>
	<path d="M243.26,296.961c2.07,0,3.911,1.619,3.911,4.454c0,2.801-1.844,4.419-3.911,4.419c-2.071,0-3.915-1.621-3.915-4.419
		C239.345,298.577,241.188,296.961,243.26,296.961z M243.26,304.648c1.459,0,2.436-1.306,2.436-3.233
		c0-1.944-0.977-3.271-2.436-3.271c-1.443,0-2.437,1.321-2.437,3.271C240.824,303.343,241.814,304.648,243.26,304.648z"/>
	<path d="M249.399,297.17h1.186l0.12,1.218h0.053c0.729-0.799,1.617-1.427,2.627-1.427c1.288,0,1.983,0.612,2.331,1.616
		c0.893-0.954,1.762-1.616,2.787-1.616c1.737,0,2.574,1.147,2.574,3.306v5.356h-1.427v-5.166c0-1.581-0.508-2.262-1.566-2.262
		c-0.662,0-1.34,0.436-2.124,1.303v6.123h-1.43v-5.164c0-1.578-0.504-2.263-1.581-2.263c-0.623,0-1.337,0.435-2.124,1.306v6.123
		h-1.426V297.17L249.399,297.17z"/>
	<path d="M266.988,296.961c2.158,0,3.374,1.549,3.374,3.965c0,0.3-0.017,0.572-0.052,0.785h-5.705
		c0.105,1.824,1.201,2.972,2.817,2.972c0.802,0,1.48-0.258,2.106-0.661l0.503,0.94c-0.732,0.467-1.633,0.87-2.782,0.87
		c-2.261,0-4.053-1.655-4.053-4.42C263.197,298.648,265.06,296.961,266.988,296.961z M269.113,300.771
		c0-1.719-0.767-2.677-2.087-2.677c-1.181,0-2.264,0.975-2.438,2.677H269.113z"/>
	<path d="M274.747,297.17h1.48l1.603,4.804c0.244,0.836,0.521,1.685,0.784,2.487h0.067c0.245-0.8,0.526-1.655,0.766-2.487
		l1.604-4.804h1.407l-2.991,8.453h-1.673L274.747,297.17z"/>
	<path d="M283.831,294.508c0-0.557,0.436-0.922,0.99-0.922c0.56,0,0.995,0.365,0.995,0.922c0,0.539-0.436,0.924-0.995,0.924
		C284.266,295.432,283.831,295.047,283.831,294.508z M284.091,297.17h1.428v8.453h-1.428V297.17z"/>
	<path d="M288.372,297.17h1.182l0.122,1.532h0.053c0.569-1.058,1.44-1.738,2.399-1.738c0.368,0,0.625,0.053,0.905,0.173l-0.28,1.253
		c-0.276-0.082-0.468-0.136-0.817-0.136c-0.714,0-1.566,0.521-2.139,1.949v5.423h-1.428L288.372,297.17L288.372,297.17z"/>
	<path d="M294.288,297.17h1.44v5.166c0,1.583,0.471,2.262,1.58,2.262c0.872,0,1.481-0.436,2.28-1.426v-6.002h1.429v8.453h-1.185
		l-0.117-1.324h-0.055c-0.786,0.924-1.618,1.535-2.785,1.535c-1.79,0-2.587-1.151-2.587-3.306L294.288,297.17L294.288,297.17z"/>
	<path d="M303.645,303.712c0.733,0.589,1.48,1.009,2.489,1.009c1.112,0,1.671-0.593,1.671-1.324c0-0.868-1.009-1.252-1.935-1.6
		c-1.199-0.436-2.52-1.01-2.52-2.438c0-1.354,1.078-2.4,2.904-2.4c1.063,0,1.986,0.436,2.633,0.956l-0.681,0.899
		c-0.57-0.433-1.181-0.747-1.928-0.747c-1.061,0-1.55,0.572-1.55,1.218c0,0.801,0.925,1.098,1.881,1.461
		c1.218,0.453,2.575,0.956,2.575,2.559c0,1.374-1.097,2.523-3.096,2.523c-1.2,0-2.35-0.508-3.15-1.167L303.645,303.712z"/>
	<path d="M314.326,296.961c2.159,0,3.377,1.549,3.377,3.965c0,0.3-0.019,0.572-0.053,0.785h-5.705
		c0.104,1.824,1.2,2.972,2.817,2.972c0.801,0,1.479-0.258,2.104-0.661l0.504,0.94c-0.731,0.467-1.634,0.87-2.781,0.87
		c-2.264,0-4.053-1.655-4.053-4.42C310.537,298.648,312.397,296.961,314.326,296.961z M316.451,300.771
		c0-1.719-0.766-2.677-2.091-2.677c-1.18,0-2.26,0.975-2.433,2.677H316.451z"/>
	<path d="M319.564,303.712c0.732,0.589,1.48,1.009,2.488,1.009c1.114,0,1.67-0.593,1.67-1.324c0-0.868-1.011-1.252-1.931-1.6
		c-1.202-0.436-2.524-1.01-2.524-2.438c0-1.354,1.079-2.4,2.904-2.4c1.063,0,1.983,0.436,2.631,0.956l-0.68,0.899
		c-0.571-0.433-1.185-0.747-1.929-0.747c-1.062,0-1.549,0.572-1.549,1.218c0,0.801,0.923,1.098,1.88,1.461
		c1.217,0.453,2.575,0.956,2.575,2.559c0,1.374-1.096,2.523-3.095,2.523c-1.202,0-2.351-0.508-3.148-1.167L319.564,303.712z"/>
</g>
<g>
	<path d="M54.246,294.026h6.575v1.221h-5.132v3.583h4.333v1.233h-4.333v4.145h5.307v1.237h-6.75V294.026z"/>
	<path d="M63.276,296.987h1.182l0.122,1.217h0.052c0.8-0.802,1.671-1.43,2.835-1.43c1.774,0,2.577,1.152,2.577,3.309v5.356h-1.429
		v-5.169c0-1.58-0.487-2.26-1.601-2.26c-0.869,0-1.462,0.453-2.313,1.306v6.121h-1.427L63.276,296.987L63.276,296.987z"/>
	<path d="M71.573,296.987h1.479l1.601,4.801c0.246,0.837,0.522,1.685,0.784,2.488h0.068c0.246-0.801,0.523-1.651,0.766-2.488
		l1.602-4.801h1.41l-2.993,8.452h-1.67L71.573,296.987z"/>
	<path d="M84.011,296.774c2.158,0,3.375,1.548,3.375,3.968c0,0.297-0.016,0.571-0.051,0.782h-5.706
		c0.104,1.826,1.2,2.978,2.819,2.978c0.799,0,1.479-0.262,2.106-0.665l0.502,0.94c-0.731,0.469-1.635,0.87-2.783,0.87
		c-2.261,0-4.054-1.655-4.054-4.42C80.219,298.464,82.081,296.774,84.011,296.774z M86.135,300.585c0-1.721-0.766-2.679-2.091-2.679
		c-1.181,0-2.259,0.975-2.433,2.679H86.135z"/>
	<path d="M89.476,293.055h1.429v10.782c0,0.454,0.19,0.624,0.401,0.624c0.085,0,0.157,0,0.312-0.034l0.189,1.079
		c-0.189,0.086-0.434,0.139-0.815,0.139c-1.079,0-1.513-0.678-1.513-1.915L89.476,293.055L89.476,293.055z"/>
	<path d="M97.198,296.774c2.071,0,3.915,1.618,3.915,4.456c0,2.801-1.845,4.419-3.915,4.419c-2.069,0-3.913-1.621-3.913-4.419
		C93.284,298.396,95.128,296.774,97.198,296.774z M97.198,304.467c1.461,0,2.437-1.306,2.437-3.233c0-1.946-0.976-3.273-2.437-3.273
		c-1.444,0-2.436,1.324-2.436,3.273C94.764,303.161,95.755,304.467,97.198,304.467z"/>
	<path d="M104.768,306.155v2.852h-1.427v-12.021h1.182l0.123,0.978h0.051c0.766-0.645,1.704-1.184,2.694-1.184
		c2.176,0,3.34,1.688,3.34,4.314c0,2.866-1.723,4.556-3.653,4.556c-0.785,0-1.565-0.365-2.351-0.975L104.768,306.155z
		 M106.838,304.448c1.391,0,2.419-1.271,2.419-3.359c0-1.86-0.627-3.116-2.227-3.116c-0.711,0-1.429,0.401-2.262,1.151v4.433
		C105.532,304.205,106.282,304.448,106.838,304.448z"/>
	<path d="M116.162,296.774c2.157,0,3.375,1.548,3.375,3.968c0,0.297-0.018,0.571-0.052,0.782h-5.705
		c0.104,1.826,1.2,2.978,2.816,2.978c0.8,0,1.48-0.262,2.106-0.665l0.504,0.94c-0.73,0.469-1.634,0.87-2.784,0.87
		c-2.26,0-4.052-1.655-4.052-4.42C112.37,298.464,114.233,296.774,116.162,296.774z M118.284,300.585
		c0-1.721-0.766-2.679-2.087-2.679c-1.183,0-2.262,0.975-2.437,2.679H118.284z"/>
	<path d="M126.566,306.155v2.852h-1.429v-12.021h1.184l0.121,0.978h0.052c0.765-0.645,1.706-1.184,2.695-1.184
		c2.176,0,3.338,1.688,3.338,4.314c0,2.866-1.718,4.556-3.652,4.556c-0.783,0-1.566-0.365-2.349-0.975L126.566,306.155z
		 M128.635,304.448c1.39,0,2.417-1.271,2.417-3.359c0-1.86-0.625-3.116-2.226-3.116c-0.714,0-1.428,0.401-2.26,1.151v4.433
		C127.331,304.205,128.079,304.448,128.635,304.448z"/>
	<path d="M134.795,296.987h1.183l0.121,1.532h0.053c0.573-1.061,1.442-1.74,2.401-1.74c0.365,0,0.626,0.053,0.903,0.173
		l-0.277,1.255c-0.277-0.087-0.471-0.141-0.817-0.141c-0.714,0-1.566,0.524-2.143,1.95v5.426h-1.426v-8.455H134.795z"/>
	<path d="M143.947,296.774c2.069,0,3.912,1.618,3.912,4.456c0,2.801-1.842,4.419-3.912,4.419c-2.072,0-3.915-1.621-3.915-4.419
		C140.032,298.396,141.876,296.774,143.947,296.774z M143.947,304.467c1.461,0,2.436-1.306,2.436-3.233
		c0-1.946-0.975-3.273-2.436-3.273c-1.446,0-2.436,1.324-2.436,3.273C141.511,303.161,142.501,304.467,143.947,304.467z"/>
	<path d="M150.329,298.149h-1.252v-1.076l1.325-0.086l0.174-2.362h1.2v2.362h2.28v1.169h-2.28v4.695
		c0,1.045,0.331,1.634,1.304,1.634c0.298,0,0.678-0.119,0.957-0.227l0.28,1.075c-0.471,0.161-1.045,0.313-1.566,0.313
		c-1.808,0-2.419-1.148-2.419-2.817L150.329,298.149L150.329,298.149z"/>
	<path d="M158.96,296.774c2.157,0,3.375,1.548,3.375,3.968c0,0.297-0.021,0.571-0.055,0.782h-5.704
		c0.104,1.826,1.2,2.978,2.817,2.978c0.8,0,1.48-0.262,2.104-0.665l0.504,0.94c-0.73,0.469-1.634,0.87-2.782,0.87
		c-2.261,0-4.052-1.655-4.052-4.42C155.168,298.464,157.03,296.774,158.96,296.774z M161.08,300.585
		c0-1.721-0.764-2.679-2.085-2.679c-1.184,0-2.263,0.975-2.437,2.679H161.08z"/>
	<path d="M164.162,294.325c0-0.559,0.436-0.924,0.99-0.924c0.558,0,0.994,0.365,0.994,0.924c0,0.537-0.438,0.922-0.994,0.922
		C164.597,295.247,164.162,294.862,164.162,294.325z M164.422,296.987h1.425v8.452h-1.425V296.987z"/>
	<path d="M168.701,296.987h1.181l0.124,1.217h0.051c0.799-0.802,1.668-1.43,2.836-1.43c1.777,0,2.577,1.152,2.577,3.309v5.356
		h-1.429v-5.169c0-1.58-0.485-2.26-1.603-2.26c-0.865,0-1.457,0.453-2.308,1.306v6.121h-1.429L168.701,296.987L168.701,296.987z"/>
	<path d="M177.993,303.527c0.73,0.591,1.478,1.007,2.488,1.007c1.113,0,1.668-0.591,1.668-1.322c0-0.871-1.007-1.255-1.927-1.603
		c-1.204-0.433-2.525-1.007-2.525-2.437c0-1.354,1.079-2.404,2.906-2.404c1.062,0,1.982,0.438,2.629,0.959l-0.679,0.903
		c-0.572-0.436-1.181-0.748-1.93-0.748c-1.058,0-1.548,0.571-1.548,1.215c0,0.801,0.925,1.097,1.88,1.463
		c1.218,0.451,2.575,0.956,2.575,2.556c0,1.374-1.096,2.526-3.095,2.526c-1.201,0-2.349-0.508-3.15-1.167L177.993,303.527z"/>
</g>
<g>
	<path d="M124.291,4.958h-3.446V3.741h8.35v1.217h-3.443V15.15h-1.462L124.291,4.958L124.291,4.958z"/>
	<path d="M133.127,6.487c2.157,0,3.377,1.548,3.377,3.964c0,0.297-0.021,0.572-0.052,0.784h-5.706
		c0.103,1.827,1.2,2.975,2.815,2.975c0.8,0,1.481-0.26,2.106-0.663l0.505,0.938c-0.732,0.47-1.637,0.87-2.784,0.87
		c-2.26,0-4.051-1.652-4.051-4.419C129.335,8.174,131.197,6.487,133.127,6.487z M135.251,10.297c0-1.721-0.767-2.677-2.089-2.677
		c-1.184,0-2.263,0.976-2.436,2.677H135.251z"/>
	<path d="M139.009,14.855v-0.068c-0.417-0.261-0.748-0.711-0.748-1.374c0-0.711,0.487-1.269,0.921-1.564v-0.069
		c-0.558-0.452-1.096-1.271-1.096-2.279c0-1.845,1.462-3.01,3.181-3.01c0.468,0,0.888,0.087,1.201,0.208h2.941v1.096h-1.74
		c0.4,0.385,0.694,1.028,0.694,1.74c0,1.809-1.373,2.94-3.096,2.94c-0.415,0-0.887-0.103-1.27-0.297
		c-0.296,0.262-0.54,0.54-0.54,1.009c0,0.54,0.349,0.922,1.497,0.922h1.635c1.966,0,2.956,0.607,2.956,2.017
		c0,1.566-1.65,2.923-4.278,2.923c-2.07,0-3.497-0.818-3.497-2.279C137.773,16.056,138.243,15.377,139.009,14.855z M141.479,18.056
		c1.619,0,2.681-0.833,2.681-1.72c0-0.783-0.611-1.042-1.708-1.042h-1.461c-0.331,0-0.731-0.034-1.095-0.139
		c-0.608,0.433-0.869,0.937-0.869,1.428C139.026,17.481,139.948,18.056,141.479,18.056z M143.062,9.498
		c0-1.235-0.798-1.966-1.792-1.966c-0.991,0-1.792,0.732-1.792,1.966c0,1.234,0.817,2.017,1.792,2.017
		C142.242,11.516,143.062,10.733,143.062,9.498z"/>
	<path d="M147.066,6.697h1.443v5.166c0,1.582,0.467,2.262,1.582,2.262c0.869,0,1.478-0.434,2.279-1.427V6.697h1.427v8.453h-1.184
		l-0.122-1.322h-0.052c-0.783,0.922-1.618,1.532-2.783,1.532c-1.792,0-2.591-1.148-2.591-3.305L147.066,6.697L147.066,6.697z"/>
	<path d="M156.649,6.697h1.181l0.125,1.217h0.052c0.729-0.8,1.616-1.427,2.626-1.427c1.288,0,1.984,0.609,2.333,1.619
		c0.887-0.956,1.758-1.619,2.783-1.619c1.738,0,2.577,1.148,2.577,3.305v5.357h-1.428V9.984c0-1.582-0.504-2.262-1.564-2.262
		c-0.665,0-1.343,0.436-2.124,1.305v6.123h-1.427V9.982c0-1.582-0.504-2.262-1.582-2.262c-0.625,0-1.341,0.434-2.123,1.304v6.122
		h-1.427L156.649,6.697L156.649,6.697z"/>
	<path d="M174.238,6.487c2.155,0,3.375,1.548,3.375,3.964c0,0.297-0.02,0.572-0.052,0.784h-5.706
		c0.106,1.827,1.202,2.975,2.818,2.975c0.798,0,1.479-0.26,2.104-0.663l0.505,0.938c-0.732,0.47-1.635,0.87-2.785,0.87
		c-2.259,0-4.051-1.652-4.051-4.419C170.446,8.174,172.306,6.487,174.238,6.487z M176.36,10.297c0-1.721-0.766-2.677-2.091-2.677
		c-1.183,0-2.259,0.976-2.434,2.677H176.36z"/>
	<path d="M179.701,6.697h1.184l0.121,1.217h0.051c0.803-0.8,1.672-1.427,2.84-1.427c1.772,0,2.578,1.148,2.578,3.305v5.357h-1.43
		V9.984c0-1.582-0.484-2.262-1.603-2.262c-0.869,0-1.461,0.452-2.31,1.305v6.123h-1.431L179.701,6.697L179.701,6.697z"/>
	<path d="M189.463,7.861h-1.254V6.783l1.322-0.087l0.176-2.366h1.201v2.366h2.279v1.167h-2.279v4.695
		c0,1.042,0.331,1.634,1.306,1.634c0.297,0,0.676-0.121,0.953-0.227l0.277,1.078c-0.468,0.157-1.042,0.312-1.565,0.312
		c-1.81,0-2.416-1.148-2.416-2.817V7.861L189.463,7.861z"/>
</g>
<path d="M271.491,41.001c1.373,0,2.452,0.663,3.114,1.408l-0.817,0.921c-0.593-0.644-1.324-1.061-2.277-1.061
	c-2.174,0-3.603,1.774-3.603,4.61c0,2.868,1.374,4.678,3.533,4.678c1.094,0,1.897-0.452,2.626-1.269l0.819,0.888
	c-0.902,1.044-2.018,1.653-3.479,1.653c-2.869,0-4.992-2.193-4.992-5.916C266.411,43.245,268.568,41.001,271.491,41.001z"/>
<path d="M280.155,43.957c2.071,0,3.916,1.618,3.916,4.453c0,2.802-1.846,4.419-3.916,4.419c-2.069,0-3.915-1.619-3.915-4.419
	C276.24,45.575,278.087,43.957,280.155,43.957z M280.155,51.646c1.461,0,2.437-1.305,2.437-3.236c0-1.947-0.976-3.27-2.437-3.27
	c-1.439,0-2.436,1.321-2.436,3.27C277.719,50.343,278.713,51.646,280.155,51.646z"/>
<path d="M286.035,41.505c0-0.559,0.436-0.922,0.991-0.922c0.558,0,0.993,0.366,0.993,0.922c0,0.539-0.436,0.923-0.993,0.923
	C286.47,42.428,286.035,42.043,286.035,41.505z M286.298,44.166h1.429v8.455h-1.429V44.166z"/>
<path d="M290.578,40.234h1.429v10.786c0,0.452,0.19,0.624,0.398,0.624c0.09,0,0.161,0,0.314-0.034l0.189,1.079
	c-0.189,0.084-0.435,0.138-0.816,0.138c-1.079,0-1.516-0.679-1.516-1.914V40.23L290.578,40.234L290.578,40.234z"/>
<path d="M298.178,43.957c2.156,0,3.379,1.549,3.379,3.964c0,0.297-0.022,0.572-0.051,0.783H295.8
	c0.104,1.825,1.202,2.974,2.814,2.974c0.801,0,1.483-0.259,2.104-0.662l0.509,0.938c-0.732,0.47-1.639,0.87-2.788,0.87
	c-2.257,0-4.048-1.653-4.048-4.418C294.385,45.645,296.247,43.957,298.178,43.957z M300.302,47.767c0-1.722-0.767-2.678-2.087-2.678
	c-1.184,0-2.263,0.976-2.436,2.678H300.302z"/>
<path d="M306.702,43.957c0.977,0,1.62,0.365,2.367,0.975l-0.071-1.444v-3.252h1.441v12.386h-1.182l-0.122-0.991h-0.053
	c-0.663,0.644-1.568,1.201-2.556,1.201c-2.124,0-3.5-1.602-3.5-4.418C303.032,45.662,304.772,43.957,306.702,43.957z M306.844,51.63
	c0.782,0,1.461-0.384,2.154-1.167v-4.417c-0.713-0.644-1.355-0.888-2.05-0.888c-1.358,0-2.438,1.304-2.438,3.235
	C304.51,50.41,305.363,51.63,306.844,51.63z"/>
<path d="M316.95,41.208h2.854c3.511,0,5.393,2.037,5.393,5.651c0,3.638-1.879,5.757-5.326,5.757h-2.921V41.208z M319.699,51.438
	c2.662,0,4-1.686,4-4.577c0-2.869-1.338-4.468-4-4.468h-1.306v9.044H319.699z"/>
<path d="M327.648,41.208h1.498l4.121,7.167l1.236,2.364h0.069c-0.069-1.148-0.176-2.436-0.176-3.638v-5.895h1.376v11.412h-1.494
	l-4.142-7.186l-1.234-2.349h-0.07c0.088,1.148,0.189,2.364,0.189,3.567v5.968h-1.373L327.648,41.208L327.648,41.208L327.648,41.208z
	"/>
<path d="M344.124,49.142h-4.156l-1.097,3.479h-1.479l3.861-11.413h1.635l3.865,11.413h-1.549L344.124,49.142z M343.76,47.973
	l-0.537-1.738c-0.418-1.269-0.786-2.522-1.151-3.843h-0.067c-0.352,1.321-0.715,2.575-1.133,3.843l-0.538,1.738H343.76z"/>
<path d="M355.033,43.957c2.074,0,3.916,1.618,3.916,4.453c0,2.802-1.848,4.419-3.916,4.419c-2.07,0-3.914-1.619-3.914-4.419
	C351.12,45.575,352.963,43.957,355.033,43.957z M355.033,51.646c1.462,0,2.438-1.305,2.438-3.236c0-1.947-0.976-3.27-2.438-3.27
	c-1.441,0-2.433,1.321-2.433,3.27C352.597,50.343,353.589,51.646,355.033,51.646z"/>
<path d="M361.173,44.166h1.182l0.123,1.532h0.052c0.573-1.059,1.441-1.74,2.403-1.74c0.362,0,0.625,0.052,0.902,0.175l-0.277,1.252
	c-0.28-0.086-0.47-0.138-0.818-0.138c-0.713,0-1.566,0.522-2.14,1.947v5.428h-1.429L361.173,44.166L361.173,44.166z"/>
<path d="M273.333,73.5l-2.749-4.82h-2.069v4.82h-1.441V62.086h3.563c2.332,0,4.004,0.836,4.004,3.202
	c0,1.774-1.01,2.854-2.559,3.234l2.888,4.975L273.333,73.5L273.333,73.5z M268.516,67.497h1.915c1.772,0,2.764-0.73,2.764-2.209
	c0-1.495-0.99-2.036-2.764-2.036h-1.915V67.497z"/>
<path d="M277.18,62.086h1.494l4.123,7.166l1.234,2.366h0.071c-0.071-1.149-0.173-2.437-0.173-3.638v-5.895h1.372v11.412h-1.494
	l-4.144-7.185l-1.233-2.35h-0.071c0.088,1.147,0.191,2.365,0.191,3.567v5.968h-1.372L277.18,62.086L277.18,62.086z"/>
<path d="M293.655,70.019h-4.159l-1.097,3.48h-1.478l3.861-11.414h1.637l3.863,11.414h-1.548L293.655,70.019z M293.289,68.853
	l-0.539-1.74c-0.414-1.269-0.783-2.521-1.147-3.844h-0.068c-0.352,1.322-0.713,2.575-1.132,3.844l-0.538,1.74H293.289z"/>
<path d="M301.276,68.662c0-3.062,0.852-5.566,2.3-7.897l0.89,0.418c-1.341,2.209-2,4.834-2,7.481c0,2.644,0.662,5.271,2,7.482
	l-0.89,0.417C302.128,74.229,301.276,71.725,301.276,68.662z"/>
<path d="M307.137,73.203v-0.069c-0.413-0.26-0.744-0.711-0.744-1.374c0-0.711,0.484-1.27,0.921-1.566v-0.069
	c-0.56-0.451-1.097-1.269-1.097-2.278c0-1.847,1.46-3.01,3.182-3.01c0.468,0,0.889,0.087,1.199,0.207h2.942v1.096H311.8
	c0.402,0.384,0.696,1.027,0.696,1.739c0,1.809-1.374,2.941-3.096,2.941c-0.419,0-0.89-0.105-1.271-0.297
	c-0.299,0.261-0.538,0.54-0.538,1.008c0,0.54,0.351,0.922,1.493,0.922h1.634c1.971,0,2.96,0.61,2.96,2.017
	c0,1.568-1.655,2.923-4.279,2.923c-2.071,0-3.497-0.818-3.497-2.278C305.904,74.404,306.372,73.725,307.137,73.203z M309.61,76.403
	c1.617,0,2.679-0.836,2.679-1.722c0-0.784-0.608-1.042-1.705-1.042h-1.461c-0.33,0-0.733-0.037-1.095-0.14
	c-0.614,0.434-0.871,0.938-0.871,1.427C307.155,75.831,308.078,76.403,309.61,76.403z M311.193,67.845
	c0-1.236-0.802-1.967-1.792-1.967s-1.792,0.732-1.792,1.967c0,1.234,0.817,2.018,1.792,2.018
	C310.374,69.863,311.193,69.08,311.193,67.845z"/>
<path d="M318.238,64.834c2.158,0,3.376,1.547,3.376,3.966c0,0.295-0.018,0.572-0.051,0.783h-5.706
	c0.104,1.827,1.198,2.975,2.815,2.975c0.801,0,1.479-0.261,2.105-0.662l0.505,0.938c-0.733,0.471-1.637,0.869-2.784,0.869
	c-2.262,0-4.051-1.652-4.051-4.417C314.446,66.522,316.306,64.834,318.238,64.834z M320.362,68.646c0-1.722-0.767-2.678-2.091-2.678
	c-1.179,0-2.259,0.973-2.434,2.678H320.362z"/>
<path d="M323.702,65.042h1.184l0.119,1.218h0.053c0.801-0.8,1.671-1.428,2.839-1.428c1.772,0,2.575,1.148,2.575,3.307v5.357h-1.429
	V68.33c0-1.581-0.483-2.262-1.602-2.262c-0.869,0-1.461,0.452-2.311,1.304v6.123h-1.429V65.042L323.702,65.042z"/>
<path d="M336.385,64.834c2.158,0,3.374,1.547,3.374,3.966c0,0.295-0.019,0.572-0.052,0.783h-5.706
	c0.105,1.827,1.202,2.975,2.817,2.975c0.801,0,1.479-0.261,2.105-0.662l0.504,0.938c-0.731,0.471-1.635,0.869-2.781,0.869
	c-2.266,0-4.056-1.652-4.056-4.417C332.591,66.522,334.455,64.834,336.385,64.834z M338.504,68.646c0-1.722-0.765-2.678-2.085-2.678
	c-1.183,0-2.262,0.973-2.435,2.678H338.504z"/>
<path d="M341.848,66.209h-1.255v-1.078l1.321-0.088l0.173-2.364h1.204v2.364h2.277v1.169h-2.277v4.696
	c0,1.042,0.33,1.634,1.306,1.634c0.297,0,0.678-0.121,0.954-0.227l0.277,1.079c-0.47,0.157-1.042,0.313-1.563,0.313
	c-1.812,0-2.418-1.148-2.418-2.819L341.848,66.209L341.848,66.209z"/>
<path d="M347.223,62.382c0-0.556,0.436-0.923,0.991-0.923c0.555,0,0.99,0.367,0.99,0.923c0,0.539-0.436,0.922-0.99,0.922
	C347.659,63.304,347.223,62.921,347.223,62.382z M347.483,65.042h1.433v8.456h-1.433V65.042z"/>
<path d="M355.208,64.834c1.112,0,1.897,0.471,2.47,1.01l-0.71,0.922c-0.504-0.435-1.029-0.75-1.705-0.75
	c-1.534,0-2.646,1.323-2.646,3.272c0,1.93,1.063,3.234,2.61,3.234c0.801,0,1.479-0.398,1.983-0.851l0.641,0.938
	c-0.763,0.679-1.739,1.097-2.747,1.097c-2.245,0-3.963-1.62-3.963-4.417C351.135,66.454,353.035,64.834,355.208,64.834z"/>
<path d="M266.933,85.92h1.184l0.122,1.217h0.052c0.728-0.801,1.619-1.427,2.627-1.427c1.287,0,1.983,0.609,2.331,1.617
	c0.891-0.955,1.761-1.617,2.784-1.617c1.737,0,2.577,1.147,2.577,3.305v5.358h-1.427v-5.167c0-1.582-0.508-2.262-1.566-2.262
	c-0.666,0-1.342,0.434-2.125,1.306v6.122h-1.428v-5.167c0-1.58-0.504-2.262-1.582-2.262c-0.624,0-1.339,0.434-2.123,1.303v6.123
	h-1.429v-8.448L266.933,85.92L266.933,85.92z"/>
<path d="M286.139,89.018c0-1.078-0.364-2.123-1.739-2.123c-0.993,0-1.862,0.453-2.523,0.904l-0.57-0.992
	c0.781-0.504,1.966-1.095,3.32-1.095c2.07,0,2.94,1.375,2.94,3.479v5.184h-1.181l-0.121-1.009h-0.035
	c-0.816,0.662-1.759,1.217-2.798,1.217c-1.432,0-2.488-0.887-2.488-2.403C280.94,90.339,282.54,89.418,286.139,89.018z
	 M283.827,93.435c0.817,0,1.494-0.399,2.312-1.13v-2.348c-2.838,0.348-3.793,1.043-3.793,2.123
	C282.348,93.036,282.99,93.435,283.827,93.435z"/>
<path d="M290.506,87.088h-1.252v-1.079l1.323-0.088l0.174-2.365h1.201v2.365h2.281v1.167h-2.281v4.696
	c0,1.044,0.33,1.634,1.305,1.634c0.298,0,0.677-0.12,0.954-0.224l0.277,1.079c-0.469,0.158-1.042,0.311-1.563,0.311
	c-1.811,0-2.418-1.147-2.418-2.816L290.506,87.088L290.506,87.088z"/>
<path d="M299.137,85.713c2.155,0,3.374,1.549,3.374,3.964c0,0.298-0.018,0.573-0.052,0.783h-5.706
	c0.105,1.828,1.202,2.975,2.816,2.975c0.803,0,1.48-0.259,2.107-0.664l0.505,0.938c-0.731,0.47-1.636,0.869-2.784,0.869
	c-2.264,0-4.054-1.652-4.054-4.419C295.344,87.399,297.207,85.713,299.137,85.713z M301.259,89.522c0-1.72-0.764-2.678-2.087-2.678
	c-1.183,0-2.262,0.976-2.436,2.678H301.259z"/>
<path d="M304.598,85.92h1.182l0.124,1.533h0.051c0.57-1.062,1.441-1.74,2.401-1.74c0.364,0,0.624,0.051,0.902,0.171l-0.279,1.255
	c-0.276-0.087-0.468-0.139-0.816-0.139c-0.711,0-1.566,0.523-2.138,1.947v5.427h-1.427V85.92L304.598,85.92z"/>
<path d="M310.374,83.258c0-0.556,0.434-0.921,0.991-0.921c0.56,0,0.991,0.365,0.991,0.921c0,0.54-0.432,0.924-0.991,0.924
	C310.808,84.181,310.374,83.798,310.374,83.258z M310.635,85.92h1.428v8.453h-1.428V85.92z"/>
<path d="M319.699,89.018c0-1.078-0.364-2.123-1.741-2.123c-0.994,0-1.861,0.453-2.523,0.904l-0.57-0.992
	c0.779-0.504,1.964-1.095,3.317-1.095c2.072,0,2.942,1.375,2.942,3.479v5.184h-1.181l-0.122-1.009h-0.033
	c-0.817,0.662-1.76,1.217-2.801,1.217c-1.43,0-2.488-0.887-2.488-2.403C314.499,90.339,316.098,89.418,319.699,89.018z
	 M317.386,93.435c0.819,0,1.495-0.399,2.313-1.13v-2.348c-2.838,0.348-3.793,1.043-3.793,2.123
	C315.909,93.036,316.551,93.435,317.386,93.435z"/>
<path d="M323.824,81.989h1.426v10.785c0,0.453,0.189,0.627,0.4,0.627c0.087,0,0.159,0,0.312-0.036l0.191,1.078
	c-0.191,0.086-0.435,0.138-0.817,0.138c-1.076,0-1.512-0.678-1.512-1.912V81.989L323.824,81.989z"/>
<path d="M329.495,89.54c0-2.645-0.663-5.273-2.001-7.483l0.891-0.417c1.439,2.33,2.297,4.833,2.297,7.896
	c0,3.062-0.85,5.565-2.297,7.898l-0.891-0.417C328.833,94.81,329.495,92.183,329.495,89.54z"/>
</svg>
