<?xml version="1.0" encoding="utf-8"?>
<!-- Generator: Adobe Illustrator 15.1.0, SVG Export Plug-In . SVG Version: 6.00 Build 0)  -->
<!DOCTYPE svg PUBLIC "-//W3C//DTD SVG 1.1//EN" "http://www.w3.org/Graphics/SVG/1.1/DTD/svg11.dtd">
<svg version="1.1" id="Layer_1" xmlns="http://www.w3.org/2000/svg" xmlns:xlink="http://www.w3.org/1999/xlink" x="0px" y="0px"
	 width="409.634px" height="227.392px" viewBox="1.39 0.161 409.634 227.392" enable-background="new 1.39 0.161 409.634 227.392"
	 xml:space="preserve">
<metadata><?xpacket begin="﻿" id="W5M0MpCehiHzreSzNTczkc9d"?>
<x:xmpmeta xmlns:x="adobe:ns:meta/" x:xmptk="Adobe XMP Core 5.0-c060 61.134777, 2010/02/12-17:32:00        ">
   <rdf:RDF xmlns:rdf="http://www.w3.org/1999/02/22-rdf-syntax-ns#">
      <rdf:Description rdf:about=""
            xmlns:dc="http://purl.org/dc/elements/1.1/">
         <dc:format>image/svg+xml</dc:format>
         <dc:title>
            <rdf:Alt>
               <rdf:li xml:lang="x-default">Print</rdf:li>
            </rdf:Alt>
         </dc:title>
      </rdf:Description>
      <rdf:Description rdf:about=""
            xmlns:xmp="http://ns.adobe.com/xap/1.0/"
            xmlns:xmpGImg="http://ns.adobe.com/xap/1.0/g/img/">
         <xmp:MetadataDate>2015-02-25T17:20:10+02:00</xmp:MetadataDate>
         <xmp:ModifyDate>2015-02-25T17:20:10+02:00</xmp:ModifyDate>
         <xmp:CreateDate>2015-02-25T17:20:10+02:00</xmp:CreateDate>
         <xmp:CreatorTool>Adobe Illustrator CS5.1</xmp:CreatorTool>
         <xmp:Thumbnails>
            <rdf:Alt>
               <rdf:li rdf:parseType="Resource">
                  <xmpGImg:width>256</xmpGImg:width>
                  <xmpGImg:height>144</xmpGImg:height>
                  <xmpGImg:format>JPEG</xmpGImg:format>
                  <xmpGImg:image>/9j/4AAQSkZJRgABAgEAyQDJAAD/7QAsUGhvdG9zaG9wIDMuMAA4QklNA+0AAAAAABAAyQAAAAEA&#xA;AQDJAAAAAQAB/+4ADkFkb2JlAGTAAAAAAf/bAIQABgQEBAUEBgUFBgkGBQYJCwgGBggLDAoKCwoK&#xA;DBAMDAwMDAwQDA4PEA8ODBMTFBQTExwbGxscHx8fHx8fHx8fHwEHBwcNDA0YEBAYGhURFRofHx8f&#xA;Hx8fHx8fHx8fHx8fHx8fHx8fHx8fHx8fHx8fHx8fHx8fHx8fHx8fHx8fHx8f/8AAEQgAkAEAAwER&#xA;AAIRAQMRAf/EAaIAAAAHAQEBAQEAAAAAAAAAAAQFAwIGAQAHCAkKCwEAAgIDAQEBAQEAAAAAAAAA&#xA;AQACAwQFBgcICQoLEAACAQMDAgQCBgcDBAIGAnMBAgMRBAAFIRIxQVEGE2EicYEUMpGhBxWxQiPB&#xA;UtHhMxZi8CRygvElQzRTkqKyY3PCNUQnk6OzNhdUZHTD0uIIJoMJChgZhJRFRqS0VtNVKBry4/PE&#xA;1OT0ZXWFlaW1xdXl9WZ2hpamtsbW5vY3R1dnd4eXp7fH1+f3OEhYaHiImKi4yNjo+Ck5SVlpeYmZ&#xA;qbnJ2en5KjpKWmp6ipqqusra6voRAAICAQIDBQUEBQYECAMDbQEAAhEDBCESMUEFURNhIgZxgZEy&#xA;obHwFMHR4SNCFVJicvEzJDRDghaSUyWiY7LCB3PSNeJEgxdUkwgJChgZJjZFGidkdFU38qOzwygp&#xA;0+PzhJSktMTU5PRldYWVpbXF1eX1RlZmdoaWprbG1ub2R1dnd4eXp7fH1+f3OEhYaHiImKi4yNjo&#xA;+DlJWWl5iZmpucnZ6fkqOkpaanqKmqq6ytrq+v/aAAwDAQACEQMRAD8A6HoVkR+fWpSSwzQTJPJJ&#xA;FV71o3heyA5giCS1CyOalGlQ1UU5cVGKvZsVY7bfmD5SuTp3oXjumqzy2tjN9WuRE88EjRSRtKYw&#xA;kbCRGUByKkbVxVkWKuxV2KuxV2KuxV2KuxV2KuxV2KuxV2KuxV2KuxV2KuxV2KuxV2KuxV2KuxV2&#xA;KuxV2KuxV2KvCfJqvcfnQb24iYXXq3C3KLbz2ZW5+pKk0/CezeRreUxfApvioPEhemKvc50keCRI&#xA;pPSkZSElADFWIoGodjT3xVg+kflWNPv9CuJNevby10Fp5bfT5Y7YQSXFy0rSXMgSNSZf37ANXbel&#xA;KmqrMriFTNCeTjk5DBZHApwY9AadsVVPqsX80n/IyT/mrFXfVYv5pP8AkZJ/zVirvqsX80n/ACMk&#xA;/wCasVd9Vi/mk/5GSf8ANWKu+qxfzSf8jJP+asVd9Vi/mk/5GSf81Yq76rF/NJ/yMk/5qxV31WL+&#xA;aT/kZJ/zVirvqsX80n/IyT/mrFXfVYv5pP8AkZJ/zVirvqsX80n/ACMk/wCasVd9Vi/mk/5GSf8A&#xA;NWKu+qxfzSf8jJP+asVd9Vi/mk/5GSf81Yq76rF/NJ/yMk/5qxV31WL+aT/kZJ/zVirvqsX80n/I&#xA;yT/mrFXfVYv5pP8AkZJ/zVirvqsX80n/ACMk/wCasVd9Vi/mk/5GSf8ANWKu+qxfzSf8jJP+asVd&#xA;9Vi/mk/5GSf81Yq76rF/NJ/yMk/5qxV31WL+aT/kZJ/zVirvqsX80n/IyT/mrFXfVYv5pP8AkZJ/&#xA;zVirvqsX80n/ACMk/wCasVd9Vi/mk/5GSf8ANWKvItEutSH55ahprW+oQ6bHcSXsEaMrWLSyWXpz&#xA;3Ekot6n/AHSPQM/wtIGptir2LFXYqpT/AN7b/wDGQ/8AJtsVVcVdirsVdirsVdirsVdirsVdirsV&#xA;dirsVdirsVdirsVdirsVdirsVdirsVdirsVdirsVdiryXR5PJ0n51XsK6Gtlr8E0pj1CS/X1JybU&#xA;F5I7ORg3pssrV9CoLVZxyGyr1a6uI7a2luZA7Rwo0jrFG8shVBUhI4w7u22yqpJ6AYq8b8ta1+ad&#xA;9f8AlqKV9WEMsrz3st3YC2DxNf3HrJemS3hEXo2UcKxqgQu8nJeQU8VXr1y1x60HFEK+oaEuQf7t&#xA;u3E4qq8rv/fcf/Ixv+aMVdyu/wDfcf8AyMb/AJoxV3K7/wB9x/8AIxv+aMVdyu/99x/8jG/5oxV3&#xA;K7/33H/yMb/mjFXcrv8A33H/AMjG/wCaMVdyu/8Afcf/ACMb/mjFXcrv/fcf/Ixv+aMVdyu/99x/&#xA;8jG/5oxV3K7/AN9x/wDIxv8AmjFXcrv/AH3H/wAjG/5oxV3K7/33H/yMb/mjFXcrv/fcf/Ixv+aM&#xA;Vdyu/wDfcf8AyMb/AJoxV3K7/wB9x/8AIxv+aMVdyu/99x/8jG/5oxV3K7/33H/yMb/mjFWMeffz&#xA;At/JenW9/qFm9xFczegi27gsG4l6nmF2+HFWD/8AQzXlz/qz3n/BRf1wq7/oZry5/wBWe8/4KL+u&#xA;Ku/6Ga8uf9We8/4KL+uKvX+V3/vuP/kY3/NGBXcrv/fcf/Ixv+aMVdyu/wDfcf8AyMb/AJoxV3K7&#xA;/wB9x/8AIxv+aMVdyu/99x/8jG/5oxV3K7/33H/yMb/mjFXcrv8A33H/AMjG/wCaMVeK6DfQf9DD&#xA;anYre3FvKkzS/UWEoe4EtkwZnC3Xom2iMIKMbfkHZRy3xV7firsVUp/723/4yH/k22KquKuxV2Ku&#xA;xV2KuxV2KuxV2KuxV2KuxV2KuxV2KuxV2KvH/wDnJj/lFNL/AOY//mS+FXzlirsVdir7twK7FXYq&#xA;7FXYq7FXYq8f0O8162/O/ULBBcRaXeXNxNcW0JmNqQllFxuJGeOW35MxVSkcsbhqFlINSq9gxVj1&#xA;h560S+856j5QgEx1XS4Vnu2KD0QGSF+IYGteNyhFVAO/Eni1FU8n/vbf/jIf+TbYqq4q7FXYq7FX&#xA;Yq7FXYq7FXYq7FXYq7FXYq7FXYq7FXYq8f8A+cmP+UU0v/mP/wCZL4VfOWKuxV2Kvu3ArsVdirsV&#xA;dirsVdirwzQI7Qf85E6ohtdPM4mMsF2twFnUCzlE0aQST+qZC0yM4ji9P7TH4guKvc8VY7ovkLy7&#xA;o3mLUvMFlHINR1Tn9ZZ5GZB6knquEU9OT/FvWnQUG2Kpxc21u00DNEjMZDUlQSf3bYqq/U7T/fEf&#xA;/Ar/AExV31O0/wB8R/8AAr/TFXfU7T/fEf8AwK/0xV31O0/3xH/wK/0xV31O0/3xH/wK/wBMVd9T&#xA;tP8AfEf/AAK/0xV31O0/3xH/AMCv9MVd9TtP98R/8Cv9MVd9TtP98R/8Cv8ATFXfU7T/AHxH/wAC&#xA;v9MVd9TtP98R/wDAr/TFXfU7T/fEf/Ar/TFXyd+cE88X5ka3HFI0cayx8UUlQP3KdAMKsO+uXf8A&#xA;v+T/AIJv64q765d/7/k/4Jv64q9O/wCcepJLjz7Ik7GVPqMx4uSwrzj3ocVfSn1O0/3xH/wK/wBM&#xA;CvIf+clIII/KulmONUJvqEqAP90v4YVfOuKuxV2Kvuj6naf74j/4Ff6YFd9TtP8AfEf/AAK/0xV3&#xA;1O0/3xH/AMCv9MVd9TtP98R/8Cv9MVd9TtP98R/8Cv8ATFXfU7T/AHxH/wACv9MVd9TtP98R/wDA&#xA;r/TFXl/lvQNdHnqwvtR0K6i1CCS7k1nVXuB+jJGeJoobmzt4rjgJZE4o3KDkFryPL4mVeq4q7FVK&#xA;f+9t/wDjIf8Ak22KquKuxV2KuxV2KuxV2KuxV2KuxV2KuxV8jfnL/wCTM13/AIyx/wDJlMKsLxV2&#xA;KvUv+cc//JgSf8wE3/E48VfTeBXj/wDzkx/yiml/8x//ADJfCr5yxV2KuxV924FdiqR+ebPU73yb&#xA;rdrpUTTarNZTrp8SS+gTc8D6P7zlHxpJQ15Yq81sNA/Ouy1l9Ksbu7tPL6zJbJeM2nTBbYXULG5g&#xA;M/1i5aVraOb1PWH25BxWiDFUk8u6t+fOvpcSadqNwbIX0VvLd+hpzemyRyO7wLL9X52oZ4VcMxlq&#xA;rDZi4CrOLHy/+aUnk8wR6xPZ62+o3dxeLqDW0jy20kzGO3t7qBLlbaLgRxb0WddwFT4eKqL0rR/O&#xA;p/NvVtU1BJD5bEHp6XKbhhEq+jbBUjgjuOLM0v1kyerbCnwFXPQKsB/LOO7tfzVkgkjnskMuo/6O&#xA;vqG6ZebFf0oWS3jZOrQuqyfsj1DU1Ve+Yq8/8p6Z56X8yvMmo64sp0VwY9Ika4b0RETH6aRW6TtG&#xA;fhQs7vAjhiQGYE4qyDVZPOgv0Fhb6a9oJP3DTzzrIf3bV5qkTKO/Q4qt9b8xP+WTSP8ApJuf+qGK&#xA;u9b8xP8Alk0j/pJuf+qGKu9b8xP+WTSP+km5/wCqGKu9b8xP+WTSP+km5/6oYq71vzE/5ZNI/wCk&#xA;m5/6oYq71vzE/wCWTSP+km5/6oYq71vzE/5ZNI/6Sbn/AKoYq71vzE/5ZNI/6Sbn/qhirvW/MT/l&#xA;k0j/AKSbn/qhirvW/MT/AJZNI/6Sbn/qhirvW/MT/lk0j/pJuf8AqhirvW/MT/lk0j/pJuf+qGKv&#xA;mD81jfn8wdZN+sSXnqJ6ywMzxg+klOLOqMdvEYVYnirsVejfkQ2rr53c6THbyXX1KWq3TvHHw5pX&#xA;eNZDXp2xV9C+t+Yn/LJpH/STc/8AVDAryz/nIJ/NLeWtOGrw2MUH1392bSWaR+fpP1EkcYpT3wq8&#xA;HxV2KuxV9l+t+Yn/ACyaR/0k3P8A1QwK71vzE/5ZNI/6Sbn/AKoYq71vzE/5ZNI/6Sbn/qhirvW/&#xA;MT/lk0j/AKSbn/qhirvW/MT/AJZNI/6Sbn/qhirvW/MT/lk0j/pJuf8AqhirB/zPvP8AnIuNNJHk&#xA;uy0ws9wRqDRSCUhPh4B/rawhYj8XMpVulKd1UV5e03ybb+fY7K01nVbTWtMu7tn0XUby5lhu1mhd&#xA;/UtopnaLgiTVUxDbjRhXfFXqGKuxVSn/AL23/wCMh/5NtiqrirsVdirsVdirsVdirsVdirsVdirs&#xA;VfI35y/+TM13/jLH/wAmUwqwvFXYq9S/5xz/APJgSf8AMBN/xOPFX03gV4//AM5Mf8oppf8AzH/8&#xA;yXwq+csVdirsVfduBXYq7FXYq7FXYq7FXhOn6tYaT/zkFqIv76XS7XUrkRQ21xcIq3F1FaMIywkS&#xA;KsLrct6YV5P3gUfDQLir3bFWK6T+Ymi6v551Tyjpwa4n0e3E1/eqV9FZjIENuN6s6V+IjYH4ftAg&#xA;Ksgubm3WaBWlRWEhqCwBH7tsVVfrlp/v+P8A4Jf64qpyalp0dPUuoUr05SKK/ecVW/pjSP8Alut/&#xA;+Rqf1xV36Y0j/lut/wDkan9cVcNX0kkAXsBJ2AEqf1xVW+uWn+/4/wDgl/rirvrlp/v+P/gl/rir&#xA;vrlp/v8Aj/4Jf64q765af7/j/wCCX+uKu+uWn+/4/wDgl/rirvrlp/v+P/gl/rirvrlp/v8Aj/4J&#xA;f64q+SvzidX/ADK1xlIZTLHQg1H9ymFWGYq7FXqH/OO0kcfn+RnYIv1GYVYgD7cfjir6Y+uWn+/4&#xA;/wDgl/rgV5D/AM5KTwSeVdLEciuRfVIUg/7pfwwq+dcVdirsVfdH1y0/3/H/AMEv9cCu+uWn+/4/&#xA;+CX+uKu+uWn+/wCP/gl/rirvrlp/v+P/AIJf64q765af7/j/AOCX+uKu+uWn+/4/+CX+uKu+uWn+&#xA;/wCP/gl/riryXy75y8yah+bl7pM160+gTTt6On3lpNBPALWCQsFR7ZF4NKyMJTMa8RQfGMVev4ql&#xA;1n5d0Oz1a71e0sYYNSvkSK7ukUK8iRu7qGp/lSsSe/ftiqMn/vbf/jIf+TbYqq4q8B/5ye/3v8v/&#xA;APGK5/4lHhV4hirsVTbyj/ylei/8x9t/yeXFX2vgV2KuxV2KuxV2KuxV8jfnL/5MzXf+Msf/ACZT&#xA;CrC8Vdir1L/nHP8A8mBJ/wAwE3/E48VfTeBXj/8Azkx/yiml/wDMf/zJfCr5yxV2KuxV924Fdirs&#xA;VdirsVdirsVeTaJ5c1K3/OW/1KdL61t5bqeWErazyW10klmiDneRzCBEQqeMctvyDjZzyxV6ziqh&#xA;Ff2Mt1NZxXMUl3bhTPbq6mSMP9kugPJa9q4qun/vbf8A4yH/AJNtiqrirwH/AJye/wB7/L//ABiu&#xA;f+JR4VeIYq7FU28o/wDKV6L/AMx9t/yeXFX2vgV2KuxV2KuxV2KuxV8jfnL/AOTM13/jLH/yZTCr&#xA;C8Vdir1L/nHP/wAmBJ/zATf8TjxV9N4FeP8A/OTH/KKaX/zH/wDMl8KvnLFXYq7FX3bgV2KuxV2K&#xA;uxV2KuxV45oeqyx/ntqVj9euZbe4nmURTXE6ossdlG5gS1F7MhRV/eJI9pEDU8Wagqq9jxVieheV&#xA;dUg866x5l1U2ryXUYtdNFqGQx2oYMRKpUc5X4LzkLH7KqoUDdVkVytx60HF0C+oaAoSf7tu/IYqq&#xA;8bv/AH5H/wAi2/5rxV4J/wA5NCUX2geoyt+6uacVK/tR+JbCrxLFXYqm3lKv+KtGpsfr1tQnf/dy&#xA;4q+0uN3/AL8j/wCRbf8ANeBUq806tf6L5c1LV4/Smext5J1iZGAYotaEh8VeI/8AQzXmP/qz2f8A&#xA;wUv9cKu/6Ga8x/8AVns/+Cl/rirv+hmvMf8A1Z7P/gpf64q9e/LvzVqXmvyrba3PHDayTvKphRWZ&#xA;R6chTqWHWmBWS8bv/fkf/Itv+a8VfJX5xBh+ZWuciC3qx1IFB/cp2qcKsMxV2KvUP+cdhIfP8nBg&#xA;rfUZt2BYfbj7Arir6Y43f+/I/wDkW3/NeBXkP/OSgnHlXS/UdWH17YKpX/dL+LNhV864q7FXYq+6&#xA;ON3/AL8j/wCRbf8ANeBXcbv/AH5H/wAi2/5rxV3G7/35H/yLb/mvFXcbv/fkf/Itv+a8Vdxu/wDf&#xA;kf8AyLb/AJrxV3G7/wB+R/8AItv+a8Vdxu/9+R/8i2/5rxV4t5OtJ9P/ADYEDahZKIbm50xbNLrU&#xA;XuGggsllhi+qXPrRxKq0f1PVAfsCTXFXt2KuxVSn/vbf/jIf+TbYqq4q8B/5ye/3v8v/APGK5/4l&#xA;HhV4hirsVTbyj/ylei/8x9t/yeXFX2vgVjX5l/8Akv8AzD/zAT/8QOKvjfCrsVdir6r/ACE/8lnp&#xA;/wDxluf+TzYFehYq+Rvzl/8AJma7/wAZY/8AkymFWF4q7FXqX/OOf/kwJP8AmAm/4nHir6bwK8f/&#xA;AOcmP+UU0v8A5j/+ZL4VfOWKuxV2Kvu3ArsVdirsVdirsVdirwzyJN5gu/zr1G71dZbC9kRRc6fI&#xA;q3fpelbMDBFcxyyJFA7yCVT6cZbinIcq4q9zxVgflfz5q+tfmHrWhena/onTVnUrGr/W4JYJY4Yz&#xA;cMXKUuazPGvBTxStWrsqzO4uLdZoVaVAVkPIFgCPgbriqp9ctP8Af8f/AAS/1xV4V/zklbz3t9oR&#xA;s42uQkVwHMKmTjVo6V41phV4x+htX/5Ybj/kU/8ATFXfobV/+WG4/wCRT/0xVNfKmlapH5o0eSSz&#xA;nREvrZndo3AAEykkkjFX2P8AXLT/AH/H/wAEv9cCsc/MWaGbyJr0ULrJK9jOqRoQzMShoABucVfI&#xA;36G1f/lhuP8AkU/9MKu/Q2r/APLDcf8AIp/6Yq79Dav/AMsNx/yKf+mKvp78jSLX8ubCG6PoTLLc&#xA;Fo5fgYVmYioahwKz765af7/j/wCCX+uKvlP83dO1C4/MbW5re1lmheWMpJGjMp/coNiAQcKsP/Q2&#xA;r/8ALDcf8in/AKYq79Dav/yw3H/Ip/6Yq9M/5x9s7yz89yS3cElvF9RmX1JUZFqXj2qwAxV9IfXL&#xA;T/f8f/BL/XAryX/nI1HvfK+mR2am5db7kyQj1CB6LipC1wq+ff0Nq/8Ayw3H/Ip/6Yq79Dav/wAs&#xA;Nx/yKf8Apirv0Nq//LDcf8in/pir7c+uWn+/4/8Agl/rgV31y0/3/H/wS/1xV31y0/3/AB/8Ev8A&#xA;XFXfXLT/AH/H/wAEv9cVd9ctP9/x/wDBL/XFXfXLT/f8f/BL/XFXfXLT/f8AH/wS/wBcVeb+Xvy9&#xA;80af+Yj+ZL8afLBdSzTXMlqVQiSSD0g6Q3FrPMnIIob07xRWpKtU4q9NxVoIgLMFAZt2IG5IFN8V&#xA;bxV2KoPWNY03RtNm1LUpvQsoOPqy8WenNgigKgZiSzAbDFUC3nbyYpcNr+nKY5fq8gN3AOMxNPSb&#xA;49nrtx64qrXfmryvZxNLd6xY28SFVeSW5hRQXd41BLMAOTxOo91I7HFXReafLE0s0UOr2Ukts3C4&#xA;jS4iZo25iPi4DVU+o6rv3IHXFU0xVDalqVhpmn3Oo6hOttY2kbTXNxIaKkaDkzH5DFUufzn5ZTRf&#xA;0298q6ZyRfXKSA1kmFun7vj6nxTHhXj1xVNDfWQYKbiMMRUDmtaU5V6+G+Kua9s15cp4xxALVdRQ&#xA;EVBO/hviq+OaGT+7kV9g3wkHZhVTt49sVX4qsmnggjMs8ixRigLuQqgk0G58SaYq6KeCUuIpFkMb&#xA;FJOJB4uNyrU6Hfpiq27vLSzgM93PHbwBlUyysqIGkYIg5MQKszBR4k4qq4q7FXYqskuII5I4pJFS&#xA;SYlYUZgGcqCxCg9aKCdsVWXl5Z2NpNeXs8draW6NLcXMzrHHHGgqzu7EKqqNyTirrS8s7yEzWk8d&#xA;xCHkiMkTq6+pC5ikSqkjkkiMrDsQQd8VVsVdirsVdirsVdirsVdirsVdirsVdiqQea/KQ8x/Uobj&#xA;Urm2062niuLmwtxEEuXt5o7iH1HZGlUJJCD8DCoqDirCtP8A+cevLNtbR28+pXl4sUS26GZbYUiR&#xA;LWJFokSCqxWjLypU+o5Jqa4qpSf846eX5EZZdb1GRnV4XZxatW1kV0a3AMOwIler/b+Nvi+LFU3t&#xA;vyntYfM2h3pZH03QxfXNWqbi7vdQulu2e4AVI+EMsayJ1PMA7cd1XoWKpN5w8tQ+ZvLtzoc8zQW9&#xA;40IuHQEloo5kkkjFCpHqIhSoO1a4q891T8gLW61nUNSttTjH1yS2aOK+tZL6kVs1u/1a4aS5X6xC&#xA;Xso2AYBhvVmriqjN/wA46WQ0pLOy1o291Vo5tQa0jkma0OlfolYFPNOHCEuykbAsaL0IVV7D8hdO&#xA;sdYfWbueLWWhuWvItPa0jhNwUN9JFHcys7iV/V1BfjKgfukHEAYqyr8rfIx8oeWI7O5KPqk5V72S&#xA;MllURoIoLeNiFJjt4ESNdhWhag5HFWYYqxP8zvJt95x8rPoNreLYrcTRST3BBYqICZYiijqVnSNq&#xA;EjYYq86t/wAkfPtgw+oa/GzGa5vWne4u4mN5LcXUwkdIh6chnElqJWYfD6R4r8WKplefkxrU/wBY&#xA;0971brSJJLJ4pLm+v2uBFaLDNJAwqV/e30BnMobn8VNqDFXpvljS7nSfLWk6VdXDXd1p9nb2s925&#xA;LNLJDEsbSMzbkuVrU4qmWKuxV5T+av5f+c9b1J/Muk3qG90S3kj8t6am372eCRJ5nZh8MrO6BeJo&#xA;FTruRiqE078nfNywNHfa4eNI/q8CXd7KkJluYhenlIQZWe0hPBnH95I/2Rvir0TyNoV7oPlTTtKv&#xA;pI5r+3RjeTQ19OSeV2lldeQB+J3J3GKp7irsVdirsVdirsVdir//2Q==</xmpGImg:image>
               </rdf:li>
            </rdf:Alt>
         </xmp:Thumbnails>
      </rdf:Description>
      <rdf:Description rdf:about=""
            xmlns:xmpMM="http://ns.adobe.com/xap/1.0/mm/"
            xmlns:stRef="http://ns.adobe.com/xap/1.0/sType/ResourceRef#"
            xmlns:stEvt="http://ns.adobe.com/xap/1.0/sType/ResourceEvent#">
         <xmpMM:InstanceID>xmp.iid:E2A7E0F00D206811871FC35430C36F00</xmpMM:InstanceID>
         <xmpMM:DocumentID>xmp.did:E2A7E0F00D206811871FC35430C36F00</xmpMM:DocumentID>
         <xmpMM:OriginalDocumentID>uuid:5D20892493BFDB11914A8590D31508C8</xmpMM:OriginalDocumentID>
         <xmpMM:RenditionClass>proof:pdf</xmpMM:RenditionClass>
         <xmpMM:DerivedFrom rdf:parseType="Resource">
            <stRef:instanceID>xmp.iid:E1A7E0F00D206811871FC35430C36F00</stRef:instanceID>
            <stRef:documentID>xmp.did:E1A7E0F00D206811871FC35430C36F00</stRef:documentID>
            <stRef:originalDocumentID>uuid:5D20892493BFDB11914A8590D31508C8</stRef:originalDocumentID>
            <stRef:renditionClass>proof:pdf</stRef:renditionClass>
         </xmpMM:DerivedFrom>
         <xmpMM:History>
            <rdf:Seq>
               <rdf:li rdf:parseType="Resource">
                  <stEvt:action>saved</stEvt:action>
                  <stEvt:instanceID>xmp.iid:E1A7E0F00D206811871FC35430C36F00</stEvt:instanceID>
                  <stEvt:when>2015-02-25T17:19:45+02:00</stEvt:when>
                  <stEvt:softwareAgent>Adobe Illustrator CS5.1</stEvt:softwareAgent>
                  <stEvt:changed>/</stEvt:changed>
               </rdf:li>
               <rdf:li rdf:parseType="Resource">
                  <stEvt:action>saved</stEvt:action>
                  <stEvt:instanceID>xmp.iid:E2A7E0F00D206811871FC35430C36F00</stEvt:instanceID>
                  <stEvt:when>2015-02-25T17:20:10+02:00</stEvt:when>
                  <stEvt:softwareAgent>Adobe Illustrator CS5.1</stEvt:softwareAgent>
                  <stEvt:changed>/</stEvt:changed>
               </rdf:li>
            </rdf:Seq>
         </xmpMM:History>
      </rdf:Description>
      <rdf:Description rdf:about=""
            xmlns:illustrator="http://ns.adobe.com/illustrator/1.0/">
         <illustrator:StartupProfile>Print</illustrator:StartupProfile>
      </rdf:Description>
      <rdf:Description rdf:about=""
            xmlns:xmpTPg="http://ns.adobe.com/xap/1.0/t/pg/"
            xmlns:stDim="http://ns.adobe.com/xap/1.0/sType/Dimensions#"
            xmlns:xmpG="http://ns.adobe.com/xap/1.0/g/">
         <xmpTPg:HasVisibleOverprint>False</xmpTPg:HasVisibleOverprint>
         <xmpTPg:HasVisibleTransparency>False</xmpTPg:HasVisibleTransparency>
         <xmpTPg:NPages>1</xmpTPg:NPages>
         <xmpTPg:MaxPageSize rdf:parseType="Resource">
            <stDim:w>144.509698</stDim:w>
            <stDim:h>80.218876</stDim:h>
            <stDim:unit>Millimeters</stDim:unit>
         </xmpTPg:MaxPageSize>
         <xmpTPg:PlateNames>
            <rdf:Seq>
               <rdf:li>Cyan</rdf:li>
               <rdf:li>Magenta</rdf:li>
               <rdf:li>Yellow</rdf:li>
               <rdf:li>Black</rdf:li>
            </rdf:Seq>
         </xmpTPg:PlateNames>
         <xmpTPg:SwatchGroups>
            <rdf:Seq>
               <rdf:li rdf:parseType="Resource">
                  <xmpG:groupName>Default Swatch Group</xmpG:groupName>
                  <xmpG:groupType>0</xmpG:groupType>
               </rdf:li>
            </rdf:Seq>
         </xmpTPg:SwatchGroups>
      </rdf:Description>
      <rdf:Description rdf:about=""
            xmlns:pdf="http://ns.adobe.com/pdf/1.3/">
         <pdf:Producer>Adobe PDF library 9.90</pdf:Producer>
      </rdf:Description>
   </rdf:RDF>
</x:xmpmeta>
                                                                                                    
                                                                                                    
                                                                                                    
                                                                                                    
                                                                                                    
                                                                                                    
                                                                                                    
                                                                                                    
                                                                                                    
                                                                                                    
                                                                                                    
                                                                                                    
                                                                                                    
                                                                                                    
                                                                                                    
                                                                                                    
                                                                                                    
                                                                                                    
                                                                                                    
                                                                                                    
                           
<?xpacket end="w"?>
	</metadata>
<g>
	<path fill="none" stroke="#77787B" stroke-width="0.565" stroke-miterlimit="10" d="M42.709,14.668h368.314 M42.709,46.196h368.314
		 M42.709,77.726h368.314 M42.709,109.255h368.314 M42.709,140.785h368.314 M42.709,172.312h368.314 M42.709,203.841h368.314
		 M48.209,203.841V14.668"/>
	<rect x="71.761" y="140.845" fill="#4D4D4F" width="43.472" height="63.033"/>
	<rect x="140.485" y="172.397" fill="#4D4D4F" width="43.473" height="31.479"/>
	<g>
		<path d="M31.304,205.22c-0.646,0-1.157-0.247-1.534-0.739c-0.377-0.491-0.564-1.165-0.564-2.019c0-0.812,0.095-1.549,0.286-2.217
			c0.189-0.666,0.442-1.238,0.757-1.72c0.313-0.479,0.675-0.851,1.081-1.11c0.404-0.262,0.822-0.392,1.254-0.392
			c0.313,0,0.6,0.063,0.856,0.192c0.256,0.127,0.475,0.312,0.652,0.553c0.178,0.24,0.316,0.531,0.416,0.875
			c0.099,0.344,0.149,0.73,0.149,1.161c0,0.812-0.094,1.548-0.279,2.21c-0.188,0.662-0.436,1.23-0.745,1.707
			c-0.312,0.477-0.668,0.845-1.074,1.105C32.153,205.087,31.734,205.22,31.304,205.22z M32.496,198.055
			c-0.273,0-0.532,0.129-0.776,0.385c-0.245,0.257-0.462,0.595-0.652,1.013s-0.342,0.897-0.454,1.439
			c-0.11,0.543-0.167,1.1-0.167,1.671c0,0.521,0.077,0.921,0.23,1.198s0.387,0.416,0.701,0.416c0.272,0,0.532-0.127,0.775-0.379
			c0.244-0.254,0.462-0.586,0.652-1c0.191-0.414,0.341-0.891,0.453-1.428c0.112-0.539,0.167-1.094,0.167-1.664
			c0-0.521-0.077-0.928-0.229-1.217C33.044,198.199,32.81,198.055,32.496,198.055z"/>
	</g>
	<g>
		<path d="M28.708,172.947c0.712-0.597,1.347-1.13,1.905-1.604c0.56-0.471,1.029-0.903,1.41-1.297
			c0.38-0.394,0.67-0.766,0.869-1.117s0.298-0.709,0.298-1.073c0-0.323-0.093-0.59-0.278-0.802
			c-0.187-0.211-0.467-0.316-0.838-0.316c-0.24,0-0.48,0.062-0.721,0.188c-0.24,0.123-0.483,0.298-0.732,0.521l-0.658-0.795
			c0.373-0.313,0.745-0.558,1.118-0.728c0.373-0.168,0.757-0.254,1.154-0.254c0.713,0,1.268,0.188,1.664,0.564
			c0.397,0.377,0.597,0.867,0.597,1.473c0,0.414-0.081,0.805-0.242,1.174c-0.161,0.367-0.397,0.74-0.708,1.117
			c-0.312,0.377-0.693,0.773-1.148,1.191c-0.456,0.418-0.973,0.883-1.552,1.396h3.03l-0.211,1.129H28.56L28.708,172.947z"/>
	</g>
	<g>
		<path d="M31.713,143.471l0.41-2.05h-3.315l0.174-0.918l3.986-4.93h1.552l-0.968,4.805h0.968l-0.199,1.043h-0.968l-0.41,2.05
			H31.713z M32.322,140.378l0.386-1.875c0.05-0.264,0.109-0.537,0.18-0.818s0.139-0.562,0.205-0.846h-0.05
			c-0.157,0.24-0.312,0.478-0.466,0.709c-0.154,0.23-0.309,0.451-0.466,0.658l-1.763,2.172H32.322z"/>
	</g>
	<line fill="none" stroke="#000000" stroke-width="1.13" x1="42.71" y1="109.254" x2="407.918" y2="109.254"/>
	<g>
		<path d="M407.918,112.358c1.715,0,3.104-1.39,3.104-3.104c0-1.713-1.391-3.104-3.104-3.104c-1.715,0-3.104,1.39-3.104,3.104
			C404.815,110.969,406.203,112.358,407.918,112.358"/>
	</g>
	<g>
		<path d="M34.147,105.832c-0.132-0.207-0.284-0.37-0.453-0.49c-0.17-0.12-0.375-0.181-0.614-0.181
			c-0.273,0-0.534,0.066-0.782,0.199c-0.248,0.132-0.477,0.322-0.684,0.571c-0.206,0.248-0.389,0.555-0.546,0.918
			c-0.157,0.365-0.277,0.778-0.359,1.242c0.256-0.273,0.542-0.479,0.856-0.614c0.314-0.137,0.593-0.205,0.832-0.205
			c0.571,0,1.037,0.174,1.396,0.521c0.359,0.348,0.541,0.86,0.541,1.539c0,0.39-0.066,0.76-0.199,1.111
			c-0.133,0.353-0.319,0.665-0.559,0.938c-0.24,0.273-0.523,0.491-0.851,0.652c-0.327,0.161-0.681,0.242-1.062,0.242
			c-0.356,0-0.678-0.066-0.962-0.199c-0.285-0.132-0.53-0.32-0.732-0.564c-0.202-0.244-0.358-0.534-0.465-0.869
			c-0.108-0.335-0.162-0.706-0.162-1.111c0-0.803,0.095-1.54,0.286-2.21c0.189-0.671,0.455-1.246,0.794-1.728
			c0.339-0.479,0.743-0.853,1.211-1.117c0.467-0.265,0.979-0.397,1.533-0.397c0.231,0,0.442,0.031,0.633,0.093
			s0.36,0.144,0.509,0.242c0.149,0.1,0.281,0.211,0.397,0.336c0.115,0.124,0.215,0.248,0.298,0.372L34.147,105.832z M31.738,111.271
			c0.207,0,0.394-0.054,0.56-0.161s0.309-0.246,0.429-0.416c0.12-0.17,0.213-0.36,0.279-0.571c0.065-0.211,0.099-0.424,0.099-0.64
			c0-0.397-0.087-0.708-0.261-0.932c-0.174-0.224-0.435-0.335-0.782-0.335c-0.182,0-0.402,0.061-0.664,0.18
			c-0.261,0.12-0.527,0.351-0.801,0.689c-0.008,0.091-0.012,0.183-0.012,0.273c0,0.09,0,0.182,0,0.273
			c0,0.505,0.104,0.904,0.315,1.198C31.111,111.124,31.391,111.271,31.738,111.271z"/>
	</g>
	<g>
		<path d="M29.155,78.862c0-0.281,0.049-0.542,0.144-0.782c0.095-0.24,0.224-0.455,0.385-0.646c0.162-0.19,0.351-0.358,0.565-0.503
			s0.442-0.267,0.683-0.366v-0.05c-0.231-0.231-0.406-0.474-0.521-0.727c-0.116-0.252-0.175-0.536-0.175-0.851
			c0-0.348,0.066-0.658,0.199-0.931c0.132-0.273,0.311-0.505,0.534-0.695s0.482-0.336,0.776-0.435
			c0.293-0.1,0.605-0.149,0.938-0.149c0.256,0,0.507,0.037,0.751,0.111c0.244,0.075,0.461,0.187,0.652,0.336
			c0.189,0.148,0.346,0.339,0.466,0.571c0.12,0.231,0.18,0.505,0.18,0.819c0,0.513-0.134,0.945-0.402,1.298
			c-0.27,0.352-0.623,0.647-1.062,0.888v0.049c0.256,0.174,0.49,0.412,0.702,0.715c0.211,0.302,0.316,0.66,0.316,1.073
			c0,0.365-0.075,0.689-0.225,0.976c-0.148,0.285-0.35,0.529-0.602,0.732s-0.544,0.357-0.875,0.466
			c-0.331,0.107-0.68,0.161-1.043,0.161c-0.282,0-0.565-0.042-0.852-0.124c-0.286-0.083-0.542-0.207-0.77-0.373
			c-0.229-0.165-0.412-0.379-0.552-0.64C29.226,79.526,29.155,79.219,29.155,78.862z M31.502,76.975
			c-0.332,0.207-0.604,0.449-0.82,0.727c-0.216,0.278-0.323,0.615-0.323,1.013c0,0.381,0.118,0.687,0.354,0.918
			c0.236,0.232,0.54,0.348,0.913,0.348c0.182,0,0.359-0.028,0.534-0.087c0.174-0.058,0.326-0.145,0.459-0.261
			c0.132-0.115,0.237-0.256,0.316-0.422c0.079-0.165,0.118-0.36,0.118-0.583c0-0.19-0.039-0.362-0.118-0.516
			c-0.079-0.154-0.188-0.294-0.329-0.422c-0.141-0.129-0.306-0.249-0.497-0.36C31.92,77.217,31.717,77.1,31.502,76.975z
			 M32.62,76.366c0.249-0.182,0.47-0.403,0.665-0.664c0.193-0.261,0.292-0.577,0.292-0.949c0-0.323-0.09-0.582-0.268-0.776
			s-0.42-0.292-0.727-0.292c-0.314,0-0.588,0.104-0.819,0.311s-0.348,0.501-0.348,0.882c0,0.364,0.104,0.653,0.315,0.869
			C31.943,75.961,32.239,76.168,32.62,76.366z"/>
	</g>
	<g>
		<path d="M25.977,48.341h1.676l1.081-5.339h-1.428l0.174-0.845c0.397-0.066,0.743-0.149,1.037-0.248
			c0.293-0.1,0.573-0.228,0.838-0.385h1.006l-1.378,6.816h1.527l-0.211,1.08h-4.545L25.977,48.341z"/>
		<path d="M34.209,49.57c-0.646,0-1.157-0.246-1.534-0.739c-0.376-0.492-0.565-1.165-0.565-2.018c0-0.812,0.096-1.55,0.286-2.216
			c0.19-0.667,0.443-1.24,0.757-1.72c0.314-0.48,0.676-0.851,1.081-1.111c0.405-0.261,0.823-0.392,1.254-0.392
			c0.314,0,0.601,0.064,0.857,0.192c0.256,0.129,0.474,0.312,0.652,0.553c0.178,0.24,0.315,0.532,0.416,0.875
			c0.099,0.344,0.148,0.73,0.148,1.161c0,0.812-0.093,1.548-0.278,2.21c-0.188,0.663-0.436,1.231-0.745,1.708
			c-0.312,0.476-0.668,0.844-1.074,1.104C35.058,49.437,34.639,49.57,34.209,49.57z M35.401,42.405
			c-0.272,0-0.531,0.129-0.775,0.386c-0.245,0.256-0.462,0.594-0.652,1.012c-0.19,0.418-0.342,0.898-0.454,1.44
			c-0.11,0.542-0.167,1.099-0.167,1.67c0,0.521,0.077,0.921,0.23,1.198c0.152,0.277,0.387,0.416,0.701,0.416
			c0.272,0,0.531-0.126,0.775-0.379c0.244-0.252,0.461-0.586,0.652-1c0.189-0.413,0.341-0.89,0.453-1.428
			c0.111-0.538,0.167-1.093,0.167-1.664c0-0.521-0.077-0.927-0.229-1.217C35.949,42.551,35.715,42.405,35.401,42.405z"/>
	</g>
	<g>
		<path d="M25.977,16.989h1.676l1.081-5.339h-1.428l0.174-0.845c0.397-0.066,0.743-0.149,1.037-0.248
			c0.293-0.1,0.573-0.228,0.838-0.385h1.006l-1.378,6.816h1.527l-0.211,1.08h-4.545L25.977,16.989z"/>
		<path d="M31.614,17.3c0.713-0.596,1.348-1.13,1.906-1.602c0.56-0.472,1.029-0.904,1.41-1.298c0.38-0.394,0.67-0.766,0.869-1.117
			c0.199-0.353,0.298-0.71,0.298-1.074c0-0.323-0.093-0.59-0.279-0.801c-0.186-0.211-0.466-0.317-0.838-0.317
			c-0.239,0-0.479,0.062-0.72,0.187c-0.24,0.124-0.484,0.298-0.733,0.521l-0.657-0.795c0.373-0.314,0.744-0.557,1.117-0.726
			c0.373-0.17,0.758-0.255,1.155-0.255c0.712,0,1.268,0.188,1.664,0.565c0.397,0.376,0.596,0.867,0.596,1.471
			c0,0.414-0.081,0.806-0.241,1.174c-0.161,0.368-0.397,0.741-0.708,1.117c-0.312,0.377-0.693,0.774-1.148,1.192
			c-0.456,0.418-0.973,0.884-1.552,1.396h3.03l-0.212,1.13h-5.103L31.614,17.3z"/>
	</g>
	<g>
		<path d="M76.135,221.376c-0.145,0.311-0.327,0.58-0.546,0.808s-0.482,0.407-0.789,0.54c-0.306,0.133-0.654,0.199-1.043,0.199
			c-0.48,0-0.906-0.11-1.279-0.33c-0.373-0.219-0.663-0.522-0.869-0.912l0.845-0.782c0.115,0.257,0.283,0.466,0.503,0.627
			c0.219,0.161,0.485,0.242,0.801,0.242c0.373,0,0.672-0.14,0.9-0.416c0.228-0.276,0.395-0.677,0.503-1.198l1.093-5.501h1.341
			l-1.143,5.712C76.386,220.729,76.28,221.066,76.135,221.376z"/>
		<path d="M77.992,220.701c0-0.58,0.091-1.125,0.272-1.634c0.182-0.51,0.426-0.952,0.733-1.329c0.306-0.377,0.655-0.672,1.049-0.888
			c0.393-0.216,0.801-0.323,1.223-0.323c0.298,0,0.571,0.077,0.819,0.23c0.248,0.152,0.443,0.361,0.583,0.627h0.024l0.262-0.709
			h1.067l-1.217,6.098h-1.093l0.062-0.845h-0.036c-0.29,0.299-0.611,0.538-0.963,0.721s-0.701,0.272-1.049,0.272
			c-0.538,0-0.962-0.189-1.271-0.57C78.147,221.971,77.992,221.419,77.992,220.701z M80.276,221.83c0.266,0,0.536-0.078,0.813-0.236
			c0.277-0.156,0.54-0.422,0.789-0.795l0.497-2.434c-0.142-0.265-0.3-0.455-0.479-0.57c-0.178-0.115-0.361-0.174-0.553-0.174
			c-0.257,0-0.505,0.076-0.745,0.229c-0.24,0.151-0.451,0.36-0.633,0.627c-0.182,0.265-0.327,0.573-0.436,0.925
			c-0.107,0.352-0.16,0.723-0.16,1.111c0,0.447,0.081,0.777,0.241,0.992C79.773,221.723,79.995,221.83,80.276,221.83z"/>
		<path d="M85.839,216.677h1.08l-0.062,0.855h0.051c0.322-0.271,0.655-0.509,1-0.707c0.343-0.199,0.709-0.299,1.099-0.299
			c0.513,0,0.882,0.133,1.104,0.396c0.225,0.267,0.335,0.646,0.335,1.144c0,0.142-0.006,0.276-0.019,0.41
			c-0.013,0.132-0.04,0.28-0.081,0.446l-0.77,3.85h-1.329l0.745-3.676c0.024-0.141,0.047-0.262,0.067-0.359
			c0.021-0.1,0.031-0.193,0.031-0.285c0-0.521-0.257-0.783-0.771-0.783c-0.216,0-0.444,0.074-0.688,0.225s-0.528,0.391-0.851,0.721
			l-0.819,4.159h-1.341L85.839,216.677z"/>
		<path d="M96.132,222.773h-1.08l0.05-0.869h-0.05c-0.306,0.273-0.629,0.512-0.969,0.715c-0.34,0.202-0.695,0.305-1.068,0.305
			c-0.513,0-0.883-0.135-1.111-0.404c-0.228-0.27-0.342-0.646-0.342-1.137c0-0.141,0.008-0.278,0.025-0.416
			c0.017-0.137,0.042-0.282,0.075-0.439l0.77-3.85h1.329l-0.732,3.676c-0.032,0.141-0.058,0.261-0.074,0.359
			c-0.018,0.1-0.025,0.195-0.025,0.285c0,0.521,0.252,0.782,0.758,0.782c0.405,0,0.906-0.313,1.502-0.944l0.819-4.158h1.329
			L96.132,222.773z"/>
		<path d="M97.97,220.701c0-0.58,0.091-1.125,0.273-1.634c0.182-0.51,0.426-0.952,0.732-1.329s0.656-0.672,1.049-0.888
			c0.394-0.216,0.802-0.323,1.224-0.323c0.298,0,0.57,0.077,0.818,0.23c0.248,0.152,0.443,0.361,0.583,0.627h0.025l0.261-0.709
			h1.068l-1.217,6.098h-1.094l0.062-0.845h-0.037c-0.29,0.299-0.611,0.538-0.962,0.721c-0.353,0.183-0.702,0.272-1.049,0.272
			c-0.538,0-0.962-0.189-1.272-0.57C98.125,221.971,97.97,221.419,97.97,220.701z M100.254,221.83c0.265,0,0.536-0.078,0.812-0.236
			c0.277-0.156,0.54-0.422,0.789-0.795l0.497-2.434c-0.141-0.265-0.3-0.455-0.478-0.57c-0.179-0.115-0.362-0.174-0.554-0.174
			c-0.257,0-0.505,0.076-0.744,0.229c-0.24,0.151-0.451,0.36-0.634,0.627c-0.182,0.265-0.326,0.573-0.435,0.925
			s-0.161,0.723-0.161,1.111c0,0.447,0.081,0.777,0.242,0.992C99.751,221.723,99.973,221.83,100.254,221.83z"/>
		<path d="M105.817,216.677h1.08l-0.111,1.18h0.05c0.24-0.381,0.521-0.697,0.844-0.949c0.323-0.253,0.67-0.38,1.043-0.38
			c0.24,0,0.443,0.038,0.608,0.112l-0.447,1.167c-0.075-0.041-0.162-0.067-0.261-0.081c-0.101-0.012-0.203-0.02-0.312-0.02
			c-0.29,0-0.576,0.112-0.856,0.336c-0.281,0.224-0.546,0.572-0.794,1.043l-0.721,3.688h-1.34L105.817,216.677z"/>
		<path d="M109.368,224.214c0.265,0,0.518-0.103,0.758-0.305c0.24-0.203,0.441-0.479,0.607-0.826l0.187-0.373l-1.055-6.033h1.328
			l0.386,3.078c0.032,0.273,0.062,0.574,0.087,0.9c0.024,0.327,0.045,0.637,0.062,0.926h0.05c0.142-0.289,0.283-0.595,0.429-0.912
			c0.145-0.318,0.288-0.623,0.428-0.914l1.515-3.078h1.292l-3.427,6.42c-0.189,0.331-0.383,0.631-0.577,0.898
			c-0.194,0.271-0.399,0.5-0.615,0.689c-0.215,0.189-0.448,0.337-0.701,0.439c-0.253,0.104-0.532,0.156-0.838,0.156
			c-0.1,0-0.226-0.021-0.379-0.062c-0.152-0.043-0.287-0.096-0.403-0.161l0.422-0.97
			C109.062,224.171,109.211,224.214,109.368,224.214z"/>
	</g>
	<g>
		<path d="M140.784,215.621h4.655l-0.224,1.131h-3.328l-0.472,2.396h2.817l-0.224,1.131h-2.806l-0.695,3.465h-1.341L140.784,215.621
			z"/>
		<path d="M144.943,221.309c0-0.571,0.098-1.091,0.292-1.56c0.194-0.467,0.451-0.869,0.771-1.203
			c0.319-0.336,0.677-0.594,1.074-0.776c0.396-0.183,0.795-0.272,1.191-0.272c0.356,0,0.656,0.059,0.9,0.174
			s0.442,0.274,0.596,0.479c0.153,0.203,0.266,0.439,0.335,0.715c0.07,0.273,0.105,0.566,0.105,0.881c0,0.266-0.033,0.521-0.1,0.771
			c-0.065,0.248-0.12,0.422-0.162,0.521h-3.712c-0.032,0.323-0.017,0.602,0.051,0.832c0.065,0.231,0.167,0.422,0.304,0.571
			c0.136,0.149,0.304,0.259,0.503,0.329c0.198,0.07,0.414,0.105,0.646,0.105c0.216,0,0.436-0.051,0.658-0.149
			c0.224-0.099,0.418-0.211,0.583-0.335l0.497,0.855c-0.249,0.174-0.548,0.325-0.899,0.453c-0.353,0.129-0.747,0.193-1.187,0.193
			c-0.364,0-0.695-0.059-0.994-0.174c-0.298-0.116-0.555-0.284-0.77-0.504c-0.215-0.219-0.383-0.487-0.503-0.807
			C145.003,222.089,144.943,221.723,144.943,221.309z M149.041,220.191c0.017-0.083,0.03-0.168,0.043-0.255
			c0.012-0.087,0.019-0.181,0.019-0.278c0-0.299-0.072-0.562-0.217-0.789c-0.145-0.229-0.403-0.342-0.776-0.342
			s-0.723,0.146-1.049,0.439c-0.327,0.295-0.564,0.703-0.714,1.225H149.041z"/>
		<path d="M150.866,223.742l1.763-8.767h1.329l-0.436,2.161l-0.298,1.167h0.025c0.29-0.231,0.596-0.425,0.919-0.577
			s0.653-0.23,0.993-0.23c0.546,0,0.973,0.188,1.278,0.565c0.307,0.377,0.459,0.931,0.459,1.657c0,0.588-0.091,1.135-0.272,1.64
			c-0.183,0.505-0.426,0.945-0.732,1.322s-0.653,0.673-1.043,0.888c-0.389,0.215-0.794,0.323-1.217,0.323
			c-0.306,0-0.577-0.077-0.813-0.229c-0.235-0.152-0.424-0.361-0.564-0.627h-0.025l-0.261,0.707H150.866z M154.616,218.589
			c-0.24,0-0.502,0.072-0.782,0.218c-0.281,0.146-0.538,0.366-0.771,0.664l-0.521,2.583c0.132,0.265,0.286,0.455,0.459,0.57
			c0.174,0.115,0.355,0.174,0.546,0.174c0.257,0,0.505-0.076,0.745-0.229c0.24-0.151,0.451-0.36,0.633-0.627
			c0.182-0.265,0.329-0.573,0.441-0.925c0.111-0.352,0.167-0.727,0.167-1.124c0-0.446-0.083-0.774-0.249-0.985
			C155.121,218.694,154.897,218.589,154.616,218.589z"/>
		<path d="M158.85,217.646h1.08l-0.112,1.18h0.051c0.239-0.381,0.521-0.697,0.844-0.949s0.67-0.379,1.043-0.379
			c0.24,0,0.442,0.037,0.607,0.111l-0.446,1.167c-0.075-0.041-0.162-0.067-0.262-0.081c-0.1-0.012-0.202-0.02-0.311-0.02
			c-0.29,0-0.576,0.113-0.857,0.337c-0.28,0.223-0.546,0.571-0.794,1.043l-0.72,3.688h-1.341L158.85,217.646z"/>
		<path d="M167.02,223.742h-1.08l0.051-0.869h-0.051c-0.306,0.273-0.629,0.512-0.969,0.715s-0.695,0.305-1.068,0.305
			c-0.513,0-0.883-0.135-1.11-0.404c-0.229-0.27-0.342-0.646-0.342-1.136c0-0.142,0.008-0.278,0.024-0.416
			c0.018-0.138,0.042-0.283,0.075-0.44l0.77-3.85h1.329l-0.731,3.676c-0.033,0.141-0.059,0.262-0.075,0.359
			c-0.017,0.1-0.025,0.195-0.025,0.285c0,0.521,0.252,0.783,0.759,0.783c0.404,0,0.905-0.314,1.502-0.944l0.818-4.159h1.329
			L167.02,223.742z"/>
		<path d="M168.857,221.669c0-0.58,0.091-1.125,0.273-1.633c0.182-0.511,0.426-0.953,0.732-1.33s0.656-0.672,1.05-0.888
			c0.393-0.215,0.801-0.323,1.223-0.323c0.298,0,0.571,0.078,0.819,0.23s0.442,0.361,0.583,0.627h0.024l0.261-0.708h1.068
			l-1.217,6.097h-1.093l0.062-0.845h-0.037c-0.29,0.299-0.61,0.538-0.962,0.722c-0.352,0.182-0.702,0.272-1.049,0.272
			c-0.538,0-0.962-0.19-1.272-0.571C169.013,222.939,168.857,222.389,168.857,221.669z M171.142,222.798
			c0.266,0,0.536-0.078,0.813-0.235c0.276-0.157,0.54-0.422,0.789-0.795l0.497-2.435c-0.142-0.265-0.301-0.455-0.479-0.57
			s-0.362-0.174-0.553-0.174c-0.257,0-0.505,0.076-0.745,0.229c-0.24,0.152-0.451,0.361-0.633,0.627
			c-0.183,0.265-0.327,0.573-0.436,0.925c-0.107,0.353-0.161,0.723-0.161,1.111c0,0.447,0.081,0.777,0.242,0.993
			S170.861,222.798,171.142,222.798z"/>
		<path d="M176.705,217.646h1.08l-0.112,1.18h0.05c0.24-0.381,0.521-0.697,0.844-0.949c0.323-0.252,0.67-0.379,1.043-0.379
			c0.24,0,0.443,0.037,0.608,0.111l-0.447,1.167c-0.075-0.041-0.162-0.067-0.261-0.081c-0.1-0.012-0.203-0.02-0.311-0.02
			c-0.29,0-0.576,0.113-0.857,0.337c-0.281,0.223-0.546,0.571-0.794,1.043l-0.72,3.688h-1.342L176.705,217.646z"/>
		<path d="M180.256,225.183c0.265,0,0.518-0.102,0.758-0.305s0.442-0.479,0.608-0.825l0.186-0.373l-1.055-6.034h1.329l0.385,3.079
			c0.033,0.272,0.062,0.573,0.087,0.899c0.025,0.328,0.045,0.637,0.062,0.926h0.05c0.141-0.289,0.283-0.594,0.428-0.912
			s0.288-0.623,0.428-0.913l1.516-3.079h1.292l-3.428,6.42c-0.189,0.331-0.383,0.631-0.576,0.898c-0.195,0.271-0.4,0.5-0.615,0.689
			s-0.449,0.338-0.702,0.439c-0.253,0.104-0.532,0.156-0.838,0.156c-0.1,0-0.226-0.021-0.378-0.062
			c-0.153-0.042-0.288-0.096-0.404-0.161l0.422-0.969C179.95,225.141,180.099,225.183,180.256,225.183z"/>
	</g>
	<g>
		<path d="M216.389,217.023h1.49l0.646,4.061l0.235,1.564h0.05l0.809-1.564l2.233-4.061h1.479l-1.626,8.121h-1.268l0.808-3.898
			c0.042-0.189,0.089-0.396,0.144-0.615c0.054-0.219,0.109-0.439,0.167-0.664c0.058-0.223,0.116-0.441,0.174-0.657
			c0.059-0.216,0.116-0.418,0.174-0.608h-0.036l-0.993,1.838l-2.148,3.812h-0.621l-0.67-3.812l-0.261-1.838h-0.05
			c-0.042,0.381-0.089,0.805-0.144,1.272c-0.054,0.467-0.118,0.894-0.191,1.272l-0.782,3.898h-1.229L216.389,217.023z"/>
		<path d="M223.79,223.071c0-0.579,0.091-1.124,0.272-1.633c0.183-0.51,0.426-0.952,0.732-1.329
			c0.306-0.377,0.656-0.672,1.049-0.888c0.394-0.216,0.801-0.323,1.224-0.323c0.299,0,0.571,0.077,0.819,0.23
			c0.248,0.152,0.442,0.361,0.584,0.627h0.024l0.261-0.709h1.066l-1.217,6.098h-1.093l0.062-0.846h-0.037
			c-0.29,0.3-0.61,0.539-0.962,0.722c-0.354,0.183-0.702,0.272-1.051,0.272c-0.538,0-0.962-0.189-1.271-0.57
			C223.944,224.341,223.79,223.791,223.79,223.071z M226.075,224.201c0.265,0,0.534-0.078,0.812-0.236
			c0.277-0.156,0.54-0.422,0.789-0.795l0.496-2.434c-0.142-0.265-0.3-0.455-0.479-0.57s-0.361-0.174-0.553-0.174
			c-0.257,0-0.505,0.076-0.745,0.229c-0.24,0.151-0.451,0.36-0.633,0.627c-0.183,0.265-0.327,0.573-0.435,0.925
			c-0.108,0.352-0.162,0.723-0.162,1.111c0,0.447,0.081,0.777,0.242,0.992C225.572,224.093,225.792,224.201,226.075,224.201z"/>
		<path d="M231.637,219.048h1.08l-0.111,1.18h0.049c0.24-0.381,0.521-0.697,0.846-0.95c0.322-0.252,0.671-0.379,1.043-0.379
			c0.24,0,0.441,0.038,0.607,0.112l-0.446,1.167c-0.074-0.041-0.161-0.068-0.262-0.081c-0.099-0.012-0.201-0.02-0.311-0.02
			c-0.289,0-0.575,0.112-0.856,0.336c-0.28,0.224-0.546,0.571-0.795,1.043l-0.72,3.688h-1.341L231.637,219.048z"/>
		<path d="M235.027,222.811c0-0.547,0.094-1.058,0.279-1.534c0.187-0.477,0.438-0.89,0.757-1.24
			c0.319-0.353,0.691-0.629,1.118-0.832c0.426-0.203,0.875-0.306,1.347-0.306c0.373,0,0.691,0.075,0.956,0.224
			c0.266,0.149,0.48,0.323,0.646,0.521l-0.744,0.809c-0.142-0.166-0.282-0.287-0.423-0.361c-0.142-0.073-0.314-0.11-0.521-0.11
			c-0.272,0-0.533,0.074-0.781,0.224c-0.248,0.148-0.467,0.351-0.651,0.603c-0.188,0.253-0.336,0.547-0.447,0.882
			s-0.168,0.693-0.168,1.074c0,0.464,0.103,0.82,0.305,1.074c0.202,0.252,0.512,0.377,0.926,0.377c0.239,0,0.453-0.047,0.64-0.143
			c0.188-0.095,0.357-0.205,0.515-0.328l0.571,0.844c-0.23,0.166-0.507,0.326-0.825,0.479c-0.318,0.153-0.71,0.23-1.174,0.23
			c-0.339,0-0.648-0.057-0.931-0.168c-0.282-0.112-0.526-0.273-0.733-0.484s-0.368-0.471-0.482-0.775
			C235.084,223.56,235.027,223.207,235.027,222.811z"/>
		<path d="M242.104,216.378h1.329l-0.534,2.582l-0.235,0.883h0.05c0.313-0.266,0.636-0.488,0.963-0.672
			c0.326-0.182,0.677-0.272,1.049-0.272c0.514,0,0.882,0.134,1.105,0.397c0.224,0.266,0.335,0.646,0.335,1.143
			c0,0.141-0.006,0.277-0.02,0.41c-0.013,0.132-0.039,0.281-0.081,0.445l-0.77,3.851h-1.329l0.745-3.676
			c0.024-0.142,0.048-0.261,0.067-0.359c0.021-0.101,0.031-0.194,0.031-0.286c0-0.521-0.257-0.781-0.77-0.781
			c-0.216,0-0.445,0.074-0.689,0.224s-0.526,0.39-0.851,0.721l-0.819,4.159h-1.341L242.104,216.378z"/>
	</g>
	<g>
		<path d="M291.822,222.859h-2.645l-1.13,2.285h-1.479l4.347-8.121h1.589l0.869,8.121h-1.392L291.822,222.859z M291.748,221.841
			l-0.087-1.229c-0.025-0.422-0.053-0.836-0.081-1.24c-0.029-0.406-0.053-0.832-0.068-1.279h-0.05
			c-0.198,0.447-0.392,0.873-0.577,1.279c-0.188,0.404-0.387,0.818-0.603,1.24l-0.608,1.229H291.748z"/>
		<path d="M295.41,225.74l-0.349,1.813h-1.328l1.714-8.507h1.08l-0.024,0.746h0.037c0.29-0.258,0.604-0.471,0.943-0.641
			c0.339-0.17,0.684-0.255,1.03-0.255c0.547,0,0.973,0.19,1.279,0.571c0.306,0.381,0.459,0.932,0.459,1.65
			c0,0.588-0.091,1.135-0.273,1.641c-0.182,0.505-0.426,0.945-0.731,1.322c-0.307,0.377-0.653,0.672-1.043,0.887
			c-0.39,0.216-0.795,0.324-1.218,0.324c-0.29,0-0.551-0.074-0.781-0.219c-0.231-0.145-0.423-0.337-0.571-0.576h-0.024
			L295.41,225.74z M297.968,219.992c-0.24,0-0.501,0.072-0.782,0.217c-0.282,0.146-0.539,0.367-0.771,0.664l-0.521,2.607
			c0.133,0.257,0.286,0.441,0.46,0.553c0.174,0.112,0.355,0.168,0.546,0.168c0.257,0,0.505-0.076,0.745-0.229
			c0.24-0.152,0.451-0.361,0.633-0.628c0.184-0.264,0.329-0.572,0.441-0.924c0.111-0.353,0.168-0.728,0.168-1.125
			c0-0.445-0.083-0.774-0.249-0.985C298.473,220.097,298.25,219.992,297.968,219.992z"/>
		<path d="M302.19,219.048h1.08l-0.11,1.18h0.049c0.239-0.381,0.521-0.697,0.845-0.95c0.323-0.252,0.671-0.379,1.043-0.379
			c0.24,0,0.442,0.038,0.608,0.112l-0.447,1.167c-0.074-0.041-0.161-0.068-0.261-0.081c-0.1-0.012-0.202-0.02-0.312-0.02
			c-0.289,0-0.575,0.112-0.855,0.336c-0.281,0.224-0.546,0.571-0.795,1.043l-0.721,3.688h-1.341L302.19,219.048z"/>
		<path d="M306.709,219.048h1.328l-1.218,6.097h-1.341L306.709,219.048z M307.69,217.968c-0.189,0-0.363-0.061-0.521-0.182
			c-0.157-0.119-0.236-0.291-0.236-0.515c0-0.239,0.087-0.444,0.261-0.614c0.175-0.17,0.387-0.255,0.635-0.255
			c0.189,0,0.363,0.06,0.521,0.181c0.157,0.119,0.235,0.291,0.235,0.516c0,0.248-0.087,0.455-0.262,0.619
			C308.149,217.884,307.938,217.968,307.69,217.968z"/>
		<path d="M310.36,216.378h1.329l-1.466,7.338c-0.017,0.066-0.023,0.117-0.023,0.148c0,0.033,0,0.062,0,0.088
			c0,0.174,0.069,0.26,0.211,0.26c0.041,0,0.073-0.002,0.1-0.006c0.024-0.004,0.066-0.015,0.124-0.031l-0.024,0.994
			c-0.092,0.041-0.198,0.072-0.322,0.094s-0.271,0.031-0.436,0.031c-0.355,0-0.617-0.088-0.782-0.262
			c-0.166-0.174-0.248-0.418-0.248-0.732c0-0.19,0.028-0.405,0.088-0.646L310.36,216.378z"/>
	</g>
	<rect x="277.93" y="46.185" fill="#4D4D4F" width="43.473" height="157.693"/>
	<rect x="209.207" y="77.738" fill="#4D4D4F" width="43.472" height="126.141"/>
	<g>
		<path d="M359.303,92.157h-2.247l0.224-1.142h5.837l-0.225,1.142h-2.247l-1.392,6.979h-1.341L359.303,92.157z"/>
		<path d="M361.911,97.062c0-0.579,0.091-1.124,0.272-1.633c0.183-0.509,0.426-0.952,0.732-1.329
			c0.306-0.376,0.655-0.672,1.049-0.888c0.394-0.215,0.801-0.322,1.224-0.322c0.298,0,0.571,0.076,0.819,0.229
			c0.248,0.153,0.442,0.362,0.584,0.627h0.024l0.261-0.708h1.066l-1.217,6.097h-1.093l0.062-0.844h-0.036
			c-0.29,0.298-0.61,0.538-0.963,0.72c-0.353,0.182-0.701,0.273-1.05,0.273c-0.538,0-0.962-0.19-1.271-0.571
			C362.065,98.332,361.911,97.782,361.911,97.062z M364.196,98.192c0.266,0,0.535-0.079,0.812-0.236
			c0.277-0.157,0.54-0.422,0.789-0.794l0.496-2.435c-0.142-0.265-0.3-0.455-0.479-0.57c-0.179-0.116-0.361-0.174-0.553-0.174
			c-0.257,0-0.505,0.076-0.745,0.229c-0.24,0.153-0.451,0.362-0.633,0.627c-0.183,0.265-0.327,0.573-0.435,0.925
			c-0.108,0.353-0.162,0.723-0.162,1.111c0,0.447,0.081,0.778,0.241,0.993C363.693,98.085,363.914,98.192,364.196,98.192z"/>
		<path d="M369.758,93.039h1.08l-0.111,1.18h0.049c0.24-0.381,0.521-0.697,0.846-0.95c0.322-0.252,0.671-0.378,1.043-0.378
			c0.239,0,0.441,0.037,0.607,0.111l-0.446,1.167c-0.074-0.041-0.161-0.068-0.262-0.08c-0.099-0.013-0.202-0.019-0.311-0.019
			c-0.289,0-0.575,0.111-0.856,0.335c-0.28,0.224-0.546,0.571-0.795,1.043l-0.72,3.688h-1.341L369.758,93.039z"/>
		<path d="M379.121,93.039l-1.241,6.184c-0.174,0.861-0.521,1.513-1.043,1.956c-0.521,0.442-1.188,0.664-1.999,0.664
			c-0.391,0-0.772-0.074-1.149-0.224c-0.376-0.148-0.726-0.355-1.049-0.621l0.596-0.894c0.232,0.19,0.484,0.35,0.759,0.479
			c0.272,0.128,0.565,0.192,0.882,0.192c0.463,0,0.836-0.135,1.117-0.404c0.28-0.269,0.487-0.647,0.62-1.136l0.299-1.13h-0.037
			c-0.29,0.273-0.596,0.492-0.913,0.658c-0.318,0.165-0.66,0.248-1.024,0.248c-0.513,0-0.938-0.18-1.271-0.54
			c-0.334-0.36-0.503-0.896-0.503-1.608c0-0.554,0.089-1.071,0.267-1.552c0.179-0.479,0.416-0.9,0.714-1.26
			c0.299-0.36,0.641-0.644,1.024-0.851c0.386-0.207,0.784-0.311,1.198-0.311c0.299,0,0.568,0.076,0.812,0.229
			c0.244,0.153,0.433,0.362,0.565,0.627h0.036l0.262-0.708h1.079V93.039z M375.42,97.906c0.24,0,0.503-0.072,0.789-0.217
			c0.285-0.145,0.548-0.379,0.788-0.701l0.459-2.261c-0.142-0.265-0.298-0.455-0.473-0.57c-0.174-0.116-0.354-0.174-0.546-0.174
			c-0.249,0-0.485,0.072-0.714,0.217c-0.229,0.145-0.431,0.342-0.607,0.59c-0.18,0.248-0.319,0.536-0.424,0.863
			c-0.104,0.327-0.154,0.673-0.154,1.036c0,0.414,0.081,0.721,0.242,0.919C374.943,97.808,375.156,97.906,375.42,97.906z"/>
		<path d="M379.816,96.702c0-0.571,0.098-1.091,0.291-1.559c0.194-0.467,0.451-0.869,0.771-1.204
			c0.317-0.335,0.677-0.594,1.074-0.776c0.396-0.182,0.794-0.272,1.19-0.272c0.356,0,0.656,0.058,0.9,0.174
			c0.244,0.115,0.441,0.275,0.596,0.478c0.153,0.203,0.266,0.441,0.336,0.714c0.07,0.273,0.105,0.567,0.105,0.882
			c0,0.265-0.033,0.521-0.101,0.77c-0.065,0.249-0.12,0.423-0.161,0.521h-3.713c-0.033,0.323-0.017,0.601,0.05,0.832
			c0.066,0.232,0.167,0.423,0.305,0.571c0.137,0.149,0.305,0.259,0.503,0.329c0.199,0.07,0.414,0.105,0.646,0.105
			c0.216,0,0.436-0.05,0.658-0.148c0.224-0.1,0.418-0.212,0.584-0.336l0.497,0.857c-0.249,0.174-0.549,0.324-0.9,0.453
			c-0.353,0.128-0.746,0.192-1.187,0.192c-0.364,0-0.695-0.059-0.993-0.174c-0.298-0.116-0.555-0.283-0.77-0.503
			c-0.217-0.22-0.384-0.488-0.503-0.808C379.875,97.482,379.816,97.116,379.816,96.702z M383.914,95.585
			c0.016-0.083,0.029-0.168,0.043-0.255c0.013-0.087,0.019-0.18,0.019-0.279c0-0.298-0.072-0.561-0.217-0.788
			c-0.146-0.228-0.404-0.342-0.776-0.342c-0.373,0-0.723,0.147-1.05,0.44c-0.326,0.294-0.563,0.702-0.714,1.224H383.914z"/>
		<path d="M386.98,94.095h-0.855l0.197-0.993l0.933-0.062l0.483-1.639h1.117l-0.321,1.639h1.465l-0.211,1.056h-1.49l-0.621,3.029
			c-0.024,0.149-0.037,0.294-0.037,0.435c0,0.224,0.054,0.392,0.161,0.503c0.107,0.112,0.29,0.168,0.547,0.168
			c0.107,0,0.207-0.017,0.298-0.05c0.091-0.033,0.183-0.07,0.273-0.111l0.248,0.943c-0.149,0.066-0.331,0.128-0.546,0.187
			c-0.216,0.058-0.464,0.087-0.745,0.087c-0.571,0-0.979-0.143-1.225-0.429c-0.243-0.285-0.365-0.64-0.365-1.062
			c0-0.124,0.009-0.244,0.024-0.36c0.017-0.115,0.032-0.235,0.049-0.359L386.98,94.095z"/>
		<path d="M392.754,94.554l5.289-2.123v1.105l-2.321,0.869l-1.577,0.596v0.05l1.577,0.584l2.321,0.869v1.13l-5.289-2.123V94.554z"/>
		<path d="M406.176,92.841c-0.133-0.207-0.283-0.37-0.453-0.49s-0.375-0.181-0.614-0.181c-0.272,0-0.534,0.066-0.782,0.199
			c-0.249,0.132-0.477,0.322-0.684,0.571c-0.207,0.248-0.389,0.555-0.546,0.918c-0.157,0.365-0.277,0.778-0.36,1.242
			c0.257-0.273,0.542-0.479,0.856-0.614c0.313-0.137,0.592-0.205,0.832-0.205c0.57,0,1.037,0.174,1.396,0.521
			c0.359,0.348,0.54,0.86,0.54,1.539c0,0.39-0.065,0.76-0.199,1.111c-0.132,0.353-0.317,0.665-0.559,0.938
			c-0.24,0.273-0.523,0.491-0.851,0.652c-0.328,0.161-0.682,0.242-1.062,0.242c-0.354,0-0.677-0.066-0.962-0.199
			c-0.286-0.132-0.53-0.32-0.732-0.564s-0.357-0.534-0.466-0.869c-0.107-0.335-0.162-0.706-0.162-1.111
			c0-0.803,0.097-1.54,0.286-2.21c0.19-0.671,0.455-1.246,0.795-1.727c0.339-0.479,0.742-0.853,1.21-1.117
			c0.469-0.264,0.979-0.397,1.534-0.397c0.231,0,0.442,0.031,0.633,0.093s0.36,0.144,0.51,0.242c0.148,0.1,0.28,0.211,0.396,0.336
			c0.116,0.124,0.216,0.248,0.298,0.372L406.176,92.841z M403.767,98.279c0.207,0,0.394-0.054,0.56-0.161
			c0.165-0.107,0.309-0.246,0.429-0.416s0.213-0.36,0.278-0.571c0.066-0.211,0.101-0.424,0.101-0.64
			c0-0.397-0.087-0.708-0.262-0.932c-0.174-0.224-0.435-0.335-0.781-0.335c-0.184,0-0.403,0.061-0.664,0.18
			c-0.261,0.12-0.528,0.351-0.801,0.689c-0.01,0.091-0.014,0.183-0.014,0.273c0,0.09,0,0.182,0,0.273
			c0,0.505,0.105,0.904,0.316,1.198S403.419,98.279,403.767,98.279z"/>
	</g>
	<g>
		<path d="M2.186,211.517v-1.342l8.121,1.615v1.34L2.186,211.517z"/>
		<path d="M4.209,208.648v-1.08l0.856,0.062v-0.051c-0.272-0.322-0.509-0.656-0.708-1c-0.198-0.343-0.298-0.709-0.298-1.099
			c0-0.515,0.132-0.882,0.397-1.104c0.265-0.225,0.646-0.336,1.142-0.336c0.142,0,0.277,0.006,0.41,0.02s0.282,0.039,0.447,0.081
			l3.849,0.771v1.328l-3.675-0.744c-0.142-0.025-0.261-0.049-0.36-0.068c-0.099-0.021-0.193-0.031-0.286-0.031
			c-0.521,0-0.781,0.257-0.781,0.77c0,0.217,0.074,0.445,0.224,0.689s0.389,0.527,0.72,0.852l4.16,0.818v1.342L4.209,208.648z"/>
		<path d="M4.271,202.527l-0.062-0.807l-0.708-0.137c-0.621-0.125-1.127-0.36-1.521-0.709c-0.393-0.348-0.59-0.828-0.59-1.439
			c0-0.23,0.029-0.447,0.087-0.646c0.059-0.199,0.133-0.385,0.225-0.559l0.943,0.445c-0.042,0.076-0.083,0.168-0.124,0.281
			c-0.042,0.11-0.062,0.229-0.062,0.354c0,0.248,0.081,0.451,0.242,0.607c0.161,0.158,0.416,0.271,0.764,0.336l0.745,0.148v-1.154
			l1.056,0.211v1.168l5.041,0.992v1.328l-5.041-1.006v0.783L4.271,202.527z"/>
		<path d="M7.873,199.25c-0.571,0-1.091-0.098-1.56-0.291c-0.467-0.194-0.869-0.451-1.204-0.771
			c-0.335-0.318-0.594-0.678-0.775-1.074c-0.183-0.396-0.273-0.794-0.273-1.191c0-0.355,0.059-0.655,0.174-0.899
			c0.116-0.244,0.275-0.442,0.479-0.597c0.203-0.152,0.44-0.266,0.714-0.336c0.273-0.069,0.567-0.104,0.882-0.104
			c0.266,0,0.521,0.033,0.771,0.101c0.249,0.065,0.422,0.119,0.521,0.16v3.713c0.323,0.033,0.602,0.018,0.832-0.049
			c0.232-0.066,0.422-0.168,0.571-0.305c0.148-0.137,0.259-0.305,0.329-0.503c0.069-0.199,0.104-0.414,0.104-0.646
			c0-0.217-0.05-0.436-0.148-0.658c-0.101-0.225-0.211-0.418-0.335-0.584l0.856-0.498c0.174,0.25,0.325,0.55,0.453,0.9
			c0.128,0.354,0.192,0.748,0.192,1.188c0,0.363-0.059,0.695-0.175,0.992c-0.115,0.299-0.282,0.556-0.503,0.771
			c-0.219,0.216-0.487,0.384-0.807,0.503C8.653,199.189,8.287,199.25,7.873,199.25z M6.755,195.151
			c-0.083-0.017-0.167-0.03-0.254-0.043s-0.181-0.019-0.279-0.019c-0.298,0-0.561,0.072-0.789,0.217
			c-0.228,0.146-0.342,0.404-0.342,0.775c0,0.373,0.146,0.724,0.441,1.051c0.294,0.326,0.701,0.563,1.223,0.714V195.151z"/>
		<path d="M7.972,193.152c-0.546,0-1.057-0.093-1.533-0.279c-0.476-0.186-0.89-0.438-1.242-0.756
			c-0.352-0.32-0.629-0.691-0.831-1.119c-0.203-0.426-0.305-0.875-0.305-1.347c0-0.373,0.074-0.69,0.225-0.956
			c0.148-0.265,0.322-0.48,0.521-0.646l0.807,0.744c-0.166,0.143-0.285,0.283-0.359,0.424s-0.112,0.313-0.112,0.521
			c0,0.272,0.075,0.534,0.225,0.782c0.148,0.248,0.35,0.466,0.602,0.65c0.253,0.188,0.546,0.336,0.882,0.447
			c0.335,0.112,0.693,0.168,1.074,0.168c0.464,0,0.822-0.102,1.074-0.305c0.252-0.202,0.379-0.512,0.379-0.925
			c0-0.24-0.048-0.453-0.144-0.64c-0.095-0.188-0.205-0.357-0.329-0.516l0.846-0.57c0.166,0.23,0.325,0.506,0.478,0.824
			c0.153,0.319,0.229,0.711,0.229,1.174c0,0.34-0.057,0.649-0.167,0.932c-0.112,0.281-0.273,0.525-0.484,0.732
			s-0.47,0.368-0.776,0.483C8.721,193.095,8.369,193.152,7.972,193.152z"/>
		<path d="M5.265,186.485v0.856l-0.994-0.198l-0.062-0.933l-1.64-0.483v-1.117l1.64,0.322v-1.466l1.056,0.212v1.489l3.029,0.621
			c0.148,0.024,0.294,0.037,0.435,0.037c0.225,0,0.392-0.054,0.503-0.16c0.112-0.107,0.168-0.291,0.168-0.547
			c0-0.107-0.017-0.207-0.05-0.299c-0.033-0.091-0.07-0.182-0.112-0.273l0.944-0.248c0.066,0.15,0.128,0.332,0.187,0.547
			c0.058,0.216,0.087,0.464,0.087,0.744c0,0.572-0.144,0.979-0.429,1.225c-0.284,0.245-0.64,0.366-1.062,0.366
			c-0.125,0-0.244-0.009-0.36-0.024c-0.116-0.017-0.235-0.033-0.359-0.05L5.265,186.485z"/>
		<path d="M3.129,181.22c0,0.189-0.061,0.363-0.18,0.521c-0.12,0.156-0.292,0.235-0.516,0.235c-0.24,0-0.445-0.087-0.615-0.261
			s-0.255-0.387-0.255-0.635c0-0.189,0.062-0.363,0.181-0.521s0.292-0.235,0.516-0.235c0.248,0,0.455,0.088,0.621,0.262
			S3.129,180.972,3.129,181.22z M4.209,182.201v-1.328l6.097,1.217v1.341L4.209,182.201z"/>
		<path d="M10.455,177.893c0,0.34-0.059,0.649-0.175,0.931c-0.115,0.282-0.28,0.522-0.496,0.721
			c-0.217,0.199-0.477,0.353-0.782,0.459c-0.307,0.108-0.65,0.162-1.031,0.162c-0.579,0-1.111-0.098-1.596-0.291
			c-0.484-0.194-0.896-0.449-1.235-0.765c-0.339-0.313-0.604-0.673-0.794-1.073c-0.19-0.402-0.286-0.81-0.286-1.224
			c0-0.694,0.223-1.25,0.664-1.664c0.443-0.414,1.049-0.621,1.819-0.621c0.58,0,1.108,0.099,1.589,0.292
			c0.479,0.194,0.892,0.449,1.235,0.764s0.609,0.674,0.801,1.074C10.359,177.059,10.455,177.471,10.455,177.893z M5.141,176.949
			c0,0.239,0.073,0.475,0.217,0.701c0.146,0.229,0.343,0.43,0.591,0.604s0.542,0.312,0.882,0.416
			c0.34,0.104,0.704,0.154,1.092,0.154c0.464,0,0.822-0.092,1.074-0.273s0.379-0.45,0.379-0.807c0-0.24-0.072-0.473-0.217-0.695
			c-0.146-0.223-0.345-0.422-0.597-0.596c-0.252-0.175-0.548-0.312-0.888-0.416c-0.34-0.104-0.704-0.156-1.093-0.156
			c-0.463,0-0.819,0.092-1.068,0.273C5.265,176.335,5.141,176.602,5.141,176.949z"/>
		<path d="M4.209,172.591v-1.08l0.856,0.062v-0.051c-0.272-0.322-0.509-0.656-0.708-1c-0.198-0.343-0.298-0.71-0.298-1.1
			c0-0.514,0.132-0.881,0.397-1.104c0.265-0.224,0.646-0.335,1.142-0.335c0.142,0,0.277,0.006,0.41,0.02
			c0.133,0.013,0.282,0.039,0.447,0.08l3.849,0.771v1.329l-3.675-0.745c-0.142-0.024-0.261-0.048-0.36-0.067
			c-0.099-0.021-0.193-0.031-0.286-0.031c-0.521,0-0.781,0.257-0.781,0.77c0,0.217,0.074,0.445,0.224,0.689s0.389,0.527,0.72,0.851
			l4.16,0.819v1.341L4.209,172.591z"/>
		<path d="M4.209,163.477v-1.08l1.18,0.11v-0.049c-0.381-0.24-0.697-0.521-0.95-0.844c-0.252-0.324-0.378-0.672-0.378-1.044
			c0-0.239,0.037-0.442,0.112-0.608l1.167,0.447c-0.042,0.074-0.068,0.161-0.081,0.262c-0.013,0.099-0.019,0.201-0.019,0.311
			c0,0.289,0.111,0.575,0.335,0.855c0.224,0.281,0.57,0.547,1.043,0.795l3.688,0.721v1.341L4.209,163.477z"/>
		<path d="M8.232,160.162c-0.579,0-1.124-0.091-1.633-0.272c-0.509-0.183-0.952-0.427-1.329-0.731
			c-0.376-0.307-0.672-0.656-0.888-1.05c-0.215-0.394-0.323-0.801-0.323-1.224c0-0.299,0.077-0.571,0.229-0.819
			s0.361-0.442,0.627-0.584v-0.024l-0.708-0.261v-1.067l6.097,1.218v1.093l-0.844-0.062v0.037c0.298,0.291,0.538,0.61,0.72,0.963
			s0.273,0.701,0.273,1.049c0,0.539-0.19,0.963-0.571,1.273C9.503,160.007,8.953,160.162,8.232,160.162z M9.362,157.876
			c0-0.265-0.078-0.535-0.235-0.812s-0.422-0.54-0.794-0.789l-2.435-0.496c-0.265,0.142-0.455,0.3-0.57,0.478
			c-0.116,0.18-0.175,0.363-0.175,0.554c0,0.257,0.077,0.505,0.229,0.745c0.153,0.24,0.362,0.451,0.627,0.633
			c0.265,0.184,0.573,0.327,0.925,0.436c0.353,0.107,0.722,0.162,1.111,0.162c0.447,0,0.778-0.082,0.993-0.242
			C9.255,158.38,9.362,158.16,9.362,157.876z"/>
		<path d="M5.265,152.328v0.855l-0.994-0.198l-0.062-0.933l-1.64-0.483v-1.116l1.64,0.321v-1.465l1.056,0.211v1.489l3.029,0.621
			c0.148,0.025,0.294,0.037,0.435,0.037c0.225,0,0.392-0.053,0.503-0.16C9.344,151.4,9.4,151.216,9.4,150.96
			c0-0.107-0.017-0.207-0.05-0.299c-0.033-0.091-0.07-0.182-0.112-0.272l0.944-0.248c0.066,0.149,0.128,0.331,0.187,0.546
			c0.058,0.216,0.087,0.464,0.087,0.745c0,0.571-0.144,0.979-0.429,1.224c-0.284,0.245-0.64,0.366-1.062,0.366
			c-0.125,0-0.244-0.009-0.36-0.024c-0.116-0.017-0.235-0.033-0.359-0.049L5.265,152.328z"/>
		<path d="M7.873,149.186c-0.571,0-1.091-0.097-1.56-0.291c-0.467-0.194-0.869-0.451-1.204-0.771
			c-0.335-0.318-0.594-0.678-0.775-1.074c-0.183-0.396-0.273-0.795-0.273-1.191c0-0.355,0.059-0.656,0.174-0.9
			c0.116-0.244,0.275-0.441,0.479-0.596c0.203-0.152,0.44-0.266,0.714-0.336s0.567-0.105,0.882-0.105
			c0.266,0,0.521,0.033,0.771,0.101c0.249,0.065,0.422,0.12,0.521,0.161v3.713c0.323,0.033,0.602,0.018,0.832-0.05
			c0.232-0.065,0.422-0.167,0.571-0.304c0.148-0.137,0.259-0.306,0.329-0.504c0.069-0.199,0.104-0.414,0.104-0.646
			c0-0.216-0.05-0.435-0.148-0.658c-0.101-0.224-0.211-0.418-0.335-0.584l0.856-0.497c0.174,0.249,0.325,0.549,0.453,0.9
			c0.128,0.354,0.192,0.746,0.192,1.188c0,0.363-0.059,0.694-0.175,0.992c-0.115,0.299-0.282,0.555-0.503,0.77
			c-0.219,0.217-0.487,0.384-0.807,0.504C8.653,149.126,8.287,149.186,7.873,149.186z M6.755,145.087
			c-0.083-0.016-0.167-0.029-0.254-0.043c-0.087-0.012-0.181-0.019-0.279-0.019c-0.298,0-0.561,0.072-0.789,0.218
			c-0.228,0.146-0.342,0.403-0.342,0.775c0,0.373,0.146,0.723,0.441,1.05c0.294,0.326,0.701,0.563,1.223,0.714V145.087z"/>
		<path d="M10.902,139.65l1.812,0.348v1.328l-8.505-1.714v-1.079l0.745,0.024v-0.037c-0.258-0.29-0.471-0.604-0.641-0.944
			c-0.169-0.339-0.254-0.683-0.254-1.029c0-0.547,0.19-0.973,0.571-1.279s0.931-0.459,1.651-0.459c0.588,0,1.134,0.091,1.639,0.273
			c0.505,0.182,0.946,0.426,1.323,0.731c0.376,0.306,0.672,0.653,0.888,1.043c0.215,0.39,0.323,0.795,0.323,1.218
			c0,0.289-0.072,0.551-0.218,0.781c-0.145,0.23-0.337,0.422-0.576,0.57v0.025L10.902,139.65z M5.153,137.091
			c0,0.24,0.072,0.502,0.218,0.783c0.145,0.281,0.365,0.539,0.664,0.771l2.606,0.521c0.257-0.133,0.441-0.285,0.553-0.459
			c0.112-0.174,0.167-0.355,0.167-0.547c0-0.257-0.075-0.505-0.229-0.744c-0.153-0.24-0.362-0.451-0.627-0.633
			c-0.265-0.184-0.573-0.33-0.925-0.441c-0.353-0.111-0.727-0.168-1.124-0.168c-0.447,0-0.776,0.082-0.987,0.248
			C5.259,136.587,5.153,136.811,5.153,137.091z"/>
		<path d="M7.873,133.9c-0.571,0-1.091-0.098-1.56-0.291c-0.467-0.193-0.869-0.451-1.204-0.771
			c-0.335-0.317-0.594-0.676-0.775-1.073c-0.183-0.396-0.273-0.794-0.273-1.19c0-0.357,0.059-0.656,0.174-0.9
			c0.116-0.244,0.275-0.442,0.479-0.596c0.203-0.154,0.44-0.267,0.714-0.336c0.273-0.07,0.567-0.105,0.882-0.105
			c0.266,0,0.521,0.033,0.771,0.1s0.422,0.12,0.521,0.161v3.713c0.323,0.033,0.602,0.017,0.832-0.05
			c0.232-0.066,0.422-0.167,0.571-0.305c0.148-0.137,0.259-0.305,0.329-0.502c0.069-0.199,0.104-0.414,0.104-0.646
			c0-0.216-0.05-0.436-0.148-0.658c-0.101-0.224-0.211-0.418-0.335-0.584l0.856-0.496c0.174,0.248,0.325,0.549,0.453,0.899
			c0.128,0.353,0.192,0.747,0.192,1.187c0,0.364-0.059,0.695-0.175,0.994c-0.115,0.297-0.282,0.555-0.503,0.77
			c-0.219,0.216-0.487,0.383-0.807,0.503C8.653,133.841,8.287,133.9,7.873,133.9z M6.755,129.802
			c-0.083-0.016-0.167-0.029-0.254-0.043c-0.087-0.012-0.181-0.018-0.279-0.018c-0.298,0-0.561,0.071-0.789,0.217
			c-0.228,0.146-0.342,0.403-0.342,0.775c0,0.373,0.146,0.723,0.441,1.051c0.294,0.325,0.701,0.563,1.223,0.713V129.802z"/>
		<path d="M4.209,126.761v-1.08l1.18,0.111v-0.049c-0.381-0.24-0.697-0.521-0.95-0.846c-0.252-0.322-0.378-0.671-0.378-1.043
			c0-0.24,0.037-0.441,0.112-0.607l1.167,0.446c-0.042,0.074-0.068,0.161-0.081,0.261s-0.019,0.203-0.019,0.312
			c0,0.289,0.111,0.575,0.335,0.856c0.224,0.28,0.57,0.545,1.043,0.795l3.688,0.719v1.342L4.209,126.761z"/>
		<path d="M9.226,120.826v-1.677l-5.339-1.08v1.429l-0.844-0.174c-0.066-0.398-0.149-0.744-0.249-1.037
			c-0.101-0.295-0.229-0.574-0.385-0.838v-1.007l6.816,1.378v-1.527l1.08,0.213v4.543L9.226,120.826z"/>
		<path d="M10.455,112.593c0,0.646-0.246,1.157-0.739,1.534c-0.492,0.377-1.165,0.564-2.018,0.564c-0.812,0-1.551-0.095-2.217-0.285
			c-0.667-0.19-1.239-0.442-1.72-0.758c-0.479-0.314-0.851-0.674-1.111-1.08c-0.261-0.405-0.391-0.823-0.391-1.254
			c0-0.314,0.064-0.6,0.192-0.857c0.128-0.256,0.312-0.474,0.552-0.652c0.24-0.178,0.532-0.316,0.875-0.416
			c0.344-0.099,0.729-0.149,1.161-0.149c0.811,0,1.548,0.093,2.21,0.279c0.663,0.187,1.23,0.435,1.708,0.745
			c0.477,0.31,0.844,0.668,1.104,1.074C10.324,111.744,10.455,112.163,10.455,112.593z M3.291,111.401
			c0,0.273,0.128,0.532,0.385,0.776c0.256,0.245,0.594,0.462,1.012,0.652c0.418,0.191,0.898,0.342,1.44,0.453
			c0.542,0.112,1.099,0.168,1.67,0.168c0.521,0,0.921-0.076,1.198-0.229c0.276-0.153,0.416-0.387,0.416-0.702
			c0-0.273-0.126-0.532-0.379-0.776c-0.253-0.244-0.585-0.461-1-0.652c-0.414-0.19-0.891-0.341-1.429-0.453
			c-0.538-0.112-1.093-0.167-1.664-0.167c-0.521,0-0.927,0.077-1.217,0.229C3.436,110.853,3.291,111.087,3.291,111.401z"/>
		<path d="M10.455,106.46c0,0.646-0.246,1.157-0.739,1.534c-0.492,0.376-1.165,0.565-2.018,0.565c-0.812,0-1.551-0.095-2.217-0.286
			c-0.667-0.19-1.239-0.443-1.72-0.757c-0.479-0.314-0.851-0.675-1.111-1.081c-0.261-0.405-0.391-0.823-0.391-1.254
			c0-0.314,0.064-0.6,0.192-0.857c0.128-0.256,0.312-0.474,0.552-0.652c0.24-0.178,0.532-0.316,0.875-0.416
			c0.344-0.099,0.729-0.149,1.161-0.149c0.811,0,1.548,0.093,2.21,0.279c0.663,0.188,1.23,0.435,1.708,0.745
			c0.477,0.31,0.844,0.668,1.104,1.074C10.324,105.611,10.455,106.03,10.455,106.46z M3.291,105.268
			c0,0.273,0.128,0.532,0.385,0.776c0.256,0.245,0.594,0.462,1.012,0.652c0.418,0.191,0.898,0.342,1.44,0.454
			c0.542,0.111,1.099,0.167,1.67,0.167c0.521,0,0.921-0.077,1.198-0.23c0.276-0.153,0.416-0.387,0.416-0.701
			c0-0.273-0.126-0.532-0.379-0.776c-0.253-0.244-0.585-0.461-1-0.652c-0.414-0.19-0.891-0.341-1.429-0.453
			c-0.538-0.112-1.093-0.167-1.664-0.167c-0.521,0-0.927,0.077-1.217,0.229C3.436,104.72,3.291,104.954,3.291,105.268z"/>
		<path d="M7.115,99.792c-0.672,0-1.312-0.106-1.926-0.317c-0.611-0.211-1.152-0.505-1.621-0.881
			c-0.467-0.377-0.84-0.826-1.116-1.348c-0.277-0.522-0.416-1.092-0.416-1.713c0-0.472,0.113-0.881,0.341-1.229
			c0.228-0.348,0.527-0.629,0.899-0.845l0.708,0.919c-0.248,0.157-0.441,0.335-0.583,0.534c-0.141,0.198-0.211,0.43-0.211,0.695
			c0,0.414,0.112,0.792,0.335,1.136c0.225,0.344,0.517,0.64,0.875,0.888c0.36,0.248,0.769,0.443,1.224,0.583
			c0.456,0.141,0.919,0.211,1.391,0.211c0.339,0,0.65-0.035,0.931-0.105c0.282-0.07,0.521-0.182,0.721-0.335
			c0.199-0.153,0.354-0.348,0.466-0.583C9.244,97.167,9.3,96.883,9.3,96.551c0-0.29-0.062-0.561-0.187-0.813
			C8.99,95.486,8.829,95.24,8.63,95l0.856-0.584c0.24,0.273,0.462,0.611,0.664,1.012c0.203,0.401,0.305,0.863,0.305,1.384
			c0,0.464-0.079,0.88-0.236,1.248c-0.157,0.369-0.381,0.681-0.67,0.938c-0.29,0.257-0.64,0.453-1.049,0.59
			C8.091,99.725,7.628,99.792,7.115,99.792z"/>
		<path d="M8.232,93.249c-0.579,0-1.124-0.091-1.633-0.273S5.647,92.55,5.27,92.243c-0.376-0.306-0.672-0.656-0.888-1.049
			c-0.215-0.393-0.323-0.801-0.323-1.223c0-0.298,0.077-0.571,0.229-0.819s0.361-0.443,0.627-0.583v-0.025l-0.708-0.261v-1.068
			l6.097,1.217v1.093L9.46,89.463V89.5c0.298,0.29,0.538,0.611,0.72,0.962c0.182,0.352,0.273,0.702,0.273,1.049
			c0,0.538-0.19,0.962-0.571,1.272C9.503,93.094,8.953,93.249,8.232,93.249z M9.362,90.964c0-0.265-0.078-0.536-0.235-0.813
			s-0.422-0.54-0.794-0.789l-2.435-0.497c-0.265,0.141-0.455,0.3-0.57,0.478c-0.116,0.178-0.175,0.362-0.175,0.553
			c0,0.257,0.077,0.505,0.229,0.745c0.153,0.24,0.362,0.451,0.627,0.633s0.573,0.327,0.925,0.435
			c0.353,0.108,0.722,0.161,1.111,0.161c0.447,0,0.778-0.081,0.993-0.242C9.255,91.467,9.362,91.246,9.362,90.964z"/>
		<path d="M7.873,86.519c-0.571,0-1.091-0.097-1.56-0.292c-0.467-0.194-0.869-0.451-1.204-0.77s-0.594-0.677-0.775-1.074
			c-0.183-0.397-0.273-0.795-0.273-1.192c0-0.356,0.059-0.656,0.174-0.9c0.116-0.244,0.275-0.443,0.479-0.596
			c0.203-0.153,0.44-0.265,0.714-0.335c0.273-0.07,0.567-0.105,0.882-0.105c0.266,0,0.521,0.033,0.771,0.099s0.422,0.12,0.521,0.162
			v3.712c0.323,0.033,0.602,0.017,0.832-0.05c0.232-0.066,0.422-0.167,0.571-0.304c0.148-0.136,0.259-0.304,0.329-0.503
			c0.069-0.198,0.104-0.414,0.104-0.646c0-0.215-0.05-0.435-0.148-0.658c-0.101-0.223-0.211-0.418-0.335-0.583l0.856-0.497
			c0.174,0.249,0.325,0.548,0.453,0.9c0.128,0.353,0.192,0.747,0.192,1.187c0,0.364-0.059,0.695-0.175,0.994
			c-0.115,0.298-0.282,0.555-0.503,0.77C9.559,86.052,9.29,86.22,8.971,86.34C8.653,86.459,8.287,86.519,7.873,86.519z
			 M6.755,82.421C6.672,82.405,6.587,82.39,6.5,82.378c-0.087-0.012-0.181-0.019-0.279-0.019c-0.298,0-0.561,0.072-0.789,0.217
			c-0.228,0.145-0.342,0.403-0.342,0.776s0.146,0.723,0.44,1.049c0.295,0.327,0.702,0.565,1.224,0.714L6.755,82.421L6.755,82.421z"
			/>
		<path d="M8.642,80.149c0.266-0.199,0.468-0.42,0.608-0.664c0.141-0.244,0.211-0.503,0.211-0.776c0-0.29-0.077-0.54-0.23-0.751
			c-0.152-0.211-0.341-0.317-0.564-0.317c-0.19,0-0.354,0.087-0.49,0.261c-0.136,0.174-0.312,0.451-0.528,0.832
			C7.424,79.14,7.18,79.459,6.916,79.69c-0.266,0.232-0.584,0.348-0.956,0.348c-0.273,0-0.528-0.058-0.765-0.174
			c-0.235-0.116-0.437-0.275-0.603-0.479c-0.166-0.203-0.296-0.438-0.391-0.708c-0.096-0.269-0.144-0.557-0.144-0.863
			c0-0.397,0.083-0.755,0.248-1.074c0.166-0.319,0.373-0.598,0.621-0.838l0.708,0.745c-0.157,0.157-0.292,0.331-0.403,0.521
			c-0.11,0.19-0.167,0.406-0.167,0.646c0,0.282,0.074,0.514,0.224,0.695c0.148,0.182,0.332,0.273,0.546,0.273
			c0.116,0,0.215-0.029,0.298-0.087c0.083-0.058,0.161-0.137,0.236-0.236c0.073-0.1,0.145-0.211,0.211-0.335
			c0.065-0.124,0.137-0.252,0.211-0.385c0.239-0.455,0.493-0.795,0.758-1.019c0.265-0.223,0.583-0.335,0.956-0.335
			c0.298,0,0.566,0.06,0.807,0.18c0.24,0.12,0.445,0.288,0.614,0.502c0.17,0.216,0.3,0.472,0.391,0.77
			c0.092,0.298,0.138,0.621,0.138,0.969c0,0.19-0.029,0.387-0.087,0.59c-0.059,0.203-0.138,0.399-0.236,0.589
			c-0.099,0.191-0.221,0.369-0.366,0.534c-0.145,0.165-0.304,0.306-0.478,0.422L8.642,80.149z"/>
		<path d="M8.232,75.307c-0.579,0-1.124-0.091-1.633-0.273c-0.509-0.182-0.952-0.426-1.329-0.733
			c-0.376-0.306-0.672-0.656-0.888-1.049c-0.215-0.393-0.323-0.801-0.323-1.223c0-0.298,0.077-0.571,0.229-0.819
			s0.361-0.443,0.627-0.583v-0.025L4.209,70.34v-1.068l6.097,1.217v1.093L9.462,71.52v0.037c0.298,0.29,0.538,0.611,0.72,0.962
			c0.182,0.352,0.273,0.702,0.273,1.049c0,0.538-0.19,0.962-0.571,1.272C9.503,75.151,8.953,75.307,8.232,75.307z M9.362,73.022
			c0-0.265-0.078-0.536-0.235-0.813s-0.422-0.54-0.794-0.789l-2.435-0.497c-0.265,0.141-0.455,0.3-0.57,0.478
			c-0.116,0.178-0.175,0.362-0.175,0.553c0,0.257,0.077,0.505,0.229,0.745c0.153,0.24,0.362,0.451,0.627,0.633
			s0.573,0.327,0.925,0.435c0.353,0.108,0.722,0.161,1.111,0.161c0.447,0,0.778-0.081,0.993-0.242
			C9.255,73.525,9.362,73.303,9.362,73.022z"/>
		<path d="M4.209,67.472v-1.08l1.18,0.112v-0.05c-0.381-0.24-0.697-0.521-0.95-0.844c-0.252-0.323-0.378-0.67-0.378-1.043
			c0-0.24,0.037-0.443,0.112-0.608l1.167,0.447c-0.042,0.075-0.068,0.162-0.081,0.261c-0.013,0.1-0.019,0.203-0.019,0.311
			c0,0.29,0.111,0.576,0.335,0.857s0.57,0.546,1.043,0.794l3.688,0.72v1.341L4.209,67.472z"/>
		<path d="M7.873,64.082c-0.571,0-1.091-0.097-1.56-0.292c-0.467-0.194-0.869-0.451-1.204-0.77s-0.594-0.677-0.775-1.074
			c-0.183-0.397-0.273-0.795-0.273-1.192c0-0.356,0.059-0.656,0.174-0.9c0.116-0.244,0.275-0.443,0.479-0.596
			c0.203-0.153,0.44-0.265,0.714-0.335c0.273-0.07,0.567-0.105,0.882-0.105c0.266,0,0.521,0.033,0.771,0.099s0.422,0.12,0.521,0.162
			v3.712c0.323,0.033,0.602,0.017,0.832-0.05c0.232-0.066,0.422-0.167,0.571-0.304c0.148-0.136,0.259-0.304,0.329-0.503
			c0.069-0.198,0.104-0.414,0.104-0.646c0-0.215-0.05-0.435-0.148-0.658c-0.101-0.223-0.211-0.418-0.335-0.583L9.81,59.55
			c0.174,0.249,0.325,0.548,0.453,0.9c0.128,0.352,0.192,0.747,0.192,1.186c0,0.364-0.059,0.695-0.175,0.994
			c-0.115,0.298-0.282,0.555-0.503,0.77c-0.219,0.215-0.487,0.383-0.807,0.503C8.653,64.022,8.287,64.082,7.873,64.082z
			 M6.755,59.984c-0.083-0.017-0.167-0.031-0.254-0.043c-0.087-0.012-0.181-0.019-0.279-0.019c-0.298,0-0.561,0.072-0.789,0.217
			c-0.228,0.145-0.342,0.403-0.342,0.776s0.146,0.723,0.441,1.049c0.294,0.327,0.701,0.565,1.223,0.714V59.984z"/>
		<path d="M8.232,57.998c-0.579,0-1.124-0.091-1.633-0.273s-0.952-0.426-1.329-0.733c-0.376-0.306-0.672-0.656-0.888-1.049
			c-0.215-0.393-0.323-0.801-0.323-1.223c0-0.298,0.077-0.571,0.229-0.819s0.361-0.443,0.627-0.583v-0.025l-0.708-0.261v-1.068
			l6.097,1.217v1.093L9.46,54.212v0.037c0.298,0.29,0.538,0.611,0.72,0.962c0.182,0.352,0.273,0.702,0.273,1.049
			c0,0.538-0.19,0.962-0.571,1.272C9.503,57.843,8.953,57.998,8.232,57.998z M9.362,55.713c0-0.265-0.078-0.536-0.235-0.813
			s-0.422-0.54-0.794-0.789l-2.435-0.497c-0.265,0.141-0.455,0.3-0.57,0.478c-0.116,0.178-0.175,0.362-0.175,0.553
			c0,0.257,0.077,0.505,0.229,0.745c0.153,0.24,0.362,0.451,0.627,0.633s0.573,0.327,0.925,0.435
			c0.353,0.108,0.722,0.161,1.111,0.161c0.447,0,0.778-0.081,0.993-0.242C9.255,56.216,9.362,55.995,9.362,55.713z"/>
		<path d="M4.209,50.15v-1.08l0.856,0.062v-0.05c-0.272-0.323-0.509-0.656-0.708-1c-0.198-0.343-0.298-0.709-0.298-1.099
			c0-0.513,0.132-0.882,0.397-1.105c0.265-0.224,0.646-0.335,1.142-0.335c0.142,0,0.277,0.006,0.41,0.019s0.282,0.04,0.447,0.081
			l3.849,0.77v1.329L6.63,46.997c-0.142-0.025-0.261-0.047-0.36-0.068c-0.099-0.021-0.193-0.031-0.286-0.031
			c-0.521,0-0.781,0.257-0.781,0.77c0,0.216,0.074,0.445,0.224,0.689c0.149,0.244,0.389,0.528,0.72,0.851l4.16,0.819v1.341
			L4.209,50.15z"/>
		<path d="M8.642,41.807c0.266-0.199,0.468-0.42,0.608-0.664s0.211-0.503,0.211-0.776c0-0.29-0.077-0.54-0.23-0.751
			c-0.152-0.211-0.341-0.317-0.564-0.317c-0.19,0-0.354,0.087-0.49,0.261c-0.136,0.174-0.312,0.451-0.528,0.832
			c-0.224,0.406-0.468,0.725-0.731,0.956c-0.266,0.232-0.584,0.348-0.956,0.348c-0.273,0-0.528-0.058-0.765-0.174
			c-0.235-0.116-0.437-0.275-0.603-0.478s-0.296-0.438-0.391-0.708c-0.096-0.269-0.144-0.557-0.144-0.863
			c0-0.397,0.083-0.755,0.248-1.074C4.475,38.08,4.681,37.8,4.93,37.56l0.708,0.745c-0.157,0.157-0.292,0.331-0.403,0.521
			c-0.11,0.19-0.167,0.406-0.167,0.646c0,0.282,0.074,0.514,0.224,0.695c0.148,0.182,0.332,0.273,0.546,0.273
			c0.116,0,0.215-0.029,0.298-0.087s0.161-0.137,0.236-0.236c0.073-0.1,0.145-0.211,0.211-0.335
			c0.065-0.124,0.137-0.252,0.211-0.385c0.24-0.455,0.493-0.795,0.758-1.019c0.265-0.223,0.583-0.335,0.956-0.335
			c0.298,0,0.567,0.06,0.807,0.18c0.24,0.12,0.445,0.288,0.614,0.502c0.17,0.216,0.3,0.472,0.391,0.77
			c0.092,0.298,0.138,0.621,0.138,0.969c0,0.19-0.029,0.387-0.087,0.59c-0.059,0.203-0.138,0.399-0.236,0.589
			c-0.099,0.191-0.221,0.369-0.366,0.534c-0.145,0.165-0.304,0.306-0.478,0.422L8.642,41.807z"/>
		<path d="M7.873,36.989c-0.571,0-1.091-0.097-1.56-0.292c-0.467-0.194-0.869-0.451-1.204-0.771
			c-0.335-0.319-0.594-0.677-0.775-1.074c-0.183-0.397-0.273-0.795-0.273-1.192c0-0.356,0.059-0.656,0.174-0.9
			c0.116-0.244,0.275-0.443,0.479-0.596c0.203-0.153,0.44-0.265,0.714-0.335c0.273-0.07,0.567-0.105,0.882-0.105
			c0.266,0,0.521,0.033,0.771,0.099c0.249,0.066,0.422,0.12,0.521,0.162v3.712c0.323,0.033,0.602,0.017,0.832-0.05
			c0.232-0.066,0.422-0.167,0.571-0.304c0.148-0.136,0.259-0.304,0.329-0.503c0.069-0.198,0.104-0.414,0.104-0.646
			c0-0.215-0.05-0.435-0.148-0.658c-0.101-0.223-0.211-0.418-0.335-0.583l0.856-0.497c0.174,0.249,0.325,0.548,0.453,0.9
			s0.192,0.747,0.192,1.186c0,0.364-0.059,0.695-0.175,0.994c-0.115,0.298-0.282,0.555-0.503,0.77
			C9.559,36.522,9.29,36.69,8.971,36.81C8.653,36.929,8.287,36.989,7.873,36.989z M6.755,32.892
			C6.672,32.875,6.587,32.86,6.5,32.848C6.413,32.836,6.32,32.83,6.221,32.83c-0.298,0-0.561,0.072-0.789,0.217
			C5.204,33.192,5.09,33.45,5.09,33.823c0,0.373,0.146,0.723,0.44,1.049c0.295,0.327,0.702,0.565,1.224,0.714L6.755,32.892
			L6.755,32.892z"/>
		<path d="M7.972,30.893c-0.546,0-1.057-0.093-1.533-0.279c-0.476-0.188-0.89-0.439-1.242-0.758
			c-0.352-0.318-0.629-0.691-0.831-1.117c-0.203-0.426-0.305-0.875-0.305-1.347c0-0.373,0.074-0.691,0.225-0.956
			c0.148-0.265,0.322-0.48,0.521-0.646l0.807,0.745c-0.166,0.141-0.285,0.282-0.359,0.422c-0.074,0.141-0.112,0.314-0.112,0.521
			c0,0.273,0.075,0.534,0.225,0.782c0.148,0.248,0.35,0.465,0.602,0.652c0.253,0.186,0.546,0.335,0.882,0.447
			c0.335,0.112,0.693,0.168,1.074,0.168c0.464,0,0.822-0.102,1.074-0.304c0.252-0.203,0.379-0.511,0.379-0.925
			c0-0.24-0.048-0.453-0.144-0.64c-0.095-0.186-0.205-0.358-0.329-0.515l0.846-0.571c0.166,0.232,0.325,0.507,0.478,0.826
			c0.153,0.319,0.229,0.71,0.229,1.173c0,0.34-0.057,0.65-0.167,0.932c-0.111,0.282-0.273,0.525-0.484,0.732
			s-0.47,0.369-0.776,0.484C8.723,30.834,8.369,30.893,7.972,30.893z"/>
		<path d="M5.265,24.225v0.856l-0.994-0.199l-0.062-0.931l-1.64-0.484V22.35l1.64,0.323v-1.465l1.056,0.211v1.49l3.029,0.621
			c0.148,0.024,0.294,0.037,0.435,0.037c0.225,0,0.392-0.054,0.503-0.162c0.112-0.107,0.168-0.29,0.168-0.546
			c0-0.107-0.017-0.207-0.05-0.298c-0.033-0.091-0.07-0.182-0.112-0.273l0.944-0.249c0.066,0.149,0.128,0.331,0.187,0.546
			c0.058,0.215,0.087,0.463,0.087,0.745c0,0.571-0.144,0.979-0.429,1.223c-0.285,0.245-0.64,0.367-1.062,0.367
			c-0.125,0-0.244-0.008-0.36-0.025s-0.235-0.033-0.359-0.05L5.265,24.225z"/>
		<path d="M3.129,18.96c0,0.19-0.061,0.364-0.18,0.521c-0.12,0.157-0.292,0.236-0.516,0.236c-0.24,0-0.445-0.087-0.615-0.261
			s-0.255-0.385-0.255-0.633c0-0.19,0.062-0.364,0.181-0.521c0.119-0.157,0.292-0.236,0.516-0.236c0.248,0,0.455,0.087,0.621,0.261
			C3.047,18.501,3.129,18.711,3.129,18.96z M4.209,19.941v-1.329l6.097,1.217v1.341L4.209,19.941z"/>
		<path d="M10.455,15.632c0,0.339-0.059,0.65-0.175,0.931c-0.115,0.282-0.28,0.521-0.496,0.72c-0.217,0.199-0.477,0.352-0.782,0.459
			c-0.307,0.107-0.65,0.161-1.031,0.161c-0.579,0-1.111-0.097-1.596-0.292c-0.484-0.194-0.896-0.449-1.235-0.764
			c-0.339-0.314-0.604-0.672-0.794-1.074c-0.19-0.401-0.286-0.809-0.286-1.223c0-0.695,0.223-1.25,0.664-1.664
			c0.443-0.414,1.049-0.621,1.819-0.621c0.58,0,1.108,0.098,1.589,0.292c0.479,0.194,0.892,0.449,1.235,0.764
			c0.344,0.314,0.609,0.672,0.801,1.074C10.36,14.798,10.455,15.21,10.455,15.632z M5.141,14.688c0,0.24,0.073,0.474,0.217,0.702
			c0.146,0.228,0.343,0.428,0.591,0.602c0.248,0.174,0.542,0.312,0.882,0.416s0.704,0.155,1.092,0.155
			c0.464,0,0.822-0.091,1.074-0.273s0.379-0.451,0.379-0.807c0-0.24-0.072-0.472-0.217-0.695c-0.146-0.224-0.345-0.422-0.597-0.596
			c-0.252-0.174-0.548-0.312-0.888-0.416s-0.704-0.155-1.093-0.155c-0.463,0-0.819,0.091-1.068,0.273
			C5.265,14.076,5.141,14.341,5.141,14.688z"/>
		<path d="M4.209,10.331V9.25l0.856,0.062v-0.05c-0.272-0.323-0.509-0.656-0.708-1C4.16,7.92,4.061,7.554,4.061,7.165
			c0-0.513,0.132-0.882,0.397-1.105C4.723,5.836,5.104,5.724,5.6,5.724c0.142,0,0.277,0.006,0.41,0.019
			c0.133,0.013,0.282,0.04,0.447,0.081l3.849,0.77v1.329L6.631,7.177C6.49,7.152,6.37,7.129,6.271,7.108
			c-0.1-0.02-0.194-0.03-0.286-0.03c-0.521,0-0.781,0.257-0.781,0.77c0,0.216,0.074,0.445,0.224,0.689s0.389,0.528,0.72,0.851
			l4.16,0.819v1.341L4.209,10.331z"/>
		<path d="M8.642,4.408C8.907,4.209,9.11,3.988,9.25,3.744C9.392,3.5,9.462,3.241,9.462,2.967c0-0.29-0.077-0.54-0.23-0.751
			C9.079,2.005,8.891,1.899,8.667,1.899c-0.19,0-0.354,0.087-0.49,0.261C8.041,2.334,7.864,2.611,7.649,2.992
			C7.425,3.398,7.181,3.717,6.917,3.948C6.651,4.18,6.333,4.296,5.96,4.296c-0.273,0-0.528-0.058-0.765-0.174
			C4.96,4.006,4.76,3.847,4.594,3.644C4.429,3.441,4.298,3.206,4.203,2.937C4.108,2.667,4.061,2.38,4.061,2.073
			c0-0.397,0.083-0.755,0.248-1.074C4.475,0.681,4.681,0.401,4.93,0.161l0.708,0.745C5.48,1.063,5.346,1.237,5.234,1.428
			C5.122,1.619,5.066,1.833,5.066,2.073c0,0.282,0.074,0.514,0.224,0.695C5.438,2.95,5.621,3.041,5.835,3.041
			c0.116,0,0.215-0.029,0.298-0.087C6.217,2.897,6.295,2.818,6.37,2.719c0.073-0.1,0.145-0.211,0.211-0.335
			C6.647,2.26,6.718,2.131,6.792,1.999C7.032,1.544,7.285,1.204,7.55,0.98c0.265-0.223,0.583-0.335,0.956-0.335
			c0.298,0,0.567,0.06,0.807,0.18c0.24,0.12,0.445,0.288,0.614,0.502c0.17,0.216,0.3,0.472,0.391,0.77
			c0.092,0.298,0.138,0.621,0.138,0.969c0,0.19-0.029,0.387-0.087,0.59c-0.059,0.203-0.138,0.399-0.236,0.589
			c-0.099,0.192-0.221,0.37-0.366,0.535C9.621,4.945,9.462,5.086,9.288,5.203L8.642,4.408z"/>
	</g>
</g>
</svg>
