<?xml version="1.0" encoding="utf-8"?>
<!-- Generator: Adobe Illustrator 15.1.0, SVG Export Plug-In . SVG Version: 6.00 Build 0)  -->
<!DOCTYPE svg PUBLIC "-//W3C//DTD SVG 1.1//EN" "http://www.w3.org/Graphics/SVG/1.1/DTD/svg11.dtd">
<svg version="1.1" id="Layer_1" xmlns="http://www.w3.org/2000/svg" xmlns:xlink="http://www.w3.org/1999/xlink" x="0px" y="0px"
	 width="411.023px" height="412.516px" viewBox="0 0 411.023 412.516" enable-background="new 0 0 411.023 412.516"
	 xml:space="preserve">
<metadata><?xpacket begin="﻿" id="W5M0MpCehiHzreSzNTczkc9d"?>
<x:xmpmeta xmlns:x="adobe:ns:meta/" x:xmptk="Adobe XMP Core 5.0-c060 61.134777, 2010/02/12-17:32:00        ">
   <rdf:RDF xmlns:rdf="http://www.w3.org/1999/02/22-rdf-syntax-ns#">
      <rdf:Description rdf:about=""
            xmlns:dc="http://purl.org/dc/elements/1.1/">
         <dc:format>image/svg+xml</dc:format>
         <dc:title>
            <rdf:Alt>
               <rdf:li xml:lang="x-default">Print</rdf:li>
            </rdf:Alt>
         </dc:title>
      </rdf:Description>
      <rdf:Description rdf:about=""
            xmlns:xmp="http://ns.adobe.com/xap/1.0/"
            xmlns:xmpGImg="http://ns.adobe.com/xap/1.0/g/img/">
         <xmp:MetadataDate>2015-02-25T17:21:34+02:00</xmp:MetadataDate>
         <xmp:ModifyDate>2015-02-25T17:21:34+02:00</xmp:ModifyDate>
         <xmp:CreateDate>2015-02-25T17:21:34+02:00</xmp:CreateDate>
         <xmp:CreatorTool>Adobe Illustrator CS5.1</xmp:CreatorTool>
         <xmp:Thumbnails>
            <rdf:Alt>
               <rdf:li rdf:parseType="Resource">
                  <xmpGImg:width>256</xmpGImg:width>
                  <xmpGImg:height>256</xmpGImg:height>
                  <xmpGImg:format>JPEG</xmpGImg:format>
                  <xmpGImg:image>/9j/4AAQSkZJRgABAgEAyQDJAAD/7QAsUGhvdG9zaG9wIDMuMAA4QklNA+0AAAAAABAAyQAAAAEA&#xA;AQDJAAAAAQAB/+4ADkFkb2JlAGTAAAAAAf/bAIQABgQEBAUEBgUFBgkGBQYJCwgGBggLDAoKCwoK&#xA;DBAMDAwMDAwQDA4PEA8ODBMTFBQTExwbGxscHx8fHx8fHx8fHwEHBwcNDA0YEBAYGhURFRofHx8f&#xA;Hx8fHx8fHx8fHx8fHx8fHx8fHx8fHx8fHx8fHx8fHx8fHx8fHx8fHx8fHx8f/8AAEQgBAAEAAwER&#xA;AAIRAQMRAf/EAaIAAAAHAQEBAQEAAAAAAAAAAAQFAwIGAQAHCAkKCwEAAgIDAQEBAQEAAAAAAAAA&#xA;AQACAwQFBgcICQoLEAACAQMDAgQCBgcDBAIGAnMBAgMRBAAFIRIxQVEGE2EicYEUMpGhBxWxQiPB&#xA;UtHhMxZi8CRygvElQzRTkqKyY3PCNUQnk6OzNhdUZHTD0uIIJoMJChgZhJRFRqS0VtNVKBry4/PE&#xA;1OT0ZXWFlaW1xdXl9WZ2hpamtsbW5vY3R1dnd4eXp7fH1+f3OEhYaHiImKi4yNjo+Ck5SVlpeYmZ&#xA;qbnJ2en5KjpKWmp6ipqqusra6voRAAICAQIDBQUEBQYECAMDbQEAAhEDBCESMUEFURNhIgZxgZEy&#xA;obHwFMHR4SNCFVJicvEzJDRDghaSUyWiY7LCB3PSNeJEgxdUkwgJChgZJjZFGidkdFU38qOzwygp&#xA;0+PzhJSktMTU5PRldYWVpbXF1eX1RlZmdoaWprbG1ub2R1dnd4eXp7fH1+f3OEhYaHiImKi4yNjo&#xA;+DlJWWl5iZmpucnZ6fkqOkpaanqKmqq6ytrq+v/aAAwDAQACEQMRAD8A9U4q7FXYql72dpcatOZ4&#xA;I5isEPEyKrUq8vSoxVW/ROlf8sUH/IpP6Yq79E6V/wAsUH/IpP6Yq79E6V/yxQf8ik/pirv0TpX/&#xA;ACxQf8ik/piqXWHlzy9JDI8ml2juZ7irNBESf379yuKon/DHlr/q02f/AEjxf804q7/DHlr/AKtN&#xA;n/0jxf8ANOKu/wAMeWv+rTZ/9I8X/NOKu/wx5a/6tNn/ANI8X/NOKu/wx5a/6tNn/wBI8X/NOKu/&#xA;wx5a/wCrTZ/9I8X/ADTiqnD5e8sTIXTSbOgZ0NbeLqjFD+z4riqp/hjy1/1abP8A6R4v+acVd/hj&#xA;y1/1abP/AKR4v+acVd/hjy1/1abP/pHi/wCacVd/hjy1/wBWmz/6R4v+acVd/hjy1/1abP8A6R4v&#xA;+acVd/hjy1/1abP/AKR4v+acVd/hjy1/1abP/pHi/wCacVQ9x5e0CK7sGi0y0jb12HJYI1NPQl8F&#xA;xVMP0TpX/LFB/wAik/pirv0TpX/LFB/yKT+mKu/ROlf8sUH/ACKT+mKu/ROlf8sUH/IpP6YqpWlt&#xA;b2+p3KwRJEphgJVFCgnnLvtiqPxV2KuxV2KuxV2KoWP/AI6tx/xgg/4nNiqKxV2KuxV2KoXTP95n&#xA;/wCM9x/yffFUVirsVUp7qCDiJCeTV4oqs7mnWiqCxpXfbFVIahECBNHJb1+y0i/DQ9CXXki1O1GI&#xA;PtiqKxV2KoXTP95n/wCM9x/yffFUVirsVdiqlPcwwAeo3xN9iNQWdqdeKipNO+KrIvrkrh5KQRDc&#xA;RbM7f67bqPkv/BdsVRGKuxVC3v8AvTYf8Z2/5MS4qisVdirsVdiqFj/46tx/xgg/4nNiqKxV2Kux&#xA;V2KuxV2KoWP/AI6tx/xgg/4nNiqKxV2KuxV2KoXTP95n/wCM9x/yffFUVirsVQun/Gklw27zSP8A&#xA;F/kI5WMe3w708Se+KoogMCCKg7EHoRiqXW99HA9xauJW+rycEZYpZBxZVkAqqsPh58foxVX/AEnb&#xA;fyT/APSPP/zRiqE03UrcW7/BP/f3H/HvP/v9/wDIxVF/pO2/kn/6R5/+aMVd+k7b+Sf/AKR5/wDm&#xA;jFVkd3LeqTaH04KlWuGHx1U8WCRnoQair9/2SMVREFrDCSygtI/25WPJ2p4k/q6DtiqrirsVdiqF&#xA;vf8Aemw/4zt/yYlxVFYq7FXYq7FULH/x1bj/AIwQf8TmxVFYq7FXYq7FXYq7FULH/wAdW4/4wQf8&#xA;TmxVFYq7FXYq7FULpn+8z/8AGe4/5PviqKxV2KoNHFkXSUH6uztIkwBIX1GLsJKfZAYk8jtTr7qr&#xA;v0pZNtBILl+yQESH6SNl+bEDFVS0geKNjIQZpWMkpHTkdgB02VQFHyxVWxVC6Z/vM/8AxnuP+T74&#xA;qisVdiqhNZo7mWNjDOesqftU6cx0b6enamKrPrckG14oRf8AlpSvpH/Wrun07f5WKooEEVG4PQ4q&#xA;7FXYqhb3/emw/wCM7f8AJiXFUVirsVdirsVQsf8Ax1bj/jBB/wATmxVFYq7FXYq7FXYq7FULH/x1&#xA;bj/jBB/xObFUVirsVdirsVQumf7zP/xnuP8Ak++KorFXYq7FXYq7FXYqhdM/3mf/AIz3H/J98VRW&#xA;KuxV2KuxVDx2aQyBoGMUf7cA/uz8l/ZP+r171xVEYq7FULe/702H/Gdv+TEuKorFXYq7FXYqhY/+&#xA;Orcf8YIP+JzYqisVdirsVdirsVdiqFj/AOOrcf8AGCD/AInNiqKxV2KuxV2KpfbSXVujxGzlf97M&#xA;4dGhoQ8rOCOUino3hiqt9duf+WCf/goP+quKu+u3P/LBP/wUH/VXFXfXbn/lgn/4KD/qrirvrtz/&#xA;AMsE/wDwUH/VXFXfXbn/AJYJ/wDgoP8Aqrirvrtz/wAsE/8AwUH/AFVxVoXlwOlhP98H/VXFW/rt&#xA;z/ywT/8ABQf9VcVd9duf+WCf/goP+quKu+u3P/LBP/wUH/VXFXfXbn/lgn/4KD/qrirvrtz/AMsE&#xA;/wDwUH/VXFXfXbn/AJYJ/wDgoP8Aqrirvrtz/wAsE/8AwUH/AFVxVTd7me5tSbWSJIpC7u5ipT0n&#xA;T9h2PVh2xVHYq7FXYq7FULH/AMdW4/4wQf8AE5sVRWKuxV2KuxV2KuxVCx/8dW4/4wQf8TmxVFYq&#xA;7FXYq7FXYq7FXYq7FXmXmDzH+adp5q1RdI0uS905Z7W006GSIfVxDJFG9zeM4SN29KQsoUT/ABUp&#xA;wGzhVAWnnb887iOFv8LWsJbg0glimXaSOUlAPXNDHLCqFj1V1eg+ziq1POX53xWVV8tpNLMFaD14&#xA;maSJpIXl4TelJCjKswEFVA4rR2LnqqtTzh+dttNLM2gHUI2SYi39D0VVoJGcIn7znyeKYKHZ2VvR&#xA;AVauWxVMtY80/m9aWWmzW+jRT3RF8uoQw2ssqMY7+O3tXQeurrytS0/Fm36VHZVJf8Xfn0qTTHQu&#xA;bw3YcQCBQhjpLbSQ/bMkkSEx3aMhVm/u+R3GKvX9MkvZdNtJb6NYr54Y2uooySiylQXVS1DQNUCu&#xA;KonFXYq7FXYq7FXYq7FXYq7FULH/AMdW4/4wQf8AE5sVRWKuxV2KuxV2KuxVCx/8dW4/4wQf8Tmx&#xA;VFYq7FXYq7FXYq7FXYq7FXYq7FXYq7FXYq7FXYq7FXYq7FXYq7FXYq7FXYq7FULH/wAdW4/4wQf8&#xA;TmxVFYq7FXYq7FXYq7FULH/x1bj/AIwQf8TmxVFYq7FXYq7FXYq7FXYq7FXYq7FXYq7FXYq7FXYq&#xA;7FXYq7FXYq7FXYq7FXYq7FULH/x1bj/jBB/xObFUVirsVdirsVdirsVQsf8Ax1bj/jBB/wATmxVF&#xA;Yq7FXYq7FXYq7FXYq7FXYq7FXYq7FXYq7FXYq7FXYq7FXYq7FXYq7FXYq7FULH/x1bj/AIwQf8Tm&#xA;xVFYq7FXYq7FXYq7FUqKzzeYLuJLh4FjtLVv3YjNS8lwDXmr/wAvbFUdYTPPY200n25YkdqbCrKC&#xA;cVV8VdirsVdirsVdirsVdirsVdirsVdirsVdirsVdirsVdirsVdirsVdiqH1CSSO2rG3Bmkij5gA&#xA;kCSRUJFQRWjYqg7L1k129heZpgtraurOEBBaS4BHwKgp8PhiqaYq7FXYq7FXYq7FUtt/+Ulv/wDm&#xA;Ds/+Tt1iqI0n/jlWX/GCL/iAxVFYq7FXYq7FXYq7FXYq7FXYq7FXYq7FXYq7FXYq7FXYq7FXYq7F&#xA;XYq7FULqf+8yf8Z7f/k+mKoe3/5SW/8A+YOz/wCTt1iqZYq7FXYq7FXYq7FUtt/+Ulv/APmDs/8A&#xA;k7dYqiNJ/wCOVZf8YIv+IDFUVirsVdirsVdirsVdirsVdirsVdirsVdirsVdirsVdirsVdirsVdi&#xA;rsVQup/7zJ/xnt/+T6Yqh7f/AJSW/wD+YOz/AOTt1iqZYq7FXYq7FXYq7FUtt/8AlJb/AP5g7P8A&#xA;5O3WKojSf+OVZf8AGCL/AIgMVRWKuxV2KuxV2KuxV2KuxV2KuxV2KuxV2KuxV2KuxV2KuxV2KuxV&#xA;2KuxVC6n/vMn/Ge3/wCT6Yqh7f8A5SW//wCYOz/5O3WKplirsVdirsVdirsVS23/AOUlv/8AmDs/&#xA;+Tt1iqBvfNXl/wAteXtNvtdvEsLKYQWy3Mob0lkeOq+o6grGvwn43IX33GKp+jo6K6MGRgCrA1BB&#xA;3BBGKt4q7FXYq7FXYq7FXYq7FXYq7FXYq7FXYq7FXYq7FXYq7FXYq7FXYqwTSvPGpax5g1LQrjTF&#xA;gTS7oLJfxySvExS6gESJzhjV2MchMlH+AgDeuyrKbf8A5SW//wCYOz/5O3WKplirsVdiqFN1JOeN&#xA;mAy97l/7of6tCC5+W3vXbFVOC8vhBGJrGYzBR6pVoOJanxU/edK4qqfXbn/lgn/4KD/qriqDsJkn&#xA;126nSvCWwsXWvWjSXJFcVeYfnxLbyeQdA0+e1edZp4pkb07qROdvaSyKtbNklDVHM7j4FcghgMVe&#xA;sWt7Eun2kjEM80SGOOJmk5EqD8BajMN/tH5mmKtGfU1nRzb87dlasMZT1Faq8SzO6ruK7L08Tiqp&#xA;9duf+WCf/goP+quKtw3pecQSW8kDsrOvMxkEKVB+w7/zjFUTirsVdirsVdiqjPdRQkIavM26Qpu5&#xA;+jsPc7YqhxNqcc7tLB6sTqvppAUqjAty5NIycqjj0H9qqp9duf8Algn/AOCg/wCquKrre8M00kLQ&#xA;SQyRqjkScDUOWApwZ/5DiqIxV2KuxV2KuxVRnukjcRIDLcMKrCvWnixOyrt1P0b7YqhxPqcc7iW2&#xA;M0bKrIYCgCtVuSkyOhag470xVU+u3P8AywT/APBQf9VcVX2l39Y9UGJ4Whf03SThWvBXqODOKUfF&#xA;Xlfl3y/q1p+bXmvVLiCRLC6e3Ftc/U+CS8ri2+E3biJ2MRRuKIhT4iS7Nir0eJ0TzFqDuwVFsrQs&#xA;xNAAJbokknFVae5vpYJHsYxRVJjeQUMjAbKqkrQE7cmI+kb4qqfXbn/lgn/4KD/qriq19Rkj4mSy&#xA;nRWdI+ZMJAMjhATSQmlWxVd9Ukg3siEX/lmbaI/6tASh+W3tXfFVOCzvjBGZr6YTFR6oVYOIanxU&#xA;/d9K4qqfUrn/AJb5/wDgYP8AqliqDsIUg126gSvCKwsUWvWiyXIFcVeUfn5q8Fv5P8t6ddtDFY3T&#xA;pcTtOxZJBbxBfReEPDVS06vzMoVSo5bYq9hgtYJrK1NKMka+jKlAy1UfZIrtt06H3xVaYNTadENx&#xA;wt1VqzRhPUZqrxDK6MuwruvXwGKqn1K5/wCW+f8A4GD/AKpYq3DZFJxPJcSTuqsi8xGAAxUn7CJ/&#xA;IMVROKuxV2KuxV2KqM9pFMwk3SZRRJkNHAO9K9x/kmo9sVQ4h1OSd1ln9KJFX03gCVdiW5clkV+N&#xA;Bx6H+xVU+pXP/LfP/wADB/1SxVdb2ZhmkmaeSaSRUQmTgKBCxFOCp/OcVRGKuxV2KuxV2KqE9okj&#xA;+shMVwBxWZetBU8WHRl3Ox+ih3xVQEGpyTuZbkwxqqqggCEM1W5MRIjlajjtXFVT6lc/8t8//Awf&#xA;9UsVX2lp9X9UmV5mmf1HeThWvBUoOCoKUTFXlPlu+nj/ADX80adHOPqMkyXJt+d3xM63FmGeJJiY&#xA;Sw9Wk3pbKSnXlsq9JjRJPMOoxyKHR7G0V0YVBBlugQQcVVp7a+igkSxkFGUiNJDUxsRsysQ1QDvx&#xA;YH6Btiqp9Suf+W+f/gYP+qWKrX06STiJL2d1V0k4EQgExuHANIwaVXFUZirsVdiqW2//ACkt/wD8&#xA;wdn/AMnbrFUo1TyN5a81aRpK65BNOtnCj2wiurq1Cuyoef8Ao0sPJhwHFjuu9KVOKsoRQiKoqQoA&#xA;FSWO3iTUnFW8VdirsVdirsVdirsVQh1CQzzRR2k0voMEaRTEFJKK+3KRT0fwxVv67c/8sE//AAUH&#xA;/VXFXfXbn/lgn/4KD/qrirvrtz/ywT/8FB/1VxV3125/5YJ/+Cg/6q4q5b9/WiiltZYfWYojuYiK&#xA;hS9Dwdj0U9sVRWKuxV2KuxV2KuxV2KuxV51of5f6xofmjUNevdSi1D9JOizy8JlnZmvYngB9aa4V&#xA;FhjBjCxcFOx4VGKszt/+Ulv/APmDs/8Ak7dYqmWKuxV2KuxV2KuxVLbf/lJb/wD5g7P/AJO3WKoj&#xA;Sf8AjlWX/GCL/iAxVFYq7FXYq7FXYq7FXYq7FULZf703/wDxnX/kxFiqKxV2KuxV2KoW9/3psP8A&#xA;jO3/ACYlxVFYq7FXYq7FXYq7FXYq7FULqf8AvMn/ABnt/wDk+mKoe3/5SW//AOYOz/5O3WKplirs&#xA;VdirsVdirsVS23/5SW//AOYOz/5O3WKojSf+OVZf8YIv+IDFUVirsVdirsVdirsVdirsVQtl/vTf&#xA;/wDGdf8AkxFiqKxV2KuxV2KoW9/3psP+M7f8mJcVRWKuxV2KuxV2KuxV2KuxVC6n/vMn/Ge3/wCT&#xA;6Yqh7f8A5SW//wCYOz/5O3WKplirsVdirsVdirsVS23/AOUlv/8AmDs/+Tt1iqI0n/jlWX/GCL/i&#xA;AxVFYq7FXYq7FXYq7FXYq7FULZf703//ABnX/kxFiqKxV2KuxV2KoW9/3psP+M7f8mJcVRWKuxV2&#xA;KuxV2KuxV2KuxVC6n/vMn/Ge3/5PpiqHt/8AlJb/AP5g7P8A5O3WKplirsVdirsVdirsVSotPD5g&#xA;u5Ut3nWS0tV/dmMUKSXBNebJ/N2xVHWELwWNtDJ9uKJEam4qqgHFVfFXYq7FXYq7FXYq7FXYqhbL&#xA;/em//wCM6/8AJiLFUVirsVdirsVQt7/vTYf8Z2/5MS4qisVdirsVdirsVdirsVdiqH1COSS2pGvN&#xA;lkik4AgEiORXIFSBWi4qg7L1n129meFoQ1raoquUJJWS4JPwM4p8XjiqaYq7FXYq7FXYq7FULH/x&#xA;1bj/AIwQf8TmxVFYq7FXYq7FVCa7CP6UaNNN1KJT4QehZiQB+vwGKrPU1X/lng/5Hv8A9UcVcLyW&#xA;I0u4fRU/7uRvUiHsWorL8ytPfFUVirsVQtl/vTf/APGdf+TEWKorFXYq7FXYqhb3/emw/wCM7f8A&#xA;JiXFUVirTMqqWYhVUVZjsAB3OKob63cy72tvyj7STMYlb/VAV2+9R7VxV3q6oNzbQkdwJ2r9FYgP&#xA;xxVUguklJQq0Uy7tE9AwHjsSCPcEjFVbFXYq7FXYqhY/+Orcf8YIP+JzYqisVdirsVdirsVdiqFj&#xA;/wCOrcf8YIP+JzYqisVdirsVULyZ4ogI6etKwjiB3HJu9O/Fasfliq+CCOCMInzZj1Zj1YnxOKqm&#xA;KuIBFDuD1GKoW3JguGtD/dlfUt69lrR0/wBgSPoanbFUViqFsv8Aem//AOM6/wDJiLFUViqA1zXd&#xA;K0LTJtT1W4W2soFLSSNUnYVoqirM1Bsqgk4qv0bWdM1rTYNT0ucXVhcgtb3ChgsihivJeQFVJHwt&#xA;0I3G2KozFULe/wC9Nh/xnb/kxLiqKxVCEC5u2Rt4LYjkp6NKQGFR/kKQR7nxGKovFXYqo3UBljqh&#xA;4TpvC/g3v/knuMVXW04ngSUDjyHxIeqsNmU+6nY4qqYq7FXYqhY/+Orcf8YIP+JzYqisVdirsVdi&#xA;rsVdiqFj/wCOrcf8YIP+JzYqisVdirsVQt7/AL02H/Gdv+TEuKorFXYq7FULcf8AHQtOH95SXn/x&#xA;ioOX/JT08VRWKoWy/wB6b/8A4zr/AMmIsVRWKsX/ADQe2T8v9cM8iRVtXSF3lig/fOOEIWScGNXa&#xA;Rgq8upNMVS/8kolj/LDReEP1eOQXM0cXOGSiTXUsikvbqkbcleuwHvvXFWcYqhb3/emw/wCM7f8A&#xA;JiXFUViqF077E5b+99eX1PH7VEr/AM8uNPbFUVirsVdiqF0z/eZ/+M9x/wAn3xVFYq7FXYqhY/8A&#xA;jq3H/GCD/ic2KorFXYq7FXYq7FXYqhY/+Orcf8YIP+JzYqisVdirsVUL2F5Ig0X99Ewkirt8S/s1&#xA;7clqp+eKqkMyTRiROh6g7EEdQR2IxVfiriQBU7AdTiqFtwZ7hrs/3YX07f3UkF3/ANmQKewr3xVF&#xA;YqhbL/em/wD+M6/8mIsVRWKoLWdF03WbE2WoxGW3LJIArvEyvGwZGV42R1ZWFQVOKrNA0HTtB0uP&#xA;TNOWRbSN5pV9aaW4kL3ErzyM8szSSOWkkY1ZicVTDFULe/702H/Gdv8AkxLiqKxVCn/RrxmO0N0V&#xA;q3ZZQAor/rqAB7jxbFUVirsVUbqcxR0Qc532hTxb3/yR3OKrraAQQJEDy4j4nPVmO7MfdjucVVMV&#xA;dirsVQsf/HVuP+MEH/E5sVRWKuxV2KuxV2KuxVCx/wDHVuP+MEH/ABObFUVirsVdirsVUJrTk5lh&#xA;kaCY/adaENToHU7H59fAjFVnHVR8POB+X+7ODrx/2HJudf8AWXFXCzllP+mSiZR0hRfTjPuwJdm+&#xA;luPtXfFUVirsVQtl/vTf/wDGdf8AkxFiqKxV2KuxV2KoW9/3psP+M7f8mJcVRWKtOiOjI6hkYEMp&#xA;FQQdiCDiqG+q3ce1tc0T+SdDKF/1SGRv+CJ9qYq7jqr/ALcENNqBXlJ/yq8o6fKh+eKqkFqkRLlm&#xA;lmbZpXoWI8NgAB7AAYqrYq7FXYq7FULH/wAdW4/4wQf8TmxVFYq7FXYq7FXYq7FULH/x1bj/AIwQ&#xA;f8TmxVFYq7FXYq7FWG/mB5BufNtxppXUnsINNS4miEQUsb0mI2zksrfAgSTlxKv8WzDfFWG3P5Pf&#xA;mDPwmbzU5vEUGOaWe6m9Iq13tH6rMORW4hpLTkrR/CACQVU40b8t/O1trGm3mqeaLjUbWyuLeeW1&#xA;kuLgCQQQXMNCVKKamSGRhxo7KeW2xVemYq7FULZf703/APxnX/kxFiqKxV2KuxV2KoW9/wB6bD/j&#xA;O3/JiXFWGfmB5A8yeZNSW80rXDpLQW8UdqAiyATxzNciV1ZTXjPFbMoVhXi3Ko2xVjN7+UX5j31u&#xA;1pd+bnuLURL6CzzXEjLNG0E8DsR6YZoLmBnSSgchqE/CpxVVsvym8/aat5+i/M7Wouw8iQme6kWK&#xA;6QTR20/NiWlEcLQK8b/DIUq3hiqMsfy0/MKK4sJp/OF2Ut75Zri2S5uGVrQSPL6HOXmXKlwlXHxI&#xA;oBI3qqp6l+W/5q3mpapcR+d5Le0uri4fT7SL1kEEE7ymMFlapaD9wyjo1HQ/A2yqF1D8o/zFm1Kf&#xA;UbXzlPbz3lrFb3RSSZXLR3Dz/BKefpoBPKiKq0Ap33xV6V5X0e+0nSvq9/fy6lfSyyz3F1M7vVpX&#xA;JCRq5PCNFoqqtBtXqTiqbYq7FULH/wAdW4/4wQf8TmxVFYq7FXYq7FXYq7FULH/x1bj/AIwQf8Tm&#xA;xVFYq7FXYq7FXYq7FXYq7FXYqhbL/em//wCM6/8AJiLFUVirsVdirsVQt7/vTYf8Z2/5MS4qisVd&#xA;irsVdirsVdirsVdirsVQsf8Ax1bj/jBB/wATmxVFYq7FXYq7FXYq7FULH/x1bj/jBB/xObFUVirs&#xA;VdirsVdirsVdirsVdiqFsv8Aem//AOM6/wDJiLFUVirsVdirsVQt7/vTYf8AGdv+TEuKorFXYq7F&#xA;XYq7FXYq7FXYq7FULH/x1bj/AIwQf8TmxVFYq7FXYq7FXYq7FULH/wAdW4/4wQf8TmxVFYq7FXYq&#xA;7FXYq7FXYq7FXYqhbL/em/8A+M6/8mIsVRWKuxV2KuxVC3v+9Nh/xnb/AJMS4qisVdirsVdirsVd&#xA;irsVdirsVQsf/HVuP+MEH/E5sVRWKuxV2KuxV2KuxVL3vLS31acTzxwloIeIkZVrR5elTiqt+ltK&#xA;/wCW2D/kan9cVd+ltK/5bYP+Rqf1xV36W0r/AJbYP+Rqf1xV36W0r/ltg/5Gp/XFXfpbSv8Altg/&#xA;5Gp/XFXfpbSv+W2D/kan9cVd+ltK/wCW2D/kan9cVd+ltK/5bYP+Rqf1xV36W0r/AJbYP+Rqf1xV&#xA;L7fzD5fiu79JdTtI29dTxaeMH+4i7FsVRH+J/LX/AFdrP/pIi/5qxV3+J/LX/V2s/wDpIi/5qxV3&#xA;+J/LX/V2s/8ApIi/5qxV3+J/LX/V2s/+kiL/AJqxVDz+YNBmurFYdStZGEzEhJ42IHoyCuze+Kph&#xA;+ltK/wCW2D/kan9cVd+ltK/5bYP+Rqf1xV36W0r/AJbYP+Rqf1xV36W0r/ltg/5Gp/XFXfpbSv8A&#xA;ltg/5Gp/XFXfpbSv+W2D/kan9cVd+ltK/wCW2D/kan9cVd+ltK/5bYP+Rqf1xV36W0r/AJbYP+Rq&#xA;f1xVStLm3uNTuWglSVRDACyMGAPOXbbFUfirsVdir//Z</xmpGImg:image>
               </rdf:li>
            </rdf:Alt>
         </xmp:Thumbnails>
      </rdf:Description>
      <rdf:Description rdf:about=""
            xmlns:xmpMM="http://ns.adobe.com/xap/1.0/mm/"
            xmlns:stRef="http://ns.adobe.com/xap/1.0/sType/ResourceRef#"
            xmlns:stEvt="http://ns.adobe.com/xap/1.0/sType/ResourceEvent#">
         <xmpMM:InstanceID>xmp.iid:E4A7E0F00D206811871FC35430C36F00</xmpMM:InstanceID>
         <xmpMM:DocumentID>xmp.did:E4A7E0F00D206811871FC35430C36F00</xmpMM:DocumentID>
         <xmpMM:OriginalDocumentID>uuid:5D20892493BFDB11914A8590D31508C8</xmpMM:OriginalDocumentID>
         <xmpMM:RenditionClass>proof:pdf</xmpMM:RenditionClass>
         <xmpMM:DerivedFrom rdf:parseType="Resource">
            <stRef:instanceID>xmp.iid:E3A7E0F00D206811871FC35430C36F00</stRef:instanceID>
            <stRef:documentID>xmp.did:E3A7E0F00D206811871FC35430C36F00</stRef:documentID>
            <stRef:originalDocumentID>uuid:5D20892493BFDB11914A8590D31508C8</stRef:originalDocumentID>
            <stRef:renditionClass>proof:pdf</stRef:renditionClass>
         </xmpMM:DerivedFrom>
         <xmpMM:History>
            <rdf:Seq>
               <rdf:li rdf:parseType="Resource">
                  <stEvt:action>saved</stEvt:action>
                  <stEvt:instanceID>xmp.iid:E3A7E0F00D206811871FC35430C36F00</stEvt:instanceID>
                  <stEvt:when>2015-02-25T17:21:17+02:00</stEvt:when>
                  <stEvt:softwareAgent>Adobe Illustrator CS5.1</stEvt:softwareAgent>
                  <stEvt:changed>/</stEvt:changed>
               </rdf:li>
               <rdf:li rdf:parseType="Resource">
                  <stEvt:action>saved</stEvt:action>
                  <stEvt:instanceID>xmp.iid:E4A7E0F00D206811871FC35430C36F00</stEvt:instanceID>
                  <stEvt:when>2015-02-25T17:21:34+02:00</stEvt:when>
                  <stEvt:softwareAgent>Adobe Illustrator CS5.1</stEvt:softwareAgent>
                  <stEvt:changed>/</stEvt:changed>
               </rdf:li>
            </rdf:Seq>
         </xmpMM:History>
      </rdf:Description>
      <rdf:Description rdf:about=""
            xmlns:illustrator="http://ns.adobe.com/illustrator/1.0/">
         <illustrator:StartupProfile>Print</illustrator:StartupProfile>
      </rdf:Description>
      <rdf:Description rdf:about=""
            xmlns:xmpTPg="http://ns.adobe.com/xap/1.0/t/pg/"
            xmlns:stDim="http://ns.adobe.com/xap/1.0/sType/Dimensions#"
            xmlns:xmpG="http://ns.adobe.com/xap/1.0/g/">
         <xmpTPg:HasVisibleOverprint>False</xmpTPg:HasVisibleOverprint>
         <xmpTPg:HasVisibleTransparency>False</xmpTPg:HasVisibleTransparency>
         <xmpTPg:NPages>1</xmpTPg:NPages>
         <xmpTPg:MaxPageSize rdf:parseType="Resource">
            <stDim:w>144.999935</stDim:w>
            <stDim:h>145.526518</stDim:h>
            <stDim:unit>Millimeters</stDim:unit>
         </xmpTPg:MaxPageSize>
         <xmpTPg:PlateNames>
            <rdf:Seq>
               <rdf:li>Cyan</rdf:li>
               <rdf:li>Magenta</rdf:li>
               <rdf:li>Yellow</rdf:li>
               <rdf:li>Black</rdf:li>
            </rdf:Seq>
         </xmpTPg:PlateNames>
         <xmpTPg:SwatchGroups>
            <rdf:Seq>
               <rdf:li rdf:parseType="Resource">
                  <xmpG:groupName>Default Swatch Group</xmpG:groupName>
                  <xmpG:groupType>0</xmpG:groupType>
               </rdf:li>
            </rdf:Seq>
         </xmpTPg:SwatchGroups>
      </rdf:Description>
      <rdf:Description rdf:about=""
            xmlns:pdf="http://ns.adobe.com/pdf/1.3/">
         <pdf:Producer>Adobe PDF library 9.90</pdf:Producer>
      </rdf:Description>
   </rdf:RDF>
</x:xmpmeta>
                                                                                                    
                                                                                                    
                                                                                                    
                                                                                                    
                                                                                                    
                                                                                                    
                                                                                                    
                                                                                                    
                                                                                                    
                                                                                                    
                                                                                                    
                                                                                                    
                                                                                                    
                                                                                                    
                                                                                                    
                                                                                                    
                                                                                                    
                                                                                                    
                                                                                                    
                                                                                                    
                           
<?xpacket end="w"?>
	</metadata>
<g>
	<g>
		<defs>
			<rect id="SVGID_1_" x="0" width="411.023" height="412.516"/>
		</defs>
		<clipPath id="SVGID_2_">
			<use xlink:href="#SVGID_1_"  overflow="visible"/>
		</clipPath>
		
			<rect x="44.601" y="0.309" clip-path="url(#SVGID_2_)" fill="none" stroke="#000000" stroke-width="0.5" width="321.822" height="411.898"/>
	</g>
	<g>
		<defs>
			<rect id="SVGID_3_" x="0" width="411.023" height="412.516"/>
		</defs>
		<clipPath id="SVGID_4_">
			<use xlink:href="#SVGID_3_"  overflow="visible"/>
		</clipPath>
		
			<rect x="105.38" y="0.309" clip-path="url(#SVGID_4_)" fill="none" stroke="#000000" stroke-width="0.5" width="200.265" height="72.894"/>
	</g>
	<g>
		<defs>
			<rect id="SVGID_5_" x="0" width="411.023" height="412.516"/>
		</defs>
		<clipPath id="SVGID_6_">
			<use xlink:href="#SVGID_5_"  overflow="visible"/>
		</clipPath>
		
			<rect x="170.84" y="227.426" clip-path="url(#SVGID_6_)" fill="none" stroke="#000000" stroke-width="0.5" width="69.346" height="184.781"/>
	</g>
</g>
<rect x="44.601" y="133.544" fill="none" stroke="#000000" stroke-width="0.5" width="7.562" height="145.428"/>
<rect x="358.86" y="133.544" fill="none" stroke="#000000" stroke-width="0.5" width="7.562" height="145.428"/>
<g>
	<g>
		<defs>
			<rect id="SVGID_7_" x="0" width="411.023" height="412.516"/>
		</defs>
		<clipPath id="SVGID_8_">
			<use xlink:href="#SVGID_7_"  overflow="visible"/>
		</clipPath>
		<circle clip-path="url(#SVGID_8_)" fill="none" stroke="#000000" stroke-width="0.5" cx="124.182" cy="315.88" r="25.798"/>
	</g>
	<g>
		<defs>
			<rect id="SVGID_9_" x="0" width="411.023" height="412.516"/>
		</defs>
		<clipPath id="SVGID_10_">
			<use xlink:href="#SVGID_9_"  overflow="visible"/>
		</clipPath>
		<circle clip-path="url(#SVGID_10_)" fill="none" stroke="#000000" stroke-width="0.5" cx="286.534" cy="315.88" r="25.798"/>
	</g>
</g>
<polygon fill="#FFFFFF" points="385.258,197.937 385.258,201.997 410.716,201.997 410.716,210.42 385.258,210.42 385.258,214.581 
	372.255,206.271 "/>
<polygon fill="none" stroke="#000000" stroke-width="0.5" points="385.258,197.937 385.258,201.997 410.716,201.997 410.716,210.42 
	385.258,210.42 385.258,214.581 372.255,206.271 "/>
<polygon fill="#FFFFFF" points="314.411,197.937 314.411,201.997 339.868,201.997 339.868,210.42 314.411,210.42 314.411,214.581 
	301.408,206.271 "/>
<polygon fill="none" stroke="#000000" stroke-width="0.5" points="314.411,197.937 314.411,201.997 339.868,201.997 339.868,210.42 
	314.411,210.42 314.411,214.581 301.408,206.271 "/>
<polygon fill="#FFFFFF" points="199.417,197.937 199.417,201.997 224.873,201.997 224.873,210.42 199.417,210.42 199.417,214.581 
	186.414,206.271 "/>
<polygon fill="none" stroke="#000000" stroke-width="0.5" points="199.417,197.937 199.417,201.997 224.873,201.997 224.873,210.42 
	199.417,210.42 199.417,214.581 186.414,206.271 "/>
<polygon fill="#FFFFFF" points="84.424,197.937 84.424,201.997 109.88,201.997 109.88,210.42 84.424,210.42 84.424,214.581 
	71.42,206.271 "/>
<polygon fill="none" stroke="#000000" stroke-width="0.5" points="84.424,197.937 84.424,201.997 109.88,201.997 109.88,210.42 
	84.424,210.42 84.424,214.581 71.42,206.271 "/>
<polygon fill="#FFFFFF" points="13.576,197.937 13.576,201.997 39.033,201.997 39.033,210.42 13.576,210.42 13.576,214.581 
	0.573,206.271 "/>
<g>
	<g>
		<defs>
			<rect id="SVGID_11_" x="0" width="411.023" height="412.516"/>
		</defs>
		<clipPath id="SVGID_12_">
			<use xlink:href="#SVGID_11_"  overflow="visible"/>
		</clipPath>
		<polygon clip-path="url(#SVGID_12_)" fill="none" stroke="#000000" stroke-width="0.5" points="13.576,197.937 13.576,201.997 
			39.033,201.997 39.033,210.42 13.576,210.42 13.576,214.581 0.573,206.271 		"/>
	</g>
	<g>
		<defs>
			<rect id="SVGID_13_" x="0" width="411.023" height="412.516"/>
		</defs>
		<clipPath id="SVGID_14_">
			<use xlink:href="#SVGID_13_"  overflow="visible"/>
		</clipPath>
		<path clip-path="url(#SVGID_14_)" fill="#FFFFFF" d="M157.52,50.659c7.8,0,14.122-6.322,14.122-14.121
			s-6.322-14.122-14.122-14.122c-7.799,0-14.121,6.322-14.121,14.122C143.398,44.336,149.721,50.659,157.52,50.659"/>
	</g>
	<g>
		<defs>
			<rect id="SVGID_15_" x="0" width="411.023" height="412.516"/>
		</defs>
		<clipPath id="SVGID_16_">
			<use xlink:href="#SVGID_15_"  overflow="visible"/>
		</clipPath>
		<circle clip-path="url(#SVGID_16_)" fill="none" stroke="#000000" stroke-width="0.5" cx="157.52" cy="36.538" r="14.121"/>
	</g>
</g>
<line fill="none" stroke="#000000" stroke-width="0.5" x1="171.949" y1="36.538" x2="233.166" y2="36.538"/>
<line fill="none" stroke="#000000" stroke-width="0.5" x1="195.562" y1="8.772" x2="195.562" y2="64.74"/>
<line fill="none" stroke="#000000" stroke-width="0.5" x1="267.78" y1="16.684" x2="233.321" y2="36.579"/>
<line fill="none" stroke="#000000" stroke-width="0.5" x1="267.78" y1="57.008" x2="233.321" y2="37.114"/>
<g>
	<path d="M159.013,81.148h3.701l-0.178,0.898h-2.646l-0.347,1.737h2.241l-0.178,0.898h-2.231l-0.415,2.024h2.726l-0.178,0.898
		h-3.781L159.013,81.148z"/>
	<path d="M164.196,85.019l-0.879-2.261h1.076l0.354,0.948c0.046,0.145,0.089,0.283,0.128,0.415s0.082,0.267,0.128,0.405h0.039
		c0.093-0.132,0.187-0.267,0.282-0.405c0.095-0.138,0.189-0.276,0.281-0.415l0.671-0.948h1.135l-1.945,2.498l0.938,2.35h-1.086
		l-0.366-0.987c-0.053-0.145-0.104-0.291-0.158-0.439c-0.053-0.148-0.104-0.291-0.157-0.429h-0.039
		c-0.093,0.138-0.189,0.278-0.292,0.419c-0.103,0.142-0.209,0.288-0.321,0.439l-0.76,0.997h-1.146L164.196,85.019z"/>
	<path d="M167.256,85.957c0-0.461,0.072-0.894,0.218-1.298c0.145-0.405,0.339-0.757,0.583-1.057
		c0.243-0.299,0.521-0.535,0.834-0.706c0.312-0.171,0.637-0.257,0.972-0.257c0.237,0,0.454,0.061,0.652,0.183
		c0.196,0.122,0.352,0.288,0.464,0.499h0.02l0.208-0.562h0.85l-0.969,4.847h-0.869l0.05-0.671h-0.029
		c-0.23,0.237-0.486,0.428-0.765,0.573c-0.28,0.145-0.559,0.217-0.834,0.217c-0.429,0-0.766-0.151-1.013-0.454
		C167.379,86.967,167.256,86.529,167.256,85.957z M169.073,86.854c0.21,0,0.426-0.062,0.646-0.188
		c0.22-0.126,0.43-0.335,0.627-0.632l0.395-1.935c-0.112-0.21-0.239-0.362-0.38-0.454c-0.142-0.092-0.288-0.138-0.439-0.138
		c-0.204,0-0.401,0.061-0.592,0.183s-0.358,0.288-0.504,0.499c-0.145,0.211-0.26,0.456-0.345,0.736
		c-0.086,0.28-0.128,0.574-0.128,0.883c0,0.355,0.063,0.619,0.191,0.79C168.673,86.769,168.849,86.854,169.073,86.854z"/>
	<path d="M173.495,82.758h0.859l-0.049,0.681h0.04c0.25-0.217,0.51-0.405,0.779-0.563c0.271-0.158,0.537-0.237,0.8-0.237
		c0.185,0,0.343,0.023,0.475,0.069s0.242,0.108,0.331,0.188c0.089,0.079,0.158,0.173,0.207,0.281
		c0.049,0.108,0.087,0.229,0.113,0.36c0.29-0.276,0.576-0.495,0.859-0.657c0.283-0.161,0.556-0.242,0.819-0.242
		c0.4,0,0.692,0.105,0.874,0.316c0.181,0.211,0.271,0.513,0.271,0.908c0,0.112-0.006,0.221-0.02,0.326s-0.033,0.224-0.06,0.355
		l-0.611,3.061h-1.066l0.592-2.922c0.026-0.112,0.046-0.207,0.06-0.286c0.013-0.079,0.02-0.155,0.02-0.227
		c0-0.415-0.197-0.622-0.592-0.622c-0.125,0-0.286,0.059-0.483,0.178c-0.197,0.119-0.421,0.31-0.671,0.573l-0.662,3.307h-1.056
		l0.583-2.922c0.026-0.112,0.046-0.207,0.059-0.286c0.014-0.079,0.021-0.155,0.021-0.227c0-0.415-0.194-0.622-0.583-0.622
		c-0.131,0-0.296,0.059-0.494,0.178c-0.197,0.119-0.418,0.31-0.661,0.573l-0.651,3.307h-1.066L173.495,82.758z"/>
	<path d="M181.531,82.758h1.057l-0.968,4.847h-1.065L181.531,82.758z M182.312,81.899c-0.152,0-0.29-0.048-0.415-0.143
		c-0.125-0.096-0.188-0.232-0.188-0.41c0-0.19,0.069-0.354,0.208-0.488c0.14-0.134,0.307-0.203,0.503-0.203
		c0.151,0,0.29,0.048,0.415,0.143c0.125,0.096,0.188,0.232,0.188,0.41c0,0.198-0.069,0.362-0.207,0.494
		C182.677,81.833,182.509,81.899,182.312,81.899z"/>
	<path d="M183.999,82.758h0.859l-0.049,0.681h0.04c0.257-0.217,0.521-0.405,0.795-0.563c0.272-0.158,0.563-0.237,0.874-0.237
		c0.407,0,0.7,0.105,0.878,0.316s0.267,0.513,0.267,0.908c0,0.112-0.005,0.221-0.015,0.326s-0.031,0.224-0.064,0.355l-0.611,3.061
		h-1.057l0.592-2.922c0.021-0.112,0.038-0.207,0.055-0.286c0.016-0.079,0.023-0.155,0.023-0.227c0-0.415-0.204-0.622-0.611-0.622
		c-0.171,0-0.354,0.059-0.549,0.178c-0.193,0.119-0.419,0.31-0.676,0.573l-0.651,3.307h-1.066L183.999,82.758z"/>
	<path d="M188.481,85.957c0-0.461,0.072-0.894,0.217-1.298c0.145-0.405,0.339-0.757,0.583-1.057
		c0.244-0.299,0.521-0.535,0.834-0.706c0.312-0.171,0.637-0.257,0.972-0.257c0.237,0,0.454,0.061,0.652,0.183
		c0.197,0.122,0.352,0.288,0.464,0.499h0.021l0.208-0.562h0.849l-0.968,4.847h-0.869l0.049-0.671h-0.029
		c-0.229,0.237-0.485,0.428-0.765,0.573c-0.28,0.145-0.558,0.217-0.834,0.217c-0.428,0-0.765-0.151-1.012-0.454
		C188.604,86.967,188.481,86.529,188.481,85.957z M190.298,86.854c0.21,0,0.427-0.062,0.646-0.188s0.43-0.335,0.627-0.632
		l0.395-1.935c-0.111-0.21-0.238-0.362-0.38-0.454c-0.142-0.092-0.288-0.138-0.438-0.138c-0.204,0-0.402,0.061-0.592,0.183
		c-0.191,0.122-0.359,0.288-0.505,0.499c-0.145,0.211-0.26,0.456-0.345,0.736c-0.086,0.28-0.128,0.574-0.128,0.883
		c0,0.355,0.064,0.619,0.192,0.79C189.898,86.769,190.074,86.854,190.298,86.854z"/>
	<path d="M194.711,83.597h-0.681l0.158-0.79l0.74-0.049l0.385-1.303h0.889l-0.257,1.303h1.165l-0.168,0.839h-1.186l-0.493,2.409
		c-0.021,0.118-0.03,0.233-0.03,0.345c0,0.178,0.043,0.311,0.128,0.4s0.229,0.133,0.435,0.133c0.085,0,0.164-0.013,0.237-0.04
		c0.072-0.026,0.146-0.056,0.217-0.089l0.197,0.75c-0.118,0.053-0.263,0.102-0.434,0.148c-0.172,0.046-0.369,0.069-0.594,0.069
		c-0.454,0-0.777-0.114-0.972-0.341s-0.292-0.508-0.292-0.844c0-0.099,0.007-0.194,0.02-0.286c0.014-0.092,0.026-0.188,0.04-0.286
		L194.711,83.597z"/>
	<path d="M198.116,82.758h1.057l-0.968,4.847h-1.065L198.116,82.758z M198.896,81.899c-0.152,0-0.29-0.048-0.415-0.143
		c-0.125-0.096-0.188-0.232-0.188-0.41c0-0.19,0.069-0.354,0.208-0.488c0.14-0.134,0.307-0.203,0.503-0.203
		c0.151,0,0.29,0.048,0.415,0.143c0.125,0.096,0.188,0.232,0.188,0.41c0,0.198-0.069,0.362-0.207,0.494
		C199.262,81.833,199.094,81.899,198.896,81.899z"/>
	<path d="M201.542,87.724c-0.27,0-0.517-0.046-0.739-0.138c-0.225-0.092-0.415-0.224-0.573-0.395s-0.28-0.378-0.365-0.622
		c-0.085-0.243-0.128-0.517-0.128-0.819c0-0.46,0.078-0.884,0.231-1.269c0.154-0.385,0.357-0.712,0.607-0.982
		s0.535-0.48,0.854-0.632c0.318-0.152,0.643-0.227,0.972-0.227c0.553,0,0.994,0.176,1.323,0.528s0.493,0.834,0.493,1.446
		c0,0.46-0.077,0.882-0.231,1.264c-0.155,0.382-0.357,0.709-0.607,0.982s-0.534,0.486-0.854,0.637S201.878,87.724,201.542,87.724z
		 M202.292,83.498c-0.19,0-0.377,0.058-0.558,0.173c-0.181,0.115-0.341,0.271-0.479,0.469c-0.138,0.198-0.249,0.431-0.331,0.701
		c-0.083,0.27-0.124,0.56-0.124,0.869c0,0.369,0.072,0.653,0.218,0.854c0.145,0.201,0.357,0.301,0.642,0.301
		c0.191,0,0.375-0.058,0.553-0.173c0.179-0.115,0.336-0.273,0.475-0.474c0.138-0.201,0.248-0.436,0.331-0.706
		c0.082-0.27,0.124-0.56,0.124-0.869c0-0.368-0.073-0.651-0.218-0.849C202.779,83.597,202.569,83.498,202.292,83.498z"/>
	<path d="M205.757,82.758h0.86l-0.051,0.681h0.041c0.256-0.217,0.521-0.405,0.793-0.563s0.563-0.237,0.875-0.237
		c0.408,0,0.701,0.105,0.879,0.316s0.266,0.513,0.266,0.908c0,0.112-0.004,0.221-0.016,0.326c-0.01,0.105-0.031,0.224-0.062,0.355
		l-0.612,3.061h-1.058l0.595-2.922c0.02-0.112,0.037-0.207,0.053-0.286c0.018-0.079,0.024-0.155,0.024-0.227
		c0-0.415-0.202-0.622-0.61-0.622c-0.172,0-0.354,0.059-0.549,0.178c-0.193,0.119-0.42,0.31-0.677,0.573l-0.651,3.307h-1.066
		L205.757,82.758z"/>
	<path d="M213.023,83.597h-0.682l0.158-0.79l0.74-0.049l0.385-1.303h0.89l-0.258,1.303h1.165l-0.168,0.839h-1.185l-0.494,2.409
		c-0.02,0.118-0.029,0.233-0.029,0.345c0,0.178,0.043,0.311,0.129,0.4c0.085,0.089,0.229,0.133,0.435,0.133
		c0.086,0,0.165-0.013,0.237-0.04c0.071-0.027,0.145-0.056,0.217-0.089l0.198,0.75c-0.119,0.053-0.265,0.102-0.436,0.148
		c-0.172,0.046-0.369,0.069-0.593,0.069c-0.454,0-0.778-0.114-0.974-0.341c-0.192-0.227-0.291-0.508-0.291-0.844
		c0-0.099,0.008-0.194,0.021-0.286c0.014-0.092,0.026-0.188,0.04-0.286L213.023,83.597z"/>
	<path d="M215.58,85.957c0-0.461,0.072-0.894,0.217-1.298c0.146-0.404,0.34-0.757,0.583-1.057c0.243-0.299,0.521-0.535,0.834-0.706
		s0.638-0.257,0.974-0.257c0.235,0,0.454,0.061,0.65,0.183c0.197,0.122,0.353,0.288,0.465,0.499h0.02l0.208-0.562h0.849
		l-0.968,4.847h-0.868l0.049-0.671h-0.028c-0.23,0.237-0.485,0.428-0.767,0.573c-0.278,0.145-0.558,0.217-0.834,0.217
		c-0.428,0-0.765-0.151-1.012-0.454S215.58,86.529,215.58,85.957z M217.396,86.854c0.211,0,0.426-0.062,0.646-0.188
		c0.221-0.126,0.431-0.335,0.627-0.632l0.396-1.935c-0.111-0.21-0.238-0.362-0.38-0.454c-0.143-0.092-0.288-0.138-0.439-0.138
		c-0.204,0-0.4,0.061-0.592,0.183s-0.359,0.288-0.504,0.499c-0.146,0.211-0.26,0.456-0.346,0.736
		c-0.086,0.28-0.129,0.574-0.129,0.883c0,0.355,0.064,0.619,0.192,0.79C216.997,86.769,217.173,86.854,217.396,86.854z"/>
	<path d="M220.822,87.605l1.402-6.97h1.057l-0.346,1.718l-0.237,0.928h0.021c0.229-0.184,0.475-0.337,0.729-0.459
		c0.257-0.122,0.521-0.183,0.79-0.183c0.435,0,0.773,0.15,1.017,0.449c0.244,0.3,0.366,0.739,0.366,1.318
		c0,0.467-0.073,0.902-0.218,1.303c-0.146,0.401-0.339,0.752-0.582,1.051c-0.244,0.3-0.521,0.535-0.83,0.706
		c-0.309,0.171-0.632,0.257-0.967,0.257c-0.244,0-0.459-0.061-0.646-0.183s-0.338-0.288-0.448-0.499h-0.021l-0.207,0.562h-0.879
		V87.605z M223.804,83.508c-0.19,0-0.397,0.058-0.621,0.173c-0.226,0.115-0.43,0.292-0.612,0.528l-0.415,2.053
		c0.105,0.211,0.228,0.362,0.365,0.454c0.139,0.092,0.283,0.138,0.435,0.138c0.204,0,0.401-0.061,0.593-0.183
		c0.19-0.122,0.358-0.288,0.504-0.499c0.145-0.21,0.262-0.456,0.351-0.735s0.133-0.578,0.133-0.894c0-0.355-0.064-0.617-0.197-0.785
		C224.207,83.59,224.027,83.508,223.804,83.508z"/>
	<path d="M227.604,80.635h1.057l-1.165,5.834c-0.014,0.053-0.02,0.092-0.02,0.118c0,0.027,0,0.05,0,0.069
		c0,0.138,0.056,0.208,0.167,0.208c0.033,0,0.06-0.002,0.079-0.005s0.053-0.011,0.099-0.024l-0.021,0.79
		c-0.071,0.033-0.157,0.058-0.257,0.074c-0.099,0.016-0.214,0.025-0.346,0.025c-0.282,0-0.49-0.069-0.621-0.208
		c-0.132-0.138-0.198-0.332-0.198-0.583c0-0.151,0.023-0.322,0.069-0.513L227.604,80.635z"/>
	<path d="M228.898,85.67c0-0.454,0.077-0.867,0.23-1.239c0.154-0.372,0.358-0.691,0.612-0.958c0.253-0.267,0.538-0.472,0.854-0.617
		c0.315-0.145,0.632-0.217,0.947-0.217c0.283,0,0.521,0.046,0.716,0.138c0.194,0.092,0.353,0.219,0.475,0.38
		c0.122,0.161,0.211,0.35,0.267,0.567c0.057,0.217,0.084,0.451,0.084,0.701c0,0.21-0.025,0.415-0.079,0.612
		c-0.053,0.198-0.096,0.336-0.128,0.415h-2.952c-0.025,0.257-0.014,0.478,0.039,0.662c0.054,0.185,0.135,0.335,0.242,0.454
		c0.108,0.119,0.242,0.206,0.4,0.262c0.157,0.056,0.328,0.084,0.513,0.084c0.171,0,0.346-0.04,0.523-0.119
		c0.177-0.079,0.332-0.168,0.464-0.267l0.395,0.681c-0.196,0.138-0.436,0.258-0.715,0.36c-0.28,0.102-0.595,0.153-0.942,0.153
		c-0.29,0-0.554-0.046-0.79-0.138s-0.44-0.226-0.611-0.4c-0.172-0.174-0.305-0.388-0.4-0.642
		C228.947,86.288,228.898,85.999,228.898,85.67z M232.156,84.781c0.013-0.065,0.024-0.133,0.034-0.202
		c0.01-0.069,0.015-0.143,0.015-0.222c0-0.237-0.058-0.446-0.173-0.627s-0.32-0.271-0.617-0.271c-0.296,0-0.574,0.117-0.834,0.351
		s-0.449,0.558-0.566,0.972L232.156,84.781L232.156,84.781z"/>
</g>
<g>
	<path d="M251.368,348.729h1.066l-0.533,2.615h2.557l0.523-2.615h1.065l-1.294,6.455h-1.065l0.593-2.91h-2.557l-0.573,2.91h-1.066
		L251.368,348.729z"/>
	<path d="M256.394,353.25c0-0.453,0.077-0.867,0.23-1.238c0.154-0.373,0.358-0.691,0.612-0.959c0.253-0.266,0.538-0.471,0.854-0.617
		c0.316-0.145,0.633-0.217,0.948-0.217c0.283,0,0.521,0.047,0.716,0.141c0.194,0.092,0.353,0.219,0.475,0.379
		c0.122,0.162,0.211,0.352,0.267,0.566c0.057,0.217,0.084,0.451,0.084,0.701c0,0.211-0.025,0.414-0.079,0.613
		c-0.053,0.197-0.096,0.334-0.128,0.414h-2.952c-0.025,0.256-0.014,0.477,0.039,0.66c0.054,0.186,0.135,0.336,0.242,0.455
		c0.108,0.117,0.242,0.205,0.4,0.262c0.157,0.057,0.328,0.084,0.513,0.084c0.171,0,0.346-0.039,0.523-0.119
		c0.177-0.078,0.332-0.168,0.464-0.266l0.395,0.682c-0.197,0.137-0.436,0.258-0.715,0.359c-0.28,0.102-0.595,0.152-0.943,0.152
		c-0.29,0-0.553-0.047-0.79-0.139c-0.235-0.092-0.439-0.227-0.61-0.4c-0.172-0.174-0.306-0.387-0.4-0.641
		C256.44,353.872,256.394,353.581,256.394,353.25z M259.651,352.362c0.013-0.066,0.023-0.135,0.034-0.201
		c0.01-0.07,0.015-0.145,0.015-0.225c0-0.236-0.058-0.443-0.173-0.627c-0.115-0.18-0.32-0.27-0.617-0.27
		c-0.296,0-0.574,0.117-0.834,0.35c-0.26,0.234-0.449,0.559-0.567,0.975h2.143V352.362z"/>
	<path d="M261.23,353.538c0-0.461,0.072-0.895,0.217-1.299s0.339-0.758,0.583-1.057c0.243-0.301,0.521-0.535,0.834-0.707
		c0.313-0.17,0.637-0.256,0.973-0.256c0.236,0,0.454,0.061,0.651,0.184c0.197,0.121,0.352,0.287,0.464,0.498h0.021l0.208-0.562
		h0.849l-0.968,4.848h-0.868l0.049-0.672h-0.029c-0.229,0.236-0.484,0.43-0.766,0.572c-0.279,0.146-0.558,0.217-0.834,0.217
		c-0.428,0-0.765-0.15-1.012-0.453S261.23,354.11,261.23,353.538z M263.047,354.436c0.211,0,0.427-0.062,0.646-0.188
		c0.22-0.127,0.43-0.336,0.627-0.633l0.395-1.936c-0.11-0.211-0.237-0.361-0.38-0.455c-0.142-0.092-0.288-0.137-0.438-0.137
		c-0.204,0-0.401,0.061-0.592,0.184c-0.191,0.119-0.359,0.287-0.505,0.496c-0.145,0.213-0.26,0.457-0.346,0.736
		c-0.085,0.279-0.128,0.574-0.128,0.883c0,0.355,0.064,0.619,0.192,0.791C262.647,354.35,262.823,354.436,263.047,354.436z"/>
	<path d="M267.874,348.215h1.058l-1.165,5.834c-0.015,0.053-0.021,0.094-0.021,0.119c0,0.027,0,0.049,0,0.07
		c0,0.137,0.057,0.207,0.167,0.207c0.033,0,0.061-0.002,0.079-0.006c0.021-0.004,0.053-0.012,0.099-0.025l-0.02,0.791
		c-0.072,0.033-0.158,0.057-0.257,0.074c-0.1,0.016-0.214,0.023-0.346,0.023c-0.282,0-0.49-0.068-0.621-0.207
		c-0.133-0.139-0.198-0.332-0.198-0.582c0-0.15,0.022-0.322,0.069-0.514L267.874,348.215z"/>
	<path d="M270.046,351.178h-0.681l0.158-0.791l0.74-0.049l0.385-1.303h0.889l-0.257,1.303h1.165l-0.168,0.84h-1.186l-0.493,2.408
		c-0.021,0.119-0.029,0.234-0.029,0.346c0,0.178,0.043,0.312,0.129,0.4c0.085,0.088,0.229,0.133,0.434,0.133
		c0.087,0,0.165-0.014,0.237-0.039s0.146-0.057,0.217-0.09l0.198,0.75c-0.119,0.053-0.264,0.104-0.435,0.148
		c-0.172,0.047-0.369,0.068-0.594,0.068c-0.453,0-0.777-0.113-0.973-0.34c-0.193-0.229-0.291-0.51-0.291-0.846
		c0-0.1,0.007-0.193,0.021-0.285s0.025-0.189,0.04-0.287L270.046,351.178z"/>
	<path d="M273.876,348.215h1.058l-0.426,2.055l-0.188,0.699h0.039c0.25-0.209,0.505-0.387,0.766-0.533
		c0.261-0.145,0.538-0.217,0.834-0.217c0.408,0,0.701,0.105,0.879,0.316c0.179,0.211,0.268,0.514,0.268,0.908
		c0,0.111-0.005,0.221-0.017,0.324c-0.01,0.105-0.03,0.225-0.062,0.355l-0.612,3.061h-1.057l0.593-2.922
		c0.021-0.111,0.038-0.207,0.054-0.287c0.018-0.076,0.025-0.152,0.025-0.227c0-0.414-0.204-0.621-0.612-0.621
		c-0.171,0-0.354,0.061-0.548,0.178s-0.42,0.311-0.677,0.572l-0.651,3.307h-1.065L273.876,348.215z"/>
	<path d="M277.846,353.329c0-0.434,0.072-0.84,0.222-1.219c0.148-0.379,0.349-0.707,0.603-0.986c0.253-0.279,0.55-0.5,0.89-0.662
		c0.339-0.16,0.694-0.242,1.069-0.242c0.298,0,0.551,0.061,0.762,0.18c0.21,0.117,0.382,0.256,0.514,0.414l-0.593,0.643
		c-0.112-0.133-0.225-0.229-0.336-0.287s-0.25-0.088-0.414-0.088c-0.218,0-0.425,0.059-0.622,0.178
		c-0.197,0.117-0.37,0.277-0.52,0.479c-0.147,0.201-0.267,0.436-0.354,0.701s-0.133,0.551-0.133,0.854
		c0,0.369,0.08,0.654,0.24,0.855c0.161,0.199,0.406,0.301,0.735,0.301c0.191,0,0.36-0.037,0.509-0.113s0.285-0.162,0.41-0.262
		l0.454,0.672c-0.185,0.131-0.403,0.258-0.657,0.379c-0.253,0.123-0.563,0.184-0.933,0.184c-0.271,0-0.518-0.045-0.74-0.133
		c-0.223-0.09-0.418-0.219-0.583-0.385c-0.164-0.168-0.293-0.375-0.385-0.617C277.892,353.924,277.846,353.645,277.846,353.329z"/>
	<path d="M282.07,353.538c0-0.461,0.072-0.895,0.217-1.299c0.146-0.404,0.339-0.758,0.583-1.057
		c0.243-0.301,0.521-0.535,0.834-0.707c0.313-0.17,0.637-0.256,0.974-0.256c0.235,0,0.453,0.061,0.65,0.184
		c0.197,0.121,0.353,0.287,0.464,0.498h0.021l0.208-0.562h0.849l-0.968,4.848h-0.868l0.049-0.672h-0.028
		c-0.23,0.236-0.485,0.43-0.767,0.572c-0.278,0.146-0.558,0.217-0.834,0.217c-0.428,0-0.765-0.15-1.012-0.453
		S282.07,354.11,282.07,353.538z M283.887,354.436c0.211,0,0.426-0.062,0.646-0.188c0.22-0.127,0.43-0.336,0.627-0.633l0.396-1.936
		c-0.111-0.211-0.238-0.361-0.381-0.455c-0.142-0.092-0.287-0.137-0.438-0.137c-0.204,0-0.401,0.061-0.592,0.184
		c-0.191,0.119-0.359,0.287-0.504,0.496c-0.146,0.213-0.261,0.457-0.347,0.736c-0.085,0.279-0.128,0.574-0.128,0.883
		c0,0.355,0.064,0.619,0.192,0.791C283.487,354.35,283.663,354.436,283.887,354.436z"/>
	<path d="M288.31,350.338h0.858l-0.089,0.938h0.039c0.19-0.303,0.415-0.555,0.672-0.756c0.256-0.199,0.532-0.301,0.829-0.301
		c0.19,0,0.353,0.029,0.483,0.088l-0.355,0.93c-0.06-0.033-0.128-0.055-0.207-0.064s-0.161-0.016-0.247-0.016
		c-0.229,0-0.457,0.09-0.681,0.268c-0.225,0.178-0.435,0.453-0.632,0.83l-0.573,2.932h-1.066L288.31,350.338z"/>
	<path d="M291.005,353.25c0-0.453,0.077-0.867,0.231-1.238c0.154-0.373,0.358-0.691,0.612-0.959
		c0.253-0.266,0.538-0.471,0.854-0.617c0.316-0.145,0.632-0.217,0.948-0.217c0.283,0,0.521,0.047,0.716,0.141
		c0.194,0.092,0.352,0.219,0.474,0.379c0.122,0.162,0.211,0.352,0.268,0.566c0.056,0.217,0.084,0.451,0.084,0.701
		c0,0.211-0.026,0.414-0.079,0.613c-0.053,0.197-0.096,0.334-0.128,0.414h-2.952c-0.026,0.256-0.014,0.477,0.039,0.66
		c0.053,0.186,0.134,0.336,0.242,0.455c0.107,0.117,0.242,0.205,0.399,0.262s0.328,0.084,0.514,0.084
		c0.171,0,0.346-0.039,0.522-0.119c0.178-0.078,0.332-0.168,0.464-0.266l0.396,0.682c-0.197,0.137-0.437,0.258-0.715,0.359
		c-0.28,0.102-0.596,0.152-0.943,0.152c-0.29,0-0.553-0.047-0.79-0.139c-0.236-0.092-0.439-0.227-0.611-0.4
		s-0.305-0.387-0.399-0.641C291.052,353.872,291.005,353.581,291.005,353.25z M294.263,352.362c0.013-0.066,0.023-0.135,0.033-0.201
		c0.011-0.07,0.016-0.145,0.016-0.225c0-0.236-0.059-0.443-0.173-0.627c-0.115-0.18-0.32-0.27-0.617-0.27
		c-0.296,0-0.574,0.117-0.834,0.35c-0.26,0.234-0.449,0.559-0.567,0.975h2.143V352.362z"/>
	<path d="M298.122,350.338h1.046l0.079,2.596c0.007,0.23,0.007,0.461,0,0.691s-0.01,0.465-0.01,0.701h0.04
		c0.092-0.236,0.183-0.471,0.271-0.701c0.089-0.23,0.187-0.461,0.291-0.691l1.125-2.596h0.969l0.128,2.596
		c0.007,0.23,0.01,0.461,0.01,0.691s0.004,0.465,0.011,0.701h0.039c0.092-0.236,0.18-0.471,0.262-0.701s0.174-0.461,0.271-0.691
		l1.076-2.596h0.986l-2.133,4.848h-1.264l-0.089-2.33c0-0.23-0.002-0.465-0.005-0.701s-0.006-0.479-0.006-0.73h-0.038
		c-0.094,0.252-0.184,0.494-0.271,0.73c-0.089,0.236-0.18,0.471-0.271,0.701l-0.997,2.33h-1.234L298.122,350.338z"/>
	<path d="M306.672,355.303c-0.271,0-0.517-0.045-0.739-0.137c-0.226-0.094-0.415-0.225-0.573-0.396s-0.279-0.379-0.365-0.621
		c-0.086-0.244-0.128-0.518-0.128-0.82c0-0.459,0.077-0.883,0.231-1.27c0.154-0.385,0.356-0.711,0.606-0.98
		c0.25-0.271,0.534-0.48,0.854-0.631c0.319-0.152,0.644-0.229,0.973-0.229c0.553,0,0.994,0.176,1.323,0.527s0.493,0.834,0.493,1.447
		c0,0.461-0.077,0.881-0.231,1.264c-0.155,0.381-0.356,0.709-0.606,0.982c-0.25,0.271-0.535,0.484-0.854,0.637
		C307.335,355.229,307.007,355.303,306.672,355.303z M307.422,351.079c-0.19,0-0.377,0.059-0.558,0.172
		c-0.182,0.115-0.341,0.271-0.479,0.471c-0.139,0.197-0.248,0.432-0.33,0.699c-0.082,0.271-0.123,0.561-0.123,0.869
		c0,0.369,0.071,0.654,0.217,0.854c0.145,0.201,0.357,0.303,0.642,0.303c0.19,0,0.375-0.059,0.554-0.172
		c0.178-0.115,0.336-0.273,0.474-0.475c0.139-0.201,0.249-0.438,0.331-0.707c0.082-0.268,0.123-0.559,0.123-0.869
		c0-0.367-0.072-0.65-0.217-0.848C307.909,351.176,307.698,351.079,307.422,351.079z"/>
	<path d="M310.887,350.338h0.858l-0.089,0.938h0.039c0.19-0.303,0.415-0.555,0.672-0.756c0.256-0.199,0.532-0.301,0.829-0.301
		c0.19,0,0.352,0.029,0.483,0.088l-0.355,0.93c-0.06-0.033-0.128-0.055-0.207-0.064s-0.161-0.016-0.247-0.016
		c-0.229,0-0.457,0.09-0.681,0.268c-0.226,0.178-0.436,0.453-0.632,0.83l-0.573,2.932h-1.066L310.887,350.338z"/>
	<path d="M314.905,348.215h1.057l-0.879,4.383h0.039l2.144-2.26h1.185l-1.954,2.072l1.154,2.773h-1.066l-0.829-2.15l-0.946,0.957
		l-0.237,1.193h-1.066L314.905,348.215z"/>
	<path d="M318.38,353.25c0-0.453,0.077-0.867,0.231-1.238c0.154-0.373,0.358-0.691,0.612-0.959c0.253-0.266,0.538-0.471,0.854-0.617
		c0.316-0.145,0.632-0.217,0.948-0.217c0.283,0,0.521,0.047,0.716,0.141c0.194,0.092,0.352,0.219,0.474,0.379
		c0.122,0.162,0.211,0.352,0.268,0.566c0.056,0.217,0.084,0.451,0.084,0.701c0,0.211-0.026,0.414-0.079,0.613
		c-0.053,0.197-0.096,0.334-0.128,0.414h-2.952c-0.026,0.256-0.014,0.477,0.039,0.66c0.053,0.186,0.134,0.336,0.242,0.455
		c0.107,0.117,0.242,0.205,0.399,0.262s0.328,0.084,0.514,0.084c0.171,0,0.346-0.039,0.522-0.119
		c0.178-0.078,0.332-0.168,0.464-0.266l0.396,0.682c-0.197,0.137-0.437,0.258-0.715,0.359c-0.28,0.102-0.596,0.152-0.943,0.152
		c-0.29,0-0.553-0.047-0.79-0.139c-0.236-0.092-0.439-0.227-0.611-0.4s-0.305-0.387-0.399-0.641
		C318.427,353.872,318.38,353.581,318.38,353.25z M321.638,352.362c0.013-0.066,0.023-0.135,0.033-0.201
		c0.011-0.07,0.016-0.145,0.016-0.225c0-0.236-0.059-0.443-0.173-0.627c-0.115-0.18-0.32-0.27-0.617-0.27
		c-0.296,0-0.574,0.117-0.834,0.35c-0.26,0.234-0.449,0.559-0.567,0.975h2.143V352.362z"/>
	<path d="M324.057,350.338h0.858l-0.089,0.938h0.039c0.19-0.303,0.415-0.555,0.672-0.756c0.256-0.199,0.532-0.301,0.829-0.301
		c0.19,0,0.353,0.029,0.483,0.088l-0.355,0.93c-0.06-0.033-0.128-0.055-0.207-0.064s-0.161-0.016-0.247-0.016
		c-0.229,0-0.457,0.09-0.681,0.268c-0.225,0.178-0.436,0.453-0.632,0.83l-0.573,2.932h-1.066L324.057,350.338z"/>
</g>
<g>
	<path d="M349.228,225.065v-1.312c0-0.9,0.215-1.592,0.646-2.072c0.432-0.48,1.059-0.721,1.881-0.721
		c0.611,0,1.161,0.084,1.648,0.252c0.487,0.166,0.898,0.404,1.233,0.709c0.336,0.308,0.595,0.676,0.774,1.106
		c0.181,0.431,0.271,0.913,0.271,1.446v1.876L349.228,225.065z M354.824,224.493c0-0.361-0.067-0.691-0.202-0.992
		c-0.135-0.299-0.33-0.558-0.587-0.774c-0.257-0.218-0.571-0.386-0.943-0.503c-0.37-0.118-0.794-0.178-1.269-0.178
		c-0.579,0-1.014,0.15-1.303,0.453c-0.29,0.303-0.436,0.73-0.436,1.283v0.395l4.738,0.939L354.824,224.493L354.824,224.493z"/>
	<path d="M355.802,218.471c0,0.271-0.047,0.517-0.139,0.74c-0.093,0.225-0.224,0.414-0.396,0.572
		c-0.171,0.158-0.378,0.279-0.621,0.365c-0.244,0.086-0.518,0.128-0.82,0.128c-0.46,0-0.883-0.077-1.269-0.231
		s-0.712-0.356-0.981-0.606c-0.271-0.25-0.479-0.534-0.632-0.854c-0.152-0.319-0.229-0.644-0.229-0.973
		c0-0.553,0.177-0.994,0.528-1.322c0.353-0.33,0.834-0.494,1.446-0.494c0.461,0,0.882,0.078,1.264,0.231
		c0.382,0.155,0.709,0.356,0.982,0.606c0.271,0.25,0.484,0.535,0.637,0.854C355.727,217.808,355.802,218.135,355.802,218.471z
		 M351.577,217.721c0,0.191,0.059,0.377,0.172,0.558c0.115,0.183,0.271,0.341,0.471,0.479c0.196,0.139,0.431,0.248,0.699,0.33
		c0.271,0.082,0.561,0.123,0.869,0.123c0.369,0,0.653-0.071,0.854-0.217c0.2-0.145,0.302-0.357,0.302-0.642
		c0-0.19-0.058-0.375-0.173-0.554c-0.115-0.178-0.273-0.336-0.475-0.473c-0.2-0.14-0.437-0.25-0.706-0.332
		c-0.269-0.082-0.56-0.123-0.868-0.123c-0.368,0-0.651,0.072-0.85,0.217C351.675,217.234,351.577,217.444,351.577,217.721z"/>
	<path d="M355.802,213.269c0,0.271-0.047,0.517-0.139,0.739c-0.093,0.226-0.224,0.416-0.396,0.574
		c-0.171,0.158-0.378,0.278-0.621,0.365c-0.244,0.086-0.518,0.127-0.82,0.127c-0.46,0-0.883-0.076-1.269-0.23
		c-0.386-0.155-0.712-0.357-0.981-0.607c-0.271-0.25-0.479-0.533-0.632-0.854s-0.229-0.645-0.229-0.973
		c0-0.554,0.177-0.994,0.528-1.324c0.353-0.328,0.834-0.492,1.446-0.492c0.461,0,0.882,0.076,1.264,0.23
		c0.382,0.155,0.709,0.357,0.982,0.607c0.271,0.25,0.484,0.535,0.637,0.854C355.727,212.605,355.802,212.934,355.802,213.269z
		 M351.577,212.519c0,0.19,0.059,0.377,0.172,0.558c0.115,0.182,0.271,0.342,0.471,0.479c0.196,0.139,0.431,0.249,0.699,0.331
		c0.271,0.082,0.561,0.123,0.869,0.123c0.369,0,0.653-0.072,0.854-0.217c0.2-0.146,0.302-0.358,0.302-0.643
		c0-0.189-0.058-0.375-0.173-0.553s-0.273-0.336-0.475-0.475c-0.2-0.139-0.437-0.248-0.706-0.33
		c-0.269-0.082-0.56-0.123-0.868-0.123c-0.368,0-0.651,0.072-0.85,0.217S351.577,212.243,351.577,212.519z"/>
	<path d="M350.836,209.054v-0.859l0.938,0.089v-0.039c-0.303-0.189-0.555-0.414-0.756-0.672c-0.2-0.256-0.302-0.533-0.302-0.829
		c0-0.191,0.029-0.352,0.09-0.484l0.928,0.355c-0.032,0.059-0.054,0.128-0.063,0.208c-0.011,0.078-0.016,0.161-0.016,0.246
		c0,0.23,0.089,0.457,0.267,0.682c0.179,0.225,0.454,0.435,0.83,0.631l2.933,0.574v1.065L350.836,209.054z"/>
	<path d="M350.836,204.147v-1.056l2.577-0.257c0.243-0.026,0.487-0.046,0.73-0.059c0.243-0.013,0.489-0.026,0.739-0.04v-0.04
		c-0.25-0.112-0.494-0.226-0.734-0.341s-0.485-0.229-0.735-0.34l-2.577-1.254v-1.046l4.849,2.527v1.244L350.836,204.147z"/>
	<path d="M353.749,199.813c-0.454,0-0.867-0.077-1.239-0.232c-0.371-0.155-0.69-0.359-0.958-0.612
		c-0.267-0.253-0.472-0.538-0.616-0.854c-0.146-0.316-0.218-0.632-0.218-0.948c0-0.283,0.047-0.521,0.14-0.716
		c0.092-0.194,0.219-0.352,0.38-0.474s0.351-0.21,0.567-0.267c0.217-0.056,0.45-0.084,0.7-0.084c0.211,0,0.414,0.026,0.612,0.079
		c0.197,0.053,0.335,0.095,0.414,0.128v2.952c0.257,0.026,0.478,0.013,0.661-0.04c0.185-0.053,0.336-0.133,0.455-0.242
		c0.118-0.109,0.205-0.242,0.261-0.4c0.057-0.158,0.084-0.329,0.084-0.513c0-0.171-0.039-0.346-0.118-0.523
		c-0.079-0.177-0.168-0.332-0.267-0.464l0.682-0.395c0.138,0.197,0.258,0.436,0.36,0.716c0.102,0.28,0.151,0.594,0.151,0.943
		c0,0.29-0.046,0.553-0.138,0.79c-0.093,0.237-0.226,0.441-0.399,0.612c-0.175,0.171-0.389,0.304-0.643,0.4
		C354.369,199.765,354.078,199.813,353.749,199.813z M352.86,196.555c-0.066-0.013-0.134-0.025-0.202-0.035
		c-0.069-0.01-0.144-0.015-0.223-0.015c-0.237,0-0.445,0.058-0.627,0.172c-0.182,0.115-0.271,0.321-0.271,0.617
		s0.117,0.574,0.352,0.834c0.232,0.26,0.558,0.449,0.973,0.567L352.86,196.555L352.86,196.555z"/>
	<path d="M350.836,194.136v-0.859l0.683,0.049v-0.04c-0.219-0.257-0.405-0.521-0.562-0.795c-0.158-0.273-0.236-0.564-0.236-0.874
		c0-0.408,0.104-0.701,0.315-0.878c0.21-0.178,0.513-0.267,0.908-0.267c0.111,0,0.22,0.005,0.325,0.015
		c0.104,0.01,0.224,0.031,0.354,0.064l3.062,0.612v1.056l-2.922-0.592c-0.112-0.02-0.208-0.038-0.287-0.054
		c-0.078-0.016-0.154-0.024-0.228-0.024c-0.415,0-0.622,0.204-0.622,0.612c0,0.171,0.061,0.354,0.179,0.548
		c0.117,0.194,0.31,0.419,0.571,0.676l3.309,0.652v1.066L350.836,194.136z"/>
	<path d="M351.676,188.795v0.681l-0.789-0.158l-0.051-0.74l-1.303-0.385v-0.889l1.303,0.257v-1.165l0.84,0.168v1.185l2.408,0.494
		c0.119,0.02,0.234,0.03,0.347,0.03c0.178,0,0.312-0.043,0.399-0.128s0.133-0.23,0.133-0.435c0-0.085-0.013-0.164-0.039-0.237
		c-0.025-0.072-0.057-0.145-0.089-0.217l0.75-0.197c0.054,0.118,0.103,0.263,0.148,0.434c0.046,0.171,0.067,0.369,0.067,0.593
		c0,0.454-0.112,0.778-0.34,0.972s-0.509,0.292-0.845,0.292c-0.099,0-0.194-0.007-0.286-0.02c-0.092-0.013-0.188-0.026-0.286-0.04
		L351.676,188.795z"/>
</g>
<g>
	<path d="M58.369,222.193v-1.086l3.317,0.147c0.349,0.025,0.695,0.05,1.042,0.068c0.345,0.02,0.695,0.047,1.051,0.079v-0.039
		c-0.355-0.146-0.708-0.293-1.057-0.444c-0.35-0.15-0.694-0.297-1.037-0.435l-3.317-1.471v-0.918l3.317-0.06
		c0.697,0,1.396,0.01,2.093,0.028v-0.039c-0.355-0.125-0.708-0.254-1.057-0.386c-0.35-0.131-0.694-0.26-1.037-0.385l-3.317-1.244
		v-1.026l6.457,2.587v1.344l-3.515,0.02c-0.225,0-0.47-0.008-0.735-0.02c-0.267-0.015-0.525-0.026-0.775-0.041v0.041
		c0.25,0.092,0.502,0.188,0.756,0.291c0.254,0.102,0.505,0.205,0.755,0.311l3.515,1.511v1.323L58.369,222.193z"/>
	<path d="M59.119,213.713c0,0.15-0.048,0.289-0.143,0.414c-0.097,0.125-0.232,0.188-0.41,0.188c-0.19,0-0.354-0.069-0.488-0.207
		c-0.135-0.14-0.203-0.308-0.203-0.504c0-0.151,0.048-0.29,0.144-0.415s0.231-0.188,0.41-0.188c0.197,0,0.361,0.068,0.493,0.207
		S59.119,213.516,59.119,213.713z M59.978,214.493v-1.057l4.847,0.968v1.065L59.978,214.493z"/>
	<path d="M59.978,212.025v-0.858l0.681,0.049v-0.039c-0.217-0.256-0.405-0.521-0.562-0.795c-0.158-0.272-0.237-0.563-0.237-0.873
		c0-0.408,0.104-0.701,0.315-0.879c0.212-0.178,0.514-0.268,0.908-0.268c0.112,0,0.222,0.006,0.326,0.016
		c0.105,0.011,0.224,0.031,0.355,0.063l3.061,0.612v1.057l-2.922-0.593c-0.112-0.021-0.207-0.038-0.286-0.054
		c-0.079-0.018-0.155-0.025-0.227-0.025c-0.415,0-0.622,0.204-0.622,0.611c0,0.172,0.059,0.355,0.178,0.549s0.31,0.42,0.573,0.677
		l3.307,0.651v1.066L59.978,212.025z"/>
	<path d="M59.573,203.703l-1.718-0.335v-1.056l6.97,1.402v0.869l-0.671-0.049v0.029c0.237,0.23,0.428,0.486,0.573,0.765
		c0.145,0.28,0.217,0.558,0.217,0.834c0,0.428-0.151,0.764-0.454,1.012c-0.303,0.246-0.741,0.369-1.312,0.369
		c-0.462,0-0.895-0.071-1.299-0.217c-0.403-0.145-0.757-0.339-1.057-0.583c-0.299-0.244-0.535-0.521-0.706-0.834
		c-0.171-0.312-0.257-0.637-0.257-0.972c0-0.237,0.059-0.448,0.178-0.632c0.119-0.185,0.273-0.329,0.464-0.435v-0.03L59.573,203.703
		z M64.075,205.727c0-0.21-0.062-0.424-0.188-0.642c-0.126-0.218-0.335-0.428-0.633-0.632l-1.935-0.395
		c-0.21,0.112-0.362,0.239-0.454,0.38c-0.092,0.142-0.138,0.288-0.138,0.439c0,0.204,0.061,0.402,0.183,0.592
		c0.122,0.191,0.288,0.359,0.499,0.504s0.456,0.26,0.736,0.345c0.279,0.086,0.574,0.128,0.883,0.128c0.354,0,0.619-0.064,0.79-0.192
		C63.989,206.126,64.075,205.951,64.075,205.727z"/>
	<path d="M64.944,200.416c0,0.27-0.046,0.517-0.138,0.74c-0.093,0.224-0.225,0.415-0.396,0.573s-0.378,0.28-0.622,0.365
		c-0.243,0.085-0.517,0.128-0.818,0.128c-0.461,0-0.885-0.078-1.27-0.232c-0.385-0.154-0.712-0.357-0.981-0.607
		c-0.271-0.25-0.48-0.535-0.633-0.854c-0.151-0.319-0.227-0.643-0.227-0.972c0-0.553,0.176-0.994,0.528-1.323
		c0.352-0.329,0.834-0.494,1.445-0.494c0.46,0,0.882,0.078,1.265,0.232c0.382,0.155,0.709,0.357,0.981,0.607
		c0.273,0.25,0.486,0.535,0.637,0.854C64.868,199.752,64.944,200.08,64.944,200.416z M60.718,199.665
		c0,0.191,0.059,0.377,0.174,0.558c0.114,0.181,0.271,0.341,0.469,0.479c0.198,0.138,0.431,0.249,0.701,0.331
		c0.27,0.083,0.56,0.124,0.869,0.124c0.368,0,0.652-0.072,0.854-0.217s0.301-0.358,0.301-0.642c0-0.191-0.058-0.375-0.173-0.553
		c-0.115-0.178-0.272-0.336-0.474-0.474s-0.437-0.248-0.706-0.331c-0.271-0.082-0.561-0.124-0.869-0.124
		c-0.368,0-0.651,0.073-0.849,0.217C60.817,199.178,60.718,199.389,60.718,199.665z"/>
	<path d="M59.978,196.762v-1.046l2.596-0.079c0.23-0.007,0.461-0.007,0.691,0c0.229,0.006,0.464,0.01,0.7,0.01v-0.04
		c-0.236-0.092-0.471-0.183-0.7-0.271c-0.23-0.089-0.46-0.186-0.691-0.292l-2.596-1.125v-0.968l2.596-0.128
		c0.23-0.006,0.461-0.01,0.691-0.01c0.229,0,0.464-0.003,0.7-0.01v-0.04c-0.236-0.092-0.471-0.179-0.7-0.262
		c-0.23-0.082-0.46-0.173-0.691-0.271l-2.596-1.076v-0.987l4.847,2.133v1.264l-2.33,0.089c-0.229,0-0.464,0.001-0.701,0.005
		c-0.236,0.004-0.479,0.005-0.729,0.005v0.04c0.25,0.092,0.494,0.183,0.729,0.271c0.236,0.088,0.472,0.179,0.701,0.271l2.33,0.997
		v1.234L59.978,196.762z"/>
</g>
<g>
	<path d="M202.762,324.391v-1.312c0-0.9,0.216-1.592,0.646-2.072c0.431-0.48,1.058-0.721,1.881-0.721
		c0.612,0,1.162,0.084,1.649,0.252c0.486,0.166,0.897,0.404,1.232,0.709c0.336,0.307,0.596,0.676,0.775,1.105
		c0.181,0.432,0.271,0.914,0.271,1.447v1.875L202.762,324.391z M208.359,323.819c0-0.363-0.067-0.693-0.202-0.992
		c-0.135-0.301-0.33-0.559-0.587-0.775s-0.571-0.385-0.943-0.504c-0.371-0.117-0.794-0.178-1.268-0.178
		c-0.579,0-1.014,0.15-1.303,0.455c-0.289,0.303-0.436,0.729-0.436,1.283v0.395l4.738,0.938V323.819L208.359,323.819z"/>
	<path d="M207.284,319.612c-0.454,0-0.867-0.076-1.239-0.23s-0.69-0.357-0.958-0.613c-0.267-0.252-0.472-0.537-0.616-0.854
		c-0.146-0.316-0.218-0.631-0.218-0.947c0-0.283,0.046-0.521,0.139-0.717c0.092-0.193,0.219-0.352,0.38-0.473
		c0.161-0.123,0.35-0.211,0.566-0.268c0.218-0.057,0.451-0.084,0.701-0.084c0.211,0,0.414,0.025,0.612,0.078
		c0.197,0.053,0.335,0.096,0.414,0.129v2.951c0.257,0.027,0.478,0.014,0.661-0.039c0.185-0.053,0.336-0.133,0.455-0.242
		c0.117-0.107,0.205-0.242,0.261-0.398c0.057-0.158,0.084-0.328,0.084-0.514c0-0.172-0.039-0.346-0.118-0.523
		c-0.079-0.176-0.168-0.332-0.267-0.463l0.682-0.396c0.138,0.197,0.258,0.438,0.36,0.715c0.102,0.281,0.151,0.596,0.151,0.943
		c0,0.291-0.046,0.553-0.138,0.791c-0.093,0.236-0.226,0.439-0.4,0.611c-0.174,0.172-0.388,0.305-0.642,0.398
		C207.904,319.565,207.613,319.612,207.284,319.612z M206.396,316.354c-0.066-0.014-0.134-0.023-0.202-0.033
		c-0.07-0.012-0.145-0.016-0.223-0.016c-0.237,0-0.446,0.059-0.627,0.172c-0.182,0.115-0.271,0.32-0.271,0.617
		s0.117,0.574,0.351,0.834c0.234,0.262,0.559,0.449,0.974,0.568L206.396,316.354L206.396,316.354z"/>
	<path d="M207.896,314.549c0.211-0.158,0.372-0.334,0.483-0.529c0.111-0.193,0.168-0.398,0.168-0.615c0-0.23-0.062-0.432-0.183-0.6
		c-0.122-0.166-0.271-0.25-0.449-0.25c-0.15,0-0.282,0.068-0.391,0.207s-0.248,0.357-0.419,0.66
		c-0.178,0.322-0.372,0.576-0.583,0.762c-0.21,0.184-0.464,0.275-0.76,0.275c-0.218,0-0.421-0.045-0.607-0.139
		c-0.188-0.092-0.347-0.219-0.479-0.379c-0.131-0.162-0.234-0.35-0.311-0.562s-0.114-0.443-0.114-0.688
		c0-0.314,0.066-0.602,0.197-0.854c0.132-0.254,0.296-0.477,0.494-0.668l0.562,0.594c-0.125,0.125-0.231,0.264-0.32,0.414
		c-0.089,0.152-0.133,0.322-0.133,0.514c0,0.225,0.059,0.408,0.178,0.553c0.118,0.146,0.263,0.219,0.434,0.219
		c0.092,0,0.171-0.023,0.237-0.07c0.064-0.045,0.127-0.107,0.188-0.188c0.06-0.078,0.115-0.168,0.167-0.268
		c0.054-0.098,0.108-0.199,0.168-0.307c0.191-0.361,0.393-0.631,0.604-0.809s0.464-0.268,0.76-0.268
		c0.237,0,0.451,0.049,0.643,0.145c0.19,0.096,0.354,0.229,0.488,0.398c0.136,0.172,0.238,0.375,0.312,0.611
		c0.071,0.238,0.107,0.494,0.107,0.771c0,0.15-0.021,0.309-0.067,0.469c-0.047,0.162-0.109,0.316-0.188,0.469
		c-0.078,0.152-0.176,0.293-0.291,0.426c-0.115,0.131-0.241,0.242-0.38,0.336L207.896,314.549z"/>
	<path d="M202.249,309.424v-1.057l4.383,0.879v-0.039l-2.26-2.143v-1.186l2.073,1.955l2.774-1.154v1.066l-2.152,0.828l0.958,0.947
		l1.194,0.236v1.066L202.249,309.424z"/>
</g>
<g>
	<path d="M110.963,348.725h1.936c0.31,0,0.594,0.029,0.854,0.09c0.261,0.059,0.484,0.156,0.671,0.291
		c0.188,0.135,0.334,0.307,0.439,0.514c0.104,0.207,0.158,0.459,0.158,0.756c0,0.42-0.074,0.783-0.223,1.086
		c-0.147,0.303-0.352,0.549-0.611,0.74c-0.261,0.189-0.568,0.332-0.923,0.424c-0.355,0.092-0.737,0.139-1.146,0.139h-0.897
		l-0.475,2.418h-1.065L110.963,348.725z M112.207,351.915c0.573,0,1.008-0.117,1.309-0.352c0.299-0.232,0.448-0.58,0.448-1.043
		c0-0.334-0.108-0.576-0.325-0.725c-0.218-0.146-0.53-0.223-0.938-0.223h-0.849l-0.454,2.34h0.81V351.915z"/>
	<path d="M115.149,353.534c0-0.461,0.072-0.895,0.217-1.299c0.146-0.404,0.339-0.758,0.583-1.057
		c0.244-0.301,0.521-0.535,0.834-0.707c0.312-0.17,0.637-0.256,0.972-0.256c0.237,0,0.454,0.061,0.652,0.184
		c0.197,0.121,0.352,0.287,0.464,0.498h0.021l0.208-0.562h0.849l-0.968,4.848h-0.869l0.049-0.672h-0.029
		c-0.229,0.236-0.485,0.43-0.765,0.572c-0.28,0.145-0.558,0.217-0.834,0.217c-0.428,0-0.765-0.15-1.012-0.453
		C115.272,354.543,115.149,354.106,115.149,353.534z M116.965,354.432c0.21,0,0.427-0.062,0.646-0.188
		c0.22-0.127,0.43-0.336,0.627-0.633l0.395-1.936c-0.111-0.211-0.238-0.361-0.38-0.455c-0.142-0.092-0.288-0.137-0.438-0.137
		c-0.204,0-0.402,0.061-0.592,0.182c-0.191,0.121-0.359,0.289-0.505,0.498c-0.145,0.211-0.26,0.457-0.345,0.736
		c-0.086,0.279-0.128,0.574-0.128,0.883c0,0.355,0.064,0.619,0.192,0.791C116.565,354.344,116.741,354.432,116.965,354.432z"/>
	<path d="M121.378,351.174h-0.681l0.158-0.791l0.74-0.049l0.385-1.303h0.889l-0.257,1.303h1.165l-0.168,0.84h-1.186l-0.493,2.408
		c-0.021,0.119-0.03,0.234-0.03,0.346c0,0.178,0.043,0.312,0.128,0.4s0.229,0.133,0.435,0.133c0.085,0,0.164-0.014,0.237-0.039
		c0.072-0.027,0.146-0.057,0.217-0.09l0.197,0.75c-0.118,0.053-0.263,0.102-0.434,0.148c-0.172,0.047-0.369,0.068-0.594,0.068
		c-0.454,0-0.777-0.113-0.972-0.34c-0.194-0.229-0.292-0.51-0.292-0.846c0-0.1,0.007-0.193,0.02-0.285
		c0.014-0.092,0.026-0.189,0.04-0.287L121.378,351.174z"/>
	<path d="M124.784,350.334h1.057l-0.968,4.848h-1.065L124.784,350.334z M125.564,349.475c-0.152,0-0.29-0.047-0.415-0.143
		s-0.188-0.232-0.188-0.41c0-0.189,0.069-0.354,0.208-0.488s0.307-0.201,0.503-0.201c0.151,0,0.29,0.047,0.415,0.143
		s0.188,0.232,0.188,0.41c0,0.197-0.069,0.361-0.207,0.494C125.93,349.411,125.761,349.475,125.564,349.475z"/>
	<path d="M126.393,353.247c0-0.453,0.077-0.867,0.231-1.238c0.155-0.373,0.359-0.691,0.612-0.959
		c0.253-0.266,0.538-0.471,0.854-0.617c0.316-0.145,0.633-0.217,0.948-0.217c0.283,0,0.521,0.047,0.716,0.139
		c0.194,0.094,0.353,0.221,0.475,0.381s0.21,0.352,0.267,0.566c0.057,0.217,0.084,0.451,0.084,0.701
		c0,0.211-0.025,0.414-0.079,0.613c-0.053,0.195-0.095,0.334-0.128,0.414h-2.952c-0.025,0.256-0.013,0.477,0.04,0.66
		c0.054,0.186,0.134,0.336,0.242,0.455c0.109,0.117,0.242,0.205,0.4,0.262s0.329,0.084,0.513,0.084c0.171,0,0.346-0.039,0.523-0.119
		c0.177-0.078,0.332-0.168,0.464-0.268l0.395,0.684c-0.197,0.137-0.436,0.258-0.716,0.359s-0.594,0.152-0.943,0.152
		c-0.29,0-0.553-0.047-0.79-0.139c-0.236-0.092-0.44-0.227-0.611-0.4s-0.305-0.387-0.4-0.641
		C126.441,353.868,126.393,353.577,126.393,353.247z M129.651,352.358c0.013-0.066,0.024-0.135,0.035-0.201
		c0.01-0.07,0.015-0.145,0.015-0.225c0-0.236-0.058-0.443-0.172-0.627c-0.115-0.18-0.321-0.27-0.617-0.27s-0.574,0.117-0.834,0.35
		c-0.26,0.234-0.449,0.559-0.566,0.975h2.14V352.358z"/>
	<path d="M132.069,350.334h0.859l-0.05,0.682h0.04c0.257-0.219,0.521-0.404,0.795-0.562s0.564-0.236,0.874-0.236
		c0.408,0,0.701,0.105,0.878,0.316c0.179,0.209,0.268,0.512,0.268,0.908c0,0.109-0.005,0.219-0.016,0.324
		c-0.01,0.105-0.03,0.225-0.063,0.355l-0.612,3.061h-1.056l0.592-2.922c0.021-0.111,0.038-0.209,0.054-0.287
		c0.017-0.078,0.024-0.154,0.024-0.227c0-0.416-0.204-0.623-0.612-0.623c-0.171,0-0.354,0.061-0.548,0.178
		c-0.194,0.119-0.419,0.311-0.676,0.572l-0.652,3.309h-1.065L132.069,350.334z"/>
	<path d="M137.411,351.174h-0.681l0.158-0.791l0.739-0.049l0.386-1.303h0.889l-0.257,1.303h1.165l-0.168,0.84h-1.186l-0.494,2.408
		c-0.02,0.119-0.029,0.234-0.029,0.346c0,0.178,0.043,0.312,0.128,0.4s0.229,0.133,0.435,0.133c0.085,0,0.164-0.014,0.237-0.039
		c0.072-0.027,0.145-0.057,0.217-0.09l0.197,0.75c-0.118,0.053-0.264,0.102-0.435,0.148s-0.368,0.068-0.593,0.068
		c-0.454,0-0.778-0.113-0.972-0.34c-0.194-0.229-0.292-0.51-0.292-0.846c0-0.1,0.007-0.193,0.02-0.285
		c0.014-0.092,0.026-0.189,0.04-0.287L137.411,351.174z"/>
</g>
</svg>
