<?xml version="1.0" encoding="utf-8"?>
<!-- Generator: Adobe Illustrator 15.0.2, SVG Export Plug-In . SVG Version: 6.00 Build 0)  -->
<!DOCTYPE svg PUBLIC "-//W3C//DTD SVG 1.1//EN" "http://www.w3.org/Graphics/SVG/1.1/DTD/svg11.dtd">
<svg version="1.1" id="Layer_1" xmlns="http://www.w3.org/2000/svg" xmlns:xlink="http://www.w3.org/1999/xlink" x="0px" y="0px"
	 width="155.904px" height="170.898px" viewBox="0 0 155.904 170.898" enable-background="new 0 0 155.904 170.898"
	 xml:space="preserve">
<metadata><?xpacket begin="﻿" id="W5M0MpCehiHzreSzNTczkc9d"?>
<x:xmpmeta xmlns:x="adobe:ns:meta/" x:xmptk="Adobe XMP Core 5.0-c060 61.134777, 2010/02/12-17:32:00        ">
   <rdf:RDF xmlns:rdf="http://www.w3.org/1999/02/22-rdf-syntax-ns#">
      <rdf:Description rdf:about=""
            xmlns:MicrosoftPhoto="http://ns.microsoft.com/photo/1.0/">
         <MicrosoftPhoto:DateAcquired>2014-06-02T15:58:44.479</MicrosoftPhoto:DateAcquired>
         <MicrosoftPhoto:LastKeywordXMP>
            <rdf:Bag>
               <rdf:li>V1</rdf:li>
            </rdf:Bag>
         </MicrosoftPhoto:LastKeywordXMP>
      </rdf:Description>
      <rdf:Description rdf:about=""
            xmlns:dc="http://purl.org/dc/elements/1.1/">
         <dc:format>image/svg+xml</dc:format>
         <dc:subject>
            <rdf:Bag>
               <rdf:li>V1</rdf:li>
            </rdf:Bag>
         </dc:subject>
         <dc:title>
            <rdf:Alt>
               <rdf:li xml:lang="x-default">8-2b</rdf:li>
            </rdf:Alt>
         </dc:title>
      </rdf:Description>
      <rdf:Description rdf:about=""
            xmlns:xmpMM="http://ns.adobe.com/xap/1.0/mm/"
            xmlns:stEvt="http://ns.adobe.com/xap/1.0/sType/ResourceEvent#"
            xmlns:stRef="http://ns.adobe.com/xap/1.0/sType/ResourceRef#">
         <xmpMM:InstanceID>xmp.iid:FB7F117407206811871FC35430C36F00</xmpMM:InstanceID>
         <xmpMM:DocumentID>xmp.did:FB7F117407206811871FC35430C36F00</xmpMM:DocumentID>
         <xmpMM:OriginalDocumentID>2EECD29618675F0D66FC2CBEE2836197</xmpMM:OriginalDocumentID>
         <xmpMM:RenditionClass>proof:pdf</xmpMM:RenditionClass>
         <xmpMM:History>
            <rdf:Seq>
               <rdf:li rdf:parseType="Resource">
                  <stEvt:action>saved</stEvt:action>
                  <stEvt:instanceID>xmp.iid:A432C48361EDE311A5DDF9F5F20DB0A9</stEvt:instanceID>
                  <stEvt:when>2014-06-06T12:03:45+02:00</stEvt:when>
                  <stEvt:softwareAgent>Adobe Photoshop CS5 Windows</stEvt:softwareAgent>
                  <stEvt:changed>/</stEvt:changed>
               </rdf:li>
               <rdf:li rdf:parseType="Resource">
                  <stEvt:action>saved</stEvt:action>
                  <stEvt:instanceID>xmp.iid:A532C48361EDE311A5DDF9F5F20DB0A9</stEvt:instanceID>
                  <stEvt:when>2014-06-06T12:03:45+02:00</stEvt:when>
                  <stEvt:softwareAgent>Adobe Photoshop CS5 Windows</stEvt:softwareAgent>
                  <stEvt:changed>/</stEvt:changed>
               </rdf:li>
               <rdf:li rdf:parseType="Resource">
                  <stEvt:action>saved</stEvt:action>
                  <stEvt:instanceID>xmp.iid:0480117407206811A59682C035E3EDCE</stEvt:instanceID>
                  <stEvt:when>2014-06-10T11:21:53+02:00</stEvt:when>
                  <stEvt:softwareAgent>Adobe Photoshop CS5 Macintosh</stEvt:softwareAgent>
                  <stEvt:changed>/</stEvt:changed>
               </rdf:li>
               <rdf:li rdf:parseType="Resource">
                  <stEvt:action>saved</stEvt:action>
                  <stEvt:instanceID>xmp.iid:0780117407206811A59682C035E3EDCE</stEvt:instanceID>
                  <stEvt:when>2014-06-10T11:45:48+02:00</stEvt:when>
                  <stEvt:softwareAgent>Adobe Photoshop CS5 Macintosh</stEvt:softwareAgent>
                  <stEvt:changed>/</stEvt:changed>
               </rdf:li>
               <rdf:li rdf:parseType="Resource">
                  <stEvt:action>saved</stEvt:action>
                  <stEvt:instanceID>xmp.iid:0F3D44C90D236811A59682C035E3EDCE</stEvt:instanceID>
                  <stEvt:when>2014-06-10T11:48:29+02:00</stEvt:when>
                  <stEvt:softwareAgent>Adobe Photoshop CS5 Macintosh</stEvt:softwareAgent>
                  <stEvt:changed>/</stEvt:changed>
               </rdf:li>
               <rdf:li rdf:parseType="Resource">
                  <stEvt:action>saved</stEvt:action>
                  <stEvt:instanceID>xmp.iid:103D44C90D236811A59682C035E3EDCE</stEvt:instanceID>
                  <stEvt:when>2014-06-10T11:59:32+02:00</stEvt:when>
                  <stEvt:softwareAgent>Adobe Photoshop CS5 Macintosh</stEvt:softwareAgent>
                  <stEvt:changed>/</stEvt:changed>
               </rdf:li>
               <rdf:li rdf:parseType="Resource">
                  <stEvt:action>saved</stEvt:action>
                  <stEvt:instanceID>xmp.iid:113D44C90D236811A59682C035E3EDCE</stEvt:instanceID>
                  <stEvt:when>2014-06-10T11:59:32+02:00</stEvt:when>
                  <stEvt:softwareAgent>Adobe Photoshop CS5 Macintosh</stEvt:softwareAgent>
                  <stEvt:changed>/</stEvt:changed>
               </rdf:li>
               <rdf:li rdf:parseType="Resource">
                  <stEvt:action>saved</stEvt:action>
                  <stEvt:instanceID>xmp.iid:123D44C90D236811A59682C035E3EDCE</stEvt:instanceID>
                  <stEvt:when>2014-06-10T11:59:41+02:00</stEvt:when>
                  <stEvt:softwareAgent>Adobe Photoshop CS5 Macintosh</stEvt:softwareAgent>
                  <stEvt:changed>/</stEvt:changed>
               </rdf:li>
               <rdf:li rdf:parseType="Resource">
                  <stEvt:action>saved</stEvt:action>
                  <stEvt:instanceID>xmp.iid:133D44C90D236811A59682C035E3EDCE</stEvt:instanceID>
                  <stEvt:when>2014-06-10T11:59:41+02:00</stEvt:when>
                  <stEvt:softwareAgent>Adobe Photoshop CS5 Macintosh</stEvt:softwareAgent>
                  <stEvt:changed>/</stEvt:changed>
               </rdf:li>
               <rdf:li rdf:parseType="Resource">
                  <stEvt:action>saved</stEvt:action>
                  <stEvt:instanceID>xmp.iid:E547A1930F236811A59682C035E3EDCE</stEvt:instanceID>
                  <stEvt:when>2014-06-10T12:00:43+02:00</stEvt:when>
                  <stEvt:softwareAgent>Adobe Photoshop CS5 Macintosh</stEvt:softwareAgent>
                  <stEvt:changed>/</stEvt:changed>
               </rdf:li>
               <rdf:li rdf:parseType="Resource">
                  <stEvt:action>saved</stEvt:action>
                  <stEvt:instanceID>xmp.iid:5919D50434206811808389843A4A8926</stEvt:instanceID>
                  <stEvt:when>2015-02-24T16:05:30+02:00</stEvt:when>
                  <stEvt:softwareAgent>Adobe Illustrator CS5.1</stEvt:softwareAgent>
                  <stEvt:changed>/</stEvt:changed>
               </rdf:li>
               <rdf:li rdf:parseType="Resource">
                  <stEvt:action>saved</stEvt:action>
                  <stEvt:instanceID>xmp.iid:FB7F117407206811871FC35430C36F00</stEvt:instanceID>
                  <stEvt:when>2015-02-25T16:37:21+02:00</stEvt:when>
                  <stEvt:softwareAgent>Adobe Illustrator CS5.1</stEvt:softwareAgent>
                  <stEvt:changed>/</stEvt:changed>
               </rdf:li>
            </rdf:Seq>
         </xmpMM:History>
         <xmpMM:DerivedFrom rdf:parseType="Resource">
            <stRef:instanceID>uuid:d7f9f233-8960-f540-a19a-71d8dc83e1a4</stRef:instanceID>
            <stRef:documentID>xmp.did:5919D50434206811808389843A4A8926</stRef:documentID>
            <stRef:originalDocumentID>2EECD29618675F0D66FC2CBEE2836197</stRef:originalDocumentID>
            <stRef:renditionClass>proof:pdf</stRef:renditionClass>
         </xmpMM:DerivedFrom>
      </rdf:Description>
      <rdf:Description rdf:about=""
            xmlns:photoshop="http://ns.adobe.com/photoshop/1.0/">
         <photoshop:LegacyIPTCDigest>641F19A8967EDE805C348BDF8F6CC39E</photoshop:LegacyIPTCDigest>
         <photoshop:ColorMode>1</photoshop:ColorMode>
         <photoshop:ICCProfile>Dot Gain 20%</photoshop:ICCProfile>
      </rdf:Description>
      <rdf:Description rdf:about=""
            xmlns:xmp="http://ns.adobe.com/xap/1.0/"
            xmlns:xmpGImg="http://ns.adobe.com/xap/1.0/g/img/">
         <xmp:CreateDate>2015-02-25T16:37:21+02:00</xmp:CreateDate>
         <xmp:ModifyDate>2015-02-25T16:37:21+02:00</xmp:ModifyDate>
         <xmp:MetadataDate>2015-02-25T16:37:21+02:00</xmp:MetadataDate>
         <xmp:CreatorTool>Adobe Illustrator CS5.1</xmp:CreatorTool>
         <xmp:Thumbnails>
            <rdf:Alt>
               <rdf:li rdf:parseType="Resource">
                  <xmpGImg:width>236</xmpGImg:width>
                  <xmpGImg:height>256</xmpGImg:height>
                  <xmpGImg:format>JPEG</xmpGImg:format>
                  <xmpGImg:image>/9j/4AAQSkZJRgABAgEASABIAAD/7QAsUGhvdG9zaG9wIDMuMAA4QklNA+0AAAAAABAASAAAAAEA&#xA;AQBIAAAAAQAB/+4ADkFkb2JlAGTAAAAAAf/bAIQABgQEBAUEBgUFBgkGBQYJCwgGBggLDAoKCwoK&#xA;DBAMDAwMDAwQDA4PEA8ODBMTFBQTExwbGxscHx8fHx8fHx8fHwEHBwcNDA0YEBAYGhURFRofHx8f&#xA;Hx8fHx8fHx8fHx8fHx8fHx8fHx8fHx8fHx8fHx8fHx8fHx8fHx8fHx8fHx8f/8AAEQgBAADsAwER&#xA;AAIRAQMRAf/EAaIAAAAHAQEBAQEAAAAAAAAAAAQFAwIGAQAHCAkKCwEAAgIDAQEBAQEAAAAAAAAA&#xA;AQACAwQFBgcICQoLEAACAQMDAgQCBgcDBAIGAnMBAgMRBAAFIRIxQVEGE2EicYEUMpGhBxWxQiPB&#xA;UtHhMxZi8CRygvElQzRTkqKyY3PCNUQnk6OzNhdUZHTD0uIIJoMJChgZhJRFRqS0VtNVKBry4/PE&#xA;1OT0ZXWFlaW1xdXl9WZ2hpamtsbW5vY3R1dnd4eXp7fH1+f3OEhYaHiImKi4yNjo+Ck5SVlpeYmZ&#xA;qbnJ2en5KjpKWmp6ipqqusra6voRAAICAQIDBQUEBQYECAMDbQEAAhEDBCESMUEFURNhIgZxgZEy&#xA;obHwFMHR4SNCFVJicvEzJDRDghaSUyWiY7LCB3PSNeJEgxdUkwgJChgZJjZFGidkdFU38qOzwygp&#xA;0+PzhJSktMTU5PRldYWVpbXF1eX1RlZmdoaWprbG1ub2R1dnd4eXp7fH1+f3OEhYaHiImKi4yNjo&#xA;+DlJWWl5iZmpucnZ6fkqOkpaanqKmqq6ytrq+v/aAAwDAQACEQMRAD8A9U4q7FXYq7FXYq7FXYq7&#xA;FXYq7FXYqwj8x/zd8s+RDZ2l4lxqOu6keOmaHYJ6t1OSeKkLtxUtsCev7INMVeU/mV+cv526C+jf&#xA;X9P0byTp2uu6RXd7LJqM9v6ahiZhCpUbMNlhbfqRirCptZ/Mvzt5g0/QvLH5s3GualeyBbv9G2Vz&#xA;pttaRBS7yvPGkC0VVNANyaDqcVenW/kL8sfLfk7UvMnmyXXfMR0ha3d3rjX0Tzy04qLa2naBD6ju&#xA;ETlXc05d8VeZ3/5BeVvOGsw+cNJ/50r8uxaLc65DfyAXcE0buJkSJmlEYdFUgu9BU0X9nFXtP5H+&#xA;YPImrx3lr5G8qvpvlnSaQWvmCSKOMXcw2cKWrO5puXY1/modsVer4qwPzj54806b5y8saJoGjLqu&#xA;nandm313UU5y/UVXg9JFj2jYxsXBk2NNhirKta8x6PokQm1SV7e3IJa49KV4lA/nkRGRP9kRiqG0&#xA;Pzz5L15gmia9p+pSH/dVrcwyvtuaojFh92Kp3irsVdirsVdirsVdirsVdirsVdirsVdirsVdirsV&#xA;dirsVcSAKnYDqcVeG/mj/wA5W+UPKN1c6Ro9pNrWuwfDIrK1tbRPSoDvIOb7GtEWh/mGKvAZIvzt&#xA;/OXzHB53trcQRW8n6Mj1S1lSxt7KNAZXUyljMEVZ2Jc8j8VBU/Dir0LyP+Qlv5s80LBr+q6j5l8t&#xA;eX/Vtpb6a8iS3ecEEw2kcUtzN6bOWdnLRV8K4q961S68v/lx5fttO8s+XJLm4uXMWm6FpMIDzSAD&#xA;lJK9OKItR6k0h2rvU4qo6T5Y83anqeleZPOGoRW5tbdmn8rW6JLYxXPqSNFOZpeTNLFFIqlloOS1&#xA;G2KvGfPvmqH83vMUuny6xFoH5QeX7kLqmsTSpD+krqPf07fkRz6/AorTZzUlFxVPdT/5ya8i+WzY&#xA;+Tfy+8v3GqXaGKy020EbWNsGkIESr6q+sxYtXdByrXlvXFWZ+c7vzV5citPMWv8AnW30uw5xpf2K&#xA;W6CBU9MmSOzipJc3M8kihU5SfCpLBKjFWW/l9o3l7TPKtidCsJdPtb2JLuVLtCl7JJKgLSXhartO&#xA;23Msa1xVT1D8yvJ1rqP6Jgv11PWyeK6Rp3+l3XLwdIqiIeLSlVHcjFVDzZ+Uv5dea+Ums6HbSXhP&#xA;JdQhX6vdqw+ywuIeEnwncAkj2xVjOlah5l8l+V7+40+7n89aBZXBjsZbmRUv4I7aZo71JbggRzpC&#xA;I3KSHj8Q4nahCrMfI35heUvO+kjU/Ll+l3EtBcQVCzwOf2Jo61U7Gh6HqpI3xVkeKuxV2KuxV2Ku&#xA;xV2KuxV2KuxV2KuxV2KuxV2KpT5r8z6V5X8u6hr+qOUstOge4lC0LsFoAiA0qzMQo9yMVfBXn789&#xA;vOXnHUZLqZ2s1W6+s6asFxdKbXiV9NY0WVICyhPt+lyJJPyVYX5lsL601NzeyXM9xP8AvZrq6ili&#xA;eWRjV2HrfvHHI/aYAnwxV9BeQY/+cbW8uWNv5uttesuEazpZ60989lyYeoZYGsljhKPyqGZVr4b7&#xA;qvZ/I/nD/nHry9FND5OvLC0F2UFwLNJneQxA8A54szFQ56+OKvRYdf0+awmvoUuZIIF5kC1uQ7Df&#xA;+7jMYeQ7dEBxV4t51/Mu88+abrHliwiufJWg20q2nmXzVrnp2fpRleclrbwM3J5pkptyHwncfEMV&#xA;Y55Q86/kh5Nikj8haBN5kfRovV1TzZf/ALmC3jBqzfWp0ZkZ2+xFBCPUb7IJxVKvym8redPNGrea&#xA;PzuttLgvdZmluX8paXeyGOJ5TVGk5U+L0Y/3UdWAZq1ZacsVZFqPlbV/Jmhah+bv5r6kuuec7OIj&#xA;y9pLEPY2V1NtAkcYorOr0J4bKAzfE3xYqz7635i1SIeSfzQgFgL+VI7PW9HmkhsdUCkv9Udj+9tp&#xA;ZFX4o+Q9Qcgh7Yqs8oeZoH83ar5X/LvQ9Mg8t+VxJFrUqUgae9MNbeG3Mew/ehllkdW+yfbFVmjf&#xA;m1afmF5Ws7LRroeXNf1iWSyu4rhwbizMRb6wtvVVE0/poTGAPhB5uBTiVWVflVp2s6b5Mt9O1WzF&#xA;hJZ3F5BZ2g41SzjupFtQSv2j6IX4zu32mqSTiry/T/yZsbz80vzC1HQdQuPLerWsunvot9YEIkEt&#xA;xa+tcrLB/dzRSyFWdWHyxVm2j+afzM8u6fBJ+YllpbafFLJHqHmOxuXjjhhUIsM8tu8ZP712IYqy&#xA;qnVgB0VZ6msaRJ9UMd9buL9edjxlQ+utAeUVD8YoRuuKovFXYq7FXYq7FXYq7FXYq7FXYq7FUFrO&#xA;qxaVpk+oS29zdJAAfq9lBJc3DlmChY4ogzNufkBuaAE4q801fz752nrPqL2f5d6CUkmWfUWjvdbm&#xA;hhBeR4LJC8MXFB8XP1Sv8pxV84/nN5+tNa0BNLXXpNYvJLyRrKL04J5/qPqcoWvbteXCZz/x7wcU&#xA;ACl1VxQqofyz+WL+WtM0v8xdZ1Py/JpsytNBp2vNqEV2LiGYqxS0twrzOksRoC5VhuR3CqyXy1+c&#xA;n54+YUv0gubrTFdhb6rfJ9Ws4o3I5FBVlA+Efu4eZHfk3Jyq+qr78sfM1r+Vmk+UvK3mefR9Y0aG&#xA;NIdTRRwneNCGSVaMyxuzVHEkrt9qm6qQ/kvYfn3p8l9e/mlrEUWi2kTCC0mNnJKWWhM73MA+GNVB&#xA;+09T3pTdVT85/wDOUnkzTrk6P5Pt5vOHmKUmO2t9PVmt/UptWUAmT/nkrfMYq8gsfyL/ADN87a82&#xA;r+fHuLvUp39X9ECfiIFehAubk+rHax8eNIolkmIp8Cj4gqzbzD+Quu+YfNWkeTY7+y078v8ARraC&#xA;+1bTtLj+r0uZWkTiUaSaaaaRItppm2FSBXYqvonTNMsNL06203T4EtrGzjWG2t4xREjQcVUD2AxV&#xA;8S/85P8A5xRec/NcehaTMJvLWgyEK6kmO6u/syS7EckQVRP9kQaNir0bzbaeYPzf8v2V5czRxaxr&#xA;KO3k/wAog3C21pCp4z6lfTGJfUf0+SQvQR1I4ciTiqH/ACy/Ln8+/wAqbXXoNDs9F1q5v47eWWxF&#xA;2TcQ8TKscyo4gUhvjADMORXbocVV0/Nb8sNK/P63OpTTWGkeXNIbS9Plnt3URalPJ6l1LMgUSJIV&#xA;cxu3DduVdt8VeseUvzx8rebfP83lTQgLu3isXvk1dZF9OX05EjZI4wC2xc7uVPwkgFSGKryjzL+c&#xA;t5Dp/nPUvKuoQRar5g8xjRPL5VY2llNnaWluZUkkIijiq/L1H5faAHGvJVUy1b8+NMj89+T9I1iC&#xA;5s9XKto3nfSr2EJARfRxAOfiaJ0ScclbcemzU2bFV35g/lT5MtdN0/S9Lc3bX/1i0/LwxvKP0ZqY&#xA;D3LKLuGZA0Us0bEeorem/T4dlVZ1+Rn5pSea/JzR+Y3Fl5o0K4Gl67DcUhc3APCJyrUo0tCCu3xh&#xA;gB0xV6firsVdirsVdirsVdirsVdirsVSDz7q+oaV5R1W50o/7mvqs/6IjERnZ7pYXeNREN23Wp7A&#xA;bnbFXyN5o/OX80tNRbfzLpF55YttStzFPMkAi1a/VPhKy3V6kjIlSf7uEAdAoBxVb+V//OKnmXzc&#xA;keuatM/lvy9cH1rGGSk9/JCxqhoBEq1X9tgK9QlMVfSflD/nHv8AKvyyyXEWkLqmorQnUdVP1yYs&#xA;OjAOPSUjxRBir0cAKAAKAbADoBirsVQer6PpWs6bPpmrWkV9p10vG4tbhBJG4BDCqtUbMAQex3xV&#xA;imkflZ5f8t2zaZ5OtI/L9jdsz6newPJJeOpI/cwySmRo+Xd+Xwj7C8jyRVO9e1Gz8oeUb3ULSwku&#xA;INLt3lisLRGeSRutBTkau5q7n3Zu5xVBflpp+r23lK2vNc31/WCdT1fanG4ugGENOwgiCQr7IMVY&#xA;N+fXmjzhfQL+XfkC0lvPMmrxhtUuoaKljYyErWWU0WJpqEAk14g03K4q8MtvyIi8j+cvLmj+YpYN&#xA;d1vXL+xazsrASS+jaW8nrX8ksbqleQQRRlvh4l2NOOyr1vzT+bl95Qv31PTprPzJ9Qu76y832ly1&#xA;rp2o2lrBKHsYoEDr6iRh5fTIV/U5fzdFUP5u/wCcnPIWkeXL/XvKFi03mDVY4Ggku7c28c7bx8nJ&#xA;ZXmFvR1YR1AbbkK1xV4d5w8xzecbPzP+YdxZ6e8OoTW3l5omgkFyvGMXK38NJCPWVLTi/QcfauKs&#xA;i0fUPyQ8ufmTpMula+6+Sb/QZtN1C6iFzDeJcMT6n1j01E1ZiR8SrQdBRVrirxrzJqGjwecLy58r&#xA;xtb6Ja3ryaPE7yPSONx6bkueVXCBjviqF1zWdU8x+Y77WbkGTUtUupLqVYgf7yVy5CKN9idsVege&#xA;f49a0nSPLfmvy9rNxa6X5zhe9nsre5eL0dTg/cX9FVh8Dylip9yp+yMVXaDqHly70PQIS17pXmFN&#xA;RVdavnWK9sNRtxNIy3LpcconuLfmyR/C+1T40Ve3eRP+cnP0HHaaV+ZWoWmoz3bM0XmDSJre6jjX&#xA;b4LuC1VTGVr9pFPLw2OKvo2GaOaGOaM8o5FDoaEVVhUbHfFV+KuxV2KuxV2KuxV2KuxV8V/85Kfm&#xA;RHrv5srpH6SuLHQ/KytB61lVpnumUG4MYDIORNIqswA4k+xVeH6pq8l7rEuoKZCvq8rdLqT6y6xq&#xA;1UR3cASUHX4QD4dsVZN+Zf5t+aPzD1LTdR1lbe3uNMthbQ/U1aIE8i7Snkz0dif2aDbYYqyX8o/+&#xA;cifOvkvWLWHUtQuNV8sPIq3tjcsZ3jjJoXt3clkZBuFB4nuO4Vfe0M0U8Mc0LiSKVQ8bruGVhUEH&#xA;3GKr8VdirsVQ+oWUd9ZS2cp/czr6cy9eUbGjp/s1qv04qiMVWpDEju6IqvKQ0rAAFmACgsR1PFQM&#xA;VeQfmZoOsXP5oaNr/lyMpqHljTZr/VDbRxtc3dvczxwraqZAy82ghuTFUfaFO9Qq87/5y2/Lry4v&#xA;l2z88RfVLPzFdzxR6pN60zG8H1fiogQ/AxX0xuI1+Hc0piry7yTbX62P5fTXGpTtd3Oq3lxaiSdp&#xA;Y7DRLJVW9ZLeRjGqz8Z+fw0Iip44q86j16VfLB0cSSR+lePdQKhopFxB6M/qEdTxiRV26M2KpNir&#xA;sVTbyp5hm8ua/aa1Bbx3M9mXaGGbl6Zdo2RWbiQTxLcqV7YqlVWNAT02FT03xV7F+VmsQX35Vec/&#xA;LuuXvpaXYtbX2jMVYtbajL6kcMizAN9XjaZYhI5Wm9KryJxVU/Kn8stT86aHqvljRNS0dxdTpd38&#xA;kj3C3gt7V2iiIItZ40Qu5fh6is/y3xV90WcBt7SCAnkYY1jLdK8VAriqrirsVdirsVdirsVdiqQ+&#xA;ddA1HXtEbS7TWJdDgnYDUL21AFz9WAPOOCRtoWbb95Q0FaCu4Vfn/wDmxf8AkWTzNJpvkexW30DT&#xA;C0Md8zvNNey1/eXLyuWPFiPgUbU3oORxV6Z+V/8Azjb5X1/yLaeb/NHmKWxtb+eK3tobRYwqvPMt&#xA;vEGmk5qxaSQKQq/CagmoNFXlP5naV5D0nzbc6d5I1C61TR7UCN767Mbc51qJPSeJYw8fg3EV7VFC&#xA;VWJ4q/TzyZaXFn5P0K0uai4t9PtYpga15pAitWvuMVef+Z/+cnPyq0BtXglvJrvUNIufqTWVvHye&#xA;aYLVvSJKpwRgVZmI3G1dqqvFNf8A+c2vN88rLoGgWNjBUhWvGlupKdj+7a3UH6DirG3/AOcv/wA4&#xA;mkLiXT1WtfTFqOPy3Yt+OKpvpn/Oav5jQOBqOk6VeRd/TSeCQ/7L1ZF/4TFXpflH/nM/yLqUscHm&#xA;PTbrQZHIBuEIvLZd6VZkWOUfRGcVe86PrWk61p0OpaReQ39hcDlDdW7rJGw70ZSdx3HbFVHT9Oli&#xA;1jVdQmFXumgit2qD/o0EQKr9E0sx+nFXhH50+QNb1Mar5r8yL+ldVlc6L+X3lW2q8UUlyxRbmWtF&#xA;kn4K07D7KhfiJCjiq+V/OfknUPK+p3NjPPHfGxdLbUJ7dZfTt7xg/K1dpUjq6+i9CtVZRyU0xVjm&#xA;KuxV2KuxVEWEtrFfW0t3EZ7SOVGuIFbizxhgXQMQaFl2rTFWXeT/AD5Z6F5s1G6vopdV8u6zbz6b&#xA;q9sUjgmlspwADGil4opIiiPGFNBxoCBirJvyR/MvWfy71TUbjRPL0+vw66Rb2JZXjdlsy0slBClx&#xA;V1jkDOi147HcUqq+9LW5guraK5t39SCdFlicVAZHHJTv4g4qqYq7FXYq7FXYq7FXYq8y/NyTzN5o&#xA;p+XXlOX6rdalHz8x6wQTHYac9RwNKVmuaFVQGvHkdh8QVeBeZP8AnGvzpDretW9hottZ+TbS0ENp&#xA;q1zNBNcmK2KzvdIqP6nrzNG1QyqOL8NgBRVJ/wA7vza0jXfIvl3yf5P0q/07yjp3A/Wr2IRfWWgT&#xA;04lQozhgvJmck/E29NqlV4vYaXqGoGcWUD3BtYXuZwgqVhjpzcjwWtTirMPyS8jS+dfzK0fRzGXs&#xA;UlF3qZHRbW3IeSvhzNIx7sMVfdf5uebz5Q/LfX9fjbhc2tqyWbV6XM5EMB96SSKcVfm47u7s7sWd&#xA;iSzE1JJ6knFVuKuxVUt4JLi4it4+PqTOsac2VF5MaDk7lVUe5NBirN/Nn5Hfmp5S0htY1/QJLXTE&#xA;IWS6jmt7lU5GgL/V5JSgJNKttXFWff8AOLH5xaF5J1e80HX62+na5JGU1MyP6cEyAqoljJ9NUeu8&#xA;gAI25VX7Kr7I8w+ZtC8vaJda3rF5Ha6ZaR+rNcMajidl4gbsWJAUDcnYYq8W/Jv85/8AlY35l6zf&#xA;X0i6dpFlAlp5Y0yZlVpHmcmWUkmj3DJGvwrXipIH7RZV89fmTP5t8xWnmbzLHAieT5/M9y9vckUk&#xA;uLh42WJV6l1gtoSdgAOTfQq8sxV2KuxV2KuxVkmjeRNY1KY24Kw3MulXGtWUTEMZYLUO7q3Ekxs0&#xA;cEjJyG/w9mDYq9T/ACr0rSNe/ITzbpV1dw2esWeojUvLjyTLFM17FbofTtwSpLyLH6dF/mHgMVe6&#xA;/wDOOH50ad520dPLn1OW11XQrC3+szSSeqty28csqk/Hu4DHlX7XtUqvaMVdirsVdirsVdirsVWR&#xA;wQRNI0cao0zc5mUAF34heTU6nioFT2GKsX8x+bYovNmieTbWOO5v9YWa5v0kHNIdNgU+rI6139aT&#xA;jCldtyf2aFVjX5vHzvY+VNcvfqeg6v5StLZ5LnQruC4Sd7WJaycbgTGIOFBZaQinY1xV8KHXdP8A&#xA;qNnafoSzf6oLoNcSGcSzfWaem0rxSRcmt6fu6UX+ZTir7O/5xb/KWTyZ5PbW9Vh9PzB5gVJZI3FH&#xA;gtB8UMJB+yzV5uPkDuuKsj/5yG8oW3mf8stRgutTk0y204HUXaKMSmZ4I39KEqSCQ8jCgXcmmKvz&#xA;2ZWVirAqymjKdiCMVXRRSyypFEjSSyMFjjUFmZmNAABuSTirN4PyN/Nq4sDfQeWbuaFVDMkfptMA&#xA;a0rAGMwO3TjXFWQ/kVp3kO985P5J/MXQwx1FvRsLqZp7S5tr2lFhf02iakvQB60em3xHFX2roPki&#xA;20fTDo51G81TRPRa2XTdTMN0iwsOPp+oYhMycdqSO223TFXiPnP/AJw+0f8ATUWteT5Ivq8cyTT+&#xA;WtRaT6tKqtyeKO5jrLGrAcQGDf61MVZjpP8Azj3YSyWFl5uvX8x+X9A9RfLdpOzRyRwSlSLa84Hj&#xA;cJB6a+kar3BUrQKq9A17R/KuneWHaazs7LTdEQ31n+7jhhtJLdSyTR0CrGU8RTFXyTYpKnkPQ5tQ&#xA;isn8jeW0ZbAagLhLLVdQv1kF+WKIty5gMpSB4EYAr1+1xVeKeY4Y4Nev7eOxOmCCd4m08ymf0HjP&#xA;F4xI27BWBpX7z1xVLcVdirsVdirKPy31a8svOulrHP6UWozRabfuQp5Wd26wXEdWB4homK1G4HTF&#xA;XrFjq3kL8qvzM8/rf+X7fUr7SLqK48qWd07IsaPMDIkRdZUDiCZHRitaJsd8VQH/ADijq66f+eIs&#xA;oUaCHVba9tBA5qyrGPrKqSO6/V+uKvuPFXYq7FXYq7FXYq7FUJq+rafo+lXeq6jMLewsYXuLqZui&#xA;xxqWY7ddhir5P/Kr89vKqfmF5x/MPztdy2UmopDYaFbLDLORbKzO8KGNWUemscPPcAs1e+Ks4/Nz&#xA;z55m/Mj8rDD+WWh6hqOm6rK0OpX5iEJEMBBaOKN2Dyeo3wlkBWgZevRV8keYrHzdpt9Auv2d3pt5&#xA;AiR20d1A9qyJF9kIrLHTj12Hvir1byp/zl3+aWh6U1hei0111Wlrd36P6yEdPUaJo/VH+t8X+Vir&#xA;Jz+d/wCePm78pNd1nTJrC1Om3Zj1W4tKw30VpLEhT6ujEqqhufJ+Rf8Alpxrir5pZmZizEszGrMd&#xA;yScVegp+U3mq+8o22oaBoy66zhLm+vdMu47+aASBuFu1nbsZIjT7fNGPJdiADVVI/L+haRHdavF5&#xA;o1C58uXlhYS3Gmxm3kaWa9VlWK3ZdmTnyPxHpTFUmutZ1e7lhlur2e4mt6ehLLI7vHQ1HBmJK0Ph&#xA;ir7b/IT/AJyG0PznpFpovmC8is/OEIWBkmYRrfEbLJCTQGRv2oxvXcCnRV7ZirsVQmraVp2r6Xd6&#xA;VqUC3On30L291A1QHikUqy1UgioPUGuKvlHSvzN0DW/zK/R97q1vov5SeQj62l6UhNLtrKkVsxUc&#xA;prisq+qKg0HX4mqVXzlrmoHUtb1DUT1vbma4PXrLIX/aLN37k/PFUDiqM0nSNT1jUrfTNLtpLzUL&#xA;txHbW0Klndj2AH3nwxVDzwSwTSQTKUmiYpIh6qymhB+RxVTxVUgWdp41gDGdmURBK8uZPw8ab1r0&#xA;xV9Ba5a6b+Y/5y/l9rV+izWPmjTYJb6BvgR73TxMlxaNShAaWBUPs3bFXtf5S/lDZ28+mecvMHlT&#xA;T/LHm60aZ4INIllWIRTxyQ8J7dnmiDCOSvwud/ClMVex4q7FXYq7FXYq7FXYq+Yf+cx/zR+rWVt+&#xA;X+mT0nuwt3rhQmqwg1ggNP52HqMOtAvY4q8y/IK/fzTreg/l5f8AlrS9Z0a3u7nUZ7u6inNzBG6L&#xA;6zCSKWNOLeki0dGBNAe2Kvsfy15QudD1vV7xdXuLjSb/ANAabobhVttPWFSrJbgdFevQAAe+KpR5&#xA;/wDyc8m+ebS6XXrJZ75q/UNQiPoXUI4LRPXAfkvqBiA6sor9nbFXxV5g/Ib8z9G07UtVutAuILDS&#xA;5Sl1yZJGWPqsqMtFmjp1eMbdwMVeeEEGh2IxV6r+UWg/k9eT6Xc+bdUgNybl11DTL64uLGFYgR6b&#xA;o8NrOkta1Ie4i8Om+KvsP8rfy78qeTfLuoW/k27Sew1a4e9tL0styFDxqka+ojD1Y4ytV3Gx61qx&#xA;VYd5ou/z+mLWGo/l75c822oJC3CTxrAy+PoX0nJSe43+Z64qkGifkprXmHVI5/Mn5c+VfLunVDTp&#xA;FJcyXFD9pUjspo4K/NgB74q9b8r/AJP/AJZ+Vr4X+heXrS0vkr6d0Q0sqVFDweUyMlRt8JGKswxV&#xA;2KpJ53sNb1Hyjq+naHJHBq19ayW1pPKSqRtMvp+oSAT8AYsNu2KvEfOnnHyz+Rv5YDyVZSWN/wCb&#xA;bm1MEcdpb+gf3kfFru9VpJyWqWYVPxbAKFBoq+NMVTXRPLGt61DqNxp1s0ttpNs95qNwdo4YYwTV&#xA;2O1XI4ovUnFXaD5m1fQHuptIm+q3d3C1s16g/fxwybSLE/8AusuNiy/FTYEAtVVKsVdirYJBqNiM&#xA;VZNL5qv9Mm0ptMv3mm0y4i1ezu3JZ4b6eKF7pasByHrQr18O9ScVfe/5VRa/N5dg1rWkNvqWsRRX&#xA;Gp29zZfVL763HEluzXJDKjHhCqjjDH8IX4RvirNsVdirsVdirsVdirH/AD7500ryX5T1HzHqbf6P&#xA;Yxlo4agNNKdooUr+07UHt16Yq/OXWNU8wedPNlzqE6vfa5rV0WEMKlmeWVqJHGgqaDZVXsKDFX2/&#xA;/wA48fkpH+XXl17vUlV/NOqqrag4owgjG62yMKg8Tu5HVvEAYq9bxV2KobU9M0/VNPudO1G3S6sb&#xA;uNobm3lHJHjcUZWHuMVeB/mx/wA4ueVH8mOvkLQR+n4JxJGrXkqySRNs8avcO8fw0UqGpsDQ1OKv&#xA;m7z3+R/5ieSdMs9U1rTqafdqn76F1k9KVk5mGZVJKutDv9k02JxVLPIX5oed/Il/9b8uak9vGzA3&#xA;Fi/7y1m9pIW+E7bchRh2IxV9fflJ/wA5Q+T/ADoYdL1rhoHmJ6KsUr/6LO3T9zM1OLE/sPv4FsVe&#xA;14q7FXYq7FUFrVzY2ukXk9/ejTrNIX9e/LrF6KlSDIHf4VK9QT3xV+bv5iL5cHm7UG8v61ea/p8k&#xA;jONUv4yk8rljUlixaT/XZUJ/lGKqOnaDJYw2uueYtLvf8PzE/Vyg+ri7cCvpxTSA/D/M6I9PDeuK&#xA;oG91qeSS9jsFOl6ZfMrSaXbSzGCkf2Awkd2k49auTv4Yql2KuxV2KuxVkv5feRNR88eY4/L2mXVv&#xA;b6lPFNJaR3JkUTPDE0pjVkSRVYqh3cqPeu2Kv0k0e8e90ixvXUq9zbxTMpFCDIgYgj6cVReKuxV2&#xA;KuxV2Kpf5g8w6L5e0i51jWruOx020XnPcSmigdAB3ZmOyqNydhir4p/Nf8zfNX54+b7Ly55U064f&#xA;SbaRv0dp6/bmevE3dx0RAFO3I0QV33OKvob8jP8AnHnRPy8tk1XUjHqXm2VKSXlKxWwYUaO2BFeh&#xA;oznc+w2xV7BirsVdirsVdiqE1bSNM1jTp9N1S2jvLC5XjPbyjkjAEEfSCAQex3xV86fnf/zjPc+Y&#xA;fOFjqXlDS7e2sdQURas1u0Vv9WnDkm6aJmRJUdX+JUAfkta7nFXzR+YH5fa55I813flrUzHcXlqi&#xA;ymW25vG0Tp6gcclU047nbbFXo/5Rf85R+bfJgh0rXvU1/wAuJREjkb/S7dBt+5lb7SgdI3NOwK4q&#xA;+w/I/wCYflDzvpY1Hy3qEd5GAPXgrxnhY/szRH4kO3yPYnFWR4q8F/Nj/nJ+z8jfmNaeX7azXVdO&#xA;tIW/xB6bUmSaWhiSJj8PKJRVwdjypUEYq+c/zi/PnzV+ZN36EtdN8uwtytdIicspI6STvRfVfw2o&#xA;vYdSVUL5r8p6H5Hj0I6Xrn6X87il7qlhFbLLZ2kZjEiRSesCWlSh9RHj6faC0+JVjHnPzv5l85a1&#xA;JrHmC8a7u2ASNacYoox9mOKMfCiDwHzO+Kt+RvKVz5u802Hl21u7axuNQcxx3N5II4gwUkAnqWYj&#xA;iqqCSTtir2Lzf/zigvk7yve+YvMXnG3t7SzQn04bN5HlkO0UUYaWOrSNQe3U7A4q8w/NL8s9V/Lv&#xA;zFBoupXMV1Lc2cV9FJCGWkcrOnF1YAq6tG1RirDsVdir6B/5xY8v+TfNvnTUzq6SW2o2drDJY6bZ&#xA;uYLWaCIpHIZOJ9ZmV1jZh6nx1PKuKvs2ytUtLOC1jpwt40iSgoKIoUUA6dMVVsVdirsVdirFPzH/&#xA;ADN8qfl9obarr9zxZ6rZ2MdGuLmQD7ESEjpUcmPwr3OKvldbL82v+ckPMq3U1dJ8nWcpEbsGNnbD&#xA;oRGPhNzccTufxRaYq+o/y1/Kvyj+Xmj/AKP0G2/fygfXtRlo1zcMveR+yj9lFoo8K1OKswxV2Kux&#xA;V2KuxV2KuxV2KqLWNk1z9aa3ja64GL1yimT0yalOVK8fbFXjPmb/AJxI/KzWboXFqtzo/qXUlzdL&#xA;ZOtGSVKejEsgeOJVkHNfgNKlenHiqwTQv+cVNb8tatZzWXmi70zWbme4jsdY04GSKFI09WJLmOkL&#xA;/vURg3x8Kim/IYq7zt+eX53+RtK1HTr5NJ1v6rOdMXzZZKxEN3wD8LiEFUWcIeQUoFr/ADUIxV5N&#xA;pf5Kebb2ysfOfnC7t9M0HUriK5vZ7+8jhvp7WaRWmuI0mI5syMWUM3JuwNRVV7LrH5bx/m5qGjjy&#xA;Zolv5Q8i6JUW3mZrYQ3t8BQL9ViokvpruyPIRUnl9oUxVHfnN5N8k/lL+SWp23l2z9PVddeLS5NW&#xA;nIlvJhM3qziSUgHi8MLgqtF9sVeB/lN+SHnLzr5h0z1dJurfy08qS3+qTRtDCbYEM4ikcASMy/Cv&#xA;Cu5qdsVWfnv5Z8j6D5+1GHyjq8d5bm4kNzpscbqLGbkecCS09OREaoHE1X7PauKso/L3zN53/NXU&#xA;/LXlPzRe/WfLPleZ9Z1S+nqXa0tlHw3Dk/vKcWjVqcvjNa02Vea/mT50vPOvnfVvMlyTS9nJtoz/&#xA;ALrt0+CCOn+TGor4mpxVjOKpjJY6cmjR3Ru/9Pkf4bTjUenVlLFh9mnEdetfbFX0z/zi7+XflrT9&#xA;Q8r+a21S6k1/WLHVJ4bCJF+qLDazraSCST7XIeorcfH5Cqr6qxV2KuxV2KvLvzp/Pny9+W9j9VUL&#xA;qPmi4StnpStsgbpLcEbongPtN22qwVeV+QvyD84fmNrg89/m9PMI7ij2uiMTHK0VeSI6j/eeEV2j&#xA;HxHvTuq+ndO03T9MsYLDTraOzsbZBHb20CCONEHRVVaADFURirsVdirsVdirsVdirsVdirsVdiqT&#xA;eaPOPlrytYm91y+js4iGaNGPKST015P6ca1duKjkxAoo3NAK4q+U/wA8NO1n8xLwXvlNraXSBbT+&#xA;YZ9Ns1MYW3jX0W1G/ncRI9zN6BjjjXmeK7EipKryb8mdU8uaf+Y+iP5h0mHV9NnuordorgtxiaZw&#xA;iz8a8H9MmpVwQR70OKv0eACgACgGwA6AYqk3mDyf5d8w3Omz61ZpffomY3NlBN8UImK8BI0Z+Fyo&#xA;J48gaHfriqcgACg2A6DFXyN5f/5xyvpP+cidQttYtGuPKNnK+tCeRaxXEU7s1vbk9C3q1V1PUI3Y&#xA;jFWY/wDORukR+V7TzB55jmjtJdR0W38o6PZQ/DyFxO011I4FAKW4ZUUeFfDFXxnirsVXxRSzSpDE&#xA;hklkYJGiirMzGgAA7k4q+xP+cQNUmto/NXkyZzOug3MckEzAfC84aO6jQgt+79a2qv8AN12xV9G4&#xA;q7FXYq8X/PT8/wCDyeR5X8qqNT883hWKK3jUzLamWgQuorzlavwRfS21AyqD/JX/AJx8Oj3g87ef&#xA;n/S/na8b60EuD6qWkjb8iSSJJx/N0T9npyxV7pirsVdirsVdirsVdirsVdirsVdiqQeaPP3kvyrC&#xA;ZfMWtWmminJYppVErAfyRCsj/wCxU4q8M87/APOaPlmyY23lDS5dWkBob67rbQU8Uj3lf/ZBMVST&#xA;8mdW0D8zfzX1/UPMV79esp7Wml6PqEsayv6nwvE8SlfWWNOdFQGMcuXFTsFX0n5h0iz/AMKatY2t&#xA;rFFHLp81skMarGvAQsiR7UAUA0A7Yq/O/wAh6Bd3P5jeWdJI/e3l/p7fCekc7Ryhq0PSN6nbFX6V&#xA;Yq7FUr80+Y9N8s+XdR1/U3KWOmwPcTUpyIUbItaVZ2oqjxOKr/Leu2mv+XtM1yzBFrqlrDeQqTUq&#xA;s8YcK1O68qH3xV8d/wDOXf5mW3mLzbbeV9MmEum+Xuf1qVDVXvpKB122PoqoX/WLDFXgGKuxV6n/&#xA;AM45+QNf80/mTpd7YQIdO0K5gv8AUbudS0KLE4dE2IrI5X4B9J2BxV9q+SPyz8teTr/XtQ0pHN75&#xA;ivXvr+aQ1oWd3SJAKcUQyNTvvuelFWWYq7FXYq+GPys8waR+XP5y63e+d9Ku7x7Cea3l1WTlcy2M&#xA;skpX61IKfvPUBp6g3oaqDWmKvtjQ9f0TXtNi1PRb6HUNPm/u7m3cSISOoqOjDuDuMVR+KuxV2Kux&#xA;V2KpXrHmryxoorrGr2Wmjb/eu4ig69P7xl64qkM35teT/s6f+kNZk7JpenXt4DTv6kUJiA9y+KoO&#xA;T8xfOF0P9wn5e6vcD/fmozWOmpuK9JJpJf8AknirS3n57XzBo9N8u6HCeq3NzealKP8AYwx2aH/g&#xA;8VRlp5W/MWUq2redmQbFotK020thXbYNd/XzT7j8sVTqPyrZmze2vLu+vhKKTST3UylhSlOMLRRg&#xA;ePFRXviqVL+UP5WCZ538paTLLJu7zWcEpJPc+orb++KqF5+Sf5R3gYS+UNKUPsfRtY4Dt4GIJT6M&#xA;VeYfmL/ziP5RubCfUvIjT6Hr1spms7ZZnktpJE+ILWQtLGxI+Fleg8MVeeeQ/wDnIj829M8h6hqm&#xA;u6enmXy1YzJpk19cTfV71Jp424qZeMnq8RTkWjLbipxV5f8Ak15qXyz59s/M95pF1r1tokEk00Vu&#xA;SzW8JX0frDVVl4RertyKrUjcYq+4fIH5yfl757iQaDqiG+K8n0u4pDdpTc/umPx07tGWX3xVm2Ks&#xA;P/N7yTded/y51ryxaTLb3d/HGbeWSvD1IJkuEVqVIVmiCk02rirwe8uP+cmtP8jaX+Xnl3ylNpn1&#xA;K1Fnc63HcQSSyjevozc1igUg0rUt4FTir5n8zeX9R8u69eaJqfp/pCwk9K7WJxIqygAsnMbEqTxa&#xA;nfFUtjjklkWONS8jkKiKCWLE0AAHUnFXunlf/nD/APMzUL3TTrRt9K0y6HqXsvqiW4gTrwMQoDI3&#xA;ajUHc9sVfYfk7yb5d8n6Db6HoFotrY243pQySPSjSyv1d2puT+qgxVO8VdirsVdirwr8/wDyBrtj&#xA;qVt+avkmOvmDSI+Gt2IXkl7YqPi9SMf3nBPhdf2k6boMVeOebF8030zfmx+UTNpmgyWgk1yx0oR2&#xA;h064tkH1mO6hQqs4PL1efDdT0oK4q9E8g/mL/wA5WXdha3LeV7DzLps8Yki1Az2du0qdKrNFcLD9&#xA;0eKvYdC1/wDNS8Rf0p5QsNMfbkX1j1R7kCG0k+6v04qyI/4hlI4/VLQD7RPq3VdhsB/otN6774qv&#xA;+oXr0M2ozVIIkjhWKOM1FPhqryL/AMjK++Kqc3lzR7heF3C15EaAw3UstxEabbxys6H7sVVNP0HQ&#xA;9OJOn6da2ZJJJt4Y4tzUk/AB1qcVR2KuxV2KuxV2KuxV2KsX1/8AMHyfp2oXfl+516207XksZb0R&#xA;y1YxRJG7mYr8IbgqFynKtB4b4q/PzSfKl95v84ny75KguLuG6m/0b6waMY49vrNyVHGMUYsf5a8R&#xA;U9VX0Fqn/OFN1Bo9pNoHmYp5gjhIvBcoUtpJWBDelJF+8iSh4/Er167dMVS/RU89/lR5fTQ/M35T&#xA;WPmHSoXd5NZs1WaWTkxcSyzKlyQUrRCypQAdOuKr2/5yhbToRqPlO7mntIiPr/lLzETLKgJoZLDU&#xA;FZpZFH7STMWHVRToq9B8tf8AOXXke9s4LjzHpeo+XUmPFbt4WurNj/kTRLzbp/vvFWc2f58/k7eR&#xA;epF5t09V8JpPQb/gZQjfhir4H/MO5hu/P3mW7guEvIbjVb2aK7iYPHKklw7LIrDqGBqMVZ1/zjZ+&#xA;WepecfzDsL/02XRNAnivtQuiDwLwsHhgB7tI6io/lqcVffWKuxV2KuxV2KuxV2Kvnb82fyf80eV7&#xA;rVvN35XKRaatbyw+aPKsdfTuIpVZXkgjWm9HY8VoyndOpXFXl/5DfmJoPl7zVcrF5qn8n6JK8Zfy&#xA;/qlu2p2kzEETAXMbW31dwR8LtGNqBi1N1X2nZ3lpfWkN5Zzx3NpcIstvcRMHjkjcVV0ZahlI3BGK&#xA;q2KuxV2KuxV2KuxV2KuxV2KuxVJfNXnLy75VtLa61u7Fsl5cR2dogVnklnmNEjREBYnx8B1xV8Z/&#xA;npp0CfmLe+XdCupvMfnXXbr/AHN36qEVWlYCDTbWIM/BY1CeoWcnZVqAHBVfTv5Hfk1pf5beWliZ&#xA;UuPMd8ivq9+BWrdRBET0jjJp/lH4j2AVek4q7FWLeafyt/LvzVzbX/L9nezP9q6MYjuD/wA94uEv&#xA;/DYq8285/wDOLGl65b2UWneatWtItMp+jLHUJP0nZW4WnFYoZijKuwG7nbbFXl/5h/8AOMX5uajr&#xA;CatHb6Jq5RESSLTQmmNcCMk8pYisMKu42JR8VYT+SX5U6X5q/NjUPKfmy3mtV06G6kurO1mUFJ7a&#xA;ZIzC0n72qqWKmjV/ysVfcfljyr5e8raPDo+gWMen6dBukEQO7Hq7sas7Gm7MSTiqa4q7FXYq7FXY&#xA;q7FXYq7FXi/5x/8AOM3ljzy02r6OyaJ5oartcov+jXL9f9IjXcMf9+Lv4hsVSnyb+d7fl/BaeSvz&#xA;U0Z/Ld5aL6Vnq1pBz065jU/3irbg8Sa7+mpFeoT7OKvZvLPnDyv5psnvfL2p2+p2sbBJZbdw4RyA&#xA;3Fh1U0PQ4qnGKuxV2KuxV2KuxV2KuxVbJJHFG0kjBI0BZ3YgKqgVJJPQDFXzZ+fn5j+S7jT/AC75&#xA;50rVE1SXTmvI/K9gIpFR9R5oj38nqqnOKz9L93QENIRvxDVVX/8AOKP5Rz28D/mV5kRptY1T1G0j&#xA;16tIsUpPqXTFt/UnqQD/ACb/ALeKvpLFXYq7FXYq7FXYq+Xv+cR9Nl1Tzv5686TbtNM1tFJUEM13&#xA;cNczUYAdPTj+/FX1DirsVdirsVdirsVdirsVdirsVSzzF5Z0DzJpcula9YQ6jp8327edQwr2ZT1V&#xA;h2ZSCMVeP6T+Ufmv8ptbuta/Llm1zy5fFTq3lO6kCXHFK0ktJ2ojSICaK9KjYljSir1Lyh598t+a&#xA;4Zf0ZO0d9bbX+k3aG3vrV/5Li3f40+f2T2JxVkOKuxV2KuxV2KuxV2KvNvza88+TB5E84adPrsdt&#xA;JYQpY6wkBElzH9dFBBGh2M00XNU7A7tsrUVfOX5Pfldqf5t+b4vMOtWjWXkTRglvaWY5CNoYD+6s&#xA;YGNOSjrM/Ukkn4mrir7UiiiiiSKJFjijULHGoCqqqKAADYADFV2KuxV2KuxV2KuxV4X/AM4b2dvB&#xA;+Uks8ZBku9UuZJiOoKpFGAdz+ygP04q90xV2KuxV2KuxV2KuxV2KuxV2KuxV2KsX84/lz5d80tHd&#xA;XAlsNbtlIsNe09zb39v/AKkybsu/2HqvtirAdT/MX8yPyxkCefNPPmbyoCFj83aXGI7iJa0H160r&#xA;wB/ykKr4VO2KvRfJv5g+TvOdh9d8t6pDqEYAMsSHjNFXtLC3GRP9kPlirIcVdirsVdirzTz5+eWj&#xA;+WPM9n5a0/TbnzBqrOh1aKxq31GCTZXlKq9ZGJHGLYn5lQyrAfL/APzjkfM+tvrnnGF9P0N7l7yL&#xA;QPUJvL6eRizXeqTIxCvJyNIoz8CniCDy5KvoHT9PsNOsoLCwt47SytkEdvbQqEjRF6KqrQAYqiMV&#xA;dirsVdirsVdiriQBU7AdTir5P/5w/wDP8ei32ofl5rgexub6b69pK3CmMmYxhZYSHoQzIisg70bv&#xA;Sqr6wxV2KuxV2KuxV2KuxV2KuxV2KuxV2KuxVbNDFNE8MyLJFIpSSNwGVlYUKsDsQRir5T/Pj8iF&#xA;8k+r+Yn5e6h+ghat6l5p6XH1b0y3VrOQsnX/AHzX/U7Liqh+Vn/OY17bvDpn5gwfWbbZF1y1Sky9&#xA;uVxAvwv7tHQ/5LHFX1To2s6TrWmW+qaTdxX2nXS87e6gYOjDpsR3B2I6g7HFUZirxv8ANX8wvOEf&#xA;nnQ/K/kO5ivr6JxcazpNoBJdOFYFI7maSNoLO3IHxuX9Q8tl8VWaeSPI9xpbPquuSW9xr1y7zPFZ&#xA;RCCxtWlqZFtoqAszVPOeSsj9yB8IVZhirsVdirsVdirsVdirsVeY/wDOR/mm78vflPqhsWKahqzR&#xA;6VaMp4kNdtxkodqH0Q9D2OKsn84flv5P826fFZ6xYq0lqF+oahCfSvLVk3R7e4X40KkA9aV6g4qx&#xA;TTvPOt+Q9VtfLP5i3QuNNvG9HQPOhXhFM1fhttQp8MNwF6P9lxvsQcVepAgio3B6HFXYq7FXYq7F&#xA;XYq7FXYq7FXYq7FVK7u7WztpLq7mjt7aFS808rBI0UdWZmIAHzxV4L55/wCcpYpLuTQfyv0mbzVr&#xA;e6/XI4ZZLWM9KpHGPUm+fwr3q2KvMJPyG/5yJ/MzUF1XzldLZKxJi/Sc4/do3UQ2luJBF/qlUxVm&#xA;9p/zhF5cTRriO78x3c+svGRbXMcMcVtHJ1BaEmR3Hb+8GKvMPy8/Mbzb+QXm7W/LnmHTpby0cfvN&#xA;NWb04/WBBiu4XZXHF4qjYfFtXdaYq+ofJur+ePzD8sjUtXsn8m6VqCBrS2tZzLqUkLCvqGd441gR&#xA;x9njHzpuGXYlVlvljyh5a8r2LWWg6fFYwu3OZkBMkr/zzSsWklf/ACnYnFU4xV2KuxV2KuxV2Kux&#xA;V2KuxV5T+b/li687+b/JflWNWbS7G7bXtekH2Y4LYenbo3+VcO8iL3oGPY4q9WxVLfMflzRfMmi3&#xA;Wi61apeabeJwngf7wykbqyndWG4O4xV4JaedvNf5FeYYPLHnBp9Z/Li7cpoPmAgyXFonUQy0Hx+n&#xA;3TrT4k2HAKvoPStV03VtOt9S0y5jvLC6QSW9zCweN1PdWGKorFXYq7FXYq7FXYq7FWG+a/zj/LLy&#xA;qXj1rzDaRXSbNZwsbi4B8DDAJHWv+UBiqhoXnrzR5q4TaD5an0zSX6avrx+rFl/mgsoy80oI6c2i&#xA;B8cVResflloPmKdJvNclxryRsHh0+4kaOwjYb1W1hMaPTsZvUb3xVkel6PpGk2q2elWNvp9on2Le&#xA;1iSGMfJIwq4qi8Vdiryj8+vyy0jzJY6Z5qlsxdX/AJWuYb25gAq13psUqy3dqaAlv3YZkFDvUD7W&#xA;KvVY3jeNXjYNGwBRlIKlSKggjtiq7FXYq7FXYq7FXYq7FXYq7FWAfmN+bmm+Vrm30DSrdtd876kQ&#xA;ml+X7YgvVhUS3DdIYgNyW3I9qsFWR+TtG1bTNHQ63eDUNeuz6+q3aDjGZm/3XCu3GGIUSMeA5H4i&#xA;xKqeYq7FUp81eVdC81aFdaHrlqt3p12vGSNuoP7Lo3VXU7qw6Yq+am8tfm5/zj9q8195eE3mn8uZ&#xA;XMt3Z0q8Snq0iKCYZFUf3yLwb9oDYBV7/wDl1+aHlD8wNIGo+X7sPIgH1ywkotzbsf2ZI69PBhVT&#xA;2OKssxV2KuxV2Ksc86wfmDNYonky60y1u2qJZNUimkAHYx+kwFf9ZTirya7/ACD/ADW81yEeffzI&#xA;uJbFj+90zSojDC6+Gxhj+XKJsVZ75E/In8svJLRz6RpCTajHSmp3p+s3NR+0rMOMZ/4xquKs/wAV&#xA;dirsVdirsVcQCKHcHqMVSHyleqY7/RmASbQro2XpigAt2RZrQj2+ryopP8ytiqfYq7FXYq7FXYq7&#xA;FXYqoX+oWGnWc19f3MVpZW6l57md1jjRR+0zsQoHzxV4brP5yecfzE1O48sfk5an6tGfS1Pzpdqy&#xA;W0Abr6AYH4qdCQWO/FP2sVZ3+V/5OeXvIcU92skmr+Zr+rap5hvPiuJmY8mC8i3poW3pUk/tFqDF&#xA;WfYq7FXYq7FXYqwXWPyZ8k3msLr+mQy+XPMcZJTWNGcWspr9oSR8XglDU+ISRmuKo7Vdf81+WrCO&#xA;a90qbzNbRL/pV3pCKt2KbcjYyP8AH7+lKT4IBiqW6B+fH5U61P8AVYdfgsr9TwksdSD2MyOOqEXA&#xA;jBYeCk4qzn63a/VvrXrR/VuPP1+Q9Pj/ADcq0piqrirsVdirsVdirsVdirsVdirsVYNqU50T829K&#xA;nPw2fmywk06bsPrumlrq2J93glnX34rirOcVdirsVdirsVdirB/zS/ODyh+XOl/WdYm9bUZlJsdJ&#xA;hINxOelafsR16u23hU7Yq8R8v+VPzM/P+/i1/wA6zy6F+X0biTT9HtiU+sgHYxht226zuPZB14qv&#xA;pXy/5d0Py7pMGkaJZRWGm2y8YbaEUUeJJ6sx6lmJJ74qmOKuxV2KuxV2KuxV2KuxVIvMHkPyT5ik&#xA;WXXdCsNTmXZZrq3ikkAG1A7KWp7VxVX/AMJeVv0B/h39EWf6B48P0V6Ef1bjy5/3VOH2vi6dd+uK&#xA;ptirsVdirsVdirsVdirsVdirsVYN+c+m3lx5Gn1XT056t5anh17TgO8mnv6rp7+pB6iU/wArFWX6&#xA;VqVpqml2ep2b+pZ30EdzbP8AzRzIHQ/SrYqisVdirsVdirAvzl/NjSvy38qSanOFuNVuaw6Rp5ND&#xA;LNTdmpuI468nP0dSMVeK/k7+Q+u+d9ZP5j/mqZLr66y3Njpdx1uK7o86dEgApwioKjqAuzKvqWOO&#xA;OKNY41CRoAqIoAVVAoAAOgGKrsVdirsVdirsVdirsVdirsVdirsVdirsVdirsVdirsVdirsVdirs&#xA;VadEkRo5FDo4KujCoIOxBBxVgH5OM+maXqvkmcn6x5Rv5LK35mrPp8/+k2EnU7ehL6fzQ4q9AxV2&#xA;KuxVLvMXmDSfLuh3uuavOLbTtPiM1xKeyjoAO7MaKo7k0xV4n5F/LnV/zK83r+aX5h2pisBT/Cnl&#xA;mbdYrZTyiluFPj9viftH4j8NBir33FXYq7FXYq7FXYq7FXYq7FXYq7FXYq7FXYq7FXYq7FXYq7FX&#xA;Yq7FXYq7FXYqwDzOP8N/mPofmhfg07XkXy7rXZRMzGXTZ26biUyQVP8AvxRirP8AFXYq4kAVOwHU&#xA;4q81m0ZfzM123v8AUV9T8v8AR5fU0yyb7Oq3sZI+tSr+1awmoiU7SGr7pxqq9KAAFBsB0GKuxV2K&#xA;uxV2KuxV2KuxV2KuxV2KuxV2KuxV2KuxV2KuxV2KuxV2KuxV2KuxV2KpV5q8t2HmXy7f6Ff8hbX8&#xA;RiaRDR43+1HKh7PG4V1PiBiqWfl95iv9U0mSw1oCPzNokn1DXIhsGmRQUuYxt+6uYysqfOnUHFWU&#xA;Yqx3UeXmO4m0iBmXRYHMWsXC1X12FOVnE3de07jp/dj4uXBVkEcccUaxxqEjQBURQAqqBQAAdAMV&#xA;XYq7FXYq7FXYq7FXYq7FXYq7FXYq7FXYq7FXYq7FXYq7FXYq7FXYq7FXYq7FXYq7FUh1vQ51vv8A&#xA;EWjRr+noLdoPRdvTivYgeaW87AMRxepjkoTGSdirMpVeeeX/AD95/wDzH1i80K10K58naNpkht/M&#xA;Wp3L8rxpBQtZ2fAIqOympmBbip5ChKkqvW7KytLGzhs7OJYLW3QRwxJsFVRQAYqrYq7FXYq7FXYq&#xA;7FXYq7FXYq7FXYq7FXYq7FXYq//Z</xmpGImg:image>
               </rdf:li>
            </rdf:Alt>
         </xmp:Thumbnails>
      </rdf:Description>
      <rdf:Description rdf:about=""
            xmlns:xmpTPg="http://ns.adobe.com/xap/1.0/t/pg/"
            xmlns:stDim="http://ns.adobe.com/xap/1.0/sType/Dimensions#"
            xmlns:xmpG="http://ns.adobe.com/xap/1.0/g/">
         <xmpTPg:NPages>1</xmpTPg:NPages>
         <xmpTPg:HasVisibleTransparency>False</xmpTPg:HasVisibleTransparency>
         <xmpTPg:HasVisibleOverprint>False</xmpTPg:HasVisibleOverprint>
         <xmpTPg:MaxPageSize rdf:parseType="Resource">
            <stDim:w>54.999571</stDim:w>
            <stDim:h>60.289171</stDim:h>
            <stDim:unit>Millimeters</stDim:unit>
         </xmpTPg:MaxPageSize>
         <xmpTPg:PlateNames>
            <rdf:Seq>
               <rdf:li>Cyan</rdf:li>
               <rdf:li>Magenta</rdf:li>
               <rdf:li>Yellow</rdf:li>
               <rdf:li>Black</rdf:li>
            </rdf:Seq>
         </xmpTPg:PlateNames>
         <xmpTPg:SwatchGroups>
            <rdf:Seq>
               <rdf:li rdf:parseType="Resource">
                  <xmpG:groupName>Default Swatch Group</xmpG:groupName>
                  <xmpG:groupType>0</xmpG:groupType>
               </rdf:li>
            </rdf:Seq>
         </xmpTPg:SwatchGroups>
      </rdf:Description>
      <rdf:Description rdf:about=""
            xmlns:pdf="http://ns.adobe.com/pdf/1.3/">
         <pdf:Producer>Adobe PDF library 9.90</pdf:Producer>
      </rdf:Description>
   </rdf:RDF>
</x:xmpmeta>
                                                                                                    
                                                                                                    
                                                                                                    
                                                                                                    
                                                                                                    
                                                                                                    
                                                                                                    
                                                                                                    
                                                                                                    
                                                                                                    
                                                                                                    
                                                                                                    
                                                                                                    
                                                                                                    
                                                                                                    
                                                                                                    
                                                                                                    
                                                                                                    
                                                                                                    
                                                                                                    
                           
<?xpacket end="w"?>
	</metadata>
<g>
	<path d="M100.155,3C100.557,8.632,95.615,2.609,100.155,3C100.238,4.162,98.737,2.878,100.155,3z"/>
	<path d="M97.887,5.593c0.063,1.47-1.901,0.907-1.944,2.271C94.978,6.771,96.969,5.877,97.887,5.593z"/>
	<path d="M94.322,7.213c-0.673,0.732-1.798,1.015-2.918,1.296C91.792,7.494,93.014,7.31,94.322,7.213z"/>
	<path d="M94.97,7.538c1.042,0.751-1.129,1.008-0.975,1.945C92.921,8.696,94.624,7.974,94.97,7.538z"/>
	<path d="M67.095,8.186c1.416,0.536-1.671,2.729-2.595,1.942C65.136,8.836,66.379,9.701,67.095,8.186z"/>
	<path d="M112.473,12.724c1.116,0.354,0.56,2.167,0.322,2.917C111.602,15.207,112.402,13.866,112.473,12.724z"/>
	<path d="M105.018,13.696c-0.482,0.38-0.382,1.347-1.296,1.296C102.981,14.093,104.043,13.032,105.018,13.696z"/>
	<path d="M130.948,19.53C130.975,18.567,130.293,19.075,130.948,19.53C130.939,19.843,130.07,18.92,130.948,19.53z"/>
	<path d="M137.431,28.606C137.505,28.936,134.819,30.87,137.431,28.606C137.492,28.879,136.427,29.476,137.431,28.606z"/>
	<path d="M141.32,42.868C146.66,42.262,137.386,46.777,141.32,42.868C142.173,42.771,140.537,43.646,141.32,42.868z"/>
	<path d="M93.025,43.192c1,0.524,0.524,1.013,0.973,1.621C93.437,45.764,92.818,44.078,93.025,43.192z"/>
	<path d="M38.248,54.86C41.871,54.038,38.832,58.595,38.248,54.86C38.523,54.798,38.407,55.878,38.248,54.86z"/>
	<path d="M43.757,54.86C44.561,57.942,44.25,56.133,43.757,54.86C43.98,55.717,44.234,56.093,43.757,54.86z"/>
	<path d="M68.715,55.833c5.056,1.091,6.947,0.063,10.697,0.325C77.698,57.824,70.254,58.94,68.715,55.833z"/>
	<path d="M50.24,58.102c-0.758,0.521-2.231-0.409-2.594-1.296C48.718,55.971,50.079,57.013,50.24,58.102z"/>
	<path d="M55.103,60.046c-0.462,1.279-2.737,0.047-2.917-0.972C53.35,58.145,54.195,59.703,55.103,60.046z"/>
	<path d="M56.723,61.343c0.649,0.359,2.679,0.031,2.593,1.945C57.861,63.23,56.741,62.837,56.723,61.343z"/>
	<path d="M63.529,65.557C59.81,61.933,63.801,64.602,63.529,65.557C63.146,65.184,64.045,63.744,63.529,65.557z"/>
	<path d="M65.798,65.88c0.972,0.648,1.945,1.297,2.917,1.945C66.927,69.573,65.838,66.786,65.798,65.88
		C66.872,66.427,65.823,66.446,65.798,65.88z"/>
	<path d="M70.661,68.474C76.26,68.432,70.661,72.169,70.661,68.474C71.963,68.465,70.661,68.906,70.661,68.474z"/>
	<path d="M76.17,70.418C77.305,74.712,71.248,65.613,76.17,70.418C76.479,71.589,75.718,69.976,76.17,70.418z"/>
	<path d="M77.467,70.743C80.061,70.869,77.467,74.032,77.467,70.743C78.292,70.783,77.467,71.175,77.467,70.743z"/>
	<path d="M87.19,74.308C87.19,77.962,84.693,73.937,87.19,74.308C87.19,74.74,86.177,74.158,87.19,74.308z"/>
	<path d="M86.219,79.494c0.001,1.189-1.138,1.242-1.621,1.944C83.661,80.586,84.793,79.06,86.219,79.494z"/>
	<path d="M83.949,81.115c-1.076,0.825-1.509,1.905-1.298,3.242c-1.225-0.073-1.872-0.722-1.943-1.946
		C81.684,81.707,82.764,81.275,83.949,81.115C83.512,82.507,82.463,80.03,83.949,81.115z"/>
	<path d="M82.005,95.375c4.139,0-0.907,3.952-1.943,3.569C80.627,97.71,81.274,96.52,82.005,95.375
		C82.439,95.375,82.04,97.131,82.005,95.375z"/>
	<path d="M79.412,100.239c0.207,1.374-1.273,3.631-2.595,4.537C77.289,102.87,77.337,100.541,79.412,100.239z"/>
	<path d="M76.17,106.072c-0.87,1.399-1.625,2.914-2.917,3.891C73.844,108.431,74.062,105.032,76.17,106.072z"/>
	<path d="M70.984,111.259c2.144,1.43-0.87,1.899-1.621,3.564C69.504,113.461,70.044,112.272,70.984,111.259
		C71.245,111.432,71.107,112.904,70.984,111.259z"/>
	<path d="M67.418,115.149c2.552,0.561,1.472,1.641-3.238,3.24C65.259,117.309,66.338,116.229,67.418,115.149
		C67.68,115.32,66.271,116.162,67.418,115.149z"/>
	<path d="M60.612,120.982c0.657-0.855,0.854-2.17,2.595-1.944C62.984,120.331,62.106,120.963,60.612,120.982z"/>
	<path d="M60.937,7.213C57.35,2.23,84.59-0.303,88.812,1.056c-3.405-1.005-4.291,3.309-7.131,3.24
		c1.695-4.895-8.742-2.244-8.749,1.297c-1.286-0.376-6.156,4.031-10.371,2.593c0.51,0.623,1.158,0.73,1.943,0.321
		c-3.462,2.701-1.614,1.71-3.891,1.3c-0.018,0.78-0.342,1.427-0.972,1.941c1.33,0.875,6.463-2.463,6.808,0.323
		c-2.728,0.265-5.429,0.697-8.104,1.297c1.324,3.011,9.755,2.372,13.287,2.271c-4.303,1.055-8.625,1.162-12.965,0.321
		c5.218,6.046-16.104,6.656-16.528,12.646c3.104,2.493,2.677-0.688,2.916-1.297c13.641,0.236,8.279,13.9,2.27,21.719
		c6.048,3.193,2.985,1.575,7.779,1.297c-0.367,1.226,0.536,3.094,0.324,3.241c1.416,1.276,3.113-1.308,3.565,0.972
		c-0.198,0.241-2.868-3.802-3.241-3.889c0.684,0.352,1.009,0.892,0.974,1.621c-0.315-0.684-0.748-0.792-1.296-0.324
		c-1.061-0.354,6.927-4.616,1.942-3.569c1.438-2.088,1.114-3.061-0.973-2.917c0.542-0.89,1.49-7.273,3.888-9.397
		c0.682,0.508,0.79,1.156,0.323,1.942c4.316-5.903,23.513-3.881,27.229,0.978c-0.681,0.452-1.22,0.344-1.619-0.324
		c0.061,0.331,6.979,7.316,7.13,7.454c-1.375,0.216-2.436-0.678-3.24-1.944c-1.754,0.396,0.563,1.831,0.327,2.591
		c-9.185-3.284-4.282-5.574-11.347-4.859c0.747,1.938,2.152,3.019,4.216,3.242c0.068,0.518-6.118-1.211-7.458-0.971
		c2.31,0.961,4.213,8.33,8.427,9.399c-2.541,3.66-16.753-0.716-19.449-1.623c-0.014,0.395-0.229,0.611-0.646,0.646
		c0.048,0.859,2.301,0.949,2.268,0.975c-0.046-0.545-1.566,3.063-0.832,2.846c0.305-0.09-1.69-1.172-2.412-1.873
		c0.174,2.053-5.149,0.375-2.593,3.565c4.595-1.382,22.021,13.458,27.885,14.255c1.61-0.007,4.686-5.016,4.857-6.158
		c0.533,0.671,1.181,1.212,1.943,1.621c2.32-0.764,5.049-4.404,8.749-5.834c-1.002,0.547-2.902-1.201-3.567-1.297
		c0.149-0.519,4.895-2.793,5.838-5.833c-0.505,0.097-0.505-0.12,0-0.648c-1.211-1.735-7.139,1.053-3.564,2.271
		c0.068-1.447-2.667,1.045-2.594,0.973c-0.522-0.899,2.424-6.961,2.591-7.131c1.574-0.193,1.537-1.574,3.567-1.948
		c-0.797,0.156-1.554,0.048-2.271-0.321c4.24-1.59,1.607-1.548,2.271-1.621c-0.053-0.167-2.352,1.04-2.192,0.483
		c1.273-0.309,1.247-0.902-0.081-1.78c-0.072,0.761-0.18,1.518-0.322,2.27c-0.521-0.456-1.063-0.888-1.621-1.297
		c1.801-0.813,2.619-2.859,2.59-5.187c-3.26,2.434-1.326,1.809-3.563,6.483c-1.029-3.13,1.899-8.455,0.646-10.696
		c0.765,0.009,0.872,0.44,0.324,1.296c0.297-0.556,0.621-1.095,0.973-1.618c0.013-0.437-0.65-0.448-0.647-1.296
		c-19.84,18.994-1.082,3.149-2.267,9.075c-4.233-1.698,0.934-9.81,0.647-11.345c-8.964,7.915-2.071-0.375,0-2.594
		c-0.539,0.216-1.079,0.432-1.62,0.646c-0.224-0.992-0.781-2.081,0.322-1.941c-0.819-0.408-1.684-0.517-2.593-0.324
		c0.547-0.313,1.088-0.637,1.621-0.973c-1.189,0.859-1.838,0.102-1.945-2.272c1.05,1.583,2.347,2.016,3.891,1.297
		c0.15-1.757-2.216,1.189-1.942-2.918c0.289,0.063,6.982,4.05,2.267,3.885c0.031,0.088,3.258,0.384,1.72,0.738
		c4.399-1.013-3.808-2.681,1.844-2.681c-0.223,0.381-0.547,0.597-0.973,0.646c0.412,0.191,0.845,0.3,1.296,0.325
		c-0.617-0.928,1.121-2.881,1.945-2.917c0.056,3.445-1.32,1.876,0.972,1.622c-0.813-0.777-0.598-1.209,0.646-1.296
		c-0.379-5.613-8.136-3.782-8.751-3.888c0.103-1.166,0.979-1.919,0.974-2.92c-2.703,2.24-6.751,4.626-7.78,8.103
		c-5.464-1.492,17.3-11.059-6.158,2.268c3.616-6.032,6.479-7.9,9.077-14.586c4.301,1.169,4.936,7.115,7.131,1.296
		c1.65,0.302-0.353,3.147,1.62,4.863c4.29-0.688,1.892-3.52,1.621-5.186c4.022,0.21-0.542,7.242,7.131-4.213
		c-0.687,5.688-9.634,6.983-6.159,11.344c2.29-0.807,0.729-5.187,3.568-5.187c-0.512,1.271-0.943,2.568-1.297,3.893
		c5.394,4.345,5.645-5.542,6.161,6.479c0.737-0.565,1.277-0.457,1.621,0.325c0.547-1.036,0.979-2.117,1.296-3.242
		c-0.25,0.077-2.029,0-2.59,0c5.56-4.432,1.977-16.848-0.324-12.965c0.199-0.632,0.307-1.281,0.324-1.945
		c-0.38-0.179,7.372,5.339,8.746,5.189c-0.478,3.334-3.562-1.723-4.859-0.973c-0.433,3.335-0.647,6.685-0.646,10.048
		c0.223-0.019,2.892-4.165,2.916-4.213c-0.778,0.273-1.535,0.597-2.27,0.972c0.184-0.301,2.064-2.242,2.472-1.736
		c1.414,1.757-0.407,1.77,2.066,3.028c-1.253-0.506-0.82-0.614,1.297-0.324c-0.025-1.225-0.241-2.412-0.648-3.563
		c1.083-0.085,4.128,9.314,4.214,10.693c4.071-0.905-1.127-3.626-0.972-6.155c17.185,9.103,0.349,4.498,3.239,3.238
		c0.915-2.47,1.356,3.264,1.297,2.27c3.326-1.625-1.737-0.773,1.62-0.325c0.025-0.245-2.56-4.668,0.647-1.623
		c-0.737,2.473-1.25,1.206,0.974,4.54c-0.644,1.116,0.543,6.921,3.245,6.483c-0.102-0.591-2.535-4.861-2.595-4.861
		c0.802-0.198,1.341,0.125,1.619,0.972c2.105-1.312-3.006-5.291-2.916-7.132c0.452,0.877,0.992,0.877,1.62,0
		c-0.29-0.79-6.375-6.196-4.215-6.48c-0.664,1.92,0.954,1.89,0,1.619c0.049-1.582,0.239-2.696-2.916-2.268
		c1.179-0.072,1.288-0.396,0.326-0.971c2.05-2.863,5.725,5.044,5.834,5.834c0.829-0.14,1.153-0.572,0.974-1.296
		c-0.079,0.078,3.189,1.039-0.323,1.294c0.505,0.91,1.94,0.016,3.889,1.296c-0.875,0.415-1.74,0.415-2.596,0
		c-0.418,0.59-0.525,1.238-0.322,1.943c0.715,0.784,2.729,0.425,3.563,0.65c0.356-1.797-2.665-0.9-2.918-0.972
		c0.136-3.18,5.342,0.94,5.835,0.646c-0.338-0.51-0.168,4.359-0.324,3.568c-2.292-1.687,2.706,0.559-2.266-0.974
		c0.047-0.133,1.706-1.053,0.972-0.972c-1.22-1.806-2.299,1.122-1.624,2.593c-0.118-1.761,1.951-0.993,2.597-0.324
		c-0.313,0.975-2.239-0.412-3.893,0.972c0.035,0.944,2.074,0.014,2.269,0.324c-0.825,0.449-0.601,3.47-0.324,4.214
		c0.689-0.728,1.446-0.835,2.27-0.324c-1.135,2.809-0.047-0.884,0.324,2.593c-0.628,0.011-0.952-0.313-0.973-0.973
		c-2.485,1.011,2.063,1.696,1.62,1.621c-0.363-1.505-1.562,3.407,1.617,2.268c-0.12-0.436,1.904,7.963,1.296,9.401
		c-1.313-0.707-2.718-1.031-4.212-0.973c-3.643,4.826,4.16,9.296,0.321,9.071c-0.373,2.14,0.822,6.596,0.65,8.428
		c-0.192-4.509-1.272-5.698-3.24-3.566c1.686-0.304,1.686,0.561,0,2.593c3.543-1.439-0.513-0.665,2.271-0.972
		c1.308-0.122-2.319,1.81-2.917,1.945c3.732,6.639-0.021,5.295,0,4.859c-3.438,2.668,3.826,7.662-0.973,11.023
		c-0.461-1.416-0.901-2.629-0.325-4.214c1.432,1.249,0.219,1.512,0.322-1.945c0.946-1.218-3.043,5.861-1.942,5.834
		c1.699-0.058-6.437,7.038-6.482,7.131c-0.774-0.094-2.435-1.316-3.883,1.621c0.421,1.421-2.717,7.093-6.807,7.127
		c1.423,6.111-6.144,13.79,2.795,20.866c5.369,4.25,27.768,24.44,32.534,19.973c-6.773-1.924-14.118-3.228-20.124-7.161
		c-6.188-4.053-10.708-12.789-18.122-14.88c-4.284,6.231,0.453,11.563-10.876,19.284c-14.85,10.119-23.927,21.389-35.799,34.524
		c-13.131-12.573-12.098-36.294-24.281-46.22c0.066,0.054-38.531,11.403-38.6,11.535c6.592,3.289,25.466-9.91,34.36-13.938
		C29.268,109.848,8.289,105.635,0,88.569c5.016,2.608,6.754,9.634,12.643,11.021c-0.083-0.604-0.927-1.822-2.596-1.615
		c0.032-0.808,0.803-0.971-0.971-3.568c-0.235,0.2,6.41,4.534,6.481,4.538c-0.203,0.422-2.566,0.015-2.592,0
		c-0.5,2.293,4.277,1.181,3.892,3.563c-0.546,0.079-0.978-0.136-1.296-0.646c1.06,2.897,5.366,4.452,7.78,4.536
		c-0.165,5.85,27.858,13.798,27.875,19.445c13.797,1.199,27.824-21.901,35.979-33.709c-0.82,0.61-1.685,1.151-2.593,1.621
		c9.173-19.911-77.858,7.912-77.146,0c-1.847-0.405,0.746-1.508-0.648-1.942C6.688,91.834,0.593,90.299,0,86.95
		c7.026-7.262,15.235-13.288,22.882-19.855c3.167-2.721,12.32-22.011,13.42-21.958c-8.154,22.568,13.963-1.056,1.946,0.972
		c0.432-1.492,4.274-0.489,4.538,0c0.481-3.132-4.514-4.253-5.834-2.271c0.015-0.756,0.015-1.512,0-2.269
		c3.6-0.308,2.485-0.217,4.863-5.184c0.489,0.643,0.489,1.291,0,1.944c0.376-0.533,3.724-3.151,2.917-3.241
		c-0.49,0.021-0.815-0.194-0.975-0.646c-2.539,0.557-5.137-0.52-6.155,3.244c0.432-0.325,0.864-0.65,1.296-0.975
		c0.99-2.096-2.879,5.451-2.271,4.864c-0.616-1.11-0.832-2.299-0.646-3.565c-0.272,0.842-0.813,1.167-1.621,0.975
		c3.968,2.888-0.661,3.052-1.62,2.593c0.493-1.64,1.249-3.153,2.27-4.538c-2.294,2.355-4.671,4.625-7.13,6.808
		c0.303-0.579,6.586-10.312,7.455-10.696c-1.956,0.463-3.792,1.219-5.511,2.269c1.745-4.146,8.332-3.84,8.429-6.807
		c-1.816,0.775-3.307,3.271-5.51,3.89c-0.093-0.015,2.088-6.315,4.211-6.804c-4.168,2.351,1.687,2.377,1.62,1.623
		c-3.493,2.997,1.945-0.61,1.945-0.971c-5.655,0.071-2.947,1.31-3.891-1.619c2.016-0.432,3.961-1.081,5.834-1.945
		c-0.37-2.199-1.883-1.983-4.538,0.648c0.369-1.135,8.336-3.133,4.862-5.188c1.116-0.332-7.045,4.144-6.805,2.593
		c2.82-1.421,5.737-2.609,8.751-3.563c-1.733,0.697-1.733,1.237,0,1.621c-0.212,0.768-1.471,2.047-2.269,2.269
		c0.792,1.693,5.899-3.476,5.837-3.888c-1.161,1.696-2.349,2.129-3.563,1.297c-0.901-0.297,3.575-0.496,0.649-1.945
		c-0.175,0.052-0.871,0.652,1.298,0.327c-0.004-2.603,6.031-7.376,6.159-4.536c2.149-1.387,2.257-1.927,0.323-1.621
		C53.02,10.68,60.379,7.688,60.937,7.213C60.576,6.711,60.129,7.9,60.937,7.213z M67.095,4.621c1.337,0.93,5.6-0.003,6.155-0.647
		C72.069,3.131,68.542,3.293,67.095,4.621C68.522,5.613,68.131,3.671,67.095,4.621z M65.474,51.943
		c-0.245-1.542,2.166-0.427,1.621-2.271C66.443,50.222,63.915,51.201,65.474,51.943z M105.99,45.785
		c0.12-0.431,4.788,0.536-0.974-1.945C105.15,44.975,104.263,45.258,105.99,45.785C106.06,45.533,105.52,45.641,105.99,45.785z
		 M121.549,21.151c0.727,0.867,0.194,3.176,0.974,3.244c1.423-3.927,1.169,1.525,0.646-2.271c0.551,0.07,0.982-0.145,1.297-0.646
		c-0.396,0.729-0.396,1.054,0,0.973C124.33,21.272,121.435,19.589,121.549,21.151C122.368,22.129,121.507,20.57,121.549,21.151z
		 M137.755,30.875C141.512,32.671,136.779,27.496,137.755,30.875C137.953,30.969,137.56,30.202,137.755,30.875z M136.134,26.662
		c1.275-0.328,1.885,0.715,1.299,1.296C139.698,28.046,136.516,24.863,136.134,26.662z M14.262,101.86
		C14.014,100.967,14.254,101.599,14.262,101.86C14.158,101.484,14.227,100.799,14.262,101.86z M48.944,17.585
		C48.423,16.244,46.512,16.35,48.944,17.585C48.466,16.354,48.371,17.294,48.944,17.585z M48.944,13.372
		c-0.798-0.488,3.773,0.527,2.916-0.647C50.14,13.111,49.732,11.168,48.944,13.372C50.105,14.082,49.2,12.656,48.944,13.372z
		 M64.502,6.89c3.65,0.399,3.284-5.83-2.27-0.648C63.121,7.234,66.029,5.515,64.502,6.89C64.305,6.869,63.556,7.742,64.502,6.89z
		 M55.75,13.696c-1.472,0.487-2.148,0.72-2.917,1.296C53.805,15.647,55.017,14.301,55.75,13.696z M95.294,19.855
		c1.826-0.683,3.23-1.872,4.214-3.566c-1.229-0.872-2.525-1.628-3.89-2.269C95.73,15.978,95.623,17.923,95.294,19.855
		C96.363,18.455,94.952,17.869,95.294,19.855z M56.399,16.613c-6.019-1.602-1.607,1.528-5.508,1.297
		c1.518,2.813,4.192-1.188,4.211-0.327c-2.354,3.748-5.687,1.811-6.81,1.949c0.158,1.618,0.374,1.726,0.648,0.324
		c0.72,3.696-1.061,0.416-1.621,2.266C52.735,22.898,55.864,17.009,56.399,16.613C55.291,16.318,55.143,17.54,56.399,16.613z
		 M113.121,21.799c0.446-0.957,1.497-1.312,1.943-2.269C113.654,19.322,112.273,20.825,113.121,21.799z M110.528,24.393
		c0.996-1.313-0.854-2.023-1.297-2.917C110.308,22.849,108.383,23.903,110.528,24.393z M111.176,24.716
		c0.469,1.8,2.082,1.278,3.242,1.946c-1.219-4.294-1.188-0.814-0.647-4.54C112.905,22.987,112.041,23.851,111.176,24.716
		C111.359,25.421,112.012,23.824,111.176,24.716z M40.192,25.041c1.574,0.063,2.636-0.39,3.563-0.973
		C42.995,23.708,40.699,24.117,40.192,25.041z M107.936,31.199c0.181-1.264,3.992-6.72,0.646-6.483
		C108.634,26.903,108.419,29.064,107.936,31.199C108.273,28.836,107.331,29.243,107.936,31.199z M110.528,28.606
		C111.985,23.673,109.467,28.363,110.528,28.606C110.768,27.793,109.282,28.321,110.528,28.606z M127.06,26.337
		c-0.354-0.092-0.723,4.078-0.973,3.242C129.078,30.307,126.767,25.329,127.06,26.337C125.887,26.03,127.327,27.253,127.06,26.337z
		 M106.962,29.578c-1.267-0.405-0.466-0.133-1.294-0.321c-0.009,1.51-0.702,3.285-0.97,3.241c0.383-0.241,0.707-0.133,0.973,0.324
		c1.455-2.327,0.58-5.835,0.325-5.51C103.381,26.435,107.526,31.185,106.962,29.578C106.128,29.311,106.737,28.938,106.962,29.578z
		 M104.369,29.578c-0.465-3.973-2.003,2.785-2.267,3.242C104.641,32.635,103.354,29.802,104.369,29.578
		C104.312,29.094,104.094,29.638,104.369,29.578z M109.879,30.875c-0.646-0.78,0.565-1.566-0.322-2.268
		C109.569,29.613,108.162,30.866,109.879,30.875z M132.245,32.171C131.143,32.206,135.755,26.008,132.245,32.171
		C133.391,32.134,132.962,30.912,132.245,32.171z M134.514,35.737c-2.161-0.864-2.161-1.728,0-2.592
		C132.856,31.639,130.719,36.896,134.514,35.737C133.563,35.715,132.646,36.307,134.514,35.737z M142.941,48.054
		c-0.762-0.255-1.44-3.936,1.296-1.3c-0.481,0.865-0.481,1.73,0,2.596c0.216-1.589-0.781-11.253-4.541-12.643
		C141.29,38.745,139.329,47.771,142.941,48.054C141.545,47.588,139.658,47.797,142.941,48.054z M102.749,40.274
		c1.041,0.128,2.442-2.696,0.972-3.567C103.396,37.896,103.073,39.085,102.749,40.274C104.278,40.463,103.157,39.17,102.749,40.274z
		 M113.769,38.978C113.245,38.96,113.769,37.391,113.769,38.978C113.211,38.959,113.769,38.546,113.769,38.978z M136.134,40.599
		c1.07,1.288,0.098,3.724,0.648,4.214C139.041,44.215,137.533,40.047,136.134,40.599z M140.349,48.702
		c-1.869-0.27-0.151-4.049-2.272-4.863c-1.485,3.304,1.185,9.362,3.244,12.969C141.63,55.561,139.034,48.768,140.349,48.702
		C139.97,48.647,138.97,48.771,140.349,48.702z M134.188,43.84c0.139-0.812,1.771-1.782,0.325-2.269
		C134.157,41.895,133.298,43.338,134.188,43.84z M47.647,42.868c-0.999,0.242-0.396-1.118-1.621-0.648
		C45.373,43.45,47.5,43.504,47.647,42.868z M105.665,42.868c2.271,0.089,2.163-0.019-0.322-0.325
		C105.257,43.956,106.2,44.592,105.665,42.868C106.152,43.1,105.78,43.239,105.665,42.868z M44.73,45.785
		C46.87,42.811,41.964,44.197,44.73,45.785C45.001,45.409,44.249,45.509,44.73,45.785z M46.026,44.488
		C46.026,46.42,49.741,44.29,46.026,44.488C46.026,44.812,46.54,44.461,46.026,44.488z M79.088,50.323
		c-3.223-2.074-7.031-4.472-11.021-1.945C71.114,48.459,76.666,48.71,79.088,50.323z M45.054,49.026
		C43.57,47.704,40.81,51.135,45.054,49.026C44.038,48.121,44.264,49.419,45.054,49.026z M107.286,50.647
		c-1.628-0.043,2.355-10.23-3.563,2.593C105.68,53.302,106.868,52.438,107.286,50.647C105.767,50.607,106.627,52.609,107.286,50.647
		z M72.281,52.916C76.758,52.402,71.541,48.302,72.281,52.916C72.766,52.86,72.012,51.242,72.281,52.916z M79.736,71.715
		c-1.31,1.523-32.939-16.566-35.655-17.825c4.983,0.348,9.629,1.752,13.938,4.214c-1.732-0.682-26.801-11.239-24.311-1.946
		c0.86-0.249,1.725-0.249,2.595,0C34.321,66.368,9.336,78.014,2.594,87.92c4.91,4.871,16.002,7.365,23.659,5.514
		c14.412-3.505,54.89-4.01,62.559-18.803C86.115,72.62,83.09,71.648,79.736,71.715C80.38,70.967,83.342,71.01,79.736,71.715z
		 M119.928,56.157c0.322-0.795,4.452-2.474,2.269-3.565C120.917,53.46,120.16,54.649,119.928,56.157
		C120.489,54.773,119.043,54.614,119.928,56.157z M138.728,55.184c0.215-1.403-0.369-2.01-0.975-2.596
		C137.795,53.74,138.287,54.436,138.728,55.184z M57.695,56.157C61.214,54.912,57.688,56.064,57.695,56.157
		C58.714,55.797,57.637,55.45,57.695,56.157z M139.375,58.426c0.825-0.708,0.408-3.236-0.646-2.594
		C139.73,56.604,138.638,57.786,139.375,58.426z M106.639,59.074C106.344,54.25,107.842,58.15,106.639,59.074
		C106.582,58.133,106.005,59.562,106.639,59.074z M113.769,59.398c1.794,0.915,2.658,0.158,2.593-2.271
		C115.498,57.884,114.634,58.641,113.769,59.398C114.146,59.669,114.204,58.212,113.769,59.398z M112.149,60.046
		c-0.973,0.865-1.945,1.73-2.918,2.596C107.575,63.478,115.403,60.859,112.149,60.046C111.313,61.047,113.31,60.336,112.149,60.046z
		 M105.018,65.557c2.709,0.765,0.087,2.104,5.508-2.27C108.482,63.548,106.646,64.304,105.018,65.557
		C105.828,65.786,105.763,62.99,105.018,65.557z M138.402,66.529c1.092,0.226,1.063-0.667,1.621-0.973
		C139.19,64.718,138.649,65.828,138.402,66.529z M100.479,68.474c2.854-0.252-1.087,2.24-0.646,2.593
		c1.824-1.046,3.444-2.343,4.86-3.892c-1.204-0.195-1.204-0.734,0-1.618C103.289,66.53,101.884,67.502,100.479,68.474
		C101.186,68.412,101.694,67.312,100.479,68.474z M119.604,75.281c1.863,0.52-0.094,3.02-0.971,3.241
		c0.75-0.745,0.223-2.852,0.324-3.565c-3.472,0-3.182,3.556-4.861,5.188c-3.236-4.233-2.589-6.503,1.943-6.81
		c-2.243-0.168-3.647-1.356-4.213-3.563c-1.835,6.905-2.84,2.652-7.471,6.885c-0.932,0.852,1.628-7.473,1.629-7.535
		c-4.521,2.382-8.843,5.083-12.965,8.104c4.05-0.34,1.712,9.807,0.646,11.019c7.44,3.349,15.826,7.976,24.312,7.455
		c-0.639-2.33-0.423-4.599,0.647-6.807c-4.598,2.656-11.153,0.512-6.807-5.513c0.714,1.766,0.929,3.604,0.646,5.513
		c8.842-2.62,7.669-11.918,11.409-18.371c3.086-5.325-6.714-2.606-8.164-3.025c0.281,0.868-0.042,1.193-0.972,0.976
		c1.652,1.256,3.272,2.552,4.86,3.889c0.488-1.923,1.461-3.543,2.917-4.862C122.306,70.387,121.337,72.981,119.604,75.281
		C120.697,75.586,121.097,74.5,119.604,75.281z M94.646,73.66c-1.469-1.536-4.266,1.003-3.893,1.621
		c3.381,0.1,6.19-1.305,8.43-4.214C97.185,69.136,95.674,70.001,94.646,73.66C94.329,73.328,96.458,72.899,94.646,73.66z
		 M134.514,74.957c1.191,0.1,0.587-3.282,0.646-3.241C134.094,72.745,135.078,73.422,134.514,74.957z M135.81,73.984
		C137.385,74.386,135.81,69.457,135.81,73.984C136.682,74.207,135.81,73.443,135.81,73.984z M89.783,77.226
		c-4.05,1.053-7.615,2.998-10.695,5.834c4.049,1.901,9.296,6.001,11.347,5.507C90.307,84.781,90.091,81.001,89.783,77.226
		C86.071,77.747,89.978,81.029,89.783,77.226z M92.052,86.625c-0.407-1.621,0.117-2.496-0.974-2.918
		C91.551,84.534,90.869,86.51,92.052,86.625z M87.19,91.487C91.156,91.888,87.152,86.469,87.19,91.487
		C88.513,91.621,87.184,90.723,87.19,91.487z M93.349,90.839C97.957,93.185,93.709,88.776,93.349,90.839
		C93.921,91.13,93.536,89.769,93.349,90.839z M92.052,92.783c-8.281,7.161-10.305,13.076-15.094,18.313
		c-4.592,5.022-26.421,15.082-24.425,19.94c1.64,3.992,9.811,39.057,18.126,37.594c5.531-1.006,16.537-19.723,21.142-23.779
		c7.46-6.572,24.115-14.192,24.897-21.585c0.909-8.602-0.34-15.625,1.282-22.699C111.103,99.328,92.441,93.918,92.052,92.783
		C88.356,95.979,91.832,92.139,92.052,92.783z M96.591,93.108c3.826,0.986,6.313,0.816,9.077,3.241
		C104.756,93.235,97.466,88.925,96.591,93.108C97.462,93.333,96.721,92.482,96.591,93.108z M109.879,96.025
		c-0.66,0.006-3.012-0.117-3.238,0.647C108.034,97.729,109.113,97.513,109.879,96.025C109.116,96.032,109.886,97.891,109.879,96.025
		z M113.769,98.618c0.467-1.227-0.782-1.719-1.407-1.91C110.234,96.926,110.703,97.562,113.769,98.618
		C114.169,97.569,112.593,98.389,113.769,98.618z M116.038,98.618C119.225,98.848,117.18,96.96,116.038,98.618
		C116.971,98.685,116.237,98.329,116.038,98.618z"/>
	<path d="M145.21,50.647c-0.531,1.996,1.21,0.932,0.703,0.769c-0.313-0.101-2.263,1.015-2.053,1.3
		C143.235,51.868,143.107,50.292,145.21,50.647C145.096,51.073,144.747,50.569,145.21,50.647z"/>
	<path d="M128.031,18.234c0.603-0.704-3.942-3.936-0.525-2.23c2.467,1.231,0.31,1.686,2.795,2.555
		C129.927,21.118,127.765,15.4,128.031,18.234C128.786,17.352,127.994,17.838,128.031,18.234z"/>
	<path d="M131.596,20.179c0.018-0.502,0.821,3.062-0.646,1.617C131.056,21.176,129.951,20.179,131.596,20.179
		C131.586,20.492,131.271,20.179,131.596,20.179z"/>
	<path d="M126.41,14.344C126.346,16.391,122.588,13.327,126.41,14.344C126.4,14.659,125.525,14.108,126.41,14.344z"/>
	<path d="M119.279,12.4c-1.542-0.188-2.178-1.28-3.24-1.945C116.166,10.075,118.764,10.816,119.279,12.4z"/>
	<path d="M101.452,49.674c-1.351,0.616-1.847-2.274,0.323-2.268c-0.579,2.426,0.552-2.393,1.296,0.324
		C102.151,47.665,101.897,49.041,101.452,49.674C100.598,50.063,101.578,49.495,101.452,49.674z"/>
	<path d="M60.937,56.805c0.383-0.873,1.688,0.001,2.27,0C62.708,57.138,61.765,57.213,60.937,56.805z"/>
	<path d="M77.791,14.344c-0.396-0.617,9.357-13.621,10.372-10.048c-0.069-0.019-5.996,5.915-7.455,7.781
		c3.431-1.368,6.888-2.664,10.372-3.889c-1.503,3-5.723,10.715-9.075,12.641c0.498-5.912-7.653,2.707-10.372,4.537
		c5.42-6.281,13.035-5.178,14.91-14.585c-4.293,0.831-7.857,2.884-10.695,6.159c-0.168-1.288-0.925-1.613-2.271-0.976
		C73.784,15.087,76.889,14.384,77.791,14.344C77.581,14.016,75.777,14.432,77.791,14.344z"/>
	<path d="M81.355,4.621c-1.188,0.757-2.376,1.514-3.563,2.271C79.471,4.867,78.804,2.931,81.355,4.621
		C80.465,5.677,80.392,3.983,81.355,4.621z"/>
	<path d="M76.495,4.621C76.912,5.643,72.025,4.821,76.495,4.621C77.015,5.897,75.598,4.661,76.495,4.621z"/>
	<path d="M103.397,4.945c4.849,0.446,9.836,0.752,11.346,4.538C111.815,6.907,106.827,6.132,103.397,4.945z"/>
	<path d="M81.681,5.593C84.156,5.593,77.329,5.849,81.681,5.593C81.897,5.593,81.068,5.629,81.681,5.593z"/>
	<path d="M76.495,7.213C80.505,6.584,76.131,10.265,76.495,7.213C77.074,7.122,76.422,7.827,76.495,7.213z"/>
	<path d="M75.846,7.862c0.229,1.389-1.943,2.409-3.891,3.242C72.691,9.461,74.504,8.897,75.846,7.862z"/>
	<path d="M96.266,9.482c0.603,0.921-5.445,6.082-6.481,5.834c-0.353-2.647,1.841,0.222-0.97-0.975
		C91.299,12.722,93.783,11.102,96.266,9.482C97.163,10.853,94.026,11.723,96.266,9.482z"/>
	<path d="M106.314,9.482c-0.973,1.964-4.778,1.899-6.809,3.89C99.347,10.938,104.359,10.88,106.314,9.482z"/>
	<path d="M70.012,22.448c1.944,1.938-3.212-0.414-1.945-0.325c2.315-1.476,7.646-2.888,6.807-4.212
		c0.024-0.225,8.987-3.89,10.046-3.89C85.135,14.977,71.922,23.379,70.012,22.448C71.002,23.434,72.339,23.583,70.012,22.448z"/>
	<path d="M67.418,18.558c-0.047,0.218-2.578,3.533-3.565,1.297C57.022,15.886,68.816,18.566,67.418,18.558
		C67.358,18.832,67.599,18.559,67.418,18.558z"/>
	<path d="M99.832,20.503c-0.283,1.121-1.77,1.041-1.621,2.596C97.262,22.019,98.804,20.676,99.832,20.503z"/>
	<path d="M102.749,22.771C103.893,23.105,103.776,19.667,102.749,22.771C101.501,22.407,103.026,21.933,102.749,22.771z"/>
	<path d="M82.005,21.151c0.658,0.188-3.042,7.939-3.239,8.427C81.761,21.389,74.7,32.407,82.005,21.151
		C82.956,21.424,80.941,22.79,82.005,21.151z"/>
	<path d="M132.568,23.42c0.229,1.797-0.418,1.474-1.943-0.97c1.212,0.185,2.399,0.076,3.563-0.324
		C135.711,20.558,133.185,27.179,132.568,23.42C132.089,23.564,132.713,24.301,132.568,23.42z"/>
	<path d="M95.294,22.448c-0.215,1.188-0.431,2.377-0.646,3.565c2.979-0.421-0.572-0.78-0.648,2.266
		c-0.109-0.498,2.409,1.126,1.944,0.973c-0.546,0.08-0.979-0.135-1.296-0.646c0.89,5.1,0.518,1.111,1.619,1.296
		c-0.771,0.641-0.88,1.397-0.323,2.269c-0.023,0.064-1.902-2.189-1.62-3.237c-1.137,2.366-1.894,4.85-2.271,7.452
		c-0.475-1.441,2.575-9.254,0-9.075C92.364,28.825,94.522,22.979,95.294,22.448C94.898,23.457,93.024,24.009,95.294,22.448z"/>
	<path d="M96.266,24.393C95.964,22.365,99.073,24.069,96.266,24.393C96.114,23.373,96.697,24.344,96.266,24.393z"/>
	<path d="M37.6,23.096C38.038,25.096,34.821,25.133,37.6,23.096C37.66,23.369,36.987,23.546,37.6,23.096z"/>
	<path d="M145.534,53.888C144.394,53.698,145.197,56.375,145.534,53.888C145.901,53.95,145.418,54.745,145.534,53.888z"/>
	<path d="M145.858,55.833c3.041,0.701-3.256,0.082-2.271-0.002C144.003,53.671,145.339,58.102,145.858,55.833
		C146.21,55.914,145.73,56.391,145.858,55.833z"/>
	<path d="M82.329,72.363c-0.165-0.068-2.198,1.583-2.271-0.324C81.1,71.413,81.476,72.45,82.329,72.363z"/>
	<path d="M82.652,73.012C82.958,71.183,84.604,77.736,82.652,73.012C82.714,72.644,82.864,73.525,82.652,73.012z"/>
	<path d="M140.996,73.335C142.901,73.946,140.455,77.405,140.996,73.335C142.6,73.849,140.945,73.717,140.996,73.335z"/>
	<path d="M88.812,78.197c-0.142,1.265-0.893,1.919-1.621,2.593C86.299,79.772,88.213,78.801,88.812,78.197z"/>
	<path d="M7.779,95.052C7.935,94.385,10.399,95.721,7.779,95.052C7.841,94.789,8.161,95.149,7.779,95.052z"/>
</g>
</svg>
