<?xml version="1.0" encoding="utf-8"?>
<!-- Generator: Adobe Illustrator 22.0.0, SVG Export Plug-In . SVG Version: 6.00 Build 0)  -->
<svg version="1.1" xmlns="http://www.w3.org/2000/svg" xmlns:xlink="http://www.w3.org/1999/xlink" x="0px" y="0px"
	 viewBox="0 0 309.6 52" style="enable-background:new 0 0 309.6 52;" xml:space="preserve">
<style type="text/css">
	.st0{display:none;}
	.st1{display:inline;}
	.st2{fill:#4F89D2;}
	.st3{fill:#706F6F;}
</style>
<g id="bettercare" class="st0">
	<g class="st1">
		<path class="st2" d="M16.6,0.1l-4.4,21.2h0.1c2.8-3.8,7-6,11.5-6c7.5,0,10.6,6.1,10.6,12.4c0,11.1-7.6,24.3-22.6,24.3
			c-7.3,0-11.7-3.1-11.7-9.4c0-2,0.3-4.1,0.6-6L8.1,0.1H16.6z M9.1,36.9c-0.2,1.2-0.4,2.5-0.4,4.2c0,2.9,1.7,4.5,4.7,4.5
			c7.3,0,12.2-9.4,12.2-16.3c0-3.9-1.7-7.1-5.5-7.1c-4.3,0-8.8,4.5-10.2,11.5L9.1,36.9z"/>
		<path class="st2" d="M65.7,49.2c-3.5,1.8-8.1,2.7-12.4,2.7c-9.7,0-14.4-5.9-14.4-14.5c0-10.6,7.8-22.1,19.9-22.1
			c6.9,0,11.3,4,11.3,9.9c0,9-9.4,11.9-23,11.6c-0.1,1.2,0.1,3.6,0.9,5c1.4,2.4,3.9,3.6,7.2,3.6c4,0,7.1-1,9.6-2.3L65.7,49.2z
			 M57.7,21.6c-5.3,0-8.7,4.7-9.7,8.9c8.6,0.1,14.2-1.1,14.2-5.3C62.1,23,60.3,21.6,57.7,21.6z"/>
		<path class="st2" d="M90.6,6.5l-1.8,9.6h7.9l-1.3,6.5h-7.8l-2.8,14.2c-0.3,1.7-0.6,3.5-0.6,5c0,1.9,0.9,3.1,3.1,3.1
			c1,0,2,0,2.9-0.1l-0.8,6.6c-1.2,0.4-3.5,0.7-5.5,0.7c-5.8,0-8.4-3.2-8.4-7.2c0-2,0.2-4,0.8-6.6l3-15.6h-4.8l1.2-6.5h4.8L82,8.6
			L90.6,6.5z"/>
		<path class="st2" d="M114.5,6.5l-1.8,9.6h7.9l-1.3,6.5h-7.8l-2.8,14.2c-0.3,1.7-0.6,3.5-0.6,5c0,1.9,0.9,3.1,3.1,3.1
			c1,0,2,0,2.9-0.1l-0.8,6.6c-1.2,0.4-3.5,0.7-5.5,0.7c-5.8,0-8.4-3.2-8.4-7.2c0-2,0.2-4,0.8-6.6l3-15.6h-4.8l1.2-6.5h4.8l1.4-7.6
			L114.5,6.5z"/>
		<path class="st2" d="M147.7,49.2c-3.5,1.8-8.1,2.7-12.4,2.7c-9.7,0-14.4-5.9-14.4-14.5c0-10.6,7.8-22.1,19.9-22.1
			c6.9,0,11.3,4,11.3,9.9c0,9-9.4,11.9-23,11.6c-0.1,1.2,0.1,3.6,0.9,5c1.4,2.4,3.9,3.6,7.2,3.6c4,0,7.1-1,9.6-2.3L147.7,49.2z
			 M139.7,21.6c-5.3,0-8.7,4.7-9.7,8.9c8.6,0.1,14.2-1.1,14.2-5.3C144.2,23,142.4,21.6,139.7,21.6z"/>
		<path class="st2" d="M154.7,51.2l4.1-21.6c0.9-5,1.4-10.3,1.8-13.5h7.3c-0.2,2.4-0.4,4.8-0.8,7.4h0.2c2.4-4.8,6.2-8.2,11-8.2
			c0.6,0,1.2,0.1,1.8,0.1l-1.7,8.2c-0.4-0.1-1-0.1-1.6-0.1c-6,0-9.8,6-11.2,13.5l-2.7,14.1H154.7z"/>
	</g>
	<g class="st1">
		<path class="st3" d="M208.8,50c-2,1-5.6,1.9-10.1,1.9c-8.8,0-14.2-5.6-14.2-14c0-12.2,9.3-22.6,22.3-22.6c3.1,0,5.8,0.8,7.1,1.4
			l-2.2,6.6c-1.3-0.6-3-1.1-5.3-1.1c-8.1,0-13.3,7.5-13.3,14.8c0,5.3,3,8.2,7.7,8.2c3.2,0,5.7-0.9,7.5-1.7L208.8,50z"/>
		<path class="st3" d="M236.8,51.2c0.1-2.1,0.4-4.9,0.6-7.9h-0.2c-3.5,6.5-8.1,8.7-12.5,8.7c-6.3,0-10.4-4.9-10.4-12
			c0-12,8.4-24.7,24.7-24.7c3.8,0,7.9,0.7,10.6,1.6L246,35.2c-1,5.3-1.6,11.8-1.4,16H236.8z M240.2,22.2c-0.9-0.2-1.9-0.4-3.5-0.4
			c-7.8,0-13.8,8.7-13.8,16.7c0,3.7,1.4,6.7,5,6.7c3.9,0,8.6-4.9,10.3-13.8L240.2,22.2z"/>
		<path class="st3" d="M252.8,51.2l4.1-21.6c0.9-5,1.4-10.3,1.8-13.5h7.3c-0.2,2.4-0.4,4.8-0.8,7.4h0.2c2.4-4.8,6.2-8.2,11-8.2
			c0.6,0,1.2,0.1,1.8,0.1l-1.7,8.2c-0.4-0.1-1-0.1-1.6-0.1c-6,0-9.8,6-11.2,13.5l-2.7,14.1H252.8z"/>
		<path class="st3" d="M305,49.2c-3.5,1.8-8.1,2.7-12.4,2.7c-9.7,0-14.4-5.9-14.4-14.5c0-10.6,7.8-22.1,19.9-22.1
			c6.9,0,11.3,4,11.3,9.9c0,9-9.4,11.9-23,11.6c-0.1,1.2,0.1,3.6,0.9,5c1.4,2.4,3.9,3.6,7.2,3.6c4,0,7.1-1,9.6-2.3L305,49.2z
			 M297.1,21.6c-5.3,0-8.7,4.7-9.7,8.9c8.6,0.1,14.2-1.1,14.2-5.3C301.5,23,299.7,21.6,297.1,21.6z"/>
	</g>
</g>
<g id="as_paths">
	<g>
		<path class="st2" d="M16.6,0.1l-4.4,21.2h0.1c2.8-3.8,7-6,11.5-6c7.5,0,10.6,6.1,10.6,12.4c0,11.1-7.6,24.3-22.6,24.3
			c-7.3,0-11.7-3.1-11.7-9.4c0-2,0.3-4.1,0.6-6L8.1,0.1H16.6z M9.1,36.9c-0.2,1.2-0.4,2.5-0.4,4.2c0,2.9,1.7,4.5,4.7,4.5
			c7.3,0,12.2-9.4,12.2-16.3c0-3.9-1.7-7.1-5.5-7.1c-4.3,0-8.8,4.5-10.2,11.5L9.1,36.9z"/>
		<path class="st2" d="M65.7,49.2c-3.5,1.8-8.1,2.7-12.4,2.7c-9.7,0-14.4-5.9-14.4-14.5c0-10.6,7.8-22.1,19.9-22.1
			c6.9,0,11.3,4,11.3,9.9c0,9-9.4,11.9-23,11.6c-0.1,1.2,0.1,3.6,0.9,5c1.4,2.4,3.9,3.6,7.2,3.6c4,0,7.1-1,9.6-2.3L65.7,49.2z
			 M57.7,21.6c-5.3,0-8.7,4.7-9.7,8.9c8.6,0.1,14.2-1.1,14.2-5.3C62.1,23,60.3,21.6,57.7,21.6z"/>
		<path class="st2" d="M90.6,6.5l-1.8,9.6h7.9l-1.3,6.5h-7.8l-2.8,14.2c-0.3,1.7-0.6,3.5-0.6,5c0,1.9,0.9,3.1,3.1,3.1
			c1,0,2,0,2.9-0.1l-0.8,6.6c-1.2,0.4-3.5,0.7-5.5,0.7c-5.8,0-8.4-3.2-8.4-7.2c0-2,0.2-4,0.8-6.6l3-15.6h-4.8l1.2-6.5h4.8L82,8.6
			L90.6,6.5z"/>
		<path class="st2" d="M114.5,6.5l-1.8,9.6h7.9l-1.3,6.5h-7.8l-2.8,14.2c-0.3,1.7-0.6,3.5-0.6,5c0,1.9,0.9,3.1,3.1,3.1
			c1,0,2,0,2.9-0.1l-0.8,6.6c-1.2,0.4-3.5,0.7-5.5,0.7c-5.8,0-8.4-3.2-8.4-7.2c0-2,0.2-4,0.8-6.6l3-15.6h-4.8l1.2-6.5h4.8l1.4-7.6
			L114.5,6.5z"/>
		<path class="st2" d="M147.7,49.2c-3.5,1.8-8.1,2.7-12.4,2.7c-9.7,0-14.4-5.9-14.4-14.5c0-10.6,7.8-22.1,19.9-22.1
			c6.9,0,11.3,4,11.3,9.9c0,9-9.4,11.9-23,11.6c-0.1,1.2,0.1,3.6,0.9,5c1.4,2.4,3.9,3.6,7.2,3.6c4,0,7.1-1,9.6-2.3L147.7,49.2z
			 M139.7,21.6c-5.3,0-8.7,4.7-9.7,8.9c8.6,0.1,14.2-1.1,14.2-5.3C144.2,23,142.4,21.6,139.7,21.6z"/>
		<path class="st2" d="M154.7,51.2l4.1-21.6c0.9-5,1.4-10.3,1.8-13.5h7.3c-0.2,2.4-0.4,4.8-0.8,7.4h0.2c2.4-4.8,6.2-8.2,11-8.2
			c0.6,0,1.2,0.1,1.8,0.1l-1.7,8.2c-0.4-0.1-1-0.1-1.6-0.1c-6,0-9.8,6-11.2,13.5l-2.7,14.1H154.7z"/>
	</g>
	<g>
		<path class="st3" d="M208.8,50c-2,1-5.6,1.9-10.1,1.9c-8.8,0-14.2-5.6-14.2-14c0-12.2,9.3-22.6,22.3-22.6c3.1,0,5.8,0.8,7.1,1.4
			l-2.2,6.6c-1.3-0.6-3-1.1-5.3-1.1c-8.1,0-13.3,7.5-13.3,14.8c0,5.3,3,8.2,7.7,8.2c3.2,0,5.7-0.9,7.5-1.7L208.8,50z"/>
		<path class="st3" d="M236.8,51.2c0.1-2.1,0.4-4.9,0.6-7.9h-0.2c-3.5,6.5-8.1,8.7-12.5,8.7c-6.3,0-10.4-4.9-10.4-12
			c0-12,8.4-24.7,24.7-24.7c3.8,0,7.9,0.7,10.6,1.6L246,35.2c-1,5.3-1.6,11.8-1.4,16H236.8z M240.2,22.2c-0.9-0.2-1.9-0.4-3.5-0.4
			c-7.8,0-13.8,8.7-13.8,16.7c0,3.7,1.4,6.7,5,6.7c3.9,0,8.6-4.9,10.3-13.8L240.2,22.2z"/>
		<path class="st3" d="M252.8,51.2l4.1-21.6c0.9-5,1.4-10.3,1.8-13.5h7.3c-0.2,2.4-0.4,4.8-0.8,7.4h0.2c2.4-4.8,6.2-8.2,11-8.2
			c0.6,0,1.2,0.1,1.8,0.1l-1.7,8.2c-0.4-0.1-1-0.1-1.6-0.1c-6,0-9.8,6-11.2,13.5l-2.7,14.1H252.8z"/>
		<path class="st3" d="M305,49.2c-3.5,1.8-8.1,2.7-12.4,2.7c-9.7,0-14.4-5.9-14.4-14.5c0-10.6,7.8-22.1,19.9-22.1
			c6.9,0,11.3,4,11.3,9.9c0,9-9.4,11.9-23,11.6c-0.1,1.2,0.1,3.6,0.9,5c1.4,2.4,3.9,3.6,7.2,3.6c4,0,7.1-1,9.6-2.3L305,49.2z
			 M297.1,21.6c-5.3,0-8.7,4.7-9.7,8.9c8.6,0.1,14.2-1.1,14.2-5.3C301.5,23,299.7,21.6,297.1,21.6z"/>
	</g>
	<g>
	</g>
	<g>
	</g>
	<g>
	</g>
	<g>
	</g>
	<g>
	</g>
	<g>
	</g>
</g>
</svg>
