<?xml version="1.0" encoding="utf-8"?>
<!-- Generator: Adobe Illustrator 15.0.2, SVG Export Plug-In . SVG Version: 6.00 Build 0)  -->
<!DOCTYPE svg PUBLIC "-//W3C//DTD SVG 1.1//EN" "http://www.w3.org/Graphics/SVG/1.1/DTD/svg11.dtd">
<svg version="1.1" id="Layer_1" xmlns="http://www.w3.org/2000/svg" xmlns:xlink="http://www.w3.org/1999/xlink" x="0px" y="0px"
	 width="194px" height="190px" viewBox="0 0 194 190" enable-background="new 0 0 194 190" xml:space="preserve">
<g>
	<path fill-rule="evenodd" clip-rule="evenodd" d="M102.039,29.97c0.518,0.084,0.012,0.805-0.416,0.623
		C101.51,30.133,102.02,30.297,102.039,29.97z"/>
	<path fill-rule="evenodd" clip-rule="evenodd" d="M99.756,31.63c-0.18,0.304-0.311,0.658-0.83,0.623
		C99.107,31.949,99.236,31.595,99.756,31.63z"/>
	<path fill-rule="evenodd" clip-rule="evenodd" d="M103.076,32.875c0.139,0,0.277,0,0.416,0c0,0.138,0,0.277,0,0.415
		c-0.139,0-0.277,0-0.416,0C103.076,33.152,103.076,33.014,103.076,32.875z"/>
	<path fill-rule="evenodd" clip-rule="evenodd" d="M99.549,33.498c0.139,0,0.277,0,0.414,0c0,0.139,0,0.277,0,0.415
		c-0.137,0-0.275,0-0.414,0C99.549,33.775,99.549,33.637,99.549,33.498z"/>
	<path fill-rule="evenodd" clip-rule="evenodd" d="M98.718,33.913c0.519,0.084,0.013,0.805-0.415,0.623
		C98.376,34.263,98.668,34.209,98.718,33.913z"/>
	<path fill-rule="evenodd" clip-rule="evenodd" d="M99.963,35.159c0.371,0.152,0.029,0.377,0,0.622
		C99.594,35.629,99.934,35.404,99.963,35.159z"/>
	<path fill-rule="evenodd" clip-rule="evenodd" d="M97.473,37.233c0.063,0.548-0.434,0.536-0.83,0.623
		C96.823,37.553,96.953,37.198,97.473,37.233z"/>
	<path fill-rule="evenodd" clip-rule="evenodd" d="M99.133,37.856c0.139,0,0.277,0,0.416,0c0,0.138,0,0.276,0,0.415
		c-0.139,0-0.277,0-0.416,0C99.133,38.133,99.133,37.995,99.133,37.856z"/>
	<path fill-rule="evenodd" clip-rule="evenodd" d="M98.096,38.687c0.517,0.084,0.012,0.805-0.416,0.623
		C97.566,38.849,98.076,39.013,98.096,38.687z"/>
	<path fill-rule="evenodd" clip-rule="evenodd" d="M99.963,53.421c0.139,0,0.277,0,0.416,0c0.098,0.443-0.297,0.396-0.623,0.415
		C99.795,53.668,99.965,53.629,99.963,53.421z"/>
	<path fill-rule="evenodd" clip-rule="evenodd" d="M98.718,54.459c-0.09,0.255-0.265,0.426-0.622,0.415
		C97.998,54.431,98.393,54.479,98.718,54.459z"/>
	<path fill-rule="evenodd" clip-rule="evenodd" d="M100.586,55.289c0.139,0,0.277,0,0.416,0c0,0.138,0,0.276,0,0.415
		c-0.139,0-0.277,0-0.416,0C100.586,55.565,100.586,55.427,100.586,55.289z"/>
	<path fill-rule="evenodd" clip-rule="evenodd" d="M96.643,55.704c-0.061,0.423-0.562,0.407-0.623,0.83
		C95.498,56.326,96.186,55.616,96.643,55.704z"/>
	<path fill-rule="evenodd" clip-rule="evenodd" d="M99.549,55.912c0.516,0.084,0.012,0.804-0.416,0.623
		C99.207,56.261,99.498,56.208,99.549,55.912z"/>
	<path fill-rule="evenodd" clip-rule="evenodd" d="M101.416,56.949c0.139,0,0.277,0,0.416,0c0,0.138,0,0.276,0,0.415
		c-0.139,0-0.277,0-0.416,0C101.416,57.226,101.416,57.087,101.416,56.949z"/>
	<path fill-rule="evenodd" clip-rule="evenodd" d="M94.567,57.156c-0.144,0.41-0.553,0.554-1.038,0.623
		C93.673,57.369,94.083,57.226,94.567,57.156z"/>
	<path fill-rule="evenodd" clip-rule="evenodd" d="M97.68,57.572c-0.09,0.255-0.265,0.426-0.621,0.415
		C97.148,57.731,97.323,57.561,97.68,57.572z"/>
	<path fill-rule="evenodd" clip-rule="evenodd" d="M100.586,57.779c-0.221,0.193-0.064,0.766-0.623,0.623
		C99.926,57.949,100.133,57.741,100.586,57.779z"/>
	<path fill-rule="evenodd" clip-rule="evenodd" d="M96.643,58.194c-0.071,0.551-0.545,0.7-1.037,0.83
		C95.872,58.668,96.034,58.208,96.643,58.194z"/>
	<path fill-rule="evenodd" clip-rule="evenodd" d="M98.926,58.817c0.521,0.208-0.165,0.917-0.623,0.83
		C98.121,58.98,98.986,59.363,98.926,58.817z"/>
	<path fill-rule="evenodd" clip-rule="evenodd" d="M100.586,59.854c0.139,0,0.277,0,0.416,0c0.096,0.443-0.297,0.395-0.623,0.415
		C100.418,60.102,100.586,60.063,100.586,59.854z"/>
	<path fill-rule="evenodd" clip-rule="evenodd" d="M93.737,60.27c0.981-0.981-0.09,1.149-0.208,0.208
		C93.499,60.23,93.639,60.368,93.737,60.27z"/>
	<path fill-rule="evenodd" clip-rule="evenodd" d="M97.059,60.685c-0.092,0.255-0.267,0.426-0.623,0.415
		C96.525,60.844,96.701,60.673,97.059,60.685z"/>
	<path fill-rule="evenodd" clip-rule="evenodd" d="M98.926,61.1c0.139,0,0.277,0,0.414,0c0,0.138,0,0.277,0,0.415
		c-0.137,0-0.275,0-0.414,0C98.926,61.376,98.926,61.238,98.926,61.1z"/>
	<path fill-rule="evenodd" clip-rule="evenodd" d="M97.68,61.93c0.139,0,0.277,0,0.416,0c0,0.138,0,0.277,0,0.415
		c-0.139,0-0.277,0-0.416,0C97.68,62.207,97.68,62.068,97.68,61.93z"/>
	<path fill-rule="evenodd" clip-rule="evenodd" d="M95.19,62.345c-0.222,0.193-0.064,0.766-0.623,0.623
		C94.53,62.515,94.737,62.307,95.19,62.345z"/>
	<path fill-rule="evenodd" clip-rule="evenodd" d="M96.436,62.967c0.139,0,0.276,0,0.414,0c0.098,0.443-0.296,0.396-0.621,0.415
		C96.268,63.214,96.436,63.176,96.436,62.967z"/>
	<path fill-rule="evenodd" clip-rule="evenodd" d="M100.586,63.382c0.369,0.152,0.029,0.377,0,0.623
		C100.217,63.853,100.557,63.627,100.586,63.382z"/>
	<path fill-rule="evenodd" clip-rule="evenodd" d="M97.68,65.665c0.139,0,0.277,0,0.416,0c0.059,0.335-0.196,0.357-0.207,0.623
		c-0.139,0-0.277,0-0.416,0C97.414,65.953,97.669,65.931,97.68,65.665z"/>
	<path fill-rule="evenodd" clip-rule="evenodd" d="M102.662,66.288c0.137,0,0.275,0,0.414,0c0,0.138,0,0.276,0,0.415
		c-0.139,0-0.277,0-0.414,0C102.662,66.564,102.662,66.426,102.662,66.288z"/>
	<path fill-rule="evenodd" clip-rule="evenodd" d="M102.039,67.118c-0.223,0.193-0.064,0.766-0.623,0.623
		C101.379,67.288,101.586,67.08,102.039,67.118z"/>
	<path fill-rule="evenodd" clip-rule="evenodd" d="M96.02,67.325c-0.09,0.255-0.265,0.426-0.622,0.416
		C95.488,67.485,95.663,67.314,96.02,67.325z"/>
	<path fill-rule="evenodd" clip-rule="evenodd" d="M98.926,67.325c0.139,0,0.277,0,0.414,0c0,0.139,0,0.277,0,0.416
		c-0.137,0-0.275,0-0.414,0C98.926,67.602,98.926,67.464,98.926,67.325z"/>
	<path fill-rule="evenodd" clip-rule="evenodd" d="M100.586,67.948c0.402-0.083,0.303,0.945-0.207,0.623c0-0.139,0-0.277,0-0.416
		C100.555,68.194,100.574,68.075,100.586,67.948z"/>
	<path fill-rule="evenodd" clip-rule="evenodd" d="M98.096,68.155c0.113,0.46-0.396,0.296-0.416,0.623
		C97.164,68.694,97.668,67.974,98.096,68.155z"/>
	<path fill-rule="evenodd" clip-rule="evenodd" d="M99.133,69.193c0.518,0.084,0.014,0.805-0.415,0.623
		C98.791,69.543,99.084,69.489,99.133,69.193z"/>
	<path fill-rule="evenodd" clip-rule="evenodd" d="M94.775,70.231c0.139,0,0.277,0,0.415,0c0,0.138,0,0.277,0,0.415
		c-0.138,0-0.276,0-0.415,0C94.775,70.508,94.775,70.369,94.775,70.231z"/>
	<path fill-rule="evenodd" clip-rule="evenodd" d="M101.209,70.438c-0.092,0.255-0.266,0.426-0.623,0.415
		C100.488,70.411,100.883,70.458,101.209,70.438z"/>
	<path fill-rule="evenodd" clip-rule="evenodd" d="M96.85,70.854c0.139,0,0.277,0,0.416,0c0,0.139,0,0.277,0,0.415
		c-0.139,0-0.277,0-0.416,0C96.85,71.13,96.85,70.992,96.85,70.854z"/>
	<path fill-rule="evenodd" clip-rule="evenodd" d="M99.133,71.684c0.369,0.152,0.031,0.377,0,0.623
		C98.764,72.154,99.104,71.929,99.133,71.684z"/>
	<path fill-rule="evenodd" clip-rule="evenodd" d="M103.285,71.891c0.137,0,0.275,0,0.414,0c0,0.138,0,0.277,0,0.415
		c-0.139,0-0.277,0-0.414,0C103.285,72.168,103.285,72.029,103.285,71.891z"/>
	<path fill-rule="evenodd" clip-rule="evenodd" d="M97.059,73.344c0.369,0.152,0.029,0.377,0,0.623
		C96.688,73.814,97.027,73.589,97.059,73.344z"/>
	<path fill-rule="evenodd" clip-rule="evenodd" d="M99.756,74.589c0.139,0,0.277,0,0.416,0c0.096,0.443-0.297,0.396-0.623,0.416
		C99.588,74.836,99.756,74.797,99.756,74.589z"/>
	<path fill-rule="evenodd" clip-rule="evenodd" d="M95.19,75.004c0.622,0.136-0.198,0.443,0,0.83
		C94.674,75.803,95.129,75.131,95.19,75.004z"/>
	<path fill-rule="evenodd" clip-rule="evenodd" d="M103.492,76.249c-0.092,0.255-0.266,0.426-0.623,0.416
		C102.771,76.222,103.166,76.269,103.492,76.249z"/>
	<path fill-rule="evenodd" clip-rule="evenodd" d="M97.059,77.287c-0.092,0.255-0.267,0.426-0.623,0.415
		C96.525,77.447,96.701,77.276,97.059,77.287z"/>
	<path fill-rule="evenodd" clip-rule="evenodd" d="M100.379,78.325c0.139,0,0.275,0,0.414,0c0,0.138,0,0.276,0,0.415
		c-0.139,0-0.275,0-0.414,0C100.379,78.601,100.379,78.463,100.379,78.325z"/>
	<path fill-rule="evenodd" clip-rule="evenodd" d="M94.982,78.74c0.033-0.032,0.437-0.394,0.623-0.208
		C95.92,78.847,94.325,79.398,94.982,78.74z"/>
	<path fill-rule="evenodd" clip-rule="evenodd" d="M99.133,79.362c0.369,0.152,0.031,0.377,0,0.623
		C98.764,79.833,99.104,79.607,99.133,79.362z"/>
	<path fill-rule="evenodd" clip-rule="evenodd" d="M97.266,80.815c0.139,0,0.276,0,0.414,0c0,0.138,0,0.277,0,0.415
		c-0.138,0-0.275,0-0.414,0C97.266,81.092,97.266,80.953,97.266,80.815z"/>
	<path fill-rule="evenodd" clip-rule="evenodd" d="M100.172,81.853c0.137,0,0.275,0,0.414,0c0,0.138,0,0.277,0,0.415
		c-0.139,0-0.277,0-0.414,0C100.172,82.129,100.172,81.991,100.172,81.853z"/>
	<path fill-rule="evenodd" clip-rule="evenodd" d="M95.19,82.06c0.208,0,0.416,0,0.623,0c0,0.139,0,0.277,0,0.415
		c-0.207,0-0.415,0-0.623,0C95.19,82.337,95.19,82.199,95.19,82.06z"/>
	<path fill-rule="evenodd" clip-rule="evenodd" d="M103.492,82.89c0.137,0,0.275,0,0.414,0c0,0.139,0,0.277,0,0.415
		c-0.139,0-0.277,0-0.414,0C103.492,83.167,103.492,83.029,103.492,82.89z"/>
	<path fill-rule="evenodd" clip-rule="evenodd" d="M102.662,83.72c0.137,0,0.275,0,0.414,0c0,0.139,0,0.277,0,0.415
		c-0.139,0-0.277,0-0.414,0C102.662,83.997,102.662,83.859,102.662,83.72z"/>
	<path fill-rule="evenodd" clip-rule="evenodd" d="M103.492,84.965c0.137,0,0.275,0,0.414,0c0,0.139,0,0.277,0,0.416
		c-0.139,0-0.277,0-0.414,0C103.492,85.242,103.492,85.104,103.492,84.965z"/>
	<path fill-rule="evenodd" clip-rule="evenodd" d="M102.453,86.211c-0.09,0.255-0.266,0.426-0.621,0.415
		C101.922,86.37,102.098,86.2,102.453,86.211z"/>
	<path fill-rule="evenodd" clip-rule="evenodd" d="M101.209,87.248C100.58,88.016,100.51,86.618,101.209,87.248L101.209,87.248z"/>
	<path fill-rule="evenodd" clip-rule="evenodd" d="M94.567,89.946c0.139,0,0.277,0,0.415,0c0,0.138,0,0.277,0,0.415
		c-0.138,0-0.276,0-0.415,0C94.567,90.223,94.567,90.084,94.567,89.946z"/>
	<path fill-rule="evenodd" clip-rule="evenodd" d="M100.793,89.946c0.443-0.097,0.396,0.296,0.416,0.623
		c-0.168-0.04-0.207-0.208-0.416-0.208C100.793,90.223,100.793,90.084,100.793,89.946z"/>
	<path fill-rule="evenodd" clip-rule="evenodd" d="M95.813,91.814C95.184,92.581,95.113,91.184,95.813,91.814L95.813,91.814z"/>
	<path fill-rule="evenodd" clip-rule="evenodd" d="M102.039,92.437c0.139,0,0.275,0,0.414,0c0.098,0.443-0.297,0.395-0.621,0.415
		C101.871,92.684,102.039,92.645,102.039,92.437z"/>
	<path fill-rule="evenodd" clip-rule="evenodd" d="M105.773,92.852c0.453-0.037,0.66,0.17,0.623,0.623
		C106.203,93.253,105.631,93.41,105.773,92.852z"/>
	<path fill-rule="evenodd" clip-rule="evenodd" d="M97.059,93.267c0.138,0,0.275,0,0.414,0c0,0.138,0,0.276,0,0.415
		c-0.139,0-0.276,0-0.414,0C97.059,93.543,97.059,93.405,97.059,93.267z"/>
	<path fill-rule="evenodd" clip-rule="evenodd" d="M96.02,94.097c0.139,0,0.277,0,0.416,0c0.097,0.443-0.297,0.395-0.623,0.416
		C95.852,94.344,96.021,94.305,96.02,94.097z"/>
	<path fill-rule="evenodd" clip-rule="evenodd" d="M75.267,94.304c0.653-0.1,0.812,0.296,1.245,0.415
		C76.471,95.011,75.155,94.852,75.267,94.304z"/>
	<path fill-rule="evenodd" clip-rule="evenodd" d="M84.191,102.605c0.137-0.621,0.444,0.199,0.83,0
		C84.99,103.122,84.318,102.666,84.191,102.605z"/>
	<path fill-rule="evenodd" clip-rule="evenodd" d="M100.793,104.473c0.209,0.625-0.461,0.369-0.83,0.416
		C100.014,104.523,100.32,104.415,100.793,104.473z"/>
	<path fill-rule="evenodd" clip-rule="evenodd" d="M98.718,105.304C98.262,105.938,97.389,105.063,98.718,105.304L98.718,105.304z"
		/>
	<path fill-rule="evenodd" clip-rule="evenodd" d="M96.85,105.926c0.561,0.186-0.096,0.843-0.621,0.623
		C96.164,106.07,96.828,106.318,96.85,105.926z"/>
	<path fill-rule="evenodd" clip-rule="evenodd" d="M102.246,105.926c-0.09,0.256-0.266,0.427-0.623,0.415
		C101.715,106.086,101.889,105.915,102.246,105.926z"/>
	<path fill-rule="evenodd" clip-rule="evenodd" d="M101.209,106.549c0.113,0.46-0.396,0.295-0.416,0.623
		C100.277,107.087,100.781,106.367,101.209,106.549z"/>
	<path fill-rule="evenodd" clip-rule="evenodd" d="M81.908,106.964c0.247-0.433,1.518-0.151,1.453,0.415
		C82.704,107.413,82.667,106.828,81.908,106.964z"/>
	<path fill-rule="evenodd" clip-rule="evenodd" d="M103.492,107.172c0.521,0.208-0.166,0.917-0.623,0.829
		C102.93,107.578,103.43,107.594,103.492,107.172z"/>
	<path fill-rule="evenodd" clip-rule="evenodd" d="M99.133,107.586C99.924,107.227,97.813,108.188,99.133,107.586L99.133,107.586z"
		/>
	<path fill-rule="evenodd" clip-rule="evenodd" d="M98.303,108.209c-0.119,0.503-0.783,0.461-1.244,0.623
		C97.051,108.202,97.786,108.314,98.303,108.209z"/>
	<path fill-rule="evenodd" clip-rule="evenodd" d="M103.492,117.548c0.604-0.306,0.604,0.928,0,0.622
		C103.492,117.963,103.492,117.755,103.492,117.548z"/>
	<path fill-rule="evenodd" clip-rule="evenodd" d="M103.699,119.415c0.139,0,0.275,0,0.414,0c0,0.139,0,0.277,0,0.415
		c-0.139,0-0.275,0-0.414,0C103.699,119.692,103.699,119.554,103.699,119.415z"/>
	<path fill-rule="evenodd" clip-rule="evenodd" d="M101.416,120.038c0.443-0.097,0.395,0.296,0.416,0.622
		c-0.17-0.039-0.207-0.208-0.416-0.207C101.416,120.314,101.416,120.176,101.416,120.038z"/>
	<path fill-rule="evenodd" clip-rule="evenodd" d="M98.718,120.453c0.481,0.059,0.478,0.555,0.208,0.83
		C98.591,121.079,98.448,120.729,98.718,120.453z"/>
	<path fill-rule="evenodd" clip-rule="evenodd" d="M95.605,121.076C96.557,121.214,95.438,122.332,95.605,121.076L95.605,121.076z"
		/>
	<path fill-rule="evenodd" clip-rule="evenodd" d="M104.113,121.076C105.014,121.162,103.896,122.28,104.113,121.076
		L104.113,121.076z"/>
	<path fill-rule="evenodd" clip-rule="evenodd" d="M105.152,122.943c-0.168-0.109-0.338-0.217-0.623-0.207
		C104.594,122.164,105.25,122.299,105.152,122.943z"/>
	<path fill-rule="evenodd" clip-rule="evenodd" d="M101.416,123.15c-0.082-0.402,0.945-0.303,0.623,0.209c-0.139,0-0.277,0-0.416,0
		C101.662,123.182,101.543,123.163,101.416,123.15z"/>
	<path fill-rule="evenodd" clip-rule="evenodd" d="M95.605,123.359C96.557,123.496,95.438,124.615,95.605,123.359L95.605,123.359z"
		/>
	<path fill-rule="evenodd" clip-rule="evenodd" d="M98.718,124.188C99.617,124.275,98.5,125.393,98.718,124.188L98.718,124.188z"/>
	<path fill-rule="evenodd" clip-rule="evenodd" d="M105.359,124.188c0.453-0.038,0.66,0.17,0.623,0.622
		C105.529,124.85,105.322,124.641,105.359,124.188z"/>
	<path fill-rule="evenodd" clip-rule="evenodd" d="M95.813,124.396C96.58,125.025,95.183,125.096,95.813,124.396L95.813,124.396z"/>
	<path fill-rule="evenodd" clip-rule="evenodd" d="M101.832,124.396c0.137,0,0.275,0,0.414,0c0,0.139,0,0.276,0,0.414
		c-0.139,0-0.277,0-0.414,0C101.832,124.673,101.832,124.535,101.832,124.396z"/>
	<path fill-rule="evenodd" clip-rule="evenodd" d="M105.982,125.642c0.309-0.685,0.586,0.353,0.83,0.415
		C106.457,126.787,106.395,125.535,105.982,125.642z"/>
	<path fill-rule="evenodd" clip-rule="evenodd" d="M102.453,125.849c0.443-0.097,0.396,0.297,0.416,0.622
		c-0.168-0.039-0.207-0.207-0.416-0.207C102.453,126.125,102.453,125.987,102.453,125.849z"/>
	<path fill-rule="evenodd" clip-rule="evenodd" d="M98.718,126.264c0.139,0,0.276,0,0.415,0c0,0.139,0,0.277,0,0.416
		c-0.139,0-0.276,0-0.415,0C98.718,126.541,98.718,126.402,98.718,126.264z"/>
	<path fill-rule="evenodd" clip-rule="evenodd" d="M107.643,127.094c-0.434,0.088-0.551-0.142-0.83-0.207
		C106.838,126.297,107.697,126.488,107.643,127.094z"/>
	<path fill-rule="evenodd" clip-rule="evenodd" d="M107.85,127.717c0.139,0,0.277,0,0.416,0c0,0.139,0,0.277,0,0.414
		c-0.139,0-0.277,0-0.416,0C107.85,127.994,107.85,127.855,107.85,127.717z"/>
	<path fill-rule="evenodd" clip-rule="evenodd" d="M104.736,94.512c0.287-0.268,0.205-0.902,0.209-1.453l0.207,0.104l0.207-0.104
		c0.488,0.481,1.256,0.68,1.246,1.66l-0.105,0.208l0.105,0.207c-0.855,0.163-1.066-0.318-1.869-0.207l0.104-0.208L104.736,94.512z"
		/>
	<path fill-rule="evenodd" clip-rule="evenodd" d="M82.842,20.32l-0.104-0.311c0.335-0.059,0.357,0.196,0.623,0.208l-0.104,0.311
		l0.312-0.104c0,0.069,0,0.138,0,0.208c1.216-0.035,2.524,0.929,3.528,0.415l0.312,0.104l-0.104-0.311
		c0.5-0.085,0.451,0.379,1.038,0.208l-0.104,0.208l0.104,0.208c1.298,0.943,5.457-0.055,7.678,0.83
		c1.043,0.416,3.385,1.681,4.982,1.66c1.113-0.014,4.836-1.705,4.564,1.038c-0.193,1.96-3.334,1.487-4.773,1.038
		c-0.623-0.194-1.436-0.231-1.867-0.415c-0.629-0.269-1.217-1.144-2.076-1.453c-0.545-0.196-1.634-0.417-2.282-0.415
		c-2.151,0.007-3.365,1.699-5.811,1.038c-1.662-0.449-2.692-2.242-3.943-2.491c-2.147-0.426-4.801,1.592-5.811-0.623
		c0.88-0.804,3.15-0.77,3.528-1.453L82.842,20.32z"/>
	<path fill-rule="evenodd" clip-rule="evenodd" d="M73.607,35.47l0.208-0.104c-0.056,0.704,0.161,1.682-0.208,2.075l-0.104,0.208
		l0.104,0.208c-3.187,0.202-5.979-0.055-8.301-0.623c-0.11-1.286,1.013-1.339,1.038-2.49l0.208,0.104l0.208-0.104
		c1.409,0.566,4.669,0.782,6.641,0.623L73.607,35.47z"/>
	<path fill-rule="evenodd" clip-rule="evenodd" d="M101.313,40.762l-0.104-0.208c0.211-0.965,0.619-1.732,1.037-2.49l0.104,0.311
		l0.104-0.311c8.285,0.969,18.447,2.763,27.188,3.528c1.479,0.129,3.141,0.368,4.564,0c4.299-1.112,6.295-5.06,12.246-3.943
		c0.834,0.157,2.945,1.135,3.734,1.66c1.963,1.307,3.801,4.427,3.527,7.056c-0.32,3.093-2.424,3.962-4.564,5.603v-0.208h-0.207
		c0.494-5.958-9.879-6.851-11.416-1.66h-0.207v0.208c-2.119-1.2-3.16-3.693-5.395-4.981c-0.297-0.171-0.791-0.032-1.246-0.208
		c-0.617-0.238-1.125-0.718-2.283-0.83c-8.166-0.785-19.199-2.373-27.186-3.32L101.313,40.762z"/>
	<path fill-rule="evenodd" clip-rule="evenodd" d="M93.945,55.496C94.465,54.497,95.219,55.251,93.945,55.496L93.945,55.496z"/>
	<path fill-rule="evenodd" clip-rule="evenodd" d="M103.076,127.717c0.309,0.176,0.445,0.522,0.416,1.037
		c0.254-0.23,0.426-0.181,0.414,0.208C103.242,128.934,102.994,128.491,103.076,127.717z"/>
	<g>
		<path fill-rule="evenodd" clip-rule="evenodd" fill="none" stroke="#000000" stroke-width="0.4937" stroke-linecap="round" d="
			M79.106,32.356c-0.949-1.208-1.425-2.784-1.66-4.358"/>
		<path fill-rule="evenodd" clip-rule="evenodd" fill="none" stroke="#000000" stroke-width="0.5415" stroke-linecap="round" d="
			M101.729,66.392c-2.057-1.473-3.928-2.967-5.604-4.773"/>
		<path fill-rule="evenodd" clip-rule="evenodd" fill="none" stroke="#000000" stroke-width="0.5911" stroke-linecap="round" d="
			M95.086,88.182c0.859,0.026,1.719,0.451,2.561,0.069"/>
		<path fill-rule="evenodd" clip-rule="evenodd" fill="none" stroke="#000000" stroke-width="0.5149" stroke-linecap="round" d="
			M84.709,88.39c0.78-0.116,1.479-0.183,2.283-0.208"/>
		<path fill-rule="evenodd" clip-rule="evenodd" fill="none" stroke="#000000" stroke-width="0.5879" stroke-linecap="round" d="
			M89.794,88.286c0.702-0.292,1.452,0.06,2.179,0"/>
		<path fill-rule="evenodd" clip-rule="evenodd" fill="none" stroke="#000000" stroke-width="0.6427" stroke-linecap="round" d="
			M101.52,88.908c0.588-0.072,1.049,0.46,1.66,0.312"/>
		<path fill-rule="evenodd" clip-rule="evenodd" fill="none" stroke="#000000" stroke-width="0.618" stroke-linecap="round" d="
			M95.19,90.984c0.627-0.166,1.335,0.071,1.972,0.208"/>
		<path fill-rule="evenodd" clip-rule="evenodd" fill="none" stroke="#000000" stroke-width="0.6963" stroke-linecap="round" d="
			M89.69,91.399c0.872-0.249,1.79-0.213,2.698-0.208"/>
		<path fill-rule="evenodd" clip-rule="evenodd" fill="none" stroke="#000000" stroke-width="0.5911" stroke-linecap="round" d="
			M100.068,91.399c0.77,0.051,1.564,0.034,2.281,0.312"/>
		<path fill-rule="evenodd" clip-rule="evenodd" fill="none" stroke="#000000" stroke-width="0.4627" stroke-linecap="round" d="
			M106.916,92.54c0.68-0.082,1.008-0.926,1.764-0.934"/>
		<path fill-rule="evenodd" clip-rule="evenodd" fill="none" stroke="#000000" stroke-width="0.4886" stroke-linecap="round" d="
			M80.352,92.956c0.629,0.01,1.043-0.553,1.66-0.623"/>
		<path fill-rule="evenodd" clip-rule="evenodd" fill="none" stroke="#000000" stroke-width="0.3944" stroke-linecap="round" d="
			M77.239,92.748c0.19,0.086,0.336,0.218,0.415,0.415"/>
		<path fill-rule="evenodd" clip-rule="evenodd" fill="none" stroke="#000000" stroke-width="0.618" stroke-linecap="round" d="
			M107.539,93.163c0.584-0.229,1.227-0.324,1.867-0.311"/>
		<path fill-rule="evenodd" clip-rule="evenodd" fill="none" stroke="#000000" stroke-width="0.654" stroke-linecap="round" d="
			M75.786,93.474c0.36-0.065,0.679,0.138,1.038,0.104"/>
		<path fill-rule="evenodd" clip-rule="evenodd" fill="none" stroke="#000000" stroke-width="0.4906" stroke-linecap="round" d="
			M109.199,94.201c0.27,0.076,0.518,0.175,0.623,0.415"/>
		<path fill-rule="evenodd" clip-rule="evenodd" fill="none" stroke="#000000" stroke-width="0.5845" stroke-linecap="round" d="
			M101.416,96.068c0.092,0.392,0.15,0.789,0.52,1.038"/>
		<path fill-rule="evenodd" clip-rule="evenodd" fill="none" stroke="#000000" stroke-width="0.72" stroke-linecap="round" d="
			M105.152,96.483c-0.008-0.177,0.047-0.287,0.104-0.415"/>
		<path fill-rule="evenodd" clip-rule="evenodd" fill="none" stroke="#000000" stroke-width="0.5377" stroke-linecap="round" d="
			M75.579,95.861c-0.42-0.006-0.884-0.033-1.246,0.207"/>
		<path fill-rule="evenodd" clip-rule="evenodd" fill="none" stroke="#000000" stroke-width="0.7637" stroke-linecap="round" d="
			M107.227,96.898c0-0.213,0-0.367,0-0.52"/>
		<path fill-rule="evenodd" clip-rule="evenodd" fill="none" stroke="#000000" stroke-width="0.3944" stroke-linecap="round" d="
			M99.859,96.691c0.047,0.021,0.096,0.043,0.143,0.064c0.033,0.176,0.146,0.27,0.273,0.351"/>
		<path fill-rule="evenodd" clip-rule="evenodd" fill="none" stroke="#000000" stroke-width="0.5773" stroke-linecap="round" d="
			M109.406,98.144c-0.254-0.4,0.047-0.883,0.207-1.245"/>
		<path fill-rule="evenodd" clip-rule="evenodd" fill="none" stroke="#000000" stroke-width="0.4648" stroke-linecap="round" d="
			M111.482,98.767c-0.049-0.021-0.098-0.042-0.146-0.063c-0.127-0.421,0.135-0.835,0.354-1.183"/>
		<path fill-rule="evenodd" clip-rule="evenodd" fill="none" stroke="#000000" stroke-width="0.4221" stroke-linecap="round" d="
			M113.557,97.936c-0.148-0.011-0.252,0.025-0.354,0.064c-0.299,0.449,0.141,1.024,0.561,1.182"/>
		<path fill-rule="evenodd" clip-rule="evenodd" fill="none" stroke="#000000" stroke-width="0.5527" stroke-linecap="round" d="
			M114.803,99.182c-0.01-0.285-0.012-0.564,0.063-0.768c0.158-0.116,0.328-0.146,0.559-0.166"/>
		<path fill-rule="evenodd" clip-rule="evenodd" fill="none" stroke="#000000" stroke-width="0.6235" stroke-linecap="round" d="
			M116.67,99.389c-0.141-0.343-0.098-0.691,0-1.037"/>
		<path fill-rule="evenodd" clip-rule="evenodd" fill="none" stroke="#000000" stroke-width="0.4788" stroke-linecap="round" d="
			M118.33,99.389c-0.361-0.273-0.172-0.736,0-1.037"/>
		<path fill-rule="evenodd" clip-rule="evenodd" fill="none" stroke="#000000" stroke-width="0.4475" stroke-linecap="round" d="
			M119.783,100.012c0-0.346,0-0.691,0-1.038"/>
		<path fill-rule="evenodd" clip-rule="evenodd" fill="none" stroke="#000000" stroke-width="0.4465" stroke-linecap="round" d="
			M121.754,100.53c-0.217-0.372-0.09-0.81,0.104-1.142"/>
		<path fill-rule="evenodd" clip-rule="evenodd" fill="none" stroke="#000000" stroke-width="0.4409" stroke-linecap="round" d="
			M102.35,99.805c-0.111,0.452,0.242,1.18-0.207,1.451"/>
		<path fill-rule="evenodd" clip-rule="evenodd" fill="none" stroke="#000000" stroke-width="0.4409" stroke-linecap="round" d="
			M123.727,100.634c0.004-0.34-0.035-0.726,0.063-0.974c0.105-0.032,0.229-0.049,0.352-0.064"/>
		<path fill-rule="evenodd" clip-rule="evenodd" fill="none" stroke="#000000" stroke-width="0.54" stroke-linecap="round" d="
			M125.281,100.634c-0.078-0.154-0.1-0.498-0.104-0.829"/>
		<path fill-rule="evenodd" clip-rule="evenodd" fill="none" stroke="#000000" stroke-width="0.4458" stroke-linecap="round" d="
			M127.047,101.049c0.115-0.459-0.287-1.178,0.207-1.453"/>
		<path fill-rule="evenodd" clip-rule="evenodd" fill="none" stroke="#000000" stroke-width="0.3944" stroke-linecap="round" d="
			M90.105,100.012c0.12,0.157,0.182,0.371,0.208,0.622"/>
		<path fill-rule="evenodd" clip-rule="evenodd" fill="none" stroke="#000000" stroke-width="0.6971" stroke-linecap="round" d="
			M99.859,100.219c0.09,0.395,0.217,0.875,0,1.246"/>
		<path fill-rule="evenodd" clip-rule="evenodd" fill="none" stroke="#000000" stroke-width="0.4303" stroke-linecap="round" d="
			M100.896,100.219c0.309,0.363,0.242,0.878,0,1.246"/>
		<path fill-rule="evenodd" clip-rule="evenodd" fill="none" stroke="#000000" stroke-width="0.4605" stroke-linecap="round" d="
			M128.498,101.256c-0.045-0.4-0.029-0.828,0-1.244"/>
		<path fill-rule="evenodd" clip-rule="evenodd" fill="none" stroke="#000000" stroke-width="0.5206" stroke-linecap="round" d="
			M98.199,101.465c0.295-0.248,0.283-0.783,0-1.038"/>
		<path fill-rule="evenodd" clip-rule="evenodd" fill="none" stroke="#000000" stroke-width="0.4762" stroke-linecap="round" d="
			M130.471,101.568c-0.188-0.344-0.066-0.766-0.104-1.142"/>
		<path fill-rule="evenodd" clip-rule="evenodd" fill="none" stroke="#000000" stroke-width="0.5283" stroke-linecap="round" d="
			M87.823,100.323c0.49,0.079,0.927,0.142,1.245,0.519"/>
		<path fill-rule="evenodd" clip-rule="evenodd" fill="none" stroke="#000000" stroke-width="0.6155" stroke-linecap="round" d="
			M131.82,102.087c-0.16-0.413-0.131-0.924,0.207-1.245"/>
		<path fill-rule="evenodd" clip-rule="evenodd" fill="none" stroke="#000000" stroke-width="0.4854" stroke-linecap="round" d="
			M133.271,101.049c-0.078,0.383,0.295,0.648,0.209,1.038"/>
		<path fill-rule="evenodd" clip-rule="evenodd" fill="none" stroke="#000000" stroke-width="0.4847" stroke-linecap="round" d="
			M137.008,101.049c-0.049,0.021-0.098,0.042-0.145,0.063c-0.389,0.369-0.369,1.172,0.145,1.391"/>
		<path fill-rule="evenodd" clip-rule="evenodd" fill="none" stroke="#000000" stroke-width="0.4816" stroke-linecap="round" d="
			M163.572,103.125c-0.533-0.471-0.686-1.174-0.623-1.869"/>
		<path fill-rule="evenodd" clip-rule="evenodd" fill="none" stroke="#000000" stroke-width="0.6235" stroke-linecap="round" d="
			M85.955,101.465c0.346,0.043,0.727,0.045,1.038,0.207"/>
		<path fill-rule="evenodd" clip-rule="evenodd" fill="none" stroke="#000000" stroke-width="0.4513" stroke-linecap="round" d="
			M135.348,102.295c0-0.208,0-0.416,0-0.623"/>
		<path fill-rule="evenodd" clip-rule="evenodd" fill="none" stroke="#000000" stroke-width="0.4409" stroke-linecap="round" d="
			M138.461,102.709c-0.02-0.44-0.043-0.881,0.207-1.244"/>
		<path fill-rule="evenodd" clip-rule="evenodd" fill="none" stroke="#000000" stroke-width="0.5299" stroke-linecap="round" d="
			M140.328,101.672c-0.104,0.431-0.32,0.864,0,1.245"/>
		<path fill-rule="evenodd" clip-rule="evenodd" fill="none" stroke="#000000" stroke-width="0.493" stroke-linecap="round" d="
			M155.063,102.087c-0.16,0.628-0.381,1.25,0,1.868"/>
		<path fill-rule="evenodd" clip-rule="evenodd" fill="none" stroke="#000000" stroke-width="0.4714" stroke-linecap="round" d="
			M145.309,102.295c-0.127,0.529,0.201,0.947,0.207,1.452"/>
		<path fill-rule="evenodd" clip-rule="evenodd" fill="none" stroke="#000000" stroke-width="0.5621" stroke-linecap="round" d="
			M148.422,103.747c-0.027-0.462-0.275-1.169,0.207-1.452"/>
		<path fill-rule="evenodd" clip-rule="evenodd" fill="none" stroke="#000000" stroke-width="0.4448" stroke-linecap="round" d="
			M149.875,103.955c0.119-0.52-0.254-1.322,0.207-1.66"/>
		<path fill-rule="evenodd" clip-rule="evenodd" fill="none" stroke="#000000" stroke-width="0.4285" stroke-linecap="round" d="
			M160.25,102.295c-0.018,0.44-0.043,0.881,0.209,1.244"/>
		<path fill-rule="evenodd" clip-rule="evenodd" fill="none" stroke="#000000" stroke-width="0.654" stroke-linecap="round" d="
			M141.885,103.125c0-0.276-0.049-0.76,0.311-0.83"/>
		<path fill-rule="evenodd" clip-rule="evenodd" fill="none" stroke="#000000" stroke-width="0.4788" stroke-linecap="round" d="
			M143.441,103.539c0.049-0.412-0.148-0.926,0.207-1.244"/>
		<path fill-rule="evenodd" clip-rule="evenodd" fill="none" stroke="#000000" stroke-width="0.5357" stroke-linecap="round" d="
			M146.969,103.747c-0.127-0.489,0.256-0.954,0.207-1.452"/>
		<path fill-rule="evenodd" clip-rule="evenodd" fill="none" stroke="#000000" stroke-width="0.426" stroke-linecap="round" d="
			M153.195,103.955c-0.119-0.476-0.373-1.002,0-1.453"/>
		<path fill-rule="evenodd" clip-rule="evenodd" fill="none" stroke="#000000" stroke-width="0.5217" stroke-linecap="round" d="
			M78.484,103.539c0.116-0.213,0.238-0.426,0.519-0.727"/>
		<path fill-rule="evenodd" clip-rule="evenodd" fill="none" stroke="#000000" stroke-width="0.6095" stroke-linecap="round" d="
			M151.742,104.162c-0.049-0.021-0.098-0.042-0.146-0.063c-0.234-0.324-0.289-1.021,0.146-1.183"/>
		<path fill-rule="evenodd" clip-rule="evenodd" fill="none" stroke="#000000" stroke-width="0.4702" stroke-linecap="round" d="
			M79.937,104.162c0.346-0.284,0.547-0.729,1.038-0.83"/>
		<path fill-rule="evenodd" clip-rule="evenodd" fill="none" stroke="#000000" stroke-width="0.5755" stroke-linecap="round" d="
			M87.615,104.785c0.128-0.281,0.073-0.545,0-0.83"/>
		<path fill-rule="evenodd" clip-rule="evenodd" fill="none" stroke="#000000" stroke-width="0.4452" stroke-linecap="round" d="
			M83.672,104.992c0.325-0.193,0.68-0.484,0.83-0.83"/>
		<path fill-rule="evenodd" clip-rule="evenodd" fill="none" stroke="#000000" stroke-width="0.6788" stroke-linecap="round" d="
			M81.804,108.832c0.356-0.025,0.525,0.064,0.831,0.104"/>
		<path fill-rule="evenodd" clip-rule="evenodd" fill="none" stroke="#000000" stroke-width="0.4157" stroke-linecap="round" d="
			M81.597,111.01c0.274,0.004,0.397,0.158,0.623,0.208"/>
		<path fill-rule="evenodd" clip-rule="evenodd" fill="none" stroke="#000000" stroke-width="0.6845" stroke-linecap="round" d="
			M82.012,112.671c-0.394-0.089-0.875-0.218-1.246,0"/>
		<path fill-rule="evenodd" clip-rule="evenodd" fill="none" stroke="#000000" stroke-width="0.5692" stroke-linecap="round" d="
			M80.663,114.227c0.351-0.195,0.814-0.087,1.141,0.104"/>
		<path fill-rule="evenodd" clip-rule="evenodd" fill="none" stroke="#000000" stroke-width="0.5283" stroke-linecap="round" d="
			M80.559,116.199c0.506-0.016,0.952-0.125,1.453,0"/>
		<path fill-rule="evenodd" clip-rule="evenodd" fill="none" stroke="#000000" stroke-width="0.6666" stroke-linecap="round" d="
			M80.767,118.273c0.446-0.266,0.977,0.01,1.453,0"/>
		<path fill-rule="evenodd" clip-rule="evenodd" fill="none" stroke="#000000" stroke-width="0.6393" stroke-linecap="round" d="
			M80.767,120.143c0.406-0.149,0.837-0.117,1.246,0"/>
		<path fill-rule="evenodd" clip-rule="evenodd" fill="none" stroke="#000000" stroke-width="0.483" stroke-linecap="round" d="
			M80.456,122.113c0.511-0.153,1.071-0.508,1.557-0.104"/>
		<path fill-rule="evenodd" clip-rule="evenodd" fill="none" stroke="#000000" stroke-width="0.5577" stroke-linecap="round" d="
			M81.597,124.293c-0.362-0.013-0.684-0.158-1.038,0"/>
		<path fill-rule="evenodd" clip-rule="evenodd" fill="none" stroke="#000000" stroke-width="0.4554" stroke-linecap="round" d="
			M80.352,126.367c0.371-0.33,1.288-0.364,1.452,0.209"/>
		<path fill-rule="evenodd" clip-rule="evenodd" fill="none" stroke="#000000" stroke-width="0.4221" stroke-linecap="round" d="
			M80.559,127.82c0.363-0.018,0.719-0.027,0.83,0.207"/>
		<path fill-rule="evenodd" clip-rule="evenodd" fill="none" stroke="#000000" stroke-width="0.4999" stroke-linecap="round" d="
			M80.559,129.896c0.396-0.413,1.007-0.147,1.453,0"/>
		<path fill-rule="evenodd" clip-rule="evenodd" fill="none" stroke="#000000" stroke-width="0.5692" stroke-linecap="round" d="
			M80.352,131.971c0.387-0.194,0.866-0.277,1.245,0"/>
		<path fill-rule="evenodd" clip-rule="evenodd" fill="none" stroke="#000000" stroke-width="0.4762" stroke-linecap="round" d="
			M80.144,134.047c0.307-0.353,0.839-0.15,1.245-0.208"/>
		<path fill-rule="evenodd" clip-rule="evenodd" fill="none" stroke="#000000" stroke-width="0.5833" stroke-linecap="round" d="
			M80.144,135.499c0.282-0.128,0.545-0.073,0.83,0"/>
		<path fill-rule="evenodd" clip-rule="evenodd" fill="none" stroke="#000000" stroke-width="0.706" stroke-linecap="round" d="
			M80.352,137.367c0.399-0.139,0.826-0.1,1.245-0.104"/>
		<path fill-rule="evenodd" clip-rule="evenodd" fill="none" stroke="#000000" stroke-width="0.4614" stroke-linecap="round" d="
			M79.729,138.819c0.387-0.362,1.047-0.241,1.453,0"/>
		<path fill-rule="evenodd" clip-rule="evenodd" fill="none" stroke="#000000" stroke-width="0.54" stroke-linecap="round" d="
			M79.729,140.479c0.261-0.37,1.034-0.33,1.038,0.208"/>
		<path fill-rule="evenodd" clip-rule="evenodd" fill="none" stroke="#000000" stroke-width="0.4683" stroke-linecap="round" d="
			M80.559,142.141c-0.492-0.027-0.928-0.32-1.453-0.208"/>
		<path fill-rule="evenodd" clip-rule="evenodd" fill="none" stroke="#000000" stroke-width="0.4117" stroke-linecap="round" d="
			M79.521,146.083c-0.395-0.39-0.891-0.485-1.453-0.415"/>
		<path fill-rule="evenodd" clip-rule="evenodd" fill="none" stroke="#000000" stroke-width="0.4714" stroke-linecap="round" d="
			M78.276,147.743c0.357-0.051,0.703,0.038,0.984,0.262c0.026,0.111,0.04,0.236,0.053,0.361"/>
		<path fill-rule="evenodd" clip-rule="evenodd" fill="none" stroke="#000000" stroke-width="0.5654" stroke-linecap="round" d="
			M77.55,149.715c0.499,0.093,1.02,0.108,1.453,0.415"/>
		<path fill-rule="evenodd" clip-rule="evenodd" fill="none" stroke="#000000" stroke-width="0.4683" stroke-linecap="round" d="
			M77.446,153.555c0-0.069,0-0.139,0-0.208c-0.179-0.397-0.769-0.539-1.141-0.312"/>
		<path fill-rule="evenodd" clip-rule="evenodd" fill="none" stroke="#000000" stroke-width="0.4992" stroke-linecap="round" d="
			M75.786,154.28c0.397,0.093,1.194,0.125,1.038,0.727"/>
		<path fill-rule="evenodd" clip-rule="evenodd" fill="none" stroke="#000000" stroke-width="0.4157" stroke-linecap="round" d="
			M75.994,156.252c-0.178-0.168-0.39-0.302-0.519-0.519"/>
		<path fill-rule="evenodd" clip-rule="evenodd" fill="none" stroke="#000000" stroke-width="0.398" stroke-linecap="round" d="
			M74.541,157.289c0.37-0.042,0.707,0.319,0.83,0.623"/>
		<path fill-rule="evenodd" clip-rule="evenodd" fill="none" stroke="#000000" stroke-width="0.4714" stroke-linecap="round" d="
			M73.71,158.327c0.321,0.083,0.404,0.418,0.623,0.623"/>
		<path fill-rule="evenodd" clip-rule="evenodd" fill="none" stroke="#000000" stroke-width="0.398" stroke-linecap="round" d="
			M73.088,159.157c0.38,0.116,0.45,0.535,0.622,0.83"/>
		<path fill-rule="evenodd" clip-rule="evenodd" fill="none" stroke="#000000" stroke-width="0.5091" stroke-linecap="round" d="
			M72.673,160.195c0.117,0.313,0.484,0.471,0.519,0.83"/>
		<path fill-rule="evenodd" clip-rule="evenodd" fill="none" stroke="#000000" stroke-width="0.5738" stroke-linecap="round" d="
			M102.143,52.695c-17.966-2-35.938-3.182-53.794-5.338c-3.33-1.759-3.932-6.02-2.654-9.189"/>
		<path fill-rule="evenodd" clip-rule="evenodd" fill="none" stroke="#000000" stroke-width="0.7295" stroke-linecap="round" d="
			M45.694,38.167c-0.71-2.222,1.713-3.296,3.321-3.528"/>
		<path fill-rule="evenodd" clip-rule="evenodd" fill="none" stroke="#000000" stroke-width="0.6504" stroke-linecap="round" d="
			M49.015,34.64c-2.257-4.35,2.345-5.465,5.322-5.139c5.644,0.618,14.082,1.48,19.063,1.767"/>
		<path fill-rule="evenodd" clip-rule="evenodd" fill="none" stroke="#000000" stroke-width="0.546" stroke-linecap="round" d="
			M73.399,31.268c0.035-0.012,0.07-0.023,0.105-0.035c0.395-3.151,2.463-5.989,4.772-8.215"/>
		<path fill-rule="evenodd" clip-rule="evenodd" fill="none" stroke="#000000" stroke-width="0.5546" stroke-linecap="round" d="
			M78.276,23.018c0.005-0.467-0.108-0.945,0.062-1.392c1.067-1.215,3-1.87,4.504-1.307"/>
		<path fill-rule="evenodd" clip-rule="evenodd" fill="none" stroke="#000000" stroke-width="0.6374" stroke-linecap="round" d="
			M83.257,20.527c1.242-0.575,2.909,0.176,4.151,0.623"/>
		<path fill-rule="evenodd" clip-rule="evenodd" fill="none" stroke="#000000" stroke-width="0.5863" stroke-linecap="round" d="
			M102.143,52.695c0.273,3.375,0.969,6.677,1.725,9.896c1.475,6.281,1.414,11.811,1.646,18.212c0.102,2.839-0.559,6.317-0.051,8.728
			"/>
		<path fill-rule="evenodd" clip-rule="evenodd" fill="none" stroke="#000000" stroke-width="0.5423" stroke-linecap="round" d="
			M105.463,89.531c1.035-0.32,1.932,0.155,2.803,0.623"/>
		<path fill-rule="evenodd" clip-rule="evenodd" fill="none" stroke="#000000" stroke-width="0.6158" stroke-linecap="round" d="
			M108.266,90.154c1.979,1,3.092,3.311,2.281,5.465"/>
		<path fill-rule="evenodd" clip-rule="evenodd" fill="none" stroke="#000000" stroke-width="0.6686" stroke-linecap="round" d="
			M110.547,95.619c12.305,2.087,26.822,4.626,40.084,5.479c5.686,0.366,12.537-1.49,16.779-2.298"/>
		<path fill-rule="evenodd" clip-rule="evenodd" fill="none" stroke="#000000" stroke-width="0.7252" stroke-linecap="round" d="
			M167.41,98.801c0.328-0.156,0.67-0.249,1.031-0.295c1.213,0.373,1.631,1.82,1.467,2.957c-0.164,0.421-0.688,0.383-1.045,0.521"/>
		<path fill-rule="evenodd" clip-rule="evenodd" fill="none" stroke="#000000" stroke-width="0.6803" stroke-linecap="round" d="
			M168.863,101.983c-0.57,0.635-1.5,0.833-2.283,0.985"/>
		<path fill-rule="evenodd" clip-rule="evenodd" fill="none" stroke="#000000" stroke-width="0.7319" stroke-linecap="round" d="
			M166.58,102.969c-0.52,0.206-1.041,0.543-1.625,0.433"/>
		<path fill-rule="evenodd" clip-rule="evenodd" fill="none" stroke="#000000" stroke-width="0.6587" stroke-linecap="round" d="
			M164.955,103.401c-0.674,0.497-1.648,0.664-2.49,0.622"/>
		<path fill-rule="evenodd" clip-rule="evenodd" fill="none" stroke="#000000" stroke-width="0.72" stroke-linecap="round" d="
			M162.465,104.023c-0.945,0.424-2.086,0.652-3.148,0.605"/>
		<path fill-rule="evenodd" clip-rule="evenodd" fill="none" stroke="#000000" stroke-width="0.606" stroke-linecap="round" d="
			M159.316,104.629c-0.691,0.253-1.457,0.144-2.178,0.26"/>
		<path fill-rule="evenodd" clip-rule="evenodd" fill="none" stroke="#000000" stroke-width="0.6988" stroke-linecap="round" d="
			M157.139,104.889c-13.305,0.883-25.223-1.49-37.035-3.298c-3.654-0.56-7.221-0.935-10.664-2.107
			c-0.229-0.267-0.619-0.212-0.934-0.163"/>
		<path fill-rule="evenodd" clip-rule="evenodd" fill="none" stroke="#000000" stroke-width="0.5499" stroke-linecap="round" d="
			M108.506,99.32c-0.764,0.99-2.146,1.361-3.146,2.04"/>
		<path fill-rule="evenodd" clip-rule="evenodd" fill="none" stroke="#000000" stroke-width="0.5033" stroke-linecap="round" d="
			M105.359,101.36c0.184,3.056-0.268,6.309-0.104,9.442"/>
		<path fill-rule="evenodd" clip-rule="evenodd" fill="none" stroke="#000000" stroke-width="0.5527" stroke-linecap="round" d="
			M105.359,101.36c-0.494,0.028-0.949,0.55-1.453,0.208"/>
		<path fill-rule="evenodd" clip-rule="evenodd" fill="none" stroke="#000000" stroke-width="0.586" stroke-linecap="round" d="
			M103.906,101.568c-2.555,0.994-5.501,1.158-8.197,0.934"/>
		<path fill-rule="evenodd" clip-rule="evenodd" fill="none" stroke="#000000" stroke-width="0.594" stroke-linecap="round" d="
			M95.709,102.502c-0.458,0.469-0.913,0.983-1.557,1.142"/>
		<path fill-rule="evenodd" clip-rule="evenodd" fill="none" stroke="#000000" stroke-width="0.571" stroke-linecap="round" d="
			M94.152,103.644c-2.588,1.907-5.932,2.661-9.097,3.147"/>
		<path fill-rule="evenodd" clip-rule="evenodd" fill="none" stroke="#000000" stroke-width="0.6642" stroke-linecap="round" d="
			M85.056,106.791c-0.709,1.875-1.913,3.781-1.453,5.949"/>
		<path fill-rule="evenodd" clip-rule="evenodd" fill="none" stroke="#000000" stroke-width="0.6408" stroke-linecap="round" d="
			M83.603,112.74c3.467,1.253,8.543-0.055,12.932-0.58c3.404-0.406,7.506-0.844,9.494,2.422c1.441,3.516,1.885,11.002,7.113,10.332"
			/>
		<path fill-rule="evenodd" clip-rule="evenodd" fill="none" stroke="#000000" stroke-width="0.5009" stroke-linecap="round" d="
			M113.143,124.914c-3.084-2.438-5.131-5.922-5.5-9.805"/>
		<path fill-rule="evenodd" clip-rule="evenodd" fill="none" stroke="#000000" stroke-width="0.5256" stroke-linecap="round" d="
			M107.643,115.109c-0.07-0.021-0.141-0.049-0.209-0.077c-1.137-4.92-6.412-4.078-10.521-3.856
			c-4.146,0.225-8.738,0.695-12.203,0.665"/>
		<path fill-rule="evenodd" clip-rule="evenodd" fill="none" stroke="#000000" stroke-width="0.5671" stroke-linecap="round" d="
			M107.643,115.109c0.033-0.012,0.068-0.023,0.102-0.035c11.221-0.067,22.539,1.352,33.664,2.535
			c4.166,0.443,8.33,0.275,12.502,0.537c8.021,0.505,16.264,1.678,24.854,2.99c3.225,0.494,6.465,0.963,9.547,2.075
			c2.736,0.521,5.406,1.325,8.051,2.118"/>
		<path fill-rule="evenodd" clip-rule="evenodd" fill="none" stroke="#000000" stroke-width="0.8497" stroke-linecap="round" d="
			M113.143,124.914c0.291,0.111,0.457,0.072,0.621,0"/>
		<path fill-rule="evenodd" clip-rule="evenodd" fill="none" stroke="#000000" stroke-width="0.6078" stroke-linecap="round" d="
			M83.603,112.74c-0.033,0.053-0.065,0.106-0.098,0.159c0.084,6.421-0.616,13.255-0.759,20.104
			c-0.111,5.294-1.083,11.264-2.875,17.581c-1.067,3.762-3.984,11.206-7.268,12.585"/>
		<path fill-rule="evenodd" clip-rule="evenodd" fill="none" stroke="#000000" stroke-width="0.6147" stroke-linecap="round" d="
			M72.604,163.17c-0.233,0.263-0.393,0.571-0.644,0.813c-0.151,0.034-0.336,0.046-0.493,0.062c-1.57-0.616-2.944-3.225-0.973-4.16"
			/>
		<path fill-rule="evenodd" clip-rule="evenodd" fill="none" stroke="#000000" stroke-width="0.4837" stroke-linecap="round" d="
			M70.494,159.884c2.592-2.217,3.789-5.449,4.98-8.509"/>
		<path fill-rule="evenodd" clip-rule="evenodd" fill="none" stroke="#000000" stroke-width="0.5793" stroke-linecap="round" d="
			M81.527,106.168c-1.4-0.426-2.758-0.86-4.081-1.487"/>
		<path fill-rule="evenodd" clip-rule="evenodd" fill="none" stroke="#000000" stroke-width="0.5765" stroke-linecap="round" d="
			M77.446,104.681c-0.212,1.386-0.357,2.8-0.727,4.151"/>
		<path fill-rule="evenodd" clip-rule="evenodd" fill="none" stroke="#000000" stroke-width="0.5987" stroke-linecap="round" d="
			M77.446,104.681c-6.846-2.351-5.655-12.786,1.089-14.319"/>
		<path fill-rule="evenodd" clip-rule="evenodd" fill="none" stroke="#000000" stroke-width="0.5704" stroke-linecap="round" d="
			M78.536,90.361c0.897-7.801-3.263-18.181-3.229-27.433c0-0.123-0.18-1.181-0.238-1.721c-0.387-3.598-1.331-7.073-1.668-10.277"/>
		<path fill-rule="evenodd" clip-rule="evenodd" fill="none" stroke="#000000" stroke-width="0.6123" stroke-linecap="round" d="
			M96.332,98.87c-0.573-3.615,4.238-4.281,6.848-4.254"/>
		<path fill-rule="evenodd" clip-rule="evenodd" fill="none" stroke="#000000" stroke-width="0.931" stroke-linecap="round" d="
			M103.18,94.616c0.545-0.27,1.1,0.163,1.66,0.104"/>
		<path fill-rule="evenodd" clip-rule="evenodd" fill="none" stroke="#000000" stroke-width="0.5425" stroke-linecap="round" d="
			M78.276,23.018c1.359,1.528,3.525,0.161,5.391,0.319c1.855,0.157,2.652,1.766,4.616,2.539c1.27,0.5,2.625,0.271,4.042-0.224
			c2.957-1.032,4.506-1.24,6.643,0.746c0.34,0.651,1.043,1.046,1.717,1.28c2.045-0.17,4.379-0.298,5.607-2.17"/>
		<path fill-rule="evenodd" clip-rule="evenodd" fill="none" stroke="#000000" stroke-width="0.4955" stroke-linecap="round" d="
			M73.399,31.268c0.313,1.394-0.171,2.835,0.208,4.202"/>
		<path fill-rule="evenodd" clip-rule="evenodd" fill="none" stroke="#000000" stroke-width="0.6117" stroke-linecap="round" d="
			M73.503,37.649c9.231,1.249,18.505,2.348,27.81,3.113"/>
		<path fill-rule="evenodd" clip-rule="evenodd" fill="none" stroke="#000000" stroke-width="0.6138" stroke-linecap="round" d="
			M103.803,34.432c0.414-3.821,5.824-8.234,2.004-11.87c-2.207-0.583-3.715,0.744-5.709,0.558c-2.233-0.208-4.172-1.779-6.352-2.051
			c-1.733-0.216-3.651,0.444-5.508,0.185"/>
		<path fill-rule="evenodd" clip-rule="evenodd" fill="none" stroke="#000000" stroke-width="0.5439" stroke-linecap="round" d="
			M49.015,34.64c1.448-0.588,2.533-1.938,3.998-2.337c0.258,1.113-0.931,1.986-0.818,3.033c0.93-0.102,1.506-1.145,2.475-1.215"/>
		<path fill-rule="evenodd" clip-rule="evenodd" fill="none" stroke="#000000" stroke-width="0.6235" stroke-linecap="round" d="
			M54.67,34.121c0.329-0.372,0.568-0.894,0.986-1.141"/>
		<path fill-rule="evenodd" clip-rule="evenodd" fill="none" stroke="#000000" stroke-width="0.6235" stroke-linecap="round" d="
			M54.67,34.121c0.198,0.532-0.36,0.936-0.363,1.453"/>
		<path fill-rule="evenodd" clip-rule="evenodd" fill="none" stroke="#000000" stroke-width="0.5519" stroke-linecap="round" d="
			M54.307,35.573c1.672-0.28,2.556-2.227,4.278-2.45c0.279,0.974-0.845,1.674-0.75,2.657"/>
		<path fill-rule="evenodd" clip-rule="evenodd" fill="none" stroke="#000000" stroke-width="0.5527" stroke-linecap="round" d="
			M57.834,35.781c1.412-0.384,2.237-2.055,3.656-2.449c0.28,0.983-0.864,1.816-0.646,2.761"/>
		<path fill-rule="evenodd" clip-rule="evenodd" fill="none" stroke="#000000" stroke-width="0.5701" stroke-linecap="round" d="
			M60.844,36.092c1.349-0.398,2.14-1.6,3.244-2.363c0.567,0.734-0.709,1.542-0.338,2.363"/>
		<path fill-rule="evenodd" clip-rule="evenodd" fill="none" stroke="#000000" stroke-width="0.6167" stroke-linecap="round" d="
			M63.75,36.092c1.149-0.436,1.645-1.776,2.82-2.092c0.066,0.041,0.113,0.125,0.159,0.21c-0.022,0.202-0.138,0.46-0.178,0.637"/>
		<path fill-rule="evenodd" clip-rule="evenodd" fill="none" stroke="#000000" stroke-width="0.5387" stroke-linecap="round" d="
			M149.148,51.761c-3.822,1.776-8.523,0.615-11.83-1.66"/>
		<path fill-rule="evenodd" clip-rule="evenodd" fill="none" stroke="#000000" stroke-width="0.7453" stroke-linecap="round" d="
			M63.75,36.092c-0.346,0.099-0.256,0.543-0.623,0.623"/>
		<path fill-rule="evenodd" clip-rule="evenodd" fill="none" stroke="#000000" stroke-width="0.906" stroke-linecap="round" d="
			M60.844,36.092c-0.151,0.151-0.334,0.334-0.519,0.519"/>
		<path fill-rule="evenodd" clip-rule="evenodd" fill="none" stroke="#000000" stroke-width="0.9411" stroke-linecap="round" d="
			M57.834,35.781c-0.169,0.243-0.321,0.397-0.415,0.519"/>
		<path fill-rule="evenodd" clip-rule="evenodd" fill="none" stroke="#000000" stroke-width="0.9388" stroke-linecap="round" d="
			M54.307,35.573c-0.082,0.082-0.195,0.196-0.311,0.312"/>
		<path fill-rule="evenodd" clip-rule="evenodd" fill="none" stroke="#000000" stroke-width="0.6206" stroke-linecap="round" d="
			M157.582,50.871c0.691-4.454,1.299-10.574-2.672-13.588c-1.988-2.509-4.779-3.419-8.178-4.067
			c-3.697-0.706-6.906,0.624-9.564,2.206c-1.82,1.083-3.018,2.349-5.344,2.426c-2.58,0.085-5.324-0.778-8.191-1.183
			c-3.211-0.453-6.803-0.786-10.377-1.277c-3.182-0.437-6.66-0.792-9.453-0.956"/>
		<path fill-rule="evenodd" clip-rule="evenodd" fill="none" stroke="#000000" stroke-width="0.534" stroke-linecap="round" d="
			M103.803,34.432c-0.813,1.138-1.295,2.571-1.453,3.943"/>
		<path fill-rule="evenodd" clip-rule="evenodd" fill="none" stroke="#000000" stroke-width="0.5639" stroke-linecap="round" d="
			M102.143,52.695c6.625,1.222,12.467,0.135,18.914,1.839c2.721,0.719,5.027,3.243,7.078,5.163c3.621,3.39,8.135,5.763,12.027,6.653
			c5.066,1.158,9.865,1.286,14.121-4.047c2.352-3.278,3.148-7.493,3.299-11.431"/>
		<path fill-rule="evenodd" clip-rule="evenodd" fill="none" stroke="#000000" stroke-width="0.5811" stroke-linecap="round" d="
			M157.582,50.871c-0.037,0.02-0.074,0.04-0.111,0.06c-5.219,7.345-15.277,8.678-22.172,3.681
			c-3.676-2.663-6.738-6.374-11.602-7.284c-5.02-0.94-12.146-1.354-17.031-1.854c-19.473-1.996-38-4.151-55.876-5.935
			c-1.412-0.141-3.401,0.303-4.618-1.214c-0.106-0.03-0.304-0.088-0.478-0.156"/>
		<path fill-rule="evenodd" clip-rule="evenodd" fill="none" stroke="#000000" stroke-width="0.5665" stroke-linecap="round" d="
			M105.463,89.531c0.123,0.81-0.244,1.602,0,2.387"/>
		<path fill-rule="evenodd" clip-rule="evenodd" fill="none" stroke="#000000" stroke-width="0.5123" stroke-linecap="round" d="
			M108.266,90.154c-0.822,0.517-1.902,1.207-2.803,1.764"/>
		<path fill-rule="evenodd" clip-rule="evenodd" fill="none" stroke="#000000" stroke-width="0.4714" stroke-linecap="round" d="
			M105.463,91.918c-0.307,0.346-0.131,0.839-0.311,1.245"/>
		<path fill-rule="evenodd" clip-rule="evenodd" fill="none" stroke="#000000" stroke-width="0.7494" stroke-linecap="round" d="
			M78.899,101.672c-0.247-0.438-0.746-0.65-1.142-0.934"/>
		<path fill-rule="evenodd" clip-rule="evenodd" fill="none" stroke="#000000" stroke-width="0.5596" stroke-linecap="round" d="
			M77.757,100.738c-0.457,0.649-1.445,0.535-1.971,1.141"/>
		<path fill-rule="evenodd" clip-rule="evenodd" fill="none" stroke="#000000" stroke-width="1.44" stroke-linecap="round" d="
			M77.757,100.738c0-0.018,0-0.035,0-0.053"/>
		<path fill-rule="evenodd" clip-rule="evenodd" fill="none" stroke="#000000" stroke-width="0.7087" stroke-linecap="round" d="
			M77.757,100.686c-0.493-0.025-0.469-0.607-0.934-0.674"/>
		<path fill-rule="evenodd" clip-rule="evenodd" fill="none" stroke="#000000" stroke-width="0.54" stroke-linecap="round" d="
			M76.824,100.012c-0.394,0.18-0.811,0.227-1.142,0.519"/>
		<path fill-rule="evenodd" clip-rule="evenodd" fill="none" stroke="#000000" stroke-width="0.805" stroke-linecap="round" d="
			M76.824,100.012c-0.049-0.423-0.272-0.809-0.519-1.142"/>
		<path fill-rule="evenodd" clip-rule="evenodd" fill="none" stroke="#000000" stroke-width="0.6013" stroke-linecap="round" d="
			M76.305,98.87c-0.643,0.24-1.36,0.183-1.972,0.519"/>
		<path fill-rule="evenodd" clip-rule="evenodd" fill="none" stroke="#000000" stroke-width="0.6112" stroke-linecap="round" d="
			M76.253,97.21c-0.575-0.045-1.164,0.04-1.608,0.415"/>
		<path fill-rule="evenodd" clip-rule="evenodd" fill="none" stroke="#000000" stroke-width="0.6266" stroke-linecap="round" d="
			M78.744,94.097c-0.134-1.233,0.237-2.581-0.208-3.735"/>
		<path fill-rule="evenodd" clip-rule="evenodd" fill="none" stroke="#000000" stroke-width="0.714" stroke-linecap="round" d="
			M94.152,103.644c-0.301-0.483-0.218-1.087-0.173-1.626"/>
		<path fill-rule="evenodd" clip-rule="evenodd" fill="none" stroke="#000000" stroke-width="0.5499" stroke-linecap="round" d="
			M93.979,102.018c-0.521-0.183-1.146-0.209-1.695-0.19"/>
		<path fill-rule="evenodd" clip-rule="evenodd" fill="none" stroke="#000000" stroke-width="0.517" stroke-linecap="round" d="
			M92.285,101.827c0.086,0.563,0.132,1.134,0.104,1.712"/>
		<path fill-rule="evenodd" clip-rule="evenodd" fill="none" stroke="#000000" stroke-width="0.805" stroke-linecap="round" d="
			M92.285,101.827c-0.069-0.034-0.138-0.069-0.208-0.104"/>
		<path fill-rule="evenodd" clip-rule="evenodd" fill="none" stroke="#000000" stroke-width="0.4702" stroke-linecap="round" d="
			M90.313,102.087c0.625,0.422,0.356,1.237,0.416,1.868"/>
		<path fill-rule="evenodd" clip-rule="evenodd" fill="none" stroke="#000000" stroke-width="0.5006" stroke-linecap="round" d="
			M88.86,102.709c0.376,0.574,0.166,1.23,0.208,1.868"/>
		<path fill-rule="evenodd" clip-rule="evenodd" fill="none" stroke="#000000" stroke-width="0.5188" stroke-linecap="round" d="
			M85.851,103.487c-0.023,0.552,0.486,0.915,0.312,1.505"/>
		<path fill-rule="evenodd" clip-rule="evenodd" fill="none" stroke="#000000" stroke-width="1.298" stroke-linecap="round" d="
			M82.99,103.096c-0.03,0.02-0.059,0.039-0.089,0.059"/>
		<path fill-rule="evenodd" clip-rule="evenodd" fill="none" stroke="#000000" stroke-width="0.5617" stroke-linecap="round" d="
			M82.901,103.154c-0.191,0.627-0.817,1.053-1.305,1.423"/>
		<path fill-rule="evenodd" clip-rule="evenodd" fill="none" stroke="#000000" stroke-width="0.6971" stroke-linecap="round" d="
			M82.901,103.154c-1.408-0.357-2.544-1.221-4.002-1.482"/>
		<path fill-rule="evenodd" clip-rule="evenodd" fill="none" stroke="#000000" stroke-width="0.5441" stroke-linecap="round" d="
			M78.899,101.672c-0.602,0.35-1.191,0.715-1.66,1.245"/>
		<path fill-rule="evenodd" clip-rule="evenodd" fill="none" stroke="#000000" stroke-width="0.7637" stroke-linecap="round" d="
			M76.253,97.21c0.105,0.543,0.028,1.108,0.052,1.66"/>
		<path fill-rule="evenodd" clip-rule="evenodd" fill="none" stroke="#000000" stroke-width="0.7039" stroke-linecap="round" d="
			M77.757,100.686c0.422-2.164,0.871-4.384,0.986-6.589"/>
		<path fill-rule="evenodd" clip-rule="evenodd" fill="none" stroke="#000000" stroke-width="0.6235" stroke-linecap="round" d="
			M78.744,94.097c-1.403,0.254-2.013,1.866-2.491,3.113"/>
		<path fill-rule="evenodd" clip-rule="evenodd" fill="none" stroke="#000000" stroke-width="0.5591" stroke-linecap="round" d="
			M103.18,94.616c-0.383,0.603-0.166,1.283,0.105,1.868"/>
		<path fill-rule="evenodd" clip-rule="evenodd" fill="none" stroke="#000000" stroke-width="0.4669" stroke-linecap="round" d="
			M157.139,104.889c0.018-0.886-1.1-1.462-0.416-2.387"/>
		<path fill-rule="evenodd" clip-rule="evenodd" fill="none" stroke="#000000" stroke-width="0.4589" stroke-linecap="round" d="
			M159.316,104.629c-0.311-0.891-1.254-1.463-0.934-2.542"/>
		<path fill-rule="evenodd" clip-rule="evenodd" fill="none" stroke="#000000" stroke-width="0.534" stroke-linecap="round" d="
			M162.465,104.023c-0.105-0.738-1.082-1.245-0.658-2.04"/>
		<path fill-rule="evenodd" clip-rule="evenodd" fill="none" stroke="#000000" stroke-width="0.4714" stroke-linecap="round" d="
			M164.955,103.401c-0.217-0.591-0.953-1.394-0.346-1.937"/>
		<path fill-rule="evenodd" clip-rule="evenodd" fill="none" stroke="#000000" stroke-width="0.5692" stroke-linecap="round" d="
			M166.58,102.969c0.113-0.661-0.926-0.651-0.934-1.297"/>
		<path fill-rule="evenodd" clip-rule="evenodd" fill="none" stroke="#000000" stroke-width="0.4731" stroke-linecap="round" d="
			M167.307,100.012c-0.068,0-0.139,0-0.207,0c-0.744,0.398-0.277,1.329,0,1.867"/>
		<path fill-rule="evenodd" clip-rule="evenodd" fill="none" stroke="#000000" stroke-width="0.7681" stroke-linecap="round" d="
			M110.547,95.619c-1.41,0.326-2.73-0.473-4.047-0.692"/>
		<path fill-rule="evenodd" clip-rule="evenodd" fill="none" stroke="#000000" stroke-width="0.6076" stroke-linecap="round" d="
			M96.332,98.87c-4.544,0.626-11.035-1.017-13.342,4.226"/>
		<path fill-rule="evenodd" clip-rule="evenodd" fill="none" stroke="#000000" stroke-width="0.6735" stroke-linecap="round" d="
			M82.99,103.096c0.845,0.489,1.918,0.236,2.861,0.392"/>
		<path fill-rule="evenodd" clip-rule="evenodd" fill="none" stroke="#000000" stroke-width="0.6309" stroke-linecap="round" d="
			M85.851,103.487c1.013-0.235,2.006-0.47,3.009-0.778"/>
		<path fill-rule="evenodd" clip-rule="evenodd" fill="none" stroke="#000000" stroke-width="0.8191" stroke-linecap="round" d="
			M88.86,102.709c0.437-0.299,0.969-0.426,1.453-0.622"/>
		<path fill-rule="evenodd" clip-rule="evenodd" fill="none" stroke="#000000" stroke-width="0.72" stroke-linecap="round" d="
			M90.313,102.087c0.482-0.485,1.178-0.213,1.764-0.363"/>
		<path fill-rule="evenodd" clip-rule="evenodd" fill="none" stroke="#000000" stroke-width="0.5217" stroke-linecap="round" d="
			M92.077,101.724c0.084-0.388,0.269-0.837,0-1.193"/>
		<path fill-rule="evenodd" clip-rule="evenodd" fill="none" stroke="#000000" stroke-width="0.7721" stroke-linecap="round" d="
			M93.979,102.018c0.11-0.024,0.31-0.026,0.484-0.034"/>
		<path fill-rule="evenodd" clip-rule="evenodd" fill="none" stroke="#000000" stroke-width="0.4569" stroke-linecap="round" d="
			M94.464,101.983c-0.072-0.587,0.564-1.407-0.208-1.765"/>
		<path fill-rule="evenodd" clip-rule="evenodd" fill="none" stroke="#000000" stroke-width="0.5465" stroke-linecap="round" d="
			M95.553,102.19c0.266-0.624,1.076-1.308,0.363-1.972"/>
		<path fill-rule="evenodd" clip-rule="evenodd" fill="none" stroke="#000000" stroke-width="0.5427" stroke-linecap="round" d="
			M103.906,101.568c0.012-0.698,0.42-1.744-0.311-2.18"/>
		<path fill-rule="evenodd" clip-rule="evenodd" fill="none" stroke="#000000" stroke-width="0.66" stroke-linecap="round" d="
			M108.506,99.32c-1.238-0.573-2.568-1.059-3.924-1.072"/>
		<path fill-rule="evenodd" clip-rule="evenodd" fill="none" stroke="#000000" stroke-width="0.5091" stroke-linecap="round" d="
			M104.582,98.248c-0.012,0.033-0.023,0.067-0.037,0.102c0.018,0.461,0.553,0.489,0.859,0.684c0.078,0.324,0.033,0.666,0.162,0.979"
			/>
		<path fill-rule="evenodd" clip-rule="evenodd" fill="none" stroke="#000000" stroke-width="0.6821" stroke-linecap="round" d="
			M104.582,98.248c-0.027-0.045-0.055-0.088-0.082-0.133c-2.727-0.154-5.396,0.902-8.168,0.755"/>
		<path fill-rule="evenodd" clip-rule="evenodd" fill="none" stroke="#000000" stroke-width="0.483" stroke-linecap="round" d="
			M167.41,98.801c-0.096,0.396-0.117,0.802-0.104,1.211"/>
		<path fill-rule="evenodd" clip-rule="evenodd" fill="none" stroke="#000000" stroke-width="0.6285" stroke-linecap="round" d="
			M167.307,100.012c0.156,0.848,0.645,1.74,1.557,1.972"/>
		<path fill-rule="evenodd" clip-rule="evenodd" fill="none" stroke="#000000" stroke-width="0.805" stroke-linecap="round" d="
			M95.709,102.502c-0.052-0.104-0.104-0.207-0.156-0.312"/>
		<path fill-rule="evenodd" clip-rule="evenodd" fill="none" stroke="#000000" stroke-width="0.6" stroke-linecap="round" d="
			M95.553,102.19c-0.371-0.007-0.732-0.116-1.089-0.207"/>
		<path fill-rule="evenodd" clip-rule="evenodd" fill="none" stroke="#000000" stroke-width="0.6406" stroke-linecap="round" d="
			M79.781,110.906c0.07,0.436-0.005,0.974-0.259,1.35"/>
		<path fill-rule="evenodd" clip-rule="evenodd" fill="none" stroke="#000000" stroke-width="0.6493" stroke-linecap="round" d="
			M79.521,112.256c-0.795,13.051,0.434,26.713-4.047,39.119"/>
		<path fill-rule="evenodd" clip-rule="evenodd" fill="none" stroke="#000000" stroke-width="0.5436" stroke-linecap="round" d="
			M75.475,151.375c0.728,0.319,2.261-0.494,2.387,0.727"/>
		<path fill-rule="evenodd" clip-rule="evenodd" fill="none" stroke="#000000" stroke-width="0.6922" stroke-linecap="round" d="
			M85.056,106.791c-1.111-0.414-2.323-0.727-3.528-0.623"/>
		<path fill-rule="evenodd" clip-rule="evenodd" fill="none" stroke="#000000" stroke-width="0.602" stroke-linecap="round" d="
			M81.527,106.168c-0.682,1.594-1.378,3.069-1.747,4.738"/>
		<path fill-rule="evenodd" clip-rule="evenodd" fill="none" stroke="#000000" stroke-width="0.5691" stroke-linecap="round" d="
			M79.781,110.906c-3.102-0.979-5.905,0.842-6.465,3.043c-0.302,1.186-0.07,2.936-0.309,4.42c-0.578,3.596-1.732,6.068-3.878,8.13
			c2.39-0.295,3.631-2.54,4.33-4.741c1.279-4.033-0.068-10.6,5.865-9.577c0.066,0.025,0.131,0.05,0.197,0.075"/>
		<path fill-rule="evenodd" clip-rule="evenodd" fill="none" stroke="#000000" stroke-width="0.5922" stroke-linecap="round" d="
			M72.604,163.17c0.267-1.615-1.213-2.32-2.11-3.286"/>
		<path fill-rule="evenodd" clip-rule="evenodd" fill="none" stroke="#000000" stroke-width="0.4281" stroke-linecap="round" d="
			M89.483,29.244c1.849,2.668,4.138,4.967,6.433,7.264"/>
		<path fill-rule="evenodd" clip-rule="evenodd" fill="none" stroke="#000000" stroke-width="0.4451" stroke-linecap="round" d="
			M93.219,58.298c-0.793-1.045-1.561-2.139-2.076-3.321"/>
		<path fill-rule="evenodd" clip-rule="evenodd" fill="none" stroke="#000000" stroke-width="0.4798" stroke-linecap="round" d="
			M79.937,60.166c2.088,9.745,9.059,17.648,16.603,23.659"/>
		<path fill-rule="evenodd" clip-rule="evenodd" fill="none" stroke="#000000" stroke-width="0.5719" stroke-linecap="round" d="
			M80.144,89.428c0.624-0.478,1.449-0.482,2.179-0.727"/>
		<path fill-rule="evenodd" clip-rule="evenodd" fill="none" stroke="#000000" stroke-width="0.4626" stroke-linecap="round" d="
			M82.323,88.701c-0.271-1.694-1.601-2.954-2.179-4.462"/>
		<path fill-rule="evenodd" clip-rule="evenodd" fill="none" stroke="#000000" stroke-width="0.5091" stroke-linecap="round" d="
			M82.323,88.701c0.972,0.793,1.927,1.673,2.328,2.856c0.165,0.039,0.401,0.048,0.543,0.083"/>
		<path fill-rule="evenodd" clip-rule="evenodd" fill="none" stroke="#000000" stroke-width="0.573" stroke-linecap="round" d="
			M85.194,91.641c0.494-0.212,1.068-0.196,1.591-0.346"/>
		<path fill-rule="evenodd" clip-rule="evenodd" fill="none" stroke="#000000" stroke-width="0.4502" stroke-linecap="round" d="
			M85.194,91.641c0.573,1.798,1.603,3.39,2.836,4.842"/>
		<path fill-rule="evenodd" clip-rule="evenodd" fill="none" stroke="#000000" stroke-width="0.5132" stroke-linecap="round" d="
			M-1,136.952c10.793-7.888,21.699-10.31,35.115-13.862c7.843-2.077,16.172-2.572,24.488-4.566
			c4.249-1.018,8.999-1.933,13.343-2.844"/>
		<path fill-rule="evenodd" clip-rule="evenodd" fill="none" stroke="#000000" stroke-width="0.6386" stroke-linecap="round" d="
			M78.484,143.593c0.571-0.304,1.241-0.011,1.66,0.415"/>
	</g>
</g>
</svg>
