<?xml version="1.0" encoding="utf-8"?>
<!-- Generator: Adobe Illustrator 15.1.0, SVG Export Plug-In . SVG Version: 6.00 Build 0)  -->
<!DOCTYPE svg PUBLIC "-//W3C//DTD SVG 1.1//EN" "http://www.w3.org/Graphics/SVG/1.1/DTD/svg11.dtd">
<svg version="1.1" id="Layer_7" xmlns="http://www.w3.org/2000/svg" xmlns:xlink="http://www.w3.org/1999/xlink" x="0px" y="0px"
	 width="325.98px" height="225.866px" viewBox="0.001 0.022 325.98 225.866" enable-background="new 0.001 0.022 325.98 225.866"
	 xml:space="preserve">
<g>
	<g>
		<path fill="none" stroke="#000000" stroke-miterlimit="10" d="M239.675,0.022c0,14.583-20.35,87.497-10.217,104.22
			c18.864,31.062,11.203,93.263,8.731,121.603"/>
		<path fill="none" stroke="#000000" stroke-miterlimit="10" d="M77.372,0.022c0,14.583,20.35,87.497,10.134,104.22
			c-18.784,31.062-11.205,93.263-8.733,121.603"/>
	</g>
	<path fill="none" stroke="#000000" stroke-width="0.737" stroke-miterlimit="10" stroke-dasharray="1.474,0.737" d="M83.635,31.576
		c20.514-5.602,49.431-18.618,67.557-29.906l5.686,10.051l9.475-9.475c20.926,15.489,43.254,22.656,67.476,28.423"/>
	<g>
		<polyline fill="none" stroke="#000000" stroke-width="1.0001" stroke-miterlimit="10" points="107.031,177.074 160.913,214.97 
			214.384,176.744 		"/>
		
			<line fill="none" stroke="#000000" stroke-width="1.0001" stroke-miterlimit="10" x1="160.584" y1="214.23" x2="160.584" y2="225.269"/>
	</g>
	
		<path fill="none" stroke="#000000" stroke-width="1.0001" stroke-miterlimit="10" stroke-dasharray="5.0003,3.0002,1.0001,3.0002" d="
		M125.239,190.501l27.437-0.578c1.895,0,5.025,1.074,5.025,4.121v10.135"/>
	
		<path fill="none" stroke="#000000" stroke-width="1.0001" stroke-miterlimit="10" stroke-dasharray="5.0003,3.0002,1.0001,3.0002" d="
		M193.62,190.501l-27.353-0.578c-1.896,0-5.026,1.074-5.026,4.121v10.135"/>
	<path fill="none" stroke="#000000" stroke-width="0.737" stroke-miterlimit="10" stroke-dasharray="3.685,2.211" d="
		M152.592,190.089c0.989-3.459,3.46-6.262,7.662-6.838c3.459-0.494,6.261,2.471,8.239,7.084"/>
	<path fill="none" stroke="#000000" stroke-width="0.737" stroke-miterlimit="10" stroke-dasharray="3.685,2.211" d="
		M150.037,190.337c-4.86-8.896-5.355-17.879-0.906-26.693c3.214-6.262,7.58-9.721,12.522-9.393
		c6.098,0.412,11.947,3.707,14.254,11.617c3.049,10.875-0.494,18.455-5.687,24.221"/>
	<path fill="none" stroke="#000000" stroke-width="0.737" stroke-miterlimit="10" stroke-dasharray="3.685,2.211" d="
		M145.754,190.089c-5.687-11.037-9.062-22.574-6.839-34.109c3.048-15.57,11.205-22.656,21.339-22.16
		c12.521,0.576,20.431,8.98,22.655,25.541c1.565,11.451-1.646,21.832-8.732,30.975"/>
	<path fill="none" stroke="#000000" stroke-width="0.737" stroke-miterlimit="10" stroke-dasharray="3.685,2.211" d="
		M139.245,190.089c-8.568-12.77-10.462-26.527-6.262-40.699c4.366-14.908,13.924-23.645,27.271-23.809
		c14.499-0.248,24.552,8.814,27.435,27.848c2.144,13.346-1.151,25.457-7.58,36.66"/>
	<path fill="none" stroke="#000000" stroke-width="0.737" stroke-miterlimit="10" stroke-dasharray="3.685,2.211" d="
		M132.984,190.585c-9.146-13.76-12.439-28.916-7.991-44.82c5.107-18.043,17.714-27.6,34.933-28.751
		c14.17-0.908,24.551,7.25,30.319,21.007c7.411,17.631,5.106,35.428-4.201,52.564"/>
	<path fill="none" stroke="#000000" stroke-width="0.5" stroke-miterlimit="10" d="M159.512,129.783
		c2.472,0,4.449-1.978,4.449-4.367s-1.978-4.364-4.449-4.364c-2.389,0-4.366,1.976-4.366,4.364
		C155.146,127.805,157.123,129.783,159.512,129.783z"/>
	
		<line fill="none" stroke="#000000" stroke-width="0.5" stroke-miterlimit="10" x1="159.925" y1="116.765" x2="284.329" y2="116.765"/>
	
		<line fill="none" stroke="#000000" stroke-width="0.5" stroke-miterlimit="10" x1="161.654" y1="125.25" x2="283.175" y2="125.25"/>
	
		<line fill="none" stroke="#000000" stroke-width="0.5" stroke-miterlimit="10" x1="159.348" y1="133.819" x2="283.751" y2="133.819"/>
	
		<line fill="none" stroke="#000000" stroke-width="0.5" stroke-miterlimit="10" x1="159.925" y1="154.251" x2="283.751" y2="154.251"/>
	
		<line fill="none" stroke="#000000" stroke-width="0.5" stroke-miterlimit="10" x1="159.925" y1="183.253" x2="283.175" y2="183.253"/>
	
		<line fill="none" stroke="#000000" stroke-width="0.5" stroke-miterlimit="10" x1="155.393" y1="123.027" x2="51.421" y2="123.027"/>
	<g>
		<path d="M5.323,118.266h1.077v4.702c0,0.818-0.093,1.467-0.277,1.949c-0.187,0.479-0.521,0.871-1.001,1.174
			c-0.482,0.302-1.116,0.451-1.902,0.451c-0.763,0-1.386-0.133-1.871-0.395s-0.832-0.645-1.038-1.14
			c-0.207-0.501-0.31-1.179-0.31-2.041v-4.702h1.076v4.695c0,0.709,0.066,1.229,0.196,1.564c0.132,0.333,0.357,0.592,0.678,0.772
			c0.319,0.182,0.711,0.272,1.174,0.272c0.792,0,1.355-0.179,1.692-0.541c0.336-0.356,0.504-1.049,0.504-2.068L5.323,118.266
			L5.323,118.266z"/>
		<path d="M8.066,126.403v-5.894h0.894v0.826c0.186-0.287,0.433-0.521,0.74-0.696c0.308-0.172,0.656-0.263,1.049-0.263
			c0.436,0,0.794,0.093,1.072,0.271c0.279,0.182,0.479,0.436,0.593,0.76c0.466-0.688,1.072-1.029,1.819-1.029
			c0.584,0,1.035,0.16,1.35,0.484s0.473,0.822,0.473,1.497v4.048h-0.994v-3.715c0-0.4-0.031-0.688-0.098-0.861
			c-0.064-0.178-0.181-0.315-0.353-0.426c-0.171-0.106-0.369-0.16-0.6-0.16c-0.414,0-0.758,0.137-1.032,0.412
			c-0.272,0.273-0.411,0.717-0.411,1.321v3.427h-1v-3.83c0-0.442-0.082-0.775-0.243-1c-0.162-0.222-0.43-0.332-0.801-0.332
			c-0.28,0-0.541,0.07-0.779,0.224c-0.238,0.147-0.412,0.36-0.521,0.646c-0.106,0.286-0.161,0.697-0.161,1.233v3.058L8.066,126.403
			L8.066,126.403z"/>
		<path d="M18.458,126.403h-0.928v-8.138h0.999v2.902c0.424-0.528,0.961-0.791,1.616-0.791c0.363,0,0.706,0.072,1.03,0.218
			c0.323,0.146,0.59,0.354,0.798,0.616c0.21,0.265,0.373,0.586,0.493,0.957c0.119,0.375,0.177,0.774,0.177,1.201
			c0,1.012-0.25,1.789-0.749,2.344c-0.5,0.55-1.098,0.826-1.799,0.826c-0.696,0-1.242-0.291-1.637-0.871L18.458,126.403
			L18.458,126.403z M18.446,123.412c0,0.707,0.097,1.217,0.288,1.535c0.315,0.512,0.74,0.771,1.277,0.771
			c0.436,0,0.813-0.189,1.133-0.569c0.318-0.38,0.478-0.945,0.478-1.695c0-0.771-0.152-1.34-0.458-1.703
			c-0.306-0.366-0.676-0.551-1.107-0.551c-0.436,0-0.812,0.19-1.132,0.57C18.606,122.146,18.446,122.693,18.446,123.412z"/>
		<path d="M23.864,119.416v-1.151h0.999v1.151H23.864z M23.864,126.403v-5.894h0.999v5.894H23.864z"/>
		<path d="M26.362,126.403v-8.138h0.999v8.138H26.362z"/>
		<path d="M28.916,119.416v-1.151h1v1.151H28.916z M28.916,126.403v-5.894h1v5.894H28.916z"/>
		<path d="M35.285,124.244l0.981,0.129c-0.106,0.677-0.382,1.209-0.825,1.591c-0.441,0.382-0.984,0.573-1.629,0.573
			c-0.807,0-1.456-0.264-1.946-0.791c-0.491-0.526-0.736-1.285-0.736-2.266c0-0.638,0.105-1.193,0.315-1.672
			c0.213-0.477,0.532-0.836,0.964-1.075c0.432-0.237,0.9-0.356,1.407-0.356c0.641,0,1.163,0.16,1.571,0.483
			c0.406,0.324,0.667,0.785,0.782,1.382l-0.971,0.149c-0.094-0.396-0.258-0.692-0.491-0.894c-0.236-0.201-0.521-0.301-0.854-0.301
			c-0.504,0-0.912,0.182-1.227,0.541c-0.315,0.359-0.473,0.932-0.473,1.713c0,0.793,0.151,1.366,0.456,1.729
			c0.304,0.357,0.698,0.539,1.188,0.539c0.394,0,0.721-0.121,0.983-0.362C35.048,125.113,35.213,124.744,35.285,124.244z"/>
		<path d="M40.985,126.403v-0.864c-0.458,0.666-1.083,0.998-1.871,0.998c-0.347,0-0.672-0.065-0.975-0.197
			c-0.302-0.135-0.525-0.305-0.672-0.504c-0.146-0.2-0.249-0.448-0.308-0.739c-0.042-0.196-0.062-0.507-0.062-0.935v-3.649h0.999
			v3.269c0,0.521,0.021,0.873,0.062,1.055c0.062,0.264,0.194,0.47,0.398,0.619c0.205,0.149,0.456,0.224,0.755,0.224
			s0.581-0.076,0.846-0.229c0.261-0.151,0.447-0.361,0.558-0.625c0.109-0.268,0.163-0.65,0.163-1.151v-3.16h1v5.894h-0.895V126.403z
			"/>
		<path d="M43.044,124.645l0.989-0.155c0.055,0.396,0.211,0.698,0.463,0.91c0.252,0.213,0.607,0.315,1.062,0.315
			c0.459,0,0.8-0.095,1.022-0.279c0.221-0.188,0.333-0.405,0.333-0.659c0-0.226-0.101-0.402-0.295-0.531
			c-0.138-0.09-0.478-0.201-1.021-0.34c-0.732-0.187-1.241-0.345-1.523-0.48c-0.284-0.135-0.497-0.321-0.646-0.561
			c-0.146-0.24-0.219-0.504-0.219-0.791c0-0.263,0.061-0.504,0.181-0.729c0.12-0.224,0.285-0.411,0.492-0.56
			c0.155-0.113,0.368-0.211,0.635-0.291c0.27-0.078,0.557-0.117,0.862-0.117c0.463,0,0.87,0.063,1.219,0.197
			c0.351,0.135,0.608,0.312,0.774,0.541c0.167,0.229,0.281,0.532,0.344,0.912l-0.977,0.135c-0.046-0.303-0.174-0.539-0.387-0.711
			c-0.213-0.168-0.514-0.254-0.9-0.254c-0.459,0-0.788,0.074-0.983,0.228c-0.196,0.151-0.294,0.331-0.294,0.534
			c0,0.13,0.041,0.246,0.123,0.349c0.081,0.108,0.209,0.196,0.383,0.269c0.101,0.035,0.395,0.121,0.882,0.256
			c0.708,0.188,1.2,0.342,1.479,0.461c0.278,0.119,0.5,0.296,0.658,0.525c0.157,0.23,0.237,0.514,0.237,0.854
			c0,0.333-0.097,0.646-0.292,0.94c-0.192,0.295-0.475,0.522-0.841,0.685c-0.365,0.161-0.781,0.241-1.244,0.241
			c-0.766,0-1.35-0.158-1.751-0.479C43.412,125.742,43.156,125.271,43.044,124.645z"/>
	</g>
	<g>
		<path d="M292.31,117.147v0.771h-4.326c-0.006-0.19,0.025-0.379,0.095-0.559c0.11-0.293,0.286-0.583,0.528-0.869
			c0.242-0.285,0.595-0.617,1.052-0.992c0.711-0.582,1.19-1.045,1.442-1.385c0.248-0.343,0.375-0.664,0.375-0.968
			c0-0.319-0.115-0.586-0.342-0.807c-0.229-0.217-0.525-0.329-0.894-0.329c-0.387,0-0.692,0.118-0.928,0.35
			c-0.231,0.23-0.352,0.552-0.354,0.964l-0.826-0.085c0.055-0.617,0.27-1.086,0.639-1.408s0.865-0.485,1.486-0.485
			c0.629,0,1.123,0.174,1.492,0.523c0.364,0.35,0.549,0.782,0.549,1.295c0,0.263-0.055,0.52-0.162,0.774
			c-0.107,0.252-0.283,0.521-0.533,0.798c-0.248,0.281-0.66,0.663-1.237,1.155c-0.482,0.404-0.791,0.679-0.933,0.822
			c-0.137,0.146-0.25,0.289-0.338,0.436L292.31,117.147L292.31,117.147L292.31,117.147z"/>
		<path d="M295.747,117.917v-1.566h-2.84v-0.736l2.985-4.242h0.656v4.242h0.885v0.736h-0.885v1.566H295.747z M295.747,115.613
			v-2.952l-2.05,2.952H295.747z"/>
		<path d="M301.898,117.917l-1.451-4.74h0.83l0.754,2.738l0.281,1.019c0.013-0.051,0.094-0.375,0.244-0.978l0.756-2.777h0.826
			l0.709,2.75l0.236,0.904l0.272-0.914l0.812-2.741h0.781l-1.48,4.741h-0.834l-0.756-2.838l-0.185-0.808l-0.959,3.647h-0.838v-0.006
			l0,0V117.917z"/>
		<path d="M310.872,116.391l0.832,0.104c-0.134,0.486-0.377,0.861-0.729,1.131c-0.354,0.268-0.807,0.398-1.358,0.398
			c-0.691,0-1.244-0.212-1.648-0.639c-0.406-0.43-0.609-1.026-0.609-1.801c0-0.795,0.203-1.413,0.617-1.855
			c0.408-0.44,0.943-0.66,1.598-0.66c0.636,0,1.15,0.214,1.554,0.646c0.401,0.432,0.604,1.039,0.604,1.82
			c0,0.049-0.002,0.121-0.006,0.217h-3.537c0.031,0.521,0.179,0.92,0.443,1.195c0.264,0.277,0.596,0.416,0.99,0.416
			c0.295,0,0.547-0.076,0.754-0.231C310.585,116.977,310.747,116.731,310.872,116.391z M308.234,115.093h2.646
			c-0.035-0.4-0.137-0.7-0.305-0.898c-0.257-0.309-0.589-0.465-0.994-0.465c-0.369,0-0.681,0.125-0.933,0.371
			C308.4,114.346,308.259,114.679,308.234,115.093z"/>
		<path d="M315.958,116.391l0.83,0.104c-0.132,0.486-0.373,0.861-0.728,1.131c-0.356,0.268-0.807,0.398-1.356,0.398
			c-0.695,0-1.246-0.212-1.65-0.639c-0.404-0.43-0.609-1.026-0.609-1.801c0-0.795,0.205-1.413,0.617-1.855
			c0.408-0.44,0.941-0.66,1.599-0.66c0.633,0,1.151,0.214,1.553,0.646c0.402,0.432,0.604,1.039,0.604,1.82
			c0,0.049-0.002,0.121-0.006,0.217h-3.537c0.029,0.521,0.179,0.92,0.441,1.195c0.266,0.277,0.598,0.416,0.994,0.416
			c0.293,0,0.545-0.076,0.752-0.231C315.671,116.977,315.835,116.731,315.958,116.391z M313.32,115.093h2.648
			c-0.035-0.4-0.139-0.7-0.305-0.898c-0.256-0.309-0.588-0.465-0.996-0.465c-0.369,0-0.679,0.125-0.931,0.371
			C313.486,114.349,313.347,114.679,313.32,115.093z"/>
		<path d="M317.802,117.917v-6.545h0.805v3.731l1.9-1.927h1.041l-1.812,1.76l1.994,2.979h-0.99l-1.565-2.424l-0.568,0.547v1.881
			L317.802,117.917L317.802,117.917z"/>
		<path d="M322.048,116.503l0.795-0.125c0.045,0.318,0.166,0.562,0.373,0.731c0.203,0.171,0.488,0.257,0.854,0.257
			c0.369,0,0.646-0.074,0.822-0.226c0.178-0.149,0.269-0.326,0.269-0.528c0-0.182-0.078-0.324-0.236-0.43
			c-0.109-0.072-0.383-0.164-0.822-0.273c-0.59-0.146-0.996-0.275-1.225-0.387c-0.228-0.105-0.4-0.257-0.521-0.451
			c-0.116-0.191-0.176-0.404-0.176-0.637c0-0.21,0.049-0.404,0.146-0.586c0.096-0.182,0.229-0.33,0.395-0.451
			c0.125-0.091,0.295-0.168,0.512-0.232c0.216-0.066,0.447-0.097,0.693-0.097c0.373,0,0.699,0.055,0.98,0.161
			c0.28,0.107,0.487,0.252,0.62,0.438c0.136,0.183,0.228,0.427,0.277,0.731l-0.787,0.109c-0.035-0.243-0.139-0.435-0.309-0.571
			c-0.172-0.137-0.412-0.206-0.728-0.206c-0.368,0-0.633,0.062-0.791,0.185c-0.155,0.123-0.233,0.264-0.233,0.429
			c0,0.103,0.031,0.196,0.098,0.28c0.067,0.086,0.168,0.158,0.31,0.216c0.077,0.028,0.315,0.099,0.709,0.206
			c0.567,0.15,0.965,0.273,1.19,0.373c0.223,0.096,0.4,0.236,0.529,0.422c0.127,0.182,0.188,0.41,0.188,0.687
			c0,0.27-0.078,0.521-0.233,0.759c-0.156,0.235-0.381,0.42-0.676,0.547c-0.296,0.13-0.63,0.197-1,0.197
			c-0.617,0-1.087-0.129-1.408-0.388C322.343,117.386,322.138,117.006,322.048,116.503z"/>
	</g>
	<g>
		<path d="M292.31,127.363v0.771h-4.326c-0.006-0.193,0.025-0.377,0.095-0.558c0.11-0.293,0.286-0.586,0.528-0.871
			c0.242-0.287,0.595-0.614,1.052-0.99c0.711-0.586,1.19-1.047,1.442-1.387c0.248-0.344,0.375-0.662,0.375-0.97
			c0-0.317-0.115-0.586-0.342-0.807c-0.229-0.218-0.525-0.326-0.894-0.326c-0.387,0-0.692,0.116-0.928,0.349
			c-0.231,0.232-0.352,0.553-0.354,0.963l-0.826-0.084c0.055-0.617,0.27-1.084,0.639-1.405c0.369-0.324,0.865-0.485,1.486-0.485
			c0.629,0,1.123,0.172,1.492,0.523c0.364,0.349,0.549,0.779,0.549,1.296c0,0.262-0.055,0.519-0.162,0.771
			c-0.107,0.254-0.283,0.521-0.533,0.801c-0.248,0.281-0.66,0.664-1.237,1.153c-0.482,0.404-0.791,0.679-0.933,0.822
			c-0.137,0.146-0.25,0.291-0.338,0.435H292.31L292.31,127.363L292.31,127.363z"/>
		<path d="M297.396,127.363v0.771h-4.326c-0.008-0.193,0.023-0.377,0.095-0.558c0.108-0.293,0.285-0.586,0.526-0.871
			c0.244-0.287,0.597-0.614,1.054-0.99c0.711-0.586,1.19-1.047,1.442-1.387c0.25-0.344,0.375-0.662,0.375-0.97
			c0-0.317-0.115-0.586-0.342-0.807c-0.229-0.218-0.523-0.326-0.891-0.326c-0.388,0-0.695,0.116-0.931,0.349
			c-0.231,0.232-0.35,0.553-0.354,0.963l-0.824-0.084c0.055-0.617,0.266-1.084,0.637-1.405c0.371-0.324,0.867-0.485,1.488-0.485
			c0.627,0,1.123,0.172,1.49,0.523c0.367,0.349,0.549,0.779,0.549,1.296c0,0.262-0.053,0.519-0.16,0.771
			c-0.106,0.254-0.285,0.521-0.535,0.801c-0.248,0.281-0.66,0.664-1.237,1.153c-0.482,0.404-0.791,0.679-0.931,0.822
			c-0.137,0.146-0.252,0.291-0.34,0.435H297.396L297.396,127.363L297.396,127.363z"/>
		<path d="M301.898,128.133l-1.453-4.743h0.83l0.756,2.736l0.281,1.021c0.013-0.051,0.094-0.376,0.244-0.979l0.754-2.777h0.828
			l0.707,2.751l0.238,0.908l0.271-0.917l0.814-2.742h0.781l-1.482,4.745h-0.834l-0.754-2.84l-0.185-0.808l-0.959,3.647
			L301.898,128.133L301.898,128.133z"/>
		<path d="M310.872,126.607l0.832,0.105c-0.134,0.484-0.377,0.863-0.729,1.128c-0.354,0.268-0.807,0.401-1.358,0.401
			c-0.691,0-1.244-0.215-1.648-0.641c-0.406-0.43-0.609-1.027-0.609-1.797c0-0.798,0.203-1.417,0.617-1.857
			c0.408-0.441,0.943-0.662,1.598-0.662c0.636,0,1.15,0.215,1.554,0.646c0.402,0.432,0.604,1.039,0.604,1.822
			c0,0.051-0.002,0.119-0.006,0.216h-3.537c0.031,0.521,0.179,0.921,0.443,1.198c0.264,0.275,0.596,0.414,0.99,0.414
			c0.295,0,0.547-0.078,0.754-0.231C310.585,127.194,310.747,126.947,310.872,126.607z M308.234,125.309h2.646
			c-0.035-0.399-0.137-0.696-0.305-0.897c-0.257-0.31-0.589-0.463-0.994-0.463c-0.369,0-0.681,0.123-0.933,0.367
			C308.4,124.564,308.259,124.895,308.234,125.309z"/>
		<path d="M315.958,126.607l0.83,0.105c-0.132,0.484-0.373,0.863-0.728,1.128c-0.356,0.268-0.807,0.401-1.356,0.401
			c-0.695,0-1.246-0.215-1.65-0.641c-0.404-0.43-0.609-1.027-0.609-1.797c0-0.798,0.205-1.417,0.617-1.857
			c0.408-0.441,0.941-0.662,1.599-0.662c0.633,0,1.151,0.215,1.553,0.646c0.402,0.432,0.604,1.039,0.604,1.822
			c0,0.051-0.002,0.119-0.006,0.216h-3.537c0.029,0.521,0.179,0.921,0.441,1.198c0.266,0.275,0.598,0.414,0.994,0.414
			c0.293,0,0.545-0.078,0.752-0.231C315.671,127.194,315.835,126.947,315.958,126.607z M313.32,125.309h2.648
			c-0.035-0.399-0.139-0.696-0.305-0.897c-0.256-0.31-0.588-0.463-0.996-0.463c-0.369,0-0.679,0.123-0.931,0.367
			C313.486,124.564,313.347,124.895,313.32,125.309z"/>
		<path d="M317.802,128.133v-6.546h0.805v3.731l1.902-1.929h1.041l-1.814,1.761l1.996,2.982h-0.989l-1.568-2.423l-0.566,0.543v1.88
			H317.802L317.802,128.133z"/>
		<path d="M322.048,126.719l0.795-0.126c0.045,0.32,0.166,0.564,0.373,0.736c0.203,0.168,0.488,0.254,0.854,0.254
			c0.369,0,0.646-0.076,0.822-0.226c0.178-0.149,0.269-0.325,0.269-0.53c0-0.182-0.078-0.324-0.236-0.43
			c-0.109-0.07-0.383-0.16-0.822-0.271c-0.59-0.147-0.996-0.277-1.225-0.387c-0.228-0.107-0.4-0.258-0.521-0.449
			c-0.116-0.192-0.176-0.406-0.176-0.64c0-0.21,0.049-0.403,0.146-0.586c0.096-0.181,0.229-0.331,0.395-0.448
			c0.125-0.093,0.295-0.17,0.512-0.234c0.216-0.065,0.447-0.098,0.693-0.098c0.373,0,0.699,0.055,0.98,0.162
			c0.28,0.106,0.487,0.252,0.62,0.436c0.136,0.184,0.228,0.428,0.277,0.734l-0.787,0.107c-0.035-0.243-0.139-0.434-0.309-0.572
			c-0.172-0.136-0.412-0.203-0.728-0.203c-0.368,0-0.633,0.062-0.791,0.183c-0.155,0.122-0.233,0.264-0.233,0.429
			c0,0.104,0.031,0.199,0.098,0.281c0.066,0.085,0.168,0.158,0.31,0.215c0.077,0.031,0.315,0.1,0.709,0.206
			c0.567,0.151,0.965,0.274,1.19,0.373c0.223,0.096,0.4,0.235,0.529,0.422c0.127,0.185,0.188,0.411,0.188,0.687
			c0,0.268-0.078,0.521-0.233,0.758c-0.156,0.236-0.381,0.42-0.676,0.551c-0.296,0.127-0.63,0.193-1,0.193
			c-0.617,0-1.087-0.127-1.408-0.386C322.342,127.602,322.138,127.221,322.048,126.719z"/>
	</g>
	<g>
		<path d="M292.31,138.156v0.772h-4.326c-0.006-0.195,0.025-0.381,0.095-0.56c0.11-0.295,0.286-0.586,0.528-0.873
			c0.242-0.285,0.595-0.614,1.052-0.992c0.711-0.581,1.19-1.045,1.442-1.385c0.248-0.34,0.375-0.664,0.375-0.965
			c0-0.32-0.115-0.592-0.342-0.809c-0.229-0.219-0.525-0.328-0.894-0.328c-0.387,0-0.692,0.115-0.928,0.348
			c-0.231,0.232-0.352,0.553-0.354,0.965l-0.826-0.082c0.055-0.616,0.27-1.088,0.639-1.409c0.369-0.322,0.865-0.484,1.486-0.484
			c0.629,0,1.123,0.177,1.492,0.522c0.364,0.349,0.549,0.781,0.549,1.296c0,0.264-0.055,0.52-0.162,0.772
			c-0.107,0.254-0.283,0.519-0.533,0.799c-0.248,0.279-0.66,0.664-1.237,1.152c-0.482,0.406-0.791,0.682-0.933,0.824
			c-0.137,0.145-0.25,0.291-0.338,0.436H292.31L292.31,138.156L292.31,138.156z"/>
		<path d="M293.171,135.699c0-0.773,0.08-1.396,0.24-1.867c0.157-0.474,0.395-0.836,0.709-1.092
			c0.312-0.257,0.709-0.386,1.186-0.386c0.353,0,0.658,0.074,0.924,0.213c0.265,0.142,0.482,0.347,0.656,0.613
			c0.172,0.267,0.309,0.592,0.406,0.976c0.098,0.381,0.146,0.897,0.146,1.545c0,0.77-0.078,1.389-0.235,1.858
			c-0.158,0.476-0.394,0.838-0.709,1.097c-0.312,0.26-0.711,0.387-1.188,0.387c-0.631,0-1.127-0.228-1.486-0.68
			C293.388,137.815,293.171,136.928,293.171,135.699z M293.997,135.699c0,1.075,0.125,1.791,0.379,2.146
			c0.25,0.356,0.561,0.532,0.93,0.532c0.367,0,0.678-0.176,0.93-0.534c0.252-0.355,0.379-1.072,0.379-2.146
			c0-1.074-0.127-1.789-0.379-2.146c-0.252-0.354-0.563-0.531-0.938-0.531c-0.369,0-0.664,0.154-0.885,0.472
			C294.136,133.887,293.997,134.625,293.997,135.699z"/>
		<path d="M301.898,138.928l-1.453-4.746h0.83l0.756,2.74l0.281,1.018c0.013-0.049,0.094-0.375,0.244-0.977l0.754-2.781h0.828
			l0.707,2.752l0.238,0.908l0.271-0.918l0.814-2.742h0.781l-1.482,4.746h-0.834l-0.754-2.843l-0.185-0.807l-0.959,3.648
			L301.898,138.928L301.898,138.928z"/>
		<path d="M310.872,137.399l0.832,0.104c-0.134,0.484-0.377,0.861-0.729,1.131c-0.354,0.266-0.807,0.398-1.358,0.398
			c-0.691,0-1.244-0.211-1.648-0.64c-0.406-0.428-0.609-1.026-0.609-1.799c0-0.797,0.203-1.416,0.617-1.856
			c0.408-0.439,0.943-0.662,1.598-0.662c0.636,0,1.15,0.217,1.554,0.647c0.402,0.431,0.604,1.039,0.604,1.821
			c0,0.05-0.002,0.119-0.006,0.216h-3.537c0.031,0.521,0.179,0.922,0.443,1.198c0.264,0.275,0.596,0.414,0.99,0.414
			c0.295,0,0.547-0.075,0.754-0.231C310.585,137.988,310.747,137.74,310.872,137.399z M308.234,136.1h2.646
			c-0.035-0.399-0.137-0.697-0.305-0.896c-0.257-0.312-0.589-0.465-0.994-0.465c-0.369,0-0.681,0.123-0.933,0.37
			C308.4,135.356,308.259,135.686,308.234,136.1z"/>
		<path d="M315.958,137.399l0.83,0.104c-0.132,0.484-0.373,0.861-0.728,1.131c-0.356,0.266-0.807,0.398-1.356,0.398
			c-0.695,0-1.246-0.211-1.65-0.64c-0.404-0.428-0.609-1.026-0.609-1.799c0-0.797,0.205-1.416,0.617-1.856
			c0.408-0.439,0.941-0.662,1.599-0.662c0.633,0,1.151,0.217,1.553,0.647c0.402,0.433,0.604,1.039,0.604,1.821
			c0,0.05-0.002,0.119-0.006,0.216h-3.537c0.029,0.521,0.179,0.922,0.441,1.198c0.264,0.275,0.598,0.414,0.994,0.414
			c0.293,0,0.545-0.075,0.752-0.231C315.671,137.988,315.835,137.74,315.958,137.399z M313.32,136.1h2.648
			c-0.035-0.399-0.139-0.697-0.305-0.896c-0.256-0.312-0.588-0.465-0.996-0.465c-0.369,0-0.679,0.123-0.931,0.37
			C313.486,135.356,313.347,135.686,313.32,136.1z"/>
		<path d="M317.802,138.928v-6.547h0.805v3.731l1.902-1.932h1.041l-1.814,1.76l1.996,2.984h-0.989l-1.568-2.426l-0.566,0.545v1.883
			L317.802,138.928L317.802,138.928z"/>
		<path d="M322.048,137.51l0.795-0.123c0.045,0.317,0.166,0.562,0.373,0.733c0.203,0.166,0.488,0.254,0.854,0.254
			c0.369,0,0.646-0.073,0.822-0.223c0.178-0.152,0.269-0.326,0.269-0.533c0-0.178-0.078-0.319-0.236-0.428
			c-0.109-0.072-0.383-0.162-0.822-0.271c-0.59-0.146-0.996-0.276-1.225-0.387c-0.228-0.108-0.4-0.26-0.521-0.451
			c-0.116-0.19-0.176-0.403-0.176-0.637c0-0.213,0.049-0.406,0.146-0.588c0.096-0.18,0.229-0.328,0.395-0.449
			c0.125-0.092,0.295-0.17,0.512-0.233c0.216-0.062,0.447-0.097,0.693-0.097c0.373,0,0.699,0.054,0.98,0.16
			c0.28,0.109,0.487,0.254,0.62,0.438c0.136,0.182,0.228,0.428,0.277,0.733l-0.787,0.107c-0.035-0.244-0.139-0.434-0.309-0.572
			c-0.172-0.137-0.412-0.205-0.728-0.205c-0.368,0-0.633,0.062-0.791,0.185c-0.155,0.12-0.233,0.262-0.233,0.43
			c0,0.104,0.031,0.197,0.098,0.281c0.066,0.086,0.168,0.155,0.31,0.215c0.077,0.028,0.315,0.097,0.709,0.205
			c0.567,0.151,0.965,0.274,1.19,0.371c0.223,0.1,0.4,0.239,0.529,0.424c0.127,0.185,0.188,0.412,0.188,0.688
			c0,0.267-0.078,0.521-0.233,0.759c-0.156,0.233-0.381,0.418-0.676,0.547c-0.296,0.131-0.63,0.194-1,0.194
			c-0.617,0-1.087-0.129-1.408-0.385C322.343,138.393,322.138,138.016,322.048,137.51z"/>
	</g>
	<g>
		<path d="M291.113,156.558h-0.803v-5.123c-0.197,0.186-0.449,0.371-0.762,0.555c-0.314,0.186-0.598,0.322-0.848,0.416v-0.779
			c0.45-0.211,0.842-0.469,1.18-0.768c0.336-0.301,0.574-0.592,0.715-0.875h0.518V156.558z"/>
		<path d="M297.343,151.617l-0.801,0.062c-0.072-0.316-0.172-0.545-0.304-0.689c-0.219-0.227-0.485-0.344-0.803-0.344
			c-0.26,0-0.481,0.072-0.676,0.215c-0.254,0.186-0.453,0.453-0.6,0.809c-0.146,0.355-0.222,0.859-0.228,1.516
			c0.193-0.295,0.43-0.514,0.709-0.656c0.279-0.145,0.572-0.215,0.883-0.215c0.535,0,0.99,0.195,1.367,0.592
			c0.377,0.395,0.566,0.902,0.566,1.529c0,0.408-0.09,0.791-0.267,1.143c-0.178,0.355-0.422,0.625-0.729,0.812
			c-0.312,0.188-0.662,0.281-1.055,0.281c-0.668,0-1.216-0.246-1.64-0.74c-0.422-0.494-0.633-1.305-0.633-2.436
			c0-1.264,0.232-2.184,0.699-2.76c0.408-0.5,0.957-0.75,1.647-0.75c0.515,0,0.937,0.146,1.265,0.434
			C297.079,150.708,297.277,151.107,297.343,151.617z M294.062,154.439c0,0.277,0.06,0.543,0.176,0.793
			c0.115,0.252,0.281,0.447,0.492,0.578c0.213,0.133,0.435,0.199,0.666,0.199c0.34,0,0.633-0.139,0.875-0.41
			c0.244-0.273,0.367-0.646,0.367-1.117c0-0.453-0.119-0.812-0.361-1.07c-0.241-0.262-0.545-0.393-0.911-0.393
			c-0.361,0-0.671,0.131-0.925,0.393C294.187,153.675,294.062,154.013,294.062,154.439z"/>
		<path d="M301.898,156.558l-1.453-4.742h0.83l0.756,2.736l0.281,1.02c0.013-0.049,0.094-0.375,0.244-0.977l0.754-2.777h0.828
			l0.707,2.75l0.238,0.906l0.271-0.916l0.814-2.742h0.781l-1.482,4.744h-0.834l-0.754-2.842l-0.185-0.809l-0.959,3.648H301.898
			L301.898,156.558z"/>
		<path d="M310.872,155.031l0.832,0.105c-0.134,0.482-0.377,0.857-0.729,1.129c-0.354,0.266-0.807,0.4-1.358,0.4
			c-0.691,0-1.244-0.215-1.648-0.643c-0.406-0.428-0.609-1.025-0.609-1.797c0-0.797,0.203-1.416,0.617-1.857
			c0.408-0.439,0.943-0.66,1.598-0.66c0.636,0,1.15,0.217,1.554,0.646c0.401,0.432,0.604,1.039,0.604,1.824
			c0,0.047-0.002,0.119-0.006,0.215h-3.537c0.031,0.52,0.179,0.92,0.443,1.197c0.264,0.273,0.596,0.412,0.99,0.412
			c0.295,0,0.547-0.074,0.754-0.23C310.585,155.619,310.747,155.371,310.872,155.031z M308.234,153.732h2.646
			c-0.035-0.4-0.137-0.697-0.305-0.896c-0.257-0.311-0.589-0.465-0.994-0.465c-0.369,0-0.681,0.123-0.933,0.371
			C308.4,152.988,308.259,153.32,308.234,153.732z"/>
		<path d="M315.958,155.031l0.83,0.105c-0.132,0.482-0.373,0.857-0.728,1.129c-0.356,0.266-0.807,0.4-1.356,0.4
			c-0.695,0-1.246-0.215-1.65-0.643s-0.609-1.025-0.609-1.797c0-0.797,0.205-1.416,0.617-1.857c0.408-0.439,0.941-0.66,1.599-0.66
			c0.633,0,1.151,0.217,1.553,0.646c0.402,0.432,0.604,1.039,0.604,1.824c0,0.047-0.002,0.119-0.006,0.215h-3.537
			c0.029,0.52,0.179,0.92,0.441,1.197c0.266,0.273,0.598,0.412,0.994,0.412c0.293,0,0.545-0.074,0.752-0.23
			C315.671,155.619,315.835,155.371,315.958,155.031z M313.32,153.732h2.648c-0.035-0.4-0.139-0.697-0.305-0.896
			c-0.256-0.311-0.588-0.465-0.996-0.465c-0.369,0-0.679,0.123-0.931,0.371C313.486,152.988,313.347,153.32,313.32,153.732z"/>
		<path d="M317.802,156.558v-6.547h0.805v3.73l1.902-1.928h1.041l-1.814,1.758l1.996,2.984h-0.989l-1.568-2.426l-0.566,0.545v1.881
			h-0.806V156.558z"/>
		<path d="M322.048,155.142l0.795-0.123c0.045,0.316,0.166,0.561,0.373,0.73c0.203,0.17,0.488,0.258,0.854,0.258
			c0.369,0,0.646-0.074,0.822-0.227c0.177-0.15,0.269-0.326,0.269-0.527c0-0.184-0.078-0.322-0.236-0.43
			c-0.109-0.074-0.383-0.164-0.822-0.271c-0.59-0.148-0.996-0.279-1.225-0.391c-0.228-0.105-0.4-0.256-0.521-0.449
			c-0.116-0.189-0.176-0.404-0.176-0.637c0-0.213,0.049-0.406,0.146-0.588c0.096-0.182,0.229-0.33,0.395-0.449
			c0.125-0.092,0.295-0.17,0.512-0.232c0.216-0.064,0.447-0.098,0.693-0.098c0.373,0,0.699,0.055,0.98,0.16
			c0.28,0.107,0.487,0.252,0.62,0.438c0.136,0.184,0.228,0.428,0.277,0.734l-0.787,0.107c-0.035-0.244-0.139-0.434-0.309-0.572
			c-0.172-0.137-0.412-0.203-0.728-0.203c-0.368,0-0.633,0.061-0.791,0.182c-0.155,0.123-0.233,0.264-0.233,0.43
			c0,0.105,0.031,0.199,0.098,0.281c0.066,0.086,0.168,0.158,0.31,0.215c0.077,0.029,0.315,0.098,0.709,0.205
			c0.567,0.15,0.965,0.273,1.19,0.373c0.223,0.098,0.4,0.236,0.529,0.424c0.127,0.182,0.188,0.41,0.188,0.688
			c0,0.266-0.078,0.521-0.233,0.758c-0.156,0.236-0.381,0.418-0.676,0.547c-0.296,0.131-0.63,0.195-1,0.195
			c-0.617,0-1.087-0.127-1.408-0.385C322.343,156.025,322.138,155.648,322.048,155.142z"/>
	</g>
	<g>
		<path d="M291.113,186.054h-0.803v-5.123c-0.197,0.186-0.449,0.369-0.762,0.555c-0.314,0.186-0.598,0.322-0.848,0.412v-0.775
			c0.45-0.211,0.842-0.469,1.18-0.768c0.336-0.301,0.574-0.592,0.715-0.877h0.518V186.054z"/>
		<path d="M297.396,185.281v0.773h-4.326c-0.008-0.195,0.023-0.381,0.095-0.561c0.108-0.293,0.285-0.584,0.526-0.871
			c0.244-0.285,0.597-0.613,1.054-0.99c0.711-0.584,1.19-1.047,1.442-1.387c0.25-0.342,0.375-0.664,0.375-0.969
			c0-0.318-0.115-0.586-0.342-0.807c-0.229-0.219-0.523-0.328-0.891-0.328c-0.388,0-0.695,0.117-0.931,0.35
			c-0.231,0.232-0.35,0.553-0.354,0.965l-0.824-0.084c0.055-0.615,0.266-1.088,0.637-1.406c0.371-0.322,0.867-0.486,1.488-0.486
			c0.627,0,1.123,0.176,1.49,0.521c0.367,0.352,0.549,0.779,0.549,1.299c0,0.262-0.053,0.518-0.16,0.77
			c-0.106,0.254-0.285,0.521-0.535,0.799c-0.248,0.281-0.66,0.664-1.237,1.154c-0.482,0.404-0.791,0.678-0.931,0.824
			c-0.137,0.143-0.252,0.287-0.34,0.434H297.396L297.396,185.281L297.396,185.281z"/>
		<path d="M301.898,186.054l-1.453-4.744h0.83l0.756,2.738l0.281,1.02c0.013-0.051,0.094-0.377,0.244-0.979l0.754-2.779h0.828
			l0.707,2.752l0.238,0.906l0.271-0.916l0.814-2.742h0.781l-1.482,4.744h-0.834l-0.754-2.844l-0.185-0.807l-0.959,3.65H301.898
			L301.898,186.054z"/>
		<path d="M310.872,184.527l0.832,0.104c-0.134,0.484-0.377,0.861-0.729,1.129c-0.354,0.268-0.807,0.402-1.358,0.402
			c-0.691,0-1.244-0.215-1.648-0.643c-0.406-0.426-0.609-1.025-0.609-1.797c0-0.797,0.203-1.416,0.617-1.857
			c0.408-0.439,0.943-0.66,1.598-0.66c0.636,0,1.15,0.213,1.554,0.646c0.401,0.432,0.604,1.039,0.604,1.822
			c0,0.049-0.002,0.117-0.006,0.215h-3.537c0.031,0.52,0.179,0.92,0.443,1.195c0.264,0.277,0.596,0.414,0.99,0.414
			c0.295,0,0.547-0.074,0.754-0.229C310.585,185.113,310.747,184.867,310.872,184.527z M308.234,183.226h2.646
			c-0.035-0.4-0.137-0.697-0.305-0.896c-0.257-0.311-0.589-0.465-0.994-0.465c-0.369,0-0.681,0.123-0.933,0.371
			C308.4,182.482,308.259,182.812,308.234,183.226z"/>
		<path d="M315.958,184.527l0.83,0.104c-0.132,0.484-0.373,0.861-0.728,1.129c-0.356,0.268-0.807,0.402-1.356,0.402
			c-0.695,0-1.246-0.215-1.65-0.643c-0.404-0.426-0.609-1.025-0.609-1.797c0-0.797,0.205-1.416,0.617-1.857
			c0.408-0.439,0.941-0.66,1.599-0.66c0.633,0,1.151,0.213,1.553,0.646c0.402,0.432,0.604,1.039,0.604,1.822
			c0,0.049-0.002,0.117-0.006,0.215h-3.537c0.029,0.52,0.179,0.92,0.441,1.195c0.266,0.277,0.598,0.414,0.994,0.414
			c0.293,0,0.545-0.074,0.752-0.229C315.671,185.113,315.835,184.867,315.958,184.527z M313.32,183.226h2.648
			c-0.035-0.4-0.139-0.697-0.305-0.896c-0.256-0.311-0.588-0.465-0.996-0.465c-0.369,0-0.679,0.123-0.931,0.371
			S313.347,182.812,313.32,183.226z"/>
		<path d="M317.802,186.054v-6.547h0.805v3.73l1.902-1.93h1.041l-1.814,1.76l1.996,2.98h-0.989l-1.568-2.422l-0.566,0.545v1.881
			h-0.806V186.054z"/>
		<path d="M322.048,184.636l0.795-0.123c0.045,0.316,0.166,0.562,0.373,0.732c0.203,0.166,0.488,0.254,0.854,0.254
			c0.369,0,0.646-0.072,0.822-0.227c0.178-0.148,0.269-0.326,0.269-0.527c0-0.182-0.078-0.322-0.236-0.428
			c-0.109-0.072-0.383-0.164-0.822-0.273c-0.59-0.148-0.996-0.275-1.225-0.387c-0.228-0.107-0.4-0.26-0.521-0.451
			c-0.116-0.189-0.176-0.402-0.176-0.637c0-0.213,0.049-0.406,0.146-0.588c0.096-0.18,0.229-0.328,0.395-0.449
			c0.125-0.092,0.295-0.17,0.512-0.232c0.216-0.064,0.447-0.098,0.693-0.098c0.373,0,0.699,0.055,0.98,0.16
			c0.28,0.107,0.487,0.252,0.62,0.438c0.136,0.184,0.228,0.43,0.277,0.734l-0.787,0.105c-0.035-0.242-0.139-0.434-0.309-0.57
			c-0.172-0.137-0.412-0.205-0.728-0.205c-0.368,0-0.633,0.062-0.791,0.186c-0.155,0.119-0.233,0.264-0.233,0.43
			c0,0.104,0.031,0.197,0.098,0.279c0.066,0.088,0.168,0.156,0.31,0.217c0.077,0.029,0.315,0.096,0.709,0.205
			c0.567,0.15,0.965,0.273,1.19,0.373c0.223,0.098,0.4,0.236,0.529,0.42c0.127,0.186,0.188,0.414,0.188,0.688
			c0,0.27-0.078,0.521-0.233,0.758c-0.156,0.236-0.381,0.422-0.676,0.551c-0.296,0.127-0.63,0.193-1,0.193
			c-0.617,0-1.087-0.127-1.408-0.385C322.343,185.519,322.138,185.142,322.048,184.636z"/>
	</g>
</g>
</svg>
