<?xml version="1.0" encoding="utf-8"?>
<!-- Generator: Adobe Illustrator 15.1.0, SVG Export Plug-In . SVG Version: 6.00 Build 0)  -->
<!DOCTYPE svg PUBLIC "-//W3C//DTD SVG 1.1//EN" "http://www.w3.org/Graphics/SVG/1.1/DTD/svg11.dtd">
<svg version="1.1" id="Layer_7" xmlns="http://www.w3.org/2000/svg" xmlns:xlink="http://www.w3.org/1999/xlink" x="0px" y="0px"
	 width="326.613px" height="194.964px" viewBox="2.586 1.443 326.613 194.964" enable-background="new 2.586 1.443 326.613 194.964"
	 xml:space="preserve">
<g>
	<g>
		<g>
			<g>
				<path d="M202.688,2.155c-0.043,4.188-0.974,8.41-1.722,12.514c-1.165,6.396-2.459,12.768-3.678,19.153
					c-2.597,13.599-5.213,27.379-5.729,41.246c-0.178,4.742-0.133,9.772,1.356,14.328c0.72,2.2,2.104,4.125,3.137,6.182
					c1.863,3.717,3.193,7.682,4.303,11.682c4.626,16.691,4.597,34.636,3.889,51.812c-0.505,12.244-1.755,24.428-2.827,36.631
					c-0.084,0.949,1.193,0.932,1.275,0c1.313-14.963,2.793-29.896,3.078-44.926c0.312-16.435-0.443-33.562-5.83-49.234
					c-1.813-5.275-5.437-9.918-6.525-15.384c-1.11-5.574-0.671-11.521-0.213-17.14c1.176-14.462,4.135-28.776,6.902-42.998
					c1.509-7.759,3.776-15.911,3.858-23.864C203.973,1.205,202.699,1.207,202.688,2.155L202.688,2.155z"/>
			</g>
		</g>
		<g>
			<g>
				<path d="M74.543,82.708C73.96,88.559,71.121,92.75,68.9,98.005c-1.709,4.044-2.914,8.296-3.9,12.568
					c-2.241,9.699-2.982,19.742-3.241,29.668c-0.481,18.551,1.405,37.01,3.026,55.459c0.082,0.932,1.359,0.949,1.275,0
					c-1.623-18.465-3.424-36.896-3.027-55.459c0.224-10.457,1.176-20.957,3.639-31.143c1.126-4.656,2.692-9.199,4.764-13.522
					c2.13-4.446,3.88-7.821,4.384-12.869C75.913,81.759,74.636,81.779,74.543,82.708L74.543,82.708z"/>
			</g>
		</g>
		<g>
			<g>
				<path d="M63.584,2.155c0.157,8.608,2.6,17.378,4.231,25.782c0.187,0.96,1.4,0.483,1.229-0.398
					c-1.604-8.264-4.03-16.923-4.185-25.384C64.842,1.208,63.567,1.204,63.584,2.155L63.584,2.155z"/>
			</g>
		</g>
	</g>
	<g>
		<g>
			<path d="M33.508,28.28c-0.004-1.742,0.295-4.76-0.929-6.2c-1.174-1.381-4.538,0.581-5.536,1.378
				c-4.45,3.554-4.531,11.289-4.66,16.408c-0.08,3.268,0.071,6.538,0.152,9.805c0.128,5.173-1.836,9.979-2.023,15.116
				c-0.075,2.053,2.055,2.801,3.738,2.648c2.464-0.225,3.562-2.508,3.738-4.678c0.077-0.95-1.199-0.935-1.275,0
				c-0.162,1.999-1.174,3.06-3.042,3.23c-2.85,0.26-1.582-4.56-1.292-6.004c0.576-2.872,1.342-5.596,1.455-8.539
				c0.148-3.846-0.232-7.725-0.175-11.578c0.065-4.369,0.372-9.042,2.396-12.995c1.046-2.043,2.883-3.318,5.146-3.602
				c1.34-0.168,1.029,4.084,1.031,5.011C32.235,29.228,33.51,29.228,33.508,28.28L33.508,28.28z"/>
		</g>
	</g>
	<g>
		<g>
			<path d="M24.539,59.731c-0.869-0.109-1.74-0.202-2.611-0.278c0.204,0.316,0.409,0.633,0.614,0.949
				c1.246-5.717,1.196-10.931,1.104-16.741c-0.052-3.268,0.041-6.537,0.435-9.783c0.166-1.366,0.465-2.705,0.814-4.034
				c0.511-1.948,3.287-0.651,4.551-0.399c0.857,0.171,1.135-1.288,0.339-1.446c-1.571-0.313-3.142-0.609-4.724-0.866
				c-0.285-0.046-0.606,0.038-0.721,0.345c-1.667,4.473-1.925,9.241-1.979,13.972c-0.074,6.403,0.332,12.219-1.049,18.554
				c-0.097,0.442,0.143,0.903,0.615,0.949c0.872,0.077,1.742,0.169,2.611,0.278C25.364,61.327,25.369,59.827,24.539,59.731
				L24.539,59.731z"/>
		</g>
	</g>
	<g>
		<g>
			<path d="M39.605,31.566c5.811,1.142,12.48,2.812,18.414,1.729c2.497-0.456,4.027-1.65,6.167-2.91
				c2.76-1.627,5.952-2.488,9.059-3.149c13.623-2.897,27.904-0.109,41.688-1.1c4.246-0.306,8.464-0.354,12.719-0.354
				c1.873,0,3.746,0,5.618,0c0.944,0,1.891,0,2.836,0c3.524,0,3.729,4.459,0.451,4.955c-3.822,0.578-8.013,0.225-11.872,0.351
				c-3.202,0.104-6.034,0.359-9.183,0.84c-2.415,0.369-4.65,1.283-7.062,1.702c-1.185,0.206-1.157,2.027-1.146,2.841
				c0.006,0.401,0.245,0.694,0.639,0.75c9.68,1.377,19.717,1.041,29.468,0.693c3.228-0.115,6.485-0.26,9.703,0.094
				c1.691,0.187,4.248,1.042,2.09,4.293c-1.074,1.617-3.108,1.674-4.779,1.698c-2.939,0.04-5.883,0.41-8.801,0.741
				c-5.344,0.606-10.632,1.003-15.999,1.292c-2.743,0.148-5.391,1.062-8.151,1.202c-0.733,0.037-1.47,0.756-1.82,1.344
				c-2.045,3.423,3.599,2.828,5.641,2.853c9.579,0.118,19.139,0.267,28.715,0.087c3.256-0.061,6.751-0.172,9.905,0.753
				c1.533,0.45,2.475,2.573,2.233,4.078c-0.235,1.466-2.185,2.119-3.364,2.503c-4.917,1.601-10.608,0.955-15.693,0.819
				c-3.296-0.088-25.759-2.082-25.759,2.223c0,3.044,11.683,2.819,13.383,2.893c3.146,0.136,6.293,0.099,9.438,0.21
				c2.738,0.096,5.475,0.267,8.214,0.361c3.036,0.104,9.966-0.402,7.61,5.316c-0.922,2.239-9.32,0.709-11.12,0.695
				c-5.582-0.046-11.235,0.059-16.786-0.502c-8.527-0.863-17.333-1.07-25.808,0.367c-1.68,0.285-6.119,0.765-6.999,2.53
				c-0.666,1.337,1.486,3.173,2.27,3.916c3.774,3.58,3.716,10.151,3.821,14.935c0.1,4.55,0.144,11.345-5.014,13.229
				c-3.74,1.367-3.189-4.477-3.311-6.673c-0.161-2.939-0.395-5.879-1.278-8.703c-0.729-2.329-2.127-4.278-4.254-5.492
				c-4.25-2.426-9-4.039-13.302-6.324c-2.712-1.44-5.11-3.764-7.457-5.714c-0.949-0.788-1.891-1.584-2.843-2.368
				c-0.737-0.605-0.395-0.974-1.079-1.66c-2-2.003-5.274-3.045-7.999-3.565c-2.25-0.43-4.538-0.602-6.776-1.113
				c-2.416-0.552-4.725-1.811-7.129-2.497c-0.843-0.24-1.123,1.223-0.339,1.446c3.812,1.087,7.209,2.643,11.159,3.208
				c1.899,0.272,3.78,0.461,5.562,1.202c0.738,0.307,1.5,0.563,2.242,0.861c1.573,0.629,1.783,1.499,2.83,2.73
				c1.129,1.328,2.979,2.43,4.322,3.545c2.277,1.894,4.593,4.015,7.225,5.412c3.64,1.933,7.583,3.704,11.343,5.457
				c3.979,1.855,5.368,4.47,6.065,8.734c0.469,2.864,0.412,5.792,0.693,8.675c0.121,1.23,0.301,3.432,1.539,4.17
				c1.696,1.012,3.975-0.047,5.39-1.096c2.429-1.801,3.185-5.4,3.541-8.188c0.796-6.23,0.834-16.639-4.152-21.368
				c-0.787-0.746-2.327-1.869-0.785-2.5c1.611-0.66,3.351-1.015,5.052-1.343c4.834-0.933,9.867-0.983,14.772-0.924
				c4.211,0.05,8.42,0.354,12.604,0.811c5.763,0.629,11.846,0.3,17.646,0.317c4.246,0.013,11.089,1.752,10.076-5.186
				c-0.383-2.623-2.448-3.342-4.833-3.705c-5.325-0.811-11.289-0.539-16.683-0.587c-2.661-0.023-5.318-0.095-7.978-0.245
				c-1.678-0.095-3.351-0.248-5.019-0.45c-1.078-0.131-4.023-1.159-4.598-0.648c1.444-1.287,5.268-0.939,7.048-1.015
				c3.422-0.144,6.855-0.089,10.279-0.025c4.409,0.082,8.821,0.269,13.23,0.298c4.17,0.027,9.979,0.21,13.27-2.834
				c2.673-2.474,0.17-6.977-2.714-7.823c-5.293-1.553-11.304-0.4-16.727-0.467c-6.822-0.084-13.645-0.168-20.468-0.251
				c-0.751-0.009-1.502-0.019-2.253-0.028c-0.592-0.007-1.203-0.165-1.796-0.213c-0.33,0-0.659,0-0.989,0
				c-2.544,0,2.361-1.17,2.765-1.223c7.967-1.051,15.986-1.666,24.003-2.531c4.306-0.465,10.808,0.806,12.738-4.238
				c1.257-3.281-1.921-4.989-4.538-5.278c-4.808-0.529-9.786,0.043-14.613,0.078c-7.975,0.056-15.964,0.337-23.885-0.791
				c0.212,0.25,0.425,0.5,0.638,0.75c-0.035-2.502,9.397-3.66,11.743-3.739c4.433-0.149,8.866-0.299,13.3-0.416
				c2.813-0.074,6.624,0.052,6.828-3.695c0.354-6.532-10.306-4.339-14.173-4.339c-8.26,0-16.454,0.835-24.717,0.592
				c-7.028-0.207-14.052-0.538-21.078-0.075c-5.854,0.385-11.722,1.5-16.931,4.289c-1.436,0.769-2.618,1.84-4.171,2.389
				c-1.754,0.62-3.769,0.562-5.604,0.542c-4.643-0.048-9.287-1.01-13.823-1.901C39.086,29.951,38.809,31.41,39.605,31.566
				L39.605,31.566z"/>
		</g>
	</g>
	<g>
		<g>
			<path d="M138.152,25.521c-0.96,0-1.921,0-2.881,0c-0.581,0-1.754-0.221-2.237,0.124c-1.219,0.87-1.146,2.248-1.146,3.694
				c0,0.262,0.205,0.5,0.475,0.5c0.094,0,0.188,0,0.283,0c-0.158-0.167-0.316-0.333-0.476-0.5c0,0.117,0,0.235,0,0.352
				c0,0.262,0.206,0.5,0.476,0.5c0.189,0.018,0.148-0.028-0.125-0.137c0.084,0.127,0.175,0.302,0.283,0.416
				c0.184,0.193,0.463,0.146,0.701,0.146c0.632,0,1.264,0,1.895,0c1.153,0,2.307,0,3.46,0c0.617,0,0.617-1,0-1
				c-1.153,0-2.307,0-3.46,0c-0.631,0-1.262,0-1.895,0c-0.308-0.043-0.317,0.002-0.028,0.137c-0.084-0.127-0.176-0.302-0.283-0.416
				c-0.151-0.159-0.347-0.146-0.548-0.146c0.158,0.167,0.315,0.333,0.475,0.5c0-0.117,0-0.235,0-0.352c0-0.262-0.206-0.5-0.475-0.5
				c-0.095,0-0.189,0-0.283,0c0.158,0.167,0.316,0.333,0.475,0.5c0-0.525,0-1.049,0-1.574c0-0.403-0.249,0.229,0.071-0.168
				c0.079-0.099,0.161-0.187,0.195-0.312c0.046-0.168,0.092-0.336,0.137-0.504c0.081-0.295-0.195,0.062,0.273-0.272
				c0.206-0.147,1.5,0.013,1.885,0.013c0.918,0,1.835,0,2.753,0C138.769,26.521,138.769,25.521,138.152,25.521L138.152,25.521z"/>
		</g>
	</g>
	<g>
		<g>
			<path d="M149.31,38.232c-1.248,0-2.496,0-3.743,0c-0.459,0-0.662,0.211-1.116,0.211c-0.551,0-0.824,0.106-0.991,0.659
				c-0.078,0.257-0.254,0.792,0.101,0.524c-0.128,0.097-0.298,0.192-0.379,0.337c-0.102,0.18-0.065,0.423-0.065,0.619
				c0,0.352,0.087,0.108-0.074,0.269c-0.36,0.362-0.139,1.628-0.139,2.118c0,0.262,0.206,0.5,0.475,0.5
				c0.163,0,0.551,0.339,0.963,0.318c0.831-0.042,1.655-0.105,2.498-0.105c1.013,0,2.024,0,3.036,0c0.617,0,0.617-1,0-1
				c-0.969,0-1.938,0-2.908,0c-0.721,0-1.521-0.098-2.231,0.018c-0.604,0.098-0.808-0.23-1.356-0.23
				c0.158,0.167,0.316,0.333,0.476,0.5c0-0.294,0-0.588,0-0.882c0-0.129,0-0.258,0-0.388c0-0.171,0.098-0.378-0.033-0.247
				c0.267-0.267,0.246-0.511,0.246-0.869c0-0.564-0.352,0.153-0.027-0.092c0.13-0.099,0.247-0.187,0.291-0.354
				c0.165-0.63-0.338-0.692,0.377-0.692c0.424,0,0.739-0.211,1.144-0.211c1.152,0,2.307,0,3.46,0
				C149.927,39.232,149.927,38.232,149.31,38.232L149.31,38.232z"/>
		</g>
	</g>
	<g>
		<g>
			<path d="M155.523,51.93c-1.507,0.124-3.044,0.494-4.55,0.494c-0.4,0-0.911-0.084-1.3,0.028c-0.275,0.08-0.425,0.365-0.703,0.484
				c-0.273,0.116-0.632,0.444-0.632,0.765c0,0.189-0.139,0.417,0.033,0.246c-0.134,0.133-0.245,0.258-0.245,0.459
				c0,0.833-0.054,1.528,0.277,2.3c0.065,0.151,0.252,0.248,0.41,0.248c0.165,0,0.33,0,0.495,0c-0.158-0.167-0.316-0.333-0.476-0.5
				c0,0.071,0,0.142,0,0.212c0,0.262,0.206,0.5,0.476,0.5c0.094,0,0.188,0,0.28,0c-0.157-0.167-0.315-0.333-0.475-0.5
				c0,0.094,0,0.188,0,0.282c0,0.262,0.206,0.5,0.475,0.5c0.105,0,0.791,0.214,1.272,0.214c-0.158-0.167-0.317-0.333-0.475-0.5
				c0,0.093,0,0.187,0,0.28c0,0.262,0.206,0.5,0.475,0.5c1.954,0,3.908,0,5.861,0c0.616,0,0.616-1,0-1c-1.954,0-3.908,0-5.861,0
				c0.158,0.167,0.317,0.333,0.475,0.5c0-0.093,0-0.187,0-0.28c0-0.262-0.206-0.5-0.475-0.5c-0.671,0-0.584-0.214-1.272-0.214
				c0.158,0.167,0.316,0.333,0.476,0.5c0-0.094,0-0.188,0-0.282c0-0.262-0.206-0.5-0.476-0.5c-0.094,0-0.188,0-0.28,0
				c0.158,0.167,0.315,0.333,0.475,0.5c0-0.071,0-0.142,0-0.212c0-0.262-0.206-0.5-0.475-0.5c-0.466,0-0.232,0.256-0.232-0.123
				c0-0.353,0-0.706,0-1.059c0-0.181,0.169-0.882,0.511-1.029c0.596-0.254,0.923-0.32,1.626-0.32c1.435,0,2.875-0.376,4.309-0.494
				C156.134,52.88,156.137,51.88,155.523,51.93L155.523,51.93z"/>
		</g>
	</g>
	<g>
		<g>
			<path d="M150.58,65.911c-0.787,0-1.574,0-2.359,0c-0.205,0-0.409,0-0.614,0c-0.316,0-0.22,0.136-0.305,0.027
				c-0.447-0.573-1.684-0.309-2.356-0.309c-1.769,0-1.335,2.775-1.335,3.959c0,0.262,0.206,0.5,0.475,0.5c0.095,0,0.188,0,0.281,0
				c-0.158-0.167-0.316-0.333-0.475-0.5c0,0.117,0,0.235,0,0.352c0,0.262,0.206,0.5,0.475,0.5c0.161,0.015,0.145-0.009-0.05-0.073
				c0.089,0.09,0.192,0.218,0.304,0.287c0.168,0.104,0.394,0.068,0.581,0.068c0.904,0,1.706,0.315,2.578,0.503
				c1.086,0.234,2.022,0.346,3.295,0.346c0.617,0,0.617-1,0-1c-1.246,0-2.333-0.051-3.504-0.503
				c-0.708-0.273-1.604-0.346-2.369-0.346c-0.383,0,0.036,0.187-0.286-0.135c-0.157-0.157-0.344-0.146-0.549-0.146
				c0.158,0.167,0.316,0.333,0.475,0.5c0-0.117,0-0.235,0-0.352c0-0.262-0.205-0.5-0.475-0.5c-0.094,0-0.188,0-0.281,0
				c0.158,0.167,0.316,0.333,0.476,0.5c0-0.629,0-1.259,0-1.889c0-0.499-0.021-0.502,0.172-0.938
				c0.095-0.215,0.375-0.133,0.835-0.133c0.387,0,0.773,0,1.161,0c-0.344,0,0.44,0.279,0.604,0.282c1.082,0.02,2.166,0,3.248,0
				C151.196,66.911,151.196,65.911,150.58,65.911L150.58,65.911z"/>
		</g>
	</g>
	<g>
		<g>
			<path d="M86.536,97.768c0.571,0,1.027-0.07,1.525,0.213c0.185,0.105-0.073,0.279,0.188,0.629
				c0.316,0.424,0.565,0.842,0.565,1.131c0,0.262,0.206,0.5,0.475,0.5c0.095,0,0.189,0,0.284,0c-0.158-0.168-0.317-0.334-0.475-0.5
				c0,2.078,0.562,4.943-0.43,6.74c-0.301,0.545,0.508,1.069,0.82,0.504c0.416-0.754,0.559-0.955,0.559-1.844
				c0-0.679,0-1.355,0-2.031c0-1.123,0-2.246,0-3.369c0-0.262-0.206-0.5-0.475-0.5c-0.095,0-0.189,0-0.284,0
				c0.158,0.167,0.317,0.333,0.476,0.5c0-0.283-0.21-0.553-0.21-0.744c0-0.471-0.494-0.707-0.494-0.988
				c0-1.283-1.625-1.241-2.523-1.241C85.919,96.768,85.919,97.768,86.536,97.768L86.536,97.768z"/>
		</g>
	</g>
	<g>
		<g>
			<path d="M28.44,40.112c0.646-4.042,1.292-8.083,1.938-12.125c-0.261,0.175-0.522,0.35-0.783,0.524
				c3.412,0.541,6.825,1.082,10.237,1.623c-0.147-0.308-0.297-0.615-0.444-0.922c-0.581,3.645-1.163,7.289-1.744,10.934
				c-0.142,0.881,1.074,1.365,1.229,0.398c0.581-3.645,1.163-7.289,1.744-10.934c0.05-0.313-0.044-0.859-0.445-0.922
				c-3.413-0.541-6.825-1.082-10.237-1.623c-0.361-0.057-0.722,0.126-0.784,0.524c-0.646,4.042-1.292,8.083-1.938,12.125
				C27.07,40.594,28.286,41.078,28.44,40.112L28.44,40.112z"/>
		</g>
	</g>
	<g>
		<g>
			<path d="M36.25,48.887c-0.79,4.951-1.579,9.902-2.369,14.854c0.262-0.175,0.523-0.35,0.784-0.524
				c-3.413-0.565-6.826-1.13-10.239-1.695c0.148,0.308,0.298,0.615,0.445,0.922c0.852-5.322,1.702-10.644,2.552-15.966
				c0.142-0.881-1.074-1.365-1.229-0.398c-0.852,5.322-1.702,10.644-2.552,15.966c-0.051,0.315,0.045,0.856,0.444,0.922
				c3.413,0.565,6.826,1.13,10.239,1.695c0.361,0.06,0.721-0.128,0.784-0.524c0.79-4.951,1.579-9.902,2.369-14.854
				C37.62,48.404,36.404,47.921,36.25,48.887L36.25,48.887z"/>
		</g>
	</g>
	<g>
		<g>
			<path d="M32.871,51.203c9.221-0.493,9.206-13.989,0-14.493c-4.043-0.221-6.929,3.561-7.134,7.246
				C25.513,47.984,29.129,50.999,32.871,51.203c0.835,0.045,0.838-1.455,0-1.5c-3.252-0.177-5.678-2.443-5.857-5.747
				c-0.18-3.27,2.896-5.581,5.857-5.746c3.242-0.18,5.695,2.724,5.859,5.746c0.18,3.311-2.848,5.586-5.859,5.747
				C32.033,49.748,32.035,51.247,32.871,51.203z"/>
		</g>
	</g>
	<g>
		<g>
			<path d="M3.214,62.924c6.156-0.37,12.02,0.874,17.837,2.798c0.479,0.158,0.775-0.318,0.808-0.723
				c0.374-4.737,2.03-9.188,1.965-13.975c-0.045-3.333-0.199-6.66-0.174-9.993c0.042-5.71,0.064-16.505,7.415-17.746
				c0.651-0.11,0.593-1.29,0-1.446c-6.073-1.601-12.146-3.201-18.219-4.802c-0.849-0.224-1.128,1.239-0.34,1.446
				c6.073,1.601,12.146,3.201,18.22,4.802c0-0.482,0-0.964,0-1.446c-6.708,1.131-7.756,9.395-8.188,14.92
				c-0.316,4.071-0.153,8.174-0.038,12.25c0.156,5.498-1.488,10.564-1.917,15.989c0.27-0.241,0.538-0.482,0.808-0.723
				c-5.938-1.965-11.896-3.229-18.177-2.852C2.376,61.474,2.379,62.974,3.214,62.924L3.214,62.924z"/>
		</g>
	</g>
	<path fill="none" stroke="#000000" stroke-miterlimit="10" stroke-dasharray="1.474,0.737" d="M77.85,25.245
		c17.583-4.802,34.104-12.004,49.641-21.679l4.871,8.616l8.122-8.121c17.934,13.276,37.07,19.418,57.83,24.36"/>
	<polygon stroke="#000000" stroke-width="0.1281" stroke-linecap="round" stroke-linejoin="round" stroke-miterlimit="10" points="
		130.385,31.953 130.385,49.394 128.55,46.287 124.242,46.358 132.221,60.126 140.2,46.358 135.823,46.287 134.057,49.394 
		134.057,31.953 	"/>
	<g>
		<g>
			<g>
				<path d="M89.32,154.546c15.394,10.828,30.787,21.654,46.181,32.48c0.19,0.135,0.454,0.137,0.645,0
					c15.275-10.92,30.552-21.842,45.829-32.765c0.656-0.469,0.102-1.827-0.646-1.295c-14.715,10.521-29.432,21.043-44.146,31.562
					c-0.558,0.398-1.113,0.798-1.669,1.193c0.405-0.289,0.878,0.182,0.256-0.256c-0.438-0.309-0.877-0.617-1.316-0.926
					c-3.487-2.453-6.975-4.906-10.462-7.359c-9.415-6.621-18.83-13.244-28.245-19.865c-1.927-1.354-3.854-2.711-5.781-4.065
					C89.214,152.724,88.659,154.081,89.32,154.546L89.32,154.546z"/>
			</g>
		</g>
		<g>
			<g>
				<path d="M134.902,185.745c0,3.154,0,6.307,0,9.461c0,0.947,1.275,0.947,1.275,0c0-3.154,0-6.307,0-9.461
					C136.177,184.798,134.902,184.798,134.902,185.745L134.902,185.745z"/>
			</g>
		</g>
	</g>
	<path fill="none" stroke="#000000" stroke-miterlimit="10" stroke-dasharray="5.0003,3.0002,1.0001,3.0002" d="M105.248,165.407
		l23.514-0.494c1.625,0,4.308,0.92,4.308,3.531v8.686"/>
	<path fill="none" stroke="#000000" stroke-miterlimit="10" stroke-dasharray="5.0003,3.0002,1.0001,3.0002" d="M163.856,165.407
		l-23.443-0.494c-1.625,0-4.308,0.92-4.308,3.531v8.686"/>
	<path fill="none" stroke="#000000" stroke-miterlimit="10" stroke-dasharray="5.0003,3.0002,1.0001,3.0002" d="M108.285,164.915
		c-5.296-14.83-16.312-28.811-15.889-44.629c0.636-22.524,15.816-46.461,40.673-46.813c26.056-0.282,39.049,23.301,38.483,42.862
		c-0.564,16.662-7.345,32.623-11.017,48.932"/>
	<g>
		<path d="M230.875,44.239v-6.974h0.921v6.151h3.436v0.823H230.875z"/>
		<path d="M235.902,41.713c0-0.935,0.261-1.628,0.78-2.078c0.433-0.375,0.964-0.562,1.59-0.562c0.694,0,1.263,0.226,1.702,0.684
			c0.44,0.454,0.663,1.082,0.663,1.887c0,0.649-0.101,1.161-0.296,1.532c-0.192,0.372-0.477,0.663-0.851,0.87
			c-0.373,0.207-0.779,0.309-1.22,0.309c-0.709,0-1.28-0.226-1.715-0.68C236.121,43.219,235.902,42.565,235.902,41.713z
			 M236.782,41.713c0,0.647,0.142,1.132,0.425,1.454c0.282,0.322,0.638,0.482,1.065,0.482c0.425,0,0.779-0.161,1.062-0.484
			c0.283-0.324,0.425-0.818,0.425-1.481c0-0.625-0.144-1.097-0.427-1.419c-0.284-0.322-0.637-0.483-1.06-0.483
			c-0.429,0-0.783,0.161-1.065,0.481C236.925,40.583,236.782,41.065,236.782,41.713z"/>
		<path d="M242.574,44.239l-1.546-5.051h0.884l0.803,2.915l0.303,1.086c0.014-0.056,0.1-0.402,0.263-1.044l0.803-2.959h0.879
			l0.758,2.931l0.253,0.965l0.291-0.975l0.864-2.921h0.834l-1.58,5.051h-0.891l-0.803-3.027l-0.195-0.86l-1.022,3.887h-0.896
			L242.574,44.239L242.574,44.239z"/>
		<path d="M252.136,42.613l0.885,0.107c-0.141,0.517-0.398,0.921-0.775,1.207c-0.38,0.286-0.859,0.427-1.448,0.427
			c-0.736,0-1.323-0.226-1.757-0.682c-0.431-0.456-0.648-1.092-0.648-1.914c0-0.85,0.221-1.511,0.654-1.98
			c0.438-0.469,1.007-0.705,1.705-0.705c0.674,0,1.227,0.229,1.654,0.69c0.432,0.459,0.642,1.107,0.642,1.94
			c0,0.051,0,0.126-0.003,0.229h-3.769c0.031,0.554,0.188,0.981,0.47,1.274c0.283,0.295,0.636,0.442,1.058,0.442
			c0.313,0,0.583-0.082,0.805-0.247C251.828,43.238,252.007,42.973,252.136,42.613z M249.326,41.228h2.822
			c-0.039-0.427-0.148-0.747-0.324-0.96c-0.272-0.329-0.629-0.494-1.062-0.494c-0.394,0-0.725,0.132-0.992,0.396
			C249.5,40.435,249.353,40.786,249.326,41.228z"/>
		<path d="M254.087,44.239v-5.051h0.771v0.764c0.195-0.358,0.379-0.594,0.546-0.708c0.166-0.115,0.349-0.171,0.55-0.171
			c0.289,0,0.582,0.092,0.879,0.276l-0.295,0.793c-0.209-0.123-0.419-0.184-0.628-0.184c-0.186,0-0.354,0.056-0.506,0.168
			c-0.149,0.111-0.255,0.268-0.318,0.469c-0.096,0.307-0.144,0.638-0.144,1v2.643h-0.855V44.239z"/>
		<path d="M263.506,42.613l0.886,0.107c-0.141,0.517-0.398,0.921-0.776,1.207c-0.377,0.286-0.857,0.427-1.445,0.427
			c-0.739,0-1.325-0.226-1.759-0.682c-0.431-0.456-0.648-1.092-0.648-1.914c0-0.85,0.221-1.511,0.656-1.98
			c0.437-0.469,1.007-0.705,1.702-0.705c0.677,0,1.229,0.229,1.655,0.69c0.43,0.459,0.642,1.107,0.642,1.94
			c0,0.051,0,0.126-0.004,0.229h-3.77c0.033,0.554,0.188,0.981,0.472,1.274c0.281,0.295,0.634,0.442,1.056,0.442
			c0.313,0,0.584-0.082,0.806-0.247C263.202,43.238,263.379,42.973,263.506,42.613z M260.694,41.228h2.823
			c-0.038-0.427-0.146-0.747-0.323-0.96c-0.272-0.329-0.628-0.494-1.062-0.494c-0.393,0-0.724,0.132-0.993,0.396
			C260.873,40.435,260.727,40.786,260.694,41.228z"/>
		<path d="M268.747,44.239v-0.636c-0.321,0.5-0.793,0.751-1.413,0.751c-0.401,0-0.773-0.111-1.11-0.333
			c-0.339-0.222-0.599-0.53-0.785-0.931c-0.187-0.396-0.279-0.854-0.279-1.37c0-0.506,0.086-0.963,0.252-1.374
			c0.169-0.41,0.422-0.726,0.757-0.944c0.337-0.218,0.713-0.328,1.126-0.328c0.308,0,0.577,0.063,0.814,0.192
			s0.432,0.297,0.582,0.501v-2.501h0.851v6.972h-0.794V44.239z M266.041,41.719c0,0.646,0.136,1.128,0.41,1.45
			c0.271,0.32,0.594,0.48,0.965,0.48c0.373,0,0.691-0.153,0.954-0.459c0.263-0.307,0.394-0.772,0.394-1.402
			c0-0.691-0.135-1.199-0.4-1.522c-0.267-0.324-0.594-0.487-0.984-0.487c-0.382,0-0.698,0.157-0.956,0.469
			C266.165,40.558,266.041,41.048,266.041,41.719z"/>
		<path d="M270.731,44.659l0.833,0.123c0.035,0.256,0.131,0.442,0.29,0.559c0.214,0.159,0.503,0.239,0.871,0.239
			c0.396,0,0.703-0.08,0.919-0.239c0.217-0.159,0.361-0.379,0.438-0.665c0.044-0.174,0.064-0.54,0.062-1.1
			c-0.373,0.44-0.838,0.661-1.397,0.661c-0.692,0-1.23-0.251-1.613-0.753c-0.381-0.5-0.571-1.102-0.571-1.803
			c0-0.482,0.088-0.927,0.263-1.335c0.174-0.408,0.427-0.722,0.758-0.944c0.332-0.222,0.722-0.333,1.167-0.333
			c0.599,0,1.088,0.241,1.478,0.724v-0.609h0.791v4.367c0,0.787-0.081,1.343-0.241,1.672c-0.161,0.328-0.414,0.588-0.761,0.777
			c-0.348,0.19-0.773,0.286-1.283,0.286c-0.603,0-1.088-0.136-1.46-0.406C270.9,45.611,270.72,45.203,270.731,44.659z
			 M271.438,41.621c0,0.665,0.132,1.147,0.395,1.452c0.264,0.305,0.594,0.458,0.99,0.458c0.393,0,0.722-0.153,0.99-0.454
			c0.267-0.304,0.397-0.777,0.397-1.425c0-0.619-0.138-1.086-0.411-1.398c-0.273-0.314-0.604-0.471-0.991-0.471
			c-0.383,0-0.705,0.155-0.973,0.465C271.572,40.554,271.438,41.011,271.438,41.621z"/>
		<path d="M279.766,42.613l0.886,0.107c-0.141,0.517-0.398,0.921-0.776,1.207c-0.377,0.286-0.857,0.427-1.445,0.427
			c-0.739,0-1.327-0.226-1.759-0.682c-0.434-0.456-0.648-1.092-0.648-1.914c0-0.85,0.218-1.511,0.655-1.98
			c0.438-0.469,1.005-0.705,1.703-0.705c0.676,0,1.229,0.229,1.655,0.69c0.429,0.459,0.643,1.107,0.643,1.94
			c0,0.051,0,0.126-0.005,0.229h-3.77c0.032,0.554,0.189,0.981,0.472,1.274c0.281,0.295,0.635,0.442,1.056,0.442
			c0.313,0,0.582-0.082,0.805-0.247C279.46,43.238,279.636,42.973,279.766,42.613z M276.955,41.228h2.821
			c-0.038-0.427-0.146-0.747-0.323-0.96c-0.271-0.329-0.629-0.494-1.062-0.494c-0.394,0-0.725,0.132-0.994,0.396
			C277.13,40.435,276.983,40.786,276.955,41.228z"/>
		<path d="M284.115,41.713c0-0.935,0.26-1.628,0.781-2.078c0.435-0.375,0.963-0.562,1.588-0.562c0.695,0,1.264,0.226,1.703,0.684
			c0.441,0.454,0.662,1.082,0.662,1.887c0,0.649-0.099,1.161-0.293,1.532c-0.195,0.371-0.479,0.663-0.851,0.87
			c-0.374,0.207-0.78,0.309-1.223,0.309c-0.707,0-1.279-0.226-1.715-0.68C284.333,43.219,284.115,42.565,284.115,41.713z
			 M284.996,41.713c0,0.647,0.143,1.132,0.424,1.454c0.283,0.322,0.639,0.482,1.064,0.482c0.428,0,0.779-0.161,1.062-0.484
			c0.283-0.324,0.426-0.818,0.426-1.481c0-0.625-0.145-1.097-0.428-1.419c-0.283-0.322-0.636-0.483-1.06-0.483
			c-0.429,0-0.783,0.161-1.064,0.481C285.135,40.583,284.996,41.065,284.996,41.713z"/>
		<path d="M290.058,44.239v-4.386h-0.757v-0.667h0.757v-0.538c0-0.339,0.03-0.592,0.09-0.757c0.082-0.22,0.229-0.402,0.436-0.538
			c0.208-0.14,0.5-0.207,0.873-0.207c0.241,0,0.508,0.027,0.799,0.084l-0.129,0.747c-0.178-0.031-0.346-0.046-0.504-0.046
			c-0.26,0-0.442,0.056-0.551,0.167c-0.109,0.111-0.163,0.318-0.163,0.623v0.467h0.984v0.667h-0.984v4.386h-0.851V44.239z"/>
		<path d="M294.925,42.73l0.848-0.132c0.048,0.339,0.182,0.599,0.396,0.779c0.22,0.182,0.521,0.272,0.912,0.272
			c0.394,0,0.685-0.081,0.877-0.241c0.189-0.159,0.285-0.347,0.285-0.563c0-0.194-0.084-0.347-0.253-0.458
			c-0.116-0.077-0.41-0.172-0.877-0.289c-0.627-0.159-1.062-0.297-1.307-0.412c-0.241-0.117-0.428-0.276-0.552-0.48
			c-0.127-0.205-0.188-0.429-0.188-0.678c0-0.224,0.052-0.433,0.155-0.626c0.104-0.189,0.242-0.349,0.422-0.477
			c0.134-0.098,0.312-0.182,0.545-0.251c0.229-0.065,0.476-0.101,0.74-0.101c0.396,0,0.744,0.057,1.044,0.17
			c0.301,0.115,0.521,0.27,0.664,0.463c0.142,0.195,0.24,0.458,0.295,0.785l-0.84,0.113c-0.037-0.261-0.146-0.463-0.328-0.609
			c-0.186-0.146-0.44-0.218-0.774-0.218c-0.393,0-0.674,0.065-0.84,0.195c-0.169,0.13-0.254,0.282-0.254,0.456
			c0,0.111,0.035,0.21,0.104,0.301c0.069,0.094,0.182,0.168,0.33,0.228c0.084,0.032,0.337,0.105,0.756,0.218
			c0.605,0.163,1.027,0.297,1.27,0.398c0.239,0.104,0.427,0.253,0.562,0.448c0.137,0.197,0.205,0.442,0.205,0.733
			c0,0.286-0.085,0.554-0.252,0.807c-0.166,0.251-0.405,0.446-0.72,0.584c-0.312,0.138-0.669,0.207-1.065,0.207
			c-0.655,0-1.155-0.136-1.499-0.408C295.24,43.67,295.019,43.268,294.925,42.73z"/>
		<path d="M302.009,43.473l0.124,0.757c-0.24,0.05-0.458,0.077-0.646,0.077c-0.312,0-0.552-0.05-0.723-0.147
			c-0.171-0.098-0.291-0.226-0.361-0.389c-0.069-0.159-0.105-0.496-0.105-1.011v-2.906h-0.627v-0.667h0.627v-1.251l0.854-0.513
			v1.766h0.862v0.665h-0.862v2.956c0,0.243,0.015,0.4,0.046,0.471c0.03,0.069,0.078,0.125,0.146,0.167
			c0.069,0.041,0.167,0.062,0.293,0.062C301.729,43.506,301.853,43.496,302.009,43.473z"/>
		<path d="M306.307,42.613l0.885,0.107c-0.143,0.517-0.398,0.921-0.775,1.207c-0.38,0.286-0.859,0.427-1.447,0.427
			c-0.739,0-1.326-0.226-1.76-0.682c-0.431-0.456-0.648-1.092-0.648-1.914c0-0.85,0.221-1.511,0.657-1.98
			c0.436-0.469,1.004-0.705,1.702-0.705c0.677,0,1.229,0.229,1.655,0.69c0.431,0.459,0.644,1.107,0.644,1.94
			c0,0.051-0.002,0.126-0.006,0.229h-3.769c0.031,0.554,0.188,0.981,0.47,1.274c0.283,0.295,0.634,0.442,1.059,0.442
			c0.312,0,0.582-0.082,0.803-0.247C305.997,43.238,306.177,42.973,306.307,42.613z M303.496,41.228h2.821
			c-0.038-0.427-0.146-0.747-0.324-0.96c-0.271-0.329-0.628-0.494-1.062-0.494c-0.394,0-0.725,0.132-0.992,0.396
			C303.671,40.435,303.522,40.786,303.496,41.228z"/>
		<path d="M308.257,44.239v-5.051h0.771v0.764c0.197-0.358,0.379-0.594,0.546-0.708c0.165-0.115,0.349-0.171,0.55-0.171
			c0.287,0,0.582,0.092,0.879,0.276l-0.295,0.793c-0.211-0.123-0.419-0.184-0.628-0.184c-0.188,0-0.355,0.056-0.506,0.168
			c-0.147,0.111-0.255,0.268-0.317,0.469c-0.096,0.307-0.145,0.638-0.145,1v2.643h-0.854V44.239z"/>
		<path d="M311.511,44.239v-5.051h0.771v0.716c0.37-0.554,0.906-0.833,1.609-0.833c0.303,0,0.584,0.055,0.839,0.165
			c0.255,0.11,0.443,0.253,0.573,0.429c0.126,0.178,0.216,0.389,0.266,0.634c0.031,0.159,0.047,0.437,0.047,0.832v3.107h-0.855
			v-3.073c0-0.347-0.033-0.611-0.101-0.783c-0.066-0.172-0.187-0.311-0.354-0.414c-0.169-0.103-0.368-0.153-0.597-0.153
			c-0.365,0-0.68,0.115-0.945,0.347c-0.266,0.229-0.396,0.67-0.396,1.318v2.758h-0.855L311.511,44.239L311.511,44.239z"/>
		<path d="M320.242,44.239v-0.743c-0.393,0.571-0.927,0.856-1.604,0.856c-0.3,0-0.576-0.056-0.835-0.17
			c-0.262-0.115-0.45-0.257-0.576-0.431c-0.124-0.172-0.215-0.385-0.266-0.634c-0.035-0.167-0.053-0.435-0.053-0.799v-3.13h0.855
			v2.8c0,0.448,0.02,0.751,0.054,0.904c0.054,0.226,0.169,0.402,0.343,0.53c0.175,0.13,0.392,0.194,0.647,0.194
			s0.498-0.065,0.724-0.198c0.225-0.132,0.384-0.31,0.479-0.538c0.094-0.224,0.14-0.555,0.14-0.986v-2.707h0.857v5.051h-0.766
			V44.239z"/>
		<path d="M322.349,44.239v-5.051h0.766v0.708c0.159-0.247,0.37-0.446,0.635-0.598c0.265-0.149,0.562-0.224,0.898-0.224
			c0.373,0,0.68,0.077,0.921,0.232c0.239,0.155,0.408,0.374,0.508,0.653c0.398-0.592,0.919-0.885,1.561-0.885
			c0.501,0,0.887,0.138,1.155,0.416c0.271,0.277,0.406,0.705,0.406,1.283v3.467h-0.853v-3.182c0-0.345-0.026-0.59-0.084-0.741
			c-0.057-0.149-0.155-0.27-0.304-0.362c-0.146-0.094-0.315-0.14-0.514-0.14c-0.354,0-0.649,0.119-0.883,0.354
			c-0.235,0.236-0.354,0.615-0.354,1.134v2.937h-0.855v-3.283c0-0.381-0.07-0.667-0.21-0.856c-0.142-0.191-0.368-0.285-0.686-0.285
			c-0.24,0-0.465,0.063-0.67,0.189c-0.203,0.126-0.353,0.31-0.443,0.556c-0.093,0.245-0.142,0.596-0.142,1.055v2.622h-0.854V44.239z
			"/>
	</g>
	<g>
		<path d="M230.875,69.941v-6.972h0.921v6.15h3.436v0.822H230.875z"/>
		<path d="M239.681,68.315l0.884,0.109c-0.143,0.518-0.396,0.919-0.776,1.205c-0.377,0.285-0.856,0.429-1.447,0.429
			c-0.739,0-1.323-0.226-1.757-0.684c-0.433-0.454-0.648-1.092-0.648-1.914c0-0.85,0.219-1.509,0.656-1.98
			c0.438-0.469,1.004-0.703,1.7-0.703c0.678,0,1.229,0.228,1.657,0.69c0.427,0.459,0.642,1.107,0.642,1.94
			c0,0.052-0.002,0.126-0.006,0.228h-3.768c0.031,0.554,0.188,0.981,0.47,1.276c0.281,0.293,0.634,0.442,1.057,0.442
			c0.312,0,0.581-0.083,0.804-0.247C239.375,68.939,239.549,68.675,239.681,68.315z M236.868,66.93h2.821
			c-0.038-0.427-0.146-0.745-0.323-0.958c-0.271-0.33-0.626-0.494-1.06-0.494c-0.396,0-0.725,0.13-0.994,0.395
			C237.046,66.137,236.898,66.489,236.868,66.93z"/>
		<path d="M241.846,69.941v-4.386h-0.758V64.89h0.758v-0.539c0-0.341,0.029-0.592,0.09-0.756c0.083-0.222,0.228-0.402,0.437-0.54
			c0.207-0.14,0.498-0.207,0.872-0.207c0.241,0,0.509,0.027,0.799,0.086l-0.129,0.747c-0.178-0.032-0.347-0.048-0.505-0.048
			c-0.26,0-0.443,0.056-0.553,0.167c-0.106,0.111-0.16,0.32-0.16,0.623v0.469h0.984v0.665h-0.984v4.386h-0.853v-0.002H241.846z"/>
		<path d="M246.219,69.177l0.121,0.755c-0.24,0.052-0.457,0.077-0.646,0.077c-0.312,0-0.553-0.048-0.723-0.147
			c-0.173-0.098-0.293-0.226-0.362-0.387c-0.069-0.161-0.105-0.498-0.105-1.011v-2.908h-0.628V64.89h0.628v-1.253l0.854-0.513v1.766
			h0.862v0.667h-0.862v2.954c0,0.245,0.016,0.402,0.046,0.471c0.031,0.069,0.079,0.126,0.146,0.167
			c0.067,0.042,0.165,0.062,0.291,0.062C245.935,69.209,246.06,69.198,246.219,69.177z"/>
		<path d="M249.763,69.941v-6.972h0.854v2.501c0.398-0.461,0.904-0.693,1.514-0.693c0.375,0,0.699,0.073,0.976,0.22
			c0.274,0.149,0.473,0.353,0.592,0.611c0.119,0.262,0.178,0.638,0.178,1.134v3.201h-0.854v-3.201c0-0.429-0.094-0.739-0.277-0.935
			c-0.187-0.195-0.449-0.293-0.79-0.293c-0.255,0-0.492,0.067-0.714,0.197c-0.225,0.132-0.383,0.308-0.478,0.536
			c-0.097,0.224-0.145,0.535-0.145,0.933v2.762L249.763,69.941L249.763,69.941L249.763,69.941z"/>
		<path d="M258.48,69.318c-0.316,0.271-0.623,0.46-0.916,0.571c-0.295,0.111-0.608,0.167-0.945,0.167
			c-0.555,0-0.98-0.136-1.28-0.408c-0.299-0.268-0.447-0.617-0.447-1.038c0-0.247,0.06-0.475,0.171-0.678
			c0.109-0.205,0.261-0.37,0.439-0.492c0.185-0.125,0.39-0.218,0.617-0.282c0.168-0.044,0.423-0.088,0.76-0.128
			c0.691-0.083,1.201-0.18,1.529-0.295c0.003-0.119,0.005-0.193,0.005-0.226c0-0.347-0.082-0.592-0.243-0.738
			c-0.221-0.191-0.546-0.289-0.975-0.289c-0.404,0-0.701,0.071-0.893,0.21c-0.191,0.144-0.334,0.393-0.429,0.751l-0.837-0.113
			c0.077-0.36,0.201-0.649,0.376-0.87c0.174-0.222,0.427-0.389,0.756-0.51c0.33-0.119,0.713-0.178,1.147-0.178
			c0.43,0,0.782,0.049,1.05,0.151c0.271,0.102,0.47,0.228,0.594,0.383c0.127,0.155,0.218,0.347,0.268,0.583
			c0.027,0.147,0.042,0.41,0.042,0.793v1.14c0,0.797,0.02,1.3,0.056,1.511c0.036,0.212,0.107,0.414,0.216,0.607h-0.895
			C258.562,69.764,258.505,69.556,258.48,69.318z M258.408,67.405c-0.311,0.126-0.778,0.235-1.398,0.323
			c-0.353,0.052-0.602,0.109-0.747,0.171c-0.146,0.065-0.261,0.157-0.339,0.279c-0.08,0.123-0.118,0.257-0.118,0.406
			c0,0.23,0.086,0.419,0.258,0.573c0.173,0.153,0.428,0.228,0.759,0.228c0.33,0,0.625-0.073,0.882-0.218
			c0.256-0.144,0.445-0.341,0.566-0.592c0.092-0.193,0.139-0.479,0.139-0.856L258.408,67.405L258.408,67.405z"/>
		<path d="M260.602,69.941V64.89h0.771v0.716c0.371-0.554,0.908-0.832,1.608-0.832c0.305,0,0.585,0.054,0.839,0.163
			c0.255,0.111,0.447,0.253,0.573,0.429c0.126,0.18,0.216,0.389,0.267,0.634c0.03,0.159,0.045,0.437,0.045,0.833v3.107h-0.854
			v-3.074c0-0.347-0.033-0.609-0.101-0.781c-0.066-0.172-0.184-0.312-0.354-0.414c-0.171-0.104-0.368-0.155-0.597-0.155
			c-0.363,0-0.68,0.117-0.943,0.349c-0.268,0.229-0.396,0.67-0.396,1.317v2.758L260.602,69.941L260.602,69.941z"/>
		<path d="M269.298,69.941v-0.636c-0.319,0.502-0.791,0.751-1.411,0.751c-0.403,0-0.773-0.111-1.11-0.332
			c-0.339-0.222-0.6-0.532-0.785-0.931c-0.187-0.398-0.278-0.856-0.278-1.372c0-0.506,0.083-0.961,0.251-1.374
			c0.169-0.41,0.423-0.726,0.758-0.944c0.333-0.218,0.713-0.328,1.126-0.328c0.307,0,0.576,0.063,0.813,0.194
			c0.237,0.128,0.431,0.295,0.58,0.501v-2.503h0.854v6.974H269.298L269.298,69.941L269.298,69.941z M266.591,67.42
			c0,0.646,0.14,1.13,0.41,1.45c0.271,0.322,0.593,0.481,0.964,0.481c0.375,0,0.693-0.153,0.956-0.458
			c0.263-0.309,0.392-0.774,0.392-1.404c0-0.691-0.133-1.199-0.398-1.523c-0.267-0.324-0.594-0.484-0.983-0.484
			c-0.383,0-0.699,0.155-0.954,0.467C266.718,66.261,266.591,66.75,266.591,67.42z"/>
	</g>
	<g>
		<path d="M235.489,104.698h0.921v4.029c0,0.703-0.078,1.256-0.237,1.67c-0.158,0.412-0.445,0.748-0.857,1.006
			c-0.413,0.258-0.957,0.387-1.63,0.387c-0.655,0-1.188-0.111-1.604-0.338c-0.416-0.223-0.713-0.549-0.891-0.977
			c-0.177-0.429-0.266-1.009-0.266-1.748v-4.029h0.922v4.025c0,0.604,0.058,1.051,0.171,1.338c0.109,0.287,0.305,0.51,0.58,0.666
			c0.273,0.153,0.608,0.231,1.006,0.231c0.678,0,1.163-0.153,1.45-0.461c0.289-0.31,0.433-0.899,0.433-1.776L235.489,104.698
			L235.489,104.698z"/>
		<path d="M239.708,110.907l0.125,0.756c-0.242,0.053-0.458,0.076-0.647,0.076c-0.311,0-0.552-0.049-0.725-0.146
			c-0.171-0.1-0.291-0.229-0.361-0.389c-0.068-0.162-0.104-0.498-0.104-1.013v-2.907h-0.628v-0.664h0.628v-1.252l0.854-0.513v1.765
			h0.859v0.666h-0.859v2.955c0,0.243,0.014,0.399,0.044,0.471c0.03,0.07,0.081,0.125,0.147,0.166
			c0.066,0.043,0.166,0.062,0.293,0.062C239.429,110.94,239.555,110.931,239.708,110.907z"/>
		<path d="M244.005,110.046l0.886,0.107c-0.144,0.518-0.398,0.92-0.776,1.205c-0.379,0.285-0.858,0.43-1.448,0.43
			c-0.738,0-1.322-0.227-1.758-0.682c-0.432-0.455-0.649-1.094-0.649-1.916c0-0.851,0.221-1.51,0.657-1.98
			c0.438-0.467,1.005-0.703,1.702-0.703c0.677,0,1.229,0.23,1.657,0.689c0.427,0.459,0.642,1.106,0.642,1.941
			c0,0.051-0.002,0.127-0.004,0.227h-3.77c0.029,0.557,0.188,0.979,0.47,1.275c0.281,0.295,0.634,0.442,1.055,0.442
			c0.314,0,0.584-0.082,0.806-0.248C243.699,110.671,243.875,110.409,244.005,110.046z M241.195,108.661h2.821
			c-0.038-0.426-0.146-0.744-0.323-0.959c-0.272-0.33-0.627-0.494-1.062-0.494c-0.393,0-0.724,0.135-0.991,0.396
			C241.371,107.865,241.222,108.222,241.195,108.661z"/>
		<path d="M245.957,111.673v-5.053h0.771v0.766c0.195-0.357,0.38-0.594,0.547-0.711c0.166-0.111,0.348-0.17,0.549-0.17
			c0.288,0,0.583,0.092,0.88,0.275l-0.295,0.795c-0.209-0.123-0.42-0.184-0.63-0.184c-0.188,0-0.354,0.057-0.504,0.168
			c-0.15,0.112-0.255,0.268-0.318,0.469c-0.096,0.307-0.142,0.637-0.142,1.002v2.645h-0.856L245.957,111.673L245.957,111.673z"/>
		<path d="M252.521,111.673v-0.742c-0.394,0.57-0.928,0.855-1.604,0.855c-0.299,0-0.576-0.059-0.837-0.17
			c-0.259-0.115-0.448-0.26-0.574-0.43c-0.125-0.174-0.215-0.388-0.265-0.638c-0.036-0.168-0.054-0.434-0.054-0.799v-3.129h0.855
			v2.801c0,0.445,0.021,0.75,0.055,0.906c0.054,0.223,0.168,0.399,0.343,0.528c0.174,0.129,0.391,0.189,0.646,0.189
			s0.498-0.062,0.725-0.197c0.225-0.129,0.383-0.309,0.476-0.535c0.096-0.227,0.143-0.557,0.143-0.985v-2.709h0.856v5.053
			L252.521,111.673L252.521,111.673z"/>
		<path d="M254.287,110.165l0.847-0.135c0.049,0.34,0.184,0.6,0.396,0.781c0.217,0.182,0.521,0.27,0.912,0.27
			c0.393,0,0.686-0.08,0.877-0.24c0.189-0.16,0.286-0.346,0.286-0.564c0-0.19-0.087-0.344-0.253-0.454
			c-0.117-0.078-0.41-0.175-0.878-0.291c-0.628-0.16-1.062-0.296-1.308-0.412c-0.242-0.115-0.425-0.275-0.551-0.479
			c-0.127-0.205-0.188-0.431-0.188-0.679c0-0.224,0.051-0.433,0.153-0.625c0.103-0.188,0.244-0.353,0.422-0.478
			c0.133-0.1,0.314-0.184,0.544-0.25c0.231-0.067,0.478-0.104,0.739-0.104c0.396,0,0.745,0.059,1.044,0.17
			c0.301,0.115,0.521,0.271,0.665,0.467c0.145,0.193,0.241,0.455,0.295,0.783l-0.838,0.115c-0.038-0.264-0.146-0.467-0.331-0.609
			c-0.182-0.147-0.439-0.221-0.771-0.221c-0.394,0-0.675,0.064-0.843,0.195c-0.17,0.131-0.254,0.281-0.254,0.455
			c0,0.111,0.036,0.211,0.105,0.303c0.068,0.092,0.18,0.168,0.329,0.227c0.084,0.033,0.337,0.105,0.755,0.221
			c0.607,0.162,1.03,0.296,1.27,0.396c0.237,0.104,0.429,0.252,0.563,0.447c0.136,0.197,0.203,0.443,0.203,0.734
			c0,0.285-0.082,0.553-0.249,0.807c-0.167,0.25-0.408,0.445-0.72,0.584c-0.314,0.141-0.672,0.207-1.067,0.207
			c-0.657,0-1.157-0.137-1.5-0.408S254.382,110.702,254.287,110.165z"/>
	</g>
	<g>
		<path d="M230.913,170.704v-6.975h2.63c0.466,0,0.818,0.021,1.062,0.065c0.345,0.06,0.63,0.166,0.86,0.326
			c0.232,0.16,0.418,0.385,0.561,0.674c0.14,0.287,0.211,0.604,0.211,0.953c0,0.594-0.188,1.096-0.565,1.504
			c-0.377,0.412-1.06,0.617-2.046,0.617h-1.789v2.836L230.913,170.704L230.913,170.704z M231.835,167.046h1.804
			c0.596,0,1.021-0.111,1.27-0.334c0.252-0.223,0.378-0.535,0.378-0.938c0-0.291-0.075-0.541-0.222-0.75
			c-0.148-0.207-0.344-0.347-0.585-0.41c-0.155-0.043-0.44-0.062-0.86-0.062h-1.783L231.835,167.046L231.835,167.046z"/>
		<path d="M240.76,169.077l0.883,0.109c-0.139,0.516-0.396,0.92-0.776,1.205c-0.377,0.284-0.856,0.43-1.445,0.43
			c-0.737,0-1.325-0.229-1.757-0.685c-0.433-0.454-0.648-1.094-0.648-1.913c0-0.853,0.219-1.513,0.654-1.98
			c0.438-0.471,1.006-0.705,1.705-0.705c0.674,0,1.229,0.229,1.654,0.689c0.43,0.461,0.642,1.106,0.642,1.938
			c0,0.053-0.002,0.127-0.006,0.229h-3.768c0.031,0.555,0.188,0.979,0.47,1.274c0.283,0.295,0.634,0.442,1.058,0.442
			c0.313,0,0.582-0.084,0.806-0.247C240.456,169.702,240.629,169.438,240.76,169.077z M237.948,167.692h2.821
			c-0.038-0.426-0.144-0.741-0.323-0.957c-0.272-0.329-0.626-0.493-1.062-0.493c-0.393,0-0.722,0.131-0.991,0.395
			C238.125,166.899,237.977,167.251,237.948,167.692z"/>
		<path d="M242.703,170.704v-6.975h0.857v6.975H242.703z"/>
		<path d="M246.291,170.704l-1.924-5.051h0.904l1.084,3.022c0.117,0.328,0.227,0.666,0.324,1.021
			c0.075-0.266,0.184-0.588,0.316-0.959l1.124-3.084H249l-1.914,5.051H246.291L246.291,170.704z"/>
		<path d="M249.763,164.714v-0.984h0.854v0.984H249.763z M249.763,170.704v-5.051h0.854v5.051H249.763z"/>
		<path d="M255.219,168.853l0.843,0.109c-0.093,0.58-0.328,1.037-0.707,1.365c-0.38,0.326-0.846,0.492-1.396,0.492
			c-0.69,0-1.247-0.228-1.669-0.68c-0.421-0.451-0.63-1.101-0.63-1.941c0-0.547,0.091-1.023,0.271-1.434
			c0.182-0.408,0.456-0.714,0.824-0.918c0.37-0.205,0.772-0.31,1.205-0.31c0.553,0,1,0.137,1.348,0.416
			c0.349,0.276,0.571,0.672,0.672,1.185l-0.833,0.127c-0.08-0.341-0.221-0.595-0.421-0.767c-0.203-0.172-0.445-0.256-0.73-0.256
			c-0.431,0-0.783,0.153-1.051,0.463c-0.27,0.31-0.404,0.799-0.404,1.469c0,0.679,0.13,1.17,0.392,1.479
			c0.26,0.309,0.598,0.465,1.017,0.465c0.337,0,0.617-0.104,0.843-0.309C255.017,169.599,255.161,169.282,255.219,168.853z"/>
		<path d="M259.504,164.714v-0.984h0.858v0.984H259.504z M259.504,170.704v-5.051h0.858v5.051H259.504z"/>
		<path d="M261.667,170.704v-5.051h0.771v0.715c0.37-0.553,0.906-0.832,1.606-0.832c0.308,0,0.586,0.055,0.839,0.164
			c0.258,0.109,0.446,0.254,0.575,0.43c0.126,0.178,0.214,0.389,0.265,0.633c0.03,0.16,0.048,0.438,0.048,0.834v3.107h-0.858v-3.074
			c0-0.348-0.032-0.609-0.1-0.781c-0.066-0.176-0.185-0.312-0.354-0.416c-0.169-0.102-0.368-0.154-0.596-0.154
			c-0.364,0-0.681,0.115-0.945,0.351c-0.266,0.229-0.396,0.67-0.396,1.315v2.761L261.667,170.704L261.667,170.704z"/>
		<path d="M267.065,170.704v-6.975h0.857v6.975H267.065z"/>
		<path d="M272.71,169.077l0.886,0.109c-0.144,0.516-0.398,0.92-0.776,1.205c-0.377,0.284-0.86,0.43-1.448,0.43
			c-0.739,0-1.325-0.229-1.758-0.685c-0.432-0.454-0.647-1.094-0.647-1.913c0-0.853,0.219-1.513,0.655-1.98
			c0.438-0.471,1.005-0.705,1.702-0.705c0.677,0,1.228,0.229,1.657,0.689c0.427,0.461,0.642,1.106,0.642,1.938
			c0,0.053-0.002,0.127-0.006,0.229h-3.768c0.029,0.555,0.188,0.979,0.47,1.274c0.283,0.295,0.634,0.442,1.057,0.442
			c0.312,0,0.582-0.084,0.804-0.247C272.404,169.702,272.58,169.438,272.71,169.077z M269.898,167.692h2.821
			c-0.038-0.426-0.145-0.741-0.323-0.957c-0.272-0.329-0.629-0.493-1.062-0.493c-0.393,0-0.722,0.131-0.992,0.395
			C270.076,166.899,269.925,167.251,269.898,167.692z"/>
		<path d="M276.541,169.938l0.125,0.756c-0.242,0.052-0.458,0.076-0.646,0.076c-0.312,0-0.553-0.049-0.724-0.146
			c-0.172-0.099-0.293-0.228-0.361-0.39c-0.07-0.157-0.104-0.498-0.104-1.01v-2.906h-0.628v-0.666h0.628v-1.252l0.854-0.514v1.766
			h0.858v0.666h-0.858v2.955c0,0.244,0.015,0.4,0.044,0.47c0.029,0.071,0.08,0.127,0.146,0.17c0.066,0.039,0.166,0.062,0.293,0.062
			C276.259,169.972,276.384,169.96,276.541,169.938z"/>
	</g>
	<polyline fill="none" stroke="#000000" stroke-width="0.5" stroke-miterlimit="10" points="132.081,12.816 207.071,41.698 
		226.98,41.698 	"/>
	<line fill="none" stroke="#000000" stroke-width="0.5" stroke-miterlimit="10" x1="226.346" y1="66.058" x2="137.8" y2="66.058"/>
	<line fill="none" stroke="#000000" stroke-width="0.5" stroke-miterlimit="10" x1="226.98" y1="107.79" x2="141.047" y2="107.79"/>
	
		<line fill="none" stroke="#000000" stroke-width="0.5" stroke-miterlimit="10" x1="226.98" y1="168.161" x2="146.838" y2="168.161"/>
</g>
</svg>
