<?xml version="1.0" encoding="utf-8"?>
<!-- Generator: Adobe Illustrator 15.1.0, SVG Export Plug-In . SVG Version: 6.00 Build 0)  -->
<!DOCTYPE svg PUBLIC "-//W3C//DTD SVG 1.1//EN" "http://www.w3.org/Graphics/SVG/1.1/DTD/svg11.dtd">
<svg version="1.1" id="Layer_1" xmlns="http://www.w3.org/2000/svg" xmlns:xlink="http://www.w3.org/1999/xlink" x="0px" y="0px"
	 width="326.234px" height="150.879px" viewBox="0 0 326.234 150.879" enable-background="new 0 0 326.234 150.879"
	 xml:space="preserve">
<metadata><?xpacket begin="﻿" id="W5M0MpCehiHzreSzNTczkc9d"?>
<x:xmpmeta xmlns:x="adobe:ns:meta/" x:xmptk="Adobe XMP Core 5.0-c060 61.134777, 2010/02/12-17:32:00        ">
   <rdf:RDF xmlns:rdf="http://www.w3.org/1999/02/22-rdf-syntax-ns#">
      <rdf:Description rdf:about=""
            xmlns:dc="http://purl.org/dc/elements/1.1/">
         <dc:format>image/svg+xml</dc:format>
         <dc:title>
            <rdf:Alt>
               <rdf:li xml:lang="x-default">2-6</rdf:li>
            </rdf:Alt>
         </dc:title>
      </rdf:Description>
      <rdf:Description rdf:about=""
            xmlns:xmp="http://ns.adobe.com/xap/1.0/"
            xmlns:xmpGImg="http://ns.adobe.com/xap/1.0/g/img/">
         <xmp:CreatorTool>Adobe Illustrator CS5.1</xmp:CreatorTool>
         <xmp:CreateDate>2015-02-12T16:17:05+02:00</xmp:CreateDate>
         <xmp:ModifyDate>2015-02-12T16:17:05+02:00</xmp:ModifyDate>
         <xmp:MetadataDate>2015-02-12T16:17:05+02:00</xmp:MetadataDate>
         <xmp:Thumbnails>
            <rdf:Alt>
               <rdf:li rdf:parseType="Resource">
                  <xmpGImg:width>256</xmpGImg:width>
                  <xmpGImg:height>120</xmpGImg:height>
                  <xmpGImg:format>JPEG</xmpGImg:format>
                  <xmpGImg:image>/9j/4AAQSkZJRgABAgEBMAEwAAD/7QAsUGhvdG9zaG9wIDMuMAA4QklNA+0AAAAAABABMMzNAAEA&#xA;AQEwzM0AAQAB/+4ADkFkb2JlAGTAAAAAAf/bAIQABgQEBAUEBgUFBgkGBQYJCwgGBggLDAoKCwoK&#xA;DBAMDAwMDAwQDA4PEA8ODBMTFBQTExwbGxscHx8fHx8fHx8fHwEHBwcNDA0YEBAYGhURFRofHx8f&#xA;Hx8fHx8fHx8fHx8fHx8fHx8fHx8fHx8fHx8fHx8fHx8fHx8fHx8fHx8fHx8f/8AAEQgAeAEAAwER&#xA;AAIRAQMRAf/EAaIAAAAHAQEBAQEAAAAAAAAAAAQFAwIGAQAHCAkKCwEAAgIDAQEBAQEAAAAAAAAA&#xA;AQACAwQFBgcICQoLEAACAQMDAgQCBgcDBAIGAnMBAgMRBAAFIRIxQVEGE2EicYEUMpGhBxWxQiPB&#xA;UtHhMxZi8CRygvElQzRTkqKyY3PCNUQnk6OzNhdUZHTD0uIIJoMJChgZhJRFRqS0VtNVKBry4/PE&#xA;1OT0ZXWFlaW1xdXl9WZ2hpamtsbW5vY3R1dnd4eXp7fH1+f3OEhYaHiImKi4yNjo+Ck5SVlpeYmZ&#xA;qbnJ2en5KjpKWmp6ipqqusra6voRAAICAQIDBQUEBQYECAMDbQEAAhEDBCESMUEFURNhIgZxgZEy&#xA;obHwFMHR4SNCFVJicvEzJDRDghaSUyWiY7LCB3PSNeJEgxdUkwgJChgZJjZFGidkdFU38qOzwygp&#xA;0+PzhJSktMTU5PRldYWVpbXF1eX1RlZmdoaWprbG1ub2R1dnd4eXp7fH1+f3OEhYaHiImKi4yNjo&#xA;+DlJWWl5iZmpucnZ6fkqOkpaanqKmqq6ytrq+v/aAAwDAQACEQMRAD8A9U4q7FXYq7FUm846Re6x&#xA;5dutPs3VZ5Whb03dokmSKZJJLeSRFdkS4jRonZVJCsdsVeXP5N/O2C4jh8v3Gn6BpkcNwLCztWgi&#xA;trd3Fxx9a3itSszM0sFGWgXgx3ruqr6H5N/OWTWtHk1/URcaNaXEdz9We9SSSIR3MkhW4K2qfWpG&#xA;Qx8GDIE4kb91Uz1Hyx+co1GGSw1yBrOLVo24SO4dtLjnaccqKFMrJM0DhuQKohFGJKqpa3kj85oY&#xA;NDjttWt5ZGktpPNFzPKxluP3MKXUa8Y0Rkr64TkKgcKU3OKpY/5Xfmte6Lb2l9eW7SWQnjsknuFn&#xA;aNTb2scdJltoKo00MzheHwqwB9lWSeX9C/MLT/Nljp8t3cfof17281WVpZJomhExlsY4HdVERdpz&#xA;HJEtfgirsGGKvUcVdirsVdirsVdirsVdirsVdirzDzt+WvmbU/NWpeatF1E2WpwWEMGirG0cbPLS&#xA;eO4WWVopWRTHP+7A+H1OLsDwGKpFB5P/AOcg2uIFm8wiOD0WUyC5iZo4iZuELr9VHq3Kc4iZ9lIU&#xA;jjvirJvOnln80Z7i7TyxrSRWDWkX1RbmRxMt2GSGUl0G6fV1aQVO8p32xVI9V8j/AJyyWaXVnrUb&#xA;a3JYTWsk005CwSTNpzF7f040I3t7ljXY1XYiihVKp/yu/N25i1Oylv7c2F79cmkhedXikuLyR2WS&#xA;NFt0aEqHcP8AE3LkKUpQKoz/AAb+aWiyTfUdQmFzqd2YLU28jy2sEVzeX/qPLDxCR+jZ3MVwsn7U&#xA;sfA1LDkq9qVeKhak0FKnc/TireKuxV2KuxV2KuxV2KuxV2KuxV2KuxV2KuxV2KuxV2KuxV2KuxV2&#xA;KuxV2KuxV2KuxV2KuxV2KuxV2KuxV2KuxV2KuxVJ5W1FbmCMS3fGTnyFLSvwiop8OKuiOotdTxmW&#xA;74x8OIAtK7gk12xVQafVBpt1cetdepF9Y4GlpQek7hajj4LviqvcNqKS2yrLdgSyFGqLTcCN22+H&#xA;xXFXctR+u+j6t3w9PnSlpWvKn8uKut21F5blWluyIpAi0FpsDGjb/D4tiqgs+qHTbW49a69SX6vz&#xA;NLSh9V0DUHH/ACtsVSfUvP8AoGnak1lea1LbSWxpeLKLZeAaqo3Ipx4FwU5148vhry2xVNtK1STV&#xA;Kz2V1dzWbRo0bBbVW5epJG4YMoZSrR8SpFQQQcVXNPqg0y6uPWuvUi+scDS04/uncLX4f8nfFVe4&#xA;bUUltlWW7AlkKNUWm4Ebtt8PiuKu5aj9d9H1bvh6fOlLSteVP5cVdbtqLy3KtLdkRSBFoLTYGNG3&#xA;+HxbFVBZ9UOm2tx6116kv1fmaWlD6roGoOP+VtiqvK2orcwRiW74yc+QpaV+EVFPhxVFWMlz9anh&#xA;maRlSON19URcquXB/ugBT4BiqveLMVX0mlU139H0q/T6oI+7FUnafVBpt1cetdepF9Y4GlpQek7h&#xA;ajj/AJO+Kq902ox+lxluxzkVDUWnQ/7HFXO2oi9ihEt3weORyKWlaoyAfs/5ZxV1u2ovLcq0t2RF&#xA;IEWgtNgY0bf4fFsVUBPqf6JiujNdeq8cblqWnGr0rtx98VV5W1FbmCMS3fGTnyFLSvwiop8OKoHW&#xA;NdXRIby+1S6vYdPs4Y5ZZEhhmZQxk5MVhjkfiAlSabCpO2KpPZfmLol889jZ6tdS6mrTrFH9XRVq&#xA;kbzxVd4VT44Iy6b/ABqrFa0OKsmum1GP0uMt2Ocioai06H/Y4q521EXsUIlu+DxyORS0rVGQD9n/&#xA;ACzirrdtReW5VpbsiKQItBabAxo2/wAPi2KqAn1Q6TFdetdeq8cbk0tONWArtx98VV7htRSW2VZb&#xA;sCWQo1RabgRu23w+K4q5G1E3ssJlu+CRxuBS0rV2cH9n/IGKqJn1Madc3HrXXOL6xxJFrx/dO4Wo&#xA;C1/Z3xVQmhsfrtsBbR9JCR+j5ugAFad9yMVdBDY/XLn/AEaKnwUH6PmP7Ph2xVDvDZfoe9P1eOv+&#xA;lUP1CWv23p8Xb+GFURdQ2Pr2dLaP++Nf9x8w/wB0yffirvRsf0j/ALzRU9Hp+j5v5vDArrWGx9e8&#xA;rbR/3wp/uPmP+6Y/uwqh0hsv0PZH6vHX/Ran6hLX7aV+Lv8AxxVJtV/L/wAq3+qz3F7FcTyaoa3f&#xA;KO+AMcQQpCqhxSINFG3AbAqDgVONK0nStPmltYYPUQRrI0k9ncTSPJLNNJI7u5Zyzu5JJOFW3hsv&#xA;0Pen6vHX/SqH6hLX7b0+Lt/DFURdQ2Pr2dLaP++Nf9x8w/3TJ9+Ku9Gx/SP+80VPR6fo+b+bwwK6&#xA;1hsfXvK20f8AfCn+4+Y/7pj+7CqHSGy/Q9kfq8df9FqfqEtftpX4u/8AHFURPDY/XLb/AEaKnx1H&#xA;6PmH7Ph3wKmGkrCt9dCKNY19KGqrC1uK8pd+Dbn54qidSSBkT1Y1kFTQNA9xT6E6Yqx54bL9D3p+&#xA;rx1/0qh+oS1+29Pi7fwwqiL2Gx/cUtoh++Sv+4+YeOBXSQ2P6Rg/0aOnozbfo+b+aLthV1rDY+ve&#xA;Vto/74U/3HzH/dMf3Yqh0hsv0PZf6PHX/Ran6hL/ADpX4u/8cVRE8Nj9ctv9Gip8dR+j5h+z4d8C&#xA;oXUNG0bU5biyvLUNbMltIY47S6hq8UryIT6TI2zqG60qPbFUqi8n+VbeG61KGxK3iG6ZWaG+deQV&#xA;4FYq8jR1SKqJVf3akhaAnCqf3sNj+4pbRD98lf8AcfMPHArpIbH9Iwf6NHT0Ztv0fN/NF2wq61hs&#xA;fXvK20f98Kf7j5j/ALpj+7FUOkNl+hrP/R46n6qCfqEu9XSvxd6/jiqInhsfrlqPq0dKuafo+Yb8&#xA;fDv1wK6OGx/SM/8Ao0dPRh2/R8380vbCqgYrL9E3hFvGGBuqN9RlBH7x6fF0X+GKo6Rz+koP3Tf3&#xA;M3/H0380XflgV0Dn67dfum/3X/x9N/L/AK2KoZ3P6Gvf3bf8fe/1pv8AfknblviqJu3Pr2X7pv74&#xA;/wDH0x/3TJ/lbYq7mf0l/dN/c/8ALU383jyxV1o59e9/dN/fD/j6Yf7pj/yt8VQyOf0NZfu2/wCP&#xA;Tf603+/I+3LbFWLeedX/ADD06/T/AA7p8WoM0hEAZrk0haOLkjMsvEt6lWLEovFaV5cVdVkHla61&#xA;S4tpZtShf62XZeRlktmeJZHWCRoXdmjMkXFyjGqk02xVEu5/Q17+7b/j73+tN/vyTty3xVE3bn17&#xA;L90398f+Ppj/ALpk/wArbFXcz+kv7pv7n/lqb+bx5Yq60c+ve/um/vh/x9MP90x/5W+KoZHP6Gsv&#xA;3bf8em/1pv8AfkfbltiqJldjqFuPSagjlen1puoKL15f5RxVGaWa3V2xUqf3a7yGU0Ck/aJPcnbF&#xA;UTfEhFopbftKYvxBFcVSF3P6Gvf3bf8AH3v9ab/fknblviqJvXP+j/um/vk/4+mPj/lYq53Y6lFS&#xA;Jvghkr/pTftulN+X+QcVdaO31i9/dN/fD/j6Yf7pj/yt8VQyOf0NZfu2/wCPTf603+/I+3LbFUTO&#xA;5+u2v7pv92f8fTfy/wCtiqX65Jq4g1F9JHDUUt7drflK8wakzl14iRN2TkAa/Cd6HoVWG6Lf/me9&#xA;/eQ6xaCPRjPfcWRzT6v6MrVd/VqHW59NUHE8lL1rxDYq9CvXP+j/ALpv75P+Ppj4/wCVirpHP6Sg&#xA;/dN/czf8fTfzRd+WKutHb6xe/um/vh/x9sP90x/5WKoZHb9C2X7pv+PT/j6b+ePty2xVEzufrtr+&#xA;6b/dn/H038v+tiro3P6Sn/dN/cw/8fTfzS9+WKoZnP6Hvf3bf8fe/wBZJ/3ZJ+zy3/jiqJkM/wCk&#xA;oPij/uZv+PKb+aLtzxV0Bn+u3XxR/wC6/wDjymP7Phz2xVDOZ/0Ne/FHT/S/+POb/fknfnt/DCqJ&#xA;uzP69l8Uf98f+PKYf7pk/wAvfArqz/pL7Uf9z/yxTfzeHPFXWhn9e9+KP++H/HlMf90x/wCXtiqG&#xA;Qz/oWy+KP/j0/wCPOb/fkffnv/HCqy81nTbXVIVudSsYHVZIGWWEoRK4jlWMq0oPNoxyA8N8Cq+m&#xA;3kd48t3Z3Ntc2s6xvDcQ2sksbqV2ZGSQgj6cVU3M/wChr34o6f6X/wAec3+/JO/Pb+GFUTdmf17L&#xA;4o/74/8AHlMP90yf5e+BXVn/AEl9qP8Auf8Alim/m8OeKutDP6978Uf98P8AjymP+6Y/8vbFUMhn&#xA;/Qtl8UdP9E/485v9+R/tc9/44VRMhn/SUHxR/wBzN/x5TfzRdueBUbpXP6zecipNY/sxNCPs/wAr&#xA;lj9OKoi+58F4FQa78oXn/BCtMVSFzP8Aoa9+KOn+l/8AHnN/vyTvz2/hhVE3pn/0f4o/75P+PKYe&#xA;P+XgV1Z/0l9qP+5/5Ypv5vDnirrQz+ve/FH/AHw/48pj/umP/L2xVDIZ/wBDWXxR0/0T/jzm/wB+&#xA;R9+e/wDHCqJnM/121+KP/dn/AB5TD9nw574FU5LpLW7uZ7q5tbWBIYOc89s8UY5SSKtWeRQKsQBv&#xA;viqXDW9Jlsr6xh1fTJr2t6v1SILJNyQs7qESZmqqsCRT4Qd8VTW9M/8Ao/xR/wB8n/HlMPH/AC8V&#xA;dIZ/0lB8Uf8Aczf8eU380XbnirrQz+ve/FH/AHw/48pj/umP/L2xVDIZ/wBDWXxR0/0T/jzm/wB+&#xA;R9+e/wDHCqJnM/121+KP/dn/AB5TD9nw574FdGZ/0lP8Uf8Acw/8eU380vbniqGYzfoe9+KOn+l1&#xA;/wBDmB/vJP2udB/DCq6Sax/SMH+kx09Gbf8ASE380XfFXQTWP1y5/wBJip8FD+kJh+z498Cod5rL&#xA;9D3o+sR1/wBKoPr8tftvT4e/8cKoi6msfXs6XMf98a/7kJj/ALpk+7FXetY/pH/emKno9f0hN/N4&#xA;4FdaTWPrXh+sx0Mwof0hMK0ijHXvuMKodJrL9D2Q+sR1/wBFqPr8tftpX4e38MVSTzT5H8qeYb9f&#xA;rVyluZkked7a7iUvQQoyuzwyMS6ovJq8iBStCQQqcaFZ6bpqT2i3yzUdpnnkvjG0ktxI88rkQJDH&#xA;8UkjGioAOwxVe81l+h70fWI6/wClUH1+Wv23p8Pf+OFURdTWPr2dLmP++Nf9yEx/3TJ92Ku9ax/S&#xA;P+9MVPR6/pCb+bxwK61msfXvP9Ji/vhT/chMP90x/fhVDpNZfoeyH1iOv+i1H1+Wv20r8Pb+GKoi&#xA;Sax/SMH+kx09Gbf9ITfzRd8VTHRmiae8MTrIvJPiWZpxXj/O2/0YFRGpPAqJ6sixipoWne3r9Kdc&#xA;VY881l+h70fWI6/6VQfX5a/benw9/wCOFURezWP7ilzEf3yV/wByEx8cCu9ax/SP+9MVPR6/pCb+&#xA;bxxV1rNY+veVuY/74U/3ITD/AHTH9+FUOk1l+h7IfWI6/wCi1H1+Wv20r8Pb+GKoieax+uW3+kxU&#xA;+Op/SEx/Z8e2BUNf2ukaib6xup4Xt7m3hV+V6z9JJGBX1A45AqCNtsVY1p/kTyrpv1rVLS5VJlku&#xA;pltxdxiMuI57aM8UhV/gjnkp8XxFyz8m3CrLryaxL2qi5i+KYVP6QmNAqM30fZphV3rWP6Rr9Zio&#xA;Iev6Qm/m8cCutZrH17ytzH/fCn+5CYf7pj+/CqHSay/Q9kPrEdf9FqPr8tftpX4e38MVRE81j9ct&#xA;v9Jip8dT+kJj+z49sCujmsf0jP8A6THT0Yd/0hN/NL3wqoGWy/RN4BcRlibqi/XpST+8enw9G/ji&#xA;qC86edU8qyWV9f2eqzwSB4W+qQwXDp6ssMaHjHyryldEC/aJYUHXArG9C896tpnmbzMvmkX1vM9l&#xA;HrVrp8aQyC3s4UKNCHPwPOQFZo49y5alQKlVLvM8v5z3/lLVb2FbfTtGK3M72VF+vrbJIZ3V5S6o&#xA;spVGidAtBUkNsMVTTWPM1t5+vdP8vaDcX8uni4iu9T1azNsYlSJZZPqyXMTAJOzolfirwJK17KqU&#xA;3mfVPJV5qWjTXF9quqSPar5Yh1Ge3ee5bUBIEgknCtTjNaTUNPs8R1pVVjnlj8xtcbyfD5I8tma9&#xA;88aby0vUTSIi3S0WK1mv1X7brHLMlOXHkQ2/wk4qmVlc+ZPJY8v3/nTzDd3VrqwNrJIzW8NjBcyX&#xA;EF1bJHGzNsqLcD1XOyBa8UU0VSPWvzc/M/X9Xkk8m6XdQaTZzXMdrrUls1xHIkVk0ssdxEkXJWLN&#xA;E8QXqRSrUoVUy0Tzj50/MDVdP0a2Go6MkUIuPNssIit5nQQ+nGLVpVRlR7xJYz3ohp4hVdc6159/&#xA;LrQ6+Ybu81zy7JLdW/rwWyz3rzSRsqK9GZYUWaM0PI8ufUEfEqmGv3Hnj8wpdLt9H+vaJ5aNy1yN&#xA;WDW/O9tmheOEwUKUJKyvQ/Dx9JwfiFFUvu/MX5ueVdS0nzF5wuWnt7g3Ftf6LpsMDNxMU89skRLF&#xA;eSyLxeQ/sIvi2Kp5oX526Ld31/AtvqH1aOeQQ3cS28iztIoktI4loC8l1GsjxqvZf8oYql1/rHnP&#xA;QPL+ledda1O/i0Zp7U3mgrb2npQ2UzKsOzEzrNGFiaQswUHnsASMVXy/mt5oj1S380XGm3SeQRJP&#xA;YiRIo2vqF1RruVGCKkMcsaof9Y9eI5KvR/JfmTTvMdvdanpzyzWbuixTzKq8+KDlx4bUViUbuGDA&#xA;9MVTy8aYKvpLKxrv6PpV+n1SB92KsO1XX9Ss7K4s4dH1e+kmW7cSW6WXoBRLIH5yySRorL/KTVq/&#xA;DXeirV9rXnq5mtRY+XZooTN/0s72ztpGZUdvgS1jvhT4erMPlirX+JfMdjqAbXNDv4QYqCbSzFqk&#xA;Y+PYMscUVwCfaEr/AJWKtW3nK7uLm6h0nSNau7uWYEJcWn1CJQIY6tLPdRRovToKsewxVSTW/OEW&#xA;j2ZuPLt48K/VSptLrT5WIDpSizG23O1Pi+eKt3n5keXreeF724vbCeIPWyvIY4LtiQBxht3USTEn&#xA;Yemrcv2a4qhr/wAxfmHJHfalo+im2hjtreSGPVZVW6lT1X/49raKYxkoWKh3DV2ZVxVjdr+aHnJZ&#xA;59P1ryvqWnWTveRyzxQyXa09OSX1QyW6Hgr8FaqAfHWvwmqrMbrzTruoTWf6A0a/ugs5rc6iYtNt&#xA;z+5kqEaSKSZzTcFYSn+VXFXDU/zJTUQ0ugwvSL41h1OIvx5fsiSzjQ/SwxVfD5uvbWa7OoaJrtqT&#xA;KCTFbW18K+jGP+PFrpu3gNsVQiebr260i0t9I0jWLq6UWtDdWw0+2WkiULT3UaVBPT01dvFaYqr3&#xA;F9+Z31q2k/Q1oHUPwt/0ip5Hjv8AvvqY4/8AIs4qqR+aNb/SM0I8va0dQMMKvABYCNaNJ8X1lpFh&#xA;Kb7Ubl/k12xVZBr2ufo64ttQ0TU7UzG7UXCGyubYNykJDvExlQeLNGB74qnMkSfpGD47T+5m/wCP&#xA;Vqfai7ephVKtY8qaTrt9Cb54KabdQXsIjt3RXeNTRJAH+KMkgsnQkCuBUZJDG2i3wLWhB+tgg2rV&#xA;I5yd+eFUNpnlXy95fS1tNFtNPsLaS5aWSOCzZQz/AFd15N+8JY0UYFQuo+R/Lmq+crLX71LaTUdH&#xA;ijNi/oSiMFjMPijEvFiOVRXvTwxVH6T5e0O1v7zULe002G+mllWS5WxpIyu4kccg9aM/xMO53OKr&#xA;Z9N0+70SwW7isLhVNsVWWz50L8Y2+056xyMreKkjvhVH/U4k1CERizUelMW42bAcmaM7gP1OBVtt&#xA;a2w1G7nX6kJZFhVpfqhqyKGKivqVoOZI+ZxVQeJP0Ne/Ha/8ff8Ax6tX7cnQ+pt7YVRN3Enr2fx2&#xA;n98elqw/3TJ1/eYqsks7a4vZopvqTxiBVKtaMVIlLqwp6ngtPpwKgNH8qeXbQubez0+Mwzo0X+hs&#xA;eJt4fq8RWsnw8IjxX2xVEiGJtFswzWhDC1DKbViaF0rU89/fxwqiZYIm1CFWazKmGaoNo1PtRdR6&#xA;mKo3Q7eC3ku4oFhSMMhC28XooCVqfgq29epwKitQVWRKmIb/AO7ojKPoAZaYqx94k/Q178dr/wAf&#xA;e31Vq/bk6Hnt7YVRN3Enr2fx2n98elqw/wB0ydf3m+Ku9JP0j9u0/uf+WVqfa8PUwK60iT17z47T&#xA;++HW1Y/7pj6fvNsKoZIk/Q1l8dr/AMen/Hq1ftx9T6m/viqJniT65a/Haft/8erU+z3HqYFbihVt&#xA;RuOLWhpFEP8AeRiK8pDSnqddxiqHktiujXtfqw/3qO9o4P236Hnt7YVV7uJPXs/jtP749LVh/umT&#xA;r+83xV3pJ+kft2n9z/yytT7Xh6mBXWkSevefHaf3w62rH/dMfT95thVDJEn6Gsvjtf8Aj0/49Wr9&#xA;uPqfU398VRM8SfXLX47T9v8A49Wp9nuPUwK6OKP9JT/Haf3MP/Hq1PtS9vUwqhzEn6IvDztet10t&#xA;mDf3j9G57e3hiqPkhl/SUG13/czf7sjr9uL/ACsCughl+u3W13/uv/dkdfs/62KoZ4ZTod41Lriy&#xA;3TD95HQqzORUcvA74qibuGX6xZbXf98eskf++ZOnxYq6OGX9JT7Xf9zD/uyOv25f8rFXWMMv+kbX&#xA;f98/SSP2/wArFUMkMv6FsTS6p/on+7I6f3kfT4vuxVjfnT8uIfMV8YlH1Vb12urxngjmmZoo44Q0&#xA;cvrxmNxRG5b/AGVBDJyUqp55W0GTR7aWwBnbg7SH0BFBEpnkeYpFF6j+nGhk4ovI0UAVxVEPFL+h&#xA;L1qXXEi6YH1I+NC7kH7WKom7hl+sWW13/fHrJH/vmTp8WKujhl/SU+13/cw/7sjr9uX/ACsVdYwy&#xA;/wCkbXf98/SSP2/ysVQyQy/oWxNLqn+if7sjp/eR9Pi+7FUTJDL+koNrv+5m/wB2R1+3F/lYqi9M&#xA;VlurwN6gNY/70qzfZ8VJGKom8R2VeIlND/ullU/TyIxVInhl/Qt8aXVP9L/3ZHT+8k6/F9+Kom7h&#xA;l+sWW13/AHx6yR/75k6fFirvRl/SXS7/ALn/AH5HX7f+tirrSGX6xe7Xf98Okkf++Y+vxYqhkhl/&#xA;QtiaXVP9E/3ZHT+8j6fF92KomeGU39qtLuvGRqepHWgCgn7XiwxVAatoK6xaappk63Pp3CwjkzRt&#xA;xZCJFanNa0ZB3xVilj+Wv1PULrzD6pEolvZpY4LeOEFjFPbBVIncIvCT94FX94UjZviUsyrOruGX&#xA;6xZbXf8AfHrJH/vmTp8WKu9GX9JdLv8Auf8Afkdft/62KutIZfrF7td/3w6SR/75j6/FiqGSGX9C&#xA;2JpdU/0T/dkdP7yPp8X3YqiZ4Zfrtrtd/wC7P92R1+z/AK2Kughl+u3W13/uv/dkdfs/62KoZoZR&#xA;o16aXVB9brWSPj/eSdRy+/FWpIbH9Iwf6NHT0Ztv0fN/NF2wq63hsTd3R+rRlQUX/jnyncICdu32&#xA;hgVDmGy/QUx+rx8vRl3+oS16N+10wqiLqGx9ezpbR/3xr/uPmH+6ZPvxV0cNj+kZ/wDRo6ejDt+j&#xA;5v5pe2KusobH9/W2iP756f7j5j4YFQ6Q2X6Hsj9Xjr/otT9Qlr9tK/F3/jhVjPnTzxbeWb5mm0SG&#xA;ZYAyRoI0Rp0k+r7xJViZA0v92aHgrt+zQhU98r6jZavay3zWdtGWdomWC1e6hLQSPCzRTIFDxuY+&#xA;SNQVUg0GKokw2X6CmP1ePl6Mu/1CWvRv2umFURdQ2Pr2dLaP++Nf9x8w/wB0yffiro4bH9Iz/wCj&#xA;R09GHb9HzfzS9sVdZQ2P7+ttEf3z0/3HzHwwKh0hsv0PZH6vHX/Ran6hLX7aV+Lv/HCqIkhsf0jB&#xA;/o0dPRm2/R8380XbFUx0ZYlnvBEixryT4VhaAV4/yNv9OBURqSQMierGsgqaBoHuKfQnTFWPPDZf&#xA;oe9P1eOv+lUP1CWv23p8Xb+GFURdQ2Pr2dLaP++Nf9x8w/3TJ9+Ku9Gx/SP+80VPR6fo+b+bwwK6&#xA;1hsfXvK20f8AfCn+4+Y/7pj+7CqGWGy/Q9kfq8df9FqfqEtT8cdfi7/xxVEyQ2P6Rg/0aOnozbfo&#xA;+b+aLtiqB1W9s9LtNT1FdOju/qqxMYBaGElSQrNymKqAobke5A2BO2BWKab+YWkale3WiR6TFHIZ&#xA;LmIzlI2YF7ea8SiKeR4pGUkp/dvxG4NcKs5uobH17OltH/fGv+4+Yf7pk+/FXejY/pH/AHmip6PT&#xA;9HzfzeGBXWsNj695W2j/AL4U/wBx8x/3TH92FUOkNl+h7I/V46/6LU/UJf546/F3/jiqIlhsTf26&#xA;/VogAkrn/cfNvQotKf7PFXQQ2P1y5/0aKnwUH6PmP7Ph2wKoGKy/RN4RbxhgbqjfUZQR+8enxdF/&#xA;hhVFSTH9JQHlD/czf8f0tPtRd+OBXWkx9e8+KD++H/H9KP8AdMf+TviqHMx/QM45Q/3Mv/H7LXo3&#xA;7PHCqIu5j69n8UH98f8Aj+lP+6ZP8nbAro5j+kp/ig/uYf8Aj+lp9qXvxxVuymP7/wCKD++f/j+l&#xA;Hh/k4qhkmP6Gshyh/wCPT/j9lr9uP9njt/DCqIklH6Sg3g/upW/3ulpyBjANeHUBiB8zgV1pKBcX&#xA;dGgAWRUUfXpQAoiQinwb/axVDmY/oGccof7mX/j9lr0b9njhVEXcx9ez+KD++P8Ax/Sn/dMn+Ttg&#xA;V0cx/SU/xQf3MP8Ax/S0+1L344q3ZTH9/wDFB/fP/wAf0o8P8nFUMkx/Q1kOUP8Ax6f8fstftx/s&#xA;8dv4YVREkx/SUHxQf3M3/H9LT7UXfjgVMNGbnJeuSppKqfBK0woIkb7bAH9vFVfUH4om6Df9udoB&#xA;96hq4qkDzH9DXo5Q/wDH3/x+y1+3J+zx3/jhVEXcx9ez+KD++P8Ax/Sn/dMn+TtgVv1j+kftQf3P&#xA;/LdLT7XjxxVq0mJlu25Q0abat9KPsxop/Z33XFUMkx/Q1kOUP/Hp/wAfstftx/s8dv4YVRMkx/SU&#xA;HxQf3M3/AB/S0+1F344FdFIGu7oMYCp4VBvpaH4f9TfFUG4h/RV4/G35j64Q31yTl8TvWg4b1p9O&#xA;FUZdzH17P4oP74/8f0p/3TJ/k7YFb9Y/pH7UH9z/AMt0tPtePHFWrSf99eHlDQzCh+vSjpFGNjx3&#xA;6Yqhkm/3DWXxQ/8AHp/x+y1+3H+zx2/hhVEyTH9JQfFB/czf8f0tPtRd+OBW4Jj9cuvig/3X/wAf&#xA;0o/Z8eO+KoYzH9EXg5Q7m6/4/ZSf7x+i8aH+OFUfItx+koP9Iu6+jNv6cNftxf8AFeBXWi3H1i9/&#xA;0i7/AL4dI4f98x9f3eKoZln/AEBP+/uqejNtwh49G/4rriqJu1uPrFl/pF3/AHx6xw/75k6fu8Vd&#xA;Gtx+kp/9Iu6+jDv6cNfty/8AFeKtWhnRLlzcXYVZXJpHD2p/xXiqh6dymkWatPdAqbQFeENARJGN&#xA;v3f3YVYr598l+Ydf8xG6sNUns4ZdNW1WyPqJGWiuRK7v6RVqsHUVB/Z3B7BWY2KXKyXS/WLuqyIr&#xA;EJEakQRCp5IxqfniqHZZ/wBAT/v7qnozbcIePRv+K64qibtbj6xZf6Rd/wB8escP++ZOn7vFXRrc&#xA;fpKf/SLuvow7+nDX7cv/ABXirrFbj/SP9Iu/75+kcPt/xXiqGQT/AKFsf9Iuqf6JQcIaf3kfT939&#xA;2FUTILj9Jwf6Rd/3M2/pwV+3F/xXgVF6SHD33N5HP1gfFKFVv7iLsgUfhiqJvBIVXhJLGa7mFUYn&#xA;581bFUidZ/0Lffv7qn+l1HCGn95J1/d1+eFUTdrcfWLL/SLv++PWOH/fMnT93gV3G4/SX+9F3X0e&#xA;vpw1+3/xjxV1itx/pH+kXf8AfP0jh9v+K8VQyLP+hbH9/dU/0Sg4Q0/vI+n7uvywqiZFuP0lB/pF&#xA;3X0Zt/Thr9uL/ivAqF1C31O5stctbK6uY765tXgtLhlVfSmkiZY5axKjjgxrscVYr5R8uebNKt9Z&#xA;n1bVLm9tpbV4IA801w6tCoQ1EoES8Wjf40QF+ZLBSBirNLtbj6xZf6Rd/wB8escP++ZOn7vFXcbj&#xA;9Jf70XdfR6+nDX7f/GPFXWK3H+kf6Rd/3z9I4fb/AIrxVDIs/wChbH9/dU/0Sg4Q0/vI+n7uvywq&#xA;iZFuP0lB/pF3X0Zt/Thr9uL/AIrwK6Bbj67df6Rd/wC6/wDdcNfs9/3eKoZhP+hr39/dU/0uoKQ8&#xA;T+8k6/BX54VakbTP0jB+/tKejNU+saV5Rf5WBXWraZ695We0p6wpWY9PRj6fFiqHLab+gpv39ry9&#xA;GWg9U8q0btywqiLptM9ezpPaU9Y1pMenoydfiwK6NtM/SM/7+0p6MND6xpXlL/lYqpxtpn1e8/f2&#xA;leclP3x8O3xYq6ZtM/R8FJ7SvO3qPWNf71K/tYqkfm7ztoXlvzAthc2FzdXEVkLki2ReBFxMI0QP&#xA;NPCvqfuXbj/KCfbFU/spNLeS6f1rZQ8isoeUqaGGM9C2KqBbTf0FN+/teXoy0HqnlWjduWFURdNp&#xA;nr2dJ7SnrGtJj09GTr8WBXRtpn6Rn/f2lPRhofWNK8pf8rFXWTaX+/rPaf3z0rMfb/KxVDo2m/oe&#xA;y/f2vL/Raj1TX7aVqOX34VREjaZ+kYP39pT0Zqn1jSvKL/KwKmWhmA/XvRaN0+sD4om5rX0Iu9Ti&#xA;qvqRtgieu8SCp4mZ+Ar7bjFWPO2m/oe9/f2vL/SqD1TX7b0oOX3YVRF02mevZ0ntKesa0mPT0ZOv&#xA;xYFdGdL/AEjP+/tKejDQ+safakr+1irrJtL/AH9Z7T++elZj7f5WKodG039D2X7+15f6LUeqa/bS&#xA;tRy+/CqIkbTP0jB+/tKejNU+saV5Rf5WBVG4vdHsYdX1KeW3Npp9ubu5aN2crDBGXkYAN2AxVJND&#xA;81aBren6nBaIY3ghmmZ5qqn7wCRkV1kdS0Xror9qmgJ3oqyG6bTPXs6T2lPWNaTHp6MnX4sVcp0w&#xA;6jJWe0okMfH98aEsz1/a/wAkYq6ybS/39Z7T++elZj7f5WKodG039D2X7+15f6LUeqa/bStRy+/C&#xA;qIkbTP0jB+/tKejNU+saV5Rf5WBXQNpf1y5/f2lPgp++NPs9vixVQLab+ibyk1rzrdcQJTyP7x6U&#xA;HL7sKpo66ib2KYRXfBI5EJraVq7IR3/yDgV1uuoxy3LNFd0lkDrQ2nQRou+/iuKqJg1M6TLa+lde&#xA;o8ciAVtONWBpvWvfFVa4XUZJbZliu6RSF2qbToY3XbfxbFXIuoi9lmMV3weONAa2laozk9/8sYqs&#xA;ji1JbWeMxXXqStK3W0oebHjX4v5aYq6WLUms4YhFdckaEkE2lP3bqxpv4LtiqE1LQbTU7xZtQ0k3&#xA;qmB4JWuIbCVinqJIifHyqgZS1PHfFUdbrqEctyxiuwssgZKG06CNE338VxVRMGpnSZbX0rr1HjkQ&#xA;CtpxqwNN6174qrXC6jJLbMsV3SKQu1TadDG67b+LYq5F1EXssxiu+DxxoDW0rVGcnv8A5YxVbAuq&#xA;RQy/urr1neRxvaU3Y8K7/wAtK4qsNvqIsLe2SK7rCYNibSlInUnv4Liqq66ib2KYRXfBI5EJraVq&#xA;7IR3/wAg4qi9MjuFN08yuplmDoJTGW4iJF/3WSvVTiqteNMFX0llY139H0q/T6pA+7FUoaDUzptz&#xA;b+ldepN9Y4itpx/es5WprX9rfFVa4XUZJbZliu6RSF2qbToY3XbfxbFXIuoi9lmMV3weONAa2lao&#xA;zk9/8sYq62XUY/V5RXfxyM4obTofHfFVFYNTGm21v6V16kP1fkK2nH90yFqGtf2dsVVnXUTexTCK&#xA;74JHIhNbStXZCO/+QcVU5LS5n+uRXVrcTWt2gjlhcWbK6FSrq6k0IINKYqlth5XtdOtL0adpJtLu&#xA;6jeFpIY7KMvGOQhV2UhjRSMVTa4XUZJbZliu6RSF2qbToY3XbfxbFXIuoi9lmMV3weONAa2laozk&#xA;9/8ALGKutl1GP1eUV38cjOKG06Hx3xVRWDUxpttb+ldepD9X5Ctpx/dMhahrX9nbFVZ11E3sUwiu&#xA;+CRyITW0rV2Qjv8A5BxV0S6itzPIYrvjJw40NpX4RQ13xVRNvqZ0+5tvSuec3r8am14/vXYrWhr+&#xA;1vTFX//Z</xmpGImg:image>
               </rdf:li>
            </rdf:Alt>
         </xmp:Thumbnails>
      </rdf:Description>
      <rdf:Description rdf:about=""
            xmlns:xmpMM="http://ns.adobe.com/xap/1.0/mm/"
            xmlns:stRef="http://ns.adobe.com/xap/1.0/sType/ResourceRef#"
            xmlns:stEvt="http://ns.adobe.com/xap/1.0/sType/ResourceEvent#">
         <xmpMM:DocumentID>xmp.did:F8C3D56D3420681188C69098C6AB8D67</xmpMM:DocumentID>
         <xmpMM:InstanceID>xmp.iid:F8C3D56D3420681188C69098C6AB8D67</xmpMM:InstanceID>
         <xmpMM:RenditionClass>proof:pdf</xmpMM:RenditionClass>
         <xmpMM:OriginalDocumentID>uuid:5822AC831C25DF11856F8009DB15D919</xmpMM:OriginalDocumentID>
         <xmpMM:DerivedFrom rdf:parseType="Resource">
            <stRef:instanceID>uuid:3882d11c-3af7-46ca-a9c0-3d8a3f9ea836</stRef:instanceID>
            <stRef:documentID>uuid:5822AC831C25DF11856F8009DB15D919</stRef:documentID>
            <stRef:originalDocumentID>uuid:5822AC831C25DF11856F8009DB15D919</stRef:originalDocumentID>
            <stRef:renditionClass>proof:pdf</stRef:renditionClass>
         </xmpMM:DerivedFrom>
         <xmpMM:History>
            <rdf:Seq>
               <rdf:li rdf:parseType="Resource">
                  <stEvt:action>saved</stEvt:action>
                  <stEvt:instanceID>xmp.iid:F8C3D56D3420681188C69098C6AB8D67</stEvt:instanceID>
                  <stEvt:when>2015-02-12T16:17:05+02:00</stEvt:when>
                  <stEvt:softwareAgent>Adobe Illustrator CS5.1</stEvt:softwareAgent>
                  <stEvt:changed>/</stEvt:changed>
               </rdf:li>
            </rdf:Seq>
         </xmpMM:History>
      </rdf:Description>
      <rdf:Description rdf:about=""
            xmlns:pdf="http://ns.adobe.com/pdf/1.3/">
         <pdf:Producer>Adobe PDF library 7.77</pdf:Producer>
      </rdf:Description>
      <rdf:Description rdf:about=""
            xmlns:xmpTPg="http://ns.adobe.com/xap/1.0/t/pg/"
            xmlns:stDim="http://ns.adobe.com/xap/1.0/sType/Dimensions#"
            xmlns:xmpG="http://ns.adobe.com/xap/1.0/g/">
         <xmpTPg:MaxPageSize rdf:parseType="Resource">
            <stDim:w>115.088238</stDim:w>
            <stDim:h>53.226725</stDim:h>
            <stDim:unit>Millimeters</stDim:unit>
         </xmpTPg:MaxPageSize>
         <xmpTPg:NPages>1</xmpTPg:NPages>
         <xmpTPg:HasVisibleTransparency>False</xmpTPg:HasVisibleTransparency>
         <xmpTPg:HasVisibleOverprint>False</xmpTPg:HasVisibleOverprint>
         <xmpTPg:PlateNames>
            <rdf:Seq>
               <rdf:li>Cyan</rdf:li>
               <rdf:li>Magenta</rdf:li>
               <rdf:li>Yellow</rdf:li>
               <rdf:li>Black</rdf:li>
            </rdf:Seq>
         </xmpTPg:PlateNames>
         <xmpTPg:SwatchGroups>
            <rdf:Seq>
               <rdf:li rdf:parseType="Resource">
                  <xmpG:groupName>Default Swatch Group</xmpG:groupName>
                  <xmpG:groupType>0</xmpG:groupType>
               </rdf:li>
            </rdf:Seq>
         </xmpTPg:SwatchGroups>
      </rdf:Description>
   </rdf:RDF>
</x:xmpmeta>
                                                                                                    
                                                                                                    
                                                                                                    
                                                                                                    
                                                                                                    
                                                                                                    
                                                                                                    
                                                                                                    
                                                                                                    
                                                                                                    
                                                                                                    
                                                                                                    
                                                                                                    
                                                                                                    
                                                                                                    
                                                                                                    
                                                                                                    
                                                                                                    
                                                                                                    
                                                                                                    
                           
<?xpacket end="w"?>
	</metadata>
<g>
	<g>
		<g>
			<g>
				<line fill="none" stroke="#808285" stroke-width="0.5" x1="169.068" y1="24.617" x2="325.512" y2="24.617"/>
				<line fill="none" stroke="#A7A9AC" stroke-width="0.5" x1="169.068" y1="28.601" x2="325.512" y2="28.601"/>
				<line fill="none" stroke="#808285" stroke-width="0.5" x1="169.068" y1="32.516" x2="325.512" y2="32.516"/>
				<line fill="none" stroke="#A7A9AC" stroke-width="0.5" x1="169.068" y1="36.433" x2="325.512" y2="36.433"/>
				<line fill="none" stroke="#808285" stroke-width="0.5" x1="169.068" y1="40.417" x2="325.512" y2="40.417"/>
				<line fill="none" stroke="#A7A9AC" stroke-width="0.5" x1="169.068" y1="44.333" x2="325.512" y2="44.333"/>
				<line fill="none" stroke="#808285" stroke-width="0.5" x1="169.068" y1="48.249" x2="325.512" y2="48.249"/>
				<line fill="none" stroke="#A7A9AC" stroke-width="0.5" x1="169.068" y1="52.232" x2="325.512" y2="52.232"/>
				<line fill="none" stroke="#808285" stroke-width="0.5" x1="169.068" y1="56.148" x2="325.512" y2="56.148"/>
				<line fill="none" stroke="#A7A9AC" stroke-width="0.5" x1="169.068" y1="60.064" x2="325.512" y2="60.064"/>
				<line fill="none" stroke="#808285" stroke-width="0.5" x1="169.068" y1="64.048" x2="325.512" y2="64.048"/>
				<line fill="none" stroke="#A7A9AC" stroke-width="0.5" x1="169.068" y1="67.964" x2="325.512" y2="67.964"/>
				<line fill="none" stroke="#808285" stroke-width="0.5" x1="169.068" y1="71.948" x2="325.512" y2="71.948"/>
				<line fill="none" stroke="#A7A9AC" stroke-width="0.5" x1="169.068" y1="75.864" x2="325.512" y2="75.864"/>
				<line fill="none" stroke="#808285" stroke-width="0.5" x1="169.068" y1="79.78" x2="325.512" y2="79.78"/>
				<line fill="none" stroke="#A7A9AC" stroke-width="0.5" x1="169.068" y1="83.764" x2="325.512" y2="83.764"/>
				<line fill="none" stroke="#808285" stroke-width="0.5" x1="169.068" y1="87.68" x2="325.512" y2="87.68"/>
				<line fill="none" stroke="#A7A9AC" stroke-width="0.5" x1="169.068" y1="91.598" x2="325.512" y2="91.598"/>
				<line fill="none" stroke="#808285" stroke-width="0.5" x1="169.068" y1="95.579" x2="325.512" y2="95.579"/>
				<line fill="none" stroke="#A7A9AC" stroke-width="0.5" x1="169.068" y1="99.495" x2="325.512" y2="99.495"/>
				<line fill="none" stroke="#808285" stroke-width="0.5" x1="169.068" y1="103.412" x2="325.512" y2="103.412"/>
				<line fill="none" stroke="#A7A9AC" stroke-width="0.5" x1="169.068" y1="107.396" x2="325.512" y2="107.396"/>
				<line fill="none" stroke="#808285" stroke-width="0.5" x1="169.068" y1="111.312" x2="325.512" y2="111.312"/>
				<line fill="none" stroke="#A7A9AC" stroke-width="0.5" x1="169.068" y1="115.229" x2="325.512" y2="115.229"/>
				<line fill="none" stroke="#808285" stroke-width="0.5" x1="169.068" y1="119.212" x2="325.512" y2="119.212"/>
				<line fill="none" stroke="#A7A9AC" stroke-width="0.5" x1="169.068" y1="123.128" x2="325.512" y2="123.128"/>
				<line fill="none" stroke="#808285" stroke-width="0.5" x1="169.068" y1="127.111" x2="325.512" y2="127.111"/>
				<line fill="none" stroke="#A7A9AC" stroke-width="0.5" x1="169.068" y1="131.027" x2="325.512" y2="131.027"/>
				<line fill="none" stroke="#808285" stroke-width="0.5" x1="169.068" y1="134.943" x2="325.512" y2="134.943"/>
				<line fill="none" stroke="#A7A9AC" stroke-width="0.5" x1="169.068" y1="138.928" x2="325.512" y2="138.928"/>
				<line fill="none" stroke="#808285" stroke-width="0.5" x1="169.068" y1="142.844" x2="325.512" y2="142.844"/>
				<line fill="none" stroke="#A7A9AC" stroke-width="0.5" x1="169.068" y1="146.76" x2="325.512" y2="146.76"/>
				<line fill="none" stroke="#808285" stroke-width="0.5" x1="169.068" y1="150.743" x2="325.512" y2="150.743"/>
			</g>
			<g>
				<line fill="none" stroke="#808285" stroke-width="0.5" x1="175.347" y1="24.617" x2="174.808" y2="150.878"/>
				<line fill="none" stroke="#808285" stroke-width="0.5" x1="183.249" y1="24.617" x2="182.776" y2="150.878"/>
				<line fill="none" stroke="#808285" stroke-width="0.5" x1="191.215" y1="24.617" x2="190.674" y2="150.878"/>
				<line fill="none" stroke="#808285" stroke-width="0.5" x1="199.047" y1="24.617" x2="198.575" y2="150.878"/>
				<line fill="none" stroke="#808285" stroke-width="0.5" x1="207.015" y1="24.617" x2="206.474" y2="150.878"/>
				<line fill="none" stroke="#808285" stroke-width="0.5" x1="214.915" y1="24.617" x2="214.442" y2="150.878"/>
				<line fill="none" stroke="#808285" stroke-width="0.5" x1="222.881" y1="24.617" x2="222.341" y2="150.878"/>
				<line fill="none" stroke="#808285" stroke-width="0.5" x1="230.782" y1="24.617" x2="230.309" y2="150.878"/>
				<line fill="none" stroke="#808285" stroke-width="0.5" x1="238.749" y1="24.617" x2="238.208" y2="150.878"/>
				<line fill="none" stroke="#808285" stroke-width="0.5" x1="246.648" y1="24.617" x2="246.176" y2="150.878"/>
				<line fill="none" stroke="#808285" stroke-width="0.5" x1="254.616" y1="24.617" x2="254.076" y2="150.878"/>
				<line fill="none" stroke="#808285" stroke-width="0.5" x1="262.515" y1="24.617" x2="262.042" y2="150.878"/>
				<line fill="none" stroke="#808285" stroke-width="0.5" x1="270.483" y1="24.617" x2="269.943" y2="150.878"/>
				<line fill="none" stroke="#808285" stroke-width="0.5" x1="278.383" y1="24.617" x2="277.843" y2="150.878"/>
				<line fill="none" stroke="#808285" stroke-width="0.5" x1="286.35" y1="24.617" x2="285.809" y2="150.878"/>
				<line fill="none" stroke="#808285" stroke-width="0.5" x1="294.25" y1="24.617" x2="293.709" y2="150.878"/>
				<line fill="none" stroke="#808285" stroke-width="0.5" x1="302.216" y1="24.617" x2="301.676" y2="150.878"/>
				<line fill="none" stroke="#808285" stroke-width="0.5" x1="310.117" y1="24.617" x2="309.577" y2="150.878"/>
				<line fill="none" stroke="#808285" stroke-width="0.5" x1="318.083" y1="24.617" x2="317.544" y2="150.878"/>
				<line fill="none" stroke="#808285" stroke-width="0.5" x1="325.984" y1="24.617" x2="325.444" y2="150.878"/>
			</g>
		</g>
		<rect x="240.842" y="29.005" fill="#FFFFFF" width="11.479" height="5.875"/>
		<rect x="241.179" y="45.075" fill="#FFFFFF" width="11.479" height="5.874"/>
		<rect x="241.314" y="60.402" fill="#FFFFFF" width="11.479" height="5.806"/>
		<rect x="241.381" y="92.34" fill="#FFFFFF" width="11.479" height="5.873"/>
		<rect x="241.247" y="107.936" fill="#FFFFFF" width="11.479" height="5.808"/>
		<rect x="241.044" y="124.006" fill="#FFFFFF" width="11.479" height="5.807"/>
		<rect x="240.909" y="140.075" fill="#FFFFFF" width="11.479" height="5.806"/>
		<rect x="240.775" y="76.539" fill="#FFFFFF" width="11.545" height="5.807"/>
		<g>
			<g>
				<g enable-background="new    ">
					<path d="M244.747,33.447v0.554h-3.099c-0.004-0.139,0.018-0.271,0.067-0.399c0.079-0.211,0.205-0.419,0.379-0.624
						c0.174-0.204,0.425-0.441,0.753-0.71c0.51-0.418,0.854-0.749,1.033-0.993c0.179-0.244,0.269-0.475,0.269-0.692
						c0-0.228-0.081-0.42-0.245-0.577c-0.162-0.156-0.375-0.234-0.638-0.234c-0.277,0-0.499,0.083-0.665,0.249
						s-0.25,0.396-0.253,0.69l-0.591-0.061c0.04-0.441,0.192-0.777,0.457-1.009c0.264-0.231,0.619-0.347,1.064-0.347
						c0.449,0,0.807,0.124,1.068,0.374c0.262,0.249,0.393,0.559,0.393,0.927c0,0.188-0.037,0.372-0.114,0.554
						s-0.204,0.372-0.382,0.572c-0.179,0.2-0.475,0.476-0.889,0.825c-0.345,0.29-0.566,0.486-0.664,0.59
						c-0.099,0.104-0.18,0.208-0.244,0.312H244.747z"/>
					<path d="M245.365,31.688c0-0.554,0.057-1,0.17-1.338c0.115-0.338,0.284-0.599,0.509-0.782c0.226-0.183,0.509-0.274,0.849-0.274
						c0.252,0,0.473,0.051,0.662,0.151c0.19,0.102,0.348,0.247,0.471,0.438c0.123,0.19,0.221,0.423,0.291,0.697
						c0.07,0.273,0.105,0.643,0.105,1.107c0,0.551-0.057,0.994-0.17,1.332s-0.281,0.6-0.506,0.784
						c-0.226,0.184-0.51,0.276-0.854,0.276c-0.451,0-0.807-0.162-1.064-0.486C245.519,33.205,245.365,32.569,245.365,31.688z
						 M245.956,31.688c0,0.771,0.091,1.282,0.271,1.537s0.402,0.382,0.666,0.382c0.266,0,0.487-0.128,0.668-0.384
						c0.18-0.256,0.27-0.768,0.27-1.535c0-0.771-0.09-1.284-0.27-1.538c-0.181-0.254-0.405-0.38-0.674-0.38
						c-0.264,0-0.475,0.111-0.633,0.335C246.054,30.392,245.956,30.919,245.956,31.688z"/>
					<path d="M249.008,31.688c0-0.554,0.057-1,0.17-1.338c0.115-0.338,0.284-0.599,0.509-0.782c0.226-0.183,0.509-0.274,0.849-0.274
						c0.252,0,0.473,0.051,0.662,0.151c0.19,0.102,0.348,0.247,0.471,0.438c0.123,0.19,0.221,0.423,0.291,0.697
						c0.07,0.273,0.105,0.643,0.105,1.107c0,0.551-0.057,0.994-0.17,1.332s-0.281,0.6-0.506,0.784
						c-0.226,0.184-0.51,0.276-0.854,0.276c-0.451,0-0.807-0.162-1.064-0.486C249.162,33.205,249.008,32.569,249.008,31.688z
						 M249.598,31.688c0,0.771,0.091,1.282,0.271,1.537s0.402,0.382,0.666,0.382c0.266,0,0.487-0.128,0.668-0.384
						c0.18-0.256,0.27-0.768,0.27-1.535c0-0.771-0.09-1.284-0.27-1.538c-0.181-0.254-0.405-0.38-0.674-0.38
						c-0.264,0-0.475,0.111-0.633,0.335C249.697,30.392,249.598,30.919,249.598,31.688z"/>
				</g>
			</g>
			<g>
				<g enable-background="new    ">
					<path d="M243.89,49.936h-0.576v-3.668c-0.139,0.132-0.32,0.265-0.545,0.396s-0.428,0.231-0.605,0.298v-0.557
						c0.321-0.151,0.603-0.335,0.844-0.551c0.24-0.215,0.411-0.424,0.512-0.626h0.371V49.936z"/>
					<path d="M246.25,47.394c-0.238-0.088-0.416-0.213-0.53-0.375c-0.115-0.161-0.173-0.355-0.173-0.582
						c0-0.341,0.123-0.627,0.367-0.859c0.246-0.232,0.572-0.349,0.979-0.349c0.41,0,0.739,0.118,0.988,0.356
						c0.25,0.237,0.375,0.527,0.375,0.868c0,0.218-0.058,0.406-0.172,0.567c-0.113,0.161-0.287,0.285-0.52,0.373
						c0.288,0.094,0.508,0.245,0.658,0.454c0.149,0.209,0.225,0.458,0.225,0.748c0,0.4-0.142,0.737-0.426,1.011
						c-0.283,0.272-0.656,0.409-1.119,0.409s-0.836-0.137-1.119-0.411c-0.283-0.273-0.425-0.615-0.425-1.024
						c0-0.306,0.077-0.561,0.231-0.767C245.744,47.608,245.965,47.468,246.25,47.394z M245.949,48.583
						c0,0.164,0.039,0.323,0.117,0.477s0.193,0.272,0.348,0.356c0.152,0.084,0.318,0.126,0.495,0.126
						c0.274,0,0.502-0.088,0.681-0.266c0.18-0.177,0.27-0.401,0.27-0.675c0-0.276-0.093-0.506-0.277-0.688
						c-0.184-0.181-0.415-0.271-0.691-0.271c-0.271,0-0.496,0.09-0.674,0.269S245.949,48.314,245.949,48.583z M246.135,46.418
						c0,0.222,0.072,0.402,0.215,0.544c0.143,0.141,0.328,0.211,0.557,0.211c0.222,0,0.403-0.07,0.545-0.21
						c0.143-0.14,0.213-0.311,0.213-0.513c0-0.212-0.073-0.389-0.219-0.533c-0.146-0.144-0.328-0.216-0.546-0.216
						c-0.22,0-0.401,0.07-0.547,0.211C246.207,46.054,246.135,46.222,246.135,46.418z"/>
					<path d="M249.008,47.623c0-0.554,0.057-1,0.17-1.338c0.115-0.338,0.284-0.599,0.509-0.782c0.226-0.183,0.509-0.274,0.849-0.274
						c0.252,0,0.473,0.051,0.662,0.151c0.19,0.102,0.348,0.247,0.471,0.438c0.123,0.19,0.221,0.423,0.291,0.697
						c0.07,0.273,0.105,0.643,0.105,1.107c0,0.551-0.057,0.994-0.17,1.332s-0.281,0.6-0.506,0.784
						c-0.226,0.184-0.51,0.276-0.854,0.276c-0.451,0-0.807-0.162-1.064-0.486C249.162,49.14,249.008,48.504,249.008,47.623z
						 M249.598,47.623c0,0.771,0.091,1.282,0.271,1.537s0.402,0.382,0.666,0.382c0.266,0,0.487-0.128,0.668-0.384
						c0.18-0.256,0.27-0.768,0.27-1.535c0-0.771-0.09-1.284-0.27-1.538c-0.181-0.254-0.405-0.38-0.674-0.38
						c-0.264,0-0.475,0.111-0.633,0.335C249.697,46.326,249.598,46.854,249.598,47.623z"/>
				</g>
			</g>
			<g>
				<g enable-background="new    ">
					<path d="M243.89,65.803h-0.576v-3.668c-0.139,0.132-0.32,0.265-0.545,0.396s-0.428,0.231-0.605,0.298v-0.557
						c0.321-0.151,0.603-0.335,0.844-0.551c0.24-0.215,0.411-0.424,0.512-0.626h0.371V65.803z"/>
					<path d="M248.351,62.263l-0.572,0.045c-0.051-0.227-0.124-0.391-0.218-0.493c-0.155-0.164-0.348-0.246-0.575-0.246
						c-0.184,0-0.345,0.052-0.483,0.153c-0.181,0.133-0.323,0.325-0.429,0.579c-0.104,0.254-0.158,0.615-0.162,1.084
						c0.138-0.211,0.308-0.367,0.508-0.47s0.41-0.153,0.63-0.153c0.384,0,0.71,0.141,0.98,0.424c0.27,0.282,0.404,0.647,0.404,1.095
						c0,0.295-0.063,0.568-0.19,0.82c-0.127,0.253-0.301,0.446-0.522,0.581c-0.222,0.134-0.474,0.201-0.755,0.201
						c-0.479,0-0.871-0.177-1.174-0.529s-0.454-0.935-0.454-1.744c0-0.906,0.167-1.565,0.503-1.977
						c0.291-0.358,0.685-0.537,1.18-0.537c0.369,0,0.671,0.104,0.906,0.31C248.163,61.612,248.304,61.898,248.351,62.263z
						 M246.001,64.284c0,0.198,0.042,0.388,0.126,0.568c0.084,0.182,0.202,0.319,0.354,0.414c0.151,0.096,0.311,0.143,0.477,0.143
						c0.243,0,0.452-0.098,0.627-0.294s0.262-0.463,0.262-0.8c0-0.324-0.086-0.579-0.258-0.766c-0.174-0.187-0.391-0.28-0.653-0.28
						c-0.26,0-0.48,0.094-0.661,0.28C246.092,63.736,246.001,63.981,246.001,64.284z"/>
					<path d="M249.008,63.49c0-0.554,0.057-1,0.17-1.338c0.115-0.338,0.284-0.599,0.509-0.782c0.226-0.183,0.509-0.274,0.849-0.274
						c0.252,0,0.473,0.051,0.662,0.151c0.19,0.102,0.348,0.247,0.471,0.438c0.123,0.19,0.221,0.423,0.291,0.697
						c0.07,0.273,0.105,0.643,0.105,1.107c0,0.551-0.057,0.994-0.17,1.332s-0.281,0.6-0.506,0.784
						c-0.226,0.184-0.51,0.276-0.854,0.276c-0.451,0-0.807-0.162-1.064-0.486C249.162,65.007,249.008,64.371,249.008,63.49z
						 M249.598,63.49c0,0.771,0.091,1.282,0.271,1.537s0.402,0.382,0.666,0.382c0.266,0,0.487-0.128,0.668-0.384
						c0.18-0.256,0.27-0.768,0.27-1.535c0-0.771-0.09-1.284-0.27-1.538c-0.181-0.254-0.405-0.38-0.674-0.38
						c-0.264,0-0.475,0.111-0.633,0.335C249.697,62.193,249.598,62.721,249.598,63.49z"/>
				</g>
			</g>
			<g>
				<g enable-background="new    ">
					<path d="M243.89,81.737h-0.576v-3.668c-0.139,0.132-0.32,0.265-0.545,0.396s-0.428,0.231-0.605,0.298v-0.557
						c0.321-0.151,0.603-0.335,0.844-0.551c0.24-0.215,0.411-0.424,0.512-0.626h0.371V81.737z"/>
					<path d="M247.21,81.737v-1.122h-2.034v-0.528l2.14-3.038h0.47v3.038h0.633v0.528h-0.633v1.122H247.21z M247.21,80.087v-2.113
						l-1.468,2.113H247.21z"/>
					<path d="M249.008,79.425c0-0.554,0.057-1,0.17-1.338c0.115-0.338,0.284-0.599,0.509-0.782c0.226-0.183,0.509-0.274,0.849-0.274
						c0.252,0,0.473,0.051,0.662,0.151c0.19,0.102,0.348,0.247,0.471,0.438c0.123,0.19,0.221,0.423,0.291,0.697
						c0.07,0.273,0.105,0.643,0.105,1.107c0,0.551-0.057,0.994-0.17,1.332s-0.281,0.6-0.506,0.784
						c-0.226,0.184-0.51,0.276-0.854,0.276c-0.451,0-0.807-0.162-1.064-0.486C249.162,80.941,249.008,80.306,249.008,79.425z
						 M249.598,79.425c0,0.771,0.091,1.282,0.271,1.537s0.402,0.382,0.666,0.382c0.266,0,0.487-0.128,0.668-0.384
						c0.18-0.256,0.27-0.768,0.27-1.535c0-0.771-0.09-1.284-0.27-1.538c-0.181-0.254-0.405-0.38-0.674-0.38
						c-0.264,0-0.475,0.111-0.633,0.335C249.697,78.128,249.598,78.655,249.598,79.425z"/>
				</g>
			</g>
			<g>
				<g enable-background="new    ">
					<path d="M243.89,97.672h-0.576v-3.668c-0.139,0.132-0.32,0.265-0.545,0.396s-0.428,0.231-0.605,0.298v-0.557
						c0.321-0.151,0.603-0.335,0.844-0.551c0.24-0.215,0.411-0.424,0.512-0.626h0.371V97.672z"/>
					<path d="M248.389,97.118v0.554h-3.099c-0.004-0.139,0.018-0.271,0.067-0.399c0.079-0.211,0.205-0.419,0.379-0.624
						c0.174-0.204,0.425-0.441,0.753-0.71c0.51-0.418,0.854-0.749,1.033-0.993c0.179-0.244,0.269-0.475,0.269-0.692
						c0-0.228-0.081-0.42-0.245-0.577c-0.162-0.156-0.375-0.234-0.638-0.234c-0.277,0-0.499,0.083-0.665,0.249
						s-0.25,0.396-0.253,0.69L245.4,94.32c0.04-0.441,0.192-0.777,0.457-1.009c0.264-0.231,0.619-0.347,1.064-0.347
						c0.449,0,0.807,0.124,1.068,0.374c0.262,0.249,0.393,0.559,0.393,0.927c0,0.188-0.037,0.372-0.114,0.554
						s-0.204,0.372-0.382,0.572c-0.179,0.2-0.475,0.476-0.889,0.825c-0.345,0.29-0.566,0.486-0.664,0.59
						c-0.099,0.104-0.18,0.208-0.244,0.312H248.389z"/>
					<path d="M249.008,95.359c0-0.554,0.057-1,0.17-1.338c0.115-0.338,0.284-0.599,0.509-0.782c0.226-0.183,0.509-0.274,0.849-0.274
						c0.252,0,0.473,0.051,0.662,0.151c0.19,0.102,0.348,0.247,0.471,0.438c0.123,0.19,0.221,0.423,0.291,0.697
						c0.07,0.273,0.105,0.643,0.105,1.107c0,0.551-0.057,0.994-0.17,1.332s-0.281,0.6-0.506,0.784
						c-0.226,0.184-0.51,0.276-0.854,0.276c-0.451,0-0.807-0.162-1.064-0.486C249.162,96.876,249.008,96.24,249.008,95.359z
						 M249.598,95.359c0,0.771,0.091,1.282,0.271,1.537s0.402,0.382,0.666,0.382c0.266,0,0.487-0.128,0.668-0.384
						c0.18-0.256,0.27-0.768,0.27-1.535c0-0.771-0.09-1.284-0.27-1.538c-0.181-0.254-0.405-0.38-0.674-0.38
						c-0.264,0-0.475,0.111-0.633,0.335C249.697,94.062,249.598,94.59,249.598,95.359z"/>
				</g>
			</g>
			<g>
				<g enable-background="new    ">
					<path d="M243.89,113.539h-0.576v-3.668c-0.139,0.132-0.32,0.265-0.545,0.396s-0.428,0.231-0.605,0.298v-0.557
						c0.321-0.151,0.603-0.335,0.844-0.551c0.24-0.215,0.411-0.424,0.512-0.626h0.371V113.539z"/>
					<path d="M245.365,111.227c0-0.554,0.057-1,0.17-1.338c0.115-0.338,0.284-0.599,0.509-0.782
						c0.226-0.183,0.509-0.274,0.849-0.274c0.252,0,0.473,0.051,0.662,0.151c0.19,0.102,0.348,0.247,0.471,0.438
						c0.123,0.19,0.221,0.423,0.291,0.697c0.07,0.273,0.105,0.643,0.105,1.107c0,0.551-0.057,0.994-0.17,1.332
						s-0.281,0.6-0.506,0.784c-0.226,0.184-0.51,0.276-0.854,0.276c-0.451,0-0.807-0.162-1.064-0.486
						C245.519,112.743,245.365,112.107,245.365,111.227z M245.956,111.227c0,0.771,0.091,1.282,0.271,1.537s0.402,0.382,0.666,0.382
						c0.266,0,0.487-0.128,0.668-0.384c0.18-0.256,0.27-0.768,0.27-1.535c0-0.771-0.09-1.284-0.27-1.538
						c-0.181-0.254-0.405-0.38-0.674-0.38c-0.264,0-0.475,0.111-0.633,0.335C246.054,109.93,245.956,110.457,245.956,111.227z"/>
					<path d="M249.008,111.227c0-0.554,0.057-1,0.17-1.338c0.115-0.338,0.284-0.599,0.509-0.782
						c0.226-0.183,0.509-0.274,0.849-0.274c0.252,0,0.473,0.051,0.662,0.151c0.19,0.102,0.348,0.247,0.471,0.438
						c0.123,0.19,0.221,0.423,0.291,0.697c0.07,0.273,0.105,0.643,0.105,1.107c0,0.551-0.057,0.994-0.17,1.332
						s-0.281,0.6-0.506,0.784c-0.226,0.184-0.51,0.276-0.854,0.276c-0.451,0-0.807-0.162-1.064-0.486
						C249.162,112.743,249.008,112.107,249.008,111.227z M249.598,111.227c0,0.771,0.091,1.282,0.271,1.537s0.402,0.382,0.666,0.382
						c0.266,0,0.487-0.128,0.668-0.384c0.18-0.256,0.27-0.768,0.27-1.535c0-0.771-0.09-1.284-0.27-1.538
						c-0.181-0.254-0.405-0.38-0.674-0.38c-0.264,0-0.475,0.111-0.633,0.335C249.697,109.93,249.598,110.457,249.598,111.227z"/>
				</g>
			</g>
			<g>
				<g enable-background="new    ">
					<path d="M244.431,126.932c-0.239-0.088-0.416-0.213-0.531-0.375c-0.115-0.161-0.173-0.355-0.173-0.582
						c0-0.341,0.122-0.627,0.368-0.859c0.244-0.232,0.57-0.349,0.979-0.349c0.409,0,0.738,0.118,0.988,0.356
						c0.249,0.237,0.373,0.527,0.373,0.868c0,0.218-0.057,0.406-0.17,0.567c-0.115,0.161-0.287,0.285-0.52,0.373
						c0.287,0.094,0.506,0.245,0.656,0.454s0.226,0.458,0.226,0.748c0,0.4-0.142,0.737-0.425,1.011
						c-0.283,0.272-0.657,0.409-1.119,0.409c-0.463,0-0.836-0.137-1.119-0.411c-0.284-0.273-0.426-0.615-0.426-1.024
						c0-0.306,0.077-0.561,0.231-0.767C243.926,127.146,244.145,127.006,244.431,126.932z M244.131,128.121
						c0,0.164,0.039,0.323,0.116,0.477c0.078,0.153,0.194,0.272,0.347,0.356c0.154,0.084,0.319,0.126,0.496,0.126
						c0.275,0,0.502-0.088,0.682-0.266c0.179-0.177,0.268-0.401,0.268-0.675c0-0.276-0.092-0.506-0.275-0.688
						c-0.186-0.181-0.416-0.271-0.693-0.271c-0.271,0-0.494,0.09-0.673,0.269S244.131,127.853,244.131,128.121z M244.316,125.956
						c0,0.222,0.07,0.402,0.214,0.544c0.143,0.141,0.328,0.211,0.557,0.211c0.222,0,0.403-0.07,0.545-0.21s0.213-0.311,0.213-0.513
						c0-0.212-0.073-0.389-0.22-0.533c-0.146-0.144-0.327-0.216-0.545-0.216c-0.219,0-0.402,0.07-0.547,0.211
						C244.388,125.592,244.316,125.76,244.316,125.956z"/>
					<path d="M247.187,127.161c0-0.554,0.057-1,0.172-1.338c0.113-0.338,0.283-0.599,0.508-0.782
						c0.225-0.183,0.508-0.274,0.85-0.274c0.251,0,0.472,0.051,0.662,0.151c0.189,0.102,0.346,0.247,0.47,0.438
						c0.124,0.19,0.221,0.423,0.291,0.697c0.07,0.273,0.105,0.643,0.105,1.107c0,0.551-0.057,0.994-0.169,1.332
						c-0.113,0.338-0.283,0.6-0.508,0.784c-0.225,0.184-0.509,0.276-0.852,0.276c-0.452,0-0.807-0.162-1.065-0.486
						C247.342,128.678,247.187,128.042,247.187,127.161z M247.779,127.161c0,0.771,0.09,1.282,0.271,1.537s0.402,0.382,0.667,0.382
						c0.264,0,0.486-0.128,0.666-0.384c0.181-0.256,0.271-0.768,0.271-1.535c0-0.771-0.09-1.284-0.271-1.538
						c-0.18-0.254-0.404-0.38-0.673-0.38c-0.265,0-0.476,0.111-0.634,0.335C247.879,125.864,247.779,126.392,247.779,127.161z"/>
				</g>
			</g>
			<g>
				<g enable-background="new    ">
					<path d="M246.532,141.801l-0.573,0.045c-0.051-0.227-0.123-0.391-0.217-0.493c-0.156-0.164-0.348-0.246-0.576-0.246
						c-0.183,0-0.344,0.052-0.482,0.153c-0.182,0.133-0.324,0.325-0.428,0.579c-0.105,0.254-0.16,0.615-0.164,1.084
						c0.139-0.211,0.309-0.367,0.509-0.47s0.41-0.153,0.63-0.153c0.384,0,0.711,0.141,0.98,0.424
						c0.27,0.282,0.404,0.647,0.404,1.095c0,0.295-0.063,0.568-0.19,0.82c-0.126,0.253-0.301,0.446-0.522,0.581
						c-0.223,0.134-0.474,0.201-0.755,0.201c-0.479,0-0.871-0.177-1.174-0.529s-0.454-0.935-0.454-1.744
						c0-0.906,0.168-1.565,0.502-1.977c0.293-0.358,0.686-0.537,1.18-0.537c0.369,0,0.672,0.104,0.907,0.31
						C246.344,141.15,246.485,141.437,246.532,141.801z M244.181,143.822c0,0.198,0.042,0.388,0.127,0.568
						c0.084,0.182,0.201,0.319,0.353,0.414c0.151,0.096,0.311,0.143,0.477,0.143c0.243,0,0.452-0.098,0.627-0.294
						s0.263-0.463,0.263-0.8c0-0.324-0.087-0.579-0.26-0.766c-0.172-0.187-0.39-0.28-0.652-0.28c-0.26,0-0.48,0.094-0.662,0.28
						C244.272,143.274,244.181,143.52,244.181,143.822z"/>
					<path d="M247.187,143.028c0-0.554,0.057-1,0.172-1.338c0.113-0.338,0.283-0.599,0.508-0.782
						c0.225-0.183,0.508-0.274,0.85-0.274c0.251,0,0.472,0.051,0.662,0.151c0.189,0.102,0.346,0.247,0.47,0.438
						c0.124,0.19,0.221,0.423,0.291,0.697c0.07,0.273,0.105,0.643,0.105,1.107c0,0.551-0.057,0.994-0.169,1.332
						c-0.113,0.338-0.283,0.6-0.508,0.784c-0.225,0.184-0.509,0.276-0.852,0.276c-0.452,0-0.807-0.162-1.065-0.486
						C247.342,144.545,247.187,143.909,247.187,143.028z M247.779,143.028c0,0.771,0.09,1.282,0.271,1.537s0.402,0.382,0.667,0.382
						c0.264,0,0.486-0.128,0.666-0.384c0.181-0.256,0.271-0.768,0.271-1.535c0-0.771-0.09-1.284-0.271-1.538
						c-0.18-0.254-0.404-0.38-0.673-0.38c-0.265,0-0.476,0.111-0.634,0.335C247.879,141.731,247.779,142.259,247.779,143.028z"/>
				</g>
			</g>
		</g>
		<path fill="none" stroke="#000000" stroke-width="1.0001" d="M177.508,79.646c1.282,2.564,3.175-0.474,4.053-0.474
			c1.146,0,2.768,1.282,4.051,0.607c1.892-0.878,3.714-1.62,6.616-1.62c1.352,0,4.254-0.271,5.132,0.607
			c0.405,0.404,3.444,1.822,4.051,1.822c2.431,0,9.049,1.012,10.062-1.148c0.741-1.553,10.938-0.27,12.086,0.203
			c2.296,1.147,5.738,2.432,8.236,2.432c1.283,0,4.187-2.296,4.861-2.635c7.156-3.78,8.913-0.81,16.002,1.485
			c5.064,1.688,7.63-2.633,11.951-2.903c4.861-0.336,9.183,0.812,14.72,1.892c3.037,0.608,5.738,1.147,9.184,1.147
			c2.901,0,4.389-2.633,7.832-2.633c1.417-0.541,6.615-0.676,8.305-0.271c1.013,0.271,4.051,2.295,4.794,2.295
			c2.701,0,2.902-0.271,4.86-1.147c2.499-1.283,7.494,0.607,9.725,1.418"/>
	</g>
	<g>
		<g>
			<g>
				<line fill="none" stroke="#808285" stroke-width="0.5" x1="0" y1="24.617" x2="156.442" y2="24.617"/>
				<line fill="none" stroke="#A7A9AC" stroke-width="0.5" x1="0" y1="28.601" x2="156.442" y2="28.601"/>
				<line fill="none" stroke="#808285" stroke-width="0.5" x1="0" y1="32.516" x2="156.442" y2="32.516"/>
				<line fill="none" stroke="#A7A9AC" stroke-width="0.5" x1="0" y1="36.433" x2="156.442" y2="36.433"/>
				<line fill="none" stroke="#808285" stroke-width="0.5" x1="0" y1="40.417" x2="156.442" y2="40.417"/>
				<line fill="none" stroke="#A7A9AC" stroke-width="0.5" x1="0" y1="44.333" x2="156.442" y2="44.333"/>
				<line fill="none" stroke="#808285" stroke-width="0.5" x1="0" y1="48.249" x2="156.442" y2="48.249"/>
				<line fill="none" stroke="#A7A9AC" stroke-width="0.5" x1="0" y1="52.232" x2="156.442" y2="52.232"/>
				<line fill="none" stroke="#808285" stroke-width="0.5" x1="0" y1="56.148" x2="156.442" y2="56.148"/>
				<line fill="none" stroke="#A7A9AC" stroke-width="0.5" x1="0" y1="60.064" x2="156.442" y2="60.064"/>
				<line fill="none" stroke="#808285" stroke-width="0.5" x1="0" y1="64.048" x2="156.442" y2="64.048"/>
				<line fill="none" stroke="#A7A9AC" stroke-width="0.5" x1="0" y1="67.964" x2="156.442" y2="67.964"/>
				<line fill="none" stroke="#808285" stroke-width="0.5" x1="0" y1="71.948" x2="156.442" y2="71.948"/>
				<line fill="none" stroke="#A7A9AC" stroke-width="0.5" x1="0" y1="75.864" x2="156.442" y2="75.864"/>
				<line fill="none" stroke="#808285" stroke-width="0.5" x1="0" y1="79.78" x2="156.442" y2="79.78"/>
				<line fill="none" stroke="#A7A9AC" stroke-width="0.5" x1="0" y1="83.764" x2="156.442" y2="83.764"/>
				<line fill="none" stroke="#808285" stroke-width="0.5" x1="0" y1="87.68" x2="156.442" y2="87.68"/>
				<line fill="none" stroke="#A7A9AC" stroke-width="0.5" x1="0" y1="91.598" x2="156.442" y2="91.598"/>
				<line fill="none" stroke="#808285" stroke-width="0.5" x1="0" y1="95.579" x2="156.442" y2="95.579"/>
				<line fill="none" stroke="#A7A9AC" stroke-width="0.5" x1="0" y1="99.495" x2="156.442" y2="99.495"/>
				<line fill="none" stroke="#808285" stroke-width="0.5" x1="0" y1="103.412" x2="156.442" y2="103.412"/>
				<line fill="none" stroke="#A7A9AC" stroke-width="0.5" x1="0" y1="107.396" x2="156.442" y2="107.396"/>
				<line fill="none" stroke="#808285" stroke-width="0.5" x1="0" y1="111.312" x2="156.442" y2="111.312"/>
				<line fill="none" stroke="#A7A9AC" stroke-width="0.5" x1="0" y1="115.229" x2="156.442" y2="115.229"/>
				<line fill="none" stroke="#808285" stroke-width="0.5" x1="0" y1="119.212" x2="156.442" y2="119.212"/>
				<line fill="none" stroke="#A7A9AC" stroke-width="0.5" x1="0" y1="123.128" x2="156.442" y2="123.128"/>
				<line fill="none" stroke="#808285" stroke-width="0.5" x1="0" y1="127.111" x2="156.442" y2="127.111"/>
				<line fill="none" stroke="#A7A9AC" stroke-width="0.5" x1="0" y1="131.027" x2="156.442" y2="131.027"/>
				<line fill="none" stroke="#808285" stroke-width="0.5" x1="0" y1="134.943" x2="156.442" y2="134.943"/>
				<line fill="none" stroke="#A7A9AC" stroke-width="0.5" x1="0" y1="138.928" x2="156.442" y2="138.928"/>
				<line fill="none" stroke="#808285" stroke-width="0.5" x1="0" y1="142.844" x2="156.442" y2="142.844"/>
				<line fill="none" stroke="#A7A9AC" stroke-width="0.5" x1="0" y1="146.76" x2="156.442" y2="146.76"/>
				<line fill="none" stroke="#808285" stroke-width="0.5" x1="0" y1="150.743" x2="156.442" y2="150.743"/>
			</g>
			<g>
				<line fill="none" stroke="#808285" stroke-width="0.5" x1="6.279" y1="24.617" x2="5.739" y2="150.878"/>
				<line fill="none" stroke="#808285" stroke-width="0.5" x1="14.179" y1="24.617" x2="13.706" y2="150.878"/>
				<line fill="none" stroke="#808285" stroke-width="0.5" x1="22.146" y1="24.617" x2="21.606" y2="150.878"/>
				<line fill="none" stroke="#808285" stroke-width="0.5" x1="30.046" y1="24.617" x2="29.573" y2="150.878"/>
				<line fill="none" stroke="#808285" stroke-width="0.5" x1="38.013" y1="24.617" x2="37.473" y2="150.878"/>
				<line fill="none" stroke="#808285" stroke-width="0.5" x1="45.913" y1="24.617" x2="45.44" y2="150.878"/>
				<line fill="none" stroke="#808285" stroke-width="0.5" x1="53.88" y1="24.617" x2="53.34" y2="150.878"/>
				<line fill="none" stroke="#808285" stroke-width="0.5" x1="61.78" y1="24.617" x2="61.24" y2="150.878"/>
				<line fill="none" stroke="#808285" stroke-width="0.5" x1="69.748" y1="24.617" x2="69.208" y2="150.878"/>
				<line fill="none" stroke="#808285" stroke-width="0.5" x1="77.647" y1="24.617" x2="77.107" y2="150.878"/>
				<line fill="none" stroke="#808285" stroke-width="0.5" x1="85.615" y1="24.617" x2="85.074" y2="150.878"/>
				<line fill="none" stroke="#808285" stroke-width="0.5" x1="93.514" y1="24.617" x2="92.974" y2="150.878"/>
				<line fill="none" stroke="#808285" stroke-width="0.5" x1="101.481" y1="24.617" x2="100.941" y2="150.878"/>
				<line fill="none" stroke="#808285" stroke-width="0.5" x1="109.381" y1="24.617" x2="108.841" y2="150.878"/>
				<line fill="none" stroke="#808285" stroke-width="0.5" x1="117.349" y1="24.617" x2="116.809" y2="150.878"/>
				<line fill="none" stroke="#808285" stroke-width="0.5" x1="125.249" y1="24.617" x2="124.708" y2="150.878"/>
				<line fill="none" stroke="#808285" stroke-width="0.5" x1="133.216" y1="24.617" x2="132.676" y2="150.878"/>
				<line fill="none" stroke="#808285" stroke-width="0.5" x1="141.116" y1="24.617" x2="140.576" y2="150.878"/>
				<line fill="none" stroke="#808285" stroke-width="0.5" x1="149.015" y1="24.617" x2="148.543" y2="150.878"/>
				<line fill="none" stroke="#808285" stroke-width="0.5" x1="156.983" y1="24.617" x2="156.442" y2="150.878"/>
			</g>
		</g>
		<rect x="72.38" y="29.276" fill="#FFFFFF" width="11.479" height="5.874"/>
		<rect x="72.516" y="45.075" fill="#FFFFFF" width="11.546" height="5.874"/>
		<rect x="72.719" y="60.875" fill="#FFFFFF" width="11.479" height="5.875"/>
		<rect x="72.38" y="76.674" fill="#FFFFFF" width="11.479" height="5.875"/>
		<rect x="72.043" y="92.475" fill="#FFFFFF" width="11.479" height="5.873"/>
		<rect x="72.38" y="108.408" fill="#FFFFFF" width="11.479" height="5.807"/>
		<rect x="71.908" y="123.871" fill="#FFFFFF" width="11.479" height="5.874"/>
		<rect x="71.57" y="139.67" fill="#FFFFFF" width="11.479" height="5.874"/>
		<g>
			<g>
				<g enable-background="new    ">
					<path d="M76.353,33.987v0.554h-3.099c-0.004-0.139,0.018-0.271,0.067-0.399c0.079-0.211,0.205-0.419,0.379-0.624
						c0.174-0.204,0.425-0.441,0.753-0.71c0.51-0.418,0.854-0.749,1.033-0.993c0.179-0.244,0.269-0.475,0.269-0.692
						c0-0.228-0.082-0.42-0.245-0.577c-0.163-0.156-0.376-0.234-0.638-0.234c-0.277,0-0.499,0.083-0.665,0.249
						c-0.167,0.166-0.25,0.396-0.253,0.69l-0.591-0.061c0.041-0.441,0.193-0.777,0.457-1.009c0.265-0.231,0.62-0.347,1.065-0.347
						c0.45,0,0.806,0.124,1.068,0.374c0.262,0.249,0.393,0.559,0.393,0.927c0,0.188-0.038,0.372-0.115,0.554
						c-0.077,0.182-0.205,0.372-0.382,0.572c-0.178,0.2-0.474,0.476-0.888,0.825c-0.345,0.29-0.567,0.486-0.665,0.59
						s-0.179,0.208-0.243,0.312H76.353z"/>
					<path d="M76.971,32.229c0-0.554,0.057-1,0.171-1.338s0.284-0.599,0.508-0.782c0.225-0.183,0.508-0.274,0.849-0.274
						c0.251,0,0.472,0.051,0.662,0.151c0.19,0.102,0.347,0.247,0.47,0.438c0.124,0.19,0.221,0.423,0.291,0.697
						c0.07,0.273,0.105,0.643,0.105,1.107c0,0.551-0.057,0.994-0.169,1.332c-0.113,0.338-0.282,0.6-0.507,0.784
						c-0.225,0.184-0.509,0.276-0.853,0.276c-0.452,0-0.807-0.162-1.065-0.486C77.125,33.745,76.971,33.109,76.971,32.229z
						 M77.562,32.229c0,0.771,0.09,1.282,0.271,1.537s0.402,0.382,0.667,0.382c0.265,0,0.487-0.128,0.667-0.384
						s0.27-0.768,0.27-1.535c0-0.771-0.09-1.284-0.27-1.538s-0.405-0.38-0.673-0.38c-0.264,0-0.475,0.111-0.633,0.335
						C77.661,30.932,77.562,31.459,77.562,32.229z"/>
					<path d="M80.614,32.229c0-0.554,0.057-1,0.171-1.338s0.284-0.599,0.508-0.782c0.225-0.183,0.508-0.274,0.849-0.274
						c0.251,0,0.472,0.051,0.662,0.151c0.19,0.102,0.347,0.247,0.47,0.438c0.124,0.19,0.221,0.423,0.291,0.697
						c0.07,0.273,0.105,0.643,0.105,1.107c0,0.551-0.057,0.994-0.169,1.332c-0.113,0.338-0.282,0.6-0.507,0.784
						c-0.225,0.184-0.509,0.276-0.853,0.276c-0.452,0-0.807-0.162-1.065-0.486C80.768,33.745,80.614,33.109,80.614,32.229z
						 M81.205,32.229c0,0.771,0.09,1.282,0.271,1.537s0.402,0.382,0.667,0.382c0.265,0,0.487-0.128,0.667-0.384
						s0.27-0.768,0.27-1.535c0-0.771-0.09-1.284-0.27-1.538s-0.405-0.38-0.673-0.38c-0.264,0-0.475,0.111-0.633,0.335
						C81.304,30.932,81.205,31.459,81.205,32.229z"/>
				</g>
			</g>
			<g>
				<g enable-background="new    ">
					<path d="M75.496,50.273h-0.576v-3.668c-0.139,0.132-0.32,0.265-0.545,0.396c-0.225,0.132-0.427,0.231-0.606,0.298v-0.557
						c0.322-0.151,0.603-0.335,0.844-0.551c0.241-0.215,0.411-0.424,0.511-0.626h0.371V50.273z"/>
					<path d="M77.857,47.731c-0.239-0.088-0.416-0.213-0.531-0.375c-0.115-0.161-0.173-0.355-0.173-0.582
						c0-0.341,0.123-0.627,0.368-0.859s0.571-0.349,0.979-0.349c0.41,0,0.739,0.118,0.988,0.356c0.25,0.237,0.374,0.527,0.374,0.868
						c0,0.218-0.057,0.406-0.171,0.567c-0.114,0.161-0.287,0.285-0.52,0.373c0.288,0.094,0.507,0.245,0.657,0.454
						c0.15,0.209,0.225,0.458,0.225,0.748c0,0.4-0.142,0.737-0.425,1.011c-0.283,0.272-0.657,0.409-1.119,0.409
						c-0.463,0-0.836-0.137-1.119-0.411c-0.284-0.273-0.425-0.615-0.425-1.024c0-0.306,0.077-0.561,0.231-0.767
						C77.351,47.946,77.571,47.806,77.857,47.731z M77.556,48.921c0,0.164,0.039,0.323,0.117,0.477
						c0.078,0.153,0.194,0.272,0.347,0.356s0.319,0.126,0.496,0.126c0.275,0,0.502-0.088,0.681-0.266
						c0.179-0.177,0.269-0.401,0.269-0.675c0-0.276-0.092-0.506-0.276-0.688c-0.185-0.181-0.416-0.271-0.692-0.271
						c-0.271,0-0.495,0.09-0.673,0.269S77.556,48.652,77.556,48.921z M77.741,46.756c0,0.222,0.071,0.402,0.214,0.544
						c0.143,0.141,0.328,0.211,0.557,0.211c0.222,0,0.403-0.07,0.545-0.21c0.142-0.14,0.213-0.311,0.213-0.513
						c0-0.212-0.073-0.389-0.219-0.533c-0.146-0.144-0.328-0.216-0.545-0.216c-0.219,0-0.402,0.07-0.547,0.211
						C77.814,46.392,77.741,46.56,77.741,46.756z"/>
					<path d="M80.614,47.961c0-0.554,0.057-1,0.171-1.338s0.284-0.599,0.508-0.782c0.225-0.183,0.508-0.274,0.849-0.274
						c0.251,0,0.472,0.051,0.662,0.151c0.19,0.102,0.347,0.247,0.47,0.438c0.124,0.19,0.221,0.423,0.291,0.697
						c0.07,0.273,0.105,0.643,0.105,1.107c0,0.551-0.057,0.994-0.169,1.332c-0.113,0.338-0.282,0.6-0.507,0.784
						c-0.225,0.184-0.509,0.276-0.853,0.276c-0.452,0-0.807-0.162-1.065-0.486C80.768,49.478,80.614,48.842,80.614,47.961z
						 M81.205,47.961c0,0.771,0.09,1.282,0.271,1.537s0.402,0.382,0.667,0.382c0.265,0,0.487-0.128,0.667-0.384
						s0.27-0.768,0.27-1.535c0-0.771-0.09-1.284-0.27-1.538s-0.405-0.38-0.673-0.38c-0.264,0-0.475,0.111-0.633,0.335
						C81.304,46.664,81.205,47.191,81.205,47.961z"/>
				</g>
			</g>
			<g>
				<g enable-background="new    ">
					<path d="M75.496,66.073h-0.576v-3.668c-0.139,0.132-0.32,0.265-0.545,0.396c-0.225,0.132-0.427,0.231-0.606,0.298v-0.557
						c0.322-0.151,0.603-0.335,0.844-0.551c0.241-0.215,0.411-0.424,0.511-0.626h0.371V66.073z"/>
					<path d="M79.958,62.533l-0.573,0.045c-0.051-0.227-0.124-0.391-0.217-0.493c-0.156-0.164-0.348-0.246-0.576-0.246
						c-0.183,0-0.344,0.052-0.483,0.153c-0.181,0.133-0.324,0.325-0.428,0.579s-0.159,0.615-0.163,1.084
						c0.138-0.211,0.308-0.367,0.508-0.47s0.41-0.153,0.63-0.153c0.384,0,0.71,0.141,0.98,0.424c0.27,0.282,0.404,0.647,0.404,1.095
						c0,0.295-0.063,0.568-0.19,0.82c-0.126,0.253-0.301,0.446-0.522,0.581c-0.222,0.134-0.474,0.201-0.755,0.201
						c-0.479,0-0.871-0.177-1.174-0.529s-0.454-0.935-0.454-1.744c0-0.906,0.167-1.565,0.502-1.977
						c0.292-0.358,0.685-0.537,1.18-0.537c0.369,0,0.671,0.104,0.907,0.31C79.769,61.883,79.911,62.169,79.958,62.533z
						 M77.607,64.555c0,0.198,0.042,0.388,0.126,0.568c0.084,0.182,0.202,0.319,0.353,0.414c0.151,0.096,0.311,0.143,0.477,0.143
						c0.243,0,0.452-0.098,0.627-0.294s0.262-0.463,0.262-0.8c0-0.324-0.086-0.579-0.259-0.766c-0.173-0.187-0.39-0.28-0.653-0.28
						c-0.26,0-0.48,0.094-0.662,0.28S77.607,64.252,77.607,64.555z"/>
					<path d="M80.614,63.761c0-0.554,0.057-1,0.171-1.338s0.284-0.599,0.508-0.782c0.225-0.183,0.508-0.274,0.849-0.274
						c0.251,0,0.472,0.051,0.662,0.151c0.19,0.102,0.347,0.247,0.47,0.438c0.124,0.19,0.221,0.423,0.291,0.697
						c0.07,0.273,0.105,0.643,0.105,1.107c0,0.551-0.057,0.994-0.169,1.332c-0.113,0.338-0.282,0.6-0.507,0.784
						c-0.225,0.184-0.509,0.276-0.853,0.276c-0.452,0-0.807-0.162-1.065-0.486C80.768,65.277,80.614,64.642,80.614,63.761z
						 M81.205,63.761c0,0.771,0.09,1.282,0.271,1.537s0.402,0.382,0.667,0.382c0.265,0,0.487-0.128,0.667-0.384
						s0.27-0.768,0.27-1.535c0-0.771-0.09-1.284-0.27-1.538s-0.405-0.38-0.673-0.38c-0.264,0-0.475,0.111-0.633,0.335
						C81.304,62.464,81.205,62.991,81.205,63.761z"/>
				</g>
			</g>
			<g>
				<g enable-background="new    ">
					<path d="M75.024,81.737h-0.576v-3.668c-0.139,0.132-0.32,0.265-0.545,0.396c-0.225,0.132-0.427,0.231-0.606,0.298v-0.557
						c0.322-0.151,0.603-0.335,0.844-0.551c0.241-0.215,0.411-0.424,0.511-0.626h0.371V81.737z"/>
					<path d="M78.344,81.737v-1.122h-2.034v-0.528l2.14-3.038h0.47v3.038h0.633v0.528h-0.633v1.122H78.344z M78.344,80.087v-2.113
						l-1.468,2.113H78.344z"/>
					<path d="M80.141,79.425c0-0.554,0.057-1,0.171-1.338s0.284-0.599,0.508-0.782c0.225-0.183,0.508-0.274,0.849-0.274
						c0.251,0,0.472,0.051,0.662,0.151c0.19,0.102,0.347,0.247,0.47,0.438c0.124,0.19,0.221,0.423,0.291,0.697
						c0.07,0.273,0.105,0.643,0.105,1.107c0,0.551-0.057,0.994-0.169,1.332c-0.113,0.338-0.282,0.6-0.507,0.784
						c-0.225,0.184-0.509,0.276-0.853,0.276c-0.452,0-0.807-0.162-1.065-0.486C80.295,80.941,80.141,80.306,80.141,79.425z
						 M80.732,79.425c0,0.771,0.09,1.282,0.271,1.537s0.402,0.382,0.667,0.382c0.265,0,0.487-0.128,0.667-0.384
						s0.27-0.768,0.27-1.535c0-0.771-0.09-1.284-0.27-1.538s-0.405-0.38-0.673-0.38c-0.264,0-0.475,0.111-0.633,0.335
						C80.831,78.128,80.732,78.655,80.732,79.425z"/>
				</g>
			</g>
			<g>
				<g enable-background="new    ">
					<path d="M75.496,97.604h-0.576v-3.668c-0.139,0.132-0.32,0.265-0.545,0.396c-0.225,0.132-0.427,0.231-0.606,0.298v-0.557
						c0.322-0.151,0.603-0.335,0.844-0.551c0.241-0.215,0.411-0.424,0.511-0.626h0.371V97.604z"/>
					<path d="M79.996,97.051v0.554h-3.099c-0.004-0.139,0.018-0.271,0.067-0.399c0.079-0.211,0.205-0.419,0.379-0.624
						c0.174-0.204,0.425-0.441,0.753-0.71c0.51-0.418,0.854-0.749,1.033-0.993c0.179-0.244,0.269-0.475,0.269-0.692
						c0-0.228-0.082-0.42-0.245-0.577c-0.163-0.156-0.376-0.234-0.638-0.234c-0.277,0-0.499,0.083-0.665,0.249
						c-0.167,0.166-0.25,0.396-0.253,0.69l-0.591-0.061c0.041-0.441,0.193-0.777,0.457-1.009c0.265-0.231,0.62-0.347,1.065-0.347
						c0.45,0,0.806,0.124,1.068,0.374c0.262,0.249,0.393,0.559,0.393,0.927c0,0.188-0.038,0.372-0.115,0.554
						c-0.077,0.182-0.205,0.372-0.382,0.572c-0.178,0.2-0.474,0.476-0.888,0.825c-0.345,0.29-0.567,0.486-0.665,0.59
						s-0.179,0.208-0.243,0.312H79.996z"/>
					<path d="M80.614,95.292c0-0.554,0.057-1,0.171-1.338s0.284-0.599,0.508-0.782c0.225-0.183,0.508-0.274,0.849-0.274
						c0.251,0,0.472,0.051,0.662,0.151c0.19,0.102,0.347,0.247,0.47,0.438c0.124,0.19,0.221,0.423,0.291,0.697
						c0.07,0.273,0.105,0.643,0.105,1.107c0,0.551-0.057,0.994-0.169,1.332c-0.113,0.338-0.282,0.6-0.507,0.784
						c-0.225,0.184-0.509,0.276-0.853,0.276c-0.452,0-0.807-0.162-1.065-0.486C80.768,96.809,80.614,96.173,80.614,95.292z
						 M81.205,95.292c0,0.771,0.09,1.282,0.271,1.537s0.402,0.382,0.667,0.382c0.265,0,0.487-0.128,0.667-0.384
						s0.27-0.768,0.27-1.535c0-0.771-0.09-1.284-0.27-1.538s-0.405-0.38-0.673-0.38c-0.264,0-0.475,0.111-0.633,0.335
						C81.304,93.995,81.205,94.522,81.205,95.292z"/>
				</g>
			</g>
			<g>
				<g enable-background="new    ">
					<path d="M75.496,113.337h-0.576v-3.668c-0.139,0.132-0.32,0.265-0.545,0.396c-0.225,0.132-0.427,0.231-0.606,0.298v-0.557
						c0.322-0.151,0.603-0.335,0.844-0.551c0.241-0.215,0.411-0.424,0.511-0.626h0.371V113.337z"/>
					<path d="M76.971,111.024c0-0.554,0.057-1,0.171-1.338s0.284-0.599,0.508-0.782c0.225-0.183,0.508-0.274,0.849-0.274
						c0.251,0,0.472,0.051,0.662,0.151c0.19,0.102,0.347,0.247,0.47,0.438c0.124,0.19,0.221,0.423,0.291,0.697
						c0.07,0.273,0.105,0.643,0.105,1.107c0,0.551-0.057,0.994-0.169,1.332c-0.113,0.338-0.282,0.6-0.507,0.784
						c-0.225,0.184-0.509,0.276-0.853,0.276c-0.452,0-0.807-0.162-1.065-0.486C77.125,112.541,76.971,111.905,76.971,111.024z
						 M77.562,111.024c0,0.771,0.09,1.282,0.271,1.537s0.402,0.382,0.667,0.382c0.265,0,0.487-0.128,0.667-0.384
						s0.27-0.768,0.27-1.535c0-0.771-0.09-1.284-0.27-1.538s-0.405-0.38-0.673-0.38c-0.264,0-0.475,0.111-0.633,0.335
						C77.661,109.728,77.562,110.255,77.562,111.024z"/>
					<path d="M80.614,111.024c0-0.554,0.057-1,0.171-1.338s0.284-0.599,0.508-0.782c0.225-0.183,0.508-0.274,0.849-0.274
						c0.251,0,0.472,0.051,0.662,0.151c0.19,0.102,0.347,0.247,0.47,0.438c0.124,0.19,0.221,0.423,0.291,0.697
						c0.07,0.273,0.105,0.643,0.105,1.107c0,0.551-0.057,0.994-0.169,1.332c-0.113,0.338-0.282,0.6-0.507,0.784
						c-0.225,0.184-0.509,0.276-0.853,0.276c-0.452,0-0.807-0.162-1.065-0.486C80.768,112.541,80.614,111.905,80.614,111.024z
						 M81.205,111.024c0,0.771,0.09,1.282,0.271,1.537s0.402,0.382,0.667,0.382c0.265,0,0.487-0.128,0.667-0.384
						s0.27-0.768,0.27-1.535c0-0.771-0.09-1.284-0.27-1.538s-0.405-0.38-0.673-0.38c-0.264,0-0.475,0.111-0.633,0.335
						C81.304,109.728,81.205,110.255,81.205,111.024z"/>
				</g>
			</g>
			<g>
				<g enable-background="new    ">
					<path d="M76.037,126.525c-0.239-0.088-0.416-0.213-0.531-0.375c-0.115-0.161-0.173-0.355-0.173-0.582
						c0-0.341,0.123-0.627,0.368-0.859s0.571-0.349,0.979-0.349c0.41,0,0.739,0.118,0.988,0.356c0.25,0.237,0.374,0.527,0.374,0.868
						c0,0.218-0.057,0.406-0.171,0.567c-0.114,0.161-0.287,0.285-0.52,0.373c0.288,0.094,0.507,0.245,0.657,0.454
						c0.15,0.209,0.225,0.458,0.225,0.748c0,0.4-0.142,0.737-0.425,1.011c-0.283,0.272-0.657,0.409-1.119,0.409
						c-0.463,0-0.836-0.137-1.119-0.411c-0.284-0.273-0.425-0.615-0.425-1.024c0-0.306,0.077-0.561,0.231-0.767
						C75.531,126.74,75.752,126.6,76.037,126.525z M75.737,127.715c0,0.164,0.039,0.323,0.117,0.477
						c0.078,0.153,0.194,0.272,0.347,0.356s0.319,0.126,0.496,0.126c0.275,0,0.502-0.088,0.681-0.266
						c0.179-0.177,0.269-0.401,0.269-0.675c0-0.276-0.092-0.506-0.276-0.688c-0.185-0.181-0.416-0.271-0.692-0.271
						c-0.271,0-0.495,0.09-0.673,0.269S75.737,127.446,75.737,127.715z M75.922,125.55c0,0.222,0.071,0.402,0.214,0.544
						c0.143,0.141,0.328,0.211,0.557,0.211c0.222,0,0.403-0.07,0.545-0.21c0.142-0.14,0.213-0.311,0.213-0.513
						c0-0.212-0.073-0.389-0.219-0.533c-0.146-0.144-0.328-0.216-0.545-0.216c-0.219,0-0.402,0.07-0.547,0.211
						C75.994,125.186,75.922,125.354,75.922,125.55z"/>
					<path d="M78.794,126.755c0-0.554,0.057-1,0.171-1.338s0.284-0.599,0.508-0.782c0.225-0.183,0.508-0.274,0.849-0.274
						c0.251,0,0.472,0.051,0.662,0.151c0.19,0.102,0.347,0.247,0.47,0.438c0.124,0.19,0.221,0.423,0.291,0.697
						c0.07,0.273,0.105,0.643,0.105,1.107c0,0.551-0.057,0.994-0.169,1.332c-0.113,0.338-0.282,0.6-0.507,0.784
						c-0.225,0.184-0.509,0.276-0.853,0.276c-0.452,0-0.807-0.162-1.065-0.486C78.948,128.271,78.794,127.636,78.794,126.755z
						 M79.385,126.755c0,0.771,0.09,1.282,0.271,1.537s0.402,0.382,0.667,0.382c0.265,0,0.487-0.128,0.667-0.384
						s0.27-0.768,0.27-1.535c0-0.771-0.09-1.284-0.27-1.538s-0.405-0.38-0.673-0.38c-0.264,0-0.475,0.111-0.633,0.335
						C79.485,125.458,79.385,125.985,79.385,126.755z"/>
				</g>
			</g>
			<g>
				<g enable-background="new    ">
					<path d="M78.138,141.327l-0.573,0.045c-0.051-0.227-0.124-0.391-0.217-0.493c-0.156-0.164-0.348-0.246-0.576-0.246
						c-0.183,0-0.344,0.052-0.483,0.153c-0.181,0.133-0.324,0.325-0.428,0.579s-0.159,0.615-0.163,1.084
						c0.138-0.211,0.308-0.367,0.508-0.47s0.41-0.153,0.63-0.153c0.384,0,0.71,0.141,0.98,0.424c0.27,0.282,0.404,0.647,0.404,1.095
						c0,0.295-0.063,0.568-0.19,0.82c-0.126,0.253-0.301,0.446-0.522,0.581c-0.222,0.134-0.474,0.201-0.755,0.201
						c-0.479,0-0.871-0.177-1.174-0.529s-0.454-0.935-0.454-1.744c0-0.906,0.167-1.565,0.502-1.977
						c0.292-0.358,0.685-0.537,1.18-0.537c0.369,0,0.671,0.104,0.907,0.31C77.95,140.677,78.092,140.963,78.138,141.327z
						 M75.788,143.349c0,0.198,0.042,0.388,0.126,0.568c0.084,0.182,0.202,0.319,0.353,0.414c0.151,0.096,0.311,0.143,0.477,0.143
						c0.243,0,0.452-0.098,0.627-0.294s0.262-0.463,0.262-0.8c0-0.324-0.086-0.579-0.259-0.766c-0.173-0.187-0.39-0.28-0.653-0.28
						c-0.26,0-0.48,0.094-0.662,0.28S75.788,143.046,75.788,143.349z"/>
					<path d="M78.794,142.555c0-0.554,0.057-1,0.171-1.338s0.284-0.599,0.508-0.782c0.225-0.183,0.508-0.274,0.849-0.274
						c0.251,0,0.472,0.051,0.662,0.151c0.19,0.102,0.347,0.247,0.47,0.438c0.124,0.19,0.221,0.423,0.291,0.697
						c0.07,0.273,0.105,0.643,0.105,1.107c0,0.551-0.057,0.994-0.169,1.332c-0.113,0.338-0.282,0.6-0.507,0.784
						c-0.225,0.184-0.509,0.276-0.853,0.276c-0.452,0-0.807-0.162-1.065-0.486C78.948,144.071,78.794,143.436,78.794,142.555z
						 M79.385,142.555c0,0.771,0.09,1.282,0.271,1.537s0.402,0.382,0.667,0.382c0.265,0,0.487-0.128,0.667-0.384
						s0.27-0.768,0.27-1.535c0-0.771-0.09-1.284-0.27-1.538s-0.405-0.38-0.673-0.38c-0.264,0-0.475,0.111-0.633,0.335
						C79.485,141.258,79.385,141.785,79.385,142.555z"/>
				</g>
			</g>
		</g>
		<path fill="none" stroke="#000000" stroke-width="1.0001" d="M5.807,81.4c0.54-0.676,1.553-3.24,1.89-2.295
			c0.068,0.539,0.541,3.442,0.541,3.239c0-0.27,1.013-1.62,1.013-1.956c0-1.555-0.202,2.43,0.743,0.403
			c0.945-1.958,3.781-4.051,3.781-6.145c0-1.485,0.27,0.811,0.27,1.215c0,0.675,0,6.416,0.338,6.078
			c1.756-1.756,0.811-3.51,1.958,0.136c1.148,3.646,0.743,5.94,2.769,0.944c0.27-0.877,0.81-2.229,0.81-3.174
			c0-0.606,0.541,1.352,0.541,0.879c0-0.744,2.16-3.443,2.16-3.377c0.878,1.284,0.338,2.094,1.352,0
			c0.404-0.945,0.404-0.945,0.877-0.201c1.147,1.89,0.404,1.147,1.216-0.541c0.54-1.147,1.283,2.025,1.688,2.025
			c0-1.081,0.54-1.486,0.743-2.229c0.067-0.405,0.607-0.811,0.607-1.215c0-0.337,0.203-0.675,0.337-0.743
			c0,0,0.067-0.541,0.067-0.675c0-0.067,0,1.62,0,2.093c0,0.947,0,2.093,0,3.041c0,1.688,0.878-0.946,0.878,0.675
			c0,0.675,0,1.62,0,2.498c0,0.473,0.067,1.418,0.474,0.473c0.472-0.878,0.54-0.405,0.54,0.474c0,0.473,0.203,1.013,0.203,1.416
			c0,0.946,0.54-0.606,0.54-0.606c0.135-0.202,0.337-1.147,0.404-1.485c0.136-0.27,0.541-1.146,0.541-1.418c0,0,0,1.014,0,1.148
			c0,0.404,0.405,1.553,0.405,1.891c0,0.811,0.54-0.271,0.54-0.473c0.203-1.352,0.811-2.701,0.811-4.053
			c1.283,1.283,1.352,2.498,2.025,0.339c0.203-0.878,0.675-2.026,0.675-2.837c0-2.228,1.688,0.067,1.688-0.338
			c0-0.404-0.945-4.456,0.54-2.7c0.811,1.081,1.688,2.903,1.958,0.743c0.203-1.755,1.351,3.782,1.351-0.202
			c0,0,2.633,6.887,2.633,10.128c0,3.105,1.283-0.743,1.283-1.486c0-0.539,0.811-2.835,0.811-2.16l-0.067,4.389
			c0,0.406,1.823-3.442,1.823-4.726c0-0.811,0.135-1.688,0.135-2.498c0-0.608,0.202,0.339,0.337,0.404
			c0.675,1.081,0.473,0.944,1.148-0.945c0.066-0.27,0.606-4.591,0.606-4.389c0,3.241,0.812,6.685,0.812,10.062
			c0,1.957,0.878-2.025,1.146-2.701c0.743-1.485,0.675-1.688,0.675,0.606c0,0.812,0.405,2.095,0.405,2.701
			c0,1.284,0.743-1.351,0.743-1.688c0.405-2.093,1.013-0.203,1.013,0.742c0,2.229,0.405-1.35,0.405-1.688
			c0-2.499,1.35-1.014,1.35-3.309c0-1.486,0.946-0.203,0.946,0.742c0,0.811,0.337,1.553,0.337,2.295
			c0-0.675-0.135-2.229,0.203-2.768l0.135-0.203c0.068-0.203,0.203-0.27,0.203-0.607c0-0.068,0.405-0.744,0.405-0.945
			c0-0.067,0.27-1.148,0.27-1.148l0.136,0.203c0.135,0.405,0.404,1.283,0.404,1.822c0,0.406,0.203,0.812,0.203,1.148
			c0.338-0.878,1.688-2.567,1.688-3.377c0-2.161,0.203,1.958,0.203,2.432c0,0.811,1.553-2.093,1.553-2.229
			c0.337-0.608,0.472-1.215,0.675,0.203c0.068,0.675,0.811-0.945,0.811-1.013c0.136-0.337,0.338,2.835,0.338,3.443
			c0,1.553-0.203,1.485,0.473,0.743c0.27-0.202,0.743,3.646,0.743,4.591c0,1.42,1.35-2.094,1.35-2.296
			c0-1.08,1.283,1.892,1.283,2.296c0,0.473,1.35-2.025,1.485-2.296c0.201-0.743,0.81-2.971,0.81-0.743c0,0.34,0.811,2.5,0.811,2.5
			c0.743-1.486,1.485-3.242,1.823-4.795c0.068-0.607,0.203-0.878,0.203-0.135s0.271,1.688,0.608,2.296l0.337,0.742
			c0.944-0.945,1.35-4.254,1.35-5.604c0-0.743,1.418,2.294,1.553,2.565c0.54,1.485,0.945-0.81,1.283-1.417
			c0,0,0.405-0.675,0.405-0.473c0,0.473,0.81,3.375,0.945,3.375c0.203,0.136,1.215,2.701,1.35,2.701
			c0.068-0.271,0.812-2.094,1.013-2.295c0.203-0.203,0.405-0.742,0.405-0.742c0.473,0.943,0.541,2.295,0.878,3.24
			c0,0-0.135,1.553,0.271,1.079c0.675-0.878,1.484-5.469,1.484-6.616c0-2.161,0.338,1.08,0.338,1.554
			c0,0.271,0.405,0.743,0.405,1.079c0,0.339,0.405-7.629,1.352-3.78c0.337,1.553,0.606,1.351,0.944-0.068
			c0.203-1.08,1.352-2.971,1.352-0.675c0,0.54,0.338,1.485,0.338,2.025c0,1.215,0.27,0.742,0.606,0.27c0,0,1.148-2.769,1.283-2.498
			c0.405,0.945,0.271,2.297,0.675,3.174c0.743,1.891,1.823-0.136,2.566-1.082c0.877-1.215,0.675,0.405,0.675,1.486v2.7
			c0,2.229,1.148-0.404,1.621-1.215c0-0.136-0.203,1.146-0.135,1.552c0.81,3.646,1.891-3.781,1.891-1.552
			c0,2.295,0.743,4.118,2.295,1.013c0.203-0.406,0.812-3.579,1.014-2.634c0.135,0.676,1.282,3.376,1.619,2.565
			c0.677-1.891,1.757-3.983,2.297-5.807c0.473-1.553,0.473,2.971,0.473,3.781c0,0.338,1.417-2.903,1.417-3.646
			c0-3.241,0.473-0.135,0.878,0.81c0.338,0.675,1.283,3.375,1.688,3.781c0-0.811,0.338-1.959,0.338-2.634
			c0,0,0.066-0.675,0.201-0.811c0,0,0.203-0.337,0.203-0.405c0,0,0.337,1.215,0.54,1.891s0.405,1.013,0.812,0.203
			c0.135-0.339,1.891-3.376,1.891-3.174c0,1.148,0.405,2.432,0.405,3.443c0,1.283,1.283-1.352,1.283-1.418
			c0-0.135,0.201-0.743,0.27-0.743c0,0,0,1.553,0,1.756c0,0.945,0,2.093,0,3.039c0,0.337,0,1.958,0.135,2.093
			c0.067,0.135,0.811-1.891,0.945-2.16c0.203-0.473,1.148-1.147,1.215-1.619c0.271-0.743,0.541,2.092,0.541,2.43
			c0,0.945,0.405,2.363,0.405,3.24c0-1.147,0.877-2.633,1.35-3.578c0.135-0.202,1.148-2.297,1.148-2.7
			c0-0.608,0.27,1.351,0.27,1.553c0,1.08,0.405,2.972,0.607,3.983c0,0.203,0.203,0.945,0.203,0.945c0-1.485,0.541-2.836,0.944-4.187
			c0.068-0.54,0.541-1.351,0.743-1.892c0.203-0.539,0.405-0.066,0.474,0.541c0.338,1.283,1.418,3.24,1.418,4.455
			c-0.676,1.42,2.362-2.7,2.362-3.713c0-0.404,0.945,2.094,1.283,0.405c0.067-0.812,0.743-1.892,0.811-2.702
			c0.338-2.228,0.338,0,0.945-0.338c0.202-0.066,0.945-2.093,0.945-2.363c0.067-0.675,0.743,0.81,1.147,1.214
			c0.203,0.203,0.339,0.608,0.405,0c1.081-4.253,0.946,2.432,1.756,0.136c0.743-2.228,0.878,1.553,0.878,2.498
			c0,1.013,0.271,2.159,0.271,3.241c0,1.012,1.147-4.188,1.147-2.025c0,0.742,0.474,1.282,0.474,2.025
			c0,2.295,1.958-1.823,2.093-2.229c0.812-3.646-0.54,1.08,0.473,2.093c0.676,0.608,1.485-2.902,1.621-3.51
			c0.405-2.025,0.203-2.432,0.812,0.066c0.337,1.554,1.282-1.958,1.35-2.295c0.743-1.553,1.283,3.375,1.283,4.523
			c0,0.404,1.418-1.08,1.418-1.619c0,0-0.405,2.228,0.337,2.971c0.068,0.066,0.203,0.27,0.203,0.473
			c0,1.146,1.147-2.025,1.147-2.498c0-0.945,1.484,3.037,1.484,3.037c0.405-0.404,1.958-2.699,1.958-3.24"/>
	</g>
	<g enable-background="new    ">
		<path d="M53.881,7.568c-0.366,0.141-1.098,0.347-1.952,0.347c-0.958,0-1.746-0.244-2.365-0.835
			c-0.544-0.525-0.882-1.37-0.882-2.355c0-1.886,1.304-3.266,3.425-3.266c0.732,0,1.313,0.159,1.586,0.291l-0.207,0.666
			c-0.338-0.159-0.76-0.271-1.398-0.271c-1.539,0-2.543,0.957-2.543,2.543c0,1.604,0.957,2.552,2.44,2.552
			c0.535,0,0.901-0.074,1.088-0.169V5.185h-1.276V4.527h2.083V7.568z"/>
		<path d="M59.244,5.541c0,1.68-1.173,2.412-2.262,2.412c-1.22,0-2.177-0.901-2.177-2.337c0-1.511,1.004-2.402,2.252-2.402
			C58.362,3.214,59.244,4.162,59.244,5.541z M55.65,5.588c0,0.995,0.563,1.745,1.37,1.745c0.788,0,1.379-0.741,1.379-1.764
			c0-0.77-0.385-1.736-1.361-1.736C56.073,3.833,55.65,4.734,55.65,5.588z"/>
		<path d="M64.393,5.541c0,1.68-1.173,2.412-2.262,2.412c-1.22,0-2.177-0.901-2.177-2.337c0-1.511,1.004-2.402,2.252-2.402
			C63.51,3.214,64.393,4.162,64.393,5.541z M60.799,5.588c0,0.995,0.563,1.745,1.37,1.745c0.788,0,1.379-0.741,1.379-1.764
			c0-0.77-0.385-1.736-1.361-1.736C61.221,3.833,60.799,4.734,60.799,5.588z"/>
		<path d="M69.344,1.187v5.49c0,0.403,0.019,0.863,0.038,1.173H68.65l-0.038-0.788h-0.028c-0.244,0.507-0.788,0.892-1.529,0.892
			c-1.098,0-1.952-0.93-1.952-2.309c-0.009-1.511,0.938-2.431,2.037-2.431c0.704,0,1.164,0.328,1.37,0.685h0.019V1.187H69.344z
			 M68.528,5.156c0-0.104-0.009-0.244-0.038-0.347c-0.122-0.517-0.572-0.948-1.191-0.948c-0.854,0-1.361,0.751-1.361,1.745
			c0,0.92,0.459,1.68,1.342,1.68c0.554,0,1.061-0.375,1.21-0.985c0.028-0.112,0.038-0.225,0.038-0.356V5.156z"/>
		<path d="M73.027,3.308l0.892,2.543c0.15,0.423,0.272,0.798,0.366,1.173h0.028c0.104-0.375,0.235-0.75,0.385-1.173l0.882-2.543
			h0.863L74.659,7.85h-0.788l-1.727-4.542H73.027z"/>
		<path d="M80.371,6.761c0,0.395,0.019,0.779,0.066,1.089h-0.741L79.63,7.277h-0.028c-0.253,0.356-0.741,0.676-1.389,0.676
			c-0.919,0-1.389-0.647-1.389-1.305c0-1.098,0.976-1.698,2.73-1.689V4.865c0-0.366-0.103-1.051-1.032-1.041
			c-0.432,0-0.873,0.121-1.192,0.338l-0.188-0.554c0.375-0.235,0.929-0.395,1.501-0.395c1.389,0,1.727,0.948,1.727,1.849V6.761z
			 M79.574,5.531c-0.901-0.019-1.924,0.142-1.924,1.023c0,0.544,0.356,0.788,0.77,0.788c0.601,0,0.985-0.375,1.117-0.76
			c0.028-0.094,0.038-0.188,0.038-0.263V5.531z"/>
		<path d="M81.701,4.725c0-0.535-0.009-0.995-0.038-1.417h0.723l0.038,0.901h0.028c0.207-0.61,0.713-0.995,1.267-0.995
			c0.084,0,0.15,0.01,0.225,0.019v0.779c-0.084-0.019-0.169-0.019-0.281-0.019c-0.582,0-0.995,0.432-1.107,1.051
			c-0.019,0.112-0.028,0.253-0.028,0.385V7.85h-0.826V4.725z"/>
		<path d="M85.724,2.031c0,0.281-0.197,0.507-0.525,0.507c-0.3,0-0.497-0.226-0.497-0.507s0.206-0.516,0.516-0.516
			C85.518,1.516,85.724,1.74,85.724,2.031z M84.805,7.85V3.308h0.826V7.85H84.805z"/>
		<path d="M90.19,6.761c0,0.395,0.019,0.779,0.066,1.089h-0.741l-0.066-0.572H89.42c-0.253,0.356-0.741,0.676-1.389,0.676
			c-0.919,0-1.389-0.647-1.389-1.305c0-1.098,0.976-1.698,2.73-1.689V4.865c0-0.366-0.103-1.051-1.032-1.041
			c-0.432,0-0.873,0.121-1.192,0.338l-0.188-0.554c0.375-0.235,0.929-0.395,1.501-0.395c1.389,0,1.727,0.948,1.727,1.849V6.761z
			 M89.392,5.531c-0.901-0.019-1.924,0.142-1.924,1.023c0,0.544,0.356,0.788,0.77,0.788c0.601,0,0.985-0.375,1.117-0.76
			c0.028-0.094,0.038-0.188,0.038-0.263V5.531z"/>
		<path d="M91.519,1.187h0.816V4.04h0.019c0.291-0.507,0.816-0.826,1.549-0.826c1.135,0,1.923,0.938,1.923,2.309
			c0,1.623-1.032,2.431-2.045,2.431c-0.657,0-1.183-0.254-1.53-0.845h-0.019L92.185,7.85h-0.704c0.019-0.31,0.038-0.77,0.038-1.173
			V1.187z M92.336,6.029c0,0.103,0.009,0.206,0.038,0.3c0.15,0.572,0.638,0.967,1.239,0.967c0.873,0,1.379-0.704,1.379-1.745
			c0-0.91-0.469-1.689-1.361-1.689c-0.554,0-1.079,0.395-1.248,1.014c-0.028,0.104-0.047,0.216-0.047,0.347V6.029z"/>
		<path d="M97.774,2.031c0,0.281-0.197,0.507-0.525,0.507c-0.3,0-0.497-0.226-0.497-0.507s0.206-0.516,0.516-0.516
			C97.568,1.516,97.774,1.74,97.774,2.031z M96.855,7.85V3.308h0.826V7.85H96.855z"/>
		<path d="M99.049,1.187h0.826V7.85h-0.826V1.187z"/>
		<path d="M102.182,2.031c0,0.281-0.197,0.507-0.525,0.507c-0.3,0-0.497-0.226-0.497-0.507s0.206-0.516,0.516-0.516
			C101.976,1.516,102.182,1.74,102.182,2.031z M101.262,7.85V3.308h0.826V7.85H101.262z"/>
		<path d="M104.451,2.219v1.089h1.183v0.629h-1.183v2.449c0,0.563,0.16,0.882,0.62,0.882c0.225,0,0.356-0.019,0.479-0.056
			l0.038,0.628c-0.16,0.057-0.413,0.113-0.732,0.113c-0.385,0-0.695-0.132-0.892-0.348c-0.225-0.253-0.319-0.656-0.319-1.191V3.937
			h-0.704V3.308h0.704V2.463L104.451,2.219z"/>
		<path d="M106.945,3.308l0.985,2.684c0.113,0.301,0.225,0.657,0.3,0.93h0.019c0.084-0.272,0.179-0.62,0.291-0.948l0.901-2.665
			h0.873l-1.239,3.237c-0.591,1.558-0.995,2.347-1.558,2.844c-0.413,0.347-0.807,0.488-1.013,0.525l-0.207-0.685
			c0.207-0.066,0.479-0.197,0.723-0.404c0.225-0.178,0.497-0.497,0.694-0.919c0.038-0.085,0.065-0.15,0.065-0.197
			s-0.019-0.112-0.065-0.216l-1.67-4.186H106.945z"/>
	</g>
	<g enable-background="new    ">
		<path d="M217.857,1.6c0.395-0.065,0.91-0.122,1.567-0.122c0.808,0,1.398,0.188,1.773,0.525c0.338,0.301,0.554,0.761,0.554,1.323
			c0,0.572-0.169,1.023-0.488,1.352c-0.44,0.46-1.135,0.694-1.933,0.694c-0.244,0-0.47-0.009-0.657-0.057V7.85h-0.816V1.6z
			 M218.674,4.649c0.179,0.047,0.404,0.065,0.676,0.065c0.985,0,1.586-0.487,1.586-1.342c0-0.845-0.601-1.248-1.492-1.248
			c-0.356,0-0.629,0.028-0.77,0.066V4.649z"/>
		<path d="M226.694,5.541c0,1.68-1.173,2.412-2.262,2.412c-1.22,0-2.177-0.901-2.177-2.337c0-1.511,1.004-2.402,2.252-2.402
			C225.812,3.214,226.694,4.162,226.694,5.541z M223.099,5.588c0,0.995,0.563,1.745,1.371,1.745c0.787,0,1.379-0.741,1.379-1.764
			c0-0.77-0.385-1.736-1.361-1.736C223.522,3.833,223.099,4.734,223.099,5.588z"/>
		<path d="M231.843,5.541c0,1.68-1.173,2.412-2.262,2.412c-1.22,0-2.177-0.901-2.177-2.337c0-1.511,1.004-2.402,2.252-2.402
			C230.961,3.214,231.843,4.162,231.843,5.541z M228.248,5.588c0,0.995,0.563,1.745,1.371,1.745c0.787,0,1.379-0.741,1.379-1.764
			c0-0.77-0.385-1.736-1.361-1.736C228.671,3.833,228.248,4.734,228.248,5.588z"/>
		<path d="M232.881,4.725c0-0.535-0.01-0.995-0.037-1.417h0.723l0.037,0.901h0.027c0.207-0.61,0.714-0.995,1.268-0.995
			c0.084,0,0.15,0.01,0.225,0.019v0.779c-0.084-0.019-0.168-0.019-0.281-0.019c-0.582,0-0.994,0.432-1.107,1.051
			c-0.019,0.112-0.027,0.253-0.027,0.385V7.85h-0.826V4.725z"/>
		<path d="M238.254,3.308l0.892,2.543c0.15,0.423,0.272,0.798,0.366,1.173h0.027c0.104-0.375,0.235-0.75,0.385-1.173l0.883-2.543
			h0.863l-1.783,4.542h-0.788l-1.727-4.542H238.254z"/>
		<path d="M245.598,6.761c0,0.395,0.019,0.779,0.065,1.089h-0.74l-0.066-0.572h-0.028c-0.253,0.356-0.741,0.676-1.389,0.676
			c-0.919,0-1.389-0.647-1.389-1.305c0-1.098,0.976-1.698,2.73-1.689V4.865c0-0.366-0.103-1.051-1.032-1.041
			c-0.432,0-0.873,0.121-1.191,0.338l-0.188-0.554c0.375-0.235,0.929-0.395,1.501-0.395c1.389,0,1.727,0.948,1.727,1.849V6.761z
			 M244.801,5.531c-0.9-0.019-1.924,0.142-1.924,1.023c0,0.544,0.357,0.788,0.77,0.788c0.602,0,0.986-0.375,1.117-0.76
			c0.028-0.094,0.037-0.188,0.037-0.263V5.531z"/>
		<path d="M246.927,4.725c0-0.535-0.009-0.995-0.037-1.417h0.723l0.037,0.901h0.028c0.206-0.61,0.714-0.995,1.267-0.995
			c0.085,0,0.15,0.01,0.226,0.019v0.779c-0.085-0.019-0.169-0.019-0.281-0.019c-0.582,0-0.995,0.432-1.107,1.051
			c-0.019,0.112-0.028,0.253-0.028,0.385V7.85h-0.826V4.725z"/>
		<path d="M250.951,2.031c0,0.281-0.196,0.507-0.525,0.507c-0.3,0-0.496-0.226-0.496-0.507s0.205-0.516,0.516-0.516
			C250.746,1.516,250.951,1.74,250.951,2.031z M250.032,7.85V3.308h0.825V7.85H250.032z"/>
		<path d="M255.417,6.761c0,0.395,0.019,0.779,0.065,1.089h-0.74l-0.066-0.572h-0.028c-0.253,0.356-0.741,0.676-1.389,0.676
			c-0.919,0-1.389-0.647-1.389-1.305c0-1.098,0.976-1.698,2.73-1.689V4.865c0-0.366-0.103-1.051-1.032-1.041
			c-0.432,0-0.873,0.121-1.191,0.338l-0.188-0.554c0.375-0.235,0.929-0.395,1.501-0.395c1.389,0,1.727,0.948,1.727,1.849V6.761z
			 M254.619,5.531c-0.9-0.019-1.924,0.142-1.924,1.023c0,0.544,0.357,0.788,0.77,0.788c0.602,0,0.986-0.375,1.117-0.76
			c0.028-0.094,0.037-0.188,0.037-0.263V5.531z"/>
		<path d="M256.746,1.187h0.816V4.04h0.02c0.291-0.507,0.816-0.826,1.549-0.826c1.135,0,1.923,0.938,1.923,2.309
			c0,1.623-1.032,2.431-2.046,2.431c-0.656,0-1.182-0.254-1.529-0.845h-0.019l-0.047,0.741h-0.704c0.02-0.31,0.037-0.77,0.037-1.173
			V1.187z M257.562,6.029c0,0.103,0.01,0.206,0.038,0.3c0.149,0.572,0.638,0.967,1.239,0.967c0.872,0,1.379-0.704,1.379-1.745
			c0-0.91-0.469-1.689-1.361-1.689c-0.553,0-1.078,0.395-1.248,1.014c-0.027,0.104-0.047,0.216-0.047,0.347V6.029z"/>
		<path d="M263.002,2.031c0,0.281-0.197,0.507-0.525,0.507c-0.301,0-0.498-0.226-0.498-0.507s0.207-0.516,0.517-0.516
			C262.795,1.516,263.002,1.74,263.002,2.031z M262.082,7.85V3.308h0.826V7.85H262.082z"/>
		<path d="M264.276,1.187h0.825V7.85h-0.825V1.187z"/>
		<path d="M267.409,2.031c0,0.281-0.196,0.507-0.525,0.507c-0.3,0-0.497-0.226-0.497-0.507s0.206-0.516,0.516-0.516
			C267.203,1.516,267.409,1.74,267.409,2.031z M266.49,7.85V3.308h0.825V7.85H266.49z"/>
		<path d="M269.678,2.219v1.089h1.183v0.629h-1.183v2.449c0,0.563,0.159,0.882,0.62,0.882c0.225,0,0.355-0.019,0.479-0.056
			l0.037,0.628c-0.16,0.057-0.413,0.113-0.732,0.113c-0.385,0-0.694-0.132-0.891-0.348c-0.226-0.253-0.32-0.656-0.32-1.191V3.937
			h-0.703V3.308h0.703V2.463L269.678,2.219z"/>
		<path d="M272.172,3.308l0.986,2.684c0.112,0.301,0.225,0.657,0.3,0.93h0.019c0.084-0.272,0.179-0.62,0.291-0.948l0.9-2.665h0.873
			l-1.238,3.237c-0.592,1.558-0.995,2.347-1.559,2.844c-0.412,0.347-0.807,0.488-1.013,0.525l-0.206-0.685
			c0.206-0.066,0.479-0.197,0.723-0.404c0.225-0.178,0.496-0.497,0.693-0.919c0.038-0.085,0.066-0.15,0.066-0.197
			s-0.02-0.112-0.066-0.216l-1.67-4.186H272.172z"/>
	</g>
</g>
</svg>
