<?xml version="1.0" encoding="utf-8"?>
<!-- Generator: Adobe Illustrator 19.2.0, SVG Export Plug-In . SVG Version: 6.00 Build 0)  -->
<svg version="1.1" id="Layer_1" xmlns="http://www.w3.org/2000/svg" xmlns:xlink="http://www.w3.org/1999/xlink" x="0px" y="0px"
	 viewBox="0 0 407.5 56.7" style="enable-background:new 0 0 407.5 56.7;" xml:space="preserve">
<style type="text/css">
	.st0{fill:none;stroke:#000000;stroke-width:0.4191;stroke-linejoin:round;stroke-miterlimit:10;}
	.st1{fill:none;stroke:#000000;stroke-width:1.4173;stroke-miterlimit:10;}
</style>
<path class="st0" d="M63.6,20c0-2.2,1.9-4.2,4.2-4.2H143c2.2,0,4.2,1.9,4.2,4.2v16.7c0,2.2-1.9,4.2-4.2,4.2H67.8
	c-2.2,0-4.2-1.9-4.2-4.2V20z"/>
<path class="st0" d="M152.3,20c0-2.2,1.9-4.2,4.2-4.2h60.1c2.2,0,4.2,1.9,4.2,4.2v16.7c0,2.2-1.9,4.2-4.2,4.2h-60.1
	c-2.2,0-4.2-1.9-4.2-4.2V20z"/>
<path class="st0" d="M236.5,19.7c0-2.6,1.9-4.5,4.5-4.5h75.5c2.2,0,4.5,1.9,4.5,4.5V37c0,2.2-1.9,4.5-4.5,4.5H241
	c-2.6,0-4.5-1.9-4.5-4.5V19.7z"/>
<path class="st0" d="M330.7,20c0-2.2,1.9-4.2,4.2-4.2h60.1c2.2,0,4.2,1.9,4.2,4.2v16.7c0,2.2-1.9,4.2-4.2,4.2h-60.1
	c-2.2,0-4.2-1.9-4.2-4.2V20z"/>
<g>
	<path d="M10.2,23.8v3.1h3.6v-3.1h1v7.4h-1v-3.5h-3.6v3.5h-1v-7.4H10.2z"/>
	<path d="M17.2,23.8v7.4h-1v-7.4H17.2z"/>
	<path d="M20.4,31.2L18,23.8h1l1.2,3.7c0.3,1,0.6,1.9,0.8,2.8h0c0.2-0.9,0.5-1.8,0.8-2.8l1.3-3.7h1l-2.7,7.4H20.4z"/>
	<path d="M28.2,24.3v1.5h1.4v0.7h-1.4v2.9c0,0.7,0.2,1,0.7,1c0.3,0,0.4,0,0.6-0.1l0,0.7c-0.2,0.1-0.5,0.1-0.9,0.1
		c-0.5,0-0.8-0.1-1-0.4c-0.3-0.3-0.4-0.8-0.4-1.4v-2.9h-0.8v-0.7h0.8v-1.3L28.2,24.3z"/>
	<path d="M31,28.7c0,1.3,0.9,1.8,1.8,1.8c0.7,0,1.1-0.1,1.5-0.3l0.2,0.7c-0.3,0.2-0.9,0.3-1.8,0.3c-1.6,0-2.6-1.1-2.6-2.7
		c0-1.6,0.9-2.9,2.5-2.9c1.7,0,2.2,1.5,2.2,2.5c0,0.2,0,0.4,0,0.5H31z M33.9,28c0-0.6-0.3-1.6-1.3-1.6c-1,0-1.4,0.9-1.5,1.6H33.9z"
		/>
	<path d="M35.7,30.2c0.3,0.2,0.8,0.4,1.3,0.4c0.7,0,1-0.4,1-0.8c0-0.5-0.3-0.7-1-1c-1-0.3-1.4-0.9-1.4-1.5c0-0.9,0.7-1.6,1.8-1.6
		c0.5,0,1,0.2,1.3,0.3l-0.2,0.7c-0.2-0.1-0.6-0.3-1.1-0.3c-0.6,0-0.9,0.3-0.9,0.7c0,0.4,0.3,0.6,1,0.9c0.9,0.4,1.4,0.8,1.4,1.6
		c0,0.9-0.7,1.6-2,1.6c-0.6,0-1.1-0.1-1.5-0.4L35.7,30.2z"/>
	<path d="M41.3,24.3v1.5h1.4v0.7h-1.4v2.9c0,0.7,0.2,1,0.7,1c0.3,0,0.4,0,0.6-0.1l0,0.7c-0.2,0.1-0.5,0.1-0.9,0.1
		c-0.5,0-0.8-0.1-1-0.4c-0.3-0.3-0.4-0.8-0.4-1.4v-2.9h-0.8v-0.7h0.8v-1.3L41.3,24.3z"/>
</g>
<g>
	<path d="M69.2,23.9c0.6-0.1,1.3-0.2,2-0.2c1.4,0,2.4,0.3,3,0.9c0.7,0.6,1,1.5,1,2.7c0,1.2-0.4,2.2-1.1,2.9
		c-0.7,0.7-1.8,1.1-3.3,1.1c-0.7,0-1.3,0-1.7-0.1V23.9z M70.2,30.4c0.2,0,0.6,0.1,1,0.1c2,0,3.2-1.1,3.2-3.1c0-1.7-1-2.9-3-2.9
		c-0.5,0-0.9,0-1.1,0.1V30.4z"/>
	<path d="M79.4,31.2l-0.1-0.7h0c-0.3,0.4-0.9,0.8-1.6,0.8c-1.1,0-1.6-0.8-1.6-1.5c0-1.3,1.1-2,3.2-2v-0.1c0-0.4-0.1-1.2-1.2-1.2
		c-0.5,0-1,0.2-1.4,0.4l-0.2-0.6c0.4-0.3,1.1-0.5,1.7-0.5c1.6,0,2,1.1,2,2.2v2c0,0.5,0,0.9,0.1,1.3H79.4z M79.2,28.5
		c-1.1,0-2.3,0.2-2.3,1.2c0,0.6,0.4,0.9,0.9,0.9c0.7,0,1.1-0.4,1.3-0.9c0-0.1,0.1-0.2,0.1-0.3V28.5z"/>
	<path d="M82.7,24.3v1.5h1.4v0.7h-1.4v2.9c0,0.7,0.2,1,0.7,1c0.3,0,0.4,0,0.6-0.1l0,0.7c-0.2,0.1-0.5,0.1-0.9,0.1
		c-0.5,0-0.8-0.1-1-0.4c-0.3-0.3-0.4-0.8-0.4-1.4v-2.9H81v-0.7h0.8v-1.3L82.7,24.3z"/>
	<path d="M85.6,28.7c0,1.3,0.9,1.8,1.8,1.8c0.7,0,1.1-0.1,1.5-0.3L89,31c-0.3,0.2-0.9,0.3-1.8,0.3c-1.6,0-2.6-1.1-2.6-2.7
		c0-1.6,0.9-2.9,2.5-2.9c1.7,0,2.2,1.5,2.2,2.5c0,0.2,0,0.4,0,0.5H85.6z M88.4,28c0-0.6-0.3-1.6-1.3-1.6c-1,0-1.4,0.9-1.5,1.6H88.4z
		"/>
	<path d="M90.2,26.8c0-0.4,0.3-0.7,0.7-0.7c0.4,0,0.6,0.3,0.6,0.7c0,0.4-0.3,0.7-0.7,0.7C90.5,27.4,90.2,27.1,90.2,26.8z M90.2,30.6
		c0-0.4,0.3-0.7,0.7-0.7c0.4,0,0.6,0.3,0.6,0.7c0,0.4-0.3,0.7-0.7,0.7C90.5,31.3,90.2,31,90.2,30.6z"/>
</g>
<g>
	<path d="M176.9,23.9c0.5-0.1,1.2-0.2,1.8-0.2c1,0,1.7,0.2,2.1,0.6c0.4,0.3,0.6,0.8,0.6,1.4c0,1-0.6,1.6-1.4,1.9v0
		c0.6,0.2,0.9,0.7,1.1,1.5c0.2,1,0.4,1.7,0.6,2h-1c-0.1-0.2-0.3-0.8-0.5-1.8c-0.2-1-0.6-1.4-1.5-1.4h-0.9v3.2h-1V23.9z M177.9,27.3
		h1c1,0,1.7-0.6,1.7-1.4c0-1-0.7-1.4-1.7-1.4c-0.5,0-0.8,0-0.9,0.1V27.3z"/>
	<path d="M183.3,28.7c0,1.3,0.9,1.8,1.8,1.8c0.7,0,1.1-0.1,1.5-0.3l0.2,0.7c-0.3,0.2-0.9,0.3-1.8,0.3c-1.6,0-2.6-1.1-2.6-2.7
		c0-1.6,0.9-2.9,2.5-2.9c1.7,0,2.2,1.5,2.2,2.5c0,0.2,0,0.4,0,0.5H183.3z M186.1,28c0-0.6-0.3-1.6-1.3-1.6c-1,0-1.4,0.9-1.5,1.6
		H186.1z"/>
	<path d="M191.1,31.2l-0.1-0.7h0c-0.3,0.4-0.9,0.8-1.6,0.8c-1.1,0-1.6-0.8-1.6-1.5c0-1.3,1.1-2,3.2-2v-0.1c0-0.4-0.1-1.2-1.2-1.2
		c-0.5,0-1,0.2-1.4,0.4l-0.2-0.6c0.4-0.3,1.1-0.5,1.7-0.5c1.6,0,2,1.1,2,2.2v2c0,0.5,0,0.9,0.1,1.3H191.1z M191,28.5
		c-1.1,0-2.3,0.2-2.3,1.2c0,0.6,0.4,0.9,0.9,0.9c0.7,0,1.1-0.4,1.3-0.9c0-0.1,0.1-0.2,0.1-0.3V28.5z"/>
	<path d="M197.2,31c-0.3,0.1-0.8,0.3-1.5,0.3c-1.6,0-2.7-1.1-2.7-2.7c0-1.6,1.1-2.8,2.9-2.8c0.6,0,1.1,0.1,1.3,0.3l-0.2,0.7
		c-0.2-0.1-0.6-0.3-1.1-0.3c-1.2,0-1.9,0.9-1.9,2c0,1.2,0.8,2,1.8,2c0.5,0,0.9-0.1,1.2-0.3L197.2,31z"/>
	<path d="M199.5,24.3v1.5h1.4v0.7h-1.4v2.9c0,0.7,0.2,1,0.7,1c0.3,0,0.4,0,0.6-0.1l0,0.7c-0.2,0.1-0.5,0.1-0.9,0.1
		c-0.5,0-0.8-0.1-1-0.4c-0.3-0.3-0.4-0.8-0.4-1.4v-2.9h-0.8v-0.7h0.8v-1.3L199.5,24.3z"/>
	<path d="M202.9,24.4c0,0.3-0.2,0.6-0.6,0.6c-0.3,0-0.6-0.3-0.6-0.6c0-0.3,0.3-0.6,0.6-0.6C202.7,23.8,202.9,24,202.9,24.4z
		 M201.9,31.2v-5.3h1v5.3H201.9z"/>
	<path d="M204.7,25.9l1,3c0.2,0.5,0.3,0.9,0.4,1.4h0c0.1-0.4,0.3-0.9,0.5-1.4l1-3h1l-2.1,5.3h-0.9l-2-5.3H204.7z"/>
	<path d="M209.9,28.7c0,1.3,0.9,1.8,1.8,1.8c0.7,0,1.1-0.1,1.5-0.3l0.2,0.7c-0.3,0.2-0.9,0.3-1.8,0.3c-1.6,0-2.6-1.1-2.6-2.7
		c0-1.6,0.9-2.9,2.5-2.9c1.7,0,2.2,1.5,2.2,2.5c0,0.2,0,0.4,0,0.5H209.9z M212.8,28c0-0.6-0.3-1.6-1.3-1.6c-1,0-1.4,0.9-1.5,1.6
		H212.8z"/>
</g>
<g>
	<path d="M257.9,31.2v-7.4h1l2.4,3.8c0.5,0.9,1,1.7,1.3,2.4l0,0c-0.1-1-0.1-1.9-0.1-3v-3.1h0.9v7.4h-1l-2.4-3.8
		c-0.5-0.8-1-1.7-1.4-2.5l0,0c0.1,0.9,0.1,1.8,0.1,3.1v3.2H257.9z"/>
	<path d="M269.7,28.5c0,2-1.4,2.8-2.7,2.8c-1.4,0-2.6-1.1-2.6-2.7c0-1.8,1.2-2.8,2.6-2.8C268.7,25.8,269.7,26.9,269.7,28.5z
		 M265.5,28.5c0,1.2,0.7,2,1.6,2c0.9,0,1.6-0.9,1.6-2.1c0-0.9-0.5-2-1.6-2C266,26.5,265.5,27.5,265.5,28.5z"/>
	<path d="M270.7,27.3c0-0.5,0-1,0-1.4h0.9l0.1,0.9h0c0.3-0.5,0.9-1,1.8-1c0.7,0,1.9,0.4,1.9,2.3v3.2h-1v-3.1c0-0.9-0.3-1.6-1.2-1.6
		c-0.6,0-1.1,0.5-1.3,1c0,0.1-0.1,0.3-0.1,0.5v3.2h-1V27.3z"/>
	<path d="M278.9,27.9v0.7h-2.7v-0.7H278.9z"/>
	<path d="M279.8,27.5c0-0.6,0-1.2,0-1.7h0.8l0,1h0c0.2-0.7,0.8-1.2,1.5-1.2c0.1,0,0.2,0,0.3,0v0.9c-0.1,0-0.2,0-0.3,0
		c-0.7,0-1.2,0.5-1.3,1.2c0,0.1,0,0.3,0,0.5v2.8h-1V27.5z"/>
	<path d="M283.6,28.7c0,1.3,0.9,1.8,1.8,1.8c0.7,0,1.1-0.1,1.5-0.3L287,31c-0.3,0.2-0.9,0.3-1.8,0.3c-1.6,0-2.6-1.1-2.6-2.7
		c0-1.6,0.9-2.9,2.5-2.9c1.7,0,2.2,1.5,2.2,2.5c0,0.2,0,0.4,0,0.5H283.6z M286.4,28c0-0.6-0.3-1.6-1.3-1.6c-1,0-1.4,0.9-1.5,1.6
		H286.4z"/>
	<path d="M291.3,31.2l-0.1-0.7h0c-0.3,0.4-0.9,0.8-1.6,0.8c-1.1,0-1.6-0.8-1.6-1.5c0-1.3,1.1-2,3.2-2v-0.1c0-0.4-0.1-1.2-1.2-1.2
		c-0.5,0-1,0.2-1.4,0.4l-0.2-0.6c0.4-0.3,1.1-0.5,1.7-0.5c1.6,0,2,1.1,2,2.2v2c0,0.5,0,0.9,0.1,1.3H291.3z M291.1,28.5
		c-1.1,0-2.3,0.2-2.3,1.2c0,0.6,0.4,0.9,0.9,0.9c0.7,0,1.1-0.4,1.3-0.9c0-0.1,0.1-0.2,0.1-0.3V28.5z"/>
	<path d="M297.2,31c-0.3,0.1-0.8,0.3-1.5,0.3c-1.6,0-2.7-1.1-2.7-2.7c0-1.6,1.1-2.8,2.9-2.8c0.6,0,1.1,0.1,1.3,0.3l-0.2,0.7
		c-0.2-0.1-0.6-0.3-1.1-0.3c-1.2,0-1.9,0.9-1.9,2c0,1.2,0.8,2,1.8,2c0.6,0,0.9-0.1,1.2-0.3L297.2,31z"/>
	<path d="M299.4,24.3v1.5h1.4v0.7h-1.4v2.9c0,0.7,0.2,1,0.7,1c0.3,0,0.4,0,0.6-0.1l0,0.7c-0.2,0.1-0.5,0.1-0.9,0.1
		c-0.5,0-0.8-0.1-1-0.4c-0.3-0.3-0.4-0.8-0.4-1.4v-2.9h-0.8v-0.7h0.8v-1.3L299.4,24.3z"/>
	<path d="M302.8,24.4c0,0.3-0.2,0.6-0.6,0.6c-0.3,0-0.6-0.3-0.6-0.6c0-0.3,0.3-0.6,0.6-0.6C302.5,23.8,302.8,24,302.8,24.4z
		 M301.7,31.2v-5.3h1v5.3H301.7z"/>
	<path d="M304.4,25.9l1,3c0.2,0.5,0.3,0.9,0.4,1.4h0c0.1-0.4,0.3-0.9,0.5-1.4l1-3h1l-2.1,5.3h-0.9l-2-5.3H304.4z"/>
	<path d="M309.5,28.7c0,1.3,0.9,1.8,1.8,1.8c0.7,0,1.1-0.1,1.5-0.3L313,31c-0.3,0.2-0.9,0.3-1.8,0.3c-1.6,0-2.6-1.1-2.6-2.7
		c0-1.6,0.9-2.9,2.5-2.9c1.7,0,2.2,1.5,2.2,2.5c0,0.2,0,0.4,0,0.5H309.5z M312.4,28c0-0.6-0.3-1.6-1.3-1.6c-1,0-1.4,0.9-1.5,1.6
		H312.4z"/>
</g>
<g>
	<path d="M353.9,23.9c0.6-0.1,1.3-0.2,2-0.2c1.4,0,2.4,0.3,3,0.9c0.7,0.6,1,1.5,1,2.7c0,1.2-0.4,2.2-1.1,2.9
		c-0.7,0.7-1.8,1.1-3.3,1.1c-0.7,0-1.3,0-1.7-0.1V23.9z M354.9,30.4c0.2,0,0.6,0.1,1,0.1c2,0,3.2-1.1,3.2-3.1c0-1.7-1-2.9-3-2.9
		c-0.5,0-0.9,0-1.1,0.1V30.4z"/>
	<path d="M361.7,28.7c0,1.3,0.9,1.8,1.8,1.8c0.7,0,1.1-0.1,1.5-0.3l0.2,0.7c-0.3,0.2-0.9,0.3-1.8,0.3c-1.6,0-2.6-1.1-2.6-2.7
		c0-1.6,0.9-2.9,2.5-2.9c1.7,0,2.2,1.5,2.2,2.5c0,0.2,0,0.4,0,0.5H361.7z M364.5,28c0-0.6-0.3-1.6-1.3-1.6c-1,0-1.4,0.9-1.5,1.6
		H364.5z"/>
	<path d="M370.3,31c-0.3,0.1-0.8,0.3-1.5,0.3c-1.6,0-2.7-1.1-2.7-2.7c0-1.6,1.1-2.8,2.9-2.8c0.6,0,1.1,0.1,1.3,0.3l-0.2,0.7
		c-0.2-0.1-0.6-0.3-1.1-0.3c-1.2,0-1.9,0.9-1.9,2c0,1.2,0.8,2,1.8,2c0.6,0,0.9-0.1,1.2-0.3L370.3,31z"/>
	<path d="M371.4,23.4h1v7.8h-1V23.4z"/>
	<path d="M374.9,24.4c0,0.3-0.2,0.6-0.6,0.6c-0.3,0-0.6-0.3-0.6-0.6c0-0.3,0.3-0.6,0.6-0.6C374.7,23.8,374.9,24,374.9,24.4z
		 M373.8,31.2v-5.3h1v5.3H373.8z"/>
	<path d="M376.3,27.3c0-0.5,0-1,0-1.4h0.9l0.1,0.9h0c0.3-0.5,0.9-1,1.8-1c0.7,0,1.9,0.4,1.9,2.3v3.2h-1v-3.1c0-0.9-0.3-1.6-1.2-1.6
		c-0.6,0-1.1,0.5-1.3,1c0,0.1-0.1,0.3-0.1,0.5v3.2h-1V27.3z"/>
	<path d="M382.8,28.7c0,1.3,0.9,1.8,1.8,1.8c0.7,0,1.1-0.1,1.5-0.3l0.2,0.7c-0.3,0.2-0.9,0.3-1.8,0.3c-1.6,0-2.6-1.1-2.6-2.7
		c0-1.6,0.9-2.9,2.5-2.9c1.7,0,2.2,1.5,2.2,2.5c0,0.2,0,0.4,0,0.5H382.8z M385.7,28c0-0.6-0.3-1.6-1.3-1.6c-1,0-1.4,0.9-1.5,1.6
		H385.7z"/>
	<path d="M392.3,23.4v6.4c0,0.5,0,1,0,1.4h-0.9l0-0.9h0c-0.3,0.6-0.9,1-1.8,1c-1.3,0-2.3-1.1-2.3-2.7c0-1.8,1.1-2.9,2.4-2.9
		c0.8,0,1.4,0.4,1.6,0.8h0v-3.2H392.3z M391.3,28c0-0.1,0-0.3,0-0.4c-0.1-0.6-0.7-1.1-1.4-1.1c-1,0-1.6,0.9-1.6,2.1
		c0,1.1,0.5,2,1.6,2c0.6,0,1.2-0.4,1.4-1.2c0-0.1,0-0.3,0-0.4V28z"/>
</g>
<rect class="st1" width="407.5" height="56.7"/>
<g>
	<path d="M254.5,19.4l0.4,0.5c-1.5,1.1-3.2,2.9-5,5.2c-1.8,2.3-3.2,4.5-4.2,6.6l-0.8,0.5c-0.6,0.4-1.1,0.8-1.3,1
		c-0.1-0.3-0.3-0.9-0.6-1.6l-0.3-0.7c-0.4-1-0.8-1.7-1.2-2.2c-0.4-0.5-0.8-0.8-1.2-0.9c0.8-0.8,1.4-1.2,2.1-1.2
		c0.5,0,1.1,0.7,1.8,2.2l0.3,0.7c1.2-2,2.7-3.9,4.6-5.8C250.9,21.8,252.7,20.4,254.5,19.4z"/>
</g>
</svg>
