<?xml version="1.0" encoding="utf-8"?>
<!-- Generator: Adobe Illustrator 19.2.0, SVG Export Plug-In . SVG Version: 6.00 Build 0)  -->
<svg version="1.1" xmlns="http://www.w3.org/2000/svg" xmlns:xlink="http://www.w3.org/1999/xlink" x="0px" y="0px"
	 viewBox="0 0 407.5 528.6" style="enable-background:new 0 0 407.5 528.6;" xml:space="preserve">
<style type="text/css">
	.st0{fill:none;stroke:#000000;stroke-width:0.6031;}
	.st1{fill:none;stroke:#000000;stroke-width:1.2063;}
	.st2{fill:#FFFFFF;}
	.st3{fill:none;stroke:#000000;stroke-width:1.8121;}
</style>
<g id="Layer_1">
	<g id="Layer_1_1_">
	</g>
	<line class="st0" x1="2.8" y1="3" x2="406.4" y2="3"/>
	<line class="st0" x1="2.8" y1="13" x2="406.4" y2="13"/>
	<line class="st1" x1="2.8" y1="23" x2="406.4" y2="23"/>
	<line class="st0" x1="2.8" y1="33.1" x2="406.4" y2="33.1"/>
	<line class="st0" x1="2.8" y1="43.2" x2="406.4" y2="43.2"/>
	<line class="st0" x1="2.8" y1="53.3" x2="406.4" y2="53.3"/>
	<line class="st1" x1="2.8" y1="63.3" x2="406.4" y2="63.3"/>
	<line class="st0" x1="2.8" y1="73.3" x2="406.4" y2="73.3"/>
	<line class="st0" x1="2.8" y1="83.3" x2="406.4" y2="83.3"/>
	<line class="st0" x1="2.8" y1="93.3" x2="406.4" y2="93.3"/>
	<line class="st1" x1="2.8" y1="103.4" x2="406.4" y2="103.4"/>
	<line class="st0" x1="2.8" y1="113.4" x2="406.4" y2="113.4"/>
	<line class="st0" x1="2.8" y1="123.4" x2="406.4" y2="123.4"/>
	<line class="st0" x1="2.8" y1="133.6" x2="406.4" y2="133.6"/>
	<line class="st1" x1="2.8" y1="143.6" x2="406.4" y2="143.6"/>
	<line class="st0" x1="2.8" y1="153.6" x2="406.4" y2="153.6"/>
	<line class="st0" x1="2.8" y1="163.6" x2="406.4" y2="163.6"/>
	<line class="st0" x1="2.8" y1="173.7" x2="406.4" y2="173.7"/>
	<line class="st1" x1="2.8" y1="183.7" x2="406.4" y2="183.7"/>
	<line class="st0" x1="2.8" y1="193.7" x2="406.4" y2="193.7"/>
	<line class="st0" x1="2.8" y1="203.7" x2="406.4" y2="203.7"/>
	<line class="st0" x1="2.8" y1="213.7" x2="406.4" y2="213.7"/>
	<line class="st1" x1="2.8" y1="223.9" x2="406.4" y2="223.9"/>
	<line class="st0" x1="2.8" y1="233.9" x2="406.4" y2="233.9"/>
	<line class="st0" x1="2.8" y1="244" x2="406.4" y2="244"/>
	<line class="st0" x1="2.8" y1="254" x2="406.4" y2="254"/>
	<line class="st1" x1="2.8" y1="264" x2="406.4" y2="264"/>
	<line class="st0" x1="2.8" y1="274" x2="406.4" y2="274"/>
	<line class="st0" x1="2.8" y1="284" x2="406.4" y2="284"/>
	<line class="st0" x1="2.8" y1="294.1" x2="406.4" y2="294.1"/>
	<line class="st1" x1="2.8" y1="304.1" x2="406.4" y2="304.1"/>
	<line class="st0" x1="2.8" y1="314.3" x2="406.4" y2="314.3"/>
	<line class="st0" x1="2.8" y1="324.3" x2="406.4" y2="324.3"/>
	<g>
		<line class="st0" x1="2.9" y1="3" x2="2.9" y2="323.2"/>
		<line class="st0" x1="23.1" y1="3" x2="23.1" y2="323.2"/>
		<line class="st0" x1="43.3" y1="3" x2="43.3" y2="323.2"/>
		<line class="st0" x1="63.5" y1="3" x2="63.5" y2="323.2"/>
		<line class="st0" x1="83.6" y1="3" x2="83.6" y2="323.2"/>
		<line class="st0" x1="103.8" y1="3" x2="103.8" y2="323.2"/>
		<line class="st0" x1="124" y1="3" x2="124" y2="323.2"/>
		<line class="st0" x1="144.2" y1="3" x2="144.2" y2="323.2"/>
		<line class="st0" x1="164.4" y1="3" x2="164.4" y2="323.2"/>
		<line class="st0" x1="184.5" y1="3" x2="184.5" y2="323.2"/>
		<line class="st0" x1="204.6" y1="3" x2="204.6" y2="323.2"/>
		<line class="st0" x1="224.8" y1="3" x2="224.8" y2="323.2"/>
		<line class="st0" x1="245" y1="3" x2="245" y2="323.2"/>
		<line class="st0" x1="265.2" y1="3" x2="265.2" y2="323.2"/>
		<line class="st0" x1="285.4" y1="3" x2="285.4" y2="323.2"/>
		<line class="st0" x1="305.6" y1="3" x2="305.6" y2="323.2"/>
		<line class="st0" x1="325.8" y1="3" x2="325.8" y2="323.2"/>
		<line class="st0" x1="346" y1="3" x2="346" y2="323.2"/>
		<line class="st0" x1="366.2" y1="3" x2="366.2" y2="323.2"/>
		<line class="st0" x1="386.4" y1="3" x2="386.4" y2="323.2"/>
		<line class="st0" x1="406.4" y1="3" x2="406.4" y2="323.2"/>
	</g>
	<line class="st0" x1="19" y1="361.2" x2="18.7" y2="522.2"/>
	<line class="st0" x1="39.4" y1="361.2" x2="39.1" y2="522.2"/>
	<line class="st0" x1="59.7" y1="361.2" x2="59.4" y2="522.2"/>
	<line class="st0" x1="79.9" y1="361.2" x2="79.6" y2="522.2"/>
	<line class="st0" x1="100.2" y1="361.2" x2="99.9" y2="522.2"/>
	<line class="st0" x1="120.6" y1="361.2" x2="120.3" y2="522.2"/>
	<line class="st0" x1="140.9" y1="361.2" x2="140.6" y2="522.2"/>
	<line class="st0" x1="161.1" y1="361.2" x2="160.8" y2="522.2"/>
	<line class="st0" x1="181.5" y1="361.2" x2="181.2" y2="522.2"/>
	<line class="st0" x1="201.8" y1="361.2" x2="201.5" y2="522.2"/>
	<line class="st0" x1="222.1" y1="361.2" x2="221.8" y2="522.2"/>
	<line class="st0" x1="242.3" y1="361.2" x2="242" y2="522.2"/>
	<line class="st0" x1="262.7" y1="361.2" x2="262.4" y2="522.2"/>
	<line class="st0" x1="283" y1="361.2" x2="282.7" y2="522.2"/>
	<line class="st0" x1="303.4" y1="361.2" x2="303.1" y2="522.2"/>
	<line class="st0" x1="323.6" y1="361.2" x2="323.3" y2="522.2"/>
	<line class="st0" x1="343.9" y1="361.2" x2="343.6" y2="522.2"/>
	<line class="st0" x1="364.2" y1="361.2" x2="363.9" y2="522.2"/>
	<line class="st0" x1="384.6" y1="361.2" x2="384.3" y2="522.2"/>
	<g>
		<line class="st1" x1="1.1" y1="361.5" x2="406.4" y2="361.5"/>
		<line class="st0" x1="1.1" y1="377.7" x2="406.4" y2="377.7"/>
		<line class="st1" x1="1.1" y1="394" x2="406.4" y2="394"/>
		<line class="st0" x1="1.1" y1="410.1" x2="406.4" y2="410.1"/>
		<line class="st1" x1="1.1" y1="426.3" x2="406.4" y2="426.3"/>
		<line class="st0" x1="1.1" y1="442.4" x2="406.4" y2="442.4"/>
		<line class="st1" x1="1.1" y1="458.4" x2="406.4" y2="458.4"/>
		<line class="st0" x1="1.1" y1="474.6" x2="406.4" y2="474.6"/>
		<line class="st1" x1="1.1" y1="490.8" x2="406.4" y2="490.8"/>
		<line class="st0" x1="1.1" y1="506.9" x2="406.4" y2="506.9"/>
		<line class="st1" x1="1.1" y1="523.1" x2="406.4" y2="523.1"/>
	</g>
	<g>
		<rect x="170.7" y="16.9" class="st2" width="27.4" height="14.2"/>
		<rect x="169.9" y="54.6" class="st2" width="27.5" height="14.2"/>
		<rect x="171.3" y="95.4" class="st2" width="27.4" height="14.1"/>
		<rect x="171.1" y="135.5" class="st2" width="27.5" height="14.2"/>
		<rect x="170.5" y="175.2" class="st2" width="27.4" height="14.1"/>
		<rect x="169.9" y="216.6" class="st2" width="27.4" height="14.1"/>
		<rect x="171.1" y="255.5" class="st2" width="27.4" height="14.1"/>
		<rect x="170.5" y="296.8" class="st2" width="27.4" height="14.2"/>
		<path d="M179.2,28.3v1.3h-7.6c0-0.4,0.1-0.7,0.1-1c0.3-0.4,0.6-1,1-1.5c0.3-0.5,1-1,1.8-1.8c1.2-1,2.1-1.8,2.5-2.4
			c0.4-0.6,0.6-1.2,0.6-1.8c0-0.4-0.1-0.9-0.6-1.3c-0.3-0.4-0.9-0.6-1.5-0.6c-0.7,0-1.2,0.2-1.6,0.6c-0.4,0.4-0.6,1-0.6,1.8
			l-1.5-0.2c0.1-1.2,0.4-1.9,1.2-2.5c0.6-0.6,1.5-0.9,2.5-0.9c1.2,0,1.9,0.3,2.7,0.9c0.6,0.7,0.9,1.5,0.9,2.4c0,0.4,0,0.9-0.3,1.3
			c-0.1,0.4-0.4,0.9-0.9,1.3c-0.4,0.6-1.2,1.2-2.2,2.1c-0.7,0.7-1.3,1.2-1.6,1.3c-0.1,0.3-0.4,0.6-0.6,0.9L179.2,28.3L179.2,28.3z"
			/>
		<path d="M184.6,18c0.6,0,1,0.1,1.5,0.4c0.6,0.1,0.9,0.6,1.2,1c0.3,0.4,0.6,1,0.7,1.6c0.2,0.7,0.3,1.6,0.3,2.8
			c0,1.3-0.1,2.4-0.5,3.3c-0.3,0.7-0.7,1.3-1.2,1.8c-0.6,0.6-1.3,0.7-2.1,0.7v-1.2c0.6,0,1.2-0.3,1.5-0.9c0.4-0.6,0.7-1.9,0.7-3.7
			c0-1.9-0.3-3.1-0.7-3.9c-0.3-0.6-0.9-0.9-1.5-0.9V18z M180.7,23.9c0-1.3,0.1-2.5,0.4-3.3c0.3-0.9,0.7-1.5,1.3-1.9
			c0.4-0.4,1.2-0.7,2.1-0.7l0,0v1.2h-0.1c-0.6,0-1,0.3-1.5,0.9c-0.4,0.6-0.7,1.9-0.7,3.9c0,1.8,0.3,3.1,0.7,3.7
			c0.5,0.6,0.9,0.9,1.6,0.9l0,0v1.2l0,0c-1.2,0-2.1-0.4-2.7-1.2C181.2,27.7,180.7,26,180.7,23.9z"/>
		<path d="M193.4,18c0.7,0,1.2,0.1,1.6,0.4c0.5,0.1,0.9,0.6,1.2,1c0.3,0.4,0.6,1,0.7,1.6c0.1,0.7,0.3,1.6,0.3,2.8
			c0,1.3-0.1,2.4-0.4,3.3c-0.3,0.7-0.7,1.3-1.3,1.8c-0.5,0.6-1.2,0.7-2.1,0.7v-1.2c0.7,0,1.2-0.3,1.6-0.9c0.5-0.6,0.7-1.9,0.7-3.7
			c0-1.9-0.3-3.1-0.7-3.9c-0.4-0.6-0.9-0.9-1.6-0.9L193.4,18L193.4,18z M189.7,23.9c0-1.3,0.2-2.5,0.4-3.3c0.3-0.9,0.7-1.5,1.2-1.9
			c0.6-0.4,1.3-0.7,2.1-0.7l0,0v1.2l0,0c-0.6,0-1,0.3-1.5,0.9c-0.4,0.6-0.7,1.9-0.7,3.9c0,1.8,0.3,3.1,0.6,3.7
			c0.5,0.6,1,0.9,1.6,0.9l0,0v1.2l0,0c-1,0-1.9-0.4-2.5-1.2C190.1,27.7,189.7,26,189.7,23.9z"/>
		<path d="M177.1,67.8h-1.3v-9c-0.4,0.3-0.9,0.6-1.3,0.9c-0.6,0.3-1,0.6-1.5,0.7v-1.3c0.7-0.4,1.5-0.9,2.1-1.3
			c0.6-0.6,0.9-1,1.2-1.6h0.9L177.1,67.8L177.1,67.8z"/>
		<path d="M184.6,56.1c0.9,0.1,1.8,0.3,2.4,0.9c0.6,0.6,0.9,1.3,0.9,2.2c0,0.4-0.1,0.9-0.4,1.3c-0.3,0.4-0.7,0.7-1.2,0.9
			c0.6,0.3,1.2,0.6,1.5,1.2c0.4,0.4,0.6,1,0.6,1.8c0,0.9-0.3,1.8-1,2.5c-0.7,0.6-1.6,0.9-2.7,0.9l0,0v-1.2l0,0
			c0.6,0,1.2-0.2,1.6-0.6c0.5-0.4,0.6-1,0.6-1.6c0-0.7-0.1-1.2-0.6-1.6c-0.4-0.5-1-0.7-1.6-0.7v-1.2l0,0c0.4,0,0.9-0.2,1.3-0.5
			c0.3-0.3,0.4-0.7,0.4-1.2c0-0.6-0.2-1-0.4-1.3c-0.4-0.5-0.9-0.6-1.3-0.6V56.1z M183,61.5c-0.6-0.2-1-0.4-1.3-0.9
			c-0.3-0.5-0.4-0.9-0.4-1.5c0-0.7,0.3-1.5,0.9-2.1c0.6-0.6,1.5-0.9,2.5-0.9l0,0v1.2c-0.6,0-1,0.1-1.3,0.6c-0.4,0.3-0.6,0.7-0.6,1.2
			c0,0.6,0.2,1,0.6,1.3c0.3,0.3,0.7,0.5,1.3,0.5v1.2h-0.1c-0.6,0-1.2,0.3-1.6,0.7c-0.4,0.4-0.6,0.9-0.6,1.6c0,0.3,0.2,0.7,0.3,1.2
			c0.1,0.3,0.4,0.6,0.9,0.7c0.3,0.3,0.7,0.3,1.2,0.3v1.2c-1.2,0-2.1-0.3-2.8-1c-0.6-0.6-1-1.5-1-2.4c0-0.7,0.3-1.5,0.6-1.9
			C181.8,62.1,182.2,61.6,183,61.5z"/>
		<path d="M193.4,56.1c0.7,0,1.2,0.1,1.6,0.4c0.5,0.3,0.9,0.6,1.2,1c0.3,0.4,0.6,1,0.7,1.8c0.1,0.6,0.3,1.5,0.3,2.7
			c0,1.3-0.1,2.4-0.4,3.3c-0.3,0.7-0.7,1.5-1.3,1.9c-0.5,0.4-1.2,0.6-2.1,0.6v-1.2c0.7,0,1.2-0.3,1.6-0.9c0.5-0.6,0.7-1.8,0.7-3.7
			c0-1.9-0.3-3.1-0.7-3.7c-0.4-0.7-0.9-1-1.6-1L193.4,56.1L193.4,56.1z M189.7,62.1c0-1.3,0.2-2.5,0.4-3.3c0.3-0.9,0.7-1.5,1.2-1.9
			c0.6-0.4,1.3-0.7,2.1-0.7l0,0v1.2l0,0c-0.6,0-1,0.3-1.5,0.9c-0.4,0.7-0.7,1.9-0.7,3.9c0,1.9,0.3,3.1,0.6,3.7
			c0.5,0.6,1,0.9,1.6,0.9l0,0v1.2l0,0c-1,0-1.9-0.3-2.5-1.2C190.1,65.8,189.7,64.2,189.7,62.1z"/>
		<path d="M177.1,108.4h-1.3v-9c-0.4,0.3-0.9,0.6-1.3,1c-0.6,0.3-1,0.5-1.5,0.6v-1.3c0.7-0.3,1.5-0.7,2.1-1.3c0.6-0.4,0.9-1,1.2-1.5
			h0.9L177.1,108.4L177.1,108.4z"/>
		<path d="M188.2,99.8l-1.5,0.2c-0.2-0.6-0.3-1-0.5-1.2c-0.4-0.4-0.9-0.6-1.5-0.6h-0.1v-1.2c0.1,0,0.1,0,0.3,0
			c0.9,0,1.6,0.3,2.2,0.7C187.6,98.1,188,98.9,188.2,99.8L188.2,99.8z M184.6,101c0.1,0,0.1,0,0.3,0c0.9,0,1.8,0.4,2.4,1
			c0.7,0.7,1,1.6,1,2.7c0,0.7-0.1,1.5-0.5,2.1c-0.3,0.6-0.7,1-1.3,1.3c-0.4,0.4-1.2,0.6-1.8,0.6h-0.1v-1.2h0.1c0.6,0,1-0.3,1.5-0.7
			c0.5-0.5,0.6-1.2,0.6-1.9c0-0.7-0.1-1.5-0.6-1.9c-0.4-0.5-0.9-0.6-1.6-0.6l0,0L184.6,101L184.6,101z M184.6,98.1
			c-0.4,0-0.7,0.1-1,0.3c-0.4,0.3-0.7,0.9-1,1.5c-0.3,0.6-0.4,1.5-0.4,2.7c0.4-0.6,0.7-0.9,1.3-1.2c0.3-0.1,0.7-0.3,1.2-0.4v1.3
			c-0.6,0-1.2,0.1-1.6,0.6c-0.4,0.4-0.6,1-0.6,1.8c0,0.6,0.1,1,0.3,1.5c0.2,0.4,0.4,0.7,0.9,1c0.3,0.1,0.7,0.3,1,0.3v1.2
			c-1.2,0-2.1-0.4-2.8-1.3c-0.7-0.9-1-2.2-1-4.3c0-2.2,0.4-3.7,1.2-4.8c0.7-0.9,1.6-1.3,2.7-1.3L184.6,98.1L184.6,98.1z"/>
		<path d="M193.4,96.9c0.7,0,1.2,0.2,1.6,0.3c0.5,0.3,0.9,0.7,1.2,1.2c0.3,0.4,0.6,1,0.7,1.6c0.1,0.7,0.3,1.6,0.3,2.7
			c0,1.3-0.1,2.5-0.4,3.3c-0.3,0.9-0.7,1.5-1.3,1.9c-0.5,0.4-1.2,0.7-2.1,0.7v-1.2c0.7,0,1.2-0.3,1.6-0.9c0.5-0.7,0.7-1.9,0.7-3.9
			c0-1.8-0.3-3.1-0.7-3.7c-0.4-0.6-0.9-0.9-1.6-0.9L193.4,96.9L193.4,96.9z M189.7,102.8c0-1.3,0.2-2.4,0.4-3.3
			c0.3-0.7,0.7-1.5,1.2-1.9c0.6-0.4,1.3-0.6,2.1-0.6l0,0v1.2l0,0c-0.6,0-1,0.3-1.5,0.7c-0.4,0.7-0.7,2.1-0.7,3.9
			c0,1.9,0.3,3.1,0.6,3.9c0.5,0.6,1,0.9,1.6,0.9l0,0v1.2l0,0c-1,0-1.9-0.4-2.5-1.2C190.1,106.5,189.7,105,189.7,102.8z"/>
		<path d="M177.1,149.9h-1.3v-9c-0.4,0.3-0.9,0.6-1.3,0.9c-0.6,0.3-1,0.6-1.5,0.7v-1.3c0.7-0.4,1.5-0.9,2.1-1.3
			c0.6-0.6,0.9-1,1.2-1.5h0.9L177.1,149.9L177.1,149.9z"/>
		<path d="M185.4,149.9v-2.7h-1.8v-1.3h1.8v-5.2l-1.8,2.5v-1.9l1.9-2.8h1.2v7.5h1.6v1.3h-1.6v2.7L185.4,149.9L185.4,149.9z
			 M183.6,147.2h-3.3v-1.3l3.3-4.6v1.9l-1.8,2.7h1.8V147.2z"/>
		<path d="M193.4,138.4c0.7,0,1.2,0,1.6,0.3c0.5,0.3,0.9,0.6,1.2,1c0.3,0.4,0.6,1,0.7,1.8c0.1,0.6,0.3,1.5,0.3,2.7
			c0,1.3-0.1,2.4-0.4,3.3c-0.3,0.7-0.7,1.5-1.3,1.9c-0.5,0.5-1.2,0.6-2.1,0.6v-1.2c0.7,0,1.2-0.3,1.6-0.9c0.5-0.6,0.7-1.8,0.7-3.7
			s-0.3-3.1-0.7-3.7c-0.4-0.7-0.9-1-1.6-1L193.4,138.4L193.4,138.4z M189.7,144.2c0-1.3,0.2-2.5,0.4-3.3c0.3-0.9,0.7-1.5,1.2-1.9
			c0.6-0.4,1.3-0.6,2.1-0.6l0,0v1l0,0c-0.6,0-1,0.3-1.5,0.9c-0.4,0.7-0.7,1.9-0.7,3.9s0.3,3.1,0.6,3.7c0.5,0.6,1,0.9,1.6,0.9l0,0
			v1.2l0,0c-1,0-1.9-0.3-2.5-1.2C190.1,147.9,189.7,146.3,189.7,144.2z"/>
		<path d="M177.1,188.2h-1.3v-9c-0.4,0.3-0.9,0.6-1.3,0.9c-0.6,0.3-1,0.6-1.5,0.7v-1.3c0.7-0.4,1.5-0.9,2.1-1.3
			c0.6-0.6,0.9-1,1.2-1.6h0.9L177.1,188.2L177.1,188.2z"/>
		<path d="M188.2,186.8v1.3h-7.6c0-0.3,0-0.7,0.2-1c0.3-0.4,0.6-1,1-1.5c0.3-0.4,1-1,1.8-1.8c1.2-0.9,2.1-1.8,2.5-2.4
			c0.4-0.6,0.6-1.2,0.6-1.6c0-0.6-0.2-1-0.6-1.5c-0.3-0.3-0.9-0.6-1.5-0.6c-0.7,0-1.2,0.3-1.6,0.6c-0.4,0.4-0.6,1-0.6,1.8l-1.5-0.2
			c0.1-1,0.4-1.9,1-2.5c0.7-0.6,1.6-0.9,2.7-0.9c1,0,1.9,0.4,2.7,1c0.6,0.6,0.9,1.3,0.9,2.2c0,0.4-0.2,0.9-0.3,1.3
			c-0.1,0.4-0.4,0.9-0.9,1.3c-0.4,0.6-1.2,1.2-2.2,2.1c-0.7,0.7-1.3,1.2-1.6,1.5c-0.2,0.1-0.4,0.4-0.6,0.7L188.2,186.8L188.2,186.8z
			"/>
		<path d="M193.4,176.5c0.7,0,1.2,0.1,1.6,0.4c0.5,0.3,0.9,0.6,1.2,1c0.3,0.4,0.6,1,0.7,1.8c0.1,0.6,0.3,1.5,0.3,2.7
			c0,1.3-0.1,2.4-0.4,3.3c-0.3,0.7-0.7,1.5-1.3,1.9c-0.5,0.5-1.2,0.6-2.1,0.6v-1.2c0.7,0,1.2-0.3,1.6-0.9c0.5-0.6,0.7-1.8,0.7-3.7
			c0-1.9-0.3-3.1-0.7-3.7c-0.4-0.7-0.9-1-1.6-1L193.4,176.5L193.4,176.5z M189.7,182.5c0-1.3,0.2-2.5,0.4-3.3
			c0.3-0.9,0.7-1.5,1.2-1.9c0.6-0.4,1.3-0.7,2.1-0.7l0,0v1.2l0,0c-0.6,0-1,0.3-1.5,0.9c-0.4,0.7-0.7,1.9-0.7,3.9
			c0,1.9,0.3,3.1,0.6,3.7c0.5,0.6,1,0.9,1.6,0.9l0,0v1.2l0,0c-1,0-1.9-0.3-2.5-1.2C190.1,186.2,189.7,184.6,189.7,182.5z"/>
		<path d="M177.1,230.2h-1.3v-9.1c-0.4,0.3-0.9,0.7-1.3,1c-0.6,0.3-1,0.6-1.5,0.7v-1.3c0.7-0.4,1.5-0.9,2.1-1.3
			c0.6-0.6,0.9-1,1.2-1.6h0.9L177.1,230.2L177.1,230.2z"/>
		<path d="M184.6,218.5c0.6,0,1,0.1,1.5,0.4c0.6,0.1,0.9,0.6,1.2,1c0.3,0.4,0.6,1,0.7,1.6c0.2,0.7,0.3,1.6,0.3,2.8
			c0,1.3-0.1,2.4-0.5,3.1c-0.3,0.9-0.7,1.5-1.2,1.9c-0.6,0.4-1.3,0.7-2.1,0.7v-1.2c0.6,0,1.2-0.3,1.5-0.9c0.4-0.6,0.7-1.9,0.7-3.7
			c0-1.9-0.3-3.3-0.7-3.9c-0.3-0.6-0.9-0.9-1.5-0.9V218.5z M180.7,224.5c0-1.5,0.1-2.5,0.4-3.3c0.3-0.9,0.7-1.5,1.3-1.9
			c0.4-0.4,1.2-0.7,2.1-0.7l0,0v1.2h-0.1c-0.6,0-1,0.3-1.5,0.9c-0.4,0.6-0.7,1.9-0.7,3.9c0,1.8,0.3,3.1,0.7,3.7
			c0.5,0.6,0.9,0.9,1.6,0.9l0,0v1.2l0,0c-1.2,0-2.1-0.4-2.7-1.2C181.2,228.3,180.7,226.6,180.7,224.5z"/>
		<path d="M193.4,218.5c0.7,0,1.2,0.1,1.6,0.4c0.5,0.1,0.9,0.6,1.2,1c0.3,0.4,0.6,1,0.7,1.6c0.1,0.7,0.3,1.6,0.3,2.8
			c0,1.3-0.1,2.4-0.4,3.1c-0.3,0.9-0.7,1.5-1.3,1.9c-0.5,0.4-1.2,0.7-2.1,0.7v-1.2c0.7,0,1.2-0.3,1.6-0.9c0.5-0.6,0.7-1.9,0.7-3.7
			c0-1.9-0.3-3.3-0.7-3.9c-0.4-0.6-0.9-0.9-1.6-0.9L193.4,218.5L193.4,218.5z M189.7,224.5c0-1.5,0.2-2.5,0.4-3.3
			c0.3-0.9,0.7-1.5,1.2-1.9c0.6-0.4,1.3-0.7,2.1-0.7l0,0v1.2l0,0c-0.6,0-1,0.3-1.5,0.9c-0.4,0.6-0.7,1.9-0.7,3.9
			c0,1.8,0.3,3.1,0.6,3.7c0.5,0.6,1,0.9,1.6,0.9l0,0v1.2l0,0c-1,0-1.9-0.4-2.5-1.2C190.1,228.3,189.7,226.6,189.7,224.5z"/>
		<path d="M184.6,257.4c0.9,0,1.8,0.3,2.4,0.9c0.6,0.6,0.9,1.3,0.9,2.1c0,0.6-0.1,1-0.4,1.5c-0.3,0.3-0.7,0.6-1.2,0.9
			c0.6,0.2,1.2,0.6,1.5,1c0.4,0.6,0.6,1.2,0.6,1.9c0,0.9-0.3,1.8-1,2.4c-0.7,0.7-1.6,1-2.7,1l0,0V268l0,0c0.6,0,1.2-0.1,1.6-0.6
			c0.5-0.4,0.6-1,0.6-1.6c0-0.7-0.1-1.3-0.6-1.8c-0.4-0.4-1-0.6-1.6-0.6v-1.2l0,0c0.4,0,0.9-0.1,1.3-0.4c0.3-0.3,0.4-0.7,0.4-1.3
			c0-0.5-0.2-0.9-0.4-1.2c-0.4-0.4-0.9-0.6-1.3-0.6V257.4z M183,262.8c-0.6-0.3-1-0.6-1.3-0.9c-0.3-0.4-0.4-0.9-0.4-1.5
			c0-0.7,0.3-1.5,0.9-2.1c0.6-0.6,1.5-0.9,2.5-0.9l0,0v1.2c-0.6,0-1,0.2-1.3,0.6c-0.4,0.3-0.6,0.7-0.6,1.2c0,0.4,0.2,0.9,0.6,1.3
			c0.3,0.3,0.7,0.4,1.3,0.4v1.2h-0.1c-0.6,0-1.2,0.2-1.6,0.6c-0.4,0.4-0.6,1-0.6,1.6c0,0.4,0.2,0.9,0.3,1.2c0.1,0.4,0.4,0.7,0.9,0.9
			c0.3,0.2,0.7,0.3,1.2,0.3v1.2c-1.2,0-2.1-0.3-2.8-1c-0.6-0.6-1-1.5-1-2.5c0-0.7,0.3-1.3,0.6-1.8C181.8,263.3,182.2,263,183,262.8z
			"/>
		<path d="M193.4,257.4c0.7,0,1.2,0.2,1.6,0.4c0.5,0.2,0.9,0.6,1.2,1c0.3,0.5,0.6,1,0.7,1.6c0.1,0.7,0.3,1.6,0.3,2.8
			c0,1.3-0.1,2.4-0.4,3.3c-0.3,0.7-0.7,1.3-1.3,1.8c-0.5,0.4-1.2,0.7-2.1,0.7V268c0.7,0,1.2-0.3,1.6-0.9c0.5-0.6,0.7-1.9,0.7-3.7
			c0-1.9-0.3-3.1-0.7-3.9c-0.4-0.6-0.9-0.9-1.6-0.9L193.4,257.4L193.4,257.4z M189.7,263.4c0-1.3,0.2-2.5,0.4-3.3
			c0.3-0.9,0.7-1.5,1.2-1.9c0.6-0.4,1.3-0.7,2.1-0.7l0,0v1.2l0,0c-0.6,0-1,0.3-1.5,0.9c-0.4,0.6-0.7,1.9-0.7,3.9
			c0,1.8,0.3,3.1,0.6,3.7c0.5,0.6,1,0.9,1.6,0.9l0,0v1.2l0,0c-1,0-1.9-0.4-2.5-1.2C190.1,267.1,189.7,265.5,189.7,263.4z"/>
		<path d="M188.2,301.1l-1.5,0.1c-0.2-0.6-0.3-1-0.5-1.2c-0.4-0.5-0.9-0.7-1.5-0.7l-0.1,0.1v-1.2c0.1,0,0.1,0,0.3,0
			c0.9,0,1.6,0.1,2.2,0.7C187.6,299.4,188,300.2,188.2,301.1L188.2,301.1z M184.6,302.3c0.1,0,0.1,0,0.3,0c0.9,0,1.8,0.3,2.4,1
			c0.7,0.7,1,1.6,1,2.7c0,0.7-0.1,1.3-0.5,2.1c-0.3,0.6-0.7,1-1.3,1.3c-0.4,0.3-1.2,0.5-1.8,0.5h-0.1v-1h0.1c0.6,0,1-0.3,1.5-0.7
			c0.5-0.4,0.6-1.2,0.6-1.9c0-0.9-0.1-1.5-0.6-1.9c-0.4-0.5-0.9-0.7-1.6-0.7l0,0L184.6,302.3L184.6,302.3z M184.6,299.4
			c-0.4,0-0.7,0.1-1,0.3c-0.4,0.3-0.7,0.7-1,1.5c-0.3,0.6-0.4,1.5-0.4,2.5c0.4-0.4,0.7-0.9,1.3-1c0.3-0.3,0.7-0.4,1.2-0.4v1.2
			c-0.6,0.2-1.2,0.3-1.6,0.7c-0.4,0.4-0.6,1-0.6,1.8c0,0.4,0.1,1,0.3,1.5c0.2,0.3,0.4,0.7,0.9,0.9c0.3,0.3,0.7,0.4,1,0.4v1
			c-1.2,0-2.1-0.5-2.8-1.2c-0.7-0.9-1-2.4-1-4.3c0-2.2,0.4-3.9,1.2-4.8c0.7-0.9,1.6-1.3,2.7-1.3L184.6,299.4L184.6,299.4z"/>
		<path d="M193.4,298.3c0.7,0,1.2,0.1,1.6,0.3c0.5,0.3,0.9,0.6,1.2,1c0.3,0.6,0.6,1,0.7,1.8c0.1,0.6,0.3,1.5,0.3,2.7
			c0,1.3-0.1,2.4-0.4,3.3c-0.3,0.9-0.7,1.5-1.3,1.9c-0.5,0.4-1.2,0.6-2.1,0.6v-1c0.7,0,1.2-0.3,1.6-1c0.5-0.6,0.7-1.8,0.7-3.7
			c0-1.9-0.3-3.1-0.7-3.7c-0.4-0.6-0.9-0.9-1.6-0.9L193.4,298.3L193.4,298.3z M189.7,304.1c0-1.3,0.2-2.4,0.4-3.3
			c0.3-0.7,0.7-1.5,1.2-1.9c0.6-0.5,1.3-0.6,2.1-0.6l0,0v1.2l0,0c-0.6,0-1,0.1-1.5,0.7c-0.4,0.7-0.7,1.9-0.7,3.9
			c0,1.9,0.3,3.1,0.6,3.7c0.5,0.7,1,1,1.6,1l0,0v1l0,0c-1,0-1.9-0.3-2.5-1.2C190.1,307.8,189.7,306.3,189.7,304.1z"/>
	</g>
	<polygon points="122.4,343 122.4,333.7 128.7,333.7 128.7,334.9 123.6,334.9 123.6,337.7 127.9,337.7 127.9,338.8 123.6,338.8 
		123.6,343 	"/>
	<path d="M134.3,333.6L134.3,333.6c0.7,0,1.5,0.3,2.2,0.6c0.7,0.5,1.2,1,1.5,1.8c0.4,0.7,0.6,1.5,0.6,2.4c0,1-0.2,1.8-0.6,2.5
		c-0.3,0.7-0.9,1.3-1.5,1.6c-0.7,0.4-1.5,0.6-2.2,0.6v-1c0.9,0,1.6-0.3,2.2-0.9c0.6-0.7,0.9-1.6,0.9-2.8c0-0.7-0.1-1.3-0.4-1.9
		c-0.3-0.6-0.6-0.9-1-1.3c-0.6-0.3-1-0.4-1.6-0.4l0,0V333.6z M129.9,338.5c0-1.5,0.5-2.7,1.2-3.6c0.9-0.9,1.9-1.3,3.3-1.3v1
		c-0.9,0-1.6,0.3-2.2,0.9c-0.6,0.6-1,1.6-1,3c0,1.2,0.3,1.9,0.9,2.7c0.6,0.6,1.3,0.9,2.4,0.9l0,0v1c-0.9,0-1.6-0.2-2.4-0.6
		c-0.7-0.4-1.2-1-1.5-1.8C130,340.1,129.9,339.2,129.9,338.5z"/>
	<path d="M143.9,333.7h0.5c0.9,0,1.5,0.2,1.9,0.3c0.3,0.1,0.7,0.4,0.9,0.9c0.3,0.5,0.4,0.9,0.4,1.3c0,0.7-0.1,1.2-0.6,1.6
		c-0.4,0.4-1,0.7-1.9,0.9c0.3,0.2,0.4,0.3,0.7,0.4c0.3,0.3,0.6,0.7,0.9,1.2l1.6,2.5h-1.5l-1.2-1.9c-0.5-0.5-0.7-0.9-0.9-1.2
		c-0.3-0.3-0.4-0.6-0.6-0.6c-0.1-0.1-0.1-0.1-0.3-0.1v-1.2h0.2c0.6,0,1-0.1,1.3-0.3c0.3,0,0.6-0.3,0.7-0.4c0.1-0.3,0.3-0.6,0.3-0.9
		c0-0.4-0.1-0.7-0.6-1c-0.3-0.3-0.7-0.5-1.5-0.5h-0.5L143.9,333.7L143.9,333.7z M140.3,343v-9.3h3.6v1h-2.4v3.1h2.4v1.2
		c-0.1,0-0.1-0.1-0.3-0.1s-0.4,0-0.7,0h-1.3v4L140.3,343L140.3,343z"/>
	<polygon points="153.2,343 153.2,333.7 154.4,333.7 154.4,337.6 159.2,337.6 159.2,333.7 160.4,333.7 160.4,343 159.2,343 
		159.2,338.6 154.4,338.6 154.4,343 	"/>
	<rect x="162.6" y="341.6" width="1.3" height="1.3"/>
	<path d="M169.5,333.7c0.6,0,1,0.2,1.5,0.2c0.4,0.2,0.7,0.2,1,0.4c0.3,0.2,0.6,0.4,0.7,0.9c0.2,0.3,0.3,0.7,0.3,1.2
		c0,0.9-0.3,1.5-0.7,2.1c-0.4,0.5-1.3,0.7-2.7,0.7h-0.1v-1h0.1c0.7,0,1.3-0.2,1.6-0.4c0.3-0.3,0.6-0.7,0.6-1.2c0-0.4-0.2-0.7-0.3-1
		c-0.3-0.3-0.5-0.4-0.9-0.6c-0.1,0-0.4,0-1,0h-0.1L169.5,333.7L169.5,333.7z M166.1,343v-9.3h3.4l0,0v1.2h-2.2v3.3h2.2v1h-2.2v3.7
		H166.1z"/>
	<rect x="173.1" y="341.6" width="1.3" height="1.3"/>
	<path d="M182.7,342.2c0.3,0,0.4-0.1,0.7-0.3c0.3-0.2,0.4-0.3,0.6-0.6c0.1-0.3,0.3-0.6,0.4-1c0.1-0.4,0.1-0.9,0.1-1.3
		c0-0.2,0-0.2,0-0.3c-0.1,0.3-0.6,0.6-0.9,0.9c-0.3,0.1-0.7,0.3-1,0.3v-0.9l0,0c0.6,0,1-0.3,1.3-0.6c0.3-0.4,0.4-0.9,0.4-1.5
		c0-0.7-0.2-1.2-0.4-1.6c-0.4-0.3-0.7-0.6-1.3-0.6l0,0v-0.9c0.6,0,1,0.2,1.5,0.4c0.6,0.5,0.9,0.9,1.2,1.5c0.3,0.6,0.4,1.3,0.4,2.5
		s-0.1,2.1-0.4,2.8c-0.3,0.7-0.6,1.2-1.2,1.5c-0.4,0.4-0.9,0.6-1.5,0.6V342.2z M179.8,340.9l1.2-0.1c0,0.6,0.2,0.9,0.5,1.2
		c0.3,0.2,0.6,0.3,1,0.3h0.1v0.9h-0.1c-0.7,0-1.3-0.2-1.8-0.6C180.3,342.1,180,341.6,179.8,340.9L179.8,340.9z M182.7,339.8
		c-0.1,0-0.1,0-0.3,0c-0.7,0-1.3-0.3-1.9-0.7c-0.5-0.6-0.7-1.3-0.7-2.2c0-0.9,0.3-1.6,0.9-2.2c0.4-0.6,1.2-0.9,1.9-0.9h0.1v0.9
		c-0.4,0.1-0.9,0.3-1.2,0.7c-0.5,0.3-0.6,0.9-0.6,1.5c0,0.6,0.1,1,0.4,1.5c0.5,0.3,0.9,0.5,1.3,0.6L182.7,339.8L182.7,339.8z"/>
	<path d="M192.8,341.9v1h-6.1c0-0.3,0-0.4,0.1-0.7c0.2-0.4,0.5-0.9,0.7-1.2c0.3-0.5,0.9-0.9,1.5-1.5c1-0.7,1.6-1.5,1.9-1.9
		c0.4-0.4,0.6-0.9,0.6-1.3c0-0.4-0.2-0.7-0.5-1c-0.3-0.5-0.7-0.6-1.3-0.6c-0.4,0-0.9,0.3-1.2,0.6c-0.4,0.3-0.6,0.7-0.6,1.3l-1.2-0.1
		c0.2-0.9,0.5-1.5,0.9-1.9c0.6-0.4,1.3-0.7,2.2-0.7c0.7,0,1.5,0.3,2.1,0.7c0.4,0.4,0.7,1,0.7,1.8c0,0.4-0.1,0.7-0.3,1.2
		c-0.2,0.3-0.3,0.6-0.7,1c-0.3,0.5-0.9,0.9-1.6,1.6c-0.7,0.6-1.2,0.9-1.3,1.2c-0.3,0.1-0.4,0.3-0.4,0.6L192.8,341.9L192.8,341.9z"/>
	<path d="M194,335v-1.2h6v0.9c-0.6,0.6-1,1.5-1.6,2.5c-0.6,1-1,2.1-1.3,3.1c-0.3,0.7-0.4,1.6-0.4,2.5h-1.2c0-0.7,0.2-1.6,0.5-2.5
		c0.3-1,0.6-2.1,1.2-3c0.4-1,1-1.8,1.6-2.4H194z"/>
	<path d="M204.2,333.7c0.4,0,0.9,0.2,1.3,0.3c0.3,0.1,0.6,0.4,0.9,0.9c0.3,0.3,0.4,0.9,0.6,1.3c0.1,0.6,0.1,1.3,0.1,2.2
		c0,1-0.1,1.9-0.3,2.5c-0.3,0.7-0.6,1.2-1,1.6c-0.4,0.3-1,0.4-1.6,0.4v-0.9c0.4,0,0.9-0.3,1.3-0.7c0.3-0.4,0.4-1.5,0.4-3
		c0-1.5-0.1-2.5-0.4-3.1c-0.4-0.5-0.9-0.7-1.3-0.7V333.7z M201.2,338.5c0-1.2,0.1-1.9,0.3-2.7c0.3-0.6,0.6-1.2,1-1.5
		c0.4-0.4,0.9-0.6,1.6-0.6l0,0v0.9l0,0c-0.6,0-0.9,0.3-1.2,0.7c-0.4,0.6-0.6,1.6-0.6,3.1c0,1.5,0.1,2.5,0.4,3
		c0.4,0.5,0.7,0.7,1.3,0.7l0,0v0.9l0,0c-0.9,0-1.6-0.3-2.1-0.9C201.5,341.5,201.2,340.1,201.2,338.5z"/>
	<rect x="208.2" y="339.1" width="3.4" height="1.2"/>
	<path d="M215.7,333.7c0.5,0,0.9,0.2,1.2,0.3c0.4,0.1,0.7,0.4,0.9,0.9c0.3,0.3,0.4,0.9,0.6,1.3c0.2,0.6,0.3,1.3,0.3,2.2
		c0,1-0.1,1.9-0.4,2.5c-0.1,0.7-0.4,1.2-0.9,1.6c-0.4,0.3-1,0.4-1.6,0.4v-0.9c0.5,0,0.9-0.3,1.2-0.7c0.4-0.4,0.6-1.5,0.6-3
		c0-1.5-0.2-2.5-0.6-3.1c-0.3-0.5-0.7-0.7-1.2-0.7L215.7,333.7L215.7,333.7z M212.6,338.5c0-1.2,0.1-1.9,0.4-2.7
		c0.1-0.6,0.4-1.2,0.9-1.5c0.4-0.4,1-0.6,1.8-0.6l0,0v0.9l0,0c-0.6,0-1,0.3-1.3,0.7c-0.3,0.6-0.6,1.6-0.6,3.1c0,1.5,0.1,2.5,0.6,3
		c0.3,0.5,0.7,0.7,1.3,0.7l0,0v0.9l0,0c-0.9,0-1.6-0.3-2.1-0.9C213,341.5,212.6,340.1,212.6,338.5z"/>
	<path d="M223.5,343v-2.2H222v-1h1.5v-4l-1.5,1.9v-1.5l1.6-2.4h0.9v6h1.3v1h-1.3v2.2L223.5,343L223.5,343z M222,340.7h-2.5v-1
		l2.5-3.6v1.5l-1.5,2.1h1.5V340.7z"/>
	<path d="M230.1,333.7c0.7,0,1.3,0.3,1.8,0.7c0.6,0.4,0.7,1,0.7,1.6c0,0.4,0,0.9-0.3,1.2c-0.2,0.3-0.6,0.6-1,0.7
		c0.6,0.2,1,0.4,1.3,0.9c0.3,0.3,0.4,0.9,0.4,1.3c0,0.9-0.3,1.5-0.9,2.1c-0.4,0.4-1.2,0.7-2.1,0.7l0,0v-0.9l0,0
		c0.4,0,0.9-0.1,1.3-0.6c0.3-0.3,0.4-0.7,0.4-1.2c0-0.6-0.1-1-0.4-1.3c-0.4-0.4-0.9-0.6-1.3-0.6v-0.9l0,0c0.4,0,0.7-0.2,1-0.4
		c0.3-0.3,0.4-0.6,0.4-1s-0.2-0.7-0.4-1c-0.3-0.3-0.7-0.4-1-0.4L230.1,333.7L230.1,333.7z M228.7,338c-0.4-0.1-0.7-0.4-1-0.7
		c-0.3-0.3-0.3-0.7-0.3-1.2c0-0.6,0.1-1.2,0.7-1.6c0.4-0.4,1-0.7,1.8-0.7h0.1v0.9l0,0c-0.5,0-0.9,0.1-1.2,0.4
		c-0.3,0.3-0.4,0.6-0.4,1c0,0.4,0.2,0.7,0.4,1c0.3,0.3,0.7,0.4,1.2,0.4v0.9h-0.1c-0.4,0-0.9,0.1-1.2,0.5c-0.4,0.4-0.6,0.9-0.6,1.3
		c0,0.3,0.2,0.7,0.3,1c0.2,0.3,0.3,0.4,0.6,0.6c0.3,0.2,0.6,0.3,1,0.3v0.9c-1,0-1.6-0.3-2.2-0.7c-0.6-0.6-0.9-1.2-0.9-2.1
		c0-0.6,0.1-1,0.4-1.5C227.7,338.3,228.1,338.2,228.7,338z"/>
	<path d="M237.9,343v-2.2h-1.5v-1h1.5v-4l-1.5,1.9v-1.5l1.6-2.4h0.9v6h1.2v1h-1.2v2.2L237.9,343L237.9,343z M236.4,340.7h-2.5v-1
		l2.5-3.6v1.5l-1.5,2.1h1.5V340.7z"/>
	<g>
		<rect x="166.8" y="353" class="st2" width="30.5" height="15.7"/>
		<rect x="166.4" y="386.8" class="st2" width="30.5" height="15.6"/>
		<rect x="166.4" y="418.2" class="st2" width="30.5" height="15.6"/>
		<rect x="166.4" y="449.6" class="st2" width="30.5" height="15.4"/>
		<rect x="166.5" y="482.4" class="st2" width="30.5" height="15.7"/>
		<rect x="166.5" y="513" class="st2" width="30.5" height="15.6"/>
		<g>
			<path d="M176.8,389.5c1,0,1.8,0.3,2.4,0.9c0.6,0.6,0.9,1.3,0.9,2.1c0,0.6-0.2,1-0.4,1.5c-0.2,0.3-0.6,0.6-1.2,0.9
				c0.7,0.2,1.2,0.6,1.6,1c0.3,0.6,0.4,1.2,0.4,1.9c0,0.9-0.3,1.8-1,2.4c-0.6,0.7-1.5,1-2.7,1l0,0v-1.2l0,0c0.7,0,1.2-0.1,1.6-0.6
				c0.4-0.4,0.7-1,0.7-1.6c0-0.7-0.3-1.3-0.7-1.8c-0.4-0.3-1-0.6-1.6-0.6v-1.2l0,0c0.6,0,1-0.1,1.3-0.4c0.3-0.3,0.6-0.7,0.6-1.3
				c0-0.4-0.3-0.9-0.6-1.2c-0.3-0.4-0.7-0.6-1.3-0.6L176.8,389.5L176.8,389.5z M175.2,394.9c-0.6-0.3-1-0.6-1.2-0.9
				c-0.3-0.5-0.4-0.9-0.4-1.5c0-0.7,0.3-1.5,0.9-2.1c0.6-0.6,1.3-0.9,2.4-0.9l0,0v1.2c-0.6,0-1,0.2-1.3,0.6
				c-0.3,0.3-0.6,0.7-0.6,1.2c0,0.4,0.3,0.9,0.6,1.3c0.3,0.3,0.7,0.4,1.3,0.4v1.2l0,0c-0.7,0-1.2,0.2-1.6,0.6
				c-0.4,0.4-0.7,1.1-0.7,1.6c0,0.4,0.1,0.9,0.3,1.2c0.3,0.4,0.4,0.7,0.9,0.9c0.3,0.3,0.7,0.3,1.2,0.3v1.2c-1.2,0-2.1-0.3-2.7-1
				c-0.7-0.6-1-1.5-1-2.5c0-0.8,0.2-1.3,0.4-1.8C174,395.3,174.6,395,175.2,394.9z"/>
			<path d="M185.8,389.5c0.6,0,1.2,0.2,1.6,0.4c0.4,0.2,0.7,0.6,1,1c0.3,0.4,0.6,1,0.7,1.6c0.1,0.7,0.3,1.6,0.3,2.8
				c0,1.3-0.1,2.4-0.4,3.3c-0.3,0.7-0.7,1.3-1.2,1.8c-0.6,0.6-1.3,0.7-2.1,0.7v-1.2c0.6,0,1.2-0.3,1.6-0.9c0.4-0.6,0.6-1.9,0.6-3.7
				c0-1.9-0.2-3.1-0.6-3.9c-0.4-0.6-1-0.9-1.6-0.9L185.8,389.5L185.8,389.5z M182.1,395.5c0-1.3,0.1-2.5,0.3-3.3
				c0.3-0.9,0.7-1.5,1.3-1.9c0.6-0.4,1.2-0.7,2.1-0.7l0,0v1.2l0,0c-0.7,0-1.2,0.3-1.6,0.9c-0.4,0.6-0.7,1.9-0.7,3.9
				c0,1.8,0.3,3.1,0.7,3.7c0.4,0.6,0.9,0.9,1.6,0.9l0,0v1.2l0,0c-1.2,0-2.1-0.4-2.7-1.2C182.4,399.2,182.1,397.6,182.1,395.5z"/>
			<path d="M180.4,422.5l-1.5,0.1c0-0.6-0.3-1-0.4-1.2c-0.4-0.4-0.9-0.7-1.5-0.7c0,0,0,0.1-0.1,0.1v-1.2c0.1,0,0.1,0,0.3,0
				c0.9,0,1.6,0.1,2.2,0.7C180,420.9,180.3,421.7,180.4,422.5L180.4,422.5z M176.8,423.7c0.1,0,0.3,0,0.3,0c1,0,1.8,0.3,2.5,1
				c0.6,0.7,0.9,1.6,0.9,2.7c0,0.7-0.1,1.3-0.4,2.1c-0.3,0.6-0.7,1-1.3,1.3c-0.4,0.3-1,0.4-1.8,0.4h-0.1v-1h0.1c0.6,0,1-0.3,1.5-0.7
				c0.4-0.4,0.7-1.2,0.7-1.9c0-0.9-0.3-1.5-0.7-1.9c-0.4-0.4-0.9-0.7-1.5-0.7h-0.1L176.8,423.7L176.8,423.7z M176.8,420.9
				c-0.3,0-0.7,0.2-1,0.3c-0.4,0.3-0.7,0.7-1,1.5c-0.2,0.6-0.3,1.5-0.3,2.5c0.3-0.4,0.7-0.9,1.2-1c0.4-0.3,0.7-0.4,1.2-0.4v1.2
				c-0.6,0.2-1,0.3-1.5,0.7c-0.4,0.5-0.7,1-0.7,1.8c0,0.4,0.2,1,0.3,1.5c0.3,0.3,0.6,0.7,0.9,0.9c0.3,0.3,0.7,0.5,1,0.5v1
				c-1,0-1.9-0.4-2.7-1.2c-0.7-0.9-1.2-2.4-1.2-4.3c0-2.2,0.4-3.9,1.3-4.8c0.6-0.9,1.5-1.3,2.5-1.3L176.8,420.9L176.8,420.9z"/>
			<path d="M185.8,419.7c0.6,0,1.2,0.1,1.6,0.3c0.4,0.3,0.7,0.6,1,1c0.3,0.6,0.6,1,0.7,1.8c0.1,0.6,0.3,1.5,0.3,2.7
				c0,1.3-0.1,2.4-0.4,3.3c-0.3,0.9-0.7,1.5-1.2,1.9c-0.6,0.4-1.3,0.6-2.1,0.6v-1c0.6,0,1.2-0.3,1.6-1c0.4-0.6,0.6-1.8,0.6-3.7
				c0-1.9-0.2-3.1-0.6-3.7c-0.4-0.6-1-0.9-1.6-0.9L185.8,419.7L185.8,419.7z M182.1,425.5c0-1.3,0.1-2.4,0.3-3.3
				c0.3-0.7,0.7-1.5,1.3-1.9c0.6-0.4,1.2-0.6,2.1-0.6l0,0v1.2l0,0c-0.7,0-1.2,0.2-1.6,0.7c-0.4,0.7-0.7,1.9-0.7,3.9
				c0,1.9,0.3,3.1,0.7,3.7c0.4,0.7,0.9,1,1.6,1l0,0v1l0,0c-1.2,0-2.1-0.3-2.7-1.2C182.4,429.3,182.1,427.8,182.1,425.5z"/>
			<path d="M177.6,463.5v-2.8h-1.8v-1.2h1.8v-5.1l-1.8,2.5V455l2.1-2.8h1.2v7.3h1.5v1.2h-1.5v2.8L177.6,463.5L177.6,463.5z
				 M175.8,460.7h-3.1v-1.2l3.1-4.5v1.9l-1.8,2.5h1.8V460.7z"/>
			<path d="M185.8,452c0.6,0,1.2,0.1,1.6,0.4c0.4,0.3,0.7,0.6,1,1c0.3,0.4,0.6,1,0.7,1.8c0.1,0.6,0.3,1.5,0.3,2.7
				c0,1.2-0.1,2.2-0.4,3.1c-0.3,0.7-0.7,1.5-1.2,1.9c-0.6,0.4-1.3,0.6-2.1,0.6v-1.2c0.6,0,1.2-0.3,1.6-0.9c0.4-0.6,0.6-1.9,0.6-3.6
				c0-1.9-0.2-3.1-0.6-3.7c-0.4-0.7-1-1-1.6-1L185.8,452L185.8,452z M182.1,458c0-1.3,0.1-2.5,0.3-3.3c0.3-0.9,0.7-1.5,1.3-1.9
				c0.6-0.4,1.2-0.7,2.1-0.7l0,0v1.2l0,0c-0.7,0-1.2,0.3-1.6,0.9c-0.4,0.6-0.7,1.9-0.7,3.9c0,1.6,0.3,3,0.7,3.6
				c0.4,0.6,0.9,0.9,1.6,0.9l0,0v1.2l0,0c-1.2,0-2.1-0.4-2.7-1.2C182.4,461.6,182.1,459.9,182.1,458z"/>
			<path d="M180.4,495.4v1.3h-7.5c-0.2-0.4,0-0.7,0.1-1c0.2-0.4,0.4-1,0.9-1.5c0.4-0.6,1-1,1.8-1.8c1.3-1,2.1-1.8,2.5-2.4
				c0.4-0.6,0.7-1.2,0.7-1.8c0-0.4-0.3-0.9-0.6-1.3c-0.4-0.4-1-0.6-1.6-0.6c-0.6,0-1.2,0.2-1.6,0.6c-0.4,0.4-0.6,1-0.6,1.8l-1.5-0.2
				c0.2-1.2,0.4-1.9,1.2-2.5c0.6-0.6,1.5-0.9,2.5-0.9c1.2,0,2.1,0.3,2.7,0.9c0.6,0.6,0.9,1.5,0.9,2.4c0,0.4,0,0.9-0.3,1.3
				c-0.2,0.4-0.4,0.9-0.9,1.3c-0.4,0.4-1.2,1.2-2.1,2.1c-0.9,0.6-1.5,1.2-1.6,1.3c-0.3,0.3-0.5,0.6-0.6,0.9L180.4,495.4L180.4,495.4
				z"/>
			<path d="M185.8,485.1c0.6,0,1.2,0.1,1.6,0.4c0.4,0.2,0.7,0.6,1,1c0.3,0.5,0.6,1.1,0.7,1.6c0.1,0.7,0.3,1.6,0.3,2.8
				c0,1.3-0.1,2.4-0.4,3.3c-0.3,0.7-0.7,1.3-1.2,1.8c-0.6,0.4-1.3,0.7-2.1,0.7v-1.2c0.6,0,1.2-0.3,1.6-0.9c0.4-0.6,0.6-1.9,0.6-3.7
				c0-1.9-0.2-3.3-0.6-3.9c-0.4-0.6-1-0.9-1.6-0.9L185.8,485.1L185.8,485.1z M182.1,491c0-1.3,0.1-2.5,0.3-3.3
				c0.3-0.9,0.7-1.5,1.3-1.9c0.6-0.4,1.2-0.7,2.1-0.7l0,0v1.2l0,0c-0.7,0-1.2,0.3-1.6,0.9c-0.4,0.6-0.7,1.9-0.7,3.9
				c0,1.8,0.3,3.1,0.7,3.7c0.4,0.6,0.9,0.9,1.6,0.9l0,0v1.2l0,0c-1.2,0-2.1-0.4-2.7-1.2C182.4,494.8,182.1,493.1,182.1,491z"/>
			<path d="M181.3,515.3c0.6,0,1.2,0,1.6,0.3c0.5,0.3,0.7,0.6,1,1c0.3,0.4,0.6,1,0.7,1.8c0.2,0.6,0.3,1.5,0.3,2.7
				c0,1.3-0.1,2.4-0.4,3.3s-0.6,1.5-1.2,1.9c-0.6,0.4-1.3,0.6-2.1,0.6v-1c0.6,0,1.2-0.4,1.6-1c0.5-0.6,0.6-1.8,0.6-3.7
				s-0.1-3.1-0.6-3.7c-0.4-0.6-1-0.9-1.6-1V515.3z M177.6,521.1c0-1.3,0.1-2.4,0.3-3.3c0.3-0.9,0.7-1.5,1.3-1.9
				c0.6-0.4,1.2-0.6,2.1-0.6l0,0v1l0,0c-0.7,0-1.2,0.3-1.6,0.9c-0.4,0.7-0.7,1.9-0.7,3.9s0.3,3.1,0.7,3.7c0.4,0.6,0.9,1,1.6,1l0,0v1
				l0,0c-1.2,0-1.9-0.3-2.7-1.2C177.9,524.9,177.6,523.4,177.6,521.1z"/>
			<path d="M173.8,366.5h-1.3v-9.1c-0.3,0.5-0.7,0.7-1.3,1.1c-0.6,0.3-1,0.6-1.5,0.7v-1.3c0.7-0.5,1.5-0.9,2.1-1.3
				c0.6-0.6,1-1,1.2-1.6h0.9L173.8,366.5L173.8,366.5z"/>
			<path d="M181.3,354.8c0.6,0,1.2,0.1,1.6,0.4c0.5,0.1,0.7,0.6,1,1c0.3,0.4,0.6,1,0.7,1.6c0.2,0.7,0.3,1.6,0.3,2.8
				c0,1.3-0.1,2.4-0.4,3.3c-0.3,0.7-0.6,1.3-1.2,1.8c-0.6,0.6-1.3,0.7-2.1,0.7v-1.2c0.6,0,1.2-0.3,1.6-0.9c0.5-0.6,0.6-1.9,0.6-3.7
				c0-1.9-0.1-3.1-0.6-3.9c-0.4-0.6-1-0.9-1.6-0.9V354.8z M177.6,360.8c0-1.3,0.1-2.5,0.3-3.3c0.3-0.9,0.7-1.5,1.3-1.9
				c0.6-0.4,1.2-0.7,2.1-0.7l0,0v1.2l0,0c-0.7,0-1.2,0.3-1.6,0.9c-0.4,0.6-0.7,1.9-0.7,3.9c0,1.8,0.3,3.1,0.7,3.7
				c0.4,0.6,0.9,0.9,1.6,0.9l0,0v1.2l0,0c-1.2,0-1.9-0.5-2.7-1.2C177.9,364.5,177.6,362.9,177.6,360.8z"/>
			<path d="M190.3,354.8c0.6,0,1,0.1,1.6,0.4c0.4,0.1,0.7,0.6,1,1c0.3,0.4,0.6,1,0.7,1.6c0.1,0.7,0.3,1.6,0.3,2.8
				c0,1.3-0.1,2.4-0.4,3.3c-0.3,0.7-0.7,1.3-1.2,1.8c-0.6,0.6-1.3,0.7-2.1,0.7v-1.2c0.6,0,1.2-0.3,1.6-0.9c0.4-0.6,0.6-1.9,0.6-3.7
				c0-1.9-0.2-3.1-0.6-3.9c-0.4-0.6-1-0.9-1.6-0.9L190.3,354.8L190.3,354.8z M186.5,360.8c0-1.3,0.2-2.5,0.3-3.3
				c0.3-0.9,0.7-1.5,1.3-1.9c0.4-0.4,1.2-0.7,2.1-0.7l0,0v1.2l0,0c-0.7,0-1.2,0.3-1.6,0.9c-0.4,0.6-0.7,1.9-0.7,3.9
				c0,1.8,0.3,3.1,0.7,3.7c0.4,0.6,0.9,0.9,1.6,0.9l0,0v1.2l0,0c-1.2,0-2.1-0.5-2.7-1.2C186.8,364.5,186.5,362.9,186.5,360.8z"/>
		</g>
	</g>
</g>
<g id="graph_lines">
	<path class="st1" d="M17.7,490.3c4.3-0.7,14.1-1.3,17.9-4.3c6.9-5.2,7.6,2.4,12.7,2.4c3,0,4.9-1.3,9.3-1.3c4.5,0,16.8,4,16.8-5.8
		c0-3.3,3.9-11.2,7.5-11.2c5.7-7.2,9.6-13.9,11.7-22.7c3.6-15.1,1.6-22.7,19.9-26.3c14.5-3,15.6,2.8,19.9,11.7
		c2.4,4.8,8.1,1.6,8.1,11.7c0,4.6,7.2,4.3,7.2,10.2c0,5.5,6.9,10.3,6.9,16.8c0,10.8,0,11.8,6.7,18.4c9.4,1.2,12.3-2.1,21.4-2.1
		c8.1,0,7.2,4.8,16.5,1.6c5.1-1.6,7.9,0.7,13.6-1.2c6.3-1.9,9.6,1.6,17.5,1.6c1.9,0,1.2-2.4,2.8-2.8c3.9-1.2,11.2,2.2,10.8,2.2
		c6.4,2.1,8.8-3.6,13.9-0.7c7.5,4.3,10.8-5.2,16.8,0.7c2.4,2.4,26.3,0.4,31.9,0.4c2.8,0.7,16.3,2.8,18.4,0.7
		c2.7-2.7,8.1,0.9,10.8,0.9c7.6,0,13.9-2.4,21.7-2.4c4.2,0,20.6,2.4,23.9,4"/>
	<path class="st3" d="M415.8,157.2c0-1.8,2.4-8.5,3.4-4.8c0.4,1.8,0.6,5.5,1,3c0.4-2.1,0-4.8,2.2-1.6c2.1,3.4,0.1,3.6,2.1-1.3
		c1.5-3.4,1.5-1,1.5,0.9c0,5.1,0,4,3.4,1.6c3-2.2,4.8,1.6,7.2,4c2.7,2.5,1-16.8,2.8-14.8c3.7,3.7,1.6-2.8,3.1-1.3
		c2.2,2.2,1.2,9.6,1.2,12.7c0,5.8-0.1-0.7,1.5-0.7c1.3,0,0.4-5.7,2.2-2.1c2.4,5.1-0.4,7.5,3.3,1c1.6-2.5,0.3,4.2,2.7,1.8"/>
	<path class="st3" d="M2.7,166.8c2.5-2.5-0.4-4.3,4.9-4.3c1.6,0,1.3,6,2.8-0.9c2.2-9.3,2.1,5.2,6.1-2.8c3.9-7.9,3.7-2.7,6.7-1.8
		c0.4,0,6.7,8.8,8.5,8.8c1.3,0,3.6-3.1,3.6-4.8c0-1.9,5.2,2.7,3,2.7c1.8,0.2,1.9,0.2,2.8-0.6c0.4-0.4,1.8-3.4,1.9-4.5
		c0-0.4-0.2-2.5,0.3-2.5c2.1-0.6,1.5,3.7,3,3.7c1.2,0,2.2-2.2,2.2-3.6c0-1.3,0.6,0.2,0.6,0.2c0.3,0.4,0.3,3,0.7,3.9
		c0.4,0.7,1.8-0.3,1.8,1.2c0,0.6-0.1,1.8-0.1,2.4c0,1,1.2,0.6,1.3,0.7v2.1c0,0,1.5-3,1.5-3.4c0-0.6,0.7-1.9,1.2-1.6
		c0.7,0.9,1.3,2.2,1.9,3.3c0.4,0.6,1.9-2.7,2.2-3c0.3-0.9,1.2-2.1,1.2-3.1c0.6,0.4,1.3,1,1.6,1.6c0.1,0.4,1.3-1.9,1.3-1.9
		c0.1,0,1.8,1.2,1.8,1.2c0.1,0.1,0.6,0.1,0.7-0.3c0-0.1,0.6-0.3,0.6-0.3c0.3-0.3,0.7-1.6,0.7-1.6c0-0.2,0.3-0.2,0.3-0.2l1.2,1.3
		c0.4,0.6,1,1,1,1.6c0,0.6,0.7,0.7,0.7,1.3c0-4,4.3-0.7,5.2,0.3c1,0.9,1.5,1.8,2.2,0.9c2.2-2.2,2.4-5.5,3.9,0.6
		c0.3,1.8,1.5-6,4.3-2.1c1.8,2.5,3.3-1.9,3.4-3.4c1.3-7.6,3.9,15.9,4.2,15.6c3-1.3,2.2,0.3,2.2,5.1c0,3-0.4,4.2,1,1.2
		c2.5-5.2,2.5-1,3.6,1.2c0.6,1.2-0.1,4.2,1.8,4.2c6.4,0,4,11.7,4,17.3c0,1.2,0.7,9.9,0.7,5.7c0-0.6,1-3.9,1.2-4c0,0,2.4,5.5,3,6.1
		c0,1.5-0.6,8.1,0.9,8.1c2.4,0,1.6,7.6,3.4,9.4c0.6,0.6-0.3,3-0.3,4c0,2.7,3.6,1,3.6,4.5c0,1.3,6.1,5.8,6.1,10.2
		c0,6.3,3.6,5.1,3.6,9.9c0.6,1,0.4,2.5,1.3,1.2c1.8-2.5,5.7-7.8,5.7-1.2c0,1.2,1.3,2.4,2.2,3.1c1.3,1.5,2.2,1.5,3.4,0.3
		c0.7-0.9,3.9-7,3.9-1.6c0,2.4,4.9,3.9,5.7,1.9c0.6-1.2,2.1-9.6,4.8-3.9c0.4,0.7,1,3.1,1.5,1.5c0.1-0.7,3.4-2.7,3.4-2.7
		c0.2,1.5,2.5,2.4,3.7,3.6c1.8-2.5,6.7-8.4,6.7-1.8c0,1.2,1.3,2.4,2.2,3.1c1.3,1.5,2.2,1.5,3.4,0.3c0.7-0.9,3.9-7,3.9-1.6
		c0,2.4,4.9,3.9,5.7,1.9c0.6-1.2,2.1-9.6,4.8-3.9c0.4,0.7,1,3.1,1.5,1.5c0.1-0.7,3.4-2.7,3.4-2.7c0.2,1.5,2.5,2.4,3.7,3.6l6.9,0.4
		c0,0,2.8,0.8,4.3-3.8c0,0,1.7-2.9,4.1,0c0,0,1.6,2.6,4.7-4.1c0,0,0.9-1.6,2.4,0.1c0.3-0.3,1.2,3.6,1.2,3.6c1.3,2.8,6.4-7.5,6.4-9.9
		c0-1.9,2.1,0.4,3,0.4c2.8,0,4.8-7.3,5.2-10c0-1,0.3-7.9,1.9-2.8c0,0.3,3-8.1,3.4-8.5c0.7-0.7,0.7-2.5,0.7-4.3
		c0-1.8,2.7-0.9,2.7-2.4c3.1-1.6-1.5-9.3,3-10.3c1.9-0.4,0.6-7.6,2.4-6.9c0.4,0.3,3.4,2.1,3.9,2.1c1.2,0,0.3-4.5,1.2-4.8
		c2.7-1.5,4.6-6.3,5.8-8.7c0.7-1.6,1.5-2.8,2.1-4.6c0.9-2.8-0.3-3,2.4-2.4c2.5-0.6,8.5-12.1,9.1-12.1c4.8,0,1.2-0.7,3.6-3.1
		c1-1,4,2.8,6-3.6c1-3.1-0.2-2.8,2.1-0.6c1.2,1.2,3-5.1,3.6-5.1c0.7,0,1.6,4,2.4,2.2c0.9-1.6,1.2-2.4,3-2.1c3.3,0.9-0.3,2.1,3-1.3
		c2.7-2.7,4,1,4,2.4c0,1.8,3,0.7,3,0.7c0-1.8,0,3.4,3.4,1.2c2.8-1.8,5.2-3.3,5.2,1.3c0,3,3.6-3.9,6.1,0.9c2.7,5.8,2.4-1.2,4.9-1.2
		c2.2,0,1.2,5.2,3.3,1.2c3-6.1,0.3,3,3.9,1.2c1-0.3,1-5.4,3.3-5.4c0,0,5.2-4.5,4.8-4.5c0,4,0.3,5.2,1.6,8.4c0.4,0.7,1,5.5,1.3,6
		c0.4,0.4,1.5-1.5,1.5-1.5c0-0.3,1-2.1,1-2.4c0-0.2,1.3,2.2,1.5,2.7c0.6,1.2,2.8-7,3.4-7c1.5,0,2.2,0,3.3-1c1.2-1.2,1.8-3.1,2.5-0.6
		c0.1,0.7,0.6,1.6,0.6,2.4c0,2.1,3.3-6,3.6-5.5c1,0.9,2.2,2.7,3,3.6c0.6,0.6,0,0.9,1.2-0.3c2.1-1.9,1.3-2.5,3.3-1.2
		c1,0.6,1.2,1.8,2.2,0.9c0.7-0.9,2.8-2.4,2.8-2.4c0.3,0.6,3.1,4.2,3.3,3.9c0,0,0.6-0.7,0.9-0.9c0.6-0.6,0.3-1.5,1.3,0.6
		c0.6,1.3,1,2.5,1.8,3.4c0.9,0.7,2.1-0.9,2.4-1.8c0.3-0.7,3.1,3.6,3.1,3.6c0.1,0.3,3.7-1.6,3.9-1.8c1-1.6,1.9-3.4,3.1-4.6
		c1.5-1.6,0.6,0.7,2.4,0.7c1.5,0,1.5-1.2,1.9-2.2c0-0.1,1.3-1.9,1.6-2.4c0.5-0.4,1.2-1.2,1.8-1.8c0.4-0.4,1.5,2.7,2.2,2.7
		c1.8,0,2.4-3.9,5.2-1c0.4,0.4,0.4,1.8,1,2.4c0.6,0.6,3-0.2,3-1"/>
</g>
</svg>
