<?xml version="1.0" encoding="utf-8"?>
<!-- Generator: Adobe Illustrator 15.1.0, SVG Export Plug-In . SVG Version: 6.00 Build 0)  -->
<!DOCTYPE svg PUBLIC "-//W3C//DTD SVG 1.1//EN" "http://www.w3.org/Graphics/SVG/1.1/DTD/svg11.dtd">
<svg version="1.1" id="Layer_1" xmlns="http://www.w3.org/2000/svg" xmlns:xlink="http://www.w3.org/1999/xlink" x="0px" y="0px"
	 width="326.984px" height="57.974px" viewBox="0 0 326.984 57.974" enable-background="new 0 0 326.984 57.974"
	 xml:space="preserve">
<metadata><?xpacket begin="﻿" id="W5M0MpCehiHzreSzNTczkc9d"?>
<x:xmpmeta xmlns:x="adobe:ns:meta/" x:xmptk="Adobe XMP Core 5.0-c060 61.134777, 2010/02/12-17:32:00        ">
   <rdf:RDF xmlns:rdf="http://www.w3.org/1999/02/22-rdf-syntax-ns#">
      <rdf:Description rdf:about=""
            xmlns:dc="http://purl.org/dc/elements/1.1/">
         <dc:format>image/svg+xml</dc:format>
         <dc:title>
            <rdf:Alt>
               <rdf:li xml:lang="x-default">7-4</rdf:li>
            </rdf:Alt>
         </dc:title>
      </rdf:Description>
      <rdf:Description rdf:about=""
            xmlns:xmp="http://ns.adobe.com/xap/1.0/"
            xmlns:xmpGImg="http://ns.adobe.com/xap/1.0/g/img/">
         <xmp:CreatorTool>Adobe Illustrator CS5.1</xmp:CreatorTool>
         <xmp:CreateDate>2015-02-12T16:49:17+02:00</xmp:CreateDate>
         <xmp:ModifyDate>2015-02-12T16:49:17+02:00</xmp:ModifyDate>
         <xmp:MetadataDate>2015-02-12T16:49:17+02:00</xmp:MetadataDate>
         <xmp:Thumbnails>
            <rdf:Alt>
               <rdf:li rdf:parseType="Resource">
                  <xmpGImg:width>256</xmpGImg:width>
                  <xmpGImg:height>48</xmpGImg:height>
                  <xmpGImg:format>JPEG</xmpGImg:format>
                  <xmpGImg:image>/9j/4AAQSkZJRgABAgEBLAEsAAD/7QAsUGhvdG9zaG9wIDMuMAA4QklNA+0AAAAAABABLAAAAAEA&#xA;AQEsAAAAAQAB/+4ADkFkb2JlAGTAAAAAAf/bAIQABgQEBAUEBgUFBgkGBQYJCwgGBggLDAoKCwoK&#xA;DBAMDAwMDAwQDA4PEA8ODBMTFBQTExwbGxscHx8fHx8fHx8fHwEHBwcNDA0YEBAYGhURFRofHx8f&#xA;Hx8fHx8fHx8fHx8fHx8fHx8fHx8fHx8fHx8fHx8fHx8fHx8fHx8fHx8fHx8f/8AAEQgAMAEAAwER&#xA;AAIRAQMRAf/EAaIAAAAHAQEBAQEAAAAAAAAAAAQFAwIGAQAHCAkKCwEAAgIDAQEBAQEAAAAAAAAA&#xA;AQACAwQFBgcICQoLEAACAQMDAgQCBgcDBAIGAnMBAgMRBAAFIRIxQVEGE2EicYEUMpGhBxWxQiPB&#xA;UtHhMxZi8CRygvElQzRTkqKyY3PCNUQnk6OzNhdUZHTD0uIIJoMJChgZhJRFRqS0VtNVKBry4/PE&#xA;1OT0ZXWFlaW1xdXl9WZ2hpamtsbW5vY3R1dnd4eXp7fH1+f3OEhYaHiImKi4yNjo+Ck5SVlpeYmZ&#xA;qbnJ2en5KjpKWmp6ipqqusra6voRAAICAQIDBQUEBQYECAMDbQEAAhEDBCESMUEFURNhIgZxgZEy&#xA;obHwFMHR4SNCFVJicvEzJDRDghaSUyWiY7LCB3PSNeJEgxdUkwgJChgZJjZFGidkdFU38qOzwygp&#xA;0+PzhJSktMTU5PRldYWVpbXF1eX1RlZmdoaWprbG1ub2R1dnd4eXp7fH1+f3OEhYaHiImKi4yNjo&#xA;+DlJWWl5iZmpucnZ6fkqOkpaanqKmqq6ytrq+v/aAAwDAQACEQMRAD8A9U4q7FVO4uLe3haa4lSG&#xA;FN3kkYKoqabk0AxVA/4l8udP0rZ1/wCYiL/mrFXf4m8t7n9K2dB1/wBIi/5qxV3+JfLn/V1s/wDp&#xA;Ii/5qxV3+JfLn/V1s/8ApIi/5qxV3+JvLex/StnQ9P8ASIv+asVd/iXy50/StnX/AJiIv+asVd/i&#xA;by3Sv6Vs6f8AMRF/zVirv8S+XOn6Vs6/8xEX/NWKsQvdR8sata3H1jzVa2N6JrmNJfrMAkjEV8kk&#xA;BX40NFW2FB35E98Kt+X9U0zTNStYpfOkOsiWNklD3MRUCNdmI9STck9cVZd/iby3v/uVs9uv+kRf&#xA;81YFcPM3lsgEatZkHofrEW//AA2Ku/xL5c6fpWzr/wAxEX/NWKu/xN5bpX9K2dP+YiL/AJqxV3+J&#xA;fLnT9K2df+YiL/mrFXf4m8t0r+lbOg7/AFiL/mrFXf4l8uf9XWz/AOkiL/mrFXf4l8uf9XWz/wCk&#xA;iL/mrFXf4m8t7f7lbPfp/pEX/NWKu/xL5c6fpWzr/wAxEX/NWKu/xN5bpX9K2dP+YiL/AJqxV3+J&#xA;fLnT9K2df+YiL/mrFXf4m8t0r+lbOg7/AFiL/mrFXf4l8uf9XWz/AOkiL/mrFXf4l8uf9XWz/wCk&#xA;iL/mrFXf4m8t7f7lbPfp/pEX/NWKu/xL5c6fpWzr/wAxEX/NWKu/xN5bpX9K2dP+YiL/AJqxVUh1&#xA;/Qp5lhg1G1lmc0SNJo2Yn2AapxViFtP+b5jMNzb2ilLW44XKGMu9ysDCDmC/EK8rA/CvbcgdSqJt&#xA;tS/NVzcGfSbCL06/VlWTkJNwAS3qVXuemKoi1uPNc2jsfMdtBbXC6jZC3FuahojdQmrDnLQgkr9r&#xA;tiqS/lleavc3StqsjvcKt6qB5prj92DZqriSaOJqS09SgFBXov2QqlvmO91OPzPewLdvHpj2996l&#xA;ustFMzRy8ecQU8vUC/CTt8B3U9VDLfzDubqz06G8tphbzJ6yRzF0QBzEXoWcqoDLEy1qOvUdQhLv&#xA;y5uLy40a4nvZxc3ck6GeVTyHP6rBVQe/D7Nd+nU9cSrEPLd/q0nmixtZ2n+oJBatCrSM0JIitgOK&#xA;fYWgYnah+I15bcVCZfmLqOr2Ov2z6e7IjpaJdus00Rjj9S4LS8Ykf1PTUFuLVX/IfsqySP8A5Rm0&#xA;X9pL63Rx4MmoorD6CMUpnP8A8pHY/wDMHd/8nbbAqWXIA8ueZANhW+2+cZOFUyv/APjs6X/z3/5N&#xA;jAqXah/xy/Nv/PX/ALp8OFXk+g3vmJNI0VIJnjtbfy9YyWEgubgKLmXTIo6emIHjj9MFn5LzPxft&#xA;boqFKP1CfzNL5ZsJed+NRaGBro27XdxOhSS++BnhiMjcaUDMNmAILUAZQjbm/wBVTWUtVmuBYsIW&#xA;VlmcRJJ9ZiIXgUdARx5AhS1T9r9jFWQflzealdPbtqBmM0a36J68jytwDWZUhpOT0avLdj17D4Ql&#xA;U8m/5Q7Wv+3r/wAn58Upjf8A/HZ0v/nv/wAmxgVvSv8Ae7Wf+YxP+oO3xVLdP/45flL/AJ5f90+b&#xA;CqYwf8pHff8AMHZ/8nbnAqWx/wDKL2X/ADGWv/UemFUzn/5SOx/5g7v/AJO22BUtm/5Q3Wqdf9yv&#xA;/J+fCqY3/wDx2dL/AOe//JsYFb0r/e7Wf+YxP+oO3xVLdP8A+OX5S/55f90+bCqZQf8AKR33/MHa&#xA;f8nbnAqWR/8AKL2X/MZa/wDUemFUynAHmOzI2LWd1yPjxlt6V+XI0+eBWLXXl38zvX1BLPXbdbK7&#xA;uJJIFkDmSKKSUngr8GI4xfCoUijbg7blUILP8x5UZv8AFenm504f6eUCCOIndjKgi7Kppz9+nUKE&#xA;6nnkfyoker30GoTpc20lzPbEFWga/X0yBGF/ZQrsOqnFKhpw8n6xrli+lst1A2nzXAdGl4skz27R&#xA;MGJFaivTp33xVJ9XvfJdhaeYtNunEWoxo8scRMlSl3L9UgKmtG/f0U+FRXqMVTzzZb+VtEi07UdR&#xA;UW9hFd0uJi0rBVa3mUE0JNORFT2xVV8v6b5dv7jWZbaP1Yo78wcuUo+KK3hRxuRWjg79D22xVjui&#xA;X/kzUrDQrC2q1+siRTxEyAhrQIk3fpWVeJ7/AEHFCb6k3lHR/MjQagpi+uW9ulrvKQ0im6kK1B+0&#xA;yp8I7nYb4pWWulaHdeW4buCHlFPqatE/KQVjfVKLsT/KcUJrP5f0ceYbJPQ2a0u2I5v1EtsP5vfF&#xA;KX3Og6SPL/mFxB8SfXOJ5vtSPb9rFCYaj5e0hNS0phB8Mk0kLLzf9qCSSteXb0vxxSl9/oOkjTPN&#xA;TCDeP1eHxvtSwhb+bxOKsK8ja95RvPJ/lXT1tpzqVraWRuYqPyZYbaPlJGoarrIxKoVH2lYbEYqW&#xA;Rrr/AJASW61oFpNHkggigu0ExR5Ea7J471PJojGv8z/CNzihSE/l1F07QmsZxqE8ttcI/wAXpGD6&#xA;6qu/Pn0VqIwpyBZdqGuKpjo7aFrHmVoYtOnt/wBHxXltc+uWX/SI5bfkq/EeQVSrchsQwpilWl0H&#xA;Sf8ACWsSeh8a/pPieb/szTgfte2KphfeXtHGsaYot9m9eo5v2Qf5WKu0vy9o5vdXBt9lu0A+N+n1&#xA;SA/ze+KpfYaDpJ0zyqxg3k9Ln8b71sJm/m8RiqYweXtHPmC9T6v8ItLQgc36mS5r+17YqlqaDpP+&#xA;GrN/Q+I3dqCeT9DfIvj4YoTKfy9o48wWSfV/hNpdkjm/USW1P2vfFKXS6DpP+EtYk9D41/SfE83/&#xA;AGZpwP2vbFUwvvL2jjWNMUW+zevUc37IP8rFXaX5f0hr7VwbfZLtAvxv0+qQH+bxOKpfYaDpJ0zy&#xA;qxg3k9Ln8b71sJm/m8RiqYQeXtH/AMQ3q/V/hFpaEDm/UyXNf2vbFUvj0HSf8NWb+h8Ru7UE836G&#xA;+QH9rwxQmn6F0yDzNYPFDxZbW6YHk53EluB1PvgSjLfzPoFxFJIl9GoiaVJEkJikVoGZZQY5Ar/C&#xA;Ubt2xVhl15d/L251o6rc6q/1mNpblog4VDG8izSRSoytyr6vErs3FuOFCnpnl/ylZaddWflu/M3q&#xA;tpy+nKC6xq91GA1QIi3JQu3KtKb0IxVMtI8nz6F5jjOmT2sBu7WcyL9XmZP3b26/CjXJ4lq8jSlT&#xA;Unc1xSl2ueTU1TTdcv8AUPqVxcW8jyxyNbTBlksuc0LRkXI48XkY9696jFCfeZNI1bUH0m1vLq1k&#xA;ha9D8RbTL8UVvNIvKlzUiqbjv8tsUqXlLy9faKuq6fpc9pbWiXzOIfq0zKrSwQyMErc/CoL0VegG&#xA;woKDFUp03ymbaw8t6nb/AFGO9VYo4rgWsvqBLo/WJFZvrPxAyktSm1TxoDihNNR8s3Gs63eQ6m9l&#xA;dItlAvCS1m4cZXuVPwi5HxeDdR2pilStrHWLby5FbwXVqlvDqaxRR/VpSQE1Tiu5uOlR93fvihNZ&#xA;4PMH+ILIG9tOX1S7ofqklKepbV2+s/LvgSl1zDr3+H/MRN5a8R9c5j6rJU/u96H6xt9xwqmOpweY&#xA;PrukVvbQn623GlpIKH6pP1/0nfbAqX30GvnTfNQ+t2p/vA6i1kq3+gQ/Z/0jbb54VYz5YsGsfy38&#xA;nayhsQbTT7ORJEs2adVe2SSVfU+sLyLGMculSO2KlRXWJksLD6tZRS212bCGz0/6vNIVkt5Ly6jd&#xA;zb3Nyz8XtixJ5VO7U3xQncA1BlNt6toL6xlske4+qOSUfVpIggf6xXiJLZmIoNiMVR+iz6nfX1hd&#xA;2k9jALi2vpWRLR/tNPblmcLcD432Y4q3PDry+Wdej+uWpji+v1H1WTkefOVqH6xtvIabYpTG+g8w&#xA;fpjTK3toW/f8SLSSg+AVqPrOKu0yDzB9d1el7aA/W15VtJDU/VIOn+k7bYFS61g179A+XHF5ain1&#xA;T0v9Fk5Lyh47n6xv8LEHpXCqYwQeYP8AEF6Be2nL6paVP1SSlPUuabfWfn3wKl0cOvf4asz9cteH&#xA;1u1oPqsla/Xkpv8AWPH2wqmM8HmD/EFkDe2nL6pd0P1SSlPUtq7fWfl3wKl8sOvf4R1g/XLXh/uU&#xA;5L9Vkqf30/Kh+sbV7bbe+FUwvoPMH6Y0yt7aFv3/ABItJKD4BWo+s4q7TIPMH13V6XtoD9bXlW0k&#xA;NT9Ug6f6TttgVLrKHXhpPlZ/rlqIx6PH/RZDx52UiLy/0jfdgO2+FUxgg8wf4gvQL205fVLSp+qS&#xA;Up6lzTb6z8++BUuSHXv8NWZF5a8PrdrRfqsla/Xkoa/WPH2wqmnpa0vmawM91bSJ9VuuSpbSISvq&#xA;W1QCZ336b0wKhz+W3lBtTutSezLXV1LJOxLuAssyNHKygEbuHNeVfamNqld15U/KqxaWwvDBFcO6&#xA;SyJLcOsolWJlEi/GCpMcprxoPbCqotj5S9O7vfLM8BuprnT1m9NjNFG31uIK3phhTlwAIDAfD2Na&#xA;qpgs+pXHmX6tFqEL3tjbypNx065MCesYJODz+v6Yl4hGCcuXE1pTAqy103Xb2w1ezN/aolzNcQyM&#xA;LSQkc14kj/SPfCqI1ODzB9d0it7aE/W240tJBQ/VJ+v+k77YFRNtpnmCCa6lXULQm7lEzg2kmxES&#xA;RUH+k+EYOKpHBJeQeX/LwvNWs7fmtobSM2kru7iMUWi3FTSvxEDbqaYVTOCDzB/iC9AvbTl9UtKn&#xA;6pJSnqXNNvrPz74FUNQ03XrTTEi+v2rq2oQS/wC8kgPKfUEl/wCWg7Bn+7CqYPpnmB7+G8OoWnOG&#xA;KWEL9UkoRK0bE/709vSGBUutdN129sNXszf2qJczXEMjC0kJHNeJI/0j3wqiNTg8wfXdIre2hP1t&#xA;uNLSQUP1Sfr/AKTvtgVu503X4LTVJfr9q31oPNIv1SQUIgWKg/0nwixVhfkM3Nx+X3kzSpLqJzc2&#xA;FtLHbLYzT0iWMITO6zKip8dKmle3fCpZFB5XlOpTafJ+j7i2tre0khiubOS4VG9W64svq3LkMOTb&#xA;16GmKrdT8q3Fv6Wos+ny6iLy3CXrWLesqzagJuCubgkKrTtsOoxVCafq+nJ52fQNPvbG31i3W5Wa&#xA;2h05442Z1triR2K3IqxDLQ9yGH7OKpta6brt7YavZm/tUS5muIZGFpISOa8SR/pHviqvfw+YF1bS&#xA;y17afE0yI31SWnIxFqH/AEjuqH7sVRVtpnmCCa6lXULQm7lEzg2kmxESRUH+k+EYOBUu0jTNduvL&#xA;+in6/aosMNtMg+qSE/DGKAn6wPHwwqiIIPMH+IL0C9tOX1S0qfqklKepc02+s/PvgVD32ma9ZaRD&#xA;bi/tXjW9tSlbSQEc76NlH+9HReVPcffhVMX0zzA9/DeHULTnDFLCF+qSUIlaNif96e3pDAqXWmm6&#xA;7eabqth9ftY4Zp7qEn6rISPWJLlf9I/mkJwqiL6DzB+mNMre2hb9/wASLSSg+AVqPrOKom20zzBB&#xA;NdSrqFoTdyiZwbSTYiJIqD/SfCMHAqXaRpmu3Xl/RT9ftUWGG2mQfVJCfhjFAT9YHj4YVREEHmD/&#xA;ABBegXtpy+qWlT9UkpT1Lmm31n598Coe+0zXrLR7e2F/auiXdpQ/VJAateRkf8fJ6E4VTRNO1k6p&#xA;b3s97bOsEcsTRR20iFllaNjRjO9CPSHbAqbYqxvV/wAvvLOram2p3sUr3bEEss0iLtGI6cVIFKAH&#xA;542rrTyRpWk2E8Ghx/Vnnmtp2ErySIWtpllUULEitKbfwxVUtdE1K01G61G3jtY7q9Ia5IkuTGzB&#xA;VXkIixjViqKCyqCab4qq2Vn5jtfXo1m3rzPMdpRQvTb8MVburPzHPPaSlrNTaSmYCkp5ExSRU/5K&#xA;1xVEf87J/wAuf/JXFUnTyzq/+4h3lg9fR4hBBLE88XNKR8ldVO6s0CEj2p0JBKpgln5jTUJrzlZk&#xA;zRRQlKS0AhaRq19/V/DArr6z8x3cCxFrNAssM1QJTvBKsoH08KYqiP8AnZP+XP8A5K4qhrKz8x2v&#xA;r0azb15nmO0ooXpt+GKt3Vn5jnntJS1mptJTMBSU8iYpIqf8la4qqXMPmOe3lhJs1EqMhb97tyFK&#xA;4qkHlryRf6Jpmi2p+qXV3otpHZw3p9eMuka0BaNW4nqSOVaVNMKp2ln5jTUJrzlZkzRRQlKS0Aha&#xA;Rq19/V/DArr6z8x3cCxFrNAssM1QJTvBKsoH08KYqg4/K8kWqfpaOx05NS5+obsCYSFqSjc13/3p&#xA;k26b/LCqLsrPzHa+vRrNvXmeY7Sihem34YFburPzHPPaSlrNTaSmYCkp5ExSRU/5K1xVEf8AOyf8&#xA;uf8AyVxVD6dZ+Y7LT7WzDWbi2ijhDkSgkRqFrT3pirks/MaahNecrMmaKKEpSWgELSNWvv6v4Yq6&#xA;+s/Md3AsRazQLLDNUCU7wSrKB9PCmKoj/nZP+XP/AJK4qhrKz8x2vr0azb15nmO0ooXpt+GKuns/&#xA;Mct5bXJazBtudFpLv6i8fwxVE/8AOyf8uf8AyVxVD6dZ+Y7LT7WzDWbi2ijhDkSgkRqFrT3pirks&#xA;/MaahNecrMmaKKEpSWgELSNWvv6v4Yq6+s/Md3AsRazQLLDNUCU7wSrKB9PCmKouD9O+qvr/AFX0&#xA;a/Hw9TlT2rtir//Z</xmpGImg:image>
               </rdf:li>
            </rdf:Alt>
         </xmp:Thumbnails>
      </rdf:Description>
      <rdf:Description rdf:about=""
            xmlns:xmpMM="http://ns.adobe.com/xap/1.0/mm/"
            xmlns:stRef="http://ns.adobe.com/xap/1.0/sType/ResourceRef#"
            xmlns:stEvt="http://ns.adobe.com/xap/1.0/sType/ResourceEvent#">
         <xmpMM:DocumentID>xmp.did:44C0730B3B20681188C69098C6AB8D67</xmpMM:DocumentID>
         <xmpMM:InstanceID>xmp.iid:44C0730B3B20681188C69098C6AB8D67</xmpMM:InstanceID>
         <xmpMM:OriginalDocumentID>uuid:8DA57CB5F225DF118833972942CE57BD</xmpMM:OriginalDocumentID>
         <xmpMM:DerivedFrom rdf:parseType="Resource">
            <stRef:instanceID>uuid:b5485f6b-a59a-4ae1-8de4-a15fdeba77d6</stRef:instanceID>
            <stRef:documentID>uuid:8DA57CB5F225DF118833972942CE57BD</stRef:documentID>
            <stRef:originalDocumentID>uuid:8DA57CB5F225DF118833972942CE57BD</stRef:originalDocumentID>
         </xmpMM:DerivedFrom>
         <xmpMM:History>
            <rdf:Seq>
               <rdf:li rdf:parseType="Resource">
                  <stEvt:action>saved</stEvt:action>
                  <stEvt:instanceID>xmp.iid:44C0730B3B20681188C69098C6AB8D67</stEvt:instanceID>
                  <stEvt:when>2015-02-12T16:49:17+02:00</stEvt:when>
                  <stEvt:softwareAgent>Adobe Illustrator CS5.1</stEvt:softwareAgent>
                  <stEvt:changed>/</stEvt:changed>
               </rdf:li>
            </rdf:Seq>
         </xmpMM:History>
      </rdf:Description>
      <rdf:Description rdf:about=""
            xmlns:pdf="http://ns.adobe.com/pdf/1.3/">
         <pdf:Producer>Adobe PDF library 7.77</pdf:Producer>
      </rdf:Description>
      <rdf:Description rdf:about=""
            xmlns:xmpTPg="http://ns.adobe.com/xap/1.0/t/pg/"
            xmlns:stDim="http://ns.adobe.com/xap/1.0/sType/Dimensions#"
            xmlns:xmpG="http://ns.adobe.com/xap/1.0/g/">
         <xmpTPg:MaxPageSize rdf:parseType="Resource">
            <stDim:w>115.352821</stDim:w>
            <stDim:h>20.451982</stDim:h>
            <stDim:unit>Millimeters</stDim:unit>
         </xmpTPg:MaxPageSize>
         <xmpTPg:NPages>1</xmpTPg:NPages>
         <xmpTPg:HasVisibleTransparency>False</xmpTPg:HasVisibleTransparency>
         <xmpTPg:HasVisibleOverprint>False</xmpTPg:HasVisibleOverprint>
         <xmpTPg:PlateNames>
            <rdf:Seq>
               <rdf:li>Black</rdf:li>
            </rdf:Seq>
         </xmpTPg:PlateNames>
         <xmpTPg:SwatchGroups>
            <rdf:Seq>
               <rdf:li rdf:parseType="Resource">
                  <xmpG:groupName>Default Swatch Group</xmpG:groupName>
                  <xmpG:groupType>0</xmpG:groupType>
               </rdf:li>
            </rdf:Seq>
         </xmpTPg:SwatchGroups>
      </rdf:Description>
   </rdf:RDF>
</x:xmpmeta>
                                                                                                    
                                                                                                    
                                                                                                    
                                                                                                    
                                                                                                    
                                                                                                    
                                                                                                    
                                                                                                    
                                                                                                    
                                                                                                    
                                                                                                    
                                                                                                    
                                                                                                    
                                                                                                    
                                                                                                    
                                                                                                    
                                                                                                    
                                                                                                    
                                                                                                    
                                                                                                    
                           
<?xpacket end="w"?>
	</metadata>
<g>
	<polygon points="0,13.154 1.279,13.154 1.279,13.519 0.366,13.519 0.366,14.981 1.279,14.981 1.279,15.346 0.366,15.346 
		0.366,17.295 0,17.295 	"/>
	<path d="M2.862,15.711c0-0.304-0.061-0.548-0.122-0.67c-0.061-0.183-0.183-0.243-0.304-0.243l0,0v-0.305l0,0
		c0.244,0,0.426,0.122,0.548,0.365s0.183,0.548,0.183,1.036v0.122H2.436v-0.305H2.862L2.862,15.711z M2.436,17.356v-0.304l0,0
		c0.122,0,0.182-0.062,0.244-0.183c0.122-0.122,0.122-0.244,0.122-0.487h0.366c0,0.305-0.122,0.548-0.244,0.731
		C2.801,17.295,2.618,17.356,2.436,17.356z M2.436,14.798c-0.122,0-0.244,0.061-0.305,0.243c-0.122,0.122-0.122,0.366-0.183,0.67
		h0.487v0.305H1.949v0.061c0,0.305,0.061,0.548,0.122,0.731c0.122,0.182,0.183,0.244,0.366,0.244v0.304l0,0
		c-0.305,0-0.487-0.122-0.609-0.366c-0.122-0.244-0.183-0.548-0.183-1.035c0-0.487,0.061-0.853,0.183-1.096
		c0.183-0.244,0.365-0.365,0.609-0.365V14.798z"/>
	<polygon points="3.715,14.798 3.41,14.798 3.41,14.494 3.715,14.494 3.715,13.763 4.08,13.763 4.08,14.494 4.506,14.494 
		4.506,14.798 4.08,14.798 4.08,17.295 3.715,17.295 	"/>
	<path d="M5.481,17.112L5.481,17.112c0.183,0,0.244-0.122,0.304-0.304c0.122-0.122,0.122-0.427,0.122-0.853s0-0.73-0.122-0.914
		c-0.061-0.183-0.122-0.243-0.304-0.243l0,0v-0.305c0.061,0,0.122,0.061,0.183,0.061c0.122,0.061,0.183,0.122,0.244,0.244v-0.305
		h0.304v2.801H5.907v-0.243c-0.061,0.121-0.122,0.182-0.183,0.243c-0.061,0.061-0.183,0.061-0.244,0.061V17.112z M5.055,15.955
		c0,0.426,0.061,0.731,0.122,0.914c0.061,0.122,0.183,0.244,0.305,0.244v0.244H5.42c-0.244,0-0.426-0.122-0.548-0.304
		c-0.122-0.244-0.183-0.67-0.183-1.219c0-0.426,0.061-0.792,0.183-1.035c0.122-0.183,0.305-0.305,0.548-0.305h0.061v0.305
		c-0.122,0-0.244,0.061-0.305,0.243C5.115,15.225,5.055,15.529,5.055,15.955z"/>
	<rect x="6.881" y="12.91" width="0.365" height="4.385"/>
	<path d="M9.074,12.91h0.304v1.888c0.062-0.122,0.122-0.183,0.244-0.244c0.061-0.061,0.182-0.061,0.304-0.061
		c0.183,0,0.365,0.061,0.426,0.183c0.122,0.183,0.122,0.365,0.122,0.731v1.888H10.17v-1.949c0-0.244-0.061-0.365-0.122-0.487
		c0-0.061-0.122-0.122-0.244-0.122c-0.122,0-0.244,0.061-0.304,0.183s-0.122,0.305-0.122,0.548v1.827H9.074V12.91z"/>
	<path d="M12.241,15.711c-0.061-0.304-0.061-0.548-0.122-0.67c-0.122-0.183-0.183-0.243-0.305-0.243h-0.061v-0.305l0,0
		c0.304,0,0.487,0.122,0.608,0.365c0.122,0.244,0.183,0.548,0.183,1.036v0.122h-0.792v-0.305H12.241L12.241,15.711z M11.753,17.356
		v-0.304l0,0c0.122,0,0.244-0.062,0.304-0.183c0.061-0.122,0.122-0.244,0.122-0.487h0.304c0,0.305-0.061,0.548-0.183,0.731
		C12.18,17.295,11.997,17.356,11.753,17.356z M11.753,14.798c-0.122,0-0.244,0.061-0.305,0.243c-0.061,0.122-0.122,0.366-0.122,0.67
		h0.426v0.305h-0.426v0.061c0,0.305,0.061,0.548,0.122,0.731c0.061,0.182,0.183,0.244,0.305,0.244v0.304l0,0
		c-0.244,0-0.426-0.122-0.548-0.366c-0.183-0.244-0.244-0.548-0.244-1.035c0-0.487,0.061-0.853,0.244-1.096
		c0.122-0.244,0.305-0.365,0.548-0.365V14.798z"/>
	<path d="M13.641,17.112L13.641,17.112c0.183,0,0.304-0.122,0.365-0.304c0.061-0.122,0.061-0.427,0.061-0.853s0-0.73-0.061-0.914
		c-0.061-0.183-0.183-0.243-0.365-0.243l0,0v-0.305c0.061,0,0.122,0.061,0.183,0.061c0.122,0.061,0.183,0.122,0.244,0.244v-0.305
		h0.304v2.801h-0.304v-0.243c-0.061,0.121-0.122,0.182-0.183,0.243c-0.061,0.061-0.122,0.061-0.244,0.061V17.112z M13.215,15.955
		c0,0.426,0.061,0.731,0.122,0.914c0.061,0.122,0.183,0.244,0.305,0.244v0.244H13.58c-0.244,0-0.426-0.122-0.548-0.304
		c-0.121-0.244-0.121-0.67-0.121-1.219c0-0.426,0-0.792,0.121-1.035c0.122-0.183,0.305-0.305,0.548-0.305h0.061v0.305
		c-0.122,0-0.244,0.061-0.305,0.243C13.275,15.225,13.215,15.529,13.215,15.955z"/>
	<path d="M15.042,14.494h0.365v0.426c0.062-0.122,0.122-0.244,0.183-0.305c0.061-0.061,0.183-0.122,0.305-0.122v0.365
		c-0.183,0-0.305,0.061-0.366,0.183c-0.061,0.122-0.122,0.305-0.122,0.609v1.644h-0.365V14.494z"/>
	<polygon points="16.32,14.798 16.016,14.798 16.016,14.494 16.32,14.494 16.32,13.763 16.686,13.763 16.686,14.494 17.173,14.494 
		17.173,14.798 16.686,14.798 16.686,17.295 16.32,17.295 	"/>
	<path d="M18.574,14.494h0.366v0.426c0.061-0.122,0.122-0.244,0.182-0.305c0.062-0.061,0.183-0.122,0.244-0.122v0.365
		c-0.122,0-0.244,0.061-0.304,0.183c-0.122,0.122-0.122,0.305-0.122,0.609v1.644h-0.366V14.494z"/>
	<path d="M20.461,17.112L20.461,17.112c0.122,0,0.244-0.122,0.305-0.304c0.061-0.122,0.122-0.427,0.122-0.853
		s-0.061-0.73-0.122-0.914c-0.061-0.183-0.183-0.243-0.305-0.243l0,0v-0.305c0.061,0,0.122,0.061,0.183,0.061
		c0.061,0.061,0.183,0.122,0.183,0.244v-0.305h0.365v2.801h-0.365v-0.243c0,0.121-0.061,0.182-0.183,0.243
		c-0.061,0.061-0.122,0.061-0.183,0.061V17.112z M20.035,15.955c0,0.426,0.061,0.731,0.122,0.914
		c0.061,0.122,0.122,0.244,0.304,0.244v0.244c-0.061,0-0.061,0-0.122,0c-0.244,0-0.366-0.122-0.487-0.304
		c-0.122-0.244-0.183-0.67-0.183-1.219c0-0.426,0.061-0.792,0.183-1.035c0.122-0.183,0.305-0.305,0.487-0.305
		c0.061,0,0.061,0,0.122,0v0.305c-0.183,0-0.244,0.061-0.304,0.243C20.096,15.225,20.035,15.529,20.035,15.955z"/>
	<polygon points="21.923,14.798 21.619,14.798 21.619,14.494 21.923,14.494 21.923,13.763 22.289,13.763 22.289,14.494 
		22.715,14.494 22.715,14.798 22.289,14.798 22.289,17.295 21.923,17.295 	"/>
	<path d="M24.115,15.711c0-0.304-0.061-0.548-0.122-0.67c-0.061-0.183-0.183-0.243-0.305-0.243l0,0v-0.305l0,0
		c0.244,0,0.426,0.122,0.548,0.365c0.122,0.244,0.244,0.548,0.244,1.036v0.122h-0.792v-0.305H24.115L24.115,15.711z M23.689,17.356
		v-0.304l0,0c0.122,0,0.183-0.062,0.305-0.183c0.061-0.122,0.061-0.244,0.061-0.487h0.365c0,0.305-0.061,0.548-0.244,0.731
		C24.055,17.295,23.872,17.356,23.689,17.356z M23.689,14.798c-0.122,0-0.244,0.061-0.304,0.243
		c-0.122,0.122-0.122,0.366-0.183,0.67h0.487v0.305h-0.487v0.061c0,0.305,0.061,0.548,0.122,0.731
		c0.122,0.182,0.244,0.244,0.365,0.244v0.304l0,0c-0.304,0-0.487-0.122-0.609-0.366c-0.122-0.244-0.183-0.548-0.183-1.035
		c0-0.487,0.061-0.853,0.183-1.096c0.183-0.244,0.365-0.365,0.609-0.365V14.798z"/>
	<path d="M2.74,25.82c0.122-0.061,0.183-0.182,0.244-0.304c0.122-0.183,0.183-0.67,0.183-1.279c0-0.731-0.061-1.218-0.183-1.462
		c-0.061-0.122-0.122-0.244-0.244-0.304v-0.366c0.244,0.062,0.427,0.183,0.548,0.426c0.183,0.305,0.305,0.853,0.305,1.645
		c0,0.792-0.122,1.279-0.305,1.583c-0.122,0.244-0.305,0.365-0.548,0.426V25.82z M2.253,22.411v3.471h0.061
		c0.122,0,0.304,0,0.426-0.062v0.366c-0.122,0.061-0.304,0.061-0.426,0.061H1.827v-4.141h0.487c0.122,0,0.304,0,0.426,0v0.366
		c-0.122,0-0.243-0.061-0.426-0.061H2.253z"/>
	<path d="M5.237,24.664c0-0.305-0.061-0.548-0.122-0.731c-0.061-0.122-0.183-0.244-0.304-0.244H4.75v-0.304h0.061
		c0.244,0,0.426,0.122,0.548,0.365c0.122,0.244,0.183,0.609,0.183,1.096v0.061H4.75v-0.244H5.237L5.237,24.664z M4.75,26.308v-0.304
		l0,0c0.122,0,0.244-0.061,0.305-0.183c0.061-0.122,0.122-0.304,0.122-0.487h0.365c-0.061,0.305-0.122,0.548-0.243,0.67
		C5.176,26.186,4.994,26.308,4.75,26.308z M4.75,23.689c-0.122,0-0.183,0.122-0.305,0.244c-0.061,0.183-0.122,0.426-0.122,0.731
		H4.75v0.244H4.324v0.122c0,0.305,0.061,0.548,0.122,0.731c0.061,0.122,0.183,0.244,0.305,0.244v0.304l0,0
		c-0.244,0-0.426-0.122-0.548-0.365c-0.122-0.244-0.183-0.609-0.183-1.096c0-0.426,0.061-0.792,0.183-1.096
		c0.122-0.244,0.305-0.365,0.548-0.365V23.689z"/>
	<path d="M7.125,23.506v0.426c-0.061-0.061-0.122-0.122-0.183-0.183c0,0-0.061,0-0.183,0c-0.121,0-0.304,0.061-0.365,0.244
		c-0.062,0.183-0.122,0.487-0.122,0.914c0,0.365,0.061,0.609,0.122,0.792c0.061,0.183,0.244,0.244,0.365,0.244
		c0.061,0,0.183,0,0.244-0.061c0,0,0.061-0.062,0.122-0.122v0.365c-0.061,0.061-0.122,0.122-0.183,0.122c-0.061,0-0.122,0-0.244,0
		c-0.244,0-0.426-0.122-0.548-0.365c-0.183-0.244-0.244-0.548-0.244-0.975c0-0.487,0.061-0.853,0.244-1.096
		c0.122-0.305,0.365-0.426,0.608-0.426c0.122,0,0.183,0.061,0.183,0.061C7.003,23.445,7.064,23.506,7.125,23.506z"/>
	<path d="M8.647,24.664c0-0.305-0.061-0.548-0.122-0.731c-0.061-0.122-0.183-0.244-0.305-0.244l0,0v-0.304l0,0
		c0.244,0,0.426,0.122,0.548,0.365c0.121,0.244,0.183,0.609,0.183,1.096v0.061H8.221v-0.244H8.647L8.647,24.664z M8.221,26.308
		v-0.304l0,0c0.122,0,0.183-0.061,0.244-0.183c0.122-0.122,0.122-0.304,0.122-0.487h0.366c0,0.305-0.122,0.548-0.244,0.67
		C8.586,26.186,8.404,26.308,8.221,26.308z M8.221,23.689c-0.122,0-0.244,0.122-0.305,0.244c-0.122,0.183-0.122,0.426-0.183,0.731
		h0.487v0.244H7.734v0.122c0,0.305,0.061,0.548,0.122,0.731c0.122,0.122,0.183,0.244,0.365,0.244v0.304l0,0
		c-0.305,0-0.487-0.122-0.609-0.365c-0.122-0.244-0.183-0.609-0.183-1.096c0-0.426,0.061-0.792,0.183-1.096
		c0.183-0.244,0.365-0.365,0.609-0.365V23.689z"/>
	<rect x="9.439" y="21.801" width="0.365" height="4.445"/>
	<path d="M11.571,24.664c0-0.305-0.061-0.548-0.122-0.731c-0.061-0.122-0.183-0.244-0.305-0.244h-0.061v-0.304h0.061
		c0.244,0,0.427,0.122,0.548,0.365s0.183,0.609,0.183,1.096v0.061h-0.792v-0.244H11.571L11.571,24.664z M11.083,26.308v-0.304l0,0
		c0.122,0,0.244-0.061,0.304-0.183c0.061-0.122,0.122-0.304,0.122-0.487h0.304c0,0.305-0.061,0.548-0.183,0.67
		C11.51,26.186,11.327,26.308,11.083,26.308z M11.083,23.689c-0.122,0-0.244,0.122-0.305,0.244
		c-0.061,0.183-0.122,0.426-0.122,0.731h0.426v0.244h-0.426v0.122c0,0.305,0.061,0.548,0.122,0.731
		c0.061,0.122,0.183,0.244,0.305,0.244v0.304l0,0c-0.244,0-0.426-0.122-0.548-0.365c-0.183-0.244-0.244-0.609-0.244-1.096
		c0-0.426,0.122-0.792,0.244-1.096c0.122-0.244,0.305-0.365,0.548-0.365V23.689z"/>
	<path d="M12.362,23.445h0.305v0.366c0.061-0.122,0.122-0.244,0.182-0.305c0.122-0.061,0.183-0.061,0.305-0.122v0.426
		c-0.183,0-0.305,0.061-0.365,0.122c-0.061,0.122-0.122,0.366-0.122,0.609v1.705h-0.305V23.445z"/>
	<path d="M14.189,26.003L14.189,26.003c0.183,0,0.305-0.061,0.366-0.244c0.061-0.183,0.061-0.487,0.061-0.914s0-0.731-0.061-0.914
		c-0.061-0.122-0.183-0.244-0.366-0.244l0,0v-0.244c0.061,0,0.122,0,0.183,0.061c0.122,0,0.183,0.122,0.244,0.183v-0.244h0.305
		v2.801h-0.305v-0.243c-0.061,0.061-0.122,0.183-0.183,0.183c-0.061,0.061-0.122,0.122-0.244,0.122V26.003z M13.763,24.846
		c0,0.426,0.061,0.73,0.122,0.914c0.061,0.183,0.183,0.244,0.304,0.244v0.304h-0.061c-0.244,0-0.427-0.122-0.548-0.365
		s-0.122-0.609-0.122-1.157c0-0.487,0.061-0.853,0.122-1.035c0.122-0.244,0.305-0.365,0.548-0.365c0,0,0.061,0,0.061,0.061v0.244
		c-0.122,0-0.244,0.122-0.304,0.244C13.824,24.115,13.763,24.42,13.763,24.846z"/>
	<polygon points="15.65,23.75 15.407,23.75 15.407,23.445 15.65,23.445 15.65,22.654 16.016,22.654 16.016,23.445 16.503,23.445 
		16.503,23.75 16.016,23.75 16.016,26.247 15.65,26.247 	"/>
	<path d="M16.93,22.349c0.122,0,0.183,0,0.243,0.062c0,0.061,0.061,0.121,0.061,0.183c0,0.061-0.061,0.122-0.061,0.182
		c-0.061,0.062-0.122,0.062-0.243,0.062c-0.061,0-0.122,0-0.122-0.062c-0.061-0.061-0.122-0.122-0.122-0.182
		c0-0.062,0.061-0.122,0.061-0.183C16.808,22.349,16.869,22.349,16.93,22.349L16.93,22.349z M16.808,23.445h0.305v2.801h-0.305
		V23.445z"/>
	<path d="M18.452,23.689L18.452,23.689v-0.304l0,0c0.304,0,0.487,0.122,0.609,0.365c0.122,0.244,0.183,0.609,0.183,1.096
		s-0.061,0.853-0.183,1.096c-0.122,0.244-0.305,0.365-0.609,0.365l0,0v-0.304l0,0c0.182,0,0.244-0.122,0.365-0.305
		c0.061-0.183,0.061-0.487,0.061-0.853c0-0.365,0-0.67-0.061-0.853C18.696,23.75,18.634,23.689,18.452,23.689z M18.452,23.689
		c-0.122,0-0.244,0.061-0.305,0.244c-0.122,0.183-0.122,0.487-0.122,0.914s0,0.67,0.122,0.853c0.061,0.183,0.183,0.305,0.305,0.305
		v0.304c-0.244,0-0.488-0.122-0.609-0.365s-0.183-0.609-0.183-1.096s0.061-0.853,0.183-1.096s0.366-0.365,0.609-0.365V23.689z"/>
	<path d="M19.792,23.445h0.305v0.244c0.061-0.061,0.183-0.183,0.244-0.183c0.122-0.061,0.183-0.122,0.304-0.122
		c0.244,0,0.366,0.122,0.427,0.244c0.122,0.122,0.183,0.365,0.183,0.67v1.948h-0.366v-2.009c0-0.183,0-0.365-0.061-0.426
		c-0.061-0.122-0.183-0.122-0.305-0.122s-0.244,0.061-0.305,0.183c-0.061,0.122-0.122,0.304-0.122,0.487v1.888h-0.305V23.445z"/>
	<path d="M21.741,25.699c0.061,0.061,0.122,0.183,0.243,0.183c0.061,0.061,0.183,0.122,0.244,0.122c0.122,0,0.244-0.061,0.305-0.122
		c0.122-0.122,0.183-0.183,0.183-0.366c0-0.122-0.183-0.304-0.426-0.548l-0.061-0.061c-0.244-0.183-0.365-0.365-0.426-0.426
		c-0.061-0.122-0.122-0.244-0.122-0.426s0.062-0.366,0.183-0.487c0.122-0.122,0.304-0.183,0.487-0.183c0.122,0,0.183,0,0.244,0.061
		c0.122,0,0.183,0.061,0.244,0.122v0.305c-0.061-0.061-0.122-0.122-0.183-0.122c-0.122-0.061-0.183-0.061-0.243-0.061
		c-0.122,0-0.183,0.061-0.305,0.122c-0.061,0.061-0.122,0.122-0.122,0.244c0,0.183,0.183,0.365,0.427,0.548v0.061
		c0.243,0.183,0.426,0.365,0.487,0.487c0.061,0.122,0.122,0.244,0.122,0.365c0,0.244-0.061,0.426-0.244,0.548
		c-0.122,0.183-0.304,0.244-0.487,0.244c-0.122,0-0.244,0-0.305-0.061c-0.122,0-0.183-0.061-0.243-0.122V25.699z"/>
	<path d="M12.789,29.353l0.365,0.121c-0.243,0.427-0.426,0.853-0.487,1.34c-0.122,0.425-0.183,0.913-0.183,1.4
		c0,0.427,0.061,0.914,0.183,1.34c0.061,0.487,0.244,0.914,0.487,1.34l-0.365,0.122c-0.183-0.487-0.365-0.913-0.487-1.4
		c-0.122-0.487-0.183-0.975-0.183-1.401c0-0.487,0.061-0.975,0.183-1.461C12.423,30.266,12.605,29.84,12.789,29.353z"/>
	<polygon points="14.006,32.033 13.215,29.718 13.58,29.718 14.189,31.606 14.737,29.718 15.163,29.718 14.372,32.033 
		14.372,33.859 14.006,33.859 	"/>
	<path d="M16.442,32.276c0-0.305,0-0.549-0.122-0.67c-0.061-0.183-0.182-0.305-0.304-0.305l0,0v-0.305l0,0
		c0.244,0,0.426,0.122,0.548,0.366c0.183,0.243,0.244,0.608,0.244,1.096v0.121h-0.792v-0.304H16.442L16.442,32.276z M16.016,33.919
		v-0.304l0,0c0.122,0,0.183-0.062,0.304-0.184c0.062-0.121,0.062-0.304,0.122-0.486h0.304c0,0.304-0.061,0.548-0.244,0.731
		C16.382,33.859,16.199,33.919,16.016,33.919z M16.016,31.301c-0.122,0.062-0.244,0.122-0.304,0.244
		c-0.062,0.182-0.122,0.426-0.122,0.73h0.426v0.304H15.59v0.062c0,0.305,0,0.548,0.122,0.73c0.061,0.183,0.183,0.244,0.304,0.244
		v0.304l0,0c-0.244,0-0.487-0.121-0.609-0.365c-0.122-0.243-0.182-0.608-0.182-1.034c0-0.487,0.061-0.854,0.182-1.097
		c0.183-0.244,0.366-0.427,0.609-0.427V31.301z"/>
	<path d="M17.112,33.311c0.061,0.121,0.183,0.183,0.244,0.243c0.122,0.062,0.183,0.062,0.304,0.062c0.122,0,0.183-0.062,0.304-0.122
		c0.062-0.062,0.122-0.183,0.122-0.305c0-0.183-0.122-0.364-0.426-0.609L17.6,32.52c-0.244-0.184-0.366-0.306-0.427-0.428
		c-0.061-0.121-0.122-0.242-0.122-0.365c0-0.242,0.061-0.364,0.183-0.487c0.183-0.182,0.305-0.243,0.548-0.243
		c0.061,0,0.122,0.061,0.244,0.061c0.061,0,0.122,0.061,0.244,0.122v0.366c-0.061-0.061-0.183-0.122-0.244-0.183
		c-0.062,0-0.183-0.062-0.244-0.062c-0.122,0-0.183,0.062-0.244,0.122c-0.122,0.062-0.122,0.183-0.122,0.243
		c0,0.184,0.122,0.366,0.366,0.609h0.061c0.244,0.183,0.366,0.365,0.487,0.486c0.061,0.122,0.061,0.244,0.061,0.427
		s-0.061,0.365-0.183,0.548c-0.122,0.122-0.305,0.183-0.548,0.183c-0.122,0-0.183,0-0.304-0.061c-0.061,0-0.183-0.061-0.244-0.122
		V33.311z"/>
	<polygon points="19.914,29.657 20.218,29.657 18.452,34.407 18.147,34.407 	"/>
	<path d="M20.522,29.718h0.305l0.974,2.862c0,0,0,0.122,0.061,0.245c0.061,0.182,0.061,0.364,0.122,0.607
		c0-0.243-0.061-0.486-0.061-0.791c0-0.244,0-0.487,0-0.791v-2.132h0.305v4.141h-0.305l-0.913-2.801
		c-0.061-0.122-0.122-0.243-0.122-0.426c-0.061-0.122-0.122-0.304-0.122-0.487c0,0.305,0.061,0.548,0.061,0.792
		c0,0.304,0,0.549,0,0.73v2.192h-0.305V29.718z"/>
	<path d="M23.628,31.301L23.628,31.301v-0.305l0,0c0.304,0,0.487,0.122,0.608,0.366c0.122,0.243,0.183,0.608,0.183,1.096
		s-0.061,0.853-0.183,1.096c-0.122,0.244-0.304,0.365-0.608,0.365l0,0v-0.304l0,0c0.183,0,0.304-0.062,0.365-0.244
		c0.061-0.243,0.122-0.487,0.122-0.913c0-0.366-0.061-0.67-0.122-0.853S23.811,31.301,23.628,31.301z M23.628,31.301
		c-0.122,0-0.244,0.122-0.305,0.305s-0.122,0.427-0.122,0.853s0.061,0.73,0.122,0.913s0.183,0.244,0.305,0.244v0.304
		c-0.244,0-0.426-0.121-0.609-0.365c-0.122-0.243-0.183-0.608-0.183-1.096s0.061-0.853,0.183-1.096
		c0.183-0.244,0.366-0.366,0.609-0.366V31.301z"/>
	<path d="M25.029,35.016l-0.304-0.122c0.182-0.426,0.365-0.853,0.487-1.34c0.122-0.426,0.182-0.913,0.182-1.34
		c0-0.487-0.061-0.975-0.182-1.4c-0.122-0.487-0.305-0.914-0.487-1.34l0.304-0.121c0.244,0.487,0.426,0.913,0.548,1.4
		c0.122,0.486,0.183,0.974,0.183,1.461c0,0.427-0.061,0.914-0.183,1.401C25.455,34.103,25.272,34.529,25.029,35.016z"/>
	<polygon points="1.522,39.279 0.914,39.279 0.914,38.914 2.558,38.914 2.558,39.279 1.949,39.279 1.949,43.055 1.522,43.055 	"/>
	<path d="M3.167,43.116l-0.731-2.862h0.365l0.366,1.645c0,0.183,0.061,0.304,0.061,0.426c0.061,0.183,0.061,0.305,0.061,0.427
		c0.061-0.183,0.122-0.427,0.122-0.61c0.061-0.183,0.061-0.304,0.122-0.364l0.305-1.522h0.365L3.228,44.15H2.862L3.167,43.116z"/>
	<path d="M5.298,42.872c0.122,0,0.243-0.121,0.304-0.304c0.061-0.122,0.122-0.428,0.122-0.853c0-0.487-0.061-0.792-0.122-0.914
		c-0.061-0.183-0.183-0.243-0.304-0.243v-0.305h0.061c0.244,0,0.426,0.121,0.548,0.305c0.122,0.243,0.182,0.608,0.182,1.096
		c0,0.548-0.061,0.914-0.182,1.097c-0.122,0.243-0.305,0.365-0.548,0.365H5.298V42.872z M5.298,42.872L5.298,42.872v0.244
		c-0.061,0-0.122,0-0.183-0.061c-0.061,0-0.183-0.062-0.244-0.184v1.34H4.567v-3.958h0.304v0.243
		c0.061-0.06,0.183-0.122,0.244-0.183c0.061-0.061,0.122-0.061,0.183-0.061v0.305l0,0c-0.183,0-0.244,0.061-0.366,0.243
		c-0.061,0.183-0.061,0.487-0.061,0.914c0,0.425,0,0.73,0.061,0.853C5.055,42.75,5.115,42.872,5.298,42.872z"/>
	<path d="M7.673,41.47c0-0.304-0.061-0.547-0.122-0.669c-0.061-0.183-0.183-0.243-0.305-0.243l0,0v-0.305l0,0
		c0.244,0,0.426,0.121,0.548,0.305c0.122,0.243,0.183,0.608,0.183,1.096v0.122H7.247V41.47H7.673L7.673,41.47z M7.247,43.116V42.81
		l0,0c0.122,0,0.183-0.06,0.244-0.182c0.122-0.122,0.122-0.244,0.122-0.488h0.365c0,0.306-0.122,0.549-0.244,0.731
		C7.612,43.055,7.429,43.116,7.247,43.116z M7.247,40.558c-0.122,0-0.244,0.061-0.304,0.243C6.82,40.923,6.82,41.167,6.759,41.47
		h0.487v0.306H6.759v0.061c0,0.304,0.061,0.548,0.122,0.731c0.122,0.183,0.183,0.242,0.365,0.242v0.306l0,0
		c-0.304,0-0.487-0.122-0.608-0.365c-0.122-0.244-0.183-0.549-0.183-1.035c0-0.487,0.061-0.854,0.183-1.097
		c0.182-0.244,0.365-0.365,0.608-0.365V40.558z"/>
	<path d="M10.292,38.548l0.366,0.121c-0.244,0.428-0.427,0.914-0.548,1.34c-0.062,0.487-0.122,0.914-0.122,1.401
		s0.061,0.913,0.122,1.399c0.121,0.428,0.304,0.854,0.548,1.28l-0.366,0.182c-0.244-0.486-0.365-0.974-0.487-1.462
		c-0.122-0.486-0.182-0.912-0.182-1.399s0.061-0.974,0.182-1.462C9.926,39.522,10.048,39.036,10.292,38.548z"/>
	<path d="M12.119,41.47c0-0.304-0.061-0.547-0.122-0.669c-0.061-0.183-0.183-0.243-0.305-0.243l0,0v-0.305l0,0
		c0.244,0,0.426,0.121,0.548,0.305c0.121,0.243,0.183,0.608,0.183,1.096v0.122h-0.731V41.47H12.119L12.119,41.47z M11.692,43.116
		V42.81l0,0c0.122,0,0.183-0.06,0.244-0.182c0.122-0.122,0.122-0.244,0.122-0.488h0.366c0,0.306-0.062,0.549-0.244,0.731
		C12.058,43.055,11.875,43.116,11.692,43.116z M11.692,40.558c-0.122,0-0.244,0.061-0.305,0.243
		c-0.122,0.122-0.122,0.365-0.183,0.669h0.487v0.306h-0.487v0.061c0,0.304,0.061,0.548,0.122,0.731
		c0.122,0.183,0.183,0.242,0.365,0.242v0.306l0,0c-0.305,0-0.487-0.122-0.609-0.365c-0.122-0.244-0.183-0.549-0.183-1.035
		c0-0.487,0.061-0.854,0.183-1.097c0.183-0.244,0.365-0.365,0.609-0.365V40.558z"/>
	<path d="M13.58,42.872L13.58,42.872c0.122,0,0.244-0.121,0.305-0.304c0.061-0.122,0.122-0.428,0.122-0.853
		c0-0.427-0.061-0.731-0.122-0.914c-0.061-0.183-0.183-0.243-0.305-0.243l0,0v-0.305c0.061,0,0.122,0,0.183,0.061
		s0.183,0.123,0.183,0.244v-1.889h0.366v4.386h-0.366V42.81c0,0.123-0.061,0.184-0.183,0.245c-0.061,0.061-0.122,0.061-0.183,0.061
		V42.872z M13.154,41.715c0,0.425,0,0.73,0.061,0.853c0.122,0.183,0.183,0.242,0.365,0.304v0.244c-0.061,0-0.061,0-0.122,0
		c-0.244,0-0.366-0.122-0.487-0.365c-0.122-0.183-0.183-0.61-0.183-1.157c0-0.487,0.061-0.792,0.183-1.035
		c0.122-0.184,0.244-0.305,0.487-0.305c0.061,0,0.061,0,0.122,0v0.305c-0.183,0-0.244,0.061-0.365,0.243
		C13.154,40.923,13.154,41.228,13.154,41.715z"/>
	<polygon points="16.077,38.852 16.382,38.852 14.615,43.602 14.311,43.602 	"/>
	<path d="M16.32,40.253h0.366l0.365,1.827c0,0.121,0.061,0.243,0.061,0.365s0.061,0.243,0.061,0.364c0-0.121,0.061-0.364,0.122-0.67
		v-0.06l0.365-1.827h0.366l-0.67,2.802H16.99L16.32,40.253z"/>
	<path d="M19,42.872L19,42.872c0.183,0,0.244-0.121,0.304-0.304c0.061-0.122,0.122-0.428,0.122-0.853
		c0-0.427-0.061-0.731-0.122-0.914c-0.061-0.183-0.121-0.243-0.304-0.243l0,0v-0.305c0.061,0,0.122,0,0.183,0.061
		c0.121,0.061,0.182,0.123,0.182,0.244v-1.889h0.366v4.386h-0.366V42.81c0,0.123-0.061,0.184-0.182,0.245
		c-0.062,0.061-0.122,0.061-0.183,0.061V42.872z M18.574,41.715c0,0.425,0.061,0.73,0.122,0.853
		c0.061,0.183,0.122,0.242,0.304,0.304v0.244h-0.061c-0.244,0-0.426-0.122-0.548-0.365c-0.122-0.183-0.183-0.61-0.183-1.157
		c0-0.487,0.061-0.792,0.183-1.035c0.122-0.184,0.305-0.305,0.548-0.305H19v0.305c-0.183,0-0.244,0.061-0.304,0.243
		C18.634,40.923,18.574,41.228,18.574,41.715z"/>
	<polygon points="21.497,38.852 21.862,38.852 20.035,43.602 19.731,43.602 	"/>
	<rect x="22.045" y="38.669" width="0.304" height="4.386"/>
	<path d="M23.689,42.872L23.689,42.872c0.183,0,0.244-0.121,0.305-0.304c0.122-0.122,0.122-0.428,0.122-0.853
		c0-0.427,0-0.731-0.122-0.914c-0.061-0.183-0.122-0.243-0.305-0.243l0,0v-0.305c0.061,0,0.122,0,0.183,0.061
		c0.122,0.061,0.183,0.123,0.243,0.244v-1.889h0.305v4.386h-0.305V42.81c-0.061,0.123-0.122,0.184-0.183,0.245
		c-0.061,0.061-0.183,0.061-0.244,0.061V42.872z M23.263,41.715c0,0.425,0.061,0.73,0.122,0.853
		c0.061,0.183,0.183,0.242,0.304,0.304v0.244h-0.061c-0.244,0-0.426-0.122-0.548-0.365c-0.122-0.183-0.183-0.61-0.183-1.157
		c0-0.487,0.061-0.792,0.183-1.035c0.122-0.184,0.305-0.305,0.548-0.305h0.061v0.305c-0.122,0-0.244,0.061-0.304,0.243
		C23.324,40.923,23.263,41.228,23.263,41.715z"/>
	<path d="M25.15,44.272l-0.304-0.182c0.244-0.427,0.366-0.853,0.487-1.28c0.122-0.486,0.183-0.912,0.183-1.399
		s-0.061-0.974-0.183-1.401c-0.122-0.426-0.244-0.912-0.487-1.34l0.304-0.121c0.244,0.487,0.426,0.974,0.548,1.4
		c0.122,0.488,0.183,0.975,0.183,1.462s-0.061,0.913-0.183,1.399C25.577,43.298,25.394,43.786,25.15,44.272z"/>
	<polygon points="12.911,49.631 13.275,49.631 13.275,53.468 14.189,53.468 14.189,53.833 12.911,53.833 	"/>
	<rect x="14.615" y="49.631" width="0.366" height="4.202"/>
	<path d="M16.93,53.407l-0.305-0.486v-0.183l0.183-0.122l0.365,0.548c0-0.122,0.061-0.305,0.061-0.548
		c0.061-0.244,0.061-0.548,0.061-0.914c0-0.608-0.061-1.034-0.183-1.34c-0.061-0.304-0.244-0.426-0.487-0.426V49.57
		c0.365,0,0.609,0.183,0.792,0.549c0.183,0.365,0.244,0.853,0.244,1.583c0,0.427,0,0.793-0.061,1.097
		c-0.061,0.243-0.122,0.487-0.244,0.67l0.304,0.426l-0.304,0.183l-0.244-0.365c-0.061,0.062-0.122,0.062-0.244,0.122
		c-0.061,0-0.122,0-0.244,0v-0.305h0.061c0,0,0.061,0,0.122-0.061C16.869,53.468,16.869,53.407,16.93,53.407z M16.625,52.92
		l-0.061-0.122l0.061-0.061V52.92L16.625,52.92z M16.625,49.936V49.57l0,0c-0.305,0-0.609,0.183-0.73,0.549
		c-0.183,0.365-0.305,0.853-0.305,1.583c0,0.731,0.122,1.279,0.305,1.645c0.122,0.365,0.426,0.487,0.73,0.487l0,0v-0.305
		c-0.183,0-0.365-0.183-0.487-0.426c-0.062-0.305-0.122-0.731-0.122-1.401c0-0.608,0.061-1.034,0.122-1.34
		C16.26,50.058,16.442,49.936,16.625,49.936L16.625,49.936z"/>
	<path d="M18.33,49.631h0.366v2.984c0,0.365,0.061,0.608,0.122,0.73c0.061,0.122,0.183,0.183,0.366,0.183
		c0.182,0,0.304-0.061,0.426-0.183c0.061-0.122,0.061-0.365,0.061-0.73v-2.984h0.426v2.984c0,0.487-0.061,0.791-0.244,0.975
		c-0.122,0.183-0.365,0.243-0.669,0.243c-0.305,0-0.549-0.061-0.67-0.243c-0.122-0.184-0.183-0.487-0.183-0.975V49.631z"/>
	<path d="M21.741,53.529c0.243,0,0.426-0.183,0.487-0.426c0.122-0.305,0.183-0.731,0.183-1.401c0-0.608-0.062-1.034-0.183-1.34
		c-0.061-0.304-0.244-0.426-0.487-0.426V49.57c0.365,0,0.608,0.183,0.792,0.549c0.183,0.365,0.243,0.853,0.243,1.583
		c0,0.731-0.061,1.279-0.243,1.645c-0.183,0.365-0.427,0.487-0.792,0.487V53.529z M21.741,49.936c-0.183,0-0.366,0.122-0.487,0.426
		c-0.061,0.306-0.122,0.731-0.122,1.34c0,0.609,0.061,1.097,0.122,1.401c0.122,0.243,0.304,0.426,0.487,0.426l0,0v0.305l0,0
		c-0.366,0-0.609-0.122-0.792-0.487c-0.122-0.365-0.244-0.913-0.244-1.645c0-0.73,0.122-1.218,0.244-1.583
		c0.183-0.366,0.426-0.549,0.792-0.549l0,0V49.936L21.741,49.936z"/>
	<path d="M24.176,51.458c0.122,0,0.244-0.061,0.304-0.122c0.062-0.122,0.122-0.305,0.122-0.608c0-0.244-0.061-0.427-0.122-0.548
		c-0.061-0.062-0.182-0.122-0.304-0.184v-0.365c0.244,0.062,0.426,0.121,0.548,0.243c0.182,0.184,0.244,0.487,0.244,0.854
		c0,0.365-0.062,0.608-0.183,0.73c-0.122,0.183-0.305,0.304-0.548,0.304l0.914,2.071h-0.426l-0.548-1.279V51.458z M23.811,49.997
		v1.522h0.183c0.061,0,0.122,0,0.183-0.061v1.096l-0.365-0.913v2.192h-0.366v-4.202h0.427c0.122,0,0.243,0,0.304,0v0.365
		c-0.061,0-0.122,0-0.183,0H23.811z"/>
	
		<rect x="28.805" y="9.866" fill-rule="evenodd" clip-rule="evenodd" fill="none" stroke="#000000" stroke-width="0.5" width="297.18" height="46.221"/>
	
		<line fill-rule="evenodd" clip-rule="evenodd" fill="none" stroke="#000000" stroke-width="0.5" x1="43.298" y1="9.926" x2="43.48" y2="56.025"/>
	
		<line fill-rule="evenodd" clip-rule="evenodd" fill="none" stroke="#000000" stroke-width="0.5" x1="36.173" y1="9.926" x2="36.356" y2="45.429"/>
	
		<line fill-rule="evenodd" clip-rule="evenodd" fill="none" stroke="#000000" stroke-width="0.5" x1="50.423" y1="9.926" x2="50.606" y2="45.429"/>
	
		<line fill-rule="evenodd" clip-rule="evenodd" fill="none" stroke="#000000" stroke-width="0.5" x1="64.734" y1="9.926" x2="64.917" y2="45.429"/>
	
		<line fill-rule="evenodd" clip-rule="evenodd" fill="none" stroke="#000000" stroke-width="0.5" x1="79.045" y1="9.926" x2="79.228" y2="45.429"/>
	
		<line fill-rule="evenodd" clip-rule="evenodd" fill="none" stroke="#000000" stroke-width="0.5" x1="93.356" y1="9.926" x2="93.539" y2="45.429"/>
	
		<line fill-rule="evenodd" clip-rule="evenodd" fill="none" stroke="#000000" stroke-width="0.5" x1="107.667" y1="9.926" x2="107.849" y2="45.429"/>
	
		<line fill-rule="evenodd" clip-rule="evenodd" fill="none" stroke="#000000" stroke-width="0.5" x1="121.917" y1="9.926" x2="122.1" y2="45.429"/>
	
		<line fill-rule="evenodd" clip-rule="evenodd" fill="none" stroke="#000000" stroke-width="0.5" x1="136.228" y1="9.926" x2="136.41" y2="45.429"/>
	
		<line fill-rule="evenodd" clip-rule="evenodd" fill="none" stroke="#000000" stroke-width="0.5" x1="150.539" y1="9.926" x2="150.721" y2="45.429"/>
	
		<line fill-rule="evenodd" clip-rule="evenodd" fill="none" stroke="#000000" stroke-width="0.5" x1="164.789" y1="9.926" x2="164.971" y2="45.429"/>
	
		<line fill-rule="evenodd" clip-rule="evenodd" fill="none" stroke="#000000" stroke-width="0.5" x1="179.1" y1="9.926" x2="179.222" y2="45.429"/>
	
		<line fill-rule="evenodd" clip-rule="evenodd" fill="none" stroke="#000000" stroke-width="0.5" x1="193.35" y1="9.926" x2="193.532" y2="45.429"/>
	
		<line fill-rule="evenodd" clip-rule="evenodd" fill="none" stroke="#000000" stroke-width="0.5" x1="207.66" y1="9.926" x2="207.843" y2="45.429"/>
	
		<line fill-rule="evenodd" clip-rule="evenodd" fill="none" stroke="#000000" stroke-width="0.5" x1="221.971" y1="9.926" x2="222.154" y2="45.429"/>
	
		<line fill-rule="evenodd" clip-rule="evenodd" fill="none" stroke="#000000" stroke-width="0.5" x1="236.282" y1="9.926" x2="236.465" y2="45.429"/>
	
		<line fill-rule="evenodd" clip-rule="evenodd" fill="none" stroke="#000000" stroke-width="0.5" x1="250.532" y1="9.926" x2="250.715" y2="45.429"/>
	
		<line fill-rule="evenodd" clip-rule="evenodd" fill="none" stroke="#000000" stroke-width="0.5" x1="264.843" y1="9.926" x2="265.025" y2="45.429"/>
	
		<line fill-rule="evenodd" clip-rule="evenodd" fill="none" stroke="#000000" stroke-width="0.5" x1="279.154" y1="9.926" x2="279.337" y2="45.429"/>
	
		<line fill-rule="evenodd" clip-rule="evenodd" fill="none" stroke="#000000" stroke-width="0.5" x1="293.465" y1="9.926" x2="293.647" y2="45.429"/>
	
		<line fill-rule="evenodd" clip-rule="evenodd" fill="none" stroke="#000000" stroke-width="0.5" x1="307.776" y1="9.926" x2="307.959" y2="45.429"/>
	
		<line fill-rule="evenodd" clip-rule="evenodd" fill="none" stroke="#000000" stroke-width="0.5" x1="322.025" y1="9.926" x2="322.209" y2="45.429"/>
	
		<line fill-rule="evenodd" clip-rule="evenodd" fill="none" stroke="#000000" stroke-width="0.5" x1="57.609" y1="9.926" x2="57.792" y2="56.025"/>
	
		<line fill-rule="evenodd" clip-rule="evenodd" fill="none" stroke="#000000" stroke-width="0.5" x1="71.92" y1="9.926" x2="72.103" y2="56.025"/>
	
		<line fill-rule="evenodd" clip-rule="evenodd" fill="none" stroke="#000000" stroke-width="0.5" x1="86.17" y1="9.926" x2="86.353" y2="56.025"/>
	
		<line fill-rule="evenodd" clip-rule="evenodd" fill="none" stroke="#000000" stroke-width="0.5" x1="100.481" y1="9.926" x2="100.664" y2="56.025"/>
	
		<line fill-rule="evenodd" clip-rule="evenodd" fill="none" stroke="#000000" stroke-width="0.5" x1="114.792" y1="9.926" x2="114.975" y2="56.025"/>
	
		<line fill-rule="evenodd" clip-rule="evenodd" fill="none" stroke="#000000" stroke-width="0.5" x1="129.103" y1="9.926" x2="129.285" y2="56.025"/>
	
		<line fill-rule="evenodd" clip-rule="evenodd" fill="none" stroke="#000000" stroke-width="2.0001" x1="143.414" y1="9.926" x2="143.596" y2="56.025"/>
	
		<line fill-rule="evenodd" clip-rule="evenodd" fill="none" stroke="#000000" stroke-width="0.5" x1="157.603" y1="9.926" x2="157.785" y2="56.025"/>
	
		<line fill-rule="evenodd" clip-rule="evenodd" fill="none" stroke="#000000" stroke-width="0.5" x1="171.913" y1="9.926" x2="172.097" y2="56.025"/>
	
		<line fill-rule="evenodd" clip-rule="evenodd" fill="none" stroke="#000000" stroke-width="0.5" x1="186.225" y1="9.926" x2="186.408" y2="56.025"/>
	
		<line fill-rule="evenodd" clip-rule="evenodd" fill="none" stroke="#000000" stroke-width="0.5" x1="200.535" y1="9.926" x2="200.719" y2="56.025"/>
	
		<line fill-rule="evenodd" clip-rule="evenodd" fill="none" stroke="#000000" stroke-width="0.5" x1="214.785" y1="9.926" x2="214.969" y2="56.025"/>
	
		<line fill-rule="evenodd" clip-rule="evenodd" fill="none" stroke="#000000" stroke-width="0.5" x1="229.097" y1="9.926" x2="229.279" y2="56.025"/>
	
		<line fill-rule="evenodd" clip-rule="evenodd" fill="none" stroke="#000000" stroke-width="0.5" x1="243.406" y1="9.926" x2="243.59" y2="56.025"/>
	
		<line fill-rule="evenodd" clip-rule="evenodd" fill="none" stroke="#000000" stroke-width="0.5" x1="257.719" y1="9.926" x2="257.9" y2="56.025"/>
	
		<line fill-rule="evenodd" clip-rule="evenodd" fill="none" stroke="#000000" stroke-width="0.5" x1="272.029" y1="9.926" x2="272.212" y2="56.025"/>
	
		<line fill-rule="evenodd" clip-rule="evenodd" fill="none" stroke="#000000" stroke-width="0.5" x1="286.279" y1="9.926" x2="286.462" y2="56.025"/>
	
		<line fill-rule="evenodd" clip-rule="evenodd" fill="none" stroke="#000000" stroke-width="0.5" x1="300.591" y1="9.926" x2="300.772" y2="56.025"/>
	
		<line fill-rule="evenodd" clip-rule="evenodd" fill="none" stroke="#000000" stroke-width="0.5" x1="314.901" y1="9.926" x2="315.083" y2="56.025"/>
	
		<line fill-rule="evenodd" clip-rule="evenodd" fill="none" stroke="#000000" stroke-width="0.5" x1="28.987" y1="21.801" x2="325.984" y2="21.68"/>
	
		<line fill-rule="evenodd" clip-rule="evenodd" fill="none" stroke="#000000" stroke-width="0.5" x1="28.865" y1="34.956" x2="325.863" y2="34.833"/>
	
		<line fill-rule="evenodd" clip-rule="evenodd" fill="none" stroke="#000000" stroke-width="0.5" x1="28.987" y1="45.673" x2="325.984" y2="45.491"/>
	
		<rect x="114.792" y="2.619" fill-rule="evenodd" clip-rule="evenodd" fill="none" stroke="#000000" stroke-width="0.5" width="14.312" height="7.247"/>
	<rect x="116.375" fill-rule="evenodd" clip-rule="evenodd" fill="#FFFFFF" width="11.145" height="4.811"/>
	<polygon points="117.593,0.853 117.045,0.853 117.106,0.487 117.958,0.487 117.958,4.689 117.593,4.689 	"/>
	<path d="M120.333,0.244h0.365v1.888c0.061-0.122,0.122-0.183,0.183-0.244c0.122-0.061,0.244-0.061,0.366-0.061
		c0.183,0,0.304,0.061,0.426,0.183c0.061,0.183,0.122,0.365,0.122,0.73v1.949h-0.365V2.68c0-0.244,0-0.366-0.061-0.487
		c-0.061-0.061-0.122-0.122-0.244-0.122c-0.183,0-0.244,0.061-0.365,0.183c-0.061,0.122-0.061,0.304-0.061,0.548v1.888h-0.365V0.244
		z"/>
	<path d="M123.074,2.07L123.074,2.07V1.827l0,0c0.244,0,0.487,0.122,0.609,0.365c0.122,0.244,0.183,0.609,0.183,1.035
		c0,0.487-0.061,0.853-0.183,1.096c-0.122,0.244-0.365,0.365-0.609,0.365l0,0V4.445l0,0c0.122,0,0.244-0.122,0.305-0.304
		c0.122-0.183,0.122-0.487,0.122-0.853c0-0.426,0-0.731-0.122-0.914C123.317,2.192,123.195,2.07,123.074,2.07z M123.074,2.07
		c-0.183,0.061-0.243,0.122-0.365,0.305c-0.061,0.183-0.061,0.487-0.061,0.853c0,0.426,0,0.73,0.061,0.914
		c0.122,0.183,0.183,0.304,0.365,0.304v0.244c-0.243,0-0.487-0.122-0.609-0.365c-0.122-0.244-0.183-0.609-0.183-1.096
		c0-0.426,0.062-0.792,0.183-1.035c0.122-0.244,0.366-0.365,0.609-0.365V2.07z"/>
	<path d="M124.353,1.888h0.366v1.827c0,0.243,0,0.426,0.061,0.548c0.061,0.061,0.183,0.122,0.305,0.122
		c0.183,0,0.244-0.061,0.305-0.122c0.061-0.122,0.122-0.305,0.122-0.548V1.888h0.305v1.888c0,0.304-0.061,0.548-0.183,0.731
		c-0.122,0.121-0.305,0.182-0.548,0.182s-0.426-0.061-0.548-0.182c-0.122-0.183-0.183-0.427-0.183-0.731V1.888z"/>
	<path d="M126.484,1.888h0.305v0.366c0.061-0.122,0.122-0.244,0.244-0.305c0.061-0.061,0.122-0.122,0.244-0.122v0.365
		c-0.183,0-0.305,0.061-0.366,0.183c-0.061,0.122-0.122,0.305-0.122,0.609v1.705h-0.305V1.888z"/>
	<line fill="none" stroke="#FFFFFF" stroke-width="2.0001" x1="325.984" y1="8.952" x2="325.984" y2="57.974"/>
	<path d="M36.478,49.631c-0.183,0-0.244-0.062-0.365-0.243c-0.061-0.122-0.122-0.183-0.122-0.183c-0.061,0-0.183-0.062-0.365-0.062
		c-0.305,0-0.67,0.184-1.096,0.73c-0.487,0.609-0.792,1.28-0.792,1.827c0,0.305,0.122,0.549,0.305,0.793
		c0.182,0.182,0.365,0.304,0.669,0.304c0.244,0,0.426-0.061,0.67-0.183c0.122-0.062,0.366-0.183,0.609-0.427
		c0.122-0.061,0.244-0.121,0.305-0.121s0.183,0.061,0.243,0.121C36.6,52.25,36.6,52.311,36.6,52.433
		c0,0.121-0.062,0.183-0.122,0.243c-0.609,0.548-1.157,0.792-1.766,0.792c-0.487,0-0.853-0.183-1.157-0.548
		c-0.305-0.305-0.487-0.731-0.487-1.219c0-0.73,0.305-1.521,0.975-2.313c0.487-0.548,1.035-0.914,1.583-0.914
		c0.122,0,0.183,0,0.305,0c0.061,0.062,0.122,0.062,0.183,0.062c0.122-0.123,0.183-0.183,0.305-0.183
		c0.183,0,0.304,0.121,0.304,0.304c0.061,0.184,0.061,0.426,0.061,0.609c0,0.122,0,0.183-0.061,0.244
		C36.66,49.631,36.538,49.631,36.478,49.631z"/>
	<path d="M80.263,50.362c-0.182,0-0.304-0.061-0.365-0.243c-0.061-0.122-0.122-0.244-0.183-0.244c0-0.06-0.122-0.06-0.304-0.06
		c-0.366,0-0.67,0.243-1.097,0.729c-0.548,0.67-0.792,1.34-0.792,1.889c0,0.305,0.122,0.548,0.305,0.73
		c0.183,0.243,0.365,0.365,0.67,0.365c0.243,0,0.426-0.061,0.67-0.183c0.122-0.061,0.304-0.183,0.608-0.426
		c0.122-0.062,0.244-0.122,0.305-0.122c0.061,0,0.121,0.061,0.182,0.122c0.122,0.061,0.122,0.121,0.122,0.243
		c0,0.061-0.061,0.183-0.122,0.243c-0.609,0.549-1.157,0.792-1.766,0.792c-0.487,0-0.853-0.183-1.157-0.548
		c-0.304-0.305-0.487-0.73-0.487-1.218c0-0.731,0.305-1.522,0.975-2.314c0.487-0.67,1.035-0.913,1.583-0.913
		c0.121,0,0.183,0,0.304,0c0.061,0,0.122,0,0.183,0c0.122-0.062,0.183-0.123,0.304-0.123c0.183,0,0.244,0.123,0.305,0.245
		c0.061,0.183,0.061,0.425,0.061,0.669c0,0.122,0,0.184-0.061,0.244C80.445,50.362,80.324,50.362,80.263,50.362z"/>
	<path d="M150.843,49.388c-0.183,0-0.243-0.061-0.304-0.183c-0.061-0.123-0.122-0.244-0.183-0.244
		c-0.061-0.061-0.183-0.061-0.365-0.061c-0.305,0-0.67,0.243-1.096,0.669c-0.487,0.671-0.792,1.28-0.792,1.889
		c0,0.304,0.122,0.548,0.305,0.73c0.183,0.244,0.426,0.306,0.67,0.306s0.487-0.062,0.67-0.123c0.122-0.121,0.365-0.243,0.609-0.426
		c0.122-0.062,0.244-0.122,0.304-0.122c0.061,0,0.183,0,0.244,0.122c0.061,0.061,0.061,0.122,0.061,0.243
		c0,0.062,0,0.183-0.122,0.244c-0.548,0.487-1.157,0.791-1.766,0.791c-0.426,0-0.853-0.183-1.157-0.548
		c-0.305-0.365-0.487-0.73-0.487-1.218c0-0.73,0.365-1.522,0.974-2.253c0.548-0.67,1.035-0.976,1.583-0.976c0.122,0,0.182,0,0.304,0
		c0.061,0,0.183,0,0.244,0.062c0.061-0.121,0.183-0.183,0.304-0.183c0.122,0,0.244,0.121,0.244,0.304
		c0.061,0.184,0.061,0.428,0.061,0.67c0,0.062,0,0.123-0.061,0.184C151.026,49.328,150.965,49.388,150.843,49.388z"/>
	<path d="M180.743,53.103c-0.121,0-0.182-0.062-0.304-0.183c-0.061-0.122-0.122-0.305-0.122-0.549l-0.122-0.548
		c-0.122-0.365-0.243-1.156-0.486-2.375l-0.609,2.01l-0.244,0.609c-0.06,0.304-0.122,0.486-0.243,0.67
		c-0.062,0.121-0.183,0.243-0.365,0.243c-0.122,0-0.243-0.061-0.305-0.243c-0.061-0.062-0.122-0.184-0.122-0.366l-0.122-0.365
		c-0.242-0.792-0.426-1.584-0.608-2.496l-0.122,0.608l-0.426,1.766c0,0.184-0.061,0.487-0.122,0.914
		c-0.061,0.122-0.183,0.243-0.365,0.243c-0.122,0-0.183-0.061-0.243-0.121c-0.062-0.062-0.062-0.122-0.062-0.244
		c0-0.365,0.062-0.853,0.183-1.34l0.365-1.34l0.244-1.035c0.061-0.487,0.182-0.791,0.305-0.975c0.061-0.121,0.182-0.183,0.305-0.183
		c0.121,0,0.242,0.122,0.305,0.244c0.121,0.243,0.182,0.608,0.304,1.157c0.122,0.73,0.304,1.522,0.548,2.375
		c0.305-0.853,0.609-1.766,0.853-2.619l0.122-0.487c0-0.183,0.061-0.365,0.121-0.426c0.122-0.183,0.245-0.305,0.366-0.305
		c0.183,0,0.366,0.243,0.426,0.609c0.062,0.121,0.062,0.365,0.122,0.729c0.122,0.976,0.305,1.828,0.487,2.559l0.183,0.548
		c0.062,0.306,0.122,0.487,0.122,0.549c0,0.121,0,0.183-0.122,0.243C180.927,53.042,180.865,53.103,180.743,53.103z"/>
	<path d="M35.016,32.762c0,0.062-0.061,0.244-0.061,0.487c-0.061,0.244-0.183,0.366-0.365,0.366c-0.122,0-0.244-0.062-0.426-0.244
		c-0.914-0.852-1.949-2.07-3.106-3.714v0.792v0.731c0,0.183,0,0.487,0,0.853c0,0.364,0,0.608,0,0.792
		c0,0.607-0.061,0.912-0.305,0.912c-0.122,0-0.244-0.06-0.304-0.121c-0.061-0.062-0.061-0.122-0.061-0.244c0-0.061,0-0.243,0-0.426
		c0-0.184,0-0.305,0-0.426c0-0.123,0-0.306,0-0.61c0.061-0.243,0.061-0.486,0.061-0.608c0-0.122,0-0.365,0-0.67
		c-0.061-0.304-0.061-0.487-0.061-0.67c0-0.122,0-0.365,0-0.608c-0.061-0.305-0.061-0.488-0.061-0.609
		c0-0.122,0.061-0.244,0.122-0.304c0.122-0.062,0.183-0.122,0.304-0.122c0.122,0,0.244,0.122,0.426,0.366
		c0.548,0.852,1.036,1.522,1.462,2.07c0.548,0.67,1.096,1.279,1.705,1.888c0-0.121,0-0.244,0-0.427v-0.426
		c0-0.974,0-1.766-0.122-2.314c0-0.061,0-0.183-0.061-0.365c-0.061-0.122-0.061-0.244-0.061-0.366c0-0.244,0.122-0.366,0.365-0.366
		c0.366,0,0.548,0.731,0.548,2.132c0,0.244,0,0.67,0,1.157C35.016,32.154,35.016,32.52,35.016,32.762z"/>
	<path d="M49.51,32.336c0,0.122-0.061,0.243-0.061,0.548c-0.061,0.183-0.183,0.305-0.366,0.305c-0.121,0-0.243-0.061-0.426-0.243
		c-0.914-0.854-1.949-2.071-3.106-3.715v0.792v0.731c0,0.183,0,0.486,0,0.853c0,0.365,0,0.608,0,0.853
		c0,0.548-0.061,0.853-0.304,0.853c-0.122,0-0.244,0-0.305-0.122c-0.061-0.061-0.061-0.122-0.061-0.243c0-0.062,0-0.244,0-0.426
		c0-0.184,0-0.306,0-0.428c0-0.121,0-0.304,0-0.607c0.061-0.245,0.061-0.488,0.061-0.61s0-0.365,0-0.67
		c-0.061-0.304-0.061-0.487-0.061-0.67c0-0.122,0-0.304,0-0.609c-0.061-0.243-0.061-0.487-0.061-0.609
		c0-0.122,0.061-0.183,0.122-0.304c0.122-0.061,0.183-0.122,0.305-0.122c0.122,0,0.243,0.122,0.426,0.365
		c0.548,0.853,1.035,1.522,1.461,2.071c0.548,0.669,1.096,1.279,1.705,1.887c0-0.122,0-0.243,0-0.426v-0.426
		c0-0.975,0-1.767-0.122-2.315c0-0.061,0-0.183-0.061-0.365c-0.061-0.122-0.061-0.244-0.061-0.366c0-0.244,0.122-0.365,0.366-0.365
		c0.365,0,0.548,0.731,0.548,2.192c0,0.244,0,0.609,0,1.096C49.51,31.727,49.51,32.092,49.51,32.336z"/>
	<path d="M64.003,32.458c0,0.121-0.061,0.304-0.061,0.548c-0.061,0.243-0.183,0.365-0.365,0.365c-0.122,0-0.244-0.122-0.426-0.243
		c-0.914-0.853-1.888-2.132-3.045-3.715l-0.061,0.73v0.792c0,0.183,0,0.427,0,0.791c0,0.365,0.061,0.67,0.061,0.853
		c0,0.609-0.122,0.914-0.366,0.914c-0.122,0-0.244-0.062-0.304-0.122c-0.061-0.061-0.061-0.183-0.061-0.243c0-0.122,0-0.244,0-0.427
		c0-0.182,0-0.365,0-0.426c0-0.122,0-0.366,0.061-0.609c0-0.304,0-0.487,0-0.609c0-0.183,0-0.365,0-0.67
		c0-0.304-0.061-0.548-0.061-0.67c0-0.183,0-0.365,0-0.608c-0.061-0.305-0.061-0.488-0.061-0.67c0-0.062,0.061-0.183,0.122-0.244
		c0.122-0.122,0.183-0.122,0.304-0.122c0.122,0,0.244,0.122,0.426,0.366c0.548,0.852,1.036,1.522,1.461,2.07
		c0.548,0.67,1.097,1.279,1.706,1.827c0.061-0.061,0.061-0.183,0-0.365v-0.426c0-0.975,0-1.767-0.122-2.375
		c0-0.061,0-0.122-0.061-0.305c-0.061-0.182-0.061-0.304-0.061-0.365c0-0.244,0.122-0.366,0.365-0.366
		c0.366,0,0.548,0.67,0.548,2.132c0,0.244,0,0.609,0,1.097C64.003,31.85,64.003,32.214,64.003,32.458z"/>
	<path d="M77.949,32.033c0,0.121-0.061,0.304-0.061,0.547c-0.061,0.245-0.183,0.366-0.365,0.366c-0.122,0-0.243-0.121-0.426-0.244
		c-0.914-0.852-1.949-2.131-3.106-3.714v0.73v0.792c0,0.183,0,0.426,0,0.792c0,0.426,0,0.67,0,0.853
		c0,0.608-0.061,0.913-0.304,0.913c-0.122,0-0.244-0.061-0.305-0.121c-0.061-0.062-0.061-0.184-0.061-0.244c0-0.122,0-0.243,0-0.426
		c0-0.184,0-0.305,0-0.426c0-0.123,0-0.365,0-0.61c0.061-0.304,0.061-0.486,0.061-0.608c0-0.183,0-0.365,0-0.67
		c-0.061-0.304-0.061-0.548-0.061-0.67c0-0.122,0-0.365,0-0.608c-0.062-0.305-0.062-0.487-0.062-0.67
		c0-0.061,0.062-0.183,0.122-0.244c0.122-0.122,0.183-0.122,0.305-0.122c0.122,0,0.243,0.122,0.426,0.366
		c0.548,0.852,1.035,1.522,1.461,2.07c0.548,0.67,1.096,1.279,1.706,1.888c0-0.121,0-0.244,0-0.426v-0.427
		c0-0.975,0-1.766-0.122-2.314c0-0.061,0-0.183-0.061-0.365c-0.061-0.183-0.061-0.305-0.061-0.366c0-0.244,0.122-0.365,0.365-0.365
		c0.366,0,0.548,0.669,0.548,2.131c0,0.244,0,0.609,0,1.096S77.949,31.789,77.949,32.033z"/>
	<path d="M92.382,32.214c0,0.122,0,0.306,0,0.548c-0.062,0.184-0.183,0.305-0.366,0.305c-0.122,0-0.244-0.061-0.426-0.242
		c-0.914-0.854-1.949-2.071-3.106-3.715v0.792v0.73c0,0.183,0,0.487,0,0.854c0,0.365,0,0.669,0,0.852
		c0,0.548-0.122,0.853-0.304,0.853c-0.122,0-0.244,0-0.305-0.122c-0.061-0.061-0.122-0.121-0.122-0.242
		c0-0.062,0.061-0.245,0.061-0.428s0-0.305,0-0.426s0-0.305,0-0.608c0-0.244,0.061-0.488,0.061-0.609c0-0.122,0-0.366-0.061-0.67
		c0-0.305,0-0.487,0-0.67c0-0.122,0-0.304,0-0.609c-0.061-0.243-0.061-0.487-0.061-0.608c0-0.122,0.061-0.183,0.122-0.305
		c0.061-0.061,0.183-0.122,0.305-0.122c0.122,0,0.244,0.122,0.426,0.426c0.548,0.792,1.036,1.461,1.462,2.009
		c0.548,0.67,1.096,1.28,1.705,1.887c0-0.121,0-0.242,0-0.426V31.24c0-0.974-0.061-1.766-0.122-2.313c0-0.061,0-0.183-0.061-0.365
		c-0.061-0.122-0.061-0.244-0.061-0.365c0-0.244,0.122-0.366,0.305-0.366c0.426,0,0.609,0.731,0.609,2.192c0,0.244,0,0.609,0,1.096
		S92.382,31.971,92.382,32.214z"/>
	<path d="M149.747,31.24c0,0.123-0.061,0.306-0.061,0.549c-0.061,0.244-0.183,0.304-0.365,0.304c-0.122,0-0.244-0.06-0.426-0.242
		c-0.914-0.854-1.949-2.071-3.106-3.654v0.73v0.792c0,0.183,0,0.426,0,0.792c0,0.365,0,0.67,0,0.853
		c0,0.608-0.061,0.913-0.305,0.913c-0.122,0-0.244-0.062-0.304-0.122c-0.061-0.062-0.061-0.183-0.061-0.244c0-0.121,0-0.243,0-0.425
		c0-0.184,0-0.366,0-0.427c0-0.183,0-0.365,0-0.609c0.061-0.305,0.061-0.487,0.061-0.67c0-0.122,0-0.365-0.061-0.609
		c0-0.305,0-0.548,0-0.67c0-0.183,0-0.366,0-0.67c-0.061-0.244-0.061-0.487-0.061-0.609c0-0.122,0.061-0.183,0.122-0.244
		c0.122-0.122,0.183-0.183,0.304-0.183c0.122,0,0.244,0.183,0.426,0.426c0.548,0.792,1.035,1.522,1.461,2.07
		c0.549,0.609,1.097,1.279,1.706,1.827c0-0.061,0-0.244,0-0.426v-0.426c0-0.975,0-1.705-0.122-2.314c0-0.061,0-0.183-0.061-0.305
		c-0.061-0.183-0.061-0.304-0.061-0.365c0-0.305,0.122-0.426,0.305-0.426c0.426,0,0.609,0.73,0.609,2.192c0,0.244,0,0.609,0,1.096
		C149.747,30.631,149.747,30.997,149.747,31.24z"/>
	<path d="M156.141,28.561c-0.061,0.061-0.122,0.183-0.183,0.365l-0.548,1.401c-0.244,0.548-0.427,1.036-0.67,1.4l-0.366,0.731
		l-0.183,0.366c-0.061,0.121-0.183,0.242-0.243,0.242c-0.062,0-0.183-0.061-0.244-0.121c-0.062-0.062-0.122-0.121-0.122-0.244
		c0-0.061,0.122-0.305,0.366-0.73l0.304-0.731c-0.304-0.486-0.548-0.913-0.67-1.217c-0.122-0.244-0.304-0.548-0.487-0.913
		c-0.366-0.488-0.548-0.731-0.609-0.853c0-0.061,0-0.122,0-0.183s0-0.183,0.061-0.244c0.061-0.061,0.182-0.061,0.244-0.061
		c0.122,0,0.182,0,0.304,0.122l0.244,0.426c0.244,0.366,0.366,0.548,0.426,0.73c0.183,0.244,0.244,0.487,0.365,0.731
		c0.061,0.183,0.244,0.426,0.426,0.731l0.792-1.827c0.061-0.183,0.183-0.366,0.365-0.731c0.061-0.122,0.122-0.183,0.305-0.183
		c0.061,0,0.122,0,0.244,0.061c0.061,0.061,0.061,0.122,0.061,0.244C156.324,28.196,156.263,28.317,156.141,28.561z"/>
	<path d="M163.388,28.5c-0.061,0.122-0.122,0.244-0.243,0.426l-0.548,1.401c-0.243,0.548-0.426,0.974-0.609,1.4l-0.426,0.731
		l-0.183,0.366c-0.061,0.121-0.122,0.182-0.244,0.182c-0.122,0-0.183,0-0.244-0.122c-0.061-0.06-0.122-0.122-0.122-0.183
		c0-0.122,0.122-0.365,0.304-0.73l0.426-0.731c-0.426-0.547-0.67-0.913-0.792-1.217c-0.061-0.244-0.244-0.548-0.487-0.913
		c-0.305-0.488-0.487-0.792-0.549-0.853c-0.061-0.061-0.061-0.122-0.061-0.183c0-0.122,0.061-0.183,0.122-0.244
		c0.061-0.061,0.122-0.122,0.243-0.122c0.061,0,0.183,0.061,0.244,0.183l0.243,0.365c0.244,0.365,0.426,0.609,0.487,0.731
		c0.183,0.304,0.304,0.548,0.365,0.792c0.122,0.183,0.244,0.426,0.487,0.731l0.731-1.888c0.122-0.122,0.244-0.365,0.365-0.669
		c0.061-0.183,0.183-0.244,0.304-0.244c0.122,0,0.183,0.061,0.244,0.122c0.061,0.061,0.122,0.122,0.122,0.244
		C163.571,28.134,163.51,28.317,163.388,28.5z"/>
	<path d="M170.574,27.647c-0.062,0.122-0.123,0.244-0.183,0.426l-0.548,1.4c-0.244,0.487-0.427,0.975-0.671,1.401l-0.365,0.731
		l-0.183,0.365c-0.061,0.121-0.183,0.183-0.305,0.183c-0.061,0-0.183-0.062-0.243-0.121c-0.062-0.062-0.122-0.123-0.122-0.244
		c0-0.062,0.122-0.304,0.365-0.67l0.365-0.792c-0.365-0.487-0.608-0.914-0.73-1.157c-0.122-0.305-0.304-0.609-0.487-0.914
		c-0.365-0.487-0.548-0.792-0.609-0.913c0-0.061,0-0.122,0-0.183c0-0.061,0-0.122,0.061-0.183c0.061-0.122,0.183-0.122,0.244-0.122
		c0.121,0,0.183,0.061,0.305,0.122l0.244,0.426c0.243,0.366,0.365,0.609,0.426,0.73c0.183,0.244,0.305,0.549,0.427,0.731
		c0.061,0.183,0.243,0.488,0.426,0.792l0.791-1.888c0.062-0.122,0.184-0.366,0.366-0.67c0.061-0.183,0.122-0.244,0.304-0.244
		c0.062,0,0.123,0,0.184,0.061c0.122,0.122,0.122,0.183,0.122,0.244C170.757,27.282,170.695,27.465,170.574,27.647z"/>
	<path d="M178.125,27.404c-0.062,0.061-0.121,0.183-0.183,0.366l-0.549,1.4c-0.242,0.548-0.426,1.035-0.67,1.401l-0.364,0.73
		l-0.183,0.365c-0.062,0.122-0.183,0.184-0.305,0.184c-0.061,0-0.183,0-0.244-0.062c-0.061-0.062-0.121-0.183-0.121-0.243
		s0.121-0.306,0.365-0.731l0.365-0.731c-0.365-0.548-0.609-0.914-0.73-1.218c-0.122-0.244-0.305-0.548-0.487-0.913
		c-0.365-0.487-0.549-0.731-0.609-0.853c0-0.061,0-0.122,0-0.183c0-0.122,0-0.183,0.061-0.243c0.062-0.061,0.184-0.122,0.244-0.122
		c0.122,0,0.182,0.061,0.305,0.183l0.243,0.426c0.244,0.305,0.365,0.548,0.427,0.67c0.183,0.304,0.305,0.548,0.426,0.792
		c0.062,0.183,0.183,0.426,0.427,0.731l0.792-1.827c0.06-0.183,0.183-0.426,0.364-0.731c0.062-0.122,0.122-0.244,0.306-0.244
		c0.06,0,0.121,0.061,0.182,0.122c0.122,0.061,0.122,0.122,0.122,0.243C178.308,27.039,178.247,27.16,178.125,27.404z"/>
	<path d="M163.023,37.33c-0.062,0-0.062,0-0.122-0.06c-0.365-0.062-0.731-0.122-1.097-0.122c-0.182,0-0.365,0-0.548,0.061
		c-0.244,0-0.487,0.062-0.73,0.121c0,0.123,0.061,0.244,0.061,0.366c0,0.304-0.061,0.73-0.061,1.278l1.461-0.182
		c0.426,0,0.67-0.062,0.792-0.062c0.061,0,0.182,0.062,0.244,0.121c0.061,0.062,0.061,0.122,0.061,0.245
		c0,0.182-0.061,0.304-0.304,0.304l-0.792,0.121l-1.522,0.122c0,0.122,0,0.305,0,0.427c0,0.183-0.061,0.304-0.061,0.426
		c0,0.487,0.061,0.731,0.122,0.853c0.061,0.062,0.244,0.062,0.548,0.062c0.122,0,0.305,0,0.609,0c0.304,0,0.487,0,0.609,0
		c0.061,0,0.122,0,0.183,0c0.122-0.062,0.183-0.062,0.243-0.062c0.244,0,0.305,0.121,0.305,0.366c0,0.183-0.062,0.304-0.244,0.365
		c-0.244,0-0.67,0.06-1.34,0.06c-0.731,0-1.157-0.121-1.34-0.304c-0.244-0.183-0.305-0.67-0.305-1.34c0-0.183,0-0.305,0-0.487
		s0-0.365,0-0.548c0-0.061,0-0.122,0-0.183s0-0.122,0.061-0.182c0-0.61,0.061-1.098,0.061-1.401c0-0.122-0.061-0.243-0.061-0.366
		c0-0.182,0-0.304,0-0.364c0-0.244,0.061-0.428,0.304-0.428c0.122,0,0.183,0.062,0.244,0.123c0.244-0.062,0.487-0.123,0.731-0.183
		c0.244,0,0.487-0.062,0.669-0.062c0.549,0,0.975,0.062,1.34,0.244c0.122,0.061,0.183,0.122,0.183,0.305
		c0,0.061,0,0.183-0.061,0.243C163.205,37.27,163.083,37.33,163.023,37.33z"/>
	<path d="M155.837,37.878c-0.062,0-0.062,0-0.122-0.061c-0.365-0.062-0.731-0.122-1.096-0.122c-0.183,0-0.365,0-0.548,0.061
		c-0.183,0-0.427,0.062-0.67,0.122c0.062,0.183,0.062,0.244,0.062,0.365c0,0.305-0.062,0.73-0.062,1.278l1.401-0.183
		c0.426,0,0.67-0.061,0.792-0.061c0.061,0,0.182,0.061,0.244,0.122c0.061,0.061,0.061,0.121,0.061,0.243
		c0,0.183-0.061,0.305-0.304,0.365l-0.792,0.062l-1.461,0.121c0,0.183,0,0.305,0,0.427c0,0.183,0,0.305,0,0.426
		c0,0.487,0,0.792,0.061,0.854c0.062,0.06,0.244,0.121,0.549,0.121c0.061,0,0.304,0,0.548-0.062c0.304,0,0.487,0,0.609,0
		c0.061,0,0.122,0,0.244,0c0.061,0,0.122-0.06,0.183-0.06c0.243,0,0.365,0.121,0.365,0.365c0,0.183-0.122,0.305-0.304,0.365
		c-0.244,0-0.67,0.061-1.34,0.061s-1.096-0.121-1.279-0.305c-0.244-0.183-0.304-0.608-0.304-1.34c0-0.121,0-0.304,0-0.486
		c0-0.184,0-0.366,0-0.549c0-0.061,0-0.121,0-0.121c0-0.122,0-0.184,0.061-0.244c0-0.608,0.062-1.096,0.062-1.4
		c0-0.121,0-0.183-0.062-0.365c0-0.183,0-0.305,0-0.365c0-0.243,0.062-0.427,0.305-0.427c0.122,0,0.182,0.062,0.244,0.122
		c0.243-0.061,0.548-0.122,0.67-0.183c0.243,0,0.487,0,0.669,0c0.548,0,0.975,0.061,1.34,0.183c0.122,0.062,0.183,0.121,0.183,0.305
		c0,0.061,0,0.183-0.061,0.243C156.02,37.818,155.897,37.878,155.837,37.878z"/>
	<path d="M177.638,41.228c-0.304,0.121-0.67,0.242-1.218,0.304c-0.487,0.122-0.913,0.122-1.218,0.122c-0.183,0-0.365,0-0.487-0.061
		c-0.122-0.123-0.183-0.305-0.183-0.549l0.061-1.096c0.062-0.975,0.122-2.131,0.122-3.35c0-0.121,0-0.183,0.061-0.243
		c0.062-0.061,0.121-0.122,0.244-0.122c0.122,0,0.183,0.062,0.243,0.122c0.062,0.061,0.062,0.122,0.062,0.243
		c0,1.219,0,2.375-0.062,3.41l-0.061,0.487c0,0.183,0,0.365,0,0.487c0.548,0,1.279-0.122,2.191-0.365
		c0.062-0.061,0.062-0.061,0.123-0.061s0.182,0.061,0.243,0.121c0.061,0.062,0.061,0.183,0.061,0.244
		C177.82,41.044,177.76,41.167,177.638,41.228z"/>
	<path d="M170.451,41.776c-0.243,0.122-0.67,0.243-1.217,0.305c-0.487,0.121-0.914,0.183-1.219,0.183
		c-0.183,0-0.365-0.062-0.486-0.123c-0.122-0.121-0.183-0.242-0.183-0.547l0.061-1.097c0.061-0.975,0.122-2.131,0.122-3.349
		c0-0.122,0-0.183,0.06-0.244c0.062-0.061,0.184-0.121,0.244-0.121c0.122,0,0.183,0.061,0.244,0.121
		c0.061,0.062,0.122,0.122,0.122,0.244c0,1.218-0.062,2.374-0.122,3.41l-0.062,0.486c0,0.184,0,0.366,0,0.487
		c0.609,0,1.34-0.121,2.192-0.365c0.062-0.061,0.062-0.061,0.122-0.061c0.062,0,0.183,0.061,0.244,0.122
		c0.061,0.061,0.061,0.183,0.061,0.242C170.635,41.593,170.574,41.715,170.451,41.776z"/>
	<path d="M48.596,18.696v0.487v0.548c0,0.122-0.061,0.183-0.061,0.243c0,0.061-0.061,0.122-0.183,0.122
		c-0.183,0-0.244-0.122-0.244-0.426v-0.122v-0.061c-0.061,0-0.183,0-0.365,0c-0.122,0-0.244,0-0.305,0c-0.244,0-0.548,0-0.974-0.061
		c-0.426,0-0.731-0.061-0.975,0c0.183,0.183,0.244,0.365,0.244,0.426s0,0.122-0.061,0.183c-0.062,0-0.122,0.061-0.183,0.061
		c-0.061,0-0.122-0.061-0.243-0.244c-0.061-0.061-0.183-0.183-0.305-0.365c-0.183-0.183-0.244-0.305-0.244-0.426
		s0.061-0.183,0.183-0.183c0.061,0,0.122,0,0.183,0c0.061,0,0.122,0.061,0.183,0.061c0.061,0,0.122-0.061,0.243-0.061
		s0.183,0,0.244,0c0.183,0,0.487,0.061,0.853,0.061C46.952,19,47.256,19,47.439,19c0.061,0,0.183,0,0.305,0c0.183,0,0.244,0,0.365,0
		v-0.304c0-0.061,0-0.122,0.061-0.183c0.061-0.061,0.122-0.061,0.183-0.061s0.122,0,0.183,0.061
		C48.535,18.574,48.596,18.635,48.596,18.696z"/>
	<path d="M47.5,15.711h0.914c0.122,0,0.244,0.061,0.244,0.244c0,0.183-0.122,0.244-0.366,0.244c-0.061,0-0.061,0-0.122,0
		s-0.122,0-0.122,0H47.5l-0.061,1.096c0,0.244,0,0.426,0,0.487c-0.061,0.183-0.122,0.244-0.183,0.244s-0.183-0.061-0.305-0.122
		l-0.243-0.244l-0.487-0.365v-0.548c0.304,0.183,0.548,0.366,0.73,0.487l0.061-1.035h-0.792v-0.487h0.792c0-0.061,0-0.061,0-0.122
		c0-0.305,0.061-0.487,0.244-0.487c0.122,0,0.183,0.122,0.244,0.244C47.5,15.407,47.5,15.529,47.5,15.711z M46.221,17.295
		l-1.279-0.853c-0.183-0.122-0.244-0.304-0.244-0.426c0-0.244,0.061-0.305,0.244-0.305h1.279v0.487h-0.853
		c0.305,0.183,0.609,0.366,0.853,0.548V17.295z"/>
	<path d="M48.718,13.58c0,0.427-0.183,0.792-0.487,1.035c-0.061,0-0.122,0.061-0.183,0.061c-0.061,0-0.122-0.061-0.122-0.122
		c-0.061,0-0.122-0.061-0.122-0.183c0-0.061,0.061-0.122,0.122-0.183c0.122-0.061,0.183-0.122,0.244-0.182
		c0.061-0.122,0.061-0.244,0.061-0.427c0-0.305-0.061-0.548-0.305-0.73c-0.183-0.183-0.487-0.305-0.731-0.305
		s-0.487,0.061-0.608,0.122c-0.183,0.122-0.305,0.243-0.305,0.487c0,0.183,0.062,0.305,0.062,0.426
		c0.061,0.122,0.122,0.183,0.244,0.305l0.304,0.244c0.061,0.122,0.061,0.183,0.061,0.243c0,0.061,0,0.122-0.061,0.183
		c-0.061,0.061-0.061,0.061-0.183,0.061c0,0-0.183,0-0.427-0.061c-0.487,0-0.852-0.061-1.035-0.061c-0.061,0-0.122,0-0.183,0.061
		c-0.061,0-0.122,0-0.122,0c-0.122,0-0.183-0.061-0.183-0.244c0,0,0-0.061,0-0.122c0-0.122,0.061-0.122,0.061-0.182
		c0-0.122-0.061-0.244-0.061-0.427s0-0.365,0-0.426c0-0.061,0-0.122,0-0.244c0-0.061,0-0.183,0-0.183c0-0.061,0-0.122,0-0.183
		s0-0.061,0-0.122c0-0.061,0-0.122,0.061-0.183c0.061-0.061,0.122-0.061,0.183-0.061c0.183,0,0.244,0.183,0.244,0.609
		c0,0.061,0,0.122,0,0.183c0,0.061,0,0.122,0,0.183v0.426v0.427c0.122,0,0.365,0,0.853,0.061c-0.183-0.244-0.244-0.548-0.244-0.914
		s0.122-0.67,0.426-0.853c0.183-0.183,0.549-0.244,0.914-0.244c0.426,0,0.792,0.122,1.096,0.366
		C48.596,12.728,48.718,13.093,48.718,13.58z"/>
	<path d="M34.59,18.452v0.487v0.487c0,0.122,0,0.244-0.061,0.244c0,0.122-0.061,0.122-0.183,0.122c-0.183,0-0.244-0.122-0.244-0.365
		v-0.122v-0.122c-0.061,0-0.183,0.061-0.365,0.061c-0.122,0-0.244,0-0.305,0c-0.244,0-0.548,0-0.974-0.061
		c-0.426,0-0.731-0.061-0.974-0.061c0.182,0.244,0.243,0.365,0.243,0.426c0,0.062,0,0.122-0.061,0.183
		c-0.061,0.061-0.061,0.061-0.182,0.061c-0.062,0-0.122-0.061-0.244-0.182c-0.062-0.122-0.183-0.244-0.305-0.366
		c-0.183-0.183-0.244-0.304-0.244-0.426c0-0.122,0.061-0.183,0.183-0.183c0.061,0,0.122,0,0.183,0c0.061,0,0.122,0.061,0.183,0.061
		c0.061,0,0.122-0.061,0.244-0.061c0.122,0,0.182,0,0.243,0c0.183,0,0.487,0.061,0.853,0.061c0.366,0.061,0.67,0.061,0.853,0.061
		c0.061,0,0.183,0,0.305,0c0.183,0,0.305,0,0.365-0.061v-0.244c0-0.061,0-0.122,0.061-0.183c0.061,0,0.122-0.061,0.183-0.061
		c0.061,0,0.122,0.061,0.183,0.061C34.529,18.33,34.59,18.391,34.59,18.452z"/>
	<path d="M33.494,15.529h0.914c0.122,0,0.243,0.061,0.243,0.244s-0.122,0.244-0.365,0.244c-0.062,0-0.062,0-0.122,0
		c-0.061,0-0.122,0-0.122,0h-0.548l-0.061,1.096c0,0.244,0,0.365,0,0.487c-0.061,0.122-0.061,0.183-0.183,0.183
		c-0.061,0-0.183,0-0.304-0.122l-0.244-0.183l-0.487-0.365v-0.609c0.304,0.244,0.548,0.427,0.731,0.549l0.061-1.036h-0.792v-0.487
		h0.792c0,0,0-0.061,0-0.122c0-0.305,0.061-0.426,0.244-0.426c0.122,0,0.183,0.061,0.244,0.183
		C33.494,15.225,33.494,15.346,33.494,15.529z M32.215,17.112l-1.279-0.853c-0.183-0.122-0.244-0.244-0.244-0.427
		c0-0.182,0.122-0.304,0.244-0.304h1.279v0.487h-0.853c0.304,0.183,0.609,0.365,0.853,0.487V17.112z"/>
	<path d="M34.65,13.337c0,0.487-0.243,0.852-0.67,1.096c-0.365,0.122-0.792,0.244-1.278,0.244v-0.487
		c0.487,0,0.853-0.061,1.096-0.244c0.244-0.122,0.365-0.365,0.365-0.608c0-0.366-0.183-0.609-0.548-0.792
		c-0.244-0.061-0.548-0.122-0.914-0.122v-0.487c0.609,0,1.096,0.122,1.4,0.304C34.468,12.484,34.65,12.85,34.65,13.337z
		 M32.702,14.676H32.58c-0.487,0-0.853-0.122-1.218-0.365c-0.426-0.244-0.67-0.609-0.67-1.096c0-0.426,0.183-0.731,0.609-0.975
		c0.305-0.243,0.67-0.304,1.157-0.304c0.061,0,0.183,0,0.244,0v0.487c-0.061,0-0.122,0-0.183,0c-0.426,0-0.792,0.061-0.974,0.183
		c-0.244,0.122-0.366,0.365-0.366,0.609c0,0.304,0.183,0.548,0.487,0.73c0.244,0.183,0.548,0.244,0.914,0.244c0,0,0.061,0,0.122,0
		V14.676z"/>
	<path d="M63.211,18.939v0.487v0.487c0,0.122,0,0.183,0,0.244c0,0.061-0.061,0.122-0.183,0.122c-0.183,0-0.244-0.122-0.244-0.365
		v-0.122V19.67c-0.061,0-0.183,0-0.365,0c-0.122,0.061-0.244,0.061-0.365,0.061c-0.183,0-0.487-0.061-0.914-0.061
		c-0.427-0.061-0.731-0.061-0.975-0.061c0.183,0.182,0.244,0.365,0.244,0.426s0,0.122-0.061,0.183c-0.061,0-0.122,0.061-0.183,0.061
		c-0.061,0-0.183-0.061-0.243-0.244c-0.061-0.061-0.183-0.183-0.305-0.365c-0.183-0.122-0.244-0.304-0.244-0.426
		c0-0.122,0.061-0.122,0.183-0.122c0.061,0,0.122,0,0.183,0c0.061,0,0.122,0,0.183,0c0.061,0,0.122,0,0.243,0
		c0.122,0,0.183,0,0.244,0c0.183,0,0.487,0,0.853,0.061c0.365,0,0.608,0.061,0.792,0.061c0.122,0,0.243,0,0.365-0.061
		c0.122,0,0.244,0,0.365,0v-0.243c0-0.061,0-0.122,0.061-0.183c0-0.061,0.061-0.061,0.183-0.061c0.061,0,0.122,0,0.122,0.061
		C63.211,18.817,63.211,18.878,63.211,18.939z"/>
	<path d="M62.176,16.016h0.914c0.122,0,0.183,0.061,0.183,0.183c0,0.183-0.122,0.304-0.305,0.304c-0.061,0-0.122,0-0.183,0
		l-0.061-0.061l-0.609,0.061v1.036c0,0.244,0,0.426,0,0.487c-0.061,0.183-0.122,0.244-0.182,0.244c-0.122,0-0.183-0.061-0.305-0.122
		l-0.243-0.244l-0.548-0.365V16.99c0.366,0.183,0.609,0.366,0.792,0.548l0.062-1.036h-0.853v-0.487h0.853c0-0.061,0-0.061,0-0.122
		c0-0.305,0.061-0.487,0.244-0.487c0.122,0,0.182,0.122,0.182,0.244C62.176,15.711,62.176,15.833,62.176,16.016z M60.836,17.539
		l-1.218-0.853c-0.183-0.122-0.244-0.244-0.244-0.426c0-0.183,0.061-0.244,0.244-0.244h1.218v0.487h-0.792
		c0.305,0.183,0.609,0.305,0.792,0.487V17.539z"/>
	<path d="M63.333,13.763c0,0.487-0.244,0.853-0.67,1.096c-0.366,0.183-0.792,0.244-1.279,0.305v-0.487
		c0.426-0.061,0.792-0.122,1.035-0.244c0.305-0.122,0.426-0.365,0.426-0.67c0-0.365-0.183-0.609-0.609-0.731
		c-0.244-0.122-0.548-0.182-0.853-0.182v-0.487c0.609,0.061,1.035,0.122,1.4,0.365C63.151,12.971,63.333,13.275,63.333,13.763z
		 M61.385,15.164h-0.122c-0.487,0-0.914-0.122-1.279-0.365c-0.365-0.305-0.609-0.67-0.609-1.097c0-0.426,0.183-0.792,0.548-1.035
		c0.304-0.183,0.73-0.305,1.157-0.305c0.122,0,0.183,0,0.305,0v0.487c-0.061,0-0.122,0-0.183,0c-0.426,0-0.792,0.061-1.036,0.244
		c-0.183,0.122-0.304,0.304-0.304,0.608c0,0.305,0.183,0.548,0.487,0.731c0.244,0.122,0.548,0.244,0.853,0.244
		c0.061,0,0.122,0,0.183,0V15.164z"/>
	<path d="M91.346,18.513v0.548v0.487c0,0.122,0,0.183,0,0.244c-0.061,0.061-0.122,0.122-0.244,0.122
		c-0.122,0-0.244-0.122-0.244-0.426v-0.122v-0.062c-0.061,0-0.183,0-0.304,0c-0.183,0-0.305,0-0.366,0c-0.183,0-0.548,0-0.974-0.061
		c-0.426,0-0.731,0-0.914,0c0.122,0.183,0.244,0.366,0.244,0.426c0,0.061-0.061,0.122-0.061,0.122
		c-0.061,0.061-0.122,0.122-0.183,0.122c-0.122,0-0.183-0.122-0.304-0.244c-0.061-0.061-0.183-0.183-0.305-0.366
		c-0.122-0.182-0.244-0.304-0.244-0.426c0-0.122,0.122-0.183,0.244-0.183c0,0,0.061,0,0.122,0.061c0.122,0,0.183,0,0.183,0
		c0.061,0,0.122,0,0.244,0c0.122,0,0.183-0.061,0.243-0.061c0.183,0,0.487,0.061,0.853,0.061c0.365,0.061,0.669,0.061,0.852,0.061
		c0.122,0,0.183,0,0.366,0c0.122,0,0.244,0,0.304,0v-0.305c0-0.061,0.061-0.122,0.061-0.122c0.061-0.061,0.122-0.061,0.183-0.061
		s0.122,0,0.183,0.061C91.346,18.391,91.346,18.452,91.346,18.513z"/>
	<path d="M90.25,15.59h0.913c0.183,0,0.244,0.122,0.244,0.243c0,0.183-0.122,0.244-0.365,0.244c0,0-0.061,0-0.122,0
		s-0.061,0-0.122,0H90.25l-0.061,1.096c0,0.244,0,0.366,0,0.487c0,0.122-0.061,0.244-0.183,0.244c-0.061,0-0.183-0.061-0.244-0.183
		l-0.304-0.183l-0.487-0.366v-0.548c0.304,0.183,0.548,0.365,0.792,0.487v-1.036h-0.792V15.59h0.792v-0.061
		c0-0.304,0.122-0.487,0.244-0.487c0.122,0,0.183,0.061,0.244,0.183C90.25,15.285,90.25,15.407,90.25,15.59z M88.971,17.173
		l-1.279-0.852c-0.122-0.122-0.244-0.244-0.244-0.426c0-0.183,0.122-0.305,0.244-0.305h1.279v0.487H88.18
		c0.304,0.183,0.548,0.366,0.792,0.548V17.173z"/>
	<path d="M91.468,13.397c0,0.487-0.244,0.853-0.731,1.096c-0.305,0.183-0.731,0.244-1.279,0.244V14.25
		c0.487,0,0.853-0.061,1.096-0.183c0.244-0.183,0.426-0.366,0.426-0.67c0-0.366-0.244-0.609-0.609-0.792
		c-0.244-0.061-0.548-0.122-0.914-0.122v-0.487c0.609,0,1.096,0.122,1.4,0.365C91.225,12.545,91.468,12.91,91.468,13.397z
		 M89.458,14.737h-0.061c-0.487,0-0.914-0.122-1.279-0.305c-0.426-0.304-0.609-0.67-0.609-1.096c0-0.487,0.183-0.792,0.548-1.036
		c0.305-0.244,0.67-0.304,1.157-0.304c0.061,0,0.183,0,0.244,0v0.487c-0.061,0-0.122,0-0.122,0c-0.488,0-0.792,0.061-1.036,0.183
		c-0.244,0.183-0.304,0.365-0.304,0.67c0,0.304,0.122,0.548,0.426,0.73c0.244,0.122,0.548,0.183,0.914,0.183
		c0.061,0,0.061,0,0.122,0V14.737z"/>
	<path d="M77.705,18.452v0.487v0.487c0,0.122,0,0.244-0.061,0.244c0,0.122-0.061,0.122-0.183,0.122
		c-0.122,0-0.244-0.122-0.244-0.365v-0.122v-0.122c-0.061,0-0.182,0.061-0.304,0.061c-0.183,0-0.304,0-0.365,0
		c-0.244,0-0.548,0-0.975-0.061c-0.426,0-0.731-0.061-0.975-0.061c0.183,0.244,0.305,0.365,0.305,0.426
		c0,0.062-0.061,0.122-0.122,0.183c0,0.061-0.061,0.061-0.122,0.061c-0.122,0-0.182-0.061-0.304-0.182
		c-0.061-0.122-0.183-0.244-0.305-0.366c-0.122-0.183-0.243-0.304-0.243-0.426c0-0.122,0.061-0.183,0.243-0.183c0,0,0.061,0,0.122,0
		c0.122,0,0.122,0.061,0.183,0.061c0.061,0,0.122-0.061,0.243-0.061c0.122,0,0.183,0,0.244,0c0.183,0,0.487,0.061,0.853,0.061
		c0.365,0.061,0.67,0.061,0.853,0.061c0.061,0,0.182,0,0.365,0c0.122,0,0.244,0,0.304-0.061v-0.244c0-0.061,0-0.122,0.062-0.183
		c0.061,0,0.121-0.061,0.182-0.061s0.122,0.061,0.183,0.061C77.705,18.33,77.705,18.391,77.705,18.452z"/>
	<path d="M77.827,16.503c0,0.487-0.122,0.853-0.487,1.036C77.279,17.6,77.218,17.6,77.218,17.6c-0.061,0-0.122,0-0.182-0.061
		c-0.062-0.061-0.062-0.122-0.062-0.183c0-0.061,0-0.122,0.062-0.183c0.122-0.061,0.182-0.183,0.244-0.183
		c0.061-0.122,0.121-0.244,0.121-0.487c0-0.243-0.121-0.487-0.365-0.67c-0.183-0.182-0.426-0.304-0.731-0.304
		c-0.244,0-0.426,0.061-0.609,0.122c-0.183,0.122-0.244,0.304-0.244,0.487c0,0.183,0,0.304,0.061,0.426
		c0,0.122,0.061,0.182,0.183,0.304L76,17.112c0.061,0.061,0.122,0.183,0.122,0.244c0,0.061-0.062,0.122-0.122,0.183
		c0,0-0.061,0.061-0.122,0.061c-0.061,0-0.183-0.061-0.487-0.061c-0.487-0.061-0.853-0.061-0.975-0.061c-0.061,0-0.122,0-0.244,0
		c-0.061,0.061-0.061,0.061-0.122,0.061c-0.122,0-0.183-0.061-0.183-0.244c0-0.061,0.061-0.122,0.061-0.183s0-0.122,0-0.122
		c0-0.122,0-0.244,0-0.426c0-0.183-0.061-0.366-0.061-0.426c0-0.062,0-0.122,0.061-0.244c0-0.062,0-0.122,0-0.183
		c0,0,0-0.061-0.061-0.122c0-0.061,0-0.122,0-0.122c0-0.061,0-0.122,0.061-0.183c0.061-0.061,0.122-0.061,0.183-0.061
		c0.183,0,0.244,0.183,0.244,0.548c0,0.061,0,0.122,0,0.183c0,0.122,0,0.122,0,0.183v0.426l0.061,0.365
		c0.062,0,0.305,0.061,0.792,0.122c-0.183-0.244-0.244-0.549-0.244-0.914c0-0.366,0.122-0.609,0.426-0.853
		c0.244-0.122,0.548-0.244,0.914-0.244c0.426,0,0.792,0.183,1.096,0.427C77.705,15.711,77.827,16.077,77.827,16.503z"/>
	<path d="M77.766,13.337c0,0.487-0.183,0.852-0.67,1.096c-0.304,0.122-0.73,0.244-1.279,0.244v-0.487
		c0.487,0,0.853-0.061,1.096-0.244c0.244-0.122,0.426-0.365,0.426-0.608c0-0.366-0.244-0.609-0.609-0.792
		c-0.243-0.061-0.548-0.122-0.913-0.122v-0.487c0.609,0,1.096,0.122,1.4,0.304C77.583,12.484,77.766,12.85,77.766,13.337z
		 M75.817,14.676h-0.122c-0.427,0-0.853-0.122-1.218-0.365c-0.427-0.244-0.609-0.609-0.609-1.096c0-0.426,0.183-0.731,0.548-0.975
		c0.305-0.243,0.67-0.304,1.157-0.304c0.061,0,0.183,0,0.244,0v0.487c-0.061,0-0.122,0-0.183,0c-0.426,0-0.731,0.061-0.975,0.183
		c-0.244,0.122-0.365,0.365-0.365,0.609c0,0.304,0.183,0.548,0.487,0.73c0.244,0.183,0.548,0.244,0.914,0.244
		c0.061,0,0.061,0,0.122,0V14.676z"/>
	<path d="M149.625,18.452v0.487v0.487c0,0.122,0,0.183-0.061,0.244c0,0.061-0.061,0.122-0.183,0.122
		c-0.122,0-0.243-0.122-0.243-0.365v-0.122v-0.122c-0.061,0-0.183,0-0.305,0c-0.183,0.061-0.305,0.061-0.365,0.061
		c-0.244,0-0.548-0.061-0.975-0.061c-0.426-0.061-0.73-0.061-0.974-0.061c0.182,0.244,0.304,0.365,0.304,0.426
		c0,0.062-0.061,0.122-0.122,0.183c0,0-0.061,0.061-0.122,0.061c-0.122,0-0.183-0.061-0.304-0.244
		c-0.061-0.061-0.183-0.182-0.305-0.365c-0.122-0.122-0.244-0.304-0.244-0.426c0-0.122,0.061-0.122,0.183-0.122
		c0.061,0,0.122,0,0.183,0c0.122,0,0.122,0,0.183,0s0.122,0,0.244,0c0.122,0,0.182,0,0.244,0c0.182,0,0.487,0,0.852,0.061
		c0.366,0,0.67,0.061,0.853,0.061c0.061,0,0.183,0,0.365-0.061c0.122,0,0.244,0,0.305,0v-0.244c0-0.061,0-0.122,0.061-0.183
		c0.061-0.061,0.122-0.061,0.183-0.061c0.061,0,0.122,0,0.183,0.061C149.564,18.33,149.625,18.391,149.625,18.452z"/>
	<path d="M148.529,15.529h0.914c0.183,0,0.244,0.061,0.244,0.183c0,0.183-0.122,0.305-0.365,0.305c-0.061,0-0.061,0-0.122,0
		c-0.061,0-0.122,0-0.122,0h-0.548l-0.061,1.096c0,0.183,0,0.365,0,0.426c0,0.183-0.061,0.244-0.183,0.244
		c-0.061,0-0.183-0.061-0.304-0.122l-0.244-0.244l-0.487-0.365v-0.549c0.304,0.183,0.548,0.366,0.791,0.549v-1.036h-0.791v-0.487
		h0.791c0-0.061,0-0.061,0-0.122c0-0.305,0.061-0.426,0.244-0.426c0.122,0,0.183,0.061,0.244,0.183
		C148.529,15.225,148.529,15.346,148.529,15.529z M147.25,17.052l-1.279-0.853c-0.122-0.122-0.244-0.244-0.244-0.426
		s0.122-0.244,0.244-0.244h1.279v0.487h-0.792c0.243,0.183,0.548,0.305,0.792,0.487V17.052z"/>
	<path d="M149.686,13.275c0,0.487-0.183,0.853-0.67,1.096c-0.305,0.183-0.731,0.244-1.279,0.305v-0.487
		c0.487-0.061,0.853-0.122,1.096-0.244c0.244-0.122,0.426-0.365,0.426-0.67c0-0.365-0.244-0.608-0.609-0.73
		c-0.244-0.122-0.548-0.183-0.914-0.183v-0.487c0.609,0.061,1.096,0.122,1.401,0.365C149.503,12.484,149.686,12.789,149.686,13.275z
		 M147.737,14.676h-0.122c-0.426,0-0.852-0.122-1.218-0.365c-0.426-0.244-0.609-0.609-0.609-1.096c0-0.426,0.183-0.792,0.548-1.035
		c0.304-0.183,0.67-0.305,1.157-0.305c0.061,0,0.183,0,0.244,0v0.487c-0.061,0-0.122,0-0.183,0c-0.426,0-0.731,0.061-0.975,0.244
		c-0.243,0.122-0.365,0.304-0.365,0.609c0,0.304,0.183,0.548,0.487,0.73c0.244,0.122,0.549,0.244,0.914,0.244c0,0,0.062,0,0.122,0
		V14.676z"/>
	<path d="M155.715,18.452v0.487v0.487c0,0.122,0,0.183,0,0.244c-0.061,0.061-0.122,0.122-0.244,0.122
		c-0.122,0-0.244-0.122-0.244-0.365v-0.122l0.061-0.122c-0.122,0-0.244,0-0.365,0c-0.183,0.061-0.305,0.061-0.366,0.061
		c-0.183,0-0.548-0.061-0.914-0.061c-0.426-0.061-0.73-0.061-0.914-0.061c0.122,0.244,0.244,0.365,0.244,0.426
		c0,0.062-0.061,0.122-0.061,0.183c-0.061,0-0.122,0.061-0.183,0.061c-0.121,0-0.182-0.061-0.304-0.244
		c-0.061-0.061-0.183-0.182-0.304-0.365c-0.122-0.122-0.183-0.304-0.183-0.426c0-0.122,0.061-0.122,0.183-0.122c0,0,0.061,0,0.122,0
		c0.122,0,0.183,0,0.183,0c0.061,0,0.122,0,0.244,0c0.122,0,0.183,0,0.244,0c0.183,0,0.487,0,0.853,0.061
		c0.305,0,0.609,0.061,0.792,0.061c0.122,0,0.183,0,0.366-0.061c0.122,0,0.244,0,0.304,0v-0.244c0-0.061,0.061-0.122,0.061-0.183
		c0.061-0.061,0.122-0.061,0.183-0.061c0.061,0,0.122,0,0.183,0.061C155.715,18.33,155.715,18.391,155.715,18.452z"/>
	<path d="M154.619,15.529h0.914c0.183,0,0.243,0.061,0.243,0.183c0,0.183-0.122,0.305-0.365,0.305c0,0-0.061,0-0.122,0
		s-0.061,0-0.122,0h-0.548v1.096c0,0.183-0.061,0.365-0.061,0.426c0,0.183-0.061,0.244-0.183,0.244
		c-0.061,0-0.183-0.061-0.244-0.122l-0.244-0.244l-0.487-0.365v-0.549c0.305,0.183,0.549,0.366,0.731,0.549v-1.036H153.4v-0.487
		h0.731c0-0.061,0-0.061,0-0.122c0-0.305,0.122-0.426,0.244-0.426c0.122,0,0.183,0.061,0.244,0.183
		C154.619,15.225,154.619,15.346,154.619,15.529z M153.4,17.052l-1.278-0.853c-0.122-0.122-0.244-0.244-0.244-0.426
		s0.122-0.244,0.244-0.244h1.278v0.487h-0.791c0.304,0.183,0.548,0.305,0.791,0.487V17.052z"/>
	<path d="M155.897,13.397c0,0.487-0.183,0.853-0.548,1.035c-0.061,0.061-0.122,0.061-0.122,0.061c-0.061,0-0.122,0-0.183-0.061
		s-0.061-0.122-0.061-0.183s0-0.122,0.122-0.183c0.061-0.122,0.122-0.183,0.183-0.244s0.122-0.244,0.122-0.426
		c0-0.304-0.122-0.487-0.366-0.67c-0.183-0.183-0.426-0.304-0.731-0.304c-0.243,0-0.365,0.061-0.548,0.122
		c-0.183,0.122-0.244,0.244-0.244,0.487c0,0.183,0,0.305,0.061,0.427c0,0.061,0.122,0.183,0.183,0.243l0.244,0.305
		c0.061,0.061,0.122,0.122,0.122,0.182c0,0.122-0.061,0.122-0.061,0.183c-0.061,0.061-0.122,0.061-0.122,0.061
		c-0.062,0-0.183,0-0.427,0c-0.548-0.061-0.913-0.122-1.035-0.122c-0.061,0-0.122,0.061-0.183,0.061
		c-0.122,0.061-0.122,0.061-0.183,0.061c-0.122,0-0.122-0.122-0.122-0.304c0,0,0-0.061,0-0.122c0-0.062,0-0.122,0-0.122
		c0-0.122,0-0.244,0-0.487c0-0.183,0-0.304,0-0.426c0,0,0-0.061,0-0.183c0-0.061,0-0.183,0-0.183c0-0.061,0-0.122-0.061-0.183
		c0-0.061,0-0.061,0-0.122S152,12.18,152,12.119c0.061,0,0.122-0.061,0.183-0.061c0.183,0,0.305,0.183,0.305,0.609
		c0,0.061,0,0.122,0,0.183c-0.061,0.061-0.061,0.122-0.061,0.122l0.061,0.426v0.426c0.061,0,0.305,0.061,0.792,0.122
		c-0.183-0.244-0.244-0.548-0.244-0.914c0-0.365,0.122-0.669,0.426-0.852c0.244-0.183,0.487-0.244,0.852-0.244
		c0.427,0,0.792,0.122,1.097,0.426C155.715,12.606,155.897,12.971,155.897,13.397z"/>
	<path d="M163.266,17.904v0.487v0.487c0,0.122,0,0.183,0,0.244c-0.061,0.061-0.122,0.122-0.183,0.122
		c-0.183,0-0.244-0.122-0.244-0.426v-0.122v-0.061c-0.122,0-0.244,0-0.365,0c-0.183,0-0.305,0-0.365,0c-0.183,0-0.548,0-0.975,0
		c-0.365-0.061-0.731-0.061-0.913-0.061c0.182,0.183,0.243,0.366,0.243,0.426c0,0.061,0,0.122-0.061,0.122
		c-0.061,0.061-0.122,0.122-0.182,0.122c-0.062,0-0.183-0.061-0.305-0.244c-0.061-0.061-0.122-0.183-0.304-0.365
		c-0.122-0.122-0.183-0.305-0.183-0.426c0-0.122,0.061-0.183,0.183-0.183c0,0,0.061,0,0.183,0.061c0.061,0,0.122,0,0.122,0
		c0.061,0,0.183,0,0.244,0c0.122,0,0.244,0,0.305,0c0.183,0,0.426,0,0.792,0.061c0.366,0,0.67,0.061,0.853,0.061
		c0.122,0,0.244-0.061,0.365-0.061s0.243,0,0.305,0v-0.244c0-0.122,0.061-0.122,0.061-0.183c0.061-0.061,0.122-0.061,0.183-0.061
		c0.061,0,0.122,0,0.182,0.061C163.266,17.782,163.266,17.782,163.266,17.904z"/>
	<path d="M163.449,15.955c0,0.487-0.183,0.792-0.548,1.035c-0.061,0-0.061,0.062-0.122,0.062c-0.062,0-0.122-0.062-0.183-0.122
		c-0.061-0.061-0.061-0.061-0.061-0.183c0-0.061,0.061-0.122,0.122-0.182c0.061-0.062,0.183-0.122,0.183-0.183
		c0.061-0.122,0.122-0.243,0.122-0.426c0-0.304-0.122-0.548-0.365-0.73c-0.183-0.183-0.426-0.244-0.73-0.244
		c-0.244,0-0.426,0-0.548,0.122c-0.244,0.061-0.305,0.244-0.305,0.426s0,0.366,0.061,0.487c0.061,0.061,0.122,0.183,0.183,0.244
		l0.305,0.243c0.061,0.122,0.122,0.183,0.122,0.244c0,0.062,0,0.122-0.061,0.183c-0.061,0.061-0.122,0.061-0.183,0.061
		c-0.061,0-0.183,0-0.427-0.061c-0.548-0.061-0.853-0.061-1.035-0.061c-0.061,0-0.122,0-0.183,0.061c-0.061,0-0.122,0-0.183,0
		s-0.122-0.061-0.122-0.244c0,0,0-0.061,0-0.122c0-0.062,0-0.122,0-0.183c0-0.061,0-0.243,0-0.426c0-0.183,0-0.304,0-0.426
		c0-0.061,0-0.122,0-0.183c0-0.122,0-0.183,0-0.244c0,0,0-0.061,0-0.122c-0.061-0.061-0.061-0.122-0.061-0.122
		c0-0.061,0.061-0.122,0.061-0.183c0.062-0.061,0.122-0.061,0.183-0.061c0.183,0,0.305,0.183,0.305,0.609c0,0,0,0.061,0,0.183
		c0,0.061,0,0.122,0,0.122v0.426v0.426c0.061,0,0.365,0,0.792,0.061c-0.183-0.183-0.244-0.487-0.244-0.914
		c0-0.365,0.122-0.609,0.426-0.792c0.244-0.183,0.548-0.244,0.914-0.244c0.426,0,0.852,0.122,1.096,0.365
		C163.266,15.164,163.449,15.529,163.449,15.955z"/>
	<path d="M163.388,12.728c0,0.487-0.243,0.853-0.73,1.096c-0.304,0.183-0.731,0.244-1.279,0.244V13.58
		c0.487,0,0.853-0.061,1.096-0.183c0.305-0.183,0.426-0.366,0.426-0.67c0-0.365-0.183-0.609-0.609-0.73
		c-0.244-0.122-0.548-0.183-0.914-0.183v-0.487c0.609,0,1.096,0.122,1.461,0.365S163.388,12.24,163.388,12.728z M161.378,14.067
		h-0.061c-0.487,0-0.914-0.061-1.279-0.305c-0.426-0.304-0.609-0.669-0.609-1.096c0-0.427,0.183-0.792,0.548-1.036
		c0.305-0.183,0.731-0.304,1.157-0.304c0.122,0,0.183,0,0.244,0v0.487c-0.061,0-0.061,0-0.122,0c-0.487,0-0.792,0.061-1.035,0.183
		c-0.183,0.183-0.305,0.365-0.305,0.67c0,0.304,0.122,0.548,0.426,0.73c0.305,0.122,0.609,0.183,0.914,0.183
		c0.061,0,0.122,0,0.122,0V14.067z"/>
	<path d="M170.27,18.452v0.487v0.487c0,0.122,0,0.183,0,0.244c-0.062,0.061-0.122,0.122-0.183,0.122
		c-0.183,0-0.306-0.122-0.306-0.365l0.062-0.122v-0.122c-0.122,0-0.244,0-0.366,0c-0.183,0.061-0.305,0.061-0.365,0.061
		c-0.183,0-0.548-0.061-0.975-0.061c-0.426-0.061-0.73-0.061-0.913-0.061c0.122,0.244,0.244,0.365,0.244,0.426
		c0,0.062-0.061,0.122-0.061,0.183c-0.061,0-0.123,0.061-0.183,0.061c-0.061,0-0.183-0.061-0.305-0.244
		c-0.061-0.061-0.122-0.182-0.305-0.365c-0.121-0.122-0.183-0.304-0.183-0.426c0-0.122,0.062-0.122,0.183-0.122c0,0,0.061,0,0.183,0
		c0.061,0,0.122,0,0.122,0c0.061,0,0.183,0,0.244,0c0.121,0,0.244,0,0.244,0c0.244,0,0.487,0,0.853,0.061
		c0.365,0,0.67,0.061,0.853,0.061c0.122,0,0.243,0,0.365-0.061c0.122,0,0.244,0,0.304,0v-0.244c0-0.061,0.062-0.122,0.062-0.183
		c0.061-0.061,0.121-0.061,0.182-0.061c0.062,0,0.122,0,0.183,0.061C170.27,18.33,170.27,18.391,170.27,18.452z"/>
	<path d="M170.451,16.442c0,0.426-0.182,0.73-0.486,0.914c-0.184,0.122-0.426,0.244-0.73,0.244v-0.487
		c0.183,0,0.305-0.061,0.426-0.122c0.244-0.122,0.365-0.304,0.365-0.609c0-0.243-0.121-0.426-0.244-0.548
		c-0.182-0.122-0.364-0.182-0.547-0.182v-0.487c0.305,0,0.609,0.122,0.853,0.305C170.33,15.711,170.451,16.016,170.451,16.442z
		 M169.234,17.6c-0.122,0-0.183,0-0.305,0c-0.792,0-1.522-0.305-2.131-0.975l-0.244-0.244c-0.061-0.122-0.122-0.183-0.122-0.243
		c0-0.062,0-0.122,0.062-0.183c0.061-0.061,0.121-0.061,0.182-0.061s0.183,0.061,0.305,0.244l0.487,0.487
		c0.183,0.183,0.365,0.244,0.609,0.365c-0.062-0.122-0.062-0.244-0.122-0.365c0-0.122-0.061-0.183-0.061-0.304
		c0-0.366,0.121-0.67,0.305-0.853c0.243-0.244,0.548-0.305,0.913-0.305c0,0,0.061,0,0.122,0v0.487c-0.062,0-0.122,0-0.122,0
		c-0.243,0-0.427,0.061-0.548,0.182c-0.062,0.122-0.122,0.305-0.122,0.609c0,0.122,0,0.244,0.061,0.366
		c0,0.061,0.062,0.122,0.183,0.304c0.062,0,0.184,0,0.244,0c0.122,0,0.183,0,0.305,0V17.6z"/>
	<path d="M170.392,13.275c0,0.487-0.244,0.853-0.731,1.096c-0.305,0.183-0.73,0.244-1.278,0.305v-0.487
		c0.487-0.061,0.853-0.122,1.096-0.244c0.304-0.122,0.427-0.365,0.427-0.67c0-0.365-0.183-0.608-0.609-0.73
		c-0.243-0.122-0.548-0.183-0.913-0.183v-0.487c0.608,0.061,1.096,0.122,1.462,0.365C170.208,12.484,170.392,12.789,170.392,13.275z
		 M168.382,14.676h-0.062c-0.487,0-0.913-0.122-1.278-0.365c-0.427-0.244-0.609-0.609-0.609-1.096c0-0.426,0.183-0.792,0.548-1.035
		c0.304-0.183,0.731-0.305,1.157-0.305c0.122,0,0.183,0,0.244,0v0.487c-0.062,0-0.062,0-0.122,0c-0.487,0-0.792,0.061-1.035,0.244
		c-0.244,0.122-0.305,0.304-0.305,0.609c0,0.304,0.122,0.548,0.427,0.73c0.304,0.122,0.608,0.244,0.913,0.244
		c0.061,0,0.122,0,0.122,0V14.676z"/>
	<path d="M176.968,18.452v0.487v0.487c0,0.122,0,0.183,0,0.244c0,0.061-0.061,0.122-0.183,0.122c-0.183,0-0.243-0.122-0.243-0.365
		v-0.122v-0.122c-0.061,0-0.183,0-0.365,0c-0.122,0.061-0.244,0.061-0.365,0.061c-0.184,0-0.487-0.061-0.915-0.061
		c-0.426-0.061-0.729-0.061-0.974-0.061c0.183,0.244,0.244,0.365,0.244,0.426c0,0.062,0,0.122-0.062,0.183
		c-0.061,0-0.121,0.061-0.183,0.061c-0.06,0-0.183-0.061-0.243-0.244c-0.061-0.061-0.183-0.182-0.304-0.365
		c-0.183-0.122-0.245-0.304-0.245-0.426c0-0.122,0.062-0.122,0.184-0.122c0.062,0,0.122,0,0.183,0s0.122,0,0.183,0s0.122,0,0.243,0
		c0.122,0,0.183,0,0.244,0c0.183,0,0.487,0,0.853,0.061c0.365,0,0.608,0.061,0.792,0.061c0.121,0,0.243,0,0.365-0.061
		c0.121,0,0.243,0,0.365,0v-0.244c0-0.061,0-0.122,0.061-0.183c0.062-0.061,0.062-0.061,0.183-0.061c0.062,0,0.122,0,0.122,0.061
		C176.968,18.33,176.968,18.391,176.968,18.452z"/>
	<path d="M177.151,16.442c0,0.426-0.123,0.73-0.428,0.914c-0.242,0.122-0.486,0.244-0.791,0.244v-0.487
		c0.183,0,0.305-0.061,0.427-0.122c0.243-0.122,0.364-0.304,0.364-0.609c0-0.243-0.06-0.426-0.242-0.548
		c-0.122-0.122-0.305-0.182-0.549-0.182v-0.487c0.365,0,0.609,0.122,0.853,0.305C177.028,15.711,177.151,16.016,177.151,16.442z
		 M175.933,17.6c-0.061,0-0.183,0-0.243,0c-0.853,0-1.522-0.305-2.132-0.975l-0.243-0.244c-0.121-0.122-0.184-0.183-0.184-0.243
		c0-0.062,0-0.122,0.062-0.183c0.06-0.061,0.121-0.061,0.183-0.061c0.061,0,0.182,0.061,0.364,0.244l0.487,0.487
		c0.122,0.183,0.305,0.244,0.609,0.365c-0.062-0.122-0.122-0.244-0.183-0.365c0-0.122,0-0.183,0-0.304
		c0-0.366,0.061-0.67,0.305-0.853c0.183-0.244,0.486-0.305,0.853-0.305c0.061,0,0.061,0,0.121,0v0.487c-0.061,0-0.061,0-0.121,0
		c-0.244,0-0.366,0.061-0.487,0.182c-0.122,0.122-0.183,0.305-0.183,0.609c0,0.122,0,0.244,0.061,0.366
		c0.061,0.061,0.122,0.122,0.183,0.304c0.122,0,0.183,0,0.305,0c0.061,0,0.183,0,0.243,0V17.6z"/>
	<path d="M177.09,13.275c0,0.487-0.243,0.853-0.67,1.096c-0.365,0.183-0.792,0.244-1.278,0.305v-0.487
		c0.426-0.061,0.791-0.122,1.035-0.244c0.305-0.122,0.426-0.365,0.426-0.67c0-0.365-0.183-0.608-0.608-0.73
		c-0.244-0.122-0.549-0.183-0.853-0.183v-0.487c0.608,0.061,1.096,0.122,1.4,0.365C176.907,12.484,177.09,12.789,177.09,13.275z
		 M175.142,14.676h-0.122c-0.487,0-0.914-0.122-1.279-0.365c-0.364-0.244-0.609-0.609-0.609-1.096c0-0.426,0.184-0.792,0.549-1.035
		c0.365-0.183,0.73-0.305,1.217-0.305c0.062,0,0.123,0,0.245,0v0.487c-0.062,0-0.122,0-0.183,0c-0.427,0-0.792,0.061-1.036,0.244
		c-0.183,0.122-0.304,0.304-0.304,0.609c0,0.304,0.183,0.548,0.486,0.73c0.244,0.122,0.549,0.244,0.854,0.244
		c0.061,0,0.121,0,0.183,0V14.676z"/>
</g>
</svg>
