<?xml version="1.0" encoding="utf-8"?>
<!-- Generator: Adobe Illustrator 15.1.0, SVG Export Plug-In . SVG Version: 6.00 Build 0)  -->
<!DOCTYPE svg PUBLIC "-//W3C//DTD SVG 1.1//EN" "http://www.w3.org/Graphics/SVG/1.1/DTD/svg11.dtd">
<svg version="1.1" id="Layer_1" xmlns="http://www.w3.org/2000/svg" xmlns:xlink="http://www.w3.org/1999/xlink" x="0px" y="0px"
	 width="329.984px" height="135.764px" viewBox="0 0 329.984 135.764" enable-background="new 0 0 329.984 135.764"
	 xml:space="preserve">
<metadata><?xpacket begin="﻿" id="W5M0MpCehiHzreSzNTczkc9d"?>
<x:xmpmeta xmlns:x="adobe:ns:meta/" x:xmptk="Adobe XMP Core 5.0-c060 61.134777, 2010/02/12-17:32:00        ">
   <rdf:RDF xmlns:rdf="http://www.w3.org/1999/02/22-rdf-syntax-ns#">
      <rdf:Description rdf:about=""
            xmlns:dc="http://purl.org/dc/elements/1.1/">
         <dc:format>image/svg+xml</dc:format>
         <dc:title>
            <rdf:Alt>
               <rdf:li xml:lang="x-default">8B-1</rdf:li>
            </rdf:Alt>
         </dc:title>
      </rdf:Description>
      <rdf:Description rdf:about=""
            xmlns:xmp="http://ns.adobe.com/xap/1.0/"
            xmlns:xmpGImg="http://ns.adobe.com/xap/1.0/g/img/">
         <xmp:CreatorTool>Adobe Illustrator CS5.1</xmp:CreatorTool>
         <xmp:CreateDate>2015-02-12T17:05:46+02:00</xmp:CreateDate>
         <xmp:ModifyDate>2015-02-12T17:05:46+02:00</xmp:ModifyDate>
         <xmp:MetadataDate>2015-02-12T17:05:46+02:00</xmp:MetadataDate>
         <xmp:Thumbnails>
            <rdf:Alt>
               <rdf:li rdf:parseType="Resource">
                  <xmpGImg:width>256</xmpGImg:width>
                  <xmpGImg:height>104</xmpGImg:height>
                  <xmpGImg:format>JPEG</xmpGImg:format>
                  <xmpGImg:image>/9j/4AAQSkZJRgABAgEBMAEwAAD/7QAsUGhvdG9zaG9wIDMuMAA4QklNA+0AAAAAABABMMzNAAEA&#xA;AQEwzM0AAQAB/+4ADkFkb2JlAGTAAAAAAf/bAIQABgQEBAUEBgUFBgkGBQYJCwgGBggLDAoKCwoK&#xA;DBAMDAwMDAwQDA4PEA8ODBMTFBQTExwbGxscHx8fHx8fHx8fHwEHBwcNDA0YEBAYGhURFRofHx8f&#xA;Hx8fHx8fHx8fHx8fHx8fHx8fHx8fHx8fHx8fHx8fHx8fHx8fHx8fHx8fHx8f/8AAEQgAaAEAAwER&#xA;AAIRAQMRAf/EAaIAAAAHAQEBAQEAAAAAAAAAAAQFAwIGAQAHCAkKCwEAAgIDAQEBAQEAAAAAAAAA&#xA;AQACAwQFBgcICQoLEAACAQMDAgQCBgcDBAIGAnMBAgMRBAAFIRIxQVEGE2EicYEUMpGhBxWxQiPB&#xA;UtHhMxZi8CRygvElQzRTkqKyY3PCNUQnk6OzNhdUZHTD0uIIJoMJChgZhJRFRqS0VtNVKBry4/PE&#xA;1OT0ZXWFlaW1xdXl9WZ2hpamtsbW5vY3R1dnd4eXp7fH1+f3OEhYaHiImKi4yNjo+Ck5SVlpeYmZ&#xA;qbnJ2en5KjpKWmp6ipqqusra6voRAAICAQIDBQUEBQYECAMDbQEAAhEDBCESMUEFURNhIgZxgZEy&#xA;obHwFMHR4SNCFVJicvEzJDRDghaSUyWiY7LCB3PSNeJEgxdUkwgJChgZJjZFGidkdFU38qOzwygp&#xA;0+PzhJSktMTU5PRldYWVpbXF1eX1RlZmdoaWprbG1ub2R1dnd4eXp7fH1+f3OEhYaHiImKi4yNjo&#xA;+DlJWWl5iZmpucnZ6fkqOkpaanqKmqq6ytrq+v/aAAwDAQACEQMRAD8A9U4qxr8zfrP/ACrfzX9V&#xA;Zkuf0NqHoOrcWV/qsnEhhShB74qxH/nGHUZ7/wDJTQJbmaS4uUa9SaaZi7sRezEfExJNFYDFXqeK&#xA;uxV2KuxV2KuxV2KoTVdX0rSLGTUNWvINPsIiolu7mRYYkLsEXk7lVFWYAVOKoi3uILiCO4t5Fmt5&#xA;lWSGaNgyOjCqsrCoIINQRiq/FXYq7FXYq7FXYq7FVK7vLSztpLq8njtraIcpZ5mWONR4szEAYqss&#xA;NR0/UbVbvT7qG8tXrwuLeRZY2psaOhKnFXhH5bf+tWfmN/zAxfqtcVe/4q7FXYq7FXYq7FXYq7FU&#xA;PZ6jp98jvZXMV0kbcHaF1kCsN+JKk0OKojFXzf5k/Of86Nd83+bLP8t9Ns5dG8lO0WoeuqvPO0bO&#xA;rlQzryqYJOCpvQdSSBirOtF/Mq08/wD5B635lKLa3A0rUYdTt1JKQ3ENs/MAn9kqVda9iMVQ/wDz&#xA;iijr+SOjFlIDzXpUkdR9akFR9IxV69irsVdirsVdirsVdirwb/nMLUrj/AWkeXrRv9K17VYYRHv8&#xA;ccSs1Nv+LWjxV7fpOm2+l6VZabbilvYwRW0I/wAiFAi/guKorFXYq7FXYq7FXYq7FXzr+ddtfefv&#xA;zv8ALH5XXN5JZ+Wfqv6T1GOE0adl9VyPCoSEKhP2eTHFVL8oNL/5V1/zkH5j/LzT55X8t6hYrqFh&#xA;BK3IpKqxuDX/ACVaRK/tALXFUf8AlP8Av/8AnJn8zbp/7yKKOBQOnHlEu/v+6GKvoDFXYq7FXYq7&#xA;FXYq7FXYq+f/APnDX975J8x3if3E+uTemT12ghbp8nGKs/8AOf56/l35P81WfljWLyQand+n6ghj&#xA;9SO3ExpGZ2BHGvWgBNN6UIxVgH/OJlbpvP8Aq+7C/wBcb49gDx5yfZ6j++xVh35XTLpP5W/njoqg&#xA;Cz05tQigVTRQZoJ7bYH/AIxLir2H/nGOBofyN8sIxBJS7fbwkvZ3H4Nir1DFXYq7FXYq7FXYq7FX&#xA;z7+eYOsfnx+VXl8/FHbXDajJH2IEySGu1DtZnFXqv5s+cH8nfl1rvmKIgXVnbEWfIVH1iZhDDUdw&#xA;JJFJGKvnz/nHnzD590n80dK0jzBrF1qlt5x0Y6w0F1LJL6TOHlhkHqFviaOLfjSoYeAxV9YYq7FX&#xA;Yq7FXYq7FXz9+ZY/RP8AzlP+XmsIeA1G0ewk3orE+vFvXYn/AElfuGKt3Vbb/nMqz5CovdDPp07B&#xA;YpOv/Io4qlP5YeaNF0T85Pzb1zVp24R38djbrCjTSzTPcTIlvDDEGeSVvRoFUV2J7E4q9dP5k62q&#xA;fWZfIXmFNPIqswSwkm7bm1S7acD/AGNfbFWReWPNmg+ZtPN/o10LiKN2huImVopoJk+3FPDIFkik&#xA;XurqD9GKpvirsVdirsVdiqldz/V7Wa448vRjaTjWleIJpXfFXhP/ADhjEIPymv5XcBZdYuZSTsFA&#xA;trdNz/sK4q+dPN8becYtZ87zVefzD5qSw0x6EstukMjMijvRJrcfRir6G/5wxrN+X2vX52a51yaq&#xA;DoKW1u/X/npiry3UdVXQdJ/5yA0st6cl1qlsllCSN0m1GdXpy3P7lwcVfTP5U/UNA/K3yhY31zDa&#xA;TNplofTmkVCZJohIyjkdzycjbFWcI6OiujBkYAqwNQQdwQRireKuxV2KuxV2KuxV8/eYQt5/zmT5&#xA;aDfF+jtEegXfiTFeH4+v+/6/diq//nLXUbjUNN8qeQrB6X/mfVYwVG/7uMiNQw8DLOp/2OKoWext&#xA;bH/nLry1p9mtLaw8vfV40G/BI4LhUBp/k0xV9EYq7FXYq7FXYq7FXz9/zkkDafmT+UWqp1h1kxy0&#xA;J5MpubRgo7dOQ+nFWvPbjRv+ctvI+pznjZ6rpr2Qdv8AfzC5iVR/s5IvvxV5v+SMcuvfnN5m1O2u&#xA;WguL/VblIrxArPALs3dy9xErAxiX0reSFXKkL6p2xV9K2nlz8sLnVLnRLeOG716xjWa8uBNLNqUI&#xA;ckK0t9yNzG7EEgGUN3G2KsWsYr7y5+a9rI1y1xBqd02g39w4AluF/R36Q0+S44BRJPA0M8Pq0qY2&#xA;XluCcVevYq7FXYqwz81vOdz5X8tK9hJHFq2oy/VLGeZeccAEbz3F1Ig3ZLa3hklI70A74qxCw/KK&#xA;C+s1vbzy3ZXV9Moka/1+7ubnV5mIrWaaJeNo/wDkws6r29lUBN5g1ryL9atJpLqTQ2QWl7ouozte&#xA;TafLdq6WV1Z3z/vLmxnmHon1PjRqfZ3XFWI/k5rK+Wv+cT/Mus+pxk5ah6DHbjPMiWsP/JQrirCI&#xA;dBa18q/kXoTJSXXNZm1O7ShpwmvLdInI2r+4NcVerf8AOFhCflrrNs/wzw65OZEI3FbW2UfihxVg&#xA;v/ORX5I+bn88XvmLSZIV8veY7qwinRpeBW9ldLVEeP7ThpH51HSp8MVZv+V2l+QPOFvdQ+X49Cv7&#xA;uzrDf3nmKybVdYuuH7szSwySW31eFiPgRHdeNB8J+EKpnq1nqH5Z3aavptmum2kRae/sNN9RtI1G&#xA;zhUyXQS0cubC8hgV50CEo6oQWbcKq9thminhjmhcSRSqHjddwysKgg+4xVfirsVdirC/zC/MIeW5&#xA;LTTLBLabXL9XlQ3s4trO0toyEe7vJjUpEHdVUAcnY8V70VY1H518/wAEsbQ65oOszzMFXSrixvtE&#xA;EzsKiGzvZ5bmOR2rReSGvtvirzvRvOFhf/8AOWMOoXcMmkyHR5YL2zvuMUlrNb27ySpKa8OISIuH&#xA;UlShDdMVRvkOU/mx/wA5CX/nqNWfyl5Pj+paNIwPCaejKjLUDqXkm8R8FcVR+lk33/OZWscd/wBF&#xA;aInPiDtzht/tV/5iR0xV9A4q7FXYq7FXYq7FXz9/zl4PR03yVqFA31XW0HDoTyTnSu9P7rFWWf8A&#xA;OQP5Tar580TTLvy7cLaeatAufrOlzs5iqrFTIgkUEo/KNHRvFe1ahV5Z+WH5VXXk3Wbny7rN7Jaz&#xA;3kelx6rf6bM0T20uopq0UBinAqG9RYYQabs3hirPfyo/IK/8i675gil1e5vNI1QQTWd/b3Elrcc4&#xA;jJzjuY0NHP72quD47CtMVX3WjRReetFuobu8uufm/wBC3E9xJMrxWmgTiZ6MTVo5/UQt2Apir2jF&#xA;XYq7FXj35jLda/8AmxoGjWixyrpEUcjiVnSIXN473aLIyBjRrfSJEIoarJTocVZf5mn87J5b1V7q&#xA;PTYLZbO4M80VxcrIkYibkyH01oyjcbjFXzVY6v8Am1rfka//AMcW5lW1tbOw0me8Ux38p1TU7SWP&#xA;koQ+pxXT+dX4sF+L4qjFWMaTr02ufk/5U/KrQ5RJrPmDXJZL6NDX0oFkAi9UDorOfU9hHXFXsPnf&#xA;TbRP+ckvyr8qWa0s9E00S28ZoeKQLOV6mlQtmvbFUb/ziFWHR/OVi2722uScnHQ1QLt/yLxVlv8A&#xA;zkVJIvk3T1jJEjajzjC1qWgsbqdSKfymLn9GKsd8m/kX5V8iecNN1/Uh+krvV7iT074NIkdjfu7T&#xA;W6QhGUGKZOURaWtXVAP7zjirPPzUMMllZ28vH00i1O7m5dPSj0q6geo8K3S1P9cVTzyCJR5F8uCX&#xA;kJRpdl6gavLl9XSta71riqe4q7FXYq8d/LmBfOH5j6/5zuV9WxtpxFozNupjtzLa27JXccVWecdm&#xA;+sA9VGKsS/PTUPze1TUpdM8pap9e8n395Bo+pCKyt+EFzcyCL0DPIJGmVXIEjpQIx4Ma1GKoPWfy&#xA;b0b8wfzA0/T9Q1O7SOy07UIhqcRQ3U9rpuorZ24ndwwdysksfqUJYRqxryxV9AeTPJnl/wAm+X7b&#xA;QdBtvq2n21SATyd3bd5JHO7Ox6n6BtQYq8Z/J6mqf85IfmjrQAYWXDTeY3oRIsdK/F/yxeP0eCr6&#xA;BxV2KuxV2KuxV2KvAP8AnNJGH5Y6TOgIlh1uArKvVQbW53qOnxAYq9+R0dFdGDIwBVgagg7ggjFW&#xA;A6fptjq35kee7O/hWeym03RbSaFq/EB9dkrUUI/vhQjcEVGKpynl/wA4W0X1Sz8yhrKhVZr2zW5v&#xA;o1OwCXCywxEqPstLA5/m5YqketaTaaX5t/LjSrMMLe1vNRnDuxeR3/RtwrtI7bs8jXDO7Hct88Ve&#xA;hYq7FXYq8u8r6TeeY9O8xearKRE1TUNdku9CnkJ9Mw6QRYW6PxBIinWCUMQK8ZCw3pirKh57hSDh&#xA;c6PqkOrCq/otbOaRnkBpxjuUU2jLX9v1QoBBYrirEV0i6vfzB8v6VqgSS9T635t8wxr8UKzmNdO0&#xA;+BSR8SxI7qp25GLlSpxVEfl3/wA49fl/5D8x3fmDSUuJ7+bmtp9adXW0jk+2kAVUO4PHkxJ47eNV&#xA;WF2P+5b/AJzK1D9r9AaIKe3OGL5f8tvv/RVv/nGelp5+/NrSTRTa61yQfZqpuLtKqnYURfvGKvR/&#xA;zDihvPM/kHTZwrQ3GsXMsiHfksOkX1Vp/KedDiqndWuoWXl+byrrlpeXelLGIdN1/Tka5nSOMg2z&#xA;zRJyuFuYCqsJER1Zl51UniFWO+Z7jzLeflx5p80+YLNtOurXy1fabYW5HGRnmiJurspWsaTSRRen&#xA;G3xKqb7tQKvVtLtBZaZaWYAAtoY4QASQPTQLsTv2xVE4q7FWKfmhrd7pXky8Gmmms6m0elaON6/X&#xA;L9xbxNt/vvmZD7KcVYxpmgXOh64PImnzfonQLuK3uItQVjHc3KWdpBZyWVqw+y/G3WSWSvMKx4fF&#xA;V41WX67c2/l7QLbSdCt4or+442Og2CIOCykbSFB/uqBayyH+VT+0RVVjX5UaVbyapret2xL6ba+j&#xA;5b0OR6FntdILpcTlhsxnvZJeR78QcVejsyqpZiFVRVmOwAHc4q+f/wDnEYHUrTzx5sYfHrmttVz1&#xA;Pphp++//AB94q+gcVdirsVdirsVdirwz/nMhHb8ooyqkhNUtixA6D05RU/ScVez6K6SaPYSIQyPb&#xA;xMrDoQUBBGKsW8qVf8yvPUnTh+ioAP8AUtWk5f8AJan0YqzXFWE+ZqP+aXkiOnIpb6xNx60CxW8f&#xA;P6PV41/ysVZtirsVY7+YnmCby/5H1rV7cFry3tXWxQdWupf3Vsg/1pnQYqi/KGgReXfKukaFEeS6&#xA;baQ2xcftNGgV3+bNVjiqb4qwX8v/APcp5q85+Zjuk1+mjWJ6/wCj6QnpuQfe7mn6eGKs6xV8+/kc&#xA;f0t+fn5ra79oWlwunLIOlBM8Ypv4WY7f2qt/lP8A7jv+cm/zM0mnH63Cl/xNRWrxSVof+YvFXpfm&#xA;msn5neRYR/utNXuiAKmkdvFDX2X/AEj76YqzbFWE/nQOX5Za3DSv1lYLah6fv7mKLf2+PfFWbYq7&#xA;FXYqwPUf+dg/NjT9P+3p3k+1Op3Q6qdRvw1vaKa94rcTv/s1xVl+saLpOs2LWOqWsd3asQ/pyD7L&#xA;rurowoyOp3VlII7Yqw7zfZ6Z5I8qanq+h28k3mO5iTTdJuLu4nvbhrm7kWC1iWW6eaQRiaRWKA02&#xA;rirKPKXl218t+WdM0G1PKHTbaO3Eh6uyL8cjf5TtVj7nFUt/NHWv0J+XHmbVA3GS2026aEjb960T&#xA;LF/w7DFWGf8AOK+jHTPyW0eRl4y6jJc3sgpT7czRofpjjU4q9bxV2KuxV2KuxV2KvFf+cvf/ACTd&#xA;z/zHWn/Ejir1XykQfKujEbg2NtQ/88VxVj/kr4vPf5hSNuy6jYRL7Iuk2rgf8FK2Ks1xVhWr1m/O&#xA;LyxGuxtdE1mdie4kudOjAH04qzXFXYqwX8wa6p5m8neWF3judQbWL9ev+jaQolQEeDXclvirOsVS&#xA;3zNrlvoPlzVNbuKejplpNduDtUQxl6fTxpiqV/lnodxonkHQ9Puv97ltlnvz0rd3JNxcn6ZpXxVk&#xA;kkiRxtJIeKICzMegAFScVeBf84fRSXnlvzV5llBEus61ISTWpCRrLXev7Vw3fFVq/wC4n/nMt9uP&#xA;+INE+XL04R7j/lh9+n3KvS7+s/5zaKjbpY+X9TmUdOL3F5ZID4mqxNirNsVYT+cHx+TY7Ubveavo&#xA;luidOZk1a1qpPSjKCDXFWbYq7FVK8u7aztJ7y6kEVtbRtNPK3RY41LMx+QGKsN/KSzuJPLk/ma+j&#xA;aPU/Nt1JrNwj/bjhmASyhNd/3VokS08a4qzfFWB69TX/AM0tC0QHlY+Wrd9f1Bdipupudpp6HwKj&#xA;6xL/ALFcVZ5irxn/AJy21sab+TV7bBuL6vd2tktDQ7P9Zb/hbcjFXpPkLRDoXkjQNGKlH0/T7W3k&#xA;U9fUjhVXJ9y1cVT3FXYq7FXYq7FXYq8f/wCcsAP+VJav7T2dP+klMVegfl5/ygHln/tlWP8A1DJi&#xA;qU/lvRtW8+SgfC/mSQK3j6enWMbfc6MMVZtirCrj4/zpsa/7o8t3nAf8Zr+15V/5ErTFWa4q7FWC&#xA;+Waax+Z/mnXPtW+jQ23l6xcfZ9RR9dvSP9nPCh/1MVZ1irBvzaBv9M0byunxN5l1a0s506k2luxv&#xA;bz6DBbMp/wBbFWc4qxf809W/RH5beaNRDcXt9LuzEf8AixoWWP8A4cjFWG/84saSdP8AyU0R2XjJ&#xA;fPdXbilPt3Doh+mONTirGPzeP6J/5yU/LDW/s/XVfTOXSvKR4qdR/wAt2KvS7Uib86dRIofqXlyy&#xA;UnrRrq+uWI/ydrcH328MVZtirCfzU+Oz8tW9T+/8yaR8I6n0bkXG3y9Gp9hirNsVdirBPzZd9S0/&#xA;S/JcDET+bbxbO64mjLpsI9fUHr7wJ6XzkGKs6REjRY41CIgCoiigAGwAAxVzMqqWYhVUVZjsAB3O&#xA;KsF/KZW1Gx1bzlMD6vmu+ku7XlUEafbgW1gKeDQxer83OKs7xV8+f85M/wC5zzx+WfktatHqGp/W&#xA;b1R2iEkUQansjS4q+g8VdirsVdirsVdirsVeVf8AOUaB/wAi/Mvw8iv1Jl2qRS/t6kfRXFWVflM4&#xA;f8rPJzcuVdE06rVruLSMH8cVQn5YVY+bZiKCXzJqFF60EXpw/j6VcVZtirCY6N+dVx+0YfLcNB14&#xA;+rfy/dz9L6ePtirNsVQ+paha6bp11qN23C1s4ZLi4f8AljiUu5+hRirFvyj0+5tvIWn3d6nHUtaM&#xA;us6hXr6+pSNdFT/qLKE+S4qzHFWCsTrH5xqtOVp5T0ksTvQXuryUHzKW1ofokxVnWKvI/wDnKrV/&#xA;0f8AkrrEatxk1CW1tIzUftTrI4361jiYYqzb8sNI/Q/5c+WNNK8XttMtElAFP3noqZD9LknFVTzP&#xA;+X/lTzRqejanrdmbm88vzm60mVZZYjFMWjfn+6ZOXxQoaHbbFU2g0fTYNVu9WihC6hfRQQXc9WJe&#xA;O1MjQrxJ4jiZ36Dvv2xVGYqg9S0fTdSNob2ETGxuEvLQksvCeMMFccSK0DnY7YqjMVdiqBk0PS5d&#xA;bg1uSANqlrby2lvcFm+CGd0eRVSvD4miWrUrtStMVR2KqN9ZW19ZXFldJztrqN4Z0BZS0cilWHJS&#xA;GFQeoNcVasLG00+xtrCyiEFnaRJBbQr9lIolCIor2CimKq+KsW1b8tvLGq+etI87XaTNrmixNBZk&#xA;SH0eDCUfHEaqSDOxqKGtPDFWU4q7FXYq7FXYq7FXYqlnmby1o3mbQ7rQtagNzpd6FW6gDvHzVHWQ&#xA;DnGVcfEo6HFVbRNF03RNIs9H0uH6vp1hElvaQcnfhHGKKvJyzmg7k1xV2l6LpulLdLYQ+it5cy3t&#xA;yOTtynnblI/xlqcj2G3hiqNxVBJoumprU2trDTU7i2isprjk/wAUEEkksacK8BxedzUCu+/bFUbi&#xA;qC1zRdO1zR7zR9SjM2n38L291ErvGWjkHFl5IVYVHgcVRiIiIqIoVFACqBQADYAAYq3iqBsNE0uw&#xA;vtRvrSD07vVpUn1CbkzGSSOJIEPxE8QscSgKtB3pUnFUdirHvPPkHyt540ZNH8y2jXlhHMtzHGss&#xA;sJWZFZFblEyE0WRtjUe2KsgRERFRFCooAVQKAAbAADFW8VdirsVdirsVdirsVdirsVdirsVdirsV&#xA;dirsVdirsVdirsVdirsVdirsVdirsVdirsVdirsVdirsVdirsVdirsVdirz3zDNraedZfWOtmFf0&#xA;f+gotKjY2j1mP1z60/Frddtn+sMKR7x/HirHD55/Oa4tHa30oQzQ2U11KX0m8AN2sEL/AFFEeUF/&#xA;TmlZVmUlZAKL0LYqry+dfzfg1W/0+40xRY2svotq8Ol3s5SJJUjW4jgjci59dS0nCFyYv2umKs1/&#xA;Lu/8xXukXc3mATJfm8lIintntfTidVdI0VmkDqoanJXYV+GpIOKspxV2KuxV2KuxV2KuxV2KuxV2&#xA;KuxV2KuxV2KuxV57541Hz9a+cNPi8uRyGyubYRXMz28tzbRGszs5VGRRJ+7RQS3fFUih8/fmoyRP&#xA;daZJaGVYmvFTRL+5FojRRuJF9OUNcvI7shijWsXViONGVWRebfzxkt/rzaZFA/1K+un0ptPncpPb&#xA;LZrFB6wmHMyPdSuvEVYRELXchVC6j50/OC70G4QWM9jeNYzPava6ReySTsj3Y9QM7L9WkCQQ8YpE&#xA;LuX+FdxxVe0wvzhjfc8lBqylDuK7q1CvyOKr8VdirsVdir//2Q==</xmpGImg:image>
               </rdf:li>
            </rdf:Alt>
         </xmp:Thumbnails>
      </rdf:Description>
      <rdf:Description rdf:about=""
            xmlns:xmpMM="http://ns.adobe.com/xap/1.0/mm/"
            xmlns:stRef="http://ns.adobe.com/xap/1.0/sType/ResourceRef#"
            xmlns:stEvt="http://ns.adobe.com/xap/1.0/sType/ResourceEvent#">
         <xmpMM:DocumentID>xmp.did:49C0730B3B20681188C69098C6AB8D67</xmpMM:DocumentID>
         <xmpMM:InstanceID>xmp.iid:49C0730B3B20681188C69098C6AB8D67</xmpMM:InstanceID>
         <xmpMM:OriginalDocumentID>uuid:C245393CF925DF118833972942CE57BD</xmpMM:OriginalDocumentID>
         <xmpMM:DerivedFrom rdf:parseType="Resource">
            <stRef:instanceID>uuid:bb3736fd-c9cc-4200-87df-6c5fec4851e2</stRef:instanceID>
            <stRef:documentID>uuid:C245393CF925DF118833972942CE57BD</stRef:documentID>
            <stRef:originalDocumentID>uuid:C245393CF925DF118833972942CE57BD</stRef:originalDocumentID>
         </xmpMM:DerivedFrom>
         <xmpMM:History>
            <rdf:Seq>
               <rdf:li rdf:parseType="Resource">
                  <stEvt:action>saved</stEvt:action>
                  <stEvt:instanceID>xmp.iid:49C0730B3B20681188C69098C6AB8D67</stEvt:instanceID>
                  <stEvt:when>2015-02-12T17:05:46+02:00</stEvt:when>
                  <stEvt:softwareAgent>Adobe Illustrator CS5.1</stEvt:softwareAgent>
                  <stEvt:changed>/</stEvt:changed>
               </rdf:li>
            </rdf:Seq>
         </xmpMM:History>
      </rdf:Description>
      <rdf:Description rdf:about=""
            xmlns:pdf="http://ns.adobe.com/pdf/1.3/">
         <pdf:Producer>Adobe PDF library 7.77</pdf:Producer>
      </rdf:Description>
      <rdf:Description rdf:about=""
            xmlns:xmpTPg="http://ns.adobe.com/xap/1.0/t/pg/"
            xmlns:stDim="http://ns.adobe.com/xap/1.0/sType/Dimensions#"
            xmlns:xmpG="http://ns.adobe.com/xap/1.0/g/">
         <xmpTPg:MaxPageSize rdf:parseType="Resource">
            <stDim:w>116.411155</stDim:w>
            <stDim:h>47.894406</stDim:h>
            <stDim:unit>Millimeters</stDim:unit>
         </xmpTPg:MaxPageSize>
         <xmpTPg:NPages>1</xmpTPg:NPages>
         <xmpTPg:HasVisibleTransparency>False</xmpTPg:HasVisibleTransparency>
         <xmpTPg:HasVisibleOverprint>False</xmpTPg:HasVisibleOverprint>
         <xmpTPg:PlateNames>
            <rdf:Seq>
               <rdf:li>Cyan</rdf:li>
               <rdf:li>Magenta</rdf:li>
               <rdf:li>Yellow</rdf:li>
               <rdf:li>Black</rdf:li>
            </rdf:Seq>
         </xmpTPg:PlateNames>
         <xmpTPg:SwatchGroups>
            <rdf:Seq>
               <rdf:li rdf:parseType="Resource">
                  <xmpG:groupName>Default Swatch Group</xmpG:groupName>
                  <xmpG:groupType>0</xmpG:groupType>
               </rdf:li>
            </rdf:Seq>
         </xmpTPg:SwatchGroups>
      </rdf:Description>
   </rdf:RDF>
</x:xmpmeta>
                                                                                                    
                                                                                                    
                                                                                                    
                                                                                                    
                                                                                                    
                                                                                                    
                                                                                                    
                                                                                                    
                                                                                                    
                                                                                                    
                                                                                                    
                                                                                                    
                                                                                                    
                                                                                                    
                                                                                                    
                                                                                                    
                                                                                                    
                                                                                                    
                                                                                                    
                                                                                                    
                           
<?xpacket end="w"?>
	</metadata>
<g>
	<path fill="none" stroke="#000000" stroke-width="1.5024" d="M218.874,105.413c0.708-21.455,2.004-42.851,2.182-64.306
		c0.06-8.725,3.241-13.911,11.259-13.439c9.018,0.53,12.79,7.015,12.201,17.389c-1.12,20.1-1.77,40.198-2.652,60.356"/>
	<path fill="none" stroke="#000000" stroke-width="1.5024" d="M267.031,105.59c5.835-20.63,12.438-42.025,17.683-62.833
		c2.182-8.487,6.543-12.731,14.146-10.374c8.664,2.652,10.786,9.845,7.78,19.746c-5.895,19.274-9.137,34.011-14.854,53.345"/>
	<path fill="none" stroke="#000000" stroke-width="1.5024" d="M67.095,105.355c6.307-16.445,12.85-33.187,18.566-49.631
		c2.829-8.252,7.544-12.143,14.972-9.137c8.37,3.36,9.902,10.729,6.013,20.336c-5.6,13.97-9.549,25.582-14.205,38.432"/>
	<path fill="none" stroke="#000000" stroke-width="1.5024" d="M14.577,105.355c1.296-16.858,2.711-34.07,3.418-50.691
		c0.413-8.724,3.772-13.793,11.729-13.085c9.019,0.825,12.555,7.427,11.611,17.801c-1.531,16.858-1.886,30.18-2.888,45.977"/>
	<path fill="none" stroke="#000000" stroke-width="1.0001" d="M240.624,35.742c-5.48-5.305-10.964-5.363-16.387-0.235
		c-2.239,9.077-1.649,17.802,7.074,20.276C237.618,57.611,241.92,51.598,240.624,35.742z"/>
	<path fill="none" stroke="#000000" stroke-width="1.0001" d="M305.048,42.167c-4.065-6.425-9.37-7.84-15.854-4.126
		c-4.303,8.252-5.837,16.858,2.003,21.396C296.915,62.738,302.514,57.905,305.048,42.167z"/>
	<path fill="none" stroke="#000000" stroke-width="1.0001" d="M105.938,56.903c-3.537-6.778-8.665-8.605-15.502-5.482
		c-4.952,7.839-7.191,16.327,0.294,21.516C96.095,76.649,102.107,72.346,105.938,56.903z"/>
	<path fill="none" stroke="#000000" stroke-width="1.0001" d="M37.741,49.948c-5.246-5.481-10.728-5.776-16.387-0.825
		c-2.476,8.959-2.239,17.742,6.425,20.571C33.969,71.698,38.507,65.862,37.741,49.948z"/>
	<path fill="none" stroke="#000000" stroke-width="4" d="M220.819,0.023c-0.236,20.688-0.825,35.837-2.476,42.852
		c-1.711,7.191-3.949,1.65-4.656,0c-2.947-7.604-1.71-16.092-2.416-24.462c-0.648-7.486-5.07-9.372-8.548-4.42
		c-2.652,3.713-1.001,7.839-0.53,12.438c2.829,26.348,2.476,52.812,3.714,79.22"/>
	<path fill="none" stroke="#000000" stroke-width="4" d="M311.768,9.808c-0.472,11.376-0.885,22.163-1.18,33.539
		c-0.354,11.258,1.475,11.905,3.892,8.782c2.534-3.301,4.716-10.196,6.365-18.803c1.826-9.373,3.596-14.5,5.836-14.441
		c2.062,0.06,1.296,5.776,0.295,16.622c-2.417,24.874-5.718,47.272-9.313,70.143"/>
	<path fill="none" stroke="#000000" stroke-width="4" d="M21.237,0.73c0.59,15.502,0.295,29.59-2.122,41.497
		c-0.059,0.354-2.888,9.783-4.715,0.529c-2.123-11.021,0.117-19.923-3.892-25.816c-1.768-2.652-6.837-2.122-7.309,2.062
		c-3.124,28.765,0.413,57.824,4.185,86.646"/>
	<path fill="none" stroke="#000000" stroke-width="4" d="M112.835,9.336c-2.771,12.614-4.833,25.229-4.421,37.9
		c0.236,7.604,2.711,7.604,4.421,6.249c6.189-4.894,8.075-15.62,10.963-26.112c2.24-8.016,5.481-2.062,5.481-0.235
		c0.531,27.173-5.363,53.226-10.138,79.042"/>
	<g>
		<g enable-background="new    ">
			<path d="M49.801,130.13l0.927,0.234c-0.194,0.762-0.544,1.342-1.049,1.741c-0.505,0.4-1.122,0.6-1.851,0.6
				c-0.755,0-1.369-0.153-1.842-0.461c-0.473-0.308-0.833-0.752-1.08-1.335c-0.247-0.583-0.37-1.209-0.37-1.878
				c0-0.729,0.139-1.365,0.418-1.908s0.675-0.956,1.19-1.237c0.514-0.282,1.08-0.423,1.698-0.423c0.701,0,1.29,0.178,1.768,0.535
				c0.478,0.356,0.811,0.858,0.999,1.505l-0.913,0.215c-0.162-0.51-0.398-0.881-0.707-1.113s-0.697-0.349-1.166-0.349
				c-0.539,0-0.988,0.129-1.35,0.387c-0.362,0.258-0.616,0.604-0.762,1.039s-0.22,0.883-0.22,1.345c0,0.596,0.087,1.116,0.26,1.561
				c0.174,0.444,0.443,0.776,0.81,0.996c0.366,0.22,0.763,0.329,1.189,0.329c0.519,0,0.958-0.149,1.319-0.449
				C49.43,131.164,49.674,130.719,49.801,130.13z"/>
			<path d="M51.439,130.049c0-0.939,0.261-1.636,0.784-2.088c0.437-0.376,0.968-0.563,1.596-0.563c0.698,0,1.268,0.229,1.71,0.686
				s0.664,1.089,0.664,1.895c0,0.652-0.098,1.166-0.294,1.541c-0.196,0.374-0.481,0.664-0.855,0.871
				c-0.375,0.207-0.783,0.311-1.226,0.311c-0.71,0-1.284-0.228-1.722-0.683C51.658,131.561,51.439,130.906,51.439,130.049z
				 M52.323,130.049c0,0.65,0.142,1.137,0.425,1.46c0.284,0.323,0.64,0.484,1.07,0.484c0.427,0,0.782-0.162,1.065-0.487
				c0.284-0.324,0.425-0.819,0.425-1.485c0-0.628-0.143-1.103-0.428-1.427c-0.285-0.323-0.639-0.484-1.063-0.484
				c-0.43,0-0.787,0.161-1.07,0.482C52.465,128.914,52.323,129.399,52.323,130.049z"/>
			<path d="M57.192,132.586v-5.074h0.774v0.77c0.198-0.359,0.38-0.598,0.547-0.712c0.167-0.114,0.351-0.172,0.552-0.172
				c0.29,0,0.584,0.093,0.884,0.277l-0.296,0.798c-0.21-0.124-0.42-0.187-0.63-0.187c-0.188,0-0.357,0.057-0.506,0.17
				c-0.15,0.112-0.256,0.27-0.32,0.47c-0.096,0.307-0.143,0.641-0.143,1.004v2.656H57.192z"/>
			<path d="M60.45,132.586v-5.074h0.774v0.77c0.198-0.359,0.38-0.598,0.547-0.712c0.167-0.114,0.351-0.172,0.552-0.172
				c0.29,0,0.584,0.093,0.884,0.277l-0.296,0.798c-0.21-0.124-0.42-0.187-0.63-0.187c-0.188,0-0.357,0.057-0.506,0.17
				c-0.15,0.112-0.256,0.27-0.32,0.47c-0.096,0.307-0.143,0.641-0.143,1.004v2.656H60.45z"/>
			<path d="M67.191,130.952l0.889,0.109c-0.14,0.52-0.399,0.923-0.779,1.209c-0.379,0.287-0.863,0.43-1.452,0.43
				c-0.742,0-1.331-0.229-1.766-0.686c-0.435-0.457-0.652-1.098-0.652-1.923c0-0.854,0.22-1.516,0.659-1.987s1.01-0.707,1.71-0.707
				c0.678,0,1.232,0.23,1.663,0.692s0.645,1.112,0.645,1.949c0,0.052-0.001,0.128-0.005,0.229H64.32
				c0.032,0.558,0.189,0.984,0.473,1.28c0.284,0.297,0.637,0.444,1.061,0.444c0.315,0,0.584-0.082,0.807-0.248
				C66.884,131.579,67.061,131.315,67.191,130.952z M64.368,129.561h2.833c-0.038-0.427-0.146-0.747-0.325-0.96
				c-0.274-0.331-0.629-0.497-1.065-0.497c-0.395,0-0.727,0.132-0.997,0.396C64.545,128.765,64.396,129.119,64.368,129.561z"/>
			<path d="M72.471,130.727l0.846,0.109c-0.093,0.583-0.329,1.039-0.709,1.369c-0.381,0.33-0.848,0.494-1.402,0.494
				c-0.694,0-1.253-0.227-1.675-0.681s-0.633-1.104-0.633-1.951c0-0.548,0.091-1.027,0.272-1.438
				c0.182-0.411,0.458-0.719,0.829-0.924c0.371-0.206,0.775-0.309,1.211-0.309c0.551,0,1.001,0.14,1.352,0.418
				c0.35,0.278,0.575,0.675,0.673,1.188l-0.836,0.129c-0.08-0.341-0.221-0.598-0.423-0.77s-0.447-0.258-0.733-0.258
				c-0.433,0-0.785,0.155-1.056,0.466c-0.271,0.311-0.406,0.802-0.406,1.474c0,0.682,0.13,1.177,0.392,1.486
				c0.261,0.309,0.602,0.463,1.022,0.463c0.338,0,0.62-0.104,0.846-0.311S72.41,131.157,72.471,130.727z"/>
			<path d="M75.929,131.816l0.125,0.76c-0.242,0.051-0.459,0.076-0.65,0.076c-0.312,0-0.554-0.049-0.726-0.147
				c-0.172-0.099-0.293-0.229-0.363-0.39s-0.105-0.499-0.105-1.016v-2.919h-0.631v-0.669h0.631v-1.256l0.855-0.517v1.772h0.865
				v0.669h-0.865v2.967c0,0.246,0.015,0.403,0.045,0.474s0.08,0.126,0.148,0.167c0.068,0.041,0.166,0.062,0.293,0.062
				C75.648,131.85,75.774,131.839,75.929,131.816z"/>
		</g>
	</g>
	<g>
		<g enable-background="new    ">
			<path d="M241.773,132.586v-7.004h0.926v7.004H241.773z"/>
			<path d="M244.223,132.586v-5.074h0.774v0.722c0.372-0.558,0.91-0.836,1.614-0.836c0.306,0,0.587,0.055,0.843,0.165
				c0.257,0.109,0.449,0.254,0.576,0.432c0.127,0.179,0.217,0.391,0.268,0.636c0.031,0.159,0.048,0.438,0.048,0.836v3.12h-0.86
				V129.5c0-0.351-0.033-0.612-0.1-0.786c-0.067-0.174-0.186-0.312-0.356-0.416s-0.37-0.155-0.6-0.155
				c-0.366,0-0.683,0.116-0.948,0.349s-0.398,0.674-0.398,1.323v2.771H244.223z"/>
			<path d="M252.976,130.727l0.846,0.109c-0.093,0.583-0.329,1.039-0.709,1.369c-0.381,0.33-0.849,0.494-1.402,0.494
				c-0.695,0-1.254-0.227-1.676-0.681s-0.633-1.104-0.633-1.951c0-0.548,0.092-1.027,0.272-1.438
				c0.182-0.411,0.458-0.719,0.829-0.924c0.371-0.206,0.775-0.309,1.211-0.309c0.551,0,1.002,0.14,1.353,0.418
				s0.575,0.675,0.673,1.188l-0.836,0.129c-0.079-0.341-0.221-0.598-0.422-0.77c-0.203-0.172-0.447-0.258-0.734-0.258
				c-0.433,0-0.785,0.155-1.055,0.466c-0.271,0.311-0.406,0.802-0.406,1.474c0,0.682,0.13,1.177,0.391,1.486
				c0.262,0.309,0.603,0.463,1.023,0.463c0.338,0,0.619-0.104,0.846-0.311C252.772,131.475,252.916,131.157,252.976,130.727z"/>
			<path d="M254.238,130.049c0-0.939,0.261-1.636,0.783-2.088c0.437-0.376,0.969-0.563,1.596-0.563c0.697,0,1.268,0.229,1.711,0.686
				c0.442,0.457,0.664,1.089,0.664,1.895c0,0.652-0.099,1.166-0.295,1.541c-0.195,0.374-0.48,0.664-0.854,0.871
				s-0.782,0.311-1.226,0.311c-0.711,0-1.284-0.228-1.723-0.683C254.457,131.561,254.238,130.906,254.238,130.049z M255.122,130.049
				c0,0.65,0.142,1.137,0.425,1.46s0.641,0.484,1.07,0.484c0.427,0,0.781-0.162,1.065-0.487c0.284-0.324,0.425-0.819,0.425-1.485
				c0-0.628-0.143-1.103-0.428-1.427c-0.285-0.323-0.639-0.484-1.062-0.484c-0.43,0-0.787,0.161-1.07,0.482
				C255.263,128.914,255.122,129.399,255.122,130.049z"/>
			<path d="M259.99,132.586v-5.074h0.773v0.77c0.197-0.359,0.38-0.598,0.547-0.712c0.168-0.114,0.352-0.172,0.553-0.172
				c0.289,0,0.584,0.093,0.883,0.277l-0.296,0.798c-0.21-0.124-0.421-0.187-0.63-0.187c-0.188,0-0.357,0.057-0.507,0.17
				c-0.149,0.112-0.257,0.27-0.32,0.47c-0.096,0.307-0.144,0.641-0.144,1.004v2.656H259.99z"/>
			<path d="M263.248,132.586v-5.074h0.773v0.77c0.198-0.359,0.381-0.598,0.548-0.712s0.351-0.172,0.552-0.172
				c0.289,0,0.584,0.093,0.884,0.277l-0.296,0.798c-0.211-0.124-0.421-0.187-0.631-0.187c-0.188,0-0.357,0.057-0.506,0.17
				c-0.15,0.112-0.257,0.27-0.32,0.47c-0.096,0.307-0.144,0.641-0.144,1.004v2.656H263.248z"/>
			<path d="M269.989,130.952l0.889,0.109c-0.14,0.52-0.399,0.923-0.778,1.209c-0.379,0.287-0.863,0.43-1.453,0.43
				c-0.742,0-1.33-0.229-1.766-0.686c-0.434-0.457-0.651-1.098-0.651-1.923c0-0.854,0.22-1.516,0.659-1.987s1.01-0.707,1.711-0.707
				c0.678,0,1.232,0.23,1.662,0.692s0.645,1.112,0.645,1.949c0,0.052-0.001,0.128-0.004,0.229h-3.784
				c0.032,0.558,0.189,0.984,0.473,1.28c0.284,0.297,0.638,0.444,1.062,0.444c0.314,0,0.584-0.082,0.807-0.248
				S269.859,131.315,269.989,130.952z M267.166,129.561h2.833c-0.038-0.427-0.146-0.747-0.325-0.96
				c-0.273-0.331-0.629-0.497-1.064-0.497c-0.396,0-0.728,0.132-0.997,0.396C267.344,128.765,267.194,129.119,267.166,129.561z"/>
			<path d="M275.269,130.727l0.846,0.109c-0.094,0.583-0.33,1.039-0.71,1.369c-0.381,0.33-0.849,0.494-1.402,0.494
				c-0.694,0-1.253-0.227-1.675-0.681s-0.633-1.104-0.633-1.951c0-0.548,0.091-1.027,0.271-1.438
				c0.182-0.411,0.459-0.719,0.83-0.924c0.371-0.206,0.774-0.309,1.211-0.309c0.551,0,1.002,0.14,1.352,0.418
				c0.351,0.278,0.575,0.675,0.674,1.188l-0.836,0.129c-0.08-0.341-0.221-0.598-0.423-0.77s-0.446-0.258-0.733-0.258
				c-0.434,0-0.785,0.155-1.056,0.466s-0.406,0.802-0.406,1.474c0,0.682,0.13,1.177,0.392,1.486
				c0.262,0.309,0.602,0.463,1.022,0.463c0.338,0,0.62-0.104,0.846-0.311S275.209,131.157,275.269,130.727z"/>
			<path d="M278.727,131.816l0.124,0.76c-0.242,0.051-0.459,0.076-0.649,0.076c-0.312,0-0.554-0.049-0.726-0.147
				c-0.173-0.099-0.294-0.229-0.363-0.39c-0.07-0.161-0.105-0.499-0.105-1.016v-2.919h-0.631v-0.669h0.631v-1.256l0.855-0.517v1.772
				h0.864v0.669h-0.864v2.967c0,0.246,0.015,0.403,0.045,0.474s0.08,0.126,0.148,0.167s0.166,0.062,0.293,0.062
				C278.445,131.85,278.572,131.839,278.727,131.816z"/>
		</g>
	</g>
	<path stroke="#000000" stroke-width="0.0618" stroke-linecap="round" stroke-linejoin="round" d="M21.944,48.415l-0.413,8.96
		c2.122-2.535,4.598-3.95,7.957-4.303L21.944,48.415z"/>
	<line fill="none" stroke="#000000" stroke-width="1.0001" x1="23.771" y1="52.247" x2="33.026" y2="69.576"/>
	<path stroke="#000000" stroke-width="0.0618" stroke-linecap="round" stroke-linejoin="round" d="M103.581,53.485l-8.782,1.945
		c2.947,1.414,5.011,3.359,6.248,6.542L103.581,53.485z"/>
	<line fill="none" stroke="#000000" stroke-width="1.0001" x1="100.339" y1="56.255" x2="86.016" y2="69.753"/>
	<path stroke="#000000" stroke-width="0.0618" stroke-linecap="round" stroke-linejoin="round" d="M224.768,43.641l7.722,4.539
		c-1.238-3.065-1.356-5.836-0.06-9.02L224.768,43.641z"/>
	<line fill="none" stroke="#000000" stroke-width="1.0001" x1="229.012" y1="43.818" x2="243.983" y2="43.818"/>
	<path stroke="#000000" stroke-width="0.0618" stroke-linecap="round" stroke-linejoin="round" d="M305.874,46.824l-7.722-4.539
		c1.18,3.065,1.297,5.835,0.06,9.02L305.874,46.824z"/>
	<line fill="none" stroke="#000000" stroke-width="1.0001" x1="301.571" y1="46.647" x2="286.659" y2="46.647"/>
</g>
</svg>
