<?xml version="1.0" encoding="utf-8"?>
<!-- Generator: Adobe Illustrator 15.1.0, SVG Export Plug-In . SVG Version: 6.00 Build 0)  -->
<!DOCTYPE svg PUBLIC "-//W3C//DTD SVG 1.1//EN" "http://www.w3.org/Graphics/SVG/1.1/DTD/svg11.dtd">
<svg version="1.1" id="Layer_1" xmlns="http://www.w3.org/2000/svg" xmlns:xlink="http://www.w3.org/1999/xlink" x="0px" y="0px"
	 width="327.464px" height="213.309px" viewBox="0 0 327.464 213.309" enable-background="new 0 0 327.464 213.309"
	 xml:space="preserve">
<metadata><?xpacket begin="﻿" id="W5M0MpCehiHzreSzNTczkc9d"?>
<x:xmpmeta xmlns:x="adobe:ns:meta/" x:xmptk="Adobe XMP Core 5.0-c060 61.134777, 2010/02/12-17:32:00        ">
   <rdf:RDF xmlns:rdf="http://www.w3.org/1999/02/22-rdf-syntax-ns#">
      <rdf:Description rdf:about=""
            xmlns:dc="http://purl.org/dc/elements/1.1/">
         <dc:format>image/svg+xml</dc:format>
         <dc:title>
            <rdf:Alt>
               <rdf:li xml:lang="x-default">DW Fig 3-2C [Converted]</rdf:li>
            </rdf:Alt>
         </dc:title>
      </rdf:Description>
      <rdf:Description rdf:about=""
            xmlns:xmp="http://ns.adobe.com/xap/1.0/"
            xmlns:xmpGImg="http://ns.adobe.com/xap/1.0/g/img/">
         <xmp:CreatorTool>Adobe Illustrator CS5.1</xmp:CreatorTool>
         <xmp:CreateDate>2015-02-12T17:07:18+02:00</xmp:CreateDate>
         <xmp:ModifyDate>2015-02-12T17:07:19+02:00</xmp:ModifyDate>
         <xmp:MetadataDate>2015-02-12T17:07:19+02:00</xmp:MetadataDate>
         <xmp:Thumbnails>
            <rdf:Alt>
               <rdf:li rdf:parseType="Resource">
                  <xmpGImg:width>256</xmpGImg:width>
                  <xmpGImg:height>168</xmpGImg:height>
                  <xmpGImg:format>JPEG</xmpGImg:format>
                  <xmpGImg:image>/9j/4AAQSkZJRgABAgEBLAEsAAD/7QAsUGhvdG9zaG9wIDMuMAA4QklNA+0AAAAAABABLAAAAAEA&#xA;AQEsAAAAAQAB/+4ADkFkb2JlAGTAAAAAAf/bAIQABgQEBAUEBgUFBgkGBQYJCwgGBggLDAoKCwoK&#xA;DBAMDAwMDAwQDA4PEA8ODBMTFBQTExwbGxscHx8fHx8fHx8fHwEHBwcNDA0YEBAYGhURFRofHx8f&#xA;Hx8fHx8fHx8fHx8fHx8fHx8fHx8fHx8fHx8fHx8fHx8fHx8fHx8fHx8fHx8f/8AAEQgAqAEAAwER&#xA;AAIRAQMRAf/EAaIAAAAHAQEBAQEAAAAAAAAAAAQFAwIGAQAHCAkKCwEAAgIDAQEBAQEAAAAAAAAA&#xA;AQACAwQFBgcICQoLEAACAQMDAgQCBgcDBAIGAnMBAgMRBAAFIRIxQVEGE2EicYEUMpGhBxWxQiPB&#xA;UtHhMxZi8CRygvElQzRTkqKyY3PCNUQnk6OzNhdUZHTD0uIIJoMJChgZhJRFRqS0VtNVKBry4/PE&#xA;1OT0ZXWFlaW1xdXl9WZ2hpamtsbW5vY3R1dnd4eXp7fH1+f3OEhYaHiImKi4yNjo+Ck5SVlpeYmZ&#xA;qbnJ2en5KjpKWmp6ipqqusra6voRAAICAQIDBQUEBQYECAMDbQEAAhEDBCESMUEFURNhIgZxgZEy&#xA;obHwFMHR4SNCFVJicvEzJDRDghaSUyWiY7LCB3PSNeJEgxdUkwgJChgZJjZFGidkdFU38qOzwygp&#xA;0+PzhJSktMTU5PRldYWVpbXF1eX1RlZmdoaWprbG1ub2R1dnd4eXp7fH1+f3OEhYaHiImKi4yNjo&#xA;+DlJWWl5iZmpucnZ6fkqOkpaanqKmqq6ytrq+v/aAAwDAQACEQMRAD8A9U4q7FXYq7FXYq7FWBea&#xA;/wA7vIPl25+ofXH1bWCSqaXpafWpywH2TxPBT7M1fbFUkXzV+fHmXfQvLNn5XsXNBd65K0lxx8RB&#xA;GAyH2ZDiq7/lVP5k6ryfzH+ZGoDn1t9IiSwVfYOhFR/sfniqoP8AnHTyXIP9P1PW9Rc1rJdX7sxr&#xA;1rwVBvirR/5xm/KKnwabOj/sut3cVU9iKudxituf/nHnyxEOWl67r2kyg8le11Bh8Xieat7dDiqw&#xA;/lv+bmkEP5d/MOa7VRQWmt263Aag/an/AHj/AHLXFVI/mH+cHln/AJS/yYNWskHx6p5ecy7A05G2&#xA;cs/uSeIxVlfk782vIXm5hDpOpot/0bTbkehcgjqPTenKnfhXFWYYq7FXYq7FXYq7FXYq7FXYq7FX&#xA;Yq7FXYq7FXYq7FXYq7FXYq7FXYqxHz9+aHljyXBGl/I11qtztYaPaj1LqdjstEH2VJ25N9FTtirC&#xA;o/Kf5p/mPSfzjev5T8sSGqeXNPal3NGegupu1e60/wBipxV6H5S8geT/AClaiDQNLhszSklwF5zy&#xA;f68z8pG+RNPDFWQYq7FXYq7FXYq7FXYqxLzl+VXkfzeDJq2nIt/sY9Ttv3N2jDowlX7VOweo9sVY&#xA;RIfzc/LM+oXk89+TY/t121a1jA3Nd/VVR8/9gMVeieS/PnljzlpY1LQLxbiIUE8J+GaFiK8ZYzup&#xA;/A9icVZBirsVdirsVdirsVdirTMqqWYgKBUk7AAYqpxXdpNEksM0ckUh4xyIwZWPgCDQ9MVVOac+&#xA;HIc6cuNd6dK0xVvFXYq7FXYq7FXYq7FXYq8y8+/mhqn6Z/wV5AgTVPN8oIurk/Fa6cnQyXDbrzHZ&#xA;T0PUE0Uqpj+Xv5S6V5XmfWdRnbW/N13Vr3XLqrScm+0sIavpr28SPbbFWeYq7FXYq7FXYq7FXYq7&#xA;FXYq7FXYq8y87flE8mq/4u8iXI0DzjDVnKfDaXo6tHcxj4fip9qm/cE0IVTD8t/zSh8zSz6FrNqd&#xA;F856aKalo8u3KlP3sBP20Na96V7ijFVnuKuxV2KuxVQe+t1cxqTLKNjHGObA9g1Nlr/lUGKtK99I&#xA;wIRII61+M83I8CqkKvz5HFWKfmrCJdBsfrMUlxosepWr67bxI8hexDHmHjT4njEnBpBQ/CDtirEL&#xA;+Hytf31onk23m021m1zTjcapZRrHaPL9XnVmtY3DReoiBRI/pUqRWpGFUBHr/nKWeypeyJqUj22m&#xA;yaoLaD12hXzJLYl2/d8Tyt0DMKcf2qCuKvT/ACPJqn1HULbUbyW/kstQubaG6nVFleFGBj5+msak&#xA;hWpUKK4FZFirsVdirsVdirsVeZfmh591n9KQeQPJVJfN+qJW5ugfg061b7VxIR0fiaqOo2PUqCqy&#xA;T8u/y70TyPon1CwrPeTn1dS1KXea5mPV3O5pUnitdvnUlVlOKuxV2KuxV2KuxV2KuxV2KuxVLLi9&#xA;uk8z6fZK9LWeyvZpY6DeSGW1WM1pXYTP374qmeKuxVgP5oflenmlLfWdGuP0V5y0r95pOrR/CSV3&#xA;EMxH2o2+mle4JBVX/lX+Y7+abO50zWIP0f5v0VvQ1rTWHE8ht68YP+63/D5UJVZtNd28LBHf94RU&#xA;RKCzkeIRasfuxVT9a9l/uoRCv88xqfmEQmv0sMVd9SD73MrzeKE8Y/ccFpUez8sVRCRpGgSNQiLs&#xA;qqKAfIDFW8VdirsVdirsVdirsVdirsVdirEfzQ8/QeS/LEl+kf1nVbpha6PYDdp7qTZBxG5VftNT&#xA;5dSMVQP5Tfl9P5Y0qfUtZf635u1tvrWuXzHk3NviEKt/LHWm2xPtTFWeYq7FXYq7FXYq7FXYq7FX&#xA;Yq7FXYqkl+3p+cdGkbaOWzv7dT4yu9rKo/4CB8VTvFWJeXfzO8qeYdf1rSNMu0mOi+istwGHGWSU&#xA;yB1hH7YjMYBZa1J+RKrJPrU8n+88DEf78mrEv3EF6/NR88VeXfm55K1q2uIfzG8tMT5m0Ra3ttCG&#xA;iW9sVH7yJghLlgvT4q06bhcVZ/5L8xaJ5j8tWWuaMFWyvk9TgAAySD4ZEen7aMOJ+WKp3irsVdir&#xA;sVdirsVdirsVdirsVdirsVdirxzynH/ysf8ANO984zgyeWPKbtp/lxDvHNdj++ugO9NuJ/1e64q9&#xA;jxV2KuxVSnu7aCSCKaQJJdOYrdT+24RpOI9+CMfoxVVxV2KuxV2KuxVZPPBbxNNPIsMKCrySMFUD&#xA;3J2GKpcvmvyu0phXWLEzKKmMXMJYD5cq98VTNHR0DowZGFVYGoI9iMVSnzNZXU9jFdWSepqGmTLe&#xA;2kWw9QoGSSIE7Aywu8YPYtXFULrGn2Hnbyq1rbapd2VhqC8ZbnT2jinKbrJCzSxy8N/hcUDCnE9x&#xA;irGPJv5CeTPJ+sR6vol1qMV4nwsWuFKSRkgmORBGoZTTFXpGKuIBFDuDirxzy4v/ACrj827jyvun&#xA;lXzkXvdEAHwW9+v99APAMOn+wHjir2PFXYq7FXYq7FXYq7FXYq7FXYq7FXYqwL87vNdz5d8g3n1C&#xA;p1jVnTS9LRSAxnuqrVfdU5MPemKp75A8pWvlLyfpegQAVs4VFxIP92Tv8cz/AOykYke22KsgxV2K&#xA;uxVKPNljNd6HO1qvK/syt7YDubi2YSxrUdnK8G/ySRiqY2N5b31lb3ts3O3uo0mhfxSRQyn6QcVV&#xA;sVdirsVdiqQefbe3uvKt5a3ESTRXDQQ+nIAyFpJ41WqmoajEfD36Yqkcui2flHWNPjs41/wlq0/1&#xA;KfSpAZIbK7mqYJrZWDCKKZ/3Txii8mUqB8VVU/m8l6BzaWwhbSbptzc6a31Vi1a1dY6Ry/KRGGKq&#xA;Dapregj/AHN01DSh/wBLe3j4ywr43cC1HEd5YtvFFUVxVWm0MvOdW8vXy2U93SWaiieyuqr8MkkQ&#xA;ZPiK0/eRurEU5FgAMVbGpea4DS60WO6A/wB2WF0jE+/C5W2Cn25n54quOvauR8PlvUOXblLp4Wvu&#xA;RdsafRiqcqSVBI4kjceGKsA/PHypPrvkW4urAlNb0Fl1XSZ0H7xZbX42C+7IDT3pirI/Ivmi381e&#xA;UNK1+CgF/Aryou4SYfDKnU/ZkVlxVPcVdirsVdirsVdirsVdirsVdirsVeT+al/xL+fHlnQjV7Hy&#xA;vZy65dgfZ+sSMI4AfdGCMPnir1jFXYq7FXYq7FUj8lr6WhLZjZdPuLqyjXwit7iSOEf8iVTFU8xV&#xA;2KuxV2KpJ5orMdHsBsLzUrereAtA9/8Aj9U4/Tiqh+YVjeXnkzVFsVZ7+2jW9sUTdmuLKRbqFV9z&#xA;JCoGKpzpmpWWp6dbajYyiazvIknt5V6MkihlP3HFUTirHLOP9A+YE06MEaNrHqPYxj7NveIpklhX&#xA;wSaMNKq9FKv/ADABVkE9xBbwvNPIsMMYq8sjBVUeJY7DFWra5trq3iubWVJ7aZRJDNEwdHRhVWVl&#xA;qCCOhGKqmKuIBBBFQdiDiryb8j/9wWsec/ITmiaHqRutOjOxFnfL6kaj2UAH/ZYq9ZxV2KuxVKPM&#xA;/mzQvLFjDfa1Oba1nuI7RJeLMPVmrw5cQaDbcnYYqqf4l0b/ABN/hkT11n6mdRNsFba2Eoh5lqcR&#xA;8bUpWuKpgs0LcOLqfUrwoQeVOtPHFUrn82+XoNQfTmu1a9jNoJIUDMV+vyNFbmoFKO6Hvt3pUYqm&#xA;yOjoHRgyMKqwNQR7EYq3irsVdiryn8qf9yv5k/mR5jdudNQi0i3b+VbFDG4HsaL+vFXq2KuxV5V5&#xA;O/5yJ8n+ZfOEnlpbeexlaRotPurgp6dw6MRxoDVGb9kHr064q9VxV2KpJ5dATUPMMQ+ympAr4/vL&#xA;K2lP/DSHFU7xV2KuxV2KpF5qlFqdI1KTa10/UEku2/kjngmtOZ8FR7lWY9lBOKp7irFrvyDbRtLP&#xA;5e1K88v3Tu8qrayGSz9VySzNYzc7ejMasEVCTvWu+Ko7ylrl3q2nTDUIUt9X064ksdUhiLGITxUP&#xA;OIt8Xpyxukqct+LCu+KrfOqhPL8t8BV9Kki1FT3AtJFlkp/rRK6n2OKvI/zW/IHzx5nllvLHzdPq&#xA;S/E6aXqZ9ONd+QWMwKsQ9v3Q+eKvYfL+nX8Gg6dBcSzWs8VrDHLbD6uwjdYwGQFUZSFIpscVR/1S&#xA;f/ltm+6H/qnirvqk/wDy2zfdD/1TxV5ZeW8uj/8AORWnstzIqeZtElhd6R8mns3Mn8nHaKMdq4q9&#xA;T+qT/wDLbN90P/VPFXfVJ/8Altm+6H/qnirvqk//AC2zfdD/ANU8VY35/wDKU3mPS9N0twbq1+vK&#xA;+oFyin6s0M0Uh2CgkeoNgK4qwM/lp59v7B7vVDEddu9PurS9dZgFdYrjTRbwchWiXMNhMz06GQg4&#xA;VTDS/KXmrTNcg13T/L8dnp0eoyzW/lqGe3jNvHNYC2eUFP3C85l5siMdt92JGKoHTfyr1kyQR6rp&#xA;FtMtzZ6AmoTo8RAfTbt3u4WqebLJGyHuGCUO9Bir0PyJ5el0HT9QsDbpaWh1K8n0+2i4iNLaWXnG&#xA;ERPhRd/sjpgVkmKuxV2KvLf+cdAJPJep3/V9R1u/upDWtWZ1Ste+yYq9SxV2Kvlj/nIz8mZNGvJP&#xA;O/lqEpp8sgk1S3hqDbzMa+ugHRGbrT7Le3RSHo/5AfnMnnLSxomszAeZ7CMVZtvrcK7eqP8ALX9s&#xA;fSO9FD2DFUl8vENqXmJx9htSXifHhY2qN9zIRiqdYqhdU1K20ywmvrnkYogPgjUu7MxCoiKOrOzB&#xA;VHicVSl/NV1ZlJtZ0mbTNPkoPrrSQzJCSaAXIiZvTr/OOSDuwxVkAIIqNwcVWzQxTRPDMiyQyKUk&#xA;jcBlZWFCrA7EEYqkcega1YD09I1jhaDaK11CE3ixj+VHWS3m4jsHdqfLbFUf5f1KTU9B07UpFWOW&#xA;9tYbiSNCSqtJGGZRXfYmmKpNqGi+YdP1+51zy4La4XUUjGq6VeSSW6ySwoUjuIZ0SfhJw4xsrRlW&#xA;VV3UipVSvzB5wS58va5our2E2i6zLpd68FrcFJIrlUt3MhtbiMlJeA3ZfhcDcrTfFWeYq7FXYq7F&#xA;Xln5qILb8zPyy1Naq66hd2bOO4uokUA038cVep4q7FXYq7FXYq7FXYq7FXYq7FXYq8s/5xmI/wCV&#xA;Raan7aT3auvdT9Yc0I7HfFSz661K5tfMVjaSU+o6hDKkLU3W6h/eBK9/Uh5t7cD44qmuKrLiCC4g&#xA;kt50WWCZWjlicVVkYUZSD1BBxV8d/m/+Wetfld5st/Mvlt5IdFkuPV026Qktaz7t9Xc+FK8K/aXY&#xA;9Dil9GflD+ammfmB5dW6TjBrNoFj1WxB+zJT+8Su5jelV8OnbFDIPKPx2F5cnrc6jfPXxVLqSGM/&#xA;IxxLTFU7xVI/PAH+D9YcbSw2ss9ue4nhX1ISPf1FWmKo/W9Jg1fSLvTLhmSG7jaJ3WhI5DqAwKn5&#xA;EUPfFVHy1o0mjaNBpz3H1n0C/FwpjRVZyyxxozSsqIDxVS5oBTptiqZ4q7FWOQW+vaC8sFnZjVdH&#xA;eV5beGKRIrq39VubRBZikUsYdmKkyKVFFoeuKq0mseZJv3dloEsEp/3dqFxbRwr7/wCjSXcjEeHE&#xA;V8RiqWeYPIFx5p017DzJq8ktu7B1gsYLe3SN1NVeN5kup1cDbksgqK7UNMVZeoIUAksQKFjSp99q&#xA;Yq3irsVdiry784f+Us/Lb/tvJ/xEYq9RxV2KuxV2KuxV2KuxV2KuxV2KuxV5Z/zjy4i8sa7pbVEu&#xA;k69qFq6t9rZlep/4Ijpir0DzHpcuo6YyW5VL+3dbnT5W6JcwnlHy78WPwv4qSMVVdF1aDVtMhvol&#xA;MZeqzQP9uKaNiksL/wCVHIpVvcYqjsVS/wAwaBpXmDRrrR9VgFxYXiGOaM7Gh6FT2ZTuD44q+Odb&#xA;0jzf+R35kQ3VjIZrZiWspzURXloWHKGUCnxDYMOxoR2xS+vfJlvLb+UtGjnjMVx9Tga5jYEMJnjD&#xA;S8geh5k1xQnOKpR5utbm58t6hHaxma5WL1YbcbmVoiJBFvT+84cfpxVH6dqFpqNjBfWcgltblFki&#xA;cd1YV3HY+I7Yqo67p9xqOj3dlbXT2VxPGUiuomZWRux5IVcDseLBqdCDviqU+WNV1a3EOh+Y0Mes&#xA;ASm3ugwlhuoY3PFklCxVlWMr6isiGtSBxxVkmKuxV2KuxV2KuxV2KuxV5X+Zzi7/ADY/LLS1ozC6&#xA;vr1wd6C3gV1NDt+y3ypir1TFXYq7FUPfajp+n25uL+6itLcEKZp5FiSp6Dk5A3xVbp2raVqcTS6d&#xA;ewXsSNxeS3lSVQ1K0JQsAaYqisVdirsVdirsVdiryn8tydI/Nz8w/LrgKt3Nb63aAUHIXC/v2/4O&#xA;RR88VerYqxvU1l8v6lLrcCl9Hu6HW7dAWaJ1HFb2NRWtFAWYAfZAYfZIZVkUckcsayRsHjcBkdSC&#xA;pUioII6g4qkv+F5Zdr3W9Tu0/l9aO171+1ZR2rfjiqpa+T/LFtMs6aZBJdKQRdzr69xUdKzzc5TT&#xA;/WxVOMVdirsVSOfyuIrmW60a+l0madzLcRRKkltLI32neCRWAZjuzRlGY9ScVbOneb3or61bRoOr&#xA;QWBWQ/MyXEyV/wBhirUfl29kv7K61DVprxbCVp7eH04Yl9Vonh5MY0DEBJW2r88VTzFXYq7FXYq7&#xA;FXYq7FXYq8piZta/5yPlZWrbeVtDEbAb0ubx+X0Vik/DFXq2KqU13bwsEd/3hFREoLOR4hFqx+7F&#xA;VP1r2X+6hEK/zzGp+YRCa/SwxVh35sRXY8t6e6SSF4NVsppbiK1e8MaLJVn+rRBndU/l3wqxrU/N&#xA;esaV5bi8xaTeT6tJp961vdWjabPpCzLfxCC2X0JxF6jJd+mefgzDFVBZfzM03zfY6XNd3l0LWXT4&#xA;YJeNxJBd27Rxm+llKwNDUv6lWeZTH8PEEbMq9mwK7FXYq7FXYq8l/MRv8M/m/wCTPN1Allqofy9q&#xA;km4H70l7YtTb+8apJ7L9yr1rFXYqkVno+oaRqSrpZR9DuWJnsJGKm1civO1NCPTY/aiOwJqpG6lV&#xA;PcVdirsVdirsVdirsVdirsVdirsVdirsVdirsVULy+s7KBp7uZIYkUszOabKKmnjtiryn8iBfanB&#xA;5k88NbfvfNWpSS2zyngos7ZmihXbk1VJYfZpt1xV6p9Umk/3ouGYfyRViX5/CS//AA1MVVoYIYVK&#xA;wxrGpNSFAFT4mmKr8VdiqC1DRdK1GeznvrVLiWwl9ezaQV9OUbB1HTkO3hiqNxV2KuxV2KuxV2Ks&#xA;Q/Nryc3m7yFqekwj/TwgudNYbEXUB5x0PblThXwOKt/lT5yHm/yNp2rSH/T1X6tqcfQpdwfDKGG1&#xA;OWz08CMVZdirsVdirsVdirsVdirsVdirsVdirsVdirsVWySxxIZJXVEHVmIAFdupxVQ+uNJtbQtL&#xA;4SN+7j/4JviI91U4q70LqX++m4L/AL7h22PUFzVj8144q83/AD01aSw8rQ+WdGSvmDzhOulWhBJf&#xA;0pCBO7tu5UI3A+HLwGKs/wDLWg2fl/y/p+iWYpbafBHbxnu3BaFj7sfiPviqZYq7FXYq7FXYq7FX&#xA;Yq7FXYq7FXYq7FXjbP8A8qz/ADdZn/d+TvPcleewitdWHWp6Kstfx8ExV7JirsVdirsVdirsVY35&#xA;+8/6D5G0L9M616rW5lWCOG3VXld3BNFVmRdgpJJYYqlPk384PL3m/T3v9GsdQlgif07hfSieSJiK&#xA;jnHFLIw5dtsVT7/Gvl9TS5knsR3e+tbq0jH/AD0njjj+nlTFUzsNU0zUYfW0+7hvIf8AflvIkq/e&#xA;hIxVE4q0zKqlmICgVJOwAGKof6/G/wDvOrXJ8YwOH/IxiqH6DXFXcL+X7ci26/yxfG3/AAbgD6OH&#xA;04qujsraNxIE5yjpLIS7iu1AzVIHsMVV8VWTzwwQyTzusUMSl5ZHIVVVRVmYnoAMVeQ/lvFL5+8/&#xA;6h+Zd2h/Qthz0zyjG4IqikrPc8T0LVIr7kfs4q9hxV2KuxV2KuxV2KuxV2KuxV2KuxV2KuxVIPPX&#xA;kzS/OPli80DUhSK5WsMwFWhmXeOVfdT94274qxH8o/O2qvNdeQ/Nx9LzfoI4B26X1ou0dzGT9o8a&#xA;cvHr1rRV6birsVdirsVdirC/M3lXSPO+oarpOrxmXTbOzS0QrQMl1dMJ5HUkGjxpFAVP+UR0JxV8&#xA;uXdt53/Iz8wxLATLbNUQysCLe/tCRVWpWjDv3Vt/mp5vrPyd+YHlrzX5YTzDp90kdmqk3izMqG2d&#xA;RV0mJoF4+PQjfpih5hpf5ueQ/OP5qnQYNNgk0/6vKllqxjWK7ub5ZEZfRmBjeNPTV+PxAsfDFaen&#xA;LoHmGCraXq8tpFT4LW//ANyK79+blJ1Yf8ZnHt4qrBqV7p7BvMWlyuq7/pK1LX1uCP2miCpLEfEr&#xA;CVHd8Kshsb+xv7ZLqxuI7q2f7E0LB0P+yUkYFV8VdirsVePfmZreoeePMi/lb5ZmZIPhl84arHut&#xA;vaggm2Vuhkf9of7Hpzoq9V0fSNP0fS7XS9OhEFjZRLDbwr0VEFBv3PicVRmKuxV2KuxV2KuxV2Ku&#xA;xV2KuxV2KuxV2KuxVgX5pflvJ5mgtdZ0Ocad5z0U+ro2ojapBqYJtjyRt6V6E+BYFVr8r/zQTzSl&#xA;xo2s2/6K85aV+71bSZPhJK7GaEH7UbfTSvcEEqs+xV2KpDql7c6RrUF9PKzaLfBLS5DH4bW45H0Z&#xA;vZJS/pv4NwP8xxVPsVS3Q9LlsY7x52WS6vrua6mda0ozcIV3A+xAkafRiqW/mB5B0Lzx5em0bVo+&#xA;tXtLpR+8t5qUWRP4joRtir5DjPmP8ofOs+ja/YxanpEzIb/TJlElnf2wascqrIGXkvVSRVW2PfFL&#xA;6q8naJ+U2v6Pa6/5e0DSTa3KhkkjsbZJEYGpRwqVV0bqMUM2xV2KrUjjTlwULyJZuIAqx6k074qu&#xA;xV2KvMPzG/MfUpNT/wAB+RKXnnK7HG5uV3h02E05TTPRlDgHZe3z4hlWTfl1+X+meSdBGn2zG5vp&#xA;29fVNSkqZbm4b7UjEljT+UV2+dTirKcVdirsVdirsVdirsVdirsVdirsVdirsVdirsVdirBfzH/K&#xA;yy81tb6tp1y2jebtN+PTNag2YMOkc1N3jPT2+VQVUm8p/m7eWOqR+U/zJt10PzGKLa6gdrG+HQPF&#xA;J9lWbw6V8D8OKvUwQRUbg4qp3Vrb3dtLa3MazW86NHNE4qrIwoysD1BGKse06+n0G6h0TVpWkspW&#xA;9PRtVlavP+W1uGPSZRsjH+8H+XWqrJcVdirDvzQ/LPRvP3l5tOvaQXsNZNOvwoLwyU/FG/aXv8wM&#xA;VfOH5Qaj57/Lr82IfJ11ayGPUrmO21CxNWQo5ot3ERtRV+LkOq1B9lJfYGKHYq7FVk88FvC89xIs&#xA;MESlpJZGCoqjclmNAAMVeQ61+ZfmXzzqM3ln8rV/0aNvS1bzhKCLa3U/aW2r9uQjofu2+MKs3/L/&#xA;APLnQPJOlta6crT3tweeo6pN8Vxcy1JLSN4VY0Xt86nFWVYq7FXYq7FXYq7FXYq7FXYq7FXYq7FX&#xA;Yq7FXYq7FXYq7FUo80eU/L3mjSpNL12yjvbN+iuKMjUpzjcUZGHipxV5onlj81/y4NfKdx/i/wAp&#xA;x/Z0C+cJfW6D9m3n6MAO33JXfFWQeV/zz8i61cfo+9nk8va2p4S6Vq6/VZVfwDv+7Newry9sVZ3d&#xA;2llqFnJbXUSXNpcJxkicB0dG8R0OKscu4vNOhWksVhI2p6fxIt5pUa5vbTbblHzia8jX/XEv/GQ4&#xA;q8V1fy5+c2q+ZdJ1nUtV/wAV+Uor6B7y103lHGiJIOaT6d+5csi/aQ8jvQ98Kvov09S/3/D/AMiW&#xA;/wCquBWvR1DkG9aDkAQG9FqgGlR/e+2Kt+nqX+/4f+RLf9VcVU7iS6toXnuLy2hgjHKSWSMqqjxL&#xA;GUAYq831789dLhvDpPlRT5v15to7PTIHaEHxkuPUZAviV5UxVAn8s/zE8+yJdfmRqkdjpQYPF5T0&#xA;0sITTcC5lVwzH5OfYrir0/SdEXSNPh07S0tLOxt14w28NuURR8hJ1Pc98VRfp6l/v+H/AJEt/wBV&#xA;cVd6epf7/h/5Et/1VxV3p6l/v+H/AJEt/wBVcVd6epf7/h/5Et/1VxV3p6l/v+H/AJEt/wBVcVd6&#xA;epf7/h/5Et/1VxV3p6l/v+H/AJEt/wBVcVYr+Z93c22hadHLdSWem3WpWttrl9bu0DRWchYO3qAl&#xA;olaTgjNyFFY74qw6/wBeufL2v3WkeR9QE9hKNKhb61LLqNpZ3d/fragKzSGQF4W5tH6g6Bv2sKqE&#xA;Pm3zbpV3q1vcapY6kkurXOnXGnKksd0GGn+u1zEwncxRK0dREF2Uk864qs0/zv5l08T8NQR5746P&#xA;BYWrwy3LRrLpv1qVYVkuI1LUU/FLKo6sSTtirN/yt816h5p0lNXvgiTzWypIkJHpF4L29tzIoDyq&#xA;OYhDHi7D/KI3wKxHV/PnnHToo9fvPqdyoXW2061RLiJYksZfRVrhlmZZQQodv3Y4itPHCrrPzf5r&#xA;s/Mmpae2uabPLfana2p1x4pPqFug01rrgsH1iiySmPiP31O/XbFUE/52+chaWcsNjb3JSzF9dyok&#xA;SwXAe8ntgsck15bmJOMIowSQljQgD7Sr3LArsVdirsVdirsVSTzN5J8peaLf6vr+lW+oIBRHlWki&#xA;f6kq8ZE/2LDFWBf8qM1DRCX8h+cdT8vr9pbCci+swfaKTjT6eWKrhN/zkhpDFHt9C8zQAfDJG0lp&#xA;cH/W5GOIfIA/PFV6/mf+alvVdS/LG7Dr1a0voLgGnXZU+7c1xVcfzh820PH8tteLdgVUCvuaYqsb&#xA;8yPzfuz6emflnNGf9+3uoQRKDT+UqlR0/axVa9t/zkfrRKvd6H5WtmFKwJJeXK16/wB4JIj94/ji&#xA;rcH5BWOozJc+ePMOp+bJ1IP1eeVrezBH8sEbEr9D4q9E0Ly5oOgWYstF0+DT7UUrHbxrGCR3YgVY&#xA;+53xVMcVdirsVdirsVdirsVdirsVWTQwzxPDNGssMgKyRuAysD1BB2IxVCWuhaJaWy2trp9tb2qy&#xA;LOsEUMaRiVCGWQKoA5BlBB64q3+g9F+tPefo+2+tyqySXHox+oyv9pWenIhu+KqVz5Y8tXSlbnSb&#xA;OdSqIVlt4nHCL+7X4lOyfsjtiqLtNPsLNClnbRWyHqsKLGN2LdFA/adj8ycVW/ozTvg/0WH936gj&#xA;/dr8PrGstNtuf7Xj3xVJtW8i6Je6aun2YOjQrIJD+jo7eNXorLxkhkilgkX4yaPGaGhFCK4qidN8&#xA;n+XbDTtOsVsorlNLH+hTXSJNMjklmkDsKh2YkkimKv8A/9k=</xmpGImg:image>
               </rdf:li>
            </rdf:Alt>
         </xmp:Thumbnails>
      </rdf:Description>
      <rdf:Description rdf:about=""
            xmlns:xmpMM="http://ns.adobe.com/xap/1.0/mm/"
            xmlns:stRef="http://ns.adobe.com/xap/1.0/sType/ResourceRef#"
            xmlns:stEvt="http://ns.adobe.com/xap/1.0/sType/ResourceEvent#">
         <xmpMM:DocumentID>xmp.did:9BCC6E7E3D20681188C69098C6AB8D67</xmpMM:DocumentID>
         <xmpMM:InstanceID>xmp.iid:9BCC6E7E3D20681188C69098C6AB8D67</xmpMM:InstanceID>
         <xmpMM:DerivedFrom rdf:parseType="Resource">
            <stRef:instanceID>uuid:2aae59f4-d103-4b5d-80b6-050534f1abd7</stRef:instanceID>
            <stRef:documentID>uuid:8F63A1CF0126DF118833972942CE57BD</stRef:documentID>
            <stRef:originalDocumentID>uuid:8F63A1CF0126DF118833972942CE57BD</stRef:originalDocumentID>
         </xmpMM:DerivedFrom>
         <xmpMM:OriginalDocumentID>uuid:8F63A1CF0126DF118833972942CE57BD</xmpMM:OriginalDocumentID>
         <xmpMM:History>
            <rdf:Seq>
               <rdf:li rdf:parseType="Resource">
                  <stEvt:action>saved</stEvt:action>
                  <stEvt:instanceID>xmp.iid:9BCC6E7E3D20681188C69098C6AB8D67</stEvt:instanceID>
                  <stEvt:when>2015-02-12T17:07:19+02:00</stEvt:when>
                  <stEvt:softwareAgent>Adobe Illustrator CS5.1</stEvt:softwareAgent>
                  <stEvt:changed>/</stEvt:changed>
               </rdf:li>
            </rdf:Seq>
         </xmpMM:History>
      </rdf:Description>
      <rdf:Description rdf:about=""
            xmlns:pdf="http://ns.adobe.com/pdf/1.3/">
         <pdf:Producer>Adobe PDF library 7.77</pdf:Producer>
      </rdf:Description>
      <rdf:Description rdf:about=""
            xmlns:xmpTPg="http://ns.adobe.com/xap/1.0/t/pg/"
            xmlns:stDim="http://ns.adobe.com/xap/1.0/sType/Dimensions#"
            xmlns:xmpG="http://ns.adobe.com/xap/1.0/g/">
         <xmpTPg:MaxPageSize rdf:parseType="Resource">
            <stDim:w>115.522148</stDim:w>
            <stDim:h>75.250704</stDim:h>
            <stDim:unit>Millimeters</stDim:unit>
         </xmpTPg:MaxPageSize>
         <xmpTPg:NPages>1</xmpTPg:NPages>
         <xmpTPg:HasVisibleTransparency>False</xmpTPg:HasVisibleTransparency>
         <xmpTPg:HasVisibleOverprint>False</xmpTPg:HasVisibleOverprint>
         <xmpTPg:PlateNames>
            <rdf:Seq>
               <rdf:li>Black</rdf:li>
            </rdf:Seq>
         </xmpTPg:PlateNames>
         <xmpTPg:SwatchGroups>
            <rdf:Seq>
               <rdf:li rdf:parseType="Resource">
                  <xmpG:groupName>Default Swatch Group</xmpG:groupName>
                  <xmpG:groupType>0</xmpG:groupType>
               </rdf:li>
            </rdf:Seq>
         </xmpTPg:SwatchGroups>
      </rdf:Description>
   </rdf:RDF>
</x:xmpmeta>
                                                                                                    
                                                                                                    
                                                                                                    
                                                                                                    
                                                                                                    
                                                                                                    
                                                                                                    
                                                                                                    
                                                                                                    
                                                                                                    
                                                                                                    
                                                                                                    
                                                                                                    
                                                                                                    
                                                                                                    
                                                                                                    
                                                                                                    
                                                                                                    
                                                                                                    
                                                                                                    
                           
<?xpacket end="w"?>
	</metadata>
<g>
	<g>
		<path fill-rule="evenodd" clip-rule="evenodd" d="M90.431,198.79l11.524,4.244c-1.819-2.931-2.022-5.558-0.101-8.49L90.431,198.79
			z"/>
		<path fill="none" stroke="#000000" stroke-width="0.0326" stroke-linecap="round" stroke-linejoin="round" d="M90.431,198.79
			l11.524,4.244c-1.819-2.931-2.022-5.558-0.101-8.49L90.431,198.79z"/>
		<path fill-rule="evenodd" clip-rule="evenodd" d="M109.94,175.136l12.23-0.302c-2.729-2.023-3.942-4.349-3.233-7.783
			L109.94,175.136z"/>
		<path fill="none" stroke="#000000" stroke-width="0.0333" stroke-linecap="round" stroke-linejoin="round" d="M109.94,175.136
			l12.23-0.302c-2.729-2.023-3.942-4.349-3.233-7.783L109.94,175.136z"/>
	</g>
	<g>
		<path fill="none" stroke="#000000" stroke-width="2.96" d="M106.706,211.829c57.918,0,105.225-47.205,105.225-105.124
			S164.624,1.48,106.706,1.48C48.787,1.48,1.48,48.787,1.48,106.705S48.787,211.829,106.706,211.829z"/>
		<path fill="none" stroke="#000000" stroke-width="1.1115" d="M114.69,118.531c-0.202-0.708-0.202-1.617-0.607-2.325
			c-0.707-1.313-1.92-2.324-2.628-1.717c-1.011,1.01-0.505,2.526,0.809,3.133c2.224,1.111,4.853,1.921,6.672,4.244
			c2.123,2.831,0.809,5.258-3.032,4.65c-3.335-0.607-8.188,1.111-13.141,0.404c-8.39-1.012-12.837-6.772-11.927-13.443
			c0.505-3.538,1.314-6.469,0.202-8.592c-0.91-1.819-1.212-4.346,1.517-5.863c3.235-1.818,6.469,0.101,8.896,2.932
			c-0.607,1.213-0.607,2.628,0,3.74c0.909,1.516,3.235,1.819,3.235,0.202c0-1.718-2.022-2.728-3.134-4.042"/>
	</g>
	<g>
		<defs>
			<path id="SVGID_1_" d="M120.047,77.392c-1.111,4.85-1.111,10.411,2.022,14.657l0,0c2.224,2.929,5.66,4.445,9.4,4.243l0,0
				c1.718-0.101,2.324,0.708,2.324,3.034l0,0c0,3.335,1.012,6.671,4.043,8.389l0,0c4.043,2.324,8.896,2.324,13.04,0.709l0,0
				c4.246-1.821,8.186-3.438,12.535-3.034l0,0c-3.337-4.042-6.673-6.772-10.008-7.175l0,0c-4.447-0.607-5.964-2.528-7.176-6.976l0,0
				c-1.214-4.75-4.852-6.772-7.783-7.076l0,0c-2.83-0.202-5.56-2.121-6.571-8.491l0,0c-1.616-10.107-5.458-13.039-10.411-14.05l0,0
				C121.766,67.183,121.261,72.438,120.047,77.392"/>
		</defs>
		<clipPath id="SVGID_2_">
			<use xlink:href="#SVGID_1_"  overflow="visible"/>
		</clipPath>
	</g>
	<g>
		<path fill="none" stroke="#000000" stroke-width="1.1115" d="M121.463,61.623c0.303,5.559-0.202,10.816-1.415,15.768
			c-1.111,4.852-1.111,10.411,2.021,14.657c2.224,2.932,5.66,4.447,9.4,4.245c1.718-0.101,2.325,0.708,2.325,3.033
			c0,3.334,1.011,6.67,4.042,8.389c4.043,2.325,8.896,2.325,13.04,0.708c4.246-1.819,8.186-3.437,12.535-3.033
			c-3.337-4.042-6.672-6.771-10.006-7.176c-4.449-0.606-5.966-2.526-7.178-6.974c-1.214-4.751-4.852-6.773-7.783-7.076
			c-2.83-0.202-5.559-2.123-6.571-8.491C130.258,65.565,126.416,62.633,121.463,61.623z"/>
	</g>
	<g>
		<defs>
			<path id="SVGID_3_" d="M121.261,61.521l0.202,0.506v-0.405c4.953,1.011,8.795,3.942,10.411,14.05l0,0
				c1.011,6.37,3.741,8.289,6.571,8.491l0,0c2.932,0.304,6.569,2.326,7.783,7.076l0,0c1.212,4.448,2.729,6.368,7.176,6.976l0,0
				c3.235,0.403,6.368,2.93,9.604,6.771l0,0c1.414-15.161-1.517-25.776-7.987-32.65l0,0c-8.906-7.74-18.153-11.299-27.633-11.299
				l0,0C125.357,61.037,123.314,61.201,121.261,61.521"/>
		</defs>
		<clipPath id="SVGID_4_">
			<use xlink:href="#SVGID_3_"  overflow="visible"/>
		</clipPath>
	</g>
	<g>
		<path fill="none" stroke="#000000" stroke-width="1.1115" d="M121.261,61.522c11.624-1.819,22.944,1.415,33.76,10.816
			c6.47,6.874,9.401,17.487,7.987,32.648c-3.236-3.84-6.369-6.368-9.604-6.771c-4.447-0.607-5.964-2.527-7.176-6.975
			c-1.214-4.751-4.852-6.773-7.783-7.076c-2.83-0.202-5.56-2.122-6.571-8.49c-1.616-10.108-5.458-13.041-10.411-14.051v0.404
			L121.261,61.522z"/>
		<path fill-rule="evenodd" clip-rule="evenodd" d="M32.208,88.409L32.208,88.409c1.416-1.112,3.336-0.91,4.549,0.405l24.461,29.109
			c1.111,1.315,0.91,3.337-0.404,4.448c-1.314,1.113-3.335,1.012-4.448-0.404L31.906,92.958
			C30.794,91.543,30.895,89.623,32.208,88.409"/>
		<path fill="none" stroke="#000000" stroke-width="0.1598" d="M32.208,88.409L32.208,88.409c1.416-1.112,3.336-0.91,4.549,0.405
			l24.461,29.109c1.111,1.315,0.91,3.337-0.404,4.448c-1.314,1.113-3.335,1.012-4.448-0.404L31.906,92.958
			C30.794,91.543,30.895,89.623,32.208,88.409z"/>
		<path fill-rule="evenodd" clip-rule="evenodd" d="M90.229,160.985L90.229,160.985c1.314-1.213,3.335-1.111,4.447,0.202
			l25.775,27.898c1.112,1.315,1.112,3.334-0.203,4.548c-1.313,1.111-3.335,1.111-4.447-0.202l-25.775-27.999
			C88.815,164.12,88.915,162.097,90.229,160.985"/>
		<path fill="none" stroke="#000000" stroke-width="0.1598" d="M90.229,160.985L90.229,160.985c1.314-1.213,3.335-1.111,4.447,0.202
			l25.775,27.898c1.112,1.315,1.112,3.334-0.203,4.548c-1.313,1.111-3.335,1.111-4.447-0.202l-25.775-27.999
			C88.815,164.12,88.915,162.097,90.229,160.985z"/>
		<path fill="none" stroke="#000000" stroke-width="1.1115" d="M14.924,105.795c4.447,13.847,12.332,25.067,23.653,33.762"/>
		<path fill="none" stroke="#000000" stroke-width="1.1115" d="M65.162,175.844c7.176,12.737,17.184,22.237,30.02,28.503"/>
		<path fill="none" stroke="#000000" stroke-width="1.1115" d="M41.104,126.212c6.67-0.808,13.241-1.92,19.913-4.446
			c4.852-22.237,5.458-43.363-3.235-62.063"/>
		<path fill="none" stroke="#000000" stroke-width="1.1115" d="M83.356,179.886c2.123-6.367,3.033-12.835,6.369-19.205
			c18.8,0.202,37.601,4.65,56.402,13.443"/>
		<polygon points="252.666,131.874 252.666,121.967 259.943,121.967 259.943,123.08 253.979,123.08 253.979,126.212 259.54,126.212 
			259.54,127.425 253.979,127.425 253.979,130.661 260.145,130.661 260.145,131.874 		"/>
		<path d="M261.762,134.703l-0.102-1.211c0.304,0.1,0.506,0.202,0.708,0.202c0.306,0,0.505-0.103,0.607-0.202
			c0.202-0.103,0.304-0.204,0.403-0.404c0.101-0.102,0.202-0.405,0.406-0.911c0,0,0.1-0.101,0.1-0.303l-2.729-7.177h1.313
			l1.516,4.145c0.202,0.506,0.405,1.111,0.508,1.719c0.199-0.607,0.302-1.213,0.504-1.719l1.617-4.145h1.213l-2.729,7.279
			c-0.304,0.808-0.605,1.413-0.708,1.718c-0.203,0.403-0.506,0.707-0.81,0.909c-0.302,0.1-0.605,0.202-1.01,0.202
			C262.369,134.805,262.066,134.805,261.762,134.703"/>
		<path d="M273.892,129.549l1.213,0.201c-0.203,0.708-0.505,1.313-1.111,1.718c-0.506,0.405-1.213,0.607-2.022,0.607h-0.103v-1.012
			h0.103c0.405,0,0.81-0.1,1.111-0.403C273.386,130.458,273.69,130.054,273.892,129.549 M271.869,124.495L271.869,124.495
			c1.014,0,1.72,0.406,2.327,1.01c0.706,0.708,1.012,1.619,1.012,2.831v0.304h-3.339v-1.012h2.023
			c-0.102-0.605-0.202-1.012-0.506-1.313c-0.404-0.506-0.91-0.708-1.518-0.708V124.495z M271.869,132.076
			c-1.01,0-1.819-0.403-2.425-1.012c-0.706-0.605-1.01-1.615-1.01-2.627c0-1.213,0.304-2.225,1.01-2.831
			c0.605-0.705,1.415-1.01,2.425-1.111v1.111c-0.605,0-1.01,0.202-1.413,0.506c-0.406,0.404-0.606,0.91-0.606,1.516h2.02v1.012
			h-2.121c0,0.708,0.302,1.313,0.708,1.718c0.302,0.405,0.808,0.707,1.413,0.707V132.076z"/>
		<path d="M257.012,195.25L257.012,195.25c1.01,0,1.819,0.202,2.527,0.708c0.81,0.404,1.313,1.012,1.717,1.819
			c0.404,0.808,0.608,1.72,0.608,2.729c0,1.011-0.204,1.921-0.608,2.729c-0.403,0.81-1.01,1.415-1.819,1.819
			c-0.707,0.406-1.516,0.605-2.425,0.605v-1.111c1.01,0,1.819-0.403,2.527-1.111c0.605-0.708,0.909-1.718,0.909-2.931
			c0-0.91-0.1-1.618-0.403-2.224c-0.305-0.605-0.71-1.012-1.214-1.415c-0.506-0.305-1.111-0.506-1.819-0.506V195.25z
			 M252.26,200.609c0-1.72,0.405-3.033,1.315-3.942c0.909-0.91,2.021-1.416,3.437-1.416v1.112c-0.91,0-1.72,0.403-2.427,1.011
			c-0.606,0.606-1.01,1.718-1.01,3.235c0,1.213,0.403,2.121,1.01,2.829c0.607,0.708,1.517,1.111,2.427,1.111v1.111
			c-0.91,0-1.72-0.199-2.527-0.707c-0.708-0.404-1.313-1.112-1.617-1.819C252.463,202.327,252.26,201.417,252.26,200.609"/>
		<path d="M263.379,205.461v-7.278h1.114v1.112c0.302-0.506,0.605-0.81,0.806-1.012c0.204-0.202,0.506-0.202,0.81-0.202
			c0.404,0,0.81,0.102,1.214,0.302l-0.404,1.214c-0.304-0.202-0.605-0.302-0.911-0.302c-0.303,0-0.504,0.1-0.708,0.302
			c-0.2,0.1-0.404,0.304-0.504,0.605c-0.103,0.506-0.202,0.912-0.202,1.416v3.843H263.379z"/>
		<path d="M271.163,198.082h0.103c0.504,0,0.909,0,1.313,0.202c0.403,0.202,0.707,0.506,1.01,0.808
			c0.203,0.304,0.405,0.708,0.607,1.111c0.1,0.506,0.202,1.012,0.202,1.518c0,1.214-0.304,2.224-0.91,2.931
			c-0.605,0.606-1.415,1.01-2.223,1.01h-0.103v-1.01c0.506,0,1.012-0.304,1.416-0.707c0.403-0.506,0.506-1.214,0.506-2.122
			c0-0.911-0.103-1.619-0.506-2.125c-0.404-0.401-0.81-0.605-1.416-0.605V198.082z M269.244,205.461h-1.214v-10.009h1.313v3.537
			c0.506-0.606,1.114-0.908,1.819-0.908v1.01c-0.506,0-1.01,0.204-1.413,0.708c-0.306,0.403-0.506,1.111-0.506,2.022
			c0,0.809,0.1,1.414,0.302,1.82c0.404,0.705,0.912,1.009,1.617,1.009v1.01c-0.808,0-1.516-0.403-1.919-1.111V205.461z"/>
		<path d="M275.914,195.453h1.213v1.417h-1.213V195.453z M275.914,198.182h1.213v7.277h-1.213V198.182z"/>
		<path d="M281.677,204.347l0.2,1.114c-0.303,0.1-0.606,0.1-0.91,0.1c-0.504,0-0.808-0.1-1.01-0.202
			c-0.304-0.1-0.506-0.304-0.605-0.605c-0.103-0.202-0.103-0.708-0.103-1.416v-4.145h-0.909v-1.01h0.909v-1.818l1.214-0.71v2.528
			h1.214v1.01h-1.214v4.245c0,0.304,0,0.506,0.102,0.607c0,0.102,0.101,0.202,0.2,0.302c0.103,0,0.202,0.103,0.406,0.103
			C281.271,204.45,281.473,204.45,281.677,204.347"/>
		<path d="M287.639,204.551c-0.404,0.404-0.91,0.708-1.313,0.808c-0.202,0.103-0.404,0.202-0.606,0.202v-0.908
			c0.303,0,0.606-0.102,0.808-0.306c0.404-0.2,0.708-0.504,0.809-0.806c0.203-0.306,0.203-0.71,0.203-1.214v-0.506
			c-0.403,0.202-1.012,0.303-1.819,0.404v-1.012c0.808-0.1,1.416-0.202,1.819-0.403v-0.303c0-0.505-0.102-0.81-0.304-1.011
			c-0.304-0.305-0.808-0.406-1.415-0.406h-0.101v-1.01h0.303c0.607,0,1.113,0,1.517,0.202c0.303,0.1,0.606,0.304,0.808,0.506
			c0.202,0.202,0.305,0.506,0.404,0.808c0,0.304,0.102,0.607,0.102,1.214v1.617v2.225c0.103,0.303,0.202,0.504,0.303,0.809h-1.212
			C287.741,205.259,287.741,204.956,287.639,204.551 M285.719,205.561c-0.304,0.102-0.506,0.102-0.709,0.102
			c-0.807,0-1.414-0.201-1.92-0.607c-0.403-0.402-0.605-0.908-0.605-1.514c0-0.306,0.1-0.71,0.202-0.911
			c0.201-0.303,0.403-0.606,0.707-0.708c0.202-0.202,0.504-0.404,0.91-0.404c0.202-0.102,0.605-0.201,1.012-0.201l0.403-0.103v1.012
			l-0.203,0.102c-0.506,0-0.809,0.101-1.01,0.2c-0.202,0.103-0.404,0.204-0.506,0.406c-0.103,0.202-0.202,0.403-0.202,0.607
			c0,0.302,0.1,0.605,0.405,0.806c0.2,0.204,0.606,0.306,1.112,0.306h0.403V205.561z M285.719,199.091
			c-0.506,0-0.909,0.102-1.213,0.304c-0.303,0.202-0.506,0.506-0.608,1.012l-1.211-0.102c0.1-0.504,0.304-1.01,0.605-1.313
			c0.204-0.303,0.605-0.506,1.012-0.708c0.403-0.101,0.909-0.202,1.415-0.202V199.091z"/>
		<line fill="none" stroke="#000000" stroke-width="0.6394" x1="291.278" y1="205.461" x2="291.278" y2="195.453"/>
		<path d="M297.748,205.461v-7.278h1.111v1.112c0.304-0.506,0.506-0.81,0.81-1.012c0.2-0.202,0.504-0.202,0.708-0.202
			c0.403,0,0.907,0.102,1.312,0.302l-0.404,1.214c-0.302-0.202-0.605-0.302-0.907-0.302c-0.304,0-0.508,0.1-0.708,0.302
			c-0.304,0.1-0.406,0.304-0.506,0.605c-0.102,0.506-0.202,0.912-0.202,1.416v3.843H297.748z"/>
		<path d="M302.397,195.453h1.212v1.417h-1.212V195.453z M302.397,198.182h1.212v7.277h-1.212V198.182z"/>
		<path d="M310.281,205.461v-0.91c-0.504,0.708-1.111,1.111-1.922,1.111v-1.012c0.506,0,1.012-0.201,1.315-0.707
			c0.404-0.404,0.606-1.112,0.606-2.021c0-1.012-0.202-1.72-0.606-2.123c-0.304-0.504-0.81-0.708-1.315-0.708v-1.01
			c0.307,0,0.71,0.102,1.012,0.202c0.304,0.202,0.608,0.404,0.81,0.706v-3.537h1.212v10.009H310.281z M308.359,205.663h-0.1
			c-0.607,0-1.111-0.201-1.617-0.506c-0.506-0.304-0.91-0.81-1.111-1.315c-0.305-0.605-0.404-1.211-0.404-2.02
			c0-0.707,0.1-1.314,0.302-1.921c0.304-0.605,0.607-1.111,1.111-1.415c0.506-0.303,1.012-0.404,1.62-0.404h0.199v1.01h-0.1
			c-0.506,0-1.012,0.204-1.313,0.607c-0.406,0.504-0.605,1.212-0.605,2.123c0,0.908,0.199,1.616,0.605,2.122
			c0.404,0.403,0.808,0.707,1.413,0.707V205.663z"/>
		<path d="M316.142,207.38c0.506,0,0.912-0.102,1.214-0.302c0.304-0.204,0.506-0.608,0.607-1.012c0-0.202,0.101-0.708,0.101-1.518
			c-0.504,0.607-1.212,0.912-1.922,0.912v-1.012c0.506,0,1.012-0.202,1.418-0.608c0.403-0.504,0.605-1.111,0.605-2.121
			c0-0.911-0.202-1.518-0.605-2.023c-0.406-0.401-0.912-0.605-1.418-0.605v-1.01c0.81,0,1.518,0.302,2.023,1.01v-0.908h1.111v6.267
			c0,1.211-0.102,2.021-0.304,2.425c-0.302,0.506-0.605,0.911-1.111,1.111c-0.506,0.304-1.01,0.406-1.72,0.406V207.38z
			 M313.112,206.067l1.211,0.202c0,0.403,0.204,0.605,0.406,0.81c0.302,0.2,0.706,0.302,1.214,0.302h0.199v1.012h-0.1
			c-0.91,0-1.617-0.202-2.123-0.506C313.313,207.482,313.112,206.875,313.112,206.067 M316.142,205.461h-0.1
			c-1.012,0-1.819-0.305-2.325-1.114c-0.605-0.705-0.808-1.516-0.808-2.525c0-0.707,0.1-1.314,0.302-1.921
			c0.304-0.605,0.607-1.111,1.111-1.415c0.506-0.303,1.012-0.404,1.72-0.404h0.1v1.01c-0.605,0-1.01,0.204-1.413,0.605
			c-0.406,0.506-0.605,1.112-0.605,2.023c0,0.91,0.199,1.617,0.605,2.121c0.403,0.406,0.808,0.608,1.413,0.608V205.461z"/>
		<path d="M326.151,203.134l1.212,0.203c-0.2,0.708-0.504,1.313-1.112,1.718c-0.504,0.406-1.211,0.607-2.02,0.607h-0.102v-1.012
			h0.102c0.404,0,0.809-0.1,1.112-0.403C325.645,204.045,325.949,203.642,326.151,203.134 M324.129,198.082L324.129,198.082
			c1.01,0,1.819,0.302,2.425,0.908c0.608,0.709,0.91,1.619,0.91,2.832v0.303h-3.335v-1.01h2.021
			c-0.101-0.607-0.202-1.012-0.506-1.315c-0.404-0.504-0.91-0.708-1.516-0.708V198.082z M324.129,205.663
			c-1.012,0-1.819-0.403-2.427-1.012c-0.606-0.605-1.01-1.517-1.01-2.729c0-1.214,0.403-2.224,1.01-2.831
			c0.607-0.708,1.415-1.01,2.427-1.01v1.01c-0.605,0-1.012,0.204-1.415,0.506c-0.404,0.406-0.608,0.91-0.608,1.518h2.023v1.01
			h-2.123c0.1,0.81,0.304,1.415,0.708,1.819c0.403,0.403,0.81,0.707,1.415,0.707V205.663z"/>
		<path fill-rule="evenodd" clip-rule="evenodd" d="M163.917,84.972l11.523,4.246c-1.819-2.83-2.023-5.458-0.102-8.49
			L163.917,84.972z"/>
		<path fill="none" stroke="#000000" stroke-width="0.0326" stroke-linecap="round" stroke-linejoin="round" d="M163.917,84.972
			l11.523,4.246c-1.819-2.83-2.023-5.458-0.102-8.49L163.917,84.972z"/>
		<path fill-rule="evenodd" clip-rule="evenodd" d="M159.976,54.951l12.23-0.91c-2.829-1.819-4.145-4.145-3.639-7.581
			L159.976,54.951z"/>
		<path fill="none" stroke="#000000" stroke-width="0.0333" stroke-linecap="round" stroke-linejoin="round" d="M159.976,54.951
			l12.23-0.91c-2.829-1.819-4.145-4.145-3.639-7.581L159.976,54.951z"/>
		<path fill="none" stroke="#000000" stroke-width="1.1115" d="M149.26,33.421c-2.426,22.744,5.156,37.501,35.075,34.569"/>
		<path d="M259.841,26.75l1.313,0.303c-0.302,1.111-0.806,1.92-1.514,2.527c-0.71,0.505-1.619,0.808-2.629,0.808
			c-1.111,0-2.021-0.202-2.627-0.605c-0.708-0.506-1.214-1.112-1.619-1.92c-0.303-0.91-0.506-1.718-0.506-2.729
			c0-1.012,0.203-1.921,0.607-2.73c0.404-0.808,1.01-1.415,1.718-1.819c0.707-0.404,1.517-0.607,2.427-0.607
			c1.01,0,1.819,0.304,2.527,0.81c0.707,0.505,1.211,1.213,1.415,2.123l-1.313,0.303c-0.204-0.707-0.506-1.212-1.012-1.516
			c-0.405-0.405-1.012-0.505-1.617-0.505c-0.81,0-1.416,0.202-1.921,0.505c-0.606,0.404-0.91,0.909-1.112,1.516
			c-0.202,0.607-0.302,1.213-0.302,1.921c0,0.91,0.1,1.617,0.302,2.223c0.304,0.607,0.708,1.113,1.212,1.416
			c0.506,0.303,1.113,0.505,1.72,0.505c0.707,0,1.313-0.202,1.819-0.606C259.235,28.165,259.641,27.559,259.841,26.75"/>
		<path d="M262.674,30.289V20.18h1.211v3.639c0.506-0.707,1.313-1.011,2.123-1.011c0.606,0,1.01,0.101,1.416,0.304
			c0.403,0.202,0.706,0.505,0.908,0.91c0.102,0.303,0.203,0.91,0.203,1.617v4.65h-1.213v-4.65c0-0.607-0.103-1.112-0.404-1.313
			c-0.304-0.303-0.605-0.506-1.113-0.506c-0.404,0-0.706,0.101-1.01,0.303c-0.404,0.203-0.607,0.506-0.708,0.81
			c-0.202,0.303-0.202,0.809-0.202,1.313v4.044H262.674z"/>
		<path d="M270.456,20.179h1.213v1.415h-1.213V20.179z M270.456,23.011h1.213v7.278h-1.213V23.011z"/>
		<path d="M273.588,30.289V23.01h1.113v1.011c0.506-0.81,1.312-1.213,2.325-1.213c0.403,0,0.808,0.101,1.212,0.202
			c0.304,0.202,0.607,0.405,0.808,0.606c0.203,0.303,0.304,0.607,0.405,0.91v1.213v4.549h-1.213v-4.448
			c0-0.506-0.101-0.91-0.101-1.112c-0.102-0.303-0.304-0.505-0.506-0.607c-0.304-0.202-0.605-0.303-0.909-0.303
			c-0.506,0-1.012,0.203-1.315,0.506c-0.404,0.404-0.606,1.01-0.606,1.92v4.044H273.588z"/>
		<path d="M252.566,89.117V79.11h2.02l2.427,7.076c0.202,0.708,0.403,1.112,0.403,1.516c0.202-0.404,0.305-0.91,0.606-1.617
			l2.427-6.975h1.718v10.006h-1.212v-8.389l-2.933,8.389h-1.212l-2.933-8.592v8.592H252.566z"/>
		<path d="M267.119,81.637L267.119,81.637c1.012,0,1.819,0.404,2.427,1.01c0.708,0.708,1.012,1.619,1.012,2.73
			c0,0.91-0.202,1.718-0.405,2.224c-0.303,0.505-0.708,0.91-1.214,1.213c-0.605,0.303-1.212,0.505-1.819,0.505v-1.011
			c0.607,0,1.113-0.304,1.518-0.707c0.403-0.506,0.607-1.213,0.607-2.123s-0.204-1.617-0.607-2.123
			c-0.404-0.404-0.91-0.708-1.518-0.708V81.637z M263.684,85.478c0-1.314,0.401-2.325,1.211-3.033
			c0.608-0.505,1.315-0.808,2.224-0.808v1.01c-0.605,0-1.111,0.304-1.516,0.708c-0.404,0.506-0.605,1.213-0.605,2.123
			s0.201,1.617,0.605,2.123c0.404,0.403,0.91,0.707,1.516,0.707v1.011c-1.01,0-1.819-0.404-2.426-1.011
			C263.986,87.601,263.684,86.691,263.684,85.478"/>
		<path d="M276.723,89.117v-1.111c-0.506,0.91-1.315,1.314-2.224,1.314c-0.506,0-0.911-0.101-1.214-0.303
			c-0.403-0.102-0.707-0.304-0.909-0.606c-0.1-0.203-0.304-0.506-0.304-0.91c-0.102-0.202-0.102-0.607-0.102-1.112v-4.549h1.213
			v4.042c0,0.607,0,1.113,0.102,1.314c0.101,0.304,0.202,0.607,0.505,0.708c0.203,0.203,0.505,0.303,0.911,0.303
			c0.403,0,0.706-0.1,1.01-0.303c0.403-0.202,0.607-0.404,0.708-0.708c0.102-0.404,0.201-0.808,0.201-1.415v-3.942h1.214v7.277
			H276.723z"/>
		<path d="M282.485,88.005l0.2,1.111c-0.402,0.102-0.708,0.102-0.908,0.102c-0.506,0-0.81-0.102-1.111-0.202
			c-0.204-0.203-0.406-0.304-0.506-0.606c-0.102-0.203-0.102-0.708-0.102-1.416v-4.246h-0.91v-0.91h0.91V80.02l1.213-0.708v2.527
			h1.214v0.91h-1.214v4.347v0.606c0.101,0.101,0.202,0.202,0.302,0.303c0.103,0,0.204,0.102,0.404,0.102
			C282.079,88.107,282.283,88.005,282.485,88.005"/>
		<path d="M283.697,89.117V79.11h1.213v3.538c0.606-0.606,1.313-1.011,2.226-1.011c0.504,0,1.01,0.101,1.413,0.404
			c0.406,0.202,0.606,0.506,0.81,0.809c0.202,0.405,0.303,0.91,0.303,1.616v4.65h-1.314v-4.65c0-0.605-0.1-1.01-0.304-1.313
			c-0.302-0.303-0.707-0.404-1.211-0.404c-0.305,0-0.708,0.101-1.012,0.304c-0.304,0.202-0.504,0.404-0.708,0.707
			c-0.102,0.405-0.202,0.81-0.202,1.416v3.941H283.697z"/>
		<line fill="none" stroke="#000000" stroke-width="0.37" x1="244.477" y1="24.526" x2="163.917" y2="53.234"/>
		<line fill="none" stroke="#000000" stroke-width="0.37" x1="248.319" y1="84.669" x2="168.061" y2="84.669"/>
		<line fill="none" stroke="#000000" stroke-width="0.37" x1="248.319" y1="126.212" x2="109.636" y2="175.44"/>
		<line fill="none" stroke="#000000" stroke-width="0.37" x1="247.108" y1="198.486" x2="91.038" y2="198.486"/>
	</g>
</g>
</svg>
