<?xml version="1.0" encoding="utf-8"?>
<!-- Generator: Adobe Illustrator 19.2.0, SVG Export Plug-In . SVG Version: 6.00 Build 0)  -->
<svg version="1.1" id="Layer_4" xmlns="http://www.w3.org/2000/svg" xmlns:xlink="http://www.w3.org/1999/xlink" x="0px" y="0px"
	 viewBox="0 0 407.5 241.7" style="enable-background:new 0 0 407.5 241.7;" xml:space="preserve">
<style type="text/css">
	.st0{fill:none;stroke:#000000;stroke-width:3.5812;}
	.st1{fill:none;stroke:#000000;stroke-width:1.3451;}
	.st2{stroke:#000000;stroke-width:0.1934;}
	.st3{fill:none;stroke:#000000;stroke-width:0.4477;}
	.st4{stroke:#000000;stroke-width:3.979146e-02;stroke-linecap:round;stroke-linejoin:round;}
</style>
<path class="st0" d="M118.1,238.1c64.4,0,117.1-52.5,117.1-117C235.2,56.6,182.6,4,118.1,4C53.7,4,1.1,56.6,1.1,121.1
	C1.1,185.6,53.7,238.1,118.1,238.1z"/>
<path d="M286.3,209.2L286.3,209.2c1.1,0,2,0.2,2.8,0.8c0.9,0.4,1.5,1.1,1.9,2c0.5,0.9,0.7,1.9,0.7,3c0,1.1-0.2,2.1-0.7,3
	c-0.4,0.9-1.1,1.6-2,2c-0.8,0.4-1.7,0.7-2.7,0.7v-1.2c1.1,0,2-0.4,2.8-1.2c0.7-0.8,1-1.9,1-3.3c0-1-0.1-1.8-0.5-2.5
	c-0.3-0.7-0.8-1.1-1.3-1.6c-0.6-0.3-1.2-0.6-2-0.6l0,0L286.3,209.2L286.3,209.2z M281,215.2c0-1.9,0.5-3.4,1.5-4.4
	c1-1,2.3-1.6,3.8-1.6v1.2c-1,0-1.9,0.5-2.7,1.1c-0.7,0.7-1.1,1.9-1.1,3.6c0,1.4,0.5,2.4,1.1,3.2c0.7,0.8,1.7,1.2,2.7,1.2l0,0v1.2
	c-1,0-1.9-0.2-2.8-0.8c-0.8-0.4-1.5-1.2-1.8-2C281.2,217.1,281,216.1,281,215.2z"/>
<path d="M293.4,220.6v-8.1h1.2v1.2c0.3-0.6,0.7-0.9,0.9-1.1c0.2-0.2,0.6-0.2,0.9-0.2c0.4,0,0.9,0.1,1.3,0.3l-0.5,1.4
	c-0.3-0.2-0.7-0.3-1-0.3c-0.3,0-0.6,0.1-0.8,0.3c-0.2,0.1-0.5,0.3-0.6,0.7c-0.1,0.6-0.2,1-0.2,1.6v4.3L293.4,220.6L293.4,220.6z"/>
<path d="M302,212.3h0.1c0.6,0,1,0,1.5,0.2c0.4,0.2,0.8,0.6,1.1,0.9c0.2,0.3,0.4,0.8,0.7,1.2c0.1,0.6,0.2,1.1,0.2,1.7
	c0,1.4-0.3,2.5-1,3.3c-0.7,0.7-1.6,1.1-2.5,1.1H302v-1.1c0.6,0,1.1-0.3,1.6-0.8c0.4-0.6,0.6-1.4,0.6-2.4s-0.1-1.8-0.6-2.4
	c-0.5-0.4-0.9-0.7-1.6-0.7l0,0L302,212.3L302,212.3z M299.9,220.6h-1.3v-11.1h1.5v3.9c0.6-0.7,1.2-1,2-1v1.1c-0.6,0-1.1,0.2-1.6,0.8
	c-0.3,0.5-0.6,1.2-0.6,2.3c0,0.9,0.1,1.6,0.3,2c0.5,0.8,1,1.1,1.8,1.1l0,0v1.1c-0.9,0-1.7-0.4-2.1-1.2L299.9,220.6L299.9,220.6z"/>
<path d="M307.3,211v-1.6h1.3v1.6H307.3L307.3,211z M307.3,220.6v-8.1h1.3v8.1H307.3z"/>
<path d="M313.7,219.3l0.2,1.2c-0.3,0.1-0.7,0.1-1,0.1c-0.6,0-0.9-0.1-1.1-0.2c-0.3-0.1-0.6-0.3-0.7-0.7c-0.1-0.2-0.1-0.8-0.1-1.6
	v-4.6h-1v-1.1h1v-2l1.3-0.8v2.8h1.3v1.1h-1.3v4.7c0,0.3,0,0.6,0.1,0.7c0,0.1,0.1,0.2,0.2,0.3c0.1,0,0.2,0.1,0.4,0.1
	C313.3,219.4,313.5,219.4,313.7,219.3z"/>
<path d="M320.4,219.5c-0.4,0.4-1,0.8-1.5,0.9c-0.2,0.1-0.5,0.2-0.7,0.2v-1c0.3,0,0.7-0.1,0.9-0.3c0.4-0.2,0.8-0.6,0.9-0.9
	c0.2-0.3,0.2-0.8,0.2-1.3v-0.6c-0.4,0.2-1.1,0.3-2,0.4v-1.1c0.9-0.1,1.6-0.2,2-0.5c0-0.1,0-0.2,0-0.3c0-0.6-0.1-0.9-0.3-1.1
	c-0.3-0.3-0.9-0.4-1.6-0.4h-0.1v-1.1c0.1,0,0.2,0,0.3,0c0.7,0,1.2,0,1.7,0.2c0.3,0.1,0.7,0.3,0.9,0.6s0.3,0.6,0.4,0.9
	c0,0.3,0.1,0.7,0.1,1.3v1.8c0,1.2,0,2.1,0,2.5c0.1,0.3,0.2,0.6,0.3,0.9h-1.3C320.5,220.3,320.5,220,320.4,219.5z M318.2,220.7
	c-0.3,0.1-0.6,0.1-0.8,0.1c-0.9,0-1.6-0.2-2.1-0.7c-0.5-0.5-0.7-1-0.7-1.7c0-0.3,0.1-0.8,0.2-1c0.2-0.3,0.5-0.7,0.8-0.8
	c0.2-0.2,0.6-0.5,1-0.5c0.2-0.1,0.7-0.2,1.1-0.2l0.4-0.1v1.1l-0.2,0.1c-0.6,0-0.9,0.1-1.1,0.2c-0.2,0.1-0.5,0.2-0.6,0.5
	c-0.1,0.2-0.2,0.4-0.2,0.7c0,0.3,0.1,0.7,0.5,0.9c0.2,0.2,0.7,0.3,1.2,0.3c0.1,0,0.2,0,0.4,0L318.2,220.7L318.2,220.7z M318.2,213.5
	c-0.6,0-1,0.1-1.3,0.3c-0.3,0.2-0.6,0.6-0.7,1.1l-1.3-0.1c0.1-0.6,0.3-1.1,0.7-1.5c0.2-0.3,0.7-0.6,1.1-0.8c0.4-0.1,1-0.2,1.6-0.2
	L318.2,213.5L318.2,213.5z"/>
<rect x="323.7" y="209.4" width="1.4" height="11.1"/>
<path d="M331.6,220.6v-8.1h1.2v1.2c0.3-0.6,0.6-0.9,0.9-1.1c0.2-0.2,0.6-0.2,0.8-0.2c0.4,0,1,0.1,1.5,0.3l-0.4,1.4
	c-0.3-0.2-0.7-0.3-1-0.3c-0.3,0-0.6,0.1-0.8,0.3c-0.3,0.1-0.4,0.3-0.6,0.7c-0.1,0.6-0.2,1-0.2,1.6v4.3L331.6,220.6L331.6,220.6z"/>
<path d="M336.8,211v-1.6h1.3v1.6H336.8L336.8,211z M336.8,220.6v-8.1h1.3v8.1H336.8z"/>
<path d="M345.6,220.6v-1c-0.6,0.8-1.2,1.2-2.1,1.2v-1.1l0,0c0.6,0,1.1-0.2,1.5-0.8c0.5-0.5,0.7-1.2,0.7-2.3c0-1.1-0.2-1.9-0.7-2.4
	c-0.3-0.6-0.9-0.8-1.5-0.8v-1.1c0.3,0,0.8,0.1,1.1,0.2c0.3,0.2,0.7,0.5,0.9,0.8v-3.9h1.4v11.1L345.6,220.6L345.6,220.6z
	 M343.4,220.8h-0.1c-0.7,0-1.2-0.2-1.8-0.6c-0.6-0.3-1-0.9-1.2-1.5c-0.3-0.7-0.5-1.4-0.5-2.3c0-0.8,0.1-1.5,0.3-2.1
	c0.3-0.7,0.7-1.2,1.2-1.6c0.6-0.3,1.1-0.4,1.8-0.4c0.1,0,0.1,0,0.2,0v1.1h-0.1c-0.6,0-1.1,0.2-1.5,0.7c-0.5,0.6-0.7,1.4-0.7,2.4
	s0.2,1.8,0.7,2.4c0.4,0.4,0.9,0.8,1.6,0.8V220.8z"/>
<path d="M352.1,222.7c0.6,0,1-0.1,1.4-0.3c0.3-0.2,0.6-0.7,0.7-1.1c0-0.2,0.1-0.8,0.1-1.7c-0.6,0.7-1.4,1-2.1,1v-1.1
	c0.6,0,1.1-0.2,1.6-0.7c0.4-0.6,0.7-1.2,0.7-2.4c0-1-0.2-1.7-0.7-2.3c-0.4-0.4-1-0.7-1.6-0.7v-1.1c0.9,0,1.7,0.3,2.3,1.1v-1h1.2v7
	c0,1.3-0.1,2.3-0.3,2.7c-0.3,0.6-0.7,1-1.2,1.2c-0.6,0.3-1.1,0.4-1.9,0.4L352.1,222.7L352.1,222.7z M348.7,221.2l1.3,0.2
	c0,0.5,0.2,0.7,0.4,0.9c0.3,0.2,0.8,0.3,1.3,0.3c0.1,0,0.1,0,0.2,0v1.1H352c-1,0-1.8-0.2-2.4-0.6
	C348.9,222.8,348.7,222.1,348.7,221.2L348.7,221.2z M352.1,220.6c-0.1,0-0.1,0-0.1,0c-1.1,0-2-0.3-2.6-1.2c-0.7-0.8-0.9-1.7-0.9-2.8
	c0-0.8,0.1-1.5,0.3-2.1c0.3-0.7,0.7-1.2,1.2-1.6c0.6-0.3,1.1-0.4,1.9-0.4h0.1v1.1l0,0c-0.7,0-1.1,0.2-1.6,0.7
	c-0.4,0.6-0.7,1.2-0.7,2.3s0.2,1.8,0.7,2.4c0.4,0.4,0.9,0.7,1.6,0.7l0,0L352.1,220.6L352.1,220.6z"/>
<path d="M363.2,218l1.3,0.2c-0.2,0.8-0.6,1.5-1.2,1.9c-0.6,0.4-1.4,0.7-2.3,0.7H361v-1.1h0.1c0.4,0,0.9-0.1,1.2-0.5
	C362.7,219,363,218.5,363.2,218L363.2,218z M361,212.3L361,212.3c1.1,0,2,0.3,2.7,1c0.7,0.8,1,1.8,1,3.1c0,0.1,0,0.2,0,0.3H361v-1.1
	h2.3c-0.1-0.7-0.2-1.1-0.6-1.5c-0.4-0.6-1-0.8-1.7-0.8l0,0L361,212.3L361,212.3z M361,220.8c-1.1,0-2-0.4-2.7-1.1
	c-0.7-0.7-1.1-1.7-1.1-3c0-1.4,0.4-2.5,1.1-3.1c0.7-0.8,1.6-1.1,2.7-1.1v1.1c-0.7,0-1.1,0.2-1.6,0.6c-0.5,0.4-0.7,1-0.7,1.7h2.3v1.1
	h-2.4c0.1,0.9,0.3,1.6,0.8,2c0.4,0.4,0.9,0.8,1.6,0.8L361,220.8L361,220.8z"/>
<path d="M365.8,218.2l1.3-0.2c0.1,0.6,0.3,0.9,0.7,1.2c0.3,0.2,0.8,0.5,1.5,0.5c0.6,0,1-0.1,1.3-0.5c0.3-0.2,0.5-0.6,0.5-0.9
	c0-0.2-0.1-0.6-0.3-0.7c-0.2-0.1-0.7-0.3-1.5-0.4c-1-0.3-1.7-0.6-2.1-0.7c-0.3-0.2-0.7-0.5-0.8-0.8c-0.2-0.3-0.3-0.7-0.3-1.1
	c0-0.3,0.1-0.7,0.2-1c0.2-0.2,0.4-0.6,0.7-0.7c0.2-0.2,0.6-0.3,0.9-0.4c0.3-0.1,0.8-0.1,1.1-0.1c0.7,0,1.2,0,1.7,0.2
	c0.6,0.2,0.9,0.5,1.1,0.8c0.2,0.2,0.3,0.7,0.4,1.2l-1.4,0.1c-0.1-0.3-0.2-0.7-0.6-0.9c-0.2-0.2-0.7-0.3-1.2-0.3
	c-0.6,0-1,0.1-1.4,0.2c-0.2,0.2-0.3,0.4-0.3,0.8c0,0.1,0,0.3,0.1,0.4c0.1,0.1,0.3,0.3,0.6,0.3c0.1,0.1,0.6,0.2,1.2,0.4
	c0.9,0.2,1.6,0.4,2,0.6c0.3,0.2,0.7,0.4,0.9,0.8c0.2,0.2,0.3,0.7,0.3,1.1c0,0.4-0.2,0.9-0.5,1.4c-0.2,0.3-0.7,0.7-1.1,0.9
	c-0.6,0.2-1.1,0.3-1.7,0.3c-1.1,0-1.9-0.2-2.5-0.7C366.3,219.7,365.9,219,365.8,218.2z"/>
<path class="st1" d="M10.8,101.2c2.5,22.3,9.8,43.3,29.4,62"/>
<path class="st1" d="M67.8,187.9c12.9,21.9,31.7,37,59.3,41.8"/>
<path class="st1" d="M36.6,167.7c-7.4,3.7-14.2,4.3-20.2,1.9"/>
<path class="st1" d="M66,194.8c-4.5,6.4-7.1,12.9-5.5,19.3"/>
<path class="st1" d="M142.7,5.7c18.9,29.9,45.8,54.9,84.4,72.5"/>
<line class="st1" x1="124.2" y1="102.7" x2="192.2" y2="30.1"/>
<polygon class="st2" points="149.5,17.7 170.6,15.9 189.3,28.7 206.8,44.3 204.5,66.4 145.8,79.2 "/>
<path d="M285.4,23.1h0.7l4.6,11.1H289l-1.2-3.4h-2.4v-1.2h1.9l-1.2-3c-0.3-0.9-0.6-1.6-0.7-2.1L285.4,23.1L285.4,23.1z M280.2,34.2
	l4.3-11.1h0.9v1.3l-0.1-0.2c-0.1,0.8-0.3,1.5-0.6,2.1l-1.2,3.3h1.9v1.2H283l-1.2,3.4L280.2,34.2L280.2,34.2z"/>
<path d="M291.7,34.2v-8.1h1.2v1.1c0.6-0.9,1.5-1.2,2.6-1.2c0.5,0,0.9,0,1.4,0.2c0.4,0.1,0.7,0.3,0.9,0.7c0.2,0.3,0.3,0.7,0.4,1
	c0,0.2,0.1,0.7,0.1,1.3v4.9h-1.5v-4.9c0-0.6,0-0.9-0.1-1.2c-0.1-0.2-0.3-0.5-0.6-0.7c-0.2-0.1-0.6-0.2-1-0.2c-0.6,0-1,0.2-1.5,0.6
	c-0.5,0.3-0.7,1.1-0.7,2.1v4.4H291.7z"/>
<path d="M303.4,32.9l0.2,1.2c-0.5,0.1-0.8,0.1-1,0.1c-0.6,0-0.9-0.1-1.2-0.2c-0.2-0.1-0.4-0.3-0.6-0.7c-0.1-0.2-0.1-0.8-0.1-1.6
	v-4.6h-1v-1.1h1v-2l1.4-0.8v2.8h1.3v1.1H302v4.7c0,0.3,0,0.6,0,0.7c0.1,0.1,0.1,0.2,0.2,0.3c0.1,0,0.3,0.1,0.6,0.1
	C302.9,33.1,303.2,33.1,303.4,32.9z"/>
<path d="M310.3,31.6l1.5,0.2c-0.2,0.8-0.7,1.5-1.2,1.9c-0.7,0.4-1.4,0.7-2.4,0.7H308v-1.1h0.1c0.6,0,1-0.1,1.4-0.5
	C309.8,32.6,310,32.2,310.3,31.6L310.3,31.6z M308,26L308,26c1.1,0,2,0.3,2.7,1c0.7,0.8,1,1.8,1,3.1c0,0.1,0,0.2,0,0.3H308v-1.1h2.3
	c0-0.7-0.2-1.1-0.5-1.5c-0.4-0.6-1-0.8-1.7-0.8H308L308,26L308,26z M308,34.4c-1.1,0-2-0.5-2.7-1.1c-0.7-0.7-1-1.7-1-3
	c0-1.4,0.3-2.5,1-3.1c0.7-0.8,1.6-1.1,2.7-1.1v1.1c-0.6,0-1.1,0.2-1.6,0.6c-0.3,0.5-0.6,1-0.7,1.7h2.3v1.1h-2.4
	c0.1,0.9,0.3,1.6,0.8,2c0.4,0.5,1,0.8,1.6,0.8L308,34.4L308,34.4z"/>
<path d="M313.4,34.2v-8.1h1.2v1.2c0.3-0.6,0.6-0.9,0.9-1.1c0.2-0.2,0.6-0.2,0.9-0.2c0.5,0,0.9,0.1,1.4,0.3l-0.5,1.3
	c-0.3-0.2-0.7-0.3-1-0.3c-0.3,0-0.6,0.1-0.8,0.3c-0.2,0.1-0.4,0.3-0.6,0.7c-0.1,0.6-0.2,1-0.2,1.6v4.3L313.4,34.2L313.4,34.2z"/>
<path d="M318.6,24.6v-1.6h1.5v1.6H318.6L318.6,24.6z M318.6,34.2v-8.1h1.5v8.1H318.6z"/>
<path d="M325.3,26h0.1c1,0,2,0.3,2.7,1c0.7,0.8,1,1.8,1,3c0,1-0.1,1.9-0.5,2.5c-0.3,0.6-0.8,1-1.3,1.3c-0.6,0.3-1.2,0.6-1.9,0.6
	h-0.1v-1.1h0.1c0.7,0,1.2-0.3,1.7-0.8c0.5-0.6,0.7-1.4,0.7-2.4s-0.2-1.8-0.7-2.2c-0.4-0.6-1-0.8-1.7-0.8h-0.1V26z M321.6,30.1
	c0-1.5,0.3-2.6,1.2-3.3c0.7-0.7,1.6-0.9,2.5-0.9v1.1c-0.7,0-1.2,0.2-1.7,0.7c-0.4,0.6-0.7,1.3-0.7,2.4c0,1,0.2,1.8,0.7,2.4
	c0.4,0.5,1,0.8,1.7,0.8v1.1c-1.1,0-2-0.3-2.7-1.1C322,32.6,321.6,31.5,321.6,30.1z"/>
<path d="M330.7,34.2v-8.1h1.2v1.2c0.3-0.6,0.7-0.9,0.9-1.1c0.3-0.2,0.6-0.2,0.9-0.2c0.5,0,0.9,0.1,1.5,0.3l-0.6,1.3
	c-0.3-0.2-0.7-0.3-1-0.3c-0.2,0-0.6,0.1-0.8,0.3c-0.2,0.1-0.3,0.3-0.4,0.7c-0.2,0.6-0.2,1-0.2,1.6v4.3L330.7,34.2L330.7,34.2z"/>
<path d="M340.6,34.2v-7h-1.1v-1.1h1.1v-0.8c0-0.6,0.1-1,0.2-1.2c0.1-0.3,0.3-0.7,0.7-0.9c0.3-0.2,0.8-0.3,1.4-0.3
	c0.4,0,0.8,0,1.3,0.1l-0.2,1.2c-0.3-0.1-0.6-0.1-0.8-0.1c-0.4,0-0.8,0.1-0.9,0.3c-0.2,0.1-0.3,0.4-0.3,1v0.7h1.6v1.1H342v7
	L340.6,34.2L340.6,34.2z"/>
<path d="M347.9,26L347.9,26c1.1,0,2,0.3,2.7,1c0.8,0.8,1.1,1.8,1.1,3c0,1-0.2,1.9-0.5,2.5c-0.3,0.6-0.8,1-1.3,1.3
	c-0.7,0.3-1.4,0.6-2,0.6l0,0v-1.1l0,0c0.7,0,1.2-0.3,1.7-0.8c0.5-0.6,0.7-1.4,0.7-2.4s-0.2-1.8-0.7-2.2c-0.4-0.6-1-0.8-1.7-0.8l0,0
	L347.9,26L347.9,26z M344.1,30.1c0-1.5,0.4-2.6,1.3-3.3c0.7-0.7,1.5-0.9,2.5-0.9v1.1c-0.7,0-1.2,0.2-1.7,0.7
	c-0.4,0.6-0.7,1.3-0.7,2.4c0,1,0.2,1.8,0.7,2.4c0.5,0.5,1,0.8,1.7,0.8v1.1c-1.1,0-2-0.3-2.7-1.1C344.6,32.6,344.1,31.5,344.1,30.1z"
	/>
<path d="M353.3,34.2v-8.1h1.2v1.1c0.6-0.9,1.5-1.2,2.6-1.2c0.4,0,0.9,0,1.3,0.2c0.4,0.1,0.7,0.3,0.9,0.7c0.2,0.3,0.3,0.7,0.4,1
	c0,0.2,0.1,0.7,0.1,1.3v4.9h-1.3v-4.9c0-0.6-0.1-0.9-0.2-1.2c-0.1-0.2-0.3-0.5-0.6-0.7c-0.2-0.1-0.6-0.2-0.9-0.2
	c-0.7,0-1.1,0.2-1.6,0.6c-0.4,0.3-0.7,1.1-0.7,2.1v4.4H353.3z"/>
<path d="M365,32.9l0.2,1.2c-0.4,0.1-0.8,0.1-1,0.1c-0.6,0-0.9-0.1-1.2-0.2c-0.2-0.1-0.4-0.3-0.6-0.7c-0.1-0.2-0.1-0.8-0.1-1.6v-4.6
	h-1v-1.1h1v-2l1.3-0.8v2.8h1.3v1.1h-1.3v4.7c0,0.3,0,0.6,0,0.7c0.1,0.1,0.2,0.2,0.3,0.3c0.1,0,0.2,0.1,0.5,0.1
	C364.6,33.1,364.8,33.1,365,32.9z"/>
<path d="M371.7,33.2c-0.6,0.5-1,0.8-1.5,0.9c-0.2,0.1-0.5,0.2-0.8,0.2v-1c0.5,0,0.7-0.1,1-0.3c0.4-0.2,0.7-0.6,0.9-0.9
	c0.1-0.3,0.2-0.8,0.2-1.3v-0.6c-0.4,0.2-1.1,0.3-2.1,0.5v-1.1c1-0.1,1.7-0.2,2.1-0.5c0-0.1,0-0.2,0-0.3c0-0.6-0.1-0.9-0.3-1.1
	c-0.3-0.3-0.9-0.4-1.6-0.4h-0.2V26c0.1,0,0.2,0,0.3,0c0.8,0,1.4,0,1.7,0.2c0.4,0.1,0.8,0.3,1,0.6c0.2,0.2,0.3,0.6,0.5,0.9
	c0,0.3,0,0.7,0,1.4v1.8c0,1.2,0.1,2.1,0.1,2.5c0.1,0.3,0.2,0.6,0.3,0.9h-1.5C371.8,34,371.7,33.6,371.7,33.2z M369.4,34.3
	c-0.2,0.1-0.4,0.1-0.8,0.1c-0.8,0-1.5-0.2-2-0.7c-0.5-0.5-0.7-1-0.7-1.7c0-0.3,0.1-0.8,0.2-1c0.2-0.3,0.5-0.7,0.8-0.8
	c0.2-0.2,0.6-0.5,0.9-0.5c0.3-0.1,0.7-0.2,1.2-0.2l0.3-0.1v1.1l-0.1,0.1c-0.6,0-1,0.1-1.2,0.2c-0.2,0.1-0.3,0.2-0.5,0.4
	c-0.2,0.2-0.2,0.5-0.2,0.7c0,0.3,0.1,0.7,0.5,0.9c0.2,0.2,0.7,0.3,1.1,0.3c0.2,0,0.3,0,0.4,0L369.4,34.3L369.4,34.3z M369.4,27.1
	c-0.6,0-0.9,0.1-1.2,0.3c-0.3,0.2-0.6,0.6-0.7,1.1l-1.4-0.1c0.1-0.6,0.3-1.1,0.6-1.5c0.3-0.3,0.7-0.6,1.2-0.8
	c0.4-0.1,0.9-0.2,1.5-0.2V27.1z"/>
<path d="M375,34.2v-8.1h1.2v1.1c0.7-0.9,1.5-1.2,2.6-1.2c0.6,0,1,0,1.4,0.2c0.4,0.1,0.8,0.3,0.9,0.7c0.2,0.3,0.3,0.7,0.5,1
	c0.1,0.2,0.1,0.7,0.1,1.3v4.9h-1.4v-4.9c0-0.6-0.1-0.9-0.2-1.2c-0.1-0.2-0.2-0.5-0.6-0.7c-0.2-0.1-0.6-0.2-0.9-0.2
	c-0.7,0-1.1,0.2-1.6,0.6c-0.5,0.3-0.7,1.1-0.7,2.1v4.4H375z"/>
<path d="M389.3,31.6l1.4,0.2c-0.2,0.8-0.6,1.5-1.2,1.9c-0.6,0.4-1.4,0.7-2.2,0.7h-0.1v-1.1h0.1c0.4,0,0.9-0.1,1.2-0.5
	C388.8,32.6,389.1,32.2,389.3,31.6L389.3,31.6z M387.1,26L387.1,26c1.1,0,2,0.3,2.7,1c0.7,0.8,1,1.8,1,3.1c0,0.1,0,0.2,0,0.3h-3.7
	v-1.1h2.2c-0.1-0.7-0.2-1.1-0.6-1.5c-0.5-0.6-1-0.8-1.7-0.8l0,0L387.1,26L387.1,26z M387.1,34.4c-1.1,0-2-0.5-2.7-1.1
	c-0.7-0.7-1.1-1.7-1.1-3c0-1.4,0.5-2.5,1.1-3.1c0.7-0.8,1.6-1.1,2.7-1.1v1.1c-0.7,0-1.1,0.2-1.6,0.6c-0.4,0.5-0.7,1-0.7,1.7h2.3v1.1
	h-2.4c0.1,0.9,0.3,1.6,0.8,2c0.4,0.5,0.9,0.8,1.6,0.8L387.1,34.4L387.1,34.4z"/>
<rect x="392.4" y="23.1" width="1.5" height="11.1"/>
<rect x="395.8" y="23.1" width="1.5" height="11.1"/>
<path d="M405,31.6l1.4,0.2c-0.2,0.8-0.6,1.5-1.2,1.9c-0.6,0.4-1.4,0.7-2.2,0.7h-0.1v-1.1h0.1c0.4,0,0.9-0.1,1.2-0.5
	C404.4,32.6,404.7,32.2,405,31.6L405,31.6z M402.7,26L402.7,26c1.1,0,2,0.3,2.7,1c0.7,0.8,1,1.8,1,3.1c0,0.1,0,0.2,0,0.3h-3.7v-1.1
	h2.3c-0.1-0.7-0.2-1.1-0.6-1.5c-0.4-0.6-1-0.8-1.7-0.8l0,0L402.7,26L402.7,26z M402.7,34.4c-1.1,0-2-0.5-2.7-1.1
	c-0.8-0.7-1.1-1.7-1.1-3c0-1.4,0.4-2.5,1.1-3.1c0.7-0.8,1.6-1.1,2.7-1.1v1.1c-0.7,0-1.1,0.2-1.6,0.6c-0.4,0.5-0.7,1-0.7,1.7h2.3v1.1
	h-2.4c0,0.9,0.3,1.6,0.8,2c0.5,0.5,0.9,0.8,1.6,0.8L402.7,34.4L402.7,34.4z"/>
<line class="st3" x1="272.8" y1="28.1" x2="198.8" y2="28.1"/>
<line class="st3" x1="81.1" y1="196.9" x2="271.9" y2="211.8"/>
<path class="st4" d="M195.8,28.4l12.8,4.7c-2-3.1-2.1-6.1-0.1-9.3L195.8,28.4z"/>
<path class="st4" d="M78.4,197.3l12.8,4.7c-2-3.1-2.2-6.1-0.1-9.5L78.4,197.3z"/>
<line class="st3" x1="60.5" y1="169.7" x2="271.9" y2="137.1"/>
<path class="st4" d="M57.9,170.6l13.6,1.7c-2.7-2.6-3.6-5.4-2.3-9.2L57.9,170.6z"/>
<g>
	<path d="M282.4,130.2h5.1c0.8,0,1.5,0.1,2.1,0.4c1,0.5,1.5,1.3,1.5,2.6c0,0.7-0.1,1.2-0.4,1.6c-0.3,0.4-0.7,0.8-1.2,1
		c0.4,0.2,0.8,0.4,1,0.7c0.2,0.3,0.3,0.8,0.4,1.4l0.1,1.5c0,0.4,0,0.7,0.1,0.9c0.1,0.4,0.3,0.6,0.5,0.7v0.2h-1.8
		c-0.1-0.1-0.1-0.2-0.1-0.4c0-0.2-0.1-0.4-0.1-0.9l-0.1-1.9c0-0.7-0.3-1.2-0.8-1.5c-0.3-0.1-0.7-0.2-1.3-0.2h-3.3v4.8h-1.5V130.2z
		 M287.3,135.3c0.7,0,1.2-0.1,1.6-0.4c0.4-0.3,0.6-0.8,0.6-1.5c0-0.8-0.3-1.3-0.8-1.6c-0.3-0.2-0.7-0.2-1.2-0.2h-3.6v3.8H287.3z"/>
	<path d="M299.1,134.1c0.7,0.7,1.1,1.7,1.1,3.1c0,1.3-0.3,2.4-0.9,3.2c-0.6,0.9-1.6,1.3-2.9,1.3c-1.1,0-2-0.4-2.6-1.1
		c-0.7-0.8-1-1.8-1-3c0-1.4,0.3-2.4,1-3.2c0.7-0.8,1.6-1.2,2.8-1.2C297.5,133,298.3,133.4,299.1,134.1z M298.2,139.4
		c0.3-0.7,0.5-1.4,0.5-2.3c0-0.8-0.1-1.4-0.4-1.8c-0.4-0.7-1-1.1-2-1.1c-0.8,0-1.4,0.3-1.8,1s-0.6,1.4-0.6,2.3
		c0,0.9,0.2,1.6,0.6,2.2s1,0.9,1.8,0.9C297.3,140.5,297.9,140.1,298.2,139.4z"/>
	<path d="M307.7,134.1c0.7,0.7,1.1,1.7,1.1,3.1c0,1.3-0.3,2.4-0.9,3.2c-0.6,0.9-1.6,1.3-2.9,1.3c-1.1,0-2-0.4-2.6-1.1
		c-0.7-0.8-1-1.8-1-3c0-1.4,0.3-2.4,1-3.2c0.7-0.8,1.6-1.2,2.8-1.2C306.1,133,307,133.4,307.7,134.1z M306.8,139.4
		c0.3-0.7,0.5-1.4,0.5-2.3c0-0.8-0.1-1.4-0.4-1.8c-0.4-0.7-1-1.1-2-1.1c-0.8,0-1.4,0.3-1.8,1s-0.6,1.4-0.6,2.3
		c0,0.9,0.2,1.6,0.6,2.2s1,0.9,1.8,0.9C305.9,140.5,306.5,140.1,306.8,139.4z"/>
	<path d="M310.7,131h1.4v2.3h1.3v1.1h-1.3v5.3c0,0.3,0.1,0.5,0.3,0.6c0.1,0.1,0.3,0.1,0.5,0.1c0.1,0,0.1,0,0.2,0c0.1,0,0.2,0,0.3,0
		v1.1c-0.2,0-0.3,0.1-0.5,0.1c-0.2,0-0.4,0-0.5,0c-0.6,0-1.1-0.2-1.3-0.5s-0.3-0.7-0.3-1.3v-5.4h-1.1v-1.1h1.1V131z"/>
	<path d="M324.9,134.1c0.7,0.7,1.1,1.7,1.1,3.1c0,1.3-0.3,2.4-0.9,3.2c-0.6,0.9-1.6,1.3-2.9,1.3c-1.1,0-2-0.4-2.6-1.1
		c-0.7-0.8-1-1.8-1-3c0-1.4,0.3-2.4,1-3.2c0.7-0.8,1.6-1.2,2.8-1.2C323.3,133,324.2,133.4,324.9,134.1z M324.1,139.4
		c0.3-0.7,0.5-1.4,0.5-2.3c0-0.8-0.1-1.4-0.4-1.8c-0.4-0.7-1-1.1-2-1.1c-0.8,0-1.4,0.3-1.8,1s-0.6,1.4-0.6,2.3
		c0,0.9,0.2,1.6,0.6,2.2s1,0.9,1.8,0.9C323.1,140.5,323.7,140.1,324.1,139.4z"/>
	<path d="M328.3,130.8c0.3-0.5,0.9-0.7,1.8-0.7c0.1,0,0.2,0,0.3,0c0.1,0,0.2,0,0.3,0v1.2c-0.1,0-0.2,0-0.3,0s-0.1,0-0.2,0
		c-0.4,0-0.7,0.1-0.8,0.3c-0.1,0.2-0.1,0.8-0.1,1.6h1.4v1.1h-1.4v7H328v-7h-1.1v-1.1h1.1V132C328,131.4,328.1,131,328.3,130.8z"/>
	<path d="M336.3,133.2h1.3v1.1c0.4-0.5,0.8-0.8,1.2-1c0.4-0.2,0.9-0.3,1.4-0.3c1.2,0,1.9,0.4,2.3,1.2c0.2,0.4,0.3,1.1,0.3,1.9v5.2
		h-1.4v-5.1c0-0.5-0.1-0.9-0.2-1.2c-0.2-0.5-0.7-0.8-1.3-0.8c-0.3,0-0.6,0-0.8,0.1c-0.4,0.1-0.7,0.3-1,0.7c-0.2,0.3-0.4,0.5-0.4,0.8
		c-0.1,0.3-0.1,0.7-0.1,1.2v4.2h-1.4V133.2z"/>
	<path d="M350.7,134.1c0.7,0.7,1.1,1.7,1.1,3.1c0,1.3-0.3,2.4-0.9,3.2c-0.6,0.9-1.6,1.3-2.9,1.3c-1.1,0-2-0.4-2.6-1.1
		c-0.7-0.8-1-1.8-1-3c0-1.4,0.3-2.4,1-3.2c0.7-0.8,1.6-1.2,2.8-1.2C349.2,133,350,133.4,350.7,134.1z M349.9,139.4
		c0.3-0.7,0.5-1.4,0.5-2.3c0-0.8-0.1-1.4-0.4-1.8c-0.4-0.7-1-1.1-2-1.1c-0.8,0-1.4,0.3-1.8,1s-0.6,1.4-0.6,2.3
		c0,0.9,0.2,1.6,0.6,2.2s1,0.9,1.8,0.9C349,140.5,349.6,140.1,349.9,139.4z"/>
	<path d="M354.3,138.8c0,0.5,0.2,0.8,0.3,1c0.3,0.4,1,0.7,1.8,0.7c0.5,0,1-0.1,1.4-0.3c0.4-0.2,0.6-0.6,0.6-1c0-0.3-0.2-0.6-0.5-0.8
		c-0.2-0.1-0.6-0.2-1.2-0.4l-1.1-0.3c-0.7-0.2-1.2-0.4-1.6-0.6c-0.6-0.4-0.9-0.9-0.9-1.5c0-0.8,0.3-1.4,0.8-1.9
		c0.6-0.5,1.3-0.7,2.3-0.7c1.2,0,2.1,0.4,2.7,1.1c0.3,0.5,0.5,0.9,0.5,1.5h-1.3c0-0.3-0.1-0.6-0.3-0.8c-0.3-0.4-0.9-0.5-1.7-0.5
		c-0.5,0-0.9,0.1-1.2,0.3c-0.3,0.2-0.4,0.5-0.4,0.8c0,0.4,0.2,0.6,0.5,0.8c0.2,0.1,0.5,0.2,0.9,0.3l0.9,0.2c1,0.2,1.7,0.5,2,0.7
		c0.5,0.3,0.8,0.9,0.8,1.6c0,0.7-0.3,1.3-0.8,1.9s-1.4,0.8-2.5,0.8c-1.2,0-2.1-0.3-2.6-0.8c-0.5-0.5-0.8-1.2-0.8-2H354.3z"/>
	<path d="M366.2,133.5c0.5,0.3,0.9,0.6,1.2,1c0.3,0.4,0.5,0.9,0.5,1.4c0.1,0.4,0.1,1,0.1,1.8h-5.9c0,0.8,0.2,1.5,0.6,2
		s0.9,0.7,1.7,0.7c0.7,0,1.3-0.2,1.7-0.7c0.2-0.3,0.4-0.6,0.5-1h1.3c0,0.3-0.2,0.6-0.4,1s-0.4,0.7-0.7,0.9c-0.4,0.4-0.9,0.7-1.5,0.8
		c-0.3,0.1-0.7,0.1-1.1,0.1c-1,0-1.9-0.4-2.5-1.1c-0.7-0.7-1-1.8-1-3.1c0-1.3,0.4-2.4,1.1-3.2c0.7-0.8,1.6-1.2,2.8-1.2
		C365.2,133.1,365.7,133.2,366.2,133.5z M366.7,136.6c-0.1-0.6-0.2-1.1-0.4-1.4c-0.4-0.7-1-1-1.9-1c-0.6,0-1.1,0.2-1.6,0.7
		c-0.4,0.5-0.6,1-0.7,1.7H366.7z"/>
</g>
</svg>
