<?xml version="1.0" encoding="utf-8"?>
<!-- Generator: Adobe Illustrator 15.1.0, SVG Export Plug-In . SVG Version: 6.00 Build 0)  -->
<!DOCTYPE svg PUBLIC "-//W3C//DTD SVG 1.1//EN" "http://www.w3.org/Graphics/SVG/1.1/DTD/svg11.dtd">
<svg version="1.1" id="Layer_7" xmlns="http://www.w3.org/2000/svg" xmlns:xlink="http://www.w3.org/1999/xlink" x="0px" y="0px"
	 width="326.162px" height="174.711px" viewBox="0 0 326.162 174.711" enable-background="new 0 0 326.162 174.711"
	 xml:space="preserve">
<metadata><?xpacket begin="﻿" id="W5M0MpCehiHzreSzNTczkc9d"?>
<x:xmpmeta xmlns:x="adobe:ns:meta/" x:xmptk="Adobe XMP Core 5.0-c060 61.134777, 2010/02/12-17:32:00        ">
   <rdf:RDF xmlns:rdf="http://www.w3.org/1999/02/22-rdf-syntax-ns#">
      <rdf:Description rdf:about=""
            xmlns:dc="http://purl.org/dc/elements/1.1/">
         <dc:format>image/svg+xml</dc:format>
         <dc:title>
            <rdf:Alt>
               <rdf:li xml:lang="x-default">8B-7</rdf:li>
            </rdf:Alt>
         </dc:title>
      </rdf:Description>
      <rdf:Description rdf:about=""
            xmlns:xmp="http://ns.adobe.com/xap/1.0/"
            xmlns:xmpGImg="http://ns.adobe.com/xap/1.0/g/img/">
         <xmp:CreatorTool>Adobe Illustrator CS5.1</xmp:CreatorTool>
         <xmp:CreateDate>2015-02-12T17:06:26+02:00</xmp:CreateDate>
         <xmp:ModifyDate>2015-02-12T17:06:26+02:00</xmp:ModifyDate>
         <xmp:MetadataDate>2015-02-12T17:06:26+02:00</xmp:MetadataDate>
         <xmp:Thumbnails>
            <rdf:Alt>
               <rdf:li rdf:parseType="Resource">
                  <xmpGImg:width>256</xmpGImg:width>
                  <xmpGImg:height>140</xmpGImg:height>
                  <xmpGImg:format>JPEG</xmpGImg:format>
                  <xmpGImg:image>/9j/4AAQSkZJRgABAgEBMAEwAAD/7QAsUGhvdG9zaG9wIDMuMAA4QklNA+0AAAAAABABMMzNAAEA&#xA;AQEwzM0AAQAB/+4ADkFkb2JlAGTAAAAAAf/bAIQABgQEBAUEBgUFBgkGBQYJCwgGBggLDAoKCwoK&#xA;DBAMDAwMDAwQDA4PEA8ODBMTFBQTExwbGxscHx8fHx8fHx8fHwEHBwcNDA0YEBAYGhURFRofHx8f&#xA;Hx8fHx8fHx8fHx8fHx8fHx8fHx8fHx8fHx8fHx8fHx8fHx8fHx8fHx8fHx8f/8AAEQgAjAEAAwER&#xA;AAIRAQMRAf/EAaIAAAAHAQEBAQEAAAAAAAAAAAQFAwIGAQAHCAkKCwEAAgIDAQEBAQEAAAAAAAAA&#xA;AQACAwQFBgcICQoLEAACAQMDAgQCBgcDBAIGAnMBAgMRBAAFIRIxQVEGE2EicYEUMpGhBxWxQiPB&#xA;UtHhMxZi8CRygvElQzRTkqKyY3PCNUQnk6OzNhdUZHTD0uIIJoMJChgZhJRFRqS0VtNVKBry4/PE&#xA;1OT0ZXWFlaW1xdXl9WZ2hpamtsbW5vY3R1dnd4eXp7fH1+f3OEhYaHiImKi4yNjo+Ck5SVlpeYmZ&#xA;qbnJ2en5KjpKWmp6ipqqusra6voRAAICAQIDBQUEBQYECAMDbQEAAhEDBCESMUEFURNhIgZxgZEy&#xA;obHwFMHR4SNCFVJicvEzJDRDghaSUyWiY7LCB3PSNeJEgxdUkwgJChgZJjZFGidkdFU38qOzwygp&#xA;0+PzhJSktMTU5PRldYWVpbXF1eX1RlZmdoaWprbG1ub2R1dnd4eXp7fH1+f3OEhYaHiImKi4yNjo&#xA;+DlJWWl5iZmpucnZ6fkqOkpaanqKmqq6ytrq+v/aAAwDAQACEQMRAD8A9U4q7FXYq7FXYq7FXYq7&#xA;FXYq7FXYq7FXYqkfmPzz5O8sxmTX9as9M2qsdzMiSN/qRk82/wBiDirFx+dFhqII8qeXNc8y8tor&#xA;q3smtbNj73N8bZae4BxVsav+emp8TZ+XtE8vR/tfpS+mv5aePp2cccf0er9OKt/4O/Ny9+LUPP6W&#xA;Sv8Abt9J0m3jA8Qst292300GKt/8qgkm3v8Azv5pu2b7YXURaJWm9FtIoKD2rirv+VE/l5J/vbFq&#xA;V+2w5XWranJ8I/ZK/WApX2IxVv8A5UF+UJP7zy5DOOyzzXEyj3CySsK++Kp15W/LTyH5UvJbzy7o&#xA;tvpl1PH6M0sAIZo+Qbiak7VUHFWTYq7FXYq7FXYq7FXYq7FXYq7FXYq7FXYq7FXnnn78xNW8ueat&#xA;K0u1Fo1tdm0M0c4X1nFxerbyCKtzC5ZYyWURwymvUAYqxJf+ck1OmOP0da/pFLNJTPLdGC2Wf6o8&#xA;8glV0LxKZIvTiHJubMi8hWuKoqb/AJyGFo+oS3OlxSW1nJBbrHDcfvhMZL9ZhMOLCKRxp6mCFvtc&#xA;wS9D8Kr0ryv5kfWvL41q5tlsoHaUxoJDMfSiYrzb4EoSUPwivzxVWHm3yqSAdYslc/sNcRKwJ7FW&#xA;YMD7HFU0imimjEkTrJG32XQhgaGmxGKrsVS3X/Mnl/y9p7ahruo2+m2SdZ7mRY1J/lXkRyY9lG5x&#xA;VhP/ACtLzH5gqnkDytc6lbvsmvasW0zTaEGkkYkU3M6/6kQ+eKt/8q78+a98fnHzncJbtUto/lxP&#xA;0bbgHqjXJMt3Ip/11xVPvLn5W/l95ckE+kaFaw3leRvpE+sXRPibicyTE/7LFWU4q7FXYq7FXYq7&#xA;FXYq7FXYq7FXYq7FXYq7FXYq7FXYq7FXYq7FXYq7FXYq7FXYq0yqylWAZWFGU7gg9jiqWS+VPK00&#xA;hkl0exkkbdne2hZiQa7krirzPUr2+8z6td+XPy0D2VrYubfWfNhuboWNrKAA0NnbxTRpc3Cbcv2E&#xA;6GuKpzpH5GeXLLUItYvNT1HWdfjAB1bVHt76UEf76FzDMkIHb0wNu5xVmP6O8ww7W+sLMO5vbVJT&#xA;/wBO7Wg/DFWA/mre/nHpI0rUvLd3pn1Sykkl1i4uwLSz9D4QsU6yzTSNyb7LRUbt33VUz5h/Mjzn&#xA;JbaFaRjyxWNJNdvrdmkuYYX6GIzxxm3adR+6SSP1QDzcR8VEir03SNKstJ02DTrJWS2t14pzZpHJ&#xA;JJZndyzO7MSzMxqSanFUXirsVdirsVdirsVdirsVdirsVdirsVdirsVdirsVdirxDR/I/wCZOgXy&#xA;pYyG0Gq3lvbX0kchuSYGW4a8uTIscUamPnGYJJV9Zj8Ls/wnFUQ3lz86LDS9O9XVb3UZpPqkWp28&#xA;dxArglLA3BilEQKVlF4OTEgKV9jiqjH5W/OfR7ISR6q8uqX8oFwI/wB9bm7uPSt2n4pGvpxokk9w&#xA;1aLyRBtsMVVbvyf+d/K8kg1UNNG90unXDTKZRDLcWzojHitVMcDdDH/qj9tVP/Mdj+ak/maNtGuG&#xA;iht9KtmnZ5lWzluit6Jo1QwsWkaT6uQ+wVR03oyqUnyj+bVxrc160628NxqMN5NA90ksJghvRIkK&#xA;r6JIeONUpJ4LTjU7qs08gWXney8q/V/M08dzraySmKVn5goaFPUK+9eh6UPw/ZVVNv8Anav+XH/k&#xA;tirBvzQ1bzrJFpnk3S7i2tdY82yyWiXduZBLbWUKepe3KluhSP4VPXkwpvirBtD1z84vy8tofLY0&#xA;fS5dMvLqXTvI+lsQmoSgh2illFtWL0YlAluHl4vT7R5HZVlesflAn+GNS13zHr2pah5zhtZ7uPW4&#xA;by4tYrSZIzIFs7aJ0hSJCo2ZTy74qzTyr5qWT8tNE80a5OsZuNIs7/UJ+O3Oa3SR+KKKkszfCqip&#xA;OwxVJNROsXElnqmowK/mC/l4eU9Amq0FiQpJvLoCnOWKMl5W6JtFGeTcnVZj5e0K10TTVs4XeeVm&#xA;M15eSms1xcPvJNKf5nPYbAUVQFAGKplirsVdirsVdirsVdirsVdirsVdirsVdirsVdirsVdirsVd&#xA;irsVdirsVdirsVdirsVee8PrH5/sZfiXTvKyNbKf2XvdQkWVh78bVRiqzy7F+nfzj8z6zcfHD5Xt&#xA;7bQ9JXqqyXMS3l7KAejt6kUdR2XFW/zk1W5udJtvImkP/uf84s1glKk29gR/p129OipCSo/ymFMV&#xA;TZ9NtrrzFpfl6BOGi+WbaC9eAfZaerRWEZ8RCIJJSD+16bdsVRPl6L9IeYdY124FZIJX0nTlP+6r&#xA;a3KmYjc/FNccix7qsY/ZxVkuKuxV2KuxV2KuxV2KuxV2KuxV2KuxV2KuxV2KuxV2KuxV2KuxV2Ku&#xA;xV2KuxV2KuxV2KvNPO96PJ35jaZ55vVb/Dd9p/6B1y7AJWyYXBns7mWgNIi8kkbt0XkCcVbn8u/m&#xA;BYeY9Y8weQbvRb3SvNAt7uaLU3uAsNzFCIPXt3tVkEqSxohIJG42OKpz5G/L86Dd3uv61ftrXm7V&#xA;VVNR1aRRGiQoSyWtrFv6MCE/ZrVju3aiqL8nzxXEGs+Y3dUs9VvHuLWZiAv1O2iS2ik5Hb05BA06&#xA;n+V64qs8o31qul6v5hnkWz0jUb2W/tZbgiJFtFijhE7M5HFJvRM6lqfC46YqlnlD8yrrzp5ik/w1&#xA;p/q+SrISxXPmO4LRi5uloFjsY6VdENecjUHYdN1WXafruj6ldX1rYXkV1caZKLe/jiYMYZSob03p&#xA;0ah6YqjsVdirsVdirsVdirsVdirsVdirsVdirsVdirsVdirsVdirsVdiqC1bXNG0eAXGq30FjCx4&#xA;o88ix8m/lTkRyY9gN8VSdfNupX546DoN3codlvdQB0y12/4zK12fYrbMp8cVXfo3zzeNW81m20yE&#xA;9IdNtRJMv/RzdmWN/wDpGXFVx8p3rKeXmXVmkNayc7RTXx4rbqn/AAtMVcNE83W5/wBE8yfWB/2s&#xA;rKGY/wDTobD/AD/FVZNa+e/QkhnfR9UikUpLC8FxZo6sKMrAyXwoeh2P9VXn0v5a61o08l15Zs9T&#xA;8sSSOZPqnlnUra804u3V3sNVSzgHyjUYqk3mdPzrurI6adfNzbScluYLry/qNu80ZB+GSfS1vUpX&#xA;qFKhujAqSpVQkF15taGO1vYdFklTiXn1rVNbmspChqrrpbW9tbbHcKkaqKDptiqTfm3aWuqaZpc/&#xA;mrzz/iS0bUI/0xpWjPBbxWlmiu7CDT1lM00nqKsfqSszICSFr0VTHzN+fFn+gNO8v+RbceVvLckk&#xA;Omz+YroxJLYWzVDSW+nxu9x8KKf3rqArddyGxVmfl/z/APl/5b0a28p/ljbSecNTQFlttPYOrSOf&#xA;judQvyBDHzb7Tsa9gtKYqmOo6p+fel6fNrk9n5fvre1Rp7jy/Z/XBdtEo5MkV27em8wA2/cgHpir&#xA;PvL+uadr+h2GtabJ6thqMEdzbOdjwkUMAw3owrQjscVR+KuxV2KuxV2KuxV2KuxV2KuxV2KuxV2K&#xA;uxV2KuxVJdX83aTp1wbGMS6jq3EMulWC+vc0P2S4qqQqezzMif5WKoP6p521epu7qPy7Yt0trLhc&#xA;3zA9OdxKpgi8GVIn/wAmTFUfpPlLy/pVw13a2ga/cESajcM9zdsD+y1xOZJSvgvKg7DFU3xV2Kux&#xA;V2KuxV2KuxV2KuxVjmq2smr6/JpM17LbWFvaQ3LWsIh/0kyyyo4kMscj8Y/ST+7K/a+Ku2KsQ1fy&#xA;vYeVPMGlT6LI9rNdT2/qiBLe2WRW1KxtXSVLWKAThoLmX++DkU5AgiuKvUsVeffkWiw+RHsoxxt7&#xA;HVtXtrZP5Yo9Sn4r9GKvQcVad0RGd2CooJZiaAAbkknFVGzv7G9jMtlcxXMQJUvC6yKGHUVUkVxV&#xA;XxV2KuxV2KuxV2KuxV2KuxV2KuxV2KsYGnea9bblqtydE0xhtpmnyVu3B7XF6Ken/q24BB6SsMVT&#xA;rSNE0jRrMWel2kVnbAljHEoXk7fadz1Z27s2574qjcVdirsVdirsVdirsVYRqnkfzLJqlxd6f5gn&#xA;9C5dpDb3E14DEWNeEfoTxxCNeij0g3izbUVQv+GvzNhANtrFKVHD66Dsf8q50+9/EE++Ku/R35zR&#xA;H9xfWMorWl5dpJtT/l30q1+jFXAfn+BSvlVqCgLfpGpPuQAPuGKoTUIPzjv/AEzeaHoD3Fvy9C4i&#xA;u7tXjLUDGKZRFKoagrTjXviqWaIut2uuNfanokut6hZuRE2mg/VUlUNGWee6aWWaZAzJQzsqVNFV&#xA;q4qzDTvzHtZr76nqmk6ho784YhcXcQ9D1LlikKllYsvqOpVWZAhb4Q1aDFUl/J/UrSz8jXNzKxKT&#xA;65rItlQF3mLalPxESjdiaHp+oYqoz+aPzG81+atZ8s+XTa+VLfQ2t11DUb1Re6gwuYhNG1tbKfq6&#xA;qRVebu4qDttiqMh/I3yfcuJ/NFxqHm28BDGXWbuWaIN1+C1jMVsq16D08VSjzH5e0f8ALTzRonm7&#xA;y5ZQ6V5evJo9G812Nqiw2/pXTCOzvTGvFFaG4Kq7UqVfFXrWKuxV2KuxV2KuxV2KuxV2KuxV2Kux&#xA;V2KuxV2KuxV2KuxV2KuxV2KuxV2KuxV2KuxVidt5hsvK9muna8HtVtyywXyo80dyhYkSsYg7LI1f&#xA;3nMCrk0LdcVeZfmZ+b/l/VLoaL5LJ17zJqFuLK1trdGoZHuI5ecjMB6a26wseR6F69A1FUr/ACy8&#xA;pfmHN5ItvNPlzWnM+jNJD5a0Z/T/AEfqNtFIfrss3JQ6vf3AkeN+QKLx3puFWT6zrlvrGn2P5u+T&#xA;YJP055fVrXzRobDhdS2KkG8sLiPqJ7Y/vYq+G1QwxV63pGrafrGl2mq6dMtxYX0ST2069GjkUMp+&#xA;44qgfOnlq28z+U9X8vXFBHqdrLbBz0R3UhH/ANg9GHyxVLPyp8xXPmH8vND1O8qNQNv9X1EN9oXd&#xA;qxt7ivX/AHbE2KssxV2KuxV2KuxV2KuxV2KuxV2KuxV2KuxV2KuxV2KuxV2KuxVg/wCYem/ltpei&#xA;ahrnmDTLPk6sXkAjt7i4mpVEEwMbFyVqGLfDTkSACcVYB5f1C+1fRrC08laHqetTxWsMF95oudW1&#xA;HSdJluI4wsksXGUTXK+oG3jip4HFUz/5U/8AmPqY9TVvN8FhWlbS0ivdRQAdhJql5cV/5FUr27Yq&#xA;vP8Azj3KxEsvmf1LlT8EraJohXfrzVrQ8zv1JxV3/KhdVQkweZbME0PN/Lmjh1I6FHgigZcVcfyH&#xA;12Xa483RPGP2BoemsCfcTrcL/wALiqIsf+cbvJ6SGTUNT1O+DH95bxSQadA3syadDaMdj3bFVfz/&#xA;AOXPKv5d/lH5suvKujw6dcNp00Jntk/0gmcekHkmYmR/TMnOrMaUxVAr/wA42+WLbX/LetaZeT6f&#xA;NokUcdzbJxmgnaCApFMscwdEkEoV2+Gh8A3xYqi/NfkPz5Y66/nHydNZP5h9MLqVrR7W31SGMHhD&#xA;cwEyo0w/3XOJIyvQgr0VYb5D/Mh/LNub3RdHvL/yDqpa9XTEVIp9Fu5WrPaxyztDazQvKSyIsquu&#xA;/wANMVehL+Yf5h6siny55BukhmUGK+1q9tLOFa9GMdu93Kw7/CMVTr8tfKWp+WfL89tqtzDc6nqF&#xA;/d6pe/VVZbaOa9mMzxW4f4/TQtQct8VZXirsVdirsVdirsVdirsVdirsVdirsVdirsVdirsVdiqC&#xA;1XXNF0e3Fxq1/b6fbk0Et1KkKE+AZyorirFtd/Mr0rRD5e0u41Se5lS2tbudHsrD1ZDsxmmVXkjV&#xA;Qzs0COOKmpGKsA8neSF/MzXn85ea7h9X8s2crw6Dazrwgvmiekl2YASqWvqJ+5h35gBpCx6qvdER&#xA;ERURQqKAFUCgAGwAAxVvFVkk0MYJkkVAFZyWIFFWnJt+wrucVSFPNyakRD5dg+vXXESS/WhPZRRx&#xA;sKozu8LP+8/3XxQ169BiqC1K/wDM0UyRC8WPU71WMOiWsKXTJAlAZVnkNuqOCfiklrHUhVRm+2qn&#xA;Hlqw1qzspBrF8b26mk9QKeLCFSqj0hIqQ+puCxbgu52VRQYqwv8AN7y2vmHyprMtxfixjks20nTo&#xA;7sGCGK5ubpYnuJXY0ZZOMaoePwryIrzxVdZfnLa6WYrL8wtNuPKeoHin16VTPpM7Gg5Q38QaNQ1a&#xA;0l4le+KqX5k/mbfRWujaL5Ba21XzB5qle20y+jljmtrdI1BnuW9Njz9JG5/yilT2VlWZ+TPKth5U&#xA;8rab5dsWZ7fToVi9Z9mkf7Ukrf5UjksfniqpJ5V0UyPNawnT7h2LvNYu1qzuTXlIIiqymv8AvwMM&#xA;VXW1lr9tcIDqSXtnX94tzAq3FD1pLAYovkPR+nFWM/mzbea59Ks/8Om99dJZGlSwbgzkxMsSuyzW&#xA;7qObAhvjRT9uNl6KsbHmL88jqV/G+kmGxScC1kSCG5lCj6yEXiZbVHV2S35sH6MSCm4jVULrVPzv&#xA;e606zltZZLW5SwkvLmCFIGikeWKe4Sqs20a84WPLfeqbhsVTe61780rvzbqNho8QGk2120X1ua3Q&#xA;IgjjhkjjR+fKQTcpVkcp+7otK13VQVtq/wCeNyE5262aCSKMtJaRs7rJGPWkKLM4T0Zuap8R5KFY&#xA;1ruq59e/POe3n4abHZzKZ5Byt0kUenBeSW8UdJiXExitubNxKM7Lv+yqttr/APOyCRrFbeR0e6uk&#xA;+uzwwycIGupyk4YSgsyD0VSLhT0yWrUUxVmH5e6v5k1W31OXWHilhtLyWwsZ4VCrcrauytdChI/e&#xA;kheI2UqaYqy3FXYq7FXYq7FXYq7FXYq7FVK4a1iQ3NwURLcM5mkoAgp8Tcj9nbqcVeJfm/rmq+bm&#xA;0rQvLG8esTS6fpF45MSTyTQML29hYK7fV7axaWL1QpDNNVahPiVZ/wCVfN+l2+jR6XLpVzot1pQX&#xA;T10cRtPRoVCpFbyxLwl+ChHQ8PjICEMVVfVNa8zSW01wkS+X9Nijd2v7tFupmDFUjVLeKSqy15sE&#xA;Iev7sbszIqqHEejrYm+uvMGqW0MUzW0KTTNHJC4BMsbIE5SkoGblLzKL8SFacsVRWmaH5O1Uz3Au&#xA;F10wMkPrXEi3BiSIMUiDgAun71uRcsXqQzNiquvm9b/0YNEgM95OxaMXKyQxfVgjOtzzCPWGUqFR&#xA;h1LexGKo/RdOms4p73UXjbU7xvVvpkJMaqtfThRmCn04U2BoKmrEAscVYp+YvnnybZ+WBd61qctt&#xA;5Zuwj/XrFWuFvo6v6lojwiQor8VDP8NVaisNyFWBXPn3yR+Z+t6HHOi2/kLQIJNX1iDUI0EUk7+p&#xA;a2EEqLzRVWMPPQmlCoO+2Kom+8q6lplreWn5c+aZNK0eTlH+gNXjN7YFGRW/0GRknlt425MpBrvX&#xA;4aUxVMfyau/IFzazedIPL9l5b1bUeVpJbWsQYIttIY5iskUaoRJMrH4RuAuKvTf8U6D/AMtX/CSf&#xA;804q7/FOg/8ALV/wkn/NOKtp5m0N3VFuasxAA4SdT/scVa1/zRomgQwy6pO0SzsyxLFDNcOeCl3b&#xA;04EkfgiKWd6cVG5IxVq382+WLiNpItVtCqNIj8pkUgxSmB6hiDQSqVr44q6982eW7GB57zUIbdI3&#xA;9NxIeLhvX+rV4H4+Pq/DypTvWm+KqkHmXy/Ol3JFqNu0VgyJeS+qoSMyxpLHyYnjR0kUg1oa4qrN&#xA;rOjqZA19bgwsiSgypVGk+wrb7Fu1euKuGt6MYmlF/bekjFHk9VOKsASVJrQH4T92Kqtnf2N7GZLO&#xA;5iuY1NGeF1kUEgMASpPYg4qr4q7FXYq7FWNDzPrmoMx0HQpJ7Vel7qcrabFJt/ulDFPct/rPCqnq&#xA;rEYq3Z+e9KR1tNfH+HtU6G0v3RI5D421xUQzr/qNyH7SqdsVTO48y+XLY0udVs4TTlSS4iTbx3YY&#xA;ql5/MPyIdotfsLl/99W1xHcSdK7Rwl3P3Yq0fO9rLtp2larqMnVVSxmtlbw4y3wtISD486Yqta68&#xA;+34ItLGy0SJvsz30jXtwPENa2xii+kXR+WKtw+SLGadLrXbqfXrqNucYvSv1aNq1BjtIljt6qR8L&#xA;sjOP5sVY/ZoNY/PTUriT4ofKei21rbodwtzq0rzSyDwb0baNfkffFWVXmjaq17dT6bqKWEd8kYuB&#xA;9XE0iyIChmiZnCCQx8V+ON1+EbHcFVSs/KVobhNR1gpqWsrIJfroQwqvAARxxx85KRqVD8GZh6nx&#xA;/apRVdaaDpek37X8t7Ixllna2iuXiWOJ7yX1ZRHxRGYs1AObMQPhFBiqh5gbyNCUuNau7a2WSlmE&#xA;kuTCk/pVYW7xK6rPx5NSNlalTtucVTG41Wb6m8ml2Ul9OI4ngiP+jxsJq8T6soAAUCr8QWA/Zrti&#xA;qhc6euoaWyeZ1tzbTxIl7pvIS2fMScv7ySOJ5AfhWjAK38u+KsY8+/mLLpU9j5Z8t6P+nfMusGaG&#xA;102WsFvFDCRHJcXPJa/V1JpUDi9CA1cVeNTr5j/LvzVcXms6XpNmbq7S8FjPD6fl+5mEfBZdOv1Q&#xA;fULlVHH07pCtatz+LFWc+bPzlu9b8sS6Po+nX3lzWNSWKG41nU1ig07T7a4+3d/X/U+ryAxBzCY3&#xA;qx3A2xV6x5V0bR9F8t6bpWjIE0qzt447OneMKCGPiW+0T3JxVNMVdirsVY5528lWnmywhs7q5e3S&#xA;F2dWSOCU8mQqGX145ODpXkjpRlPelRirGNW/Iry/qVpc276jeQm4Yn6xH6QnEbSXkrxmQpyZWfUZ&#xA;Ca9eK1qKgqoFvyMjbzF67XwOitKb2dWWNriS5Nx6/HeL4Y+1BJSn7HKrYqnLfk5op8r6n5dF9crZ&#xA;6lPBdNIBEJY5LcRqvpuEBUcYUApuv7JGKpbB+QeixXEk36av5S5NFnW1nUBo7iJh6csLxfYvJKfB&#xA;StDQnlyVTGb8mtDle1U3twLK3MTyWISD0ppYVmT1Jf3fJiy3DBt6HFU+8n+SNK8qxTxaezFLgIJA&#xA;wRd42dg3wBdz6lPkBirIsVdirsVdirsVWTQwzxNFNGssTijxuAykeBB2xVB2+gaFbAi3021hBNSI&#xA;4Y1qR32UYqj8VdirsVdirzvRphpP53+Y7C5+EeZ9MsdR02Q7K7af6ltcxKe7KrxvTwNcVeiYq7FX&#xA;jsH5v+UvMs0OsW/lLX71bSZ4tO1qz0yPUV4RTj1VQxG5aH1TDRuSK/GhBBoQqmmnfnB5aaTU7i98&#xA;y2Gl2tuxC2Wo6Zd6bdRPPU27S/WbhfWBCmvCNeVOq4qoyfnr+X0urcofOVs2n20cks1va6fcyeob&#xA;eJpZgbv95FTghYKqhqDqcVQx80a15keyuvL35eXurS2wL2es+aHhsIYvUPqJLDG3rSt2oyxKabVx&#xA;VI/KPnr9FeYtQ8/eYrC4bSvMccVjeapHCZn0a9015La4sJ4oTK6W7SrzSRRuT8Xsqya6/MDzR55t&#xA;p7DyF5cE+kXAMUnmXzDG1vp7I1QzQWjj17oUHdVWuzYqoP8A84zflreeTdL8varbyXF3psHpLrMD&#xA;tb3DOzNJI4UFo6F3PFWVgq0A6Yq9Ch8n+WI4Y430qzmdFCtM9rbhnIFCzcI1Wp6mgA9sVX/4T8q/&#xA;9Wax/wCkaH/mnFXf4T8q/wDVmsf+kaH/AJpxVdH5X8sxSLJHpFkkiEMjrbxBlYGoIIXYjFWNfmT5&#xA;T8y67caRc6Dd/UrvS/rc0crMRG0rw8I4pUH24pd0fuAeQ3AxVjGleTvzigs7Cwl1doLW0gRJfQmj&#xA;FWhs3W3SP93yVVlCJNyY8/tCmKqer+VPzyi02WHSNelmuGkkCSXM0FVjVG9AjjGh3ler/F0H7QHp&#xA;sqyUad5/XyXqmn2CCz8xw3c17p11JKhgnM9/Jd+k3HkVQxN6b7d9umKsXn8nfnrJbPaXOuQXttc2&#xA;FzZ3UZITlIIJ7ZJa0qpnVbeWi/ZkL7qPtqpzc+WPzXisNLtLHVIUtYInjaC2P1WaKUtFwknuJRer&#xA;cxqomqqRxmrL3HNVUvh8t/ndIdRvm1T6teRxWw0iye4WW1aSipc+uFQH7PJ1p+144qgfMPkn88b3&#xA;SPMOknWVvrC8W4t7FRNHbzNFJFcxwlpDE/wgPb+qvwliDQ9WkVT/AM66J+btz5h1Gfy9qIh0ia1h&#xA;jtYfVVCkizRNKVHEHkyCQfaU0O0nRVVSlfK354XNnZRXetSQ3vpq1/dQXMMcRkXS5ERVhW35D/ch&#xA;wMjCSjLvx/lVVP8ADf52Xlzf3UmrTacrR/7j7SK4gkVW9G+NJOUTj+++p9O3L3xV69irsVdirsVd&#xA;irsVdirFvP8A5Fi81afbNb3b6Vr+ly/WtD1qEVltZ6UPwnZ45F+CSM7Mv0Yqkvl3802tb+Lyz+YN&#xA;unlzzQfggnZv9xuoU29SyuWotW/305DrWm+KvQ8VYNrf5OeT7/U5dZ07635b12Y8ptV0OdrKWQ7k&#xA;+rGvKCWpO5eMk4qw/UfyN8xWXmDTvM2kapbeYtbtblp7tvMvq/v1+rPbwqZLdXRFgErtGqwj4jUk&#xA;0GKorXfy3/MXzpd2EXm5NCtNE0+K9jSx0qS6eSRr60ksy3qTwoiemszMlIzRgMVR9l+Vn5hwRRQ/&#xA;8rL1SOCJVRYVtrFyFUAAeo0Ir9K4qyLyj+Weg+XNNNmZ7rV3luJby5uNSlMxlubhzJLK0QCQ8mc1&#xA;rwr74qy4AAUGwHQYq7FVK6urW0t3ubqZLe3iHKWaVgiKPFmYgDFWB3X52eVZ7qSw8q2975w1GMlW&#xA;i0WEzW6N0Hq3rmO1Rff1DiqkIPzv8xf70T6d5H09+sdv/uW1MDwMjiO0So7hXpiqeeUfy70vy5ez&#xA;al+kNS1jWLiL0J9S1S7kuJDHyD8FjqsMa8h+xGMVZVirsVdirsVdirsVdirsVdirsVdirsVdirsV&#xA;dirsVdirsVdiqB1rQ9G1zT5dN1ixg1Cwm/vLa5jWRD4GjA7jseoxVgw/KnWtBAPkLzXe6LbJsmi6&#xA;gP0rpwUb8I0nYXEQ/wBSX6MVVB5h/OzS1K6l5U03zAB/x8aLqBtWp/zD36D/AJPH6cVcPzp0uyYr&#xA;5l8va95cVa8rm80+Se2qPCexN0lPc0+7FU00z83/AMrNSQNaebNKYn/dcl3FDJt/xXKyP+GKp1/i&#xA;zyr/ANXmx/6SYf8AmrFUHf8A5i/l/pyFr7zLpdsAK0lvbdT36AvU9O2Ksel/PXyJMxi0D9IeaLkb&#xA;eholjcXf/JXikA+mTFVI6t+dPmP4NN0iy8mWDbG+1WQahf8AE9GjtLciFG9pJT8sVVbX8lfLt1Ol&#xA;75wvbzzlqCHkG1eTlaI3f0rCIR2qL7FG+eKs9tLS1s7aO2tIY7e2iHGKCJQiKvgqqAAPliqrirsV&#xA;dirsVdirsVdirsVdirsVdirsVdirsVdirsVdirsVdirsVdirsVdirsVdirGvMv8Ayrb1D/ib9Dep&#xA;ty/SX1WvTavr4qw//rFj/vxv+5RiqbaF/wAqD9Vf0D/hX1eXw/UP0dy57dPS3r0xVnsPpekno8fS&#xA;4j0+FOPGm3Gm1KYquxV2KuxV2KuxV2KuxV2KuxV2KuxV2KuxV2KuxV2Kv//Z</xmpGImg:image>
               </rdf:li>
            </rdf:Alt>
         </xmp:Thumbnails>
      </rdf:Description>
      <rdf:Description rdf:about=""
            xmlns:xmpMM="http://ns.adobe.com/xap/1.0/mm/"
            xmlns:stRef="http://ns.adobe.com/xap/1.0/sType/ResourceRef#"
            xmlns:stEvt="http://ns.adobe.com/xap/1.0/sType/ResourceEvent#">
         <xmpMM:DocumentID>xmp.did:4CC0730B3B20681188C69098C6AB8D67</xmpMM:DocumentID>
         <xmpMM:InstanceID>xmp.iid:4CC0730B3B20681188C69098C6AB8D67</xmpMM:InstanceID>
         <xmpMM:OriginalDocumentID>uuid:5300BF6A0426DF118833972942CE57BD</xmpMM:OriginalDocumentID>
         <xmpMM:DerivedFrom rdf:parseType="Resource">
            <stRef:instanceID>uuid:92e87aec-9b37-495f-befd-cad9da433350</stRef:instanceID>
            <stRef:documentID>uuid:5300BF6A0426DF118833972942CE57BD</stRef:documentID>
            <stRef:originalDocumentID>uuid:5300BF6A0426DF118833972942CE57BD</stRef:originalDocumentID>
         </xmpMM:DerivedFrom>
         <xmpMM:History>
            <rdf:Seq>
               <rdf:li rdf:parseType="Resource">
                  <stEvt:action>saved</stEvt:action>
                  <stEvt:instanceID>xmp.iid:4CC0730B3B20681188C69098C6AB8D67</stEvt:instanceID>
                  <stEvt:when>2015-02-12T17:06:26+02:00</stEvt:when>
                  <stEvt:softwareAgent>Adobe Illustrator CS5.1</stEvt:softwareAgent>
                  <stEvt:changed>/</stEvt:changed>
               </rdf:li>
            </rdf:Seq>
         </xmpMM:History>
      </rdf:Description>
      <rdf:Description rdf:about=""
            xmlns:pdf="http://ns.adobe.com/pdf/1.3/">
         <pdf:Producer>Adobe PDF library 7.77</pdf:Producer>
      </rdf:Description>
      <rdf:Description rdf:about=""
            xmlns:xmpTPg="http://ns.adobe.com/xap/1.0/t/pg/"
            xmlns:stDim="http://ns.adobe.com/xap/1.0/sType/Dimensions#"
            xmlns:xmpG="http://ns.adobe.com/xap/1.0/g/">
         <xmpTPg:MaxPageSize rdf:parseType="Resource">
            <stDim:w>115.062744</stDim:w>
            <stDim:h>61.634136</stDim:h>
            <stDim:unit>Millimeters</stDim:unit>
         </xmpTPg:MaxPageSize>
         <xmpTPg:NPages>1</xmpTPg:NPages>
         <xmpTPg:HasVisibleTransparency>False</xmpTPg:HasVisibleTransparency>
         <xmpTPg:HasVisibleOverprint>False</xmpTPg:HasVisibleOverprint>
         <xmpTPg:PlateNames>
            <rdf:Seq>
               <rdf:li>Cyan</rdf:li>
               <rdf:li>Magenta</rdf:li>
               <rdf:li>Yellow</rdf:li>
               <rdf:li>Black</rdf:li>
            </rdf:Seq>
         </xmpTPg:PlateNames>
         <xmpTPg:SwatchGroups>
            <rdf:Seq>
               <rdf:li rdf:parseType="Resource">
                  <xmpG:groupName>Default Swatch Group</xmpG:groupName>
                  <xmpG:groupType>0</xmpG:groupType>
               </rdf:li>
            </rdf:Seq>
         </xmpTPg:SwatchGroups>
      </rdf:Description>
   </rdf:RDF>
</x:xmpmeta>
                                                                                                    
                                                                                                    
                                                                                                    
                                                                                                    
                                                                                                    
                                                                                                    
                                                                                                    
                                                                                                    
                                                                                                    
                                                                                                    
                                                                                                    
                                                                                                    
                                                                                                    
                                                                                                    
                                                                                                    
                                                                                                    
                                                                                                    
                                                                                                    
                                                                                                    
                                                                                                    
                           
<?xpacket end="w"?>
	</metadata>
<g>
	<path fill="none" stroke="#000000" stroke-width="1.0001" d="M109.358,66.29l-2.681-1.122c4.926-1.435,7.731-5.425,8.917-12.346
		c2.557-14.404,15.027-23.321,29.119-31.739c-7.856,7.607-14.466,15.277-19.018,24.131c-1.185,2.307-1.372,4.614-0.686,6.921
		c0.811,2.681,0.125,5.237-1.808,7.607c-2.183,2.743-4.989,3.741-8.231,3.18L109.358,66.29z"/>
	<path fill="none" stroke="#6D6E71" stroke-width="1.0001" d="M176.888,87.678c-9.603,1.684-12.533,12.471-15.401,31.801
		c-2.307,15.463-12.097,26.812-25.253,30.678c-9.977,2.932-20.452,1.81-30.678-0.438l-1.372,3.555
		c11.972,5.611,25.814,6.547,39.844,2.683c17.209-4.677,26.999-15.651,32.673-28.87c5.112-12.097,10.725-17.896,14.778-18.332"/>
	<path fill="none" stroke="#000000" stroke-width="2.0001" d="M209.81,1.006c-37.785-0.25-72.766,6.859-104.939,21.45
		c-11.536,5.175-19.33,14.777-18.644,28.807c0.499,11.473,12.346,13.469,27.623,15.464c7.732,0.998,16.212-3.18,25.44-10.974
		c-6.984,6.048-12.346,12.034-9.353,12.97c5.113,1.621,9.977-1.746,14.341-6.485c0.312-0.312,0.561-0.624,0.873-0.935
		c0.312-0.375,1.247-1.435,0.936-1.06c-5.362,5.113-7.358,8.23-6.048,9.166c2.869,1.996,6.11,1.809,9.603-0.436
		c6.298-4.178,11.037-4.365,13.406,0c2.743,4.926,1.808,9.416,1.996,13.655c0.373,11.224-1.372,17.21-9.104,19.828
		c-10.725,3.616-21.575,3.555-32.923,2.933c-23.258-1.248-35.604,6.234-41.215,17.459c-6.797,13.653-9.852,24.877-1.809,33.108
		c8.106,8.293,20.764,12.408,35.604,14.59c18.582,4.864,37.038,4.304,55.682-2.931c12.72-4.926,25.688-9.104,38.533-13.654"/>
	<path fill="none" stroke="#000000" stroke-width="0.5" d="M140.66,119.479c-2.806,1.435-4.926,4.364-6.921,7.856
		c-0.749,1.247-1.31,1.247-1.808,0.437c-0.375-0.562-0.874-0.562-1.373-0.375c-1.247,0.375-0.686,1.311-1.184,2.619
		c-0.561,1.685-2.744,2.743-3.741,0.5c-0.374-0.812-0.499-1.248-1.06-1.062c-0.811,0.374-1.185,1.247-1.933,2.495
		c-1.06,1.932-2.681,2.306-4.552,2.306c-1.06,0-1.372-0.374-2.307-2.618c-0.374-0.936-1.434-0.873-2.058,0.062
		c-0.312,0.561-0.624,0.748-1.185,0.811c-0.749,0.062-0.998-0.25-0.998-1.121c0-0.5-0.561-0.688-1.434-0.312
		c-1.247,0.498-1.683,1.807-2.432,3.242c-0.748,1.371-1.933,1.619-2.993,1.619c-1.185-0.062-1.372-0.373-0.811-1.619
		c1.06-2.495,1.123-4.303,0-4.428c-2.245-0.375-3.242,1.56-4.676,4.178c-0.437,0.873-1.247,0.312-1.31-0.438
		c-0.062-0.561-0.312-0.811-0.811-0.873c-0.624,0-1.372,0.374-1.809,1.372c-0.686,1.685-1.559,2.683-2.868,3.117
		c-0.873,0.312-0.499-2.369-1.185-1.871c-0.998,0.688-0.624,2.371-4.053,1.935c-0.936-0.062-1.497-0.936-1.684-2.494
		c-0.062-0.623-0.125-1.248-0.375-1.871c-1.372-3.305-3.367-4.676-5.362-5.424c1.185-0.188,2.494,0,3.554,0.996
		c0.624,0.625,1.123,1.248,1.995,1.685c2.183,1.187,3.991,1.871,4.739,0.687c0.749-1.123,1.372-1.746,1.996-0.998
		c0.436,0.562,0.997,0.5,2.182-1.185c0.312-1.371,1.06-0.748,1.122-0.312c0.187,0.873,0.375,1.246,1.434,0.811
		c0.686-0.312,0.936-0.936,0.749-1.497c-0.188-0.687,0-0.998,0.686-1.31c0.623-0.25,0.811-0.188,1.247,0.312
		c0.25,0.312,0.187,1.124,1.247,0.375c0.499-0.312,0.686-0.812,0.873-1.435c0.312-1.061,0.873-1.496,1.435-1.435
		c0.624,0.125,1.247,0.437,1.372,0.997c0.25,0.873,0.437,1.561,1.808,0.188c1.746-1.745,2.557-2.058,2.868-0.936
		c0.312,0.998,1.247,1.311,2.245,0.499c0.873-0.748,1.309-0.997,1.497-0.437c0.312,0.936,1.06,0.998,2.245,0.998
		c0.686,0,1.06-0.312,1.185-1.621c0.125-0.937,0.561-1.497,1.372-1.684c0.686-0.188,1.184,0.125,1.372,0.935
		c0.499,1.559,1.559,0.997,2.868-0.624c1.06-1.934,2.37-3.116,2.993-2.307c0.873,1.248,0.935,1.685,1.87,1.123
		c1.06-0.688,1.808-1.373,2.183-2.494c0.561-1.496,1.996-1.935,2.931-1.186c1.06,0.936,1.871,1.186,2.681,0.125
		c1.559-2.12,2.619-3.182,3.242-2.184c0.873,1.371,1.871,1.684,3.055,0.873c1.933-1.435,3.43-1.933,4.677-1.746
		c1.248,0.188,1.559,0.438,0.187,1.621c-0.811,0.748-1.746,1.436-2.868,1.934C142.095,118.667,141.409,119.104,140.66,119.479z"/>
	<path fill="#FFFFFF" stroke="#000000" stroke-width="2.0001" d="M177.698,91.854c-1.934-2.492-1.995-3.554,0.562-4.676
		c5.61-2.681,11.098-4.427,16.586-5.238c1.62-0.25,3.18,0.125,4.676,2.931c2.744,5.176,4.863,11.473,6.609,18.643
		c0.499,1.996-0.623,3.182-2.494,3.867c-3.117,1.122-6.298,1.559-9.416,1.932c-2.557,0.312-5.175-0.871-7.482-3.927
		C183.498,101.021,181.065,96.095,177.698,91.854z"/>
	<path fill="#FFFFFF" stroke="#000000" stroke-width="2.0001" d="M166.226,96.531c1.371-2.743,3.18-3.117,5.86,0.374
		c3.243,4.364,6.797,7.546,10.228,10.227c3.055,2.433,3.181,5.612,0.936,8.979c-1.122,1.621-2.307,3.24-3.305,4.986
		c-1.248,2.12-2.12,2.682-4.24,1.81c-3.866-1.496-8.105-2.619-12.221-5.112c-1.373-0.938-1.373-2.495-1.498-5.113
		C161.798,107.257,163.419,101.956,166.226,96.531z"/>
	<path fill="#FFFFFF" stroke="#000000" stroke-width="2.0001" d="M159.927,124.715c0.811-2.244,1.559-3.117,3.802-1.496
		c2.933,2.12,6.361,3.242,9.666,4.678c2.119,0.998,2.119,2.744,1.185,4.552c-0.81,1.559-1.869,3.056-2.558,4.677
		c-1.496,3.117-3.803,4.427-6.981,2.868c-2.807-1.435-5.487-2.744-7.982-4.24c-1.497-0.937-1.122-2.869-0.062-4.862
		C158.057,128.895,159.117,126.836,159.927,124.715z"/>
	<path fill="#FFFFFF" stroke="#000000" stroke-width="2.0001" d="M150.949,139.119c2.183-2.184,3.117-2.37,4.988-0.438
		c2.058,2.12,4.676,2.932,7.046,3.866c1.559,0.687,2.681,2.308,0.561,3.99c-2.619,2.12-6.11,2.868-9.041,4.552
		c-2.37,1.436-4.24,0-6.859-2.182C144.838,146.602,146.023,144.045,150.949,139.119z"/>
	<path fill="#FFFFFF" stroke="#000000" stroke-width="2.0001" d="M140.972,148.598c1.497-0.687,2.307-0.25,2.931,1.121
		c1.434,3.555,1.933,6.049-0.748,6.236c-3.118,0.124-6.236-0.126-9.354,0.124c-1.247,0.125-1.808-0.124-1.746-1.372
		c0-0.623-0.249-1.371,0.062-1.995c0.437-0.872-0.686-1.995,1.933-2.244C136.42,150.218,138.665,149.22,140.972,148.598z"/>
	<path fill="#FFFFFF" stroke="#000000" stroke-width="2.0001" d="M120.396,152.338c1.746,0,1.808,0.062,3.242-0.188
		c1.06-0.187,5.674-1.559,5.674-0.062s-0.437,2.993-0.437,4.427c0,2.059-6.111,1.809-7.732,1.809c-0.873,0-1.684-0.622-2.557-0.622
		c-0.249,0,0.187-3.306,0.25-3.867C118.961,152.898,119.897,152.65,120.396,152.338z"/>
	<path fill="#FFFFFF" stroke="#000000" stroke-width="2.0001" d="M103.435,150.779c-2.182,1.434,2.744,3.305,8.729,5.176
		c2.619,0,4.49-0.998,4.49-3.866c0-1.684-7.981-1.123-9.104-1.56C105.555,149.719,103.248,148.721,103.435,150.779z"/>
	<path fill="none" stroke="#000000" stroke-width="1.0001" stroke-dasharray="5.0003,3.0002,1.0001,3.0002" d="M163.729,101.458
		c-3.491,12.782-10.413,22.884-20.14,30.428c-10.163,7.857-21.263,10.538-32.922,10.788c-4.552,0.125-4.739,2.059-0.873,3.241
		c10.912,3.368,22.821,1.497,39.719-7.045c12.47-6.36,25.377-12.783,36.103-27.124"/>
	<g>
		<g>
			<g>
				<defs>
					<path id="SVGID_2_" d="M110.356,32.37c3.242,1.808,2.931,8.542-0.749,15.089c-3.616,6.547-9.228,10.413-12.47,8.604
						c-3.243-1.808-2.869-8.604,0.748-15.151C101.502,34.428,107.114,30.562,110.356,32.37z"/>
				</defs>
				<clipPath id="SVGID_3_">
					<use xlink:href="#SVGID_2_"  overflow="visible"/>
				</clipPath>
			</g>
			<g>
				<path id="SVGID_1_" fill="none" stroke="#000000" stroke-width="2.0001" d="M110.356,32.37
					c3.242,1.808,2.931,8.542-0.749,15.089c-3.616,6.547-9.228,10.413-12.47,8.604c-3.243-1.808-2.869-8.604,0.748-15.151
					C101.502,34.428,107.114,30.562,110.356,32.37z"/>
			</g>
		</g>
	</g>
	<path fill="none" stroke="#000000" stroke-width="1.0001" d="M0.24,88.426C13.148,81.38,26.117,75.145,39.211,70.53
		c11.286-3.991,24.755-7.981,31.738-6.485c8.417,1.871,17.209,1.684,25.876,3.492c10.912,2.307,21.886,2.806,32.923,2.993
		c13.655,0.188,21.449,1.746,21.512,5.237c0.125,8.667-4.053,10.912-13.219,10.725c-13.842-0.187-27.685-2.369-41.59-2.743
		c-6.36-0.188-0.811,2.369,0,2.494c17.646,1.31,35.292,1.123,53,1.747c5.113-0.251,11.411,0.124,12.283,4.238
		c1.123,5.487-3.18,8.854-7.669,9.291c-8.23,0.873-16.336,1.994-24.941,1.248c-7.607-0.688-14.404,0-20.951,0.623
		c-5.861,0.562-11.723,0.248-17.521-0.312c2.245,1.561,1.995,2.682,1.497,3.99c-1.559,4.429-5.924,6.361-9.54,8.916
		c-2.494,1.811-3.679,4.678-4.303,7.108c-1.746,6.673-5.113,8.169-9.228,10.164c-14.591,6.983-30.678,8.854-46.516,9.541
		c-3.492,0.124-7.358-0.874-10.413-3.368c-2.495-1.994-5.861-1.371-10.476,1.436l-1.435,0.561"/>
	<g>
		<line fill="none" stroke="#000000" stroke-width="1.0001" x1="90.715" y1="103.078" x2="83.731" y2="102.704"/>
		<path fill="none" stroke="#000000" stroke-width="1.0001" d="M80.988,117.544c-4.676,2.558-9.291,3.931-13.905,4.74"/>
	</g>
	<path fill="none" stroke="#000000" stroke-width="0.5" d="M148.081,74.521c-3.43,0.187-7.108-1.746-10.289,0.436
		c-1.621,1.185-1.372,3.243-0.624,5.175c1.434,3.368,5.362,3.867,10.725,1.996C147.956,79.759,149.577,77.202,148.081,74.521z"/>
	<path fill="none" stroke="#000000" stroke-width="0.5" d="M156.935,89.859c-4.053-0.748-8.48-1.435-12.034,0.873
		c-2.058,1.373-1.559,4.927-0.125,6.673c2.744,3.366,7.981,2.806,12.471,2.368C158.743,96.469,158.618,93.165,156.935,89.859z"/>
	<path stroke="#000000" stroke-width="0.0448" stroke-linecap="round" stroke-linejoin="round" d="M164.542,102.768l6.109,4.489
		c-0.623-2.058-0.25-3.616,1.371-5.051L164.542,102.768z"/>
	<path stroke="#000000" stroke-width="0.0448" stroke-linecap="round" stroke-linejoin="round" d="M99.694,35.862l-7.108-2.681
		c1.122,1.746,1.184,3.367,0,5.175L99.694,35.862z"/>
	<path stroke="#000000" stroke-width="0.0448" stroke-linecap="round" stroke-linejoin="round" d="M134.612,26.259l-6.547-3.741
		c0.811,1.933,0.624,3.554-0.811,5.175L134.612,26.259z"/>
	<path stroke="#000000" stroke-width="0.0448" stroke-linecap="round" stroke-linejoin="round" d="M148.392,131.139l7.108,2.68
		c-1.122-1.744-1.247-3.365-0.062-5.174L148.392,131.139z"/>
	<path stroke="#000000" stroke-width="0.0448" stroke-linecap="round" stroke-linejoin="round" d="M166.786,143.796l7.046,2.681
		c-1.121-1.808-1.185-3.43,0-5.236L166.786,143.796z"/>
	<path d="M37.341,14.038h0.125c0.437,0,0.811,0.062,1.122,0.187c0.312,0.125,0.499,0.312,0.686,0.561
		c0.125,0.312,0.25,0.562,0.25,0.811c0,0.312-0.062,0.562-0.25,0.749c-0.125,0.25-0.374,0.437-0.624,0.623
		c0.374,0.062,0.624,0.25,0.873,0.562c0.187,0.249,0.312,0.562,0.312,0.935c0,0.25-0.062,0.561-0.187,0.811
		s-0.312,0.437-0.499,0.562s-0.375,0.249-0.686,0.312c-0.25,0.062-0.561,0.062-0.998,0.062H37.34v-0.686h0.125
		c0.312,0,0.499,0,0.561-0.062c0.187,0,0.375-0.062,0.499-0.125c0.125-0.125,0.25-0.249,0.312-0.374s0.125-0.312,0.125-0.499
		c0-0.249-0.062-0.437-0.188-0.623c-0.125-0.188-0.312-0.312-0.499-0.375c-0.187-0.062-0.499-0.062-0.873-0.062H37.34v-0.749
		c0.312,0,0.561-0.062,0.748-0.062c0.187-0.062,0.312-0.188,0.436-0.312c0.125-0.187,0.188-0.374,0.188-0.562
		c0-0.187-0.062-0.374-0.188-0.561c-0.062-0.125-0.187-0.25-0.374-0.312c-0.188-0.062-0.437-0.062-0.811-0.062v-0.749H37.341z
		 M35.096,20.211v-6.173h2.245v0.748h-0.188h-1.185v1.871h1.309h0.063v0.749h-1.372v2.12h1.372v0.686L35.096,20.211L35.096,20.211z"
		/>
	<rect x="40.832" y="14.038" width="0.749" height="6.173"/>
	<path d="M45.696,19.712c-0.312,0.188-0.561,0.374-0.811,0.499c-0.125,0-0.25,0.062-0.437,0.062v-0.562
		c0.187,0,0.375-0.062,0.562-0.187c0.25-0.125,0.374-0.25,0.499-0.499c0.062-0.187,0.125-0.436,0.125-0.748v-0.312
		c-0.249,0.125-0.623,0.187-1.185,0.312v-0.624c0.562-0.125,0.936-0.187,1.185-0.249c0-0.125,0-0.188,0-0.188
		c0-0.312-0.062-0.561-0.249-0.686c-0.188-0.188-0.437-0.25-0.811-0.25h-0.125v-0.624c0.062,0,0.125,0,0.187,0
		c0.437,0,0.686,0.062,0.936,0.125c0.25,0.062,0.437,0.187,0.561,0.312c0.125,0.188,0.187,0.312,0.25,0.561c0,0.125,0,0.374,0,0.686
		v0.998c0,0.749,0,1.185,0.062,1.372c0.062,0.188,0.125,0.374,0.188,0.499h-0.811C45.758,20.086,45.696,19.899,45.696,19.712z
		 M44.449,20.273c-0.125,0.062-0.25,0.062-0.436,0.062c-0.499,0-0.874-0.125-1.123-0.374c-0.249-0.25-0.374-0.561-0.374-0.936
		c0-0.187,0.062-0.374,0.125-0.561c0.125-0.187,0.249-0.312,0.374-0.437c0.187-0.125,0.374-0.187,0.561-0.25
		c0.188-0.062,0.374-0.062,0.686-0.125h0.187v0.624h-0.062c-0.312,0.062-0.561,0.062-0.686,0.125
		c-0.125,0.062-0.187,0.187-0.312,0.25c-0.062,0.125-0.062,0.25-0.062,0.374c0,0.188,0.062,0.375,0.187,0.499
		c0.187,0.125,0.436,0.25,0.686,0.25c0.125,0,0.187-0.062,0.25-0.062L44.449,20.273L44.449,20.273z M44.449,16.283
		c-0.312,0-0.561,0.062-0.686,0.187c-0.188,0.125-0.312,0.312-0.375,0.687l-0.748-0.125c0.062-0.312,0.187-0.562,0.312-0.748
		c0.187-0.249,0.375-0.374,0.686-0.499c0.25-0.063,0.499-0.125,0.811-0.125V16.283z"/>
	<path d="M50.497,20.211V19.65c-0.312,0.436-0.686,0.686-1.185,0.686v-0.624l0,0c0.312,0,0.624-0.125,0.811-0.437
		c0.25-0.25,0.374-0.686,0.374-1.184c0-0.624-0.125-1.123-0.374-1.372c-0.187-0.312-0.499-0.437-0.811-0.437v-0.624
		c0.188,0,0.437,0.062,0.624,0.187c0.187,0.062,0.374,0.25,0.499,0.438v-2.245h0.748v6.173L50.497,20.211L50.497,20.211z
		 M49.312,20.335H49.25c-0.374,0-0.686-0.125-0.998-0.312s-0.561-0.437-0.686-0.811c-0.188-0.374-0.25-0.749-0.25-1.247
		c0-0.437,0.062-0.811,0.187-1.185c0.188-0.375,0.375-0.624,0.686-0.873c0.312-0.188,0.624-0.25,0.998-0.25c0.062,0,0.062,0,0.125,0
		v0.624H49.25c-0.312,0-0.624,0.125-0.811,0.437c-0.25,0.249-0.374,0.686-0.374,1.247c0,0.624,0.125,1.06,0.374,1.309
		c0.25,0.312,0.499,0.437,0.873,0.437V20.335z"/>
	<path d="M55.298,20.211V19.65c-0.25,0.436-0.686,0.686-1.185,0.686v-0.624l0,0c0.312,0,0.624-0.125,0.874-0.437
		c0.187-0.25,0.312-0.686,0.312-1.184c0-0.624-0.125-1.123-0.312-1.372c-0.25-0.312-0.562-0.437-0.874-0.437v-0.624
		c0.25,0,0.437,0.062,0.624,0.187c0.187,0.062,0.374,0.25,0.499,0.438v-2.245h0.748v6.173L55.298,20.211L55.298,20.211z
		 M54.113,20.335h-0.062c-0.374,0-0.686-0.125-0.998-0.312c-0.312-0.187-0.499-0.437-0.686-0.811s-0.25-0.749-0.25-1.247
		c0-0.437,0.062-0.811,0.25-1.185c0.125-0.375,0.374-0.624,0.624-0.873c0.312-0.188,0.686-0.25,0.998-0.25c0.062,0,0.062,0,0.124,0
		v0.624l0,0c-0.374,0-0.623,0.125-0.873,0.437c-0.25,0.249-0.312,0.686-0.312,1.247c0,0.624,0.062,1.06,0.312,1.309
		c0.25,0.312,0.561,0.437,0.873,0.437V20.335z"/>
	<path d="M60.287,18.777l0.811,0.125c-0.125,0.436-0.374,0.81-0.686,1.06c-0.375,0.25-0.811,0.374-1.31,0.374H59.04v-0.624h0.062
		c0.25,0,0.499-0.062,0.686-0.249C60.037,19.338,60.162,19.089,60.287,18.777L60.287,18.777z M59.04,15.659L59.04,15.659
		c0.624,0,1.123,0.187,1.496,0.624c0.375,0.374,0.562,0.935,0.562,1.684c0,0.062,0,0.125,0,0.25H59.04v-0.624h1.247
		c0-0.437-0.125-0.686-0.312-0.873c-0.187-0.312-0.499-0.437-0.935-0.437l0,0V15.659z M59.04,20.335
		c-0.624,0-1.123-0.187-1.496-0.624c-0.375-0.374-0.562-0.935-0.562-1.684c0-0.748,0.188-1.309,0.562-1.746
		c0.374-0.438,0.873-0.624,1.496-0.624v0.624c-0.312,0-0.624,0.125-0.873,0.312c-0.25,0.25-0.374,0.561-0.374,0.998h1.247v0.624
		h-1.31c0.062,0.437,0.187,0.873,0.437,1.122c0.25,0.25,0.499,0.374,0.873,0.374V20.335z"/>
	<path d="M62.032,20.211v-4.49h0.686v0.686c0.188-0.312,0.312-0.499,0.499-0.623c0.125-0.063,0.25-0.125,0.437-0.125
		c0.25,0,0.561,0.062,0.811,0.25l-0.25,0.686c-0.187-0.125-0.374-0.188-0.561-0.188s-0.312,0.062-0.437,0.188
		c-0.187,0.062-0.25,0.25-0.312,0.374c-0.063,0.312-0.125,0.624-0.125,0.937v2.307L62.032,20.211L62.032,20.211z"/>
	<path d="M0.178,35.3l0.811-0.062c0,0.312,0.125,0.561,0.25,0.748s0.312,0.374,0.624,0.499c0.25,0.125,0.624,0.187,0.935,0.187
		c0.312,0,0.624-0.062,0.811-0.124c0.25-0.125,0.436-0.25,0.561-0.375c0.125-0.187,0.187-0.374,0.187-0.561
		s-0.062-0.374-0.187-0.499s-0.312-0.25-0.561-0.374c-0.125-0.062-0.499-0.188-1.123-0.312c-0.561-0.125-0.936-0.25-1.185-0.375
		c-0.25-0.187-0.499-0.374-0.624-0.561c-0.188-0.25-0.25-0.499-0.25-0.811s0.125-0.561,0.25-0.873
		c0.187-0.25,0.437-0.436,0.811-0.624c0.312-0.125,0.686-0.187,1.123-0.187c0.499,0,0.873,0.062,1.247,0.187
		c0.312,0.188,0.623,0.374,0.811,0.686c0.187,0.312,0.25,0.624,0.312,0.998L4.17,32.929c-0.062-0.437-0.187-0.686-0.437-0.936
		c-0.25-0.187-0.624-0.249-1.06-0.249c-0.499,0-0.873,0.062-1.123,0.249c-0.187,0.188-0.312,0.375-0.312,0.624
		c0,0.25,0.062,0.437,0.25,0.562c0.125,0.187,0.561,0.312,1.247,0.436c0.624,0.188,1.123,0.312,1.372,0.437
		c0.312,0.125,0.624,0.375,0.748,0.624c0.188,0.249,0.312,0.561,0.312,0.873s-0.125,0.624-0.312,0.936s-0.436,0.499-0.811,0.686
		c-0.374,0.125-0.748,0.25-1.184,0.25c-0.562,0-1.061-0.125-1.435-0.25c-0.374-0.187-0.686-0.436-0.873-0.748
		C0.303,36.111,0.24,35.737,0.178,35.3z"/>
	<path d="M6.101,39.042l-0.062-0.749c0.187,0.062,0.312,0.062,0.437,0.062c0.187,0,0.312,0,0.437-0.062
		c0.062-0.062,0.125-0.125,0.249-0.249c0-0.063,0.125-0.25,0.187-0.562c0-0.062,0.062-0.125,0.062-0.187l-1.683-4.49h0.811
		l0.935,2.619c0.125,0.312,0.25,0.686,0.312,0.998c0.125-0.312,0.187-0.686,0.312-0.998l0.998-2.619h0.749l-1.684,4.552
		c-0.187,0.499-0.374,0.873-0.436,1.06c-0.125,0.25-0.312,0.437-0.499,0.499C7.037,39.042,6.85,39.104,6.6,39.104
		C6.476,39.104,6.289,39.104,6.101,39.042z"/>
	<path d="M10.466,37.296v-4.49h0.686v0.624c0.188-0.188,0.375-0.375,0.561-0.499c0.25-0.187,0.499-0.25,0.811-0.25
		s0.624,0.062,0.811,0.25c0.25,0.125,0.374,0.312,0.436,0.561c0.375-0.499,0.874-0.811,1.435-0.811c0.437,0,0.748,0.125,0.998,0.374
		s0.374,0.624,0.374,1.185v3.055h-0.749V34.49c0-0.312-0.062-0.562-0.062-0.686c-0.062-0.125-0.187-0.25-0.312-0.312
		s-0.25-0.125-0.437-0.125c-0.312,0-0.562,0.125-0.811,0.312c-0.188,0.187-0.312,0.561-0.312,0.998v2.619h-0.748v-2.931
		c0-0.312-0.062-0.561-0.188-0.749c-0.124-0.187-0.312-0.25-0.623-0.25c-0.187,0-0.375,0.063-0.562,0.188
		c-0.187,0.062-0.312,0.25-0.374,0.499c-0.125,0.188-0.125,0.499-0.125,0.937v2.307H10.466z"/>
	<path d="M19.632,32.682h0.062c0.374,0,0.748,0.125,0.998,0.312c0.312,0.187,0.562,0.499,0.686,0.873
		c0.125,0.312,0.25,0.748,0.25,1.123c0,0.499-0.125,0.873-0.25,1.247c-0.187,0.374-0.437,0.686-0.748,0.873
		c-0.312,0.187-0.624,0.312-0.998,0.312l0,0v-0.624c0.312,0,0.624-0.187,0.811-0.437c0.25-0.312,0.375-0.748,0.375-1.372
		c0-0.562-0.125-0.998-0.375-1.247c-0.187-0.312-0.499-0.437-0.811-0.437l0,0V32.682z M17.699,39.042v-6.236h0.686v0.561
		c0.188-0.187,0.375-0.374,0.562-0.499s0.436-0.125,0.686-0.187v0.624c-0.312,0-0.623,0.125-0.873,0.437s-0.375,0.749-0.375,1.31
		c0,0.623,0.125,1.06,0.375,1.309s0.499,0.437,0.811,0.437h0.062v0.624c-0.25,0-0.499-0.062-0.686-0.187
		c-0.187-0.125-0.374-0.249-0.499-0.374v2.183h-0.749V39.042z"/>
	<path d="M22.5,37.296v-6.173h0.811v2.182c0.312-0.374,0.749-0.624,1.31-0.624c0.312,0,0.623,0.062,0.873,0.25
		c0.25,0.125,0.437,0.312,0.499,0.499c0.125,0.25,0.187,0.561,0.187,0.998v2.868h-0.748v-2.868c0-0.375-0.125-0.624-0.25-0.811
		c-0.187-0.187-0.437-0.25-0.686-0.25s-0.436,0.063-0.686,0.188c-0.188,0.125-0.312,0.25-0.375,0.437
		c-0.125,0.25-0.125,0.499-0.125,0.873v2.432L22.5,37.296L22.5,37.296z"/>
	<path d="M27.301,39.042l-0.062-0.749c0.125,0.062,0.312,0.062,0.437,0.062s0.312,0,0.374-0.062c0.125-0.062,0.187-0.125,0.25-0.249
		c0.062-0.063,0.125-0.25,0.249-0.562c0-0.062,0-0.125,0.062-0.187l-1.683-4.49h0.811l0.935,2.619
		c0.125,0.312,0.187,0.686,0.312,0.998c0.062-0.312,0.187-0.686,0.312-0.998l0.936-2.619h0.811l-1.746,4.552
		c-0.187,0.499-0.312,0.873-0.437,1.06c-0.125,0.25-0.25,0.437-0.436,0.499c-0.188,0.125-0.375,0.187-0.624,0.187
		C27.676,39.104,27.489,39.104,27.301,39.042z"/>
	<path d="M31.354,35.986l0.749-0.125c0.062,0.249,0.187,0.499,0.374,0.686c0.187,0.124,0.436,0.249,0.811,0.249
		c0.312,0,0.624-0.125,0.749-0.249c0.187-0.125,0.249-0.312,0.249-0.499s-0.062-0.312-0.187-0.375
		c-0.125-0.062-0.375-0.187-0.811-0.249c-0.561-0.187-0.936-0.312-1.123-0.374c-0.25-0.125-0.374-0.25-0.499-0.437
		s-0.187-0.374-0.187-0.623c0-0.188,0.062-0.375,0.125-0.561c0.125-0.188,0.25-0.312,0.375-0.437
		c0.125-0.062,0.312-0.125,0.499-0.188c0.187-0.062,0.436-0.125,0.686-0.125c0.312,0,0.624,0.062,0.936,0.187
		c0.25,0.062,0.437,0.25,0.561,0.374c0.125,0.188,0.188,0.437,0.25,0.749l-0.748,0.062c0-0.187-0.125-0.374-0.25-0.499
		c-0.188-0.188-0.437-0.25-0.686-0.25c-0.374,0-0.624,0.062-0.748,0.188c-0.187,0.125-0.25,0.25-0.25,0.437
		c0,0.062,0,0.187,0.062,0.25c0.062,0.062,0.187,0.125,0.312,0.187c0.062,0.062,0.312,0.125,0.686,0.187
		c0.561,0.187,0.935,0.312,1.122,0.374c0.188,0.062,0.375,0.25,0.499,0.374c0.125,0.188,0.187,0.437,0.187,0.686
		c0,0.25-0.062,0.499-0.249,0.686c-0.125,0.25-0.312,0.437-0.624,0.562c-0.25,0.125-0.561,0.187-0.935,0.187
		c-0.561,0-1.06-0.125-1.309-0.374C31.666,36.797,31.417,36.423,31.354,35.986z"/>
	<path d="M36.031,31.996v-0.873h0.749v0.873H36.031L36.031,31.996z M36.031,37.296v-4.49h0.749v4.49H36.031z"/>
	<path d="M37.59,35.986l0.811-0.125c0,0.249,0.124,0.499,0.312,0.686c0.187,0.124,0.499,0.249,0.811,0.249
		c0.375,0,0.624-0.125,0.811-0.249c0.125-0.125,0.25-0.312,0.25-0.499s-0.062-0.312-0.25-0.375
		c-0.125-0.062-0.374-0.187-0.749-0.249c-0.561-0.187-0.998-0.312-1.184-0.374c-0.188-0.125-0.375-0.25-0.499-0.437
		c-0.125-0.187-0.187-0.374-0.187-0.623c0-0.188,0.062-0.375,0.187-0.561c0.062-0.188,0.187-0.312,0.374-0.437
		c0.125-0.062,0.249-0.125,0.437-0.188c0.25-0.062,0.437-0.125,0.686-0.125c0.374,0,0.686,0.062,0.935,0.187
		c0.25,0.062,0.437,0.25,0.561,0.374c0.125,0.188,0.25,0.437,0.312,0.749l-0.748,0.062c-0.062-0.187-0.188-0.374-0.312-0.499
		c-0.187-0.188-0.374-0.25-0.686-0.25c-0.374,0-0.624,0.062-0.748,0.188c-0.188,0.125-0.25,0.25-0.25,0.437
		c0,0.062,0.062,0.187,0.125,0.25c0.063,0.063,0.125,0.125,0.25,0.187s0.312,0.125,0.686,0.187c0.561,0.187,0.936,0.312,1.122,0.374
		c0.25,0.062,0.375,0.25,0.499,0.374c0.125,0.188,0.187,0.437,0.187,0.686c0,0.25-0.062,0.499-0.187,0.686
		c-0.187,0.25-0.374,0.437-0.686,0.562c-0.25,0.125-0.561,0.187-0.936,0.187c-0.561,0-0.998-0.125-1.31-0.374
		S37.715,36.423,37.59,35.986z"/>
	<path d="M46.569,32.682h0.062c0.437,0,0.748,0.125,1.06,0.312c0.249,0.187,0.499,0.499,0.623,0.873
		c0.187,0.312,0.25,0.748,0.25,1.123c0,0.499-0.062,0.873-0.25,1.247c-0.187,0.374-0.436,0.686-0.748,0.873
		s-0.624,0.312-0.998,0.312l0,0v-0.624c0.312,0,0.624-0.187,0.873-0.437c0.187-0.312,0.312-0.748,0.312-1.372
		c0-0.562-0.062-0.998-0.312-1.247c-0.25-0.312-0.561-0.437-0.873-0.437l0,0L46.569,32.682L46.569,32.682z M44.636,39.042v-6.236
		h0.686v0.561c0.187-0.187,0.374-0.374,0.561-0.499c0.188-0.125,0.437-0.125,0.686-0.187v0.624c-0.312,0-0.624,0.125-0.873,0.437
		s-0.374,0.749-0.374,1.31c0,0.623,0.125,1.06,0.374,1.309s0.499,0.437,0.873,0.437l0,0v0.624c-0.25,0-0.437-0.062-0.624-0.187
		c-0.25-0.125-0.374-0.249-0.499-0.374v2.183h-0.81V39.042z"/>
	<path d="M52.43,37.296V36.61c-0.375,0.561-0.811,0.811-1.434,0.811c-0.25,0-0.499-0.062-0.749-0.187
		c-0.25-0.062-0.374-0.187-0.499-0.374c-0.125-0.125-0.188-0.312-0.25-0.561c0-0.125-0.062-0.375-0.062-0.686v-2.806h0.811V35.3
		c0,0.374,0,0.686,0,0.811c0.062,0.188,0.188,0.375,0.312,0.437c0.188,0.124,0.375,0.187,0.562,0.187
		c0.25,0,0.437-0.063,0.686-0.187c0.187-0.125,0.312-0.25,0.374-0.437c0.125-0.249,0.187-0.499,0.187-0.873v-2.432h0.748v4.49H52.43
		z"/>
	<path d="M56.171,32.682c0.062,0,0.062,0,0.125,0c0.25,0,0.499,0.062,0.749,0.187s0.436,0.25,0.623,0.499
		c0.188,0.188,0.312,0.437,0.375,0.686c0.125,0.312,0.125,0.624,0.125,0.936c0,0.749-0.187,1.372-0.561,1.808
		c-0.375,0.374-0.811,0.624-1.372,0.624h-0.062v-0.624c0.374,0,0.624-0.187,0.873-0.437c0.25-0.312,0.374-0.748,0.374-1.309
		c0-0.561-0.125-0.998-0.374-1.31c-0.25-0.25-0.499-0.437-0.811-0.437h-0.062v-0.623H56.171z M54.987,37.296h-0.686v-6.173h0.748
		v2.182c0.312-0.374,0.686-0.561,1.123-0.624v0.624c-0.312,0.062-0.562,0.187-0.811,0.437c-0.25,0.312-0.374,0.749-0.374,1.247
		c0,0.561,0.062,0.935,0.187,1.185c0.25,0.375,0.624,0.624,0.998,0.624l0,0v0.624c-0.499-0.062-0.873-0.25-1.185-0.686V37.296z"/>
	<path d="M59.102,31.996v-0.873h0.748v0.873H59.102L59.102,31.996z M59.102,37.296v-4.49h0.748v4.49H59.102z"/>
	<path d="M60.723,35.986l0.748-0.125c0.062,0.249,0.188,0.499,0.374,0.686c0.187,0.124,0.437,0.249,0.811,0.249
		c0.312,0,0.624-0.125,0.748-0.249c0.187-0.125,0.25-0.312,0.25-0.499s-0.062-0.312-0.187-0.375
		c-0.125-0.062-0.375-0.187-0.811-0.249c-0.562-0.187-0.936-0.312-1.123-0.374c-0.25-0.125-0.374-0.25-0.499-0.437
		s-0.187-0.374-0.187-0.623c0-0.188,0.062-0.375,0.125-0.561c0.125-0.188,0.249-0.312,0.374-0.437
		c0.125-0.062,0.312-0.125,0.499-0.188c0.187-0.062,0.437-0.125,0.686-0.125c0.312,0,0.624,0.062,0.873,0.187
		c0.312,0.062,0.499,0.25,0.624,0.374c0.125,0.188,0.187,0.437,0.25,0.749l-0.749,0.062c0-0.187-0.125-0.374-0.249-0.499
		c-0.188-0.188-0.437-0.25-0.749-0.25c-0.312,0-0.561,0.062-0.748,0.188c-0.125,0.125-0.188,0.25-0.188,0.437
		c0,0.062,0,0.187,0.063,0.25c0.062,0.062,0.187,0.125,0.312,0.187c0.062,0.062,0.312,0.125,0.686,0.187
		c0.499,0.187,0.935,0.312,1.122,0.374c0.188,0.062,0.374,0.25,0.499,0.374c0.125,0.188,0.187,0.437,0.187,0.686
		c0,0.25-0.062,0.499-0.25,0.686c-0.125,0.25-0.312,0.437-0.624,0.562c-0.25,0.125-0.624,0.187-0.935,0.187
		c-0.624,0-1.061-0.125-1.372-0.374C61.035,36.797,60.785,36.423,60.723,35.986z"/>
	<path d="M219.787,118.105l0.748-0.062c0.062,0.25,0.125,0.562,0.249,0.749c0.188,0.187,0.374,0.375,0.624,0.437
		c0.312,0.125,0.622,0.188,0.997,0.188c0.312,0,0.562,0,0.811-0.125c0.25-0.062,0.438-0.188,0.562-0.375s0.125-0.312,0.125-0.499
		c0-0.248,0-0.374-0.125-0.561c-0.125-0.125-0.312-0.25-0.562-0.312c-0.188-0.124-0.561-0.186-1.121-0.311
		c-0.562-0.188-0.937-0.312-1.186-0.438c-0.312-0.125-0.498-0.312-0.686-0.562c-0.127-0.187-0.188-0.498-0.188-0.748
		c0-0.312,0.062-0.623,0.25-0.872c0.187-0.312,0.437-0.498,0.81-0.624c0.312-0.125,0.688-0.249,1.123-0.249
		c0.438,0,0.873,0.124,1.186,0.249c0.373,0.126,0.623,0.375,0.811,0.624c0.188,0.312,0.312,0.622,0.312,0.997l-0.748,0.062
		c-0.062-0.375-0.188-0.688-0.437-0.873c-0.25-0.188-0.624-0.312-1.122-0.312s-0.812,0.062-1.062,0.249
		c-0.248,0.188-0.373,0.438-0.373,0.687c0,0.25,0.125,0.374,0.248,0.562c0.189,0.125,0.562,0.25,1.248,0.437
		c0.687,0.125,1.123,0.25,1.371,0.375c0.375,0.187,0.625,0.374,0.812,0.623c0.188,0.25,0.249,0.562,0.249,0.873
		c0,0.374-0.062,0.687-0.249,0.937c-0.188,0.312-0.499,0.561-0.812,0.686c-0.373,0.188-0.811,0.25-1.246,0.25
		c-0.561,0-0.997-0.062-1.372-0.25c-0.373-0.125-0.687-0.374-0.937-0.747C219.912,118.854,219.787,118.479,219.787,118.105z"/>
	<path d="M228.703,119.54c-0.312,0.188-0.562,0.374-0.872,0.499c-0.125,0.062-0.25,0.062-0.375,0.125v-0.624
		c0.188,0,0.375-0.062,0.499-0.124c0.25-0.188,0.437-0.312,0.562-0.562c0.062-0.188,0.125-0.438,0.125-0.748v-0.312
		c-0.312,0.124-0.687,0.248-1.186,0.312v-0.623c0.499-0.062,0.873-0.188,1.186-0.25c0-0.125,0-0.188,0-0.188
		c0-0.312-0.125-0.562-0.25-0.686c-0.187-0.188-0.498-0.25-0.873-0.25h-0.062v-0.623c0.062,0,0.125,0,0.188,0
		c0.373,0,0.686,0.062,0.935,0.125c0.25,0.123,0.438,0.187,0.5,0.373c0.124,0.125,0.249,0.25,0.249,0.498
		c0.062,0.127,0.062,0.375,0.062,0.688v0.998c0,0.747,0,1.184,0.062,1.371c0,0.188,0.062,0.374,0.187,0.562h-0.811
		C228.767,119.914,228.703,119.729,228.703,119.54z M227.456,120.164c-0.124,0-0.312,0-0.438,0c-0.498,0-0.873-0.125-1.121-0.375
		c-0.25-0.188-0.438-0.498-0.438-0.873c0-0.249,0.062-0.438,0.188-0.623c0.062-0.188,0.25-0.312,0.375-0.438
		c0.187-0.123,0.373-0.187,0.561-0.248c0.125-0.063,0.375-0.063,0.688-0.125h0.187v0.623h-0.062
		c-0.312,0.062-0.562,0.125-0.688,0.125c-0.125,0.062-0.249,0.187-0.312,0.248c-0.062,0.125-0.125,0.252-0.125,0.375
		c0,0.188,0.125,0.375,0.25,0.498c0.188,0.188,0.375,0.25,0.686,0.25c0.062,0,0.188-0.062,0.25-0.062V120.164L227.456,120.164z
		 M227.456,116.111c-0.312,0-0.561,0.062-0.748,0.187c-0.125,0.124-0.249,0.374-0.373,0.687l-0.688-0.125
		c0.062-0.312,0.125-0.562,0.312-0.748c0.124-0.188,0.375-0.375,0.687-0.498c0.25-0.062,0.498-0.125,0.811-0.125V116.111z"/>
	<path d="M233.505,118.417l0.748,0.125c-0.124,0.499-0.312,0.874-0.623,1.187c-0.375,0.312-0.749,0.437-1.248,0.437
		c-0.623,0-1.121-0.188-1.496-0.562c-0.373-0.437-0.562-0.998-0.562-1.746c0-0.498,0.063-0.937,0.25-1.311
		c0.125-0.312,0.375-0.623,0.747-0.811c0.312-0.188,0.687-0.25,1.061-0.25c0.499,0,0.873,0.125,1.186,0.375
		c0.312,0.25,0.5,0.561,0.623,1.06l-0.748,0.125c-0.062-0.312-0.188-0.562-0.373-0.687c-0.188-0.187-0.438-0.248-0.688-0.248
		c-0.374,0-0.686,0.123-0.936,0.436c-0.188,0.25-0.311,0.688-0.311,1.248c0,0.622,0.061,1.061,0.311,1.372
		c0.25,0.249,0.562,0.373,0.936,0.373c0.25,0,0.499-0.062,0.749-0.249C233.317,119.104,233.442,118.792,233.505,118.417z"/>
	<path d="M234.876,120.102v-4.488h0.688v0.623c0.187-0.312,0.312-0.5,0.498-0.623c0.125-0.062,0.312-0.125,0.5-0.125
		c0.248,0,0.498,0.062,0.748,0.248l-0.25,0.687c-0.188-0.124-0.375-0.187-0.562-0.187s-0.312,0.062-0.436,0.187
		c-0.127,0.125-0.25,0.25-0.312,0.437c-0.062,0.25-0.124,0.562-0.124,0.875v2.369h-0.749V120.102z"/>
	<path d="M240.676,119.54c-0.25,0.188-0.499,0.374-0.812,0.499c-0.125,0.062-0.248,0.062-0.375,0.125v-0.624
		c0.189,0,0.375-0.062,0.5-0.124c0.25-0.188,0.437-0.312,0.498-0.562c0.125-0.188,0.125-0.438,0.125-0.748v-0.312
		c-0.25,0.124-0.623,0.248-1.123,0.312v-0.623c0.5-0.062,0.873-0.188,1.123-0.25c0.062-0.125,0.062-0.188,0.062-0.188
		c0-0.312-0.126-0.562-0.25-0.686c-0.188-0.188-0.499-0.25-0.873-0.25h-0.062v-0.623c0.062,0,0.127,0,0.189,0
		c0.373,0,0.686,0.062,0.936,0.125c0.248,0.123,0.436,0.187,0.498,0.373c0.125,0.125,0.188,0.25,0.25,0.498
		c0.062,0.127,0.062,0.375,0.062,0.688v0.998c0,0.747,0,1.184,0.062,1.371c0,0.188,0.062,0.374,0.188,0.562h-0.812
		C240.8,119.914,240.737,119.729,240.676,119.54z M239.489,120.164c-0.125,0-0.311,0-0.436,0c-0.498,0-0.873-0.125-1.123-0.375
		c-0.312-0.188-0.437-0.498-0.437-0.873c0-0.249,0.062-0.438,0.188-0.623c0.062-0.188,0.187-0.312,0.373-0.438
		c0.188-0.125,0.373-0.187,0.562-0.248c0.125-0.063,0.373-0.063,0.686-0.125h0.188v0.623h-0.062
		c-0.311,0.062-0.561,0.125-0.685,0.125c-0.125,0.062-0.25,0.187-0.313,0.248c-0.062,0.125-0.123,0.252-0.123,0.375
		c0,0.188,0.123,0.375,0.25,0.498c0.188,0.188,0.373,0.25,0.686,0.25c0.062,0,0.188-0.062,0.249-0.062v0.624H239.489z
		 M239.489,116.111c-0.311,0-0.561,0.062-0.746,0.187c-0.125,0.124-0.25,0.374-0.375,0.687l-0.748-0.125
		c0.124-0.312,0.188-0.562,0.373-0.748c0.126-0.188,0.375-0.375,0.688-0.498c0.25-0.062,0.5-0.125,0.811-0.125v0.623H239.489z"/>
	<rect x="242.546" y="113.865" width="0.811" height="6.236"/>
	<path d="M248.845,115.486h0.061c0.375,0,0.748,0.062,0.998,0.312c0.312,0.188,0.562,0.438,0.686,0.812
		c0.125,0.373,0.25,0.748,0.25,1.185s-0.125,0.872-0.25,1.246c-0.188,0.375-0.438,0.624-0.747,0.812
		c-0.312,0.25-0.624,0.312-0.997,0.312l0,0v-0.624c0.311,0,0.622-0.124,0.811-0.438c0.248-0.248,0.373-0.687,0.373-1.309
		c0-0.562-0.125-0.998-0.312-1.311c-0.25-0.25-0.562-0.437-0.872-0.437l0,0V115.486z M246.911,121.785v-6.174h0.686v0.562
		c0.188-0.25,0.375-0.438,0.562-0.499c0.188-0.125,0.437-0.188,0.687-0.188v0.562c-0.312,0.062-0.623,0.188-0.873,0.498
		c-0.25,0.312-0.375,0.748-0.375,1.311c0,0.561,0.125,0.998,0.375,1.246c0.25,0.312,0.5,0.438,0.812,0.438h0.062v0.624
		c-0.25,0-0.498-0.062-0.687-0.125c-0.187-0.125-0.373-0.25-0.498-0.437v2.183L246.911,121.785L246.911,121.785z"/>
	<path d="M251.712,120.102v-4.488h0.688v0.623c0.187-0.312,0.373-0.5,0.498-0.623c0.125-0.062,0.312-0.125,0.498-0.125
		c0.25,0,0.5,0.062,0.748,0.248l-0.248,0.687c-0.188-0.124-0.375-0.187-0.562-0.187c-0.125,0-0.312,0.062-0.436,0.187
		c-0.127,0.125-0.252,0.25-0.252,0.437c-0.123,0.25-0.186,0.562-0.186,0.875v2.369h-0.748V120.102z"/>
	<path d="M256.451,115.486L256.451,115.486c0.622,0,1.122,0.188,1.495,0.625c0.375,0.373,0.625,0.935,0.625,1.684
		c0,0.561-0.125,0.997-0.312,1.309c-0.124,0.375-0.374,0.625-0.746,0.812c-0.312,0.188-0.689,0.25-1.062,0.25l0,0v-0.624l0,0
		c0.372,0,0.687-0.124,0.935-0.438c0.25-0.248,0.374-0.687,0.374-1.309c0-0.562-0.124-0.998-0.374-1.248
		c-0.248-0.312-0.562-0.436-0.935-0.436l0,0V115.486L256.451,115.486z M254.331,117.855c0-0.873,0.249-1.496,0.686-1.871
		c0.375-0.311,0.873-0.498,1.436-0.498v0.625c-0.374,0-0.688,0.123-0.936,0.436c-0.25,0.25-0.375,0.688-0.375,1.311
		c0,0.561,0.125,0.998,0.375,1.246c0.248,0.312,0.562,0.438,0.936,0.438v0.624c-0.624,0-1.123-0.188-1.561-0.624
		C254.519,119.167,254.331,118.604,254.331,117.855z"/>
	<path d="M259.442,120.102v-4.488h0.688v0.623c0.125-0.25,0.311-0.438,0.562-0.562c0.248-0.125,0.498-0.188,0.81-0.188
		s0.562,0.062,0.812,0.188c0.188,0.124,0.375,0.374,0.437,0.562c0.375-0.5,0.812-0.748,1.372-0.748c0.438,0,0.811,0.125,1.061,0.373
		c0.25,0.25,0.312,0.623,0.312,1.123v3.117h-0.747v-2.867c0-0.312,0-0.5-0.062-0.623c-0.062-0.188-0.125-0.25-0.25-0.375
		c-0.123-0.062-0.312-0.125-0.437-0.125c-0.373,0-0.623,0.125-0.812,0.373c-0.187,0.188-0.312,0.5-0.312,0.998v2.619h-0.747v-2.931
		c0-0.374-0.062-0.624-0.188-0.749c-0.125-0.188-0.375-0.311-0.623-0.311c-0.188,0-0.438,0.062-0.623,0.187
		c-0.125,0.124-0.312,0.312-0.375,0.499c-0.062,0.249-0.125,0.562-0.125,0.936v2.369H259.442z"/>
	<path d="M268.485,115.486L268.485,115.486c0.623,0,1.121,0.188,1.496,0.625c0.375,0.373,0.623,0.935,0.623,1.684
		c0,0.561-0.125,0.997-0.312,1.309c-0.126,0.375-0.374,0.625-0.749,0.812c-0.312,0.188-0.686,0.25-1.061,0.25l0,0v-0.624l0,0
		c0.375,0,0.687-0.124,0.937-0.438c0.249-0.248,0.374-0.687,0.374-1.309c0-0.562-0.125-0.998-0.374-1.248
		c-0.25-0.312-0.562-0.436-0.937-0.436l0,0v-0.625H268.485z M266.364,117.855c0-0.873,0.25-1.496,0.687-1.871
		c0.374-0.311,0.873-0.498,1.435-0.498v0.625c-0.375,0-0.687,0.123-0.937,0.436c-0.248,0.25-0.373,0.688-0.373,1.311
		c0,0.561,0.125,0.998,0.373,1.246c0.25,0.312,0.562,0.438,0.937,0.438v0.624c-0.623,0-1.121-0.188-1.56-0.624
		C266.552,119.167,266.364,118.604,266.364,117.855z"/>
	<path d="M271.479,120.102v-4.488h0.685v0.623c0.312-0.5,0.812-0.748,1.437-0.748c0.248,0,0.498,0.062,0.748,0.125
		c0.187,0.123,0.373,0.248,0.498,0.373c0.125,0.188,0.188,0.375,0.25,0.562c0,0.188,0,0.437,0,0.748v2.808h-0.748v-2.744
		c0-0.312,0-0.562-0.063-0.687c-0.062-0.188-0.187-0.312-0.312-0.374c-0.188-0.124-0.373-0.188-0.562-0.188
		c-0.312,0-0.562,0.125-0.812,0.312c-0.248,0.25-0.375,0.624-0.375,1.187v2.494h-0.746V120.102z"/>
	<path d="M277.963,119.416l0.125,0.623c-0.25,0.062-0.437,0.062-0.623,0.062c-0.25,0-0.5,0-0.625-0.125
		c-0.125-0.062-0.249-0.188-0.312-0.312c-0.062-0.125-0.125-0.438-0.125-0.936v-2.557h-0.562v-0.562h0.562v-1.123l0.748-0.498v1.621
		h0.812v0.562h-0.812v2.618c0,0.249,0.062,0.375,0.062,0.437c0.062,0.062,0.062,0.125,0.124,0.125
		c0.062,0.062,0.188,0.062,0.25,0.062C277.714,119.416,277.838,119.416,277.963,119.416z"/>
	<path d="M280.521,115.486L280.521,115.486c0.623,0,1.121,0.188,1.496,0.625c0.373,0.373,0.623,0.935,0.623,1.684
		c0,0.561-0.125,0.997-0.312,1.309c-0.124,0.375-0.374,0.625-0.748,0.812c-0.312,0.188-0.687,0.25-1.06,0.25l0,0v-0.624l0,0
		c0.373,0,0.686-0.124,0.935-0.438c0.25-0.248,0.374-0.687,0.374-1.309c0-0.562-0.124-0.998-0.374-1.248
		c-0.249-0.312-0.562-0.436-0.935-0.436l0,0V115.486z M278.399,117.855c0-0.873,0.248-1.496,0.686-1.871
		c0.375-0.311,0.873-0.498,1.436-0.498v0.625c-0.375,0-0.688,0.123-0.937,0.436c-0.25,0.25-0.374,0.688-0.374,1.311
		c0,0.561,0.124,0.998,0.374,1.246c0.249,0.312,0.562,0.438,0.937,0.438v0.624c-0.625,0-1.123-0.188-1.56-0.624
		C278.587,119.167,278.399,118.604,278.399,117.855z"/>
	<path d="M283.513,120.102v-4.488h0.687v0.623c0.187-0.312,0.312-0.5,0.499-0.623c0.125-0.062,0.312-0.125,0.438-0.125
		c0.248,0,0.561,0.062,0.811,0.248l-0.25,0.687c-0.188-0.124-0.375-0.187-0.561-0.187c-0.189,0-0.312,0.062-0.438,0.187
		c-0.188,0.125-0.25,0.25-0.312,0.437c-0.062,0.25-0.123,0.562-0.123,0.875v2.369h-0.75V120.102z"/>
	<path d="M286.381,121.785l-0.125-0.688c0.187,0.062,0.312,0.062,0.437,0.062c0.188,0,0.312-0.062,0.438-0.062
		c0.062-0.062,0.188-0.187,0.249-0.248c0.062-0.062,0.125-0.25,0.187-0.562c0.063-0.062,0.063-0.124,0.127-0.188l-1.746-4.488h0.811
		l0.936,2.557c0.125,0.373,0.25,0.686,0.373,1.061c0.062-0.375,0.188-0.688,0.312-1.061l0.936-2.557h0.748l-1.684,4.552
		c-0.188,0.498-0.312,0.812-0.438,0.997c-0.125,0.25-0.312,0.438-0.437,0.562c-0.188,0.125-0.437,0.188-0.687,0.188
		C286.692,121.91,286.567,121.848,286.381,121.785z"/>
	<path d="M219.787,134.566l0.748-0.062c0.062,0.25,0.125,0.562,0.249,0.748c0.188,0.187,0.374,0.375,0.624,0.438
		c0.312,0.123,0.622,0.186,0.997,0.186c0.312,0,0.562,0,0.811-0.124c0.25-0.062,0.438-0.187,0.562-0.375
		c0.125-0.187,0.125-0.312,0.125-0.498c0-0.249,0-0.374-0.125-0.562c-0.125-0.125-0.312-0.25-0.562-0.312
		c-0.188-0.125-0.561-0.188-1.121-0.312c-0.562-0.188-0.937-0.312-1.186-0.438c-0.312-0.125-0.498-0.312-0.686-0.562
		c-0.127-0.188-0.188-0.498-0.188-0.747c0-0.312,0.062-0.625,0.25-0.873c0.187-0.312,0.437-0.499,0.81-0.624
		c0.312-0.125,0.688-0.25,1.123-0.25c0.438,0,0.873,0.125,1.186,0.25c0.373,0.125,0.623,0.373,0.811,0.624
		c0.188,0.312,0.312,0.623,0.312,0.997l-0.748,0.062c-0.062-0.373-0.188-0.686-0.437-0.873c-0.25-0.187-0.624-0.312-1.122-0.312
		s-0.812,0.062-1.062,0.249c-0.248,0.188-0.373,0.437-0.373,0.686c0,0.25,0.125,0.374,0.248,0.562
		c0.189,0.125,0.562,0.249,1.248,0.436c0.687,0.126,1.123,0.25,1.371,0.375c0.375,0.188,0.625,0.374,0.812,0.623
		c0.188,0.25,0.249,0.562,0.249,0.874c0,0.374-0.062,0.685-0.249,0.937c-0.188,0.312-0.499,0.561-0.812,0.686
		c-0.373,0.188-0.811,0.249-1.246,0.249c-0.561,0-0.997-0.062-1.372-0.249c-0.373-0.125-0.687-0.374-0.937-0.748
		C219.912,135.314,219.787,134.941,219.787,134.566z"/>
	<path d="M227.396,135.876l0.123,0.624c-0.187,0.062-0.437,0.062-0.561,0.062c-0.312,0-0.499,0-0.688-0.125
		c-0.125-0.062-0.248-0.188-0.312-0.312c-0.062-0.125-0.062-0.437-0.062-0.937v-2.557h-0.562v-0.562h0.562v-1.121l0.748-0.499v1.621
		h0.748v0.562h-0.748v2.618c0,0.25,0,0.375,0.062,0.438c0,0.062,0.062,0.123,0.125,0.123c0.062,0.062,0.125,0.062,0.249,0.062
		C227.146,135.876,227.271,135.876,227.396,135.876z"/>
	<path d="M228.142,136.562v-4.489h0.688v0.622c0.188-0.312,0.312-0.497,0.499-0.622c0.125-0.062,0.312-0.124,0.498-0.124
		c0.25,0,0.499,0.062,0.749,0.249l-0.25,0.685c-0.188-0.124-0.374-0.188-0.561-0.188c-0.188,0-0.312,0.062-0.438,0.188
		c-0.125,0.126-0.249,0.25-0.312,0.438c-0.062,0.25-0.125,0.562-0.125,0.873v2.371h-0.748V136.562z"/>
	<path d="M233.94,136.002c-0.25,0.188-0.562,0.374-0.811,0.498c-0.125,0.062-0.25,0.062-0.375,0.125v-0.623
		c0.188,0,0.375-0.062,0.499-0.126c0.25-0.187,0.437-0.312,0.499-0.562c0.124-0.187,0.124-0.437,0.124-0.748v-0.312
		c-0.248,0.125-0.623,0.25-1.122,0.312v-0.623c0.499-0.062,0.874-0.188,1.122-0.25c0-0.125,0-0.187,0-0.187
		c0-0.312-0.062-0.562-0.187-0.687c-0.188-0.188-0.5-0.249-0.873-0.249h-0.062v-0.623c0.062,0,0.125,0,0.188,0
		c0.373,0,0.687,0.062,0.935,0.124c0.251,0.125,0.375,0.187,0.499,0.373c0.126,0.125,0.188,0.25,0.251,0.5
		c0,0.125,0.062,0.373,0.062,0.686v0.998c0,0.747,0,1.186,0,1.372c0.062,0.187,0.125,0.374,0.25,0.562h-0.811
		C234.065,136.376,234.004,136.188,233.94,136.002z M232.756,136.625c-0.124,0-0.312,0-0.437,0c-0.498,0-0.873-0.125-1.123-0.374
		c-0.311-0.187-0.436-0.499-0.436-0.874c0-0.248,0.061-0.436,0.188-0.622c0.062-0.188,0.188-0.312,0.373-0.437
		c0.188-0.125,0.312-0.188,0.562-0.25c0.124-0.062,0.374-0.062,0.687-0.125h0.187v0.623h-0.124
		c-0.312,0.062-0.499,0.125-0.624,0.125c-0.124,0.062-0.249,0.188-0.312,0.25c-0.062,0.125-0.125,0.248-0.125,0.373
		c0,0.188,0.125,0.375,0.25,0.5c0.125,0.188,0.373,0.25,0.687,0.25c0.062,0,0.124-0.062,0.248-0.062V136.625L232.756,136.625z
		 M232.756,132.572c-0.312,0-0.562,0.062-0.748,0.187c-0.124,0.124-0.249,0.374-0.374,0.687l-0.748-0.125
		c0.063-0.312,0.188-0.562,0.375-0.747c0.125-0.188,0.373-0.374,0.623-0.499c0.249-0.062,0.562-0.124,0.872-0.124V132.572z"/>
	<path d="M235.874,131.2v-0.873h0.748v0.873H235.874L235.874,131.2z M235.874,136.562v-4.489h0.748v4.489H235.874z"/>
	<path d="M239.489,137.748c0.312-0.062,0.562-0.125,0.75-0.25c0.187-0.125,0.311-0.312,0.373-0.562
		c0.062-0.188,0.062-0.498,0.062-0.998c-0.312,0.375-0.688,0.562-1.186,0.625v-0.688c0.375,0,0.623-0.124,0.873-0.373
		c0.25-0.25,0.375-0.688,0.375-1.248s-0.125-0.997-0.375-1.246c-0.25-0.312-0.498-0.438-0.873-0.438v-0.622
		c0.498,0,0.936,0.249,1.248,0.622v-0.498h0.686v3.865c0,0.687-0.062,1.186-0.188,1.496c-0.125,0.25-0.375,0.5-0.688,0.687
		c-0.311,0.125-0.623,0.25-1.061,0.25v-0.622H239.489z M237.62,136.938l0.748,0.062c0.062,0.249,0.125,0.437,0.25,0.499
		c0.188,0.188,0.436,0.25,0.811,0.25h0.061v0.623h-0.061c-0.562,0-0.998-0.125-1.31-0.375
		C237.808,137.748,237.62,137.373,237.62,136.938L237.62,136.938z M239.489,136.562h-0.061c-0.623,0-1.123-0.25-1.436-0.688
		c-0.311-0.438-0.498-0.997-0.498-1.621c0-0.438,0.062-0.811,0.249-1.184c0.125-0.375,0.375-0.625,0.624-0.812
		c0.312-0.249,0.686-0.311,1.061-0.311h0.061v0.623l0,0c-0.372,0-0.622,0.123-0.871,0.437c-0.25,0.249-0.374,0.687-0.374,1.185
		c0,0.623,0.124,1.061,0.374,1.311c0.249,0.249,0.499,0.373,0.871,0.373l0,0V136.562z"/>
	<path d="M242.608,136.562v-6.235h0.748v2.245c0.373-0.438,0.811-0.623,1.371-0.623c0.312,0,0.562,0.062,0.811,0.187
		c0.25,0.124,0.438,0.312,0.562,0.562c0.125,0.187,0.125,0.562,0.125,0.998v2.869h-0.748v-2.869c0-0.375-0.062-0.687-0.25-0.812
		c-0.125-0.188-0.375-0.311-0.687-0.311c-0.249,0-0.437,0.062-0.623,0.187c-0.188,0.124-0.375,0.312-0.438,0.499
		c-0.062,0.188-0.123,0.438-0.123,0.811v2.496h-0.748V136.562z"/>
	<path d="M249.093,135.876l0.062,0.624c-0.188,0.062-0.375,0.062-0.562,0.062c-0.248,0-0.498,0-0.623-0.125
		c-0.187-0.062-0.25-0.188-0.312-0.312c-0.063-0.125-0.125-0.437-0.125-0.937v-2.557h-0.562v-0.562h0.562v-1.121l0.747-0.499v1.621
		h0.812v0.562h-0.812v2.618c0,0.25,0.062,0.375,0.062,0.438c0,0.062,0.062,0.123,0.125,0.123c0.062,0.062,0.124,0.062,0.249,0.062
		S248.905,135.876,249.093,135.876z"/>
	<path d="M251.899,135.189l0.746-0.123c0.062,0.311,0.188,0.562,0.375,0.686c0.188,0.188,0.438,0.25,0.812,0.25
		s0.624-0.062,0.748-0.188c0.188-0.188,0.312-0.312,0.312-0.5c0-0.187-0.123-0.312-0.248-0.437
		c-0.125-0.062-0.375-0.124-0.812-0.249c-0.499-0.125-0.935-0.25-1.123-0.375c-0.248-0.062-0.374-0.249-0.499-0.438
		c-0.124-0.187-0.186-0.373-0.186-0.561c0-0.249,0.062-0.438,0.186-0.562c0.062-0.187,0.188-0.312,0.312-0.437
		c0.123-0.062,0.312-0.187,0.498-0.249c0.25-0.062,0.438-0.062,0.687-0.062c0.312,0,0.624,0.062,0.937,0.124
		c0.248,0.125,0.437,0.248,0.562,0.437c0.124,0.187,0.25,0.373,0.25,0.687l-0.749,0.125c0-0.25-0.125-0.438-0.249-0.562
		c-0.188-0.124-0.438-0.188-0.687-0.188c-0.375,0-0.623,0.062-0.748,0.188c-0.188,0.124-0.25,0.25-0.25,0.374
		c0,0.125,0.062,0.188,0.125,0.25c0.062,0.125,0.125,0.187,0.25,0.249c0.062,0,0.312,0.062,0.686,0.188
		c0.562,0.125,0.936,0.25,1.122,0.375c0.25,0.062,0.374,0.187,0.5,0.373c0.124,0.188,0.187,0.375,0.187,0.623
		c0,0.25-0.062,0.5-0.187,0.748c-0.188,0.188-0.375,0.375-0.687,0.5c-0.25,0.125-0.562,0.188-0.937,0.188
		c-0.562,0-0.998-0.125-1.31-0.374C252.21,136.002,252.024,135.689,251.899,135.189z"/>
	<path d="M259.507,136.002c-0.312,0.188-0.562,0.374-0.812,0.498c-0.187,0.062-0.312,0.062-0.437,0.125v-0.623
		c0.188,0,0.374-0.062,0.562-0.126c0.188-0.187,0.375-0.312,0.498-0.562c0.063-0.187,0.125-0.437,0.125-0.748v-0.312
		c-0.312,0.125-0.686,0.25-1.185,0.312v-0.623c0.499-0.062,0.873-0.188,1.185-0.25c0-0.125,0-0.187,0-0.187
		c0-0.312-0.125-0.562-0.248-0.687c-0.188-0.188-0.5-0.249-0.873-0.249h-0.062v-0.623c0.062,0,0.124,0,0.188,0
		c0.375,0,0.687,0.062,0.937,0.124c0.249,0.125,0.437,0.187,0.562,0.373c0.062,0.125,0.188,0.25,0.188,0.5
		c0.062,0.125,0.062,0.373,0.062,0.686v0.998c0,0.747,0,1.186,0.062,1.372c0,0.187,0.062,0.374,0.187,0.562h-0.811
		C259.569,136.376,259.507,136.188,259.507,136.002z M258.259,136.625c-0.123,0-0.312,0-0.438,0c-0.498,0-0.871-0.125-1.121-0.374
		c-0.249-0.187-0.438-0.499-0.438-0.874c0-0.248,0.062-0.436,0.188-0.622c0.062-0.188,0.249-0.312,0.372-0.437
		c0.188-0.125,0.375-0.188,0.562-0.25c0.127-0.062,0.374-0.062,0.688-0.125h0.187v0.623h-0.062
		c-0.312,0.062-0.561,0.125-0.686,0.125c-0.125,0.062-0.25,0.188-0.312,0.25c-0.062,0.125-0.125,0.248-0.125,0.373
		c0,0.188,0.125,0.375,0.249,0.5c0.188,0.188,0.373,0.25,0.688,0.25c0.062,0,0.186-0.062,0.248-0.062v0.623H258.259z
		 M258.259,132.572c-0.312,0-0.562,0.062-0.686,0.187c-0.188,0.124-0.312,0.374-0.438,0.687l-0.686-0.125
		c0.062-0.312,0.123-0.562,0.312-0.747c0.123-0.188,0.373-0.374,0.686-0.499c0.248-0.062,0.498-0.124,0.811-0.124V132.572z"/>
	<path d="M264.308,134.879l0.748,0.125c-0.062,0.499-0.312,0.872-0.623,1.186c-0.375,0.312-0.748,0.437-1.248,0.437
		c-0.623,0-1.121-0.188-1.496-0.562c-0.373-0.437-0.562-0.998-0.562-1.746c0-0.5,0.063-0.936,0.249-1.31
		c0.188-0.312,0.375-0.624,0.75-0.811c0.311-0.188,0.686-0.249,1.059-0.249c0.5,0,0.873,0.124,1.186,0.373
		c0.312,0.25,0.499,0.561,0.624,1.061l-0.748,0.125c-0.062-0.312-0.188-0.562-0.374-0.688c-0.188-0.187-0.438-0.248-0.688-0.248
		c-0.373,0-0.686,0.123-0.935,0.437c-0.188,0.249-0.312,0.687-0.312,1.246c0,0.624,0.062,1.062,0.312,1.373
		c0.249,0.248,0.562,0.374,0.935,0.374c0.312,0,0.562-0.062,0.748-0.25C264.12,135.564,264.245,135.253,264.308,134.879z"/>
	<path d="M265.681,136.562v-4.489h0.686v0.622c0.188-0.312,0.373-0.497,0.498-0.622c0.125-0.062,0.312-0.124,0.5-0.124
		c0.248,0,0.498,0.062,0.746,0.249l-0.248,0.685c-0.188-0.124-0.375-0.188-0.562-0.188c-0.188,0-0.312,0.062-0.438,0.188
		c-0.123,0.126-0.248,0.25-0.312,0.438c-0.062,0.25-0.125,0.562-0.125,0.873v2.371h-0.745V136.562z"/>
	<path d="M271.54,136.562v-0.688c-0.374,0.5-0.873,0.749-1.434,0.749c-0.25,0-0.5-0.062-0.748-0.125
		c-0.25-0.124-0.375-0.249-0.5-0.373c-0.123-0.188-0.188-0.375-0.25-0.562c0-0.188-0.062-0.438-0.062-0.75v-2.742h0.748v2.432
		c0,0.438,0.062,0.686,0.062,0.811c0.062,0.25,0.188,0.375,0.312,0.5c0.188,0.123,0.374,0.188,0.562,0.188
		c0.248,0,0.436-0.062,0.686-0.188c0.188-0.125,0.312-0.312,0.374-0.5c0.125-0.187,0.125-0.498,0.125-0.873v-2.368h0.81v4.489
		H271.54z"/>
	<path d="M273.411,136.562v-4.489h0.686v0.622c0.125-0.248,0.312-0.437,0.562-0.561c0.188-0.125,0.5-0.187,0.812-0.187
		c0.312,0,0.562,0.062,0.812,0.187c0.188,0.124,0.312,0.374,0.437,0.561c0.375-0.497,0.811-0.746,1.372-0.746
		c0.437,0,0.81,0.124,1.06,0.373c0.188,0.25,0.312,0.623,0.312,1.123v3.117h-0.749v-2.869c0-0.312,0-0.498-0.062-0.623
		c-0.062-0.188-0.125-0.25-0.25-0.375c-0.125-0.062-0.312-0.123-0.498-0.123c-0.312,0-0.562,0.123-0.748,0.373
		c-0.249,0.188-0.312,0.5-0.312,0.998v2.619h-0.748v-2.932c0-0.374-0.062-0.623-0.187-0.749c-0.125-0.187-0.374-0.312-0.624-0.312
		c-0.249,0-0.438,0.062-0.624,0.188c-0.187,0.124-0.312,0.312-0.374,0.499c-0.062,0.25-0.124,0.562-0.124,0.937v2.369H273.411z"/>
	<polygon points="220.036,149.407 220.036,143.234 220.909,143.234 224.151,148.098 224.151,143.234 224.962,143.234 
		224.962,149.407 224.089,149.407 220.849,144.543 220.849,149.407 	"/>
	<path d="M228.019,144.855L228.019,144.855c0.623,0,1.121,0.187,1.56,0.623c0.373,0.375,0.562,0.936,0.562,1.621
		c0,0.623-0.062,1.061-0.25,1.371c-0.188,0.375-0.437,0.624-0.748,0.812c-0.312,0.187-0.687,0.249-1.123,0.249l0,0v-0.623l0,0
		c0.375,0,0.748-0.125,0.998-0.438c0.248-0.248,0.375-0.685,0.375-1.31c0-0.562-0.127-0.997-0.375-1.247
		c-0.312-0.312-0.623-0.438-0.998-0.438l0,0V144.855L228.019,144.855z M225.96,147.162c0-0.811,0.188-1.434,0.686-1.809
		c0.375-0.312,0.812-0.498,1.373-0.498v0.623c-0.375,0-0.687,0.125-0.937,0.437c-0.249,0.25-0.374,0.687-0.374,1.247
		c0,0.625,0.125,1.061,0.374,1.311c0.25,0.312,0.562,0.438,0.937,0.438v0.623c-0.623,0-1.123-0.188-1.498-0.623
		C226.146,148.535,225.96,147.975,225.96,147.162z"/>
	<path d="M231.011,149.407v-4.489h0.686v0.686c0.189-0.311,0.375-0.498,0.5-0.623c0.123-0.062,0.312-0.123,0.498-0.123
		c0.25,0,0.498,0.062,0.748,0.248l-0.25,0.687c-0.187-0.125-0.373-0.188-0.561-0.188c-0.124,0-0.312,0.062-0.438,0.188
		c-0.123,0.062-0.248,0.249-0.248,0.437c-0.125,0.25-0.125,0.562-0.125,0.873v2.308h-0.811V149.407z"/>
	<path d="M233.94,149.407v-4.489h0.688v0.686c0.124-0.248,0.311-0.437,0.561-0.562c0.188-0.124,0.498-0.187,0.748-0.187
		c0.375,0,0.625,0.062,0.873,0.187c0.188,0.125,0.312,0.312,0.438,0.562c0.374-0.498,0.811-0.746,1.372-0.746
		c0.437,0,0.81,0.123,1.06,0.373c0.188,0.248,0.312,0.623,0.312,1.123v3.055h-0.748v-2.807c0-0.312,0-0.498-0.062-0.623
		c-0.062-0.188-0.125-0.25-0.25-0.375c-0.125-0.062-0.312-0.125-0.5-0.125c-0.311,0-0.561,0.125-0.746,0.312
		c-0.25,0.249-0.312,0.562-0.312,1.061v2.557h-0.811v-2.868c0-0.374-0.063-0.624-0.188-0.812c-0.062-0.125-0.312-0.25-0.562-0.25
		c-0.248,0-0.437,0.063-0.623,0.188c-0.188,0.125-0.312,0.312-0.375,0.499c-0.062,0.249-0.123,0.562-0.123,0.936v2.308h-0.75
		V149.407z"/>
	<path d="M244.042,148.909c-0.248,0.187-0.499,0.374-0.811,0.498c-0.125,0.062-0.25,0.062-0.375,0.125v-0.623
		c0.188,0,0.375-0.062,0.5-0.188c0.248-0.123,0.438-0.248,0.498-0.498c0.125-0.188,0.125-0.436,0.125-0.748v-0.312
		c-0.25,0.126-0.623,0.25-1.123,0.312v-0.623c0.5-0.125,0.873-0.188,1.123-0.25c0-0.125,0-0.188,0-0.188
		c0-0.312-0.062-0.561-0.187-0.686c-0.188-0.188-0.499-0.25-0.874-0.25h-0.062v-0.623c0.062,0,0.125,0,0.188,0
		c0.375,0,0.688,0.062,0.936,0.125c0.252,0.062,0.375,0.187,0.5,0.312c0.125,0.187,0.188,0.312,0.25,0.562
		c0.062,0.125,0.062,0.373,0.062,0.686v0.998c0,0.748,0,1.184,0.062,1.372c0,0.187,0.062,0.374,0.188,0.498h-0.81
		C244.167,149.283,244.104,149.096,244.042,148.909z M242.856,149.532c-0.123,0-0.312,0-0.436,0c-0.499,0-0.874-0.125-1.123-0.375
		c-0.312-0.248-0.438-0.498-0.438-0.872c0-0.25,0.062-0.438,0.188-0.624c0.062-0.187,0.188-0.312,0.375-0.437
		s0.312-0.188,0.561-0.25c0.125-0.062,0.375-0.062,0.688-0.123h0.188v0.623h-0.125c-0.312,0.062-0.498,0.062-0.623,0.123
		c-0.125,0.062-0.25,0.188-0.312,0.25c-0.062,0.125-0.125,0.25-0.125,0.375c0,0.188,0.125,0.373,0.25,0.498
		c0.124,0.125,0.374,0.25,0.686,0.25c0.062,0,0.188-0.062,0.25-0.062v0.623H242.856z M242.856,145.479
		c-0.312,0-0.561,0.063-0.748,0.188c-0.125,0.125-0.248,0.374-0.373,0.687l-0.75-0.125c0.062-0.312,0.188-0.562,0.375-0.748
		c0.125-0.248,0.375-0.375,0.687-0.498c0.188-0.062,0.499-0.125,0.812-0.125v0.621H242.856z"/>
	<rect x="245.913" y="143.234" width="0.811" height="6.173"/>
	<path d="M248.097,149.407v-0.812h0.873v0.812c0,0.374-0.062,0.624-0.189,0.811c-0.125,0.188-0.311,0.312-0.561,0.438l-0.188-0.312
		c0.123-0.062,0.248-0.188,0.373-0.312c0.062-0.124,0.062-0.312,0.125-0.624L248.097,149.407L248.097,149.407z"/>
	<path d="M253.521,149.407l-1.371-4.489h0.812l0.687,2.619l0.248,0.998c0-0.062,0.125-0.375,0.25-0.938l0.686-2.681h0.812
		l0.686,2.619l0.188,0.873l0.312-0.873l0.749-2.619h0.748l-1.436,4.489h-0.748l-0.748-2.682l-0.187-0.748l-0.873,3.43
		L253.521,149.407L253.521,149.407z"/>
	<path d="M262,147.975l0.812,0.123c-0.125,0.438-0.375,0.812-0.686,1.061c-0.375,0.25-0.75,0.375-1.311,0.375h-0.062v-0.623h0.062
		c0.312,0,0.561-0.062,0.748-0.188C261.751,148.535,261.876,148.285,262,147.975L262,147.975z M260.754,144.855h0.062
		c0.562,0,1.062,0.187,1.436,0.623c0.374,0.375,0.561,0.936,0.561,1.684c0,0.062,0,0.126,0,0.25h-2.057v-0.623H262
		c0-0.375-0.124-0.688-0.249-0.874c-0.25-0.312-0.561-0.437-0.936-0.437h-0.062L260.754,144.855L260.754,144.855z M260.754,149.532
		c-0.624,0-1.123-0.188-1.497-0.623c-0.374-0.374-0.562-0.937-0.562-1.685s0.188-1.311,0.562-1.746
		c0.374-0.437,0.873-0.623,1.497-0.623v0.623c-0.313,0-0.624,0.125-0.812,0.312c-0.25,0.249-0.373,0.562-0.437,0.998h1.247v0.623
		h-1.247c0,0.499,0.124,0.873,0.373,1.123c0.25,0.249,0.562,0.374,0.874,0.374L260.754,149.532L260.754,149.532z"/>
	<rect x="263.746" y="143.234" width="0.748" height="6.173"/>
	<rect x="265.681" y="143.234" width="0.746" height="6.173"/>
	<rect x="267.301" y="146.789" width="2.369" height="0.811"/>
	<path d="M273.411,147.787l0.748,0.124c-0.062,0.499-0.249,0.873-0.624,1.185c-0.312,0.312-0.747,0.438-1.247,0.438
		c-0.623,0-1.122-0.188-1.496-0.623c-0.374-0.374-0.561-0.936-0.561-1.686c0-0.498,0.125-0.935,0.248-1.31
		c0.188-0.373,0.438-0.622,0.748-0.812c0.312-0.187,0.688-0.248,1.061-0.248c0.5,0,0.936,0.125,1.186,0.375
		c0.312,0.248,0.562,0.561,0.623,1.06l-0.748,0.062c-0.062-0.25-0.188-0.498-0.373-0.623c-0.188-0.188-0.375-0.25-0.623-0.25
		c-0.375,0-0.688,0.125-0.937,0.375c-0.25,0.312-0.374,0.748-0.374,1.309c0,0.625,0.124,1.061,0.374,1.373
		c0.187,0.249,0.499,0.374,0.872,0.374c0.312,0,0.562-0.062,0.749-0.25C273.224,148.473,273.349,148.16,273.411,147.787z"/>
	<path d="M277.774,149.407v-0.623c-0.373,0.499-0.811,0.748-1.434,0.748c-0.25,0-0.499-0.062-0.749-0.125
		c-0.249-0.124-0.374-0.25-0.497-0.374c-0.125-0.188-0.188-0.374-0.25-0.623c0-0.125-0.062-0.375-0.062-0.688v-2.806h0.811v2.494
		c0,0.437,0,0.687,0,0.812c0.062,0.248,0.188,0.373,0.312,0.498c0.188,0.125,0.373,0.188,0.562,0.188
		c0.247,0,0.497-0.062,0.686-0.188c0.187-0.125,0.312-0.312,0.437-0.498c0.062-0.188,0.125-0.5,0.125-0.873v-2.433h0.748v4.489
		L277.774,149.407L277.774,149.407z"/>
	<path d="M279.646,149.407v-4.489h0.687v0.686c0.188-0.311,0.312-0.498,0.437-0.623c0.188-0.062,0.312-0.123,0.5-0.123
		c0.25,0,0.561,0.062,0.811,0.248l-0.25,0.687c-0.188-0.125-0.374-0.188-0.561-0.188c-0.188,0-0.312,0.062-0.438,0.188
		c-0.188,0.062-0.249,0.249-0.312,0.437c-0.062,0.25-0.125,0.562-0.125,0.873v2.308h-0.748V149.407z"/>
	<path d="M283.763,149.407l-1.685-4.489h0.812l0.935,2.743c0.125,0.25,0.188,0.562,0.313,0.874c0.062-0.25,0.123-0.5,0.247-0.874
		l0.998-2.743h0.812l-1.686,4.489H283.763z"/>
	<path d="M289.935,147.975l0.748,0.123c-0.123,0.438-0.312,0.812-0.686,1.061c-0.312,0.25-0.748,0.375-1.247,0.375h-0.062v-0.623
		h0.062c0.249,0,0.499-0.062,0.687-0.188C289.687,148.535,289.81,148.285,289.935,147.975L289.935,147.975z M288.688,144.855
		L288.688,144.855c0.623,0,1.121,0.187,1.496,0.623c0.373,0.375,0.562,0.936,0.562,1.684c0,0.062,0,0.126,0,0.25h-2.058v-0.623
		h1.246c-0.062-0.375-0.125-0.688-0.312-0.874c-0.188-0.312-0.561-0.437-0.934-0.437l0,0V144.855z M288.688,149.532
		c-0.625,0-1.125-0.188-1.498-0.623c-0.373-0.374-0.562-0.937-0.562-1.685s0.188-1.311,0.562-1.746
		c0.373-0.438,0.873-0.623,1.498-0.623v0.623c-0.375,0-0.625,0.125-0.875,0.312c-0.25,0.249-0.373,0.562-0.373,0.998h1.248v0.623
		h-1.312c0.062,0.499,0.187,0.873,0.437,1.123c0.25,0.249,0.5,0.374,0.875,0.374V149.532z"/>
	<path d="M294.61,149.407v-0.562c-0.312,0.438-0.687,0.687-1.246,0.687v-0.623h0.062c0.312,0,0.562-0.125,0.812-0.374
		c0.248-0.312,0.373-0.688,0.373-1.247c0-0.624-0.125-1.123-0.373-1.373c-0.25-0.312-0.5-0.437-0.873-0.437v-0.623
		c0.248,0,0.438,0.062,0.623,0.187c0.25,0.062,0.438,0.251,0.562,0.437v-2.244h0.749v6.174L294.61,149.407L294.61,149.407z
		 M293.364,149.532h-0.062c-0.312,0-0.688-0.062-0.936-0.312c-0.312-0.187-0.562-0.436-0.75-0.81
		c-0.124-0.375-0.248-0.749-0.248-1.186c0-0.498,0.124-0.873,0.248-1.246c0.126-0.375,0.375-0.625,0.688-0.812
		c0.312-0.249,0.623-0.311,0.998-0.311h0.062v0.621l0,0c-0.312,0-0.623,0.125-0.873,0.438c-0.188,0.25-0.312,0.688-0.312,1.311
		c0,0.562,0.125,0.998,0.375,1.246c0.25,0.312,0.5,0.438,0.812,0.438L293.364,149.532L293.364,149.532z"/>
	<path d="M298.603,148.098l0.748-0.123c0.062,0.312,0.125,0.562,0.375,0.686c0.187,0.188,0.437,0.25,0.748,0.25
		c0.373,0,0.623-0.062,0.811-0.188c0.188-0.187,0.25-0.312,0.25-0.498c0-0.188-0.062-0.312-0.25-0.437
		c-0.062-0.063-0.312-0.126-0.748-0.25c-0.562-0.125-0.936-0.249-1.186-0.375c-0.188-0.124-0.375-0.249-0.5-0.437
		c-0.062-0.188-0.125-0.373-0.125-0.562c0-0.25,0.063-0.437,0.125-0.562c0.063-0.188,0.188-0.312,0.375-0.438
		c0.125-0.125,0.25-0.188,0.5-0.249c0.187-0.062,0.437-0.062,0.621-0.062c0.375,0,0.688,0.062,0.938,0.123
		c0.25,0.125,0.498,0.25,0.623,0.438s0.188,0.374,0.248,0.686l-0.747,0.125c-0.062-0.248-0.124-0.437-0.312-0.562
		c-0.125-0.124-0.375-0.188-0.687-0.188s-0.562,0.063-0.748,0.188c-0.125,0.125-0.188,0.249-0.188,0.374s0,0.188,0.062,0.25
		c0.062,0.124,0.188,0.188,0.312,0.249c0.062,0,0.312,0.062,0.687,0.188c0.499,0.125,0.872,0.248,1.122,0.312
		c0.188,0.124,0.374,0.25,0.498,0.437c0.125,0.188,0.188,0.375,0.188,0.623c0,0.25-0.123,0.5-0.248,0.75
		c-0.125,0.187-0.375,0.372-0.623,0.498c-0.312,0.124-0.625,0.188-0.937,0.188c-0.624,0-1.062-0.125-1.372-0.375
		C298.851,148.909,298.664,148.598,298.603,148.098z"/>
	<path d="M306.147,148.909c-0.252,0.187-0.562,0.374-0.812,0.498c-0.125,0.062-0.249,0.062-0.374,0.125v-0.623
		c0.187,0,0.312-0.062,0.498-0.188c0.25-0.123,0.374-0.248,0.499-0.498c0.062-0.188,0.125-0.436,0.125-0.748v-0.312
		c-0.25,0.126-0.624,0.25-1.122,0.312v-0.623c0.498-0.125,0.872-0.188,1.122-0.25c0-0.125,0-0.188,0-0.188
		c0-0.312-0.062-0.561-0.188-0.686c-0.188-0.188-0.5-0.25-0.873-0.25h-0.062v-0.623c0.062,0,0.125,0,0.187,0
		c0.375,0,0.687,0.062,0.937,0.125c0.188,0.062,0.374,0.187,0.5,0.312c0.124,0.187,0.187,0.312,0.248,0.562c0,0.125,0,0.373,0,0.686
		v0.998c0,0.748,0.062,1.184,0.062,1.372c0.062,0.187,0.125,0.374,0.188,0.498h-0.748
		C306.209,149.283,306.147,149.096,306.147,148.909z M304.962,149.532c-0.188,0-0.312,0-0.438,0c-0.498,0-0.873-0.125-1.186-0.375
		c-0.248-0.248-0.373-0.498-0.373-0.872c0-0.25,0.062-0.438,0.125-0.624c0.124-0.187,0.248-0.312,0.438-0.437
		c0.123-0.125,0.311-0.188,0.498-0.25c0.187-0.062,0.373-0.062,0.686-0.123h0.25v0.623h-0.125c-0.312,0.062-0.499,0.062-0.686,0.123
		c-0.125,0.062-0.188,0.188-0.25,0.25c-0.062,0.125-0.125,0.25-0.125,0.375c0,0.188,0.062,0.373,0.25,0.498
		c0.125,0.125,0.373,0.25,0.623,0.25c0.125,0,0.188-0.062,0.312-0.062V149.532L304.962,149.532z M304.962,145.479
		c-0.374,0-0.562,0.063-0.748,0.188c-0.188,0.125-0.312,0.374-0.375,0.687l-0.747-0.125c0.062-0.312,0.187-0.562,0.312-0.748
		c0.188-0.248,0.375-0.375,0.687-0.498c0.249-0.062,0.562-0.125,0.873-0.125L304.962,145.479L304.962,145.479z"/>
	<path d="M310.946,147.787l0.75,0.124c-0.062,0.499-0.25,0.873-0.625,1.185c-0.312,0.312-0.747,0.438-1.246,0.438
		c-0.561,0-1.061-0.188-1.434-0.623c-0.375-0.374-0.562-0.936-0.562-1.686c0-0.498,0.062-0.935,0.188-1.31
		c0.188-0.373,0.437-0.622,0.748-0.812c0.312-0.187,0.687-0.248,1.061-0.248c0.498,0,0.936,0.125,1.246,0.375
		c0.312,0.248,0.5,0.561,0.562,1.06l-0.748,0.062c-0.062-0.25-0.188-0.498-0.375-0.623c-0.187-0.188-0.373-0.25-0.623-0.25
		c-0.375,0-0.686,0.125-0.936,0.375c-0.249,0.312-0.374,0.748-0.374,1.309c0,0.625,0.125,1.061,0.374,1.373
		c0.188,0.249,0.499,0.374,0.873,0.374c0.312,0,0.562-0.062,0.748-0.25C310.761,148.473,310.886,148.16,310.946,147.787z"/>
	<path d="M312.382,149.407v-4.489h0.686v0.686c0.125-0.311,0.312-0.498,0.438-0.623c0.188-0.062,0.312-0.123,0.499-0.123
		c0.25,0,0.562,0.062,0.812,0.248l-0.25,0.687c-0.187-0.125-0.373-0.188-0.562-0.188c-0.187,0-0.312,0.062-0.499,0.188
		c-0.124,0.062-0.188,0.249-0.249,0.437c-0.062,0.25-0.125,0.562-0.125,0.873v2.308h-0.749V149.407z"/>
	<path d="M318.181,149.407v-0.623c-0.312,0.499-0.811,0.748-1.434,0.748c-0.25,0-0.499-0.062-0.748-0.125
		c-0.188-0.124-0.375-0.25-0.499-0.374c-0.125-0.188-0.187-0.374-0.187-0.623c-0.062-0.125-0.062-0.375-0.062-0.688v-2.806h0.748
		v2.494c0,0.437,0,0.687,0.062,0.812c0,0.248,0.125,0.373,0.312,0.498c0.125,0.125,0.312,0.188,0.562,0.188
		c0.188,0,0.438-0.062,0.625-0.188c0.187-0.125,0.373-0.312,0.437-0.498c0.062-0.188,0.124-0.5,0.124-0.873v-2.433h0.749v4.489
		L318.181,149.407L318.181,149.407z"/>
	<path d="M320.052,149.407v-4.489h0.686v0.686c0.125-0.248,0.312-0.437,0.562-0.562c0.25-0.124,0.499-0.187,0.812-0.187
		c0.312,0,0.623,0.062,0.812,0.187c0.249,0.125,0.374,0.312,0.437,0.562c0.373-0.498,0.811-0.746,1.435-0.746
		c0.437,0,0.748,0.123,0.998,0.373c0.25,0.248,0.374,0.623,0.374,1.123v3.055h-0.749v-2.807c0-0.312-0.062-0.498-0.062-0.623
		c-0.062-0.188-0.188-0.25-0.312-0.375c-0.125-0.062-0.25-0.125-0.438-0.125c-0.312,0-0.562,0.125-0.811,0.312
		c-0.188,0.249-0.312,0.562-0.312,1.061v2.557h-0.748v-2.868c0-0.374-0.062-0.624-0.187-0.812c-0.125-0.125-0.312-0.25-0.623-0.25
		c-0.188,0-0.375,0.063-0.562,0.188c-0.188,0.125-0.312,0.312-0.438,0.499c-0.062,0.249-0.125,0.562-0.125,0.936v2.308h-0.748
		V149.407z"/>
	<line fill="none" stroke="#000000" stroke-width="0.5" x1="93.334" y1="35.737" x2="69.951" y2="35.737"/>
	<line fill="none" stroke="#000000" stroke-width="0.5" x1="128.439" y1="25.511" x2="70.139" y2="19.026"/>
	<line fill="none" stroke="#000000" stroke-width="0.5" x1="153.068" y1="131.139" x2="213.179" y2="131.139"/>
	<line fill="none" stroke="#000000" stroke-width="0.5" x1="172.397" y1="143.732" x2="212.804" y2="143.732"/>
	<line fill="none" stroke="#000000" stroke-width="0.5" x1="212.056" y1="117.42" x2="168.782" y2="104.326"/>
</g>
</svg>
