<?xml version="1.0" encoding="utf-8"?>
<!-- Generator: Adobe Illustrator 15.1.0, SVG Export Plug-In . SVG Version: 6.00 Build 0)  -->
<!DOCTYPE svg PUBLIC "-//W3C//DTD SVG 1.1//EN" "http://www.w3.org/Graphics/SVG/1.1/DTD/svg11.dtd">
<svg version="1.1" id="Layer_7" xmlns="http://www.w3.org/2000/svg" xmlns:xlink="http://www.w3.org/1999/xlink" x="0px" y="0px"
	 width="325.984px" height="258.85px" viewBox="0 0 325.984 258.85" enable-background="new 0 0 325.984 258.85"
	 xml:space="preserve">
<metadata><?xpacket begin="﻿" id="W5M0MpCehiHzreSzNTczkc9d"?>
<x:xmpmeta xmlns:x="adobe:ns:meta/" x:xmptk="Adobe XMP Core 5.0-c060 61.134777, 2010/02/12-17:32:00        ">
   <rdf:RDF xmlns:rdf="http://www.w3.org/1999/02/22-rdf-syntax-ns#">
      <rdf:Description rdf:about=""
            xmlns:dc="http://purl.org/dc/elements/1.1/">
         <dc:format>image/svg+xml</dc:format>
         <dc:title>
            <rdf:Alt>
               <rdf:li xml:lang="x-default">9A-1</rdf:li>
            </rdf:Alt>
         </dc:title>
      </rdf:Description>
      <rdf:Description rdf:about=""
            xmlns:xmp="http://ns.adobe.com/xap/1.0/"
            xmlns:xmpGImg="http://ns.adobe.com/xap/1.0/g/img/">
         <xmp:CreatorTool>Adobe Illustrator CS5.1</xmp:CreatorTool>
         <xmp:CreateDate>2015-02-12T18:12:17+02:00</xmp:CreateDate>
         <xmp:ModifyDate>2015-02-12T18:12:17+02:00</xmp:ModifyDate>
         <xmp:MetadataDate>2015-02-12T18:12:17+02:00</xmp:MetadataDate>
         <xmp:Thumbnails>
            <rdf:Alt>
               <rdf:li rdf:parseType="Resource">
                  <xmpGImg:width>256</xmpGImg:width>
                  <xmpGImg:height>204</xmpGImg:height>
                  <xmpGImg:format>JPEG</xmpGImg:format>
                  <xmpGImg:image>/9j/4AAQSkZJRgABAgEBdgF2AAD/7QAsUGhvdG9zaG9wIDMuMAA4QklNA+0AAAAAABABdgAAAAEA&#xA;AQF2AAAAAQAB/+4ADkFkb2JlAGTAAAAAAf/bAIQABgQEBAUEBgUFBgkGBQYJCwgGBggLDAoKCwoK&#xA;DBAMDAwMDAwQDA4PEA8ODBMTFBQTExwbGxscHx8fHx8fHx8fHwEHBwcNDA0YEBAYGhURFRofHx8f&#xA;Hx8fHx8fHx8fHx8fHx8fHx8fHx8fHx8fHx8fHx8fHx8fHx8fHx8fHx8fHx8f/8AAEQgAzAEAAwER&#xA;AAIRAQMRAf/EAaIAAAAHAQEBAQEAAAAAAAAAAAQFAwIGAQAHCAkKCwEAAgIDAQEBAQEAAAAAAAAA&#xA;AQACAwQFBgcICQoLEAACAQMDAgQCBgcDBAIGAnMBAgMRBAAFIRIxQVEGE2EicYEUMpGhBxWxQiPB&#xA;UtHhMxZi8CRygvElQzRTkqKyY3PCNUQnk6OzNhdUZHTD0uIIJoMJChgZhJRFRqS0VtNVKBry4/PE&#xA;1OT0ZXWFlaW1xdXl9WZ2hpamtsbW5vY3R1dnd4eXp7fH1+f3OEhYaHiImKi4yNjo+Ck5SVlpeYmZ&#xA;qbnJ2en5KjpKWmp6ipqqusra6voRAAICAQIDBQUEBQYECAMDbQEAAhEDBCESMUEFURNhIgZxgZEy&#xA;obHwFMHR4SNCFVJicvEzJDRDghaSUyWiY7LCB3PSNeJEgxdUkwgJChgZJjZFGidkdFU38qOzwygp&#xA;0+PzhJSktMTU5PRldYWVpbXF1eX1RlZmdoaWprbG1ub2R1dnd4eXp7fH1+f3OEhYaHiImKi4yNjo&#xA;+DlJWWl5iZmpucnZ6fkqOkpaanqKmqq6ytrq+v/aAAwDAQACEQMRAD8A9JeULme58raVLcyNLdfV&#xA;YkuZXPJmljUJIxPiXU4qm+KuxV2KuxV2KuxV5V/zkn5Wl1r8tbq8tuX1zRXW9TgSCYR8My7duB5/&#xA;7HFUt/LDzXP5g8kaZfPOzXKR/V7v4mr6sPwEmv8AMAG+nFWd+Q76QNqekTOWe0m+s2xZuTG3vCzj&#xA;c7/DOsqgdlAxVEaQf0Bqa6BKaaZdcn0GQ9E4gvLZEn/fYq8X+RVf917qskxV4n/zlrJNH+XGnPC7&#xA;IRrEFWQkGn1a57j3xSE68qXFx/hbR/3r/wC8Nt+0f98rihk/kiWWS71oO7OFnhC8iTSsCnauKsrx&#xA;V2KuxV2KuxV2KuxV2KuxV2KuxV2KuxV2KuxV2KuxVI/J9E0y5t/2rbUL+Pj/ACqbuWSMd/8Adbri&#xA;qeYq7FXYq7FXYq7FVK7tbe7tZrS5QSW9xG0U0ZrRkcFWXbxBxV8wflGJ/Kfn3zP5AvGNIZmmsi1R&#xA;y9Og5AH/AH5CyP8AIYpev2t0dO8yaXf1pDM50668ON0V9FvmLhI1HsxxQzfWtJg1XT5LOVmiYlZI&#xA;LiPaSGaMho5UP8yOAR9x2xVD+XdXnvYJbW/VYtY09hDqMKVClqVSaOu/pTL8aeH2T8SnFXl//OWH&#xA;/kr4f+2nb/8AJuXFQmvl4BdA0xVFALSAADoB6a4qyTyJ/vZrn/GeH/kwuKstxV2KuxV2KuxV2Kux&#xA;V2KuxV2KuxV2KuxV2KuxV2KuxVI9CPpa35htTtW6huo18EmtYk/GSFziqeYq7FXYq7FXYq7FXYq+&#xA;cf8AnIqwk8rfmF5Z/MG0UiGVha6jxrVmi8feS3dl/wBjil6DeQQ6npckUcn7u6irDOm9Cwqki+6m&#xA;jDFDO/LWrHV9CstQdQk00dLmNeiTxkpNGK/ySqy/RiqE8xWN3BPFr+mRGXULJClxap1u7Qnk8PvI&#xA;h+OH/KquwdsVfP3/ADkL5pvPMnlVLxHMWiJdRHTrYdZAVcfWJu/Jh9hP2Qd/iOyoenaB/wAcHTf+&#xA;YWH/AJNriqVWWt6ro3mfVb+yZp4hPFHd6eTVZoVtompHyICSqXYq2wPRtqFVXrWk6rY6tp0OoWMn&#xA;q2s61RiCrAg0ZWU0KsrAhlO4O2KovFXYq7FXYq7FXYq7FXYq7FXYq7FXYq7FXYq7FXYqkgrB52Ne&#xA;mo6YKb9PqFwa7e/18YqneKuxV2KuxV2KuxV2KsG/Ovyj/in8t9XsEUNd28f12y619a3q4AoDuy8k&#xA;+nFXnP5I+ZP015DtI5H5XWlk2U1TvxjAMR/5FlR9GKl6Z5GujbarqekOf3c3HUbME9npFcIo8FkV&#xA;ZD7yYqzPFXzj/wA5P+WX0nQGv7RR+i9RvY3kjH+6bsq7PxH8kwq3swP8woqGfaB/xwdN/wCYWH/k&#xA;2uKpE/8Ax2dY/wCYmP8A6hIMVR/l3zAfLOqNcu3HRb1h+lEP2YnoFW7HyoFl/wAn4v2d1XrwIIqN&#xA;wcVdirsVdirsVdirsVdirsVdirsVdirsVdirsVdiqR+YKQaroN/0CXbWkzeEd1C6qPpnWHFU8xV2&#xA;KuxVDahqenabbG61C6is7cEKZp3WNOTbKtWIFT2GKobT/MmgajcG2stQgnuQvP6urj1OP83A/Fx9&#xA;6YqmWKuxV2KvmDy5a/4E/PLXvKjfu9M1qtzpwr8PxAzxAVp9lWkj+Y74peqT3R03UdO1gGiWc4ju&#xA;yO9rc/upeX+TGSsx/wBTFD0vFXjP/OWH/kr4f+2nb/8AJuXFQm2gf8cHTf8AmFh/5NriqRP/AMdn&#xA;WP8AmJj/AOoSDFV7KrKVYAqRQg7gg4oZp+WetPJZzaDcsWn0wKbORjUyWb1Ee56mEgxn24k7tilm&#xA;2KuxV2KuxV2KuxV2KuxV2KuxV2KuxV2KuxV2KpP5wt5Z/LV8YFL3NsgvLVB1ae0cXES/TJEoxVNL&#xA;a4hubeK4hbnDMiyRuOhVxVT9xxVUxVC6tqUGmaXd6jOCYbOF5nVftMEUtxUd2NKD3xVJbLTrHS4h&#xA;5g8z3MP6WIJlvbl1WG19Tc29sXIWNF+zUfE9KtU4qtv9b8lazHFZ371jlkUWk88M9upmb7DW9y6R&#xA;qJK/ZMb1r0xVW0y/vtN1FNC1aZrgTAnSdTcAGdUFWgmpQfWI1HKoADr8Q3DUVZBirsVeB/8AOUmi&#xA;XNkPL3n3TxS80e5W3nYGlULerDX2Dqyn/WxSGWWdzYa5okVwgEtjqVuG4nescybqfoahxQzTyTqc&#xA;1/5ctjcvzvrTlZ3rd2mt2MZcjt6gUSD2YYq81/5yw/8AJXw/9tO3/wCTcuKhNtA/44Om/wDMLD/y&#xA;bXFUif8A47Osf8xMf/UJBiq53RELuwVFFWZjQADuScUJRpf5h+XbPzdpz2N6l1c2zOL4QHmi2T0W&#xA;4Mkg+GifDJQGtUGKX0FirsVdirsVdiriaAkCpHYd/vxVj8Pnvy1Jb6XcG6EMOrQS3MDzUiCRQcRK&#xA;0xcj0+DyKhr+0QMVR9x5j0G3RWe/ty0kX1iCNZYy8sdKho15VcHtTFWrbzJoNxEZI9Qt6pF68yGW&#xA;MPHH0LSLy+HidjXocVRtpeWl5bpc2c8dzbSCsc8LK6MAafCykg7jFVXFXYq7FXYq7FXYqkXkwiHR&#xA;20s/b0aeXT+J6iKE1tq/O2eJvpxVPcVSPzvxXyrqEr0MVui3EwPT0oHWWSv+wQ4hUJoGl2lzrGqX&#xA;mpKbzV7C+lhhnnPMQQyKs8C26fYjpDMisyjkxB5E4qnmr6Zb6ppd3p1xUQ3cTwuy7MocU5KezL1B&#xA;7HFUns4W8zeUoY79vR1BapLPFTlBf2chjaWLalY54iV2oRsdjTFUf5d1afULJ1vEWHVLKQ22pQLX&#xA;isyAHkld+EiMsiV/ZYYqmmKpF568sReaPJ+raBIafX7do4mPRZR8cTHr9mRVOKvC/wAgtdmufK9z&#xA;oN38N7oVw0LRsRyEUhLKD/quHX6MVL1nyjdGz8zXdix/carCLqLwFxbcYpfpeJoqf6hxViP/ADlh&#xA;/wCSvh/7adv/AMm5cVCbaB/xwdN/5hYf+Ta4qkt7pl1BLrGvoxeyjvkt9Qi7RILO2ZLgf5ILlZPa&#xA;jbBTirTojoUdQyMKMrCoIPYg4oSBfIXlSPUxqUFhHBcFXSVYwBFIsgoQ0f2PeoAOKXrPkPTNB1Dy&#xA;pYST6daSXUCtaXMjQRFmktnMLO3w9ZOHP6cVZB/hry5/1arP/pHi/wCacVd/hry5/wBWqz/6R4v+&#xA;acVd/hry5/1arP8A6R4v+acVd/hry5/1arP/AKR4v+acVRVnp9hZKy2dtFbK5q6wosYJHc8QMVYD&#xA;qP5TSz3WpXFtqSotxcxzadbyRFltojO11dRI6urqZ7mQvzQqVAUYVY2n5UeZbW9sNHhjin05Hilu&#xA;daaOP4TDbzQqEMly1ytfVHwcH7t6m5GNqnzfk/IulJa29/DDdg3bS3X1cMZDczQSqGBauyW3DlWo&#xA;rVaEDG1ZV5F8rzeWtCOmzXIuna5uboyqHA/0mZpiv7x5XPEvSrMScCshxV2KuxV2KuxV2KpFF/oP&#xA;nKaPpDrNqJk8PrFmRHJ9Lwyx0HghxVHavrdhpUcTXTO0tw/p2ttCjSzSvSvGONAWagFSegG5IGKp&#xA;XqGtyT2FxBqXl3U49PuIniuXC2059N1Kt+6tp55zUH9mMnFUm8ma2s9xpd80wmXV7U6ddzDZTqWl&#xA;M6sadjPGJWFf2UGFWeYFSPy2vp3/AJihU/uotTrGv8vq2dtO9PnJKzfTiqlrP+4fW7bXU+Gzu+Fh&#xA;q4AFAGalrcE/8VyOUb/Jep2TFWQ4q7FXzX5itv8AA/8AzkQ77x6T5wj9StRx9eY/F4b/AFhPufFL&#xA;0XVJ3skt9XjBMmkzLeEAcmMSgrcKo7s1u8ij3xQk3/OVro/5WW7owZG1K2ZWU1BBilIIIxUJxoH/&#xA;ABwdN/5hYf8Ak2uKsj8ixRyxeYIpUEkUmocXRgCrKbC1BBB6g4qwrWNEl8vaqdLYs9lIpl0qdqms&#xA;QNGhZj1eGoG/2lIO55UVUMUMu/K654vrVgd+E0N4vstxH6VB/srVj9OKWd4q7FXYq7FXYq7FXYq7&#xA;FXYq7FXYq7FXYq7FXYqkXnCJ49Ni1aJS1xoky36gCrGKMFLlFHdntnkVf8qmKpV+nrNPNd7d+jNq&#xA;FyFj0/SrW1QOxVYY7y4kV2KRoJBdRcubivAeGFU1+t+crwf6PY2ulo3SW9la5mX/AFre34Rn6LjA&#xA;rGdGhl1S+1nRdRdba/ncXsdxbrw9O/sZFhe4iRi/EGNbSbiSa+oQ3U1KsjEnnx4hb+hpsEyji2om&#xA;SaVGP862oSM79eJn26VbrgVMdF0lNMszB6rXE8sjz3V1IAHlmlPJ3IGw8FUfZUADpiqJvbO1vbOe&#xA;zu4xNa3MbRTxN9l0cFWU/MHFUp8q3l16Fxo9/IZdS0hxBLM32p4GFbe49/Uj2b/LVx2xVPMVeNf8&#xA;5ReVpdQ8kW/mGzBGoeXLhbhZFpyEEpCSUrv8LiNvoOKhG+U9dh8weWdO1dACL2BXkXqBIPhkX/Yu&#xA;CMVYB+c2tpcflJL5bnbjqHl7U7eJVYkmWy4OLaRSftFY5EV9/tbnqMVDM59T1XSfKVjcWGkzavcp&#xA;bQg2kLxxkUjFSS5qf9ipOKtfkb5z8z623md7zSxbzR3sJbTS3pSQEwLHV/UAc8xEOwG2Ks880aXq&#xA;GvaU9nLpvpTowmsroTRs0M6A8HA2qNyrCvxKSO+FXmkc+pK8tvdWXoXtq5hu4PUB4SKATQ0FVYEM&#xA;p7qQcCp75Ev9Rg81TRQ2fqm6sWZ09VV2tpkANSO31k4Vei/X9Z/6tf8AyXj/AKYFd9f1n/q1/wDJ&#xA;eP8Apirvr+s/9Wv/AJLx/wBMVd9f1n/q1/8AJeP+mKomznvZef1m1+rcacP3iycq1r9npTFXkOmf&#xA;mPrVjd3M8+pjV2nSUwQrJAbNP9OigWWVBFBeWX1dJ/3qSqwIB+LkNyqJ1X83NZ0yS6nVLK6WNFEj&#xA;LcFrRfRN2JHhoizMGNuOXEOV7K1N2lRkP5v6jJqd9p7W1jA6XX1aznkncwrH9YeH1p5FUqFoi/CS&#xA;jh24le+NKhj+cfmGXT7nUbfTrIWkLWsI5TszNJcQmYulREJI6IeNPiIINNqFpD07QtTXVdE0/VFA&#xA;C39tDcqF5caTRhxTmsb0+L9pQfEDAlG4q7FXYq7FXYq4gEEEVB2IOKvMtIs5NCmvhM1V0LzBAYdi&#xA;v+4y8sYLKHc9UiST4m6ViPhhV6bgVgfmIDSfNr6wgCxwJb6hc+Bh+OyvnY7bJA0En/PLCrPMCuxV&#xA;2Kse8zA6bc23maIfBYgw6sBU8rByC70He3cCWv8ALzA+1irIQQQCDUHcEYqhNX0qz1bSrzS71Odp&#xA;fQyW867bpIpVqVBFaHbFXzj+R9zd6Rd+YfIuoml5ol27RA03Qt6cnGn7PJQ3+yxUoT/nImw9LRod&#xA;QVKpcNHbSsDQiSMl4/oZC/L/AFV8MVD1nSv+OXZ/8YI/+IDFU/8AICrXXmoOR1FQW7kCxtaD8cVZ&#xA;ZirCPzF8uSOg8w2EZa6tE46hAgLNParU1UDrJDUstNyvJaE8aKpH5CkEnnG1kgYOj6fdMXBBUxGS&#xA;3NQf9bjir1PFXYq7FXYq7FVFbKzV5XWCNXn2nYIoL9vjNPi+nFWmsLB41ia2iaNOJRCilRw+xQU/&#xA;Z7eGKttY2TCYNbxsLja4BRT6gpT49vi+nFXSWVnJE0UkEbxOAHjZFKkLsKgihpiqsAAKDYDFXYq7&#xA;FXYq7FXYq7FWMeY7C2fWYEulJ0/X7aXRr8DY8uLzWzVoeNAZ1r/M64qivLmttJp72urSpFq+lgRa&#xA;pzIQEqKLcrX/AHVMo5qeg3XqpxVC2cll5i164vYAt1otvZSaetyBWK4e6dXnWNxtIiLCgLCq1JA3&#xA;DYqi/KFzN+jpNLunL32jSmxndvtOiANBKTtX1YGRmI25ch2xVPMVdirTKrqVYBlYUZTuCD1BGKsf&#xA;8ru2nzXPlmZiTpwWTTWYkl7CQkRbnq0LK0R9grH7WKshxV86/m7Z/wCDfzr0LzfGvDTfMKfVNRan&#xA;w+ogWJyaH+Ro2+anrirX/OQQB/LyQkVIuoCPbcjFQ9A0r/jl2f8Axgj/AOIDFWQeQOmvf9tIf9QN&#xA;rirK8VdirzvSdPsNA/NKSzhjdLO5sGktH29KKW8m5m2HdQfqDyJXbqopxFSr0TArsVdirsVdirsV&#xA;dirsVdirsVdirsVdirsVdirsVS/zBpb6po9xZxOIrlgslpMRUR3ELCWCQgfySorYqg7CDQvMthYa&#xA;vfaZbzXSKQBcwxyS28yMUmiDOCVKSKymncYqngAAAAoBsAMVY/rTDSdZtNcG1pccNP1UjoEdz9Wn&#xA;b2ilcofBZCx2XFWQYq7FXYqkfmm1uUit9asY2kv9IZpRCn2p7ZwBcwU7lkUOg/nVMVTe0u7a8tYb&#xA;u1kWa2uI1lglQ1V0cBlYHwINcVed/wDOQfk8+Zfyz1EQx877Sv8Acja7At+4BMqitOsRb5mmKvFv&#xA;OvmT/EP5DWWoM3K5Wa3gu+v99CSjE1/moG+nFL2fSv8Ajl2f/GCP/iAxQr+R/McNt5n1jQ7pRGLy&#xA;6SWxnrs8osoPUhPg3BAy+PxeG6r0TFXYqxXy/Emq33mu7KvCtxenToLlKxyGKzt0iZlbxS5ecA4q&#xA;m+jarPeSXlrd27W17YzNFIhqyPG3xQyxvRQweMitBs1V7YqmeKuxV2KuxV2KuxV2KuxV2KuxV2Ku&#xA;xV2KuxV2KuxVjsZOjeaGiY00zX25wfyxahGlZE9hcRJzH+UjV3YYqyLFVG8s7W9tJrO6jWa1uUaK&#xA;eFxVXRxxZT7EHFUn8t3tzBJN5f1GVpdQ09Q0Fw/2rqzJpFNXu6/3cv8AljlsGXFU+xV2KuxVh+ha&#xA;1ZaV5qvfKDMREzfWtKdvsgzhpprMH+aPeRB/vtqD7GKsvkjSRGjkUPG4KujCoIOxBB7Yq+IfO9rN&#xA;5RPnDyFLUW0V9BfabyrvEWHE+HxRSR/ccUvpTSv+OXZ/8YI/+IDFDF9Rs7salqVzJVbC4vo4YLmP&#xA;aSC7itLeWMk705bGM02Zd+q4VeoeSfNB1vT2iuyq6vY8Y7+NRxVqg8J0G/wSgV9jVf2cCpn5i1q3&#xA;0PQdQ1i4FYrCCSdkrQuUUkIv+U5+Ee+KqHlHTLjTPLWn2l3U3oiEl8S3Kt1MTLcHl3rK7HFVXW0u&#xA;4rc6hYwtc31mjNHaCRo1mXYtHQfCXKg8OQIDeHXFUXY3kV7ZQXkIdYriNZUWRSjgOKgMjUKtvuD0&#xA;xVXxV2KuxV2KuxV2KuxV2KuxV2KuxV2KuxV2KuxVBazpNvqumzWM7Mgko0cybPFKhDxSoT+1G6hl&#xA;9xiqF8uavcXsM1pfqsWs6ewh1CJdlYkVSeMH/dUyjknhup+JTiqb4qlXmDRpb+KG4spVttXsWMun&#xA;3TAlQxFGjkAoWilHwuv0j4gCFV2h65FqkUqtE1pqNowj1DT5CDJDIRUbjZkYbo42YfSAqmeKrJ54&#xA;beCS4ndYoIVaSWRjRVRRVmJPQADFXiN417fapqNxfRSWN5ezR6laN9iZYZEX6nKAd1kjWIIaj7aH&#xA;Ch6b5J80nWrFoLzims2QVb2NdlcGvCeMfySU6fstVd6VIS8g/wCcrfy+tp9Hj88WvJbyz9Ky1BFU&#xA;FHgeQ+nIxG4ZJGC1PUEDtupDI7LzLpcOl6bwZ7n1rSKdfq6NLSEqKSHiDsaGnc0NBtihX0bWtJkv&#xA;Nb0PWVU6HrM0EsF8rU9N5raFInZv2Fd4f3Mo6SKRseOFUvRtZ8u68aEPrGlHi6/YS9s5DsfYShKj&#xA;ski03Cmqhm0+t6d5s1XR9L0+RpbFUTWtRYIOISCXhbW0oYfA7XKMxXqPRYHAlmeKuxVJ7mW503V4&#xA;DHbvNp2pSMLycNJI0E4jURNw+ILCyx8WIoA1CepOKpxirsVdirsVdirsVdirsVdirsVdirsVdirs&#xA;VdirsVSXX9Iu5ZodX0oqms2SlY1c8Y7mE7vbSkdFYiqN+w2+45BlUTomv6drEDPbMUuITwu7KWi3&#xA;FvIPtRzR1PEj7iNwSCDiqKvb6ysLWS7vZ0trWEcpZpWCIo9ycVYtaaNea7fzeZvXudHupI0ttI4g&#xA;K4tEYvyuYJAyN67tXg68kULTg5bFU0S585249OaystQp0uYJ5LYt84JI5gn0StiqjJpWua1Iqa4I&#xA;LTSkYO2mWztO1wVNVFxK6RD0xTeNF37sVqCqgPzI0KW5sYtZs4zJe6YGMsSAlpbR6GVAB9pk4iRP&#xA;kVH2sVYJa3t1a3VtrGlOrXUA5Rb/ALuaF6F4WYV+GQAUPY0btih6Jq1ppH5g+Qr2xRylrq1u8JLU&#xA;EkEyno6ivxxSruPbFL5u/LzzLr/lya98qSxs3mLTZzpyWpKVe2JlYiIyhlDxyE8GPw0cV2AwqXpp&#xA;udHm0i01iwUPptpEbLU7aVfiW0A4SxzRtuHt2AZg37IYftYFXeYpTp+mxG8nLpYmmi3r8nkZH+1p&#xA;0zblvU4j6vIf2wqsf5yrJPIiWvlryxa67eTCddcaOXVbiGMBLeaZ2482PFxFDyWE1GxHJgKtRV6N&#xA;gV51+av5m+Z/J1u7aV5Su9WjCg/pMFTaITT7SxGSXbp8Spv0OKpz5Y8x3+v+UNOvrzS5bo6nZxzT&#xA;vatbJCfWTkyx8rkuAvLjueXyOKojSdb1xZrqwvdEug1u3K0lje2KyWr1EfItcf3i8Srip7N+1TFU&#xA;z/St9/1Zrz/g7P8A7KMVW22uGbUxpz2Fzbz+kZ3aQwMiJy4qXMUshHNqhdt6HwOKsE0/80NbgtY2&#xA;u9PW9trcW/1+/wDWEczG9uJ4Y1it0i4nh6A5Vdag+OGlQC/nHrVr61xdWFvcm7a3ewtba4eWGKFr&#xA;M3T8547Yv6hG1ClBu1eONKyryr+Y3+IPMt1osdgkC2ltHdvc/WVk5LOkTxoiKm7qJf3wr8Hw/a57&#xA;BUj0/wDOHUtS1P8ARtlo8D3F1LCmnNJczRI0UzXC+q/O2Bov1WtUDA8qA7VJpW7D80dX1jV9Cgt7&#xA;SGwtLq9tra+DXCyTs0+mvelUiaIVhHwr6oYNyUilK4qra1+amt2F1q/oaJbz2OkjUWeVrxklddKi&#xA;inmPAQMBzSfig5H4uu2BUt1P81dXhZ7O1RQ1rrMNteXM0sZuGt5dfnsfTt7dYQJF9C0ZCTRlDD4m&#xA;ZS2KoX/lb2vJctq9xHCdJS1ivk0yylS55RSafdXSrJMYkZH5RpzpULSoqDhV6H5H81v5l0qa6lth&#xA;a3FrcPazxKzsvNUR6qZI4XoVkGzIMCshxV2KuxV2KuxVL9S8vaHqbrJqFhBcyoKRzSRqZEH+RJTm&#xA;v0HFVC28peXLe5julsUkuYSGhmnLTvGw6GNpS5Q/6uKpvirsVdirsVeVebvLL+X71ry1QnQbyQsQ&#xA;o2s55Dup8IZGPw/yt8PQqAqhdA19/Lepvemp0m6I/SsQ34UHFbpB/MgFJP5k8SqgqsZ/5yH0KPy9&#xA;5l0D80dNRZALiK21SNTX1QEJikBrTeJGSvsuKsnu7v8A3CHWtAhtrhLoJe3CvSP61AYxy/eVCiT0&#xA;wOLPUbUNBuFUr8i2dh5nkYapGZ9HsI66JYXUZVnhmMkPrzKxIZo1BhQdQPjO7rQqzbRWPl++i8vy&#xA;WRl8t30bJDdAGYpOeTSi7J34yL+23KpryI2xVktnqQtdW/Qd00ryyRvc2V1KEVZl9RucKemFXlAG&#xA;UUoCVIO9GOBU3xVpERF4ooVRUhVFBuanpiqU65dCyu9LuxEZGkuVsnIdl4pcinIqNmpIidem+Kov&#xA;VtSFjbBlT1rqZhFaWwNDLKwPFa9gKFmbsoJ7Yqs0vTzYW8jzP697cMZr2cD7chAFFXeiqoCovYAd&#xA;TU4qwTRPzK8tyxu+oaKunl5E+o29tDLdzyiM3MsbtGlvHwKLbPIKFgu+/clUXL5y/KaKKS2eC3Gn&#xA;tyuGl/R7m0doYfrLkOIvTeREkrQVapoN64qqD8yPy4txHdxIQVW4naaKxlJhJcJOZWWP920knEfE&#xA;RzJHXFUxTUfI9lpltr8OnJCL6fjbelYMLuW5YstFiWP1S/wua06VNab4FSu080eX7ibWNS03Q7aW&#xA;z8v6dHeWeo8PSll5QvMsMatADEoUUryqCSOGFVDVfzH8kpaX6WFjDqWsJySbTjCyLLJPLFa3KtN6&#xA;MgZVeRElKq3YUOKog+aNAfQNN8xXHl1TLLqTWaQi39WeKU3T8pYgsRkYmaPnso+Lcmoriq5fOn5Z&#xA;WrQslskIvYXullWwdFYGCWZwzemBz9JZOQO9SVO5piqnffmj5M0Ly5eXGlWkpeyhuZ4dIis57ZmE&#xA;ECXBdlEX7qJlnirKy8RzGBWf4q7FXYq7FXYq7FXYq7FXYq7FXYqsmhhnheGZFlhlUpJG4DKysKFW&#xA;B2IIxV5f5k8mX2gs9xp6SX2hGpMS1kuLUHelN2lhHalXXvyG4VSe3l8p61oEHlTzPfCHQlk+s6Rd&#xA;BwI3h9KRGtjKQyqIlkLRmo+Dp9g4VYP+U9zLNPeeSNRuzNY6NI9xp44PH9etWk+Bjz4t6Kn4uNPi&#xA;5AHYEEK9D8zrrNlLaeYtHrPdaQJTPpmwW7tpQvrRBqclkHAPH25DcHFWYaffabr+iQ3cS+rYahCG&#xA;9OQUPCQbo69iOhHjihRtL/8ARS2Wg6ndXLRzsY9M1t+DMjhqx28zkH4yvwqzL8VOvLClkWk6zcXU&#xA;1za39lJYXlrJxox5wyoxPpyQTAKrhgu67Mp6joSFTTFUhu9bsbjUJLdZJY7XSR9b1DUF4C3RkFRA&#xA;zuG5EoSzcPs0FSKgFVEaVaz3VydZvozHPIpSxtnFGt7dqH4h2lkoDJ4bL+zUqptirG7T8v8Ay7aX&#xA;UVzCkolhXglZCRQpMnh/LdP+GNqxtfyasH1ci5uOXl6KKRLbTkaZWDywJbmRqyGMOBHy5qoqd6A1&#xA;LG1T+2/LnQLe0uLeOS6DXULW804m4yFXkEhpxCqu6gUC8abUpXG1VLf8v9BtvL9nols08ENhcNeW&#xA;dzG4WeK4dnZ5EIXgtfWccQnGhpSmBVaw8kaBYaZe6bbRyLa6hbraXIMjMxjWNoqhjU8iHJJ8cVQF&#xA;t+V3lW3uZ54UnQTv6phEpEayNcJdOwUAVLSxBvirTcLQE42qa2/lPS4LSC0DSvDbXzajbq7g8JXk&#xA;aUqCAPg5yNsfvxVIH/J3ye921zS5DOGDIJRQloXgJrx5/wB3Kw48uPenLfDaozWPyy8tarJcSzNc&#xA;xSXcMlrcvBKYzJbzQRW8sLbH4HS3jr7jArLMVdirsVdirsVdirsVdirsVdirsVdirsVYL5u/KnRt&#xA;a1PTtStY0tLi3vku7xR/cy0VquYGWSFpuTbMyb78q7Yqwb827NhFp/5jaJamDVfKM5sPMGnKAHNn&#xA;UBkIU0KqsnND/I/LtirK7C+tb+yt720cS21zGssMg6Mjjkp+44qxvTtE1fSfMM0+gTEyRIJpdFcs&#xA;0V5p3P8AeCFRy4XFpJJ8PEUZHRetalWfadqela1YC5sbiO6tX+EtG1eLDqrU3R17g7g4EO0y/isf&#xA;q2i+YZlukmn9PRb2ZCSxUAxRTPTiJ13CPUF6fz9SlOY/LGjoJkZJp4ZwVkt7i5uLiGjGpAimkeNf&#xA;oXpt0wKoqq6zfAgf7htPlqgGy3F1G3X3jgYbeMm/7A5Kp3irsVdirsVdirsVdirsVdirsVdirsVd&#xA;irsVdirsVdirsVdirsVdirsVdirsVY75x02+vpfL7WkRlFpq8FzckEDhCkcqs5qR0LDpiqv5na3t&#xA;LGe+uopLnTfSaHVLJApRreYoss7rx5t6MYNQD9nlsTTFXkHkpX8ra/qP5f3cpkhta3/lu5Y1Fxps&#xA;55AKxJ5GJiQae/YYqhPzeufPNvYW83lhY45Ii5+swyP9eAaNllWJAoUJ6ZJY8j8gQDirMfL/AJEX&#xA;SrPQfMXlKYfVZLG3h1/TlHwXqpCF+tKtKrdI277VfcH4upVPdK1by75s0NbuyePUNLudirLUBkNS&#xA;rowqrqw6EVGBCpoup61qcE+iPI3qRzyiXU1IDfo8tWFlZf8AdsgJiVv8ln60BKWX29vBbQR28CCK&#xA;CFQkUaiiqqigAHsMCqmKuxV2KuxV2KuxV2KuxV2KuxV2KuxV2KuxV2KuxV2KuxV2KuxV2KuxV2Ku&#xA;xVjPnjVbjTf0DLHc/VYJdWgivZCQqmBo5S4cnYLVRXFVCz/NXyBqOtSaLY6vBd3MMbyXUkZrbxIh&#xA;C1ec0i+JmCgKxOKvPPzetJtWm0+68rJNe+ZNGZ9Q0bUECNDcQ1ZrqyEtI1k4JxZUVnZhX3OFUV5F&#xA;1yx8x6THr0UnqXc49K5iO31Z0+3AEJPGh3J6tsenEAKzXyFMba81XR/90I6X9qOyi7LiZF+U0bSH&#xA;/XxVgHm3Vfy00jz1rmjWlrOdeurRLq40u1vHs7S/vH5EQygNGiSCMiRjzHMGlGOxKvQ/ysvdEvvJ&#xA;lpd6RIJYpWcXDmNIJPWRuDLJCm0RRVVVT9lAoGwGBWW4q7FXYq7FXYq7FXYq7FXYq7FXYq7FXYq7&#xA;FXYq7FXYq7FXYq7FXYq7FXYq7FXYqxvzvcwpDpFjc2Vtf2eq6lDY3dveRCaMxukjkhG+HkDGKVBH&#xA;tirCI9B/L/yT+Y0U3lzSZYbyazuRqi20gNpGEhe6jQxuspEsggJVYivFdzswDFU0sPzF1nWotPgG&#xA;jGGW8uVhuxaS3UktnvAy+sJ7K3CNxnaT4hwaONirsaYFY5rHlHXdN12+8z+VNNNvqDtTzH5WZqQX&#xA;uxdbqwmoEMhAY0pU7ggN1Ksv/Ltb7UrufzBcaddaXA0C2tpbX8XoXDEt6krtHVqLsgXx+LtSoVA6&#xA;P5D8gweZ7+bTbQat5meU3Oo67fp9bWCR2DGOoMUaSla8ViAKjc0FKlWSXukS+W9Ilm8m6NaSXfOF&#xA;rqxFIGuIYUERVJBRRKIlAQv8Pj44FZIpJUEgqSKlTSo9tq4q3irsVdirsVdirsVdirsVdirsVdir&#xA;sVdirsVdirsVdirsVdirsVdirsVdirsVSXzLf6daSaML20F0bnUYYLQmn7mdkkKyiv8AKFI28cVU&#xA;dU8g+T9T1ePWLvSrZtUQsWvlijWd+UJg+OUL6jcYz8PxbUFOmKovQPLWnaIk4tWmmluWVri5uZXm&#xA;lf00EcYLOeiIoAA+fUk4qmFxa21yqrPEsoRg6cgDxYdGU9j7jFUvi8saQizowuJ4rgBZIbi6ubiM&#xA;AGo4RzSOif7EDFU1AAFAKDc7eJ3OKuxV2KuxV2KuxV2KuxV2KuxV2KuxV2KuxV2KuxV2KuxV2Kux&#xA;V2KuxV2KuxV2KuxVTnuILeMSTyLGhZEDMaDlIwRBv3ZmAGKsa8x6holxcaZHqHqRzWmtwQWyg0rd&#xA;GFnirxV6o0Ule3hUYqntpq1pcKp5CIyzTW8CuQGlaBmVygruP3bH5b4qjMVdirsVdirsVdirsVdi&#xA;rsVdirsVdirsVdirsVdirsVdirsVdirsVdirsVdirsVdirsVdirsVY95jvQGlhMgaAxtFd2V7byi&#xA;ylR1qf8AS1jKxmhoSSy9uNdwqwKfVL/UdQkj0zT59buNJWK59cNDJ6UkBk+qM7mVY5ZAskgcxszO&#xA;oXblyUFCbeWNcgvLaG5sp1iHoJDbOVNzcw2y0HpQ2kQZ/UbjyllkUfHT4XRVxVmV95n0DSdKTUNW&#xA;1FLC1Cn99f8A+jO5j2b93II2LGnQLv2HTAlMbS6gvLSG7t2LwXEaywsQVJRwGU8WAYbHoRiqrirs&#xA;VdirsVdirsVY3a/mF5Zn1DWrOSc2n6BaNby5ueMcDiRjHyict8SpKrRMSBRxTwOKo2183eWLtFe2&#xA;1S2lVhCQVkU/70Tm1i+Re4UxAfzCnXFURpHmDRNZikl0m+gvo4iBI0Dq/HkOS1p2Zdwe46Yqj8Vd&#xA;irsVdirsVdirsVdirsVdirsVdirsVdirsVdirsVdiqQ67BdNO3pNcygr6lWuDZ2duqihZ5YeEzdC&#xA;3Gre/EUOKsHjg81WeoXV3ol+wbUIEJS4i5tJyaRbSVPVLshkKy8ebOQoUyVJ4qUI/wAr6fPZWMVt&#xA;DJc3qQwxzIkNzNDO8DgGO5gQuIZlf9pHAdWqC0hoSqs86fkL5I84r9b1B7uPV3U/7lEcLK1d19SE&#xA;qIvh8AinxNd8CWc6dodla6fbW00UNxNBEkck/pKvqMihS/H4qciK0riqI/Rmm/8ALJD/AMi1/pir&#xA;v0Zpv/LJD/yLX+mKu/Rmm/8ALJD/AMi1/pirv0Zpv/LJD/yLX+mKu/Rmm/8ALJD/AMi1/piq+Kzt&#xA;YSWghjicinJUA++lMVYNF+TuiwJZNb3tylzEKajO7NL9cLXMd27PG7GOMtcRc/gA6nxwqry/lbbN&#xA;rEuoxalLCLm5guryFY0PqG11JtTgQM1eIWaRgdtxgVMPIvkaLylbXMEV7JdRzmIJGVEUUawpxHCJ&#xA;TwVm6vwCr4KMVZRirsVdirsVdirsVdirsVdirsVdirsVdirsVdirsVdirsVQmq/o76i/6R4/UuSe&#xA;rzrw+2tOdP2eVOVfhp9rauKpG3H6/c8/96v0vB6lf99+gnpcO/Hj/wAPywqraJ+jeFp6n979avf0&#xA;T9rn6PqScvs/7p4/Zr8FPT/a44FZDirsVdirsVdirsVdirsVdirsVdirsVdirsVdirsVdir/AP/Z</xmpGImg:image>
               </rdf:li>
            </rdf:Alt>
         </xmp:Thumbnails>
      </rdf:Description>
      <rdf:Description rdf:about=""
            xmlns:xmpMM="http://ns.adobe.com/xap/1.0/mm/"
            xmlns:stRef="http://ns.adobe.com/xap/1.0/sType/ResourceRef#"
            xmlns:stEvt="http://ns.adobe.com/xap/1.0/sType/ResourceEvent#">
         <xmpMM:DocumentID>xmp.did:4F677B474620681188C69098C6AB8D67</xmpMM:DocumentID>
         <xmpMM:InstanceID>xmp.iid:4F677B474620681188C69098C6AB8D67</xmpMM:InstanceID>
         <xmpMM:RenditionClass>proof:pdf</xmpMM:RenditionClass>
         <xmpMM:OriginalDocumentID>uuid:7B175E9A718EDE11BD5C9D5001F7843B</xmpMM:OriginalDocumentID>
         <xmpMM:DerivedFrom rdf:parseType="Resource">
            <stRef:instanceID>uuid:da9d872b-15f4-6745-a3db-73b81c2757f1</stRef:instanceID>
            <stRef:documentID>xmp.did:31B96A684020681188C69098C6AB8D67</stRef:documentID>
            <stRef:originalDocumentID>uuid:7B175E9A718EDE11BD5C9D5001F7843B</stRef:originalDocumentID>
            <stRef:renditionClass>proof:pdf</stRef:renditionClass>
         </xmpMM:DerivedFrom>
         <xmpMM:History>
            <rdf:Seq>
               <rdf:li rdf:parseType="Resource">
                  <stEvt:action>saved</stEvt:action>
                  <stEvt:instanceID>xmp.iid:31B96A684020681188C69098C6AB8D67</stEvt:instanceID>
                  <stEvt:when>2015-02-12T18:07:20+02:00</stEvt:when>
                  <stEvt:softwareAgent>Adobe Illustrator CS5.1</stEvt:softwareAgent>
                  <stEvt:changed>/</stEvt:changed>
               </rdf:li>
               <rdf:li rdf:parseType="Resource">
                  <stEvt:action>saved</stEvt:action>
                  <stEvt:instanceID>xmp.iid:4F677B474620681188C69098C6AB8D67</stEvt:instanceID>
                  <stEvt:when>2015-02-12T18:12:17+02:00</stEvt:when>
                  <stEvt:softwareAgent>Adobe Illustrator CS5.1</stEvt:softwareAgent>
                  <stEvt:changed>/</stEvt:changed>
               </rdf:li>
            </rdf:Seq>
         </xmpMM:History>
      </rdf:Description>
      <rdf:Description rdf:about=""
            xmlns:xmpTPg="http://ns.adobe.com/xap/1.0/t/pg/"
            xmlns:stDim="http://ns.adobe.com/xap/1.0/sType/Dimensions#"
            xmlns:xmpG="http://ns.adobe.com/xap/1.0/g/">
         <xmpTPg:NPages>1</xmpTPg:NPages>
         <xmpTPg:HasVisibleTransparency>False</xmpTPg:HasVisibleTransparency>
         <xmpTPg:HasVisibleOverprint>False</xmpTPg:HasVisibleOverprint>
         <xmpTPg:MaxPageSize rdf:parseType="Resource">
            <stDim:w>115.000043</stDim:w>
            <stDim:h>91.316562</stDim:h>
            <stDim:unit>Millimeters</stDim:unit>
         </xmpTPg:MaxPageSize>
         <xmpTPg:PlateNames>
            <rdf:Seq>
               <rdf:li>Cyan</rdf:li>
               <rdf:li>Magenta</rdf:li>
               <rdf:li>Yellow</rdf:li>
               <rdf:li>Black</rdf:li>
            </rdf:Seq>
         </xmpTPg:PlateNames>
         <xmpTPg:SwatchGroups>
            <rdf:Seq>
               <rdf:li rdf:parseType="Resource">
                  <xmpG:groupName>Default Swatch Group</xmpG:groupName>
                  <xmpG:groupType>0</xmpG:groupType>
               </rdf:li>
            </rdf:Seq>
         </xmpTPg:SwatchGroups>
      </rdf:Description>
      <rdf:Description rdf:about=""
            xmlns:pdf="http://ns.adobe.com/pdf/1.3/">
         <pdf:Producer>Adobe PDF library 9.90</pdf:Producer>
      </rdf:Description>
   </rdf:RDF>
</x:xmpmeta>
                                                                                                    
                                                                                                    
                                                                                                    
                                                                                                    
                                                                                                    
                                                                                                    
                                                                                                    
                                                                                                    
                                                                                                    
                                                                                                    
                                                                                                    
                                                                                                    
                                                                                                    
                                                                                                    
                                                                                                    
                                                                                                    
                                                                                                    
                                                                                                    
                                                                                                    
                                                                                                    
                           
<?xpacket end="w"?>
	</metadata>
<g>
	<path fill-rule="evenodd" clip-rule="evenodd" fill="#B0AFB0" stroke="#000000" stroke-width="1.0001" d="M139.362,174.814
		c-25.082-14.356-39.276-39.357-41.454-72.021c-2.581-40.486,16.049-67.665,40.889-88.553
		c23.065,17.501,39.437,42.099,41.374,82.343C177.589,133.682,161.621,157.313,139.362,174.814z"/>
	<path fill-rule="evenodd" clip-rule="evenodd" fill="#FFFFFF" d="M2.338,1.821l101.215-1.533l104.924,148.878
		c5.888,11.693,5,19.275-2.742,22.905c-8.951,4.758-17.581,0.968-25.808-11.13l-60.729-83.311l15.001,28.308l53.229,77.907
		c11.048,10.806,11.21,20.001,0.564,27.663c-9.033,5.483-17.26,3.79-24.68-5.081l-30.485-45.647l-25.405-33.147
		c-3.467,19.034-12.42,26.13-29.517,15.565c-3.629,8.63-10.081,13.065-22.582,8.145C40.97,137.07,31.614,118.762,25.243,98.116
		C12.339,69.082,5.646,36.419,2.338,1.821z"/>
	<path fill-rule="evenodd" clip-rule="evenodd" fill="none" stroke="#000000" stroke-width="1.0001" d="M103.554,0.288
		l104.924,148.878c5.888,11.693,5,19.275-2.742,22.905c-8.951,4.758-17.581,0.968-25.808-11.13l-60.729-83.311l15.001,28.308
		l53.229,77.907c11.048,10.806,11.21,20.001,0.564,27.663c-9.033,5.483-17.26,3.79-24.68-5.081l-30.485-45.647l-25.405-33.147
		c-3.467,19.034-12.42,26.13-29.517,15.565c-3.629,8.63-10.081,13.065-22.582,8.145C40.97,137.07,31.614,118.762,25.243,98.116
		C12.339,69.082,5.646,36.419,2.338,1.821"/>
	<g>
		<path fill-rule="evenodd" clip-rule="evenodd" fill="none" stroke="#FFFFFF" stroke-width="1.5024" d="M178.558,106.826
			l29.92,42.34c5.888,11.693,5,19.275-2.742,22.905c-8.951,4.758-17.581,0.968-25.808-11.13l-12.743-17.421
			c6.614-11.694,10.324-23.71,11.293-36.13L178.558,106.826L178.558,106.826z M163.799,149.167l23.631,34.68
			c11.048,10.806,11.21,20.001,0.564,27.663c-9.033,5.483-17.26,3.79-24.68-5.081l-21.453-32.179
			C150.976,166.103,158.234,157.796,163.799,149.167z"/>
	</g>
	
		<path fill-rule="evenodd" clip-rule="evenodd" fill="none" stroke="#000000" stroke-width="1.0001" stroke-dasharray="5.0003,3.0002,1.0001,3.0002" d="
		M178.558,106.826l29.92,42.34c5.888,11.693,5,19.275-2.742,22.905c-8.951,4.758-17.581,0.968-25.808-11.13l-12.743-17.421
		c6.614-11.694,10.324-23.71,11.293-36.13L178.558,106.826L178.558,106.826z M163.799,149.167l23.631,34.68
		c11.048,10.806,11.21,20.001,0.564,27.663c-9.033,5.483-17.26,3.79-24.68-5.081l-21.453-32.179
		C150.976,166.103,158.234,157.796,163.799,149.167z"/>
	<path fill-rule="evenodd" clip-rule="evenodd" fill="none" stroke="#000000" stroke-width="1.0001" d="M25.566,99.89
		c-1.048-10.484-0.081-18.629,5.403-21.049c4.678-2.096,9.436-1.209,14.114,2.42c8.387,27.985,19.194,48.873,33.146,61.615"/>
	<path fill-rule="evenodd" clip-rule="evenodd" fill="none" stroke="#000000" stroke-width="1.0001" d="M27.985,89.083l15.324-3.952
		c7.178,18.227,5,24.84-1.533,26.211C36.373,114.729,31.776,107.31,27.985,89.083z"/>
	<path fill-rule="evenodd" clip-rule="evenodd" fill="none" stroke="#000000" stroke-width="1.0001" d="M44.196,64.082
		c5.646-3.71,11.21-6.613,16.775-3.872c7.903,18.227,5.484,24.84-1.613,26.131C53.47,89.809,48.39,82.389,44.196,64.082z"/>
	<path fill-rule="evenodd" clip-rule="evenodd" fill="none" stroke="#000000" stroke-width="1.0001" d="M44.841,80.615
		c-5.726-14.597-5.484-25.001,3.307-29.195c8.791-5.967,18.872,1.613,30.082,22.905l28.873,52.987"/>
	<path fill-rule="evenodd" clip-rule="evenodd" fill="#CFCECE" stroke="#000000" stroke-width="1.0001" d="M94.521,0.853
		l38.469,106.618l14.759,29.116l48.39,49.599c3.951,4.113-5.081,11.613-9.033,7.581l-57.745-59.6L99.279,50.533L80.649,0.611"/>
	<path fill-rule="evenodd" clip-rule="evenodd" fill="#E5E5E5" stroke="#000000" stroke-width="1.0001" d="M162.024,151.183
		l34.115,35.002c3.951,4.113-5.081,11.613-9.033,7.581l-32.259-33.39C157.427,157.473,159.847,154.41,162.024,151.183z"/>
	<path fill-rule="evenodd" clip-rule="evenodd" fill="none" stroke="#FFFFFF" stroke-width="1.0001" d="M162.024,151.183
		l34.115,35.002c3.951,4.113-5.081,11.613-9.033,7.581l-32.259-33.39C157.427,157.473,159.847,154.41,162.024,151.183z"/>
	
		<path fill-rule="evenodd" clip-rule="evenodd" fill="none" stroke="#000000" stroke-width="1.0001" stroke-dasharray="5.0003,3.0002" d="
		M162.024,151.183l34.115,35.002c3.951,4.113-5.081,11.613-9.033,7.581l-32.259-33.39
		C157.427,157.473,159.847,154.41,162.024,151.183z"/>
	<path fill-rule="evenodd" clip-rule="evenodd" fill="#CFCECE" stroke="#000000" stroke-width="1.0001" d="M131.781,0.853v139.041
		l27.985,53.228l10.808,14.194l5.726,3.307c4.113-3.307,4.517-9.678-3.307-22.582l-26.13-48.793l0.323-138.394"/>
	
		<line fill-rule="evenodd" clip-rule="evenodd" fill="none" stroke="#000000" stroke-width="1.5024" stroke-dasharray="7.5118,4.5071" x1="140.813" y1="146.424" x2="140.813" y2="234.656"/>
	
		<line fill-rule="evenodd" clip-rule="evenodd" fill="none" stroke="#000000" stroke-width="1.5024" stroke-dasharray="7.5118,4.5071" x1="142.023" y1="147.473" x2="204.284" y2="209.815"/>
	<polygon fill-rule="evenodd" clip-rule="evenodd" stroke="#000000" stroke-width="0.216" points="82.746,0.288 130.329,131.424 
		130.571,131.747 130.571,137.634 127.909,134.73 78.552,0.611 	"/>
	<path fill-rule="evenodd" clip-rule="evenodd" stroke="#000000" stroke-width="0.216" d="M134.2,0.611h-4.194l0.564,138.312
		l1.533,5.727l29.518,53.874c4.437,5.969,8.952,10.242,13.469,12.985l2.097-1.774c-3.952,0.967-10.808-7.581-19.517-22.582
		l-24.034-48.229L134.2,0.611z"/>
	<radialGradient id="SVGID_1_" cx="141.0645" cy="142.9126" r="4.8165" gradientUnits="userSpaceOnUse">
		<stop  offset="0" style="stop-color:#FFFFFF"/>
		<stop  offset="1" style="stop-color:#808285"/>
	</radialGradient>
	<path fill-rule="evenodd" clip-rule="evenodd" fill="url(#SVGID_1_)" stroke="#000000" stroke-width="0.5" d="M141.056,145.86
		c1.854,0,3.387-1.531,3.387-3.388c0-1.854-1.533-3.387-3.387-3.387c-1.855,0-3.388,1.532-3.388,3.387
		C137.668,144.329,139.2,145.86,141.056,145.86z"/>
	<path fill-rule="evenodd" clip-rule="evenodd" fill="none" stroke="#000000" stroke-width="1.0001" d="M179.04,106.665
		c-4.515,31.372-19.516,52.342-39.678,68.149"/>
	<path fill-rule="evenodd" clip-rule="evenodd" fill="none" stroke="#000000" stroke-width="0.5" d="M140.491,202.637
		c17.743,1.532,29.438-5.242,35.083-20.405"/>
	<path d="M149.766,215.703v-1.936h-1.21v-0.888h1.21v-3.628l-1.21,1.854v-1.37l1.371-2.017h0.807v5.161h1.129v0.888h-1.129v1.936
		H149.766z M148.556,213.767h-2.258v-0.888l2.258-3.145v1.37l-1.29,1.774h1.29V213.767z"/>
	<path d="M152.83,213.605l1.048-0.08c0.081,0.484,0.243,0.887,0.564,1.129c0.243,0.243,0.565,0.403,0.968,0.403
		c0.484,0,0.887-0.16,1.21-0.564c0.322-0.322,0.483-0.806,0.483-1.37c0-0.565-0.162-1.049-0.483-1.372
		c-0.323-0.322-0.726-0.484-1.21-0.484c-0.323,0-0.564,0.082-0.887,0.243c-0.242,0.079-0.403,0.321-0.564,0.564l-0.968-0.162
		l0.807-4.113h4.032v0.968h-3.226l-0.483,2.098c0.483-0.323,1.048-0.484,1.532-0.484c0.726,0,1.29,0.242,1.774,0.726
		c0.484,0.483,0.726,1.13,0.726,1.855c0,0.727-0.161,1.371-0.645,1.937c-0.484,0.644-1.21,0.967-2.097,0.967
		c-0.726,0-1.29-0.242-1.774-0.646C153.153,214.815,152.911,214.25,152.83,213.605z"/>
	<path d="M160.653,207.557c0.565,0,0.968,0.161,1.291,0.564c0.322,0.322,0.483,0.887,0.483,1.451c0,0.646-0.161,1.21-0.483,1.532
		c-0.323,0.404-0.726,0.564-1.291,0.564l0,0v-0.726l0,0c0.323,0,0.565-0.08,0.726-0.322s0.242-0.565,0.242-1.049
		c0-0.402-0.081-0.726-0.242-0.968s-0.403-0.322-0.726-0.322l0,0V207.557L160.653,207.557z M160.653,211.669
		c-0.483,0-0.967-0.16-1.29-0.564c-0.323-0.322-0.484-0.806-0.484-1.451s0.161-1.21,0.484-1.532c0.323-0.403,0.807-0.564,1.29-0.564
		v0.726c-0.322,0-0.564,0.08-0.726,0.322c-0.162,0.161-0.242,0.565-0.242,0.968c0,0.483,0.08,0.807,0.242,1.049
		c0.242,0.242,0.404,0.322,0.726,0.322V211.669z"/>
	<path d="M237.753,65.937l-3.063-8.064h1.129l2.097,5.887c0.161,0.403,0.322,0.887,0.403,1.29c0.161-0.483,0.242-0.887,0.403-1.29
		l2.178-5.887h1.129l-3.146,8.064H237.753z"/>
	<path d="M245.818,65.21c-0.402,0.323-0.726,0.484-1.048,0.646c-0.162,0.081-0.403,0.081-0.564,0.162v-0.726
		c0.241-0.081,0.483-0.161,0.727-0.242c0.24-0.161,0.483-0.403,0.646-0.726c0.079-0.242,0.16-0.564,0.16-0.968v-0.323
		c-0.403,0.081-0.887,0.242-1.532,0.323v-0.807c0.646-0.081,1.21-0.242,1.532-0.323c0-0.161,0-0.242,0-0.242
		c0-0.403-0.081-0.726-0.322-0.887c-0.243-0.161-0.564-0.323-1.129-0.323h-0.081v-0.806c0.081,0,0.161,0,0.241,0
		c0.485,0,0.888,0.081,1.21,0.162c0.323,0.161,0.564,0.322,0.726,0.483c0.081,0.161,0.243,0.403,0.243,0.646
		c0.08,0.161,0.08,0.484,0.08,0.887v1.372c0,0.887,0,1.451,0.08,1.693c0,0.243,0.081,0.484,0.242,0.726h-1.048
		C245.899,65.695,245.818,65.453,245.818,65.21z M244.206,66.018c-0.162,0-0.323,0-0.564,0c-0.646,0-1.129-0.162-1.453-0.403
		c-0.321-0.323-0.483-0.726-0.483-1.21c0-0.322,0-0.564,0.162-0.807c0.161-0.242,0.321-0.403,0.483-0.564
		c0.242-0.161,0.484-0.242,0.727-0.323c0.161-0.08,0.483-0.08,0.887-0.161h0.242v0.807h-0.081c-0.403,0.081-0.726,0.162-0.887,0.242
		c-0.161,0.081-0.323,0.162-0.403,0.323c-0.081,0.081-0.081,0.242-0.081,0.403c0,0.322,0.081,0.484,0.242,0.726
		c0.242,0.161,0.483,0.242,0.887,0.242c0.081,0,0.242,0,0.323,0V66.018L244.206,66.018z M244.206,60.775
		c-0.403,0-0.727,0.081-0.888,0.242c-0.241,0.162-0.403,0.484-0.483,0.887l-0.968-0.161c0.081-0.404,0.242-0.726,0.403-0.968
		c0.242-0.242,0.483-0.483,0.887-0.564c0.322-0.161,0.646-0.242,1.049-0.242V60.775z"/>
	<path d="M250.496,67.469c0.404,0,0.646-0.08,0.888-0.322c0.242-0.162,0.402-0.403,0.483-0.726c0.081-0.242,0.081-0.645,0.081-1.29
		c-0.403,0.484-0.887,0.726-1.452,0.806V65.13c0.404,0,0.807-0.242,1.13-0.564c0.241-0.323,0.403-0.887,0.403-1.613
		c0-0.727-0.162-1.291-0.484-1.614c-0.242-0.403-0.645-0.564-1.049-0.564v-0.806c0.646,0,1.13,0.323,1.533,0.806V60.13h0.967v5
		c0,0.887-0.08,1.532-0.322,1.936c-0.161,0.323-0.483,0.646-0.888,0.887c-0.321,0.161-0.806,0.323-1.29,0.323V67.469z
		 M248.077,66.42l0.968,0.081c0,0.323,0.081,0.564,0.323,0.645c0.24,0.242,0.563,0.322,0.967,0.322c0.081,0,0.081,0,0.161,0v0.807
		h-0.161c-0.645,0-1.209-0.162-1.693-0.484C248.238,67.469,248.077,66.985,248.077,66.42L248.077,66.42z M250.496,65.937h-0.161
		c-0.807,0-1.371-0.322-1.854-0.887c-0.403-0.564-0.646-1.29-0.646-2.096c0-0.565,0.162-1.049,0.323-1.533
		c0.162-0.484,0.484-0.807,0.888-1.048s0.807-0.403,1.29-0.403h0.161v0.806h-0.08c-0.402,0-0.808,0.162-1.048,0.564
		c-0.323,0.323-0.484,0.887-0.484,1.533c0,0.807,0.161,1.371,0.403,1.694c0.321,0.323,0.727,0.564,1.209,0.564l0,0V65.937z"/>
	<path d="M254.448,59.001v-1.129h0.968v1.129H254.448L254.448,59.001z M254.448,65.937V60.13h0.968v5.806H254.448z"/>
	<path d="M256.948,65.937V60.13h0.888v0.806c0.402-0.645,1.048-0.968,1.854-0.968c0.323,0,0.646,0.081,0.97,0.162
		c0.322,0.161,0.483,0.322,0.644,0.564c0.162,0.161,0.243,0.403,0.323,0.726c0,0.161,0.081,0.484,0.081,0.887v3.629h-1.048v-3.549
		c0-0.403,0-0.726-0.082-0.887c-0.08-0.242-0.241-0.403-0.402-0.484c-0.242-0.161-0.403-0.161-0.726-0.161
		c-0.403,0-0.727,0.081-1.049,0.403c-0.323,0.242-0.485,0.726-0.485,1.451v3.226H256.948z"/>
	<path d="M266.948,65.21c-0.322,0.323-0.726,0.484-1.048,0.646c-0.16,0.081-0.322,0.081-0.484,0.162v-0.726
		c0.242-0.081,0.484-0.161,0.646-0.242c0.323-0.161,0.564-0.403,0.646-0.726c0.162-0.242,0.162-0.564,0.162-0.968v-0.323
		c-0.324,0.081-0.808,0.242-1.453,0.323v-0.807c0.646-0.081,1.129-0.242,1.453-0.323c0-0.161,0-0.242,0-0.242
		c0-0.403-0.081-0.726-0.243-0.887c-0.241-0.161-0.646-0.323-1.129-0.323h-0.081v-0.806c0.081,0,0.162,0,0.242,0
		c0.484,0,0.887,0.081,1.211,0.162c0.321,0.161,0.483,0.322,0.646,0.483c0.16,0.161,0.24,0.403,0.321,0.646
		c0,0.161,0.081,0.484,0.081,0.887v1.372c0,0.887,0,1.451,0,1.693c0.08,0.243,0.162,0.484,0.241,0.726h-0.968
		C267.029,65.695,267.029,65.453,266.948,65.21z M265.416,66.018c-0.241,0-0.402,0-0.564,0c-0.646,0-1.129-0.162-1.451-0.403
		c-0.402-0.323-0.564-0.726-0.564-1.21c0-0.322,0.081-0.564,0.241-0.807c0.081-0.242,0.242-0.403,0.485-0.564
		c0.16-0.161,0.402-0.242,0.725-0.323c0.162-0.08,0.483-0.08,0.808-0.161h0.321v0.807h-0.16c-0.404,0.081-0.646,0.162-0.807,0.242
		c-0.162,0.081-0.322,0.162-0.403,0.323c-0.081,0.081-0.162,0.242-0.162,0.403c0,0.322,0.081,0.484,0.322,0.726
		c0.162,0.161,0.485,0.242,0.889,0.242c0.08,0,0.161,0,0.321,0V66.018L265.416,66.018z M265.416,60.775
		c-0.402,0-0.725,0.081-0.967,0.242c-0.162,0.162-0.322,0.484-0.484,0.887l-0.967-0.161c0.079-0.404,0.241-0.726,0.483-0.968
		c0.16-0.242,0.483-0.483,0.806-0.564c0.323-0.161,0.727-0.242,1.129-0.242V60.775z"/>
	<path d="M235.092,88.921l1.049-0.161c0,0.403,0.161,0.806,0.323,1.048c0.161,0.242,0.402,0.404,0.807,0.565
		c0.322,0.162,0.806,0.242,1.209,0.242s0.808,0,1.13-0.161c0.241-0.081,0.483-0.242,0.645-0.484c0.16-0.242,0.243-0.403,0.243-0.726
		c0-0.242-0.083-0.403-0.243-0.645c-0.161-0.162-0.403-0.323-0.727-0.484c-0.161-0.081-0.645-0.161-1.37-0.323
		c-0.807-0.242-1.291-0.403-1.613-0.564c-0.322-0.161-0.645-0.403-0.807-0.726c-0.241-0.323-0.323-0.646-0.323-0.968
		c0-0.403,0.162-0.806,0.404-1.129c0.16-0.403,0.564-0.645,0.968-0.807c0.402-0.161,0.967-0.323,1.451-0.323
		c0.646,0,1.129,0.162,1.613,0.323c0.403,0.162,0.807,0.484,1.049,0.807c0.241,0.403,0.322,0.806,0.403,1.291l-1.049,0.081
		c-0.08-0.484-0.242-0.887-0.564-1.13c-0.323-0.242-0.807-0.403-1.371-0.403c-0.646,0-1.13,0.081-1.452,0.323
		c-0.241,0.242-0.402,0.564-0.402,0.887c0,0.242,0.08,0.484,0.322,0.726c0.161,0.162,0.726,0.323,1.613,0.564
		c0.807,0.161,1.451,0.323,1.774,0.484c0.402,0.242,0.807,0.484,0.967,0.806c0.243,0.323,0.404,0.727,0.404,1.129
		c0,0.484-0.161,0.887-0.404,1.21c-0.241,0.403-0.564,0.726-1.048,0.887c-0.483,0.242-0.968,0.322-1.532,0.322
		c-0.726,0-1.372-0.081-1.855-0.322c-0.483-0.161-0.887-0.484-1.129-0.968C235.254,89.89,235.173,89.406,235.092,88.921z"/>
	<path d="M246.626,89.325l0.967,0.161c-0.08,0.645-0.402,1.129-0.807,1.532c-0.403,0.404-0.968,0.564-1.613,0.564
		c-0.806,0-1.451-0.242-1.935-0.806c-0.484-0.484-0.726-1.21-0.726-2.177c0-0.646,0.161-1.21,0.322-1.694
		c0.242-0.484,0.564-0.807,0.968-1.048s0.887-0.323,1.37-0.323c0.646,0,1.13,0.162,1.533,0.484s0.646,0.726,0.807,1.371l-0.968,0.08
		c-0.081-0.322-0.242-0.645-0.485-0.806c-0.241-0.242-0.481-0.322-0.806-0.322c-0.564,0-0.967,0.161-1.21,0.484
		c-0.322,0.403-0.483,0.967-0.483,1.693c0,0.807,0.161,1.371,0.403,1.774c0.323,0.323,0.726,0.484,1.209,0.484
		c0.405,0,0.727-0.081,0.969-0.323C246.383,90.212,246.545,89.809,246.626,89.325z"/>
	<path d="M248.48,84.567v-1.129h0.968v1.129H248.48L248.48,84.567z M248.48,91.422v-5.807h0.968v5.807H248.48z"/>
	<path d="M250.496,89.728l0.969-0.161c0.08,0.403,0.24,0.726,0.483,0.887c0.242,0.242,0.646,0.323,1.048,0.323
		c0.484,0,0.807-0.081,1.049-0.242c0.161-0.243,0.323-0.404,0.323-0.646s-0.162-0.403-0.323-0.564
		c-0.161-0.081-0.484-0.162-0.968-0.323c-0.726-0.161-1.291-0.323-1.532-0.484c-0.242-0.162-0.483-0.323-0.645-0.564
		c-0.162-0.242-0.243-0.484-0.243-0.726c0-0.323,0.081-0.564,0.243-0.726c0.08-0.242,0.242-0.404,0.483-0.564
		c0.161-0.161,0.321-0.242,0.564-0.323c0.321-0.081,0.564-0.081,0.888-0.081c0.483,0,0.887,0.081,1.209,0.162
		c0.323,0.161,0.564,0.323,0.726,0.564c0.162,0.242,0.323,0.484,0.403,0.887l-0.968,0.161c-0.081-0.322-0.241-0.564-0.403-0.726
		c-0.242-0.162-0.483-0.242-0.887-0.242c-0.484,0-0.807,0.08-0.968,0.242c-0.243,0.161-0.322,0.322-0.322,0.484
		c0,0.161,0.079,0.242,0.16,0.323c0.081,0.161,0.162,0.242,0.323,0.323c0.16,0,0.403,0.08,0.887,0.242
		c0.727,0.161,1.21,0.323,1.452,0.403c0.322,0.162,0.484,0.323,0.646,0.564c0.16,0.242,0.241,0.484,0.241,0.807
		c0,0.323-0.081,0.646-0.241,0.968c-0.242,0.242-0.484,0.484-0.888,0.646c-0.322,0.161-0.726,0.242-1.21,0.242
		c-0.727,0-1.291-0.161-1.693-0.483S250.657,90.374,250.496,89.728z"/>
	<path d="M256.142,89.728l0.968-0.161c0.081,0.403,0.241,0.726,0.484,0.887c0.242,0.242,0.564,0.323,1.048,0.323
		c0.404,0,0.727-0.081,0.969-0.242c0.241-0.243,0.322-0.404,0.322-0.646s-0.081-0.403-0.243-0.564
		c-0.16-0.081-0.482-0.162-1.048-0.323c-0.727-0.161-1.209-0.323-1.532-0.484c-0.242-0.162-0.483-0.323-0.564-0.564
		c-0.161-0.242-0.242-0.484-0.242-0.726c0-0.323,0.081-0.564,0.161-0.726c0.162-0.242,0.324-0.404,0.484-0.564
		c0.161-0.161,0.402-0.242,0.646-0.323c0.242-0.081,0.564-0.081,0.807-0.081c0.483,0,0.887,0.081,1.21,0.162
		c0.402,0.161,0.645,0.323,0.806,0.564c0.161,0.242,0.243,0.484,0.322,0.887l-0.967,0.161c-0.082-0.322-0.161-0.564-0.403-0.726
		c-0.161-0.162-0.484-0.242-0.887-0.242c-0.404,0-0.727,0.08-0.969,0.242c-0.162,0.161-0.241,0.322-0.241,0.484
		c0,0.161,0,0.242,0.079,0.323c0.082,0.161,0.243,0.242,0.404,0.323c0.081,0,0.403,0.08,0.887,0.242
		c0.646,0.161,1.13,0.323,1.453,0.403c0.241,0.162,0.482,0.323,0.644,0.564c0.162,0.242,0.243,0.484,0.243,0.807
		c0,0.323-0.162,0.646-0.322,0.968c-0.162,0.242-0.484,0.484-0.808,0.646c-0.402,0.161-0.806,0.242-1.21,0.242
		c-0.806,0-1.37-0.161-1.774-0.483C256.464,90.777,256.224,90.374,256.142,89.728z"/>
	<path d="M264.449,85.534L264.449,85.534c0.807,0,1.451,0.243,2.016,0.807c0.483,0.484,0.726,1.209,0.726,2.097
		c0,0.806-0.081,1.371-0.321,1.774c-0.243,0.483-0.565,0.806-0.969,1.048c-0.403,0.242-0.887,0.322-1.451,0.322l0,0v-0.806l0,0
		c0.483,0,0.967-0.162,1.291-0.564c0.321-0.323,0.482-0.887,0.482-1.694c0-0.726-0.161-1.291-0.482-1.613
		c-0.405-0.403-0.808-0.564-1.291-0.564l0,0V85.534z M261.787,88.519c0-1.049,0.242-1.855,0.888-2.339
		c0.483-0.403,1.048-0.646,1.774-0.646v0.807c-0.484,0-0.887,0.161-1.21,0.564c-0.322,0.323-0.484,0.887-0.484,1.613
		c0,0.807,0.162,1.371,0.484,1.694c0.323,0.403,0.726,0.564,1.21,0.564v0.806c-0.808,0-1.451-0.242-1.937-0.806
		C262.029,90.292,261.787,89.567,261.787,88.519z"/>
	<path d="M268.319,91.422v-5.807h0.888v0.887c0.242-0.404,0.484-0.646,0.646-0.807c0.161-0.081,0.403-0.162,0.645-0.162
		c0.323,0,0.646,0.081,0.968,0.323l-0.322,0.887c-0.242-0.161-0.484-0.242-0.726-0.242c-0.161,0-0.403,0.081-0.564,0.242
		c-0.161,0.081-0.322,0.323-0.322,0.564c-0.162,0.323-0.162,0.726-0.162,1.129v2.984H268.319z"/>
	<path d="M271.707,89.728l0.968-0.161c0.081,0.403,0.161,0.726,0.483,0.887c0.242,0.242,0.564,0.323,1.05,0.323
		c0.402,0,0.725-0.081,0.968-0.242c0.24-0.243,0.321-0.404,0.321-0.646s-0.081-0.403-0.321-0.564
		c-0.081-0.081-0.403-0.162-0.968-0.323c-0.727-0.161-1.21-0.323-1.533-0.484c-0.242-0.162-0.483-0.323-0.564-0.564
		c-0.161-0.242-0.242-0.484-0.242-0.726c0-0.323,0.081-0.564,0.161-0.726c0.162-0.242,0.323-0.404,0.485-0.564
		c0.16-0.161,0.402-0.242,0.644-0.323c0.242-0.081,0.564-0.081,0.807-0.081c0.484,0,0.887,0.081,1.211,0.162
		c0.402,0.161,0.646,0.323,0.807,0.564c0.16,0.242,0.241,0.484,0.321,0.887l-0.967,0.161c-0.081-0.322-0.161-0.564-0.404-0.726
		c-0.16-0.162-0.483-0.242-0.887-0.242c-0.402,0-0.726,0.08-0.967,0.242c-0.162,0.161-0.243,0.322-0.243,0.484
		c0,0.161,0,0.242,0.081,0.323c0.081,0.161,0.241,0.242,0.403,0.323c0.08,0,0.402,0.08,0.888,0.242
		c0.644,0.161,1.129,0.323,1.451,0.403c0.242,0.162,0.483,0.323,0.645,0.564c0.162,0.242,0.243,0.484,0.243,0.807
		c0,0.323-0.162,0.646-0.323,0.968c-0.162,0.242-0.484,0.484-0.808,0.646c-0.402,0.161-0.806,0.242-1.208,0.242
		c-0.808,0-1.372-0.161-1.775-0.483S271.788,90.374,271.707,89.728z"/>
	<rect x="235.657" y="144.65" width="1.048" height="8.065"/>
	<path d="M238.479,152.715v-5.807h0.887v0.807c0.404-0.646,1.048-0.969,1.855-0.969c0.323,0,0.646,0.081,0.967,0.162
		c0.243,0.161,0.485,0.323,0.646,0.564c0.161,0.161,0.242,0.402,0.322,0.727c0,0.161,0,0.483,0,0.886v3.63h-0.969v-3.549
		c0-0.402,0-0.727-0.079-0.887c-0.081-0.242-0.242-0.404-0.404-0.483c-0.241-0.162-0.402-0.162-0.725-0.162
		c-0.404,0-0.727,0.081-1.048,0.403c-0.323,0.242-0.485,0.727-0.485,1.452v3.226H238.479z"/>
	<path d="M248.48,152.715v-0.727c-0.323,0.564-0.888,0.808-1.533,0.808v-0.808l0,0c0.404,0,0.808-0.16,1.13-0.483
		c0.242-0.403,0.403-0.887,0.403-1.613c0-0.807-0.161-1.371-0.484-1.774c-0.241-0.321-0.645-0.564-1.049-0.564v-0.807
		c0.243,0,0.565,0.081,0.808,0.242c0.241,0.162,0.483,0.322,0.645,0.564v-2.903h0.969v8.065H248.48z M246.947,152.796h-0.08
		c-0.484,0-0.887-0.081-1.289-0.323c-0.405-0.322-0.727-0.645-0.889-1.13c-0.242-0.402-0.322-0.967-0.322-1.531
		s0.08-1.129,0.241-1.612c0.243-0.484,0.484-0.808,0.887-1.049c0.404-0.242,0.808-0.404,1.291-0.404c0.081,0,0.081,0,0.161,0v0.807
		h-0.08c-0.403,0-0.808,0.162-1.049,0.564c-0.323,0.322-0.483,0.887-0.483,1.694c0,0.727,0.16,1.29,0.483,1.612
		c0.323,0.404,0.727,0.564,1.129,0.564V152.796z"/>
	<path d="M254.933,150.861l0.967,0.08c-0.161,0.564-0.402,1.048-0.886,1.372c-0.404,0.322-0.969,0.483-1.613,0.483h-0.081v-0.808
		h0.081c0.322,0,0.645-0.08,0.887-0.24C254.529,151.505,254.771,151.264,254.933,150.861L254.933,150.861z M253.319,146.747
		L253.319,146.747c0.806,0,1.451,0.242,1.935,0.807c0.484,0.484,0.727,1.291,0.727,2.259c0,0,0,0.08,0,0.242h-2.661v-0.807h1.613
		c-0.081-0.483-0.162-0.887-0.403-1.13c-0.323-0.402-0.727-0.564-1.21-0.564l0,0V146.747z M253.319,152.796
		c-0.807,0-1.452-0.243-1.936-0.727c-0.564-0.564-0.806-1.291-0.806-2.258c0-0.968,0.322-1.694,0.806-2.259s1.129-0.807,1.936-0.807
		v0.807c-0.483,0-0.807,0.162-1.129,0.484c-0.323,0.323-0.485,0.727-0.485,1.21h1.614v0.807h-1.693c0,0.646,0.241,1.129,0.564,1.451
		c0.322,0.323,0.646,0.483,1.129,0.483V152.796z"/>
	<path d="M256.545,152.715l2.097-3.065l-1.935-2.741h1.208l0.888,1.371c0.162,0.241,0.323,0.484,0.404,0.646
		c0.161-0.242,0.322-0.485,0.403-0.646l0.967-1.371h1.21l-2.016,2.741l2.177,3.065h-1.21l-1.209-1.854l-0.322-0.484l-1.533,2.339
		H256.545z"/>
	<path d="M269.691,151.989c-0.403,0.324-0.727,0.484-1.048,0.646c-0.162,0.08-0.404,0.08-0.564,0.161v-0.727
		c0.24-0.081,0.483-0.161,0.725-0.241c0.242-0.161,0.484-0.404,0.646-0.727c0.081-0.161,0.161-0.563,0.161-0.967v-0.323
		c-0.403,0.08-0.888,0.242-1.531,0.323v-0.808c0.644-0.08,1.209-0.242,1.531-0.323c0-0.16,0-0.24,0-0.24
		c0-0.403-0.08-0.727-0.322-0.889c-0.242-0.16-0.565-0.322-1.13-0.322h-0.079v-0.807c0.079,0,0.16,0,0.24,0
		c0.484,0,0.888,0.081,1.211,0.162c0.322,0.161,0.563,0.323,0.726,0.483c0.08,0.161,0.241,0.404,0.241,0.646
		c0.081,0.162,0.081,0.483,0.081,0.888v1.37c0,0.888,0,1.453,0.08,1.693c0,0.243,0.082,0.484,0.242,0.727h-1.048
		C269.771,152.473,269.691,152.232,269.691,151.989z M268.079,152.796c-0.162,0-0.324,0-0.564,0c-0.646,0-1.13-0.161-1.453-0.404
		c-0.321-0.322-0.483-0.725-0.483-1.209c0-0.322,0-0.564,0.162-0.807c0.16-0.241,0.321-0.402,0.482-0.564
		c0.242-0.162,0.484-0.243,0.726-0.322c0.161-0.081,0.484-0.081,0.888-0.162h0.243v0.808h-0.082
		c-0.403,0.079-0.726,0.16-0.888,0.241c-0.161,0.08-0.321,0.162-0.402,0.323c-0.081,0.079-0.081,0.241-0.081,0.402
		c0,0.322,0.081,0.484,0.243,0.727c0.24,0.16,0.483,0.241,0.886,0.241c0.162,0,0.242,0,0.324,0V152.796L268.079,152.796z
		 M268.079,147.553c-0.404,0-0.727,0.081-0.889,0.243c-0.242,0.16-0.402,0.483-0.483,0.887l-0.967-0.162
		c0.08-0.403,0.24-0.725,0.402-0.968c0.242-0.242,0.483-0.483,0.887-0.564c0.323-0.161,0.646-0.242,1.05-0.242V147.553z"/>
	<path d="M272.11,152.715v-5.807h0.888v0.807c0.402-0.646,1.048-0.969,1.854-0.969c0.324,0,0.646,0.081,0.97,0.162
		c0.24,0.161,0.482,0.323,0.645,0.564c0.16,0.161,0.241,0.402,0.322,0.727c0,0.161,0,0.483,0,0.886v3.63h-0.967v-3.549
		c0-0.402,0-0.727-0.082-0.887c-0.08-0.242-0.242-0.404-0.402-0.483c-0.242-0.162-0.404-0.162-0.727-0.162
		c-0.402,0-0.726,0.081-1.048,0.403c-0.323,0.242-0.483,0.727-0.483,1.452v3.226H272.11z"/>
	<path d="M282.111,152.715v-0.727c-0.323,0.564-0.888,0.808-1.533,0.808v-0.808l0,0c0.404,0,0.808-0.16,1.13-0.483
		c0.241-0.403,0.403-0.887,0.403-1.613c0-0.807-0.162-1.371-0.484-1.774c-0.241-0.321-0.645-0.564-1.049-0.564v-0.807
		c0.243,0,0.565,0.081,0.808,0.242c0.241,0.162,0.483,0.322,0.645,0.564v-2.903h0.968v8.065H282.111z M280.578,152.796h-0.08
		c-0.484,0-0.887-0.081-1.29-0.323c-0.404-0.322-0.727-0.645-0.888-1.13c-0.242-0.402-0.322-0.967-0.322-1.531
		s0.08-1.129,0.241-1.612c0.242-0.484,0.485-0.808,0.888-1.049c0.403-0.242,0.807-0.404,1.291-0.404c0.08,0,0.08,0,0.16,0v0.807
		h-0.08c-0.403,0-0.807,0.162-1.049,0.564c-0.322,0.322-0.484,0.887-0.484,1.694c0,0.727,0.162,1.29,0.484,1.612
		c0.323,0.404,0.726,0.564,1.129,0.564V152.796z"/>
	<path d="M287.677,152.715v-5.807h0.886v0.807c0.162-0.323,0.403-0.564,0.727-0.727c0.322-0.161,0.645-0.242,1.049-0.242
		c0.402,0,0.807,0.081,1.048,0.242c0.242,0.243,0.483,0.484,0.564,0.808c0.483-0.727,1.048-1.05,1.774-1.05
		c0.646,0,1.048,0.162,1.371,0.485c0.322,0.321,0.483,0.806,0.483,1.451v4.032h-1.048v-3.711c0-0.402,0-0.644-0.081-0.805
		c-0.08-0.162-0.161-0.324-0.323-0.403c-0.16-0.162-0.402-0.162-0.564-0.162c-0.402,0-0.806,0.081-1.048,0.403
		c-0.241,0.242-0.403,0.646-0.403,1.29v3.388h-0.967v-3.79c0-0.404-0.081-0.808-0.242-0.969c-0.162-0.241-0.403-0.322-0.808-0.322
		c-0.241,0-0.564,0.081-0.725,0.162c-0.243,0.16-0.404,0.403-0.564,0.644c-0.081,0.324-0.162,0.727-0.162,1.21v3.065H287.677z"/>
	<path d="M297.031,145.78v-1.13h0.968v1.13H297.031L297.031,145.78z M297.031,152.715v-5.807h0.968v5.807H297.031z"/>
	<path d="M303.241,152.715v-0.727c-0.322,0.564-0.806,0.808-1.532,0.808v-0.808l0,0c0.483,0,0.806-0.16,1.129-0.483
		c0.322-0.403,0.484-0.887,0.484-1.613c0-0.807-0.162-1.371-0.484-1.774c-0.323-0.321-0.646-0.564-1.129-0.564v-0.807
		c0.322,0,0.564,0.081,0.806,0.242c0.323,0.162,0.485,0.322,0.727,0.564v-2.903h0.967v8.065H303.241z M301.709,152.796h-0.081
		c-0.483,0-0.888-0.081-1.291-0.323c-0.322-0.322-0.645-0.645-0.886-1.13c-0.243-0.402-0.324-0.967-0.324-1.531
		s0.081-1.129,0.324-1.612c0.16-0.484,0.483-0.808,0.886-1.049c0.324-0.242,0.808-0.404,1.291-0.404h0.081v0.807l0,0
		c-0.483,0-0.808,0.162-1.129,0.564c-0.243,0.322-0.404,0.887-0.404,1.694c0,0.727,0.161,1.29,0.485,1.612
		c0.24,0.404,0.646,0.564,1.048,0.564V152.796z"/>
	<path d="M309.532,152.715v-0.727c-0.403,0.564-0.889,0.808-1.613,0.808v-0.808H308c0.403,0,0.725-0.16,1.048-0.483
		c0.322-0.403,0.484-0.887,0.484-1.613c0-0.807-0.162-1.371-0.484-1.774c-0.323-0.321-0.645-0.564-1.129-0.564v-0.807
		c0.322,0,0.564,0.081,0.806,0.242c0.323,0.162,0.564,0.322,0.727,0.564v-2.903h0.967v8.065H309.532z M307.919,152.796h-0.08
		c-0.404,0-0.889-0.081-1.211-0.323c-0.402-0.322-0.726-0.645-0.968-1.13c-0.161-0.402-0.322-0.967-0.322-1.531
		s0.161-1.129,0.322-1.612c0.162-0.484,0.484-0.808,0.887-1.049c0.403-0.242,0.808-0.404,1.292-0.404h0.08v0.807l0,0
		c-0.404,0-0.807,0.162-1.129,0.564c-0.243,0.322-0.404,0.887-0.404,1.694c0,0.727,0.161,1.29,0.484,1.612
		c0.323,0.404,0.645,0.564,1.049,0.564V152.796z"/>
	<rect x="311.952" y="144.65" width="0.967" height="8.065"/>
	<path d="M318.402,150.861l1.049,0.08c-0.162,0.564-0.483,1.048-0.887,1.372c-0.483,0.322-0.968,0.483-1.693,0.483h-0.081v-0.808
		h0.081c0.403,0,0.726-0.08,0.967-0.24C318.081,151.505,318.241,151.264,318.402,150.861L318.402,150.861z M316.79,146.747h0.081
		c0.726,0,1.37,0.242,1.854,0.807c0.485,0.484,0.727,1.291,0.727,2.259c0,0,0,0.08,0,0.242h-2.661v-0.807h1.612
		c0-0.483-0.161-0.887-0.321-1.13c-0.323-0.402-0.727-0.564-1.21-0.564h-0.081V146.747z M316.79,152.796
		c-0.806,0-1.451-0.243-1.935-0.727c-0.485-0.564-0.727-1.291-0.727-2.258c0-0.968,0.241-1.694,0.727-2.259
		c0.483-0.564,1.129-0.807,1.935-0.807v0.807c-0.403,0-0.806,0.162-1.049,0.484c-0.321,0.323-0.483,0.727-0.564,1.21h1.613v0.807
		h-1.693c0.08,0.646,0.242,1.129,0.564,1.451c0.323,0.323,0.726,0.483,1.129,0.483V152.796z"/>
	<path d="M235.576,165.216v-5.081h-0.806v-0.727h0.806v-0.645c0-0.403,0.081-0.646,0.161-0.887c0.081-0.243,0.241-0.404,0.484-0.564
		c0.242-0.162,0.564-0.243,0.967-0.243c0.323,0,0.564,0,0.969,0.081l-0.161,0.887c-0.243-0.08-0.403-0.08-0.564-0.08
		c-0.323,0-0.565,0.08-0.646,0.161c-0.161,0.162-0.242,0.403-0.242,0.727v0.563h1.129v0.727h-1.129v5.081H235.576z"/>
	<path d="M238.479,158.361v-1.21h0.968v1.21H238.479L238.479,158.361z M238.479,165.216v-5.808h0.968v5.808H238.479z"/>
	<path d="M240.98,165.216v-5.808h0.887v0.808c0.403-0.646,1.048-0.969,1.854-0.969c0.322,0,0.646,0.081,0.968,0.242
		c0.243,0.081,0.483,0.241,0.646,0.483c0.16,0.162,0.243,0.403,0.322,0.727c0,0.16,0,0.483,0,0.968v3.549h-0.968v-3.549
		c0-0.403,0-0.726-0.081-0.887c-0.08-0.243-0.241-0.323-0.402-0.485c-0.242-0.079-0.484-0.16-0.727-0.16
		c-0.402,0-0.806,0.081-1.048,0.402c-0.322,0.243-0.483,0.727-0.483,1.532v3.146H240.98z"/>
	<path d="M249.448,166.749c0.403,0,0.726-0.081,0.887-0.241c0.243-0.243,0.403-0.485,0.565-0.808c0-0.161,0-0.645,0-1.29
		c-0.404,0.483-0.887,0.807-1.452,0.807v-0.807c0.403,0,0.807-0.162,1.13-0.565c0.322-0.321,0.402-0.886,0.402-1.612
		s-0.08-1.21-0.402-1.612c-0.323-0.324-0.727-0.564-1.13-0.564v-0.808c0.645,0.081,1.13,0.323,1.613,0.888v-0.727h0.887v5.001
		c0,0.888-0.081,1.533-0.322,1.936c-0.161,0.403-0.404,0.646-0.807,0.887c-0.403,0.242-0.888,0.323-1.371,0.323V166.749z
		 M247.028,165.7l0.968,0.162c0,0.241,0.161,0.483,0.323,0.646c0.241,0.16,0.564,0.241,0.968,0.241c0.081,0,0.081,0,0.161,0v0.807
		h-0.161c-0.646,0-1.21-0.161-1.694-0.484C247.19,166.749,247.028,166.345,247.028,165.7L247.028,165.7z M249.448,165.216
		c-0.08,0-0.08,0-0.08,0c-0.808,0-1.452-0.323-1.855-0.888c-0.484-0.564-0.727-1.29-0.727-2.097c0-0.483,0.161-1.049,0.323-1.532
		c0.242-0.404,0.483-0.807,0.887-1.049s0.807-0.403,1.372-0.403h0.08v0.808h-0.08c-0.404,0-0.808,0.24-1.049,0.564
		c-0.323,0.322-0.485,0.886-0.485,1.612s0.162,1.291,0.485,1.612c0.241,0.403,0.645,0.565,1.129,0.565l0,0V165.216z"/>
	<path d="M257.433,163.361l0.968,0.081c-0.162,0.646-0.403,1.049-0.888,1.37c-0.403,0.323-0.968,0.566-1.613,0.566h-0.08v-0.888
		l0.08,0.08c0.324,0,0.646-0.161,0.889-0.323C257.028,164.087,257.271,163.764,257.433,163.361L257.433,163.361z M255.819,159.248
		L255.819,159.248c0.807,0,1.371,0.323,1.854,0.808c0.564,0.564,0.808,1.29,0.808,2.258c0,0,0,0.161,0,0.241h-2.662v-0.806h1.613
		c-0.082-0.484-0.161-0.889-0.404-1.129c-0.321-0.324-0.726-0.564-1.209-0.564l0,0V159.248z M255.819,165.378
		c-0.806-0.081-1.532-0.323-2.017-0.808c-0.483-0.564-0.726-1.29-0.726-2.177c0-1.049,0.242-1.774,0.807-2.339
		c0.484-0.484,1.13-0.808,1.936-0.808v0.808c-0.484,0-0.806,0.161-1.13,0.482c-0.321,0.322-0.483,0.727-0.483,1.211h1.613v0.806
		h-1.694c0,0.645,0.243,1.129,0.564,1.452c0.243,0.322,0.646,0.484,1.13,0.484V165.378z"/>
	<path d="M259.61,165.216v-5.808h0.887v0.887c0.241-0.402,0.484-0.725,0.646-0.806c0.241-0.161,0.403-0.242,0.645-0.242
		c0.323,0,0.646,0.161,1.049,0.323l-0.402,0.967c-0.243-0.161-0.485-0.242-0.727-0.242c-0.161,0-0.404,0.081-0.564,0.162
		c-0.161,0.162-0.242,0.323-0.323,0.564c-0.16,0.323-0.16,0.727-0.16,1.129v3.065H259.61z"/>
	<path d="M262.998,163.442l0.967-0.081c0.081,0.322,0.241,0.646,0.484,0.887c0.242,0.162,0.564,0.323,1.048,0.323
		c0.403,0,0.726-0.161,0.968-0.323c0.242-0.16,0.323-0.403,0.323-0.644c0-0.243-0.081-0.405-0.243-0.485
		c-0.16-0.16-0.483-0.241-1.048-0.402c-0.727-0.162-1.21-0.322-1.532-0.403c-0.242-0.162-0.483-0.322-0.564-0.564
		c-0.161-0.243-0.242-0.484-0.242-0.807c0-0.242,0.081-0.484,0.161-0.726c0.162-0.243,0.322-0.404,0.484-0.565
		c0.161-0.08,0.402-0.161,0.646-0.242c0.242-0.08,0.564-0.161,0.807-0.161c0.484,0,0.887,0.081,1.209,0.242
		c0.404,0.081,0.645,0.322,0.807,0.483c0.161,0.243,0.243,0.564,0.322,0.887l-0.968,0.162c0-0.322-0.161-0.484-0.403-0.727
		c-0.161-0.16-0.482-0.24-0.888-0.24c-0.402,0-0.725,0.08-0.967,0.24c-0.162,0.162-0.241,0.324-0.241,0.564
		c0,0.082,0,0.243,0.079,0.323c0.081,0.081,0.243,0.162,0.404,0.241c0.081,0.081,0.403,0.162,0.887,0.243
		c0.646,0.242,1.129,0.323,1.451,0.483c0.242,0.081,0.484,0.323,0.646,0.483c0.161,0.243,0.242,0.564,0.242,0.889
		c0,0.321-0.081,0.646-0.321,0.887c-0.162,0.323-0.485,0.563-0.808,0.726c-0.403,0.162-0.807,0.243-1.21,0.243
		c-0.806,0-1.37-0.162-1.774-0.485C263.319,164.571,263.077,164.087,262.998,163.442z"/>
	<path d="M274.449,159.248L274.449,159.248c0.807,0,1.452,0.242,1.936,0.808c0.565,0.482,0.806,1.209,0.806,2.177
		c0,0.727-0.16,1.291-0.321,1.774c-0.243,0.403-0.565,0.727-1.048,0.967c-0.405,0.243-0.889,0.405-1.372,0.405l0,0v-0.808l0,0
		c0.483,0,0.888-0.242,1.21-0.564c0.323-0.402,0.483-0.968,0.483-1.774c0-0.646-0.16-1.21-0.483-1.612
		c-0.322-0.324-0.727-0.564-1.21-0.564l0,0V159.248z M271.707,162.313c0-1.049,0.322-1.855,0.887-2.42
		c0.564-0.403,1.129-0.646,1.855-0.646v0.808c-0.484,0-0.887,0.24-1.21,0.564c-0.322,0.402-0.483,0.967-0.483,1.693
		c0,0.726,0.161,1.291,0.483,1.693c0.323,0.322,0.726,0.484,1.21,0.564v0.808c-0.806,0-1.451-0.323-1.935-0.808
		C271.949,164.006,271.707,163.281,271.707,162.313z"/>
	<path d="M278.562,165.216v-5.081h-0.888v-0.727h0.888v-0.645c0-0.403,0-0.646,0.081-0.887c0.081-0.243,0.321-0.404,0.483-0.564
		c0.242-0.162,0.646-0.243,1.048-0.243c0.243,0,0.564,0,0.888,0.081l-0.161,0.887c-0.162-0.08-0.323-0.08-0.564-0.08
		c-0.242,0-0.485,0.08-0.646,0.161c-0.08,0.162-0.161,0.403-0.161,0.727v0.563h1.129v0.727h-1.129v5.081H278.562z"/>
	<rect x="284.53" y="157.151" width="0.968" height="8.065"/>
	<path d="M290.982,163.361l1.048,0.081c-0.161,0.646-0.483,1.049-0.886,1.37c-0.404,0.323-0.969,0.566-1.693,0.566h-0.081v-0.888
		l0.081,0.08c0.402,0,0.725-0.161,0.967-0.323C290.659,164.087,290.902,163.764,290.982,163.361L290.982,163.361z M289.37,159.248
		h0.081c0.725,0,1.369,0.323,1.854,0.808c0.484,0.564,0.726,1.29,0.726,2.258c0,0,0,0.161,0,0.241h-2.66v-0.806h1.693
		c-0.081-0.484-0.243-0.889-0.404-1.129c-0.321-0.324-0.726-0.564-1.208-0.564h-0.081V159.248z M289.37,165.378
		c-0.808-0.081-1.452-0.323-1.937-0.808c-0.483-0.564-0.727-1.29-0.727-2.177c0-1.049,0.243-1.774,0.727-2.339
		c0.564-0.484,1.21-0.808,1.937-0.808v0.808c-0.404,0-0.808,0.161-1.049,0.482c-0.323,0.322-0.484,0.727-0.564,1.211h1.613v0.806
		h-1.613c0,0.645,0.161,1.129,0.484,1.452c0.321,0.322,0.725,0.484,1.129,0.484V165.378z"/>
	<path d="M293.482,165.216v-5.081h-0.888v-0.727h0.888v-0.645c0-0.403,0.08-0.646,0.161-0.887c0.081-0.243,0.242-0.404,0.483-0.564
		c0.243-0.162,0.565-0.243,0.969-0.243c0.322,0,0.564,0,0.968,0.081l-0.162,0.887c-0.241-0.08-0.402-0.08-0.563-0.08
		c-0.323,0-0.565,0.08-0.646,0.161c-0.161,0.162-0.242,0.403-0.242,0.727v0.563h1.129v0.727h-1.129v5.081H293.482z"/>
	<path d="M298.562,164.329l0.081,0.888c-0.241,0-0.483,0.081-0.725,0.081c-0.323,0-0.646-0.081-0.807-0.162
		c-0.243-0.162-0.324-0.242-0.403-0.483c-0.081-0.161-0.162-0.564-0.162-1.129v-3.388h-0.726v-0.727h0.726v-1.451l0.968-0.564v2.016
		h1.048v0.727h-1.048v3.388c0,0.321,0.081,0.483,0.081,0.564s0.08,0.16,0.162,0.241c0.08,0,0.161,0,0.321,0
		C298.24,164.329,298.322,164.329,298.562,164.329z"/>
	<path d="M302.596,165.216v-8.065h0.969v2.904c0.483-0.484,1.048-0.808,1.773-0.808c0.403,0,0.807,0.081,1.129,0.242
		c0.323,0.241,0.564,0.403,0.646,0.727c0.161,0.321,0.242,0.726,0.242,1.289v3.711h-0.969v-3.711c0-0.483-0.16-0.806-0.321-1.048
		c-0.242-0.241-0.565-0.322-0.969-0.322c-0.242,0-0.564,0.081-0.807,0.241c-0.241,0.081-0.402,0.323-0.564,0.565
		c-0.081,0.241-0.16,0.645-0.16,1.128v3.146H302.596z"/>
	<path d="M312.596,164.491c-0.322,0.321-0.725,0.564-1.048,0.645c-0.16,0.081-0.322,0.162-0.483,0.162v-0.727
		c0.242-0.08,0.483-0.161,0.645-0.242c0.322-0.16,0.564-0.403,0.646-0.725c0.162-0.162,0.162-0.485,0.162-0.97v-0.321
		c-0.324,0.081-0.808,0.241-1.452,0.321v-0.805c0.645-0.081,1.128-0.162,1.452-0.324c0-0.081,0-0.241,0-0.241
		c0-0.404-0.081-0.645-0.243-0.807c-0.242-0.241-0.645-0.402-1.129-0.402h-0.08v-0.808c0.08,0,0.161,0,0.242,0
		c0.483,0,0.886,0.081,1.21,0.161c0.322,0.162,0.483,0.322,0.644,0.484c0.162,0.162,0.243,0.402,0.323,0.645
		c0,0.162,0.081,0.484,0.081,0.887v1.372c0,0.887,0,1.451,0,1.694c0.081,0.242,0.16,0.482,0.322,0.726h-1.048
		C312.757,164.973,312.677,164.733,312.596,164.491z M311.064,165.297c-0.162,0-0.403,0.081-0.564,0.081
		c-0.646,0-1.13-0.162-1.452-0.485c-0.404-0.322-0.564-0.725-0.564-1.21c0-0.322,0.081-0.564,0.241-0.806
		c0.081-0.243,0.243-0.403,0.483-0.564c0.243-0.162,0.405-0.243,0.727-0.322c0.161,0,0.483-0.081,0.888-0.161h0.242v0.805h-0.162
		c-0.402,0.082-0.645,0.162-0.807,0.243c-0.161,0.081-0.322,0.161-0.402,0.321c-0.08,0.162-0.161,0.243-0.161,0.484
		c0,0.242,0.081,0.485,0.322,0.646c0.161,0.162,0.483,0.242,0.888,0.242c0.08,0,0.16,0,0.322,0V165.297L311.064,165.297z
		 M311.064,160.055c-0.403,0.08-0.727,0.161-0.969,0.24c-0.161,0.162-0.322,0.485-0.482,0.888l-0.97-0.161
		c0.081-0.402,0.243-0.727,0.485-0.967c0.16-0.243,0.484-0.484,0.806-0.565c0.323-0.161,0.727-0.161,1.13-0.242V160.055z"/>
	<path d="M315.097,165.216v-5.808h0.888v0.808c0.402-0.646,1.048-0.969,1.773-0.969c0.404,0,0.727,0.081,0.967,0.242
		c0.324,0.081,0.564,0.241,0.727,0.483c0.081,0.162,0.243,0.403,0.243,0.727c0.08,0.16,0.08,0.483,0.08,0.968v3.549h-0.969v-3.549
		c0-0.403-0.081-0.726-0.16-0.887c0-0.243-0.161-0.323-0.404-0.485c-0.16-0.079-0.403-0.16-0.645-0.16
		c-0.403,0-0.807,0.081-1.129,0.402c-0.242,0.243-0.404,0.727-0.404,1.532v3.146H315.097z"/>
	<path d="M325.097,165.216v-0.726c-0.403,0.564-0.887,0.807-1.612,0.888v-0.888l0.08,0.08c0.403,0,0.727-0.242,1.049-0.564
		c0.323-0.323,0.483-0.888,0.483-1.612c0-0.808-0.16-1.372-0.483-1.774c-0.322-0.324-0.646-0.564-1.129-0.564v-0.808
		c0.322,0,0.564,0.081,0.807,0.242c0.322,0.161,0.564,0.322,0.725,0.565v-2.904h0.969v8.065H325.097z M323.484,165.378h-0.081
		c-0.403,0-0.887-0.162-1.21-0.405c-0.403-0.24-0.725-0.645-0.968-1.048c-0.162-0.483-0.322-1.048-0.322-1.612
		s0.16-1.13,0.322-1.613c0.162-0.404,0.484-0.807,0.888-1.049s0.807-0.403,1.29-0.403h0.081v0.808l0,0
		c-0.403,0-0.807,0.24-1.13,0.564c-0.241,0.322-0.402,0.886-0.402,1.693c0,0.726,0.161,1.291,0.483,1.693
		c0.322,0.322,0.646,0.484,1.049,0.484V165.378z"/>
	<path d="M238.318,239.495h0.564l3.227,7.984h-1.21l-0.888-2.421h-1.693v-0.886h1.371l-0.888-2.179
		c-0.241-0.645-0.402-1.128-0.483-1.532V239.495z M234.608,247.479l3.064-7.984h0.646v0.967l-0.081-0.162
		c-0.08,0.485-0.241,1.05-0.402,1.533l-0.888,2.34h1.371v0.886h-1.693l-0.888,2.421H234.608z"/>
	<path d="M242.835,247.479v-5.808h0.887v0.808c0.403-0.646,1.049-0.97,1.856-0.97c0.321,0,0.644,0.082,0.967,0.243
		c0.322,0.08,0.483,0.241,0.646,0.483c0.161,0.162,0.241,0.403,0.322,0.726c0.08,0.161,0.08,0.484,0.08,0.969v3.549h-0.967v-3.549
		c0-0.403-0.081-0.727-0.162-0.887c-0.081-0.162-0.242-0.324-0.404-0.485c-0.16-0.079-0.402-0.16-0.644-0.16
		c-0.483,0-0.808,0.16-1.129,0.402c-0.323,0.243-0.484,0.727-0.484,1.532v3.146H242.835z"/>
	<path d="M252.916,247.479v-0.888c-0.484,0.726-1.13,1.048-1.854,1.048c-0.323,0-0.646-0.08-0.969-0.241
		c-0.322-0.081-0.564-0.323-0.645-0.484c-0.161-0.161-0.242-0.403-0.322-0.726c-0.081-0.161-0.081-0.483-0.081-0.887v-3.63h0.969
		v3.226c0,0.485,0.079,0.888,0.079,1.05c0.081,0.241,0.242,0.402,0.403,0.563c0.242,0.161,0.484,0.242,0.726,0.242
		c0.323,0,0.564-0.081,0.888-0.242c0.242-0.161,0.403-0.322,0.484-0.563c0.161-0.324,0.161-0.646,0.161-1.129v-3.146h1.048v5.808
		H252.916z"/>
	<path d="M254.933,245.705l0.967-0.082c0.081,0.324,0.162,0.646,0.484,0.888c0.242,0.161,0.564,0.323,1.049,0.323
		c0.403,0,0.726-0.162,0.968-0.323c0.241-0.161,0.322-0.403,0.322-0.645c0-0.243-0.081-0.404-0.322-0.483
		c-0.081-0.162-0.403-0.242-0.968-0.404c-0.726-0.16-1.209-0.322-1.533-0.403c-0.24-0.161-0.483-0.321-0.564-0.564
		c-0.161-0.242-0.241-0.483-0.241-0.807c0-0.242,0.08-0.484,0.16-0.725c0.162-0.243,0.323-0.405,0.484-0.565
		c0.161-0.081,0.403-0.161,0.646-0.242c0.242-0.08,0.564-0.162,0.807-0.162c0.483,0,0.887,0.082,1.21,0.243
		c0.402,0.08,0.646,0.321,0.807,0.483c0.161,0.243,0.242,0.564,0.322,0.887l-0.968,0.161c-0.08-0.322-0.161-0.483-0.403-0.726
		c-0.161-0.16-0.484-0.241-0.887-0.241c-0.404,0-0.727,0.081-0.969,0.241c-0.161,0.161-0.241,0.323-0.241,0.564
		c0,0.081,0,0.243,0.08,0.323c0.082,0.081,0.242,0.162,0.403,0.241c0.081,0.081,0.403,0.161,0.888,0.243
		c0.645,0.242,1.129,0.323,1.451,0.483c0.242,0.08,0.484,0.323,0.646,0.483c0.16,0.243,0.242,0.564,0.242,0.888
		c0,0.322-0.161,0.646-0.322,0.887c-0.162,0.323-0.484,0.564-0.808,0.727c-0.403,0.161-0.806,0.241-1.209,0.241
		c-0.807,0-1.371-0.16-1.773-0.483C255.254,246.833,255.014,246.349,254.933,245.705z"/>
	<line fill="none" stroke="#000000" stroke-width="0.5" x1="141.056" y1="228.203" x2="141.056" y2="258.85"/>
	<line fill="none" stroke="#000000" stroke-width="0.5" x1="135.813" y1="229.089" x2="146.297" y2="257.962"/>
	<line fill="none" stroke="#000000" stroke-width="0.5" x1="131.216" y1="231.751" x2="150.895" y2="255.301"/>
	<line fill="none" stroke="#000000" stroke-width="0.5" x1="127.748" y1="235.865" x2="154.282" y2="251.188"/>
	<line fill="none" stroke="#000000" stroke-width="0.5" x1="125.974" y1="240.866" x2="156.137" y2="246.188"/>
	<line fill="none" stroke="#000000" stroke-width="0.5" x1="125.974" y1="246.188" x2="156.137" y2="240.866"/>
	<line fill="none" stroke="#000000" stroke-width="0.5" x1="127.748" y1="251.188" x2="154.282" y2="235.865"/>
	<line fill="none" stroke="#000000" stroke-width="0.5" x1="131.216" y1="255.301" x2="150.895" y2="231.751"/>
	<line fill="none" stroke="#000000" stroke-width="0.5" x1="135.813" y1="257.962" x2="146.297" y2="229.089"/>
	<path fill-rule="evenodd" clip-rule="evenodd" fill="#FFFFFF" stroke="#000000" stroke-width="1.0001" d="M141.056,247.236
		c2.016,0,3.71-1.693,3.71-3.709c0-2.018-1.694-3.711-3.71-3.711c-2.017,0-3.71,1.693-3.71,3.711
		C137.346,245.542,139.039,247.236,141.056,247.236z"/>
	
		<line fill-rule="evenodd" clip-rule="evenodd" fill="none" stroke="#000000" stroke-width="0.5" x1="228.964" y1="61.339" x2="167.67" y2="61.339"/>
	
		<line fill-rule="evenodd" clip-rule="evenodd" fill="none" stroke="#000000" stroke-width="0.5" x1="229.528" y1="87.47" x2="140.491" y2="87.47"/>
	<polyline fill-rule="evenodd" clip-rule="evenodd" fill="none" stroke="#000000" stroke-width="0.5" points="191.461,148.683 
		231.222,148.683 189.444,203.444 	"/>
	
		<line fill-rule="evenodd" clip-rule="evenodd" fill="none" stroke="#000000" stroke-width="0.216" x1="230.657" y1="244.091" x2="161.459" y2="244.091"/>
	
		<path fill-rule="evenodd" clip-rule="evenodd" stroke="#000000" stroke-width="0.0448" stroke-linecap="round" stroke-linejoin="round" d="
		M155.895,244.333l9.113,3.468c-1.451-2.339-1.532-4.435-0.079-6.774L155.895,244.333z"/>
	
		<path fill-rule="evenodd" clip-rule="evenodd" stroke="#000000" stroke-width="0.0448" stroke-linecap="round" stroke-linejoin="round" d="
		M184.767,206.267l9.033-3.791c-2.581-0.727-4.193-2.097-4.678-4.839L184.767,206.267z"/>
	
		<path fill-rule="evenodd" clip-rule="evenodd" stroke="#000000" stroke-width="0.0448" stroke-linecap="round" stroke-linejoin="round" d="
		M141.378,202.798l9.113,3.469c-1.451-2.259-1.532-4.355,0-6.694L141.378,202.798z"/>
	
		<path fill-rule="evenodd" clip-rule="evenodd" stroke="#000000" stroke-width="0.0448" stroke-linecap="round" stroke-linejoin="round" d="
		M187.025,148.764l9.113,3.468c-1.371-2.258-1.532-4.356,0-6.694L187.025,148.764z"/>
	
		<path fill-rule="evenodd" clip-rule="evenodd" stroke="#000000" stroke-width="0.0448" stroke-linecap="round" stroke-linejoin="round" d="
		M139.442,87.792l9.113,3.468c-1.371-2.339-1.532-4.436,0-6.775L139.442,87.792z"/>
	
		<path fill-rule="evenodd" clip-rule="evenodd" stroke="#000000" stroke-width="0.0448" stroke-linecap="round" stroke-linejoin="round" d="
		M162.427,60.775l9.114,3.468c-1.452-2.258-1.532-4.355,0-6.694L162.427,60.775z"/>
	
		<path fill-rule="evenodd" clip-rule="evenodd" stroke="#000000" stroke-width="0.0448" stroke-linecap="round" stroke-linejoin="round" d="
		M175.492,182.475l-7.822,5.888c2.661,0,4.517,1.048,5.646,3.548L175.492,182.475z"/>
</g>
</svg>
