<?xml version="1.0" encoding="utf-8"?>
<!-- Generator: Adobe Illustrator 15.1.0, SVG Export Plug-In . SVG Version: 6.00 Build 0)  -->
<!DOCTYPE svg PUBLIC "-//W3C//DTD SVG 1.1//EN" "http://www.w3.org/Graphics/SVG/1.1/DTD/svg11.dtd">
<svg version="1.1" id="Layer_1" xmlns="http://www.w3.org/2000/svg" xmlns:xlink="http://www.w3.org/1999/xlink" x="0px" y="0px"
	 width="326.656px" height="260.852px" viewBox="0 0 326.656 260.852" enable-background="new 0 0 326.656 260.852"
	 xml:space="preserve">
<metadata><?xpacket begin="﻿" id="W5M0MpCehiHzreSzNTczkc9d"?>
<x:xmpmeta xmlns:x="adobe:ns:meta/" x:xmptk="Adobe XMP Core 5.0-c060 61.134777, 2010/02/12-17:32:00        ">
   <rdf:RDF xmlns:rdf="http://www.w3.org/1999/02/22-rdf-syntax-ns#">
      <rdf:Description rdf:about=""
            xmlns:xmp="http://ns.adobe.com/xap/1.0/"
            xmlns:xmpGImg="http://ns.adobe.com/xap/1.0/g/img/">
         <xmp:CreatorTool>Adobe Illustrator CS5.1</xmp:CreatorTool>
         <xmp:CreateDate>2015-02-12T18:11:31+02:00</xmp:CreateDate>
         <xmp:ModifyDate>2015-02-12T18:11:31+02:00</xmp:ModifyDate>
         <xmp:MetadataDate>2015-02-12T18:11:31+02:00</xmp:MetadataDate>
         <xmp:Thumbnails>
            <rdf:Alt>
               <rdf:li rdf:parseType="Resource">
                  <xmpGImg:width>256</xmpGImg:width>
                  <xmpGImg:height>208</xmpGImg:height>
                  <xmpGImg:format>JPEG</xmpGImg:format>
                  <xmpGImg:image>/9j/4AAQSkZJRgABAgEAYABgAAD/7QAsUGhvdG9zaG9wIDMuMAA4QklNA+0AAAAAABAAYAAAAAEA&#xA;AQBgAAAAAQAB/+4ADkFkb2JlAGTAAAAAAf/bAIQABgQEBAUEBgUFBgkGBQYJCwgGBggLDAoKCwoK&#xA;DBAMDAwMDAwQDA4PEA8ODBMTFBQTExwbGxscHx8fHx8fHx8fHwEHBwcNDA0YEBAYGhURFRofHx8f&#xA;Hx8fHx8fHx8fHx8fHx8fHx8fHx8fHx8fHx8fHx8fHx8fHx8fHx8fHx8fHx8f/8AAEQgA0AEAAwER&#xA;AAIRAQMRAf/EAaIAAAAHAQEBAQEAAAAAAAAAAAQFAwIGAQAHCAkKCwEAAgIDAQEBAQEAAAAAAAAA&#xA;AQACAwQFBgcICQoLEAACAQMDAgQCBgcDBAIGAnMBAgMRBAAFIRIxQVEGE2EicYEUMpGhBxWxQiPB&#xA;UtHhMxZi8CRygvElQzRTkqKyY3PCNUQnk6OzNhdUZHTD0uIIJoMJChgZhJRFRqS0VtNVKBry4/PE&#xA;1OT0ZXWFlaW1xdXl9WZ2hpamtsbW5vY3R1dnd4eXp7fH1+f3OEhYaHiImKi4yNjo+Ck5SVlpeYmZ&#xA;qbnJ2en5KjpKWmp6ipqqusra6voRAAICAQIDBQUEBQYECAMDbQEAAhEDBCESMUEFURNhIgZxgZEy&#xA;obHwFMHR4SNCFVJicvEzJDRDghaSUyWiY7LCB3PSNeJEgxdUkwgJChgZJjZFGidkdFU38qOzwygp&#xA;0+PzhJSktMTU5PRldYWVpbXF1eX1RlZmdoaWprbG1ub2R1dnd4eXp7fH1+f3OEhYaHiImKi4yNjo&#xA;+DlJWWl5iZmpucnZ6fkqOkpaanqKmqq6ytrq+v/aAAwDAQACEQMRAD8A9U4q7FXYq7FXYq8+8tfv&#xA;vzq87yMd7XTNEgQD+WQ3khr71xV6DirFtE03VIvzC80alcxuthdWulwWEhI4P9XFy0vEV2YNPRvo&#xA;xVlOKuxV2KuxV2KuxV2KuxV2KuxV2Kpfrcxit7dhqcelcru1T1pRGRLynVfqy+oVHK4r6S0+KrfD&#xA;viqYYqwf82NR1CxsPLbWVzLatP5l0a3naF2jLwzXiLJE/EjkjqaMp2I64qzjFXYqlOv+a9D0D6sN&#xA;Umkje8Zlto4oJ7h3KDk1EgSVth3piqPur62tbGW+nYrbQRNPKwVmYRovJjwUFyaDoBXFUG3mTRPr&#xA;trZJdJLcXc8lpGkZ58Z4oDcPHJxr6bCJeVGp28cVRWp6ja6bpt3qN2xS0soZLi4cAsRHEpdyANzR&#xA;VxVZperWOqW31mydni+HdkdPtxrKtOYWvwSKajFVmia5p2t6f9f06QyW3rXFvzZSh9S1ne2lFGAO&#xA;0sTD3xVH4q7FXYq7FXYq7FXYq8d0/wA+6BoX5t+f4JRc6hf3J0lbbTtNt5b24dorRhJ8MKsECFhy&#xA;MhUDxxVli+d/PNwPVtPIGoC3bdDeXunW8p+cSzzcfpNfbFUu0v8ANrQ7fX76x8ypqPl68aWCJrfV&#xA;Ft3sbeV4wUjS8s2mhQzKedJpASfs+GKvRwQRUbg9DirsVdirsVcSAKnYDqcVYC/nnzN5muZbb8v7&#xA;K3l0+B2in806mXFiXQ8WWzhipLd8T1cMkfgxxVXTyb+YUnxXX5g3aTU+JLLTdNhhG56LcQ3kn3yH&#xA;FUh0iD8zrzzV5g0ey85s9toJtIjdajptnOJZ7mH6w8ZS1WwoI4mj3D78/bFU4m1/81PL6G41vRbP&#xA;zFpyVM1xoDSQ3iKP2vqF0ziT5RzlvBcVZdoGvaRr+kW2saRcrd6deLzgnWoqASCCrAMrKwIZWFQd&#xA;jirF9T/ODyZaedrDyVb3S32v3kjrPDCy+laJEjSSNcyk8UYKhogqxOxArXFUV55toNc07TreyvbU&#xA;SWur6XqEvqTKo9GyvoriWlK/FwjPEeOKsj/S2lf8tsH/ACNT+uKsB/N7UtOlt/KMKXULB/NOkM7L&#xA;Ip4rDMZqmh6fu6fTirPv0tpX/LbB/wAjU/riqIililQSROskbfZdSCD8iMVYX+YvlbV9ZvtDu9Pt&#xA;2uk06S4a4hj1K60iUiaIIpW5tB6uxG61ocVeVn8p/NvmGbzJPb2MOl3Ml35hgj1Ga7uTLcQ39pNb&#xA;JaPC8XAwGeRJRLyP2SwXkScVZHZ/kTbTatcW+r6Rp0uh3OqyalcywsY5riKbTpIPSlRI4z+4uZGd&#xA;P3hHxltjWqqSj8hfOM9/Hf6jetcX8eh2+n21wl8qpFLHo/1GaB0ks5ZpIpbgvIxWdA3OpXku6qI8&#xA;z/kv+YN/ZWsOn3NhEbe8+uBmKrOkiWtikckU7W87pSSycMIyjEEfHSoxV6t+X+gX2geWxp18UNx9&#xA;e1K5rESy8LzULi6i3IG/pzLX3xVkeKuxVIvJnmy38zaS94sDWV5a3E1lqWnSkNJbXVu/F43IAB2o&#xA;ykdVIOKp7irsVS3zF5k0Ty5pUuq61dpZ2UVFMjVLM7bLHGigs7sdlVQSe2KsMSw87+fD6upyXPlL&#xA;yi9DFpUDelq94h73cyk/VI2/31EfU/mZemKoT8uNA0Xy3+aXnbRdHs49PsPqGiT29rECFPw3aSSb&#xA;1qSVHIk1J3O9cVeoYqxi08nRfp7zVc6iIL3S/Ma2oexkXntDb/V5FkDDiVcAUHzxVKPIBuPLnmDU&#xA;vy/uJpJ7Kxgj1LyzNKxeQabK5ja2Z2LFvqky8VLGvBk8MVZ9irsVdirAPPklx5n8w2f5e2czw2U8&#xA;P6Q82XETFXXTg3CK0V1oVa8kBUkEERq/jirJdZ0nWho9vp/lW8tNDaEpGskln9ajjt0QqI4YVlt1&#xA;Ug8eJJIAH2cVeb6RB+Yd5+Y3mXRE88Fb3S7HTZC50y2aFvrDXT8fRDArwBXf1OTct9lGKoTyX5P/&#xA;AOcgvLvm3zVfyXuianp+rXYu0S6M1uJ34iNWiEKzNb0iREYP6nQUru2KvTPLep+eL26kGvaFaaPa&#xA;LH+7aHUDeyvLUbcRbwKqUrvyr02GKpP5FiSx87+e9LthxsBe2moJGPspcX1orXCqO3J4xKfdycVQ&#xA;F9+RnlIfmFp/nvR4k03VreV21K2VA9reRzRtFKXiqAktH5B125D4gTvirIvM8HlK2m0S21KwDvqG&#xA;pxQaeIF4UukiluVMhRo6xhLdyQag9KHFU8/ROlf8sUH/ACKT+mKsA/NPTNObVPINnFawhrjzNbvI&#xA;ixoOUVvaXUzVNOgZFNO+Ks//AETpX/LFB/yKT+mKoiKKKJBHEixxr9lFAAHyAxVjfnLzfdeXbnRU&#xA;TT1uLPVLxbO61CaYwQWnOgjMjLHMayseCVCqWoCy1FVWFan+eN5Joun3Wh6Xbvd30NtdMt1cN6cS&#xA;S6vDpckbekhYuGmrXbjvsacSqmms/nPYaVpd5eS2ImnsH1aK5tYrhWZW0ccnFSgP7wFSKqKAjxxV&#xA;3lz82Na1fzwfLM3lO8toIZJLa+1aMzT21vdRW4uTHJKLdLfiQwQH1uXP9niVYqvR8VdirsVdirAf&#xA;NOla35a8xyed/Ldo+ow3aRw+atCh/vbmKIcYry1B2NzAnwlP92Jt9oLirJ/Lfm3y35msvrmh6hDf&#xA;Qg8ZFjNJInHVJompJE47q6gjFUp8y/mX5f0i6/RVlz1zzLIP9H0DTaTXJPQNMR8FvGD9qSUqAPHp&#xA;iqF8teSNSudVj81+dpIr7zElTp1hES1jpaNtwtlb7czD+8nYcj0XiuxVZvirz2Ii1/P64QHiuqeV&#xA;45Kdmexv3Un58boYq9CxVj66jo9t5+fSksimr6lpn12XUABSWCynEKxE9SY2u6j/AFsVSjzUot/z&#xA;O8jXq/C1yNV012A+0stqt2FJ/wBayqPpxVm+KuxV2KsH/LWJbjU/Oesy/FeXuuz2rsf2YNORLWCM&#xA;ewCM/wA2OKsg8yv5wEECeWYtPad3IuZtSkmVI4wOqRwqWkYnsXX54q8F8mXH5nyfn15vktrjSZNT&#xA;ubb0p5JrW6isZhpa2kTJBxnkljZWu15F+ft12VfQOgT69Ppkb69Z29jqfJllgtJ2uYaKxCusjxwN&#xA;8Q3oV2xVMSQBU7AdTirBPyqk/Sn+JPNo3g8xatJJp0nQPY2UUdjbuo/lk+rtIviGrirO8VY/5g07&#xA;SL/zH5ZN3fLDfadc3GoWFgStbkpaSWsh4nekQuw1R0NPHFWQYq8/87/v/wA0vy4szuqS6tfsnb/R&#xA;7H0QSOmzXYpir0DFXYqlur+WvL+sy2k2radb38thJ61k9xGshikqrck5A0NUU/QMVS9fy68hKt8q&#xA;+XtPUakHGoBbaIeuJHWR/UovxVdFbfuK4q035ceQWuLq4Pl7T/rF7G0N5N9Xj5yxunpsjtSrBkFC&#xA;D1xVMF8seXV1ttdXTrddZccX1ARqJmAXhu4FT8Hw/LbFUzxV2KuxV2KuxVjevflt5A8wXZvdZ8v2&#xA;F9ekUa6lgQzMNhRpAA7CgpQnptiqZ6H5b8vaBa/VND0y10u2NC0NpDHCpI7sEC1PucVTHFXYq898&#xA;8n9H/md+X2sH4ILiXUdFuJOgJvLYXECn5yWe2KvQsVSHWrHQ4/MWh63eGZdRhM+m6eYUd0b68qvI&#xA;svBH4r/ooIZiqg96kDFUk/Nhjp9jonmqh9LyvqsN9fFakiymjksrtqDqI4royH2XFWcI6OiujBkY&#xA;AqwNQQdwQRireKuxV5/eWfmfyb5k1PWNG02TXfLGtyrd6lpdsyC9tLzgsctxbJIUWaOZUUvHyDBq&#xA;stakYqnGhfmR5X1rUE0y2a8t9SYMTZ3the2brwXk3IzwxpsP8r5Yq+efyl80W15/zkrfBJyFvZ9Z&#xA;SCAMrI/q3NxOZgF2DGC1gUnqwA6rSir6H138y/JOhahJpup6j6eoRBWeziguLiajLyWiQRyM1V8B&#xA;irH9RvvNv5gQHStLsLzyz5XuBx1PWb9Pq1/cQHZ4LK1J9WL1F2M0oUqD8Kk7hV6Bp9hZ6dYW1hYw&#xA;rb2VpEkFtAgoqRxqFRV9gopiqvirH4vMU0/n658upBG1vY6XBfz3VSXSW6nliji8KMluzYqyDFXn&#xA;0gN7+fUI+1Fovlp3JHRZtRvVVakd/Ts22Pjir0HFXYq7FXYq7FXYq7FXYq7FXYq7FXYq7FXYq7FX&#xA;n/5521wvkCbW7RC975Yu7TXrdR/y4TLJN/yQ9TFWeWtzBdW0V1buJLedFlhkHRkcclYfMHFUo87X&#xA;euWXlHV73QgjavaWstxZRyLzV5IVL+nTb7YXiPc4qitMv9M8x+XrW/iVbnS9XtEmVJAGV4LmMNxZ&#xA;TsQVahGKsIsbfzd+XQNhbWVz5o8kR/7wLbMJdV02Ptb+nIVN3An+6yreoo+HiwAOKpin51/ldSl1&#xA;r8GmzD7VtqSyWMynuDFcrE9R32xVa35v+XLshPLdlqfmec9BpdnKYAe3K7uBBarX/jLirf8Aib81&#xA;5FMsXke0jjG4iuNaRJyP9WK1nir/AM9fpxVO/L/me21zy/LqNxZT6e0DTQajp14o9SGW3JWVG4lk&#xA;ddqqykhlIOKvBPy90LSNJsvy21yxtotP1Oa+s31m0aFFlKapY3UdvcQzLU/V5RPx41K8hQcJBIGV&#xA;fTGKuxV2KuxVKtJtbc6nquoHSzY300qW0105QtdQ2y1hkBRm+Aeq4UNQ9dsVTXFXnv5ef7kfPv5h&#xA;a8N4v0ha6LAf8nTLVTJT/nvdP+rtir0LFXYq7FXYq7FXYq7FXYq7FXYq7FXYq7FXYq7FVC/sra/s&#xA;bixukElrdRPBPGejRyKVZT8wcVYP+Sd/c/4NPl2+cvqnlG6m0K7LbFltDS2kp14yWzRsD3xVn+Ko&#xA;DSo7y3+sWs8Vrb20cpXSobQsP9EWNAPUQqoVxIWFEqvHj3xVH4q7FXYq7FWN/mXqH6O/LrzRfA0a&#xA;20m9kT/XW3fiNwerUxV8waF5r0iTVmtNJt7vUtM0C88tXltqbM0q2DxXNtb3lsJg7q1rJuF4sRVV&#xA;4qyAOir7DxV2KuxVA69qn6J0PUNU9J5/qNtLciCNSzyGJC4RVUFiWpQADFUB5EtdZtfJujRa3cSX&#xA;Wsm1jk1GaUkt9YkX1JF37IzFR7DFU01TUbXTNMu9Su24WtlDJc3D+EcSF3P3LirD/wAk9OurX8uN&#xA;Lu75OGo62Ztavgevq6nM11v7qkqr9GKs5xV2KpX5h8w2WhWtrc3aSSJd3tpp0YiCkiW+uEtombky&#xA;/CHkBbvToD0xVRt/OOgS6lqunS3UdrdaPK0dylxJHHySO1tryWaMFqmKOO9jDuQOLddqEqqMv5if&#xA;l/EZBL5m0mMxMElDX1sCrMxQK1X2JZGHzBxVEy+cfKMN9c6fNrmnx39mglu7R7qFZoYzxAeSMtyR&#xA;fjXdh3GKovSda0fWLMXukX1vqNmWZBc2kqTxFkNGXnGWWoPUVxVGYq7FXYq7FXYq7FXYq7FXYq82&#xA;1E/4R/OK01I/BovnyFNOvG6LHq9kha0dif8Af9vyiAHUqMVek4qxTzd5b1O41zQvMuhcBrGlT+hd&#xA;RyMY0udMuiFuoWIB3Qqk0df2kp+1irKwQRUGo3G3iNjirsVdirsVYH+eTt/yrDVrZImuJL+SzsEt&#xA;oyoeX65ew25jQsVXkwkPU4q87/MK9tJPy+1d49Q9RraxlGk62wAaZbKtz+idWiPBo7uFoyYi3F+V&#xA;aUYujqvfYJkngjmj+xKoda7GjCoxVfirsVSvULxZdUtdKtNUitNSXjfT2ZVZZZrKNvTkAUkFFZ2U&#xA;cx0xVhn5pfnr5P8AILpp00g1DzJccRbaREwUr6myPcSGqwpvXf4qdFOKoP8AOfzXot/5Vt/K2n6v&#xA;am581XtvpMskVxE3o2kjc7yV6Nsgt43Un/KGKs7h8zeUIIY4YdXsI4olCRotzCAqqKAAcuwxVf8A&#xA;4s8q/wDV5sf+kmH/AJqxVMba6trqBLi2lSeCTdJYmDowBpsy1BxVI/O/lC182aRBpV40YtEvrK9u&#xA;IpohPHNHZ3KTvA8bFVKzLHwNa9eh6YqwHzR+TFrJcW+l6FZpZaXqWtNqF8bKOG0trPTW06CxvrIx&#xA;qf3n130ajhH9o1NONWVTjUfyX0m+F4ZZYDJdpriGRrRGYfptlZTUvU/VwlB/N/k4qk97/wA4/W11&#xA;Nq6vf25h1EzyW9xJBcyXEEt2IxPQfW1tijelT+55EUBPw1Kr0Dyr5Tt/Ltxrz28iGHWtTfU1gjiE&#xA;Swl7aCBkFCQ1Wty5ag3bp3KqfYq7FXYq7FXYq7FXYq7FXYqx7z/5Rh82+Vb3RmlNtcyBZtPvV+1b&#xA;3cDCS3mUjccJFFadqjFUJ+WXnGbzR5ZWXUI/q3mDTZH07zBY9DDfW/wy7fyybSJTbiwxVlmKsNv9&#xA;e0/yRqekaQ2mpY+VNQZ4YdUiJ9K31CeYusM6U/dpO0h4Scqc/hNKjFWZYq7FXYq82/Pa7ih0HQYZ&#xA;vrQt7nXbMzvYhmuUjtUlvmkiVasXjFrzFKnbYE7FV5PoV/5n8xaj57WWxmns/MdsZbF72BrK21u1&#xA;t7KO3E1rFOB6V2qRrdRlNjyKuFHB41X0B+XN99f/AC+8s3ta/WdKsZT0G726Mdht3xVkOKqV5eWl&#xA;lazXd5PHbWlujSz3EzLHHGiirO7sQqqBuScVSDy75Xez8w675kvLpL291mSJLWRBRYNPt0pBbpUt&#xA;+28kjsNmZvYYqgPzF/Kbyj58tY/0rb+jqtrRtP1iABbmB1PJfi/bTl1Rtvkd8VSrQyfNf5u6nrRI&#xA;l0nyVC2jac4Hwtqd0Fk1CRd9jFGI4T82xV6RirsVdirGPzE8xazoOhW9zo0dvJqN3qNhp0AvA5hB&#xA;vrqO25P6ZVvh9Su2KvNrb84fzHnv9UtUtdFLQXsOnWcTycLiOVtat9LLXFst3Lcem8c5k5eknBuI&#xA;+MGpVU7v85fzI0+OY3dro8ju2oWlp6SXSgXWk6rbabO8nKU/upvrJdAPiXuW7qrde/PTzdoRgsr6&#xA;HT21WDWLjTr5o7eVLOa2gktxzimmuojDL6dyTwCzmorxC74q3rX5s/mIum3NwsmmafaXUOry6feR&#xA;2000sA0PVY7Kczo83Blkgk5VWnHfFWceR/Pl7rPnHXdAvNR0y+GnQ29xYvpaFllglXi8skwubhUf&#xA;1lZfRZFKihDODUKs9xV2KuxV2KuxV2KuxV2KuxV5l58tLvyV5mH5laTC82mSxpbeeNPhUs0lpHtF&#xA;qEaruZbSvx9axV6ca4q9Gsb6zv7KC+spkubO6jWa3uIyGR43HJWUjqCDird7ZWd9ay2l7BHdWky8&#xA;ZreZFkjdT2ZGBUj54qk2r+YYvLNtear5kvo00drmNLWWK3lAtopEVP8ASZFaUcfUDEykKqgiuKp5&#xA;BPBcQpPBIssMqh45UIZWVhUMrDYg4qvxV5n+atyo84+R4Xu5NPSCXUtRbUI0Drb/AFe0ECyzKR/c&#xA;8rwLITReJ3K/aCqXrPp066naLHztLG5L6/pFizNPp14p5fpXSWUc+HJuckaitSSBz5pIqyH8i50l&#xA;/Kfy8iSrOlrDLZpMhBVls55LcEEdqRYqzvFWIWXmS98x+arzS9Ps4ZvKemrNaazqFyhZbm92U2tq&#xA;KhWWH4hO7AivwDcHFWXgACg2A6DFWKfmZ5wm8seWHnsIxca/qMiad5fstqzX9yeEIof2U3kf/JU4&#xA;qi/IPlGDyl5S0/Q45PXmt0L312alp7qUmS4mYncmSVmO/bbFWQYq7FXYq06I4AdQwBDAEVoQag/Q&#xA;cVWm3gLM5jXk5Uu3EVJQ1Uk/5PbFVptbU9YUO5O6jqxDMencipxVtre3ZWVokKseTAqCCx2qffFX&#xA;C3txSkSCnID4R0c1b/gj1xVuOGGMkxxqhIAJUAVCigG3gMVX4q7FXYq7FXYq7FXYq7FXYq0yqylW&#xA;AZWFGU7gg9jiryZ3uvyf1PaOS4/K3UJmZvTVnfQZ5WqTQVJspGNf+Kz/AMMq9XgnguII54JFlglU&#xA;PFKhDI6MKqysNiCNwRirckccsbRyKHjcFXRgCrKRQgg9QcVSPTfK1t5esIrDypDb6bZteC5ubWRZ&#xA;ZYvSkas6W6CRRCT1QL8Cn9nfFUHefmV5a03Xm0XWvrGjTNKIbO7v4Wis7osAR6F2OUJ3bjxZlavb&#xA;FWEfmXrF9afmppktjJJ9e0rQ7iXT7XijQXVzf3caLZzM7Ksf1lbRkR6r8fHdjRGVY7+W6+YLe782&#xA;Tato6eV9Jt9Za406eOUS3mkSyQRxkXMIZl+ovFDHyoQgB5D93SSNVmP5d+ZtO8r+TdY/T7raLp/m&#xA;HVLQQ2scs4MlxdPdJFbRRq8jgif4AFrTrTfFWX6RqGq+ZtMS7e01Dyykd4ktvHOIFubi2iKtSaJh&#xA;MYVlNVZDR6d1rirIwAOmKqV5d2tlaTXl3KsFrbo0s88hCoiIOTMxPQACuKvN/I9vded/NH/KxtTh&#xA;aLRrVHtvJFlKCGEEm0+ouh3D3NKR16R/OuKvTcVdirsVdiqTeafMaaBZ2dy8BuBeajY6aFDceJv7&#xA;qO2ElaGvAy8qd8VS+f8ANDyJBZ217JqqC2vLeC8tXEczc4LuQxQOAqE/vJBxApWuKtWv5o+R7yPT&#xA;3sdQe+/SkRns0tLW6uJDEJGiLyRwxO8I9WNk/eBfiBXrtiqA0r84fKd/p0GqMZ7TT7q0tbu1WeCY&#xA;3cjXkskccUdrHHI8pJi+H0i/LtsK4qi3/Nv8u0uLC3fWo1m1P0vqaGObf15pLdOfwUi/fwPG3qce&#xA;Lji1DTFUdq3n3ynpOrJpN/emO+f0gY0hnlVGuGKQLLJEjxxNMy8Y1dgXOyg4qpfl75vn83eXv061&#xA;l9Rtbi4mXT42Mhke2jfgksgkjh4s/EtxXkAKfETUBVkuKuxV2KuxV2KuxV2KuxV2KrJ4ILiCSCeN&#xA;ZYJVKSxOAyOjCjKynYgjYg4q8ufQfNX5ZTSXXlS2l17yK7GS68rKS97p9TV5NMZj+9i7m3Y1r9g7&#xA;nFWd+VPOHlzzXpa6noN6l5ak8JAtVkikHWOaNqPG47qwBxVOcVaZVYUYAjwO/TFXj98Ibz84PNkC&#xA;hLuWTTNOsZdBuAoi1GFUnnuY45HCqtxGk8bIC1KV5UB5xqtaVqq3U8d3pt3KJrW4k0nSNb1FJI/W&#xA;aF6No2sqw9SvNqQTsOfLr+85LMqmv5Lvbwaj530u3sJdLit9YiuBp0/2rc3Gn2weJaFl9NZIm9Ph&#xA;8JShX4SMVem4qo3t7Z2NpNeXs8dtaW6NJcXEzBI40UVZnZiAoA6k4q8t4335vXkbPHLZ/lbayJKq&#xA;SKY5tdljYOpKsAyWSsAd95Pl0VeroiRoscahEQBURRQADYAAYq3irsVdirsVSHzL5V/T91pbXF/N&#xA;DYaddw38lhEsXGee1lWa3LyMrOqpIgNFIrirFfL/AOSOk6M9oRrOoXkeni1i0+K4MJWG3sbz65BA&#xA;pWNWZVb4SWJNPDbFU10j8tYNF1xtW0jVbqzNzJM2pWoSB4rmOW/udQWMhoyyenJfSorIQeB8d8VS&#xA;6y/JnT7Gy0+G01i8jutHjtodIuysDNCllLO8CsvDjIPTumibkN132bfFV8f5L6ClrewG+u5H1GG3&#xA;ivJ39IvJJBqU+qtOaIq85Li6eu1AtAAMVTHWfy3tNT12bUTqV1bWd9LZXGq6ZEIvTuZdNkElsTIy&#xA;NLGKoocIw5BR03qqnflXy7a+W/L1lolrK81vYoUjllpzILFt+IA/a8MVTXFXYq7FXYq7FXYq7FXY&#xA;q7FXYq7FWE+aPyr0rVNUbzBol3N5Z82FafpvTgoM1Oi3lu37q5Tps4r4MMVStPPP5g+VQIfPHl9t&#xA;TsEFP8SeXUe5TiP27mwP+kRbbsY+a+G2Kss8r+ffJnmqH1fL2sWuo0HJ4opB6yD/AIshakqfJlGK&#xA;vJpXvtR1n8xbjTI49T1EasjjSHd7eeOOwtLa2i1Cxnhjll9SCVJVdFVydgAG+CVVD/lx5b82aXPr&#xA;sfmLULPXp/NEjanFpkAU6dq1rMnO5+rTuIkFzGT8KlF+H7VUKvEqyj8uru00/wA++a/W1T61p8+m&#xA;aVd215efu54ooZb21eG8aTi3qwPH6bcxy2+P46kqptqH50eW5bqTTfKFvcec9ZTY22kKJLaNjsDP&#xA;fNS2iXxPMkeGKoa3/LrzF5tvIdT/ADMuYZ7SGQTWXk2xJOmxMpqjXbsA15Iv+UBGDWikHFXpKqqq&#xA;FUBVUUVRsAB2GKt4q7FXYq7FXYqwj8yNd13SL3y22m3FwltcagsOo2dna/WbieFyqDg7RTRosbOG&#xA;kB4sU5FWBWhVeaaVrH5hWWiwWUljcwXOn6mj6VaraGSI2Lw3bfWfVKcjK09UdDQIvDY8uRVZn5N1&#xA;38x1sPMD680+pTRaJp+raYsNkltMLq6t52uLOJT8EjxywLxD7gtRsVYVo3nb879Y0SRlmuNOuIY9&#xA;auYriXTRLJMlpb2FzYRNzgtV5SNcyx8liHOjcRUBgqm+leZfOGufmJ5eTW4r22+oavJKdMGmyLZx&#xA;20miXSQXS3vE7ySzMjI79dgF4Hkq9txV2KuxV2KuxV2KuxV2KuxV2KuxV2KuxV2KuxVi/mb8sPIP&#xA;macXOs6JbzXynkt/GGt7sEdCLmAxzbf62KvK7zSh+XXmGPQNSup4fLOqXct/5U821Mt3pmoSCs9t&#xA;dyPX1oZAtT6leSV5V4llVSPU9cs9V/NrTbJdA1Ka4trfU4vMUmlq4t7a49aGT9J6Y5AkqZLUSMF6&#xA;sfhDuzeoqmXnnTPKx17QfNnmmwstXa0ZBqN8Y1ey1fSJlEY1BY/ij+s2RKPNHT+75EVQLxVet+ck&#xA;8zaN5JuV/LvS7GTVIU/0GxekECpTcxIgVGYfsqSqnx7FVgv/ADj1rf5iaj5P1O516EXet/pe5TUf&#xA;0jcS288UqRxD0vQFvIsaqnGiig9sVeofWfNX/Vusf+k6b/skxV31nzV/1brH/pOm/wCyTFXfWfNX&#xA;/Vusf+k6b/skxV31nzV/1brH/pOm/wCyTFXfWfNX/Vusf+k6b/skxVFWMurOX+v21vABT0zBO85J&#xA;715wwU/HFUPq/mbQtHlEWp3i2rtbXN6PUDcfq9mqtcPyA4/u1cEitaYqlUn5m+R4mu0n1MQSWUcc&#xA;08c0M8TmOaQQxtErxq0vKUiMemG+I8euKoQfm75FLNKNTj/R8UZee8IkHpuLqKz9NkKcgfWnVTXo&#xA;euKoy3/MvyRcQ6ZPDqatBrE31XT5vSmCPP6pgETMUpG5lBQLJxJOKo3yX5k/xN5X0/Xfq/1T69GZ&#xA;Pq/P1OFHK058Ur9n+XFU6xV2KuxV2KuxV2KuxV2KuxV2KuxV2KuxV2KuxV2KpF538pWnm3yzeaFc&#xA;zyWouQrQ3kIQywSxOJI5Yy4ajKyjcUPgQd8VeSabLfaMbjy35muHtr7yuv12y1q1j/e2tuQVTUba&#xA;FQfUsJaendW4qIWqKekV9JVIPKmoHzZ5r872Oo+W5G0LU47e+u4oYnhMojQ2smpaZHMsc7FpechT&#xA;g3NWIJ5/BMq9U/JfXPV0CfyxPqEeqXfll1tIdRiYMt3p7rysLkEFhVoh6b/EaOjA4q9CCKpYqACx&#xA;qxA6mgFT9AxVvFXYq7FXYq7FXYqxzzt5E0bzfb6fBqbSIun3S3SmEhTInFo5beSoNYp43KSL3HvT&#xA;FWEa9+Q9h9c13XdJvb19Z1NxPAnrxQPFOLyG8WRLpoZpCYngPprJyUKeNB9rFUR5V/JuWJf0lr9/&#xA;K+sz3hvZljeORRx1eHVYldxDCGflaor8UVd24jocVV9b/Ijy3q2s2WqTX95G9jey6hHAvotF6st8&#xA;L/4VeN/T/eVUtHxZk+EtTFWbeVfLtr5b8vWWiWsrzW9ihSOWWnMgsW34gD9rwxVNcVdirsVdirsV&#xA;dirsVdirsVdirsVdirsVdirsVdirsVYr5/8AKFzrlnbaho8y2XmrRXa50K/YfCJGFJLeam7QXCjh&#xA;IvyPVRirzmHzNp03lmbVYrW808+X5mW+021jE+peW79QfUCR7CfTpQDVfshOnwbQqsN/Lq98w+WL&#xA;9PN+t2MuiXNrdXEXmfS52YibSNVvXmj1GBXqVjs7qYK/AsvCrfCzNzVfUQIIqNwehxV2KuxV2Kux&#xA;V2KuxV5v+cfmHz7pR0WDytPBp8N2119d1S5gluI0kijU20DCKC6KiZmY14b8OIYFhirCtX89fmJe&#xA;XusafFdC9WM6rZ3+jxabMsUdtHpryx3Ud6QvLjcqIuNeR5AU5b4qunt/O2p+crKxi1y8t9St/MEk&#xA;tlPc2azQ2NtP5fndGiDLGjxuzNFu5oy/zE8lUPZeefzb19o47821hp9zo8LzaXLa3Ky3gn01pLme&#xA;JlgkVWW5bgFMyheFCPiBxVUsvO/nLy5DdIttdCylW/trUw2Ulwfr0WiaXJp4YKjsAZPrC1pxqPi6&#xA;YqmNp5h/OLVAGg1hdPS5uruyRX01JGiEGnLeRTBmIB5zBo2qtKGg+LfFXrnli/vNR8taTqF6np3l&#xA;5Z289zGFKhZZYld14ncUYnbFUyxV2KuxV2KuxV2KuxV2KuxV2KuxV2KuxV2KuxV2KvNPzL8ta5pW&#xA;pr+Ynk6MvrljGI9c0tASNTsE3KlB9qaEbx0+Ij4RvxGKvKPzS8++Q5vLGgpY6ki6de3sLjTIqS32&#xA;mQTqVulSJSPUsJ4ZNomIWtFWqkLEq9j/ACd1XVV0S48o6+1fMHlR0sp5Kk/WLNl5WN0pO5WSEcST&#xA;vyVq0O2Ks/xV2KuxV2KuxV2KuxVRtbKztPW+rQpD68jTzcABzlf7TtTqxp1xVWxV2KuxV2KuxV2K&#xA;uxV2KuxV2KuxV2KuxV2KuxV2KuxV2KuxV2KuxV2KvG/MugD8v/NQ8wacY7Py3q84E80g/wBH0++m&#xA;kDBbig2sbuWlT/uiY81oGYFVg+qfmHpnlD889Deymkh059P/AEdr+jSUP6Oha4Y8VkHwtDA59ZNy&#xA;Ei5caIQFVT/X/wAxPzWX89PL/l7V9Jn0byhLdTfU1s5I2bUWht5Wi5XbtHHRpApMFV22bkaYq9o/&#xA;TOo/9WG+/wCDsf8AspxV36Z1H/qw33/B2P8A2U4q79M6j/1Yb7/g7H/spxV36Z1H/qw33/B2P/ZT&#xA;iqY20sk0CSSQvbu3WGUoXXfuY2kT7mxVjv5i+c/8HeWzrP1eK5/0q1teNxObWFPrU6QepLMI5yqR&#xA;8+TUQ7DFUD5U/Nby7rfle31y5J08yWq3s1sQ8/CCS5ktYpBIifGskkJ47BqfaUYqo3X5zeRre4kM&#xA;l8I9OtY757y+liuowH06WGGaOEGDhMVknCtxevKgUNXZVL/Mf58+TdP8p3mt6Y8uo3UFtcTpY/Vr&#xA;pGR7eQwlLsiJja1mHpgygVPSuKsi80/mZ5L8q3qWWuXz21w0STkJbXM6rFJIYkd3hjkVQ0q8BU/a&#xA;IHcYqh7X82/INzptxqKakyW9pa3N9drJbXKSQwWcvoXBkiaPmrRyfCUpy8BTFVWX8z/KKG7VZbqZ&#xA;7S+OlBIbK6kae9Tn6kNsFjPrtH6L+p6dQgWrUFDiqSH88vJ1h9aPmCdtMCajPZWitFcPI0MEcDtc&#xA;TxiPnAq/WVD+oBx796KvRsVdirsVdirsVdirsVdirsVdirsVdirsVdirsVdiqH1HT7HUrC40+/gS&#xA;5sruNobm3kHJHjccWVh4EHFXhEHlLQvKWtv5E1KztLX9Kx3EPlTzE8Kxx6ja3X+9Gj6pIihmm6BJ&#xA;ftN8LD46q6rPPyh1e41HQJvLPmGEt5h8n3CWN3HdBXlaNBzsbvuCZIafGDuysQaYq9DxV2KuxV2K&#xA;uxVJvNvle28y6Umnz3dxYmG6tr2C7tDEJo57OZZ4WX1o54zSSMVDIa4qw6D8hPK1ta2ltaapq1tH&#xA;BC1vd+nPEPriveG+rcgwlSwnJIMYTYlfs7YqjNT/ACV8o6lpsGnXct29vbDUvSq8JIfVb+PUZHIM&#xA;RUmK4gQxAjjTZw+KoPUfyG8s31o1udU1G0M9jNpl/JY/UbP61ayymZUmit7WOD907ngUjU7kNyqc&#xA;VZL5h8i6L5guL57uedJLy3tLWdYXjHFLO6a8iIDI9GZ2o1f2elOuKsd1z8i/LGry30janqlmdTGo&#xA;JqAtZoUE0WpyLNLE3OF/gSSMMlN+zFhtiqNn/KTTZdbutdXWtTh1ie8jv4LyI2afVpI4ZbekUX1b&#xA;0XDQXDRO0yO5UL8XwjFUNd/kh5XutQ/SU13dSai8889xdTRafc+qbkQiRGiuLSaECturAoisCWoa&#xA;GmKvQ8VdirsVdirsVdirsVdirsVdirsVdirsVdirsVdirsVY/wCe/JOj+c/LdzoeqLRJfjtrlQDJ&#xA;bzr/AHc0de6nt0YVU7E4q8M0zzp5g8oeddOm821+vaQU0HzJfgsyy6bdPWxu5WapZIpvijmO/BpY&#xA;5D6ihpVX0nirsVdirsVdirFPzQvdbsvJl7c6Jc3FrqMZjaJrS1kvJnVXDPCixw3RjMqAoJTEwStS&#xA;MVYIfNP5lX1zPoK2ut2s9zdPJDfPYxII9Nm8uvJDG91HF6CzjVFHIjcP8NQtFxVQ0jzf+Y0DaXpi&#xA;Qa3cxXjeXnt7u60yhjt3u/S1mO6cW8YjaNPhPMcglHU0+PFULBqH53Raj5ZjudVvAl3b211dSz6a&#xA;fTe6luik9ncR2ljOYlS2VTVmh+Jmk5UXiqqbea7v8xNK8+6/d6Pa3aaNdWZ9G6s7T63JLqMWnyfV&#xA;UdWjkpAHBq6A/vOCtRSaqoRNW/Nayu/qmtahqraHNJYz3mtWmmI17bi4sJXkt4YoreZWjW8jRWb0&#xA;WZA3FjvyxVKzqn5s2thrV/fXutQa3c6VpV3Z20WnPPDJwdluoIxBaXaWt1IoAKkHiXLMpC1RV7tp&#xA;U0k+l2c0izJJLBG7pdKqTgsgJEqoAiyfzBRSvTFUVirsVdirsVdirsVdirsVdirsVdirsVdirsVd&#xA;irsVdirsVYJ+a35ff4m0v69p0Ub6/ZQyxRRSHjFfWko/f6fcH/fcw+y3WOTi60oaqpZ/zj/57/xL&#xA;5Nk0u7aUa15YmOl38V0ONzwiqLd5l7SGNeEn/Fivir07FXYq7FXYq7FXYq7FXYq7FXYq7FXYq7FX&#xA;Yq7FXYq7FXYq7FXYq7FXYq7FXYq7FXYq7FXYq7FXYq7FXn2teVf8O+fo/P8Ao6FbfUEWx832ifZk&#xA;g6Q34H89s1PUP++uR6jdV6DirsVdirsVdirsVdirsVdirsVdirsVdirsVdirsVdirsVdirsVdirs&#xA;VdirsVdirTOiCrMFBIFSabsaAfSTireKuxV2KuxV2KuxV2KuxV2KuxV2KuxV2KuxV2KuxV2KuxV2&#xA;KuxV2KuxV2KuxV2KuxV2KuxV2KuxVA6xffU7QuUuOD1Rri1jEzw8gaS+nR2YA+CN7jjXFWB3HmWO&#xA;S+tPrM8LPfTafC88Lqbadre+SaC5tyCfhmh9bnUng0fGpoGZVGaP5rWSVblJykV5cSXdwEjaWe5d&#xA;gEhs7eEBmrBD6X1iRRRGBU0PMoqzyF2eJHaNomZQzRPxLKSK8W4llqPYkYquxV2KuxV2KuxV2Kux&#xA;V2KuxV2KuxV2KuxV2KuxV2KuxV2KuxV2KuxV2KuxV2KuxV2KuxV2Ksf81xlUW7dVS3gWs1zJqdzp&#xA;ka/F8IY24bnUn9rFXk9yunwed4LzX9Cl8w6dcxNbR2LW0LtFeXLKYpXiuPRMhmWJkEk6rINtuBBx&#xA;VFeQle2tppGX6pa3dzILSCW5exSGKWQz2lrJqFqs0jFIZ4/TSUqrch6fNTuq9cspINK0dpdQK2EN&#xA;sHe4luLpp0RQSS7XM5DFe9XpQYqlnkf8wfL/AJ2t7+98vtJcaZYXJsxqDKEinlVFd/RBPMqodfiZ&#xA;QCelaYqyXFXYq7FXYq7FXYq7FUh8+eaIvK3k7V/MEnp8rC3eSBZTxjadvggR2JWgeVlUmvfFWE6d&#xA;+elmvlDS9VvNOn1a+mttQn1P9BCKe2iGjzx299MjSzKTFWZZIqFiyH71WS3X5naHBavcJaXt1xuL&#xA;y1SG3iSSWSSxtWu3CJzBPONKJ3LUqB1xVO/K+vReYPL9jrUMLW8N/EJooneGUhG+yedu80RDD4hR&#xA;unWhqAqmmKuxV2KuxV2KuxV2KuxV2KuxV2KuxV2KuxV2KuxVD3tnHcxqSkRuISZLSWaMSiKbiVWQ&#xA;LVTUcj0INNq4qxafyrcQ3UckatcC3ks3FwxBmnnmv4pr6eWhptHbxcNgFUFVAUAYqjNM8rvb3Ltt&#xA;EkMstuAVV0utOlrKkEkewUQPM0cfcBfBzVVG+YvJ/lvzF5el8vavYRXGjyosYtacFQJ9gx8acClP&#xA;hK9MVYh+WX5K6D5I0/UtJaO31fTZrxrvTZbuCN7qKORFVoZHK0YKUqpAHU7YqzL/AAn5V/6s1j/0&#xA;jQ/804q7/CflX/qzWP8A0jQ/804q7/CflX/qzWP/AEjQ/wDNOKu/wn5V/wCrNY/9I0P/ADTirv8A&#xA;CflX/qzWP/SND/zTirv8J+Vf+rNY/wDSND/zTiqY21rbWsCW9tEkEEeyRRKERQTXZVoBiqH1TR9O&#xA;1RLeO/i9ZLW4hvIE5OoE9u4kichSvLg4DANUVANNsVSuTyF5TkvNQvHsa3GqR3cN8wlmAdL9LeO6&#xA;AUPxT1FsoalQDVajdmqqgh+VPkVdXn1eKwlg1G45l54Ly8hIeWD6tJJGI5lEcjQ0UugDbA1qK4qn&#xA;nl7y9pPl7SINI0iEwWFuZGijaSSVuUsjSyM0krO7FpHZiS3fFUxxV2KuxV2Kv//Z</xmpGImg:image>
               </rdf:li>
            </rdf:Alt>
         </xmp:Thumbnails>
      </rdf:Description>
      <rdf:Description rdf:about=""
            xmlns:xmpTPg="http://ns.adobe.com/xap/1.0/t/pg/"
            xmlns:stDim="http://ns.adobe.com/xap/1.0/sType/Dimensions#"
            xmlns:xmpG="http://ns.adobe.com/xap/1.0/g/">
         <xmpTPg:NPages>1</xmpTPg:NPages>
         <xmpTPg:HasVisibleTransparency>False</xmpTPg:HasVisibleTransparency>
         <xmpTPg:HasVisibleOverprint>False</xmpTPg:HasVisibleOverprint>
         <xmpTPg:MaxPageSize rdf:parseType="Resource">
            <stDim:w>326.656250</stDim:w>
            <stDim:h>260.851562</stDim:h>
            <stDim:unit>Pixels</stDim:unit>
         </xmpTPg:MaxPageSize>
         <xmpTPg:PlateNames>
            <rdf:Seq>
               <rdf:li>Cyan</rdf:li>
               <rdf:li>Magenta</rdf:li>
               <rdf:li>Yellow</rdf:li>
               <rdf:li>Black</rdf:li>
            </rdf:Seq>
         </xmpTPg:PlateNames>
         <xmpTPg:SwatchGroups>
            <rdf:Seq>
               <rdf:li rdf:parseType="Resource">
                  <xmpG:groupName>Default Swatch Group</xmpG:groupName>
                  <xmpG:groupType>0</xmpG:groupType>
               </rdf:li>
            </rdf:Seq>
         </xmpTPg:SwatchGroups>
      </rdf:Description>
      <rdf:Description rdf:about=""
            xmlns:dc="http://purl.org/dc/elements/1.1/">
         <dc:format>image/svg+xml</dc:format>
      </rdf:Description>
      <rdf:Description rdf:about=""
            xmlns:xmpMM="http://ns.adobe.com/xap/1.0/mm/"
            xmlns:stRef="http://ns.adobe.com/xap/1.0/sType/ResourceRef#"
            xmlns:stEvt="http://ns.adobe.com/xap/1.0/sType/ResourceEvent#">
         <xmpMM:RenditionClass>proof:pdf</xmpMM:RenditionClass>
         <xmpMM:DocumentID>xmp.did:4E677B474620681188C69098C6AB8D67</xmpMM:DocumentID>
         <xmpMM:InstanceID>xmp.iid:4E677B474620681188C69098C6AB8D67</xmpMM:InstanceID>
         <xmpMM:OriginalDocumentID>uuid:ff597ab8-4dc8-4d6e-bada-d1087bc04ae2</xmpMM:OriginalDocumentID>
         <xmpMM:DerivedFrom rdf:parseType="Resource">
            <stRef:instanceID>uuid:ffb0bab1-8e8c-b849-a932-0a273b8f7e0e</stRef:instanceID>
            <stRef:documentID>uuid:ff597ab8-4dc8-4d6e-bada-d1087bc04ae2</stRef:documentID>
            <stRef:originalDocumentID>uuid:ff597ab8-4dc8-4d6e-bada-d1087bc04ae2</stRef:originalDocumentID>
            <stRef:renditionClass>proof:pdf</stRef:renditionClass>
         </xmpMM:DerivedFrom>
         <xmpMM:History>
            <rdf:Seq>
               <rdf:li rdf:parseType="Resource">
                  <stEvt:action>saved</stEvt:action>
                  <stEvt:instanceID>xmp.iid:4E677B474620681188C69098C6AB8D67</stEvt:instanceID>
                  <stEvt:when>2015-02-12T18:11:31+02:00</stEvt:when>
                  <stEvt:softwareAgent>Adobe Illustrator CS5.1</stEvt:softwareAgent>
                  <stEvt:changed>/</stEvt:changed>
               </rdf:li>
            </rdf:Seq>
         </xmpMM:History>
      </rdf:Description>
   </rdf:RDF>
</x:xmpmeta>
                                                                                                    
                                                                                                    
                                                                                                    
                                                                                                    
                                                                                                    
                                                                                                    
                                                                                                    
                                                                                                    
                                                                                                    
                                                                                                    
                                                                                                    
                                                                                                    
                                                                                                    
                                                                                                    
                                                                                                    
                                                                                                    
                                                                                                    
                                                                                                    
                                                                                                    
                                                                                                    
                           
<?xpacket end="w"?>
	</metadata>
<g>
	
		<polyline fill="none" stroke="#000000" stroke-width="1.5024" stroke-miterlimit="10" stroke-dasharray="7.5118,4.5071,1.5024,4.5071" points="
		75.138,0.392 74.61,6.817 74.458,11.58 74.382,16.267 74.458,20.954 74.61,25.641 74.987,30.253 75.517,34.79 76.199,39.25 
		76.955,43.634 77.861,47.944 78.996,52.253 80.204,56.336 81.565,60.418 83.076,64.35 84.74,68.204 86.556,71.909 88.446,75.463 
		90.488,78.94 92.754,82.267 95.097,85.442 97.592,88.541 100.238,91.414 102.958,94.211 105.908,96.857 109.007,99.353 
		112.334,101.771 115.737,103.964 119.365,106.005 123.221,107.971 127.228,109.71 131.461,111.222 134.864,112.28 138.189,112.733 
		142.272,112.961 146.128,112.961 149.756,112.583 153.159,112.054 156.333,111.222 159.357,110.163 162.306,108.878 
		165.105,107.366 167.751,105.627 170.32,103.662 172.892,101.393 175.309,98.899 177.728,96.102 179.921,93.002 182.115,89.675 
		184.307,86.047 186.273,82.115 188.238,77.882 190.051,73.346 191.715,68.659 193.228,63.593 194.587,58.377 195.875,52.858 
		196.931,47.188 197.915,41.215 198.67,35.092 199.275,28.817 199.728,22.315 200.032,15.662 200.181,8.858 200.106,0.392 	"/>
	<path fill="none" stroke="#000000" stroke-width="2.0001" stroke-miterlimit="10" d="M55.105,0.089
		c-5.142,57.607,16.857,116.35,75.675,132.98c60.783,10.057,90.948-50.878,89.285-131.619"/>
	<path fill="none" stroke="#000000" stroke-width="1.5024" stroke-miterlimit="10" d="M134.032,59.889
		c-0.907-3.932-6.274-4.764-15.802-1.663c-6.047,1.966-12.021,2.419-17.992,0c-8.164-3.326-12.398-9.903-12.7-19.202
		c-0.453-11.945-4.762-18.295-11.417-20.942C63.798,13.243,49.36,20.048,32.273,34.94c-11.114,9.753-22.302,9.753-31.601-8.997"/>
	<g>
		
			<line fill="none" stroke="#000000" stroke-width="0.5" stroke-miterlimit="10" x1="140.029" y1="232.124" x2="140.029" y2="260.851"/>
		
			<line fill="none" stroke="#000000" stroke-width="0.5" stroke-miterlimit="10" x1="144.943" y1="232.956" x2="135.115" y2="259.944"/>
		
			<line fill="none" stroke="#000000" stroke-width="0.5" stroke-miterlimit="10" x1="149.328" y1="235.45" x2="130.806" y2="257.451"/>
		
			<line fill="none" stroke="#000000" stroke-width="0.5" stroke-miterlimit="10" x1="152.503" y1="239.305" x2="127.63" y2="253.67"/>
		
			<line fill="none" stroke="#000000" stroke-width="0.5" stroke-miterlimit="10" x1="154.242" y1="243.992" x2="125.892" y2="248.983"/>
		
			<line fill="none" stroke="#000000" stroke-width="0.5" stroke-miterlimit="10" x1="154.242" y1="248.983" x2="125.892" y2="243.992"/>
		
			<line fill="none" stroke="#000000" stroke-width="0.5" stroke-miterlimit="10" x1="152.503" y1="253.67" x2="127.63" y2="239.305"/>
		
			<line fill="none" stroke="#000000" stroke-width="0.5" stroke-miterlimit="10" x1="149.328" y1="257.451" x2="130.806" y2="235.45"/>
		
			<line fill="none" stroke="#000000" stroke-width="0.5" stroke-miterlimit="10" x1="144.943" y1="259.944" x2="135.115" y2="232.956"/>
		<path fill="#FFFFFF" stroke="#000000" stroke-width="1.0001" stroke-miterlimit="10" d="M140.029,249.967
			c1.967,0,3.478-1.588,3.478-3.479c0-1.892-1.511-3.479-3.478-3.479c-1.891,0-3.402,1.587-3.402,3.479
			C136.626,248.379,138.138,249.967,140.029,249.967z"/>
	</g>
	<path stroke="#000000" stroke-width="0.0448" stroke-linecap="round" stroke-linejoin="round" stroke-miterlimit="10" d="
		M158.841,253.499l7.115,4.903c-1.123-3.194-1.248-6.157-0.062-9.466L158.841,253.499z"/>
	<path stroke="#000000" stroke-width="0.0448" stroke-linecap="round" stroke-linejoin="round" stroke-miterlimit="10" d="
		M139.227,144.836l12.885,4.904c-2.053-3.307-2.165-6.271,0-9.578L139.227,144.836z"/>
	
		<line fill="none" stroke="#000000" stroke-width="0.5" stroke-miterlimit="10" x1="165.207" y1="253.612" x2="234.481" y2="253.612"/>
	
		<line fill="none" stroke="#000000" stroke-width="0.5" stroke-miterlimit="10" x1="189.662" y1="20.286" x2="234.539" y2="20.286"/>
	
		<line fill="none" stroke="#000000" stroke-width="0.5" stroke-miterlimit="10" x1="200.875" y1="80.602" x2="234.539" y2="80.602"/>
	
		<line fill="none" stroke="#000000" stroke-width="0.5" stroke-miterlimit="10" x1="173.25" y1="136.929" x2="237.706" y2="136.929"/>
	<g>
		<g>
			<g>
				<defs>
					<polygon id="SVGID_2_" points="133.503,134.279 145.75,26.096 156.484,131.937 198.67,217.139 					"/>
				</defs>
				<clipPath id="SVGID_3_">
					<use xlink:href="#SVGID_2_"  overflow="visible"/>
				</clipPath>
				<g clip-path="url(#SVGID_3_)">
					<path fill="#FFFFFF" d="M134.18,26.077c21.393,21.675,42.892,43.246,64.494,64.711c0,1.427,0,2.854,0,4.28
						c-21.993-21.577-43.214-43.93-65.248-65.467C133.764,28.515,132.656,25.975,134.18,26.077z"/>
					<path d="M134.18,26.077c0.501,0,1.004,0,1.505,0c20.893,21.172,41.889,42.237,62.989,63.2c0,0.503,0,1.007,0,1.511
						C177.072,69.323,155.573,47.752,134.18,26.077z"/>
					<path fill="#FFFFFF" d="M135.685,26.077c1.423,0,2.844,0,4.268,0c19.47,19.745,39.042,39.384,58.723,58.92
						c0,1.427,0,2.854,0,4.28C177.574,68.314,156.578,47.249,135.685,26.077z"/>
					<path d="M139.953,26.077c0.5,0,1.004,0,1.504,0c18.969,19.241,38.041,38.378,57.219,57.408c0,0.504,0,1.007,0,1.512
						C178.995,65.461,159.422,45.822,139.953,26.077z"/>
					<path fill="#FFFFFF" d="M141.457,26.077c1.424,0,2.846,0,4.269,0c17.545,17.813,35.195,35.524,52.95,53.128
						c0,1.427,0,2.854,0,4.28C179.498,64.455,160.425,45.318,141.457,26.077z"/>
					<path d="M145.724,26.077c0.501,0,1.004,0,1.505,0c17.044,17.312,34.191,34.517,51.445,51.617c0,0.504,0,1.008,0,1.511
						C180.92,61.602,163.269,43.891,145.724,26.077z"/>
					<path fill="#FFFFFF" d="M147.229,26.077c1.423,0,2.845,0,4.267,0c15.621,15.884,31.35,31.663,47.18,47.337
						c0,1.427,0,2.854,0,4.28C181.421,60.594,164.273,43.388,147.229,26.077z"/>
					<path d="M151.496,26.077c0.502,0,1.004,0,1.506,0c15.119,15.38,30.345,30.655,45.674,45.826c0,0.503,0,1.008,0,1.511
						C182.844,57.74,167.117,41.961,151.496,26.077z"/>
					<path fill="#FFFFFF" d="M153.001,26.077c1.422,0,2.845,0,4.268,0c13.695,13.953,27.5,27.802,41.406,41.546
						c0,1.427,0,2.854,0,4.28C183.345,56.732,168.121,41.457,153.001,26.077z"/>
					<path d="M157.268,26.077c0.417,0,0.837,0,1.255,0c13.277,13.533,26.662,26.963,40.151,40.287c0,0.42,0,0.839,0,1.259
						C184.768,53.879,170.964,40.03,157.268,26.077z"/>
					<path fill="#FFFFFF" d="M158.523,26.077c1.506,0,3.011,0,4.518,0c11.771,12.023,23.652,23.941,35.635,35.755
						c0,1.511,0,3.021,0,4.532C185.185,53.04,171.801,39.61,158.523,26.077z"/>
					<path d="M163.041,26.077c0.417,0,0.836,0,1.254,0c11.355,11.604,22.815,23.103,34.381,34.495c0,0.42,0,0.84,0,1.26
						C186.693,50.019,174.812,38.101,163.041,26.077z"/>
					<path fill="#FFFFFF" d="M164.294,26.077c1.421,0,2.845,0,4.267,0c9.934,10.177,19.973,20.248,30.114,30.215
						c0,1.427,0,2.854,0,4.28C187.11,49.179,175.65,37.681,164.294,26.077z"/>
					<path d="M168.56,26.077c0.502,0,1.004,0,1.506,0c9.432,9.673,18.968,19.241,28.608,28.704c0,0.504,0,1.007,0,1.511
						C188.533,46.325,178.494,36.254,168.56,26.077z"/>
					<path fill="#FFFFFF" d="M170.066,26.077c1.422,0,2.844,0,4.266,0c8.01,8.246,16.125,16.388,24.344,24.424
						c0,1.427,0,2.854,0,4.28C189.034,45.318,179.498,35.75,170.066,26.077z"/>
					<path d="M174.332,26.077c0.503,0,1.004,0,1.506,0c7.509,7.742,15.12,15.38,22.838,22.913c0,0.503,0,1.007,0,1.511
						C190.457,42.465,182.341,34.323,174.332,26.077z"/>
					<path fill="#FFFFFF" d="M175.837,26.077c1.338,0,2.679,0,4.017,0c6.133,6.354,12.307,12.664,18.821,18.633
						c0,1.428,0,2.854,0,4.28C190.958,41.457,183.345,33.819,175.837,26.077z"/>
					<path d="M179.853,26.077c0.502,0,1.004,0,1.506,0c5.647,5.831,11.274,11.684,17.315,17.122c0,0.503,0,1.007,0,1.511
						C192.16,38.741,185.986,32.43,179.853,26.077z"/>
					<path fill="#FFFFFF" d="M181.359,26.077c1.422,0,2.845,0,4.266,0c4.285,4.346,8.351,8.914,13.051,12.842
						c0,1.428,0,2.854,0,4.28C192.634,37.76,187.007,31.908,181.359,26.077z"/>
					<path d="M185.625,26.077c0.503,0,1.004,0,1.507,0c3.743,3.966,7.592,7.826,11.544,11.583c0,0.419,0,0.839,0,1.259
						C193.974,34.991,189.91,30.423,185.625,26.077z"/>
					<path fill="#FFFFFF" d="M187.131,26.077c1.422,0,2.846,0,4.267,0c2.32,2.539,4.747,4.973,7.277,7.303c0,1.428,0,2.854,0,4.28
						C194.722,33.903,190.875,30.043,187.131,26.077z"/>
					<path d="M191.397,26.077c0.503,0,1.004,0,1.507,0c1.818,2.035,3.742,3.966,5.771,5.791c0,0.504,0,1.007,0,1.512
						C196.144,31.05,193.718,28.616,191.397,26.077z"/>
					<path fill="#FFFFFF" d="M192.904,26.077c1.421,0,2.844,0,4.266,0c0.396,0.61,0.898,1.113,1.506,1.511c0,1.428,0,2.854,0,4.28
						C196.646,30.043,194.722,28.112,192.904,26.077z"/>
					<path d="M197.169,26.077c0.502,0,1.003,0,1.506,0c0,0.504,0,1.007,0,1.511C198.068,27.19,197.565,26.688,197.169,26.077z"/>
					<path d="M133.427,29.602c22.033,21.537,43.254,43.89,65.247,65.467c0,0.503,0,1.007,0,1.511
						c-22.002-21.57-43.214-43.93-65.247-65.466C133.427,30.609,133.427,30.106,133.427,29.602z"/>
					<path fill="#FFFFFF" d="M133.427,31.113c22.033,21.536,43.245,43.896,65.247,65.466c0,1.427,0,2.854,0,4.28
						c-22.018-21.554-43.219-43.925-65.247-65.466C133.427,33.967,133.427,32.54,133.427,31.113z"/>
					<path d="M133.427,35.394c22.028,21.541,43.229,43.912,65.247,65.466c0,0.504,0,1.007,0,1.511
						c-22.021-21.549-43.222-43.921-65.247-65.466C133.427,36.4,133.427,35.897,133.427,35.394z"/>
					<path fill="#FFFFFF" d="M133.427,36.904c22.025,21.545,43.227,43.917,65.247,65.466c0,1.427,0,2.854,0,4.28
						c-22.028-21.541-43.231-43.91-65.247-65.466C133.427,39.758,133.427,38.331,133.427,36.904z"/>
					<path d="M133.427,41.185c22.016,21.556,43.219,43.925,65.247,65.466c0,0.419,0,0.839,0,1.259
						c-22.032-21.538-43.235-43.905-65.247-65.466C133.427,42.024,133.427,41.604,133.427,41.185z"/>
					<path fill="#FFFFFF" d="M133.427,42.443c22.012,21.561,43.215,43.928,65.247,65.466c0,1.511,0,3.021,0,4.533
						c-22.035-21.536-43.256-43.888-65.247-65.467C133.427,45.466,133.427,43.954,133.427,42.443z"/>
					<path d="M133.427,46.976c21.991,21.579,43.212,43.931,65.247,65.467c0,0.419,0,0.839,0,1.259
						c-22.035-21.536-43.262-43.882-65.247-65.467C133.427,47.815,133.427,47.396,133.427,46.976z"/>
					<path fill="#FFFFFF" d="M133.427,48.234c21.985,21.585,43.212,43.931,65.247,65.467c0,1.427,0,2.854,0,4.28
						c-22.032-21.539-43.284-43.858-65.247-65.466C133.427,51.089,133.427,49.661,133.427,48.234z"/>
					<path d="M133.427,52.516c21.963,21.606,43.215,43.927,65.247,65.466c0,0.504,0,1.007,0,1.511
						c-22.028-21.541-43.294-43.849-65.247-65.466C133.427,53.522,133.427,53.02,133.427,52.516z"/>
					<path fill="#FFFFFF" d="M133.427,54.026c21.953,21.617,43.219,43.925,65.247,65.466c0,1.426,0,2.854,0,4.279
						c-22.021-21.549-43.319-43.821-65.247-65.465C133.427,56.879,133.427,55.452,133.427,54.026z"/>
					<path d="M133.427,58.307c21.928,21.644,43.227,43.916,65.247,65.465c0,0.504,0,1.009,0,1.511
						c-22.018-21.553-43.33-43.812-65.247-65.465C133.427,59.313,133.427,58.811,133.427,58.307z"/>
					<path fill="#FFFFFF" d="M133.427,59.817c21.917,21.652,43.229,43.912,65.247,65.465c0,1.428,0,2.854,0,4.281
						c-22.004-21.568-43.362-43.778-65.247-65.466C133.427,62.671,133.427,61.244,133.427,59.817z"/>
					<path d="M133.427,64.098c21.885,21.688,43.243,43.896,65.247,65.466c0,0.419,0,0.84,0,1.259
						c-22.247-21.237-43.334-43.641-65.247-65.214C133.427,65.105,133.427,64.602,133.427,64.098z"/>
					<path fill="#FFFFFF" d="M133.427,65.608c21.913,21.573,43,43.977,65.247,65.214c0,1.427,0,2.854,0,4.281
						c-22.225-21.264-43.37-43.604-65.247-65.215C133.427,68.462,133.427,67.035,133.427,65.608z"/>
					<path d="M133.427,69.889c21.877,21.609,43.022,43.951,65.247,65.215c0,0.503,0,1.007,0,1.51
						c-22.213-21.273-43.387-43.588-65.247-65.214C133.427,70.896,133.427,70.393,133.427,69.889z"/>
					<path fill="#FFFFFF" d="M133.427,71.399c21.86,21.626,43.034,43.939,65.247,65.214c0,1.428,0,2.854,0,4.281
						c-21.896-21.592-43.354-43.623-65.247-65.215C133.427,74.253,133.427,72.826,133.427,71.399z"/>
					<path d="M133.427,75.68c21.895,21.592,43.352,43.624,65.247,65.215c0,0.504,0,1.007,0,1.511
						c-21.896-21.591-43.354-43.624-65.247-65.214C133.427,76.688,133.427,76.185,133.427,75.68z"/>
					<path fill="#FFFFFF" d="M133.427,77.191c21.895,21.59,43.352,43.623,65.247,65.214c0,1.426,0,2.854,0,4.281
						c-21.896-21.594-43.354-43.624-65.247-65.217C133.427,80.044,133.427,78.618,133.427,77.191z"/>
					<path d="M133.427,81.471c21.895,21.592,43.352,43.622,65.247,65.216c0,0.502,0,1.007,0,1.509
						c-21.896-21.59-43.354-43.622-65.247-65.213C133.427,82.479,133.427,81.975,133.427,81.471z"/>
					<path fill="#FFFFFF" d="M133.427,82.982c21.895,21.591,43.352,43.623,65.247,65.213c0,1.428,0,2.854,0,4.281
						c-21.896-21.592-43.354-43.623-65.247-65.214C133.427,85.836,133.427,84.409,133.427,82.982z"/>
					<path d="M133.427,87.263c21.895,21.591,43.352,43.622,65.247,65.214c0,0.419,0,0.84,0,1.259
						c-21.896-21.591-43.354-43.623-65.247-65.214C133.427,88.102,133.427,87.683,133.427,87.263z"/>
					<path fill="#FFFFFF" d="M133.427,88.521c21.895,21.591,43.352,43.623,65.247,65.214c0,1.512,0,3.021,0,4.532
						c-21.896-21.592-43.354-43.622-65.247-65.215C133.427,91.543,133.427,90.032,133.427,88.521z"/>
					<path d="M133.427,93.054c21.895,21.592,43.352,43.622,65.247,65.214c0,0.42,0,0.839,0,1.259
						c-21.896-21.591-43.354-43.622-65.247-65.214C133.427,93.893,133.427,93.474,133.427,93.054z"/>
					<path fill="#FFFFFF" d="M133.427,94.312c21.895,21.592,43.352,43.623,65.247,65.214c0,1.427,0,2.854,0,4.28
						c-21.896-21.591-43.354-43.623-65.247-65.215C133.427,97.166,133.427,95.739,133.427,94.312z"/>
					<path d="M133.427,98.593c21.895,21.592,43.352,43.624,65.247,65.215c0,0.505,0,1.007,0,1.512
						c-21.896-21.591-43.354-43.624-65.247-65.215C133.427,99.601,133.427,99.097,133.427,98.593z"/>
					<path fill="#FFFFFF" d="M133.427,100.104c21.895,21.591,43.352,43.624,65.247,65.215c0,1.426,0,2.854,0,4.28
						c-21.896-21.593-43.354-43.623-65.247-65.216C133.427,102.957,133.427,101.53,133.427,100.104z"/>
					<path d="M133.427,104.384c21.895,21.593,43.352,43.623,65.247,65.216c0,0.503,0,1.007,0,1.51
						c-21.896-21.591-43.354-43.622-65.247-65.213C133.427,105.392,133.427,104.888,133.427,104.384z"/>
					<path fill="#FFFFFF" d="M133.427,105.896c21.895,21.591,43.352,43.622,65.247,65.213c0,1.428,0,2.854,0,4.281
						c-21.896-21.592-43.354-43.624-65.247-65.215C133.427,108.749,133.427,107.322,133.427,105.896z"/>
					<path d="M133.427,110.176c21.895,21.591,43.352,43.623,65.247,65.215c0,0.419,0,0.84,0,1.259
						c-22.146-21.255-43.311-43.497-65.247-64.962C133.427,111.183,133.427,110.679,133.427,110.176z"/>
					<path fill="#FFFFFF" d="M133.427,111.687c21.938,21.465,43.101,43.707,65.247,64.962c0,1.428,0,2.854,0,4.281
						c-22.14-21.264-43.316-43.492-65.247-64.963C133.427,114.54,133.427,113.113,133.427,111.687z"/>
					<path d="M133.427,115.968c21.931,21.471,43.107,43.699,65.247,64.963c0,0.588,0,1.174,0,1.762
						c-21.896-21.591-43.354-43.622-65.247-65.215C133.427,116.975,133.427,116.469,133.427,115.968z"/>
					<path fill="#FFFFFF" d="M133.427,117.477c21.895,21.593,43.352,43.624,65.247,65.215c0,1.427,0,2.854,0,4.28
						c-21.676-21.896-43.37-43.771-65.247-65.467C133.427,120.163,133.427,118.821,133.427,117.477z"/>
					<path d="M133.427,121.506c21.877,21.695,43.571,43.569,65.247,65.467c0,0.505,0,1.007,0,1.512
						c-21.684-21.891-43.366-43.777-65.247-65.467C133.427,122.513,133.427,122.01,133.427,121.506z"/>
					<path fill="#FFFFFF" d="M133.427,123.017c21.881,21.688,43.563,43.576,65.247,65.467c0,1.426,0,2.854,0,4.279
						c-21.711-21.859-43.347-43.796-65.247-65.466C133.427,125.87,133.427,124.444,133.427,123.017z"/>
					<path d="M133.427,127.298c21.9,21.67,43.536,43.605,65.247,65.466c0,0.504,0,1.008,0,1.511
						c-21.723-21.85-43.34-43.801-65.247-65.466C133.427,128.305,133.427,127.801,133.427,127.298z"/>
					<path fill="#FFFFFF" d="M133.427,128.808c21.907,21.665,43.524,43.616,65.247,65.466c0,1.428,0,2.854,0,4.281
						c-21.752-21.821-43.319-43.821-65.247-65.468C133.427,131.662,133.427,130.235,133.427,128.808z"/>
					<path d="M133.427,133.088c21.928,21.646,43.495,43.646,65.247,65.468c0,0.419,0,0.84,0,1.259
						c-21.764-21.81-43.312-43.829-65.247-65.466C133.427,133.927,133.427,133.508,133.427,133.088z"/>
					<path fill="#FFFFFF" d="M133.427,134.348c21.936,21.637,43.483,43.656,65.247,65.466c0,1.511,0,3.021,0,4.531
						c-21.799-21.771-43.291-43.852-65.247-65.465C133.427,137.369,133.427,135.858,133.427,134.348z"/>
					<path d="M133.427,138.881c21.956,21.613,43.448,43.692,65.247,65.465c0,0.421,0,0.84,0,1.26
						c-21.809-21.766-43.286-43.856-65.247-65.465C133.427,139.719,133.427,139.3,133.427,138.881z"/>
					<path fill="#FFFFFF" d="M133.427,140.14c21.961,21.607,43.438,43.699,65.247,65.465c0,1.427,0,2.854,0,4.279
						c-21.844-21.727-43.266-43.877-65.247-65.466C133.427,142.993,133.427,141.565,133.427,140.14z"/>
					<path d="M133.427,144.419c21.981,21.589,43.403,43.739,65.247,65.466c0,0.506,0,1.008,0,1.513
						c-21.855-21.716-43.259-43.884-65.247-65.467C133.427,145.426,133.427,144.923,133.427,144.419z"/>
					<path fill="#FFFFFF" d="M133.427,145.93c21.988,21.583,43.392,43.751,65.247,65.467c0,1.426,0,2.854,0,4.278
						c-21.888-21.684-43.242-43.898-65.247-65.465C133.427,148.783,133.427,147.357,133.427,145.93z"/>
					<path d="M133.427,150.211c22.005,21.565,43.359,43.781,65.247,65.465c-0.146,0.443,0.304,1.479-0.252,1.512
						c-21.562-21.925-43.112-43.861-64.995-65.465C133.427,151.218,133.427,150.714,133.427,150.211z"/>
					<path fill="#FFFFFF" d="M133.427,151.722c21.883,21.604,43.434,43.54,64.995,65.465c-1.422,0-2.844,0-4.266,0
						c-20.129-20.508-40.275-41.004-60.729-61.187C133.427,154.575,133.427,153.147,133.427,151.722z"/>
					<path d="M133.427,156.001c20.454,20.183,40.602,40.679,60.729,61.187c-0.503,0-1.004,0-1.506,0
						c-19.624-20.011-39.271-39.993-59.226-59.674C133.427,157.008,133.427,156.506,133.427,156.001z"/>
					<path fill="#FFFFFF" d="M133.427,157.513c19.952,19.681,39.601,39.663,59.225,59.674c-1.422,0-2.845,0-4.266,0
						c-18.185-18.602-36.438-37.131-54.959-55.395C133.427,160.366,133.427,158.939,133.427,157.513z"/>
					<path d="M133.427,161.793c18.521,18.264,36.774,36.793,54.959,55.395c-0.505,0-1.005,0-1.508,0
						c-17.675-18.104-35.437-36.121-53.451-53.885C133.427,162.8,133.427,162.296,133.427,161.793z"/>
					<path fill="#FFFFFF" d="M133.427,163.302c18.016,17.764,35.776,35.779,53.451,53.885c-1.338,0-2.676,0-4.015,0
						c-16.473-16.624-32.883-33.312-49.438-49.854C133.427,165.989,133.427,164.646,133.427,163.302z"/>
					<path d="M133.427,167.332c16.555,16.542,32.965,33.23,49.438,49.854c-0.502,0-1.004,0-1.506,0
						c-15.969-16.123-31.886-32.298-47.932-48.345C133.427,168.339,133.427,167.836,133.427,167.332z"/>
					<path fill="#FFFFFF" d="M133.427,168.843c16.046,16.047,31.963,32.222,47.932,48.345c-1.422,0-2.844,0-4.268,0
						c-14.531-14.711-29.066-29.418-43.664-44.062C133.427,171.696,133.427,170.271,133.427,168.843z"/>
					<path d="M133.427,173.124c14.598,14.646,29.133,29.353,43.664,44.062c-0.501,0-1.004,0-1.505,0
						c-14.023-14.213-28.073-28.401-42.159-42.553C133.427,174.131,133.427,173.626,133.427,173.124z"/>
					<path fill="#FFFFFF" d="M133.427,174.635c14.086,14.15,28.136,28.34,42.159,42.553c-1.423,0-2.844,0-4.268,0
						c-12.586-12.802-25.256-25.521-37.894-38.272C133.427,177.488,133.427,176.061,133.427,174.635z"/>
					<path d="M133.427,178.914c12.637,12.752,25.307,25.472,37.893,38.272c-0.417,0-0.836,0-1.254,0
						c-12.16-12.391-24.435-24.668-36.639-37.015C133.427,179.754,133.427,179.335,133.427,178.914z"/>
					<path fill="#FFFFFF" d="M133.427,180.173c12.204,12.347,24.479,24.624,36.639,37.015c-1.506,0-3.012,0-4.519,0
						c-10.628-10.906-21.464-21.604-32.12-32.48C133.427,183.195,133.427,181.685,133.427,180.173z"/>
					<path d="M133.427,184.706c10.656,10.876,21.492,21.574,32.12,32.48c-0.418,0-0.836,0-1.254,0
						c-10.205-10.492-20.637-20.756-30.866-31.223C133.427,185.545,133.427,185.125,133.427,184.706z"/>
					<path fill="#FFFFFF" d="M133.427,185.965c10.229,10.467,20.661,20.729,30.866,31.223c-1.424,0-2.844,0-4.266,0
						c-8.748-9.102-17.845-17.852-26.603-26.941C133.427,188.818,133.427,187.392,133.427,185.965z"/>
					<path d="M133.427,190.245c8.757,9.091,17.854,17.841,26.602,26.941c-0.503,0-1.006,0-1.506,0
						c-8.234-8.608-16.855-16.828-25.096-25.432C133.427,191.253,133.427,190.749,133.427,190.245z"/>
					<path fill="#FFFFFF" d="M133.427,191.756c8.239,8.604,16.86,16.822,25.096,25.432c-1.422,0-2.845,0-4.267,0
						c-6.84-7.071-13.781-14.037-20.829-20.897C133.427,194.777,133.427,193.267,133.427,191.756z"/>
					<path d="M133.427,196.289c7.048,6.86,13.989,13.826,20.829,20.897c-0.504,0-1.004,0-1.507,0
						c-6.337-6.566-12.777-13.03-19.322-19.389C133.427,197.296,133.427,196.791,133.427,196.289z"/>
					<path fill="#FFFFFF" d="M133.427,197.799c6.545,6.357,12.985,12.821,19.322,19.389c-1.421,0-2.845,0-4.266,0
						c-4.915-5.142-9.936-10.178-15.059-15.107C133.427,200.653,133.427,199.226,133.427,197.799z"/>
					<path d="M133.427,202.079c5.122,4.931,10.143,9.967,15.058,15.107c-0.503,0-1.004,0-1.507,0
						c-4.412-4.638-8.931-9.168-13.551-13.597C133.427,203.086,133.427,202.584,133.427,202.079z"/>
					<path fill="#FFFFFF" d="M133.427,203.591c4.62,4.429,9.139,8.959,13.551,13.597c-1.421,0-2.845,0-4.267,0
						c-2.989-3.211-6.086-6.314-9.285-9.315C133.427,206.444,133.427,205.017,133.427,203.591z"/>
					<path d="M133.427,207.871c3.198,3.001,6.295,6.104,9.284,9.315c-0.502,0-1.004,0-1.506,0c-2.488-2.706-5.082-5.309-7.778-7.807
						C133.427,208.878,133.427,208.374,133.427,207.871z"/>
					<path fill="#FFFFFF" d="M133.427,209.381c2.696,2.498,5.29,5.101,7.778,7.807c-1.338,0-2.678,0-4.016,0
						c-1.15-1.364-2.404-2.623-3.765-3.776C133.427,212.067,133.427,210.725,133.427,209.381z"/>
					<path d="M133.427,213.41c1.358,1.153,2.612,2.412,3.764,3.776c-0.502,0-1.004,0-1.506,0c-0.646-0.859-1.399-1.616-2.258-2.267
						C133.427,214.417,133.427,213.914,133.427,213.41z"/>
					<path fill="#FFFFFF" d="M133.427,214.921c0.857,0.649,1.61,1.406,2.258,2.267c-0.752,0-1.505,0-2.258,0
						C133.427,216.432,133.427,215.676,133.427,214.921z"/>
				</g>
			</g>
			<g>
				<polygon id="SVGID_1_" fill="none" stroke="#000000" stroke-width="1.5024" stroke-miterlimit="10" points="133.503,134.279 
					145.75,26.096 156.484,131.937 198.67,217.139 				"/>
			</g>
		</g>
	</g>
	<g>
		<path stroke="#000000" stroke-width="0.216" stroke-miterlimit="10" d="M157.543,25.264c-0.378,1.209-1.663,1.89-2.947,1.512
			c-1.285-0.453-1.966-1.738-1.587-2.948c0.378-1.21,1.662-1.813,2.945-1.437C157.166,22.769,157.922,24.055,157.543,25.264z"/>
		<path fill="none" stroke="#000000" stroke-width="1.5024" stroke-miterlimit="10" d="M167.522,25.793
			c-1.284,0.15-3.478,0.831-4.459,0.529c-1.438-0.454-3.932-0.982-5.745-1.588c-1.136-0.303-2.271-0.529-2.495-1.663
			c-0.379-2.571,0.528-5.52,1.284-8.09"/>
	</g>
	<g>
		<path stroke="#000000" stroke-width="0.216" stroke-miterlimit="10" d="M146.204,51.8c1.134,0,2.042-0.982,2.042-2.116
			c0-1.21-0.908-2.117-2.042-2.117s-2.042,0.907-2.042,2.117C144.162,50.816,145.07,51.8,146.204,51.8z"/>
		<path fill="none" stroke="#000000" stroke-width="1.5024" stroke-miterlimit="10" d="M145.673,42.576
			c0,1.361,0.151,3.629,0.151,5.293c0,1.058,0.151,2.115-0.755,2.569c-2.117,1.059-1.209,0.681-3.629,0.681"/>
	</g>
	<g>
		<path stroke="#000000" stroke-width="0.216" stroke-miterlimit="10" d="M145.75,70.775c1.132,0,2.04-0.982,2.04-2.116
			c0-1.21-0.908-2.117-2.04-2.117c-1.136,0-2.042,0.907-2.042,2.117C143.708,69.793,144.615,70.775,145.75,70.775z"/>
		<path fill="none" stroke="#000000" stroke-width="1.5024" stroke-miterlimit="10" d="M145.222,61.552
			c0,1.361,0.148,3.63,0.148,5.292c0,1.06,0.151,2.118-0.757,2.57c-2.115,1.061-1.207,0.681-3.628,0.681"/>
	</g>
	<g>
		<path stroke="#000000" stroke-width="0.216" stroke-miterlimit="10" d="M145.296,89.751c1.136,0,2.041-0.982,2.041-2.117
			c0-1.133-0.905-2.115-2.041-2.115c-1.135,0-2.041,0.982-2.041,2.115C143.255,88.768,144.162,89.751,145.296,89.751z"/>
		<path fill="none" stroke="#000000" stroke-width="1.5024" stroke-miterlimit="10" d="M144.767,80.527
			c0,1.361,0.15,3.629,0.15,5.292c0,1.059,0.151,2.116-0.757,2.571c-2.117,1.058-1.209,0.68-3.628,0.68"/>
	</g>
	<g>
		<path stroke="#000000" stroke-width="0.216" stroke-miterlimit="10" d="M144.843,108.727c1.134,0,2.039-0.982,2.039-2.117
			c0-1.134-0.905-2.116-2.039-2.116c-1.135,0-2.042,0.982-2.042,2.116S143.708,108.727,144.843,108.727z"/>
		<path fill="none" stroke="#000000" stroke-width="1.5024" stroke-miterlimit="10" d="M144.314,99.504
			c0,1.36,0.149,3.629,0.149,5.292c0,1.06,0.15,2.117-0.756,2.57c-2.117,1.059-1.209,0.68-3.628,0.68"/>
	</g>
	<g>
		<path stroke="#000000" stroke-width="0.216" stroke-miterlimit="10" d="M144.389,127.627c1.134,0,2.042-0.98,2.042-2.117
			c0-1.134-0.908-2.114-2.042-2.114c-1.135,0-2.042,0.98-2.042,2.114C142.347,126.646,143.255,127.627,144.389,127.627z"/>
		<path fill="none" stroke="#000000" stroke-width="1.5024" stroke-miterlimit="10" d="M143.861,118.405
			c0,1.359,0.151,3.628,0.151,5.291c0,1.058,0.148,2.117-0.758,2.57c-2.116,1.06-1.211,0.681-3.629,0.681"/>
	</g>
	<g>
		<path stroke="#000000" stroke-width="0.216" stroke-miterlimit="10" d="M147.716,140.705c1.134,0,2.04-0.98,2.04-2.117
			c0-1.132-0.906-2.114-2.04-2.114c-1.135,0-2.043,0.982-2.043,2.114C145.673,139.724,146.582,140.705,147.716,140.705z"/>
		<path fill="none" stroke="#000000" stroke-width="1.5024" stroke-miterlimit="10" d="M147.185,131.483
			c0,1.359,0.151,3.628,0.151,5.292c0,1.058,0.151,2.116-0.756,2.569c-2.117,1.059-1.21,0.68-3.629,0.68"/>
	</g>
	<g>
		<path stroke="#000000" stroke-width="0.216" stroke-miterlimit="10" d="M155.654,150.836c1.133,0,2.041-0.905,2.041-2.117
			c0-1.133-0.908-2.115-2.041-2.115c-1.135,0-2.041,0.982-2.041,2.115C153.613,149.93,154.519,150.836,155.654,150.836z"/>
		<path fill="none" stroke="#000000" stroke-width="1.5024" stroke-miterlimit="10" d="M155.125,141.613
			c0,1.361,0.15,3.628,0.15,5.292c0,1.059,0.149,2.116-0.756,2.569c-2.117,1.06-1.209,0.682-3.628,0.682"/>
	</g>
	<g>
		<path stroke="#000000" stroke-width="0.216" stroke-miterlimit="10" d="M163.943,160.163c1.135,0,2.042-0.907,2.042-2.117
			c0-1.134-0.907-2.116-2.042-2.116c-1.059,0-1.965,0.982-1.965,2.116C161.978,159.256,162.885,160.163,163.943,160.163z"/>
		<path fill="none" stroke="#000000" stroke-width="1.5024" stroke-miterlimit="10" d="M163.414,151.015
			c0,1.285,0.152,3.555,0.152,5.217c0,1.059,0.149,2.117-0.682,2.569c-2.115,1.061-1.284,0.682-3.703,0.682"/>
	</g>
	<g>
		<path stroke="#000000" stroke-width="0.216" stroke-miterlimit="10" d="M169.841,172.032c1.136,0,2.041-0.984,2.041-2.116
			c0-1.209-0.905-2.117-2.041-2.117c-1.137,0-2.043,0.908-2.043,2.117C167.798,171.048,168.705,172.032,169.841,172.032z"/>
		<path fill="none" stroke="#000000" stroke-width="1.5024" stroke-miterlimit="10" d="M169.31,162.81c0,1.36,0.15,3.627,0.15,5.292
			c0,1.057,0.151,2.115-0.757,2.568c-2.115,1.059-1.207,0.682-3.627,0.682"/>
	</g>
	<g>
		<path stroke="#000000" stroke-width="0.216" stroke-miterlimit="10" d="M177.4,182.994c1.06,0,1.966-0.981,1.966-2.115
			c0-1.136-0.906-2.119-1.966-2.119c-1.135,0-2.041,0.983-2.041,2.119C175.359,182.012,176.265,182.994,177.4,182.994z"/>
		<path fill="none" stroke="#000000" stroke-width="1.5024" stroke-miterlimit="10" d="M176.871,173.771
			c0,1.358,0.152,3.629,0.152,5.293c0,1.057,0.15,2.115-0.758,2.567c-2.115,1.061-1.283,0.682-3.703,0.682"/>
	</g>
	<path fill="none" stroke="#000000" stroke-width="1.5024" stroke-miterlimit="10" d="M153.916,24.961
		c-5.291-1.663-10.66-1.134-15.952-0.227"/>
	<path fill="none" stroke="#000000" stroke-width="1.5024" stroke-miterlimit="10" d="M137.359,36.15
		c5.67-1.966,11.34-1.815,16.936,0.378"/>
	<path fill="none" stroke="#000000" stroke-width="1.5024" stroke-miterlimit="10" d="M154.519,49.456
		c10.961,0.303,19.354-4.688,21.018-19.278c1.438-12.475-6.123-15.195-21.242-16.632c-9.526-0.906-20.188,0.453-27.369,13.685
		c-8.393,15.498,0.076,21.849,11.566,22"/>
	
		<line fill="none" stroke="#000000" stroke-width="0.5" stroke-miterlimit="10" x1="183.062" y1="178.76" x2="234.481" y2="178.76"/>
	<g enable-background="new    ">
		<path d="M252.809,12.538h-3.306v3.077h3.698v0.925h-4.813V8.004h4.623v0.925h-3.508v2.697h3.306V12.538z"/>
		<path d="M254.597,12.411c0-0.785-0.025-1.418-0.051-2.001h0.988l0.062,1.052h0.025c0.443-0.748,1.178-1.179,2.179-1.179
			c1.494,0,2.608,1.254,2.608,3.104c0,2.203-1.355,3.293-2.799,3.293c-0.811,0-1.52-0.354-1.887-0.963h-0.025v3.331h-1.102V12.411z
			 M255.699,14.045c0,0.165,0.013,0.316,0.051,0.456c0.203,0.772,0.873,1.305,1.672,1.305c1.178,0,1.861-0.963,1.861-2.368
			c0-1.216-0.646-2.268-1.824-2.268c-0.76,0-1.48,0.532-1.684,1.368c-0.038,0.14-0.076,0.304-0.076,0.443V14.045z"/>
		<path d="M263.047,8.687c0,0.38-0.266,0.685-0.709,0.685c-0.404,0-0.671-0.305-0.671-0.685s0.278-0.696,0.696-0.696
			C262.769,7.991,263.047,8.295,263.047,8.687z M261.806,16.54v-6.13h1.114v6.13H261.806z"/>
		<path d="M266.113,8.941v1.469h1.596v0.849h-1.596v3.306c0,0.76,0.215,1.19,0.836,1.19c0.304,0,0.48-0.025,0.646-0.076l0.051,0.849
			c-0.216,0.076-0.558,0.152-0.987,0.152c-0.52,0-0.938-0.178-1.203-0.469c-0.305-0.342-0.432-0.887-0.432-1.608v-3.344h-0.949
			V10.41h0.949V9.27L266.113,8.941z"/>
		<path d="M268.965,7.548h1.114v3.838h0.025c0.177-0.316,0.456-0.608,0.798-0.798c0.329-0.19,0.722-0.305,1.14-0.305
			c0.823,0,2.141,0.507,2.141,2.609v3.647h-1.114v-3.521c0-0.988-0.367-1.812-1.419-1.812c-0.722,0-1.279,0.507-1.494,1.102
			c-0.063,0.165-0.076,0.33-0.076,0.532v3.698h-1.114V7.548z"/>
		<path d="M276.617,13.677c0.025,1.507,0.975,2.128,2.102,2.128c0.799,0,1.293-0.14,1.697-0.316l0.203,0.798
			c-0.393,0.177-1.076,0.393-2.052,0.393c-1.888,0-3.015-1.254-3.015-3.104c0-1.849,1.09-3.293,2.875-3.293
			c2.014,0,2.533,1.748,2.533,2.875c0,0.229-0.013,0.393-0.038,0.52H276.617z M279.885,12.88c0.012-0.696-0.291-1.799-1.545-1.799
			c-1.141,0-1.621,1.026-1.711,1.799H279.885z"/>
		<path d="M282.344,7.548h1.114v8.992h-1.114V7.548z"/>
		<path d="M286.574,8.687c0,0.38-0.266,0.685-0.709,0.685c-0.404,0-0.671-0.305-0.671-0.685s0.278-0.696,0.696-0.696
			C286.297,7.991,286.574,8.295,286.574,8.687z M285.334,16.54v-6.13h1.114v6.13H285.334z"/>
		<path d="M292.603,15.071c0,0.531,0.025,1.051,0.09,1.469h-1.001l-0.089-0.772h-0.038c-0.342,0.481-1.001,0.912-1.874,0.912
			c-1.241,0-1.875-0.874-1.875-1.761c0-1.481,1.317-2.292,3.686-2.279v-0.127c0-0.494-0.139-1.419-1.393-1.406
			c-0.583,0-1.178,0.165-1.609,0.456l-0.252-0.747c0.506-0.316,1.253-0.532,2.025-0.532c1.875,0,2.33,1.279,2.33,2.495V15.071z
			 M291.527,13.412c-1.216-0.025-2.596,0.189-2.596,1.38c0,0.734,0.48,1.064,1.038,1.064c0.811,0,1.33-0.507,1.507-1.026
			c0.039-0.126,0.051-0.253,0.051-0.354V13.412z"/>
		<path d="M294.404,7.548h1.115v8.992h-1.115V7.548z"/>
	</g>
	<g enable-background="new    ">
		<path d="M248.212,30.616c0.342,0.202,0.925,0.431,1.481,0.431c0.799,0,1.178-0.393,1.178-0.912c0-0.532-0.316-0.811-1.127-1.114
			c-1.114-0.405-1.633-1.001-1.633-1.735c0-0.988,0.811-1.799,2.114-1.799c0.62,0,1.165,0.165,1.495,0.38l-0.267,0.811
			c-0.241-0.151-0.684-0.367-1.254-0.367c-0.658,0-1.013,0.38-1.013,0.836c0,0.507,0.354,0.735,1.152,1.052
			c1.051,0.393,1.608,0.924,1.608,1.836c0,1.09-0.849,1.85-2.28,1.85c-0.671,0-1.291-0.178-1.722-0.431L248.212,30.616z"/>
		<path d="M258.51,30.058c0,0.646,0.014,1.203,0.051,1.685h-0.987l-0.063-1.001h-0.025c-0.278,0.494-0.938,1.141-2.026,1.141
			c-0.962,0-2.114-0.545-2.114-2.686v-3.584h1.113v3.382c0,1.165,0.367,1.963,1.368,1.963c0.747,0,1.267-0.52,1.47-1.026
			c0.062-0.151,0.102-0.354,0.102-0.569v-3.749h1.113V30.058z"/>
		<path d="M261.705,24.144v1.469h1.596v0.849h-1.596v3.306c0,0.76,0.215,1.19,0.836,1.19c0.303,0,0.48-0.025,0.646-0.076l0.05,0.849
			c-0.215,0.076-0.557,0.152-0.987,0.152c-0.519,0-0.937-0.178-1.203-0.469c-0.304-0.342-0.431-0.887-0.431-1.608v-3.344h-0.949
			v-0.849h0.949v-1.14L261.705,24.144z"/>
		<path d="M269.685,30.058c0,0.646,0.012,1.203,0.051,1.685h-0.988l-0.063-1.001h-0.025c-0.278,0.494-0.937,1.141-2.026,1.141
			c-0.963,0-2.115-0.545-2.115-2.686v-3.584h1.115v3.382c0,1.165,0.367,1.963,1.367,1.963c0.748,0,1.267-0.52,1.469-1.026
			c0.064-0.151,0.102-0.354,0.102-0.569v-3.749h1.115V30.058z"/>
		<path d="M271.537,27.525c0-0.722-0.013-1.342-0.051-1.912h0.975l0.051,1.216h0.038c0.278-0.823,0.963-1.343,1.71-1.343
			c0.113,0,0.203,0.013,0.304,0.025v1.052c-0.114-0.025-0.228-0.025-0.38-0.025c-0.785,0-1.342,0.582-1.494,1.418
			c-0.025,0.152-0.038,0.342-0.038,0.52v3.268h-1.114V27.525z"/>
		<path d="M276.174,28.881c0.025,1.507,0.975,2.128,2.102,2.128c0.799,0,1.293-0.14,1.697-0.316l0.203,0.798
			c-0.393,0.177-1.076,0.393-2.052,0.393c-1.888,0-3.015-1.254-3.015-3.104c0-1.849,1.09-3.293,2.875-3.293
			c2.014,0,2.533,1.748,2.533,2.875c0,0.229-0.013,0.393-0.038,0.52H276.174z M279.441,28.083c0.012-0.696-0.291-1.799-1.545-1.799
			c-1.141,0-1.621,1.026-1.711,1.799H279.441z"/>
	</g>
	<g enable-background="new    ">
		<path d="M251.271,67.258v3.571h4.129v-3.571h1.114v8.536H255.4v-4.002h-4.129v4.002h-1.115v-8.536H251.271z"/>
		<path d="M258.911,69.664l1.33,3.622c0.151,0.405,0.304,0.887,0.405,1.254h0.025c0.113-0.367,0.24-0.836,0.393-1.279l1.216-3.597
			h1.178l-1.672,4.369c-0.798,2.103-1.343,3.167-2.103,3.838c-0.557,0.469-1.089,0.658-1.367,0.709l-0.279-0.925
			c0.279-0.088,0.646-0.266,0.976-0.544c0.304-0.241,0.671-0.672,0.937-1.241c0.051-0.114,0.09-0.203,0.09-0.267
			c0-0.062-0.025-0.151-0.09-0.291l-2.254-5.648H258.911z"/>
		<path d="M264.472,71.323c0-0.646-0.024-1.152-0.05-1.659h0.976l0.051,1.001h0.037c0.342-0.583,0.912-1.128,1.938-1.128
			c0.824,0,1.457,0.507,1.723,1.229h0.025c0.189-0.354,0.443-0.607,0.697-0.798c0.367-0.278,0.76-0.431,1.342-0.431
			c0.823,0,2.026,0.532,2.026,2.66v3.597h-1.089v-3.457c0-1.191-0.443-1.888-1.33-1.888c-0.646,0-1.127,0.469-1.33,1.001
			c-0.051,0.164-0.088,0.354-0.088,0.557v3.787h-1.09v-3.673c0-0.976-0.43-1.672-1.279-1.672c-0.684,0-1.203,0.558-1.38,1.114
			c-0.063,0.152-0.089,0.355-0.089,0.545v3.686h-1.09V71.323z"/>
		<path d="M275.66,72.931c0.025,1.507,0.976,2.128,2.103,2.128c0.798,0,1.292-0.14,1.697-0.316l0.202,0.798
			c-0.393,0.177-1.076,0.393-2.051,0.393c-1.888,0-3.015-1.254-3.015-3.104c0-1.849,1.089-3.293,2.874-3.293
			c2.015,0,2.533,1.748,2.533,2.875c0,0.229-0.012,0.393-0.037,0.52H275.66z M278.927,72.134c0.013-0.696-0.291-1.799-1.545-1.799
			c-1.14,0-1.621,1.026-1.71,1.799H278.927z"/>
		<path d="M281.386,71.323c0-0.646-0.012-1.152-0.05-1.659h0.987l0.063,1.014h0.025c0.304-0.57,1.013-1.141,2.026-1.141
			c0.849,0,2.166,0.507,2.166,2.609v3.647h-1.115V72.26c0-0.988-0.367-1.812-1.418-1.812c-0.722,0-1.291,0.52-1.494,1.14
			c-0.051,0.14-0.076,0.33-0.076,0.52v3.686h-1.115V71.323z"/>
	</g>
	<g enable-background="new    ">
		<path d="M250.131,86.78c0-0.722-0.012-1.342-0.05-1.912h0.976l0.051,1.216h0.037c0.279-0.823,0.963-1.343,1.71-1.343
			c0.114,0,0.202,0.013,0.304,0.025v1.052c-0.113-0.025-0.228-0.025-0.38-0.025c-0.785,0-1.343,0.582-1.494,1.418
			c-0.025,0.152-0.038,0.342-0.038,0.52v3.268h-1.115V86.78z"/>
		<path d="M254.767,88.135c0.025,1.507,0.977,2.128,2.104,2.128c0.797,0,1.291-0.14,1.697-0.316l0.202,0.798
			c-0.393,0.177-1.077,0.393-2.052,0.393c-1.887,0-3.014-1.254-3.014-3.104c0-1.849,1.088-3.293,2.874-3.293
			c2.014,0,2.533,1.748,2.533,2.875c0,0.229-0.013,0.393-0.038,0.52H254.767z M258.035,87.338c0.014-0.696-0.291-1.799-1.545-1.799
			c-1.14,0-1.621,1.026-1.709,1.799H258.035z"/>
		<path d="M260.495,86.527c0-0.646-0.024-1.152-0.05-1.659h0.975l0.051,1.001h0.037c0.343-0.583,0.912-1.128,1.938-1.128
			c0.823,0,1.456,0.507,1.722,1.229h0.025c0.19-0.354,0.443-0.607,0.697-0.798c0.367-0.278,0.76-0.431,1.342-0.431
			c0.824,0,2.027,0.532,2.027,2.66v3.597h-1.09v-3.457c0-1.191-0.443-1.888-1.33-1.888c-0.646,0-1.127,0.469-1.329,1.001
			c-0.051,0.164-0.089,0.354-0.089,0.557v3.787h-1.089v-3.673c0-0.976-0.431-1.672-1.279-1.672c-0.685,0-1.203,0.558-1.38,1.114
			c-0.064,0.152-0.09,0.355-0.09,0.545v3.686h-1.089V86.527z"/>
		<path d="M271.061,86.527c0-0.646-0.013-1.152-0.05-1.659h0.987l0.063,1.014h0.025c0.304-0.57,1.013-1.141,2.025-1.141
			c0.85,0,2.166,0.507,2.166,2.609v3.647h-1.114v-3.533c0-0.988-0.367-1.812-1.419-1.812c-0.721,0-1.291,0.52-1.494,1.14
			c-0.051,0.14-0.076,0.33-0.076,0.52v3.686h-1.114V86.527z"/>
		<path d="M282.399,89.529c0,0.531,0.025,1.051,0.089,1.469h-1l-0.09-0.772h-0.037c-0.342,0.481-1.001,0.912-1.875,0.912
			c-1.24,0-1.874-0.874-1.874-1.761c0-1.481,1.317-2.292,3.686-2.279V86.97c0-0.494-0.14-1.419-1.394-1.406
			c-0.582,0-1.178,0.165-1.608,0.456l-0.253-0.747c0.506-0.316,1.254-0.532,2.026-0.532c1.874,0,2.33,1.279,2.33,2.495V89.529z
			 M281.323,87.87c-1.216-0.025-2.597,0.189-2.597,1.38c0,0.734,0.481,1.064,1.039,1.064c0.811,0,1.33-0.507,1.507-1.026
			c0.038-0.126,0.051-0.253,0.051-0.354V87.87z"/>
		<path d="M284.2,86.527c0-0.646-0.013-1.152-0.05-1.659h0.987l0.063,1.014h0.025c0.304-0.57,1.013-1.141,2.025-1.141
			c0.85,0,2.166,0.507,2.166,2.609v3.647h-1.114v-3.533c0-0.988-0.367-1.812-1.419-1.812c-0.721,0-1.291,0.52-1.494,1.14
			c-0.051,0.14-0.076,0.33-0.076,0.52v3.686H284.2V86.527z"/>
		<path d="M292.523,83.399v1.469h1.596v0.849h-1.596v3.306c0,0.76,0.216,1.19,0.836,1.19c0.305,0,0.481-0.025,0.646-0.076
			l0.051,0.849c-0.216,0.076-0.558,0.152-0.988,0.152c-0.52,0-0.938-0.178-1.203-0.469c-0.304-0.342-0.431-0.887-0.431-1.608v-3.344
			h-0.95v-0.849h0.95v-1.14L292.523,83.399z"/>
		<path d="M295.222,89.871c0.342,0.202,0.925,0.431,1.482,0.431c0.797,0,1.178-0.393,1.178-0.912c0-0.532-0.316-0.811-1.127-1.114
			c-1.115-0.405-1.635-1.001-1.635-1.735c0-0.988,0.811-1.799,2.115-1.799c0.621,0,1.165,0.165,1.494,0.38l-0.266,0.811
			c-0.24-0.151-0.684-0.367-1.254-0.367c-0.658,0-1.014,0.38-1.014,0.836c0,0.507,0.355,0.735,1.153,1.052
			c1.051,0.393,1.608,0.924,1.608,1.836c0,1.09-0.849,1.85-2.279,1.85c-0.672,0-1.293-0.178-1.723-0.431L295.222,89.871z"/>
	</g>
	<g enable-background="new    ">
		<path d="M250.136,106.662h1.115v5.712c0,2.267-1.115,2.964-2.584,2.964c-0.418,0-0.912-0.089-1.178-0.203l0.152-0.899
			c0.228,0.089,0.557,0.165,0.937,0.165c0.988,0,1.558-0.443,1.558-2.115V106.662z"/>
		<path d="M258.181,113.513c0,0.646,0.012,1.203,0.051,1.685h-0.988l-0.063-1.001h-0.025c-0.278,0.494-0.937,1.141-2.026,1.141
			c-0.963,0-2.115-0.545-2.115-2.686v-3.584h1.115v3.382c0,1.165,0.367,1.963,1.367,1.963c0.748,0,1.267-0.52,1.469-1.026
			c0.064-0.151,0.102-0.354,0.102-0.569v-3.749h1.115V113.513z"/>
		<path d="M260.033,110.727c0-0.646-0.013-1.152-0.051-1.659h0.988l0.062,1.014h0.025c0.305-0.57,1.014-1.141,2.026-1.141
			c0.849,0,2.166,0.507,2.166,2.609v3.647h-1.114v-3.533c0-0.988-0.367-1.812-1.419-1.812c-0.722,0-1.292,0.52-1.494,1.14
			c-0.051,0.14-0.076,0.33-0.076,0.52v3.686h-1.114V110.727z"/>
		<path d="M271.433,114.983c-0.291,0.139-0.938,0.354-1.76,0.354c-1.85,0-3.053-1.254-3.053-3.129c0-1.887,1.291-3.268,3.293-3.268
			c0.658,0,1.24,0.165,1.545,0.33l-0.254,0.849c-0.266-0.14-0.684-0.292-1.291-0.292c-1.406,0-2.166,1.052-2.166,2.318
			c0,1.418,0.912,2.292,2.128,2.292c0.633,0,1.051-0.152,1.368-0.291L271.433,114.983z"/>
		<path d="M274.248,107.599v1.469h1.596v0.849h-1.596v3.306c0,0.76,0.215,1.19,0.836,1.19c0.303,0,0.48-0.025,0.646-0.076
			l0.05,0.849c-0.215,0.076-0.557,0.152-0.987,0.152c-0.519,0-0.937-0.178-1.203-0.469c-0.304-0.342-0.431-0.887-0.431-1.608v-3.344
			h-0.949v-0.849h0.949v-1.14L274.248,107.599z"/>
		<path d="M278.34,107.345c0,0.38-0.266,0.685-0.709,0.685c-0.406,0-0.672-0.305-0.672-0.685s0.279-0.696,0.697-0.696
			C278.06,106.649,278.34,106.953,278.34,107.345z M277.097,115.198v-6.13h1.115v6.13H277.097z"/>
		<path d="M285.61,112.083c0,2.267-1.583,3.255-3.052,3.255c-1.646,0-2.938-1.216-2.938-3.154c0-2.039,1.354-3.242,3.04-3.242
			C284.42,108.941,285.61,110.22,285.61,112.083z M280.76,112.146c0,1.342,0.76,2.355,1.85,2.355c1.063,0,1.861-1.001,1.861-2.381
			c0-1.039-0.52-2.344-1.836-2.344C281.33,109.777,280.76,110.993,280.76,112.146z"/>
		<path d="M287.018,110.727c0-0.646-0.013-1.152-0.05-1.659h0.987l0.063,1.014h0.025c0.304-0.57,1.013-1.141,2.025-1.141
			c0.85,0,2.166,0.507,2.166,2.609v3.647h-1.114v-3.533c0-0.988-0.367-1.812-1.419-1.812c-0.721,0-1.291,0.52-1.494,1.14
			c-0.051,0.14-0.076,0.33-0.076,0.52v3.686h-1.114V110.727z"/>
		<path d="M302.283,112.083c0,2.267-1.582,3.255-3.052,3.255c-1.646,0-2.938-1.216-2.938-3.154c0-2.039,1.355-3.242,3.04-3.242
			C301.094,108.941,302.283,110.22,302.283,112.083z M297.433,112.146c0,1.342,0.76,2.355,1.849,2.355
			c1.063,0,1.862-1.001,1.862-2.381c0-1.039-0.52-2.344-1.837-2.344C298.003,109.777,297.433,110.993,297.433,112.146z"/>
		<path d="M303.806,115.198v-5.281h-0.85v-0.849h0.85v-0.291c0-0.861,0.202-1.646,0.709-2.141c0.418-0.405,0.975-0.569,1.494-0.569
			c0.405,0,0.734,0.088,0.949,0.177l-0.151,0.861c-0.165-0.076-0.38-0.14-0.709-0.14c-0.95,0-1.19,0.823-1.19,1.773v0.329h1.481
			v0.849h-1.481v5.281H303.806z"/>
	</g>
	<g enable-background="new    ">
		<path d="M248.212,129.275c0.342,0.202,0.925,0.431,1.481,0.431c0.799,0,1.178-0.393,1.178-0.912c0-0.532-0.316-0.811-1.127-1.114
			c-1.114-0.405-1.633-1.001-1.633-1.735c0-0.988,0.811-1.799,2.114-1.799c0.62,0,1.165,0.165,1.495,0.38l-0.267,0.811
			c-0.241-0.151-0.684-0.367-1.254-0.367c-0.658,0-1.013,0.38-1.013,0.836c0,0.507,0.354,0.735,1.152,1.052
			c1.051,0.393,1.608,0.924,1.608,1.836c0,1.09-0.849,1.85-2.28,1.85c-0.671,0-1.291-0.178-1.722-0.431L248.212,129.275z"/>
		<path d="M254.482,127.084h0.025c0.152-0.215,0.355-0.481,0.532-0.696l1.812-2.115h1.33l-2.356,2.521l2.698,3.609h-1.368
			l-2.103-2.938l-0.57,0.634v2.305h-1.102v-8.992h1.102V127.084z"/>
		<path d="M260.779,122.55c0,0.38-0.266,0.685-0.709,0.685c-0.404,0-0.671-0.305-0.671-0.685s0.278-0.696,0.696-0.696
			C260.502,121.853,260.779,122.157,260.779,122.55z M259.539,130.402v-6.13h1.114v6.13H259.539z"/>
		<path d="M262.503,125.931c0-0.646-0.013-1.152-0.05-1.659h0.987l0.063,1.014h0.025c0.304-0.57,1.013-1.141,2.025-1.141
			c0.85,0,2.166,0.507,2.166,2.609v3.647h-1.114v-3.533c0-0.988-0.367-1.812-1.419-1.812c-0.721,0-1.291,0.52-1.494,1.14
			c-0.051,0.14-0.076,0.33-0.076,0.52v3.686h-1.114V125.931z"/>
		<path d="M276.527,128.933c0,0.531,0.025,1.051,0.088,1.469h-1l-0.089-0.772h-0.038c-0.342,0.481-1,0.912-1.874,0.912
			c-1.241,0-1.874-0.874-1.874-1.761c0-1.481,1.316-2.292,3.686-2.279v-0.127c0-0.494-0.141-1.419-1.394-1.406
			c-0.583,0-1.179,0.165-1.608,0.456l-0.254-0.747c0.507-0.316,1.254-0.532,2.027-0.532c1.873,0,2.33,1.279,2.33,2.495V128.933z
			 M275.45,127.274c-1.216-0.025-2.597,0.189-2.597,1.38c0,0.734,0.482,1.064,1.039,1.064c0.811,0,1.33-0.507,1.508-1.026
			c0.037-0.126,0.05-0.253,0.05-0.354V127.274z"/>
		<path d="M278.327,125.931c0-0.646-0.013-1.152-0.05-1.659h0.987l0.063,1.014h0.025c0.304-0.57,1.013-1.141,2.025-1.141
			c0.85,0,2.166,0.507,2.166,2.609v3.647h-1.114v-3.533c0-0.988-0.367-1.812-1.419-1.812c-0.721,0-1.291,0.52-1.494,1.14
			c-0.051,0.14-0.076,0.33-0.076,0.52v3.686h-1.114V125.931z"/>
		<path d="M290.64,121.41v7.409c0,0.545,0.025,1.165,0.051,1.583h-0.988l-0.051-1.063h-0.038c-0.329,0.684-1.063,1.203-2.063,1.203
			c-1.482,0-2.635-1.254-2.635-3.116c-0.013-2.039,1.266-3.28,2.748-3.28c0.949,0,1.57,0.443,1.85,0.925h0.025v-3.66H290.64z
			 M289.539,126.767c0-0.14-0.014-0.329-0.051-0.469c-0.165-0.696-0.773-1.279-1.609-1.279c-1.152,0-1.836,1.014-1.836,2.355
			c0,1.241,0.621,2.268,1.811,2.268c0.748,0,1.432-0.507,1.635-1.33c0.037-0.151,0.051-0.304,0.051-0.481V126.767z"/>
	</g>
	<g enable-background="new    ">
		<path d="M248.795,139.475l1.203,3.433c0.202,0.569,0.367,1.076,0.494,1.583h0.037c0.14-0.507,0.316-1.014,0.52-1.583l1.19-3.433
			h1.165l-2.406,6.13h-1.063l-2.331-6.13H248.795z"/>
		<path d="M258.713,144.136c0,0.531,0.025,1.051,0.09,1.469h-1.001l-0.089-0.772h-0.038c-0.342,0.481-1.001,0.912-1.874,0.912
			c-1.241,0-1.875-0.874-1.875-1.761c0-1.481,1.317-2.292,3.686-2.279v-0.127c0-0.494-0.139-1.419-1.393-1.406
			c-0.583,0-1.178,0.165-1.609,0.456l-0.252-0.747c0.506-0.316,1.253-0.532,2.025-0.532c1.875,0,2.33,1.279,2.33,2.495V144.136z
			 M257.636,142.477c-1.216-0.025-2.596,0.189-2.596,1.38c0,0.734,0.48,1.064,1.038,1.064c0.811,0,1.33-0.507,1.507-1.026
			c0.039-0.126,0.051-0.253,0.051-0.354V142.477z"/>
		<path d="M265.758,144.706c0,1.419-0.292,2.268-0.875,2.812c-0.607,0.545-1.469,0.734-2.241,0.734
			c-0.734,0-1.545-0.177-2.039-0.506l0.278-0.861c0.406,0.266,1.039,0.494,1.799,0.494c1.14,0,1.976-0.596,1.976-2.153v-0.671
			h-0.025c-0.329,0.569-1.001,1.025-1.95,1.025c-1.52,0-2.609-1.292-2.609-2.989c0-2.076,1.355-3.242,2.773-3.242
			c1.064,0,1.635,0.545,1.913,1.052h0.024l0.039-0.925h0.987c-0.038,0.431-0.05,0.938-0.05,1.672V144.706z M264.642,141.894
			c0-0.189-0.013-0.354-0.063-0.494c-0.202-0.658-0.734-1.19-1.558-1.19c-1.064,0-1.824,0.899-1.824,2.318
			c0,1.203,0.621,2.203,1.812,2.203c0.696,0,1.317-0.431,1.545-1.14c0.063-0.19,0.089-0.405,0.089-0.596V141.894z"/>
		<path d="M268.761,137.753c0,0.38-0.266,0.685-0.709,0.685c-0.406,0-0.672-0.305-0.672-0.685s0.279-0.696,0.697-0.696
			C268.482,137.056,268.761,137.36,268.761,137.753z M267.519,145.605v-6.13h1.115v6.13H267.519z"/>
		<path d="M270.484,141.135c0-0.646-0.012-1.152-0.05-1.659h0.987l0.063,1.014h0.025c0.304-0.57,1.013-1.141,2.026-1.141
			c0.849,0,2.166,0.507,2.166,2.609v3.647h-1.115v-3.533c0-0.988-0.367-1.812-1.418-1.812c-0.722,0-1.291,0.52-1.494,1.14
			c-0.051,0.14-0.076,0.33-0.076,0.52v3.686h-1.115V141.135z"/>
		<path d="M281.822,144.136c0,0.531,0.025,1.051,0.09,1.469h-1.001l-0.089-0.772h-0.038c-0.342,0.481-1.001,0.912-1.874,0.912
			c-1.241,0-1.875-0.874-1.875-1.761c0-1.481,1.317-2.292,3.686-2.279v-0.127c0-0.494-0.139-1.419-1.393-1.406
			c-0.583,0-1.178,0.165-1.609,0.456l-0.252-0.747c0.506-0.316,1.253-0.532,2.025-0.532c1.875,0,2.33,1.279,2.33,2.495V144.136z
			 M280.746,142.477c-1.216-0.025-2.596,0.189-2.596,1.38c0,0.734,0.48,1.064,1.038,1.064c0.811,0,1.33-0.507,1.507-1.026
			c0.039-0.126,0.051-0.253,0.051-0.354V142.477z"/>
		<path d="M283.623,136.613h1.115v8.992h-1.115V136.613z"/>
	</g>
	<g enable-background="new    ">
		<path d="M248.984,157.947c0.025,1.507,0.976,2.128,2.103,2.128c0.798,0,1.292-0.14,1.697-0.316l0.202,0.798
			c-0.393,0.177-1.076,0.393-2.051,0.393c-1.888,0-3.015-1.254-3.015-3.104c0-1.849,1.089-3.293,2.874-3.293
			c2.015,0,2.533,1.748,2.533,2.875c0,0.229-0.012,0.393-0.037,0.52H248.984z M252.252,157.149c0.013-0.696-0.291-1.799-1.545-1.799
			c-1.14,0-1.621,1.026-1.71,1.799H252.252z"/>
		<path d="M254.711,156.68c0-0.785-0.024-1.418-0.05-2.001h0.987l0.063,1.052h0.025c0.443-0.748,1.179-1.179,2.179-1.179
			c1.494,0,2.609,1.254,2.609,3.104c0,2.203-1.355,3.293-2.799,3.293c-0.811,0-1.521-0.354-1.888-0.963h-0.025v3.331h-1.103V156.68z
			 M255.813,158.314c0,0.165,0.013,0.316,0.051,0.456c0.202,0.772,0.874,1.305,1.672,1.305c1.178,0,1.861-0.963,1.861-2.368
			c0-1.216-0.646-2.268-1.823-2.268c-0.76,0-1.482,0.532-1.685,1.368c-0.038,0.14-0.076,0.304-0.076,0.443V158.314z"/>
		<path d="M263.161,152.957c0,0.38-0.266,0.685-0.709,0.685c-0.405,0-0.671-0.305-0.671-0.685s0.278-0.696,0.696-0.696
			C262.883,152.26,263.161,152.564,263.161,152.957z M261.92,160.809v-6.13h1.115v6.13H261.92z"/>
		<path d="M266.227,153.211v1.469h1.596v0.849h-1.596v3.306c0,0.76,0.216,1.19,0.836,1.19c0.304,0,0.481-0.025,0.646-0.076
			l0.051,0.849c-0.215,0.076-0.557,0.152-0.988,0.152c-0.519,0-0.937-0.178-1.203-0.469c-0.303-0.342-0.43-0.887-0.43-1.608v-3.344
			h-0.95v-0.849h0.95v-1.14L266.227,153.211z"/>
		<path d="M269.078,151.817h1.115v3.838h0.025c0.178-0.316,0.456-0.608,0.798-0.798c0.329-0.19,0.722-0.305,1.14-0.305
			c0.823,0,2.141,0.507,2.141,2.609v3.647h-1.115v-3.521c0-0.988-0.367-1.812-1.418-1.812c-0.722,0-1.279,0.507-1.494,1.102
			c-0.063,0.165-0.076,0.33-0.076,0.532v3.698h-1.115V151.817z"/>
		<path d="M276.73,157.947c0.025,1.507,0.976,2.128,2.103,2.128c0.798,0,1.292-0.14,1.697-0.316l0.202,0.798
			c-0.393,0.177-1.076,0.393-2.051,0.393c-1.888,0-3.015-1.254-3.015-3.104c0-1.849,1.089-3.293,2.874-3.293
			c2.015,0,2.533,1.748,2.533,2.875c0,0.229-0.012,0.393-0.037,0.52H276.73z M279.998,157.149c0.013-0.696-0.291-1.799-1.545-1.799
			c-1.14,0-1.621,1.026-1.71,1.799H279.998z"/>
		<path d="M282.457,151.817h1.115v8.992h-1.115V151.817z"/>
		<path d="M286.688,152.957c0,0.38-0.266,0.685-0.709,0.685c-0.405,0-0.671-0.305-0.671-0.685s0.278-0.696,0.696-0.696
			C286.41,152.26,286.688,152.564,286.688,152.957z M285.447,160.809v-6.13h1.115v6.13H285.447z"/>
		<path d="M293.541,159.125c0,0.646,0.014,1.203,0.051,1.685h-0.987l-0.063-1.001h-0.025c-0.278,0.494-0.938,1.141-2.026,1.141
			c-0.962,0-2.114-0.545-2.114-2.686v-3.584h1.113v3.382c0,1.165,0.367,1.963,1.368,1.963c0.747,0,1.267-0.52,1.47-1.026
			c0.062-0.151,0.102-0.354,0.102-0.569v-3.749h1.113V159.125z"/>
		<path d="M295.392,156.339c0-0.646-0.024-1.152-0.05-1.659h0.976l0.051,1.001h0.037c0.342-0.583,0.912-1.128,1.938-1.128
			c0.824,0,1.457,0.507,1.723,1.229h0.025c0.189-0.354,0.443-0.607,0.697-0.798c0.367-0.278,0.76-0.431,1.342-0.431
			c0.823,0,2.026,0.532,2.026,2.66v3.597h-1.089v-3.457c0-1.191-0.443-1.888-1.33-1.888c-0.646,0-1.127,0.469-1.33,1.001
			c-0.051,0.164-0.088,0.354-0.088,0.557v3.787h-1.09v-3.673c0-0.976-0.43-1.672-1.279-1.672c-0.684,0-1.203,0.558-1.38,1.114
			c-0.063,0.152-0.089,0.355-0.089,0.545v3.686h-1.09V156.339z"/>
	</g>
	<g enable-background="new    ">
		<path d="M250.17,177.2c0.48-0.114,1.254-0.19,2.014-0.19c1.102,0,1.811,0.19,2.33,0.621c0.443,0.329,0.722,0.836,0.722,1.507
			c0,0.836-0.558,1.558-1.444,1.874v0.038c0.811,0.19,1.762,0.861,1.762,2.128c0,0.734-0.292,1.305-0.735,1.71
			c-0.583,0.544-1.545,0.798-2.938,0.798c-0.76,0-1.342-0.051-1.709-0.102V177.2z M251.271,180.695h1
			c1.152,0,1.837-0.62,1.837-1.443c0-0.988-0.747-1.394-1.862-1.394c-0.506,0-0.797,0.038-0.975,0.076V180.695z M251.271,184.773
			c0.229,0.038,0.531,0.051,0.924,0.051c1.141,0,2.191-0.418,2.191-1.659c0-1.152-1-1.646-2.203-1.646h-0.912V184.773z"/>
		<path d="M262.127,183.925c0,0.646,0.014,1.203,0.051,1.685h-0.987l-0.063-1.001h-0.025c-0.278,0.494-0.938,1.141-2.026,1.141
			c-0.962,0-2.114-0.545-2.114-2.686v-3.584h1.113v3.382c0,1.165,0.367,1.963,1.368,1.963c0.747,0,1.267-0.52,1.47-1.026
			c0.062-0.151,0.102-0.354,0.102-0.569v-3.749h1.113V183.925z"/>
		<path d="M263.979,181.391c0-0.722-0.013-1.342-0.05-1.912h0.975l0.051,1.216h0.037c0.279-0.823,0.963-1.343,1.711-1.343
			c0.113,0,0.202,0.013,0.304,0.025v1.052c-0.114-0.025-0.228-0.025-0.38-0.025c-0.785,0-1.343,0.582-1.494,1.418
			c-0.025,0.152-0.039,0.342-0.039,0.52v3.268h-1.114V181.391z"/>
		<path d="M269.414,177.757c0,0.38-0.266,0.685-0.709,0.685c-0.405,0-0.672-0.305-0.672-0.685s0.279-0.696,0.697-0.696
			C269.135,177.06,269.414,177.364,269.414,177.757z M268.173,185.609v-6.13h1.114v6.13H268.173z"/>
		<path d="M271.758,182.747c0.025,1.507,0.977,2.128,2.104,2.128c0.797,0,1.291-0.14,1.697-0.316l0.202,0.798
			c-0.393,0.177-1.077,0.393-2.052,0.393c-1.887,0-3.014-1.254-3.014-3.104c0-1.849,1.088-3.293,2.874-3.293
			c2.014,0,2.533,1.748,2.533,2.875c0,0.229-0.013,0.393-0.038,0.52H271.758z M275.025,181.949c0.014-0.696-0.291-1.799-1.545-1.799
			c-1.14,0-1.621,1.026-1.709,1.799H275.025z"/>
		<path d="M282.765,176.617v7.409c0,0.545,0.025,1.165,0.051,1.583h-0.987l-0.051-1.063h-0.038
			c-0.329,0.684-1.063,1.203-2.064,1.203c-1.481,0-2.634-1.254-2.634-3.116c-0.013-2.039,1.267-3.28,2.748-3.28
			c0.95,0,1.57,0.443,1.849,0.925h0.025v-3.66H282.765z M281.664,181.974c0-0.14-0.012-0.329-0.051-0.469
			c-0.164-0.696-0.771-1.279-1.607-1.279c-1.152,0-1.837,1.014-1.837,2.355c0,1.241,0.62,2.268,1.812,2.268
			c0.746,0,1.431-0.507,1.633-1.33c0.039-0.151,0.051-0.304,0.051-0.481V181.974z"/>
		<path d="M287.316,181.138c0-0.646-0.025-1.152-0.051-1.659h0.976l0.051,1.001h0.038c0.342-0.583,0.912-1.128,1.938-1.128
			c0.823,0,1.457,0.507,1.723,1.229h0.025c0.189-0.354,0.443-0.607,0.696-0.798c0.367-0.278,0.76-0.431,1.343-0.431
			c0.822,0,2.025,0.532,2.025,2.66v3.597h-1.088v-3.457c0-1.191-0.443-1.888-1.33-1.888c-0.646,0-1.127,0.469-1.33,1.001
			c-0.051,0.164-0.089,0.354-0.089,0.557v3.787h-1.089v-3.673c0-0.976-0.431-1.672-1.279-1.672c-0.684,0-1.203,0.558-1.381,1.114
			c-0.062,0.152-0.088,0.355-0.088,0.545v3.686h-1.09V181.138z"/>
		<path d="M303.012,183.925c0,0.646,0.013,1.203,0.051,1.685h-0.987l-0.064-1.001h-0.025c-0.277,0.494-0.937,1.141-2.025,1.141
			c-0.963,0-2.115-0.545-2.115-2.686v-3.584h1.114v3.382c0,1.165,0.367,1.963,1.368,1.963c0.747,0,1.266-0.52,1.469-1.026
			c0.063-0.151,0.102-0.354,0.102-0.569v-3.749h1.114V183.925z"/>
		<path d="M304.713,184.482c0.342,0.202,0.924,0.431,1.481,0.431c0.798,0,1.178-0.393,1.178-0.912c0-0.532-0.316-0.811-1.127-1.114
			c-1.114-0.405-1.634-1.001-1.634-1.735c0-0.988,0.811-1.799,2.115-1.799c0.62,0,1.165,0.165,1.494,0.38l-0.266,0.811
			c-0.241-0.151-0.684-0.367-1.254-0.367c-0.658,0-1.014,0.38-1.014,0.836c0,0.507,0.355,0.735,1.152,1.052
			c1.052,0.393,1.609,0.924,1.609,1.836c0,1.09-0.85,1.85-2.28,1.85c-0.671,0-1.292-0.178-1.723-0.431L304.713,184.482z"/>
		<path d="M314.251,185.394c-0.292,0.139-0.938,0.354-1.761,0.354c-1.849,0-3.052-1.254-3.052-3.129
			c0-1.887,1.292-3.268,3.292-3.268c0.659,0,1.242,0.165,1.546,0.33l-0.253,0.849c-0.267-0.14-0.685-0.292-1.293-0.292
			c-1.405,0-2.165,1.052-2.165,2.318c0,1.418,0.912,2.292,2.128,2.292c0.633,0,1.051-0.152,1.367-0.291L314.251,185.394z"/>
		<path d="M315.556,176.617h1.115v8.992h-1.115V176.617z"/>
		<path d="M319.168,182.747c0.025,1.507,0.976,2.128,2.103,2.128c0.798,0,1.292-0.14,1.697-0.316l0.202,0.798
			c-0.393,0.177-1.076,0.393-2.051,0.393c-1.888,0-3.015-1.254-3.015-3.104c0-1.849,1.089-3.293,2.874-3.293
			c2.015,0,2.533,1.748,2.533,2.875c0,0.229-0.012,0.393-0.037,0.52H319.168z M322.435,181.949c0.013-0.696-0.291-1.799-1.545-1.799
			c-1.14,0-1.621,1.026-1.71,1.799H322.435z"/>
	</g>
	<g enable-background="new    ">
		<path d="M249.979,199.686c0.342,0.202,0.925,0.431,1.481,0.431c0.799,0,1.178-0.393,1.178-0.912c0-0.532-0.316-0.811-1.127-1.114
			c-1.114-0.405-1.633-1.001-1.633-1.735c0-0.988,0.811-1.799,2.114-1.799c0.62,0,1.165,0.165,1.495,0.38l-0.267,0.811
			c-0.241-0.151-0.684-0.367-1.254-0.367c-0.658,0-1.013,0.38-1.013,0.836c0,0.507,0.354,0.735,1.152,1.052
			c1.051,0.393,1.608,0.924,1.608,1.836c0,1.09-0.849,1.85-2.28,1.85c-0.671,0-1.291-0.178-1.722-0.431L249.979,199.686z"/>
		<path d="M260.277,199.129c0,0.646,0.014,1.203,0.051,1.685h-0.987l-0.063-1.001h-0.025c-0.278,0.494-0.938,1.141-2.026,1.141
			c-0.962,0-2.114-0.545-2.114-2.686v-3.584h1.113v3.382c0,1.165,0.367,1.963,1.368,1.963c0.747,0,1.267-0.52,1.47-1.026
			c0.062-0.151,0.102-0.354,0.102-0.569v-3.749h1.113V199.129z"/>
		<path d="M263.472,193.215v1.469h1.596v0.849h-1.596v3.306c0,0.76,0.215,1.19,0.836,1.19c0.303,0,0.48-0.025,0.646-0.076
			l0.05,0.849c-0.215,0.076-0.557,0.152-0.987,0.152c-0.519,0-0.937-0.178-1.203-0.469c-0.304-0.342-0.431-0.887-0.431-1.608v-3.344
			h-0.949v-0.849h0.949v-1.14L263.472,193.215z"/>
		<path d="M271.453,199.129c0,0.646,0.012,1.203,0.051,1.685h-0.988l-0.063-1.001h-0.025c-0.278,0.494-0.937,1.141-2.026,1.141
			c-0.963,0-2.115-0.545-2.115-2.686v-3.584h1.115v3.382c0,1.165,0.367,1.963,1.367,1.963c0.748,0,1.267-0.52,1.469-1.026
			c0.064-0.151,0.102-0.354,0.102-0.569v-3.749h1.115V199.129z"/>
		<path d="M273.304,196.595c0-0.722-0.013-1.342-0.051-1.912h0.975l0.051,1.216h0.038c0.278-0.823,0.963-1.343,1.71-1.343
			c0.113,0,0.203,0.013,0.304,0.025v1.052c-0.114-0.025-0.228-0.025-0.38-0.025c-0.785,0-1.342,0.582-1.494,1.418
			c-0.025,0.152-0.038,0.342-0.038,0.52v3.268h-1.114V196.595z"/>
		<path d="M277.941,197.951c0.025,1.507,0.975,2.128,2.102,2.128c0.799,0,1.293-0.14,1.697-0.316l0.203,0.798
			c-0.393,0.177-1.076,0.393-2.052,0.393c-1.888,0-3.015-1.254-3.015-3.104c0-1.849,1.09-3.293,2.875-3.293
			c2.014,0,2.533,1.748,2.533,2.875c0,0.229-0.013,0.393-0.038,0.52H277.941z M281.209,197.153c0.012-0.696-0.291-1.799-1.545-1.799
			c-1.141,0-1.621,1.026-1.711,1.799H281.209z"/>
		<path d="M287.456,197.495h0.025c0.151-0.215,0.354-0.481,0.532-0.696l1.811-2.115h1.33l-2.355,2.521l2.697,3.609h-1.367
			l-2.104-2.938l-0.569,0.634v2.305h-1.103v-8.992h1.103V197.495z"/>
		<path d="M292.511,196.343c0-0.646-0.013-1.152-0.051-1.659h0.988l0.062,1.014h0.025c0.305-0.57,1.014-1.141,2.026-1.141
			c0.849,0,2.166,0.507,2.166,2.609v3.647h-1.114v-3.533c0-0.988-0.367-1.812-1.419-1.812c-0.722,0-1.292,0.52-1.494,1.14
			c-0.051,0.14-0.076,0.33-0.076,0.52v3.686h-1.114V196.343z"/>
		<path d="M305.09,197.698c0,2.267-1.582,3.255-3.052,3.255c-1.646,0-2.938-1.216-2.938-3.154c0-2.039,1.355-3.242,3.04-3.242
			C303.9,194.556,305.09,195.836,305.09,197.698z M300.24,197.761c0,1.342,0.76,2.355,1.849,2.355c1.063,0,1.862-1.001,1.862-2.381
			c0-1.039-0.52-2.344-1.837-2.344C300.809,195.392,300.24,196.608,300.24,197.761z"/>
		<path d="M307.842,193.215v1.469h1.596v0.849h-1.596v3.306c0,0.76,0.215,1.19,0.836,1.19c0.303,0,0.48-0.025,0.646-0.076
			l0.05,0.849c-0.215,0.076-0.557,0.152-0.987,0.152c-0.519,0-0.937-0.178-1.203-0.469c-0.304-0.342-0.431-0.887-0.431-1.608v-3.344
			h-0.949v-0.849h0.949v-1.14L307.842,193.215z"/>
		<path d="M310.54,199.686c0.342,0.202,0.925,0.431,1.481,0.431c0.799,0,1.178-0.393,1.178-0.912c0-0.532-0.316-0.811-1.127-1.114
			c-1.114-0.405-1.633-1.001-1.633-1.735c0-0.988,0.811-1.799,2.114-1.799c0.62,0,1.165,0.165,1.495,0.38l-0.267,0.811
			c-0.241-0.151-0.684-0.367-1.254-0.367c-0.658,0-1.013,0.38-1.013,0.836c0,0.507,0.354,0.735,1.152,1.052
			c1.051,0.393,1.608,0.924,1.608,1.836c0,1.09-0.849,1.85-2.28,1.85c-0.671,0-1.291-0.178-1.722-0.431L310.54,199.686z"/>
	</g>
	<path stroke="#000000" stroke-width="0.0448" stroke-linecap="round" stroke-linejoin="round" stroke-miterlimit="10" d="
		M183.062,177.904l7.117,4.902c-1.124-3.191-1.249-6.156-0.062-9.466L183.062,177.904z"/>
	<path stroke="#000000" stroke-width="0.0448" stroke-linecap="round" stroke-linejoin="round" stroke-miterlimit="10" d="
		M168.5,136.929l7.117,4.901c-1.124-3.191-1.25-6.157-0.062-9.464L168.5,136.929z"/>
	<path stroke="#000000" stroke-width="0.0448" stroke-linecap="round" stroke-linejoin="round" stroke-miterlimit="10" d="
		M195.112,80.357l7.118,4.902c-1.125-3.191-1.25-6.156-0.064-9.465L195.112,80.357z"/>
	<path stroke="#000000" stroke-width="0.0448" stroke-linecap="round" stroke-linejoin="round" stroke-miterlimit="10" d="
		M182.935,20.52l7.115,4.901c-1.121-3.19-1.247-6.155-0.062-9.464L182.935,20.52z"/>
	<g enable-background="new    ">
		<path d="M251.55,252.448l-0.886,2.685h-1.141l2.913-8.536h1.317l2.912,8.536h-1.178l-0.911-2.685H251.55z M254.361,251.587
			l-0.848-2.457c-0.19-0.558-0.317-1.064-0.443-1.558h-0.025c-0.127,0.493-0.254,1.025-0.432,1.545l-0.836,2.47H254.361z"/>
		<path d="M257.847,250.662c0-0.646-0.013-1.152-0.051-1.659h0.988l0.062,1.014h0.025c0.305-0.57,1.014-1.141,2.026-1.141
			c0.849,0,2.166,0.507,2.166,2.609v3.647h-1.114v-3.533c0-0.988-0.367-1.812-1.419-1.812c-0.722,0-1.292,0.52-1.494,1.14
			c-0.051,0.14-0.076,0.33-0.076,0.52v3.686h-1.114V250.662z"/>
		<path d="M270.008,253.448c0,0.646,0.014,1.203,0.051,1.685h-0.987l-0.063-1.001h-0.025c-0.278,0.494-0.938,1.141-2.026,1.141
			c-0.962,0-2.114-0.545-2.114-2.686v-3.584h1.113v3.382c0,1.165,0.367,1.963,1.368,1.963c0.747,0,1.267-0.52,1.47-1.026
			c0.062-0.151,0.102-0.354,0.102-0.569v-3.749h1.113V253.448z"/>
		<path d="M271.708,254.006c0.342,0.202,0.925,0.431,1.481,0.431c0.799,0,1.178-0.393,1.178-0.912c0-0.532-0.316-0.811-1.127-1.114
			c-1.114-0.405-1.633-1.001-1.633-1.735c0-0.988,0.811-1.799,2.114-1.799c0.62,0,1.165,0.165,1.495,0.38l-0.267,0.811
			c-0.241-0.151-0.684-0.367-1.254-0.367c-0.658,0-1.013,0.38-1.013,0.836c0,0.507,0.354,0.735,1.152,1.052
			c1.051,0.393,1.608,0.924,1.608,1.836c0,1.09-0.849,1.85-2.28,1.85c-0.671,0-1.291-0.178-1.722-0.431L271.708,254.006z"/>
	</g>
</g>
</svg>
