<?xml version="1.0" encoding="utf-8"?>
<!-- Generator: Adobe Illustrator 15.0.0, SVG Export Plug-In . SVG Version: 6.00 Build 0)  -->
<!DOCTYPE svg PUBLIC "-//W3C//DTD SVG 1.1//EN" "http://www.w3.org/Graphics/SVG/1.1/DTD/svg11.dtd">
<svg version="1.1" id="Layer_1" xmlns="http://www.w3.org/2000/svg" xmlns:xlink="http://www.w3.org/1999/xlink" x="0px" y="0px"
	 width="1249.199px" height="951.203px" viewBox="-471.5 -478.014 1249.199 951.203"
	 enable-background="new -471.5 -478.014 1249.199 951.203" xml:space="preserve">
<g>
	<g>
		<g>
			<g>
				<g>
					<path d="M-408.537-36.735c16.767-50.924,40.064-98.177,73.786-142.167c-2.007-1.278-4.086-2.254-5.724-3.721
						c-2.883-2.589-5.354-5.64-8.302-8.151c-1.04-0.89-3.24-1.48-4.417-0.999c-10.257,4.191-25.523-3.925-22.485-18.715
						c0.541-2.632,0.631-5.457,1.68-7.87c4.229-9.732,17.845-10.261,25.549-4.658c4.22,3.068,7.125,6.912,7.82,12.072
						c0.713,5.247,4.039,8.888,7.176,12.702c0.576,0.701,1.156,1.401,1.693,2.131c4.912,6.723,5.217,6.671,11.224,1.001
						c9.53-8.987,18.906-18.163,28.866-26.655c8.671-7.395,17.944-14.106,27.165-20.842c8.903-6.505,17.643-13.411,27.225-18.771
						c11.979-6.696,24.746-11.992,37.168-17.9c0.576-0.271,1.117-0.604,1.53-0.83c-0.945-4.722-1.758-9.271-2.802-13.763
						c-0.593-2.567-2.131-4.125-5.053-4.682c-3.42-0.651-6.858-1.704-10.003-3.188c-7.451-3.517-10.214-10.345-7.094-18.083
						c1.362-3.369,3.854-6.301,5.925-9.367c3.034-4.478,7.636-4.394,12.293-4.02c5.796,0.464,11.58,1.077,17.381,1.382
						c2.974,0.157,4.671,1.347,5.99,4.05c2.565,5.253,4.435,10.357,0.782,15.836c-0.361,0.539-0.576,1.328-1.074,1.59
						c-4.881,2.548-3.558,6.793-2.664,10.585c0.997,4.251,2.655,8.351,3.918,12.179c10.398-2.847,20.6-5.822,30.903-8.415
						c10.467-2.634,20.93-5.468,31.565-7.169c12.59-2.013,25.347-3.019,38.053-4.248c6.471-0.625,12.98-0.832,19.482-1.124
						c1.998-0.088,3.059-0.619,3.292-2.868c0.382-3.741,1.607-7.44,1.615-11.157c0-2.25-1.392-4.643-2.625-6.692
						c-0.662-1.103-2.316-1.614-3.52-2.394c-4.684-3.031-6.127-7.786-3.889-12.871c0.529-1.19,1.281-2.291,1.715-3.506
						c1.839-5.191,5.702-7.539,10.996-7.896c2.213-0.147,4.503-0.516,6.643-0.142c2.011,0.353,4.043,1.296,5.758,2.438
						c2.432,1.629,3.979,4.252,7.3,0.466c3.381-3.848,12.929-0.069,14.725,5.339c1.723,5.167-1.139,14.042-5.728,17.136
						c-2.763,1.862-5.805,3.309-8.628,5.087c-3.67,2.314-6.609,11.937-4.619,15.711c0.533,1.008,2.221,1.781,3.484,1.97
						c6.316,0.954,12.758,1.244,18.984,2.563c15.709,3.328,31.801,4.838,47.05,10.431c7.541,2.767,15.641,3.996,23.26,6.598
						c8.49,2.9,16.706,6.598,25.067,9.89c2.974,1.171,5.969,2.333,9.045,3.19c2.755,0.769,4.753-0.565,6.171-2.976
						c2.229-3.796,4.786-7.423,6.746-11.348c0.924-1.853,1.035-4.23,1.048-6.375c0.013-2.041-0.627-4.08-0.902-6.129
						c-1.026-7.685,0.937-11.292,7.709-14.253c6.132-2.683,13.621-1.188,17.596,3.537c0.838,0.997,1.787,1.957,2.38,3.094
						c1.964,3.773,4.332,6.523,9.028,7.451c4.107,0.808,5.065,5.137,3.429,8.98c-2.557,6.005-7.932,8.132-13.329,9.988
						c-9.126,3.135-16.212,8.635-21.441,16.623c-0.274,0.421-0.438,0.913-0.928,1.941c6.557,3.523,13.152,6.809,19.481,10.534
						c6.953,4.086,13.75,8.445,20.445,12.934c5.147,3.448,10.17,7.105,15.004,10.972c11.843,9.47,25.348,16.893,35.256,28.763
						c3.726,4.462,7.967,8.527,12.225,12.506c0.834,0.78,3.266,0.993,4.207,0.357c6.725-4.557,12.104-10.074,13.806-18.565
						c1.144-5.71,7.554-10.127,14.017-10.656c1.302-0.105,2.707,0.095,3.893-0.322c8.04-2.847,12.93,1.178,15.649,8.598
						c1.805,4.909,2.698,10.257,3.228,15.488c0.382,3.783-4.323,8.918-8.126,9.773c-6.024,1.354-12.306,1.919-18.072,3.953
						c-5.534,1.955-10.554,5.356-15.787,8.119c8.452,10.005,15.598,19.965,21.957,30.525c3.648,6.059,8.259,11.567,11.666,17.742
						c5.564,10.074,10.987,20.281,15.56,30.824c5.092,11.737,9.117,23.932,13.779,35.86c0.361,0.917,2.23,1.998,3.176,1.822
						c7.928-1.461,15.8-3.214,23.693-4.84c2.045-0.421,2.122-1.523,1.938-3.408c-0.442-4.441,6.712-13.032,10.889-12.311
						c3.008,0.52,5.844,3.126,8.288,5.322c1.448,1.302,1.989,3.609,2.931,5.468c1.749,3.442,3.309,6.989,5.276,10.302
						c2.72,4.572,2.884,7.853,0.064,11.552c-0.313,0.413-0.589,1.01-1.01,1.167c-6.445,2.368-13.079,6.102-19.89,2.834
						c-7.125-3.418-13.905-3.33-21.171-1.367c-3.313,0.896-6.807,1.122-9.247,1.5c1.878,19.016,3.691,37.398,5.513,55.789
						c0.481,4.89,1.203,9.771,1.405,14.679c0.15,3.669-0.563,7.369-0.524,11.051c0.104,8.56,0.679,17.119,0.567,25.669
						c-0.073,5.793-0.906,11.576-1.568,17.341c-0.353,3.061,0.224,4.529,3.858,4.547c3.18,0.018,6.454,0.895,9.514,1.916
						c5.083,1.693,7.872-0.816,10.88-4.416c6.879-8.224,13.591-8.019,18.803-1.273c4.168,5.381,7.924,11.285,10.695,17.473
						c3.566,7.965-2.329,15.494-12.233,16.551c-2.841,0.309-5.72,0.275-8.581,0.379c-4.542,0.172-8.517-1.281-11.641-4.555
						c-5.1-5.338-11.541-7.891-18.64-8.912c-1.203-0.182-3.227,0.877-3.828,1.941c-1.264,2.234-1.951,4.822-2.664,7.322
						c-2.445,8.559-4.606,17.213-7.258,25.713c-2.195,7.037-4.559,14.068-7.507,20.814c-4.709,10.793-9.818,21.432-15.039,31.994
						c-3.721,7.52-7.799,14.857-11.932,22.162c-1.65,2.914-3.722,5.621-5.87,8.199c-2.784,3.344-2.659,5.5,0.929,7.881
						c2.496,1.658,4.945,3.412,7.563,4.863c3.094,1.729,6.166,2.775,9.951,1.152c4.886-2.098,9.315-0.568,13.974,2.131
						c5.702,3.301,6.304,8.301,7.64,13.785c2.557,10.535-0.185,11.523-9.707,15.426c-1.805,0.738-3.656,1.357-5.474,2.07
						c-6.364,2.518-14.103-4.59-16.698-10.932c-2.105-5.139-5.268-9.332-10.286-12.031c-2.956-1.59-5.715-3.584-8.753-4.984
						c-0.992-0.455-3.18-0.104-3.82,0.688c-6.535,8.078-12.504,16.629-19.344,24.432c-7.691,8.766-15.907,17.111-24.291,25.232
						c-6.754,6.539-13.981,12.607-21.227,18.623c-5.375,4.459-11.029,8.609-16.728,12.666c-2.724,1.943-3.149,3.963-1.972,6.953
						c1.972,5.027,3.841,10.123,5.366,15.297c1.19,4.029,3.691,6.979,7.498,7.725c5.015,0.979,7.532,4.109,9.784,8.07
						c2.591,4.572,2.935,9.375,1.899,14.359c-1.302,6.283-8.903,11.275-15.143,10.047c-10.415-2.055-18.799-12.1-19.065-22.98
						c-0.111-4.641,0.456-9.35-0.137-13.922c-0.524-4.047-2.141-7.975-3.438-11.902c-0.757-2.293-2.23-2.809-4.576-1.641
						c-6.746,3.369-13.604,6.514-20.397,9.779c-9.376,4.521-18.511,9.625-28.153,13.475c-13.926,5.553-28.148,10.416-42.38,15.168
						c-6.622,2.219-13.643,3.223-20.329,5.27c-5.418,1.666-5.87,3.23-4.877,8.662c1.379,7.52,2.621,15.072,3.687,22.645
						c0.322,2.295,2.144,4.545,0.37,7.193c-0.267,0.395,1.934,3.299,3.416,3.797c2.449,0.826,3.807,2.029,4.193,4.486
						c0.057,0.379,0.091,0.842,0.322,1.1c5.745,6.455,2.449,12.145-1.044,18.236c-2.78,4.848-6.707,6.6-11.803,6.23
						c-3.992-0.291-8.366-0.309-11.83-1.977c-7.584-3.652-12.001-10.871-9.973-19.895c0.605-2.715,2.875-5.174,4.756-7.451
						c3.206-3.867,5.13-7.588,3.906-13.105c-1.757-7.906-2.453-16.061-3.334-24.139c-0.318-2.957-1.539-3.695-4.31-3.42
						c-17.883,1.795-35.741,4.262-53.672,4.984c-13.965,0.549-28.033-0.859-42.023-1.857c-10.321-0.73-20.599-2.088-30.86-3.395
						c-4.503-0.576-8.955-1.633-13.389-2.654c-2.458-0.568-3.812-0.07-4.752,2.482c-2.045,5.586-4.254,11.129-6.754,16.525
						c-2.793,6.043-2.14,11.559,1.564,16.922c2.647,3.816,1.014,14.73-2.763,18.709c-0.627,0.662-1.319,1.271-1.955,1.916
						c-5.113,5.225-12.065,4.701-17.857,0.078c-5.234-4.178-7.76-9.807-8.989-15.521c-0.928-4.279,0.413-9.701,2.432-13.783
						c2.221-4.486,6.102-8.303,9.762-11.902c4.203-4.135,7.709-8.535,8.422-14.48c0.138-1.178-1.074-3.232-2.174-3.705
						c-11.202-4.82-22.636-9.117-33.756-14.102c-14.111-6.326-27.578-13.879-40.455-22.465
						c-8.826-5.877-17.888-11.412-26.636-17.402c-8.59-5.877-16.973-12.074-25.326-18.287c-1.624-1.203-2.746-1.727-4.348-0.25
						c-3.73,3.438-7.751,6.603-11.164,10.313c-1.585,1.719-2.853,4.479-2.857,6.773c-0.021,13.422-9.406,21.484-22.073,22.541
						c-4.022,0.334-8.448,1.021-12.036-0.258c-3.27-1.16-6.548-4.297-8.246-7.416c-3.42-6.301,0.524-19.955,6.136-24.51
						c3.962-3.205,8.482-4.521,13.488-4.229c5.633,0.336,10.601-1.082,14.657-5.121c2.836-2.811,5.775-5.535,8.366-8.551
						c0.559-0.654,0.296-2.76-0.361-3.576c-9.101-11.326-18.799-22.215-27.401-33.893c-7.82-10.613-14.592-22-21.63-33.172
						c-4.464-7.09-9.083-14.154-12.714-21.666c-4.49-9.289-8.091-19.01-11.95-28.592c-1.444-3.582-2.402-7.363-3.876-10.93
						c-0.352-0.852-2.032-1.9-2.832-1.711c-6.286,1.479-12.542,3.102-18.722,4.977c-1.779,0.531-3.3,1.992-4.89,3.102
						c-8.083,5.637-16.861,8.268-26.834,6.986c-7.923-1.014-15.211-10.811-12.01-17.84c1.431-3.137,5.29-5.896,8.68-7.297
						c8.052-3.326,16.47-5.662,25.377-5.697c6.505-0.025,13.02-0.352,19.516-0.73c4.203-0.24,4.701-1.186,4.039-5.105
						c-2.617-15.563-5.551-31.092-7.558-46.732c-1.5-11.695-2.015-23.537-2.483-35.337c-0.503-12.783-0.804-25.595-0.507-38.379
						c0.202-8.774,1.577-17.522,2.445-26.28c0.365-3.729,0.713-7.459,1.177-11.176c0.322-2.6-0.64-3.82-3.24-4.722
						c-9.208-3.206-18.374-4.993-28.27-3.326c-6.467,1.091-12.792-0.962-18.824-3.755c-3.769-1.745-7.906-2.552-9.801-6.953
						c-1.654-3.837-1.753-7.53,0.107-11.249c4.662-9.339,14.927-12.927,24.75-10.25c8.512,2.32,15.194,6.946,20.625,13.711
						C-420.56-38.845-414.961-36.647-408.537-36.735z M225.626,240.916c-3.386-2.037-5.994-3.723-8.706-5.227
						c-7.794-4.322-7.928-4.666-4.297-12.598c0.43-0.938,0.615-1.984,1.019-2.939c1.065-2.535,4.189-3.479,6.493-2.139
						c4.313,2.518,8.68,4.949,13.02,7.424c2.505,1.428,4.292,0.971,5.762-1.676c2.136-3.842,4.73-7.434,6.832-11.301
						c6.342-11.635,13.016-23.125,18.648-35.096c4.907-10.416,8.882-21.305,12.71-32.176c3.652-10.373,6.651-20.986,9.793-31.531
						c0.829-2.793,1.121-5.748,1.68-8.748c-3.738-0.799-6.922-1.4-10.059-2.174c-5.663-1.41-11.396-2.646-16.926-4.477
						c-7.704-2.535-6.054-8.063-2.853-13.803c1.289-2.311,3.549-2.982,6.406-2.268c5.921,1.469,11.941,2.543,17.905,3.84
						c6.87,1.496,6.888,1.514,7.292-5.8c0.034-0.645,0.029-1.297,0.047-1.949c0.279-10.52,0.722-21.047,0.761-31.566
						c0.017-3.754-1.006-7.51-1.401-11.283c-0.12-1.182,0.186-2.432,0.438-3.627c0.211-0.971,0.95-1.907,0.92-2.844
						c-0.142-3.975-0.374-7.958-0.77-11.912c-0.958-9.685-1.916-19.379-3.094-29.038c-0.881-7.193-2.157-14.343-3.153-21.525
						c-0.447-3.229-1.749-4.677-5.226-3.579c-2.978,0.941-6.041,1.972-9.113,2.159c-3.515,0.215-7.524,0.442-10.515-0.995
						c-3.326-1.596-4.344-5.545-3.558-9.475c0.859-4.323,4.236-5.09,7.851-5.715c5.482-0.952,10.936-2.054,17.127-3.229
						c-2.131-5.674-3.76-10.575-5.792-15.304c-5.792-13.475-11.322-27.092-17.798-40.238c-4.516-9.163-10.223-17.778-15.773-26.396
						c-5.822-9.034-11.843-17.967-18.262-26.584c-4.465-5.997-5.385-5.812-11.383-1.539c-1.482,1.057-2.771,2.415-4.327,3.341
						c-3.532,2.097-6.978,4.585-10.811,5.863c-5.294,1.766-12.165-5.328-10.812-10.792c0.275-1.122,1.251-2.232,2.191-3.008
						c5.002-4.131,9.974-8.319,15.211-12.147c2.879-2.107,3.043-3.929,0.606-6.215c-9.938-9.337-19.692-18.883-29.928-27.887
						c-6.622-5.822-13.784-11.086-21.024-16.147c-7.559-5.288-15.361-10.259-23.307-14.947c-7.713-4.553-15.739-8.579-23.637-12.815
						c-2.454-1.315-4.275-0.879-5.956,1.579c-3.184,4.673-6.596,9.204-10.08,13.662c-2.041,2.606-4.723,3.104-7.653,1.287
						c-3.991-2.475-6.23-6.054-4.834-8.667c2.359-4.428,5.131-8.639,7.791-12.903c1.194-1.914,2.535-3.74,4.052-5.962
						c-2.866-1.044-5.04-1.867-7.236-2.63c-10.196-3.538-20.384-7.092-30.598-10.577c-7.949-2.711-15.8-5.852-23.925-7.865
						c-12.874-3.188-25.897-5.842-38.947-8.235c-7.902-1.45-15.963-2.088-23.977-2.879c-3.089-0.308-4.495,1.56-4.288,4.617
						c0.266,3.938,0.894,7.902,0.627,11.806c-0.15,2.174-1.28,4.909-2.917,6.175c-1.538,1.186-4.383,1.203-6.54,0.915
						c-1.805-0.241-3.687-1.401-5.101-2.643c-1.405-1.24-2.952-2.98-3.235-4.694c-0.662-4.076-0.997-8.289-0.761-12.405
						c0.236-4.164-1.457-5.152-5.238-5.036c-24.037,0.731-47.781,3.835-71.255,8.903c-15.129,3.268-30.186,6.894-44.795,12.841
						c1.573,5.236,3.588,10.208,4.413,15.368c0.511,3.19,0.404,7.85-1.521,9.788c-4.963,5.001-12.964,2.227-15.215-4.51
						c-1.147-3.446-2.354-6.871-3.489-10.319c-0.808-2.462-2.324-3.326-4.799-2.333c-3.502,1.407-7.051,2.715-10.515,4.215
						c-16.818,7.287-32.489,16.525-46.948,27.753c-12.723,9.878-25.626,19.548-37.907,29.947
						c-8.714,7.378-16.509,15.832-24.746,23.764c-2.613,2.516-1.878,4.66,0.262,7.041c4.082,4.546,8.07,9.178,11.98,13.87
						c3.077,3.685,1.805,10.422-2.527,12.476c-1.186,0.563-3.618,0.238-4.529-0.647c-5.195-5.063-10.235-10.306-15.047-15.737
						c-1.805-2.039-3.09-2.14-4.667-0.226c-2.226,2.699-4.49,5.391-6.462,8.274c-5.715,8.359-11.481,16.695-16.861,25.268
						c-4.322,6.886-8.422,13.95-12.074,21.208c-6.346,12.618-12.418,25.377-18.322,38.212c-3.163,6.886-5.947,13.969-8.491,21.106
						c-2.591,7.259-4.684,14.695-7.055,22.255c7.141,1.599,13.436,3.124,19.783,4.381c3.583,0.709,6.11,2.483,7.983,5.59
						c1.71,2.853,1.599,7.244-0.906,10.098c-2.316,2.638-4.714,4.408-8.809,2.569c-5.41-2.432-11.215-3.987-16.814-6.02
						c-2.303-0.833-3.575-0.176-3.794,2.196c-1.096,11.868-2.806,23.728-3.046,35.621c-0.344,16.878,0.361,33.781,0.722,50.678
						c0.112,5.035,0.267,10.098,0.928,15.082c1.285,9.744,2.844,19.465,4.469,29.166c1.495,8.904,3.145,17.773,4.941,26.607
						c0.18,0.885,2.002,2.209,2.814,2.053c6.106-1.16,12.139-2.715,18.227-3.961c1.431-0.293,3.257-0.344,4.482,0.293
						c4.297,2.234,5.362,6.066,3.996,12.959c-0.752,3.781-3.738,4.502-6.953,5.121c-5.165,0.988-10.295,2.184-15.593,3.318
						c0.296,1.469,0.391,2.363,0.658,3.195c4.34,13.648,8.68,27.27,16.293,39.617c6.454,10.469,12.298,21.322,18.88,31.711
						c4.499,7.082,9.625,13.803,14.799,20.428c8.181,10.494,16.775,20.678,24.9,31.213c2.746,3.559,4.31,2.227,6.69-0.137
						c2.939-2.932,6.123-5.664,9.453-8.148c1.143-0.85,3.283-1.305,4.555-0.832c3.034,1.125,5.861,2.836,8.697,4.451
						c3.034,1.727,3.498,4.408,1.173,6.951c-1.13,1.246-2.574,2.191-3.82,3.344c-3.017,2.775-5.999,5.586-9.354,8.715
						c3.906,2.869,7.274,5.473,10.781,7.879c5.204,3.566,10.57,6.893,15.752,10.494c8.603,5.963,16.839,12.494,25.726,17.986
						c9.432,5.836,19.426,10.75,29.197,16.035c14.309,7.744,28.866,14.92,44.387,20.016c2.612,0.852,3.764,0.498,4.907-2.313
						c2.531-6.213,5.586-12.236,8.671-18.209c0.61-1.186,2.204-2.406,3.498-2.604c4.194-0.645,9.354,5.594,8.164,9.65
						c-1.057,3.6-2.277,7.158-3.438,10.731c-1.706,5.228-1.182,6.043,4.228,6.85c6.806,1.023,13.587,2.277,20.419,3.146
						c11.094,1.4,22.189,3.066,33.339,3.695c9.315,0.523,18.739,0.111,28.059-0.576c16.328-1.203,32.643-2.732,48.916-4.537
						c7.808-0.869,7.816-1.289,7.906-9.438c0.026-2.277,0.683-3.652,3.12-4.133c1.628-0.326,3.171-1.117,4.731-1.744
						c4.645-1.873,7.348-0.111,7.945,4.898c0.365,3.041,1.19,6.023,1.895,9.436c7.58-1.951,14.837-3.48,21.862-5.715
						c11.133-3.549,22.215-7.322,33.129-11.49c10.196-3.893,20.208-8.283,30.173-12.736c4.688-2.096,9.019-4.957,13.608-7.277
						c5.271-2.664,10.639-5.148,15.988-7.648c2.845-1.332,2.836-3.336,1.68-5.801c-1.314-2.803-2.729-5.586-3.725-8.5
						c-3.236-9.488-2.836-10.037,6.797-12.211c2.673-0.602,4.404-0.207,5.564,2.594c1.947,4.693,4.246,9.23,6.54,14.146
						c1.681-0.912,2.927-1.357,3.901-2.148c10.429-8.414,21.343-16.338,31.075-25.49c10.948-10.295,20.883-21.672,31.136-32.689
						c3.273-3.516,6.204-7.365,9.195-11.139C219.777,248.709,222.519,244.998,225.626,240.916z M247.325-214.495
						c-2.655,0.531-5.264,0.851-7.747,1.592c-4.637,1.388-7.847,3.996-8.977,9.202c-0.777,3.579-2.131,7.633-4.598,10.125
						c-5.147,5.188-10.416,10.265-17.063,13.98c-6.123,3.424-11.31,8.559-16.736,13.142c-0.898,0.758-1.659,3.22-1.19,3.74
						c1.241,1.384,3.089,2.55,4.898,2.98c1.1,0.262,2.724-0.782,3.85-1.596c7.894-5.719,15.517-11.836,23.654-17.185
						c4.25-2.797,9.243-4.651,14.124-6.28c5.844-1.953,12.022-2.911,17.854-4.9c2.904-0.995,4.752-3.816,3.936-7.187
						c-0.975-4.022-2.272-7.977-3.613-11.9C254.66-211.87,250.431-214.57,247.325-214.495z M-289.213,286.607
						c-4.709-4.305-7.056-5.043-10.171-2.406c-3.562,3.008-6.51,6.73-9.736,10.141c-0.692,0.73-1.405,1.453-2.157,2.133
						c-2.397,2.164-5.144,4.039-7.171,6.504c-5.689,6.902-11.782,12.152-21.802,10.889c-5.389-0.678-10.398,1.615-13.076,6.789
						c-1.594,3.086-2.694,6.471-3.592,9.832c-0.898,3.359,1.792,8.182,4.873,9.307c8.108,2.957,15.954,2.475,22.889-2.854
						c3.446-2.654,6.828-5.877,6.261-10.965c-0.658-5.904,0.176-11.121,5.827-14.49c0.533-0.316,0.829-1.004,1.311-1.426
						c4.181-3.652,8.404-7.254,12.564-10.922C-298.571,295.047-294,290.897-289.213,286.607z M330.676,116.117
						c2.939-0.576,7.111-1.074,11.056-2.287c2.548-0.789,4.615-2.801,3.253-6.016c-2.088-4.932-3.983-9.984-6.596-14.643
						c-1.465-2.604-3.919-4.941-6.458-6.592c-2.329-1.512-13.02,3.678-14.12,6.316c-2.324,5.568-2.483,5.611-8.336,3.996
						c-4.267-1.178-8.537-2.363-12.864-3.283c-2.385-0.506-4.972-0.154-7.326-0.738c-5.496-1.35-10.893-3.094-16.362-4.564
						c-2.51-0.67-5.092-1.391-7.657-1.443c-1.358-0.025-3.455,1.041-3.919,2.148c-0.434,1.049,0.408,3.404,1.439,4.117
						c2.188,1.529,4.757,2.811,7.352,3.412c11.615,2.723,23.393,4.82,34.908,7.896c4.456,1.195,8.667,3.988,12.443,6.781
						C321.18,113.951,324.836,116.057,330.676,116.117z M-184.55-318.228c-0.013-7.7-2.505-9.795-9.698-9.187
						c-2.78,0.236-5.638-0.574-8.469-0.832c-2.647-0.241-5.831-1.405-7.851-0.37c-5.921,3.038-8.482,8.727-8.611,15.17
						c-0.039,2.009,1.165,4.821,2.746,5.911c2.793,1.923,6.205,3.216,9.539,4.041c7.64,1.889,10.467,4.091,11.09,11.917
						c0.859,10.809,6.57,19.877,9.814,29.816c0.4,1.231,2.273,1.99,3.463,2.967c1.246-1.564,2.737-3.004,3.631-4.748
						c0.421-0.834-0.185-2.282-0.516-3.393c-3.678-12.184-7.313-24.38-11.163-36.511c-0.916-2.894-1.195-4.847,1.809-6.888
						C-186.157-312.105-183.794-314.715-184.55-318.228z M-451.734-53.721c-5.547,0.378-10.364,2.248-13.617,7.071
						c-2.526,3.757-2.604,7.255,0.095,9.481c2.045,1.687,4.263,3.453,6.716,4.292c6.523,2.243,13.217,3.631,20.234,2.222
						c2.763-0.554,5.792-1.22,8.439-0.649c6.153,1.328,12.168,3.304,18.202,5.144c9.281,2.836,18.511,5.835,27.818,8.568
						c1.036,0.301,3.072-0.292,3.532-1.1c0.653-1.156,0.885-3.292,0.215-4.28c-0.928-1.371-2.741-2.543-4.383-2.96
						c-8.404-2.136-16.783-4.877-25.338-5.724c-8.998-0.896-15.074-5.324-20.698-11.604
						C-436.102-49.493-443.273-52.956-451.734-53.721z M-45.03-284.266c0.499-9.81,0.847-19.381,1.504-28.929
						c0.67-9.771,0.684-14.493,11.958-18.466c5.715-2.013,8.516-7.12,8.233-13.597c-0.168-3.936-4.572-6.271-7.846-4.069
						c-1.169,0.789-2.174,1.878-3.094,2.965c-2.166,2.557-3.609,2.956-5.874-0.344c-3.708-5.403-11.717-7.004-16.25-3.899
						c-7.193,4.929-7.073,12.917,0.275,17.51c5.281,3.302,6.011,5.457,4.873,11.769c-0.683,3.809-0.941,7.724-1.031,11.597
						c-0.034,1.695,1.268,3.431,1.19,5.111c-0.211,4.581-1.057,9.133-1.233,13.711C-52.515-285.799-50.977-284.493-45.03-284.266z
						 M8.191,449.451c6.974,0.662,9.964-2.227,11.971-6.557c2.397-5.182,1.225-11.482-6.003-14.652
						c-1.336-0.584-3.197-1.496-3.502-2.621c-0.808-2.932-1.603-6.18-1.121-9.092c1.147-6.875-0.73-13.295-1.904-19.852
						c-0.937-5.27-1.762-10.555-2.715-15.822c-0.636-3.531-1.345-7.055-2.153-10.553c-0.477-2.08-2.105-2.5-3.498-1.203
						c-1.083,1.014-2.102,2.75-2.088,4.15c0.051,4.59,0.417,9.195,0.971,13.768c1.001,8.225,2.204,16.422,3.36,24.629
						c0.881,6.23-0.215,11.637-4.911,16.414c-1.972,2.012-3.446,5.457-3.446,8.242C-6.84,444.664-1.168,449.279,8.191,449.451z
						 M107.066-292.846c0.185,0.051,0.374,0.102,0.555,0.152c-0.739,2.174-1.096,4.587-2.286,6.479
						c-3.94,6.246-8.207,12.285-12.298,18.434c-3.506,5.272-7.056,10.521-10.313,15.944c-0.627,1.042,0.021,2.842,0.082,4.294
						c1.361-0.296,3.119-0.163,4.009-0.973c2.041-1.858,3.721-4.127,5.427-6.321c4.43-5.693,8.74-11.481,13.204-17.148
						c4.353-5.535,9.023-10.45,16.144-12.891c5.031-1.726,9.643-4.843,14.18-7.741c1.362-0.872,1.852-3.102,2.737-4.709
						c-1.62-0.578-3.223-1.231-4.877-1.7c-0.988-0.284-2.222,0-3.06-0.475c-0.976-0.557-2.308-1.65-2.32-2.527
						c-0.082-5.208-3.747-7.896-7.455-10.042c-5.934-3.433-14.27,1.566-14.377,8.398
						C106.357-300.067,106.834-296.454,107.066-292.846z M-187.648,417.543c0,0.523-0.064,1.057,0.017,1.564
						c0.077,0.506,0.313,0.988,0.451,1.486c2.101,7.494,5.066,14.316,13.681,16.336c1.336,0.318,3.326,0.301,4.258-0.463
						c7-5.758,6.866-12.127,3.012-20.695c-2.123-4.709-2.174-8.971-0.662-13.525c2.759-8.311,5.612-16.586,8.435-24.879
						c0.163-0.473,0.296-1.066,0.649-1.357c5.19-4.271,3.979-10.941,6.093-16.363c0.31-0.781-1.1-2.389-2.007-3.334
						c-0.21-0.225-2.118,0.498-2.419,1.15c-2.913,6.463-6.08,12.857-8.319,19.561c-2.475,7.381-4.391,14.936-9.921,20.797
						c-2.136,2.26-4.667,4.143-6.854,6.359C-184.876,407.883-187.48,412.154-187.648,417.543z M-372.718,150.063
						c-1.929-2.656-0.98-6.713-5.302-5.854c-4.314,0.859-8.508,2.32-12.822,3.164c-6.84,1.34-13.703,3.084-20.607,3.377
						c-10.781,0.455-21.579-0.018-31.892,3.986c-2.866,1.109-5.964,1.729-8.68,3.111c-2.346,1.195-4.898,2.775-4.383,6.18
						c0.507,3.369,2.458,5.518,5.552,6.961c7.257,3.402,13.973,1.117,20.483-1.951c5.144-2.424,9.801-6.016,15.086-7.975
						c6.51-2.416,13.445-3.695,20.212-5.424C-387.826,153.801-380.556,152.014-372.718,150.063z M324.793-42.433
						c2.574-0.567,5.277-1.008,7.885-1.768c6.321-1.848,7.116-4.75,3.477-10.22c-1.895-2.842-2.939-6.23-4.585-9.253
						c-1.147-2.112-2.265-4.679-4.146-5.809c-1.384-0.83-4.15-0.043-5.96,0.773c-0.932,0.419-1.826,2.666-1.525,3.762
						c1.324,4.864-0.906,8.035-6.037,8.209c-2.063,0.069-4.146,0.376-6.166,0.813c-7.966,1.71-15.877,3.68-23.873,5.229
						c-6.737,1.304-13.604,1.959-20.32,3.345c-1.649,0.339-2.938,2.4-4.391,3.672c1.619,1.665,2.99,4.25,4.92,4.761
						c2.393,0.634,5.276-0.29,7.893-0.821c9.037-1.833,18.107-3.568,27.058-5.764c7.752-1.901,15.146-2.265,22.254,2.047
						C322.228-42.88,323.482-42.798,324.793-42.433z M-371.713-210.247c0.735,10.205,4.838,14.731,13.703,14.255
						c1.165-0.063,2.978-0.681,3.313-1.51c1.646-4.119,3.644-2.361,5.431-0.44c8.147,8.738,16.105,17.651,24.337,26.308
						c3.48,3.657,7.425,6.881,11.258,10.184c0.61,0.522,1.771,0.408,2.673,0.588c-0.086-1.038,0.181-2.31-0.327-3.065
						c-0.997-1.487-2.466-2.651-3.669-4.014c-2.827-3.201-5.698-6.37-8.388-9.681c-4.542-5.584-8.705-11.492-13.5-16.839
						c-3.975-4.43-7.417-9.169-8.474-14.915c-0.876-4.763-3.553-7.683-7.146-10.145c-4.164-2.855-9.183-3.332-13.325-1.203
						C-369.784-218.691-371.567-214.22-371.713-210.247z M165.465,373.318c-0.163-7.656-2.844-11.223-10.313-13.078
						c-4.163-1.041-6.286-3.68-7.627-7.512c-3.067-8.773-6.161-17.539-9.561-26.186c-1.744-4.443-4.068-8.68-6.372-12.873
						c-0.421-0.766-2.208-1.436-3.033-1.16c-0.89,0.293-1.946,1.754-1.938,2.699c0.009,1.623,0.615,3.316,1.276,4.855
						c2.896,6.711,5.973,13.346,8.848,20.074c2.557,5.98,4.306,11.971,3.089,18.785c-1.426,7.984,3.262,19.432,10.858,23.402
						C158.405,386.356,165.65,381.982,165.465,373.318z M280.119,259.135c-0.435-11.275-10.025-19.723-19.809-14.859
						c-1.058,0.523-2.712,0.652-3.781,0.215c-4.512-1.848-9.145-3.584-13.295-6.084c-7.348-4.408-14.373-9.359-21.549-14.061
						c-1.491-0.979-3.124-1.898-4.095,0.543c-0.743,1.873-2.583,3.824,0.593,5.543c6.501,3.514,12.891,7.227,19.289,10.93
						c7.726,4.469,16.357,8.053,18.287,18.297c0.159,0.852,0.813,1.633,1.311,2.389c2.354,3.559,5.981,6.48,9.874,5.955
						c4.864-0.645,9.861-2.68,12.753-7.434C280.019,260.045,280.058,259.35,280.119,259.135z"/>
					<path fill="#FFFFFF" d="M247.325-214.495c3.106-0.075,7.335,2.625,8.392,5.715c1.341,3.923,2.639,7.878,3.613,11.9
						c0.816,3.371-1.031,6.192-3.936,7.187c-5.831,1.989-12.01,2.948-17.854,4.9c-4.881,1.628-9.874,3.483-14.124,6.28
						c-8.138,5.348-15.761,11.464-23.654,17.185c-1.126,0.813-2.75,1.858-3.85,1.596c-1.81-0.43-3.657-1.596-4.898-2.98
						c-0.469-0.52,0.292-2.982,1.19-3.74c5.427-4.583,10.613-9.718,16.736-13.142c6.646-3.715,11.915-8.792,17.063-13.98
						c2.467-2.492,3.82-6.546,4.598-10.125c1.13-5.206,4.34-7.814,8.977-9.202C242.061-213.644,244.67-213.964,247.325-214.495z"/>
					<path fill="#FFFFFF" d="M-289.213,286.607c-4.787,4.289-9.358,8.439-13.982,12.531c-4.16,3.668-8.383,7.27-12.564,10.922
						c-0.481,0.422-0.778,1.109-1.311,1.426c-5.65,3.369-6.484,8.586-5.827,14.49c0.567,5.088-2.814,8.311-6.261,10.965
						c-6.935,5.328-14.781,5.811-22.889,2.854c-3.081-1.125-5.771-5.947-4.873-9.307c0.898-3.361,1.998-6.746,3.592-9.832
						c2.677-5.174,7.687-7.467,13.076-6.789c10.02,1.264,16.113-3.986,21.802-10.889c2.028-2.465,4.774-4.34,7.171-6.504
						c0.752-0.68,1.465-1.402,2.157-2.133c3.227-3.41,6.174-7.133,9.736-10.141C-296.269,281.565-293.923,282.303-289.213,286.607z"
						/>
					<path fill="#FFFFFF" d="M330.676,116.117c-5.84-0.061-9.496-2.166-13.188-4.898c-3.776-2.793-7.987-5.586-12.443-6.781
						c-11.516-3.076-23.293-5.174-34.908-7.896c-2.595-0.602-5.164-1.883-7.352-3.412c-1.031-0.713-1.873-3.068-1.439-4.117
						c0.464-1.107,2.561-2.174,3.919-2.148c2.565,0.053,5.147,0.773,7.657,1.443c5.47,1.471,10.866,3.215,16.362,4.564
						c2.354,0.584,4.941,0.232,7.326,0.738c4.327,0.92,8.598,2.105,12.864,3.283c5.853,1.615,6.012,1.572,8.336-3.996
						c1.101-2.639,11.791-7.828,14.12-6.316c2.539,1.65,4.993,3.988,6.458,6.592c2.612,4.658,4.508,9.711,6.596,14.643
						c1.362,3.215-0.705,5.227-3.253,6.016C337.787,115.043,333.615,115.541,330.676,116.117z"/>
					<path fill="#FFFFFF" d="M-184.55-318.228c0.756,3.513-1.607,6.123-4.215,7.896c-3.004,2.041-2.725,3.994-1.809,6.888
						c3.85,12.13,7.485,24.327,11.163,36.511c0.331,1.111,0.937,2.559,0.516,3.394c-0.894,1.744-2.385,3.184-3.631,4.748
						c-1.19-0.978-3.063-1.736-3.463-2.967c-3.244-9.938-8.955-19.007-9.814-29.816c-0.623-7.827-3.45-10.029-11.09-11.917
						c-3.334-0.825-6.746-2.118-9.539-4.041c-1.581-1.089-2.784-3.902-2.746-5.911c0.129-6.443,2.69-12.132,8.611-15.17
						c2.02-1.036,5.204,0.129,7.851,0.37c2.832,0.258,5.689,1.068,8.469,0.832C-187.055-328.023-184.563-325.928-184.55-318.228z"/>
					<path fill="#FFFFFF" d="M-451.734-53.721c8.46,0.765,15.632,4.229,21.213,10.461c5.625,6.28,11.701,10.708,20.698,11.604
						c8.555,0.847,16.934,3.588,25.338,5.724c1.642,0.417,3.455,1.59,4.383,2.96c0.67,0.988,0.438,3.124-0.215,4.28
						c-0.459,0.808-2.496,1.401-3.532,1.1c-9.307-2.733-18.537-5.732-27.818-8.568c-6.033-1.839-12.049-3.816-18.202-5.144
						c-2.647-0.571-5.676,0.095-8.439,0.649c-7.017,1.409-13.711,0.021-20.234-2.222c-2.453-0.84-4.67-2.606-6.716-4.292
						c-2.698-2.226-2.621-5.724-0.095-9.481C-462.098-51.474-457.281-53.343-451.734-53.721z"/>
					<path fill="#FFFFFF" d="M-45.03-284.266c-5.947-0.228-7.485-1.534-7.296-6.641c0.176-4.579,1.022-9.131,1.233-13.711
						c0.077-1.68-1.225-3.416-1.19-5.111c0.09-3.874,0.348-7.788,1.031-11.597c1.139-6.313,0.408-8.467-4.873-11.769
						c-7.348-4.593-7.468-12.581-0.275-17.51c4.533-3.104,12.542-1.504,16.25,3.899c2.265,3.3,3.708,2.9,5.874,0.344
						c0.919-1.087,1.925-2.176,3.094-2.965c3.274-2.202,7.678,0.133,7.846,4.069c0.283,6.478-2.518,11.584-8.233,13.597
						c-11.275,3.973-11.288,8.695-11.958,18.466C-44.184-303.646-44.532-294.075-45.03-284.266z"/>
					<path fill="#FFFFFF" d="M8.191,449.451c-9.358-0.172-15.03-4.787-15.039-13.148c0-2.785,1.474-6.23,3.446-8.242
						c4.696-4.777,5.792-10.184,4.911-16.414c-1.156-8.207-2.359-16.404-3.36-24.629c-0.555-4.572-0.92-9.178-0.971-13.768
						c-0.013-1.4,1.005-3.137,2.088-4.15c1.392-1.297,3.021-0.877,3.498,1.203c0.808,3.498,1.517,7.021,2.153,10.553
						c0.954,5.268,1.779,10.553,2.715,15.822c1.173,6.557,3.051,12.977,1.904,19.852c-0.481,2.912,0.313,6.16,1.121,9.092
						c0.305,1.125,2.166,2.037,3.502,2.621c7.228,3.17,8.4,9.471,6.003,14.652C18.155,447.225,15.165,450.113,8.191,449.451z"/>
					<path fill="#FFFFFF" d="M107.066-292.846c-0.232-3.606-0.709-7.221-0.648-10.824c0.107-6.832,8.443-11.831,14.377-8.398
						c3.708,2.146,7.373,4.834,7.455,10.042c0.013,0.877,1.345,1.97,2.32,2.527c0.838,0.475,2.071,0.191,3.06,0.475
						c1.654,0.468,3.257,1.122,4.877,1.7c-0.886,1.607-1.375,3.837-2.737,4.709c-4.537,2.898-9.148,6.016-14.18,7.741
						c-7.12,2.44-11.791,7.356-16.144,12.891c-4.464,5.667-8.774,11.455-13.204,17.148c-1.706,2.194-3.386,4.462-5.427,6.321
						c-0.89,0.811-2.647,0.677-4.009,0.973c-0.061-1.452-0.709-3.252-0.082-4.294c3.257-5.423,6.807-10.671,10.313-15.944
						c4.091-6.148,8.357-12.188,12.298-18.434c1.19-1.893,1.547-4.305,2.286-6.479C107.44-292.746,107.251-292.795,107.066-292.846z
						"/>
					<path fill="#FFFFFF" d="M-187.648,417.543c0.167-5.389,2.771-9.66,6.415-13.363c2.187-2.217,4.718-4.1,6.854-6.359
						c5.53-5.861,7.446-13.416,9.921-20.797c2.239-6.703,5.406-13.098,8.319-19.561c0.301-0.652,2.208-1.375,2.419-1.15
						c0.907,0.945,2.316,2.553,2.007,3.334c-2.114,5.422-0.902,12.092-6.093,16.363c-0.353,0.291-0.486,0.885-0.649,1.357
						c-2.823,8.293-5.676,16.568-8.435,24.879c-1.512,4.555-1.461,8.816,0.662,13.525c3.854,8.568,3.987,14.938-3.012,20.695
						c-0.933,0.764-2.922,0.781-4.258,0.463c-8.615-2.02-11.58-8.842-13.681-16.336c-0.138-0.498-0.374-0.98-0.451-1.486
						C-187.712,418.6-187.648,418.066-187.648,417.543z"/>
					<path fill="#FFFFFF" d="M-372.718,150.063c-7.837,1.951-15.108,3.738-22.353,5.576c-6.768,1.729-13.703,3.008-20.212,5.424
						c-5.285,1.959-9.943,5.551-15.086,7.975c-6.51,3.068-13.226,5.354-20.483,1.951c-3.094-1.443-5.045-3.592-5.552-6.961
						c-0.516-3.404,2.037-4.984,4.383-6.18c2.716-1.383,5.813-2.002,8.68-3.111c10.313-4.004,21.11-3.531,31.892-3.986
						c6.905-0.293,13.767-2.037,20.607-3.377c4.314-0.844,8.508-2.305,12.822-3.164
						C-373.698,143.35-374.648,147.406-372.718,150.063z"/>
					<path fill="#FFFFFF" d="M324.793-42.433c-1.311-0.365-2.564-0.447-3.519-1.025c-7.107-4.312-14.502-3.949-22.254-2.047
						c-8.95,2.196-18.021,3.932-27.058,5.764c-2.616,0.531-5.5,1.455-7.893,0.821c-1.93-0.511-3.301-3.096-4.92-4.763
						c1.452-1.27,2.741-3.33,4.391-3.669c6.717-1.386,13.583-2.041,20.32-3.345c7.996-1.549,15.907-3.519,23.873-5.229
						c2.02-0.437,4.104-0.744,6.166-0.813c5.131-0.174,7.361-3.345,6.037-8.209c-0.301-1.096,0.594-3.343,1.525-3.762
						c1.81-0.816,4.576-1.603,5.96-0.773c1.882,1.13,2.999,3.697,4.146,5.809c1.646,3.023,2.69,6.411,4.585,9.253
						c3.64,5.47,2.845,8.373-3.477,10.22C330.07-43.441,327.367-43,324.793-42.433z"/>
					<path fill="#FFFFFF" d="M-371.713-210.247c0.146-3.973,1.929-8.443,5.887-10.479c4.142-2.129,9.161-1.652,13.325,1.203
						c3.592,2.462,6.269,5.382,7.146,10.145c1.057,5.745,4.499,10.484,8.474,14.915c4.795,5.347,8.959,11.255,13.5,16.839
						c2.69,3.311,5.561,6.479,8.388,9.681c1.203,1.362,2.673,2.527,3.669,4.014c0.507,0.756,0.241,2.028,0.327,3.065
						c-0.902-0.18-2.063-0.066-2.673-0.588c-3.833-3.302-7.777-6.527-11.258-10.184c-8.232-8.656-16.19-17.57-24.337-26.308
						c-1.788-1.921-3.786-3.678-5.431,0.44c-0.335,0.829-2.148,1.448-3.313,1.51C-366.875-195.516-370.978-200.042-371.713-210.247z
						"/>
					<path fill="#FFFFFF" d="M165.465,373.318c0.186,8.664-7.06,13.037-14.772,9.008c-7.597-3.971-12.284-15.418-10.858-23.402
						c1.217-6.814-0.532-12.805-3.089-18.785c-2.875-6.729-5.951-13.363-8.848-20.074c-0.661-1.539-1.268-3.232-1.276-4.855
						c-0.008-0.945,1.049-2.406,1.938-2.699c0.825-0.275,2.612,0.395,3.033,1.16c2.304,4.193,4.628,8.43,6.372,12.873
						c3.399,8.646,6.493,17.412,9.561,26.186c1.341,3.832,3.464,6.471,7.627,7.512C162.621,362.096,165.302,365.662,165.465,373.318
						z"/>
					<path fill="#FFFFFF" d="M280.119,259.135c-0.061,0.215-0.1,0.91-0.422,1.434c-2.892,4.754-7.889,6.789-12.753,7.434
						c-3.893,0.525-7.52-2.396-9.874-5.955c-0.498-0.756-1.151-1.537-1.311-2.389c-1.93-10.244-10.562-13.828-18.287-18.297
						c-6.398-3.703-12.788-7.416-19.289-10.93c-3.176-1.719-1.336-3.67-0.593-5.543c0.971-2.441,2.604-1.521,4.095-0.543
						c7.176,4.701,14.201,9.652,21.549,14.061c4.15,2.5,8.783,4.236,13.295,6.084c1.069,0.438,2.724,0.309,3.781-0.215
						C270.094,239.412,279.684,247.859,280.119,259.135z"/>
					<path d="M-7.897,166.33c-11.228,0-22.46,0.18-33.688-0.043c-13.032-0.258-26.056-1.049-39.089-1.281
						c-14.115-0.258-28.234-0.162-42.354-0.188c-5.857-0.01-10.033-1.65-12.564-7.848c-2.312-5.672-6.463-10.604-9.887-15.813
						c-10.424-15.846-20.896-31.668-31.341-47.496c-7.791-11.809-15.49-23.667-23.379-35.398
						c-8.766-13.037-17.742-25.927-26.538-38.942c-1.822-2.694-2.625-5.152,0.507-8.168c6.166-5.921,11.859-12.349,17.54-18.751
						c12.899-14.522,25.7-29.131,38.483-43.751c11.438-13.08,22.911-26.131,34.16-39.375c6.716-7.911,12.985-16.199,19.577-24.217
						c0.653-0.795,2.208-1.297,3.3-1.231c10.639,0.632,21.27,1.493,31.909,2.119c6.145,0.363,12.315,0.397,18.468,0.608
						c9.518,0.327,19.044,0.526,28.548,1.048c16.621,0.913,33.228,2.054,49.844,3.051c7.661,0.458,15.327,0.849,22.993,1.151
						c1.517,0.061,3.149-0.169,4.555-0.705c2.634-1.003,4.31,0.054,5.586,2.127c7.162,11.608,14.261,23.252,21.437,34.85
						c1.771,2.861,3.192,6.349,5.749,8.237c6.617,4.888,6.807,13.376,11.929,19.181c4.521,5.122,7.253,11.77,11.124,17.51
						c5.027,7.442,10.527,14.566,15.59,21.992c2.981,4.374,5.4,9.131,8.271,13.586c4.064,6.316,8.129,12.65,12.56,18.708
						c2.621,3.584-0.478,5.535-1.938,7.34c-3.961,4.898-8.864,9.04-12.805,13.951c-7.184,8.959-13.969,18.232-20.869,27.41
						c-6.957,9.255-13.78,18.605-20.789,27.818c-5.71,7.502-11.688,14.807-17.402,22.309c-6.694,8.783-13.247,17.678-19.825,26.547
						c-2.32,3.119-4.809,6.162-6.746,9.521c-2.492,4.314-6.205,5.311-10.772,5.26c-10.712-0.104-21.429-0.035-32.141-0.035
						C-7.897,167.053-7.897,166.691-7.897,166.33z M13.102,159.549c0,0.232,0,0.465,0,0.688c2.088,0,4.224-0.283,6.248,0.061
						c5.048,0.859,8.414-1.178,11.271-5.182c4.516-6.324,9.289-12.479,14.08-18.605c7.571-9.676,15.284-19.242,22.859-28.91
						c8.375-10.682,16.655-21.441,24.991-32.148c1.345-1.736,2.866-3.344,4.15-5.121c4.392-6.076,8.59-12.303,13.093-18.301
						c5.053-6.734,10.459-13.201,15.435-19.985c0.799-1.087,0.82-3.627,0.086-4.813C117.224,14.248,109,1.34,100.633-11.478
						c-8.275-12.68-16.839-25.169-25.128-37.838c-10.166-15.542-20.213-31.163-30.211-46.81c-1.444-2.26-3.176-3.055-5.788-3.12
						c-7.55-0.185-15.108-0.401-22.632-1.01c-11.021-0.887-21.996-2.389-33.026-3.151c-13.9-0.958-27.835-1.436-41.752-2.123
						c-1.831-0.09-3.652-0.215-5.483-0.29c-15.392-0.642-30.779-1.306-46.174-1.854c-1.143-0.041-2.69,0.438-3.42,1.242
						c-4.967,5.438-9.762,11.028-14.614,16.569c-14.295,16.326-28.544,32.691-42.9,48.963
						c-8.946,10.143-18.103,20.094-27.066,30.218c-6.376,7.202-12.585,14.554-18.876,21.837c-1.646,1.908-2.656,4.004-1.16,6.385
						c4.602,7.322,9.208,14.644,13.965,21.858c4.335,6.575,8.903,12.995,13.307,19.52c2.011,2.982,3.833,6.094,5.827,9.084
						c3.85,5.783,7.82,11.482,11.614,17.291c2.711,4.16,5.083,8.543,7.833,12.676c3.283,4.941,6.901,9.668,10.209,14.592
						c3.244,4.822,6.26,9.797,9.418,14.688c3.859,5.955,7.851,11.816,11.61,17.832c4.344,6.951,9.169,12.908,18.537,12.666
						c5.973-0.154,11.95,0.215,17.927,0.25c10.398,0.068,20.801-0.104,31.195,0.121c8.855,0.188,17.694,0.945,26.555,1.193
						c8.98,0.24,17.974,0.197,26.963,0.232C-4.06,159.576,4.521,159.549,13.102,159.549z"/>
					<path fill="#FFFFFF" d="M13.102,159.549c-8.581,0-17.162,0.027-25.738-0.008c-8.989-0.035-17.982,0.008-26.963-0.232
						c-8.86-0.248-17.699-1.006-26.555-1.193c-10.395-0.225-20.797-0.053-31.195-0.121c-5.977-0.035-11.954-0.404-17.927-0.25
						c-9.367,0.242-14.192-5.715-18.537-12.666c-3.76-6.016-7.751-11.877-11.61-17.832c-3.158-4.891-6.174-9.865-9.418-14.688
						c-3.309-4.924-6.927-9.65-10.209-14.592c-2.75-4.133-5.122-8.516-7.833-12.676c-3.794-5.808-7.764-11.507-11.614-17.291
						c-1.994-2.99-3.815-6.102-5.827-9.084c-4.404-6.525-8.972-12.945-13.307-19.52c-4.757-7.214-9.363-14.536-13.965-21.858
						c-1.496-2.381-0.486-4.478,1.16-6.385c6.291-7.283,12.5-14.635,18.876-21.837c8.963-10.124,18.12-20.075,27.066-30.218
						c14.356-16.272,28.604-32.637,42.9-48.963c4.852-5.541,9.646-11.131,14.614-16.569c0.73-0.803,2.277-1.282,3.42-1.242
						c15.396,0.548,30.783,1.212,46.174,1.854c1.831,0.075,3.652,0.2,5.483,0.29c13.917,0.688,27.852,1.165,41.752,2.123
						c11.03,0.763,22.004,2.264,33.026,3.151c7.523,0.608,15.082,0.825,22.632,1.01c2.612,0.064,4.344,0.859,5.788,3.12
						c9.998,15.647,20.045,31.269,30.211,46.81c8.289,12.669,16.853,25.158,25.128,37.838C109,1.338,117.225,14.246,125.316,27.231
						c0.734,1.186,0.713,3.726-0.086,4.813c-4.976,6.784-10.382,13.25-15.435,19.985c-4.503,5.998-8.701,12.225-13.093,18.301
						c-1.284,1.777-2.806,3.385-4.15,5.121c-8.336,10.707-16.616,21.466-24.991,32.148c-7.575,9.668-15.288,19.234-22.859,28.91
						c-4.791,6.127-9.564,12.281-14.08,18.605c-2.857,4.004-6.223,6.041-11.271,5.182c-2.024-0.344-4.16-0.061-6.248-0.061
						C13.102,160.014,13.102,159.781,13.102,159.549z M-106.562-103.734c-0.12-0.262-0.24-0.526-0.361-0.789
						c-1.302,0.842-2.87,1.452-3.867,2.569c-3.115,3.496-5.921,7.264-9.019,10.777c-8.598,9.751-17.364,19.355-25.91,29.148
						c-8.89,10.188-17.553,20.582-26.421,30.787c-12.702,14.62-25.502,29.152-38.272,43.71c-3.674,4.185-3.579,5.719,0.25,9.848
						c1.491,1.607,2.651,3.532,3.88,5.362c4.933,7.348,9.814,14.726,14.743,22.07c5.62,8.373,11.296,16.715,16.908,25.094
						c12.048,17.976,24.097,35.955,36.089,53.976c4.464,6.703,8.706,13.553,13.23,20.213c0.821,1.203,2.471,2.525,3.807,2.604
						c8.297,0.48,16.616,0.662,24.931,0.859c12.134,0.283,24.269,0.438,36.403,0.756c17.48,0.465,34.951,1.066,52.431,1.547
						c7.055,0.188,14.184-0.352,21.153,0.498c6.493,0.791,10.721-0.205,14.803-6.16c8.438-12.299,18.111-23.754,27.25-35.578
						c4.774-6.172,9.449-12.418,14.24-18.572c6.05-7.785,12.229-15.468,18.249-23.271c5.706-7.391,11.231-14.928,16.93-22.326
						c4.521-5.878,9.307-11.554,13.698-17.523c1.285-1.749,3.48-3.678,1.229-6.548c-5.354-6.815-10.729-13.639-15.645-20.763
						c-7.086-10.278-13.793-20.81-20.625-31.255c-5.969-9.118-11.915-18.255-17.819-27.417c-1.899-2.952-3.502-6.099-5.479-8.998
						c-6.054-8.881-12.182-17.716-18.373-26.503c-2.381-3.375-4.138-6.589-9.788-6.658c-15.486-0.185-30.951-1.654-46.433-2.505
						c-10.291-0.565-20.604-0.853-30.895-1.418C-65.69-101.324-86.126-102.551-106.562-103.734z"/>
					<path d="M-106.562-103.734c20.436,1.184,40.872,2.411,61.316,3.534c10.291,0.565,20.604,0.853,30.895,1.418
						c15.482,0.851,30.946,2.32,46.433,2.505c5.65,0.069,7.407,3.283,9.788,6.658c6.191,8.787,12.319,17.622,18.373,26.503
						c1.977,2.898,3.579,6.046,5.479,8.998c5.904,9.161,11.851,18.298,17.819,27.417C90.373-16.255,97.08-5.724,104.166,4.554
						c4.916,7.124,10.291,13.948,15.645,20.763c2.252,2.871,0.057,4.799-1.229,6.548c-4.392,5.969-9.178,11.645-13.698,17.523
						c-5.698,7.398-11.224,14.936-16.93,22.326C81.933,79.517,75.755,87.2,69.705,94.985c-4.791,6.154-9.466,12.4-14.24,18.572
						c-9.139,11.824-18.812,23.279-27.25,35.578c-4.082,5.955-8.311,6.951-14.803,6.16c-6.969-0.85-14.098-0.309-21.153-0.498
						c-17.48-0.48-34.951-1.082-52.431-1.547c-12.134-0.318-24.269-0.473-36.403-0.756c-8.314-0.197-16.633-0.379-24.931-0.859
						c-1.336-0.078-2.986-1.4-3.807-2.604c-4.524-6.66-8.766-13.51-13.23-20.213c-11.993-18.021-24.041-36-36.089-53.976
						c-5.612-8.379-11.288-16.721-16.908-25.094c-4.929-7.344-9.81-14.722-14.743-22.07c-1.229-1.83-2.389-3.755-3.88-5.362
						c-3.829-4.129-3.923-5.663-0.25-9.848c12.771-14.558,25.571-29.09,38.272-43.71c8.869-10.205,17.531-20.6,26.421-30.787
						c8.546-9.793,17.312-19.396,25.91-29.148c3.098-3.513,5.904-7.281,9.019-10.777c0.997-1.117,2.565-1.727,3.867-2.569
						C-106.802-104.261-106.682-103.997-106.562-103.734z M116.33,25.952c-0.223-0.138-1.637-0.533-2.242-1.452
						c-4.852-7.378-9.471-14.902-14.309-22.288c-7.116-10.854-14.283-21.673-21.563-32.42c-4.752-7.015-9.822-13.814-14.57-20.831
						c-1.856-2.742-3.012-5.951-4.855-8.704c-5.981-8.929-12.452-17.55-18.099-26.684c-3.205-5.186-7.185-6.946-13.063-7.113
						C17.085-93.843,6.566-94.964-3.97-95.624c-17.819-1.117-35.643-2.224-53.47-3.178c-14.85-0.795-29.717-1.254-44.567-2.107
						c-4.064-0.234-6.926,1.042-9.504,4.082c-5.044,5.945-10.343,11.668-15.512,17.505c-13.57,15.333-27.208,30.606-40.666,46.041
						c-12.444,14.278-24.664,28.75-37.031,43.102c-5.491,6.368-5.706,6.557-0.894,13.93c7.313,11.207,14.867,22.263,22.331,33.374
						c10.128,15.078,20.26,30.16,30.409,45.216c9.144,13.578,18.605,26.949,27.337,40.785c3.145,4.984,7.193,6.205,12.268,6.299
						c15.619,0.283,31.242,0.473,46.866,0.766c12.405,0.223,24.806,0.49,37.211,0.824c16.049,0.43,32.098,0.998,48.151,1.307
						c1.4,0.025,3.227-1.109,4.186-2.26c3.987-4.795,7.656-9.85,11.566-14.713c5.127-6.367,10.477-12.555,15.533-18.975
						c6.828-8.672,13.424-17.514,20.191-26.229c4.787-6.162,9.806-12.134,14.52-18.347c9.564-12.615,19.005-25.322,28.458-38.019
						c0.743-1.005,1.306-2.187,1.74-3.364C115.639,29.114,115.875,27.731,116.33,25.952z"/>
					<path d="M40.366,14.238c-0.915,2.974-1.525,6.084-2.798,8.895c-4.193,9.265-8.718,18.271-17.557,24.346
						c-6.273,4.314-13.969,3.559-18.601-2.454c-1.091-1.418-2.191-2.831-3.618-4.671c-1.547,1.779-2.763,3.412-4.215,4.796
						c-3.467,3.299-6.66,7.106-10.66,9.59c-8.474,5.256-14.678,1.83-18.103-6.291c-0.799-1.891-1.667-3.755-2.806-6.307
						c-4.963,3.395-9.363,6.79-14.137,9.555c-3.42,1.986-7.219,3.924-11.056,4.479c-6.647,0.953-13.548-4.074-16.659-10.924
						c-0.842-1.864-1.805-3.668-2.969-6.006c-1.384,1.13-2.376,2.089-3.511,2.836c-6.479,4.272-12.762,8.903-19.563,12.598
						c-5.29,2.879-10.179,0.572-13.11-4.727c-2.973-5.379-4.254-11.111-4.151-17.205c0.018-0.722-0.172-1.443-0.296-2.358
						c-7.154,4.224-14.059,8.267-20.921,12.375c-1.581,0.949-3.063,2.471-4.546,0.017c-1.659-2.754,0.911-3.278,2.423-4.206
						c6.647-4.091,13.251-8.271,20.049-12.104c4.434-2.501,4.056-6.871,4.916-10.755c1.736-7.889,3.128-15.847,10.007-21.381
						c2.608-2.097,5.229-3.107,8.121-0.98c2.703,1.99,3.669,7.193,1.831,9.789c-4.946,6.965-9.853,13.973-15.104,20.711
						c-2.849,3.652-2.437,7.708-2.002,11.545c0.464,4.039,1.774,8.117,3.455,11.846c1.882,4.186,5.779,5.488,9.629,3.043
						c6.574-4.168,12.774-8.929,19.112-13.466c2.093-1.496,2.617-3.459,1.517-5.81c-3.644-7.795-1.268-15.658,0.266-23.307
						c0.752-3.755,3.279-7.288,5.5-10.587C-77-6.137-71.774-7.349-68.242-5.815c2.475,1.078,3.794,2.668,4.176,5.839
						c1.564,12.959-5.182,22.619-12.693,31.616c-3.798,4.555-1.379,7.863,0.236,11.301c1.328,2.823,3.726,5.465,6.295,7.288
						c1.728,1.221,4.744,1.582,6.905,1.1c8.967-2.02,15.589-8.121,22.374-13.775c0.933-0.782,1.216-2.768,1.19-4.182
						c-0.232-11.064,1.637-21.613,7.313-31.302c2.66-4.538,5.732-6.471,8.886-5.556c3.601,1.053,6.858,5.814,5.71,10.343
						c-1.607,6.342-3.893,12.598-6.694,18.52c-1.642,3.463-4.8,6.227-7.348,9.247c-4.056,4.791-0.267,9.045,1.435,13.002
						c0.868,2.02,4.301,3.656,6.798,4.057c1.955,0.309,4.765-1.049,6.308-2.557c4.538-4.457,8.735-9.269,12.822-14.15
						c0.859-1.023,0.816-2.922,0.916-4.435c0.434-6.845,0.494-13.725,1.22-20.531C-1.774,4.248,2.776-0.384,7.086-0.139
						c1.328,0.078,3.639,1.203,3.704,1.985c0.301,3.901,0.851,8.104-0.271,11.713c-1.964,6.316-5.414,12.165-7.61,18.425
						c-1.547,4.417-0.31,8.68,3.188,12.139c2.582,2.557,6.424,2.754,9.526,0.963c10.772-6.239,15.744-16.779,20.913-27.229
						c0.735-1.491,1.874-2.785,2.823-4.168C39.695,13.869,40.031,14.054,40.366,14.238z M-81.115,30.042
						c0.614,0.061,1.229,0.121,1.848,0.181c2.17-3.747,3.79-7.983,6.634-11.12c4.933-5.44,4.83-11.73,4.469-18.176
						c-0.051-0.902-2.363-2.621-2.784-2.389c-2.527,1.341-6.033,2.66-6.927,4.89c-2.282,5.698-3.738,11.804-4.744,17.875
						C-83.075,24.061-81.674,27.12-81.115,30.042z M-23.597-0.113c-2.024,1.736-4.104,2.845-5.208,4.572
						c-4.911,7.7-5.607,16.526-6.209,25.326c-0.03,0.413,0.4,0.859,0.636,1.332C-28.784,26.502-18.94,10.986-23.597-0.113z
						 M-116.805,16.404c0.516,0.069,1.04,0.138,1.556,0.207c2.114-3.244,4.172-6.531,6.368-9.72
						c1.152-1.684,2.922-3.042,3.721-4.847c0.55-1.246-0.086-3.012-0.189-4.546c-1.47,0.456-3.231,0.542-4.344,1.427
						c-3.949,3.158-5.35,7.769-6.389,12.47C-116.444,13.035-116.573,14.732-116.805,16.404z M1.471,23.717
						c5.71-7.081,7.18-14.841,3.506-19.332C0.216,10.406,1.084,17.1,1.471,23.717z"/>
					<path d="M-51.746-27.836c-6.428,3.532-12.122,7.141-18.223,9.805c-3.3,1.444-7.339,1.831-11,1.671
						c-5.139-0.228-8.005-4.026-9.062-10.514c-0.159-0.988-0.313-1.977-0.546-3.468c-2.689,1.104-5.139,1.904-7.399,3.072
						c-10.184,5.298-16.87-1.001-18.713-10.246c-1.689-8.452,1.495-16.313,3.743-24.245c0.103-0.368,0.266-0.819,0.554-1.017
						c1.139-0.791,2.342-1.497,3.519-2.234c0.348,1.446,1.255,3.023,0.945,4.318c-1.065,4.533-2.819,8.91-3.807,13.456
						c-1.139,5.255-0.309,10.431,2.871,14.869c0.833,1.167,3.119,2.361,4.31,2.03c3.987-1.111,7.919-2.651,11.576-4.576
						c1.281-0.675,2.368-2.924,2.419-4.492c0.301-8.867,5.113-16.281,7.889-24.295c1.547-4.451,5.457-8.2,10.562-9.722
						c5.311-1.583,8.624,0.666,8.688,6.138c0.104,8.641-4.555,15.228-9.977,21.304c-3.283,3.678-6.97,7.01-10.519,10.448
						c-3.669,3.553-1.74,7.532-0.786,11.318c0.907,3.583,4.181,3.781,7.021,3.528c9.892-0.873,17.433-6.497,24.402-12.874
						c1.221-1.113,1.594-3.62,1.599-5.485c0.026-10.603,3.708-20.032,9.195-28.836c1.388-2.222,3.425-4.441,5.706-5.586
						c1.766-0.885,4.783-0.789,6.488,0.183c1.315,0.748,2.084,3.549,2.028,5.408c-0.305,10.661-5.586,19.229-12.16,27.173
						c-1.577,1.903-2.96,4.002-4.748,5.685c-3.528,3.324-1.108,11.08,2.14,14.161c0.825,0.786,2.737,0.833,4.061,0.636
						c8.061-1.229,14.635-5.311,20.023-11.206c1.053-1.152,1.453-3.388,1.311-5.051c-0.881-10.201,0.958-19.896,5.315-29.075
						c1.186-2.497,3.149-4.778,5.199-6.688c3.674-3.427,8.181-2.058,9.724,2.681c2.084,6.405,1.332,12.809-1.482,18.61
						C-1.578-45.4-5.102-40.15-8.9-35.26c-2.226,2.866-2.767,4.913-0.572,7.827c2.596,3.438,6.428,5.457,9.337,3.644
						c4.357-2.715,8.233-6.188,12.362-9.266c1.126-0.838,2.441-1.42,3.67-2.118c-0.116,1.357,0.15,2.902-0.413,4.045
						c-2.81,5.715-7.305,9.883-13.299,11.971c-5.401,1.882-10.338,0.369-14.167-3.923c-3.944-4.421-3.154-4.61-8.344-0.813
						c-4.495,3.292-8.822,6.548-14.451,8.031c-8.284,2.187-14.085-0.816-16.19-9.182C-51.235-26.109-51.557-27.166-51.746-27.836z
						 M-2.216-68.605c-6.781,2.138-13.596,22.353-9.982,29.191C-4.919-46.938,2.966-61.496-2.216-68.605z M-84.682-41.776
						c7.116-3.315,17.265-19.304,16.887-26.608C-74.73-69.686-87.002-50.341-84.682-41.776z M-46.569-43.155
						c0.434,0.157,0.864,0.315,1.298,0.473c1.779-1.663,4.043-3.036,5.25-5.042c3.39-5.65,6.896-11.35,7.502-18.161
						c0.103-1.147-0.21-2.331-0.335-3.5c-1.096,0.516-2.329,0.857-3.274,1.575c-5.113,3.893-6.282,9.96-8.271,15.51
						C-45.451-49.371-45.864-46.21-46.569-43.155z"/>
					<path d="M24.914,81.775c0.314,1.23,1.19,2.648,0.855,3.662c-3.627,11.051-8.744,21.244-18.008,28.797
						c-1.706,1.393-3.639,2.535-5.564,3.619c-7.627,4.297-12.263,3.41-17.613-3.498c-1.809-2.33-3.292-4.908-5.204-7.795
						c-3.682,2.99-7.489,5.68-10.793,8.877c-6.338,6.137-16.062,6.316-22.288,0.096c-2.724-2.725-4.164-2.691-6.69,0.359
						c-4.361,5.277-10.385,7.813-16.65,9.625c-4.623,1.332-9.668-1.486-12.357-5.586c-3.592-5.482-5.887-11.266-5.393-17.934
						c0.047-0.637-0.099-1.289-0.232-1.918c-0.043-0.215-0.309-0.387-0.906-1.074c-2.501,1.557-5.01,3.326-7.726,4.693
						c-1.165,0.592-2.758,0.334-4.159,0.463c0.542-1.391,0.683-3.291,1.697-4.082c3.553-2.775,8.692-4.408,10.798-7.922
						c2.131-3.541,0.993-8.879,1.968-13.287c1.194-5.371,3.575-10.287,8.658-13.268c3.484-2.055,8.447-1.402,10.678,1.348
						c1.951,2.406,1.431,5.775-1.436,9.223c-4.404,5.285-8.929,10.484-13.148,15.906c-1.194,1.529-2.105,3.713-2.14,5.611
						c-0.138,7.33,0.632,14.377,5.517,20.592c2.578,3.281,5.457,3.488,8.611,2.578c7.172-2.055,12.328-7.186,17.23-12.418
						c0.868-0.92,0.816-3.301,0.361-4.744c-2.458-7.752,0.15-14.928,2.518-22.018c1.444-4.322,3.885-8.318,5.947-12.425
						c1.306-2.588,3.596-3.266,6.291-2.811c2.801,0.463,4.907,1.898,5.564,4.77c1.379,6.006,1.203,11.996-1.8,17.462
						c-3.545,6.445-7.602,12.615-11.215,19.025c-0.542,0.955-0.331,2.896,0.318,3.842c2.853,4.186,8.267,6.016,12.388,3.283
						c5.788-3.834,11.026-8.533,16.251-13.148c0.967-0.852,1.134-3.043,1.044-4.58c-0.64-10.871,0.962-21.236,6.888-30.585
						c1.5-2.363,3.433-4.898,6.969-3.756c3.674,1.178,5.13,4.271,4.855,7.648c-0.335,4.092-0.958,8.361-2.54,12.109
						c-2.354,5.561-5.169,11.076-8.731,15.924c-2.337,3.188-1.599,5.621-0.769,8.637c2.144,7.77,8.194,10.32,15.155,6.531
						c7.533-4.1,12.676-10.262,16.431-17.754c2.338-4.668,4.641-9.352,6.957-14.025C23.973,81.811,24.441,81.793,24.914,81.775z
						 M-43.96,70.553c-7.645,2.406-14.21,23.925-9.879,32.373C-44.205,93.18-39.487,77.721-43.96,70.553z M-17.431,93.645
						c6.591-5.672,11.829-21.037,8.972-25.712C-13.483,70.098-18.734,84.811-17.431,93.645z M-76.694,70.51
						c-2.969-2.484-4.971-2.045-7.116-0.018c-4.035,3.807-6.939,12.169-5.104,16.267C-84.794,81.287-80.815,75.993-76.694,70.51z"/>
					<path fill="#FFFFFF" d="M-81.115,30.042c-0.559-2.922-1.959-5.981-1.504-8.74c1.005-6.071,2.462-12.177,4.744-17.875
						c0.894-2.23,4.4-3.549,6.927-4.89c0.421-0.232,2.733,1.487,2.784,2.389c0.361,6.445,0.464,12.736-4.469,18.176
						c-2.844,3.137-4.464,7.374-6.634,11.12C-79.886,30.163-80.501,30.103-81.115,30.042z"/>
					<path fill="#FFFFFF" d="M-23.597-0.113c4.658,11.099-5.187,26.615-10.781,31.229c-0.236-0.473-0.666-0.919-0.636-1.332
						c0.602-8.8,1.298-17.625,6.209-25.326C-27.701,2.732-25.621,1.623-23.597-0.113z"/>
					<path fill="#FFFFFF" d="M-116.805,16.404c0.232-1.671,0.361-3.369,0.722-5.01c1.04-4.701,2.44-9.312,6.389-12.47
						c1.113-0.885,2.875-0.971,4.344-1.427c0.103,1.534,0.739,3.3,0.189,4.546c-0.799,1.805-2.569,3.163-3.721,4.847
						c-2.195,3.188-4.254,6.476-6.368,9.72C-115.765,16.542-116.29,16.473-116.805,16.404z"/>
					<path fill="#FFFFFF" d="M1.471,23.717C1.084,17.1,0.216,10.405,4.977,4.385C8.651,8.876,7.181,16.636,1.471,23.717z"/>
					<path fill="#FFFFFF" d="M-2.216-68.605c5.182,7.109-2.703,21.667-9.982,29.191C-15.812-46.253-8.997-66.468-2.216-68.605z"/>
					<path fill="#FFFFFF" d="M-84.682-41.776c-2.32-8.565,9.952-27.91,16.887-26.608C-67.417-61.08-77.566-45.091-84.682-41.776z"/>
					<path fill="#FFFFFF" d="M-46.569-43.155c0.705-3.055,1.117-6.216,2.17-9.146c1.989-5.549,3.158-11.617,8.271-15.51
						c0.945-0.717,2.179-1.059,3.274-1.575c0.125,1.169,0.438,2.353,0.335,3.5c-0.606,6.811-4.112,12.51-7.502,18.161
						c-1.208,2.006-3.472,3.379-5.25,5.042C-45.705-42.839-46.134-42.998-46.569-43.155z"/>
					<path fill="#FFFFFF" d="M-43.96,70.553c4.473,7.168-0.245,22.626-9.879,32.373C-58.17,94.479-51.605,72.96-43.96,70.553z"/>
					<path fill="#FFFFFF" d="M-17.431,93.645c-1.302-8.834,3.949-23.546,8.972-25.712C-5.602,72.608-10.84,87.973-17.431,93.645z"/>
					<path fill="#FFFFFF" d="M-76.694,70.51c-4.121,5.482-8.1,10.777-12.22,16.25c-1.835-4.098,1.07-12.46,5.104-16.267
						C-81.665,68.465-79.663,68.026-76.694,70.51z"/>
				</g>
			</g>
			<g>
				
					<line fill="none" stroke="#000000" stroke-width="0.496" stroke-miterlimit="10" x1="73.581" y1="-359.577" x2="-31.229" y2="-190.731"/>
			</g>
			<g>
				
					<line fill="none" stroke="#000000" stroke-width="0.496" stroke-miterlimit="10" x1="131.795" y1="29.059" x2="441.832" y2="29.059"/>
			</g>
			<g>
				
					<line fill="none" stroke="#000000" stroke-width="0.496" stroke-miterlimit="10" x1="25.542" y1="-40.809" x2="441.836" y2="-262.055"/>
			</g>
			<g>
				
					<line fill="none" stroke="#000000" stroke-width="0.496" stroke-miterlimit="10" x1="188.565" y1="285.232" x2="351.589" y2="416.24"/>
			</g>
			<g>
				
					<line fill="none" stroke="#000000" stroke-width="0.496" stroke-miterlimit="10" x1="16.81" y1="413.328" x2="85.217" y2="473.002"/>
			</g>
		</g>
	</g>
</g>
<g>
	<path d="M393.427-89.043h4.699l5.543,18.689c1.268,4.118,2.06,7.392,3.379,11.457h0.211c1.268-4.065,2.112-7.338,3.326-11.457
		l5.544-18.689h4.487l-10.981,34.634h-5.121L393.427-89.043z"/>
	<path d="M423.998-88.146c0-1.689,1.32-2.798,3.01-2.798s3.009,1.108,3.009,2.798c0,1.637-1.319,2.798-3.009,2.798
		C425.318-85.348,423.998-86.509,423.998-88.146z M424.79-80.068h4.329v25.659h-4.329V-80.068z"/>
	<path d="M437.778-80.068h3.59l0.37,4.646h0.158c1.742-3.22,4.382-5.279,7.286-5.279c1.108,0,1.9,0.158,2.745,0.528l-0.845,3.801
		c-0.845-0.264-1.426-0.422-2.481-0.422c-2.165,0-4.752,1.584-6.494,5.913v16.472h-4.329V-80.068L437.778-80.068z"/>
	<path d="M469.298-70.67c0-3.273-1.108-6.441-5.279-6.441c-3.009,0-5.649,1.373-7.655,2.746l-1.742-3.009
		c2.376-1.531,5.966-3.326,10.084-3.326c6.282,0,8.922,4.171,8.922,10.559v15.733h-3.59l-0.369-3.062h-0.105
		c-2.481,2.006-5.333,3.696-8.5,3.696c-4.33,0-7.55-2.693-7.55-7.286C453.513-66.658,458.369-69.456,469.298-70.67z M462.276-57.26
		c2.481,0,4.54-1.214,7.021-3.432v-7.127c-8.605,1.056-11.509,3.168-11.509,6.441C457.789-58.475,459.742-57.26,462.276-57.26z"/>
	<path d="M481.813-92h4.329v32.733c0,1.373,0.581,1.901,1.215,1.901c0.264,0,0.475,0,0.95-0.105l0.58,3.273
		c-0.58,0.264-1.319,0.423-2.48,0.423c-3.273,0-4.594-2.059-4.594-5.808V-92z"/>
	<path d="M516.395-80.701c3.38,0,5.756,1.425,7.497,3.062l-2.164,2.798c-1.53-1.32-3.114-2.271-5.174-2.271
		c-4.646,0-8.024,4.013-8.024,9.926c0,5.86,3.221,9.82,7.92,9.82c2.428,0,4.486-1.214,6.019-2.587l1.953,2.851
		c-2.323,2.059-5.279,3.326-8.342,3.326c-6.812,0-12.037-4.91-12.037-13.41C504.041-75.792,509.796-80.701,516.395-80.701z"/>
	<path d="M544.009-70.67c0-3.273-1.107-6.441-5.278-6.441c-3.01,0-5.649,1.373-7.655,2.746l-1.742-3.009
		c2.376-1.531,5.966-3.326,10.084-3.326c6.282,0,8.922,4.171,8.922,10.559v15.733h-3.59l-0.369-3.062h-0.104
		c-2.481,2.006-5.333,3.696-8.5,3.696c-4.33,0-7.551-2.693-7.551-7.286C528.224-66.658,533.08-69.456,544.009-70.67z M536.987-57.26
		c2.48,0,4.54-1.214,7.021-3.432v-7.127c-8.604,1.056-11.509,3.168-11.509,6.441C532.5-58.475,534.453-57.26,536.987-57.26z"/>
	<path d="M560.853-52.245v8.659h-4.328v-36.482h3.59l0.37,2.957h0.157c2.323-1.953,5.175-3.59,8.185-3.59
		c6.599,0,10.137,5.121,10.137,13.093c0,8.711-5.228,13.833-11.087,13.833c-2.376,0-4.752-1.109-7.128-2.957L560.853-52.245z
		 M567.136-57.419c4.225,0,7.338-3.854,7.338-10.189c0-5.649-1.899-9.451-6.758-9.451c-2.164,0-4.329,1.214-6.863,3.485v13.462
		C563.176-58.158,565.446-57.419,567.136-57.419z"/>
	<path d="M585.141-60.217c2.219,1.795,4.488,3.063,7.551,3.063c3.379,0,5.067-1.795,5.067-4.013c0-2.64-3.062-3.801-5.859-4.857
		c-3.644-1.32-7.655-3.062-7.655-7.391c0-4.118,3.272-7.286,8.816-7.286c3.222,0,6.02,1.32,7.973,2.904l-2.06,2.745
		c-1.741-1.32-3.591-2.27-5.859-2.27c-3.222,0-4.699,1.742-4.699,3.695c0,2.429,2.799,3.326,5.702,4.435
		c3.694,1.373,7.813,2.904,7.813,7.761c0,4.171-3.326,7.656-9.396,7.656c-3.644,0-7.127-1.531-9.557-3.538L585.141-60.217z"/>
	<path d="M607.157-88.146c0-1.689,1.319-2.798,3.01-2.798s3.009,1.108,3.009,2.798c0,1.637-1.318,2.798-3.009,2.798
		S607.157-86.509,607.157-88.146z M607.949-80.068h4.329v25.659h-4.329V-80.068z"/>
	<path d="M630.229-80.701c2.956,0,4.909,1.108,7.181,2.957l-0.212-4.382V-92h4.383v37.59h-3.591l-0.369-3.009h-0.158
		c-2.007,1.954-4.752,3.643-7.762,3.643c-6.44,0-10.611-4.857-10.611-13.41C619.09-75.528,624.369-80.701,630.229-80.701z
		 M630.652-57.419c2.375,0,4.435-1.162,6.546-3.538v-13.41c-2.164-1.954-4.118-2.693-6.229-2.693c-4.118,0-7.392,3.96-7.392,9.82
		C623.577-61.115,626.164-57.419,630.652-57.419z"/>
	<path d="M670.885-80.701c6.282,0,11.878,4.91,11.878,13.516c0,8.5-5.596,13.41-11.878,13.41c-6.283,0-11.879-4.91-11.879-13.41
		C659.006-75.792,664.602-80.701,670.885-80.701z M670.885-57.366c4.436,0,7.392-3.959,7.392-9.82c0-5.913-2.957-9.926-7.392-9.926
		c-4.382,0-7.392,4.013-7.392,9.926C663.493-61.325,666.503-57.366,670.885-57.366z"/>
	<path d="M689.523-80.068h3.59l0.371,4.646h0.156c1.742-3.22,4.383-5.279,7.287-5.279c1.107,0,1.9,0.158,2.744,0.528l-0.844,3.801
		c-0.846-0.264-1.426-0.422-2.482-0.422c-2.164,0-4.752,1.584-6.494,5.913v16.472h-4.328V-80.068z"/>
	<path d="M397.756-16.707h3.59l0.37,3.695h0.158c2.429-2.429,5.068-4.329,8.605-4.329c5.386,0,7.813,3.484,7.813,10.031V8.951
		h-4.329V-6.73c0-4.804-1.478-6.863-4.856-6.863c-2.641,0-4.436,1.373-7.022,3.96V8.951h-4.329V-16.707z"/>
	<path d="M426.269-16.707h4.382v15.68c0,4.805,1.426,6.863,4.805,6.863c2.64,0,4.487-1.319,6.916-4.329v-18.214h4.329V8.951h-3.59
		l-0.37-4.013h-0.158c-2.376,2.799-4.91,4.646-8.447,4.646c-5.438,0-7.866-3.484-7.866-10.031L426.269-16.707L426.269-16.707z"/>
	<path d="M465.814-17.341c3.379,0,5.754,1.426,7.496,3.062l-2.164,2.799c-1.531-1.32-3.115-2.271-5.174-2.271
		c-4.646,0-8.025,4.013-8.025,9.926c0,5.86,3.221,9.819,7.92,9.819c2.428,0,4.487-1.214,6.019-2.587l1.953,2.852
		c-2.323,2.059-5.279,3.326-8.342,3.326c-6.811,0-12.037-4.91-12.037-13.41C453.46-12.431,459.215-17.341,465.814-17.341z"/>
	<path d="M479.437-28.639h4.329V4.094c0,1.373,0.581,1.9,1.215,1.9c0.264,0,0.475,0,0.95-0.105l0.581,3.273
		c-0.581,0.265-1.32,0.423-2.481,0.423c-3.273,0-4.594-2.06-4.594-5.808V-28.639L479.437-28.639z"/>
	<path d="M502.51-17.341c6.546,0,10.242,4.698,10.242,12.037c0,0.897-0.053,1.742-0.159,2.376h-17.315
		c0.315,5.543,3.643,9.028,8.553,9.028c2.429,0,4.487-0.792,6.389-2.007l1.53,2.852c-2.217,1.425-4.962,2.64-8.447,2.64
		C496.438,9.585,491,4.569,491-3.825S496.649-17.341,502.51-17.341z M508.95-5.779c0-5.228-2.323-8.131-6.335-8.131
		c-3.591,0-6.863,2.956-7.393,8.131H508.95z"/>
	<path d="M529.066-17.341c6.281,0,11.879,4.91,11.879,13.516c0,8.5-5.598,13.41-11.879,13.41c-6.283,0-11.88-4.91-11.88-13.41
		C517.188-12.431,522.783-17.341,529.066-17.341z M529.066,5.994c4.435,0,7.392-3.959,7.392-9.819c0-5.913-2.957-9.926-7.392-9.926
		c-4.383,0-7.393,4.013-7.393,9.926C521.675,2.035,524.685,5.994,529.066,5.994z"/>
	<path d="M558.158-17.341c3.379,0,5.755,1.426,7.497,3.062l-2.164,2.799c-1.531-1.32-3.115-2.271-5.174-2.271
		c-4.646,0-8.025,4.013-8.025,9.926c0,5.86,3.221,9.819,7.92,9.819c2.428,0,4.487-1.214,6.02-2.587l1.952,2.852
		c-2.322,2.059-5.278,3.326-8.342,3.326c-6.811,0-12.037-4.91-12.037-13.41C545.805-12.431,551.56-17.341,558.158-17.341z"/>
	<path d="M585.772-7.31c0-3.273-1.108-6.441-5.279-6.441c-3.009,0-5.649,1.373-7.655,2.745l-1.742-3.009
		c2.376-1.531,5.966-3.326,10.084-3.326c6.282,0,8.922,4.171,8.922,10.559V8.951h-3.59l-0.369-3.063h-0.104
		c-2.481,2.007-5.333,3.696-8.5,3.696c-4.33,0-7.55-2.692-7.55-7.286C569.987-3.297,574.844-6.096,585.772-7.31z M578.751,6.1
		c2.481,0,4.54-1.215,7.021-3.432V-4.46c-8.605,1.056-11.51,3.168-11.51,6.441C574.264,4.885,576.217,6.1,578.751,6.1z"/>
	<path d="M602.616,11.116v8.658h-4.329v-36.481h3.59l0.37,2.956h0.158c2.322-1.953,5.174-3.59,8.184-3.59
		c6.599,0,10.137,5.121,10.137,13.093c0,8.712-5.228,13.833-11.087,13.833c-2.376,0-4.752-1.109-7.128-2.957L602.616,11.116z
		 M608.899,5.941c4.224,0,7.338-3.854,7.338-10.189c0-5.648-1.9-9.45-6.758-9.45c-2.164,0-4.329,1.215-6.863,3.484V3.249
		C604.939,5.203,607.21,5.941,608.899,5.941z"/>
	<path d="M626.904,3.143c2.218,1.795,4.487,3.063,7.55,3.063c3.379,0,5.068-1.795,5.068-4.013c0-2.64-3.063-3.801-5.86-4.857
		c-3.644-1.319-7.655-3.062-7.655-7.391c0-4.118,3.273-7.286,8.817-7.286c3.221,0,6.019,1.319,7.972,2.903l-2.059,2.746
		c-1.742-1.32-3.592-2.271-5.86-2.271c-3.221,0-4.699,1.742-4.699,3.695c0,2.429,2.799,3.326,5.702,4.435
		c3.695,1.373,7.813,2.904,7.813,7.762c0,4.171-3.326,7.655-9.397,7.655c-3.643,0-7.127-1.531-9.556-3.537L626.904,3.143z"/>
	<path d="M648.922-24.785c0-1.689,1.32-2.798,3.01-2.798c1.69,0,3.01,1.108,3.01,2.798c0,1.637-1.319,2.798-3.01,2.798
		C650.242-21.987,648.922-23.149,648.922-24.785z M649.714-16.707h4.329V8.951h-4.329V-16.707z"/>
	<path d="M671.994-17.341c2.957,0,4.91,1.108,7.181,2.956l-0.213-4.382v-9.872h4.383v37.59h-3.59l-0.369-3.01h-0.158
		c-2.007,1.954-4.752,3.644-7.761,3.644c-6.44,0-10.611-4.857-10.611-13.41C660.854-12.167,666.134-17.341,671.994-17.341z
		 M672.417,5.941c2.375,0,4.435-1.161,6.545-3.537v-13.41c-2.164-1.953-4.117-2.692-6.228-2.692c-4.118,0-7.393,3.96-7.393,9.82
		C665.342,2.246,667.929,5.941,672.417,5.941z"/>
</g>
<g>
	<path d="M294.23,285.163h4.382v30.886h15.152v3.748H294.23V285.163z"/>
	<path d="M318.676,286.06c0-1.689,1.32-2.798,3.01-2.798s3.009,1.108,3.009,2.798c0,1.637-1.319,2.798-3.009,2.798
		S318.676,287.697,318.676,286.06z M319.468,294.138h4.329v25.658h-4.329V294.138z"/>
	<path d="M336.785,321.962v8.658h-4.329v-36.481h3.59l0.37,2.956h0.158c2.323-1.953,5.174-3.59,8.184-3.59
		c6.6,0,10.137,5.121,10.137,13.093c0,8.712-5.227,13.833-11.087,13.833c-2.376,0-4.752-1.109-7.128-2.957L336.785,321.962z
		 M343.068,316.787c4.224,0,7.338-3.854,7.338-10.189c0-5.647-1.9-9.45-6.758-9.45c-2.164,0-4.329,1.215-6.863,3.484v13.463
		C339.108,316.049,341.379,316.787,343.068,316.787z"/>
	<path d="M360.968,286.06c0-1.689,1.32-2.798,3.01-2.798s3.009,1.108,3.009,2.798c0,1.637-1.319,2.798-3.009,2.798
		S360.968,287.697,360.968,286.06z M361.76,294.138h4.329v25.658h-4.329V294.138z"/>
	<path d="M384.04,293.505c2.957,0,4.91,1.108,7.181,2.956l-0.212-4.382v-9.872h4.383v37.59h-3.591l-0.369-3.01h-0.158
		c-2.007,1.954-4.752,3.644-7.762,3.644c-6.44,0-10.611-4.856-10.611-13.41C372.9,298.678,378.18,293.505,384.04,293.505z
		 M384.463,316.787c2.375,0,4.435-1.161,6.546-3.537v-13.41c-2.164-1.953-4.118-2.692-6.229-2.692c-4.118,0-7.392,3.96-7.392,9.82
		C377.388,313.092,379.975,316.787,384.463,316.787z"/>
	<path d="M414.717,305.12c0-9.292,2.587-16.895,6.969-23.97l2.693,1.268c-4.065,6.705-6.072,14.677-6.072,22.702
		c0,8.024,2.007,15.997,6.072,22.702l-2.693,1.267C417.304,322.014,414.717,314.412,414.717,305.12z"/>
	<path d="M442.277,285.744c-0.95-0.423-1.953-0.634-2.904-0.634c-2.428,0-3.59,1.689-3.59,4.963v4.065h5.438v3.537h-5.438v22.121
		h-4.329v-22.121h-3.484v-3.273l3.484-0.264v-4.065c0-5.227,2.376-8.5,7.497-8.5c1.584,0,3.115,0.369,4.276,0.845L442.277,285.744z"
		/>
	<path d="M459.595,303.536c0-3.273-1.108-6.441-5.279-6.441c-3.009,0-5.649,1.373-7.655,2.745l-1.742-3.009
		c2.376-1.531,5.966-3.326,10.084-3.326c6.282,0,8.922,4.171,8.922,10.559v15.733h-3.59l-0.369-3.063h-0.105
		c-2.481,2.007-5.333,3.696-8.5,3.696c-4.33,0-7.55-2.692-7.55-7.286C443.81,307.549,448.666,304.75,459.595,303.536z
		 M452.573,316.946c2.481,0,4.54-1.215,7.021-3.432v-7.128c-8.605,1.056-11.509,3.168-11.509,6.441
		C448.086,315.731,450.039,316.946,452.573,316.946z"/>
	<path d="M472.849,297.676h-3.802v-3.273l4.013-0.264l0.528-7.181h3.643v7.181h6.916v3.537h-6.916v14.255
		c0,3.167,1.003,4.963,3.96,4.963c0.897,0,2.059-0.37,2.903-0.687l0.845,3.273c-1.425,0.475-3.167,0.95-4.751,0.95
		c-5.491,0-7.339-3.484-7.339-8.553V297.676L472.849,297.676z"/>
	<path d="M490.695,297.676h-3.801v-3.273l4.012-0.264l0.527-7.181h3.644v7.181h6.916v3.537h-6.916v14.255
		c0,3.167,1.003,4.963,3.96,4.963c0.896,0,2.059-0.37,2.903-0.687l0.845,3.273c-1.425,0.475-3.167,0.95-4.751,0.95
		c-5.491,0-7.339-3.484-7.339-8.553V297.676L490.695,297.676z"/>
	<path d="M508.014,327.241c2.904,0,4.752-2.323,5.809-5.491l0.581-1.9l-10.295-25.711h4.486l5.228,14.201
		c0.792,2.218,1.688,4.857,2.48,7.233h0.211c0.739-2.323,1.479-4.963,2.165-7.233l4.594-14.201h4.224l-9.661,27.771
		c-1.795,5.068-4.435,8.923-9.608,8.923c-1.161,0-2.165-0.211-3.01-0.528l0.845-3.432
		C506.589,327.03,507.381,327.241,508.014,327.241z"/>
	<path d="M536.209,305.12c0-8.025-2.007-15.997-6.072-22.702l2.693-1.268c4.382,7.075,6.969,14.678,6.969,23.97
		s-2.587,16.895-6.969,23.969l-2.693-1.267C534.202,321.117,536.209,313.144,536.209,305.12z"/>
	<path d="M303.416,356.865c6.547,0,10.243,4.698,10.243,12.037c0,0.897-0.053,1.742-0.159,2.376h-17.316
		c0.316,5.544,3.643,9.028,8.553,9.028c2.429,0,4.487-0.792,6.389-2.007l1.53,2.852c-2.217,1.425-4.962,2.64-8.447,2.64
		c-6.863,0-12.301-5.016-12.301-13.41S297.557,356.865,303.416,356.865z M309.857,368.427c0-5.228-2.323-8.131-6.335-8.131
		c-3.591,0-6.864,2.956-7.392,8.131H309.857z"/>
	<path d="M319.996,357.499h3.59l0.37,3.695h0.158c2.429-2.429,5.068-4.329,8.605-4.329c5.386,0,7.813,3.484,7.813,10.031v16.261
		h-4.329v-15.681c0-4.804-1.478-6.863-4.856-6.863c-2.641,0-4.436,1.373-7.022,3.96v18.584h-4.329V357.499z"/>
	<path d="M345.182,357.499h4.487l4.857,14.571c0.739,2.534,1.584,5.121,2.376,7.55h0.211c0.739-2.429,1.584-5.016,2.323-7.55
		l4.856-14.571h4.276l-9.08,25.658h-5.068L345.182,357.499z"/>
	<path d="M382.932,356.865c6.547,0,10.243,4.698,10.243,12.037c0,0.897-0.053,1.742-0.159,2.376H375.7
		c0.316,5.544,3.643,9.028,8.553,9.028c2.429,0,4.487-0.792,6.389-2.007l1.53,2.852c-2.217,1.425-4.962,2.64-8.447,2.64
		c-6.863,0-12.301-5.016-12.301-13.41S377.072,356.865,382.932,356.865z M389.373,368.427c0-5.228-2.323-8.131-6.335-8.131
		c-3.591,0-6.864,2.956-7.392,8.131H389.373z"/>
	<path d="M399.512,345.566h4.329V378.3c0,1.373,0.581,1.901,1.215,1.901c0.264,0,0.475,0,0.95-0.106l0.58,3.273
		c-0.58,0.265-1.319,0.423-2.48,0.423c-3.273,0-4.594-2.06-4.594-5.808V345.566z"/>
	<path d="M422.953,356.865c6.282,0,11.879,4.91,11.879,13.516c0,8.5-5.597,13.41-11.879,13.41c-6.283,0-11.879-4.91-11.879-13.41
		C411.074,361.775,416.67,356.865,422.953,356.865z M422.953,380.201c4.435,0,7.392-3.96,7.392-9.82
		c0-5.913-2.957-9.926-7.392-9.926c-4.382,0-7.392,4.013-7.392,9.926C415.562,376.241,418.571,380.201,422.953,380.201z"/>
	<path d="M445.921,385.322v8.658h-4.329v-36.481h3.59l0.37,2.956h0.158c2.323-1.953,5.174-3.59,8.184-3.59
		c6.599,0,10.137,5.121,10.137,13.093c0,8.712-5.228,13.833-11.087,13.833c-2.376,0-4.752-1.109-7.128-2.957L445.921,385.322z
		 M452.204,380.147c4.224,0,7.338-3.854,7.338-10.189c0-5.648-1.9-9.45-6.758-9.45c-2.164,0-4.329,1.215-6.863,3.484v13.463
		C448.244,379.409,450.515,380.147,452.204,380.147z"/>
	<path d="M480.504,356.865c6.547,0,10.243,4.698,10.243,12.037c0,0.897-0.053,1.742-0.159,2.376h-17.316
		c0.316,5.544,3.643,9.028,8.553,9.028c2.429,0,4.487-0.792,6.389-2.007l1.53,2.852c-2.217,1.425-4.962,2.64-8.447,2.64
		c-6.863,0-12.301-5.016-12.301-13.41S474.645,356.865,480.504,356.865z M486.945,368.427c0-5.228-2.323-8.131-6.335-8.131
		c-3.591,0-6.864,2.956-7.392,8.131H486.945z"/>
	<path d="M505.585,368.268h12.143v3.326h-12.143V368.268z"/>
	<path d="M293.121,440.709c2.218,1.795,4.488,3.063,7.55,3.063c3.379,0,5.068-1.795,5.068-4.013c0-2.64-3.062-3.802-5.86-4.856
		c-3.643-1.319-7.655-3.063-7.655-7.393c0-4.117,3.273-7.285,8.817-7.285c3.221,0,6.019,1.319,7.972,2.903l-2.059,2.746
		c-1.742-1.32-3.591-2.271-5.86-2.271c-3.221,0-4.699,1.742-4.699,3.695c0,2.429,2.799,3.326,5.702,4.437
		c3.695,1.372,7.813,2.902,7.813,7.761c0,4.171-3.326,7.655-9.397,7.655c-3.643,0-7.127-1.531-9.556-3.537L293.121,440.709z"/>
	<path d="M325.909,420.224c6.282,0,11.879,4.91,11.879,13.516c0,8.5-5.597,13.41-11.879,13.41c-6.282,0-11.879-4.91-11.879-13.41
		C314.03,425.135,319.627,420.224,325.909,420.224z M325.909,443.56c4.435,0,7.392-3.96,7.392-9.819
		c0-5.913-2.957-9.927-7.392-9.927c-4.382,0-7.392,4.014-7.392,9.927C318.518,439.6,321.527,443.56,325.909,443.56z"/>
	<path d="M344.548,420.858h3.59l0.37,3.695h0.158c2.218-2.429,4.91-4.329,7.972-4.329c3.907,0,6.02,1.848,7.075,4.91
		c2.692-2.904,5.332-4.91,8.447-4.91c5.279,0,7.813,3.484,7.813,10.031v16.261h-4.329v-15.681c0-4.804-1.531-6.863-4.752-6.863
		c-2.006,0-4.064,1.32-6.44,3.96v18.584h-4.329v-15.681c0-4.804-1.531-6.863-4.805-6.863c-1.9,0-4.065,1.32-6.441,3.96v18.584
		h-4.329V420.858L344.548,420.858z"/>
	<path d="M397.928,420.224c6.546,0,10.242,4.698,10.242,12.037c0,0.897-0.053,1.742-0.159,2.376h-17.316
		c0.316,5.544,3.643,9.028,8.553,9.028c2.429,0,4.487-0.792,6.389-2.007l1.53,2.852c-2.217,1.425-4.962,2.641-8.447,2.641
		c-6.863,0-12.301-5.017-12.301-13.41C386.419,425.346,392.067,420.224,397.928,420.224z M404.368,431.787
		c0-5.229-2.323-8.131-6.335-8.131c-3.591,0-6.863,2.956-7.392,8.131H404.368z"/>
	<path d="M421.477,420.858h4.487l4.857,14.571c0.739,2.534,1.584,5.121,2.376,7.55h0.211c0.739-2.429,1.584-5.016,2.323-7.55
		l4.856-14.571h4.276l-9.08,25.658h-5.068L421.477,420.858z"/>
	<path d="M449.037,412.78c0-1.689,1.32-2.798,3.01-2.798s3.009,1.108,3.009,2.798c0,1.637-1.319,2.798-3.009,2.798
		S449.037,414.417,449.037,412.78z M449.829,420.858h4.329v25.658h-4.329V420.858z"/>
	<path d="M462.817,420.858h3.59l0.37,4.646h0.158c1.742-3.221,4.382-5.279,7.286-5.279c1.108,0,1.9,0.158,2.745,0.527l-0.845,3.802
		c-0.845-0.264-1.426-0.423-2.481-0.423c-2.165,0-4.752,1.584-6.494,5.914v16.472h-4.329V420.858z"/>
	<path d="M480.769,420.858h4.382v15.68c0,4.805,1.426,6.863,4.805,6.863c2.64,0,4.487-1.319,6.916-4.329v-18.214h4.329v25.658h-3.59
		l-0.37-4.013h-0.158c-2.376,2.799-4.91,4.646-8.447,4.646c-5.438,0-7.866-3.483-7.866-10.03L480.769,420.858L480.769,420.858z"/>
	<path d="M509.175,440.709c2.218,1.795,4.488,3.063,7.55,3.063c3.379,0,5.068-1.795,5.068-4.013c0-2.64-3.062-3.802-5.86-4.856
		c-3.643-1.319-7.654-3.063-7.654-7.393c0-4.117,3.272-7.285,8.816-7.285c3.221,0,6.02,1.319,7.973,2.903l-2.06,2.746
		c-1.742-1.32-3.591-2.271-5.859-2.271c-3.222,0-4.699,1.742-4.699,3.695c0,2.429,2.798,3.326,5.702,4.437
		c3.694,1.372,7.813,2.902,7.813,7.761c0,4.171-3.326,7.655-9.396,7.655c-3.644,0-7.127-1.531-9.557-3.537L509.175,440.709z"/>
	<path d="M541.592,420.224c6.547,0,10.243,4.698,10.243,12.037c0,0.897-0.053,1.742-0.159,2.376H534.36
		c0.315,5.544,3.643,9.028,8.553,9.028c2.429,0,4.487-0.792,6.389-2.007l1.53,2.852c-2.217,1.425-4.962,2.641-8.447,2.641
		c-6.862,0-12.301-5.017-12.301-13.41C530.084,425.346,535.732,420.224,541.592,420.224z M548.033,431.787
		c0-5.229-2.323-8.131-6.335-8.131c-3.591,0-6.864,2.956-7.393,8.131H548.033z"/>
	<path d="M557.485,440.709c2.218,1.795,4.487,3.063,7.55,3.063c3.379,0,5.067-1.795,5.067-4.013c0-2.64-3.062-3.802-5.859-4.856
		c-3.644-1.319-7.655-3.063-7.655-7.393c0-4.117,3.273-7.285,8.817-7.285c3.22,0,6.019,1.319,7.972,2.903l-2.059,2.746
		c-1.742-1.32-3.592-2.271-5.86-2.271c-3.221,0-4.699,1.742-4.699,3.695c0,2.429,2.798,3.326,5.702,4.437
		c3.695,1.372,7.813,2.902,7.813,7.761c0,4.171-3.326,7.655-9.397,7.655c-3.643,0-7.127-1.531-9.556-3.537L557.485,440.709z"/>
</g>
<g>
	<path d="M-191.235,405.436h19.957v3.695h-15.575v10.876h13.146v3.749h-13.146v12.565h16.103v3.748h-20.485V405.436z"/>
	<path d="M-163.833,414.412h3.59l0.37,3.695h0.158c2.429-2.429,5.068-4.329,8.605-4.329c5.385,0,7.814,3.484,7.814,10.031v16.262
		h-4.329v-15.682c0-4.804-1.479-6.863-4.857-6.863c-2.64,0-4.435,1.373-7.021,3.96v18.584h-4.33V414.412z"/>
	<path d="M-138.646,414.412h4.487l4.857,14.571c0.739,2.533,1.583,5.12,2.375,7.55h0.211c0.739-2.43,1.584-5.017,2.323-7.55
		l4.857-14.571h4.276l-9.081,25.658h-5.068L-138.646,414.412z"/>
	<path d="M-100.896,413.778c6.546,0,10.242,4.698,10.242,12.037c0,0.897-0.053,1.742-0.158,2.377h-17.317
		c0.317,5.543,3.643,9.027,8.553,9.027c2.429,0,4.488-0.792,6.388-2.007l1.531,2.852c-2.217,1.426-4.963,2.641-8.447,2.641
		c-6.863,0-12.301-5.017-12.301-13.41C-112.405,418.9-106.756,413.778-100.896,413.778z M-94.455,425.341
		c0-5.228-2.323-8.131-6.335-8.131c-3.59,0-6.863,2.956-7.391,8.131H-94.455z"/>
	<path d="M-84.317,402.48h4.33v32.732c0,1.373,0.581,1.9,1.214,1.9c0.264,0,0.476,0,0.951-0.105l0.581,3.273
		c-0.581,0.265-1.32,0.423-2.481,0.423c-3.273,0-4.593-2.061-4.593-5.809V402.48H-84.317z"/>
	<path d="M-60.875,413.778c6.283,0,11.879,4.91,11.879,13.516c0,8.5-5.596,13.41-11.879,13.41s-11.879-4.91-11.879-13.41
		C-72.753,418.688-67.157,413.778-60.875,413.778z M-60.875,437.113c4.435,0,7.391-3.959,7.391-9.819
		c0-5.913-2.957-9.926-7.391-9.926c-4.382,0-7.392,4.013-7.392,9.926C-68.266,433.154-65.257,437.113-60.875,437.113z"/>
	<path d="M-37.906,442.235v8.657h-4.33v-36.48h3.59l0.369,2.956h0.159c2.322-1.953,5.174-3.59,8.183-3.59
		c6.6,0,10.137,5.121,10.137,13.093c0,8.712-5.227,13.833-11.087,13.833c-2.376,0-4.752-1.109-7.127-2.957L-37.906,442.235z
		 M-31.624,437.06c4.224,0,7.339-3.854,7.339-10.188c0-5.648-1.9-9.45-6.758-9.45c-2.165,0-4.329,1.215-6.863,3.484v13.463
		C-35.584,436.322-33.313,437.06-31.624,437.06z"/>
	<path d="M-3.324,413.778c6.547,0,10.243,4.698,10.243,12.037c0,0.897-0.053,1.742-0.159,2.377h-17.316
		c0.316,5.543,3.643,9.027,8.553,9.027c2.429,0,4.487-0.792,6.389-2.007l1.53,2.852c-2.217,1.426-4.962,2.641-8.447,2.641
		c-6.863,0-12.301-5.017-12.301-13.41C-14.832,418.9-9.184,413.778-3.324,413.778z M3.117,425.341c0-5.228-2.323-8.131-6.335-8.131
		c-3.591,0-6.864,2.956-7.392,8.131H3.117z"/>
	<path d="M28.25,442.235v8.657h-4.329v-36.48h3.59l0.37,2.956h0.158c2.323-1.953,5.174-3.59,8.184-3.59
		c6.6,0,10.137,5.121,10.137,13.093c0,8.712-5.227,13.833-11.087,13.833c-2.376,0-4.752-1.109-7.128-2.957L28.25,442.235z
		 M34.533,437.06c4.224,0,7.338-3.854,7.338-10.188c0-5.648-1.9-9.45-6.758-9.45c-2.164,0-4.329,1.215-6.863,3.484v13.463
		C30.573,436.322,32.844,437.06,34.533,437.06z"/>
	<path d="M53.225,414.412h3.59l0.37,4.646h0.158c1.742-3.221,4.382-5.279,7.286-5.279c1.108,0,1.9,0.158,2.745,0.528l-0.845,3.801
		c-0.845-0.264-1.426-0.422-2.481-0.422c-2.165,0-4.752,1.583-6.494,5.912v16.474h-4.329V414.412z"/>
	<path d="M80.996,413.778c6.282,0,11.879,4.91,11.879,13.516c0,8.5-5.597,13.41-11.879,13.41c-6.283,0-11.879-4.91-11.879-13.41
		C69.117,418.688,74.713,413.778,80.996,413.778z M80.996,437.113c4.435,0,7.392-3.959,7.392-9.819c0-5.913-2.957-9.926-7.392-9.926
		c-4.382,0-7.392,4.013-7.392,9.926C73.604,433.154,76.614,437.113,80.996,437.113z"/>
	<path d="M100.374,417.949h-3.802v-3.273l4.013-0.264l0.528-7.181h3.643v7.181h6.916v3.537h-6.916v14.255
		c0,3.167,1.003,4.963,3.96,4.963c0.897,0,2.059-0.37,2.903-0.688l0.845,3.273c-1.425,0.475-3.167,0.95-4.751,0.95
		c-5.491,0-7.339-3.484-7.339-8.553V417.949z"/>
	<path d="M126.562,413.778c6.546,0,10.242,4.698,10.242,12.037c0,0.897-0.053,1.742-0.159,2.377h-17.316
		c0.316,5.543,3.643,9.027,8.553,9.027c2.429,0,4.487-0.792,6.389-2.007l1.53,2.852c-2.217,1.426-4.962,2.641-8.447,2.641
		c-6.863,0-12.301-5.017-12.301-13.41C115.053,418.9,120.702,413.778,126.562,413.778z M133.003,425.341
		c0-5.228-2.323-8.131-6.335-8.131c-3.591,0-6.863,2.956-7.392,8.131H133.003z"/>
	<path d="M142.35,406.334c0-1.689,1.32-2.798,3.01-2.798s3.009,1.108,3.009,2.798c0,1.637-1.319,2.798-3.009,2.798
		S142.35,407.97,142.35,406.334z M143.142,414.412h4.329v25.658h-4.329V414.412z"/>
	<path d="M156.13,414.412h3.59l0.37,3.695h0.158c2.429-2.429,5.068-4.329,8.605-4.329c5.386,0,7.813,3.484,7.813,10.031v16.262
		h-4.329v-15.682c0-4.804-1.478-6.863-4.856-6.863c-2.641,0-4.436,1.373-7.022,3.96v18.584h-4.329V414.412z"/>
	<path d="M184.324,434.262c2.218,1.795,4.488,3.063,7.55,3.063c3.379,0,5.068-1.795,5.068-4.014c0-2.64-3.062-3.801-5.86-4.856
		c-3.643-1.319-7.655-3.063-7.655-7.391c0-4.118,3.273-7.286,8.817-7.286c3.221,0,6.019,1.319,7.972,2.903l-2.059,2.746
		c-1.742-1.32-3.591-2.271-5.86-2.271c-3.221,0-4.699,1.742-4.699,3.695c0,2.429,2.799,3.326,5.702,4.435
		c3.695,1.373,7.813,2.903,7.813,7.762c0,4.171-3.326,7.655-9.397,7.655c-3.643,0-7.127-1.531-9.556-3.537L184.324,434.262z"/>
</g>
<g>
	<path d="M-75.52-474.318h-10.454v-3.696h25.342v3.696h-10.453v30.938h-4.435V-474.318z"/>
	<path d="M-48.698-469.672c6.546,0,10.243,4.699,10.243,12.037c0,0.896-0.053,1.742-0.159,2.376H-55.93
		c0.317,5.543,3.643,9.028,8.553,9.028c2.429,0,4.488-0.792,6.388-2.006l1.531,2.851c-2.217,1.426-4.963,2.64-8.447,2.64
		c-6.863,0-12.301-5.016-12.301-13.41C-60.206-464.55-54.558-469.672-48.698-469.672z M-42.257-458.11
		c0-5.227-2.323-8.13-6.335-8.13c-3.59,0-6.863,2.957-7.391,8.13H-42.257z"/>
	<path d="M-30.852-444.278v-0.211c-1.267-0.792-2.27-2.165-2.27-4.17c0-2.165,1.478-3.854,2.798-4.752v-0.211
		c-1.689-1.373-3.326-3.854-3.326-6.917c0-5.596,4.435-9.133,9.661-9.133c1.426,0,2.693,0.264,3.644,0.633h8.922v3.326h-5.279
		c1.214,1.162,2.112,3.115,2.112,5.28c0,5.491-4.171,8.922-9.398,8.922c-1.267,0-2.692-0.317-3.854-0.897
		c-0.897,0.792-1.637,1.636-1.637,3.062c0,1.637,1.056,2.798,4.54,2.798h4.963c5.966,0,8.976,1.848,8.976,6.125
		c0,4.751-5.016,8.87-12.988,8.87c-6.282,0-10.611-2.481-10.611-6.916C-34.6-440.635-33.174-442.694-30.852-444.278z
		 M-23.354-434.563c4.91,0,8.131-2.534,8.131-5.227c0-2.375-1.848-3.167-5.174-3.167h-4.436c-1.003,0-2.217-0.105-3.326-0.422
		c-1.848,1.32-2.64,2.851-2.64,4.329C-30.799-436.305-28-434.563-23.354-434.563z M-18.55-460.539c0-3.749-2.429-5.966-5.438-5.966
		c-3.009,0-5.438,2.217-5.438,5.966s2.481,6.125,5.438,6.125C-21.031-454.414-18.55-456.79-18.55-460.539z"/>
	<path d="M-6.404-469.039h4.382v15.68c0,4.805,1.426,6.864,4.805,6.864c2.64,0,4.487-1.32,6.916-4.33v-18.214h4.329v25.659h-3.59
		l-0.37-4.013H9.91c-2.376,2.798-4.91,4.646-8.447,4.646c-5.438,0-7.866-3.485-7.866-10.031L-6.404-469.039L-6.404-469.039z"/>
	<path d="M22.687-469.039h3.59l0.37,3.696h0.158c2.218-2.429,4.91-4.329,7.972-4.329c3.907,0,6.02,1.848,7.075,4.91
		c2.692-2.904,5.332-4.91,8.447-4.91c5.279,0,7.813,3.484,7.813,10.031v16.261h-4.329v-15.68c0-4.804-1.531-6.863-4.752-6.863
		c-2.006,0-4.065,1.32-6.44,3.959v18.584h-4.329v-15.68c0-4.804-1.531-6.863-4.805-6.863c-1.9,0-4.065,1.32-6.441,3.959v18.584
		h-4.329V-469.039L22.687-469.039z"/>
	<path d="M76.068-469.672c6.546,0,10.242,4.699,10.242,12.037c0,0.896-0.053,1.742-0.159,2.376H68.835
		c0.316,5.543,3.643,9.028,8.553,9.028c2.429,0,4.487-0.792,6.389-2.006l1.53,2.851c-2.217,1.426-4.962,2.64-8.447,2.64
		c-6.863,0-12.301-5.016-12.301-13.41C64.559-464.55,70.208-469.672,76.068-469.672z M82.509-458.11c0-5.227-2.323-8.13-6.335-8.13
		c-3.591,0-6.863,2.957-7.392,8.13H82.509z"/>
	<path d="M92.646-469.039h3.59l0.37,3.696h0.158c2.429-2.429,5.068-4.329,8.605-4.329c5.386,0,7.813,3.484,7.813,10.031v16.261
		h-4.329v-15.68c0-4.804-1.478-6.863-4.856-6.863c-2.641,0-4.436,1.373-7.022,3.959v18.584h-4.329V-469.039z"/>
	<path d="M122.268-465.501h-3.801v-3.273l4.012-0.264l0.528-7.18h3.643v7.18h6.916v3.538h-6.916v14.254
		c0,3.168,1.003,4.963,3.96,4.963c0.897,0,2.059-0.37,2.903-0.686l0.845,3.273c-1.425,0.475-3.167,0.951-4.751,0.951
		c-5.491,0-7.339-3.485-7.339-8.553V-465.501z"/>
</g>
<g>
	<rect x="393.429" y="-412.071" fill="none" width="384.27" height="243.468"/>
	<path d="M411.59-409.744c4.171,0,7.444,2.006,9.451,4.276l-2.481,2.798c-1.795-1.953-4.013-3.22-6.916-3.22
		c-6.6,0-10.929,5.385-10.929,13.991c0,8.711,4.171,14.202,10.717,14.202c3.326,0,5.755-1.373,7.973-3.854l2.481,2.693
		c-2.746,3.167-6.125,5.015-10.56,5.015c-8.711,0-15.152-6.652-15.152-17.95C396.174-402.934,402.721-409.744,411.59-409.744z"/>
	<path d="M437.885-400.769c6.282,0,11.879,4.91,11.879,13.516c0,8.5-5.597,13.41-11.879,13.41c-6.283,0-11.879-4.91-11.879-13.41
		C426.006-395.86,431.602-400.769,437.885-400.769z M437.885-377.434c4.435,0,7.392-3.959,7.392-9.82
		c0-5.913-2.957-9.926-7.392-9.926c-4.382,0-7.392,4.013-7.392,9.926C430.493-381.393,433.503-377.434,437.885-377.434z"/>
	<path d="M455.731-408.214c0-1.689,1.32-2.798,3.01-2.798c1.69,0,3.009,1.109,3.009,2.798c0,1.637-1.319,2.798-3.009,2.798
		C457.051-405.416,455.731-406.577,455.731-408.214z M456.523-400.136h4.329v25.659h-4.329V-400.136z"/>
	<path d="M469.512-412.068h4.329v32.733c0,1.373,0.581,1.9,1.215,1.9c0.264,0,0.475,0,0.95-0.105l0.58,3.273
		c-0.58,0.264-1.319,0.422-2.48,0.422c-3.273,0-4.594-2.059-4.594-5.807V-412.068z"/>
	<path d="M492.584-400.769c6.547,0,10.243,4.699,10.243,12.037c0,0.897-0.053,1.742-0.159,2.376h-17.316
		c0.316,5.543,3.643,9.028,8.553,9.028c2.429,0,4.486-0.792,6.389-2.006l1.53,2.851c-2.217,1.426-4.962,2.64-8.447,2.64
		c-6.863,0-12.301-5.015-12.301-13.41S486.725-400.769,492.584-400.769z M499.025-389.207c0-5.227-2.323-8.13-6.335-8.13
		c-3.592,0-6.864,2.957-7.393,8.13H499.025z"/>
	<path d="M518.456-400.769c2.957,0,4.91,1.108,7.181,2.957l-0.212-4.382v-9.873h4.383v37.59h-3.591l-0.369-3.009h-0.157
		c-2.008,1.953-4.752,3.644-7.763,3.644c-6.439,0-10.61-4.857-10.61-13.41C507.316-395.595,512.596-400.769,518.456-400.769z
		 M518.879-377.487c2.375,0,4.436-1.162,6.546-3.537v-13.41c-2.164-1.954-4.118-2.693-6.229-2.693c-4.118,0-7.393,3.96-7.393,9.82
		C511.804-381.182,514.391-377.487,518.879-377.487z"/>
	<path d="M549.556-409.111h8.658c10.665,0,16.366,6.177,16.366,17.159c0,11.034-5.701,17.475-16.155,17.475h-8.869V-409.111z
		 M557.896-378.068c8.078,0,12.145-5.121,12.145-13.885c0-8.711-4.065-13.568-12.145-13.568h-3.959v27.453H557.896z"/>
	<path d="M582.027-409.111h4.54l12.513,21.751l3.748,7.181h0.211c-0.211-3.485-0.527-7.392-0.527-11.035v-17.897h4.171v34.634
		h-4.541l-12.563-21.805l-3.749-7.127h-0.211c0.264,3.485,0.581,7.181,0.581,10.823v18.109h-4.171L582.027-409.111L582.027-409.111z
		"/>
	<path d="M632.026-385.036h-12.618l-3.326,10.559h-4.487l11.722-34.634h4.963L640-374.477h-4.7L632.026-385.036z M630.918-388.573
		l-1.637-5.28c-1.268-3.854-2.376-7.655-3.484-11.667h-0.211c-1.057,4.012-2.165,7.813-3.432,11.667l-1.638,5.28H630.918z"/>
	<path d="M665.132-400.769c6.282,0,11.879,4.91,11.879,13.516c0,8.5-5.597,13.41-11.879,13.41s-11.879-4.91-11.879-13.41
		C653.253-395.86,658.85-400.769,665.132-400.769z M665.132-377.434c4.436,0,7.393-3.959,7.393-9.82
		c0-5.913-2.957-9.926-7.393-9.926c-4.382,0-7.392,4.013-7.392,9.926C657.74-381.393,660.75-377.434,665.132-377.434z"/>
	<path d="M683.771-400.136h3.59l0.371,4.646h0.156c1.742-3.22,4.383-5.279,7.287-5.279c1.107,0,1.9,0.158,2.744,0.528l-0.844,3.801
		c-0.846-0.264-1.426-0.422-2.482-0.422c-2.164,0-4.752,1.584-6.494,5.913v16.472h-4.328V-400.136z"/>
	<path d="M417.187-311.117l-8.342-14.625h-6.282v14.625h-4.382v-34.634h10.822c7.075,0,12.144,2.534,12.144,9.714
		c0,5.385-3.063,8.659-7.761,9.82l8.764,15.1H417.187z M402.563-329.332h5.808c5.385,0,8.395-2.217,8.395-6.705
		c0-4.541-3.01-6.177-8.395-6.177h-5.808V-329.332z"/>
	<path d="M428.857-345.751h4.54l12.513,21.752l3.748,7.18h0.211c-0.211-3.484-0.527-7.391-0.527-11.034v-17.897h4.171v34.634h-4.541
		l-12.564-21.805l-3.749-7.127h-0.211c0.264,3.484,0.581,7.18,0.581,10.823v18.109h-4.171L428.857-345.751L428.857-345.751z"/>
	<path d="M478.856-321.677h-12.618l-3.326,10.559h-4.487l11.721-34.634h4.963l11.721,34.634h-4.699L478.856-321.677z
		 M477.748-325.214l-1.637-5.28c-1.267-3.854-2.376-7.655-3.484-11.668h-0.211c-1.057,4.013-2.165,7.814-3.432,11.668l-1.637,5.28
		H477.748z"/>
	<path d="M501.983-325.795c0-9.292,2.587-16.895,6.969-23.969l2.692,1.268c-4.064,6.705-6.071,14.677-6.071,22.702
		c0,8.025,2.007,15.997,6.071,22.702l-2.692,1.267C504.57-308.9,501.983-316.503,501.983-325.795z"/>
	<path d="M519.776-312.015v-0.211c-1.268-0.792-2.271-2.165-2.271-4.17c0-2.165,1.479-3.854,2.798-4.752v-0.211
		c-1.688-1.373-3.326-3.854-3.326-6.917c0-5.596,4.436-9.133,9.661-9.133c1.427,0,2.693,0.264,3.645,0.633h8.922v3.326h-5.279
		c1.214,1.162,2.111,3.115,2.111,5.28c0,5.491-4.17,8.922-9.397,8.922c-1.267,0-2.691-0.317-3.854-0.897
		c-0.897,0.792-1.637,1.636-1.637,3.062c0,1.637,1.056,2.798,4.54,2.798h4.963c5.966,0,8.976,1.848,8.976,6.125
		c0,4.751-5.016,8.87-12.988,8.87c-6.281,0-10.61-2.481-10.61-6.916C516.028-308.372,517.453-310.431,519.776-312.015z
		 M527.273-302.301c4.909,0,8.131-2.534,8.131-5.228c0-2.375-1.849-3.167-5.174-3.167h-4.437c-1.003,0-2.217-0.104-3.326-0.422
		c-1.848,1.32-2.64,2.851-2.64,4.329C519.829-304.043,522.628-302.301,527.273-302.301z M532.078-328.276
		c0-3.749-2.429-5.966-5.438-5.966c-3.009,0-5.438,2.217-5.438,5.966c0,3.749,2.48,6.125,5.438,6.125
		C529.597-322.152,532.078-324.528,532.078-328.276z"/>
	<path d="M553.463-337.409c6.546,0,10.242,4.699,10.242,12.037c0,0.897-0.053,1.742-0.159,2.376H546.23
		c0.315,5.543,3.643,9.028,8.553,9.028c2.429,0,4.487-0.792,6.389-2.006l1.53,2.851c-2.217,1.426-4.962,2.64-8.447,2.64
		c-6.863,0-12.301-5.016-12.301-13.41S547.603-337.409,553.463-337.409z M559.903-325.847c0-5.227-2.323-8.13-6.335-8.13
		c-3.592,0-6.863,2.957-7.393,8.13H559.903z"/>
	<path d="M570.042-336.776h3.59l0.37,3.696h0.158c2.429-2.429,5.067-4.329,8.604-4.329c5.387,0,7.813,3.484,7.813,10.031v16.261
		h-4.329v-15.68c0-4.804-1.479-6.863-4.856-6.863c-2.641,0-4.436,1.373-7.021,3.959v18.584h-4.329V-336.776L570.042-336.776z"/>
	<path d="M608.533-337.409c6.546,0,10.242,4.699,10.242,12.037c0,0.897-0.054,1.742-0.159,2.376H601.3
		c0.316,5.543,3.644,9.028,8.553,9.028c2.43,0,4.487-0.792,6.39-2.006l1.53,2.851c-2.218,1.426-4.963,2.64-8.447,2.64
		c-6.863,0-12.301-5.016-12.301-13.41S602.673-337.409,608.533-337.409z M614.974-325.847c0-5.227-2.322-8.13-6.335-8.13
		c-3.591,0-6.862,2.957-7.392,8.13H614.974z"/>
	<path d="M625.113-333.239h-3.802v-3.273l4.013-0.264l0.527-7.18h3.644v7.18h6.916v3.538h-6.916v14.254
		c0,3.168,1.003,4.963,3.96,4.963c0.896,0,2.059-0.37,2.903-0.686l0.845,3.273c-1.425,0.475-3.167,0.951-4.751,0.951
		c-5.491,0-7.339-3.484-7.339-8.553V-333.239L625.113-333.239z"/>
	<path d="M641.429-344.854c0-1.689,1.32-2.798,3.011-2.798c1.689,0,3.009,1.108,3.009,2.798c0,1.637-1.319,2.798-3.009,2.798
		C642.749-342.056,641.429-343.217,641.429-344.854z M642.221-336.776h4.329v25.659h-4.329V-336.776z"/>
	<path d="M665.662-337.409c3.379,0,5.755,1.425,7.497,3.062l-2.164,2.798c-1.531-1.32-3.115-2.271-5.174-2.271
		c-4.646,0-8.025,4.013-8.025,9.926c0,5.86,3.221,9.82,7.92,9.82c2.428,0,4.487-1.214,6.02-2.587l1.953,2.851
		c-2.323,2.059-5.279,3.326-8.343,3.326c-6.811,0-12.037-4.91-12.037-13.41C653.309-332.5,659.063-337.409,665.662-337.409z"/>
	<path d="M397.758-273.416h3.59l0.37,3.696h0.158c2.218-2.429,4.91-4.329,7.972-4.329c3.907,0,6.02,1.848,7.075,4.91
		c2.692-2.903,5.332-4.91,8.447-4.91c5.279,0,7.813,3.484,7.813,10.031v16.261h-4.329v-15.68c0-4.805-1.531-6.863-4.752-6.863
		c-2.006,0-4.065,1.32-6.44,3.959v18.584h-4.329v-15.68c0-4.805-1.531-6.863-4.805-6.863c-1.9,0-4.065,1.32-6.441,3.959v18.584
		h-4.329V-273.416L397.758-273.416z"/>
	<path d="M456.047-264.019c0-3.273-1.108-6.441-5.279-6.441c-3.01,0-5.649,1.373-7.655,2.746l-1.742-3.009
		c2.376-1.531,5.966-3.326,10.084-3.326c6.282,0,8.922,4.171,8.922,10.559v15.733h-3.59l-0.369-3.063h-0.105
		c-2.481,2.006-5.333,3.695-8.5,3.695c-4.33,0-7.55-2.692-7.55-7.286C440.262-260.006,445.118-262.804,456.047-264.019z
		 M449.025-250.609c2.481,0,4.54-1.214,7.021-3.432v-7.127c-8.605,1.056-11.509,3.168-11.509,6.441
		C444.538-251.823,446.491-250.609,449.025-250.609z"/>
	<path d="M469.301-269.879H465.5v-3.273l4.012-0.264l0.528-7.18h3.643v7.18h6.916v3.538h-6.916v14.254
		c0,3.168,1.003,4.963,3.96,4.963c0.897,0,2.059-0.37,2.903-0.687l0.845,3.273c-1.425,0.475-3.167,0.95-4.751,0.95
		c-5.491,0-7.339-3.484-7.339-8.553V-269.879L469.301-269.879z"/>
	<path d="M495.49-274.05c6.546,0,10.242,4.699,10.242,12.037c0,0.897-0.054,1.742-0.159,2.376h-17.316
		c0.316,5.543,3.644,9.028,8.553,9.028c2.43,0,4.487-0.792,6.39-2.006l1.53,2.851c-2.218,1.426-4.963,2.64-8.447,2.64
		c-6.863,0-12.301-5.015-12.301-13.41S489.63-274.05,495.49-274.05z M501.931-262.488c0-5.227-2.322-8.13-6.335-8.13
		c-3.591,0-6.863,2.957-7.392,8.13H501.931z"/>
	<path d="M512.069-273.416h3.59l0.37,4.646h0.157c1.742-3.22,4.383-5.279,7.286-5.279c1.108,0,1.9,0.158,2.745,0.528l-0.845,3.801
		c-0.845-0.264-1.426-0.422-2.481-0.422c-2.165,0-4.752,1.584-6.493,5.913v16.472h-4.329V-273.416z"/>
	<path d="M529.598-281.494c0-1.689,1.32-2.798,3.011-2.798c1.689,0,3.009,1.109,3.009,2.798c0,1.637-1.319,2.798-3.009,2.798
		C530.918-278.696,529.598-279.857,529.598-281.494z M530.39-273.416h4.329v25.659h-4.329V-273.416z"/>
	<path d="M557.896-264.019c0-3.273-1.107-6.441-5.278-6.441c-3.01,0-5.649,1.373-7.655,2.746l-1.742-3.009
		c2.376-1.531,5.966-3.326,10.084-3.326c6.282,0,8.922,4.171,8.922,10.559v15.733h-3.59l-0.369-3.063h-0.104
		c-2.481,2.006-5.333,3.695-8.5,3.695c-4.33,0-7.55-2.692-7.55-7.286C542.111-260.006,546.968-262.804,557.896-264.019z
		 M550.875-250.609c2.481,0,4.54-1.214,7.021-3.432v-7.127c-8.604,1.056-11.509,3.168-11.509,6.441
		C546.388-251.823,548.341-250.609,550.875-250.609z"/>
	<path d="M570.411-285.348h4.329v32.733c0,1.373,0.581,1.9,1.215,1.9c0.264,0,0.475,0,0.95-0.105l0.581,3.273
		c-0.581,0.264-1.32,0.422-2.481,0.422c-3.272,0-4.594-2.059-4.594-5.807V-285.348L570.411-285.348z"/>
	<path d="M587.624-262.435c0-8.025-2.007-15.997-6.072-22.702l2.693-1.267c4.382,7.074,6.969,14.677,6.969,23.969
		s-2.587,16.895-6.969,23.969l-2.693-1.267C585.617-246.438,587.624-254.41,587.624-262.435z"/>
</g>
</svg>
