<?xml version="1.0" encoding="utf-8"?>
<!-- Generator: Adobe Illustrator 15.1.0, SVG Export Plug-In . SVG Version: 6.00 Build 0)  -->
<!DOCTYPE svg PUBLIC "-//W3C//DTD SVG 1.1//EN" "http://www.w3.org/Graphics/SVG/1.1/DTD/svg11.dtd">
<svg version="1.1" id="Layer_1" xmlns="http://www.w3.org/2000/svg" xmlns:xlink="http://www.w3.org/1999/xlink" x="0px" y="0px"
	 width="325.984px" height="418px" viewBox="0 0 325.984 418" enable-background="new 0 0 325.984 418" xml:space="preserve">
<g>
	<path d="M35.285,174.149h1.192v8.878h4.128v1.077h-5.32V174.149L35.285,174.149z"/>
	<path d="M44.603,176.546c1.784,0,2.791,1.351,2.791,3.461c0,0.257-0.017,0.5-0.042,0.683h-4.72c0.088,1.593,0.992,2.595,2.33,2.595
		c0.662,0,1.224-0.228,1.741-0.577l0.417,0.819c-0.604,0.409-1.354,0.759-2.302,0.759c-1.869,0-3.354-1.441-3.354-3.854
		C41.469,178.018,43.008,176.546,44.603,176.546z M46.359,179.871c0-1.502-0.634-2.337-1.729-2.337c-0.979,0-1.868,0.85-2.013,2.337
		H46.359z"/>
	<path d="M52.875,179.43c0-0.94-0.303-1.852-1.438-1.852c-0.82,0-1.539,0.396-2.085,0.789l-0.476-0.865
		c0.646-0.44,1.625-0.957,2.748-0.957c1.711,0,2.433,1.2,2.433,3.034v4.522h-0.979l-0.103-0.879h-0.027
		c-0.677,0.576-1.453,1.062-2.316,1.062c-1.179,0-2.056-0.774-2.056-2.094C48.573,180.584,49.896,179.779,52.875,179.43z
		 M50.962,183.285c0.678,0,1.236-0.349,1.914-0.986v-2.048c-2.346,0.303-3.137,0.911-3.137,1.852
		C49.739,182.936,50.27,183.285,50.962,183.285z"/>
	<path d="M56.284,173.299h1.163v7.314h0.042l2.979-3.885h1.31l-2.344,2.958l2.658,4.416h-1.293l-2.043-3.551l-1.31,1.608v1.942
		h-1.165v-10.804h0.003V173.299z"/>
	<path d="M64.581,184.725v2.489h-1.18v-10.485h0.979l0.103,0.85h0.043c0.633-0.562,1.409-1.032,2.229-1.032
		c1.799,0,2.764,1.473,2.764,3.764c0,2.504-1.426,3.977-3.021,3.977c-0.646,0-1.294-0.319-1.939-0.85L64.581,184.725z
		 M66.294,183.239c1.149,0,1.998-1.107,1.998-2.929c0-1.624-0.518-2.716-1.84-2.716c-0.591,0-1.18,0.349-1.871,1.002v3.87
		C65.215,183.027,65.833,183.239,66.294,183.239z"/>
	<path d="M71.385,176.729h0.979l0.101,1.336h0.042c0.477-0.926,1.193-1.519,1.985-1.519c0.303,0,0.52,0.046,0.748,0.152
		l-0.229,1.093c-0.23-0.075-0.39-0.121-0.678-0.121c-0.59,0-1.295,0.455-1.771,1.7v4.735h-1.18v-7.376H71.385z"/>
	<path d="M78.948,176.546c1.713,0,3.237,1.412,3.237,3.887c0,2.443-1.524,3.854-3.237,3.854c-1.712,0-3.236-1.412-3.236-3.854
		C75.712,177.958,77.236,176.546,78.948,176.546z M78.948,183.254c1.208,0,2.014-1.137,2.014-2.822c0-1.7-0.806-2.853-2.014-2.853
		c-1.193,0-2.014,1.154-2.014,2.853C76.934,182.116,77.755,183.254,78.948,183.254z"/>
	<path d="M86.745,176.546c1.712,0,3.235,1.412,3.235,3.887c0,2.443-1.523,3.854-3.235,3.854c-1.711,0-3.236-1.412-3.236-3.854
		C83.509,177.958,85.032,176.546,86.745,176.546z M86.745,183.254c1.208,0,2.014-1.137,2.014-2.822c0-1.7-0.805-2.853-2.014-2.853
		c-1.195,0-2.015,1.154-2.015,2.853C84.729,182.116,85.55,183.254,86.745,183.254z"/>
	<path d="M94.971,174.316c-0.262-0.121-0.532-0.182-0.792-0.182c-0.661,0-0.979,0.486-0.979,1.427v1.168h1.48v1.017H93.2v6.358
		h-1.18v-6.358h-0.949v-0.941l0.949-0.075v-1.168c0-1.503,0.646-2.443,2.042-2.443c0.432,0,0.85,0.106,1.166,0.242L94.971,174.316z"
		/>
	<path d="M34.982,197.91c0.604,0.515,1.224,0.879,2.058,0.879c0.92,0,1.381-0.515,1.381-1.153c0-0.759-0.834-1.093-1.598-1.396
		c-0.991-0.378-2.085-0.879-2.085-2.124c0-1.184,0.893-2.095,2.402-2.095c0.877,0,1.64,0.38,2.172,0.835l-0.562,0.788
		c-0.475-0.379-0.979-0.652-1.598-0.652c-0.877,0-1.28,0.5-1.28,1.062c0,0.698,0.765,0.956,1.557,1.274
		c1.006,0.396,2.127,0.835,2.127,2.232c0,1.198-0.906,2.2-2.562,2.2c-0.992,0-1.939-0.441-2.604-1.017L34.982,197.91z"/>
	<path d="M43.813,192.022c1.783,0,2.79,1.35,2.79,3.46c0,0.257-0.016,0.5-0.042,0.683h-4.717c0.086,1.593,0.99,2.594,2.328,2.594
		c0.663,0,1.225-0.228,1.741-0.576l0.417,0.818c-0.604,0.41-1.354,0.758-2.302,0.758c-1.869,0-3.352-1.441-3.352-3.854
		C40.678,193.493,42.217,192.022,43.813,192.022z M45.567,195.345c0-1.502-0.634-2.336-1.729-2.336c-0.979,0-1.867,0.85-2.013,2.336
		H45.567z"/>
	<path d="M51.177,192.022c0.921,0,1.565,0.409,2.043,0.88l-0.592,0.805c-0.417-0.38-0.85-0.654-1.408-0.654
		c-1.267,0-2.188,1.155-2.188,2.854c0,1.686,0.878,2.823,2.158,2.823c0.663,0,1.224-0.349,1.64-0.743l0.531,0.818
		c-0.631,0.591-1.438,0.956-2.271,0.956c-1.854,0-3.278-1.411-3.278-3.854C47.81,193.434,49.379,192.022,51.177,192.022z"/>
	<path d="M57.303,192.022c1.712,0,3.235,1.412,3.235,3.885c0,2.444-1.522,3.854-3.235,3.854c-1.714,0-3.236-1.411-3.236-3.854
		C54.067,193.434,55.592,192.022,57.303,192.022z M57.303,198.729c1.208,0,2.015-1.137,2.015-2.822c0-1.7-0.806-2.853-2.015-2.853
		c-1.194,0-2.016,1.153-2.016,2.853C55.29,197.592,56.109,198.729,57.303,198.729z"/>
	<path d="M62.381,192.204h0.979l0.103,1.062h0.042c0.662-0.697,1.383-1.245,2.347-1.245c1.466,0,2.129,1.002,2.129,2.884v4.674H66.8
		v-4.507c0-1.381-0.401-1.973-1.322-1.973c-0.721,0-1.208,0.395-1.913,1.138v5.342h-1.181L62.381,192.204L62.381,192.204z"/>
	<path d="M72.78,192.022c0.806,0,1.338,0.318,1.956,0.85l-0.057-1.26v-2.837h1.192v10.805h-0.979l-0.102-0.866h-0.043
		c-0.547,0.562-1.295,1.048-2.113,1.048c-1.756,0-2.892-1.397-2.892-3.854C69.745,193.508,71.183,192.022,72.78,192.022z
		 M72.894,198.714c0.646,0,1.208-0.334,1.783-1.017v-3.854c-0.592-0.562-1.122-0.775-1.697-0.775c-1.122,0-2.015,1.139-2.015,2.822
		C70.969,197.652,71.672,198.714,72.894,198.714z"/>
	<path d="M82.185,194.905c0-0.94-0.304-1.854-1.438-1.854c-0.818,0-1.539,0.396-2.085,0.79l-0.475-0.866
		c0.646-0.44,1.625-0.956,2.748-0.956c1.711,0,2.432,1.2,2.432,3.035v4.522h-0.979l-0.103-0.88h-0.028
		c-0.676,0.577-1.452,1.062-2.313,1.062c-1.18,0-2.057-0.774-2.057-2.095C77.884,196.059,79.208,195.253,82.185,194.905z
		 M80.271,198.759c0.676,0,1.235-0.349,1.914-0.986v-2.048c-2.347,0.303-3.138,0.911-3.138,1.852
		C79.05,198.411,79.582,198.759,80.271,198.759z"/>
	<path d="M85.594,192.204h0.977l0.103,1.336h0.043c0.476-0.927,1.194-1.518,1.985-1.518c0.302,0,0.52,0.045,0.747,0.151
		l-0.229,1.093c-0.23-0.074-0.391-0.121-0.678-0.121c-0.589,0-1.295,0.455-1.77,1.7v4.735h-1.179V192.204L85.594,192.204z"/>
	<path d="M90.915,201.718c0.792,0,1.294-0.668,1.582-1.578l0.158-0.547l-2.806-7.39h1.223l1.425,4.082
		c0.215,0.638,0.46,1.396,0.677,2.079h0.058c0.201-0.667,0.401-1.426,0.59-2.079l1.251-4.082h1.151l-2.634,7.982
		c-0.488,1.456-1.208,2.565-2.616,2.565c-0.317,0-0.592-0.062-0.82-0.153l0.229-0.986C90.526,201.658,90.742,201.718,90.915,201.718
		z"/>
	<path d="M38.017,207.497c0.92,0,1.565,0.41,2.042,0.88l-0.59,0.805c-0.417-0.38-0.85-0.653-1.409-0.653
		c-1.268,0-2.188,1.153-2.188,2.853c0,1.687,0.877,2.824,2.157,2.824c0.663,0,1.223-0.349,1.64-0.743l0.532,0.817
		c-0.633,0.591-1.438,0.958-2.271,0.958c-1.856,0-3.278-1.413-3.278-3.855C34.65,208.909,36.219,207.497,38.017,207.497z"/>
	<path d="M44.143,207.497c1.711,0,3.235,1.412,3.235,3.885c0,2.445-1.523,3.854-3.235,3.854s-3.236-1.411-3.236-3.854
		C40.907,208.909,42.431,207.497,44.143,207.497z M44.143,214.204c1.208,0,2.013-1.138,2.013-2.824c0-1.7-0.805-2.853-2.013-2.853
		c-1.194,0-2.016,1.155-2.016,2.853C42.13,213.066,42.951,214.204,44.143,214.204z"/>
	<path d="M49.221,207.68h0.978l0.104,1.061h0.042c0.659-0.698,1.381-1.244,2.345-1.244c1.466,0,2.129,1.001,2.129,2.883v4.675H53.64
		v-4.507c0-1.382-0.404-1.973-1.324-1.973c-0.719,0-1.208,0.395-1.913,1.138v5.342h-1.18L49.221,207.68L49.221,207.68z"/>
	<path d="M57.29,208.696h-1.036v-0.94l1.096-0.077l0.143-2.063h0.993v2.063h1.885v1.018h-1.885v4.096
		c0,0.91,0.271,1.425,1.079,1.425c0.245,0,0.562-0.106,0.792-0.196l0.229,0.938c-0.389,0.138-0.862,0.274-1.295,0.274
		c-1.496,0-1.999-1.004-1.999-2.459L57.29,208.696L57.29,208.696z"/>
	<path d="M65.645,210.38c0-0.94-0.301-1.852-1.438-1.852c-0.818,0-1.539,0.395-2.085,0.79l-0.475-0.866
		c0.646-0.441,1.625-0.956,2.747-0.956c1.712,0,2.433,1.199,2.433,3.034v4.521h-0.979l-0.104-0.879h-0.026
		c-0.677,0.576-1.453,1.062-2.316,1.062c-1.179,0-2.056-0.774-2.056-2.094C61.346,211.534,62.669,210.729,65.645,210.38z
		 M63.733,214.236c0.677,0,1.236-0.354,1.914-0.986v-2.047c-2.345,0.302-3.136,0.91-3.136,1.852
		C62.511,213.885,63.044,214.236,63.733,214.236z"/>
	<path d="M68.84,205.357c0-0.485,0.358-0.804,0.819-0.804c0.46,0,0.819,0.318,0.819,0.804c0,0.471-0.36,0.805-0.819,0.805
		C69.199,206.162,68.84,205.828,68.84,205.357z M69.054,207.68h1.179v7.375h-1.179V207.68z"/>
	<path d="M72.594,207.68h0.978l0.102,1.061h0.043c0.662-0.698,1.383-1.244,2.347-1.244c1.467,0,2.128,1.001,2.128,2.883v4.675H77.01
		v-4.507c0-1.382-0.403-1.973-1.324-1.973c-0.721,0-1.208,0.395-1.914,1.138v5.342h-1.181L72.594,207.68L72.594,207.68z"/>
	<path d="M83.077,207.497c1.782,0,2.791,1.35,2.791,3.46c0,0.257-0.017,0.5-0.042,0.684h-4.719c0.087,1.594,0.991,2.596,2.331,2.596
		c0.662,0,1.224-0.229,1.741-0.576l0.417,0.816c-0.604,0.409-1.354,0.758-2.304,0.758c-1.869,0-3.353-1.438-3.353-3.854
		C79.941,208.968,81.48,207.497,83.077,207.497z M84.833,210.82c0-1.502-0.634-2.337-1.728-2.337c-0.979,0-1.87,0.851-2.016,2.337
		H84.833z"/>
	<path d="M87.594,207.68h0.979l0.103,1.335h0.042c0.476-0.926,1.194-1.518,1.985-1.518c0.302,0,0.52,0.046,0.747,0.153l-0.229,1.093
		c-0.23-0.077-0.39-0.121-0.678-0.121c-0.589,0-1.295,0.455-1.771,1.698v4.736h-1.179V207.68L87.594,207.68z"/>
</g>
<g>
	<path d="M50.375,110.19h1.193v8.877h4.128v1.077h-5.321V110.19z"/>
	<path d="M57.034,110.447c0-0.485,0.358-0.804,0.819-0.804c0.46,0,0.817,0.318,0.817,0.804c0,0.471-0.358,0.805-0.817,0.805
		S57.034,110.918,57.034,110.447z M57.251,112.77h1.181v7.375h-1.181V112.77z"/>
	<path d="M63.319,112.587c0.806,0,1.337,0.318,1.955,0.85l-0.056-1.259v-2.838h1.191v10.805h-0.978l-0.104-0.866h-0.042
		c-0.547,0.562-1.295,1.048-2.115,1.048c-1.755,0-2.891-1.396-2.891-3.854C60.285,114.075,61.722,112.587,63.319,112.587z
		 M63.433,119.279c0.646,0,1.208-0.333,1.782-1.016v-3.854c-0.59-0.561-1.12-0.774-1.695-0.774c-1.122,0-2.016,1.139-2.016,2.825
		C61.507,118.217,62.213,119.279,63.433,119.279z"/>
</g>
<line fill="none" stroke="#000000" stroke-miterlimit="10" x1="128.973" y1="199.559" x2="99.651" y2="197.567"/>
<line fill="none" stroke="#000000" stroke-miterlimit="10" x1="104.774" y1="121.4" x2="68.819" y2="116.821"/>
<g>
	<path d="M252.854,176.988c0.677,0.743,1.624,1.244,2.603,1.244c1.236,0,1.975-0.653,1.975-1.624c0-1.017-0.678-1.336-1.571-1.761
		l-1.349-0.622c-0.895-0.396-1.918-1.107-1.918-2.564c0-1.518,1.252-2.64,2.965-2.64c1.121,0,2.112,0.5,2.79,1.229l-0.647,0.82
		c-0.574-0.578-1.265-0.941-2.143-0.941c-1.049,0-1.754,0.562-1.754,1.457c0,0.956,0.817,1.32,1.566,1.654l1.337,0.606
		c1.093,0.5,1.941,1.184,1.941,2.656c0,1.579-1.221,2.838-3.207,2.838c-1.322,0-2.485-0.577-3.31-1.472L252.854,176.988z"/>
	<path d="M261.569,179.779v2.488h-1.179v-10.485h0.979l0.101,0.85h0.046c0.629-0.562,1.406-1.032,2.226-1.032
		c1.802,0,2.764,1.472,2.764,3.763c0,2.504-1.421,3.977-3.021,3.977c-0.646,0-1.293-0.319-1.939-0.85L261.569,179.779z
		 M263.282,178.292c1.15,0,1.998-1.107,1.998-2.929c0-1.624-0.518-2.716-1.841-2.716c-0.589,0-1.179,0.349-1.87,1.002v3.87
		C262.204,178.081,262.82,178.292,263.282,178.292z"/>
	<path d="M270.993,171.601c1.781,0,2.787,1.35,2.787,3.46c0,0.258-0.015,0.501-0.042,0.683h-4.719
		c0.088,1.593,0.993,2.595,2.33,2.595c0.664,0,1.224-0.228,1.739-0.577l0.417,0.819c-0.604,0.41-1.354,0.759-2.302,0.759
		c-1.871,0-3.353-1.441-3.353-3.854C267.854,173.072,269.393,171.601,270.993,171.601z M272.746,174.924
		c0-1.502-0.635-2.337-1.728-2.337c-0.979,0-1.871,0.85-2.015,2.337H272.746z"/>
	<path d="M278.354,171.601c0.921,0,1.566,0.409,2.044,0.879l-0.589,0.805c-0.418-0.38-0.854-0.652-1.411-0.652
		c-1.267,0-2.188,1.153-2.188,2.852c0,1.687,0.878,2.825,2.158,2.825c0.663,0,1.224-0.349,1.639-0.744l0.534,0.819
		c-0.632,0.591-1.438,0.956-2.271,0.956c-1.855,0-3.279-1.411-3.279-3.854C274.987,173.012,276.555,171.601,278.354,171.601z"/>
	<path d="M281.847,169.461c0-0.486,0.357-0.805,0.819-0.805c0.46,0,0.816,0.319,0.816,0.805c0,0.47-0.358,0.804-0.816,0.804
		C282.208,170.266,281.847,169.932,281.847,169.461z M282.065,171.782h1.181v7.375h-1.181V171.782z"/>
	<path d="M285.602,171.782h0.979l0.102,1.062h0.042c0.604-0.698,1.339-1.244,2.173-1.244c1.063,0,1.642,0.531,1.929,1.411
		c0.733-0.834,1.452-1.411,2.301-1.411c1.438,0,2.126,1.001,2.126,2.883v4.674h-1.18v-4.507c0-1.381-0.416-1.972-1.293-1.972
		c-0.55,0-1.108,0.379-1.757,1.138v5.342h-1.179v-4.506c0-1.381-0.42-1.973-1.312-1.973c-0.517,0-1.104,0.379-1.757,1.139v5.341
		h-1.18v-7.376L285.602,171.782L285.602,171.782z"/>
	<path d="M300.141,171.601c1.787,0,2.792,1.35,2.792,3.46c0,0.258-0.018,0.501-0.044,0.683h-4.719
		c0.086,1.593,0.991,2.595,2.33,2.595c0.662,0,1.226-0.228,1.741-0.577l0.418,0.819c-0.604,0.41-1.354,0.759-2.304,0.759
		c-1.87,0-3.354-1.441-3.354-3.854C297.009,173.072,298.548,171.601,300.141,171.601z M301.898,174.924
		c0-1.502-0.634-2.337-1.729-2.337c-0.979,0-1.871,0.85-2.013,2.337H301.898z"/>
	<path d="M304.661,171.782h0.979l0.1,1.062h0.045c0.66-0.698,1.381-1.244,2.345-1.244c1.469,0,2.128,1.001,2.128,2.883v4.674h-1.179
		v-4.507c0-1.381-0.403-1.972-1.323-1.972c-0.72,0-1.209,0.396-1.911,1.138v5.342h-1.181L304.661,171.782L304.661,171.782z"/>
	<path d="M252.522,192.964c0.604,0.516,1.226,0.88,2.06,0.88c0.919,0,1.381-0.516,1.381-1.154c0-0.759-0.834-1.093-1.598-1.396
		c-0.99-0.379-2.085-0.88-2.085-2.125c0-1.184,0.891-2.094,2.402-2.094c0.877,0,1.641,0.379,2.174,0.834l-0.562,0.789
		c-0.475-0.379-0.979-0.652-1.595-0.652c-0.88,0-1.28,0.5-1.28,1.062c0,0.698,0.763,0.957,1.557,1.274
		c1.003,0.395,2.126,0.834,2.126,2.231c0,1.2-0.905,2.2-2.56,2.2c-0.993,0-1.94-0.44-2.604-1.018L252.522,192.964z"/>
	<path d="M258.638,187.258h1.191v4.507c0,1.38,0.392,1.972,1.311,1.972c0.72,0,1.223-0.379,1.883-1.245v-5.235h1.18v7.375h-0.979
		l-0.102-1.154h-0.044c-0.646,0.804-1.335,1.336-2.299,1.336c-1.482,0-2.144-1.001-2.144-2.884v-4.672H258.638z"/>
	<path d="M266.561,183.829h1.177v2.943l-0.024,1.335c0.633-0.591,1.408-1.032,2.188-1.032c1.812,0,2.775,1.472,2.775,3.749
		c0,2.52-1.425,3.99-3.021,3.99c-0.646,0-1.383-0.333-1.999-0.911h-0.046l-0.1,0.729h-0.949L266.561,183.829L266.561,183.829z
		 M269.449,193.767c1.153,0,2.002-1.107,2.002-2.929c0-1.624-0.519-2.716-1.842-2.716c-0.588,0-1.209,0.35-1.871,1.002v3.87
		C268.358,193.556,268.991,193.767,269.449,193.767z"/>
	<path d="M274.542,187.258h0.979l0.103,1.062h0.042c0.604-0.698,1.337-1.244,2.173-1.244c1.062,0,1.641,0.531,1.929,1.411
		c0.731-0.834,1.45-1.411,2.3-1.411c1.439,0,2.131,1.001,2.131,2.883v4.674h-1.182v-4.507c0-1.382-0.416-1.973-1.299-1.973
		c-0.548,0-1.105,0.379-1.755,1.138v5.341h-1.18v-4.507c0-1.381-0.415-1.972-1.307-1.972c-0.52,0-1.109,0.379-1.757,1.138v5.342
		h-1.182L274.542,187.258L274.542,187.258z"/>
	<path d="M286.249,184.936c0-0.485,0.359-0.804,0.82-0.804c0.46,0,0.817,0.319,0.817,0.804c0,0.471-0.359,0.805-0.817,0.805
		C286.61,185.74,286.249,185.407,286.249,184.936z M286.467,187.258h1.182v7.375h-1.182V187.258z"/>
	<path d="M289.817,192.964c0.604,0.516,1.223,0.88,2.058,0.88c0.921,0,1.381-0.516,1.381-1.154c0-0.759-0.833-1.093-1.595-1.396
		c-0.995-0.379-2.086-0.88-2.086-2.125c0-1.184,0.891-2.094,2.4-2.094c0.878,0,1.642,0.379,2.173,0.834l-0.562,0.789
		c-0.475-0.379-0.979-0.652-1.6-0.652c-0.878,0-1.278,0.5-1.278,1.062c0,0.698,0.766,0.957,1.557,1.274
		c1.005,0.395,2.129,0.834,2.129,2.231c0,1.2-0.907,2.2-2.562,2.2c-0.993,0-1.94-0.44-2.603-1.018L289.817,192.964z"/>
	<path d="M295.844,192.964c0.604,0.516,1.224,0.88,2.057,0.88c0.921,0,1.384-0.516,1.384-1.154c0-0.759-0.833-1.093-1.598-1.396
		c-0.993-0.379-2.086-0.88-2.086-2.125c0-1.184,0.892-2.094,2.399-2.094c0.88,0,1.643,0.379,2.173,0.834l-0.562,0.789
		c-0.472-0.379-0.976-0.652-1.595-0.652c-0.878,0-1.279,0.5-1.279,1.062c0,0.698,0.763,0.957,1.556,1.274
		c1.003,0.395,2.127,0.834,2.127,2.231c0,1.2-0.903,2.2-2.562,2.2c-0.99,0-1.939-0.44-2.604-1.018L295.844,192.964z"/>
	<path d="M301.842,184.936c0-0.485,0.359-0.804,0.819-0.804c0.457,0,0.816,0.319,0.816,0.804c0,0.471-0.359,0.805-0.816,0.805
		C302.201,185.74,301.842,185.407,301.842,184.936z M302.054,187.258h1.182v7.375h-1.182V187.258z"/>
	<path d="M308.311,187.076c1.713,0,3.235,1.411,3.235,3.886c0,2.443-1.522,3.854-3.235,3.854c-1.711,0-3.234-1.411-3.234-3.854
		C305.077,188.487,306.6,187.076,308.311,187.076z M308.311,193.783c1.209,0,2.016-1.137,2.016-2.822c0-1.7-0.807-2.853-2.016-2.853
		c-1.194,0-2.015,1.153-2.015,2.853C306.3,192.645,307.119,193.783,308.311,193.783z"/>
	<path d="M313.389,187.258h0.979l0.102,1.062h0.044c0.659-0.698,1.381-1.244,2.342-1.244c1.467,0,2.131,1.001,2.131,2.883v4.674
		h-1.18v-4.507c0-1.382-0.401-1.973-1.322-1.973c-0.72,0-1.207,0.395-1.915,1.138v5.341h-1.179L313.389,187.258L313.389,187.258
		L313.389,187.258z"/>
	<path d="M255.859,200.32c-0.258-0.121-0.53-0.181-0.791-0.181c-0.661,0-0.979,0.485-0.979,1.426v1.168h1.48v1.018h-1.48v6.356
		h-1.179v-6.356h-0.949v-0.941l0.949-0.076v-1.168c0-1.501,0.646-2.443,2.042-2.443c0.434,0,0.849,0.106,1.165,0.243L255.859,200.32
		z"/>
	<path d="M259.485,202.551c1.71,0,3.235,1.412,3.235,3.885c0,2.442-1.525,3.854-3.235,3.854c-1.713,0-3.237-1.412-3.237-3.854
		C256.25,203.963,257.772,202.551,259.485,202.551z M259.485,209.257c1.207,0,2.013-1.137,2.013-2.823
		c0-1.699-0.806-2.852-2.013-2.852c-1.194,0-2.015,1.154-2.015,2.852C257.471,208.12,258.291,209.257,259.485,209.257z"/>
	<path d="M264.561,202.733h0.978l0.102,1.335h0.043c0.476-0.926,1.192-1.517,1.984-1.517c0.306,0,0.521,0.045,0.749,0.152
		l-0.229,1.092c-0.231-0.075-0.394-0.121-0.68-0.121c-0.588,0-1.293,0.455-1.768,1.699v4.736h-1.181L264.561,202.733
		L264.561,202.733z"/>
	<path d="M269.553,202.733h0.978l0.101,1.062h0.047c0.604-0.697,1.337-1.244,2.17-1.244c1.062,0,1.641,0.531,1.929,1.411
		c0.733-0.833,1.455-1.411,2.301-1.411c1.438,0,2.129,1.002,2.129,2.883v4.673h-1.181v-4.506c0-1.381-0.418-1.972-1.295-1.972
		c-0.55,0-1.106,0.378-1.755,1.137v5.341h-1.183v-4.506c0-1.381-0.418-1.972-1.31-1.972c-0.517,0-1.106,0.38-1.755,1.139v5.341
		h-1.184L269.553,202.733L269.553,202.733z"/>
</g>
<g>
	<path d="M281.793,267.404c1.137,0,2.027,0.578,2.574,1.229l-0.677,0.807c-0.489-0.562-1.094-0.93-1.885-0.93
		c-1.801,0-2.978,1.551-2.978,4.023c0,2.504,1.135,4.076,2.92,4.076c0.904,0,1.567-0.396,2.172-1.105l0.678,0.773
		c-0.747,0.91-1.667,1.44-2.876,1.44c-2.372,0-4.131-1.911-4.131-5.157C277.592,269.363,279.375,267.404,281.793,267.404z"/>
	<path d="M288.953,269.984c1.713,0,3.238,1.412,3.238,3.887c0,2.441-1.525,3.852-3.238,3.852c-1.712,0-3.233-1.412-3.233-3.852
		C285.719,271.396,287.241,269.984,288.953,269.984z M288.953,276.695c1.209,0,2.017-1.139,2.017-2.824
		c0-1.701-0.808-2.854-2.017-2.854c-1.189,0-2.014,1.149-2.014,2.854C286.939,275.557,287.761,276.695,288.953,276.695z"/>
	<path d="M294.03,266.738h1.181v9.408c0,0.395,0.159,0.547,0.331,0.547c0.071,0,0.13,0,0.262-0.029l0.156,0.939
		c-0.156,0.071-0.357,0.123-0.677,0.123c-0.894,0-1.251-0.595-1.251-1.672v-9.316H294.03L294.03,266.738z"/>
	<path d="M300.231,269.984c0.807,0,1.337,0.32,1.955,0.852l-0.061-1.26v-2.838h1.194v10.805h-0.979l-0.102-0.865h-0.042
		c-0.549,0.561-1.298,1.045-2.114,1.045c-1.757,0-2.893-1.395-2.893-3.852C297.196,271.471,298.634,269.984,300.231,269.984z
		 M300.344,276.678c0.647,0,1.209-0.334,1.784-1.018v-3.854c-0.591-0.562-1.123-0.775-1.696-0.775c-1.123,0-2.015,1.139-2.015,2.824
		C298.42,275.613,299.123,276.678,300.344,276.678z"/>
	<path d="M279.203,292.73v2.485h-1.179v-10.483h0.979l0.1,0.852h0.044c0.632-0.561,1.409-1.033,2.229-1.033
		c1.802,0,2.764,1.473,2.764,3.766c0,2.504-1.427,3.978-3.021,3.978c-0.646,0-1.293-0.317-1.938-0.854L279.203,292.73z
		 M280.913,291.242c1.152,0,2.001-1.107,2.001-2.928c0-1.625-0.519-2.717-1.842-2.717c-0.588,0-1.179,0.35-1.869,1.004v3.866
		C279.836,291.029,280.454,291.242,280.913,291.242z"/>
	<path d="M289.76,287.436c0-0.938-0.304-1.854-1.438-1.854c-0.819,0-1.538,0.395-2.085,0.789l-0.474-0.865
		c0.646-0.441,1.625-0.957,2.748-0.957c1.711,0,2.43,1.199,2.43,3.035v4.521h-0.979l-0.1-0.879h-0.028
		c-0.674,0.573-1.453,1.062-2.312,1.062c-1.184,0-2.061-0.774-2.061-2.095C285.458,288.586,286.782,287.783,289.76,287.436z
		 M287.845,291.289c0.676,0,1.233-0.352,1.915-0.986v-2.049c-2.349,0.305-3.138,0.912-3.138,1.852
		C286.625,290.938,287.157,291.289,287.845,291.289z"/>
	<path d="M296.014,284.551c0.922,0,1.567,0.41,2.043,0.879l-0.592,0.805c-0.415-0.379-0.85-0.649-1.407-0.649
		c-1.269,0-2.188,1.151-2.188,2.854c0,1.688,0.878,2.821,2.158,2.821c0.661,0,1.224-0.35,1.64-0.739l0.531,0.815
		c-0.635,0.59-1.438,0.957-2.271,0.957c-1.856,0-3.279-1.412-3.279-3.854C292.649,285.963,294.217,284.551,296.014,284.551z"/>
	<path d="M299.725,281.303h1.163v7.314h0.044l2.979-3.885h1.311l-2.346,2.961l2.659,4.414h-1.293l-2.045-3.551l-1.31,1.606v1.94
		h-1.165v-10.805h0.003V281.303L299.725,281.303z"/>
	<path d="M306.656,290.439c0.604,0.516,1.227,0.881,2.06,0.881c0.924,0,1.383-0.521,1.383-1.156c0-0.758-0.835-1.092-1.597-1.396
		c-0.995-0.377-2.086-0.879-2.086-2.125c0-1.182,0.894-2.094,2.401-2.094c0.875,0,1.644,0.381,2.172,0.836l-0.562,0.787
		c-0.475-0.377-0.977-0.654-1.596-0.654c-0.877,0-1.278,0.504-1.278,1.064c0,0.699,0.765,0.957,1.554,1.273
		c1.006,0.395,2.131,0.834,2.131,2.229c0,1.197-0.906,2.201-2.562,2.201c-0.989,0-1.94-0.439-2.602-1.02L306.656,290.439z"/>
</g>
<g>
	<path d="M256.795,367.875c0.678,0.742,1.625,1.24,2.604,1.24c1.232,0,1.971-0.65,1.971-1.619c0-1.021-0.678-1.338-1.57-1.764
		l-1.351-0.621c-0.893-0.398-1.913-1.109-1.913-2.564c0-1.518,1.251-2.643,2.962-2.643c1.121,0,2.113,0.502,2.79,1.229l-0.646,0.818
		c-0.574-0.576-1.268-0.939-2.145-0.939c-1.049,0-1.756,0.562-1.756,1.457c0,0.955,0.817,1.32,1.568,1.656l1.34,0.605
		c1.091,0.5,1.938,1.184,1.938,2.651c0,1.578-1.225,2.838-3.208,2.838c-1.321,0-2.486-0.573-3.309-1.471L256.795,367.875z"/>
	<path d="M264.329,359.24h1.183v2.938l-0.048,1.521c0.664-0.668,1.367-1.217,2.333-1.217c1.469,0,2.128,1.004,2.128,2.887v4.674
		h-1.179v-4.506c0-1.385-0.4-1.973-1.325-1.973c-0.716,0-1.207,0.395-1.909,1.137v5.342h-1.183V359.24L264.329,359.24z"/>
	<path d="M271.938,360.348c0-0.483,0.357-0.805,0.817-0.805c0.458,0,0.819,0.318,0.819,0.805c0,0.474-0.361,0.808-0.819,0.808
		C272.299,361.152,271.938,360.818,271.938,360.348z M272.154,362.67h1.18v7.373h-1.18V362.67z"/>
	<path d="M276.871,370.666v2.488h-1.18V362.67h0.979l0.104,0.85h0.042c0.634-0.561,1.409-1.03,2.229-1.03
		c1.8,0,2.764,1.475,2.764,3.766c0,2.504-1.425,3.979-3.021,3.979c-0.646,0-1.296-0.32-1.94-0.854L276.871,370.666z M278.582,369.18
		c1.15,0,1.999-1.104,1.999-2.93c0-1.625-0.517-2.715-1.839-2.715c-0.591,0-1.181,0.35-1.871,1.002v3.869
		C277.505,368.969,278.125,369.18,278.582,369.18z"/>
	<path d="M284.852,370.666v2.488h-1.182V362.67h0.979l0.102,0.85h0.044c0.629-0.561,1.408-1.03,2.229-1.03
		c1.8,0,2.761,1.475,2.761,3.766c0,2.504-1.424,3.979-3.021,3.979c-0.646,0-1.293-0.32-1.941-0.854L284.852,370.666z
		 M286.563,369.18c1.15,0,2-1.104,2-2.93c0-1.625-0.52-2.715-1.841-2.715c-0.591,0-1.181,0.35-1.87,1.002v3.869
		C285.486,368.969,286.103,369.18,286.563,369.18z"/>
	<path d="M291.439,360.348c0-0.483,0.357-0.805,0.817-0.805c0.464,0,0.816,0.318,0.816,0.805c0,0.474-0.358,0.808-0.816,0.808
		C291.8,361.152,291.439,360.818,291.439,360.348z M291.657,362.67h1.18v7.373h-1.18V362.67z"/>
	<path d="M295.194,362.67h0.979l0.1,1.062h0.046c0.662-0.697,1.381-1.244,2.344-1.244c1.467,0,2.132,1.004,2.132,2.887v4.672h-1.182
		v-4.506c0-1.383-0.403-1.973-1.322-1.973c-0.719,0-1.209,0.395-1.914,1.139v5.342h-1.181L295.194,362.67L295.194,362.67z"/>
	<path d="M303.549,369.785v-0.06c-0.344-0.229-0.615-0.625-0.615-1.196c0-0.625,0.399-1.107,0.762-1.365v-0.062
		c-0.46-0.395-0.904-1.106-0.904-1.985c0-1.611,1.209-2.627,2.634-2.627c0.39,0,0.732,0.076,0.991,0.182h2.434v0.959h-1.438
		c0.329,0.332,0.574,0.896,0.574,1.521c0,1.573-1.137,2.561-2.562,2.561c-0.344,0-0.733-0.09-1.05-0.258
		c-0.243,0.229-0.443,0.475-0.443,0.881c0,0.473,0.284,0.807,1.233,0.807h1.354c1.623,0,2.444,0.529,2.444,1.763
		c0,1.362-1.367,2.551-3.541,2.551c-1.711,0-2.894-0.711-2.894-1.988C302.526,370.834,302.92,370.242,303.549,369.785z
		 M305.594,372.58c1.339,0,2.216-0.73,2.216-1.504c0-0.685-0.506-0.91-1.409-0.91h-1.209c-0.272,0-0.604-0.031-0.906-0.121
		c-0.504,0.381-0.72,0.816-0.72,1.244C303.564,372.078,304.326,372.58,305.594,372.58z M306.901,365.111
		c0-1.078-0.663-1.715-1.481-1.715c-0.817,0-1.479,0.637-1.479,1.715s0.674,1.76,1.479,1.76
		C306.223,366.871,306.901,366.189,306.901,365.111z"/>
	<path d="M259.497,378.873c0.921,0,1.567,0.408,2.044,0.879l-0.589,0.805c-0.418-0.379-0.851-0.649-1.409-0.649
		c-1.269,0-2.188,1.149-2.188,2.854c0,1.688,0.88,2.824,2.158,2.824c0.664,0,1.226-0.352,1.641-0.744l0.532,0.82
		c-0.634,0.588-1.438,0.955-2.271,0.955c-1.854,0-3.277-1.412-3.277-3.855C256.134,380.283,257.699,378.873,259.497,378.873z"/>
	<path d="M265.624,378.873c1.713,0,3.236,1.41,3.236,3.885c0,2.445-1.523,3.855-3.236,3.855c-1.711,0-3.233-1.412-3.233-3.855
		C262.389,380.283,263.913,378.873,265.624,378.873z M265.624,385.58c1.209,0,2.017-1.137,2.017-2.824
		c0-1.701-0.808-2.854-2.017-2.854c-1.191,0-2.014,1.151-2.014,2.854C263.61,384.443,264.429,385.58,265.624,385.58z"/>
	<path d="M270.702,379.055h0.979l0.1,1.062h0.044c0.662-0.697,1.382-1.24,2.346-1.24c1.469,0,2.131,1,2.131,2.881v4.676h-1.182
		v-4.508c0-1.381-0.401-1.973-1.323-1.973c-0.718,0-1.207,0.396-1.915,1.139v5.342h-1.179v-7.375h0.002L270.702,379.055
		L270.702,379.055z"/>
	<path d="M278.769,380.072h-1.038v-0.941l1.095-0.072l0.146-2.063h0.989v2.063h1.887v1.017h-1.887v4.096
		c0,0.912,0.273,1.428,1.083,1.428c0.244,0,0.562-0.104,0.79-0.194l0.23,0.938c-0.394,0.133-0.862,0.273-1.297,0.273
		c-1.497,0-1.998-1.006-1.998-2.461V380.072L278.769,380.072z"/>
	<path d="M287.128,381.756c0-0.938-0.302-1.852-1.438-1.852c-0.816,0-1.538,0.395-2.086,0.789l-0.476-0.865
		c0.646-0.439,1.625-0.955,2.748-0.955c1.71,0,2.432,1.197,2.432,3.033v4.521h-0.979l-0.101-0.881H287.2
		c-0.675,0.576-1.451,1.062-2.312,1.062c-1.184,0-2.061-0.777-2.061-2.099C282.824,382.91,284.149,382.104,287.128,381.756z
		 M285.215,385.609c0.676,0,1.232-0.353,1.913-0.984v-2.049c-2.348,0.301-3.136,0.91-3.136,1.85
		C283.991,385.26,284.524,385.609,285.215,385.609z"/>
	<path d="M290.318,376.732c0-0.486,0.359-0.806,0.821-0.806c0.46,0,0.817,0.316,0.817,0.806c0,0.473-0.357,0.803-0.817,0.803
		S290.318,377.203,290.318,376.732z M290.535,379.055h1.179v7.375h-1.179V379.055z"/>
	<path d="M294.071,379.055h0.979l0.102,1.062h0.044c0.664-0.697,1.384-1.24,2.346-1.24c1.468,0,2.13,1,2.13,2.881v4.676h-1.182
		v-4.508c0-1.381-0.401-1.973-1.322-1.973c-0.721,0-1.207,0.396-1.912,1.139v5.342h-1.183L294.071,379.055L294.071,379.055z"/>
	<path d="M304.557,378.873c1.782,0,2.792,1.348,2.792,3.459c0,0.258-0.019,0.502-0.044,0.684h-4.721
		c0.086,1.595,0.991,2.597,2.33,2.597c0.663,0,1.225-0.229,1.739-0.576l0.416,0.817c-0.604,0.41-1.352,0.761-2.3,0.761
		c-1.871,0-3.354-1.441-3.354-3.854C301.423,380.344,302.962,378.873,304.557,378.873z M306.311,382.195
		c0-1.5-0.631-2.334-1.727-2.334c-0.978,0-1.87,0.85-2.015,2.334H306.311z"/>
	<path d="M309.075,379.055h0.979l0.101,1.336h0.045c0.474-0.926,1.191-1.516,1.983-1.516c0.302,0,0.519,0.045,0.747,0.152
		l-0.229,1.09c-0.229-0.074-0.389-0.121-0.677-0.121c-0.592,0-1.297,0.455-1.771,1.701v4.731h-1.179L309.075,379.055
		L309.075,379.055z"/>
</g>
<g>
	<path d="M190.266,53.935h2.89c2.087,0,3.481,0.743,3.481,2.929c0,2.094-1.409,3.081-3.481,3.081h-1.696v3.945h-1.19L190.266,53.935
		L190.266,53.935z M193.013,58.913c1.639,0,2.431-0.638,2.431-2.048c0-1.441-0.806-1.913-2.431-1.913h-1.557v3.961H193.013z"/>
	<path d="M198.435,56.515h0.979l0.104,1.335h0.042c0.474-0.926,1.191-1.517,1.985-1.517c0.303,0,0.517,0.045,0.747,0.152
		l-0.23,1.093c-0.229-0.076-0.39-0.121-0.675-0.121c-0.59,0-1.297,0.455-1.771,1.699v4.735h-1.18V56.515L198.435,56.515z"/>
	<path d="M203.211,54.193c0-0.485,0.359-0.804,0.818-0.804c0.46,0,0.819,0.318,0.819,0.804c0,0.471-0.359,0.805-0.819,0.805
		C203.57,54.998,203.211,54.664,203.211,54.193z M203.427,56.515h1.18v7.375h-1.18V56.515z"/>
	<path d="M206.964,56.515h0.979l0.103,1.062h0.042c0.605-0.698,1.342-1.245,2.177-1.245c1.062,0,1.639,0.531,1.925,1.411
		c0.733-0.834,1.454-1.411,2.302-1.411c1.438,0,2.13,1.001,2.13,2.883v4.674h-1.181v-4.506c0-1.382-0.418-1.973-1.295-1.973
		c-0.55,0-1.106,0.38-1.755,1.139v5.342h-1.183v-4.507c0-1.381-0.416-1.973-1.31-1.973c-0.52,0-1.106,0.379-1.757,1.138v5.342h-1.18
		v-7.377L206.964,56.515L206.964,56.515z"/>
	<path d="M222.842,59.216c0-0.94-0.302-1.851-1.438-1.851c-0.82,0-1.539,0.394-2.087,0.788l-0.476-0.865
		c0.646-0.44,1.625-0.956,2.746-0.956c1.715,0,2.435,1.199,2.435,3.035v4.522h-0.979l-0.101-0.88h-0.027
		c-0.674,0.577-1.453,1.062-2.314,1.062c-1.181,0-2.059-0.774-2.059-2.094C218.543,60.37,219.865,59.565,222.842,59.216z
		 M220.929,63.071c0.676,0,1.235-0.35,1.914-0.986v-2.048c-2.346,0.303-3.138,0.91-3.138,1.851
		C219.708,62.722,220.237,63.071,220.929,63.071z"/>
	<path d="M226.251,56.515h0.979l0.104,1.335h0.042c0.475-0.926,1.191-1.517,1.985-1.517c0.303,0,0.519,0.045,0.747,0.152
		l-0.229,1.093c-0.23-0.076-0.391-0.121-0.679-0.121c-0.588,0-1.293,0.455-1.769,1.699v4.735h-1.182L226.251,56.515L226.251,56.515z
		"/>
	<path d="M231.572,66.03c0.792,0,1.296-0.668,1.581-1.578l0.16-0.546l-2.809-7.391h1.226l1.423,4.082
		c0.217,0.638,0.462,1.396,0.677,2.08h0.06c0.203-0.667,0.399-1.426,0.59-2.08l1.251-4.082h1.15l-2.634,7.982
		c-0.489,1.457-1.209,2.564-2.618,2.564c-0.315,0-0.587-0.061-0.817-0.152l0.23-0.986C231.182,65.969,231.398,66.03,231.572,66.03z"
		/>
	<path d="M240.949,62.221c0.604,0.516,1.222,0.88,2.058,0.88c0.923,0,1.383-0.516,1.383-1.154c0-0.759-0.834-1.092-1.599-1.396
		c-0.993-0.379-2.085-0.88-2.085-2.125c0-1.184,0.894-2.095,2.403-2.095c0.875,0,1.64,0.379,2.171,0.834l-0.558,0.789
		c-0.478-0.379-0.979-0.652-1.602-0.652c-0.877,0-1.276,0.5-1.276,1.062c0,0.698,0.761,0.957,1.555,1.275
		c1.003,0.395,2.126,0.834,2.126,2.23c0,1.2-0.904,2.2-2.562,2.2c-0.989,0-1.938-0.44-2.602-1.017L240.949,62.221z"/>
	<path d="M248.344,64.513V67h-1.184V56.515h0.979l0.1,0.85h0.045c0.632-0.562,1.41-1.032,2.229-1.032
		c1.801,0,2.762,1.472,2.762,3.764c0,2.503-1.423,3.976-3.021,3.976c-0.646,0-1.293-0.318-1.94-0.85L248.344,64.513z
		 M250.052,63.025c1.151,0,2.001-1.107,2.001-2.929c0-1.625-0.521-2.717-1.845-2.717c-0.588,0-1.18,0.35-1.868,1.002v3.87
		C248.974,62.813,249.594,63.025,250.052,63.025z"/>
	<path d="M257.763,56.333c1.78,0,2.789,1.351,2.789,3.46c0,0.257-0.016,0.5-0.042,0.682h-4.72c0.086,1.593,0.991,2.595,2.33,2.595
		c0.663,0,1.225-0.228,1.739-0.577l0.416,0.819c-0.604,0.41-1.353,0.759-2.3,0.759c-1.871,0-3.354-1.441-3.354-3.854
		C254.626,57.804,256.164,56.333,257.763,56.333z M259.516,59.656c0-1.502-0.635-2.336-1.729-2.336c-0.978,0-1.868,0.85-2.014,2.336
		H259.516z"/>
	<path d="M265.126,56.333c0.921,0,1.567,0.41,2.044,0.88l-0.592,0.804c-0.415-0.379-0.85-0.652-1.408-0.652
		c-1.267,0-2.188,1.153-2.188,2.852c0,1.686,0.877,2.822,2.158,2.822c0.661,0,1.221-0.348,1.639-0.743l0.531,0.819
		c-0.631,0.591-1.438,0.956-2.271,0.956c-1.855,0-3.278-1.411-3.278-3.854C261.76,57.745,263.327,56.333,265.126,56.333z"/>
	<path d="M268.621,54.193c0-0.485,0.358-0.804,0.818-0.804s0.817,0.318,0.817,0.804c0,0.471-0.36,0.805-0.817,0.805
		C268.979,54.998,268.621,54.664,268.621,54.193z M268.837,56.515h1.183v7.375h-1.183V56.515z"/>
	<path d="M272.374,56.515h0.979l0.103,1.062h0.042c0.604-0.698,1.339-1.245,2.173-1.245c1.063,0,1.643,0.531,1.93,1.411
		c0.729-0.834,1.449-1.411,2.301-1.411c1.436,0,2.126,1.001,2.126,2.883v4.674h-1.177v-4.506c0-1.382-0.418-1.973-1.299-1.973
		c-0.548,0-1.105,0.38-1.757,1.139v5.342h-1.181v-4.507c0-1.381-0.417-1.973-1.307-1.973c-0.52,0-1.107,0.379-1.757,1.138v5.342
		h-1.181v-7.377L272.374,56.515L272.374,56.515z"/>
	<path d="M286.915,56.333c1.783,0,2.79,1.351,2.79,3.46c0,0.257-0.016,0.5-0.042,0.682h-4.718c0.084,1.593,0.991,2.595,2.328,2.595
		c0.664,0,1.225-0.228,1.741-0.577l0.417,0.819c-0.604,0.41-1.354,0.759-2.304,0.759c-1.867,0-3.353-1.441-3.353-3.854
		C283.778,57.804,285.317,56.333,286.915,56.333z M288.672,59.656c0-1.502-0.636-2.336-1.728-2.336c-0.979,0-1.871,0.85-2.015,2.336
		H288.672z"/>
	<path d="M291.43,56.515h0.979l0.099,1.062h0.046c0.661-0.698,1.383-1.245,2.344-1.245c1.467,0,2.131,1.001,2.131,2.883v4.674
		h-1.182v-4.506c0-1.382-0.401-1.973-1.322-1.973c-0.718,0-1.207,0.395-1.913,1.139v5.342h-1.179L291.43,56.515L291.43,56.515z"/>
	<path d="M192.999,71.808c0.921,0,1.567,0.41,2.042,0.88l-0.587,0.804c-0.418-0.379-0.853-0.652-1.411-0.652
		c-1.266,0-2.188,1.153-2.188,2.853c0,1.685,0.878,2.822,2.158,2.822c0.66,0,1.222-0.348,1.639-0.743l0.532,0.818
		c-0.632,0.592-1.438,0.957-2.271,0.957c-1.854,0-3.279-1.411-3.279-3.854C189.634,73.22,191.199,71.808,192.999,71.808z"/>
	<path d="M199.126,71.808c1.713,0,3.236,1.411,3.236,3.886c0,2.443-1.523,3.854-3.236,3.854c-1.71,0-3.233-1.412-3.233-3.854
		C195.889,73.22,197.416,71.808,199.126,71.808z M199.126,78.515c1.209,0,2.017-1.137,2.017-2.822c0-1.7-0.808-2.852-2.017-2.852
		c-1.192,0-2.013,1.154-2.013,2.852C197.113,77.377,197.932,78.515,199.126,78.515z"/>
	<path d="M204.204,71.99h0.979l0.1,1.062h0.042c0.664-0.698,1.384-1.245,2.346-1.245c1.469,0,2.131,1.002,2.131,2.884v4.673h-1.18
		v-4.506c0-1.382-0.4-1.973-1.325-1.973c-0.718,0-1.207,0.395-1.914,1.138v5.342h-1.178L204.204,71.99L204.204,71.99z"/>
	<path d="M212.271,73.007h-1.035v-0.941l1.094-0.076l0.144-2.063h0.993v2.063h1.885v1.018h-1.885v4.097
		c0,0.91,0.271,1.426,1.08,1.426c0.245,0,0.562-0.106,0.791-0.197l0.229,0.941c-0.39,0.137-0.862,0.273-1.295,0.273
		c-1.495,0-1.998-1.001-1.998-2.458v-4.082L212.271,73.007L212.271,73.007z"/>
	<path d="M220.63,74.691c0-0.941-0.304-1.852-1.438-1.852c-0.818,0-1.538,0.395-2.086,0.788l-0.476-0.865
		c0.646-0.44,1.623-0.957,2.748-0.957c1.711,0,2.432,1.2,2.432,3.035v4.522h-0.979l-0.102-0.879h-0.028
		c-0.675,0.577-1.451,1.062-2.314,1.062c-1.18,0-2.057-0.774-2.057-2.095C216.331,75.845,217.651,75.04,220.63,74.691z
		 M218.717,78.546c0.678,0,1.235-0.349,1.915-0.986v-2.048c-2.347,0.303-3.138,0.911-3.138,1.852
		C217.494,78.197,218.024,78.546,218.717,78.546z"/>
	<path d="M223.82,69.668c0-0.485,0.359-0.804,0.819-0.804c0.462,0,0.819,0.319,0.819,0.804c0,0.47-0.359,0.805-0.819,0.805
		C224.181,70.473,223.82,70.139,223.82,69.668z M224.037,71.99h1.179v7.375h-1.179V71.99z"/>
	<path d="M227.573,71.99h0.979l0.1,1.062h0.042c0.664-0.698,1.384-1.245,2.348-1.245c1.465,0,2.128,1.002,2.128,2.884v4.673h-1.179
		v-4.506c0-1.382-0.401-1.973-1.323-1.973c-0.721,0-1.209,0.395-1.916,1.138v5.342h-1.181L227.573,71.99L227.573,71.99z"/>
	<path d="M238.059,71.808c1.784,0,2.788,1.351,2.788,3.461c0,0.257-0.017,0.5-0.042,0.682h-4.721
		c0.088,1.593,0.993,2.596,2.33,2.596c0.666,0,1.228-0.228,1.74-0.577l0.417,0.819c-0.604,0.409-1.351,0.759-2.3,0.759
		c-1.871,0-3.354-1.441-3.354-3.854C234.925,73.279,236.464,71.808,238.059,71.808z M239.814,75.131
		c0-1.502-0.634-2.336-1.728-2.336c-0.979,0-1.869,0.85-2.012,2.336H239.814z"/>
	<path d="M242.574,71.99h0.979l0.101,1.336h0.044c0.475-0.926,1.192-1.518,1.986-1.518c0.302,0,0.517,0.046,0.747,0.152l-0.23,1.093
		c-0.229-0.076-0.391-0.121-0.677-0.121c-0.589,0-1.295,0.455-1.771,1.7v4.735h-1.181L242.574,71.99L242.574,71.99z"/>
</g>
<g>
	<path d="M218.373,114.127h-3.438l-0.907,3.035h-1.224l3.193-9.955h1.352l3.191,9.955h-1.277L218.373,114.127z M218.07,113.11
		l-0.446-1.517c-0.345-1.108-0.646-2.2-0.945-3.353h-0.06c-0.286,1.153-0.589,2.245-0.935,3.353l-0.445,1.517H218.07z"/>
	<path d="M221.765,106.357h1.182v2.944l-0.027,1.335c0.634-0.591,1.409-1.032,2.187-1.032c1.812,0,2.773,1.472,2.773,3.749
		c0,2.52-1.423,3.991-3.021,3.991c-0.646,0-1.381-0.334-1.996-0.91h-0.044l-0.101,0.728h-0.951v-10.805H221.765z M224.657,116.297
		c1.149,0,1.999-1.107,1.999-2.929c0-1.625-0.518-2.716-1.841-2.716c-0.59,0-1.209,0.349-1.87,1.002v3.87
		C223.564,116.084,224.196,116.297,224.657,116.297z"/>
	<path d="M229.559,115.493c0.604,0.516,1.227,0.879,2.06,0.879c0.922,0,1.383-0.516,1.383-1.153c0-0.759-0.835-1.093-1.598-1.396
		c-0.994-0.379-2.086-0.88-2.086-2.125c0-1.183,0.892-2.094,2.402-2.094c0.877,0,1.643,0.379,2.174,0.834l-0.562,0.788
		c-0.477-0.379-0.979-0.652-1.598-0.652c-0.878,0-1.28,0.5-1.28,1.062c0,0.698,0.764,0.956,1.555,1.274
		c1.008,0.395,2.131,0.834,2.131,2.231c0,1.199-0.905,2.201-2.562,2.201c-0.993,0-1.942-0.441-2.603-1.018L229.559,115.493z"/>
	<path d="M238.494,109.605c1.713,0,3.236,1.412,3.236,3.886c0,2.443-1.523,3.854-3.236,3.854c-1.712,0-3.233-1.411-3.233-3.854
		C235.259,111.017,236.78,109.605,238.494,109.605z M238.494,116.312c1.209,0,2.015-1.137,2.015-2.825
		c0-1.7-0.806-2.852-2.015-2.852c-1.195,0-2.014,1.153-2.014,2.852C236.478,115.175,237.299,116.312,238.494,116.312z"/>
	<path d="M243.569,109.787h0.979l0.1,1.336h0.044c0.475-0.926,1.195-1.518,1.986-1.518c0.302,0,0.516,0.045,0.747,0.152
		l-0.231,1.093c-0.229-0.076-0.388-0.121-0.674-0.121c-0.589,0-1.297,0.455-1.771,1.7v4.735h-1.178L243.569,109.787L243.569,109.787
		L243.569,109.787z"/>
	<path d="M248.559,106.357h1.181v2.944l-0.027,1.335c0.634-0.591,1.411-1.032,2.188-1.032c1.812,0,2.776,1.472,2.776,3.749
		c0,2.52-1.425,3.991-3.021,3.991c-0.646,0-1.381-0.334-1.999-0.91h-0.044l-0.1,0.728h-0.947L248.559,106.357L248.559,106.357z
		 M251.454,116.297c1.148,0,1.995-1.107,1.995-2.929c0-1.625-0.518-2.716-1.838-2.716c-0.592,0-1.209,0.349-1.871,1.002v3.87
		C250.358,116.084,250.994,116.297,251.454,116.297z"/>
	<path d="M259.162,109.605c1.781,0,2.79,1.351,2.79,3.46c0,0.258-0.018,0.5-0.042,0.682h-4.722c0.086,1.594,0.993,2.595,2.332,2.595
		c0.662,0,1.225-0.228,1.737-0.577l0.415,0.818c-0.604,0.409-1.349,0.759-2.298,0.759c-1.872,0-3.354-1.441-3.354-3.855
		C256.025,111.076,257.564,109.605,259.162,109.605z M260.917,112.928c0-1.502-0.632-2.336-1.726-2.336
		c-0.979,0-1.871,0.85-2.017,2.336H260.917z"/>
	<path d="M263.677,109.787h0.979l0.101,1.062h0.046c0.659-0.699,1.381-1.245,2.345-1.245c1.465,0,2.128,1.001,2.128,2.883v4.674
		h-1.179v-4.507c0-1.381-0.402-1.973-1.323-1.973c-0.72,0-1.209,0.395-1.915,1.138v5.342h-1.179L263.677,109.787L263.677,109.787z"
		/>
	<path d="M271.746,110.804h-1.037v-0.941l1.098-0.076l0.142-2.063h0.993v2.063h1.886v1.018h-1.886v4.097
		c0,0.91,0.271,1.425,1.079,1.425c0.246,0,0.562-0.105,0.794-0.197l0.229,0.941c-0.387,0.136-0.859,0.273-1.293,0.273
		c-1.499,0-1.999-1.002-1.999-2.459v-4.082h-0.003L271.746,110.804L271.746,110.804z"/>
	<path d="M215.122,135.989v2.489h-1.18v-10.486h0.978l0.104,0.85h0.042c0.633-0.561,1.41-1.032,2.229-1.032
		c1.797,0,2.763,1.472,2.763,3.763c0,2.504-1.426,3.976-3.021,3.976c-0.646,0-1.296-0.318-1.938-0.85L215.122,135.989z
		 M216.837,134.501c1.147,0,1.996-1.107,1.996-2.929c0-1.624-0.519-2.716-1.839-2.716c-0.59,0-1.182,0.35-1.87,1.002v3.87
		C215.756,134.29,216.373,134.501,216.837,134.501z"/>
	<path d="M225.679,130.693c0-0.941-0.304-1.852-1.438-1.852c-0.819,0-1.539,0.395-2.088,0.789l-0.474-0.865
		c0.646-0.44,1.625-0.956,2.748-0.956c1.713,0,2.433,1.199,2.433,3.035v4.522h-0.979l-0.1-0.88h-0.028
		c-0.676,0.577-1.453,1.062-2.314,1.062c-1.181,0-2.057-0.774-2.057-2.094C221.379,131.846,222.702,131.042,225.679,130.693z
		 M223.766,134.548c0.675,0,1.234-0.35,1.912-0.987v-2.048c-2.344,0.303-3.136,0.911-3.136,1.852
		C222.544,134.198,223.076,134.548,223.766,134.548z"/>
	<path d="M231.934,127.81c0.921,0,1.566,0.41,2.044,0.88l-0.592,0.804c-0.415-0.379-0.851-0.652-1.409-0.652
		c-1.267,0-2.188,1.154-2.188,2.853c0,1.686,0.877,2.823,2.158,2.823c0.66,0,1.223-0.349,1.639-0.744l0.533,0.819
		c-0.634,0.592-1.438,0.956-2.271,0.956c-1.856,0-3.28-1.411-3.28-3.854C228.568,129.221,230.138,127.81,231.934,127.81z"/>
	<path d="M235.645,124.563h1.165v7.314h0.042l2.977-3.885h1.311l-2.346,2.959l2.662,4.416h-1.295l-2.043-3.551l-1.31,1.609v1.942
		h-1.163V124.563L235.645,124.563z"/>
	<path d="M246.576,130.693c0-0.941-0.303-1.852-1.438-1.852c-0.819,0-1.539,0.395-2.086,0.789l-0.476-0.865
		c0.646-0.44,1.627-0.956,2.748-0.956c1.712,0,2.432,1.199,2.432,3.035v4.522h-0.979l-0.098-0.88h-0.028
		c-0.677,0.577-1.454,1.062-2.314,1.062c-1.181,0-2.058-0.774-2.058-2.094C242.276,131.846,243.598,131.042,246.576,130.693z
		 M244.665,134.548c0.676,0,1.234-0.35,1.915-0.987v-2.048c-2.348,0.303-3.137,0.911-3.137,1.852
		C243.439,134.198,243.972,134.548,244.665,134.548z"/>
	<path d="M250.473,135.108v-0.06c-0.348-0.228-0.619-0.623-0.619-1.199c0-0.622,0.399-1.107,0.765-1.366v-0.06
		c-0.463-0.395-0.908-1.108-0.908-1.988c0-1.608,1.21-2.625,2.635-2.625c0.39,0,0.733,0.075,0.991,0.182h2.432v0.956h-1.438
		c0.329,0.334,0.572,0.895,0.572,1.518c0,1.578-1.135,2.564-2.562,2.564c-0.344,0-0.731-0.091-1.048-0.258
		c-0.247,0.227-0.443,0.47-0.443,0.879c0,0.471,0.282,0.805,1.231,0.805h1.354c1.625,0,2.444,0.53,2.444,1.76
		c0,1.366-1.365,2.55-3.539,2.55c-1.713,0-2.893-0.713-2.893-1.988C249.451,136.156,249.842,135.564,250.473,135.108z
		 M252.514,137.901c1.339,0,2.216-0.728,2.216-1.502c0-0.683-0.504-0.911-1.409-0.911h-1.209c-0.272,0-0.604-0.03-0.904-0.121
		c-0.505,0.38-0.72,0.819-0.72,1.245C250.488,137.4,251.25,137.901,252.514,137.901z M253.823,130.435
		c0-1.077-0.66-1.714-1.479-1.714c-0.817,0-1.481,0.637-1.481,1.714s0.677,1.761,1.481,1.761
		C253.147,132.196,253.823,131.512,253.823,130.435z"/>
	<path d="M257.016,125.67c0-0.486,0.358-0.805,0.817-0.805c0.46,0,0.82,0.319,0.82,0.805c0,0.47-0.36,0.804-0.82,0.804
		C257.376,126.475,257.016,126.14,257.016,125.67z M257.232,127.992h1.181v7.375h-1.181V127.992z"/>
	<path d="M260.771,127.992h0.979l0.104,1.062h0.042c0.661-0.698,1.381-1.245,2.344-1.245c1.468,0,2.131,1.002,2.131,2.884v4.674
		h-1.18v-4.506c0-1.381-0.402-1.973-1.325-1.973c-0.719,0-1.209,0.395-1.911,1.139v5.342h-1.181L260.771,127.992L260.771,127.992z"
		/>
	<path d="M269.129,135.108v-0.06c-0.347-0.228-0.616-0.623-0.616-1.199c0-0.622,0.397-1.107,0.762-1.366v-0.06
		c-0.46-0.395-0.907-1.108-0.907-1.988c0-1.608,1.209-2.625,2.633-2.625c0.394,0,0.734,0.075,0.994,0.182h2.432v0.956h-1.438
		c0.332,0.334,0.575,0.895,0.575,1.518c0,1.578-1.139,2.564-2.562,2.564c-0.345,0-0.731-0.091-1.047-0.258
		c-0.246,0.227-0.448,0.47-0.448,0.879c0,0.471,0.29,0.805,1.239,0.805h1.353c1.625,0,2.444,0.53,2.444,1.76
		c0,1.366-1.362,2.55-3.541,2.55c-1.711,0-2.891-0.713-2.891-1.988C268.106,136.156,268.495,135.564,269.129,135.108z
		 M271.171,137.901c1.337,0,2.214-0.728,2.214-1.502c0-0.683-0.503-0.911-1.406-0.911h-1.209c-0.273,0-0.604-0.03-0.907-0.121
		c-0.502,0.38-0.72,0.819-0.72,1.245C269.141,137.4,269.903,137.901,271.171,137.901z M272.478,130.435
		c0-1.077-0.663-1.714-1.481-1.714c-0.815,0-1.479,0.637-1.479,1.714s0.677,1.761,1.479,1.761
		C271.804,132.196,272.478,131.512,272.478,130.435z"/>
</g>
<line fill="none" stroke="#000000" stroke-miterlimit="10" x1="152.734" y1="59.688" x2="185.014" y2="59.268"/>
<line fill="none" stroke="#000000" stroke-miterlimit="10" x1="170.929" y1="101.514" x2="210.844" y2="110.19"/>
<line fill="none" stroke="#000000" stroke-miterlimit="10" x1="170.929" y1="183.829" x2="247.759" y2="175.378"/>
<line fill="none" stroke="#000000" stroke-miterlimit="10" x1="210.844" y1="273.199" x2="273.413" y2="272.258"/>
<line fill="none" stroke="#000000" stroke-miterlimit="10" x1="199.584" y1="366.562" x2="251.939" y2="365.619"/>
<g>
	<path d="M256.155,243.84c-6.896-7.768-14.751-14.625-22.697-21.286c-3.992-3.347-7.999-6.681-12.036-9.974
		c-3.098-2.526-6.494-4.688-10.421-5.603c-3.416-0.795-6.966-0.177-10.317,0.607c-4.021,0.94-8.004,2.284-11.835,3.901
		c0.16-7.339-8.888-4.7-13.396-2.579c0.078-2.492,0.162-4.983,0.255-7.473c0.289-7.8,0.638-15.598,0.923-23.397
		c0.038-0.021,0.076-0.035,0.113-0.055c0.392-0.212,0.245-0.722-0.077-0.873c0.007-0.181,0.016-0.362,0.021-0.544
		c0.062-1.726,0.156-3.482,0.252-5.254c0.269-0.378,0.267-0.915,0.072-1.334c0.324-6.099,0.57-12.35-0.554-18.195
		c-0.068-0.355-0.53-0.322-0.597,0.015c-1.146,5.814-1.145,11.973-1.178,18.026c-4.817,1.66-9.334,3.784-14.403,4.893
		c-4.705,1.029-9.456,1.226-14.078,0.273c-0.051-0.356-0.098-0.714-0.15-1.071c-0.107-0.727-0.104-2.302-0.471-3.331
		c9.148,1.199,21.019,0.911,27.923-5.686c0.446-0.426-0.221-1.139-0.684-0.696c-7.007,6.695-19.587,6.572-28.541,5.197
		c-0.614-0.094-0.84,0.876-0.236,0.969c0.126,0.02,0.26,0.036,0.388,0.055c0.032,0.085,0.08,0.167,0.165,0.23
		c-0.143-0.106,0.117,0.921,0.16,1.152c0.18,0.974,0.32,1.957,0.462,2.938c-1.232-0.299-2.457-0.659-3.666-1.132
		c-0.269-0.105-0.357,0.319-0.22,0.476c1.19,1.353,2.627,2.279,4.197,2.908c0.113,0.836,0.229,1.672,0.345,2.509
		c-0.262,0.232-0.222,0.735,0.116,0.852c0.01,0.067,0.019,0.135,0.028,0.202c0.088,0.625,1.043,0.62,0.953-0.016
		c-0.009-0.061-0.017-0.123-0.025-0.184c9.231-0.338,18.788,2.198,27.52-1.325c-0.341,8.461-0.733,16.92-1.046,25.382
		c-0.177,4.787-0.309,9.573-0.393,14.361c-0.165-0.104-0.375-0.11-0.545,0.092c-3.806,4.539-11.143,3.693-16.376,3.016
		c-0.878-0.113-6.677-0.951-6.565-1.285c0.16-0.479,0.268-0.975,0.351-1.473c8.422,1.094,18.96,2.235,22.909-4.833
		c0.286-0.511-0.175-1.511-0.852-1.219c-2.265,0.979-4.043,2.609-6.452,3.413c-2.522,0.842-5.312,0.818-7.938,0.744
		c-2.537-0.071-5.044-0.378-7.554-0.57c-0.092-1.24-0.404-2.458-0.902-3.583c7.196,0.767,18.348,2.331,23.401-4.181
		c0.374-0.482-0.291-1.204-0.686-0.696c-4.907,6.323-16.07,4.577-22.998,3.849c-0.27-0.029-0.409,0.15-0.438,0.364
		c-0.254,0.098-0.456,0.407-0.295,0.728c0.562,1.119,0.84,2.28,0.916,3.454c-1.68-0.104-3.362-0.122-5.057,0.027
		c0.126-0.315,0.152-0.677,0.008-0.974c-2.976-6.091-2.498-12.4-2.01-18.979c0.519-6.987,0.628-14.124,0.453-21.126
		c-0.006-0.234-0.351-0.413-0.446-0.131c-2.386,7.059-1.503,15.053-2.067,22.408c-0.471,6.154-1.281,13.761,2.567,19.077
		c-0.509,0.407-0.386,1.435,0.397,1.466c1.707,0.069,3.78,0.336,6.036,0.632c-0.114,0.701-0.289,1.402-0.521,2.096
		c-0.077,0.231,0.093,0.569,0.345,0.609c7.138,1.15,18.694,4.413,24.304-1.96c-0.057,3.543-0.089,7.086-0.082,10.631
		c-0.097,0.276-0.09,0.599,0.006,0.888c0.019,4.243,0.13,8.486,0.306,12.728c0.129,3.103,0.218,5.979,1.229,8.857
		c-9.394,5.368-19.455,5.654-30.065,5.127c-3.804-0.188-7.615-0.173-11.406-0.562c-3.816-0.392-6.638-1.73-9.757-3.569
		c0.146-0.147,0.265-0.345,0.301-0.652c0.836-7.104-0.361-14.426-0.982-21.505c-0.817-9.313-1.563-18.635-1.8-27.983
		c-0.228-9.008,0.341-17.976,0.944-26.957c0.559-8.321,1.172-16.894-1.235-24.97c-0.123-0.414-0.653-0.304-0.636,0.118
		c0.724,16.863-1.326,33.535-1.127,50.382c0.1,8.443,0.734,16.875,1.419,25.288c-0.183-0.057-0.392-0.059-0.627,0.03
		c-14.54,5.493-29.19,10.141-43.192,16.964c-5.766,2.811-11.856,4.911-17.708,7.529c-4.049,1.812-8.645,3.892-11.993,7.032
		c-0.258-0.045-0.542,0.032-0.812,0.305c-11.147,11.222-14.707,27.625-20.066,41.979c-3.026,8.107-6.18,15.982-8.479,24.35
		c-2.596,9.44-4.629,19.025-7.167,28.481c-1.104,4.115-2.105,9.859,1.352,13.15c4.087,3.891,11.822-0.369,15.768-2.279
		c15.062-7.289,26.336-19.987,40.789-28.116c1.422,5.825,2.822,11.655,4.303,17.466c2.198,8.63,3.504,18.085,8.196,25.801
		c0.31,0.508,0.737,0.656,1.136,0.587c2.462,4.301,7.318,6.074,11.579,8.521c7.393,4.244,14.815,8.62,22.665,11.979
		c14.852,6.354,29.459-1.077,43.64-5.486c16.64-5.174,33.152-11.361,48.866-18.904c6.812-3.271,13.389-6.783,20.446-9.499
		c4.005-1.541,8.226-3.353,11.065-6.597c0.479,0.822,1.787,0.963,2.033-0.312c0.65-3.379,2.487-6.482,3.383-9.83
		c1.005-3.76,1.293-7.715,1.722-11.568c0.902-8.118,3.663-15.61,6.099-23.355c2.534-8.059,4.215-16.445,6.02-24.691
		c1.624-7.425,3.705-14.951,5.033-22.486c0.724-1.158,1.326-2.371,1.734-3.658C268.576,256.554,261.234,249.562,256.155,243.84z
		 M146.809,179.367c-0.093-0.67-0.186-1.341-0.276-2.011c3.802,1.18,8.25,0.803,12.069,0.215c5.103-0.787,11.258-2.203,16.053-4.782
		c-0.017,1.285-0.04,2.565-0.089,3.829c-0.018,0.45-0.039,0.9-0.057,1.351C165.783,181.722,156.052,179.009,146.809,179.367z
		 M142.504,260.497c12.094,0.489,23.225,0.646,33.931-5.814c0.564-0.34,0.654-1.003,0.458-1.552c0.004-0.192-0.027-0.39-0.112-0.584
		c-1.562-3.577-1.287-7.708-1.425-11.536c-0.11-3.09-0.16-6.182-0.19-9.273c10.825-2.655,21.729-6.854,31.853-11.46
		c7.92,7.221,15.352,14.979,23.932,21.442c7.178,5.407,16.384,12.074,17.052,21.863c0.009,0.123,0.032,0.235,0.062,0.342
		c-0.217,0.21-0.357,0.532-0.316,0.989c-0.055-0.607,0.087-0.362-0.379,0.083c-0.366,0.35-0.766,0.664-1.161,0.979
		c-1.117,0.889-2.31,1.686-3.493,2.482c-3.482,2.342-7.096,4.495-10.708,6.631c-4.558,2.695-9.152,5.403-13.837,7.912
		c0-0.049,0.015-0.087,0.01-0.139c-0.833-8.309-0.53-17.587-4.116-25.29c-0.326-0.7-0.88-0.726-1.31-0.427
		c-0.051-0.069-0.101-0.14-0.166-0.194c-2.695-2.253-7.324-0.992-10.537-1.493c-0.748-0.117-1.163,0.59-1.148,1.234
		c-9.836,5.014-19.438,10.534-29.445,15.195c-8.967,4.178-18.598,7.386-26.106,14.07c-0.723,0.644-0.23,2.177,0.55,2.062
		c-0.004,0.075-0.023,0.139-0.014,0.224c0.938,8.315,1.384,16.814,3.306,24.982c0.086,0.366,0.258,0.59,0.463,0.71
		c-0.452,0.134-0.901,0.273-1.357,0.4c-3.125,0.873-6.289,1.525-9.374,2.542c-0.934,0.308-1.87,0.637-2.812,0.961
		c0.095-0.18,0.163-0.385,0.159-0.646c-0.067-4.146-0.499-8.245-1.006-12.357c-0.416-3.382-0.512-7.099-1.599-10.37
		c0.277-0.251,0.571-0.484,0.892-0.706c0.728-0.505,1.466-0.719,1.741-1.645c0.102-0.342-0.064-0.881-0.405-1.043
		c-0.918-0.438-1.688,0.151-2.441,0.669c-0.338,0.232-0.647,0.509-0.94,0.804c-10.086-5.519-20.023-11.389-30.641-15.846
		c-0.2-0.084-0.266,0.257-0.121,0.356c9.4,6.501,19.465,11.956,29.464,17.474c-0.012,0.291,0.072,0.581,0.288,0.815
		c0.282,0.306,0.71,0.374,1.055,0.207c-0.373,3.066,0.256,6.319,0.593,9.337c0.46,4.111,0.872,8.219,0.906,12.359
		c0.005,0.561,0.281,0.906,0.631,1.07c-1.48,0.488-2.977,0.925-4.496,1.218c-0.136-0.29-0.38-0.521-0.748-0.605
		c-11.168-2.583-18.636-12.631-27.098-20.215c-0.417-3.296-1.303-6.571-1.811-9.857c-0.678-4.385-0.917-8.841-1.712-13.203
		c-0.029-0.161-0.091-0.271-0.163-0.36c0.668-0.553,1.327-1.11,2.046-1.61c0.496-0.345,1.02-0.649,1.523-0.981
		c0.592-0.388,1.086-0.95,1.663-1.345c5.132,3.011,10.819,5.21,16.041,8.112c5.424,3.013,10.763,6.17,16.36,8.855
		c0.457,0.22,0.864,0.127,1.164-0.116c0.595,8.896,2.207,17.978,4.046,26.687c0.327,1.552,2.226,0.715,1.988-0.688
		c-1.49-8.818-2.583-17.863-4.63-26.566c-0.119-0.504-0.535-0.648-0.889-0.54c0-0.4-0.177-0.786-0.604-0.989
		c-6.017-2.857-11.752-6.25-17.58-9.466c-4.854-2.679-10.387-6.087-15.975-6.785c-0.398-0.05-0.58,0.324-0.566,0.692
		c-0.427,0.056-0.873,0.068-1.29,0.181c-0.639,0.171-1.249,0.556-1.827,0.869c-1.209,0.654-2.42,1.456-3.317,2.507
		c-0.534,0.626-0.073,1.902,0.653,1.928c-0.315,4.389,0.375,8.863,0.974,13.204c0.321,2.322,0.611,4.771,1.136,7.128
		c-0.803-0.638-1.616-1.25-2.447-1.82c-4.847-3.325-10.097-5.906-14.825-9.465c-4.263-3.207-8.966-7.15-10.652-12.374
		c3.364,0.382,6.099-1.591,9.143-2.938c4.893-2.163,10.042-3.597,14.841-6.013c8.772-4.416,17.398-9.34,26.047-14.028
		c-0.047,0.955-0.122,1.905-0.234,2.849c-0.062,0.525,0.166,0.949,0.488,1.216C123.281,261.243,137.13,260.28,142.504,260.497z
		 M202.797,258.412c0.235-0.118,0.399-0.313,0.505-0.542c1.053,0.097,2.108,0.131,3.175,0.152c1.102,0.022,2.108,0.19,3.112,0.397
		c-9.939,3.464-19.032,10.053-28.097,15.15c-8.886,4.997-17.4,10.763-27.207,13.576c-0.115-0.505-0.818-0.698-0.918-0.062
		c-0.01,0.062-0.014,0.123-0.023,0.185c-1.786,0.313-3.571,0.688-5.252-0.269c-0.368-0.209-0.691,0.055-0.786,0.389
		c-0.094-0.067-0.191-0.121-0.296-0.154c7.3-6.059,16.475-9.213,25.024-13.073C182.521,269.427,192.511,263.563,202.797,258.412z
		 M153.12,289.548c-0.386,7.143,2.159,14.263,2.628,21.366c0.026,0.396,0.181,0.69,0.396,0.885
		c-1.737,0.635-3.493,1.229-5.274,1.779c0.205-0.266,0.331-0.617,0.263-1.029c-1.345-8.068-2.281-16.164-3.349-24.271
		C149.275,289.492,151.26,290.023,153.12,289.548z M154.606,289.442c3.703-0.311,7.399-2.274,10.554-3.918
		c4.771-2.485,9.232-5.517,14.006-7.998c11.158-5.799,21.491-12.947,33.301-17.437c0.091-0.034,0.17-0.082,0.242-0.135
		c2.926,7.494,1.205,15.665,3.481,23.27c0.082,0.274,0.237,0.461,0.42,0.591c-1.293,0.676-2.587,1.348-3.896,1.984
		c-14.429,7.012-29.039,13.688-43.562,20.505c-3.739,1.755-7.473,3.386-11.278,4.841c0.013-0.094,0.039-0.176,0.033-0.284
		C157.492,303.659,155.642,296.589,154.606,289.442z M121.735,246.963c-0.154,0.009-0.317,0.053-0.487,0.144
		c-8.049,4.32-16.248,8.354-24.134,12.973c-4.263,2.498-8.802,4.214-13.406,5.961c-3.562,1.351-8.435,5.02-12.328,4.469
		c-0.156-0.022-0.298-0.007-0.426,0.034c-0.388-0.316-1.079-0.146-1.177,0.467c-0.819,5.134,4.037,9.851,7.447,12.971
		c4.742,4.337,10.246,7.915,15.83,11.064c12.788,7.214,20.928,23.012,35.827,26.466c0.306,0.07,0.567,0.023,0.782-0.098
		c5.588,0.32,11.418-2.588,16.735-3.885c8.181-1.995,15.805-5.086,23.417-8.626c14.807-6.888,29.81-13.541,44.397-20.88
		c7.419-3.733,14.631-7.96,21.747-12.232c3.493-2.098,6.977-4.238,10.287-6.617c1.26-0.906,3.83-2.436,3.662-4.312
		c-0.008-0.083-0.04-0.142-0.057-0.216c0.301-0.207,0.506-0.58,0.47-1.119c-0.623-9.224-7.623-15.741-14.432-21.174
		c-4.7-3.75-9.455-7.326-13.909-11.384c-4.956-4.514-9.715-9.234-14.755-13.656c-0.452-0.397-1.096-0.512-1.509,0.037
		c-0.078,0.104-0.157,0.208-0.235,0.312c-0.135,0.179-0.2,0.385-0.234,0.595c-10.107,3.485-19.895,7.745-30.104,10.998
		c-0.003-0.476-0.012-0.951-0.013-1.427c-0.011-5.403,0.093-10.808,0.244-16.21c1.821-0.95,3.748-1.686,5.743-2.181
		c2.689-0.668,5.072-0.527,5.732,2.467c0.034,0.155,0.09,0.277,0.153,0.388c-0.647,0.292-1.291,0.591-1.928,0.896
		c-3.144,1.51-6.082,3.403-8.833,5.54c-1.097,0.852-0.12,3.315,1.168,2.318c7.604-5.881,17.423-9.835,26.904-11.414
		c9.151-1.525,15.572,4.975,22.071,10.346c7.526,6.222,15.018,12.473,22.001,19.307c3.409,3.337,6.61,6.871,9.672,10.528
		c3.135,3.744,7.055,8.033,6.005,13.186c-0.214-0.007-0.422,0.111-0.551,0.455c-0.437,1.156-0.824,2.336-1.192,3.525
		c-2.132,3.194-5.623,5.776-8.517,7.901c-4.051,2.976-8.493,5.414-12.854,7.896c-9.902,5.633-20.041,10.805-30.286,15.781
		c-17.691,8.595-35.592,18.027-54.669,23.162c-0.23-0.133-0.512-0.188-0.841-0.106c-9.958,2.476-19.838,6.576-30.272,4.657
		c-9.586-1.764-18.147-7.726-25.584-13.725c-8.095-6.53-15.427-14.12-22.774-21.46c-3.543-3.54-6.749-7.372-10.216-10.978
		c-3.086-3.207-6.801-6.613-7.643-11.181c1.461-1.245,2.764-2.688,4.153-4.007c2.151-2.043,4.482-3.893,6.866-5.652
		c5.138-3.793,10.779-6.574,16.736-8.812c6.045-2.271,12.106-4.484,18.055-7.003c5.316-2.251,10.171-6.234,16.051-6.938
		c0.18-0.021,0.335-0.082,0.467-0.171C121.374,239.877,121.716,243.441,121.735,246.963z M31.044,360.157
		c-4.161,2.502-12.718,7.977-17.745,5.529c-5.043-2.453,0.052-15.009,0.912-18.479c2.044-8.245,3.919-16.528,6.264-24.696
		c2.251-7.844,5.531-15.226,8.275-22.885c4.722-13.183,8.379-27.744,18.144-38.27c4.787-2.689,9.347-5.535,14.46-7.736
		c5.502-2.369,11.144-4.396,16.539-7.012c13.681-6.632,28.074-11.067,42.265-16.429c0.066-0.025,0.125-0.06,0.183-0.094
		c0.117,1.271,0.253,2.555,0.393,3.846c-0.084-0.013-0.173-0.017-0.27-0.005c-5.304,0.641-10.017,3.692-14.672,6.104
		c-6.339,3.285-13.328,5.48-20.001,7.982c-6.186,2.319-11.859,5.249-17.205,9.146c-4.003,2.919-8.969,6.718-11.483,11.275
		c-0.471-0.46-1.293-0.432-1.528,0.509c-0.03,0.123-0.055,0.246-0.084,0.369c-9.253,3.685-13.623,16.751-16.775,25.066
		c-5.758,15.189-11.717,30.195-15.987,45.898c-0.977,3.593-4.042,10.092-1.883,13.733c2.439,4.115,7.121,1.697,10.18-0.299
		c5.604-3.659,10.962-8.07,16.346-12.053c3.209-2.373,6.331-4.649,9.872-6.505c3.012-1.578,6.02-3.112,8.533-5.44
		c0.133-0.123,0.232-0.27,0.302-0.429c0.429,1.7,0.855,3.399,1.274,5.103C54.333,341.573,43.799,352.491,31.044,360.157z
		 M54.838,272.603c-2.666,17.218,5.574,34.967,9.862,51.291c0.291,1.109,0.566,2.221,0.851,3.331
		c-0.287-0.176-0.639-0.168-1.003,0.171c-4.102,3.814-9.569,5.543-14.075,8.785c-5.154,3.707-10.523,7.289-15.478,11.254
		c-1.92,1.537-12.035,10.227-12.414,3.789c-0.136-2.309,0.869-4.811,1.509-6.992c0.961-3.275,1.771-6.598,2.73-9.875
		c3.865-13.185,9.02-25.852,13.854-38.689C43.991,286.862,47.468,278.286,54.838,272.603z M257.649,287.644
		c-1.915,8.748-3.734,17.6-6.269,26.193c-2.302,7.806-5.316,15.256-6.373,23.378c-0.504,3.874-0.825,7.753-1.588,11.59
		c-0.547,2.753-1.785,5.241-2.73,7.829c-0.422-0.088-0.889,0.064-1.221,0.602c-3.001,4.845-9.046,6.68-14.085,8.593
		c-6.567,2.492-12.699,6.047-19.024,9.081c-14.048,6.738-28.786,12.092-43.548,17.024c-13.047,4.359-27.265,11.54-41.304,8.503
		c-7.864-1.701-15.347-6.598-22.304-10.484c-2.953-1.65-5.866-3.33-8.901-4.824c-2.862-1.409-5.759-3.109-7.612-5.749
		c-0.022-0.175-0.082-0.353-0.189-0.526c-4.576-7.457-5.853-16.793-7.992-25.164c-2.362-9.246-4.531-18.543-6.891-27.79
		c-4.519-17.716-13.354-36.286-10.459-54.884c0.023-0.014,0.048-0.027,0.07-0.042c0.7,3,2.565,5.445,4.617,7.823
		c3.585,4.153,7.384,8.226,11.182,12.184c7.703,8.027,15.726,15.978,24.244,23.143c7.882,6.63,16.865,12.544,27.046,14.788
		c9.971,2.198,21.136-1.249,30.63-4.449c10.101-1.828,19.687-6.151,28.963-10.393c10.491-4.797,20.948-9.693,31.311-14.764
		c10.235-5.008,20.278-10.356,30.164-16.022c4.738-2.716,10.902-6.068,15.361-10.466
		C259.582,277.747,258.712,282.787,257.649,287.644z"/>
	<path d="M129.824,389.385c1.84-4.864,1.134-11.284,0.677-15.864c-0.899-9.02-1.333-17.842-3.604-26.656
		c-0.028-0.107-0.147-0.047-0.135,0.047c1.137,8.022,0.709,16.227,1.555,24.291c0.373,3.561,0.707,7.104,0.623,10.688
		c-0.092,3.925-1.596,7.164-2.715,10.822c-0.203,0.666,0.572,1.136,1.057,0.67c0.752-0.723,1.349-1.562,1.842-2.473
		c0.074,0.462,0.208,0.912,0.38,1.353c0.288,0.737,0.605,1.552,1.363,1.912c0.446,0.212,0.959-0.11,0.909-0.635
		c-0.114-1.22-1.097-2.113-1.177-3.337C130.563,389.657,130.192,389.39,129.824,389.385z"/>
	<path d="M201.546,244.767c0.695-3.215,1.036-6.493,1.759-9.713c0.82-3.657,1.777-7.241,2.136-10.983
		c0.082-0.856-0.993-1.339-1.225-0.365c-1.571,6.616-4.631,14-4.126,20.867C200.157,245.481,201.332,245.753,201.546,244.767z"/>
	<path d="M102.513,147.622c7.004-1.59,13.301-7.223,18.441-11.879c5.614-5.086,11.582-11.283,14.528-18.385
		c2.547-6.14,3.061-18.519-5.28-17.675c-0.003-0.014,0-0.027-0.004-0.041c-1.634-5.896-3.148-10.641-0.04-15.998
		c1.424,3.067,3.34,5.857,5.132,7.827c0.23,0.252,0.599-0.061,0.487-0.349c-2.85-7.397-8.212-14.129-3.906-22.05
		c0.749,2.074,1.363,4.19,1.527,6.492c0.029,0.411,0.625,0.75,0.807,0.235c1.06-2.99,0.156-5.845-0.887-8.73
		c-1.359-3.761-2.726-7.264-3.412-11.217c-1.248-7.189-2.709-16.594,2.667-22.454c0.102-0.11,0.168-0.242,0.21-0.383
		c0.806,2.216,2.038,4.216,3.67,6.014c0.493,0.542,1.575,1.098,1.375,2.021c-0.274,1.265-0.479,2.544-0.676,3.822
		c-0.301,1.954-0.479,3.926-0.626,5.896c-0.673,9.058,0.225,18.172,0.935,27.199c0.696,8.868,1.323,17.744,1.835,26.624
		c0.257,4.469,0.457,8.941,0.608,13.414c0.148,4.405,0.839,9.508-0.543,13.757c-0.029,0.091-0.027,0.171-0.012,0.245
		c-0.837-0.163-1.664-0.431-2.438-0.679c-2.584-0.826-5.006-2.104-7.771-2.179c-0.826-0.022-0.723,1.186-0.133,1.454
		c3.709,1.686,13.07,7.224,16.146,2.039c0.198-0.334,0.079-0.859-0.224-1.124c0.264-0.644,0.424-1.307,0.518-1.989
		c1.598-2.019,5.203-1.831,7.478-1.688c2.466,0.155,5.251,0.693,7.405,1.997c0.543,1.641,1.457,3.09,2.928,4.151
		c0.359,0.259,0.679-0.09,0.678-0.447c0.051,0.088,0.088,0.187,0.145,0.271c0.358,0.534,1.179,0.006,0.826-0.519
		c-1.013-1.508-0.79-4.125-0.886-5.891c-0.104-1.912-0.097-3.829-0.067-5.743c0.062-4.174,0.411-8.343,0.754-12.502
		c0.651-7.905,1.137-15.689,0.594-23.615c-0.267-3.879-0.4-7.72,0.156-11.582c0.537-3.737,1.011-7.441,1.25-11.213
		c0.232-3.663,0.357-7.367,0.212-11.036c-0.15-3.8-0.991-7.646-0.331-11.422c0.014,5.496,0.843,11.033,0.725,16.527
		c-0.194,8.995-1.397,17.934-1.642,26.928c-0.241,8.888,1.003,17.646,0.403,26.556c-0.262,3.9-0.623,7.668-0.459,11.583
		c0.162,3.853,0.471,7.786-0.591,11.543c-0.173,0.614,0.763,0.871,0.938,0.251c0.935-3.314,0.825-6.756,0.687-10.165
		c-0.156-3.85-0.087-7.542,0.244-11.38c0.378-4.374,0.518-8.764,0.387-13.152c-0.143-4.781-0.717-9.503-0.67-14.297
		c0.089-8.989,1.299-17.929,1.626-26.909c0.253-6.961-1.11-13.965-0.603-20.896c0.01-0.127-0.027-0.221-0.082-0.297
		c0.303-1.155,0.482-2.316,0.195-3.568c-0.253-1.104-0.813-2.109-1.514-3.015c-0.061-0.349-0.176-0.682-0.42-0.941
		c-0.183-0.192-0.403-0.26-0.632-0.257c-0.372-0.377-0.758-0.734-1.144-1.066c-3.29-2.836-7.904-4.661-12.218-5.014
		c-4.497-0.369-9.26,0.996-12.387,4.358c-3.416,3.672-2.093,8.475,0.021,12.396c1.735,3.217,2.004,6.593,1.833,10.193
		c-0.188,3.964-0.56,7.905-0.655,11.878c-0.188,7.806,0.137,15.619,0.418,23.418c0.562,15.549-0.124,31.306,1.819,46.771
		c-0.425,0.14-0.853,0.282-1.341,0.36c-0.429,0.068-0.864,0.071-1.3,0.035c0.023-0.037,0.05-0.07,0.065-0.118
		c0.965-2.972,0.732-6.137,0.685-9.217c-0.06-3.851-0.207-7.699-0.381-11.546c-0.345-7.597-0.862-15.186-1.406-22.771
		c-1.141-15.911-3.657-32.349-0.239-48.133c0.034-0.158,0.005-0.374-0.13-0.484c-3.095-2.536-5.109-5.849-5.875-9.781
		c-0.024-0.126-0.085-0.206-0.156-0.263c2.426-5.697,10.655-8.304,16.227-8.792c7.791-0.684,15.49,2.602,20.51,8.527
		c8.556,10.099,6.005,26.197,1.12,37.368c-0.283-0.56-1.073-0.37-1.055,0.314c0.154,6.012,3.718,11.239,5.272,16.924
		c1.69,6.18,1.629,12.826,1.446,19.186c-0.262,9.157-1.112,22.37-9.432,28.085c-1.217,0.836-0.135,3.155,1.227,2.247
		c0.608-0.406,1.169-0.857,1.706-1.331c-0.049,0.576,0.186,1.21,0.76,1.435c5.886,2.298,1.925,7.199-1.58,9.696
		c-4.76,3.391-11.952,4.142-17.53,5.136c-10.507,1.873-22.555,0.194-30.755-6.98c1.549-4.082,5.909-5.591,8.738-8.714
		c0.645-0.711-0.131-2.155-1.068-1.557c-2.752,1.755-8.943,5.767-8.777,9.839c-0.096,0.03-0.187,0.078-0.269,0.14
		c-0.082,0.021-0.163,0.054-0.241,0.116c-1.485,1.171-1.446,4.078-1.428,5.785c0.013,1.248,1.624,1.184,1.662-0.041
		c0.03-0.944,0.138-1.86,0.357-2.779c0.062-0.263,0.146-0.513,0.23-0.76c0.204,0.181,0.409,0.36,0.617,0.534
		c-0.207,0.174-0.294,0.491-0.036,0.717c9.776,8.553,22.687,10.097,35.175,8.641c0.618-0.072,0.606-1.073-0.016-1
		c-9.531,1.111-19.354,0.481-27.765-3.826c10.131,4.375,22.168,3.177,32.977,0.569c5.273-1.272,11.076-3.409,13.91-8.409
		c0.04-0.07,0.069-0.139,0.107-0.209c0.207,1.098,0.379,2.2,0.496,3.314c0.117,1.107,0.016,2.236,0.51,3.254
		c-0.11,0.032-0.222,0.077-0.338,0.152c-8.219,5.354-18.15,8.288-27.867,9.151c-5.058,0.45-10.183,0.108-15.081-1.25
		c-2.379-0.66-4.625-1.688-6.726-2.976c-2.183-1.336-3.703-3.335-5.695-4.862c-0.777-0.596-1.198,0.654-0.979,1.211
		c0.034,0.406,0.068,0.812,0.103,1.218c-0.022,0.256,0.303,0.271,0.373,0.05c0.032-0.059,0.065-0.118,0.098-0.178
		c4.742,8.149,17.821,9.767,26.09,9.5c10.717-0.346,21.919-3.681,30.906-9.557c0.765-0.5,0.642-1.622,0.106-2.18
		c0.084-0.064,0.163-0.142,0.216-0.25c0.581-1.187,0.292-2.568,0.133-3.831c-0.179-1.421-0.507-2.809-0.964-4.165
		c-0.123-0.365-0.342-0.542-0.576-0.602c0.858-3.304-0.796-6.107-4.605-7.354c-0.056-0.018-0.106-0.024-0.159-0.034
		c5.855-6.205,6.959-16.604,7.484-24.589c0.394-5.98,0.462-12.179-0.425-18.109c-1.039-6.955-4.225-12.926-6.549-19.42
		c0.393,0.081,0.803-0.084,1.051-0.651c5.878-13.415,7.923-31.64-3.366-42.898c-6.033-6.018-15.634-8.505-23.89-6.577
		c-5.194,1.213-15.936,5.976-14.412,12.931c-4.741,4.7-4.41,12.701-3.729,18.823c0.396,3.561,0.938,7.25,1.976,10.684
		c0.641,2.121,1.49,4.128,2.274,6.15c-0.251-0.075-0.532-0.03-0.783,0.241c-3.321,3.594-3.063,8.689-1.347,13.457
		c-4.824,3.36-3.939,13.687-0.878,18.308c-6.229-1.084-13.504,2.925-18.411,6.098c-6.281,4.061-11.938,9.724-15.542,16.292
		c-3.14,5.723-5.831,13.084-3.996,19.622C91.941,147.215,97.453,148.771,102.513,147.622z M151.734,126.783
		c-1.996-0.074-4.486,0.113-6.179,1.351c0.008-0.331,0.011-0.664,0.002-1.004c-0.078-3.169-0.222-5.967,0.249-9.14
		c0.9-6.054,0.254-12.025,0.166-18.11c-0.098-6.775-0.354-13.445-0.92-20.197c-0.538-6.403-0.813-12.917-0.33-19.333
		c0.383-5.094,1.05-10.193,0.543-15.304c-0.174-1.757-0.519-3.485-1.534-4.953c-1.348-1.948-3.586-3.042-4.345-5.409
		c-1.109-3.458,2.933-6.35,5.614-7.438c1.778-0.723,3.78-0.797,5.673-0.796c3.659,0.002,9.575,0.628,11.417,4.364
		c0.169,0.343,0.512,0.289,0.711,0.077c1.556,2.615,0.082,5.189-0.43,7.873c-0.438,2.297,0.262,4.886,0.547,7.163
		c0.663,5.299,0.237,10.882-0.036,16.197c-0.284,5.516-0.699,11.02-1.11,16.526c-0.22,2.939-0.237,5.924-0.59,8.848
		c-0.304,2.524-0.911,4.941-0.799,7.502c0.096,2.172,0.993,4.313,1.535,6.397c0.519,1.994,0.473,3.881,0.203,5.886
		c-0.478,3.546-1.271,7.045-1.805,10.583c-0.468,3.104-1.062,7.163-0.34,10.639C157.472,127.258,154.463,126.883,151.734,126.783z
		 M142.701,25.669c4.858-3.028,10.956-2.267,15.949-0.088c2.028,0.885,3.912,2.104,5.516,3.627c-0.35,0.364,0.075,1.088,0.574,0.773
		c0.044-0.028,0.086-0.055,0.127-0.081c0.072,0.078,0.156,0.145,0.227,0.224c0.094,0.104,0.173,0.209,0.258,0.314
		c0.007,0.161,0.004,0.321,0.005,0.457c0.004,0.389,0.352,0.532,0.624,0.444c1.463,2.521,0.613,5.044-0.178,7.966
		c-0.851,3.143-0.321,6.487-0.034,9.673c0.358,3.972,0.26,7.95,0.087,11.93c-0.267,6.179-1.661,12.262-1.762,18.43
		c-0.101,6.121,0.726,12.184,0.478,18.322c-0.259,6.417-1.005,12.804-1.388,19.213c-0.19,3.194-0.252,6.393-0.161,9.592
		c0.055,1.95-0.167,4.682,0.673,6.624c-1.169-0.857-1.941-2.02-2.446-3.358c0.074-0.209,0.043-0.463-0.186-0.612
		c-0.017-0.01-0.034-0.018-0.051-0.029c-1.454-4.845,0.302-11.688,1.038-15.742c0.506-2.792,1.126-5.604,1.249-8.447
		c0.091-2.107-0.546-4.175-1.129-6.172c-0.866-2.968-0.946-5.554-0.448-8.608c0.818-5.016,0.895-10.138,1.284-15.205
		c0.418-5.437,0.766-10.88,0.986-16.329c0.22-5.416,0.12-10.758-0.6-16.128c-0.363-2.708,0.338-4.904,0.934-7.487
		c0.387-1.678,0.135-3.225-0.763-4.676c-0.19-0.308-0.517-0.268-0.714-0.086c-1.655-3.218-5.893-4.129-9.161-4.556
		c-3.747-0.489-7.585-0.278-10.936,1.577c-2.81,1.556-4.781,4.538-4.224,7.485c-0.131-0.473-0.241-0.957-0.293-1.474
		C137.905,29.95,140.075,27.306,142.701,25.669z M141.568,62.478c0.054-3.731,0.213-7.462,0.551-11.179
		c0.303-3.33,0.275-6.606-0.684-9.828c-0.551-1.851-1.562-3.402-2.311-5.095c0.141,0.254,0.297,0.506,0.482,0.755
		c1.439,1.929,3.562,3.028,4.265,5.482c0.831,2.903,0.688,6.131,0.564,9.116c-0.255,6.171-0.966,12.228-0.849,18.424
		c0.139,7.37,1.172,14.673,1.341,22.039c0.081,3.53,0.062,7.062,0.143,10.592c0.084,3.677,0.497,7.326,0.262,11.005
		c-0.188,2.965-1.016,5.888-1.026,8.856c-0.008,2.172,0.467,4.408,0.217,6.526c-0.034,0.049-0.079,0.086-0.111,0.137
		c-0.12,0.188-0.09,0.371,0.012,0.507c-0.089,0.449-0.213,0.892-0.391,1.326c-0.089-0.044-0.184-0.066-0.278-0.06
		c-1.807-14.952-1.184-30.161-1.714-45.187C141.765,78.091,141.457,70.289,141.568,62.478z M132.298,31.468
		c-0.003-0.002-0.006-0.004-0.009-0.006c0.001-0.005,0.002-0.01,0.004-0.016C132.294,31.454,132.296,31.461,132.298,31.468z
		 M98.588,119.601c3.645-4.918,8.362-9.009,13.477-12.33c2.891-1.877,6.021-3.317,9.288-4.395c1.771-0.584,3.602-0.839,5.423-1.143
		c0.092,0.682,0.594,1.292,1.373,1.057c11.119-3.359,6.104,12.766,3.079,17.53c-3.571,5.627-8.377,10.502-13.353,14.885
		c-4.258,3.749-8.928,7.293-14.257,9.353c-2.872,1.11-5.502,1.058-7.532,0.045c2.038,0.209,4.944-0.816,6.816-1.53
		c4.141-1.578,7.582-4.492,10.774-7.479c6.424-6.01,14.298-11.396,18.063-19.628c0.256-0.56-0.553-1.081-0.822-0.491
		c-3.504,7.662-10.757,12.974-16.869,18.46c-3.167,2.843-6.194,5.624-10.025,7.563c-1.953,0.99-5.531,2.293-7.84,2.108
		c-0.278-0.103-0.66,0.051-0.664,0.456c0,0.015,0,0.03,0,0.045c-0.001,0.071,0.013,0.135,0.037,0.191
		c-1.162-0.718-2.098-1.773-2.713-3.145c9.438,2.274,18.203-8.29,24.622-13.644c4.046-3.374,7.918-7.013,11.008-11.3
		c2.297-3.188,4.903-8.272,3.101-12.202c-0.479-1.043-1.569-0.275-1.623,0.566c-0.322,4.995-1.653,8.304-4.854,12.267
		c-2.886,3.572-6.426,6.599-9.946,9.523c-6.041,5.018-14.079,14.926-22.957,12.648c-0.137-0.749-0.203-1.554-0.187-2.415
		C92.117,130.83,95.194,124.181,98.588,119.601z"/>
	<path d="M154.568,188.962c-0.014-0.024-0.027-0.048-0.041-0.073c-0.204-0.357-0.793-0.294-0.868,0.133
		c-0.12,0.689,0.124,1.171,0.43,1.791c0.137,0.279,0.55,0.317,0.748,0.089c0.876-1.005,1.184-1.813,2.541-1.89
		c1.369-0.078,1.424-0.184,2.378,1.134c0.21,0.29,0.632,0.337,0.821-0.013c0.372-0.689,0.927-1.145,1.438-1.67
		c0.132,0.34,0.264,0.681,0.406,1.018c0.115,0.271,0.574,0.33,0.748,0.089c0.447-0.621,1-1.11,1.562-1.609
		c0.323,0.46,0.677,0.855,1.1,1.287c0.208,0.213,0.618,0.178,0.745-0.113c0.273-0.628,0.624-1.19,0.979-1.758
		c0.406,0.472,0.834,0.924,1.199,1.438c0.174,0.245,0.524,0.345,0.748,0.089c0.774-1.201,1.995-1.308,3.661-0.322
		c0.448,0.462,1.089-0.277,0.66-0.718c-1.681-1.731-3.128-1.567-4.644-0.03c-0.429-0.51-0.891-0.987-1.28-1.537
		c-0.215-0.304-0.621-0.321-0.821,0.014c-0.354,0.592-0.709,1.159-1.027,1.756c-0.308-0.339-0.59-0.699-0.818-1.103
		c-0.17-0.286-0.516-0.302-0.748-0.089c-0.52,0.475-1.051,0.911-1.52,1.418c-0.13-0.333-0.258-0.667-0.398-0.997
		c-0.117-0.275-0.57-0.325-0.748-0.089c-0.524,0.694-1.176,1.206-1.692,1.873c-0.304-0.369-0.615-0.733-0.894-1.117
		c-0.124-0.171-0.319-0.297-0.541-0.221c-0.82,0.284-1.679,0.308-2.539,0.313c-0.496,0.003-1.061,0.798-1.501,1.45
		c-0.015-0.047-0.029-0.093-0.044-0.14C154.652,189.243,154.649,189.103,154.568,188.962z"/>
	<path d="M159.412,197.309c-0.005,0.007-0.012,0.017-0.017,0.024c-0.052-0.125-0.102-0.25-0.159-0.371
		c-0.22-0.458-0.754-0.219-0.849,0.174c-0.167-0.111-0.386-0.127-0.568,0.07c-0.243,0.262-0.438,0.562-0.613,0.874
		c-0.145-0.437-0.233-0.883-0.233-1.384c0-0.642-0.955-0.625-0.955,0.015c0,0.395,0,0.79,0,1.184c0,0.22,0.115,0.356,0.262,0.423
		c0.124,0.39,0.28,0.773,0.475,1.162c0.165,0.33,0.665,0.305,0.824-0.014c0.268-0.535,0.517-1.122,0.927-1.564
		c0.026-0.028,0.036-0.06,0.055-0.09c0.105,0.266,0.222,0.532,0.473,0.679c0.529,0.307,0.963-0.33,1.212-0.691
		C160.601,197.285,159.775,196.782,159.412,197.309z"/>
	<path d="M161.017,196.896c0,0.513-0.069,1.25,0.308,1.663c0.487,0.534,1.115,0.057,1.513-0.323
		c0.448-0.427-0.222-1.139-0.686-0.696c-0.049,0.047-0.101,0.1-0.155,0.147c-0.044-0.26-0.024-0.547-0.024-0.807
		C161.972,196.238,161.016,196.255,161.017,196.896z"/>
	<path d="M164.172,198.236c0.271-0.306,0.399-0.698,0.667-1c0.408-0.462-0.261-1.179-0.688-0.696
		c-0.097,0.109-0.165,0.235-0.238,0.357c-0.001-0.002-0.001-0.005-0.002-0.007c-0.09-0.32-0.202-0.625-0.341-0.928
		c-0.271-0.587-1.074-0.043-0.816,0.519c0.272,0.59,0.309,1.257,0.742,1.766C163.666,198.446,164.005,198.424,164.172,198.236z"/>
	<path d="M165.972,195.88c-0.022-0.64-0.978-0.626-0.955,0.016c0.037,1.065,0.672,2.099,1.818,2.159c0.618,0.032,0.6-0.968-0.016-1
		C166.23,197.023,165.99,196.381,165.972,195.88z"/>
	<path d="M168.018,195.229c0,0.456-0.07,1.18,0.307,1.528c0.444,0.41,0.974,0.175,1.418-0.108c0.518-0.329,0.042-1.197-0.496-0.855
		c-0.083,0.052-0.166,0.096-0.252,0.137c-0.043-0.229-0.022-0.489-0.023-0.717C168.971,194.572,168.017,194.588,168.018,195.229z"/>
	<path d="M173.027,195.741c-0.945,0.221-1.57,0.027-2.124-0.779c-0.363-0.53-1.171,0.001-0.816,0.519
		c0.331,0.483,0.71,0.935,1.258,1.176c0.627,0.276,1.304,0.196,1.952,0.044C173.894,196.562,173.636,195.599,173.027,195.741z"/>
	<path d="M158.575,42.815c0.153-0.072,0.227-0.279,0.228-0.436c0.033-3.622,0.443-7.293-0.685-10.8
		c-0.027-0.085-0.071-0.149-0.121-0.201c0.152-0.371,0.093-0.792-0.326-1.267c-1.857-2.108-5.17-2.168-7.734-1.871
		c-1.921,0.223-4.514,0.962-5.124,3.002c-0.231,0.011-0.459,0.173-0.458,0.485c0,2.761-0.165,5.575,0.021,8.329
		c0.055,0.812,0.437,1.392,0.965,1.854c-0.102,0.112-0.166,0.263-0.133,0.449c0.967,5.399,1.235,10.843,1.371,16.317
		c0.117,4.761-0.414,9.517-0.227,14.262c0.044,1.099,0.159,2.173,0.497,3.097c-0.058,0.065-0.091,0.143-0.11,0.225
		c-0.198,0.046-0.375,0.198-0.386,0.467c-0.181,4.568,0.229,9.112,0.552,13.664c-0.086,0.103-0.164,0.212-0.251,0.314
		c-0.295,0.344-0.009,0.824,0.33,0.855c0.012,0.183,0.025,0.365,0.037,0.548c0.119,1.878,0.137,3.754,0.126,5.631
		c-0.132,0.075-0.26,0.153-0.398,0.22c-0.518,0.248-0.126,1.015,0.396,0.88c-0.028,2.065-0.083,4.131-0.121,6.199
		c0.001,0.014-0.002,0.027-0.001,0.041c-0.008,0.434-0.02,0.866-0.024,1.3c-0.058,5.155-0.396,16.056,6.245,17.572
		c0.147,0.237,0.496,0.342,0.736,0.125c0.154,0.018,0.308,0.038,0.47,0.047c2.693,0.142,3.815-2.528,4.141-4.713
		c0.552-3.706,0.067-7.856-0.059-11.575c-0.346-10.166-0.407-20.255-0.392-30.422c0.801-5.599,0.434-11.298,0.514-16.936
		c0.083-5.812-1.228-11.536-0.851-17.361C158.062,43.019,158.334,42.929,158.575,42.815z M154.878,29.504
		c0.665,0.197,1.339,0.606,1.874,1.03c0.907,0.718-1.056,1.36-1.301,1.443c-0.969,0.332-1.991,0.39-3.005,0.431
		c-1.839,0.075-5.119,0.812-6.62-0.547c-0.048-0.043-0.098-0.067-0.147-0.088C146.36,28.591,152.559,28.817,154.878,29.504z
		 M145.291,32.678c2.014,1.646,6.006,0.866,8.36,0.67c0.64-0.053,2.545-0.453,3.637-1.192c0.755,2.553,0.7,5.178,0.619,7.821
		c-0.052,1.687-0.24,2.289-1.96,2.67c-1.299,0.289-2.68,0.263-4.001,0.214c-2.153-0.079-6.468-0.484-6.654-3.267
		C145.139,37.313,145.258,34.977,145.291,32.678z M157.185,76.729c0,0.047-0.001,0.093-0.001,0.14
		c-0.087-0.004-0.178,0.015-0.272,0.092c-1.568,1.272-3.023,1.275-4.895,1.005c-1.18-0.17-3.124-0.331-3.91-1.364
		c-0.015-0.019-0.023-0.043-0.037-0.062c2.907-1.205,6.694-2.337,9.135,0.092C157.198,76.664,157.185,76.691,157.185,76.729z
		 M156.077,122.626c-0.492,0.393-1.016,0.564-1.544,0.585c0.609-1.025,1.206-2.057,1.973-2.976c0.395-0.473-0.275-1.191-0.688-0.696
		c-0.909,1.09-1.6,2.321-2.33,3.531c-0.866-0.265-1.696-0.852-2.376-1.501c1.136-2.319,2.973-4.228,4.298-6.436
		c0.322-0.537-0.498-1.043-0.83-0.491c-1.277,2.124-3.023,3.976-4.167,6.181c-0.118-0.142-0.23-0.283-0.329-0.418
		c-0.578-0.795-0.936-1.775-1.185-2.795c2.455-3.082,4.273-6.621,6.938-9.541c0.414-0.455-0.251-1.172-0.686-0.696
		c-2.508,2.749-4.266,6.041-6.508,8.987c-0.125-0.73-0.218-1.454-0.311-2.12c-0.127-0.914-0.214-1.833-0.275-2.754
		c0.038-0.023,0.077-0.043,0.113-0.083c2.756-3.019,4.574-6.778,7.665-9.5c0.463-0.407-0.205-1.118-0.684-0.696
		c-2.9,2.552-4.687,6.005-7.167,8.915c-0.063-1.613-0.059-3.231-0.026-4.847c2.809-2.947,5.757-5.777,8.21-9.039
		c0.365-0.486-0.298-1.209-0.684-0.696c-2.246,2.986-4.904,5.612-7.492,8.295c0.017-0.624,0.034-1.247,0.051-1.868
		c0.032-1.207,0.028-2.412,0.008-3.617c3.15-2.069,4.393-6.42,6.617-9.281c0.373-0.48-0.289-1.204-0.684-0.696
		c-2.047,2.632-3.268,6.651-5.967,8.788c-0.059-2.085-0.166-4.167-0.291-6.249c2.139-2.591,3.92-5.455,6.107-8.009
		c0.397-0.464-0.263-1.185-0.682-0.696c-1.98,2.312-3.633,4.872-5.512,7.26c-0.101-1.664-0.192-3.328-0.266-4.992
		c0.072-0.037,0.141-0.089,0.196-0.175c0.861-1.339,1.973-2.493,2.835-3.833c0.337-0.524-0.479-1.032-0.826-0.491
		c-0.684,1.064-1.521,2.015-2.271,3.032c-0.068-2.011-0.083-4.024-0.011-6.038c0.439,0.657,1.081,1.17,2.029,1.457
		c2.686,0.81,5.57,1.216,7.85-0.456c-0.037,7.76-0.242,15.495,0.104,23.256c0.184,4.111,0.381,8.219,0.396,12.335
		C157.691,116.325,158.551,120.655,156.077,122.626z M157.417,75.492c-2.752-2.229-6.694-1.124-9.785,0.158
		c-0.466-1.364-0.354-3.169-0.36-4.442c-0.01-2.015,0.214-4.033,0.324-6.044c0.278-5.117,0.123-10.458-0.426-15.686
		c2.926,1.189,7.033,0.532,9.703-0.898c0.209,3.668,0.699,7.327,0.815,11.005C157.853,64.788,157.996,70.271,157.417,75.492z
		 M156.82,47.566c-0.076,0-0.156,0.013-0.239,0.06c-2.527,1.426-6.849,2.124-9.533,0.725c-0.229-1.974-0.517-3.927-0.86-5.841
		c0.188,0.109,0.379,0.214,0.575,0.313c2.754,1.397,6.88,1.513,10.076,0.611C156.761,44.815,156.764,46.192,156.82,47.566z"/>
</g>
</svg>
