<?xml version="1.0" encoding="utf-8"?>
<!-- Generator: Adobe Illustrator 15.0.0, SVG Export Plug-In . SVG Version: 6.00 Build 0)  -->
<!DOCTYPE svg PUBLIC "-//W3C//DTD SVG 1.1//EN" "http://www.w3.org/Graphics/SVG/1.1/DTD/svg11.dtd">
<svg version="1.1" id="Layer_1" xmlns="http://www.w3.org/2000/svg" xmlns:xlink="http://www.w3.org/1999/xlink" x="0px" y="0px"
	 width="333.071px" height="118.766px" viewBox="0 0 333.071 118.766" enable-background="new 0 0 333.071 118.766"
	 xml:space="preserve">
<g>
	<defs>
		<rect id="SVGID_1_" width="333.071" height="118.766"/>
	</defs>
	<clipPath id="SVGID_2_">
		<use xlink:href="#SVGID_1_"  overflow="visible"/>
	</clipPath>
	<path clip-path="url(#SVGID_2_)" fill="#FFFFFF" d="M145.521,0.25c0,0-8,0-8,8v2.339c0,0,0,8,8,8h56.201c0,0,8,0,8-8V8.25
		c0,0,0-8-8-8H145.521z"/>
</g>
<text transform="matrix(1 0 0 1 149.8975 12.4189)"><tspan x="0" y="0" font-family="'MyriadPro-SemiboldIt'" font-size="8">H</tspan><tspan x="5.184" y="0" font-family="'MyriadPro-SemiboldIt'" font-size="8">a</tspan><tspan x="9.528" y="0" font-family="'MyriadPro-SemiboldIt'" font-size="8">nd </tspan><tspan x="19.743" y="0" font-family="'MyriadPro-SemiboldIt'" font-size="8">h</tspan><tspan x="24.079" y="0" font-family="'MyriadPro-SemiboldIt'" font-size="8">y</tspan><tspan x="27.704" y="0" font-family="'MyriadPro-SemiboldIt'" font-size="8">giene</tspan></text>
<g>
	<defs>
		<rect id="SVGID_3_" width="333.071" height="118.766"/>
	</defs>
	<clipPath id="SVGID_4_">
		<use xlink:href="#SVGID_3_"  overflow="visible"/>
	</clipPath>
	<path clip-path="url(#SVGID_4_)" fill="none" stroke="#000000" stroke-width="0.5" d="M145.521,0.25c0,0-8,0-8,8v2.339c0,0,0,8,8,8
		h56.201c0,0,8,0,8-8V8.25c0,0,0-8-8-8H145.521z"/>
	<path clip-path="url(#SVGID_4_)" fill="#FFFFFF" d="M252.612,0.25c0,0-8,0-8,8v2.339c0,0,0,8,8,8h56.201c0,0,8,0,8-8V8.25
		c0,0,0-8-8-8H252.612z"/>
</g>
<text transform="matrix(1 0 0 1 249.0352 12.4189)"><tspan x="0" y="0" font-family="'MyriadPro-SemiboldIt'" font-size="8">P</tspan><tspan x="4.231" y="0" font-family="'MyriadPro-SemiboldIt'" font-size="8">r</tspan><tspan x="6.983" y="0" font-family="'MyriadPro-SemiboldIt'" font-size="8">o</tspan><tspan x="11.327" y="0" font-family="'MyriadPro-SemiboldIt'" font-size="8">t</tspan><tspan x="13.951" y="0" font-family="'MyriadPro-SemiboldIt'" font-size="8">e</tspan><tspan x="17.807" y="0" font-family="'MyriadPro-SemiboldIt'" font-size="8">c</tspan><tspan x="21.318" y="0" font-family="'MyriadPro-SemiboldIt'" font-size="8">ti</tspan><tspan x="25.975" y="0" font-family="'MyriadPro-SemiboldIt'" font-size="8">v</tspan><tspan x="29.799" y="0" font-family="'MyriadPro-SemiboldIt'" font-size="8">e clothing</tspan></text>
<g>
	<defs>
		<rect id="SVGID_5_" width="333.071" height="118.766"/>
	</defs>
	<clipPath id="SVGID_6_">
		<use xlink:href="#SVGID_5_"  overflow="visible"/>
	</clipPath>
	<path clip-path="url(#SVGID_6_)" fill="none" stroke="#000000" stroke-width="0.5" d="M252.612,0.25c0,0-8,0-8,8v2.339c0,0,0,8,8,8
		h56.201c0,0,8,0,8-8V8.25c0,0,0-8-8-8H252.612z"/>
	<path clip-path="url(#SVGID_6_)" fill="#FFFFFF" d="M38.431,0.25c0,0-8,0-8,8v2.339c0,0,0,8,8,8h56.201c0,0,8,0,8-8V8.25
		c0,0,0-8-8-8H38.431z"/>
</g>
<text transform="matrix(1 0 0 1 43.6172 7.6191)"><tspan x="0" y="0" font-family="'MyriadPro-SemiboldIt'" font-size="8">O</tspan><tspan x="5.576" y="0" font-family="'MyriadPro-SemiboldIt'" font-size="8">c</tspan><tspan x="8.944" y="0" font-family="'MyriadPro-SemiboldIt'" font-size="8">cupational </tspan></text>
<text transform="matrix(1 0 0 1 55.3774 17.2197)" font-family="'MyriadPro-SemiboldIt'" font-size="8">health</text>
<g>
	<defs>
		<rect id="SVGID_7_" width="333.071" height="118.766"/>
	</defs>
	<clipPath id="SVGID_8_">
		<use xlink:href="#SVGID_7_"  overflow="visible"/>
	</clipPath>
	<path clip-path="url(#SVGID_8_)" fill="none" stroke="#000000" stroke-width="0.5" d="M38.431,0.25c0,0-8,0-8,8v2.339c0,0,0,8,8,8
		h56.201c0,0,8,0,8-8V8.25c0,0,0-8-8-8H38.431z"/>
	<path clip-path="url(#SVGID_8_)" fill="#FFFFFF" d="M268.62,25.231c0,0-8,0-8,8v2.339c0,0,0,8,8,8h56.201c0,0,8,0,8-8v-2.339
		c0,0,0-8-8-8H268.62z"/>
</g>
<text transform="matrix(1 0 0 1 265.9668 37.4014)"><tspan x="0" y="0" font-family="'MyriadPro-SemiboldIt'" font-size="8">P</tspan><tspan x="4.152" y="0" font-family="'MyriadPro-SemiboldIt'" font-size="8">atient pla</tspan><tspan x="36.159" y="0" font-family="'MyriadPro-SemiboldIt'" font-size="8">c</tspan><tspan x="39.527" y="0" font-family="'MyriadPro-SemiboldIt'" font-size="8">ement</tspan></text>
<g>
	<defs>
		<rect id="SVGID_9_" width="333.071" height="118.766"/>
	</defs>
	<clipPath id="SVGID_10_">
		<use xlink:href="#SVGID_9_"  overflow="visible"/>
	</clipPath>
	<path clip-path="url(#SVGID_10_)" fill="none" stroke="#000000" stroke-width="0.5" d="M268.62,25.231c0,0-8,0-8,8v2.339
		c0,0,0,8,8,8h56.201c0,0,8,0,8-8v-2.339c0,0,0-8-8-8H268.62z"/>
	<path clip-path="url(#SVGID_10_)" fill="#FFFFFF" d="M22.423,25.231c0,0-8,0-8,8v2.339c0,0,0,8,8,8h56.201c0,0,8,0,8-8v-2.339
		c0,0,0-8-8-8H22.423z"/>
</g>
<text transform="matrix(1 0 0 1 29.0815 32.6006)"><tspan x="0" y="0" font-family="'MyriadPro-SemiboldIt'" font-size="8">H</tspan><tspan x="5.184" y="0" font-family="'MyriadPro-SemiboldIt'" font-size="8">a</tspan><tspan x="9.52" y="0" font-family="'MyriadPro-SemiboldIt'" font-size="8">ndle linen </tspan></text>
<text transform="matrix(1 0 0 1 35.6416 42.2012)"><tspan x="0" y="0" font-family="'MyriadPro-SemiboldIt'" font-size="8">c</tspan><tspan x="3.36" y="0" font-family="'MyriadPro-SemiboldIt'" font-size="8">or</tspan><tspan x="10.48" y="0" font-family="'MyriadPro-SemiboldIt'" font-size="8">r</tspan><tspan x="13.232" y="0" font-family="'MyriadPro-SemiboldIt'" font-size="8">e</tspan><tspan x="17.087" y="0" font-family="'MyriadPro-SemiboldIt'" font-size="8">c</tspan><tspan x="20.6" y="0" font-family="'MyriadPro-SemiboldIt'" font-size="8">t</tspan><tspan x="23.264" y="0" font-family="'MyriadPro-SemiboldIt'" font-size="8">l</tspan><tspan x="25.271" y="0" font-family="'MyriadPro-SemiboldIt'" font-size="8">y</tspan></text>
<g>
	<defs>
		<rect id="SVGID_11_" width="333.071" height="118.766"/>
	</defs>
	<clipPath id="SVGID_12_">
		<use xlink:href="#SVGID_11_"  overflow="visible"/>
	</clipPath>
	<path clip-path="url(#SVGID_12_)" fill="none" stroke="#000000" stroke-width="0.5" d="M22.423,25.231c0,0-8,0-8,8v2.339
		c0,0,0,8,8,8h56.201c0,0,8,0,8-8v-2.339c0,0,0-8-8-8H22.423z"/>
	<path clip-path="url(#SVGID_12_)" fill="#FFFFFF" d="M234.313,50.214c0,0-8,0-8,8v2.339c0,0,0,8,8,8h90.509c0,0,8,0,8-8v-2.339
		c0,0,0-8-8-8H234.313z"/>
</g>
<text transform="matrix(1 0 0 1 235.459 57.583)"><tspan x="0" y="0" font-family="'MyriadPro-SemiboldIt'" font-size="8">Cle</tspan><tspan x="10.393" y="0" font-family="'MyriadPro-SemiboldIt'" font-size="8">a</tspan><tspan x="14.736" y="0" font-family="'MyriadPro-SemiboldIt'" font-size="8">n </tspan><tspan x="20.6" y="0" font-family="'MyriadPro-SemiboldIt'" font-size="8">e</tspan><tspan x="24.456" y="0" font-family="'MyriadPro-SemiboldIt'" font-size="8">quipment </tspan><tspan x="58.455" y="0" font-family="'MyriadPro-SemiboldIt'" font-size="8">b</tspan><tspan x="62.848" y="0" font-family="'MyriadPro-SemiboldIt'" font-size="8">e</tspan><tspan x="66.68" y="0" font-family="'MyriadPro-SemiboldIt'" font-size="8">t</tspan><tspan x="69.416" y="0" font-family="'MyriadPro-SemiboldIt'" font-size="8">w</tspan><tspan x="75.119" y="0" font-family="'MyriadPro-SemiboldIt'" font-size="8">e</tspan><tspan x="78.976" y="0" font-family="'MyriadPro-SemiboldIt'" font-size="8">en </tspan></text>
<text transform="matrix(1 0 0 1 265.3555 67.1826)" font-family="'MyriadPro-SemiboldIt'" font-size="8">patients</text>
<g>
	<defs>
		<rect id="SVGID_13_" width="333.071" height="118.766"/>
	</defs>
	<clipPath id="SVGID_14_">
		<use xlink:href="#SVGID_13_"  overflow="visible"/>
	</clipPath>
	<path clip-path="url(#SVGID_14_)" fill="none" stroke="#000000" stroke-width="0.5" d="M234.313,50.214c0,0-8,0-8,8v2.339
		c0,0,0,8,8,8h90.509c0,0,8,0,8-8v-2.339c0,0,0-8-8-8H234.313z"/>
	<path clip-path="url(#SVGID_14_)" fill="#FFFFFF" d="M8.25,50.214c0,0-8,0-8,8v2.339c0,0,0,8,8,8h56.201c0,0,8,0,8-8v-2.339
		c0,0,0-8-8-8H8.25z"/>
</g>
<text transform="matrix(1 0 0 1 13.3325 57.583)"><tspan x="0" y="0" font-family="'MyriadPro-SemiboldIt'" font-size="8">S</tspan><tspan x="4" y="0" font-family="'MyriadPro-SemiboldIt'" font-size="8">a</tspan><tspan x="8.368" y="0" font-family="'MyriadPro-SemiboldIt'" font-size="8">fe inj</tspan><tspan x="24.552" y="0" font-family="'MyriadPro-SemiboldIt'" font-size="8">e</tspan><tspan x="28.408" y="0" font-family="'MyriadPro-SemiboldIt'" font-size="8">c</tspan><tspan x="31.927" y="0" font-family="'MyriadPro-SemiboldIt'" font-size="8">tion </tspan></text>
<text transform="matrix(1 0 0 1 21.0444 67.1826)"><tspan x="0" y="0" font-family="'MyriadPro-SemiboldIt'" font-size="8">p</tspan><tspan x="4.36" y="0" font-family="'MyriadPro-SemiboldIt'" font-size="8">r</tspan><tspan x="7.048" y="0" font-family="'MyriadPro-SemiboldIt'" font-size="8">a</tspan><tspan x="11.368" y="0" font-family="'MyriadPro-SemiboldIt'" font-size="8">c</tspan><tspan x="14.88" y="0" font-family="'MyriadPro-SemiboldIt'" font-size="8">ti</tspan><tspan x="19.536" y="0" font-family="'MyriadPro-SemiboldIt'" font-size="8">c</tspan><tspan x="22.896" y="0" font-family="'MyriadPro-SemiboldIt'" font-size="8">es</tspan></text>
<g>
	<defs>
		<rect id="SVGID_15_" width="333.071" height="118.766"/>
	</defs>
	<clipPath id="SVGID_16_">
		<use xlink:href="#SVGID_15_"  overflow="visible"/>
	</clipPath>
	<path clip-path="url(#SVGID_16_)" fill="none" stroke="#000000" stroke-width="0.5" d="M8.25,50.214c0,0-8,0-8,8v2.339c0,0,0,8,8,8
		h56.201c0,0,8,0,8-8v-2.339c0,0,0-8-8-8H8.25z"/>
	<path clip-path="url(#SVGID_16_)" fill="#FFFFFF" d="M246.443,75.195c0,0-8,0-8,8v2.339c0,0,0,8,8,8h56.201c0,0,8,0,8-8v-2.339
		c0,0,0-8-8-8H246.443z"/>
</g>
<text transform="matrix(1 0 0 1 247.4297 87.3643)"><tspan x="0" y="0" font-family="'MyriadPro-SemiboldIt'" font-size="8">C</tspan><tspan x="4.52" y="0" font-family="'MyriadPro-SemiboldIt'" font-size="8">o</tspan><tspan x="8.863" y="0" font-family="'MyriadPro-SemiboldIt'" font-size="8">u</tspan><tspan x="13.176" y="0" font-family="'MyriadPro-SemiboldIt'" font-size="8">gh etiquet</tspan><tspan x="47.087" y="0" font-family="'MyriadPro-SemiboldIt'" font-size="8">t</tspan><tspan x="49.711" y="0" font-family="'MyriadPro-SemiboldIt'" font-size="8">e</tspan></text>
<g>
	<defs>
		<rect id="SVGID_17_" width="333.071" height="118.766"/>
	</defs>
	<clipPath id="SVGID_18_">
		<use xlink:href="#SVGID_17_"  overflow="visible"/>
	</clipPath>
	<path clip-path="url(#SVGID_18_)" fill="none" stroke="#000000" stroke-width="0.5" d="M246.443,75.195c0,0-8,0-8,8v2.339
		c0,0,0,8,8,8h56.201c0,0,8,0,8-8v-2.339c0,0,0-8-8-8H246.443z"/>
	<path clip-path="url(#SVGID_18_)" fill="#FFFFFF" d="M31.427,75.195c0,0-8,0-8,8v2.339c0,0,0,8,8,8h56.201c0,0,8,0,8-8v-2.339
		c0,0,0-8-8-8H31.427z"/>
</g>
<text transform="matrix(1 0 0 1 27.0737 87.3643)"><tspan x="0" y="0" font-family="'MyriadPro-SemiboldIt'" font-size="8">C</tspan><tspan x="4.496" y="0" font-family="'MyriadPro-SemiboldIt'" font-size="8">a</tspan><tspan x="8.84" y="0" font-family="'MyriadPro-SemiboldIt'" font-size="8">r</tspan><tspan x="11.592" y="0" font-family="'MyriadPro-SemiboldIt'" font-size="8">eful with sh</tspan><tspan x="49.567" y="0" font-family="'MyriadPro-SemiboldIt'" font-size="8">a</tspan><tspan x="53.911" y="0" font-family="'MyriadPro-SemiboldIt'" font-size="8">rps</tspan></text>
<g>
	<defs>
		<rect id="SVGID_19_" width="333.071" height="118.766"/>
	</defs>
	<clipPath id="SVGID_20_">
		<use xlink:href="#SVGID_19_"  overflow="visible"/>
	</clipPath>
	<path clip-path="url(#SVGID_20_)" fill="none" stroke="#000000" stroke-width="0.5" d="M31.427,75.195c0,0-8,0-8,8v2.339
		c0,0,0,8,8,8h56.201c0,0,8,0,8-8v-2.339c0,0,0-8-8-8H31.427z"/>
	<path clip-path="url(#SVGID_20_)" fill="#FFFFFF" d="M189.668,100.177c0,0-8,0-8,8v2.339c0,0,0,8,8,8h72.791c0,0,8,0,8-8v-2.339
		c0,0,0-8-8-8H189.668z"/>
</g>
<text transform="matrix(1 0 0 1 185.7822 112.3467)"><tspan x="0" y="0" font-family="'MyriadPro-SemiboldIt'" font-size="8">K</tspan><tspan x="4.304" y="0" font-family="'MyriadPro-SemiboldIt'" font-size="8">e</tspan><tspan x="8.159" y="0" font-family="'MyriadPro-SemiboldIt'" font-size="8">ep e</tspan><tspan x="21.647" y="0" font-family="'MyriadPro-SemiboldIt'" font-size="8">n</tspan><tspan x="25.983" y="0" font-family="'MyriadPro-SemiboldIt'" font-size="8">vi</tspan><tspan x="31.863" y="0" font-family="'MyriadPro-SemiboldIt'" font-size="8">r</tspan><tspan x="34.615" y="0" font-family="'MyriadPro-SemiboldIt'" font-size="8">onment cle</tspan><tspan x="71.551" y="0" font-family="'MyriadPro-SemiboldIt'" font-size="8">a</tspan><tspan x="75.895" y="0" font-family="'MyriadPro-SemiboldIt'" font-size="8">n</tspan></text>
<g>
	<defs>
		<rect id="SVGID_21_" width="333.071" height="118.766"/>
	</defs>
	<clipPath id="SVGID_22_">
		<use xlink:href="#SVGID_21_"  overflow="visible"/>
	</clipPath>
	<path clip-path="url(#SVGID_22_)" fill="none" stroke="#000000" stroke-width="0.5" d="M189.668,100.177c0,0-8,0-8,8v2.339
		c0,0,0,8,8,8h72.791c0,0,8,0,8-8v-2.339c0,0,0-8-8-8H189.668z"/>
	<path clip-path="url(#SVGID_22_)" fill="#FFFFFF" d="M67.777,100.177c0,0-8,0-8,8v2.339c0,0,0,8,8,8h56.201c0,0,8,0,8-8v-2.339
		c0,0,0-8-8-8H67.777z"/>
</g>
<text transform="matrix(1 0 0 1 72.96 107.5459)"><tspan x="0" y="0" font-family="'MyriadPro-SemiboldIt'" font-size="8">H</tspan><tspan x="5.184" y="0" font-family="'MyriadPro-SemiboldIt'" font-size="8">a</tspan><tspan x="9.528" y="0" font-family="'MyriadPro-SemiboldIt'" font-size="8">ndle </tspan><tspan x="25.567" y="0" font-family="'MyriadPro-SemiboldIt'" font-size="8">w</tspan><tspan x="31.184" y="0" font-family="'MyriadPro-SemiboldIt'" font-size="8">as</tspan><tspan x="38.679" y="0" font-family="'MyriadPro-SemiboldIt'" font-size="8">t</tspan><tspan x="41.303" y="0" font-family="'MyriadPro-SemiboldIt'" font-size="8">e </tspan></text>
<g>
	<defs>
		<rect id="SVGID_23_" width="333.071" height="118.766"/>
	</defs>
	<clipPath id="SVGID_24_">
		<use xlink:href="#SVGID_23_"  overflow="visible"/>
	</clipPath>
	<g clip-path="url(#SVGID_24_)">
		<text transform="matrix(1 0 0 1 81 117.1465)"><tspan x="0" y="0" font-family="'MyriadPro-SemiboldIt'" font-size="8">c</tspan><tspan x="3.36" y="0" font-family="'MyriadPro-SemiboldIt'" font-size="8">or</tspan><tspan x="10.48" y="0" font-family="'MyriadPro-SemiboldIt'" font-size="8">r</tspan><tspan x="13.232" y="0" font-family="'MyriadPro-SemiboldIt'" font-size="8">e</tspan><tspan x="17.087" y="0" font-family="'MyriadPro-SemiboldIt'" font-size="8">c</tspan><tspan x="20.6" y="0" font-family="'MyriadPro-SemiboldIt'" font-size="8">t</tspan><tspan x="23.264" y="0" font-family="'MyriadPro-SemiboldIt'" font-size="8">l</tspan><tspan x="25.279" y="0" font-family="'MyriadPro-SemiboldIt'" font-size="8">y</tspan></text>
	</g>
	<path clip-path="url(#SVGID_24_)" fill="none" stroke="#000000" stroke-width="0.5" d="M67.777,100.177c0,0-8,0-8,8v2.339
		c0,0,0,8,8,8h56.201c0,0,8,0,8-8v-2.339c0,0,0-8-8-8H67.777z"/>
</g>
<line fill="none" stroke="#000000" stroke-width="0.5" x1="164.008" y1="19.195" x2="159.481" y2="37.726"/>
<polyline fill="none" stroke="#000000" stroke-width="0.5" points="160.054,21.798 164.008,19.195 166.317,23.328 "/>
<line fill="none" stroke="#000000" stroke-width="0.5" x1="246.277" y1="16.651" x2="190.771" y2="40.601"/>
<polyline fill="none" stroke="#000000" stroke-width="0.5" points="241.816,15.064 246.277,16.651 244.371,20.985 "/>
<line fill="none" stroke="#000000" stroke-width="0.5" x1="260.008" y1="34.461" x2="192.818" y2="45.702"/>
<polyline fill="none" stroke="#000000" stroke-width="0.5" points="256.057,31.854 260.008,34.461 257.121,38.213 "/>
<line fill="none" stroke="#000000" stroke-width="0.5" x1="226.213" y1="59.314" x2="190.673" y2="52.633"/>
<polyline fill="none" stroke="#000000" stroke-width="0.5" points="223.4,55.506 226.213,59.315 222.21,61.842 "/>
<line fill="none" stroke="#000000" stroke-width="0.5" x1="237.865" y1="84.199" x2="182.252" y2="56.133"/>
<polyline fill="none" stroke="#000000" stroke-width="0.5" points="236.223,79.759 237.865,84.199 233.317,85.515 "/>
<line fill="none" stroke="#000000" stroke-width="0.5" x1="187.441" y1="99.59" x2="168.662" y2="55.91"/>
<polyline fill="none" stroke="#000000" stroke-width="0.5" points="189.033,95.131 187.441,99.59 183.11,97.678 "/>
<line fill="none" stroke="#000000" stroke-width="0.5" x1="120.316" y1="99.618" x2="148.464" y2="55.811"/>
<polyline fill="none" stroke="#000000" stroke-width="0.5" points="124.903,98.443 120.317,99.618 119.479,94.959 "/>
<line fill="none" stroke="#000000" stroke-width="0.5" x1="94.121" y1="77.115" x2="126.138" y2="53.171"/>
<polyline fill="none" stroke="#000000" stroke-width="0.5" points="98.828,77.62 94.121,77.115 94.967,72.457 "/>
<line fill="none" stroke="#000000" stroke-width="0.5" x1="73.061" y1="56.418" x2="120.118" y2="47.07"/>
<polyline fill="none" stroke="#000000" stroke-width="0.5" points="77.09,58.904 73.061,56.418 75.833,52.58 "/>
<line fill="none" stroke="#000000" stroke-width="0.5" x1="87.234" y1="34.472" x2="121.138" y2="41.151"/>
<polyline fill="none" stroke="#000000" stroke-width="0.5" points="90.013,38.305 87.234,34.472 91.259,31.979 "/>
<line fill="none" stroke="#000000" stroke-width="0.5" x1="103.177" y1="11.339" x2="138.83" y2="37.785"/>
<polyline fill="none" stroke="#000000" stroke-width="0.5" points="104.041,15.993 103.177,11.339 107.882,10.815 "/>
<g>
	<defs>
		<rect id="SVGID_25_" width="333.071" height="118.766"/>
	</defs>
	<clipPath id="SVGID_26_">
		<use xlink:href="#SVGID_25_"  overflow="visible"/>
	</clipPath>
	<path clip-path="url(#SVGID_26_)" fill="#FFFFFF" d="M128.368,37.901c0,0-8,0-8,8v2.339c0,0,0,8,8,8h56.201c0,0,8,0,8-8v-2.339
		c0,0,0-8-8-8H128.368z"/>
</g>
<text transform="matrix(1 0 0 1 140.978 45.2705)"><tspan x="0" y="0" font-family="'MyriadPro-Regular'" font-size="8">S</tspan><tspan x="3.92" y="0" font-family="'MyriadPro-Regular'" font-size="8">tanda</tspan><tspan x="23.232" y="0" font-family="'MyriadPro-Regular'" font-size="8">r</tspan><tspan x="25.768" y="0" font-family="'MyriadPro-Regular'" font-size="8">d </tspan></text>
<text transform="matrix(1 0 0 1 136.3862 54.8701)"><tspan x="0" y="0" font-family="'MyriadPro-Regular'" font-size="8">p</tspan><tspan x="4.552" y="0" font-family="'MyriadPro-Regular'" font-size="8">r</tspan><tspan x="7.088" y="0" font-family="'MyriadPro-Regular'" font-size="8">ecautions</tspan></text>
<g>
	<defs>
		<rect id="SVGID_27_" width="333.071" height="118.766"/>
	</defs>
	<clipPath id="SVGID_28_">
		<use xlink:href="#SVGID_27_"  overflow="visible"/>
	</clipPath>
	<path clip-path="url(#SVGID_28_)" fill="none" stroke="#000000" stroke-width="0.5" d="M128.368,37.901c0,0-8,0-8,8v2.339
		c0,0,0,8,8,8h56.201c0,0,8,0,8-8v-2.339c0,0,0-8-8-8H128.368z"/>
</g>
</svg>
