<?xml version="1.0" encoding="utf-8"?>
<!-- Generator: Adobe Illustrator 15.0.0, SVG Export Plug-In . SVG Version: 6.00 Build 0)  -->
<!DOCTYPE svg PUBLIC "-//W3C//DTD SVG 1.1//EN" "http://www.w3.org/Graphics/SVG/1.1/DTD/svg11.dtd">
<svg version="1.1" id="Layer_1" xmlns="http://www.w3.org/2000/svg" xmlns:xlink="http://www.w3.org/1999/xlink" x="0px" y="0px"
	 width="247.552px" height="339.414px" viewBox="17.06 7.986 247.552 339.414" enable-background="new 17.06 7.986 247.552 339.414"
	 xml:space="preserve">
<g>
	<g>
		<path fill="#FEFEFE" d="M25.124,326.502c0-102.313,0-204.629,0-307.099c77.743,0,155.531,0,233.565,0
			c0,102.261,0,204.682,0,307.099C180.954,326.502,103.058,326.502,25.124,326.502z"/>
		<path fill="#C3C3C3" d="M174.954,128.197c-1.199-1.495-1.479-3.233-1.371-5.075c1.652-3.587,0.488-6.625-1.858-9.437l0.092,0.079
			c-0.892-0.938-0.619-2.451-1.672-3.311l0.034,0.106c-0.959-1.398-1.526-3.088-3.049-4.075c-0.789-0.677-1.086-1.731-1.84-2.436
			l0.019,0.114c-0.306-0.427-0.503-0.915-0.785-1.346c-4.623-7.119-4.627-7.117,3.833-8.083c2.322,0.835,4.88,1.108,6.855,2.775
			c0.074,0.286,0.149,0.571,0.252,0.861c0.315,0.102,0.604,0.2,0.914,0.309c1.237,0.683,2.438,1.392,3.621,2.127l0.063-0.046
			c1.963,2.72,5.428,2.79,7.989,4.462c1.008,2.184,3.324,2.426,5.142,3.413c2.666,2.521,6.131,3.557,9.384,4.979l-0.083-0.05
			c0.616,0.696,1.558,0.905,2.255,1.48c0.743,0.631,1.545,0.875,2.469,0.393c1.871,0.64,3.68,1.396,5.104,2.831
			c1.277,3.855,5.344,3.278,7.995,4.949l-0.075-0.05c1.313,1.211,3.017,2.001,3.925,3.637c1.043,2.217,1.981,4.461,1.842,6.981
			c0.35,0.961,0.896,1.832,1.36,2.747c0.877,3.026,3.507,4.337,5.869,5.908l-0.13-0.06c0.535,0.615,1.109,1.188,1.73,1.715
			l-0.062-0.127c1.124,2.13,2.754,3.756,4.906,4.862l-0.007-0.05c0.979,2.62,3.076,4.416,4.852,6.453l-0.081-0.052
			c0.898,0.967,0.672,2.592,1.979,3.317c0.38,0.561,0.756,1.12,1.131,1.679c-1.797,2.582,0.259,4.649,1.417,6.32
			c2.85,4.11,2.684,8.117,0.846,12.379c-0.33,0.612-0.715,1.198-1.141,1.752c-0.324,0.615-0.602,1.253-0.843,1.909
			c0.153,2.812-2.563,4.97-1.84,7.913c-0.637,2.855-1.197,5.736-2.964,8.189c-0.903,0.317-1.386,0.721-0.271,1.42
			c-0.431,0.534-0.859,1.072-1.294,1.611c-0.785,0.49-1.396,1.155-1.894,1.928c-0.504,0.569-1.009,1.139-1.511,1.711
			c-0.334,0.036-0.668,0.073-0.999,0.11c-1.605,0.24-3.21,0.224-4.813-0.05c-0.311,0.014-0.617-0.018-0.929-0.004
			c-1.979,0.263-3.959,0.34-5.961,0.265c-0.748-0.119-1.433-0.369-2.073-0.765c-1.572-1.74-3.626-2.838-5.553-4.105
			c-0.594-0.529-1.05-1.164-1.43-1.855c-1.273-2.745-2.551-5.504-2.93-8.563c-0.146-0.75-0.24-1.506-0.32-2.268
			c-0.141-1.15-0.336-2.29-0.487-3.442c0.038-1.65,0.646-3.022,2.028-3.995c2.955-1.009,4.752-3.562,7.149-5.308
			c3.11,0.285,5.777-0.6,7.75-2.822c-0.142,0.119-0.04,0.042-0.15,0.14c-3.165,1.994-6.505,6.362-8.491-0.855
			c0.162-0.679,0.438-1.317,0.841-1.89c1.756-1.625,4.348-1.853,5.963-3.457c-0.118,0.073-0.418,0.275-0.484,0.331
			c-1.191,1.061-2.621,1.482-3.947,2.074c-0.576,0.279-1.107,0.648-1.558,1.111c-0.355,0.509-0.629,1.067-0.813,1.667
			c-0.248,0.565-0.445,1.15-0.601,1.755c-0.054,0.308-0.109,0.614-0.162,0.923c-0.027,0.635-0.075,1.267-0.164,1.902
			c-0.239,0.634-0.566,1.203-0.991,1.726c-1.378,1.21-2.986,1.917-4.784,2.254c-4.054-0.804-5.003-4.523-6.988-7.271
			c-1.505-3.012-3.91-5.068-6.951-6.453c-0.604-0.452-1.147-0.969-1.655-1.521c-0.464-0.579-0.853-1.205-1.175-1.867
			c-0.158-0.325-0.317-0.656-0.479-0.978c-0.314-0.625-0.658-1.242-1.023-1.821c-0.151-0.279-0.313-0.578-0.467-0.84
			c-0.217-0.448-0.44-0.936-0.606-1.269c0.053,0.147-0.124-0.302-0.087-0.163c-0.112,6.456,2.619,12.291,3.197,18.496
			c0.078,2.384,0.035,4.753-0.675,7.052c-2.618,3.925-0.677,10.788-7.735,11.871l0.091-0.044c-0.505-0.635-1.11-1.173-1.724-1.704
			l0.063,0.117c-0.89-0.94-0.624-2.459-1.681-3.321l0.045,0.112c-2.027-3.547-1.984-8.03-5.086-11.091
			c-0.406-1.154-0.813-2.307-1.219-3.461c0.994-1.106,1.221-2.136-0.295-2.995c-1.095-1.542-1.392-3.276-1.267-5.114
			c1.293-2.058,0.392-4.335,0.647-6.492c-0.041-0.29-0.078-0.589-0.119-0.883c-0.285-0.096-0.567-0.202-0.848-0.306
			c-1.525-2.044-1.484-4.387-1.297-6.756c0.906-3.116,1.357-6.218-0.281-9.257c-1.5-2.04-1.524-4.358-1.287-6.725
			C177.271,134.322,176.124,131.258,174.954,128.197z"/>
		<path fill="#C3C3C3" d="M97.439,111.825c-0.583,1.805-1.153,3.614-2.501,5.043c-2.499,2.753-3.766,5.79-2.229,9.474
			c-0.414,1.163-0.828,2.326-1.242,3.486c-1.482,4.133-3.463,8.103-4.2,12.483c-1.302,2.718,0.163,5.545-0.341,8.294
			c-2.243,3.051,0.168,6.462-0.767,9.622c-0.952,5.193-0.96,10.378-0.021,15.567c0.037,1.328-0.301,2.538-1.121,3.605
			c-2.045,1.695-0.473,4.933-2.813,6.498c-1.152,4.055-2.92,8.06-0.962,12.351c-0.456,0.606-0.909,1.212-1.364,1.819
			c-0.474,0.484-0.927,0.988-1.355,1.511c-0.882,1.458-1.941,2.752-3.432,3.653c-0.881,0.557-1.836,0.89-2.879,1.026
			c-0.699,0.146-1.396,0.134-2.096,0.069c-5.396,0.665-8.966,4.863-13.643,6.892c-1.061,0.441-2.071,1.019-3.23,1.198
			c-0.775,0.063-1.54-0.021-2.283-0.23c-1.865-0.395-3.755-0.492-5.658-0.41c-1.643,0.227-3.045-0.217-4.15-1.473
			c-0.851-1.689-1.433-3.609-3.625-4.148c-0.355-0.596-0.712-1.194-1.067-1.788c0.857-4.408,1.37-8.869,2.163-13.287
			c1.596-2.378,2.871-4.929,4.114-7.494l-0.013,0.117c1.048-0.861,0.779-2.38,1.674-3.317l-0.056,0.112
			c1.046-0.858,0.773-2.376,1.669-3.307l-0.088,0.058c2.396-2.796,3.232-5.906,1.933-9.447c-0.193-1.821,0.101-3.52,1.283-4.995
			c1.634-1.146,0.645-2.857,0.939-4.291c0-0.946,0.233-1.83,0.716-2.655c0.332-0.561,0.622-1.136,0.88-1.734
			c1.588-3.426,2.51-7.089,3.984-10.545l-0.059,0.073c3.612-2.873,4.022-7.481,6.13-11.17c2.132-3.745,4.939-7.11,6.378-11.237
			c3.081-2.455,5.114-5.931,8.242-8.338c2.552-0.679,4.167-2.359,5.143-4.729c0.556-0.434,1.111-0.869,1.664-1.301
			c1.953,1.042,2.331-0.763,3.179-1.727l-0.078,0.056c2.836-1.425,5.925-2.434,8.16-4.856l-0.074,0.004
			c1.358-0.805,2.666-0.027,3.992,0.129c0.621,0.334,1.111,0.798,1.473,1.396c0.143,0.708-0.025,1.333-0.5,1.877l0.048-0.1
			C98.186,107.551,95.992,109.13,97.439,111.825z"/>
		<path fill="#808080" d="M105.487,44.821c3.621-16.932,16.825-26.454,33.835-23.69c7.752,1.258,12.009,7.678,15.294,13.956
			c2.794,5.339,4.256,11.399,4.07,17.624c-0.439,0.902-0.672,1.923-1.458,2.643c-0.628,0.325-1.293,0.473-2,0.473
			c-0.695-0.152-1.333-0.425-1.929-0.812c-0.922-0.534-1.846-1.059-2.784-1.571c-0.603-0.407-1.128-0.89-1.566-1.467
			c-8.362-7.942-9.335-8.053-18.833-2.359c-1.355,0.811-2.768,1.554-4.406,1.667c-0.967,0.094-1.918-0.073-2.851-0.264
			c-0.573,0.072-1.153,0.118-1.724,0.233c-1.493,0.465-2.709,1.432-4.066,2.155c-0.626,0.29-1.244,0.567-1.867,0.867
			c-0.645,0.346-1.279,0.679-1.916,1.032c-1.332,0.859-2.744,1.434-4.373,1.329c-1.842-0.131-3.188-0.954-3.896-2.694
			C105.05,50.894,104.392,47.812,105.487,44.821z"/>
		<path fill="#C3C3C3" d="M142.942,129.869c-1.502,1.244-3.27,1.398-5.115,1.225c-6.506-1.667-12.941-1.541-19.277,0.807
			c-0.771,0.125-1.553,0.06-2.33,0.087c-9.896,0.365-9.891,0.371-8.106-9.847c0.13-0.75,0.034-1.544,0.062-2.319
			c0.67-3.58,2.779-7.042,0.886-10.827c-0.109-1.826,0.124-3.562,1.34-5.039c2.671-8.52,4.427-8.626,13.155-0.886
			c0.611,0.182,1.131,0.529,1.635,0.861c0.802,0.293,1.57,0.667,2.395,0.924c0.642-0.001,1.213,0.182,1.799,0.358
			c0.68,0.025,1.279,0.235,1.894,0.451c0.343,0.06,0.634,0.209,0.968,0.263c2.252,0.875,4.252,0.508,5.994-1.127
			c0.43-0.495,0.969-0.83,1.531-1.114c0.756-0.475,1.496-0.979,2.197-1.54c0.389-0.444,0.795-0.87,1.175-1.322
			c0.528-0.784,0.999-1.594,1.479-2.413c0.879-1.167,2.025-1.903,3.465-2.174c2.037,0.44,4.197,0.359,6.111,1.353l0.008-0.032
			c0.48,2.042,1.4,3.755,3.459,4.633c1.033,1.643,0.922,4.001,3.129,4.906c0.844,0.996,1.234,2.154,1.256,3.449
			c-1.906,5.001,1.463,12.189-6.229,14.792c-2.234,0.056-4.094,1.286-6.143,1.928C147.54,128.412,144.636,127.599,142.942,129.869z"
			/>
		<path fill="#DEDEDE" d="M41.133,211.193c1.647,0.02,3.292,0.041,4.94,0.061c0.538-0.531,1.167-0.711,1.907-0.477
			c1.977,1.455,1.754,3.535,1.664,5.543c0.115,0.399,0.235,0.842,0.445,1.195c0.05-0.074,0.435,0.375,0.491,0.299
			c0.441,0.029,0.796,0.203,1.174,0.367c0.531-0.009,0.97,0.152,1.417,0.356c1.109,0.304,2.098,0.821,3.087,1.367
			c0.624,0.212,1.214,0.456,1.827,0.692c0.688,0.137,1.304,0.412,1.893,0.785c1.428,1.073,2.428,2.475,3.247,4.026
			c0.561,0.866,0.916,1.823,1.181,2.823c0.22,1.705,0.183,3.397-0.468,5.029c-0.434,1.313-1.389,2.395-1.686,3.766
			c-0.092,1.785-1.472,3.994,1.604,4.715c0.908,1.104,0.84,2.18-0.076,3.24l0.071-0.073c-0.955,0.768-2.423,1.219-1.827,2.937
			c-1.33,2.625-1.012,5.869-3.157,8.18c-1.886-1.502-2.48-4.094-4.614-5.381c-0.838-1.321-1.416-2.806-2.459-3.854
			c-0.113-0.04,0.08,0.161,0.664,0.777c0.996,1.888,2.098,3.615,3.722,4.967c1.244,2.796,0.748,5.078-1.993,6.704
			c-1.279-0.101-2.407-0.538-3.304-1.478c-1.339-1.111-2.568,0.033-3.852,0.185c-1.098,0.002-2.024-0.384-2.77-1.193
			c-0.901-1.125-0.307-2.784-1.391-3.843c-2.306-3.473-3.974-7.214-4.837-11.293c1.189-2.621,1.202-5.247-0.008-7.869
			c1.084-3.787,2.169-7.577,3.253-11.364c1.031-1.075,0.76-2.101-0.115-3.104c-2.048-2.401-1.508-5.283-1.517-8.059
			C40.132,210.495,40.627,210.454,41.133,211.193z"/>
		<path fill="#DEDEDE" d="M238.062,205.307c-1.506,3.955-2.711,8.082-6.321,10.832c-0.417,0.276-0.769,0.622-1.053,1.061
			c-0.09,0.589-0.087,1.156-0.006,1.749c0.399,2.75-0.75,5.612,0.752,8.233c-1.369,2.586-1.153,5.754-3.041,8.15
			c-3.524,2.036-6.233,4.813-8.224,8.381c-1.806,3.243-3.894,3.303-5.901,0.085c-0.091-0.667-0.019-1.325,0.226-1.944
			c0.356-0.488,0.842-0.846,1.352-1.012c0.227-0.052,0.47-0.234,0.543-0.438c-0.106,0.063,0.123,0.117,0.037,0.193
			c-0.086,0.075-0.789,0.271-0.869,0.289c-0.519,0.121-0.963,0.165-1.467,0.148c-0.942-0.233-1.607-0.779-2.155-1.521
			c-0.313-0.604-0.505-1.232-0.617-1.852c-0.104-0.477-0.078-0.982-0.013-1.391c-0.065,0.101-0.102-0.465-0.199-0.357
			c-0.1,0.105-0.35-0.232-0.452-0.137c-0.537,0.102-0.955,0.027-1.442-0.1c-0.673-0.134-1.209-0.4-1.744-0.772
			c-1.127-1.113-1.707-2.361-1.191-3.935c0.654-2.578,2.434-4.892,1.796-7.758c-0.259-4.268,2.043-7.885,3.008-11.855
			c0.263-0.717,0.688-1.334,1.188-1.898c1.373-1.807,1.813-4.16,3.388-5.877c1.21-1.342,2.705-2.092,4.53-2.157
			c1.798,0.233,3.457,0.808,4.899,1.925l-0.08-0.052c4.158,1.802,8.871-1.006,12.938,1.54L238.062,205.307z"/>
		<path fill="#DCDCDC" d="M149.214,97.631c-0.901,0.992-1.354,2.166-1.429,3.489c1.466,2.332-0.218,3.422-1.821,4.547l0.078-0.052
			c-0.865,1.006-2.388,0.719-3.293,1.644l0.079-0.061c-4.591,2.78-9.354,3.991-14.522,1.601l0.046,0.044
			c-5.392-2.445-10.289-5.333-10.999-11.997c0.84-1.817-0.153-4.714,3.047-5.156c0.661-0.054,1.338-0.025,2,0.012
			c0.639-0.094,1.279-0.029,1.906,0.096c0.295,0.067,0.589,0.186,0.883,0.273c0.564,0.208,1.115,0.473,1.648,0.762
			c0.849,0.388,1.524,1.001,2.162,1.669c0.836,0.548,1.784,0.787,2.742,1.034c4.545,0.884,7.006-2.799,10.172-4.754
			c1.938-1.198,3.254-3.409,6.027-2.786c2.225,0.792,3.172,2.342,2.796,4.664c0.069,1.079,0.142,2.159,0.216,3.241
			C150.78,96.886,150.175,97.438,149.214,97.631z"/>
		<path fill="#ADADAD" d="M73.536,249.758c0,24.161,0,48.326,0,72.494c-0.5,0.004-0.996,0.006-1.496,0.01c0-25.18,0-50.361,0-75.541
			C74.841,246.617,74.518,248.025,73.536,249.758z"/>
		<path fill="#D1D1D1" d="M105.487,44.821c0.082,3.208,0.164,6.417,0.246,9.624c1.76,1.303,4.736,0.87,5.396,3.73
			c0.301,1.448,0.623,2.895,1.03,4.318c0.628,2.111,1.487,4.132,2.55,6.073c1.064,2.122,2.895,3.856,3.207,6.352
			c-0.011,1.838-0.611,3.414-2.05,4.625c-6.718,2.24-8.47-1.898-9.337-7.152c-0.428-1.638,0.836-3.604-0.936-5.021
			C103.366,59.867,103.134,52.351,105.487,44.821z"/>
		<path fill="#838383" d="M107.181,70.606c0.132,5.223,4.391,6.333,8.096,7.997c2.896,1.04,4.346,3.044,4.146,6.142
			c-0.338,2.488-1.597,4.124-4.22,4.497c-4.782-0.667-8.09-4.118-9.134-10.197c-0.475-2.759-0.143-5.658-0.176-8.492
			c0.23-0.375,0.459-0.752,0.691-1.127C106.783,69.819,106.98,70.213,107.181,70.606z"/>
		<path fill="#898989" d="M150.737,92.666c-0.968-1.023-1.936-2.049-2.906-3.074c-0.602-0.389-1.121-0.872-1.574-1.43
			c-0.516-0.988-0.637-2.021-0.392-3.105c0.586-1.653,2.296-2.716,2.468-4.597c0.164-0.708,0.375-1.394,0.621-2.079
			c0.452-1.477,1.158-2.767,2.606-3.515c1.471-0.598,2.94-1.069,4.405,0.008c0.461,0.729,0.375,1.388-0.256,1.98
			c-0.144,3.074-0.629,6.175,0.334,9.182c0.584,1.83-0.115,2.936-1.65,3.77c-0.471,0.409-0.943,0.819-1.422,1.223
			c-0.773,0.534-1.493,1.137-2.252,1.695L150.737,92.666z"/>
		<path fill="#AFAFAF" d="M152.353,89.812c0.682-0.004,1.363-0.006,2.044-0.01c1.511,0.944,3.021,1.892,4.53,2.838
			c0.927,0.996,1.938,1.326,3.103,0.379c2.106,0.569,4.216,1.142,6.319,1.713c-2.801,1.342-2.799,1.634-2.236,5.612
			c0.174,1.211-0.518,2.543-0.811,3.818c-3.654-2.497-6.271-5.979-8.774-9.497c-1.063-1.49-2.353-1.786-3.896-1.945
			C151.306,91.87,151.677,90.856,152.353,89.812z"/>
		<path fill="#A7A7A7" d="M108.925,120.065c0.578,2.551,1.067,4.879-0.349,7.583c-1.024,1.963,2.286,4.062,2.901,2.934
			c3.337-6.098,4.833,0.586,7.139,0.675c0.354,0.288,0.469,0.578,0.352,0.868c-0.118,0.288-0.237,0.432-0.355,0.432
			c-0.788,0.121-1.572,0.237-2.359,0.362c-10.793,1.715-12.354-0.046-9.379-10.57c0.215-0.76,0.432-1.519,0.646-2.28
			C107.984,119.253,108.458,119.29,108.925,120.065z"/>
		<path fill="#B8B8B8" d="M215.425,241.73c0.861,2.791,1.99,2.117,3.75,0.572c2.886-2.539,4.268-7.113,9.216-6.971
			c-1.957,3.333-6.072,5.176-6.634,9.47c-0.689,0.786-0.715,1.757-0.773,2.722c-0.174,0.636-0.42,1.235-0.758,1.805
			c-1.271,1.449-2.26,3.613-4.788,1.842c0.131-3.422-1.952-4.643-4.978-4.936c-0.201-0.284-0.404-0.569-0.608-0.855
			c-0.063-0.71,0.073-1.38,0.389-2.02c0.938-1.035,1.79-2.194,3.334-2.407C214.309,240.938,214.931,241.182,215.425,241.73z"/>
		<path fill="#C9C9C9" d="M73.536,249.758c-0.5-1.015-0.996-2.025-1.496-3.041c-0.568-3.257,0.616-6.79-1.533-9.805
			c-0.549,0.6-1.123,0.652-1.724,0.068c1.113-2.066,2.294-4.069,5.386-5.139C75.399,237.992,75.989,243.873,73.536,249.758z"/>
		<path fill="#AFAFAF" d="M118.587,96.102c0.043,6.671,5.777,9.047,9.765,12.744c-2.323,0.083-4.466-0.559-6.515-1.584l0.013,0.011
			c-0.771-1.028-1.493-2.102-2.327-3.077c-4.592-5.376-4.6-5.368-9.122-0.237c0.006-2.088,0.017-4.174,0.024-6.258
			c0.149-0.546,0.463-0.978,0.931-1.299c0.522-0.188,1.063-0.298,1.616-0.323c0.277-0.001,0.553-0.006,0.83-0.012
			c1.039-0.025,2.076-0.048,3.113-0.077C117.544,94.96,118.097,94.993,118.587,96.102z"/>
		<path fill="#A8A8A8" d="M118.614,132.554c0.002-0.433,0.002-0.865,0.004-1.298c4.73-4.413,10.999-1.968,16.401-3.503
			c1.34-0.383,2.104,1.98,2.809,3.341C131.407,131.392,124.931,130.91,118.614,132.554z"/>
		<path fill="#AFAFAF" d="M81.247,198.252c-0.625-2.188-5.642-0.534-4.125-3.326c1.641-3.021-1.023-8.037,4.242-9.251
			c0.273,0.167,0.546,0.336,0.821,0.502c0.178,0.915,0.101,1.916,0.88,2.636C82.46,191.963,81.854,195.107,81.247,198.252z"/>
		<path fill="#A9A9A9" d="M155.718,124.958c0.652-0.817,1.396-1.58,1.941-2.461c3.335-5.379,3.318-5.389-0.674-10.203
			c1.311-1.656,3.523-0.752,5.063-1.74c0.082,1.846,0.035,3.709,0.272,5.535c0.679,5.271-1.294,8.709-6.662,9.954
			C155.681,125.68,155.698,125.319,155.718,124.958z"/>
		<path fill="#ABABAB" d="M247.593,180.855c0.019-0.538,0.034-1.073,0.053-1.609l-0.032,0.033c3.168-3.783,2.997-7.644,0.613-11.795
			c-1.276-2.222-2.993-4.656-0.674-7.315c0.652,1.743,1.011,3.677,2.017,5.188c3.516,5.272,3.455,10.419,0.046,15.642
			C248.899,181.543,248.226,181.493,247.593,180.855z"/>
		<path fill="#D4D4D4" d="M41.36,294.563c-0.122-2.285-0.264-4.578,1.441-6.461c0.681-0.983,1.132-2.254,2.7-2.125
			c0.844,0.366,1.279,1.006,1.311,1.918c0.038,4.575,0.101,9.147-0.04,13.722c-5.62,1.827-3.146-3.052-4.211-4.998
			C42.265,295.871,41.864,295.189,41.36,294.563z"/>
		<path fill="#C9C9C9" d="M223.444,294.514c-3.029-6.66-0.988-14.072-3.139-20.858c0.425-0.515,0.967-0.712,1.627-0.591
			c1.306,0.584,1.487,1.875,1.905,3.018c0.39,0.826,0.591,1.743,1.279,2.419c0.901,0.908,1.316,2.017,1.372,3.276
			c-0.46,0.548-0.843,1.144-1.143,1.791c-0.862,3.16,0.42,6.393-0.3,9.559C224.656,293.752,224.114,294.209,223.444,294.514z"/>
		<path fill="#CCCCCC" d="M215.425,241.73c-0.558-0.012-1.112-0.021-1.666-0.032c-1.061,1.053-2.112,2.108-3.16,3.172l-0.051,0.022
			c-1.229,1.612-3.512,0.034-4.773,1.553c-2.703-3.156-1.818-6.473-0.436-9.812c1-0.058,1.984-0.019,2.938,0.335
			c0.317,0.086,0.64,0.176,0.959,0.264c1.562,0.332,3.444-0.469,4.579,1.308c0.538,0.522,1.075,1.049,1.611,1.574
			c0.49,0.377,0.646,0.747,0.47,1.104c-0.175,0.354-0.347,0.529-0.517,0.529L215.425,241.73z"/>
		<path fill="#A9A9A9" d="M225.067,136.074c0.219-3.341-0.974-6.452-1.608-9.659c-0.521-0.306-0.702-0.619-0.538-0.942
			c0.164-0.328,0.333-0.49,0.505-0.49c4.304,5.246,4.252,12.9,9.809,17.454c-4.286-0.149-6.191-3.309-8.174-6.373L225.067,136.074z"
			/>
		<path fill="#A7A7A7" d="M86.437,142.508c-1.285-2.281-4.215-4.63,0.811-6.292c2.86-0.946,0.771-5.556,4.223-6.388
			c-0.486,4.391-1.258,8.707-3.385,12.667C87.542,143.313,86.992,143.316,86.437,142.508z"/>
		<path fill="#AAAAAA" d="M39.573,193.678c1.143,0.723,2.69,2.073,1.645,2.992c-3.033,2.661-2.707,6.712-4.752,9.697
			c0.09-4.827-1.639-9.834,1.48-14.354C38.976,192.098,39.197,192.963,39.573,193.678z"/>
		<path fill="#B4B4B4" d="M84.761,158.49c0.342-2.716-5.479-6.671,1.64-8.024c0.185-0.391,0.37-0.783,0.558-1.173
			c0.238,0.359,0.482,0.719,0.727,1.078c0.148,3.891,0.883,7.841-1.166,11.514C85.061,161.201,85.956,159.313,84.761,158.49z"/>
		<path fill="#A5A5A5" d="M189.511,195.41c2.162-3.084,2.021-6.18,0.34-9.473c-1.756-3.439-0.277-4.326,3.068-3.354
			c5.193,4.666,4.239,9.828,1.252,15.161c-0.453,0.244-0.908,0.492-1.362,0.736C191.22,197.975,190.277,196.787,189.511,195.41z"/>
		<path fill="#C8C8C8" d="M42.965,270.521c-0.017-4.289-0.038-8.578-0.055-12.867c0.752-0.59,1.588-0.762,2.51-0.512
			c4.165,3.603,1.687,8.192,1.874,12.385c-0.382,0.838-1.013,1.41-1.886,1.719C44.482,271.369,43.671,271.125,42.965,270.521z"/>
		<path fill="#B0B0B0" d="M76.691,115.185c-1.09,2.511-3.685,4.045-3.997,7.206c-0.298,2.987-2.583,1.265-4.148,0.874
			c-0.338,0.911-0.721,0.927-1.141,0.05c2.241-3.985,5.316-7.157,9.342-9.391c0.588,0.307,0.777,0.594,0.565,0.867
			C77.109,115.053,76.903,115.185,76.691,115.185z"/>
		<path fill="#B1B1B1" d="M207.323,240.13c-0.662-1.167-1.324-2.33-1.984-3.495c0.006-0.453,0.002-0.904-0.013-1.357
			c0.761-1.498,2.56-0.721,3.597-1.616c0.652-0.038,1.305-0.073,1.959-0.113c1.014,0.665,1.828,1.558,2.758,2.31
			c0.558,0.242,1.063,0.557,1.519,0.951c-0.446,0.58-0.894,1.152-1.342,1.729c-2.205,0.983-4.414,1.965-6.62,2.946
			c-0.338-0.334-0.434-0.649-0.283-0.939C207.056,240.27,207.195,240.13,207.323,240.13z"/>
		<path fill="#C2C2C2" d="M41.36,294.563c0.479-0.026,0.958-0.053,1.437-0.069c1.219,5.688,1.699,11.524,3.615,17.069
			c0.462,1.229,0.561,2.433-0.281,3.563c-3.53-1.578-4.948-4.435-4.923-8.123C41.238,302.855,41.306,298.709,41.36,294.563z"/>
		<path fill="#EBEBEB" d="M44.464,270.5c0.491-0.031,0.985-0.064,1.477-0.096c0.922-0.092,1.609,0.291,2.106,1.048
			c0.416,0.715,0.536,1.586,1.191,2.173c0.04,1.782-0.242,3.477-1.395,4.924c-1.932,1.832-0.57,4.188-1.008,6.256
			c0.002,0.689-0.28,1.234-0.842,1.637c-0.517,0.021-1.033,0.043-1.552,0.055c-1.73-3.945-0.386-8.086-0.813-12.116
			C43.705,273.044,43.35,271.615,44.464,270.5z"/>
		<path fill="#B4B4B4" d="M55.546,249.706c4.876,0.153,2.768,3.924,3.322,6.315c-0.804,2.156-2.142,3.547-4.681,3.213
			c1.271-2.252,0.886-4.435-0.288-6.58C53.43,251.109,54.441,250.385,55.546,249.706z"/>
		<path fill="#ACACAC" d="M52.489,158.479c-0.565,0.559-1.13,1.117-1.697,1.674c-0.398,0.9-0.806,0.95-1.218,0.008
			c0.794-5.367,2.432-10.389,6.088-14.58c0.088,4.566-1.581,8.713-3.161,12.877L52.489,158.479z"/>
		<path fill="#A8A8A8" d="M62.161,134.458c-1.379,4.197,0.688,10.382-6.557,11.199c0.459-4.258,3.27-7.467,5.055-11.13
			c0.239-0.254,0.48-0.507,0.717-0.761C61.638,133.997,61.899,134.224,62.161,134.458z"/>
		<path fill="#AFAFAF" d="M187.862,105.686c-3.182-1.501-6.414-0.267-9.457,0.377c-1.003-2.672,0.993-3.737,1.654-5.304
			c3.642,0.787,6.763,2.599,9.648,4.86C189.114,106.161,188.499,106.185,187.862,105.686z"/>
		<path fill="#BFBFBF" d="M78.386,200.05c0.5,0.011,0.996,0.019,1.494,0.021c0.037,6.32-2.531,11.937-4.832,17.623
			c-0.855,0.529-1.674,0.481-2.463-0.142c-3.101-3.815-1.031-7.307,0.946-10.585C74.978,204.568,76.945,202.48,78.386,200.05z"/>
		<path fill="#A6A6A6" d="M247.593,180.855c0.674,0.045,1.349,0.096,2.021,0.142c-0.399,3.456-2.071,6.433-3.627,9.446
			c-0.377-1.424-7.43-0.713-1.321-4.379C246.156,185.173,246.645,182.636,247.593,180.855z"/>
		<path fill="#BDBDBD" d="M49.236,273.625c-0.559-0.536-1.122-1.077-1.68-1.614c-1.13-5.305-1.172-10.612-0.002-15.919
			c1.712-0.63,3.06-0.545,3.332,1.665C47.819,262.79,49.917,268.35,49.236,273.625z"/>
		<path fill="#A7A7A7" d="M67.406,123.316c0.38-0.014,0.761-0.032,1.14-0.05c-0.623,4.578-0.908,9.34-6.385,11.191l0.03,0.025
			c-0.474-0.353-0.661-0.734-0.563-1.151c0.104-0.431,0.226-0.646,0.363-0.646C62.972,129.097,65.542,126.405,67.406,123.316z"/>
		<path fill="#C4C4C4" d="M45.991,286.438c0.04-0.532,0.09-1.063,0.143-1.595c0.441-0.888,0.891-0.936,1.351-0.014
			c0,6.987,0,13.973,0,20.959c-0.712,0.396-1.359,0.289-1.947-0.252c-0.514-1.093-0.492-2.104,0.443-2.984
			C45.983,297.18,45.987,291.809,45.991,286.438z"/>
		<path fill="#A0A0A0" d="M155.712,76.852c-0.035-0.483-0.035-0.969,0.002-1.451c-0.602-0.511-1.135-1.082-1.608-1.707
			c-1.224-3.876,0.297-7.746,0.026-11.622c0.293-0.775,0.779-1.395,1.465-1.865c1.244-0.446,2.369-0.267,3.351,0.644
			C159.122,66.437,160.183,72.195,155.712,76.852z"/>
		<path fill="#C3C3C3" d="M62.255,237.027c-1.062-1.161-0.539-2.352-0.067-3.541c2.688-3.08,1.762-9.838,8.79-8.51
			c0.332,0.256,0.662,0.516,0.99,0.773C70.486,231.002,66.015,233.711,62.255,237.027z"/>
		<path fill="#ACACAC" d="M199.321,254.514c-2.697-5.011-1.426-10.477-1.838-15.75c-0.672-1.752-1.365-3.518,1.712-3.43
			c0.174,6.434-0.177,12.904,1.455,19.227C200.165,255.632,199.722,255.618,199.321,254.514z"/>
		<path fill="#AEAEAE" d="M244.524,155.228c-2.178-1.667-4.385,1.198-6.631,0.021c-0.758-2.569,1.811-4.178,1.778-6.473
			C242.301,150.177,243.949,152.309,244.524,155.228z"/>
		<path fill="#C3C3C3" d="M204.013,217.743c-4.381-3.261-5.412-8.502-7.766-12.96c0.627-0.668,1.401-1.042,2.321-1.123
			c6.487,2.365,8.681,6.804,6.542,13.339C204.749,217.248,204.38,217.493,204.013,217.743z"/>
		<path fill="#E8E8E8" d="M215.438,251.17c1.572-1.09,1.468-4.758,4.828-3.102c1.453,2.188,0.479,4.644,0.765,6.955
			c0.062,1.162-0.078,2.256-1.181,2.961c-3.014,0.6-1.243-2.998-3.061-3.45C216.341,253.411,215.891,252.29,215.438,251.17z"/>
		<path fill="#A7A7A7" d="M181.222,179.479c2.096-0.987,2.912,0.363,3.285,1.974c0.703,3.013,1.213,6.077,1.801,9.117
			C183.212,187.507,182.095,183.547,181.222,179.479z"/>
		<path fill="#A8A8A8" d="M171.724,113.685c6.021,1.856,6.021,1.856,1.857,9.436C172.964,119.976,172.343,116.832,171.724,113.685z"
			/>
		<path fill="#CBCBCB" d="M118.587,96.102c-0.557-0.04-1.117-0.073-1.672-0.112c0.082-2.412,0.151-4.819-1.709-6.746
			c0.674-1.476,1.344-2.955,2.019-4.435c2.903-0.642,3.629,1.258,4.155,3.422c0.273,0.848,0.562,1.707,0.992,2.532
			c0.592,1.298,0.645,2.539-0.451,3.618C120.216,93.83,118.882,93.972,118.587,96.102z"/>
		<path fill="#AFAFAF" d="M221.769,308.877c2.319,4.422,1.74,9.039,0.572,13.73c-0.606-4.597-1.215-9.191-1.822-13.789
			C220.984,307.709,221.403,307.73,221.769,308.877z"/>
		<path fill="#9E9E9E" d="M84.761,158.49c0.584,1.131,1.172,2.265,1.758,3.395c-0.129,4.639-0.252,9.275-0.379,13.912
			C83.361,170.209,85.411,164.246,84.761,158.49z"/>
		<path fill="#A3A3A3" d="M174.954,128.197c0.313-0.354,0.627-0.707,0.94-1.057c0.729,3.507,3.778,7.154-0.634,10.351
			C175.155,134.391,175.054,131.292,174.954,128.197z"/>
		<path fill="#A4A4A4" d="M202.572,113.612c-3.819-0.438-7.931-0.29-9.76-4.749c0.548-0.667,1.108-0.678,1.681-0.027
			C197.649,109.657,200.368,111.202,202.572,113.612z"/>
		<path fill="#AEAEAE" d="M157.408,102.464c-1.368,0.381-2.932,1.565-4.049-0.067c-1.155-1.686,0.203-3.27,0.844-4.831
			c2.028,1.159,3.452,2.84,4.378,4.958C158.144,103.369,157.753,103.35,157.408,102.464z"/>
		<path fill="#A7A7A7" d="M39.573,193.678c-0.542-0.554-1.083-1.109-1.627-1.662c1.063-2.535,2.354-4.904,4.795-6.429
			C44.597,189.41,41.179,191.193,39.573,193.678z"/>
		<path fill="#A8A8A8" d="M194.493,108.835c-0.561,0.008-1.121,0.019-1.681,0.027c-2.093-0.377-7.153,3.799-4.95-3.176
			c0.615-0.023,1.232-0.046,1.844-0.067C191.304,106.692,192.898,107.764,194.493,108.835z"/>
		<path fill="#A5A5A5" d="M99.245,104.094c-1.632-0.578-3.268-1.157-4.9-1.734c2.215-2.411,4.938-3.92,8.158-4.558
			c0.535,0.472,0.771,1.048,0.662,1.755C102.089,101.266,100.675,102.687,99.245,104.094z"/>
		<path fill="#9E9E9E" d="M176.546,144.217c0.078-0.504,0.094-1.029,0.25-1.511c0.226-0.678,1.086-1.586,1.203-0.388
			c0.363,3.751,1.166,7.648-1.172,11.156C176.732,150.387,176.64,147.301,176.546,144.217z"/>
		<path fill="#9E9E9E" d="M102.462,99.317c0.01-0.506,0.024-1.011,0.041-1.515c2.029-1.042,4.127-1.834,6.45-1.888
			c0.403,0.391,0.535,0.783,0.401,1.175c-0.135,0.39-0.27,0.585-0.405,0.585c-2.14,1.734-4.28,3.466-6.418,5.197
			C101.46,101.708,101.612,100.518,102.462,99.317z"/>
		<path fill="#A5A5A5" d="M220.311,123.215c-2.687,0.131-5.168-0.673-7.522-1.809c-1.49-0.717-1.479-1.92-0.473-3.141
			C214.923,120.005,218.144,120.776,220.311,123.215z"/>
		<path fill="#B0B0B0" d="M207.214,115.437c-0.201,0.458-0.314,0.99-0.619,1.365c-0.949,1.173-0.562,4.373-2.985,3.146
			c-1.866-0.942,0.021-3.101,0.49-4.689c-0.464-0.31-0.621-0.629-0.476-0.956c0.144-0.325,0.297-0.488,0.447-0.488
			C205.117,114.357,206.165,114.897,207.214,115.437z"/>
		<path fill="#C3C3C3" d="M223.356,259.338c0.079,2.643,0.157,5.287,0.236,7.93c0.587,1.387-0.175,2.023-1.369,2.426
			c-0.776,0.011-1.447-0.256-2.002-0.799c-0.442-1.09-0.887-2.181-1.332-3.266c0.438-0.557,0.789-1.158,1.076-1.805
			c0.461-1.649-0.123-3.613,1.506-4.912C222.201,258.625,222.827,258.766,223.356,259.338z"/>
		<path fill="#A4A4A4" d="M94.419,102.354c-1.359,3.868-4.186,5.316-8.158,4.855C88.184,104.275,91.042,102.887,94.419,102.354z"/>
		<path fill="#ABABAB" d="M44.307,273.754c0.044,4.245,0.088,8.49,0.132,12.739c-0.544,0.534-1.09,1.071-1.636,1.606
			c0.063-4.783,0.124-9.563,0.185-14.347C43.429,272.611,43.868,272.611,44.307,273.754z"/>
		<path fill="#A8A8A8" d="M108.925,120.065c-0.467,0-0.938,0-1.404,0.002c0.515-3.689,1.027-7.382,1.539-11.073
			C111.622,112.718,110.562,116.395,108.925,120.065z"/>
		<path fill="#9F9F9F" d="M47.863,169.806c3.096,3.903,2.335,7.029-1.935,9.446c0.088-1.044,0.177-2.09,0.265-3.136
			c0.462-0.583,0.92-1.171,1.374-1.761C47.664,172.84,47.762,171.323,47.863,169.806z"/>
		<path fill="#C1C1C1" d="M158.944,60.854c-1.036-0.044-2.075-0.088-3.113-0.131c-1.58-0.74-1.928-2.044-1.701-3.62
			c0.266-0.688,0.674-1.276,1.244-1.749c0.719-0.163,1.377-0.46,1.973-0.892c0.447-0.582,0.896-1.168,1.343-1.749
			C158.771,55.425,158.856,58.14,158.944,60.854z"/>
		<path fill="#9F9F9F" d="M155.718,124.958c-0.025,0.361-0.045,0.721-0.058,1.081c-1.932,1.27-3.981,2.192-6.377,2.057
			c-0.399-0.339-0.534-0.679-0.401-1.021c0.133-0.344,0.265-0.515,0.397-0.515C151.052,124.556,152.944,123.017,155.718,124.958z"/>
		<path fill="#A3A3A3" d="M92.712,126.345c-2.271-3.857-2.138-7.157,2.229-9.474C94.198,120.03,93.453,123.188,92.712,126.345z"/>
		<path fill="#D0D0D0" d="M231.432,227.18c-2.486-3.302-0.887-7.744-3.143-11.109l-0.013,0.013c1.153,0.017,2.308,0.035,3.462,0.052
			C231.638,219.816,231.534,223.497,231.432,227.18z"/>
		<path fill="#A5A5A5" d="M209.026,222.559c0.113,2.795-0.54,5.428-1.682,7.961c-0.584,0.524-1.166,0.541-1.735-0.023
			c0.672-3.188,2.159-6.344,0.319-9.614c0.447-0.522,1.021-0.823,1.699-0.934c0.688,0.059,1.273,0.343,1.769,0.815
			C209.638,221.438,209.513,222.035,209.026,222.559z"/>
		<path fill="#D5D5D5" d="M223.356,259.338c-0.51-0.025-1.018-0.042-1.523-0.047c-0.367,0.389-0.738,0.77-1.117,1.148
			c-0.647,0.584-1.42,0.673-2.25,0.545c-0.455-1.125-0.91-2.25-1.367-3.375c0.563-1.055,1.066-1.027,1.508,0.082
			c0.582-0.588,1.168-1.17,1.749-1.756c0.641-1.115,1.161-1.066,1.569,0.153C222.843,256.98,223.282,258.08,223.356,259.338z"/>
		<path fill="#989898" d="M87.684,150.371c-0.429,0.029-0.857,0.06-1.283,0.095c-0.517-2.656-1.854-5.314,0.035-7.958
			c0.55-0.004,1.099-0.008,1.647-0.012C87.95,145.121,87.816,147.745,87.684,150.371z"/>
		<path fill="#A4A4A4" d="M149.28,126.561c-0.002,0.513-0.002,1.026,0.004,1.536l0.074,0.083c-0.582,0.438-1.164,0.876-1.741,1.317
			c-1.56,0.127-3.118,0.25-4.679,0.373C143.575,125.978,146.78,126.938,149.28,126.561z"/>
		<path fill="#BABABA" d="M223.444,294.514c0.013-0.531,0.014-1.063,0.004-1.594c0.438-0.529,1.006-0.805,1.697-0.822
			c1.413,0.31,2.132,1.467,3.004,2.437c-0.032,1.188,0.419,2.92-1.043,3.166C224.982,298.057,224.4,295.91,223.444,294.514z"/>
		<path fill="#A2A2A2" d="M242.758,200.055c-0.526,0.004-1.079,0.102-1.583-0.006c-1.147-0.236-3.24,0.354-2.813-1.646
			c0.313-1.45,2.081-1.273,3.381-0.684c0.472,0.215,0.859,0.604,1.286,0.917C242.955,199.107,242.865,199.582,242.758,200.055z"/>
		<path fill="#E3E3E3" d="M221.911,268.904c0.561-0.547,1.119-1.092,1.684-1.639c0.479,1.092,0.955,2.184,1.438,3.275
			c-0.842,0.74-0.754,1.738-0.771,2.712c-0.182,1.226,0.484,2.665-0.93,3.572c-0.509-1.052-1.017-2.104-1.521-3.155
			C220.759,272.057,220.605,270.466,221.911,268.904z"/>
		<path fill="#A2A2A2" d="M166.966,105.673c2.752,0.538,3.218,2.562,3.209,4.885c-2.244-0.931-3.467-2.75-4.319-4.895
			C166.231,105.038,166.603,105.069,166.966,105.673z"/>
		<path fill="#939393" d="M81.364,185.675c2.018-1.632,0.069-5.539,3.657-6.271c-0.253,2.194-0.13,4.482-1.622,6.362
			c-0.664,1.063-1.26,1.027-1.789-0.107L81.364,185.675z"/>
		<path fill="#A0A0A0" d="M76.691,115.185c0.022-0.421,0.043-0.84,0.056-1.259c1.584-1.247,3.166-2.494,4.75-3.743
			C81.546,113.409,80.173,115.295,76.691,115.185z"/>
		<path fill="#B6B6B6" d="M199.192,235.334c-0.57,1.145-1.141,2.289-1.711,3.43c-0.904-1.281-1.42-2.697-1.381-4.264
			c0.102-3.943,1.816-1.691,3.17-0.796l-0.035-0.044C199.222,234.218,199.206,234.775,199.192,235.334z"/>
		<path fill="#CFCFCF" d="M205.609,230.498c0.577,0.008,1.157,0.016,1.735,0.023c0.525,1.045,1.052,2.094,1.576,3.143
			c-0.955,1.068-2.232,1.438-3.597,1.617c-0.461-0.461-0.924-0.924-1.386-1.383c0.042-0.639,0.063-1.28,0.064-1.92
			C204.54,231.48,205.073,230.992,205.609,230.498z"/>
		<path fill="#AEAEAE" d="M179.906,158.442c-0.22,3.199,0.729,6.573-1.466,9.467c-0.107-2.562-0.213-5.119-0.314-7.68
			c0.603-0.587,1.209-1.171,1.813-1.758L179.906,158.442z"/>
		<path fill="#AEAEAE" d="M107.181,70.606c-0.43-0.033-0.857-0.05-1.288-0.054c-0.099-1.061-0.197-2.12-0.296-3.183
			c0.134-1.273,0.269-2.551,0.604-5.744C107.634,65.782,107.212,68.218,107.181,70.606z"/>
		<path fill="#A7A7A7" d="M46.132,305.756c0.449-0.006,0.901,0.01,1.353,0.035c-0.191,3.148,1.262,6.529-1.351,9.336
			c-0.052-1.051-0.107-2.098-0.16-3.146C44.747,309.873,43.95,307.775,46.132,305.756z"/>
		<path fill="#AFAFAF" d="M47.485,284.829l-0.674,0.019l-0.674-0.004c0.189-2.451-0.823-5.025,0.785-7.322
			c0.007-0.008,0.368,0.225,0.565,0.349c-0.924,0.544,1.432,0.685,0.357,0.677C47.722,280.643,47.604,282.739,47.485,284.829z"/>
		<path fill="#C9C9C9" d="M228.15,294.533c-1.028-0.537-2.056-1.074-3.083-1.613c-1.101-0.949-0.8-2.074-0.413-3.213
			c0.681-0.537,1.369-0.568,2.056-0.016C227.993,291.07,228.286,292.738,228.15,294.533z"/>
		<path fill="#A1A1A1" d="M157.408,102.464c0.392,0.025,0.781,0.045,1.173,0.062c1.144,1.333,1.948,2.831,2.211,4.581
			C156.35,107.939,157.868,104.49,157.408,102.464z"/>
		<path fill="#9A9A9A" d="M218.41,299.348c1.984,1.658,2.306,4.113,3.075,6.354c-0.202,0.371-0.402,0.733-0.605,1.102
			c-0.174-0.379-0.348-0.756-0.524-1.137c-1.835-1.74-2.163-4.188-3.021-6.383C217.692,299.303,218.05,299.324,218.41,299.348z"/>
		<path fill="#B6B6B6" d="M102.462,99.317c0.022,1.184,0.043,2.37,0.068,3.555c-0.426,0.415-0.85,0.832-1.273,1.25
			c-0.697,0.678-1.377,0.656-2.027-0.069l0.015,0.04C99.511,101.968,100.511,100.328,102.462,99.317z"/>
		<path fill="#D0D0D0" d="M38.027,233.747c1.975,2.622,1.991,5.243,0.008,7.869C38.031,238.992,38.029,236.368,38.027,233.747z"/>
		<path fill="#ACACAC" d="M173.458,99.289c0.584-0.592,1.168-1.186,1.75-1.778c2.104,0.369,3.82,1.297,4.787,3.295
			c-2.189-0.515-4.38-1.03-6.568-1.546L173.458,99.289z"/>
		<path fill="#979797" d="M201.312,264.079c-0.563-2.132-1.125-4.267-1.688-6.399c0.188-0.355,0.377-0.715,0.566-1.072
			c0.186,0.359,0.371,0.719,0.557,1.078c1.276,1.957,1.916,4.074,1.646,6.422C202.03,264.098,201.671,264.089,201.312,264.079z"/>
		<path fill="#9E9E9E" d="M97.439,111.825c-2.329-2.963-0.422-4.632,1.92-6.165C98.722,107.716,98.081,109.771,97.439,111.825z"/>
		<path fill="#BEBEBE" d="M108.951,97.675c0-0.585,0.002-1.173,0.002-1.761c1.667-1.551,3.279-1.322,4.849,0.15l0.033-0.043
			c-0.51,0.444-0.97,0.933-1.384,1.467c-0.676,0.071-1.353,0.139-2.028,0.211l-0.736,0.002L108.951,97.675z"/>
		<path fill="#ADADAD" d="M207.195,278.518c-1.706-1.177-2.104-3.088-2.761-4.847c0.211-0.362,0.421-0.728,0.633-1.091
			c0.177,0.385,0.352,0.764,0.525,1.143c1.732,1.18,2.373,3.017,2.979,4.875C208.04,279.75,207.579,279.727,207.195,278.518z"/>
		<path fill="#A7A7A7" d="M179.706,173.023c1.023-0.627,2.1-0.69,2.465,0.575c0.488,1.68-0.852,2.123-2.168,2.422
			C179.904,175.02,179.806,174.02,179.706,173.023z"/>
		<path fill="#B1B1B1" d="M226.711,289.691c-0.511-0.019-1.026-0.039-1.54-0.058c-1.435-2.642-1.351-5.292-0.056-7.954
			c0.461,0.024,0.922,0.055,1.379,0.094C226.563,284.413,226.638,287.052,226.711,289.691z"/>
		<path fill="#9F9F9F" d="M210.328,283.338c1.728,1.158,2.294,3.036,3.021,4.813c-0.31-0.033-0.617-0.064-0.927-0.104
			c-1.785-1.122-2.402-2.983-3.095-4.806C209.663,283.273,209.995,283.307,210.328,283.338z"/>
		<path fill="#BDBDBD" d="M215.456,292.893c1.698,1.224,2.295,3.09,2.943,4.929c-0.548,0.633-1.033,0.563-1.473-0.119
			c-1.645-1.259-2.213-3.14-2.903-4.949C214.603,291.768,215.083,291.816,215.456,292.893z"/>
		<path fill="#A9A9A9" d="M239.68,148.826c-2.999-0.266-4.521-2-4.906-4.861C236.791,145.204,238.512,146.741,239.68,148.826z"/>
		<path fill="#B0B0B0" d="M221.925,256.089c-0.524-0.022-1.045-0.073-1.567-0.155c-0.03-2.621-0.06-5.242-0.093-7.865l-0.069,0.065
			c0.62-1.149,1.119-1.102,1.506,0.144C221.776,250.883,221.853,253.488,221.925,256.089z"/>
		<path fill="#939393" d="M49.574,160.162c0.405-0.011,0.813-0.012,1.218-0.008c-0.432,1.594,1.294,3.938-1.648,4.657
			C49.284,163.26,49.429,161.71,49.574,160.162z"/>
		<path fill="#9D9D9D" d="M196.081,203.223c-1.822-1.089-3.115-2.529-3.271-4.746l-0.008,0.006c3.363-0.832,4.232,0.912,3.984,3.805
			C196.55,202.6,196.313,202.91,196.081,203.223z"/>
		<path fill="#C6C6C6" d="M74.966,220.838c-0.726,1.805-1.397,3.637-3,4.912l-0.193-0.136c-1.842-2.087-1.43-3.845,0.796-5.334
			C73.464,220.059,74.263,220.245,74.966,220.838z"/>
		<path fill="#AFAFAF" d="M149.214,97.631c0.578-0.577,1.156-1.152,1.74-1.727c1.223,0.3,2.449,0.591,3.244,1.692
			C152.538,97.694,150.88,98.728,149.214,97.631z"/>
		<path fill="#B4B4B4" d="M204.007,231.975c0.125,0.442,0.307,0.879,0.348,1.328c0.018,0.184-0.266,0.396-0.414,0.594
			c-1.566-0.08-3.139-0.156-4.704-0.235l0.035,0.043C200.493,232.159,202.298,232.198,204.007,231.975z"/>
		<path fill="#B4B4B4" d="M218.468,260.984c0.553-0.562,1.104-1.123,1.651-1.687c1.398,2.134,1.333,4.272,0.033,6.42
			c-0.416-0.03-0.839-0.063-1.259-0.091C218.755,264.079,218.612,262.532,218.468,260.984z"/>
		<path fill="#999999" d="M201.312,264.079c0.359,0.007,0.719,0.017,1.078,0.026c1.516,1.278,1.758,2.967,1.563,4.793
			c-0.418,0.728-0.788,0.705-1.112-0.067C202.331,267.247,201.824,265.665,201.312,264.079z"/>
		<path fill="#A7A7A7" d="M202.841,268.831c0.371,0.015,0.742,0.042,1.112,0.067c1.48,1.295,1.777,2.986,1.64,4.824
			c-0.391-0.021-0.771-0.041-1.158-0.052C203.901,272.057,203.37,270.443,202.841,268.831z"/>
		<path fill="#AEAEAE" d="M223.333,276.825c0.065-1.556,0.133-3.112,0.202-4.669c0.447-0.674,0.893-0.67,1.333,0.009
			c0.084,2.108,0.166,4.224,0.25,6.334C224.52,277.943,223.926,277.383,223.333,276.825z"/>
		<path fill="#B0B0B0" d="M221.911,268.904c-0.035,1.589-0.064,3.178-0.101,4.767l-0.759,0.011c0,0-0.752-0.025-0.75-0.025
			c-0.024-1.588-0.053-3.174-0.08-4.762C220.787,268.895,221.353,268.898,221.911,268.904z"/>
		<path fill="#A1A1A1" d="M205.775,246.445c1.297-1.399,3.036-1.476,4.772-1.551c-0.033,0.447-0.061,0.894-0.084,1.342
			C208.902,246.305,207.339,246.377,205.775,246.445z"/>
		<path fill="#B0B0B0" d="M41.133,211.193l-0.743,0.037l-0.744-0.014c-0.706-1.019-1.412-2.041-2.117-3.062
			C39.437,208.342,40.706,209.281,41.133,211.193z"/>
		<path fill="#B0B0B0" d="M218.607,257.691c-0.504-0.006-1.004-0.035-1.506-0.084c-0.104-1.024-0.206-2.051-0.312-3.075
			C219.443,254.425,218.175,256.542,218.607,257.691z"/>
		<path fill="#BABABA" d="M207.393,220.834c-0.487,0.04-0.974,0.052-1.462,0.051c-1.092-0.773-1.682-1.851-1.918-3.143l0.133-0.123
			C206.725,217.204,207.86,218.221,207.393,220.834z"/>
		<path fill="#B4B4B4" d="M44.5,257.698c-0.531-0.003-1.063-0.017-1.592-0.046c-0.013-1.58-0.025-3.163-0.038-4.747
			c0.605,1.11,1.21,2.216,1.814,3.325c0.457,0.391,0.582,0.735,0.374,1.041C44.868,257.554,44.681,257.698,44.5,257.698z"/>
		<path fill="#B9B9B9" d="M62.025,247.842c-1.397-2.207,0.254-2.548,1.827-2.937C63.241,245.883,62.632,246.863,62.025,247.842z"/>
		<path fill="#919191" d="M215.456,292.893c-0.478-0.061-0.955-0.104-1.431-0.141c-0.456-1.018-0.909-2.035-1.363-3.051
			c0.298,0.018,0.595,0.039,0.896,0.059C214.716,290.49,215.276,291.576,215.456,292.893z"/>
		<path fill="#A5A5A5" d="M223.428,124.983c0.007,0.479,0.019,0.955,0.033,1.432c-1.468-0.699-2.523-1.801-3.225-3.251
			C221.587,123.275,222.679,123.827,223.428,124.983z"/>
		<path fill="#949494" d="M207.195,278.518c0.458,0.039,0.917,0.065,1.378,0.08c0.495,1.035,0.995,2.068,1.492,3.106
			c-0.303-0.024-0.6-0.046-0.902-0.068C207.988,280.917,207.411,279.83,207.195,278.518z"/>
		<path fill="#A0A0A0" d="M86.337,107.153c-0.457,1.663-0.89,3.372-3.177,1.728C84.22,108.308,85.279,107.73,86.337,107.153z"/>
		<path fill="#DCDCDC" d="M152.353,89.812c0.095,0.969,0.188,1.938,0.281,2.91c-0.637,0-1.274,0-1.912,0
			C150.892,91.544,151.225,90.46,152.353,89.812z"/>
		<path fill="#939393" d="M200.747,257.686c-0.375-0.006-0.752-0.008-1.121-0.008c-0.102-1.057-0.203-2.111-0.305-3.168
			c0.443,0.012,0.887,0.025,1.33,0.049C200.681,255.602,200.714,256.643,200.747,257.686z"/>
		<path fill="#919191" d="M81.609,185.659c0.597,0.038,1.192,0.073,1.79,0.108c-0.109,1.017-0.221,2.029-0.332,3.047
			C82.118,187.971,81.671,186.902,81.609,185.659z"/>
		<path fill="#A5A5A5" d="M186.261,190.458c0.984,0.896,1.518,2.017,1.681,3.322C186.776,192.979,186.347,191.802,186.261,190.458z"
			/>
		<path fill="#A6A6A6" d="M63.78,244.979c0.025-1.08,0.051-2.16,0.076-3.24c0.523-0.071,1.048-0.075,1.57-0.012l-0.073-0.068
			C65.32,242.995,64.994,244.193,63.78,244.979z"/>
		<path fill="#989898" d="M220.353,305.662c0.378,0.02,0.754,0.031,1.13,0.039c0.095,1.059,0.19,2.119,0.286,3.176
			c-0.414-0.021-0.834-0.041-1.249-0.057C220.466,307.768,220.409,306.713,220.353,305.662z"/>
		<path fill="#AFAFAF" d="M74.966,220.838c-0.494,0.029-0.992,0.043-1.49,0.046c-1.018-1.091-0.844-2.141,0.111-3.164
			c0.486-0.019,0.975-0.026,1.463-0.026C75.023,218.74,74.992,219.792,74.966,220.838z"/>
		<path fill="#C7C7C7" d="M41.164,219.275c1.104,0.996,1.262,2.025,0.115,3.104C41.243,221.348,41.2,220.311,41.164,219.275z"/>
		<path fill="#9F9F9F" d="M46.014,179.192c-0.183,1.29-0.658,2.433-1.669,3.307C44.439,181.167,44.859,179.996,46.014,179.192z"/>
		<path fill="#A1A1A1" d="M246.421,158.492c-1.17-0.805-1.77-1.946-1.979-3.318C245.696,155.933,246.03,157.229,246.421,158.492z"/>
		<path fill="#909090" d="M162.03,93.02c-1.193,1.161-2.197,0.792-3.102-0.379C159.96,92.767,160.995,92.893,162.03,93.02z"/>
		<path fill="#BFBFBF" d="M44.307,273.754l-0.661-0.014l-0.66,0.014c-0.008-1.079-0.015-2.156-0.023-3.234
			c0.499-0.013,0.998-0.019,1.5-0.021C44.413,271.583,44.357,272.668,44.307,273.754z"/>
		<path fill="#9F9F9F" d="M44.401,182.387c-0.158,1.305-0.677,2.43-1.674,3.318C42.805,184.359,43.154,183.15,44.401,182.387z"/>
		<path fill="#E8E8E8" d="M221.703,248.28c-0.497-0.069-1.004-0.117-1.506-0.145c0.519-1.11,1.04-2.227,1.563-3.334
			C221.739,245.96,221.724,247.122,221.703,248.28z"/>
		<path fill="#A3A3A3" d="M170.142,110.452c1.009,0.881,1.498,2.018,1.672,3.312C170.64,112.968,170.198,111.807,170.142,110.452z"
			/>
		<path fill="#A5A5A5" d="M197.569,204.873c-0.443-0.033-0.885-0.061-1.326-0.091c-0.131-0.511-0.188-1.03-0.168-1.56
			c0.006,0-0.099,0.084-0.099,0.084C197.499,202.837,197.985,203.404,197.569,204.873z"/>
		<path fill="#A2A2A2" d="M166.966,105.673c-0.371-0.006-0.741-0.008-1.11-0.01c-0.188-0.538-0.38-1.076-0.571-1.616
			C165.843,104.59,166.403,105.131,166.966,105.673z"/>
		<path fill="#B4B4B4" d="M67.044,240.125c0.543-0.531,1.09-1.064,1.633-1.6l-0.088-0.077c-0.539,0.538-1.08,1.071-1.617,1.608
			L67.044,240.125z"/>
		<path fill="#A9A9A9" d="M68.785,236.98c0.573-0.022,1.149-0.047,1.726-0.068c-0.642,0.513-1.282,1.025-1.92,1.538l0.088,0.077
			C68.63,238.008,68.669,237.491,68.785,236.98z"/>
		<path fill="#A6A6A6" d="M66.972,240.059c-0.538,0.534-1.078,1.069-1.615,1.604l0.074,0.068c0.537-0.535,1.076-1.068,1.615-1.604
			L66.972,240.059z"/>
		<path fill="#A4A4A4" d="M204.071,113.815c0.012,0.481,0.02,0.962,0.027,1.444c-0.535-0.564-1.072-1.131-1.607-1.696
			C203.032,113.541,203.56,113.624,204.071,113.815z"/>
		<path fill="#A2A2A2" d="M234.834,144.091c-0.574-0.571-1.152-1.145-1.729-1.715C233.681,142.948,234.261,143.521,234.834,144.091z
			"/>
		<path fill="#C3C3C3" d="M61.991,132.686c0.067,0.601,0.135,1.196,0.2,1.794c-0.508,0.002-1.021,0.014-1.532,0.046
			C61.104,133.911,61.548,133.299,61.991,132.686z"/>
		<path fill="#C3C3C3" d="M224.866,272.167l-0.67-0.017l-0.665,0.009c0.495-0.537,0.997-1.077,1.499-1.615
			C224.976,271.085,224.921,271.626,224.866,272.167z"/>
		<path fill="#C3C3C3" d="M147.618,129.497c0.58-0.437,1.162-0.877,1.742-1.317C148.78,128.62,148.196,129.058,147.618,129.497z"/>
		<path fill="#A5A5A5" d="M187.88,193.663c0.572,0.567,1.146,1.136,1.722,1.705C189.025,194.801,188.452,194.23,187.88,193.663z"/>
		<path fill="#909090" d="M209.163,281.636c0.301,0.035,0.6,0.056,0.902,0.068c0.087,0.545,0.175,1.089,0.263,1.635
			c-0.329-0.048-0.663-0.082-0.997-0.098C209.274,282.707,209.22,282.17,209.163,281.636z"/>
		<path fill="#C3C3C3" d="M47.567,174.355c-0.458,0.585-0.916,1.175-1.374,1.761C46.651,175.528,47.109,174.941,47.567,174.355z"/>
		<path fill="#909090" d="M213.556,289.762c-0.301-0.031-0.594-0.049-0.895-0.059c-0.078-0.553-0.158-1.104-0.236-1.655
			c0.307,0.056,0.615,0.093,0.927,0.108C213.419,288.691,213.484,289.225,213.556,289.762z"/>
		<path fill="#939393" d="M216.927,297.701c0.492,0.039,0.979,0.08,1.473,0.119c0.104,0.51,0.105,1.021,0.011,1.527
			c-0.36-0.031-0.721-0.054-1.079-0.066C217.195,298.756,217.064,298.227,216.927,297.701z"/>
		<path fill="#989898" d="M99.231,104.054c0.672,0.021,1.346,0.046,2.021,0.069c-0.645,0.546-1.293,1.092-1.941,1.64
			C99.281,105.194,99.257,104.623,99.231,104.054z"/>
		<path fill="#A5A5A5" d="M239.572,203.593c0.63-0.642,1.263-1.286,1.893-1.925C240.835,202.309,240.202,202.952,239.572,203.593z"
			/>
		<path fill="#FDFDFD" d="M197.569,204.873c-0.531-0.523-1.061-1.046-1.592-1.566c-0.283-2.109-1.151-3.842-3.176-4.824
			c0.039-5.299,0.078-10.603,0.117-15.902c1.559-2.032,1.515-4.364,1.289-6.731c-0.375-6.367-3.63-13.013,1.821-18.824l-0.078-0.175
			c0.584,0.557,1.188,1.092,1.716,1.705l-0.097-0.094c0.608,0.525,1.179,1.088,1.707,1.695l-0.101-0.098
			c0.613,0.531,1.187,1.098,1.72,1.707l-0.126-0.052c3.179,3.276,8.462,4.351,9.968,9.38c1.502,2.761,3.004,5.521,4.508,8.28
			c0.453,0.271,0.638,0.579,0.539,0.923c-0.1,0.36-0.214,0.542-0.345,0.542c0.042,1.262,0.5,2.338,1.404,3.229
			c1.119,0.92,1.058,1.951,0.293,3.05c0.002,0.647,0.004,1.298,0.006,1.946c1.265,3.055,0.947,6.336,1.395,9.509l-0.023-0.046
			c1.834,1.134,3.555,2.307,1.744,4.758c-0.969,0.781-1.49,1.801-1.646,3.02c-1.495,1.99,0.014,5.465-3.291,6.559l0.064-0.037
			c-3.412,1.549-4.123,5.34-6.52,7.73c-0.486,0.122-0.979,0.219-1.477,0.284c-1.081-1.069-2.165-2.142-3.246-3.213
			C202.925,212.877,200.839,208.574,197.569,204.873z"/>
		<path fill="#A2A2A2" d="M196.027,157.025c-3.274,6.019-0.729,12.594-1.821,18.825c-6.039-3.19-3.305-9.734-2.726-13.161
			c0.851-4.979,0.599-8.606-1.94-12.579c-0.697-1.092-1.33-2.688,0.135-3.516c1.66-0.936,1.971,0.573,2.67,1.821
			C193.89,151.175,195.532,153.84,196.027,157.025z"/>
		<path fill="#969696" d="M233.118,172.859c-3.914,0.521-6.354,6.118-11.264,3.222c-1.041,0.938-2.081,0.981-3.107-0.031
			c-0.531-0.565-1.066-1.13-1.602-1.695c0.496-0.504,0.984-1.023,1.467-1.546l-0.059,0.071c0.584-0.531,1.187-1.046,1.683-1.665
			l-0.075,0.023c0.502-0.65,1.012-0.623,1.526-0.014c0.862,3.053,2.812,2.594,4.967,1.521c2.121-1.059,3.891-2.872,6.445-3.024
			C234.084,170.763,234.082,171.807,233.118,172.859z"/>
		<path fill="#A5A5A5" d="M210.738,171.089c-2.96-3.509-7.998-4.836-9.968-9.379c4.012,0.046,6.175,3.949,10.537,4.353
			C215.188,166.424,211.576,169.352,210.738,171.089z"/>
		<path fill="#A5A5A5" d="M237.94,204.84c-4.337-0.318-8.889,1.145-12.938-1.541c3.284,0.371,5.239-2.601,8.141-3.197l-0.035-0.016
			C233.516,202.877,236.371,203.214,237.94,204.84z"/>
		<path fill="#9C9C9C" d="M233.053,166.396c-4.295-0.825-6.502,5.292-11.147,3.297l-0.085-0.077
			c1.347-2.645,4.104-3.426,6.421-4.779C230.28,164.042,232.53,162.597,233.053,166.396z"/>
		<path fill="#A7A7A7" d="M233.118,172.859c-0.009-1.046-0.016-2.09-0.021-3.137c2.525,0.502,5.113,0.881,7.157,3.107
			C237.476,175.068,235.334,172.769,233.118,172.859z"/>
		<path fill="#A7A7A7" d="M233.053,166.396c-1.354-1.275-3.049-1.52-4.811-1.559c3.878-4.213,6.049-0.742,8.918,1.428
			C235.362,167.822,234.235,166.749,233.053,166.396z"/>
		<path fill="#999999" d="M218.538,198.564c-2.603-2.86-1.287-6.287-1.395-9.508C219.382,191.969,220.329,195.07,218.538,198.564z"
			/>
		<path fill="#A2A2A2" d="M220.259,203.277c-0.582-1.586-1.164-3.172-1.746-4.758c3.121,0.366,5.163,2.17,6.569,4.834
			C223.474,203.327,221.865,203.302,220.259,203.277z"/>
		<path fill="#949494" d="M218.747,176.051c1.037,0.013,2.073,0.021,3.107,0.032c-1.531,2.39-3.278,4.493-6.415,4.753
			c-0.081-0.486-0.146-0.973-0.194-1.465C216.41,178.265,217.579,177.156,218.747,176.051z"/>
		<path fill="#ADADAD" d="M196.821,116.585c0.705-0.058,1.328,0.373,1.496,1.167c0.189,0.876-0.313,1.503-1.229,1.428
			c-0.426-0.034-0.979-0.444-1.178-0.832C195.532,117.6,195.739,116.906,196.821,116.585z"/>
		<path fill="#A9A9A9" d="M219.576,149.75c-0.329,0.362-0.664,1.004-0.942,0.981c-0.938-0.071-1.207-0.825-0.873-1.584
			c0.138-0.313,0.928-0.659,1.188-0.53C219.292,148.789,219.406,149.412,219.576,149.75z"/>
		<path fill="#ACACAC" d="M241.518,161.602c-0.29,0.348-0.529,0.927-0.876,0.994c-0.842,0.171-1.506-0.264-1.323-1.192
			c0.061-0.302,0.776-0.688,1.168-0.658C240.847,160.772,241.175,161.295,241.518,161.602z"/>
		<path fill="#A9A9A9" d="M232.313,152.763c-0.641-0.186-1.21-0.729-1.069-1.576c0.142-0.881,0.886-1.217,1.688-0.869
			c0.4,0.175,0.84,0.701,0.898,1.117C233.95,152.311,233.502,152.893,232.313,152.763z"/>
		<path fill="#AAAAAA" d="M214.517,127.099c-0.24,0.809-0.783,1.373-1.633,1.237c-0.885-0.139-1.221-0.875-0.869-1.667
			c0.175-0.396,0.697-0.821,1.119-0.888C214.029,125.642,214.548,126.152,214.517,127.099z"/>
		<path fill="#ABABAB" d="M225.795,196.551c-0.219,0.889-0.854,1.223-1.652,0.934c-0.768-0.281-1.216-0.981-0.859-1.779
			c0.155-0.35,0.798-0.732,1.178-0.696C225.278,195.088,225.766,195.686,225.795,196.551z"/>
		<path fill="#AEAEAE" d="M238.23,192.691c0.07,0.867-0.361,1.486-1.16,1.653c-0.878,0.187-1.505-0.311-1.432-1.217
			c0.035-0.419,0.444-0.963,0.834-1.165C237.239,191.564,237.896,191.852,238.23,192.691z"/>
		<path fill="#ADADAD" d="M224.15,189.876c-0.345-0.303-0.979-0.612-0.975-0.913c0.012-0.931,0.75-1.234,1.529-0.941
			c0.322,0.121,0.712,0.854,0.605,1.119C225.171,189.484,224.56,189.643,224.15,189.876z"/>
		<path fill="#ADADAD" d="M200.437,129.397c0.77,0.315,1.285,0.884,1.074,1.705c-0.223,0.881-1.002,1.088-1.748,0.693
			c-0.387-0.202-0.797-0.762-0.805-1.167C198.937,129.76,199.526,129.318,200.437,129.397z"/>
		<path fill="#A8A8A8" d="M230.791,190.982c0.392,0.27,0.779,0.539,1.167,0.807c-0.279,0.344-0.57,0.971-0.846,0.966
			c-0.395-0.013-0.775-0.483-1.166-0.757C230.232,191.659,230.512,191.32,230.791,190.982z"/>
		<path fill="#A9A9A9" d="M203.565,157.761c-0.178,0.606-0.65,0.937-1.15,0.596c-0.346-0.233-0.606-0.846-0.595-1.281
			c0.015-0.595,0.617-0.935,1.119-0.613C203.286,156.683,203.368,157.313,203.565,157.761z"/>
		<path fill="#A7A7A7" d="M224.986,152.034c-0.343-0.283-0.964-0.568-0.958-0.844c0.007-0.392,0.475-0.775,0.744-1.166
			c0.348,0.284,0.979,0.569,0.977,0.846C225.742,151.261,225.264,151.644,224.986,152.034z"/>
		<path fill="#A8A8A8" d="M186.397,130.802c0.221,0.392,0.677,0.854,0.586,1.158c-0.105,0.356-0.684,0.792-1.064,0.801
			c-0.578,0.01-0.885-0.582-0.592-1.125C185.522,131.273,186.028,131.073,186.397,130.802z"/>
		<path fill="#ABABAB" d="M206.241,154.047c-0.838-0.356-1.212-1.004-0.773-1.789c0.186-0.328,0.908-0.62,1.289-0.529
			c0.86,0.21,1.224,0.955,0.78,1.74C207.353,153.799,206.687,153.864,206.241,154.047z"/>
		<path fill="#ABABAB" d="M210.97,140.207c-0.267,0.858-0.875,1.29-1.7,0.942c-0.354-0.146-0.748-0.813-0.695-1.184
			c0.12-0.869,0.827-1.298,1.655-0.95C210.583,139.165,210.729,139.797,210.97,140.207z"/>
		<path fill="#ACACAC" d="M182.073,138.044c-0.842-0.356-1.218-1.005-0.77-1.792c0.188-0.332,0.912-0.622,1.293-0.53
			c0.869,0.211,1.238,0.955,0.787,1.745C183.194,137.802,182.522,137.863,182.073,138.044z"/>
		<path fill="#A8A8A8" d="M218.894,128.614c0.441,0.175,0.887,0.348,1.328,0.521c-0.266,0.398-0.459,1.007-0.818,1.127
			c-0.34,0.113-0.854-0.288-1.295-0.464C218.37,129.404,218.63,129.012,218.894,128.614z"/>
		<path fill="#AAAAAA" d="M233.68,158.073c0.439,0.188,1.104,0.256,1.287,0.589c0.435,0.792,0.068,1.534-0.799,1.739
			c-0.383,0.089-1.104-0.212-1.282-0.542C232.459,159.071,232.837,158.419,233.68,158.073z"/>
		<path fill="#ABABAB" d="M215.796,134.378c-0.28,0.242-0.666,0.807-0.944,0.761c-0.386-0.062-0.691-0.593-1.032-0.927
			c0.339-0.288,0.745-0.86,1.005-0.802C215.199,133.495,215.474,134.035,215.796,134.378z"/>
		<path fill="#A9A9A9" d="M212.779,153.772c-0.149,0.167-0.299,0.479-0.446,0.477c-0.676-0.006-0.887-0.377-0.531-0.921
			c0.092-0.142,0.483-0.233,0.647-0.159C212.618,153.247,212.677,153.561,212.779,153.772z"/>
		<path fill="#A3A3A3" d="M247.646,179.249c-0.661-0.377-1.491-0.617-1.931-1.167c-0.356-0.453,0.301-1.094,0.748-0.733
			c0.55,0.439,0.778,1.271,1.153,1.932L247.646,179.249z"/>
		<path fill="#9D9D9D" d="M220.535,156.325c0.087,0.229,0.273,0.483,0.226,0.683c-0.047,0.177-0.361,0.43-0.531,0.411
			c-0.725-0.082-0.88-0.493-0.389-1.032C219.956,156.263,220.298,156.341,220.535,156.325z"/>
		<path fill="#A7A7A7" d="M228.851,156.693c-0.098,0.215-0.14,0.52-0.308,0.619c-0.154,0.091-0.548,0.052-0.65-0.078
			c-0.432-0.543-0.252-0.929,0.45-0.967C228.504,156.263,228.681,156.545,228.851,156.693z"/>
		<path fill="#A0A0A0" d="M188.271,157.915c0.087,0.225,0.271,0.477,0.227,0.671c-0.045,0.177-0.356,0.429-0.523,0.411
			c-0.717-0.081-0.869-0.49-0.387-1.023C187.698,157.85,188.038,157.929,188.271,157.915z"/>
		<path fill="#A3A3A3" d="M208.88,160.678c-0.172-0.152-0.49-0.304-0.49-0.455c0.007-0.684,0.387-0.898,0.947-0.538
			c0.148,0.094,0.24,0.49,0.162,0.659C209.421,160.514,209.097,160.571,208.88,160.678z"/>
		<path fill="#A9A9A9" d="M216.052,162.099c-0.264-0.323-0.521-0.646-0.779-0.971c0.354-0.221,0.73-0.638,1.05-0.6
			c0.294,0.038,0.522,0.573,0.781,0.886C216.753,161.645,216.402,161.87,216.052,162.099z"/>
		<path fill="#A7A7A7" d="M223.415,162.285c-0.17-0.15-0.486-0.301-0.486-0.449c0.005-0.675,0.381-0.888,0.937-0.531
			c0.146,0.096,0.237,0.485,0.16,0.65C223.949,162.124,223.627,162.181,223.415,162.285z"/>
		<path fill="#9F9F9F" d="M183.671,163.581c-0.231,0.085-0.485,0.271-0.684,0.223c-0.179-0.046-0.432-0.356-0.412-0.525
			c0.082-0.712,0.492-0.866,1.033-0.381C183.735,163.01,183.655,163.347,183.671,163.581z"/>
		<path fill="#A7A7A7" d="M186.726,168.576c-0.225,0.012-0.563,0.129-0.664,0.025c-0.467-0.486-0.35-0.898,0.283-1.032
			c0.17-0.035,0.513,0.175,0.576,0.344C186.983,168.086,186.802,168.351,186.726,168.576z"/>
		<path fill="#ABABAB" d="M244.521,167.539c-0.258,0.331-0.482,0.881-0.783,0.924c-0.313,0.046-0.694-0.396-1.05-0.625
			c0.253-0.319,0.48-0.861,0.771-0.901C243.779,166.895,244.164,167.316,244.521,167.539z"/>
		<path fill="#A4A4A4" d="M188.37,176.585c-0.227,0.015-0.57,0.133-0.672,0.03c-0.471-0.487-0.354-0.911,0.289-1.049
			c0.173-0.035,0.521,0.178,0.584,0.346C188.634,176.089,188.448,176.356,188.37,176.585z"/>
		<path fill="#A5A5A5" d="M235.315,179.567c-0.223,0.081-0.475,0.261-0.668,0.215c-0.174-0.046-0.424-0.346-0.404-0.509
			c0.074-0.696,0.48-0.846,1.01-0.373C235.372,179.009,235.297,179.34,235.315,179.567z"/>
		<path fill="#ABABAB" d="M241.586,181.964c-0.364,0.211-0.728,0.417-1.091,0.624c-0.159-0.4-0.505-0.845-0.42-1.182
			c0.066-0.271,0.655-0.419,1.013-0.619C241.253,181.178,241.418,181.569,241.586,181.964z"/>
		<path fill="#A4A4A4" d="M222.419,182.316c-0.099,0.218-0.138,0.521-0.311,0.623c-0.152,0.092-0.553,0.05-0.655-0.08
			c-0.438-0.551-0.258-0.938,0.452-0.973C222.071,181.878,222.249,182.167,222.419,182.316z"/>
		<path fill="#A4A4A4" d="M230.172,183.559c0.082,0.223,0.266,0.471,0.22,0.666c-0.042,0.172-0.35,0.414-0.514,0.398
			c-0.702-0.079-0.854-0.479-0.382-1.005C229.608,183.494,229.942,183.573,230.172,183.559z"/>
		<path fill="#A9A9A9" d="M236.78,186.636c-0.322,0.261-0.649,0.521-0.974,0.779c-0.225-0.351-0.644-0.729-0.605-1.048
			c0.036-0.297,0.573-0.525,0.892-0.784C236.323,185.934,236.55,186.284,236.78,186.636z"/>
		<path fill="#A2A2A2" d="M173.429,99.259c-0.365,0.659-0.596,1.486-1.144,1.923c-0.446,0.356-1.103-0.287-0.748-0.736
			c0.435-0.546,1.265-0.784,1.923-1.156L173.429,99.259z"/>
		<path fill="#ABABAB" d="M174.351,108.76c0.611-0.115,1.02,0.134,1.121,0.767c0.035,0.23-0.041,0.559-0.194,0.72
			c-0.444,0.466-1.054,0.46-1.271-0.11C173.87,109.771,174.22,109.225,174.351,108.76z"/>
		<path fill="#A0A0A0" d="M181.821,109.924c0.084,0.228,0.27,0.478,0.223,0.674c-0.045,0.177-0.356,0.425-0.522,0.406
			c-0.716-0.081-0.869-0.486-0.386-1.019C181.249,109.86,181.589,109.939,181.821,109.924z"/>
		<path fill="#A7A7A7" d="M191.462,114.73c0.082,0.223,0.263,0.465,0.217,0.657c-0.043,0.173-0.346,0.416-0.508,0.398
			c-0.695-0.079-0.85-0.474-0.377-0.994C190.903,114.667,191.233,114.745,191.462,114.73z"/>
		<path fill="#A7A7A7" d="M183.661,117.179c-0.225,0.081-0.469,0.26-0.66,0.214c-0.17-0.04-0.414-0.346-0.397-0.506
			c0.082-0.688,0.483-0.835,1.004-0.37C183.73,116.623,183.649,116.952,183.661,117.179z"/>
		<path fill="#A3A3A3" d="M178.876,121.501c-0.1,0.219-0.143,0.524-0.313,0.625c-0.154,0.092-0.555,0.05-0.656-0.081
			c-0.441-0.55-0.259-0.938,0.451-0.973C178.524,121.065,178.702,121.354,178.876,121.501z"/>
		<path fill="#A1A1A1" d="M185.04,124.321c0.084,0.223,0.269,0.476,0.223,0.669c-0.045,0.174-0.354,0.425-0.521,0.406
			c-0.71-0.082-0.865-0.483-0.385-1.015C184.466,124.256,184.808,124.335,185.04,124.321z"/>
		<path fill="#A3A3A3" d="M199.571,124.325c0.082,0.221,0.264,0.469,0.219,0.663c-0.043,0.173-0.352,0.421-0.516,0.402
			c-0.703-0.081-0.854-0.481-0.378-1.007C199.003,124.258,199.339,124.338,199.571,124.325z"/>
		<path fill="#9C9C9C" d="M207.876,125.177c-0.231,0.085-0.49,0.271-0.69,0.221c-0.179-0.044-0.435-0.361-0.414-0.529
			c0.079-0.719,0.495-0.875,1.041-0.386C207.938,124.598,207.858,124.94,207.876,125.177z"/>
		<path fill="#9D9D9D" d="M179.938,158.471c0.239-0.896,0.294-1.95,1.563-2.042c0.146-0.011,0.467,0.302,0.457,0.45
			c-0.084,1.26-1.152,1.311-2.051,1.561L179.938,158.471z"/>
		<path fill="#A4A4A4" d="M193.404,129.525c-0.097,0.216-0.14,0.522-0.31,0.623c-0.154,0.094-0.551,0.048-0.654-0.081
			c-0.438-0.55-0.256-0.938,0.451-0.971C193.056,129.089,193.235,129.373,193.404,129.525z"/>
		<path fill="#9C9C9C" d="M207.878,131.58c-0.231,0.085-0.492,0.268-0.692,0.221c-0.179-0.044-0.437-0.359-0.416-0.531
			c0.082-0.722,0.498-0.879,1.043-0.388C207.94,130.998,207.86,131.342,207.878,131.58z"/>
		<path fill="#A7A7A7" d="M195.994,136.674c-0.17-0.149-0.489-0.301-0.489-0.45c0.002-0.675,0.379-0.887,0.936-0.527
			c0.146,0.096,0.238,0.483,0.164,0.65C196.527,136.516,196.204,136.571,195.994,136.674z"/>
		<path fill="#A9A9A9" d="M225.06,136.064c-0.52,0.855-0.947,1.914-2.229,1.601c-0.244-0.058-0.574-0.939-0.428-1.206
			c0.664-1.211,1.708-0.661,2.663-0.384L225.06,136.064z"/>
		<path fill="#9C9C9C" d="M189.417,137.07c0.225,0.101,0.545,0.144,0.65,0.317c0.1,0.161,0.053,0.568-0.084,0.675
			c-0.574,0.453-0.979,0.267-1.018-0.463C188.958,137.431,189.259,137.248,189.417,137.07z"/>
		<path fill="#9D9D9D" d="M202.315,137.075c0.229,0.098,0.545,0.145,0.648,0.314c0.098,0.161,0.057,0.567-0.08,0.672
			c-0.574,0.452-0.976,0.267-1.014-0.461C201.862,137.433,202.16,137.25,202.315,137.075z"/>
		<path fill="#A4A4A4" d="M185.026,141.956c0.082,0.226,0.266,0.472,0.219,0.665c-0.045,0.173-0.352,0.415-0.518,0.398
			c-0.701-0.079-0.854-0.478-0.373-1C184.464,141.895,184.798,141.972,185.026,141.956z"/>
		<path fill="#A4A4A4" d="M217.55,142.762c-0.223,0.082-0.473,0.261-0.666,0.214c-0.174-0.043-0.424-0.348-0.404-0.51
			c0.078-0.698,0.482-0.846,1.009-0.373C217.612,142.206,217.536,142.535,217.55,142.762z"/>
		<path fill="#A7A7A7" d="M199.028,143.962c0.223,0.361,0.652,0.757,0.594,1.069c-0.054,0.301-0.609,0.513-0.941,0.761
			c-0.211-0.365-0.612-0.755-0.566-1.083C198.157,144.423,198.704,144.21,199.028,143.962z"/>
		<path fill="#A3A3A3" d="M223.854,144.573c-0.229,0.015-0.572,0.133-0.674,0.027c-0.474-0.492-0.357-0.916,0.289-1.053
			c0.173-0.035,0.523,0.177,0.587,0.35C224.118,144.075,223.933,144.344,223.854,144.573z"/>
		<path fill="#A7A7A7" d="M206.128,146.218c-0.183,0.388-0.365,0.771-0.553,1.157c-0.344-0.221-0.92-0.395-0.979-0.674
			c-0.073-0.342,0.287-0.773,0.462-1.169C205.417,145.758,205.771,145.988,206.128,146.218z"/>
		<path fill="#A2A2A2" d="M230.322,146.17c-0.232,0.014-0.579,0.135-0.681,0.031c-0.474-0.494-0.354-0.917,0.293-1.056
			c0.174-0.035,0.523,0.177,0.588,0.35C230.588,145.671,230.4,145.938,230.322,146.17z"/>
		<path fill="#A3A3A3" d="M211.636,146.953c0.226-0.081,0.474-0.26,0.67-0.216c0.173,0.043,0.421,0.35,0.4,0.514
			c-0.078,0.701-0.484,0.847-1.014,0.373C211.569,147.515,211.649,147.184,211.636,146.953z"/>
		<path fill="#A5A5A5" d="M181.339,148.312c0.219,0.096,0.527,0.136,0.627,0.302c0.094,0.157,0.05,0.546-0.082,0.651
			c-0.553,0.437-0.941,0.26-0.978-0.442C180.897,148.66,181.188,148.482,181.339,148.312z"/>
		<path fill="#9D9D9D" d="M201.507,150.535c-0.156,0.177-0.313,0.502-0.472,0.502c-0.707-0.002-0.934-0.392-0.559-0.965
			c0.098-0.152,0.507-0.249,0.682-0.167C201.337,149.987,201.396,150.314,201.507,150.535z"/>
		<path fill="#A3A3A3" d="M185.833,151.76c0.226-0.081,0.476-0.262,0.67-0.217c0.174,0.044,0.418,0.351,0.401,0.513
			c-0.079,0.701-0.483,0.849-1.013,0.376C185.766,152.321,185.845,151.99,185.833,151.76z"/>
		<path fill="#A3A3A3" d="M180.179,129.251c-0.1,0.189-0.15,0.49-0.303,0.551c-0.543,0.217-0.832-0.038-0.695-0.621
			c0.031-0.137,0.357-0.29,0.547-0.286C179.882,128.899,180.028,129.125,180.179,129.251z"/>
		<path fill="#ABABAB" d="M233.143,200.104c-0.037-0.726-0.075-1.451-0.112-2.177c1.848,0.655,0.398,1.429,0.077,2.16
			L233.143,200.104z"/>
		<path fill="#A7A7A7" d="M191.45,123.47c-0.152-0.13-0.43-0.252-0.438-0.393c-0.036-0.591,0.277-0.769,0.772-0.438
			c0.138,0.092,0.238,0.41,0.187,0.563C191.923,123.337,191.634,123.383,191.45,123.47z"/>
		<path fill="#929292" d="M217.134,187.109c-0.096-1.018-0.191-2.035-0.289-3.049C218.1,184.967,218.368,185.967,217.134,187.109z"
			/>
		<path fill="#898989" d="M221.685,171.225c-0.508,0.008-1.02,0.014-1.527,0.014c0.555-0.54,1.11-1.083,1.663-1.625l0.085,0.078
			C221.872,170.209,221.8,170.721,221.685,171.225z"/>
		<path fill="#999999" d="M197.665,158.555c-0.57-0.569-1.144-1.136-1.715-1.705C196.521,157.419,197.095,157.985,197.665,158.555z"
			/>
		<path fill="#8A8A8A" d="M218.609,172.811c-0.491,0.515-0.979,1.03-1.466,1.546C217.63,173.84,218.12,173.326,218.609,172.811z"/>
		<path fill="#9D9D9D" d="M200.896,161.762c-0.572-0.568-1.143-1.138-1.717-1.707C199.755,160.624,200.322,161.195,200.896,161.762z
			"/>
		<path fill="#9C9C9C" d="M199.276,160.155c-0.568-0.565-1.136-1.131-1.707-1.694C198.141,159.024,198.708,159.59,199.276,160.155z"
			/>
		<path fill="#868686" d="M220.233,171.217c-0.561,0.556-1.119,1.11-1.684,1.665C219.114,172.327,219.673,171.775,220.233,171.217z"
			/>
		<path fill="#FDFDFD" d="M73.587,217.718c-0.037,1.056-0.072,2.109-0.11,3.164c-1.323,1.31-1.673,2.964-1.703,4.732
			c-3.767,1.938-5.562,6.239-9.586,7.872c-0.015-1.715-0.333-3.329-1.558-4.642c-0.543-0.274-0.744-0.583-0.607-0.928
			c0.145-0.356,0.3-0.536,0.464-0.536c-0.649-1.441-1.66-2.55-3.075-3.286c-0.538-0.692-0.983-1.439-1.332-2.243
			c-1.145-2.342-2.588-4.617-1.583-7.406c2.755-8.43,11.331-7.864,17.444-11.101l-0.105,0.035c0.428-0.585,0.926-0.683,1.506-0.214
			c1.682-1.04,3.361-2.08,5.045-3.118C77.878,206.232,74.452,211.631,73.587,217.718z"/>
		<path fill="#DDDDDD" d="M57.209,214.261c0.009,2.769,0.017,5.533,0.025,8.302c-0.546,0.537-1.061,0.508-1.539-0.09l0.044,0.024
			c-1.624-1.173-3.247-1.173-4.874-0.004l0.025-0.013c-0.454,0.432-0.994,0.643-1.624,0.629c-0.92-0.096-1.832,0.123-2.749,0.054
			c-0.586-0.269-0.992-0.705-1.212-1.308c-0.076-0.943-0.017-1.849,0.733-2.562l0.009-0.012c2.301-2.505,2.134-6.968,6.378-7.929
			c1.057,0.008,2.111,0.016,3.167,0.024C57.005,211.857,56.175,213.574,57.209,214.261z"/>
		<path fill="#A9A9A9" d="M57.209,214.261c-0.538-0.96-1.075-1.923-1.613-2.886c3.215-6.252,8.745-8.967,16.346-8.029
			c-1.986,3.289-5.6,3.639-8.781,4.68C59.985,209.066,57.229,210.331,57.209,214.261z"/>
		<path fill="#EAEAEA" d="M52.428,211.352c-2.289,2.514-2.51,6.668-6.378,7.931c0.55-2.611,1.1-5.22,1.648-7.832
			c0.917-1.159,1.959-1.029,3.06-0.288C51.316,211.223,51.873,211.287,52.428,211.352z"/>
		<path fill="#A5A5A5" d="M75.062,146.995c-1.067-0.212-1.883-0.542-1.708-1.4c0.252-1.234,1.344-1.27,2.351-1.049
			c0.809,0.177,1.455,0.817,0.993,1.576C76.39,146.636,75.481,146.793,75.062,146.995z"/>
		<path fill="#AEAEAE" d="M58.66,149.299c0.317-0.76,0.89-1.265,1.712-1.067c0.893,0.215,1.09,0.984,0.697,1.72
			c-0.204,0.379-0.762,0.788-1.17,0.8C59.029,150.775,58.581,150.2,58.66,149.299z"/>
		<path fill="#ADADAD" d="M74.472,140.17c-0.307,0.341-0.618,0.968-0.924,0.967c-0.938-0.009-1.242-0.745-0.951-1.52
			c0.121-0.319,0.861-0.707,1.131-0.599C74.074,139.159,74.232,139.765,74.472,140.17z"/>
		<path fill="#ABABAB" d="M80.1,165.21c-0.376-0.256-0.985-0.446-1.077-0.781c-0.225-0.807,0.143-1.516,1.09-1.424
			c0.314,0.034,0.786,0.703,0.783,1.078C80.892,164.46,80.386,164.835,80.1,165.21z"/>
		<path fill="#ABABAB" d="M60.809,163.702c-0.437,0.184-0.929,0.592-1.3,0.502c-0.865-0.206-1.184-0.904-0.531-1.601
			c0.246-0.262,1.017-0.322,1.361-0.135C60.634,162.626,60.663,163.269,60.809,163.702z"/>
		<path fill="#ADADAD" d="M61.535,199.527c-0.348,0.287-0.739,0.854-1.032,0.812c-0.925-0.142-1.146-0.911-0.77-1.649
			c0.146-0.287,0.947-0.543,1.221-0.396C61.275,198.471,61.354,199.098,61.535,199.527z"/>
		<path fill="#AAAAAA" d="M54.357,197.313c-0.438,0.184-0.928,0.586-1.302,0.498c-0.863-0.207-1.182-0.904-0.531-1.601
			c0.244-0.265,1.015-0.321,1.361-0.133C54.178,196.236,54.208,196.881,54.357,197.313z"/>
		<path fill="#AEAEAE" d="M60.978,187.665c-0.451,0.509-1.174,0.5-1.809-0.06c-0.631-0.565-0.744-1.354-0.07-1.924
			c0.292-0.248,1.017-0.289,1.369-0.102C61.177,185.957,61.597,186.617,60.978,187.665z"/>
		<path fill="#ACACAC" d="M61.015,193.386c-0.283,0.335-0.577,0.955-0.85,0.948c-0.4-0.014-0.783-0.479-1.171-0.75
			c0.284-0.338,0.576-0.948,0.851-0.941C60.241,192.652,60.626,193.115,61.015,193.386z"/>
		<path fill="#ADADAD" d="M54.802,166.055c0.405,0.242,1.038,0.397,1.183,0.748c0.342,0.819-0.093,1.517-0.964,1.627
			c-0.372,0.048-1.031-0.35-1.181-0.702C53.494,166.905,53.943,166.315,54.802,166.055z"/>
		<path fill="#ABABAB" d="M54.906,201.234c0.882,0.203,1.363,0.772,1.086,1.619c-0.122,0.373-0.748,0.849-1.113,0.822
			c-0.865-0.056-1.382-0.712-1.091-1.568C53.913,201.734,54.521,201.52,54.906,201.234z"/>
		<path fill="#ACACAC" d="M52.502,158.46c1.149-0.379,2.375-1.154,3.386,0.119c0.544,0.686,0.225,1.552-0.59,1.768
			c-1.525,0.404-2.15-0.819-2.811-1.865L52.502,158.46z"/>
		<path fill="#ABABAB" d="M74.259,129.206c0.881,0.207,1.363,0.78,1.088,1.628c-0.122,0.371-0.747,0.85-1.114,0.823
			c-0.87-0.059-1.38-0.719-1.093-1.573C73.267,129.708,73.874,129.491,74.259,129.206z"/>
		<path fill="#A9A9A9" d="M43.226,204.212c-0.269,0.854-0.867,1.302-1.701,0.95c-0.354-0.15-0.744-0.817-0.691-1.192
			c0.12-0.864,0.821-1.306,1.657-0.954C42.841,203.167,42.988,203.801,43.226,204.212z"/>
		<path fill="#ACACAC" d="M66.768,152.096c0.329,0.342,0.856,0.652,0.916,1.032c0.042,0.277-0.533,0.65-0.837,0.979
			c-0.321-0.337-0.854-0.646-0.902-1.021C65.908,152.799,66.472,152.432,66.768,152.096z"/>
		<path fill="#ABABAB" d="M67.413,140.186c-0.27,0.865-0.883,1.296-1.711,0.942c-0.354-0.152-0.746-0.821-0.693-1.194
			c0.127-0.867,0.832-1.304,1.666-0.948C67.027,139.138,67.173,139.774,67.413,140.186z"/>
		<path fill="#ACACAC" d="M86.729,128.533c0.12,0.904-0.31,1.515-1.179,1.544c-0.367,0.011-0.975-0.478-1.088-0.853
			c-0.256-0.855,0.248-1.507,1.129-1.521C85.964,127.693,86.351,128.241,86.729,128.533z"/>
		<path fill="#AAAAAA" d="M66.966,183.677c-0.285,0.369-0.502,0.878-0.879,1.063c-0.556,0.269-1.129-0.064-1.09-0.645
			c0.022-0.377,0.447-0.863,0.818-1.051C66.374,182.766,66.812,183.081,66.966,183.677z"/>
		<path fill="#ABABAB" d="M50.759,211.162c-1.022,0.096-2.042,0.191-3.06,0.288c-0.542-0.064-1.084-0.132-1.625-0.193
			C47.55,207.15,49.15,208.928,50.759,211.162z"/>
		<path fill="#ABABAB" d="M49.709,186.469c-0.202,0.874-0.767,1.359-1.624,1.084c-0.374-0.123-0.853-0.746-0.825-1.111
			c0.055-0.855,0.709-1.377,1.573-1.09C49.211,185.479,49.423,186.086,49.709,186.469z"/>
		<path fill="#A4A4A4" d="M61.177,155.356c-0.151,0.168-0.305,0.486-0.457,0.483c-0.685-0.004-0.9-0.381-0.539-0.935
			c0.094-0.148,0.49-0.24,0.66-0.161C61.013,154.82,61.069,155.141,61.177,155.356z"/>
		<path fill="#A4A4A4" d="M79.722,156.302c0.218,0.096,0.527,0.139,0.63,0.309c0.095,0.154,0.055,0.55-0.078,0.652
			c-0.556,0.436-0.948,0.256-0.985-0.449C79.282,156.651,79.568,156.472,79.722,156.302z"/>
		<path fill="#A5A5A5" d="M65.259,159.502c0.217,0.094,0.527,0.134,0.627,0.3c0.092,0.154,0.043,0.544-0.088,0.651
			c-0.558,0.435-0.943,0.26-0.974-0.444C64.818,159.845,65.106,159.669,65.259,159.502z"/>
		<path fill="#A4A4A4" d="M73.742,159.548c0.082,0.223,0.265,0.469,0.218,0.661c-0.041,0.171-0.351,0.417-0.515,0.398
			c-0.702-0.079-0.851-0.478-0.376-1C73.181,159.484,73.513,159.563,73.742,159.548z"/>
		<path fill="#A6A6A6" d="M78.851,171.367c-0.328-0.256-0.883-0.483-0.928-0.78c-0.045-0.311,0.399-0.694,0.631-1.044
			c0.318,0.253,0.863,0.48,0.898,0.768C79.492,170.633,79.072,171.012,78.851,171.367z"/>
		<path fill="#A0A0A0" d="M59.992,170.973c0.228-0.083,0.479-0.267,0.679-0.221c0.179,0.046,0.431,0.356,0.414,0.521
			c-0.08,0.71-0.49,0.863-1.029,0.381C59.929,171.54,60.009,171.205,59.992,170.973z"/>
		<path fill="#A3A3A3" d="M54.48,174.947c-0.229,0.012-0.571,0.131-0.672,0.025c-0.473-0.494-0.355-0.915,0.29-1.044
			c0.174-0.039,0.521,0.177,0.584,0.35C54.743,174.451,54.559,174.72,54.48,174.947z"/>
		<path fill="#A5A5A5" d="M67.523,174.755c-0.226,0.079-0.474,0.258-0.666,0.215c-0.172-0.046-0.417-0.348-0.401-0.511
			c0.078-0.694,0.479-0.844,1.004-0.368C67.587,174.198,67.509,174.528,67.523,174.755z"/>
		<path fill="#A5A5A5" d="M73.421,175.074c-0.17-0.15-0.486-0.304-0.486-0.45c0.007-0.678,0.387-0.892,0.943-0.535
			c0.145,0.093,0.234,0.487,0.156,0.654C73.954,174.912,73.634,174.97,73.421,175.074z"/>
		<path fill="#A0A0A0" d="M61.145,177.51c-0.099,0.223-0.144,0.531-0.313,0.633c-0.158,0.095-0.561,0.051-0.666-0.083
			c-0.447-0.559-0.265-0.95,0.457-0.986C60.788,177.066,60.97,177.356,61.145,177.51z"/>
		<path fill="#A5A5A5" d="M78.722,178.165c-0.231,0.019-0.573,0.135-0.674,0.031c-0.469-0.49-0.354-0.908,0.289-1.044
			c0.174-0.038,0.52,0.175,0.582,0.346C78.984,177.673,78.8,177.938,78.722,178.165z"/>
		<path fill="#A4A4A4" d="M56.293,182.333c-0.096,0.219-0.141,0.522-0.311,0.621c-0.156,0.094-0.55,0.05-0.653-0.079
			c-0.435-0.55-0.254-0.936,0.452-0.969C55.946,181.896,56.124,182.184,56.293,182.333z"/>
		<path fill="#A3A3A3" d="M73.77,183.53c0.082,0.222,0.262,0.469,0.214,0.661c-0.042,0.175-0.352,0.42-0.518,0.403
			c-0.703-0.079-0.853-0.48-0.375-1.005C73.2,183.468,73.536,183.543,73.77,183.53z"/>
		<path fill="#A7A7A7" d="M67.288,188.372c0.082,0.221,0.26,0.463,0.217,0.655c-0.043,0.17-0.348,0.41-0.508,0.393
			c-0.693-0.079-0.841-0.475-0.371-0.988C66.734,188.313,67.062,188.385,67.288,188.372z"/>
		<path fill="#A9A9A9" d="M74.048,188.736c-0.097,0.215-0.139,0.513-0.304,0.611c-0.151,0.092-0.542,0.049-0.642-0.08
			c-0.43-0.539-0.25-0.92,0.447-0.949C73.706,188.309,73.882,188.589,74.048,188.736z"/>
		<path fill="#A4A4A4" d="M54.398,189.934c0.082,0.221,0.263,0.471,0.217,0.662c-0.044,0.176-0.351,0.422-0.517,0.402
			c-0.704-0.075-0.853-0.479-0.374-1.002C53.836,189.873,54.168,189.947,54.398,189.934z"/>
		<path fill="#A3A3A3" d="M48.274,193.745c-0.15,0.173-0.304,0.487-0.455,0.487c-0.687-0.004-0.906-0.383-0.542-0.938
			c0.095-0.146,0.494-0.238,0.661-0.161C48.11,193.211,48.169,193.527,48.274,193.745z"/>
		<path fill="#A2A2A2" d="M66.917,197.496c-0.173-0.15-0.492-0.307-0.492-0.455c0.004-0.684,0.388-0.902,0.951-0.542
			c0.148,0.096,0.24,0.492,0.164,0.663C67.458,197.333,67.136,197.393,66.917,197.496z"/>
		<path fill="#A4A4A4" d="M74.068,196.714c-0.097,0.22-0.142,0.522-0.308,0.623c-0.156,0.093-0.557,0.052-0.659-0.081
			c-0.44-0.552-0.261-0.938,0.45-0.973C73.718,196.277,73.896,196.563,74.068,196.714z"/>
		<path fill="#A4A4A4" d="M79.386,119.776c0.227-0.08,0.477-0.261,0.67-0.215c0.176,0.046,0.42,0.35,0.402,0.515
			c-0.078,0.699-0.479,0.846-1.008,0.369C79.326,120.336,79.4,120.005,79.386,119.776z"/>
		<path fill="#A8A8A8" d="M88.091,122.718c-0.256,0.327-0.48,0.874-0.778,0.917c-0.313,0.048-0.697-0.391-1.05-0.617
			c0.254-0.317,0.479-0.854,0.769-0.894C87.354,122.083,87.734,122.498,88.091,122.718z"/>
		<path fill="#A5A5A5" d="M78.935,126.538c-0.151,0.171-0.305,0.488-0.456,0.488c-0.683-0.002-0.899-0.375-0.538-0.932
			c0.098-0.146,0.494-0.242,0.662-0.165C78.771,126.005,78.829,126.326,78.935,126.538z"/>
		<path fill="#A1A1A1" d="M67.567,145.509c-0.1,0.221-0.141,0.532-0.311,0.632c-0.158,0.094-0.562,0.05-0.668-0.083
			c-0.442-0.556-0.261-0.95,0.457-0.986C67.212,145.063,67.394,145.354,67.567,145.509z"/>
		<path fill="#A8A8A8" d="M91.421,113.401c-0.133,0.152-0.258,0.425-0.399,0.434c-0.591,0.036-0.769-0.274-0.438-0.765
			c0.092-0.133,0.412-0.234,0.565-0.182C91.281,112.937,91.335,113.22,91.421,113.401z"/>
		<path fill="#A5A5A5" d="M72.091,168.28c-0.154-0.133-0.433-0.256-0.442-0.398c-0.038-0.592,0.276-0.769,0.776-0.436
			c0.138,0.094,0.242,0.411,0.188,0.563C72.568,168.145,72.276,168.192,72.091,168.28z"/>
		<path fill="#A3A3A3" d="M86.619,116.464c-0.097,0.189-0.149,0.489-0.299,0.55c-0.544,0.215-0.831-0.04-0.694-0.623
			c0.031-0.138,0.356-0.292,0.543-0.283C86.32,116.112,86.468,116.337,86.619,116.464z"/>
		<path fill="#A1A1A1" d="M47.814,201.639c-0.189,0.081-0.395,0.25-0.571,0.223c-0.139-0.022-0.355-0.297-0.338-0.435
			c0.082-0.592,0.435-0.735,0.893-0.36C47.895,201.145,47.813,201.441,47.814,201.639z"/>
		<path fill="#B0B0B0" d="M75.105,152.95c0.053,0.188,0.188,0.405,0.134,0.557c-0.055,0.156-0.307,0.358-0.449,0.344
			c-0.59-0.064-0.693-0.398-0.254-0.832C74.642,152.917,74.91,152.97,75.105,152.95z"/>
		<path fill="#A4A4A4" d="M78.107,133.876c0.194-0.055,0.422-0.194,0.583-0.14c0.158,0.05,0.368,0.311,0.352,0.458
			c-0.063,0.611-0.408,0.713-0.856,0.261C78.072,134.345,78.128,134.074,78.107,133.876z"/>
		<path fill="#A2A2A2" d="M73.341,203.168c-0.488,0.167-0.988,0.234-1.506,0.214C72.274,202.877,72.765,202.732,73.341,203.168z"/>
		<path fill="#D4D4D4" d="M125.326,49.344c0.418-0.33,0.929-0.585,1.242-0.992c8.136-10.663,16.451-12.266,24.747,2.764
			c-0.004,2.76-1.966,3.852-4.171,3.85c-10.336-0.017-20.731,1.575-30.987-0.955c-0.979-0.719-1.164-1.601-0.559-2.649
			c1.545-1.646,3.091-3.293,4.635-4.937c0.5,0.29,0.807,0.721,0.953,1.271c0.338,0.78,0.841,1.396,1.683,1.68
			C123.688,49.464,124.507,49.365,125.326,49.344z"/>
		<path fill="#A0A0A0" d="M115.413,52.818c9.139,0.021,18.279,0.055,27.418,0.055c2.941,0,5.961,0.256,8.484-1.76
			c0.402,0.025,0.807,0.065,1.207,0.117c0.777,0.771,1.294,1.659,1.264,2.791c-0.169,0.701-0.496,1.317-0.98,1.853
			c-0.584,0.423-1.231,0.707-1.938,0.854c-0.708,0.102-1.416,0.209-2.121,0.317c-2.143,0.269-4.166,1.101-6.326,1.294
			c-0.732,0.015-1.461-0.022-2.188-0.117c-4.72-0.898-9.442-0.886-14.167-0.04c-0.729,0.09-1.462,0.108-2.195,0.053
			c-1.793-0.354-3.537-0.925-5.333-1.274c-0.718-0.133-1.424-0.325-2.11-0.568c-0.627-0.4-1.123-0.922-1.485-1.563
			C114.783,54.089,114.943,53.418,115.413,52.818z"/>
		<path fill="#949494" d="M109.025,59.336c-0.248-2.192-2.046-3.36-3.292-4.892c1.607,0.002,3.214,0.004,4.82,0.007
			c1.406,0.041,2.459,0.685,3.218,1.844c1.114,2.78,0.798,5.7,0.905,8.596c-0.186,1.231-0.563,2.4-1.433,3.353
			c-0.36,0.207-0.721,0.411-1.079,0.615c-1.703-1.302-2.279-3.224-2.849-5.149C109.839,62.212,110.136,60.729,109.025,59.336z"/>
		<path fill="#8F8F8F" d="M111.931,56.019c-0.457-0.523-0.918-1.047-1.377-1.567c0.298-1.263,0.926-2.299,2.074-2.976l0.481,0.418
			l0.384-0.504c0.702-0.011,1.403-0.021,2.105-0.031c-0.11,0.481-0.172,0.967-0.187,1.458c0.038,0.594,0.074,1.19,0.109,1.787
			c0.555,0.462,1.05,0.388,1.502-0.154c0.567,0.029,1.131,0.061,1.698,0.09c0.492,0.563,0.815,1.205,0.951,1.936
			c-0.056,0.742-0.293,1.419-0.74,2.019C115.309,61.268,113.87,57.955,111.931,56.019z"/>
		<path fill="#D6D6D6" d="M125.326,49.344c-0.952,1.055-2.147,1.648-3.543,1.879c-0.692-0.719-0.758-1.59-0.604-2.511
			c0.244-0.177,0.49-0.356,0.734-0.534c1.077-1.122,2.155-2.24,3.262-3.392C126.776,46.433,125.03,47.887,125.326,49.344z"/>
		<path fill="#A0A0A0" d="M155.679,52.921c0.012,0.509,0.027,1.015,0.045,1.522c0.457,0.367,0.611,0.734,0.459,1.104
			c-0.146,0.371-0.303,0.555-0.453,0.555l0.042-0.034c-0.489,0.509-1.077,0.832-1.772,0.965c-0.703-0.063-1.33-0.311-1.867-0.775
			c-0.314-0.677-0.223-1.278,0.343-1.79l0.146-0.198C153.449,53.396,153.896,51.669,155.679,52.921z"/>
		<path fill="#8F8F8F" d="M155.679,52.921c-1.021,0.451-2.039,0.901-3.057,1.349c-0.037-1.013-0.066-2.03-0.101-3.041
			C153.573,51.792,154.626,52.359,155.679,52.921z"/>
		<path fill="#A7A7A7" d="M120.366,48.152c-0.046-0.578-0.088-1.155-0.132-1.732c0.213-0.374,0.533-1.097,0.621-1.067
			c1.534,0.47,0.765,1.846,1.06,2.823l0.041-0.091C121.472,49.233,120.943,49.256,120.366,48.152z"/>
		<path fill="#D4D4D4" d="M113.495,51.39l-0.412,0.356l-0.453-0.269C112.923,51.465,113.21,51.434,113.495,51.39z"/>
		<path fill="#8F8F8F" d="M155.73,56.104c-0.003-0.552-0.005-1.106-0.007-1.658c0.539,0.006,1.08,0.012,1.621,0.017
			C156.806,55.008,156.268,55.556,155.73,56.104z"/>
		<path fill="#A7A7A7" d="M128.304,108.802c4.98,0.708,9.686-1.046,14.523-1.601c-3.859,5.458-8.928,5.59-14.559,3.254l0.035,0.035
			C128.304,109.927,128.304,109.364,128.304,108.802z"/>
		<path fill="#A9A9A9" d="M146.216,121.993c-0.381-0.256-0.991-0.446-1.086-0.781c-0.229-0.813,0.149-1.517,1.099-1.423
			c0.317,0.032,0.79,0.704,0.788,1.078C147.011,121.243,146.503,121.618,146.216,121.993z"/>
		<path fill="#ABABAB" d="M114.907,121.508c0.352-0.322,0.672-0.847,1.055-0.898c0.291-0.038,0.664,0.533,1,0.833
			c-0.35,0.327-0.668,0.858-1.059,0.919C115.619,122.402,115.241,121.818,114.907,121.508z"/>
		<path fill="#ABABAB" d="M135.128,122.723c-0.361,0.828-1.021,1.186-1.803,0.754c-0.328-0.181-0.628-0.894-0.535-1.265
			c0.217-0.851,0.967-1.205,1.756-0.77C134.878,121.629,134.942,122.283,135.128,122.723z"/>
		<path fill="#999999" d="M145.964,105.669c0.605-1.515,1.213-3.03,1.821-4.547C149.714,103.635,148.622,104.961,145.964,105.669z"
			/>
		<path fill="#9D9D9D" d="M115.94,105.969c-0.229,0.083-0.484,0.271-0.684,0.223c-0.178-0.04-0.434-0.359-0.416-0.525
			c0.084-0.715,0.5-0.874,1.043-0.39C116.011,105.39,115.929,105.732,115.94,105.969z"/>
		<path fill="#A4A4A4" d="M153.116,108.931c-0.154,0.17-0.305,0.485-0.457,0.485c-0.688-0.002-0.902-0.379-0.539-0.934
			c0.096-0.147,0.49-0.239,0.66-0.163C152.95,108.395,153.009,108.716,153.116,108.931z"/>
		<path fill="#A2A2A2" d="M146.573,110.792c-0.223,0.081-0.477,0.263-0.67,0.214c-0.177-0.042-0.427-0.352-0.408-0.517
			c0.082-0.705,0.492-0.851,1.021-0.373C146.64,110.229,146.56,110.563,146.573,110.792z"/>
		<path fill="#A0A0A0" d="M128.27,110.455c-0.37,0.663-0.603,1.496-1.153,1.938c-0.451,0.36-1.109-0.285-0.75-0.74
			c0.438-0.55,1.275-0.79,1.938-1.166L128.27,110.455z"/>
		<path fill="#A7A7A7" d="M121.941,115.535c-0.267,0.313-0.511,0.844-0.802,0.872c-0.323,0.031-0.697-0.396-1.043-0.623
			c0.269-0.322,0.506-0.861,0.813-0.899C121.218,114.841,121.593,115.295,121.941,115.535z"/>
		<path fill="#A8A8A8" d="M139.378,115.131c0.225,0.358,0.662,0.754,0.606,1.066c-0.052,0.296-0.616,0.504-0.955,0.752
			c-0.214-0.36-0.626-0.752-0.582-1.078C138.489,115.587,139.046,115.372,139.378,115.131z"/>
		<path fill="#A3A3A3" d="M152.325,114.72c0.223,0.096,0.529,0.14,0.631,0.306c0.094,0.154,0.051,0.552-0.082,0.655
			c-0.557,0.438-0.945,0.258-0.979-0.448C151.884,115.068,152.177,114.891,152.325,114.72z"/>
		<path fill="#9E9E9E" d="M120.634,125.369c-0.236,0.014-0.586,0.135-0.692,0.027c-0.483-0.502-0.36-0.934,0.296-1.071
			c0.178-0.037,0.536,0.179,0.598,0.356C120.903,124.862,120.712,125.136,120.634,125.369z"/>
		<path fill="#A1A1A1" d="M140.185,124.715c-0.1,0.221-0.143,0.527-0.315,0.632c-0.157,0.096-0.559,0.052-0.661-0.078
			c-0.441-0.557-0.257-0.95,0.459-0.988C139.831,124.271,140.011,124.563,140.185,124.715z"/>
		<path fill="#A8A8A8" d="M126.78,122.355c-0.199,0.009-0.482,0.106-0.586,0.011c-0.447-0.413-0.374-0.779,0.182-0.9
			c0.15-0.034,0.447,0.148,0.521,0.306C126.966,121.916,126.828,122.16,126.78,122.355z"/>
		<path fill="#A5A5A5" d="M121.835,107.261c-0.279,0.665-0.428,1.447-0.885,1.951c-0.393,0.432-0.998-0.006-0.707-0.504
			c0.352-0.584,1.053-0.965,1.604-1.436L121.835,107.261z"/>
		<path fill="#A1A1A1" d="M114.464,112.582c-0.174,0.079-0.373,0.25-0.555,0.225c-0.138-0.015-0.367-0.286-0.35-0.417
			c0.072-0.598,0.426-0.755,0.89-0.398C114.548,112.069,114.464,112.375,114.464,112.582z"/>
		<path fill="#A6A6A6" d="M142.749,107.261c0.885-0.971,2.004-1.48,3.293-1.644C145.171,106.61,144.03,107.07,142.749,107.261z"/>
		<path fill="#C7C7C7" d="M50.882,248.088c-2.071-4.581,2.103-7.554,2.386-13.006c2.211,5.175,2.907,8.592-0.769,11.417
			C52.407,247.477,51.513,247.648,50.882,248.088z"/>
		<path fill="#FBFBFB" d="M44.5,257.698c0.034-0.492,0.097-0.981,0.185-1.468c0.958-0.045,1.912-0.094,2.867-0.14
			c0,5.306,0.002,10.614,0.002,15.919c-0.538-0.535-1.077-1.07-1.615-1.605C45.716,266.139,47.11,261.695,44.5,257.698z"/>
		<path fill="#F7F7F7" d="M50.882,248.088c0.54-0.529,1.08-1.059,1.618-1.588c1.017,1.066,2.028,2.137,3.043,3.206
			c-0.548,0.981-1.096,1.965-1.645,2.949C52.896,251.131,51.889,249.609,50.882,248.088z"/>
		<path fill="#C2C2C2" d="M46.031,222.464c0.563-0.012,1.126-0.024,1.689-0.034c0.494-0.568,0.989-0.543,1.487-0.005
			c0.563,0.019,1.125,0.038,1.689,0.056c-2.166,1.818-4.32,1.871-6.465-0.037C44.973,221.396,45.508,221.398,46.031,222.464z"/>
		<path fill="#CBCBCB" d="M46.054,248.082c-0.896-1.177-2.024-2.303-0.907-4.018c1.512,1.121,0.599,2.711,0.893,4.035
			L46.054,248.082z"/>
		<path fill="#C5C5C5" d="M50.868,222.491c1.625-1.464,3.249-1.573,4.873,0.004C54.115,222.495,52.491,222.493,50.868,222.491z"/>
		<path fill="#C7C7C7" d="M46.041,248.1c0.386,0.649,0.968,1.267,1.109,1.967c0.128,0.649-0.54,0.869-0.769,0.302
			c-0.277-0.694-0.231-1.521-0.323-2.284L46.041,248.1z"/>
		<path fill="#EAEAEA" d="M46.031,222.464l-0.802,0.009l-0.803-0.029c0.538-1.049,1.076-2.1,1.613-3.151
			C46.038,220.35,46.033,221.405,46.031,222.464z"/>
		<path fill="#C5C5C5" d="M60.485,227.382c0.05,0.488,0.098,0.976,0.141,1.463c-0.574,0.351-1.054,0.218-0.975-0.338
			C59.712,228.102,60.193,227.753,60.485,227.382z"/>
		<path fill="#C1C1C1" d="M55.694,222.471c0.515,0.016,1.027,0.043,1.54,0.09c0.063,0.51,0.122,1.021,0.177,1.535
			C56.839,223.555,56.267,223.012,55.694,222.471z"/>
		<path fill="#BABABA" d="M208.866,220.549c1.021-3.535,2.215-6.925,6.52-7.729c-2.118,3.246-4.237,6.49-6.358,9.738
			C208.974,221.887,208.919,221.22,208.866,220.549z"/>
		<path fill="#A8A8A8" d="M212.12,230.957c0.201-1.907-0.349-4.123,2.25-5.202c1.51,2.207,1.178,4.192-0.441,6.108
			C213.173,231.855,212.577,231.54,212.12,230.957z"/>
		<path fill="#B9B9B9" d="M215.32,212.857c1.097-2.188,2.195-4.375,3.292-6.559C218.076,208.762,220.994,212.93,215.32,212.857z"/>
		<path fill="#F3F3F3" d="M212.12,230.957c0.602,0.304,1.205,0.604,1.809,0.906c-0.033,1.182-0.063,2.359-0.094,3.539
			c0.459,0.379,0.588,0.721,0.389,1.029c-0.189,0.289-0.372,0.434-0.551,0.434c-1.383-0.733-2.482-1.692-2.789-3.315
			C211.296,232.688,211.706,231.82,212.12,230.957z"/>
		<path fill="#B3B3B3" d="M218.616,238.494c0.223-1.279,0.342-2.629,1.803-3.205c0.131-0.051,0.571,0.255,0.568,0.389
			c-0.039,1.549-1.222,2.174-2.38,2.805L218.616,238.494z"/>
		<path fill="#C8C8C8" d="M228.29,216.07c-0.771-0.092-1.599-0.043-2.297-0.317c-0.569-0.223-0.352-0.892,0.304-0.762
			c0.706,0.135,1.323,0.71,1.982,1.094L228.29,216.07z"/>
		<path fill="#A2A2A2" d="M213.671,236.867c0.053-0.49,0.106-0.977,0.162-1.465c0.442,0.469,0.881,0.939,1.324,1.41
			C214.663,236.833,214.167,236.85,213.671,236.867z"/>
		<path fill="#A5A5A5" d="M218.605,238.482c-0.542,0.525-1.084,1.05-1.625,1.574l0.052,0.063c0.527-0.542,1.055-1.083,1.582-1.627
			L218.605,238.482z"/>
		<path fill="#A5A5A5" d="M215.38,241.751c0.017-0.542,0.033-1.09,0.047-1.634c0.537-0.023,1.07-0.021,1.604,0.004l-0.052-0.063
			C216.446,240.622,215.913,241.188,215.38,241.751z"/>
		<path fill="#FCFCFC" d="M121.915,94.381c-0.134-1.243-0.619-2.307-1.607-3.112c-0.381-0.244-0.549-0.531-0.508-0.86
			c0.045-0.35,0.119-0.527,0.222-0.527c-0.935-1.69-1.869-3.38-2.804-5.07c-0.646-2.07-1.295-4.137-1.942-6.204
			c-0.044-1.753-0.086-3.505-0.13-5.254c-0.286-0.754-0.237-1.483,0.139-2.192c1.662-1.815,4.152-1.867,6.202-2.854
			c4.541-0.675,7.832-4.457,12.45-4.949c0.75,0.002,1.496,0.069,2.234,0.191c1.076,0.319,2.104,0.756,3.143,1.184
			c1.061,0.423,1.949,1.108,2.846,1.792c2.741,2.986,6.708,2.841,10.21,3.912c0.64,0.5,1.093,1.134,1.398,1.875
			c0.299,1.701-0.324,3.179-1.109,4.619c-0.34,1.189-0.612,2.413-1.694,3.222c-1.869-1.622-4.686-0.34-6.492-2.161
			c1.816,1.807,4.601,0.573,6.496,2.122c0.104,2.333-1.049,4.297-1.914,6.344c-0.45,0.627-0.99,1.202-1.188,1.976
			c0.035,0.39,0.022,0.777-0.039,1.161c-4.793,5.406-9.327,11.376-18.075,8.188c-1.08,0.798-2.11,0.821-3.082-0.183
			c-0.578-0.479-1.153-0.957-1.729-1.436c-0.563,0.487-1.059,0.406-1.5-0.169l0.082,0.104c-0.607-0.534-1.125-1.152-1.712-1.704
			L121.915,94.381z"/>
		<path fill="#C5C5C5" d="M126.673,97.594c1.026,0.062,2.056,0.123,3.082,0.184C128.659,98.872,127.64,98.703,126.673,97.594z"/>
		<path fill="#B3B3B3" d="M121.813,94.389c0.57,0.571,1.14,1.136,1.711,1.702C122.958,95.524,122.384,94.96,121.813,94.389z"/>
		<path fill="#C1C1C1" d="M123.444,95.989c0.502,0.043,1,0.098,1.5,0.168C124.384,96.612,123.895,96.487,123.444,95.989z"/>
		<path fill="#9C9C9C" d="M115.427,72.111c-0.086,0.411-0.182,0.826-0.28,1.238c-1.937-0.879-2.843-2.432-2.981-4.491h-0.025
			c0.5-0.531,1.109-0.788,1.848-0.721c1.061,0.363,1.777,1.069,2.146,2.122C116.193,70.986,115.956,71.602,115.427,72.111z"/>
		<path fill="#808080" d="M109.025,59.336c1.315,1.38,1.519,2.83,0.292,4.374C109.22,62.254,109.124,60.795,109.025,59.336z"/>
		<path fill="#B9B9B9" d="M152.659,76.93c-0.049-1.515-0.096-3.033-0.146-4.547c-0.35-0.717-0.858-0.861-1.532-0.418
			c-4.136,0.221-7.987-0.584-11.399-3.031c-0.582-0.86-0.548-1.69,0.11-2.495c3.753-2.586,7.924-1.377,11.965-1.29
			c1.319,0.348,2.373,1.079,3.149,2.189c1.328,1.895-0.588,4.176,0.729,6.075c0.06,0.665,0.12,1.327,0.179,1.989
			C154.696,75.91,153.679,76.421,152.659,76.93z"/>
		<path fill="#DCDCDC" d="M147.874,88.428c0.396-0.656,0.787-1.316,1.185-1.975C148.661,87.112,148.265,87.772,147.874,88.428z"/>
		<path fill="#989898" d="M210.6,244.873c0.313-1.782,1.338-2.868,3.161-3.172C213.489,243.529,212.359,244.51,210.6,244.873z"/>
		<path fill="#FEFEFE" d="M112.45,97.49c0.46-0.488,0.922-0.979,1.385-1.467C113.374,96.51,112.91,97.002,112.45,97.49z"/>
		<path fill="#F2F2F2" d="M46.132,305.756c-0.052,2.076-0.105,4.15-0.16,6.223c-3.054-1.625-3.136-4.496-3.146-7.396
			c-0.012-3.365-0.019-6.726-0.027-10.092c2.211,2.239,1.099,5.772,3.182,8.059C46.029,303.619,46.083,304.688,46.132,305.756z"/>
		<path fill="#F1F1F1" d="M225.114,281.682c0.021,2.649,0.039,5.303,0.058,7.955c-0.034,1.096-0.07,2.191-0.104,3.287
			c-0.539,0-1.081,0-1.619-0.004C223.856,289.154,222.47,285.121,225.114,281.682z"/>
		<path fill="#979797" d="M207.323,240.13c-0.031,0.452-0.076,0.906-0.128,1.359c-0.093-0.321-0.231-0.64-0.257-0.966
			C206.931,240.4,207.187,240.261,207.323,240.13z"/>
		<path fill="#D0D0D0" d="M155.535,73.411c-1.263-1.252-1.362-2.861-1.403-4.491c-1.049-1.69-0.698-3.393-0.053-5.104
			c0.449-0.583,1.033-0.981,1.736-1.212C158.716,66.28,156.419,69.829,155.535,73.411z"/>
		<path fill="#8F8F8F" d="M155.813,62.602c-0.081,0.478-0.162,0.958-0.24,1.436c-0.936,0.483-1.759,0.344-2.477-0.421
			c-1.807-2.745-1.299-5.231,0.85-7.536c0.607-0.002,1.215-0.006,1.826-0.011c0.02,1.553,0.04,3.101,0.059,4.652
			C155.825,61.35,155.818,61.975,155.813,62.602z"/>
		<path fill="#ABABAB" d="M120.021,89.879c0.123,0.458,0.216,0.921,0.286,1.388c-0.174-0.301-0.385-0.586-0.502-0.907
			C119.765,90.242,119.943,90.042,120.021,89.879z"/>
		<path fill="#EFEFEF" d="M220.151,265.718c-0.011-2.14-0.023-4.276-0.034-6.42c0.572-0.002,1.144-0.004,1.716-0.009
			C221.794,261.568,221.956,263.898,220.151,265.718z"/>
		<path fill="#EAEAEA" d="M49.203,222.424l-0.742,0.012l-0.744-0.006C48.212,221.975,48.709,221.975,49.203,222.424z"/>
		<path fill="#808080" d="M120.366,48.152c0.526-0.047,1.057-0.069,1.588-0.065c-0.055,1.046-0.113,2.09-0.172,3.136
			C120.628,50.51,120.429,49.362,120.366,48.152z"/>
		<path fill="#D7D7D7" d="M125.163,55.935c5.327-2.339,10.646-2.41,15.961,0.036c0.258,1.029,1.02,1.765,1.578,2.623
			c0.25,0.667,0.338,1.354,0.273,2.062c-0.424,1.397-1.188,2.582-2.248,3.583c-1.268,0.807-2.643,1.148-4.139,0.898
			c-0.709-0.163-1.416-0.323-2.123-0.485c-2.219-1.192-4.135,1-6.287,0.554c-1.883-0.591-2.43-2.332-3.303-3.785
			c-0.244-0.595-0.396-1.223-0.457-1.862c-0.006-0.623,0.061-1.244,0.19-1.857C124.813,57.124,124.997,56.534,125.163,55.935z"/>
		<path fill="#CACACA" d="M153.946,56.081c0.064,2.657,0.129,5.314,0.189,7.972c0.826,1.4-0.073,1.85-1.209,2.165
			c-0.685-0.211-1.321-0.517-1.912-0.917c-1.834-1.66-3.813-3.071-6.299-3.636c-1.568-0.262-2.635-1.246-3.566-2.426l0.061,0.083
			c-0.795-1.29-0.002-1.915,1.037-2.437c1.941-1.834,4.811-1.082,6.93-2.44c0.57,0.009,1.141,0.017,1.713,0.024
			c0.59,0.467,1.121,0.99,1.586,1.585C152.964,56.07,153.456,56.079,153.946,56.081z"/>
		<path fill="#909090" d="M149.177,54.445c-1.701,1.976-4.364,1.919-6.481,3.013c-0.538-0.316-0.704-0.606-0.5-0.873
			c0.192-0.254,0.39-0.381,0.583-0.381C144.573,54.399,146.898,54.5,149.177,54.445z"/>
		<path fill="#6A6A6A" d="M142.782,56.202c-0.025,0.419-0.051,0.835-0.084,1.255c-0.496,0.621-0.992,1.244-1.484,1.863
			c-4.42-1.005-1.422-2.199-0.086-3.349C141.677,56.048,142.23,56.125,142.782,56.202z"/>
		<path fill="#6D6D6D" d="M118.618,56.004c0.002-0.492,0.038-0.978,0.104-1.465c1.769-0.061,3.418,0.234,4.736,1.538
			c-0.263,0.269-0.525,0.538-0.789,0.809C121.093,57.627,119.759,57.248,118.618,56.004z"/>
		<path fill="#636363" d="M125.163,55.935c0.771,0.352,1.426,0.802,1.563,1.72c-0.989,0.927-2.09,0.983-3.266,0.397
			c-0.563-0.699-0.515-1.377,0.063-2.038l-0.064,0.064C124.024,56.031,124.597,55.983,125.163,55.935z"/>
		<path fill="#D4D4D4" d="M152.475,56.054c-0.529-0.529-1.06-1.057-1.587-1.584c0.527-0.044,1.056-0.044,1.584,0
			C152.505,54.997,152.505,55.525,152.475,56.054z"/>
		<path fill="#D4D4D4" d="M117.022,54.452c-0.45,0.548-0.938,0.698-1.501,0.154C116.019,54.522,116.521,54.47,117.022,54.452z"/>
		<path fill="#D4D4D4" d="M111.931,56.019c2.283-0.267,3.957,2.238,6.369,1.371c0.922-0.596,1.944-0.532,2.963-0.456
			c0.619,0.246,1.099,0.665,1.449,1.223c0.526,0.763,1,1.561,1.326,2.444c0.278,0.563,0.564,1.117,0.897,1.657
			c1.183,2.134,4.854,4.241,0.09,6.45c-4.633,0.473-9.573,2.24-12.729-3.131C112.175,62.394,112.056,59.209,111.931,56.019z"/>
		<path fill="#B4B4B4" d="M112.298,65.58c4.516,2.528,9.449,1.423,14.233,1.624c1.048-0.823,0.345-2.596,1.774-3.209
			c2.14-0.834,4.275-2.082,6.443-0.061c0.975,0.523,0.989,1.072,0.045,1.645c-4.647,0.761-7.513,6.096-12.904,4.949
			c-0.353-0.014-0.705-0.027-1.059-0.042c-2.475-0.037-4.959-0.033-7.066-1.631c-0.541,0-1.086,0-1.627,0.001
			C112.19,67.766,112.244,66.676,112.298,65.58z"/>
		<path fill="#BFBFBF" d="M121.798,57.678c-1.166-0.096-2.332-0.192-3.498-0.288c0.127-0.458,0.231-0.922,0.32-1.386
			c1.633,0.002,3.271,0.004,4.904,0.008c0.002,0.538,0.004,1.078,0.006,1.617C122.97,58.215,122.393,58.234,121.798,57.678z"/>
		<path fill="#BFBFBF" d="M150.97,80.112c-4.971-0.196-9.65-1.565-14.281-3.135c5.089-0.26,10.049-0.006,14.275,3.174L150.97,80.112
			z"/>
		<path fill="#B4B4B4" d="M115.427,72.111c-0.045-0.517-0.082-1.033-0.111-1.552c2.165-1.375,4.354-1.269,6.555-0.092l0.023,0.063
			C120.06,72.353,117.673,71.946,115.427,72.111z"/>
		<path fill="#BFBFBF" d="M123.505,78.507c1.108-1.259,2.426-1.674,4.271-1.211c-1.345,1.777-2.964,0.89-4.337,1.136L123.505,78.507
			z"/>
		<path fill="#BBBBBB" d="M123.438,78.429c-1.227,0.969-2.419,2.082-4.205,0.894c1.232-1.492,2.861-0.591,4.268-0.818
			L123.438,78.429z"/>
		<path fill="#BDBDBD" d="M140.028,85.909c0.035,0.638-0.288,0.902-0.956,0.734c-0.244-0.063-0.504-0.186-0.681-0.358
			c-0.551-0.538-0.416-0.996,0.353-0.992C139.173,85.294,139.603,85.69,140.028,85.909z"/>
		<path fill="#B5B5B5" d="M128.007,85.394c-0.023,0.194,0.021,0.481-0.09,0.563c-0.156,0.121-0.471,0.186-0.637,0.104
			c-0.654-0.309-0.613-0.646,0.1-0.838C127.56,85.178,127.796,85.33,128.007,85.394z"/>
		<path fill="#878787" d="M150.979,71.963c0.68-0.474,1.145-0.161,1.533,0.418C152.001,72.255,151.487,72.115,150.979,71.963z"/>
		<path fill="#909090" d="M139.521,67.295c0.021,0.544,0.04,1.09,0.059,1.636c-0.553-0.538-1.104-1.08-1.656-1.619
			c0.264-0.152,0.528-0.302,0.793-0.453C138.984,67.001,139.253,67.147,139.521,67.295z"/>
		<path fill="#898989" d="M137.923,67.31c-0.845-0.244-1.379-0.781-1.58-1.634c0.279-0.142,0.559-0.285,0.838-0.427
			c0.853,0.456,1.654,0.932,0.758,2.03L137.923,67.31z"/>
		<path fill="#898989" d="M134.794,65.578c-0.017-0.546-0.031-1.092-0.045-1.642c0.504,0.054,1.008,0.122,1.51,0.202
			c0.527,0.319,0.713,0.65,0.559,1c-0.158,0.356-0.316,0.536-0.486,0.536h0.012l-0.779,0.028L134.794,65.578z"/>
		<path fill="#CFCFCF" d="M121.867,70.467c-2.185,0.034-4.368,0.063-6.554,0.092c-0.518-0.567-1.029-1.136-1.546-1.702
			C116.559,68.948,119.478,68.41,121.867,70.467z"/>
		<path fill="#C6C6C6" d="M136.331,65.675c-0.01-0.51-0.035-1.023-0.072-1.536c1.121-0.563,2.248-1.129,3.371-1.692
			c0.77-0.779,1.777-1.052,2.805-1.288c1.396-0.019,2.729,0.488,4.115,0.54c0.683,0.08,1.35,0.247,1.992,0.49
			c1.498,0.869,2.605,2.18,3.853,3.336l0.153,0.186c0.371,0.396,0.459,0.75,0.271,1.064c-0.179,0.29-0.345,0.436-0.498,0.436
			c-4.262,0.027-8.528,0.052-12.797,0.081l-0.792-0.021l-0.794,0.004C137.401,66.745,136.865,66.209,136.331,65.675z"/>
		<path fill="#949494" d="M152.317,67.214c0.096-0.499,0.172-0.998,0.229-1.501c0.529-0.552,1.062-1.109,1.588-1.66
			c0.481,0,0.957-0.004,1.438-0.013c-0.48,1.628-0.958,3.255-1.439,4.883C153.528,68.35,152.923,67.783,152.317,67.214z"/>
		<path fill="#C1C1C1" d="M121.798,57.678c0.578-0.017,1.155-0.034,1.732-0.048c1.066,0.008,2.133,0.017,3.196,0.025l-0.046-0.082
			c0.429,0.421,0.568,0.842,0.42,1.255c-0.149,0.415-0.297,0.621-0.438,0.621c0.548,1.515,1.097,3.032,1.646,4.545
			c-0.195,1.286-0.731,2.387-1.775,3.21c-2.211-2.134-5.794-0.835-7.947-3.123c0,0,0.17-0.736,0.168-0.734
			c0.142-0.485,0.41-0.896,0.793-1.228c0.391-0.269,0.816-0.489,1.258-0.656c-0.008,0.002,0.546-0.434,0.537-0.432
			c-0.006,0.002,0.363-0.577,0.359-0.575c0.12-0.438,0.158-0.888,0.111-1.338C121.815,58.636,121.811,58.157,121.798,57.678z"/>
		<path fill="#848484" d="M142.505,62.677c-0.959-0.076-1.92-0.152-2.875-0.229c0.504-1.069,1.015-2.138,1.521-3.209
			c1.676-0.055,3.354-0.106,5.032-0.163c1.729-0.4,2.813,0.427,3.589,1.853c0.172,0.742,0.065,1.451-0.277,2.125
			c-0.534,0.542-1.188,0.841-1.948,0.904c-0.49,0.05-0.977,0.098-1.463,0.152C144.831,63.773,143.857,62.762,142.505,62.677z"/>
		<path fill="#636363" d="M126.658,59.446c0.007-0.625,0.013-1.25,0.019-1.875c0.149,0.419,0.361,0.83,0.418,1.256
			C127.118,59.013,126.814,59.241,126.658,59.446z"/>
		<path fill="#DBDBDB" d="M149.173,62.417c-0.533-1.522-1.611-2.567-2.992-3.34c5.949-1.261,5.949-1.261,6.211,6.452
			c-1.838,0.144-3.486-0.267-4.848-1.569c0.559-0.531,1.118-1.061,1.68-1.592L149.173,62.417z"/>
		<path fill="#737373" d="M125.114,62.493c-0.552-0.014-1.104-0.027-1.652-0.039c-0.957,0.919-2.242,0.278-3.31,0.692
			c-0.582,0.075-1.164,0.087-1.748,0.037c-0.562-0.223-0.976-0.598-1.226-1.148c0.928-1.936,2.656-2.622,4.63-2.92
			c1.69,0.556,3.022,1.46,3.3,3.38L125.114,62.493z"/>
		<path fill="#C1C1C1" d="M117.179,62.035c0.478,0.167,0.963,0.315,1.449,0.441c1.086,0.508,1.09,1.026,0.016,1.552l-0.061,0.049
			C118.114,63.398,117.646,62.718,117.179,62.035z"/>
		<path fill="#5E5E5E" d="M142.505,62.677c2.176-1.941,3.021-0.615,3.576,1.434C144.128,65.497,143.124,64.559,142.505,62.677z"/>
		<path fill="#323232" d="M120.151,62.548c1.07-1.182,2.191-0.584,3.311-0.092c-0.691,1.359-1.879,1.726-3.301,1.613
			c-0.484-0.333-0.648-0.671-0.49-1.011C119.833,62.718,119.987,62.548,120.151,62.548z"/>
		<path fill="#DCDCDC" d="M120.151,62.548c0.066,0.506,0.072,1.014,0.01,1.521c-0.506-0.021-1.014-0.033-1.52-0.037
			c-0.004-0.52-0.01-1.038-0.014-1.555C119.144,62.385,119.651,62.41,120.151,62.548z"/>
		<polygon fill="#ABABAB" points="149.173,62.417 149.528,62.727 149.226,62.367 		"/>
	</g>
</g>
<g>
	<path fill="none" stroke="#626262" stroke-miterlimit="10" d="M140.938,8.629c39.024,0,78.05,0.104,117.073-0.143
		c4.607-0.03,6.109,1.708,6.1,8.99c-0.149,106.807-0.149,213.61-0.001,320.414c0.012,7.245-1.455,9.022-6.084,9.009
		c-78.204-0.195-156.409-0.188-234.613-0.012c-4.401,0.009-5.862-1.713-5.854-8.623c0.132-107.038,0.132-214.078,0-321.118
		c-0.009-6.885,1.418-8.676,5.839-8.651C62.578,8.726,101.76,8.629,140.938,8.629z"/>
	<path fill="none" stroke="#626262" stroke-miterlimit="10" d="M208.752,342.544c0.369,0.188,0.734,0.435,1.113,0.508
		 M67.943,342.927c0.112,0.08,0.225,0.16,0.336,0.24c0.059-0.17,0.116-0.342,0.176-0.513"/>
	<path fill="none" stroke="#626262" stroke-miterlimit="10" d="M181.85,345.306c1.271-3.23,2.54-3.23,3.811,0
		C184.39,345.306,183.119,345.306,181.85,345.306z"/>
	<path fill="none" stroke="#626262" stroke-miterlimit="10" d="M209.865,343.052c-0.379-0.074-0.744-0.319-1.113-0.51"/>
	<path fill="none" stroke="#626262" stroke-miterlimit="10" d="M68.455,342.655c-0.06,0.171-0.117,0.342-0.176,0.512
		c-0.113-0.078-0.225-0.158-0.336-0.238"/>
	<path fill="none" stroke="#626262" stroke-miterlimit="10" d="M20.469,218.614c-0.332-0.5-0.664-1.001-0.996-1.502
		C19.805,217.613,20.137,218.114,20.469,218.614z"/>
</g>
</svg>
