<?xml version="1.0" encoding="utf-8"?>
<!-- Generator: Adobe Illustrator 15.1.0, SVG Export Plug-In . SVG Version: 6.00 Build 0)  -->
<!DOCTYPE svg PUBLIC "-//W3C//DTD SVG 1.1//EN" "http://www.w3.org/Graphics/SVG/1.1/DTD/svg11.dtd">
<svg version="1.1" id="Layer_1" xmlns="http://www.w3.org/2000/svg" xmlns:xlink="http://www.w3.org/1999/xlink" x="0px" y="0px"
	 width="325.984px" height="437.631px" viewBox="0 0 325.984 437.631" enable-background="new 0 0 325.984 437.631"
	 xml:space="preserve">
<g>
	<path d="M130.473,60.094c-4.083-0.836-7.294,1.295-7.972,5.392c-0.249,1.501,1.839,2.25,2.115,0.622
		c0.353-2.084,1.464-3.112,2.944-3.445c-0.541,0.939-0.728,2.05-0.177,3.068c0.625,1.154,1.961,1.635,3.197,1.73
		c1.25,0.095,2.546-0.385,3.193-1.499c0.323-0.557,0.385-1.141,0.296-1.718c1.413,0.96,2.563,2.201,3.969,3.421
		c0.855,0.742,1.938-0.117,1.638-1.166C138.673,62.988,133.72,60.758,130.473,60.094z"/>
	<path d="M155.568,58.782c2.135-2.018,4.492-2.922,7.444-2.857c1.546,0.034,3.088,0.538,4.425,1.287
		c1.127,0.631,1.641,1.79,2.793,2.322c0.613,0.283,1.053-0.517,1.061-0.997c0.057-3.443-5.015-4.836-7.669-5.147
		c-3.531-0.413-7.787,1.002-8.905,4.66C154.584,58.479,155.132,59.195,155.568,58.782z"/>
	<path d="M120.645,58.621c0.714,0.305,1.217-0.186,1.765-0.616c1.325-1.039,2.932-1.682,4.513-2.212
		c4.134-1.386,8.128-0.632,10.686,3.029c0.864,1.238,2.392-0.561,1.724-1.643c-2.771-4.485-7.477-5.367-12.339-4.115
		C126.239,53.26,117.391,57.23,120.645,58.621z"/>
	<path d="M143.381,82.922c-3.012,0.828-5.778,2.752-8.778,3.78c-3.251,1.113-6.692,1.423-10.105,1.22
		c-0.354-0.021-0.375,0.524-0.142,0.682c2.708,1.821,5.564,1.601,8.665,1.006c3.547-0.682,8.384-2.353,11.074-4.856
		C144.761,84.134,144.501,82.614,143.381,82.922z"/>
	<path d="M170.223,86.981c-6.596-1.869-13.172-0.711-19.385-4.375c-1.243-0.733-2.05,1.384-0.963,2.054
		c5.674,3.502,13.528,4.882,20.153,4.446C171.117,89.034,171.254,87.274,170.223,86.981z"/>
	<path d="M142.985,95.049c-1.297,0.909-2.608,1.79-4.039,2.477c-0.725,0.348-1.501,0.637-2.299,0.76
		c-0.622,0.096-1.186-0.042-1.804,0.116c-0.88,0.226-0.715,1.468-0.167,1.909c2.587,2.083,7.247-2.311,9.092-3.796
		C144.489,95.937,143.864,94.433,142.985,95.049z"/>
	<path d="M159.341,97.187c-2.978-1.148-6.112-1.436-8.947-3.063c-0.784-0.449-1.193,0.786-0.592,1.25
		c2.553,1.969,6.054,3.763,9.367,3.687C160.188,99.035,160.169,97.505,159.341,97.187z"/>
	<path d="M147.456,107.044c-0.458,0.67-1.295,0.775-2.037,0.576c-1.294-0.347-1.684,1.952-0.466,2.173
		c1.519,0.276,3.109-0.167,3.769-1.678c0.158-0.361,0.123-0.8-0.15-1.099C148.285,106.702,147.717,106.662,147.456,107.044z"/>
	<path d="M117.589,98.391c-0.078,0.03-0.157,0.057-0.238,0.078c-0.241,0.073-0.348,0.28-0.388,0.504
		c-1.218,1.459-1.64,3.479-3.672,4.181c-0.369,0.128-0.297,0.786,0.111,0.783c1.516-0.009,2.76-0.923,3.681-2.116
		c-0.052,0.725-0.202,1.435-0.511,2.118c-0.124,0.208-0.247,0.418-0.341,0.646c-0.459,1.101,1.065,2.254,1.561,1.008
		c0.727-1.765,2.69-2.696,3.724-4.208c-0.074,0.451-0.143,0.89-0.071,1.375c0.12,0.806,1.066,0.757,1.412,0.18
		c0.666-1.115,0.313-3.095-0.129-4.246c-0.262-0.68-1.122-0.551-1.117,0.205c0.001,0.192,0.008,0.385,0.014,0.577
		c-0.123-0.058-0.262-0.075-0.408-0.018c-1.075,0.413-1.943,1.518-2.763,2.301c-0.034,0.033-0.067,0.066-0.102,0.1
		c-0.022-0.643-0.08-1.292-0.146-1.956c0.057-0.126,0.12-0.252,0.169-0.378C118.573,99.026,118.268,98.146,117.589,98.391z"/>
	<path d="M314.977,222.083c-0.809-3.322-2.616-6.111-4.112-9.152c-2.106-4.285-2.237-9.311-3.861-13.775
		c-2.258-6.209-6.556-11.271-11.348-15.695c-4.15-3.834-7.277-9.756-12.582-12.15c-1.32-7.33-3.288-16.334-8.818-21.482
		c-3.176-2.955-7.637-4.686-11.584-6.332c-5.74-2.395-11.414-4.631-16.939-7.521c-10.962-5.734-22.04-11.683-32.71-17.932
		c-4.344-2.543-8.507-5.274-13.178-7.202c-5.286-2.182-11.594-3.366-17.23-4.433c-3.47-2.692-8.081-4.722-11.476-2.136
		c-0.001-0.026-0.002-0.055-0.002-0.081c0.618-1.352,1.227-2.729,1.811-4.127c0.037,0.175,0.102,0.343,0.207,0.493
		c2,2.852,6.015,3.657,9.287,3.238c1.051-0.134,1.404-1.461,0.729-2.224c-2.083-2.354-3.64-4.672-3.959-7.851
		c-0.258-2.551,0.126-5.218,0.168-7.775c0.005-0.276-0.132-0.473-0.313-0.573c2.288-2.767,3.9-6.413,4.884-9.579
		c1.037-3.336,0.879-6.359-0.436-9.046c1.203-0.081,1.837-1.571,2.176-2.651c0.577-1.846-0.158-4.004-0.858-5.699
		c-0.465-1.123-1.251-2.51-2.25-3.746c0.543,0.061,1.109-0.22,1.198-0.938c1.279-10.328,1.292-20.923-3.238-30.498
		c-3.467-7.328-9.909-14.269-17.341-17.613c-8.277-3.723-17.643-3.25-26.308-1.122c-6.915,1.699-16.75,7.488-18.918,14.975
		c-0.281-0.377-0.737-0.551-1.251-0.192c-10.354,7.229-11.691,24.59-9.482,35.928c0.193,0.989,1.509,0.659,1.476-0.27
		c-0.397-11.182-0.935-26.108,9.097-33.582c0.015-0.012,0.026-0.026,0.041-0.039c0.297,0.341,0.869,0.336,1.066-0.298
		c2.383-7.645,12.639-12.908,19.832-14.52c8.016-1.795,17.099-1.661,24.542,2.027c6.81,3.374,11.738,9.57,15.297,16.115
		c4.756,8.747,3.703,19.287,2.933,28.792c-0.003,0.032,0.011,0.057,0.011,0.087c-1.221-1.179-2.652-2.019-4.167-1.977
		c-0.201-0.488-0.418-0.974-0.658-1.458c-0.287-0.581-0.716-0.742-1.117-0.651c-0.161-0.238-0.384-0.441-0.65-0.499
		c-0.433-0.095-0.868-0.152-1.303-0.22c3.094-6.126-6.905-14.209-11.293-16.776c-8.189-4.793-18.349,2.087-23.513,9.016
		c-0.241-2.203-0.118-4.398,0.495-6.603c0.295-1.058-0.753-2.059-1.734-1.493c-3.032,1.747-5.967,4.229-7.393,7.412
		c-0.708-2.643-0.649-5.426,0.27-8.06c0.26-0.749-0.323-2.117-1.274-1.428c-3.787,2.748-1.5,10.697,0.281,14.023
		c0.672,1.254,2.09,0.445,2.122-0.735c0.083-3.136,2.394-5.604,4.922-7.422c-0.288,2.611-0.044,5.242,0.582,7.838
		c0.275,1.139,1.571,1.235,2.117,0.272c3.812-6.719,13.905-14.753,22.05-10.508c3.653,1.904,12.283,8.835,10.708,13.729
		c-0.062,0.193-0.049,0.37-0.005,0.534c-4.511-0.388-9.147,0.333-13.638,0.398c-6.724,0.097-13.588-0.211-20.301-0.62
		c-4.232-0.257-8.458-0.547-12.698-0.569c0.377-2.392,1.723-4.474,2.405-6.79c0.237-0.804-0.808-1.346-1.238-0.578
		c-1.311,2.343-2.891,4.658-3.186,7.359c-2.501,0.009-5.511,0.17-7.452,1.649c-0.186-0.1-0.403-0.074-0.583,0.195
		c-0.916,1.356-1.85,2.901-2.508,4.524c-6.25-2.08-3.772,9.865-3.829,13.257c-0.042,2.522,0.106,5.037,0.604,7.366
		c-2.966,4.065-1.711,9.581-0.042,13.962c1.663,4.363,6.133,10.101,0.772,13.383c-0.974,0.597-0.345,2.416,0.819,2.095
		c4.111-1.13,4.536-5.134,3.62-8.718c-0.624-2.446-1.875-4.754-2.917-7.038c-1.792-3.927-1.877-7.492-1.628-11.455
		c1.269,3.71,3.696,6.723,8.096,8.163c0.951,5.97,3.912,12.128,6.9,17.357c-0.257,1.377-0.413,2.81-0.46,4.269
		c-3.17,0.643-6.128,2.292-8.865,4.177c-0.138-0.239-0.356-0.4-0.668-0.345c-19.763,3.436-38.849,15.31-53.198,28.958
		c-14.706,13.99-22.31,31.486-27.628,50.75c-2.72,9.852-4.942,19.832-7.916,29.615c-3.251,10.697-8.624,20.125-12.847,30.387
		c-2.528,6.143-4.032,15.17-1.791,21.592c0.49,1.402,1.372,2.459,2.489,3.275c-0.01,0.064-0.011,0.129,0.008,0.189
		c1.55,5.021-0.057,10.748,1.938,15.609c0.321,0.783,0.77,1.383,1.301,1.855c-2.72,4.85-4.541,9.963-5.314,15.498
		c-0.827,5.922,0.442,11.15,2.431,16.678c1.304,3.625,2.633,7.533,4.91,10.709c-0.071,0.15-0.122,0.326-0.114,0.553
		c0.41,10.938,2.036,21.879,0.655,32.791c-1.366,10.805-4.022,21.352-3.102,32.32c0.639,7.631,1.662,16.693,7.943,21.863
		c0.416,0.342,1.108,0.148,1.411-0.244c2.672-3.484,1.16-8.252,0.066-12.061c-1.948-6.783-2.112-13.49-1.841-20.535
		c0.33-8.572,2.528-16.9,4.066-25.303c1.416-7.738,1.357-15.029,0.663-22.779c1.883,0.584,3.796,0.939,5.529,0.998
		c0.98,0.031,1.111-1.107,0.675-1.791c0.219,0.09,0.436,0.188,0.656,0.27c0.859,0.316,1.282-1.049,0.746-1.568
		c-2.688-2.602-6.312-3.883-8.972-6.586c-2.934-2.984-3.936-7.865-5.814-11.529c-0.162-0.316-0.521-0.107-0.53,0.18
		c-0.235,7.707,4.826,14.43,11.365,18.029c-3.092-1.051-6.181-1.717-9.037-3.648c-4.161-2.818-5.855-9.201-7.454-13.654
		c-3.616-10.076-1.976-19.795,2.966-29.109c0.389,0.133,0.796,0.232,1.213,0.307c0.014,0.043,0.025,0.09,0.039,0.131
		c0.275,0.801,1.095,0.682,1.325,0.037c1.146,0.08,2.322,0.045,3.415,0.021c2.787-0.059,7.912-0.096,11.227-1.646
		c4.787,4.613,6.815,10.83,6.926,17.439c0.053,3.225-0.554,6.385-0.412,9.625c0.137,3.139,1.055,6.145,2.146,9.068
		c-0.078,0.064-0.154,0.141-0.227,0.238c-2.621,3.559-6.643-3.078-7.432-5.395c-1.175-3.455,0.444-6.996-2.133-9.727
		c0.018-0.799-0.052-1.625-0.249-2.484c-0.14-0.621-1.033-0.441-0.957,0.174c0.071,0.566,0.079,1.117,0.036,1.65
		c-0.036,0.072-0.045,0.154-0.029,0.232c-0.383,3.525-3.026,6.352-5.457,8.887c-0.596,0.621-0.245,1.594,0.351,1.947
		c-0.027,4.131,2.13,9.752,5.337,12.025c-0.11,0.416-0.032,0.912,0.352,1.193c1.517,1.119,3.088,2.449,4.079,4.1
		c-1.242-0.094-1.541,2.051-0.3,2.43c0.831,0.254,1.568,0.34,2.384-0.002c0.573-0.24,0.932-0.941,0.719-1.553
		c-1-2.873-3.167-4.863-5.66-6.467c0.125-0.395,0.097-0.869-0.163-1.193c-1.435-1.795-2.772-3.428-3.786-5.52
		c-0.812-1.678-1.291-3.445-1.831-5.205c0.018-0.02,0.038-0.031,0.056-0.053c2.107-2.428,4.077-5.008,4.814-7.955
		c0.428,2.418-0.145,4.738,0.233,7.377c0.271,1.895,1.208,3.594,2.328,5.131c2.187,2.998,6.041,6.191,8.975,2.227
		c0.594-0.803,0.072-1.969-0.634-2.221c-0.235-1.248-0.459-2.494-0.646-3.744c3.762-1.016,6.55-3.885,9.202-6.643
		c2.97-3.09,5.941-6.188,8.899-9.287c-3.741,8.332-3.563,17.986-3.56,26.967c0.003,5.01,0.051,10.018-0.167,15.025
		c-0.252,5.791-1.228,11.545-1.723,17.32c-0.987,11.539-1.081,23.137-1.327,34.707c-0.163,7.658-2.251,17.461,2.072,24.35
		c0.932,1.484,2.863-0.064,2.016-1.414c-2.198-3.5-2.23-7.643-2.148-11.65c0.099-4.791,0.36-9.58,0.459-14.375
		c0.221-10.564,0.369-21.133,1.193-31.674c0.776-9.949,1.89-19.586,1.813-29.596c-0.081-10.459,0.634-20.535,2.632-30.814
		c0.011-0.055,0.007-0.107-0.004-0.158c0.135-0.143,0.272-0.283,0.408-0.426c0.756-0.795-0.164-2.49-1.225-1.787
		c-3.615,2.396-6.436,6.135-9.306,9.336c-2.934,3.273-6.31,6.049-9.365,9.18c-0.294-2.189-0.462-4.391-0.371-6.627
		c0.067-1.627,0.236-3.209,0.378-4.789c0.278,0.502,0.79,0.863,1.467,0.732c4.657-0.898,8.064-5.541,10.863-8.998
		c3.667-4.527,7.285-9.135,10.107-14.248c7.004-12.693,4.981-28.627,7.238-42.498c0.267-1.641,0.603-3.25,0.979-4.846
		c0.167-0.6,0.321-1.207,0.454-1.826c1.211-4.705,2.75-9.285,4.137-14.006c2.235-7.607,2.494-15.756,2.688-23.625
		c0.218-8.812,0.411-17.5,1.852-26.221c1.222-7.389,3.818-14.445,5.288-21.742c0.396-0.014,0.787-0.262,0.922-0.809
		c1.181-4.787,2.491-9.084,4.833-13.453c2.149-4.012,4.585-7.834,6.604-11.918c2.427-4.914,5.19-8.725,9.413-12.231
		c3.872-3.216,8.031-5.743,12.525-7.952c0.192,4.901,1.53,9.891,4.035,13.771c3.897,6.036,10.982,7.885,17.734,8.167
		c6.701,0.275,14.26-1.115,19.506-5.537c3.688-3.108,4.817-7.858,5.117-12.738c0.05,0.023,0.095,0.051,0.149,0.068
		c6.743,2.172,8.765,9.605,11.733,15.264c2.784,5.307,6.871,12.299,5.901,18.508c-0.649,4.152-11.101,5.334-14.346,6.176
		c-4.281,1.107-8.458,2.631-12.713,3.84c-5.143,1.459-10.449,2.078-15.735,2.779c-8.13,1.078-16.36,1.893-24.391,3.592
		c-2.736,0.58-6.018,1.115-8.597-0.262c-3.749-2.002-1.89-11.152-1.444-14.328c0.861-6.133,2.135-12.336,3.261-18.436
		c1.165-6.306,3.054-13.258,8.334-17.392c0.48-0.375,0.2-1.61-0.489-1.261c-5.831,2.953-7.989,9.062-9.478,15.066
		c-0.929,3.748-1.399,7.609-2.007,11.418c-0.754,4.721-1.937,9.318-2.386,14.094c-0.603,6.416-0.547,13.662,7.238,14.381
		c3.95,0.365,8.297-1.098,12.145-1.695c5.943-0.924,11.918-1.645,17.882-2.422c5.523-0.719,10.993-1.438,16.381-2.877
		c4.938-1.316,9.733-3.115,14.702-4.318c4.909-1.188,13.196-2.338,14.152-8.42c1.044-6.639-3.396-14.277-6.329-19.92
		c-3.311-6.371-5.72-14.101-13.239-16.525c-0.236-0.076-0.445-0.072-0.628-0.02c0.012-1.1-0.003-2.189-0.024-3.256
		c3.39-0.774,5.618-1.147,8.918,0.996c3.134,2.035,5.55,5.304,7.724,8.282c5.443,7.455,9.908,15.527,13.495,24.025
		c4.18,9.898,6.716,19.6,7.183,30.346c0.337,7.764-0.102,16.596,2.854,24.006c0.559,4.26,0.552,8.52,1.124,12.793
		c0.638,4.766,1.736,9.459,2.528,14.199c1.449,8.668,2.309,16.99,5.899,25.137c3.594,8.148,9.868,14.09,15.722,20.592
		c6.594,7.324,12.925,15.275,16.847,24.387c0.705,1.639,2.738,0.045,2.098-1.439c-3.52-8.164-9.031-15.33-14.756-22.064
		c-2.722-3.201-5.614-6.188-8.367-9.271c1.799-11.021,1.585-22.137,2.225-33.246c0.481-8.377,2.146-17.877-0.41-26.131
		c1.783,2.012,3.635,3.953,5.343,5.895c3.148,3.578,6.41,7.043,9.975,10.211c3.556,3.16,8.034,5.164,11.388,8.498
		c2.956,2.939,4.505,7.473,5.279,11.469c0.522,2.697,1.218,5.35,1.539,8.086c0.29,2.479-1.104,5.486-1.456,7.945
		c-0.697,4.834,0.684,10.877,4.862,13.568c-1.172,3.412-3.491,6.238-4.754,9.611c-0.182,0.484-0.267,1.014-0.25,1.537
		c-5.152,5.021-8.573,10.938-11.396,17.518c-2.066,4.82-5.125,9.961-4.935,15.363c0.11,3.123,2.557,5.344,5.489,3.33
		c0.632-0.436,1.188-0.922,1.687-1.449c-0.007,0.078,0.008,0.154,0.048,0.221c0.819,1.307,1.287,2.76,2.012,4.105
		c0.086,0.158,0.195,0.248,0.31,0.307c-2.979,2.404-9.838,2.344-9.106,7.559c0.093,0.66,0.514,1.039,0.966,1.152
		c0.037,0.527,0.353,1.014,0.961,0.975c2.116-0.133,4.396-0.451,6.656-1.004c3.815,0.902,7.758,0.059,11.345-1.49
		c1.999,4.336,2.715,8.684,3.244,13.467c0.776,6.998,1.374,13.973,1.132,21.021c-0.47,13.678,1.923,26.854,6.717,39.648
		c0.604,1.609,2.821,0.773,2.246-0.768c-2.484-6.652-4.439-13.443-5.628-20.449c-1.358-8.012-0.926-15.961-1.069-24.031
		c-0.111-6.32-0.878-12.65-1.729-18.908c-0.42-3.084-0.949-8.197-3.55-10.609c0.542-0.266,1.076-0.545,1.596-0.836
		c4.246-2.369,10.131-7.285,11.729-11.982c0.218-0.643-0.258-1.729-1.061-1.186c-1.913,1.297-3.177,3.467-4.732,5.176
		c-1.843,2.023-3.955,3.746-6.231,5.256c-2.127,1.412-4.37,2.232-6.679,2.838c3.7-2.127,6.645-5.248,7.653-9.715
		c0.127-0.564-0.512-1.508-1.123-0.965c-2.895,2.578-4.363,6.146-7.641,8.514c-3.575,2.582-8.262,3.287-12.547,3.738
		c-0.016-2.443,4.175-3.078,5.889-3.777c2.295-0.936,4.128-3.238,5.528-5.182c1.531-2.127,2.203-4.398,2.188-6.98
		c-0.009-1.314-0.354-2.691-0.61-3.969c-0.577-2.881-0.46-5.176,0.113-8.055c0.058-0.287-0.253-0.578-0.487-0.318
		c-0.527,0.584-0.921,1.182-1.218,1.795c-2.997,1.215-4.337,4.383-5.468,7.221c-0.87,2.186-1.701,4.262-3.53,5.852
		c-3.233,2.809-2.896-2.02-2.535-3.814c0.939-4.67,3.818-9.668,5.791-14.004c2.245-4.936,5.154-9.35,8.946-13.197
		c1.381,1.486,2.982,2.744,4.709,3.822c0.073,0.062,0.154,0.113,0.239,0.15c3.773,2.301,8.159,3.695,12.438,4.24
		c0.387,0.049,0.67-0.094,0.854-0.338c-0.682,6.348,1.194,13.176-2.694,18.76c-0.76,1.09,0.504,2.979,1.543,1.729
		c4.778-5.746,3.129-14.766,2.326-21.557c-0.003-0.027-0.015-0.049-0.021-0.074c2.03-1.729,3.49-4.684,4.887-6.756
		c2.013-2.988,4.457-5.662,6.463-8.625c0.572-0.842-0.107-2.646-1.255-1.826c-2.643,1.893-4.469,5.002-6.271,7.656
		c-1.759,2.588-4.295,5.398-5.606,8.32c-0.091-0.035-0.188-0.062-0.294-0.076c-0.558-0.07-1.102-0.17-1.643-0.273
		c3.187-4.363,5.463-9.727,7.465-14.74c2.621-0.168,5.214-0.664,7.461-1.764c9.767-4.775,8.054-19.645,11.949-28.059
		C312.123,233.833,316.47,228.218,314.977,222.083z M21.706,338.138c1.409,1.307,3.255,2.4,5.242,3.25
		c0.688,7.367,0.888,14.215-0.294,21.576c-1.223,7.627-3.187,15.098-4.087,22.781c-0.746,6.357-1,13.658,0.075,19.988
		c0.637,3.756,4.199,10.33,2.581,14.305c-6.009-5.967-6.285-18.133-6.142-25.848c0.198-10.73,3.252-21.221,3.934-31.926
		c0.508-7.969-0.602-16.436-1.588-24.42C21.524,337.941,21.606,338.046,21.706,338.138z M18.752,290.632
		c-1.329-1.234-1.126-4.389-1.239-6.027c-0.179-2.604,0.204-6.09-1.3-8.402c0.667,0.287,1.375,0.523,2.111,0.717
		c0.006,4.625,0.408,9.801,1.513,14.365C19.434,291.13,19.065,290.923,18.752,290.632z M22.026,291.665
		c-0.174-2.025-0.64-4.061-0.949-6.041c-0.43-2.758-0.722-5.51-0.803-8.287c0.912,0.154,1.836,0.258,2.748,0.334
		c-0.582,4.389-0.563,9.727,0.78,13.996C23.254,291.675,22.645,291.691,22.026,291.665z M25.619,291.64
		c-0.249-2.32-0.767-4.639-1.078-6.947c-0.313-2.312-0.399-4.646-0.691-6.957c1.198,0.078,2.352,0.115,3.397,0.15
		c-0.577,4.459-0.283,9.195,0.3,13.6c0.004,0.031,0.021,0.057,0.026,0.086C26.915,291.603,26.26,291.626,25.619,291.64z
		 M29.136,291.464c0.418-4.463-0.606-9.043-0.875-13.543c0.039,0.002,0.081,0.004,0.118,0.004c0.58,0.023,1.149,0.039,1.712,0.045
		c-0.064,4.32,0.467,8.986,1.562,13.178C30.825,291.296,29.981,291.392,29.136,291.464z M33.408,290.745
		c-0.324-4.279-1.479-8.471-1.632-12.799c0.708-0.025,1.405-0.078,2.095-0.152c0.028,1.711,0.25,3.428,0.434,5.131
		c0.252,2.344,0.281,4.881,1.035,7.131C34.72,290.325,34.078,290.56,33.408,290.745z M36.865,289.144
		c0.063-2.078-0.447-4.225-0.715-6.264c-0.231-1.762-0.357-3.561-0.618-5.326c0.767-0.141,1.527-0.328,2.28-0.559
		C38.031,280.593,39.56,286.622,36.865,289.144z M71.031,259.702c-0.591,7.834-0.699,15.674-3.024,23.248
		c-1.845,6.006-5.831,11.615-9.829,16.381c-3.246,3.869-6.784,10.117-12.12,11.139c-0.232,0.045-0.414,0.145-0.556,0.275
		c0.085-1.322,0.116-2.654,0.018-4.021c-0.413-5.744-2.761-11.373-6.823-15.459c0.115-0.127,0.234-0.248,0.333-0.387
		c2.917-4.055,1.294-10.086,1.07-14.691c0-0.012-0.006-0.02-0.006-0.029c0.522-0.236,1.043-0.496,1.565-0.789
		c2.852-1.6,5.39-3.764,8.109-5.572c2.504-1.668,5.3-2.91,7.872-4.48c5.711-3.488,10.698-7.977,14.213-13.414
		C71.513,254.499,71.227,257.103,71.031,259.702z M111.94,113.763c-4.342,3.346-7.527,6.852-10.112,11.697
		c-2.545,4.77-5.125,9.489-7.748,14.221c-2.279,4.109-4.428,8.83-4.645,13.609c-3.07,5.723-4.441,12.598-5.782,18.889
		c-1.558,7.311-2.31,14.729-2.573,22.188c-0.294,8.314-0.175,16.617-1.384,24.871c-1.058,7.23-4.158,13.842-5.776,20.924
		c-0.204,0.891-0.373,1.793-0.555,2.691c-2.601,7.934-8.071,14.008-15.165,18.857c-3.782,2.584-7.984,4.426-11.74,7.045
		c-3.826,2.668-7.192,5.303-11.684,6.105c-0.212-0.104-0.469-0.076-0.63,0.098c-0.392,0.053-0.79,0.098-1.199,0.121
		c-4.073,0.246-8.246-0.049-12.265-0.717c-0.205-0.033-0.412-0.076-0.618-0.115c-0.272-0.4-0.788-0.482-1.193-0.252
		c-1.079-0.256-2.141-0.588-3.12-1.084c-2.215-1.119-2.332-4.477-2.425-6.598c-0.468-10.543,4.685-18.92,8.844-28.186
		c8.418-18.76,11.448-39.088,17.882-58.498c3.307-9.975,7.818-19.477,14.219-27.85c6.527-8.537,14.889-15.73,23.672-21.85
		c10.581-7.374,22.089-12.157,34.144-16.28C112.038,113.688,111.988,113.726,111.94,113.763z M179.897,101.256
		c-1.99-0.181-3.854-0.932-5.291-2.493c-0.358-0.389-0.711-0.45-1.002-0.323c1.417-3.561,2.612-7.237,3.304-10.95
		c0.41-0.327,0.805-0.676,1.182-1.057c-0.584,2.883-1.175,5.808-0.821,8.756C177.54,97.46,178.581,99.448,179.897,101.256z
		 M177.64,72.084c1.531-6.123,2.291-12.183,0.597-18.079c1.896,0.853,3.342,3.129,4.236,4.757c0.634,1.15,1.058,2.422,1.134,3.735
		c0.064,1.125-0.713,1.716-1.065,2.604c-0.507-0.718-1.106-1.408-1.797-2.07c-0.202-0.191-0.455,0.099-0.323,0.309
		c2.242,3.55,2.548,7.888,1.483,11.847c-0.849,3.159-2.7,5.592-4.535,8.088c-0.05-3.698-1.515-7.037-5.702-7.762
		c-2.772-0.479-5.491-0.197-8.242-0.972c-0.548-0.154-1.066-0.365-1.568-0.609c4.669,0.507,9.748-1.294,14.642-0.794
		C177.088,73.198,177.518,72.572,177.64,72.084z M126.377,50.385c4.106,0.048,8.204,0.392,12.301,0.657
		c6.07,0.394,12.217,0.497,18.3,0.623c2.879,0.06,5.751-0.162,8.623-0.313c1.493-0.079,2.985-0.115,4.479-0.119
		c0.638-0.002,2.648,0.44,3.298,0.118c0.225,0.682,0.816,1.154,1.529,0.715c2.722,5.946,2.119,12.04,0.653,18.224
		c-3.498-0.189-6.908,0.558-10.382,0.968c-4.236,0.503-6.566-0.815-9.524-3.452c0.323-0.167,0.587-0.496,0.619-1
		c0.102-1.63,1.049-2.665,2.301-3.286c-0.167,1.872,0.945,3.802,2.903,4.288c1.149,0.285,2.295-0.135,3.04-1.041
		c0.772-0.94,0.952-2.174,0.904-3.377c1.453,0.668,2.626,1.824,3.392,3.414c0.65,1.35,2.298,0.2,1.975-1.025
		c-2.035-7.717-15.997-7.568-16.512,0.883c-3.303-2.512-7.935-4.214-11.382-0.88c-2.666,2.577-4.18,5.357-8.264,5.651
		c-4,0.288-8.001-0.351-11.967-0.748c-1.34-0.135-3.703,0.127-4.263-1.487c-0.71-2.042-0.503-4.533-0.431-6.66
		c0.133-3.965,0.564-7.76-0.168-11.679C120.327,49.927,124.063,50.358,126.377,50.385z M162.517,62.747
		c0.159,0.003,0.318,0.002,0.475,0.014c-0.047,0.149-0.11,0.289-0.19,0.42C162.731,63.018,162.636,62.868,162.517,62.747z
		 M117.966,81.916c-1.911-1.044-3.743-2.11-5.075-4.042c-1.581-2.293-1.642-5.284-1.677-7.96c-0.033-2.403,0.204-4.827-0.117-7.215
		c-0.298-2.218-1.428-5.788,0.963-6.269c-0.342,1.78-0.21,3.59,0.773,5.301c0.646,1.124,2.078,0.206,1.738-0.911
		c-0.996-3.278-0.051-6.185,1.158-9.193c0.038,0.016,0.073,0.036,0.111,0.046c0.765,4.935-0.294,9.933-0.078,14.9
		c0.062,1.404,0.204,2.957,0.832,4.225c-0.025,0.051-0.042,0.108-0.056,0.163c-0.011-0.007-0.022-0.014-0.034-0.021
		c-0.634,2.066,0.507,3.922,2.144,5.314C118.114,78.073,117.908,79.972,117.966,81.916z M118.601,72.777
		c2.153,0.974,5.765,0.714,7.805,0.96c1.729,0.208,3.543,0.402,5.357,0.452c-1.113,0.55-2.231,1.083-3.381,1.515
		c-2.633,0.988-6.239,1.058-8.452-0.957C119.324,74.195,118.946,73.495,118.601,72.777z M163.512,124.024
		c-4.702,3.559-11.386,4.27-17.085,4.17c-6.724-0.119-13.147-2.352-16.699-8.412c-2.646-4.517-2.574-9.705-3.039-14.754
		c0.491,0.815,0.974,1.599,1.437,2.346c2.973,4.785,6.445,8.782,12.062,10.259c6.156,1.621,14.166,1.502,20.085-0.875
		c3.782-1.518,6.422-4.525,8.462-7.923C168.707,114.553,168.426,120.303,163.512,124.024z M169.857,100.986
		c-0.053,0.127-0.107,0.253-0.161,0.379c-0.404,0.159-0.753,0.549-0.805,1.166c-0.021,0.258-0.033,0.522-0.05,0.784
		c-2.215,4.817-5.099,9.129-10.297,11.189c-5.177,2.051-12.418,1.462-17.773,0.389c-5.499-1.102-8.671-5.833-11.388-10.302
		c-3.16-5.199-7.359-12.408-8.635-19.34c0.455-0.481,0.475-1.437-0.167-1.843c-0.035-0.022-0.071-0.041-0.106-0.063
		c-0.199-1.942-0.123-3.841,0.298-5.652c0.8,0.425,1.598,0.746,2.29,0.933c5.826,1.573,11.947-3.6,17.262-5.187
		c0.72-0.215,0.879-1.221,0.575-1.866c1.522-1.555,2.722-3.508,4.708-4.481c2.946-1.446,5.67,0.334,7.948,2.284
		c-0.5-0.08-0.815,0.633-0.437,0.973c3.459,3.108,7.209,6.167,11.81,7.267c1.833,0.438,3.799,0.341,5.665,0.456
		c4.628,0.282,4.717,4.551,4.178,8.217C174.023,91.369,171.81,96.271,169.857,100.986z M263.243,300.257
		c0.019,0.611,0.075,1.238,0.165,1.896c0.309,2.256,0.93,4.443,0.559,6.746c-0.342,2.113-2.009,4.133-3.582,5.684
		c-0.005-0.031,0-0.059-0.009-0.09c-0.443-1.539-1.495-3.098-2.841-3.984c-0.056-0.037-0.108-0.047-0.16-0.047
		C259.938,307.511,260.94,303.484,263.243,300.257z M270.612,271.275c0.995-1.787,1.842-3.523,2.421-5.445
		c0.015,0.006,0.032,0.008,0.047,0.014c0.519,0.35,1.064,0.658,1.636,0.924c-1.154,1.93-2.438,3.768-3.645,5.664
		c-0.819,1.287-1.729,2.57-2.208,4.02C268.18,274.782,269.869,272.611,270.612,271.275z M270.217,277.845
		c1.177-1.352,1.943-3.137,2.878-4.664c1.151-1.877,2.236-3.801,3.168-5.799c0.795,0.27,1.618,0.484,2.451,0.654
		c-2.375,3.559-4.72,7.297-6.48,11.195C271.553,278.794,270.883,278.333,270.217,277.845z M274.071,280.343
		c2.196-3.971,4.303-8.006,6.479-11.988c0.741,0.107,1.479,0.193,2.202,0.266c-2.3,4.215-3.424,8.955-5.24,13.391
		C276.334,281.531,275.189,280.972,274.071,280.343z M281.166,282.072c-0.236,0.328-0.273,0.732-0.19,1.102
		c-0.468-0.123-0.93-0.26-1.387-0.406c2.122-4.414,2.833-9.432,5.27-13.744c0.039-0.07,0.07-0.141,0.095-0.213
		c1.305,0.094,2.655,0.145,4.018,0.113C285.569,272.636,284.081,278.003,281.166,282.072z M312.239,227.923
		c-0.763,3.09-2.689,5.945-4.154,8.734c-4.298,8.18-2.75,18.947-9.059,26.127c-2.968,3.375-8.469,3.271-12.567,3.238
		c-3.316-0.027-7.775-0.248-11.042-1.924c-0.145-0.252-0.37-0.457-0.697-0.557c-0.18-0.057-0.348-0.121-0.518-0.186
		c-0.352-0.252-0.688-0.52-0.991-0.82c-0.379-0.375-0.778-0.443-1.127-0.33c-2.457-1.881-3.331-4.977-3.43-8.355
		c-0.116-3.967,1.904-7.639,1.436-11.607c-0.798-6.752-2.514-14.225-6.819-19.648c-2.185-2.754-5.417-4.293-8.255-6.236
		c-4.196-2.875-7.791-6.604-11.23-10.32c-5.805-6.275-13.046-12.971-16.118-21.096c-0.447-1.184-1.862-0.604-1.59,0.561
		c0.966,4.129,3.21,7.699,5.869,11.012c-0.182,0.244-0.286,0.562-0.206,0.887c2.297,9.307,1.168,18.605,0.551,28.045
		c-0.67,10.277-0.492,20.543-1.945,30.758c-2.635-3.129-5.05-6.434-6.937-10.217c-3.993-8.008-4.834-16.764-6.174-25.465
		c-0.828-5.375-2.233-10.645-2.789-16.064c-0.274-2.656-0.168-5.414-0.484-8.082c0.271-0.299,0.422-0.721,0.296-1.17
		c-1.466-5.275-2.496-10.281-2.845-15.771c-0.362-5.699-0.338-11.404-0.926-17.09c-1.081-10.461-5.428-20.748-9.928-30.166
		c-3.76-7.87-8.639-15.782-14.414-22.392c3.086,1.062,6.339,1.699,9.489,2.487c5.163,1.292,9.7,4.137,14.186,6.896
		c9.986,6.143,20.618,11.485,30.885,17.167c4.468,2.473,8.991,4.877,13.71,6.84c4.979,2.07,10.071,3.805,14.794,6.443
		c8.992,5.023,8.702,14.975,11.895,23.561c0.365,0.982,1.235,1.045,1.766,0.576c4.076,3.027,7.05,7.412,10.539,11.045
		c4.344,4.527,8.408,8.523,11.017,14.369c1.377,3.084,1.848,6.414,2.573,9.682c0.701,3.154,1.988,5.961,3.537,8.777
		C312.409,221.036,313.184,224.095,312.239,227.923z"/>
	<path d="M276.072,389.073c-1.387-2.916-2.157-6.123-2.8-9.273c-1.447-7.098-1.596-14.48-2.103-21.686
		c-0.521-7.432-1.506-14.801-2.304-22.203c-0.383-3.549-0.952-9.779-4.689-11.486c-0.271-0.125-0.486,0.287-0.405,0.5
		c0.923,2.441,2.078,4.572,2.587,7.193c0.609,3.137,0.67,6.359,1.103,9.521c1.142,8.318,1.477,16.754,2.051,25.125
		c0.684,9.959,1.388,25.629,10.661,31.912c1.13,0.766,1.691-0.99,1.134-1.77C279.439,394.29,277.471,392.015,276.072,389.073z"/>
	<path d="M276.284,412.499c-0.965-4.906-3.564-9.438-5.901-13.805c-5.072-9.479-10.815-18.527-16.158-27.846
		c-10.003-17.453-13.049-37.594-13.867-57.529c1.954-2.906,4.023-6.158,7.976-4.863c1.422,0.465,1.71-1.928,0.505-2.443
		c-3.949-1.689-6.754,0.975-8.594,4.137c-0.07-2.363-0.121-4.719-0.144-7.066c-0.007-0.697-1.034-0.908-1.108-0.148
		c-1.145,11.549-0.231,22.979,1.598,34.416c1.777,11.119,4.562,21.475,9.795,31.475c4.914,9.393,10.804,18.283,15.953,27.555
		c2.751,4.955,5.96,10.174,7.43,15.684c1.383,5.186,0.191,10.633,2.104,15.76c0.607,1.625,2.883,0.789,2.299-0.775
		C276.404,422.32,277.241,417.361,276.284,412.499z"/>
</g>
</svg>
