<?xml version="1.0" encoding="utf-8"?>
<!-- Generator: Adobe Illustrator 15.1.0, SVG Export Plug-In . SVG Version: 6.00 Build 0)  -->
<!DOCTYPE svg PUBLIC "-//W3C//DTD SVG 1.1//EN" "http://www.w3.org/Graphics/SVG/1.1/DTD/svg11.dtd">
<svg version="1.1" id="Layer_1" xmlns="http://www.w3.org/2000/svg" xmlns:xlink="http://www.w3.org/1999/xlink" x="0px" y="0px"
	 width="325.984px" height="610.445px" viewBox="0 0 325.984 610.445" enable-background="new 0 0 325.984 610.445"
	 xml:space="preserve">
<g>
	<path d="M113.233,335.062c1.873-0.517,3.63-1.389,5.495-1.949c1.618-0.486,5.128-1.423,6.597-0.068
		c0.647,0.597,1.294-0.438,0.795-0.998c-3.22-3.618-10.194-1.426-13.618,1.095C111.705,333.727,112.145,335.363,113.233,335.062z"/>
	<path d="M165.925,435.932c1.223,1.018,2.193-1.361,1.096-2.273c-3.991-3.319-4.755-9.051-4.58-13.929
		c0.094-2.61,0.723-5.228,1.736-7.626c0.867-2.055,2.692-3.29,3.632-5.186c0.224-0.449-0.04-1.154-0.604-1.141
		c-4.809,0.118-6.655,9.66-6.906,13.121C159.853,425.003,160.991,431.825,165.925,435.932z"/>
	<path d="M88.221,378.958c-0.062-0.237-0.012-0.529-0.055-0.78c-0.048-0.275-0.243-0.554-0.409-0.772
		c-0.29-0.383-0.648-0.648-1.097-0.819c-0.251-0.096-0.517-0.126-0.784-0.127c2.033-3.4,3.565-6.962,6.042-10.168
		c2.991-3.871,6.793-6.938,11.275-8.898c0.876-0.383,0.575-1.943-0.443-1.695c-4.761,1.16-8.454,4.436-11.626,8.036
		c-2.968,3.369-6.334,8.093-7.283,12.551c-0.058,0.27,0.034,0.573,0.194,0.829c-0.691,0.582-0.992,1.576-0.744,2.445
		c0.359,1.254,1.705,2.008,2.954,1.936c0.865-0.051,1.053-1.353,0.365-1.778c-0.38-0.235-0.773-0.433-1.162-0.651
		c-0.047-0.026-0.235-0.174-0.267-0.19c-0.008-0.008-0.015-0.015-0.021-0.022c0.054-0.073,0.112-0.142,0.172-0.209
		c0.024-0.014,0.15-0.126,0.189-0.153c0.033-0.023,0.069-0.044,0.105-0.064c0,0.004,0.1-0.047,0.123-0.057
		c0.067-0.027,0.422-0.11,0.264-0.086c0.141-0.022,0.282-0.021,0.423-0.01c-0.129-0.01,0.175,0.052,0.227,0.066
		c0.163,0.049,0.192,0.067,0.32,0.151c0.209,0.137,0.676,0.486,0.767,0.714C87.885,379.539,88.299,379.248,88.221,378.958z
		 M85.104,378.786L85.104,378.786C85.093,378.725,85.093,378.692,85.104,378.786z M85.122,378.808
		C85.124,378.787,85.125,378.783,85.122,378.808C85.122,378.809,85.122,378.809,85.122,378.808z M85.156,378.858L85.156,378.858
		C85.171,378.875,85.167,378.87,85.156,378.858z"/>
	<path d="M179.952,493.983c1.739,4.752,0.561,10.94-0.565,15.739c-0.762,3.247-1.815,6.376-2.712,9.542
		c-0.231-2.041-0.505-4.077-0.844-6.104c-1.63-9.752-4.255-19.405-3.617-29.382c0.071-1.128-1.396-1.055-1.482,0.035
		c-0.63,7.926,0.538,15.542,1.959,23.319c1.194,6.538,2.007,13.017,2.428,19.581c-0.051,0.451-0.114,0.898-0.146,1.356
		c-0.026,0.379,0.087,0.656,0.269,0.837c0.086,1.715,0.154,3.434,0.188,5.165c0.144,7.607-0.227,15.221-0.439,22.823
		c-0.185,6.604-0.808,14.144-6.35,18.562c-1.078,0.859-0.121,3.107,1.166,2.178c4.715-3.405,6.295-9.073,6.982-14.588
		c0.902-7.235,0.702-14.811,0.809-22.088c0.076-5.184-0.016-10.384-0.369-15.563c0.893-6.488,3.596-12.607,4.55-19.105
		c0.578-3.935,1.348-9.281-0.843-12.837C180.55,492.827,179.716,493.336,179.952,493.983z"/>
	<path d="M280.428,479.913c-7.43-6.778-13.752-14.529-20.931-21.545c-3.969-3.878-7.988-7.685-11.86-11.661
		c-1.341-1.377-2.446-2.951-3.706-4.39c-0.413-2.138-1.434-4.25-2.743-5.991c0.112-0.541-0.106-1.178-0.724-1.423
		c-3.854-1.532-5.988-4.401-7.755-7.7c0.485-0.115,0.905-0.538,0.818-1.184c-1.493-11.062,2.955-21.388,2.963-32.332
		c1.636-1.261,3.105-2.661,4.128-4.425c1.893-3.264,2.054-7.273,2.563-10.938c0.653-4.694,1.149-9.412,1.657-14.124
		c1.857-17.229,7.15-35.085,1.95-52.194c-0.01-0.034-0.029-0.052-0.041-0.083c0.442-0.778,0.884-1.557,1.345-2.331
		c4.185-7.031,5.835-14.965,6.445-23.058c0.667-8.834,0.686-17.938,0.039-26.791c4.455-1.637,8.476-4.027,12.568-6.473
		c2.979-1.78,5.995-3.407,9.224-4.688c3.23-1.28,6.994-0.918,10.387-1.418c0.575-0.085,0.912-0.551,1.026-1.075
		c4.272-1.632,4.747-5.96,3.188-10.554c-2.388-7.035-7.083-13.296-10.003-20.137c-4.679-10.96-7.07-22.784-12.08-33.596
		c-2.085-4.498-4.589-8.797-6.519-13.369c-0.628-1.487-1.194-3.005-1.758-4.518c-0.249-0.672-0.485-1.348-0.72-2.024
		c-0.426-1.234-0.153-1.299-0.725-0.834c0.006-0.026,0.014-0.053,0.018-0.08c0.399-0.594,0.107-1.54-0.488-1.73
		c-3.791-9.76-14.058-15.336-22.585-20.389c-5.57-3.3-10.743-7.217-16.386-10.396c-5.586-3.149-11.963-4.841-17.479-8.067
		c0.808-1.272,1.589-2.536,2.354-3.773c0.137-0.103,0.264-0.244,0.372-0.438c1.978-3.504,2.483-7.582,2.698-11.557
		c1.121-1.188,1.689-3.383,2.236-4.76c1.112-2.802,2.057-5.68,2.887-8.577c0.524-1.832,3.04-8.685,1.134-10.862
		c2.069-3.92,3.008-8.447,1.876-12.344c-0.022-0.076-0.053-0.139-0.087-0.196c0.078-0.544,0.144-1.085,0.186-1.617
		c0.032-0.411-0.117-0.686-0.334-0.851c-0.435-7.409-4.176-14.535-7.435-21.035c-4.005-7.987-9.139-15.566-15.142-22.184
		c-5.426-5.98-12.301-11.304-20.232-13.312c-4.778-1.209-13.163-0.827-16.729,3.233c-0.006-0.006-0.011-0.012-0.017-0.018
		c-6.74-5.84-16.52-2.461-23.623,0.887c-9.129,4.302-18.188,10.129-25.31,17.31c-6.692,6.749-10.935,14.792-14.005,23.727
		c-2.721,7.916-4.746,17.111-2.339,25.359c0.187,0.64,0.638,0.848,1.067,0.788c0.149,0.452,0.341,0.896,0.517,1.325
		c0.583,1.422,1.472,2.406,2.444,3.546c0.283,0.331,0.58-0.152,0.46-0.438c-0.53-1.26-0.89-2.632-1.364-3.919
		c-0.359-0.977-0.495-2.13-1.229-2.905c-0.057-0.06-0.116-0.1-0.177-0.13c-1.738-7.7,0.454-16.109,2.954-23.389
		c2.721-7.919,6.67-15.173,12.472-21.246c6.521-6.825,14.83-12.015,23.127-16.384c6.87-3.617,17.127-8.051,23.921-2.156
		c0.509,0.441,0.964,0.262,1.248-0.16c0.149,0.011,0.311-0.027,0.483-0.183c4.434-3.971,12.579-3.753,17.896-2.065
		c7.338,2.328,13.506,8.152,18.44,13.832c4.974,5.725,9.1,12.188,12.641,18.879c3.772,7.127,7.548,14.854,7.704,23.037
		c0.002,0.116,0.036,0.204,0.058,0.303c-1.885,5.929-3.661,10.896-8.704,15.098c-0.061-0.089-0.129-0.172-0.192-0.26
		c-0.114-0.377-0.343-0.689-0.665-0.802c-0.063-0.067-0.119-0.139-0.186-0.203c-0.803-0.779-1.633,0.009-1.649,0.858
		c-0.614,0.364-1.204,0.775-1.781,1.209c-0.195-2.322-1.951-4.334-3.033-6.431c-0.236-0.459-0.787-0.782-1.302-0.585
		c-10.941,4.193-21.506,9.124-32.941,11.887c-5.403,1.305-17.076,2.969-18.547,9.752c-2.431-0.085-4.828-0.328-7.21-0.705
		c0.118-0.323,0.128-0.696-0.05-1.057c-2.07-4.186-1.126-7.875-0.632-12.285c0.104-0.919-0.603-1.98-1.6-1.372
		c-3.999,2.442-7.477,5.478-9.467,9.688c-2.062-2.692-3.294-5.602-3.44-9.147c-0.04-0.967-1.047-1.582-1.776-0.812
		c-1.362,1.438-5.293,5.729-4.759,8.439c-1.023-0.443-2.036-0.911-3.04-1.399c0.032-0.17,0.041-0.348-0.01-0.534
		c-0.964-3.539-0.438-6.649,0.468-10.147c0.213-0.819-0.664-1.555-1.277-1.323c-0.102-0.021-0.212-0.021-0.338,0.022
		c-1.511,0.528-2.711,1.47-3.824,2.607c-1.104,1.128-2.416,2.617-2.843,4.164c-0.047,0.17-0.04,0.328-0.012,0.479
		c-1.693-1.178-3.39-2.344-5.207-3.312c-0.277-0.147-0.515,0.118-0.492,0.382c-0.228-0.238-0.581-0.338-1.04-0.177
		c-1.817,0.638-2.938,4.024-3.812,5.527c-0.081,0.14-0.114,0.293-0.127,0.45c-0.434-0.589-0.774-1.244-1.024-2.076
		c-0.471-1.57-0.871-3.381-0.966-5.019c-0.014-0.247-0.338-0.317-0.394-0.053c-0.444,2.121-0.737,3.964-0.241,6.123
		c0.243,1.058,0.75,2.235,1.516,3.115c-0.031,0.051-0.059,0.106-0.078,0.171c-1.182,3.916-0.911,8.691-0.608,12.721
		c0.253,3.377,1.108,8.066,4.066,10.161c0.043,3.071,0.353,6.816,2.164,9.078c-0.167,0.323-0.182,0.756,0.101,1.085
		c0.75,0.874,1.548,1.703,2.374,2.504c-0.212,0.13-0.416,0.27-0.601,0.382c-2.173,1.323-4.648,2.252-6.974,3.27
		c-4.393,1.922-8.689,3.799-12.735,6.387c-5.061,3.236-9.816,6.931-14.104,11.14c-2.896,2.843-6.188,6.607-7.428,10.721
		c-3.67,4.43-4.921,10.588-6.114,16.07c-1.885,8.65-3.619,17.383-5.813,25.958c-2.205,8.621-3.676,17.401-4.74,26.23
		c-0.541,4.487-0.708,9.029-1.3,13.507c-0.333,2.523-0.999,4.968-0.643,7.463c-0.467,0.31-0.705,1.174-0.27,1.738
		c4.023,5.219,10.154,7.321,16.573,8.445c1.258,14.537,1.843,28.891,1.413,43.496c-0.224,7.59-1.089,15.097-0.469,22.694
		c0.342,4.191,0.807,11.209,4.619,13.857c0.007,0.005,0.013,0.007,0.02,0.011c-1.906,2.786-3.598,6.061-6.082,7.218
		c-2.073,0.966-6.052,1.516-7.133,3.899c-1.421,3.13-0.126,6.642,0.775,9.722c1.523,5.209,4.088,9.781,4.417,15.317
		c0.355,5.988-0.214,12.01-0.333,17.997c-0.114,5.731-0.258,11.441-0.564,17.166c-0.312,5.852-0.973,11.871-0.614,17.74
		c-0.003,0.005-0.006,0.008-0.008,0.013c-2.233,4.68-3.563,9.701-5.509,14.498c-1.985,4.893-6.111,8.506-9.369,12.533
		c-2.121,2.621-4.018,5.757-3.574,9.235c0.558,4.378,4.613,8.716,6.824,12.389c4.969,8.25,9.628,16.51,16.261,23.575
		c5.976,6.365,13.363,11.108,21.586,14c4.386,1.541,8.916,2.49,13.501,2.975c0.052,2.119,1.132,4.771,1.628,6.387
		c0.656,2.139,1.589,4.668,3.22,6.366c-2.133,10.913-0.898,22.523-3.348,33.645c-0.863,3.921-3.147,7.374-4.106,11.183
		c-0.302,1.197-0.191,2.458,1.173,2.809c0.005,0.001,0.011,0.001,0.016,0.002c-0.066,1.4,0.74,3.004,1.59,4.279
		c1.709,2.562,3.382,4.662,4.411,7.644c1.05,3.038,1.511,6.232,2.675,9.24c0.104,0.269,0.258,0.462,0.436,0.592
		c0.35,4.194,2.746,6.378,7.289,6.771c6.095,0.527,12.28-3.918,17.081-7.083c6.641-4.378,13.221-8.827,19.349-13.913
		c4.643-3.854,10.192-7.68,13.053-13.161c-0.351,7.128,0.937,14.058,8.016,10.981c3.261,1.664,6.744,1.438,10.338,1.45
		c0.814,0.003,1.13-0.929,0.992-1.592c-0.713-3.423-0.152-7.276,2.604-9.472c0.206,3.102-0.353,6.294,1.111,9.129
		c1.206,2.338,4.606,3.266,6.933,3.705c5.342,1.012,10.407-0.665,10.852-6.589c0.313-4.174-0.525-8.222-1.188-12.322
		c-0.144-0.888-0.193-1.766-0.179-2.636c5.702,3.098,11.75,3.861,17.931,3.639c-0.775,9.552-0.039,18.729-2.893,28.096
		c-0.378,1.242,1.439,2.213,2.013,0.908c3.72-8.456,3.562-19.941,2.715-29.096c2.411-0.156,4.839-0.438,7.271-0.771
		c4.798-0.655,9.568-1.364,14.414-1.522c2.29-0.075,4.536,0.092,6.785,0.511c0.747,0.139,1.58,0.178,2.255-0.234
		c2.672-1.632,4.277-5.681,5.738-8.316c2.844-5.132,6.304-9.676,10.086-14.147c6.215-7.35,13.105-14.094,18.98-21.733
		c4.705-6.118,8.632-13.056,9.299-20.866C291.676,491.229,286.099,485.087,280.428,479.913z M239.88,437.166
		c0.428,0.764,0.764,1.558,1.063,2.362c-0.8-0.698-1.542-1.449-2.052-2.434c-0.039-0.075-0.082-0.137-0.125-0.198
		C239.126,437.01,239.495,437.105,239.88,437.166z M231.077,423.925c-0.239-0.498-0.479-0.999-0.725-1.5
		c-1.596-3.258-4.255-8.317-8.316-8.905c1.354-1.946,2.171-4.494,2.977-6.591c0.804-2.093,1.342-4.071,1.719-6.086
		c0.271,0.008,0.558-0.104,0.826-0.395c1.965-2.128,4.618-3.72,7.123-5.446C233.157,404.415,229.949,414.394,231.077,423.925z
		 M242.637,363.563c-0.422,3.773-0.828,7.547-1.304,11.314c-0.499,3.955-0.622,8.645-2.276,12.31
		c-2.053,4.551-8.024,6.731-11.821,10.094c0.098-0.938,0.179-1.895,0.243-2.894c0.703-10.844-0.926-20.646-4.134-30.971
		c-0.504-1.621-0.97-3.223-1.413-4.819c0.386,0.379,0.925,0.461,1.346-0.16c4.925-7.259,8.381-15.107,11.986-23.062
		c3.281-7.239,6.464-14.297,10.233-21.203C249.044,330.619,244.475,347.141,242.637,363.563z M134.814,132.266
		c-10.036-0.166-19.701-2.481-27.284-9.452c-3.498-3.216-4.8-7.682-5.327-12.243c-0.309-2.664-0.228-5.594-0.756-8.304
		c4.775,4.881,11.559,7.277,18.079,9.036c2.238,0.604,4.488,1.189,6.747,1.742c-0.162,0.197-0.315,0.407-0.451,0.644
		c-0.673,1.175-0.636,2.393-0.253,3.546c-2.023-0.746-3.955-1.84-5.732-2.968c-0.836-0.53-1.498,0.839-0.885,1.421
		c4.623,4.396,13.916,7.802,19.191,2.607c0.616-0.605,0.012-2.215-0.941-1.789c-2.056,0.918-3.824,1.529-5.779,1.664
		c0.601-0.701,1.08-1.503,1.349-2.217c0.185-0.491,0.257-0.958,0.263-1.4c5.37,1.074,10.795,1.824,16.278,1.918
		c8.542,0.146,17.146-1.419,25.495-3.303c-0.436,1.088-0.169,2.493,0.613,3.435c0.273,0.41,0.621,0.766,1.044,1.027
		c0.083,0.052,0.165,0.086,0.245,0.112c-2.686,0.94-5.412,0.84-7.367-1.404c-0.504-0.578-1.07,0.266-0.827,0.788
		c3.474,7.477,16.214,1.427,18.395-4.471c0.377-1.021-0.856-2.767-1.714-1.479c-0.875,1.314-2.34,2.835-4.074,4.133
		c0.094-0.315,0.153-0.647,0.179-0.987c0.071-0.951-0.339-1.821-0.989-2.461c7.422-1.914,14.934-4.709,20.66-9.864
		c1.473,6.58,1.475,13.683-3.356,18.936c-3.407,3.705-9.241,4.968-13.816,6.571c-2.546,0.893-5.157,1.756-7.554,3.006
		c-2.467,1.286-5.223,3.361-8.146,1.836c-1.411-0.735-2.635-2.396-3.848-3.427c-1.366-1.161-2.756-2.285-4.192-3.359
		c-2.713-2.026-5.741-3.805-9.084-4.5C144.235,119.657,138.28,127.396,134.814,132.266z M130.926,114.284
		c0.008,0.043,0.017,0.093,0.017,0.126c0,0.02,0.001,0.03,0.002,0.039c-0.007,0.021-0.018,0.061-0.034,0.144
		c-0.045,0.217-0.097,0.328-0.277,0.683c-0.434,0.847-1.401,1.827-2.265,2.113c-0.098,0.032-0.227,0.025-0.24,0.029
		c-0.001-0.004,0-0.006-0.004-0.013c-0.021-0.038-0.083-0.317-0.097-0.505c-0.043-0.58,0.075-1.132-0.062-1.704
		c-0.05-0.209-0.151-0.373-0.274-0.507c0.518-0.731,1.689-0.795,2.491-0.672c0.315,0.049,0.487,0.104,0.688,0.229
		C130.91,114.273,130.918,114.278,130.926,114.284z M130.932,114.289c0.008,0.01,0.006,0.021,0.018,0.068
		C130.94,114.319,130.938,114.311,130.932,114.289z M128.128,117.419c-0.002,0.001,0.007,0.004,0.035,0.01
		c-0.019-0.004-0.026-0.003-0.032-0.002C128.131,117.426,128.13,117.422,128.128,117.419z M177.302,115.223
		c-0.183-0.229-0.327-0.469-0.349-0.657c-0.045-0.403,0.024-0.665,0.296-1.001c0.422-0.521,1.829-0.055,1.895,0.655
		C179.225,115.094,178.11,115.523,177.302,115.223z M210.259,92.237c-0.718,2.318-1.533,4.604-2.425,6.862
		c0-3.358-0.255-6.851-1.166-9.889c0.259-0.27,0.422-0.664,0.383-1.085c2.106-1.312,4.056-3.267,5.615-5.574
		C212.96,85.404,210.875,90.245,210.259,92.237z M213.297,75.883c-0.19,1.029-0.444,2.055-0.852,3.069
		c-1.233,3.077-3.511,5.578-5.789,7.943c-0.078-0.155-0.177-0.294-0.292-0.41c-0.271-0.595-0.535-1.192-0.824-1.775
		C208.932,82.806,211.538,79.559,213.297,75.883z M153.716,94.037c3.72-1.363,7.637-2.181,11.498-3.028
		c10.612-2.33,20.479-7.207,30.562-11.124c1.019,1.62,2.476,3.531,2.133,5.344c-0.041,0.218-0.028,0.413,0.01,0.594
		c-0.507,0.391-1.02,0.77-1.549,1.115c-2.024,1.32-4.915,1.815-7.213,2.472c-2.692,0.769-5.328,1.692-7.989,2.558
		c-9.439,3.066-19.24,5.366-29.116,6.418c-2.199,0.234-4.357,0.321-6.491,0.291C148.187,96.813,150.569,95.19,153.716,94.037z
		 M134.116,86.619c-0.469,3.802-0.762,7.21,0.894,10.942c-2.769-0.532-5.523-1.233-8.29-2.068
		C128.169,91.64,130.86,88.885,134.116,86.619z M120.206,86.274c0.516,3.081,1.781,5.812,3.698,8.332
		c-2.306-0.763-4.587-1.592-6.831-2.512C117.407,89.916,118.725,87.977,120.206,86.274z M106.125,85.776
		c0.938-0.939,1.561-2.28,2.442-3.304c0.586-0.681,1.237-1.312,1.923-1.903c-0.767,2.635-1.271,5.584-0.532,8.172
		c-1.479-0.824-2.887-1.759-4.274-2.72C105.835,85.983,105.987,85.913,106.125,85.776z M98.875,83.505
		c0.116,0.088,0.279-0.021,0.296-0.151c0.024-0.194,0.012-0.384-0.033-0.557c4.341,6.855,13.525,10.429,20.787,13.141
		c9.231,3.448,18.449,5.772,28.356,5.458c9.967-0.315,20.111-2.786,29.638-5.569c5.363-1.567,10.692-3.316,16.023-4.992
		c3.726-1.171,6.036-3.992,9.337-5.682c0.365,0.716,0.662,1.471,0.979,2.215c-5.686,6.959-13.544,11.141-21.932,14.121
		c-9.207,3.271-19.588,5.993-29.353,6.309c-20.498,0.662-42.651-3.396-56.644-19.677C97.154,86.592,98.835,83.476,98.875,83.505z
		 M94.103,100.903c-0.169-3.199,0.435-6.628-0.227-9.786c0.28,0.159,0.575,0.295,0.899,0.366c0.429,0.094,0.774-0.169,0.938-0.526
		c0.221,0.25,0.445,0.496,0.672,0.741c-0.005,0.042-0.021,0.074-0.021,0.119c-0.076,5.82-0.143,11.627-0.17,17.443
		C95.073,106.619,94.276,104.195,94.103,100.903z M98.2,93.557c5.967,5.729,13.468,9.742,21.191,12.651
		c10.734,4.043,22.288,4.427,33.649,4.298c10.312-0.116,21.342-3.347,31.008-6.781c7.862-2.795,15.278-6.978,20.831-13.219
		c-0.098,7.553,1.871,15.362-1.053,22.558c0.733-4.669,0.009-9.567-1.275-14.148c-0.421-1.501-2.177-0.933-2.208,0.325
		c-0.077,0.043-0.153,0.099-0.231,0.171c-6.074,5.644-14.163,8.284-22.05,10.285c-8.941,2.269-18.218,3.933-27.449,4.123
		c-9.713,0.2-19.089-2.225-28.458-4.468c-8.117-1.942-15.907-4.647-21.573-11.06c-0.909-1.029-1.854,0.62-1.219,1.506
		c0.113,0.157,0.236,0.303,0.353,0.456c-0.377,4.051,0.134,8.729,0.779,12.693c0.734,4.514,2.426,8.308,5.594,11.637
		c7.519,7.902,18.978,10.14,29.415,10.227c0.715,0.006,1.058-0.618,1.046-1.247c2.745-3.704,5.857-7.324,10.045-9.392
		c4.332-2.139,8.992,1.166,12.412,3.627c3.058,2.2,5.542,5.505,8.859,7.246c3.708,1.946,7.988-1.688,11.253-3.043
		c5.021-2.082,11.291-3.345,16.241-6.234c-3.759,4.745-8.207,8.764-14.314,10.691c-5.409,1.709-11.587,1.435-16.675-1.107
		c-3.872-1.935-6.332-6.636-10.507-7.961c-3.873-1.229-6.891,1.092-9.744,3.492c-4.236,3.563-7.902,6.02-13.68,5.613
		c-10.897-0.766-21.586-6.211-29.781-13.323c0.2-0.351,0.256-0.83,0.08-1.179C96.458,113.533,98.647,102.912,98.2,93.557z
		 M188.505,148.604c-0.624,3.626-1.013,7.284-1.648,10.91c-1.464,8.332-3.777,16.506-6.139,24.621
		c-1.875,6.448-4.961,12.804-9.949,17.418c-5.174,4.786-11.969,5.479-18.538,3.667c-10.406-2.871-16.542-12.962-20.149-22.425
		c-1.855-4.868-3.136-9.949-4.164-15.049c-0.742-3.675-1.068-7.506-1.828-11.197c0.43,0.227,0.861-0.009,1.132-0.425
		c1.736,2.17,3.554,4.236,5.44,6.125c6.663,6.671,15.184,10.934,24.74,9.783c8.566-1.031,16.702-6.866,21.02-14.257
		c2.691-4.607,4.413-9.691,7.816-13.866c1.053-1.291,2.188-2.524,3.258-3.797C189.704,142.922,188.972,145.883,188.505,148.604z
		 M63.417,335.461c-4.082-4.656-3.878-13.355-3.865-19.153c0.015-7.045,0.718-14.083,0.837-21.13
		c0.209-12.393,0.728-25.584-2.384-37.697c3.998,0.618,8.059,0.917,11.75,1.396c4.649,0.603,9.314,0.779,13.944,1.593
		c4.648,0.815,10.776,2.151,13.524,6.408c-0.369,1.36-0.675,2.733-0.868,4.126c-0.901,6.486-0.418,13.024-0.843,19.532
		c-0.269,4.126-1.359,9.798,0.78,13.666c-3.2-0.684-6.6-0.614-9.789-0.208c-7.715,0.982-15.627,4.836-19.642,11.715
		c-2.788,4.777-2.908,12.404,0.335,17.299c-1.434,0.347-2.612,1.331-3.673,2.604C63.493,335.559,63.458,335.508,63.417,335.461z
		 M67.798,504.145c-12.883-8.513-19.681-22.538-27.591-35.24c-2.279-3.659-4.854-6.459-2.578-10.814
		c1.911-3.658,5.275-6.59,7.867-9.756c4.883-5.965,5.995-13.811,9.234-20.631c0.198-0.417,0.163-0.843,0-1.195
		c0.831-9.723,1.007-19.676,1.271-29.427c0.255-9.421,1.745-19.93-0.417-29.171c-0.978-4.179-2.849-8.382-4.339-12.395
		c-0.607-1.634-1.432-4.965,0.211-6.308c1.42-1.159,3.653-1.628,5.322-2.33c2.529-1.064,3.99-3.098,5.42-5.349
		c1.835-2.889,3.356-5.214,6.229-6.955c0.671,0.699,1.433,1.311,2.3,1.796c1.334,0.747,2.017-1.382,0.99-2.15
		c-6.147-4.598-5.848-13.917-1.292-19.55c4.38-5.416,12.154-7.821,18.835-8.296c3.32-0.236,6.642,0.218,9.766,1.354
		c2.86,1.041,5.092,3.271,7.885,4.481c3.655,1.584,7.78,1.247,11.292,3.268c3.964,2.28,4.057,9.346,3.98,13.318
		c-0.001,0.051,0.067,0.062,0.077,0.011c0.852-4.456,1.446-8.546-0.698-12.733c-2.161-4.222-7.458-4.566-11.509-5.583
		c-4.213-1.057-7.24-4.117-11.267-5.59c-0.154-0.057-0.314-0.097-0.471-0.149c0.259-0.357,0.345-0.864,0.056-1.35
		c-2.322-3.904-0.86-10.218-0.617-14.53c0.371-6.579-0.042-13.08,1.036-19.627c0.09-0.547,0.205-1.087,0.329-1.625
		c0.44-0.354,0.695-1.003,0.423-1.635c1.41-4.909,3.815-9.578,4.243-14.716c0.606-7.289-0.688-14.459,0.452-21.743
		c0.137-0.872-1.079-1.762-1.458-0.687c-2.246,6.386-0.867,13.358-0.957,19.974c-0.07,5.232-2.104,10.143-3.721,15.136
		c-5.185-5.979-15.661-6.577-22.862-7.248c-10.431-0.972-24.273-0.606-32.53-8.077c0.13-0.261,0.176-0.583,0.078-0.947
		c-0.789-2.927,0.343-5.741,0.559-8.658c0.338-4.563,0.768-9.116,1.305-13.66c0.933-7.892,2.346-15.729,4.187-23.458
		c1.877-7.883,3.575-15.812,5.305-23.729c1.21-5.537,2.052-11.827,4.947-16.852c0.437,0.212,0.991,0.129,1.238-0.456
		c2.517-5.961,5.802-10.323,10.682-14.64c4.095-3.623,8.649-6.712,13.29-9.584c4.231-2.619,9.145-4.209,13.614-6.373
		c0.478-0.231,3.421-1.519,4.554-2.811c6.838,5.911,15.713,9.577,24.502,11.174c4.52,0.822,8.73,0.793,12.851-1.375
		c4.895-2.575,9.418-10.412,15.366-6.144c4.268,3.061,6.982,6.646,12.21,8.249c4.966,1.523,10.479,0.906,15.351-0.627
		c2.815-0.886,5.314-2.301,7.582-4.05c-1.631,3.034-4.355,5.511-6.504,8.143c-2.512,3.075-4.038,6.868-5.762,10.404
		c-4.192,8.604-12.145,15.068-21.756,16.269c-9.34,1.166-17.502-4.305-23.691-10.729c-6.052-6.283-9.46-14.675-15.682-20.735
		c-0.313-0.306-0.609,0.141-0.474,0.451c1.264,2.899,2.791,5.801,4.494,8.635c-4.61-4.906-9.408-9.603-13.051-15.456
		c-0.155-0.249-0.446-0.048-0.387,0.204c2.267,9.506,10.427,15.409,16.632,22.494c-0.215,4.692,0.797,9.548,1.677,14.117
		c1.169,6.08,2.842,12.049,5.179,17.785c4.216,10.35,11.686,19.723,23.097,22.092c14.406,2.992,23.831-8.678,28.106-20.986
		c3.047-8.776,5.243-18.051,6.945-27.174c0.799-4.282,1.255-8.616,1.987-12.91c0.511-2.994,1.021-6.121,0.455-9.139
		c-0.04-0.215-0.108-0.388-0.195-0.527c0.972-1.434,1.768-2.974,2.197-4.74c0.095-0.389,0.037-0.725-0.106-0.99
		c2.873-2.872,5.343-6.252,7.59-9.683c4.654,3.152,10.219,4.914,15.251,7.35c5.663,2.741,10.643,6.675,15.958,9.995
		c4.45,2.778,9.066,5.268,13.369,8.279c5.247,3.672,8.539,8.117,11.739,13.562c0.024,0.041,0.056,0.061,0.082,0.097
		c0.386,2.975,2.901,7.938,3.435,9.184c2.003,4.674,4.487,9.13,6.616,13.745c2.624,5.687,4.239,11.855,6.178,17.799
		c2.832,8.684,5.981,17.302,10.559,25.235c2.535,4.395,9.673,14.941,1.115,16.58c-0.356,0.068-0.584,0.315-0.706,0.629
		c-2.072,0.195-4.152,0.277-6.215,0.595c-3.131,0.481-6.031,2.058-8.784,3.543c-6.302,3.399-11.995,7.211-18.899,9.368
		c-6.319,1.974-12.851,3.173-19.15,5.227c-4.618,1.507-9.912,2.221-13.337,5.911c-0.055,0.059-0.093,0.125-0.12,0.194
		c-0.176-6.684-0.507-13.258,0.542-19.95c0.995-6.356,2.554-12.918,1.54-19.354c-0.052-0.331-0.524-0.314-0.565,0.014
		c-0.844,6.755-1.863,13.436-2.966,20.154c-1.16,7.073-0.713,14.19-0.557,21.32c0.146,6.633,1.758,13.755,0.518,20.308
		c-1.261,6.662-4.511,12.936-6.269,19.497c-0.396,1.48,1.698,2.183,2.117,0.615c1.763-6.606,4.656-12.85,6.231-19.503
		c1.497-6.322-0.453-13.135-0.521-19.526c-0.011-1.007-0.031-2.011-0.056-3.013c0.135,0.333,0.471,0.567,0.851,0.339
		c4.286-2.575,9.737-3.442,14.464-4.925c6.32-1.982,12.866-3.143,19.197-5.094c0.047-0.015,0.091-0.032,0.137-0.047
		c-0.98,16.922,1.909,33.743-7.25,49.113c-9.048,15.184-13.964,32.552-23.918,47.206c-0.08,0.118-0.132,0.246-0.168,0.376
		c-1.664-6.283-2.799-12.495-3.107-19.185c-0.311-6.726-0.576-13.935-4.203-19.831c-4.005-6.511-12.395-8.295-19.515-8.082
		c-10.288,0.306-18.651,6.224-27.844,9.933c-9.701,3.914-27.794-3.216-32.716,9.528c-0.079,0.205-0.074,0.414-0.02,0.601
		c-1.224,0.403-2.442,0.837-3.65,1.319c-6.765,2.705-16,6.436-18.809,13.787c-1.345,0.814-2.332,2.055-2.728,3.809
		c-0.188-0.071-0.37-0.146-0.561-0.216c-0.404-0.147-0.652,0.27-0.638,0.653c-3.382,2.427-7.765,3.652-11.696,2.158
		c-3.082-1.171-5.522-1.506-8.592-0.023c-6.159,2.975-10.19,11.319-17.731,11.023c-0.548-0.021-0.915,0.506-1.032,0.974
		c-0.196,0.783-0.249,1.534-0.257,2.344c-0.006,0.499,0.315,1.059,0.816,1.198c3.707,1.037,7.793-0.087,11.529-1.539
		c-4.243,5.603-7.72,11.566-14.336,14.872c-0.742,0.37-0.873,1.112-0.59,1.843c1.286,3.309,4.836,5.443,8.153,6.281
		c0.611,0.154,1.141-0.293,1.261-0.883c0.036-0.177,0.057-0.344,0.076-0.513c0.099-0.08,0.18-0.202,0.222-0.371
		c0.629-2.496,1.507-4.288,3.198-6.265c1.545-1.806,3.348-3.393,4.709-5.352c0.708-1.02-0.53-2.783-1.436-1.598
		c-2.236,2.93-7.973,7.432-7.838,11.797c-0.205,0.064-0.387,0.213-0.491,0.486c-0.003,0.009-0.007,0.018-0.011,0.026
		c-0.447-1.956-2.176-3.308-3.828-4.292c-0.147-0.088-0.286-0.129-0.414-0.138c4.722-3.017,7.962-7.262,11.273-11.939
		c1.958-2.766,3.924-5.57,6.484-7.817c2.694-2.364,5.966-2.983,9.212-4.173c0.478-0.175,0.494-0.789,0.228-1.142
		c-0.199-0.271-0.405-0.537-0.616-0.798c-0.026-0.032-0.066-0.007-0.075,0.025c-0.232,0.908-2.14,0.563-3.096,0.778
		c-1.535,0.344-2.919,0.856-4.315,1.578c-1.837,0.949-3.384,2.384-4.771,3.923c-4.02,0.56-7.535,3.13-11.56,3.105
		c6.137-1.118,10.358-7.451,15.394-10.718c4.195-2.723,7.645,0.327,11.922,0.54c3.335,0.166,6.675-2.325,8.576-4.842
		c4.604,2.488,8.42,5.144,10.654,9.436c-1.515,0.115-3.116,0.099-4.848,0.019c-4.03-0.187-7.659-0.326-10.867,2.433
		c-6.013,5.171-5.978,14.932-14.357,17.564c-1.12,0.352-0.915,2.634,0.343,2.444c8.367-1.262,9.9-11.509,14.471-17.044
		c3.515-4.257,9.47-2.72,14.287-2.723c0.69-0.001,1.378-0.036,2.057-0.104c0.064,0.198,0.123,0.403,0.182,0.607
		c-2.978,0.795-5.958,1.294-8.703,0.662c-0.42-0.097-0.513,0.568-0.146,0.705c6.469,2.416,13.881-0.547,20.309-1.86
		c4.082-0.834,7.916-2.612,10.095-5.76c0.553,0.279,1.335-0.176,1.362-1.006c0.015-0.449-0.042-0.906-0.153-1.365
		c0.338-0.953,0.562-1.989,0.629-3.134c0.056-0.954-1.354-1.523-1.724-0.502c-0.099,0.271-0.191,0.536-0.286,0.799
		c-3.639-5.066-12.8-9.201-16.899-5.416c-1.447-0.664-3.005-1.16-4.559-1.46c3.022-2.977,11.789-2.696,14.885-2.463
		c4.187,0.317,8.147,2.616,11.061,5.523c4.062,4.054,4.54,9.271,2.774,14.474c-0.273,0.179-0.527,0.403-0.754,0.694
		c-0.292,0.374-0.036,0.994,0.469,0.89c0.229-0.047,0.46-0.074,0.693-0.093c0.292,0.236,0.666,0.288,0.982-0.002
		c5.561,0.441,11.909,7.881,14.474,11.6c1.956,2.837,3.436,6.005,5.484,8.774c1.299,1.757,2.712,3.407,4.122,5.075
		c0.297,0.353,2.457,2.122,2.521,2.619c0.312,2.407-1.239,5.372-2.107,7.513c-1.034,2.55-2.052,5.094-2.63,7.792
		c-0.85,3.969,0.507,8.677,4.843,9.785c1.231,0.314,1.519-1.428,0.7-2.053c-3.324-2.541-4.021-4.641-2.969-8.741
		c0.763-2.977,2.18-5.78,3.226-8.663c0.668-1.842,1.362-4.102,1.098-6.08c-0.251-1.878-2.906-3.688-4.029-5.007
		c-5.11-6.009-8.104-14.069-14.344-19.104c-1.734-1.398-6.071-5.067-9.423-5.462c3.778-9.988-4.809-19.689-14.554-21.766
		c-2.721-0.58-9.509-0.757-14.181,0.855c2.341-1.445,4.999-2.342,8.269-2.82c5.507-0.806,11.297-0.244,16.66,1.146
		c2.148,0.557,4.229,1.349,6.253,2.282c-0.621-0.295-1.184,0.819-0.715,1.445c3.253,4.341,6.288,8.83,9.64,13.098
		c3.545,4.515,7.715,8.322,11.598,12.518c8.085,8.736,11.844,19.989,13.476,31.597c1.56,11.088,0.572,22.361-2.498,33.098
		c-3.128,10.935-8.828,20.78-13.022,31.288c-3.988,9.991-7.201,19.638-14.646,27.685c-6.729,7.273-15.608,12.454-24.837,15.859
		C111.989,515.097,86.604,516.573,67.798,504.145z M122.002,361.962c-0.035-0.124-0.067-0.25-0.104-0.371
		c3.174-0.711,5.947-2.371,7.541-5.46c0.257,0.666,1.166,1.008,1.54,0.154c0.671-1.532,0.666-3.018,0.177-4.398
		c1.188,0.485,2.262,1.295,3.104,2.221c0.666,0.732,1.133,1.664,1.187,2.657c0.033,0.609-0.302,1.238-0.597,1.84
		c-1.765,0.671-3.71,1.045-5.438,1.342C127.084,360.347,124.563,361.196,122.002,361.962z M137.401,357.268
		c0.025-1.256-0.4-2.604-1.016-3.524c-1.34-2.003-3.705-3.472-6.134-3.604c-0.854-1.236-2.095-2.346-3.553-3.277
		c0.815-0.179,1.55-0.325,1.772-0.312c2.038,0.113,4.052,0.915,5.86,1.804c2.463,1.209,4.74,2.96,5.993,5.358
		c-0.603,1.259-1.381,2.394-2.671,3.386C137.574,357.159,137.484,357.209,137.401,357.268z M129.487,354.771
		c-0.184-0.129-0.43-0.144-0.662,0.082c-2.54,2.469-5.079,3.671-7.893,4.201c-2.031-4.366-5.473-7.229-9.945-9.279
		c0.02-0.056,0.053-0.093,0.068-0.155c0.651-2.569,3.537-3.428,6.838-3.13c0.205,0.138,0.447,0.169,0.652,0.075
		C123.753,347.262,129.673,350.677,129.487,354.771z M115.706,343.91c-0.423,0.031-0.833,0.087-1.234,0.16
		c0.839-1.134,1.761-2.197,2.854-3.178C116.644,341.782,116.093,342.782,115.706,343.91z M68.575,382.605
		c-0.132-0.169-0.27-0.334-0.382-0.515c0.178-0.1,0.36-0.194,0.533-0.297C68.594,382.025,68.537,382.321,68.575,382.605z
		 M70.505,384.375c0.01,0.007,0.019,0.014,0.027,0.02C70.523,384.389,70.514,384.382,70.505,384.375z M95.344,519.861
		c-0.322-1.052-0.511-2.712-0.967-4.092c2.447,0.188,4.905,0.25,7.362,0.197c-1.774,3.099-2.989,6.304-3.83,9.583
		C96.803,523.808,95.995,521.985,95.344,519.861z M280.073,518.51c-4.918,6.598-10.761,12.474-16.23,18.602
		c-3.09,3.463-6.046,7.039-8.812,10.766c-2.923,3.939-4.897,8.443-7.61,12.52c-1.12,1.685-1.648,1.981-3.592,1.614
		c-1.566-0.296-3.167-0.32-4.755-0.351c-4.822-0.092-9.655,0.686-14.415,1.359c-9.596,1.357-18.905,2.221-27.999-1.878
		c-0.052-0.023-0.095-0.017-0.144-0.027c0.616-4.769,3.085-9.308,4.793-13.78c3.657-9.58,7.765-20.464,8.014-30.811
		c0.027-1.132-1.391-1.307-1.678-0.229c-2.302,8.648-3.816,17.27-6.795,25.771c-2.52,7.196-7.523,14.979-6.589,22.846
		c0.426,3.593,1.274,7.089,1.426,10.718c0.191,4.605-1.622,6.519-6.026,6.729c-3.122,0.148-7.635-0.788-8.715-4.219
		c-0.789-2.509-0.084-4.838-1.043-7.114c0.043-0.023,0.08-0.051,0.124-0.073c1.124-0.581,0.759-2.846-0.609-2.312
		c-4.616,1.795-6.044,7.13-5.482,11.714c-2.708,0.115-5.499,0.271-8.039-0.729c-0.15-0.498-0.569-0.877-1.224-0.718
		c-2.327,0.565-4.35,0.755-5.28-1.844c-0.915-2.556-0.597-5.64-0.332-8.28c0.509-5.067,1.765-10.035,2.96-14.974
		c2.305-9.524,1.759-19.956,0.873-29.632c-0.494-5.392-2.065-10.682-3.58-15.855c-0.595-2.029-1.001-6.626-2.883-7.976
		c-0.373-0.268-0.735,0.253-0.623,0.598c1.215,3.747,1.752,8.028,2.767,11.873c1.737,6.586,2.425,13.067,2.69,19.856
		c0.351,9.002-0.76,17.344-2.716,26.039c-0.354,1.576-1.056,5.055-1.438,8.856c-0.48-0.458-1.217-0.521-1.622,0.339
		c-2.509,5.321-7.427,8.876-11.87,12.508c-5.124,4.188-10.381,8.105-15.855,11.829c-4.661,3.171-9.368,6.559-14.605,8.709
		c-2.732,1.122-5.583,1.505-8.445,0.712c-2.09-0.579-2.365-2.468-3.118-4.105c0.229-0.266,0.329-0.653,0.159-1.114
		c-1.434-3.894-2.1-7.997-3.699-11.836c-1.111-2.669-5.176-5.874-5.01-8.925c1.634-0.709,3.328-2.285,4.235-3.128
		c2.521-2.338,4.346-5.361,6.176-8.239c3.234-5.084,6.807-8.71,11.675-12.197c4.999-3.58,10.121-6.972,14.867-10.893
		c7.282-6.017,15.344-15.241,11.094-25.31c-0.551-1.304-2.165-0.176-1.847,0.972c2.885,10.381-5.015,17.907-12.51,23.86
		c-7.008,5.566-15.869,9.815-21.516,16.896c-3.466,4.346-5.66,9.596-9.783,13.43c-0.776,0.722-3.064,1.564-3.373,2.374
		c0.479-1.255,1.141-2.401,1.601-3.673c1.293-3.572,2.432-7.126,3.069-10.88c1.649-9.723,0.683-19.816,2.354-29.361
		c0.643-0.085,0.931-1.147,0.471-1.708c-0.039-0.048-0.073-0.096-0.112-0.143c0.876-4.072,2.3-8.032,4.696-11.807
		c2.533-0.128,5.061-0.363,7.566-0.698c9.833-1.314,19.695-3.765,28.656-8.073c7.993-3.843,15.193-9.285,20.938-16.047
		c6.627-7.801,9.567-17.658,13.264-27.016c4.245-10.75,9.818-20.767,13.002-31.947c3.12-10.957,3.55-22.572,1.963-33.816
		c-1.49-10.558-4.996-20.747-11.592-29.198c-3.74-4.79-8.488-8.676-12.434-13.294c-4.062-4.754-7.77-9.812-11.791-14.605
		c-0.088-0.105-0.178-0.176-0.268-0.219c4.611,2.129,8.889,5.084,12.732,8.291c6.358,5.306,10.448,11.927,14.824,18.812
		c0.598,0.94,1.871,0.201,1.531-0.806c-2.545-7.529-8.479-14.369-14.394-19.51c-6.11-5.312-13.258-9.727-21.159-11.754
		c-5.092-1.308-13.697-2.122-20.694-0.356c2.019-0.869,4.069-1.652,6.039-2.411c11.658-4.488,23.042-3.946,35.177-2.436
		c1.224,0.152,1.362-2.213,0.218-2.458c-10.727-2.293-21.622-1.965-31.999,1.146c5.555-9.596,22.155-4.563,31.112-7.101
		c3.423-0.97,6.686-3.181,9.903-4.685c4.561-2.133,9.294-3.925,14.26-4.833c8.345-1.527,18.507,0.391,22.496,8.601
		c2.793,5.751,2.513,12.873,2.797,19.106c0.334,7.3,1.962,14.161,4.105,21.139c2.827,9.199,4.967,17.802,4.89,27.495
		c-0.04,5.046,0.071,10.656-1.848,15.385c-1.062,2.616-2.062,6.271-4.076,8.304c-1.083,1.094,0.547,2.993,1.723,1.807
		c0.014-0.014,0.024-0.03,0.038-0.044c2.282,1.683,4.135,3.033,5.666,5.535c1.386,2.266,2.426,4.74,3.565,7.133
		c1.604,3.37,3.856,7.515,7.421,9.188c-0.634,0.221-1.137,1.168-0.721,1.985c1.418,2.786,4.286,4.297,6.148,6.741
		c2.575,3.38,5.717,6.347,8.754,9.302c6.892,6.704,13.334,13.708,19.954,20.673c5.697,5.993,14.183,11.094,16.508,19.468
		C290.753,503.083,284.816,512.146,280.073,518.51z"/>
	<path d="M239.682,488.445c-13.741,2.705-26.294-3.882-34.826-14.508c-2.61-3.251-4.305-7.104-6.096-10.838
		c-0.905-1.886-3.981-7.157-3.674-8.694c0.059-0.295-0.152-0.619-0.475-0.536c-3.119,0.797,6.079,17.943,7.571,20.069
		c8.053,11.473,23.632,21.52,38.079,16.708C241.488,490.238,240.986,488.188,239.682,488.445z"/>
	<path d="M208.099,504.049c-4.517,16.614-10.771,32.801-18.352,48.248c-0.604,1.23,1.108,2.566,1.783,1.164
		c7.604-15.785,13.495-32.07,17.648-49.086C209.369,503.599,208.324,503.223,208.099,504.049z"/>
</g>
</svg>
