<?xml version="1.0" encoding="utf-8"?>
<!-- Generator: Adobe Illustrator 15.0.0, SVG Export Plug-In . SVG Version: 6.00 Build 0)  -->
<!DOCTYPE svg PUBLIC "-//W3C//DTD SVG 1.1//EN" "http://www.w3.org/Graphics/SVG/1.1/DTD/svg11.dtd">
<svg version="1.1" id="Layer_1" xmlns="http://www.w3.org/2000/svg" xmlns:xlink="http://www.w3.org/1999/xlink" x="0px" y="0px"
	 width="433.302px" height="589.716px" viewBox="4.5 4.209 433.302 589.716" enable-background="new 4.5 4.209 433.302 589.716"
	 xml:space="preserve">
<g>
	<g>
		<path fill="#FEFEFE" d="M89.989,593.925c-28.497,0-56.992,0-85.489,0c0-196.477,0-392.949,0-589.425
			c139.482,0,278.964,0.154,418.448-0.29c11.248-0.035,13.81,2.54,13.785,13.788c-0.404,188.225-0.248,376.455-0.599,564.679
			c-0.006,3.355,5.785,10.889-4.188,11.248c-10.309-7.658-10.198-18.877-11.103-30.209c-4.735-59.512-25.188-111.496-72.022-151.262
			c-9.906-8.41-22.462-11.681-32.106-20.021c-7.552-5.937-5.838-15.286-8.514-23.017c-0.868-3.379-0.125-6.717,0.262-10.043
			c-1.694-39.111-1.993-77.907,7.561-116.604c4.089-16.565,1.952-35.011-6.813-51.242c0.009-6.424-0.242-12.831-0.93-19.215
			c-0.549-8.379,0.895-16.772-0.123-25.151c-0.074-8.88-5.226-15.392-10.386-21.895c-4.045-8.784-3.896-18.121-3.611-27.445
			c-1.057-7.241-5.824-10.901-12.422-12.826c-6.988-1.735-14.225-2.781-19.885-7.813c-12.672-11.279-18.563-28.376-32.877-38.197
			c-3.935-3.981-7.846-8.032-12.677-11.007c-4.389-2.399-9.005-1.978-13.647-1.222c-5.468,0.202-10.802-2.966-16.363-0.677
			c-6.107,1.354-6.588,8.371-11.189,11.249c-3.155,1.771-5.899,4.06-8.278,6.807c-2.434,2.786-4.673,5.699-6.387,8.999
			c-7.804,10.089,0.382,20.902-1.439,31.263c-0.688,2.013-1.753,3.783-3.14,5.387c-4.339,3.106-9.539,4.508-14.074,7.219
			c-4.923,1.955-8.412,6.455-13.674,7.83c-5.158,0.501-10.317,1.077-15.265,2.808c-12.811,3.792-26.546,4.732-38.135,12.272
			c-31.529,20.507-32.232,55.355-1.327,75.256c3.851,2.478,7.821,4.24,9.051,9.104c1.437,8.498,0.455,16.447-5.024,23.429
			c-2.898,3.542-5.589,7.307-9.7,9.57c-6.433,2.109-13.043,4.042-15.899,11.284c-5.339,13.278,4.556,22.027,9.662,32.103
			c13.178,10.159,22.064,23.2,26.553,39.207c0.71,3.227-0.204,6.293-0.817,9.395c-4.424,7.115-1.329,14.447-0.6,21.693
			c0.088,12.953-0.257,25.916-0.56,38.855c0.149,1.881,0.233,3.779,0.397,5.646c0.417,5.9,4.309,9.78,8.111,13.69
			c1.07,1.478,2.059,3.015,3.124,4.485c4.243,5.252,10.563,6.947,16.331,9.602c9.533,6.592,18.5,14.271,30.707,15.631
			c8.395,1.559,17.26,1.316,24.705,6.498c4.783,5.084,12.038,6.205,17.251,10.611c1.494,1.857,2.408,3.973,2.786,6.313
			c-0.806,11.742-6.547,21.939-14.129,29.705c-21.262,21.768-34.044,49.021-50.056,74.121
			C116.454,579.943,106.279,590.378,89.989,593.925z"/>
		<path fill="#AFAFAF" d="M323.623,387.998c89.269,40.68,108.435,118.232,108.322,205.928c-113.986,0-227.97,0-341.958,0
			c28.78-33.539,48.377-73.529,75.884-107.961c6.033-7.553,12.156-15.035,18.237-22.549c5.62-10.225,12.433-6.428,19.336-1.67
			c8.465,7.412,7.659,15.734,3.788,21.982c5.259-5.893,13.558-12.105,23.662-15.846c6.752-1.748,13.862-1.541,20.543-3.756
			c24.36-9.746,51.363-15.563,63.456-43.215c1.663-5.797,0.799-11.5-0.688-17.211C313.778,396.319,311.563,387.848,323.623,387.998z
			"/>
		<path fill="#E4E4E4" d="M306.219,126.055c6.819,4.336,10.061,11.187,12.881,18.336c-14.117,4.745-9.311,16.231-9.277,26.069
			c-0.401,2.294-1.19,4.385-2.396,6.362c-36.205,29.154-76.316,45.039-123.583,36.729c-30.288-11.521-60.773-3.221-91.195-0.747
			c-4.919-1.274-6.94-7.553-12.804-7.355c-1.593-0.795-2.968-1.806-4.216-2.983c-12.338-4.297-26.232-4.218-34.541-17.897
			c-14.228-23.428,7.178-69.965,38.265-80.458c10.622-3.59,21.649-5.778,33.019-5.194c6.455,4.253,9.291-2.403,13.632-4.521
			c4.409-1.499,8.818-3.001,13.228-4.5c10.451-0.712,8.663,8.529,11.459,13.226c-0.593-5.549-7.384-12.694,2.245-17.844
			l-0.204,0.163c20.043-14.878,26.469-14.627,36.861,2.28c-3.877-16.758,2.463-24.079,18.661-21.992
			c7.318,0.945,13.91,5.181,21.464,5.361c1.986,0.202,3.985,0.409,5.979,0.584c7.832,0.141,15.848-2.096,23.421,1.722
			c1.688,1.094,3.462,2.012,5.329,2.759c7.729,2.065,15.437,4.983,23.291,0.453c8.377,1.419,14.12,6.345,18.115,13.6
			C302.519,102.191,301.98,114.147,306.219,126.055z"/>
		<path fill="#DDDDDD" d="M234.718,477.589c-15.465,9.004-30.923,18.018-46.423,26.957c-0.402,0.234-1.265-0.338-2.41-0.684
			c2.832-12.393,18.342-20.621,12.29-35.904c-3.032-7.676-4.247-15.857-6.606-23.723c-0.396-5.639,1.784-10.404,4.958-14.844
			c3.394-4.139,7.333-7.755,11.088-11.543c5.304-3.471,9.602-8.458,15.833-10.537c25.226-12.805,55.307-16.35,75.161-39.436
			c5.605-2.418,11.014-1.895,16.243,1.11c2.926,6.332,5.848,12.659,8.771,19c-3.557,6.06,2.558,8.414,4.695,12.294
			c2.386,9.113,4.825,18.227-0.395,27.229c-16.708,26.623-45.265,35.869-71.393,48.678
			C249.582,481.65,242.126,479.269,234.718,477.589z"/>
		<path fill="#747474" d="M319.35,188.906c10.259,24.866,10.354,49.507,5.075,76.231c-4.928,24.962-15.471,51.687,1.83,77.377
			c2.067,3.071-8.894,13.139,6.613,13.288c-6.165,7.039-12.532,2.922-17.796,4.469c-20.795,12.475-27.163-3.169-34.186-17.479
			c-5.617-12.483,2.672-24.918,0.221-37.508c-1.883-9.663-4.28-19.611-16.851-12.686c-15.803,8.709-28.679,2.632-41.937-4.987
			c-4.25-3.335-8.321-6.876-12.489-10.321c-2.909-1.956-5.161-4.403-6.143-7.865c-1.028-7.905,3.805-12.286,9.691-15.981
			c32.538-20.428,66.26-39.084,95.541-64.376C311.852,186.533,315.835,186.867,319.35,188.906z"/>
		<path fill="#DCDCDC" d="M166.233,30.986c1.736-8.248,7.039-13.524,14.298-17.176c7.435,2.961,14.797,3.506,22.025-0.637
			c7.549-5.106,15.027-4.825,22.444,0.286c3.111,6.986,9.814,11.292,13.373,17.945c9.555,13.116,22.746,23.785,27.188,40.345
			c2.77,5.238-1.817,6.824-4.612,9.298l0.081-0.053c-9.041,3.515-18.079,3.52-27.117-0.004l0.095,0.031
			c-15.858-8.182-30.875-16.741-50.434-8.489c-9.985,4.209-14.287-7.364-18.646-14.896
			C162.874,48.619,167.046,39.924,166.233,30.986z"/>
		<path fill="#DDDDDD" d="M183.666,459.232c-5.82-1.48-11.64-2.957-17.459-4.438c-7.92-6.645-18.477,1.143-26.516-4.848
			c-12.641-1.934-21.983-9.916-31.658-17.285c-5.952-4.904-11.688-10.08-18.271-14.17l0.104,0.176
			c-1.56-2.364-1.507-4.692,0.16-6.957c30.826-9.17,62.535-14.465,93.886-21.301c9.104,3.492,11.818,11.832,15.014,19.791
			c3.39,14.441-4.289,27.365-5.776,41.158C191.323,455.589,187.821,457.804,183.666,459.232z"/>
		<path fill="#E8E8E8" d="M76.515,350.125c-0.271-7.558-0.501-15.109,4.315-21.652c5.65-5.182,10.741-3.875,14.862,1.797
			c4.014,5.527,8.821,9.781,15.298,12.031c3.921,2.082,7.936,1.164,11.954,0.289c3.219-0.848,6.319-0.496,9.333,0.83
			c8.219,8.002,20.535,6.24,29.561,12.396c5.062,3.695,9.504,7.76,9.467,14.721c-1.714,10.924-9.111,16.184-18.677,20.282
			c-14.504,6.218-29.809,9.974-44.476,15.629c-9.509,2.118-17.657-1.894-25.848-5.708c-2.116-1.428-4.12-3.01-6.011-4.732
			l0.191,0.154C72.885,380.813,72.745,365.468,76.515,350.125z"/>
		<path fill="#040404" d="M319.35,188.906c-32.047,34.677-73.096,56.63-113.136,80.006c-0.374,2.456-1.237,4.728-2.59,6.815
			c-7.713,8.305-15.456,17.308-27.304,6.09c-13.918-13.182-0.991-21.983,5.559-31.733c23.89-17.233,47.404-34.721,75.691-45.126
			c18.643-6.854,36.572-16.543,48.95-33.434l-0.749-0.8c3.188-2.544,6.18-2.359,8.966,0.65
			C316.274,177.218,317.813,183.062,319.35,188.906z"/>
		<path fill="#DCDCDC" d="M286.788,337.77c3.146,15.399,15.896,18.724,28.284,22.502c-0.072,2.908-0.146,5.813-0.218,8.718
			c-4.432,1.477-8.862,2.957-13.295,4.434c-13.771,13.744-32.116,18.818-49.509,25.306c-14.795,5.519-18.145-4.711-19.185-16.513
			c1.524-9.584,7.87-16.987,11.661-25.547c7.756-5.98,16.205-10.994,24.184-16.697C274.346,336.061,280.1,332.976,286.788,337.77z"
			/>
		<path fill="#C6C6C6" d="M171.062,58.479c6.29,3.515,15.375,17.475,14.735-4.218c-0.189-6.419-0.092-13.472,7.404-17.049
			c4.888,13.696,15.73,21.043,34.412,25.257c10.885,2.456-4.006,15.124,6.391,18.551c-2.23-0.272-4.759,0.044-6.645-0.91
			c-21.009-10.642-35.686-8.533-38.339,22.568c-4.945-28.113-22.765-16.785-36.288-17.238c-2.722-13.437-8.096-26.917,0.576-40.192
			c7.127-3.229,9.17,2.219,11.67,6.802c0.883,1.195,1.881,2.351,2.961,3.396C169.021,56.384,170.071,57.398,171.062,58.479z"/>
		<path fill="#F5F5F5" d="M49.782,292.468c-7.727-15.875-9.638-32.771-8.795-50.145c5.102-1.643,10.39-1.511,15.658-1.678
			c9.972-1.323,14.99,7.435,22.541,11.046c1.566,1.485,2.847,3.194,3.889,5.084c3.579,6.639,8.733,12.391,11.119,19.716
			c3.396,8.99,12.182,16.864,5.763,27.879c-3.546,3.301-7.922,3.551-12.409,3.336c-4.649-0.369-8.764-2.729-10.4-6.658
			C71.275,286.958,61.21,287.92,49.782,292.468z"/>
		<path fill="#BEBEBE" d="M90.307,206.719c15.109,1.438,28.913-4.354,42.969-8.208c17.704-4.854,34.464-2.671,50.999,4.284
			c-3.427,10.044-12.483,9.218-20.41,10.567c-9.462,1.613-19.61,0.312-27.961,6.586c-3.785,2.32-8.045,2.558-12.303,2.764
			c-4.113,0.325-8.199,0.905-12.222,1.863c-10.888,0.444-22.086-1.063-32.109,5.014c-3.388-0.365-6.125-1.767-7.764-4.904
			c3.893-6.938,5.132-14.373,4.13-22.22c1.789,0.048,3.583,0.097,5.38,0.145C83.672,204.979,88.044,203.463,90.307,206.719z"/>
		<path fill="#B0B0B0" d="M107.962,350.728c-10.886-5.172-15.335-18.191-27.133-22.256c0.07-3.01,0.138-6.016,0.208-9.021
			c-1.006-6.414-7.145-14.927,6.327-15.414c16.284,5.479,19.566,22.527,29.787,33.42C117.038,343.93,114.48,348.707,107.962,350.728
			z"/>
		<path fill="#C9C9C9" d="M314.736,171.374c-2.988-0.215-5.977-0.431-8.967-0.65c-0.209-5.782-17.559-5.523-4.339-17.325
			c8.178-7.299-6.911-9.786-10.319-16.042c11.379-5.084,17.599,9.926,27.989,7.03C317.646,153.385,316.19,162.379,314.736,171.374z"
			/>
		<path fill="#CDCDCD" d="M85.744,305.699c-1.569,4.582-3.137,9.164-4.706,13.752c-6.23-13.85-13.898-26.035-31.259-26.983
			c17.49-18.93,25.039,0.536,35.394,9.161c1.885,0.66,2.592,1.478,2.138,2.465C86.821,305.162,86.3,305.699,85.744,305.699z"/>
		<path fill="#CECECE" d="M152.935,85.278c0,10.304,0,20.604,0,30.903c-5.725-8.634-5.527-19.43-13.703-26.285
			C143.797,88.358,148.365,86.821,152.935,85.278z"/>
		<path fill="#B4B4B4" d="M53.798,247.697c-4.271-1.788-8.544-3.577-12.815-5.369c2.327-9.254,8.718-14.123,17.581-16.333
			c1.588,1.432,2.999,3.023,4.236,4.772c2.5,6.556,1.88,12.522-3.32,17.628C57.427,249.446,55.527,249.279,53.798,247.697z"/>
		<path fill="#A0A0A0" d="M183.666,459.232c1.797-3.098,3.597-6.191,5.396-9.289c2.349-2.332,3.493-7.092,8.438-4.188
			c4.223,7.275,1.529,14.77,0.674,22.203c-4.044-3.502-8.19-6.697-14.065-4.545C184.141,462,183.991,460.607,183.666,459.232z"/>
		<path fill="#C0C0C0" d="M76.515,350.125c-0.011,15.35-0.02,30.692-0.031,46.037C69.552,380.813,69.958,365.468,76.515,350.125z"/>
		<path fill="#C4C4C4" d="M126.002,94.396c-2.167,7.588-4.333,15.172-6.846,23.982c-2.522-7.232-4.653-13.344-6.786-19.461
			C116.913,97.41,121.458,95.903,126.002,94.396z"/>
		<path fill="#BBBBBB" d="M139.691,449.947c10.313,0.502,20.624,1.002,30.934,1.504c-0.09,0.605,0.015,1.596-0.303,1.758
			c-1.301,0.662-2.729,1.076-4.113,1.582C157.223,453.976,147.682,456.208,139.691,449.947z"/>
		<path fill="#CECECE" d="M306.219,126.055c-6.462-11.886-6.524-23.837-0.364-35.851
			C305.975,102.156,306.096,114.107,306.219,126.055z"/>
		<path fill="#BEBEBE" d="M171.062,58.479c-1.512-0.004-3.023-0.009-4.535-0.013c-6.384-3.603-3.928-9.935-4.724-15.265
			c0.018-0.949,0.035-1.894,0.053-2.838c1.459-3.125,2.918-6.244,4.376-9.373C172.198,39.383,170.667,49.103,171.062,58.479z"/>
		<path fill="#CECECE" d="M260.947,81.047c1.535-3.098,3.072-6.195,4.611-9.293c6.909,3.827,14.444,4.802,22.178,4.855
			C279.455,82.009,270.085,80.823,260.947,81.047z"/>
		<path fill="#AEAEAE" d="M58.458,229.102c0.042-1.042,0.077-2.079,0.105-3.111c4.315-0.431,8.632-0.866,12.947-1.305
			c3.061,0.141,6.125,0.281,9.19,0.417c3.698,0.791,5.991,2.847,6.165,6.824c-1.156,3.607-3.746,5.598-7.312,6.495
			C71.328,238.009,62.968,237.908,58.458,229.102z"/>
		<path fill="#C8C8C8" d="M76.292,396.007c1.569-0.021,3.135-0.039,4.704-0.063c2.511,3.006,6.18,4.563,8.999,7.186
			c2.364,3.533,2.797,7.104,0.25,10.752c-0.127,1.595-0.252,3.189-0.38,4.785C81.476,413.43,76.497,406.148,76.292,396.007z"/>
		<path fill="#D0D0D0" d="M238.373,31.404C232.48,26.491,223.632,23.78,225,13.459C231.594,17.848,236.891,23.209,238.373,31.404z"
			/>
		<path fill="#BABABA" d="M161.854,62.935c-2.85-5.897-5.701-11.793-8.549-17.69c2.854-1.625,5.704-3.251,8.553-4.881
			c-0.002,0,0.063,0.035,0.063,0.035C165.44,47.921,165.563,55.435,161.854,62.935z"/>
		<path fill="#C6C6C6" d="M89.762,418.492c8.527,1.572,14.415,6.555,18.271,14.162C100.124,430.285,94.11,425.464,89.762,418.492z"
			/>
		<path fill="#C0C0C0" d="M202.556,13.173c-7.197,5.365-14.542,5.554-22.029,0.632C187.874,13.595,195.213,13.384,202.556,13.173z"
			/>
		<path fill="#A0A0A0" d="M327.925,427.511c0.132-9.072,0.265-18.15,0.395-27.229C333.997,409.444,334.215,418.526,327.925,427.511z
			"/>
		<path fill="#A1A1A1" d="M234.718,477.589c7.271-0.461,14.542-0.922,21.813-1.393C249.6,481.917,242.309,482.103,234.718,477.589z"
			/>
		<path fill="#929292" d="M167.679,520.435c-0.905,0.93-1.874,1.926-2.845,2.928c-0.833-0.82-1.663-1.645-2.496-2.465
			c0.982-0.984,1.966-1.969,2.948-2.953C166.101,518.792,166.916,519.64,167.679,520.435z"/>
		<path fill="#747474" d="M128.803,215.964c14.975-19.197,36.391-11.275,55.472-13.173c45.021,6.283,85.522-5.102,122.245-31.268
			c-4.001,13.186-15.226,20.195-25.488,26.869c-30.453,19.799-61.705,38.364-92.646,57.416c-10.021,1.112-18.942-3.063-28.194-5.756
			c-7.288-3.212-13.187-8.735-20.36-12.185c-3.818-1.762-7.94-3.028-10.556-6.684C126.026,226.198,124.233,221.175,128.803,215.964z
			"/>
		<path fill="#CECECE" d="M185.883,173.057c-1.364-19.114-4.122-31.799-7.435-44.361
			C192.557,138.828,196.31,151.289,185.883,173.057z"/>
		<path fill="#CCCCCC" d="M90.307,206.719c-3.098-1.371-6.195-2.742-9.293-4.108c3.012-5.594-4.862-8.924-2.995-14.733
			C88.352,190.312,88.809,198.863,90.307,206.719z"/>
		<path fill="#C7C7C7" d="M117.842,188.726c-0.853-6.2-1.705-12.396-2.558-18.595C122.106,175.276,121.627,181.73,117.842,188.726z"
			/>
		<path fill="#C8C8C8" d="M220.468,116.981c-5.624,5.567-12.716,9.917-15.423,17.905c-2.476-12.299,4.164-17.018,15.43-17.896
			L220.468,116.981z"/>
		<path fill="#C4C4C4" d="M238.255,152.634c8.836,7.118,8.407,12.167,5.956,18.274C242.701,166.277,241.191,161.65,238.255,152.634z
			"/>
		<path fill="#C2C2C2" d="M290.29,89.98c-1.138,1.195-2.212,2.812-2.612,2.663c-1.887-0.721-4.289-1.503-5.215-3.041
			c-1.93-3.212,1.189-3.287,2.883-2.825C287.113,87.26,288.588,88.824,290.29,89.98z"/>
		<path fill="#CECECE" d="M233.911,80.99c9.038,0,18.077,0,27.114,0.004C251.988,86.544,242.949,86.518,233.911,80.99z"/>
		<path fill="#C8C8C8" d="M220.475,116.99c2.32-3.366,3.985-7.483,8.869-7.909c0.29-0.022,1.079,1.156,0.953,1.569
			c-1.467,4.846-5.859,5.281-9.829,6.332L220.475,116.99z"/>
		<path fill="#B7B7B7" d="M243.13,382.148c-2.489,13.184,4.095,13.656,13.7,9.721c14.924-6.113,29.82-12.295,44.729-18.447
			c-2.648,13.318-14.252,16.412-24.389,20.561c-17.234,7.048-34.801,13.288-52.227,19.87c-3.43-2.3-5.314-5.56-5.954-9.597
			C221.081,390.378,224.469,377.921,243.13,382.148z"/>
		<path fill="#AEAEAE" d="M224.977,405.059c-0.012,2.931-0.021,5.862-0.033,8.793c-4.481,3.01-8.965,6.021-13.447,9.028
			c-5.624,0.484-8.643,3.6-9.258,9.148c-1.578,4.574-3.153,9.148-4.734,13.723c-2.817,1.396-5.629,2.795-8.441,4.191
			c0.831-9.395,8.621-18.701-3.968-27.703c-5.291-3.783,5.268-5.326,7.832-8.596c1.452-1.916,2.896-3.84,4.331-5.777
			C205.678,398.828,214.49,393.669,224.977,405.059z"/>
		<path fill="#D8D8D8" d="M202.237,432.029c-4.585-10.813-1.624-13.99,9.258-9.145C208.409,425.931,205.324,428.978,202.237,432.029
			z"/>
		<path fill="#DDDDDD" d="M224.977,405.059c-8.778,2.755-17.559,5.511-26.337,8.261c-7.784-4.917-6.692-17.576-17.409-19.947
			c-14.37-2.215-14.57-13.267-15.064-24.129c-2.916-2.904-5.833-5.804-8.749-8.707c-4.293-12.52,9.893-20.859,7.448-32.961
			c12.072-26.008,36.352-36.698,60.176-47.959c14.396,5.365,27.045,10.752,40.229-5.893c8.207-10.361,24.172-1.661,26.668,14.123
			c2.668,16.846,3.386,33.998-5.146,49.924c-2.556,4.385-5.108,8.771-7.661,13.155c-7.883,6.578-21.634-4.166-27.21,9.219
			c-0.046,8.488-4.271,15.309-8.792,22.005C234.764,387.949,230.637,397.11,224.977,405.059z"/>
		<path fill="#B8B8B8" d="M225.04,279.615c-15.612,18.937-39.489,28.806-53.886,49.085c-7.819-4.039-6.49-11.434-6.705-18.23
			c3.385-11.848,9.603-23.996-3.278-34.343c-1.441-9.087,0.224-18.437-2.373-27.418c0.527-2.052,1.544-3.814,3.056-5.295
			c14.331-7.615,17.49,8.683,26.531,12.396c-3.572,6.578-19.389,7.839-9.961,19.883c9.735,12.439,16.234-2.245,24.284-4.328
			c4.429,3.313,8.702,3.058,12.826-0.567C218.701,273.736,221.872,276.676,225.04,279.615z"/>
		<path fill="#D9D9D9" d="M215.533,270.796c-2.418,6.534-5.831,11.824-13.988,11.174c0.386-3.537,0.775-7.07,1.162-10.606
			c0.969-1.104,2.138-1.92,3.506-2.452C209.32,269.54,212.427,270.168,215.533,270.796z"/>
		<path fill="#B1B1B1" d="M263.7,246.836c2.212-1.05,4.583-2.179,6.956-3.304c0.292,1.165,1.177,3.045,0.779,3.375
			c-2.011,1.67-4.356,2.931-6.584,4.337C264.551,250.092,264.249,248.937,263.7,246.836z"/>
		<path fill="#E2E2E2" d="M166.165,369.244c5.982,7.363,11.967,14.732,17.949,22.103c2.742,1.528,2.735,3.049-0.022,4.556
			c-28.8,18.965-61.131,19.487-93.849,17.98c-1.6-2.971-3.201-5.938-4.803-8.906c2.808-14.698,16.871-1.512,22.548-9.102
			C126.015,384.012,150.524,386.318,166.165,369.244z"/>
		<path fill="#BDBDBD" d="M184.092,395.901c0.011-1.517,0.02-3.036,0.026-4.556c8.441,4.947,11.416,13.502,14.516,21.979
			c-1.896,0.105-3.799,0.215-5.704,0.32C189.982,407.73,187.039,401.816,184.092,395.901z"/>
		<path fill="#A7A7A7" d="M171.163,305.541c-0.004,7.719-0.007,15.436-0.009,23.16c0.784,12.922-5.396,22.84-13.738,31.829
			c-11.093,2.896-20.507,1.063-26.81-9.526c-0.435-7.558,5.374-11.164,9.856-15.606c16.93-27.383,16.572-36.522-2.391-59.828
			c-1.322-3.115-2.935-6.107-3.73-9.447c-0.261-2.412,0.09-4.706,1.011-6.938c1.237-2.087,2.823-3.849,4.737-5.325
			c2.107-1.217,4.383-1.815,6.811-1.828c17.275,1.564,14.043,19.509,22.46,28.157C176.601,288.162,175.99,296.703,171.163,305.541z"
			/>
		<path fill="#EFEFEF" d="M144.199,342.048c-2.707,5.758-7.593,8.205-13.593,8.955c-2.627-0.043-5.257-0.088-7.885-0.135
			c-7.927-0.857-8.021-7.963-10.501-13.166c-11.616-8.361-17.495-21.469-26.479-32.004c-0.191-1.359-0.38-2.717-0.564-4.07
			c4.5-0.082,9.003-0.17,13.507-0.254c13.234,4.535,22.991,15.053,35.853,20.545C142.196,325.194,146.353,332.751,144.199,342.048z"
			/>
		<path fill="#C3C3C3" d="M112.22,337.703c5.433,2.844,8.511,7.563,10.488,13.166c-4.939,3.439-9.865,3.937-14.746-0.138
			C109.381,346.386,110.801,342.044,112.22,337.703z"/>
		<path fill="#DDDDDD" d="M107.989,395.875c-7.516,3.033-15.032,6.068-22.548,9.102c-1.483-3.01-2.964-6.02-4.444-9.03
			C89.993,395.923,98.992,395.897,107.989,395.875z"/>
		<path fill="#B6B6B6" d="M251.92,360.144c1.281-26.053,19.316-2.667,27.207-9.219C270.061,353.996,260.989,357.072,251.92,360.144z
			"/>
		<path fill="#DADADA" d="M161.854,62.935c0.022-7.509,0.046-15.023,0.068-22.537c3.946,5.409,4.491,11.684,4.605,18.068
			c1.145,4.552,9.126,8.85,3.579,12.962C166.789,73.885,164.335,66.336,161.854,62.935z"/>
		<path fill="#DEDEDE" d="M144.199,342.048c-14.116-14.736-38.454-18.036-45.513-40.674c-4.297-7.61-8.59-15.222-12.883-22.832
			c1.738-3.063,3.25-6.292,6.169-8.498c7.852-3.581,16.211-1.854,24.36-2.324c9.383-0.839,18.604,1.542,27.952,1.415
			c19.146,15.717,19.492,36.672,16.368,58.611C159.291,337.304,153.835,342.058,144.199,342.048z"/>
		<path fill="#CFCFCF" d="M90.553,273.371c-1.586,1.727-3.17,3.454-4.754,5.176c-2.86-6.094-5.725-12.185-8.59-18.274
			c4.585-14.671,20.845-10.906,29.709-18.824c6.016-1.296,11.855-3.247,17.8-4.794c8.885,0.18,15.592-3.251,19.305-11.645
			c5.945,6.129,11.888,12.264,17.831,18.397c0.233,1.235,0.459,2.465,0.679,3.695c-2.241,10.884-11.8,7.457-18.564,9.491
			l0.042,0.356c-1.905,0.773-4.493,0.831-4.15,3.959c0.149,1.445,0.27,2.891,0.365,4.341c-6.47,7.593-15.298,3.621-23.084,4.714
			C108.169,270.199,98.983,268.828,90.553,273.371z"/>
		<path fill="#B5B5B5" d="M107.692,247.882c-5.191,16.363-21.877,4.46-30.487,12.396c-0.363-1.165-0.681-2.338-0.954-3.52
			c-2.509-3.265-2.981-6.762-1.228-10.52c3.324-4.517,8.201-5.171,13.274-5.334c3.695-0.079,7.389-0.004,11.055,0.536
			C103.111,242.319,106.068,244.235,107.692,247.882z"/>
		<path fill="#CCCCCC" d="M76.543,247.596c-0.097,3.054-0.193,6.104-0.292,9.157c-7.483-3.019-14.966-6.042-22.451-9.061
			c1.485-0.127,2.975-0.202,4.466-0.229C64.4,241.832,70.552,233.654,76.543,247.596z"/>
		<path fill="#DCDCDC" d="M85.265,229.542c-1.521-1.481-3.039-2.961-4.561-4.438c7.54-12.703,19.437-10.436,31.081-9.034
			c8.056,5.15,12.404,11.319,5.635,20.538C104.965,242.148,93.236,244.393,85.265,229.542z"/>
		<path fill="#D9D9D9" d="M128.803,215.964c2.094,4.451,4.186,8.898,6.279,13.345c3.117,1.977,6.217,5.124,4.284,8.353
			c-2.977,4.978-8.625,2.755-13.332,2.518c-3.654-1.354-6.009-3.823-6.668-7.755c-0.404-7.109-3.596-14.513,2.21-20.968
			C123.985,212.958,126.395,214.461,128.803,215.964z"/>
		<path fill="#989898" d="M121.577,211.456c-0.057,7.492-0.117,14.983-0.174,22.479c-1.435,1.05-2.872,1.107-4.313,0.018
			c-1.764-5.963-3.528-11.925-5.299-17.884C115.05,214.532,118.313,212.994,121.577,211.456z"/>
		<path fill="#E1E1E1" d="M76.543,247.596c-6.09-0.044-12.182-0.088-18.274-0.132c-3.355-6.156-3.181-12.272,0.189-18.362
			c7.898,0.031,15.55,1.129,22.521,5.185c4.44,3.247,21.932-2.47,8.814,12.834C85.377,247.28,80.959,247.438,76.543,247.596z"/>
		<path fill="#CCCCCC" d="M89.793,247.122c2.667-8.129-5.007-9.157-8.814-12.839c1.43-1.578,2.86-3.164,4.289-4.746
			c10.169,4.623,20.994,4.521,31.821,4.416c1.439,0.018,2.878,0.009,4.315-0.018c1.591,1.305,3.181,2.61,4.774,3.915
			c-2.107,3.704-5.743,5.316-9.412,6.881c-5.62,1.687-11.945-1.529-17.229,2.482C96.288,247.183,93.04,247.152,89.793,247.122z"/>
		<path fill="#A7A7A7" d="M117.315,242.6c2.953-1.582,5.905-3.159,8.86-4.745c6.334,0.655,10.381-1.068,8.907-8.546
			c2.981-1.433,5.96-2.865,8.941-4.302c0.508,12.94-6.378,18.375-18.632,18.358C122.476,245.461,119.736,245.72,117.315,242.6z"/>
		<path fill="#D2D2D2" d="M143.969,256.595c5.128-5.229,11.554-7.918,18.558-9.487c15.447,7.105,5.347,17.893,3.95,27.423
			c1.472,1.107,1.931,2.171,1.384,3.194c-0.536,0.998-1.061,1.499-1.582,1.499C159.515,271.021,153.578,261.995,143.969,256.595z"/>
		<path fill="#E9E9E9" d="M166.279,279.224c0.066-1.564,0.132-3.128,0.198-4.693c7.738,6.692,15.473,13.384,24.345,21.056
			c-8.151,4.131-13.907,7.043-19.661,9.958C169.535,296.77,167.907,287.999,166.279,279.224z"/>
		<path fill="#CFCFCF" d="M111.014,266.249c9.733-0.33,19.463-0.664,29.203-0.993c1.36,1.296,2.711,2.592,4.066,3.884
			c-8.522,6.406-18.355,5.413-28.095,4.974C113.648,272.027,110.221,270.528,111.014,266.249z"/>
		<path fill="#BABABA" d="M139.86,260.91c-1.58-1.23-4.688-3.203-4.506-3.577c2.469-5.093,5.668-1.125,8.656-0.387
			C142.626,258.273,141.245,259.592,139.86,260.91z"/>
		<path fill="#B4B4B4" d="M112.284,288.315c5.031,0.048,10.137-0.422,15.078,0.281c5.728,0.813,12.833,2.566,12.764,9.354
			c-0.099,9.896-8.994,6.586-14.852,7.461C115.9,303.544,110.706,298.505,112.284,288.315z"/>
		<path fill="#868686" d="M112.284,288.315c4.333,5.703,8.663,11.401,12.993,17.097C105.04,311.796,106.299,301.854,112.284,288.315
			z"/>
		<path fill="#727272" d="M111.014,266.249c1.727,2.624,3.454,5.247,5.179,7.865c-8.549-0.246-17.095-0.492-25.639-0.743
			C95.809,266.503,103.7,267.202,111.014,266.249z"/>
		<path fill="#EDEDED" d="M117.315,242.6c2.693,0.25,5.389,0.505,8.081,0.76c-5.903,1.507-11.802,3.01-17.701,4.517
			c-2.725-0.215-5.446-0.439-8.164-0.659C104.829,243.242,111.15,243.22,117.315,242.6z"/>
	</g>
</g>
</svg>
