<?xml version="1.0" encoding="utf-8"?>
<!-- Generator: Adobe Illustrator 15.0.2, SVG Export Plug-In . SVG Version: 6.00 Build 0)  -->
<!DOCTYPE svg PUBLIC "-//W3C//DTD SVG 1.1//EN" "http://www.w3.org/Graphics/SVG/1.1/DTD/svg11.dtd">
<svg version="1.1" id="Layer_1" xmlns="http://www.w3.org/2000/svg" xmlns:xlink="http://www.w3.org/1999/xlink" x="0px" y="0px"
	 width="411.023px" height="198.391px" viewBox="-42.52 -46.286 411.023 198.391"
	 enable-background="new -42.52 -46.286 411.023 198.391" xml:space="preserve">
<g>
	<path d="M159.191,36.248c-1.437,0.354-2.894-0.001-4.324-0.216c-0.777-0.116-1.063,1.11-0.299,1.225
		c1.659,0.25,3.299,0.616,4.961,0.207C160.281,37.278,159.958,36.059,159.191,36.248z"/>
	<path d="M157.63,33.876c0.625-0.185,1.275-0.238,1.899-0.421c0.742-0.219,0.422-1.44-0.338-1.215
		c-0.625,0.185-1.275,0.238-1.899,0.421C156.55,32.878,156.87,34.101,157.63,33.876z"/>
	<path d="M365.241,40.122c0.246-1.346,0.339-2.722,0.457-4.12c0.023-0.275-0.203-0.525-0.449-0.603c-2.725-0.866-5.7-1.35-8.561-1
		c-0.276-0.866-0.69-1.634-1.305-2.227c-4.716-4.542-12.965-6.286-19.07-7.399c-4.618-0.843-8.585-2.483-12.595-4.892
		c-3.185-1.915-6.283-3.725-9.938-4.552c-3.882-0.878-8.073,0.043-12.001,0.006c-5.038-0.046-8.886-3.15-12.616-6.164
		c0.267-0.385,0.111-1.062-0.46-1.013c-0.37-0.063-0.738-0.127-1.106-0.191c-0.002,0-0.004,0-0.005-0.001
		c-3.274-3.363-9.235-1.601-12.392-5.327c-0.263-0.31-0.761-0.186-0.935,0.143c-0.004,0.007-0.008,0.013-0.012,0.019
		c-0.006-0.011-0.005-0.024-0.012-0.035c-0.952-1.614-5.031-1.4-6.625-1.563c-2.754-0.281-5.512-0.702-8.271-0.906
		c-1.381-0.103-10.538-0.738-13.664,0.667c-0.096-0.123-0.244-0.202-0.447-0.191c-3.749,0.206-7.318,0.899-10.879,2.092
		c-3.915,1.312-7.107,3.843-10.911,5.274c-8.371,3.151-16.951,5.869-25.638,8.027c-7.505,1.865-14.759,4.464-22.23,6.44
		c-5.415,1.433-11.486,3.193-15.127,7.727c-2.53,0.186-4.685,1.757-7.217,1.879c-0.325,0.015-0.618,0.305-0.591,0.644
		c0.156,1.933-0.178,3.826-0.404,5.74c-0.048,0.397,0.149,0.779,0.592,0.792c2.146,0.063,4.333,0.763,6.466,0.563
		c2.986,2.208,7.14,1.853,10.597,1.245c4.551-0.8,8.913-2.277,13.383-3.401c3.098-0.779,6.056-1.907,9.071-2.951
		c3.195-1.106,6.561-1.58,9.841-2.364c6.021-1.438,12.715-2.016,18.447-4.399c0.348,2.786,0.646,5.627,0.735,8.399
		c0.104,3.131-1.455,6.191-2.453,9.078c-1.478,4.281-0.806,8.846-1.093,13.289c-3.267-1.543-6.71-0.302-10.054,0.633
		c-4.974,1.39-8.621-1.404-13.384-1.795c-2.951-0.243-5.973,0.396-8.886,0.796c-2.279,0.312-8.219,1.746-9.802-0.64
		c-0.416-0.631-1.302-0.094-1.084,0.511c-0.009,0.065-0.018,0.132-0.005,0.205c0.182,1.067,0.348,2.124,0.396,3.207
		c0.012,0.265,0.177,0.542,0.45,0.604c6.365,1.433,12.765-0.126,19.191,0.304c3.479,0.234,6.797,1.466,10.309,1.656
		c4.056,0.217,8.268-2.645,12.146-1.131c-0.148,0.505-0.325,1.011-0.534,1.507c-0.074,0.071-0.14,0.151-0.184,0.267
		c-2.428,6.704-2.015,13.779-2.308,20.79c-0.324,7.697-0.923,15.234-0.72,22.966c0.2,7.75,0.9,15.741-0.905,23.354
		c-1.177,4.97-5.18,10.218-3.324,15.487c-0.56,0.359-0.17,1.346,0.498,1.138c1.117-0.349,3.262,0.156,4.49,0.109
		c1.129-0.045,2.277-0.193,3.39-0.386c2.904-0.502,5.743-1.259,8.607-1.939c1.588-0.378,3.196-0.675,4.816-0.915
		c0.131,0.135,0.318,0.213,0.555,0.138c0.339-0.108,0.659-0.225,0.973-0.348c3.915-0.495,7.88-0.675,11.797-0.758
		c3.8-0.078,6.833-1.149,9.59-3.798c1.809-1.736,3.211-3.685,5.375-5.025c2.399-1.484,5.007-2.633,7.411-4.145
		c8.565-5.386,14.389-14.764,19.096-23.458c2.79-5.153,4.883-10.557,7.071-15.979c0.851-2.104,1.595-3.883,1.477-6.189
		c-0.109-2.154-1.151-4.1-1.17-6.278c0.08-0.291,0.143-0.595,0.175-0.924c0.285-3.125,0.077-6.381-0.155-9.498
		c-0.075-0.997-0.172-1.989-0.281-2.981c0.048,0.015,0.108,0.027,0.151,0.042c0.462,0.173,0.743-0.243,0.715-0.646
		c4.079-0.905,7.582,1.046,11.588,1.798c1.854,0.346,3.751,0.514,5.632,0.608c2.021,0.101,8.016,0.232,6.635-3.396
		c-0.089-0.231-0.301-0.492-0.586-0.454c-4.49,0.599-8.557-1.917-12.923-2.512c-3.911-0.532-7.711,1.101-11.606,0
		c-0.074-0.02-0.138-0.017-0.202-0.012c-0.726-5.057-1.605-10.097-1.878-15.21c-0.219-4.109-0.566-8.194-0.731-12.295
		c3.901,2.528,15.267,4.206,17.18,4.559c8.319,1.533,16.713,2.476,24.996,4.266c4.158,0.899,8.22,2.184,12.462,2.631
		c3.931,0.414,7.883-0.241,11.709-1.074c0.402-0.087,0.493-0.47,0.38-0.787c0.011-0.03,0.027-0.051,0.034-0.084
		c0.076-0.36,0.152-0.754,0.23-1.166c2.346,0.319,4.714,0.419,7.055,0.776c0.264,0.04,0.552-0.035,0.672-0.302
		c0.362-0.801,0.606-1.614,0.785-2.44C365.241,40.491,365.273,40.303,365.241,40.122z M364.464,36.48
		c-0.042,0.536-0.084,1.069-0.136,1.601c-0.089-0.194-0.252-0.354-0.504-0.381c-1.895-0.21-3.788-0.406-5.697-0.422
		c-0.778-0.006-0.756,1.26,0.021,1.266c1.91,0.017,3.803,0.211,5.697,0.422c0.178,0.021,0.305-0.037,0.399-0.13
		c-0.031,0.25-0.067,0.498-0.107,0.743c-2.355-0.036-4.704-0.205-7.052-0.387c0.088-1.209,0.078-2.437-0.107-3.568
		C359.474,35.335,362.067,35.765,364.464,36.48z M259.839,1.597c1.907,0.142,3.815,0.5,5.726,0.675
		c1.538,0.14,3.075,0.286,4.609,0.48c0.526,0.067,2.733,0.138,3.045,0.667c0.13,0.219,0.314,0.292,0.498,0.286
		c-1.439,2.441-3.205,4.635-4.551,7.166c-1.65,3.107-5.939,2.234-8.975,2.072c-2.922-0.157-6.289,0.382-8.916-1.095
		c-1.454-0.819-7.209-7.147-5.626-9.114c0.132-0.099,0.222-0.259,0.19-0.495C245.731,1.367,258.65,1.509,259.839,1.597z
		 M153.495,38.172c0.206-1.584,0.416-3.165,0.36-4.765c2.112-0.287,3.99-1.433,6.086-1.746c0.037,0.074,0.084,0.139,0.137,0.194
		c-0.155,0.857-0.145,1.733-0.102,2.609c-0.068-0.056-0.148-0.101-0.256-0.121c-1.249-0.229-2.495-0.214-3.748-0.02
		c-0.762,0.118-0.746,1.385,0.02,1.266c1.139-0.177,2.292-0.229,3.429-0.02c0.262,0.048,0.462-0.067,0.591-0.238
		c0.045,1.137,0.002,2.259-0.463,3.317C157.571,38.976,155.502,38.354,153.495,38.172z M210.44,62.281
		c-5.041,1.538-9.552,0.097-14.534-0.729c-3.735-0.618-7.624-0.094-11.37,0.141c-1.871,0.116-3.729,0.114-5.602-0.011
		c-2.357-0.158-2.715-0.685-2.948-2.046c1.164,0.594,2.64,0.633,3.946,0.631c3.749-0.002,7.484-0.859,11.202-1.244
		c3.99-0.413,7.307,1.211,11.125,2.008c5.182,1.081,10.626-3.539,15.449-0.842c-0.069,0.6-0.172,1.196-0.297,1.789
		C215.038,61.084,212.96,61.512,210.44,62.281z M290.915,93.693c-2.012,5.048-4.115,9.958-6.704,14.741
		c-5.137,9.485-11.492,18.152-20.868,23.76c-2.015,1.203-4.224,2.049-6.125,3.43c-1.34,0.972-2.397,2.379-3.544,3.557
		c-3.824,3.932-7.621,4.131-12.801,4.213c-1.807,0.028-3.633,0.166-5.459,0.346c1.083-0.816,2.026-1.829,2.923-3.1
		c1.091-1.547,2.14-3.246,2.637-5.081c0.469-1.728-0.639-3.354-0.827-5.022c-0.225-1.976,1.845-4.235,2.818-5.809
		c1.067-1.729,1.51-3.56,1.735-5.562c0.3-2.712-0.021-5.373,0.492-8.086c0.438-2.332,1.348-4.621,2.288-6.785
		c1.984-4.563,4.871-6.477,9.558-7.844c4.174-1.217,8.467-1.959,12.644-3.19c7.638-2.255,15.678-5.279,21.396-11.031
		c0.086-0.007,0.179-0.034,0.272-0.098c0.285-0.191,0.531-0.399,0.75-0.623c0.175,1.014,0.448,2.004,0.716,3.028
		C293.687,87.863,292.112,90.689,290.915,93.693z M291.263,63.666c0.04,0.304,0.081,0.606,0.124,0.91
		c0.013,0.091,0.019,0.183,0.03,0.273c-6.174-0.496-23.071,0.514-24.969-2.704c4.077,1.637,8.888,0.72,13.106,0.205
		c1.203-0.147,10.955-0.453,10.687,0.722C290.09,63.738,290.904,64.072,291.263,63.666z M306.821,63.621
		c2.399,0.628,4.729,1.767,7.224,1.987c0.533,0.049,3.707-0.403,2.064,0.696c-0.632,0.421-1.594,0.463-2.316,0.535
		c-2.692,0.272-5.541-0.079-8.196-0.537c-4.54-0.781-8.309-3.002-12.952-1.592c-0.069-0.548-0.136-1.093-0.21-1.64
		C297.18,64.282,301.993,62.355,306.821,63.621z M345.285,44.518c-4.094-0.144-8.068-1.5-12.032-2.41
		c-7.598-1.743-15.315-2.927-23.024-4.047c-2.088-0.304-18.786-3.739-20.622-5.076c-0.029-1.028-0.063-2.056-0.061-3.086
		c0.003-1.004,0.608-6.998-1.265-6.969c-0.779,0.012-0.761,1.278,0.02,1.266c-0.387,0.005-0.013,2.313,0.015,3.116
		c0.057,1.625,0.035,3.251,0.02,4.875c-0.001,0.067,0.004,0.135,0.003,0.203c-0.019,0.128-0.019,0.252,0.005,0.376
		c-0.009,4.592,0.391,9.244,0.823,13.807c0.493,5.197,1.179,10.33,1.88,15.491c-1.317-1.358-5.525-1.202-6.694-1.237
		c-5.906-0.164-12.836,2.668-18.346-0.257c-0.338-0.178-0.805-0.013-0.873,0.393c-1.218,7.021,19.779,4.45,26.426,5.14
		c0.268,2.258,0.47,4.519,0.554,6.794c0.072,1.929,0.588,5.563-0.689,7.433c-0.131,0.004-0.268,0.052-0.391,0.186
		c-6.031,6.612-15.031,9.615-23.401,12.029c-5.936,1.713-15.431,1.838-19.201,7.514c-2.018,3.042-3.314,6.531-4.24,10.046
		c-1.32,5.026,0.168,10.051-2.707,14.706c-1.774,2.875-3.125,4.869-1.933,8.261c0.979,2.784-1.443,5.929-3.086,8.063
		c-1.117,1.452-2.585,2.335-4.226,2.975c-2.579,0.366-5.144,0.854-7.632,1.445c-2.776,0.659-5.513,1.38-8.344,1.791
		c-1.454,0.21-2.921,0.246-4.386,0.241c-0.427,0-0.925-0.091-1.415-0.143c-0.035-0.052-0.08-0.092-0.13-0.13
		c-1.957-5.376,2.725-11.799,3.764-17.063c1.31-6.637,0.703-13.67,0.502-20.379c-0.217-7.358-0.163-14.643,0.542-21.976
		c0.715-7.436-0.198-14.884,2.231-22.07c0.045-0.047,0.089-0.099,0.124-0.173c2.825-6.302,0.866-13.248,2.588-19.778
		c0.749-2.842,2.333-5.44,2.453-8.447c0.145-3.704-0.467-7.671-0.96-11.345c-0.106-0.792-1.301-0.785-1.193,0.021
		c0.03,0.23,0.06,0.465,0.088,0.696c-5.16,2.183-11.028,2.598-16.449,3.933c-2.92,0.719-5.851,1.322-8.789,1.952
		c-3.281,0.704-6.402,2.136-9.588,3.168c-3.904,1.267-7.998,2.265-11.98,3.265c-3.736,0.938-8.866,2.221-12.603,0.422
		c0.56-0.279,0.396-1.18-0.135-1.224c0.544-2.404-0.496-4.995,0.648-7.271c0.038-0.078,0.055-0.155,0.063-0.228
		c3.914-4.501,10.366-5.976,15.926-7.429c6.929-1.809,13.631-4.271,20.585-6.008c4.042-1.009,8.079-2.01,12.048-3.282
		c3.906-1.25,7.623-2.979,11.555-4.173c3.577-1.087,6.372-3.084,9.765-4.596c4.17-1.86,8.567-2.925,13.107-3.244
		c-1.407,2.17,1.489,5.805,2.647,7.454c2.544,3.62,5.529,4.67,9.806,4.526c3.427-0.116,8.116,1.363,11.313-0.312
		c1.29-0.676,1.891-2.356,2.525-3.578c1.133-2.171,2.746-3.999,3.991-6.102c3.697,3.403,10.426,1.183,12.879,6.31
		c0.231,0.479,0.73,0.353,0.967,0.015c2.148,1.712,4.32,3.384,6.748,4.706c2.936,1.598,6.304,1.583,9.553,1.427
		c4.595-0.221,8.675-0.4,12.969,1.557c3.586,1.636,6.746,4.069,10.329,5.727c3.485,1.612,7.365,2.109,11.103,2.816
		c3.489,0.659,6.685,1.9,9.896,3.376c2.188,1.005,5.32,2.233,6.101,4.64c-0.376,0.254-0.236,0.902,0.188,1.083
		c0.136,2.511,0.111,5.259-0.397,7.719c-0.004,0.02,0.001,0.035,0,0.054C351.93,44.2,348.668,44.635,345.285,44.518z M356.96,40.448
		c2.304,0.179,4.605,0.341,6.915,0.388c-0.109,0.421-0.251,0.837-0.416,1.249c-2.202-0.3-4.423-0.416-6.624-0.72
		C356.88,41.065,356.922,40.758,356.96,40.448z"/>
	<path d="M147.87,21.992c0.228,0.315,0.66,0.43,0.951,0.112c6.699-7.305,13.876-14.168,20.044-21.945
		c0.265-0.332,0.127-0.75-0.132-0.961c0.122-0.179,0.157-0.414,0.004-0.652c-4.368-6.748-10.405-12.105-16.886-16.774
		c-3.482-2.508-7.091-4.908-10.674-7.27c-1.43-0.941-2.914-1.817-4.497-2.474c-2.201-0.914-5.005-1.209-6.352-3.444
		c-0.329-0.543-0.995-0.254-1.096,0.215c-0.19-0.319-0.598-0.488-0.902-0.118c-3.095,3.77-8.853,3.155-12.996,1.628
		c-3.775-1.391-7.107-4.071-11.223-4.311c-0.287-0.333-0.724-0.246-0.946,0.019c-6.505,2.07-12.895,4.419-19.018,7.341
		c-0.179-0.229-0.356-0.459-0.55-0.682c-0.533-0.616-1.336,0.327-0.833,0.909c0.091,0.105,0.169,0.215,0.257,0.322
		c-2.809,1.381-5.566,2.875-8.239,4.544c-3.668,2.289-7.305,4.657-10.768,7.246c-0.88,0.658-3.25,2.09-3.868,3.512
		c-0.456-0.134-1.01,0.389-0.691,0.919c1.978,3.278,5.051,5.527,7.721,8.197c3.603,3.605,5.015,8.83,6.351,13.598
		c0.089,0.318,0.426,0.532,0.751,0.429c3.452-1.081,7.1-1.129,10.558-2.14c-0.218,1.421-0.431,2.84-0.622,4.258
		c-0.932,6.851-2.063,13.618-3.389,20.378c-1.398-2.695-4.117-5.238-5.691-7.342c-1.612-2.159-2.664-4.639-3.941-6.999
		c-1.895-3.501-4.045-6.864-6.204-10.207c-6.305-9.763-11.784-21.004-21.182-28.227c-0.402-0.309-0.771,0.027-0.836,0.435
		c-0.077-0.144-0.198-0.257-0.362-0.285c-3.318-0.555-6.485,1.599-9.189,3.246c-4.342,2.645-8.641,5.401-13.071,7.895
		C14.198-3.172,5.3-2.059,0.996,4.048C0.56,4.667,1.49,5.262,1.978,4.735C1.967,4.855,1.983,4.98,2.062,5.108
		c3.393,5.42,3.895,12.014,5.453,18.084c1.725,6.733,5.127,13.38,8.321,19.517c3.406,6.543,7.52,12.725,11.35,19.023
		c4.135,6.795,7.85,13.751,11.354,20.891c5.257,10.717,10.208,21.525,14.792,32.547c1.684,4.054,3.37,8.106,5.052,12.159
		c0.831,2.003,1.915,4.065,2.548,6.16c-0.073,0.034-0.147,0.069-0.22,0.102c-0.708,0.328-0.093,1.419,0.633,1.083
		c7.903-3.647,15.68-7.604,23.911-10.482c0.318-0.111,0.429-0.4,0.402-0.676c0.341-0.057,0.622-0.336,0.446-0.744
		c-6.282-14.508-13.301-28.536-20.291-42.708c-6.716-13.613-11.184-28.352-18.393-41.71c5.185,5.448,10.131,11.11,14.704,17.085
		c4.926,6.437,8.917,13.422,13.304,20.218c4.444,6.885,9.632,13.143,13.701,20.284c1.974,3.458,4.242,6.678,6.334,10.053
		c1.509,2.439,2.373,5.2,4.083,7.512c-0.336,0.442,0.213,1.236,0.84,0.915c3.825-1.954,6.729-5.381,10.139-7.929
		c3.536-2.641,7.73-4.04,10.985-7.091c0.074-0.04,0.135-0.095,0.184-0.163c0.041-0.038,0.085-0.071,0.126-0.111
		c0.385-0.378,0.102-0.907-0.296-1.029c-4.142-11.296-12.06-21.03-20.208-29.767c1.031,0.102,2.066,0.203,3.099,0.294
		c10.842,0.969,21.638,2.028,32.218,4.718c0.172,0.044,0.315,0.011,0.434-0.06c0.174,0.566,1.062,0.729,1.151,0.028
		c2.067-16.051,1.851-32.064,2.243-48.2c0.061-2.52,0.214-5.029,0.396-7.535C142.65,19.699,146.158,19.615,147.87,21.992z
		 M118.14-27.648c2.992,0.544,6.131,0.59,8.677-0.811c-2.831,4.616-5.684,9.345-9.006,13.561c-1.287,1.632-2.927,3.239-4.377,4.954
		c-3.618-7.313-4.211-15.703-8.448-22.725C109.587-32.019,113.524-28.487,118.14-27.648z M126.147-24.209
		c0.774,0.482,1.542,0.976,2.311,1.466c-0.079,0.046-0.155,0.11-0.218,0.204c-2.481,3.715-4.517,7.689-6.809,11.518
		c-2.166,3.619-5.112,6.705-7.679,10.045c-0.829-1.213-1.533-2.476-2.137-3.78c0.001-0.004,0.004-0.006,0.005-0.009
		c1.302-3.921,5.487-7.128,7.928-10.384c2.256-3.011,4.313-6.233,6.319-9.471C125.895-24.463,125.982-24.313,126.147-24.209z
		 M112.594-8.901c-0.639,0.837-1.2,1.708-1.641,2.624c-0.896-2.167-1.637-4.408-2.486-6.64c-1.521-3.994-3.731-7.694-5.507-11.578
		c1.295-0.413,2.593-0.827,3.89-1.236C108.822-20.16,109.866-14.224,112.594-8.901z M103.481-32.762
		c1.212,1.858,2.146,3.824,2.927,5.85c-6.407,2.022-12.782,4.179-19.406,5.364c-0.546-1.442-1.245-2.818-2.129-4.11
		C90.874-28.499,97.171-30.754,103.481-32.762z M75.95,10.575c-2.133,0.42-1.908-1.326-2.461-3.078
		c-0.444-1.403-0.993-2.763-1.573-4.113c-2.369-5.532-7.543-8.266-10.816-12.969c0.081-0.1,0.13-0.234,0.105-0.415
		c-0.181-1.396,4.891-4.296,5.851-4.972c3.065-2.163,6.231-4.183,9.417-6.159c2.354-1.461,4.795-2.776,7.285-3.995
		c0.843,1.208,1.499,2.501,1.998,3.852c-0.422,0.274-0.184,1.063,0.378,1.125c1.208,3.986,1.236,8.387,0.989,12.534
		c-0.331,5.499-1.227,10.987-2.076,16.456C82.096,9.799,78.986,9.976,75.95,10.575z M19.983-5.017
		c4.023-2.024,7.725-4.684,11.604-6.963c1.31-0.771,2.605-1.564,3.911-2.341c0.947-0.564,1.921-1.069,2.924-1.528
		c0.265-0.121,3.587-1.092,2.668-0.379c-0.165,0.128-0.235,0.301-0.246,0.477c-2.442,1.894-4.485,4.223-6.728,6.351
		c-1.747,1.657-3.744,3.113-5.809,4.457c-0.019-0.015-0.03-0.035-0.049-0.049c-0.041-0.06-0.083-0.118-0.139-0.173
		c-0.393-0.389-0.971-0.325-1.447-0.159c-0.252,0.088-0.455,0.338-0.434,0.619c0.024,0.329,0.105,0.646,0.162,0.968
		c-0.098,0.06-0.195,0.12-0.292,0.179C25.88-3.696,25.578-3.643,25.38-3.46c-0.394,0.012-0.764,0.075-1.171,0.314
		c-0.287,0.168-0.349,0.555-0.203,0.837c-0.178,0.105-0.358,0.211-0.535,0.314c-0.017,0.01-0.035,0.02-0.052,0.029
		c-0.319-0.305-0.891-0.302-0.959,0.257c-0.013,0.103-0.025,0.21-0.036,0.315C16.884,1.726,9.661,4.839,3.358,3.142
		C7.581-1.084,14.865-2.443,19.983-5.017z M2.434,4.193C2.428,4.194,2.423,4.198,2.418,4.2c0.002-0.002,0.005-0.006,0.007-0.01
		C2.428,4.191,2.431,4.193,2.434,4.193z M120.434,98.691c-3.35,3.052-7.692,4.58-11.307,7.28c-2.92,2.181-5.381,5.012-8.53,6.877
		c-1.939-2.483-2.899-5.621-4.554-8.289c-2.13-3.433-4.399-6.729-6.406-10.25c-4.067-7.134-9.347-13.4-13.792-20.287
		c-4.393-6.808-8.45-13.712-13.384-20.161c-4.866-6.359-10.214-12.344-15.784-18.094c-0.242-0.251-0.525-0.215-0.734-0.059
		c-0.005-0.009-0.01-0.018-0.015-0.027c-0.409-0.709-1.429-0.029-1.034,0.657c7.906,13.699,12.46,29.108,19.353,43.32
		c6.996,14.431,14.247,28.601,20.604,43.338c-7.836,2.747-15.271,6.456-22.785,9.959c-0.59-1.844-1.532-3.666-2.265-5.436
		c-1.677-4.044-3.363-8.086-5.046-12.132c-4.385-10.545-9.052-20.921-14.07-31.189c-3.509-7.182-7.13-14.236-11.233-21.102
		c-3.997-6.688-8.313-13.199-12.042-20.045c-3.61-6.63-7.091-13.805-8.973-21.137C6.917,16,6.401,9.739,3.09,4.454
		C3.062,4.413,3.03,4.391,3.002,4.36c6.04,1.666,12.793-0.989,18.144-3.646c0.378-0.187,0.745-0.401,1.119-0.599
		c-0.358,4.08-0.255,9.153,2.298,12.271c1.161,1.417,2.71,2.45,4.211,3.475c1.038,0.711,4.503,2.327,4.63,3.701
		c0.077,0.804,1.298,0.79,1.219-0.021c-0.211-2.173-3.709-3.743-5.255-4.784c-2.26-1.524-3.863-2.758-4.898-5.352
		c-1.26-3.157-1.281-6.637-0.931-9.976c0.481-0.268,0.955-0.546,1.428-0.828c0.36,0.234,0.757,0.362,1.134,0.152
		c0.383-0.212,0.468-0.618,0.443-1.036c0.068-0.045,0.12-0.102,0.158-0.17c0.261-0.166,0.517-0.338,0.776-0.506
		c0.322,0.63,0.938,1.118,1.792,1.37c0.769,0.228,1.536,0.361,2.321,0.519c1.845,0.37,1.904,2.394,2.267,3.708
		c0.32,1.161,1.287,2.433,2.017,3.369c3.965,5.095,10.153,8.719,16.673,6.557c0.745-0.247,0.416-1.467-0.342-1.215
		c-6.36,2.11-12.329-1.787-15.923-6.879c-1.25-1.772-1.186-4.318-2.688-5.84c-0.852-0.862-4.252-1.078-4.99-2.243
		c0.023-0.043,0.04-0.087,0.053-0.134c1.269-0.862,2.522-1.745,3.743-2.659c3.592-2.69,6.268-6.391,9.951-8.95
		c0.234-0.162,0.297-0.413,0.255-0.644c0.195-0.271,0.34-0.58,0.439-1.005c0.001-0.006,0-0.014,0.001-0.021
		c0.041,0.075,0.098,0.144,0.174,0.202c9.214,7.082,14.527,18.225,20.734,27.78c3.373,5.19,5.983,10.832,9.303,16.013
		c1.01,1.579,2.241,3.034,3.404,4.501c1.176,1.482,3.264,3.595,3.713,5.621c-0.232,1.14-0.453,2.279-0.697,3.419
		c-1.788,8.39-3.389,16.81-6.364,24.884c-0.143,0.386,0.225,0.789,0.6,0.792c8.55,0.052,17.034,1.084,25.528,1.954
		C107.856,77.064,116.198,87.022,120.434,98.691z M137.123,72.208c-0.056-0.037-0.112-0.074-0.187-0.092
		c-9.874-2.512-20.041-3.783-30.185-4.575c-2.268-0.175-4.532-0.393-6.795-0.621c-0.176-0.123-0.365-0.131-0.525-0.052
		c-8.213-0.83-16.414-1.815-24.674-1.926c2.931-8.208,4.528-16.769,6.341-25.274c0.119-0.552,0.218-1.105,0.332-1.657
		c0.169-0.094,0.289-0.265,0.261-0.53c-0.016-0.141-0.046-0.28-0.073-0.42c1.741-8.588,3.074-17.196,4.266-25.891
		c1.288-9.38,4.61-21.746,1.537-31.517c4.893-0.88,9.65-2.285,14.385-3.781c2.036,4.532,4.693,8.819,6.214,13.563
		c1.196,3.73,2.659,7.427,4.958,10.62c-0.017,0.023-0.033,0.043-0.049,0.065c-0.449,0.621,0.388,1.539,0.866,0.882
		c0.085-0.118,0.179-0.229,0.264-0.346c0.189-0.09,0.328-0.256,0.349-0.457c2.449-3.263,5.182-6.299,7.496-9.667
		c2.728-3.972,4.707-8.435,7.383-12.449c0.054-0.081,0.085-0.162,0.098-0.239c4.926,3.146,9.788,6.387,14.7,9.554
		c0.053,0.034,0.104,0.044,0.156,0.06c-1.461,4.042-2.23,8.331-2.794,12.625c-0.935,7.119-1.742,14.287-2.071,21.46
		C138.595,38.492,139.22,55.323,137.123,72.208z M140.96,16.205c0.371-4.61,0.875-9.208,1.399-13.815
		c0.81-7.116,1.996-14.37,5.915-20.509c0.423-0.662-0.604-1.309-1.041-0.622c-1.027,1.611-1.854,3.305-2.552,5.042
		c-0.002-0.001-0.003-0.005-0.007-0.007c-5.988-3.859-11.896-7.837-17.938-11.606c-0.14-0.087-0.273-0.098-0.393-0.075
		c0.984-1.594,1.962-3.188,2.941-4.76c0.123-0.197,0.111-0.388,0.034-0.547c0.005-0.016,0.002-0.032,0.005-0.047
		c1.37,2.244,3.97,2.92,6.324,3.726c4.074,1.394,7.61,4.469,11.13,6.859c7.957,5.404,15.627,11.173,20.93,19.357
		c0.057,0.087,0.124,0.15,0.193,0.197c-6.019,7.565-12.984,14.274-19.527,21.369c-1.972-1.923-5.45-2.043-6.859-4.287
		C141.37,16.25,141.16,16.181,140.96,16.205z"/>
	<path d="M183.631-12.913c0.208,0.18,0.437,0.184,0.628,0.101c0.144,0.354,0.343,0.705,0.636,1.049
		c3.001,3.55,8.415,3.452,12.67,3.672c4.813,0.25,13.607-0.102,15.657-5.634c0.987-2.662,0.561-5.475,0.711-8.252
		c0.102-1.889,1.468-3.879,0.574-5.712c-0.05-0.101-0.114-0.167-0.173-0.244c0.047-0.111,0.075-0.237,0.044-0.382
		c-1.151-5.715-11.077-4.557-15.164-4.177c-2.219,0.207-6.063-0.033-7.514,2.066c-1.391,2.011-0.521,4.707,1.399,5.906
		c-2.635,0.376-5.309-0.476-7.981-1.444c-3.329-1.208-8.961-3.022-9.905,1.962c-0.331,1.745,0.348,3.592,1.117,5.122
		C177.855-15.838,181.201-15.011,183.631-12.913z M194.115-25.373c-2.916-1.102-2.108-4.449,0.235-5.232
		c0.961-0.322,2.024-0.362,3.028-0.442c1.555-0.125,3.101-0.299,4.661-0.38c2.99-0.157,9.788-0.588,11.046,3.024
		c-0.632,0.039-1.343,0.258-1.963,0.242c-0.682,0.087-1.363,0.176-2.046,0.263c-1.689,0.218-1.885-0.889-3.018-1.371
		c-1.053-0.448-1.919-0.457-3.034-0.262c-2.412,0.421-4.563,2.514-6.566,3.773c-0.645,0.405-1.291,0.699-1.94,0.911
		C194.485-25.071,194.364-25.28,194.115-25.373z M199.047-25.976c1.678-1.152,3.342-2.379,5.453-2.451
		c0.933-0.032,2.475,1.328,3.456,1.746c0.832,0.355,2.333-0.106,3.188-0.216c0.55-0.072,1.202,0.147,1.756,0.002
		c1.416-0.369,0.721,0.869,0.396,1.898c-0.571,1.818-0.629,3.716-0.612,5.608c0.026,2.985-0.021,5.528-2.567,7.591
		c-2.54,2.054-6.462,2.28-9.567,2.409c-3.894,0.162-8.103,0.049-11.819-1.201c-3.521-1.183-3.689-3.942-3.221-7.273
		c0.236-1.673-1.546-5.438-0.396-6.67c0.063-0.068,0.104-0.142,0.132-0.216c1.765,0.606,3.327,1.231,4.147,1.419
		C193.148-22.471,196.027-23.904,199.047-25.976z M184.029-25.149c-1.82,2.205,0.103,3.526,0.351,6.178
		c0.152,1.621-0.457,3.217-0.41,4.745c-3.365-2.68-7.504-3.972-7.62-9.083C176.266-26.976,180.318-26.314,184.029-25.149z"/>
	<path d="M189.175-16.974c3.034,0.789,6.124,0.668,9.232,0.654c0.78-0.003,0.761-1.269-0.02-1.266
		c-2.998,0.013-5.984,0.148-8.913-0.613C188.708-18.398,188.427-17.167,189.175-16.974z"/>
	<path d="M201.203-16.341c3.331,1.151,6.166-0.576,9.112-1.97c0.696-0.33,0.097-1.424-0.623-1.083
		c-2.648,1.253-5.186,2.865-8.19,1.828C200.754-17.825,200.478-16.59,201.203-16.341z"/>
	<path d="M191.517-15.605c-0.728-0.328-1.292,0.787-0.59,1.103c5.617,2.532,11.777,1.419,17.557,0.056
		c0.75-0.177,0.429-1.396-0.339-1.215C202.733-14.386,196.8-13.222,191.517-15.605z"/>
	<path d="M204.981-12.708c-2.84,1.073-5.719,1.073-8.703,1.241c-0.778,0.044-0.761,1.311,0.02,1.266
		c3.1-0.175,6.079-0.18,9.022-1.292C206.038-11.764,205.721-12.986,204.981-12.708z"/>
	<path d="M240.212-14.329c-0.135,1.771,0.781,3.446,2.31,4.343c1.729,1.015,3.486,0.132,4.511-1.381
		c0.442-0.652-0.59-1.294-1.044-0.622c-1.69,2.498-4.388,0.423-4.577-1.901c0.204,0.067,0.413,0.13,0.623,0.193
		c-0.271,0.161-0.45,0.512-0.257,0.871c0.859,1.591,2.395,1.522,3.778,0.635c0.233-0.149,0.302-0.389,0.266-0.613
		c4.651,0.86,9.65,1.121,12.35,1.653c-0.176,0.147-0.367,0.285-0.579,0.41c-0.664,0.394-0.066,1.494,0.626,1.083
		c1.804-1.071,2.555-2.818,2.479-4.763c0.356-0.079,0.678-0.515,0.464-0.959c-0.192-0.401,0.089-0.942,0.544-1.013
		c0.934-0.146,0.431,2.294,0.362,2.642c-0.298,1.515-1.033,3.024-2.128,4.117c-1.6,1.595-3.179-0.109-4.053-1.526
		c-0.429-0.695-1.441-0.015-1.027,0.657c1.202,1.95,3.085,3.666,5.363,2.226c1.239-0.783,2.076-2.189,2.593-3.687
		c-0.025,0.338,0.167,0.706,0.585,0.711c7.15,0.094,12.145-9.555,9.848-15.793c-0.279-0.762-1.424-0.396-1.147,0.354
		c2.027,5.508-2.357,14.255-8.72,14.171c-0.203-0.002-0.349,0.082-0.445,0.208c0.29-0.937,0.457-1.894,0.512-2.745
		c0.083-1.313-0.594-2.957-2.167-2.526c-0.824,0.226-1.276,0.949-1.345,1.719c-0.299,0.082-0.572,0.374-0.5,0.776
		c0.188,1.062,0.065,2.042-0.389,2.867c-0.047-0.026-0.09-0.057-0.15-0.07c-5.417-1.251-26.572-0.613-21.595-10.64
		c0.327,0.453,0.803,0.91,1.459,1.371c2.746,1.93,5.881,2.695,9.118,3.334c2.232,0.441,7.687,1.377,10.401,0.009
		c5.965,1.521,19.97-7.24,10.677-11.949c-0.001,0-0.003,0-0.005-0.001c0.027-0.115,0.062-0.222,0.081-0.343
		c0.046-0.266-0.029-0.572-0.288-0.71c-1.641-0.88-3.206-2.234-5.155-2.191c-0.135,0.002-0.237,0.052-0.323,0.117
		c-0.169-0.121-0.379-0.152-0.578-0.035c0.03-0.179,0-0.372-0.151-0.535c-5.075-5.522-10.485-4.692-16.413-1.138
		c-2.89-1.017-5.849,3.309-5.748,6.062c-0.099,0.137-0.148,0.307-0.133,0.482c-0.197-0.275-0.592-0.42-0.921-0.117
		c-1.549,1.424-2.729,2.85-2.565,4.313c-0.102,0.048-0.198,0.119-0.27,0.248C233.604-18.86,236.01-16.013,240.212-14.329z
		 M242.804-13.477c0.569,0.153,1.154,0.291,1.751,0.419C243.88-12.708,243.251-12.655,242.804-13.477z M263.297-32.239
		c0.088,0.054,0.187,0.096,0.315,0.092c1.508-0.034,2.862,1.034,4.146,1.796c-1.05,4.134-5.902,4.845-9.554,5.604
		c0.055-1.511-0.729-2.841-1.752-3.989C258.898-28.995,261.277-30.107,263.297-32.239z M246.802-33.954
		c2.383-1.423,4.667-2.39,6.883-2.578c1.398,1.961,1.522,4.277,1.517,6.599c-3.051-0.035-6.109-1.487-8.512-3.871
		C246.733-33.848,246.77-33.898,246.802-33.954z M261.709-32.958c0.116,0.128,0.245,0.174,0.369,0.181
		c-1.722,1.667-3.677,2.554-5.682,2.782c-0.005-2.282-0.14-4.563-1.281-6.551C257.369-36.374,259.556-35.305,261.709-32.958z
		 M244.955-33.875c2.673,3.165,6.359,5.096,10.048,5.196c0.014,0.126,0.056,0.252,0.164,0.363c1.104,1.125,2.14,2.45,1.764,4.091
		c-5.419,1.922-11.463-0.285-15.327-4.395c-0.002-0.04,0.007-0.076-0.003-0.118C241.264-30.237,243.09-33.561,244.955-33.875z
		 M240.186-27.696c0.146-0.133,0.198-0.29,0.189-0.44c0.009,0.01,0.01,0.022,0.019,0.031c4.461,5.065,11.777,7.438,18.083,4.584
		c0.006-0.001,0.012,0.001,0.019,0c3.802-0.791,8.468-1.673,10.076-5.429c6.745,3.65-3.882,9.831-9.052,9.631
		c0.432-0.733,0.5-1.732,0.017-3.088c-0.273-0.766-1.421-0.401-1.152,0.355c1.78,5.023-7.806,3.048-10.203,2.599
		c-1.469-0.274-2.945-0.592-4.379-1.015c-1.355-0.398-2.624-1.03-3.83-1.759C237.126-23.946,238.246-25.91,240.186-27.696z"/>
	<path d="M314.238-23.949c-0.046-0.052-0.055-0.115-0.029-0.188c-0.018-0.811-1.208-0.792-1.191,0.021
		c0.009,0.435,0.129,0.736,0.391,1.077C313.903-22.397,314.701-23.346,314.238-23.949z"/>
	<path d="M319.583-21.194c0.76,0.222,1.034-1.011,0.297-1.227c-0.697-0.204-1.014-0.792-1.325-1.403
		c-0.372-0.732-1.375-0.041-1.022,0.656C317.996-22.258,318.565-21.491,319.583-21.194z"/>
	<path d="M310.271-22.219c0.003,0.475,0.008,0.976,0.297,1.372c0.479,0.655,1.485-0.02,1.022-0.656
		c-0.158-0.217-0.125-0.48-0.126-0.738C311.463-23.05,310.268-23.029,310.271-22.219z"/>
	<path d="M322.324-22.895c0.166,0.715,0.186,1.423,0.186,2.154c0.001,0.811,1.195,0.79,1.195-0.021
		c-0.001-0.845-0.044-1.664-0.237-2.49C323.282-24.049,322.143-23.669,322.324-22.895z"/>
	<path d="M324.197-21.375c0,0.703,0,1.407,0,2.111c0,0.811,1.196,0.79,1.196-0.021c0-0.704,0-1.406,0-2.111
		C325.394-22.207,324.197-22.185,324.197-21.375z"/>
	<path d="M328.182-16.532c0.524,0,1.037-0.012,1.528,0.191c0.726,0.303,0.999-0.933,0.299-1.226
		c-0.581-0.242-1.229-0.23-1.847-0.231C327.384-17.799,327.405-16.533,328.182-16.532z"/>
	<path d="M330.365-14.339c-0.721-0.345-1.28,0.771-0.588,1.103c0.906,0.434,1.828,0.694,2.835,0.714
		c0.776,0.017,0.756-1.249-0.02-1.266C331.806-13.805,331.073-14,330.365-14.339z"/>
	<path d="M335.126-10.202c-0.396-0.001-0.736-0.035-1.106-0.191c-0.725-0.305-0.998,0.932-0.299,1.227
		c0.462,0.194,0.929,0.228,1.426,0.23C335.925-8.932,335.902-10.198,335.126-10.202z"/>
	<path d="M336.397-2.214c-0.577-0.575-1.388,0.36-0.836,0.909c0.362,0.361,0.725,0.699,1.181,0.94
		c0.71,0.377,1.271-0.739,0.589-1.103C336.962-1.663,336.691-1.922,336.397-2.214z"/>
	<path d="M306.144-18.724c0.075,0.04,0.146,0.053,0.217,0.062c0.939,1.002,1.47,2.278,2.025,3.535
		c0.727,1.655,1.828,3.08,2.907,4.514c2.07,2.755,4.788,4.996,7.512,7.083c0.343,0.262,0.655,0.054,0.781-0.262
		c0.024,0.017,0.036,0.037,0.063,0.052c2.063,1.075,3.504,2.904,5.133,4.511c1.747,1.723,3.989,2.477,6.05,3.718
		c0.691,0.417,1.25-0.705,0.59-1.103c-2.2-1.326-4.393-2.13-6.262-3.975c-1.568-1.546-2.938-3.222-4.921-4.255
		c-0.347-0.181-0.655-0.006-0.806,0.259c-0.015-0.014-0.023-0.033-0.039-0.047c-3.116-2.387-5.859-4.977-8.199-8.138
		c-1.652-2.237-2.235-5.311-4.341-7.169c-0.186-0.163-0.385-0.181-0.562-0.125c-0.554-0.316-1.174-0.748-1.393-1.287
		c-0.024-0.053-0.056-0.089-0.086-0.131c0.185-0.091,0.324-0.269,0.321-0.544c-0.062-6.66,3.25-14.036,9.265-17.295
		c-1.251,1.491-2.192,3.263-2.843,5.118c-0.263,0.755,0.888,1.083,1.155,0.318c0.843-2.416,2.28-4.763,4.349-6.303
		c0.121-0.012,0.242-0.054,0.354-0.168c1.06-1.063,2.714-0.721,4.219-0.527c-1.92,1.063-3.453,2.781-4.954,5.049
		c-0.433,0.655,0.59,1.301,1.038,0.622c2.913-4.403,6.013-6.308,11.419-5.297c4.741,0.886,8.407,4.273,11.703,7.551
		c0.158,0.158,0.334,0.194,0.494,0.163c0.002,0.258,0.123,0.519,0.405,0.628c2.563,0.988,5.027,2.708,6.923,4.704
		c-0.126,0.14-0.205,0.329-0.171,0.558c0.447,2.849,2.88,4.89,3.271,7.666c-0.079,0.1-0.136,0.227-0.132,0.395
		c0.1,4.231-0.277,10.281-2.183,15.132c0.001-0.057,0.005-0.111,0.005-0.169c0.004-0.813-1.198-0.791-1.202,0.021
		c-0.001,0.142,0.048,0.481-0.043,0.604c-0.363,0.499,0.107,1.175,0.556,1.087c-0.838,1.689-1.895,3.171-3.24,4.286
		c-0.081-0.427-0.267-0.908-0.59-1.46c-0.412-0.708-1.425-0.025-1.028,0.656c1.728,2.956-3.165,2.424-4.859,2.269
		s-3.541-0.407-5.238-0.897c1.762-2.473,1.52-5.172,1.781-8.036c0.264,0.193,0.547,0.363,0.872,0.407
		c0.776,0.108,1.063-1.12,0.299-1.225c-0.219-0.03-0.405-0.118-0.574-0.263c-0.155-0.133-0.322-0.174-0.476-0.152
		c-0.025-0.683-1.042-0.946-1.157-0.185c-0.326,2.159,0.372,9.179-3.088,8.102c-3.369-1.051-5.906-4.014-8.478-6.274
		c-1.943-1.708-4.165-3.01-6.15-4.654c-2.146-1.776-6.667-8.797-2.847-10.334c0.302-0.121,0.409-0.414,0.386-0.686
		c0.714,0.114,1.418,0.179,2.04-0.04c0.968,2.804,3.513,2.614,5.976,4.046c0.172,0.1,0.334,0.105,0.47,0.053
		c0.044,0.058,0.093,0.114,0.163,0.158c0.743,0.469,1.565,0.877,2.228,1.463c0.74,0.658,1.023,1.678,1.29,2.594
		c0.162,0.555,0.771,0.525,1.044,0.194c0.664,0.8,1.528,1.299,2.57,1.338c0.106,1.192,0.393,2.349,0.606,3.532
		c0.08,0.449,0.472,0.521,0.779,0.367c0.472,0.652,1.09,1.134,1.968,1.334c0.771,0.176,1.054-1.055,0.299-1.225
		c-0.917-0.209-1.391-0.772-1.747-1.614c-0.076-0.179-0.21-0.265-0.359-0.291c-0.188-0.915-0.375-1.822-0.398-2.768
		c-0.007-0.304-0.267-0.662-0.607-0.624c-1.062,0.122-1.851-0.282-2.433-1.171c-0.215-0.328-0.557-0.338-0.811-0.189
		c-0.266-0.788-0.605-1.542-1.163-2.178c-0.708-0.807-1.786-1.301-2.678-1.865c-0.171-0.108-0.333-0.118-0.47-0.064
		c-0.044-0.055-0.093-0.106-0.163-0.147c-2.257-1.313-4.982-0.987-5.627-4.058c-0.1-0.474-0.688-0.577-1.002-0.264
		c-0.413,0.413-1.92,0.145-2.588,0.04c-0.639-0.101-0.93,0.714-0.589,1.069c-1.938,0.912-2.33,2.038-1.926,4.386
		c0.461,2.671,2.836,6.009,4.758,7.852c2.515,2.414,5.678,4.186,8.271,6.568c2.327,2.137,4.629,3.898,7.569,4.85
		c-0.046,0.296,0.064,0.637,0.396,0.768c1.896,0.747,9.693,2.302,12.401,0.644c0.097,0,0.197-0.02,0.301-0.081
		c6.622-3.937,7.949-14.815,7.892-22.036c0.116-0.103,0.195-0.256,0.199-0.462c0.057-3.433-2.88-5.551-3.4-8.807
		c0.229-0.227,0.324-0.625,0.051-0.923c-2.069-2.247-4.801-4.125-7.65-5.222c-0.067-0.027-0.126-0.027-0.186-0.029
		c0.006-0.154-0.046-0.312-0.184-0.446c-3.934-3.902-8.516-7.884-14.351-8.198c-1.386-0.075-2.589,0.06-3.676,0.354
		c-0.077-0.214-0.259-0.376-0.544-0.354c-1.313,0.095-2.689-0.253-3.977-0.208c-0.121-0.197-0.335-0.311-0.613-0.189
		c-1.432,0.621-2.641,1.542-3.667,2.642c0.057-0.436-0.389-0.948-0.905-0.677c-6.493,3.413-10.059,11.365-9.995,18.489
		c0.001,0.126,0.037,0.225,0.087,0.311c-0.244,0.112-0.411,0.364-0.274,0.701C304.17-19.96,305.182-19.225,306.144-18.724z"/>
	<path d="M324.79-38.285c-0.469,0.448-1.007,0.818-1.477,1.266c-0.558,0.533,0.27,1.442,0.855,0.881
		c0.469-0.448,1.007-0.818,1.477-1.266C326.202-37.935,325.376-38.844,324.79-38.285z"/>
	<path d="M334.541-35.723c-0.017,1.98-0.142,4.022-0.755,5.921c-0.159,0.021-0.316,0.11-0.438,0.298
		c-0.867,1.355-2.145,2.025-3.657,2.448c-0.738,0.207-0.423,1.427,0.336,1.215c1.557-0.434,2.829-1.168,3.823-2.356
		c0.27,0.115,0.634,0.026,0.75-0.262c0.93-2.308,1.111-4.818,1.13-7.284C335.738-36.555,334.548-36.532,334.541-35.723z
		 M334.466-29.202c-0.001-0.007-0.004-0.012-0.005-0.018c0.012-0.001,0.023-0.002,0.033-0.005
		C334.486-29.217,334.477-29.209,334.466-29.202z"/>
	<path d="M340.146-21.015c0.247-1.779,0.805-3.496,1.053-5.276c0.11-0.779-1.041-1.129-1.154-0.318
		c-0.249,1.779-0.808,3.496-1.056,5.276C338.88-20.552,340.033-20.204,340.146-21.015z"/>
	<path d="M334.863-15.033c-0.775-0.134-1.057,1.093-0.3,1.225c5.472,0.951,10.634-3.413,11.087-8.852
		c0.068-0.809-1.126-0.779-1.191,0.021C344.073-18.029,339.48-14.231,334.863-15.033z"/>
	<path d="M340.35-7.015c-0.751-0.255-1.028,0.978-0.3,1.225c1.777,0.604,3.653,0.48,5.384-0.215c0.712-0.287,0.396-1.51-0.339-1.215
		C343.544-6.597,341.946-6.475,340.35-7.015z"/>
	<path d="M32.903,112.45c0.231-0.227,0.33-0.623,0.058-0.928c-3.824-4.31-5.345-10.148-9.419-14.253
		c-3.071-3.094-7.703-4.948-11.574-2.295c-0.13,0.09-0.198,0.209-0.235,0.336c-1.656-0.346-4.454,0.968-5.393,1.373
		c-10.192,4.396-17.866,15.071-17.873,26.276c-0.001,0.791,1.139,0.786,1.196,0.032c-0.399,5.133,1.932,9.077,2.828,14.038
		c-1.123-0.439-2.339-0.633-3.434-0.314c-1.134,0.332-2.046,1.998-1.257,3.017c0.792,1.026,2.548,1.047,3.714,1.078
		c0.478,0.016,0.996,0.018,1.516-0.002c-0.613,0.647-1.077,1.464-1.532,2.213c-0.852,1.399-1.93,3.502-3.818,2.377
		c-0.696-0.413-1.267,0.704-0.597,1.103c1.61,0.957,3.034,0.468,4.177-0.912c1.081-1.306,1.805-3.858,3.467-4.519
		c0.059-0.021,0.102-0.062,0.147-0.096c1.756,3.313,4.968,7.559,8.977,7.084c0.778-0.09,0.763-1.356-0.02-1.266
		c-3.666,0.437-6.563-3.806-8.087-6.798c0.013-0.046,0.026-0.091,0.027-0.14c0.035,0,0.073-0.015,0.11-0.026
		c0.706,3.718,6.347,5.176,8.927,2.416c1.314-1.407-0.069-3.142-1.318-3.959c-1.155-0.752-2.952-0.822-4.65-0.578
		c1.336-2.011,6.749-1.815,8.62-2.229c4.561-1.004,8.208-4.958,11.966-7.468c5.25-3.507,14.232-7.45,13.931-14.99
		C33.344,112.697,33.14,112.512,32.903,112.45z M4.375,99.037c1.248-0.694,2.556-1.273,3.886-1.782
		c1.111-0.426,4.32-1.588,3.014,0.942c-1.775,3.437-6.642,3.938-8.592,7.349c-0.121,0.214-0.096,0.418-0.005,0.585
		c-0.428,0.303-0.824,0.677-1.193,1.047c-1.261,1.269-2.182,2.438-3.811,3.312c-0.935,0.502-1.81,0.973-2.645,1.57
		c-0.231-0.116-0.492-0.097-0.695,0.108c-2.753,2.792-4.225,6.481-4.646,10.356C-10.132,112.888-3.972,103.672,4.375,99.037z
		 M-6.646,135.396c0.934-0.045,1.871-0.186,2.802-0.395c-1.031,0.686-1.892,1.547-2.393,2.646c-0.145-0.083-0.291-0.166-0.441-0.244
		c0.229-0.13,0.401-0.376,0.343-0.706C-6.416,136.256-6.537,135.828-6.646,135.396z M-10.274,139.364
		c-0.872-0.178-1.557-0.871-0.324-1.432c1.105-0.502,2.864,0.218,3.988,0.929c-0.021,0.117-0.062,0.224-0.076,0.343
		c-0.015,0.146,0.022,0.252,0.077,0.344C-7.852,139.679-9.199,139.587-10.274,139.364z M1.885,139.063
		c0.948,0.146,3.125,1.489,1.807,2.535c-2.156,1.711-6.15,0.61-6.653-2.156c0-0.003-0.001-0.003-0.002-0.005
		c0.139-0.042,0.267-0.1,0.409-0.137c0.301,0.437,1.054,0.364,1.085-0.207C-0.334,138.919,0.833,138.897,1.885,139.063z
		 M32.144,113.041c0.203,5.025-4.702,8.316-8.424,10.779c-3.762,2.487-7.434,4.95-11.079,7.613
		c-3.665,2.676-6.996,2.879-11.212,3.647c-1.821,0.336-3.719,1.141-4.061,2.917c-0.643,0.168-1.234,0.374-1.715,0.594
		c-0.258,0.116-0.376,0.358-0.388,0.6c-0.032-0.003-0.07,0.01-0.105,0.015c-0.15-0.037-0.313,0-0.45,0.094
		c-0.072,0.021-0.149,0.034-0.225,0.053c0.001-0.003,0.002-0.008,0.004-0.012c0.43-0.123,0.721-0.674,0.283-1.019
		c-0.006-0.005-0.014-0.01-0.02-0.017c1.187-3.2,6.778-4.392,9.525-5.308c2.869-0.954,6.139-1.862,8.352-4.039
		c0.147,0.289,0.47,0.47,0.815,0.232c5.988-4.164,11.06-9.595,17.512-13.084c0.684-0.368,0.078-1.464-0.628-1.083
		c-6.454,3.489-11.526,8.92-17.515,13.084c-0.01,0.007-0.014,0.019-0.023,0.025c-0.191-0.304-0.609-0.47-0.941-0.135
		c-2.197,2.224-5.576,3.232-8.773,4.189c2.395-1.393,4.608-3.089,6.478-4.785c0.581-0.526-0.271-1.424-0.871-0.88
		c-4.032,3.657-9.821,7.374-15.401,7.613c-0.091,0.006-0.169,0.03-0.238,0.063c-0.607-2.029-1.403-3.994-1.979-6.046
		c-0.959-3.414-0.115-7.435,1.141-10.666c0.544-1.396,1.391-2.636,2.348-3.772c0.046-0.057,0.104-0.077,0.167-0.086
		c0.01,0.002,0.02-0.003,0.03,0c0.714-0.02,2.293,2.544,2.54,2.913c1.66,2.505,2.9,5.376,3.651,8.278
		c0.206,0.794,1.364,0.421,1.162-0.354c-1.058-4.08-3.06-8.499-6.12-11.54c1.342-0.837,2.943-1.341,4.074-2.4
		c1.788-1.678,3.228-4.633,6.108-3.318c2.966,1.357,5.068,4.767,7.176,7.131c0.543,0.606,1.359-0.33,0.841-0.909
		c-2.515-2.816-5.239-7.313-9.301-7.916c-0.227-0.033-0.438-0.028-0.646-0.007c2.454-2.764,9.371-4.602,8.739-8.881
		c-0.038-0.259-0.126-0.464-0.235-0.644c4.869-3.18,10.022,1.563,12.588,5.522c2.355,3.635,3.885,7.655,6.791,10.932
		c0.063,0.073,0.131,0.119,0.199,0.151C32.207,112.686,32.135,112.839,32.144,113.041z"/>
	<path d="M-0.579,89.533c0.029-0.026,0.053-0.056,0.083-0.08C8.141,87.539,6.366,69.606,4.16,62.65
		c1.435-0.29,2.864-0.641,4.284-1.13c0.349-0.121,0.462-0.447,0.408-0.786c-0.332-2.05,0.148-4.822,3.069-3.853
		c0.754,0.252,1.034-0.982,0.302-1.224c-2.271-0.757-3.977-0.252-4.628,2.156c-0.184,0.688-0.12,1.217-0.1,1.647
		c-0.026-0.007-0.047-0.022-0.076-0.027c-8.302-1.006-16.784-1.292-24.906-3.401c0.131-0.14,0.218-0.337,0.173-0.574
		c-0.423-2.303,2.96-3.337,4.612-2.437c0.708,0.387,1.272-0.732,0.592-1.103c-2.717-1.48-6.983,0.513-6.36,3.893
		c0.004,0.02,0.015,0.031,0.02,0.05c-0.04,0.01-0.074,0.028-0.11,0.045c-0.058-0.026-0.115-0.054-0.184-0.062
		c-0.023-0.002-0.051-0.005-0.076-0.007c0.077-0.307-0.033-0.685-0.396-0.816c-3.038-1.107-8.598-0.294-9.329,2.849
		c-0.044,0.086-0.075,0.183-0.074,0.304c0.002,0.168-0.005,0.343-0.006,0.512c0.001,0.033-0.005,0.067-0.002,0.104
		c-0.055,8.091-3.199,18.487,1.783,25.584c3.812,5.429,12.381,7.19,18.55,7.19C-5.813,91.567-2.564,91.191-0.579,89.533z
		 M1.329,87.148c0.857-1.58,1.287-3.408,1.566-5.184c0.922-5.821,0.335-13.011-2.126-18.427c-0.078-0.172-0.192-0.26-0.315-0.295
		c0.839-0.093,1.678-0.202,2.512-0.345C4.756,68.553,6.496,82.902,1.329,87.148z M-17.945,62.455
		c-0.006-0.042-0.005-0.089-0.019-0.126c0.276,0.038,0.55,0.083,0.826,0.114C-17.402,62.447-17.671,62.452-17.945,62.455z
		 M-18.727,57.113c0.097,0.011,0.182,0,0.253-0.026c0.002,0,0.005,0.002,0.009,0.005c6.321,1.726,12.875,2.302,19.399,2.926
		c-3.886,0.374-7.758,0.917-11.662,1.103c-3.201,0.153-6.352,0.161-9.509-0.462c-0.975-0.208-1.908-0.537-2.803-0.981
		c-0.659-1.489-0.419-2.29,0.725-2.401C-21.154,56.928-19.91,56.977-18.727,57.113z M6.131,60.941
		c-0.78,0.235-1.578,0.42-2.378,0.584c-0.3-0.604-1.19-0.374-1.157,0.21c-1.532,0.253-3.08,0.42-4.618,0.549
		c-2.41,0.198-4.826,0.203-7.241,0.177C-4.095,62.059,1.118,61.107,6.131,60.941z M-21.938,55.859
		c-1.311,0.177-2.568,0.611-3.221,1.558c-1.29,1.869,1.116,3.373,2.684,3.894c1.161,0.387,2.337,0.672,3.526,0.877
		c-0.068,0.069-0.114,0.161-0.144,0.267c-2.875-0.028-5.926-0.342-8.042-1.855c0.119-0.181,0.166-0.412,0.049-0.653
		c-0.23-0.473-0.327-0.893-0.34-1.275c0-0.068,0.001-0.137,0.001-0.205C-27.299,56.475-24.384,55.785-21.938,55.859z M-9.816,90.278
		c-6.242-0.184-14.652-2.643-17.266-8.909c-2.47-5.918-0.963-13.064-0.476-19.565c2.306,1.492,5.377,1.873,8.375,1.929
		c-0.278,5.579-0.754,11.439,1.129,16.768c0.271,0.767,1.435,0.403,1.165-0.354c-1.849-5.2-1.365-10.952-1.092-16.407
		c1.235-0.005,2.433-0.044,3.541-0.066c-0.022,0.062-0.043,0.126-0.046,0.201c-0.217,6.047-0.194,12.128,0.864,18.104
		c0.144,0.804,1.305,0.427,1.165-0.355c-1.051-5.854-1.033-11.843-0.822-17.768c0.003-0.077-0.015-0.135-0.03-0.195
		c4.507-0.035,8.98,0.082,13.396-0.376c-0.295,0.144-0.523,0.52-0.346,0.909c2.214,4.887,2.541,10.963,2.124,16.233
		c-0.219,2.74-0.88,5.764-2.839,7.799c-0.473,0.094-0.977,0.144-1.522,0.116c-0.638-0.028-0.732,0.791-0.331,1.124
		C-4.966,90.365-7.78,90.341-9.816,90.278z"/>
	<path d="M-10.218-4.051c0.78-1.294,1.487-2.608,2.493-3.749c2.321-2.635,4.363,0.553,5.56,1.946
		c1.291,1.503,2.958,2.23,4.931,2.184C9.654-3.833,11.57-16.08,10.117-21.01c-0.843-2.857-3.516-7.98-6.374-9.681
		c-0.023-0.077-0.058-0.151-0.114-0.221c-3.302-4.136-8.969,1.404-13.102-0.336c-0.186-0.617-0.37-1.24-0.65-1.789
		c0-0.196-0.079-0.389-0.298-0.505c-0.003-0.001-0.01-0.004-0.013-0.005c-0.026-0.035-0.048-0.075-0.076-0.107
		c-0.167-0.21-0.365-0.238-0.54-0.172c-5.865-2.627-13.249,0.36-18.625,2.888c-2.607,1.225-5.571,2.632-7.06,5.217
		c-0.235,0.408-0.383,1.546-0.508,2.876c-0.36-0.002-0.748,0.319-0.639,0.795c0.1,0.433,0.239,0.853,0.389,1.27
		c0.006,0.083-0.002,0.166,0.009,0.251c0.005,0.043,0.025,0.076,0.036,0.114c-0.162,1.958-0.343,3.691-0.711,3.674
		c-0.78-0.033-0.758,1.233,0.021,1.266c1.395,0.06,1.678-1.287,1.782-2.48c0.212,0.566,0.387,1.145,0.497,1.741
		c-0.659,0.256-1.318,0.522-1.968,0.831c-0.431,0.205-0.363,0.704-0.078,0.971c-1.586,4.022-0.955,7.076,2.185,10.336
		c3.857,4.006,8.892,7.974,14.675,8.014C-15.929,3.973-12.622-0.063-10.218-4.051z M-2.305-7.912
		c-1.44-1.699-3.709-2.999-5.722-1.26c-3.25,2.807-4.309,7.321-7.786,10.055c-2.305,1.813-4.864,2.107-7.366,1.577
		c-0.065-0.079-0.146-0.149-0.259-0.19c-7.318-2.659-3.898-10.477,0.944-13.521c4.146-2.605,8.965-2.949,13.716-2.701
		c2.678,0.139,3.379-1.415,5.207-3.13c2.831-2.657,10.653-6.754,12.533-1.169c0.087,0.256,0.272,0.377,0.47,0.41
		C9.615-11.365,4.547,0.173-2.305-7.912z M-36.862-11.44c-0.181-0.134-0.366-0.266-0.571-0.368c-0.011-0.005-0.02-0.002-0.028-0.007
		c0.177-0.896,0.481-1.804,0.891-2.717c0.009-0.019,0.006-0.038,0.013-0.057c6.61-2.938,13.969-3.078,20.991-4.509
		c4.013-0.818,8.172-2.147,11.219-4.835c-3.843,3.82-8.576,6.252-14.123,7.022C-23.99-16.143-34.321-18.095-36.862-11.44z
		 M-1.681-27.178c0.05,0.074,0.109,0.141,0.182,0.191c-0.371,0.373-0.727,0.76-1.066,1.141C-2.248-26.266-1.951-26.709-1.681-27.178
		z M2.835-29.967c0.124,0.13,0.258,0.182,0.391,0.167c0.033,0.018,0.068,0.029,0.102,0.048c0.299,0.165,0.576,0.374,0.841,0.605
		c-1.663-0.55-3.14,0.058-4.448,1.071C0.4-29.379,1.346-30.485,2.835-29.967z M-5.031-29.932c1.771-0.394,4.154-1.543,6.046-1.156
		c-0.848,0.318-1.666,1.107-2.406,2.536c-0.021,0-0.032-0.009-0.052-0.006c-1.799,0.147-3.677,0.738-5.48,0.394
		c-1.052-0.201-1.62-0.807-2-1.575C-7.676-29.473-6.369-29.635-5.031-29.932z M-32.141-28.228c5.458-3.27,14.672-7.428,20.94-4.294
		c0.177,0.273,0.309,0.564,0.407,0.87c-6.031-1.466-12.635,0.075-18.136,2.708c-1.918,0.918-5.082,2.4-6.987,4.433
		C-35.309-26.243-33.71-27.289-32.141-28.228z M-36.26-20.878c0-0.176,0.004-0.352,0.005-0.528c0.507-3.198,5.958-5.502,8.414-6.678
		c5.225-2.502,11.752-3.77,17.394-2.182c0.002,0,0.005,0,0.007,0c0.13,0.516,0.291,1.022,0.601,1.474
		c0.517,0.756,1.238,1.307,2.07,1.669c1.392,0.607,3.023,0.338,4.572,0.08c-3.315,4.822-9.639,6.197-15.119,7.195
		c-5.568,1.013-11.117,1.407-16.414,3.226C-35.06-18.102-35.738-19.462-36.26-20.878z M-36.018-6.216
		c-1.181-1.341-1.622-2.762-1.6-4.225c1.318,0.957,1.854,2.96,2.03,4.471c0.02,0.17,0.097,0.296,0.194,0.393
		C-35.597-5.794-35.822-5.992-36.018-6.216z M-35.333-5.516c0.378,0.283,1.023,0.125,0.951-0.475
		c-0.176-1.466-0.618-3.251-1.579-4.534c0.03-0.048,0.063-0.089,0.081-0.151c2.005-6.503,13.432-4.232,18.566-5.147
		c4.41-0.788,8.911-2.692,12.363-5.553c2.336-1.937,5.418-8.238,9.132-6.421c0.412,0.202,0.765-0.08,0.868-0.42
		c0.54,0.671,1.002,1.417,1.419,2.082c1.026,1.641,1.982,3.542,2.521,5.496c-2.159-2.479-6-1.721-9.142-0.123
		c-2.226,1.133-4.084,2.477-5.762,4.318c-2.016,2.215-5.987,1.012-8.766,1.227c-5.08,0.393-10.743,3.251-13.261,7.771
		c-1.605,2.88-1.238,5.992,0.497,8.257c-1.381-0.757-2.683-1.663-3.835-2.588C-32.712-2.926-34.071-4.177-35.333-5.516z"/>
	<path d="M162.633,107.215c-1.518,0.836-1.885,3.334-2.263,5.515c-0.254-5.423,4.201-13.964-1.557-16.348
		c-0.833-0.344-1.446,0.144-1.896,1.096c-0.33-2.198-1.111-4.212-3.102-3.499c-0.893,0.321-1.341,1.016-1.566,1.838
		c-3.11,0.811-3.622,4.424-3.62,8.057c-0.583-1.134-1.355-2.158-2.477-2.999c-0.413-0.31-0.883,0.153-0.898,0.561
		c-0.172,4.6-0.159,9.182,0.32,13.763c0.502,4.809,2.146,9.233,1.385,14.133c-0.033,0.217,0.036,0.396,0.151,0.531
		c-1.173,2.654,5.75,4.773,7.573,5.078c1.044,0.536,2.164,0.94,3.421,1.089c0.355,0.045,0.586-0.342,0.601-0.643
		c0.161-3.603,0.068-6.886,1.579-10.264c1.036-2.319,2.617-4.369,3.729-6.658c1.308-2.688,1.77-6.117,1.583-9.08
		C165.477,107.537,164.468,106.204,162.633,107.215z M148.189,130.354c0.09-0.121,0.119-0.255,0.123-0.386
		c0.873,0.759,1.731,1.546,2.606,2.301C149.278,131.572,147.863,130.796,148.189,130.354z M163.978,114.604
		c-0.712,3.7-3.078,6.619-4.753,9.896c-1.648,3.228-1.59,6.64-1.712,10.144c-0.719-0.141-1.403-0.355-2.047-0.659
		c-0.069-0.127-0.194-0.224-0.384-0.252c-0.04-0.005-0.105-0.021-0.171-0.037c-2.424-1.325-4.409-3.559-6.524-5.292
		c-0.035-0.025-0.072-0.037-0.106-0.057c0.332-3.774-0.434-7.306-1.211-11.061c-0.971-4.69-0.835-9.729-0.661-14.534
		c1.24,1.32,1.858,3.039,2.31,4.816c0.035,1.158,0.042,2.199-0.073,2.985c-0.094,0.65,0.683,0.982,1.022,0.625
		c0.377,0.361,1.151,0.005,0.988-0.644c-0.278-1.1-0.523-2.216-0.811-3.305c-0.143-3.801-0.354-8.68,2.198-9.997
		c-0.214,4.006,0.111,8.015-0.252,12.011c-0.073,0.809,1.136,0.777,1.209-0.021c0.345-3.817,0.16-7.679,0.219-11.511
		c0.026-0.336,0.053-0.67,0.079-1.006c0.007-0.965,0.661-1.229,1.964-0.789c0.501,0.702,0.516,1.805,0.595,2.631
		c0.085,0.928,0.077,1.859,0.131,2.792c-0.386,3.076-0.35,6.546-0.401,7.27c-0.057,0.812,1.156,0.784,1.212-0.02
		c0.138-1.993,0.151-3.993,0.305-5.989c0.011-0.146,0.036-0.289,0.05-0.435c0.045-0.092,0.078-0.193,0.063-0.329
		c-0.004-0.04-0.006-0.099-0.01-0.146c0.104-0.939,0.244-1.874,0.482-2.789c0.737-2.846,2.498,1.004,2.651,2.203
		c0.574,4.477-2.774,10.016-0.637,14.288c-0.01,0.022-0.019,0.049-0.027,0.072c-0.272,0.573,0.351,1.095,0.788,0.89
		c0.475,0.124,1.027-0.395,0.679-0.907c-0.031-0.047-0.056-0.099-0.084-0.146c0.755-2.033,0.924-4.276,1.725-6.3
		c0.998-2.514,1.649,1.274,1.629,2.083C164.381,112.268,164.2,113.446,163.978,114.604z"/>
	<path d="M187.089,100.875c-0.274-0.19-0.683-0.042-0.824,0.239c-0.495,0.976-0.869,1.972-1.188,2.978
		c-0.129-2.005-0.354-3.988-1.379-5.815c-0.89-1.596-2.12-2.154-3.034-1.744c-0.193-0.526-0.467-1.021-0.871-1.464
		c-0.909-0.994-2.216-1.143-3.22-0.234c-0.345,0.312-0.594,0.731-0.771,1.214c-0.53-0.823-1.211-1.246-2.099-0.949
		c-1.896,0.63-2.031,3.17-2.198,4.849c-0.442,4.439,0.977,8.781,0.543,13.19c-0.826-2.151-2.026-4.206-3.944-5.514
		c-0.414-0.281-0.899,0.133-0.905,0.561c-0.039,4.02,1.096,7.722,2.66,11.393c2.209,5.191,3.551,9.955,3.876,15.619
		c0.026,0.433,0.376,0.669,0.785,0.599c0.289-0.052,0.647-0.189,1.059-0.395c0.1,0.133,0.253,0.219,0.467,0.208
		c2.611-0.131,10.58-0.95,10.877-4.405c0.024-0.277,0.005-0.509-0.043-0.711c0.404-0.06,0.749-0.485,0.44-0.91
		c-3.321-4.558-0.329-11.85,0.987-16.724C189.276,109.255,190.781,103.454,187.089,100.875z M178.013,133.969
		c2.829-1.793,6.234-4.107,7.424-3.108C186.442,131.703,181.121,133.259,178.013,133.969z M188.145,106.938
		c-0.092,2.871-1.047,5.722-1.825,8.464c-1.181,4.152-2.818,10.15-0.446,14.213c-2.503-0.42-8.759,3.477-10.984,4.645
		c-0.272-3.897-0.869-7.725-2.291-11.393c-1.738-4.491-3.823-8.522-4.133-13.32c1.495,1.484,2.374,3.6,2.972,5.563
		c0.162,0.534,0.75,0.524,1.035,0.223c0.247,0.012,0.489-0.118,0.555-0.451c1.104-5.571-1.106-11.1-0.07-16.687
		c0.349-1.887,1.816-1.604,2.317-0.106c0.03,0.096,0.054,0.191,0.081,0.289c-0.069,0.888-0.078,1.761-0.145,2.429
		c-0.047,0.497,0.392,0.675,0.756,0.554c0.003,0.026,0.008,0.052,0.012,0.079c0.283,1.736,0.398,3.502,0.733,5.232
		c0.154,0.804,1.316,0.426,1.165-0.355c-0.204-1.054-0.369-5.285-1.24-8.262c0.116-0.854,0.33-1.676,0.804-2.337
		c1.046-1.459,1.758,1.022,2.081,2.664c-0.03,0.176-0.077,0.329-0.09,0.527c-0.016,0.257,0.102,0.42,0.263,0.51
		c0.014,0.095,0.022,0.175,0.024,0.211c0.134,2.473-0.604,6.053,0.857,8.248c0.452,0.676,1.479,0.005,1.038-0.657
		c-1.565-2.344-0.405-5.839-0.586-8.808c0.651-0.683,1.196-0.517,1.635,0.521c0.336,0.534,0.588,1.107,0.755,1.721
		c0.436,1.312,0.469,2.765,0.546,4.135c0.063,1.108,0.103,2.211,0.238,3.298c-0.041,0.316-0.096,0.628-0.129,0.949
		c-0.03,0.334,0.158,0.516,0.396,0.567c0.12,0.505,0.272,1.007,0.474,1.5c0.306,0.747,1.475,0.39,1.168-0.354
		c-0.355-0.862-0.563-1.752-0.701-2.654c0.252-1.899,0.692-3.674,1.466-5.473c0.193-0.449,1.091,1.594,1.143,1.796
		C188.225,105.217,188.171,106.115,188.145,106.938z"/>
	<path d="M339.958,99.728c-0.069-0.478-0.535-0.659-0.869-0.554c-0.032-0.216-0.163-0.408-0.428-0.47
		c-0.685-0.164-1.396-0.243-2.097-0.297c-0.377-0.028-1.027-0.092-1.361,0.202c-0.109-0.183-0.296-0.309-0.535-0.318
		c-0.069-2.033-0.481-4.222-0.005-6.202c0.07-0.287-0.048-0.511-0.228-0.643c0.077-0.255,0.023-0.547-0.271-0.7
		c-3.351-1.738-7.896-1.752-11.157,0.22c-0.583,0.354-0.183,1.253,0.395,1.165c-0.506,2.049-1.324,4.854-0.158,6.622
		c-1.595,0.171-3.182,0.316-4.786,0.352c-0.209,0.005-0.423,0.131-0.514,0.321c-0.865,1.826-1.3,3.823-1.54,5.86
		c-0.459,0.166-0.673,0.878-0.133,1.123c0.006,0.002,0.011,0.002,0.016,0.005c-0.18,2.124-0.186,4.273-0.241,6.318
		c-0.093,3.318-0.1,6.58,0.164,9.814c-0.007,0.002-0.016,0.002-0.023,0.005c-0.673,0.213-0.464,1.227,0.146,1.236
		c0.28,2.673,0.753,5.334,1.554,7.991c0.06,0.193,0.219,0.395,0.431,0.435c3.629,0.723,7.239,0.671,10.922,0.654
		c3.248-0.015,6.344,0.913,9.446-0.446c0.707-0.309,0.386-1.535-0.343-1.217c-2.091,0.919-4.12,0.789-6.332,0.584
		c-2.379-0.218-4.739-0.161-7.126-0.166c-2.396-0.007-5.697,0.446-6.446-2.329c-0.51-1.892-0.804-3.833-1.003-5.781
		c6.663-1.801,14.011-0.63,20.717,0.262c0.78,0.104,1.072-1.123,0.302-1.227c-6.874-0.916-14.308-2.104-21.139-0.313
		c-0.043-0.546-0.085-1.087-0.12-1.63c-0.243-4.034,0.012-8.144,0.207-12.175c0.024-0.507,0.08-1.013,0.123-1.517
		c6.831,2.451,14.523,0.28,21.6,0.844c-0.029,2.296-0.097,4.597-0.019,6.893c0.188,5.441,0.702,10.714,0.086,16.161
		c-0.088,0.784,1.083,1.131,1.175,0.319c0.575-5.131,0.429-10.228,0.016-15.363C339.949,110.418,340.719,105.062,339.958,99.728z
		 M336.082,99.416c-0.026,0.068-0.063,0.111-0.098,0.148C336.018,99.52,336.057,99.48,336.082,99.416z M324.58,98.439
		c-1.447-1.281-0.485-4.231,0.006-6.118c2.646,0.91,5.466,0.66,8.238,0.242c0.415-0.062,0.592-0.465,0.55-0.804
		c0.037,0.02,0.078,0.031,0.118,0.052c-0.502,2.137-0.076,4.444-0.021,6.62c-2.899,0.405-5.81,0.601-8.734,0.65
		C324.817,98.874,324.794,98.63,324.58,98.439z M332.429,91.352c-2.331,0.339-4.762,0.571-7.021-0.089
		C327.643,90.523,330.235,90.563,332.429,91.352z M317.629,105.613c0.116-1.01,0.27-2.014,0.477-3.01
		c0.199-0.957,0.217-2.23,1.487-2.256c1.147-0.024,2.295-0.158,3.44-0.294c0.09,0.182,0.255,0.319,0.507,0.316
		c3.811-0.017,7.579-0.27,11.343-0.868c0.088-0.015,0.157-0.047,0.218-0.086c0.183,0.288,0.544,0.433,0.797,0.242
		c0.037-0.005,0.088-0.008,0.174-0.008c0.268,0,0.539,0.025,0.807,0.048c0.5,0.044,0.998,0.116,1.485,0.229
		c0.161,0.04,0.294,0.005,0.406-0.057c0.306,2.2,0.367,4.409,0.361,6.619C332.156,105.93,324.33,108.224,317.629,105.613z"/>
	<path d="M321.598,113.864c0.004-0.302,0.018-0.603,0.031-0.904c0.183,0.024,0.372,0.037,0.559,0.047
		c-0.027,0.307-0.037,0.615-0.084,0.92c-0.12,0.783,1.041,1.129,1.165,0.318c0.202-1.317,0.229-2.638,0.229-3.966
		c0-0.813-1.203-0.792-1.203,0.021c0,0.482-0.009,0.965-0.022,1.447c-0.2-0.011-0.401-0.031-0.6-0.064
		c0.01-0.537,0.002-1.077-0.076-1.614c-0.112-0.788-1.317-0.783-1.201,0.021c0.087,0.618,0.091,1.231,0.073,1.85
		c-0.052,0.144-0.06,0.299-0.018,0.447c-0.023,0.501-0.049,1.002-0.056,1.502C320.386,114.698,321.59,114.676,321.598,113.864z"/>
	<path d="M331.499,114.668c0.205-1.427,0.457-2.834,0.843-4.221c0.215-0.774-0.945-1.105-1.165-0.319
		c-0.253,0.913-0.438,1.835-0.601,2.765c-0.567-0.878-1.092-1.78-1.404-2.781c-0.173-0.552-1.063-0.631-1.16,0.017
		c-0.132,0.864-0.3,1.719-0.399,2.579c-0.076-0.142-0.204-0.246-0.383-0.281c-0.427-0.997-0.85-1.998-1.593-2.802
		c-0.267-0.29-0.771-0.208-0.942,0.144c-0.721,1.474-1.311,3.086-1.132,4.75c0.082,0.799,1.288,0.789,1.2-0.02
		c-0.029-0.286-0.018-0.564-0.001-0.841c0.017,0,0.027,0.007,0.043,0.007c0.553,0,1.104,0,1.657,0
		c0.047,0.109,0.09,0.223,0.141,0.329c0.22,0.465,0.702,0.363,0.945,0.052c0.004,0.228-0.003,0.455,0.024,0.686
		c0.089,0.796,1.292,0.786,1.2-0.021c-0.088-0.788-0.022-1.563,0.089-2.333c0.464,0.846,1.002,1.656,1.539,2.458
		C330.675,115.244,331.416,115.244,331.499,114.668z M324.955,112.398c0.104-0.385,0.239-0.761,0.393-1.129
		c0.22,0.355,0.403,0.736,0.572,1.129C325.598,112.398,325.277,112.398,324.955,112.398z"/>
	<path d="M336.667,112.739c0.01-1.656-1.457-2.829-3.019-2.873c-0.111-0.003-0.201,0.024-0.281,0.066
		c-0.365-0.111-0.799,0.079-0.731,0.576c0.193,1.459,0.223,2.933,0.445,4.39c0.099,0.643,0.842,0.521,1.082,0.055
		C335.523,115.02,336.658,114.271,336.667,112.739z M334.132,113.696c-0.086-0.838-0.137-1.682-0.22-2.52
		c0.779,0.108,1.369,0.604,1.539,1.407C335.639,113.469,334.854,113.778,334.132,113.696z"/>
	<path d="M324.391,118.696c0.003,0.067,0.009,0.137,0.037,0.21c0.264,0.678,0.704,1.054,1.214,1.544
		c0.588,0.563,1.402-0.369,0.839-0.91c-0.318-0.305-0.729-0.564-0.896-0.989c-0.049-0.126-0.126-0.21-0.211-0.277
		c0.275-0.267,0.376-0.665,0.122-1.231c-0.529-1.188-2.35-1.269-3.402-1.031c-0.623,0.142-0.505,0.987-0.014,1.183
		c-0.01,0.825-0.08,1.795,0.237,2.558c0.353,0.849,1.442,0.319,1.094-0.503c-0.066-0.158-0.105-0.343-0.132-0.531
		c0.019,0.002,0.029,0.012,0.047,0.015C323.651,118.769,324.032,118.759,324.391,118.696z M323.274,117.468
		c0.005-0.106,0.007-0.205,0.01-0.302c0.355,0.022,0.696,0.126,0.974,0.334c-0.31,0.052-0.66-0.003-0.948-0.037
		C323.295,117.463,323.286,117.468,323.274,117.468z"/>
	<path d="M327.83,119.982c1.277,0.22,1.992-1.093,2.192-2.148c0.149-0.783-1.014-1.123-1.167-0.319
		c-0.065,0.343-0.27,1.32-0.816,1.228c-0.586-0.102-0.555-1.086-0.53-1.5c0.048-0.811-1.157-0.783-1.206,0.021
		C326.239,118.323,326.594,119.768,327.83,119.982z"/>
	<path d="M331.769,120.838c1.052-0.021,2.071-0.418,2.745-1.246c0.303-0.371,0.169-0.891-0.283-1.054
		c-0.241-0.086-0.465-0.178-0.687-0.265c0.138-0.094,0.278-0.186,0.427-0.27c0.339-0.19,0.39-0.736,0.106-0.996
		c-0.697-0.636-1.432-0.626-2.21-0.398c-0.216-0.484-1-0.596-1.114,0.062c-0.207,1.189-0.053,2.386,0.427,3.484
		C331.157,120.492,331.351,120.848,331.769,120.838z M332.22,119.522c-0.05-0.116-0.094-0.236-0.134-0.356
		c0.271,0.021,0.519,0.082,0.758,0.166C332.648,119.421,332.439,119.485,332.22,119.522z"/>
</g>
</svg>
