<?xml version="1.0" encoding="utf-8"?>
<!-- Generator: Adobe Illustrator 15.1.0, SVG Export Plug-In . SVG Version: 6.00 Build 0)  -->
<!DOCTYPE svg PUBLIC "-//W3C//DTD SVG 1.1//EN" "http://www.w3.org/Graphics/SVG/1.1/DTD/svg11.dtd">
<svg version="1.1" id="Layer_1" xmlns="http://www.w3.org/2000/svg" xmlns:xlink="http://www.w3.org/1999/xlink" x="0px" y="0px"
	 width="325.984px" height="290.439px" viewBox="0 0 325.984 290.439" enable-background="new 0 0 325.984 290.439"
	 xml:space="preserve">
<g>
	<path d="M69.709,224.364c-2.627-0.658-5.018-0.761-7.525-1.985c-2.981-1.457-5.581-3.689-7.986-5.936
		c-4.771-4.456-8.829-9.65-13.062-14.602c-4.539-5.31-9.736-9.698-14.972-14.303c-5.957-5.237-11.961-10.411-19.149-13.89
		c-0.52-0.252-0.78,0.508-0.381,0.809c12.759,9.629,25.313,20.056,35.636,32.296c4.248,5.037,8.507,10.073,13.584,14.307
		c1.144,0.954,2.564,2.021,4.12,2.97c-0.804,4.369-0.588,8.896-1.413,13.31c-0.948,5.072-2.174,10.036-2.813,15.166
		c-1.269,10.185-1.399,20.677-0.62,30.906c0.115,1.504,2.126,1.479,2.061-0.051c-0.475-11.045-0.586-22.012,0.868-32.999
		c0.667-5.046,1.972-9.98,2.787-15.003c0.563-3.474,1.224-7.702-0.325-11.001c2.943,1.702,6.31,2.89,9.241,2.039
		C70.648,226.139,70.596,224.586,69.709,224.364z"/>
	<path d="M141.702,90.656c-1.44-2.44-2.462-5.146-3.531-7.762c-0.882-2.159-1.741-4.268-3.138-6.148
		c-2.128-2.865-5.643-5.193-6.358-8.898c-0.076-0.396-0.658-0.392-0.706,0.017c-0.316,2.677,0.856,4.593,2.482,6.646
		c2.526,3.191,4.489,5.789,6.005,9.602c1.606,4.036,4.55,13.694,10.141,13.766c0.732,0.009,1.036-1.111,0.524-1.564
		C145.028,94.459,143.188,93.175,141.702,90.656z"/>
	<path d="M148.094,136.255c3.876-0.567,6.659-3.428,8.187-6.868c0.888,2.346,2.155,4.588,3.473,6.667
		c0.583,0.918,1.832,0.467,1.787-0.607c-0.075-1.805,0.595-5.838,2.001-7.107c0.574-0.519,0.553-1.965-0.493-1.889
		c-1.75,0.128-2.752,3.322-3.188,5.976c-1.15-1.974-2.143-4.064-2.682-6.251c-0.243-0.983-1.504-0.907-1.723,0.043
		c-0.74,3.209-2.67,6.321-5.615,7.799c0.958-1.638,1.154-3.385,1.219-5.321c0.029-0.866-1.099-1.566-1.702-0.766
		c-1.187,1.575-2.655,2.463-4.414,2.868c2.792-8.475,1.918-17.849-1.763-25.955c-1.833-4.039-4.644-7.649-6.785-11.529
		c-2.474-4.484-3.517-8.42-3.299-13.424c0.704-0.803,0.125-2.571-1.096-2.145c-1.747,0.769-3.464,0.64-5.151-0.388
		c-0.449-0.216-0.999-0.224-1.322,0.231c-4.384,6.159-12.917,10.138-20.317,7.585c-0.007-0.049-0.009-0.097-0.021-0.147
		c-2.13-8.922-5.282-17.568-6.703-26.656c-0.018-0.111-0.07-0.207-0.122-0.303c6.061-8.331,11.611-28.442,23.548-20.747
		c3.132,2.02,5.328,5.43,7.999,7.981c3.346,3.197,5.789,5.364,5.781,10.322c-0.005,3.103-0.812,6.951-2.187,9.746
		c-1.168,2.376-3.388,0.112-3.872-1.288c-0.379-1.097-0.153-2.556,0.003-3.655c0.236-1.665,0.783-3.286,1.249-4.896
		c0.433-1.496-1.621-2.159-2.121-0.621c-0.332,1.018-0.667,2.09-0.94,3.184c-0.21-0.166-0.474-0.254-0.776-0.173
		c-0.584,0.156-1.274,0.153-1.854-0.007c-0.635-0.174-0.697-0.491-0.854-1.047c-0.218-0.77-0.999-1.012-1.537-0.702
		c0.355-2.713-0.138-5.414-1.967-7.766c-0.314-0.403-0.816,0.19-0.583,0.554c4.481,6.984-2.069,12.837-5.159,18.707
		c-0.309,0.587,0.366,1.24,0.879,0.753c2.717-2.584,5.323-6.339,6.405-10.241c0.251,0.833,0.876,1.547,1.685,1.922
		c1.146,0.531,2.257,0.478,3.351,0.006c-0.336,2.214-0.244,4.444,0.849,6.445c0.807,1.479,2.317,2.33,3.786,2.336
		c2.376,4.573,5.039,9.03,7.457,13.593c2.043,3.856,4.204,8.754,7.701,11.51c0.744,0.587,1.315-0.628,1.018-1.22
		c-2.171-4.307-5.335-8.252-7.691-12.518c-2.135-3.866-4.344-8.261-7.46-11.503c0.789-0.228,1.509-0.737,2.03-1.569
		c2.173-3.472,2.815-8.521,2.808-12.527c-0.004-2.155-0.565-3.965-1.485-5.572c0.285,0.017,0.562-0.132,0.729-0.567
		c1.206-3.145,1.253-7.411-0.377-10.404c-0.009-0.016-0.02-0.029-0.028-0.045c1.605,0.395,3.174,0.875,3.979,2.467
		c0.828,1.637,0.001,3.545-0.257,5.196c-0.166,1.062,0.996,1.747,1.624,0.746c0.918-1.467,1.184-3.179,0.938-4.756
		c0.085-0.123,0.144-0.267,0.17-0.415c0.048-0.12,0.092-0.241,0.108-0.373c0.035-0.132,0.052-0.266,0.05-0.403
		c-0.003,0.043-0.003,0.067-0.001,0.084c-0.002,0.006-0.003,0.007-0.006,0.014c0.004-0.008,0.003-0.006,0.006-0.013
		c0.006,0.062,0.039-0.047,0.037-0.068c0.002-0.004,0.009-0.014,0.01-0.017c0.012-0.006,0.034-0.02,0.084-0.061
		c0.144-0.118,0.316-0.219,0.48-0.304c0.549-0.283,0.825-0.84,0.663-1.459c-0.136-0.52-0.682-1.016-1.25-0.788
		c-0.566,0.227-1.078,0.559-1.451,1.023c-1.187-1.676-3.188-2.643-5.729-1.916c-0.061,0.018-0.108,0.051-0.149,0.092
		c-0.851-0.905-2.014-1.444-3.27-1.642c-2.541-0.398-4.406,1.497-6.537,2.525c-1.504-1.597-3.127-3.039-5.157-3.893
		c-3.939-1.657-7.95-0.592-11.195,2.012c-6.731,5.4-8.426,14.946-13.527,21.686c-4.31,1.315-8.399,2.617-12.897,3.344
		c-4.89-6.696-12.07-11.449-20.6-12.755c-8.205-1.255-16.555,1.517-24.087,4.503c-7.768,3.08-15.267,7.106-22.359,11.514
		c-3.338,2.075-7.514,5.383-11.624,5.44c-0.864,0.013-0.999,1.582-0.156,1.731c2.629,0.465,5.131-0.725,7.41-1.938
		c3.764-2.004,7.29-4.43,11.079-6.385c7.833-4.042,15.498-8.026,23.97-10.618c14.526-4.443,28.977-0.261,36.703,13.267
		c0.084,0.147,0.156,0.302,0.237,0.45c-0.503,0.324-0.393,1.438,0.296,1.337c0.125-0.019,0.253-0.037,0.379-0.055
		c2.778,5.599,4.02,11.977,3.64,18.234c-0.102,0.146-0.199,0.296-0.283,0.449c-0.088,0.161,0.008,0.441,0.208,0.466
		c-0.417,4.843-1.796,9.586-4.212,13.803c-3.687,6.437-9.654,9.716-16.239,12.572c-8.695,3.771-18.544,7.257-25.562,13.865
		c-0.906,0.854-0.164,2.972,1.104,2.068c3.542-2.525,7.199-4.687,10.941-6.664c0.013,0.155,0.029,0.312,0.04,0.467
		c-0.24,0.321-0.217,0.839,0.062,1.098c0.173,3.586,0.008,7.17,0.275,10.751c0.089,1.194,1.509,1.12,1.595-0.039
		c0.257-3.481,0-7.068-0.463-10.57c6.235-0.045,12.954,1.804,16.958,6.794c0.33,0.412,0.836,0.385,1.253,0.158
		c7.228-3.929,14.084-8.719,21.943-11.336c9.002-2.998,17.569-0.436,25.474,4.198c12.149,7.122,23.452,20.33,38.732,19.936
		c1.154-0.03,1.336-2.061,0.209-2.285c-4.064-0.811-7.916-1.356-11.799-2.903c-3.69-1.471-7.075-3.674-10.325-5.927
		c-6.91-4.792-13.332-10.09-20.925-13.824c-16.069-7.901-29.952,1.92-43.661,9.667c-4.584-5.104-11.436-6.679-18.083-6.06
		c-0.037-0.246-0.075-0.49-0.113-0.735c4.919-2.535,9.986-4.776,15.172-7.055c5.908-2.595,10.828-6.001,14.473-11.415
		c1.817-2.698,3.142-5.655,4.048-8.742c1.603-0.492,3.026-2.143,4.321-3.037c3.373-2.33,6.837-3.422,10.595-4.805
		c0.003-0.001,0.004-0.003,0.007-0.004c0.024,0.018,0.04,0.045,0.067,0.06c7.647,4.145,17.478-0.416,22.472-6.853
		c1.736,0.714,3.336,0.938,5.175,0.477c-2.92,5.688,3.364,14.94,6.044,19.286c5.96,9.664,9.195,20.912,4.565,31.921
		c-0.284,0.675,0.017,1.803,0.922,1.754c1.999-0.107,3.817-0.638,5.316-1.699c-0.151,0.418-0.328,0.832-0.559,1.233
		c-0.38,0.54-0.193,1.268,0.188,1.671c-0.141,0.038-0.278,0.081-0.422,0.112C147.132,134.879,147.312,136.369,148.094,136.255z
		 M135.347,39.676c1.26,2.397,0.431,5.381,0.077,7.894c-1.116-1.47-2.517-2.789-4.021-4.092c-1.723-1.493-3.208-3.377-4.806-5.116
		C129.754,38.293,133.402,35.973,135.347,39.676z M95.392,87.537c-1.982,1.106-3.674,2.866-5.504,4.266
		c0.399-1.94,0.633-3.917,0.721-5.905c0.401-0.24,0.792-0.494,1.178-0.718c1.454-0.844,3.038-1.33,4.517-2.095
		c0.712-0.369,0.757-1.816-0.25-1.768c-1.564,0.076-2.961,0.876-4.275,1.671c-0.366,0.222-0.75,0.468-1.132,0.733
		c-0.018-1.747-0.135-3.493-0.374-5.223c0.056,0.003,0.116-0.009,0.182-0.041c1.129-0.56,2.289-1.059,3.449-1.548
		c1.169-0.493,2.37-0.892,3.295-1.781c0.322-0.31,0.081-1.022-0.388-1.001c-1.212,0.057-2.255,0.706-3.312,1.253
		c-1.192,0.616-2.307,1.345-3.386,2.141c-0.261-1.616-0.613-3.211-1.056-4.772c1.594-0.444,3.224-0.831,4.734-1.465
		c0.716-0.301,0.672-1.761-0.236-1.664c-1.727,0.185-3.357,0.925-4.95,1.649c-0.124-0.383-0.241-0.769-0.375-1.146
		c-0.35-0.98-0.753-1.933-1.182-2.87c1.294-0.248,2.566-0.595,3.716-1.21c0.873-0.467,0.26-1.948-0.681-1.751
		c-1.309,0.275-2.604,0.742-3.882,1.225c-0.446-0.853-0.929-1.681-1.439-2.487c4.098,0.051,8.052-1.559,11.939-2.798
		c1.392,8.287,4.127,16.23,6.14,24.373C100.247,84.699,97.557,86.329,95.392,87.537z"/>
	<path d="M203.564,82.506c-0.286,0.257-0.432,0.768-0.392,1.223c-1.652,0.831-3.22,1.854-4.683,2.893
		c-1.148,0.814-0.109,3.124,1.17,2.197c4.528-3.275,9.262-5.432,14.869-3.672c3.182,0.998,6.266,2.169,9.33,0.33
		c0.494-0.296,0.624-1.16,0.322-1.624c-0.863-1.329-3.393-4.43-5.211-3.17c-0.175-0.282-0.479-0.467-0.885-0.378
		c-2.705,0.592-5.336,0.685-8.093,0.811C208.039,81.205,205.113,81.115,203.564,82.506z M218.98,81.792
		c0.064,0.059,0.128,0.118,0.193,0.174c-0.101-0.019-0.201-0.037-0.303-0.056C218.907,81.871,218.951,81.836,218.98,81.792z
		 M219.007,84.005c0.51-0.095,1.016-0.201,1.513-0.294c0.195-0.036,0.32-0.177,0.393-0.354c0.216,0.18,0.426,0.368,0.627,0.569
		C220.744,84.109,219.893,84.115,219.007,84.005z"/>
	<path d="M199.738,77.562c1.57-4.565,0.975-9.363,2.732-13.937c1.266-3.293,3.16-6.31,5.057-9.302
		c-0.399,5.374-0.68,10.719,1.682,15.774c0.344,0.736,1.473,0.761,1.762-0.044c2.912-8.101,0.074-17.903,8.633-23.05
		c0.512-0.309,0.188-1.317-0.433-1.136c-8.821,2.572-7.728,12.618-9.228,20.159c-1.336-5.11-0.347-10.587-0.104-15.834
		c0.055-1.199-1.328-1.522-1.905-0.563c-2.54,4.222-5.316,8.27-7.267,12.814c-1.662,3.872-1.357,7.936-2.197,11.875
		c-2.693-5.401-1.942-13.478-0.416-18.809c0.33-1.157-1.402-2.166-1.863-0.871c-2.391,6.71-2.521,17.299,1.919,23.208
		C198.535,78.415,199.513,78.216,199.738,77.562z"/>
	<path d="M172.544,84.13c-0.212-1.139-0.205-2.248,0.003-3.331c3.519,1.029,6.19-0.501,8.533-3.446
		c4.024-5.062,7.043-10.658,12.694-14.253c0.351-0.223,0.136-0.965-0.31-0.807c-4.743,1.683-7.928,5.057-10.896,9.023
		c-2.754,3.68-4.998,8.964-10.484,6.663c-0.641-0.27-1.172,0.398-1.316,0.926c-0.586,2.147-0.854,3.779-0.161,5.904
		C171.09,86.293,172.831,85.523,172.544,84.13z"/>
	<path d="M199.304,98.316c-0.373-0.024-0.422,0.599-0.148,0.757c4.691,2.72,10.797,4.224,16.197,3.289
		c1.238-0.215,1.286-2.343-0.057-2.285c-5.334,0.23-10.143-1.07-15.34-1.683c1.764-3.262,4.914-5.061,8.346-5.56
		c-0.545,1.283-0.808,2.762-0.184,4.04c0.779,1.601,2.586,2.543,4.33,2.568c2.987,0.044,5.014-3.438,3.403-5.663
		c2.097,0.861,3.968,2.204,5.286,4.019c0.714,0.982,1.914-0.26,1.643-1.158C220.058,87.634,199.141,87.85,199.304,98.316z
		 M209.83,95.464c-0.258-0.804,0.227-1.761,0.578-2.455c0.055-0.106,0.084-0.212,0.104-0.317c0.375,0.005,0.749,0.017,1.123,0.05
		c-1.259,0.849-1.895,2.416-1.238,3.548C210.138,96.064,209.933,95.79,209.83,95.464z M213.345,93.492
		c-0.036-0.193-0.107-0.377-0.21-0.534c0.157,0.03,0.311,0.067,0.466,0.104C213.494,93.185,213.408,93.331,213.345,93.492z"/>
	<path d="M267.261,190.594c-0.893-0.348-1.348,1.292-0.562,1.664c4.76,2.255,6.451,6.521,8.729,10.918
		c0.478,0.921,1.584,0.146,1.374-0.707C275.523,197.26,272.373,192.589,267.261,190.594z"/>
	<path d="M320.867,226.767c-3.646-3.245-7.084-6.205-9.566-10.492c-2.395-4.136-5.414-7.882-8.332-11.663
		c-4.119-5.338-10.168-11.309-17.415-10.424c-3.688-4.057-8.425-7.631-13.263-10.17c1.707-4.348,1.157-10.5,0.865-14.171
		c-0.149-1.886-0.323-3.755-0.485-5.624c0.663,0.791,1.564,1.344,2.67,1.777c4.274,1.676,8.271,3.896,12.36,5.977
		c3.342,1.701,6.709,3.081,9.465,5.694c2.74,2.597,4.076,6.153,4.783,9.774c0.682,3.487-0.002,7.001,0.771,10.489
		c0.508,2.295,2.454,3.697,4.207,5.021c2.799,2.114,1.526,6.17,4.386,7.957c4.099,2.562,6.067,4.786,7.646,9.438
		c0.555,1.633,2.76,0.785,2.232-0.766c-0.864-2.538-1.817-4.889-3.433-7.049c-0.92-1.23-2.218-2.272-3.561-2.98
		c-2.376-1.253-2.209-2.875-3.046-4.937c-1.103-2.716-3.275-3.822-5.277-5.767c-2.614-2.538-1.225-8.761-1.754-12.168
		c-0.875-5.645-4.047-10.396-8.722-13.586c-3.544-2.417-7.86-4.056-11.69-5.98c-1.742-0.876-3.541-1.966-5.383-2.611
		c-1.414-0.496-3.174-0.888-4.311-1.956c0.021-0.073,0.021-0.154-0.01-0.215c-0.311-0.608-0.395-0.667-1.012-1.021
		c-0.192-0.11-0.383-0.137-0.557-0.103c-0.127-1.798-0.231-3.6-0.25-5.422c-0.068-6.603,0.087-13.168-1.145-19.687
		c-1.434-7.598-6.197-14.275-12.157-19.089c-1.221-0.985-2.847-2.251-4.526-2.499c0.303-0.379,0.433-0.933,0.15-1.46
		c-0.615-1.153-1.394-2.111-2.248-2.996c0.178-0.213,0.292-0.501,0.281-0.872c-0.111-4.21-1.072-8.312-1.344-12.51
		c-0.26-4.034,1.658-8.113,1.837-12.181c0.16-3.646-1.992-7.2-2.827-10.658c-1.117-4.623-0.447-9.924-0.471-14.643
		c-0.038-8.023,0.404-15.947-2.251-23.654c-2.491-7.231-8.093-14.349-13.886-19.243c-7.057-5.961-15.562-7.052-24.211-9.378
		c-8.433-2.268-17.441-2.804-26.029-1.107c-14.289,2.821-29.894,11.625-35.582,25.754c-0.206-0.139-0.453-0.143-0.647,0.155
		c-4.682,7.188-1.749,15.756,0.967,23.152c3.483,9.489,6.837,18.432,12.119,27.126c9.048,14.892,17.937,31.089,32.104,41.554
		c-3.618,5.96-6.317,13.976-5.759,21.157c-2.689-3.169-5.225-6.477-7.704-9.809c-5.088-6.836-11.308-12.924-17.001-19.292
		c1.081-0.853,2.005-2.054,2.688-3.522c0.624-1.342-1.238-2.751-1.94-1.242c-2.208,4.746-6.915,4.611-9.47,0.247
		c-2.57-4.389-2.902-10.458-2.737-15.402c0.1-2.983,0.909-6.363,2.696-8.778c3.366-4.546,5.561,2.104,8.492,2.63
		c0.348,0.062,0.651-0.078,0.806-0.406c0.079-0.166,0.23-0.368,0.129-0.56c-0.7-1.34-2.761-4.005-4.082-4.764
		c-1.891-1.086-3.872-0.883-5.679,0.27c-3.756,2.396-4.4,8.801-4.551,12.778c-0.212,5.601,0.554,14.858,5.482,18.573
		c1.371,1.033,2.753,1.527,4.071,1.579c4.4,8.108,10.672,15.57,16.42,22.742c3.643,4.546,7.547,8.886,11.744,12.919
		c-0.152,0.137-0.257,0.334-0.24,0.559c0.122,1.646,0.478,3.312,1.004,4.971c-4.175-3.262-7.805-6.498-10.935-11.115
		c-3.222-4.752-5.236-10.1-8.12-15.022c-0.453-0.771-1.395-0.144-1.193,0.621c1.65,6.262,5.082,12.319,8.776,17.584
		c3.197,4.557,7.658,9.581,12.963,11.69c2.567,5.46,6.685,10.601,10.507,14.37c1.151,1.136,2.453,2.098,3.852,2.911
		c-10.175,0.964-21.9-0.024-29.767-7.132c-4.821-4.356-7.058-10.812-8.124-17.042c-1.154-6.75-0.188-13.827-2.004-20.464
		c-0.125-0.457-0.621-0.276-0.656,0.12c-1.177,13.158-0.808,29.405,9.204,39.298c8.061,7.966,22.016,9.286,32.665,7.792
		c0.704-0.1,1.069-0.725,1.109-1.349c5.107,2.185,11.126,2.621,16.387,1.702c0.032-0.006,0.054-0.025,0.085-0.033
		c1.356,2.518,2.882,4.952,4.372,7.382c2.86,4.661,6.046,9.221,10.188,12.834c0.176,1.98,1.074,3.605,2.058,5.405
		c1.943,3.56,2.969,7.742,2.916,11.805c-2.854,0.809-3.789,5.208-3.467,7.946c0.689,5.872,3.842,11.361,6.312,16.63
		c1.308,2.791,1.209,5.708,2.185,8.58c1.445,4.254,5.73,6.292,8.811,9.161c3.549,3.306,2.682,8.964,6.05,12.377
		c1.145,1.159,2.785,1.668,3.979,2.808c1.645,1.569,0.703,5.102,2.027,7.069c0.918,1.366,2.639-0.003,1.912-1.33
		c-1.684-3.083,0.011-6.081-3.267-8.499c-1.362-1.006-2.964-1.59-3.974-3.034c-1.324-1.895-1.625-4.821-2.416-6.976
		c-1.197-3.259-3.68-5.28-6.373-7.29c-2.146-1.603-3.966-3.284-4.855-5.886c-0.555-1.622-0.381-3.415-0.812-5.063
		c-1.115-4.265-3.836-8.274-5.502-12.348c-1.05-2.566-1.988-5.298-2.08-8.091c-0.088-2.674,1.51-3.371,3.32-4.459
		c4.93-0.495,9.717,0.186,14.641-0.945c4.503-1.033,8.853-2.825,12.792-5.229c6.662-4.065,13.298-9.953,14.915-17.832
		c0.651,0.326,1.275-0.214,1.438-0.904c7.289,0.789,12.264,6.689,16.443,12.416c2.89,3.96,5.445,8.072,8.248,12.071
		c2.164,3.088,5.132,5.515,7.984,7.936C320.552,229.751,321.994,227.769,320.867,226.767z M186.41,7.848
		c8.427-1.221,17.035,0.072,25.146,2.415c3.756,1.085,7.631,1.659,11.371,2.83c4.805,1.504,8.618,4.463,12.106,8.001
		c5.731,5.814,10.147,12.864,11.698,20.931c0.783,4.077,0.922,8.368,0.875,12.658c-3.15-10.709-18.63-11.283-26.455-4.696
		c0.523-1.673,1.269-3.256,2.46-4.625c0.921-1.058-0.495-3.02-1.574-1.785c-2.515,2.878-3.421,6.635-4.03,10.324
		c-0.211,1.279,1.314,2.311,2.031,0.948c5.127-9.748,22.309-8.612,27.379,0.483c0.049,0.086,0.116,0.099,0.18,0.085
		c-0.054,3.391-0.204,6.772-0.245,10.039c-0.044,3.447,0.046,6.904,0.862,10.267c0.476,1.952,1.127,3.633,1.625,5.319
		c-1.113-0.75-2.609-1.081-3.897-0.908c-2.732,0.366-5.827,2.097-7.099,4.612c-0.264,0.523,0.052,1.19,0.499,1.395
		c0.156,0.253,0.401,0.435,0.759,0.424c1.455-0.043,2.609-0.778,3.653-1.735c0.489-0.449,0.95-0.93,1.424-1.396
		c0.321-0.316,0.706-0.568,1.016-0.883c0.608-0.069,1.224-0.05,1.818,0.11c1.208,0.324,1.321,1.654,1.987,2.515
		c0.164,0.213,0.371,0.286,0.574,0.272c0.004,0.694-0.043,1.417-0.17,2.189c-0.228,1.386-0.557,2.723-0.859,4.062
		c-0.949-2.372-5.059-2.415-7.109-1.954c-3.268,0.733-6.745,3.354-6.562,6.998c0.07,1.39,1.946,1.352,1.904-0.047
		c-0.068-2.223,2.066-3.532,3.996-4.232c-0.473,1.132-0.659,2.465,0.02,3.545c0.469,0.743,1.207,1.203,2.033,1.376
		c-1.768-0.121-3.543-0.18-5.26-0.255c-0.375-0.017-0.342,0.553-0.062,0.669c3.077,1.276,6.731,2.281,10.095,2.19
		c0.129-0.004,0.244-0.036,0.344-0.089c0.286,2.688,0.879,5.376,1.089,8.069c-0.519-0.46-1.042-0.923-1.558-1.409
		c-2.105-1.983-4.084-4.067-6.327-5.901c-2.612-2.137-5.12-2.985-7.718-2.963c-0.438-1.865-0.758-3.451-0.496-5.413
		c0.241-1.804,0.83-3.574,1.491-5.261c0.465-1.186-1.097-2.479-1.699-1.105c-1.462,3.331-3.163,8.373-1.458,11.985
		c-1.666,0.298-3.389,0.892-5.217,1.696c-5.531,2.435-12.101,4.92-16.053,9.668c-1.396,1.677-2.621,2.372-4.952,2.51
		c-1.276,0.076-2.851,1.094-3.979,1.64c-1.886,0.912-3.703,2.164-4.486,4.115c-2.204-1.979-4.73-3.706-6.778-5.665
		c-4.027-3.854-8.013-7.819-11.587-12.099c-3.963-4.746-6.266-10.253-9.197-15.621c-2.825-5.171-6.053-10.111-8.961-15.235
		c-3.207-5.649-5.455-11.565-7.526-17.705c-1.005-2.979-1.917-5.978-2.712-9.02c-0.793-3.033-1.039-6.193-1.787-9.226
		c0.005-0.01,0.013-0.013,0.018-0.023C156.571,18.809,170.756,10.114,186.41,7.848z M244.886,92.113
		c0.116-0.21-0.16,0.215-0.191,0.256c-0.156,0.204-0.315,0.404-0.471,0.607c-0.146-0.124-0.325-0.188-0.512-0.216
		c0.062-0.279,0.014-0.55-0.104-0.775c0.469-0.068,0.947-0.1,1.42-0.078C244.976,91.97,244.927,92.039,244.886,92.113z
		 M244.73,97.463c1.147-0.048,2.217-0.621,2.767-1.646c0.57-1.062,0.229-2.25-0.375-3.224c0.358,0.328,0.64,0.739,1.071,1.149
		c0.304,0.288,0.623,0.328,0.895,0.224c-0.153,0.906-0.268,1.824-0.293,2.772c-0.01,0.418,0.002,0.836,0.018,1.254
		c-0.01-0.003-0.016-0.01-0.026-0.012c-1.371-0.264-2.794-0.416-4.225-0.531C244.618,97.45,244.673,97.465,244.73,97.463z
		 M164.082,84.12c-5.277-8.321-9.166-16.598-12.538-25.829c-2.887-7.902-7.056-16.742-3.675-25.108
		c0.079,0.075,0.165,0.133,0.258,0.173c-0.551,3.973,0.565,8.267,1.555,12.047c1.265,4.835,2.829,9.745,4.689,14.384
		c3.951,9.855,10.16,18.494,15.113,27.833c2.186,4.119,4.041,8.187,6.817,11.968c2.831,3.854,6.265,7.258,9.649,10.618
		c3.268,3.246,6.699,6.131,10.164,9.152c1.521,1.326,3.161,2.923,3.754,4.895c0.156,0.519,0.244,1.056,0.31,1.595
		C183.165,116.631,174.082,99.887,164.082,84.12z M198.951,129.951c-0.176-0.181-0.34-0.369-0.476-0.591
		c-0.39-0.639-0.562-1.41-0.67-2.143c-0.007-0.044-0.027-0.075-0.04-0.114c0.517,0.298,1.016,0.613,1.546,0.896
		c0.377,0.201,0.721,0.162,0.992-0.004c-0.001,0.503,0.062,0.874,0.559,1.317C200.075,128.612,199.168,129.192,198.951,129.951z
		 M175.66,138.005c-5.609-6.829-10.328-14.708-16.427-21.115c0.293-0.064,0.578-0.157,0.86-0.265
		c4.603,6.968,11.317,12.454,16.491,18.983c5.755,7.263,11.048,14.672,18.158,20.711c0.013,0.388,0.093,0.776,0.215,1.165
		C187.754,151.776,181.49,145.101,175.66,138.005z M199.386,173.684c-5.586-5.518-8.961-12.555-11.999-19.631
		c2.452,2.275,4.997,4.451,7.659,6.486c0.311,0.237,0.604,0.265,0.849,0.162c0.015,0.568-0.132,0.941-0.785,0.999
		c-1.224,0.107-2.111-1.726-2.421-2.692c-0.301-0.941-1.358-0.438-1.229,0.422c0.239,1.592,0.916,3.327,2.417,4.115
		c1.181,0.62,2.798,0.199,3.487-0.931c0.658-1.079,0.496-2.437,0.262-3.617c-0.139-0.695-0.385-1.857-0.837-2.711
		c0.271-0.447,0.284-1.047-0.208-1.456c-2.816-2.349-5.401-4.928-7.848-7.638c0.24-4.053,0.205-7.916,1.082-11.923
		c0.814-3.719,2.289-7.284,3.899-10.729c1.05,0.729,2.13,1.427,3.238,2.091c-0.304,0.046-0.581,0.249-0.62,0.621
		c-0.205,1.944,0.457,4.529,2.518,5.261c0.63,0.224,1.049-0.303,1.126-0.88c3.368,1.935,2.235-8.091,1.269-9.787
		c-0.676-1.185-1.551-2.233-2.519-3.215c1.892-2.082,4.164-3.189,6.782-4.204c1.834-0.711,3.926,0.325,5.342-1.358
		c1.738-2.066,3.291-3.908,5.533-5.48c2.561-1.796,5.695-2.875,8.497-4.263c5.358-2.652,9.95-4.793,15.386-1.104
		c2.227,1.512,4.1,3.583,5.998,5.475c2.205,2.195,4.879,3.882,6.375,6.685c0.049,0.092,0.102,0.171,0.157,0.24
		c-0.078,0.023-0.156,0.043-0.233,0.072c-1.543,0.592-1.855,2.39-1.735,4.037c-1.844-3.828-3.798-7.652-6.28-11.05
		c-1.58-2.163-5.664-5.564-8.539-3.557c-1.807,1.262-2.395,3.33-2.443,5.45c-2.23-3.055-5.738-5.667-9.226-2.644
		c-1.761,1.525-1.972,4.09-1.676,6.635c-0.458-0.658-0.961-1.285-1.519-1.871c-2.463-2.59-5.477-2.531-7.184,0.676
		c-1.466,2.754-1.312,6.071-0.524,9.294c-0.729-0.244-1.55-0.038-2.469,0.859c-5.041,4.923-0.245,14.268,1.2,19.783
		c2.879,10.992,2.699,22.521,6.37,33.353c0.48,1.418,1.065,2.791,1.707,4.137C212.488,179.992,205.304,179.533,199.386,173.684z
		 M223.019,180.302c-4.75-8.016-5.439-18.325-6.717-27.328c-0.992-6.99-2.922-13.431-4.617-20.233
		c-0.404-1.622-0.641-3.262-0.664-4.933c-0.031-2.181,1.684-4.702,3.241-2.017c0.689,1.19,1.233,2.456,1.803,3.709
		c-0.195,0.171-0.299,0.504-0.16,0.772c2.72,5.284,4.384,10.772,5.751,16.531c1.188,4.995,2.367,10.107,4.996,14.574
		c0.834,1.416,2.548-0.039,1.846-1.316c-4.893-8.896-4.281-20.876-10.543-28.995c-0.256-1.002-0.736-3.111-1.47-5.09
		c-1.26-4.668-2.813-11.974,0.501-13.616c1.579-0.782,3.705,2.372,4.356,3.366c1.472,2.241,2.065,5.079,2.864,7.604
		c1.803,5.691,3.457,11.427,5.4,17.073c1.71,4.967,3.46,10.816,6.669,15.022c1.022,1.341,2.495-0.733,1.598-1.912
		c-2.664-3.501-4.12-8.487-5.608-12.562c-1.421-3.888-2.646-7.849-3.867-11.802c-1.002-3.24-1.785-6.85-3.027-10.204
		c0.014-0.079,0.03-0.156,0.022-0.246c-0.255-2.867-2.372-11.49,3.021-10.551c3.357,0.585,5.415,6.226,6.688,8.91
		c4.684,9.863,10.824,19.424,12.889,30.283c0.316,1.665,2.455,0.793,2.166-0.744c-1.389-7.379-4.686-14.084-8.089-20.713
		c-2.142-4.173-3.981-8.758-6.348-12.905c0.057-0.181,0.089-0.375,0.056-0.592c-0.221-1.404-0.221-2.735,0.046-4.133
		c0.674-3.521,4.301-1.705,5.936-0.198c2.451,2.26,3.839,5.691,5.356,8.599c4.408,8.444,7.93,17.166,11.547,25.955
		c0.549,1.332,2.268,0.199,1.941-0.991c-1.77-6.462-4.867-12.664-7.762-18.679c-0.32-0.663-0.638-1.331-0.957-2.001
		c0.021-0.038,0.053-0.062,0.062-0.112c0.439-2.372,0.588-4.923,3.478-3.336c2.399,1.318,4.364,3.516,6.169,5.529
		c5.516,6.156,7.607,12.818,8.125,21.127c0.503,8.093,0.145,16.144,0.941,24.231c0.475,4.812,2.143,15.837-3.932,17.822
		c-0.563,0.185-0.813,0.673-0.822,1.176c-3.438,2.737-6.883,4.757-11.15,6.614c-4.033,1.755-8.221,3.473-12.469,4.85
		c-0.266-0.13-0.502-0.013-0.643,0.21c-1.438,0.453-2.882,0.86-4.328,1.218C231.136,194.769,227.184,187.333,223.019,180.302z
		 M269.015,212.717c-3.645,2.446-8.01,3.895-12.223,5.001c-4.554,1.195-9.051,0.488-13.625,0.889
		c-0.117-3.094-0.893-5.992-1.844-8.98c-0.824-2.591-2.793-4.618-3.779-7.129c1.693-0.319,3.375-0.729,5.043-1.21
		c1.482,2.271,2.527,4.725,3.381,7.333c0.852,2.604,1.3,5.462,2.594,7.889c0.59,1.108,1.814,0.158,1.623-0.834
		c-0.944-4.903-2.846-10.719-6.065-14.858c2.606-0.818,5.178-1.783,7.708-2.821c0.011,0.02,0.013,0.04,0.025,0.059
		c2.29,3.273,4.093,6.827,6.248,10.178c0.693,1.076,1.959-0.009,1.447-1.023c-1.752-3.47-3.949-6.823-6.604-9.675
		c1.406-0.589,2.801-1.191,4.18-1.798c1.457-0.641,3.31-1.388,5.135-2.303c-0.207,0.343-0.262,0.832,0.022,1.192
		c1.11,1.413,2.195,2.838,3.204,4.327c0.92,1.359,1.553,2.857,2.389,4.261c0.566,0.951,1.719,0.183,1.488-0.764
		c-0.848-3.489-3.734-6.477-5.995-9.135c-0.13-0.152-0.264-0.219-0.396-0.251c2.359-1.251,4.568-2.805,5.705-4.794
		c1.135-0.554,2.007-1.393,2.684-2.414c4.094,2.97,8.099,5.86,11.747,9.338C282.016,203.317,275.439,208.403,269.015,212.717z"/>
</g>
</svg>
