<?xml version="1.0" encoding="utf-8"?>
<!-- Generator: Adobe Illustrator 15.1.0, SVG Export Plug-In . SVG Version: 6.00 Build 0)  -->
<!DOCTYPE svg PUBLIC "-//W3C//DTD SVG 1.1//EN" "http://www.w3.org/Graphics/SVG/1.1/DTD/svg11.dtd">
<svg version="1.1" id="Layer_1" xmlns="http://www.w3.org/2000/svg" xmlns:xlink="http://www.w3.org/1999/xlink" x="0px" y="0px"
	 width="325.984px" height="250.557px" viewBox="0 0 325.984 250.557" enable-background="new 0 0 325.984 250.557"
	 xml:space="preserve">
<g>
	<path d="M47.816,158.912c-1.49-6.233-3.905-12.327-6.272-18.269c-0.117-0.295-0.438-0.027-0.396,0.209
		c1.239,6.764,3.781,13.204,5.289,19.916c1.703,7.581,2.364,15.578,3.154,23.301c1.125,11.014,1.395,23.183,7.918,32.643
		c0.839,1.217,2.442-0.072,1.697-1.201c-6.92-10.487-6.751-23.654-8.158-35.689C50.233,172.853,49.448,165.74,47.816,158.912z"/>
	<path d="M36.709,181.003c1.066,2.82,2.004,5.665,2.729,8.594c0.715,2.892,0.738,5.842,1.213,8.76
		c0.131,0.808,1.329,0.771,1.428-0.035c0.742-6.053-1.801-12.488-4.144-17.953C37.579,179.54,36.423,180.244,36.709,181.003z"/>
	<path d="M39.188,161.765c3.11-8.791-3.636-15.158-6.694-22.751c-0.084-0.21-0.327-0.023-0.289,0.151
		c0.715,3.336,2.026,6.307,3.579,9.328c2.225,4.328,2.646,8.17,2.344,12.966C38.091,162.042,38.968,162.387,39.188,161.765z"/>
	<path d="M16.272,148.456c-0.182,3.373-1.062,6.646-1.26,10.006c-0.05,0.855,1.203,1.055,1.34,0.178
		c0.52-3.328,0.842-6.836,0.76-10.205C17.096,147.804,16.305,147.844,16.272,148.456z"/>
	<path d="M26.232,120.05c0.517-0.605-0.165-1.978-0.933-1.349c-3.012,2.466-5.697,5.381-7.498,8.846
		c-2.471,4.752-1.816,10.488-3.129,15.56c-0.007,0.027,0.03,0.04,0.039,0.012c1.356-4.533,1.726-9.5,3.623-13.849
		C20.052,125.334,23.548,123.19,26.232,120.05z"/>
	<path d="M46.206,88.165c0.209-0.773,0.418-1.527,0.575-2.315c0.161-0.804,0.539-1.503-0.032-2.216
		c-0.13-0.162-0.364-0.222-0.558-0.157c-0.047,0.016-0.093,0.032-0.14,0.047c-0.278,0.094-0.498,0.378-0.544,0.666
		c-0.222,1.392-0.02,2.645,0.34,3.983C45.903,88.384,46.153,88.362,46.206,88.165z"/>
	<path d="M48.16,85.262c0.741-1.107,1.728-1.976,2.343-3.173c0.283-0.551-0.394-1.315-0.873-0.752
		c-0.919,1.079-1.284,2.362-1.768,3.67C47.797,85.184,48.011,85.485,48.16,85.262z"/>
	<path d="M131.885,111.742c3.469,2.931,8.789,2.488,12.754,0.765c1.12-0.487,0.725-2.404-0.561-2.123
		c-4.183,0.915-7.71,2.179-11.982,0.732C131.716,110.988,131.665,111.557,131.885,111.742z"/>
	<path d="M139.991,81.826c2.511-3.853,2.002-9.021,1.927-13.402c-0.022-1.338-1.774-1.284-1.785,0.044
		c-0.018,2.014-0.008,4.023-0.129,6.034c-0.137,2.253-0.857,4.222-1.491,6.357C138.272,81.668,139.409,82.719,139.991,81.826z"/>
	<path d="M149.289,80.723c0.935-3.576,0.276-11.695-4.439-12.367c-0.896-0.128-1.115,1.215-0.314,1.511
		c3.377,1.249,3.276,7.435,2.893,10.3C147.25,81.493,148.911,82.17,149.289,80.723z"/>
	<path d="M135.792,93.278c3.357-8.105,1.498-17.085,0.694-25.51c-0.064-0.678-0.929-0.674-0.922,0.022
		c0.07,8.138,1.934,16.717-1.306,24.49C133.81,93.357,135.28,94.512,135.792,93.278z"/>
	<path d="M120.703,111.757c5.672-4.154,6.102-12.473,8.242-18.598c2.893-8.278,5.391-16.628,3.503-25.412
		c-0.026-0.122-0.2-0.085-0.185,0.034c1.177,8.979-1.664,17.282-4.841,25.523c-2.38,6.173-2.792,12.243-7.538,17.285
		C119.391,111.114,120.02,112.257,120.703,111.757z"/>
	<path d="M122.285,97.602c1.072-0.794,1.591-2.255,2.135-3.439c0.678-1.475,1.126-3.076,1.486-4.654
		c0.07-0.308-0.332-0.444-0.428-0.127c-0.457,1.508-1.135,2.862-1.911,4.228c-0.65,1.143-1.605,2.11-2.018,3.361
		C121.415,97.38,121.891,97.893,122.285,97.602z"/>
	<path d="M120.385,94.912c-1.509,3.448-4.612,6.603-7.312,9.142c-1.523,1.433-3.135,2.745-4.922,3.834
		c-1.57,0.957-3.026,0.897-4.701,1.303c-0.769,0.186-0.72,1.396-0.154,1.761c3.124,2.016,8.128-2.561,10.177-4.438
		c3.296-3.021,6.253-6.99,7.56-11.301C121.154,94.809,120.574,94.481,120.385,94.912z"/>
	<path d="M119.822,103.061c-3.227,2.168-8.192,4.942-7.188,9.638c0.191,0.892,1.239,0.729,1.458-0.036
		c0.588-2.047,1.034-3.489,2.536-5.073c1.229-1.295,2.609-2.378,3.676-3.832C120.545,103.429,120.259,102.767,119.822,103.061z"/>
	<path d="M168.401,106.907c-0.23-0.041-0.286,0.266-0.13,0.389c2.926,2.311,6.154,2.879,9.8,2.972
		c4.11,0.104,7.748,1.146,11.735,1.884c1.273,0.236,1.494-1.623,0.438-2.079C183.429,107.128,175.578,108.181,168.401,106.907z"/>
	<path d="M259.103,107.271c-0.356-0.333-0.913-0.178-0.993,0.334c-0.16,1.027-0.174,2.023-0.454,3.036
		c-0.389,1.405-1.116,2.68-1.625,4.04c-0.3,0.8,0.459,1.78,1.209,1.043c1.215-1.193,1.8-2.933,2.223-4.546
		C259.769,110.007,260.104,108.203,259.103,107.271z"/>
	<path d="M258.246,122.627c0.911-0.357,1.482-1.104,2.132-1.811c0.792-0.862,1.546-1.758,2.261-2.685
		c0.658-0.854-0.404-2.342-1.227-1.371c-0.688,0.812-1.407,1.591-2.154,2.348c-0.705,0.715-1.479,1.309-1.894,2.24
		C257.121,121.894,257.5,122.919,258.246,122.627z"/>
	<path d="M225.345,88.567c-0.542,0.004-0.617,0.967-0.097,1.073c6.24,1.273,12.789,1.434,19.135,1.128
		c1.118-0.054,1.054-1.926-0.049-1.979C238.033,88.483,231.655,88.516,225.345,88.567z"/>
	<path d="M288.785,110.592c10.618,3.735,21.704,8.766,32.934,10.247c1.112,0.147,1.077-1.763,0.188-2.088
		c-5.321-1.947-11.013-3.092-16.429-4.809c-5.454-1.73-10.848-3.655-16.213-5.642c-0.522-0.193-1.05-0.369-1.574-0.555
		c5.685-1.759,10.828-4.606,15.73-8.041c5.714-4.004,11.506-8.408,16.765-12.986c0.869-0.757,0.204-2.581-0.988-1.879
		c-5.698,3.358-10.602,8.231-15.905,12.175c-5.649,4.201-11.756,7.469-18.521,9.459c-0.114,0.034-0.203,0.093-0.284,0.159
		c-3.652-1.223-7.326-2.382-10.925-3.764c-4.533-1.741-8.594-5.247-13.667-4.654c0.371-0.381,0.466-1.129,0.05-1.493
		c-2.393-2.096-3.73-3.609-3.787-6.965c-0.037-2.216,0.4-4.46,0.568-6.671c0.386-5.077-1.936-9.694-3.967-14.18
		c-0.109-0.242-0.27-0.37-0.442-0.433c0.001-0.049,0.005-0.102,0.005-0.149c0.004-1.36-0.35-4.323-1.502-5.778
		c2.936-0.65,5.936-0.997,8.875-1.639c3.675-0.803,7.15-2.733,10.474-4.437c6.79-3.481,12.969-7.801,19.196-12.174
		c6.061-4.256,12.032-8.634,17.938-13.102c3.951-2.989,10.56-7.396,11.876-12.497c0.162-0.629-0.584-1.774-1.268-1.127
		c-1.837,1.736-3.169,3.991-4.998,5.795c-2.334,2.304-4.947,4.33-7.551,6.316c-5.614,4.28-11.3,8.463-17.074,12.524
		c-6.443,4.531-12.819,8.916-19.844,12.522c-2.994,1.538-6.071,3.03-9.34,3.864c-2.511,0.64-5.1,0.926-7.621,1.499
		c1.548-1.824,2.806-3.833,1.495-5.95c-2.3-3.715-6.422-2.159-9.649-0.378c-3.251,1.793-6.023,4.225-7.181,7.619
		c-0.178-0.278-0.45-0.484-0.82-0.517c-6.596-0.588-13.005,2.125-19.481,2.893c-7.709,0.913-15.771,0.116-23.52,0.1
		c-14.662-0.031-29.028-3.09-43.645-0.421c-0.002-0.001-0.004-0.003-0.006-0.004c-0.211-0.14-0.408-0.124-0.573-0.033
		c-0.095-0.369-0.343-0.658-0.77-0.586c-2.643,0.444-4.868-0.823-7.502-0.982c-3.541-0.214-6.558,0.838-10.107-0.271
		c-4.295-1.343-7.21-3.04-11.298-2.382c0.407-0.581,0.303-1.594-0.5-1.861c-7.726-2.571-16.146-3.558-24.195-4.581
		c-7.24-0.92-15.332-0.222-21.267-5.236c-0.214-0.181-0.429-0.214-0.623-0.156c-0.073-0.037-0.151-0.066-0.24-0.079
		c-7.192-1.015-13.907,3.212-19.778,6.829c-3.767,2.32-7.501,4.519-11.531,6.369c-4.192,1.924-8.239,3.613-11.92,6.359
		c-0.082-0.002-0.166,0.001-0.256,0.031c-4.505,1.499-4.279,8.497-4.219,12.253c0.131,8.117-0.707,16.179-0.689,24.294
		c-0.467-0.081-0.934-0.161-1.387-0.246c-0.719-0.134-0.899,0.932-0.315,1.216c-0.135,0.053-0.255,0.141-0.349,0.262
		c-1.896,1.02-3.601,2.36-5.964,2.007c-0.436-0.065-0.756,0.172-0.859,0.603c-0.73,3.037-2.787,5.396-4.026,8.196
		c-1.855,0.268-3.299,1.062-4.66,2.543c-0.264,0.287-0.323,0.66-0.248,1.006c-2.271,3.599-1.752,6.987,0.301,9.673
		c-0.751,3.509,0.18,6.947,1.111,10.378c1.397,5.149,1.932,9.236,1.157,14.528c-0.042,0.284,0.04,0.536,0.179,0.727
		c-0.061-0.031-0.118-0.072-0.179-0.103c-0.735-0.374-1.184,0.788-0.555,1.178c4.949,3.062,7.653,10.183,7.768,15.765
		c0.009,0.449,0.212,0.718,0.471,0.836c4.671,4.121,9.16,9.309,9.444,15.834c0.042,0.969,1.259,1.484,1.742,0.497
		c0.858-1.749,1.965-3.284,3.201-4.706c1.498,3.704,1.5,7.994,3.043,11.732c1.226,2.967,2.729,5.625,3.056,8.895
		c0.222,2.217-0.004,4.76,1.052,6.818c2.374,4.627,6.265,7.887,7.969,12.949c1.203,3.576,2.272,6.289,5.842,8.023
		c4.613,2.239,13.174,2.236,15.057-3.586c2.169-6.703-1.193-14.898-2.17-21.609c-0.144-0.986-1.623-0.929-1.74,0.042
		c-0.701,5.792,2.403,11.81,2.473,17.661c0.104,8.698-13.276,8.149-16.443,1.924c-1.613-3.171-1.992-6.567-4.196-9.51
		c-1.144-1.526-2.38-2.977-3.551-4.482c-2.246-2.892-2.106-6.098-2.457-9.529c-0.377-3.693-2.635-6.998-3.89-10.418
		c-1.261-3.436-1.254-7.017-2.803-10.254c3.078-3.186,6.684-5.916,9.381-9.439c1.137,3.371,2.337,6.704,2.934,10.233
		c0.199,1.179,1.744,0.569,1.525-0.529c-0.737-3.706-2.123-7.235-3.793-10.614c0.012-0.017,0.024-0.033,0.036-0.05
		c0.663-0.966-0.344-2.445-1.344-1.476c-3.23,3.13-6.949,6.362-10.065,9.947c-0.615-0.247-1.298,0.448-0.968,1.152
		c-0.883,1.086-1.702,2.205-2.43,3.365c-1.196-5.533-4.935-10.797-9.709-13.667c0.004-0.029,0.017-0.05,0.02-0.081
		c0.459-5.718-3.112-13.387-8.162-16.477c0.226,0.006,0.46-0.108,0.64-0.414c1.939-3.315,1.28-7.527,0.519-11.114
		c-0.961-4.532-2.364-8.919-3.323-13.454c1.46,1.512,3.407,2.75,5.585,3.588c1.259,0.484,1.577-1.731,0.465-2.216
		c-4.873-2.122-8.478-5.661-6.253-11.086c0.017,0.003,0.031,0.011,0.049,0.013c4.829,0.441,10.549,2.021,15.224,0.153
		c0.856-0.342,0.78-2.09-0.276-1.985c-4.067,0.404-7.868,0.117-11.813-0.213c0.562-0.188,1.174-0.293,1.865-0.333
		c1.231-0.071,1.18-2.266-0.055-2.214c-0.044,0.002-0.083,0.008-0.126,0.01c1.476-2.315,3.297-4.47,4.268-7.039
		c2.116,0.175,4.264-0.606,6.09-1.772c0.778,1.657,1.782,3.159,3,4.562c0.968,1.115,2.315,2.496,3.789,3.182
		c-0.061,0.006-0.121,0.04-0.144,0.119c-1.67,5.757,0.389,10.01,4.057,13.052c-0.121,0.099-0.229,0.235-0.291,0.446
		c-0.171,0.578-0.349,1.146-0.588,1.701c-0.278,0.642-0.771,1.098-1.099,1.699c-0.42,0.77,0.364,1.801,1.184,1.318
		c1.307-0.771,1.66-2.941,1.94-4.293c0-0.001,0-0.001,0-0.002c4.084,2.887,9.645,4.525,14.38,5.229
		c0.119,0.018,0.232,0.009,0.344-0.007c-0.042,7.079,3.168,13.764,4.549,20.665c1.795,8.974,3.37,17.942,5.621,26.823
		c1.225,4.836,2.661,9.485,3.331,14.436c0.294,2.169,0.45,4.363,0.328,6.551c-0.14,2.521-1.018,3.405-3.403,2.481
		c-1.041-0.403-1.298,1.279-0.609,1.794c3.24,2.418,5.46-0.154,5.9-3.453c0.587-4.396-0.408-9.131-1.287-13.43
		c-1.801-8.815-4.588-17.419-6.294-26.283c-1.023-5.318-1.781-10.758-3.347-15.951c-1.375-4.559-3.783-9.059-4.301-13.846
		c0.176-0.143,0.312-0.341,0.358-0.607c0.667-3.771,1.52-7.124,3.448-10.468c0.354-0.613-0.14-1.394-0.713-1.447
		c0.395-1.933,1.855-2.876,3.633-3.926c1.03-0.608,2.249-1.396,3.031-2.417c1.559,0.487,2.973-0.033,4.266-1.147
		c1.398-1.207,3.27-3.407,3.524-5.301c0.081-0.6-0.543-1.717-1.255-1.075c-1.127,1.016-1.696,2.672-2.628,3.88
		c-0.369,0.479-0.798,0.93-1.274,1.313c-0.317-0.385-0.831-0.588-1.198-0.931c-0.579-0.54-1.214-1.202-1.633-1.875
		c-0.134-0.215-0.386-0.042-0.335,0.175c0.169,0.714,0.323,1.384,0.61,2.022c-0.235-0.025-0.488,0.05-0.696,0.25
		c-0.82,0.79-1.233,1.77-2.193,2.491c-0.936,0.703-1.985,1.242-2.936,1.925c-0.117,0.084-0.215,0.179-0.323,0.268
		c0.195-1.167,0.304-2.325,0.334-3.375c0.034-1.188-1.733-1.503-1.876-0.25c-0.105,0.931-0.229,1.86-0.394,2.779
		c-0.02-0.152-0.068-0.307-0.157-0.458c-0.951-1.621-2.139-2.97-3.48-4.128c5.388,0.575,10.935-1.686,15.253-5.035
		c4.085,0.874,9.276-0.024,12.946-1.619c0.116-0.051,0.212-0.123,0.292-0.208c1.17,1.247,3.905,1.711,5.339,2.11
		c2.662,0.742,5.381,1.263,8.073,1.879c6.237,1.427,12.227-0.784,17.276-4.409c4.729-3.396,9.807-9.196,10.789-15.104
		c0.14-0.836-0.811-1.428-1.294-0.6c-2.866,4.905-5.232,9.293-9.697,13.004c-4.487,3.729-10.28,5.848-16.11,4.899
		c-3.688-0.601-7.472-1.533-11.027-2.67c-5.484-1.754-2.428-9.304-1.136-13.279c0.286-0.881-1.041-1.624-1.424-0.661
		c-1.577,3.965-3.618,9.003-1.828,13.134c-1.866,0.028-3.803,0.75-5.601,1.16c-1.538,0.35-3.129,0.632-4.723,0.77
		c0.18-0.167,0.363-0.331,0.536-0.5c0.772-0.758-0.239-2.559-1.225-1.765c-5.402,4.354-11.671,7.742-18.838,6.85
		c-0.138-0.017-0.244,0.022-0.337,0.081c-3.002-1.795-6.498-2.929-10.092-3.745c1.463-5.577,4.899-9.791,9.682-12.867
		c5.484-3.528,11.631-6.734,17.567-9.402c4.312-1.938,15.916-3.727,12.554-11.108c-0.427-0.938-1.475-0.274-1.498,0.519
		c-0.122,4.134-3.01,5.435-6.328,6.486c0.05-0.414-0.067-0.864-0.415-1.131c-1.565-1.2-3.027-2.492-4.062-4.19
		c-0.495-0.812-0.767-1.709-0.96-2.631c-0.186-0.892-0.009-1.533-0.467-2.34c-0.237-0.419-0.838-0.594-1.159-0.147
		c-1.196,1.663-0.215,4.26,0.604,5.924c1.027,2.087,2.874,3.725,4.77,5.035c-0.062,0.019-0.122,0.038-0.183,0.057
		c-4.915-3.663-13.099,1.083-16.933-3.983c-0.965-1.276-2.217,0.727-1.447,1.801c0.327,0.457,0.687,0.843,1.068,1.18
		c-5.343,3.016-8.098,8.21-8.887,14.328c-0.074,0.575,0.252,1.071,0.661,1.231c-2.8,2.795-4.685,6.265-4.937,11.153
		c-2.924-0.646-5.888-1.1-8.68-1.559c0.204-6.781,1.317-13.564,1.225-20.344c-0.072-5.243-1.115-10.815,2.869-14.887
		c0.149-0.152,0.218-0.355,0.228-0.566c6.737-3.119,13.77-5.639,20.154-9.478c6.706-4.032,13.8-9.505,22.052-8.74
		c0.164,0.015,0.308-0.019,0.433-0.084c5.052,4.214,11.636,4.737,17.986,5.275c9.249,0.785,18.106,2.959,27.187,4.634
		c-0.293,0.082-0.591,0.172-0.898,0.279c-1.08,0.375-0.655,2.376,0.525,2.021c6.029-1.811,9.844,1.711,15.491,2.831
		c3.229,0.64,6.476-0.765,9.735-0.122c2.254,0.445,3.71,1.579,5.755,0.231c0.094,0.366,0.334,0.661,0.702,0.661
		c0.336,0.582,0.657,1.17,0.929,1.793c0.32,0.734,0.519,1.685,1.03,2.335c-0.31,3.044,0.599,6.056,1.421,8.974
		c1.193,4.236,1.743,8.37,2.541,12.672c1.125,6.062,7.099,12.055,5.661,18.213c-5.912,2.378-11.773,10.241-18.398,5.705
		c-0.154-0.438-0.539-0.772-1.05-0.608c-4.445,1.431-8.579-0.325-12.925,0.736c-4.012,0.979-10.708,4.75-13.011-0.869
		c-0.095-0.231-0.334-0.018-0.308,0.161c0.173,1.164,0.558,2.07,1.099,2.764c-0.102,0.013-0.208,0.042-0.324,0.111
		c-1.606,0.945-2.29,1.927-4.308,1.211c-1.96-0.696-3.687-2.542-5.171-3.908c-2.367-2.179-4.752-4.648-8.074-5.18
		c-0.33-0.053-0.419,0.458-0.117,0.557c3.226,1.052,15.444,17.665,18.704,8.474c0.058-0.162,0.07-0.34,0.049-0.511
		c1.724,1.365,4.352,1.418,6.948,0.911c3.245-0.635,5.6-1.997,9.075-1.579c3.132,0.376,6.277,0.666,9.057-1.032
		c4.459,4.533,9.724,1.458,14.562-1.686c0.057,0.049,0.12,0.088,0.198,0.104c4.965,1.005,9.906,2.275,14.888,3.183
		c2.685,0.489,5.689,0.601,8.307-0.27c4.635,2.564,9.623,3.59,14.845,4.206c6.831,0.805,13.619,1.506,20.38,2.821
		c12.998,2.529,25.574,5.434,37.795,10.616c5.644,2.393,11.878,3.254,17.763,4.865c6.182,1.691,11.86,4.826,17.501,7.796
		c10.74,5.655,21.481,11.82,33.386,14.669c1.45,0.347,1.933-2.02,0.537-2.354c-12.17-2.912-23.084-9.244-34.06-15.023
		c-5.055-2.662-10.136-5.314-15.594-7.052c-5.857-1.864-11.965-2.742-17.777-4.78c-6.116-2.146-11.9-4.91-18.178-6.648
		c-6.357-1.759-12.981-2.923-19.443-4.252c-6.132-1.261-12.303-2.113-18.526-2.757c-5.628-0.583-11.103-1.231-16.386-3.181
		c0.473-0.311,0.923-0.667,1.339-1.082c0.4-0.4,0.248-1.236-0.179-1.594c0.48-0.081,0.958-0.165,1.43-0.255
		c0.754-0.144,0.714-1.629-0.043-1.74c-6.002-0.876-12.025,1.963-18.07,0.335c-0.637-0.171-0.802,0.885-0.229,1.079
		c4.816,1.635,10.21,1.555,15.311,0.83c-4.436,1.81-7.99,1.823-12.886,0.795c-3.291-0.691-6.778-1.845-10.195-1.682
		c0.495-0.317,0.982-0.621,1.462-0.905c0.3,0.455,0.914,0.658,1.435,0.156c1.023-0.986,1.581-2.126,1.811-3.354
		c1.552,0.44,3.925,0.994,5.245,0.042c0.538-0.388,0.462-1.419-0.221-1.612c-0.833-0.235-1.661,0.098-2.511,0.187
		c-0.796,0.083-1.589,0.083-2.385,0.033c0.019-3.534-2.145-7.569-3.85-10.78c5.648-2.633,13.077-2.068,19.126-3.015
		c3.742-0.585,7.438-1.405,11.2-1.873c4.468-0.555,8.799,0.073,13.223,0.689c6.08,0.846,11.511,0.428,16.743-2.923
		c5.204-3.334,9.415-8.479,15.87-9.193c-0.277,0.433-0.584,0.86-0.961,1.276c-0.836,0.922,0.413,2.651,1.395,1.582
		c5.753-6.268,0.958-13.516,2.498-20.773c0.954-4.497,6.642-7.774,10.867-8.495c2.191-0.374,2.537,2.351,1.57,3.752
		c-0.464,0.671-1.055,1.269-1.604,1.869c-0.822,0.9-1.661,1.703-1.979,2.903c-0.234,0.885,0.56,1.585,1.231,1.371
		c0.092,0.577,0.789,1.17,1.25,0.521c0.094-0.132,0.163-0.272,0.226-0.416c0.288,0.955,0.684,1.917,0.809,2.851
		c0.124,0.924,0.167,1.939-0.136,2.834c-0.32,0.945-1.169,1.062-1.889,1.58c-0.59,0.424-0.549,1.695,0.253,1.879
		c1.688,0.388,2.722-0.774,3.284-2.214c0.955,2.446,1.972,4.863,2.599,7.422c0.753,3.076,0.024,6.187-0.206,9.27
		c-0.313,4.181,0.422,9.038,4.992,10.494c0.025,0.008,0.046,0.002,0.07,0.007c-0.014,0.075,0.014,0.155,0.1,0.181
		c4.955,1.487,9.039,4.547,13.778,6.471C278.237,107.16,283.562,108.755,288.785,110.592z M59.468,113.01
		c-0.132,0.046-0.267,0.083-0.403,0.116c0.042-0.155,0.06-0.319,0.078-0.482C59.242,112.769,59.351,112.893,59.468,113.01z
		 M47.748,79.857c0.139-0.1,0.22-0.257,0.265-0.431c4.03,2.104,9.923,0.098,14.548,0.593c-4.523,1.599-8.737,4.167-12.892,6.505
		c-3.551,1.999-6.978,3.895-9.757,6.238c0.94-2.115,1.279-4.55,2.163-6.688C43.191,83.373,45.433,81.519,47.748,79.857z
		 M48.5,116.397c0.511,0.874,1.387,0.571,1.733-0.073c-0.283,1.357-0.678,2.686-1.286,3.952c-1.557,3.238-4.234,2.554-6.639,0.565
		c-0.608-0.503-1.105,0.64-0.688,1.103c2.25,2.496,5.256,3.994,7.885,1.156c0.353-0.381,0.658-0.815,0.941-1.27
		c0.006,0.035,0.007,0.069,0.014,0.104c-1.89,2.688-2.604,6.03-3.206,9.247c-9.289-1.527-19.205-5.751-18.74-16.74
		c0.002-0.046-0.014-0.08-0.033-0.107c0.405,0.176,0.816,0.311,1.234,0.358c0.941,0.107,0.841-1.309,0.352-1.712
		c-1.43-1.178-3.031-1.909-4.372-3.279c-1.157-1.183-2.131-2.562-2.916-4.026c0.09-0.071,0.187-0.139,0.274-0.211
		c0.143-0.118,0.227-0.297,0.262-0.491C31.927,107.54,43.638,108.079,48.5,116.397z M235.995,78.459
		c-0.167-0.156-0.386-0.249-0.665-0.226c-5.649,0.465-9.844,3.938-14.125,7.33c-2.614,2.07-5.248,3.858-8.464,4.845
		c-4.413,1.354-9.423,0.251-13.852-0.355c-8.177-1.119-15.785,0.988-23.825,2.113c-5.742,0.804-11.761,0.688-16.814,3.831
		c-0.257-0.491-0.493-0.957-0.698-1.391c-1.862-3.941-1.68-8.795-2.788-13.006c-1.01-3.839-1.91-7.969-3.34-11.705
		c0.228-0.161,0.388-0.452,0.402-0.801c0.043-1.03-0.599-2.124-1.045-3.025c-0.146-0.295-0.31-0.584-0.484-0.866
		c14.043-1.372,28.055,0.459,42.094,1.166c7.391,0.373,14.939,0.292,22.333,0.011c7.017-0.267,13.572-3.358,20.666-3.019
		c0.106,0.005,0.201-0.009,0.29-0.03c-0.042,0.297-0.072,0.6-0.091,0.91C235.304,69.015,237.336,74.031,235.995,78.459z"/>
</g>
</svg>
