<?xml version="1.0" encoding="utf-8"?>
<!-- Generator: Adobe Illustrator 15.1.0, SVG Export Plug-In . SVG Version: 6.00 Build 0)  -->
<!DOCTYPE svg PUBLIC "-//W3C//DTD SVG 1.1//EN" "http://www.w3.org/Graphics/SVG/1.1/DTD/svg11.dtd">
<svg version="1.1" id="Layer_1" xmlns="http://www.w3.org/2000/svg" xmlns:xlink="http://www.w3.org/1999/xlink" x="0px" y="0px"
	 width="325.984px" height="327.113px" viewBox="0 0 325.984 327.113" enable-background="new 0 0 325.984 327.113"
	 xml:space="preserve">
<g>
	<path d="M137.905,114.589c3.186-9.235,6.973-17.708,11.827-26.203c4.972-8.699,10.188-17.253,13.845-26.617
		c0.47-1.203-1.139-2.524-1.705-1.124c-3.764,9.3-9.005,17.849-14.025,26.501c-4.775,8.23-9.907,17.138-11.84,26.558
		C135.768,114.864,137.438,115.943,137.905,114.589z"/>
	<path d="M218.101,89.191c0.748,0.666,1.569-0.549,0.925-1.142c-10.036-9.222-19.647-18.893-29.798-27.99
		c-0.174-0.156-0.357,0.119-0.214,0.267C198.465,70.196,207.887,80.099,218.101,89.191z"/>
	<path d="M209.698,244.8c-0.25-7.139-0.489-14.277-0.551-21.42c-0.072-8.102,0.041-16.187,0.253-24.284
		c0.207-7.813,0.966-16.808-1.626-24.313c-0.174-0.503-0.759-0.366-0.774,0.146c-0.225,8.046,0.603,16.135,0.378,24.217
		c-0.237,8.568-0.388,17.119-0.319,25.691c0.058,7.428,0.294,14.866,0.594,22.29c0.223,5.501,0.256,12.917,3.351,17.698
		c0.666,1.03,1.987,0.231,1.686-0.873C210.933,257.519,209.934,251.507,209.698,244.8z"/>
	<path d="M130.656,177.155c0.692,0.345,1.059-0.7,0.512-1.091c-4.466-3.19-8.116-7.628-13.006-10.18
		c-0.292-0.152-0.456,0.305-0.218,0.469C122.509,169.496,125.663,174.664,130.656,177.155z"/>
	<path d="M132.877,188.458c-2.642-2.794-6.264-4.9-9.581-6.792c-0.439-0.25-0.705,0.479-0.335,0.718
		c3.238,2.101,6.081,4.968,9.454,6.815C132.869,189.447,133.182,188.783,132.877,188.458z"/>
	<path d="M124.199,191.677c-1.046-0.518-1.709,1.17-0.788,1.674c3.889,2.128,6.997,5.63,11.062,7.383
		c0.716,0.31,1.092-0.926,0.63-1.349C131.876,196.429,128.128,193.621,124.199,191.677z"/>
	<path d="M111.588,164.05c-17.739-0.187-35.442-1.26-53.184-1.373c-17.625-0.112-35.235-0.972-52.734-3.109
		c-1.125-0.138-1.288,2.071-0.204,2.237c17.057,2.613,34.312,3.445,51.549,3.637c18.211,0.203,36.435,1.487,54.641,1.391
		C113.244,166.826,113.173,164.067,111.588,164.05z"/>
	<path d="M320.056,171.846c-2.317,0.032-4.539-0.95-6.758-1.503c-2.611-0.651-5.513-0.581-8.186-0.756
		c-6.021-0.392-12.039-0.424-18.068-0.485c-6.159-0.062-12.311-0.458-18.467-0.608c-5.778-0.144-11.872,1.09-17.547-0.125
		c0.365-9.581,0.761-19.16,0.583-28.753c-0.145-7.818-0.409-15.682-1.003-23.479c-0.403-5.294,0.498-11.023-1.614-15.99
		c0.792-0.058,1.551-1.12,1.04-2.092c-5.865-11.168-16.812-18.964-26.696-26.335c-4.858-3.623-10.004-6.642-15.209-9.735
		c-2.574-1.529-5.086-3.15-7.501-4.923c-2.014-1.479-3.779-3.319-5.766-4.83c0.004-0.062,0.022-0.117,0.017-0.186
		c-0.49-5.594-0.265-12.146-2.192-17.488c0.166-0.046,0.332-0.092,0.495-0.138c0.431-0.122,0.676-0.449,0.771-0.832
		c0.437,0.162,0.929,0.059,1.168-0.543c1.979-4.976,1.23-10.736-0.225-15.739c-0.216-0.746-0.836-0.706-1.177-0.305
		c0.032-0.137,0.063-0.275,0.081-0.419c0.718-5.693-14.02-4.272-16.946-4.216c-3.759,0.071-7.522,0.032-11.273,0.335
		c-3.228,0.261-7.937,0.621-9.658,3.83c-0.319,0.593-0.158,1.204,0.196,1.601c-0.054,0.136-0.089,0.286-0.073,0.459
		c0.44,4.77-1.652,9.88-0.049,14.532c0.089,0.261,0.226,0.43,0.375,0.56c0.044,0.302,0.188,0.587,0.47,0.773
		c0.103,0.067,0.208,0.127,0.312,0.193c-0.167,0.338-0.197,0.751,0.025,1.088c2.594,3.929,2.015,10.578,1.021,15.243
		c-0.283-0.004-0.551,0.144-0.692,0.555c-4.325,12.608-14.76,21.421-22.449,31.91c-8.414,11.479-18.869,21.13-27.849,32.101
		c-0.479-0.886-1.6-0.266-1.44,0.761c2.042,13.217,5.066,26.271,7.04,39.517c2.04,13.69,3.729,27.429,5.684,41.131
		c1.676,11.736,3.868,23.351,4.997,35.155c0.833,8.711,1.551,18.705,6.732,26.096c0.004,0.006,0.01,0.01,0.014,0.016
		c2.402,4.782,6.131,8.925,9.507,13.021c4.092,4.966,8.411,9.729,13.086,14.15c4.308,4.073,9.087,7.321,13.876,10.771
		c4.601,3.315,8.776,7.048,14.056,9.284c10.771,4.561,23.047-4.445,31.649-9.979c11.101-7.139,20.874-16.06,32.157-22.956
		c1.299-0.793,0.2-3.084-1.249-2.292c-0.298,0.162-0.59,0.335-0.885,0.501c-0.004-0.033-0.001-0.065-0.006-0.099
		c-0.943-6.373,2.641-13.492,4.192-19.594c1.812-7.129,2.986-14.457,3.722-21.772c1.455-14.511,0.025-29.104,0.193-43.645
		c0.059-5.072,0.229-10.143,0.419-15.211c4.228,1.695,8.995,0.662,13.473,0.674c6.606,0.021,13.207,0.494,19.808,0.728
		c6.521,0.232,13.037,0.161,19.557,0.52c3.31,0.181,6.79,0.23,10.013,1.039c2.118,0.532,4.097,1.418,6.317,1.242
		C321.662,174.484,321.612,171.825,320.056,171.846z M193.498,17.67c0.002,0.043-0.008,0.083-0.001,0.128
		c0.723,4.729,1.036,9.425-0.253,14.063c-0.211-0.095-0.458-0.121-0.74-0.042c-10.406,2.914-24.457,6.263-34.552,0.727
		c-0.006-0.037,0.002-0.069-0.006-0.107c-0.981-4.508,0.448-9.044-0.023-13.588c4.587,3.519,13.34,3.294,18.393,3.322
		C179.942,22.192,191.391,22.41,193.498,17.67z M168.383,15.328c2.446-0.131,4.898-0.083,7.348-0.146
		c2.865-0.074,5.73-0.109,8.596-0.005c1.555,0.057,3.107,0.184,4.641,0.442c0.555,0.093,1.094,0.241,1.632,0.403
		c0.897,0.271,0.983,0.129,0.557,0.535c-3.697,3.509-11.928,2.961-16.571,2.892c-3.315-0.05-6.64-0.336-9.904-0.924
		c-1.662-0.299-4.024-0.672-5.669-1.651C161.344,15.294,166.196,15.445,168.383,15.328z M137.378,84.482
		c7.198-9.849,18.211-18.707,21.513-30.887c0.46,0.049,0.95-0.191,1.164-0.87c1.382-4.383,2.036-12.027-0.315-16.691
		c9.33,4.149,21.727,1.587,31.344-1.032c0.452,5.708,0.489,11.866,1.797,17.414c0.128,0.542,0.508,0.782,0.903,0.803
		c1.91,3.776,6.047,6.418,9.413,8.68c5.125,3.444,10.653,6.239,15.73,9.755c10.33,7.153,22.238,15.626,28.514,26.832
		c-0.437,0.221-0.749,0.897-0.512,1.501c1.271,3.222,1.302,6.64,1.267,10.049c-0.037,3.542,0.255,7.032,0.449,10.566
		c0.349,6.313,0.547,12.661,0.652,18.99c-0.272-0.073-0.565-0.044-0.812,0.09c0.001-0.221-0.044-0.45-0.163-0.674
		c-1.735-3.24-2.984-6.915-5.223-9.857c-2.695-3.547-6.444-5.801-10.338-7.853c-9.288-4.896-19.396-8.898-29.227-12.558
		c-9.577-3.566-19.503-6.465-29.787-5.012c-2.434,0.344-4.807,0.928-7.129,1.682c0.493-3.157,1.022-6.317,1.602-9.491
		c2.026-11.088,3.891-22.392,3.463-33.701c-0.008-0.244-0.308-0.229-0.319,0.008c-0.617,11.713-2.806,23.095-5.095,34.572
		c-0.616,3.096-1.274,6.236-1.896,9.401c-5.778,2.17-11.243,5.31-16.495,8.426c-8.598,5.103-16.973,10.716-24.83,16.9
		c-1.037,0.817-7.198,5.611-10.049,9.689c-1.224-7.781-2.691-15.556-4.916-23.004c0.103-0.061,0.207-0.134,0.309-0.238
		C118.654,107.529,128.739,96.306,137.378,84.482z M239.426,152.947c-5.821,2.288-11.551,4.043-17.182,6.86
		c-7.979,3.989-15.773,8.319-24.191,11.34c-8.64,3.101-19.344,5.877-28.22,2.681c-7.43-2.678-14.355-6.745-21.597-9.891
		c-3.646-1.583-7.28-3.187-10.895-4.839c-5.026-2.298-10.026-4.668-14.888-7.3c-0.912-0.494-7.507-3.677-8.257-5.339
		c0.075-0.224,0.062-0.49-0.049-0.7c-0.026-0.369-0.275-0.682-0.581-0.829c-0.021-0.144-0.043-0.287-0.064-0.432
		c0.397-3.727,14.465-13.749,16.085-14.918c6.981-5.04,14.213-9.706,21.643-14.052c4.051-2.369,8.218-4.583,12.565-6.3
		c-1.288,6.985-2.25,14.064-1.998,21.042c0.05,1.401,1.747,1.287,1.852-0.045c0.593-7.385,1.464-14.633,2.537-21.88
		c2.843-0.981,5.764-1.733,8.783-2.154c9.595-1.338,19.12,1.981,28.012,5.206c9.318,3.379,18.571,7.417,27.501,11.713
		c3.829,1.841,7.663,4.029,10.451,7.29c2.43,2.843,3.634,6.783,5.402,10.036c0.433,0.795,1.13,0.767,1.614,0.367
		C248.667,147.511,245.381,150.606,239.426,152.947z M247.324,234.09c-0.926,6.812-2.292,13.573-4.152,20.19
		c-1.592,5.674-4.015,11.168-3.127,17.152c0.036,0.236,0.107,0.425,0.204,0.571c-9.105,5.532-17.142,12.782-25.819,18.919
		c-4.53,3.207-9.344,6.086-14.198,8.774c-5.833,3.23-12.354,5.474-18.899,3.14c-5.042-1.797-9.267-5.878-13.498-9.013
		c-4.933-3.656-9.841-6.988-14.334-11.228c-4.363-4.118-8.348-8.64-12.216-13.218c-3.036-3.594-5.805-7.654-9.299-10.859
		c0.485-0.368,0.734-1.07,0.293-1.74c-5.318-8.097-5.78-18.524-6.668-27.887c-1.042-10.979-3.258-21.81-4.84-32.72
		c-1.916-13.209-3.583-26.453-5.522-39.658c-0.357-2.436-0.706-4.894-1.061-7.362c0.896,0.801,1.949,1.472,2.678,1.971
		c4.772,3.271,10.116,5.775,15.313,8.285c4.64,2.242,9.346,4.35,14.064,6.424c8.145,3.58,15.954,8.031,24.328,11.063
		c8.6,3.115,19.89-0.339,28.181-3.129c9.675-3.254,18.531-8.589,27.678-13.03c6.854-3.328,19.111-5.172,22.92-12.17
		c-0.132,13.361-1.106,26.709-1.208,40.072C248.024,203.839,249.381,218.953,247.324,234.09z"/>
</g>
</svg>
