<?xml version="1.0" encoding="utf-8"?>
<!-- Generator: Adobe Illustrator 15.1.0, SVG Export Plug-In . SVG Version: 6.00 Build 0)  -->
<!DOCTYPE svg PUBLIC "-//W3C//DTD SVG 1.1//EN" "http://www.w3.org/Graphics/SVG/1.1/DTD/svg11.dtd">
<svg version="1.1" id="Layer_1" xmlns="http://www.w3.org/2000/svg" xmlns:xlink="http://www.w3.org/1999/xlink" x="0px" y="0px"
	 width="325.984px" height="296.641px" viewBox="0 0 325.984 296.641" enable-background="new 0 0 325.984 296.641"
	 xml:space="preserve">
<path d="M193.742,27.672c-2.808,7.87,4.065,14.188,11.068,16.279c1.211,0.362,1.436-1.442,0.676-2.041
	c-2.443-1.927-5.547-2.71-7.875-4.882c-2.543-2.371-2.783-6.111-3.48-9.307C194.09,27.536,193.815,27.466,193.742,27.672
	L193.742,27.672z"/>
<path d="M201.309,36.751c-0.344,3.934,3.827,8.559,7.103,10.203c1.165,0.586,1.83-1.208,0.87-1.853
	c-3.364-2.259-5.729-4.872-7.521-8.505C201.621,36.312,201.331,36.519,201.309,36.751L201.309,36.751z"/>
<path d="M222.426,39.838c-3.67,0.581-6.706,3.465-9.993,5.082c-3.457,1.702-7.17,2.84-10.301,5.148
	c-1.126,0.83-0.21,2.982,1.163,2.197c6.532-3.739,14.167-5.879,19.487-11.49C223.036,40.508,222.884,39.767,222.426,39.838
	L222.426,39.838z"/>
<path d="M202.522,50.408c-6.634,0.825-13.572,2.03-19.519,5.238c-2.995,1.617-5.491,3.513-7.771,6.028
	c-2.122,2.341-6.009,3.916-7.521,6.736c-2.061,3.844-0.938,8.694,4.037,9.205c3.417,0.351,6.576-0.704,9.765-1.822
	c4.633-1.624,9.189-2.029,14.056-2.289c7.922-0.42,15.137-3.22,23.091-2.909c7.86,0.307,14.841,4.346,21.912,7.355
	c7.331,3.12,15.792,4.052,23.673,3.127c4.359-0.511,8.608-1.447,13.003-0.71c4.226,0.708,8.006,3.161,11.716,5.153
	c1.523,0.818,2.618-1.593,1.218-2.405c-5.185-3.007-10.325-5.699-16.432-5.883c-3.647-0.11-7.334,0.758-10.94,1.178
	c-3.851,0.45-7.855,0.113-11.685-0.381c-6.804-0.877-12.799-4.043-19.009-6.728c-6.475-2.799-13.045-3.882-20.083-3.419
	c-3.455,0.227-6.638,1.783-10.036,2.355c-3.469,0.583-7.07,0.572-10.574,0.764c-3.246,0.178-6.341,0.775-9.43,1.783
	c-3.525,1.152-7.122,2.852-10.908,1.941c-6.564-1.58,2.249-7.79,4.063-9.311c2.434-2.04,4.193-4.474,6.919-6.239
	c6.188-4.009,13.72-5.021,20.754-6.635C203.838,52.308,203.602,50.273,202.522,50.408L202.522,50.408z"/>
<path d="M198.383,40.398c-0.583,0.292-0.932,0.876-1.486,1.241c-1.203,0.795-2.77,1.16-4.146,1.517
	c-2.696,0.7-5.817,1.32-8.633,1.098c-1.433-0.113-1.332,2.391,0.062,2.552c2.286,0.263,18.003-1.835,14.865-6.219
	C198.916,40.408,198.589,40.295,198.383,40.398L198.383,40.398z"/>
<path d="M185.589,46.708c-0.197,2.442-1.735,4.07-2.877,6.108c-0.509,0.907,0.618,2.079,1.414,1.223
	c1.732-1.858,3.58-4.963,2.859-7.588C186.719,45.479,185.657,45.854,185.589,46.708L185.589,46.708z"/>
<path d="M202.595,43.307c-1.155,1.887-2.599,3.449-4.049,5.104c-0.669,0.765,0.249,2.537,1.185,1.71
	c1.885-1.667,3.585-3.712,4.159-6.212C204.088,43.049,203.079,42.521,202.595,43.307L202.595,43.307z"/>
<path d="M193.882,26.773c-3.706,7.09-9.389,11.747-17.022,14.18c-1.359,0.434-0.807,2.993,0.655,2.525
	c7.485-2.399,16.031-7.827,17.514-16.167C195.156,26.585,194.284,26.004,193.882,26.773L193.882,26.773z"/>
<path d="M175.337,38.739c0.014,3.119,0.584,5.586-0.579,8.644c-0.976,2.57-2.838,4.614-4.388,6.83
	c-0.537,0.767,0.23,2.606,1.181,1.71c3.756-3.539,9.306-12.888,4.069-17.386C175.482,38.417,175.337,38.613,175.337,38.739
	L175.337,38.739z"/>
<path d="M170.525,55.239c-2.784,2.997-4.746,6.365-8.21,8.699c-1.292,0.871-2.842,1.427-4.37,1.698
	c-2.601,0.461-2.822-0.877-3.584-2.951c-0.239-0.653-1.004-0.876-1.367-0.176c-2.194,4.222,2.579,6.158,5.922,5.531
	c6.1-1.143,10.107-6.814,12.407-12.115C171.547,55.41,170.993,54.735,170.525,55.239L170.525,55.239z"/>
<path d="M153.823,63.247c-0.107-2.839,1.813-5.476,3.152-7.854c1.559-2.771,2.463-5.878,3.412-8.896
	c1.175-3.744,2.502-7.62,4.163-11.177c1.365-2.924,4.02-4.959,6.226-7.208c0.764-0.777-0.262-2.674-1.239-1.819
	c-2.299,2.013-4.541,4.102-6.176,6.704c-2.128,3.389-3.135,7.708-4.459,11.461c-1.388,3.937-2.498,7.733-4.539,11.4
	c-1.291,2.318-2.798,4.96-2.179,7.691C152.432,64.645,153.864,64.294,153.823,63.247L153.823,63.247z"/>
<path d="M170.447,27.393c3.654-2.479,7.343-4.584,11.264-6.631c4.63-2.417,8.882-5.675,13.284-8.484
	c4.745-3.027,9.771-7.398,15.782-6.014c5.08,1.169,10.098,4.118,14.554,6.715c1.012,0.59,1.737-1,1.03-1.701
	c-3.555-3.523-9.307-5.735-14.002-7.263c-5.137-1.67-9.357,0.26-13.703,2.937c-5.729,3.528-11.089,7.694-16.882,11.1
	c-4.143,2.434-9.691,4.061-11.918,8.67C169.679,27.088,170.026,27.679,170.447,27.393L170.447,27.393z"/>
<path d="M225.111,11.775c1.915,4.041,7.362,4.721,11.161,5.976c7.074,2.336,14.304,4.175,21.43,6.334
	c6.867,2.083,13.616,4.528,20.539,6.434c3.489,0.961,7.027,1.68,10.599,2.262c3.267,0.533,6.372,1.694,9.714,1.695
	c1.207,0,1.395-2.192,0.219-2.387c-13.025-2.163-25.406-5.739-37.967-9.729c-6.601-2.097-13.314-3.827-19.942-5.832
	c-5.157-1.561-10.546-2.694-15.265-5.355C225.209,10.952,224.96,11.456,225.111,11.775L225.111,11.775z"/>
<path d="M298.151,33.119c0.276,2.23-0.837,4.905-1.406,7.025c-0.983,3.67-2.162,7.277-3.32,10.895
	c-2.619,8.174-3.152,16.54-3.664,25.051c-0.535,8.891-1.253,17.625-1.379,26.543c-0.105,7.508,0.27,16.245-1.949,23.457
	c-0.489,1.589,1.787,2.323,2.302,0.662c2.089-6.729,1.635-14.428,1.923-21.406c0.192-4.621,0.059-9.253,0.197-13.876
	c0.143-4.683,0.799-9.344,1.094-14.021c0.617-9.769,1.405-18.909,4.423-28.266c1.077-3.341,2.049-6.725,2.87-10.139
	c0.453-1.877,1.244-4.324,0.612-6.247C299.5,31.722,298.006,31.945,298.151,33.119L298.151,33.119z"/>
<path d="M286.145,127.855c1.694,3.851,8.523,3.456,11.937,3.7c6.651,0.475,14.291,0.778,20.79-0.879
	c1.139-0.289,0.801-2.216-0.32-2.259c-5.445-0.208-10.981,0.671-16.464,0.604c-4.357-0.054-11.368,0.562-14.989-2.338
	C286.37,126.101,285.907,127.313,286.145,127.855L286.145,127.855z"/>
<path d="M299.131,34.193c2.749,0.911,5.393,0.049,8.209,0.027c-0.363-0.42-0.728-0.841-1.092-1.262
	C306.574,39,305.3,45.18,304.62,51.172c-0.704,6.216-1.402,12.484-1.127,18.746c0.056,1.275,1.56,1.166,1.664-0.041
	c0.564-6.499,0.986-12.998,1.713-19.482c0.646-5.756,1.837-11.676,1.499-17.487c-0.034-0.605-0.409-1.268-1.092-1.262
	c-2.599,0.021-5.106,0.915-7.704,0.357C298.3,31.729,297.996,33.819,299.131,34.193L299.131,34.193z"/>
<path d="M308.2,33.772c1.801,0.755,3.763,0.167,5.592-0.237c2.971-0.656,5.236-1.133,8.21-0.313c1.238,0.34,1.451-1.516,0.68-2.127
	c-1.833-1.451-4.223-1.104-6.373-0.685c-2.643,0.514-5.667,1.275-8.134,2.35C307.746,32.948,307.784,33.599,308.2,33.772
	L308.2,33.772z"/>
<path d="M120.997,17.531c2.391,1.902,5.342,3.414,8.086,4.749c3.833,1.862,7.442,4.128,11.096,6.309
	c3.53,2.104,7.307,3.72,10.933,5.644c3.436,1.824,6.393,4.52,9.775,6.46c1.396,0.802,2.369-1.521,1.104-2.261
	c-3.381-1.976-6.46-4.403-9.784-6.469c-3.865-2.404-8.235-4.015-12.165-6.349c-3.584-2.129-7.135-4.28-10.919-6.042
	c-2.598-1.21-5.064-3.317-8.062-2.767C120.714,16.868,120.799,17.374,120.997,17.531L120.997,17.531z"/>
<path d="M110.008,41.595c3.491,1.382,7.117,2.076,10.534,3.703c3.504,1.668,6.647,3.996,9.892,6.096
	c3.506,2.269,7.322,4.035,10.887,6.211c3.423,2.091,6.687,4.488,10.291,6.266c1.4,0.69,2.361-1.488,1.09-2.201
	c-3.513-1.97-6.794-4.294-10.263-6.333c-4.014-2.36-8.197-4.421-12.118-6.938c-5.566-3.575-13.285-9.515-20.322-7.218
	C109.803,41.244,109.84,41.529,110.008,41.595L110.008,41.595z"/>
<path d="M174.491,50.031c1.313,1.513,2.922,2.632,4.624,3.668c1.713,1.044,3.432,2.388,5.215,3.267
	c1.2,0.591,1.822-0.939,1.168-1.814c-1.034-1.385-2.871-2.217-4.35-3.052c-1.897-1.071-3.771-2.142-5.244-3.777
	C174.888,47.197,173.627,49.034,174.491,50.031L174.491,50.031z"/>
<path d="M158.691,67.786c1.141,1.042,2.445,1.812,3.815,2.515c1.293,0.665,2.958,1.823,4.427,1.902
	c0.882,0.046,0.99-1.172,0.567-1.686c-0.82-0.995-2.484-1.427-3.635-1.946c-1.451-0.653-2.922-1.343-4.167-2.347
	C158.85,65.539,157.984,67.14,158.691,67.786L158.691,67.786z"/>
<path d="M176.592,76.585c3.978,2.161,7.698,4.386,11.502,6.855c4.549,2.953,9.863,4.481,14.409,7.474
	c1.33,0.876,2.29-1.462,1.086-2.251c-4.805-3.147-10.372-4.82-15.189-7.934c-3.222-2.082-7.439-5.869-11.56-5.334
	C176.299,75.466,176.073,76.303,176.592,76.585L176.592,76.585z"/>
<path d="M207.147,70.885c0.869,1.166,2.145,1.92,3.374,2.655c1.235,0.738,2.392,1.85,3.671,2.453
	c0.962,0.453,1.756-0.651,1.263-1.53c-0.742-1.324-2.247-2.109-3.516-2.864c-1.325-0.79-2.655-1.624-4.064-2.252
	C206.969,68.943,206.776,70.384,207.147,70.885L207.147,70.885z"/>
<path d="M214.112,75.499c1.703,6.426-4.076,13.919-10.769,13.926c-1.565,0.002-1.498,2.709,0.066,2.716
	c7.972,0.033,15.829-9.846,12.341-17.486C215.237,73.532,213.844,74.49,214.112,75.499L214.112,75.499z"/>
<path d="M122.379,15.791c-8.661-1.881-21.113,1.072-23.966,10.732c-1.319,4.464,2.498,8.482,3.762,12.418
	c0.523,1.632,0.282,6.26,3.018,6.176c3.24-0.099,5.883-2.621,8.839-3.65c5.144-1.792,9.974-1.767,14.307-5.522
	c5.783-5.013,4.761-13.79-2.063-17.283c-1.309-0.67-1.876,1.244-0.948,2.016c2.806,2.335,5.218,4.635,4.536,8.583
	c-0.673,3.9-4.801,6.43-8.138,7.739c-2.82,1.106-5.946,1.146-8.797,2.136c-2.202,0.764-4.155,2.217-6.328,3.082
	c-2.108,0.839-2.167-3.735-2.604-5.11c-1.098-3.454-3.969-6.051-3.395-9.942c0.595-4.035,5.913-6.779,9.222-8.173
	c3.825-1.612,8.065-1.765,12.106-1.078C123.188,18.129,123.565,16.049,122.379,15.791L122.379,15.791z"/>
<path d="M111.206,20.351c-3.642-0.04-7.313,2.102-8.391,5.807c-1.547,5.318,3.214,8.44,3.39,13.43
	c0.024,0.692,0.872,1.63,1.577,0.99c5.534-5.028,20.805-3.228,19.073-14.707c-0.595-3.941-4.092-5.799-7.671-6.638
	c-3.038-0.711-8.677-1.226-11.062,1.257c-0.541,0.565-0.119,1.594,0.628,1.647c2.598,0.185,5.295-0.899,8.011-0.744
	c3.335,0.19,7.927,1.542,8.069,5.519c0.309,8.586-13.461,7.375-18.141,11.636c0.526,0.33,1.051,0.66,1.576,0.99
	c-0.103-2.847-1.396-5.002-2.747-7.441c-2.844-5.135,1.454-8.949,5.774-11.13C111.552,20.837,111.549,20.355,111.206,20.351
	L111.206,20.351z"/>
<path d="M7.609,129.526c-7.312-6.086,4.75-12.95,9.53-15.757c8.847-5.199,18.689-7.599,28.715-9.35
	c10.698-1.868,21.274-3.741,31.872-6.149c12.062-2.74,24.221-4.181,36.577-4.582c11.885-0.384,23.951-0.056,35.783,1.151
	c10.992,1.121,21.772,3.745,32.523,6.19c7.382,1.679,15.203,3.557,21.292,8.284c7.289,5.66,4.951,14.075-1.193,19.328
	c-4.711,4.026-10.672,6.591-16.448,8.665c-8.156,2.927-16.616,5.151-24.87,7.796c-9.542,3.059-19.118,6-28.907,8.169
	c-9.811,2.175-19.866,3.062-29.851,4.05c-17.24,1.706-34.877,2.551-51.842-1.629c-8.591-2.116-16.68-5.8-23.962-10.81
	c-3.211-2.208-6.167-4.779-9.32-7.072c-3.37-2.451-7.035-4.887-9.6-8.221c-1.054-1.37-2.449,0.782-1.583,1.952
	c2.218,2.995,5.331,5.233,8.292,7.438c3.701,2.757,7.306,5.667,11.061,8.344c7.677,5.472,16.536,9.103,25.653,11.346
	c18.664,4.593,38.351,2.836,57.236,0.829c10.568-1.125,20.94-2.541,31.261-5.143c11.061-2.788,21.861-6.522,32.723-9.97
	c12.507-3.969,29.65-7.282,36.761-19.759c2.946-5.171,1.521-11.49-2.262-15.774c-4.643-5.259-12.426-7.513-18.951-9.238
	c-20.538-5.43-41.117-8.338-62.351-8.678c-11.981-0.191-23.958,0.457-35.812,2.239c-11.535,1.736-22.75,5.125-34.268,6.991
	c-16.976,2.75-34.792,5.488-48.138,17.327c-4.76,4.222-6.421,9.803-0.906,14.11C7.783,132.511,8.582,130.336,7.609,129.526
	L7.609,129.526z"/>
<path d="M18.646,139.623c1.057-5.66,7.339-8.793,12.04-11.052c5.951-2.857,12.024-4.701,18.501-5.974
	c17.126-3.366,34.124-5.408,51.557-6.45c17.072-1.021,33.804-0.326,50.787,1.553c8.673,0.959,17.201,2.008,25.428,5.066
	c3.881,1.443,8.094,3.294,11.216,6.085c2.097,1.875,3.743,4.191,6.35,5.407c1.688,0.788,2.362-1.839,0.845-2.545
	c-2.966-1.377-4.915-4.479-7.524-6.407c-3.071-2.269-6.811-3.793-10.333-5.201c-7.831-3.131-16.289-4.059-24.6-4.981
	c-18.967-2.108-37.537-2.693-56.59-1.414c-17.9,1.204-35.495,3.41-52.987,7.436c-5.894,1.356-11.543,3.878-16.846,6.76
	c-4.337,2.358-9.158,5.874-9.685,11.174C16.676,140.359,18.374,141.079,18.646,139.623L18.646,139.623z"/>
<path d="M72.441,125.821c2.507,7.635,1.912,16.23,5.177,23.583c0.413,0.928,1.468,0.11,1.297-0.679
	c-1.668-7.704-2.383-15.972-5.178-23.36C73.375,124.411,72.136,124.892,72.441,125.821L72.441,125.821z"/>
<path d="M94.672,123.249c-1.396,9.009-0.763,18.649,0.556,27.632c0.151,1.024,1.544,0.673,1.505-0.277
	c-0.372-9.122-1.251-18.033-0.784-27.181C95.991,122.596,94.804,122.394,94.672,123.249L94.672,123.249z"/>
<path d="M144.275,122.622c-5.434,5.352-8.826,12.698-12.148,19.456c-0.437,0.89,0.695,1.81,1.272,0.845
	c3.905-6.528,6.919-13.355,11.721-19.332C145.593,123.001,144.907,122,144.275,122.622L144.275,122.622z"/>
<path d="M160.086,127.195c-5.015,6.85-13.716,12.818-16.456,21.061c-0.207,0.624,0.451,1.687,1.042,0.915
	c2.692-3.514,4.892-7.364,7.667-10.855c2.789-3.509,5.635-6.947,8.133-10.677C160.657,127.362,160.33,126.862,160.086,127.195
	L160.086,127.195z"/>
<path d="M2.855,124.124c-0.093,6.032,1.668,11.724,2.836,17.587c1.264,6.347,1.006,12.882,2.376,19.217
	c0.348,1.609,2.374,0.757,2.076-0.721c-1.185-5.912-1.229-11.954-2.166-17.902c-0.964-6.131-3.124-11.963-3.23-18.229
	C4.722,122.656,2.878,122.717,2.855,124.124L2.855,124.124z"/>
<path d="M209.692,118.009c-1.997,1.771-2.427,4.16-2.924,6.692c-0.779,3.963-2.121,7.863-3.009,11.816
	c-0.974,4.323-1.85,8.668-2.743,13.009c-0.713,3.456-1.852,7.014-1.54,10.571c0.139,1.597,2.262,1.579,2.165-0.052
	c-0.193-3.329,0.837-6.643,1.479-9.885c0.774-3.915,1.502-7.861,2.411-11.747c0.792-3.39,1.495-6.792,2.441-10.145
	c0.854-3.03,0.975-6.524,2.557-9.282C210.802,118.509,210.243,117.521,209.692,118.009L209.692,118.009z"/>
<path d="M7.832,160.401c0.507,2.793,1.129,4.79,3.307,6.632c2.755,2.33,6.947,3.764,10.174,5.293
	c7.859,3.721,16.661,5.492,24.915,8.195c16.983,5.559,35.066,9.541,52.959,10.434c17.405,0.869,35.709-2.148,52.427-6.836
	c9.006-2.525,17.433-6.211,25.833-10.279c7.439-3.604,15.771-6.234,22.41-11.255c1.185-0.896,0.122-3.388-1.246-2.375
	c-6.518,4.823-14.603,7.431-21.861,10.951c-7.559,3.664-15.115,7.01-23.149,9.5c-16.163,5.012-33.502,7.508-50.418,7.633
	c-8.604,0.064-17.189-1.242-25.63-2.781c-8.123-1.482-16.225-3.139-24.134-5.521c-8-2.412-15.855-5.203-23.946-7.32
	c-4.15-1.086-8.021-3.119-11.866-4.966c-3.882-1.866-6.821-3.398-7.89-7.963C9.368,158.257,7.59,159.062,7.832,160.401
	L7.832,160.401z"/>
<path d="M10.821,166.034c-4.145,8.325,1.844,19.866,4.937,27.665c2.278,5.75,5.021,11.311,8.227,16.598
	c2.437,4.021,5.191,8.242,9.104,10.955c1.997,1.385,5.616,1.93,6.991-0.609c1.723-3.178,0.525-6.955-0.666-10.09
	c-2.034-5.355-4.969-10.289-6.556-15.824c-0.878-3.062-1.147-6.461,0.235-9.406c1.113-2.375,3.972-3.791,6.123-5.051
	c1.254-0.734,0.206-3.092-1.208-2.275c-2.784,1.605-5.265,3.221-6.942,6.023c-1.803,3.014-1.304,7.053-0.688,10.305
	c0.851,4.49,3.114,8.758,5.027,12.861c0.742,1.59,6.089,11.965,1.546,12.664c-4.322,0.664-8.435-6.906-10.341-9.814
	c-2.899-4.426-5.255-9.197-7.402-14.021c-2.049-4.605-3.78-9.371-5.431-14.131c-1.618-4.67-3.097-9.996-1.413-14.845
	C12.733,165.973,11.441,164.789,10.821,166.034L10.821,166.034z"/>
<path d="M34.844,182.412c9.117,6.256,15.933,14.801,23.777,22.451c7.633,7.443,17.052,12.734,24.593,20.301
	c1.183,1.186,2.69-0.787,1.628-1.887c-7.717-7.98-17.576-13.438-25.513-21.176c-7.688-7.498-14.239-16.02-23.584-21.605
	C34.58,179.801,33.872,181.744,34.844,182.412L34.844,182.412z"/>
<path d="M134.431,223.514c1.823,0.107,3.294-1.08,4.543-2.307c2.511-2.465,4.792-4.992,7.527-7.234
	c6.12-5.016,11.928-10.143,17.642-15.623c5.63-5.4,11.422-10.656,16.945-16.162c5.948-5.926,11.625-12.062,17.889-17.668
	c0.99-0.885,0.111-3.286-1.147-2.267c-5.625,4.552-10.502,10.009-15.534,15.185c-5.894,6.062-12.199,11.742-18.284,17.611
	c-5.726,5.521-11.424,10.885-17.632,15.861c-4.452,3.57-8.276,7.75-12.239,11.834C133.891,223.002,134.083,223.494,134.431,223.514
	L134.431,223.514z"/>
<path d="M83.349,224.246c0.087,4.451,1.368,8.625,2.336,12.939c1.133,5.049,1.388,10.264,1.762,15.406
	c0.113,1.549,2.049,1.484,2.116-0.053c0.195-4.535-0.625-9.131-1.322-13.604c-0.775-4.959-2.63-9.695-2.867-14.74
	C85.301,222.689,83.32,222.732,83.349,224.246L83.349,224.246z"/>
<path d="M133.765,222.318c-1.731,9.5,1.548,19.348,0.833,28.949c-0.125,1.676,2.19,1.6,2.298-0.057
	c0.619-9.494-1.085-19.172-1.464-28.668C135.389,221.492,133.97,221.186,133.765,222.318L133.765,222.318z"/>
<path d="M86.321,237.275c-3.642,0.025-9.615,1.111-12.019,4.199c-2.478,3.182-0.59,6.355,2.08,8.707
	c3.75,3.299,9.141,4.594,13.855,5.777c6.501,1.631,13.318,2.295,20.007,2.084c6.499-0.207,12.928-1.615,19.197-3.246
	c4.142-1.076,8.091-2.76,11.501-5.383c2.211-1.699,4.441-4.527,3.842-7.512c-0.838-4.166-5.431-7.211-9.416-7.771
	c-1.602-0.227-2.087,2.443-0.569,2.723c3.016,0.555,8.862,3.316,7.284,7.277c-1.096,2.75-4.715,4.555-7.205,5.768
	c-7.011,3.412-15.666,4.645-23.339,5.24c-8.655,0.674-17.497-0.699-25.747-3.285c-3.676-1.152-7.672-2.645-9.923-5.98
	c-2.686-3.98,8.792-5.916,10.511-6.197C87.67,239.465,87.704,237.266,86.321,237.275L86.321,237.275z"/>
<path d="M73.487,247.105c0.027,2.324,0.923,4.686,1.595,6.895c0.876,2.879,1.618,5.727,2.17,8.684
	c0.248,1.328,2.056,0.893,1.992-0.363c-0.14-2.768-1.006-5.441-1.85-8.064c-0.784-2.439-1.273-5.691-3.181-7.527
	C73.894,246.422,73.483,246.701,73.487,247.105L73.487,247.105z"/>
<path d="M77.344,263.188c3.368,3.916,9.127,5.074,13.873,6.41c7.453,2.1,15.723,2.402,23.373,1.516
	c7.844-0.91,15.399-3.488,22.807-6.104c3.769-1.33,9.614-3.521,11.34-7.451c0.648-1.473-1.374-3.043-2.109-1.367
	c-1.729,3.934-8.978,5.801-12.636,7.068c-6.789,2.352-13.632,4.387-20.789,5.238c-11.042,1.314-25.546-0.271-34.918-6.807
	C77.386,261.066,76.793,262.549,77.344,263.188L77.344,263.188z"/>
<path d="M142.904,241.811c0.049,2.293,0.636,4.562,1.03,6.818c0.5,2.854,0.887,5.877,1.921,8.59c0.568,1.49,2.197,0.732,1.995-0.688
	c-0.361-2.541-1.057-5.055-1.55-7.578c-0.5-2.564-0.825-5.264-1.919-7.652C143.972,240.41,142.887,241.004,142.904,241.811
	L142.904,241.811z"/>
<path d="M76.583,258.633c8.296,7.748,22.542,7.945,33.218,7.529c6.827-0.266,13.58-2.068,20.063-4.117
	c4.538-1.436,10.505-2.916,13.462-6.955c0.812-1.107-0.432-2.893-1.568-1.734c-3.356,3.424-8.143,4.66-12.562,6.154
	c-6.267,2.117-12.859,3.607-19.46,4.014c-6.712,0.416-13.664-0.205-20.256-1.457c-3.065-0.58-6.052-1.568-8.802-3.047
	c-1.1-0.592-2.185-1.561-3.444-1.787C76.499,257.102,76.037,258.123,76.583,258.633L76.583,258.633z"/>
<path d="M75.865,253.193c1.125,4.793,9.167,6.34,13.132,7.201c8.7,1.887,17.743,1.41,26.554,0.652
	c1.331-0.113,1.292-2.389-0.059-2.377c-8.147,0.07-16.119,1.096-24.235-0.246c-2.525-0.418-5.013-0.994-7.453-1.764
	c-2.883-0.91-4.813-2.674-7.381-3.994C76.067,252.48,75.784,252.846,75.865,253.193L75.865,253.193z"/>
<path d="M84.102,223.576c-10.648-1.963-21.607-0.582-32.165,1.324c-5.104,0.922-10.175,1.992-15.138,3.512
	c-4.204,1.285-9.538,3.09-12.773,6.223c-5.937,5.748-2.227,13.83-0.165,20.486c1.774,5.727,2.649,11.693,3.682,17.58
	c0.732,4.172,1.117,8.783,3.947,12.17c1.128,1.35,2.541-0.76,1.643-1.953c-2.566-3.412-2.763-8.141-3.474-12.186
	c-0.892-5.072-1.819-10.092-3.121-15.08c-0.849-3.256-2.124-6.379-2.934-9.65c-1.252-5.051,0.329-8.51,4.788-11.102
	c8.175-4.752,18.29-6.338,27.48-7.861c9.274-1.537,18.656-2.113,28.021-1.145C85.06,226.016,85.207,223.781,84.102,223.576
	L84.102,223.576z"/>
<path d="M20.802,241.975c0.967,14.312,1.265,28.748,1.416,43.109c0.018,1.666,2.285,1.602,2.285-0.057
	c0-7.684-0.717-15.344-0.75-23.025c-0.028-6.578,0.756-13.994-1.514-20.293C21.924,240.836,20.736,240.994,20.802,241.975
	L20.802,241.975z"/>
<path d="M136.761,221.727c8.877-0.021,18.554-2.188,27.331-0.205c3.79,0.857,6.182,4.303,8.368,7.213
	c2.827,3.764,5.629,7.547,8.52,11.264c5.495,7.064,11.66,13.57,17.007,20.758c5.671,7.625,10.646,15.979,15.446,24.172
	c0.879,1.498,2.934,0,2.101-1.404c-4.979-8.406-10.12-16.844-15.878-24.742c-5.834-8.002-12.748-15.156-18.818-22.973
	c-4.473-5.758-8.736-14.586-16.217-16.822c-3.849-1.15-8.399-0.553-12.345-0.527c-5.214,0.033-10.746-0.016-15.739,1.658
	C135.781,220.371,135.935,221.729,136.761,221.727L136.761,221.727z"/>
</svg>
