<?xml version="1.0" encoding="utf-8"?>
<!-- Generator: Adobe Illustrator 15.1.0, SVG Export Plug-In . SVG Version: 6.00 Build 0)  -->
<!DOCTYPE svg PUBLIC "-//W3C//DTD SVG 1.1//EN" "http://www.w3.org/Graphics/SVG/1.1/DTD/svg11.dtd">
<svg version="1.1" id="Layer_1" xmlns="http://www.w3.org/2000/svg" xmlns:xlink="http://www.w3.org/1999/xlink" x="0px" y="0px"
	 width="325.984px" height="310.724px" viewBox="0 0 325.984 310.724" enable-background="new 0 0 325.984 310.724"
	 xml:space="preserve">
<path d="M243.927,18.069c-0.918,11.731-2.085,23.445-2.938,35.182c-0.109,1.493,1.9,1.719,2.256,0.301
	c-0.192,0.768,1.207,0.768,1.928,1.008c1.232,0.41,2.424,0.973,3.596,1.523c2.377,1.117,4.691,2.372,6.984,3.651
	c2.043,1.14,3.96,2.476,6.002,3.614c1.146,0.639,2.555,1.193,3.864,1.291c0.823,0.062,4.696-0.714,5.062,0.105
	c0.615,1.387,2.49,0.2,2.025-1.065c-1.361-3.715-5.017-1.282-7.996-1.927c-3.371-0.729-7.004-3.889-10.128-5.569
	c-1.954-1.052-12.442-7.75-13.562-3.29c0.752,0.1,1.504,0.2,2.256,0.301c0.851-11.682,2.527-23.426,1.729-35.15
	C244.949,17.209,243.99,17.266,243.927,18.069L243.927,18.069z"/>
<path d="M271.888,53.883c-1.036,5.193-2.631,10.879-0.417,15.978c1.033,2.379,3.304,4.197,5.206,5.847
	c2.738,2.374,4.854,5.096,7.079,7.94c3.733,4.773,8.499,8.815,12.759,13.129c2.812,2.848,7.838,7.524,12.213,5.434
	c0.703-0.336,0.959-1.84-0.049-1.988c-5.271-0.775-8.298-3.069-11.988-6.887c-3.477-3.596-7.381-6.834-10.579-10.671
	c-1.839-2.206-3.448-4.605-5.431-6.687c-1.76-1.848-3.862-3.355-5.66-5.171c-4.24-4.28-2.335-11.387-1.961-16.766
	C273.114,53.276,272.042,53.119,271.888,53.883L271.888,53.883z"/>
<path d="M244.493,17.634c5.612-0.557,10.765-0.889,16.378-0.278c1.692,0.185,3.318,0.01,4.912-0.547
	c0.88-0.307,1.998,7.459,1.937,7.924c0.73,0.099,1.461,0.197,2.19,0.296c0.025-2.667,0.141-5.332,0.162-8
	c-0.456,0.435-0.912,0.869-1.368,1.304c2.803,0.834,5.96,3.103,7.412,5.633c1.115,1.941,1.38,4.246,2.521,6.197
	c0.663,1.135,2.162,0.205,1.766-0.938c-2.125-6.135-4.301-11.385-11.173-13.445c-0.822-0.246-1.361,0.588-1.368,1.304
	c-0.027,2.667-0.146,5.332-0.172,8c-0.014,1.396,1.995,1.784,2.19,0.296c0.307-2.344-0.567-11.398-4.065-11.261
	c-1.227,0.048-2.41,0.626-3.693,0.679c-2.191,0.09-4.449-0.434-6.631-0.604c-3.527-0.274-7.845,0.508-11.289,1.329
	C243.213,15.758,243.435,17.739,244.493,17.634L244.493,17.634z"/>
<path d="M272.726,18.739c3.64-0.798,7.286,0.759,10.605,2.09c3.307,1.326,6.603,2.36,10.1,3.087c8.752,1.82,17.801,1.546,26.6,3.124
	c1.536,0.276,1.957-2.356,0.537-2.635c-9.249-1.814-18.752-1.516-27.992-3.387c-6.436-1.304-13.704-6.539-20.369-4.312
	C271.119,17.069,271.545,18.999,272.726,18.739L272.726,18.739z"/>
<path d="M243.953,17.069c-1.504-1.34-3.281-1.633-5.236-1.872c-4.162-0.509-8.065-1.454-12.107-2.604
	c-8.673-2.47-17.387-4.795-26.311-6.092c-2.709-0.394-5.663-0.975-8.377-0.338c-3.543,0.832-6.345,3.087-8.994,5.484
	c-2.744,2.484-5.367,5.045-8.216,7.416c-2.288,1.906-4.373,3.961-5.751,6.628c-1.336,2.583-1.104,5.915,1.805,7.097
	c3.391,1.377,8.455-0.797,11.571-1.996c1.724-0.664,3.407-1.442,5.04-2.307c2.213-1.173,4.039-3.152,6.57-3.614
	c3.512-0.642,8.363,3.272,11.615,4.594c3.302,1.343,6.92,1.894,10.38,0.942c1.137-0.312,0.898-2.54-0.339-2.42
	c-7.214,0.696-12.122-2.795-18.508-5.368c-4.076-1.644-6.995,1.319-10.248,3.207c-3.051,1.771-6.512,3.039-9.902,3.968
	c-1.654,0.452-3.494,0.815-5.207,0.508c-2.847-0.51-0.236-4.348,0.643-5.49c1.595-2.074,3.844-3.679,5.84-5.344
	c2.383-1.989,4.529-4.248,6.83-6.33c2.716-2.455,5.646-4.33,9.388-4.492c3.204-0.14,6.638,0.623,9.805,1.111
	c7.328,1.127,14.698,3.441,21.83,5.444c3.003,0.843,6.136,1.972,9.249,2.304c2.378,0.253,5.535-0.149,7.521,1.378
	C243.835,19.645,244.74,17.772,243.953,17.069L243.953,17.069z"/>
<path d="M180.871,12.542c-3.902-0.967-8.411-1.062-11.808,1.251c-2.245,1.527-4.325,3.553-6.267,5.436
	c-2.789,2.704-9.945,9.578-5.277,13.624c1.277,1.108,2.679-0.96,1.561-1.928c-3.219-2.79,5.39-10.02,7.256-11.704
	c1.248-1.127,2.544-2.2,3.868-3.236c3.305-2.584,7.605-0.172,10.755-2.791C181.149,13.035,181.159,12.614,180.871,12.542
	L180.871,12.542z"/>
<path d="M168.125,25.216c-5.068-0.22-9.57,5.944-13.177,8.855c-2.405,1.942-5.05,3.45-7.927,4.558
	c-2.025,0.779-3.836,1.543-4.934,3.462c-0.346,0.603,0.191,1.651,0.95,1.38c4.585-1.637,9.202-4.206,13.085-7.158
	c2.284-1.736,4.293-3.854,6.459-5.732c1.908-1.654,4.156-2.815,5.759-4.789C168.502,25.593,168.402,25.229,168.125,25.216
	L168.125,25.216z"/>
<path d="M171.76,32.911c-0.058,3.25-1.031,6.331-1.419,9.538c-0.293,2.409,0.287,4.663,0.936,6.962
	c1.645,5.84,3.977,11.357,5.179,17.332c0.273,1.357,2.242,0.947,2.067-0.379c-0.695-5.271-2.664-10.223-4.367-15.228
	c-1.209-3.55-2.038-6.72-1.453-10.511c0.41-2.648,0.958-5.062,0.804-7.758C173.431,31.557,171.783,31.603,171.76,32.911
	L171.76,32.911z"/>
<path d="M141.912,41.07c-2.189,3.206-4.902,5.979-7.424,8.919c-2.92,3.404-4.93,7.485-7.377,11.217
	c-4.216,6.432-8.781,12.382-11.605,19.617c-2.605,6.674-2.812,13.846-1.435,20.816c0.905,4.579,3.036,8.76,3.536,13.439
	c0.417,3.895-1.48,7.589-0.963,11.506c0.217,1.639,2.533,1.617,2.312-0.057c-0.413-3.137,0.781-5.954,0.934-9.045
	c0.18-3.641-0.7-7.037-1.836-10.472c-2.755-8.327-3.582-16.493-0.59-24.909c2.655-7.466,7.689-13.665,11.982-20.207
	c2.217-3.38,4.06-6.957,6.635-10.096c2.477-3.021,5.178-5.771,7.273-9.091C144.013,41.667,142.771,39.813,141.912,41.07
	L141.912,41.07z"/>
<path d="M176.804,67.614c-1.766,3.215-1.978,7.156-2.705,10.712c-0.814,3.975-1.731,7.939-2.871,11.834
	c-2.336,7.982-6.805,15.153-11.68,21.808c-4.805,6.556-11.162,11.754-19.104,13.895c-6.232,1.68-12.451,0.171-17.474,5.111
	c-0.909,0.895,0.376,3.04,1.433,2.045c5.455-5.142,14.32-3.271,21.009-6.005c6.914-2.825,12.212-8.284,16.524-14.204
	c4.596-6.311,8.456-13.102,10.949-20.519c1.309-3.892,2.148-7.957,3.012-11.966c0.867-4.037,2.189-8.562,1.246-12.666
	C177.101,67.473,176.89,67.456,176.804,67.614L176.804,67.614z"/>
<path d="M121.751,123.032c-0.301,0.069-0.354,0.095-0.606,0.25c-0.84,0.519,0.273,1.984,0.857,0.954
	c3.211-5.659,2.109-14.383-0.182-20.13c-2.004-5.028-2.984-9.144-1.551-14.488c1.262-4.701,3.805-9.033,5.693-13.493
	c3.516-8.3,6.507-16.57,13.409-22.739c6.655-5.948,16.191-10.865,25.02-7.119c1.319,0.561,1.614-1.872,0.484-2.42
	c-7.845-3.801-16.455,0.084-23.071,4.639c-7.541,5.193-11.889,12.611-15.348,20.9c-3.438,8.24-8.869,16.881-9.029,26.006
	c-0.08,4.5,2.519,8.699,3.818,12.879c1.575,5.07,0.26,10.37-0.372,15.444c0.392-0.01,0.784-0.02,1.176-0.028
	c-0.026-0.156-0.052-0.312-0.079-0.468C121.969,123.096,121.872,123.002,121.751,123.032L121.751,123.032z"/>
<path d="M166.142,36.117c-0.883,2.356-2.453,5.148-1.998,7.733c0.182,1.031,1.438,0.856,1.658-0.04
	c0.27-1.093,0.327-2.218,0.619-3.316c0.332-1.249,0.774-2.466,1.105-3.716C167.757,35.913,166.511,35.132,166.142,36.117
	L166.142,36.117z"/>
<path d="M154.451,41.684c1.744-1.484,3.215-3.25,4.979-4.724c0.846-0.706,0.052-2.626-0.928-1.809
	c-1.923,1.605-3.598,3.698-4.454,6.069C153.969,41.442,154.16,41.932,154.451,41.684L154.451,41.684z"/>
<path d="M164.875,44.571c0.062,1.598,0.82,2.936,1.568,4.322c1.414,2.619,2.111,5.391,2.623,8.304
	c1.225,6.968,0.33,14.095-1.088,20.949c-1.405,6.785-3.24,13.45-5.664,19.942c-2.217,5.941-6.497,10.551-10.014,15.718
	c-0.821,1.206,0.715,3.222,1.666,1.832c3.418-4.99,7.424-9.495,9.863-15.091c2.822-6.477,4.413-13.546,5.953-20.41
	c1.548-6.9,2.26-13.74,1.625-20.795c-0.277-3.074-0.957-6.056-1.996-8.958c-0.782-2.184-2.666-3.839-3.38-6.03
	C165.79,43.609,164.845,43.789,164.875,44.571L164.875,44.571z"/>
<path d="M152.748,113.251c-5.354,10.503-18.691,8.63-28.303,11.143c-8.625,2.255-13.973,13.715-9.488,21.766
	c0.65,1.167,2.134,0.208,1.795-0.934c-1.66-5.578-0.987-12.375,3.828-16.215c3.658-2.916,9.154-3.003,13.585-3.476
	c7.642-0.816,17.102-3.324,20.021-11.343C154.549,113.194,153.337,112.096,152.748,113.251L152.748,113.251z"/>
<path d="M123.012,127.129c1.744,0.26,3.319,0.621,4.925,1.364c0.931,0.431,1.363-1.332,0.59-1.782
	c-1.609-0.938-3.611-0.991-5.409-0.747C122.574,126.039,122.406,127.04,123.012,127.129L123.012,127.129z"/>
<path d="M122.242,100.167c2.176,0.413,4.357,0.917,6.568,1.091c0.371,0.029,0.406-0.648,0.064-0.727
	c-2.154-0.496-4.389-0.671-6.581-0.93C122.01,99.569,121.972,100.116,122.242,100.167L122.242,100.167z"/>
<path d="M124.14,91.527c2.364,0.059,4.479,1.093,6.713,1.741c0.633,0.184,0.799-0.896,0.227-1.092
	c-2.26-0.771-4.539-1.496-6.955-1.259C123.787,90.951,123.799,91.518,124.14,91.527L124.14,91.527z"/>
<path d="M129.808,80.867c3.573,0.402,6.861,1.933,10.346,2.727c0.828,0.189,1.057-1.262,0.291-1.408
	c-3.56-0.683-6.977-2.114-10.652-1.939C129.439,80.262,129.474,80.829,129.808,80.867L129.808,80.867z"/>
<path d="M138.791,75.243c0.4,0.217,0.742,0.503,1.172,0.664c0.02,0.007,0.025-0.027,0.008-0.035c-0.43-0.163-0.764-0.45-1.16-0.67
	C138.785,75.188,138.769,75.231,138.791,75.243L138.791,75.243z"/>
<path d="M141.017,61.807c3.062,2.329,6.294,4.434,9.953,5.705c0.912,0.316,1.104-1.241,0.326-1.58
	c-3.382-1.471-6.751-2.967-10.047-4.627C140.931,61.145,140.777,61.624,141.017,61.807L141.017,61.807z"/>
<path d="M130.563,71.391c4.694,0.968,7.515,6.204,12.425,6.371c0.896,0.03,0.938-1.489,0.154-1.72
	c-2.607-0.767-4.708-2.335-6.946-3.81c-1.671-1.101-3.622-2.178-5.649-1.508C130.277,70.814,130.265,71.33,130.563,71.391
	L130.563,71.391z"/>
<path d="M147.033,53.349c1.93,2.45,4.668,3.991,7.17,5.78c0.642,0.459,1.119-0.761,0.527-1.146c-1.262-0.823-2.56-1.588-3.854-2.357
	c-1.223-0.729-2.67-1.477-3.643-2.53C147.08,52.928,146.918,53.204,147.033,53.349L147.033,53.349z"/>
<path d="M151.371,46.089c0.271,1.53,3.647,3.146,4.759,3.899c2.384,1.618,5.255,4.033,8.152,4.614
	c1.064,0.213,1.272-1.397,0.369-1.762c-2.558-1.029-4.983-2.675-7.386-4.016c-1.837-1.024-3.997-1.856-5.751-2.872
	C151.42,45.899,151.356,46.006,151.371,46.089L151.371,46.089z"/>
<path d="M159.117,46.969c2.02,1.567,4.108,3.395,6.541,4.263c0.637,0.228,0.955-0.797,0.549-1.179
	c-1.898-1.79-4.273-3.061-6.391-4.578C158.957,44.859,158.403,46.416,159.117,46.969L159.117,46.969z"/>
<path d="M171.049,45.072c4.377,5.382,10.988,8.457,16.276,12.841c6.032,4.999,13.425,7.962,20.089,11.963
	c7.261,4.359,14.272,9.15,21.611,13.375c3.342,1.924,6.941,3.396,10.408,5.07c3.916,1.893,7.508,4.381,11.432,6.252
	c1.133,0.539,1.773-1.019,0.869-1.701c-6.245-4.709-13.654-7.523-20.557-11.074c-7.461-3.838-14.405-8.879-21.565-13.247
	c-6.704-4.09-13.948-7.208-20.296-11.883c-5.781-4.257-12.086-8.088-17.558-12.735C171.123,43.392,170.658,44.592,171.049,45.072
	L171.049,45.072z"/>
<path d="M179.631,58.605c-0.572-0.2-1.143-0.399-1.715-0.601c-0.525-0.469-1.053-0.036-1.104,0.568
	c-0.11,1.303,2.711,2.798,3.531,3.431c3.238,2.5,6.747,4.673,10.203,6.854c6.904,4.354,13.869,8.899,21.115,12.662
	c0.688,0.356,1.307-0.673,0.74-1.15c-4.962-4.173-10.684-7.347-16.215-10.687c-3.123-1.885-6.237-3.785-9.318-5.738
	c-1.531-0.972-3.053-1.956-4.567-2.952c-0.747-0.506-1.499-1.004-2.256-1.495c-1.392-0.691-1.528-0.911-0.409-0.657
	C179.767,58.825,179.763,58.61,179.631,58.605L179.631,58.605z"/>
<path d="M180.918,67.739c1.009,2.656,3.549,3.849,5.82,5.312c4.074,2.627,7.928,5.598,11.967,8.279
	c3.994,2.653,8.061,5.189,12.236,7.548c4.09,2.31,8.689,5.083,13.342,6.002c0.902,0.178,1.3-1.107,0.553-1.567
	c-3.7-2.273-7.922-3.765-11.759-5.832c-3.831-2.064-7.525-4.382-11.197-6.715c-3.71-2.357-7.315-4.865-10.985-7.283
	c-3.094-2.038-7.189-3.293-9.893-5.803C180.961,67.642,180.898,67.687,180.918,67.739L180.918,67.739z"/>
<path d="M140.738,127.852c7.443,1.753,14.791,4.215,22.326,5.526c7.4,1.288,14.633,3.17,21.904,4.995
	c3.191,0.801,6.534,0.906,9.753,1.597c3.792,0.812,7.366,2.155,11.235,2.766c7.823,1.231,15.766,1.317,23.396,3.639
	c1.538,0.468,2.005-2.197,0.562-2.637c-6.864-2.088-14.007-2.484-21.093-3.302c-4.234-0.488-8.355-1.345-12.387-2.73
	c-3.47-1.193-7.348-1.152-10.923-1.89c-7.786-1.604-15.417-3.829-23.284-5.18c-7.229-1.241-14.056-4.736-21.504-3.372
	C140.459,127.313,140.497,127.794,140.738,127.852L140.738,127.852z"/>
<path d="M252.079,93.305c-0.392-0.204-0.747-0.458-1.065-0.763c-0.189,0.596-0.379,1.19-0.568,1.786
	c1.104,0.156,1.617,5.125,1.657,5.979c0.099,2.065-0.414,4.159-0.906,6.149c-1.048,4.236-2.62,8.487-3.999,12.633
	c-1.52,4.564-3.661,8.912-6.068,13.066c-2.507,4.324-6.328,11.199-11.695,12.041c-1.484,0.232-1.402,2.951,0.066,2.717
	c5.839-0.928,9.045-6.34,12.043-10.935c3.449-5.286,6.219-11.115,8.088-17.146c1.637-5.285,4.114-10.865,4.492-16.437
	c0.152-2.245,0.102-4.763-0.876-6.847c-0.388-0.827-1.38-3.31-2.638-3.131c-1.291,0.183-0.7,2.386,0.258,1.898
	c0.365-0.223,0.754-0.385,1.168-0.487C252.242,93.763,252.255,93.413,252.079,93.305L252.079,93.305z"/>
<path d="M142.961,123.168c3.449-0.642,6.956,0.573,10.428,0.62c4.615,0.063,9.084-0.951,13.724-0.583
	c9.743,0.774,19.384,2.292,29.077,3.486c9.408,1.16,18.619,1.188,28.018,0.017c6.861-0.854,13.827,1.444,20.172-2.22
	c1.203-0.695,0.207-2.983-1.156-2.199c-3.445,1.984-7.349,1.96-11.207,1.858c-4.004-0.105-7.75,0.013-11.727,0.497
	c-9.847,1.2-19.865,0.145-29.629-1.239c-8.732-1.237-17.597-2.483-26.42-2.761c-4.812-0.152-9.527,1.367-14.354,0.695
	c-2.552-0.355-5.151-0.926-7.373,0.671C141.99,122.387,142.313,123.289,142.961,123.168L142.961,123.168z"/>
<path d="M190.113,88.43c-2.957,5.146-7.773,11.558-6.002,17.87c0.206,0.733,1.311,0.83,1.39-0.034
	c0.283-3.07,0.479-5.852,1.503-8.806c1.028-2.964,2.338-5.857,3.484-8.778C190.592,88.417,190.283,88.135,190.113,88.43
	L190.113,88.43z"/>
<path d="M206.027,92.307c-0.92,6.569-4.812,12.17-5.951,18.648c-0.225,1.276,1.439,1.91,1.781,0.533
	c1.566-6.318,4.832-12.484,4.725-19.106C206.576,92.032,206.081,91.927,206.027,92.307L206.027,92.307z"/>
<path d="M224.283,98.283c-0.686,3.499-1.277,6.735-2.499,10.126c-0.989,2.746-1.989,5.461-2.479,8.35
	c-0.242,1.428,1.724,2.156,1.992,0.596c1.015-5.889,5.662-13.036,3.682-19.089C224.855,97.885,224.367,97.854,224.283,98.283
	L224.283,98.283z"/>
<path d="M243.863,101.371c-1.877,2.29-3.271,4.988-4.481,7.677c-0.964,2.144-2.235,5.13-1.533,7.512
	c0.386,1.307,1.91,0.887,1.947-0.361c0.149-4.963,2.891-9.501,5.399-13.659C245.691,101.715,244.576,100.5,243.863,101.371
	L243.863,101.371z"/>
<path d="M192.328,93.192c-1.234,2.961-2.379,6.307-2.303,9.554c0.028,1.174,1.646,1.512,1.855,0.25c0.5-3.02,0.948-5.86,2.059-8.743
	C194.375,93.121,192.879,91.868,192.328,93.192L192.328,93.192z"/>
<path d="M196.322,96.295c-0.795,2.958-2.764,6.234-2.303,9.37c0.141,0.964,1.39,0.809,1.575-0.039
	c0.345-1.567,0.454-3.183,0.805-4.762c0.331-1.488,0.542-2.958,0.556-4.483C196.958,95.958,196.43,95.891,196.322,96.295
	L196.322,96.295z"/>
<path d="M200.625,96.552c-0.564,1.247-0.784,2.63-1.1,3.956c-0.322,1.35-0.73,2.683-0.824,4.07
	c-0.065,0.976,1.381,1.566,1.752,0.517c0.458-1.299,0.66-2.681,0.914-4.032c0.273-1.453,0.537-2.899,0.32-4.371
	C201.603,96.122,200.853,96.049,200.625,96.552L200.625,96.552z"/>
<path d="M207.566,98.569c-0.502,1.355-0.922,2.734-1.375,4.107c-0.402,1.217-1.137,2.384-1.396,3.628
	c-0.135,0.644,0.581,1.772,1.297,1.126c0.965-0.871,1.312-2.26,1.695-3.47c0.489-1.54,0.885-3.104,1.326-4.657
	C209.387,98.336,207.969,97.479,207.566,98.569L207.566,98.569z"/>
<path d="M212.154,99.961c-1.08,2.122-3.041,5.452-2.117,7.925c0.434,1.157,1.98,0.962,1.901-0.354
	c-0.142-2.352,0.767-4.512,1.509-6.715C213.748,99.921,212.694,98.901,212.154,99.961L212.154,99.961z"/>
<path d="M217.142,101.141c-0.67,2.545-2.279,5.379-1.883,8.058c0.124,0.843,1.377,1.069,1.677,0.218
	c0.417-1.186,0.552-2.461,0.88-3.68c0.367-1.366,0.767-2.696,0.975-4.1C218.967,100.454,217.479,99.859,217.142,101.141
	L217.142,101.141z"/>
<path d="M227.734,104.452c-0.455,3.273-2.309,6.34-2.469,9.626c-0.045,0.934,1.226,1.421,1.631,0.48
	c1.248-2.899,2.263-6.43,2.637-9.565C229.687,103.708,227.933,103.017,227.734,104.452L227.734,104.452z"/>
<path d="M233.457,105.333c-0.924,2.55-1.986,5.358-2.143,8.081c-0.061,1.032,1.447,1.654,1.853,0.546
	c0.91-2.492,1.312-5.234,2.067-7.789C235.561,105.063,233.907,104.093,233.457,105.333L233.457,105.333z"/>
<path d="M237.351,107.54c-0.472,1.175-0.863,2.374-1.23,3.584c-0.372,1.229-0.854,2.497-0.87,3.787
	c-0.015,1.037,1.143,1.331,1.658,0.489c0.578-0.944,0.735-2.14,0.991-3.208c0.293-1.22,0.607-2.433,1.016-3.619
	C239.293,107.479,237.876,106.231,237.351,107.54L237.351,107.54z"/>
<path d="M124.284,129.547c-3.756,2.653-3.091,9.266-2.733,13.214c0.317,3.521,0.677,6.667,0.428,10.22
	c-0.16,2.305,0.293,4.006,2.224,5.33c1.022,0.701,1.635-0.963,1.048-1.684c-1.989-2.436-0.783-4.173-0.75-6.754
	c0.032-2.396-0.6-4.791-0.899-7.163c-0.544-4.3-0.358-8.192,1.609-12.103C125.495,130.042,124.939,129.084,124.284,129.547
	L124.284,129.547z"/>
<path d="M115.463,146.506c-0.21,1.588-0.469,3.201-0.858,4.756c-0.396,1.574-1.472,3.001-1.647,4.593
	c-0.061,0.54,0.412,1.38,1.045,0.9c1.287-0.977,1.721-2.912,2.057-4.437c0.438-1.989,0.319-3.885-0.26-5.821
	C115.746,146.321,115.49,146.299,115.463,146.506L115.463,146.506z"/>
<path d="M119.67,146.847c4.383,1.281,9.069,0.593,13.568,1.271c1.977,0.298,10.182,1.944,7.574,5.219
	c-1.533,1.926-5.08,2.505-7.321,3.013c-2.974,0.674-6.002,1.056-9.034,1.347c-7.73,0.74-15.971,1.208-23.621-0.172
	c-2.676-0.482-6.566-1.374-8.154-3.77c-2.041-3.08,4.393-5.088,6.086-5.592c4.693-1.396,11.352-2.096,16.094-0.806
	c1.514,0.412,1.953-2.215,0.543-2.602c-5.925-1.628-29.255-0.771-24.69,10.426c2.077,5.096,11.771,5.515,16.267,5.765
	c5.396,0.299,10.932,0.021,16.322-0.417c5.482-0.444,17.214-0.735,19.871-6.784c1.389-3.16-1.775-5.578-4.262-6.689
	c-5.752-2.573-13.08-1.895-19.127-1.478C119.14,145.623,119.065,146.67,119.67,146.847L119.67,146.847z"/>
<path d="M90.43,155.496c-0.269,2.662,0.093,5.146,0.599,7.759c0.883,4.547,1.142,8.323,0.234,12.877
	c-0.205,1.025,1.135,1.898,1.654,0.768c2.951-6.408,0.123-15.184-2.086-21.414C90.761,155.288,90.457,155.237,90.43,155.496
	L90.43,155.496z"/>
<path d="M142.217,153.616c4.902,5.336-1.608,14.442,3.895,19.62c0.949,0.893,2.203-0.461,1.54-1.459
	c-3.93-5.918,1.311-14.474-4.269-19.614C142.441,151.293,141.469,152.803,142.217,153.616L142.217,153.616z"/>
<path d="M90.001,175.671c2.931,2.197,5.868,4.193,9.657,4.416c1.159,0.068,1.082-1.953-0.051-2.062
	c-3.229-0.311-6.473-1.395-9.343-2.916C89.908,174.919,89.727,175.466,90.001,175.671L90.001,175.671z"/>
<path d="M137.439,177.978c2.883,0.555,7.207-0.342,8.643-3.189c0.277-0.551-0.148-1.383-0.82-1.186
	c-1.211,0.357-2.15,1.207-3.291,1.734c-1.375,0.637-2.854,0.928-4.361,0.77C136.661,176.009,136.545,177.804,137.439,177.978
	L137.439,177.978z"/>
<path d="M90.547,158.828c5.889,6.649,16.553,7.654,24.852,7.401c4.835-0.147,9.652-1.039,14.316-2.283
	c2.375-0.634,4.652-1.54,6.986-2.295c2.371-0.766,4.925-1.331,6.857-2.963c0.65-0.549,0.349-2.004-0.66-1.697
	c-8.924,2.717-16.98,6.185-26.445,6.861c-4.686,0.335-9.393-0.009-13.975-1.028c-4.179-0.929-7.85-2.747-11.816-4.243
	C90.522,158.528,90.474,158.746,90.547,158.828L90.547,158.828z"/>
<path d="M90.582,163.259c4.756,7.316,15.062,7.554,22.922,7.404c5.554-0.107,11.037-0.633,16.482-1.742
	c5.168-1.055,12.02-2.708,15.902-6.526c0.824-0.811-0.31-2.765-1.305-1.873c-3.61,3.235-9.374,4.635-13.981,5.767
	c-5.391,1.323-10.874,1.673-16.394,1.913c-7.354,0.322-17.631-0.053-23.547-5.042C90.607,163.115,90.552,163.212,90.582,163.259
	L90.582,163.259z"/>
<path d="M91.142,170.083c5.354,6.395,16.253,6.361,23.888,5.916c5.535-0.322,11.042-1.207,16.51-2.096
	c3.733-0.607,8.358-1.402,10.942-4.428c0.689-0.807-0.139-2.311-1.18-1.682c-7.548,4.559-17.684,5.084-26.334,5.707
	c-8.136,0.588-16.094-0.707-23.613-3.873C91.095,169.519,91.017,169.935,91.142,170.083L91.142,170.083z"/>
<path d="M93.109,170.042c-8.475-0.18-17.039,0.281-25.52,0.41c-8.597,0.129-17.184,0.742-25.533,2.895
	c-5.848,1.506-9.901,5.887-12.648,11.086c-3.242,6.133-3.043,12.488-1.884,19.119c1.477,8.449,1.458,17.803,1.254,26.357
	c-0.224,9.396,0.551,18.719,0.922,28.104c0.368,9.32,1.403,18.59,1.091,27.93c-0.15,4.447,0.166,9.045-0.571,13.436
	c-0.363,2.16-0.487,4.232,0.886,6.027c1.09,1.424,2.692-0.764,1.723-2.031c-1.204-1.572,0.212-5.506,0.282-7.443
	c0.157-4.324,0.179-8.674,0.257-12.998c0.162-8.828-0.91-17.641-1.258-26.453c-0.314-7.969-1.139-15.922-0.955-23.898
	c0.186-8.109-0.236-16.143-0.723-24.236c-0.436-7.219-2.492-13.607,0.23-20.66c2.887-7.477,8.436-10.93,15.958-12.543
	c7.766-1.666,15.843-1.807,23.752-1.932c7.606-0.119,15.525,0.359,23.014-1.182C94.374,171.825,94.08,170.063,93.109,170.042
	L93.109,170.042z"/>
<path d="M12.829,224.05c2.549-0.447,5.073-0.936,7.585-1.564c3.148-0.787,6.014-2.256,9.285-1.162
	c1.47,0.492,1.859-2.029,0.535-2.533c-2.436-0.93-4.587-0.594-7.029,0.148c-3.543,1.08-7.083,2.014-10.695,2.84
	C11.42,222.026,11.687,224.249,12.829,224.05L12.829,224.05z"/>
<path d="M144.83,167.399c3.647,0.49,7.346-0.258,10.99-0.502c5.148-0.344,8.969,0.871,12.815,4.264
	c8.077,7.123,16.354,14.018,24.365,21.215c6.788,6.1,13.203,12.695,20.686,17.961c4.024,2.832,8.04,5.523,11.479,9.082
	c3.357,3.473,3.723,7.383,3.537,12.002c-0.203,5.027-1.279,10.031-2.236,14.955c-0.937,4.809-1.035,9.824-1.021,14.705
	c0.021,6.855,0.55,13.695,0.089,20.543c-0.336,4.992-0.654,9.99-0.813,14.992c-0.054,1.67-0.988,7.867,1.153,8.846
	c1.582,0.723,2.608-1.828,1.184-2.479c0.56,0.256,0.195-0.213,0.144-1.037c-0.071-1.115-0.056-2.236-0.048-3.354
	c0.02-2.686,0.153-5.373,0.289-8.057c0.207-4.076,0.582-8.146,0.745-12.225c0.419-10.469-1.042-20.811,0.612-31.244
	c1.188-7.484,4.564-17.557,1.216-24.92c-3.26-7.166-11.188-11.336-17.287-15.73c-8.458-6.096-15.767-14.006-23.61-20.859
	c-3.763-3.289-7.568-6.527-11.365-9.775c-3.758-3.217-7.328-7.006-11.516-9.66c-6.332-4.014-14.605-0.669-21.467-1.077
	C143.447,164.967,143.58,167.231,144.83,167.399L144.83,167.399z"/>
<path d="M223.052,216.933c2.578,0.668,5.248-0.271,7.932-0.01c3.256,0.318,6.498,0.699,9.766,0.904
	c7.219,0.455,14.502-0.162,21.69-0.793c7.269-0.639,14.516-1.492,21.784-2.119c6.658-0.574,13.234-2.316,19.943-2.107
	c1.553,0.047,1.489-2.789-0.068-2.836c-6.249-0.188-12.315,1.402-18.5,2.01c-6.77,0.666-13.541,1.32-20.312,1.986
	c-6.758,0.666-13.545,1.201-20.339,1.26c-3.318,0.029-6.641-0.23-9.943-0.527c-1.798-0.162-3.591-0.371-5.389-0.533
	c-1.852-0.168-4.332,0.754-6.068,0.346C222.144,214.181,221.758,216.597,223.052,216.933L223.052,216.933z"/>
<path d="M112.763,188.517c0.323,0.775,0.559,1.578,0.77,2.391c0.196,0.75,0.273,1.502,0.78,2.115
	c0.523,0.633,1.448,0.191,1.578-0.529c0.158-0.879-0.175-1.74-0.416-2.582c-0.26-0.904-0.59-1.789-0.972-2.65
	c-0.238-0.535-0.938-0.738-1.412-0.396C112.552,187.255,112.53,187.956,112.763,188.517L112.763,188.517z"/>
<path d="M113.105,188.737c0.729,0.043,1.547-0.432,2.237-0.641c1.453-0.441,2.913-0.844,4.389-1.205
	c2.628-0.645,5.237-1.166,7.935-1.375c1.279-0.1,1.469-2.217,0.23-2.549c-2.403-0.646-5.898,0.688-8.211,1.26
	c-1.987,0.492-6.219,1.057-7.346,3.035C111.996,187.862,112.427,188.696,113.105,188.737L113.105,188.737z"/>
<path d="M125.961,184.685c0.787,2.91,2.648,5.816,4.922,7.791c0.529,0.461,1.425,0.488,1.711-0.301
	c0.506-1.398,1.051-2.781,1.616-4.158c0.602-1.465,1.444-2.945,1.694-4.518c0.141-0.877-0.9-2.053-1.639-1.059
	c-0.822,1.105-1.238,2.461-1.76,3.73c-0.646,1.574-1.263,3.162-1.832,4.766c0.57-0.1,1.141-0.199,1.711-0.299
	c-2.067-1.771-3.816-4.268-4.839-6.787C127.089,182.724,125.695,183.7,125.961,184.685L125.961,184.685z"/>
<path d="M134.996,183.228c1.971,0.111,3.869-0.281,5.771-0.756c1.732-0.434,4.137-0.82,5.535-1.971
	c0.735-0.605,0.516-1.986-0.529-2.053c-1.619-0.102-3.464,0.918-5.006,1.383c-1.892,0.572-3.848,1.023-5.83,1.053
	C133.607,180.905,133.691,183.153,134.996,183.228L134.996,183.228z"/>
<path d="M145.535,179.864c0.084,0.711,0.466,1.352,0.658,2.045c0.275,0.996,0.445,2.023,0.662,3.033
	c0.322,1.496,0.84,4.082,2.537,4.594c1.016,0.309,1.48-1.027,1.102-1.766c-0.365-0.713-0.895-1.242-1.182-2.014
	c-0.37-0.992-0.586-2.045-0.842-3.068c-0.256-1.018-0.857-3.719-2.334-3.564C145.785,179.161,145.492,179.495,145.535,179.864
	L145.535,179.864z"/>
<path d="M113.561,191.638c-4.685,4.07-7.349,9.691-10.798,14.736c-1.914,2.797-4.107,5.408-6.08,8.166
	c-1.762,2.463-4.09,4.689-5.25,7.518c-0.594,1.447,1.381,2.973,2.066,1.328c1.085-2.6,3.301-4.641,4.883-6.955
	c1.914-2.801,4.076-5.43,6.057-8.182c3.449-4.801,5.798-10.434,10.267-14.443C115.707,192.909,114.734,190.62,113.561,191.638
	L113.561,191.638z"/>
<path d="M149.259,190.188c5.427,4.049,12.27,6.551,18.338,9.504c3.009,1.463,5.997,3.057,8.755,4.955
	c2.336,1.609,4.345,3.449,7.014,4.508c1.283,0.51,1.938-1.877,0.809-2.408c-2.479-1.162-4.53-2.82-6.714-4.445
	c-2.672-1.986-5.792-3.477-8.763-4.955c-6.159-3.064-12.445-6.402-18.877-8.844C148.851,188.136,148.623,189.714,149.259,190.188
	L149.259,190.188z"/>
<path d="M91.304,222.401c0.453,1.994,0.025,5.264,2.258,6.344c1.428,0.689,2.182-1.408,1.057-2.229
	c-1.231-0.898-0.958-3.455-1.322-4.807C92.885,220.187,90.983,220.985,91.304,222.401L91.304,222.401z"/>
<path d="M182.901,207.915c0.091,1.17,0.228,2.334,0.431,3.49c0.199,1.145,0.442,2.641,1.281,3.496
	c0.699,0.715,1.754,0.068,1.689-0.869c-0.072-1.018-0.541-1.977-0.781-2.971c-0.252-1.051-0.383-2.125-0.489-3.199
	C184.879,206.306,182.778,206.319,182.901,207.915L182.901,207.915z"/>
<path d="M93.607,229.005c5.533,2.586,12.221,0.545,18.01-0.021c9.301-0.91,18.332-3.299,27.585-4.391
	c4.038-0.477,8.109-0.561,12.146-1.041c4.71-0.561,9.346-1.607,14.061-2.141c6.484-0.73,14.895-0.318,20.363-4.656
	c1.193-0.947,0.07-3.467-1.275-2.398c-2.004,1.596-4.842,2.012-7.213,2.855c-4.154,1.479-9.021,1.076-13.364,1.57
	c-4.236,0.482-8.417,1.402-12.64,1.992c-4.02,0.561-8.107,0.629-12.145,1.051c-8.316,0.873-16.46,3.086-24.771,4.127
	c-3.455,0.434-6.91,0.793-10.362,1.254c-3.18,0.426-6.602,0.789-9.606-0.555C93.174,226.104,92.498,228.487,93.607,229.005
	L93.607,229.005z"/>
<path d="M115.097,206.862c12.082-2.471,24.236-3.719,36.402-5.607c1.486-0.23,1.461-2.906-0.066-2.73
	c-12.29,1.42-24.996,2.67-36.93,6.059C113.242,204.94,113.758,207.136,115.097,206.862L115.097,206.862z"/>
<path d="M151.938,199.382c0-0.115-0.001-0.23-0.001-0.346c-0.396,0.281-0.793,0.562-1.189,0.844
	c6.174,3.578,12.038,7.844,18.324,11.197c1.473,0.785,2.43-1.65,1.123-2.375c-6.141-3.408-11.934-8.885-18.87-10.559
	c-1.552-0.375-1.034,2.607,0.234,1.717C151.748,199.728,151.939,199.636,151.938,199.382L151.938,199.382z"/>
<path d="M115.152,206.577c0.141-0.168,0.283-0.338,0.424-0.506c0.817-0.971-0.682-2.418-1.346-1.162
	c-1.152,2.182-15.414,17.07-9.34,18.795c0.96,0.271,1.583-1.021,1.107-1.768c-1.342-2.105,3.939-7.574,5.219-9.234
	c1.496-1.938,4.488-4.705,4.588-7.334c-0.413,0.295-0.826,0.588-1.24,0.883c0.186,0.109,0.371,0.221,0.558,0.33
	C115.133,206.589,115.144,206.585,115.152,206.577L115.152,206.577z"/>
<path d="M105.328,223.991c16.955-2.488,34.008-4.348,50.965-6.84c4.278-0.629,9.43-0.598,13.516-2.154
	c1.936-0.736,3.262-5.016,0.292-4.955c-1.521,0.031-1.446,2.664,0.066,2.695c-1.313-0.027-0.958-0.389-2.182-0.021
	c-0.769,0.23-1.575,0.33-2.368,0.441c-1.222,0.172-2.456,0.236-3.685,0.344c-6.599,0.578-13.236,1.908-19.808,2.789
	c-6.071,0.812-12.143,1.615-18.191,2.576c-6.307,1.002-12.705,1.395-18.912,2.967C103.991,222.095,104.224,224.153,105.328,223.991
	L105.328,223.991z"/>
<path d="M114.609,189.388c-3.447,0.037-7.58,0.771-10.652,2.359c0.505,0.426,1.009,0.854,1.514,1.281
	c-0.08-1.518-0.336-2.959-1.113-4.279c-0.734-1.244-2.176-0.219-1.894,0.99c0.268,1.148,0.612,2.15,0.667,3.346
	c0.031,0.666,0.705,1.691,1.514,1.281c3.252-1.652,7.008-1.477,10.241-3.018C115.719,190.952,115.691,189.376,114.609,189.388
	L114.609,189.388z"/>
<path d="M148.642,186.063c-0.553-0.117-0.645-0.104-0.275,0.041c0.157,0.045,0.313,0.041,0.469-0.012
	c0.227-0.08,0.48-0.102,0.72-0.135c0.915-0.129,1.874-0.105,2.796-0.109c1.828-0.01,3.653,0.125,5.48,0.156
	c0.775,0.014,1.252-0.986,1.02-1.65c-0.613-1.744-1.344-3.598-1.141-5.48c0.165-1.527-1.971-2.314-2.154-0.635
	c-0.266,2.414,0.357,4.598,1.193,6.85c0.34-0.549,0.68-1.1,1.02-1.65c-1.826,0.004-3.651-0.078-5.479-0.051
	c-1.402,0.023-3.295-0.072-4.355,1c-0.316,0.32-0.288,0.885-0.107,1.256C147.951,185.896,148.329,186.22,148.642,186.063
	L148.642,186.063z"/>
<path d="M102.543,189.044c1.629,0.639,3.732-0.107,5.311-0.582c1.604-0.482,3.719-1.057,4.996-2.201
	c0.805-0.719,0.475-2.615-0.854-2.207c-3.154,0.973-5.893,2.682-9.271,2.979C101.66,187.126,101.635,188.688,102.543,189.044
	L102.543,189.044z"/>
<path d="M127.964,183.419c1.628,1.119,3.761,0.564,5.318-0.453c0.836-0.547,0.327-2.32-0.749-1.932
	c-1.449,0.525-2.768,1.781-4.41,1.605C127.717,182.597,127.71,183.245,127.964,183.419L127.964,183.419z"/>
<path d="M147.73,181.036c1.502-0.014,3.018-0.352,4.512-0.5c1.566-0.156,3.227,0.09,4.754-0.113c1.001-0.133,1.463-1.74,0.467-2.25
	c-1.393-0.711-3.295-0.352-4.791-0.18c-1.705,0.195-3.613,0.408-5.225,1.031C146.531,179.38,146.668,181.044,147.73,181.036
	L147.73,181.036z"/>
<path d="M40.252,184.987c-2.836-1.082-3.334,11.117-3.208,12.754c0.076,0.984,1.19,1.152,1.492,0.199
	c0.686-2.158,0.532-4.648,0.786-6.885c0.135-1.197,0.332-2.391,0.65-3.553c0.186-0.682,0.621-1.242,0.657-1.959
	C40.642,185.298,40.472,185.073,40.252,184.987L40.252,184.987z"/>
<path d="M45.499,196.085c-1.276,2.949-2.143,6.266-2.256,9.484c-0.026,0.748,0.896,0.82,1.1,0.148
	c0.901-2.963,1.054-6.082,2.092-9.023C46.664,196.046,45.832,195.315,45.499,196.085L45.499,196.085z"/>
<path d="M50.608,205.38c-0.933,2.734-2.14,5.936-1.462,8.848c0.138,0.588,0.839,0.506,0.982-0.025
	c0.73-2.713,0.842-5.57,1.586-8.307C51.902,205.208,50.871,204.61,50.608,205.38L50.608,205.38z"/>
<path d="M55.889,211.741c-1.313,2.35-1.865,4.93-2.226,7.576c-0.289,2.121-0.834,4.842,0.018,6.85
	c0.24,0.566,1.029,0.492,1.26-0.031c0.812-1.838,0.44-4.277,0.625-6.256c0.23-2.457,0.716-4.953,1.812-7.176
	C57.884,211.679,56.517,210.616,55.889,211.741L55.889,211.741z"/>
<path d="M59.082,222.323c-1.687,4.273-1.963,8.885-2.32,13.424c-0.103,1.301,1.855,1.602,2.049,0.27
	c0.615-4.219,0.519-8.516,2.041-12.561C61.316,222.218,59.642,220.901,59.082,222.323L59.082,222.323z"/>
<path d="M63.181,233.278c-1.231,3.682-2.536,8.281-1.133,12.094c0.402,1.094,2.018,0.926,1.878-0.34
	c-0.436-3.955-0.036-7.4,1.159-11.199C65.504,232.507,63.638,231.909,63.181,233.278L63.181,233.278z"/>
<path d="M66.54,244.97c-0.71,1.367-1.001,2.91-0.954,4.441c0.033,1.127,1.427,1.299,1.737,0.225c0.344-1.188,0.46-2.398,1.07-3.492
	C69.084,244.905,67.263,243.577,66.54,244.97L66.54,244.97z"/>
<path d="M80.115,246.313c-1.476,2.061-2.725,4.404-3.447,6.84c-0.285,0.959,1.041,1.689,1.521,0.703
	c1.062-2.18,1.833-4.459,3.07-6.562C81.67,246.595,80.671,245.538,80.115,246.313L80.115,246.313z"/>
<path d="M87.713,248.237c-1.016,1.09-1.801,2.309-2.521,3.609c-0.684,1.234-1.758,2.775-1.727,4.227
	c0.012,0.533,0.528,0.959,1.023,0.646c0.979-0.615,1.34-2.027,1.828-3.029c0.715-1.467,1.527-2.889,2.572-4.148
	C89.554,248.739,88.535,247.354,87.713,248.237L87.713,248.237z"/>
<path d="M95.088,249.595c-1.339,2.305-2.641,4.955-3.302,7.545c-0.267,1.043,1.055,1.746,1.614,0.742
	c1.287-2.311,1.863-5.006,3.113-7.363C97.03,249.544,95.705,248.532,95.088,249.595L95.088,249.595z"/>
<path d="M105.918,248.026c-2.588,1.561-3.337,5.756-2.881,8.52c0.182,1.096,1.688,0.984,1.874-0.047
	c0.382-2.115-0.017-5.105,2.104-6.414C108.141,249.392,107.187,247.263,105.918,248.026L105.918,248.026z"/>
<path d="M120.614,245.134c-1.841,1.779-3.776,3.955-4.796,6.328c-0.324,0.754,0.5,1.82,1.186,1.035
	c1.682-1.922,3.07-4.168,4.649-6.188C122.225,245.579,121.39,244.384,120.614,245.134L120.614,245.134z"/>
<path d="M132.021,244.688c-2.863,2.074-5.801,5.043-6.492,8.637c-0.174,0.898,1.047,1.736,1.469,0.689
	c1.299-3.213,3.297-5.871,5.688-8.357C133.092,245.233,132.584,244.28,132.021,244.688L132.021,244.688z"/>
<path d="M142.972,243.44c-1.828,1.572-3.443,3.328-4.918,5.234c-1.258,1.625-2.99,3.754-3.258,5.846
	c-0.065,0.51,0.428,1.42,1.035,0.9c1.384-1.178,2.154-3.107,3.195-4.59c1.418-2.018,3.078-3.871,4.934-5.492
	C144.84,244.571,143.995,242.562,142.972,243.44L142.972,243.44z"/>
<path d="M155.996,245.485c-1.732,1.424-3.56,2.725-5.231,4.225c-1.334,1.197-3.382,2.986-3.094,4.963
	c0.107,0.736,0.943,0.865,1.401,0.402c0.505-0.51,0.744-1.295,1.191-1.875c0.618-0.809,1.378-1.506,2.132-2.182
	c1.458-1.309,3.048-2.461,4.542-3.725C157.787,246.575,156.992,244.665,155.996,245.485L155.996,245.485z"/>
<path d="M170.929,242.854c-2.014,1.516-4.986,3.523-5.503,6.154c-0.123,0.627,0.442,1.379,1.093,0.953
	c0.961-0.629,1.593-1.615,2.385-2.434c0.938-0.967,2.027-1.795,3.1-2.605C173.027,244.149,172.106,241.97,170.929,242.854
	L170.929,242.854z"/>
<path d="M184.605,239.708c-2.134,1.42-4.701,3.422-5.434,5.99c-0.158,0.553,0.427,1.232,0.973,0.852
	c0.893-0.627,1.578-1.539,2.324-2.324c0.936-0.984,2.033-1.795,3.193-2.488C186.75,241.087,185.812,238.903,184.605,239.708
	L184.605,239.708z"/>
<path d="M193.443,236.712c-1.623,1.43-4.594,3.637-4.09,6.123c0.097,0.48,0.77,0.984,1.213,0.557
	c0.709-0.686,1.014-1.686,1.645-2.457c0.669-0.818,1.493-1.502,2.279-2.203C195.412,237.911,194.514,235.769,193.443,236.712
	L193.443,236.712z"/>
<path d="M201.424,236.173c-1.088,0.746-2.165,1.553-3.098,2.486c-0.588,0.588-0.029,2.123,0.899,1.74
	c1.206-0.496,2.207-1.408,3.284-2.127C203.594,237.548,202.656,235.329,201.424,236.173L201.424,236.173z"/>
<path d="M212.201,234.722c-1.564,1.373-3.866,2.73-4.496,4.82c-0.163,0.545,0.404,1.133,0.92,0.805
	c0.785-0.498,1.363-1.275,2.045-1.898c0.777-0.711,1.607-1.361,2.396-2.057C213.834,235.714,213.088,233.944,212.201,234.722
	L212.201,234.722z"/>
<path d="M70.23,253.907c0.043-0.031,0.088-0.062,0.131-0.092c0.652-0.459,0.275-1.975-0.613-1.611
	c-1.527,0.623-2.545,2.273-3.424,3.592c-0.992,1.488-1.916,3.035-2.741,4.619c-0.44,0.846,0.562,1.965,1.312,1.148
	c1.145-1.25,1.915-2.773,2.812-4.199c0.508-0.809,1.073-1.572,1.664-2.322C69.595,254.755,70.17,253.95,70.23,253.907L70.23,253.907
	z"/>
<path d="M67.275,261.792c-2.523,2.461-4.806,5.9-6.107,9.182c-0.289,0.73,0.479,1.785,1.156,1.008
	c2.371-2.717,3.555-6.279,6.002-8.996C68.961,262.282,68.052,261.034,67.275,261.792L67.275,261.792z"/>
<path d="M69.385,269.899c-2.435,3.473-5.278,7.697-5.873,11.971c-0.078,0.562,0.606,1.402,1.088,0.709
	c1.109-1.596,1.795-3.428,2.607-5.186c1.014-2.195,2.203-4.314,3.463-6.375C71.148,270.235,70.006,269.013,69.385,269.899
	L69.385,269.899z"/>
<path d="M67.465,284.786c-1.32,2.736-2.761,5.543-2.951,8.623c-0.05,0.811,1.183,1.318,1.479,0.43
	c0.912-2.744,1.749-5.484,2.811-8.18C69.17,284.728,67.982,283.716,67.465,284.786L67.465,284.786z"/>
<path d="M70.177,293.192c-1.856,2.861-3.749,6.074-3.988,9.549c-0.058,0.836,1.106,1.252,1.462,0.426
	c1.279-2.977,2.265-5.965,3.904-8.787C72.046,293.532,70.802,292.228,70.177,293.192L70.177,293.192z"/>
<path d="M173.844,39.645c1.381,2.765,6.172-0.029,7.54-1.396c2.104-2.102,3.073-6.043,0.216-8.029
	c-0.978-0.681-1.729,0.814-1.291,1.604c0.5,0.902,1.082,1.541,0.871,2.631c-0.211,1.082-1.158,1.964-1.984,2.604
	c-0.828,0.643-1.809,1.039-2.775,1.424c-0.83,0.33-1.836,0.318-2.529,0.93C173.822,39.471,173.802,39.562,173.844,39.645
	L173.844,39.645z"/>
<path d="M176.475,40.336c1.387,5.211,8.833,6.657,13.417,6.607c6.012-0.066,13.09-2.724,16.534-7.817
	c2.556-3.78,1.415-7.99-3.167-9.051c-5.266-1.219-12.368,1.11-16.697,4.062c-1.145,0.78-0.211,2.912,1.143,2.168
	c3.613-1.984,7.488-3.285,11.598-3.724c1.861-0.199,4.867-0.28,6.098,1.507c1.36,1.976-2.176,5.194-3.408,6.236
	c-3.351,2.832-8.947,3.974-13.207,4.04c-2.596,0.04-5.128-0.668-7.439-1.803c-1.603-0.787-2.769-2.157-4.464-2.727
	C176.591,39.738,176.413,40.101,176.475,40.336L176.475,40.336z"/>
<path d="M191.017,32.539c-0.193-3.375-5.951-1.974-7.812-1.155c-0.883,0.389-0.822,2.087,0.287,2.055
	c1.709-0.05,4.846-1.55,6.316-0.273C190.336,33.623,191.058,33.254,191.017,32.539L191.017,32.539z"/>
<path d="M203.111,32.625c-2.803,0.05-5.274,0.585-6.084,3.599c-0.725,2.695,0.852,6.121,3.264,7.418
	c1.347,0.726,2.152-1.434,1.02-2.17c-1.545-1.007-2.525-2.761-2.216-4.635c0.296-1.797,2.864-2.027,4.271-2.388
	C204.25,34.223,204.028,32.608,203.111,32.625L203.111,32.625z"/>
<path d="M192.4,46.638c1.142,4.596,6.988,4.847,10.847,4.488c5.312-0.493,11.34-2.329,15.265-6.055
	c2.785-2.644,5.469-9.396,1.547-12.317c-4.34-3.23-10.787,0.078-13.396,4.067c-0.77,1.178,0.713,3.179,1.609,1.801
	c1.721-2.646,9.531-7.76,11.348-2.39c1.682,4.979-4.635,8.824-8.275,10.248c-6.421,2.512-12.471,3.22-18.594-0.176
	C192.527,46.182,192.347,46.426,192.4,46.638L192.4,46.638z"/>
<path d="M216.943,32.981c-1.18,0.511-2.015,1.533-3.338,1.762c-0.488,0.084-0.802,0.371-0.916,0.864
	c-0.452,1.957,0.064,3.705,1.307,5.252c0.948,1.179,3.301,2.902,4.846,2.161c0.539-0.26,0.648-0.941,0.277-1.398
	c-0.728-0.897-1.988-1.132-2.932-1.778c-1.25-0.856-1.887-2.183-1.609-3.672c-0.22,0.272-0.439,0.545-0.658,0.817
	c1.548-0.398,3.047-1.455,3.785-2.891C217.939,33.642,217.57,32.709,216.943,32.981L216.943,32.981z"/>
<path d="M200.614,50.357c3.839,7.617,15.524,5.234,20.542,0.222c2.512-2.509,5.077-5.632,5.719-9.225
	c0.6-3.348-2.254-5.158-5.271-5.005c-1.17,0.06-1.393,2.182-0.214,2.377c1.212,0.201,3.235,0.173,3.351,1.813
	c0.08,1.155-0.73,2.433-1.27,3.397c-1.242,2.225-3.125,4.262-5.074,5.88c-4.654,3.861-12.842,3.889-17.49,0.18
	C200.689,49.824,200.529,50.188,200.614,50.357L200.614,50.357z"/>
<path d="M224.226,46.709c2.528,0.947,5.383,0.226,7.836-0.623c1.972-0.681,4.991-1.898,5.6-4.108
	c0.168-0.608-0.402-1.561-1.121-1.255c-1.788,0.759-3.227,2.184-5.115,2.917c-2.022,0.786-4.588,1.459-6.719,0.763
	C223.377,43.968,223.032,46.262,224.226,46.709L224.226,46.709z"/>
<path d="M236.181,42.963c1.066,0.387,2.118,0.75,3.219,1.036c0.996,0.259,1.971,0.624,2.989,0.372
	c0.809-0.199,0.765-1.492,0.162-1.879c-0.897-0.574-2.071-0.59-3.112-0.732c-1.082-0.149-2.078-0.138-3.153,0.037
	C235.705,41.892,235.621,42.759,236.181,42.963L236.181,42.963z"/>
</svg>
