<?xml version="1.0" encoding="utf-8"?>
<!-- Generator: Adobe Illustrator 15.1.0, SVG Export Plug-In . SVG Version: 6.00 Build 0)  -->
<!DOCTYPE svg PUBLIC "-//W3C//DTD SVG 1.1//EN" "http://www.w3.org/Graphics/SVG/1.1/DTD/svg11.dtd">
<svg version="1.1" id="Layer_1" xmlns="http://www.w3.org/2000/svg" xmlns:xlink="http://www.w3.org/1999/xlink" x="0px" y="0px"
	 width="325.984px" height="327.39px" viewBox="0 0 325.984 327.39" enable-background="new 0 0 325.984 327.39"
	 xml:space="preserve">
<g>
	<path d="M113.291,9.711c2.723,0.743,4.933,4.22,7.178,5.904c5.223,3.921,11.1,7,16.623,10.469c0.816,0.514,1.556-0.127,1.799-0.899
		c2.029-6.456,12.68-8.179,13.745-15.23c0.19-1.258-1.259-2.202-1.987-0.913c-3.098,5.49-10.639,8.266-13.495,13.847
		c-5.347-3.285-10.907-6.312-15.979-10.008c-2.128-1.551-4.754-5.571-7.668-5.526C112.288,7.374,112.173,9.405,113.291,9.711z"/>
	<path d="M104.822,9.211c3.06,5.911,9.447,10.764,14.652,14.749c5.775,4.422,12.417,7.498,18.366,11.666
		c0.006,0.006,0.016,0.01,0.024,0.016c0.049,0.035,0.102,0.067,0.152,0.103c0.351,0.247,0.669,0.281,0.933,0.182
		c4.144,0.349,9.074-4.573,11.882-6.82c5.75-4.601,10.358-10.882,12.698-17.914c0.442-1.332-1.082-2.799-1.919-1.259
		c-3.301,6.07-5.91,11.859-11.436,16.326c-2.854,2.308-6.916,6.486-10.827,7.214c-0.049-0.056-0.101-0.11-0.161-0.158
		c-5.35-4.281-11.784-7.03-17.385-10.971c-3.099-2.181-5.974-4.674-8.75-7.247c-2.478-2.295-4.537-5.083-7.19-7.163
		c-0.712-0.558-1.377,0.584-1.014,1.28C104.84,9.213,104.831,9.212,104.822,9.211z"/>
	<path d="M48.692,34.88c-0.062-0.73-0.82-1.021-1.229-0.359c-1.127,1.826-0.329,5.061-0.152,7.081
		c0.36,4.137,1.007,8.252,1.968,12.292c1.817,7.637,5.618,15.166,12.152,19.771c1.118,0.788,2.143-1.194,1.244-1.972
		C51.689,62.208,49.882,48.589,48.692,34.88z"/>
	<path d="M63.539,54.966c-1.258-3.575-3.192-6.866-4.466-10.467c-1.26-3.561-2.266-7.217-3.268-10.857
		c-0.194-0.705-1.021-0.326-0.898,0.315c1.335,6.955,2.646,16.312,7.46,21.852C62.922,56.445,63.779,55.648,63.539,54.966z"/>
	<path d="M63.271,37.032c0.225,1.187,1.865,0.812,1.775-0.328c-0.637-8.009-3.698-15.207-7.658-22.08
		c-0.137-0.239-0.461-0.112-0.439,0.154c0.249,3.199,2.058,6.153,3.146,9.129C61.65,28.162,62.426,32.599,63.271,37.032z"/>
	<path d="M80.694,42.265c3.063-6.462,4.018-14.195,3.7-21.281c-0.021-0.474-0.611-0.452-0.626,0.015
		c-0.221,7.364-2.522,13.639-4.417,20.64C79.122,42.485,80.27,43.156,80.694,42.265z"/>
	<path d="M88.734,50.245c-0.503-5.3,0.842-10.157,1.885-15.299c1-4.928,1.378-10.212,1.389-15.241
		c0.001-0.369-0.471-0.348-0.485,0.013c-0.229,5.881-1.301,11.701-2.827,17.375C87.52,41.469,86.258,46,87.148,50.537
		C87.355,51.59,88.83,51.264,88.734,50.245z"/>
	<path d="M102.211,47.62c0.626,1.5,2.311-0.012,1.795-1.297c-3.196-7.964-0.976-17.053-4.482-24.87
		c-0.425-0.948-1.525-0.118-1.325,0.702C100.248,30.535,98.849,39.569,102.211,47.62z"/>
	<path d="M80.162,64.114c-3.328-6.142-0.732-12.281-2.453-18.627c-0.219-0.804-1.164-0.529-1.188,0.219
		c-0.2,6.393-2.099,14.372,2.125,19.85C79.478,66.635,80.677,65.066,80.162,64.114z"/>
	<path d="M84.583,118.49c3.406,5.022,6.24,10.493,9.868,15.353c0.514,0.687,1.236-0.3,0.947-0.889
		c-2.633-5.378-6.529-10.321-10.401-14.856C84.763,117.824,84.41,118.234,84.583,118.49z"/>
	<path d="M81.603,102.376c2.658,4.348,5.168,8.81,8.178,12.928c0.597,0.819,1.635-0.38,1.163-1.104
		c-2.741-4.205-5.564-8.364-8.412-12.495C82.062,101.023,81.215,101.739,81.603,102.376z"/>
	<path d="M89.308,106.106c0.764,1.257,2.213-0.039,1.621-1.177c-2.102-4.036-4.121-8.135-6.937-11.736
		c-0.872-1.115-1.999,0.647-1.289,1.598C85.337,98.307,87.035,102.367,89.308,106.106z"/>
	<path d="M216.65,71.518c4.188-1.604,6.722-6.401,8.72-10.137c3.149-5.89,4.837-11.996,6.085-18.534
		c0.075-0.4-0.438-0.596-0.554-0.167c-2.563,9.526-6.662,20.807-15.067,26.707C214.961,70,215.463,71.973,216.65,71.518z"/>
	<path d="M216.505,49.203c0.769-1.326,1.605-2.616,2.148-4.057c0.148-0.396-0.371-0.847-0.564-0.375
		c-0.581,1.426-1.475,2.668-2.242,3.994C215.589,49.207,216.213,49.708,216.505,49.203z"/>
	<path d="M210.799,48.43c4.994-6.574,3.756-16.947,4.381-24.7c0.031-0.377-0.486-0.455-0.564-0.079
		c-0.732,3.592-1.065,7.223-1.462,10.863c-0.503,4.612-1.962,8.63-3.409,12.991C209.535,48.133,210.203,49.214,210.799,48.43z"/>
	<path d="M219.17,38.854c0.707-3.019,0.916-6.11,1.399-9.167c0.21-1.322-1.573-2.019-1.835-0.557
		c-0.545,3.038-0.812,6.123-1.528,9.128C216.869,39.669,218.811,40.383,219.17,38.854z"/>
	<path d="M203.964,31.344c-0.135,1.226,1.524,1.899,1.737,0.519c0.938-6.097-0.146-12.18-1.388-18.148
		c-0.112-0.545-0.867-0.378-0.812,0.152C204.112,19.735,204.618,25.456,203.964,31.344z"/>
	<path d="M198.636,27.181c0.563,1.042,1.717,0.148,1.505-0.801c-1.398-6.249-4.442-13.197-8.359-18.259
		c-0.601-0.777-1.508,0.369-1.094,1.056C194.127,14.883,195.51,21.4,198.636,27.181z"/>
	<path d="M203.988,49.044c0.81,1.333,2.19-0.026,1.689-1.218c-2.711-6.438-6.379-12.527-9.494-18.781
		c-3.097-6.213-5.54-12.664-8.334-19.005c-0.152-0.343-0.506-0.03-0.458,0.244c1.128,6.468,3.813,12.641,6.479,18.607
		C196.908,35.689,200.122,42.674,203.988,49.044z"/>
	<path d="M195.673,44.133c3.606,7.637,7.212,15.632,11.55,22.877c0.839,1.4,2.402-0.021,1.806-1.291
		c-3.558-7.562-7.595-15.574-12.672-22.235C195.973,42.983,195.471,43.708,195.673,44.133z"/>
	<path d="M202.826,63.458c-2.177-3.668-4.598-7.366-8.039-9.961c-0.447-0.339-0.786,0.452-0.488,0.779
		c2.824,3.104,4.745,6.771,7.052,10.239C202.072,65.6,203.427,64.474,202.826,63.458z"/>
	<path d="M204.28,69.687c-2.254-3.12-4.522-6.257-7.194-9.038c-0.747-0.778-1.512,0.486-0.973,1.188
		c2.382,3.104,4.283,6.553,6.709,9.623C203.807,72.708,205.055,70.757,204.28,69.687z"/>
	<path d="M200.781,75.019c0.516-0.366,0.546-1.031,0.316-1.565c-0.73-1.706-1.587-3.356-2.635-4.889
		c-0.757-1.107-2.18,0.05-1.531,1.089c0.99,1.591,1.703,3.295,2.487,4.99C199.654,75.155,200.323,75.345,200.781,75.019z"/>
	<path d="M196.709,78.098c0.517,1.229,1.918,0.139,1.712-0.886c-0.392-1.95-1.226-3.782-1.789-5.687
		c-0.423-1.427-2.251-0.689-1.896,0.656C195.266,74.19,195.903,76.181,196.709,78.098z"/>
	<path d="M54.756,123.844c-2.258-1.769-6.999-6.147-9.818-3.176c-0.348,0.366-0.017,1.094,0.5,0.956
		c3.088-0.824,6.195,2.577,8.322,4.355C54.876,126.913,55.802,124.663,54.756,123.844z"/>
	<path d="M54.643,129.922c-1.625-1.456-3.438-2.485-5.592-2.917c-0.562-0.113-0.68,0.748-0.195,0.935
		c1.876,0.726,3.465,1.944,5.132,3.04C54.598,131.381,55.113,130.342,54.643,129.922z"/>
	<path d="M85.219,165.998c-0.057-0.264-0.402-0.247-0.452,0.011c-0.708,3.657-0.501,7.149-0.21,10.853
		c0.322,4.091,0.142,8.559,1.143,12.529c0.221,0.875,1.335,0.817,1.529-0.036c0.804-3.542,0.06-7.431-0.312-11.012
		C86.487,174.196,86.106,170.071,85.219,165.998z"/>
	<path d="M119.183,198.521c-2.634,2.354-6.07,4.893-6.655,8.602c-0.18,1.149,1.395,2.301,1.917,0.9
		c1.403-3.754,4.945-5.806,7.642-8.546c4.19-4.26,8.26-8.628,12.357-12.978c8.051-8.551,15.969-17.208,24.538-25.242
		c0.273-0.257,0.408-0.624,0.437-1.008c5.177,3.885,8.913,9.368,12.919,14.395c5.178,6.498,10.764,12.579,15.642,19.328
		c4.942,6.838,10.313,13.327,15.884,19.659c5.588,6.353,11.1,13.198,17.253,19.002c1.37,1.295,3.003-0.866,1.827-2.118
		c-11.591-12.354-23.223-24.954-33.188-38.672c-5.124-7.054-11-13.404-16.452-20.184c-4.402-5.472-8.501-11.454-14.809-14.884
		c-1.316-0.716-2.12,1.434-0.997,2.135c0.026,0.015,0.05,0.037,0.076,0.054c-9.102,7.537-16.79,16.957-24.892,25.522
		C128.238,189.186,124.008,194.207,119.183,198.521z"/>
	<path d="M199.597,254.58c-7.571,7.034-14.879,14.888-23.179,21.073c-10.898-9.607-19.087-21.837-29.351-32.083
		c-11.048-11.033-22.089-22.094-32.023-34.16c-1.063-1.293-2.446,0.757-1.552,1.884c9.727,12.249,20.726,23.354,31.773,34.397
		c10.329,10.327,18.537,22.688,29.548,32.325c0.133,0.115,0.268,0.192,0.403,0.253c0.299,0.517,0.857,0.811,1.496,0.373
		c8.82-6.024,16.396-14.272,24.199-21.532c8.096-7.532,16.853-14.372,24.202-22.674c1.051-1.186-0.521-3.479-1.779-2.066
		C216.109,240.485,207.538,247.202,199.597,254.58z"/>
	<path d="M128.374,153.264c-3.853-4.348-4.32-8.425-3.729-14.01c0.36-3.402,0.939-6.879-0.358-10.135
		c-0.22-0.551-1.02-0.345-1.083,0.194c-0.548,4.641-0.986,9.466-1.157,14.143c-0.165,4.487,1.584,8.573,4.826,11.648
		C128.058,156.228,129.308,154.319,128.374,153.264z"/>
	<path d="M135.229,125.588c-0.515-1.289-2.03-0.152-1.776,0.936c0.783,3.346,0.673,6.817,2.049,10.022
		c1.449,3.381,3.544,7.149,6.314,9.627c0.905,0.811,1.918-0.378,1.405-1.329c-1.958-3.636-4.694-6.559-6.148-10.517
		C136.035,131.498,136.352,128.398,135.229,125.588z"/>
	<path d="M114.8,168.821c1.217,1.076,2.411-0.755,1.499-1.829c-3.656-4.303-4.519-7.849-4.386-13.389
		c0.065-2.706,1.067-5.479,0.958-8.152c-0.021-0.498-0.609-1.174-1.121-0.716c-1.999,1.784-1.87,6.437-2.056,8.922
		C109.26,159.433,110.264,164.804,114.8,168.821z"/>
	<path d="M98.548,166.637c-0.087-3.252,0.878-6.591,0.265-9.805c-0.058-0.3-0.399-0.294-0.534-0.069
		c-4.036,6.698-2.845,18.949,3.754,23.593c1.18,0.832,2.097-1.167,1.278-2.022C99.945,174.822,98.678,171.482,98.548,166.637z"/>
	<path d="M75.265,191.63c-0.161-1.379,0.039-2.812-0.479-4.123c-0.069-0.174-0.297-0.179-0.408-0.05
		c-1.198,1.381-1.034,3.701-0.933,5.405c0.128,2.187,0.86,4.372,2.358,5.995c1.138,1.234,2.522-0.809,1.552-1.894
		C76.012,195.463,75.493,193.596,75.265,191.63z"/>
	<path d="M68.344,198.987c-1.437,2.155-1.127,5.339-0.691,7.762c0.174,0.967,1.403,0.604,1.418-0.257
		c0.043-2.432-0.296-4.865-0.29-7.308C68.782,198.975,68.494,198.763,68.344,198.987z"/>
	<path d="M153.024,103.874c-0.206-0.695-1.048-0.482-1.059,0.194c-0.085,5.609,1.394,11.857,3.896,16.874
		c0.599,1.203,2.172,0.197,1.816-0.937C155.993,114.646,154.615,109.252,153.024,103.874z"/>
	<path d="M164.58,96.727c-0.147-0.864-1.215-0.397-1.094,0.384c0.893,5.715,1.999,11.521,3.837,17.015
		c0.278,0.836,1.252,0.404,1.104-0.383C167.363,108.021,165.561,102.475,164.58,96.727z"/>
	<path d="M174.764,95.953c-0.338-0.999-1.609-0.49-1.338,0.467c1.406,4.96,2.961,10.191,5.834,14.528
		c0.676,1.019,1.883-0.013,1.379-0.982C178.281,105.43,176.401,100.797,174.764,95.953z"/>
	<path d="M276.682,171.795c-2.021-0.156-4.596,0.594-6.06,2.202c-0.665-1.854-1.904-3.621-3.293-5.262
		c0.168-0.225,0.283-0.513,0.309-0.864c0.505-7.07-2.357-15.098-4.276-21.814c-2.222-7.776-6.023-14.943-10.984-21.31
		c-4.946-6.346-5.694-14.121-7.649-21.704c-2.131-8.27-5.982-16.065-8.038-24.313c3.212-2.646,6.445-5.264,9.819-7.735
		c4.154-3.043,8.201-6.107,6.809-11.793c-0.265-1.085-1.167-1.139-1.742-0.648c-2.211-9.885-9.557-18.008-15.456-25.882
		c-3.487-4.653-6.651-9.452-9.792-14.341c-2.414-3.758-6.308-6.748-8.266-10.723c-0.571-1.159-2.001-0.168-1.678,0.894
		c1.02,3.364,3.736,5.73,5.917,8.374c3.57,4.33,6.096,9.678,9.357,14.264c3.279,4.611,6.744,9.11,10.14,13.637
		c3.524,4.698,5.021,9.903,7.848,14.912c0.396,0.701,1.026,0.685,1.474,0.337c1.175,5.653-7.548,9.795-11.295,12.68
		c-4.852,3.737-9.389,7.816-14.157,11.651c-4.453,3.581-9.992,7.729-15.404,9.808c-1.29-1.391-2.543-2.816-3.757-4.326
		c3.738-0.529,7.229-2.742,10.431-4.65c3.566-2.126,7.328-4.396,10.315-7.303c2.603-2.534,4.562-5.771,6.74-8.657
		c2.402-3.182,4.726-5.042,8.253-6.735c0.748-0.359,0.999-1.975-0.052-2.145c-5.582-0.906-10.224,7.578-12.882,11.247
		c-2.529,3.492-5.25,5.947-8.788,8.413c-4.6,3.205-10.16,5.452-14.434,9.022c-0.045,0.038-0.078,0.092-0.104,0.152
		c-0.325-0.415-0.648-0.831-0.967-1.261c-2.495-3.368-5.389-7.263-9.368-8.977c-5.072-2.185-10.312-0.1-15.285,1.476
		c-3.319,1.052-6.618,1.971-10.053,2.571c-2.15,0.375-4.299,0.796-6.099,1.984c0.037-0.098,0.066-0.206,0.087-0.326
		c0.891-5.314,1.392-10.66,1.481-16.047c0.08-4.689,0.215-10.877-2.001-15.255c0.161-0.586,0.035-1.323-0.473-1.744
		c-0.75-0.623-1.745-0.799-2.798-0.76c-1.125-1.079-2.238-2.167-3.319-3.304c-1.578-1.659-3.16-3.474-5.082-4.746
		c-0.384-0.254-0.564,0.356-0.373,0.616c1.881,2.572,3.904,5.393,6.173,7.84c-0.654,0.156-1.271,0.326-1.804,0.452
		c-3.762,0.891-7.465,2.043-11.223,2.965c-6.501,1.596-12.869,1.8-19.526,1.762c-4.471-0.024-10.196-1.604-14.614-0.357
		c-0.055-0.061-0.119-0.115-0.204-0.141c-4.547-1.442-4.632,7.995-4.667,10.385c-0.136,9.041-1.762,17.94-1.318,27.018
		c0.315,6.454,0.456,14.974,7.836,16.899c3.058,0.797,6.473,0.562,9.605,0.628c4.907,0.107,9.857-0.315,14.73-0.944
		c-3.144,3.186-6.299,6.343-9.553,9.404c-0.137-0.076-0.293-0.128-0.493-0.108c-6.458,0.632-16.82-3.707-18.374,5.439
		c-0.385,2.261-0.145,7.252,1.548,9.921c-5.094,4.883-9.893,10.114-14.611,15.287c-3.729,4.089-7.263,8.354-11.008,12.425
		c-0.498,0.542-0.998,1.076-1.497,1.612c-0.429-2.219-0.356-4.734-0.521-6.893c-0.272-3.602-0.373-7.221-0.484-10.829
		c-0.176-5.674-0.288-11.345-0.609-17.009c0.997,2.06,2.212,3.979,3.481,5.886c1.23,1.851,2.205,4.535,4.051,5.808
		c0.542,0.375,1.162-0.218,1.124-0.782c-0.155-2.234-1.844-4.066-3.099-5.845c-1.573-2.229-3.252-4.383-4.934-6.531
		c-0.25-0.319-0.529-0.26-0.724-0.055c-0.069-1.078-0.129-2.157-0.217-3.235c-0.537-6.539-2.162-12.932-2.823-19.457
		c-0.568-5.619,0.129-12.209-1.981-17.569c0.104-0.387,0.197-0.775,0.264-1.163c0.234-1.364-1.623-2.039-1.934-0.564
		c-0.703,3.348-1.844,6.388-1.948,9.783c-4.367-1.809-6.727-7.01-9.29-10.596c-0.705-0.987-1.748,0.423-1.347,1.258
		c1.212,2.519,2.798,4.825,4.704,6.873c1.756,1.885,3.566,2.808,5.923,3.157c0.001,0.083-0.007,0.165-0.004,0.25
		c0.023,0.8,1.1,0.771,1.1-0.028c-0.002-1.874,0.653-3.705,1.344-5.529c-0.205,5.168,0.61,10.78,1.078,15.662
		c0.68,7.069,2.338,13.97,2.813,21.075c0.484,7.246,0.489,14.521,0.684,21.777c0.098,3.6,0.303,7.197,0.58,10.789
		c0.149,1.945,0.059,4.072,0.805,5.887c-1.518,1.662-2.974,3.364-4.28,5.206c-0.478-0.197-1.053-0.015-1.261,0.778
		c-1.548,5.9-3.759,11.541-6.218,17.083c-0.567-1.361-1.432-2.438-2.499-3.643c-1.301-1.469-0.004-4.165,0.128-5.799
		c0.139-1.722,0.058-3.321-0.18-5.03c-1.196-8.587-3.023-16.837-2.726-25.576c0.284-8.335,3.71-15.879,5.127-23.99
		c0.654-3.743,1.623-7.454,1.844-11.263c0.205-3.521-0.321-6.709-0.879-10.096c0.798-0.086,1.565-0.587,2.155-1.309
		c1.266-1.551,1.07-3.918,0.27-5.604c-0.356-0.748-1.301-0.799-1.824-0.223c-0.517,0.57-5.06-1.662-5.845-2.027
		c-1.051-0.49-2.55-1.559-3.874-1.771c-0.018-0.485-0.248-0.985-0.719-1.195c-6.04-2.701-11.972-5.426-17.305-9.394
		c-4.85-3.608-7.618-8.637-9.831-14.005c0.058-0.124,0.122-0.253,0.168-0.37c1.861-4.7,2.719-9.81,4.322-14.606
		c1.64-4.903,3.606-9.684,5.107-14.638c3.225-10.641,9.017-20.109,13.254-30.312c0.527-1.27-1.021-2.595-1.807-1.19
		c-6.21,11.106-10.979,22.73-15.106,34.728c-1.981,5.762-4.244,11.386-5.897,17.259c-0.807,2.871-1.472,5.748-2.571,8.531
		c-1.001,2.538-2.804,4.554-4.167,6.875c-5.174,8.811,5.329,15.25,12.029,19.051c-1.606,9.077,0.619,18.134-0.268,27.244
		c-0.396,4.079-2.312,7.924-3.525,11.804c-1.501,4.798-2.386,9.919-3.259,14.863c-1.497,8.473-0.375,16.515,2.128,24.678
		c1.171,3.818,2.897,7.345,4.484,11.001c1.784,4.107,0.249,8.659,2.35,12.594c0.038,0.07,0.089,0.109,0.133,0.167
		c2.795,8.917,8.456,16.777,9.585,26.222c0.796,6.657,0.37,15.233,6.276,19.768c0.716,0.549,1.303,0.034,1.505-0.656
		c2.146,4.191,5.178,8.019,8.069,11.531c6.952,8.442,14.411,16.479,22.372,23.98c7.97,7.511,15.557,15.274,23.312,22.994
		c3.919,3.904,8.035,7.609,12.188,11.261c3.48,3.06,6.836,6.184,11.079,8.147c7.33,3.394,16.157,1.462,23.489-0.89
		c9.762-3.131,17.006-10.9,26.271-14.936c0.209-0.09,0.379-0.217,0.513-0.366c0.491-0.011,0.899-0.313,1.14-0.723
		c3.053-0.484,5.229-3.291,7.244-5.439c3.9-4.153,8.381-7.823,12.603-11.64c8.49-7.674,15.497-16.923,24.272-24.24
		c8.222-6.857,17.032-12.728,24.164-20.825c3.361-3.816,6.071-8.146,9.326-12.03c1.438-1.715,2.739-3.51,3.385-5.499
		c0.016,0,0.025,0.008,0.04,0.008c7.223,0.043,9.498-5.874,7.488-12.06c-0.496-1.524-1.261-2.948-2.096-4.31
		c-1.496-2.434-0.698-4.914-0.542-7.541c0.144-2.431-0.513-5.278-2.232-7.043c0.021-0.18,0.04-0.36,0.06-0.54
		c0.436-0.066,0.853-0.364,1.053-0.978c1.029-3.147,6.134-2.543,8.328-4.697c2.374-2.333,2.658-5.191,2.081-8.341
		C280.784,174.675,279.307,172.001,276.682,171.795z M227.994,85.851c2.282-1.818,4.525-3.674,6.768-5.528
		c1.533,7.498,5.128,14.722,7.149,22.09c1.84,6.705,2.395,14.199,5.83,20.338c1.684,3.009,4.065,5.614,5.953,8.489
		c2.616,3.985,4.659,8.328,6.233,12.818c1.328,3.79,2.215,7.734,3.113,11.641c0.793,3.448,1.746,6.891,1.912,10.422
		c-0.809-0.85-1.59-1.653-2.262-2.404c-6.578-7.341-11.565-16.356-17.228-24.396c-5.041-7.156-10.585-13.966-15.671-21.089
		c0.707,0.341,1.411,0.687,2.1,1.063c1.085,0.592,1.996,1.411,3.126,1.915c0.794,0.356,1.056-0.849,0.842-1.343
		c-1.078-2.497-4.516-3.35-6.856-4.16c-0.34-0.118-0.611,0.019-0.8,0.255c-0.285-0.412-0.575-0.821-0.856-1.236
		c3.1-1.49,5.534-4.679,6.866-7.746c0.41-0.943-0.746-2.421-1.539-1.327c-2.001,2.768-3.597,5.498-6.265,7.675
		c-2.008-3.009-3.962-6.049-6.092-8.977c-1.761-2.423-3.964-5.676-6.884-6.858c-0.57-0.587-1.135-1.172-1.693-1.758
		C216.455,94.561,226.475,87.061,227.994,85.851z M138.2,106.802c-6.895,0.772-13.666,1.172-20.604,1.021
		c-3.24-0.071-7.687-0.133-8.898-3.821c-1.267-3.857-1.532-8.13-1.734-12.156c-0.371-7.403,0.538-14.851,1.16-22.216
		c0.376-4.443-0.437-8.236,2.036-11.915c10.015,1.455,20.574,2.381,30.624,0.745c3.911-0.637,7.877-1.573,11.67-2.726
		c1.924-0.586,5.388-2.114,7.958-2.073c0.203,0.173,0.401,0.356,0.608,0.521c0.42,0.332,0.811,0.167,1.071-0.174
		c0.034,0.016,0.072,0.026,0.104,0.043c0.203,0.108,0.388,0.16,0.559,0.169c-0.064,4.312,0.745,8.739,0.739,13.059
		c-0.007,5.584-0.614,11.166-1.56,16.664c-0.178,1.034,0.627,1.75,1.353,1.737c-0.008,0.008-0.017,0.013-0.026,0.021
		c-0.093,0.085-0.16,0.196-0.212,0.315c-7.833,4.903-14.285,11.739-20.754,18.258c-1.013,1.021-2.022,2.044-3.028,3.066
		C139.063,106.981,138.709,106.745,138.2,106.802z M111.28,123.366c1.307-3.349,8.703-1.539,13.229-1.581
		c-2.081,1.884-4.211,3.721-6.415,5.492c-2.148,1.727-4.229,3.545-6.261,5.423C110.054,130.923,110.616,125.068,111.28,123.366z
		 M27.714,81.327c-1.719-2.618,1.444-7.097,3.662-10.583c1.185,4.289,4.642,8.69,7.203,11.227
		c5.51,5.456,13.315,9.291,20.612,11.784c0.015,0.117,0.041,0.231,0.088,0.332c0.883,1.896,4.514,2.918,6.321,3.702
		c1.264,0.548,3.352,1.562,4.996,1.35c0.063,0.449,0.025,0.905-0.149,1.378c-0.28,0.765-0.875,0.961-1.519,1.17
		c-0.182-0.452-0.568-0.783-1.168-0.731c-4.719,0.405-9.131-1.491-13.472-3.095c-5.07-1.873-9.908-4.119-14.597-6.805
		C35.169,88.464,30.64,85.786,27.714,81.327z M51.674,218.396c-0.969-5.439-3.448-10.883-6.16-16.076
		c0.067,0.079,0.136,0.156,0.226,0.213c0.19,0.12,0.413,0.106,0.597-0.016c0.77-0.51,0.478-1.492,0.399-2.271
		c-0.124-1.218-0.187-2.482,0.007-3.696c0.051-0.321-0.354-0.771-0.616-0.393c-0.652,0.943-0.835,1.924-0.91,3.052
		c-0.045,0.673-0.227,1.771,0.008,2.563c-1.08-2.05-2.187-4.056-3.246-6.007c0.239-0.307,0.36-0.717,0.211-1.158
		c-1.112-3.298-0.502-6.726-1.171-10.101c-0.808-4.084-3.546-7.927-4.869-11.856c-3.128-9.292-3.846-17.919-2.035-27.569
		c0.745-3.964,1.652-7.939,2.667-11.845c1.044-4.019,2.802-7.694,3.44-11.827c1.373-8.902-1.291-17.888-0.018-26.824
		c4.344,2.366,8.794,4.463,13.465,6.134c4.552,1.627,9.221,3.718,14.164,3.141c0.329-0.039,0.588-0.185,0.783-0.389
		c0.037,0.018,0.075,0.024,0.112,0.042c-0.331,2.9,0.123,5.806,0.011,8.739c-0.191,4.97-1.499,10.038-2.564,14.881
		c-1.757,7.975-4.569,15.172-4.861,23.455c-0.306,8.619,1.739,16.918,2.911,25.383c0.409,2.957-1.401,6.031-0.68,8.849
		c0.656,2.568,2.952,3.955,3.662,6.528c0.095,0.343,0.268,0.558,0.465,0.707c-1.271,2.76-2.581,5.504-3.894,8.248
		c-0.24,0.502-0.458,1.011-0.672,1.521c-0.026-1.507-0.433-3.13-0.57-4.466c-0.137-1.34-0.136-2.566,0.413-3.821
		c0.109-0.248,0.174-0.782-0.073-0.99c-0.023-0.021-0.048-0.043-0.073-0.062c-0.253-0.215-0.634-0.369-0.933-0.114
		c-1.992,1.698-1.492,4.961-1.229,7.272c0.248,2.188,0.387,3.696-1.145,5.547c-0.654,0.789-1.491,1.376-2.411,1.769
		c0.29-0.229,0.56-0.478,0.796-0.707c0.943-0.914,1.641-1.958,2.177-3.152c0.174-0.388,0.107-0.986-0.308-1.209
		c-0.968-0.521-1.882-1.145-2.748-1.822c-0.478-0.375-0.993,0.088-1.11,0.59c-0.387,0.355-0.84,0.649-1.26,0.96
		c-0.273,0.202-0.111,0.847,0.266,0.676c0.464-0.21,1.194-0.221,1.741-0.427c0.501,0.36,1.013,0.705,1.532,1.038
		c-0.359,0.458-0.729,0.908-1.127,1.333c-0.752,0.804-2.002,1.166-2.602,2.046c-0.249,0.364-0.255,0.928,0.066,1.234
		c-0.134,0.002-0.267-0.004-0.401-0.009c0.606-3.808-0.228-7.142-1.248-10.921c-1.583-5.86,0.708-11.983,7.648-11.492
		c1.453,0.103,1.374-2.416-0.062-2.547c-4.457-0.401-8.592,1.903-9.96,6.34c-1.951,6.324,2.388,12.115,1.24,18.466
		c-0.789,0.434-0.784,1.99,0.248,2.401c3.576,1.433,7.375-0.497,9.531-3.458c-0.906,2.95-1.619,5.96-2.492,8.947
		c-1.371,4.697-3.962,8.718-4.28,13.683c-0.209,3.3,0.425,6.404,1.562,9.342C52.412,232.316,52.911,225.342,51.674,218.396z
		 M133.809,315.477c-4.367-2.319-8.113-6.353-11.783-9.627c-3.768-3.359-7.434-6.83-10.98-10.422
		c-6.987-7.079-13.923-14.066-21.208-20.853c-7.281-6.783-14.05-14.093-20.49-21.672c-6.381-7.506-14.275-16.76-11.528-27.465
		c1.087-4.238,3.293-8.218,4.457-12.489c1.459-5.354,3.131-10.252,5.587-15.239c3.493-7.091,7.209-14.835,8.875-22.686
		c0.021-0.032,0.044-0.057,0.064-0.088c0.965-1.596,2.083-3.066,3.277-4.475c-0.901,3.885,0.115,8.695,0.007,12.68
		c-0.12,4.47-0.48,9.034,0.265,13.464c0.131,0.778,0.768,0.943,1.292,0.723c4.866,8.784,13.821,14.523,20.268,22.199
		c8.87,10.562,18.222,20.66,27.548,30.812c8.76,9.535,17.463,18.662,27.165,27.246c4.807,4.254,9.287,8.875,13.871,13.362
		c3.47,3.398,7.124,7.476,11.28,10.293c-7.644,3.784-14.088,9.691-21.941,13.164C151.896,317.914,141.747,319.694,133.809,315.477z
		 M257.794,231.33c-3.038,4.016-6.209,7.873-9.828,11.381c-0.432,0.42-0.883,0.814-1.326,1.222c-0.06-0.154-0.142-0.307-0.263-0.445
		c-8.417-9.722-18.552-17.789-27.347-27.161c-9.105-9.701-17.847-19.768-25.937-30.331c-8.198-10.71-16.295-21.496-24.502-32.201
		c-3.922-5.116-7.316-10.654-11.379-15.651c-3.626-4.458-7.586-8.541-11.136-13.058c0.409-0.293,0.702-0.829,0.584-1.476
		c-0.858-4.73-0.221-12.175-3.654-15.958c-0.214-0.237-0.475,0.004-0.486,0.253c-0.137,2.829,0.568,5.671,0.855,8.483
		c0.262,2.583,0.528,5.168,1.021,7.719c-0.218,0.219-0.351,0.56-0.251,0.859c1.608,4.807,5.412,8.519,8.75,12.193
		c4.215,4.64,7.451,9.996,11.147,15.039c8.265,11.279,16.962,22.272,25.365,33.453c8.32,11.072,17.352,21.544,26.745,31.715
		c9.067,9.817,19.613,18.179,28.365,28.279c0.034,0.039,0.07,0.066,0.106,0.101c-6.232,5.384-13.132,9.948-19.187,15.534
		c-7.31,6.745-13.504,14.588-20.844,21.337c-3.504,3.223-7.069,6.379-10.496,9.683c-2.79,2.69-5.256,5.643-8.177,8.184
		c-0.101-0.107-0.219-0.206-0.37-0.283c-4.981-2.554-9.233-7.457-13.225-11.316c-4.618-4.468-9.139-9.032-13.913-13.338
		c-9.621-8.675-18.452-17.673-27.217-27.218c-8.984-9.781-18.032-19.459-26.673-29.554c-3.771-4.408-7.611-8.453-11.979-12.278
		c-3.502-3.07-7.202-6.349-10.229-9.961c0.022-0.095,0.05-0.187,0.049-0.294c-0.07-4.891-0.069-9.745,0.015-14.64
		c0.061-3.578,0.628-8.769-1.78-11.722c-0.003-0.004-0.006-0.004-0.009-0.006c1.706-1.951,3.545-3.795,5.336-5.676
		c3.808-3.994,7.32-8.292,11.055-12.36c4.879-5.317,9.845-10.603,15.112-15.556c0.792,0.151,1.725-0.02,2.823-0.649
		c0.743-0.426,0.714-1.521,0.241-2.156c1.756-1.567,3.542-3.101,5.38-4.57c15.866-12.687,27.733-30.292,45.049-41.142
		c0.366-0.228,0.541-0.602,0.577-1.001c4.015-1.006,8.104-1.62,12.103-2.75c5.465-1.545,11.809-4.872,17.306-1.958
		c3.821,2.025,6.454,6.217,8.926,9.614c2.775,3.814,5.888,7.241,9.674,10.084c0.272,0.204,0.528,0.247,0.757,0.189
		c1.253,1.5,2.614,2.941,3.73,4.455c2.554,3.462,4.75,7.191,7.147,10.762c5.164,7.693,11.09,14.899,16.478,22.439
		c5.315,7.438,10.272,15.112,15.65,22.506c1.695,2.331,3.498,4.434,5.415,6.581c1.901,2.131,4.993,5.151,5.077,8.202
		c-1.556,6.857-1.211,14.444-1.96,21.415c-0.749,6.962-1.829,13.889-2.461,20.861c-0.064,0.712,0.413,1.155,0.956,1.273
		C264.395,224.212,259.787,228.695,257.794,231.33z M270.393,207.617c2.752,5.193,4.352,10.929-2.94,12.093
		c-0.012-0.502-0.066-1.017-0.18-1.546c-0.104-0.491-0.325-0.785-0.591-0.922c0.916-6.585,1.65-13.207,2.338-19.815
		c0.056-0.534,0.115-1.076,0.178-1.621C269.788,199.683,268.378,203.816,270.393,207.617z M276.499,183.866
		c-2.375,1.237-4.702,1.325-6.361,2.705c0.173-2.816,0.163-5.621-0.229-8.31c0.627-0.069,1.22-0.538,1.228-1.424
		c0.002-0.212-0.02-0.423-0.036-0.633c1.698-0.621,3.013-1.582,4.97-1.683c1.921-0.101,2.493,1.812,2.851,3.278
		C279.515,180.238,278.838,182.648,276.499,183.866z"/>
	<path d="M292.174,161.973c3.021,12.504,1.352,24.851-0.827,37.308c-0.234,1.343,1.471,1.96,1.876,0.554
		c3.558-12.353,2.95-25.786-0.46-38.072C292.635,161.302,292.07,161.549,292.174,161.973z"/>
	<path d="M300.106,154.047c-0.676-1.059-1.895,0.041-1.372,1.008c4.506,8.361,6.813,17.56,7.804,26.963
		c0.848,8.047,1.302,16.897-2.339,24.352c-0.723,1.479,1.291,3.006,2.152,1.377c3.925-7.407,3.389-16.646,2.616-24.723
		C307.998,172.891,305.642,162.705,300.106,154.047z"/>
	<path d="M320.487,171.696c-1.196-9.85-4.132-21.093-9.902-29.32c-0.38-0.542-1.062,0.155-0.884,0.647
		c3.19,8.806,6.646,17.09,8.171,26.411c1.72,10.508,1.078,21.451-2.698,31.444c-0.574,1.516,1.484,3.113,2.159,1.383
		C321.141,192.487,321.744,182.039,320.487,171.696z"/>
	<path d="M63.524,260.56c-7.159-2.624-11.818-8.926-15.087-15.537c-1.688-3.414-2.856-7.062-3.752-10.755
		c-0.836-3.449-0.827-7.018-1.592-10.448c-0.191-0.857-1.281-0.773-1.463,0.037c-1.61,7.133,1.854,16.243,4.766,22.619
		c3.341,7.319,8.812,14.024,16.528,16.854C64.517,263.913,65.027,261.11,63.524,260.56z"/>
	<path d="M50.036,265.961c-13.509-9.314-19.959-26.318-16.743-42.253c0.146-0.723-0.888-1.394-1.188-0.551
		c-5.639,15.855,3.07,36.206,16.863,45.019C50.299,269.026,51.192,266.756,50.036,265.961z"/>
	<path d="M40.594,284.299c-9.895-5.208-15.979-17.558-20.27-27.416c-2.688-6.179-4.035-12.927-4.894-19.581
		c-0.865-6.705,0.057-12.742,1.272-19.301c0.086-0.459-0.504-1.11-0.873-0.566c-3.285,4.842-3.227,11.61-2.944,17.228
		c0.373,7.441,2.016,14.993,4.629,21.95c2.309,6.146,5.679,11.989,9.221,17.504c3.255,5.066,7.248,9.839,12.646,12.678
		C40.948,287.619,42.018,285.049,40.594,284.299z"/>
</g>
</svg>
