<?xml version="1.0" encoding="utf-8"?>
<!-- Generator: Adobe Illustrator 15.1.0, SVG Export Plug-In . SVG Version: 6.00 Build 0)  -->
<!DOCTYPE svg PUBLIC "-//W3C//DTD SVG 1.1//EN" "http://www.w3.org/Graphics/SVG/1.1/DTD/svg11.dtd">
<svg version="1.1" id="Layer_1" xmlns="http://www.w3.org/2000/svg" xmlns:xlink="http://www.w3.org/1999/xlink" x="0px" y="0px"
	 width="325.984px" height="327.39px" viewBox="0 0 325.984 327.39" enable-background="new 0 0 325.984 327.39"
	 xml:space="preserve">
<path d="M272.694,12.493c0.697-0.571,1.057-1.52,1.528-2.277c0.624-1.002,1.309-1.974,2.03-2.907
	c0.358-0.461-0.096-1.535-0.703-1.047c-0.862,0.691-1.633,1.457-2.306,2.338c-0.649,0.85-1.455,1.816-1.708,2.867
	C271.39,12.076,272.039,13.029,272.694,12.493z"/>
<path d="M270.969,21.998c0.729-0.683,0.896-1.854,1.436-2.711c0.713-1.135,1.651-2.161,2.629-3.07
	c0.267-0.247,0.044-0.896-0.32-0.621c-1.116,0.846-2.227,1.664-3.154,2.723c-0.767,0.878-1.636,2.083-1.441,3.288
	C270.174,21.956,270.662,22.286,270.969,21.998z"/>
<path d="M275.789,25.83c-0.721,1.002-1.372,2.051-1.983,3.124c-0.628,1.103-1.577,2.188-1.677,3.478
	c-0.024,0.306,0.298,0.677,0.621,0.544c0.975-0.4,1.354-1.559,1.813-2.442c0.688-1.322,1.312-2.674,2.066-3.958
	C276.934,26.059,276.21,25.243,275.789,25.83z"/>
<path d="M272.214,43.857c-0.129,0.62,0.456,1.437,1.109,0.976c1.063-0.749,1.626-2.228,2.279-3.327
	c0.866-1.458,1.723-2.913,2.677-4.318c0.471-0.694-0.319-1.938-0.98-1.119c-0.991,1.225-1.921,2.49-2.818,3.785
	C273.644,41.06,272.513,42.406,272.214,43.857z"/>
<path d="M274.29,53.327c0.886-1.389,1.722-2.796,2.77-4.071c0.638-0.775-0.362-2.199-1.131-1.293
	c-0.946,1.113-1.835,2.271-2.674,3.466c-0.856,1.221-2.111,2.445-2.642,3.836c-0.288,0.754,0.261,1.762,1.123,1.289
	C272.894,55.918,273.597,54.413,274.29,53.327z"/>
<path d="M272.919,71.668c0.837-1.323,1.237-2.922,1.859-4.363c0.751-1.736,1.636-3.456,2.652-5.051
	c0.564-0.889-0.509-2.451-1.227-1.387c-1.954,2.9-4.586,6.503-4.789,10.104C271.373,71.706,272.425,72.449,272.919,71.668z"/>
<path d="M270.378,89.12c1.129-0.868,1.551-2.381,2.172-3.627c0.89-1.785,1.794-3.563,2.696-5.342
	c0.489-0.965-0.762-1.95-1.389-0.915c-0.917,1.512-1.815,3.031-2.682,4.571c-0.798,1.421-1.852,2.976-1.836,4.645
	C269.344,88.955,269.889,89.494,270.378,89.12z"/>
<path d="M267.784,102.805c0.538-1.144,0.55-2.468,1.051-3.658c0.536-1.27,1.349-2.411,2.125-3.542
	c0.603-0.881-0.465-2.423-1.235-1.387c-1.549,2.086-4.436,5.595-3.362,8.402C266.612,103.272,267.423,103.571,267.784,102.805z"/>
<path d="M266.617,117.494c0.418-1.463,0.42-2.876,1.017-4.328c0.681-1.652,1.646-3.17,2.655-4.637
	c0.58-0.842-0.411-2.31-1.189-1.332c-2.09,2.628-5.445,7.001-3.997,10.568C265.448,118.613,266.427,118.163,266.617,117.494z"/>
<path d="M269.38,121.073c-1.803,2.809-3.842,6.031-3.878,9.479c-0.013,1.23,1.588,1.453,1.884,0.25
	c0.762-3.112,1.75-5.75,3.401-8.515C271.303,121.424,270.01,120.089,269.38,121.073z"/>
<path d="M268.864,135.496c-0.69,1.719-1.511,3.395-2.094,5.156c-0.419,1.269-1.15,2.97-0.201,4.133
	c0.31,0.38,0.796,0.28,1.101-0.027c0.806-0.812,0.806-2.647,1.169-3.727c0.505-1.506,1.14-2.968,1.686-4.461
	C270.948,135.41,269.408,134.145,268.864,135.496z"/>
<path d="M107.867,142.256c0.429,0.618,1.301,0.132,1.398-0.474c0.261-1.619-0.211-3.481-0.211-5.142
	c0-2.046,0.122-4.085,0.097-6.121c-0.003-0.234-0.165-0.392-0.343-0.419c0.11-0.596-0.116-1.265-0.763-1.405
	c-2.833-0.613-5.417-1.956-8.215-2.681c-2.526-0.656-4.332,0.524-6.263,1.959c-0.368-2.679-1.245-5.428-1.533-7.509
	c-0.021-0.153-0.065-0.286-0.119-0.409c0.043-0.395,0.028-0.814-0.064-1.261c-0.607-2.913-5.587-2.407-7.61-2.217
	c-2.434,0.228-7.313,0.579-8.911,2.762c-0.179,0.243-0.237,0.643-0.189,1.027c-0.003-0.001-0.006-0.002-0.009-0.004
	c-0.801-0.567-1.505,0.861-0.878,1.417c0.25,0.221,0.524,0.403,0.792,0.595c0,0.022-0.006,0.044-0.003,0.068
	c0.471,4.191,0.711,8.403,0.979,12.613c-0.806-0.054-1.57-0.003-2.174,0.242c-0.024,0.01-0.042,0.028-0.064,0.04
	c-3.376-0.083-6.903,1.717-7.946,5.067c-0.468,1.501-0.14,2.636,0.621,3.501c-0.749,4.27-1.931,9.977,2.152,12.749
	c3.644,2.475,9.646,0.546,13.11-1.869c0.257,0.244,0.613,0.312,1.001,0.001c0.209-0.167,0.4-0.349,0.576-0.542
	c1.366,1.786,3.514,3.129,5.486,3.954c1.198,0.501,1.51-1.538,0.707-2.129c-1.701-1.251-3.813-1.95-5.065-3.675
	c0.369-0.931,0.561-1.971,0.622-3.057c0.247,0.28,0.611,0.417,1.061,0.253c8.659-3.161,15.479-10.391,21.534-17.125
	c-0.282,1.149-0.385,2.333-0.461,3.589C107.067,137.928,106.743,140.639,107.867,142.256z M88.919,119.154
	c1.154,0.252,0.992,0.661,0.354,1.514c-0.959,1.279-3.315,1.443-4.739,1.558c-2.354,0.19-5.473-0.029-7.876-1.049
	C80.227,119.43,85.008,118.301,88.919,119.154z M67.929,141.025c0.599-2.725,4.445-3.353,6.965-3.332
	c0.915,0.146,1.922,0.11,2.786,0.259c1.47,0.252,2.947,0.677,4.173,1.546c1.576,1.118,0.272,2.951-1.033,3.566
	c-1.683,0.793-3.701,0.875-5.528,0.909C73.528,144.007,67.282,143.972,67.929,141.025z M82.2,151.994
	c-0.247-0.099-0.542-0.073-0.861,0.152c-3.028,2.141-7.139,3.771-10.867,2.792c-3.614-0.949-2.863-6.581-2.928-10.132
	c2.106,1.311,5.43,1.665,7.339,1.7c2.387,0.043,5.764-0.38,7.889-1.871C82.838,147.166,83.339,149.704,82.2,151.994z M77.97,134.428
	c-0.25-3.873-0.292-7.821-1.856-11.386c2.927,1.589,6.605,1.849,9.841,1.466c1.469-0.174,3.176-0.771,4.392-1.777
	c0.835,3.36,2.18,7.529,0.489,10.173C88.559,136.463,81.703,135.314,77.97,134.428z M85.454,147.083
	c-0.172,0.062-0.311,0.158-0.423,0.276c-0.103-1.562-0.387-3.112-0.711-4.453c0.448-0.894,0.591-1.985,0.256-3.329
	c-0.193-0.778-0.645-1.404-1.222-1.918c3.066,0.166,6.117-0.333,8.368-2.311c1.64-1.441,2.078-3.485,1.995-5.688
	c0.011-0.003,0.019,0,0.03-0.004c1.096-0.39,2.121-0.911,3.189-1.365c1.282-0.544,2.758,0.059,3.982,0.464
	c1.885,0.623,3.667,1.452,5.564,2.012C100.329,136.958,93.834,144.052,85.454,147.083z"/>
<path d="M65.935,157.471c3.102,4.858,8.526,8.016,13.584,10.57c1.009,0.511,1.842-0.976,1.055-1.689
	c-4.218-3.821-10.239-5.146-14.468-9.043C65.999,157.21,65.863,157.359,65.935,157.471z"/>
<path d="M42.421,174.742c0.947,0.039,1.972-0.203,2.917-0.296c1.393-0.139,2.791-0.341,4.138-0.729
	c1.191-0.342,0.717-2.504-0.565-2.193c-1.314,0.318-2.671,0.405-4.016,0.521c-0.976,0.083-2.165,0.017-3.015,0.567
	C41.037,173.159,41.411,174.7,42.421,174.742z"/>
<path d="M27.145,225.164c-2.125,0.302-4.08-0.407-6.062-1.057c-0.226-4.378-0.665-8.734-1.182-13.089
	c-0.469-3.933-0.607-8.181-1.565-12.021c-0.301-1.207-0.89-9.242-2.488-8.754c-0.025,0.009-0.051,0.017-0.077,0.025
	c-0.47,0.144-0.655,0.65-0.673,1.091c-0.124,2.813,0.641,5.903,1.309,8.622c0.975,3.972,1.053,8.427,1.523,12.491
	c0.485,4.199,0.844,8.406,1.034,12.628c0.022,0.52,0.308,1.031,0.827,1.19c2.546,0.78,5.015,1.859,7.689,1.235
	C28.623,227.26,28.353,224.994,27.145,225.164z"/>
<path d="M7.129,129.792c7.378-0.062,14.411-3.583,21.376-5.702c0.241,1.424,0.748,2.814,1.522,4.012
	c0.039,0.06,0.085,0.112,0.127,0.17c-3.149,3.587-5.233,7.874-8.731,11.207c-0.598,0.569-0.649,1.71,0.009,2.163
	c-1.388,2.94-0.941,6.92-0.645,9.967c0.392,4.024,0.968,8.406,2.301,12.271c-0.508,0.458-0.872,1.042-0.858,1.762
	c0.006,0.354,0.091,0.662,0.217,0.942c-0.004,0.017-0.014,0.03-0.016,0.049c-0.381,3-0.013,5.884,0.488,8.846
	c0.262,1.55,0.383,4.206,1.342,5.675c-1.183,1.14-2.283,2.367-3.407,3.564c-1.149,1.224-2.439,2.527-3.284,4.009
	c-0.925-0.279-1.385,1.549-0.535,1.974c4.089,2.044,8.564,1.144,12.817,2.489c1.02,0.322,1.421-0.915,1.04-1.722
	c0.288-0.666,0.727-1.208,1.344-1.648c1.027-0.734,0.146-2.827-1.056-2.02c-0.984,0.661-1.631,1.631-2.043,2.709
	c-3.052-0.838-6.302-0.355-9.387-1.058c0.854-1.027,1.653-2.119,2.542-3.11c1.129-1.26,2.247-2.529,3.135-3.972
	c2.868,2.184,7.725,1.93,9.893-0.879c0.615-0.796-0.171-2.529-1.207-1.732c-2.013,1.554-3.641,1.949-6.042,1.067
	c-1.332-0.488-2.1-0.636-2.391-2.057c-0.734-3.597-1.354-7.198-1.959-10.814c0.421,0.271,0.882,0.496,1.328,0.698
	c3.604,1.621,8.753,1.37,12.256-0.693c0.238,1.581,0.334,3.168,0.477,4.774c0.133,1.498,0.226,3.663,1.649,4.484
	c-1.175,0.575-2.209,1.42-3.191,2.622c-0.95,1.161-1.167,2.98,0.022,4.037c-0.286,0.066-0.534,0.294-0.613,0.772
	c-0.506,3.057-0.708,6.903,0.027,10.346c-2.055,0.67-4,1.606-6.261,1.743c-0.755,0.045-1.036,0.816-0.888,1.451
	c-0.101,0.297-0.108,0.635,0.038,0.962c1.753,3.905,3.275,7.883,4.564,11.962c-0.979,1.947,0.438,8.479,0.586,9.535
	c1.11,7.898,1.208,16.106,2.968,23.903c-5.578-4.911-4.715-12.898-4.909-19.647c-0.248-8.626-1.558-17.921-3.46-26.341
	c-0.243-1.08-1.788-0.767-1.667,0.304c1.091,9.646,2.847,19.312,2.978,29.031c0.088,6.592,0.196,13.806,5.527,18.495
	c0.284,0.249,0.577,0.33,0.847,0.302c0.082,0.447,0.379,0.837,0.917,0.824c7.258-0.165,14.484-1.016,21.698-1.771
	c0.02-0.002,0.037-0.01,0.056-0.014c0.522,1.705,1.169,3.364,1.987,4.878c0.183,0.339,0.444,0.481,0.713,0.509
	c-0.046,0.115-0.103,0.225-0.143,0.343c-0.309,0.915-0.333,1.719-0.17,2.439c-0.372,0.251-0.645,0.718-0.533,1.3
	c1.205,6.253,1.525,12.665,3.055,18.856c-0.789,0.129-1.136,1.518-0.521,2.065c5.046,4.496,14.435,2.732,19.421-1.062
	c1.116-0.848,0.082-3.152-1.167-2.192c-3.744,2.874-11.346,4.876-15.842,2.23c0.252-0.277,0.395-0.685,0.282-1.163
	c-1.356-5.755-1.862-11.645-2.91-17.452c2.091,1.615,5.445,2.367,7.618,2.642c2.946,0.369,7.057,0.37,9.681-1.315
	c1.15,5.049,1.141,10.364,3.018,15.207c0.558,1.44,2.429,0.746,2.004-0.693c-1.574-5.314-1.776-10.914-3.313-16.219
	c0.432-0.7,0.725-1.529,0.807-2.535c0.14-1.702-1.077-4.208-2.809-6.089c5.839-2.104,0.268-13.349-1.229-17.722
	c0.614-1.538,0.66-3.173-0.3-4.824c-1.226-2.105-3.771-3.024-6.141-3.319c-0.034-0.405-0.262-0.771-0.735-0.868
	c-0.371-0.075-0.741-0.123-1.112-0.157c0.201-0.258,0.315-0.606,0.221-1.03c-0.081-0.363-0.151-0.73-0.213-1.099
	c1.748-0.464,3.354-0.49,5.16-0.399c1.577,0.08,3.227,0.275,4.597-0.613c0.296,0.202,0.678,0.239,1.089-0.032
	c5.054-3.337,5.7-9.974,5.286-15.963c0.343,0.418,0.724,0.822,1.192,1.195c3.404,2.717,8.084,3.613,11.839,5.722
	c0.638,0.356,1.189,0.037,1.455-0.493c4.171-0.146,7.547-3.617,10.325-6.378c3.929-3.905,7.319-7.758,12.264-10.392
	c0.5-0.266,0.587-0.863,0.411-1.364c0.715,0.689,2.028-0.074,1.698-1.293c-2.967-10.989-1.948-22.339-2.969-33.559
	c0.321-0.291,0.463-0.816,0.389-1.298c0.068-0.154,0.143-0.306,0.207-0.461c0.531-1.285-0.999-2.539-1.823-1.179
	c-0.062,0.104-0.131,0.202-0.195,0.305c-3.033-1.082-5.901-2.586-9.01-3.47c-0.372-0.105-0.668-0.002-0.88,0.207
	c-0.034-0.22-0.077-0.437-0.114-0.656c0.349-0.758,0.348-1.703-0.201-2.881c-1.482-3.185-7.928-2.718-10.736-2.607
	c-0.469,0.019-0.772,0.293-0.925,0.653c-2.375,0.333-4.678,1.304-5.552,2.917c-0.136,0.253-0.228,0.493-0.279,0.72
	c-0.147-0.097-0.375-0.121-0.531-0.058c-1.565,0.626-0.974,3.89-0.933,5.128c0.102,2.998,0.257,5.921,1.858,8.543
	c1.692,2.771,4.927,3.326,7.898,2.904c2.65-0.376,7.867-1.675,9.383-4.048c0.049-0.076,0.086-0.174,0.117-0.279
	c0.346-0.129,0.623-0.463,0.595-0.982c-0.131-2.376-0.135-4.867-0.345-7.298c0.051,0.025,0.101,0.05,0.158,0.067
	c2.804,0.833,5.401,2.184,8.111,3.253c-2.836,4.089-6.229,7.662-9.912,11.08c-2.178,2.021-4.47,3.921-6.851,5.699
	c-1.383,1.033-3.389,1.847-4.103,3.497c-0.015,0.032-0.016,0.066-0.023,0.1c0.051-0.366-0.025-0.751-0.263-0.966
	c-1.786-1.603-4.689-2.215-6.884-3.125c-2.409-1-5.431-2.222-7.228-4.299c0.738-0.645,1.481-1.28,2.241-1.898
	c1.369-1.114,2.959-2.07,4.164-3.36c0.591-0.634,0.019-2.369-0.986-1.869c-1.565,0.779-2.922,2.066-4.269,3.173
	c-0.714,0.588-1.409,1.192-2.088,1.817c-0.405-0.146-0.864,0.026-1.012,0.698c-0.026,0.117-0.036,0.236-0.06,0.354
	c-0.251,0.251-0.513,0.486-0.757,0.743c-0.51,0.539-0.161,1.586,0.41,1.873c-0.301,4.103,0.483,8.21,1.243,12.269
	c0.486,2.603,0.669,5.124,0.765,7.652c-1.301-5.386-3.136-10.721-5.544-15.6c0.013-0.014,0.024-0.028,0.037-0.042
	c0.218-0.224,0.29-0.536,0.265-0.851c0.754-0.319,0.683-1.823-0.151-1.99c-3.844-0.77-8.053,0.774-12.029,0.83
	c-0.086-0.016-0.177-0.018-0.273-0.002c-0.189-0.001-0.379-0.001-0.566-0.009c-0.083-0.004-0.161,0.003-0.232,0.018
	c0.183-0.197,0.319-0.461,0.35-0.808c0.308-3.569-1.723-7.522-1.096-11.081c0.123-0.187,0.251-0.369,0.353-0.575
	c0.268-0.548,0.137-1.423-0.437-1.742c-2.08-1.158-4.462-1.722-6.775-2.23c-0.266-0.058-0.486-0.004-0.668,0.107
	c-2.458-0.886-7.198-0.844-9.048,0.973c-0.197-0.191-0.475-0.26-0.83-0.095c-1.354,0.629-2.338,1.147-3.433-0.16
	c-0.966-1.153-1.268-2.956-1.57-4.379c-0.494-2.331-0.771-4.907-0.916-7.352c0.712,0.563,1.517,1.005,2.258,1.227
	c3.006,0.9,8.942,0.694,11.818-1.803c-0.039,1.256-0.062,2.513-0.038,3.775c0.032,1.66-0.163,3.513,0.631,5.009
	c0.354,0.667,1.088,0.371,1.279-0.228c0.03-0.096,0.048-0.195,0.072-0.292c2.506-0.016,5.135-0.926,7.318-1.995
	c1.165-0.571,0.66-2.904-0.604-2.302c-2.142,1.021-4.36,1.498-6.574,2.162c-0.049-0.81-0.162-1.627-0.194-2.401
	c-0.088-2.133-0.16-4.267-0.255-6.399c-0.001-0.055-0.021-0.093-0.03-0.142c0.049-0.312,0.057-0.603,0.024-0.876
	c2.082-0.407,4.182-0.998,6.006-2.076c-0.064,0.719-0.111,1.439-0.128,2.164c-0.03,1.24-0.191,2.913,0.529,3.977
	c0.417,0.614,1.07,0.433,1.288-0.232c0.335-1.021,0.013-2.206-0.032-3.269c-0.054-1.273,0.009-2.552,0.157-3.817
	c0.007-0.055-0.007-0.102-0.008-0.154c0.018-0.016,0.037-0.029,0.055-0.045c0.595-0.551,0.673-1.554-0.05-2.056
	c-1.231-0.854-2.39-1.849-3.808-2.379c-1.313-0.493-1.636,1.809-0.48,2.307c0.677,0.291,1.302,0.709,1.913,1.148
	c-1.564,1.029-3.371,1.639-5.184,2.161c2.133-2.665,0.991-7.966,0.212-11.051c2.074-2.063,0.84-3.968-1.216-5.255
	c0.351-0.022,0.666-0.049,0.748-0.069c1.489-0.374,2.967-0.789,4.455-1.166c4.482-1.133,8.954-2.31,13.444-3.413
	c7.543-1.853,15.305-3.196,22.771-5.319c1.156-0.329,0.917-2.563-0.346-2.407c-5.707,0.703-11.46,2.192-17.136,3.715
	c3.271-5.789,0.212-15.415-0.186-21.247c-0.282-4.161,0.2-8.543,0.492-12.694c0.309-4.385,0.707-9.992,2.979-13.986
	c4.056,3.122,8.376,5.666,13.62,7.153c0.464,0.132,0.82-0.031,1.045-0.325c0.664,0.309,1.33,0.609,2.011,0.872
	c0.237,3.366,0.458,6.733,0.634,10.104c0.417,7.97,0.546,15.956,0.29,23.933c-0.201,6.241-2.483,13.886-0.22,19.929
	c0.562,1.499,2.543,0.751,2.07-0.717c-1.903-5.901,0.106-13.151,0.334-19.265c0.297-7.978,0.075-15.964-0.351-23.932
	c-0.168-3.138-0.384-6.273-0.621-9.407c0.23,0.052,0.457,0.118,0.692,0.156c1.13,0.183,1.489-1.634,0.407-1.888
	c-0.409-0.096-0.826-0.159-1.242-0.213c-0.326-4.142-0.688-8.281-1.059-12.418c-0.636-7.11-0.454-14.926-2.186-21.885
	c0.052,0.016,0.105,0.034,0.157,0.048c0.129,0.034,0.244,0.041,0.353,0.035c1.737,0.645,3.873,0.778,5.555,0.989
	c2.537,0.318,5.064,0.531,7.5-0.338c0.89-0.317,1.808-0.79,2.533-1.402c0.083,3.699,0.719,7.48,0.977,11.097
	c0.422,5.942,0.611,11.897,0.73,17.852c0.041,1.992,0.062,3.985,0.085,5.977c-0.995-0.086-1.986-0.233-3.014-0.499
	c-1.265-0.327-1.643,1.763-0.461,2.109c1.127,0.329,2.313,0.619,3.508,0.772c0.091,9.177,0.072,18.355,0.203,27.532
	c0.036,2.519,0.134,4.997,0.261,7.464c-2.009,0.302-4.018,0.479-6.017,0.413c-0.378-0.012-0.336,0.604,0.017,0.648
	c2.072,0.26,4.086,0.325,6.074,0.264c0.259,4.452,0.648,8.873,1.211,13.378c0.431,3.467,0.781,6.947,0.866,10.441
	c0.047,1.942,0.391,6.034-1.624,7.194c-1.231,0.708-0.197,2.994,1.178,2.202c2.305-1.325,2.887-4.562,2.89-7.838
	c1.188,0.404,2.698,0.469,3.559,0.618c3.343,0.578,8.682,1.995,7.822,6.518c-0.583,3.071-6.327,3.856-8.699,4.22
	c-3.001,0.46-6.147,0.101-9.106,0.628c-1.113,0.198-1.539,2.192-0.225,2.421c3.537,0.617,7.697-0.139,11.184-0.778
	c3.181-0.583,7.634-1.906,8.769-5.376c1.147-3.51-1.09-7.187-4.338-8.586c-2.015-0.867-4.136-1.244-6.301-1.529
	c-0.754-0.099-1.807-0.46-2.751-0.537c-0.124-1.838-0.349-3.536-0.458-4.73c-0.559-6.168-1.457-12.204-1.841-18.355
	c4.257-0.314,8.439-1.126,12.859-1.827c8.294-1.313,16.436-2.829,24.683-4.457c8.542-1.686,17.184-2.779,25.75-4.333
	c4.029-0.732,8.034-1.549,12.015-2.521c3.908-0.956,7.769-2.39,11.787-2.414c-0.009,0.8,0.002,1.601,0.03,2.403
	c-0.311,0.156-0.538,0.497-0.495,1.04c0.258,3.185,3.026,5.917,5.034,8.167c3.223,3.61,6.71,6.945,9.87,10.617
	c4.803,5.583,9.84,10.955,14.511,16.652c3.885,4.739,6.951,9.925,10.481,14.903c2.897,4.084,6.18,8.086,11.016,9.853
	c5.741,2.098,12.468-0.011,18.052-1.606c13.991-3.997,28.847-3.052,42.789-7.455c1.431-0.451,0.841-3.055-0.688-2.585
	c-12.509,3.842-25.629,3.161-38.228,6.216c-6.092,1.478-11.928,3.863-18.31,3.487c-6.176-0.365-10.262-5.725-13.483-10.396
	c-2.833-4.107-5.395-8.317-8.46-12.266c-3.983-5.127-8.392-9.915-12.71-14.758c-3.187-3.576-6.259-7.206-9.618-10.621
	c-2.292-2.327-7.32-6.164-8.158-9.695c0.401-0.163,0.715-0.567,0.687-1.212c-0.039-0.87-0.05-1.739-0.048-2.608
	c1.432,0.117,1.875-2.242,0.47-2.497c-0.137-0.024-0.276-0.036-0.414-0.058c0.169-4.479,0.658-8.958,0.687-13.437
	c0.048-7.726-1.005-15.441-1.104-23.17c-0.203-15.972,1.159-32.448,3.52-48.231c0.219-1.467-1.776-2.246-2.028-0.619
	c-1.154,7.464-1.995,15.015-2.593,22.588c-2.678-1.636-6.475-1.171-9.438-0.878c-5.322,0.524-10.838,0.189-15.882-1.688
	c-1.296-3.894-4.007-4.667-8.596-3.953c-7.317,1.139-15.205,1.469-22.596,1.158c-8.333-0.353-14.391-5.685-22.234-7.5
	c-3.841-0.889-8.158-0.387-12.062-0.32c-4.201,0.072-8.317-0.04-12.465-0.735c-4.096-0.688-9.459-1.751-13.279,0.41
	c-0.436-1.647-1.565-3.336-2.196-4.705c-0.892-1.936-2.051-3.975-3.966-4.992c-0.633-0.336-1.015,0.439-0.777,0.962
	c1.012,2.229,2.495,4.175,3.501,6.428c1.718,3.848,1.357,5.762-0.919,9.065c-1.368,1.985-2.994,4.962-0.769,6.932
	c0.964,0.854,1.77-0.381,1.397-1.324c-0.865-2.188,1.07-4.074,2.244-5.801c0.243,1.717,0.684,3.408,1.366,4.986
	c0.499,1.149,2.102,0.167,1.696-0.884c-0.895-2.318-1.493-4.704-1.684-7.18c0.143-0.591,0.234-1.211,0.272-1.901
	c5.481-1.936,11.922,0.502,17.468,0.999c4.511,0.404,9.076,0.148,13.597,0.148c5.348,0,9.405,1.159,14.149,3.557
	c3.183,1.609,6.339,3.177,9.866,3.873c3.969,0.784,8.111,0.69,12.132,0.541c3.902-0.146,7.792-0.511,11.692-0.698
	c2.477-0.12,7.169-1.97,9.246-0.045c0.174,0.161,0.324,0.357,0.46,0.576c-0.346,0.48-0.357,1.377,0.197,1.677
	c0.163,0.088,0.328,0.156,0.491,0.238c0.287,1.302,0.383,2.737,0.537,3.672c0.405,2.481,0.613,5,0.839,7.503
	c0.382,4.218,0.735,8.427,1.357,12.616c-0.229,0.42-0.153,1.035,0.198,1.406c0.717,4.779,0.741,9.874,2.285,14.471
	c1.2,3.568,4.244,2.973,5.694-0.127c1.92-4.102,0.461-9.533-0.075-13.847c1.853,0.135,3.672,0.506,5.463,1.509
	c3.283,1.837,6.103,4.096,9.753,5.184c0.227,5.695,0.747,11.386,0.955,17.076c0.174,4.759-0.418,9.503-0.646,14.253
	c-6.371-0.164-13.119,2.785-19.176,4.054c-8.954,1.877-18.044,3.021-27.041,4.653c-8.944,1.622-17.718,4.011-26.768,5.025
	c-4.709,0.527-9.491,1.961-14.272,2.87c-0.027-0.574-0.058-1.146-0.074-1.722c-0.302-10.936-0.226-21.877-0.327-32.815
	c0.545-0.027,1.086-0.089,1.619-0.211c0.507-0.116,0.706-0.585,0.679-1.058c10.363-0.944,20.67,0.636,31.068,0.362
	c5.831-0.154,11.677-0.806,17.472-1.443c4.882-0.537,10.232-1.999,15.079-0.719c0.981,0.259,1.158-1.237,0.345-1.59
	c-4.175-1.811-8.469-0.854-12.83-0.421c-5.811,0.576-11.629,1.123-17.458,1.485c-11.974,0.743-24.119-1.992-36.01,0.049
	c-0.011-0.731-0.012-1.462-0.024-2.194c-0.109-6.422-0.382-12.846-0.812-19.255c-0.314-4.702-0.333-10.062-1.775-14.679
	c0.064-0.538-0.019-1.121-0.316-1.75c-1.083-2.298-4.694-2.92-6.883-3.173c-2.307-0.267-4.659,0.355-6.856,0.981
	c-1.852,0.528-4.519,1.25-5.661,2.957c-1.004,1.5-0.057,2.772,1.226,3.488c-0.896,7.229,0.64,15.144,1.225,22.37
	c0.329,4.055,0.653,8.111,0.947,12.169c-0.544-0.041-1.087-0.098-1.628-0.169c0.028-0.545-0.22-1.116-0.802-1.306
	c-8.513-2.769-14.108-7.733-20.7-13.558c-5.979-5.283-12.895-9.208-20.272-12.183c-8.233-3.319-15.476-8.624-22.231-14.291
	c-6.784-5.69-12.902-12.306-20.461-17.002c-0.317-0.198-0.536,0.303-0.327,0.527c5.829,6.279,12.237,12.074,18.68,17.715
	c6.499,5.691,13.47,10.737,21.308,14.422c8.665,4.073,16.432,7.786,23.594,14.312c1.709,1.558,3.406,3.05,5.14,4.444
	c-4.665,5.83-4.15,15.89-4.417,22.861c-0.161,4.213,0.245,8.212,0.748,12.396c0.503,4.167,1.727,10.44-1.54,13.771
	c-0.204,0.208-0.302,0.45-0.325,0.692c-1.601,0.428-3.197,0.85-4.778,1.243c-1.208,0.3-15.437,3.46-17.162,5.788
	c-0.566-0.25-1.149-0.457-1.714-0.612c0.042-0.591-0.353-1.215-1.051-1.029c-2.09,0.559-4.54,0.879-6.589,1.672
	c-0.028-0.618-0.059-1.236-0.057-1.854c0.004-1.094,0.637-2.277,0.391-3.315c-0.043-0.183-0.142-0.32-0.271-0.412
	c0.279-1.921-1.692-3.468-3.999-4.063c-0.09-0.15-0.221-0.268-0.397-0.313c-3.387-0.865-9.509,0.223-11.958,2.854
	c-1.304,1.4-1.36,2.832-0.751,4.059c-0.218-0.012-0.468,0.083-0.756,0.32c-0.022,0.017-0.026,0.046-0.014,0.07
	c0.623,1.278,0.33,3.387,0.249,5.012c-7.146,1.989-13.888,4.743-21.288,5.736C5.723,127.561,5.719,129.804,7.129,129.792z
	 M104.579,145.538c0.004,0,0.007-0.003,0.011-0.003c0.998,0.071,1.991,0.199,2.975,0.455c1.037,0.271,2.481,1.072,0.875,1.883
	c-1.365,0.689-3.089,0.696-4.58,0.728c-1.529,0.033-3.08-0.082-4.589-0.331c-0.553-0.091-1.087-0.248-1.627-0.399
	c-0.447-0.129-0.883-0.292-1.306-0.487c-0.066-0.031-0.125-0.05-0.177-0.062C98.469,145.634,101.911,145.935,104.579,145.538z
	 M104.337,160.468c-2.729,0.969-6.096,1.565-8.334-0.701c-1.74-1.761-1.701-4.68-1.855-6.968c-0.067-1.001-0.113-2.004-0.135-3.007
	c-0.008-0.335,0.002-0.67,0.009-1.004c1.792,1.997,7.853,2.352,9.354,2.383c1.768,0.037,4.695-0.255,6.513-1.379
	c-0.433,2.764-0.523,5.799,0.15,8.393C108.146,158.371,106.052,159.858,104.337,160.468z M104.223,173.233
	c2.683-1.894,5.175-4.073,7.597-6.284c3.065-2.798,6.604-6.047,9.147-9.687c0.373,10.655-0.461,21.615,2.65,31.907
	c0.012,0.036,0.026,0.065,0.039,0.099c-0.234-0.249-0.554-0.396-0.935-0.291c-4.159,1.152-7.44,4.989-10.319,7.998
	c-3.432,3.587-6.608,6.969-11.25,8.771c0.044-4.8-0.605-9.569-0.675-14.371c-0.072-5.093,0.556-10.132-0.006-15.219
	c-0.03-0.277-0.126-0.504-0.258-0.683C101.667,175.353,103.143,173.997,104.223,173.233z M189.983,63.038
	c-0.065,0.568-1.046,3.656-1.542,2.916c-2.32-3.459-1.36-8.93-2.158-12.862c-0.07-0.347-0.122-0.695-0.187-1.043
	c1.061,0.026,2.109,0.011,3.145,0.016c0.249,2.184,0.594,4.351,0.772,6.543C190.135,60.081,190.15,61.568,189.983,63.038z
	 M206.668,52.415c-0.018,1.25-0.005,2.499,0.022,3.749c-3.903-1.508-6.98-4.455-10.891-5.834c-3.232-1.14-6.718-0.623-10.103-0.53
	c-1.155-7.407-1.33-14.938-2.632-22.33c3.579,1.316,7.327,1.701,11.217,1.994c4.512,0.34,9.229-1.856,13.317,0.801
	C207.076,37.652,206.775,45.055,206.668,52.415z M99.175,32.728c0.345-0.24,0.771-0.421,1.091-0.573
	c1.27-0.604,2.644-1.001,3.996-1.368c3.072-0.834,6.258-1.027,9.207,0.428c2.693,1.328-0.875,2.527-2.324,2.99
	c-1.277,0.407-2.952,0.146-4.258,0.055c-1.626-0.112-3.247-0.335-4.852-0.615c-0.674-0.117-1.335-0.278-2.001-0.433
	c-0.029-0.007-0.058-0.017-0.087-0.024c-0.23-0.1-0.45-0.217-0.672-0.332C99.246,32.807,99.211,32.766,99.175,32.728z
	 M31.338,129.548c2.58,2.112,6.671,2.231,9.79,1.852c0.043-0.005,0.073-0.029,0.114-0.038c-0.005,0.134-0.013,0.269-0.017,0.404
	c-0.011,0.459-0.026,0.96-0.023,1.47c-0.102,0.032-0.208,0.076-0.318,0.15c-2.767,1.846-4.506,4.956-7.587,6.35
	c-2.442,1.105-5.793,0.337-8.736-0.143C27.262,136.602,29.588,133.123,31.338,129.548z M23.01,141.915
	c3.25,0.301,6.849,1.374,9.985,0.524c0.353-0.096,0.688-0.219,1.018-0.354c-0.144,6.123-0.781,13.195,1.352,19.031
	c0.055,0.287,0.103,0.576,0.159,0.862c0.049,0.251,0.142,0.438,0.26,0.577c-1.045-0.245-2.147-0.302-3.076-0.122
	c-2.329-0.882-5.442-0.422-7.713,0.408C23.55,156.008,21.55,148.886,23.01,141.915z M36.628,165.538
	c-0.659,0.484-1.534,0.798-2.315,1.043c-2.79,0.877-6.064,0.69-8.749-0.39c-0.301-0.122-0.615-0.298-0.894-0.499
	c0.696-0.487,1.625-0.696,2.434-0.893c1.825-0.439,4.24-0.667,6.008,0.101c0.207,0.09,0.38,0.071,0.531,0.008
	c0.927,0.15,1.875,0.221,2.778,0.516c0.077,0.024,0.14,0.075,0.213,0.106C36.633,165.534,36.631,165.535,36.628,165.538z
	 M42.186,178.521c0.216,0.143,0.495,0.213,0.842,0.146c2.455-0.47,4.977-0.201,7.382,0.421c0.962,0.25,4.004,1.22,2.417,2.708
	c-1.131,1.057-3.208,1.088-4.65,1.187c-2.296,0.157-4.615-0.003-6.902-0.189c-0.219-0.02-3.813-0.407-3.631-0.934
	C38.264,180.058,40.348,179.164,42.186,178.521z M37.41,184.629c3.28,1.635,8.924,1.132,12.138,0.821
	c0.981-0.094,2.287-0.502,3.449-1.134c-0.511,4.166-0.273,8.854,0.544,12.702c-4.286,2.206-8.894,4.954-13.551,2.031
	c-0.797-0.498-1.374-1.329-1.799-2.338c0.065-0.037,0.136-0.068,0.199-0.106c1.042-0.615,0.317-2.332-0.827-2.114
	c-0.007,0.002-0.015,0.004-0.022,0.006c-0.622-3.222-0.325-7.168-0.061-9.298C37.508,184.988,37.469,184.802,37.41,184.629z
	 M30.786,198.956c1.896-0.155,3.882-0.641,5.666-1.389c0.458,1.141,1.053,2.192,1.831,3.088c4.279,4.926,13.99,0.993,17.91-2.435
	c0.178-0.157,0.292-0.396,0.348-0.655c2.37-0.116,4.441-0.999,6.625-1.91c0.804,2.04,1.6,4.079,2.1,6.212
	c-10.456,0.908-20.643,3.738-30.342,7.701C33.724,205.958,32.341,202.428,30.786,198.956z M38.85,245.196
	c0.008-0.122,0.015-0.247-0.015-0.382c-1.669-7.576-1.379-15.385-2.879-22.968c-0.487-2.46-0.788-4.964-1.044-7.456
	c-0.072-0.691-0.122-1.385-0.171-2.078c10.059-4.102,20.608-7.068,31.47-7.885c2.106,5.002,0.749,10.658,2.42,15.8
	c0.043,0.135,0.108,0.232,0.173,0.33c-3.512,0.176-6.87,2.034-9.201,4.675c-1.393,1.579-1.943,3.363-1.657,4.965
	c-0.358-0.209-0.855,0.06-0.975,0.538c-0.009-0.011-0.018-0.02-0.026-0.029c-0.939,2.882-0.097,6.389,0.4,9.315
	c0.183,1.08,0.406,2.183,0.668,3.286C51.617,243.849,45.247,244.653,38.85,245.196z M80.411,253.45
	c-0.679-0.108-1.419,0.521-1.101,1.428c0.075,0.213,0.141,0.429,0.209,0.646c-2.121,1.671-7.389,1.223-9.122,1.044
	c-2.898-0.298-9.336-1.87-6.182-5.675c2-2.412,5.497-3.829,8.642-4.412c0.04,0.513,0.398,1.005,0.97,1.063
	C76.94,247.867,80.172,249.993,80.411,253.45z M77.21,232.128c0.121-0.151,0.226-0.308,0.337-0.463
	c1.435,4.514,4.578,11.814,1.221,13.775c-0.258,0.151-0.401,0.394-0.458,0.66c-1.047-0.767-2.175-1.233-3.256-1.188
	c-0.068-0.484-0.377-0.911-0.958-0.895c-3.84,0.104-9.198,1.968-11.751,5.379c-1.058-2.959-2.058-5.852-2.75-8.932
	c-0.652-2.898-0.567-5.942-1.122-8.828c0.556,0.993,1.492,1.847,2.829,2.431c2.516,1.101,5.728,0.971,8.399,0.789
	C72.103,234.693,75.598,234.164,77.21,232.128z M70.917,224.112c2.134,0.071,4.599,0.662,5.751,2.642
	c1.475,2.536-2.333,4.513-4.146,5.036c-3.25,0.938-8.171,1.08-11.237-0.52c-2.731-1.424-0.216-4.296,1.29-5.574
	c1.935-1.643,4.61-2.812,7.212-2.839C69.833,223.48,70.211,224.088,70.917,224.112z M98.966,174.887
	c0,0.049,0.007,0.096,0.021,0.143c-0.026,0.008-0.051,0.015-0.077,0.023C98.93,174.999,98.952,174.945,98.966,174.887z
	 M84.233,169.067c1.365,1.235,3.066,2.142,4.688,2.942c2.667,1.316,6.216,3.363,9.189,3.636c0.087,0.009,0.165-0.009,0.24-0.028
	c-0.06,0.167-0.089,0.362-0.062,0.594c0.563,5.07,0.043,10.135-0.006,15.217c-0.047,4.654,0.66,9.265,0.683,13.913
	c-2.655-1.289-5.465-2.265-8.103-3.591c-4.155-2.089-4.248-5.352-4.285-9.621c-0.031-3.514-0.001-6.826-0.58-10.308
	C85.289,177.56,84.334,173.358,84.233,169.067z M83.181,193.158c1.201,5.905,3.075,16.267-1.959,21.115
	c0.207-1.292-0.329-2.841-0.53-4.046c-0.551-3.27-1.125-6.537-1.783-9.787c-0.98-4.838-2.135-11.656-5.349-15.957
	c-0.013-0.608-0.348-1.175-0.979-1.162c-0.241-0.251-0.493-0.484-0.754-0.708c1.682-3.025,3.291-6.08,5.461-8.769
	C79.985,180,81.849,186.61,83.181,193.158z M51.89,156.069c1.8-0.313,3.82,0.207,5.566-0.302c0.008,0.005,0.012,0.015,0.021,0.02
	c1.544,0.992,3.353,1.218,5.051,1.819c-2.394,1.984-7.422,1.181-9.906,0.543C50.429,157.588,48.257,156.702,51.89,156.069z
	 M49.63,159.651c3.296,1.85,9.704,2.736,13.457,0.471c-0.271,2.968,1.01,6.735,0.912,9.288c-0.036,0.946,0.67,1.271,1.277,1.073
	c-0.039,0.052-0.072,0.11-0.101,0.17c-4.097,1.556-9.204,3.611-12.888,0.377c-2.981-2.615-2.33-7.585-3.056-11.636
	C49.362,159.482,49.49,159.572,49.63,159.651z M47.716,163.354c0.281,3.99,1.082,8.1,3.982,10.11
	c4.385,3.039,10.807,1.591,15.167-0.939c1.847,0.042,3.666-0.113,5.508-0.341c1.173-0.145,2.378-0.226,3.574-0.349
	c-2.93,3.35-4.723,7.764-6.874,11.568c-0.043,0.078-0.075,0.155-0.1,0.232c-2.097,0.144-4.196,0.234-6.291,0.401
	c-2.254,0.178-5.25,0.257-7.141,1.648c-0.59,0.436-0.485,2.041,0.474,1.866c5.364-0.978,10.701-1.019,16.106-1.626
	c2.506,4.912,3.822,10.586,4.877,15.924c0.596,3.022,1.108,6.062,1.615,9.101c0.212,1.273,0.138,3.164,1.049,4.184
	c0.078,0.088,0.176,0.134,0.272,0.18c-0.306,0.243-0.438,0.598-0.432,0.96c-1.285-0.462-2.721-0.523-4.068-0.681
	c-1.758-0.207-3.73-0.316-5.409,0.351c-0.387-4.294-0.256-8.801-2.271-12.562c0.046-0.229,0.053-0.47,0.017-0.703
	c-0.487-3.175-1.772-6.088-2.91-9.068c-0.217-0.57-0.746-1.173-1.438-0.896c-2.585,1.041-4.927,2.258-7.79,2.218
	c-0.09-0.001-0.173,0.009-0.252,0.024c0.012-1.339-0.135-2.681-0.227-4.035c-0.193-2.848-0.213-5.63,0.061-8.465
	c0.736-1.077,0.812-2.375-0.488-3.785c-2.377-2.581-9.134-4.038-12.325-2.382c-0.033,0.018-0.052,0.045-0.083,0.063
	c-0.66,0.101-1.274,0.249-1.854,0.447c0.008-0.033,0.03-0.056,0.035-0.088c0.259-1.715-0.596-3.646-0.775-5.393
	c-0.167-1.615-0.301-3.226-0.829-4.748c0.501-0.935,0.376-2.105-0.542-2.859c-0.45-0.369-1.037-0.666-1.675-0.895
	c0.563-0.151,1.083-0.768,0.924-1.57c-0.017-0.084-0.031-0.169-0.047-0.254c1.553,1.81,3.376,3.335,5.331,4.875
	c0.299,0.235,0.706,0.155,1.001-0.024C45.187,165.052,46.472,164.229,47.716,163.354z M41.816,154.558
	c1.125,2.307,3.254,4.067,5.648,2.809c0.059,1.059,0.085,2.254,0.129,3.521c-1.471,0.75-2.811,1.707-4.193,2.606
	c-2.362-1.817-4.675-3.68-6.513-6.033c-0.015-0.077-0.03-0.154-0.044-0.23c1.376-0.613,2.852-1.294,4.277-1.519
	C41.708,155.619,41.933,155.037,41.816,154.558z M40.541,141.68c-0.681,3.871-0.406,7.92,0.801,11.698
	c0.093,0.292,0.208,0.581,0.334,0.866c-0.129-0.178-0.326-0.309-0.6-0.33c-1.631-0.124-3.085,0.297-4.563,0.842
	c-0.464-4.482-0.607-8.94-0.655-13.565c0-0.037-0.015-0.062-0.018-0.098c2.12-1.434,3.832-3.549,5.713-5.283
	c0.096,0.281,0.209,0.554,0.361,0.802c0.052,0.084,0.105,0.156,0.161,0.218c-0.278,0.14-0.56,0.279-0.814,0.433
	C39.177,138.519,39.433,140.256,40.541,141.68z M52.41,141.217c-2.509,0.846-6.409,1.26-8.863,0.07
	c-0.386-0.188-1.956-1.123-1.589-1.571c0.609-0.748,1.994-1.059,2.864-1.331c1.137-0.355,2.306-0.57,3.467-0.812
	c0.193,0.445,0.614,0.754,1.21,0.603c1.624-0.414,3.089-0.586,4.698-0.026C56.707,139.025,53.547,140.833,52.41,141.217z
	 M56.766,131.281c0.025,1-0.012,2.063-0.343,3.019c-0.205,0.596-0.721,0.863-0.861,1.509c-0.022,0.108-0.021,0.23-0.005,0.354
	c-1.242-0.648-2.903-0.9-4.403-0.806c-2.328-0.412-5.161-0.06-7.567,0.815c0.039-0.23,0.024-0.478-0.069-0.719
	c-1.057-2.696-0.311-6.337-0.209-9.262c4.067,1.369,9.26,2.394,13.037,0.199C56.581,128.01,56.727,129.646,56.766,131.281z
	 M50.938,120.105c0.125,0.267,0.323,0.487,0.603,0.579c1.515,0.498,3.043,0.719,4.459,1.511c2.266,1.27-2.599,2.837-3.532,2.901
	c-2.791,0.192-5.814-0.399-8.523-1.267C44.73,121.503,48.236,120.786,50.938,120.105z M32.941,112.85
	c2.38-1.025,4.963-1.131,7.461-1.641c0.093,0.375,0.338,0.69,0.765,0.782c0.498,0.107,2.744,0.462,2.779,1.212
	c0.031,0.632-1.418,1.469-1.838,1.745c-2.275,1.493-5.24,2.252-7.944,2.13c-1.149-0.052-2.498-0.452-3.183-1.443
	C29.985,114.195,31.84,113.325,32.941,112.85z M33.878,119.529c3.345,0.423,7.566-0.9,10.231-3.111c0,0,0,0.001,0,0.001
	c-0.166,1.272-0.157,2.588-0.115,3.877c-1.299,0.932-2.2,2.294-2.335,4.43c-0.005,0.097,0.014,0.19,0.035,0.284
	c-0.134,0.172-0.231,0.391-0.235,0.684c-0.015,1.128-0.068,2.254-0.123,3.38c-0.087-0.025-0.166-0.062-0.267-0.065
	c-4.956-0.161-9.874,0.1-10.663-6.059c-0.062-0.482-0.009-3.541-0.517-5.358C30.952,118.621,32.465,119.351,33.878,119.529z"/>
<path d="M40.716,101.644c5.125-9.759,3.939-21.073,3.519-31.678c-0.032-0.813-1.069-0.774-1.095,0.026
	c-0.335,10.102,0.581,21.267-4.252,30.49C38.238,101.722,39.995,103.02,40.716,101.644z"/>
<path d="M191.052,201.523c3.014,3.717,8.09,2.9,11.528,0.296c1.074-0.812,0.191-2.787-1.117-2.058
	c-3.311,1.849-6.541,2.849-9.271-0.437c-1.989-2.393-2.513-5.965-2.549-9.079c1.927,1.079,4.966,1.227,6.693,1.112
	c2.336-0.153,4.655-1.279,5.94-3.116c0.222,4.084,1.615,8.075,1.306,12.251c-0.097,1.308,1.741,1.525,2.032,0.264
	c1.194-5.18-1.565-10.4-1.993-15.522c-0.021-0.248-0.158-0.438-0.331-0.555c0-0.018,0.001-0.032,0-0.048
	c-0.189-2.963-2.805-4.872-5.591-5.279c0.137-0.175,0.23-0.392,0.24-0.598c0.094-2.406-0.533-4.815-0.514-7.261
	c0.02-2.538,0.233-5.065,0.17-7.602c1.552-0.388,3.194-0.883,4.166-2.174c0.007-0.008,0.011-0.02,0.017-0.029
	c-0.041,1.852,0.212,3.738,0.534,5.452c0.071,0.376,0.391,0.722,0.755,0.83c4.763,1.436,9.679,3.185,14.489,0.994
	c0.015-0.008,0.027-0.019,0.043-0.027c0.655,0.627,1.742-0.058,1.557-1.177c-0.211-1.274-0.364-2.55-0.505-3.824
	c0.054,0.009,0.104,0.026,0.158,0.033c0.865,0.107,1.718,0.255,2.574,0.412c-0.075,3.357,0.65,7.079,1.704,10.189
	c0.039,0.115,0.097,0.195,0.149,0.284c-2.14-1.046-4.699-1.439-6.617-0.772c-0.057,0.02-0.1,0.06-0.15,0.09
	c-3.599,0.761-7.645,3.493-5.722,7.331c-0.149,0.119-0.251,0.306-0.226,0.522c0.573,5.048-0.994,10.188,3.38,13.858
	c3.581,3.004,9.612,3.323,13.316,0.494c1.123-0.856,0.086-3.133-1.177-2.184c-3.325,2.497-7.858,1.811-11.105-0.475
	c-3.227-2.271-2.073-7.212-2.975-10.853c1.103,0.763,2.59,1.106,3.797,1.326c2.371,0.431,4.937,0.686,7.315,0.219
	c1.227-0.24,2.318-0.785,3.101-1.543c-0.146,3.92,1.364,8.105,1.991,11.808c0.276,1.624,2.353,0.769,2.107-0.725
	c-0.768-4.669-2.016-9.156-2.359-13.9c-0.03-0.424-0.305-0.656-0.597-0.676c-0.093-0.468-0.263-0.955-0.546-1.456
	c-0.57-1.01-1.529-1.896-2.668-2.59c0.543-0.07,1.043-0.633,0.889-1.421c-0.678-3.46-1.306-7.062-2.207-10.471
	c0.122-0.595-0.101-1.261-0.764-1.383c-0.833-0.155-1.669-0.219-2.517-0.205c-0.351,0.006-0.717,0.015-1.07,0.064
	c-0.168-1.664-0.335-3.329-0.562-4.993c0.167-0.612,0.208-1.288,0.079-2.029c-0.667-3.806-5.001-5.734-8.513-5.524
	c-0.715,0.042-1.036,0.637-1.006,1.234c-2.848,0.784-5.893,2.416-5.936,5.459c-0.007,0.432,0.062,0.818,0.166,1.18
	c-0.503,1.155-0.764,2.408-0.852,3.698c-0.085-0.164-0.232-0.281-0.452-0.273c-1.729,0.069-3.452,0.739-5.152,1.064
	c-0.497,0.096-0.759,0.763-0.745,1.201c0.145,4.672-1.862,12.278,1.069,16.335c-0.666,0.005-1.324,0.094-1.943,0.285
	c-0.572,0.177-0.782,0.704-0.728,1.217c-2.536,1.235-5.029,3.137-5.785,5.611c-0.25,0.812-0.235,1.493-0.046,2.073
	c-0.08,0.111-0.141,0.246-0.159,0.424C187.414,193.304,188.186,197.99,191.052,201.523z M224.347,178.596
	c1.576,1.564,0.568,2.708-1.264,3.228c-2.714,0.768-6.993,0.372-9.545-0.869c-1.469-0.715-1.13-2.15,0.036-3.081
	c0.831-0.662,1.921-1.18,3.039-1.543c0.022,0.005,0.038,0.02,0.061,0.023c1.475,0.246,2.928,0.068,4.402,0.452
	C222.286,177.121,223.455,177.712,224.347,178.596z M211.117,152.417c0.219-0.031,0.396-0.126,0.539-0.258
	c1.7,0.365,3.383,1.093,4.022,2.752c0.849,2.199-1.859,3.211-3.538,3.442c-1.498,0.206-7.289,0.279-7.504-2.118
	C204.412,153.75,209.514,152.642,211.117,152.417z M211.767,160.934c1.653-0.092,3.374-0.676,4.594-1.709
	c-0.182,2.457-0.109,5.02,0.416,7.394c-4.27,1.724-8.365,0.396-12.565-0.819c-0.385-2.319-0.346-4.698-0.663-7.018
	C205.43,160.744,209.406,161.064,211.767,160.934z M190.582,186.438c1.437-2.089,4.024-3.491,6.375-4.407
	c1.85,0.133,3.808,0.563,4.082,2.656c0.371,2.813-3.034,3.979-5.219,4.127C194.502,188.903,188.854,188.951,190.582,186.438z"/>
<path d="M180.207,185.561c-0.074-0.16-0.187-0.302-0.379-0.365c-0.551-0.181-1.197-0.141-1.868,0.002
	c-0.77-0.057-1.516-0.05-2.196,0.044c-0.604,0.082-0.947,0.578-1.036,1.114c-0.231,0.098-0.452,0.188-0.652,0.265
	c-2.366,0.896-4.984,1.952-6.85,3.714c-2.308,2.178-1.779,4.383-0.14,5.973c-0.133,0.157-0.215,0.368-0.199,0.619
	c0.276,4.422,1.906,8.562,2.335,12.958c0.045,0.466,0.28,1.067,0.813,1.168c5.461,1.035,12.642,1.34,17.027-2.703
	c0.132-0.121,0.227-0.266,0.293-0.425c0.532,0.245,1.294,0.011,1.362-0.708c0.369-3.937-1.442-7.928-2.797-11.538
	c-0.075-0.2-0.184-0.328-0.303-0.426c0.453-0.606,0.798-1.298,0.973-2.106C187.465,189.084,183.956,186.5,180.207,185.561z
	 M168.214,192.719c0.994-1.302,2.865-2.126,4.292-2.81c1.409-0.673,3.752-1.156,5.558-1.994c3.501,0.418,8.14,2.209,5.662,5.825
	c-2.125,3.099-9.577,2.725-12.722,2.081C169.691,195.552,167,194.305,168.214,192.719z M186.608,205.939
	c-0.218-0.034-0.458,0.028-0.711,0.246c-3.93,3.365-9.771,3.366-14.688,2.585c-0.579-3.842-1.928-7.496-2.59-11.32
	c0.937,0.532,1.998,0.913,3.045,1.078c3.394,0.536,9.535,0.47,12.831-2.127C185.143,199.622,186.022,202.717,186.608,205.939z"/>
<path d="M161.543,216.995c0.28,1.294,2.121,0.91,1.999-0.362c-0.619-6.412-1.861-12.855-2.709-19.253
	c0.771-1.691,0.491-3.434-2.082-4.243c0.505-0.716,0.23-2.049-0.794-1.965c-4.169,0.345-8.506,0.977-12.401,2.552
	c-3.71,1.503-5.467,4.967-1.901,7.865c4.153,3.376,9.917,1.707,14.081-0.837c0.432-0.265,0.857-0.593,1.259-0.957
	c0.016,4.744,0.953,9.743,1.944,14.396c-0.244-0.035-0.509,0.064-0.755,0.384c-2.983,3.854-7.531,2.425-11.766,1.916
	c-1.248-4.417-2.319-8.869-3.371-13.337c-0.207-0.886-1.398-0.618-1.35,0.247c0.279,4.987,1.576,9.786,2.917,14.58
	c0.146,0.517,0.515,0.824,1.041,0.874c4.256,0.397,11.336,2.527,13.798-2.276C161.483,216.715,161.513,216.858,161.543,216.995z
	 M157.999,197.497c-1.245,1.118-2.798,1.873-4.341,2.479c-3.305,1.296-7.145,1.576-9.611-1.376
	c-1.815-2.172,10.098-4.447,13.325-4.938c-0.288,0.659-0.11,1.629,0.675,1.896C159.544,196.066,159.075,196.532,157.999,197.497z"/>
<path d="M139.974,223.966c0.046-0.068,0.085-0.138,0.118-0.21c0.273,0.797,1.294,0.761,1.497-0.078
	c1.232-5.07-1.403-11.44-2.532-16.489c0.458-1.464,0.393-3.078-0.469-4.722c-2.502-4.771-8.084-5.629-12.969-4.16
	c-0.359,0.108-0.569,0.4-0.669,0.738c-3.047,1.819-5.09,5.049-4.522,8.735c0.099,0.644,0.292,1.217,0.553,1.736
	c-0.436,0.007-0.842,0.338-0.813,1.01c0.234,5.256,0.065,12.454,4.508,16.09C128.963,230.126,136.997,228.32,139.974,223.966z
	 M126.393,200.707c3.035-0.228,5.993-0.967,8.729,0.914c2.19,1.506,2.321,4.473,0.891,6.467c-1.386,1.93-3.752,2.616-5.983,2.846
	c-2.778,0.286-6.437-0.469-7.434-3.457C121.635,204.601,124.204,202.295,126.393,200.707z M124.51,223.225
	c-2.235-3.248-2.05-8.382-2.474-12.259c2.14,2.148,5.896,2.714,8.782,2.424c2.55-0.258,5.258-1.714,6.921-3.791
	c0.19,1.595,0.449,3.172,0.778,4.768c0.521,2.526,0.648,5.194,1.163,7.722c-0.339-0.25-0.798-0.264-1.241,0.209
	C135.221,225.733,127.803,228.012,124.51,223.225z"/>
<path d="M219.322,218.18c2.47,0.051,5.73-0.125,7.891-1.489c0.032-0.021,0.055-0.043,0.086-0.064
	c0.934,3.683,1.609,7.621,3.581,10.731c0.887,1.401,2.535-0.021,1.862-1.327c-1.79-3.472-2.487-7.389-3.729-11.092
	c2.289-3.547-1.241-8.373-5.976-7.594c-0.233,0.038-0.41,0.145-0.562,0.272c-3.978-2.712-12.286,1.3-12.443,5.425
	c-0.34,0.16-0.609,0.507-0.615,1.049c-0.028,3.11-0.043,6.222,0.127,9.327c0.074,1.377,0.032,3.357,0.691,4.759
	c-0.109,0.228-0.145,0.494-0.042,0.772c3.065,8.301,16.144,6.379,20.814,0.598c0.912-1.129-0.58-3.122-1.634-1.819
	c-3.575,4.417-13.692,6.403-17.133,0.93c0.011-0.031,0.025-0.062,0.031-0.092c0.354-1.821-0.444-4.119-0.57-5.99
	c-0.15-2.215-0.195-4.436-0.221-6.657c0.242,0.207,0.505,0.412,0.815,0.609C214.379,217.853,216.917,218.131,219.322,218.18z
	 M215.603,210.17c2.222-0.943,4.392-1.1,6.708-0.816c0.176,0.224,0.438,0.388,0.787,0.426c1.474,0.16,4.271,0.494,4.399,2.214
	c-0.646-0.116-1.428,0.63-1.144,1.425c0.072,0.203,0.132,0.417,0.199,0.624c-1.074,0.939-2.811,1.173-4.113,1.352
	c-3.159,0.437-6.705,0.375-9.473-1.378C210.641,212.542,214.369,210.694,215.603,210.17z"/>
<path d="M85.456,225.09c1.167,5.82,0.503,13.625,4.145,18.689c-0.138,0.353-0.124,0.789,0.148,1.086
	c0.001,0.001,0.003,0.002,0.004,0.003c0.122,0.197,0.3,0.354,0.531,0.447c0.645,0.254,1.55,0.289,2.335,0.074
	c-0.36,0.437-0.687,0.891-0.971,1.358c-0.677,1.114-0.907,2.123-0.837,3.031c-0.321,0.247-0.547,0.676-0.453,1.198
	c0.971,5.378,0.212,11.862,2.379,17.032c-0.331,0.308-0.506,0.862-0.24,1.298c3.832,6.296,16.228,3.612,19.985-1.585
	c0.81-1.121-0.536-3.02-1.596-1.757c-3.085,3.674-11.363,6.13-15.808,3.178c0.073-0.205,0.103-0.434,0.042-0.675
	c-1.301-5.117-1.542-10.322-2.404-15.479c1.579,1.244,3.856,1.982,5.829,2.135c3.487,0.271,7.596-0.978,10.229-3.517
	c1.028,4.906,2.099,10.004,4.058,14.503c0.426,0.978,1.86,0.384,1.729-0.584c-0.735-5.439-2.676-10.815-4.056-16.173
	c0.013-0.025,0.03-0.05,0.044-0.075c2.05-3.938-1.316-6.508-4.703-7.828c0.927-0.395,1.967-0.7,2.951-0.68
	c0.772,0.017,1.054-0.839,0.879-1.502c0.15-0.262,0.218-0.589,0.139-0.956c-1.111-5.161-2.723-10.159-3.579-15.343
	c0.683-0.992,1.043-2.15,0.886-3.499c-0.531-4.575-6.501-5.071-10.805-3.747c-4.025-1.155-8.481,1.736-9.754,5.681
	c-0.272,0.844-0.341,1.582-0.276,2.242C85.771,223.799,85.309,224.357,85.456,225.09z M108.783,246.976
	c-0.468,0.209-0.842,0.752-0.69,1.438c0.026,0.122,0.053,0.247,0.08,0.369c-1.645,2.486-5.449,3.58-8.169,3.795
	c-2.992,0.234-8.89-1.069-6.169-5.041c1.896-2.769,5.859-4.711,9.205-4.235c0.057,0.009,0.102-0.01,0.155-0.01
	C105.297,243.773,108.723,244.789,108.783,246.976z M88.875,221.76c0.649-1.485,2.046-2.789,3.651-3.486
	c-0.167,1.045,0.683,2.289,1.635,1.457c1.58-1.385,7.976-3.017,10.05-1.081c-0.112,0.158-0.195,0.355-0.203,0.619
	c-0.023,0.894,0.002,1.783,0.064,2.668c-1.934,2.053-6.88,3.092-8.688,3.349C92.983,225.625,87.201,225.592,88.875,221.76z
	 M95.45,227.921c2.502-0.291,6.351-1.245,8.948-3.131c0.72,4.695,2.257,9.289,3.256,13.923c-1.041,0.291-1.916,0.86-2.782,1.602
	c-0.183,0.156-0.26,0.438-0.245,0.709c-0.492-0.15-0.971-0.278-1.418-0.375c-0.429-0.093-0.767,0.053-1.004,0.312
	c-2.862-0.266-5.793,0.946-8.028,2.857c-0.027-0.529-0.41-1.036-0.977-1.055c-0.479-0.017-0.972,0.303-1.433,0.435
	c-0.079,0.022-0.167,0.04-0.256,0.055c-0.012-0.1-0.034-0.197-0.074-0.289c-2.361-5.417-2.682-10.974-3.677-16.651
	C89.656,227.84,92.963,228.209,95.45,227.921z"/>
<path d="M135.574,257.466c-1.291-5.507-1.63-11.205-2.966-16.688c0.025-0.084,0.059-0.161,0.082-0.246
	c1.366-4.953-3.768-8.344-8.086-8.034c-0.677,0.047-1.03,0.619-1.078,1.217c-4.452,0.339-9.159,1.185-10.734,5.896
	c-0.541,1.62-0.301,2.954,0.397,4.038c-0.123,0.131-0.214,0.312-0.227,0.546c-0.136,2.416,0.382,4.867,0.798,7.241
	c0.536,3.055,0.971,6.24,1.862,9.21c-0.226,0.447-0.14,1.086,0.323,1.461c1.941,1.571,6.198,0.86,8.438,0.705
	c2.712-0.187,7.499-0.319,9.423-2.585c0.631-0.741,0.066-2.388-1.058-1.981c-4.912,1.776-10.045,2.55-15.272,1.997
	c-0.215-2.407-0.824-4.77-1.3-7.136c-0.526-2.624-0.847-5.37-1.559-7.965c1.762,1.327,4.296,2.047,6.332,2.275
	c3.834,0.427,7.843-0.839,10.149-3.751c0.583,4.965,0.457,10.331,2.773,14.683C134.486,259.5,135.823,258.527,135.574,257.466z
	 M129.638,241.647c-1.953,2.829-5.563,3.345-8.752,3.131c-1.627-0.108-3.208-0.645-4.61-1.454c-2.341-1.351-1.389-3.316,0.201-4.811
	c2.952-2.773,7.35-2.277,11.106-2.935C130.019,236.521,131.577,238.835,129.638,241.647z"/>
<path d="M161.016,251.571c-0.269-1.709-2.095-11.889-4.217-16.719c0.15-0.357,0.284-0.723,0.381-1.104
	c0.988-3.886-2.085-5.649-5.313-6.227c-0.042-0.301-0.205-0.574-0.513-0.645c-4.691-1.091-11.51,0.75-14.032,5.172
	c-1.16,2.033-0.584,3.776,0.791,5.162c-0.148,5.742,0.645,12.073,2.656,17.363c0.013,0.035,0.03,0.062,0.045,0.095
	c-0.343,0.529-0.198,1.412,0.512,1.734c4.884,2.223,13.985,1.113,17.128-3.579c0.749-1.119-0.514-3.022-1.583-1.748
	c-3.37,4.021-9.13,3.94-13.983,3.334c0.015-0.168-0.001-0.352-0.064-0.552c-1.6-4.988-2.051-10.072-2.764-15.184
	c2.365,1.386,5.422,2.145,7.253,2.139c2.949-0.014,6.052-1.383,8.029-3.645c0.465,1.585,0.882,3.186,1.278,4.788
	c0.841,3.419,1.708,6.885,2.22,10.372C159.091,254.031,161.261,253.134,161.016,251.571z M154.344,232.408
	c-0.485,0.261-0.44,1.002-0.116,1.401c0.025,0.108,0.08,0.268,0.184,0.51c0.016,0.036,0.027,0.075,0.043,0.112
	c-1.278,2.273-4.443,3.53-6.805,3.724c-2.565,0.21-10.903-2.074-7.741-5.666c1.662-1.888,4.698-3.104,7.578-3.662
	c0.062,0.614,0.444,1.173,1.142,1.137c1.967-0.102,6.094-0.051,6.342,2.398C154.76,232.292,154.551,232.297,154.344,232.408z"/>
<path d="M164.467,240.957c0.498,4.284,3.782,7.199,7.985,7.84c4.393,0.671,8.118-2.034,9.843-5.92
	c0.613-1.385-1.29-2.844-1.99-1.278c-2.983,6.652-10.196,5.377-13.739,0.459c0.262-0.304,0.394-0.721,0.228-1.151
	c-1.151-2.994-1.648-6.144-2.375-9.23c0.889,0.501,1.944,0.787,3.083,0.755c4.478-0.126,9.385-3.497,11.99-6.979
	c0.017-0.023,0.03-0.048,0.046-0.07c0.077,4.842,1.641,9.734,3.017,14.294c0.462,1.535,2.374,0.74,2.023-0.705
	c-1.301-5.39-2.762-10.568-3.562-16.076c-0.04-0.271-0.212-0.439-0.418-0.519c-0.003-2.185-1.752-3.902-4.778-3.296
	c-0.231,0.046-0.395,0.182-0.514,0.354c-3.953-0.865-9.692,2.43-11.955,4.682c-1.116,1.11-1.573,2.34-1.544,3.504
	c-0.139,0.168-0.22,0.403-0.187,0.718c0.437,4.19,1.364,8.618,2.849,12.607C164.469,240.95,164.467,240.953,164.467,240.957z
	 M165.822,225.096c2.287-1.85,7.957-4.582,10.843-2.683c0.645,0.425,1.159-0.111,1.261-0.729c0.346,0.089,0.609,0.206,0.633,0.375
	c0.134,0.97-1.031,2.098-1.607,2.734c-2.135,2.353-5.206,4.142-8.277,4.908c-1.319,0.328-2.755,0.283-3.888-0.517
	C162.95,227.888,164.634,226.058,165.822,225.096z"/>
<path d="M208.834,233.806c0.466-0.848-0.133-1.736-0.841-1.881c-0.002-0.026,0-0.05-0.003-0.077
	c-0.708-5.53-2.386-10.902-2.43-16.51c-0.005-0.6-0.326-0.912-0.699-0.99c-0.403-0.957-1.088-1.847-1.921-2.4
	c0.614-0.296,0.662-1.531-0.095-1.634c-5.105-0.695-11.463,0.63-15.452,4.01c-2.22,1.881-2.732,4.955-1.757,7.463
	c0.986,4.034,0.879,8.312,2.087,12.275c-0.027,0.082-0.045,0.167-0.048,0.254c-0.127,3.995,6.528,4.833,9.329,4.906
	C201.364,239.334,206.612,237.849,208.834,233.806z M187.301,218.656c0.234-2.089,2.817-3.377,4.48-4.131
	c2.66-1.203,5.724-1.984,8.71-2.327c-0.068,0.342-0.001,0.728,0.245,1.031c0.92,1.136,2.478,1.709,2.223,3.436
	c-0.24,1.628-1.801,2.976-3.014,3.917c-2.644,2.055-6.543,3.509-9.854,2.46C188.359,222.492,187.101,220.434,187.301,218.656z
	 M189.67,234.205c0.08-0.215,0.111-0.464,0.07-0.732c-0.427-2.772-0.738-5.608-1.235-8.396c0.205,0.111,0.412,0.22,0.634,0.311
	c4.466,1.811,10.155-0.594,13.396-3.79c0.466-0.459,0.883-0.943,1.25-1.451c0.407,3.941,1.442,7.843,1.982,11.757
	c0.079,0.572,0.419,0.936,0.81,1.091c-1.846,2.691-5.765,3.415-8.783,3.653C194.304,236.922,192.212,235.944,189.67,234.205z"/>
<path d="M129.955,296.08c0.825,4.751,1.214,9.594,2.666,14.201c0.504,1.602,2.622,0.774,2.161-0.744
	c-1.582-5.215-1.595-10.884-3.235-16.063c0.029-0.089,0.075-0.167,0.102-0.257c1.5-5.038-3.025-9.744-7.818-9.951
	c0.101-0.626-0.319-1.379-1.062-1.169c-7.374,2.077-16.825,0.202-20.775,8.459c-1.32,2.759-0.492,4.869,1.28,6.426
	c0.672,1.921,1.181,3.876,1.554,5.896c0.418,2.258,0.331,4.572,0.703,6.82c-0.073,0.003-0.147,0.035-0.172,0.102
	c-1.861,4.847,1.896,7.368,5.971,8.422c7.426,1.918,14.153-1.816,20.063-5.896c1.197-0.825,0.124-3.167-1.208-2.241
	c-4.678,3.252-9.364,6.038-15.217,6.08c-2.36,0.017-6.997-0.479-7.885-3.133c-0.25-0.745-0.341-1.444-0.586-2.081
	c0.407-0.002,0.818-0.265,0.909-0.777c0.608-3.434-0.035-7.726-1.351-11.451c2.528,1.16,5.531,1.739,7.556,1.85
	C118.211,300.82,126.242,300.037,129.955,296.08z M105.351,295.528c-3.818-2.513,0.209-6.725,2.889-8.084
	c3.392-1.722,7.356-1.937,11.154-2.575c-0.222,0.814,0.395,1.918,1.345,1.621c4.375-1.367,8.979,1.641,8.747,4.985
	c-0.257,0.285-0.338,0.704-0.248,1.072c0,0,0,0.001,0,0.002c-0.391,0.997-1.247,1.985-2.709,2.861
	c-4.006,2.396-9.75,2.814-14.309,2.438C109.814,297.65,107.364,296.852,105.351,295.528z"/>
<path d="M204.541,274.226c3.117-0.296,7.826-1.052,10.665-3.267c0.401,3.158,0.093,6.41,0.976,9.529
	c0.453,1.607,2.564,0.761,2.117-0.736c-1.052-3.528-0.455-7.302-1.326-10.823c0.506-0.939,0.754-2.041,0.629-3.339
	c-0.57-5.975-6.854-7.438-12.208-7.599c1.238-0.246,1.164-2.486-0.164-2.391c-6.719,0.479-14.65,3.344-14.859,11.138
	c-0.036,1.336,0.245,2.446,0.751,3.372c0.201,1.853,0.546,3.694,0.78,5.54c0.269,2.13,0.145,4.484,0.648,6.597
	c-0.408,5.192,3.545,7.052,8.393,6.804c3.029-0.156,6.066-0.978,8.938-1.901c2-0.645,5.015-1.368,6.513-2.94
	c0.79-0.832,0.001-2.244-1.085-2.029c-3.648,0.724-21.632,9.571-20.691,0.182c0.023-0.235-0.015-0.452-0.089-0.645
	c0.047-1.779-0.37-3.605-0.63-5.349c-0.203-1.363-0.434-2.751-0.772-4.104C196.203,274.375,201.189,274.543,204.541,274.226z
	 M192.661,266.682c-0.409-4.373,3.866-6.684,8.005-7.815c-0.282,0.812,0.081,1.932,1.064,1.868
	c4.185-0.272,10.334-0.559,12.958,3.417c0.467,0.707,0.685,1.35,0.715,1.933c-0.639-0.037-1.329,0.646-1.032,1.404
	c0.083,0.215,0.156,0.431,0.227,0.647c-2.034,2.196-7.32,3.072-9.462,3.348C200.943,272.027,193.201,272.433,192.661,266.682z"/>
<path d="M258.352,243.833c0.175-0.718-0.161-1.587-0.991-1.502c-4.696,0.48-9.726,3.048-11.365,7.764
	c-0.22,0.632-0.327,1.235-0.357,1.812c-0.204,0.267-0.325,0.617-0.24,1.031c0.861,4.229,1.498,8.501,2.365,12.729
	c-0.508,5.307,5.332,7.79,9.942,6.272c1.123-0.368,0.935-2.643-0.347-2.473c-2.725,0.358-6.785,0.42-7.663-2.459
	c0.255-0.282,0.403-0.691,0.306-1.17c-0.612-3.001-1.152-6.017-1.726-9.025c1.004,0.646,2.224,1.068,3.545,1.214
	c3.39,0.371,8.417,0.145,11.488-2.07c0.228,2.764,0.36,5.531,0.45,8.324c0.052,1.594,2.121,1.523,2.155-0.053
	c0.073-3.439-0.176-6.921-0.712-10.343c0.324-0.576,0.562-1.222,0.691-1.95C266.666,247.578,262.459,244.522,258.352,243.833z
	 M262.679,250.307c0.135,0.898,0.237,1.794,0.341,2.691c-0.047,0.064-0.089,0.129-0.141,0.193c-2.21,2.732-8.837,2.745-11.907,2.101
	c-2.986-0.627-3.777-2.865-2.401-5.408c1.131-2.088,3.232-3.506,5.5-4.339c0.19,0.577,0.685,1.04,1.386,0.871
	c2.209-0.532,6.096,0.709,7.635,2.793C262.807,249.445,262.609,249.839,262.679,250.307z"/>
<path d="M267.966,240.761c-0.205,0.207-0.333,0.491-0.282,0.854c0.645,4.635,1.055,9.295,1.66,13.921
	c0.116,0.887,1.171,1.395,1.688,0.893c5.51,2.881,18.773,5.596,19.523-2.129c0.146-0.193,0.258-0.436,0.276-0.757
	c0.242-4.229,0.438-10.008-1.7-14.092c0.251-1.787-0.1-3.499-1.33-4.479c0.647-0.33,0.724-1.556-0.106-1.74
	C283.084,232.207,269.12,235.177,267.966,240.761z M287.975,242.815c0.724,3.496,0.538,7.037,0.73,10.78
	c0.003,0.057,0.025,0.097,0.033,0.15c-2.262,5.755-12.958,2.178-17.336-0.084c-0.002-2.513-0.391-5.071-0.841-7.595
	c4.288,3.556,12.613,2.076,16.242-1.651C287.245,243.963,287.635,243.414,287.975,242.815z M270.271,241.38
	c0.296-2.693,5.325-4.18,7.376-4.857c1.797-0.595,4.04-1.245,6.206-1.497c-0.171,0.745,0.203,1.688,1.09,1.72
	c0.891,0.031,1.43,0.279,1.729,0.662c-0.225,0.288-0.321,0.731-0.146,1.09c0.122,0.25,0.231,0.501,0.34,0.752
	c-0.129,0.536-0.354,1.104-0.604,1.643c-0.872,1.888-2.474,2.917-4.363,3.614c-2.333,0.86-5.025,0.97-7.455,0.526
	C272.89,244.75,270.052,243.361,270.271,241.38z"/>
<path d="M310.399,194.233c-0.12-0.297-0.373-0.498-0.752-0.352c-0.283,0.107-0.571,0.194-0.857,0.284
	c-0.502,0.056-0.99,0.188-1.448,0.404c-2.767,0.664-5.631,0.918-8.188,2.388c-1.338,0.769-2.129,2.273-1.463,3.763
	c0.072,0.163,0.175,0.312,0.27,0.465c0.225,4.062-0.221,8.211,0.185,12.225c-0.553,0.399-0.627,1.549,0.012,2.099
	c4.114,3.548,12.35,2.756,16.497-0.307c0.647-0.478,0.604-1.435,0.211-2.015c0.33-0.153,0.577-0.511,0.556-1.089
	c-0.143-3.796-0.785-8.055-1.777-11.884c0.053-0.093,0.112-0.181,0.162-0.275C315.292,197.091,313.035,194.742,310.399,194.233z
	 M299.655,199.629c0-0.001-0.001-0.002-0.001-0.002c0.405-0.802,2.23-1.238,2.969-1.493c1.494-0.516,3.281-0.844,4.905-1.417
	c1.275,0.396,3.899,0.167,4.375,1.096c-0.028,0.062-0.052,0.13-0.062,0.211c-0.032,0.248-0.036,0.504-0.057,0.754
	c-0.115,0.226-0.272,0.471-0.515,0.762c-2.123,2.561-5.966,3.148-8.924,1.94c-0.791-0.324-1.55-0.844-2.22-1.368
	C299.881,199.922,299.748,199.519,299.655,199.629z M313.453,212.931c-3.605,2.663-9.231,2.802-13.323,0.992
	c0.432-3.44,0.415-7.164,0.053-10.72c0.97,0.566,2.043,0.977,2.962,1.226c2.909,0.784,6.326-0.068,8.674-2.049
	c0.284,3.292,1.103,6.682,1.516,9.769c0.038,0.286,0.153,0.501,0.292,0.679C313.569,212.858,313.511,212.886,313.453,212.931z"/>
<path d="M290.381,200.761c-1.298-1.954-4.408-2.038-6.472-1.898c-0.016,0.002-0.028,0.007-0.043,0.009
	c-0.065-0.202-0.198-0.369-0.424-0.41c-3.809-0.714-7.926,0.357-11.016,2.848c-2.147,1.731-2.058,3.652-0.818,5.132
	c-0.384,1.727-0.163,3.661,0.051,5.337c0.223,1.717,0.608,3.862,1.588,5.437c-0.023,0.139-0.03,0.283-0.008,0.437
	c0.878,6.069,12.59,3.542,16.406,1.335c0.463,0.153,0.962-0.024,1.058-0.757c0.558-4.272,0.146-9.058-0.84-13.372
	C290.804,203.658,291.327,202.185,290.381,200.761z M276.033,201.927c1.929-0.94,4.627-1.867,6.855-1.996
	c-0.093,0.707,0.273,1.5,1.083,1.492c0.412-0.004,3.547-0.008,4.441,0.642c-0.49,0.08-0.946,0.594-0.798,1.295
	c0.034,0.157,0.053,0.313,0.084,0.471c-0.948,0.837-2.334,1.444-3.307,1.792c-3.129,1.12-7.041,1.187-10.135-0.028
	C271.215,204.4,274.473,202.687,276.033,201.927z M275.46,217.625c0.059-0.198,0.065-0.417-0.014-0.635
	c-0.686-1.88-1.459-3.578-1.825-5.573c-0.22-1.194-0.258-2.4-0.315-3.605c0.315,0.178,0.647,0.342,0.999,0.48
	c4.055,1.602,10.083,0.908,13.788-1.772c0.35,3.367,0.26,6.722,0.572,10.091C286.302,217.78,277.176,220.449,275.46,217.625z"/>
<path d="M291.187,173.204c-0.164-2.046-1.908-2.936-3.748-3.289c0.071-0.373-0.082-0.833-0.441-0.902
	c-3.381-0.652-24.363,0.306-19.106,7.347c0.013,0.016,0.028,0.029,0.041,0.046c-0.45,1.636-0.479,3.398-0.607,5.083
	c-0.191,2.517-0.251,5.229,0.443,7.682c-0.397,0.459-0.552,1.279-0.093,1.836c4.77,5.79,17.09,4.549,21.613-0.952
	c0.329-0.401,0.349-0.915,0.191-1.354c0.471,0.021,0.93-0.237,0.99-0.879c0.288-3.067,0.067-6.166,0.084-9.24
	c0.002-0.479,0.328-2.157,0.257-3.389C291.096,174.589,291.245,173.924,291.187,173.204z M288.391,187.542
	c-0.004,0.095,0.023,0.172,0.038,0.256c-0.256,0-0.524,0.117-0.771,0.418c-3.562,4.342-13.855,5.577-18.103,1.422
	c0.065-0.149,0.107-0.318,0.086-0.526c-0.224-2.236-0.485-4.425-0.522-6.678c-0.029-1.604,0.104-3.298-0.092-4.917
	c4.394,3.63,13.251,2.187,17.896,0.755c0.522-0.161,1.045-0.39,1.538-0.675C288.07,180.86,288.522,184.45,288.391,187.542z
	 M286.285,175.786c-2.282,0.909-4.944,1.097-7.37,1.193c-2.574,0.103-5.648,0.042-7.944-1.266c-1.169-0.668-2.208-1.099-1.104-1.856
	c2.467-1.689,6.328-1.912,9.183-2.326c1.595-0.23,3.199-0.403,4.798-0.617c-0.021,0.675,0.347,1.383,1.097,1.381
	c1.277-0.005,2.499,0.03,3.634,0.673C290.325,173.958,286.811,175.575,286.285,175.786z"/>
<path d="M164.514,297.599c0.109,0.418,0.355,0.636,0.63,0.716c0.102,0.352,0.321,0.66,0.684,0.807
	c7.477,3.014,15.455,0.741,21.687-3.954c0.546,0.771,1.982,0.48,2.035-0.828c0.2-4.964-0.633-9.945-2.176-14.664
	c1.962-4.212-0.76-7.674-4.523-9.169c0.506-0.505,0.224-1.81-0.604-1.72c-6.559,0.698-15.29-0.196-19.191,6.525
	c-0.783,1.348-1.087,2.595-1.03,3.719c-0.098,0.214-0.141,0.467-0.074,0.754C163.317,285.625,162.991,291.851,164.514,297.599z
	 M187.323,292.201c-0.05,0.026-0.097,0.049-0.146,0.083c-6.24,4.457-13.216,7.332-20.787,4.472
	c0.039-4.288-0.579-8.931-1.555-13.287c1.406,0.931,3.199,1.531,5.079,1.722c4.614,0.461,12.205,0.404,15.955-3.339
	C186.729,285.24,187.269,288.709,187.323,292.201z M170.195,272.757c2.498-1.014,5.293-1.262,8.051-1.525
	c0.094,0.585,0.477,1.125,1.143,1.16c2.158,0.111,3.983,0.756,5.511,2.317c0.785,0.803,1.021,1.629,0.917,2.423
	c-0.588,0-1.153,0.56-0.897,1.364c0.04,0.129,0.075,0.259,0.115,0.388c-0.88,1.154-2.309,2.096-3.466,2.553
	c-3.57,1.414-7.946,1.358-11.719,1.095c-2.083-0.146-5.312-1.003-5.653-3.517C163.798,276.069,168.01,273.644,170.195,272.757z"/>
<path d="M88.552,321.828c-2.382,0.351-4.804,0.434-7.206,0.339c-2.028-0.08-3.761-0.882-5.679-1.135
	c-1.168-0.153-1.66,1.215-0.969,2.062c1.261,1.546,4.242,1.588,6.063,1.738c3.197,0.265,6.505-0.002,9.651-0.598
	c4.556-0.86,11.311-2.829,11.892-8.258c0.226-0.19,0.383-0.488,0.359-0.911c-0.201-3.501-1.379-6.809-1.44-10.306
	c0.147-0.316,0.294-0.632,0.408-0.98c2.618-8.011-8.007-9.79-13.994-10.541c0.686-0.285,0.708-1.396-0.055-1.67
	c-6.233-2.22-14.779,3.358-16.842,9.242c-0.579,1.652-0.575,3.031-0.163,4.186c-0.004,0.029-0.017,0.05-0.019,0.08
	c-0.309,5.115,0.749,10.2,1.568,15.228c0.226,1.384,2.26,0.952,2.099-0.383c-0.497-4.13-1.432-8.183-1.666-12.326
	c2.615,2.025,6.936,2.803,9.995,3.094c5.093,0.484,12.534,0.529,16.63-3.166c0.133,2.535,0.575,5.096,1.301,7.324
	c-0.102,0.166-0.182,0.356-0.203,0.593C99.873,320.084,92.057,321.31,88.552,321.828z M99.391,302.178
	c-0.067,0.46-0.116,0.938-0.157,1.423c-0.055,0.144-0.107,0.286-0.176,0.436c-2.266,4.957-11.487,4.398-15.864,4.115
	c-4.341-0.283-13.025-1.436-9.826-7.651c2.304-4.475,7.111-6.074,11.727-6.854c-0.289,0.745,0.066,1.924,1.041,2.041
	c3.681,0.444,13.27,1.092,13.467,5.968C99.504,301.787,99.425,301.949,99.391,302.178z"/>
<path d="M138.79,305.725c-0.028,0.52,0.34,0.993,0.81,1.164c6.686,2.432,13.58,1.479,19.547-2.246
	c0.418,0.699,1.573,0.671,1.693-0.297c0.652-5.242-0.8-11.481-2.016-16.683c0.315-0.773,0.503-1.633,0.494-2.608
	c-0.036-3.904-4.973-4.784-8.849-5.209c0.382-0.444,0.398-1.288-0.172-1.553c-4.841-2.239-11.112,1.935-13.485,6.073
	c-1.206,2.102-1.048,3.761-0.149,5.047c0.337,5.198,0.962,10.343,2.274,15.4c-0.038,0.086-0.076,0.172-0.088,0.271
	C138.821,305.296,138.801,305.511,138.79,305.725z M158.129,296.513c0.212,1.823,0.238,3.724,0.468,5.568
	c-5.378,2.901-10.493,4.326-16.283,3.038c0.216-0.473,0.113-1.211-0.536-1.148c-0.228,0.021-0.454,0.052-0.679,0.074
	c-1.141-4.155-1.751-8.419-2.143-12.706c1.964,1.071,4.512,1.621,6.453,1.78c3.604,0.299,8.847-0.403,11.757-3.079
	C157.561,292.186,157.874,294.342,158.129,296.513z M138.692,288.015c-0.018-0.266-0.039-0.531-0.057-0.797
	c-0.015-0.222-0.079-0.4-0.163-0.557c0.074-0.514,0.304-1.09,0.739-1.739c1.617-2.415,4.03-3.694,6.662-4.309
	c-0.116,0.635,0.132,1.321,0.836,1.429c3,0.458,6.28,0.421,9.059,1.776c2.542,1.239,0.552,3.784-1.026,4.931
	c-2.16,1.567-5.223,1.779-7.79,1.824C144.59,290.614,139.83,290.148,138.692,288.015z"/>
<path d="M240.595,271.833c0.006-0.056,0.029-0.098,0.033-0.157c0.245-4.276-0.188-8.827-1.289-13.053
	c0.216-0.585,0.375-1.209,0.434-1.902c0.463-5.455-7.726-6.156-11.944-6.362c0.589-0.024,1.174-0.01,1.741,0.059
	c1.071,0.13,1.188-1.855,0.192-2.084c-5.132-1.18-10.729,1.712-12.671,6.654c-0.99,2.525-0.462,4.554,0.854,6.081
	c1.073,3.633,1.764,7.346,2.348,11.094c-0.134,0.242-0.204,0.532-0.158,0.855C221.837,285.083,242.588,278.387,240.595,271.833z
	 M238.532,271.691c-0.521,0.998-0.751,2.037-1.727,2.908c-1.33,1.189-3.092,1.8-4.788,2.237c-3.633,0.936-8.359,0.255-9.647-3.516
	c0.112-0.187,0.185-0.406,0.146-0.673c-0.455-3.229-1.031-6.438-1.888-9.572c1.522,0.767,3.284,1.228,4.953,1.362
	c3.906,0.316,9.229-0.411,12.128-3.291C238.199,264.629,238.294,268.117,238.532,271.691z M219.411,255.417
	c1.213-2.71,3.942-4.34,6.813-4.874c-0.706,0.611-0.4,2.271,0.762,2.393c2.48,0.26,8.193,0.033,10.024,2.483
	c-0.238,0.234-0.373,0.601-0.248,1.048c0.161,0.578,0.299,1.157,0.426,1.735c-0.877,1.437-3.087,2.402-4.346,2.828
	c-2.152,0.729-4.505,0.869-6.76,0.816C222.382,261.761,217.409,259.888,219.411,255.417z"/>
<path d="M304.04,250.609c2.162,0.172,7.339-0.021,9.315-2.184c0.59,0.457,1.559,0.36,1.815-0.683
	c1.146-4.645-0.32-9.501-1.521-14.087c0.096-0.309,0.175-0.625,0.219-0.953c0.463-3.488-2.912-5.555-6.102-5.918
	c0.059-0.405-0.183-0.845-0.676-0.706c-3.678,1.028-8.872,2.44-10.193,6.566c-0.312,0.977-0.194,1.84,0.189,2.601
	c-0.271,3.326,0.507,6.597,0.66,9.932c0.004,0.076,0.032,0.131,0.045,0.2C296.062,248.989,301.429,250.403,304.04,250.609z
	 M313.26,245.259c-0.322-0.082-0.677-0.005-0.954,0.335c-1.553,1.906-3.95,2.238-6.334,2.392c-1.366,0.087-6.236,0.216-6.5-1.872
	c0.26-0.199,0.451-0.52,0.45-0.989c-0.008-2.633-0.698-5.215-0.833-7.826c2.24,1.409,5.518,2.021,7.339,1.796
	c2.029-0.252,4.187-1.273,5.664-2.837C312.849,239.229,313.556,242.304,313.26,245.259z M299.277,232.701
	c0.832-1.244,2.373-2.105,3.628-2.851c0.626-0.369,1.263-0.748,1.907-1.119c0.126,0.187,0.31,0.337,0.582,0.4
	c1.35,0.316,4.989,0.326,6.03,1.917c-0.268,0.277-0.427,0.689-0.322,1.177c0.081,0.372,0.167,0.75,0.259,1.127
	c-0.885,1.761-3.243,2.875-4.996,3.167C304.623,236.81,297.471,235.405,299.277,232.701z"/>
<path d="M259.608,279.616c-0.509-2.538-3.557-4.074-5.831-5.033c-0.045-0.512-0.366-1.018-0.947-1.077
	c-4.13-0.424-17.421,4.225-17.659,9.457c-2.288,3.77-1.054,11.095,0.855,14.958c-0.113,0.129-0.186,0.308-0.176,0.525
	c0.31,6.925,17.642,8.396,21.003,3.56c0.639-0.918-0.099-2.619-1.31-1.873c-5.319,3.27-12.605,2.197-17.481-1.352
	c0.13-0.24,0.199-0.533,0.149-0.842c-0.383-2.363-1.321-4.646-1.743-7.028c-0.322-1.816-0.333-3.607-0.316-5.406
	c0.386,0.452,0.88,0.903,1.522,1.352c4.89,3.415,13.926,2.573,18.627-0.744c0.229-0.161,0.449-0.335,0.665-0.512
	c0.227,3.773-0.113,7.52,0.057,11.382c0.053,1.244,1.767,1.616,2.001,0.266c0.745-4.27,0.764-9.294-0.138-13.798
	C259.566,282.328,259.895,281.042,259.608,279.616z M256.211,280.419c0.189,0.742,0.334,1.48,0.451,2.216
	c-1.374,1.718-3.997,2.598-5.938,3.052c-3.543,0.829-10.811,1.481-13.151-2.211c-1.268-1.997,5.089-4.801,6.171-5.287
	c2.508-1.126,5.324-2.089,8.104-2.383c0.078,0.446,0.315,0.863,0.742,1.055c0.973,0.44,3.007,1.232,4.114,2.362
	C256.334,279.406,256.063,279.841,256.211,280.419z"/>
<path d="M309.393,289.126c2.588-0.373,5.695-0.684,5.262-3.343c0.232-0.147,0.423-0.405,0.512-0.803
	c1.513-6.695-0.447-13.608-0.752-20.372c0.048-0.12,0.097-0.238,0.138-0.364c0.634-1.971,0.429-4.151-1.112-4.933
	c0.492-0.575,0.382-1.874-0.447-2.006c-6.097-0.974-26.324-1.102-22.903,9.734c0.004,0.013,0.009,0.023,0.013,0.035
	c-0.185,0.181-0.302,0.434-0.259,0.763c0.796,6.291-0.344,17.129,6.407,20.42C300.182,290.175,305.218,289.732,309.393,289.126z
	 M293.577,262.376c4.173-3.138,11.616-3.351,17.169-2.967c-0.685,0.735-0.445,2.321,0.75,2.273c3.002-0.119-1.103,3.998-1.495,4.258
	c-1.228,0.815-2.83,1.222-4.229,1.645c-2.164,0.652-4.241,1.277-6.506,1.527c-2.619,0.291-5.567,0.016-6.883-2.588
	C291.523,264.824,292.167,263.434,293.577,262.376z M292.829,275.853c-0.262-1.896-0.477-3.801-0.765-5.695
	c3.578,3.061,10.192,1.22,14.385,0.021c2.079-0.596,4.325-1.405,5.98-2.821c0.301,5.635,1.722,11.267,0.532,16.858
	c-0.379,0.211-0.674,0.617-0.624,1.11c0.129,1.28,0.402,0.411-1.088,0.752c-1.741,0.398-3.519,0.605-5.296,0.757
	c-3.516,0.298-8.02,0.288-10.761-2.271C293.256,282.753,293.166,278.275,292.829,275.853z"/>
<path d="M287.683,294.637c0.026-0.039,0.046-0.082,0.068-0.123c0.073-0.066,0.145-0.142,0.214-0.244
	c1.779-2.613,0.633-7.497,0.294-10.366c-0.366-3.125-0.726-6.798-1.999-9.853c1.427-3.861-0.564-8.292-5.285-9.157
	c-0.122-0.021-0.233-0.021-0.342-0.009c-4.764-1.816-10.959-0.11-15.174,2.285c-2.681,1.522-3.827,3.779-3.539,5.985
	c-0.408-0.205-0.955,0.063-1.064,0.593c-1.313,6.372-0.058,14.223,1.947,20.342c0.079,0.24,0.195,0.42,0.332,0.555
	c1.266,3.881,6.896,4.444,10.397,4.542C277.873,299.309,284.949,298.579,287.683,294.637z M269.594,268.056
	c2.921-1.078,6.879-1.908,10.095-1.129c0.136,0.286,0.378,0.507,0.742,0.572c2.984,0.541,4.089,2.378,3.871,4.293
	c-0.414,0.217-0.694,0.818-0.432,1.397c0.008,0.016,0.014,0.034,0.021,0.049c-0.67,1.466-2.057,2.792-3.921,3.395
	c-4.182,1.354-11.341,1.123-14.763-1.892C261.617,271.576,266.966,269.026,269.594,268.056z M264.996,293.745
	c-0.003-0.126-0.021-0.257-0.067-0.397c-1.021-3.063-1.574-6.205-1.959-9.409c-0.185-1.546-0.276-3.102-0.355-4.658
	c-0.021-0.414-0.306-3.01-0.004-4.111c0.586,1.048,1.512,2.023,2.791,2.825c4.699,2.95,14.396,3.035,18.652-0.74
	c0.313-0.279,0.593-0.574,0.851-0.879c0.521,2.236,0.747,4.612,1.031,6.76c0.357,2.696,1.229,6.695,0.354,9.419
	c-0.088,0.066-0.177,0.144-0.263,0.248c-2.457,2.988-7.472,3.495-11.049,3.703C271.877,296.687,266.918,296.675,264.996,293.745z"/>
<path d="M287.469,307.265c-0.626,0.065-0.978,0.564-1.072,1.116c-5.552-0.614-12.862-1.131-16.233,3.177
	c-0.449,0.574-0.742,1.12-0.904,1.635c-0.256-0.811-1.24-1.303-1.707-0.268c-1.01,2.233-1.74,4.983-0.808,7.37
	c0.572,1.466,2.318,0.764,2.014-0.698c-0.382-1.819-0.224-3.466,0.357-5.195c0.229,2.83,4.61,4.454,7.575,4.456
	c4.188,0.002,9.217-0.72,12.58-3.451c0.114,1.675,0.241,3.358,0.814,4.877c0.439,1.166,2.132,0.995,2.001-0.362
	c-0.202-2.109-0.522-4.318-1.002-6.435C293.418,310.158,291.772,306.817,287.469,307.265z M288.938,312.14
	c0.001,0.005,0.001,0.01,0.002,0.015c-0.745,0.938-1.936,1.901-2.751,2.289c-2.777,1.324-6.548,1.587-9.564,1.717
	c-0.882,0.038-6.948-0.726-4.481-3.021c1.159-1.078,2.873-1.558,4.363-1.955c4.093-1.086,8.683-0.411,12.869-0.145
	C289.07,311.251,288.85,311.647,288.938,312.14z"/>
<path d="M317.49,303.815c-0.05-0.781-0.204-1.533-0.512-2.182c-0.642-1.357-1.746-1.926-2.926-1.885
	c-0.195-0.508-0.651-0.897-1.284-0.743c-4.619,1.133-9.26,3.802-12.946,6.753c-1.127,0.902-2.411,2.342-2.956,3.753
	c-0.479,0.055-0.951,0.449-0.917,1.068c0.169,3.131,0.358,6.26,0.469,9.395c0.059,1.643,2.227,1.578,2.245-0.056
	c0.025-2.275-0.175-4.616-0.471-6.916c0.225,0.107,0.474,0.204,0.753,0.289c2.801,0.857,6.498,0.357,9.343,0.018
	c3.168-0.38,6.224-1.732,7.961-4.474c0.289,2.104,0.542,4.211,1.006,6.279c0.308,1.376,2.069,0.908,2.062-0.374
	C319.297,311.165,318.431,307.298,317.49,303.815z M315.105,304.896c-0.246,2.432-1.811,4.012-3.995,4.961
	c-2.373,1.028-4.988,0.84-7.499,1.019c-0.941,0.067-4.215,0.431-4.825-0.456c-0.028-0.042,1.26-1.529,1.646-1.88
	c1.188-1.084,2.539-1.99,3.891-2.854c2.125-1.356,4.402-2.649,6.79-3.562c0.108,0.668,0.579,1.224,1.318,0.895
	c0.607-0.269,1.533-0.905,2.209-0.535C315.285,302.837,315.163,304.325,315.105,304.896z"/>
</svg>
