<?xml version="1.0" encoding="utf-8"?>
<!-- Generator: Adobe Illustrator 15.0.0, SVG Export Plug-In . SVG Version: 6.00 Build 0)  -->
<!DOCTYPE svg PUBLIC "-//W3C//DTD SVG 1.1//EN" "http://www.w3.org/Graphics/SVG/1.1/DTD/svg11.dtd">
<svg version="1.1" id="Layer_1" xmlns="http://www.w3.org/2000/svg" xmlns:xlink="http://www.w3.org/1999/xlink" x="0px" y="0px"
	 width="356.001px" height="609.768px" viewBox="-48.312 -69.854 356.001 609.768"
	 enable-background="new -48.312 -69.854 356.001 609.768" xml:space="preserve">
<g>
	<path fill="#E9E9E9" d="M98.166-25.091c50.839,0,101.685,0,152.522,0c-0.329,13.272-0.649,26.553-0.978,39.83
		c-22.233,0.579-44.537,0.267-66.69,1.925c-43.985,3.294-88.117,6.222-131.647,12.709C41.41,30.856,31.093,44.872,25.395,55.4
		C14.7,75.172,7.252,96.602-1.541,117.346C3.7,93.015,9.517,68.783,13.944,44.316c2.077-11.507,1.481-23.475,2.102-35.231
		C26.396,4.441,36.64-0.467,47.136-4.788C64.056-11.762,81.146-18.343,98.166-25.091z"/>
	<path fill="#E6E6E6" d="M16.045,9.085c-0.62,11.756-0.024,23.724-2.102,35.231C9.517,68.783,3.7,93.015-1.541,117.346
		C2.37,200.9,6.282,284.451,10.193,367.998c-0.005,22.804-0.008,45.594-0.016,68.398c-3.927,0.035-7.846,0.077-11.771,0.114
		c-1.939-0.093-3.885-0.137-5.828-0.126c0-125.339,0-250.679,0-376.018C0.392,43.277,8.207,26.19,16.021,9.096L16.045,9.085z"/>
	<path fill="#FFFFFF" d="M249.71,14.739c0.328-13.277,0.648-26.558,0.978-39.83c1.956,2.849,5.615,5.698,5.622,8.547
		c0.272,167.116,0.065,334.236,0.604,501.354c0.042,12.234-2.417,14.724-15.03,14.611c-80.162-0.723-160.341-0.307-240.508-0.608
		c-2.941-0.011-5.866-3.56-8.799-5.456c23.569-0.319,47.141-0.634,70.715-0.953c17.475,0,34.949,0,52.427,0
		c9.703-0.003,19.404-0.003,29.105-0.012c11.929,0.009,23.856,0.02,35.781,0.021c8.609,0.313,17.219,0.858,25.828,0.897
		c45.384,0.205,45.384,0.16,43.265-45.627c0.092-20.666,0.184-41.319,0.275-61.985c-0.134-4.219-0.264-8.434-0.394-12.658
		c0.05-67.934,0.1-135.87,0.152-203.808c-0.008-42.006-0.015-84.011-0.022-126.021C249.71,33.721,249.71,24.232,249.71,14.739z"/>
	<path fill="#DADADA" d="M63.292,492.402c-23.574,0.319-47.146,0.634-70.715,0.953c0-5.697,0-11.396,0-17.094
		c23.602-5.712,47.201-11.434,70.807-17.146c1.823-1.94,3.652-3.884,5.477-5.823c0,0-0.427-0.045-0.427-0.041
		c2.093,0.074,4.187,0.141,6.279,0.211c1.953,0.008,3.904,0.011,5.855,0.02c1.956,1.895,3.908,3.791,5.867,5.69l0,0
		C78.724,470.249,71.004,481.326,63.292,492.402z"/>
	<path fill="#E7E7E7" d="M98.166-25.091c-17.021,6.748-34.11,13.329-51.03,20.303C36.64-0.467,26.396,4.441,16.045,9.085
		l-0.024,0.011c-1.946-11.391-3.896-22.791-5.843-34.187C39.505-25.091,68.838-25.091,98.166-25.091z"/>
	<path fill="#FFFFFF" d="M63.384,459.116c-23.605,5.712-47.205,11.434-70.807,17.146c0-5.693,0-11.392,0-17.089
		c21.626-3.997,43.253-7.982,64.872-11.976c3.27,0.218,6.538,0.435,9.802,0.652c0.419,1.792,0.809,3.596,1.184,5.398l0.427,0.045
		C67.032,455.232,65.207,457.176,63.384,459.116z"/>
	<path fill="#E3E3E3" d="M10.178-25.091c1.948,11.396,3.896,22.796,5.843,34.187C8.207,26.19,0.392,43.277-7.423,60.367
		c0-23.741,1.997-47.69-0.65-71.149C-10.112-28.863,0.469-24.819,10.178-25.091z"/>
	<path fill="#FEFEFE" d="M57.453,447.194c-21.622,3.995-43.25,7.981-64.875,11.979c0-3.799,0-7.594,0-11.396
		c1.939-3.754,3.889-7.509,5.829-11.267c3.925-0.037,7.845-0.079,11.771-0.114c10.011,1.672,20.019,3.353,30.029,5.028
		C45.956,443.347,51.705,445.269,57.453,447.194z"/>
	<path fill="#EDEDED" d="M249.711,14.571c0,9.492,0,18.982,0,28.471c-29.174,4.804-64.039-17.605-86.957,17.146
		c-0.076-1.84-0.121-3.684-0.133-5.523c-1.954-1.948-3.901-3.896-5.856-5.843c-1.938-0.107-3.873-0.2-5.813-0.278
		c-2.066-1.762-4.134-3.535-6.195-5.297c-17.356,1.992-34.717,3.976-52.072,5.965c-11.577,0.983-25.32-1.565-34.323,3.631
		c-26.642,15.373-35.647,49.441-24.731,81.436c0.245,15.974-1.224,32.188,1.055,47.887c8.945,61.66,18.792,123.209,28.976,184.692
		c2.296,13.836,7.292,27.258,11.039,40.865c-5.895,1.657-11.791,3.314-17.686,4.979c-1.994-30.879-11.467-39.952-46.821-44.871
		C6.281,284.283,2.37,200.733-1.541,117.178C7.252,96.435,14.7,75.003,25.394,55.231c5.699-10.528,16.018-24.542,25.979-26.026
		c43.261-6.448,87.489-9.401,131.647-12.708C205.175,14.838,227.477,15.151,249.711,14.571z"/>
	<path fill="#EAEAEA" d="M10.193,367.998c35.354,4.919,44.827,13.992,46.82,44.879c-3.688,3.938-7.383,7.878-11.069,11.811
		c1.58,0.306,3.179,0.557,4.783,0.746c0.271,1.703,0.52,3.408,0.748,5.119c-3.759,3.621-7.513,7.249-11.268,10.873
		c-10.012-1.676-20.02-3.356-30.029-5.029C10.186,413.592,10.188,390.802,10.193,367.998z"/>
	<path fill="#F2F2F2" d="M162.754,60.356c22.917-34.751,57.783-12.342,86.956-17.146c0.008,42.01,0.015,84.015,0.022,126.021
		c-5.042,7.434-10.095,14.872-15.142,22.31c-2.459-5.746-4.912-11.489-7.372-17.231c-0.982-14.041-0.595-28.368-3.628-41.981
		c-1.208-5.427-9.97-9.27-15.294-13.833c-2.788,5.454-7.257,10.688-8.03,16.396c-1.752,13.013-1.698,26.26-2.381,39.415
		c2.75,21.742-5.363,50.291,34.032,48.859c3.178-0.116,10,11.462,9.709,17.353c-2.063,42.534-5.522,85.01-8.536,127.5
		c-9.496-11.819-17.46-31.811-28.792-33.813c-26.397-4.659-30.646-17.903-29.013-39.084c0.759-9.931,0.125-19.962,0.125-29.944
		c-1.818-0.082-3.644-0.167-5.466-0.248c-0.508,7.897-1.02,15.799-1.523,23.699c-2.157-41.865-4.316-83.739-6.471-125.61
		c0.076-7.767,0.16-15.538,0.241-23.306C162.38,113.254,162.57,86.805,162.754,60.356z"/>
	<path fill="#E1E1E1" d="M40.207,441.425c3.755-3.624,7.509-7.252,11.26-10.869c5.882-0.155,11.771-0.311,17.658-0.467
		c42.681-0.005,85.355-0.005,128.04-0.005c4.021,0.149,8.047,0.301,12.068,0.45c-1.824,13.344-3.646,26.688-5.474,40.034l0,0
		c-13.321,1.172-27.247,0.451-39.741,4.214c-7.548,2.277-12.868,11.507-19.192,17.608c-9.702,0.009-19.403,0.009-29.105,0.012
		c-9.763-11.076-19.525-22.153-29.284-33.229l0,0c-1.959-1.899-3.912-3.796-5.867-5.69c-1.951-0.009-3.902-0.012-5.855-0.02
		c-2.49-1.869-4.973-3.742-7.462-5.613c-3.264-0.218-6.532-0.435-9.802-0.652C51.705,445.269,45.956,443.347,40.207,441.425z"/>
	<path fill="#F5F5F5" d="M233.092,368.017c3.013-42.49,6.474-84.965,8.536-127.498c0.291-5.891-6.531-17.469-9.709-17.354
		c-39.396,1.432-31.282-27.117-34.032-48.859c9.777,15.644,19.556,10.59,29.333,0.003c2.46,5.742,4.913,11.485,7.372,17.231
		c5.046-7.438,10.1-14.876,15.142-22.31c-0.053,67.938-0.103,135.875-0.152,203.816c-5.554-0.066-11.111-0.143-16.668-0.208
		C232.98,371.233,233.042,369.623,233.092,368.017z"/>
	<path fill="#E4E4E4" d="M203.76,470.568c1.827-13.345,3.649-26.69,5.479-40.034c4.025-5.992,8.044-11.991,12.065-17.98
		c3.87-8.939,7.743-17.889,11.608-26.828c5.687-0.006,11.375-0.019,17.063-0.028c-0.092,20.666-0.184,41.32-0.275,61.985
		C234.386,455.311,219.074,462.938,203.76,470.568z"/>
	<path fill="#E7E7E7" d="M203.76,470.568c15.314-7.632,30.626-15.259,45.939-22.886c2.119,45.788,2.119,45.833-43.265,45.627
		c-8.609-0.04-17.219-0.585-25.828-0.897C188.323,485.133,196.045,477.85,203.76,470.568L203.76,470.568z"/>
	<path fill="#DCDCDC" d="M86.436,459.173c9.759,11.076,19.521,22.153,29.284,33.229c-17.479,0-34.952,0-52.427,0
		C71.004,481.326,78.724,470.249,86.436,459.173z"/>
	<path fill="#E4E4E4" d="M203.76,470.568c-7.715,7.281-15.437,14.563-23.153,21.845c-11.925-0.003-23.853-0.014-35.781-0.021
		c6.324-6.103,11.646-15.332,19.192-17.608C176.513,471.021,190.438,471.741,203.76,470.568z"/>
	<path fill="#FFFFFF" d="M249.975,385.696c-5.688,0.011-11.375,0.022-17.063,0.029c-1.601-0.424-3.217-0.785-4.847-1.091
		c1.615-3.936,3.234-7.866,4.847-11.796c5.558,0.066,11.114,0.143,16.668,0.208C249.71,377.265,249.841,381.479,249.975,385.696z"/>
	<path fill="#DCDCDC" d="M63.384,459.116c1.823-1.94,3.646-3.884,5.477-5.823C67.036,455.232,65.207,457.176,63.384,459.116z"/>
	<path fill="#DCDCDC" d="M80.569,453.482c1.956,1.895,3.908,3.791,5.867,5.69C84.477,457.273,82.524,455.377,80.569,453.482z"/>
	<path fill="#DCDCDC" d="M67.25,447.85c2.49,1.871,4.972,3.744,7.462,5.613c-2.093-0.07-4.187-0.137-6.279-0.211
		C68.06,451.445,67.669,449.642,67.25,447.85z"/>
	<path fill="#F3F3F3" d="M74.698,407.892c-3.747-13.607-8.743-27.029-11.038-40.865c-10.185-61.481-20.031-123.031-28.977-184.691
		c-2.276-15.699-0.81-31.914-1.055-47.888c2.945-9.926,6.313-19.746,8.754-29.787c5.111-21.041,12.644-39.853,38.082-44.297
		c2.016,3.788,4.04,7.584,6.061,11.371c-1.988,5.716-3.979,11.43-5.97,17.142c1.948,1.899,3.896,3.794,5.844,5.69
		c0,3.806,0,7.613,0,11.418c-26.545,11.411-36.398,29.32-25.907,57.206c3.557,9.452,3.032,20.503,3.525,30.856
		c2.063,43.487,3.483,87.001,6.066,130.451c0.328,5.486,6.103,10.672,9.356,15.992c3.201-5.913,7.754-11.51,9.335-17.817
		c3.792-15.12,6.188-30.578,9.151-45.897c1.953,34.34,3.905,68.683,5.86,103.022c-1.674,7.55-3.351,15.104-5.026,22.654
		C90.74,404.263,82.723,406.077,74.698,407.892z"/>
	<path fill="#FFFFFF" d="M86.526,71.733c-2.021-3.787-4.044-7.583-6.061-11.371c4.071-3.66,8.146-7.322,12.219-10.983
		c17.356-1.988,34.716-3.973,52.075-5.965c0.12,1.858,0.222,3.721,0.314,5.579c0,0-0.271,0.267-0.27,0.264
		c-2.134,0.056-4.277,0.111-6.42,0.17c-1.49,0.03-2.98,0.063-4.477,0.096c-2.339-0.055-4.669-0.118-7.006-0.174
		c-1.768,1.777-3.532,3.55-5.302,5.331c-1.771-0.122-3.552-0.255-5.324-0.403c-7.443,11.231-12.001,21.904,5.855,28.177
		c1.604-0.048,3.197-0.188,4.786-0.422c1.918,0.322,3.838,0.642,5.76,0.945l1.313-1.372c1.867,6.009,3.735,12.015,5.607,18.025
		c-6.047,2.188-12.093,4.373-18.144,6.562c-5.844,3.743-11.694,7.486-17.54,11.232c-4.095-7.708-8.182-15.417-12.265-23.125
		c0.003-3.583,0-7.163,0-10.747C89.945,79.611,88.234,75.673,86.526,71.733z"/>
	<path fill="#F2F2F2" d="M92.685,49.379c-4.072,3.661-8.146,7.323-12.219,10.983c-25.438,4.445-32.971,23.257-38.082,44.297
		c-2.44,10.041-5.809,19.861-8.754,29.787c-10.917-31.994-1.91-66.063,24.731-81.436C67.364,47.813,81.107,50.362,92.685,49.379z"/>
	<path fill="#FFFFFF" d="M162.754,60.356c-0.185,26.449-0.375,52.898-0.559,79.359c-3.704-7.442-7.422-14.895-11.138-22.335
		c0.141-3.84,0.282-7.679,0.42-11.516c1.771-9.579,3.544-19.159,5.316-28.741c-1.375-0.267-2.75-0.534-4.125-0.794
		c-2.499,6.021-4.996,12.045-7.495,18.069c-0.122-11.222-0.244-22.447-0.367-33.676c0-3.82-0.004-7.644-0.007-11.462l0.271-0.267
		c1.958-0.093,3.918-0.189,5.879-0.282c1.94,0.078,3.876,0.171,5.815,0.279c1.952,1.947,3.9,3.894,5.853,5.842
		C162.632,56.672,162.677,58.516,162.754,60.356z"/>
	<path fill="#FFFFFF" d="M74.698,407.892c8.023-1.813,16.042-3.627,24.063-5.441c5.759,3.635,11.528,7.273,17.291,10.91
		c-1.845,0.154-3.681,0.273-5.523,0.363c-2.25,3.666-4.495,7.334-6.741,10.998c-11.677,0.066-23.353,0.129-35.034,0.196l0.134,0.118
		c-7.65-0.115-15.297-0.229-22.944-0.348c3.687-3.933,7.379-7.873,11.069-11.812C62.907,411.207,68.804,409.549,74.698,407.892z"/>
	<path fill="#F8F8F8" d="M162.62,54.832c-1.951-1.948-3.899-3.895-5.853-5.842C158.721,50.937,160.669,52.884,162.62,54.832z"/>
	<path fill="#F8F8F8" d="M150.952,48.711c-1.959,0.093-3.919,0.189-5.878,0.282c-0.093-1.858-0.195-3.721-0.314-5.579
		C146.819,45.176,148.886,46.949,150.952,48.711z"/>
	<path fill="#FFFFFF" d="M45.944,424.688c7.647,0.119,15.293,0.233,22.939,0.349c-6.049,0.13-12.106,0.264-18.156,0.397
		C49.122,425.244,47.524,424.993,45.944,424.688z"/>
	<path fill="#FFFFFF" d="M50.727,425.434c6.05-0.134,12.107-0.268,18.156-0.397c0.005,0-0.129-0.118-0.125-0.118
		c0.125,1.721,0.248,3.449,0.366,5.172c-5.887,0.156-11.775,0.312-17.658,0.467C51.246,428.842,50.997,427.137,50.727,425.434z"/>
	<path fill="#F0F0F0" d="M232.912,372.839c-1.612,3.93-3.231,7.861-4.853,11.796c-13.963,7.728-27.919,15.45-41.877,23.175
		c-5.623-1.912-11.242-3.824-16.857-5.731c-0.59-1.755-1.188-3.505-1.813-5.249c0.299-36.061,0.604-72.133,0.909-108.202
		c0.504-7.901,1.016-15.801,1.523-23.7c1.822,0.082,3.647,0.167,5.466,0.249c0,9.982,0.635,20.013-0.125,29.944
		c-1.633,21.181,2.614,34.425,29.013,39.084c11.333,2.003,19.296,21.994,28.792,33.813
		C233.042,369.623,232.98,371.233,232.912,372.839z"/>
	<path fill="#FFFFFF" d="M168.422,288.627c-0.306,36.069-0.61,72.142-0.905,108.202c-1.607-0.104-3.219-0.208-4.831-0.319
		c-1.685-20.6-3.369-41.202-5.058-61.797l-0.955-1.021c-1.649-3.457-3.292-6.918-4.942-10.375c-2.253-2.215-4.516-4.433-6.769-6.647
		c-0.093-11.341-0.186-22.677-0.28-34.019c3.885-4.153,7.774-8.316,11.654-12.471c0.049-1.213,0.042-2.433-0.02-3.646
		c-11.604-16.441-16.787-33.463-4.992-52.03c-0.093-2.507-0.176-5.012-0.26-7.523c-2.066-3.383-4.132-6.77-6.195-10.152
		c0.106-3.71,0.215-7.428,0.32-11.14c1.941-5.673,3.881-11.355,5.825-17.028l-0.019-0.044c1.979-1.843,3.96-3.684,5.938-5.527
		c1.673-0.023,3.341-0.045,5.016-0.071C164.106,204.889,166.266,246.762,168.422,288.627z"/>
	<path fill="#F5F5F5" d="M227.221,174.31c-9.777,10.586-19.557,15.64-29.333-0.003c0.683-13.155,0.629-26.402,2.381-39.415
		c0.772-5.709,5.242-10.942,8.03-16.396c5.325,4.563,14.086,8.406,15.294,13.833C226.626,145.942,226.239,160.269,227.221,174.31z"
		/>
	<path fill="#FFFFFF" d="M161.952,163.018c-1.674,0.026-3.343,0.048-5.016,0.071c0-0.004,0.004-0.123,0.004-0.123
		c-2.078-1.817-4.164-3.638-6.24-5.453c-1.872,1.802-3.747,3.602-5.619,5.405c-1.868-9.548-3.74-19.097-5.61-28.641
		c-0.157-1.821-0.321-3.636-0.498-5.453c2.048-3.84,4.101-7.683,6.146-11.522c1.981,0.021,3.961,0.048,5.943,0.079
		c3.711,7.44,7.429,14.893,11.133,22.335C162.113,147.479,162.029,155.251,161.952,163.018z"/>
	<path fill="#FFFFFF" d="M69.125,430.09c-0.118-1.723-0.242-3.451-0.366-5.172c11.677-0.067,23.353-0.13,35.029-0.194
		c27.47,0.042,54.933,0.076,82.396,0.109c3.659,1.754,7.319,3.505,10.981,5.252C154.481,430.085,111.806,430.085,69.125,430.09z"/>
	<path fill="#FFFFFF" d="M197.165,430.085c-3.663-1.747-7.323-3.498-10.981-5.252c7.822-3.773,15.653-7.545,23.477-11.318
		c3.884-0.322,7.765-0.637,11.645-0.961c-4.021,5.99-8.041,11.989-12.064,17.981C205.211,430.386,201.187,430.234,197.165,430.085z"
		/>
	<path fill="#EBEBEB" d="M221.304,412.554c-3.88,0.324-7.761,0.639-11.645,0.961c-7.823-1.898-15.649-3.806-23.477-5.705
		c13.958-7.724,27.914-15.445,41.877-23.174c1.635,0.305,3.252,0.667,4.853,1.092C229.047,394.666,225.174,403.614,221.304,412.554z
		"/>
	<path fill="#F6F6F6" d="M97.921,276.772c-2.958,15.32-5.354,30.778-9.146,45.897c-1.581,6.308-6.134,11.904-9.335,17.817
		c-3.255-5.319-9.028-10.506-9.356-15.992c-2.583-43.449-4.003-86.963-6.066-130.451c-0.493-10.353,0.031-21.404-3.525-30.856
		C50,135.303,59.854,117.393,86.4,105.982c1.966,41.766,3.923,83.532,5.887,125.298c1.723,0.034,3.441,0.068,5.164,0.101
		c0.249,13.243,0.492,26.487,0.74,39.722c0.004,1.941,0.004,3.877,0.012,5.813L97.921,276.772z"/>
	<path fill="#FFFFFF" d="M162.686,396.51c1.612,0.111,3.224,0.216,4.831,0.319c0.62,1.744,1.219,3.494,1.798,5.249
		c-14.15,3.653-28.294,7.312-42.441,10.962c-3.606,0.107-7.211,0.216-10.818,0.318c-5.766-3.635-11.535-7.274-17.293-10.909
		c1.676-7.55,3.354-15.105,5.026-22.662c0.062-13.354,0.122-26.709,0.176-40.067c1.964,0.038,3.927,0.071,5.89,0.111
		c0.451,45.963,0.465,45.852,43.166,50.939C156.43,391.179,159.469,394.528,162.686,396.51z"/>
	<path fill="#FFFFFF" d="M103.963,339.72c-0.054,13.358-0.114,26.713-0.176,40.067c-1.955-34.332-3.907-68.675-5.86-103.015
		c-0.006,0,0.275,0.145,0.275,0.145c5.943,7.545,11.891,15.087,17.838,22.633c-0.059,1.936-0.115,3.872-0.167,5.809
		C111.9,316.813,107.935,328.265,103.963,339.72z"/>
	<path fill="#F2F2F2" d="M92.287,231.281c-1.963-41.766-3.921-83.532-5.887-125.298c0-3.806,0-7.612,0-11.418l0.031-0.011
		c1.742-0.071,3.477-0.159,5.218-0.256c4.086,7.708,8.174,15.417,12.268,23.125l0.009-0.173c-0.097,1.866-0.218,3.721-0.371,5.583
		c-3.617,13.206-7.227,26.416-10.845,39.622C92.573,185.394,92.428,208.337,92.287,231.281z"/>
	<path fill="#F2F2F2" d="M86.526,71.733c1.708,3.94,3.419,7.878,5.13,11.818c-3.688,1.762-7.387,3.532-11.075,5.3l-0.024,0.023
		C82.547,83.163,84.537,77.449,86.526,71.733z"/>
	<path fill="#F2F2F2" d="M86.4,94.565c-1.947-1.896-3.896-3.791-5.844-5.69l0.024-0.023c1.946,1.905,3.896,3.807,5.851,5.703
		L86.4,94.565z"/>
	<path fill="#F9F9F9" d="M145.124,117.293c-2.051,3.847-4.104,7.69-6.151,11.53c-7.564,0.015-15.133,0.033-22.704,0.056
		c-2.043-1.989-4.086-3.974-6.13-5.958c-2.071-1.889-4.144-3.781-6.214-5.672l-0.009,0.173c5.845-3.746,11.695-7.489,17.54-11.232
		c4.294,0.111,8.587,0.216,12.873,0.327c3.322,1.446,6.653,2.893,9.983,4.339C144.581,113.006,144.848,115.153,145.124,117.293z"/>
	<path fill="#FFFFFF" d="M122.137,82.453c-17.861-6.273-13.303-16.945-5.868-28.177c1.803,5.872,3.614,11.744,5.425,17.612
		C121.838,75.409,121.983,78.934,122.137,82.453z"/>
	<path fill="#FFFFFF" d="M121.694,71.889c-1.811-5.869-3.622-11.741-5.425-17.612c1.78,0.148,3.562,0.281,5.332,0.403
		c1.771-1.781,3.534-3.554,5.302-5.331c2.338,0.056,4.667,0.119,7.002,0.167c-0.321,7.612-0.639,15.235-0.95,22.851
		c-1.903-0.136-3.807-0.159-5.712-0.07C125.399,72.053,123.551,71.918,121.694,71.889z"/>
	<path fill="#FFFFFF" d="M144.806,60.727c0.126,11.225,0.249,22.45,0.368,33.68c-0.07,1.784-0.134,3.564-0.188,5.353
		c-1.994,0.267-3.979,0.537-5.975,0.805l0.588-0.935c-1.872-6.01-3.74-12.016-5.615-18.003c1.765-7.089,3.526-14.193,5.29-21.3
		C141.12,60.452,142.962,60.585,144.806,60.727z"/>
	<path fill="#FFFFFF" d="M139.275,60.326c-1.764,7.107-3.524,14.211-5.29,21.3c0.008-0.021-1.307,1.35-1.302,1.35
		c0.095-3.531,0.184-7.07,0.271-10.609c0.313-7.615,0.629-15.239,0.95-22.851c1.5-0.026,2.99-0.059,4.486-0.093
		C138.695,53.055,138.989,56.69,139.275,60.326z"/>
	<path fill="#D5D5D5" d="M134.333,106.518c-4.289-0.111-8.582-0.216-12.876-0.327c6.051-2.189,12.097-4.374,18.144-6.562
		c0,0-0.588,0.935-0.588,0.931c-0.007,1.514-0.021,3.027-0.039,4.541C137.432,105.583,135.879,106.057,134.333,106.518z"/>
	<path fill="#E7E7E7" d="M86.432,94.554c-1.955-1.896-3.904-3.798-5.851-5.703c3.688-1.769,7.387-3.539,11.076-5.3
		c-0.004,3.584,0,7.164-0.004,10.747C89.907,94.395,88.173,94.483,86.432,94.554z"/>
	<path fill="#FFFFFF" d="M139.275,60.326c-0.286-3.636-0.58-7.271-0.883-10.902c2.136-0.055,4.279-0.111,6.414-0.167
		c0,3.821,0.004,7.646,0.004,11.465C142.962,60.585,141.12,60.452,139.275,60.326z"/>
	<path fill="#E7E7E7" d="M132.955,72.367c-0.088,3.54-0.177,7.079-0.271,10.609c-1.926-0.303-3.846-0.623-5.76-0.938
		c0.11-3.246,0.214-6.496,0.319-9.741C129.149,72.208,131.051,72.23,132.955,72.367z"/>
	<path fill="#D1D1D1" d="M127.243,72.297c-0.105,3.245-0.209,6.496-0.319,9.741c-1.593,0.227-3.187,0.367-4.79,0.415
		c-0.15-3.52-0.295-7.044-0.439-10.564C123.551,71.918,125.399,72.053,127.243,72.297z"/>
	<path fill="#FFFFFF" d="M126.904,49.349c-1.768,1.777-3.532,3.55-5.302,5.331C123.371,52.899,125.136,51.126,126.904,49.349z"/>
	<path fill="#FFFFFF" d="M144.986,99.759c0.054-1.788,0.117-3.569,0.188-5.353c2.501-6.032,4.999-12.057,7.498-18.077
		c1.375,0.26,2.75,0.527,4.125,0.794c-1.772,9.582-3.545,19.163-5.325,28.741C149.302,103.832,147.143,101.795,144.986,99.759z"/>
	<path fill="#E9E9E9" d="M144.986,99.759c2.157,2.037,4.315,4.073,6.484,6.105c-0.129,3.837-0.271,7.675-0.412,11.516
		c-1.979-0.031-3.958-0.057-5.939-0.079c-0.271-2.148-0.538-4.295-0.803-6.44c-1.774-1.917-3.56-3.839-5.344-5.76
		c0.016-1.513,0.031-3.026,0.039-4.541C141.006,100.296,142.991,100.025,144.986,99.759z"/>
	<path fill="#FFFFFF" d="M126.874,413.04c14.147-3.65,28.291-7.309,42.441-10.962c5.626,1.907,11.245,3.821,16.868,5.731
		c7.827,1.898,15.653,3.806,23.477,5.705c-7.823,3.772-15.654,7.545-23.477,11.317c-27.462-0.033-54.925-0.067-82.396-0.109
		c2.246-3.667,4.491-7.335,6.733-11.001c14.924,2.037,29.851,4.077,44.785,6.12c0.138-1.821,0.275-3.639,0.413-5.452
		C146.101,413.938,136.484,413.487,126.874,413.04z"/>
	<path fill="#FCFCFC" d="M126.874,413.04c9.61,0.447,19.228,0.896,28.846,1.352c-0.138,1.813-0.275,3.631-0.413,5.451
		c-14.935-2.043-29.861-4.083-44.785-6.119c1.851-0.09,3.687-0.209,5.531-0.363C119.662,413.256,123.268,413.147,126.874,413.04z"/>
	<path fill="#FCFCFC" d="M92.287,231.281c0.142-22.944,0.287-45.887,0.424-68.827c3.801,0.318,7.608,0.63,11.413,0.942
		c-0.026,1.562-0.063,3.12-0.088,4.678c-1.439,9.938-2.872,19.869-4.313,29.798c5.458-0.27,10.913-0.544,16.362-0.819
		c7.778,0.045,15.554,0.086,23.326,0.125c1.944,5.672,3.892,11.344,5.833,17.021c2.028,0.096,4.056,0.204,6.08,0.312
		c-11.794,18.559-6.611,35.582,4.992,52.021c-0.05,1.212-0.047,2.429,0.02,3.649c-3.88,4.154-7.77,8.316-11.65,12.471
		c-9.544,5.632-19.094,11.264-28.646,16.895c-5.947-7.542-11.895-15.084-17.838-22.629c-0.008-1.936-0.008-3.872-0.012-5.809
		c5.559-8.805,13.777-17.047,15.864-26.561c1.798-8.217,1.427-23.791-16.604-13.166C95.729,231.349,94.009,231.315,92.287,231.281z"
		/>
	<path fill="#FFFFFF" d="M103.963,339.72c3.972-11.455,7.937-22.906,11.91-34.361c9.692,3.772,19.396,7.539,29.089,11.312
		c2.252,2.215,4.515,4.433,6.761,6.636c1.643,3.461,3.3,6.922,4.95,10.387c0,0,0.955,1.021,0.952,1.017
		c-3.232,6.741-5.566,14.12-9.95,20.065c-4.144,5.619-11.878,14.512-15.493,13.488c-6.63-1.875-11.886-9.607-16.745-15.641
		c-2.834-3.52-3.785-8.479-5.584-12.791C107.89,339.791,105.927,339.758,103.963,339.72z"/>
	<path fill="#FFFFFF" d="M109.854,339.831c1.799,4.311,2.75,9.271,5.584,12.791c4.859,6.033,10.115,13.766,16.745,15.641
		c3.614,1.022,11.35-7.869,15.493-13.488c4.384-5.946,6.718-13.324,9.95-20.065c1.691,20.601,3.376,41.202,5.061,61.802
		c-3.217-1.979-6.256-5.33-9.667-5.738C110.318,385.683,110.305,385.794,109.854,339.831z"/>
	<path fill="#F9F9F9" d="M104.036,168.075c0.025-1.559,0.062-3.117,0.088-4.678c3.954-7.8,7.905-15.592,11.863-23.382
		c7.825-1.914,15.652-3.828,23.483-5.738c1.87,9.544,3.742,19.093,5.61,28.641c1.883-0.078,3.762-0.152,5.642-0.231l1.092,1.114
		c-0.267,1.603-0.542,3.213-0.816,4.815l0.019,0.044c-1.944,5.673-3.884,11.355-5.825,17.028c-0.105,3.712-0.214,7.429-0.32,11.14
		c-1.813,0.13-3.636,0.241-5.458,0.351c-7.772-0.04-15.548-0.081-23.326-0.125C112.068,187.396,108.051,177.738,104.036,168.075z"/>
	<path fill="#F8F8F8" d="M144.963,316.669c-9.694-3.773-19.396-7.539-29.089-11.311c0.052-1.938,0.108-3.873,0.167-5.81
		c9.552-5.636,19.102-11.267,28.646-16.897C144.778,293.992,144.87,305.328,144.963,316.669z"/>
	<path fill="#FFFFFF" d="M145.191,185.688c1.941-5.673,3.881-11.355,5.825-17.028C149.072,174.333,147.132,180.015,145.191,185.688z
		"/>
	<path fill="#FFFFFF" d="M139.412,197.179c1.822-0.11,3.645-0.221,5.458-0.351c2.063,3.382,4.129,6.769,6.195,10.164
		c-1.94,2.403-3.88,4.807-5.82,7.208C143.304,208.523,141.357,202.851,139.412,197.179z"/>
	<path fill="#E9E9E9" d="M145.246,214.199c1.939-2.4,3.88-4.804,5.82-7.208c0.084,2.5,0.167,5.004,0.26,7.512
		C149.302,214.403,147.274,214.295,145.246,214.199z"/>
	<path fill="#EEEEEE" d="M156.673,333.692c-1.649-3.465-3.308-6.926-4.95-10.387C153.381,326.772,155.024,330.235,156.673,333.692z"
		/>
	<path fill="#FFFFFF" d="M150.998,168.616c0.273-1.602,0.55-3.212,0.81-4.826c1.707-0.282,3.422-0.556,5.133-0.824
		c0,0-0.004,0.119-0.004,0.123C154.958,164.932,152.976,166.772,150.998,168.616z"/>
	<path fill="#E7E7E7" d="M156.337,270.181c-0.066-1.221-0.069-2.438-0.02-3.649C156.379,267.748,156.386,268.968,156.337,270.181z"
		/>
	<path fill="#EDEDED" d="M139.471,134.277c-7.831,1.91-15.658,3.824-23.488,5.738c0.098-3.71,0.192-7.426,0.287-11.135
		c7.57-0.023,15.139-0.042,22.704-0.056C139.149,130.641,139.313,132.456,139.471,134.277z"/>
	<path fill="#F9F9F9" d="M156.941,162.966c-1.711,0.268-3.426,0.542-5.133,0.824c0.007,0.011-1.085-1.103-1.078-1.094
		c0.05-1.726,0.039-3.458-0.029-5.183C152.777,159.328,154.863,161.148,156.941,162.966z"/>
	<path fill="#DEDEDE" d="M150.7,157.513c0.067,1.725,0.079,3.457,0.029,5.183c-1.886,0.07-3.765,0.145-5.647,0.222
		C146.953,161.115,148.828,159.315,150.7,157.513z"/>
	<path fill="#FFFFFF" d="M97.451,231.382c18.031-10.625,18.402,4.949,16.604,13.166c-2.086,9.514-10.306,17.756-15.864,26.561
		C97.944,257.869,97.7,244.625,97.451,231.382z"/>
	<path fill="#FFFFFF" d="M116.27,128.88c-0.095,3.708-0.189,7.425-0.287,11.135c-3.953,7.79-7.905,15.582-11.858,23.382
		c-3.805-0.312-7.612-0.624-11.413-0.942c3.618-13.206,7.228-26.416,10.854-39.619c2.193,0.026,4.386,0.055,6.574,0.086
		C112.184,124.906,114.227,126.891,116.27,128.88z"/>
	<path fill="#FFFFFF" d="M110.14,122.922c-2.188-0.031-4.38-0.06-6.574-0.086c0.143-1.866,0.264-3.721,0.36-5.586
		C105.996,119.141,108.069,121.033,110.14,122.922z"/>
	<path fill="#FFFFFF" d="M138.973,105.101c1.784,1.921,3.568,3.843,5.344,5.76c-3.333-1.45-6.665-2.897-9.987-4.343
		C135.879,106.057,137.432,105.583,138.973,105.101z"/>
	<path fill="#FFFFFF" d="M104.036,168.075c4.015,9.663,8.031,19.322,12.051,28.979c-5.45,0.275-10.904,0.549-16.362,0.819
		C101.164,187.943,102.596,178.013,104.036,168.075z"/>
</g>
<path fill="none" stroke="#000000" stroke-width="0.25" d="M184.518,436.896V436.4v-10.552v-0.492h-1.343H66.039h-1.347v0.492V436.4
	v0.496h1.347h117.136H184.518"/>
<path fill="none" stroke="#000000" stroke-width="0.25" d="M18.018,424.76v-0.357v-7.57v-0.354l2.006,0.381l5.287,1.002l7.476,1.425
	l8.569,1.631l8.568,1.627l7.477,1.424l5.287,1.005l2.005,0.384v0.492v10.552v0.496l-2.005-0.522l-5.287-1.375l-7.477-1.942
	l-8.568-2.229l-8.569-2.229l-7.476-1.941l-5.287-1.375L18.018,424.76L18.018,424.76z"/>
<path fill="none" stroke="#000000" stroke-width="0.25" d="M231.532,424.908v-0.351v-7.438v-0.349l-2.008,0.373l-5.288,0.989
	l-7.475,1.397l-8.568,1.605l-8.569,1.603l-7.477,1.397l-5.287,0.987l-2.005,0.374V426v10.688v0.505l2.005-0.529l5.287-1.394
	l7.477-1.966l8.569-2.253l8.568-2.257l7.475-1.963l5.288-1.396L231.532,424.908L231.532,424.908z"/>
<path fill="none" stroke="#000000" stroke-width="0.25" d="M167.714,388.657l0.72,2.486l2.025,2.502l3.146,2.496l4.082,2.465
	l4.828,2.404l5.393,2.327l5.768,2.226l5.95,2.088l5.951,1.938l5.764,1.758l5.395,1.557l4.829,1.324l4.083,1.074l3.146,0.799
	l2.025,0.498l0.717,0.172"/>
<path fill="none" stroke="#000000" stroke-width="0.25" d="M82.172,388.657l-0.716,2.486l-2.026,2.502l-3.146,2.496l-4.08,2.465
	l-4.83,2.404l-5.395,2.327l-5.766,2.226l-5.949,2.088l-5.95,1.938l-5.765,1.758l-5.396,1.557l-4.828,1.324l-4.082,1.074
	l-3.146,0.799l-2.025,0.498l-0.719,0.172"/>
<path fill="none" stroke="#000000" stroke-width="0.25" d="M167.876,388.75V46.257"/>
<path fill="none" stroke="#000000" stroke-width="0.25" stroke-linecap="round" d="M82.204,388.974V217.728v-42.812v-42.812
	c0,0-0.229-59.489,0-73.565C81.882,49.268,71.181,46.96,71.181,46.96"/>
<path fill="none" stroke="#000000" stroke-width="0.25" stroke-linecap="round" stroke-linejoin="round" d="M167.652,46.183H70.905"
	/>
<path fill="none" stroke="#000000" stroke-width="0.25" d="M168.037,389.207c0.42,7.636-86.018,7.758-85.746-0.339"/>
<linearGradient id="SVGID_1_" gradientUnits="userSpaceOnUse" x1="104.2634" y1="173.3013" x2="129.6106" y2="173.3013" gradientTransform="matrix(0.7526 0 0 0.7526 -4.2066 89.4988)">
	<stop  offset="0" style="stop-color:#A9C0DA"/>
	<stop  offset="1" style="stop-color:#A9C0DA;stop-opacity:0"/>
</linearGradient>
<path opacity="0.5" fill="url(#SVGID_1_)" enable-background="new    " d="M74.262,46.427c14.609,10.783,7.646,16.016,8.832,44.07
	l0.197,298.275c6.657,4.312,5.792,0.582,10.047,4.652c-2.015-8.332-4.162-16.326-4.24-29.576L88.393,90.497
	c-0.247-29.911,2.774-35.71-6.358-43.916L74.262,46.427L74.262,46.427z"/>
<path fill="#FFFFFF" stroke="#000000" stroke-width="0.25" stroke-linecap="round" stroke-linejoin="round" d="M107.109,275.181
	l0.174,76.674"/>
<path fill="#FFFFFF" stroke="#000000" stroke-width="0.25" stroke-linecap="round" stroke-linejoin="round" d="M147.41,349.827
	l0.642-56.309v-18.086"/>
<path fill="none" stroke="#000000" stroke-width="0.25" stroke-linecap="round" stroke-linejoin="round" d="M140.827,331.537"/>
<path fill="none" stroke="#000000" stroke-width="0.25" stroke-linecap="round" stroke-linejoin="round" d="M113.573,307.497"/>
<path fill="none" stroke="#000000" stroke-width="0.25" stroke-linecap="round" stroke-linejoin="round" d="M141.213,307.88"/>
<path fill="none" stroke="#000000" stroke-width="0.25" stroke-linecap="round" stroke-linejoin="round" d="M113.959,283.84"/>
<path fill="#CECECE" stroke="#000000" stroke-width="0.25" stroke-linecap="round" stroke-linejoin="round" d="M122.996,337.252
	l-0.038,4.72l-2.625,1.019l-2.104,1.122l-1.916,1.486l-1.421,1.61l-1.066,2.015l-0.549,2.033l0.138,2.227l0.602,1.779l0.738,1.293
	l1.038,1.188l1.313,1.018l1.941,1.081l2.268,0.827l2.651,0.359l2.706-0.064l2.46-0.465l2.378-0.828l2.188-1.23l1.558-1.291
	l1.421-1.866l1.093-2.332l0.41-1.761l-0.218-1.992l-0.875-2.162l-1.448-1.844l-1.121-0.911l-1.12-0.784l-2.215-0.997l-0.573-0.19
	l-0.198-6.723C127.953,336.228,125.499,336.856,122.996,337.252z"/>
<path stroke="#000000" stroke-width="0.25" stroke-linecap="round" stroke-linejoin="round" d="M107.25,336.267
	c-0.006,0.1-0.099,15.184-0.103,15.59c-0.005,0.571-0.009,1.231-0.008,1.375c0,7.112,6.588,11.912,15.384,13.056
	c1.336,0.173,2.985,8.69,4.407,8.69c1.252,0,2.229-8.519,3.439-8.688c8.61-1.218,15.807-6.567,16.709-13.177
	c0.063-0.459,0.383-16.446,0.383-16.918"/>
<path fill="none" stroke="#000000" stroke-width="0.25" stroke-linecap="round" stroke-linejoin="round" d="M163.747,331.631"/>
<path fill="none" stroke="#000000" stroke-width="0.25" stroke-linecap="round" stroke-linejoin="round" d="M97.474,287.742"/>
<path fill="none" stroke="#000000" stroke-width="0.25" d="M147.95,350.778"/>
<path fill="none" stroke="#000000" stroke-width="0.25" d="M147.953,331.537"/>
<path fill="none" stroke="#000000" stroke-width="0.25" d="M146.059,284.353"/>
<path fill="none" stroke="#000000" stroke-width="0.25" stroke-linecap="round" stroke-linejoin="round" d="M135.841,123.191
	c0-2.301-1.75-4.167-3.907-4.167h-9.714c-2.156,0-3.906,1.866-3.906,4.167V259.39c0,2.301,1.75,4.166,3.906,4.166h9.714
	c2.157,0,3.907-1.865,3.907-4.166V123.191z"/>
<path fill="none" stroke="#000000" stroke-width="0.25" d="M120.473,238.826h2.497"/>
<path fill="none" stroke="#000000" stroke-width="0.25" d="M120.473,236.215h2.497"/>
<path fill="none" stroke="#000000" stroke-width="0.25" d="M120.47,233.604h2.497"/>
<path fill="none" stroke="#000000" stroke-width="0.25" d="M120.47,230.992l2.497,0.002"/>
<path fill="none" stroke="#000000" stroke-width="0.25" d="M119.963,228.349l3.456-0.002"/>
<path fill="none" stroke="#000000" stroke-width="0.25" d="M120.484,225.685h2.496"/>
<path fill="none" stroke="#000000" stroke-width="0.25" d="M120.484,223.073h2.497"/>
<path fill="none" stroke="#000000" stroke-width="0.25" d="M120.48,220.463h2.497"/>
<path fill="none" stroke="#000000" stroke-width="0.25" d="M120.48,217.852h2.497"/>
<path fill="none" stroke="#000000" stroke-width="0.25" d="M119.974,215.207h3.457"/>
<path fill="none" stroke="#000000" stroke-width="0.25" d="M120.481,212.551h2.496"/>
<path fill="none" stroke="#000000" stroke-width="0.25" d="M120.478,209.939h2.497"/>
<path fill="none" stroke="#000000" stroke-width="0.25" d="M120.478,207.329h2.497"/>
<path fill="none" stroke="#000000" stroke-width="0.25" d="M119.971,204.684h3.457"/>
<path fill="#FFFFFF" stroke="#000000" stroke-width="0.25" stroke-linecap="round" stroke-linejoin="round" d="M107.226,278.922
	c-0.015-0.366-0.023-3.039-0.023-3.411c0-11.421,10.695-20.229,21.481-20.229c10.785,0,19.528,10.086,19.528,22.529"/>
<path fill="none" stroke="#000000" stroke-width="0.25" d="M119.971,191.646h3.457"/>
<path fill="none" stroke="#000000" stroke-width="0.25" d="M120.49,202.075h2.496"/>
<path fill="none" stroke="#000000" stroke-width="0.25" d="M120.49,199.463h2.496"/>
<path fill="none" stroke="#000000" stroke-width="0.25" d="M120.486,196.853h2.497"/>
<path fill="none" stroke="#000000" stroke-width="0.25" d="M120.486,194.243h2.497"/>
<path fill="none" stroke="#000000" stroke-width="0.25" d="M120.496,189.041h2.497"/>
<path fill="none" stroke="#000000" stroke-width="0.25" d="M120.496,186.375h2.497"/>
<path fill="none" stroke="#000000" stroke-width="0.25" d="M120.493,183.765h2.497"/>
<path fill="none" stroke="#000000" stroke-width="0.25" d="M120.492,181.154h2.496"/>
<path fill="none" stroke="#000000" stroke-width="0.25" d="M119.986,178.508h3.455"/>
<path fill="none" stroke="#000000" stroke-width="0.25" d="M120.814,175.879h1.888"/>
<path fill="none" stroke="#000000" stroke-width="0.25" d="M120.796,175.886h1.887"/>
<path fill="none" stroke="#000000" stroke-width="0.25" d="M120.487,175.853h2.498"/>
<path fill="none" stroke="#000000" stroke-width="0.25" d="M120.487,173.242h2.498"/>
<path fill="none" stroke="#000000" stroke-width="0.25" d="M120.484,170.631h2.496"/>
<path fill="none" stroke="#000000" stroke-width="0.25" d="M120.484,168.021l2.496-0.001"/>
<path fill="none" stroke="#000000" stroke-width="0.25" d="M119.978,165.375h3.456"/>
<path fill="none" stroke="#000000" stroke-width="0.25" d="M120.49,162.801h2.496"/>
<path fill="none" stroke="#000000" stroke-width="0.25" d="M120.49,160.19h2.496"/>
<path fill="none" stroke="#000000" stroke-width="0.25" d="M120.487,157.579h2.497"/>
<path fill="none" stroke="#000000" stroke-width="0.25" d="M120.487,154.968h2.497"/>
<path fill="none" stroke="#000000" stroke-width="0.25" d="M119.981,152.323h3.456"/>
<path fill="none" stroke="#000000" stroke-width="0.25" d="M120.809,149.774h1.887"/>
<path fill="none" stroke="#000000" stroke-width="0.25" d="M120.502,149.757l2.497-0.002"/>
<path fill="none" stroke="#000000" stroke-width="0.25" d="M120.502,147.146l2.497-0.001"/>
<path fill="none" stroke="#000000" stroke-width="0.25" d="M120.5,144.534h2.496"/>
<path fill="none" stroke="#000000" stroke-width="0.25" d="M120.5,141.925h2.496"/>
<path fill="none" stroke="#000000" stroke-width="0.25" d="M119.992,139.278h3.456"/>
<path fill="none" stroke="#000000" stroke-width="0.25" d="M119.993,126.9h3.455"/>
<path fill="none" stroke="#000000" stroke-width="0.25" d="M120.486,136.72h2.497"/>
<path fill="none" stroke="#000000" stroke-width="0.25" d="M120.486,134.109h2.497"/>
<path fill="none" stroke="#000000" stroke-width="0.25" d="M120.483,131.499h2.497"/>
<path fill="none" stroke="#000000" stroke-width="0.25" d="M120.483,128.888h2.497"/>
<path fill="none" stroke="#000000" stroke-width="0.25" d="M119.196,128.752"/>
<path fill="none" stroke="#000000" stroke-width="0.25" d="M120.805,251.874h1.886"/>
<path fill="none" stroke="#000000" stroke-width="0.25" d="M120.786,251.879h1.886"/>
<path fill="none" stroke="#000000" stroke-width="0.25" d="M120.478,251.847h2.497"/>
<path fill="none" stroke="#000000" stroke-width="0.25" d="M120.478,249.235h2.497"/>
<path fill="none" stroke="#000000" stroke-width="0.25" d="M120.475,246.626h2.497"/>
<path fill="none" stroke="#000000" stroke-width="0.25" d="M120.475,244.017h2.497"/>
<path fill="none" stroke="#000000" stroke-width="0.25" d="M119.968,241.369h3.455"/>
<path fill="none" stroke="#000000" stroke-width="0.25" stroke-linecap="round" stroke-linejoin="round" d="M128.31,150.753"/>
<path fill="none" stroke="#000000" stroke-width="0.25" stroke-linecap="round" stroke-linejoin="round" d="M128.573,128.445"/>
<g>
	<path d="M129.505,163.961h-2.261v-0.541h2.922v0.388c-1.074,1.47-1.294,2.574-1.373,4.47h-0.604
		C128.268,166.451,128.609,165.293,129.505,163.961z"/>
	<path d="M130.777,165.834c0-1.629,0.548-2.505,1.458-2.505c0.903,0,1.451,0.875,1.451,2.505s-0.547,2.536-1.451,2.536
		C131.325,168.37,130.777,167.463,130.777,165.834z M133.117,165.834c0-1.424-0.355-2.002-0.883-2.002
		c-0.532,0-0.889,0.579-0.889,2.002s0.355,2.033,0.889,2.033C132.761,167.867,133.117,167.258,133.117,165.834z"/>
</g>
<g>
	<path d="M128.076,153.429v-0.03c-0.334-0.251-0.634-0.609-0.634-1.12c0-0.746,0.555-1.249,1.287-1.249
		c0.79,0,1.28,0.541,1.28,1.294c0,0.51-0.349,0.944-0.626,1.172v0.031c0.405,0.251,0.79,0.594,0.79,1.249
		c0,0.724-0.583,1.294-1.465,1.294c-0.854,0-1.486-0.563-1.486-1.333C127.222,154.106,127.649,153.672,128.076,153.429z
		 M128.723,155.606c0.526,0,0.889-0.35,0.889-0.853c0-0.624-0.575-0.853-1.229-1.134c-0.363,0.259-0.633,0.617-0.633,1.058
		C127.749,155.218,128.168,155.606,128.723,155.606z M129.505,152.355c0-0.479-0.292-0.86-0.79-0.86
		c-0.419,0-0.732,0.313-0.732,0.784c0,0.579,0.498,0.823,1.045,1.051C129.334,153.041,129.505,152.713,129.505,152.355z"/>
	<path d="M130.777,153.535c0-1.629,0.548-2.505,1.458-2.505c0.903,0,1.451,0.875,1.451,2.505s-0.547,2.536-1.451,2.536
		C131.325,156.071,130.777,155.165,130.777,153.535z M133.117,153.535c0-1.424-0.355-2.002-0.883-2.002
		c-0.532,0-0.889,0.579-0.889,2.002c0,1.423,0.355,2.033,0.889,2.033C132.761,155.568,133.117,154.959,133.117,153.535z"/>
</g>
<g>
	<path d="M127.393,193.319c0.271,0.29,0.611,0.556,1.146,0.556c0.555,0,0.996-0.434,0.996-1.112c0-0.67-0.385-1.066-0.968-1.066
		c-0.313,0-0.505,0.105-0.774,0.297l-0.313-0.213l0.149-2.337h2.269v0.541h-1.756l-0.121,1.439c0.213-0.122,0.419-0.198,0.697-0.198
		c0.775,0,1.408,0.472,1.408,1.523s-0.74,1.645-1.529,1.645c-0.726,0-1.173-0.327-1.486-0.663L127.393,193.319z"/>
	<path d="M130.777,191.857c0-1.629,0.548-2.505,1.458-2.505c0.903,0,1.451,0.875,1.451,2.505s-0.547,2.536-1.451,2.536
		C131.325,194.393,130.777,193.487,130.777,191.857z M133.117,191.857c0-1.424-0.355-2.002-0.883-2.002
		c-0.532,0-0.889,0.579-0.889,2.002c0,1.423,0.355,2.033,0.889,2.033C132.761,193.891,133.117,193.281,133.117,191.857z"/>
</g>
<g>
	<path d="M124.904,128.725h1.039v-3.579h-0.824v-0.404c0.413-0.076,0.711-0.198,0.96-0.358h0.447v4.34h0.938v0.518h-2.561V128.725z"
		/>
	<path d="M128.189,126.798c0-1.629,0.547-2.505,1.458-2.505c0.903,0,1.451,0.875,1.451,2.505s-0.547,2.536-1.451,2.536
		C128.737,129.333,128.189,128.427,128.189,126.798z M130.529,126.798c0-1.424-0.354-2.002-0.882-2.002
		c-0.533,0-0.889,0.579-0.889,2.002c0,1.423,0.354,2.033,0.889,2.033C130.173,128.831,130.529,128.222,130.529,126.798z"/>
	<path d="M131.723,126.798c0-1.629,0.547-2.505,1.458-2.505c0.903,0,1.451,0.875,1.451,2.505s-0.548,2.536-1.451,2.536
		C132.271,129.333,131.723,128.427,131.723,126.798z M134.063,126.798c0-1.424-0.354-2.002-0.882-2.002
		c-0.533,0-0.889,0.579-0.889,2.002c0,1.423,0.354,2.033,0.889,2.033C133.707,128.831,134.063,128.222,134.063,126.798z"/>
</g>
<g>
	<path d="M127.843,141.479c0.185,0.236,0.462,0.389,0.747,0.389c0.64,0,1.18-0.533,1.202-2.086c-0.285,0.388-0.69,0.625-1.067,0.625
		c-0.782,0-1.287-0.502-1.287-1.5c0-0.929,0.611-1.561,1.336-1.561c0.896,0,1.564,0.777,1.564,2.337
		c0,1.949-0.825,2.703-1.729,2.703c-0.482,0-0.846-0.221-1.095-0.51L127.843,141.479z M129.777,139.286
		c-0.078-0.944-0.427-1.446-1.003-1.446c-0.44,0-0.789,0.426-0.789,1.066c0,0.632,0.277,1.028,0.84,1.028
		C129.116,139.934,129.471,139.751,129.777,139.286z"/>
	<path d="M131,139.85c0-1.629,0.547-2.505,1.458-2.505c0.902,0,1.451,0.875,1.451,2.505c0,1.63-0.548,2.536-1.451,2.536
		C131.547,142.385,131,141.479,131,139.85z M133.339,139.85c0-1.424-0.355-2.002-0.882-2.002c-0.533,0-0.89,0.579-0.89,2.002
		c0,1.423,0.355,2.033,0.89,2.033C132.984,141.883,133.339,141.273,133.339,139.85z"/>
</g>
<g>
	<path d="M129.99,176.845c-0.186-0.236-0.463-0.381-0.747-0.381c-0.634,0-1.166,0.525-1.194,2.063
		c0.284-0.373,0.688-0.609,1.06-0.609c0.782,0,1.294,0.503,1.294,1.5c0,0.929-0.61,1.561-1.344,1.561
		c-0.889,0-1.563-0.776-1.563-2.337c0-1.949,0.824-2.703,1.728-2.703c0.491,0,0.839,0.221,1.095,0.518L129.99,176.845z
		 M129.848,179.418c0-0.632-0.277-1.028-0.839-1.028c-0.285,0-0.64,0.183-0.946,0.64c0.071,0.944,0.419,1.455,0.996,1.455
		C129.507,180.484,129.848,180.058,129.848,179.418z"/>
	<path d="M131,178.443c0-1.629,0.547-2.505,1.458-2.505c0.902,0,1.451,0.875,1.451,2.505c0,1.63-0.548,2.536-1.451,2.536
		C131.547,180.979,131,180.073,131,178.443z M133.339,178.443c0-1.424-0.355-2.002-0.882-2.002c-0.533,0-0.89,0.579-0.89,2.002
		c0,1.423,0.355,2.033,0.89,2.033C132.984,180.477,133.339,179.867,133.339,178.443z"/>
</g>
<g>
	<path d="M130.045,205.841h-0.619v1.34h-0.555v-1.34h-2.041v-0.412l1.94-3.106h0.654v3.015h0.619L130.045,205.841L130.045,205.841z
		 M128.872,205.338v-1.409c0-0.259,0.021-0.677,0.036-0.937h-0.028c-0.114,0.236-0.242,0.449-0.37,0.686l-1.059,1.66H128.872z"/>
	<path d="M130.557,204.736c0-1.629,0.547-2.505,1.458-2.505c0.903,0,1.451,0.875,1.451,2.505c0,1.63-0.547,2.536-1.451,2.536
		C131.104,207.272,130.557,206.366,130.557,204.736z M132.896,204.736c0-1.424-0.354-2.002-0.882-2.002
		c-0.533,0-0.889,0.579-0.889,2.002c0,1.423,0.354,2.033,0.889,2.033C132.541,206.77,132.896,206.16,132.896,204.736z"/>
</g>
<g>
	<path d="M126.749,217.175c0.271,0.304,0.626,0.579,1.159,0.579c0.547,0,0.938-0.351,0.938-0.891c0-0.579-0.37-0.967-1.451-0.967
		v-0.48c0.967,0,1.287-0.396,1.287-0.906c0-0.472-0.298-0.769-0.782-0.769c-0.376,0-0.696,0.206-0.967,0.495l-0.313-0.396
		c0.349-0.351,0.768-0.609,1.301-0.609c0.789,0,1.357,0.449,1.357,1.233c0,0.586-0.334,0.959-0.824,1.157v0.031
		c0.548,0.137,0.98,0.563,0.98,1.233c0,0.86-0.661,1.386-1.493,1.386c-0.726,0-1.188-0.327-1.492-0.685L126.749,217.175z"/>
	<path d="M130.112,215.735c0-1.629,0.548-2.505,1.458-2.505c0.903,0,1.451,0.875,1.451,2.505c0,1.63-0.547,2.536-1.451,2.536
		C130.66,218.271,130.112,217.365,130.112,215.735z M132.452,215.735c0-1.424-0.355-2.002-0.883-2.002
		c-0.532,0-0.889,0.579-0.889,2.002c0,1.423,0.355,2.033,0.889,2.033C132.096,217.769,132.452,217.159,132.452,215.735z"/>
</g>
<g>
	<path d="M126.55,230.949c1.365-1.454,2.133-2.33,2.133-3.114c0-0.556-0.284-0.952-0.859-0.952c-0.378,0-0.704,0.259-0.968,0.586
		l-0.334-0.358c0.377-0.442,0.782-0.739,1.373-0.739c0.839,0,1.358,0.571,1.358,1.432c0,0.914-0.775,1.82-1.85,3.022
		c0.249-0.022,0.526-0.045,0.762-0.045h1.314v0.541h-2.929L126.55,230.949L126.55,230.949z"/>
	<path d="M130.112,228.878c0-1.629,0.548-2.505,1.458-2.505c0.903,0,1.451,0.875,1.451,2.505s-0.547,2.536-1.451,2.536
		C130.66,231.414,130.112,230.507,130.112,228.878z M132.452,228.878c0-1.424-0.355-2.002-0.883-2.002
		c-0.532,0-0.889,0.579-0.889,2.002s0.355,2.033,0.889,2.033C132.096,230.911,132.452,230.302,132.452,228.878z"/>
</g>
<g>
	<path d="M126.382,244.135h1.039v-3.579h-0.825v-0.404c0.413-0.075,0.711-0.197,0.96-0.357h0.448v4.34h0.938v0.518h-2.56V244.135
		L126.382,244.135z"/>
	<path d="M129.667,242.208c0-1.629,0.547-2.505,1.458-2.505c0.902,0,1.451,0.875,1.451,2.505s-0.548,2.536-1.451,2.536
		C130.214,244.744,129.667,243.837,129.667,242.208z M132.006,242.208c0-1.424-0.355-2.002-0.882-2.002
		c-0.533,0-0.89,0.579-0.89,2.002s0.355,2.033,0.89,2.033C131.651,244.241,132.006,243.632,132.006,242.208z"/>
</g>
<g>
	<path d="M128.799,252.387c0-1.629,0.547-2.505,1.458-2.505c0.903,0,1.451,0.875,1.451,2.505s-0.548,2.536-1.451,2.536
		C129.347,254.922,128.799,254.017,128.799,252.387z M131.139,252.387c0-1.424-0.354-2.002-0.882-2.002
		c-0.533,0-0.889,0.579-0.889,2.002s0.354,2.033,0.889,2.033C130.783,254.42,131.139,253.812,131.139,252.387z"/>
</g>
<polyline fill="#C6C6C6" stroke="#000000" stroke-width="0.25" stroke-linecap="round" stroke-linejoin="round" points="
	131.498,336.289 131.346,301.317 124.136,301.449 124.046,336.204 "/>
<path fill="none" d="M130.196,313.928l-6.051,1.526v-2.02"/>
<path fill="none" stroke="#000000" stroke-width="0.25" d="M125.356,315.966l3.659,0.001"/>
<path fill="none" stroke="#000000" stroke-width="0.25" d="M125.357,313.198h3.658"/>
<path fill="none" stroke="#000000" stroke-width="0.25" d="M125.351,310.431h3.658"/>
<path fill="none" stroke="#000000" stroke-width="0.25" d="M125.351,307.661h3.659"/>
<path fill="none" stroke="#000000" stroke-width="0.25" d="M124.609,304.854h5.063"/>
<path fill="none" stroke="#000000" stroke-width="0.25" d="M125.373,302.03h3.658"/>
<path fill="none" stroke="#000000" stroke-width="0.25" d="M125.373,299.261h3.658"/>
<path fill="none" stroke="#000000" stroke-width="0.25" d="M125.367,296.493h3.657"/>
<path fill="none" stroke="#000000" stroke-width="0.25" d="M125.367,293.724h3.657"/>
<path fill="none" stroke="#000000" stroke-width="0.25" d="M124.625,290.918l5.063,0.002"/>
<path fill="none" stroke="#000000" stroke-width="0.25" d="M125.37,288.101h3.656"/>
<path fill="none" stroke="#000000" stroke-width="0.25" d="M125.363,285.333h3.658"/>
<path fill="none" stroke="#000000" stroke-width="0.25" d="M125.364,282.563h3.657"/>
<path fill="none" stroke="#000000" stroke-width="0.25" d="M124.622,279.757h5.062"/>
<path fill="none" stroke="#000000" stroke-width="0.25" d="M125.841,329.806h2.765"/>
<path fill="none" stroke="#000000" stroke-width="0.25" d="M125.814,329.812h2.766"/>
<path fill="none" stroke="#000000" stroke-width="0.25" d="M125.363,329.776h3.658"/>
<path fill="none" stroke="#000000" stroke-width="0.25" d="M125.363,327.008h3.658"/>
<path fill="none" stroke="#000000" stroke-width="0.25" d="M125.358,324.238h3.658"/>
<path fill="none" stroke="#000000" stroke-width="0.25" d="M125.358,321.472h3.658"/>
<path fill="none" stroke="#000000" stroke-width="0.25" d="M124.616,318.665h5.063"/>
<g>
	<path d="M116.462,280.892h-0.907v1.42h-0.813v-1.42h-2.991v-0.437l2.845-3.293h0.958v3.196h0.907L116.462,280.892L116.462,280.892z
		 M114.743,280.358v-1.493c0-0.274,0.03-0.718,0.052-0.993h-0.042c-0.167,0.25-0.354,0.477-0.542,0.727l-1.553,1.76H114.743
		L114.743,280.358z"/>
	<path d="M117.21,279.72c0-1.727,0.803-2.654,2.137-2.654c1.323,0,2.126,0.928,2.126,2.654c0,1.729-0.803,2.688-2.126,2.688
		C118.013,282.408,117.21,281.448,117.21,279.72z M120.639,279.72c0-1.509-0.521-2.123-1.292-2.123
		c-0.782,0-1.303,0.613-1.303,2.123s0.521,2.155,1.303,2.155C120.118,281.875,120.639,281.229,120.639,279.72z"/>
</g>
<g>
	<path d="M111.63,292.912c0.396,0.323,0.917,0.612,1.699,0.612c0.803,0,1.376-0.371,1.376-0.943c0-0.613-0.542-1.025-2.126-1.025
		v-0.509c1.417,0,1.886-0.419,1.886-0.96c0-0.5-0.438-0.814-1.146-0.814c-0.552,0-1.021,0.218-1.417,0.524l-0.458-0.42
		c0.512-0.371,1.125-0.646,1.907-0.646c1.157,0,1.991,0.476,1.991,1.308c0,0.622-0.49,1.017-1.209,1.228v0.031
		c0.802,0.145,1.438,0.598,1.438,1.309c0,0.912-0.969,1.469-2.188,1.469c-1.063,0-1.74-0.348-2.188-0.727L111.63,292.912z"/>
	<path d="M116.558,291.386c0-1.727,0.803-2.654,2.137-2.654c1.323,0,2.126,0.928,2.126,2.654c0,1.729-0.803,2.688-2.126,2.688
		C117.36,294.074,116.558,293.114,116.558,291.386z M119.986,291.386c0-1.509-0.521-2.123-1.292-2.123
		c-0.781,0-1.303,0.613-1.303,2.123s0.521,2.155,1.303,2.155C119.465,293.542,119.986,292.896,119.986,291.386z"/>
</g>
<g>
	<path d="M111.339,307.519c2.001-1.541,3.126-2.47,3.126-3.301c0-0.589-0.417-1.009-1.261-1.009c-0.553,0-1.032,0.274-1.417,0.622
		l-0.49-0.379c0.553-0.469,1.146-0.783,2.012-0.783c1.229,0,1.99,0.605,1.99,1.518c0,0.969-1.136,1.93-2.709,3.205
		c0.365-0.024,0.771-0.049,1.115-0.049h1.928v0.573h-4.293L111.339,307.519L111.339,307.519z"/>
	<path d="M116.558,305.323c0-1.727,0.803-2.655,2.137-2.655c1.323,0,2.126,0.929,2.126,2.655c0,1.728-0.803,2.688-2.126,2.688
		C117.36,308.011,116.558,307.05,116.558,305.323z M119.986,305.323c0-1.51-0.521-2.123-1.292-2.123
		c-0.781,0-1.303,0.613-1.303,2.123s0.521,2.154,1.303,2.154C119.465,307.478,119.986,306.833,119.986,305.323z"/>
</g>
<g>
	<path d="M111.093,321.502h1.521v-3.794h-1.209v-0.428c0.604-0.081,1.042-0.211,1.407-0.379h0.657v4.601h1.375v0.549h-3.752
		L111.093,321.502L111.093,321.502z"/>
	<path d="M115.905,319.459c0-1.728,0.804-2.655,2.138-2.655c1.323,0,2.126,0.928,2.126,2.655s-0.803,2.688-2.126,2.688
		C116.708,322.147,115.905,321.187,115.905,319.459z M119.334,319.459c0-1.509-0.521-2.123-1.292-2.123
		c-0.782,0-1.304,0.613-1.304,2.123s0.521,2.155,1.304,2.155C118.813,321.615,119.334,320.969,119.334,319.459z"/>
</g>
<g>
	<path d="M114.636,330.257c0-1.727,0.803-2.654,2.137-2.654c1.323,0,2.126,0.928,2.126,2.654c0,1.729-0.803,2.688-2.126,2.688
		C115.439,332.944,114.636,331.985,114.636,330.257z M118.065,330.257c0-1.509-0.521-2.123-1.292-2.123
		c-0.781,0-1.303,0.613-1.303,2.123s0.521,2.155,1.303,2.155C117.544,332.413,118.065,331.767,118.065,330.257z"/>
</g>
<g>
	<path d="M139.381,280.985h-0.907v1.422h-0.813v-1.422h-2.991v-0.436l2.845-3.293h0.958v3.196h0.907L139.381,280.985
		L139.381,280.985z M137.662,280.454v-1.493c0-0.274,0.03-0.718,0.052-0.993h-0.042c-0.167,0.25-0.354,0.477-0.542,0.727
		l-1.553,1.76H137.662z"/>
	<path d="M140.129,279.815c0-1.727,0.803-2.654,2.137-2.654c1.323,0,2.126,0.928,2.126,2.654c0,1.729-0.803,2.688-2.126,2.688
		C140.932,282.504,140.129,281.543,140.129,279.815z M143.558,279.815c0-1.508-0.521-2.123-1.292-2.123
		c-0.782,0-1.303,0.613-1.303,2.123c0,1.511,0.521,2.156,1.303,2.156C143.037,281.972,143.558,281.326,143.558,279.815z"/>
</g>
<g>
	<path d="M134.549,293.005c0.396,0.323,0.917,0.613,1.699,0.613c0.803,0,1.376-0.371,1.376-0.944c0-0.612-0.542-1.024-2.126-1.024
		v-0.51c1.417,0,1.886-0.418,1.886-0.959c0-0.5-0.438-0.815-1.146-0.815c-0.552,0-1.021,0.218-1.417,0.524l-0.458-0.42
		c0.512-0.371,1.125-0.646,1.907-0.646c1.157,0,1.991,0.476,1.991,1.308c0,0.622-0.49,1.018-1.209,1.227v0.033
		c0.802,0.145,1.438,0.597,1.438,1.308c0,0.911-0.97,1.469-2.188,1.469c-1.063,0-1.74-0.347-2.188-0.726L134.549,293.005z"/>
	<path d="M139.477,291.479c0-1.728,0.803-2.655,2.137-2.655c1.323,0,2.127,0.928,2.127,2.655s-0.804,2.688-2.127,2.688
		C140.279,294.167,139.477,293.207,139.477,291.479z M142.905,291.479c0-1.51-0.521-2.123-1.292-2.123
		c-0.781,0-1.303,0.612-1.303,2.123c0,1.51,0.521,2.154,1.303,2.154C142.384,293.634,142.905,292.989,142.905,291.479z"/>
</g>
<g>
	<path d="M134.258,307.613c2.001-1.542,3.126-2.47,3.126-3.302c0-0.588-0.417-1.009-1.261-1.009c-0.553,0-1.032,0.274-1.417,0.622
		l-0.49-0.379c0.553-0.468,1.146-0.783,2.012-0.783c1.229,0,1.99,0.605,1.99,1.519c0,0.968-1.136,1.929-2.709,3.204
		c0.365-0.024,0.771-0.049,1.115-0.049h1.928v0.573h-4.293L134.258,307.613L134.258,307.613z"/>
	<path d="M139.477,305.417c0-1.727,0.803-2.655,2.137-2.655c1.323,0,2.127,0.929,2.127,2.655c0,1.729-0.804,2.688-2.127,2.688
		C140.279,308.104,139.477,307.146,139.477,305.417z M142.905,305.417c0-1.509-0.521-2.123-1.292-2.123
		c-0.781,0-1.303,0.613-1.303,2.123s0.521,2.155,1.303,2.155C142.384,307.573,142.905,306.927,142.905,305.417z"/>
</g>
<g>
	<path d="M134.015,321.599h1.521v-3.795h-1.209v-0.428c0.604-0.081,1.042-0.21,1.406-0.379h0.657v4.602h1.375v0.549h-3.752
		L134.015,321.599L134.015,321.599z"/>
	<path d="M138.827,319.556c0-1.728,0.803-2.656,2.137-2.656c1.323,0,2.126,0.929,2.126,2.656s-0.803,2.688-2.126,2.688
		C139.63,322.243,138.827,321.283,138.827,319.556z M142.256,319.556c0-1.51-0.521-2.123-1.292-2.123
		c-0.782,0-1.303,0.612-1.303,2.123c0,1.51,0.521,2.154,1.303,2.154C141.735,321.71,142.256,321.065,142.256,319.556z"/>
</g>
<g>
	<path d="M137.557,330.353c0-1.728,0.803-2.655,2.137-2.655c1.323,0,2.126,0.928,2.126,2.655s-0.803,2.688-2.126,2.688
		C138.36,333.04,137.557,332.08,137.557,330.353z M140.986,330.353c0-1.51-0.521-2.123-1.292-2.123
		c-0.781,0-1.303,0.612-1.303,2.123c0,1.51,0.521,2.154,1.303,2.154C140.465,332.507,140.986,331.862,140.986,330.353z"/>
</g>
<g>
	<rect x="124.932" y="270.17" fill="none" width="10.527" height="10.021"/>
	<path d="M129.409,270.612c1.027,0,1.835,0.384,2.329,0.818l-0.611,0.535c-0.442-0.374-0.989-0.615-1.705-0.615
		c-1.627,0-2.694,1.029-2.694,2.676c0,1.668,1.028,2.718,2.643,2.718c0.819,0,1.418-0.263,1.965-0.737l0.611,0.516
		c-0.677,0.605-1.51,0.959-2.604,0.959c-2.147,0-3.735-1.272-3.735-3.436C125.608,271.915,127.222,270.612,129.409,270.612z"/>
</g>
<ellipse fill="none" stroke="#000000" stroke-width="0.25" cx="123.811" cy="271.141" rx="1.155" ry="0.794"/>
<path fill="none" stroke="#000000" stroke-width="0.25" d="M167.652,138.38c0,0-39.593,30.138-85.479,0.718"/>
<g>
	<path fill="#FFFFFF" d="M-48.312-69.854v609.768h356.001V-69.854H-48.312z M241.068,452.206c0.013,9.672-1.352,12.038-5.651,12.021
		c-72.658-0.263-145.316-0.253-217.975-0.014c-4.087,0.011-5.445-2.29-5.438-11.509c0.123-142.84,0.122-285.676,0-428.513
		c-0.008-9.191,1.316-11.578,5.425-11.546c22.969,0.192,48.423,0.177,109.203,0.177c36.257,0,72.513,0.143,108.771-0.188
		c4.279-0.042,5.675,2.278,5.668,11.995C240.93,167.16,240.931,309.687,241.068,452.206z"/>
	<path fill="none" stroke="#626262" stroke-miterlimit="10" d="M16.526,295.533c-0.309-0.667-0.616-1.335-0.925-2.005
		C15.911,294.198,16.218,294.866,16.526,295.533z"/>
	<g>
		<g>
			<path fill="none" stroke="#626262" stroke-miterlimit="10" d="M126.354,12.828c36.227,0,72.45,0.139,108.673-0.191
				c4.279-0.038,5.673,2.278,5.66,11.995c-0.137,142.529-0.137,285.049,0,427.575c0.013,9.672-1.35,12.035-5.646,12.02
				c-72.592-0.263-145.188-0.248-217.778-0.011c-4.086,0.011-5.443-2.297-5.434-11.509c0.122-142.84,0.121-285.676,0-428.513
				c-0.011-9.191,1.314-11.578,5.421-11.546C53.617,12.958,89.985,12.828,126.354,12.828z"/>
		</g>
		<path fill="none" stroke="#626262" stroke-miterlimit="10" d="M189.303,458.416c0.342,0.249,0.682,0.584,1.034,0.671"/>
		<path fill="none" stroke="#626262" stroke-miterlimit="10" d="M190.337,459.093c-0.354-0.093-0.692-0.428-1.034-0.677"/>
		<path fill="none" stroke="#626262" stroke-miterlimit="10" d="M14.528,293.04c-0.31-0.667-0.616-1.337-0.926-2.002
			C13.913,291.703,14.219,292.373,14.528,293.04z"/>
	</g>
</g>
</svg>
