<?xml version="1.0" encoding="utf-8"?>
<!-- Generator: Adobe Illustrator 15.0.2, SVG Export Plug-In . SVG Version: 6.00 Build 0)  -->
<!DOCTYPE svg PUBLIC "-//W3C//DTD SVG 1.1//EN" "http://www.w3.org/Graphics/SVG/1.1/DTD/svg11.dtd">
<svg version="1.1" id="Layer_1" xmlns="http://www.w3.org/2000/svg" xmlns:xlink="http://www.w3.org/1999/xlink" x="0px" y="0px"
	 width="324.948px" height="679.43px" viewBox="-49.095 -71.715 324.948 679.43"
	 enable-background="new -49.095 -71.715 324.948 679.43" xml:space="preserve">
<path fill="none" stroke="#010101" stroke-width="2" d="M203.743,605.844v-0.854v-18.277v-0.846h-2.035H24.534h-2.033v0.846v18.277
	v0.854h2.033h177.174H203.743"/>
<path fill="none" stroke="#010101" stroke-width="2" d="M-48.095,584.831v-0.619v-13.105v-0.611l3.031,0.656l7.999,1.742
	l11.31,2.465l12.961,2.818l12.962,2.816l11.306,2.473l7.999,1.736l3.035,0.668v0.848v18.271v0.855l-3.035-0.904l-7.999-2.383
	l-11.306-3.354l-12.962-3.859l-12.961-3.859l-11.31-3.355l-7.999-2.387L-48.095,584.831L-48.095,584.831z"/>
<path fill="none" stroke="#010101" stroke-width="2" d="M274.853,585.088v-0.604V571.6v-0.604l-3.042,0.646l-7.991,1.715
	l-11.307,2.418l-12.96,2.771l-12.962,2.779l-11.313,2.422l-7.996,1.715l-3.031,0.646v0.875v18.508v0.875l3.031-0.918l7.996-2.412
	l11.313-3.402l12.962-3.9l12.96-3.91l11.307-3.402l7.991-2.42L274.853,585.088L274.853,585.088z"/>
<path fill="none" stroke="#010101" stroke-width="2" d="M178.326,522.315l1.088,4.305l3.063,4.34l4.764,4.316l6.171,4.266
	l7.302,4.166l8.155,4.027l8.724,3.854l9,3.621l8.995,3.35l8.72,3.049l8.154,2.688l7.301,2.297l6.183,1.857l4.755,1.387l3.068,0.861
	l1.082,0.299"/>
<path fill="none" stroke="#010101" stroke-width="2" d="M48.939,522.315l-1.083,4.305l-3.063,4.34l-4.758,4.316l-6.173,4.266
	l-7.301,4.166l-8.164,4.027l-8.72,3.854l-8.999,3.621l-8.998,3.35l-8.723,3.049l-8.156,2.688l-7.309,2.297l-6.172,1.857l-4.76,1.387
	l-3.063,0.861l-1.088,0.299"/>
<path fill="none" stroke="#010101" stroke-width="2" d="M178.573,522.479V-70.587"/>
<path fill="none" stroke="#010101" stroke-width="2" stroke-linecap="round" d="M48.989,522.868V226.331V152.2V78.064
	c0,0-0.343-103.009,0-127.385C48.5-65.376,32.316-69.373,32.316-69.373"/>
<path fill="none" stroke="#010101" stroke-width="2" stroke-linecap="round" stroke-linejoin="round" d="M178.231-70.715H31.898"/>
<path fill="none" stroke="#010101" stroke-width="2" d="M178.815,523.274c0.628,13.225-130.106,13.432-129.694-0.586"/>
<path fill="none" stroke="#010101" stroke-width="2" stroke-linecap="round" stroke-linejoin="round" d="M172.321,423.573"/>
<path fill="none" stroke="#010101" stroke-width="2" stroke-linecap="round" stroke-linejoin="round" d="M72.083,347.57"/>
<path fill="none" stroke="#010101" stroke-width="2" stroke-linecap="round" stroke-linejoin="round" d="M118.724,110.361"/>
<path fill="#FFFFFF" stroke="#010101" stroke-width="2" stroke-linecap="round" stroke-linejoin="round" d="M85.721,320.487
	l0.26,132.77"/>
<path fill="none" stroke="#010101" stroke-width="2" stroke-linecap="round" stroke-linejoin="round" d="M136.72,418.079"/>
<path fill="none" stroke="#010101" stroke-width="2" stroke-linecap="round" stroke-linejoin="round" d="M95.501,376.461"/>
<path fill="none" stroke="#010101" stroke-width="2" stroke-linecap="round" stroke-linejoin="round" d="M137.303,377.113"/>
<path fill="none" stroke="#010101" stroke-width="2" stroke-linecap="round" stroke-linejoin="round" d="M96.083,335.485"/>
<path fill="#CECECE" stroke="#010101" stroke-width="0.25" stroke-linecap="round" stroke-linejoin="round" d="M109.748,427.965
	l-0.061,8.188l-3.967,1.764l-3.183,1.941l-2.898,2.564l-2.147,2.793l-1.615,3.484l-0.829,3.531l0.207,3.854l0.913,3.086l1.116,2.236
	l1.568,2.055l1.987,1.762l2.936,1.865l3.431,1.436l4.009,0.623l4.093-0.109l3.723-0.813l3.602-1.428l3.308-2.127l2.356-2.24
	l2.146-3.229l1.655-4.033l0.616-3.051l-0.324-3.457l-1.323-3.744l-2.188-3.186l-1.698-1.582l-1.693-1.363l-3.35-1.717l-0.871-0.336
	l-0.293-11.641C117.247,426.198,113.535,427.288,109.748,427.965z"/>
<path stroke="#010101" stroke-width="0.25" stroke-linecap="round" stroke-linejoin="round" d="M85.935,426.26
	c-0.007,0.176-0.15,26.295-0.156,26.998c-0.009,0.986-0.013,2.131-0.013,2.375c0,12.318,9.966,20.629,23.271,22.605
	c2.02,0.297,4.511,15.059,6.666,15.059c1.896,0,3.366-14.75,5.199-15.043c13.025-2.117,23.912-11.379,25.271-22.811
	c0.097-0.801,0.589-28.49,0.589-29.303"/>
<path fill="none" stroke="#010101" stroke-width="2" stroke-linecap="round" stroke-linejoin="round" d="M85.896,326.966
	c-0.02-0.632-0.034-5.26-0.034-5.903c0-19.777,16.183-35.033,32.493-35.033c16.313,0,29.541,17.468,29.541,39.017"/>
<path fill="#FFFFFF" stroke="#010101" stroke-width="2" stroke-linecap="round" stroke-linejoin="round" d="M129.177,57.304
	c0-3.986-2.646-7.217-5.909-7.217h-14.689c-3.266,0-5.909,3.233-5.909,7.217v235.839c0,3.986,2.645,7.221,5.909,7.221h14.689
	c3.265,0,5.909-3.23,5.909-7.221V57.304z"/>
<path fill="none" stroke="#010101" stroke-width="2" d="M105.933,257.535h3.778"/>
<path fill="none" stroke="#010101" stroke-width="2" d="M105.933,253.013h3.778"/>
<path fill="none" stroke="#010101" stroke-width="2" d="M105.932,248.495h3.773"/>
<path fill="none" stroke="#010101" stroke-width="2" d="M105.932,243.974h3.773"/>
<path fill="none" stroke="#010101" stroke-width="2" d="M105.162,239.394h5.227"/>
<path fill="none" stroke="#010101" stroke-width="2" d="M105.948,234.785h3.78"/>
<path fill="none" stroke="#010101" stroke-width="2" d="M105.948,230.26h3.78"/>
<path fill="none" stroke="#010101" stroke-width="2" d="M105.946,225.742h3.776"/>
<path fill="none" stroke="#010101" stroke-width="2" d="M105.946,221.218h3.776"/>
<path fill="none" stroke="#010101" stroke-width="2" d="M105.181,216.64h5.224"/>
<path fill="none" stroke="#010101" stroke-width="2" d="M105.946,212.04h3.778"/>
<path fill="none" stroke="#010101" stroke-width="2" d="M105.941,207.518h3.774"/>
<path fill="none" stroke="#010101" stroke-width="2" d="M105.941,202.996h3.774"/>
<path fill="none" stroke="#010101" stroke-width="2" d="M105.173,198.416h5.229"/>
<path fill="none" stroke="#010101" stroke-width="2" d="M105.173,175.843h5.229"/>
<path fill="none" stroke="#010101" stroke-width="2" d="M105.958,193.896h3.777"/>
<path fill="none" stroke="#010101" stroke-width="2" d="M105.958,189.377h3.777"/>
<path fill="none" stroke="#010101" stroke-width="2" d="M105.952,184.854h3.778"/>
<path fill="none" stroke="#010101" stroke-width="2" d="M105.952,180.338h3.775"/>
<path fill="none" stroke="#010101" stroke-width="2" d="M105.969,171.331h3.778"/>
<path fill="none" stroke="#010101" stroke-width="2" d="M105.969,166.711h3.778"/>
<path fill="none" stroke="#010101" stroke-width="2" d="M105.962,162.192h3.776"/>
<path fill="none" stroke="#010101" stroke-width="2" d="M105.962,157.67h3.78"/>
<path fill="none" stroke="#010101" stroke-width="2" d="M105.197,153.088h5.227"/>
<path fill="none" stroke="#010101" stroke-width="2" d="M106.452,148.536h2.852"/>
<path fill="none" stroke="#010101" stroke-width="2" d="M106.423,148.552h2.854"/>
<path fill="none" stroke="#010101" stroke-width="2" d="M105.955,148.496l3.78-0.004"/>
<path fill="none" stroke="#010101" stroke-width="2" d="M105.955,143.97h3.78"/>
<path fill="none" stroke="#010101" stroke-width="2" d="M105.952,139.451h3.775"/>
<path fill="none" stroke="#010101" stroke-width="2" d="M105.952,134.93h3.775"/>
<path fill="none" stroke="#010101" stroke-width="2" d="M105.186,130.352h5.226"/>
<path fill="none" stroke="#010101" stroke-width="2" d="M105.959,125.893h3.778"/>
<path fill="none" stroke="#010101" stroke-width="2" d="M105.959,121.369h3.778"/>
<path fill="none" stroke="#010101" stroke-width="2" d="M105.955,116.849h3.777"/>
<path fill="none" stroke="#010101" stroke-width="2" d="M105.955,112.327h3.777"/>
<path fill="none" stroke="#010101" stroke-width="2" d="M105.188,107.748h5.225"/>
<path fill="none" stroke="#010101" stroke-width="2" d="M106.445,103.333h2.854"/>
<path fill="none" stroke="#010101" stroke-width="2" d="M105.981,103.301h3.773"/>
<path fill="none" stroke="#010101" stroke-width="2" d="M105.981,98.784h3.773"/>
<path fill="none" stroke="#010101" stroke-width="2" d="M105.975,94.262h3.774"/>
<path fill="none" stroke="#010101" stroke-width="2" d="M105.975,89.74h3.774"/>
<path fill="none" stroke="#010101" stroke-width="2" d="M105.206,85.157h5.227"/>
<path fill="none" stroke="#010101" stroke-width="2" d="M105.206,63.724h5.227"/>
<path fill="none" stroke="#010101" stroke-width="2" d="M105.952,80.729h3.775"/>
<path fill="none" stroke="#010101" stroke-width="2" d="M105.952,76.209h3.775"/>
<path fill="none" stroke="#010101" stroke-width="2" d="M105.946,71.691h3.78"/>
<path fill="none" stroke="#010101" stroke-width="2" d="M105.946,67.17h3.78"/>
<path fill="none" stroke="#010101" stroke-width="2" d="M103.999,66.932"/>
<path fill="none" stroke="#010101" stroke-width="2" d="M106.436,280.13h2.854"/>
<path fill="none" stroke="#010101" stroke-width="2" d="M106.406,280.136h2.853"/>
<path fill="none" stroke="#010101" stroke-width="2" d="M105.941,280.077h3.774"/>
<path fill="none" stroke="#010101" stroke-width="2" d="M105.941,275.559l3.774,0.009"/>
<path fill="none" stroke="#010101" stroke-width="2" d="M105.933,271.038h3.778"/>
<path fill="none" stroke="#010101" stroke-width="2" d="M105.933,266.524h3.778"/>
<path fill="none" stroke="#010101" stroke-width="2" d="M105.167,261.943h5.229"/>
<path fill="none" stroke="#010101" stroke-width="2" stroke-linecap="round" stroke-linejoin="round" d="M117.789,105.031"/>
<path fill="none" stroke="#010101" stroke-width="2" stroke-linecap="round" stroke-linejoin="round" d="M118.189,66.4"/>
<g>
	<path fill="#010101" d="M119.591,127.894h-3.412v-0.939h4.417v0.677c-1.618,2.546-1.959,4.457-2.074,7.743h-0.915
		C117.724,132.207,118.244,130.199,119.591,127.894z"/>
	<path fill="#010101" d="M121.517,131.141c0-2.825,0.823-4.344,2.203-4.344c1.365,0,2.193,1.519,2.193,4.344
		c0,2.821-0.828,4.392-2.193,4.392C122.342,135.532,121.517,133.962,121.517,131.141z M125.056,131.141
		c0-2.465-0.537-3.469-1.333-3.469c-0.805,0-1.346,1.004-1.346,3.469c0,2.467,0.543,3.522,1.346,3.522
		C124.519,134.663,125.056,133.606,125.056,131.141z"/>
</g>
<g>
	<path fill="#010101" d="M117.433,109.657v-0.053c-0.51-0.434-0.957-1.055-0.957-1.937c0-1.292,0.839-2.166,1.946-2.166
		c1.196,0,1.936,0.939,1.936,2.243c0,0.886-0.523,1.637-0.944,2.031v0.053c0.616,0.437,1.192,1.028,1.192,2.166
		c0,1.255-0.879,2.243-2.213,2.243c-1.291,0-2.246-0.975-2.246-2.307C116.143,110.832,116.787,110.081,117.433,109.657z
		 M118.412,113.432c0.795,0,1.341-0.607,1.341-1.479c0-1.08-0.869-1.475-1.854-1.965c-0.553,0.449-0.96,1.07-0.96,1.834
		C116.937,112.76,117.573,113.432,118.412,113.432z M119.591,107.799c0-0.831-0.437-1.489-1.188-1.489
		c-0.638,0-1.109,0.536-1.109,1.357c0,1.001,0.753,1.421,1.585,1.821C119.336,108.986,119.591,108.42,119.591,107.799z"/>
	<path fill="#010101" d="M121.517,109.842c0-2.821,0.823-4.34,2.203-4.34c1.365,0,2.193,1.518,2.193,4.34
		c0,2.823-0.828,4.397-2.193,4.397C122.342,114.236,121.517,112.665,121.517,109.842z M125.056,109.842
		c0-2.467-0.537-3.466-1.333-3.466c-0.805,0-1.346,1-1.346,3.466c0,2.467,0.543,3.523,1.346,3.523
		C124.519,113.365,125.056,112.309,125.056,109.842z"/>
</g>
<g>
	<path fill="#010101" d="M116.403,178.737c0.406,0.503,0.925,0.962,1.725,0.962c0.839,0,1.508-0.75,1.508-1.924
		c0-1.159-0.578-1.847-1.459-1.847c-0.478,0-0.767,0.182-1.178,0.512l-0.472-0.371l0.228-4.049h3.432v0.938h-2.656l-0.187,2.492
		c0.319-0.208,0.636-0.34,1.061-0.34c1.172,0,2.121,0.817,2.121,2.637c0,1.82-1.112,2.852-2.304,2.852
		c-1.1,0-1.779-0.567-2.251-1.151L116.403,178.737z"/>
	<path fill="#010101" d="M121.517,176.203c0-2.822,0.823-4.337,2.203-4.337c1.365,0,2.193,1.515,2.193,4.337
		c0,2.825-0.828,4.397-2.193,4.397C122.342,180.6,121.517,179.028,121.517,176.203z M125.056,176.203
		c0-2.463-0.537-3.466-1.333-3.466c-0.805,0-1.346,1.002-1.346,3.466c0,2.47,0.543,3.525,1.346,3.525
		C124.519,179.727,125.056,178.672,125.056,176.203z"/>
</g>
<g>
	<path fill="#010101" d="M112.636,66.884h1.569v-6.205h-1.254v-0.697c0.629-0.132,1.078-0.342,1.457-0.619h0.675v7.519h1.422v0.896
		h-3.866L112.636,66.884L112.636,66.884z"/>
	<path fill="#010101" d="M117.605,63.543c0-2.822,0.826-4.338,2.203-4.338c1.366,0,2.192,1.516,2.192,4.338
		c0,2.823-0.826,4.394-2.192,4.394C118.431,67.937,117.605,66.367,117.605,63.543z M121.139,63.543c0-2.467-0.539-3.467-1.331-3.467
		c-0.808,0-1.343,1.001-1.343,3.467c0,2.467,0.539,3.522,1.343,3.522C120.6,67.066,121.139,66.011,121.139,63.543z"/>
	<path fill="#010101" d="M122.948,63.543c0-2.822,0.828-4.338,2.207-4.338c1.364,0,2.191,1.516,2.191,4.338
		c0,2.823-0.827,4.394-2.191,4.394C123.772,67.937,122.948,66.367,122.948,63.543z M126.486,63.543c0-2.467-0.542-3.467-1.331-3.467
		c-0.813,0-1.345,1.001-1.345,3.467c0,2.467,0.535,3.522,1.345,3.522C125.946,67.066,126.486,66.011,126.486,63.543z"/>
</g>
<g>
	<path fill="#010101" d="M117.083,88.967c0.275,0.407,0.694,0.673,1.133,0.673c0.966,0,1.779-0.924,1.813-3.615
		c-0.432,0.674-1.042,1.081-1.613,1.081c-1.183,0-1.94-0.871-1.94-2.599c0-1.609,0.924-2.704,2.021-2.704
		c1.353,0,2.36,1.347,2.36,4.051c0,3.377-1.248,4.685-2.612,4.685c-0.73,0-1.275-0.385-1.654-0.885L117.083,88.967z M120.003,85.167
		c-0.119-1.636-0.646-2.506-1.515-2.506c-0.671,0-1.194,0.74-1.194,1.846c0,1.096,0.421,1.783,1.267,1.783
		C119.007,86.289,119.545,85.974,120.003,85.167z"/>
	<path fill="#010101" d="M121.853,86.143c0-2.822,0.832-4.34,2.206-4.34c1.366,0,2.192,1.521,2.192,4.34
		c0,2.824-0.826,4.396-2.192,4.396C122.682,90.539,121.853,88.967,121.853,86.143z M125.391,86.143c0-2.467-0.538-3.468-1.332-3.468
		c-0.808,0-1.344,1.002-1.344,3.469c0,2.469,0.537,3.522,1.344,3.522C124.858,89.667,125.391,88.613,125.391,86.143z"/>
</g>
<g>
	<path fill="#010101" d="M120.328,150.206c-0.28-0.409-0.699-0.656-1.132-0.656c-0.952,0-1.764,0.907-1.807,3.57
		c0.428-0.647,1.041-1.055,1.604-1.055c1.182,0,1.956,0.871,1.956,2.602c0,1.608-0.924,2.703-2.035,2.703
		c-1.344,0-2.359-1.344-2.359-4.047c0-3.38,1.246-4.688,2.608-4.688c0.74,0,1.271,0.386,1.656,0.899L120.328,150.206z
		 M120.11,154.666c0-1.098-0.419-1.785-1.264-1.785c-0.436,0-0.973,0.318-1.432,1.109c0.104,1.636,0.632,2.52,1.507,2.52
		C119.596,156.511,120.11,155.772,120.11,154.666z"/>
	<path fill="#010101" d="M121.853,152.973c0-2.821,0.829-4.333,2.206-4.333c1.366,0,2.192,1.513,2.192,4.333
		c0,2.821-0.826,4.396-2.192,4.396C122.682,157.368,121.853,155.794,121.853,152.973z M125.391,152.973
		c0-2.466-0.54-3.468-1.332-3.468c-0.811,0-1.344,1.007-1.344,3.468c0,2.471,0.537,3.525,1.344,3.525
		C124.858,156.497,125.391,155.444,125.391,152.973z"/>
</g>
<g>
	<path fill="#010101" d="M120.41,200.417h-0.938v2.323h-0.846v-2.323h-3.078v-0.713l2.938-5.383h0.99v5.223h0.938L120.41,200.417
		L120.41,200.417z M118.633,199.544v-2.439c0-0.448,0.034-1.174,0.057-1.62h-0.044c-0.169,0.405-0.363,0.777-0.555,1.183
		l-1.604,2.876H118.633L118.633,199.544z"/>
	<path fill="#010101" d="M121.183,198.505c0-2.823,0.822-4.344,2.203-4.344c1.367,0,2.192,1.519,2.192,4.344
		c0,2.82-0.823,4.394-2.192,4.394C122.011,202.899,121.183,201.326,121.183,198.505z M124.719,198.505
		c0-2.472-0.536-3.473-1.331-3.473c-0.806,0-1.34,1.002-1.34,3.473c0,2.467,0.535,3.519,1.34,3.519
		C124.182,202.024,124.719,200.973,124.719,198.505z"/>
</g>
<g>
	<path fill="#010101" d="M115.423,220.044c0.41,0.527,0.945,1.006,1.757,1.006c0.825,0,1.417-0.61,1.417-1.55
		c0-1-0.558-1.672-2.192-1.672v-0.837c1.459,0,1.945-0.681,1.945-1.567c0-0.819-0.448-1.33-1.183-1.33
		c-0.569,0-1.06,0.357-1.464,0.855l-0.474-0.686c0.528-0.604,1.165-1.056,1.97-1.056c1.193,0,2.056,0.779,2.056,2.141
		c0,1.014-0.506,1.66-1.25,2.007v0.05c0.826,0.238,1.482,0.977,1.482,2.137c0,1.489-1.001,2.397-2.261,2.397
		c-1.095,0-1.792-0.565-2.257-1.187L115.423,220.044z"/>
	<path fill="#010101" d="M120.51,217.552c0-2.825,0.83-4.342,2.203-4.342c1.368,0,2.196,1.52,2.196,4.342
		c0,2.824-0.828,4.388-2.196,4.388C121.34,221.939,120.51,220.375,120.51,217.552z M124.05,217.552c0-2.469-0.542-3.473-1.333-3.473
		c-0.809,0-1.343,1.005-1.343,3.473c0,2.468,0.537,3.521,1.343,3.521C123.508,221.071,124.05,220.02,124.05,217.552z"/>
</g>
<g>
	<path fill="#010101" d="M115.125,243.896c2.063-2.52,3.225-4.037,3.225-5.395c0-0.967-0.429-1.652-1.3-1.652
		c-0.568,0-1.063,0.451-1.462,1.018l-0.507-0.617c0.573-0.767,1.188-1.286,2.078-1.286c1.266,0,2.052,0.995,2.052,2.483
		c0,1.584-1.172,3.159-2.793,5.241c0.373-0.044,0.796-0.084,1.146-0.084h1.984v0.939h-4.425L115.125,243.896L115.125,243.896z"/>
	<path fill="#010101" d="M120.51,240.304c0-2.82,0.83-4.342,2.203-4.342c1.368,0,2.196,1.521,2.196,4.342
		c0,2.822-0.828,4.398-2.196,4.398C121.34,244.701,120.51,243.132,120.51,240.304z M124.05,240.304c0-2.464-0.542-3.466-1.333-3.466
		c-0.809,0-1.343,1.002-1.343,3.466c0,2.474,0.537,3.53,1.343,3.53C123.508,243.833,124.05,242.776,124.05,240.304z"/>
</g>
<g>
	<path fill="#010101" d="M114.871,266.726h1.567v-6.198h-1.243v-0.699c0.623-0.134,1.071-0.347,1.445-0.623h0.684v7.521h1.418v0.891
		h-3.867v-0.891L114.871,266.726L114.871,266.726z"/>
	<path fill="#010101" d="M119.839,263.386c0-2.82,0.825-4.338,2.206-4.338c1.36,0,2.193,1.518,2.193,4.338
		c0,2.822-0.833,4.396-2.193,4.396C120.664,267.781,119.839,266.207,119.839,263.386z M123.378,263.386
		c0-2.464-0.543-3.467-1.333-3.467c-0.812,0-1.348,1.003-1.348,3.467c0,2.468,0.543,3.523,1.348,3.523
		C122.838,266.913,123.378,265.854,123.378,263.386z"/>
</g>
<g>
	<path fill="#010101" d="M118.524,281.012c0-2.819,0.83-4.338,2.203-4.338c1.371,0,2.193,1.521,2.193,4.338
		c0,2.826-0.822,4.397-2.193,4.397C119.355,285.413,118.524,283.838,118.524,281.012z M122.063,281.012
		c0-2.457-0.538-3.463-1.334-3.463c-0.804,0-1.339,1.006-1.339,3.463c0,2.479,0.539,3.523,1.339,3.523
		C121.525,284.536,122.063,283.49,122.063,281.012z"/>
</g>
<path fill="#C6C6C6" stroke="#010101" stroke-width="0.25" stroke-linecap="round" stroke-linejoin="round" d="M122.609,426.303
	l-0.229-60.553l-10.905,0.223l-0.134,60.188"/>
<path fill="none" d="M120.641,387.584l-9.152,2.646v-3.5"/>
<path fill="none" stroke="#010101" stroke-width="2" d="M113.321,391.113h5.53"/>
<path fill="none" stroke="#010101" stroke-width="2" d="M113.321,386.323h5.53"/>
<path fill="none" stroke="#010101" stroke-width="2" d="M113.315,381.525h5.534"/>
<path fill="none" stroke="#010101" stroke-width="2" d="M113.311,376.729h5.538"/>
<path fill="none" stroke="#010101" stroke-width="2" d="M112.191,371.866h7.657"/>
<path fill="none" stroke="#010101" stroke-width="2" d="M113.346,366.98h5.532"/>
<path fill="none" stroke="#010101" stroke-width="2" d="M113.346,362.189h5.532"/>
<path fill="none" stroke="#010101" stroke-width="2" d="M113.335,357.393h5.536"/>
<path fill="none" stroke="#010101" stroke-width="2" d="M113.332,352.602h5.539"/>
<path fill="none" stroke="#010101" stroke-width="2" d="M112.215,347.747h7.659"/>
<path fill="none" stroke="#010101" stroke-width="2" d="M113.339,342.861h5.534"/>
<path fill="none" stroke="#010101" stroke-width="2" d="M113.332,338.064h5.531"/>
<path fill="none" stroke="#010101" stroke-width="2" d="M113.332,333.274h5.531"/>
<path fill="none" stroke="#010101" stroke-width="2" d="M112.209,328.41h7.651"/>
<path fill="none" stroke="#010101" stroke-width="2" d="M114.052,415.084h4.183"/>
<path fill="none" stroke="#010101" stroke-width="2" d="M114.015,415.092h4.18"/>
<path fill="none" stroke="#010101" stroke-width="2" d="M113.332,415.025h5.531"/>
<path fill="none" stroke="#010101" stroke-width="2" d="M113.332,410.234h5.531"/>
<path fill="none" stroke="#010101" stroke-width="2" d="M113.324,405.439h5.535"/>
<path fill="none" stroke="#010101" stroke-width="2" d="M113.324,400.643h5.535"/>
<path fill="none" stroke="#010101" stroke-width="2" d="M112.197,395.784h7.66"/>
<g>
	<path fill="#010101" d="M99.862,330.375h-1.373v2.467h-1.228v-2.467h-4.523v-0.752l4.303-5.709h1.448v5.543h1.373V330.375
		L99.862,330.375z M97.26,329.457v-2.585c0-0.481,0.049-1.251,0.079-1.725h-0.063c-0.254,0.431-0.538,0.822-0.82,1.262l-2.349,3.05
		L97.26,329.457L97.26,329.457z"/>
	<path fill="#010101" d="M100.997,328.346c0-2.993,1.218-4.603,3.229-4.603c2.004,0,3.213,1.609,3.213,4.603
		c0,2.998-1.209,4.661-3.213,4.661C102.212,333.01,100.997,331.348,100.997,328.346z M106.181,328.346
		c0-2.619-0.791-3.678-1.955-3.678c-1.183,0-1.973,1.062-1.973,3.678c0,2.617,0.789,3.744,1.973,3.744
		C105.39,332.09,106.181,330.962,106.181,328.346z"/>
</g>
<g>
	<path fill="#010101" d="M92.558,351.182c0.597,0.563,1.387,1.07,2.565,1.07c1.215,0,2.083-0.646,2.083-1.642
		c0-1.062-0.822-1.771-3.212-1.771v-0.889c2.142,0,2.852-0.727,2.852-1.664c0-0.863-0.663-1.414-1.732-1.414
		c-0.836,0-1.545,0.377-2.143,0.912l-0.695-0.731c0.771-0.636,1.701-1.117,2.884-1.117c1.75,0,3.01,0.826,3.01,2.271
		c0,1.078-0.74,1.764-1.826,2.129v0.047c1.215,0.262,2.175,1.035,2.175,2.271c0,1.584-1.468,2.549-3.308,2.549
		c-1.609,0-2.635-0.601-3.311-1.263L92.558,351.182z"/>
	<path fill="#010101" d="M100.01,348.543c0-2.99,1.211-4.599,3.233-4.599c2,0,3.211,1.609,3.211,4.599
		c0,3.004-1.216,4.66-3.211,4.66C101.22,353.208,100.01,351.547,100.01,348.543z M105.193,348.543c0-2.621-0.787-3.678-1.949-3.678
		c-1.185,0-1.971,1.061-1.971,3.678s0.786,3.74,1.971,3.74C104.406,352.286,105.193,351.167,105.193,348.543z"/>
</g>
<g>
	<path fill="#010101" d="M92.12,376.479c3.021-2.668,4.728-4.271,4.728-5.717c0-1.021-0.636-1.756-1.908-1.756
		c-0.835,0-1.561,0.484-2.146,1.082l-0.737-0.654c0.837-0.813,1.732-1.357,3.041-1.357c1.86,0,3.009,1.045,3.009,2.625
		c0,1.684-1.715,3.342-4.096,5.559c0.552-0.036,1.166-0.086,1.686-0.086h2.915v0.996h-6.487L92.12,376.479L92.12,376.479z"/>
	<path fill="#010101" d="M100.01,372.682c0-2.998,1.211-4.604,3.233-4.604c2,0,3.211,1.609,3.211,4.604s-1.216,4.656-3.211,4.656
		C101.22,377.338,100.01,375.676,100.01,372.682z M105.193,372.682c0-2.613-0.787-3.686-1.949-3.686
		c-1.185,0-1.971,1.069-1.971,3.686c0,2.611,0.786,3.73,1.971,3.73C104.406,376.413,105.193,375.293,105.193,372.682z"/>
</g>
<g>
	<path fill="#010101" d="M91.745,400.7h2.3v-6.58H92.22v-0.742c0.912-0.14,1.57-0.355,2.128-0.654h0.991v7.973h2.082v0.955h-5.674
		L91.745,400.7L91.745,400.7z"/>
	<path fill="#010101" d="M99.027,397.167c0-3.013,1.214-4.611,3.231-4.611c1.997,0,3.209,1.602,3.209,4.611
		c0,2.987-1.213,4.653-3.209,4.653C100.24,401.818,99.027,400.154,99.027,397.167z M104.211,397.167
		c0-2.629-0.791-3.681-1.957-3.681c-1.178,0-1.969,1.058-1.969,3.681c0,2.61,0.79,3.727,1.969,3.727
		C103.42,400.896,104.211,399.777,104.211,397.167z"/>
</g>
<g>
	<path fill="#010101" d="M97.107,415.854c0-2.988,1.212-4.594,3.229-4.594c2,0,3.213,1.604,3.213,4.594
		c0,3.002-1.214,4.662-3.213,4.662C98.319,420.516,97.107,418.854,97.107,415.854z M102.287,415.854
		c0-2.607-0.785-3.672-1.952-3.672c-1.184,0-1.975,1.068-1.975,3.672c0,2.617,0.791,3.738,1.975,3.738
		C101.501,419.592,102.287,418.465,102.287,415.854z"/>
</g>
<g>
	<path fill="#010101" d="M134.526,330.537h-1.375v2.465h-1.224v-2.465h-4.524v-0.746l4.305-5.714h1.446v5.543h1.373L134.526,330.537
		L134.526,330.537z M131.93,329.617v-2.593c0-0.477,0.043-1.241,0.074-1.717h-0.061c-0.251,0.433-0.538,0.827-0.817,1.259
		l-2.349,3.054L131.93,329.617L131.93,329.617z"/>
	<path fill="#010101" d="M135.66,328.503c0-2.988,1.216-4.596,3.231-4.596c1.996,0,3.21,1.607,3.21,4.596
		c0,3.004-1.214,4.662-3.21,4.662C136.876,333.166,135.66,331.507,135.66,328.503z M140.848,328.503c0-2.615-0.79-3.676-1.955-3.676
		c-1.184,0-1.976,1.065-1.976,3.676c0,2.62,0.792,3.735,1.976,3.735C140.058,332.242,140.848,331.124,140.848,328.503z"/>
</g>
<g>
	<path fill="#010101" d="M127.225,351.354c0.6,0.563,1.389,1.063,2.567,1.063c1.21,0,2.076-0.646,2.076-1.64
		c0-1.065-0.813-1.778-3.209-1.778v-0.875c2.141,0,2.852-0.734,2.852-1.668c0-0.865-0.662-1.408-1.731-1.408
		c-0.835,0-1.546,0.373-2.144,0.908l-0.694-0.732c0.771-0.639,1.705-1.119,2.887-1.119c1.751,0,3.011,0.828,3.011,2.271
		c0,1.076-0.739,1.758-1.828,2.121v0.061c1.216,0.254,2.176,1.027,2.176,2.266c0,1.578-1.465,2.545-3.313,2.545
		c-1.604,0-2.626-0.604-3.307-1.256L127.225,351.354z"/>
	<path fill="#010101" d="M134.677,348.711c0-3.004,1.209-4.604,3.227-4.604c2.007,0,3.216,1.605,3.216,4.604
		c0,2.994-1.217,4.652-3.216,4.652C135.886,353.366,134.677,351.702,134.677,348.711z M139.861,348.711
		c0-2.621-0.79-3.678-1.957-3.678c-1.187,0-1.972,1.059-1.972,3.678c0,2.617,0.785,3.731,1.972,3.731
		C139.071,352.445,139.861,351.327,139.861,348.711z"/>
</g>
<g>
	<path fill="#010101" d="M126.784,376.652c3.028-2.678,4.729-4.28,4.729-5.726c0-1.021-0.629-1.745-1.909-1.745
		c-0.835,0-1.562,0.478-2.143,1.069l-0.74-0.655c0.833-0.812,1.73-1.356,3.036-1.356c1.858,0,3.01,1.055,3.01,2.625
		c0,1.682-1.716,3.346-4.097,5.559c0.554-0.043,1.167-0.086,1.688-0.086h2.915v0.996h-6.49L126.784,376.652L126.784,376.652z"/>
	<path fill="#010101" d="M134.677,372.836c0-2.988,1.209-4.603,3.227-4.603c2.007,0,3.216,1.617,3.216,4.603
		c0,2.998-1.217,4.656-3.216,4.656C135.886,377.5,134.677,375.834,134.677,372.836z M139.861,372.836
		c0-2.621-0.79-3.678-1.957-3.678c-1.187,0-1.972,1.063-1.972,3.678c0,2.617,0.785,3.731,1.972,3.731
		C139.071,376.573,139.861,375.461,139.861,372.836z"/>
</g>
<g>
	<path fill="#010101" d="M126.415,400.87h2.302v-6.582h-1.833v-0.744c0.916-0.142,1.579-0.357,2.128-0.66h0.994v7.986h2.083v0.946
		h-5.673L126.415,400.87L126.415,400.87z"/>
	<path fill="#010101" d="M133.689,397.32c0-2.993,1.213-4.596,3.232-4.596c1.997,0,3.215,1.604,3.215,4.596
		c0,3.005-1.218,4.664-3.215,4.664C134.906,401.984,133.689,400.318,133.689,397.32z M138.873,397.32
		c0-2.612-0.789-3.678-1.954-3.678c-1.178,0-1.966,1.065-1.966,3.678c0,2.621,0.788,3.746,1.966,3.746
		C138.093,401.066,138.873,399.934,138.873,397.32z"/>
</g>
<g>
	<path fill="#010101" d="M131.77,416.014c0-2.99,1.216-4.604,3.229-4.604c2.003,0,3.215,1.616,3.215,4.604
		c0,3.008-1.212,4.66-3.215,4.66C132.986,420.674,131.77,419.021,131.77,416.014z M136.954,416.014c0-2.621-0.788-3.672-1.955-3.672
		c-1.183,0-1.97,1.061-1.97,3.672c0,2.625,0.787,3.734,1.97,3.734C136.166,419.756,136.954,418.639,136.954,416.014z"/>
</g>
<g>
	<rect x="112.677" y="311.808" fill="none" width="15.925" height="17.359"/>
	<path fill="#010101" d="M119.453,312.583c1.559,0,2.775,0.662,3.523,1.416l-0.928,0.933c-0.667-0.652-1.492-1.069-2.572-1.069
		c-2.461,0-4.077,1.78-4.077,4.634c0,2.883,1.553,4.701,3.997,4.701c1.24,0,2.143-0.453,2.971-1.283l0.927,0.899
		c-1.023,1.046-2.288,1.656-3.938,1.656c-3.25,0-5.65-2.203-5.65-5.943C113.704,314.841,116.143,312.583,119.453,312.583z"/>
</g>
<ellipse fill="none" stroke="#000000" stroke-width="0.25" cx="110.981" cy="313.496" rx="1.747" ry="1.377"/>
<path fill="none" stroke="#010101" stroke-width="2" d="M177.371,95.513c0,0-59.884,52.19-129.288,1.244"/>
<path fill="#FFFFFF" stroke="#010101" stroke-width="2" stroke-linecap="round" stroke-linejoin="round" d="M147.406,450.821
	l0.978-97.505v-31.317"/>
</svg>
