<?xml version="1.0" encoding="utf-8"?>
<!-- Generator: Adobe Illustrator 15.1.0, SVG Export Plug-In . SVG Version: 6.00 Build 0)  -->
<!DOCTYPE svg PUBLIC "-//W3C//DTD SVG 1.1//EN" "http://www.w3.org/Graphics/SVG/1.1/DTD/svg11.dtd">
<svg version="1.1" id="Layer_1" xmlns="http://www.w3.org/2000/svg" xmlns:xlink="http://www.w3.org/1999/xlink" x="0px" y="0px"
	 width="325.984px" height="327.113px" viewBox="0 0 325.984 327.113" enable-background="new 0 0 325.984 327.113"
	 xml:space="preserve">
<g>
	<path d="M201.071,91.272c0.002-0.471-0.165-0.934-0.557-1.164c-8.915-5.243-19.786-7.017-27.314-14.566
		c-0.081-0.082-0.163-0.144-0.247-0.194c-0.403-2.221-1.008-4.361-1.1-6.636c-0.002-0.047-0.021-0.079-0.025-0.123
		c0.111-0.608-0.127-1.354-0.748-1.632c-5.27-2.362-11.277-0.296-16.789-0.131c-0.855,0.026-1.298,1.006-1.09,1.751
		c0.624,2.228,0.337,4.428,0.417,6.67c-3.668,0.158-4.521-4.433-6.009-7.212c-0.271-0.504-0.773-0.724-1.321-0.585
		c-4.227,1.071-8.437,2.171-12.612,3.431c-1.065,0.322-0.872,1.944,0.013,2.271c0.004,0.01,0.004,0.02,0.008,0.029
		c0.121,0.244,0.208,0.455,0.304,0.674c-0.085-0.005-0.167-0.015-0.263,0.009c-2.077,0.505-3.957,0.335-5.927-0.064
		c1.309-2.668,4.756-4.127,7.332-5.134c4.811-1.882,10.042-2.696,15.155-3.211c5.151-0.519,10.372-0.533,15.525-0.021
		c2.962,0.294,6.392,0.786,9.162,2.223c-0.22,0.111-0.43,0.24-0.659,0.333c-1.316,0.626-0.804,3.216,0.683,2.594
		c1.199-0.502,2.042-0.947,3.036-1.773c0.775-0.646,0.703-1.76-0.06-2.376c-3.138-2.537-7.583-3.151-11.452-3.638
		c-5.979-0.752-12.106-0.518-18.077,0.161c-7.001,0.795-21.621,2.654-23.26,11.507c-0.11,0.598,0.146,1.427,0.82,1.581
		c2.914,0.671,5.377,0.708,8.207-0.341c0.125-0.047,0.228-0.115,0.312-0.199c0.232,1.376-0.339,2.246-1.686,3.526
		c-1.273,1.212-2.543,2.428-3.798,3.658c-3.065,3.002-5.989,6.144-8.676,9.491c-3.288,4.095-8.591,11.539-4.314,16.648
		c0.369,0.441,0.812,0.501,1.201,0.348c0.113,0.099,0.282,0.131,0.412,0.042c0.765-0.529,3.117-0.617,4.042-0.819
		c3.031-0.665,6.154-1,9.233-1.35c5.681-0.646,11.385-1.08,17.081-1.547c9.4-0.771,18.936-0.997,28.361-1.24
		c8.364-0.215,16.266-4.777,24.704-3.812c1.089,0.125,1.433-1.093,1.075-2.004c0.157-0.105,0.305-0.253,0.415-0.504
		c0.845-1.914,0.123-4.051-0.556-5.9C201.834,91.51,201.45,91.28,201.071,91.272z M189.405,98.782
		c-5.292,1.224-10.341,2.346-15.776,2.668c-9.374,0.556-18.764,0.573-28.126,1.335c-6.625,0.539-13.252,1.12-19.825,2.146
		c-1.478,0.23-5.805,0.519-7.676,2.047c-3.891-5.861,6.119-15.308,9.706-19.157c2.352-2.524,4.815-4.94,7.279-7.353
		c2.28-2.231,2.087-4.873,0.788-7.654c3.421-0.879,6.852-1.722,10.281-2.566c2.079,4.224,3.417,8.812,9.162,7.494
		c0.523-0.12,0.885-0.84,0.829-1.336c-0.265-2.35,0.016-4.633-0.276-6.93c4.757-0.322,9.299-1.377,14.026-0.251
		c0.023,2.337,0.348,4.82,1.053,7.031c0.149,0.469,0.414,0.714,0.705,0.815c0.048,0.09,0.104,0.177,0.181,0.257
		c7.303,7.693,18.514,10.981,27.947,15.251c0.143,0.064,0.275,0.087,0.398,0.087c0.005,0.017,0.001,0.031,0.007,0.049
		c0.211,0.709,0.412,1.416,0.555,2.142c0.149,0.75-0.008,1.424-0.117,2.16c-0.023,0.153-0.017,0.305,0.01,0.45
		C196.769,97.137,193.064,97.937,189.405,98.782z"/>
	<path d="M187.849,90.147c-4.868-2.73-10.353-4.311-15.607-6.181c-0.154-0.321-0.442-0.545-0.904-0.502
		c-0.139,0.013-0.275,0.032-0.414,0.045c-0.219-0.051-0.407-0.023-0.561,0.062c-4.794,0.534-9.494,1.706-14.357,2.023
		c-5.255,0.343-10.541,0.282-15.805,0.176c-0.243-0.266-0.604-0.377-1.061-0.182c-0.136,0.059-0.266,0.129-0.401,0.191
		c-0.186,0.028-0.337,0.1-0.453,0.214c-4.708,2.218-8.729,5.672-13.42,7.935c-0.544,0.263-0.746,0.881-0.686,1.436
		c-0.026,0.108-0.061,0.21-0.063,0.338c-0.008,0.746-0.015,1.493-0.024,2.24c-0.007,0.689-0.17,1.589,0.243,2.182
		c0.342,0.493,1.07,0.796,1.525,0.249c0.125,0.085,0.269,0.15,0.448,0.163c9.099,0.641,18.332-1.46,27.23-3.124
		c10.283-1.923,20.557-3.798,31.062-3.03c0.99,0.072,1.275-1.146,1.164-1.872c-0.028-0.185-0.062-0.364-0.102-0.54
		c0.46,0.189,0.924,0.372,1.384,0.563C188.329,93.067,188.911,90.743,187.849,90.147z M157.307,93.801
		c-10.358,1.904-20.526,3.741-31.02,4.711c-0.003-0.136-0.008-0.271-0.01-0.41c-0.008-0.714-0.015-1.427-0.022-2.141
		c4.713-2.254,8.896-5.437,13.563-7.791c0.049-0.025,0.092-0.058,0.138-0.089c5.369,0.411,10.734,0.521,16.117,0.288
		c4.752-0.206,10.615-0.36,15.09-2.312c3.923,1.634,7.866,3.218,11.803,4.816c-0.027,0.075-0.063,0.144-0.081,0.229
		c-0.021,0.097-0.042,0.194-0.062,0.292C174.228,90.999,165.759,92.249,157.307,93.801z"/>
	<path d="M63.903,75.354c0.378,3.179,0.148,6.551,0.941,9.664c0.322,1.268,2.112,0.92,1.963-0.362
		c-0.37-3.192-0.728-6.434-1.336-9.591C65.27,74.029,63.784,74.347,63.903,75.354z"/>
	<path d="M72.024,86.055c-0.591,2.97-0.93,6.46,0.17,9.338c0.375,0.981,1.497,0.739,1.549-0.285
		c0.144-2.878-0.366-5.613,0.136-8.502C74.109,85.285,72.31,84.617,72.024,86.055z"/>
	<path d="M77.979,95.377c-1.032,3.697-1.287,7.5-1.187,11.324c0.043,1.643,2.17,1.564,2.214-0.055
		c0.098-3.626,0.1-7.126,1.012-10.668C80.392,94.534,78.405,93.854,77.979,95.377z"/>
	<path d="M87.124,119.058c0.424-4.06,0.152-8.071,1.188-12.071c0.389-1.504-1.699-2.218-2.13-0.626
		c-1.068,3.947-1.463,8.365-1.04,12.434C85.262,119.96,86.978,120.457,87.124,119.058z"/>
	<path d="M92.756,126.44c0.125-2.118,0.582-4.036,1.482-5.962c0.608-1.303-1.159-2.678-1.886-1.216
		c-1.119,2.251-1.875,4.699-1.817,7.233C90.573,128.16,92.662,128.048,92.756,126.44z"/>
	<path d="M89.136,155.022c2.206-5.775,5.107-11.482,6.903-17.397c0.197-0.65-0.719-1.163-1.038-0.481
		c-2.477,5.31-6.984,11.158-7.53,17.105C87.384,155.199,88.66,156.268,89.136,155.022z"/>
	<path d="M94.859,156.548c-3.286,5.242-6.667,11.811-7.378,18.047c-0.112,0.982,1.101,1.934,1.647,0.764
		c1.235-2.645,1.864-5.575,2.871-8.314c1.178-3.204,2.638-6.29,4.26-9.289C96.729,156.889,95.483,155.553,94.859,156.548z"/>
	<path d="M92.473,178.167c-2.152,6.412-4.479,13.399-5.494,20.083c-0.147,0.969,1.01,1.771,1.556,0.722
		c3.114-6.005,3.679-13.553,5.668-20.004C94.536,177.894,92.872,176.976,92.473,178.167z"/>
	<path d="M91.269,199.869c-2.189,6.584-3.55,13.447-4.504,20.312c-0.202,1.453,1.752,2.21,2.062,0.608
		c1.323-6.84,2.24-13.693,4.293-20.373C93.522,199.111,91.718,198.518,91.269,199.869z"/>
	<path d="M90.762,221.565c-2.193,5.431-4.272,11.065-5.539,16.792c-0.238,1.077,1.289,2.033,1.758,0.812
		c2.075-5.407,3.476-11.048,5.547-16.463C93.001,221.467,91.338,220.138,90.762,221.565z"/>
	<path d="M91.839,259.999c1.776-4.747,1.964-10.09,2.956-15.043c0.27-1.346-1.572-1.996-1.901-0.557
		c-1.124,4.931-2.305,10.094-2.645,15.145C90.19,260.422,91.495,260.917,91.839,259.999z"/>
	<path d="M95.378,263.726c-0.822,4.429-2.777,8.326-4.11,12.569c-0.354,1.128,1.175,1.889,1.765,0.807
		c2.104-3.848,3.243-8.658,3.677-12.987C96.801,263.195,95.572,262.685,95.378,263.726z"/>
	<path d="M105.961,126.018c-1.047,0.735-1.857,1.715-2.557,2.777c-0.801,1.218-1.73,2.809-1.74,4.295
		c-0.009,1.118,1.28,1.466,1.836,0.53c0.561-0.944,0.813-2.088,1.357-3.069c0.537-0.968,1.266-1.88,2.162-2.534
		C108.043,127.271,107.138,125.189,105.961,126.018z"/>
	<path d="M113.17,126.683c-1.691,1.554-3.551,3.568-4.3,5.787c-0.173,0.51-0.185,1.052,0.2,1.479
		c0.39,0.434,1.123,0.466,1.482-0.037c0.618-0.867,1.035-1.866,1.581-2.781c0.608-1.019,1.364-1.961,2.15-2.846
		C114.918,127.567,114.024,125.896,113.17,126.683z"/>
	<path d="M125.391,125.887c-1.242,2.378-2.722,4.825-3.405,7.434c-0.324,1.236,1.233,2.049,1.901,0.877
		c1.284-2.253,2.168-4.804,3.289-7.15C127.765,125.814,126.112,124.508,125.391,125.887z"/>
	<path d="M139.131,125.102c-0.625,2.062-1.94,3.752-2.789,5.706c-0.571,1.315,1.049,2.627,1.875,1.216
		c1.158-1.976,2.181-4.155,2.709-6.39C141.23,124.346,139.535,123.771,139.131,125.102z"/>
	<path d="M157.377,121.181c-1.528,1.517-3.036,3.282-3.997,5.222c-0.544,1.099,0.759,2.587,1.726,1.488
		c1.383-1.573,2.4-3.406,3.863-4.935C159.954,121.925,158.529,120.038,157.377,121.181z"/>
	<path d="M169.491,119c-0.659,0.972-1.315,1.945-1.931,2.945c-0.716,1.164-1.611,2.287-1.388,3.703
		c0.071,0.458,0.596,0.823,1.042,0.658c1.028-0.378,1.379-1.56,1.887-2.457c0.604-1.064,1.275-2.087,1.945-3.11
		c0.355-0.545,0.419-1.26-0.043-1.776C170.612,118.525,169.845,118.476,169.491,119z"/>
	<path d="M181.455,117.989c0.378,1.945-0.321,3.389-1.486,4.895c-0.651,0.841,0.23,2.774,1.29,1.861
		c2.133-1.838,2.68-4.74,2.016-7.394C182.917,115.926,181.203,116.692,181.455,117.989z"/>
	<path d="M200.229,115.093c-0.816,0.848-1.424,1.884-1.886,2.96c-0.482,1.123-0.953,2.59-0.056,3.623
		c0.348,0.401,0.835,0.304,1.177-0.029c0.609-0.597,0.629-1.503,0.915-2.267c0.338-0.905,0.848-1.728,1.508-2.431
		C202.9,115.867,201.41,113.868,200.229,115.093z"/>
	<path d="M210.006,113.204c-0.561,1.58-1.276,3.094-1.77,4.698c-0.389,1.262,1.512,2.345,2.035,0.948
		c0.588-1.57,1.214-3.124,1.733-4.717C212.409,112.896,210.493,111.833,210.006,113.204z"/>
	<path d="M221.922,111.543c-0.64,0.016-0.959,0.64-0.976,1.203c-0.037,1.12-0.337,2.534,0.401,3.469
		c0.32,0.406,0.935,0.352,1.243-0.031c0.725-0.899,0.399-2.402,0.365-3.487C222.939,112.134,222.542,111.528,221.922,111.543z"/>
	<path d="M236.215,109.248c-0.687,0.017-1.045,0.692-1.057,1.302c-0.018,0.919-0.078,1.779-0.441,2.636
		c-0.258,0.607-0.142,1.397,0.445,1.779c0.575,0.375,1.228,0.056,1.514-0.506c0.632-1.241,0.682-2.597,0.658-3.962
		C237.324,109.886,236.88,109.231,236.215,109.248z"/>
	<path d="M320.95,96.644c-3.1-2.443-8.531-2.09-12.219-2.098c-5.37-0.011-10.726,0.515-16.091,0.703
		c-16.057,0.565-32.106,3.242-48.182,2.873c-0.165-0.004-0.308,0.029-0.438,0.081c-1.493-1.793-3.236-3.413-4.957-4.841
		c-7.446-6.177-16.012-10.779-24.18-15.899c-7.654-4.798-13.651-11.427-20.57-17.155c-7.701-6.375-16.447-8.644-26.244-8.379
		c0.409-0.708,0.01-1.793-0.737-2.094c-0.002-1.067-0.204-2.136-0.487-3.189c-0.238-0.882-0.565-1.742-0.857-2.607
		c-0.21-0.626-0.826-1.63-0.092-1.718c1.191-0.143,1.177-2.143-0.052-2.151c-1.888-0.014-2.659,1.421-2.36,3.17
		c0.419,2.461,1.819,4.781,1.401,7.292c-16.241,8.155-36.472,9.267-53.713,3.9c-0.141-0.351-0.433-0.625-0.86-0.636
		c-0.25-0.007-0.518,0.05-0.781,0.118c0.019-0.03,0.032-0.063,0.051-0.093c0.214-0.356,0.159-0.777-0.027-1.124
		c0.336-0.45,0.659-0.909,0.979-1.374c0.298-0.434,0.384-0.98,0.125-1.46c-0.634-1.174-0.801-2.211-0.915-3.511
		c-0.033-0.384-0.097-0.759-0.187-1.123c17.442,6.142,36.767,4.815,53.378-3.245c1.418-0.688,0.78-3.515-0.729-2.779
		c-0.282,0.138-0.572,0.258-0.855,0.392c0.222-0.604,0.099-1.431-0.428-1.823c-3.438-2.567-9.668-2.756-13.734-3.308
		c-6.917-0.938-13.927-1.379-20.906-1.136c-5.195,0.181-11.246,0.656-15.722,3.574c-1.309,0.854-3.668,4.627-2.917,6.655
		c-0.278,0.19-0.471,0.518-0.422,0.907c0.25,1.974,0.494,4.099,1.333,5.937c-0.364,0.551-0.723,1.104-1.041,1.684
		c-0.185,0.338-0.144,0.719,0.015,1.029c-0.35,0.675-0.569,1.448-0.376,2.148c-1.431,0.371-2.862,0.747-4.287,1.145
		c-0.064,0.019-0.122,0.045-0.178,0.072c-0.472-3.133-0.948-6.263-1.402-9.398c0.375-1.068,0.504-2.268,0.32-3.616
		c-1.192-8.727-18.454-5.763-23.834-5.109c-10.575,1.286-21.766,3.305-31.795,7.013c-0.304,0.112-0.602,0.237-0.896,0.37
		c-0.897,0.404-1.025,1.625-0.633,2.381c-0.042-0.004-0.083-0.008-0.125-0.001c-0.409-0.223-0.818-0.446-1.207-0.696
		c-0.938-0.606-1.639,0.919-0.987,1.583c0.501,0.509,1.063,0.952,1.653,1.362c0.221,2.313,1.073,4.668,1.628,6.863
		c0.864,3.422,1.645,6.817,2.206,10.299c-0.086-0.027-0.172-0.05-0.258-0.077c-1.372-0.443-1.744,1.907-0.498,2.361
		c2.335,0.852,4.749,1.479,7.203,1.933c-3.911,6.206-2.146,14.924-1.662,21.838c0.331,4.744,0.392,9.544,0.319,14.359
		c-5.803-0.357-42.914-0.49-48.597,0.666c-0.636,0.129-0.577,1.304,0.034,1.428c5.655,1.15,42.722,1.019,48.5,0.665
		c-0.176,7.081-0.576,14.176-0.786,21.155c-0.812,26.768-0.632,53.421-0.313,80.194c0.151,12.721-0.836,25.621-0.193,38.307
		c0.451,8.906,3.763,17.478,8.688,24.837c9.873,14.75,27.131,23.985,44.824,24.195c33.236,0.395,64.44-11.726,96.842-16.818
		c13.585-2.136,41.048-6.566,34.859-25.014c0.399-3.883,0.522-7.843,0.818-11.648c0.489-6.315,0.93-12.633,1.454-18.945
		c1.123-13.542,3.458-26.889,4.861-40.391c2.621-25.208,1.869-50.606,3.382-75.88c0.389-0.087,0.722-0.401,0.822-1.02
		c0.528-3.238-0.349-6.184-1.929-8.822c15.156,0.254,30.132-2.579,45.276-2.675c9.265-0.059,19.99-2.677,28.814,0.965
		C321.581,99.865,321.89,97.386,320.95,96.644z M110.223,40.808c0.777-1.552,2.921-2.325,4.431-2.855
		c5.15-1.806,11.052-1.783,16.441-1.736c9.789,0.085,19.538,1.29,28.902,4.101c-15.828,7.046-33.587,7.893-50.135,2.641
		C109.89,42.229,109.885,41.481,110.223,40.808z M97.452,54.142c-0.249-1.364-1.901-0.617-1.718,0.6
		c0.481,3.195,0.911,6.386,0.931,9.622c0.003,0.391,0.144,0.674,0.349,0.858c-1.002,0.365-2.01,0.705-3.024,1.019
		c-0.47-4.021-1.63-8.273-2.74-12.046c-0.004-0.016-0.014-0.023-0.018-0.038c3.17-0.848,6.11-2.104,8.062-3.978
		c0.305,1.926,0.667,3.846,1.005,5.757c0.406,2.289,0.487,5.172,1.275,7.532c-0.122,0.003-0.251,0.025-0.386,0.086
		c-0.833,0.373-1.673,0.71-2.514,1.043c0.019-0.093,0.047-0.177,0.045-0.285C98.657,60.878,98.068,57.513,97.452,54.142z
		 M74.812,69.724c-0.931-4.118-2.238-8.155-3.427-12.205c-0.287-0.974-1.458-0.461-1.267,0.443
		c0.844,3.984,1.768,7.972,2.859,11.898c-2.03,0.137-4.084,0.226-6.148,0.247c0.306-0.258,0.514-0.682,0.394-1.123
		c-1.205-4.439-1.862-9.201-3.637-13.464c4.543,0.443,9.125,0.558,13.672,0.411c-0.173,0.179-0.284,0.423-0.258,0.732
		c0.355,4.033,0.377,8.822,1.646,12.692c-1.116,0.126-2.235,0.237-3.359,0.332C75.129,69.7,74.97,69.711,74.812,69.724z
		 M78.76,56.34c-0.033-0.201-0.119-0.342-0.222-0.456c1.342-0.059,2.994-0.159,4.798-0.345c0.728,4.114,1.77,8.609,3.454,12.53
		c-2.101,0.427-4.22,0.775-6.359,1.054C80.702,65.046,79.419,60.352,78.76,56.34z M88.881,67.625
		c-0.979-4.13-2.822-8.194-4.072-12.255c1.634-0.205,3.344-0.484,5.028-0.867c0,0.062-0.009,0.12,0.003,0.186
		c0.725,3.872,0.841,8.333,2.039,12.183C90.885,67.146,89.885,67.394,88.881,67.625z M70.748,42.549
		c5.294-0.938,10.644-1.664,16.021-1.878c3.457-0.139,8.832-0.503,11.658,1.979c0.665,0.583,0.921,1.213,0.92,1.852
		c-0.378,0.218-0.66,0.626-0.617,1.171c0.014,0.174,0.04,0.347,0.056,0.521c-1.095,1.734-3.494,3.283-4.729,3.849
		c-5.354,2.451-11.668,2.869-17.465,3.081c-6.434,0.235-12.931-0.213-19.288-1.209c-3.845-0.602-8.097-1.396-11.752-3.082
		c0.092-0.017,0.189-0.045,0.289-0.087C53.566,45.456,62.539,44.004,70.748,42.549z M47.831,57.712
		c-0.497-1.855-0.925-3.911-1.545-5.85c3.043,1.365,6.578,2.008,9.611,2.576c0.331,2.578,0.597,5.162,0.899,7.744
		c0.276,2.352,0.422,5.02,1.771,7.012c0.479,0.708,1.409,0.376,1.394-0.476c-0.037-2.312-0.856-4.604-1.242-6.889
		c-0.402-2.382-0.697-4.765-1.216-7.117c1.775,0.297,3.561,0.54,5.354,0.729c1.1,4.714,0.81,9.917,2.727,14.398
		c0.049,0.116,0.115,0.196,0.18,0.271c-2.922-0.004-5.853-0.152-8.745-0.5c-0.257-0.259-0.623-0.35-0.994-0.124
		c-0.664-0.091-1.327-0.194-1.985-0.308c0.042-0.133,0.059-0.285,0.037-0.464c-0.614-5.017-1.352-10.083-2.811-14.929
		c-0.118-0.389-0.679-0.299-0.624,0.115c0.65,4.947,1.103,9.896,1.601,14.859c0.003,0.031,0.019,0.052,0.024,0.082
		c-0.848-0.176-1.686-0.377-2.52-0.596c0.095-0.183,0.16-0.388,0.14-0.635C49.615,64.248,48.703,60.958,47.831,57.712z
		 M245.005,107.802c-1.888,26.561-1.069,53.265-3.865,79.767c-1.283,12.176-3.443,24.211-4.539,36.417
		c-0.566,6.304-1.012,12.618-1.495,18.928c-0.272,3.543-0.714,7.134-1.064,10.725c-0.855,0.104-1.663,1.203-1.137,2.262
		c0.303,0.609,0.562,1.214,0.794,1.813c-0.128,1.903-0.207,3.8-0.187,5.685c0.007,0.714,0.514,1.124,1.036,1.164
		c-0.457,2.439-1.85,4.677-4.418,6.594c-5.006,3.737-11.682,5.267-17.668,6.575c-6.438,1.406-12.982,2.232-19.475,3.328
		c-8.799,1.484-17.403,4.143-26.068,6.243c-12.717,3.08-25.53,5.79-38.502,7.539c-11.215,1.515-23.233,2.891-34.398,0.445
		c-19.353-4.238-35.444-20.205-39.391-39.619c-1.4-6.892-0.58-14.139-0.477-21.11c0.118-8.023,0.056-16.05-0.049-24.072
		c-0.214-16.606-0.655-33.208-0.509-49.817c0.146-16.517,0.96-33.024,1.221-49.54c0.111-6.956,0.315-13.912-0.327-20.846
		c-0.548-5.9-1.581-12.87,1.835-18.067c6.298,0.893,12.816,0.746,19.036,0.294c8.865-0.644,18.955-2.015,26.821-6.435
		c0.289-0.163,0.455-0.438,0.523-0.753c0.112-0.018,0.22-0.082,0.288-0.211c0.925-1.757,0.513-4.063,0.114-6.128
		c0.128,0.018,0.265,0.02,0.413-0.013c2.214-0.489,4.416-1.026,6.619-1.563c0.294-0.072,0.503-0.242,0.639-0.46
		c1.479,0.519,2.986,0.973,4.511,1.382c-0.011,0.89-0.021,1.78-0.034,2.669c-0.013,1.016-0.189,2.166,0.122,3.142
		c0.378,1.185,1.688,1.064,2.042-0.05c0.271-0.846,0.125-1.831,0.113-2.71c-0.011-0.828-0.021-1.655-0.032-2.483
		c14.638,3.382,30.894,1.891,44.683-3.951c-0.038,0.973-0.074,1.945-0.11,2.917c-0.039,1.009-0.236,2.145,0.161,3.091
		c0.339,0.807,1.491,0.712,1.813-0.044c0.392-0.921,0.165-2.117,0.131-3.098c-0.04-1.131-0.086-2.263-0.129-3.394
		c-0.004-0.099-0.033-0.174-0.054-0.257c0.618-0.284,1.221-0.589,1.828-0.891c-0.031,0.729,0.367,1.483,1.186,1.449
		c9.981-0.41,18.321,1.818,26.126,8.103c6.321,5.09,11.645,11.281,18.428,15.798c6.902,4.597,14.225,8.519,21.034,13.264
		c4.695,3.271,12.183,8.519,12.892,14.932C245.229,107.033,245.037,107.355,245.005,107.802z"/>
</g>
</svg>
