<?xml version="1.0" encoding="utf-8"?>
<!-- Generator: Adobe Illustrator 15.0.0, SVG Export Plug-In . SVG Version: 6.00 Build 0)  -->
<!DOCTYPE svg PUBLIC "-//W3C//DTD SVG 1.1//EN" "http://www.w3.org/Graphics/SVG/1.1/DTD/svg11.dtd">
<svg version="1.1" id="Layer_1" xmlns="http://www.w3.org/2000/svg" xmlns:xlink="http://www.w3.org/1999/xlink" x="0px" y="0px"
	 width="388.163px" height="323.479px" viewBox="-48.979 -26.006 388.163 323.479"
	 enable-background="new -48.979 -26.006 388.163 323.479" xml:space="preserve">
<g id="Layer_1_1_">
	
		<linearGradient id="SVGID_1_" gradientUnits="userSpaceOnUse" x1="53.4443" y1="706.5205" x2="199.7113" y2="790.9677" gradientTransform="matrix(1 0 0 1 0.04 -573.7852)">
		<stop  offset="0.2857" style="stop-color:#FDFDFD"/>
		<stop  offset="1" style="stop-color:#E9E9E9"/>
	</linearGradient>
	<path fill="url(#SVGID_1_)" d="M198.907,92.751l-132.292,17.24l-2.109,145.207l1.543,8.736c0,0,116.896-21.813,122.442-27.342
		C194.04,231.064,198.907,92.751,198.907,92.751z"/>
	<path fill="none" d="M48.444,69.578c-0.964-1.399-1.905-2.766-2.847-4.133c-0.575,0.89-1.849,2.25-1.599,2.585
		c0.925,1.238,2.353,2.139,3.594,3.166C47.827,70.747,48.064,70.298,48.444,69.578z M61.636,221.586
		c-0.973,0.83-1.722,1.453-2.44,2.107c-0.077,0.068,0.024,0.316,0.042,0.48c0.656-0.229,1.309-0.469,1.969-0.689
		c0.385-0.127,0.775-0.297,1.174-0.324c0.664-0.039,1.338,0.018,2.008,0.033C63.514,222.682,62.642,222.172,61.636,221.586z
		 M67.348,223.021c-0.424-0.869-0.83-1.697-1.235-2.527c-0.447,0.381-1.336,0.986-1.27,1.104c0.466,0.826,1.132,1.553,1.731,2.309
		C66.782,223.67,66.988,223.432,67.348,223.021z M129.049,136.086c-0.62,0.32-0.938,0.488-1.26,0.654
		c0.628,0.408,1.239,0.844,1.901,1.195c0.088,0.047,0.427-0.326,0.648-0.507C129.923,136.998,129.512,136.564,129.049,136.086z"/>
	<path fill="#FFFFFF" d="M145.036,23.84c-5.777,0.437-11.549,0.922-17.322,1.371c-6.328,0.492-12.711,2.405-18.874-0.769
		c-0.213-0.11-0.512-0.158-0.752-0.119c-6.962,1.112-13.917,2.258-20.881,3.358c-7.128,1.125-9.463,4.304-8.119,11.112
		c0.152,0.773,0.237,1.556,0.353,2.335c0.296,0.07,0.593,0.14,0.889,0.209c-2.103-8.86,2.107-12.972,12.289-13.883
		c11.122-0.996,22.095-0.292,33.045,0.979c2.478,0.288,7.139-0.272,6.419,5.433c-0.213,1.693-1.731,7.853,4.591,7.656
		c0.558-0.018,1.097-0.562,1.645-0.861c-0.549-0.341-1.236-0.578-1.62-1.043c-0.925-1.125-2.713-2.858-2.379-3.46
		c1.69-3.049,3.352-7.451,6.121-8.355c2.097-0.683,4.214-1.335,6.375-1.844c-0.377-0.601-0.767-1.169-1.196-1.661
		C145.42,24.144,145.228,23.99,145.036,23.84z"/>
	<path fill="#FFFFFF" d="M263.12,122.592c-6.695,0.48-13.387,1.017-20.088,1.428c-8.781,0.537-17.58,0.863-26.353,1.5
		c-5.095,0.369-10.149,1.499-15.229,1.545c-1.24,0.011-3.646-2.938-3.582-4.454c0.428-9.986,1.738-19.947,1.932-29.93
		c0.053-2.769-2.604-5.637-4.202-8.359c-0.979-1.662-2.315-3.135-3.491-4.691c1.633-0.436,3.24-1.053,4.9-1.259
		c1.783-0.22,3.617-0.052,5.43-0.055c8.366-0.929,16.744-1.779,25.084-2.893c0.98-0.131,2.057-1.578,2.549-2.642
		c1.157-2.491,2.114-5.085,2.919-7.702c1.248-4.055,2.195-8.193,3.505-12.227c0.336-1.038,1.432-2.462,2.379-2.616
		c7.375-1.208,12.156-7.151,10.814-13.053c-0.605-2.668-0.424-5.767,0.441-8.358c0.099-0.286,0.289-0.541,0.55-0.772
		c-2.382-0.01-4.763-0.017-7.144-0.02c0.016,0.066,0.03,0.131,0.039,0.194c0.098,0.586-1.248,1.298-1.727,2.078
		c-0.494,0.805-0.547,1.874-1.102,2.622c-0.884,1.192-1.844,2.476-3.095,3.247c-1.987,1.22-5.876-0.064-5.389,4.36
		c0.12,1.119-1.869,2.561-3.082,3.665c-1.312,1.194-2.813,2.215-4.304,3.217c-0.682,0.458-1.523,0.714-2.322,0.983
		c-0.081,0.027-0.368-0.5-0.561-0.769c0.412-0.03,0.854,0.008,1.229-0.12c0.19-0.063,0.271-0.428,0.397-0.657
		c-0.426-0.062-0.877-0.247-1.269-0.163c-1.335,0.284-2.646,0.663-3.968,1.006c0.314,0.619,0.863,1.228,0.896,1.86
		c0.089,1.645,0.351,3.43-0.194,4.917c-0.776,2.132-2.146,4.084-3.401,6.033c-0.337,0.523-1.218,0.708-1.785,1.123
		c-0.603,0.442-1.132,0.975-1.694,1.467c0.678,0.458,1.334,0.951,2.037,1.366c0.521,0.305,1.235,0.405,1.607,0.809
		c0.18,0.191-0.232,0.877-0.378,1.338c-0.38-0.269-0.791-0.794-1.132-0.757c-1.278,0.139-2.541,0.442-3.786,0.767
		c-0.082,0.021,0.229,0.935,0.032,1.106c-0.698,0.619-1.478,1.223-2.344,1.579c-0.434,0.18-1.479-0.445-1.625-0.263
		c-0.642,0.803-1.051,1.768-1.545,2.676c1.021,0.228,2.061,0.403,3.059,0.699c2.367,0.703,4.716,1.46,7.065,2.211
		c0.086,0.027,0.173,0.317,0.152,0.329c-0.308,0.185-0.614,0.448-0.954,0.493c-6.025,0.807-12.057,1.588-18.086,2.369
		c-0.184,0.024-0.497,0.063-0.545-0.016c-1.344-2.273-2.266-4.92-4.1-6.743c-1.813-1.801,1.057-6.202-3.928-5.998
		c-0.732,0.03-1.5-0.732-2.254-1.128c1.044-0.389,2.089-0.772,3.128-1.169c0.409-0.156,0.804-0.342,1.205-0.516
		c-0.411-0.258-0.854-0.778-1.229-0.735c-3.133,0.365-6.244,1.082-9.377,1.152c-1.394,0.031-2.896-1.071-4.166-1.91
		c-0.311-0.208,0.162-1.4,0.174-2.141c0.039-2.763,0.049-5.526,0.016-8.289c-0.003-0.167-0.508-0.482-0.766-0.469
		c-2.176,0.112-4.567-0.196-6.457,0.581c-1.629,0.668-2.812,2.508-3.922,4.009c-0.42,0.567-0.477,2.047-0.041,2.416
		c4.925,4.17,9.86,8.344,15.031,12.231c3.631,2.727,7.691,4.932,11.402,7.568c0.73,0.519,0.734,1.951,1.076,2.962
		c0,0.429,0.001,0.855,0.001,1.283c0.002,0.142,0.003,0.283,0.003,0.425c1.132,1.076,2.264,2.154,3.396,3.231
		c0.979,1.434,1.963,2.866,2.943,4.299c-0.074,5.804-0.15,11.607-0.227,17.411c-0.301,5.015-0.604,10.031-0.904,15.047
		c0,10.184-0.01,10.12,11.343,9.016c4.737-0.461,9.519-0.526,14.271-0.856c9.313-0.651,18.619-1.36,27.928-2.047
		c4.27-0.315,8.543-0.634,12.813-0.951C263.125,125.182,263.124,123.886,263.12,122.592z"/>
	<path fill="#E5E5E5" d="M260.292,28.114c0.941,0.008,1.883,0.014,2.824,0.022c0-1.183,0-2.365,0-3.546
		C262.355,25.731,261.288,26.929,260.292,28.114z"/>
	<path fill="#E5E5E5" d="M263.191,256.738c0-13.4-0.075-160.948-0.075-174.349c-5.076,0.076-10.156,0.047-15.228,0.25
		c-9.774,0.389-19.537,1.018-29.313,1.336c-7.016,0.229-14.056,0.33-21.056-0.013c-1.59-0.078-3.065-2.228-4.593-3.423
		c1.336-0.581,2.643-1.594,4.009-1.676c14.185-0.846,28.386-1.426,42.563-2.325c7.293-0.463,14.551-1.425,21.828-2.142
		c0.586-0.058,1.192,0.048,1.789,0.077c0-15.446,0-30.893,0-46.337c-0.941-0.01-1.884-0.015-2.824-0.022
		c-1.592,1.891-2.996,3.748-2.679,5.278c1.164,5.551-0.36,13.409-4.464,17.55c-2.012,2.028-2.275,5.674-3.156,8.635
		c-1.484,5.005-2.463,10.186-4.49,14.974c-0.496,1.171-4.207,1.269-6.482,1.563c-1.891,0.243-3.844,0.051-5.768,0.052
		c-10.272,0.716-20.545,1.433-30.815,2.149c-1.812,0.002-3.646-0.166-5.429,0.055c-1.661,0.206-3.271,0.823-4.9,1.259
		c1.176,1.556,2.51,3.03,3.49,4.691c1.6,2.723,4.255,5.592,4.201,8.359c-0.193,9.982-1.506,19.943-1.93,29.93
		c-0.064,1.515-7.562,105.455-6.32,105.439"/>
	<path fill="#F3F3F3" d="M250.127,28.825c-0.866,2.591-1.049,5.69-0.442,8.358c1.342,5.902-3.44,11.845-10.813,13.053
		c-0.947,0.154-2.045,1.578-2.381,2.615c-1.309,4.035-2.256,8.173-3.504,12.228c-0.805,2.618-1.762,5.211-2.919,7.702
		c-0.493,1.064-1.567,2.511-2.549,2.642c-8.34,1.113-16.718,1.963-25.084,2.893c10.272-0.716,20.543-1.434,30.813-2.149
		c1.938-0.161,3.875-0.441,5.814-0.454c2.632-0.019,3.852-0.665,3.9-3.627c0.051-2.974,1.225-5.956,2.099-8.883
		c1.172-3.925,2.25-7.917,3.944-11.643c0.697-1.531,3.773-2.197,4.244-3.689c1.297-4.104,1.772-8.442,2.599-12.683
		c0.464-2.387,0.446-5.036,1.554-7.097c-2.242-0.017-4.484-0.029-6.729-0.038C250.417,28.285,250.225,28.54,250.127,28.825z"/>
	<path fill="none" d="M191.568,81.328c1.132,1.076,2.263,2.154,3.396,3.231c0.98,3.136,2.891,6.301,2.781,9.401
		c-0.424,11.851-1.621,23.676-2.26,35.523c-0.219,4.056,1.482,6.975,6.698,5.851c2.123-0.457,4.239-1.186,6.382-1.271
		c3.816-0.153,7.667,0.316,11.477,0.098c4.02-0.229,7.994-1.133,12.015-1.4c2.313-0.154,4.694,0.659,7.011,0.522
		c3.489-0.207,6.941-1.178,10.422-1.238c3.076-0.054,6.168,0.945,9.256,0.971c1.461,0.012,2.932-1.166,4.397-1.804
		c0,2.363,0.002,4.729,0.003,7.095c-0.229,2.257-0.273,4.546-0.751,6.749c-0.323,1.488-1.256,2.861-1.92,4.283
		c-0.113,0.242-0.409,0.557-0.334,0.697c0.146,0.277,0.481,0.479,0.769,0.676c0.506,0.354,1.028,0.682,1.545,1.021
		c-0.414,0.535-0.889,1.039-1.229,1.613c-0.4,0.682-0.686,1.42-1.02,2.135c-3.246,0-6.49,0-9.733,0
		c-0.076-0.762-0.019-2.146-0.248-2.191c-4.063-0.797-8.19-1.322-12.24-2.172c-0.885-0.188-1.583-1.361-2.271-2.156
		c-0.647-0.752-1.043-1.756-1.815-2.324c-0.237-0.174-1.95,0.701-1.966,1.135c-0.105,2.564,0.089,5.141,0.184,7.713
		c-1.66,0-3.32,0-4.979,0c-0.322-1.482-0.522-3.008-1.03-4.434c-0.181-0.504-1.104-0.77-1.688-1.145
		c0.687-0.598,1.278-1.375,2.08-1.75c1.096-0.514,2.351-0.723,3.537-1.064c-0.994-0.049-2.006-0.234-2.978-0.119
		c-2.877,0.338-5.657-3.352-8.593-0.182c-0.082,0.09-0.359,0.01-0.547,0.018c-1.196,0.049-2.391,0.096-3.586,0.145
		c1.104,0.557,2.267,1.037,3.291,1.703c0.582,0.377,0.945,1.059,1.407,1.6c-0.646,0.227-1.444,0.799-1.905,0.611
		c-1.444-0.582-3.22-2.381-4.033-2.021c-1.74,0.771-3.111,2.5-4.291,4.07c-0.326,0.436,0.558,1.689,0.884,2.566
		c-2.716,0-5.431,0-8.146,0.002c1.084-0.201,2.23-0.252,3.231-0.643c1.041-0.4,1.944-1.127,2.905-1.711
		c-0.934-0.332-1.848-0.746-2.813-0.965c-0.587-0.131-1.522-0.193-1.829,0.125c-0.93,0.957-1.627,2.115-2.414,3.193
		c-6.643,0-13.285-0.002-19.927-0.002c0.155-1.881-0.303-4.113,0.617-5.555c1.126-1.768,3.392-2.889,5.196-4.25
		c0.33-0.248,0.809-0.313,1.22-0.463c-0.356-0.289-0.685-0.627-1.08-0.857c-0.688-0.402-1.468-0.688-2.095-1.16
		c-0.105-0.082,0.291-1.176,0.584-1.236c0.808-0.166,1.685-0.057,2.529,0c0.25,0.02,0.486,0.213,0.73,0.33
		c0.048-0.553,0.145-1.104,0.134-1.654c-0.016-0.838-0.104-1.676-0.161-2.516c0.75,0.369,1.53,0.699,2.247,1.121
		c0.5,0.297,0.919,0.721,1.372,1.088c0.098-0.594,0.198-1.186,0.294-1.778c1.306-8.093,3.075-16.152,3.791-24.292
		c0.75-8.532,0.88-17.163,0.427-25.71C196.368,86.069,193.293,83.732,191.568,81.328z M254.383,148.695
		c2.85-0.393,4.26-0.566,5.66-0.797c0.145-0.023,0.381-0.432,0.324-0.527c-0.406-0.697-0.871-1.367-1.355-2.018
		c-0.029-0.039-0.528,0.109-0.611,0.266c-0.168,0.322-0.201,0.709-0.291,1.066c-0.365-0.512-0.642-1.123-1.115-1.52
		c-2.65-2.205-5.554-6.313-7.985-6.086c-4.007,0.371-7.746,3.514-11.521,5.621c-0.562,0.313-0.689,1.324-1.015,2.014
		c1.116-0.361,2.244-0.705,3.347-1.105c0.239-0.086,0.395-0.383,0.59-0.582c0.092,0.246,0.325,0.537,0.258,0.73
		c-2.16,6.041,2.441,5.439,5.936,5.045C249.717,150.451,252.717,149.172,254.383,148.695z M197.683,153.855
		c0-3.102-0.101-5.084,0.063-7.049c0.045-0.572,0.83-1.096,1.276-1.639c-1.144-0.367-2.287-0.734-3.429-1.104
		c-0.211,0.742-0.458,1.477-0.621,2.227c-0.199,0.912-0.473,1.84-0.461,2.756c0.021,1.602,0.131,3.223,0.488,4.775
		c0.055,0.242,1.635,0.318,2.461,0.191C197.9,153.949,198.235,153.279,197.683,153.855z M231.14,142.006
		c-0.744,0.615-1.224,1.012-1.702,1.406c1.41,0.219,2.816,0.529,4.232,0.613c0.517,0.029,1.066-0.473,1.601-0.732
		C233.943,142.879,232.614,142.463,231.14,142.006z M203.782,147.424c0.836,0.984,1.449,1.701,2.061,2.418
		c0.701-0.912,1.404-1.82,2.103-2.734c-0.68-0.396-1.392-1.15-2.028-1.1C205.206,146.072,204.567,146.867,203.782,147.424z
		 M223.428,143.59c-0.405-1.256-0.379-0.949-0.217-0.727c0.217,0.291,0.604,0.762,0.797,0.715c0.357-0.088,0.625-0.496,0.93-0.771
		c-0.777-0.688-1.535-1.395-2.365-2.018c-0.064-0.049-0.699,0.443-0.896,0.777C221.61,141.674,222.1,142.076,223.428,143.59z"/>
	<path fill="#F3F3F3" d="M80.729,24.342c4.094-0.365,8.193-0.681,12.29-1.01c2.775-0.224,5.585-0.036,8.381-0.036
		c1.077,0.148,2.154,0.296,3.23,0.443"/>
	<path fill="#F3F3F3" d="M28.254,66.541c0.069-1.83,0.202-3.654,0.485-5.43C28.329,62.8,28.17,64.615,28.254,66.541z"/>
	<path fill="#F3F3F3" d="M31.166,102.215c-0.127-2.532,0.02-5.076,0.243-7.625c-0.294,0-0.587,0-0.88,0c0.293,0,0.585,0,0.88,0
		c0.216-2.485,0.501-4.971,0.668-7.453l0,0c-1.208-5.973-2.671-11.912-3.564-17.928c-0.135-0.911-0.22-1.801-0.258-2.669
		c-0.064,1.745-0.074,3.493-0.096,5.208c-0.06,4.55,0.768,9.11,1.203,13.666c0.479,1.898,1.39,3.807,1.348,5.696
		c-0.079,3.71-1.208,7.439-0.976,11.108c0.646,10.227,1.77,20.428,2.687,30.64c0.029,0.335-0.102,0.969-0.227,0.985
		c-3.496,0.446-7.002,0.834-10.504,1.229c-0.001,1.51-0.001,3.019-0.001,4.526c3.187-0.093,6.597,0.417,9.463-0.538
		c1.372-0.461,2.491-3.742,2.38-5.679C32.941,122.985,31.694,112.617,31.166,102.215z"/>
	<path fill="#FFFFFF" d="M80.236,47.741c-1.844,0.398-3.778,0.505-5.679,0.556c-6.231,0.166-12.462,0.252-18.693,0.368
		c-0.225-0.001-0.452-0.003-0.678-0.006c-9.765-0.258-19.731,1.134-23.715,10.362c-2.484,5.753-1.045,13.18-0.727,19.827
		c0.253,5.267,1.244,10.506,2.072,15.743c0.597,0,1.194,0,1.791,0c-0.597,0-1.193,0-1.791,0c0.065,0.41,0.129,0.82,0.191,1.229
		c0.45,2.952,2.68,7.034,1.398,8.572c-2.927,3.508-0.283,5.481,0.774,7.943c0.483,1.124,1.708,1.953,2.524,2.968
		c0.12,0.15-0.062,0.775-0.259,0.862c-5.743,2.54-1.767,7.164-2.314,10.71c-0.675,4.372,0.645,9.016,0.011,13.398
		c-0.812,5.623-6.447,4.221-10.368,5.023c-0.915,0.188-2.056-0.621-3.094-0.973c-0.004,3.252-0.072,6.506,0.053,9.754
		c0.019,0.482,0.932,1.338,1.439,1.346c8.022,0.078,16.044,0.051,24.066,0.045c-0.587-1.389-1.292-2.748-1.735-4.178
		c-0.855-2.762-1.826-5.531-2.269-8.365c-0.687-4.385-0.854-8.841-1.451-13.24c-1.036-7.668-2.405-15.297-3.303-22.979
		c-0.641-5.478-0.174-11.111-1.22-16.498c-1.304-6.719-3.793-13.222-5.518-19.876c-2.379-9.182,4.628-19.692,14.516-20.452
		c11.258-0.868,22.625-0.415,33.934-0.803c1.072-0.037,2.073-1.958,3.105-3.006C82.282,46.65,81.333,47.504,80.236,47.741z
		 M38.943,132.339c-0.679,1.063-1.301,2.034-1.923,3.008c-0.296-1.077-0.597-2.153-0.886-3.233c-0.027-0.1-0.007-0.215,0.015-0.32
		c0.283-1.344,0.569-2.687,0.855-4.031C37.605,129.18,38.204,130.597,38.943,132.339z M38.155,124.594
		c-0.1,0.833-0.593,1.625-0.908,2.433c-0.411-0.816-0.82-1.631-0.48-0.954c-0.425-3.216-0.786-4.803-0.775-6.386
		c0.005-0.737,0.733-1.469,1.132-2.202c0.406,0.821,1.072,1.619,1.157,2.469C38.435,121.485,38.337,123.059,38.155,124.594z"/>
	<path fill="#DBDBDB" d="M31.265,173.039c-0.916-10.211,1.155-60.594,0.508-70.819c-0.233-3.67-1.142-7.399-1.063-11.108
		c0.041-1.889-0.869-3.797-1.348-5.696c-2.557-0.073-5.114-0.144-7.671-0.217c0,0.223-0.001,0.445-0.002,0.667
		c1.731-0.051,3.615-0.524,5.146-0.025c1.324,0.431,2.621,1.825,3.164,3.09c0.219,0.508-1.442,2.33-2.529,2.626
		c-1.807,0.494-7.35,0.24-9.287,0.3c0,14.404,0.751,66.778,0.749,81.182"/>
	<path fill="#FFFFFF" d="M263.141,131.21c-1.465,0.637-2.936,1.815-4.396,1.804c-3.089-0.025-6.179-1.024-9.256-0.971
		c-3.48,0.062-6.934,1.031-10.423,1.238c-2.315,0.137-4.696-0.677-7.01-0.522c-4.021,0.268-7.996,1.172-12.017,1.399
		c-3.809,0.22-7.656-0.25-11.475-0.098c-2.143,0.088-4.259,0.815-6.383,1.271c-5.215,1.125-6.915-1.794-6.697-5.85
		c0.639-11.847,1.836-23.671,2.258-35.523c0.11-3.101-1.799-6.266-2.779-9.401c0.98,1.434,1.963,2.866,2.942,4.299
		c-0.073,5.804-0.149,11.607-0.226,17.411c-0.301,5.015-0.604,10.031-0.904,15.047c-0.006,2.277-0.404,4.638,0.117,6.801
		c0.357,1.489,2.072,3.916,3.033,3.854c10.423-0.667,20.799-1.929,31.217-2.645c7.762-0.533,15.57-0.436,23.352-0.765
		c2.891-0.123,5.76-0.658,8.639-1.008C263.135,128.773,263.138,129.989,263.141,131.21z"/>
	<path fill="#757575" d="M263.12,76.619c-0.002,1.208-0.004,2.416-0.007,3.625c-5.794,0.223-11.588,0.47-17.384,0.662
		c-8.657,0.287-17.316,0.476-25.973,0.82c-7.518,0.299-15.025,0.826-22.547,1.026c-0.813,0.022-1.668-1.469-2.504-2.258
		c0.803-0.282,1.599-0.794,2.404-0.811c5.321-0.105,10.655,0.103,15.963-0.174C229.762,78.636,246.438,77.595,263.12,76.619z"/>
	<path fill="#B0B0B0" d="M263.12,76.619c-16.682,0.976-33.356,2.018-50.047,2.89c-5.307,0.278-10.642,0.069-15.963,0.174
		c-0.807,0.016-1.604,0.527-2.404,0.811c0.836,0.789,1.692,2.281,2.502,2.258c7.521-0.201,15.03-0.728,22.551-1.026
		c8.652-0.343,17.313-0.533,25.969-0.82c5.797-0.192,11.592-0.439,17.387-0.662c0,0.715,0.002,1.432,0.002,2.147
		c-5.076,0.075-10.156,0.047-15.228,0.249c-9.774,0.389-19.537,1.018-29.312,1.336c-7.017,0.229-14.057,0.33-21.058-0.013
		c-1.589-0.078-3.063-2.228-4.593-3.423c1.336-0.581,2.642-1.594,4.01-1.676c14.184-0.846,28.384-1.426,42.561-2.325
		c7.295-0.463,14.553-1.425,21.83-2.142c0.586-0.058,1.192,0.048,1.789,0.077C263.118,75.19,263.118,75.904,263.12,76.619z"/>
	<path fill="#FFFFFF" d="M31.471,59.021c2.035-4.714,5.633-7.38,9.967-8.83c-0.444,0.129-0.88,0.275-1.308,0.439
		c-15.214,5.837-11.015,18.251-9.964,29.372c0.144,1.531,0.611,3.036,1.1,4.538c-0.24-1.895-0.43-3.792-0.521-5.693
		C30.425,72.2,28.987,64.774,31.471,59.021z"/>
	<path fill="#FFFFFF" d="M41.438,50.192c4.268-1.246,9.178-0.99,13.748-1.532C50.409,48.532,45.587,48.804,41.438,50.192z"/>
	<path fill="#FFFFFF" d="M32.078,87.138c-0.241-0.868-0.53-1.732-0.812-2.597c0.206,1.61,0.449,3.22,0.707,4.829
		C32.013,88.625,32.053,87.881,32.078,87.138L32.078,87.138z"/>
	<path fill="#FFFFFF" d="M35.18,112.336c-1.057-2.463-3.703-4.436-0.775-7.943c1.283-1.538-0.947-5.62-1.397-8.572
		c-0.062-0.41-0.126-0.821-0.19-1.229c-0.33,0-0.658,0-0.988,0c0.008,0.201,0.013,0.401,0.024,0.6
		c0.771,12.676,1.81,25.341,2.402,38.023c0.124,2.645-0.402,6.84-2.101,7.697c-2.873,1.447-6.919,0.803-10.471,1.037
		c-0.001,0.791-0.002,1.584-0.004,2.377c1.037,0.352,2.179,1.16,3.094,0.973c3.921-0.805,9.556,0.6,10.368-5.023
		c0.633-4.383-0.687-9.027-0.011-13.398c0.547-3.547-3.428-8.171,2.315-10.71c0.197-0.087,0.378-0.713,0.258-0.862
		C36.887,114.288,35.662,113.46,35.18,112.336z"/>
	<path fill="#FFFFFF" d="M31.971,89.369c-0.1,1.743-0.206,3.486-0.143,5.221c0.33,0,0.658,0,0.987,0
		C32.541,92.85,32.249,91.111,31.971,89.369z"/>
	<path fill="#ECECEC" d="M255.85,35.188c-0.825,4.243-1.303,8.579-2.598,12.684c-0.471,1.492-3.549,2.158-4.244,3.689
		c-1.695,3.727-2.773,7.717-3.945,11.644c-0.874,2.926-2.048,5.91-2.1,8.882c-0.049,2.961-1.269,3.608-3.899,3.627
		c-1.938,0.013-3.876,0.292-5.813,0.454c1.926,0,3.879,0.191,5.769-0.052c2.274-0.295,5.987-0.392,6.481-1.563
		c2.028-4.788,3.008-9.969,4.492-14.974c0.879-2.96,1.146-6.606,3.153-8.635c4.104-4.141,5.63-11.999,4.466-17.55
		c-0.32-1.531,1.088-3.388,2.678-5.279c-0.963-0.009-1.924-0.017-2.886-0.023C256.297,30.153,256.314,32.802,255.85,35.188z"/>
	<path fill="#ECECEC" d="M263.116,22.44c-1.925,1.8-4.381,3.325-5.621,5.48c-0.031,0.056-0.06,0.113-0.091,0.171
		c0.962,0.007,1.927,0.015,2.886,0.023c0.998-1.185,2.064-2.384,2.826-3.524C263.116,23.873,263.116,23.157,263.116,22.44z"/>
	<path fill="none" d="M209.684,155.479c-0.326-0.877-1.21-2.133-0.883-2.566c1.179-1.57,2.55-3.299,4.291-4.07
		c0.813-0.359,2.588,1.439,4.031,2.021c0.463,0.188,1.263-0.387,1.906-0.611c-0.462-0.543-0.824-1.223-1.406-1.6
		c-1.025-0.664-2.187-1.145-3.291-1.703c1.194-0.049,2.389-0.096,3.584-0.145c0.188-0.008,0.465,0.072,0.547-0.018
		c2.936-3.168,5.717,0.52,8.594,0.182c0.972-0.115,1.984,0.072,2.979,0.119c-1.188,0.342-2.443,0.549-3.539,1.064
		c-0.801,0.375-1.395,1.152-2.078,1.752c0.582,0.373,1.508,0.639,1.688,1.143c0.508,1.426,0.708,2.947,1.03,4.434
		C221.318,155.479,215.5,155.479,209.684,155.479z"/>
	<path fill="none" d="M232.116,155.479c-0.096-2.57-0.289-5.146-0.185-7.713c0.016-0.432,1.729-1.309,1.966-1.133
		c0.773,0.566,1.168,1.572,1.814,2.324c0.688,0.797,1.386,1.969,2.271,2.154c4.049,0.85,8.176,1.377,12.24,2.174
		c0.23,0.045,0.172,1.432,0.248,2.191C244.352,155.479,238.233,155.479,232.116,155.479z"/>
	<path fill="#FFFFFF" d="M263.133,127.554c-2.879,0.349-5.75,0.885-8.639,1.008c-7.781,0.329-15.59,0.231-23.354,0.765
		c-10.417,0.716-20.794,1.979-31.215,2.645c-0.961,0.062-2.678-2.365-3.034-3.854c-0.521-2.163-0.122-4.524-0.116-6.801
		c0,10.184-0.009,10.12,11.342,9.016c4.738-0.461,9.521-0.525,14.271-0.855c9.311-0.65,18.619-1.359,27.927-2.046
		c4.271-0.316,8.542-0.635,12.812-0.952C263.129,126.837,263.131,127.196,263.133,127.554z"/>
	<path fill="#F4F4F4" d="M31.854,95.191c-0.012-0.199-0.017-0.4-0.024-0.6c-0.14,0-0.279,0-0.419,0
		c-0.223,2.548-0.371,5.092-0.244,7.625c0.529,10.401,1.775,20.77,2.365,31.169c0.111,1.936-1.008,5.219-2.38,5.678
		c-2.866,0.957-6.277,0.445-9.464,0.539c0,0.783,0,1.564-0.002,2.35c3.553-0.236,7.598,0.41,10.471-1.037
		c1.698-0.857,2.224-5.053,2.101-7.697C33.663,120.532,32.624,107.867,31.854,95.191z"/>
	<path fill="#F4F4F4" d="M32.077,87.138c-0.167,2.482-0.452,4.968-0.668,7.453c0.14,0,0.28,0,0.419,0
		C31.739,92.116,31.998,89.622,32.077,87.138z"/>
	<path fill="#6F6F6F" d="M14.563,91.715c0-1.352,1.788-3.223,1.788-4.573c0.601,0,6.56-0.475,7.152-0.408
		c1.644,0.192,3.307,0.347,4.89,0.766c0.209,0.056,0.156,2.241-0.05,2.284C26.161,90.248,16.786,91.418,14.563,91.715z"/>
	<path fill="#A4A4A4" d="M17.05,86.726c1.732-0.051,8.256-1.385,9.786-0.885c1.324,0.431,2.621,1.825,3.164,3.09
		c0.219,0.508-1.442,2.33-2.53,2.626c-1.806,0.494-3.84,0.24-5.777,0.3c0.003-0.36-6.457-0.72-6.454-1.081
		c2.223-0.295,10.923-0.528,13.105-0.993c0.205-0.043,0.258-2.229,0.049-2.284c-1.582-0.418-3.245-0.573-4.889-0.766"/>
	<path fill="none" d="M260.206,155.479c0.334-0.717,0.617-1.455,1.02-2.137c0.34-0.574,0.813-1.078,1.229-1.613
		c-0.517-0.34-1.039-0.666-1.545-1.021c-0.285-0.197-0.621-0.396-0.769-0.674c-0.075-0.145,0.223-0.457,0.334-0.699
		c0.665-1.422,1.597-2.793,1.92-4.281c0.478-2.205,0.522-4.494,0.751-6.75c0.002,4.818,0.163,9.646-0.127,14.449
		C262.961,153.713,261.187,154.574,260.206,155.479z"/>
	<path fill="none" d="M200.62,155.48c0.787-1.078,1.482-2.234,2.412-3.193c0.309-0.318,1.242-0.256,1.83-0.127
		c0.967,0.221,1.879,0.635,2.814,0.965c-0.963,0.586-1.865,1.311-2.906,1.713c-1.001,0.391-2.148,0.441-3.232,0.643
		C201.231,155.48,200.922,155.48,200.62,155.48z"/>
	<path fill="none" d="M186.292,87.439c1.344-1.088,3.17-1.875,3.194-2.711c0.104-3.329-6.637-7.81-10.349-7.206
		c-0.295,0.048-0.672,0-0.92-0.142c-1.266-0.722-2.502-1.489-3.75-2.24c-0.17,0.543-0.367,1.079-0.5,1.629
		c-0.133,0.554-0.066,1.182-0.32,1.668c-0.65,1.257-1.65,2.398-2.023,3.711c-0.108,0.385,1.313,1.474,2.199,1.75
		C177.788,85.132,181.809,86.185,186.292,87.439z"/>
	<path fill="none" d="M101.479,34.006c-1.401,0.068-2.827-0.549-4.261-0.699c-0.359-0.038-0.787,0.516-1.184,0.798
		c0.44,0.334,0.832,0.848,1.331,0.973c2.31,0.574,4.651,1.04,6.981,1.545c1.736,0,3.474,0,5.21,0
		c2.006-0.771,4.016-1.539,6.018-2.321c0.441-0.173,0.858-0.403,1.285-0.606c-0.489-0.241-0.997-0.714-1.466-0.685
		C110.75,33.313,106.122,33.783,101.479,34.006z"/>
	<path fill="none" d="M124.058,31.641c-3.243-0.725-6.496-1.414-9.746-2.111c-0.383,1.002-0.573,2.715-1.186,2.864
		c-1.433,0.349-3.067-0.12-4.621-0.14c-3.235-0.043-6.481-0.154-9.7,0.063c-1.135,0.076-2.204,1.027-3.303,1.581
		c0.8,0.66,1.502,1.692,2.416,1.906c2.087,0.486,4.278,0.571,6.426,0.82c-2.331-0.505-4.671-0.971-6.98-1.545
		c-0.5-0.125-0.891-0.638-1.332-0.973c0.397-0.282,0.825-0.836,1.184-0.798c1.434,0.15,2.861,0.767,4.261,0.699
		c4.644-0.224,9.272-0.693,13.913-0.994c0.47-0.031,0.978,0.444,1.466,0.685c-0.426,0.204-0.844,0.433-1.285,0.606
		c-2.002,0.783-4.012,1.548-6.018,2.321c2.119-0.646,4.246-1.273,6.355-1.948c0.674-0.217,1.305-0.563,1.955-0.851
		c-0.379-0.455-0.766-0.904-1.133-1.369c-0.143-0.18-0.361-0.419-0.322-0.583c0.049-0.194,0.332-0.475,0.521-0.479
		c1.414-0.034,2.888-0.226,4.223,0.09c0.673,0.159,1.095,1.272,1.633,1.952c0.146,0.183,0.266,0.463,0.459,0.523
		c1.545,0.482,3.106,0.922,4.66,1.376c-1.033-1.045-2.06-2.095-3.102-3.132C124.583,31.983,124.338,31.703,124.058,31.641z"/>
	<path fill="none" d="M48.444,69.578c-0.38,0.72-0.617,1.169-0.853,1.618c-1.24-1.027-2.669-1.928-3.594-3.166
		c-0.252-0.335,1.024-1.695,1.599-2.585C46.539,66.812,47.48,68.178,48.444,69.578z"/>
	<path fill="none" d="M139.685,45.222c1.56,0.91,3.114,1.82,4.672,2.729c-1.106,0.589-2.399,1.85-3.28,1.629
		c-1.935-0.481-3.66-1.714-5.47-2.639c2.038,0.641,4.058,1.345,6.129,1.866c0.394,0.099,0.992-0.526,1.496-0.817
		c-0.646-0.781-1.224-1.631-1.974-2.311C140.903,45.358,140.221,45.364,139.685,45.222z"/>
	<path fill="none" d="M61.636,221.586c1.004,0.586,1.878,1.098,2.751,1.607c-0.67-0.016-1.343-0.072-2.008-0.033
		c-0.398,0.027-0.789,0.199-1.174,0.324c-0.659,0.221-1.313,0.461-1.969,0.689c-0.018-0.166-0.12-0.412-0.042-0.48
		C59.915,223.039,60.664,222.416,61.636,221.586z"/>
	<path fill="none" d="M67.348,223.021c-0.36,0.41-0.566,0.646-0.772,0.885c-0.6-0.756-1.266-1.482-1.731-2.309
		c-0.066-0.117,0.823-0.725,1.27-1.104C66.518,221.324,66.923,222.152,67.348,223.021z"/>
	<path fill="none" d="M135.608,46.941c-2.079,0.041-4.161,0.037-6.232,0.158c-0.433,0.025-0.834,0.515-1.252,0.79
		c0.314,0.358,0.778,0.673,0.908,1.084c0.254,0.8,0.317,1.652,0.459,2.483c-0.298-0.743-0.545-1.507-0.914-2.216
		c-0.257-0.492-0.679-0.905-1.028-1.354c0.564-0.359,1.116-1.003,1.694-1.027C131.362,46.775,133.484,46.897,135.608,46.941z"/>
	<path fill="none" d="M129.049,136.086c0.462,0.479,0.874,0.912,1.288,1.343c-0.223,0.181-0.559,0.554-0.647,0.507
		c-0.662-0.354-1.274-0.787-1.901-1.195C128.111,136.574,128.43,136.408,129.049,136.086z"/>
	<path fill="#FFFFFF" d="M243.573,28.227c-0.009-0.063-0.023-0.127-0.039-0.194c-10.214-0.012-20.426,0.039-30.638,0.137
		c-0.451,0-0.905,0.644-1.358,0.644c-4.078,0.216-8.381-0.429-12.232,1.29c-0.905,0.216-1.813-0.214-2.721,0
		c-0.226,0.216-0.451,0.646-0.68,0.646c-0.906,0-1.813,0.215-2.718,0.644c-0.905,0.216-2.041-0.214-2.492,0.216
		c-1.812,1.29-4.077,1.719-5.665,1.935c-8.836,1.29-17.671,1.075-26.505,0.215c-1.358-0.215-3.172-1.075-4.757-1.075
		c-0.227,0-0.453-0.646-0.68-0.646c-3.303-0.348-4.676-3.516-6.279-6.078c-2.158,0.508-4.277,1.161-6.374,1.844
		c-2.768,0.904-4.431,5.307-6.12,8.355c-0.333,0.601,1.454,2.334,2.38,3.459c0.382,0.465,1.07,0.702,1.619,1.043
		c-0.548,0.3-1.087,0.844-1.645,0.862c-6.323,0.197-4.803-5.963-4.59-7.656c0.717-5.705-3.941-5.145-6.42-5.433
		c-10.949-1.271-21.922-1.976-33.044-0.979c-10.179,0.91-14.39,5.021-12.288,13.881c0.231,0,0.463,0,0.694,0
		c-1.867-7.264,1.186-12.223,9.169-12.707c9.446-0.573,18.99-0.23,28.463,0.228c10.723,0.519,10.551,2.161,12.68,11.502
		c0.714,3.135,2.234,3.24,5.137,3.573c5.194,0.596,10.616,1.574,15.229,3.755c2.853,1.349,4.246,5.322,6.553,7.914
		c2.059,2.313,4.221,4.676,6.785,6.418c3.268,2.217,7.197,3.552,10.461,5.767c5.512,3.737,10.724,7.868,16.061,11.833
		c-0.34-1.011-0.346-2.443-1.076-2.962c-3.711-2.638-7.771-4.841-11.402-7.568c-5.17-3.887-10.104-8.061-15.031-12.231
		c-0.436-0.368-0.379-1.848,0.041-2.416c1.111-1.5,2.296-3.34,3.922-4.009c1.89-0.777,4.281-0.469,6.457-0.581
		c0.258-0.012,0.763,0.302,0.766,0.468c0.033,2.763,0.023,5.526-0.015,8.29c-0.013,0.741-0.485,1.933-0.175,2.141
		c1.271,0.839,2.772,1.942,4.166,1.91c3.133-0.07,6.244-0.786,9.377-1.152c0.375-0.043,0.818,0.476,1.229,0.735
		c-0.401,0.174-0.796,0.359-1.205,0.516c-1.038,0.396-2.084,0.78-3.128,1.169c0.753,0.396,1.521,1.158,2.254,1.127
		c4.985-0.203,2.113,4.198,3.928,5.999c1.834,1.824,2.756,4.471,4.1,6.743c0.047,0.079,0.361,0.041,0.545,0.016
		c6.029-0.781,12.063-1.562,18.086-2.369c0.34-0.045,0.646-0.308,0.954-0.493c0.021-0.012-0.065-0.301-0.151-0.329
		c-2.352-0.751-4.699-1.51-7.066-2.212c-0.998-0.296-2.036-0.47-3.059-0.699c0.494-0.907,0.903-1.874,1.545-2.676
		c0.146-0.184,1.192,0.441,1.625,0.263c0.866-0.356,1.646-0.959,2.344-1.579c0.195-0.172-0.114-1.085-0.032-1.106
		c1.245-0.324,2.508-0.626,3.786-0.767c0.341-0.037,0.753,0.489,1.132,0.757c0.146-0.462,0.558-1.147,0.378-1.338
		c-0.372-0.404-1.086-0.503-1.607-0.809c-0.705-0.415-1.359-0.908-2.037-1.366c0.563-0.492,1.092-1.024,1.694-1.467
		c0.568-0.415,1.447-0.601,1.785-1.123c1.256-1.948,2.625-3.901,3.401-6.033c0.545-1.487,0.283-3.273,0.195-4.917
		c-0.031-0.633-0.58-1.241-0.896-1.86c1.319-0.342,2.632-0.721,3.967-1.006c0.392-0.084,0.843,0.101,1.269,0.163
		c-0.129,0.229-0.207,0.593-0.397,0.657c-0.376,0.127-0.817,0.09-1.229,0.119c0.19,0.27,0.479,0.796,0.561,0.769
		c0.799-0.269,1.643-0.525,2.322-0.983c1.49-1.002,2.992-2.021,4.304-3.217c1.213-1.104,3.203-2.546,3.082-3.665
		c-0.487-4.423,3.401-3.139,5.389-4.36c1.251-0.77,2.214-2.054,3.095-3.247c0.555-0.748,0.607-1.817,1.102-2.622
		C242.325,29.525,243.668,28.814,243.573,28.227z"/>
	<path fill="#FFFFFF" d="M155.85,44.374c0.402-0.455,0.837-1.442,1.49-1.599c3.675-0.872,7.4-1.538,11.105-2.294
		c0.315-0.065,0.6-0.279,0.895-0.424c-0.271-0.208-0.578-0.628-0.809-0.592c-2.148,0.322-4.271,0.777-6.419,1.092
		c-4.67,0.684-9.347,1.303-14.018,1.979c-0.313,0.045-0.584,0.345-0.873,0.525c0.31,0.159,0.608,0.418,0.937,0.458
		C150.485,43.805,152.817,44.044,155.85,44.374z"/>
	<path fill="#FFFFFF" d="M165.936,46.931c-1.748,0.347-3.661,0.487-5.344,1.151c-0.971,0.384-1.57,1.617-2.336,2.468
		c0.293,0.108,0.605,0.337,0.873,0.295c0.392-0.059,0.738-0.345,1.127-0.479c1.529-0.533,3.056-1.068,4.602-1.557
		c0.821-0.259,1.689-0.39,2.508-0.658c0.151-0.05,0.26-0.695,0.23-0.706C167.106,47.255,166.59,47.121,165.936,46.931z"/>
	<path fill="#FFFFFF" d="M203.536,65.037c1.28-0.654,1.771-0.903,2.26-1.152c-0.465-0.269-0.916-0.71-1.401-0.749
		c-0.36-0.028-0.944,0.398-1.097,0.75C203.157,64.216,203.456,64.715,203.536,65.037z"/>
	<path fill="#FFFFFF" d="M219.247,28.617c-0.013,0.491,0.317,0.989,0.496,1.484c0.262-0.445,0.523-0.892,0.824-1.406
		c-0.1-0.209-0.193-0.4-0.283-0.586c-0.304,0.001-0.609,0.005-0.914,0.007C219.301,28.281,219.252,28.448,219.247,28.617z"/>
	<path fill="#FFFFFF" d="M219.37,28.114c0.305-0.001,0.61-0.005,0.914-0.007c-0.156-0.326-0.304-0.627-0.447-0.926
		C219.698,27.494,219.497,27.803,219.37,28.114z"/>
	<path fill="#FFFFFF" d="M197.68,106.269c0.074-5.804,0.15-11.607,0.225-17.411C197.831,94.662,197.754,100.465,197.68,106.269z"/>
	<path fill="none" d="M254.383,148.695c-1.666,0.475-4.666,1.756-7.781,2.107c-3.493,0.395-8.096,0.994-5.936-5.045
		c0.066-0.193-0.166-0.484-0.26-0.73c-0.191,0.201-0.349,0.498-0.588,0.582c-1.104,0.4-2.229,0.744-3.347,1.105
		c0.325-0.689,0.452-1.701,1.014-2.014c3.772-2.107,7.515-5.25,11.519-5.621c2.437-0.229,5.338,3.881,7.988,6.086
		c0.475,0.396,0.75,1.008,1.116,1.52c0.091-0.357,0.123-0.744,0.289-1.066c0.083-0.156,0.583-0.305,0.612-0.266
		c0.486,0.65,0.949,1.318,1.355,2.018c0.057,0.096-0.18,0.504-0.324,0.527C258.643,148.129,257.235,148.305,254.383,148.695z"/>
	<path fill="none" d="M197.683,153.855c0.552-0.576,0.217,0.094-0.222,0.16c-0.828,0.129-2.406,0.051-2.461-0.191
		c-0.357-1.553-0.467-3.176-0.488-4.775c-0.012-0.918,0.262-1.844,0.461-2.756c0.162-0.75,0.41-1.482,0.621-2.227
		c1.142,0.367,2.285,0.734,3.429,1.104c-0.446,0.545-1.231,1.066-1.276,1.641C197.583,148.771,197.683,150.754,197.683,153.855z"/>
	<path fill="none" d="M231.14,142.006c1.473,0.457,2.803,0.873,4.133,1.287c-0.534,0.26-1.086,0.764-1.601,0.732
		c-1.418-0.084-2.824-0.395-4.234-0.613C229.917,143.016,230.396,142.621,231.14,142.006z"/>
	<path fill="none" d="M203.782,147.424c0.785-0.559,1.424-1.354,2.133-1.414c0.639-0.055,1.351,0.701,2.029,1.1
		c-0.701,0.912-1.4,1.82-2.102,2.734C205.231,149.127,204.618,148.408,203.782,147.424z"/>
	<path fill="none" d="M223.428,143.59c-1.328-1.514-1.818-1.916-1.754-2.023c0.197-0.334,0.832-0.824,0.897-0.775
		c0.83,0.621,1.587,1.33,2.365,2.018c-0.306,0.275-0.573,0.686-0.929,0.771c-0.193,0.047-0.582-0.424-0.797-0.715
		C223.051,142.641,223.023,142.334,223.428,143.59z"/>
	<path fill="#F4F4F4" d="M80.646,24.544c6.855-0.865,13.831-0.871,20.754-1.249c-2.794,0-5.606-0.188-8.381,0.036
		c-4.096,0.329-8.195,0.646-12.29,1.01c-0.091,0.076-0.183,0.154-0.274,0.229C80.519,24.562,80.582,24.552,80.646,24.544z"/>
	<path fill="#FFFFFF" d="M36.767,126.073c-0.425-3.216-0.786-4.803-0.775-6.386c0.005-0.737,0.733-1.469,1.132-2.202
		c0.406,0.821,1.072,1.619,1.157,2.469c0.155,1.531,0.058,3.105-0.125,4.641c-0.099,0.833-0.593,1.625-0.907,2.433
		C36.836,126.212,36.427,125.396,36.767,126.073z"/>
	<path fill="#FFFFFF" d="M38.943,132.339c-0.679,1.063-1.301,2.034-1.923,3.008c-0.296-1.077-0.597-2.153-0.886-3.233
		c-0.027-0.1-0.007-0.215,0.015-0.32c0.283-1.344,0.569-2.687,0.855-4.031C37.605,129.18,38.204,130.597,38.943,132.339z"/>
	<path fill="none" d="M186.292,87.439c-4.481-1.254-8.504-2.308-12.467-3.54c-0.889-0.276-2.309-1.364-2.199-1.75
		c0.373-1.313,1.373-2.454,2.023-3.711c0.253-0.487,0.188-1.115,0.32-1.669c0.133-0.55,0.33-1.086,0.5-1.629
		c1.246,0.751,2.484,1.519,3.75,2.24c0.248,0.142,0.626,0.189,0.92,0.142c3.711-0.604,10.451,3.878,10.349,7.206
		C189.459,85.565,187.633,86.351,186.292,87.439z"/>
	<path fill="#FFFFFF" d="M163.245,89.287c-0.302,0.003-0.604,0.006-0.906,0.009c-0.373-0.068-0.746-0.138-1.118-0.206
		c0.146-0.077,0.294-0.153,0.442-0.23c2.188-2.008,4.375-4.016,6.563-6.023c0.296-1.151,0.592-2.302,0.89-3.453l0.039,0.03
		c0.145,0.354,0.29,0.709,0.436,1.062c-0.152,0.5-0.307,1-0.457,1.5C167.17,84.412,165.208,86.849,163.245,89.287z"/>
	<path fill="none" d="M163.245,89.287c1.965-2.436,3.926-4.875,5.887-7.312c0.002,0.503,0.004,1.006,0.006,1.509
		C167.172,85.417,165.209,87.352,163.245,89.287z"/>
	<path fill="none" d="M169.586,80.475c-0.144-0.354-0.289-0.708-0.435-1.062c0.22-1.763,0.483-3.522,0.626-5.291
		c0.043-0.521-0.26-1.067-0.404-1.602C169.446,75.172,169.517,77.823,169.586,80.475z"/>
	<path fill="#DEDEDE" d="M101.388,64.87c3.16-2.728,0.038-4.902,2.355-6.512c1.387-0.965,8.795-2.077,9.304-1.697
		c1.493,1.114,0.252,2.234,1.448,3.779c1.15,1.486,2.634,4.149,3.935,5.53c0.927-1.722,1.707-2.844,2.336-4.657
		c0.583-1.676,0.962-5.244,1.544-5.341c5.736-0.965,8.655-0.094,9.268,5.342c0.096,0.851,1.475,2.652,2.346,2.773
		c4.723,3.888,6.987,4.63,11.198,6.695c7.08,1.944,6.055,2.416,13.133,4.358c4.521,4.876,7.549,8.157,0.967,9.207
		c-3.875,0.618-7.237,1.149-11.161,1.5c-13.416,1.195-22.939,3.145-36.356,4.337c-8.238,1.247-7.961-0.027-20.932,1.091
		c-5.01,0.373-7.084-5.687-0.191-11.043"/>
	<path fill="#FFFFFF" d="M155.85,44.374c-3.035-0.33-5.365-0.569-7.691-0.854c-0.326-0.039-0.623-0.299-0.935-0.458
		c0.289-0.181,0.562-0.481,0.874-0.525c4.669-0.676,9.349-1.295,14.016-1.98c2.149-0.315,4.272-0.769,6.42-1.091
		c0.229-0.036,0.535,0.383,0.809,0.592c-0.297,0.145-0.579,0.358-0.893,0.424c-3.707,0.756-7.434,1.422-11.107,2.294
		C156.687,42.93,156.252,43.918,155.85,44.374z"/>
	<path fill="#FFFFFF" d="M165.936,46.931c0.654,0.188,1.169,0.323,1.66,0.513c0.027,0.011-0.079,0.656-0.23,0.706
		c-0.816,0.269-1.687,0.4-2.508,0.658c-1.546,0.488-3.072,1.024-4.602,1.557c-0.389,0.135-0.735,0.419-1.127,0.479
		c-0.268,0.042-0.58-0.187-0.873-0.295c0.768-0.85,1.365-2.083,2.336-2.468C162.275,47.418,164.188,47.278,165.936,46.931z"/>
	<path fill="#FFFFFF" d="M203.536,65.037c-0.08-0.322-0.379-0.821-0.238-1.15c0.152-0.353,0.738-0.778,1.098-0.75
		c0.484,0.038,0.936,0.479,1.4,0.749C205.306,64.134,204.816,64.383,203.536,65.037z"/>
	<path fill="#FFFFFF" d="M219.247,28.617c-0.013,0.491,0.317,0.989,0.496,1.484c0.262-0.445,0.523-0.892,0.824-1.406
		c-0.1-0.209-0.193-0.4-0.283-0.586c-0.304,0.001-0.609,0.005-0.914,0.007C219.301,28.281,219.252,28.448,219.247,28.617z"/>
	<path fill="#FFFFFF" d="M219.37,28.114c0.305-0.001,0.61-0.005,0.914-0.007c-0.156-0.326-0.304-0.627-0.447-0.926
		C219.698,27.494,219.497,27.803,219.37,28.114z"/>
	<path fill="#F2F2F2" d="M161.661,88.859c2.188-2.008,4.377-4.016,6.564-6.023C166.038,84.843,163.848,86.851,161.661,88.859z"/>
	<path fill="#F2F2F2" d="M128.599,91.663c-3.748,0.71-7.468,1.627-11.248,2.063c-2.937,0.337-5.949,0.073-8.928,0.075
		c4.18-0.355,8.367-0.662,12.539-1.085C123.518,92.458,126.053,92.02,128.599,91.663z"/>
	<path fill="#F7F7F7" d="M110.462,83.271c7.4-0.79,14.8-1.581,22.2-2.369c6.408-0.637,12.815-1.264,19.219-1.931
		c0.392-0.041,0.744-0.406,1.115-0.621c-0.115-0.157-0.197-0.409-0.348-0.457c-5.266-1.646-10.505-4.536-15.813-4.653
		c-13.776-0.303-28.097-1.878-40.171,6.961c-1.24,0.907-1.817,2.633-2.702,3.978c1.729,0.257,3.457,0.681,5.189,0.705
		c0.985,0.012,1.955-0.824,2.974-0.942C104.894,83.622,107.683,83.483,110.462,83.271z"/>
	<path fill="#080808" d="M128.984,38.884c0.007-1.035-0.209-2.072-0.406-3.108c0.202,1.61,0.208,3.53,0.362,5.232
		C128.962,40.3,128.979,39.592,128.984,38.884z"/>
	<path fill="#080808" d="M108.951,28.45c0.032,0.004,0.063,0.007,0.094,0.011c-0.021-0.027-0.04-0.053-0.06-0.081
		C108.975,28.403,108.962,28.425,108.951,28.45z"/>
	<path fill="#080808" d="M107.828,24.277c-0.113,0.465-0.188,0.923-0.222,1.364C107.684,25.187,107.758,24.732,107.828,24.277z"/>
	<path fill="#080808" d="M175.25,66.509c0.482,0.304,0.967,0.607,1.455,0.906C176.236,67.096,175.749,66.796,175.25,66.509z"/>
	<path fill="#080808" d="M192.32,79.676c3.063,3.006,6.828,7.284,6.759,10.933c-0.422,21.986-1.867,43.956-2.932,65.932
		c-0.059,1.201,0.239,2.416,0.368,3.625c0.135-1.135,0.307-2.264,0.396-3.4c0.819-10.42,2.012-20.832,2.336-31.267
		c0.409-13.215,0.105-26.449,0.137-39.674c0-0.085,0.38-0.234,0.586-0.246c22.416-1.292,44.832-2.573,67.248-3.872
		c0.225-0.013,0.434-0.25,0.648-0.382c-0.246-0.178-0.518-0.535-0.729-0.506c-2.072,0.285-4.125,0.832-6.202,0.938
		c-20.703,1.063-41.408,2.074-62.117,2.962c-0.536,0.022-1.147-1.514-1.726-2.323c0.492-0.094,0.979-0.245,1.474-0.277
		c11.431-0.734,22.874-1.322,34.29-2.225c8.372-0.662,16.709-1.739,25.061-2.619c0.719-0.075,1.438-0.07,2.158-0.103
		c-0.91-0.212-1.846-0.677-2.726-0.595c-16.235,1.496-32.448,3.261-48.707,4.49c-5.306,0.401-11.142,2.188-15.888-2.246
		c-2.229-2.084-4.537-4.149-7.084-5.86c-2.902-1.953-5.971-3.707-8.965-5.545c0.14,0.094,0.278,0.188,0.412,0.286
		C182.363,71.485,187.766,75.208,192.32,79.676z"/>
	<path fill="#080808" d="M129.259,49.3c0.16-0.135,0.456-0.277,0.45-0.404c-0.019-0.334-0.2-0.656-0.26-0.992
		c-0.207-1.172-0.392-2.349-0.583-3.524c0.861,0.091,1.722,0.175,2.583,0.275c2.442,0.283,5.038,1.224,7.301,0.746
		c8.226-1.74,13.758,1.805,18.805,7.323c3.173,3.467,6.724,6.69,10.467,9.602c2.162,1.682,4.814,2.788,7.229,4.183
		c-1.775-1.124-3.514-2.295-5.156-3.575c-6.229-4.852-11.657-10.631-17.9-15.466c-2.285-1.772-5.855-2.33-8.947-2.818
		c-3.435-0.543-7-0.312-10.496-0.559c-0.981-0.068-1.936-0.604-2.877-0.986c-0.303-0.125-0.705-0.411-0.752-0.671
		c-0.079-0.449-0.136-0.929-0.181-1.426c-0.078,2.459-0.234,4.92-0.305,7.379C128.627,48.686,129.042,48.995,129.259,49.3z"/>
	<path fill="#080808" d="M109.824,38.013c-0.01,0.002-0.021,0.004-0.03,0.005c0,0.069,0.001,0.139,0.003,0.207
		C109.808,38.154,109.816,38.084,109.824,38.013z"/>
	<path fill="#080808" d="M110.358,27.723c-0.021,0.291-0.283,0.821-0.387,0.811c-0.276-0.027-0.61-0.042-0.926-0.074
		c0.735,0.99,1.217,1.364,1.211,1.73c-0.005,0.668-0.324,1.331-0.513,1.996c-0.618-0.483-1.427-0.871-1.777-1.492
		c-0.181-0.32,0.41-1.033,0.984-2.246c-0.411-0.049-0.772-0.138-0.898-0.345c-0.391-0.644-0.517-1.509-0.447-2.463
		c-0.127,0.755-0.261,1.511-0.393,2.265c-0.045,0.259-0.845,0.532-1.304,0.548c-0.335,0.012-0.957-0.367-0.981-0.613
		c-0.107-1.099-0.047-2.211-0.047-4.106"/>
	<path fill="#080808" d="M127.133,32.453c-4.116-2.398-9.703-2.494-14.646-3.676c-0.621-0.147-1.437-1.109-1.452-1.709l-6.738-2.014
		c-0.11,2.66-0.389,4.204-3.754,3.877c-2.073-0.202-4.208,0.25-6.318,0.314c-9.809,0.298-12.564,3.816-10.739,12.913
		c0.305,1.52,4.235,5.013-1.317,5.409c-10.366,0.739-20.761,1.886-31.123,1.715c-12.188-0.201-16.884,6.183-18.339,13.001
		c-1.43,6.703-0.496,13.853-0.765,20.8c-0.031,0.774-1.042,2.055-1.773,2.177c-4.58,0.77-9.211,1.256-13.819,1.881
		c-5.693,0.771-11.38,1.584-17.07,2.383c-0.284,0.039-0.563,0.101-0.846,0.153c0.289,0.065,0.593,0.22,0.865,0.181
		c7.048-1.03,14.082-2.152,21.143-3.09c3.168-0.421,6.389-0.528,9.59-0.671c0.678-0.03,1.38,0.404,2.07,0.624
		c-0.625,1.604-1.128,4.545-1.895,4.608c-7.312,0.604-14.667,0.708-22.009,0.986c-2.084,0.08-4.166,0.264-6.249,0.4
		c2.065-0.019,4.13-0.045,6.195-0.054c6.105-0.026,12.401,0.838,18.267-0.296c4.405-0.852,5.734,0.243,6.053,2.227
		c0.274,0,0.55,0,0.828,0c-0.106-1.483-0.212-2.968-0.316-4.453c-0.254-3.641-0.191-7.306-0.565-10.933
		c-0.838-8.117-0.991-15.96,4.202-23.204c4-5.58,9.693-5.63,15.754-5.867c10.046-0.394,20.072-1.207,30.113-1.744
		c0.994-0.054,2.07,0.496,3.011,0.948c0.233,0.111,0.082,0.94,0.109,1.44c0.238-0.649,0.789-1.362,0.662-1.937
		c-0.737-3.298-1.707-6.551-2.439-9.85c-0.22-0.997,0.071-2.094,0.127-3.146c0.531,0.61,1.034,1.247,1.611,1.816
		c0.214,0.213,0.593,0.333,0.917,0.381c13.379,2.022,26.646,2.175,39.628-2.202c0.8-0.27,1.528-0.735,2.291-1.109
		c0.051,0.349,0.115,0.697,0.183,1.045C128.381,34.225,128.004,32.96,127.133,32.453z"/>
	<path fill="#080808" d="M107.828,24.277"/>
	<path fill="#080808" d="M125.256,31.945c-4.359-0.925-8.774-1.624-13.185-2.307c-0.361-0.055-0.842,0.593-1.268,0.914
		c0.931,0.946,1.861,1.893,1.948,1.982c2.235,0,2.792-0.103,3.286,0.019c1.498,0.373,2.97,0.834,4.453,1.259
		c-1.446,0.076-2.893,0.165-4.34,0.219c-0.486,0.018-0.978-0.047-1.466-0.094c-0.265-0.025-0.527-0.094-0.79-0.141
		c0.268-0.075,0.539-0.221,0.803-0.214c1.488,0.036,2.974,0.109,4.463,0.169c-1.682-0.213-3.36-0.436-5.042-0.636
		c-0.634-0.075-1.276-0.114-1.915-0.146c-0.324-0.015-0.651,0.025-0.978,0.041c0.271,0.202,0.529,0.424,0.815,0.601
		c0.324,0.199,0.675,0.358,1.015,0.535c-0.42-0.071-0.888-0.288-1.249-0.181c-0.546,0.162-1.338,0.46-1.462,0.859
		c-0.32,1.021-0.38,2.116-0.521,3.188c5.223-0.895,10.438-1.825,15.641-2.809c0.676-0.129,1.243-0.781,1.86-1.19
		C126.642,33.298,126.069,32.115,125.256,31.945z"/>
	<path fill="#080808" d="M109.797,38.225c0.01-0.071,0.019-0.142,0.027-0.212c-0.01,0.002-0.021,0.004-0.03,0.005
		C109.794,38.087,109.795,38.156,109.797,38.225z"/>
	<path fill="#050505" d="M159.22,84.348c-11.451,1.583-20.946,3.125-30.503,4.161c-12.904,1.4-25.852,2.46-38.794,3.517
		c-1.289,0.105-3.366-0.476-3.852-1.354c-0.769-1.382-1.312-3.813-0.538-4.877c5.123-7.052,10.625-13.857,15.998-20.747
		c0.632-0.811,1.453-1.584,1.757-2.502c0.233-0.701-0.209-1.604-0.352-2.417c-2.6,0.729-5.202,1.459-7.802,2.188
		c0.406,0.513,0.8,1.452,1.219,1.463c1.492,0.04,2.993-0.24,4.491-0.393c0.591-0.061,1.184-0.106,1.775-0.158
		c-0.606,0.229-1.191,0.557-1.818,0.669c-1.555,0.278-3.127,0.595-4.694,0.606c-0.63,0.004-1.861-0.958-1.796-1.125
		c0.345-0.894,0.827-2.139,1.6-2.419c4.881-1.769,9.748-4.181,14.815-4.722c6.974-0.743,14.127-0.1,21.194,0.146
		c1.762,0.06,3.476,0.975,5.251,1.253c0.433,0.067,1.032-0.834,1.554-1.291c-0.667-0.505-1.297-1.37-2.007-1.432
		c-1.226-0.107-2.499,0.305-3.758,0.45c-0.291,0.034-0.616-0.11-0.907-0.22c-0.073-0.027-0.069-0.237-0.099-0.364
		c0.246-0.046,0.492-0.094,0.74-0.136c2.253-0.383,4.506-0.767,6.761-1.144c0.074-0.013,0.234,0.057,0.23,0.074
		c-0.225,1.437-0.46,2.873-0.7,4.308c-0.004,0.02-0.064,0.035-0.098,0.047c-1.604,0.535-4.647,1.359-4.603,1.559
		c1.011,4.495,2.224,8.353,8.322,9.716c6.361,1.422,12.355,4.531,18.275,7.349c1.175,0.56,2.154,3.47,1.648,4.721
		C161.863,82.918,159.637,83.995,159.22,84.348z M158.461,83.85c0.609-0.499,2.498-1.469,3.369-2.97
		c0.467-0.805-0.432-3.279-1.365-3.703c-5.947-2.696-11.954-5.383-18.194-7.348c-3.59-1.129-10.646-6.677-10.909-10.039
		c-0.511-6.512-5.138-4.204-8.497-3.168c-1.112,0.344-1.364,3.085-2.098,4.692c-0.719,1.577-1.552,3.107-2.335,4.658
		c-1.04-1.184-2.183-2.303-3.087-3.574c-0.781-1.097-1.395-3.431-1.902-3.386c-3.027,0.267-6.002,1.061-8.985,1.715
		c-0.086,0.019-0.145,0.47-0.092,0.693c0.306,1.288,0.743,2.554,0.941,3.855c0.097,0.63-0.18,1.333-0.403,1.967
		c-0.054,0.15-0.731,0.299-0.839,0.193c-0.223-0.219-0.326-0.609-0.348-0.937c-0.038-0.618,0.018-1.239,0.034-1.86
		c-0.619,0.352-1.43,0.567-1.831,1.075c-5.3,6.721-10.702,13.383-15.59,20.368c-0.606,0.866,1.708,5.123,2.486,5.075
		c11.609-0.7,23.204-1.709,34.765-2.956C134.705,87.004,145.786,85.448,158.461,83.85z M118.47,59.002
		c-1.491,0.748-2.065,1.035-2.638,1.322c0.62,1.101,1.239,2.2,1.859,3.3c0.648-0.372,1.856-0.771,1.836-1.109
		C119.47,61.466,118.946,60.438,118.47,59.002z M115.865,59.438c1.114-0.356,2.082-0.666,3.052-0.977
		c-0.256-0.628-0.65-1.821-0.745-1.799c-1.306,0.29-2.571,0.748-3.847,1.164C114.817,58.342,115.311,58.857,115.865,59.438z
		 M109.686,58.609c0.98-0.273,2.17-0.605,3.361-0.937c-0.423-0.382-1-1.164-1.244-1.079c-1.284,0.445-2.482,1.107-3.711,1.695
		C108.528,58.376,108.961,58.463,109.686,58.609z M131.751,59.504c0.755,0.978,1.503,1.944,2.25,2.911
		c0.036-0.109,0.132-0.245,0.095-0.326c-0.544-1.211-1.108-2.415-1.667-3.622C132.268,58.711,132.11,58.954,131.751,59.504z"/>
	<path fill="#3F3F3F" d="M276.389,100.519c-2.766,3.281-5.563,6.998-8.78,10.343c-9.961,10.35-20.084,20.56-30.151,30.816
		c-0.15,0.154-0.389,0.232-0.59,0.346c0.164-0.291,0.264-0.635,0.492-0.867c10.938-11.196,21.967-22.313,32.766-33.631
		c2.174-2.279,3.475-5.306,5.179-7.989c0.089-0.139,0.179-0.279,0.265-0.417C275.667,99.285,275.765,99.454,276.389,100.519z"/>
	<path fill="#424242" d="M284.945,118.337c-1.377,1.685-2.543,3.545-4.134,4.981c-9.646,8.713-19.393,17.333-29.111,25.973
		c-0.158,0.137-0.428,0.164-0.645,0.242c0.107-0.166,0.186-0.359,0.328-0.492c10.988-10.243,21.98-20.482,32.975-30.72
		c0.1-0.092,0.223-0.175,0.352-0.224C284.743,118.087,284.836,118.225,284.945,118.337z"/>
	<path fill="#404040" d="M255.293,104.094c-2.274,1.325-4.758,2.414-6.793,4.014c-9,7.083-17.871,14.315-26.793,21.488
		c-0.168,0.135-0.397,0.198-0.598,0.294c0.271-0.358,0.479-0.79,0.821-1.067c9.062-7.302,18.167-14.553,27.173-21.915
		c1.531-1.251,2.637-2.971,3.939-4.473c0.11-0.126,0.228-0.248,0.338-0.371c0.064,0.103,0.13,0.205,0.195,0.308
		C254.149,102.944,254.722,103.518,255.293,104.094z"/>
	<path fill="#383838" d="M258.976,87.68c-1.617,1.802-3.075,3.854-4.96,5.451c-6.512,5.517-13.174,10.876-19.785,16.285
		c-0.262,0.211-0.611,0.324-0.919,0.483c0.229-0.28,0.42-0.603,0.696-0.835c7.091-5.92,14.236-11.783,21.248-17.785
		c1.17-0.999,1.772-2.59,2.645-3.904c0.123-0.186,0.289-0.345,0.436-0.516C258.434,86.984,258.534,87.108,258.976,87.68z"/>
	<path fill="#353535" d="M26,107.659c-2.261,2.097-4.448,4.201-6.719,6.217c-5.078,4.512-10.198,8.983-15.313,13.46
		c-0.223,0.195-0.559,0.272-0.842,0.404c0.181-0.228,0.333-0.482,0.547-0.68c6.842-6.317,13.686-12.634,20.549-18.931
		c0.405-0.37,0.971-0.583,1.472-0.852C25.708,107.27,25.846,107.466,26,107.659z"/>
	<path fill="#404040" d="M31.744,123.249c-2.289,1.223-4.743,2.233-6.832,3.71c-6.067,4.288-11.986,8.763-17.971,13.154
		c-0.227,0.168-0.545,0.225-0.821,0.334c0.206-0.236,0.376-0.514,0.622-0.697c6.838-5.146,13.716-10.245,20.495-15.461
		c0.917-0.705,1.343-1.986,1.999-3.001c0.087-0.136,0.185-0.268,0.277-0.4c0.082,0.138,0.164,0.278,0.246,0.415
		C30.421,121.952,31.083,122.599,31.744,123.249z"/>
	<path fill="#3E3E3E" d="M11.544,100.894c-2.421,2.441-4.569,5.09-7.214,7.168c-4.141,3.255-8.615,6.126-12.958,9.15
		c-0.208,0.144-0.506,0.172-0.763,0.254c0.12-0.158,0.209-0.349,0.362-0.468c6.617-5.214,13.24-10.419,19.867-15.623
		c0.223-0.173,0.491-0.296,0.749-0.424C11.604,100.941,11.71,101.094,11.544,100.894z"/>
	<path fill="#1D1D1D" d="M64.558,113.585c0-1.299,0-1.472,0-1.643c-0.201,0.054-0.418,0.078-0.601,0.167
		c-0.772,0.371-1.53,0.766-2.3,1.142c-1.051,0.518-2.107,1.027-3.16,1.539c1.024-0.676,2.013-1.409,3.083-2.017
		c2.684-1.521,6.313-2.479,4.155-6.699c-0.017-0.033,0.16-0.153,0.245-0.233c0.272,0.652,0.68,1.286,0.78,1.961
		c0.105,0.709-0.085,1.457-0.146,2.188c1.068-0.713,2.14-1.419,3.199-2.145c0.259-0.178,0.468-0.419,0.702-0.633
		c-0.089,0.354-0.054,0.828-0.287,1.039c-1.811,1.648-3.673,3.246-5.523,4.855c-0.041,0.037-0.124,0.033-0.187,0.046
		C64.5,112.923,64.479,112.692,64.558,113.585z"/>
	<path fill="#454545" d="M8.955,163.281c-0.066-0.053-0.21-0.152-0.204-0.162c0.098-0.145,0.21-0.277,0.327-0.406
		c4.574-5.088,9.147-10.17,13.728-15.252c0.127-0.141,0.33-0.219,0.496-0.326c0.003,0.129,0.068,0.309,0.002,0.383
		c-4.704,5.213-9.416,10.414-14.131,15.619C9.126,163.188,9.052,163.217,8.955,163.281z"/>
	<path fill="#2F2F2F" d="M40.684,71.454c0-3.896-0.014-7.791,0.021-11.687c0.002-0.373,0.306-0.743,0.469-1.115
		c0.087,0.362,0.246,0.724,0.252,1.086c0.078,3.862,0.158,7.724,0.17,11.585c0.004,0.967-0.229,1.935-0.353,2.902
		c0-0.923,0-1.848,0-2.771C41.058,71.455,40.872,71.454,40.684,71.454z"/>
	<path fill="#3D3D3D" d="M231.301,91.117c0.466,0.221,0.959,0.457,1.453,0.694c-0.096,0.082-0.219,0.25-0.279,0.231
		c-0.318-0.103-0.684-0.424-0.921-0.349c-0.757,0.236-1.558,0.499-2.169,0.957c-4.28,3.21-8.516,6.476-12.773,9.713
		c-0.176,0.133-0.438,0.164-0.658,0.241c0.063-0.143,0.082-0.338,0.192-0.423c4.696-3.574,9.399-7.143,14.115-10.694
		C230.508,91.301,230.881,91.261,231.301,91.117z"/>
	<path fill="#272727" d="M137.957,98.924c0.086,0.052,0.301,0.121,0.299,0.19c0,0.14-0.074,0.338-0.19,0.413
		c-4.475,2.886-8.954,5.765-13.443,8.63c-0.188,0.121-0.463,0.121-0.697,0.176c0.047-0.116,0.056-0.283,0.145-0.342
		c4.463-2.963,8.934-5.918,13.406-8.87C137.596,99.043,137.751,99.007,137.957,98.924z"/>
	<path fill="#3A3A3A" d="M205.374,102.509c-0.043-0.086-0.145-0.211-0.119-0.241c0.14-0.163,0.287-0.332,0.469-0.446
		c4.64-2.917,9.281-5.827,13.93-8.731c0.135-0.082,0.331-0.073,0.498-0.106c-0.055,0.176-0.048,0.439-0.17,0.516
		c-4.781,2.981-9.572,5.947-14.363,8.913C205.557,102.453,205.481,102.469,205.374,102.509z"/>
	<path fill="#3B3B3B" d="M56.234,96.615c-0.219-2.522-0.465-5.043-0.64-7.57c-0.041-0.594,0.147-1.203,0.229-1.805
		c0.084,0.493,0.217,0.983,0.247,1.478c0.266,4.414,0.518,8.829,0.765,13.243c0.015,0.266-0.059,0.538-0.092,0.807
		c-0.112-0.263-0.305-0.523-0.324-0.794c-0.137-1.78-0.235-3.563-0.347-5.346C56.127,96.625,56.18,96.62,56.234,96.615z"/>
	<path fill="#242424" d="M158.556,101.974c0.215,0.089,0.151,0.064,0.089,0.037c0.068-0.111,0.109-0.259,0.213-0.325
		c3.957-2.553,7.918-5.099,11.887-7.634c0.08-0.051,0.312-0.008,0.375,0.066c0.068,0.08,0.08,0.331,0.021,0.366
		C167,96.961,162.853,99.423,158.556,101.974z"/>
	<path fill="#262626" d="M60.186,135.16c-0.459-0.228-0.541-0.269-0.625-0.309c0.061-0.088,0.121-0.173,0.179-0.258
		c2.52-3.599,5.036-7.202,7.599-10.773c0.056-0.079,0.679,0.209,1.037,0.324c-0.246,0.179-0.562,0.31-0.728,0.541
		c-2.199,3.059-4.379,6.134-6.563,9.205C60.77,134.338,60.454,134.785,60.186,135.16z"/>
	<path fill="#323232" d="M152.905,97.529c-0.617,0.443-1.195,0.949-1.857,1.317c-3.653,2.03-7.326,4.027-10.999,6.028
		c-0.235,0.128-0.512,0.188-0.77,0.28c0.191-0.225,0.333-0.527,0.579-0.663c3.782-2.106,7.587-4.179,11.365-6.294
		c0.509-0.285,0.902-0.756,1.349-1.142C152.682,97.215,152.793,97.373,152.905,97.529z"/>
	<path fill="#262626" d="M197.094,89.741c-0.594,0.302-1.221,0.504-1.69,0.879c-2.954,2.364-5.868,4.77-8.81,7.149
		c-0.146,0.12-0.393,0.133-0.594,0.196c0.117-0.185,0.193-0.408,0.354-0.545c3.046-2.635,6.096-5.265,9.171-7.867
		c0.252-0.214,0.718-0.274,1.079-0.269C196.784,89.289,196.956,89.606,197.094,89.741z"/>
	<path fill="#3C3C3C" d="M185.125,93.187c-0.41,0.2-1.621,0.727-2.769,1.358c-1.396,0.77-2.733,1.637-4.11,2.442
		c-1.672,0.977-3.357,1.934-5.039,2.899c1.627-1.117,3.326-2.152,4.862-3.37c2.142-1.694,4.161-3.526,6.238-5.294
		c0.086-0.071,0.233-0.075,0.351-0.109C184.704,91.314,184.747,91.515,185.125,93.187z"/>
	<path fill="#232323" d="M51.674,84.497c0-2.175-0.013-4.351,0.016-6.525c0.004-0.264,0.236-0.524,0.361-0.787
		c0.111,0.269,0.318,0.538,0.313,0.803c-0.093,4.419-0.21,8.838-0.331,13.258c-0.004,0.157-0.095,0.312-0.146,0.467
		c-0.085-0.193-0.246-0.387-0.247-0.582c-0.017-2.211-0.01-4.423-0.01-6.635C51.644,84.497,51.66,84.497,51.674,84.497z"/>
	<path fill="#3B3B3B" d="M61.852,100.716c-0.303,2.89-0.58,5.548-0.872,8.208c-0.019,0.168-0.164,0.324-0.25,0.487
		c-0.074-0.181-0.218-0.363-0.209-0.541c0.19-4.052,0.396-8.104,0.608-12.156c0.006-0.109,0.121-0.215,0.184-0.325
		c0.104,0.166,0.287,0.323,0.299,0.492C61.715,98.231,61.784,99.581,61.852,100.716z"/>
	<path fill="#272727" d="M84.54,105.686c-1.484,1.128-2.987,2.299-4.523,3.427c-0.922,0.676-1.885,1.307-2.854,1.921
		c-1.165,0.738-2.354,1.437-3.532,2.15c1.102-0.855,2.196-1.723,3.311-2.565c2.319-1.755,4.647-3.498,6.979-5.239
		c0.121-0.09,0.302-0.107,0.455-0.158C84.407,105.315,84.44,105.407,84.54,105.686z"/>
	<path fill="#1A1A1A" d="M106.203,103.987c-2.498,2.55-4.921,5.027-7.354,7.495c-0.023,0.025-0.164-0.056-0.25-0.086
		c0.084-0.113,0.165-0.23,0.254-0.341c1.877-2.295,3.74-4.602,5.649-6.874c0.234-0.279,0.693-0.407,1.073-0.544
		C105.674,103.599,105.865,103.791,106.203,103.987z"/>
	<path fill="#232323" d="M261.176,76.243c-1.68-0.283-3.514-0.593-5.354-0.902c1.645,0.021,3.289,0.042,4.934,0.061
		c0.226,0.003,0.451-0.02,0.678-0.01c1.249,0.057,2.499,0.12,3.748,0.181C263.922,75.782,262.663,75.995,261.176,76.243z"/>
	<path fill="#1D1D1D" d="M68.527,144.959c-2.057,2.193-4.292,4.574-6.537,6.951c-0.035,0.037-0.189-0.029-0.288-0.049
		c0.053-0.15,0.073-0.322,0.164-0.451c1.81-2.563,3.626-5.119,5.455-7.666c0.082-0.115,0.404-0.229,0.422-0.203
		C67.885,143.721,67.979,143.936,68.527,144.959z"/>
	<path fill="#313131" d="M118.638,101.91c-2.48,2.883-4.827,5.672-7.266,8.387c-0.427,0.476-1.239,0.641-1.874,0.948
		c0.546-0.396,1.154-0.738,1.627-1.201c2.086-2.042,4.095-4.153,6.221-6.154c0.541-0.507,1.408-0.704,2.132-1.027
		C119.502,102.852,119.606,103.005,118.638,101.91z"/>
	<path fill="#2E2E2E" d="M92.816,106.787c-1.489,1.263-2.913,2.609-4.491,3.766c-1.558,1.14-3.27,2.089-4.915,3.122
		c1.387-1.043,2.825-2.035,4.151-3.145c1.237-1.037,2.313-2.246,3.552-3.28c0.395-0.33,1.078-0.36,1.639-0.495
		C92.837,106.734,92.971,106.896,92.816,106.787z"/>
	<path fill="#101010" d="M77.018,52.396c1.837-1,3.671-2.005,5.525-2.979c0.094-0.05,0.499,0.182,0.506,0.297
		c0.014,0.186-0.176,0.389-0.294,0.578c-1.024,1.646-2.047,3.291-3.08,4.93c-0.063,0.102-0.2,0.161-0.302,0.24
		c-0.315-0.491-0.631-0.984-0.946-1.475C77.957,53.457,77.486,52.926,77.018,52.396z"/>
	<path fill="#373737" d="M47.014,75.98c-0.151-2.232-0.305-4.464-0.451-6.697c-0.004-0.082,0.053-0.169,0.082-0.253
		c0.203,0.189,0.578,0.377,0.581,0.57c0.048,2.804,0.042,5.608,0.058,8.412c0.006,0.836,0.045,1.672,0.067,2.509
		c-0.167-0.868-0.38-1.73-0.487-2.604c-0.078-0.635-0.015-1.283-0.015-1.925C46.905,75.986,46.959,75.983,47.014,75.98z"/>
	<path fill="#303030" d="M60.813,124.636c-0.667-0.345-0.724-0.373-0.779-0.402c0.162-0.229,0.291-0.488,0.491-0.682
		c2.216-2.144,4.444-4.279,6.675-6.413c0.091-0.089,0.239-0.124,0.361-0.184c0.077,0.14,0.256,0.369,0.215,0.411
		C65.431,119.838,63.068,122.292,60.813,124.636z"/>
	<path fill="#232323" d="M59.949,157.953c-1.088-0.521-1.232-0.592-1.374-0.66c0.11-0.068,0.222-0.137,0.328-0.209
		c2.185-1.52,4.367-3.043,6.555-4.557c0.158-0.113,0.352-0.172,0.529-0.258c0.004,0.293,0.145,0.732-0.005,0.857
		C63.9,154.836,61.778,156.502,59.949,157.953z"/>
	<path fill="#1A1A1A" d="M136.504,47.746c-0.134,0.581-0.115,1.067-0.344,1.399c-0.967,1.397-2.01,2.748-3.025,4.116
		c0.66-1.094,1.505-2.13,1.917-3.302c0.303-0.865,0.036-1.909,0.032-2.873c0-0.124,0.04-0.341,0.101-0.354
		c0.206-0.049,0.537-0.11,0.627-0.01C136.103,47.049,136.31,47.446,136.504,47.746z"/>
	<path fill="#3F3F3F" d="M218.765,133.079c-2.22,1.512-4.767,3.248-7.323,4.971c-0.066,0.044-0.238-0.058-0.361-0.091
		c0.121-0.119,0.24-0.236,0.361-0.354c2.104-2.063,4.204-4.128,6.314-6.186c0.106-0.103,0.287-0.138,0.436-0.204
		C218.25,131.41,218.31,131.602,218.765,133.079z"/>
	<path fill="#3B3B3B" d="M109.256,51.969c-1.841-0.451-3.649-0.894-5.457-1.337c1.601,0.194,3.211,0.592,4.795,0.517
		c1.202-0.057,2.372-0.718,3.561-1.101c0.093-0.03,0.214,0.021,0.325,0.033c-0.067,0.3-0.044,0.798-0.217,0.869
		C111.324,51.336,110.339,51.616,109.256,51.969z"/>
	<path fill="#373737" d="M67.821,136.462c-1.621,2.092-3.424,4.427-5.237,6.755c-0.048,0.063-0.182,0.064-0.275,0.094
		c0.052-0.223,0.044-0.482,0.166-0.664c1.584-2.383,3.187-4.754,4.794-7.123c0.054-0.08,0.218-0.091,0.332-0.131
		C67.642,135.59,67.682,135.789,67.821,136.462z"/>
	<path fill="#3D3D3D" d="M118.67,53.634c-0.649-0.339-0.885-0.462-1.119-0.585c0.228-0.059,0.468-0.091,0.681-0.179
		c2.031-0.844,4.053-1.704,6.085-2.542c0.244-0.101,0.528-0.11,0.795-0.161c-0.152,0.2-0.257,0.488-0.464,0.589
		C122.612,51.759,120.558,52.731,118.67,53.634z"/>
	<path fill="#161616" d="M90.333,54.359c-1.197-0.513-2.529-1.083-3.86-1.653c0.115-0.141,0.277-0.417,0.342-0.397
		c1.594,0.468,3.176,0.97,4.761,1.465C91.276,53.914,90.979,54.055,90.333,54.359z"/>
	<path fill="none" d="M109.797,38.225c0.01-0.071,0.019-0.142,0.027-0.212c-0.01,0.002-0.021,0.004-0.03,0.005
		C109.794,38.087,109.795,38.156,109.797,38.225z"/>
	<path fill="none" d="M125.256,31.945c-4.359-0.925-8.774-1.624-13.185-2.307c-0.361-0.055-0.842,0.593-1.268,0.914
		c0.931,0.946,1.861,1.893,1.948,1.982c2.235,0,2.792-0.103,3.286,0.019c1.498,0.373,2.97,0.834,4.453,1.259
		c-1.446,0.076-2.893,0.165-4.34,0.219c-0.486,0.018-0.978-0.047-1.466-0.094c-0.265-0.025-0.527-0.094-0.79-0.141
		c0.268-0.075,0.539-0.221,0.803-0.214c1.488,0.036,2.974,0.109,4.463,0.169c-1.682-0.213-3.36-0.436-5.042-0.636
		c-0.634-0.075-1.276-0.114-1.915-0.146c-0.324-0.015-0.651,0.025-0.978,0.041c0.271,0.202,0.529,0.424,0.815,0.601
		c0.324,0.199,0.675,0.358,1.015,0.535c-0.42-0.071-0.888-0.288-1.249-0.181c-0.546,0.162-1.338,0.46-1.462,0.859
		c-0.32,1.021-0.38,2.116-0.521,3.188c5.223-0.895,10.438-1.825,15.641-2.809c0.676-0.129,1.243-0.781,1.86-1.19
		C126.642,33.298,126.069,32.115,125.256,31.945z"/>
	<path fill="none" d="M92.782,34.365c-0.327,0.105-0.655,0.201-0.982,0.301c0.239-0.193,0.469-0.395,0.715-0.58
		c0.583-0.438,1.171-0.87,1.758-1.304c-0.741,0.17-1.486,0.326-2.221,0.516c-0.877,0.227-1.748,0.484-4.037,1.124
		c1.538-0.894,1.764-1.118,2.024-1.164c3.711-0.663,7.426-1.307,11.146-1.93c0.244-0.04,0.525,0.12,0.789,0.187
		c-0.273,0.053-0.554,0.081-0.816,0.165C98.363,32.57,95.574,33.47,92.782,34.365z"/>
	<path fill="none" d="M104.881,23.734c0,1.895-0.062,3.008,0.047,4.106c0.024,0.246,0.646,0.625,0.981,0.613
		c0.458-0.016,1.259-0.29,1.304-0.548"/>
	<path fill="none" d="M107.967,30.696c0.35,0.62,1.159,1.008,1.777,1.492c0.189-0.665,0.508-1.328,0.513-1.996
		c0.005-0.376-0.502-0.759-1.271-1.813C108.401,29.635,107.784,30.369,107.967,30.696z"/>
	<path fill="none" d="M158.461,83.85c-12.676,1.598-23.756,3.154-34.88,4.353c-11.561,1.246-23.155,2.255-34.764,2.956
		c-0.778,0.047-3.092-4.21-2.486-5.075c4.888-6.985,10.29-13.646,15.589-20.369c0.401-0.508,1.211-0.723,1.831-1.075
		c-0.016,0.62-0.071,1.243-0.034,1.86c0.021,0.326,0.125,0.716,0.348,0.936c0.107,0.107,0.785-0.042,0.839-0.193
		c0.223-0.634,0.5-1.338,0.403-1.967c-0.199-1.3-0.635-2.567-0.941-3.855c-0.054-0.223,0.004-0.674,0.092-0.693
		c2.983-0.654,5.958-1.448,8.984-1.715c0.509-0.045,1.122,2.289,1.903,3.386c0.904,1.271,2.048,2.39,3.087,3.574
		c0.783-1.551,1.617-3.081,2.335-4.657c0.735-1.607,0.985-4.349,2.098-4.692c3.359-1.034,7.984-3.344,8.496,3.168
		c0.263,3.362,7.322,8.911,10.91,10.039c6.241,1.964,12.247,4.651,18.194,7.347c0.935,0.423,1.832,2.898,1.365,3.703
		C160.959,82.381,159.072,83.351,158.461,83.85z M136.527,80.205c0.057,0.281,0.115,0.562,0.169,0.843
		c4.064-0.243,8.131-0.452,12.189-0.768c0.529-0.041,1.479-0.746,1.426-0.953c-0.164-0.624-0.605-1.31-1.155-1.689
		c-1.377-0.946-2.86-1.753-4.323-2.583c-3.222-1.832-6.345-4.921-9.708-5.185c-5.916-0.462-11.981,0.806-17.981,1.374
		c-0.303,0.029-0.582,0.29-0.871,0.443c0.292,0.101,0.587,0.293,0.876,0.287c3.054-0.069,6.111-0.316,9.158-0.226
		c3.977,0.118,8.045,0.083,11.882,0.911c2.571,0.554,4.826,2.468,7.19,3.824c1.475,0.844,2.89,1.783,4.33,2.68
		c-1.875,0.279-3.74,0.652-5.627,0.822c-8.314,0.749-16.675,1.164-24.942,2.229c-7.435,0.958-14.768,2.62-22.156,3.92
		c-0.558,0.098-1.689-0.154-1.713-0.342c-0.101-0.784-0.208-1.95,0.272-2.358c5.301-4.505,8.835-11.652,17.726-10.937
		c0.332,0.026,0.697-0.336,1.047-0.516c-0.395-0.098-0.786-0.248-1.188-0.286c-8.772-0.818-12.513,6.023-17.648,10.63
		c-0.923,0.828-0.811,2.698-1.176,4.086c1.115,0.19,2.253,0.614,3.342,0.522c2.735-0.232,5.467-0.6,8.166-1.085
		C116.058,84.006,126.291,82.092,136.527,80.205z"/>
	<path fill="none" d="M118.47,59.002c0.476,1.435,1,2.463,1.058,3.513c0.02,0.339-1.188,0.738-1.836,1.109
		c-0.62-1.101-1.24-2.2-1.859-3.3C116.405,60.037,116.979,59.751,118.47,59.002z"/>
	<path fill="none" d="M115.865,59.438c-0.555-0.581-1.048-1.096-1.541-1.612c1.276-0.416,2.542-0.874,3.847-1.164
		c0.095-0.022,0.489,1.171,0.745,1.799C117.947,58.772,116.979,59.082,115.865,59.438z"/>
	<path fill="none" d="M109.686,58.609c-0.724-0.146-1.159-0.233-1.594-0.321c1.229-0.587,2.427-1.25,3.711-1.695
		c0.245-0.085,0.821,0.697,1.244,1.079C111.856,58.004,110.667,58.335,109.686,58.609z"/>
	<path fill="none" d="M131.751,59.504c0.359-0.548,0.517-0.792,0.677-1.037c0.56,1.206,1.123,2.411,1.667,3.622
		c0.037,0.081-0.059,0.217-0.095,0.326C133.254,61.448,132.506,60.481,131.751,59.504z"/>
	<path fill="#121212" d="M101.185,31.33c-3.72,0.624-7.435,1.268-11.146,1.93c-0.261,0.046-0.488,0.27-2.024,1.164
		c2.289-0.64,3.158-0.897,4.036-1.124c0.736-0.19,1.481-0.345,2.222-0.516c-0.587,0.435-1.176,0.865-1.758,1.304
		c-0.245,0.185-0.476,0.386-0.715,0.58c0.328-0.1,0.656-0.196,0.982-0.301c2.792-0.895,5.582-1.795,8.376-2.685
		c0.262-0.084,0.543-0.111,0.816-0.165C101.71,31.449,101.427,31.289,101.185,31.33z"/>
	<path fill="#070707" d="M117.145,71.244c5.999-0.567,12.067-1.835,17.98-1.374c3.364,0.262,6.486,3.353,9.709,5.185
		c1.461,0.831,2.947,1.637,4.324,2.583c0.549,0.378,0.99,1.066,1.153,1.689c0.054,0.207-0.896,0.912-1.426,0.953
		c-4.06,0.316-8.125,0.525-12.188,0.768c-0.058-0.281-0.115-0.562-0.172-0.843c-10.237,1.887-20.468,3.8-30.714,5.645
		c-2.699,0.486-5.43,0.854-8.166,1.085c-1.089,0.092-2.227-0.333-3.343-0.522c0.366-1.389,0.253-3.258,1.177-4.087
		c5.134-4.606,8.875-11.449,17.648-10.63c0.402,0.038,0.793,0.188,1.188,0.286c-0.35,0.181-0.716,0.543-1.047,0.516
		c-8.891-0.714-12.426,6.432-17.727,10.938c-0.48,0.408-0.373,1.574-0.272,2.358c0.024,0.187,1.156,0.44,1.714,0.342
		c7.389-1.3,14.721-2.961,22.155-3.92c8.269-1.066,16.628-1.481,24.943-2.229c1.887-0.169,3.752-0.542,5.627-0.822
		c-1.442-0.896-2.857-1.835-4.33-2.68c-2.364-1.356-4.619-3.27-7.19-3.824c-3.837-0.828-7.904-0.792-11.882-0.911
		c-3.047-0.091-6.104,0.156-9.158,0.226"/>
	<path fill="none" stroke="#000000" stroke-width="5" stroke-linecap="round" stroke-miterlimit="10" d="M83.474,42.365
		c0,0,27.848,9.918,45.731-2.881"/>
	<path fill="none" stroke="#000000" stroke-width="5" stroke-linecap="round" stroke-miterlimit="10" d="M84.749,45.001
		c0,0,26.569,9.381,44.452-3.417"/>
	<path fill="none" stroke="#000000" stroke-width="5" stroke-linecap="round" stroke-miterlimit="10" d="M83.164,40.301
		c0,0,27.932,10.048,45.815-2.751"/>
	<path fill="none" stroke="#000000" stroke-width="5" stroke-linecap="round" stroke-miterlimit="10" d="M82.982,38.186
		c0,0,28.114,10.229,45.997-2.571"/>
	<path fill="none" stroke="#000000" stroke-width="3" stroke-miterlimit="10" d="M196.913,156.766l-5.365,71.285
		c0,0,3.238,10.32-20.369,15.48s-87.702,18.059-106.67,13.115c-9.033-2.355-13.577-3.814-19.515-10.561
		c-4.118-4.68-10.787-10.336-12.304-27.061c-1.4-15.455-0.223-124.437-0.223-124.437"/>
	<path fill="#262626" d="M68.967,224.342c-2.199,3.061-4.379,6.135-6.562,9.205c-0.318,0.443-0.633,0.895-0.899,1.27"/>
	<path fill="#262626" d="M61.059,234.248c2.521-3.6,5.034-7.203,7.599-10.771"/>
	<path fill="#1D1D1D" d="M69.845,244.613c-2.057,2.191-4.292,4.576-6.536,6.951c-0.034,0.037-0.188-0.027-0.288-0.045
		c0.054-0.152,0.074-0.326,0.165-0.455c1.81-2.563,3.626-5.119,5.456-7.666"/>
	<path fill="#303030" d="M69.095,217.021c-2.345,2.471-4.708,4.924-6.962,7.271c-0.668-0.346-0.723-0.373-0.779-0.402"/>
	<path fill="#303030" d="M61.353,223.889c0.161-0.229,0.29-0.488,0.49-0.684c2.217-2.143,4.445-4.279,6.676-6.412"/>
	<path fill="#232323" d="M67.3,252.783c-2.082,1.709-4.203,3.375-6.033,4.828"/>
	<path fill="#232323" d="M60.221,256.738c2.184-1.521,4.367-3.043,6.555-4.561"/>
	<path fill="#373737" d="M69.14,236.115c-1.621,2.094-3.424,4.43-5.237,6.756c-0.049,0.063-0.182,0.064-0.276,0.096
		c0.053-0.225,0.044-0.48,0.166-0.666c1.584-2.381,3.186-4.756,4.793-7.121"/>
	<path fill="#262626" d="M67.439,163.133c-2.199,3.061-4.378,6.135-6.562,9.205c-0.316,0.447-0.632,0.893-0.9,1.271"/>
	<path fill="#262626" d="M59.531,173.039c2.519-3.6,5.034-7.201,7.598-10.77"/>
	<path fill="#1D1D1D" d="M68.318,183.402c-2.057,2.193-4.292,4.58-6.536,6.953c-0.036,0.037-0.189-0.029-0.287-0.047
		c0.053-0.152,0.073-0.326,0.164-0.455c1.81-2.563,3.625-5.117,5.454-7.668"/>
	<path fill="#303030" d="M67.567,155.813c-2.346,2.469-4.71,4.926-6.963,7.27c-0.667-0.344-0.723-0.373-0.779-0.404"/>
	<path fill="#303030" d="M59.825,162.678c0.162-0.229,0.29-0.484,0.49-0.68c2.217-2.145,4.445-4.281,6.675-6.414"/>
	<path fill="#232323" d="M65.772,191.572c-2.082,1.709-4.204,3.375-6.033,4.828"/>
	<path fill="#232323" d="M58.693,195.529c2.185-1.521,4.367-3.043,6.555-4.561"/>
	<path fill="#373737" d="M67.612,174.906c-1.621,2.094-3.425,4.426-5.237,6.758c-0.048,0.059-0.182,0.064-0.276,0.092
		c0.053-0.221,0.045-0.48,0.166-0.664c1.584-2.381,3.187-4.754,4.794-7.123"/>
	<path fill="#262626" d="M67.902,206.346c-2.2,3.063-4.378,6.137-6.562,9.207c-0.317,0.445-0.633,0.893-0.9,1.27"/>
	<path fill="#262626" d="M59.993,216.256c2.52-3.6,5.035-7.203,7.599-10.771"/>
	<path fill="#1D1D1D" d="M68.781,226.619c-2.058,2.193-4.292,4.574-6.536,6.951c-0.035,0.037-0.189-0.027-0.287-0.045
		c0.053-0.154,0.073-0.326,0.164-0.457c1.81-2.561,3.625-5.115,5.454-7.664"/>
	<path fill="#303030" d="M68.03,199.027c-2.347,2.471-4.709,4.926-6.962,7.27c-0.668-0.344-0.724-0.371-0.78-0.4"/>
	<path fill="#303030" d="M60.287,205.896c0.163-0.23,0.291-0.488,0.491-0.686c2.217-2.145,4.445-4.277,6.674-6.412"/>
	<path fill="#232323" d="M66.234,234.787c-2.081,1.709-4.204,3.375-6.032,4.828"/>
	<path fill="#232323" d="M59.156,238.744c2.185-1.52,4.367-3.045,6.555-4.557"/>
	<path fill="#373737" d="M68.074,218.121c-1.621,2.096-3.424,4.428-5.236,6.756c-0.049,0.064-0.183,0.064-0.276,0.096
		c0.052-0.225,0.044-0.482,0.166-0.664c1.584-2.385,3.186-4.758,4.793-7.127"/>
	<line fill="none" stroke="#000000" stroke-width="3" stroke-miterlimit="10" x1="85.74" y1="40.861" x2="87.719" y2="52.954"/>
	<line fill="none" stroke="#000000" stroke-width="3" stroke-miterlimit="10" x1="85.24" y1="40.785" x2="87.221" y2="52.877"/>
</g>
<g id="Layer_2">
	
		<linearGradient id="SVGID_2_" gradientUnits="userSpaceOnUse" x1="81.0098" y1="612.0957" x2="131.5098" y2="612.0957" gradientTransform="matrix(1 0 0 1 0.04 -573.7852)">
		<stop  offset="0" style="stop-color:#FFFFFF"/>
		<stop  offset="1" style="stop-color:#C6C6C6"/>
	</linearGradient>
	<path fill="url(#SVGID_2_)" stroke="#000000" stroke-width="3" stroke-miterlimit="10" d="M131.55,43.591
		c0,0-11.736,9.853-48.077,4.947L81.05,30.931c0,0,26.989,9.605,48.382-4.218L131.55,43.591z"/>
	<path fill="#FDFDFD" stroke="#000000" stroke-width="3" stroke-miterlimit="10" d="M129.265,26.035
		c0.296,3.67-10.373,7.438-23.832,8.417c-13.458,0.979-24.608-1.202-24.905-4.872c-0.296-3.669,10.373-7.438,23.831-8.416
		C117.818,20.185,128.968,22.366,129.265,26.035z"/>
	<line fill="none" stroke="#000000" stroke-width="3" stroke-miterlimit="10" x1="84.75" y1="34.163" x2="86.729" y2="46.255"/>
	<line fill="none" stroke="#000000" stroke-width="3" stroke-miterlimit="10" x1="88.033" y1="35.546" x2="90.013" y2="47.64"/>
	<line fill="none" stroke="#000000" stroke-width="3" stroke-miterlimit="10" x1="91.896" y1="36.765" x2="93.877" y2="48.857"/>
	<line fill="none" stroke="#000000" stroke-width="3" stroke-miterlimit="10" x1="95.974" y1="36.121" x2="97.954" y2="48.213"/>
	<line fill="none" stroke="#000000" stroke-width="3" stroke-miterlimit="10" x1="99.373" y1="35.904" x2="101.352" y2="47.997"/>
	<line fill="none" stroke="#000000" stroke-width="3" stroke-miterlimit="10" x1="103.677" y1="35.904" x2="105.656" y2="47.997"/>
	<line fill="none" stroke="#000000" stroke-width="3" stroke-miterlimit="10" x1="106.849" y1="35.904" x2="108.828" y2="47.997"/>
	<line fill="none" stroke="#000000" stroke-width="3" stroke-miterlimit="10" x1="109.793" y1="35.904" x2="111.773" y2="47.997"/>
	<line fill="none" stroke="#000000" stroke-width="3" stroke-miterlimit="10" x1="112.965" y1="35.26" x2="114.945" y2="47.353"/>
	<line fill="none" stroke="#000000" stroke-width="3" stroke-miterlimit="10" x1="116.137" y1="34.831" x2="118.117" y2="46.922"/>
	<line fill="none" stroke="#000000" stroke-width="3" stroke-miterlimit="10" x1="119.307" y1="34.186" x2="121.289" y2="46.278"/>
	<line fill="none" stroke="#000000" stroke-width="3" stroke-miterlimit="10" x1="126.784" y1="30.316" x2="128.764" y2="42.409"/>
	<line fill="none" stroke="#000000" stroke-width="3" stroke-miterlimit="10" x1="123.838" y1="32.251" x2="125.819" y2="44.343"/>
	<line fill="none" stroke="#000000" stroke-width="3" stroke-miterlimit="10" x1="121.8" y1="33.112" x2="123.781" y2="45.203"/>
</g>
<g>
	<path fill="#FFFFFF" d="M-48.979-26.006v323.479h388.163V-26.006H-48.979z M266.543,250.945c0.014,5.128-1.474,6.388-6.162,6.379
		c-79.221-0.141-158.443-0.135-237.666-0.01c-4.458,0.006-5.939-1.215-5.931-6.104c0.134-75.775,0.133-151.551,0-227.326
		c-0.008-4.875,1.437-6.142,5.916-6.124c25.042,0.102,52.796,0.093,119.069,0.093c39.531,0,79.063,0.076,118.598-0.1
		c4.664-0.022,6.187,1.209,6.18,6.363C266.394,99.729,266.395,175.337,266.543,250.945z"/>
	<path fill="none" stroke="#626262" stroke-miterlimit="10" d="M21.717,167.833c-0.336-0.354-0.674-0.708-1.009-1.067
		C21.045,167.125,21.38,167.479,21.717,167.833z"/>
	<g>
		<g>
			<path fill="none" stroke="#626262" stroke-miterlimit="10" d="M141.467,17.856c39.498,0,78.996,0.074,118.492-0.102
				c4.664-0.021,6.185,1.209,6.17,6.363c-0.149,75.611-0.149,151.217,0,226.828c0.015,5.128-1.471,6.385-6.155,6.375
				c-79.151-0.139-158.304-0.129-237.455-0.006c-4.455,0.006-5.934-1.217-5.924-6.104c0.134-75.775,0.133-151.551,0-227.326
				c-0.009-4.875,1.435-6.142,5.91-6.124C62.158,17.925,101.813,17.856,141.467,17.856z"/>
		</g>
		<path fill="none" stroke="#626262" stroke-miterlimit="10" d="M210.103,254.239c0.373,0.135,0.743,0.31,1.128,0.358"/>
		<path fill="none" stroke="#626262" stroke-miterlimit="10" d="M211.231,254.6c-0.385-0.051-0.755-0.226-1.128-0.359"/>
		<path fill="none" stroke="#626262" stroke-miterlimit="10" d="M19.538,166.508c-0.336-0.352-0.673-0.709-1.009-1.061
			C18.866,165.799,19.202,166.156,19.538,166.508z"/>
	</g>
</g>
</svg>
