<?xml version="1.0" encoding="utf-8"?>
<!-- Generator: Adobe Illustrator 15.1.0, SVG Export Plug-In . SVG Version: 6.00 Build 0)  -->
<!DOCTYPE svg PUBLIC "-//W3C//DTD SVG 1.1//EN" "http://www.w3.org/Graphics/SVG/1.1/DTD/svg11.dtd">
<svg version="1.1" id="Layer_1" xmlns="http://www.w3.org/2000/svg" xmlns:xlink="http://www.w3.org/1999/xlink" x="0px" y="0px"
	 width="325.984px" height="327.113px" viewBox="0 0 325.984 327.113" enable-background="new 0 0 325.984 327.113"
	 xml:space="preserve">
<path d="M301.083,117.209c-2.912-19.86-12.994-39.533-24.295-55.898c-9.562-13.846-22.404-25.1-36.88-33.58
	c-29.734-17.421-65.766-22.641-99.737-20.174c-30.92,2.245-61.693,13.411-82.032,37.682C43.132,63.146,35.593,86.456,34.32,109.551
	c-0.659,11.961,0.096,24.166,2.952,35.821c1.035,4.223,2.453,8.459,4.381,12.415c-0.016,0.118-0.014,0.236,0.025,0.336
	c0.027,0.071,0.059,0.14,0.087,0.21c-0.325,0.467-0.651,0.935-0.978,1.402c-0.335,0.48-0.328,1.04,0.037,1.502
	c1.676,2.126,3.408,4.205,5.186,6.246c1.072,2.137,2.155,4.267,3.168,6.418c2.66,5.65,5.152,11.377,7.542,17.148
	c4.911,11.857,9.301,23.926,13.652,35.996c7.965,22.096,15.835,44.307,26.382,65.33c-0.377,0.42-0.491,1.123,0.018,1.586
	c19.235,17.562,47.254,24.953,72.72,26.053c25.021,1.082,54.042-5.16,68.835-27.283c0.332-0.496,0.277-1.105,0.035-1.58
	c6.48-20.836,17.306-40.076,24.986-60.469c7.371-19.57,23.211-47.752,30.991-67.802c2.501-5.052,4.241-10.551,5.602-15.861
	C302.436,137.278,302.534,127.114,301.083,117.209z M260.907,230.619c-7.795,20.709-18.871,40.146-25.137,61.428
	c-14.722,20.779-42.297,26.223-66.342,25.379c-23.93-0.838-50.803-7.848-69.509-23.619c0.011-0.223-0.028-0.455-0.146-0.686
	c-11.401-22.244-19.653-45.871-28.185-69.314c-4.156-11.422-8.391-22.814-13.053-34.04c-2.16-5.201-4.326-10.667-6.766-15.997
	c12.737,13.197,27.635,24.279,43.934,32.621c0.014,0.812,0.762,1.658,1.658,1.135c0.09-0.053,0.176-0.108,0.266-0.16
	c11.285,5.588,23.219,9.871,35.556,12.635c18.089,4.051,36.845,4.518,55.181,1.988c15.713-2.166,31.688-6.369,46.146-13.241
	c0.605,0.698,2.057,0.345,2.157-0.972c0.002-0.028,0.002-0.056,0.004-0.084c2.409-1.203,4.776-2.475,7.086-3.834
	c8.431-4.962,16.032-11.142,24.284-16.375c6.936-4.399,13.967-8.614,19.604-14.678C279.184,191.64,267.134,214.078,260.907,230.619z
	 M100.268,205.757c6.112-3.843,11.846-8.24,17.756-12.388c7.421-5.208,15.324-9.289,23.993-11.988
	c13.231-4.12,28.062-5.444,41.771-3.147c10.974,1.839,21.954,5.018,32.045,9.723c7.176,3.346,17.7,9.09,18.414,17.979
	c-0.712,0.35-1.42,0.709-2.142,1.043c-9.211,4.277-19.317,7.137-29.175,9.502c-19.027,4.566-38.882,5.537-58.264,2.889
	C128.911,217.216,114.077,212.498,100.268,205.757z M296.475,150.245c-2.998,10.184-7.798,19.05-16.124,25.769
	c-6.839,5.518-14.798,9.486-21.874,14.684c-7.01,5.149-14.208,10.036-21.909,14.062c-1.14-8.088-9.276-13.727-16.005-17.391
	c-10.712-5.833-22.889-9.312-34.83-11.524c-13.496-2.501-27.428-1.343-40.706,1.948c-8.996,2.229-17.405,6.178-25.136,11.242
	c-7.545,4.941-14.504,10.704-22.173,15.457c-16.292-8.324-31.11-19.483-44.272-32.572c1.074,0.08,1.682-1.894,0.604-2.672
	c-12.504-9.035-15.787-26.795-17-41.162c-1.267-15.013-0.051-30.246,4.107-44.734C45.6,67.874,53.52,53.504,64.695,41.879
	c10.837-11.271,24.678-19.198,39.358-24.315c16.301-5.682,33.672-7.648,50.859-7.763c17.812-0.119,35.652,2.201,52.76,7.188
	c16.752,4.883,32.635,12.709,46.291,23.613c15.128,12.08,25.533,28.052,34.03,45.246
	C297.972,106.035,302.973,128.182,296.475,150.245z"/>
</svg>
