<?xml version="1.0" encoding="utf-8"?>
<!-- Generator: Adobe Illustrator 16.0.0, SVG Export Plug-In . SVG Version: 6.00 Build 0)  -->
<!DOCTYPE svg PUBLIC "-//W3C//DTD SVG 1.1//EN" "http://www.w3.org/Graphics/SVG/1.1/DTD/svg11.dtd">
<svg version="1.1" id="Layer_1" xmlns="http://www.w3.org/2000/svg" xmlns:xlink="http://www.w3.org/1999/xlink" x="0px" y="0px"
	 width="1061.33px" height="1018.45px" viewBox="0 0 1061.33 1018.45" enable-background="new 0 0 1061.33 1018.45"
	 xml:space="preserve">
<g>
	<path fill-rule="evenodd" clip-rule="evenodd" fill="#BEBEBE" d="M229.111,127.944c45.395-27.142,94.451-62.846,134.222-62.846
		c-2.802,5.847-11.62,76.782-14.422,82.627c-6.764,51.496-13.525,102.988-21.116,160.767c12.564-17.861,21.63-30.759,37.489-53.306
		c11.028,32.847,18.648,55.547,26.268,78.256c-11.287,14.715-22.572,29.441-33.857,44.165
		c-61.789,21.759-61.789,21.759-59.865,97.064c-2.639,41.313-5.282,82.626-7.918,123.928c-0.492,11.234-0.983,22.468-1.469,33.693
		c-8.55,5.862-17.095,11.724-25.645,17.587c-7.917-5.812-15.841-11.615-23.765-17.414c-31.494-25.968-56.07-51.935-87.561-77.911
		c-37.911-51.446-54.28-78.013-68.063-159.523c0.461-17.2,1.587-34.139,2.049-51.333l3.845-22.37
		c16.415-56.707,15.9-55.201,40.144-94.056c30.12-26.424,12.93-26.187,43.051-52.602
		C174.786,168.774,200.483,152.116,229.111,127.944z"/>
	<path fill-rule="evenodd" clip-rule="evenodd" fill="#BDBDBD" d="M953.891,306.75c45.305,30.912,40.575,35.297,41.009,72.396
		c1.431,122.309-86.879,199.283-109.816,220.35c-37.007,22.538-74.01,45.065-111.017,67.598c-2.322,1.011-4.731,1.692-7.224,2.045
		c-2.623-1.034-5.306-1.88-8.05-2.519c2.511-8.171,5.02-16.343,7.528-24.507c20.18-82.746-4.11-161.914-7.514-242.762
		c-5.193-0.121-10.392-0.241-15.585-0.361c-3.585,16.406-7.162,32.813-10.74,49.217c-0.125,2.844-0.238,5.69-0.343,8.533
		c-9.29,23.987-18.43,48.032-27.927,71.929c-10.643,26.767-21.618,53.407-32.446,80.098c-5.382-3.561-10.772-7.129-16.159-10.69
		c6.145-70.96,13.768-141.835,17.8-212.924c1.998-35.173,17.72-47.278,49.332-52.148c26.717-4.114,52.234-16.553,78.285-25.313
		C851.98,307.38,908.585,275.837,953.891,306.75z"/>
	<path fill-rule="evenodd" clip-rule="evenodd" fill="#C0C0C0" d="M698.218,130.19c28.409,0,60.313-34.224,90.719-21.016
		s60.056,37.361,87.773,58.276c3.041,3.612,38.238,36.873,41.278,40.485c-49.48,2.724-141.238,2.553-190.725,2.646
		c-7.254,0.019-17.572-17.371-21.098-28.525C700.981,165.623,700.627,147.563,698.218,130.19z"/>
	<path fill-rule="evenodd" clip-rule="evenodd" fill="#EEEEEE" d="M953.891,306.75c-50.955,0.313-101.911,0.63-152.866,0.941
		c-32.616,0.818-66.134,6.913-97.606,1.112c-37.826-6.966-45.68,13.939-48.767,42.294c-8.576,78.789-15.726,157.75-23.447,236.658
		c-0.01,0.009-1.999,1.975-1.989,1.975c-2.923-5.786-5.848-11.569-8.776-17.345c15.252-106.393,0.657-217.994,51.815-318.113
		c-2.708-41.36,3.678-149.787,0.969-191.151c5.682,0,56.867,21.239,62.548,21.239c-10.973,38.02-75.663,121.62-28.74,143.138
		c1.474,11.688,2.947,23.39,4.439,35.097c-3.969,32.915,17.167,34.752,39.963,34.794c67.488,0.121,134.974,0.344,202.458,0.533
		C953.891,300.862,953.891,303.813,953.891,306.75z"/>
	<path fill-rule="evenodd" clip-rule="evenodd" fill="#FFFFFF" d="M711.446,262.584c-1.468-11.696-2.941-23.398-4.415-35.086
		c46.559-0.216,93.182,0.888,139.614-1.681c10.042-0.552,19.399-14.339,29.069-22.027c-3.039-3.612-6.079-7.233-9.12-10.845
		c29.102-6.208,41.677-1.076,51.395,14.992c14.81,24.486,22.834,16.107,32.646,41.909c-3.299,5.837-3.338,6.792-6.638,12.629
		c-38.825-0.028-77.652-0.053-116.476-0.086c-6.18-2.803-12.364-5.604-18.549-8.407c-2.7-2.267-5.405-4.534-8.106-6.801
		c-4.892,2.604-9.783,5.208-14.673,7.802c-15.313,2.646-30.622,5.294-45.934,7.941c-5.097,3.439-10.198,6.877-15.295,10.319
		C720.457,269.69,715.955,266.137,711.446,262.584z"/>
	<path fill-rule="evenodd" clip-rule="evenodd" fill="#FFFFFF" d="M50.512,244.955c40.167-29.328,79.069-60.855,121.158-86.859
		c16.07-9.931,8.243-7.336,28.284-10.371c-30.116,26.417-44.596,33.786-74.721,60.211c-41.052,27.604-56.814,80.927-57.176,135.763
		c0,0,1.762-0.482,1.75-0.491c-6.437-0.378-12.867-0.765-19.295-1.146C50.512,309.691,50.512,277.329,50.512,244.955z"/>
	<path fill-rule="evenodd" clip-rule="evenodd" fill="#F5F5F5" d="M988.787,333.435c-44.95-32.467-169.865-35.924-237.354-36.045
		c-22.796-0.042-43.932-1.88-39.963-34.794c4.484,3.542,8.986,7.095,13.494,10.646c5.097-3.441,10.198-6.88,15.295-10.319
		c15.312-2.647,30.62-5.295,45.926-7.941c8.427,34.467,22.708,33.958,41.336,7.407c38.823,0.033,108.193-36.815,123.113-12.543"/>
	<path fill-rule="evenodd" clip-rule="evenodd" fill="#F8F8F8" d="M683.715,66.133c16.021,3.563-14.169,146.779-11.456,188.139
		c-25.525-6.059-51.064-12.119-76.593-18.169c-19.825-2.942-39.654-5.881-59.482-8.83c-0.343-6.448-0.683-12.897-1.025-19.346
		c0.375-2.354,0.804-4.697,1.281-7.027c63.017,8.82,80.501-80.562,100.173-146.645C645.137,54.255,667.695,62.57,683.715,66.133z"/>
	<path fill-rule="evenodd" clip-rule="evenodd" fill="#E6E6E6" d="M631.215,54.255c36.604,5.74-33.04,162.493-96.056,153.672
		c-0.048-23.569-53.788-143.451-23.813-153.672C544.77,42.859,567.305,44.234,631.215,54.255z"/>
	<path fill-rule="evenodd" clip-rule="evenodd" fill="#BFBFBF" d="M550.299,43.112c0,0-13.908,134.218-13.859,157.789
		c-0.478,2.33-0.907,4.673-1.277,7.036c-16.607,3.75-33.22,7.484-49.831,11.217c-5.685-20.896-11.364-41.786-17.049-62.676
		c-0.242-2.657-0.495-5.302-0.758-7.956c0.197-6.106-15.85-96.191-15.653-102.305C474.596,46.216,550.299,43.112,550.299,43.112z"/>
	<path fill-rule="evenodd" clip-rule="evenodd" fill="#DDDDDD" d="M875.714,203.79c-9.67,7.688-19.027,21.475-29.069,22.027
		c-46.433,2.569-101.868,1.522-148.427,1.737c-46.923-21.518-26.721-73.725-17.046-97.364c17.046-41.644,36.12-53.252,54.599-45.83
		c124.222,49.896-34.79,81.263-29.604,97.697c3.525,11.154,13.844,28.544,21.098,28.525
		C776.75,210.489,826.234,206.513,875.714,203.79z"/>
	<path fill-rule="evenodd" clip-rule="evenodd" fill="#FFFFFF" d="M434.021,977.678c-11.369-35.301-22.743-70.613-34.109-105.918
		c22.722,23.535,45.445,47.082,68.167,70.617c0.013,11.766,0.021,23.535,0.034,35.301
		C456.748,977.678,445.385,977.678,434.021,977.678z"/>
	<path fill-rule="evenodd" clip-rule="evenodd" fill="#CECECE" d="M461.1,46.216c18.623,0,6.621,96.199,6.428,102.305
		c-14.043,2.67-28.097,5.353-42.153,8.042c-14.091,14.708-28.185,29.416-42.276,44.132c-11.398-17.656-22.792-35.31-34.184-52.97
		c2.798-5.845-3.736-80.921,8.78-80.921C370.21,66.804,442.477,46.216,461.1,46.216z"/>
	<path fill-rule="evenodd" clip-rule="evenodd" fill="#FFFFFF" d="M800.486,977.678c11.439-17.672,22.879-35.354,34.324-53.027"/>
	<path fill-rule="evenodd" clip-rule="evenodd" fill="#FFFFFF" d="M50.512,342.063c6.428,0.381,12.858,0.768,19.295,1.146
		c-0.45,17.202-0.915,34.399-1.376,51.597c-5.972,0.07-11.948,0.149-17.919,0.227C50.512,377.375,50.512,359.719,50.512,342.063z"/>
	<path fill-rule="evenodd" clip-rule="evenodd" fill="#D6D6D6" d="M357.695,377.608c11.285-14.724,22.57-29.45,33.857-44.173
		c11.41-5.933,22.827-11.856,34.239-17.785c11.631-0.166,23.266-0.32,34.9-0.482c17.744,24.886,2.381,31.905-18.168,36.129
		c-14.864,7.958-41.342,14.58-42.384,24.149c-2.961,27.33-20.997,62.055,16.409,81.813c-8.355,14.587-16.708,29.173-25.061,43.761
		c-6.31,10.811-12.62,21.623-25.394,43.51c0-29.234,2.066-45.373-1.176-60.259c-1.068-4.907-15.874-6.607-24.396-9.771l-0.549-0.076
		C345.877,442.146,351.785,409.875,357.695,377.608z"/>
	<path fill-rule="evenodd" clip-rule="evenodd" fill="#EFEFEF" d="M282.308,650.755c-6.13,18.459,7.111-40.921,7.597-52.155
		c2.581-3.122,5.169-6.232,7.757-9.352c28.393-8.856,56.791-17.709,85.184-26.561c0.17,9.102,0.338,18.216,0.509,27.319
		c-1.729,37.322,12.558,79.46-29.343,104.711c-5.18-0.009-10.366-0.017-15.548-0.017l0.348-1.147"/>
	<path fill-rule="evenodd" clip-rule="evenodd" fill="#C3C3C3" d="M425.795,315.649c-11.416,5.929-22.833,11.853-34.243,17.785
		c-7.62-22.701-15.24-45.401-26.268-78.248c-15.859,22.546-24.925,35.444-37.489,53.306c7.591-57.779,14.352-109.271,21.116-160.767
		c11.396,17.66,22.79,35.313,34.184,52.97C379.69,246.042,392.891,284.777,425.795,315.649z"/>
	<path fill-rule="evenodd" clip-rule="evenodd" fill="#C8C8C8" d="M357.695,377.608c-5.91,32.268-11.818,64.538-17.719,96.815
		c-14.045,0.085-28.098,0.171-42.146,0.249C295.906,399.367,295.906,399.367,357.695,377.608z"/>
	<path fill-rule="evenodd" clip-rule="evenodd" fill="#D2D2D2" d="M297.83,474.672c14.048-0.078,28.101-0.164,42.146-0.249
		c-0.004,0,0.545,0.076,0.541,0.076c-14.286,38.253-28.573,76.497-42.855,114.749c-2.588,3.12-5.176,6.23-7.757,9.352
		C292.548,557.298,295.191,515.985,297.83,474.672z"/>
	<path fill-rule="evenodd" clip-rule="evenodd" fill="#FFFFFF" d="M239.033,632.466c-0.718,2.799-1.151,5.655-1.297,8.552
		c-25.185-10.63-50.374-21.262-75.562-31.891c-5.871-18.191-11.747-36.38-17.619-54.572
		C176.048,580.531,207.539,606.499,239.033,632.466z"/>
	<path fill-rule="evenodd" clip-rule="evenodd" fill="#D8D8D8" d="M631.215,587.739c7.711-78.891,14.86-157.853,23.437-236.642
		c3.087-28.355,10.94-49.26,48.767-42.294c31.473,5.801,64.99-0.294,97.606-1.112c-26.051,8.759-51.568,21.199-78.285,25.313
		c-31.612,4.87-47.334,16.975-49.332,52.148c-4.032,71.089-11.655,141.964-17.8,212.924
		C647.478,594.628,639.347,591.185,631.215,587.739z"/>
	<path fill-rule="evenodd" clip-rule="evenodd" fill="#D2D2D2" d="M732.14,456.739c0.104-2.842,0.218-5.689,0.339-8.542
		c8.01,14.827,21.218,29.001,23.069,44.614c5.872,49.476,7.503,99.486,10.773,149.301c-2.509,8.165-5.018,16.336-7.528,24.519
		c-3.132,0.68-6.263,1.351-9.392,2.023c-3.499-25.534-7.003-51.07-10.502-76.598c-16.496,11.192-32.996,22.389-49.495,33.579
		c-3.134-2.87-6.263-5.748-9.396-8.628C719.735,571.385,735.632,517.451,732.14,456.739z"/>
	<path fill-rule="evenodd" clip-rule="evenodd" fill="#FBFBFB" d="M684.474,594.43"/>
	<path fill-rule="evenodd" clip-rule="evenodd" fill="#EEEEEE" d="M760.348,657.876c-24.481,13.588-228.285,48.187-261.051,51.937
		c-40.853,4.676-139.791-25.208-176.688-36.597c-60.747-18.749,87.109-90.246,175.15-100.885
		c21.955,1.543,94.104-4.742,133.457,8.813c39.353,13.555,132.639,76.737,132.644,76.732"/>
	<path fill-rule="evenodd" clip-rule="evenodd" fill="#FBFBFB" d="M723.166,621.175c19.997,14.336,77.609,50.178,26.236,47.479
		c3.129-0.672,6.26-1.343,9.392-2.023c2.744,0.627,33.328-16.913,35.95-15.876c-19.97,5.887-67.841,30.159-87.815,36.049
		c-3.321-9.614-4.021-22.605-10.572-28.064c-10.242-8.544-24.447-11.99-36.976-17.595c-0.505,14.63-2.47,29.45-0.68,43.77"/>
	<path fill-rule="evenodd" clip-rule="evenodd" fill="#CACACA" d="M766.322,642.112c-3.271-49.814-4.901-99.825-10.773-149.301
		c-1.852-15.613-15.06-29.788-23.069-44.614c3.582-16.395,7.159-32.802,10.744-49.208c5.193,0.121,10.392,0.241,15.585,0.361
		C762.211,480.199,786.501,559.366,766.322,642.112z"/>
	<path fill-rule="evenodd" clip-rule="evenodd" fill="#CACACA" d="M684.474,600.525c-2.745-2.758-9.956,10.973-12.701,8.222
		c10.822-26.672,21.798-53.313,32.44-80.079c9.497-23.897,18.637-47.942,27.927-71.929
		C735.632,517.451,749.402,578.792,684.474,600.525z"/>
	<path fill-rule="evenodd" clip-rule="evenodd" fill="#FFFFFF" d="M785.186,678.087c-3.708-3.663-7.412-7.329-11.119-10.993
		c37.007-22.533,74.01-45.06,111.017-67.598c-8.514,13.51-17.027,27.019-25.543,40.538c-19.586,10.442-39.179,20.881-58.766,31.319
		C795.579,673.605,790.383,675.845,785.186,678.087z"/>
	<path fill-rule="evenodd" clip-rule="evenodd" fill="#F3F3F3" d="M502.202,721.684c25.567,5.896,51.13,11.793,76.697,17.691
		c1.461,10.113,4.724,20.354,4.061,30.313c-2.613,39.457-32.42,67.779-67.575,63.34c-41.538-5.242-34.848-38.936-34.574-67.809
		c0.083-8.68,2.768-17.344,4.261-26.018c0.222-5.361,0.447-10.715,0.672-16.078C491.229,722.641,496.718,722.158,502.202,721.684z"
		/>
	<path fill-rule="evenodd" clip-rule="evenodd" fill="#F8F8F8" d="M485.069,739.201c-1.489,8.674-4.174,17.338-4.257,26.018
		c-0.274,28.873-6.964,62.566,34.574,67.809c35.154,4.439,64.961-23.883,67.575-63.34c0.663-9.959-2.6-20.199-4.061-30.313
		c37.141,22.492,12.988,52.105,8.598,79.418c-4.158,7.551-7.392,15.889-12.659,22.482c-12.917,16.182-25.006,42.191-40.628,44.979
		c-29.249,5.205-53.207-13.227-60.885-46.789c-0.953-4.152-3.432-7.922-5.201-11.871
		C471.92,797.748,451.642,762.945,485.069,739.201z"/>
	<path fill-rule="evenodd" clip-rule="evenodd" fill="#FFFFFF" d="M852.099,801.223"/>
	<path fill-rule="evenodd" clip-rule="evenodd" fill="#FCFCFC" d="M851.53,733.301c-11.601-13.942-39.147-48.005-50.755-61.948
		c19.587-10.438,85.689-61.414,105.274-71.857C898.065,623.878,859.516,708.918,851.53,733.301z"/>
	<path fill-rule="evenodd" clip-rule="evenodd" fill="#FFFFFF" d="M595.661,236.103c25.534,6.051,51.073,12.111,76.599,18.169
		c-51.163,100.119-36.568,211.72-51.809,318.113c-5.374-3.164-10.748-6.311-16.127-9.466c-6.945-42.105-9.941-85.598-22.977-125.577
		c-4.525-13.869-33.674-24.853-52.085-25.732c-9.313-0.449-19.867,24.477-29.662,38.079c-6.517,9.052-10.782,22.925-19.346,26.769
		c-33.553,15.062-42.451,44.054-46.394,77.142c-5.717,5.691-11.436,11.38-17.149,17.068c-2.751,0.373-5.51,0.672-8.277,0.922
		c25.58-55.898,51.16-111.796,76.74-167.695l0.004-0.011c17.449-5.913,34.61-13.076,52.4-17.517
		c66.014-16.483,66.093-16.149,66.782-88.392C601.458,277.354,598.563,256.722,595.661,236.103z"/>
	<path fill-rule="evenodd" clip-rule="evenodd" fill="#FFFFFF" d="M809.534,253.465l-0.562,0.516
		c6.185,2.803,12.369,5.604,18.549,8.407c-18.628,26.551-32.909,27.061-41.336-7.407c4.897-2.594,9.789-5.198,14.681-7.802"/>
	<path fill-rule="evenodd" clip-rule="evenodd" fill="#FFFFFF" d="M740.259,262.923c-5.097,3.439-10.198,6.877-15.295,10.319
		C730.061,269.8,735.163,266.362,740.259,262.923z"/>
	<path fill-rule="evenodd" clip-rule="evenodd" fill="#ECECEC" d="M442.523,351.304c20.549-4.232,35.912-11.251,18.158-36.129
		c8.209-32.001,16.427-64.013,24.651-96.022c16.611-3.732,33.224-7.467,49.831-11.217c0.338,6.44,0.678,12.889,1.021,19.337
		c-12.906,54.71-7.358,63.899,42.649,70.71c18.459,34.753,10.034,49.891-29.698,51.613c-31.657,1.382-63.102,10.475-63.958,54.287
		l-0.004,0.011c-22.712,14.732-45.425,29.466-68.143,44.199C425.528,415.835,434.026,383.565,442.523,351.304z"/>
	<path fill-rule="evenodd" clip-rule="evenodd" fill="#F9F9F9" d="M578.833,297.984c-50.007-6.812-55.555-16-42.649-70.71
		c19.828,2.948,39.657,5.888,59.482,8.83c2.896,20.619,5.791,41.25,8.697,61.873C595.852,297.976,587.342,297.984,578.833,297.984z"
		/>
	<path fill-rule="evenodd" clip-rule="evenodd" fill="#E4E4E4" d="M425.375,156.563c14.057-2.689,28.11-5.372,42.153-8.042
		c0.259,2.653,0.513,5.299,0.754,7.956c-0.741,30.692-0.055,61.527-3.087,91.97c-0.917,9.189-11.053,22.432-18.997,24.243
		c-6.417,1.467-17.81-10.007-23.671-18.268C399.19,221.515,406.205,188.634,425.375,156.563z"/>
	<path fill-rule="evenodd" clip-rule="evenodd" fill="#D8D8D8" d="M425.375,156.563c-19.17,32.071-26.185,64.952-2.848,97.858
		c5.861,8.261,17.254,19.735,23.671,18.268c7.944-1.811,18.08-15.054,18.997-24.243c3.032-30.443,2.346-61.278,3.087-91.97
		c5.686,20.891,11.365,41.78,17.049,62.676c-8.224,32.01-16.442,64.021-24.651,96.022c-11.624,0.154-23.258,0.309-34.89,0.474
		c-32.9-30.873-46.101-69.607-42.696-114.955C397.19,185.979,411.284,171.271,425.375,156.563z"/>
	<path fill-rule="evenodd" clip-rule="evenodd" fill="#E1E1E1" d="M297.662,589.248c14.282-38.252,28.569-76.496,42.855-114.749
		c8.526,3.164,23.332,4.864,24.4,9.771c3.243,14.886,1.176,31.024,1.176,60.259c12.774-21.888,19.084-32.699,25.39-43.51
		c-2.879,20.552-5.758,41.114-8.638,61.668C354.453,571.539,326.055,580.392,297.662,589.248z"/>
	<path fill-rule="evenodd" clip-rule="evenodd" fill="#F5F5F5" d="M382.846,562.687c2.88-20.555,5.759-41.116,8.638-61.668
		c8.357-14.587,16.71-29.173,25.071-43.761c0.162-3.06,0.319-6.112,0.476-9.164c22.718-14.733,45.431-29.467,68.143-44.199
		c-25.58,55.898-51.16,111.796-76.74,167.695c-8.358,6.142-16.719,12.279-25.079,18.416
		C383.184,580.903,383.016,571.789,382.846,562.687z"/>
	<path fill-rule="evenodd" clip-rule="evenodd" fill="#E9E9E9" d="M417.03,448.094c-0.157,3.052-0.314,6.104-0.476,9.164
		c-37.412-19.758-19.376-54.483-16.415-81.813c1.042-9.569,27.52-16.191,42.384-24.149
		C434.026,383.565,425.528,415.835,417.03,448.094z"/>
	<path fill-rule="evenodd" clip-rule="evenodd" fill="#E1E1E1" d="M749.402,668.655c-20-14.343-42.474-54.904-42.474-54.904
		s15.476-10.502,31.972-21.694C742.399,617.584,745.903,643.121,749.402,668.655z"/>
	<path fill-rule="evenodd" clip-rule="evenodd" fill="#ECECEC" d="M658.701,684.916c-1.79-14.32,0.175-29.14,0.68-43.77
		c12.528,5.604,26.733,9.051,36.976,17.595c6.552,5.459,7.251,18.45,10.572,28.064"/>
	<path fill-rule="evenodd" clip-rule="evenodd" fill="#FFFFFF" d="M604.324,562.919c-8.829-21.882-15.824-44.838-27.075-65.288
		c-8.686-15.786-22.707-28.414-34.353-42.442c-10.536,13.638-28.86,26.493-30.219,41.055c-5.041,53.864-49.763,42.88-78.816,57.355
		c3.943-33.088,12.841-62.08,46.394-77.142c8.564-3.844,12.829-17.717,19.346-26.769c9.795-13.602,20.349-38.527,29.662-38.079
		c18.411,0.879,47.56,11.864,52.085,25.732C594.382,477.321,597.379,520.813,604.324,562.919z"/>
	<path fill-rule="evenodd" clip-rule="evenodd" fill="#F5F5F5" d="M578.833,297.984c8.509,0,17.019-0.008,25.53-0.008
		c-0.692,72.243-0.771,71.909-66.786,88.392c-17.791,4.44-34.952,11.604-52.4,17.517c0.856-43.812,32.301-52.905,63.958-54.287
		C588.867,347.875,597.292,332.737,578.833,297.984z"/>
</g>
<path fill="none" stroke="#FFFFFF" stroke-width="6" stroke-miterlimit="10" d="M229.613,645.815"/>
<path fill="none" stroke="#FFFFFF" stroke-width="6" stroke-miterlimit="10" d="M828.764,637.241"/>
<line opacity="0.1" fill="none" stroke="#FFFFFF" stroke-width="6" stroke-miterlimit="10" x1="788.937" y1="871.76" x2="984.583" y2="474.672"/>
<line opacity="0.1" fill="none" stroke="#FFFFFF" stroke-width="6" stroke-miterlimit="10" x1="242.209" y1="809.102" x2="92.385" y2="476.318"/>
<g id="Layer_2">
</g>
<line fill="none" x1="242.209" y1="809.102" x2="314.528" y2="933.789"/>
<path opacity="0.9" fill="none" stroke="#FFFFFF" stroke-width="6" stroke-miterlimit="10" d="M777.02,663.971
	c-54.199-55.302-144.199-96.416-246.047-96.416c-103.511,0-194.774,42.3-248.665,99.13"/>
<path opacity="0.9" fill="none" stroke="#000000" stroke-miterlimit="10" d="M530.973,561.46
	c-107.366,0-184.769,35.19-242.512,96.083"/>
<path opacity="0.9" fill="none" stroke="#000000" stroke-miterlimit="10" d="M777.02,657.876
	c-58.181-59.365-140.216-96.416-246.047-96.416"/>
<path opacity="0.9" fill="none" stroke="#FFFFFF" stroke-width="6" stroke-miterlimit="10" d="M999.443,394.805
	c0,187.022-234.506,323.23-481.303,323.23S71.275,566.425,71.275,379.403c0-187.021,200.068-338.631,446.865-338.631
	S999.443,207.786,999.443,394.805z"/>
<path fill="none" stroke="#171717" stroke-width="3" stroke-miterlimit="10" d="M119.905,509.46
	c-23.475-40.84-36.496-85.938-36.496-133.345c0-184.298,196.782-333.699,439.526-333.699c242.743,0,473.396,164.582,473.396,348.877
	c0,32.693-10.258,69.811-23.555,98.882"/>
<path fill="#EDEDED" stroke="#171717" stroke-width="3" stroke-miterlimit="10" d="M125.232,516.946l172.43,367.613l2,3
	c30.271,49.281,112.176,89.516,241.639,89.516c128.035,0,184.863-32.697,217.047-67.08l2-2L973.474,489.95l-1.555,2.265
	c-65.47,130.37-253.298,217.597-448.984,217.597c-180.302,0-335.247-82.425-403.03-200.353"/>
</svg>
