<?xml version="1.0" encoding="utf-8"?>
<!-- Generator: Adobe Illustrator 15.1.0, SVG Export Plug-In . SVG Version: 6.00 Build 0)  -->
<!DOCTYPE svg PUBLIC "-//W3C//DTD SVG 1.1//EN" "http://www.w3.org/Graphics/SVG/1.1/DTD/svg11.dtd">
<svg version="1.1" id="Layer_1" xmlns="http://www.w3.org/2000/svg" xmlns:xlink="http://www.w3.org/1999/xlink" x="0px" y="0px"
	 width="325.984px" height="327.113px" viewBox="0 0 325.984 327.113" enable-background="new 0 0 325.984 327.113"
	 xml:space="preserve">
<g>
	<path d="M85.032,244.188c-4.94,0-9.879,0-14.818,0c-0.884,0-0.884,1.58,0,1.58c4.939,0,9.878,0,14.818,0
		C85.916,245.768,85.916,244.188,85.032,244.188z"/>
	<path d="M85.032,239.759c-4.94,0-9.879,0-14.818,0c-0.884,0-0.884,1.58,0,1.58c4.939,0,9.878,0,14.818,0
		C85.916,241.339,85.916,239.759,85.032,239.759z"/>
	<path d="M70.196,236.907c4.938,0,9.877,0,14.816,0c0.884,0,0.884-1.58,0-1.58c-4.939,0-9.878,0-14.816,0
		C69.312,235.327,69.312,236.907,70.196,236.907z"/>
	<path d="M70.196,232.48c4.938,0,9.877,0,14.816,0c0.884,0,0.884-1.581,0-1.581c-4.939,0-9.878,0-14.816,0
		C69.312,230.899,69.312,232.48,70.196,232.48z"/>
	<path d="M67.189,227.997c6.835,0,13.671,0,20.507,0c0.884,0,0.884-1.58,0-1.58c-6.836,0-13.672,0-20.507,0
		C66.305,226.417,66.305,227.997,67.189,227.997z"/>
	<path d="M85.096,221.898c-4.938,0-9.877,0-14.814,0c-0.884,0-0.884,1.581,0,1.581c4.938,0,9.876,0,14.814,0
		C85.98,223.479,85.98,221.898,85.096,221.898z"/>
	<path d="M85.096,217.471c-4.938,0-9.877,0-14.814,0c-0.884,0-0.884,1.58,0,1.58c4.938,0,9.876,0,14.814,0
		C85.98,219.051,85.98,217.471,85.096,217.471z"/>
	<path d="M70.259,214.617c4.94,0,9.879,0,14.818,0c0.884,0,0.884-1.58,0-1.58c-4.939,0-9.878,0-14.818,0
		C69.375,213.037,69.375,214.617,70.259,214.617z"/>
	<path d="M70.259,210.192c4.94,0,9.879,0,14.818,0c0.884,0,0.884-1.58,0-1.58c-4.939,0-9.878,0-14.818,0
		C69.375,208.612,69.375,210.192,70.259,210.192z"/>
	<path d="M87.761,204.127c-6.835,0-13.671,0-20.507,0c-0.884,0-0.884,1.581,0,1.581c6.836,0,13.672,0,20.507,0
		C88.645,205.708,88.645,204.127,87.761,204.127z"/>
	<path d="M70.266,201.196c4.939,0,9.878,0,14.815,0c0.884,0,0.884-1.581,0-1.581c-4.938,0-9.876,0-14.815,0
		C69.383,199.615,69.383,201.196,70.266,201.196z"/>
	<path d="M70.247,196.771c4.939,0,9.878,0,14.816,0c0.884,0,0.884-1.58,0-1.58c-4.938,0-9.877,0-14.816,0
		C69.363,195.191,69.363,196.771,70.247,196.771z"/>
	<path d="M70.247,192.34c4.939,0,9.878,0,14.816,0c0.884,0,0.884-1.58,0-1.58c-4.938,0-9.877,0-14.816,0
		C69.363,190.76,69.363,192.34,70.247,192.34z"/>
	<path d="M67.236,187.85c6.837,0,13.673,0,20.51,0c0.884,0,0.884-1.58,0-1.58c-6.836,0-13.672,0-20.51,0
		C66.352,186.27,66.352,187.85,67.236,187.85z"/>
	<path d="M85.127,181.847c-4.939,0-9.878,0-14.816,0c-0.884,0-0.884,1.581,0,1.581c4.938,0,9.877,0,14.816,0
		C86.011,183.428,86.011,181.847,85.127,181.847z"/>
	<path d="M85.127,177.418c-4.939,0-9.878,0-14.816,0c-0.884,0-0.884,1.58,0,1.58c4.938,0,9.877,0,14.816,0
		C86.011,178.999,86.011,177.418,85.127,177.418z"/>
	<path d="M70.29,174.574c4.938,0,9.877,0,14.816,0c0.884,0,0.884-1.58,0-1.58c-4.938,0-9.877,0-14.816,0
		C69.406,172.994,69.406,174.574,70.29,174.574z"/>
	<path d="M70.29,170.145c4.938,0,9.877,0,14.816,0c0.884,0,0.884-1.581,0-1.581c-4.938,0-9.877,0-14.816,0
		C69.406,168.564,69.406,170.145,70.29,170.145z"/>
	<path d="M87.792,164.08c-6.837,0-13.673,0-20.51,0c-0.884,0-0.884,1.58,0,1.58c6.837,0,13.673,0,20.51,0
		C88.676,165.66,88.676,164.08,87.792,164.08z"/>
	<path d="M85.167,159.739c-4.939,0-9.877,0-14.816,0c-0.884,0-0.884,1.581,0,1.581c4.939,0,9.877,0,14.816,0
		C86.051,161.32,86.051,159.739,85.167,159.739z"/>
	<path d="M85.167,155.221c-4.939,0-9.877,0-14.816,0c-0.884,0-0.884,1.581,0,1.581c4.939,0,9.877,0,14.816,0
		C86.051,156.802,86.051,155.221,85.167,155.221z"/>
	<path d="M70.329,152.373c4.938,0,9.875,0,14.813,0c0.884,0,0.884-1.58,0-1.58c-4.938,0-9.875,0-14.813,0
		C69.446,150.793,69.446,152.373,70.329,152.373z"/>
	<path d="M70.329,147.947c4.938,0,9.875,0,14.813,0c0.884,0,0.884-1.581,0-1.581c-4.938,0-9.875,0-14.813,0
		C69.446,146.366,69.446,147.947,70.329,147.947z"/>
	<path d="M87.832,141.876c-6.836,0-13.672,0-20.51,0c-0.884,0-0.884,1.581,0,1.581c6.837,0,13.673,0,20.51,0
		C88.716,143.457,88.716,141.876,87.832,141.876z"/>
	<path d="M85.121,137.373c-4.938,0-9.877,0-14.816,0c-0.884,0-0.884,1.581,0,1.581c0.528,0,1.056,0,1.583,0
		c0.073,0.031,0.15,0.057,0.242,0.057c3.732,0,7.465,0,11.198,0c0.019,0,0.031-0.01,0.048-0.012c0.021,0,0.041,0,0.062,0
		c0.073,0,0.131-0.024,0.193-0.045c0.497,0,0.993,0,1.49,0C86.005,138.953,86.005,137.373,85.121,137.373z"/>
	<path d="M85.121,132.944c-4.938,0-9.877,0-14.816,0c-0.884,0-0.884,1.58,0,1.58c4.939,0,9.878,0,14.816,0
		C86.005,134.524,86.005,132.944,85.121,132.944z"/>
	<path d="M70.285,130.098c4.937,0,9.875,0,14.812,0c0.884,0,0.884-1.581,0-1.581c-4.937,0-9.876,0-14.812,0
		C69.401,128.518,69.401,130.098,70.285,130.098z"/>
	<path d="M70.285,125.667c4.937,0,9.875,0,14.812,0c0.884,0,0.884-1.58,0-1.58c-4.937,0-9.876,0-14.812,0
		C69.401,124.087,69.401,125.667,70.285,125.667z"/>
	<path d="M67.273,121.181c6.837,0,13.673,0,20.511,0c0.884,0,0.884-1.581,0-1.581c-6.837,0-13.673,0-20.511,0
		C66.389,119.6,66.389,121.181,67.273,121.181z"/>
	<path d="M85.135,115.233c-4.939,0-9.878,0-14.817,0c-0.884,0-0.884,1.581,0,1.581c4.939,0,9.878,0,14.817,0
		C86.018,116.814,86.018,115.233,85.135,115.233z"/>
	<path d="M85.135,110.805c-4.939,0-9.878,0-14.817,0c-0.884,0-0.884,1.581,0,1.581c4.939,0,9.878,0,14.817,0
		C86.018,112.385,86.018,110.805,85.135,110.805z"/>
	<path d="M70.298,107.956c4.939,0,9.878,0,14.817,0c0.884,0,0.884-1.58,0-1.58c-4.939,0-9.878,0-14.817,0
		C69.414,106.375,69.414,107.956,70.298,107.956z"/>
	<path d="M70.298,103.528c4.939,0,9.878,0,14.817,0c0.884,0,0.884-1.581,0-1.581c-4.939,0-9.878,0-14.817,0
		C69.414,101.948,69.414,103.528,70.298,103.528z"/>
	<path d="M67.291,99.041c6.836,0,13.672,0,20.507,0c0.884,0,0.884-1.58,0-1.58c-6.835,0-13.671,0-20.507,0
		C66.407,97.461,66.407,99.041,67.291,99.041z"/>
	<path d="M85.207,93.106c-4.94,0-9.878,0-14.818,0c-0.884,0-0.884,1.581,0,1.581c0.561,0,1.123,0,1.682,0
		c0.046,0.01,0.084,0.032,0.137,0.032c3.733,0,7.466,0,11.199,0c0.052,0,0.09-0.021,0.137-0.032c0.554,0,1.109,0,1.664,0
		C86.091,94.687,86.091,93.106,85.207,93.106z"/>
	<path d="M85.207,88.678c-4.94,0-9.878,0-14.818,0c-0.884,0-0.884,1.581,0,1.581c4.94,0,9.878,0,14.818,0
		C86.091,90.258,86.091,88.678,85.207,88.678z"/>
	<path d="M70.368,85.831c4.938,0,9.877,0,14.816,0c0.884,0,0.884-1.581,0-1.581c-4.939,0-9.878,0-14.816,0
		C69.485,84.25,69.485,85.831,70.368,85.831z"/>
	<path d="M70.368,81.403c4.938,0,9.877,0,14.816,0c0.884,0,0.884-1.58,0-1.58c-4.939,0-9.878,0-14.816,0
		C69.485,79.823,69.485,81.403,70.368,81.403z"/>
	<path d="M87.868,75.334c-6.835,0-13.671,0-20.507,0c-0.884,0-0.884,1.581,0,1.581c6.836,0,13.672,0,20.507,0
		C88.752,76.915,88.752,75.334,87.868,75.334z"/>
	<path d="M85.106,70.995c-4.938,0-9.877,0-14.816,0c-0.884,0-0.884,1.58,0,1.58c4.938,0,9.877,0,14.816,0
		C85.99,72.575,85.99,70.995,85.106,70.995z"/>
	<path d="M85.106,66.568c-4.938,0-9.877,0-14.816,0c-0.884,0-0.884,1.581,0,1.581c4.938,0,9.877,0,14.816,0
		C85.99,68.149,85.99,66.568,85.106,66.568z"/>
	<path d="M70.272,63.719c4.938,0,9.876,0,14.814,0c0.884,0,0.884-1.58,0-1.58c-4.938,0-9.876,0-14.814,0
		C69.387,62.139,69.387,63.719,70.272,63.719z"/>
	<path d="M70.272,59.292c4.938,0,9.876,0,14.814,0c0.884,0,0.884-1.581,0-1.581c-4.938,0-9.876,0-14.814,0
		C69.387,57.711,69.387,59.292,70.272,59.292z"/>
	<path d="M62.633,54.803c10.687,0,21.374,0,32.061,0c0.884,0,0.884-1.581,0-1.581c-10.688,0-21.374,0-32.061,0
		C61.749,53.222,61.749,54.803,62.633,54.803z"/>
	<path d="M85.061,266.276c-4.94,0-9.879,0-14.817,0c-0.884,0-0.884,1.58,0,1.58c0.529,0,1.059,0,1.588,0
		c0.071,0.03,0.146,0.056,0.237,0.056c3.733,0,7.466,0,11.198,0c0.019,0,0.031-0.011,0.048-0.012c0.021,0,0.043,0,0.063,0
		c0.072,0,0.129-0.024,0.189-0.044c0.498,0,0.995,0,1.493,0C85.945,267.856,85.945,266.276,85.061,266.276z"/>
	<path d="M85.061,261.844c-4.94,0-9.879,0-14.817,0c-0.884,0-0.884,1.58,0,1.58c4.938,0,9.877,0,14.817,0
		C85.945,263.424,85.945,261.844,85.061,261.844z"/>
	<path d="M70.224,258.995c4.938,0,9.876,0,14.814,0c0.884,0,0.884-1.58,0-1.58c-4.938,0-9.877,0-14.814,0
		C69.341,257.415,69.341,258.995,70.224,258.995z"/>
	<path d="M70.224,254.569c4.938,0,9.876,0,14.814,0c0.884,0,0.884-1.581,0-1.581c-4.938,0-9.877,0-14.814,0
		C69.341,252.988,69.341,254.569,70.224,254.569z"/>
	<path d="M87.726,248.503c-6.837,0-13.673,0-20.511,0c-0.884,0-0.884,1.58,0,1.58c6.837,0,13.673,0,20.511,0
		C88.61,250.083,88.61,248.503,87.726,248.503z"/>
	<path d="M150.18,299.128c-0.001-0.005-0.001-0.01-0.002-0.013c-0.07-0.194-0.206-0.358-0.43-0.422
		c-7.095-2.029-14.185-4.284-21.015-7.091c-6.021-2.474-16.811-5.894-19.134-12.772c0.002-0.017,0.008-0.03,0.008-0.046
		c0.008-0.181-0.039-0.316-0.105-0.431c0-31.32,0-62.64,0-93.96c0-46.908,0-93.816,0-140.723c0-7.348,0-14.694,0-22.042
		c0-0.383-0.198-0.616-0.441-0.706c-0.1-0.079-0.218-0.139-0.373-0.139c-20.639,0-41.279,0-61.919,0
		c-0.674,0-0.83,0.915-0.476,1.352c-0.021,0.339,0.116,0.685,0.476,0.783c6.573,1.783,6.545,7.982,6.52,13.558
		c-0.03,6.707-0.025,13.414-0.019,20.121c0.008,9.81,0.062,19.619,0.062,29.428c0,18.462,0,36.923,0,55.385
		c0,38.238,0,76.475,0,114.714c0,7.348,0,14.696,0,22.043c-1.77,7.154-12.664,10.686-18.745,13.184
		c-6.879,2.827-13.985,5.153-21.134,7.196c-0.117-0.026-0.232-0.052-0.35-0.078c-0.486-0.107-0.851,0.288-0.851,0.763
		c0,2.07,0,4.142,0,6.212c0,0.031,0.011,0.053,0.015,0.083c0.001,0.019,0.007,0.035,0.009,0.053c0.012,0.078,0.022,0.154,0.05,0.217
		c0.071,0.187,0.206,0.342,0.419,0.409c9.927,3.131,19.917,6.066,29.869,9.112c0.047,0.015,0.086-0.001,0.13,0.002
		c0.019,0.002,0.031,0.013,0.049,0.013c25.484,0,50.969,0,76.453,0c0.154,0.178,0.375,0.283,0.634,0.203
		c9.957-3.073,19.907-6.166,29.87-9.218c0.217-0.066,0.352-0.225,0.421-0.414c0.021-0.049,0.028-0.109,0.04-0.167
		c0.006-0.035,0.016-0.066,0.018-0.102c0.002-0.029,0.014-0.05,0.014-0.079c0-2.035,0-4.071,0-6.106
		c0-0.023-0.011-0.043-0.014-0.065C150.228,299.295,150.209,299.21,150.18,299.128z M49.55,22.365c19.537,0,39.074,0,58.609,0
		c0,31.105,0,62.209,0,93.314c0,46.909,0,93.816,0,140.723c0,7.192,0,14.383,0,21.575c-0.096,0.162-0.137,0.368-0.078,0.604
		c0.033,0.133,0.086,0.255,0.125,0.386c-0.6,1.717-8.24,2.323-9.257,2.449c-5.766,0.71-11.61,0.87-17.416,0.873
		c-5.607,0.003-11.231-0.23-16.804-0.865c-1.229-0.14-9.875-0.786-9.997-2.896c-0.005-0.089-0.031-0.162-0.056-0.235
		c0-39.022,0-78.045,0-117.068c0-30.533,0.021-61.067-0.042-91.602c-0.021-10.383-0.039-20.766-0.008-31.148
		C54.643,32.475,55.17,25.43,49.55,22.365z M42.122,306.609c0,0.959,0,1.919,0,2.878c0,1.351,0,2.699,0,4.049
		c-9.508-2.902-19.044-5.717-28.526-8.7c0-1.55,0-3.101,0-4.65c6.364,1.424,12.727,2.84,19.09,4.26
		c2.993,0.667,5.984,1.344,8.978,2.005c0.226,0.051,0.364,0.038,0.458,0.005C42.122,306.506,42.122,306.558,42.122,306.609z
		 M118.811,313.753c-25.116,0-50.23,0-75.345,0c0-2.357,0-4.715,0-7.072c25.115,0,50.229,0,75.345,0
		C118.811,309.039,118.811,311.396,118.811,313.753z M119.777,305.184c-0.086-0.05-0.185-0.083-0.294-0.083
		c-25.556,0-51.111,0-76.666,0c-8.752-1.935-17.497-3.896-26.241-5.855c6.904-2.073,13.706-4.453,20.377-7.194
		c5.79-2.378,14.482-5.71,17.148-11.936c1.547,1.653,5.214,2.058,6.907,2.358c6.74,1.195,13.697,1.372,20.525,1.397
		c6.639,0.022,13.386-0.18,19.953-1.222c1.642-0.261,5.572-0.59,7.29-2.189c2.841,6.003,11.299,9.255,16.982,11.591
		c6.772,2.783,13.678,5.182,20.689,7.283C137.558,301.29,128.666,303.227,119.777,305.184z M148.9,304.947
		c-9.515,2.916-19.018,5.868-28.525,8.802c0-1.122,0-2.243,0-3.365c0-1.09,0-2.179,0-3.269c0-0.219,0.004-0.355,0.009-0.461
		c3.024-0.667,6.05-1.328,9.074-1.991c6.482-1.419,12.962-2.835,19.441-4.263C148.9,301.916,148.9,303.431,148.9,304.947z"/>
	<path d="M181.797,236.093c-3.654,0-7.308,0-10.962,0c-0.884,0-0.884,1.58,0,1.58c3.654,0,7.308,0,10.962,0
		C182.679,237.673,182.679,236.093,181.797,236.093z"/>
	<path d="M181.797,232.756c-3.654,0-7.308,0-10.962,0c-0.884,0-0.884,1.581,0,1.581c3.654,0,7.308,0,10.962,0
		C182.679,234.337,182.679,232.756,181.797,232.756z"/>
	<path d="M170.818,230.998c3.655,0,7.31,0,10.964,0c0.884,0,0.884-1.581,0-1.581c-3.654,0-7.309,0-10.964,0
		C169.935,229.417,169.935,230.998,170.818,230.998z"/>
	<path d="M170.818,227.654c3.655,0,7.31,0,10.964,0c0.884,0,0.884-1.58,0-1.58c-3.654,0-7.309,0-10.964,0
		C169.935,226.074,169.935,227.654,170.818,227.654z"/>
	<path d="M168.594,224.272c5.057,0,10.113,0,15.171,0c0.884,0,0.884-1.58,0-1.58c-5.058,0-10.114,0-15.171,0
		C167.709,222.692,167.709,224.272,168.594,224.272z"/>
	<path d="M181.844,219.283c-3.653,0-7.307,0-10.96,0c-0.884,0-0.884,1.58,0,1.58c3.653,0,7.307,0,10.96,0
		C182.727,220.863,182.727,219.283,181.844,219.283z"/>
	<path d="M181.844,215.943c-3.653,0-7.307,0-10.96,0c-0.884,0-0.884,1.58,0,1.58c3.653,0,7.307,0,10.96,0
		C182.727,217.523,182.727,215.943,181.844,215.943z"/>
	<path d="M170.866,214.181c3.654,0,7.308,0,10.962,0c0.884,0,0.884-1.58,0-1.58c-3.654,0-7.308,0-10.962,0
		C169.982,212.601,169.982,214.181,170.866,214.181z"/>
	<path d="M170.866,210.839c3.654,0,7.308,0,10.962,0c0.884,0,0.884-1.58,0-1.58c-3.654,0-7.308,0-10.962,0
		C169.982,209.259,169.982,210.839,170.866,210.839z"/>
	<path d="M183.812,205.877c-5.057,0-10.112,0-15.17,0c-0.884,0-0.884,1.58,0,1.58c5.058,0,10.113,0,15.17,0
		C184.696,207.458,184.696,205.877,183.812,205.877z"/>
	<path d="M170.869,204.06c3.654,0,7.31,0,10.964,0c0.884,0,0.884-1.58,0-1.58c-3.654,0-7.31,0-10.964,0
		C169.985,202.48,169.985,204.06,170.869,204.06z"/>
	<path d="M170.857,200.716c3.653,0,7.308,0,10.961,0c0.884,0,0.884-1.581,0-1.581c-3.653,0-7.308,0-10.961,0
		C169.974,199.135,169.974,200.716,170.857,200.716z"/>
	<path d="M170.857,197.379c3.653,0,7.308,0,10.961,0c0.884,0,0.884-1.581,0-1.581c-3.653,0-7.308,0-10.961,0
		C169.974,195.798,169.974,197.379,170.857,197.379z"/>
	<path d="M168.631,193.995c5.057,0,10.112,0,15.17,0c0.884,0,0.884-1.58,0-1.58c-5.058,0-10.113,0-15.17,0
		C167.746,192.415,167.746,193.995,168.631,193.995z"/>
	<path d="M181.863,189.078c-3.652,0-7.306,0-10.958,0c-0.884,0-0.884,1.581,0,1.581c3.652,0,7.306,0,10.958,0
		C182.747,190.659,182.747,189.078,181.863,189.078z"/>
	<path d="M181.863,185.74c-3.652,0-7.306,0-10.958,0c-0.884,0-0.884,1.581,0,1.581c3.652,0,7.306,0,10.958,0
		C182.747,187.321,182.747,185.74,181.863,185.74z"/>
	<path d="M170.889,183.976c3.654,0,7.308,0,10.961,0c0.884,0,0.884-1.58,0-1.58c-3.653,0-7.307,0-10.961,0
		C170.006,182.396,170.006,183.976,170.889,183.976z"/>
	<path d="M170.889,180.637c3.654,0,7.308,0,10.961,0c0.884,0,0.884-1.58,0-1.58c-3.653,0-7.307,0-10.961,0
		C170.006,179.057,170.006,180.637,170.889,180.637z"/>
	<path d="M183.835,175.672c-5.058,0-10.114,0-15.172,0c-0.884,0-0.884,1.58,0,1.58c5.058,0,10.114,0,15.172,0
		C184.719,177.252,184.719,175.672,183.835,175.672z"/>
	<path d="M181.894,172.404c-3.654,0-7.308,0-10.961,0c-0.885,0-0.885,1.581,0,1.581c3.653,0,7.307,0,10.961,0
		C182.778,173.985,182.778,172.404,181.894,172.404z"/>
	<path d="M181.894,168.991c-3.654,0-7.308,0-10.961,0c-0.885,0-0.885,1.58,0,1.58c3.653,0,7.307,0,10.961,0
		C182.778,170.571,182.778,168.991,181.894,168.991z"/>
	<path d="M170.917,167.234c3.655,0,7.31,0,10.966,0c0.884,0,0.884-1.58,0-1.58c-3.656,0-7.311,0-10.966,0
		C170.033,165.654,170.033,167.234,170.917,167.234z"/>
	<path d="M170.917,163.894c3.655,0,7.31,0,10.966,0c0.884,0,0.884-1.581,0-1.581c-3.656,0-7.311,0-10.966,0
		C170.033,162.313,170.033,163.894,170.917,163.894z"/>
	<path d="M183.861,158.928c-5.056,0-10.112,0-15.168,0c-0.884,0-0.884,1.581,0,1.581c5.056,0,10.112,0,15.168,0
		C184.745,160.509,184.745,158.928,183.861,158.928z"/>
	<path d="M181.861,155.529c-3.654,0-7.308,0-10.961,0c-0.884,0-0.884,1.581,0,1.581c0.39,0,0.779,0,1.17,0
		c0.058,0.018,0.111,0.042,0.18,0.042c2.762,0,5.523,0,8.285,0c0.016,0,0.025-0.008,0.04-0.009c0.013,0,0.026,0,0.041,0
		c0.054,0,0.094-0.021,0.14-0.033c0.369,0,0.737,0,1.105,0C182.745,157.109,182.745,155.529,181.861,155.529z"/>
	<path d="M181.861,152.19c-3.654,0-7.308,0-10.961,0c-0.884,0-0.884,1.581,0,1.581c3.653,0,7.307,0,10.961,0
		C182.745,153.771,182.745,152.19,181.861,152.19z"/>
	<path d="M170.884,150.431c3.653,0,7.309,0,10.962,0c0.884,0,0.884-1.581,0-1.581c-3.653,0-7.309,0-10.962,0
		C170,148.85,170,150.431,170.884,150.431z"/>
	<path d="M170.884,147.09c3.653,0,7.309,0,10.962,0c0.884,0,0.884-1.581,0-1.581c-3.653,0-7.309,0-10.962,0
		C170,145.509,170,147.09,170.884,147.09z"/>
	<path d="M168.659,143.704c5.058,0,10.113,0,15.171,0c0.883,0,0.883-1.581,0-1.581c-5.058,0-10.113,0-15.171,0
		C167.775,142.123,167.775,143.704,168.659,143.704z"/>
	<path d="M181.869,138.833c-3.652,0-7.307,0-10.96,0c-0.884,0-0.884,1.581,0,1.581c3.653,0,7.308,0,10.96,0
		C182.753,140.414,182.753,138.833,181.869,138.833z"/>
	<path d="M181.869,135.49c-3.652,0-7.307,0-10.96,0c-0.884,0-0.884,1.58,0,1.58c3.653,0,7.308,0,10.96,0
		C182.753,137.07,182.753,135.49,181.869,135.49z"/>
	<path d="M170.897,133.73c3.652,0,7.305,0,10.959,0c0.884,0,0.884-1.58,0-1.58c-3.654,0-7.307,0-10.959,0
		C170.013,132.15,170.013,133.73,170.897,133.73z"/>
	<path d="M170.897,130.391c3.652,0,7.305,0,10.959,0c0.884,0,0.884-1.58,0-1.58c-3.654,0-7.307,0-10.959,0
		C170.013,128.811,170.013,130.391,170.897,130.391z"/>
	<path d="M168.67,127.006c5.057,0,10.113,0,15.17,0c0.884,0,0.884-1.581,0-1.581c-5.057,0-10.113,0-15.17,0
		C167.785,125.426,167.785,127.006,168.67,127.006z"/>
	<path d="M181.924,122.144c-3.653,0-7.309,0-10.962,0c-0.884,0-0.884,1.581,0,1.581c0.42,0,0.839,0,1.259,0
		c0.03,0.004,0.055,0.021,0.088,0.021c2.762,0,5.523,0,8.284,0c0.034,0,0.057-0.017,0.087-0.021c0.416,0,0.83,0,1.244,0
		C182.807,123.724,182.807,122.144,181.924,122.144z"/>
	<path d="M181.924,118.801c-3.653,0-7.309,0-10.962,0c-0.884,0-0.884,1.58,0,1.58c3.653,0,7.309,0,10.962,0
		C182.807,120.381,182.807,118.801,181.924,118.801z"/>
	<path d="M170.947,117.041c3.654,0,7.307,0,10.96,0c0.884,0,0.884-1.581,0-1.581c-3.653,0-7.306,0-10.96,0
		C170.063,115.46,170.063,117.041,170.947,117.041z"/>
	<path d="M170.947,113.702c3.654,0,7.307,0,10.96,0c0.884,0,0.884-1.58,0-1.58c-3.653,0-7.306,0-10.96,0
		C170.063,112.122,170.063,113.702,170.947,113.702z"/>
	<path d="M183.892,108.737c-5.059,0-10.114,0-15.173,0c-0.884,0-0.884,1.58,0,1.58c5.059,0,10.114,0,15.173,0
		C184.776,110.317,184.776,108.737,183.892,108.737z"/>
	<path d="M181.85,105.463c-3.653,0-7.307,0-10.961,0c-0.884,0-0.884,1.58,0,1.58c3.654,0,7.308,0,10.961,0
		C182.734,107.043,182.734,105.463,181.85,105.463z"/>
	<path d="M181.85,102.125c-3.653,0-7.307,0-10.961,0c-0.884,0-0.884,1.58,0,1.58c3.654,0,7.308,0,10.961,0
		C182.734,103.705,182.734,102.125,181.85,102.125z"/>
	<path d="M170.872,100.363c3.655,0,7.31,0,10.966,0c0.884,0,0.884-1.581,0-1.581c-3.656,0-7.311,0-10.966,0
		C169.988,98.783,169.988,100.363,170.872,100.363z"/>
	<path d="M170.872,97.024c3.655,0,7.31,0,10.966,0c0.884,0,0.884-1.581,0-1.581c-3.656,0-7.311,0-10.966,0
		C169.988,95.444,169.988,97.024,170.872,97.024z"/>
	<path d="M165.223,93.639c7.905,0,15.811,0,23.716,0c0.884,0,0.884-1.58,0-1.58c-7.905,0-15.811,0-23.716,0
		C164.34,92.059,164.34,93.639,165.223,93.639z"/>
	<path d="M181.816,252.754c-3.653,0-7.308,0-10.961,0c-0.884,0-0.884,1.581,0,1.581c0.394,0,0.785,0,1.178,0
		c0.056,0.015,0.106,0.04,0.172,0.04c2.76,0,5.521,0,8.283,0c0.011,0,0.017-0.007,0.027-0.007c0.02,0,0.039,0,0.059,0
		c0.055,0,0.097-0.022,0.145-0.033c0.365,0,0.73,0,1.098,0C182.7,254.335,182.7,252.754,181.816,252.754z"/>
	<path d="M181.816,249.417c-3.653,0-7.308,0-10.961,0c-0.884,0-0.884,1.581,0,1.581c3.653,0,7.308,0,10.961,0
		C182.7,250.998,182.7,249.417,181.816,249.417z"/>
	<path d="M170.84,247.654c3.654,0,7.307,0,10.962,0c0.884,0,0.884-1.58,0-1.58c-3.655,0-7.308,0-10.962,0
		C169.955,246.074,169.955,247.654,170.84,247.654z"/>
	<path d="M170.84,244.317c3.654,0,7.307,0,10.962,0c0.884,0,0.884-1.581,0-1.581c-3.655,0-7.308,0-10.962,0
		C169.955,242.736,169.955,244.317,170.84,244.317z"/>
	<path d="M183.784,239.354c-5.057,0-10.113,0-15.17,0c-0.884,0-0.884,1.58,0,1.58c5.057,0,10.113,0,15.17,0
		C184.668,240.934,184.668,239.354,183.784,239.354z"/>
	<path d="M229.717,277.208c-5.172-1.483-10.352-3.167-15.317-5.246c-4.44-1.86-12.528-4.473-14.252-9.569
		c0.001-0.002,0.002-0.004,0.002-0.007c0.013-0.167-0.024-0.295-0.078-0.405c0-15.668,0-31.337,0-47.005
		c0.012,0.003,0.021,0.013,0.034,0.015c14.417,2.589,29.196-0.273,43.73-0.168c1.441,0.01,1.339-2.343-0.06-2.445
		c-14.512-1.049-28.973,2.394-43.538,1.216c-0.062-0.006-0.113,0.012-0.167,0.026c0-20.315,0-40.63,0-60.944
		c0-28.084,0-56.168,0-84.251c0-0.35-0.169-0.57-0.383-0.675c-0.104-0.09-0.229-0.158-0.396-0.158c-15.267,0-30.536,0-45.803,0
		c-0.638,0-0.809,0.819-0.525,1.277c0.003,0.316,0.147,0.622,0.479,0.716c6.361,1.802,4.686,10.543,4.679,15.644
		c-0.009,7.155,0.003,14.31,0.019,21.465c0.019,8.505,0.027,17.01,0.027,25.515c0,14.125,0,28.249,0,42.373
		c0,12.991,0,25.982,0,38.975c-0.18-0.246-0.444-0.427-0.79-0.464c-15.364-1.623-30.942-0.7-46.354-0.572
		c-1.243,0.01-1.188,2.153,0.052,2.16c15.486,0.084,30.899-0.205,46.362,0.833c0.326,0.021,0.562-0.097,0.73-0.281
		c0,15.553,0,31.106,0,46.659c-1.302,5.286-9.42,7.977-13.899,9.853c-5.02,2.102-10.222,3.839-15.449,5.349
		c-0.063-0.014-0.127-0.028-0.191-0.043c-0.483-0.111-0.85,0.29-0.85,0.763c0,1.561,0,3.123,0,4.684
		c0,0.033,0.012,0.057,0.015,0.087c0,0.006,0.002,0.01,0.003,0.015c0.01,0.094,0.024,0.183,0.058,0.255
		c0.073,0.185,0.208,0.338,0.417,0.406c7.34,2.364,14.736,4.562,22.095,6.873c0.039,0.012,0.072-0.002,0.109,0.002
		c0.025,0.003,0.043,0.018,0.069,0.018c18.83,0,37.661,0,56.491,0c0.151,0.141,0.352,0.216,0.582,0.145
		c7.373-2.298,14.74-4.615,22.1-6.954c0.212-0.068,0.347-0.223,0.417-0.408c0.029-0.065,0.042-0.146,0.053-0.227
		c0.002-0.016,0.007-0.029,0.007-0.043c0.004-0.03,0.016-0.053,0.016-0.085c0-1.534,0-3.068,0-4.603
		c0-0.025-0.011-0.048-0.014-0.072C230.185,277.595,230.039,277.301,229.717,277.208z M156.149,69.17c14.192,0,28.386,0,42.578,0
		c0,36.236,0,72.471,0,108.706c0,27.959,0,55.918,0,83.878c-0.068,0.15-0.101,0.325-0.052,0.528c0.021,0.083,0.054,0.159,0.076,0.24
		c-0.531,1.113-6.258,1.604-6.9,1.684c-4.06,0.498-8.171,0.613-12.258,0.63c-4.143,0.017-8.293-0.157-12.413-0.605
		c-0.812-0.088-7.505-0.604-7.628-2.036c-0.005-0.058-0.027-0.101-0.04-0.152c0-34.464,0-68.927,0-103.392
		c0-13.964,0.042-27.928-0.001-41.892c-0.028-9.118-0.047-18.237-0.047-27.355c0-4.548-0.006-9.097,0.043-13.645
		C159.535,73.087,158.253,70.64,156.149,69.17z M149.874,288.342c-6.912-2.162-13.854-4.239-20.751-6.454c0-1.04,0-2.081,0-3.121
		c4.692,1.075,9.388,2.134,14.082,3.196c1.172,0.266,2.344,0.536,3.515,0.804c0.846,0.193,3.154,1.139,3.154,0.208
		C149.874,284.763,149.874,286.552,149.874,288.342z M206.607,288.569c-18.464,0-36.927,0-55.39,0c0-1.65,0-3.301,0-4.951
		c18.463,0,36.926,0,55.39,0C206.607,285.268,206.607,286.918,206.607,288.569z M207.516,282.097
		c-0.073-0.033-0.149-0.06-0.237-0.06c-18.9,0-37.805,0-56.705,0c-6.228-1.415-12.457-2.824-18.683-4.247
		c4.953-1.536,9.826-3.307,14.612-5.311c4.26-1.784,10.411-4.293,12.469-8.804c1.137,1.035,3.267,1.344,4.531,1.594
		c5.009,0.989,10.228,1.109,15.315,1.146c5.185,0.037,10.415-0.17,15.541-0.981c1.264-0.201,3.648-0.471,4.93-1.512
		c2.167,4.355,8.175,6.807,12.354,8.558c4.855,2.035,9.801,3.825,14.831,5.377C220.155,279.27,213.83,280.664,207.516,282.097z
		 M228.867,281.971c-6.912,2.196-13.832,4.371-20.754,6.531c0-1.768,0-3.535,0-5.303c0,0.585,5.289-0.815,6.496-1.085
		c4.754-1.062,9.506-2.119,14.258-3.187C228.867,279.942,228.867,280.957,228.867,281.971z"/>
	<path d="M267.354,221.294c-3.046,0-6.094,0-9.14,0c-0.884,0-0.884,1.58,0,1.58c3.046,0,6.094,0,9.14,0
		C268.238,222.875,268.238,221.294,267.354,221.294z"/>
	<path d="M267.354,218.512c-3.046,0-6.094,0-9.14,0c-0.884,0-0.884,1.58,0,1.58c3.046,0,6.094,0,9.14,0
		C268.238,220.092,268.238,218.512,267.354,218.512z"/>
	<path d="M258.201,217.307c3.047,0,6.095,0,9.142,0c0.884,0,0.884-1.58,0-1.58c-3.047,0-6.095,0-9.142,0
		C257.317,215.727,257.317,217.307,258.201,217.307z"/>
	<path d="M258.201,214.52c3.047,0,6.095,0,9.142,0c0.884,0,0.884-1.58,0-1.58c-3.047,0-6.095,0-9.142,0
		C257.317,212.94,257.317,214.52,258.201,214.52z"/>
	<path d="M256.345,211.701c4.217,0,8.434,0,12.649,0c0.884,0,0.884-1.58,0-1.58c-4.216,0-8.433,0-12.649,0
		C255.462,210.121,255.462,211.701,256.345,211.701z"/>
	<path d="M267.394,207.278c-3.047,0-6.093,0-9.139,0c-0.885,0-0.885,1.58,0,1.58c3.046,0,6.092,0,9.139,0
		C268.278,208.858,268.278,207.278,267.394,207.278z"/>
	<path d="M267.394,204.493c-3.047,0-6.093,0-9.139,0c-0.885,0-0.885,1.581,0,1.581c3.046,0,6.092,0,9.139,0
		C268.278,206.074,268.278,204.493,267.394,204.493z"/>
	<path d="M258.241,203.287c3.046,0,6.093,0,9.14,0c0.884,0,0.884-1.581,0-1.581c-3.047,0-6.094,0-9.14,0
		C257.357,201.706,257.357,203.287,258.241,203.287z"/>
	<path d="M258.241,200.5c3.046,0,6.093,0,9.14,0c0.884,0,0.884-1.58,0-1.58c-3.047,0-6.094,0-9.14,0
		C257.357,198.919,257.357,200.5,258.241,200.5z"/>
	<path d="M269.035,196.1c-4.217,0-8.433,0-12.648,0c-0.884,0-0.884,1.581,0,1.581c4.216,0,8.432,0,12.648,0
		C269.919,197.681,269.919,196.1,269.035,196.1z"/>
	<path d="M258.243,194.847c3.047,0,6.095,0,9.142,0c0.884,0,0.884-1.581,0-1.581c-3.047,0-6.095,0-9.142,0
		C257.359,193.266,257.359,194.847,258.243,194.847z"/>
	<path d="M258.233,192.06c3.046,0,6.094,0,9.14,0c0.884,0,0.884-1.581,0-1.581c-3.046,0-6.094,0-9.14,0
		C257.349,190.479,257.349,192.06,258.233,192.06z"/>
	<path d="M258.233,189.278c3.046,0,6.094,0,9.14,0c0.884,0,0.884-1.581,0-1.581c-3.046,0-6.094,0-9.14,0
		C257.349,187.697,257.349,189.278,258.233,189.278z"/>
	<path d="M256.377,186.456c4.215,0,8.432,0,12.648,0c0.884,0,0.884-1.581,0-1.581c-4.217,0-8.434,0-12.648,0
		C255.493,184.875,255.493,186.456,256.377,186.456z"/>
	<path d="M267.41,182.092c-3.046,0-6.092,0-9.137,0c-0.885,0-0.885,1.581,0,1.581c3.045,0,6.091,0,9.137,0
		C268.294,183.673,268.294,182.092,267.41,182.092z"/>
	<path d="M267.41,179.309c-3.046,0-6.092,0-9.137,0c-0.885,0-0.885,1.581,0,1.581c3.045,0,6.091,0,9.137,0
		C268.294,180.89,268.294,179.309,267.41,179.309z"/>
	<path d="M258.26,178.101c3.046,0,6.093,0,9.139,0c0.884,0,0.884-1.58,0-1.58c-3.046,0-6.093,0-9.139,0
		C257.377,176.521,257.377,178.101,258.26,178.101z"/>
	<path d="M258.26,175.318c3.046,0,6.093,0,9.139,0c0.884,0,0.884-1.58,0-1.58c-3.046,0-6.093,0-9.139,0
		C257.377,173.738,257.377,175.318,258.26,175.318z"/>
	<path d="M269.053,170.916c-4.216,0-8.433,0-12.649,0c-0.884,0-0.884,1.58,0,1.58c4.217,0,8.434,0,12.649,0
		C269.937,172.496,269.937,170.916,269.053,170.916z"/>
	<path d="M267.435,168.19c-3.047,0-6.093,0-9.139,0c-0.884,0-0.884,1.58,0,1.58c3.046,0,6.092,0,9.139,0
		C268.319,169.77,268.319,168.19,267.435,168.19z"/>
	<path d="M267.435,165.343c-3.047,0-6.093,0-9.139,0c-0.884,0-0.884,1.581,0,1.581c3.046,0,6.092,0,9.139,0
		C268.319,166.924,268.319,165.343,267.435,165.343z"/>
	<path d="M258.283,164.142c3.048,0,6.096,0,9.143,0c0.885,0,0.885-1.581,0-1.581c-3.047,0-6.095,0-9.143,0
		C257.399,162.562,257.399,164.142,258.283,164.142z"/>
	<path d="M258.283,161.357c3.048,0,6.096,0,9.143,0c0.885,0,0.885-1.581,0-1.581c-3.047,0-6.095,0-9.143,0
		C257.399,159.776,257.399,161.357,258.283,161.357z"/>
	<path d="M269.076,156.954c-4.216,0-8.431,0-12.647,0c-0.884,0-0.884,1.58,0,1.58c4.217,0,8.432,0,12.647,0
		C269.961,158.534,269.961,156.954,269.076,156.954z"/>
	<path d="M267.408,154.119c-3.046,0-6.093,0-9.14,0c-0.884,0-0.884,1.581,0,1.581c0.325,0,0.65,0,0.977,0
		c0.05,0.012,0.092,0.035,0.149,0.035c2.303,0,4.605,0,6.908,0c0.012,0,0.02-0.006,0.031-0.007c0.012,0,0.024,0,0.036,0
		c0.046,0,0.079-0.02,0.12-0.028c0.305,0,0.611,0,0.918,0C268.293,155.7,268.293,154.119,267.408,154.119z"/>
	<path d="M267.408,151.336c-3.046,0-6.093,0-9.14,0c-0.884,0-0.884,1.581,0,1.581c3.047,0,6.094,0,9.14,0
		C268.293,152.917,268.293,151.336,267.408,151.336z"/>
	<path d="M258.256,150.131c3.046,0,6.093,0,9.14,0c0.884,0,0.884-1.581,0-1.581c-3.047,0-6.094,0-9.14,0
		C257.371,148.551,257.371,150.131,258.256,150.131z"/>
	<path d="M258.256,147.346c3.046,0,6.093,0,9.14,0c0.884,0,0.884-1.58,0-1.58c-3.047,0-6.094,0-9.14,0
		C257.371,145.766,257.371,147.346,258.256,147.346z"/>
	<path d="M256.4,144.522c4.217,0,8.433,0,12.649,0c0.884,0,0.884-1.581,0-1.581c-4.217,0-8.433,0-12.649,0
		C255.516,142.942,255.516,144.522,256.4,144.522z"/>
	<path d="M267.415,140.199c-3.047,0-6.093,0-9.138,0c-0.884,0-0.884,1.58,0,1.58c3.045,0,6.091,0,9.138,0
		C268.299,141.779,268.299,140.199,267.415,140.199z"/>
	<path d="M267.415,137.411c-3.047,0-6.093,0-9.138,0c-0.884,0-0.884,1.581,0,1.581c3.045,0,6.091,0,9.138,0
		C268.299,138.991,268.299,137.411,267.415,137.411z"/>
	<path d="M258.266,136.207c3.046,0,6.091,0,9.138,0c0.884,0,0.884-1.581,0-1.581c-3.047,0-6.092,0-9.138,0
		C257.383,134.626,257.383,136.207,258.266,136.207z"/>
	<path d="M258.266,133.422c3.046,0,6.091,0,9.138,0c0.884,0,0.884-1.58,0-1.58c-3.047,0-6.092,0-9.138,0
		C257.383,131.842,257.383,133.422,258.266,133.422z"/>
	<path d="M256.409,130.6c4.216,0,8.433,0,12.648,0c0.884,0,0.884-1.58,0-1.58c-4.216,0-8.433,0-12.648,0
		C255.525,129.02,255.525,130.6,256.409,130.6z"/>
	<path d="M267.461,126.283c-3.048,0-6.093,0-9.141,0c-0.884,0-0.884,1.581,0,1.581c0.35,0,0.699,0,1.05,0
		c0.025,0.003,0.045,0.018,0.073,0.018c2.303,0,4.605,0,6.907,0c0.028,0,0.049-0.015,0.075-0.018c0.345,0,0.689,0,1.035,0
		C268.344,127.863,268.344,126.283,267.461,126.283z"/>
	<path d="M267.461,123.496c-3.048,0-6.093,0-9.141,0c-0.884,0-0.884,1.581,0,1.581c3.048,0,6.093,0,9.141,0
		C268.344,125.076,268.344,123.496,267.461,123.496z"/>
	<path d="M258.308,122.291c3.047,0,6.093,0,9.139,0c0.883,0,0.883-1.58,0-1.58c-3.046,0-6.092,0-9.139,0
		C257.425,120.71,257.425,122.291,258.308,122.291z"/>
	<path d="M258.308,119.507c3.047,0,6.093,0,9.139,0c0.883,0,0.883-1.58,0-1.58c-3.046,0-6.092,0-9.139,0
		C257.425,117.927,257.425,119.507,258.308,119.507z"/>
	<path d="M269.102,115.104c-4.218,0-8.435,0-12.651,0c-0.885,0-0.885,1.581,0,1.581c4.217,0,8.434,0,12.651,0
		C269.986,116.685,269.986,115.104,269.102,115.104z"/>
	<path d="M267.399,112.374c-3.046,0-6.093,0-9.139,0c-0.884,0-0.884,1.581,0,1.581c3.046,0,6.093,0,9.139,0
		C268.283,113.955,268.283,112.374,267.399,112.374z"/>
	<path d="M267.399,109.592c-3.046,0-6.093,0-9.139,0c-0.884,0-0.884,1.581,0,1.581c3.046,0,6.093,0,9.139,0
		C268.283,111.172,268.283,109.592,267.399,109.592z"/>
	<path d="M258.246,108.385c3.048,0,6.096,0,9.143,0c0.885,0,0.885-1.581,0-1.581c-3.047,0-6.095,0-9.143,0
		C257.362,106.804,257.362,108.385,258.246,108.385z"/>
	<path d="M258.246,105.602c3.048,0,6.096,0,9.143,0c0.885,0,0.885-1.581,0-1.581c-3.047,0-6.095,0-9.143,0
		C257.362,104.021,257.362,105.602,258.246,105.602z"/>
	<path d="M253.536,102.779c6.591,0,13.183,0,19.773,0c0.884,0,0.884-1.581,0-1.581c-6.591,0-13.183,0-19.773,0
		C252.652,101.199,252.652,102.779,253.536,102.779z"/>
	<path d="M267.371,235.186c-3.046,0-6.094,0-9.14,0c-0.884,0-0.884,1.58,0,1.58c0.327,0,0.653,0,0.979,0
		c0.049,0.012,0.091,0.034,0.146,0.034c2.302,0,4.604,0,6.907,0c0.008,0,0.015-0.005,0.022-0.005c0.017,0,0.033,0,0.05,0
		c0.047,0,0.081-0.021,0.123-0.029c0.304,0,0.607,0,0.912,0C268.254,236.766,268.254,235.186,267.371,235.186z"/>
	<path d="M267.371,232.404c-3.046,0-6.094,0-9.14,0c-0.884,0-0.884,1.58,0,1.58c3.046,0,6.094,0,9.14,0
		C268.254,233.984,268.254,232.404,267.371,232.404z"/>
	<path d="M258.219,231.197c3.046,0,6.093,0,9.14,0c0.884,0,0.884-1.58,0-1.58c-3.047,0-6.094,0-9.14,0
		C257.334,229.617,257.334,231.197,258.219,231.197z"/>
	<path d="M258.219,228.414c3.046,0,6.093,0,9.14,0c0.884,0,0.884-1.58,0-1.58c-3.047,0-6.094,0-9.14,0
		C257.334,226.833,257.334,228.414,258.219,228.414z"/>
	<path d="M269.011,224.013c-4.216,0-8.432,0-12.648,0c-0.884,0-0.884,1.58,0,1.58c4.217,0,8.433,0,12.648,0
		C269.895,225.593,269.895,224.013,269.011,224.013z"/>
	<path d="M50.675,213.479c1.322,0.147,1.481-2.263,0.241-2.529c-12.778-2.755-27.331,0.063-39.207,5.038
		c-1.205,0.505-0.71,2.752,0.604,2.248C24.773,213.464,37.467,211.995,50.675,213.479z"/>
	<path d="M320.338,215.193c-11.852-0.192-25.43,3.229-36.696-1.905c-0.354-0.162-0.677-0.125-0.938,0.021c0-28.835,0-57.67,0-86.503
		c0-15.062,0-30.122,0-45.183c0-0.328-0.149-0.538-0.346-0.65c-0.105-0.102-0.237-0.176-0.414-0.176c-12.73,0-25.461,0-38.19,0
		c-0.617,0-0.794,0.764-0.55,1.229c0.013,0.306,0.158,0.598,0.481,0.691c5.713,1.646,3.817,12.063,3.817,16.641
		c-0.001,6.558,0.013,13.116,0.031,19.673c0.021,7.754,0.008,15.509,0.008,23.263c0,16.054,0,32.108,0,48.163
		c0,17.486,0,34.972,0,52.458c-1.111,4.453-8.118,6.689-11.871,8.263c-4.053,1.697-8.269,3.083-12.489,4.3
		c-0.043-0.009-0.085-0.019-0.128-0.028c-0.483-0.111-0.85,0.29-0.85,0.762c0,1.302,0,2.604,0,3.905
		c0,0.033,0.013,0.057,0.016,0.088c0,0.002,0.001,0.004,0.001,0.006c0.01,0.098,0.026,0.188,0.061,0.264
		c0.072,0.184,0.207,0.337,0.417,0.404c6.12,1.974,12.287,3.804,18.422,5.731c0.037,0.012,0.068-0.002,0.104,0.002
		c0.026,0.003,0.048,0.019,0.074,0.019c15.694,0,31.388,0,47.083,0c0.146,0.116,0.325,0.182,0.535,0.116
		c6.146-1.916,12.289-3.848,18.424-5.798c0.212-0.066,0.346-0.221,0.418-0.406c0.031-0.069,0.045-0.153,0.056-0.241
		c0.001-0.009,0.004-0.019,0.005-0.028c0.003-0.031,0.016-0.054,0.016-0.087c0-1.278,0-2.559,0-3.838
		c0-0.024-0.012-0.045-0.014-0.068c-0.009-0.309-0.155-0.604-0.48-0.698c-4.271-1.222-8.457-2.692-12.598-4.302
		c-3.676-1.428-10.538-3.774-11.975-7.953c0.01-0.151-0.018-0.271-0.064-0.375c0-9.202,0-18.404,0-27.606
		c5.217,2.473,11.162,2.894,16.852,3.1c6.81,0.247,14.099,0.259,20.844-0.817C321.777,217.405,321.81,215.217,320.338,215.193z
		 M246.405,82.377c11.651,0,23.303,0,34.954,0c0,38.525,0,77.048,0,115.572c0,14.953,0,29.904,0,44.856
		c-0.057,0.143-0.084,0.305-0.039,0.491c0.015,0.057,0.037,0.11,0.052,0.166c-1.128,2.742-32.108,2.9-32.453-0.273
		c-0.005-0.046-0.023-0.077-0.034-0.117c0-34.166,0-68.331,0-102.496c0-8.913-0.002-17.824-0.021-26.735
		c-0.016-7.185-0.029-14.369-0.009-21.554C248.864,88.709,249.154,84.594,246.405,82.377z M240.626,262.781c0,0.68,0,1.359,0,2.04
		c-5.691-1.779-11.403-3.491-17.079-5.314c0-0.78,0-1.561,0-2.341c3.737,0.857,7.479,1.7,11.217,2.547
		c1.854,0.421,3.709,0.846,5.562,1.268c0.146,0.033,0.234,0.038,0.3,0.031C240.626,261.601,240.626,262.191,240.626,262.781z
		 M287.93,265.048c-15.321,0-30.642,0-45.961,0c0-1.288,0-2.578,0-3.866c15.319,0,30.64,0,45.961,0
		C287.93,262.47,287.93,263.76,287.93,265.048z M306.49,259.578c-5.689,1.807-11.384,3.597-17.081,5.375c0-0.69,0-1.381,0-2.071
		c0-0.579,0-1.16,0-1.74c0-0.051-0.005-0.079-0.007-0.117c0.062,0.038,0.154,0.059,0.307,0.024c1.853-0.422,3.71-0.828,5.563-1.241
		c3.739-0.836,7.48-1.667,11.218-2.508C306.49,258.059,306.49,258.818,306.49,259.578z M292.283,251.921
		c3.868,1.621,7.809,3.058,11.811,4.308c-5.1,1.142-10.204,2.265-15.299,3.422c-0.062-0.022-0.121-0.049-0.192-0.049
		c-15.757,0-31.514,0-47.271,0c-5.026-1.142-10.054-2.279-15.077-3.428c3.94-1.237,7.82-2.655,11.631-4.253
		c3.579-1.5,8.698-3.574,10.489-7.331c0.946,0.785,2.517,1.051,3.593,1.27c4.317,0.879,8.839,0.959,13.228,0.98
		c4.213,0.021,8.525-0.101,12.685-0.828c1.101-0.192,2.932-0.397,4.016-1.204C283.776,248.428,288.774,250.451,292.283,251.921z"/>
</g>
</svg>
