<?xml version="1.0" encoding="utf-8"?>
<!-- Generator: Adobe Illustrator 15.0.0, SVG Export Plug-In . SVG Version: 6.00 Build 0)  -->
<!DOCTYPE svg PUBLIC "-//W3C//DTD SVG 1.1//EN" "http://www.w3.org/Graphics/SVG/1.1/DTD/svg11.dtd">
<svg version="1.1" id="Layer_1" xmlns="http://www.w3.org/2000/svg" xmlns:xlink="http://www.w3.org/1999/xlink" x="0px" y="0px"
	 width="4236.72px" height="4220.419px" viewBox="0.001 -0.001 4236.72 4220.419"
	 enable-background="new 0.001 -0.001 4236.72 4220.419" xml:space="preserve">
<polygon fill="#FDFDFD" stroke="#FFFFFF" stroke-miterlimit="10" points="4221.868,4215.102 4.325,4201.266 4.325,17.871 
	4230.563,17.703 "/>
<path fill="#EAEAEA" d="M752.452,1020.662c-0.074,8.799-0.117,17.592-0.144,26.383
	C752.841,1038.176,752.817,1029.389,752.452,1020.662z"/>
<path fill="#EAEAEA" d="M906.917,527.648c-1.625-14.664-5.523-31.121-5.396-45.328c0.074-8.293,6.591-18.125,12.949-24.449
	c16.438-16.353,49.086-30.961,49.281-46.594c0.891-70.688,34.855-77.473,96.227-76.676c29.578,0.383,103.88,39.762,99.228-49.945
	c-2.246-43.281,0.367-86.828,1.508-130.234c0.105-4.066,5.438-7.992,8.345-11.984c13.633,13.016,29.112,24.664,40.133,39.605
	c5.711,7.75,8.69,28.699,4.094,35.742c-40.453,61.949-60.359,104.008,45.648,117.305c28.934,3.629,51.715,56.32,63.063,69.695
	c-2.18,43.516-5.584,79.822-17.059,106.106c19.938-11.036,41.295-34.832,42.559-51.311c8.863-115.605,0.98-99.879,4.117-215.918
	c29.608-43.078,63.434-84.027,86.809-130.258c9.695-19.18-3.168-49.633-5.348-74.992c-1.086-12.656-1.207-25.391-1.767-38.09
	C961.423,0.082,491.54-0.23,21.657,0.355C15.622,0.363,4.333,11.773,4.325,17.871C3.753,526.414,4.058,1034.953,4.298,1543.496
	c24.432-2.785,49.162-4.055,73.205-8.805c22.33-4.41,43.758-13.195,65.908-18.763c12.223-3.069,25.078-3.979,37.719-4.84
	c4.494-0.305,12.301,4.681,13.258,3.367c4.094-5.629,9.77-13.906,8.078-18.935c-1.922-5.711-10.643-9.87-17.191-13.125
	c-10.865-5.401-22.357-9.543-33.586-14.215c10.938-1.315,21.84-3.211,32.816-3.84c35.195-2.022,72.02,2.353,105.27-6.637
	c56.195-15.191,109.527-40.676,165.221-58.137c44.854-14.063,91.182-23.84,137.303-33.34c38.082-7.849,76.767-12.918,115.285-18.496
	c47.729-6.914,79.807-25.545,99.539-54.215c-12.617-81.199-15.039-163.672-14.813-246.476c-0.012,0.201-0.012,0.402-0.022,0.604
	c0.012-0.201,0.012-0.402,0.022-0.604c0.025-8.791,0.068-17.584,0.144-26.383c-1.84-44.096-12.9-86.512-11.332-128.613
	c-3.99,6.507-7.853,12.8-11.697,19.068c-2.137-4.379-7.237-10.354-5.891-12.867c5.569-10.36,13.092-19.676,19.896-29.373
	c0.289-1.742,0.511-3.485,0.857-5.229c13.361-77.494,9.137-146.07,3.52-220l43.146-95.488L906.917,527.648z"/>
<path fill="#EAEAEA" d="M1014.454,520.832c-12.781,1.066-24.894,3.4-36.381,6.816c92.291,0,184.475,0,277.442,0
	c3.648-5.003,6.738-10.621,9.418-16.757c-5.954,3.295-11.786,5.507-16.913,5.979
	C1170.704,524.008,1091.892,514.379,1014.454,520.832z"/>
<path fill="#FFFFFF" d="M909.759,2797.461c-4.479-5.945-8.965-11.891-13.449-17.836c-1.301,8.035-2.604,16.066-3.905,24.102
	c1.284,1.32,2.569,2.638,3.858,3.957c4.734,3.836,9.474,7.673,14.207,11.509c3.254-10.396,9.142-20.734,9.363-31.195
	c1.42-67.672,1.676-135.402,2.287-203.113c-2.523,62.738-5.021,125.478-7.564,188.216
	C914.224,2781.27,911.415,2789.344,909.759,2797.461z"/>
<path fill="#FFFFFF" d="M922.12,2584.883c5.25-130.598,10.502-261.19,15.719-391.789c-2.992,44.517-5.885,89.037-8.514,133.574
	C924.253,2412.582,922.897,2498.715,922.12,2584.883z"/>
<path fill="#898989" d="M4235.606,3487.801c0.242,237.824,0.566,475.646,0.117,713.465c-0.008,4.82-9.023,13.824-13.855,13.836
	c-217.832,0.449-435.668,0.109-653.504-0.133c25.32-210.655,52.207-421.141,75.051-632.063
	c7.348-67.828,5.629-142.246,96.527-144.094c128.148-2.605,256.547,5.035,384.773,10.086c16.43,0.645,32.277,12.461,48.684,18.289
	C4193.981,3474.5,4214.856,3480.969,4235.606,3487.801z"/>
<path fill="#959595" d="M4.966,3267.738c0-157.328-0.002-314.656-0.002-471.988c28.012,0.871,56.025,1.75,84.037,2.609
	c18.664,0.569,37.328,1.116,55.994,1.676c-10.629,2.272-21.311,4.336-31.832,7.031c-1.785,0.457-2.873,3.629-4.283,5.547
	c5.078,2.285,10.34,6.902,15.205,6.52c132.219-10.465,264.418-21.188,396.541-32.785c11.189-0.979,21.48-10.426,32.791-12.28
	c13.66-2.242,27.982-1.099,41.982-0.521c35.897,1.492,71.789,4.555,107.655,4.191c5.836-0.063,11.523-14.398,17.281-22.142
	l-0.086,0.099c9.207,0.668,18.646,0.272,27.574,2.215c23.121,5.027,65.711,9.781,66.184,16.918
	c24.793,374.598,46.074,749.426,67.563,1124.242c4.563,79.641,21.487,149.266,115.651,168.522
	c55.082,11.267,108.845,28.97,163.91,40.328c14.271,2.94,32.004-5.233,46.773-11.522c34.245-14.582,67.883-45.146,101.366-44.603
	c208.396,3.396,416.648,14.738,625.027,20.728c55,1.577,119.285-26.142,163.535-5.91c91.359,41.766,234.906,25.93,298.394-55.008
	c24.012-65.974,59.156-130.267,69.43-198.313c15.371-101.836,13.254-206.313,18.578-309.668
	c-1.336,61.66,2.004,123.863-5.09,184.853c-11.109,95.508-21.074,192.512-47.031,284.504
	c-20.883,74.02-72.434,131.039-163.82,122.668c-69.254-6.609-138.703-20.445-207.729-18.599
	c-320.816,8.603-641.508,21.802-962.258,32.81c-126.148,4.328-209.563-44.845-219.508-137.734
	c-18.781-175.383-32.73-351.328-46.013-527.242c-8.108-107.418-10.719-215.25-17.426-322.793
	c-0.625-10.027-12.992-19.328-19.906-28.965c-3.483,8.672-6.194,17.762-10.645,25.902c-5.426,9.922-12.121,27.074-18.599,27.229
	c-46.522,1.121-93.995-7.293-139.444-0.737c-38.951,5.616-74.521,33.233-113.533,40.184
	c-66.234,11.797-134.031,14.734-201.096,22.066c-10.748,1.176-21.115,5.836-31.658,8.887c10.295,2.375,20.961,3.758,30.77,7.43
	c8.313,3.113,15.633,8.879,23.394,13.469c-4.115,4.414-7.631,11.797-12.437,12.762c-37.484,7.531-76.232,10.48-112.553,21.539
	c-30.078,9.156-58.438,40.699-85.668,38.535C83.44,3307.172,44.558,3282.996,4.966,3267.738z"/>
<path fill="#FCFCFC" d="M1603.106,0.316c-45.664,24.445-97.148,42.074-135.646,74.918
	c-59.387,50.668-109.883,111.758-164.147,168.43c-2.486,92-3.183,184.141-7.738,275.984c3.444,0,6.854,0,10.246,0
	c1.858-92.843,3.717-185.545,5.602-280.017c42.633-39.996,85.271-79.988,127.906-119.984
	c48.547-16.086,98.854-28.305,145.098-49.438c39.306-17.961,73.91-46.199,110.599-69.887
	C1664.384,0.32,1633.747,0.32,1603.106,0.316z"/>
<path fill="#9D9D9D" d="M2452.239,3503.625c-5.324,103.355-3.207,207.832-18.578,309.668
	c-10.273,68.047-45.418,132.34-69.43,198.316c5.309-12.035,10.613-24.066,15.922-36.099c2.684-5.301,5.367-10.602,8.051-15.901
	c6.711-15.953,13.418-31.902,20.129-47.855c4.836-10.695,13.402-21.215,13.922-32.117c4.203-87.965,6.896-175.996,10.049-264.008
	c6.322-177.551,15.611-355.055,18.236-532.66c3.371-227.746,1.389-455.57,1.707-683.359c-0.008-1.34-0.016-2.68-0.02-4.02
	c5.348,25.582,15.141,51.121,15.379,76.75c3.645,390.289,5.727,780.594,9.773,1170.879c0.176,16.949,12.633,45.582,24.598,48.695
	c82.691,21.531,166.773,37.729,250.406,55.641c1.301,0.004,2.602,0.031,3.902,0.086c86.145,16.012,172.301,31.945,258.395,48.23
	c5.016,0.949,9.492,4.729,14.219,7.195c-4.781,1.526-9.488,4.09-14.352,4.434c-94.293,6.637-188.625,12.715-282.887,19.742
	c-15.961,1.19-31.637,6.258-47.441,9.535c11.535,2.336,25.695,1.383,33.875,7.918c8.418,6.719,10.859,20.813,16.188,31.547
	c4.271,8.608,6.789,20.324,13.832,24.906c23.656,15.391,50.355,26.297,73.215,42.651c16.51,11.813,26.273,33.853,43.41,43.82
	c41.234,23.978,87.414,39.887,127.191,65.815c49.145,32.035,89.277,82.523,141.883,103.181c42.254,16.59,97.34,1.513,146.641-1.138
	c54.271-2.918,108.76-5.305,162.523-12.563c31.328-4.23,81.684-9.883,88.582-28.105c29.91-79.016,49.996-162.25,67.668-245.227
	c12.113-56.891,14.371-115.883,21.035-173.938c5.281-66.728-5.703-137.267-0.418-203.992c0.078-18.613,16.426-33.41,16.508-52.023
	c16.176-50.074,31.574-100.426,49.172-149.996c3.617-10.19,15.436-17.473,23.473-26.098c-0.633,9.262-2.344,18.609-1.625,27.766
	c0.924,11.728,2.543,23.806,6.836,34.543c0.914,2.285,18.057,2.504,21.711-1.633c7.764-8.797,11.1-21.352,17.146-31.848
	c5.363-9.309,10.396-23.758,18.25-25.836c36.219-9.57,73.172-16.941,110.238-22.633c65.633-10.07,131.529-18.41,197.361-27.152
	c2.76-0.367,5.854,3.414,8.953,3.742c49.23,5.219,98.488,10.188,147.742,15.215c0,84.031-0.004,168.066-0.004,252.098
	c-20.75-6.832-41.625-13.301-62.207-20.613c-16.406-5.827-32.254-17.645-48.684-18.289c-128.227-5.051-256.625-12.69-384.773-10.086
	c-90.898,1.849-89.18,76.267-96.527,144.095c-22.844,210.922-49.729,421.405-75.051,632.063c-325.438,0-650.875,0-976.313,0.004
	c-10.328-8.414-27.945-15.461-29.82-25.461c-14.203-75.69-38.684-152.922-33.336-227.771c4.594-64.258-58.945-144.905,31.469-196
	c0.215-0.116-2.559-6.327-4.492-9.332c-29.137-45.227-66.031-87.418-85.094-136.539c-14.605-37.641-6.535-84.016-8.906-126.487
	c-2.027-36.353-4.559-72.677-6.867-109.017C2454.083,3424.121,2453.161,3463.871,2452.239,3503.625z M3906.094,3244.457
	c-3.238,8.105-7.543,13.789-6.891,18.832c0.535,4.145,7.375,10.875,10.684,10.469"/>
<path fill="#CBCBCB" d="M2499,3627.313c0.41,25.152,27.535,63.336,50.902,71.892c51.355,18.805,108.238,22.508,162.867,32.375
	c253.988,0.039,508.117,4.375,761.852-3.676c47.98-1.521,131.832-48.254,135.336-80.957
	c19.703-183.941,19.898-369.978,26.746-555.298c0.023-2.645,0.047-5.289,0.066-7.93c2.375-6.863-3.809-23.055-3.195-30.07
	c15.266-174.039-27.658-308.055-11.631-482.02c-2.1-53.191-5.975-90.16,1.307-90.563c95.664-5.302,276.434,6.68,372.164,2.188
	c80.32-3.773,160.402-12.633,240.594-19.242c0,145.267,0,290.527-0.004,435.793c-15.605-0.031-31.531,1.906-46.746-0.555
	c-23.016-3.723-49.109-20.566-67.559-14.008c-45.93,16.324-78.074,33.229-137.113,9.883c-65.688-25.98-151.355-3.703-228.027,1.75
	c-22.855,1.621-62.809,15.027-64.301,26.887c-21.57,171.57-37.914,343.801-55.512,515.871c-0.082,18.613-0.16,37.223-0.238,55.836
	c-2.547,20.523-6.832,41.004-7.324,61.574c-1.488,62.07,16.07,131.563-61.941,163.434c-29.094,11.883-60.465,18.191-90.801,27.043
	c-21.277,0.074-42.559,0.148-63.84,0.223c-202.621,0-405.242-0.004-607.859-0.008c-16.021-0.031-32.043-0.063-48.063-0.094
	c-1.301-0.055-2.602-0.082-3.902-0.082c-24.539-2.672-49.035-7.102-73.629-7.727c-131.078-3.328-193.945-48.105-194.107-142.563
	c-0.6-345.871-0.656-691.742,0.004-1037.608c0.121-63.082-19.643-148.211,12.871-183.871
	c44.59-48.902,132.701-55.767,197.447-89.648c32.475-16.992,75.273-52.379,77.475-82.102c7.271-98.418-0.152-198.146-6.074-297.121
	c-1.094-18.242-18.117-40.863-34.324-50.771c-9-5.504-41.074,6.896-46.18,18.508c-16.643,37.845-26.195,78.884-37.479,118.974
	c-21.539,76.531,7.803,175.957-99.59,213.285c-87.439,30.391-120.482,96.979-96.57,188.676c0.004,1.34,0.014,2.68,0.021,4.02
	c-3.939,77.418-7.879,154.84-11.816,232.258c-0.027-105.969-6.941-212.582,2.887-317.629
	c4.758-50.848,37.211-100.901,64.008-147.348c23.547-40.809,64.055-72.733,83.195-114.887
	c14.578-32.098,6.938-74.113,10.008-111.648c6.352-77.641,56.906-119.323,126.395-124.973c19.225-1.563,56.48,50.754,62.027,82.453
	c13.348,76.285,12.23,155.039,18.027,232.719c9.039,121.103-25.855,164.68-146.402,180.844"/>
<path fill="#ADADAD" d="M2412.153,3975.508c-5.309,12.035-10.613,24.066-15.922,36.103c-63.488,80.934-207.035,96.77-298.395,55.004
	c-44.25-20.23-108.535,7.487-163.535,5.909c-208.379-5.987-416.633-17.332-625.026-20.727
	c-33.484-0.543-67.121,30.02-101.367,44.602c-14.771,6.289-32.504,14.465-46.773,11.523
	c-55.065-11.359-108.828-29.063-163.91-40.328c-94.164-19.258-111.09-88.883-115.651-168.522
	c-21.488-374.816-42.771-749.646-67.563-1124.242c-0.473-7.137-43.063-11.892-66.184-16.918c-8.93-1.94-18.367-1.547-27.57-2.215
	c-15.647-3.271-31.258-6.734-46.996-9.48c-1.449-0.254-3.69,4.043-5.563,6.224c17.547,1.055,35.094,2.108,52.641,3.159
	c-5.758,7.742-11.445,22.078-17.281,22.142c-35.866,0.363-71.758-2.699-107.655-4.191c-14-0.578-28.322-1.723-41.982,0.521
	c-11.311,1.854-21.602,11.301-32.791,12.28c-132.123,11.599-264.322,22.32-396.541,32.785c-4.865,0.383-10.127-4.233-15.205-6.52
	c1.41-1.918,2.498-5.09,4.283-5.547c10.521-2.695,21.203-4.759,31.832-7.031c-18.666-0.56-37.33-1.105-55.994-1.676
	c-28.012-0.859-56.025-1.738-84.037-2.609c0-90.645,0-181.289,0-271.938c14.961,7.784,31.125,23.93,44.684,21.977
	c78.826-11.352,156.801-28.52,235.527-40.715c91.011-14.098,182.515-24.988,273.779-37.457
	c71.19-9.723,142.176-21.646,213.656-28.047c14.922-1.336,45.026,16.534,45.578,26.772
	c23.637,439.022,44.723,878.188,66.12,1317.332c-0.004,2.647-0.004,5.297-0.008,7.949c4,34.672,8,69.348,11.996,104.022
	c0.008,5.324,0.012,10.652,0.021,15.978c17.336,34.737,34.254,69.711,53.477,103.371c0.797,1.397,30.363-6.277,34.273-15.138
	c39.319-89.073,87.852-16.395,129.895-5.641c13.445,3.438,19.336,33.699,30.25,50.68c7.785,12.105,18.191,22.523,27.431,33.695
	c9.465-11.875,18.241-24.395,28.569-35.469c12.898-13.836,28.883-39.25,40.414-37.617c91.789,13.008,182.375,41.324,274.228,45.594
	c151.422,7.039,303.522-0.059,455.327-2.016c45.063-0.578,101.591-22.242,133.001-2.555c99.64,62.449,251.398,33.616,305.105-70.892
	C2409.575,3975.594,2410.864,3975.551,2412.153,3975.508z"/>
<path fill="#F3F3F3" d="M4231.61,395.523c-101.465-2.988-216.824,23.516-301.012-16.148
	c-114.75-54.063-222.188-40.746-335.41-40.125c-99.602,0.551-199.813,3.629-298.586-6.172
	c-49.309-4.895-98.828-31.121-143.316-56.391c-101.785-57.809-200.844-120.461-300.391-182.156
	c-48.801-30.246-96.215-62.734-144.258-94.207c136.023,0,272.051,0,408.078-0.004c11.189,1.195,22.469,1.855,33.555,3.672
	c43.375,7.109,96.25-4.805,104.707,64.68c2.402,19.711,25.332,50.301,42.082,52.629c83.309,11.574,167.676,15.742,251.75,21.324
	c7.871,0.523,15.906-9.168,24.523-10.965c55.891-11.652,114.293-37.887,167.418-29.863c78.809,11.906,153.326,50.23,230.762,73.723
	c86.064,26.117,173.352,48.207,260.107,72.051C4231.618,296.887,4231.614,346.207,4231.61,395.523z"/>
<path fill="#FFFFFF" d="M1466.464,140.119c18.068-9.217,36.26-17.193,54.562-23.943c-10.914,1.15-21.828,2.289-32.738,3.473
	C1481.013,126.473,1473.739,133.295,1466.464,140.119z"/>
<path fill="#FFFFFF" d="M1360.38,239.633c35.359-33.172,70.723-66.344,106.084-99.514c-14.352,7.32-28.629,15.379-42.811,24.354
	C1397.271,181.172,1381.208,214.172,1360.38,239.633z"/>
<path fill="#919191" d="M4.966,3267.738c39.592,15.258,78.475,39.434,119.023,42.652c27.23,2.164,55.59-29.379,85.668-38.535
	c36.32-11.06,75.068-14.008,112.553-21.539c4.805-0.965,8.32-8.348,12.437-12.762c-7.761-4.591-15.08-10.355-23.394-13.47
	c-9.809-3.672-20.475-5.055-30.77-7.43c10.543-3.051,20.91-7.711,31.658-8.887c67.064-7.332,134.861-10.271,201.097-22.066
	c39.014-6.948,74.582-34.565,113.533-40.184c45.448-6.556,92.922,1.858,139.444,0.737c6.478-0.155,13.172-17.309,18.599-27.229
	c4.448-8.142,7.159-17.229,10.645-25.902c6.914,9.638,19.281,18.938,19.906,28.966c6.707,107.543,9.315,215.375,17.426,322.793
	c13.281,175.914,27.23,351.858,46.012,527.241c9.945,92.892,93.359,142.063,219.508,137.734
	c320.75-11.008,641.441-24.207,962.259-32.81c69.026-1.848,138.477,11.988,207.729,18.599
	c-48.668,6.409-97.32,17.452-146.008,17.612c-32.867,0.109-65.925-22.832-98.656-22.223c-184.18,3.43-368.262,11.703-552.426,16.492
	c-63.121,1.641-138.539-24.684-187.113,1.359c-109.858,58.901-208.203,5.547-310.473-3.853
	c-25.539-2.349-63.703-29.445-69.824-52.219c-23.637-87.957-40.379-178.267-52.672-268.652
	c-14.773-108.642-21.906-218.313-34.035-327.353c-0.945-8.508-15.156-15.543-23.203-23.266c-4.569,5.641-8.219,12.535-13.875,16.703
	c-22.565,16.629-44.348,43.535-68.953,46.652c-130.875,16.586-262.295,31.625-393.975,38.159c-85.098,4.22-171-6.547-256.465-11.832
	c-18.717-1.155-37.111-7.563-55.654-11.547C4.966,3430.371,4.966,3349.055,4.966,3267.738z"/>
<path fill="#A9A9A9" d="M3636.352,3439.633c17.6-172.07,33.941-344.301,55.514-515.871c1.49-11.858,41.443-25.266,64.301-26.887
	c76.672-5.453,162.34-27.729,228.027-1.75c59.039,23.348,91.184,6.441,137.111-9.883c18.449-6.559,44.543,10.285,67.561,14.008
	c15.215,2.461,31.141,0.523,46.746,0.555c0,111.97,0,223.935,0,335.898c-49.254-5.027-98.514-9.996-147.742-15.215
	c-3.102-0.328-6.195-4.109-8.953-3.742c-65.832,8.742-131.73,17.082-197.363,27.152c-37.066,5.69-74.02,13.063-110.238,22.633
	c-7.852,2.078-12.887,16.527-18.25,25.836c-6.047,10.496-9.383,23.051-17.145,31.848c-3.656,4.137-20.797,3.918-21.711,1.633
	c-4.293-10.737-5.914-22.815-6.836-34.543c-0.719-9.155,0.992-18.504,1.625-27.766c-8.039,8.625-19.855,15.906-23.473,26.098
	C3667.926,3339.207,3652.528,3389.559,3636.352,3439.633z"/>
<path fill="#7E7E7E" d="M888.278,4214.977c-126.642-0.008-685.346,5.445-811.986,5.441c0.117-122.422-18.283-468.371-18.164-590.793
	c2.221-10.113,453.133,196.883,457.645,187.918c9.164-18.207,20.591-35.281,31.084-52.824
	c15.728,11.875,31.566,23.605,47.107,35.719c4.373,3.406,10.107,11.98,11.396,11.271c6.409-3.543,14.241-8.344,16.68-14.604
	c12.219-31.375,22.272-63.591,34.332-95.031c9.738-25.392,22.772-49.59,31.43-75.297c5.707-16.949,4.504-50.586,9.367-51.152
	c35.059-4.074,71.016-3.017,106.309,0.379c5.06,0.488,12.66,23.102,10.724,33.979c-1.892,10.605-13.066,25.625-22.652,27.813
	c-63.891,14.574-64.078,13.602-24.262,62.047c4.69,5.707,8.858,11.848,13.27,17.785c10.105-10.211,20.211-20.422,30.316-30.637
	c5.551,13.84,13.336,27.219,16.301,41.594c26.449,128.108,52.551,256.301,77.277,384.75c3.215,16.699-0.73,35.207-3.56,52.52
	C898.177,4182.469,892.599,4198.621,888.278,4214.977z M734.646,3830.793c-4.504,7.082-9.038,11.035-8.706,14.52
	c0.387,4.082,5.022,7.754,7.815,11.605c3.793-3.723,9.316-6.895,10.73-11.367C745.337,3842.855,739.794,3838.137,734.646,3830.793z"
	/>
<path fill="#808080" d="M888.278,4214.977c4.319-16.354,9.897-32.508,12.612-49.125c2.828-17.313,6.773-35.819,3.56-52.52
	c-24.728-128.449-50.828-256.641-77.277-384.75c-2.965-14.375-10.75-27.754-16.301-41.594
	c-10.105,10.215-20.211,20.426-30.316,30.637c-4.409-5.938-8.578-12.078-13.27-17.785c-39.816-48.445-39.629-47.473,24.262-62.047
	c9.586-2.188,20.762-17.207,22.652-27.813c1.938-10.879-5.664-33.492-10.724-33.98c-35.293-3.395-71.25-4.453-106.309-0.379
	c-4.863,0.566-3.66,34.203-9.367,51.152c-8.656,25.707-21.69,49.906-31.43,75.297c-12.06,31.441-22.113,63.656-34.332,95.031
	c-2.438,6.262-10.271,11.063-16.68,14.604c-1.289,0.711-7.023-7.862-11.396-11.27c-15.541-12.113-31.381-23.845-47.106-35.72
	c-10.494,17.543-21.921,34.617-31.084,52.824c-4.513,8.965-4.843,20.035-7.066,30.148c-15.734-15.941-29.748-42.867-47.539-45.648
	c-43.352-6.781-88.455-2.371-132.852-2.465c17.438-4.664,35.45-7.855,52.184-14.348c23.441-9.09,45.93-20.637,68.826-31.133
	c-20.063-32.668-40.062-65.379-60.595-97.75c-0.442-0.695-10.354,2.75-10.271,3.848c5.494,73.555-49.482,56.078-90.664,62.531
	c-17.385,2.723-33.43,14.987-49.355,24.176c-1.295,0.75,1.459,12.551,5.068,16.996c10.152,12.512,21.734,23.863,32.752,35.676
	c-39.986,0.031-79.973,0.066-119.961,0.098c-13.367,18.668-26.736,37.336-40.105,56c-29.936-34.34-110.658,14.453-111.227-67.953
	c-0.002-34.729-0.002-69.461-0.004-104.19c0.002-35.938,0.002-71.871,0.002-107.81c0-6.641,0.002-13.284,0.002-19.926
	c59.701,3.504,119.451,10.648,179.092,9.816c169.126-2.363,338.191-9.004,507.316-11.688
	c47.797-0.762,118.316-49.233,133.258,39.281c17.391,103.035,26.199,208.094,30.594,312.613
	c7.297,173.434,34.539,212.262,203.449,230.405c71.863,7.72,145.887-3.617,218.844-7.758c25.099-1.426,49.896-10.276,74.91-10.676
	c176.06-2.801,352.142-3.944,528.203-6.354c70.758-0.97,154.262-28.203,208.98,0.435c67.414,35.285,113.218,18.094,170.98,0.703
	c22.48-6.771,49.512,1.586,74.469,3.055c-11.57,20.25-25.059,39.703-33.926,61.078c-4.563,10.996-0.891,25.406-0.941,38.273
	c-33.344-0.004-66.688-0.004-100.031-0.004c-17.594-3.941-35.262-7.59-52.73-12.017c-4.68-1.185-8.758-4.742-13.107-7.207
	c3.832-2.621,7.354-6.746,11.551-7.621c37.047-7.707,74.52-13.629,111.168-22.854c11.188-2.82,20.203-14.258,30.215-21.746
	c-12.18-3.168-24.461-9.363-36.523-8.965c-46.539,1.551-93.504,10.602-139.351,6.401c-37.949-3.478-74.513-30.858-111.767-31.035
	c-47.586-0.224-94.94,21.724-142.94,24.431c-110.207,6.215-220.746,8.483-331.152,8.617c-74.777,0.094-164.125-33.441-220.898-3.133
	c-83.176,44.397-151.18,20.602-227.522,11.487c-36.849-4.396-74.773,0.313-112.215,0.733c-8.355,0.099-16.724-0.483-25.082-0.754
	c8.102,4.234,16.516,7.97,24.233,12.813c12.802,8.03,25.148,16.776,37.688,25.224c-7.121,8.539-14.246,17.082-21.367,25.625
	C949.665,4214.973,918.97,4214.977,888.278,4214.977z M544.985,3670.25c-21.82,24.121-39.412,43.566-57.004,63.012
	c23.819,2.07,48.334,8.406,71.219,4.695c15.104-2.449,27.863-19.348,41.672-29.777C586.54,3698.453,572.21,3688.727,544.985,3670.25
	z M164.905,3632.578c-3.393-1.578-6.785-3.156-10.18-4.734c7.133-11.434,14.264-22.871,21.396-34.309
	c5.498,11.113,10.781,22.344,16.582,33.297c3.133,5.914,7.154,11.359,10.773,17.016c3.25-5.559,6.869-10.938,9.695-16.702
	c34.918-71.25-35.094-31.789-51.586-48.841c-6.283,28.185-12.875,56.313-18.369,84.648c-0.549,2.832,5.592,6.957,8.627,10.48
	C156.198,3659.816,160.552,3646.195,164.905,3632.578z M296.151,3649.234c-10.24,8.272-15.666,12.659-21.094,17.043
	c12.215,6.809,24.43,13.616,36.645,20.422c1.955-3.523,6.471-8.676,5.438-10.293C311.64,3667.777,304.753,3660.035,296.151,3649.234
	z M147.884,3752.352c-8.73-10.297-15.73-18.547-22.73-26.801c-3.646,3.762-11.055,9.73-10.344,10.941
	c5.787,9.879,13.094,18.867,19.938,28.129C137.96,3761.621,141.173,3758.617,147.884,3752.352z M509.786,3607.254
	c0.076,0.059-5.043-5.176-11.258-8.004c-2.011-0.91-6.896,4.5-10.465,7.023c9.666,12.897,19.332,25.797,29,38.694
	C515.196,3635.293,513.331,3625.621,509.786,3607.254z M206.763,3792.754c6.438-4.68,13.846-10.066,21.256-15.449
	c-3.891-2.617-8.5-8.117-11.549-7.358c-15.268,3.801-30.127,9.241-45.131,14.108
	C181.972,3786.664,192.603,3789.273,206.763,3792.754z M220.794,3748.781c4.438-12.773,9.172-20.496,7.436-22.445
	c-6.746-7.555-15.498-13.344-23.756-19.453c-0.354-0.262-4.898,3.711-4.623,4.25
	C204.188,3719.637,208.997,3727.898,220.794,3748.781z M594.63,3564.621c-2.92,7.797-6.543,12.605-5.492,15.938
	c1.234,3.923,6.097,7.97,10.22,9.224c2.397,0.733,6.43-3.898,9.729-6.117C606.231,3579.906,603.38,3576.148,594.63,3564.621z"/>
<path fill="#E6E6E6" d="M4230.622,247.57c-86.758-23.844-174.043-45.934-260.109-72.051
	c-77.434-23.492-151.953-61.816-230.762-73.723c-53.125-8.023-111.527,18.211-167.418,29.863
	c-8.617,1.797-16.652,11.488-24.521,10.965c-84.074-5.582-168.441-9.75-251.75-21.324c-16.75-2.328-39.682-32.918-42.082-52.629
	c-8.457-69.484-61.332-57.57-104.707-64.68c-11.086-1.816-22.363-2.477-33.557-3.672c365.832-0.246,731.66-0.582,1097.492,0.012
	c6.055,0.008,17.277,11.258,17.355,17.371C4231.52,94.313,4230.864,170.945,4230.622,247.57z"/>
<path fill="#CCCCCC" d="M4.964,2291.719c0-61.25,0-122.5,0-183.754c51.463,6.566,102.883,13.473,154.395,19.629
	c141.912,16.957,283.516,39.609,425.943,47.781c68.859,3.953,139.215-20.055,209.109-29.895c8.207-1.152,24.684,6.043,25.676,11.487
	c17.141,94.023,32.453,188.379,48.164,282.664c-2.32,17.738-7.168,35.563-6.586,53.207c11.172,338.273,22.98,676.523,34.66,1014.781
	c-0.021,36.021-0.043,72.035-0.063,108.051c-6.651-125.397-14.366-250.754-19.733-376.211
	c-11.521-269.155-21.734-538.366-32.672-807.551c-3.699-91.035-8.539-153.172-143.142-130.82
	c-150.354,24.97-308.817,1.582-463.736-1.616C159.622,2297.875,82.302,2294.367,4.964,2291.719z"/>
<path fill="#EAEAEA" d="M4.956,1731.793c24.785,67.742,76.264,18.027,114.43,26.848c12.934,2.988,26.275,13.353,34.584,24.09
	c5.805,7.505,3.367,21.384,4.611,32.41c26.299-4.276,52.523-9.104,78.928-12.569c11.094-1.457,30.016-4.172,32.736,0.719
	c34.791,62.547,94.754,55.816,152.473,61.051c92.947,8.431,185.576,20.668,278.166,32.629c52.355,6.763,126.98-30.983,133.004,70.25
	c3.563,59.931,19.402,119.023,25.91,178.906c9.892,91.012,16.469,182.383,24.453,273.598c-0.012,1.302-0.012,2.603-0.004,3.902
	c-2.641,30.672-5.277,61.344-7.918,92.017c-10.719-121.441-16.648-243.599-34.496-363.984
	c-7.207-48.621-35.832-130.16-62.676-133.543c-117.383-14.801-237.789-3.359-356.908-7.266
	c-139.199-4.566-278.201-15.181-417.289-23.172C4.958,1902.383,4.958,1817.086,4.956,1731.793z"/>
<path fill="#868686" d="M2300.196,4214.977c0.051-12.867-3.621-27.276,0.941-38.272c8.867-21.375,22.355-40.828,33.926-61.078
	c-24.957-1.47-51.988-9.824-74.469-3.056c-57.762,17.392-103.566,34.582-170.98-0.703c-54.719-28.637-138.224-1.401-208.98-0.434
	c-176.063,2.41-352.145,3.555-528.203,6.355c-25.016,0.397-49.813,9.25-74.91,10.676c-72.957,4.141-146.979,15.477-218.844,7.758
	c-168.91-18.146-196.151-56.974-203.449-230.406c-4.395-104.521-13.202-209.578-30.594-312.613
	c-14.94-88.516-85.461-40.043-133.258-39.281c-169.125,2.685-338.188,9.324-507.316,11.688
	c-59.641,0.832-119.391-6.313-179.092-9.816c0-14.702-0.002-29.405-0.002-44.104c18.543,3.983,36.938,10.391,55.654,11.547
	c85.465,5.285,171.367,16.051,256.465,11.832c131.68-6.535,263.1-21.574,393.975-38.16c24.605-3.117,46.388-30.022,68.953-46.652
	c5.656-4.168,9.306-11.063,13.875-16.702c8.047,7.723,22.259,14.758,23.203,23.266c12.129,109.039,19.263,218.711,34.035,327.353
	c12.293,90.387,29.035,180.695,52.672,268.652c6.121,22.772,44.285,49.871,69.824,52.219c102.27,9.398,200.613,62.754,310.473,3.852
	c48.574-26.043,123.992,0.281,187.113-1.358c184.164-4.789,368.246-13.063,552.426-16.492c32.73-0.608,65.789,22.332,98.656,22.224
	c48.688-0.16,97.34-11.203,146.008-17.613c91.387,8.371,142.939-48.648,163.82-122.668c25.957-91.992,35.922-188.996,47.031-284.504
	c7.094-60.988,3.754-123.191,5.09-184.853c0.922-39.754,1.844-79.504,2.766-119.258c2.311,36.34,4.842,72.664,6.867,109.017
	c2.371,42.473-5.699,88.848,8.906,126.487c19.063,49.121,55.957,91.313,85.094,136.539c1.936,3.004,4.707,9.216,4.492,9.332
	c-90.414,51.095-26.875,131.742-31.469,196c-5.348,74.849,19.133,152.078,33.336,227.771c1.875,10,19.492,17.047,29.82,25.461
	c-33.301,0-66.602,0-99.902-0.004c-5.008-10.398-14.039-20.656-14.422-31.228c-6.395-175.949-11.68-351.938-17.414-527.91
	c-0.129-3.965-2.664-7.848-4.078-11.766c-1.281,4.18-3.648,8.352-3.676,12.539c-0.305,43.94,1.492,87.969-0.715,131.801
	c-2.672,53.121-6.566,106.358-13.789,159.021c-6.711,48.918-20.777,96.832-27.328,145.762c-5.379,40.156-4.473,81.156-6.355,121.781
	C2390.981,4214.973,2345.59,4214.973,2300.196,4214.977z"/>
<path fill="#E5E5E5" d="M4.96,1987.676c139.088,7.992,278.09,18.605,417.289,23.172c119.119,3.906,239.525-7.535,356.908,7.267
	c26.844,3.383,55.469,84.922,62.676,133.543c17.848,120.387,23.777,242.543,34.496,363.983c-0.008,3.992-0.016,7.98-0.021,11.97
	c-0.026,73.358-0.051,146.715-0.077,220.073c-2.66-102.684-5.32-205.366-7.98-308.055c-15.711-94.281-31.023-188.637-48.164-282.66
	c-0.992-5.444-17.469-12.641-25.676-11.487c-69.896,9.84-140.25,33.848-209.109,29.895c-142.428-8.172-284.031-30.823-425.943-47.78
	c-51.512-6.156-102.932-13.063-154.395-19.629C4.964,2067.871,4.962,2027.773,4.96,1987.676z"/>
<path fill="#EFEFEF" d="M3623.25,2481.066c-4.262-33.742,34.445-75.023,10.469-106.168c-4.07-5.289-9.223-9.75-13.875-14.595
	c13.82-9.008,27.34-25.309,41.512-25.895c139.928-5.785,279.967-8.945,419.971-12.888c59.801-1.684,95.598-3.444,155.395-5.176
	c0,56.09-5,112.185-5,168.273c-80.191,6.608-131.273,15.469-211.594,19.242c-95.73,4.491-191.729,3.522-287.393,8.823
	c-7.279,0.402-26.84,87.281-28.447,104.734c-16.027,173.965-20.646,292.258-35.91,466.297"/>
<path fill="#7E7E7E" d="M980.36,4214.973c7.121-8.543,14.246-17.086,21.366-25.625c-12.538-8.444-24.887-17.19-37.688-25.223
	c-7.719-4.844-16.133-8.578-24.234-12.813c8.359,0.27,16.728,0.852,25.082,0.754c37.441-0.422,75.367-5.129,112.215-0.734
	c76.345,9.113,144.349,32.91,227.523-11.488c56.772-30.309,146.121,3.228,220.897,3.133c110.406-0.133,220.945-2.401,331.152-8.617
	c48-2.707,95.355-24.651,142.941-24.43c37.254,0.176,73.815,27.559,111.766,31.035c45.847,4.199,92.812-4.852,139.351-6.402
	c12.064-0.397,24.346,5.797,36.523,8.965c-10.012,7.488-19.027,18.926-30.215,21.746c-36.648,9.228-74.121,15.148-111.168,22.855
	c-4.195,0.875-7.719,5-11.551,7.621c4.352,2.465,8.43,6.023,13.109,7.207c17.469,4.426,35.137,8.074,52.729,12.016
	C1793.563,4214.973,1386.962,4214.973,980.36,4214.973z"/>
<path fill="#B1B1B1" d="M884.31,3783.676c-21.397-439.145-42.483-878.309-66.121-1317.332
	c-0.551-10.238-30.655-28.108-45.577-26.772c-71.48,6.401-142.466,18.323-213.656,28.047
	c-91.267,12.469-182.771,23.358-273.779,37.457c-78.727,12.195-156.701,29.363-235.527,40.715
	c-13.559,1.953-29.723-14.19-44.684-21.977c0-44.031,0-88.063-0.002-132.095c43.537,6.978,87.342,21.246,130.561,19.648
	c170.236-6.301,340.277-17.813,510.42-26.84c34.983-1.859,70.129-0.574,105.133-2.223c20.27-0.953,41.211-9.074,60.203-5.423
	c7.789,1.5,15.266,25.324,16,39.353c4.155,79.09,5.405,158.328,9.145,237.445c12.176,257.823,25.715,515.59,37.254,773.44
	C878.989,3545.895,880.872,3664.82,884.31,3783.676z"/>
<path fill="#BFBFBF" d="M884.31,3783.676c-3.438-118.854-5.319-237.781-10.633-356.555
	c-11.539-257.852-25.078-515.617-37.254-773.441c-3.738-79.116-4.988-158.354-9.145-237.444c-0.734-14.027-8.211-37.853-16-39.353
	c-18.992-3.652-39.935,4.469-60.203,5.422c-35.004,1.648-70.148,0.363-105.133,2.224c-170.144,9.026-340.185,20.539-510.42,26.84
	c-43.219,1.598-87.023-12.672-130.561-19.647c0.002-33.332,0.002-66.664,0.002-100c77.338,2.647,154.658,6.155,232.016,7.754
	c154.917,3.198,313.383,26.586,463.736,1.616c134.603-22.352,139.441,39.785,143.142,130.82
	c10.938,269.185,21.151,538.396,32.672,807.551c5.366,125.457,13.082,250.813,19.733,376.211c0.008,6.66,0.017,13.316,0.023,19.978
	c0.008,59.988,0.016,119.977,0.022,179.961c-0.022,5.371-0.043,10.738-0.065,16.108c-3.98-13.366-7.961-26.729-11.941-40.098
	C884.306,3788.973,884.306,3786.324,884.31,3783.676z"/>
<path fill="#7E7E7E" d="M4.968,3787.719c0.568,82.406,81.291,33.613,111.227,67.953c0.021,119.766,0.043,239.531,0.063,359.297
	c-85.346,17.219-125.367-3.473-114.514-104.055C13.245,4004.309,4.735,3895.543,4.968,3787.719z"/>
<path fill="#808080" d="M2436.372,4214.969c1.883-40.625,0.977-81.625,6.355-121.78c6.551-48.931,20.617-96.845,27.328-145.763
	c7.223-52.659,11.117-105.897,13.789-159.02c2.207-43.832,0.41-87.859,0.715-131.801c0.027-4.188,2.395-8.359,3.676-12.539
	c1.414,3.918,3.949,7.801,4.078,11.766c2.129,65.336,4.934,184.5,17.414,527.91c0.383,10.57,9.414,20.828,14.422,31.227
	C2494.887,4214.969,2465.629,4214.969,2436.372,4214.969z"/>
<path fill="#FAFAFA" d="M1611.403,0.316c-45.664,24.445-97.148,42.074-135.646,74.918
	c-59.387,50.668-109.883,111.758-164.147,168.43c29.608-43.078,63.434-84.027,86.809-130.258c9.695-19.18-3.168-49.633-5.348-74.992
	c-1.086-12.656-1.207-25.391-1.767-38.09C1464.673,0.32,1538.04,0.32,1611.403,0.316z"/>
<path fill="#868686" d="M156.302,3799.672c-10.566,9.523-21.133,19.043-31.695,28.57c-0.193,128.938-0.387,257.871-0.58,386.805
	c-2.59-0.022-5.18-0.051-7.77-0.078c-0.02-119.766-0.041-239.53-0.063-359.297C129.563,3837.008,142.933,3818.34,156.302,3799.672z"
	/>
<path fill="#7E7E7E" d="M4.966,3575.719c0,35.938,0,71.871-0.002,107.81C4.966,3647.59,4.966,3611.656,4.966,3575.719z"/>
<path fill="#E2E2E2" d="M1299.591,335.09c-106.008-13.297-106.102-59.355-65.647-121.305c4.598-7.043-22.384-23.992-28.095-31.742
	c-11.02-14.941-26.5-26.59-40.133-39.605c-2.906,3.992-8.238,7.918-8.344,11.984c-1.141,43.406-3.754,86.953-1.508,130.234
	c4.651,89.707-69.648,50.328-99.228,49.945c-61.371-0.797-95.336,5.988-96.227,76.676c-0.195,15.633-32.845,30.242-49.281,46.594
	c-6.359,6.324-12.875,16.156-12.949,24.449c-0.127,14.207,3.771,30.664,5.396,45.328c129.676,0,258.352,0,388.6,0
	c19.281-26.438,23.787-69.193,26.478-122.863C1307.306,391.41,1328.524,338.719,1299.591,335.09z"/>
<path fill="#E2E2E2" d="M1037.728,200.848c-15.137-13.539-30.647-25.637-29.797-26.926c9.613-14.555,21.734-27.449,33.185-40.789
	c5.508,5.02,16.41,11.258,15.594,14.844C1053.177,163.559,1046.231,178.363,1037.728,200.848z"/>
<path fill="#7C7C7C" d="M756.169,875.113c-2.82-2.188-5.441-4.224-8.066-6.254c-7.709,10.983-13.34,17.166-19.909,29.391
	c-1.349,2.512,3.754,8.488,5.891,12.867C741.146,899.602,748.212,888.086,756.169,875.113z"/>
<path fill="#FFFFFF" d="M2448.192,2955.563c-8.328-0.52-23.496,0.392-23.949-1.78c-6.363-30.367-13.371-61.009-15.117-91.867
	c-8.863-156.512-13.352-313.348-26.414-469.479c-2.824-33.793-28.535-71.789-54.766-95.742
	c-24.895-22.73-63.18-36.605-97.523-42.004c-74.773-11.746-89.422-64.238-112.566-124.551
	c-21.772-56.742-67.151-105.82-107.719-153.527c-33.164-39.008-77.301-68.617-111.065-107.211
	c-15.837-18.103-19.203-47.392-27.238-71.935c-4.422-13.508-3.941-29.315-10.724-41.207c-13.047-22.875-29.848-43.59-44.762-65.426
	c-6.379-9.34-9.805-22.043-18.215-28.422c-42.647-32.348-86.559-63.035-129.848-94.543c-5.914-4.305-10.849-9.949-16.234-14.973
	c-2.883,4.254-8.953,9.516-7.992,12.551c2.027,6.397,8.099,11.401,11.859,17.391c10.195,16.228,20.047,32.668,30.039,49.023
	c-4.566-0.638-10.391,0.313-13.5-2.152c-29.695-23.555-60.396-46.141-87.848-72.133c-23.099-21.867-40.31-49.992-63.621-71.578
	c-34.664-32.09-72.66-60.555-108.73-91.168c-18.152-15.406-37.647-30.258-51.883-48.914c-10.016-13.133-21.832-41.777-16.41-47.262
	c75.27-76.203,23.52-160.625,16.891-241.195c-0.94-11.473-21.828-24.559-36.137-30.969c-26.234-11.75-55.816-16.281-81.555-28.845
	c-50.931-24.854-104.445-69.332-156.392-19.37c-37.823,36.379-76.647,88.711-82.616,137.862
	c-14.656,120.742-6.892,243.996-14.802,365.806c-18.297,281.688-43.397,562.953-60.03,844.727
	c-9.06,153.427-6.267,307.539-9.492,461.328c-0.224,10.461-6.109,20.801-9.363,31.195c-4.734-3.836-9.473-7.673-14.207-11.509
	c0.012,5.316,0.023,10.638,0.035,15.953c1.359,18.98,2.082,38.035,4.254,56.922c2.25,19.591,5.906,39.017,8.949,58.517
	c2.25-19.483,4.772-38.94,6.676-58.461c1.719-17.621,2.762-35.31,4.102-52.969c2.673-58.664,5.341-117.332,8.009-175.996
	c1.332-82.668,2.664-165.332,4-248c5.328-41.332,10.659-82.668,15.991-124c14.691-154.898,26.535-310.142,45.238-464.556
	c9.922-81.918,30.801-162.616,49.547-243.215c2.063-8.862,31.07-21.194,33.392-18.703c16.155,17.353,32.473,36.595,41.313,58.263
	c15.224,37.328,24.556,77.022,37.691,115.27c1.815,5.285,12.988,12.552,16.828,11.074c20.059-7.703,41.246-15.25,57.852-28.219
	c11.297-8.816,15.703-26.461,23.188-40.156c7.715,11.711,18.738,22.43,22.602,35.297c24.137,80.414,58.941-6.647,85.621,6.306
	c19.047,9.25,46.184,21.241,50.668,37.319c11.922,42.734,12.563,88.508,20.039,132.676c1.551,9.16,13.301,23.66,20.273,23.617
	c31.516-0.199,63.008-4.68,94.5-7.733c13.655-1.324,31.254-9.148,40.276-3.388c56.91,36.32,114.582,72.392,166.547,115.164
	c31.56,25.978,49.25,68.664,80.535,95.142c38.855,32.879,83.496,60.336,128.988,83.574c50.449,25.77,104.172,45.487,157.405,65.328
	c49.936,18.608,101.971,31.698,151.5,51.229c73.414,28.945,91.625,87.363,93.346,163.06c4.65,204.969,19.279,409.703,24.701,614.668
	c3.777,142.762-1.352,285.746-1.74,428.633c-0.031,12.354,5.646,24.723,8.676,37.086c2.324-12.195,5.453-24.305,6.809-36.609
	c3.188-28.992,5.531-58.078,8.215-87.125c11.961-98.664,23.926-197.328,35.891-295.992c0.061-46.655,0.117-93.309,0.176-139.961
	C2448.301,2976.984,2448.247,2966.273,2448.192,2955.563z"/>
<path fill="#FCFCFC" d="M2448.356,2987.695c-0.055-10.711-0.109-21.422-0.164-32.133c0.012-61.32,0.023-122.642,0.035-183.966
	c0.004-133.313,0.008-266.625,0.012-399.938c0.012-13.336,0.023-26.668,0.035-40.004c0.004-28.004,0.008-56.009,0.012-84.009
	c0.004-2.664,0.012-5.332,0.016-7.996c6.66-110.741,11.551-221.629,20.34-332.198c20.061-252.353,41.689-504.578,64.406-756.699
	c0.961-10.68,26.512-29.604,28.395-28.207c43.238,32.027,85.203,65.853,126.238,100.707c7.418,6.297,8.285,19.723,14.652,27.938
	c30.988,39.979,62.594,79.495,94.871,118.44c2.102,2.535,12.621,0.461,17.379-2.469c2.789-1.715,0.637-10.078,2.926-14.228
	c10.316-18.698,19.48-38.801,33.789-53.922c3.07-3.246,34.953,9.563,37.646,19.349c6.947,25.288,5.457,53.004,6.49,79.78
	c1.25,32.445,8.6,66.742,0.695,96.938c-10.738,41.026-32.926,79.16-51.391,117.969c-3.879,8.152-19.746,17.504-18.395,20.021
	c5.355,9.969,14,22.366,23.84,25.063c80.008,21.922,161.035,40.195,240.809,62.891c69.465,19.759,68.191,60.648,43.867,112.853
	c-25.223,54.125-16.672,126.051-15.016,189.988c1.32,50.823,39,123.034,17.344,147.469
	c-45.09,50.871-116.102,82.733-181.535,110.422c-58.938,24.94-124.645,33.892-187.367,49.892c-2.664,0.008-5.324,0.02-7.988,0.026
	c-12.004-0.008-24.008-0.016-36.012-0.022c18.055-4.465,36.473-7.813,54.102-13.578c93.484-30.578,186.842-61.543,280.086-92.828
	c45.363-15.223,52.475-89.191,33.217-128.402c-23.066-46.965-24.23-104.809-33.992-158.102c-2.449-13.383-4.867-28.297-1.441-40.918
	c7.277-26.801,15.055-54.57,29.148-78.021c9.145-15.215,29.813-23.5,45.32-34.891c-11.074-14.043-20.049-37.685-33.543-40.633
	c-125.566-27.431-252.211-49.91-377.867-76.97c-42.914-9.246-83.402-29.379-126.07-40.379c-14.344-3.694-43.91,1.742-46.305,9.355
	c-23.238,73.969-56.371,148.625-59.887,224.332c-15.191,327-21.379,654.422-30.625,981.695c-0.203,7.133,2.193,14.34,3.383,21.512
	c0.348,2.719,0.689,5.438,1.035,8.156c-1.535,29.215-3.07,58.43-4.604,87.645C2453.614,2968.98,2450.985,2978.336,2448.356,2987.695
	z M2804.524,1577.426c7.902-9.766,19.684-19.074,23.609-30.973c2.719-8.238-5.393-20.047-8.66-30.266
	c-21.719,15.366-43.438,30.733-65.156,46.102C2767.821,1566.359,2781.325,1570.43,2804.524,1577.426z"/>
<path fill="#FFFFFF" d="M2448.239,2371.66c-0.004,133.313-0.008,266.625-0.012,399.938"/>
<path fill="#FFFFFF" d="M2568.043,2543.195c-1.145,49.52-5.09,98.973-7.777,148.457"/>
<path fill="#FFFFFF" d="M2564.68,2434.633c3.814-29.281,47.887-60.406,80.543-76.797c30.936-15.531,71-12.863,107.051-18.199
	c12.004,0.004,24.01,0.004,36.014,0.008c-33.336,7.363-66.543,20.355-100.023,21.099"/>
<path fill="#FCFCFC" d="M896.263,2807.684c0.013,5.316,0.023,10.638,0.035,15.953c-0.02,18.703-0.039,37.406-0.059,56.109
	c-3.988-58.699-7.978-117.398-11.965-176.098c2.706,33.358,5.418,66.719,8.125,100.078
	C893.688,2805.047,894.974,2806.363,896.263,2807.684z"/>
<path fill="#FFFFFF" d="M2448.286,2247.648c-0.004,28-0.008,56.004-0.012,84.008
	C2448.278,2303.652,2448.282,2275.648,2448.286,2247.648z"/>
<path fill="#EFEFEF" d="M2514.403,2407.723c0.418-23.906,27.418-60.977,49.781-68.281c63.668-20.789,133.969-22,196.789-44.504
	c86.887-31.125,122.129-131.479,90.109-214.741c-17.039-44.313-27.496-91.621-36.148-138.457
	c-3.48-18.828,13.273-42.246,8.031-59.75c-20.414-68.164,16.848-87.914,72.547-96.656c5.613-0.879,10.469-6.603,15.672-10.074
	c-4.699-4.354-9.25-12.289-14.125-12.496c-34.859-1.477-70.133,1.621-104.621-2.383c-84.887-9.854-264.305,81.974-282.598,152.396
	c-26.402,101.647-59.047,203.949-66.852,307.641c-12.875,171.043-8.023,343.422-10.643,515.238
	c-1.516,42.723-3.029,85.449-4.543,128.176c-1.184-7.176-3.582-14.383-3.379-21.516c9.246-327.273,15.436-654.695,30.625-981.695
	c3.518-75.707,36.648-150.363,59.889-224.332c2.395-7.613,31.961-13.051,46.305-9.355c42.668,11,83.156,31.133,126.07,40.379
	c125.654,27.06,252.301,49.539,377.865,76.97c13.496,2.948,22.471,26.59,33.543,40.633c-15.508,11.391-36.176,19.676-45.318,34.891
	c-14.096,23.449-21.871,51.22-29.148,78.021c-3.426,12.621-1.008,27.535,1.441,40.918c9.762,53.293,10.926,111.137,33.99,158.102
	c19.26,39.211,12.148,113.18-33.215,128.402c-93.246,31.285-186.602,62.25-280.086,92.828c-17.629,5.766-36.047,9.113-54.102,13.578
	"/>
<path fill="#EFEFEF" d="M3506.227,3727.902c-253.732,8.051-507.861,3.715-761.854,3.676c-18.648-3.965-37.43-7.391-55.926-11.977
	c-132.879-32.97-156.096-13.125-152.324-158.379c1.328-51.234-0.191-102.535,0.199-153.802"/>
<path fill="#EFEFEF" d="M2555.114,3610.188c1.195,27.328,33.531,67.509,60.109,76.591c57.395,19.616,120.371,22.901,181.063,32.871
	c28.012,0.026,56.023,0.059,84.031,0.09c1.273,0.06,2.543,0.06,3.813,0.004c162.117,3.371,324.227,7.117,486.355,9.617
	c19.297,0.297,38.699-6.207,58.055-9.56c3.91-0.027-3.91-21.563,0-21.59c15.941-0.051,39.146,3.484,52.4-2.504
	c48.961-22.125,127.002-13.574,145.197-52.035c25.617-54.145-3.697-139.104-0.881-204.039
	c6.607-118.656-12.02-229.328-5.412-347.984c2.711-1.332,14.15,1.332,16.857,0"/>
<path fill="#FFFFFF" d="M3428.54,3719.801c-19.355,3.353-38.758,9.855-58.055,9.56c-162.129-2.5-324.238-6.246-486.355-9.617
	C3065.598,3719.762,3247.071,3719.781,3428.54,3719.801z"/>
<path fill="#FEFEFE" d="M827.13,1587.859c-1.565,134.434,23.824,269.184,37.156,403.789c-2.646-208.867-7.789-417.746-7.199-626.605
	c0.338-119.846,3.021-239.684,5.957-359.52C850.876,1199.686,829.396,1393.641,827.13,1587.859z"/>
<path fill="#FEFEFE" d="M868.282,783.648c-1.519,73.959-3.426,147.916-5.238,221.875c0.254-4.048,0.527-8.095,0.773-12.142
	C868.044,923.637,866.946,853.57,868.282,783.648z"/>
<path fill="#FEFEFE" d="M1024.286,667.648c15.324,0,30.656,0.409,45.965-0.063c82.02-2.522,164.027-5.266,246.043-7.93
	C1218.958,662.32,1121.622,664.984,1024.286,667.648z"/>
<path fill="#FEFEFE" d="M884.302,2355.633c1.328,37.34,2.656,74.68,3.984,112.017c-1.348-14.677-2.691-29.349-4.039-44.023
	c-0.008-1.301-0.008-2.602,0.004-3.901C884.267,2398.363,884.286,2377,884.302,2355.633z"/>
<path fill="#C1C1C1" d="M896.243,3831.719c0.022-5.371,0.043-10.738,0.065-16.108c1.863,4.979,2.652,10.797,5.773,14.797
	c14.16,18.176,28.979,35.84,43.563,53.69c7.527-20.383,19.978-40.332,21.798-61.211c12.901-148.129,23.608-296.444,35.159-444.69
	c0.289-3.715,2.188-7.301,3.336-10.949c1.591,0.738,4.246,1.125,4.617,2.259c19.125,58.698,57.73,119.479,51.953,175.694
	c-6.957,67.707,40.199,47.289,64.105,63.988c44.895,31.358,123.815,28.551,112.465,115.703c-1.099,8.422,9.645,18.914,16.397,27.219
	c0.949,1.164,10.474-6.702,16.203-7c18.809-0.965,43.103-7.616,55.23,1.414c16.168,12.043,19.448,49.341,34.401,53.449
	c33.16,9.113,76.063-7.188,104.431,7.402c74.676,38.418,141.862,91.19,215.737,131.438c39.449,21.492,85.945,37.781,130.349,40.888
	c105.367,7.362,211.383,5.426,317.128,7.522c2.859,0.055,7.477,2.676,8.215,5.051c33.547,108.087,112.875,59.906,171.148,40.841
	c38.918-12.738,67.035-58.488,99.984-89.466c0.039-1.305,0.07-2.608,0.098-3.918c3.977-0.02,7.953-0.039,11.93-0.059
	c-0.043,6.647-0.086,13.293-0.129,19.938c-2.684,5.302-5.367,10.603-8.051,15.902c-1.289,0.039-2.578,0.082-3.867,0.129
	c-89.031,94.027-184.418,146.965-304.574,48.733c-6.113-5-17.898-4.176-27.047-4.194c-165.16-0.367-330.609,5.645-495.398-2.271
	c-169.832-8.152-343.539-10.516-483.035-138.047c-12.203-11.16-72.406,23-105.098,44.168c-19.125,12.383-27.906,40.742-41.34,61.918
	c-16.988-20.375-34.152-40.609-50.789-61.266c-2.742-3.402-3.185-8.66-4.688-13.06c-0.008-5.324-0.012-10.652-0.02-15.978
	C896.278,3874.34,896.263,3853.027,896.243,3831.719z"/>
<path fill="#A9A9A9" d="M3412.208,3747.742c21.281-0.074,34.412-47.896,55.693-47.969c48.07-17.289,112.484-12.156,160.555-29.445
	c-6.664,58.055-17.115,142.367-29.229,199.258c-17.672,82.977-37.758,166.211-67.668,245.227
	c-6.898,18.224-57.254,23.875-88.582,28.105c-53.766,7.258-108.254,9.645-162.523,12.563
	c-49.301,2.648-104.387,17.728-146.641,1.138c-52.605-20.655-92.738-71.146-141.883-103.18
	c-39.777-25.931-85.957-41.841-127.191-65.816c-17.137-9.969-26.902-32.008-43.41-43.819
	c-22.859-16.355-49.559-27.263-73.215-42.652c-7.043-4.582-9.563-16.297-13.832-24.906c-5.328-10.734-7.77-24.828-16.188-31.547
	c-8.18-6.535-22.34-5.582-33.875-7.918c15.805-3.277,31.48-8.344,47.441-9.535c94.262-7.027,188.594-13.105,282.887-19.742
	c4.863-0.344,9.57-2.906,14.352-4.434c-4.727-2.465-9.203-6.246-14.219-7.195c-86.094-16.285-172.25-32.219-258.395-48.23
	c16.02,0.031,32.039,0.063,48.063,0.095c6.855,2.409,13.566,6.348,20.586,7.012c132.926,12.574,265.895,24.66,398.813,37.271
	c8.563,0.813,16.801,5.039,25.188,7.676c-7.613,2.957-15.008,7.574-22.875,8.613c-72.551,9.594-145.492,16.813-217.516,29.344
	c-12.828,2.233-33.926,30.758-30.664,38.594c12.703,30.512,30.375,60.609,52.68,84.914c15.992,17.43,41.273,28.012,64.234,36.977
	c33.535,13.091,69.359,20.277,102.992,33.164c31.863,12.211,62.645,41.324,93.039,40.173
	c51.594-1.953,103.297-19.341,153.453-35.027c37.973-11.879,83.965-22.358,107.363-49.728
	c23.262-27.207,20.926-75.319,33.068-113.223c27.299-85.172-9.24-108.754-88.254-96.777c-24.641,3.738-50.18,4.086-75.111,2.652
	c-22.842-1.315-45.424-7.133-68.117-10.969C3372.887,3761.516,3392.547,3754.629,3412.208,3747.742z"/>
<path fill="#ADADAD" d="M2452.227,2395.59c-23.914-91.695,9.129-158.285,96.57-188.676c107.393-37.328,78.051-136.754,99.59-213.285
	c11.281-40.09,20.836-81.129,37.479-118.973c5.104-11.613,37.18-24.012,46.18-18.508c16.207,9.905,33.23,32.526,34.324,50.77
	c5.922,98.977,13.348,198.703,6.074,297.121c-2.199,29.723-45,65.109-77.475,82.102c-64.746,33.884-152.857,40.746-197.447,89.648
	c-32.514,35.66-12.75,120.789-12.871,183.871c-0.66,345.867-0.604,691.738-0.004,1037.609
	c0.164,94.457,63.029,139.233,194.107,142.563c24.594,0.625,49.09,5.055,73.629,7.727c-83.633-17.914-167.715-34.112-250.406-55.645
	c-11.965-3.113-24.422-31.746-24.598-48.695c-4.047-390.285-6.129-780.59-9.771-1170.879
	C2467.368,2446.711,2457.575,2421.172,2452.227,2395.59z"/>
<path fill="#ADADAD" d="M2420.204,3959.609c0.043-6.646,0.086-13.289,0.129-19.938c5.371-18.397,14.188-36.539,15.563-55.229
	c10.234-139.125,23.592-278.234,27.203-417.578c6.348-244.988,6.453-490.134,9.176-735.216c0.053-33.262,0.104-66.52,0.156-99.78
	c3.939-77.418,7.879-154.841,11.816-232.259c-0.32,227.789,1.664,455.613-1.707,683.359
	c-2.625,177.604-11.914,355.108-18.238,532.66c-7.992,98.707-15.98,197.418-23.969,296.125
	C2433.622,3927.707,2426.915,3943.656,2420.204,3959.609z"/>
<path fill="#ADADAD" d="M2440.333,3911.754c7.988-98.707,15.977-197.418,23.969-296.125c-3.152,88.012-5.844,176.043-10.047,264.008
	C2453.735,3890.539,2445.168,3901.059,2440.333,3911.754z"/>
<path fill="#A9A9A9" d="M3938.094,3244.457c10.918,11.543,14.648,15.488,18.379,19.43"/>
<path fill="#ADADAD" d="M3505.438,3698.211c-19.66,6.887-109.855,67.141-129.516,74.023c22.695,3.836,22.582,5.815,45.422,7.133
	c24.934,1.434,50.473,1.086,75.113-2.652c79.012-11.977,115.551,11.605,88.254,96.777c-12.146,37.902-9.811,86.016-33.07,113.223
	c-23.398,27.367-69.391,37.848-107.363,49.727c-50.156,15.688-101.859,33.074-153.453,35.027
	c-30.395,1.152-61.176-27.961-93.039-40.172c-33.633-12.887-69.457-20.074-102.992-33.164
	c-22.961-8.965-48.242-19.547-64.234-36.977c-22.305-24.306-39.977-54.402-52.68-84.914c-3.262-7.836,17.836-36.359,30.664-38.595
	c72.023-12.53,144.965-19.75,217.516-29.344c7.867-1.039,15.264-5.656,22.875-8.613c-8.387-2.637-16.625-6.862-25.188-7.676
	c-132.918-12.608-265.887-24.695-398.813-37.271c-7.02-0.664-13.73-4.602-20.586-7.012
	C3006.965,3747.738,3302.817,3698.211,3505.438,3698.211z"/>
<path fill="#D5D5D5" d="M2536.321,3407.422c-0.391,51.267,1.129,102.566-0.199,153.801c-3.77,145.254,19.445,125.41,152.324,158.379
	c18.496,4.586,37.277,8.013,55.926,11.978c-54.625-9.867-111.508-13.57-162.863-32.375c-23.367-8.555-50.492-46.738-50.902-71.892"
	/>
<path fill="#D5D5D5" d="M2504.028,2486.91c1.395-154.56,0.391-154.57,156.547-175.512
	c120.547-16.164,155.441-59.742,146.402-180.845c-5.797-77.68-4.68-156.434-18.027-232.719
	c-5.547-31.699-42.805-84.016-62.027-82.453c-69.488,5.648-120.043,47.332-126.395,124.974c-3.07,37.534,4.57,79.551-10.008,111.647
	c-19.141,42.152-59.648,74.078-83.195,114.887c-26.797,46.445-41.723,77.4-46.48,128.248
	c-9.828,105.05,11.561,230.761,11.586,336.729c-0.055,33.262-0.104,66.52-0.156,99.781c-2.641,1.336-13.34-161.355-15.979-160.021
	c2.617-171.815-12.078-180.935,0.797-351.979c7.805-103.69-14.852-210.549,11.551-312.196
	c18.293-70.422,238.91-156.931,323.797-147.074c34.488,4.004,69.762,0.906,104.621,2.383c4.875,0.207,9.426,8.142,14.125,12.496
	c-5.203,3.474-10.059,9.195-15.672,10.074c-55.699,8.742-92.961,28.492-72.547,96.656c5.242,17.504-11.512,40.922-8.031,59.75
	c8.652,46.836,19.109,94.145,36.148,138.456c32.02,83.263-3.225,183.617-90.109,214.742
	c-62.82,22.504-133.121,23.715-196.789,44.504c-22.363,7.305-49.363,44.375-49.781,68.281"/>
<path fill="#B1B1B1" d="M896.317,3911.625c1.504,4.398,1.944,9.656,4.688,13.059c16.637,20.656,33.801,40.892,50.789,61.267
	c13.434-21.176,22.215-49.535,41.34-61.918c32.691-21.168,92.896-55.328,105.099-44.168
	c139.495,127.531,313.202,129.896,483.034,138.047c164.789,7.914,330.238,1.902,495.398,2.271c9.148,0.02,20.934-0.806,27.047,4.194
	c120.156,98.23,215.542,45.293,304.574-48.733c-53.707,104.508-205.465,133.34-305.105,70.891
	c-31.409-19.688-87.938,1.978-133,2.555c-151.805,1.957-303.905,9.056-455.327,2.017c-91.853-4.271-182.438-32.586-274.228-45.594
	c-11.531-1.634-27.516,23.78-40.414,37.616c-10.328,11.074-19.104,23.595-28.569,35.47c-9.238-11.173-19.646-21.591-27.431-33.695
	c-10.914-16.979-16.805-47.242-30.25-50.68c-42.043-10.754-90.574-83.435-129.895,5.641c-3.91,8.859-33.478,16.535-34.273,15.138
	C930.571,3981.336,913.653,3946.363,896.317,3911.625z"/>
<path fill="#B1B1B1" d="M896.243,3831.719c0.02,21.31,0.035,42.621,0.055,63.93c-3.996-34.676-7.996-69.352-11.996-104.022
	C888.282,3804.988,892.263,3818.352,896.243,3831.719z"/>
<path fill="#959595" d="M720.337,2755.598c-17.547-1.051-35.094-2.104-52.641-3.16c1.871-2.18,4.112-6.477,5.563-6.223
	c15.738,2.746,31.349,6.211,46.996,9.48C720.251,2755.695,720.337,2755.598,720.337,2755.598z"/>
<path fill="#868686" d="M734.646,3830.793c5.148,7.344,10.691,12.063,9.841,14.758c-1.414,4.473-6.938,7.646-10.73,11.367
	c-2.793-3.852-7.43-7.523-7.815-11.605C725.606,3841.828,730.142,3837.875,734.646,3830.793z"/>
<path fill="#7E7E7E" d="M328.315,3799.578c-17.353,0-34.704-0.004-52.053-0.004c-11.02-11.813-22.602-23.164-32.754-35.676
	c-3.609-4.445-6.363-16.246-5.068-16.996c15.926-9.188,31.971-21.453,49.355-24.177c41.182-6.452,96.158,11.023,90.664-62.53
	c-0.082-1.099,9.828-4.543,10.271-3.849c20.532,32.371,40.53,65.082,60.594,97.75c-22.896,10.496-45.385,22.043-68.826,31.134
	C363.767,3791.723,345.755,3794.914,328.315,3799.578z"/>
<path fill="#7E7E7E" d="M544.985,3670.25c27.225,18.477,41.555,28.203,55.887,37.93c-13.809,10.43-26.568,27.328-41.672,29.777
	c-22.885,3.711-47.398-2.625-71.219-4.695C505.573,3713.816,523.165,3694.371,544.985,3670.25z"/>
<path fill="#7E7E7E" d="M164.905,3632.578c-4.354,13.617-8.707,27.238-13.061,40.854c-3.035-3.522-9.176-7.647-8.627-10.479
	c5.494-28.336,12.086-56.465,18.369-84.648c16.492,17.051,86.504-22.41,51.586,48.84c-2.826,5.767-6.445,11.146-9.695,16.703
	c-3.619-5.656-7.641-11.102-10.773-17.016c-5.801-10.953-11.084-22.185-16.582-33.297c-7.133,11.438-14.264,22.875-21.396,34.309
	C158.12,3629.422,161.513,3631,164.905,3632.578z"/>
<path fill="#7E7E7E" d="M296.151,3649.234c8.602,10.801,15.488,18.543,20.988,27.172c1.033,1.617-3.481,6.77-5.438,10.293
	c-12.215-6.805-24.43-13.613-36.645-20.422C280.485,3661.895,285.911,3657.508,296.151,3649.234z"/>
<path fill="#7E7E7E" d="M147.884,3752.352c-6.711,6.267-9.924,9.271-13.139,12.271c-6.842-9.262-14.148-18.25-19.936-28.129
	c-0.711-1.211,6.697-7.18,10.344-10.94C132.153,3733.805,139.153,3742.055,147.884,3752.352z"/>
<path fill="#7E7E7E" d="M509.786,3607.254c3.545,18.367,5.41,28.039,7.277,37.715c-9.669-12.897-19.334-25.797-29-38.695
	c3.569-2.522,8.454-7.934,10.465-7.022C504.743,3602.078,509.862,3607.313,509.786,3607.254z"/>
<path fill="#7E7E7E" d="M206.763,3792.754c-14.16-3.48-24.791-6.09-35.424-8.699c15.004-4.867,29.863-10.309,45.131-14.108
	c3.049-0.759,7.658,4.741,11.549,7.358C220.608,3782.688,213.2,3788.074,206.763,3792.754z"/>
<path fill="#7E7E7E" d="M220.794,3748.781c-11.797-20.883-16.605-29.146-20.943-37.648c-0.275-0.539,4.27-4.512,4.623-4.25
	c8.258,6.109,17.01,11.898,23.756,19.453C229.966,3728.285,225.231,3736.008,220.794,3748.781z"/>
<path fill="#7E7E7E" d="M594.63,3564.621c8.75,11.527,11.603,15.285,14.457,19.043c-3.301,2.219-7.332,6.852-9.729,6.117
	c-4.123-1.254-8.984-5.301-10.22-9.223C588.087,3577.227,591.71,3572.418,594.63,3564.621z"/>
<path fill="#E1E1E1" d="M2408.403,3939.73c-0.027,1.309-0.059,2.612-0.098,3.918c-1.352,1.315-2.703,2.633-4.055,3.952
	c-36.074,38.806-69.926,82.082-117.012,9.195c-27.449-42.483-62.023-80.34-92.896-120.66
	c-27.188-35.512-47.604-93.379-81.726-102.871c-73.242-20.371-148.688-13.957-188.902-104.069
	c-13.866-31.074-77.301-38.531-116.022-60.431c-38.156-21.582-74.383-46.832-110.152-72.301c-25.414-18.094-60.698-34.793-70-60.063
	c-13.223-35.905,0.965-81.418-10.354-118.625c-15.254-50.141-38.215-100-67.81-143.164c-33.641-49.077-78.28-90.612-118.055-135.5
	c-13.266-14.965-24.098-33.129-39.836-44.645c-34.844-25.5-80.621-40.973-105.992-73.121c-26.207-33.203-28.737-83.965-50-122.41
	c-70.305-127.113-144.362-252.156-217.117-377.914c-3.051-5.272-7.438-9.772-11.202-14.633c-4.048,4.848-11.521,9.633-11.613,14.555
	c-1.086,56.926,1.645,114.035-1.813,170.781c-12.77,209.684-27.823,419.227-41.336,628.867
	c-7.578,117.531-13.426,235.18-21.276,352.69c-0.746,11.168-10.242,21.746-15.677,32.603c-4.069-9.688-10.19-19.047-11.793-29.121
	c-3.629-22.863-5.03-46.074-7.34-69.146c-11.68-338.258-23.487-676.508-34.66-1014.78c-0.582-17.646,4.267-35.47,6.586-53.207
	c2.66,102.684,5.32,205.366,7.98,308.051c4.016,89.32,8.031,178.645,12.047,267.965c2.664,34.668,5.328,69.336,7.992,104
	c0.016,19.992,0.026,39.98,0.043,59.973c4.004,81.715,7.977,163.435,12.125,245.142c0.188,3.723,1.965,7.362,3,11.043
	c1.582-3.113,4.406-6.164,4.565-9.349c12.648-250.409,23.263-500.944,38.345-751.207c7.065-117.241,21.035-234.203,37.522-350.491
	c1.396-9.841,51.728-25.681,68.556-17.242c22.918,11.483,36.309,43.098,52.219,67.117c13.996,21.137,20.69,51.616,39.703,63.983
	c38.926,25.32,96.647,30.767,123.616,63.41c45.07,54.543,71.367,124.418,107.242,186.875c8.715,15.168,23.965,26.578,36.207,39.719
	c38.066-71.133,58.129-31.445,84.349,10.539c7.707,12.34,35.254,14.816,54.229,16.793c14.855,1.547,30.523-6.457,45.816-6.402
	c5.059,0.017,12.008,11.181,14.797,18.504c18.703,49.095,33.836,99.813,56.434,146.984c5.898,12.32,33.887,14.906,52.353,19.41
	c2.66,0.647,7.871-14.098,13.719-19.875c4.055-4,11.104-6.191,17.047-6.767c9.271-0.895,22.219-3.616,27.57,1.177
	c45.215,40.491,91.754,80.086,132.266,125.026c23.099,25.621,46.556,59.574,49.961,91.875c3.41,32.306-31.358,69.582-25.914,100.552
	c15.406,87.668,32.918,177.672,68.974,258.065c24.477,54.582,80.199,95.935,124.777,140.363
	c19.992,19.93,46.883,32.952,70.691,49.043c22.223,15.02,57.902,25.594,64.43,45.676c27.262,83.91,45.574,170.719,68.277,256.168
	c0.895,3.367,17.195,7.392,19.434,4.906c18.773-20.859,35.938-43.164,53.59-65.035c0.051,2.68,0.105,5.358,0.156,8.035
	C2411.047,3929.016,2409.723,3934.375,2408.403,3939.73z"/>
<path fill="#D5D5D5" d="M896.325,3507.621c2.309,23.07,3.711,46.281,7.34,69.145c1.602,10.074,7.723,19.435,11.793,29.121
	c5.434-10.854,14.93-21.434,15.676-32.602c7.853-117.512,13.699-235.16,21.277-352.691
	c13.512-209.641,28.566-419.184,41.336-628.866c3.457-56.746,0.727-113.855,1.813-170.781c0.095-4.922,7.566-9.707,11.613-14.555
	c3.767,4.858,8.152,9.358,11.203,14.633c72.754,125.758,146.813,250.801,217.117,377.914c21.262,38.445,23.793,89.207,50,122.41
	c25.371,32.147,71.147,47.621,105.992,73.121c15.737,11.516,26.569,29.68,39.836,44.645c39.772,44.888,84.414,86.423,118.055,135.5
	c29.594,43.164,52.555,93.023,67.809,143.164c11.32,37.207-2.866,82.72,10.355,118.625c9.301,25.271,44.586,41.97,70,60.063
	c35.77,25.469,71.996,50.719,110.152,72.301c38.723,21.898,102.155,29.355,116.022,60.43
	c40.215,90.113,115.66,83.699,188.902,104.07c34.122,9.492,54.54,67.359,81.727,102.871c30.871,40.32,65.445,78.176,92.895,120.66
	c47.086,72.887,80.938,29.608,117.012-9.195c-9.902,13.211-20.824,25.789-29.527,39.75c-34.211,54.895-168.016,48.703-204.625-4.07
	c-26.098-37.625-63.183-69.172-100.089-97.219c-24.809-18.852-57.648-27.383-87.285-39.586
	c-47.914-19.73-95.832-39.512-144.363-57.625c-26.465-9.875-55.733-13.117-80.991-25.121
	c-39.806-18.918-79.957-39.137-115.099-65.324c-44.383-33.074-81.551-75.867-126.108-108.66
	c-51.298-37.758-144.984-16.004-154.337-114.034c-2.362-24.742-18.159-48.16-27.547-72.281
	c-29.848-76.695-61.047-152.91-88.813-230.354c-16.48-45.978-26.863-94.138-43.07-140.23c-0.69-1.973-42.008,15.691-47.897,9.211
	c-19.435-21.383-25.672-62.801-47.41-72.082c-29.691-12.676,20.151-106.957-59.855-55.703c-4.651,2.98-15.313-5.125-22.387-3.815
	c-9.94,1.844-27.195,7.141-27.508,11.875c-12,181.797-20.785,363.813-33.676,545.543c-7.449,105.047-20.867,209.684-32.642,314.387
	c-0.944,8.43-9.969,15.949-15.237,23.896c-3.681-8.509-9.941-16.813-10.613-25.552c-3.715-48.258-6.066-96.625-8.883-144.952
	c-0.008-6.66-0.017-13.316-0.023-19.978C896.282,3579.656,896.306,3543.641,896.325,3507.621z"/>
<path fill="#FCFCFC" d="M884.247,2423.625c1.348,14.676,2.691,29.348,4.039,44.023l0,0c-1.348,32.034-2.699,64.065-4.047,96.102
	c-2.646-12.047-5.285-24.094-7.931-36.141c0.005-3.988,0.013-7.978,0.021-11.97C878.97,2484.969,881.606,2454.297,884.247,2423.625z
	"/>
<path fill="#EAEAEA" d="M876.31,2527.609c2.646,12.047,5.285,24.094,7.931,36.141c0.022,3.957,0.047,7.922,0.073,11.883
	c-0.016,42.672-0.026,85.344-0.038,128.017c3.987,58.698,7.977,117.397,11.965,176.098c0.02,17.305,0.039,34.608,0.059,51.914
	c0.004,31.988,0.004,63.973,0.008,95.961c-0.02,9.344-0.034,18.688-0.055,28.031c-2.656-13.332-5.315-26.668-7.973-40.004
	c-4.017-89.32-8.031-178.646-12.047-267.966C876.259,2674.324,876.282,2600.969,876.31,2527.609z"/>
<path fill="#CCCCCC" d="M896.286,3635.648c2.815,48.327,5.168,96.694,8.883,144.953c0.672,8.737,6.934,17.043,10.613,25.551
	c5.27-7.945,14.293-15.465,15.237-23.896c11.773-104.702,25.191-209.34,32.642-314.387
	c12.891-181.729,21.676-363.746,33.676-545.543c0.313-4.733,17.566-10.031,27.508-11.875c7.074-1.31,17.734,6.797,22.387,3.815
	c80.009-51.254,30.164,43.027,59.855,55.703c21.738,9.281,27.977,50.699,47.41,72.082c5.891,6.48,47.207-11.184,47.897-9.211
	c16.207,46.094,26.591,94.254,43.07,140.23c27.766,77.445,58.965,153.66,88.813,230.354c9.387,24.121,25.184,47.539,27.547,72.281
	c9.352,98.031,103.039,76.277,154.336,114.035c44.559,32.793,81.727,75.586,126.108,108.659
	c35.142,26.188,75.293,46.406,115.099,65.324c25.258,12.004,54.526,15.246,80.992,25.121c48.53,18.113,96.448,37.896,144.362,57.625
	c29.638,12.203,62.478,20.734,87.285,39.586c36.906,28.047,73.993,59.594,100.09,97.219c36.609,52.773,170.414,58.966,204.625,4.07
	c8.703-13.961,19.625-26.539,29.527-39.75c1.352-1.32,2.703-2.637,4.055-3.953c-32.949,30.978-61.066,76.728-99.984,89.466
	c-58.273,19.065-137.602,67.245-171.148-40.841c-0.738-2.375-5.354-4.996-8.215-5.051c-105.746-2.098-211.761-0.16-317.128-7.522
	c-44.402-3.105-90.898-19.396-130.348-40.888c-73.875-40.246-141.063-93.02-215.738-131.438
	c-28.367-14.59-71.271,1.711-104.431-7.402c-14.952-4.108-18.233-41.406-34.401-53.449c-12.129-9.03-36.422-2.379-55.23-1.414
	c-5.729,0.298-15.254,8.164-16.203,7c-6.754-8.305-17.496-18.797-16.397-27.219c11.352-87.152-67.57-84.344-112.465-115.703
	c-23.906-16.698-71.063,3.72-64.105-63.987c5.777-56.216-32.828-116.996-51.953-175.695c-0.37-1.133-3.026-1.521-4.616-2.258
	c-1.148,3.647-3.048,7.233-3.336,10.948c-11.552,148.246-22.259,296.563-35.16,444.691c-1.82,20.879-14.271,40.828-21.797,61.211
	c-14.582-17.852-29.402-35.516-43.563-53.691c-3.121-4-3.91-9.815-5.772-14.797C896.302,3755.625,896.294,3695.637,896.286,3635.648
	z"/>
<path fill="#FEFEFE" d="M884.313,2575.633c-0.027-3.961-0.052-7.926-0.074-11.883c1.348-32.035,2.699-64.066,4.047-96.102
	C886.962,2503.645,885.638,2539.637,884.313,2575.633z"/>
<path fill="#EFEFEF" d="M896.251,3055.652c0.02-9.344,0.035-18.688,0.055-28.031c4.375,23.324,8.754,46.648,13.129,69.973
	c3.652-25.055,9.63-50.022,10.591-75.184c8.569-224.84,15.926-449.728,24.395-674.574c2.699-71.742,50.023-160.414,92.185-166.078
	c35.051-4.711,72.362-3.512,107.086,3.238c38.75,7.535,75.784,24.059,113.418,37.102c46.983,16.289,92.832,42.637,140.918,47.56
	c100.754,10.313,202.823,6.897,304.034,13.801c132.517,9.035,264.724,22.603,397.063,34.203
	c93.023,8.155,151.781,96.194,144.527,180.19c-4.23,48.969-9.723,100.926,1.805,147.461
	c19.406,78.336,51.398,153.613,79.141,229.797c11.85,32.539,37.695,64.113,37.703,96.134c0.043,163.832-9.021,327.664-9.059,491.496
	c-0.016,70.246,13.676,140.551,22.492,210.659c1.008,8,10.773,14.898,16.477,22.31c3.996-7.777,10.883-15.31,11.559-23.363
	c15.217-181.526,29.746-363.112,44.41-544.688c0.061-46.656,0.117-93.31,0.176-139.961c2.635-9.359,5.264-18.716,7.893-28.07
	c0.016,102.676,0.035,205.348,0.051,308.022c-0.027,9.298-0.059,18.595-0.086,27.892c-2.664,33.348-5.328,66.69-7.988,100.039
	c-11.984,112.017-23.965,224.031-35.945,336.047c-2.73,57.695-1.582,115.988-10.297,172.767
	c-3.059,19.914-30.34,36.108-46.559,54.004c-4.605-12.906-11.871-25.509-13.393-38.767c-12.365-107.922-22.246-216.16-36.9-323.758
	c-2.049-15.043-24.053-30.496-40.281-39.548c-14.637-8.164-34.023-7.813-51.314-11.215c6.902-7.504,14.211-14.695,20.424-22.738
	c1.496-1.94,0.621-8.577-1.307-9.875c-59.207-39.914-115.147-72.94-95.111-167.491c14.883-70.242-5.229-147.531-6.773-221.746
	c-1.055-50.629,16.363-105.724,1.57-150.996c-20.598-63.052-63.56-118.798-97.122-177.57c-1.176-2.06-4.508-2.758-6.371-4.565
	c-14.272-13.836-27.461-28.992-42.918-41.324c-12.746-10.172-28.387-16.629-42.28-25.461c-20.816-13.238-42.927-25.387-60.22-42.348
	c-3.026-2.974,13.625-28.25,23.48-41.523c11.559-15.57,25.621-29.285,38.598-43.805c-21.078-11.918-40.944-29.633-63.526-34.353
	c-31.289-6.539-64.621-3.207-97.06-4.59c-1.504-0.065-2.246-5.517-4.293-7.465c-13.901-13.23-26.078-33.195-42.531-37.859
	c-39.737-11.262-81.512-15.34-122.469-22.313c16.5-82.668-51.297-53.66-87.733-66.056c-4.216-1.434-8.974-1.272-13.48-1.852
	c4.02,2.566,9.719,4.184,11.785,7.852c12.07,21.423,23.289,43.324,34.797,65.063c-18.992,2.598-38.047,4.824-56.965,7.883
	c-24.578,3.974-49.271,7.677-73.441,13.461c-8.238,1.974-15.047,9.892-22.512,15.091c-4.535-11.841-13.965-24.289-12.582-35.392
	c2.875-23.086,22.902-60.438,15.93-65.754c-57.772-44.051-115.983-92.435-182.289-118.922
	c-59.207-23.656-128.715-25.277-194.02-27.844c-21.789-0.855-62.246,23.344-64.172,39.633
	c-12.973,109.733-19.398,220.34-25.07,330.813c-10.762,209.727-19.551,419.555-29.477,629.328
	c-0.271,5.672-4.191,11.172-6.41,16.754c-1.84-6.125-4.762-12.152-5.336-18.396c-3.098-33.68-5.613-67.414-8.332-101.129
	c-0.016-19.992-0.027-39.979-0.043-59.973C896.263,3098.316,896.259,3076.984,896.251,3055.652z"/>
<path fill="#FCFCFC" d="M2448.176,3127.656c-14.664,181.574-29.195,363.16-44.41,544.688c-0.676,8.055-7.563,15.586-11.559,23.363
	c-5.703-7.41-15.469-14.309-16.477-22.309c-8.816-70.109-22.508-140.414-22.492-210.66c0.035-163.832,9.102-327.664,9.059-491.496
	c-0.008-32.021-25.854-63.594-37.703-96.133c-27.74-76.185-59.732-151.461-79.141-229.797
	c-11.527-46.535-6.035-98.492-1.805-147.461c7.254-83.996-51.504-172.035-144.527-180.191
	c-132.34-11.602-264.547-25.168-397.063-34.203c-101.211-6.902-203.281-3.488-304.035-13.801
	c-48.086-4.922-93.935-31.27-140.918-47.559c-37.634-13.043-74.668-29.566-113.418-37.103c-34.724-6.75-72.035-7.949-107.086-3.238
	c-42.16,5.664-89.484,94.336-92.185,166.078c-8.469,224.848-15.824,449.733-24.395,674.574
	c-0.962,25.159-6.938,50.129-10.591,75.184c-4.375-23.323-8.754-46.647-13.129-69.973c-0.004-31.988-0.004-63.973-0.008-95.961
	c1.93,7.703,3.984,15.383,5.766,23.121c2.445,10.633,4.685,21.313,7.009,31.973c2.594-11.219,6.938-22.354,7.461-33.668
	c1.934-41.78,2.602-83.621,3.746-125.44c2.672-58.664,5.34-117.332,8.008-175.996c1.332-82.668,2.664-165.332,4-248
	c5.328-41.332,10.66-82.668,15.992-124c4.03-11.035,10.297-21.789,11.741-33.152c13.082-102.867,24.746-205.918,38.125-308.742
	c4.629-35.569,9.422-76.647,55.931-24.668c4.078,4.556,25.28-3.676,37.086-9.108c23.094-10.63,44.098-29.677,67.938-33.793
	c27.992-4.828,78.363-6.195,83.66,6.133c20.176,46.961,41.371,102.41,33.957,150.315c-12.69,82.013,39.435,99.418,92.396,118.945
	c15.137,5.578,51.34-5.051,54.953-15.891c21.383-64.164,117.577-91.699,167.262-44.517c4.492,4.263,12.328,5.004,18.613,7.384
	c1.805-10.431,4.026-20.806,5.332-31.298c2.543-20.422,3.727-41.082,7.813-61.168c0.547-2.684,17.598-6.401,21.977-3.059
	c11.328,8.647,19.634,21.168,29.539,31.776c8.57,9.188,16.445,19.923,26.892,26.211c10.772,6.484,24.28,8.427,36.59,12.355
	c-4.707,14.188-5.594,32.98-15.355,41.078c-7.569,6.281-26.233-0.707-39.948-1.965c-14.121-1.293-28.418-4.484-42.177-2.875
	c-3.012,0.352-7.723,24.668-5.469,25.819c34.316,17.496,69.478,33.414,104.935,48.543c6.84,2.923,18.137-2.198,23.352,1.73
	c23.332,17.59,42.676,47.741,68.117,53.793c58.238,13.854,119.586,13.983,178.949,23.983
	c60.358,10.168,123.875,16.555,178.562,41.152c51.25,23.051,119.051,59.594,133.063,104.66
	c28.82,92.676,29.488,194.805,36.418,293.418c9.82,139.781,17.057,279.832,21.311,419.891c4.758,156.633,4.781,313.41,7.582,470.109
	c0.156,8.746,6.852,17.379,10.504,26.063c2.254-8.539,6.031-16.992,6.512-25.633c3.027-54.478,5.32-108.992,7.855-163.496
	C2424.247,3324.984,2436.211,3226.32,2448.176,3127.656z"/>
<path fill="#FEFEFE" d="M2412.286,3423.648c-2.535,54.504-4.828,109.02-7.855,163.496c-0.479,8.641-4.258,17.094-6.512,25.633
	c-3.652-8.685-10.348-17.316-10.504-26.063c-2.801-156.698-2.824-313.477-7.582-470.108
	c-4.254-140.06-11.488-280.109-21.309-419.892c-6.93-98.613-7.598-200.742-36.418-293.418
	c-14.012-45.065-81.813-81.608-133.063-104.66c-54.689-24.598-118.204-30.983-178.564-41.151
	c-59.362-10-120.711-10.129-178.948-23.984c-25.441-6.051-44.785-36.203-68.117-53.793c-5.215-3.93-16.512,1.191-23.353-1.73
	c-35.457-15.129-70.616-31.047-104.934-48.543c-2.254-1.151,2.457-25.469,5.469-25.819c13.759-1.609,28.056,1.582,42.177,2.875
	c13.715,1.258,32.379,8.246,39.948,1.965c9.763-8.098,10.648-26.892,15.355-41.078c-12.309-3.93-25.816-5.871-36.59-12.354
	c-10.445-6.289-18.32-17.023-26.892-26.211c-9.905-10.609-18.211-23.129-29.538-31.777c-4.38-3.344-21.431,0.375-21.978,3.059
	c-4.086,20.086-5.271,40.746-7.813,61.168c-1.305,10.492-3.526,20.867-5.332,31.298c-6.284-2.379-14.12-3.121-18.612-7.384
	c-49.685-47.184-145.879-19.647-167.263,44.517c-3.612,10.84-39.815,21.469-54.952,15.892
	c-52.962-19.527-105.087-36.935-92.396-118.945c7.414-47.906-13.781-103.355-33.957-150.316
	c-5.297-12.328-55.668-10.961-83.66-6.133c-23.84,4.117-44.844,23.164-67.938,33.793c-11.806,5.434-33.008,13.664-37.086,9.109
	c-46.508-51.98-51.301-10.902-55.931,24.668c-13.379,102.823-25.043,205.875-38.125,308.742
	c-1.444,11.362-7.711,22.116-11.741,33.151c14.69-154.897,26.534-310.141,45.237-464.555
	c9.922-81.918,30.802-162.617,49.548-243.215c2.063-8.863,31.069-21.195,33.391-18.703c16.156,17.353,32.473,36.594,41.313,58.262
	c15.224,37.328,24.556,77.023,37.691,115.271c1.816,5.285,12.988,12.551,16.828,11.074c20.059-7.703,41.246-15.25,57.852-28.22
	c11.297-8.815,15.703-26.461,23.188-40.155c7.715,11.711,18.738,22.43,22.602,35.297c24.138,80.414,58.941-6.648,85.621,6.305
	c19.047,9.25,46.185,21.242,50.668,37.32c11.922,42.733,12.563,88.508,20.039,132.676c1.551,9.16,13.301,23.66,20.273,23.617
	c31.516-0.199,63.008-4.681,94.5-7.734c13.655-1.324,31.254-9.148,40.276-3.387c56.91,36.319,114.582,72.391,166.547,115.164
	c31.56,25.977,49.25,68.664,80.535,95.141c38.855,32.879,83.496,60.336,128.988,83.574c50.449,25.77,104.172,45.488,157.406,65.328
	c49.934,18.609,101.969,31.699,151.5,51.23c73.414,28.944,91.625,87.362,93.344,163.059
	c4.652,204.969,19.281,409.703,24.703,614.668c3.777,142.762-1.352,285.746-1.742,428.633c-0.031,12.355,5.648,24.723,8.676,37.086
	c2.324-12.195,5.453-24.305,6.811-36.608C2407.258,3481.781,2409.602,3452.695,2412.286,3423.648z M1327.087,1884.605
	c10.504,12.237,17.228,20.077,23.953,27.918c3.961-12.207,8.621-24.259,11.344-36.734c0.605-2.773-7.621-10.508-8.375-10.07
	C1345.923,1870.398,1338.517,1876.262,1327.087,1884.605z M1339.708,1959.648c5.164-7.313,9.75-10.953,9.305-13.81
	c-0.77-4.949-4.655-9.414-7.233-14.082c-2.806,2.836-7.824,5.599-7.922,8.523C1333.688,1945.223,1336.638,1950.27,1339.708,1959.648
	z"/>
<path fill="#FEFEFE" d="M920.278,2827.645c-1.146,41.82-1.813,83.66-3.746,125.441c-0.523,11.313-4.867,22.449-7.461,33.668
	c-2.324-10.66-4.563-21.34-7.008-31.973c-1.781-7.738-3.836-15.418-5.767-23.121c-0.02-17.305-0.039-34.609-0.059-51.914
	c0.02-18.703,0.039-37.406,0.059-56.109c1.359,18.98,2.082,38.035,4.254,56.922c2.25,19.591,5.906,39.017,8.949,58.517
	c2.25-19.483,4.773-38.94,6.676-58.461C917.896,2862.992,918.938,2845.305,920.278,2827.645z"/>
<path fill="#FEFEFE" d="M932.286,2403.648c-1.336,82.668-2.668,165.332-4,248C929.618,2568.98,930.95,2486.316,932.286,2403.648z"/>
<path fill="#CCCCCC" d="M2456.208,3295.539c0.027-9.297,0.059-18.594,0.086-27.891c1.52-131.892,3.035-263.777,4.551-395.668
	c-0.344-2.72-0.688-5.438-1.035-8.156c1.51-42.723,3.023-85.449,4.539-128.172c2.643-1.336,5.285-2.668,7.928-4.004
	c-2.725,245.082-2.828,490.227-9.178,735.215c-3.611,139.344-16.969,278.453-27.201,417.578
	c-1.375,18.69-10.191,36.832-15.564,55.229c-3.977,0.021-7.953,0.039-11.93,0.06c1.32-5.355,2.645-10.716,3.965-16.07
	c2.488-5.271,6.805-10.41,7.203-15.836c9.813-133.383,19.211-266.793,28.684-400.199c0.021-11.992,0.039-23.984,0.064-35.973
	C2450.946,3412.945,2453.575,3354.242,2456.208,3295.539z"/>
<path fill="#D5D5D5" d="M2460.844,2871.98c-1.516,131.891-3.031,263.776-4.551,395.668c-0.016-102.677-0.035-205.349-0.051-308.023
	C2457.774,2930.41,2459.309,2901.195,2460.844,2871.98z"/>
<path fill="#FFFFFF" d="M2804.524,1577.426c-23.199-6.996-36.703-11.065-50.207-15.137c21.719-15.367,43.438-30.734,65.156-46.102
	c3.27,10.219,11.379,22.026,8.66,30.266C2824.208,1558.352,2812.426,1567.66,2804.524,1577.426z"/>
<path fill="#FFFFFF" d="M2882.141,2845.25c-11.059-6.469-19.576-11.449-28.094-16.43c8.547-3.93,17-10.535,25.686-10.853
	c5.783-0.211,11.896,8.543,17.861,13.281C2892.856,2835.543,2888.118,2839.836,2882.141,2845.25z"/>
<path fill="#070707" d="M3415.067,2307.859c55.594,29.664,112.348,57.145,168.723,85.34c2.352,1.176,4.629,2.617,6.68,4.254
	c15.152,12.074,38.52,21.75,43.105,37.039c4.969,16.563-11.93,38.397-11.867,57.91c1.191,360.034,0.535,720.129,7.531,1080.065
	c1.875,96.664-17.664,122.422-123.801,125.742c-210.91,6.602-420.395,50.496-631.426,65.344
	c-89.215,6.277-190.543-2.719-267.672-41.733c-44.754-22.642-70.229-117.688-73.781-181.845
	c-20.805-375.723-32.594-751.944-47.332-1128.004c-0.379-9.685,0.313-19.41,0.504-29.117c4.348,11.938,12.148,23.759,12.539,35.82
	c10.551,325.996,19.355,652.051,31.023,978.004c2.625,73.348,7.637,148.117,25.016,218.926
	c12.461,50.777,36.184,111.048,112.742,89.824c3.629-1.008,1.508-29.56-1.021-44.771c-8.771-52.776-26.801-105.262-27.229-157.973
	c-2.648-326.328,2.689-652.793-5.789-978.926c-1.344-51.816-58.686-102.449-91.439-152.777c-3.447-5.297-15.758-4.828-23.951-7.031
	c13.211-6.332,25.84-15.741,39.758-18.391c35.922-6.836,72.477-10.254,108.66-15.809
	C2749.668,2316.914,3408.122,2304.156,3415.067,2307.859z M3639.606,3021.152c-11.711-174.84-25.281-378.633-39.535-582.379
	c-0.289-4.129-8.977-11.453-13.016-10.984c-159.25,18.473-318.129,40.66-477.676,55.891
	c-141.018,13.461-282.781,18.935-424.133,29.078c-11.586,0.832-32.346,10.375-32.398,16.023
	c-3.184,348.93-4.746,697.879-5.789,1046.828c-0.031,9.762,7.176,19.547,11.012,29.323c2.332-10.401,4.941-20.75,6.934-31.215
	c2.273-11.93,4.004-23.965,5.969-35.953c0.189,12.168,1.297,24.402,0.418,36.492c-8.383,115.272,45.113,190.108,165.855,179.93
	c99.102-8.358,197.336-26.766,296.395-36.012c149.156-13.914,298.738-23.207,447.979-36.353c10.771-0.948,28.52-16.815,29.02-26.473
	C3621.075,3453.934,3629.489,3252.414,3639.606,3021.152z M2675.708,2496.938c120.352-7.69,220.883-11.858,320.961-20.991
	c190.734-17.406,381.211-37.603,571.766-56.935c5.479-0.555,10.621-4.43,15.924-6.754c-2.121-3.082-3.539-7.652-6.461-9.022
	c-97.221-45.66-184.148-122.759-303.992-99.681c-19.555,3.763-39.336,7.238-59.164,8.556
	c-205.883,13.676-411.811,26.727-617.689,40.539c-14.115,0.948-27.922,6.608-41.871,10.077c9.98,8.148,21.48,15.017,29.635,24.699
	c20.871,24.781,39.813,51.185,60.4,76.219C2657.821,2478.977,2672.043,2492.973,2675.708,2496.938z M3153.211,2297.035
	c14.125,0,34.145-1.121,54.004,0.184c128.938,8.469,173.617-23.125,151.609-112.438c-10.195-41.367-8.117-96.754-83.348-86.363
	c-117.516,16.234-236.27,32.453-354.48,32.32c-130.52-0.146-135.754-3.844-144.211,121.281c-0.359,5.313-3.629,12.604-1.266,15.565
	c13.574,17.027,28.758,47.406,42.82,47.098C2928.102,2312.277,3037.735,2303.91,3153.211,2297.035z M2688.469,3734.922
	c2.305-2.047,4.801-4.266,7.293-6.479c-3.664-4.039-7.348-11.423-10.988-11.398c-6.637,0.043-13.24,4.478-19.857,7.074
	C2671.958,3727.348,2679,3730.578,2688.469,3734.922z"/>
<path fill="#E5E5E5" d="M896.313,3179.621c2.719,33.715,5.233,67.449,8.331,101.129c0.574,6.242,3.496,12.27,5.337,18.395
	c2.219-5.582,6.141-11.082,6.409-16.754c9.927-209.772,18.716-419.602,29.478-629.328c5.672-110.473,12.098-221.078,25.069-330.813
	c1.927-16.289,42.384-40.488,64.173-39.633c65.305,2.565,134.813,4.188,194.02,27.844c66.305,26.488,124.516,74.871,182.289,118.922
	c6.973,5.316-13.055,42.668-15.93,65.754c-1.384,11.102,8.047,23.551,12.582,35.391c7.465-5.198,14.272-13.116,22.512-15.09
	c24.172-5.785,48.863-9.488,73.441-13.461c18.918-3.059,37.973-5.285,56.965-7.883c-11.509-21.738-22.728-43.641-34.797-65.063
	c-2.066-3.668-7.767-5.285-11.785-7.853c4.508,0.578,9.266,0.418,13.479,1.853c36.438,12.395,104.234-16.613,87.734,66.055
	c40.957,6.973,82.729,11.051,122.469,22.313c16.453,4.664,28.629,24.629,42.531,37.859c2.047,1.949,2.789,7.397,4.293,7.465
	c32.438,1.383,65.77-1.949,97.059,4.59c22.582,4.719,42.449,22.435,63.527,34.353c-12.978,14.52-27.039,28.233-38.599,43.805
	c-9.854,13.272-26.508,38.551-23.479,41.522c17.293,16.961,39.401,29.109,60.219,42.349c13.896,8.832,29.535,15.289,42.281,25.461
	c15.457,12.332,28.645,27.487,42.918,41.323c1.863,1.81,5.194,2.509,6.371,4.566c33.563,58.773,76.522,114.52,97.122,177.57
	c14.793,45.272-2.625,100.367-1.57,150.996c1.547,74.215,21.656,151.504,6.771,221.746
	c-20.034,94.551,35.906,127.578,95.113,167.492c1.926,1.297,2.801,7.934,1.305,9.875c-6.211,8.043-13.52,15.233-20.422,22.737
	c17.289,3.402,36.676,3.052,51.314,11.216c16.229,9.051,38.232,24.504,40.279,39.547c14.656,107.598,24.535,215.836,36.902,323.758
	c1.521,13.258,8.785,25.859,13.393,38.766c16.219-17.895,43.5-34.09,46.559-54.004c8.715-56.776,7.566-115.069,10.297-172.766
	c0.008,54.684,0.02,109.367,0.027,164.047c-0.031,6.652-0.059,13.301-0.09,19.953c-17.652,21.871-34.816,44.176-53.59,65.035
	c-2.238,2.483-18.539-1.539-19.436-4.906c-22.703-85.449-41.016-172.258-68.277-256.168c-6.525-20.082-42.207-30.656-64.43-45.676
	c-23.809-16.091-50.699-29.113-70.689-49.043c-44.579-44.431-100.302-85.781-124.778-140.363
	c-36.055-80.396-53.565-170.398-68.973-258.066c-5.445-30.969,29.323-68.246,25.914-100.551
	c-3.406-32.301-26.863-66.254-49.962-91.875c-40.512-44.941-87.051-84.535-132.266-125.027c-5.352-4.793-18.301-2.07-27.57-1.176
	c-5.94,0.574-12.991,2.766-17.047,6.766c-5.848,5.777-11.059,20.523-13.719,19.875c-18.465-4.504-46.453-7.09-52.352-19.409
	c-22.599-47.173-37.73-97.892-56.435-146.984c-2.789-7.323-9.737-18.487-14.797-18.504c-15.293-0.055-30.961,7.949-45.815,6.402
	c-18.978-1.978-46.523-4.453-54.23-16.793c-26.219-41.983-46.281-81.672-84.348-10.539c-12.242-13.142-27.492-24.551-36.207-39.719
	c-35.875-62.457-62.172-132.332-107.242-186.875c-26.969-32.646-84.691-38.091-123.617-63.41
	c-19.012-12.367-25.707-42.848-39.703-63.983c-15.91-24.021-29.301-55.634-52.219-67.117c-16.828-8.438-67.16,7.402-68.555,17.242
	c-16.488,116.289-30.457,233.25-37.523,350.491c-15.082,250.263-25.695,500.798-38.344,751.207c-0.16,3.185-2.984,6.234-4.566,9.349
	c-1.035-3.681-2.813-7.32-3-11.043C904.29,3343.055,900.317,3261.336,896.313,3179.621z"/>
<path fill="#D5D5D5" d="M2412.211,3915.625c0.031-6.652,0.059-13.301,0.09-19.953c1.328-19.785,2.176-39.617,4.064-59.352
	c10.49-109.578,21.232-219.133,31.891-328.695c-9.473,133.406-18.871,266.816-28.684,400.199
	c-0.398,5.426-4.717,10.565-7.203,15.836C2412.317,3920.984,2412.262,3918.305,2412.211,3915.625z"/>
<path fill="#E5E5E5" d="M896.251,3055.652c0.008,21.332,0.012,42.664,0.02,63.996c-2.663-34.664-5.327-69.332-7.991-104
	C890.935,3028.984,893.595,3042.32,896.251,3055.652z"/>
<path fill="#E1E1E1" d="M2448.254,3507.625c-10.656,109.563-21.398,219.117-31.891,328.695c-1.887,19.733-2.734,39.565-4.063,59.352
	c-0.008-54.68-0.021-109.363-0.027-164.047c11.98-112.016,23.961-224.031,35.945-336.047c0.031,25.359,0.064,50.715,0.098,76.074
	C2448.293,3483.641,2448.274,3495.633,2448.254,3507.625z"/>
<path fill="#D5D5D5" d="M2448.317,3471.652c-0.031-25.359-0.066-50.715-0.098-76.074c2.66-33.348,5.324-66.691,7.988-100.039
	C2453.575,3354.242,2450.946,3412.945,2448.317,3471.652z"/>
<path fill="#FCFCFC" d="M1327.087,1884.605c11.43-8.345,18.836-14.207,26.922-18.888c0.754-0.438,8.98,7.297,8.375,10.07
	c-2.723,12.477-7.383,24.526-11.344,36.733C1344.313,1904.684,1337.591,1896.844,1327.087,1884.605z"/>
<path fill="#FCFCFC" d="M1339.708,1959.648c-3.07-9.38-6.02-14.427-5.852-19.367c0.098-2.926,5.116-5.688,7.922-8.523
	c2.578,4.668,6.465,9.133,7.233,14.082C1349.458,1948.695,1344.872,1952.336,1339.708,1959.648z"/>
<path fill="none" stroke="#000000" stroke-width="3" stroke-miterlimit="10" d="M2335.063,4076.914
	c165.104-167.297,121.496-153.211,129.359-261.238"/>
<path fill="none" stroke="#000000" stroke-width="3" stroke-miterlimit="10" d="M744.573,523.336"/>
<path fill="none" stroke="#000000" stroke-width="3" stroke-miterlimit="10" d="M747.579,654.27"/>
<line fill="none" stroke="#000000" stroke-width="3" stroke-miterlimit="10" x1="2828.682" y1="2127.789" x2="2836.348" y2="2403.648"/>
<path fill="#C8C8C8" stroke="#000000" stroke-width="3" stroke-miterlimit="10" d="M1642.29,166.99"/>
<path fill="none" stroke="#000000" stroke-width="3" stroke-miterlimit="10" d="M1376.286,583.648"/>
<path fill="none" stroke="#000000" stroke-width="3" stroke-miterlimit="10" d="M883.413,523.32
	c4.162-0.14,8.451-0.158,12.869-0.052"/>
<path fill="none" stroke="#000000" stroke-width="3" stroke-miterlimit="10" d="M849.19,527.646
	c10.332-2.406,21.705-3.908,34.223-4.326"/>
<path fill="none" stroke="#000000" stroke-width="3" stroke-miterlimit="10" d="M2335.063,4076.914
	c-213.211,90.977-274.777,32.633-514.777,35.289s-397.766,49.375-632.848-5.457c-145.033-33.828-220.326-34.555-256.355-89.707"/>
<g>
	<path fill="#FFFFFF" d="M1916.286,675.648c28,0,60,0,88,0C1976.286,675.648,1944.286,675.648,1916.286,675.648z"/>
	<path fill="none" stroke="#000000" stroke-width="13" stroke-miterlimit="10" d="M2156,729.086"/>
	<line fill="none" x1="2268.297" y1="523.336" x2="2010.892" y2="523.336"/>
	<path fill="#C8C8C8" stroke="#000000" stroke-width="13" stroke-miterlimit="10" d="M1316.294,259.982
		c0-52.393,145.953-94.867,325.996-94.867s325.996,42.475,325.996,94.867c0,52.395-145.953,94.867-325.996,94.867
		S1316.294,312.377,1316.294,259.982"/>
	<path fill="#C8C8C8" stroke="#000000" stroke-width="13" stroke-miterlimit="10" d="M1968.286,261.857"/>
	
		<linearGradient id="SVGID_1_" gradientUnits="userSpaceOnUse" x1="822.5479" y1="3589.3174" x2="2406.0229" y2="3589.3174" gradientTransform="matrix(1 0 0 -1 0.04 4219.6328)">
		<stop  offset="0" style="stop-color:#CECECE"/>
		<stop  offset="1" style="stop-color:#D1D1D1"/>
	</linearGradient>
	<path fill="url(#SVGID_1_)" stroke="#000000" stroke-width="13" stroke-miterlimit="10" d="M2406.063,737.693l-151.777-214.756l0,0
		H890.565l-34.224,4.325c-10.789,2.513-12.932,1.056-21.569,5.336l-12.185,15.179l117.656,163.379l0,0
		c20.926-11.729,26.725-5.092,71.987-12.363l1272.056,22.115h60h41.996L2406.063,737.693z"/>
	<path fill="#D9D9D9" stroke="#000000" stroke-width="13" stroke-miterlimit="10" d="M815.437,548.16l4.673-10.224
		c-16.082,7.972-28.638,18.654-38.427,30.736c-41.899,51.713-33.106,129.064-33.106,129.064l-0.996,54.909l74.397,3143
		l12.974,15.813l96.133,105.578l1.557-33.449c-22.37-34.246-31.161-56.022-30.557-153.184L831.996,955.564
		c4.277-58.149,20.178-72.606,23.943-130.604c3.145-48.4,11.25-75.43,44.348-93.979l32.807-19.441"/>
	<path fill="#F3F3F3" stroke="#000000" stroke-width="13" stroke-miterlimit="10" d="M1968.286,261.857
		c0,52.395-145.953,94.867-325.996,94.867s-325.996-44.348-325.996-96.742v26.346l-1.178,265.328l1.541,26.92l-0.363,13.072
		c0,55.221,144,106.09,328.857,106.09c178.229,0,312.916-31.908,323.135-84.383V261.857"/>
	<path fill="none" stroke="#000000" stroke-width="13" stroke-miterlimit="10" d="M2337.051,4074.953
		c-213.211,90.977-274.777,32.633-514.776,35.289c-240,2.655-397.767,49.375-632.849-5.461
		c-235.082-54.828-286.938-22.695-285.354-276.336L833.983,953.604c4.276-58.149,20.178-72.606,23.942-130.604
		c3.146-48.4,11.25-75.43,44.349-93.979l12.807-7.441c20.926-11.729,46.725-17.092,75.986-15.59l1333.218,15.383l29.334-0.461
		c0,0,94.572-1.359,94.572,112.09l3.152,225.211l13.469,2722.701"/>
</g>
<path fill="#FFFFFF" d="M3279.239,2272.357c18.447,0,39.535,0,57.982,0C3318.774,2272.357,3297.686,2272.357,3279.239,2272.357z"/>
<path fill="none" stroke="#000000" stroke-width="3" stroke-miterlimit="10" d="M3437.194,2295.139"/>
<line fill="none" x1="3511.186" y1="2207.402" x2="3341.575" y2="2207.402"/>
<path fill="#C8C8C8" stroke="#000000" stroke-width="3" stroke-miterlimit="10" d="M3313.502,2095.906"/>
<linearGradient id="SVGID_2_" gradientUnits="userSpaceOnUse" x1="2540.6265" y1="1799.4692" x2="3633.5347" y2="1799.4692" gradientTransform="matrix(1 0 0 -1 0.04 4219.6328)">
	<stop  offset="0" style="stop-color:#CECECE"/>
	<stop  offset="1" style="stop-color:#D1D1D1"/>
</linearGradient>
<path fill="url(#SVGID_2_)" stroke="#000000" stroke-width="8" stroke-miterlimit="10" d="M3633.575,2434.492l-149.529-112.603l0,0
	h-898.586l-22.549,3.595c-7.109,2.082-8.521,0.871-14.213,4.414l-8.031,12.594l103.672,175.945l-26.145-40.457
	c13.787-9.738,72.17,38.401,101.994,32.362l783.629-24.297h39.531h27.674L3633.575,2434.492z"/>
<path fill="#D9D9D9" stroke="#000000" stroke-width="3" stroke-miterlimit="10" d="M2645.524,3840.109"/>
<line fill="none" stroke="#000000" stroke-width="3" stroke-miterlimit="10" x1="2592.739" y1="3867.922" x2="2601.288" y2="3874.664"/>
<g>
	<path fill="#C8C8C8" stroke="#000000" stroke-width="9" stroke-miterlimit="10" d="M2756.036,2143.514
		c0-31.818,137.4-57.608,306.881-57.608c169.479,0,306.871,25.791,306.871,57.608c0,31.82-137.393,57.625-306.871,57.625
		C2893.436,2201.139,2756.036,2175.334,2756.036,2143.514"/>
	<path fill="#F3F3F3" stroke="#000000" stroke-width="9" stroke-miterlimit="10" d="M3369.788,2144.666
		c0,31.816-137.393,57.611-306.871,57.611c-169.48,0-306.881-26.943-306.881-58.764v16l-1.104,161.149l1.447,16.344l-0.344,7.945
		c0,33.539,135.553,64.438,309.566,64.438c167.777,0,294.566-19.375,304.186-51.25V2144.666"/>
</g>
</svg>
