<?xml version="1.0" encoding="utf-8"?>
<!-- Generator: Adobe Illustrator 15.0.0, SVG Export Plug-In . SVG Version: 6.00 Build 0)  -->
<!DOCTYPE svg PUBLIC "-//W3C//DTD SVG 1.1//EN" "http://www.w3.org/Graphics/SVG/1.1/DTD/svg11.dtd">
<svg version="1.1" id="Layer_1" xmlns="http://www.w3.org/2000/svg" xmlns:xlink="http://www.w3.org/1999/xlink" x="0px" y="0px"
	 width="229.858px" height="452.59px" viewBox="88.495 282.623 229.858 452.59"
	 enable-background="new 88.495 282.623 229.858 452.59" xml:space="preserve">
<path fill="#FFFFFF" stroke="#000000" stroke-width="1.2656" stroke-linecap="round" stroke-linejoin="round" d="M176.255,558.713
	l0.264,133.086"/>
<path fill="#FFFFFF" stroke="#000000" stroke-width="1.2656" stroke-linecap="round" stroke-linejoin="round" d="M237.885,675.28
	l0.981-97.734v-31.395"/>
<path fill="none" stroke="#000000" stroke-width="2.4889" stroke-linecap="round" stroke-linejoin="round" d="M227.818,643.535"/>
<path fill="none" stroke="#000000" stroke-width="2.4889" stroke-linecap="round" stroke-linejoin="round" d="M186.141,614.805"/>
<path fill="none" stroke="#000000" stroke-width="2.4889" stroke-linecap="round" stroke-linejoin="round" d="M228.408,602.47"/>
<path fill="none" stroke="#000000" stroke-width="2.4889" stroke-linecap="round" stroke-linejoin="round" d="M186.729,573.744"/>
<path fill="#CECECE" stroke="#000000" stroke-width="0.0422" stroke-linecap="round" stroke-linejoin="round" d="M200.547,666.451
	l-0.058,8.193l-4.015,1.769l-3.221,1.947l-2.926,2.578l-2.174,2.795l-1.63,3.497l-0.839,3.531l0.209,3.864l0.92,3.09l1.129,2.244
	l1.588,2.06l2.006,1.771l2.969,1.874l3.469,1.436l4.057,0.625l4.139-0.109l3.762-0.811l3.639-1.437l3.346-2.135l2.385-2.245
	l2.172-3.235l1.672-4.049l0.629-3.057l-0.336-3.459l-1.336-3.751l-2.215-3.202l-1.713-1.583l-1.715-1.358l-3.387-1.729l-0.878-0.332
	l-0.304-11.668C208.131,664.674,204.377,665.768,200.547,666.451z"/>
<path stroke="#000000" stroke-width="1.2656" stroke-linecap="round" stroke-linejoin="round" d="M176.47,664.739
	c-0.01,0.176-0.15,26.354-0.156,27.063c-0.009,0.991-0.015,2.138-0.014,2.385c0,12.348,10.077,20.677,23.526,22.661
	c2.044,0.302,4.564,15.085,6.74,15.085c1.914,0,3.406-14.783,5.258-15.081c13.17-2.112,24.176-11.397,25.554-22.868
	c0.097-0.798,0.587-28.548,0.587-29.365"/>
<path fill="none" stroke="#000000" stroke-width="1.2656" stroke-linecap="round" stroke-linejoin="round" d="M176.434,565.209
	c-0.022-0.642-0.037-5.275-0.037-5.921c0-19.822,16.359-35.112,32.852-35.112c16.494,0,29.864,17.51,29.864,39.105"/>
<path fill="none" stroke="#000000" stroke-width="2.4889" stroke-linecap="round" stroke-linejoin="round" d="M262.868,640.696"/>
<path fill="none" stroke="#000000" stroke-width="2.4889" stroke-linecap="round" stroke-linejoin="round" d="M161.521,580.516"/>
<path fill="none" stroke="#000000" stroke-width="2.1" d="M238.709,673.931"/>
<path fill="none" stroke="#000000" stroke-width="2.1" d="M238.715,640.532"/>
<path fill="none" stroke="#000000" stroke-width="2.2231" d="M235.819,561.636"/>
<path fill="#FFFFFF" stroke="#000000" stroke-width="1.2656" stroke-linecap="round" stroke-linejoin="round" d="M220.192,294.905
	c0-3.996-2.677-7.232-5.976-7.232h-14.854c-3.301,0-5.975,3.236-5.975,7.232v236.397c0,3.994,2.674,7.232,5.975,7.232h14.854
	c3.299,0,5.976-3.238,5.976-7.232V294.905z"/>
<path fill="none" stroke="#000000" stroke-width="2.1" d="M196.692,495.611h3.815"/>
<path fill="none" stroke="#000000" stroke-width="2.1" d="M196.692,491.081h3.815"/>
<path fill="none" stroke="#000000" stroke-width="2.1" d="M196.686,486.551h3.817"/>
<path fill="none" stroke="#000000" stroke-width="2.1" d="M196.686,482.018h3.817"/>
<path fill="none" stroke="#000000" stroke-width="2.1" d="M195.911,477.426h5.283"/>
<path fill="none" stroke="#000000" stroke-width="2.1" d="M196.708,472.804h3.817"/>
<path fill="none" stroke="#000000" stroke-width="2.1" d="M196.708,468.271h3.816"/>
<path fill="none" stroke="#000000" stroke-width="2.1" d="M196.703,463.739h3.816"/>
<path fill="none" stroke="#000000" stroke-width="2.1" d="M196.703,459.208h3.814"/>
<path fill="none" stroke="#000000" stroke-width="2.1" d="M195.928,454.617h5.285"/>
<path fill="none" stroke="#000000" stroke-width="2.1" d="M196.705,450.007l3.814-0.001"/>
<path fill="none" stroke="#000000" stroke-width="2.1" d="M196.699,445.475h3.816"/>
<path fill="none" stroke="#000000" stroke-width="2.1" d="M196.7,440.944h3.815"/>
<path fill="none" stroke="#000000" stroke-width="2.1" d="M195.924,436.352h5.283"/>
<path fill="none" stroke="#000000" stroke-width="2.1" d="M195.924,413.724h5.283"/>
<path fill="none" stroke="#000000" stroke-width="2.1" d="M196.717,431.823h3.816"/>
<path fill="none" stroke="#000000" stroke-width="2.1" d="M196.717,427.292h3.816"/>
<path fill="none" stroke="#000000" stroke-width="2.1" d="M196.71,422.761h3.817"/>
<path fill="none" stroke="#000000" stroke-width="2.1" d="M196.711,418.229h3.816"/>
<path fill="none" stroke="#000000" stroke-width="2.1" d="M196.727,409.2h3.817"/>
<path fill="none" stroke="#000000" stroke-width="2.1" d="M196.727,404.574l3.817,0.001"/>
<path fill="none" stroke="#000000" stroke-width="2.1" d="M196.723,400.042h3.816"/>
<path fill="none" stroke="#000000" stroke-width="2.1" d="M196.721,395.513h3.817"/>
<path fill="none" stroke="#000000" stroke-width="2.1" d="M195.946,390.919h5.282"/>
<path fill="none" stroke="#000000" stroke-width="2.1" d="M197.213,386.355h2.885"/>
<path fill="none" stroke="#000000" stroke-width="2.1" d="M197.184,386.368h2.888"/>
<path fill="none" stroke="#000000" stroke-width="2.1" d="M196.715,386.311l3.816-0.001"/>
<path fill="none" stroke="#000000" stroke-width="2.1" d="M196.715,381.778h3.816"/>
<path fill="none" stroke="#000000" stroke-width="2.1" d="M196.709,377.245h3.816"/>
<path fill="none" stroke="#000000" stroke-width="2.1" d="M196.709,372.716h3.816"/>
<path fill="none" stroke="#000000" stroke-width="2.1" d="M195.934,368.122h5.285"/>
<path fill="none" stroke="#000000" stroke-width="2.1" d="M196.719,363.655h3.816"/>
<path fill="none" stroke="#000000" stroke-width="2.1" d="M196.719,359.124h3.816"/>
<path fill="none" stroke="#000000" stroke-width="2.1" d="M196.713,354.592h3.816"/>
<path fill="none" stroke="#000000" stroke-width="2.1" d="M196.713,350.061h3.816"/>
<path fill="none" stroke="#000000" stroke-width="2.1" d="M195.938,345.469h5.285"/>
<path fill="none" stroke="#000000" stroke-width="1.9012" d="M197.205,341.044h2.885"/>
<path fill="none" stroke="#000000" stroke-width="2.1" d="M196.736,341.014h3.816"/>
<path fill="none" stroke="#000000" stroke-width="2.1" d="M196.736,336.482h3.816"/>
<path fill="none" stroke="#000000" stroke-width="2.1" d="M196.73,331.952h3.818"/>
<path fill="none" stroke="#000000" stroke-width="2.1" d="M196.73,327.419h3.818"/>
<path fill="none" stroke="#000000" stroke-width="2.1" d="M195.956,322.827h5.283"/>
<path fill="none" stroke="#000000" stroke-width="2.1" d="M195.956,301.343h5.283"/>
<path fill="none" stroke="#000000" stroke-width="2.1" d="M196.711,318.387h3.816"/>
<path fill="none" stroke="#000000" stroke-width="2.1" d="M196.711,313.855h3.816"/>
<path fill="none" stroke="#000000" stroke-width="2.1" d="M196.706,309.325h3.815"/>
<path fill="none" stroke="#000000" stroke-width="2.1" d="M196.706,304.792l3.815,0.002"/>
<path fill="none" stroke="#000000" stroke-width="2.2231" d="M194.737,304.558"/>
<path fill="none" stroke="#000000" stroke-width="2.1" d="M197.198,518.259h2.886"/>
<path fill="none" stroke="#000000" stroke-width="2.1" d="M197.169,518.271h2.886"/>
<path fill="none" stroke="#000000" stroke-width="2.1" d="M196.699,518.214h3.816"/>
<path fill="none" stroke="#000000" stroke-width="2.1" d="M196.699,513.682l3.816,0.001"/>
<path fill="none" stroke="#000000" stroke-width="2.1" d="M196.694,509.15h3.815"/>
<path fill="none" stroke="#000000" stroke-width="2.1" d="M196.694,504.619h3.815"/>
<path fill="none" stroke="#000000" stroke-width="2.1" d="M195.918,500.026h5.284"/>
<path fill="none" stroke="#000000" stroke-width="2.4889" stroke-linecap="round" stroke-linejoin="round" d="M208.676,342.743"/>
<path fill="none" stroke="#000000" stroke-width="2.4889" stroke-linecap="round" stroke-linejoin="round" d="M209.078,304.024"/>
<g>
	<path d="M210.501,365.665h-3.456v-0.938h4.469v0.675c-1.644,2.551-1.979,4.469-2.1,7.76h-0.924
		C208.611,369.989,209.133,367.979,210.501,365.665z"/>
	<path d="M212.45,368.917c0-2.828,0.837-4.348,2.228-4.348c1.381,0,2.219,1.52,2.219,4.348c0,2.83-0.838,4.402-2.219,4.402
		C213.285,373.319,212.45,371.747,212.45,368.917z M216.025,368.917c0-2.471-0.543-3.478-1.35-3.478
		c-0.813,0-1.356,1.007-1.356,3.478c0,2.473,0.543,3.529,1.356,3.529C215.482,372.446,216.025,371.39,216.025,368.917z"/>
</g>
<g>
	<path d="M208.317,347.385v-0.054c-0.513-0.438-0.968-1.058-0.968-1.942c0-1.295,0.849-2.167,1.969-2.167
		c1.205,0,1.955,0.938,1.955,2.246c0,0.886-0.532,1.639-0.956,2.037v0.053c0.618,0.436,1.206,1.031,1.206,2.167
		c0,1.256-0.893,2.247-2.238,2.247c-1.305,0-2.271-0.979-2.271-2.313C207.014,348.563,207.664,347.809,208.317,347.385z
		 M209.307,351.165c0.805,0,1.358-0.607,1.358-1.479c0-1.084-0.881-1.481-1.881-1.97c-0.556,0.449-0.968,1.07-0.968,1.837
		C207.816,350.491,208.458,351.165,209.307,351.165z M210.501,345.521c0-0.833-0.446-1.493-1.206-1.493
		c-0.642,0-1.119,0.541-1.119,1.36c0,1.005,0.76,1.429,1.6,1.824C210.24,346.712,210.501,346.144,210.501,345.521z"/>
	<path d="M212.45,347.571c0-2.83,0.837-4.35,2.228-4.35c1.381,0,2.219,1.52,2.219,4.35c0,2.827-0.838,4.4-2.219,4.4
		C213.285,351.973,212.45,350.398,212.45,347.571z M216.025,347.571c0-2.473-0.543-3.478-1.35-3.478
		c-0.813,0-1.356,1.005-1.356,3.478c0,2.471,0.543,3.528,1.356,3.528C215.482,351.1,216.025,350.042,216.025,347.571z"/>
</g>
<g>
	<path d="M207.273,416.628c0.412,0.502,0.937,0.965,1.752,0.965c0.847,0,1.521-0.753,1.521-1.93c0-1.164-0.588-1.853-1.479-1.853
		c-0.479,0-0.773,0.187-1.188,0.518l-0.479-0.371l0.229-4.06h3.469v0.939h-2.687l-0.187,2.499c0.326-0.212,0.644-0.346,1.065-0.346
		c1.185,0,2.151,0.82,2.151,2.646s-1.131,2.854-2.336,2.854c-1.109,0-1.795-0.567-2.271-1.148L207.273,416.628z"/>
	<path d="M212.45,414.09c0-2.829,0.837-4.351,2.228-4.351c1.381,0,2.219,1.521,2.219,4.351s-0.838,4.4-2.219,4.4
		C213.285,418.491,212.45,416.919,212.45,414.09z M216.025,414.09c0-2.474-0.543-3.479-1.35-3.479c-0.813,0-1.356,1.005-1.356,3.479
		c0,2.472,0.543,3.53,1.356,3.53C215.482,417.62,216.025,416.562,216.025,414.09z"/>
</g>
<g>
	<path d="M203.467,304.507h1.586v-6.213h-1.261v-0.701c0.632-0.132,1.089-0.344,1.468-0.621h0.687v7.535h1.435v0.898h-3.912
		L203.467,304.507L203.467,304.507z"/>
	<path d="M208.49,301.161c0-2.828,0.837-4.35,2.229-4.35c1.381,0,2.217,1.521,2.217,4.35c0,2.83-0.836,4.401-2.217,4.401
		C209.326,305.563,208.49,303.991,208.49,301.161z M212.066,301.161c0-2.473-0.545-3.478-1.35-3.478
		c-0.813,0-1.357,1.005-1.357,3.478s0.544,3.528,1.357,3.528C211.523,304.691,212.066,303.634,212.066,301.161z"/>
	<path d="M213.895,301.161c0-2.828,0.836-4.35,2.229-4.35c1.38,0,2.219,1.521,2.219,4.35c0,2.83-0.839,4.401-2.219,4.401
		C214.73,305.563,213.895,303.991,213.895,301.161z M217.471,301.161c0-2.473-0.545-3.478-1.35-3.478
		c-0.814,0-1.357,1.005-1.357,3.478s0.543,3.528,1.357,3.528C216.926,304.691,217.471,303.634,217.471,301.161z"/>
</g>
<g>
	<path d="M207.961,326.645c0.282,0.411,0.706,0.675,1.143,0.675c0.979,0,1.804-0.925,1.836-3.623
		c-0.436,0.674-1.055,1.084-1.631,1.084c-1.193,0-1.967-0.873-1.967-2.604c0-1.612,0.936-2.709,2.043-2.709
		c1.369,0,2.394,1.348,2.394,4.057c0,3.385-1.263,4.692-2.644,4.692c-0.738,0-1.293-0.384-1.675-0.886L207.961,326.645z
		 M210.917,322.839c-0.118-1.639-0.653-2.512-1.532-2.512c-0.675,0-1.207,0.739-1.207,1.851c0,1.097,0.424,1.785,1.282,1.785
		C209.907,323.963,210.451,323.645,210.917,322.839z"/>
	<path d="M212.788,323.816c0-2.829,0.837-4.348,2.229-4.348c1.381,0,2.219,1.521,2.219,4.348c0,2.829-0.838,4.401-2.219,4.401
		C213.625,328.219,212.788,326.645,212.788,323.816z M216.366,323.816c0-2.472-0.545-3.476-1.351-3.476
		c-0.813,0-1.356,1.004-1.356,3.476s0.544,3.53,1.356,3.53C215.821,327.347,216.366,326.288,216.366,323.816z"/>
</g>
<g>
	<path d="M211.243,388.03c-0.283-0.41-0.707-0.66-1.144-0.66c-0.967,0-1.78,0.912-1.825,3.582c0.436-0.647,1.056-1.059,1.62-1.059
		c1.195,0,1.979,0.873,1.979,2.604c0,1.613-0.936,2.711-2.055,2.711c-1.357,0-2.393-1.348-2.393-4.059
		c0-3.384,1.262-4.691,2.644-4.691c0.75,0,1.28,0.385,1.674,0.898L211.243,388.03z M211.026,392.497
		c0-1.097-0.425-1.783-1.282-1.783c-0.438,0-0.979,0.316-1.445,1.111c0.108,1.639,0.641,2.522,1.521,2.522
		C210.503,394.349,211.026,393.608,211.026,392.497z"/>
	<path d="M212.788,390.806c0-2.829,0.836-4.35,2.228-4.35c1.381,0,2.22,1.521,2.22,4.35s-0.839,4.4-2.22,4.4
		C213.624,395.208,212.788,393.635,212.788,390.806z M216.365,390.806c0-2.473-0.544-3.477-1.35-3.477
		c-0.813,0-1.357,1.004-1.357,3.477s0.544,3.529,1.357,3.529C215.821,394.335,216.365,393.278,216.365,390.806z"/>
</g>
<g>
	<path d="M211.326,438.359h-0.945v2.326h-0.849v-2.326h-3.119v-0.714l2.968-5.393h1v5.232h0.945V438.359L211.326,438.359z
		 M209.532,437.486v-2.443c0-0.449,0.03-1.179,0.054-1.626h-0.043c-0.175,0.408-0.369,0.778-0.566,1.188l-1.617,2.881H209.532z"/>
	<path d="M212.109,436.441c0-2.828,0.837-4.349,2.229-4.349c1.381,0,2.219,1.521,2.219,4.349c0,2.83-0.838,4.401-2.219,4.401
		C212.946,440.845,212.109,439.271,212.109,436.441z M215.686,436.441c0-2.472-0.543-3.476-1.348-3.476
		c-0.814,0-1.359,1.004-1.359,3.476c0,2.475,0.545,3.53,1.359,3.53C215.143,439.972,215.686,438.914,215.686,436.441z"/>
</g>
<g>
	<path d="M206.286,458.031c0.413,0.529,0.957,1.004,1.771,1.004c0.838,0,1.438-0.606,1.438-1.546c0-1.005-0.564-1.679-2.218-1.679
		v-0.833c1.479,0,1.968-0.687,1.968-1.573c0-0.817-0.457-1.334-1.195-1.334c-0.576,0-1.064,0.356-1.479,0.858l-0.479-0.688
		c0.532-0.606,1.174-1.058,1.988-1.058c1.207,0,2.076,0.78,2.076,2.141c0,1.02-0.512,1.666-1.262,2.011v0.053
		c0.836,0.238,1.5,0.979,1.5,2.142c0,1.494-1.012,2.406-2.281,2.406c-1.109,0-1.814-0.569-2.283-1.189L206.286,458.031z"/>
	<path d="M211.43,455.532c0-2.827,0.836-4.349,2.229-4.349c1.381,0,2.218,1.521,2.218,4.349c0,2.829-0.837,4.402-2.218,4.402
		C212.266,459.935,211.43,458.361,211.43,455.532z M215.006,455.532c0-2.471-0.545-3.476-1.349-3.476
		c-0.813,0-1.358,1.004-1.358,3.476c0,2.474,0.545,3.529,1.358,3.529C214.461,459.062,215.006,458.005,215.006,455.532z"/>
</g>
<g>
	<path d="M205.982,481.938c2.087-2.522,3.261-4.044,3.261-5.406c0-0.965-0.437-1.65-1.313-1.65c-0.576,0-1.076,0.449-1.479,1.018
		l-0.513-0.622c0.576-0.767,1.195-1.281,2.099-1.281c1.284,0,2.077,0.991,2.077,2.484c0,1.586-1.188,3.159-2.826,5.248
		c0.38-0.039,0.805-0.08,1.163-0.08h2.011v0.939h-4.479V481.938L205.982,481.938z"/>
	<path d="M211.43,478.343c0-2.829,0.836-4.349,2.229-4.349c1.381,0,2.218,1.52,2.218,4.349s-0.837,4.401-2.218,4.401
		C212.266,482.745,211.43,481.172,211.43,478.343z M215.006,478.343c0-2.472-0.545-3.479-1.349-3.479
		c-0.813,0-1.358,1.006-1.358,3.479s0.545,3.53,1.358,3.53C214.461,481.873,215.006,480.814,215.006,478.343z"/>
</g>
<g>
	<path d="M205.727,504.826h1.588v-6.214h-1.262v-0.699c0.631-0.134,1.088-0.346,1.467-0.621h0.687v7.534h1.435v0.897h-3.912
		L205.727,504.826L205.727,504.826z"/>
	<path d="M210.749,501.479c0-2.829,0.837-4.349,2.229-4.349c1.382,0,2.219,1.521,2.219,4.349c0,2.829-0.837,4.402-2.219,4.402
		C211.586,505.882,210.749,504.309,210.749,501.479z M214.326,501.479c0-2.472-0.543-3.477-1.35-3.477
		c-0.813,0-1.356,1.004-1.356,3.477c0,2.475,0.544,3.53,1.356,3.53C213.783,505.01,214.326,503.951,214.326,501.479z"/>
</g>
<g>
	<path d="M209.424,519.149c0-2.829,0.836-4.35,2.229-4.35c1.381,0,2.218,1.521,2.218,4.35s-0.837,4.402-2.218,4.402
		C210.26,523.552,209.424,521.979,209.424,519.149z M212.999,519.149c0-2.471-0.543-3.476-1.349-3.476
		c-0.814,0-1.358,1.005-1.358,3.476c0,2.475,0.544,3.529,1.358,3.529C212.456,522.679,212.999,521.621,212.999,519.149z"/>
</g>
<path fill="none" stroke="#000000" stroke-width="2.4889" stroke-linecap="round" stroke-linejoin="round" d="M-486.129,402.146"/>
<path fill="none" stroke="#000000" stroke-width="2.4889" stroke-linecap="round" stroke-linejoin="round" d="M-484.944,308.433"/>
<path fill="none" stroke="#000000" stroke-width="2.2231" d="M-540.465,214.866"/>
<path fill="none" stroke="#000000" stroke-width="2.4889" stroke-linecap="round" stroke-linejoin="round" d="M-499.442,307.291"/>
<path fill="none" stroke="#000000" stroke-width="2.4889" stroke-linecap="round" stroke-linejoin="round" d="M-498.258,213.578"/>
<path fill="none" d="M-517.434,1102.645l-18.586,6.049v-8"/>
<path fill="none" stroke="#000000" stroke-width="2.1" d="M-530.81,1165.535l8.492-0.001"/>
<polyline fill="#C6C6C6" stroke="#000000" stroke-width="0.0422" stroke-linecap="round" stroke-linejoin="round" points="
	213.551,664.777 213.319,604.08 202.291,604.309 202.155,664.631 "/>
<path fill="none" d="M211.561,625.969l-9.254,2.647v-3.506"/>
<path fill="none" stroke="#000000" stroke-width="2.1" d="M204.159,629.507h5.595"/>
<path fill="none" stroke="#000000" stroke-width="2.1" d="M204.159,624.701h5.594"/>
<path fill="none" stroke="#000000" stroke-width="2.1" d="M204.152,619.897h5.593"/>
<path fill="none" stroke="#000000" stroke-width="2.1" d="M204.152,615.089h5.594"/>
<path fill="none" stroke="#000000" stroke-width="2.1" d="M203.016,610.222l7.742-0.002"/>
<path fill="none" stroke="#000000" stroke-width="2.1" d="M204.184,605.318h5.596"/>
<path fill="none" stroke="#000000" stroke-width="2.1" d="M204.184,600.511h5.595"/>
<path fill="none" stroke="#000000" stroke-width="2.1" d="M204.176,595.705h5.594"/>
<path fill="none" stroke="#000000" stroke-width="2.1" d="M204.176,590.899h5.594"/>
<path fill="none" stroke="#000000" stroke-width="2.1" d="M203.04,586.031h7.743"/>
<path fill="none" stroke="#000000" stroke-width="2.1" d="M204.178,581.141h5.594"/>
<path fill="none" stroke="#000000" stroke-width="2.1" d="M204.17,576.334h5.594"/>
<path fill="none" stroke="#000000" stroke-width="2.1" d="M204.172,571.528h5.592"/>
<path fill="none" stroke="#000000" stroke-width="2.1" d="M203.034,566.658h7.741"/>
<path fill="none" stroke="#000000" stroke-width="2.1" d="M204.902,653.527l4.227-0.002"/>
<path fill="none" stroke="#000000" stroke-width="2.1" d="M204.86,653.537h4.228"/>
<path fill="none" stroke="#000000" stroke-width="2.1" d="M204.17,653.477h5.594"/>
<path fill="none" stroke="#000000" stroke-width="2.1" d="M204.17,648.671l5.594,0.002"/>
<path fill="none" stroke="#000000" stroke-width="2.1" d="M204.161,643.865h5.595"/>
<path fill="none" stroke="#000000" stroke-width="2.1" d="M204.161,639.059h5.595"/>
<path fill="none" stroke="#000000" stroke-width="2.1" d="M203.027,634.189h7.74"/>
<g>
	<path d="M190.551,568.624h-1.386v2.468h-1.241v-2.468h-4.572v-0.76l4.349-5.72h1.465v5.552h1.388v0.928H190.551z M187.924,567.698
		v-2.593c0-0.478,0.047-1.249,0.079-1.727h-0.063c-0.256,0.436-0.543,0.827-0.827,1.263l-2.374,3.057H187.924z"/>
	<path d="M191.698,566.591c0-3.001,1.226-4.612,3.267-4.612c2.021,0,3.25,1.611,3.25,4.612s-1.229,4.669-3.25,4.669
		C192.924,571.26,191.698,569.592,191.698,566.591z M196.939,566.591c0-2.622-0.797-3.688-1.977-3.688
		c-1.193,0-1.99,1.064-1.99,3.688s0.795,3.743,1.99,3.743C196.143,570.334,196.939,569.213,196.939,566.591z"/>
</g>
<g>
	<path d="M183.167,589.488c0.604,0.563,1.402,1.063,2.597,1.063c1.228,0,2.104-0.645,2.104-1.639c0-1.066-0.829-1.779-3.25-1.779
		v-0.883c2.167,0,2.883-0.73,2.883-1.67c0-0.87-0.669-1.417-1.752-1.417c-0.843,0-1.562,0.379-2.167,0.912l-0.699-0.729
		c0.779-0.646,1.719-1.122,2.914-1.122c1.768,0,3.041,0.827,3.041,2.272c0,1.076-0.748,1.766-1.847,2.13v0.058
		c1.228,0.251,2.196,1.036,2.196,2.271c0,1.585-1.48,2.551-3.344,2.551c-1.625,0-2.66-0.603-3.346-1.263L183.167,589.488z"/>
	<path d="M190.702,586.837c0-2.999,1.226-4.612,3.267-4.612c2.021,0,3.248,1.613,3.248,4.612c0,3.001-1.227,4.669-3.248,4.669
		C191.928,591.506,190.702,589.838,190.702,586.837z M195.943,586.837c0-2.622-0.797-3.688-1.977-3.688
		c-1.195,0-1.99,1.064-1.99,3.688c0,2.62,0.795,3.743,1.99,3.743C195.148,590.582,195.943,589.457,195.943,586.837z"/>
</g>
<g>
	<path d="M182.723,614.842c3.06-2.679,4.778-4.292,4.778-5.733c0-1.022-0.637-1.753-1.927-1.753c-0.846,0-1.577,0.478-2.167,1.078
		l-0.749-0.658c0.844-0.813,1.752-1.359,3.075-1.359c1.879,0,3.042,1.052,3.042,2.639c0,1.681-1.736,3.349-4.143,5.565
		c0.56-0.044,1.18-0.084,1.705-0.084h2.947v0.992h-6.563V614.842L182.723,614.842z"/>
	<path d="M190.702,611.029c0-3.003,1.226-4.611,3.267-4.611c2.021,0,3.248,1.61,3.248,4.611c0,2.999-1.227,4.667-3.248,4.667
		C191.928,615.696,190.702,614.028,190.702,611.029z M195.943,611.029c0-2.622-0.797-3.688-1.977-3.688
		c-1.195,0-1.99,1.065-1.99,3.688c0,2.62,0.795,3.743,1.99,3.743C195.148,614.772,195.943,613.651,195.943,611.029z"/>
</g>
<g>
	<path d="M182.348,639.113h2.326v-6.59h-1.849v-0.744c0.923-0.139,1.592-0.361,2.149-0.658h1.002v7.992h2.104v0.952h-5.735
		L182.348,639.113L182.348,639.113z"/>
	<path d="M189.706,635.567c0-3.003,1.226-4.614,3.267-4.614c2.021,0,3.248,1.613,3.248,4.614c0,2.999-1.227,4.667-3.248,4.667
		C190.932,640.234,189.706,638.566,189.706,635.567z M194.947,635.567c0-2.622-0.797-3.688-1.977-3.688
		c-1.193,0-1.99,1.065-1.99,3.688c0,2.62,0.797,3.743,1.99,3.743C194.151,639.311,194.947,638.189,194.947,635.567z"/>
</g>
<g>
	<path d="M187.764,654.308c0-3.001,1.228-4.614,3.267-4.614c2.022,0,3.25,1.613,3.25,4.614c0,2.999-1.228,4.667-3.25,4.667
		C188.99,658.975,187.764,657.307,187.764,654.308z M193.004,654.308c0-2.622-0.796-3.688-1.976-3.688
		c-1.194,0-1.99,1.064-1.99,3.688c0,2.621,0.796,3.743,1.99,3.743C192.207,658.051,193.004,656.929,193.004,654.308z"/>
</g>
<g>
	<path d="M225.6,568.785h-1.385v2.472h-1.242v-2.472h-4.57v-0.756l4.348-5.722h1.465v5.552h1.387L225.6,568.785L225.6,568.785z
		 M222.973,567.86v-2.593c0-0.476,0.047-1.247,0.08-1.724h-0.063c-0.255,0.435-0.542,0.827-0.828,1.262l-2.374,3.055H222.973z"/>
	<path d="M226.747,566.753c0-3.001,1.226-4.612,3.265-4.612c2.023,0,3.252,1.611,3.252,4.612c0,3.002-1.229,4.669-3.252,4.669
		C227.973,571.422,226.747,569.755,226.747,566.753z M231.989,566.753c0-2.62-0.797-3.688-1.978-3.688
		c-1.192,0-1.99,1.066-1.99,3.688c0,2.623,0.798,3.743,1.99,3.743C231.192,570.498,231.989,569.376,231.989,566.753z"/>
</g>
<g>
	<path d="M218.217,589.65c0.605,0.563,1.401,1.067,2.598,1.067c1.227,0,2.103-0.646,2.103-1.645c0-1.063-0.827-1.778-3.248-1.778
		v-0.883c2.166,0,2.884-0.729,2.884-1.672c0-0.865-0.67-1.412-1.754-1.412c-0.844,0-1.561,0.379-2.166,0.908l-0.699-0.729
		c0.779-0.646,1.721-1.121,2.914-1.121c1.77,0,3.041,0.825,3.041,2.271c0,1.08-0.748,1.769-1.848,2.134v0.056
		c1.229,0.253,2.198,1.038,2.198,2.271c0,1.587-1.481,2.555-3.347,2.555c-1.625,0-2.658-0.604-3.346-1.264L218.217,589.65z"/>
	<path d="M225.751,587.001c0-3.001,1.228-4.612,3.267-4.612c2.022,0,3.25,1.611,3.25,4.612c0,2.999-1.228,4.669-3.25,4.669
		C226.979,591.67,225.751,590,225.751,587.001z M230.993,587.001c0-2.622-0.798-3.688-1.978-3.688c-1.193,0-1.989,1.064-1.989,3.688
		s0.796,3.743,1.989,3.743C230.196,590.744,230.993,589.624,230.993,587.001z"/>
</g>
<g>
	<path d="M217.771,615.004c3.061-2.676,4.779-4.288,4.779-5.733c0-1.022-0.638-1.753-1.928-1.753c-0.845,0-1.576,0.479-2.168,1.081
		l-0.748-0.659c0.846-0.813,1.753-1.358,3.074-1.358c1.879,0,3.042,1.051,3.042,2.636c0,1.681-1.735,3.351-4.142,5.563
		c0.558-0.043,1.18-0.083,1.705-0.083h2.945v0.995h-6.563L217.771,615.004L217.771,615.004z"/>
	<path d="M225.751,611.191c0-3.001,1.228-4.61,3.267-4.61c2.022,0,3.25,1.609,3.25,4.61c0,2.999-1.228,4.669-3.25,4.669
		C226.979,615.86,225.751,614.19,225.751,611.191z M230.993,611.191c0-2.622-0.798-3.687-1.978-3.687
		c-1.192,0-1.988,1.063-1.988,3.687s0.796,3.743,1.988,3.743C230.196,614.935,230.993,613.813,230.993,611.191z"/>
</g>
<g>
	<path d="M217.396,639.277h2.326v-6.59h-1.849v-0.743c0.925-0.14,1.593-0.362,2.15-0.659h1.004v7.992h2.103v0.953h-5.734V639.277z"
		/>
	<path d="M224.756,635.729c0-3.001,1.227-4.612,3.266-4.612c2.022,0,3.25,1.611,3.25,4.612c0,2.999-1.228,4.669-3.25,4.669
		C225.982,640.398,224.756,638.729,224.756,635.729z M229.997,635.729c0-2.622-0.797-3.688-1.978-3.688
		c-1.192,0-1.989,1.063-1.989,3.688s0.797,3.743,1.989,3.743C229.201,639.473,229.997,638.352,229.997,635.729z"/>
</g>
<g>
	<path d="M222.813,641.47c0-3.001,1.229-4.612,3.268-4.612c2.021,0,3.249,1.611,3.249,4.612c0,3-1.228,4.669-3.249,4.669
		C224.039,646.139,222.813,644.47,222.813,641.47z M228.053,641.47c0-2.62-0.795-3.688-1.975-3.688c-1.195,0-1.99,1.066-1.99,3.688
		c0,2.623,0.795,3.743,1.99,3.743C227.258,645.213,228.053,644.093,228.053,641.47z"/>
</g>
<line fill="none" stroke="#000000" stroke-width="1.2656" stroke-linecap="round" stroke-linejoin="round" x1="175.609" y1="599.285" x2="150.42" y2="599.285"/>
<g>
	<rect x="105.089" y="590.014" fill="none" width="71.684" height="30.608"/>
	<path d="M106.164,590.602h2.33c1.59,0,2.688,0.478,2.688,1.685c0,0.685-0.441,1.293-1.361,1.504v0.044
		c1.146,0.156,1.815,0.704,1.815,1.648c0,1.357-1.218,2.021-2.975,2.021h-2.498L106.164,590.602L106.164,590.602z M108.315,593.547
		c1.339,0,1.889-0.42,1.889-1.188c0-0.746-0.622-1.062-1.84-1.062h-1.207v2.25H108.315z M108.518,596.807
		c1.351,0,2.14-0.431,2.14-1.366c0-0.853-0.766-1.241-2.14-1.241h-1.361v2.607H108.518L108.518,596.807z"/>
	<path d="M113.011,592.391h0.991v3.123c0,0.957,0.322,1.368,1.087,1.368c0.598,0,1.016-0.263,1.566-0.862v-3.629h0.979v5.111h-0.813
		l-0.083-0.802h-0.036c-0.538,0.561-1.111,0.928-1.913,0.928c-1.23,0-1.78-0.694-1.78-1.998v-3.239H113.011L113.011,592.391z"/>
	<path d="M119.414,590.781c0-0.336,0.298-0.559,0.681-0.559c0.382,0,0.682,0.223,0.682,0.559c0,0.324-0.3,0.559-0.682,0.559
		C119.712,591.338,119.414,591.105,119.414,590.781z M119.593,592.391h0.98v5.111h-0.98V592.391z"/>
	<path d="M122.532,590.012h0.979v6.521c0,0.272,0.131,0.381,0.274,0.381c0.06,0,0.106,0,0.215-0.021l0.131,0.651
		c-0.131,0.052-0.299,0.085-0.561,0.085c-0.741,0-1.04-0.41-1.04-1.157L122.532,590.012L122.532,590.012z"/>
	<path d="M125.746,593.095h-0.861v-0.651l0.908-0.053l0.12-1.432h0.824v1.432h1.564v0.704h-1.564v2.838
		c0,0.632,0.227,0.99,0.896,0.99c0.203,0,0.466-0.074,0.657-0.138l0.19,0.651c-0.322,0.095-0.718,0.189-1.074,0.189
		c-1.243,0-1.661-0.694-1.661-1.704L125.746,593.095L125.746,593.095z"/>
	<path d="M128.817,594.535h2.747v0.663h-2.747V594.535z"/>
	<path d="M132.842,590.781c0-0.336,0.299-0.559,0.681-0.559c0.383,0,0.682,0.223,0.682,0.559c0,0.324-0.299,0.559-0.682,0.559
		C133.141,591.338,132.842,591.105,132.842,590.781z M133.021,592.391h0.98v5.111h-0.98V592.391z"/>
	<path d="M135.96,592.391h0.813l0.083,0.736h0.035c0.551-0.484,1.148-0.863,1.948-0.863c1.218,0,1.769,0.693,1.769,2v3.238h-0.979
		v-3.123c0-0.958-0.334-1.368-1.1-1.368c-0.598,0-1.003,0.272-1.589,0.789v3.702h-0.979L135.96,592.391L135.96,592.391z"/>
	<path d="M106.236,605.713h-0.861v-0.651l0.908-0.052l0.12-1.43h0.824v1.43h1.565v0.703h-1.565v2.841
		c0,0.63,0.228,0.987,0.896,0.987c0.203,0,0.466-0.073,0.657-0.139l0.19,0.653c-0.322,0.095-0.717,0.188-1.075,0.188
		c-1.242,0-1.66-0.692-1.66-1.701L106.236,605.713L106.236,605.713z"/>
	<path d="M110.107,602.633h0.979v2.041l-0.035,1.051c0.549-0.462,1.135-0.843,1.937-0.843c1.219,0,1.769,0.696,1.769,1.998v3.241
		h-0.979v-3.123c0-0.956-0.334-1.368-1.1-1.368c-0.597,0-1.003,0.272-1.589,0.788v3.703h-0.979v-7.488H110.107L110.107,602.633z"/>
	<path d="M118.781,604.884c1.48,0,2.317,0.936,2.317,2.396c0,0.18-0.013,0.35-0.036,0.476h-3.919
		c0.072,1.104,0.825,1.797,1.937,1.797c0.549,0,1.016-0.156,1.446-0.4l0.346,0.568c-0.502,0.284-1.124,0.525-1.912,0.525
		c-1.553,0-2.784-1-2.784-2.671C116.176,605.902,117.453,604.884,118.781,604.884z M120.238,607.186c0-1.04-0.526-1.617-1.435-1.617
		c-0.813,0-1.553,0.587-1.672,1.617H120.238z"/>
	<path d="M122.532,605.01h0.813l0.083,0.926h0.036c0.395-0.644,0.991-1.052,1.648-1.052c0.251,0,0.43,0.031,0.622,0.104l-0.191,0.76
		c-0.191-0.055-0.323-0.083-0.563-0.083c-0.488,0-1.074,0.313-1.469,1.177v3.281h-0.979V605.01z"/>
	<path d="M126.677,605.01h0.813l0.083,0.736h0.036c0.502-0.483,1.11-0.862,1.804-0.862c0.884,0,1.362,0.367,1.601,0.979
		c0.61-0.58,1.208-0.979,1.913-0.979c1.194,0,1.769,0.694,1.769,1.998v3.239h-0.979v-3.123c0-0.956-0.347-1.368-1.076-1.368
		c-0.454,0-0.92,0.263-1.458,0.788v3.703h-0.979v-3.123c0-0.956-0.348-1.368-1.087-1.368c-0.431,0-0.92,0.263-1.458,0.788v3.703
		h-0.98v-5.111H126.677z"/>
	<path d="M138.839,604.884c1.422,0,2.688,0.979,2.688,2.692c0,1.69-1.268,2.672-2.688,2.672c-1.42,0-2.688-0.979-2.688-2.672
		C136.151,605.862,137.417,604.884,138.839,604.884z M138.839,609.531c1.004,0,1.673-0.786,1.673-1.955
		c0-1.179-0.67-1.978-1.673-1.978c-0.991,0-1.672,0.799-1.672,1.978C137.166,608.744,137.847,609.531,138.839,609.531z"/>
	<path d="M143.056,605.01h0.813l0.083,0.736h0.036c0.501-0.483,1.11-0.862,1.804-0.862c0.884,0,1.362,0.367,1.601,0.979
		c0.61-0.58,1.207-0.979,1.912-0.979c1.195,0,1.77,0.694,1.77,1.998v3.239h-0.98v-3.123c0-0.956-0.346-1.368-1.075-1.368
		c-0.454,0-0.92,0.263-1.458,0.788v3.703h-0.979v-3.123c0-0.956-0.347-1.368-1.088-1.368c-0.431,0-0.919,0.263-1.458,0.788v3.703
		h-0.98L143.056,605.01L143.056,605.01z"/>
	<path d="M155.135,604.884c1.482,0,2.318,0.936,2.318,2.396c0,0.18-0.011,0.35-0.036,0.476h-3.919
		c0.072,1.104,0.825,1.797,1.936,1.797c0.551,0,1.017-0.156,1.446-0.4l0.346,0.568c-0.501,0.284-1.123,0.525-1.912,0.525
		c-1.553,0-2.783-1-2.783-2.671C152.531,605.902,153.809,604.884,155.135,604.884z M156.593,607.186c0-1.04-0.525-1.617-1.434-1.617
		c-0.813,0-1.554,0.587-1.672,1.617H156.593z"/>
	<path d="M158.886,605.713h-0.859v-0.651l0.907-0.052l0.119-1.43h0.824v1.43h1.565v0.703h-1.565v2.841
		c0,0.63,0.227,0.987,0.896,0.987c0.204,0,0.467-0.073,0.658-0.139l0.191,0.653c-0.322,0.095-0.717,0.188-1.076,0.188
		c-1.242,0-1.661-0.692-1.661-1.701L158.886,605.713L158.886,605.713z"/>
	<path d="M164.812,604.884c1.481,0,2.318,0.936,2.318,2.396c0,0.18-0.012,0.35-0.036,0.476h-3.919
		c0.072,1.104,0.824,1.797,1.937,1.797c0.549,0,1.016-0.156,1.445-0.4l0.347,0.568c-0.501,0.284-1.123,0.525-1.912,0.525
		c-1.555,0-2.784-1-2.784-2.671C162.207,605.902,163.486,604.884,164.812,604.884z M166.27,607.186c0-1.04-0.524-1.617-1.434-1.617
		c-0.813,0-1.553,0.587-1.673,1.617H166.27z"/>
	<path d="M168.563,605.01h0.813l0.083,0.926h0.035c0.395-0.644,0.992-1.052,1.648-1.052c0.251,0,0.431,0.031,0.621,0.104l-0.19,0.76
		c-0.191-0.055-0.323-0.083-0.563-0.083c-0.49,0-1.075,0.313-1.47,1.177v3.281h-0.98v-5.111L168.563,605.01L168.563,605.01z"/>
</g>
<g>
	<rect x="115.764" y="418.086" fill="none" width="62.673" height="36.53"/>
	<path d="M120.423,423.47h-2.855l-0.754,2.104h-1.016l2.652-6.897h1.124l2.651,6.897h-1.063L120.423,423.47z M120.172,422.765
		l-0.371-1.051c-0.287-0.77-0.538-1.525-0.789-2.324h-0.048c-0.238,0.799-0.49,1.556-0.776,2.324l-0.37,1.051H120.172z"/>
	<path d="M123.242,418.086h0.979v6.521c0,0.273,0.131,0.378,0.274,0.378c0.06,0,0.107,0,0.216-0.021l0.131,0.65
		c-0.131,0.054-0.3,0.084-0.562,0.084c-0.741,0-1.04-0.408-1.04-1.155L123.242,418.086L123.242,418.086z"/>
	<path d="M128.654,420.336c0.764,0,1.302,0.284,1.696,0.608l-0.489,0.559c-0.347-0.265-0.705-0.452-1.172-0.452
		c-1.052,0-1.815,0.799-1.815,1.977c0,1.168,0.729,1.956,1.792,1.956c0.55,0,1.016-0.241,1.362-0.515l0.441,0.568
		c-0.525,0.408-1.193,0.661-1.888,0.661c-1.541,0-2.724-0.979-2.724-2.672C125.859,421.313,127.161,420.336,128.654,420.336z"/>
	<path d="M133.743,420.336c1.421,0,2.688,0.979,2.688,2.69c0,1.694-1.267,2.672-2.688,2.672s-2.688-0.979-2.688-2.672
		C131.056,421.313,132.323,420.336,133.743,420.336z M133.743,424.984c1.004,0,1.673-0.789,1.673-1.957
		c0-1.177-0.67-1.977-1.673-1.977c-0.992,0-1.672,0.799-1.672,1.977C132.072,424.195,132.752,424.984,133.743,424.984z"/>
	<path d="M137.961,418.086h0.98v2.04l-0.036,1.052c0.55-0.463,1.136-0.842,1.936-0.842c1.219,0,1.77,0.692,1.77,1.999v3.237h-0.98
		v-3.122c0-0.959-0.334-1.367-1.099-1.367c-0.599,0-1.004,0.271-1.59,0.789v3.699h-0.98v-7.485H137.961z"/>
	<path d="M146.718,420.336c1.421,0,2.688,0.979,2.688,2.69c0,1.694-1.268,2.672-2.688,2.672c-1.422,0-2.688-0.979-2.688-2.672
		C144.031,421.313,145.296,420.336,146.718,420.336z M146.718,424.984c1.004,0,1.672-0.789,1.672-1.957
		c0-1.177-0.669-1.977-1.672-1.977c-0.992,0-1.673,0.799-1.673,1.977C145.045,424.195,145.726,424.984,146.718,424.984z"/>
	<path d="M150.935,418.086h0.98v6.521c0,0.273,0.132,0.378,0.274,0.378c0.061,0,0.108,0,0.217-0.021l0.131,0.65
		c-0.131,0.054-0.3,0.084-0.563,0.084c-0.74,0-1.04-0.408-1.04-1.155L150.935,418.086L150.935,418.086z"/>
	<path d="M117.722,438.624v1.725h-0.979v-7.267h0.812l0.083,0.589h0.036c0.526-0.392,1.171-0.715,1.854-0.715
		c1.492,0,2.293,1.02,2.293,2.606c0,1.735-1.183,2.756-2.51,2.756c-0.538,0-1.074-0.221-1.612-0.589L117.722,438.624z
		 M119.144,437.594c0.957,0,1.661-0.77,1.661-2.03c0-1.125-0.43-1.882-1.528-1.882c-0.49,0-0.98,0.242-1.555,0.693v2.683
		C118.248,437.445,118.762,437.594,119.144,437.594z"/>
	<path d="M125.548,432.955c1.482,0,2.317,0.936,2.317,2.396c0,0.179-0.012,0.347-0.035,0.474h-3.919
		c0.072,1.104,0.824,1.8,1.936,1.8c0.55,0,1.017-0.157,1.446-0.4l0.346,0.568c-0.501,0.282-1.124,0.523-1.912,0.523
		c-1.553,0-2.783-0.999-2.783-2.671S124.222,432.955,125.548,432.955z M127.006,435.259c0-1.041-0.525-1.62-1.433-1.62
		c-0.813,0-1.555,0.589-1.673,1.62H127.006z"/>
	<path d="M129.299,433.082h0.813l0.083,0.925h0.035c0.395-0.644,0.991-1.052,1.648-1.052c0.251,0,0.431,0.03,0.622,0.104
		l-0.191,0.757c-0.191-0.052-0.321-0.084-0.562-0.084c-0.49,0-1.075,0.315-1.469,1.178v3.282h-0.98L129.299,433.082L129.299,433.082
		z"/>
	<path d="M135.691,432.955c0.764,0,1.301,0.282,1.695,0.608l-0.489,0.56c-0.346-0.265-0.704-0.453-1.171-0.453
		c-1.052,0-1.815,0.799-1.815,1.977c0,1.168,0.728,1.956,1.792,1.956c0.549,0,1.016-0.242,1.36-0.515l0.443,0.565
		c-0.526,0.411-1.195,0.663-1.888,0.663c-1.542,0-2.726-0.978-2.726-2.671C132.895,433.933,134.198,432.955,135.691,432.955z"/>
	<path d="M140.697,432.955c1.481,0,2.317,0.936,2.317,2.396c0,0.179-0.011,0.347-0.036,0.474h-3.919
		c0.073,1.104,0.825,1.8,1.938,1.8c0.55,0,1.016-0.157,1.446-0.4l0.347,0.568c-0.502,0.282-1.124,0.523-1.913,0.523
		c-1.553,0-2.784-0.999-2.784-2.671S139.37,432.955,140.697,432.955z M142.154,435.259c0-1.041-0.525-1.62-1.434-1.62
		c-0.813,0-1.554,0.589-1.673,1.62H142.154z"/>
	<path d="M144.448,433.082h0.813l0.084,0.734h0.036c0.55-0.482,1.146-0.86,1.948-0.86c1.218,0,1.768,0.692,1.768,1.999v3.237h-0.979
		v-3.124c0-0.958-0.335-1.365-1.101-1.365c-0.597,0-1.004,0.271-1.588,0.786v3.703h-0.979v-5.11H144.448z"/>
	<path d="M151.15,433.785h-0.861v-0.65l0.908-0.053l0.12-1.432h0.822v1.432h1.565v0.703h-1.565v2.841
		c0,0.631,0.229,0.987,0.896,0.987c0.203,0,0.466-0.072,0.657-0.137l0.191,0.652c-0.323,0.095-0.718,0.188-1.076,0.188
		c-1.242,0-1.661-0.692-1.661-1.704L151.15,433.785L151.15,433.785z"/>
	<path d="M158.092,434.954c0-0.652-0.251-1.283-1.194-1.283c-0.681,0-1.277,0.271-1.731,0.547l-0.396-0.599
		c0.538-0.307,1.351-0.663,2.282-0.663c1.422,0,2.021,0.831,2.021,2.103v3.135h-0.813l-0.083-0.608h-0.022
		c-0.563,0.397-1.207,0.734-1.925,0.734c-0.979,0-1.708-0.536-1.708-1.45C154.519,435.753,155.618,435.194,158.092,434.954z
		 M156.503,437.625c0.563,0,1.028-0.242,1.589-0.686v-1.42c-1.948,0.211-2.604,0.631-2.604,1.283
		C155.487,437.383,155.929,437.625,156.503,437.625z"/>
	<path d="M161.329,438.015v-0.043c-0.287-0.158-0.513-0.431-0.513-0.83c0-0.432,0.335-0.768,0.632-0.947v-0.042
		c-0.382-0.272-0.752-0.768-0.752-1.378c0-1.113,1.004-1.818,2.187-1.818c0.323,0,0.61,0.052,0.824,0.126h2.02v0.661h-1.193
		c0.273,0.23,0.477,0.62,0.477,1.053c0,1.094-0.943,1.775-2.126,1.775c-0.287,0-0.608-0.063-0.872-0.179
		c-0.203,0.158-0.37,0.326-0.37,0.61c0,0.326,0.239,0.557,1.027,0.557h1.123c1.35,0,2.031,0.368,2.031,1.22
		c0,0.946-1.136,1.769-2.939,1.769c-1.422,0-2.4-0.494-2.4-1.377C160.481,438.739,160.804,438.33,161.329,438.015z M163.025,439.949
		c1.11,0,1.84-0.504,1.84-1.042c0-0.474-0.418-0.631-1.17-0.631h-1.004c-0.228,0-0.502-0.021-0.754-0.084
		c-0.418,0.265-0.597,0.567-0.597,0.862C161.341,439.602,161.975,439.949,163.025,439.949z M164.114,434.774
		c0-0.747-0.551-1.188-1.231-1.188c-0.68,0-1.23,0.439-1.23,1.188c0,0.746,0.562,1.222,1.23,1.222S164.114,435.521,164.114,434.774z
		"/>
	<path d="M168.952,432.955c1.48,0,2.316,0.936,2.316,2.396c0,0.179-0.011,0.347-0.035,0.474h-3.92c0.072,1.104,0.824,1.8,1.937,1.8
		c0.55,0,1.016-0.157,1.446-0.4l0.347,0.568c-0.502,0.282-1.124,0.523-1.913,0.523c-1.553,0-2.784-0.999-2.784-2.671
		S167.626,432.955,168.952,432.955z M170.409,435.259c0-1.041-0.525-1.62-1.434-1.62c-0.813,0-1.554,0.589-1.672,1.62H170.409z"/>
	<path d="M116.588,449.654c0.502,0.358,1.015,0.61,1.708,0.61c0.765,0,1.147-0.357,1.147-0.799c0-0.525-0.693-0.757-1.326-0.967
		c-0.824-0.266-1.732-0.61-1.732-1.475c0-0.818,0.741-1.452,1.995-1.452c0.729,0,1.362,0.265,1.805,0.578l-0.466,0.547
		c-0.394-0.262-0.813-0.45-1.327-0.45c-0.728,0-1.063,0.346-1.063,0.734c0,0.484,0.633,0.662,1.291,0.883
		c0.836,0.273,1.768,0.579,1.768,1.548c0,0.829-0.753,1.522-2.127,1.522c-0.824,0-1.613-0.305-2.162-0.704L116.588,449.654z"/>
	<path d="M124.114,445.574c0.765,0,1.303,0.284,1.696,0.61l-0.489,0.557c-0.347-0.263-0.705-0.451-1.171-0.451
		c-1.052,0-1.816,0.8-1.816,1.978c0,1.167,0.729,1.957,1.792,1.957c0.55,0,1.016-0.243,1.362-0.516l0.442,0.566
		c-0.525,0.411-1.194,0.663-1.889,0.663c-1.541,0-2.724-0.978-2.724-2.671C121.319,446.553,122.62,445.574,124.114,445.574z"/>
	<path d="M130.363,447.572c0-0.65-0.251-1.282-1.194-1.282c-0.681,0-1.279,0.272-1.733,0.547l-0.394-0.601
		c0.538-0.305,1.35-0.663,2.282-0.663c1.421,0,2.02,0.831,2.02,2.104v3.134h-0.813l-0.083-0.609h-0.024
		c-0.561,0.398-1.207,0.735-1.923,0.735c-0.98,0-1.708-0.537-1.708-1.452C126.791,448.372,127.889,447.814,130.363,447.572z
		 M128.775,450.245c0.561,0,1.026-0.242,1.588-0.686v-1.42c-1.948,0.21-2.604,0.631-2.604,1.283
		C127.759,450.003,128.2,450.245,128.775,450.245z"/>
	<path d="M133.195,443.323h0.979v6.521c0,0.271,0.131,0.378,0.274,0.378c0.06,0,0.107,0,0.216-0.022l0.131,0.652
		c-0.131,0.052-0.299,0.084-0.562,0.084c-0.74,0-1.04-0.411-1.04-1.157L133.195,443.323L133.195,443.323z"/>
	<path d="M138.415,445.574c1.481,0,2.318,0.938,2.318,2.398c0,0.179-0.012,0.347-0.036,0.473h-3.919
		c0.071,1.105,0.823,1.8,1.936,1.8c0.55,0,1.016-0.157,1.445-0.399l0.347,0.568c-0.501,0.281-1.124,0.523-1.912,0.523
		c-1.553,0-2.784-0.999-2.784-2.671C135.81,446.594,137.09,445.574,138.415,445.574z M139.873,447.878
		c0-1.042-0.525-1.619-1.434-1.619c-0.813,0-1.554,0.589-1.673,1.619H139.873z"/>
</g>
<g>
	<rect x="203.512" y="550.015" fill="none" width="16.099" height="17.396"/>
	<path d="M210.36,550.788c1.571,0,2.807,0.666,3.563,1.418l-0.937,0.93c-0.679-0.647-1.515-1.069-2.608-1.069
		c-2.488,0-4.121,1.788-4.121,4.646c0,2.893,1.572,4.713,4.041,4.713c1.256,0,2.17-0.456,3.008-1.279l0.937,0.896
		c-1.035,1.052-2.312,1.664-3.981,1.664c-3.285,0-5.713-2.207-5.713-5.958C204.547,553.049,207.016,550.788,210.36,550.788z"/>
</g>
<ellipse fill="none" stroke="#000000" cx="201.794" cy="551.703" rx="1.767" ry="1.378"/>
<line fill="none" stroke="#000000" x1="160.043" y1="427.402" x2="193.277" y2="427.402"/>
<g>
	<rect x="111.371" y="672.976" fill="none" width="71.684" height="30.607"/>
	<path d="M111.645,673.563h1.028l0.824,3.755c0.144,0.748,0.311,1.482,0.454,2.229h0.048c0.179-0.747,0.37-1.493,0.549-2.229
		l1.088-3.755h0.908l1.087,3.755c0.191,0.729,0.382,1.482,0.574,2.229h0.047c0.144-0.747,0.287-1.493,0.442-2.229l0.823-3.755h0.956
		l-1.625,6.9h-1.193l-1.185-4.154c-0.143-0.537-0.262-1.03-0.382-1.565h-0.049c-0.119,0.535-0.262,1.03-0.395,1.565l-1.158,4.154
		h-1.184L111.645,673.563z"/>
	<path d="M123.916,675.225c1.481,0,2.318,0.938,2.318,2.398c0,0.178-0.013,0.348-0.036,0.473h-3.919
		c0.071,1.105,0.823,1.798,1.936,1.798c0.55,0,1.016-0.157,1.446-0.396l0.347,0.566c-0.501,0.282-1.124,0.525-1.912,0.525
		c-1.553,0-2.783-0.999-2.783-2.673C121.312,676.244,122.59,675.225,123.916,675.225z M125.374,677.528
		c0-1.042-0.525-1.62-1.433-1.62c-0.813,0-1.555,0.592-1.674,1.62H125.374z"/>
	<path d="M127.489,673.742c0-0.336,0.298-0.559,0.681-0.559c0.382,0,0.681,0.223,0.681,0.559c0,0.325-0.299,0.559-0.681,0.559
		C127.786,674.299,127.489,674.067,127.489,673.742z M127.667,675.352h0.979v5.111h-0.979V675.352z"/>
	<path d="M131.012,680.283v-0.042c-0.287-0.154-0.513-0.431-0.513-0.831c0-0.431,0.334-0.768,0.633-0.943v-0.044
		c-0.383-0.274-0.753-0.771-0.753-1.378c0-1.115,1.004-1.82,2.188-1.82c0.321,0,0.609,0.054,0.824,0.127h2.021v0.663h-1.195
		c0.275,0.23,0.479,0.618,0.479,1.05c0,1.094-0.944,1.779-2.126,1.779c-0.287,0-0.609-0.063-0.872-0.18
		c-0.203,0.156-0.371,0.325-0.371,0.608c0,0.327,0.238,0.559,1.027,0.559h1.123c1.351,0,2.031,0.367,2.031,1.22
		c0,0.947-1.135,1.767-2.938,1.767c-1.422,0-2.401-0.493-2.401-1.376C130.164,681.01,130.487,680.599,131.012,680.283z
		 M132.709,682.218c1.111,0,1.84-0.504,1.84-1.039c0-0.476-0.418-0.632-1.171-0.632h-1.004c-0.228,0-0.502-0.021-0.753-0.084
		c-0.418,0.264-0.598,0.566-0.598,0.86C131.024,681.872,131.658,682.218,132.709,682.218z M133.797,677.045
		c0-0.746-0.55-1.188-1.23-1.188c-0.682,0-1.23,0.442-1.23,1.188s0.562,1.22,1.23,1.22S133.797,677.791,133.797,677.045z"/>
	<path d="M136.627,672.974h0.979v2.04l-0.035,1.054c0.55-0.464,1.135-0.843,1.936-0.843c1.219,0,1.769,0.693,1.769,1.998v3.24
		h-0.979v-3.124c0-0.959-0.335-1.368-1.099-1.368c-0.598,0-1.004,0.272-1.589,0.79v3.702h-0.98L136.627,672.974L136.627,672.974z"/>
	<path d="M143.294,676.056h-0.86v-0.651l0.908-0.053l0.12-1.432h0.823v1.432h1.564v0.704h-1.564v2.839
		c0,0.632,0.227,0.989,0.896,0.989c0.203,0,0.466-0.073,0.657-0.138l0.191,0.651c-0.323,0.094-0.718,0.189-1.075,0.189
		c-1.243,0-1.661-0.695-1.661-1.704L143.294,676.056L143.294,676.056z"/>
	<path d="M149.22,675.225c1.481,0,2.318,0.938,2.318,2.398c0,0.178-0.012,0.348-0.036,0.473h-3.919
		c0.072,1.105,0.825,1.798,1.936,1.798c0.551,0,1.017-0.157,1.446-0.396l0.347,0.566c-0.502,0.282-1.124,0.525-1.911,0.525
		c-1.554,0-2.784-0.999-2.784-2.673C146.615,676.244,147.893,675.225,149.22,675.225z M150.678,677.528
		c0-1.042-0.525-1.62-1.434-1.62c-0.813,0-1.553,0.592-1.672,1.62H150.678z"/>
	<path d="M155.074,675.225c0.669,0,1.11,0.22,1.625,0.589l-0.047-0.873v-1.965h0.99v7.487h-0.813l-0.083-0.601h-0.036
		c-0.454,0.391-1.075,0.727-1.756,0.727c-1.458,0-2.401-0.966-2.401-2.673C152.553,676.255,153.748,675.225,155.074,675.225z
		 M155.169,679.864c0.538,0,1.003-0.229,1.482-0.703v-2.675c-0.49-0.389-0.934-0.533-1.41-0.533c-0.933,0-1.673,0.787-1.673,1.953
		C153.568,679.128,154.154,679.864,155.169,679.864z"/>
	<path d="M112.35,685.594h0.981v2.041l-0.025,0.926c0.526-0.412,1.172-0.717,1.816-0.717c1.506,0,2.307,1.02,2.307,2.597
		c0,1.747-1.183,2.77-2.51,2.77c-0.538,0-1.146-0.232-1.661-0.63h-0.036l-0.084,0.504h-0.789L112.35,685.594L112.35,685.594z
		 M114.753,692.483c0.956,0,1.661-0.77,1.661-2.027c0-1.128-0.43-1.886-1.529-1.886c-0.489,0-1.003,0.241-1.553,0.693v2.682
		C113.844,692.334,114.37,692.483,114.753,692.483z"/>
	<path d="M122.1,689.842c0-0.651-0.25-1.281-1.193-1.281c-0.682,0-1.278,0.272-1.732,0.547l-0.395-0.6
		c0.538-0.305,1.351-0.664,2.281-0.664c1.423,0,2.021,0.83,2.021,2.104v3.137h-0.813l-0.083-0.61h-0.022
		c-0.563,0.397-1.207,0.736-1.924,0.736c-0.979,0-1.708-0.535-1.708-1.451C118.528,690.642,119.628,690.085,122.1,689.842z
		 M120.512,692.514c0.563,0,1.027-0.241,1.588-0.684v-1.423c-1.946,0.212-2.604,0.634-2.604,1.285
		C119.495,692.272,119.938,692.514,120.512,692.514z"/>
	<path d="M124.776,691.925c0.502,0.355,1.016,0.61,1.709,0.61c0.765,0,1.146-0.357,1.146-0.802c0-0.523-0.693-0.756-1.326-0.967
		c-0.825-0.265-1.732-0.609-1.732-1.472c0-0.819,0.74-1.452,1.996-1.452c0.729,0,1.361,0.264,1.804,0.578l-0.467,0.547
		c-0.395-0.263-0.813-0.452-1.326-0.452c-0.729,0-1.063,0.348-1.063,0.736c0,0.481,0.633,0.663,1.29,0.883
		c0.836,0.271,1.77,0.58,1.77,1.546c0,0.831-0.753,1.525-2.126,1.525c-0.824,0-1.613-0.308-2.163-0.704L124.776,691.925z"/>
	<path d="M132.113,687.845c1.48,0,2.316,0.936,2.316,2.396c0,0.18-0.012,0.348-0.035,0.476h-3.919
		c0.072,1.104,0.824,1.797,1.937,1.797c0.549,0,1.015-0.156,1.446-0.399l0.346,0.567c-0.501,0.284-1.124,0.526-1.912,0.526
		c-1.553,0-2.784-0.999-2.784-2.671C129.507,688.863,130.785,687.845,132.113,687.845z M133.569,690.146
		c0-1.039-0.525-1.617-1.434-1.617c-0.813,0-1.554,0.588-1.673,1.617H133.569z"/>
</g>
<line fill="none" stroke="#000000" x1="150.42" y1="685.645" x2="178.551" y2="685.645"/>
<g>
	<path fill="#FFFFFF" d="M83.5,278.384v463h240v-463H83.5z M316.354,722.516c0.01,9.672-1.326,12.039-5.539,12.022
		c-71.166-0.265-142.331-0.255-213.5-0.015c-4.003,0.01-5.335-2.291-5.327-11.51c0.121-142.84,0.121-285.675,0-428.514
		c-0.008-9.19,1.29-11.578,5.313-11.545c22.498,0.191,47.43,0.176,106.96,0.176c35.516,0,71.029,0.145,106.541-0.188
		c4.191-0.042,5.557,2.277,5.551,11.995C316.217,437.472,316.217,579.998,316.354,722.516z"/>
	<path fill="none" stroke="#626262" stroke-miterlimit="10" d="M94.641,524.241c-0.31-0.668-0.617-1.336-0.924-2.006
		C94.026,522.905,94.333,523.573,94.641,524.241z"/>
	<g>
		<g>
			<path fill="none" stroke="#626262" stroke-miterlimit="10" d="M203.52,283.313c36.227,0,72.451,0.141,108.674-0.189
				c4.279-0.038,5.672,2.277,5.66,11.995c-0.139,142.528-0.139,285.049,0,427.574c0.012,9.672-1.352,12.035-5.646,12.021
				c-72.59-0.263-145.188-0.248-217.777-0.011c-4.085,0.011-5.443-2.299-5.435-11.51c0.122-142.84,0.122-285.675,0-428.514
				c-0.009-9.189,1.315-11.577,5.421-11.546C130.782,283.443,167.149,283.313,203.52,283.313z"/>
		</g>
		<path fill="none" stroke="#626262" stroke-miterlimit="10" d="M266.469,728.901c0.342,0.248,0.682,0.584,1.033,0.672"/>
		<path fill="none" stroke="#626262" stroke-miterlimit="10" d="M267.502,729.579c-0.355-0.094-0.691-0.43-1.035-0.678"/>
		<path fill="none" stroke="#626262" stroke-miterlimit="10" d="M91.693,563.524c-0.311-0.666-0.618-1.336-0.927-2.002
			C91.077,562.188,91.383,562.858,91.693,563.524z"/>
	</g>
</g>
</svg>
