<?xml version="1.0" encoding="utf-8"?>
<!-- Generator: Adobe Illustrator 15.1.0, SVG Export Plug-In . SVG Version: 6.00 Build 0)  -->
<!DOCTYPE svg PUBLIC "-//W3C//DTD SVG 1.1//EN" "http://www.w3.org/Graphics/SVG/1.1/DTD/svg11.dtd">
<svg version="1.1" id="Layer_1" xmlns="http://www.w3.org/2000/svg" xmlns:xlink="http://www.w3.org/1999/xlink" x="0px" y="0px"
	 width="325.984px" height="351.057px" viewBox="0 0 325.984 351.057" enable-background="new 0 0 325.984 351.057"
	 xml:space="preserve">
<g>
	<path d="M87.222,77.111c-1.13,1.026-2.144,2.118-3.006,3.38c-0.73,1.069-1.645,2.394-1.594,3.73
		c0.031,0.788,0.869,1.302,1.46,0.664c0.761-0.816,1.053-2.15,1.599-3.133c0.668-1.205,1.527-2.319,2.43-3.357
		C88.61,77.821,87.915,76.483,87.222,77.111z"/>
	<path d="M90.615,80.897c-2.317,2.013-3.795,5.754-3.026,8.82c0.227,0.901,1.301,0.792,1.525-0.038
		c0.315-1.166,0.251-2.402,0.476-3.59c0.275-1.458,0.981-2.8,1.876-3.97C91.89,81.565,91.312,80.294,90.615,80.897z"/>
	<path d="M95.779,93.271c0.511-1.305,0.372-2.691,0.937-4.013c0.647-1.511,1.884-2.785,3.18-3.763
		c0.47-0.354,0.216-1.391-0.451-1.158c-1.803,0.626-3.207,1.809-4.178,3.461c-0.875,1.489-1.841,3.888-0.82,5.506
		C94.761,93.805,95.525,93.92,95.779,93.271z"/>
	<path d="M103.443,91.577c0.184-0.645-0.032-1.281,0.059-1.936c0.094-0.676,0.406-1.251,0.835-1.772
		c0.561-0.68-0.233-2.23-1.043-1.487c-0.743,0.682-1.36,1.479-1.629,2.468c-0.277,1.021-0.423,2.37,0.352,3.205
		C102.549,92.627,103.259,92.22,103.443,91.577z"/>
	<path d="M109.863,89.057c-0.014-0.624-0.024-1.25-0.036-1.875c-0.009-0.469-0.354-0.968-0.863-0.956
		c-0.526,0.013-0.806,0.528-0.815,0.997c-0.012,0.626-0.023,1.251-0.037,1.878C108.089,90.386,109.887,90.345,109.863,89.057z"/>
	<path d="M312.77,162.062c-7.452,5.411-17.231,6.885-26.224,7.163c-9.749,0.301-20.35-0.932-26.71-9.052
		c-6.896-8.805-13.138-17.771-21.288-25.57c-8.137-7.786-18.558-12.858-28.694-17.511c-8.27-3.796-16.636-7.474-25.338-10.156
		c-4.139-1.276-8.264-2.576-12.293-4.173c-3.383-1.343-9.703-3.769-11.019-7.647c-1.144-3.368,1.269-8.612,2.374-11.695
		c1.303-3.635,2.842-7.179,4.115-10.824c1.691-4.835,2.742-9.864,4.49-14.7c2.063-5.708,4.579-11.254,7.149-16.751
		c0.021-0.005,0.032-0.009,0.052-0.014c0.115-0.028,0.203-0.083,0.279-0.148c3.729,0.079,7.328,3.026,10.107,5.15
		c3.278,2.504,6.273,5.358,9.634,7.754c4.139,2.95,8.707,5.555,13.04,8.222c4.854,2.987,9.887,4.326,15.154,6.288
		c4.652,1.731,8.479,5.354,12.375,8.302c3.74,2.829,7.913,4.78,12.309,6.355c3.288,1.179,6.73,1.971,9.815,3.659
		c2.769,1.516,4.433,3.989,5.561,6.756c0.456,1.561,0.978,3.104,1.455,4.669c0.573,1.874,2.927,0.913,2.499-0.859
		c-0.369-1.521-0.807-2.923-1.324-4.216c-0.107-0.354-0.205-0.711-0.305-1.068c4.334,1.652,7.817,4.612,10.757,8.281
		c1.192,1.489,2.727-0.842,1.763-2.133c-1.915-2.568-4.258-4.791-6.91-6.537c4.916,0.042,9.585,2.526,13.053,6.009
		c1.291,1.299,2.822-0.893,1.715-2.066c-2.226-2.361-4.953-4.211-7.926-5.36c5.325-1.349,10.281-2.857,14.88-6.145
		c2.635-1.884,4.905-4.208,7.594-6.034c3.069-2.084,6.302-1.847,9.622-2.965c0.898-0.302,0.765-1.669-0.049-1.972
		c-5.561-2.065-11.531,2.591-15.482,5.981c-5.864,5.032-11.873,7.157-19.208,9.165c-0.501,0.136-0.744,0.543-0.786,0.988
		c-2.319-0.439-4.723-0.452-7.113,0.062c-0.148,0.032-0.273,0.093-0.383,0.166c-1.001-0.417-2.025-0.79-3.087-1.066
		c-0.278-0.073-0.521-0.053-0.729,0.027c-2.251-2.972-5.369-5.096-9.712-6.572c-4.779-1.626-9.51-3.071-13.866-5.715
		c-4.686-2.843-8.553-6.794-13.388-9.434c-2.385-1.304-4.974-1.953-7.567-2.69c-3.379-0.961-6.497-2.687-9.499-4.466
		c-4.855-2.878-9.941-5.866-14.476-9.222c-5.447-4.028-12.381-12.33-19.95-11.905c-0.37-0.228-0.821-0.235-1.173,0.132
		c-0.016,0.004-0.03,0.008-0.045,0.01c-0.059-0.147-0.138-0.289-0.253-0.419c-3.942-4.472-9.29-7.187-14.164-10.483
		c-5.668-3.832-8.525-9.725-13.397-14.291c-6.539-6.127-16.657-5.49-24.906-4.324c-4.571,0.645-13.887,3.18-12.246,9.009
		c-0.479-0.577-1.287-0.738-1.667,0.229c-1.181,3-2.371,6.009-4.469,8.5c-2.088,2.479-5.462,3.602-8.421,4.613
		c-8.516,2.91-16.186,5.58-22.87,11.958c-5.409,5.162-8.968,11.511-9.136,19.09c-0.022,0.985,0.035,1.959,0.16,2.92
		c-0.011,0.146,0.006,0.295,0.062,0.445c0.007,0.017,0.012,0.034,0.018,0.052c0.359,2.316,1.11,4.553,2.146,6.673
		c5.845,21.031,4.016,43.349,8.195,64.735c-4.325,0.717-8.766,2.364-12.412,3.367c-9.074,2.493-17.767,5.505-26.294,9.472
		c-5.979,2.782-11.937,5.648-17.479,9.239c-3.72,2.41-9.062,6.202-8.806,11.218c0.026,0.506,0.387,0.834,0.768,0.898
		c-0.007,0.016-0.018,0.021-0.024,0.037c-8.57,20.291,12.444,36.269,27.063,46.154c10.313,6.975,21.885,12.618,30.521,21.752
		c2.968,3.138,5.251,6.546,7.085,10.137c-7.241,2.065-14.344,3.141-21.956,3.574c-7.64,0.436-15.255,0.688-22.798,2.088
		c-6.036,1.118-13.847,3.158-17.636,8.411c-0.944,1.31-1.458,2.777-1.686,4.313c-0.253,0.199-0.442,0.513-0.453,0.968
		c-0.365,15.166,0.95,30.332,1.214,45.49c0.099,5.708-0.258,11.355-0.551,17.05c-0.255,4.961-0.617,10.4,1.009,15.183
		c0.635,1.867,3.141,0.912,2.562-0.878c-1.48-4.571-1.107-9.637-0.898-14.37c0.252-5.7,0.608-11.338,0.527-17.049
		c-0.154-10.871-0.732-21.736-1.216-32.602c3.914,13.917,9.119,27.479,12.363,41.585c1.121,4.874,2.245,9.754,3.978,14.455
		c1.027,2.783,2.553,6.854,5.776,7.69c1.824,0.474,2.395-2.598,0.666-3.046c-3.16-0.82-4.45-7.331-5.237-9.938
		c-1.174-3.88-2.003-7.85-2.944-11.788c-3.368-14.1-8.319-27.85-12.471-41.729c-1.654-5.525-3.408-11.788,1.981-15.786
		c5.841-4.335,14.812-5.355,21.783-6.053c12.125-1.214,25.788,0.062,37.218-4.987c1.69,3.83,2.941,7.84,3.945,11.955
		c-0.097,0.019-0.196,0.047-0.301,0.098c-3.263,1.567-9.271,4.768-9.183,8.867c-0.361,0.202-0.626,0.588-0.568,1.106
		c0.548,4.9-0.415,11.572,2.984,15.677c4.695,5.672,14.067,5.075,20.708,5.164c10.08,0.135,20.151,0.86,30.188-0.434
		c8.974-1.157,16.668-5.383,25.291-7.712c0.785-0.212,1.053-1.207,0.883-1.902c-0.779-3.191-1.5-6.369-2.954-9.323
		c1.108,0.396,2.207,0.821,3.292,1.314c11.808,5.384,22.55,13.004,34.235,18.682c0.55,0.267,1.101,0.535,1.65,0.8
		c-2.962,15.778-2.304,33.476,0.325,49.053c0.272,1.613,2.635,1.114,2.477-0.446c-1.625-15.86-2.518-31.558-0.215-47.374
		c1.563,0.528,2.586-1.96,1.099-2.692c-0.204-0.102-0.403-0.211-0.607-0.312c2.708-14.854,12.284-26.609,21.095-38.396
		c0.451-0.014,0.774-0.425,0.892-0.908c29.306,27.121,55.766,66.443,99.229,69.068c1.735,0.104,1.662-2.89-0.072-2.995
		c-43.613-2.626-68.316-43.06-98.613-68.805c-0.019-0.016-0.033-0.032-0.052-0.047c-0.008-0.007-0.015-0.011-0.021-0.017
		c-0.068-0.059-0.137-0.118-0.205-0.177c-0.002,0.006-0.005,0.013-0.007,0.02c-0.439-0.259-0.877-0.146-1.19,0.141
		c-0.183,0.059-0.368,0.182-0.542,0.4c-0.076,0.098-0.153,0.196-0.232,0.292c-10.664-6.026-17.347-14.93-22.301-26.072
		c-1.992-4.479-3.917-9.096-6.855-13.059c-3.587-4.835-8.045-7.843-13.201-10.814c-3.598-2.071-6.31-4.861-8.948-7.789
		c1.833-3.796,4.786-6.809,7.248-10.202c0.546,0.302,1.231,0.234,1.542-0.548c3.145-7.931,1.758-17.174,1.695-25.486
		c-0.002-0.119-0.024-0.238-0.059-0.353c0.2-0.291,0.312-0.675,0.238-1.107c-1.083-6.42-8.433-11.002-13.743-13.631
		c-1.537-0.762-3.125-1.445-4.739-2.08c1.086-26.463-1.697-52.905-2.904-79.346c4.501,1.977,10.587,0.524,14.901,3.104
		c1.368,0.818,2.257-1.5,1.068-2.261c-2.333-1.492-4.923-2-7.636-2.358c-2.625-0.347-5.728-0.307-8.119-1.63
		c0.484-1.517,0.836-3.056,1.037-4.604c0.791-6.098-2.459-11.95-6.539-16.217c-2.324-2.432-5.253-4.188-8.193-5.764
		c-2.7-1.448-3.795-3.194-3.12-6.3c0.288-1.32,0.598-2.579,0.742-3.906c0.62-0.235,1.103-1.126,0.713-1.936
		c-2.629-5.439-10.082-2.29-14.528-1.644c-1.331,0.192-2.834,0.309-4.058-0.353c-2.335-1.263-0.412-3.704,0.982-4.589
		c3.215-2.039,7.75-2.365,11.428-2.713c8.553-0.806,16.424-0.076,22.328,6.84c3.368,3.944,5.947,7.959,10.152,11.139
		c4.901,3.705,10.279,6.31,14.687,10.692c0.235,0.233,0.473,0.351,0.699,0.388c0.039,0.072,0.086,0.136,0.137,0.2
		c-4.654,9.801-8.169,19.599-11.344,30.005c-2.208,7.242-6.746,14.329-7.069,22.055c-0.286,6.849,6.687,10.057,12.117,12.422
		c7.877,3.431,16.34,5.246,24.272,8.555c11.041,4.607,22.069,9.364,32.263,15.675c10.598,6.559,19.33,16.781,26.576,26.817
		c2.592,3.588,4.773,7.341,8.167,10.262c3.096,2.666,7.213,3.812,11.128,4.637c8.727,1.834,18.006,1.365,26.688-0.432
		c5.168-1.07,10.283-2.973,14.575-6.084C315.747,163.647,314.352,160.912,312.77,162.062z M72.684,78.455
		c1.096,1.367,2.278,2.652,3.508,3.83c0.004,0.004,0.01,0.006,0.015,0.012c-1.78,7.408-0.194,16.479,0.996,22.868
		c1.043,5.604,2.63,11.08,3.826,16.648c1.066,4.962,1.847,10.101,2.348,15.27c-1.2-0.189-2.449-0.224-3.727-0.141
		C75.764,117.652,76.876,97.595,72.684,78.455z M83.068,266.783c0.073-0.036,0.137-0.08,0.198-0.128
		c0.983,4.456,1.755,9.006,2.591,13.544c-3.312-1.22-6.523-2.944-8.99-5.332C73.226,271.343,80.701,267.961,83.068,266.783z
		 M147.277,276.776c1.199,2.381,1.855,4.928,2.477,7.496c-6.796,2.047-13.109,5.509-20.162,6.693
		c-8.62,1.447-17.169,1.414-25.877,1.074c-7.549-0.295-15.723,0.784-22.988-1.738c-2.739-0.95-4.083-3.15-4.79-5.771
		c10.979,6.127,24.484,5.82,36.773,6.578c12.326,0.759,24.904-2.354,34.111-10.869c1.183-1.094-0.039-3.744-1.358-2.521
		c-9.044,8.375-20.778,10.996-32.825,10.504c-12.402-0.505-25.583-0.844-37.14-5.838c-0.28-1.854-0.37-3.792-0.474-5.587
		c6.423,7.195,18.524,9.046,27.576,9.334c12.374,0.395,33.351,1.276,40.569-11.312c0.198-0.344,0.202-0.728,0.092-1.08
		c1.454,0.323,2.892,0.707,4.316,1.143C147.146,275.34,146.927,276.08,147.277,276.776z M121.128,282.669
		c-1.179-4.679-1.306-9.572-2.59-14.203c0.214,0.234,0.453,0.451,0.739,0.636c3.771,2.436,9.48,2.352,13.799,2.929
		c2.633,0.353,5.253,0.732,7.843,1.226C136.705,279.52,128.911,281.801,121.128,282.669z M172.128,207.904
		c10.509,6.12,13.506,17.241,18.737,27.376c4.361,8.446,11.218,15.744,19.781,19.941c-9.136,11.563-17.834,23.322-21.11,38.022
		c-0.009,0.04-0.017,0.08-0.025,0.121c-9.594-4.875-18.885-10.208-28.306-15.429c-4.639-2.572-9.242-4.926-14.346-6.422
		c-5.717-1.677-11.758-2.177-17.634-3.01c-2.305-0.326-4.625-0.679-6.89-1.218c-2.087-0.496-2.336-1.758-2.815-3.562
		c-0.347-1.306-0.911-2.774-1.74-3.844c-1.763-2.278-4.645-3.697-5.051-6.885c-0.42-3.289-1.276-5.438-4.769-5.985
		c-1.478-0.233-0.807-5.138-1.104-6.367c-0.385-1.59-1.15-2.979-2.166-4.241c-1.733-2.153-4.942-2.446-7.469-2.681
		c-3.559-0.329-7.128-0.591-10.682-0.976c-3.763-0.409-7.908-1.202-10.68-3.972c-3.455-3.449-2.689-10.801,1.935-12.673
		c3.291-1.332,7.517-0.712,10.964-0.552c5.531,0.255,11.121,0.235,16.651-0.022c7.972-0.37,17.289-1.806,24.481-6.029
		c0.132,0.107,0.269,0.213,0.392,0.323c1.258,1.115,2.64-0.65,1.882-1.812c0.674-0.49,1.332-0.998,1.951-1.55
		c0.514-0.457,0.298-1.711-0.556-1.409c-1.138,0.402-2.253,0.841-3.36,1.291c-7.374-5.064-24.069-8.693-21.744-18.829
		c2.136,0.902,4.792,0.931,6.946,0.951c0.601,0.005,1.048-0.537,1.165-1.08c0.837-3.9-0.362-8.121-3.284-10.678
		c4.673-0.148,9.598,4.637,13.843,6.181c5.233,1.903,10.973,2.109,16.352,3.47c6.357,1.609,10.72,5.703,14.812,10.497
		c0.053,0.073,0.11,0.142,0.173,0.204c0.163,0.191,0.326,0.382,0.488,0.577C162.68,202.093,167.162,205.012,172.128,207.904z
		 M150.523,141.091c-5.312-1.849-10.888-3.095-16.36-3.821c-7.602-1.007-15.185-0.292-22.811-0.413
		c-2.063-0.033-11.308-1.374-12.343,1.245c-0.067,0.171,0.003,0.438,0.228,0.431c3.863-0.107,8.244,0.874,12.183,1.058
		c6.476,0.3,12.926-0.196,19.399,0.312c7.554,0.592,14.956,2.576,22.023,5.26c3.32,1.262,6.465,2.892,9.39,4.901
		c3.271,2.248,4.878,5.096,6.985,8.197c-4.313,6.271-11.338,10.638-17.996,14.05c-6.234,3.196-13.732,6.236-20.871,5.658
		c-1.348-0.109-1.234,2.193,0.057,2.361c7.76,1.008,15.8-2.368,22.568-5.789c5.722-2.893,11.654-6.623,15.976-11.556
		c0.137,6.239,0.347,12.389-0.958,18.522c-0.043,0.042-0.086,0.082-0.127,0.134c-2.932,3.756-6.763,7.303-8.854,11.669
		c-0.896-1.001-1.803-2.002-2.76-2.98c-3.991-4.081-9.159-6.308-14.636-7.529c-5.862-1.306-11.775-1.661-17.268-4.317
		c-4.459-2.157-7.797-5.965-13.115-4.553c-0.532,0.141-0.813,0.561-0.895,1.039c-0.11-0.041-0.214-0.09-0.327-0.127
		c-1.383-0.451-1.907,1.836-0.829,2.482c3.272,1.953,5.498,4.496,5.142,8.275c-2.29,0.004-5.405-0.08-6.695-1.979
		c-1.548-2.282-0.347-6.248,0.125-8.674c0.282-1.453-1.642-2.15-2.039-0.603c-0.857,3.343-2.076,7.884,0.034,11.026
		c0.21,0.314,0.451,0.587,0.707,0.84c-0.019,0.046-0.05,0.074-0.064,0.125c-3.75,12.032,11.951,16.077,20.738,21.271
		c-2.962,1.236-5.927,2.444-9.107,3.249c-5.881,1.489-12.037,1.765-18.075,1.846c-5.122,0.068-10.235-0.161-15.353-0.312
		c-3.444-0.103-6.998,0.113-9.934,2.079c-5.339,3.576-4.015,13.054-0.039,17.028c4.654,4.651,12.908,4.307,18.955,4.893
		c4.717,0.456,11.802,0.412,10.762,7.319c-0.497,3.304,0.164,5.771,3.795,6.341c1.502,0.236,2.498,5.639,3.274,7.093
		c0.86,1.611,2.608,2.745,3.861,4.024c1.091,1.112,1.423,2.734,1.848,4.281c-0.66-0.116-1.483,0.655-1.216,1.479
		c1.637,5.032,0.736,11.037,2.643,15.986c-3.183,0.241-6.297,0.3-9.086,0.339c-6.586,0.097-13.126-0.198-19.545-1.798
		c-0.565-0.142-1.137-0.297-1.708-0.467c0.267-0.337,0.418-0.79,0.314-1.318c-1.972-10.173-3.512-19.79-7.558-28.908
		c0.433-0.822,0.076-2.061-0.917-1.97c-0.979-2.002-2.082-3.982-3.36-5.937c-6.815-10.414-17.933-16.601-28.25-22.974
		c-15.86-9.792-39.387-24.455-34.267-45.961c6.929,10.902,21.674,15.354,33.539,18.069c18.574,4.253,38.886,5.625,57.167-0.495
		c1.622-0.544,0.938-3.498-0.783-2.921c-17.285,5.806-36.068,4.528-53.706,1.002c-12.77-2.552-28.682-7.083-36.011-18.82
		c-0.162-0.259-0.355-0.386-0.55-0.427c1.148-4.708,7.125-7.908,10.899-10.167c5.048-3.019,10.442-5.444,15.772-7.915
		c7.085-3.284,14.342-5.79,21.854-7.922c3.442-0.977,6.922-1.765,10.377-2.695c3.41-0.918,7.342-2.162,10.909-1.413
		c0.315,4.229,0.452,8.459,0.39,12.609c-0.1,6.629-1.078,13.209-1.081,19.849c-0.003,5.335,0.422,11.876,4.475,15.837
		c1.399,1.366,3.085-0.984,1.847-2.211c-4.171-4.133-3.745-11.457-3.606-16.864c0.15-5.823,0.941-11.612,1.029-17.438
		c0.063-4.189-0.139-8.333-0.528-12.447c0.127-0.455,0.091-0.978-0.134-1.393c-1.036-9.855-3.133-19.546-5.344-29.262
		c-2.214-9.729-6.283-26.624,3.235-33.826c6.328-4.788,16.491-4.1,23.935-3.692c7.674,0.421,15.444,1.545,23.092,0.411
		c-2.339,1.652-4.592,3.419-6.026,5.828c-0.353-0.146-0.744-0.066-0.934,0.455c-2.853,7.88-10.878,11.98-15.564,18.594
		c-5.537,7.815-7.54,17.601-9.39,26.791c-3.832,19.046-8.95,39.914-3.297,59.121c0.544,1.851,2.941,0.898,2.481-0.852
		c-5.121-19.433-0.24-39.651,3.64-58.859c1.968-9.747,4.393-20.049,11.27-27.614c4.027-4.427,9.151-7.981,11.509-13.452
		c0.234,0.126,0.489,0.194,0.731,0.177c0.178,0.752,0.78,1.367,1.649,1.073c8.212-2.768,16.229-9.495,20.793-17.576
		C148.46,90.687,151.457,115.83,150.523,141.091z M110.495,38.777c2.379,0.84,6.731,0.294,8.322,0.535
		c6.869,1.037,17.166,5.327,21.132,11.257c4.406,6.588-0.408,14.997-5.849,18.996c-0.265,0.195-0.533,0.387-0.804,0.58
		c-0.085-0.589-0.462-1.135-1.072-1.085c-9.119,0.735-18.131-0.475-27.233-0.88c-7.152-0.319-15.73-0.053-21.982,4.001
		c-0.06-0.094-0.126-0.182-0.216-0.258c-6.838-5.924-0.648-14.542,4.07-19.829c2.659-2.977,6.023-5.226,9.359-7.369
		C100.833,41.762,105.556,40.488,110.495,38.777z M132.621,21.412c-0.125,0.141-0.223,0.314-0.25,0.563
		c-0.416,3.926-3.234,8.75,0.748,11.895c2.347,1.853,5.172,3.048,7.606,4.805c3.136,2.264,5.479,5.388,7.097,8.868
		c0.379,0.817,0.672,1.644,0.883,2.477c-0.49,0.043-0.964,0.436-0.979,1.181c-0.046,2.487-0.048,4.972-0.031,7.456
		c-0.578,0.469-0.813,1.464-0.195,2.161c-3.743,8.634-13.192,16.307-20.632,19.048c2.852-5.494,10.259-7.564,13.849-12.614
		c3.938-5.539,4.614-13.508,0.788-19.199c-4.225-6.285-14.381-9.608-21.336-11.443c-0.915-0.242-7.222-0.967-9.967-0.312
		c-5.381-0.045-10.962,3.236-15.326,5.886c-4.465,2.711-8.394,5.903-11.698,9.94c-4.536,5.543-10.051,16.497-2.317,21.713
		c-1.65,1.53-2.848,3.382-3.691,5.442c-5.449-5.714-9.163-12.59-7.688-20.749c1.498-8.286,8.688-14.369,15.447-18.589
		c6.211-3.879,13.576-4.756,19.971-8.161c4.721-2.513,6.701-7.483,8.446-12.236c0.062-0.168,0.087-0.339,0.085-0.505
		c0.173,0.369,0.38,0.747,0.64,1.14C118.048,26.179,128.781,17.184,132.621,21.412z"/>
	<path d="M201.124,62.089c2.764,6.625,2.667,13.635,4.283,20.508c0.246,1.049,1.672,0.736,1.6-0.294
		c-0.503-7.103-1.744-14.54-4.76-21.027C201.814,60.342,200.79,61.292,201.124,62.089z"/>
	<path d="M212.74,71.403c8.28,8.687,10.101,20.584,15.089,31.063c0.592,1.246,2.294,0.193,1.868-0.972
		c-3.961-10.839-7.203-23.314-15.799-31.518C212.987,69.105,211.984,70.612,212.74,71.403z"/>
	<path d="M243.97,95.063c4.115,6.363,4.444,14.598,8.85,20.702c0.796,1.105,1.834-0.478,1.469-1.364
		c-2.771-6.724-4.969-14.341-9.418-20.184C244.4,93.598,243.61,94.504,243.97,95.063z"/>
	<path d="M174.748,318.591c-9.216-3.562-19.432-4.699-28.43-8.735c0.303-0.422,0.421-1.021,0.134-1.603
		c-1.692-3.434-2.911-7.465-5.943-9.973c-3.279-2.712-8.11-0.552-11.875,0.063c-0.584-0.332-1.324-0.272-1.61,0.538
		c-0.146,0.2-0.237,0.445-0.259,0.698c-1.051,2.98-2.331,5.842-3.708,8.676c-2.266-3.362-4.458-6.739-8.887-7.103
		c-2.365-0.194-4.887,0.614-7.204,1.01c-1.017,0.172-2.578,0.199-3.828,0.555c-0.619-0.353-1.525-0.026-1.597,0.955
		c-0.131,0.31-0.14,0.699,0,1.009c0.045,2.337,0.291,4.662,0.619,6.977c0.279,1.97,2.619,1.484,2.344-0.422
		c-0.273-1.913-0.56-3.813-0.712-5.734c2.093,0.041,4.831-0.766,6.295-1.073c2.653-0.557,5.517-0.817,7.624,1.169
		c1.875,1.769,3.171,4.251,4.657,6.346c0.549,0.772,1.651,0.355,2.003-0.348c1.75-3.497,3.434-6.996,4.673-10.702
		c3.055,0.024,6.009-1.503,9.17-0.646c3.146,0.852,4.45,6.383,5.906,9.125c-0.752,0.457-0.987,1.804-0.037,2.29
		c7.14,3.651,15.114,4.682,22.632,7.282c3.907,1.351,8.761,2.209,11.984,4.926c2.064,1.741,2.313,4.063,2.449,6.5
		c-0.047-0.005-0.092-0.013-0.143-0.012c-8.04,0.261-16.068,2.887-24.026,4.031c-8.592,1.236-17.093,3.088-25.658,4.493
		c-17.442,2.86-35.121,3.956-52.676,5.897c-0.024-0.053-0.043-0.108-0.075-0.16c-7.876-13.426,15.339-23.551,23.56-29.906
		c1.23-0.95,0.092-3.476-1.302-2.418c-9.538,7.232-34.2,18.217-24.477,33.896c0.335,0.54,0.782,0.719,1.202,0.666
		c0.171,0.417,0.525,0.717,1.066,0.663c17.073-1.723,34.207-2.891,51.186-5.441c8.575-1.287,17.075-3.048,25.636-4.428
		c3.771-0.608,7.567-0.935,11.315-1.681c4.782-0.954,9.413-2.387,14.324-2.539c0.234-0.008,0.435-0.071,0.604-0.17
		c0.747,0.745,2.205,0.408,2.141-1.024c-0.127-2.844-0.069-5.818-1.502-8.363C180.757,321.085,177.574,319.683,174.748,318.591z"/>
	<path d="M88.865,332.983c0.348,1.964,1.014,3.824,1.845,5.635c0.063,0.138,0.14,0.245,0.22,0.337
		c0.161,0.291,0.43,0.494,0.822,0.455c7.238-0.742,14.451-2.302,21.671-3.287c7.194-0.981,14.346-2.107,21.513-3.268
		c11.266-1.823,23.29,0.785,34.116-3.615c0.545-0.223,0.819-0.721,0.879-1.251c0.073,0.108,0.132,0.222,0.211,0.327
		c0.899,1.2,2.32-0.518,1.722-1.595c-0.681-1.223-1.256-2.495-1.901-3.735c-0.286-0.548-0.983-0.779-1.504-0.412
		c-0.002,0.001-0.002,0.003-0.003,0.005c-4.741-0.689-9.407-1.7-14.045-2.891c-1.89-0.483-3.769-1.108-5.655-1.696
		c0.024-0.56-0.229-1.113-0.842-1.243c-5.253-1.116-11.107-0.491-16.436-0.224c-5.896,0.295-11.777,0.884-17.646,1.511
		c-9.558,1.022-15.224,9.22-23.945,12.212c-0.712,0.244-0.909,1.026-0.732,1.669C88.928,332.184,88.788,332.549,88.865,332.983z
		 M113.902,320.985c5.364-0.596,10.745-1.062,16.13-1.396c4.329-0.271,8.714-0.027,13.057-0.079
		c3.387,1.453,7.155,2.239,10.681,3.173c4.788,1.269,9.636,2.175,14.548,2.79c0.11,0.014,0.212,0.005,0.308-0.013
		c0.112,0.26,0.225,0.518,0.342,0.774c-0.208-0.048-0.439-0.04-0.7,0.059c-11.016,4.189-23.122,1.837-34.548,3.705
		c-7.309,1.195-14.608,2.357-21.943,3.398c-6.335,0.897-13.046,1.561-19.206,3.445c-0.682-1.343-1.245-2.729-1.638-4.183
		C99.249,329.929,104.939,321.979,113.902,320.985z"/>
</g>
</svg>
