<?xml version="1.0" encoding="utf-8"?>
<!-- Generator: Adobe Illustrator 15.0.2, SVG Export Plug-In . SVG Version: 6.00 Build 0)  -->
<!DOCTYPE svg PUBLIC "-//W3C//DTD SVG 1.1//EN" "http://www.w3.org/Graphics/SVG/1.1/DTD/svg11.dtd">
<svg version="1.1" id="Layer_1" xmlns="http://www.w3.org/2000/svg" xmlns:xlink="http://www.w3.org/1999/xlink" x="0px" y="0px"
	 width="174px" height="202px" viewBox="0 0 174 202" enable-background="new 0 0 174 202" xml:space="preserve">
<g>
	<g>
		<path fill-rule="evenodd" clip-rule="evenodd" d="M83.816,93.77c0.036,0.784-0.64,0.857-1.247,0.998
			C82.67,94.12,83.346,94.048,83.816,93.77z"/>
		<path fill-rule="evenodd" clip-rule="evenodd" d="M91.297,93.77c0.166,0,0.333,0,0.499,0c0,0.166,0,0.333,0,0.499
			c-0.166,0-0.333,0-0.499,0C91.297,94.103,91.297,93.936,91.297,93.77z"/>
		<path fill-rule="evenodd" clip-rule="evenodd" d="M80.823,94.269C81.746,95.025,80.066,95.109,80.823,94.269L80.823,94.269z"/>
		<path fill-rule="evenodd" clip-rule="evenodd" d="M90.799,94.518c0.727-0.367,0.727,1.115,0,0.748
			C90.799,95.017,90.799,94.768,90.799,94.518z"/>
		<path fill-rule="evenodd" clip-rule="evenodd" d="M79.078,94.768c0.768-0.186,0.479,0.685,1.247,0.499
			C80.129,95.839,78.781,95.509,79.078,94.768z"/>
		<path fill-rule="evenodd" clip-rule="evenodd" d="M94.041,94.768c-0.109,0.307-0.32,0.512-0.748,0.499
			C93.176,94.734,93.648,94.791,94.041,94.768z"/>
		<path fill-rule="evenodd" clip-rule="evenodd" d="M84.564,95.017c0.167,0,0.333,0,0.499,0c0,0.166,0,0.333,0,0.499
			c-0.167,0-0.333,0-0.499,0C84.564,95.35,84.564,95.183,84.564,95.017z"/>
		<path fill-rule="evenodd" clip-rule="evenodd" d="M81.821,95.266c0.484-0.099,0.364,1.136-0.249,0.748c0-0.166,0-0.333,0-0.499
			C81.784,95.562,81.807,95.418,81.821,95.266z"/>
		<path fill-rule="evenodd" clip-rule="evenodd" d="M93.293,95.765c-0.028,0.471-0.825,0.173-0.748,0.748
			C91.75,96.122,92.856,95.016,93.293,95.765z"/>
		<path fill-rule="evenodd" clip-rule="evenodd" d="M94.789,95.516c0.249,0,0.498,0,0.748,0
			C95.549,96.937,94.777,96.937,94.789,95.516z"/>
		<path fill-rule="evenodd" clip-rule="evenodd" d="M83.566,96.264c0.167,0,0.333,0,0.499,0c0,0.167,0,0.333,0,0.499
			c-0.167,0-0.333,0-0.499,0C83.566,96.596,83.566,96.43,83.566,96.264z"/>
		<path fill-rule="evenodd" clip-rule="evenodd" d="M90.799,97.012c0.447,0.032,0.525-0.305,0.997-0.249c0,0.333,0,0.665,0,0.998
			C91.145,97.83,90.724,97.669,90.799,97.012z"/>
		<path fill-rule="evenodd" clip-rule="evenodd" d="M94.041,96.763c0.518,0.14,0.527,0.389,0.249,0.748c-0.167,0-0.333,0-0.499,0
			C93.721,97.108,94.027,97.082,94.041,96.763z"/>
		<path fill-rule="evenodd" clip-rule="evenodd" d="M94.789,97.511c0.166,0,0.332,0,0.498,0c0,0.166,0,0.333,0,0.499
			c-0.166,0-0.332,0-0.498,0C94.789,97.843,94.789,97.677,94.789,97.511z"/>
		<path fill-rule="evenodd" clip-rule="evenodd" d="M96.783,97.511c0.166,0,0.333,0,0.499,0c0.07,0.403-0.235,0.429-0.249,0.748
			c-0.166,0-0.332,0-0.499,0C96.464,97.856,96.77,97.83,96.783,97.511z"/>
		<path fill-rule="evenodd" clip-rule="evenodd" d="M81.821,98.009c0.307,0.109,0.512,0.319,0.499,0.748
			C82.013,98.648,81.808,98.438,81.821,98.009z"/>
		<path fill-rule="evenodd" clip-rule="evenodd" d="M92.545,98.508c-0.08-0.44,1.396-0.445,0.996,0.249
			C93.021,98.863,92.881,98.586,92.545,98.508z"/>
		<path fill-rule="evenodd" clip-rule="evenodd" d="M81.073,98.757c0.728-0.366,0.728,1.115,0,0.749
			C81.073,99.256,81.073,99.007,81.073,98.757z"/>
		<path fill-rule="evenodd" clip-rule="evenodd" d="M93.791,99.007C94.934,99.173,93.591,100.517,93.791,99.007L93.791,99.007z"/>
		<path fill-rule="evenodd" clip-rule="evenodd" d="M95.786,99.007c-0.108,0.307-0.319,0.512-0.748,0.499
			C95.146,99.199,95.357,98.994,95.786,99.007z"/>
		<path fill-rule="evenodd" clip-rule="evenodd" d="M78.829,99.256c-0.217,0.365-0.374,0.791-0.998,0.748
			C77.756,99.347,78.176,99.186,78.829,99.256z"/>
		<path fill-rule="evenodd" clip-rule="evenodd" d="M95.786,100.254C95.197,101.056,94.778,99.377,95.786,100.254L95.786,100.254z"
			/>
		<path fill-rule="evenodd" clip-rule="evenodd" d="M94.041,100.254c0.201,0.047,0.248,0.25,0.498,0.249
			c-0.047,0.202-0.25,0.249-0.249,0.499c-0.202-0.047-0.249-0.25-0.499-0.25C93.838,100.551,94.041,100.504,94.041,100.254z"/>
		<path fill-rule="evenodd" clip-rule="evenodd" d="M84.813,100.752c-0.099-0.484,1.136-0.364,0.748,0.25c-0.166,0-0.333,0-0.499,0
			C85.109,100.79,84.966,100.767,84.813,100.752z"/>
		<path fill-rule="evenodd" clip-rule="evenodd" d="M90.799,100.503c0.293-0.292,0.988,0.259,0.748,0.499
			C91.553,100.995,90.656,100.646,90.799,100.503z"/>
		<path fill-rule="evenodd" clip-rule="evenodd" d="M73.841,101.75c0.299,0.327,0.097,0.393,0,0.748
			c-0.271-0.062-0.169-0.496-0.499-0.499C73.349,101.757,73.647,101.806,73.841,101.75z"/>
		<path fill-rule="evenodd" clip-rule="evenodd" d="M89.053,101.999C88.465,102.802,88.045,101.123,89.053,101.999L89.053,101.999z"
			/>
		<path fill-rule="evenodd" clip-rule="evenodd" d="M75.337,102.249c0.403-0.07,0.43,0.235,0.749,0.249
			C76.184,102.982,74.949,102.862,75.337,102.249z"/>
		<path fill-rule="evenodd" clip-rule="evenodd" d="M86.061,102.249c0.166,0,0.333,0,0.499,0c0,0.166,0,0.332,0,0.499
			c-0.166,0-0.333,0-0.499,0C86.061,102.581,86.061,102.415,86.061,102.249z"/>
		<path fill-rule="evenodd" clip-rule="evenodd" d="M89.303,102.249c0.166,0,0.332,0,0.498,0c0,0.166,0,0.332,0,0.499
			c-0.166,0-0.332,0-0.498,0C89.303,102.581,89.303,102.415,89.303,102.249z"/>
		<path fill-rule="evenodd" clip-rule="evenodd" d="M83.816,102.997c0.167,0,0.333,0,0.499,0c0,0.166,0,0.332,0,0.499
			c-0.167,0-0.333,0-0.499,0C83.816,103.329,83.816,103.163,83.816,102.997z"/>
		<path fill-rule="evenodd" clip-rule="evenodd" d="M85.063,103.496c1.179-1.18-0.108,1.38-0.25,0.249
			C84.776,103.448,84.944,103.614,85.063,103.496z"/>
		<path fill-rule="evenodd" clip-rule="evenodd" d="M96.035,120.703c0.166,0,0.333,0,0.499,0c0,0.166,0,0.332,0,0.498
			c-0.166,0-0.333,0-0.499,0C96.035,121.035,96.035,120.869,96.035,120.703z"/>
		<path fill-rule="evenodd" clip-rule="evenodd" d="M97.033,121.95c0.166,0,0.332,0,0.499,0c0,0.166,0,0.332,0,0.498
			c-0.167,0-0.333,0-0.499,0C97.033,122.282,97.033,122.116,97.033,121.95z"/>
		<path fill-rule="evenodd" clip-rule="evenodd" d="M96.285,123.196c0.871-0.223,0.426,0.813,0.249,0.998
			C96.195,124.117,96.327,123.569,96.285,123.196z"/>
		<path fill-rule="evenodd" clip-rule="evenodd" d="M97.781,123.944c0.532-0.116,0.475,0.356,0.499,0.749
			c-0.202-0.048-0.249-0.251-0.499-0.25C97.781,124.277,97.781,124.111,97.781,123.944z"/>
		<path fill-rule="evenodd" clip-rule="evenodd" d="M95.786,124.194C96.93,124.36,95.586,125.704,95.786,124.194L95.786,124.194z"/>
		<path fill-rule="evenodd" clip-rule="evenodd" d="M97.282,124.942c0.359,0.057,0.087,0.744,0.499,0.748
			C97.5,126.491,97.069,125.45,97.282,124.942z"/>
		<path fill-rule="evenodd" clip-rule="evenodd" d="M101.023,126.938c0.181-0.558,1.422-0.121,1.246,0.498
			C101.475,127.649,101.499,127.044,101.023,126.938z"/>
		<path fill-rule="evenodd" clip-rule="evenodd" d="M98.529,127.436C99.673,127.603,98.329,128.945,98.529,127.436L98.529,127.436z"
			/>
		<path fill-rule="evenodd" clip-rule="evenodd" d="M98.03,128.185c0.436,0.059,0.106,1.406-0.498,1.246
			C97.318,128.636,97.924,128.66,98.03,128.185z"/>
		<path fill-rule="evenodd" clip-rule="evenodd" d="M100.773,128.933c1.054-0.222,1.408,0.254,1.746,0.748
			C102.16,130.184,100.957,129.431,100.773,128.933z"/>
		<path fill-rule="evenodd" clip-rule="evenodd" d="M95.537,129.431c0.528,0.079,0.054,1.183-0.499,0.998
			C94.752,129.645,95.43,129.822,95.537,129.431z"/>
		<path fill-rule="evenodd" clip-rule="evenodd" d="M96.285,130.678C97.745,131.01,95.382,131.855,96.285,130.678L96.285,130.678z"
			/>
		<path fill-rule="evenodd" clip-rule="evenodd" d="M73.342,134.169c-0.235,0.68-1.258,0.571-1.995,0.748
			C71.728,134.401,72.598,133.55,73.342,134.169z"/>
		<path fill-rule="evenodd" clip-rule="evenodd" d="M88.804,136.164c0.427-0.052,0.646,0.426,0.748,0
			C90.646,136.52,88.379,137.191,88.804,136.164z"/>
		<path fill-rule="evenodd" clip-rule="evenodd" d="M85.562,138.408c0.167,0,0.333,0,0.499,0c0,0.167,0,0.333,0,0.499
			c-0.167,0-0.333,0-0.499,0C85.562,138.741,85.562,138.575,85.562,138.408z"/>
		<path fill-rule="evenodd" clip-rule="evenodd" d="M98.03,138.408c-0.13,0.369-0.369,0.629-0.498,0.998
			C96.926,139.25,97.4,138.146,98.03,138.408z"/>
		<path fill-rule="evenodd" clip-rule="evenodd" d="M80.325,139.406c0.322-0.623,1.209,0.264,0.998,0.997
			C80.681,140.38,80.966,139.431,80.325,139.406z"/>
		<path fill-rule="evenodd" clip-rule="evenodd" d="M96.783,139.655C98.244,139.987,95.881,140.833,96.783,139.655L96.783,139.655z"
			/>
		<path fill-rule="evenodd" clip-rule="evenodd" d="M92.545,140.653c0.076,0.575-0.721,0.276-0.749,0.748
			C91.067,141.123,92.113,140.591,92.545,140.653z"/>
		<path fill-rule="evenodd" clip-rule="evenodd" d="M99.028,140.653c0.166,0,0.332,0,0.498,0c0,0.166,0,0.332,0,0.499
			c-0.166,0-0.332,0-0.498,0C99.028,140.985,99.028,140.819,99.028,140.653z"/>
		<path fill-rule="evenodd" clip-rule="evenodd" d="M85.313,140.902c0.652,0.346,1.366,0.629,1.496,1.496
			C86.002,142.207,85.503,141.709,85.313,140.902z"/>
		<path fill-rule="evenodd" clip-rule="evenodd" d="M96.285,141.152C97.207,141.908,95.527,141.992,96.285,141.152L96.285,141.152z"
			/>
		<path fill-rule="evenodd" clip-rule="evenodd" d="M96.035,142.149c0.045,0.544-0.203,0.793-0.748,0.748
			C95.554,142.665,95.365,141.978,96.035,142.149z"/>
		<path fill-rule="evenodd" clip-rule="evenodd" d="M94.789,143.146c0.528,0.079,0.054,1.183-0.499,0.998
			C94.004,143.36,94.682,143.538,94.789,143.146z"/>
		<path fill-rule="evenodd" clip-rule="evenodd" d="M97.781,143.396c-0.003,0.495-0.681,0.316-0.499,0.997
			C96.345,144.176,96.998,143.29,97.781,143.396z"/>
		<path fill-rule="evenodd" clip-rule="evenodd" d="M81.572,147.137c0.416,0,0.831,0,1.247,0
			C83.2,147.903,81.19,147.903,81.572,147.137z"/>
		<path fill-rule="evenodd" clip-rule="evenodd" d="M96.534,150.379c0.776-0.117,0.892,0.627,0.499,0.997
			C96.594,151.316,96.465,150.947,96.534,150.379z"/>
		<path fill-rule="evenodd" clip-rule="evenodd" d="M99.028,150.628c0.532-0.116,0.475,0.356,0.498,0.748
			c-0.201-0.047-0.248-0.25-0.498-0.249C99.028,150.961,99.028,150.795,99.028,150.628z"/>
		<path fill-rule="evenodd" clip-rule="evenodd" d="M101.272,150.878c0.086-0.301,0.663-0.202,0.748,0
			C102.247,151.417,101.107,151.455,101.272,150.878z"/>
		<path fill-rule="evenodd" clip-rule="evenodd" d="M96.783,151.626c0.545-0.046,0.794,0.204,0.749,0.748
			C96.988,152.419,96.738,152.17,96.783,151.626z"/>
		<path fill-rule="evenodd" clip-rule="evenodd" d="M99.277,152.124c0.166,0,0.333,0,0.499,0c0,0.167,0,0.333,0,0.499
			c-0.166,0-0.333,0-0.499,0C99.277,152.457,99.277,152.291,99.277,152.124z"/>
		<path fill-rule="evenodd" clip-rule="evenodd" d="M102.021,152.374c-0.099-0.484,1.136-0.364,0.748,0.249
			c-0.166,0-0.332,0-0.499,0C102.315,152.411,102.173,152.388,102.021,152.374z"/>
		<path fill-rule="evenodd" clip-rule="evenodd" d="M94.539,152.623c0.166,0,0.332,0,0.499,0c0,0.166,0,0.333,0,0.499
			c-0.167,0-0.333,0-0.499,0C94.539,152.956,94.539,152.789,94.539,152.623z"/>
		<path fill-rule="evenodd" clip-rule="evenodd" d="M97.033,153.122c0.728-0.366,0.728,1.114,0,0.748
			C97.033,153.621,97.033,153.371,97.033,153.122z"/>
		<path fill-rule="evenodd" clip-rule="evenodd" d="M99.776,153.371c0.307,0.109,0.512,0.319,0.499,0.748
			c-0.403,0.07-0.43-0.235-0.749-0.249C99.574,153.668,99.777,153.621,99.776,153.371z"/>
		<path fill-rule="evenodd" clip-rule="evenodd" d="M103.268,153.87c0.307,0.108,0.512,0.319,0.499,0.748c-0.25,0-0.499,0-0.748,0
			C103.15,154.418,103.278,154.214,103.268,153.87z"/>
		<path fill-rule="evenodd" clip-rule="evenodd" d="M97.532,154.618C98.992,154.95,96.629,155.796,97.532,154.618L97.532,154.618z"
			/>
		<path fill-rule="evenodd" clip-rule="evenodd" d="M100.524,154.867c0.307,0.109,0.512,0.319,0.499,0.749
			c-0.403,0.07-0.43-0.236-0.748-0.25C100.322,155.164,100.525,155.118,100.524,154.867z"/>
		<path fill-rule="evenodd" clip-rule="evenodd" d="M104.016,155.366c0.402-0.07,0.43,0.236,0.748,0.25
			C104.862,156.1,103.628,155.98,104.016,155.366z"/>
		<path fill-rule="evenodd" clip-rule="evenodd" d="M92.793,156.114C92.037,157.036,91.953,155.357,92.793,156.114L92.793,156.114z"
			/>
		<path fill-rule="evenodd" clip-rule="evenodd" d="M98.03,155.865c0.728-0.366,0.728,1.114,0,0.748
			C98.03,156.364,98.03,156.114,98.03,155.865z"/>
		<path fill-rule="evenodd" clip-rule="evenodd" d="M101.272,155.865C102.354,155.969,101.01,157.313,101.272,155.865
			L101.272,155.865z"/>
		<path fill-rule="evenodd" clip-rule="evenodd" d="M89.053,156.613c-0.099-0.484,1.137-0.364,0.748,0.249c-0.166,0-0.332,0-0.498,0
			C89.348,156.65,89.205,156.627,89.053,156.613z"/>
		<path fill-rule="evenodd" clip-rule="evenodd" d="M96.285,156.613c0.166,0,0.332,0,0.498,0c0,0.166,0,0.332,0,0.499
			c-0.166,0-0.332,0-0.498,0C96.285,156.945,96.285,156.779,96.285,156.613z"/>
		<path fill-rule="evenodd" clip-rule="evenodd" d="M98.529,157.112c0.532-0.117,0.475,0.356,0.499,0.748
			c-0.202-0.048-0.249-0.25-0.499-0.25C98.529,157.444,98.529,157.278,98.529,157.112z"/>
		<path fill-rule="evenodd" clip-rule="evenodd" d="M81.821,157.361c0,0.249,0,0.499,0,0.748c-0.447,0.032-0.526-0.305-0.998-0.249
			C80.883,157.422,81.252,157.292,81.821,157.361z"/>
		<path fill-rule="evenodd" clip-rule="evenodd" d="M102.27,157.61c0.167,0,0.333,0,0.499,0c0,0.167,0,0.333,0,0.499
			c-0.166,0-0.332,0-0.499,0C102.27,157.943,102.27,157.777,102.27,157.61z"/>
		<path fill-rule="evenodd" clip-rule="evenodd" d="M105.512,157.61c0.166,0,0.333,0,0.499,0c0,0.167,0,0.333,0,0.499
			c-0.166,0-0.333,0-0.499,0C105.512,157.943,105.512,157.777,105.512,157.61z"/>
		<path fill-rule="evenodd" clip-rule="evenodd" d="M96.783,158.359c0.166,0,0.333,0,0.499,0c0,0.166,0,0.332,0,0.498
			c-0.166,0-0.333,0-0.499,0C96.783,158.691,96.783,158.525,96.783,158.359z"/>
		<path fill-rule="evenodd" clip-rule="evenodd" d="M99.028,158.608c-0.1-0.484,1.136-0.364,0.748,0.249c-0.166,0-0.333,0-0.499,0
			C99.323,158.646,99.18,158.622,99.028,158.608z"/>
		<path fill-rule="evenodd" clip-rule="evenodd" d="M103.019,158.608c0.424-0.092,0.47,0.194,0.498,0.499
			c-0.212-0.046-0.235,0.097-0.249,0.249C102.976,159.316,103.058,158.901,103.019,158.608z"/>
		<path fill-rule="evenodd" clip-rule="evenodd" d="M93.043,159.356c0.521-0.105,0.66,0.171,0.998,0.249
			C94.12,160.046,92.644,160.051,93.043,159.356z"/>
		<path fill-rule="evenodd" clip-rule="evenodd" d="M89.552,159.605c0.166,0,0.333,0,0.499,0c0,0.167,0,0.333,0,0.499
			c-0.166,0-0.333,0-0.499,0C89.552,159.938,89.552,159.772,89.552,159.605z"/>
		<path fill-rule="evenodd" clip-rule="evenodd" d="M103.767,159.605c0.271,0.063,0.169,0.496,0.498,0.499
			C104.045,160.78,103.158,159.895,103.767,159.605z"/>
		<path fill-rule="evenodd" clip-rule="evenodd" d="M107.507,160.104c0.166,0,0.333,0,0.499,0c0,0.166,0,0.333,0,0.499
			c-0.166,0-0.333,0-0.499,0C107.507,160.438,107.507,160.271,107.507,160.104z"/>
		<path fill-rule="evenodd" clip-rule="evenodd" d="M90.051,161.352c0.166,0,0.332,0,0.498,0c0,0.166,0,0.332,0,0.499
			c-0.166,0-0.332,0-0.498,0C90.051,161.684,90.051,161.518,90.051,161.352z"/>
		<path fill-rule="evenodd" clip-rule="evenodd" d="M98.03,161.601c0.167,0,0.333,0,0.499,0c0,0.167,0,0.333,0,0.499
			c-0.166,0-0.332,0-0.499,0C98.03,161.934,98.03,161.768,98.03,161.601z"/>
		<path fill-rule="evenodd" clip-rule="evenodd" d="M80.325,146.638c-0.034,0.465-0.164,0.834-0.499,0.998l-0.125-0.374
			l-0.374,0.125c-3.583-1.756-6.963-0.544-8.479,2.244l-0.174-0.424l-0.324-0.324c0.822-1.922,2.288-3.199,4.489-3.741l0.374,0.125
			l0.125-0.374c1.726,0.27,2.688,1.302,4.738,1.247l-0.125,0.374L80.325,146.638z"/>
		<path fill-rule="evenodd" clip-rule="evenodd" d="M67.232,149.756l0.125,0.374c-0.346,0.402-0.211,1.285-0.748,1.496l-0.125-0.374
			l-0.374,0.124c-0.18-0.655-1.476-0.945-0.749-1.745l0.374-0.125l-0.125-0.374c0.663,0.003,1.424-0.094,1.746,0.249L67.232,149.756
			z"/>
		<path fill-rule="evenodd" clip-rule="evenodd" d="M108.131,3.246l-0.125-0.25c0.211-0.233,1.59-0.532,1.745,0l-0.374,0.125
			l0.125,0.374c0,0.083,0,0.166,0,0.25l-0.374-0.125l-0.125,0.374c-0.166,0-0.332,0-0.498,0L108.38,3.62l-0.374,0.125
			c0-0.083,0-0.167,0-0.25L108.131,3.246z"/>
		<path fill-rule="evenodd" clip-rule="evenodd" d="M79.577,102.748c-0.794-0.37-1.99-0.339-2.245-1.247l0.374-0.125l-0.125-0.374
			c-0.162-0.253-0.573-0.258-0.499-0.748c1.79,0.094,3.637-0.775,5.735,0v0.249h0.25c-0.702,0.961-1.511,1.814-2.993,1.995
			l-0.374-0.125L79.577,102.748z"/>
		<path fill-rule="evenodd" clip-rule="evenodd" d="M76.21,97.137l0.125-0.374c1.226-0.816,3.936-1.346,4.988-0.499
			c-0.471,0.61-0.444,1.718-1.746,1.497l-0.374-0.125l0.125,0.374c-0.93-0.265-0.395,0.936-1.247,0.748
			c-0.661-0.669-2.475-0.185-2.244-1.746L76.21,97.137z"/>
		<path fill-rule="evenodd" clip-rule="evenodd" d="M91.547,139.406c-0.045,1.202-0.854,1.64-1.995,1.746l0.124-0.375l-0.373-0.124
			c0.539-0.625,0.786-1.541,1.496-1.995v0.249h0.249c0.083,0,0.167,0,0.249,0l-0.124,0.374L91.547,139.406z"/>
		<path fill-rule="evenodd" clip-rule="evenodd" d="M75.088,100.503c-0.132-0.2-0.26-0.405-0.25-0.748
			c0.29,0.041,0.444-0.055,0.499-0.249c0.623,0.399-0.171,1.471-0.748,1.496C74.497,100.578,74.784,100.531,75.088,100.503z"/>
		<path fill-rule="evenodd" clip-rule="evenodd" d="M73.342,100.503c0.485,0.346,0.766,0.896,1.496,0.998
			c-0.077,0.338-0.625,0.207-0.998,0.249C74.027,100.982,72.981,101.446,73.342,100.503z"/>
		<g>
			<path fill-rule="evenodd" clip-rule="evenodd" fill="none" stroke="#000000" stroke-width="0.4098" stroke-linecap="round" d="
				M83.317,102.373c0.219-0.352,0.408-0.81,0.873-0.872"/>
			<path fill-rule="evenodd" clip-rule="evenodd" fill="none" stroke="#000000" stroke-width="0.3154" stroke-linecap="round" d="
				M95.162,126.813c-0.029,0.137-0.137,0.195-0.249,0.249"/>
			<path fill-rule="evenodd" clip-rule="evenodd" fill="none" stroke="#000000" stroke-width="0.3336" stroke-linecap="round" d="
				M85.188,128.06c0.783,0.234,1.324-0.563,1.995-0.748"/>
			<path fill-rule="evenodd" clip-rule="evenodd" fill="none" stroke="#000000" stroke-width="0.4319" stroke-linecap="round" d="
				M72.095,131.426c0.264-0.106,0.608-0.388,0.873-0.124"/>
			<path fill-rule="evenodd" clip-rule="evenodd" fill="none" stroke="#000000" stroke-width="0.3415" stroke-linecap="round" d="
				M100.399,131.052c0.448-0.032,0.664,0.167,0.748,0.499"/>
			<path fill-rule="evenodd" clip-rule="evenodd" fill="none" stroke="#000000" stroke-width="0.3741" stroke-linecap="round" d="
				M71.222,133.047c0.025-0.058,0.05-0.116,0.075-0.175c0.393,0.027,0.822-0.351,1.172-0.074"/>
			<path fill-rule="evenodd" clip-rule="evenodd" fill="none" stroke="#000000" stroke-width="0.288" stroke-linecap="round" d="
				M97.407,133.795c0.058,0.026,0.114,0.053,0.171,0.078c0.248,0.439,0.406,0.882,0.328,1.418"/>
			<path fill-rule="evenodd" clip-rule="evenodd" fill="none" stroke="#000000" stroke-width="0.3782" stroke-linecap="round" d="
				M96.16,135.042c0.059,0.025,0.117,0.051,0.176,0.075c0.358,0.346,0.016,0.763,0.074,1.172"/>
			<path fill-rule="evenodd" clip-rule="evenodd" fill="none" stroke="#000000" stroke-width="0.3527" stroke-linecap="round" d="
				M71.971,136.788c0.072-0.588,0.814-0.681,1.122-1.122"/>
			<path fill-rule="evenodd" clip-rule="evenodd" fill="none" stroke="#000000" stroke-width="0.3363" stroke-linecap="round" d="
				M75.586,139.905c-0.211-0.46-0.239-1.042,0-1.497"/>
			<path fill-rule="evenodd" clip-rule="evenodd" fill="none" stroke="#000000" stroke-width="0.3741" stroke-linecap="round" d="
				M88.679,138.533c0.212,0.037,0.345,0.154,0.499,0.25"/>
			<path fill-rule="evenodd" clip-rule="evenodd" fill="none" stroke="#000000" stroke-width="0.2732" stroke-linecap="round" d="
				M84.689,142.024c0.104,0.229,0.261,0.403,0.499,0.499"/>
			<path fill-rule="evenodd" clip-rule="evenodd" fill="none" stroke="#000000" stroke-width="0.2732" stroke-linecap="round" d="
				M83.94,143.271c-0.143-0.188-0.219-0.446-0.249-0.748"/>
			<path fill-rule="evenodd" clip-rule="evenodd" fill="none" stroke="#000000" stroke-width="0.3741" stroke-linecap="round" d="
				M82.195,143.022c0.038,0.212,0.154,0.345,0.25,0.498"/>
			<path fill-rule="evenodd" clip-rule="evenodd" fill="none" stroke="#000000" stroke-width="0.3606" stroke-linecap="round" d="
				M80.699,149.506c0.396-0.131,0.903-0.447,1.247,0"/>
			<path fill-rule="evenodd" clip-rule="evenodd" fill="none" stroke="#000000" stroke-width="0.3943" stroke-linecap="round" d="
				M81.197,151.252c-0.212-0.048-0.342-0.098-0.496-0.116c-0.287,0.177-0.633,0.322-0.751,0.614"/>
			<path fill-rule="evenodd" clip-rule="evenodd" fill="none" stroke="#000000" stroke-width="0.3244" stroke-linecap="round" d="
				M79.577,153.371c0.382-0.357,0.854-0.423,1.372-0.374"/>
			<path fill-rule="evenodd" clip-rule="evenodd" fill="none" stroke="#000000" stroke-width="0.3848" stroke-linecap="round" d="
				M15.985,163.846c8.684-5.151,18.195-8.399,28.305-9.976"/>
			<path fill-rule="evenodd" clip-rule="evenodd" fill="none" stroke="#000000" stroke-width="0.3834" stroke-linecap="round" d="
				M80.449,154.493c-0.471-0.146-0.952,0.121-1.247,0.499"/>
			<path fill-rule="evenodd" clip-rule="evenodd" fill="none" stroke="#000000" stroke-width="0.5395" stroke-linecap="round" d="
				M82.195,156.488c-0.915-0.085-2.348-0.538-2.868,0.499"/>
			<path fill-rule="evenodd" clip-rule="evenodd" fill="none" stroke="#000000" stroke-width="0.4591" stroke-linecap="round" d="
				M82.195,156.488c0.289-3.221,0.426-7.073,2.556-9.601"/>
			<path fill-rule="evenodd" clip-rule="evenodd" fill="none" stroke="#000000" stroke-width="0.4665" stroke-linecap="round" d="
				M84.751,146.888c-0.232-0.563-0.089-0.743-0.062-1.122"/>
			<path fill-rule="evenodd" clip-rule="evenodd" fill="none" stroke="#000000" stroke-width="0.7964" stroke-linecap="round" d="
				M84.751,146.888c5.579-0.168,11.009-3.102,16.496-0.973"/>
			<path fill-rule="evenodd" clip-rule="evenodd" fill="none" stroke="#000000" stroke-width="0.4913" stroke-linecap="round" d="
				M101.247,145.915c0.791-3.18-0.494-6.441-0.972-9.626"/>
			<path fill-rule="evenodd" clip-rule="evenodd" fill="none" stroke="#000000" stroke-width="1.0211" stroke-linecap="round" d="
				M101.247,145.915c0.791,0.952,1.934,1.564,2.6,2.623"/>
			<path fill-rule="evenodd" clip-rule="evenodd" fill="none" stroke="#000000" stroke-width="0.4918" stroke-linecap="round" d="
				M103.847,148.538c3.677-1.102,7.772,0.364,11.516,0.22"/>
			<path fill-rule="evenodd" clip-rule="evenodd" fill="none" stroke="#000000" stroke-width="0.4549" stroke-linecap="round" d="
				M115.362,148.758c0.028-0.07,0.058-0.14,0.086-0.21c-0.202-2.994-0.003-7.455-0.146-11.124
				c-0.522-13.415-3.281-26.703-2.623-40.148c0.333-6.816,0.986-13.629-0.407-20.453c-0.061-4.188-1.084-8.422-0.282-12.58
				c0.09-0.102,0.201-0.217,0.291-0.325c2.209-0.934,4.706-0.602,7.066-0.831c4.039-0.392,8.046-1.695,11.788-0.925"/>
			<path fill-rule="evenodd" clip-rule="evenodd" fill="none" stroke="#000000" stroke-width="0.4677" stroke-linecap="round" d="
				M131.136,62.161c0.435,0.196,0.855,0.401,1.243,0.671c1.521,12.821,1.219,25.533,2.798,38.29
				c0.044,0.353-0.025,0.642,0.001,0.999c0.773,10.63,0.416,20.884,1.729,32.287c0.599,5.207-0.355,10.651,0.276,15.285"/>
			<path fill-rule="evenodd" clip-rule="evenodd" fill="none" stroke="#000000" stroke-width="0.4212" stroke-linecap="round" d="
				M137.183,149.693c1.343-0.392,3.401-0.114,4.364,1.06"/>
			<path fill-rule="evenodd" clip-rule="evenodd" fill="none" stroke="#000000" stroke-width="0.4194" stroke-linecap="round" d="
				M141.547,150.753c7.86,1.613,16.008,2.276,23.94,3.74"/>
			<path fill-rule="evenodd" clip-rule="evenodd" fill="none" stroke="#000000" stroke-width="0.6159" stroke-linecap="round" d="
				M103.847,148.538c1.271,3.337,1.579,7.52,4.533,9.821"/>
			<path fill-rule="evenodd" clip-rule="evenodd" fill="none" stroke="#000000" stroke-width="0.4344" stroke-linecap="round" d="
				M82.195,156.488c2.508,0.911,0.767,2.839-0.385,3.111c-3.583,0.849-5.016-4.112-3.717-8.298c0.396-1.276,1.453-2.814,1.608-4.04"
				/>
			<path fill-rule="evenodd" clip-rule="evenodd" fill="none" stroke="#000000" stroke-width="0.8291" stroke-linecap="round" d="
				M70.1,150.13c-0.349,4.068-1.568,8.811-5.361,10.973"/>
			<path fill-rule="evenodd" clip-rule="evenodd" fill="none" stroke="#000000" stroke-width="0.5276" stroke-linecap="round" d="
				M70.1,150.13c-0.876-0.293-1.957-0.441-2.868-0.374"/>
			<path fill-rule="evenodd" clip-rule="evenodd" fill="none" stroke="#000000" stroke-width="0.4525" stroke-linecap="round" d="
				M55.823,68.271c0.068-0.014,0.137-0.028,0.206-0.042c0.419,0.052,0.773,0.078,1.037,0.34c1.277,6.105,1.692,14.956,2.533,22.199
				c0.61,5.255,0.066,10.92,0.75,16.457c0.911,7.38,0.445,14.538,1.225,22.256c0.663,6.564,0.083,13.403,1.482,19.715"/>
			<path fill-rule="evenodd" clip-rule="evenodd" fill="none" stroke="#000000" stroke-width="0.5517" stroke-linecap="round" d="
				M63.055,149.194c0.904-0.049,1.89-0.252,2.681,0.312"/>
			<path fill-rule="evenodd" clip-rule="evenodd" fill="none" stroke="#000000" stroke-width="0.7886" stroke-linecap="round" d="
				M70.1,150.13c0.232-0.259,0.382-0.711,0.574-0.923"/>
			<path fill-rule="evenodd" clip-rule="evenodd" fill="none" stroke="#000000" stroke-width="0.4447" stroke-linecap="round" d="
				M75.462,141.775c-6.568-1.914-6.936-9.278-2.933-12.394c0.264-0.449,0.662-0.996,1.25-0.948"/>
			<path fill-rule="evenodd" clip-rule="evenodd" fill="none" stroke="#000000" stroke-width="0.4681" stroke-linecap="round" d="
				M73.778,128.434c-0.213-8.717-3.701-17.516-1.87-26.185"/>
			<path fill-rule="evenodd" clip-rule="evenodd" fill="none" stroke="#000000" stroke-width="0.418" stroke-linecap="round" d="
				M71.908,102.249c-0.33-0.878-1.268-1.832-0.52-2.785"/>
			<path fill-rule="evenodd" clip-rule="evenodd" fill="none" stroke="#000000" stroke-width="0.4702" stroke-linecap="round" d="
				M71.389,99.464c-0.011-0.044-0.022-0.088-0.033-0.132c0.731-1.477,1.944-2.832,3.607-3.442"/>
			<path fill-rule="evenodd" clip-rule="evenodd" fill="none" stroke="#000000" stroke-width="0.4371" stroke-linecap="round" d="
				M74.963,95.89c2.744-2.165,6.766-2.765,10.225-2.993"/>
			<path fill-rule="evenodd" clip-rule="evenodd" fill="none" stroke="#000000" stroke-width="0.4141" stroke-linecap="round" d="
				M85.188,92.897c0.03-0.083,0.06-0.167,0.089-0.25c-2.054-19.46-4.125-40.302-2.198-59.346
				c1.398-13.824,12.783-21.374,23.806-29.681"/>
			<path fill-rule="evenodd" clip-rule="evenodd" fill="none" stroke="#000000" stroke-width="0.5323" stroke-linecap="round" d="
				M106.884,3.62c0.405-0.184,0.768-0.467,1.247-0.374"/>
			<path fill-rule="evenodd" clip-rule="evenodd" fill="none" stroke="#000000" stroke-width="0.4252" stroke-linecap="round" d="
				M94.539,137.91c2.072,0.431,3.766-1.854,5.278-2.951"/>
			<path fill-rule="evenodd" clip-rule="evenodd" fill="none" stroke="#000000" stroke-width="0.4045" stroke-linecap="round" d="
				M99.817,134.959c-0.712-0.629,0.563-1.906-0.665-2.161"/>
			<path fill-rule="evenodd" clip-rule="evenodd" fill="none" stroke="#000000" stroke-width="0.4466" stroke-linecap="round" d="
				M99.817,134.959c3.518-2.034,4.689-8.088,1.33-10.516"/>
			<path fill-rule="evenodd" clip-rule="evenodd" fill="none" stroke="#000000" stroke-width="0.4391" stroke-linecap="round" d="
				M80.865,145.184c-0.108,0.562-0.513,0.951-0.915,1.33"/>
			<path fill-rule="evenodd" clip-rule="evenodd" fill="none" stroke="#000000" stroke-width="0.4403" stroke-linecap="round" d="
				M85.188,92.897c0.631,2.002,1.279,4.54,0.162,6.447c0.006,0.156,0.083,0.321,0.157,0.471c0.397,0.35,0.982,0.335,1.344,0.73"/>
			<path fill-rule="evenodd" clip-rule="evenodd" fill="none" stroke="#000000" stroke-width="0.5228" stroke-linecap="round" d="
				M86.85,100.545c1.49-0.312,3.523,0.302,4.509-1.039"/>
			<path fill-rule="evenodd" clip-rule="evenodd" fill="none" stroke="#000000" stroke-width="0.4462" stroke-linecap="round" d="
				M89.843,92.564c-0.067-0.08-0.136-0.16-0.204-0.24c-1.242-15.604-4.276-29.605-3.107-48.668c0.364-5.933,0.343-11.34,2.14-15.359
				c2.825-6.319,8.147-12.161,14.288-16.382c2.188-1.503,5.536-2.673,6.605-4.991"/>
			<path fill-rule="evenodd" clip-rule="evenodd" fill="none" stroke="#000000" stroke-width="0.4156" stroke-linecap="round" d="
				M115.362,148.758c1.407,7.463-1.449,14.45-3.688,21.249c-2.987,9.069-6.475,18.187-9.679,26.976
				c3.144,1.747,9.313,1.57,14.11,1.517c1.859-0.021,3.708-0.099,5.472-0.239c3.63-5.753,5.537-12.35,8.444-18.383
				c1.849-4.146,3.154-8.743,5.007-12.949c0.087-0.554-0.029-1.122,0.074-1.671c2.781-8.715-0.256-22.23-1.136-32.819
				c-0.376-4.515,0.682-8.833,0.694-12.971c0.039-12.338-3.091-22.946-3.224-34.295c-0.806-2.67,0.514-5.424-0.173-8.1
				c0.601-4.928-1.073-10.108-0.129-14.911"/>
			<path fill-rule="evenodd" clip-rule="evenodd" fill="none" stroke="#000000" stroke-width="0.4491" stroke-linecap="round" d="
				M106.884,3.62c-0.365,1.646,0.593,3.998,2.681,3.304"/>
			<path fill-rule="evenodd" clip-rule="evenodd" fill="none" stroke="#000000" stroke-width="0.4728" stroke-linecap="round" d="
				M109.564,6.924c0.127-0.082,0.298-0.148,0.428-0.214c1.219-0.987,0.793-3.01-0.615-3.588"/>
			<path fill-rule="evenodd" clip-rule="evenodd" fill="none" stroke="#000000" stroke-width="0.4845" stroke-linecap="round" d="
				M108.38,3.62c-0.071,0.559-0.589,1.069-0.297,1.649c0.289,0.221,0.626,0.482,1.016,0.465c0.149-0.027,0.315-0.107,0.465-0.187
				c0.406-0.648,0.206-1.504-0.436-1.927"/>
			<path fill-rule="evenodd" clip-rule="evenodd" fill="none" stroke="#000000" stroke-width="0.4481" stroke-linecap="round" d="
				M55.823,68.271c-5.918-0.242-11.847,1.752-17.731,2.814c-1.028,28.914,5.287,57.664,8.053,86.599
				c-1.897,6.155-4.046,12.241-6.318,18.292c-2.59,6.9-7.021,12.758-10.142,19.307c0.229,0.313,0.385,0.691,0.732,0.907
				c6.784-0.778,13.653,1.739,20.513,0.745c3.778-9.137,6.358-19.708,9.792-29.012c1.099-2.979,3.083-6.421,2.669-9.396
				c-0.359-2.573-1.547-4.904-1.992-7.391c-1.742-9.736-0.444-20.975-1.532-31.552c-1.646-16.003-0.447-31.569-3.955-47
				C55.956,71.142,55.747,69.699,55.823,68.271"/>
			<path fill-rule="evenodd" clip-rule="evenodd" fill="none" stroke="#000000" stroke-width="0.4775" stroke-linecap="round" d="
				M77.706,101.376c-0.212-0.08-0.344-0.152-0.499-0.25"/>
			<path fill-rule="evenodd" clip-rule="evenodd" fill="none" stroke="#000000" stroke-width="0.319" stroke-linecap="round" d="
				M82.818,100.503c0.713-0.378,1-1.207,1.621-1.621"/>
			<path fill-rule="evenodd" clip-rule="evenodd" fill="none" stroke="#000000" stroke-width="0.4512" stroke-linecap="round" d="
				M79.203,104.119c6.277,1.44,13.479-0.468,18.579-4.177"/>
			<path fill-rule="evenodd" clip-rule="evenodd" fill="none" stroke="#000000" stroke-width="0.4383" stroke-linecap="round" d="
				M97.781,99.942c1.382-4.509-4.227-7.114-7.938-7.377"/>
			<path fill-rule="evenodd" clip-rule="evenodd" fill="none" stroke="#000000" stroke-width="0.4988" stroke-linecap="round" d="
				M89.843,92.564c-0.3,2.198,0.548,4.264,0.765,6.372c0.344,0.033,0.658,0.212,0.752,0.569"/>
			<path fill-rule="evenodd" clip-rule="evenodd" fill="none" stroke="#000000" stroke-width="0.3741" stroke-linecap="round" d="
				M91.359,99.506c0.162,0.044,0.354,0.097,0.562,0.125"/>
			<path fill-rule="evenodd" clip-rule="evenodd" fill="none" stroke="#000000" stroke-width="0.4988" stroke-linecap="round" d="
				M86.85,100.545c-0.077,0.181,0.006,0.427,0.208,0.707"/>
			<path fill-rule="evenodd" clip-rule="evenodd" fill="none" stroke="#000000" stroke-width="0.3834" stroke-linecap="round" d="
				M74.963,95.89c0.228,0.592,0.774,0.879,1.247,1.247"/>
			<path fill-rule="evenodd" clip-rule="evenodd" fill="none" stroke="#000000" stroke-width="0.3834" stroke-linecap="round" d="
				M79.701,99.132c-0.07-0.012-0.141-0.024-0.211-0.036c-0.078-0.455,0.263-1.07-0.287-1.461"/>
			<path fill-rule="evenodd" clip-rule="evenodd" fill="none" stroke="#000000" stroke-width="0.4963" stroke-linecap="round" d="
				M71.389,99.464c1.193,0.721,2.027-0.015,2.826-0.831"/>
			<path fill-rule="evenodd" clip-rule="evenodd" fill="none" stroke="#000000" stroke-width="0.4713" stroke-linecap="round" d="
				M71.908,102.249c1.359,1.109,3.271,1.615,5.133,1.454"/>
			<path fill-rule="evenodd" clip-rule="evenodd" fill="none" stroke="#000000" stroke-width="0.4319" stroke-linecap="round" d="
				M77.041,103.703c0.04-0.108,0.13-0.317,0.167-0.581"/>
			<path fill-rule="evenodd" clip-rule="evenodd" fill="none" stroke="#000000" stroke-width="0.5674" stroke-linecap="round" d="
				M77.041,103.703c0.63,0.474,1.451,0.187,2.162,0.416"/>
			<path fill-rule="evenodd" clip-rule="evenodd" fill="none" stroke="#000000" stroke-width="0.4988" stroke-linecap="round" d="
				M79.203,104.119c-0.031-0.675,0.912-1.052,0.499-1.746"/>
			<path fill-rule="evenodd" clip-rule="evenodd" fill="none" stroke="#000000" stroke-width="0.4824" stroke-linecap="round" d="
				M73.778,128.434c0.701,2.598,0.746,5.287,1.102,7.938"/>
			<path fill-rule="evenodd" clip-rule="evenodd" fill="none" stroke="#000000" stroke-width="0.3976" stroke-linecap="round" d="
				M74.88,136.372c1.133,0.432,1.865,1.364,2.993,1.829"/>
			<path fill-rule="evenodd" clip-rule="evenodd" fill="none" stroke="#000000" stroke-width="0.4891" stroke-linecap="round" d="
				M77.873,138.201c0.636-0.162,1.259,0.066,1.829,0.332"/>
			<path fill-rule="evenodd" clip-rule="evenodd" fill="none" stroke="#000000" stroke-width="0.6358" stroke-linecap="round" d="
				M79.701,138.533c0.436-0.215,1,0.01,1.372-0.374"/>
			<path fill-rule="evenodd" clip-rule="evenodd" fill="none" stroke="#000000" stroke-width="0.5323" stroke-linecap="round" d="
				M81.073,138.159c0.096-0.418-0.226-1.053,0.25-1.31"/>
			<path fill-rule="evenodd" clip-rule="evenodd" fill="none" stroke="#000000" stroke-width="0.4262" stroke-linecap="round" d="
				M82.382,134.481c0.688-1.556,1.505-3.646,3.305-4.053"/>
			<path fill-rule="evenodd" clip-rule="evenodd" fill="none" stroke="#000000" stroke-width="0.6905" stroke-linecap="round" d="
				M85.687,130.429c0.319-0.16,0.511-0.256,0.748-0.374"/>
			<path fill-rule="evenodd" clip-rule="evenodd" fill="none" stroke="#000000" stroke-width="0.3987" stroke-linecap="round" d="
				M86.435,130.055c-0.099-0.258-0.102-0.425-0.101-0.588c0.196-0.148,0.348-0.327,0.6-0.41"/>
			<path fill-rule="evenodd" clip-rule="evenodd" fill="none" stroke="#000000" stroke-width="0.4766" stroke-linecap="round" d="
				M94.581,133.962c0.14-0.029,0.363-0.028,0.548-0.039c6.011-2.023,4.859-9.111,4.176-15.952
				c-0.533-5.337-0.226-12.693-1.178-17.816c-0.106-0.1-0.228-0.144-0.346-0.213"/>
			<path fill-rule="evenodd" clip-rule="evenodd" fill="none" stroke="#000000" stroke-width="0.5502" stroke-linecap="round" d="
				M75.462,141.775c1.557,0.388,3.278-0.181,4.8,0.312"/>
			<path fill-rule="evenodd" clip-rule="evenodd" fill="none" stroke="#000000" stroke-width="0.4957" stroke-linecap="round" d="
				M80.262,142.087c3.643-0.732,7.873-2.323,7.917-6.712"/>
			<path fill-rule="evenodd" clip-rule="evenodd" fill="none" stroke="#000000" stroke-width="0.8271" stroke-linecap="round" d="
				M88.18,135.375c-0.371-0.09-0.759-0.078-1.122-0.208"/>
			<path fill-rule="evenodd" clip-rule="evenodd" fill="none" stroke="#000000" stroke-width="0.4702" stroke-linecap="round" d="
				M87.058,135.167c-0.227,0.438-0.507,0.837-0.998,0.997"/>
			<path fill-rule="evenodd" clip-rule="evenodd" fill="none" stroke="#000000" stroke-width="0.5076" stroke-linecap="round" d="
				M86.061,136.164c-0.161,0.252-0.334,0.517-0.507,0.702c-0.235,0.113-0.685,0.002-0.989-0.203"/>
			<path fill-rule="evenodd" clip-rule="evenodd" fill="none" stroke="#000000" stroke-width="0.4801" stroke-linecap="round" d="
				M84.564,136.663c-0.518,0.811-1.356,1.239-2.244,1.496"/>
			<path fill-rule="evenodd" clip-rule="evenodd" fill="none" stroke="#000000" stroke-width="0.3899" stroke-linecap="round" d="
				M82.32,138.159c0.286,0.326,0.144,0.991,0.624,1.122"/>
			<path fill-rule="evenodd" clip-rule="evenodd" fill="none" stroke="#000000" stroke-width="0.3407" stroke-linecap="round" d="
				M79.701,138.533c-0.33,0.617-0.374,1.417,0,1.995"/>
			<path fill-rule="evenodd" clip-rule="evenodd" fill="none" stroke="#000000" stroke-width="0.4147" stroke-linecap="round" d="
				M77.873,138.201c-0.222,0.674-0.349,1.373-0.416,2.078"/>
			<path fill-rule="evenodd" clip-rule="evenodd" fill="none" stroke="#000000" stroke-width="0.3725" stroke-linecap="round" d="
				M74.88,136.372c-0.175,0.643-1.027,0.92-0.915,1.662"/>
			<path fill-rule="evenodd" clip-rule="evenodd" fill="none" stroke="#000000" stroke-width="0.4459" stroke-linecap="round" d="
				M88.18,142.772c0.048,0.082,0.096,0.164,0.143,0.246c3.24,1.499,5.695-2.406,6.217-5.108"/>
			<path fill-rule="evenodd" clip-rule="evenodd" fill="none" stroke="#000000" stroke-width="0.5368" stroke-linecap="round" d="
				M94.539,137.91c0.082-1.316-0.074-2.633,0.042-3.948"/>
			<path fill-rule="evenodd" clip-rule="evenodd" fill="none" stroke="#000000" stroke-width="0.4988" stroke-linecap="round" d="
				M94.581,133.962c-0.396-0.52-0.19-1.392-0.915-1.663"/>
			<path fill-rule="evenodd" clip-rule="evenodd" fill="none" stroke="#000000" stroke-width="0.4564" stroke-linecap="round" d="
				M93.666,132.299c-0.451,0.717-0.415,1.675-0.873,2.369"/>
			<path fill-rule="evenodd" clip-rule="evenodd" fill="none" stroke="#000000" stroke-width="0.4688" stroke-linecap="round" d="
				M93.666,132.299c-1.129-2.849-4.741-2.724-7.231-2.244"/>
			<path fill-rule="evenodd" clip-rule="evenodd" fill="none" stroke="#000000" stroke-width="0.4169" stroke-linecap="round" d="
				M85.687,130.429c-0.01,0.354,0.059,0.524,0.138,0.693c1.444-0.083,2.137,1.402,1.982,2.673"/>
			<path fill-rule="evenodd" clip-rule="evenodd" fill="none" stroke="#000000" stroke-width="0.4129" stroke-linecap="round" d="
				M87.058,135.167c-0.401-0.764-0.757-1.535-1.256-2.234c-0.23-0.124-0.435-0.214-0.61-0.249c-0.152,0.063-0.452,0.101-0.752,0.114
				"/>
			<path fill-rule="evenodd" clip-rule="evenodd" fill="none" stroke="#000000" stroke-width="0.6539" stroke-linecap="round" d="
				M88.18,135.375c0.426-0.18,0.848-0.188,1.123-0.271"/>
			<path fill-rule="evenodd" clip-rule="evenodd" fill="none" stroke="#000000" stroke-width="0.4865" stroke-linecap="round" d="
				M89.303,135.104c0.314-1.274,0.451-2.769-0.25-3.928"/>
			<path fill-rule="evenodd" clip-rule="evenodd" fill="none" stroke="#000000" stroke-width="0.6148" stroke-linecap="round" d="
				M89.303,135.104c0.535,0.092,1.088,0.052,1.621,0.187"/>
			<path fill-rule="evenodd" clip-rule="evenodd" fill="none" stroke="#000000" stroke-width="0.4561" stroke-linecap="round" d="
				M90.924,135.291c0.096-1.324,0.671-2.648,0.249-3.989"/>
			<path fill-rule="evenodd" clip-rule="evenodd" fill="none" stroke="#000000" stroke-width="0.853" stroke-linecap="round" d="
				M90.924,135.291c0.168-0.001,0.281,0.052,0.393,0.106c0.133,0.384,0.123,0.81,0.313,1.183"/>
			<path fill-rule="evenodd" clip-rule="evenodd" fill="none" stroke="#000000" stroke-width="0.9658" stroke-linecap="round" d="
				M91.63,136.58c0.099,0.043,0.35,0.279,0.54,0.457"/>
			<path fill-rule="evenodd" clip-rule="evenodd" fill="none" stroke="#000000" stroke-width="0.4665" stroke-linecap="round" d="
				M92.17,137.037c0.447-0.277,1.287,0.124,1.496-0.499"/>
			<path fill-rule="evenodd" clip-rule="evenodd" fill="none" stroke="#000000" stroke-width="0.4792" stroke-linecap="round" d="
				M92.17,137.037c0.23,0.585-0.256,1.19-0.125,1.808"/>
			<path fill-rule="evenodd" clip-rule="evenodd" fill="none" stroke="#000000" stroke-width="0.4319" stroke-linecap="round" d="
				M92.045,138.845c0.377,0.17,0.735-0.136,1.123-0.062"/>
			<path fill-rule="evenodd" clip-rule="evenodd" fill="none" stroke="#000000" stroke-width="0.4988" stroke-linecap="round" d="
				M92.045,138.845c-0.215,0.093-0.521,0.283-0.872,0.437"/>
			<path fill-rule="evenodd" clip-rule="evenodd" fill="none" stroke="#000000" stroke-width="0.4724" stroke-linecap="round" d="
				M82.382,134.481c-0.571,0.646-1.053,1.47-1.06,2.368"/>
			<path fill-rule="evenodd" clip-rule="evenodd" fill="none" stroke="#000000" stroke-width="0.4249" stroke-linecap="round" d="
				M86.061,136.164c-0.264-0.734-0.831-1.271-1.468-1.684c-0.746-0.333-1.53,0.396-2.21,0.001"/>
			<path fill-rule="evenodd" clip-rule="evenodd" fill="none" stroke="#000000" stroke-width="0.5252" stroke-linecap="round" d="
				M80.262,142.087c-0.4,1.068-0.338,2.38,0.603,3.097"/>
			<path fill-rule="evenodd" clip-rule="evenodd" fill="none" stroke="#000000" stroke-width="0.4573" stroke-linecap="round" d="
				M80.865,145.184c2.782,0.274,5.001-1.303,7.314-2.411"/>
			<path fill-rule="evenodd" clip-rule="evenodd" fill="none" stroke="#000000" stroke-width="0.4319" stroke-linecap="round" d="
				M88.18,142.772c0.158-0.701,0.842-1.045,0.998-1.745"/>
			<path fill-rule="evenodd" clip-rule="evenodd" fill="none" stroke="#000000" stroke-width="0.3325" stroke-linecap="round" d="
				M89.178,141.027c-0.437-0.339-0.863-0.658-1.371-0.873"/>
			<path fill-rule="evenodd" clip-rule="evenodd" fill="none" stroke="#000000" stroke-width="0.7053" stroke-linecap="round" d="
				M89.178,141.027c0.166-0.083,0.332-0.166,0.498-0.25"/>
			<path fill-rule="evenodd" clip-rule="evenodd" fill="none" stroke="#000000" stroke-width="0.5257" stroke-linecap="round" d="
				M81.073,138.159c0.562,0,0.959,0,1.247,0"/>
			<path fill-rule="evenodd" clip-rule="evenodd" fill="none" stroke="#000000" stroke-width="0.382" stroke-linecap="round" d="
				M84.564,136.663c-1.033-0.949-2.183,0.175-3.242,0.187"/>
			<path fill-rule="evenodd" clip-rule="evenodd" fill="none" stroke="#000000" stroke-width="0.5464" stroke-linecap="round" d="
				M91.63,136.58c-0.515,0.659-0.409,1.609-0.831,2.327"/>
			<path fill-rule="evenodd" clip-rule="evenodd" fill="none" stroke="#000000" stroke-width="0.4429" stroke-linecap="round" d="
				M75.462,141.775c-0.444,1.027-0.418,2.361-0.25,3.491"/>
			<path fill-rule="evenodd" clip-rule="evenodd" fill="none" stroke="#000000" stroke-width="0.4559" stroke-linecap="round" d="
				M63.055,149.194c-0.169,1.798,0.323,3.881,0.797,5.606c0.292,0.069,0.751,0.063,1.097,0.069c1.212-0.759,0.946-2.45,1.535-3.618"
				/>
			<path fill-rule="evenodd" clip-rule="evenodd" fill="none" stroke="#000000" stroke-width="0.4413" stroke-linecap="round" d="
				M137.183,149.693c-0.315,1.713-0.085,3.519,0.178,5.184c2.012-0.365,2.72-2.864,4.187-4.124"/>
			<path fill-rule="evenodd" clip-rule="evenodd" fill="none" stroke="#000000" stroke-width="0.3292" stroke-linecap="round" d="
				M81.946,97.137c0.352-0.016,0.644,0.209,0.873,0.374"/>
			<path fill-rule="evenodd" clip-rule="evenodd" fill="none" stroke="#000000" stroke-width="0.3584" stroke-linecap="round" d="
				M88.679,121.077c2.151-4.854,4.197-9.918,4.987-15.212"/>
			<path fill-rule="evenodd" clip-rule="evenodd" fill="none" stroke="#000000" stroke-width="0.3217" stroke-linecap="round" d="
				M77.208,114.344c0.558-1.897,1.33-3.731,2.12-5.611"/>
			<path fill-rule="evenodd" clip-rule="evenodd" fill="none" stroke="#000000" stroke-width="0.4782" stroke-linecap="round" d="
				M86.559,123.196c-1.133,1.046-2.64,1.304-4.115,1.372"/>
			<path fill-rule="evenodd" clip-rule="evenodd" fill="none" stroke="#000000" stroke-width="0.4528" stroke-linecap="round" d="
				M82.444,124.568c0.488,1.662,1.152,3.287,1.871,4.862"/>
			<path fill-rule="evenodd" clip-rule="evenodd" fill="none" stroke="#000000" stroke-width="0.452" stroke-linecap="round" d="
				M86.559,123.196c0.41,0.525,0.758,1.138,0.998,1.746"/>
			<path fill-rule="evenodd" clip-rule="evenodd" fill="none" stroke="#000000" stroke-width="0.4528" stroke-linecap="round" d="
				M87.557,124.942c0.732,0.995,0.475,2.393,1.247,3.366"/>
			<path fill-rule="evenodd" clip-rule="evenodd" fill="none" stroke="#000000" stroke-width="0.3339" stroke-linecap="round" d="
				M87.557,124.942c-1.119,0.448-1.958,1.593-3.367,1.371"/>
			<path fill-rule="evenodd" clip-rule="evenodd" fill="none" stroke="#000000" stroke-width="0.4553" stroke-linecap="round" d="
				M86.559,123.196c-0.517-0.426-0.338-1.205-0.905-1.572c-1.22-0.305-2.319,0.234-3.325,0.835
				c-0.489,0.689-0.405,1.469,0.115,2.109"/>
			<path fill-rule="evenodd" clip-rule="evenodd" fill="none" stroke="#000000" stroke-width="0.2993" stroke-linecap="round" d="
				M96.41,127.811c0.136-0.167,0.194-0.333,0.249-0.499"/>
		</g>
	</g>
</g>
</svg>
