<?xml version="1.0" encoding="utf-8"?>
<!-- Generator: Adobe Illustrator 19.2.0, SVG Export Plug-In . SVG Version: 6.00 Build 0)  -->
<svg version="1.1" id="Layer_1" xmlns="http://www.w3.org/2000/svg" xmlns:xlink="http://www.w3.org/1999/xlink" x="0px" y="0px"
	 viewBox="0 0 595.3 425.2" style="enable-background:new 0 0 595.3 425.2;" xml:space="preserve">
<style type="text/css">
	.st0{fill:#231F20;}
	.st1{fill:none;}
	.st2{fill:none;stroke:#FFFFFF;stroke-width:1.0926;stroke-linecap:round;stroke-linejoin:round;stroke-miterlimit:10;}
</style>
<g id="bkg">
	<g>
		<g>
			<path class="st0" d="M239.5,45.7c-1.3-0.2-2.6-0.2-3.9-0.1c-0.7,0-1.3,0.1-2,0.2c-0.6,0.1-1.3,0.2-1.9,0.4
				c-0.6,0.2-1.3,0.3-1.9,0.5l-1.8,0.7l-1.7,0.9c-0.6,0.3-1.1,0.7-1.6,1.1c-0.6,0.3-1,0.8-1.5,1.2s-1,0.9-1.4,1.4l-1.3,1.5l-1.1,1.6
				l-0.5,0.8l-0.4,0.9l-0.8,1.8c-0.3,0.6-0.4,1.2-0.7,1.8l-0.6,1.9l0,0l0,0l-11.7,21l0,0c-1.1,2.7-2.1,5.5-3.1,8.2
				c-0.5,1.4-0.9,2.8-1.4,4.2c-0.4,1.4-0.9,2.8-1.3,4.2c-0.4,1.4-0.8,2.8-1.2,4.2l-0.5,2.1c-0.2,0.7-0.3,1.4-0.4,2.1
				c-0.1,0.7-0.3,1.4-0.4,2.2c-0.1,0.7-0.2,1.4-0.3,2.2c-0.1,0.7-0.1,1.5-0.2,2.2v2.2l0,0v-2.2c0-0.7,0.1-1.5,0.1-2.2
				s0.2-1.5,0.3-2.2s0.2-1.5,0.3-2.2s0.2-1.5,0.4-2.2l0.5-2.2c0.4-1.4,0.7-2.9,1.1-4.3c0.8-2.8,1.7-5.6,2.6-8.4c1-2.8,2-5.5,3.1-8.2
				l0,0l0,0l11.8-20.9l0,0l0.7-1.9c0.2-0.6,0.4-1.3,0.7-1.9l0.9-1.8l0.4-0.9l0.5-0.8l1.1-1.7l1.3-1.5c0.4-0.5,0.9-0.9,1.4-1.4
				c0.5-0.4,1-0.9,1.5-1.2c0.6-0.4,1.1-0.8,1.7-1.1l1.8-0.9l1.8-0.7c0.6-0.2,1.3-0.4,1.9-0.5c0.6-0.1,1.3-0.2,1.9-0.4
				c0.7-0.1,1.3-0.2,2-0.2C236.9,45.4,238.2,45.5,239.5,45.7L239.5,45.7z"/>
		</g>
		<g>
			<path class="st0" d="M384.5,81.3c0,0,2-2.4,4.6-6.1c0.6-0.9,1.4-2,2.1-3.1s1.5-2.3,2.2-3.5c0.4-0.6,0.8-1.2,1.1-1.9
				c0.4-0.6,0.7-1.3,1.1-1.9c0.8-1.3,1.4-2.7,2.2-4c0.7-1.4,1.3-2.8,2-4.1c0.6-1.4,1.1-2.8,1.7-4.1c0.5-1.4,0.9-2.7,1.3-3.9
				c0.4-1.3,0.7-2.5,1-3.6c0.2-1.1,0.4-2.2,0.6-3.1c0.2-0.9,0.2-1.7,0.3-2.4c0.1-1.3,0.2-2.1,0.2-2.1l0,0c0,0,0,0.8-0.1,2.1
				c0,0.7,0,1.5-0.2,2.4c-0.1,0.9-0.3,2-0.5,3.1c-0.3,1.1-0.6,2.3-0.9,3.6c-0.4,1.3-0.9,2.6-1.3,3.9c-0.6,1.3-1.1,2.7-1.7,4.1
				c-0.7,1.4-1.3,2.8-2,4.1s-1.4,2.7-2.2,4c-0.4,0.7-0.8,1.3-1.1,1.9c-0.4,0.6-0.8,1.2-1.2,1.9c-1.5,2.4-3.1,4.6-4.4,6.5
				C386.5,79,384.5,81.4,384.5,81.3L384.5,81.3z"/>
		</g>
		<g>
			<path class="st0" d="M390.7,81.4v6.9v3.4v1.7c0,0.6,0,1.2-0.1,1.7c0,0.6-0.2,1.1-0.4,1.7c-0.3,0.5-0.5,1-0.9,1.5
				c-0.2,0.2-0.4,0.5-0.6,0.6c-0.2,0.2-0.4,0.4-0.6,0.6l-0.7,0.5c-0.2,0.2-0.5,0.3-0.7,0.4c-0.5,0.3-1,0.5-1.5,0.8
				c-0.5,0.2-1.1,0.4-1.6,0.6c-1.1,0.3-2.2,0.6-3.4,0.8h0.1l-2.7,2.3c-0.9,0.8-1.7,1.6-2.5,2.5c-0.9,0.8-1.6,1.7-2.4,2.6l-1.2,1.3
				l-1.1,1.4c-0.7,0.9-1.5,1.8-2.2,2.8l-2.1,2.8l-2,2.9c-0.7,1-1.3,1.9-1.9,2.9s-1.3,1.9-1.9,2.9l-1.9,3c-1.2,2-2.4,4-3.6,6
				s-2.3,4.1-3.4,6.1c-1.1,2.1-2.2,4.1-3.2,6.2l0,0l0,0c-3.4,3.7-6.8,7.4-10.3,11v-0.1l-2.6,10.9l-2.6,10.9l0,0l2.4-10.9l2.4-10.9
				v-0.1l0,0c3.4-3.7,6.8-7.4,10.2-11.1v0.1c1-2.1,2.1-4.2,3.3-6.2c1.1-2.1,2.3-4.1,3.4-6.1c1.2-2,2.4-4,3.6-6l1.9-3
				c0.6-1,1.3-2,1.9-2.9c0.6-1,1.3-2,2-2.9l2-2.9l2.1-2.8c0.7-0.9,1.5-1.8,2.2-2.8l1.1-1.4l1.2-1.3c0.8-0.9,1.5-1.8,2.4-2.6
				c0.8-0.8,1.7-1.7,2.5-2.5l2.7-2.3l0,0l0,0c1.1-0.2,2.2-0.4,3.3-0.7c0.5-0.2,1.1-0.4,1.6-0.6c0.5-0.2,1-0.5,1.5-0.7
				c0.2-0.1,0.5-0.3,0.7-0.4l0.7-0.5c0.2-0.2,0.4-0.4,0.6-0.6c0.2-0.2,0.4-0.4,0.6-0.6c0.4-0.4,0.6-0.9,0.9-1.4
				c0.2-0.5,0.4-1.1,0.4-1.6c0.1-0.6,0.1-1.1,0.1-1.7v-1.7v-3.4L390.7,81.4L390.7,81.4z"/>
		</g>
		<g>
			<path class="st0" d="M147,217.2c-0.7,1.6-1.3,3.2-1.8,4.9c-0.5,1.6-1,3.3-1.2,5v0.1l0,0c-1.1,0.8-2.2,1.7-3.2,2.6
				c-0.5,0.5-1,1-1.5,1.4c-0.5,0.5-0.9,1-1.4,1.5s-0.9,1.1-1.3,1.6c-0.5,0.5-0.8,1.1-1.2,1.7c-0.4,0.5-0.8,1.1-1.1,1.7
				c-0.4,0.6-0.7,1.2-1,1.8s-0.7,1.2-1,1.8l-0.8,1.9c-0.3,0.6-0.4,1.3-0.7,2l-0.3,1l-0.2,1c-0.1,0.7-0.3,1.3-0.5,2l-0.3,2.1
				c0,0.3-0.1,0.7-0.1,1v1v2.1l0,0l-0.1-2.1v-1c0-0.3,0-0.7,0.1-1l0.2-2.1c0.1-0.7,0.3-1.4,0.4-2.1l0.2-1l0.3-1
				c0.2-0.7,0.4-1.3,0.7-2l0.8-1.9c0.3-0.6,0.6-1.2,1-1.9c0.3-0.6,0.7-1.2,1.1-1.8c0.4-0.6,0.8-1.2,1.2-1.7c0.4-0.6,0.8-1.1,1.3-1.7
				c0.5-0.5,0.9-1.1,1.4-1.6s1-1,1.5-1.5s1-1,1.5-1.4c1-0.9,2.1-1.8,3.3-2.6l-0.1,0.1c0.3-1.7,0.8-3.4,1.3-5
				C145.7,220.3,146.3,218.7,147,217.2L147,217.2z"/>
		</g>
		<g>
			<path class="st0" d="M129.1,248.6c-0.9,0.3-1.7,0.8-2.6,1.2c-0.4,0.3-0.8,0.5-1.2,0.8c-0.4,0.3-0.8,0.5-1.2,0.8
				c-0.4,0.3-0.8,0.6-1.1,0.9c-0.3,0.3-0.7,0.6-1,1l-1,1c-0.3,0.4-0.6,0.7-0.9,1.1c-0.3,0.4-0.6,0.8-0.8,1.2
				c-0.3,0.4-0.5,0.8-0.8,1.2l-0.7,1.3c-0.2,0.4-0.4,0.9-0.6,1.3c-0.2,0.4-0.4,0.9-0.5,1.3l-0.4,1.4c-0.2,0.4-0.2,0.9-0.3,1.4
				l-0.3,1.4l0,0l0,0c-0.5,1.7-0.8,3.5-1,5.3s-0.3,3.6-0.2,5.4c0.1,3.6,0.7,7.2,2,10.6c0.6,1.7,1.4,3.3,2.3,4.9c0.9,1.6,2,3,3.1,4.4
				c0.6,0.7,1.2,1.3,1.8,2c0.7,0.6,1.3,1.3,2,1.8c0.7,0.6,1.4,1.2,2.1,1.7c0.4,0.3,0.7,0.5,1.1,0.8l1.1,0.7c0.8,0.5,1.6,0.9,2.3,1.4
				c0.8,0.5,1.6,0.8,2.4,1.2c1.7,0.7,3.3,1.5,5,2.1l10.3,3.7l20.5,7.4l0,0c1.2,0.2,2.5,0.3,3.7,0.4c1.2,0.1,2.5,0.1,3.7,0.1
				c0.6,0,1.2,0,1.9-0.1c0.6,0,1.2-0.1,1.9-0.1c0.6-0.1,1.2-0.1,1.8-0.2l1.8-0.3l1.8-0.4c0.6-0.1,1.2-0.3,1.8-0.5s1.2-0.3,1.8-0.6
				c0.6-0.2,1.2-0.4,1.7-0.7l1.7-0.8c0.6-0.2,1.1-0.6,1.6-0.9c0.5-0.3,1.1-0.6,1.5-1l1.5-1.1l0,0c0.7-1,1.5-2,2.3-2.9
				c0.4-0.5,0.8-0.9,1.3-1.4c0.2-0.2,0.5-0.4,0.7-0.6c0.3-0.2,0.6-0.3,0.9-0.4c1.2-0.4,2.4-0.5,3.7-0.7c1.2-0.1,2.5-0.2,3.7-0.3l0,0
				c1.5-0.5,3-1.1,4.5-1.7c0.7-0.3,1.5-0.7,2.2-1.1c0.7-0.4,1.4-0.8,2.1-1.3c0.7-0.5,1.3-0.9,1.9-1.4c0.3-0.2,0.6-0.5,0.9-0.8
				c0.3-0.3,0.6-0.5,0.9-0.8l0.8-0.9c0.3-0.3,0.5-0.6,0.8-0.9c0.2-0.3,0.5-0.6,0.7-1l0.6-1l0,0l0.1-3.2h0.1v3.2l0,0l0,0l-0.6,1
				c-0.2,0.4-0.4,0.7-0.7,1s-0.5,0.7-0.8,1l-0.8,0.9c-0.3,0.3-0.6,0.6-0.9,0.8c-0.3,0.3-0.6,0.6-0.9,0.8c-0.3,0.3-0.6,0.5-1,0.8
				l-1,0.7c-0.7,0.4-1.4,0.9-2.1,1.3c-0.7,0.4-1.4,0.8-2.2,1.1c-1.5,0.7-3,1.3-4.5,1.8l0,0l0,0c-1.2,0.1-2.4,0.2-3.7,0.3
				c-1.2,0.1-2.4,0.3-3.6,0.7c-0.3,0.1-0.6,0.2-0.8,0.4c-0.2,0.1-0.5,0.4-0.7,0.6c-0.4,0.4-0.8,0.9-1.2,1.3
				c-0.8,0.9-1.5,1.9-2.2,2.9l0,0l0,0l-1.5,1.2c-0.5,0.4-1,0.7-1.6,1.1c-0.5,0.3-1.1,0.7-1.6,0.9l-1.7,0.8c-0.6,0.3-1.2,0.4-1.8,0.7
				c-0.6,0.2-1.2,0.4-1.8,0.6c-0.6,0.2-1.2,0.4-1.8,0.5l-1.8,0.4l-1.9,0.3c-0.6,0.1-1.2,0.1-1.9,0.2c-0.6,0.1-1.2,0.1-1.9,0.1
				c-0.6,0-1.3,0.1-1.9,0.1c-1.3,0-2.5,0-3.8-0.1s-2.5-0.2-3.7-0.4l0,0l0,0l-20.5-7.4l-10.2-3.7c-1.7-0.6-3.4-1.4-5-2.1
				c-0.8-0.4-1.7-0.7-2.5-1.2c-0.8-0.4-1.6-0.9-2.4-1.4l-1.2-0.7c-0.4-0.3-0.7-0.5-1.1-0.8c-0.8-0.5-1.5-1.1-2.1-1.7
				c-0.7-0.6-1.3-1.2-2-1.8c-0.6-0.7-1.3-1.3-1.8-2c-1.2-1.4-2.2-2.9-3.1-4.5s-1.7-3.2-2.3-5c-1.2-3.4-1.9-7.1-1.9-10.7
				c0-1.8,0-3.6,0.2-5.5c0.2-1.8,0.5-3.6,1-5.4l0,0l0.3-1.4c0.1-0.5,0.2-0.9,0.4-1.4l0.5-1.4c0.1-0.5,0.3-0.9,0.5-1.3
				c0.2-0.4,0.4-0.9,0.6-1.3l0.7-1.3c0.2-0.4,0.5-0.8,0.8-1.2s0.5-0.8,0.8-1.2s0.6-0.7,0.9-1.1l1-1c0.3-0.3,0.7-0.6,1.1-1
				c0.3-0.3,0.7-0.6,1.1-0.9c0.4-0.3,0.8-0.6,1.2-0.8c0.4-0.3,0.8-0.5,1.2-0.8C127.3,249.3,128.2,248.9,129.1,248.6L129.1,248.6z"/>
		</g>
		<g>
			<path class="st0" d="M125.2,257.6l23.6-11.7l11.8-5.9l11.8-5.9l0,0c1.2-0.7,2.3-1.4,3.5-2c0.6-0.3,1.2-0.6,1.8-0.9
				c0.6-0.3,1.2-0.6,1.9-0.8c0.3-0.1,0.7-0.1,1-0.2c0.3,0,0.7-0.1,1-0.1c0.7,0,1.4,0,2,0c1.3,0,2.7,0.1,4,0.2l0,0h14.3
				c2.4,0.1,4.8,0.2,7.1,0.1c1.2,0,2.4,0,3.5-0.1c1.2-0.1,2.3-0.4,3.5-0.6c2.3-0.5,4.7-1,7.1-1.2c0.6,0,1.2,0,1.8,0.1s1.3,0.3,1.7,1
				c0.2,0.3,0.2,0.7,0.1,1c-0.1,0.3-0.2,0.6-0.3,0.9c-0.2,0.6-0.5,1.1-0.7,1.7c-0.6,1.1-1.3,2.1-2.1,2.9c-0.8,0.9-1.8,1.6-2.8,2.3
				c-0.5,0.3-1.1,0.6-1.6,0.9c-0.6,0.2-1.1,0.5-1.7,0.6c-0.6,0.2-1.2,0.3-1.7,0.5l-1.8,0.3h0.1c-4.2,1.8-8.4,3.4-12.7,4.9
				c-2.2,0.7-4.3,1.4-6.5,2l-1.7,0.4l-1.7,0.4c-0.6,0.1-1.1,0.2-1.7,0.3c-0.6,0.1-1.1,0.1-1.7,0.1l0.1-0.1c-1.6,1.9-3.4,3.4-5.5,4.7
				c-0.5,0.3-1.1,0.6-1.6,0.8c-0.3,0.1-0.6,0.2-0.8,0.3c-0.3,0.1-0.6,0.2-0.9,0.3c-0.6,0.2-1.2,0.3-1.8,0.4
				c-0.6,0.1-1.2,0.1-1.8,0.2v-0.1c0.6-0.1,1.2-0.1,1.8-0.2c0.6-0.1,1.2-0.3,1.7-0.4c0.3-0.1,0.6-0.2,0.8-0.3
				c0.3-0.1,0.6-0.2,0.8-0.4c0.5-0.3,1.1-0.5,1.6-0.8c0.3-0.1,0.5-0.3,0.8-0.5s0.5-0.3,0.7-0.5c0.5-0.3,0.9-0.7,1.4-1.1
				c0.9-0.8,1.7-1.6,2.5-2.5l0,0h0.1c0.6,0,1.1-0.1,1.7-0.1c0.6-0.1,1.1-0.2,1.7-0.3l1.7-0.4l1.6-0.4c2.2-0.6,4.3-1.3,6.5-2.1
				c4.3-1.5,8.5-3.2,12.7-5l0,0l0,0l1.7-0.3c0.6-0.1,1.1-0.3,1.7-0.4c0.6-0.2,1.1-0.4,1.6-0.6c0.5-0.3,1.1-0.5,1.5-0.8
				c1-0.6,1.9-1.4,2.7-2.2c0.8-0.9,1.5-1.8,2-2.8c0.3-0.5,0.5-1,0.7-1.6c0.1-0.3,0.2-0.5,0.3-0.8c0-0.2,0-0.5-0.1-0.7
				c-0.2-0.4-0.8-0.6-1.3-0.7c-0.6-0.1-1.1-0.1-1.7-0.1c-2.3,0.1-4.7,0.7-7,1.1c-1.2,0.2-2.3,0.5-3.5,0.6s-2.4,0.1-3.6,0.1
				c-2.4,0-4.8-0.1-7.1-0.2h-14.3l0,0l0,0c-1.3-0.1-2.7-0.2-4-0.2c-0.7,0-1.3,0-2,0c-0.3,0-0.7,0-1,0.1c-0.3,0-0.7,0.1-1,0.2
				c-0.6,0.2-1.2,0.5-1.8,0.7c-0.6,0.3-1.2,0.6-1.8,0.9c-1.2,0.6-2.4,1.3-3.5,2l0,0l0,0l-11.8,5.9l-11.8,5.8L125.2,257.6
				L125.2,257.6z"/>
		</g>
		<g>
			<path class="st0" d="M180.6,254.3c1.3,0.1,2.7,0.5,3.9,1c0.6,0.3,1.2,0.6,1.8,0.9c0.3,0.2,0.6,0.4,0.8,0.6
				c0.3,0.2,0.5,0.5,0.7,0.8l0,0l5.8,4.1l0,0l5.8,3.3h-0.1l25.1-0.1l0,0c1.1-0.2,2.1-0.3,3.2-0.3c0.5,0,1.1,0.1,1.6,0.1l0.8,0.2
				c0.3,0.1,0.5,0.2,0.8,0.3s0.5,0.2,0.7,0.4c0.3,0.1,0.5,0.3,0.7,0.5l0.3,0.3c0.1,0.1,0.2,0.2,0.3,0.3c0.2,0.2,0.4,0.4,0.5,0.7
				l0.4,0.7l0.2,0.8c0.1,0.3,0.1,0.5,0.1,0.8l0.1,0.8l0,0c0,0.5,0,0.9-0.1,1.4s-0.2,0.9-0.4,1.3c-0.1,0.2-0.2,0.4-0.3,0.6
				c-0.1,0.2-0.2,0.4-0.4,0.6c-0.2,0.2-0.3,0.4-0.5,0.5l-0.5,0.5l-0.6,0.4c-0.2,0.1-0.4,0.2-0.6,0.3c-0.2,0.1-0.4,0.2-0.6,0.3
				l-0.7,0.2c-0.2,0.1-0.5,0.1-0.7,0.1l-0.7,0.1l-1.4,0.1l0,0c-6.5,0.8-13,1.6-19.5,2.3l0,0c6.5-0.9,12.9-1.8,19.4-2.7l0,0l0,0
				l1.3-0.1l0.6-0.1c0.2,0,0.4-0.1,0.6-0.1l0.6-0.2c0.2,0,0.4-0.2,0.6-0.2c0.2-0.1,0.4-0.2,0.6-0.3l0.5-0.4l0.5-0.4
				c0.2-0.1,0.3-0.3,0.4-0.5c0.1-0.2,0.2-0.4,0.4-0.5c0.1-0.2,0.2-0.4,0.3-0.6c0.2-0.4,0.3-0.8,0.4-1.2c0.1-0.4,0.1-0.9,0.1-1.3l0,0
				l0,0l-0.1-0.8c0-0.3,0-0.5-0.1-0.8l-0.2-0.7l-0.3-0.7c-0.1-0.2-0.3-0.4-0.4-0.6c-0.1-0.1-0.2-0.2-0.2-0.3l-0.3-0.2
				c-0.2-0.2-0.4-0.3-0.6-0.4c-0.2-0.1-0.4-0.3-0.7-0.3c-0.2-0.1-0.5-0.2-0.7-0.3l-0.8-0.2c-0.5-0.1-1-0.1-1.5-0.2
				c-1,0-2.1,0-3.1,0.2l0,0l0,0l-25.1-0.1l0,0l0,0l-5.7-3.3l0,0l0,0l-5.7-4.1l0,0l0,0c-0.2-0.3-0.4-0.5-0.7-0.7
				c-0.2-0.2-0.5-0.4-0.8-0.6c-0.6-0.4-1.2-0.7-1.8-0.9C183.2,254.8,181.9,254.5,180.6,254.3L180.6,254.3z"/>
		</g>
		<g>
			<path class="st0" d="M234.2,281.1c0.2,0.1,0.4,0.2,0.6,0.4c0.2,0.2,0.3,0.4,0.3,0.6c0.1,0.5,0,0.9-0.1,1.4
				c-0.3,0.9-0.9,1.6-1.4,2.4c-1.1,1.4-2.4,2.7-3.8,4l0,0c-0.5,0.6-1,1.3-1.5,1.8l-0.8,0.8c-0.3,0.3-0.6,0.5-0.9,0.8
				c-0.6,0.5-1.3,0.9-1.9,1.4c-0.7,0.4-1.4,0.8-2.1,1.1c-0.7,0.4-1.5,0.6-2.2,0.9c-0.8,0.3-1.5,0.5-2.3,0.7
				c-1.5,0.4-3.1,0.7-4.7,0.8c-0.8,0-1.6,0-2.4,0h-2.4c-1.6,0-3.2,0-4.7,0l-4.7-0.1c-1.6,0-3.2-0.1-4.7-0.1v-0.1
				c1.6,0,3.2-0.1,4.7-0.1l4.7-0.1c1.6,0,3.2,0,4.7,0h2.4c0.8,0,1.6,0,2.4,0c1.6-0.1,3.1-0.3,4.6-0.7c0.8-0.2,1.5-0.4,2.3-0.7
				c0.7-0.3,1.5-0.5,2.2-0.9c0.7-0.3,1.4-0.7,2.1-1.1c0.6-0.4,1.3-0.8,1.9-1.4c0.3-0.2,0.6-0.5,0.9-0.7l0.8-0.8
				c0.6-0.5,1-1.2,1.6-1.8l0,0l0,0c1.4-1.2,2.7-2.5,3.9-3.9c0.6-0.7,1.1-1.5,1.4-2.3c0.2-0.4,0.3-0.9,0.1-1.3c0-0.2-0.2-0.4-0.3-0.6
				C234.6,281.4,234.4,281.3,234.2,281.1L234.2,281.1z"/>
		</g>
		<g>
			<path class="st0" d="M257.4,363.3c3.5,1.6,7.1,2.9,10.8,4c1.9,0.5,3.7,1,5.6,1.4l1.4,0.3c0.5,0.1,1,0.1,1.4,0.2
				c1,0.2,1.9,0.2,2.9,0.3l0,0l0,0c2,0.9,4.1,1.7,6.2,2.5s4.2,1.5,6.3,2.3c1.1,0.4,2.1,0.7,3.2,1s2.1,0.7,3.2,1l3.2,0.9l3.2,0.9
				c1.1,0.3,2.2,0.6,3.3,0.8c1.1,0.3,2.2,0.6,3.3,0.8c2.2,0.5,4.4,1,6.6,1.4c1.1,0.2,2.2,0.5,3.3,0.6l3.3,0.6c2.2,0.4,4.4,0.7,6.6,1
				l-0.1,0.1c0.3-1.5,0.7-2.9,1.1-4.4s0.8-2.9,1.3-4.3c0.2-0.7,0.5-1.4,0.7-2.1c0.3-0.7,0.5-1.4,0.8-2.1l0.9-2.1l0.9-2.1
				c0.3-0.7,0.7-1.3,1-2s0.7-1.3,1.1-2c0.4-0.6,0.8-1.3,1.2-1.9l1.3-1.9c0.4-0.6,0.9-1.2,1.4-1.8c0.2-0.3,0.5-0.6,0.7-0.9l0.8-0.8
				c0.5-0.5,1-1.1,1.6-1.6l1.8-1.4v0.2L303,307.9l0,0c-0.6-0.4-1.2-0.9-1.8-1.3l-0.9-0.6l-1-0.5c-0.6-0.4-1.3-0.6-2-0.9
				c-0.7-0.3-1.4-0.5-2.1-0.7s-1.4-0.4-2.2-0.6c-0.7-0.1-1.5-0.3-2.2-0.3c-0.7-0.1-1.5-0.1-2.2-0.2c-0.7,0-1.5,0-2.2,0
				c-3,0.1-5.9,0.7-8.8,1.6c-2.8,0.9-5.6,2.1-8.2,3.5l0,0l-1.6,0.9c-0.5,0.4-1,0.7-1.4,1.1c-0.4,0.4-0.9,0.9-1.3,1.3l-1.1,1.4
				l-1,1.5c-0.3,0.5-0.6,1.1-0.9,1.6c-0.5,1.1-1,2.2-1.4,3.4c-0.2,0.6-0.4,1.2-0.6,1.7c-0.2,0.6-0.4,1.2-0.5,1.8l-0.5,1.8l-0.4,1.8
				c-0.2,1.2-0.5,2.4-0.6,3.6c-0.2,1.2-0.3,2.4-0.5,3.7c-0.5,4.9-0.7,9.8-0.6,14.8c0.1,4.9,0.3,9.9,0.8,14.8v0.1l-0.1,0.1
				c-0.4,0.3-0.8,0.8-1.3,1c-0.5,0.3-0.9,0.6-1.4,0.9c-0.9,0.6-1.9,1.1-2.9,1.6s-2,0.9-3,1.4c-1,0.4-2,0.8-3,1.3
				c-4,1.6-8.1,3.1-12.2,4.4l0,0l-4.6,2.3l-2.3,1.1c-0.8,0.4-1.6,0.7-2.4,1l-4.8,1.9c-1.6,0.6-3.3,1-4.9,1.6l-2.5,0.8l-2.5,0.6
				l-2.5,0.6l-1.3,0.3c-0.4,0.1-0.8,0.1-1.3,0.2l-5.1,0.7l-5.1,0.3c-3.4,0-6.9,0-10.3-0.5c-1.7-0.1-3.4-0.5-5.1-0.7
				c-1.7-0.2-3.4-0.7-5-1c-3.3-0.8-6.6-1.8-9.9-2.8c-3.2-1.1-6.5-2.2-9.7-3.4c-1.6-0.6-3.2-1.2-4.8-1.7c-1.6-0.6-3.2-1.1-4.8-1.7
				c-3.2-1.4-5.8-3.8-7.8-6.6s-3.5-5.9-4.5-9.2s-1.6-6.7-1.7-10.1c-0.1-1.7,0-3.4,0.3-5.1c0.1-0.8,0.3-1.7,0.6-2.5s0.7-1.6,1.1-2.3
				c1.6-3,3-6.1,4-9.4c0.2-0.8,0.5-1.6,0.6-2.5c0.1-0.8,0.2-1.7,0.2-2.5c0.1-1.7,0.1-3.4,0.1-5.1c0-3.4-0.1-6.8-0.3-10.2l0,0
				c0.2,3.4,0.3,6.8,0.3,10.2c0,1.7,0,3.4-0.1,5.1c0,0.9-0.1,1.7-0.2,2.6c-0.1,0.8-0.3,1.7-0.6,2.5c-1,3.3-2.4,6.4-4,9.4
				c-0.4,0.8-0.9,1.5-1.1,2.3c-0.3,0.8-0.5,1.6-0.6,2.5c-0.3,1.7-0.3,3.4-0.3,5.1c0.1,3.4,0.7,6.8,1.7,10s2.5,6.4,4.5,9.1
				c2,2.7,4.6,5.1,7.7,6.4c1.6,0.7,3.2,1.2,4.8,1.7c1.6,0.6,3.2,1.1,4.8,1.7c3.2,1.2,6.4,2.3,9.7,3.4c3.2,1,6.5,2,9.8,2.8
				c1.7,0.4,3.3,0.8,5,1c1.7,0.3,3.4,0.6,5.1,0.7c3.4,0.4,6.8,0.5,10.2,0.4l5.1-0.3l5.1-0.7c0.4-0.1,0.8-0.1,1.3-0.2l1.2-0.3
				l2.5-0.6l2.5-0.6l2.4-0.8c1.6-0.5,3.3-1,4.9-1.6l4.7-1.9c0.8-0.3,1.6-0.6,2.4-1l2.3-1.1l4.6-2.3l0,0l0,0
				c4.1-1.3,8.2-2.8,12.2-4.4c1-0.4,2-0.8,3-1.3c1-0.4,2-0.9,2.9-1.4c1-0.5,1.9-1,2.8-1.5c0.5-0.3,0.9-0.6,1.3-0.9
				c0.5-0.3,0.8-0.7,1.2-1l-0.1,0.2c-0.5-4.9-0.8-9.9-0.8-14.8c0-4.9,0.1-9.9,0.7-14.8c0.1-1.2,0.3-2.5,0.5-3.7s0.4-2.4,0.6-3.7
				l0.4-1.8l0.5-1.8c0.1-0.6,0.4-1.2,0.5-1.8c0.2-0.6,0.4-1.2,0.6-1.8c0.4-1.2,0.9-2.3,1.5-3.4c0.3-0.5,0.6-1.1,0.9-1.6l1-1.6
				l1.2-1.5c0.4-0.5,0.9-0.9,1.3-1.3c0.5-0.4,1-0.8,1.5-1.2l1.6-1l0,0c2.6-1.5,5.4-2.7,8.3-3.6c2.9-0.9,5.9-1.5,8.9-1.6
				c0.8,0,1.5,0,2.3,0s1.5,0.1,2.3,0.2c0.8,0.1,1.5,0.2,2.2,0.3c0.7,0.2,1.5,0.3,2.2,0.6c0.7,0.2,1.4,0.5,2.1,0.7
				c0.7,0.3,1.4,0.6,2.1,1l1,0.5l1,0.6c0.6,0.4,1.2,0.9,1.8,1.3l0,0l0,0l45,44.4l0.1,0.1l-0.1,0.1l-1.8,1.4c-0.6,0.4-1.1,1-1.6,1.5
				l-0.8,0.8c-0.3,0.3-0.5,0.6-0.7,0.9c-0.5,0.6-1,1.1-1.4,1.8l-1.3,1.8c-0.4,0.6-0.8,1.3-1.2,1.9c-0.4,0.6-0.8,1.3-1.1,2
				c-0.3,0.7-0.7,1.3-1,2l-0.9,2l-0.9,2.1c-0.3,0.7-0.5,1.4-0.8,2.1c-0.3,0.7-0.5,1.4-0.7,2.1c-0.5,1.4-0.9,2.9-1.3,4.3
				c-0.4,1.4-0.8,2.9-1.1,4.4v0.1h-0.1c-2.2-0.3-4.4-0.6-6.7-1l-3.3-0.6c-1.1-0.2-2.2-0.4-3.3-0.6c-2.2-0.4-4.4-0.9-6.6-1.4
				c-1.1-0.2-2.2-0.5-3.3-0.8c-1.1-0.3-2.2-0.5-3.3-0.8l-3.2-0.9l-3.2-0.9c-1.1-0.3-2.1-0.7-3.2-1s-2.1-0.7-3.2-1
				c-2.1-0.7-4.2-1.5-6.3-2.3c-2.1-0.8-4.2-1.6-6.2-2.5l0,0c-1-0.1-1.9-0.1-2.9-0.3c-0.5-0.1-1-0.1-1.4-0.2l-1.4-0.3
				c-1.9-0.4-3.8-0.8-5.6-1.4C264.6,366.3,260.9,365,257.4,363.3L257.4,363.3z"/>
		</g>
		<g>
			<path class="st0" d="M348.1,352.2c1.2-0.5,2.5-0.9,3.8-1.2c0.6-0.1,1.3-0.2,2-0.3c0.3-0.1,0.7-0.1,1-0.1s0.7-0.1,1,0
				c0.7,0,1.3,0,2,0.1c0.3,0,0.7,0.1,1,0.1s0.7,0.1,1,0.2l1,0.2l0.9,0.3c0.6,0.2,1.2,0.5,1.8,0.8l0,0l0,0l5.9,4.9l0,0l0,0l3.4,4.9
				h-0.1c3.3-0.1,6.7-0.8,9.6-2.2c1.5-0.8,2.8-1.7,4-3c0.6-0.6,1-1.3,1.6-1.9c0.5-0.7,1.1-1.3,1.6-1.9c2.2-2.5,4.5-5,7-7.2
				s5.1-4.3,8.1-6c2.9-1.6,6.2-2.9,9.6-2.5c3.3,0.4,6.6,1.4,9.6,2.8c3,1.5,5.8,3.6,7.6,6.5c1.8,2.9,2.5,6.4,2.1,9.7
				c-0.3,3.4-1.4,6.6-2.9,9.6c-1.4,3-3.1,5.9-4.8,8.8c-3.5,5.7-7.3,11.2-11.4,16.5s-8.4,10.4-13.2,15.1c-2.4,2.3-4.9,4.6-7.6,6.6
				c-1.4,1-2.8,1.9-4.3,2.7s-3.1,1.4-4.8,1.7l0,0l0,0c-2.2,0-4.5-0.2-6.7-0.4c-1.1-0.1-2.2-0.3-3.3-0.5c-1.1-0.2-2.2-0.4-3.3-0.6
				c-1.1-0.2-2.2-0.5-3.2-0.8c-1.1-0.3-2.1-0.7-3.2-1.1c-1-0.4-2-0.9-3-1.5c-0.5-0.3-1-0.6-1.4-0.9c-0.4-0.3-0.9-0.6-1.3-1
				s-0.9-0.7-1.2-1.2l-0.6-0.6l-0.5-0.7c-0.7-0.9-1.1-2-1.5-3c-0.1-0.6-0.3-1.1-0.3-1.7c0-0.6-0.1-1.1-0.1-1.7
				c0-1.1,0.2-2.2,0.5-3.3l0.5-1.6c0.2-0.5,0.5-1,0.7-1.5c0.5-1,1.1-1.9,1.7-2.9c1.2-1.9,2.5-3.7,3.8-5.5l0,0
				c-1.3,1.8-2.5,3.6-3.7,5.5c-0.6,0.9-1.2,1.9-1.7,2.9c-0.3,0.5-0.5,1-0.7,1.5l-0.5,1.6c-0.3,1.1-0.5,2.2-0.5,3.3
				c-0.1,0.5,0,1.1,0.1,1.6s0.2,1.1,0.3,1.6c0.3,1,0.8,2.1,1.4,2.9l0.5,0.7l0.6,0.6c0.4,0.4,0.8,0.8,1.2,1.1c0.4,0.4,0.9,0.7,1.3,1
				c0.5,0.3,0.9,0.6,1.4,0.9c1,0.5,2,1,3,1.4s2.1,0.8,3.1,1.1c1.1,0.3,2.1,0.6,3.2,0.8s2.2,0.4,3.3,0.6c1.1,0.2,2.2,0.3,3.3,0.4
				c2.2,0.2,4.4,0.4,6.6,0.4l0,0c1.6-0.2,3.2-0.9,4.6-1.6c1.5-0.7,2.9-1.7,4.2-2.6c2.7-2,5.2-4.2,7.5-6.5c4.7-4.7,9.1-9.8,13.2-15.1
				s7.9-10.8,11.4-16.4c1.7-2.8,3.4-5.7,4.8-8.7s2.5-6.2,2.9-9.5s-0.2-6.7-2-9.5c-1.7-2.8-4.5-4.9-7.4-6.4c-3-1.4-6.2-2.5-9.5-2.8
				s-6.6,0.9-9.5,2.5s-5.6,3.7-8,5.9c-2.5,2.2-4.8,4.6-7,7.2c-0.5,0.6-1.1,1.3-1.6,1.9c-0.5,0.6-1,1.3-1.6,1.9c-1.1,1.2-2.5,2.2-4,3
				c-3,1.5-6.4,2.2-9.7,2.2l0,0l0,0l-3.4-4.9l0,0l-5.9-4.9l0,0c-0.6-0.2-1.2-0.6-1.8-0.8l-0.9-0.3l-1-0.2c-0.3-0.1-0.6-0.1-1-0.2
				c-0.3,0-0.7-0.1-1-0.1c-0.7,0-1.3-0.1-2-0.1c-0.3,0-0.7,0-1,0s-0.7,0-1,0.1c-0.7,0.1-1.3,0.2-2,0.3
				C350.6,351.4,349.3,351.7,348.1,352.2L348.1,352.2z"/>
		</g>
		<g>
			<path class="st0" d="M331.5,383.4c0,0,0.3,0.5,0.8,1.2c0.5,0.8,1.3,1.8,2.4,3.1c1,1.2,2.3,2.6,3.7,4.1c1.4,1.4,2.9,2.9,4.5,4.3
				c0.8,0.7,1.6,1.4,2.4,2.1c0.8,0.7,1.6,1.3,2.4,2c0.8,0.6,1.6,1.2,2.3,1.8c0.7,0.6,1.4,1.1,2.1,1.6c0.6,0.5,1.2,0.9,1.8,1.3
				c0.5,0.4,1,0.7,1.4,1c0.8,0.6,1.2,0.9,1.2,0.9l0,0c0,0-0.5-0.3-1.3-0.8s-1.9-1.2-3.3-2.1c-0.7-0.5-1.4-0.9-2.1-1.5
				c-0.7-0.5-1.5-1.2-2.3-1.8c-1.6-1.3-3.2-2.7-4.8-4.1c-1.6-1.5-3.1-3-4.4-4.4c-1.4-1.5-2.6-2.9-3.6-4.2s-1.8-2.3-2.3-3.1
				C331.7,383.9,331.4,383.4,331.5,383.4L331.5,383.4z"/>
		</g>
		<g>
			<path class="st0" d="M378.9,416.8c0,0,0.8-0.6,2-1.8c1.3-1.1,3.1-2.8,5.2-4.9c1-1.1,2.2-2.2,3.3-3.4c1.2-1.2,2.4-2.5,3.6-3.9
				c2.5-2.7,5.1-5.7,7.6-8.7c1.2-1.5,2.5-3.1,3.7-4.6s2.4-3,3.5-4.5s2.2-2.9,3.2-4.3c1-1.3,1.9-2.7,2.8-3.8c0.9-1.2,1.7-2.3,2.3-3.3
				c0.7-1,1.3-1.8,1.8-2.6c1-1.4,1.6-2.2,1.6-2.2l0,0c0,0-0.5,0.8-1.5,2.3c-0.5,0.7-1,1.6-1.7,2.6c-0.6,1-1.4,2.1-2.3,3.3
				s-1.7,2.5-2.7,3.9s-2.1,2.8-3.2,4.3s-2.3,3-3.5,4.5s-2.5,3-3.8,4.5c-2.6,3-5.2,6-7.7,8.7c-1.3,1.4-2.5,2.6-3.7,3.8
				s-2.3,2.3-3.4,3.4c-2.1,2-4,3.7-5.3,4.8C379.7,416.2,378.9,416.8,378.9,416.8L378.9,416.8z"/>
		</g>
		<g>
			<path class="st0" d="M333,337.3c-0.1-1.9-0.1-3.7-0.1-5.6c0.1-1.9,0.2-3.7,0.4-5.6c0.1-0.9,0.3-1.9,0.4-2.8
				c0.2-0.9,0.4-1.8,0.6-2.8c0.2-0.9,0.5-1.8,0.8-2.7s0.6-1.8,1-2.6l0.6-1.3l0.6-1.3c0.5-0.8,0.9-1.6,1.5-2.4
				c0.3-0.4,0.5-0.8,0.8-1.1c0.3-0.4,0.6-0.7,0.9-1.1c0.3-0.3,0.6-0.7,1-1l1.1-0.9c0.8-0.6,1.5-1.1,2.4-1.5c0.4-0.2,0.8-0.5,1.3-0.6
				c0.4-0.2,0.9-0.4,1.3-0.5l1.4-0.4c0.5-0.1,0.9-0.2,1.4-0.3c0.9-0.2,1.9-0.2,2.8-0.3l0,0c1.4-0.5,2.9-0.8,4.4-1s3-0.4,4.5-0.5
				c3-0.2,6,0,8.9,0.6c1.5,0.3,2.9,0.7,4.3,1.2s2.8,1.1,4.1,1.8c0.7,0.3,1.3,0.7,2,1.1c0.7,0.4,1.3,0.8,1.9,1.2s1.2,0.9,1.8,1.4
				c0.6,0.5,1.1,1,1.7,1.5l1.6,1.6c0.5,0.6,1,1.1,1.5,1.7l1.4,1.8l1.3,1.8l5.1,7.3l5.1,7.3l5.1,7.3l0,0l-5.3-7.2l-5.2-7.2l-5.2-7.2
				l-1.3-1.8l-1.4-1.7c-0.5-0.6-1-1.1-1.5-1.7l-1.6-1.6c-0.6-0.5-1.1-1-1.7-1.5c-0.6-0.4-1.1-0.9-1.8-1.3c-1.2-0.9-2.5-1.6-3.8-2.3
				s-2.7-1.3-4.1-1.8s-2.8-0.9-4.3-1.2c-2.9-0.6-5.9-0.8-8.8-0.6c-1.5,0.1-3,0.2-4.4,0.5c-1.5,0.2-2.9,0.6-4.3,1l0,0l0,0
				c-0.9,0.1-1.9,0.1-2.8,0.3c-0.5,0.1-0.9,0.2-1.4,0.3l-1.3,0.4c-0.4,0.1-0.9,0.3-1.3,0.5s-0.8,0.4-1.3,0.6c-0.8,0.4-1.6,1-2.3,1.5
				l-1.1,0.9c-0.3,0.3-0.7,0.7-1,1s-0.6,0.7-0.9,1.1c-0.3,0.4-0.6,0.7-0.8,1.1c-0.6,0.7-1,1.6-1.5,2.4l-0.6,1.2l-0.6,1.3
				c-0.4,0.9-0.7,1.7-1,2.6c-0.3,0.9-0.5,1.8-0.8,2.7c-0.2,0.9-0.4,1.8-0.6,2.7s-0.3,1.8-0.4,2.8c-0.2,1.9-0.4,3.7-0.5,5.6
				C332.9,333.6,332.9,335.4,333,337.3L333,337.3z"/>
		</g>
		<g>
			<path class="st0" d="M430.4,345.5c2-1.8,4.1-3.4,6.4-4.8c2.3-1.4,4.7-2.6,7.2-3.5s5.2-1.5,7.9-1.5c2.7,0,5.4,0.6,7.8,1.7
				c2.4,1.1,4.7,2.6,6.8,4.3c2.1,1.7,3.8,3.8,5.1,6.1c0.7,1.2,1.3,2.4,1.6,3.7c0.3,1.3,0.4,2.7,0.1,4c-0.1,0.7-0.4,1.3-0.7,1.9
				l-0.8,1.8c-0.6,1.2-1.2,2.4-1.9,3.6c-0.7,1.1-1.4,2.3-2.1,3.4c-0.8,1.1-1.5,2.2-2.3,3.3c-0.8,1-1.6,2.1-2.5,3.1s-1.8,2-2.7,3
				l-2.8,2.9l-2.9,2.7c-2,1.7-4.1,3.5-6.2,5c-0.5,0.4-1.1,0.8-1.6,1.2l-1.7,1.1c-1.1,0.7-2.2,1.5-3.4,2.2c-1.2,0.7-2.3,1.4-3.5,2
				l-3.6,1.9c-1.2,0.6-2.4,1.1-3.6,1.7c-1.2,0.6-2.5,1-3.7,1.5c-2.5,1-5,1.8-7.6,2.6l0,0l0,0c-1.9-0.2-3.9-0.5-5.8-0.9
				c-0.9-0.2-1.9-0.4-2.8-0.7c-0.5-0.2-0.9-0.3-1.3-0.6c-0.2-0.1-0.4-0.3-0.5-0.5s0-0.5,0.1-0.7l0,0c-0.1,0.2-0.2,0.4-0.1,0.6
				c0.1,0.2,0.3,0.4,0.5,0.5c0.4,0.3,0.9,0.4,1.3,0.6c0.9,0.3,1.9,0.5,2.8,0.7c1.9,0.3,3.8,0.6,5.8,0.8l0,0c2.5-0.9,5.1-1.6,7.5-2.7
				c1.2-0.5,2.5-1,3.7-1.6s2.4-1.1,3.6-1.7l3.5-1.9c1.2-0.6,2.3-1.4,3.4-2c1.2-0.7,2.2-1.4,3.3-2.2l1.7-1.1c0.5-0.4,1.1-0.8,1.6-1.2
				c2.2-1.6,4.2-3.3,6.2-5l2.9-2.7l2.8-2.8c0.9-1,1.8-2,2.7-3c0.9-1,1.7-2.1,2.5-3.1c0.8-1.1,1.5-2.2,2.3-3.2
				c0.7-1.1,1.4-2.2,2.1-3.4c0.6-1.2,1.3-2.3,1.9-3.5l0.8-1.8c0.3-0.6,0.5-1.2,0.7-1.8c0.3-1.3,0.3-2.6-0.1-3.9
				c-0.3-1.3-0.9-2.5-1.6-3.6c-1.3-2.3-3-4.4-5-6.1c-2-1.7-4.3-3.2-6.7-4.3c-2.4-1.2-5-1.8-7.7-1.8s-5.3,0.5-7.8,1.4
				s-4.9,2.1-7.2,3.5C434.6,342.1,432.4,343.7,430.4,345.5L430.4,345.5z"/>
		</g>
		<g>
			<path class="st0" d="M470.2,346.1c0,0-1.3,2.5-3.6,6.1c-0.6,0.9-1.2,1.9-1.9,2.9c-0.7,1-1.4,2.1-2.2,3.1
				c-0.8,1.1-1.7,2.1-2.5,3.2c-0.9,1.1-1.9,2.1-2.8,3.2c-1,1-2,2-3,3c-1,0.9-2,1.9-3.1,2.7s-2,1.6-3.1,2.3c-1,0.6-2,1.3-2.9,1.8
				c-1,0.5-1.8,0.9-2.6,1.3c-0.8,0.4-1.5,0.6-2.1,0.8c-1.2,0.4-1.8,0.6-1.8,0.6l0,0c0,0,0.7-0.3,1.8-0.8c0.3-0.1,0.6-0.3,0.9-0.4
				c0.3-0.1,0.7-0.3,1.1-0.5c0.8-0.4,1.6-0.9,2.5-1.4s1.8-1.2,2.8-1.9s2-1.5,3-2.3s2-1.8,3.1-2.7c1-1,2-1.9,3-3
				c0.9-1.1,1.9-2.1,2.8-3.1c0.9-1.1,1.8-2.1,2.6-3.2c0.8-1,1.6-2.1,2.3-3.1c0.7-1,1.3-1.9,2-2.8
				C468.8,348.6,470.2,346.1,470.2,346.1L470.2,346.1z"/>
		</g>
		<g>
			<path class="st0" d="M297.4,304.5c-0.6-0.8-1.3-1.6-2-2.2c-0.4-0.3-0.8-0.6-1.2-0.9c-0.4-0.3-0.8-0.6-1.3-0.8
				c-0.9-0.5-1.7-1-2.7-1.4c-0.5-0.2-0.9-0.4-1.4-0.6l-1.4-0.5c-0.9-0.4-1.9-0.6-2.9-0.9c-1-0.3-2-0.4-2.9-0.6c-1-0.2-2-0.3-3-0.5
				s-2-0.2-3-0.3s-2-0.2-3-0.2h-3l-3,0.1c-1,0-2,0.1-3,0.1c-2,0.2-4,0.5-5.9,1c-0.9,0.3-1.9,0.7-2.7,1.2s-1.6,1.2-2,2v0.1l0,0
				l-11.2,7.1l0,0l0,0c-3.4,1.5-6.8,3-10.2,4.5h0.1l-9.9,8.2l0,0l-4.6,6.1l0,0l4.4-6.2l0,0l0,0l9.8-8.3l0,0l0,0
				c3.4-1.5,6.8-3,10.2-4.5l0,0l11.2-7.1l-0.1,0.1c0.5-1,1.3-1.7,2.2-2.2c0.9-0.6,1.9-0.9,2.8-1.2c2-0.6,4-0.9,6-1
				c1-0.1,2-0.1,3-0.1l3-0.1l3,0.1c1,0,2,0.1,3,0.2c1,0.1,2,0.1,3,0.3s2,0.3,3,0.5s2,0.4,3,0.7s2,0.5,2.9,0.9l1.4,0.5
				c0.5,0.2,0.9,0.4,1.4,0.6c0.9,0.4,1.8,0.9,2.7,1.4c0.4,0.3,0.8,0.6,1.3,0.9c0.4,0.3,0.8,0.6,1.2,1
				C296.1,302.9,296.8,303.6,297.4,304.5L297.4,304.5z"/>
		</g>
		<g>
			<path class="st0" d="M216.9,304.8c1.7-0.3,3.4-0.5,5.1-0.4c0.4,0,0.9,0.1,1.3,0.2c0.4,0.1,0.9,0.2,1.3,0.4
				c0.2,0.1,0.4,0.2,0.6,0.3c0.2,0.1,0.4,0.2,0.6,0.3c0.2,0.1,0.4,0.3,0.5,0.4l0.4,0.5l-0.1-0.1c1.2,0.5,2.4,0.9,3.6,1.2
				c0.6,0.2,1.2,0.3,1.9,0.4c0.6,0.1,1.3,0.2,1.9,0.2c0.6,0,1.3,0.1,1.9,0.1c0.3,0,0.6,0,0.9,0l0.9-0.1l0.9-0.2
				c0.3,0,0.6-0.2,0.9-0.3c0.3-0.1,0.6-0.2,0.9-0.3l0.9-0.4l0,0l-0.8,0.5c-0.3,0.2-0.6,0.3-0.9,0.4c-0.3,0.1-0.6,0.3-0.9,0.3
				l-0.9,0.3l-1,0.1c-0.3,0.1-0.7,0.1-1,0.1s-0.7,0-1,0s-0.7,0-1,0c-0.6-0.1-1.3-0.1-1.9-0.3c-0.6-0.1-1.3-0.3-1.9-0.4
				c-1.3-0.4-2.5-0.8-3.7-1.3l0,0l0,0l-0.4-0.5c-0.1-0.2-0.3-0.3-0.5-0.4c-0.2-0.1-0.3-0.2-0.5-0.3s-0.4-0.2-0.6-0.3
				c-0.4-0.2-0.8-0.3-1.2-0.4c-0.4-0.1-0.8-0.2-1.3-0.2C220.4,304.5,218.6,304.6,216.9,304.8L216.9,304.8z"/>
		</g>
		<g>
			<path class="st0" d="M233.8,270.4c1.1-0.3,2.2-0.7,3.3-1.1c1.1-0.4,2.1-0.8,3.2-1.3c0.5-0.2,1-0.5,1.5-0.8s1-0.5,1.5-0.8
				s1-0.6,1.5-0.9l1.4-0.9l1.4-1c0.5-0.3,0.9-0.7,1.3-1.1c0.4-0.4,0.9-0.7,1.3-1.2c0.4-0.4,0.8-0.8,1.2-1.2l1.1-1.3
				c0.4-0.4,0.6-0.9,1-1.4c0.3-0.5,0.6-1,0.9-1.5l0.8-1.5l0,0c1-1.8,2.3-3.5,3.6-5.1c1.4-1.6,2.9-3,4.5-4.3c1.6-1.4,2.9-3,4.1-4.6
				c1.3-1.7,2.4-3.4,3.5-5.1c0.3-0.4,0.5-0.9,0.8-1.4c0.1-0.2,0.2-0.5,0.4-0.7c0.2-0.2,0.4-0.4,0.6-0.5c0.5-0.3,0.9-0.5,1.4-0.7
				s1.1-0.3,1.6-0.2c2,0.5,4.1-0.1,6-0.8c0.5-0.2,1-0.4,1.4-0.6c0.4-0.2,0.8-0.5,1.2-0.9c0.8-0.7,1.5-1.4,1.9-2.3
				c0.2-0.5,0.2-0.9,0-1.3c-0.2-0.4-0.7-0.7-1.1-0.8c-0.5-0.2-1-0.3-1.5-0.3c-0.3,0-0.5-0.1-0.8-0.1c-0.2,0-0.5,0-0.7,0.1
				c-0.5,0.1-1,0.1-1.6,0.1c-0.3,0-0.6-0.1-0.8-0.2c-0.2-0.2-0.4-0.4-0.6-0.6c-0.7-0.8-1.2-1.8-1.3-2.9c0-0.3,0.1-0.6,0.1-0.8
				l0.2-0.8c0.1-0.5,0.2-1,0.2-1.5c0.1-1,0.1-2-0.4-2.9c-0.1-0.2-0.2-0.5-0.3-0.8l-0.2-0.7c-0.2-0.4-0.4-0.9-0.8-1.2
				c-0.7-0.7-1.7-1-2.7-1.2c-0.3-0.1-0.5-0.1-0.8-0.3c-0.1,0-0.3-0.1-0.4-0.2l-0.3-0.2c-0.4-0.3-0.9-0.6-1.3-0.8
				c-0.9-0.5-1.8-0.9-2.8-1.1c-1-0.2-2-0.3-3-0.2s-2,0.3-3.1,0.3c-0.5,0-1.1-0.1-1.6-0.3s-1-0.4-1.4-0.6c-1-0.4-1.9-0.7-2.9-1
				c-1-0.2-2-0.3-2.9,0s-1.6,1.1-2.4,1.8l-4.6,4.2l0,0l0,0l-6.6,4.7l0,0l0,0l-0.5,0.2c-0.2,0.1-0.3,0.2-0.4,0.3
				c-0.1,0.1-0.2,0.2-0.4,0.4c-0.1,0.1-0.2,0.3-0.3,0.4c-0.2,0.3-0.3,0.6-0.4,1c-0.1,0.3-0.2,0.7-0.3,1c-0.2,1.4-0.3,2.8-0.1,4.3
				v0.1h-0.1l-10.5,5.7l0,0l10.4-5.8l-0.1,0.1c-0.1-1.4-0.1-2.9,0.1-4.3c0.1-0.4,0.1-0.7,0.3-1.1c0.1-0.3,0.2-0.7,0.4-1
				c0.1-0.2,0.2-0.3,0.3-0.5c0.1-0.1,0.2-0.3,0.4-0.4c0.2-0.1,0.3-0.2,0.5-0.3l0.5-0.2h-0.1l6.6-4.8l0,0l4.6-4.2
				c0.8-0.7,1.5-1.5,2.5-1.9c1.1-0.4,2.2-0.2,3.2,0c1,0.2,2,0.6,3,1c0.5,0.2,1,0.4,1.4,0.6c0.4,0.2,0.9,0.2,1.4,0.3
				c1,0,2-0.2,3.1-0.3s2.1,0,3.2,0.2c1,0.2,2,0.6,2.9,1.2c0.5,0.3,0.9,0.6,1.3,0.9l0.3,0.2c0.1,0.1,0.2,0.1,0.3,0.2
				c0.2,0.1,0.5,0.2,0.7,0.2c1,0.2,2.1,0.5,2.9,1.3c0.4,0.4,0.6,0.9,0.8,1.4l0.2,0.8c0.1,0.2,0.2,0.5,0.3,0.7c0.2,0.4,0.5,1,0.5,1.5
				c0.1,0.5,0,1.1,0,1.6c-0.1,0.5-0.1,1-0.3,1.6l-0.2,0.8c-0.1,0.3-0.1,0.5-0.1,0.7c0.1,0.9,0.6,1.9,1.2,2.7
				c0.2,0.2,0.3,0.4,0.5,0.5s0.4,0.2,0.6,0.2c0.5,0,1-0.1,1.5-0.1c0.3,0,0.5-0.1,0.8-0.1s0.5,0.1,0.8,0.1c0.5,0.1,1,0.2,1.6,0.4
				c0.5,0.2,1,0.5,1.3,1s0.2,1.2,0,1.7c-0.4,1-1.2,1.8-2,2.5c-0.4,0.3-0.8,0.7-1.3,0.9s-1,0.4-1.5,0.6c-1,0.4-2,0.7-3,0.9
				c-0.5,0.1-1.1,0.1-1.6,0.1s-1.1-0.1-1.6-0.2c-1-0.2-1.9,0.4-2.8,0.9c-0.2,0.1-0.4,0.3-0.6,0.5c-0.1,0.2-0.2,0.4-0.4,0.7
				c-0.2,0.5-0.5,0.9-0.8,1.4c-1.1,1.8-2.3,3.5-3.5,5.2c-1.3,1.6-2.6,3.3-4.2,4.6s-3.2,2.7-4.5,4.2c-1.4,1.6-2.6,3.2-3.6,5l0,0
				l-0.8,1.6c-0.2,0.5-0.6,1-0.9,1.5c-0.3,0.5-0.6,1-1,1.4l-1.1,1.3c-0.4,0.4-0.8,0.8-1.2,1.2s-0.8,0.8-1.3,1.2
				c-0.4,0.4-0.9,0.8-1.3,1.1l-1.4,1l-1.5,0.9c-0.5,0.3-1,0.6-1.5,0.9c-0.5,0.3-1,0.6-1.5,0.8c-0.5,0.3-1,0.5-1.6,0.7
				c-1,0.5-2.1,0.9-3.2,1.3C236,269.8,234.9,270.1,233.8,270.4L233.8,270.4z"/>
		</g>
		<g>
			<path class="st0" d="M168.6,213.5l-3.4,0.1c-1.1,0-2.3-0.2-3.4-0.2c-1.1-0.1-2.2-0.4-3.4-0.6l-1.6-0.6l-0.8-0.3
				c-0.3-0.1-0.5-0.3-0.8-0.4c-0.5-0.3-1-0.5-1.5-0.8l-1.4-1c-0.5-0.3-0.8-0.8-1.3-1.2c-0.4-0.4-0.8-0.8-1.1-1.3
				c-0.2-0.2-0.4-0.4-0.5-0.7l-0.4-0.7c-0.3-0.5-0.6-1-0.8-1.5c-0.5-1-0.8-2.2-1-3.3s-0.3-2.3-0.2-3.4c0-1.1,0.2-2.3,0.4-3.4
				c0.2-1.1,0.6-2.2,1.1-3.3c0.5-1,1.3-2,2.3-2.7s2.1-1.1,3.2-1.3c1.2-0.2,2.3-0.1,3.5,0c2.3,0.4,4.5,1.2,6.5,2.3l0,0
				c0.7,0.2,1.4,0.3,2,0.3c0.3,0,0.7,0,1,0c0.2,0,0.3-0.1,0.5-0.1s0.3-0.1,0.5-0.2c0.2,0,0.3-0.1,0.4-0.2c0.2-0.1,0.3-0.2,0.4-0.3
				c0.1-0.1,0.2-0.3,0.3-0.4c0.1-0.1,0.1-0.3,0.2-0.5c0-0.2,0.1-0.3,0.1-0.5v-0.5c0-0.2-0.1-0.3-0.1-0.5l-0.1-0.5l0,0l0.1,0.5
				c0,0.2,0.1,0.3,0.1,0.5v0.5c0,0.2,0,0.4-0.1,0.5c0,0.2-0.1,0.4-0.2,0.5c-0.1,0.2-0.1,0.3-0.3,0.5c-0.1,0.1-0.2,0.3-0.4,0.4
				c-0.2,0.1-0.3,0.2-0.5,0.3s-0.3,0.2-0.5,0.2s-0.3,0.1-0.5,0.1c-0.4,0.1-0.7,0.1-1.1,0.1c-0.7,0-1.4-0.1-2.1-0.2l0,0l0,0
				c-2-1-4.2-1.8-6.4-2.1c-1.1-0.1-2.2-0.2-3.3,0s-2.1,0.6-3,1.2c-0.9,0.6-1.6,1.5-2.1,2.5s-0.8,2.1-1.1,3.1
				c-0.2,1.1-0.4,2.2-0.4,3.3c-0.1,1.1,0,2.2,0.2,3.4c0.2,1.1,0.5,2.2,1,3.2c0.2,0.5,0.5,1,0.8,1.5l0.4,0.7c0.1,0.2,0.3,0.4,0.5,0.7
				c0.3,0.4,0.7,0.9,1.1,1.3c0.4,0.4,0.8,0.8,1.2,1.1l1.4,1c0.5,0.3,1,0.5,1.5,0.8c0.3,0.1,0.5,0.3,0.8,0.4l0.8,0.3l1.6,0.6
				c1.1,0.2,2.2,0.5,3.3,0.7c1.1,0.1,2.3,0.3,3.4,0.3L168.6,213.5L168.6,213.5z"/>
		</g>
		<g>
			<path class="st0" d="M157.8,197.6c-0.5,0.3-0.9,0.6-1.3,1c-0.2,0.2-0.4,0.4-0.5,0.7c-0.1,0.1-0.1,0.2-0.1,0.4
				c0,0.1-0.1,0.3-0.1,0.4c0,0.1,0,0.3,0.1,0.4c0,0.1,0.1,0.2,0.2,0.4c0.1,0.1,0.1,0.2,0.2,0.3l0.3,0.3c0.2,0.2,0.4,0.3,0.7,0.5
				l0.7,0.4l0.3,0.1l-0.2,0.2c-0.7,0.7-1.3,1.4-1.8,2.2c0,0.1-0.1,0.2-0.1,0.3s0,0.2,0,0.3v0.1l0.1,0.1c0,0.1,0.1,0.1,0.2,0.2
				c0.2,0.1,0.4,0.1,0.7,0.2l0.7,0.1l0,0c-0.2,0-0.5,0.1-0.7,0.1h-0.4c-0.1,0-0.3,0-0.4-0.1c-0.1,0-0.3-0.1-0.4-0.2
				c-0.1-0.1-0.1-0.1-0.2-0.2l-0.1-0.2c-0.1-0.2,0-0.3,0-0.5c0-0.1,0.1-0.3,0.1-0.4c0.2-0.5,0.5-0.9,0.8-1.3c0.3-0.4,0.7-0.7,1.1-1
				v0.4l-0.7-0.5c-0.2-0.2-0.5-0.4-0.7-0.6l-0.3-0.3c-0.1-0.1-0.2-0.3-0.2-0.4c-0.1-0.1-0.1-0.3-0.2-0.4c0-0.2-0.1-0.3,0-0.5
				c0-0.2,0-0.3,0.1-0.4c0-0.1,0.1-0.3,0.2-0.4c0.1-0.3,0.3-0.5,0.6-0.7C156.8,198.2,157.3,197.8,157.8,197.6L157.8,197.6z"/>
		</g>
		<g>
			<path class="st0" d="M161.8,201.9c0,0,0.4,0.2,1,0.5c0.6,0.2,1.4,0.5,2.3,0.7c0.4,0.1,0.9,0.1,1.3,0.1c0.4,0,0.8,0.1,1.1,0.1
				s0.6,0.1,0.8,0.1s0.3,0,0.3,0l0,0c0,0-0.4,0.2-1.1,0.2c-0.3,0-0.7,0-1.2,0c-0.4,0-0.9-0.1-1.3-0.3c-0.9-0.2-1.7-0.6-2.3-0.9
				C162.2,202.2,161.8,201.9,161.8,201.9L161.8,201.9z"/>
		</g>
		<g>
			<path class="st0" d="M371.9,302l-18.4-4l0,0l0,0c-2-0.8-3.9-1.6-5.9-2.4c-2-0.8-4-1.5-6-2.1c-1-0.3-2.1-0.5-3.1-0.5
				c-1.1,0-2.1,0-3.2,0.1c-2.1,0.2-4.2,0.4-6.4,0.5c-1.1,0-2.2,0-3.2-0.2c-0.5-0.1-1.1-0.3-1.6-0.4l-1.5-0.5c-2-0.7-4-1.3-6.1-2
				c-2-0.6-4.1-1.2-6.2-1.6c-1-0.2-2.1-0.4-3.1-0.6c-1.1-0.2-2.1-0.3-3.2-0.2l0,0c1.1-0.1,2.1,0,3.2,0.1s2.1,0.3,3.2,0.5
				c2.1,0.4,4.2,0.9,6.2,1.5c2.1,0.6,4.1,1.2,6.1,1.9c1,0.3,2,0.8,3,0.9c1,0.2,2.1,0.2,3.1,0.2c2.1,0,4.2-0.3,6.4-0.4
				c1.1-0.1,2.1-0.1,3.2-0.1s2.2,0.2,3.2,0.6c2.1,0.6,4.1,1.4,6,2.2c2,0.8,4,1.6,5.9,2.4l0,0L371.9,302L371.9,302z"/>
		</g>
		<g>
			<path class="st0" d="M287.7,297.9h5.5c0.9,0,1.9,0.1,2.7-0.1c0.9-0.2,1.8-0.4,2.6-0.8c0.9-0.3,1.7-0.7,2.4-1.2
				c0.4-0.3,0.6-0.6,0.9-1l0.4-0.6l0.3-0.6c0.8-1.6,1.2-3.5,1.2-5.3s-0.3-3.7-0.9-5.4c-0.2-0.4-0.3-0.9-0.5-1.3
				c-0.2-0.4-0.4-0.8-0.7-1.2c-0.5-0.8-1-1.5-1.7-2.2c-0.6-0.7-1.4-1.2-2.1-1.7c-0.4-0.2-0.8-0.4-1.2-0.8c-0.3-0.4-0.5-0.8-0.5-1.3
				c-0.1-1.9,0.7-3.6,1-5.4c0.1-0.4,0.1-0.9,0-1.3c-0.1-0.4-0.3-0.8-0.5-1.2c-0.4-0.8-1-1.5-1.6-2.2s-1.2-1.4-1.7-2.1
				c-0.5-0.8-1-1.6-1.2-2.5s-0.1-1.9,0.3-2.8c0.3-0.9,0.9-1.6,1.2-2.5c0.7-1.7,0.9-3.6,0.7-5.4c-0.4-3.7-2.1-7-4.1-10.1
				c-1-1.5-2.2-3-3.4-4.3c-1.2-1.4-2.5-2.7-3.9-3.9l-0.5-0.5l0.7,0.2c4.3,1.5,8.8,2.4,13.4,2.6c2.3,0.1,4.6,0,6.8-0.4
				c0.6-0.1,1.1-0.2,1.7-0.3l0.8-0.2c0.3-0.1,0.5-0.2,0.8-0.2l1.6-0.5l1.6-0.7c1.1-0.3,1.8-1.2,2.6-2.1c0.4-0.4,0.8-0.8,1.2-1.2
				c0.2-0.2,0.5-0.4,0.8-0.5s0.6-0.1,0.9-0.2c2.3-0.3,4.6,0.2,6.8,0.8c4.4,1.4,8.4,3.9,11.9,6.8c1.8,1.5,3.4,3.1,4.9,4.8
				s3,3.5,4.4,5.2c2.9,3.6,5.6,7.2,8.4,10.9c5.5,7.3,10.9,14.7,16.6,21.9c2.8,3.6,5.8,7.1,8.9,10.5c3,3.4,6.2,6.7,9.5,9.9
				c3.3,3.1,6.7,6.2,10.3,9c1.8,1.5,3.7,2.7,5.5,4.1c0.9,0.7,1.9,1.3,2.8,1.9c1,0.6,1.9,1.3,2.9,1.8l2.9,1.7c1,0.6,2,1.1,3,1.6
				c2,1.1,4.1,2,6.2,3c1,0.5,2.1,0.9,3.2,1.3c1.1,0.4,2.1,0.9,3.2,1.2c2.2,0.7,4.3,1.5,6.6,2l3.3,0.9l3.4,0.7c2.2,0.5,4.5,0.7,6.8,1
				c1.1,0.2,2.3,0.2,3.4,0.3l3.4,0.2c2.3,0.1,4.6,0.1,6.9,0.1v0.1c-2.3,0-4.6,0-6.9-0.1l-3.4-0.2c-1.1-0.1-2.3-0.1-3.4-0.3
				c-2.3-0.3-4.6-0.5-6.8-1l-3.4-0.6l-3.3-0.8c-2.2-0.5-4.4-1.3-6.6-2c-1.1-0.3-2.1-0.8-3.2-1.2s-2.2-0.8-3.2-1.3
				c-2.1-1-4.2-1.8-6.2-2.9c-1-0.5-2-1-3-1.6l-3-1.7c-1-0.6-2-1.2-2.9-1.8c-1-0.6-1.9-1.2-2.9-1.9c-1.8-1.4-3.8-2.6-5.5-4.1
				c-3.6-2.8-7.1-5.9-10.4-9c-3.3-3.2-6.5-6.5-9.5-9.9s-6-6.9-8.9-10.5c-5.7-7.1-11.1-14.6-16.6-21.9c-2.7-3.7-5.5-7.3-8.4-10.9
				c-1.4-1.8-2.9-3.5-4.4-5.2s-3.1-3.4-4.8-4.8c-3.5-2.9-7.4-5.4-11.8-6.8c-2.2-0.7-4.4-1.1-6.7-0.8c-1.2-0.1-1.9,0.9-2.7,1.7
				c-0.4,0.4-0.8,0.8-1.2,1.2c-0.2,0.2-0.5,0.4-0.7,0.5c-0.3,0.1-0.5,0.2-0.8,0.4l-1.6,0.7l-1.6,0.5c-0.3,0.1-0.5,0.2-0.8,0.3
				l-0.8,0.2c-0.6,0.1-1.1,0.3-1.7,0.3c-2.3,0.4-4.6,0.5-6.9,0.4c-4.6-0.2-9.1-1.1-13.5-2.7l0.1-0.2c1.4,1.2,2.7,2.6,3.9,4
				c1.2,1.4,2.4,2.8,3.4,4.4c2,3,3.8,6.5,4.2,10.2c0.2,1.8,0,3.7-0.7,5.5c-0.4,0.9-0.9,1.6-1.2,2.5c-0.3,0.8-0.5,1.8-0.3,2.6
				c0.4,1.8,1.7,3.2,2.9,4.6c0.6,0.7,1.1,1.5,1.6,2.3c0.2,0.4,0.4,0.8,0.5,1.3s0,0.9,0,1.4c-0.3,1.8-1.1,3.6-1,5.4
				c0,0.4,0.2,0.9,0.5,1.2s0.7,0.5,1.1,0.7c0.8,0.5,1.5,1,2.2,1.7c0.6,0.7,1.2,1.4,1.7,2.2c0.2,0.4,0.5,0.8,0.7,1.2s0.3,0.9,0.5,1.3
				c0.6,1.8,0.9,3.6,0.9,5.4c0,1.8-0.4,3.7-1.2,5.4l-0.3,0.6l-0.4,0.6c-0.2,0.4-0.5,0.8-0.9,1.1c-0.7,0.6-1.6,0.9-2.5,1.3
				c-0.9,0.3-1.8,0.6-2.7,0.8c-0.9,0.2-1.8,0.1-2.8,0.1L287.7,297.9L287.7,297.9z"/>
		</g>
		<g>
			<path class="st0" d="M233.4,272.6c1-0.3,2-0.4,3-0.3c0.3,0,0.5,0.1,0.7,0.2c0.2,0.1,0.5,0.2,0.7,0.4c0.1,0.1,0.2,0.2,0.3,0.3
				s0.2,0.2,0.2,0.3c0.2,0.2,0.2,0.5,0.3,0.7l0,0c0.2,0.5,0.3,1,0.4,1.4c0,0.2,0.1,0.5,0.1,0.8s0,0.5,0,0.8s-0.1,0.5-0.2,0.7
				c-0.1,0.2-0.2,0.5-0.3,0.7s-0.2,0.5-0.4,0.7s-0.3,0.4-0.5,0.6c-0.2,0.2-0.4,0.3-0.6,0.5l-0.7,0.4c-0.2,0.1-0.5,0.2-0.7,0.3
				s-0.5,0.2-0.7,0.3l-0.7,0.2c-0.2,0-0.5,0.1-0.7,0.1c-0.5,0.1-1,0.1-1.5,0.1l0,0c0.5-0.1,0.9-0.2,1.4-0.3c0.2,0,0.5-0.1,0.7-0.2
				l0.7-0.2c0.2-0.1,0.4-0.2,0.7-0.3c0.2-0.1,0.4-0.2,0.6-0.3l0.6-0.4c0.2-0.1,0.4-0.3,0.5-0.4c0.2-0.1,0.3-0.3,0.5-0.5
				s0.3-0.4,0.4-0.6c0.1-0.2,0.2-0.4,0.3-0.6c0.1-0.2,0.1-0.4,0.2-0.7c0.2-0.9,0-1.9-0.3-2.8l0,0c-0.1-0.2-0.1-0.5-0.3-0.6
				c-0.1-0.1-0.1-0.2-0.2-0.3c-0.1-0.1-0.1-0.2-0.2-0.2c-0.2-0.1-0.4-0.3-0.6-0.3c-0.2-0.1-0.5-0.2-0.7-0.2
				C235.4,272.3,234.4,272.4,233.4,272.6L233.4,272.6z"/>
		</g>
		<g>
			<g>
				<path class="st0" d="M288.3,175.6l-11.8,1.7l0,0l0,0c-0.4,0-0.7,0-1.1,0l-1.1,0.1c-0.7,0.1-1.4,0.3-2.1,0.5s-1.4,0.4-2.1,0.7
					s-1.4,0.5-2,0.8c-2.7,1.2-5.2,2.6-7.7,4.1l0,0l0,0c-4.2,2.1-8.4,4.2-12.6,6.3l0,0l0,0L247,190c-0.3,0.1-0.5,0.1-0.8,0.2
					l-0.7,0.3c-0.2,0.1-0.5,0.2-0.7,0.4l-0.7,0.4l-0.6,0.5c-0.2,0.2-0.4,0.4-0.5,0.6c-0.2,0.2-0.3,0.4-0.4,0.7
					c-0.1,0.2-0.3,0.5-0.3,0.7c-0.1,0.3-0.2,0.5-0.2,0.8s-0.1,0.5-0.2,0.8c0,0.3-0.1,0.5-0.1,0.8c0,1.1,0.1,2.2,0.5,3.2l0,0
					c0.2,0.6,0.6,1.3,1.1,1.8c0.1,0.1,0.3,0.2,0.4,0.3c0.1,0.1,0.3,0.2,0.5,0.2c0.2,0.1,0.3,0.1,0.5,0.1s0.4,0,0.5,0l0,0
					c-0.2,0-0.4,0-0.5,0c-0.2,0-0.4,0-0.5-0.1c-0.2,0-0.3-0.1-0.5-0.2c-0.2-0.1-0.3-0.2-0.5-0.3c-0.6-0.5-1-1.1-1.2-1.8l0,0
					c-0.4-1-0.6-2.1-0.6-3.3c0-0.3,0-0.6,0-0.8c0-0.3,0.1-0.5,0.1-0.8s0.2-0.5,0.2-0.8c0.1-0.3,0.2-0.5,0.3-0.8s0.3-0.5,0.5-0.7
					s0.3-0.5,0.5-0.6l0.6-0.6l0.7-0.5c0.5-0.3,1-0.5,1.5-0.8c0.3-0.1,0.5-0.2,0.8-0.2l0.8-0.2h-0.1c4.2-2.1,8.4-4.2,12.6-6.2l0,0
					c2.5-1.5,5.1-2.9,7.8-4c0.7-0.3,1.4-0.6,2-0.8c0.7-0.3,1.4-0.5,2.1-0.7s1.4-0.4,2.2-0.5l1.1-0.1c0.4,0,0.7,0,1.1,0.1l0,0
					L288.3,175.6L288.3,175.6z"/>
			</g>
			<g>
				<path class="st0" d="M264,208.1c0,0,1-0.4,2.4-1c0.7-0.3,1.6-0.7,2.5-1s2-0.6,3-0.7c1-0.2,2.1-0.4,3-0.5c1-0.1,1.9-0.2,2.7-0.3
					c1.6-0.1,2.6-0.1,2.6-0.1l0,0c0,0-1,0.2-2.6,0.4c-0.8,0.1-1.7,0.3-2.6,0.4c-1,0.1-2,0.2-3,0.4c-1,0.1-2,0.3-3,0.6
					c-0.9,0.3-1.8,0.6-2.5,0.9C265,207.7,264,208.1,264,208.1L264,208.1z"/>
			</g>
			<g>
				<path class="st0" d="M238.7,212.1c-0.5-0.5-1-1.1-1.4-1.8c-0.3-0.7-0.5-1.5-0.3-2.2l0,0c0-0.4,0-0.8,0-1.2s0.1-0.8,0.2-1.2
					c0.1-0.4,0.2-0.8,0.4-1.2c0.1-0.2,0.2-0.4,0.3-0.5c0.1-0.2,0.2-0.4,0.4-0.5c0.1-0.2,0.3-0.3,0.4-0.4c0.2-0.1,0.3-0.3,0.5-0.4
					l0.6-0.3c0.2-0.1,0.4-0.1,0.6-0.2c0.2-0.1,0.4-0.1,0.6-0.1l0.6-0.1c0.2,0,0.4,0,0.6,0h0.6l0,0c2.1-0.3,4.3-0.6,6.4-1
					c0.5-0.1,1.1-0.2,1.5-0.4c0.5-0.2,1-0.4,1.5-0.6c1-0.5,1.9-1,2.9-1.4c1-0.5,1.9-1,3-1.3c0.5-0.2,1.1-0.2,1.6-0.3l1.6-0.1
					c0.5,0,1.1-0.1,1.6-0.2c0.5-0.1,1-0.3,1.5-0.4c0.5-0.1,1-0.3,1.5-0.5c0.2-0.1,0.5-0.2,0.7-0.4s0.4-0.4,0.4-0.6l0,0
					c0,0.3-0.1,0.6-0.4,0.7c-0.2,0.2-0.4,0.3-0.7,0.4c-0.5,0.2-1,0.4-1.5,0.6c-0.5,0.2-1,0.3-1.6,0.5c-0.5,0.1-1.1,0.2-1.6,0.2
					l-1.6,0.2c-0.5,0.1-1,0.1-1.5,0.3c-1,0.3-1.9,0.8-2.9,1.3s-1.9,1-2.9,1.4c-0.5,0.2-1,0.4-1.5,0.6c-0.5,0.1-1.1,0.2-1.6,0.3
					c-2.1,0.4-4.3,0.6-6.4,0.9l0,0l0,0h-0.6c-0.2,0-0.4,0-0.6,0l-0.6,0.1c-0.2,0-0.4,0.1-0.6,0.1c-0.2,0.1-0.4,0.1-0.6,0.2l-0.5,0.3
					c-0.2,0.1-0.3,0.2-0.5,0.4c-0.2,0.1-0.3,0.3-0.4,0.4c-0.1,0.1-0.3,0.3-0.4,0.5c-0.1,0.2-0.2,0.3-0.3,0.5
					c-0.2,0.4-0.3,0.7-0.4,1.1c-0.1,0.4-0.2,0.8-0.2,1.2s-0.1,0.8-0.1,1.2l0,0l0,0c-0.2,0.7-0.1,1.5,0.2,2.2
					C237.7,211,238.2,211.6,238.7,212.1L238.7,212.1z"/>
			</g>
		</g>
		<g>
			<g>
				<path class="st0" d="M417.7,232.1l3.3-18.6v0.1c-1-3.4-1.8-6.9-2.5-10.3c-0.2-0.9-0.3-1.8-0.4-2.6c-0.1-0.9-0.2-1.8-0.3-2.6
					c0-0.4-0.1-0.9-0.1-1.3c0-0.4-0.1-0.9-0.1-1.3c0-0.9,0-1.8,0.1-2.7l0,0c0,0.9,0,1.8,0.1,2.6c0,0.4,0.1,0.9,0.1,1.3
					c0,0.4,0.1,0.9,0.2,1.3c0.2,1.7,0.5,3.5,0.9,5.2c0.3,1.7,0.7,3.5,1.1,5.2s0.8,3.4,1.2,5.1l0,0l0,0L417.7,232.1L417.7,232.1z"/>
			</g>
			<g>
				<g>
					<path class="st0" d="M288.3,175.6l5.3-0.6c1.8-0.2,3.5-0.3,5.3-0.4c1.8-0.1,3.5-0.1,5.3-0.1s3.5,0.1,5.3,0.2
						c1.8,0.2,3.5,0.3,5.3,0.6c1.7,0.3,3.5,0.5,5.2,1c3.5,0.7,6.8,1.9,10.1,3.4c3.2,1.4,6.3,3.3,9.1,5.4c2.8,2.1,5.4,4.6,7.6,7.4
						c2.3,2.7,5.1,4.8,8,6.9c2.9,2.1,5.9,4,8.9,5.8c1.5,0.9,3,1.8,4.6,2.7c1.6,0.8,3.2,1.6,4.8,2.3l9.6,4.6l19.1,9.3l38.2,18.6l0,0
						l0,0l4.1,3l4,3.2l3.9,3.3c1.2,1.2,2.5,2.3,3.7,3.5s2.4,2.4,3.5,3.7l1.7,1.9c0.6,0.6,1.1,1.3,1.6,2c1.1,1.3,2.1,2.7,3.1,4.1
						c0.5,0.7,1,1.4,1.4,2.1c0.5,0.7,0.9,1.4,1.4,2.2c0.4,0.7,0.9,1.5,1.3,2.2l1.2,2.3c0.7,1.5,1.5,3.1,2.1,4.6
						c0.3,0.8,0.6,1.6,0.9,2.4c0.3,0.8,0.6,1.6,0.8,2.4c0.3,0.8,0.5,1.6,0.7,2.5c0.2,0.8,0.4,1.7,0.6,2.5s0.3,1.7,0.5,2.5
						c0.1,0.8,0.2,1.7,0.3,2.5c0.2,1.7,0.3,3.4,0.3,5.1c0,1.7-0.1,3.4-0.3,5.1c-0.2,1.7-0.5,3.4-1.1,5l-0.3-0.2l1.4-1.2
						c0.4-0.4,0.8-0.9,1.3-1.3c0.4-0.5,0.7-1,1.1-1.5s0.6-1.1,0.9-1.6c0.6-1.1,1.1-2.2,1.5-3.4c0.2-0.6,0.4-1.2,0.5-1.8
						c0.2-0.6,0.3-1.2,0.4-1.8c0.3-1.2,0.4-2.4,0.6-3.7c0.1-1.2,0.3-2.5,0.3-3.7c0.1-1.2,0.1-2.5,0.1-3.7s-0.1-2.5-0.1-3.7
						c-0.3-5-1-9.9-2-14.8c-1-4.9-2.2-9.8-3.6-14.5l-0.1-0.2l0.2-0.1l4.2-2.1l-0.1,0.1c0.2-0.4,0.4-0.9,0.6-1.4s0.3-1,0.4-1.4
						c0.1-0.5,0.1-1,0.2-1.5c0-0.5,0-1,0-1.5c-0.1-2-0.5-4-1-5.9c-0.6-1.9-1.3-3.8-2.1-5.7c-0.8-1.8-1.8-3.7-2.8-5.4v-0.1v-0.1
						l3.7-79.9l0.5-10c0.1-3.3,0.4-6.7,0.6-10c0.1-1.7,0.3-3.3,0.3-5l0.1-5c0.1-3.3-0.1-6.7-0.2-10c0-1.7-0.3-3.3-0.4-5
						c-0.2-1.7-0.3-3.3-0.6-5c-0.3-1.6-0.5-3.3-0.9-4.9l-0.6-2.4c-0.2-0.8-0.4-1.6-0.7-2.4l-0.9-2.3c-0.2-0.4-0.3-0.8-0.4-1.2
						l-0.6-1.1c-0.4-0.7-0.7-1.5-1.2-2.2l-1.4-2.1c-0.5-0.7-1.1-1.3-1.6-1.9c-0.6-0.6-1.2-1.1-1.9-1.6c-1.4-0.9-2.9-1.7-4.5-1.9l0,0
						c1.7,0.2,3.2,1,4.6,1.9c0.6,0.5,1.3,1,1.9,1.6c0.5,0.6,1.1,1.2,1.6,1.9l1.4,2.1c0.4,0.7,0.8,1.5,1.2,2.2l0.6,1.1
						c0.2,0.4,0.3,0.8,0.5,1.2l0.9,2.3c0.3,0.8,0.5,1.6,0.7,2.4l0.7,2.4c0.4,1.6,0.6,3.3,0.9,4.9c0.4,1.6,0.4,3.3,0.6,5
						s0.4,3.3,0.4,5c0.1,3.3,0.3,6.7,0.2,10l-0.1,5c0,1.7-0.2,3.3-0.3,5c-0.2,3.3-0.5,6.6-0.6,10l-0.4,10l-3.5,79.9v-0.1
						c1.1,1.8,2,3.6,2.8,5.4c0.8,1.9,1.6,3.8,2.1,5.8c0.6,2,1,4,1,6.1c0,0.5,0,1,0,1.5s-0.1,1-0.2,1.5s-0.2,1-0.4,1.5
						c-0.2,0.5-0.4,1-0.6,1.4v0.1h-0.1l-4.2,2.1l0.1-0.3c1.5,4.8,2.7,9.7,3.6,14.6c0.9,4.9,1.7,9.9,2,14.9c0.1,1.3,0.1,2.5,0.1,3.8
						s0,2.5-0.1,3.8c0,1.3-0.2,2.5-0.3,3.8c-0.2,1.2-0.3,2.5-0.6,3.7c-0.1,0.6-0.3,1.2-0.5,1.8s-0.3,1.2-0.6,1.8
						c-0.4,1.2-0.9,2.4-1.5,3.5c-0.3,0.5-0.6,1.1-1,1.6s-0.7,1-1.1,1.5s-0.9,0.9-1.3,1.4l-1.5,1.2l-0.5,0.4l0.2-0.7
						c0.5-1.6,0.8-3.3,1-4.9c0.2-1.7,0.3-3.4,0.3-5.1c0-1.7-0.1-3.4-0.2-5.1c-0.1-0.8-0.2-1.7-0.3-2.5c-0.1-0.8-0.3-1.7-0.5-2.5
						s-0.4-1.7-0.6-2.5s-0.4-1.6-0.7-2.4c-0.2-0.8-0.5-1.6-0.8-2.4c-0.3-0.8-0.6-1.6-0.9-2.4c-0.6-1.6-1.4-3.1-2.1-4.6l-1.2-2.2
						c-0.4-0.7-0.9-1.5-1.3-2.2s-0.9-1.4-1.4-2.1c-0.5-0.7-0.9-1.4-1.4-2.1c-1-1.4-2-2.8-3.1-4c-0.5-0.7-1.1-1.3-1.6-2l-1.7-1.9
						c-1.1-1.3-2.3-2.5-3.5-3.7s-2.5-2.3-3.7-3.5l-3.9-3.3l-4-3.2l-4.1-3l0,0l-38.2-18.6l-19.1-9.3l-9.6-4.7
						c-1.6-0.8-3.2-1.5-4.8-2.4c-1.5-0.9-3-1.8-4.6-2.7c-3-1.9-6-3.8-8.9-5.9c-2.9-2.1-5.7-4.2-8-6.9c-2.2-2.8-4.8-5.2-7.6-7.4
						c-2.8-2.1-5.8-4-9.1-5.4c-3.2-1.4-6.6-2.6-10-3.4c-1.7-0.5-3.5-0.7-5.2-1c-1.8-0.3-3.5-0.4-5.3-0.6c-1.8-0.1-3.5-0.2-5.3-0.2
						s-3.5,0-5.3,0.1s-3.5,0.2-5.3,0.4L288.3,175.6L288.3,175.6z"/>
				</g>
				<g>
					<path class="st0" d="M475.5,310.7c-0.5,2-1.2,3.9-2,5.8c-0.8,1.9-1.8,3.7-2.9,5.4c-1.2,1.7-2.5,3.3-4.2,4.5
						c-0.4,0.3-0.8,0.6-1.3,0.9c-0.4,0.3-0.9,0.5-1.4,0.7s-1,0.4-1.5,0.5c-0.5,0.2-1,0.2-1.5,0.3l0,0l0,0c-0.7,0-1.4-0.1-2-0.2
						c-0.7-0.1-1.3-0.2-2-0.4s-1.3-0.4-1.9-0.6l-0.9-0.4l-0.9-0.5c-0.3-0.1-0.6-0.3-0.9-0.5s-0.6-0.4-0.8-0.6
						c-0.3-0.2-0.6-0.4-0.8-0.7l-0.7-0.7l-0.6-0.8c-0.2-0.3-0.3-0.6-0.5-0.9c-0.1-0.3-0.3-0.6-0.3-0.9l-0.2-1l0,0l0.3,0.9
						c0.1,0.3,0.2,0.6,0.4,0.9c0.2,0.3,0.3,0.6,0.5,0.8l0.6,0.8l0.7,0.7c0.2,0.2,0.5,0.4,0.8,0.6c0.3,0.2,0.5,0.4,0.8,0.5
						c0.3,0.2,0.6,0.4,0.9,0.5l0.9,0.4l0.9,0.3c0.6,0.2,1.3,0.4,1.9,0.6c0.6,0.2,1.3,0.3,1.9,0.4c0.7,0.1,1.3,0.2,2,0.2l0,0
						c0.5-0.1,1-0.1,1.5-0.3c0.5-0.1,1-0.3,1.4-0.5c0.5-0.2,0.9-0.4,1.3-0.7s0.9-0.5,1.3-0.8c1.6-1.2,3-2.7,4.2-4.4s2.2-3.4,3-5.3
						C474.1,314.6,474.9,312.7,475.5,310.7L475.5,310.7z"/>
				</g>
				<g>
					<path class="st1" d="M460.7,328.5"/>
				</g>
			</g>
		</g>
		<g>
			<path class="st0" d="M236.9,212.8c-1.3-0.8-2.4-1.6-3.6-2.6c-1.1-0.9-2.2-1.9-3.3-3c-1-1-2-2.1-2.9-3.3c-0.5-0.6-0.9-1.2-1.3-1.8
				c-0.4-0.6-0.8-1.2-1.2-1.9l0,0l0,0l-1.8-3.8l-0.1-0.1h0.1c10.3-4,20.5-8.1,30.6-12.5l7.5-3.3c2.5-1.1,5-2.3,7.5-3.5
				c1.2-0.6,2.5-1.2,3.7-1.8s2.5-1.2,3.7-1.8l3.6-1.9l3.6-2l0.1-0.1l0.1,0.1c0.4,1,0.8,2.1,1,3.2c0.3,1.1,0.5,2.2,0.6,3.3l0,0
				c-0.3-2.2-0.9-4.4-1.8-6.4l0.2,0.1l-3.6,2.1l-3.6,2c-1.2,0.7-2.4,1.3-3.7,1.9c-1.2,0.6-2.5,1.2-3.7,1.8c-2.5,1.2-5,2.3-7.5,3.5
				c-2.5,1.1-5,2.2-7.6,3.3c-5.1,2.2-10.2,4.3-15.3,6.3s-10.2,4-15.4,6l0.1-0.2l1.8,3.8l0,0c0.4,0.6,0.8,1.3,1.2,1.9
				c0.4,0.6,0.8,1.2,1.3,1.8c0.9,1.2,1.9,2.3,2.9,3.3c1,1.1,2.1,2,3.2,3C234.5,211.1,235.7,212,236.9,212.8L236.9,212.8z"/>
		</g>
		<g>
			<path class="st0" d="M222.9,196.5c0.1-0.6,0.4-1.1,0.8-1.5c0.4-0.4,0.8-0.8,1.2-1.2c0.9-0.7,1.8-1.4,2.7-2
				c0.9-0.7,1.9-1.2,2.8-1.8c1-0.6,2-1.1,2.9-1.7c1-0.6,2-1,3-1.6c1-0.5,2-1,3-1.5l3-1.4l3.1-1.4c2-0.9,4.1-1.8,6.2-2.7
				c2.1-0.9,4.2-1.7,6.2-2.6c2.1-0.8,4.2-1.7,6.3-2.4c2.1-0.8,4.2-1.6,6.3-2.3l0,0c2-1,4-1.8,6.1-2.4c0.5-0.2,1.1-0.3,1.6-0.4
				c0.5-0.1,1.1-0.2,1.6-0.3c0.3,0,0.5-0.1,0.8-0.1h0.8l0.8,0.1l0.8,0.2l0,0l-0.8-0.2l-0.8-0.1h-0.8c-0.3,0-0.5,0.1-0.8,0.1
				s-0.5,0.1-0.8,0.1c-0.3,0.1-0.5,0.1-0.8,0.2c-0.5,0.1-1.1,0.3-1.6,0.4c-2.1,0.7-4.1,1.5-6,2.5l0,0l0,0c-2.1,0.8-4.2,1.6-6.3,2.4
				c-2.1,0.8-4.2,1.6-6.3,2.4c-2.1,0.8-4.2,1.6-6.3,2.5c-2.1,0.8-4.2,1.7-6.2,2.6l-3.1,1.3l-3.1,1.4c-1,0.5-2,1-3,1.5s-2,1-3,1.5
				s-2,1.1-2.9,1.6c-1,0.6-1.9,1.1-2.9,1.8c-0.9,0.6-1.8,1.3-2.7,2c-0.4,0.4-0.8,0.7-1.2,1.2C223.3,195.5,223,195.9,222.9,196.5
				L222.9,196.5z"/>
		</g>
		<g>
			<path class="st0" d="M317.3,74.7h-13.4l0,0c-0.6,2-1.4,4-2.3,5.9s-1.9,3.8-3.1,5.6c-2.4,3.5-5.3,6.8-9,8.9
				c-1.8,1.1-3.9,1.8-6,2.2s-4.3,0.4-6.4,0.1c-2.1-0.3-4.2-0.9-6.1-1.8c-1.9-0.9-3.7-2.2-5.1-3.8c-1.4-1.7-2.3-3.7-2.7-5.8
				c-0.2-1-0.3-2.1-0.3-3.2c0-1.1,0-2.1,0-3.2V66.8V41.2l0.1,0.1l-23.4,4.3l0.1-0.1c-1.8,3.7-3.5,7.5-5.1,11.3s-3.1,7.7-4.6,11.5
				c-2.9,7.8-5.5,15.6-7.7,23.6s-3.9,16.1-5,24.3c-0.2,1-0.2,2.1-0.4,3.1c-0.1,1-0.2,2.1-0.3,3.1l-0.2,3.1l-0.1,3.1
				c-0.1,1,0,2.1,0,3.1s0,2.1,0.1,3.1c0.1,2.1,0.3,4.1,0.5,6.2l0.1,1.4l-0.5-1.3c-0.2-0.4-0.4-0.9-0.6-1.3c-0.2-0.4-0.5-0.9-0.8-1.3
				c-0.3-0.4-0.6-0.8-0.9-1.2c-0.3-0.4-0.6-0.8-1-1.1c-0.3-0.4-0.7-0.7-1-1.1c-0.3-0.4-0.7-0.7-1.1-1c-0.4-0.3-0.8-0.6-1.1-1
				c-0.4-0.3-0.8-0.6-1.2-0.9l-1.2-0.8c-0.4-0.3-0.9-0.5-1.3-0.8c-0.4-0.3-0.9-0.5-1.3-0.7l-1.3-0.7c-0.4-0.2-0.9-0.4-1.4-0.6
				l-1.4-0.6l-2.8-1H198v-0.1c-0.4-1.5-1.3-3-2.4-4.2c-1.1-1.2-2.4-2.3-3.8-3.1c-1.4-0.8-3-1.4-4.6-1.8c-0.4-0.1-0.8-0.2-1.2-0.3
				l-1.2-0.2c-0.8-0.1-1.6-0.2-2.5-0.4c-1.6-0.2-3.3-0.5-4.9-0.5c-1.6,0-3.3,0.1-4.9,0.5c-1.6,0.4-3.1,1-4.6,1.8
				c-1.5,0.7-2.8,1.7-4.1,2.7c-0.7,0.5-1.5,0.8-2.3,1l-2.4,0.7c-1.6,0.5-3.2,0.9-4.2,2.3c-0.7,0.6-1.5,0.9-2.3,1.1
				c-0.8,0.3-1.6,0.4-2.4,0.6c-1.6,0.4-3.3,0.6-4.6,1.6c-1.4,0.9-2.8,1.8-4.3,2.6c-1.4,0.8-2.7,1.9-4,2.9c-0.7,0.5-1.3,1-1.9,1.6
				c-0.6,0.5-1.2,1.2-1.8,1.7l-3.5,3.5v-0.1l-3.1,6.8l0,0l0,0c-0.9,1.3-1.8,2.6-2.7,3.9c-0.4,0.7-0.9,1.3-1.2,2
				c-0.3,0.7-0.6,1.4-0.9,2.1c-1.2,2.9-2.1,5.9-2.8,8.9c-0.2,0.8-0.3,1.5-0.4,2.3c0,0.7,0,1.5,0,2.3c0,1.6,0,3.1,0,4.7
				c-0.1,1.6-0.2,3.1-0.1,4.7c0,0.8,0,1.6,0.2,2.3s0.5,1.4,0.8,2.1c0.7,1.4,1.4,2.8,2.1,4.2c0.6,1.5,1,3,1.5,4.5s1.2,2.9,1.8,4.3
				c0.7,1.4,1.4,2.8,2.4,3.9c1,1.1,2.4,1.9,3.7,2.8c0.6,0.5,1.3,0.9,1.9,1.5c0.6,0.6,1.1,1.2,1.6,1.8c1,1.2,2,2.4,3.1,3.5l3.3,3.3
				l0,0l6.2,3.7h-0.1h15.4h-0.1l6.2-3.7l0,0l4.3-5.5l0,0c0.7-1.1,1.5-2.1,2.4-3c0.5-0.4,1-0.9,1.6-1.2c0.3-0.2,0.6-0.3,0.9-0.4h0.5
				l0.5,0.1l0,0h9.1c3,0,6.1,0.1,9.1,0.1c0.8,0,1.5,0,2.3-0.1c0.7-0.1,1.5-0.2,2.2-0.3l2.3-0.3c0.8-0.1,1.5-0.1,2.3-0.2
				c1.5-0.1,3-0.3,4.6,0c0.8,0.2,1.3,0.8,1.8,1.4c0.5,0.6,1,1.2,1.5,1.7c0.3,0.3,0.6,0.5,0.9,0.6c0.4,0.1,0.7,0.1,1.1,0.1
				c0.7,0,1.5-0.1,2.3-0.2c0.8-0.1,1.5-0.2,2.3-0.2c0.4,0,0.8,0,1.1,0.1c0.4,0.1,0.7,0.3,1,0.5c1.3,0.9,2.1,2.2,3.1,3.4
				c0.9,1.2,1.8,2.4,3,3.3c0.6,0.5,1.4,0.6,2.1,0.7c0.8,0.1,1.5,0,2.3,0c0.8-0.1,1.5-0.2,2.2-0.4s1.4-0.5,2.1-0.8
				c1.4-0.5,2.9-1,4.4-1.1s3.1,0.2,4.4,1l0,0c-1.3-0.7-2.9-1.1-4.4-0.9c-1.5,0.1-3,0.6-4.4,1.2c-0.7,0.3-1.4,0.6-2.1,0.8
				c-0.7,0.2-1.5,0.3-2.2,0.4c-0.8,0.1-1.5,0.1-2.3,0c-0.8,0-1.5-0.2-2.2-0.7c-1.2-0.9-2.1-2.2-3.1-3.3c-0.9-1.2-1.8-2.4-3-3.3
				c-0.3-0.2-0.6-0.4-1-0.5s-0.7-0.1-1.1-0.1c-0.8,0-1.5,0.1-2.3,0.2c-0.8,0.1-1.5,0.2-2.3,0.2c-0.4,0-0.8,0-1.1-0.1
				c-0.4-0.1-0.7-0.4-1-0.6c-0.6-0.5-1-1.1-1.5-1.7c-0.5-0.5-1-1.2-1.7-1.3c-1.5-0.3-3-0.1-4.5,0c-0.8,0.1-1.5,0.1-2.3,0.2l-2.2,0.3
				c-0.7,0.1-1.5,0.2-2.3,0.3s-1.5,0.1-2.3,0.1c-3,0-6.1-0.1-9.1-0.1h-9.1l0,0l0,0l-0.4-0.1h-0.4c-0.3,0.1-0.6,0.2-0.8,0.3
				c-0.5,0.3-1,0.7-1.5,1.1c-0.9,0.9-1.7,1.9-2.4,3l0,0l0,0l-4.3,5.6l0,0l0,0l-6.2,3.7l0,0H163h-15.4h-0.1l0,0l-6.2-3.7l0,0l0,0
				l-3.3-3.3c-1.1-1.1-2.1-2.4-3.1-3.5c-0.5-0.6-1-1.2-1.6-1.7c-0.5-0.5-1.2-1-1.8-1.4c-1.3-0.9-2.6-1.7-3.7-2.9
				c-1-1.3-1.7-2.7-2.5-4.1c-0.7-1.4-1.4-2.8-1.9-4.3s-0.9-3-1.5-4.4s-1.4-2.8-2.1-4.2c-0.3-0.7-0.7-1.5-0.8-2.2
				c-0.2-0.8-0.2-1.6-0.2-2.4c0-1.6,0.1-3.1,0.2-4.7c0.1-1.5,0-3.1,0.1-4.7c0-0.8-0.1-1.5,0-2.4c0.1-0.8,0.3-1.6,0.4-2.3
				c0.7-3.1,1.6-6.1,2.8-9c0.3-0.7,0.6-1.4,0.9-2.2c0.3-0.7,0.8-1.4,1.2-2c0.9-1.3,1.8-2.6,2.7-3.9l0,0l3.1-6.8l0,0l0,0l3.5-3.5
				c0.6-0.6,1.1-1.2,1.8-1.7c0.6-0.5,1.3-1.1,1.9-1.6c1.3-1,2.6-2.1,4.1-2.9c1.4-0.8,2.9-1.7,4.3-2.6c0.4-0.2,0.7-0.4,1.1-0.6
				c0.4-0.2,0.8-0.3,1.2-0.4c0.8-0.2,1.6-0.4,2.4-0.6c0.8-0.2,1.6-0.4,2.4-0.6c0.8-0.2,1.6-0.6,2.1-1c0.1-0.1,0.3-0.3,0.4-0.4
				c0.1-0.2,0.3-0.3,0.5-0.5c0.3-0.3,0.7-0.5,1.1-0.7c0.8-0.4,1.6-0.6,2.4-0.8l2.4-0.7c0.8-0.3,1.6-0.5,2.2-1c1.3-1,2.7-2,4.2-2.7
				c1.5-0.8,3-1.4,4.7-1.8c1.6-0.4,3.3-0.6,5-0.5c1.7,0,3.3,0.2,5,0.5c0.8,0.1,1.6,0.2,2.5,0.4l1.2,0.2c0.4,0.1,0.8,0.2,1.2,0.3
				c1.6,0.4,3.2,1,4.7,1.8s2.8,1.9,3.9,3.1c1.1,1.3,2,2.7,2.5,4.4l-0.1-0.1l2.8,1l1.4,0.6c0.5,0.2,0.9,0.4,1.4,0.6l1.3,0.7
				c0.5,0.2,0.9,0.5,1.3,0.7c0.4,0.3,0.9,0.5,1.3,0.8l1.2,0.9c0.4,0.3,0.8,0.6,1.2,0.9c0.4,0.3,0.8,0.6,1.2,1c0.4,0.3,0.8,0.7,1.1,1
				c0.3,0.4,0.7,0.7,1,1.1c0.3,0.4,0.7,0.7,1,1.2c0.3,0.4,0.6,0.8,0.9,1.2c0.3,0.4,0.5,0.9,0.8,1.3c0.2,0.4,0.5,0.9,0.6,1.4
				l-0.4,0.1c-0.2-2.1-0.4-4.1-0.5-6.2c-0.1-1-0.1-2.1-0.1-3.1s0-2.1,0-3.1l0.1-3.1l0.2-3.1c0.1-1,0.2-2.1,0.3-3.1s0.2-2.1,0.4-3.1
				c1.1-8.2,2.8-16.4,5-24.4s4.8-15.9,7.7-23.6c1.5-3.9,3-7.7,4.6-11.5s3.3-7.6,5.1-11.3v-0.1h0.1l23.4-4.3h0.1v0.1v25.6v12.8
				c0,1.1,0,2.1,0,3.2c0,1.1,0.1,2.1,0.3,3.2c0.4,2.1,1.3,4.1,2.6,5.7c1.4,1.6,3.1,2.9,5,3.8c1.9,0.9,4,1.4,6.1,1.8
				c2.1,0.3,4.2,0.3,6.3-0.1c2.1-0.4,4.1-1.1,5.9-2.2c3.7-2.1,6.6-5.4,9-8.9c1.2-1.8,2.2-3.6,3.1-5.6c0.9-1.9,1.7-3.9,2.3-5.9l0,0
				l0,0L317.3,74.7L317.3,74.7z"/>
		</g>
		<g>
			<path class="st0" d="M303.9,74.6c0,0,2.8,6.1,7,15.2c1,2.3,2.1,4.8,3.3,7.4c1.1,2.6,2.3,5.4,3.4,8.4c1.1,2.9,2.2,6,3.2,9.1
				s2,6.3,2.9,9.6c0.4,1.6,0.8,3.2,1.1,4.9c0.2,1.7,0.2,3.3,0.2,5c0,1.6-0.1,3.3-0.1,4.9c0,1.6,0,3.2,0.2,4.7c0.4,3.1,1,6.1,1.3,8.9
				c0.4,2.8,0.8,5.6,0.5,8.1c-0.2,2.5-0.5,4.8-0.7,6.8c-0.3,2-0.5,3.8-0.7,5.2c-0.5,2.9-0.7,4.5-0.7,4.5l0,0c0,0,0.2-1.7,0.6-4.6
				c0.2-1.5,0.4-3.2,0.6-5.2s0.5-4.3,0.6-6.8c0.2-2.5-0.2-5.2-0.6-8s-1-5.8-1.4-8.9c-0.2-1.6-0.2-3.2-0.2-4.8
				c0.1-1.6,0.1-3.2,0.2-4.9c0-1.6,0.1-3.3-0.1-4.9c-0.2-1.6-0.6-3.3-1-4.9c-0.8-3.2-1.8-6.4-2.8-9.6c-1-3.1-2.1-6.2-3.1-9.1
				c-1.1-2.9-2.3-5.7-3.4-8.4c-1.1-2.6-2.2-5.1-3.2-7.4C306.6,80.7,303.9,74.7,303.9,74.6L303.9,74.6z"/>
		</g>
		<g>
			<path class="st0" d="M263,41.3c6.1-0.6,12.3-1.3,18.3-2.3c1.5-0.2,3-0.5,4.5-0.8c0.8-0.2,1.5-0.3,2.2-0.6
				c0.7-0.2,1.4-0.5,2.1-0.8c2.8-1.3,5.5-2.8,8.2-4.3h0.1v0.1l1.9,3.6c0.6,1.2,1.3,2.4,1.8,3.6l3.4,7.3l3.4,7.3
				c0.6,1.2,1.2,2.4,1.6,3.7l1.4,3.8l2.9,7.5l3.3,7.3l6.5,14.7l0,0l0,0l11.1,56.7h-0.3c1.1-2.8,2.4-5.5,3.7-8.1
				c1.3-2.7,2.7-5.3,4.2-7.9c3-5.2,6.3-10.2,9.9-14.9s7.7-9.2,12.2-13.2c0.6-0.5,1.1-1,1.7-1.4c0.6-0.5,1.2-1,1.8-1.4
				c1.2-0.9,2.4-1.8,3.7-2.6c1.3-0.8,2.5-1.6,3.9-2.3c1.3-0.7,2.7-1.3,4.1-1.9l-0.1,0.1l3.7-13v-0.1h0.2h15.4h0.1l0.1,0.1
				c0.9,2.1,1.9,4.2,3,6.2s2.3,4,3.7,5.8c1.3,1.9,2.8,3.6,4.5,5.2c1.7,1.5,3.6,2.9,5.7,3.7c0.5,0.2,1.1,0.3,1.6,0.5
				c0.5,0.1,1.1,0.2,1.7,0.3c1.1,0.1,2.3,0.2,3.4,0.2c2.3,0,4.6-0.3,6.7-1.2c2.1-0.8,4-2.2,5.2-4.1c0.6-1,1-2,1.3-3.1
				s0.3-2.2,0.4-3.4l0,0l-7.4-34.5l-0.1-0.5l0.5,0.2l36.4,18l0.2,0.1l-0.1,0.2c-2.8,3.4-5.5,6.8-8.1,10.3c-1.3,1.8-2.5,3.6-3.7,5.4
				c-0.6,0.9-1.1,1.9-1.7,2.8c-0.3,0.5-0.5,1-0.7,1.5s-0.4,1-0.6,1.5l0,0c-1,2.8-1.9,5.7-2.6,8.5c-0.4,1.4-0.7,2.9-1,4.4l-0.4,2.2
				c-0.1,0.7-0.2,1.5-0.4,2.2c-0.3,1.5-0.4,2.9-0.6,4.4c-0.1,1.5-0.3,3-0.4,4.5s-0.2,3-0.2,4.5c-0.1,1.5,0,3,0,4.5l-0.1-0.1
				c1.3-0.8,2.5-1.7,3.7-2.7c0.6-0.5,1.1-1.1,1.6-1.6c0.5-0.6,1-1.1,1.5-1.7c0.2-0.3,0.5-0.6,0.7-0.9c0.2-0.3,0.5-0.6,0.7-0.9l0.6-1
				c0.2-0.3,0.4-0.7,0.6-1s0.4-0.7,0.5-1l0.5-1.1c0.3-0.7,0.5-1.4,0.8-2.2l0,0c-0.3,0.7-0.5,1.5-0.8,2.2l-0.5,1.1
				c-0.1,0.4-0.3,0.7-0.5,1s-0.3,0.7-0.6,1l-0.6,1c-0.2,0.3-0.4,0.6-0.7,0.9c-0.2,0.3-0.4,0.6-0.7,0.9c-0.5,0.6-1,1.2-1.5,1.8
				c-0.5,0.6-1.1,1.1-1.6,1.6c-1.1,1-2.4,2-3.7,2.8l-0.1,0.1v-0.1c0-1.5-0.1-3,0-4.5c0-1.5,0.1-3,0.2-4.5s0.3-3,0.4-4.5
				c0.2-1.5,0.4-3,0.6-4.4c0.1-0.7,0.2-1.5,0.4-2.2l0.4-2.2c0.3-1.5,0.6-2.9,1-4.4c0.7-2.9,1.5-5.8,2.6-8.6l0,0
				c0.2-0.5,0.4-1.1,0.6-1.5c0.2-0.5,0.5-1,0.7-1.5c0.5-1,1.1-1.9,1.7-2.8c1.2-1.9,2.4-3.7,3.7-5.4c2.6-3.5,5.3-7,8.1-10.4l0.1,0.3
				L430,57l0.4-0.3l7.4,34.5l0,0l0,0c0,1.2-0.1,2.3-0.4,3.5c-0.3,1.1-0.7,2.3-1.3,3.3c-1.2,2-3.3,3.5-5.5,4.3s-4.5,1.1-6.9,1.2
				c-1.2,0-2.3,0-3.5-0.2c-0.6-0.1-1.1-0.2-1.7-0.3s-1.1-0.3-1.7-0.5c-2.2-0.8-4.2-2.2-5.9-3.8c-1.7-1.6-3.2-3.4-4.6-5.2
				c-1.4-1.9-2.6-3.9-3.7-5.9s-2.1-4.1-3-6.3l0.2,0.1h-15.4l0.2-0.1l-3.7,13v0.1h-0.1c-1.4,0.6-2.7,1.2-4,1.9s-2.6,1.5-3.8,2.3
				c-1.2,0.8-2.5,1.7-3.6,2.6c-0.6,0.4-1.2,0.9-1.8,1.4c-0.6,0.5-1.2,0.9-1.7,1.4c-4.5,3.9-8.5,8.4-12.1,13.1
				c-3.6,4.7-6.9,9.7-9.9,14.9c-1.5,2.6-2.9,5.2-4.2,7.9c-1.3,2.7-2.6,5.4-3.7,8.1l-0.2,0.5l-0.1-0.5l-11.1-56.8l0,0l-6.5-14.7
				l-3.3-7.4l-2.9-7.5l-1.4-3.8c-0.4-1.3-1.1-2.5-1.6-3.7l-3.4-7.3l-3.4-7.3c-0.5-1.2-1.2-2.4-1.8-3.6l-1.9-3.6h0.1
				c-2.7,1.5-5.4,3-8.2,4.3c-0.7,0.3-1.4,0.6-2.2,0.8c-0.7,0.2-1.5,0.4-2.2,0.6c-1.5,0.3-3,0.6-4.5,0.8
				C275.2,40.1,269.1,40.8,263,41.3L263,41.3z"/>
		</g>
		<g>
			<path class="st0" d="M265-27.4c1.1,3.5,2.4,7,3.7,10.4c1.3,3.4,2.8,6.8,4.3,10.2c0.8,1.7,1.5,3.3,2.3,5s1.6,3.3,2.5,4.9
				c0.9,1.6,1.7,3.3,2.7,4.9c0.9,1.6,1.9,3.2,2.8,4.8c1,1.6,2,3.1,3,4.6s2.1,3,3.2,4.5c1.1,1.4,2.3,2.9,3.5,4.3
				c0.6,0.7,1.2,1.4,1.8,2.1c0.6,0.7,1.2,1.4,1.9,2l2,1.9l2.1,1.8c0.7,0.6,1.4,1.1,2.2,1.7c0.7,0.6,1.5,1.1,2.3,1.6l1.1,0.8
				c0.4,0.2,0.8,0.5,1.2,0.7c0.8,0.4,1.6,0.9,2.4,1.3c0.8,0.4,1.7,0.8,2.5,1.1l2.6,0.9h0.1v0.1c0.5,0.7,1.1,1.4,1.7,2.1
				c0.6,0.7,1.2,1.4,1.9,2c0.6,0.7,1.3,1.3,2,1.9c0.7,0.6,1.4,1.2,2.1,1.8c0.4,0.3,0.7,0.5,1.1,0.8s0.7,0.5,1.1,0.8l1.2,0.7l1.2,0.6
				c0.4,0.2,0.8,0.3,1.3,0.5l0.6,0.2l0.7,0.2c0.4,0.1,0.9,0.2,1.3,0.3l1.4,0.1l0,0c1.3,0.1,2.6,0.1,3.9,0c0.7,0,1.3-0.1,2-0.1
				c0.7-0.1,1.3-0.1,2-0.2c1.3-0.2,2.6-0.4,3.9-0.7l1.9-0.5l1.9-0.6c0.6-0.2,1.3-0.4,1.9-0.6l1.8-0.7l1.8-0.7l1.8-0.9
				c1.2-0.6,2.4-1.1,3.5-1.8s2.3-1.3,3.4-2l3.2-2.3l0.8-0.6c0.3-0.2,0.5-0.4,0.8-0.6l1.5-1.3l1.5-1.3l0.8-0.6l0.7-0.7l2.8-2.8
				c1-0.9,1.8-1.9,2.6-3l2.6-3c0.8-1,1.5-2.1,2.3-3.2l2.3-3.2l0,0l-2.2,3.3c-0.8,1.1-1.5,2.2-2.3,3.3l-2.5,3.1c-0.8,1-1.7,2.1-2.6,3
				l-2.8,2.8l-0.7,0.7l-0.8,0.7l-1.5,1.3l-1.5,1.3c-0.3,0.2-0.5,0.4-0.8,0.6l-0.8,0.6l-3.2,2.3c-1.1,0.7-2.3,1.4-3.4,2.1
				c-1.1,0.7-2.3,1.3-3.5,1.9l-1.8,0.9l-1.8,0.7l-1.9,0.7c-0.6,0.2-1.3,0.4-1.9,0.6l-1.9,0.6l-1.9,0.5c-1.3,0.3-2.6,0.5-3.9,0.7
				c-0.7,0.1-1.3,0.1-2,0.2c-0.7,0.1-1.3,0.1-2,0.1c-1.3,0.1-2.7,0.1-4-0.1l0,0l-1.4-0.1c-0.5,0-0.9-0.2-1.4-0.3l-0.7-0.2l-0.7-0.2
				c-0.4-0.2-0.9-0.3-1.3-0.5l-1.3-0.6l-1.2-0.7c-0.4-0.2-0.8-0.5-1.2-0.8c-0.4-0.3-0.8-0.5-1.1-0.8c-0.7-0.6-1.4-1.2-2.1-1.8
				s-1.4-1.3-2-1.9c-0.6-0.7-1.3-1.3-1.9-2s-1.2-1.4-1.7-2.2l0.1,0.1l-2.6-0.9c-0.9-0.3-1.7-0.8-2.5-1.1c-0.9-0.4-1.6-0.9-2.5-1.3
				c-0.4-0.2-0.8-0.4-1.2-0.7l-1.2-0.8c-0.8-0.5-1.5-1-2.3-1.6c-0.7-0.6-1.5-1.1-2.2-1.7l-2.1-1.8l-2-1.9c-0.7-0.6-1.3-1.3-1.9-2
				s-1.3-1.4-1.8-2.1c-1.2-1.4-2.3-2.9-3.5-4.3c-1.1-1.5-2.2-3-3.2-4.5c-1.1-1.5-2-3.1-3-4.6c-1-1.6-1.9-3.2-2.8-4.8
				s-1.8-3.2-2.6-4.9c-0.9-1.6-1.7-3.3-2.5-5s-1.6-3.3-2.3-5c-1.5-3.4-2.9-6.8-4.2-10.2C267.3-20.3,266-23.8,265-27.4L265-27.4z"/>
		</g>
		<g>
			<path class="st0" d="M241.6,181c0,0.5-0.4,0.8-0.8,1.1c-0.4,0.3-0.7,0.6-1.2,0.8c-0.4,0.2-0.9,0.2-1.4,0.3c-0.5,0-0.9,0-1.4,0
				c-0.9-0.1-1.9-0.2-2.8-0.1c-0.4,0-0.9,0.2-1.3,0.3c-0.4,0.1-0.9,0.3-1.3,0.5c-0.8,0.4-1.7,0.8-2.3,1.4c-0.6,0.7-1.1,1.4-1.6,2.2
				l-0.7,1.2c-0.2,0.4-0.4,0.8-0.6,1.3c-0.3,0.4-0.7,0.8-1.1,1c-0.4,0.3-0.9,0.5-1.4,0.5v-0.4c0.4,0,0.8-0.1,1.2-0.2
				c0.4-0.1,0.8-0.2,1.2-0.4c0.8-0.3,1.5-0.7,2.2-1.2l0,0c-0.6,0.6-1.4,1.1-2.1,1.4c-0.4,0.2-0.8,0.3-1.2,0.5
				c-0.4,0.1-0.8,0.2-1.3,0.3v-0.4c0.4,0,0.8-0.2,1.1-0.4c0.4-0.2,0.7-0.6,0.9-0.9c0.2-0.4,0.4-0.8,0.6-1.2c0.2-0.4,0.4-0.8,0.7-1.2
				c0.5-0.8,1-1.6,1.7-2.3c0.3-0.4,0.7-0.6,1.2-0.9c0.4-0.2,0.8-0.4,1.3-0.6c0.4-0.2,0.9-0.3,1.3-0.5c0.5-0.1,0.9-0.3,1.4-0.3
				c1,0,1.9,0.1,2.8,0.2c0.9,0.1,1.9,0.2,2.7-0.1c0.4-0.2,0.8-0.4,1.2-0.7C241.1,181.8,241.5,181.4,241.6,181L241.6,181z"/>
		</g>
		<g>
			<path class="st0" d="M217.8,162c0,0,0.1,0.2,0.3,0.7c0.2,0.4,0.5,1,1.1,1.6c0.5,0.6,1.3,1.1,2.2,1.3c0.5,0,1,0,1.5-0.1
				s1-0.2,1.6-0.3c0.5-0.1,1.1-0.1,1.6-0.1s1.1,0.1,1.6,0.3s0.9,0.5,1.2,0.9s0.6,0.8,0.7,1.1c0.2,0.4,0.2,0.7,0.3,1.1
				c0.1,0.3,0.1,0.6,0.1,0.8c0,0.5,0,0.7,0,0.7l0,0c0,0-0.1-0.3-0.2-0.7c0-0.2-0.1-0.5-0.2-0.8c-0.1-0.3-0.2-0.6-0.4-1
				c-0.1-0.4-0.4-0.7-0.7-1s-0.7-0.6-1.1-0.7c-0.4-0.2-0.9-0.3-1.4-0.3s-1,0-1.5,0.1s-1,0.1-1.6,0.2c-0.5,0.1-1,0.1-1.6,0.1
				c-0.5-0.1-1-0.3-1.4-0.5c-0.4-0.3-0.7-0.6-1-0.9c-0.5-0.6-0.8-1.2-1-1.6C217.8,162.3,217.8,162,217.8,162L217.8,162z"/>
		</g>
		<g>
			<path class="st0" d="M201.4,156.6c0,0-1,0.3-2.5,1s-3.4,1.7-5.1,3.1c-0.8,0.7-1.6,1.4-2.3,2.2c-0.7,0.7-1.3,1.4-1.6,2.2
				c-0.3,0.7-0.4,1.4-0.5,1.9s-0.1,0.7-0.1,0.7h-0.1c0,0,0-0.3,0-0.8s0-1.2,0.2-2c0.1-0.4,0.3-0.8,0.6-1.2s0.6-0.8,1-1.2
				s0.7-0.8,1.2-1.1c0.4-0.4,0.8-0.7,1.3-1c1.8-1.3,3.8-2.3,5.3-2.9C200.3,156.8,201.4,156.6,201.4,156.6L201.4,156.6z"/>
		</g>
		<g>
			<path class="st0" d="M203.6,168.9c0,0,0.5,0.1,1.2-0.1c0.3-0.1,0.7-0.2,1.1-0.4c0.4-0.2,0.8-0.4,1.2-0.7s0.7-0.6,1-1
				c0.3-0.3,0.6-0.6,0.8-0.9c0.3-0.3,0.4-0.5,0.6-0.6c0.1-0.2,0.2-0.2,0.2-0.2l0,0c0,0,0,0.1-0.1,0.3s-0.2,0.5-0.4,0.8
				s-0.5,0.7-0.8,1s-0.7,0.6-1.1,0.9c-0.4,0.3-0.9,0.5-1.3,0.7c-0.4,0.2-0.9,0.3-1.2,0.3C204,169,203.5,168.9,203.6,168.9
				L203.6,168.9z"/>
		</g>
		<g>
			<path class="st0" d="M232.9,159.7c0,0,0.4,1.7,1.3,4.1c0.2,0.6,0.5,1.2,0.9,1.9c0.3,0.7,0.7,1.3,1.3,1.9c0.5,0.6,1.2,1.1,1.9,1.6
				s1.4,1,2.2,1.4c0.7,0.5,1.5,0.9,2.2,1.4s1.4,1,2,1.5s1.2,1.1,1.7,1.6c0.2,0.3,0.5,0.6,0.7,0.8c0.2,0.3,0.4,0.6,0.6,0.8
				c0.2,0.3,0.3,0.6,0.5,0.8c0.1,0.3,0.3,0.5,0.4,0.8c0.2,0.5,0.4,0.9,0.4,1.3c0.1,0.8,0.2,1.2,0.2,1.2l0,0c0,0-0.1-0.4-0.3-1.1
				c-0.1-0.4-0.3-0.8-0.5-1.2c-0.3-0.5-0.5-1-0.9-1.5c-0.2-0.3-0.4-0.5-0.6-0.8c-0.2-0.3-0.5-0.5-0.7-0.8c-0.5-0.5-1.1-1.1-1.7-1.6
				c-0.6-0.5-1.3-1-2-1.5s-1.4-1-2.1-1.5c-0.7-0.5-1.4-1-2.1-1.5c-0.7-0.5-1.4-1-1.9-1.7c-0.6-0.6-0.9-1.3-1.3-2
				c-0.3-0.7-0.6-1.3-0.8-1.9C233.1,161.4,232.8,159.7,232.9,159.7L232.9,159.7z"/>
		</g>
		<g>
			<path class="st1" d="M216.7,141.3"/>
		</g>
		<g>
			<path class="st0" d="M193,126.1c-1.1-0.3-2.3-0.5-3.5-0.6c-0.6,0-1.2,0-1.7,0.1c-0.3,0.1-0.6,0.1-0.8,0.2
				c-0.1,0.1-0.3,0.1-0.4,0.2c-0.1,0.1-0.2,0.2-0.3,0.2l0,0l0,0c-0.7,0.4-1.4,0.7-2.1,0.8c-0.7,0.2-1.5,0.3-2.2,0.3
				c-0.4,0-0.8,0-1.1-0.1c-0.4-0.1-0.7-0.1-1.1-0.2c-0.4-0.1-0.7-0.2-1-0.4c-0.3-0.1-0.7-0.3-1-0.5l0,0c0.7,0.2,1.4,0.4,2.1,0.6
				c0.4,0.1,0.7,0.1,1.1,0.2c0.2,0,0.4,0,0.5,0c0.2,0,0.4,0,0.5,0c0.7,0,1.4-0.1,2.1-0.2c0.7-0.1,1.4-0.4,2-0.7l-0.1,0.1
				c0.1-0.2,0.3-0.2,0.4-0.3c0.1-0.1,0.3-0.1,0.4-0.2c0.3-0.1,0.6-0.2,0.9-0.2c0.6-0.1,1.2,0,1.8,0
				C190.7,125.4,191.9,125.7,193,126.1L193,126.1z"/>
		</g>
		<g>
			<path class="st0" d="M172.8,129.3c0,0-0.2,0.7-0.9,1.4c-0.3,0.4-0.8,0.8-1.3,1.1s-1.1,0.7-1.7,0.9c-0.6,0.3-1.2,0.5-1.8,0.7
				c-0.3,0.1-0.6,0.2-0.9,0.2c-0.3,0-0.5,0.1-0.8,0.1c-0.2,0-0.5,0-0.7,0s-0.4,0-0.5,0c-0.3,0-0.5,0-0.5,0l0,0c0,0,0.2,0,0.4-0.1
				c0.3-0.1,0.7-0.2,1.1-0.3c0.5-0.1,1-0.2,1.6-0.4c0.6-0.1,1.2-0.3,1.8-0.5c1.2-0.4,2.3-1.1,3-1.8
				C172.5,129.9,172.8,129.2,172.8,129.3L172.8,129.3z"/>
		</g>
		<g>
			<path class="st0" d="M159.2,141.3c0.8,0.3,1.4,0.9,1.9,1.5c0.5,0.7,0.8,1.5,0.8,2.3V145c0.8,0.6,1.6,1.2,2.4,1.9
				c0.4,0.3,0.7,0.7,1.1,1c0.4,0.4,0.7,0.7,1,1.1c0.3,0.4,0.6,0.8,0.9,1.2c0.1,0.2,0.3,0.4,0.4,0.7c0.1,0.2,0.2,0.5,0.3,0.7
				s0.2,0.5,0.3,0.7c0.1,0.3,0.2,0.5,0.2,0.8s0.1,0.5,0.1,0.8l-0.1,0.8v-0.1c0.3,1.3,0.5,2.6,0.6,4c0.1,1.3,0.1,2.7,0,4
				s-0.4,2.7-1,3.9c-0.2,0.3-0.3,0.6-0.5,0.9c-0.2,0.3-0.4,0.6-0.7,0.8c-0.2,0.2-0.5,0.4-0.8,0.6c-0.3,0.2-0.6,0.3-0.9,0.4l0,0
				c0.3-0.2,0.6-0.3,0.8-0.5c0.3-0.2,0.5-0.4,0.7-0.7c0.2-0.2,0.4-0.5,0.6-0.8c0.2-0.3,0.3-0.6,0.4-0.9c0.5-1.2,0.7-2.5,0.8-3.8
				s0.1-2.6,0-4c-0.1-1.3-0.3-2.6-0.5-3.9l0,0v-0.1l0.1-0.7c0-0.2,0-0.5-0.1-0.7c0-0.2-0.1-0.5-0.2-0.7c-0.1-0.2-0.2-0.5-0.3-0.7
				s-0.2-0.5-0.3-0.7s-0.2-0.4-0.4-0.6c-0.3-0.4-0.6-0.8-0.9-1.2c-0.3-0.4-0.6-0.8-1-1.1c-0.3-0.4-0.7-0.7-1.1-1.1
				c-0.7-0.7-1.5-1.3-2.3-1.9l0,0l0,0c0-0.8-0.3-1.6-0.7-2.3C160.5,142.2,159.9,141.7,159.2,141.3L159.2,141.3z"/>
		</g>
		<g>
			<path class="st0" d="M228.9,176.6c0,0,0.1,0.3,0.3,0.7s0.5,1,0.9,1.5c0.2,0.3,0.4,0.5,0.6,0.7c0.2,0.2,0.3,0.5,0.5,0.7
				c0.1,0.2,0.3,0.4,0.3,0.5c0.1,0.1,0.1,0.2,0.1,0.2l0,0c0,0-0.3-0.1-0.7-0.5c-0.2-0.2-0.4-0.4-0.6-0.6c-0.2-0.3-0.4-0.5-0.5-0.8
				c-0.3-0.6-0.6-1.2-0.7-1.7C228.9,176.9,228.9,176.6,228.9,176.6L228.9,176.6z"/>
		</g>
		<g>
			<path class="st0" d="M220.7,178.8c-0.5-0.5-1-1-1.2-1.7c0-0.2,0-0.4,0-0.5s0.1-0.2,0.1-0.3s0.1-0.2,0.2-0.2
				c0.2-0.3,0.6-0.5,0.9-0.6l0,0c0.6-0.3,1.2-0.5,1.8-0.5s1.3,0.1,1.8,0.4l0,0c0.4,0.1,0.9,0.2,1.4,0.1c0.2,0,0.5-0.1,0.7-0.1
				c0.2-0.1,0.4-0.2,0.6-0.3c0.1,0,0.2-0.1,0.3-0.2c0.1-0.1,0.2-0.1,0.3-0.2c0.2-0.1,0.3-0.3,0.5-0.5s0.3-0.4,0.4-0.6l0.4-0.6l0,0
				c-0.1,0.2-0.2,0.5-0.2,0.7c-0.1,0.2-0.2,0.5-0.4,0.7c-0.1,0.2-0.3,0.4-0.5,0.6c-0.1,0.1-0.2,0.2-0.3,0.3s-0.2,0.2-0.3,0.2
				c-0.2,0.1-0.5,0.3-0.7,0.3c-0.3,0.1-0.5,0.1-0.8,0.2c-0.5,0-1.1,0-1.6-0.2l0,0l0,0c-0.5-0.3-1-0.5-1.6-0.5s-1.2,0.1-1.7,0.4l0,0
				l0,0c-0.3,0.1-0.6,0.3-0.8,0.5c-0.1,0.1-0.1,0.1-0.1,0.2c0,0.1-0.1,0.1-0.1,0.2c0,0.1,0,0.3,0,0.5
				C219.8,177.7,220.2,178.3,220.7,178.8L220.7,178.8z"/>
		</g>
		<g>
			<path class="st0" d="M203.6,162.5c0,0-0.6,0-1.4,0.3c-0.8,0.3-1.8,0.8-2.7,1.5c-0.4,0.4-0.8,0.8-1.2,1.1c-0.4,0.4-0.7,0.7-1,1.1
				c-0.1,0.2-0.3,0.3-0.4,0.4c-0.1,0.1-0.2,0.3-0.3,0.4c-0.2,0.2-0.3,0.3-0.3,0.3l0,0c0,0,0.1-0.1,0.2-0.4c0.1-0.2,0.3-0.6,0.5-0.9
				c0.2-0.4,0.5-0.8,0.9-1.2s0.9-0.8,1.3-1.1c1-0.7,2.1-1.2,2.9-1.3C203,162.5,203.6,162.5,203.6,162.5L203.6,162.5z"/>
		</g>
		<g>
			<path class="st0" d="M223.4,154.2c0,0-0.3,0.2-0.8,0.5s-1.1,0.7-1.7,1.2c-0.3,0.2-0.4,0.5-0.6,0.8c-0.1,0.3-0.3,0.6-0.4,0.8
				c-0.2,0.5-0.4,0.8-0.4,0.8l0,0c0,0,0-0.4,0.1-1c0.1-0.3,0.1-0.6,0.3-1c0.2-0.3,0.4-0.7,0.8-0.9c0.6-0.5,1.3-0.8,1.8-1
				C223.1,154.4,223.4,154.2,223.4,154.2L223.4,154.2z"/>
		</g>
		<g>
			<path class="st0" d="M203.6,162.5c-0.8,0.1-1.6,0.3-2.3,0.8c-0.2,0.1-0.3,0.3-0.4,0.4c-0.1,0.2-0.2,0.3-0.2,0.5
				c-0.1,0.2-0.1,0.4-0.1,0.6c0,0.2,0,0.4,0,0.6c0.1,0.4,0.2,0.8,0.3,1.1c0.2,0.4,0.4,0.7,0.6,1c0.3,0.3,0.6,0.6,0.9,0.7
				c0.2,0.1,0.3,0.2,0.5,0.2c0.2,0.1,0.4,0.1,0.6,0.1l0,0c0.8-0.2,1.6-0.5,2.2-1.1c0.6-0.6,0.9-1.3,1-2.1c0-0.2,0-0.4,0-0.6
				c0-0.2,0-0.4-0.1-0.6c-0.1-0.2-0.2-0.4-0.3-0.5c-0.1-0.2-0.3-0.3-0.4-0.4c-0.3-0.3-0.7-0.4-1.1-0.6
				C204.4,162.6,204,162.6,203.6,162.5z M203.6,162.5c0.4,0,0.9,0,1.3,0.1c0.4,0.1,0.9,0.2,1.3,0.5c0.2,0.1,0.4,0.3,0.5,0.4
				c0.2,0.2,0.3,0.4,0.4,0.6c0.2,0.4,0.3,0.9,0.2,1.4s-0.2,0.9-0.4,1.3c0,0.1-0.1,0.2-0.2,0.3c-0.1,0.1-0.1,0.2-0.2,0.3
				c-0.1,0.2-0.3,0.4-0.5,0.5c-0.3,0.3-0.7,0.6-1.2,0.7c-0.4,0.2-0.8,0.3-1.3,0.4l0,0l0,0c-0.2,0-0.4,0-0.7-0.1
				c-0.2,0-0.4-0.1-0.6-0.2c-0.4-0.2-0.7-0.5-1-0.9c-0.3-0.3-0.5-0.7-0.6-1.1c-0.1-0.2-0.2-0.4-0.2-0.6c0-0.2-0.1-0.4-0.1-0.6
				c0-0.2,0-0.4,0-0.6c0-0.2,0.1-0.4,0.1-0.6c0.1-0.2,0.2-0.4,0.3-0.6c0.1-0.2,0.3-0.3,0.4-0.4C201.9,162.8,202.7,162.6,203.6,162.5
				z"/>
		</g>
		<g>
			<path class="st0" d="M226,158c0.2-0.4,0.5-0.8,0.7-1.2c0.1-0.2,0.2-0.4,0.2-0.6c0-0.2,0.1-0.4,0-0.6c-0.1-0.4-0.4-0.7-0.8-0.9
				c-0.4-0.2-0.8-0.2-1.3-0.3h-0.7c-0.2,0-0.4,0-0.6,0.1c-0.4,0.1-0.8,0.3-1.2,0.5c-0.3,0.2-0.6,0.6-0.7,1c-0.1,0.2-0.1,0.4-0.1,0.6
				c0,0.2,0,0.4,0,0.6v-0.1c0.2,0.4,0.4,0.8,0.7,1.1s0.7,0.5,1.1,0.6c0.2,0,0.4,0.1,0.7,0c0.2,0,0.5-0.1,0.7-0.1
				C225.2,158.6,225.7,158.4,226,158z M226,158c-0.3,0.4-0.8,0.6-1.2,0.8c-0.2,0.1-0.4,0.2-0.7,0.2c-0.2,0.1-0.5,0.1-0.8,0.1
				c-0.5,0-1-0.3-1.4-0.6c-0.4-0.4-0.7-0.8-0.9-1.3l0,0l0,0c0-0.2,0-0.5,0-0.7s0.1-0.5,0.2-0.7c0.2-0.5,0.5-0.9,0.9-1.1
				c0.4-0.3,0.9-0.4,1.3-0.5c0.2,0,0.5-0.1,0.7-0.1l0.7,0.1c0.2,0,0.5,0.1,0.7,0.1c0.2,0.1,0.5,0.1,0.7,0.2c0.2,0.1,0.4,0.2,0.6,0.4
				c0.2,0.2,0.3,0.4,0.3,0.7c0,0.2,0,0.5-0.1,0.7s-0.2,0.4-0.3,0.6C226.5,157.3,226.3,157.7,226,158z"/>
		</g>
		<g>
			<path class="st0" d="M215.5,149.9c0,0,0.6-0.4,1.5-0.9c0.5-0.2,1-0.5,1.6-0.7s1.3-0.4,2-0.6c0.3-0.1,0.7-0.1,1-0.2
				c0.3,0,0.7,0,1,0c0.3,0.1,0.7,0.1,1,0.2c0.3,0.1,0.6,0.2,0.8,0.3s0.5,0.2,0.6,0.3c0.2,0.1,0.3,0.2,0.4,0.3
				c0.2,0.2,0.4,0.3,0.4,0.3l0,0c0,0-0.2-0.1-0.4-0.2c-0.1-0.1-0.3-0.2-0.5-0.2c-0.2-0.1-0.4-0.1-0.6-0.2c-0.5-0.1-1.1-0.2-1.7-0.3
				c-0.3,0-0.6,0-1,0c-0.3,0-0.7,0-1,0.1c-0.7,0.1-1.3,0.3-1.9,0.5c-0.6,0.2-1.2,0.4-1.6,0.6C216.1,149.6,215.5,149.9,215.5,149.9
				L215.5,149.9z"/>
		</g>
		<ellipse class="st0" cx="203.9" cy="166" rx="3.1" ry="2.6"/>
		<circle class="st0" cx="223.9" cy="156.6" r="2.4"/>
		<path class="st2" d="M205.3,166.7c0,0,0.6-1.8-1.9-2.2"/>
		<path class="st2" d="M223.4,155.3c0,0,1.2-0.3,1.5,0.4"/>
		<g>
			<path class="st0" d="M230.5,187.9c0,0,0.1,0,0.2,0c0.2,0,0.4,0,0.6,0c0.1,0,0.3,0,0.4,0c0.1,0,0.3,0,0.5-0.1
				c0.3-0.1,0.6-0.2,0.9-0.4c0.3-0.2,0.5-0.4,0.7-0.7c0.2-0.2,0.4-0.5,0.6-0.7c0.3-0.4,0.6-0.7,0.6-0.7l0,0c0,0,0,0.4-0.3,0.9
				c-0.1,0.2-0.3,0.5-0.6,0.8s-0.6,0.5-0.9,0.7c-0.3,0.2-0.7,0.3-1,0.4c-0.2,0-0.3,0-0.5,0.1c-0.2,0-0.3,0-0.5,0
				c-0.3,0-0.5-0.1-0.7-0.1C230.6,188,230.5,188,230.5,187.9L230.5,187.9z"/>
		</g>
	</g>
</g>
<g id="fground">
</g>
</svg>
