<?xml version="1.0" encoding="utf-8"?>
<!-- Generator: Adobe Illustrator 19.2.0, SVG Export Plug-In . SVG Version: 6.00 Build 0)  -->
<svg version="1.1" id="Layer_1" xmlns="http://www.w3.org/2000/svg" xmlns:xlink="http://www.w3.org/1999/xlink" x="0px" y="0px"
	 viewBox="0 0 595.3 425.2" style="enable-background:new 0 0 595.3 425.2;" xml:space="preserve">
<style type="text/css">
	.st0{fill:#231F20;}
	.st1{fill:none;}
</style>
<g id="bkg">
	<g>
		<g>
			<path class="st0" d="M302.9,109.2c0,0,1.4,0.9,3.8,2.7c2.4,1.8,5.7,4.5,9.4,8.1c1.8,1.8,3.8,3.7,5.8,5.9c2,2.2,4,4.5,6.1,7
				c2,2.5,4,5.2,5.9,8c1,1.4,1.9,2.8,2.8,4.3s1.8,2.9,2.6,4.4c1.7,3,3.3,6,4.7,9.1c0.4,0.8,0.7,1.5,1.1,2.3c0.3,0.8,0.6,1.5,1,2.3
				c0.3,0.8,0.6,1.5,0.9,2.3s0.6,1.5,0.8,2.3c0.3,0.8,0.5,1.5,0.8,2.2c0.2,0.8,0.5,1.5,0.7,2.2c0.5,1.5,0.9,2.9,1.3,4.4
				c0.4,1.4,0.8,2.8,1.1,4.2c0.3,1.4,0.6,2.7,0.8,3.9c0.3,1.3,0.4,2.5,0.6,3.6c0.2,1.2,0.4,2.3,0.5,3.3c0.2,2.1,0.5,3.9,0.6,5.4
				c0.2,3,0.3,4.7,0.3,4.7l0,0c0,0-0.2-1.7-0.4-4.7c-0.1-1.5-0.4-3.3-0.7-5.4c-0.1-1-0.3-2.1-0.5-3.3c-0.2-1.1-0.4-2.4-0.7-3.6
				c-0.3-1.3-0.6-2.6-0.9-3.9c-0.3-1.4-0.7-2.7-1.1-4.1s-0.8-2.9-1.3-4.3c-0.2-0.7-0.5-1.5-0.7-2.2c-0.3-0.7-0.5-1.5-0.8-2.2
				c-0.3-0.8-0.6-1.5-0.8-2.3c-0.3-0.8-0.6-1.5-0.9-2.3s-0.6-1.5-0.9-2.3s-0.7-1.5-1-2.3c-1.4-3.1-3-6.1-4.6-9.1
				c-0.8-1.5-1.7-2.9-2.6-4.4c-0.9-1.4-1.8-2.9-2.8-4.3c-1.9-2.8-3.8-5.5-5.8-8s-4-4.9-6-7c-2-2.2-3.9-4.1-5.8-5.9
				c-3.7-3.6-7-6.3-9.4-8.1C304.3,110.1,302.8,109.2,302.9,109.2L302.9,109.2z"/>
		</g>
		<g>
			<path class="st0" d="M170.4,149.1c0,0,5.4,6.2,12.1,16.5c1.7,2.6,3.4,5.4,5.2,8.5c1.8,3,3.6,6.3,5.3,9.7c1.7,3.4,3.5,7,5.1,10.7
				c0.4,0.9,0.8,1.9,1.2,2.8s0.8,1.9,1.1,2.8c0.8,1.9,1.5,3.8,2.2,5.7c0.7,1.9,1.3,3.9,2,5.8c0.6,1.9,1.2,3.9,1.8,5.8
				c0.5,2,1.1,3.9,1.5,5.8s0.9,3.8,1.3,5.7c0.3,1.9,0.7,3.7,1,5.6c0.3,1.8,0.5,3.6,0.8,5.4c0.2,1.8,0.4,3.5,0.5,5.1
				c0.2,1.7,0.2,3.3,0.3,4.8s0.1,3,0.2,4.4c0,1.4,0.1,2.7,0.1,4c-0.1,2.5-0.1,4.7-0.2,6.5c-0.3,3.6-0.4,5.6-0.4,5.6l0,0
				c0,0,0.1-2,0.3-5.6c0.1-1.8,0.1-4,0.1-6.5c0-1.2-0.1-2.6-0.1-4s-0.1-2.9-0.2-4.4c-0.1-1.5-0.2-3.1-0.4-4.8
				c-0.2-1.6-0.4-3.3-0.6-5.1c-0.3-1.7-0.5-3.5-0.8-5.3s-0.7-3.7-1-5.6c-0.4-1.9-0.8-3.8-1.3-5.7c-0.5-1.9-1-3.8-1.5-5.8
				c-0.6-1.9-1.1-3.9-1.7-5.8c-0.7-1.9-1.2-3.9-2-5.8c-0.7-1.9-1.4-3.9-2.2-5.7c-0.4-0.9-0.8-1.9-1.1-2.8c-0.4-0.9-0.8-1.9-1.2-2.8
				c-1.6-3.7-3.3-7.3-5-10.7c-1.7-3.4-3.5-6.7-5.3-9.7c-1.7-3.1-3.5-5.9-5.1-8.5C175.7,155.3,170.4,149.1,170.4,149.1L170.4,149.1z"
				/>
		</g>
		<g>
			<path class="st1" d="M378.1,177.5"/>
		</g>
		<g>
			<path class="st0" d="M342.7,239.6l-0.5,0.7c-0.2,0.2-0.4,0.5-0.6,0.7s-0.4,0.4-0.7,0.6c-0.2,0.2-0.5,0.4-0.8,0.5
				c-1.1,0.6-2.4,0.7-3.5,0.2l0,0c-0.6-0.1-1.1-0.5-1.4-1s-0.3-1.1-0.3-1.7c0-1.2,0.3-2.3,0.6-3.4l0.4-1.7c0.1-0.6,0.2-1.1,0.3-1.7
				l0.2-1.7c0.1-0.6,0.2-1.1,0.4-1.7c0.1-0.6,0.3-1.1,0.5-1.7c0.1-0.6,0.4-1.1,0.6-1.6s0.5-1,0.7-1.6c0.3-0.5,0.6-1,0.9-1.5
				c0.4-0.5,0.7-0.9,1.1-1.3s0.8-0.8,1.3-1.2c0.9-0.7,1.9-1.3,3-1.6l0,0l0.7-0.2c0.2-0.1,0.4-0.2,0.7-0.4c0.2-0.1,0.4-0.3,0.6-0.5
				s0.3-0.4,0.5-0.6s0.3-0.4,0.5-0.6c0.1-0.2,0.3-0.4,0.4-0.6c0.3-0.4,0.5-0.9,0.7-1.4c0.8-1.9,1.4-3.9,1.7-5.9l0,0l0,0
				c3.4-7.4,7.3-14.7,12-21.5c4.7-6.7,10.4-12.9,17.5-17.1c1.8-1.1,3.6-1.9,5.5-2.7c1.9-0.7,3.9-1.4,5.9-1.8c4-0.9,8.2-1.1,12.3-1.1
				c4.1,0,8.2,0.3,12.3,0.2c2,0,4.1-0.1,6.1-0.5c1.9-0.5,3.9-1.4,6-1.5c1-0.1,2.1,0,3.1,0.4l0.7,0.3c0.2,0.1,0.4,0.2,0.7,0.3
				c0.5,0.2,1,0.3,1.5,0.4s1,0.1,1.5,0.1s1-0.2,1.4-0.4c0.9-0.4,1.9-0.8,2.9-1.2c0.5-0.2,1-0.3,1.5-0.3s1.1,0.1,1.6,0.2
				c1,0.3,2,0.7,2.9,1.1c1.9,0.8,3.7,1.8,5.7,2.3s4,1,6,1.3s4.1,0.5,6.1,0.8s4.1,0.6,6,1.3c0.5,0.2,1,0.4,1.4,0.6
				c0.5,0.3,0.9,0.6,1.2,1c0.7,0.8,1.3,1.6,1.9,2.4s1.2,1.7,1.9,2.4c0.7,0.7,1.4,1.4,2.4,1.5c2,0.1,4-0.5,6.1-0.4
				c0.3,0,0.5,0.1,0.8,0.1l0.4,0.1l0.3,0.2c0.5,0.2,0.9,0.6,1.3,0.9c0.8,0.7,1.5,1.4,2.2,2.2c1.3,1.6,2.6,3.2,3.9,4.8
				c2.7,3.1,6.4,5.1,9.1,8.2c2.6,3.2,4.8,6.7,7,10.1c1.1,1.7,2.2,3.5,3.1,5.3c0.9,1.8,1.9,3.7,2.5,5.6c0.6,2,1.1,4,1.6,5.9
				c0.5,2,1,4,1.8,5.8c1.5,3.8,3.2,7.6,4.7,11.3c0.8,1.9,1.7,3.7,2.4,5.7c0.4,1,0.7,1.9,0.9,3c0.2,1,0.2,2.1,0.3,3.1
				c0,2.1-0.1,4.1-0.2,6.2c-0.1,2-0.2,4.1,0.2,6.1c0.5,1.9,1.3,3.9,2,5.8s1.4,3.9,1.6,6c0,2.1-0.4,4.1-0.8,6.1c-0.5,2-1.1,4-1.8,5.9
				s-1.5,3.8-2.5,5.6c-0.5,0.9-1.3,1.7-2.1,2.4c-0.8,0.7-1.6,1.3-2.4,1.9c-3.7,2.1-4.9,6.3-6.3,10.1c-0.7,1.9-1.3,3.9-2,5.8
				c-0.7,1.9-1.5,3.8-2.6,5.6c-0.3,0.4-0.6,0.9-0.9,1.3s-0.8,0.7-1.2,1c-0.8,0.6-1.7,1.1-2.6,1.6c-1.8,1-3.6,1.9-5.4,3
				c-0.9,0.6-1.6,1.2-2.2,2s-1.1,1.7-1.5,2.6c-0.9,1.8-1.7,3.7-2.6,5.6c-0.5,0.9-1,1.8-1.6,2.6c-0.6,0.8-1.5,1.5-2.5,1.9
				c-1.9,0.9-3.9,1.4-5.9,1.9c-4,0.9-7.7,2.7-11.8,3.6c-1,0.2-2.1,0.2-3.1,0.1l-3.1-0.2c-1,0-2-0.1-3.1,0c-1,0.1-2,0.5-3,0.8
				c-2,0.6-3.9,1.3-6,1.4c-1,0.1-2.1,0.1-3.1-0.2c-1-0.3-1.9-0.7-2.7-1.4l0,0c0.8,0.7,1.7,1.1,2.7,1.4s2,0.3,3,0.2
				c2-0.2,4-0.8,6-1.4c1-0.3,2-0.6,3-0.8c1-0.1,2.1-0.1,3.1,0l3.1,0.2c1,0,2,0.1,3-0.2c4-0.9,7.7-2.8,11.7-3.6c2-0.5,4-1.1,5.8-1.9
				c0.9-0.4,1.8-1,2.4-1.8s1.1-1.7,1.6-2.6c0.9-1.8,1.7-3.7,2.6-5.6c0.4-0.9,0.9-1.8,1.5-2.7c0.6-0.9,1.4-1.5,2.3-2.1
				c1.7-1.1,3.6-2,5.4-3s3.6-2,4.6-3.8c1.1-1.7,1.8-3.6,2.5-5.6c0.7-1.9,1.3-3.9,2-5.8c0.7-1.9,1.4-3.9,2.3-5.7
				c0.2-0.5,0.5-0.9,0.8-1.4c0.3-0.4,0.6-0.9,1-1.2c0.7-0.7,1.6-1.4,2.4-2s1.6-1.2,2.4-1.9c0.8-0.7,1.5-1.4,1.9-2.3
				c1-1.8,1.8-3.7,2.5-5.6s1.3-3.9,1.8-5.9s0.9-4,0.8-6c-0.2-2-0.9-3.9-1.6-5.8c-0.7-1.9-1.5-3.8-2-5.8c-0.3-1-0.3-2.1-0.3-3.1
				s0-2.1,0.1-3.1c0.1-2,0.3-4.1,0.3-6.1c0-1,0-2-0.2-3s-0.6-1.9-0.9-2.9c-0.7-1.9-1.6-3.8-2.4-5.7c-1.5-3.8-3.2-7.5-4.7-11.4
				c-0.8-1.9-1.3-3.9-1.8-5.9s-1-4-1.6-5.9c-0.6-1.9-1.6-3.8-2.5-5.6c-0.9-1.8-2-3.6-3.1-5.3c-2.2-3.5-4.4-6.9-7-10.1
				c-1.3-1.6-3-2.8-4.5-4.1c-1.6-1.3-3.3-2.5-4.6-4.1c-1.3-1.6-2.5-3.2-3.9-4.8c-0.7-0.8-1.4-1.5-2.1-2.2c-0.8-0.6-1.6-1.3-2.6-1.2
				c-2-0.1-4,0.6-6.1,0.4c-0.5,0-1.1-0.2-1.5-0.5s-0.8-0.7-1.2-1.1c-0.7-0.8-1.3-1.6-1.9-2.4s-1.2-1.7-1.9-2.4
				c-0.3-0.4-0.7-0.7-1.1-0.9c-0.4-0.2-0.9-0.4-1.4-0.6c-1.9-0.6-4-1-6-1.2c-2-0.3-4.1-0.5-6.1-0.8s-4-0.8-6-1.3s-3.9-1.5-5.7-2.3
				c-1.8-0.8-3.8-1.8-5.8-0.9c-1,0.3-1.9,0.8-2.8,1.1c-0.5,0.2-1,0.4-1.5,0.4s-1.1,0-1.6-0.1s-1-0.2-1.5-0.4
				c-0.2-0.1-0.5-0.2-0.7-0.3l-0.7-0.3c-0.9-0.4-2-0.5-3-0.4c-2,0.2-3.9,1-5.9,1.5c-2,0.3-4.1,0.4-6.2,0.5
				c-4.1,0.1-8.2-0.2-12.3-0.2c-4.1,0-8.2,0.2-12.2,1.1c-2,0.4-4,1-5.9,1.7c-1.9,0.8-3.8,1.6-5.5,2.7c-7.1,4.1-12.7,10.4-17.4,17
				c-4.7,6.7-8.6,14-12,21.4l0,0c-0.4,2-0.9,4-1.7,5.9c-0.2,0.5-0.4,0.9-0.7,1.4c-0.1,0.2-0.3,0.4-0.4,0.7c-0.1,0.2-0.3,0.4-0.5,0.6
				s-0.3,0.4-0.5,0.6s-0.4,0.3-0.6,0.5c-0.2,0.1-0.5,0.3-0.7,0.4l-0.8,0.2l0,0c-1.1,0.3-2.1,0.9-3,1.6c-0.4,0.4-0.9,0.7-1.3,1.2
				c-0.4,0.4-0.7,0.9-1.1,1.3c-0.3,0.5-0.6,0.9-0.9,1.5c-0.2,0.5-0.6,1-0.7,1.5c-0.2,0.5-0.5,1.1-0.6,1.6c-0.2,0.6-0.4,1.1-0.5,1.6
				c-0.1,0.6-0.3,1.1-0.4,1.7l-0.2,1.7c-0.1,0.6-0.2,1.1-0.3,1.7l-0.4,1.7c-0.3,1.1-0.5,2.2-0.6,3.4c0,0.6,0,1.2,0.3,1.7
				c0.2,0.5,0.7,0.8,1.3,1l0,0l0,0c1.1,0.5,2.4,0.4,3.4-0.2c0.3-0.1,0.5-0.3,0.7-0.5s0.4-0.4,0.7-0.6c0.2-0.2,0.4-0.5,0.6-0.7
				L342.7,239.6L342.7,239.6z"/>
		</g>
		<g>
			<path class="st0" d="M336.7,242.4c-0.5,0-1.1,0-1.6,0.1s-1.1,0.3-1.4,0.7c-0.1,0.1-0.2,0.2-0.2,0.3c0,0.1-0.1,0.2-0.1,0.4
				c0,0.1,0,0.3-0.1,0.4v0.4c0,0.1,0.1,0.3,0.1,0.4l0.1,0.4l0.3,0.7l0,0l0,0c0.5,3.2,1,6.4,1.4,9.6c0.4,3.2,0.6,6.5,0.7,9.7
				c0,0.8,0.1,1.6,0,2.4v1.2l-0.1,1.2l-0.4,4.9c-0.1,1.6-0.3,3.2-0.5,4.8c-0.2,1.6-0.4,3.2-0.6,4.8v0.1l-0.1,0.1
				c-0.9,0.8-1.6,1.8-2.2,2.8c-0.1,0.3-0.2,0.5-0.3,0.8l-0.1,0.4v0.4c0,0.3,0,0.6,0.2,0.8c0.1,0.3,0.3,0.5,0.5,0.7s0.4,0.4,0.7,0.5
				c0.2,0.2,0.5,0.3,0.8,0.4c0.6,0.2,1.2,0.3,1.7,0.3c0.3,0,0.6,0,0.9-0.1s0.6-0.2,0.8-0.3c0.3-0.1,0.5-0.3,0.8-0.5s0.5-0.4,0.7-0.6
				l0,0c-0.2,0.2-0.4,0.4-0.7,0.6c-0.2,0.2-0.5,0.4-0.8,0.5c-0.3,0.2-0.6,0.3-0.9,0.4s-0.6,0.1-0.9,0.2c-0.6,0-1.3-0.1-1.9-0.3
				c-0.3-0.1-0.6-0.2-0.9-0.4c-0.3-0.2-0.5-0.4-0.8-0.6c-0.2-0.3-0.4-0.5-0.6-0.8s-0.2-0.6-0.2-0.9v-0.5l0.1-0.5
				c0.1-0.3,0.2-0.6,0.3-0.9c0.5-1.2,1.3-2.1,2.2-3l-0.1,0.1c0.5-3.2,0.8-6.4,1.1-9.6l0.4-4.8l0.1-1.2v-1.2c0-0.8,0-1.6,0-2.4
				c-0.1-3.2-0.3-6.5-0.7-9.7c-0.3-3.2-0.7-6.4-1.2-9.6l0,0l-0.3-0.8l-0.1-0.4c0-0.1-0.1-0.3-0.1-0.4V244c0-0.1,0-0.3,0.1-0.4
				c0-0.1,0.1-0.3,0.2-0.4c0-0.1,0.2-0.2,0.3-0.3c0.4-0.4,1-0.6,1.5-0.7C335.6,242.3,336.1,242.3,336.7,242.4L336.7,242.4z"/>
		</g>
		<g>
			<path class="st0" d="M445.1,404.2c3.5-2,6.5-4.8,8.5-8.3s3-7.5,3.3-11.4c0.4-4,0.2-8-0.1-12c-0.1-2-0.3-4-0.4-6c0-2,0-4-0.1-6
				c-0.2-2-0.4-4-0.9-5.9s-1.3-3.8-2.6-5.3c-1.2-1.6-2.9-2.8-4.4-4.1c-1.5-1.3-3-2.6-4.5-3.9c-6.1-5.2-12.3-10.2-18.6-15.3l-4.7-3.8
				l-2.3-1.9l-1.2-0.9l-1.2-0.8l-2.5-1.6c-0.8-0.6-1.7-1-2.6-1.5s-1.7-1-2.6-1.4l-2.7-1.3c-3.6-1.6-7.4-3.1-11.3-4
				s-7.9-1.5-11.9-1.5c-8,0-15.9,2-23.1,5.6c-3.6,1.8-6.9,4-10.1,6.4c-3.1,2.5-6.1,5.2-8.6,8.3l0,0l0,0c-2.4,1.8-4.9,3.5-7.4,5.1
				c-0.6,0.4-1.3,0.8-1.9,1.2c-0.6,0.4-1.3,0.8-1.9,1.2c-1.3,0.8-2.6,1.5-3.9,2.2c-0.6,0.4-1.3,0.7-2,1.1c-0.7,0.3-1.3,0.7-2,1l-2,1
				l-2.1,0.9c-0.7,0.3-1.4,0.6-2.1,0.8c-0.7,0.3-1.4,0.5-2.1,0.8c-0.7,0.2-1.4,0.5-2.2,0.7l-2.2,0.5l0,0l0,0
				c-2.4,0.3-4.8,0.7-7.2,1.2c-2.4,0.5-4.7,1-7.1,1.7c-2.3,0.6-4.7,1.3-7,2.1c-2.3,0.8-4.6,1.6-6.8,2.5c-4.5,1.8-8.8,4-13,6.6
				c-2.1,1.3-4.1,2.7-6,4.1c-1,0.7-1.9,1.5-2.8,2.3c-0.9,0.8-1.8,1.6-2.7,2.5l-1.3,1.3c-0.4,0.4-0.8,0.9-1.2,1.3
				c-0.8,0.9-1.6,1.8-2.3,2.8c-1.5,1.9-2.7,4-3.9,6.1c-2.3,4.3-4.1,8.8-5,13.6c-0.9,4.7-1,9.7,0.5,14.4c0.7,2.3,1.8,4.5,3.1,6.5
				c1.4,2,3,3.8,4.8,5.4l0,0c-1.8-1.6-3.5-3.4-4.9-5.4s-2.4-4.2-3.2-6.5c-1.5-4.7-1.5-9.7-0.6-14.5s2.7-9.4,5-13.7
				c1.2-2.1,2.4-4.3,3.9-6.2c0.8-0.9,1.5-1.9,2.3-2.8c0.4-0.5,0.8-0.9,1.2-1.4l1.3-1.3c0.8-0.9,1.8-1.7,2.7-2.5
				c0.9-0.8,1.9-1.6,2.8-2.3c1.9-1.5,3.9-2.9,6-4.2c4.1-2.6,8.5-4.8,13-6.7c2.2-0.9,4.5-1.8,6.9-2.5c2.3-0.8,4.6-1.5,7-2.1
				s4.7-1.2,7.1-1.6c2.4-0.5,4.8-0.9,7.2-1.2l0,0l2.2-0.5c0.7-0.2,1.4-0.4,2.1-0.6s1.4-0.5,2.1-0.7c0.7-0.3,1.4-0.5,2.1-0.8l2-0.9
				l2-1c0.7-0.3,1.3-0.7,2-1s1.3-0.7,2-1c1.3-0.7,2.6-1.5,3.9-2.2c0.6-0.4,1.3-0.8,1.9-1.2c0.6-0.4,1.3-0.8,1.9-1.2
				c2.5-1.6,5-3.3,7.4-5.1l0,0c2.6-3.1,5.6-5.8,8.7-8.3c3.2-2.5,6.6-4.7,10.2-6.5c7.2-3.6,15.2-5.7,23.2-5.6c4,0,8,0.6,11.9,1.5
				s7.7,2.4,11.3,4l2.7,1.3c0.9,0.4,1.8,1,2.6,1.5c0.9,0.5,1.8,1,2.6,1.5l2.5,1.6l1.3,0.8l1.2,0.9l2.3,1.9l4.7,3.8
				c6.2,5,12.4,10.1,18.5,15.3c1.5,1.3,3,2.6,4.5,3.9s3.1,2.5,4.4,4.1s2.1,3.5,2.6,5.4s0.7,4,0.9,6c0.1,2,0.1,4,0.1,6
				c0.1,2,0.2,4,0.3,6c0.3,4,0.4,8,0,12s-1.4,8-3.4,11.5C451.6,399.4,448.6,402.3,445.1,404.2L445.1,404.2z"/>
		</g>
		<g>
			<path class="st0" d="M319.8,304.5c0,0,1.1-0.5,2.5-1.4c0.7-0.5,1.5-1.1,2.4-1.8c0.8-0.7,1.7-1.5,2.5-2.3s1.5-1.7,2.2-2.6
				c0.7-0.8,1.3-1.6,1.8-2.3c0.3-0.3,0.5-0.7,0.7-0.9c0.2-0.3,0.4-0.5,0.5-0.7c0.3-0.4,0.5-0.6,0.5-0.6l0,0c0,0-0.1,0.3-0.4,0.7
				c-0.2,0.4-0.6,1.1-1.1,1.8c-0.2,0.4-0.5,0.8-0.8,1.2c-0.3,0.4-0.6,0.8-1,1.3c-0.7,0.8-1.5,1.7-2.3,2.5s-1.7,1.6-2.6,2.3
				c-0.9,0.7-1.7,1.3-2.4,1.7C320.9,304.1,319.8,304.5,319.8,304.5L319.8,304.5z"/>
		</g>
		<g>
			<path class="st0" d="M441,279.8c1.3-0.5,2.7-0.8,4.1-1c0.7-0.1,1.4-0.2,2.1-0.2s1.4-0.1,2.1,0c0.4,0,0.7,0,1.1,0.1
				c0.4,0,0.7,0.1,1.1,0.2s0.7,0.1,1,0.3c0.3,0.1,0.7,0.2,1,0.4c0.7,0.3,1.3,0.6,1.9,1s1.2,0.8,1.7,1.3c0.3,0.2,0.5,0.5,0.8,0.7
				s0.5,0.5,0.7,0.8c0.5,0.5,0.9,1.1,1.3,1.7s0.8,1.2,1,1.9c0.1,0.3,0.3,0.7,0.4,1l0.3,1c0.1,0.3,0.2,0.7,0.2,1.1l0.2,1.1
				c0,0.7,0.1,1.4,0.1,2.2c-0.1,0.7-0.1,1.4-0.2,2.1l-0.5,2.1l0,0l0,0c-0.5,1.1-1.1,2.1-1.7,3.2c-0.6,1-1.2,2-1.9,3
				c-0.3,0.5-0.7,1-1,1.5c-0.4,0.5-0.7,1-1.1,1.4l-1.2,1.4l-1.2,1.3c-0.4,0.4-0.9,0.8-1.3,1.2c-0.4,0.4-0.9,0.8-1.4,1.2
				c-0.5,0.4-0.9,0.8-1.4,1.1l-1.5,1c-0.5,0.3-1.1,0.5-1.6,0.8s-1.1,0.5-1.7,0.7s-1.1,0.4-1.7,0.5l-1.8,0.3l0,0l1.7-0.4
				c0.6-0.1,1.1-0.4,1.7-0.6l0.8-0.3c0.3-0.1,0.5-0.3,0.8-0.4c0.5-0.3,1.1-0.5,1.6-0.8l1.5-1c0.5-0.3,0.9-0.7,1.4-1.1
				s0.9-0.8,1.3-1.2c0.4-0.4,0.9-0.8,1.3-1.2l1.2-1.3l1.1-1.4c0.4-0.4,0.7-0.9,1.1-1.4s0.7-1,1-1.4c0.7-1,1.3-2,1.9-3s1.2-2,1.7-3.1
				l0,0l0.5-2c0.1-0.7,0.2-1.4,0.3-2.1c0-0.7,0-1.4,0-2.1l-0.2-1c0-0.3-0.1-0.7-0.2-1l-0.3-1c-0.1-0.3-0.3-0.6-0.4-1
				c-0.2-0.7-0.6-1.2-1-1.9c-0.4-0.6-0.8-1.2-1.3-1.7c-0.2-0.3-0.5-0.5-0.7-0.8c-0.2-0.2-0.5-0.5-0.8-0.7c-0.5-0.5-1.1-0.9-1.7-1.3
				s-1.2-0.7-1.8-1c-0.3-0.2-0.6-0.3-1-0.4c-0.3-0.1-0.7-0.2-1-0.3c-0.3-0.1-0.7-0.2-1-0.2c-0.3-0.1-0.7-0.1-1.1-0.1
				c-0.7-0.1-1.4,0-2.1,0s-1.4,0.1-2.1,0.2C443.8,279.1,442.4,279.4,441,279.8L441,279.8z"/>
		</g>
		<g>
			<path class="st0" d="M427.2,306.9c0,0-0.1,0.8,0.1,2.1c0.1,0.3,0.1,0.6,0.2,1c0.1,0.3,0.2,0.7,0.3,1.1c0.1,0.4,0.3,0.7,0.5,1.1
				c0.2,0.3,0.4,0.7,0.7,1l0.4,0.5l0.5,0.4c0.3,0.3,0.7,0.4,1,0.6s0.7,0.3,1,0.5s0.7,0.2,0.9,0.3c0.3,0.1,0.6,0.2,0.8,0.2
				c0.3,0,0.5,0.1,0.7,0.1c0.4,0.1,0.6,0.1,0.6,0.1l0,0c0,0-0.2,0-0.6,0c-0.2,0-0.4,0-0.7,0c-0.3,0-0.6,0-0.9-0.1s-0.7-0.1-1-0.2
				s-0.7-0.2-1.1-0.5c-0.3-0.2-0.7-0.4-1-0.7l-0.5-0.4l-0.4-0.5c-0.3-0.3-0.5-0.7-0.7-1.1s-0.4-0.8-0.5-1.2
				c-0.1-0.4-0.2-0.8-0.3-1.1c-0.1-0.4-0.1-0.7-0.1-1C427,307.8,427.1,306.9,427.2,306.9L427.2,306.9z"/>
		</g>
		<g>
			<path class="st0" d="M439.2,292.6c0,0,0.8-0.8,2.2-1.8c1.4-1,3.4-2.1,5.6-2.6c1.1-0.2,2.3-0.2,3.4,0.2c0.5,0.2,1,0.4,1.4,0.7
				c0.4,0.3,0.7,0.6,1,1c0.3,0.3,0.5,0.7,0.7,1s0.3,0.6,0.4,0.8c0.2,0.5,0.3,0.7,0.3,0.7l0,0c0,0-0.1-0.2-0.4-0.7
				c-0.1-0.2-0.3-0.4-0.5-0.7c-0.2-0.3-0.5-0.6-0.7-0.9c-0.6-0.6-1.3-1.2-2.3-1.5c-0.9-0.4-2.1-0.4-3.1-0.3
				c-2.2,0.3-4.2,1.4-5.6,2.3C440.1,291.9,439.2,292.6,439.2,292.6L439.2,292.6z"/>
		</g>
		<g>
			<path class="st0" d="M419.7,172.7c0,0,1,0.2,2.8,0.7c1.7,0.5,4.2,1.3,7,2.7c2.8,1.4,5.9,3.5,8.5,6.4c1.3,1.4,2.5,3.1,3.5,4.9
				s1.7,3.8,2.1,5.8c0.5,2,0.7,4.1,0.7,6.2s-0.2,4.1-0.3,6c-0.2,3.9-0.3,7.5,0.2,10.6c0.1,0.4,0.1,0.8,0.2,1.1
				c0.1,0.4,0.2,0.7,0.3,1c0.1,0.7,0.4,1.3,0.6,1.9s0.5,1.1,0.7,1.6s0.5,0.9,0.7,1.3c0.4,0.8,0.9,1.3,1.2,1.7
				c0.3,0.4,0.5,0.6,0.5,0.6l0,0c0,0-0.2-0.2-0.5-0.6s-0.8-0.9-1.3-1.7c-0.5-0.7-1.1-1.7-1.6-2.9c-0.2-0.6-0.5-1.2-0.7-1.9
				c-0.1-0.3-0.2-0.7-0.3-1.1c-0.1-0.4-0.1-0.7-0.2-1.1c-0.3-1.5-0.5-3.2-0.5-5c-0.1-1.8,0.1-3.7,0.2-5.6s0.3-3.9,0.4-6
				c0-2-0.1-4.1-0.6-6.1c-0.4-2-1.1-4-2.1-5.8c-0.9-1.8-2.1-3.5-3.4-4.9c-2.6-2.9-5.6-5-8.4-6.4s-5.2-2.3-7-2.8
				C420.7,173,419.7,172.8,419.7,172.7L419.7,172.7z"/>
		</g>
		<g>
			<path class="st0" d="M444,252c-0.1,1.8-0.4,3.7-0.9,5.4c-0.1,0.4-0.3,0.9-0.4,1.3c-0.2,0.4-0.4,0.9-0.6,1.3
				c-0.1,0.2-0.2,0.4-0.3,0.6c-0.1,0.2-0.2,0.4-0.4,0.6c-0.1,0.2-0.3,0.4-0.4,0.6l-0.5,0.5l0,0l0,0c-1.1,0.9-2.1,1.8-3,2.9
				c-0.4,0.5-0.8,1.1-1.2,1.7c-0.2,0.3-0.3,0.6-0.5,0.9c-0.1,0.3-0.2,0.6-0.3,0.9c-0.1,0.3-0.1,0.7-0.1,1s0.1,0.6,0.2,0.9
				s0.2,0.6,0.4,0.9c0.2,0.3,0.4,0.5,0.7,0.7l0.4,0.3l0.4,0.3c0.3,0.2,0.6,0.3,0.9,0.5l0.9,0.4l1,0.4l0,0c-0.7-0.2-1.4-0.3-2-0.6
				c-0.3-0.2-0.7-0.3-1-0.5s-0.6-0.4-0.9-0.6s-0.6-0.5-0.8-0.8c-0.2-0.3-0.4-0.6-0.5-1c-0.1-0.3-0.2-0.7-0.2-1.1s0-0.7,0.1-1.1
				c0.3-1.4,1.2-2.6,2.1-3.7s2-2,3.1-2.9l0,0l0.5-0.5c0.2-0.2,0.3-0.3,0.4-0.5s0.3-0.4,0.4-0.6s0.2-0.4,0.3-0.6
				c0.2-0.4,0.4-0.8,0.6-1.2c0.2-0.4,0.3-0.9,0.5-1.3C443.5,255.6,443.8,253.8,444,252L444,252z"/>
		</g>
		<g>
			<path class="st0" d="M369.5,209.8c0,0,0.5,0.1,1.3,0.4s1.9,0.8,3.3,1.5c0.6,0.4,1.3,0.8,2,1.3c0.4,0.2,0.7,0.5,1.1,0.7
				c0.4,0.3,0.7,0.6,1.1,0.8c0.7,0.6,1.4,1.2,2.2,1.9c0.7,0.7,1.4,1.4,2.1,2.1c0.6,0.8,1.3,1.5,1.9,2.3s1.1,1.6,1.6,2.4
				s1,1.6,1.4,2.3c0.4,0.8,0.7,1.5,1.1,2.2c0.7,1.3,1,2.5,1.4,3.3c0.3,0.8,0.5,1.3,0.5,1.3l0,0c0,0-0.2-0.4-0.6-1.2
				c-0.2-0.4-0.4-0.9-0.7-1.4c-0.2-0.6-0.6-1.1-0.9-1.8c-0.3-0.7-0.7-1.4-1.1-2.1c-0.5-0.7-0.9-1.5-1.4-2.3s-1.1-1.5-1.6-2.3
				c-0.6-0.8-1.2-1.5-1.8-2.3c-0.7-0.7-1.3-1.5-2-2.2s-1.4-1.3-2.1-1.9c-0.4-0.3-0.7-0.6-1-0.9c-0.4-0.3-0.7-0.5-1.1-0.8
				c-0.7-0.5-1.4-0.9-2-1.3c-1.3-0.7-2.4-1.3-3.2-1.6C370,210,369.5,209.9,369.5,209.8L369.5,209.8z"/>
		</g>
		<g>
			<path class="st0" d="M364.8,219.3l13.4,21.3l0.8,1.3l-1.1-1c-1.4-1.2-2.8-2.4-4.3-3.5s-3-2.2-4.5-3.2c-0.8-0.5-1.6-1-2.4-1.5
				c-0.4-0.2-0.8-0.4-1.2-0.7c-0.4-0.2-0.8-0.4-1.2-0.6c-0.4-0.2-0.8-0.4-1.3-0.5c-0.4-0.1-0.9-0.3-1.3-0.4l-1.3-0.3l-1.4-0.1V230
				h1.4l1.4,0.2c0.5,0.1,0.9,0.3,1.3,0.4c0.5,0.1,0.9,0.3,1.3,0.5s0.9,0.4,1.3,0.6s0.8,0.4,1.3,0.6c0.8,0.4,1.6,0.9,2.4,1.4
				c0.4,0.2,0.8,0.5,1.2,0.8c0.4,0.3,0.8,0.5,1.1,0.8c0.8,0.5,1.5,1.1,2.2,1.7c1.5,1.1,2.9,2.3,4.3,3.6l-0.3,0.3L364.8,219.3
				L364.8,219.3z"/>
		</g>
		<g>
			<path class="st0" d="M94.7,313.4l93.2-28.1l0,0l9.8-3.8l0,0c8.1-6.8,16.3-13.4,24.8-19.7c4.3-3.1,8.6-6.2,13.1-8.9
				c1.1-0.7,2.3-1.4,3.4-2c1.2-0.6,2.3-1.3,3.5-1.9s2.4-1.1,3.6-1.6c1.3-0.4,2.5-0.8,3.9-0.8h-0.1l6.5-4.4l0,0l0,0l6-1.6l-0.1,0.1
				l16.3-33.3l0,0c0.8-2.5,1.6-4.9,2.6-7.3s2.1-4.7,3.4-6.9c1.3-2.2,2.7-4.4,4.5-6.3c0.4-0.5,0.9-0.9,1.4-1.3s1-0.8,1.6-1.1l0.9-0.5
				l0.9-0.4l1-0.3l1-0.1h-0.1c1.9-0.7,3.9-1.2,5.9-1.3c1-0.1,2-0.1,3.1,0.1c0.5,0.1,1,0.2,1.5,0.3c0.5,0.1,1,0.3,1.5,0.5
				s0.9,0.4,1.4,0.7c0.4,0.3,0.8,0.6,1.2,0.9c0.4,0.4,0.7,0.7,1,1.1s0.6,0.8,0.8,1.3c0.5,0.9,0.9,1.9,1.1,2.8c0.1,0.5,0.2,1,0.3,1.5
				l0.2,1.5v-0.1c0.3,0.8,0.3,1.6,0.3,2.4s0,1.6-0.1,2.3c-0.1,0.8-0.2,1.5-0.3,2.3c-0.1,0.8-0.2,1.5-0.4,2.3c-0.3,1.5-0.6,3-0.9,4.5
				l-0.6,2.2c-0.2,0.7-0.4,1.5-0.6,2.2c-0.4,1.5-0.8,3-1.3,4.4c-0.5,1.5-0.9,2.9-1.4,4.4s-0.9,2.9-1.5,4.4l-1.5,4.4l0,0l0,0
				c-0.5,0.8-1,1.7-1.5,2.5c-0.5,0.9-0.9,1.7-1.3,2.6s-0.8,1.8-1.2,2.7c-0.4,0.9-0.7,1.8-1.1,2.8c-0.4,0.9-0.7,1.9-1,2.8
				s-0.6,1.9-0.8,2.8c-0.2,1-0.5,1.9-0.7,2.9l-0.6,2.9l-0.5,2.9c-0.2,1-0.3,1.9-0.4,2.9c-0.1,1-0.2,2-0.3,2.9l-0.2,3l-0.1,1.5v1.5v3
				c0,1,0.1,2,0.1,3l0.1,3l-0.1-0.1c1.8,1.8,3.5,3.7,5.1,5.6s3.2,3.9,4.8,5.9c0.8,1,1.6,2,2.3,3l2.3,3l2.2,3.1
				c0.7,1,1.4,2.1,2.2,3.1c1.5,2.1,2.8,4.2,4.3,6.2c0.7,1,1.4,2.1,2.1,3.2l2.1,3.2l4,6.4l3.9,6.4l0,0l5.4,7.1l0,0l-5.5-7.1l0,0l0,0
				l-4-6.4l-4-6.4L321,307c-0.7-1-1.4-2.1-2.1-3.1c-1.4-2.1-2.8-4.2-4.3-6.2c-0.7-1-1.4-2.1-2.2-3.1l-2.2-3l-2.3-3
				c-0.7-1-1.5-2-2.3-3c-1.6-2-3.2-3.9-4.8-5.8c-1.6-1.9-3.3-3.8-5.1-5.5h-0.1v-0.1l-0.1-3c0-1-0.1-2-0.1-3v-3v-1.5l0.1-1.5l0.2-3
				c0.1-1,0.2-2,0.3-3c0.1-1,0.2-2,0.4-2.9l0.5-2.9l0.6-2.9c0.2-1,0.5-1.9,0.7-2.9s0.5-1.9,0.8-2.9c0.3-0.9,0.6-1.9,0.9-2.8
				s0.7-1.9,1.1-2.8s0.8-1.8,1.2-2.7c0.4-0.9,0.9-1.8,1.3-2.7c0.5-0.9,1-1.7,1.5-2.6v0.1l1.5-4.3c0.5-1.4,1-2.9,1.5-4.4
				s0.9-2.9,1.4-4.4s0.9-2.9,1.3-4.4c0.2-0.7,0.4-1.5,0.6-2.2l0.6-2.2c0.3-1.5,0.7-3,0.9-4.5c0.2-0.8,0.2-1.5,0.4-2.3
				c0.1-0.8,0.2-1.5,0.3-2.3c0.1-0.8,0.1-1.5,0.1-2.3c0-0.7-0.1-1.6-0.3-2.2v-0.1l0,0l-0.2-1.5c-0.1-0.5-0.2-1-0.3-1.4
				c-0.3-1-0.6-1.9-1.1-2.7c-0.3-0.4-0.5-0.9-0.8-1.2c-0.3-0.4-0.6-0.7-1-1.1c-0.4-0.3-0.7-0.6-1.2-0.9c-0.4-0.3-0.8-0.5-1.3-0.7
				c-0.4-0.2-0.9-0.3-1.4-0.5c-0.5-0.1-1-0.2-1.5-0.3c-1-0.1-2-0.1-3-0.1c-2,0.2-4,0.6-5.8,1.3l0,0l0,0l-0.9,0.1l-0.9,0.2l-0.9,0.3
				l-0.8,0.4c-0.5,0.3-1.1,0.7-1.5,1.1c-0.5,0.4-1,0.8-1.4,1.3c-1.8,1.8-3.2,4-4.5,6.2s-2.4,4.5-3.4,6.9s-1.9,4.8-2.6,7.2l0,0l0,0
				l-16.4,33.2v0.1h-0.1l-6,1.6h0.1l-6.5,4.4l0,0h-0.1c-1.3,0-2.6,0.4-3.8,0.8c-1.2,0.5-2.4,1-3.6,1.6c-1.2,0.6-2.3,1.2-3.5,1.9
				c-1.1,0.7-2.3,1.3-3.4,2c-4.5,2.8-8.8,5.8-13.1,8.9c-8.5,6.2-16.8,12.8-24.9,19.6l0,0l0,0l-9.8,3.8l0,0l0,0L94.7,313.4
				L94.7,313.4z"/>
		</g>
		<g>
			<path class="st0" d="M92,422.7c3.4-1.5,6.8-3.1,10.2-4.7c3.4-1.6,6.8-3.3,10.1-5c3.4-1.7,6.7-3.4,10-5.1c1.7-0.9,3.3-1.7,5-2.6
				l5-2.7c3.3-1.8,6.6-3.7,9.8-5.6c1.6-1,3.3-1.9,4.8-2.9l4.8-2.9l4.7-3c1.6-1,3.1-2.1,4.7-3.1c1.5-1.1,3.1-2.1,4.6-3.2l4.5-3.3l0,0
				l0,0l20.9-11.5l10.4-5.8l10.5-5.7l0,0l0,0c4.3-1.5,8.6-3.2,12.7-5.1c2.1-1,4.1-2,6.2-3c1-0.6,2-1.1,3-1.7c0.5-0.3,1-0.6,1.5-0.9
				l1.4-0.9l0,0l-1.4,1c-0.5,0.3-1,0.6-1.4,0.9c-1,0.6-2,1.2-3,1.8c-2,1.1-4.1,2.1-6.1,3.1c-4.2,1.9-8.4,3.7-12.7,5.3l0,0l-10.4,5.8
				l-10.4,5.7l-20.9,11.5l0,0l-4.6,3.3c-1.5,1.1-3.1,2.1-4.6,3.2c-1.6,1.1-3.1,2.1-4.7,3.1l-4.8,3l-4.8,2.9c-1.6,1-3.2,1.9-4.9,2.9
				c-3.2,1.9-6.5,3.7-9.8,5.5l-5,2.7c-1.7,0.9-3.3,1.7-5,2.6c-3.3,1.7-6.7,3.4-10.1,5.1s-6.8,3.3-10.2,4.9
				C98.8,419.7,95.4,421.2,92,422.7L92,422.7z"/>
		</g>
		<g>
			<path class="st0" d="M218.1,353.3c0,0,0.1,0.1,0.4,0.4c0.3,0.2,0.6,0.6,1.2,0.9c0.5,0.4,1.2,0.8,2,1.2c0.4,0.2,0.8,0.4,1.3,0.7
				c0.5,0.2,1,0.4,1.5,0.7c0.5,0.2,1.1,0.4,1.6,0.6c0.6,0.2,1.1,0.4,1.8,0.6c1.2,0.4,2.5,0.8,3.9,1.1c0.7,0.2,1.4,0.3,2.1,0.5
				c0.7,0.1,1.4,0.2,2.1,0.4c1.4,0.3,2.9,0.4,4.4,0.6s3,0.2,4.4,0.3c1.5,0.1,2.9,0.1,4.3,0.2c1.4,0,2.7,0.1,4,0c1.3,0,2.5,0,3.6,0
				s2.1-0.1,3.1-0.1c0.9-0.1,1.7-0.1,2.4-0.1c1.3-0.1,2.1-0.1,2.1-0.1l0,0c0,0-0.7,0.1-2,0.2c-0.7,0.1-1.4,0.1-2.4,0.2
				c-0.9,0.1-1.9,0.2-3.1,0.2c-1.1,0-2.3,0.1-3.6,0.1c-1.3,0.1-2.6,0-4,0s-2.9,0-4.3-0.2c-1.5-0.1-3-0.2-4.4-0.4
				c-1.5-0.2-3-0.3-4.4-0.6c-0.7-0.1-1.4-0.3-2.2-0.4c-0.7-0.2-1.4-0.3-2.1-0.5c-1.4-0.3-2.7-0.7-3.9-1.1c-0.6-0.2-1.2-0.4-1.8-0.7
				c-0.6-0.2-1.1-0.4-1.6-0.7c-0.5-0.2-1-0.5-1.5-0.7c-0.4-0.2-0.9-0.5-1.3-0.7c-0.8-0.5-1.5-0.9-2-1.3s-0.9-0.7-1.2-1
				C218.2,353.5,218.1,353.4,218.1,353.3L218.1,353.3z"/>
		</g>
		<g>
			<path class="st0" d="M342.1,412.4c0,0,4.9-2,12-5.4c3.6-1.7,7.7-3.7,12.1-6c2.2-1.1,4.5-2.3,6.7-3.6c2.3-1.3,4.6-2.5,6.9-3.8
				s4.6-2.6,6.8-4c2.2-1.3,4.4-2.6,6.5-4c2.1-1.3,4.1-2.6,6-3.9s3.7-2.4,5.3-3.6c1.6-1.1,3.1-2.2,4.4-3.1c1.3-1,2.4-1.8,3.3-2.5
				c1.9-1.4,2.9-2.2,2.9-2.2l0,0c0,0-1,0.8-2.8,2.3c-0.9,0.7-2,1.6-3.3,2.6c-1.3,0.9-2.8,2-4.4,3.2s-3.4,2.4-5.3,3.6
				c-1.9,1.3-3.9,2.6-6,3.9s-4.3,2.6-6.5,4c-2.2,1.3-4.5,2.6-6.8,3.9s-4.6,2.5-6.9,3.8c-2.3,1.2-4.6,2.4-6.8,3.5
				c-2.2,1.1-4.3,2.2-6.4,3.2c-2,1-4,1.9-5.8,2.7C347,410.4,342.1,412.4,342.1,412.4L342.1,412.4z"/>
		</g>
		<g>
			<path class="st0" d="M296,334.4c0,0,0.1,2.9,0.9,5.7c0.2,0.7,0.4,1.4,0.6,2c0.1,0.3,0.2,0.6,0.3,0.9c0.1,0.3,0.3,0.5,0.4,0.8
				c0.1,0.2,0.3,0.4,0.4,0.6s0.2,0.3,0.3,0.5c0.2,0.3,0.3,0.4,0.3,0.4l0,0c0,0-0.1-0.1-0.4-0.3c-0.1-0.1-0.3-0.2-0.4-0.4
				c-0.1-0.2-0.3-0.4-0.5-0.6c-0.1-0.2-0.3-0.5-0.5-0.8c-0.1-0.3-0.3-0.6-0.4-0.9c-0.2-0.7-0.4-1.4-0.5-2.1
				C295.9,337.4,295.9,334.4,296,334.4L296,334.4z"/>
		</g>
		<g>
			<path class="st0" d="M250,246.7c0,0,2.4,0.7,4.6,1.9c0.6,0.3,1.1,0.6,1.6,0.9s0.9,0.7,1.2,1.1c0.2,0.2,0.3,0.4,0.4,0.5
				c0.1,0.2,0.2,0.3,0.2,0.5c0.1,0.3,0.1,0.4,0.1,0.4l0,0c0,0-0.1-0.1-0.2-0.3c-0.2-0.2-0.4-0.5-0.7-0.8c-0.2-0.2-0.3-0.3-0.6-0.5
				c-0.2-0.2-0.4-0.3-0.7-0.5c-0.5-0.3-1-0.7-1.5-1C252.3,247.6,250,246.7,250,246.7L250,246.7z"/>
		</g>
		<g>
			<path class="st0" d="M262.6,240.7c0,0,1.2,1.4,2.3,2.9c0.3,0.4,0.6,0.7,0.8,1.1c0.3,0.4,0.5,0.7,0.6,1c0.4,0.6,0.5,1,0.5,1l0,0
				c0,0-0.4-0.3-0.8-0.8c-0.2-0.3-0.5-0.6-0.7-0.9c-0.2-0.4-0.5-0.7-0.8-1.1C263.5,242.3,262.5,240.7,262.6,240.7L262.6,240.7z"/>
		</g>
		<g>
			<path class="st0" d="M313.8,192.8c0,0-0.2,0.6-0.6,1.7c-0.2,0.5-0.5,1.1-0.8,1.8c-0.4,0.7-0.8,1.5-1.4,2.2
				c-0.6,0.8-1.3,1.6-2.2,2.2c-0.9,0.7-2.1,1.1-3.3,1.2c-0.3,0-0.6,0-0.9,0s-0.6-0.1-0.9-0.2c-0.6-0.1-1.2-0.4-1.8-0.6
				c-1.2-0.4-2.4-0.9-3.6-1.3c-1.2-0.5-2.4-0.8-3.6-1.4c-1.2-0.5-2.2-1.5-2.6-2.7c-0.5-1.2-0.5-2.4-0.3-3.5s0.5-2.1,0.9-3
				c0.8-1.8,1.6-3.2,2.2-4.1s1-1.4,1-1.4l0,0c0,0-0.4,0.5-0.9,1.5s-1.3,2.4-2,4.2c-0.3,0.9-0.6,1.9-0.8,2.9
				c-0.1,1.1-0.2,2.2,0.3,3.3c0.4,1.1,1.3,2,2.4,2.5s2.4,0.9,3.5,1.4c1.2,0.5,2.4,0.9,3.6,1.4c0.6,0.2,1.2,0.5,1.7,0.6
				c0.3,0.1,0.6,0.2,0.9,0.2s0.6,0,0.9,0.1c1.2,0,2.3-0.4,3.2-1.1c0.9-0.6,1.6-1.4,2.2-2.1s1-1.5,1.4-2.2s0.7-1.3,0.9-1.8
				C313.6,193.4,313.7,192.7,313.8,192.8L313.8,192.8z"/>
		</g>
		<g>
			<path class="st1" d="M368.5,225.3"/>
		</g>
		<g>
			<path class="st0" d="M208-13.6c0.7,4.1,1.9,8.2,3.5,12.1s3.5,7.7,6,11c2.5,3.4,5.7,6.3,9.5,8.1c1.9,0.9,3.9,1.5,6,1.8
				c0.5,0.1,1,0.1,1.6,0.2h1.6c1.1,0,2.1,0,3.2,0l50.5-0.1h25.3h12.6c2.1,0,4.2,0,6.3,0l6.3,0.2c8.4,0.4,16.8,0.9,25.2,1.8
				c4.2,0.4,8.4,1,12.5,1.7c2.1,0.4,4.2,0.8,6.2,1.3s4.1,1.1,6,2.2h-0.1c1.6,0.3,3.1,0.9,4.5,1.7c1.4,0.8,2.7,1.6,3.9,2.7
				c2.5,2,4.6,4.3,6.6,6.7c2,2.4,3.8,5,5.5,7.7c1.6,2.7,3.2,5.4,4.6,8.2c1.4,2.8,2.7,5.7,4,8.5l1.8,4.4l1.7,4.4c0.6,1.5,1,3,1.6,4.4
				c0.5,1.5,1,3,1.5,4.5c0.9,3,1.9,6,2.7,9l1.2,4.5l1.1,4.6c0.8,3,1.4,6.1,2.1,9.2s1.3,6.1,1.9,9.2s1.1,6.2,1.7,9.2
				c0.6,3.1,1,6.2,1.5,9.3l0.7,4.6l0.6,4.7c0.4,3.1,0.9,6.2,1.3,9.3l1.1,9.3l0,0l-1.2-9.3c-0.4-3.1-0.9-6.2-1.3-9.3l-0.7-4.7
				l-0.8-4.6c-0.5-3.1-1-6.2-1.6-9.3c-0.6-3.1-1.1-6.2-1.8-9.2c-0.7-3.1-1.2-6.1-2-9.2c-0.7-3.1-1.4-6.1-2.2-9.1l-1.2-4.6l-1.3-4.5
				c-0.8-3-1.8-6-2.7-9c-0.4-1.5-1-3-1.5-4.5s-1-3-1.6-4.4l-1.6-4.4l-1.8-4.3c-1.2-2.9-2.5-5.7-3.9-8.5s-2.9-5.5-4.6-8.2
				c-1.7-2.6-3.4-5.2-5.4-7.6s-4.1-4.7-6.6-6.6c-1.2-1-2.5-1.8-3.8-2.6c-1.3-0.7-2.8-1.4-4.3-1.6h-0.1l0,0c-1.8-1-3.8-1.6-5.9-2.1
				c-2-0.5-4.1-0.9-6.2-1.3c-4.1-0.7-8.3-1.2-12.5-1.7c-8.4-0.9-16.8-1.4-25.2-1.8l-6.3-0.3c-2.1-0.1-4.2,0-6.3,0h-12.6h-25.3
				L239,20c-1.1,0-2.1,0-3.2,0h-1.6c-0.5,0-1-0.1-1.6-0.2c-2.1-0.3-4.1-0.9-6-1.8c-3.8-1.8-7-4.8-9.5-8.1c-2.5-3.4-4.5-7.2-6-11.1
				C209.9-5.3,208.7-9.4,208-13.6L208-13.6z"/>
		</g>
		<g>
			<path class="st0" d="M159.4,37.8c0,0,0,0.4,0.1,1.2c0.2,0.8,0.6,2,1.6,3.1c1,1.2,2.5,2.2,4.5,3s4.4,1.2,7,1.5
				c2.6,0.2,5.5,0.2,8.4-0.1c3-0.2,6.1-0.6,9.4-0.9c3.3-0.3,6.7-0.5,10.1-0.7c3.4-0.2,6.9-0.4,10.4-0.6c7-0.4,14-0.7,20.5-0.9
				c3.3-0.1,6.4-0.2,9.5-0.3c3-0.1,5.8-0.2,8.5-0.2c10.5-0.3,17.5-0.3,17.5-0.3l0,0c0,0-7,0.3-17.5,0.6c-5.2,0.2-11.4,0.4-17.9,0.7
				c-6.6,0.2-13.5,0.5-20.5,0.8c-3.5,0.2-7,0.3-10.4,0.5s-6.8,0.4-10.1,0.7c-3.3,0.2-6.4,0.6-9.4,0.8c-3,0.3-5.9,0.2-8.5,0
				c-2.6-0.3-5-0.7-7-1.6c-2-0.8-3.5-1.9-4.5-3.1s-1.4-2.4-1.6-3.2C159.3,38.2,159.3,37.8,159.4,37.8L159.4,37.8z"/>
		</g>
		<g>
			<path class="st0" d="M324.9,129.4c0,0-0.7-5-1.4-10.1c-0.2-1.3-0.3-2.5-0.5-3.7c-0.1-1.2-0.2-2.3-0.3-3.2
				c-0.2-1.9-0.2-3.2-0.2-3.2l0,0c0,0,0.3,1.3,0.5,3.1c0.1,0.9,0.3,2,0.4,3.2s0.3,2.5,0.4,3.7C324.4,124.3,324.9,129.4,324.9,129.4
				L324.9,129.4z"/>
		</g>
		<g>
			<path class="st0" d="M342.1,306.9c0,0,0.1,0.2,0.5,0.6c0.2,0.2,0.3,0.4,0.6,0.6c0.2,0.2,0.5,0.5,0.8,0.7c0.6,0.5,1.4,1,2.3,1.5
				c0.4,0.2,0.9,0.5,1.4,0.7s1,0.4,1.5,0.6s1,0.4,1.5,0.5s1,0.3,1.5,0.4s1,0.2,1.4,0.3c0.5,0.1,0.9,0.2,1.3,0.2
				c0.4,0.1,0.8,0.1,1.1,0.2c0.3,0,0.6,0.1,0.8,0.1c0.5,0.1,0.7,0.1,0.7,0.1l0,0c0,0-0.3,0-0.7,0c-0.5,0-1.2,0-2-0.1
				c-0.4,0-0.8-0.1-1.3-0.2s-0.9-0.2-1.4-0.3c-0.5-0.1-1-0.3-1.5-0.4s-1-0.4-1.5-0.6s-1-0.4-1.5-0.7c-0.5-0.2-0.9-0.5-1.4-0.8
				c-0.9-0.5-1.6-1.1-2.2-1.6C342.7,307.9,342.1,306.9,342.1,306.9L342.1,306.9z"/>
		</g>
		<g>
			<path class="st1" d="M334.1,284.9"/>
		</g>
		<g>
			<path class="st1" d="M331.5,288.3"/>
		</g>
		<g>
			<path class="st0" d="M336.2,233.4c0,0-0.7-0.1-2,0.2c-0.6,0.1-1.4,0.4-2.2,0.8c-0.8,0.4-1.6,1-2.4,1.8s-1.6,1.7-2.2,2.8
				c-0.7,1.1-1.2,2.3-1.7,3.6c-0.5,1.3-0.9,2.6-1.3,4s-0.7,2.8-0.9,4.3c-0.5,2.9-0.7,5.8-0.6,8.6c0,0.7,0,1.4,0,2
				c0,0.7,0.1,1.3,0.1,1.9c0.1,1.3,0.2,2.4,0.4,3.5c0.2,1.1,0.3,2.1,0.5,3s0.3,1.6,0.5,2.3c0.3,1.2,0.5,2,0.5,2l0,0
				c0,0-0.2-0.7-0.6-1.9c-0.2-0.6-0.4-1.4-0.6-2.3s-0.4-1.9-0.6-3s-0.4-2.3-0.5-3.6c-0.1-0.6-0.1-1.3-0.1-2s-0.1-1.4,0-2
				c0-2.8,0.2-5.8,0.8-8.7c0.3-1.5,0.6-2.9,1-4.3s0.9-2.8,1.4-4.1c0.5-1.3,1.1-2.5,1.8-3.6c0.7-1.1,1.5-2,2.3-2.8s1.7-1.3,2.5-1.7
				c0.8-0.4,1.6-0.6,2.2-0.8C335.5,233.2,336.2,233.4,336.2,233.4L336.2,233.4z"/>
		</g>
	</g>
</g>
<g id="fground">
</g>
</svg>
