<?xml version="1.0" encoding="utf-8"?>
<!-- Generator: Adobe Illustrator 19.2.0, SVG Export Plug-In . SVG Version: 6.00 Build 0)  -->
<svg version="1.1" id="Layer_1" xmlns="http://www.w3.org/2000/svg" xmlns:xlink="http://www.w3.org/1999/xlink" x="0px" y="0px"
	 viewBox="0 0 595.3 425.2" style="enable-background:new 0 0 595.3 425.2;" xml:space="preserve">
<style type="text/css">
	.st0{fill:#231F20;}
</style>
<g id="bkg">
	<g>
		<path class="st0" d="M309.5,97c0,0,0.3,1.3,1.2,3.4c0.8,2.1,2.2,5.1,4.3,8.4c1,1.7,2.2,3.4,3.6,5.2c1.4,1.7,3,3.5,4.8,5.1
			c1.8,1.7,3.8,3.2,6,4.6c2.1,1.4,4.5,2.6,6.9,3.6s4.9,1.7,7.4,2.3c2.5,0.5,5,0.9,7.4,1c0.6,0,1.2,0.1,1.8,0.1c0.6,0,1.2,0,1.8,0
			c0.6,0,1.2,0,1.7,0c0.6,0,1.1-0.1,1.7-0.2c2.2-0.4,4.1-1.3,5.8-2.4c1.6-1,3-2.2,4-3.5c0.5-0.6,1-1.2,1.4-1.7s0.8-1.1,1-1.6
			c0.6-1,1-1.8,1.3-2.3s0.4-0.8,0.4-0.8l0,0c0,0-0.1,0.3-0.4,0.9s-0.6,1.4-1.2,2.4c-0.3,0.5-0.6,1.1-1,1.6c-0.4,0.6-0.8,1.2-1.4,1.8
			c-1,1.2-2.4,2.5-4,3.6s-3.6,2-5.9,2.5c-0.6,0.1-1.1,0.2-1.7,0.2s-1.2,0-1.8,0c-0.6,0-1.2,0-1.8,0c-0.6,0-1.2-0.1-1.8-0.1
			c-2.5-0.1-5-0.5-7.5-1.1s-5-1.3-7.5-2.4c-2.4-1-4.8-2.2-6.9-3.7c-2.2-1.4-4.2-3-6-4.7s-3.4-3.5-4.8-5.2c-1.4-1.8-2.6-3.5-3.6-5.2
			c-2-3.4-3.4-6.4-4.2-8.5C309.8,98.3,309.5,97.1,309.5,97L309.5,97z"/>
	</g>
	<g>
		<path class="st0" d="M198.5,329.1l-43.7,10.8l-21.9,5.4L122,348l-5.5,1.4l-2.7,0.7c-0.9,0.2-1.9,0.3-2.8,0.5
			c-3.7,0.6-7.5,0.8-11.3,0.5c-1.9-0.2-3.7-0.5-5.6-1c-1.8-0.5-3.6-1.2-5.2-2.1c-3.3-1.8-6-4.6-7.9-7.9s-3-6.9-3.7-10.6
			s-0.9-7.5-0.8-11.2c0.1-3.8,0.4-7.5,0.9-11.2s1.2-7.4,2-11.1s1.8-7.3,3-10.9l0,0c0.4-2,0.7-3.9,1.1-5.9c0.5-1.9,0.9-3.9,1.4-5.8
			c0.6-1.9,1.1-3.8,1.7-5.7c0.6-1.9,1.2-3.8,1.9-5.7l2-5.6l2.2-5.6c1.5-3.7,3-7.4,4.6-11c1.6-3.7,3.2-7.3,4.9-10.9
			c1.7-3.6,3.4-7.2,5.2-10.8c1.7-3.6,3.5-7.1,5.3-10.7c1.8-3.5,3.6-7.1,5.5-10.6c3.7-7.1,7.5-14.1,11.4-21c1.9-3.5,3.9-7,5.9-10.4
			l6-10.4c8.1-13.8,16.3-27.4,24.9-40.9l0,0l0,0c0.9-0.9,1.7-2,2.6-2.9l1.4-1.3l0.7-0.7l0.7-0.6c2-1.7,4-3.2,6.2-4.6
			c1.1-0.7,2.1-1.4,3.2-2.1l3.3-2c2.2-1.2,4.5-2.5,6.8-3.6c1.1-0.6,2.3-1.2,3.5-1.7c1.2-0.6,2.3-1.1,3.5-1.6l3.5-1.6l3.5-1.5
			c2.4-1,4.7-2,7.1-2.9c2.4-0.9,4.8-1.9,7.2-2.8c9.6-3.6,19.4-6.8,29.2-9.8s19.7-5.7,29.7-8.2l0,0c0.5-0.1,1-0.4,1.5-0.7
			c0.5-0.3,0.9-0.6,1.3-1s0.8-0.8,1.2-1.2c0.4-0.4,0.8-0.8,1.1-1.3c0.4-0.4,0.7-0.9,1.1-1.3s0.7-0.9,1-1.4c0.7-0.9,1.2-1.9,1.8-2.9
			c0.5-1,1.1-2,1.6-3s1.1-2,1.5-3c0.5-1,1-2,1.4-3.1l1.3-3.1l0,0l-1.3,3.1c-0.4,1-0.9,2.1-1.4,3.1s-1,2-1.5,3s-1.1,2-1.6,3
			c-0.6,1-1.2,1.9-1.8,2.9c-0.3,0.5-0.6,0.9-1,1.4c-0.4,0.4-0.7,0.9-1.1,1.3s-0.7,0.9-1.1,1.3s-0.8,0.8-1.2,1.2
			c-0.4,0.4-0.9,0.7-1.4,1s-1,0.6-1.6,0.7l0,0c-10,2.5-19.8,5.3-29.6,8.3s-19.5,6.3-29.1,9.9c-2.4,0.9-4.8,1.8-7.2,2.8
			c-2.4,0.9-4.8,1.9-7.1,2.9l-3.5,1.5l-3.5,1.6c-1.2,0.5-2.3,1.1-3.5,1.7s-2.3,1.1-3.4,1.7c-2.3,1.2-4.5,2.4-6.8,3.6l-3.3,2
			c-1.1,0.7-2.1,1.4-3.2,2.1c-2.1,1.4-4.2,2.9-6.1,4.6l-0.7,0.6l-0.7,0.7l-1.4,1.3c-0.9,0.9-1.7,1.9-2.6,2.8l0,0
			c-8.6,13.4-16.8,27.1-24.9,40.8l-6,10.3c-2,3.5-4,6.9-5.9,10.4c-3.9,7-7.7,14-11.4,21c-1.9,3.5-3.7,7.1-5.5,10.6
			c-1.8,3.6-3.6,7.1-5.3,10.7c-1.8,3.6-3.5,7.2-5.2,10.8c-1.7,3.6-3.3,7.2-4.9,10.9c-1.6,3.6-3.1,7.3-4.6,11l-2.2,5.6l-2,5.6
			c-0.6,1.9-1.2,3.8-1.9,5.7c-0.6,1.9-1.1,3.8-1.7,5.7c-0.6,1.9-1,3.9-1.4,5.8s-0.7,3.9-1.1,5.9l0,0l0,0c-1.2,3.6-2.1,7.2-3,10.8
			c-0.8,3.7-1.5,7.3-2.1,11.1c-0.5,3.7-0.8,7.5-0.9,11.2c0,3.7,0.2,7.5,0.8,11.2c0.7,3.7,1.8,7.3,3.7,10.5c1.9,3.2,4.6,6,7.8,7.8
			c1.6,0.9,3.4,1.6,5.2,2.1c1.8,0.5,3.7,0.8,5.5,1c3.7,0.3,7.5,0.1,11.2-0.5c0.9-0.2,1.9-0.3,2.8-0.5l2.7-0.7l5.5-1.3l10.9-2.7
			l21.9-5.4L198.5,329.1L198.5,329.1z"/>
	</g>
	<g>
		<path class="st0" d="M339,361.1c-0.5-0.8-1-1.5-1.5-2.3l-1.7-2.2l-1.8-2.1c-0.6-0.7-1.2-1.3-1.8-2c-0.6-0.7-1.2-1.3-1.9-2
			c-0.6-0.6-1.3-1.3-1.9-1.9c-1.3-1.3-2.6-2.5-3.9-3.8c-1.3-1.2-2.7-2.5-4-3.7c-1.4-1.2-2.7-2.4-4.1-3.6c-2.8-2.4-5.5-4.7-8.4-7l0,0
			l0,0l-4.4-6.4l-2.2-3.2c-0.4-0.5-0.7-1.1-1.1-1.6l-1-1.7l-2-3.3c-0.7-1.1-1.4-2.2-2-3.3l-3.9-6.7l0,0l0,0l-0.5-1.9
			c-0.2-0.6-0.4-1.2-0.6-1.9c-0.2-0.6-0.5-1.2-0.8-1.8c-0.1-0.3-0.3-0.6-0.5-0.9s-0.3-0.6-0.5-0.8l-0.6-0.8
			c-0.2-0.2-0.4-0.5-0.7-0.7c-0.2-0.3-0.5-0.4-0.7-0.6s-0.5-0.4-0.8-0.5c-0.3-0.2-0.6-0.3-0.9-0.4s-0.6-0.2-0.9-0.3
			c-0.6-0.1-1.3-0.1-1.9,0l0,0l0,0c-1.3,0-2.7,0.2-3.9,0.8c-1.2,0.7-2.1,1.7-2.7,2.9c-0.6,1.2-0.9,2.6-1.1,3.9
			c-0.2,1.4-0.3,2.7-0.3,4.1c0,2.8,0.4,5.5,0.9,8.2c0.2,1.4,0.7,2.6,1.2,3.9s1.1,2.5,1.7,3.8c0.6,1.2,1.3,2.4,2,3.6s1.4,2.4,2.2,3.5
			c0.8,1.1,1.6,2.3,2.4,3.4c0.9,1.1,1.6,2.3,2.3,3.5c0.7,1.2,1.4,2.4,1.9,3.7c0.6,1.3,1.1,2.6,1.5,3.9s0.7,2.7,1,4.1
			c0.1,0.7,0.2,1.4,0.2,2.1l0.1,2.1l0,0l-0.1-2.1c-0.1-0.7-0.2-1.4-0.3-2.1c-0.3-1.4-0.6-2.7-1-4s-0.9-2.6-1.5-3.8
			c-0.6-1.3-1.2-2.5-2-3.6c-0.7-1.2-1.5-2.3-2.3-3.4c-0.9-1.1-1.7-2.2-2.5-3.4c-0.8-1.1-1.5-2.3-2.3-3.5c-0.7-1.2-1.4-2.4-2-3.6
			s-1.2-2.5-1.8-3.8c-0.5-1.3-1-2.6-1.2-4c-0.5-2.7-0.9-5.5-0.9-8.3c0-1.4,0.1-2.8,0.3-4.2c0.2-1.4,0.6-2.8,1.2-4
			c0.6-1.3,1.6-2.4,2.9-3.1s2.7-0.9,4.1-0.9H282c0.4-0.1,0.7-0.1,1-0.1s0.7,0,1,0.1c0.3,0,0.7,0.2,1,0.3c0.3,0.2,0.6,0.3,0.9,0.5
			s0.6,0.3,0.8,0.6c0.2,0.2,0.5,0.4,0.8,0.7c0.2,0.2,0.5,0.5,0.7,0.7l0.6,0.8c0.2,0.3,0.4,0.6,0.5,0.9c0.2,0.3,0.3,0.6,0.5,0.9
			c0.3,0.6,0.6,1.2,0.8,1.8c0.2,0.6,0.5,1.2,0.6,1.9l0.5,1.9v-0.1l3.8,6.7c0.6,1.1,1.3,2.2,2,3.3l2,3.3l1,1.7
			c0.3,0.5,0.7,1.1,1.1,1.6l2.2,3.2l4.4,6.4l0,0c2.8,2.3,5.6,4.6,8.4,7c1.4,1.2,2.7,2.4,4.1,3.6c1.3,1.2,2.7,2.4,4,3.7
			c1.3,1.2,2.6,2.5,3.9,3.8c0.7,0.6,1.3,1.3,1.9,1.9s1.3,1.3,1.9,2s1.2,1.3,1.8,2l1.8,2.1l1.7,2.2C338,359.5,338.5,360.3,339,361.1
			L339,361.1z"/>
	</g>
	<g>
		<path class="st0" d="M290.1,342.6l-9,11.5l0,0l0,0l-1.1,0.7c-0.4,0.2-0.7,0.5-1.1,0.6l-1.2,0.5c-0.4,0.2-0.8,0.3-1.2,0.5
			c-0.4,0.1-0.8,0.3-1.2,0.4l-1.2,0.3c-0.4,0.1-0.8,0.1-1.3,0.2c-0.4,0.1-0.8,0.1-1.3,0.1c-0.4,0-0.9,0-1.3,0
			c-0.4-0.1-0.8-0.1-1.3-0.2l-1.3-0.3l-1.2-0.4l-1.2-0.4c-0.4-0.2-0.8-0.3-1.2-0.5c-0.8-0.4-1.5-0.8-2.2-1.3l0,0l0,0
			c-0.5-0.6-1-1.1-1.5-1.7c-0.5-0.5-1.1-1.1-1.6-1.6c-1.1-1.1-2.2-2.1-3.4-3c-2.3-1.9-4.8-3.7-7.5-5.1h-0.1v-0.1l-5.5-15.3l0,0
			l-1-1.6c-0.4-0.5-0.8-1-1.2-1.6l-0.7-0.7c-0.2-0.2-0.4-0.5-0.7-0.7l-0.7-0.6c-0.2-0.2-0.5-0.4-0.8-0.6s-0.5-0.4-0.8-0.5
			s-0.6-0.3-0.9-0.4c-0.6-0.3-1.2-0.5-1.8-0.6c-0.3,0-0.6-0.1-0.9-0.1c-0.3,0-0.6,0-0.9,0c-0.3,0-0.6,0.1-0.9,0.1
			c-0.3,0.1-0.6,0.2-0.9,0.3h-0.1l0,0c-0.9,0-1.9,0.1-2.7,0.3c-0.9,0.3-1.7,0.8-1.9,1.6c-0.1,0.4-0.1,0.8,0,1.3
			c0.1,0.4,0.2,0.9,0.4,1.3c0.4,0.8,0.9,1.6,1.4,2.3l0,0l0,0c1.5,2.7,2.8,5.4,4.1,8.2l1,2.1c0.3,0.7,0.6,1.4,0.9,2.1l1.6,4.3
			l6.3,17.2l0,0c0.5,0.7,1.1,1.4,1.7,2c0.6,0.6,1.3,1.2,1.9,1.8c1.3,1.2,2.8,2.2,4.2,3.2l0,0c-1.5-1-2.9-2-4.3-3.2
			c-0.7-0.6-1.4-1.2-2-1.8c-0.6-0.6-1.3-1.3-1.8-2l0,0l0,0l-6.5-17.1l-1.6-4.3c-0.3-0.7-0.5-1.4-0.9-2.1l-1-2.1
			c-1.3-2.8-2.7-5.5-4.1-8.2l0,0c-0.6-0.8-1.1-1.6-1.5-2.4c-0.2-0.4-0.4-0.9-0.4-1.4c-0.1-0.5-0.1-1,0.1-1.5
			c0.1-0.5,0.5-0.9,0.9-1.3c0.2-0.1,0.4-0.3,0.6-0.4c0.2-0.1,0.5-0.2,0.7-0.3c0.9-0.3,1.9-0.3,2.9-0.3h-0.1c0.3-0.1,0.7-0.2,1-0.3
			c0.3-0.1,0.7-0.1,1-0.1s0.7,0,1,0s0.7,0.1,1,0.1c0.7,0.1,1.3,0.3,1.9,0.6c0.3,0.1,0.6,0.3,0.9,0.5c0.3,0.1,0.6,0.3,0.8,0.5
			c0.3,0.2,0.6,0.4,0.8,0.6l0.7,0.7c0.3,0.2,0.5,0.5,0.7,0.7l0.7,0.7c0.4,0.5,0.8,1,1.2,1.6l1.1,1.7l0,0l0,0l5.5,15.3l-0.1-0.1
			c2.7,1.5,5.1,3.3,7.5,5.2c1.2,1,2.3,2,3.4,3c0.6,0.5,1.1,1.1,1.6,1.6s1,1.1,1.5,1.7l0,0c0.7,0.5,1.4,0.9,2.1,1.3
			c0.4,0.2,0.8,0.4,1.1,0.5l1.2,0.4l1.2,0.4l1.2,0.3c0.4,0.1,0.8,0.1,1.3,0.2c0.4,0.1,0.8,0,1.3,0.1c0.4,0,0.8,0,1.3,0
			c0.4-0.1,0.8,0,1.3-0.1l1.2-0.3c0.4-0.1,0.8-0.2,1.2-0.4c0.4-0.1,0.8-0.2,1.2-0.4l1.1-0.5c0.4-0.2,0.7-0.4,1.1-0.6l1.1-0.7l0,0
			L290.1,342.6L290.1,342.6z"/>
	</g>
	<g>
		<path class="st0" d="M234.5,343.9l-8.1-6.1c-0.7-0.5-1.3-1.1-2-1.5c-0.4-0.2-0.7-0.4-1.1-0.6c-0.4-0.2-0.8-0.3-1.2-0.4
			s-0.8-0.2-1.2-0.2c-0.2,0-0.4,0-0.6,0c-0.2,0-0.4,0.1-0.6,0.1c-0.2,0-0.4,0.1-0.6,0.2c-0.2,0.1-0.4,0.2-0.5,0.3
			c-0.4,0.2-0.6,0.5-0.9,0.8l0,0c-0.5,0.5-0.9,1.2-1,1.9c-0.2,0.7-0.2,1.5,0,2.2c0.1,0.4,0.2,0.7,0.3,1.1s0.3,0.7,0.4,1
			c0.2,0.3,0.4,0.6,0.6,1c0.2,0.3,0.4,0.6,0.6,0.9c0.4,0.6,1,1.1,1.5,1.7l1.6,1.6c1,1.1,2,2.2,3,3.3c2,2.3,3.8,4.6,5.6,7.1
			c0.9,1.2,1.7,2.5,2.5,3.7c0.4,0.6,0.8,1.3,1.1,1.9l1.1,2l0,0l0,0c1,2.4,2.1,4.8,3.4,7.1c0.6,1.1,1.3,2.3,2,3.3
			c0.2,0.3,0.4,0.5,0.6,0.8c0.2,0.3,0.4,0.5,0.6,0.8l0.6,0.7l0.7,0.7l0,0l7.5,5.6c2.5,1.8,5,3.7,7.4,5.6l0,0
			c-2.5-1.8-5.1-3.6-7.6-5.4l-7.6-5.4l0,0l0,0l-0.7-0.7l-0.7-0.7c-0.2-0.2-0.4-0.5-0.6-0.8c-0.2-0.3-0.4-0.5-0.6-0.8
			c-0.8-1.1-1.4-2.2-2.1-3.4c-1.3-2.3-2.4-4.7-3.4-7.2l0,0l-1-2c-0.4-0.6-0.7-1.3-1.1-1.9c-0.8-1.3-1.6-2.5-2.4-3.7
			c-1.7-2.4-3.6-4.8-5.5-7.1c-1-1.1-2-2.3-3-3.3l-1.5-1.6c-0.5-0.6-1-1.1-1.5-1.7c-0.2-0.3-0.5-0.6-0.7-0.9s-0.4-0.6-0.6-1
			c-0.2-0.3-0.3-0.7-0.5-1c-0.1-0.4-0.2-0.7-0.3-1.1c-0.1-0.7-0.1-1.5,0-2.3c0.2-0.7,0.6-1.4,1.1-2l0,0c0.3-0.3,0.6-0.6,1-0.9
			c0.2-0.1,0.4-0.2,0.6-0.3c0.2-0.1,0.4-0.2,0.6-0.2c0.2-0.1,0.4-0.1,0.6-0.1c0.2,0,0.4-0.1,0.6,0c0.4,0,0.9,0.1,1.3,0.2
			c0.4,0.1,0.8,0.2,1.2,0.4c0.4,0.2,0.8,0.4,1.1,0.6c0.7,0.4,1.4,1,2,1.5L234.5,343.9L234.5,343.9z"/>
	</g>
	<g>
		<path class="st0" d="M335,368c1.2-1.4,2.5-2.7,4.1-3.7c0.4-0.2,0.8-0.5,1.2-0.7c0.4-0.2,0.9-0.4,1.3-0.5l0.7-0.2
			c0.2-0.1,0.5-0.1,0.7-0.1c0.5-0.1,0.9-0.1,1.4-0.1l0,0c2.2-0.6,4.4-1.4,6.5-2.3s4.3-1.8,6.3-2.8c2.1-1,4.2-2,6.2-3.1
			s4.1-2.1,6.1-3.3c2-1.1,4.1-2.2,6.1-3.4c2-1.1,4-2.3,6-3.5s4-2.4,5.9-3.6c2-1.2,3.9-2.4,5.9-3.7c2-1.2,3.9-2.5,5.9-3.6l6-3.5l12-7
			l24-14h0.1h0.1l3.9,1.1c1.3,0.3,2.6,0.6,4,0.9c1.3,0.2,2.7,0.5,4,0.6l2,0.2c0.7,0.1,1.3,0.1,2,0.1c1.3,0.1,2.7,0.1,4.1,0.1
			c0.7,0,1.3-0.1,2-0.1s1.3-0.1,2-0.2l2-0.3l2-0.4c0.7-0.1,1.3-0.3,2-0.5s1.3-0.3,2-0.5c1.3-0.4,2.6-0.9,3.8-1.4l1.9-0.8
			c0.6-0.3,1.2-0.6,1.8-0.9c1.2-0.6,2.4-1.3,3.5-2.1c1.1-0.7,2.2-1.5,3.3-2.4c1.1-0.8,2.1-1.7,3.1-2.7c1-0.9,1.9-1.9,2.8-2.9
			s1.7-2.1,2.5-3.2s1.6-2.2,2.2-3.4l0,0l0,0c0.7-1.1,1.4-2.2,2.1-3.3l1-1.7c0.3-0.6,0.6-1.1,0.9-1.7l0.8-1.8
			c0.3-0.6,0.5-1.2,0.7-1.8c0.5-1.2,0.8-2.5,1.2-3.7c0.2-0.6,0.3-1.3,0.4-1.9s0.3-1.3,0.3-1.9c0.1-0.6,0.2-1.3,0.2-1.9l0.1-2
			c0.1-0.7,0-1.3,0-2v-1l-0.1-1c-0.1-1.3-0.3-2.6-0.6-3.9l-0.5-1.9l-0.6-1.9c-0.4-1.2-0.9-2.5-1.4-3.6c-0.3-0.6-0.5-1.2-0.9-1.8
			c-0.3-0.6-0.6-1.2-0.9-1.7c-0.3-0.6-0.7-1.1-1-1.7s-0.7-1.1-1.1-1.6s-0.7-1.1-1.2-1.6c-0.4-0.5-0.8-1-1.2-1.5
			c-0.8-1-1.7-2-2.6-2.9c-1.8-1.9-3.7-3.7-5.8-5.2l0,0l0,0c-0.7-0.7-1.4-1.4-2.2-2c-0.4-0.3-0.8-0.7-1.2-0.9l-1.2-0.9
			c-0.4-0.3-0.9-0.5-1.3-0.8s-0.9-0.5-1.3-0.7l-1.4-0.7l-1.4-0.6c-0.5-0.2-1-0.3-1.4-0.5c-0.5-0.2-1-0.3-1.5-0.4c-1-0.3-2-0.5-3-0.7
			s-2-0.3-3-0.4s-2-0.2-3-0.2c-4.1-0.1-8.1,0.4-12.1,1.2c-2,0.4-4,0.9-5.9,1.6c-1.9,0.6-3.9,1.3-5.7,2.1l0,0l0,0h-1.7
			c-0.6,0-1.1,0-1.7,0l-1.7,0.1l-1.7,0.2c-0.6,0.1-1.1,0.2-1.6,0.3c-0.5,0.1-1.1,0.2-1.6,0.4l-1.6,0.5c-0.5,0.2-1,0.4-1.6,0.6
			c-0.5,0.2-1,0.4-1.5,0.6s-1,0.4-1.5,0.7c-1,0.5-2,1-2.9,1.6s-1.9,1.2-2.8,1.9c-0.9,0.7-1.8,1.3-2.6,2.1l0,0l0,0l-0.9,0.1
			c-0.3,0-0.6,0-0.9,0.1c-0.6,0.1-1.2,0.2-1.9,0.4c-0.6,0.1-1.2,0.4-1.8,0.6c-0.3,0.1-0.6,0.2-0.9,0.4c-0.3,0.1-0.6,0.3-0.9,0.4
			c-0.6,0.3-1.1,0.6-1.6,1c-0.3,0.2-0.5,0.4-0.8,0.6s-0.5,0.4-0.7,0.6c-1,0.8-1.9,1.7-2.6,2.8l0,0c0.7-1.1,1.6-2,2.6-2.8
			c0.2-0.2,0.5-0.4,0.7-0.6c0.3-0.2,0.5-0.4,0.8-0.6c0.5-0.4,1.1-0.7,1.6-1c0.3-0.2,0.6-0.3,0.9-0.4s0.6-0.3,0.9-0.4
			c0.6-0.2,1.2-0.4,1.8-0.6c0.6-0.2,1.2-0.3,1.9-0.4c0.3-0.1,0.6-0.1,0.9-0.1l1-0.1l0,0c0.8-0.8,1.7-1.5,2.6-2.1
			c0.9-0.7,1.8-1.3,2.8-1.9s1.9-1.1,2.9-1.6c0.5-0.3,1-0.5,1.5-0.7s1-0.5,1.5-0.6c0.5-0.2,1-0.4,1.6-0.6l1.6-0.5
			c0.5-0.2,1.1-0.3,1.6-0.4s1.1-0.3,1.6-0.3l1.7-0.3l1.7-0.1c0.6-0.1,1.1-0.1,1.7,0h1.7h-0.1c1.9-0.8,3.8-1.5,5.8-2.2
			c2-0.6,3.9-1.2,5.9-1.6c4-0.9,8.1-1.3,12.2-1.3c1,0,2.1,0.1,3.1,0.2s2,0.2,3.1,0.4c1,0.2,2,0.4,3,0.7c0.5,0.1,1,0.3,1.5,0.4
			c0.5,0.2,1,0.3,1.5,0.5l1.4,0.6l1.4,0.7c0.5,0.2,0.9,0.5,1.4,0.7c0.4,0.3,0.9,0.5,1.3,0.8l1.3,0.9c0.4,0.3,0.8,0.6,1.2,1
			c0.8,0.6,1.5,1.4,2.3,2.1l0,0c2.1,1.6,4.1,3.4,5.9,5.3c0.9,1,1.8,1.9,2.6,3c0.4,0.5,0.8,1,1.2,1.6c0.4,0.5,0.8,1.1,1.2,1.6
			c0.4,0.5,0.7,1.1,1.1,1.7s0.7,1.1,1,1.7s0.7,1.2,0.9,1.7c0.3,0.6,0.6,1.2,0.9,1.8c0.6,1.2,1,2.4,1.4,3.7c0.2,0.6,0.4,1.3,0.6,1.9
			l0.5,1.9c0.2,1.3,0.5,2.6,0.6,3.9l0.1,1v1c0,0.7,0.1,1.3,0,2l-0.1,2c-0.1,0.7-0.2,1.3-0.3,2c-0.1,0.7-0.2,1.3-0.4,2
			c-0.1,0.6-0.3,1.3-0.4,1.9c-0.4,1.3-0.7,2.5-1.2,3.8c-0.2,0.6-0.4,1.2-0.7,1.8l-0.8,1.8c-0.3,0.6-0.6,1.2-0.9,1.8l-1,1.7
			c-0.7,1.1-1.4,2.2-2.1,3.3l0,0c-0.7,1.2-1.4,2.3-2.2,3.4c-0.8,1.1-1.7,2.2-2.6,3.2s-1.8,2-2.8,2.9s-2,1.8-3.1,2.7
			c-1.1,0.8-2.2,1.6-3.3,2.4c-1.1,0.8-2.3,1.4-3.5,2.1c-0.6,0.3-1.2,0.6-1.8,0.9l-1.9,0.8c-1.3,0.5-2.5,1-3.9,1.4
			c-0.6,0.2-1.3,0.4-2,0.5c-0.7,0.2-1.3,0.4-2,0.5l-2,0.4l-2,0.3c-0.7,0.1-1.4,0.1-2,0.2c-0.7,0-1.4,0.1-2,0.1c-1.4,0-2.7,0-4.1-0.1
			c-0.7,0-1.4-0.1-2-0.1l-2-0.2c-1.4-0.1-2.7-0.4-4-0.7c-1.3-0.3-2.6-0.6-4-0.9l-3.9-1.1h0.1l-24,14l-12,7l-6,3.5
			c-2,1.1-4,2.4-5.9,3.6c-2,1.2-3.9,2.5-5.9,3.7s-3.9,2.4-6,3.6c-2,1.2-4,2.4-6,3.5s-4,2.3-6.1,3.4c-2,1.1-4.1,2.2-6.1,3.3
			c-2.1,1-4.1,2.1-6.2,3.1s-4.2,1.9-6.4,2.8c-2.2,0.9-4.3,1.7-6.6,2.3l0,0l0,0c-0.5,0-0.9,0-1.4,0.1c-0.2,0-0.5,0-0.7,0.1l-0.7,0.2
			c-0.4,0.2-0.9,0.3-1.3,0.5s-0.8,0.4-1.2,0.7C337.6,365.4,336.2,366.6,335,368L335,368z"/>
	</g>
	<g>
		<path class="st0" d="M227.3,354.9c-0.7,0-1.4,0.1-2.1,0.4c-0.7,0.3-1.2,0.8-1.4,1.5s0,1.4,0.2,2.1l0.4,1l0.5,0.9l4,7.6l8,15.2l0,0
			c1.4,2.1,3.2,3.9,5.1,5.6c1.9,1.7,3.9,3.2,6,4.6c2.1,1.3,4.4,2.5,6.7,3.5c2.3,1,4.7,1.9,7.1,2.5c2.5,0.5,5,0.9,7.5,1.3
			s5,0.7,7.5,1.1c2.5,0.3,5,0.6,7.5,0.9s5,0.5,7.5,0.7s5,0.3,7.6,0.5l7.6,0.4l7.6,0.2c2.5,0.1,5.1,0,7.6,0s5.1-0.1,7.6-0.1l3.8-0.1
			l3.8-0.2c2.5-0.1,5-0.2,7.6-0.4l7.6-0.5l0,0c7.5-1.3,15.1-2.9,22.5-4.7c3.7-0.9,7.4-1.9,11.1-2.9c3.7-1.1,7.4-2.1,11-3.4
			c1.8-0.6,3.6-1.3,5.4-1.9l5.4-1.9c3.6-1.3,7.2-2.6,10.8-4c7.1-2.8,14.2-5.7,21.2-8.9c3.5-1.6,7-3.2,10.4-4.8
			c3.5-1.7,6.9-3.3,10.3-5.1c3.4-1.8,6.8-3.5,10.1-5.4c3.4-1.9,6.7-3.8,10-5.7c1.6-1,3.3-2,4.9-3s3.2-2.1,4.8-3.1
			c1.6-1,3.2-2.1,4.7-3.2c1.6-1.1,3.1-2.2,4.7-3.4c3.1-2.3,6.1-4.7,9-7.1c1.5-1.2,2.9-2.5,4.3-3.8c1.4-1.3,2.8-2.6,4.1-4l0,0l0,0
			c1.2-0.9,2.4-1.9,3.5-3c0.6-0.5,1.1-1.1,1.6-1.6c0.5-0.6,1-1.1,1.5-1.7s0.9-1.2,1.4-1.8c0.2-0.3,0.4-0.6,0.6-1
			c0.2-0.3,0.4-0.7,0.5-1c0.2-0.3,0.3-0.7,0.4-1c0.1-0.4,0.3-0.7,0.3-1.1s0.1-0.7,0.2-1.1v-1.1v-0.1l0,0c0.5-2.6,0.9-5.2,1.1-7.8
			c0.1-1.3,0.1-2.6,0-3.9l-0.1-1c0-0.3-0.1-0.6-0.2-0.9c0-0.3-0.2-0.6-0.3-0.9s-0.3-0.5-0.5-0.8l-0.1-0.1l0,0
			c-0.2-7.8-0.6-15.6-1.2-23.4c-0.3-3.9-0.7-7.8-1.3-11.7c-0.6-3.9-1.2-7.7-2.2-11.5l-0.9-2.8l-1-2.8l-1.9-5.5l-3.9-11.1
			c-2.6-7.4-5.3-14.7-7.9-22.1c-2.7-7.3-5.4-14.7-8.1-22s-5.5-14.6-8.4-21.9c-1.4-3.6-2.9-7.3-4.4-10.9c-1.4-3.6-3-7.2-4.5-10.8
			c-0.7-1.8-1.6-3.6-2.4-5.4s-1.6-3.6-2.4-5.3l-2.6-5.3c-0.9-1.7-1.9-3.4-2.9-5.1l0,0l0,0c-1.4-2.7-3-5.4-4.7-8s-3.5-5.1-5.4-7.5
			c-0.9-1.2-1.9-2.4-2.9-3.6s-2-2.3-3.1-3.5c-1-1.1-2.1-2.2-3.2-3.3c-1.1-1.1-2.2-2.1-3.4-3.2c-1.1-1-2.3-2-3.5-3s-2.4-1.9-3.7-2.8
			c-1.2-0.9-2.5-1.7-3.8-2.6c-1.3-0.8-2.6-1.6-4-2.3c-1.3-0.8-2.7-1.4-4.1-2.1c-0.7-0.3-1.4-0.6-2.1-0.9s-1.4-0.6-2.1-0.9l-2.2-0.8
			l-2.2-0.7c-0.7-0.2-1.5-0.5-2.2-0.6l-2.2-0.6l0,0l2.2,0.6c0.8,0.2,1.5,0.4,2.2,0.6l2.2,0.7l2.2,0.8c0.7,0.3,1.4,0.6,2.1,0.9
			s1.4,0.6,2.1,0.9c1.4,0.7,2.8,1.3,4.1,2.1c1.4,0.7,2.7,1.5,4,2.3c1.3,0.9,2.6,1.7,3.8,2.6c1.3,0.9,2.5,1.8,3.7,2.8s2.4,2,3.5,3
			c1.2,1,2.3,2.1,3.4,3.2s2.2,2.2,3.2,3.3c1.1,1.1,2.1,2.3,3.1,3.5s2,2.4,2.9,3.6c1.9,2.4,3.7,5,5.4,7.5c1.7,2.6,3.3,5.2,4.7,8l0,0
			c1,1.7,2,3.4,2.9,5.1l2.6,5.3c0.9,1.7,1.6,3.6,2.5,5.3c0.8,1.8,1.6,3.6,2.4,5.4c1.5,3.6,3.1,7.2,4.5,10.8c1.5,3.6,3,7.2,4.4,10.9
			c2.9,7.3,5.7,14.6,8.4,21.9c2.8,7.3,5.5,14.7,8.2,22s5.3,14.7,7.9,22.1l3.9,11.1l1.9,5.5l1,2.8l0.9,2.8c1,3.8,1.6,7.7,2.2,11.5
			c0.5,3.9,0.9,7.8,1.3,11.7c0.6,7.8,1,15.6,1.2,23.4l-0.1-0.1c0.2,0.3,0.4,0.6,0.5,0.9s0.3,0.6,0.3,1c0.1,0.3,0.2,0.7,0.2,1l0.1,1
			c0.1,1.3,0,2.7,0,4c-0.2,2.6-0.6,5.2-1.1,7.8v-0.1l0.1,1.2c0,0.4-0.1,0.8-0.2,1.2c-0.1,0.4-0.2,0.8-0.3,1.1
			c-0.1,0.4-0.3,0.7-0.4,1.1c-0.2,0.4-0.3,0.7-0.5,1s-0.4,0.7-0.6,1c-0.4,0.6-0.9,1.3-1.4,1.9s-1,1.2-1.5,1.7
			c-0.5,0.6-1.1,1.1-1.6,1.6c-1.1,1.1-2.3,2.1-3.5,3l0,0c-1.4,1.3-2.7,2.7-4.2,4c-1.4,1.3-2.8,2.6-4.3,3.8c-2.9,2.5-5.9,4.9-9,7.1
			c-1.5,1.1-3.1,2.3-4.7,3.4s-3.1,2.2-4.8,3.2c-1.6,1.1-3.2,2.1-4.8,3.1c-1.6,1-3.3,2-4.9,3c-3.3,2-6.6,3.9-10,5.7
			c-3.4,1.9-6.7,3.6-10.2,5.4c-3.4,1.7-6.9,3.4-10.3,5.1c-3.5,1.6-6.9,3.3-10.5,4.8c-7,3.1-14.1,6.1-21.2,8.8
			c-3.6,1.4-7.2,2.7-10.8,4l-5.4,1.9c-1.8,0.6-3.6,1.3-5.4,1.9c-3.6,1.2-7.3,2.3-11,3.4c-3.7,1-7.4,2-11.1,2.9
			c-7.5,1.8-15,3.4-22.5,4.7l0,0l0,0l-7.6,0.5c-2.5,0.2-5,0.3-7.6,0.4l-3.8,0.2l-3.8,0.1c-2.5,0-5.1,0.1-7.6,0.1s-5.1,0-7.6-0.1
			l-7.6-0.2l-7.6-0.4c-2.5-0.2-5-0.3-7.6-0.5c-2.5-0.2-5-0.4-7.5-0.7c-2.5-0.3-5-0.6-7.5-0.9s-5-0.7-7.5-1.1s-5-0.8-7.5-1.3
			c-2.5-0.6-4.8-1.5-7.2-2.5c-2.3-1-4.6-2.2-6.7-3.6c-2.1-1.4-4.2-2.9-6-4.6c-1.9-1.7-3.6-3.5-5.1-5.6l0,0l-8-15.2l-4-7.6l-0.5-0.9
			l-0.4-1c-0.2-0.7-0.4-1.4-0.2-2.1s0.8-1.3,1.4-1.5C225.9,355,226.6,354.9,227.3,354.9L227.3,354.9z"/>
	</g>
	<g>
		<path class="st0" d="M278.5,294.2l-1.9-1.4c-0.6-0.5-1.3-0.8-2-1.3c-0.7-0.4-1.3-0.8-2-1.2l-2.1-1.1l-2.1-1
			c-0.7-0.3-1.4-0.6-2.2-0.9c-0.7-0.3-1.4-0.6-2.2-0.8l-2.2-0.7c-1.5-0.4-3-0.9-4.5-1.3c-0.8-0.2-1.5-0.4-2.3-0.6s-1.5-0.4-2.3-0.5
			c-1.5-0.3-3.1-0.6-4.6-0.8c-1.5-0.2-3.1-0.5-4.6-0.6l0,0l0,0c-1.7-0.5-3.5-0.8-5.2-0.9c-1.8,0-3.5,0.2-5.3,0.6
			c-3.4,0.9-6.6,2.8-9.2,5.1c-2.7,2.3-4.9,5.1-6.9,8.1c-1,1.5-1.9,3-2.7,4.6s-1.5,3.2-2.2,4.9l-16.9,39.3l0,0l-0.3,0.9
			c-0.1,0.3-0.2,0.6-0.3,0.9l-0.4,0.9c-0.1,0.3-0.3,0.5-0.5,0.8s-0.3,0.5-0.6,0.8c-0.2,0.2-0.4,0.5-0.7,0.7l-0.7,0.6
			c-0.2,0.2-0.5,0.3-0.8,0.5s-0.6,0.3-0.9,0.4c-0.3,0.1-0.6,0.3-0.9,0.4c-0.3,0.1-0.6,0.2-0.9,0.3c-0.3,0.1-0.6,0.2-0.9,0.2
			c-0.6,0.1-1.3,0.2-1.9,0.2c-0.6,0-1.3,0-1.9-0.1l0,0h-7.5c-0.6,0-1.2,0-1.8,0.1s-1.2,0.2-1.8,0.3c-1.2,0.3-2.4,0.7-3.4,1.4
			c-0.5,0.3-1,0.7-1.4,1.1s-0.8,0.9-1.1,1.4s-0.5,1.1-0.7,1.7s-0.2,1.2-0.3,1.8c0,0.6,0,1.2,0.1,1.8c0.1,0.6,0.2,1.2,0.3,1.8
			c0.1,0.6,0.3,1.2,0.5,1.8c0.2,0.6,0.5,1.2,0.7,1.7l0,0c0.4,0.6,0.8,1.2,1.2,1.8c0.4,0.6,0.9,1.2,1.4,1.7s1,1.1,1.5,1.6
			s1.1,1,1.6,1.5c0.6,0.5,1.1,1,1.7,1.4c0.6,0.4,1.2,0.9,1.8,1.3s1.2,0.8,1.9,1.2l1.9,1.1c0.6,0.4,1.3,0.6,2,1l1,0.5l1,0.4l2.1,0.8
			l2.1,0.6l1.1,0.3c0.4,0.1,0.7,0.1,1.1,0.2l2.2,0.4c0.7,0.2,1.5,0.2,2.2,0.3l2.2,0.2l0,0l0,0c0.7,0.2,1.5,0.3,2.3,0.4
			c0.4,0.1,0.8,0.1,1.2,0.1s0.8,0,1.2,0l1.2-0.1l1.2-0.2c0.8-0.1,1.5-0.4,2.3-0.6s1.5-0.6,2.2-0.9s1.4-0.8,2.1-1.2
			c0.7-0.4,1.3-0.9,1.9-1.4c0.7-0.4,1.2-1,1.8-1.6s1.2-1.1,1.7-1.7l1.5-1.8c0.5-0.6,0.9-1.3,1.4-1.9c0.4-0.7,0.9-1.3,1.3-2l1.2-2.1
			c0.4-0.7,0.8-1.4,1.1-2.1l2-4.4l0,0l-1.9,4.4c-0.3,0.7-0.7,1.4-1.1,2.1l-1.1,2.1c-0.4,0.7-0.9,1.3-1.3,2c-0.5,0.7-0.8,1.4-1.4,2
			l-1.5,1.9c-0.5,0.6-1.1,1.1-1.7,1.7c-0.6,0.6-1.1,1.1-1.8,1.6s-1.3,1-2,1.4s-1.4,0.8-2.1,1.2c-0.7,0.3-1.5,0.7-2.2,0.9
			c-0.8,0.2-1.5,0.5-2.3,0.6L203,383l-1.2,0.1c-0.4,0-0.8,0-1.2,0s-0.8,0-1.2-0.1c-0.8-0.1-1.6-0.2-2.4-0.4l0,0l-2.2-0.2
			c-0.7-0.1-1.5-0.1-2.2-0.3l-2.2-0.4c-0.4-0.1-0.7-0.1-1.1-0.2l-1.1-0.3l-2.2-0.6l-2.1-0.8l-1.1-0.4l-1-0.5c-0.7-0.3-1.4-0.6-2-1
			l-2-1.1c-0.6-0.4-1.3-0.8-1.9-1.2c-0.6-0.4-1.2-0.9-1.8-1.3s-1.2-0.9-1.7-1.4c-0.6-0.5-1.1-1-1.6-1.5c-0.6-0.5-1-1.1-1.5-1.6
			c-0.5-0.6-1-1.1-1.4-1.8c-0.5-0.6-0.9-1.2-1.3-1.9l0,0l0,0c-0.2-0.6-0.5-1.2-0.7-1.8c-0.2-0.6-0.4-1.2-0.6-1.8
			c-0.2-0.6-0.3-1.2-0.4-1.9c-0.1-0.6-0.1-1.3-0.1-1.9s0.1-1.3,0.3-1.9c0.1-0.6,0.4-1.2,0.7-1.8c0.3-0.5,0.7-1.1,1.2-1.5
			c0.5-0.5,1-0.9,1.5-1.2c1.1-0.7,2.3-1.1,3.5-1.4c0.6-0.1,1.2-0.3,1.9-0.3c0.6-0.1,1.3-0.1,1.9-0.1h7.5l0,0l0,0
			c0.6,0.1,1.2,0.1,1.8,0.1s1.2-0.1,1.8-0.2c0.3,0,0.6-0.1,0.9-0.2c0.3-0.1,0.6-0.2,0.9-0.3c0.3-0.1,0.6-0.2,0.9-0.3
			c0.3-0.1,0.6-0.2,0.8-0.4c0.3-0.2,0.5-0.3,0.8-0.5l0.7-0.6c0.2-0.2,0.4-0.4,0.6-0.7c0.2-0.2,0.4-0.5,0.6-0.7
			c0.2-0.3,0.4-0.5,0.5-0.8l0.4-0.8c0.2-0.3,0.2-0.6,0.3-0.9l0.3-0.9l0,0l0,0l17-39.3c0.7-1.6,1.4-3.3,2.2-4.9s1.7-3.1,2.7-4.6
			c2-3,4.2-5.8,6.9-8.2c2.7-2.3,5.8-4.3,9.3-5.1c1.7-0.4,3.5-0.6,5.3-0.6c1.8,0.1,3.6,0.4,5.3,0.9l0,0c1.6,0.2,3.1,0.4,4.6,0.6
			s3.1,0.5,4.6,0.9c0.8,0.1,1.5,0.3,2.3,0.5s1.5,0.4,2.3,0.6c1.5,0.4,3,0.8,4.5,1.3l2.2,0.8c0.7,0.2,1.5,0.5,2.2,0.8
			s1.5,0.6,2.2,0.9l2.1,1l2.1,1.1c0.7,0.3,1.4,0.8,2,1.2c0.7,0.4,1.4,0.8,2,1.3L278.5,294.2L278.5,294.2z"/>
	</g>
	<g>
		<path class="st0" d="M293.8,308.1c0,0,2.1,1,4.2,2c0.5,0.3,1.1,0.5,1.6,0.8s0.9,0.5,1.3,0.8c0.7,0.5,1.2,0.8,1.2,0.8l0,0
			c0,0-0.6-0.2-1.4-0.5c-0.4-0.2-0.9-0.4-1.4-0.6c-0.5-0.3-1-0.6-1.5-0.9C295.8,309.4,293.8,308.2,293.8,308.1L293.8,308.1z"/>
	</g>
	<g>
		<path class="st0" d="M286.8,294.9c0,0,0.3-0.3,0.9-0.9c0.3-0.3,0.7-0.6,1.1-1s0.9-0.9,1.5-1.3c0.6-0.5,1.2-1,2-1.6
			c0.7-0.5,1.5-1.1,2.4-1.7s1.8-1.2,2.8-1.9c0.5-0.3,1-0.7,1.5-1s1.1-0.6,1.7-0.9c1.1-0.6,2.3-1.3,3.6-2c1.3-0.6,2.6-1.3,3.9-1.9
			c1.3-0.7,2.8-1.2,4.2-1.8c1.5-0.6,2.9-1.3,4.5-1.8c1.5-0.5,3.1-1.1,4.7-1.6c0.8-0.3,1.6-0.6,2.4-0.8c0.8-0.2,1.6-0.5,2.5-0.7
			c1.7-0.5,3.3-0.9,5-1.4s3.4-0.8,5.1-1.2c1.7-0.4,3.4-0.7,5.1-1.1c1.7-0.3,3.4-0.6,5.1-0.8c1.7-0.3,3.4-0.5,5-0.8
			c1.7-0.3,3.3-0.4,5-0.5c1.6-0.2,3.2-0.3,4.8-0.5c1.6-0.1,3.1-0.3,4.6-0.4c3-0.1,5.8-0.2,8.4-0.3c1.3,0,2.6-0.1,3.8-0.1
			c1.2,0,2.3,0,3.4,0c2.1,0,4,0.1,5.5,0.1c3,0.1,4.8,0.1,4.8,0.1l0,0c0,0-1.7,0-4.8,0c-1.5,0-3.4,0-5.5,0c-1.1,0-2.2,0-3.4,0
			c-1.2,0-2.4,0.1-3.7,0.2c-2.6,0.1-5.4,0.3-8.4,0.4c-1.5,0-3,0.2-4.6,0.4c-1.6,0.2-3.2,0.3-4.8,0.5c-1.6,0.2-3.3,0.3-4.9,0.5
			c-1.7,0.3-3.3,0.5-5,0.8s-3.4,0.5-5.1,0.8c-1.7,0.4-3.4,0.7-5.1,1.1s-3.4,0.7-5.1,1.1c-1.7,0.5-3.3,0.9-5,1.4
			c-0.8,0.2-1.7,0.4-2.5,0.7c-0.8,0.2-1.6,0.5-2.4,0.8c-1.6,0.5-3.2,1.1-4.7,1.6s-3,1.2-4.5,1.8c-1.5,0.6-2.9,1.1-4.2,1.8
			c-1.4,0.6-2.7,1.3-3.9,1.9c-1.3,0.6-2.4,1.3-3.6,1.9c-0.6,0.3-1.1,0.6-1.7,0.9c-0.5,0.3-1,0.7-1.5,1c-1,0.6-2,1.2-2.8,1.8
			c-0.9,0.6-1.7,1.2-2.4,1.7c-0.7,0.6-1.4,1.1-2,1.6s-1.1,0.9-1.5,1.3s-0.8,0.7-1.1,1C287,294.6,286.8,294.9,286.8,294.9
			L286.8,294.9z"/>
	</g>
	<g>
		<path class="st0" d="M356.5,240.1l1.4-0.6c0.5-0.2,1-0.4,1.5-0.6l1.5-0.5c0.5-0.1,1-0.3,1.5-0.4s1-0.3,1.5-0.3l1.6-0.3l1.6-0.2
			c0.5-0.1,1-0.1,1.6-0.1c0.5,0,1,0,1.6,0c0.5,0,1.1,0,1.6,0l1.6,0.1l1.6,0.2c1,0.2,2.1,0.3,3.1,0.6c1,0.2,2,0.5,3,0.9l0,0l1.1,0.1
			c0.4,0,0.7,0,1.1-0.1c0.4,0,0.7-0.1,1.1-0.2s0.7-0.2,1-0.4c0.7-0.3,1.2-0.8,1.7-1.4c0.4-0.6,0.8-1.3,1-2s0.3-1.5,0.3-2.2v-2.3
			v-4.6v-4.6v-2.3c0-0.8,0-1.5-0.1-2.3c-0.1-0.3-0.1-0.7-0.3-1l-0.2-0.5l-0.3-0.4c-0.5-0.5-1.2-0.8-1.9-0.9c-1.5-0.1-3,0.2-4.3,0.8
			h-0.1l0,0l-12.7-2.3c-1.1-0.2-2.1-0.3-3.2-0.3s-2.1,0-3.2,0.1c-2.1,0.2-4.2,0.7-6.3,1.4c-1,0.3-2,0.8-3,1.3
			c-0.5,0.2-0.9,0.5-1.4,0.8c-0.4,0.3-0.9,0.6-1.4,0.9c-0.9,0.6-1.7,1.3-2.5,2s-1.5,1.5-2.2,2.3s-1.3,1.7-1.9,2.6
			c-0.3,0.5-0.6,0.9-0.8,1.4l-0.8,1.4c-0.5,1-0.9,1.9-1.3,2.9s-0.7,2-1.1,3l0,0l0,0c-0.4,0.9-0.7,1.8-0.9,2.7
			c-0.1,0.5-0.2,0.9-0.3,1.4c-0.1,0.5-0.1,1-0.2,1.4c-0.1,0.5-0.1,1-0.1,1.5s0,1,0,1.5c0.1,0.5,0.1,1,0.2,1.4l0.3,1.4
			c0.1,0.5,0.3,0.9,0.4,1.4c0.2,0.5,0.3,0.9,0.5,1.4l0.6,1.3c0.2,0.5,0.5,0.8,0.7,1.3c0.3,0.4,0.5,0.8,0.8,1.2l0.9,1.1
			c0.6,0.8,1.3,1.5,2,2.2c0.4,0.3,0.7,0.7,1.1,1l1.1,0.9c0.8,0.6,1.5,1.2,2.3,1.8l4.8,3.5l9.5,7l0,0l-9.7-6.8l-4.8-3.4
			c-0.8-0.6-1.6-1.2-2.4-1.8l-1.2-0.9c-0.4-0.3-0.7-0.7-1.1-1c-0.7-0.7-1.4-1.4-2-2.2l-0.9-1.2c-0.3-0.4-0.5-0.8-0.8-1.3
			c-0.2-0.4-0.6-0.8-0.8-1.3l-0.6-1.4c-0.2-0.4-0.4-0.9-0.5-1.4s-0.3-0.9-0.4-1.4l-0.3-1.5c-0.1-0.5-0.1-1-0.2-1.5s-0.1-1-0.1-1.5
			s0-1,0.1-1.5c0-0.5,0.1-1,0.2-1.5s0.2-1,0.3-1.5c0.2-1,0.5-1.9,1-2.8l0,0c0.4-1,0.6-2.1,1.1-3.1c0.4-1,0.9-2,1.3-3l0.8-1.4
			c0.3-0.5,0.6-0.9,0.9-1.4c0.6-0.9,1.2-1.8,2-2.6c0.7-0.8,1.5-1.6,2.3-2.4c0.8-0.7,1.7-1.4,2.6-2c0.4-0.3,0.9-0.6,1.4-0.9
			s0.9-0.5,1.4-0.8c1-0.5,2-0.9,3-1.3c2.1-0.7,4.2-1.2,6.4-1.4c1.1-0.1,2.2-0.1,3.3-0.1c1.1,0,2.2,0.1,3.3,0.3l12.7,2.4h-0.1
			c1.4-0.6,2.9-1,4.5-0.8c0.8,0.1,1.5,0.4,2.1,1l0.4,0.5l0.3,0.5c0.2,0.3,0.2,0.8,0.3,1.1c0.1,0.8,0.1,1.5,0.1,2.3v2.3v4.6v4.6v2.3
			c0,0.8-0.1,1.5-0.3,2.3c-0.2,0.7-0.6,1.4-1,2.1c-0.5,0.6-1.1,1.1-1.8,1.5c-0.3,0.2-0.7,0.3-1.1,0.4s-0.7,0.2-1.1,0.2
			s-0.8,0.1-1.1,0l-1.1-0.1l0,0l0,0c-1-0.4-2-0.6-3-0.9c-1-0.2-2-0.4-3.1-0.6l-1.6-0.2l-1.6-0.1c-0.5,0-1,0-1.6-0.1
			c-0.5,0-1,0-1.6,0c-0.5,0-1,0-1.6,0.1l-1.6,0.2l-1.5,0.3c-0.5,0.1-1,0.2-1.5,0.3c-0.5,0.1-1,0.2-1.5,0.4l-1.5,0.5
			c-0.5,0.2-1,0.4-1.5,0.6L356.5,240.1L356.5,240.1z"/>
	</g>
	<g>
		<path class="st0" d="M381,238.9l7.5,4.6h-0.1c0.6-0.4,1.4-0.7,2.1-0.8c0.4,0,0.8-0.1,1.1,0c0.2,0,0.4,0,0.6,0.1s0.4,0.1,0.5,0.2
			c0.3,0.2,0.7,0.3,1,0.5s0.6,0.5,0.9,0.7c0.3,0.3,0.5,0.6,0.8,0.8l0.7,0.9l0,0c1.8,0.9,3.7,1.7,5.6,2.3c1.9,0.6,3.9,1.1,5.9,1.1
			h-0.1c0.8-0.3,1.6-0.4,2.4-0.3c0.4,0,0.8,0.1,1.2,0.3c0.2,0.1,0.4,0.1,0.6,0.2s0.4,0.2,0.5,0.3c0.3,0.2,0.7,0.4,1,0.7
			c0.3,0.2,0.6,0.6,0.8,0.9c0.1,0.1,0.2,0.3,0.4,0.5l0.3,0.5l0.6,1l0,0c1.6,2,3.2,4.2,4.6,6.4c0.7,1.1,1.4,2.2,2.1,3.3
			c0.3,0.6,0.7,1.1,1,1.7s0.7,1.1,1,1.7c0.6,1.1,1.2,2.3,1.8,3.5c0.3,0.6,0.5,1.2,0.8,1.8c0.3,0.6,0.5,1.2,0.8,1.8l0.7,1.8l0.7,1.9
			c0.5,1.2,0.8,2.5,1.2,3.8l-0.1-0.1c1,0.8,2,1.7,2.9,2.7c0.9,0.9,1.8,1.9,2.6,3c0.8,1.1,1.6,2.1,2.2,3.3c0.3,0.6,0.7,1.2,0.9,1.7
			c0.3,0.6,0.5,1.2,0.8,1.8c0.2,0.6,0.4,1.3,0.6,1.9c0.1,0.7,0.3,1.3,0.4,2l0.5,3.9l0.9,7.8l0,0l-1.1-7.8l-0.5-3.9
			c-0.1-0.6-0.3-1.3-0.4-1.9c-0.2-0.6-0.4-1.2-0.6-1.8c-0.3-0.6-0.5-1.2-0.8-1.8c-0.3-0.6-0.6-1.2-0.9-1.7c-0.7-1.1-1.4-2.2-2.2-3.2
			c-0.8-1-1.7-2-2.6-2.9s-1.9-1.8-2.9-2.6l-0.1-0.1v-0.1c-0.4-1.2-0.7-2.5-1.2-3.7l-0.7-1.8L427,274c-0.2-0.6-0.5-1.2-0.8-1.8
			c-0.3-0.6-0.5-1.2-0.8-1.8c-0.6-1.2-1.1-2.3-1.8-3.5c-0.3-0.6-0.6-1.2-0.9-1.7c-0.3-0.6-0.6-1.1-1-1.7c-0.7-1.1-1.4-2.2-2.1-3.3
			c-1.4-2.2-2.9-4.3-4.5-6.4l0,0l0,0l-0.6-1l-0.3-0.5c-0.1-0.2-0.2-0.3-0.3-0.5c-0.3-0.3-0.5-0.6-0.8-0.8c-0.3-0.3-0.6-0.5-0.9-0.7
			c-0.2-0.1-0.3-0.2-0.5-0.3c-0.2-0.1-0.3-0.1-0.5-0.2c-0.4-0.1-0.7-0.2-1.1-0.3c-0.8-0.1-1.5,0-2.2,0.3l0,0l0,0c-2,0-4-0.5-6-1.2
			c-1.9-0.7-3.8-1.5-5.6-2.4l0,0l0,0l-0.6-0.9c-0.2-0.3-0.5-0.6-0.7-0.8c-0.3-0.2-0.5-0.5-0.9-0.7c-0.3-0.2-0.6-0.4-1-0.5
			c-0.2-0.1-0.3-0.1-0.5-0.2s-0.4-0.1-0.5-0.1c-0.4-0.1-0.7-0.1-1.1,0c-0.7,0.1-1.4,0.4-2,0.8l0,0l0,0L381,238.9L381,238.9z"/>
	</g>
	<g>
		<path class="st0" d="M411.3,274c0,0,0.4,0.2,1.2,0.6c0.8,0.4,1.8,1,3.1,1.8c1.2,0.8,2.7,1.8,4.1,2.9c0.7,0.5,1.5,1.2,2.2,1.8
			c0.8,0.6,1.5,1.3,2.2,1.9c0.7,0.7,1.4,1.3,2.2,2c0.7,0.7,1.4,1.4,2,2c0.6,0.7,1.2,1.3,1.8,2c0.6,0.6,1,1.3,1.5,1.9
			c0.9,1.2,1.6,2.2,2.1,2.9c0.5,0.7,0.8,1.1,0.8,1.1l0,0c0,0-0.3-0.4-0.9-1c-0.3-0.3-0.6-0.7-1-1.2s-0.8-1-1.3-1.5
			c-0.5-0.6-1-1.2-1.6-1.8c-0.6-0.6-1.2-1.3-1.8-2c-0.6-0.7-1.3-1.3-2-2s-1.4-1.4-2.1-2c-0.7-0.7-1.4-1.3-2.2-2
			c-0.7-0.6-1.5-1.2-2.2-1.8c-1.4-1.2-2.8-2.1-4.1-3c-1.2-0.8-2.3-1.5-3-1.9C411.8,274.2,411.2,274,411.3,274L411.3,274z"/>
	</g>
	<g>
		<path class="st0" d="M388.5,218c0.7-1,1.5-1.9,2.3-2.8c0.4-0.4,0.9-0.9,1.3-1.3c0.5-0.4,0.9-0.8,1.5-1.1c0.3-0.2,0.5-0.3,0.8-0.5
			c0.3-0.1,0.5-0.3,0.8-0.4l0.9-0.3c0.3-0.1,0.6-0.2,0.9-0.2c0.3-0.1,0.6-0.1,0.9-0.1c0.2,0,0.3,0,0.5,0l0.5,0.1
			c0.3,0,0.6,0,0.9,0.2l0.9,0.3l0,0c0.7,0.2,1.3,0.6,1.9,1s1.2,0.9,1.6,1.4c0.2,0.3,0.5,0.6,0.7,0.9c0.1,0.1,0.2,0.3,0.3,0.5
			c0.1,0.2,0.2,0.3,0.2,0.5l0.2,0.5l0.1,0.5c0.1,0.4,0.1,0.7,0.1,1.1l-0.2-0.2c0.5-0.1,1.1,0,1.5,0.3c0.2,0.1,0.5,0.3,0.7,0.4
			c0.2,0.2,0.4,0.4,0.5,0.6c0.2,0.2,0.3,0.4,0.4,0.7c0.1,0.2,0.2,0.5,0.3,0.7c0.1,0.5,0.2,1,0.3,1.5l0,0c0.6,1.6,0.9,3.3,0.9,5.1
			c0,0.4,0,0.9,0,1.3c0,0.2,0,0.4-0.1,0.6c0,0.2,0,0.4-0.1,0.6c-0.1,0.4-0.2,0.9-0.3,1.3c-0.1,0.4-0.3,0.8-0.4,1.2v-0.1
			c-0.2,0.9-0.4,1.7-0.7,2.6c-0.1,0.4-0.3,0.8-0.5,1.2c-0.2,0.4-0.4,0.8-0.6,1.2c-0.2,0.4-0.5,0.8-0.8,1.1c-0.1,0.2-0.3,0.3-0.5,0.5
			s-0.4,0.3-0.6,0.4l-0.3,0.2l-0.3,0.1c-0.2,0.1-0.5,0.1-0.7,0.1s-0.5,0-0.7-0.1l-0.7-0.2h0.2c-0.3,0.2-0.7,0.2-1,0.3
			c-0.3,0.1-0.7,0.2-1,0.2c-0.7,0.1-1.4,0.1-2,0.2c-0.7,0-1.4,0-2-0.1c-0.3,0-0.7-0.1-1-0.2c-0.3,0-0.7-0.1-1-0.2
			c-0.7-0.1-1.3-0.3-2-0.5s-1.3-0.5-1.9-0.7c-0.6-0.3-1.2-0.6-1.8-0.8l-1.8-0.9l0,0l1.8,0.9c0.6,0.2,1.2,0.5,1.9,0.7
			c0.6,0.2,1.3,0.5,1.9,0.6c0.6,0.2,1.3,0.4,1.9,0.5c0.3,0.1,0.7,0.1,1,0.2c0.3,0,0.7,0.1,1,0.1c0.7,0.1,1.3,0.1,2,0.1
			s1.3-0.1,2-0.2c0.6-0.1,1.3-0.3,1.9-0.5h0.1h0.1l0.6,0.2c0.2,0.1,0.4,0,0.6,0.1c0.2,0,0.4,0,0.6-0.1l0.3-0.1l0.3-0.1
			c0.2-0.1,0.4-0.2,0.5-0.3c0.2-0.1,0.3-0.3,0.4-0.4c0.3-0.3,0.5-0.7,0.7-1c0.2-0.4,0.4-0.7,0.6-1.1s0.3-0.8,0.5-1.2
			c0.3-0.8,0.5-1.7,0.7-2.5l0,0l0,0c0.1-0.4,0.3-0.8,0.4-1.2c0.1-0.4,0.2-0.8,0.3-1.2c0-0.2,0.1-0.4,0.1-0.6s0.1-0.4,0.1-0.6
			c0-0.4,0-0.8,0-1.3c0-1.7-0.3-3.4-0.8-5l0,0l0,0c-0.1-0.5-0.1-1-0.3-1.4c-0.1-0.2-0.2-0.5-0.3-0.7c-0.1-0.2-0.2-0.4-0.4-0.6
			c-0.1-0.2-0.3-0.4-0.5-0.5c-0.2-0.2-0.4-0.3-0.6-0.4c-0.4-0.2-0.9-0.3-1.3-0.3h-0.2v-0.2c0-0.3,0-0.7-0.1-1l-0.1-0.5l-0.2-0.5
			c0-0.2-0.1-0.3-0.2-0.5s-0.1-0.3-0.3-0.5c-0.2-0.3-0.4-0.6-0.6-0.8c-0.5-0.5-1-1-1.6-1.4s-1.2-0.7-1.8-1l0,0l-0.8-0.3
			c-0.3-0.1-0.6-0.1-0.9-0.2l-0.4-0.1c-0.1,0-0.3,0-0.4,0c-0.3,0-0.6,0-0.9,0.1s-0.6,0.1-0.9,0.2l-0.8,0.3c-0.3,0.1-0.5,0.3-0.8,0.4
			s-0.5,0.3-0.8,0.5c-0.5,0.3-1,0.7-1.5,1.1s-0.9,0.8-1.3,1.2C390,216.2,389.2,217.1,388.5,218L388.5,218z"/>
	</g>
	<g>
		<path class="st0" d="M105,284.4c1.4-0.7,2.8-1.4,4.2-2.1c1.4-0.7,2.8-1.3,4.3-1.9c1.4-0.6,2.9-1.1,4.4-1.7c1.5-0.5,2.9-1,4.4-1.5
			s3-0.9,4.5-1.4s3-0.8,4.5-1.2c1.5-0.4,3-0.7,4.6-1c1.5-0.3,3.1-0.7,4.6-0.9c1.5-0.2,3.1-0.5,4.6-0.7l4.7-0.4l1.2-0.1h1.2l2.3-0.1
			c1.6,0,3.1-0.1,4.7,0l4.7,0.2c1.6,0.2,3.1,0.4,4.6,0.5l2.3,0.3l2.3,0.5l4.6,1l0,0c4.2-0.2,8.5-0.5,12.7-0.8s8.5-0.6,12.7-1
			c4.2-0.3,8.5-0.7,12.7-1.2c4.2-0.4,8.4-0.9,12.7-1.3l6.3-0.8c2.1-0.2,4.2-0.5,6.3-0.8s4.2-0.6,6.3-0.9l6.3-1
			c2.1-0.3,4.2-0.7,6.3-1.1l3.1-0.5l3.1-0.6c2.1-0.4,4.2-0.8,6.2-1.3l6.2-1.4l0,0c2.6-1,5.1-2,7.7-3.1c2.5-1.1,5.1-2.2,7.5-3.4
			l-0.1,0.1c1.9-2.2,3.9-4.3,5.9-6.3c0.5-0.5,1.1-1,1.6-1.5s1.1-1,1.6-1.4c0.5-0.5,1.1-0.9,1.6-1.4c0.6-0.5,1.1-0.9,1.7-1.4l1.7-1.3
			l1.8-1.2c0.6-0.4,1.2-0.8,1.8-1.2c0.6-0.4,1.2-0.8,1.8-1.1l1.9-1.1c0.6-0.4,1.3-0.6,1.9-1c0.6-0.3,1.3-0.6,2-0.9l2-0.8l-0.1,0.1
			c4.1-4.4,8.3-8.6,12.7-12.7c2.2-2,4.4-4,6.8-5.9c1.2-0.9,2.4-1.8,3.6-2.6c0.6-0.4,1.3-0.8,1.9-1.1c0.7-0.4,1.4-0.6,2.1-0.8
			l-0.1,0.1c0.7-1.5,1.6-2.9,2.5-4.2c1-1.3,2.1-2.6,3.4-3.6s2.8-1.8,4.4-2.1c0.4-0.1,0.8-0.1,1.2-0.1c0.4,0,0.8,0,1.2,0.1
			c0.4,0.1,0.8,0.1,1.2,0.3c0.4,0.1,0.8,0.3,1.2,0.4l0,0c0.5,0.1,0.9,0.3,1.2,0.6c0.3,0.3,0.7,0.7,0.9,1.1c0.1,0.2,0.2,0.4,0.3,0.6
			c0.1,0.2,0.2,0.4,0.2,0.7c0,0.2,0.1,0.5,0.1,0.7l0.1,0.7c0,0.5,0,0.9,0,1.4c-0.1,0.5-0.1,0.9-0.2,1.4s-0.1,0.9-0.3,1.4l-0.3,1.3
			l0,0l0.3-1.3c0.1-0.4,0.2-0.9,0.2-1.4c0.1-0.5,0.1-0.9,0.1-1.4s0-0.9,0-1.4l-0.1-0.7c0-0.2-0.1-0.4-0.1-0.7c0-0.2-0.1-0.4-0.2-0.7
			c-0.1-0.2-0.2-0.4-0.3-0.6c-0.2-0.4-0.5-0.8-0.8-1.1c-0.3-0.3-0.8-0.5-1.2-0.6l0,0l0,0c-0.4-0.1-0.7-0.3-1.1-0.4s-0.8-0.2-1.2-0.3
			c-0.4,0-0.8-0.1-1.2-0.1c-0.4,0-0.8,0.1-1.2,0.1c-1.6,0.3-3.1,1.1-4.3,2.1c-1.3,1-2.3,2.3-3.3,3.6c-1,1.3-1.8,2.7-2.5,4.2v0.1
			h-0.1c-0.7,0.2-1.4,0.5-2,0.8c-0.7,0.3-1.3,0.7-1.9,1.1c-1.2,0.8-2.4,1.7-3.6,2.6c-2.3,1.9-4.6,3.8-6.7,5.9
			c-4.3,4.1-8.5,8.4-12.6,12.8l0,0h-0.1l-2,0.8c-0.7,0.3-1.3,0.6-1.9,0.9s-1.3,0.6-1.9,1l-1.9,1.1c-0.6,0.3-1.2,0.8-1.8,1.1
			c-0.6,0.4-1.2,0.8-1.8,1.2l-1.8,1.2l-1.7,1.3c-0.6,0.4-1.1,0.9-1.7,1.3s-1.1,0.9-1.6,1.4s-1.1,0.9-1.6,1.4s-1.1,1-1.6,1.5
			c-2.1,2-4.1,4-5.9,6.2l0,0l0,0c-2.5,1.3-5,2.4-7.5,3.4c-2.5,1.1-5.1,2.1-7.7,3.1l0,0l0,0l-6.2,1.4c-2.1,0.5-4.2,0.8-6.2,1.3
			l-3.1,0.6l-3.1,0.5c-2.1,0.3-4.2,0.7-6.3,1l-6.3,0.9c-2.1,0.3-4.2,0.6-6.3,0.9s-4.2,0.6-6.3,0.8l-6.3,0.7
			c-4.2,0.5-8.4,0.9-12.7,1.3c-4.2,0.4-8.5,0.8-12.7,1.1c-4.2,0.4-8.5,0.7-12.7,1s-8.5,0.6-12.7,0.8l0,0l0,0l-4.6-1l-2.3-0.5
			l-2.3-0.3c-1.5-0.2-3.1-0.4-4.6-0.6l-4.7-0.2c-1.6-0.1-3.1,0-4.7,0l-2.3,0.1h-1.2l-1.2,0.1l-4.7,0.4c-1.5,0.2-3.1,0.5-4.6,0.7
			s-3.1,0.5-4.6,0.8s-3.1,0.6-4.6,1c-1.5,0.4-3,0.7-4.5,1.2c-1.5,0.5-3,0.9-4.5,1.4s-3,1-4.4,1.5c-1.5,0.6-2.9,1.1-4.4,1.7
			c-1.4,0.6-2.9,1.2-4.3,1.9C107.8,283.1,106.4,283.7,105,284.4L105,284.4z"/>
	</g>
	<g>
		<path class="st0" d="M339,246.6c0,0-0.7,0.5-1.5,1.5c-0.4,0.5-0.8,1.1-1.1,1.9c-0.2,0.4-0.3,0.7-0.5,1.1c-0.1,0.4-0.3,0.8-0.3,1.2
			c-0.1,0.4-0.2,0.8-0.2,1.2c0,0.4-0.1,0.8-0.1,1.2c-0.1,0.8-0.1,1.5-0.1,2.2c-0.1,0.6,0,1.2,0,1.5c0,0.4,0,0.6,0,0.6l0,0
			c0,0,0-0.2-0.1-0.6s-0.2-0.9-0.2-1.6c0-0.3,0-0.7,0-1c0-0.4,0-0.8,0.1-1.2c0-0.4,0.1-0.8,0.2-1.2c0.1-0.4,0.2-0.8,0.3-1.3
			c0.1-0.4,0.3-0.8,0.4-1.2c0.2-0.4,0.3-0.8,0.5-1.1c0.4-0.7,0.8-1.3,1.2-1.8C338.2,247,339,246.6,339,246.6L339,246.6z"/>
	</g>
	<g>
		<path class="st0" d="M275.4,297.1c0,0,0.1,0.8,0.5,1.9c0.3,1.1,0.8,2.6,1.6,4c0.4,0.7,0.9,1.3,1.4,1.7c0.5,0.5,1.1,0.8,1.6,0.9
			c0.3,0.1,0.5,0.1,0.8,0.1c0.2,0,0.4,0,0.6,0c0.3-0.1,0.5-0.1,0.5-0.1l0,0c0,0-0.2,0.1-0.5,0.2c-0.2,0-0.4,0.1-0.6,0.1
			s-0.5,0-0.8,0c-0.3-0.1-0.6-0.1-1-0.3c-0.3-0.1-0.6-0.4-0.9-0.6c-0.6-0.5-1-1.2-1.4-1.9c-0.8-1.4-1.2-2.9-1.5-4.1
			C275.5,297.9,275.4,297.1,275.4,297.1L275.4,297.1z"/>
	</g>
	<g>
		<path class="st0" d="M290,318c0,0,0.9-0.6,1.8-1.1c0.2-0.1,0.4-0.3,0.6-0.4s0.4-0.2,0.6-0.2c0.4-0.1,0.7-0.1,0.7-0.1l0,0
			c0,0-0.2,0.2-0.5,0.4c-0.2,0.1-0.3,0.2-0.6,0.4c-0.2,0.1-0.5,0.2-0.7,0.3C291,317.7,290,318.1,290,318L290,318z"/>
	</g>
	<g>
		<path class="st0" d="M264.5,387c0,0,0.5,0.5,1.3,1.3c0.8,0.7,1.9,1.7,3,2.5c1.2,0.8,2.4,1.5,3.4,2c0.2,0.1,0.5,0.2,0.7,0.3
			c0.2,0.1,0.4,0.1,0.5,0.2c0.3,0.1,0.5,0.2,0.5,0.2l0,0c0,0-0.2,0-0.5-0.1c-0.3,0-0.8-0.2-1.3-0.3c-0.3-0.1-0.5-0.2-0.8-0.3
			c-0.3-0.1-0.6-0.3-0.9-0.5c-0.6-0.4-1.2-0.8-1.7-1.2c-1.1-0.9-2.2-1.9-2.9-2.7C264.9,387.6,264.5,387.1,264.5,387L264.5,387z"/>
	</g>
	<g>
		<path class="st0" d="M166.9,272c0,0,1-0.9,2.6-2.7c0.8-0.9,1.8-2,2.9-3.2c1.1-1.3,2.3-2.7,3.6-4.3c1.3-1.6,2.7-3.3,4.1-5.2
			c1.5-1.8,2.9-3.9,4.4-5.9c1.5-2.1,2.9-4.3,4.4-6.5c0.7-1.1,1.4-2.3,2.1-3.5c0.7-1.2,1.4-2.3,2.1-3.5c1.3-2.4,2.7-4.7,3.8-7.2
			c0.6-1.2,1.2-2.4,1.8-3.6s1.1-2.4,1.6-3.6s1-2.3,1.5-3.5c0.5-1.1,0.8-2.3,1.3-3.4c0.8-2.2,1.6-4.3,2.1-6.3c0.6-2,1.1-3.8,1.5-5.4
			s0.6-3.1,0.9-4.2c0.5-2.3,0.8-3.7,0.8-3.7l0,0c0,0-0.2,1.3-0.6,3.7c-0.2,1.2-0.4,2.6-0.8,4.3c-0.4,1.6-0.9,3.4-1.4,5.4
			s-1.3,4.1-2,6.3c-0.4,1.1-0.7,2.3-1.2,3.4s-1,2.3-1.5,3.5s-1,2.4-1.6,3.6s-1.2,2.4-1.8,3.6c-1.2,2.4-2.6,4.8-3.9,7.2
			c-0.7,1.2-1.4,2.4-2.1,3.5c-0.7,1.2-1.4,2.3-2.2,3.4c-1.5,2.2-3,4.4-4.5,6.5s-3,4.1-4.4,5.9c-1.4,1.9-2.9,3.6-4.2,5.1
			c-1.3,1.6-2.6,3-3.7,4.2c-1.1,1.2-2.1,2.3-2.9,3.2C168,271.1,167,272,166.9,272L166.9,272z"/>
	</g>
	<g>
		<path class="st0" d="M197.4,230.2c0,0,1.3,10.4,2.5,20.9c0.6,5.2,1.2,10.4,1.6,14.4c0.4,3.9,0.6,6.6,0.6,6.6l0,0
			c0,0-0.4-2.6-0.9-6.5s-1.1-9.1-1.6-14.4C198.4,240.7,197.3,230.2,197.4,230.2L197.4,230.2z"/>
	</g>
	<g>
		<path class="st0" d="M214,216.1c0,0-0.1,3.9,0.2,9.7c0.4,5.8,1.2,13.6,3.4,21c0.3,0.9,0.6,1.9,0.9,2.8c0.3,0.9,0.7,1.8,1,2.7
			c0.3,0.9,0.8,1.7,1.1,2.6c0.4,0.8,0.8,1.7,1.3,2.4c0.9,1.6,1.9,3,2.9,4.3c0.3,0.3,0.5,0.6,0.8,0.9s0.6,0.6,0.8,0.8
			c0.5,0.6,1.1,1,1.7,1.5c0.5,0.5,1.1,0.8,1.7,1.2c0.3,0.2,0.5,0.4,0.8,0.5s0.6,0.3,0.8,0.4c1,0.6,2,0.8,2.8,1.1
			c0.8,0.3,1.5,0.3,1.9,0.5c0.4,0.1,0.7,0.1,0.7,0.1l0,0c0,0-0.2,0-0.7-0.1c-0.4-0.1-1.1-0.1-1.9-0.4c-0.8-0.3-1.8-0.5-2.9-1.1
			c-0.3-0.1-0.6-0.3-0.8-0.4c-0.3-0.2-0.6-0.3-0.8-0.5c-0.6-0.3-1.2-0.7-1.7-1.2c-0.6-0.4-1.2-0.9-1.7-1.5c-0.3-0.3-0.6-0.6-0.9-0.8
			c-0.3-0.3-0.5-0.6-0.8-0.9c-1.1-1.3-2.1-2.8-3-4.3c-0.5-0.8-0.9-1.6-1.3-2.5c-0.4-0.9-0.8-1.7-1.1-2.6s-0.7-1.8-1-2.7
			c-0.3-0.9-0.6-1.9-0.9-2.8c-0.5-1.9-1-3.8-1.4-5.7c-0.4-1.9-0.7-3.7-0.9-5.6c-0.5-3.6-0.8-7-0.9-9.9
			C213.8,219.9,214,216.1,214,216.1L214,216.1z"/>
	</g>
	<g>
		<path class="st0" d="M339.4,128.8c0,0-3.6,2.1-6.8,4.7c-0.8,0.7-1.6,1.3-2.3,2c-0.4,0.3-0.7,0.7-1,1s-0.6,0.6-0.8,0.9
			c-0.3,0.3-0.5,0.6-0.7,0.8c-0.2,0.2-0.3,0.5-0.5,0.7c-0.2,0.4-0.4,0.6-0.4,0.6l0,0c0,0,0.1-0.2,0.3-0.7c0.1-0.2,0.2-0.5,0.4-0.7
			c0.2-0.3,0.3-0.6,0.6-0.9c0.2-0.3,0.5-0.7,0.8-1s0.6-0.7,1-1c0.7-0.7,1.5-1.3,2.4-2C335.6,130.6,339.4,128.7,339.4,128.8
			L339.4,128.8z"/>
	</g>
	<g>
		<path class="st0" d="M427.5,194.3c0,0,2,1.6,4.6,4.4c0.7,0.7,1.3,1.5,2,2.3s1.4,1.8,2.1,2.7c0.7,1,1.5,2,2.1,3
			c0.3,0.5,0.7,1.1,1,1.6s0.6,1.1,1,1.7c0.7,1.1,1.3,2.2,1.8,3.4c0.6,1.1,1.1,2.3,1.5,3.4c0.5,1.1,0.9,2.2,1.2,3.2
			c0.2,0.5,0.3,1,0.5,1.5c0.1,0.5,0.3,1,0.4,1.5c0.2,0.9,0.5,1.8,0.6,2.5c0.1,0.8,0.2,1.4,0.3,2c0.2,1.1,0.3,1.7,0.3,1.7l0,0
			c0,0-0.1-0.6-0.4-1.7c-0.1-0.5-0.3-1.2-0.4-2c-0.2-0.8-0.5-1.6-0.7-2.5c-0.1-0.5-0.3-0.9-0.4-1.4c-0.2-0.5-0.4-1-0.5-1.5
			c-0.4-1-0.7-2.1-1.2-3.2s-0.9-2.2-1.5-3.4c-0.5-1.1-1.1-2.3-1.7-3.4c-0.3-0.6-0.6-1.1-0.9-1.7c-0.3-0.5-0.7-1.1-1-1.6
			c-0.6-1.1-1.4-2.1-2.1-3c-0.7-1-1.4-1.9-2.1-2.7c-0.7-0.8-1.3-1.7-2-2.4C429.4,196,427.5,194.3,427.5,194.3L427.5,194.3z"/>
	</g>
	<g>
		<path class="st0" d="M176.4,375.9c-0.2,0.6-0.3,1.1-0.4,1.7c-0.1,0.6-0.1,1.2-0.1,1.8l0.1,0.9c0,0.3,0.1,0.6,0.2,0.9
			c0.1,0.6,0.3,1.1,0.5,1.7s0.6,1,0.8,1.6c0.3,0.5,0.7,0.9,1.1,1.4c0.4,0.4,0.9,0.8,1.3,1.2c0.4,0.4,1,0.6,1.5,1
			c0.3,0.1,0.5,0.3,0.8,0.5l0.8,0.4c0.5,0.2,1.1,0.5,1.6,0.7l1.7,0.5c0.6,0.2,1.1,0.4,1.7,0.4l1.7,0.3c0.6,0.1,1.2,0.2,1.8,0.3
			l3.5,0.3l0,0l0,0c1.8,0.3,3.7,0.4,5.6,0.5c1.9,0.1,3.8,0,5.6-0.1c0.9-0.1,1.9-0.2,2.8-0.3c0.9-0.1,1.9-0.3,2.8-0.5
			c0.9-0.2,1.8-0.4,2.7-0.7c0.9-0.3,1.8-0.6,2.6-1c0.9-0.4,1.7-0.8,2.5-1.2c0.4-0.2,0.8-0.5,1.2-0.7c0.4-0.3,0.8-0.5,1.2-0.8
			s0.8-0.5,1.1-0.8l1.1-0.9c0.7-0.7,1.3-1.3,1.9-2c0.6-0.7,1.1-1.5,1.6-2.3c0.4-0.8,1-1.6,1.3-2.5c0.2-0.4,0.4-0.9,0.6-1.3l0.5-1.3
			c0.3-0.9,0.5-1.8,0.8-2.7l0,0c-0.2,0.9-0.4,1.9-0.7,2.8l-0.4,1.4c-0.1,0.5-0.4,0.9-0.5,1.3c-0.3,0.9-0.8,1.7-1.3,2.5
			s-1,1.6-1.6,2.3c-0.6,0.8-1.2,1.4-1.9,2.1l-1.1,1c-0.4,0.3-0.8,0.6-1.1,0.9c-0.4,0.3-0.8,0.5-1.2,0.8s-0.8,0.5-1.2,0.7
			c-0.8,0.5-1.7,0.9-2.6,1.3c-0.9,0.4-1.8,0.7-2.7,1s-1.8,0.5-2.8,0.7c-0.9,0.2-1.9,0.4-2.8,0.5c-0.9,0.1-1.9,0.2-2.8,0.3
			c-1.9,0.1-3.8,0.2-5.7,0.1s-3.8-0.2-5.7-0.5l0,0l-3.6-0.4c-0.6,0-1.2-0.2-1.8-0.3l-1.8-0.3c-0.6-0.1-1.2-0.3-1.7-0.5l-1.7-0.5
			c-0.6-0.2-1.1-0.5-1.6-0.7l-0.8-0.4c-0.3-0.1-0.5-0.3-0.8-0.5c-0.5-0.3-1-0.6-1.5-1c-0.4-0.4-0.9-0.8-1.3-1.2
			c-0.4-0.5-0.8-0.9-1.1-1.4s-0.6-1-0.8-1.6s-0.4-1.1-0.5-1.7c-0.1-0.3-0.1-0.6-0.2-0.9l-0.1-0.9c0-0.6,0-1.2,0.1-1.8
			C176,377.1,176.2,376.5,176.4,375.9L176.4,375.9z"/>
	</g>
	<g>
		<path class="st0" d="M349.3,101c0,0,1.1,1.4,3,3.2c0.5,0.5,1,0.9,1.6,1.4s1.2,1,1.9,1.4c0.7,0.5,1.4,0.9,2.1,1.4
			c0.7,0.4,1.5,0.8,2.3,1.2c0.8,0.3,1.6,0.7,2.4,0.9c0.8,0.3,1.6,0.4,2.4,0.6c1.6,0.3,3.1,0.6,4.4,0.9c2.6,0.6,4.3,1,4.3,1l0,0
			c0,0-1.7-0.2-4.3-0.7c-1.3-0.2-2.8-0.5-4.4-0.8c-0.8-0.2-1.7-0.3-2.5-0.6c-0.8-0.2-1.7-0.6-2.5-1s-1.6-0.8-2.3-1.3
			c-0.7-0.5-1.5-0.9-2.1-1.4c-1.3-1-2.5-2-3.4-2.9C350.3,102.5,349.2,101.1,349.3,101L349.3,101z"/>
	</g>
	<g>
		<path class="st0" d="M357.1,113.1c0,0,0,0.3,0.3,0.8c0.1,0.2,0.3,0.5,0.6,0.8c0.3,0.3,0.6,0.6,1,0.9s0.8,0.6,1.3,0.9
			s1,0.6,1.6,0.8c1.1,0.5,2.4,0.9,3.6,1.3c1.3,0.4,2.5,0.7,3.7,0.5c0.6-0.1,1.1-0.2,1.6-0.4c0.5-0.2,1-0.5,1.4-0.7
			c0.4-0.3,0.8-0.5,1.1-0.8c0.3-0.3,0.6-0.5,0.8-0.7c0.4-0.4,0.7-0.6,0.7-0.6l0,0c0,0-0.2,0.3-0.6,0.7c-0.2,0.2-0.4,0.5-0.7,0.8
			c-0.3,0.3-0.6,0.6-1,0.9s-0.9,0.6-1.4,0.9c-0.5,0.2-1.1,0.4-1.8,0.5c-0.6,0.1-1.3,0-2-0.1s-1.3-0.3-1.9-0.6
			c-1.2-0.4-2.5-0.8-3.6-1.4c-0.6-0.3-1.1-0.5-1.6-0.8s-0.9-0.6-1.3-0.9s-0.7-0.6-1-1c-0.3-0.3-0.4-0.6-0.6-0.9
			C357.1,113.4,357.1,113.1,357.1,113.1L357.1,113.1z"/>
	</g>
	<g>
		<path class="st0" d="M377.1,111.3c0,0,0-0.1-0.1-0.3c-0.1-0.2-0.3-0.4-0.6-0.6c-0.3-0.2-0.7-0.4-1.1-0.6s-0.9-0.3-1.3-0.5
			c-0.5-0.1-0.9-0.2-1.4-0.3c-0.4-0.1-0.8-0.2-1.2-0.3c-0.7-0.2-1.2-0.3-1.2-0.3l0,0c0,0,0.5,0,1.2,0c0.4,0,0.8,0.1,1.2,0.2
			c0.4,0.1,0.9,0.3,1.4,0.4c0.5,0.2,0.9,0.4,1.3,0.6s0.8,0.5,1,0.7c0.3,0.3,0.5,0.5,0.6,0.7C377.2,111.2,377.2,111.3,377.1,111.3
			L377.1,111.3z"/>
	</g>
	<g>
		<path class="st0" d="M370.4,90.3c-0.8,1.1-1.6,2.3-2,3.7c-0.1,0.3-0.2,0.7-0.2,1c-0.1,0.3,0,0.7-0.1,1c0.1,0.3,0.1,0.7,0.2,1
			l0.2,0.5l0.3,0.4c0.2,0.3,0.4,0.5,0.7,0.8c0.2,0.2,0.6,0.4,0.8,0.6c0.6,0.4,1.2,0.7,1.9,0.9c1.3,0.5,2.7,0.8,4.1,0.6l0,0l0,0
			c1,0,2,0.1,2.9,0.3c0.5,0.1,1,0.2,1.4,0.4c0.2,0.1,0.5,0.2,0.7,0.3c0.2,0.1,0.4,0.3,0.6,0.5l0,0c1.5,0.8,3,1.4,4.7,1.8
			c0.8,0.1,1.6,0.2,2.4,0c0.4-0.1,0.7-0.2,1.1-0.4c0.4-0.2,0.8-0.3,1.2-0.5c0.8-0.3,1.5-0.8,1.9-1.4c0.4-0.7,0.6-1.5,0.8-2.3
			c0.1-0.8,0.1-1.6,0.1-2.5v-2.5c0-3.4,0-6.8,0.1-10.1c0-3.4,0.1-6.8,0.2-10.1l0,0c0.1,3.4,0.1,6.8,0.2,10.1c0,3.4,0.1,6.8,0.1,10.1
			V97c0,0.8,0,1.7-0.1,2.6c-0.1,0.8-0.4,1.7-0.9,2.5c-0.2,0.4-0.6,0.7-0.9,1c-0.4,0.3-0.8,0.4-1.2,0.6c-0.4,0.2-0.8,0.3-1.2,0.5
			c-0.4,0.2-0.8,0.4-1.2,0.4c-0.9,0.2-1.7,0.1-2.6-0.1c-1.7-0.3-3.3-1-4.8-1.8l0,0l0,0c-0.7-0.6-1.6-0.9-2.6-1.2
			c-0.9-0.2-1.9-0.3-2.9-0.3l0,0c-1.4,0.1-2.8-0.2-4.2-0.7c-0.3-0.1-0.7-0.3-1-0.4c-0.3-0.2-0.6-0.3-0.9-0.5s-0.6-0.4-0.8-0.6
			c-0.2-0.3-0.5-0.5-0.7-0.8l-0.3-0.5l-0.2-0.5c-0.1-0.3-0.1-0.7-0.2-1c0-0.4,0-0.7,0.1-1.1c0-0.4,0.1-0.7,0.2-1
			C368.8,92.6,369.5,91.4,370.4,90.3L370.4,90.3z"/>
	</g>
	<g>
		<path class="st0" d="M394.2,97.6c0.7-0.3,1.4-0.7,2.1-1.1s1.3-0.9,2-1.4s1.2-1,1.8-1.6c0.6-0.6,1.1-1.1,1.7-1.7l1.6-1.8l1.5-1.9
			c0.5-0.6,0.9-1.3,1.3-2c0.5-0.7,0.9-1.4,1.2-2.1c0.4-0.7,0.8-1.4,1.2-2.1l1.1-2.2c0.7-1.4,1.3-3,1.9-4.4c0.3-0.8,0.5-1.5,0.8-2.3
			l0.8-2.3l1.3-4.6l0,0l0,0c1.1-1.5,2.3-3,3.7-4.3c0.7-0.7,1.4-1.3,2.2-1.8c0.8-0.5,1.7-0.9,2.5-1.4l1.2-0.8l1.1-0.9
			c0.7-0.6,1.4-1.2,2-1.9c0.3-0.3,0.6-0.7,0.9-1.1s0.6-0.7,0.8-1.1l0.8-1.2c0.2-0.4,0.4-0.8,0.7-1.2c0.5-0.8,0.8-1.7,1.2-2.5
			c0.3-0.9,0.7-1.7,1-2.6s0.6-1.8,0.8-2.7c0.3-0.9,0.5-1.8,0.7-2.7c0.2-0.9,0.4-1.8,0.6-2.8c0.2-0.9,0.4-1.8,0.5-2.8
			c0.1-0.9,0.3-1.9,0.4-2.8l0.4-2.8l0,0l-0.3,2.8c-0.1,0.9-0.2,1.9-0.3,2.8c-0.1,0.9-0.3,1.9-0.4,2.8s-0.3,1.9-0.5,2.8
			s-0.4,1.8-0.6,2.8c-0.2,0.9-0.5,1.8-0.8,2.7c-0.3,0.9-0.6,1.8-1,2.7c-0.4,0.9-0.7,1.8-1.2,2.6c-0.2,0.4-0.4,0.8-0.7,1.2l-0.8,1.2
			c-0.2,0.4-0.6,0.8-0.8,1.2c-0.3,0.4-0.6,0.7-0.9,1.1c-0.6,0.7-1.3,1.4-2,2l-1.1,0.9l-1.2,0.8c-0.8,0.5-1.7,0.9-2.4,1.4
			c-0.8,0.5-1.5,1.1-2.2,1.7c-1.4,1.3-2.6,2.7-3.7,4.2v-0.1l-1.4,4.7l-0.8,2.3c-0.3,0.8-0.5,1.5-0.8,2.3c-0.7,1.5-1.2,3-1.9,4.4
			l-1.1,2.2c-0.4,0.7-0.8,1.4-1.2,2.1c-0.4,0.7-0.8,1.4-1.3,2.1s-0.9,1.4-1.4,2l-1.5,1.9l-1.6,1.8c-0.6,0.6-1.1,1.1-1.7,1.7
			c-0.6,0.5-1.2,1.1-1.9,1.6c-0.6,0.5-1.3,1-2,1.4C395.8,96.9,395,97.3,394.2,97.6L394.2,97.6z"/>
	</g>
</g>
<g id="fground">
</g>
</svg>
