<?xml version="1.0" encoding="utf-8"?>
<!-- Generator: Adobe Illustrator 15.0.2, SVG Export Plug-In . SVG Version: 6.00 Build 0)  -->
<!DOCTYPE svg PUBLIC "-//W3C//DTD SVG 1.1//EN" "http://www.w3.org/Graphics/SVG/1.1/DTD/svg11.dtd">
<svg version="1.1" id="Layer_1" xmlns="http://www.w3.org/2000/svg" xmlns:xlink="http://www.w3.org/1999/xlink" x="0px" y="0px"
	 width="411.02px" height="277px" viewBox="0 0 411.02 277" enable-background="new 0 0 411.02 277" xml:space="preserve">
<metadata><?xpacket begin="﻿" id="W5M0MpCehiHzreSzNTczkc9d"?>
<x:xmpmeta xmlns:x="adobe:ns:meta/" x:xmptk="Adobe XMP Core 5.0-c060 61.134777, 2010/02/12-17:32:00        ">
   <rdf:RDF xmlns:rdf="http://www.w3.org/1999/02/22-rdf-syntax-ns#">
      <rdf:Description rdf:about=""
            xmlns:dc="http://purl.org/dc/elements/1.1/">
         <dc:format>image/svg+xml</dc:format>
         <dc:title>
            <rdf:Alt>
               <rdf:li xml:lang="x-default">Web</rdf:li>
            </rdf:Alt>
         </dc:title>
      </rdf:Description>
      <rdf:Description rdf:about=""
            xmlns:xmp="http://ns.adobe.com/xap/1.0/"
            xmlns:xmpGImg="http://ns.adobe.com/xap/1.0/g/img/">
         <xmp:CreatorTool>Adobe Illustrator CS5</xmp:CreatorTool>
         <xmp:CreateDate>2015-02-27T14:16:16+02:00</xmp:CreateDate>
         <xmp:ModifyDate>2015-02-27T14:16:16+02:00</xmp:ModifyDate>
         <xmp:MetadataDate>2015-02-27T14:16:16+02:00</xmp:MetadataDate>
         <xmp:Thumbnails>
            <rdf:Alt>
               <rdf:li rdf:parseType="Resource">
                  <xmpGImg:width>256</xmpGImg:width>
                  <xmpGImg:height>180</xmpGImg:height>
                  <xmpGImg:format>JPEG</xmpGImg:format>
                  <xmpGImg:image>/9j/4AAQSkZJRgABAgEB1QHVAAD/7QAsUGhvdG9zaG9wIDMuMAA4QklNA+0AAAAAABAB1QAAAAEA&#xA;AQHVAAAAAQAB/+4ADkFkb2JlAGTAAAAAAf/bAIQABgQEBAUEBgUFBgkGBQYJCwgGBggLDAoKCwoK&#xA;DBAMDAwMDAwQDA4PEA8ODBMTFBQTExwbGxscHx8fHx8fHx8fHwEHBwcNDA0YEBAYGhURFRofHx8f&#xA;Hx8fHx8fHx8fHx8fHx8fHx8fHx8fHx8fHx8fHx8fHx8fHx8fHx8fHx8fHx8f/8AAEQgAtAEAAwER&#xA;AAIRAQMRAf/EAaIAAAAHAQEBAQEAAAAAAAAAAAQFAwIGAQAHCAkKCwEAAgIDAQEBAQEAAAAAAAAA&#xA;AQACAwQFBgcICQoLEAACAQMDAgQCBgcDBAIGAnMBAgMRBAAFIRIxQVEGE2EicYEUMpGhBxWxQiPB&#xA;UtHhMxZi8CRygvElQzRTkqKyY3PCNUQnk6OzNhdUZHTD0uIIJoMJChgZhJRFRqS0VtNVKBry4/PE&#xA;1OT0ZXWFlaW1xdXl9WZ2hpamtsbW5vY3R1dnd4eXp7fH1+f3OEhYaHiImKi4yNjo+Ck5SVlpeYmZ&#xA;qbnJ2en5KjpKWmp6ipqqusra6voRAAICAQIDBQUEBQYECAMDbQEAAhEDBCESMUEFURNhIgZxgZEy&#xA;obHwFMHR4SNCFVJicvEzJDRDghaSUyWiY7LCB3PSNeJEgxdUkwgJChgZJjZFGidkdFU38qOzwygp&#xA;0+PzhJSktMTU5PRldYWVpbXF1eX1RlZmdoaWprbG1ub2R1dnd4eXp7fH1+f3OEhYaHiImKi4yNjo&#xA;+DlJWWl5iZmpucnZ6fkqOkpaanqKmqq6ytrq+v/aAAwDAQACEQMRAD8A9U4q7FUj1Xz35K0mT0tT&#xA;17T7SboIJbmJZSetFjLcyaeAxVK5PzV8sE8bC31XVH6/6DpWoTJ3H976Ah6rT7eKqsHnbWroE2fk&#xA;3WSnaW5On2qn4qfZluxN03/u8VRB1nzvJ/c+W4UqwUfWdQWP4f5m9GG4/CuKr/rvn/8A6s2lf9xW&#xA;5/7x2KqJ1nz6iyGTy1ayFDRBb6mG5itKj1beGnjviqg/nvVLR+OqeUdato/+Wi3S2v46ey2c80//&#xA;ACSxVNNF84+WtZna2sL5Wvo15S2Eyvb3aL4vbTrHMo/1kxVOcVdirsVYf52lGtX9p5Ggdh+lI2ud&#xA;deNirR6VG3F05DobqSkA78PUI3XFWYYq0WUMFJAY9B3NMVbxV2KuxV2KtMyqKsQBUCp23JoB9+Kt&#xA;4q7FXYq7FXYq7FXYq7FXYq7FXYq7FUr1ryt5d1xojrOnw6isIZY4rlRLFR6cqxNVG6dxiqJ07R9J&#xA;02P0tOsreyi6cLeJIlp8kCjFUXirsVdirsVQV/FrLmlhd21v4Ce3kn/4hPBirFdb1jzdBHLbXmji&#xA;4iU/udQs2uwxNPtJBaLNKO4+KVPnirANX1iDVHFhq0LXn1dmktorj07i4tgvxNMDHLDe2DDpza8k&#xA;cfynFW/KXnXzPa+Yk0ceYmm0vUeJ0a41OEX0cLMeK21xKDYXv71toZpwOR+CjEAsq9N/xB5zsW4a&#xA;n5aN6laC60a5hmFOzPDdmzdPkhkxVQl8769csING8o6nNcvsJtQ9CwtI613lkeR5qD/iuFziqO8p&#xA;eWrrSjfalqtwl55h1iRZtTuolKRARrwht4FYsywwpstTUksx3Y4qyHFVC4sobia1mevO0kM0VDT4&#xA;mjeI19uMh+nFVfFXYq7FXYqxe4a61nzrHZxvTRvL6LPfqDtNqEwDW8Le1vF++YfzPER0xVlGKuxV&#xA;2KuxV2KuxV2KuxV2KuxV2KoTUYNTkVG0+6jtpUryWaH1onB/mVXicEdqP8wcVQD63q1kf9yekyNF&#xA;uTdacxvEUD+aLjHc1P8ALHE/zxVH6bq+manG72FzHcCM8ZVQ/HG38siH4kb2YA4qi8VdirsVdiq1&#xA;oYmkSRkVpI6+m5AJXkKGh7VxVZcWsFwF9QGq14OrMjiuxoylWFfniqQ635Lh1ReD30pt9ibC7jt7&#xA;+1ZhsC6Xccsv/ASLirAfN35OPqFtLEsQQyHmLyxrKiyU2kk0+8eQqI/2GguOY/YUHFWZ/lvq3mSX&#xA;S5dD82Io80aH6cF/cR7xXcTg+hexGg+GYI3LYUdWFBirKoLm3uFdoJVlEbtE5Qg8XQ8WU06EEb4q&#xA;qYq7FXYqpwXENxH6kLh05MhI7MjFHU+6spBxVUxV2KpP5w80ab5V8sal5i1JqWemQNPItaF2GyRr&#xA;X9qRyEX3OKpb+WFnqkHknT7nWFC63qgfU9VFKEXF65nZD/xiVxGB2CgdBirKsVdirsVdirsVdirs&#xA;VdirsVdirsVdiqyaN5E4pK0R/nQKT/w4YfhiqR6ho+qTTx3LwWN/cRDjDNWawnjFa/DPH9Zeh7qA&#xA;v8MVQl/5g80aYj3MukS3tqpPKCJedyNyaRfV/XEtei80i2+01cVb8tfmb5O8w3X1C0vRb6stQ+lX&#xA;Y9C5BX7QVW+GTj3MbMB44qynFXYq7FXYq7FXYq0EQOXCjmQAWpuQKkCvtU4qx/VPJllcX8+rabdX&#xA;Gja3OoEl9aOeErKoVDcWz8reeigLV05BdlYYqhYvMmvaJGE83WsZtkHxeYNOV2tNv2ri3YvNbbdW&#xA;rJGOrOuKsnt7i3uYI7i3lSaCVQ8U0bB0ZTuGVhUEHFVTFUn0YNbatrFgSfT9WO+tk/ZSK6SjAe7X&#xA;EMzn/WxVOMVdirzf80NKm8y+ZfK3lWbidHuJ3vtRhNazLa0ejCnFogvKNx2eSM7UBxV6RirsVdir&#xA;sVdirsVdirsVdirsVdirsVdirsVdiqC1fVYdLtPrMqF05cSBJDFTYmvKeSFNqfzYqxXXrn8t/M+l&#xA;8vMNjDeQwtRS8a3UsLfaDRz2Zn9Ntq1SQEYqx7TPMvmby5qCwafDe+avKfxNICJ5dTsYQeKuGuI4&#xA;XuUr/uos81PiDMPhxV6fpmp6fqlhBqGnzrc2dwvOGZDUEdD7ggihB3B2O+KonFXYq7FXYq7FXYq7&#xA;FWOXHlNrCSe+8rSLpl9KTJJZNU6fPIdyZYF/u2bvJDxYnduf2Sqmuj3mpXVoW1Kw/R94jFJIRKs8&#xA;ZIAPOKVQpZDXYsit4qMVRZhiMwmKD1VUoH78WIJFfmoxVfiqhfzXMNnLJaxevchaQRE0DO2y8iK0&#xA;Wp+I9hirzD8uJ59b/MzzBq97M1wNM06107QrhjQT2slxOLy8VAWAFxd2Z4U24ItNqYq9WxV2KuxV&#xA;2KuxV2KuxV2KuxV2KuxV2KuxV2KuxVRuL2ztgDczxwAgkGR1TYdT8RGKoRPMfl6SJpU1S0eJPtyL&#xA;PEVHQbkNTuMVQGtyadqenSi4t3ms4ieUyLZ3Cg+PGUzL3B+zirzux1jy/wCU/NJsY75otB8w3aW9&#xA;5pwV7Z7O+lJEdyskD8Y1mcLFKoCfEVYDd8VenJ5f9BXFlqN9b89/jnN3Q1rt9bFwR8gcVVNPXzFF&#xA;N6WoPaXVvuRdQrJbyDwUwsZ1b3YSL/q4qj5riCEKZpFjDtxUuwWrHegr32xVfirsVdirsVdirsVd&#xA;irsVSXzVZajqmlT6Np1y1lNehY7i9QfFDbO1JmjPaVowyxn9ljy7YqgtU8jW7QWT+Xrx/Luo6ZbC&#xA;ysLq2jjljFqtKW80EoZJYhxHHoyn7LCpqqprrvnLSaLrujrqVquzanohaRgP55LCX98v+rC8xxVk&#xA;tndwXltHcwEmKQVXkrIwoaEMjhWVgdiGFRiqtirsVdirsVdirsVdirsVdirsVYvN57NrOYr3y7rd&#xA;uAxUSpaC8Q07/wChSXRp8xiq6D8w9AmYqlprQIFfj0LWYx972ijFVC78/wCkR+tL9bktIoV+KO80&#xA;zUImUgciXZ0jopBG/H78VYzqH5meWbm1+tzT6ddWxCtHNJfajDEzOvwsqCzkVVYdwT+OKpXH+cH5&#xA;eLI1df01WUAur+YdU2IcVAV7fsf9qmKpkPzSu70RHTZRqdu3EhtFtRqLLSp+3FfGQjYfat/ehGKp&#xA;L5jsPPHmDSLrTV8oapf2F6r/AFhZtQ07TY5eRrR1a3+sVBaq8gePZsVT38mfM/na6jn8uecAsGua&#xA;QOJtbgq9zJaBikVyt3CzQ3VGX0pSqKQ4PKhPHFXqWKrJoYZ4nhmjWWKQcXjcBlYHqCDscVSlPKOj&#xA;W55aakmlMN0WwkeCEN/N9WU/VmP+vGcVRl4+q28ERsokv3QUmWaQQyMBT4lZUKcuvwkKD4jFVe1u&#xA;TOlWhkgkAHOKUAFSRWnJSyN78WIxVWxV2KuxV2KqF9aNdW5iS4ltXqGSeAqHUj2cOjfJlIxVZY2d&#xA;xbBxNfT3panEzrApWnh6McPX3riqKxV2KuxV2KuxV2KuxV2KuxV2KuxV2KuxV2KuxV2KvJXRzpmo&#xA;flywmRdAZ7pypEUcuhAGW1i9Rxw+Kv1UBiB+6ZmqoKMqx6+8us8unzeYbFZ/rQ9aDTSnHjbOwUwR&#xA;RMVdOfqxxvX43klWMt/fuyqZaVrvnXyjpmkxw3ltqOl65fppuiabdmR5rZJ2CRzQXI+KWzgkcKBN&#xA;8TxhWEil1jCr1TTBeWd3qEd9K8kLyQPa3crIFYPDHAYwF4hX9WIsVCgHmOPcBVh/5m6BPb2tvqPl&#xA;OMwedGvjPpJiKAPI8QW8ST1FkQRTW8NHqvEScH+1viqv5Z/M+C80Kx1i+RpNKvUWmpQwyL6EpYo8&#xA;F5B8ZikST4CVZgTvRVpirPIZopokmhdZIpFDxyIQysrCoZSNiCMVQd7q0di7G6gmS2WlLpEMse4q&#xA;eYj5OnGm7MvH3xVE2l5aXlulzaTx3NvIKxzRMrow8Qykg4qq4q7FXYq7FXYq7FXYq7FXYq7FXYq7&#xA;FXYq7FXYq7FXYq7FXYq7FXYq7FXYqxHzjapY67ovmP01eD1P0LrMbAFZLLUXWOMsCN/Tu/S69EaT&#xA;xxVKvMmjNrHnqKxLuYZEDTNQikMSBZVWhX7CXBQH+a55DeEUVST8z7+WPytda9YQxy6y8sD+V4JC&#xA;EjgtNMuI7k3JA6RSPEHcj4ShjDUAJxVm/l2PVNd8paRqGqN9V1O6aDVHiHGRYebiYW4p8JCxH0uX&#xA;+y64qlfnLUEtfPHkXUfrKrpslxeWMrBgVaW8hVLcddy0sfEYqxvUfLut+RNVfW/LGphPLOt3iW+s&#xA;6fqMIngsn3t7e4iMZhYQcgkUnIkhOJ5cV2VT7Wda/MzTtPk/SCWcLOeEd/plvLdLGKfbYTyoENR/&#xA;uxfTUbmSvwlVhF/+dfnG1uLif1tLOm6aWaf1op7R50RTyEcrNPA/xbDgwZmoFU1xVk9j5z069/3L&#xA;Xmiat5VknDSSaxDbT+ioXble84FidWXdHdHULvyQ4qmt/wDmdomlGOz1vUbW5W8Upa32kSevLIzL&#xA;Uf6HE01yhodmj9Re7MuKqMP5gaja6la6eYbjUTMH4Qz2sllfyqrblI5FijmZFI5+kOPd/RA+JVm+&#xA;l6tp+qWgurGYSwk8W2KsrUB4ujAMrUINCMVReKuxV2KuxV2KuxV2KuxV2KuxV2KuxV2KuxV2KuxV&#xA;2KuxV2KuxVJfOumtqfk/W9PQ0lubG4jhYdVkMTemw91ehGKse0vVJNe0iTXLeqy+YVtdO094+SlL&#xA;f0+dxIlSOLxPJctXavBfbFUthhtvM3m76osSHRrJvQS3oPT+rWYHJeFClJXli49nhd1P2aYqivy/&#xA;mNtqWraRdagt1pHlW3trXTJJeKFYQZ6yz/EQXRYhEJCBUIXGznFWPz23lrzX5cutW1W6+qax5qne&#xA;bRJbwyRpDBp07x2USyKKQBkPN6HmHlYruFoqv0Tzb5DudNlsPOMlvoutRS3FtqlrP6cAv1KvDOZo&#xA;k/dyGQMRLQfaHJTw4MVU98ueTvLl7Y2trq2vXPmWsRfSIbmeWBksQxWJmgjeNpXAAVp5AWY9KA0x&#xA;VXvvyb8sXxLyXupBlWlnKtzWS3o4kjZJWVpJDCygwmZn9P8AY44qqLrnmjQdTj0q+nh12Nlrbz/B&#xA;bXcnEAtEeP7k3HEgojCMONw3VQqs8+3Ona7ZaLoVoytL5pmRVmAKSrZW3+lzSDkAQU4KOLdzSmKp&#xA;b+Z/5dreW8mqaHN+h9QW5guprqMuEe4L+nHcOqsAhtmb1WYKeS8lPU4ql2v+S7z8vdMm856Bqk8m&#xA;oWxWTXba4dzYXaSNwluXgLH0mj9T1m9NwuzfCKgqqznyP52t/M9rco9ubLVtOZItTsuazIjyIJEe&#xA;GdP3c0UiMGR17dQDtirJcVdirsVdirsVdirsVdirsVdirsVdirsVdirsVdirsVdirsVdiry7ytHJ&#xA;Zflp5U/RiPHDBo8VvbSmjMupXno20U4G/IqZJnY+B6b4qj/LFjc6R5XuDbARajfTrpllwoxicSMk&#xA;p4nqtvcy3MgFT+7UDtirz7XdLWx1Ky1N9Oub7R9Qcwan5dtZVE2oWcILWIn9RuE/oRSLGttyHNdy&#xA;W5ccVTXQvqcnkbyxPbQf7j7nzCtra2ckfFo7C7ke3likhbdRJRmIYdMVZZpumy6F570kzsGuNU0+&#xA;O0uGqWM1zFbkzzFj8TcEsIV+L+b3xVm9lYG2utQnLBjezrMBShULBFDxr33iJ+nFVyTWyIYLP0Wk&#xA;RivoKyqAwIL1Cg0pzqdu/viq+N4eKo5jErNRkUihkA5mld69/HFWJWPlzzND5z/xDeC0vPrQntmS&#xA;rK1naovK2WFyD6hZw3qVUfbqOhBVZQzvJ6lre2oeCUenyA9WKRXU8ldaVXoa8hxpT4qmmKq9zbQ3&#xA;MD28wJikHF1DMpI8KqQd++KsE8+eX/LWi6XaeZNM0yCy1PStQsTFdWESQy+lPfQw3MLGJQXjkjkc&#xA;Ohr405AYqz5HR0V0YMjAFWBqCDuCCMVbxV2KuxV2KuxV2KuxV2KuxV2KuxV2KuxV2KuxV2KuxV2K&#xA;qV1OLe1mnI5CFGkK9K8QTTFXj3lTXzpXlTydaOvK10bRbe9lTl9q5tdJ9a4Qmh29O9jkX3Xt1xVl&#xA;Oq2M8On6dopflNY2EcU8wFCt7qTrp8NwCP8AXuWbFULqejQXmoLrbmVzDcX0sVrF8KQLYA23qoUW&#xA;RyzPb254qpPWgbpiqT+WrbzR5j0LytDY/VdKiSxt9blu4YWeC3km9Z7S2hj5qX/dzgsHbZQK15Yq&#xA;iPNt95kk0y21bU5IdE1zy5qX1K51S1VbmCO2vo41N5FDOGNHEixhDUg160xVltt5c1uztkutP8wX&#xA;er3EtDOdQki9KeFwATF9WijjhcfaRkSnZga1Cqf2VlptjHDZWNrHb28CsIo4UVY4+lVAWnEtyr74&#xA;qt06CxFk9vDbmCLnIJrdxvzkYvJz3bkXL8iamta4qrzXMUdxbwNKkck5bgjDeTgpJVDUfEPtd9gd&#xA;u4VVXLhTwAZuwY0H3gHFVpuIAsrGRQsP98xIASihviPb4SDiqRGOX69ZXNvKmqaHdyyyzF/QaO1I&#xA;V5Y54XRFJUuCjcix+IEEUNVUt/Ke60ybytNDps6y2dpqepQW8KnaCAX0rW8IBoVQW7RlB2QrTamK&#xA;syxV2KuxV2KuxV2KuxV2KuxV2KuxV2KuxV2KuxV2KuxV2KpX5rBbytrAAqTY3IAHUn0WxV5dpWlG&#xA;6lsniZbhZoYLWXq3JH1GK1dgBt8djprb1/Z+9V6Tp1tBfajrM9wolUXkEUDb/Ys44pUH+wuXkPzx&#xA;VCskMHkO1F1bG7UWtv8AWLckK0nPh6oP2lq9TVWPBujEKScVY9+U3mDUf8B2LvpFwmjW/rxaTKrx&#xA;c4tOt5pIoEuI5WikDxRRhfhVuSgNsxKhVmL6P9fiv4dTRHsNUt40uLA/EUkKMkw9UU5KV4BdtiCe&#xA;+yqQaBo+p+SLKO09dtQ8vRy+mBxPq2sTfZm4jbgrbSqvwivNQigpirKreJbWe9do1ihlYXDTjioJ&#xA;4BG5+6iPr4UxVdayR3P+mQziezuIk9ELuhALEurdw4YfdiqHvjbQQw8LF9Sms3DQwxmJ5om4MokD&#xA;XDpxPAsvLlXenfFUHaecdLnnjglSS1mklFuI5GhkZZmBKpKIJJjETxIHqU3264qnBtwrySw0SaXi&#xA;HY1ZTw78QVFaGlfl1oMVSzSJbG8/S9jLYwwTRXMkOoQBVaOcSorpK2w5+rC68uQ61XelSqxnyzMJ&#xA;/OenajD6KXeteXxeeYkh+BXmWS3+oyqh3b4JblOe+yqCdhirPsVdirsVdirsVdirsVdirsVdirsV&#xA;dirsVdirsVdirsVdiqncwLcW8sDEhZUZGI6gMKbYq87/ACRgZvKmnSXADXFpp1hZzsR0uYo5JZmq&#xA;f2ybs8vx74qyDyHJJcQ6tcuSUOo3SW46D0TO86mlT8XK4YE/R2xVW80+ZH0eW2hWCOeO4jkLo9VA&#xA;CtGoJY/AsZL+mzH7JZWPwBiFXn3k7zlHBbxeQIba6tZL3Ur2x0zUKMFjspVubwEyfEY7iBIpIVSS&#xA;hLp34uFVenQX+qWzada6lDE010z28lzA5CmVIjKHWNhUI6xvUciVNB8Q+LFUbLLM8AaBWVxMqEMt&#xA;DwWULIaEjYqCQfDcYqt1WC0udOuLS8NLa7Q20vuJ/wB1ToevOmKpffzXcs1slnJ9ZvNJljm1C3jr&#xA;EsyywSx8AzVj5VcShC21FqRyBxVgdl5w06LUfMmrSetZNdkomppHJPF9XtZpoIbiQRrII4/3Lh2N&#xA;KoKj7DsFWD3l2bvzLo+qeVprebWm1WAXF/ZzPOL2D0llit3k4w/WF+C4iM8i8o4yAzUYsVX0HpV3&#xA;c3WmWt3eQG0nuI1ke2fZozJuI3r+2tQG98VVHiSBbm4t7cPcyDmyrRWlZFoilj8qCvTFWD2+hXOh&#xA;+c/Ld7JOjtfQ3+nzWEQk9KGS5jjvZZoebOVj52Cpw2UcqqBU1VZ/irsVdirsVdirsVdirsVdirsV&#xA;dirsVdirsVdirsVdirsVdirAvyshuLG986aPcHey8wTSWq9haXdtb3EAHsokK/Riqd+QdOGneWo7&#xA;LkHa3ub2JpQKF/Tu5UDHrvxUYqk35oW88UdjqcSLwif0ZZShlCtJ8EXOL/diH1HjZerK7Rr8UgZV&#xA;WGPoOiX+teX7me/fTEke5Sz1SCVfXt9VWO3ewjeRw0VxztfWCO4/fxCLlybcqvW9NtJLix0+a/uo&#xA;9QubVjNHeQxmBHYxvFyMfOSh4SGorSvYdMVRdjdyXEQaW3ktZgB6sEoBKkitA6Fkf5qx998VQlgl&#xA;yNU1VLnlLDJNFNaEsXjRBBGpjAOyMsqM9Kb8gd96Kq8Gmx217c3NsQn16VZrxCOXORIVhDKajiSk&#xA;cYPUUXpUk4qw3Wfy4vGuuekyWn1T1TNFDcxET2zt8RFvcgSFYy6q3pNGQCBTpTFU70DyilhfHUbt&#xA;o5rs83j4iVyksyqs0hlnklkkdkijjDfCFReKqASMVTC9sr6bUbeV5Fls45VaK2VAnBgrVllkLMXp&#xA;+wqqu53r1CqNN7aBbhvWVhaEi6CnkYyEEnFwKkHg6tTrQjxxVhPlS/m8yedLzWL+3n046bZQR6Pp&#xA;FzQSi1vyzm/kVSwV52gMSofiQRtXdiAqzzFXYq7FXYq7FXYq7FXYq7FXYq7FXYq7FXYq7FXYq7FX&#xA;Yq7FWLXDLpP5h28zfDbeZbT6oW6D67p/OeIf60tvJN9EQxVHeU52m0e5eNQGXUdURQx2Jj1G4Tcg&#xA;d+OKu0G8t/MHlwJexiYSxtbX8EoFWqtD6i7cfVjYPx8GxV5OlsNB1248u65bxXemzkW6RXwWW2uL&#xA;eSQvDDcc13BYs8UnE+m/LfgZFgVZb5S8xad5J8raT5c8wW97ZX9n6VgZvqdxNa3FzNJ6aNFdQxvb&#xA;qtxK/wACu6stQGpirMNP1qS616902SI27WtpaXIhkKGQfWXuEJPBnWn7imx6g4q0+lalDf3lxpl9&#xA;FD9ddJrmC5ha4AkWNYQ0fCWAqGSJag1FRUU3xVDDzr5ctC1rqGr2xvoGaO44K0ah1YgjgWkIp0+0&#xA;cVSqx836LBBLZS+ZbeS2CMlpdKpF1GCaR8mk9WORkX9tl+LuOtVVbT/Omh28jrc+Zra9tq1iMkQS&#xA;cV7PJGUjbfpSJdvE74q7V/zM8sWsdubTU7SWWWdIvRkMo5K9QaNGkhXj9osVIoDWnUKpLqP5k+X9&#xA;C1CSOwuYtZvfMF1JMkAdbeKH0raGFTNK3MrEEh+Ngrvyb4U7BVB6Z5v0nQr+91O81C31TV9ZaI3d&#xA;1CWS2jigUrDZwqeTxLHzZldwVZmYuycgAqyyx/M/yPeRll1SOGVdpbeYFJUPgwofoZSVPYkYqif8&#xA;f+Tf+rtB95/pirv8f+Tf+rtB95/pirv8f+Tf+rtB95/piqaXRk1DRpTptyI5Lu3Y2V2NwplT93IP&#xA;lUHFXki+SPzMtmiutKtYNPuILO7s4OFz6kytdSaUzymSQuJCwsZviJVjsTQnFUXL5f8AztntKXep&#xA;er9aQjULaGS3jO3pBUtn9KkdSZC5NagU22oqh7Tyd+bEek6TpkvoyR6J9Vksz68aqXhiRVUfu2K+&#xA;iQwqQ1fA4qmuk+XPzWutG1yDXNUkW4l0iW00dYpIo6Xc014fVlaNWYOkJtVVg+3xdTU4qhbzy7+b&#xA;UbMdKuntoZ45HliL2pkEryswdmUR+pKU4q+4FN1dT9pVq70j89pYvSTUI4AhJllikgkkkDu7qsPN&#xA;IwPR5RqS9OSq22+6qY+atJ/OCfV9RfQtSWG3kggGl19AQo6mL1vWV0d+VVl6KwIYCopsqlMflj85&#xA;reW5Wz1OaK3d9RnthNNBO3q3PN7dZGYD4EDIoCqeLhiPhIxVrzZ5F/M3VJ0tvrh1CwtTdtYtcS24&#xA;HKSK/iRriMRL6jFbm3Vf2QFao/mVW+eE/NfSi89rfanc2d5qDP6WmwRXVxDbq+oOqxKsa0X0RZgC&#xA;RqF6gtucVexYq7FXYq7FUh88aDc615emgsHEOr2rpe6ROeiXlswkhr/kMy8H8UZhirHPIHm63ufJ&#xA;s+tW0Eghm1eYSWjhhJEb28BdKEfbR7ipFOtRiqp5b1V9P8wywXRIj1OQpKeiLdh5FLeH7y4iuIyf&#xA;AQL+1irK9c8uaPrcHo6jbrLRXSOTo6BxRuJ8DQVB2NNxirEIEOj28nlPzfwv/L14jxWV7MGKiFRX&#xA;0p3PTiN1YtyWnUheQVQnnPyXpGjJa+ZBqGrwzWs0NtqOrpfXMk0OmMzc1YMzI0SSOruzIxUVau1c&#xA;VZZZ3HlHy3pSTjUIo7W8PrC+ubozy3TkKA/rSu7zMRxVQCdqKopQYqmmllzCzhWFtMzTQeqrpMBK&#xA;xdhJHIOS7moBoQNiopiqMxVKdY1yaxhiWKzaS8u5jbWcUskcUbSUJUvLVuKmnYM/ghO2KsY866jr&#xA;HlbQdNv4tcUaxS0076tdoJba+mZgryGPlHIjKpeRnSQAICXqFFFU507yreLeS61f6p9c16SMQwXk&#xA;UIhtoIKhzDDbl5T6cjANJykZmoPiHFOKqe2kl06EXMIilQ0JVgyPt9pP2qf6wH09cVVDDCZVmMam&#xA;ZFKpIQOQViCwB60PEVxVfirsVdiqD1oXbaPfizBa8NvKLZVJUmXgeADAqR8XeoxV5rz/ADlBtSFk&#xA;EUbQyGJVgJHpl4vSdncvIknJHkYsWAG2Kq95qv5xw+Rpri106S68xC742cTizhlMC2YcmdA0kPE3&#xA;oaIBG5emVPIGpxVLdUh/OHVNUiE1pPDZwXc5gaGVIOVmL/T2tjKqTcWlMAuTJyXYKQtORDKsl/L6&#xA;7/MI6rcWnmCxlt9HisbYWU07Qs5uFRRKKxkv8XLfmTuOvYKs8xV2KuxV2KuxV2KuxV2KuxV2KuxV&#xA;5RDp5tfJ/nfT9OX/AEiHzHNKqLTaS5ntrwAV26TjbFUy8y29kdQv5GdlsqPeySJVXECstrqPpfyt&#xA;aTW9vdhwvIv064qy7y1q099aSW18VGr6e31fUFTZWalUnjG/7udKSJuaV4k8lOKo/UNPstQtJLO9&#xA;iE1vKByRq9QaqykUKspFVYbg7jfFUljeHytpyWdyjNoUKlUvk5N9XjJJ4zqKlI1rs6fAi9VRVriq&#xA;R335U6Bc288+hiwsrm+CSpqSafamZHRhLBPDPai1k5xuqsrOzjxBxVU0/XvzOtbKKLUtH0++uXcw&#xA;W96t4bH1mGyvJbSxyNHyp0R2P+SMVQunan+ZWmRxtqltY65fyKR9YEF7YiMcj+7V4LXUGkXkF+J0&#xA;ir9rjiqIl8sT+Z5ni8+XVrNZ0HoeWLN5o7dXEg4zTSv6M1ywcUjPBEB3ClqMFUXpflHRPKeoT6lB&#xA;YrPblCF1BzJc3trHtyj5ymSRoNq/AajaoYbhVkem6VYWPNtPHo2s3xi1jI9AMdy8aDZOXU8aAnel&#xA;STiqOxV2KuxV2KuxV2KuxV2KuxV2KuxV2KuxV2KuxV2KuxV2KuxV2KuxV5leW/8AzuHnPQpmVI9Y&#xA;bQtUi5jkrCaRdOm28R9RQU9xiqbW6T23lTTPME1CbIjUbg7ktaXqepfLJuSQnrPIFFamNMVUobK9&#xA;0jUvQ09PVvtJhrYQAgfX9FZ6/VgzUBms3PGMk7fByZRMxxVmthfWl/Zw3lpJ6ttOoeN6EVB8VYBl&#xA;I6EEVB2OKq+KpG+gXOnyvc+XpEtubF5tLlr9TlY7sVC1a3djuWjBUmpZGO+Kq9rrtldSjT76FrG/&#xA;kBH1G7Cj1QBVvRcFo5lpueBJA+0FO2KpnHFFFEsUSCOJBxREHEKBsAAOmKrLa2jt4/TjLstSaySP&#xA;K1T/AJUhZvoriqrirsVdirsVdirsVdirsVdirsVdirsVdirsVdirsVdirsVdirsVdirsVdirz/z/&#xA;AGjW3mzRdTQ8F1Kzv9EmkAJpMYxf2bGn8slnIo8S9O+Ksr0D01gvLIfGlrdSoGp8DJPS6QJ1qqpc&#xA;Kn0YqkVvpt0Ld9IgdV1vy24m0SaQ7SWcgYQRyEVPB0VraQmpqnqUrxxVEWV4luh17TIpDpd47HWN&#xA;M4/vbadWZZpkjWv7xZAVnjFeVOa/FUSKsnhmhnhjngkWWGVQ8UqEMrKwqrKw2II6HFV+Koe/0+w1&#xA;C1a1vreO6tnoWhlUOpKmqmh7gioPY4qvtRMsXCVQpRmVOJLAxhjwNTvXhSte+KquKuxV2KuxV2Ku&#xA;xV2KuxV2KuxV2KuxV2KuxV2KuxV2KuxV2KuxV2KuxV2KuxVIvO+k3Wp+XLlLEctUtGjvtLBNK3dn&#xA;ItxApPZXeMI3+STiqXeXdR0k2ej3ljNJPpt1bwaY7zUUjhGZLV5EIoPUVyKg/EXTbwVZDFYWjXMN&#xA;w6cruxWS3imAdKRy8GKbk8wQqV6jkOx6KoDUUOjX8msxD/cfcU/TMQ248QFW8HuigLL4oAa/BRlU&#xA;wsNNt7J5jakpbzt6v1YGsaSMSXaMfs8yasBtXelS1VUZirsVdirsVdirsVdirsVdirsVdirsVdir&#xA;sVdirsVdirsVdirsVdirsVdirsVdirsVdirsVYV5etYrTX/MPlK45C3Ypq2lDbiILuRy/Cm4eC6R&#xA;qb0VDHQdyqyCxvLm31I6bqEoknuIzdWjheKFVCrPEvU/u3YMOW/FgN+JOKo+8KfV3V3aISUiEibM&#xA;pkIRSp3oatiqC0aD6sDBakSaSVD2RB3hBofRod+ABBj8B8OwC1VTPFXYq7FXYq7FXYq7FXYq7FXY&#xA;q7FXYq7FXYq7FXYq7FXYq7FXYq7FXYq7FXYq7FXYq7FXYqgZv0L+m7X1fR/TX1ef6pXj6/1bnF6/&#xA;D9r0+fpcu1ePtiqKl+repD63D1OZ+r86cvU4NXhX9rhy6dq4quk9PiPUpxqtOVKcqjj1716Yqh9O&#xA;/RnpSfo/0/S9Q+p6NOPOgr09qfRiqKxV2KuxV2KuxV2KuxV2KuxV2KuxV2KuxV2KuxV2KuxV2Kux&#xA;V2KuxV2Kv//Z</xmpGImg:image>
               </rdf:li>
            </rdf:Alt>
         </xmp:Thumbnails>
      </rdf:Description>
      <rdf:Description rdf:about=""
            xmlns:xmpMM="http://ns.adobe.com/xap/1.0/mm/"
            xmlns:stRef="http://ns.adobe.com/xap/1.0/sType/ResourceRef#"
            xmlns:stEvt="http://ns.adobe.com/xap/1.0/sType/ResourceEvent#">
         <xmpMM:RenditionClass>proof:pdf</xmpMM:RenditionClass>
         <xmpMM:OriginalDocumentID>uuid:65E6390686CF11DBA6E2D887CEACB407</xmpMM:OriginalDocumentID>
         <xmpMM:DocumentID>xmp.did:24F38A2C7ABEE411B15DD899516AEE35</xmpMM:DocumentID>
         <xmpMM:InstanceID>xmp.iid:24F38A2C7ABEE411B15DD899516AEE35</xmpMM:InstanceID>
         <xmpMM:DerivedFrom rdf:parseType="Resource">
            <stRef:instanceID>uuid:495d734b-595f-ed44-baa4-f7b96906a5ee</stRef:instanceID>
            <stRef:documentID>xmp.did:F87F11740720681186239FE77607E6FE</stRef:documentID>
            <stRef:originalDocumentID>uuid:65E6390686CF11DBA6E2D887CEACB407</stRef:originalDocumentID>
            <stRef:renditionClass>proof:pdf</stRef:renditionClass>
         </xmpMM:DerivedFrom>
         <xmpMM:History>
            <rdf:Seq>
               <rdf:li rdf:parseType="Resource">
                  <stEvt:action>saved</stEvt:action>
                  <stEvt:instanceID>xmp.iid:24F38A2C7ABEE411B15DD899516AEE35</stEvt:instanceID>
                  <stEvt:when>2015-02-27T14:16:16+02:00</stEvt:when>
                  <stEvt:softwareAgent>Adobe Illustrator CS5</stEvt:softwareAgent>
                  <stEvt:changed>/</stEvt:changed>
               </rdf:li>
            </rdf:Seq>
         </xmpMM:History>
      </rdf:Description>
      <rdf:Description rdf:about=""
            xmlns:illustrator="http://ns.adobe.com/illustrator/1.0/">
         <illustrator:StartupProfile>Web</illustrator:StartupProfile>
      </rdf:Description>
      <rdf:Description rdf:about=""
            xmlns:xmpTPg="http://ns.adobe.com/xap/1.0/t/pg/"
            xmlns:stDim="http://ns.adobe.com/xap/1.0/sType/Dimensions#"
            xmlns:xmpG="http://ns.adobe.com/xap/1.0/g/">
         <xmpTPg:NPages>1</xmpTPg:NPages>
         <xmpTPg:HasVisibleTransparency>False</xmpTPg:HasVisibleTransparency>
         <xmpTPg:HasVisibleOverprint>False</xmpTPg:HasVisibleOverprint>
         <xmpTPg:MaxPageSize rdf:parseType="Resource">
            <stDim:w>144.998557</stDim:w>
            <stDim:h>97.719444</stDim:h>
            <stDim:unit>Millimeters</stDim:unit>
         </xmpTPg:MaxPageSize>
         <xmpTPg:PlateNames>
            <rdf:Seq>
               <rdf:li>Cyan</rdf:li>
               <rdf:li>Magenta</rdf:li>
               <rdf:li>Yellow</rdf:li>
               <rdf:li>Black</rdf:li>
            </rdf:Seq>
         </xmpTPg:PlateNames>
         <xmpTPg:SwatchGroups>
            <rdf:Seq>
               <rdf:li rdf:parseType="Resource">
                  <xmpG:groupName>Default Swatch Group</xmpG:groupName>
                  <xmpG:groupType>0</xmpG:groupType>
               </rdf:li>
            </rdf:Seq>
         </xmpTPg:SwatchGroups>
      </rdf:Description>
      <rdf:Description rdf:about=""
            xmlns:pdf="http://ns.adobe.com/pdf/1.3/">
         <pdf:Producer>Adobe PDF library 9.90</pdf:Producer>
      </rdf:Description>
   </rdf:RDF>
</x:xmpmeta>
                                                                                                    
                                                                                                    
                                                                                                    
                                                                                                    
                                                                                                    
                                                                                                    
                                                                                                    
                                                                                                    
                                                                                                    
                                                                                                    
                                                                                                    
                                                                                                    
                                                                                                    
                                                                                                    
                                                                                                    
                                                                                                    
                                                                                                    
                                                                                                    
                                                                                                    
                                                                                                    
                           
<?xpacket end="w"?>
	</metadata>
<g>
	<g>
		<path d="M108.762,18.052c0.416,0.273,1.25,0.126,1.502,0.563C110.124,18.805,108.61,18.776,108.762,18.052z"/>
		<path d="M95.055,28.943c0.927-0.276,2.646-0.393,2.816,0.375C97.214,28.911,95.688,29.374,95.055,28.943z"/>
		<path d="M116.272,31.572c7.833,1.268,14.743,3.551,21.031,6.947c-3.296-1.162-6.394-2.653-9.764-3.756
			c-3.493-1.141-6.999-1.6-10.703-2.628C116.479,32.036,116.327,32.287,116.272,31.572z"/>
		<path d="M39.661,43.778c-9.249-3.958-19.245-7.168-29.104-10.517c-0.031-0.218,0.041-0.333,0.188-0.375
			C20.41,36.489,31.063,39.107,39.661,43.778z"/>
		<path d="M25.015,45.28c0.938-0.433,2.182,0.442,3.379,0.375C27.323,46.221,26.089,45.337,25.015,45.28z"/>
		<path d="M56.185,61.991c-1.879,0.618-5.096-0.483-7.698-0.375C50.183,61.075,53.498,61.914,56.185,61.991z"/>
		<path d="M57.687,64.62c-3.121,0.364-5.993-0.127-9.576,0c-1.483,0.11-1.044-0.331,0.188-0.188
			C51.61,64.418,54.883,64.242,57.687,64.62z"/>
		<path d="M59.378,64.808c0.26-0.429,1.307-0.07,1.878-0.188C60.811,64.852,59.843,65.178,59.378,64.808z"/>
		<path d="M68.016,65.184c-1.918,0.422-3.521-0.283-5.446-0.188C63.596,64.532,66.725,65.15,68.016,65.184z"/>
		<path d="M86.417,67.249c3.009-0.066,6.813,0.696,9.764,1.315C93.795,68.737,89.347,67.778,86.417,67.249z"/>
		<path d="M230.626,73.07c-0.164,0.46-0.168,1.082-0.751,1.126C229.907,73.604,230.007,73.077,230.626,73.07z"/>
		<path d="M228.748,74.948c-0.206,0.67-0.646,1.107-1.313,1.313C227.642,75.591,228.079,75.153,228.748,74.948z"/>
		<path d="M74.774,76.261c0.321-0.429,1.436-0.067,2.066-0.187C76.519,76.504,75.406,76.144,74.774,76.261z"/>
		<path d="M65.948,76.45c0.571,0.117-2.514,0.527-3.755,0.563c-1.133,0.033-2.564-0.125-0.751-0.188
			C62.78,76.659,64.985,76.367,65.948,76.45z"/>
		<path d="M68.955,76.261c-0.161,0.479-2.5,0.526-2.254,0.188C67.154,76.09,68.209,76.331,68.955,76.261z"/>
		<path d="M139.182,81.521c-5.685-1.015-12.115-2.908-17.839-4.508c1.352-0.254,3.045,0.342,4.507,0.751
			C130.167,78.975,135.035,80.237,139.182,81.521z"/>
		<path d="M82.474,78.891c-1.285,0.304-3.019,0.25-3.755,0.188c-1.805-0.152,0.3-0.189,1.688-0.188
			C81.085,78.892,81.238,78.778,82.474,78.891z"/>
		<path d="M74.774,79.079c-0.142,0.31-1.547,0.31-1.688,0C73.834,79.24,74.473,78.798,74.774,79.079z"/>
		<path d="M65.197,79.454c-6.471,1.357-15.546,1.207-21.969,0.751C50.336,80.222,58.986,80.253,65.197,79.454z"/>
		<path d="M218.608,79.642c2.215,1.69,6.521,2.003,9.768,1.127C225.692,82.152,220.241,81.923,218.608,79.642z"/>
		<path d="M52.616,89.406c-1.157,1.784-2.854,3.027-4.317,4.506C49.035,92.458,50.829,90.436,52.616,89.406z"/>
		<path d="M81.158,91.096c0.481,0.74-0.367,1.992-0.375,3.192c-0.014,2.207,0.971,3.914,2.44,4.694
			C80.531,98.905,79.775,93.734,81.158,91.096z"/>
		<path d="M86.229,100.86c0.218-0.031,0.333,0.042,0.375,0.188c-1.083,2.149-0.325,5.019,0.939,6.384
			C85.579,106.675,85.241,102.921,86.229,100.86z"/>
		<path d="M160.212,104.052c1.732,1.146,3.867,1.892,5.068,3.568C163.593,106.429,161.648,105.495,160.212,104.052z"/>
		<path d="M102.941,110.25c0.957,0.479-0.624,1.443-0.188,2.628C101.544,112.612,102.897,111.027,102.941,110.25z"/>
		<path d="M90.548,112.69c0,0.188,0,0.376,0,0.563c-0.333-0.043-0.94,0.189-0.751-0.376
			C90.133,112.902,90.192,112.648,90.548,112.69z"/>
		<path d="M160.023,112.69c2.857,2.629,0.17,6.024-1.126,9.575c-0.938,2.576-1.592,5.017-2.438,6.947
			C156.192,123.99,162.591,118.494,160.023,112.69z"/>
		<path d="M158.896,113.066c1.154,2.861,0.294,5.474-0.563,8.073c-1.123,3.406-2.467,5.344-4.318,7.888
			c-1.053,1.443-2.151,2.967-3.381,3.941C154.33,127.37,159.589,122.438,158.896,113.066z"/>
		<path d="M86.041,114.192c0.025,0.591-0.481,0.646-0.939,0.751C85.138,114.415,85.429,114.145,86.041,114.192z"/>
		<path d="M167.158,120.952c0.752-0.017,0.207,1.46-0.375,1.313C166.765,121.684,167.013,121.369,167.158,120.952z"/>
		<path d="M102.003,134.284c0.402-4.378-1.153-8.169-4.131-9.764c-0.119,3.795,1.36,7.067,1.502,10.702
			c0.059,1.526-1.081,3.716-0.751,5.26c0.563,2.634,6.188,2.972,6.946,5.818c-2.133-2.06-5.245-3.141-7.32-5.257
			c1.292-5.867-0.265-11.242-0.939-16.712c-0.744-0.46-1.978-0.044-2.815,0c-0.034-0.16,0.072-0.177,0.188-0.188
			C100.114,122.848,103.206,128.925,102.003,134.284z"/>
		<path d="M95.805,124.521c0.219-0.031,0.334,0.042,0.375,0.188c0.905,5.354,2.605,11.089,1.314,16.336
			c-0.844,3.428-3.501,6.076-4.132,9.201c-0.296-3.155,2.949-5.807,3.756-9.014C98.552,135.533,96.489,129.905,95.805,124.521z"/>
		<path d="M121.154,124.521c0.138,0.568-1.044,0.518-1.502,0.751c-0.806,0.409-1.409,1.289-2.253,1.313
			c-0.584,1.857-0.657,3.894-0.751,5.82c-1.103-1.435,0.346-3.353,0-5.257C117.847,125.968,119.194,124.938,121.154,124.521z"/>
		<path d="M142.186,125.271c-0.332,0.794-1.822,0.43-2.254,1.126C139.663,125.746,141.441,125.532,142.186,125.271z"/>
		<path d="M143.5,125.647c0.26-0.429,1.307-0.07,1.877-0.188C145.117,125.887,144.069,125.529,143.5,125.647z"/>
		<path d="M126.412,126.023c0.454,0.358,0.796,0.832,0.938,1.502C126.681,127.381,126.594,126.654,126.412,126.023z"/>
		<path d="M186.124,127.336c0.025,0.528-0.459,0.542-0.939,0.564C185.357,127.571,185.533,127.248,186.124,127.336z"/>
		<path d="M184.623,127.9c0.432,0.442-0.678,0.941-1.13,1.126C183.503,128.281,184.221,128.249,184.623,127.9z"/>
		<path d="M162.276,132.03c0.282,0.231-1.198,0.292-1.688,0.375C160.909,132.041,161.559,132.002,162.276,132.03z"/>
		<path d="M164.529,132.406c1.229-0.038,2.979,1.025,3.38,2.44C167.006,133.812,166.008,132.869,164.529,132.406z"/>
		<path d="M134.861,133.157c0.886,0.05-0.116,0.845-0.187,1.126C134.035,133.929,134.996,133.626,134.861,133.157z"/>
		<path d="M171.102,135.411c0.09,0.425-0.47,1.127-0.75,0.563c0-0.125,0-0.25,0-0.375
			C170.688,135.622,170.748,135.369,171.102,135.411z"/>
		<path d="M144.814,136.726c0.258-0.484,1.15-0.042,1.502,0C146.154,137.113,145.009,136.923,144.814,136.726z"/>
		<path d="M93.177,136.726c0.574,0.364,0.756,1.122,0.75,2.065C93.696,138.138,92.89,137.297,93.177,136.726z"/>
		<path d="M188.001,137.476c0.291,0.404,0.809,2.354,0,2.629C188.166,138.976,188.067,138.66,188.001,137.476z"/>
		<path d="M197.579,137.476c2.196,0.916,3.295,2.354,3.564,4.508c0.229,1.803-0.823,3.791-0.562,5.633
			c0.198,1.412,1.257,1.576,2.438,3.004c1.867,2.252,3.48,5.997,1.503,9.577c-0.513-1.076,0.173-2.927,0-4.318
			c-0.391-3.178-3.488-5.062-4.691-7.323c-1.078,1.051-1.851,2.407-3.191,3.192c0.354-1.448,2.144-1.912,2.816-3.755
			c0.411-1.133,0.688-2.977,0.749-4.131C200.355,140.971,198.69,139.323,197.579,137.476z"/>
		<path d="M131.67,137.853c0.182-0.466,0.722,0.259,1.313,0c-0.021,0.337,0.23,0.396,0.188,0.751
			C132.463,138.562,132.26,138.013,131.67,137.853z"/>
		<path d="M140.871,137.664c-0.053,0.953-2.089,1.539-1.878,3.38C138.291,139.337,139.972,138.396,140.871,137.664z"/>
		<path d="M148.569,138.791c0.33,0.171,0.653,0.35,0.563,0.938C148.394,139.967,148.573,139.286,148.569,138.791z"/>
		<path d="M124.723,140.668c0.819,0.016-0.095,1.018,0,1.502C124.195,141.87,124.985,141.325,124.723,140.668z"/>
		<path d="M94.115,140.855c0.609,0.834,0.347,3.951-0.563,4.508C94.002,144.123,93.937,142.367,94.115,140.855z"/>
		<path d="M194.011,147.803c-0.057-1.101-0.126-3.518-1.126-4.693c-1.511-1.033-3.669-1.146-5.258-0.75
			C191.311,140.42,195.648,143.845,194.011,147.803z"/>
		<path d="M158.521,142.732c0.546,0.319-0.167,0.941-0.376,1.127C157.522,143.463,158.71,143.314,158.521,142.732z"/>
		<path d="M171.291,145.175c0.693-0.133,0.805,0.321,1.502,0.188C172.7,145.622,171.1,145.818,171.291,145.175z"/>
		<path d="M138.616,146.49c-0.222-0.217-0.662-0.213-1.127-0.188C137.534,145.7,138.709,145.871,138.616,146.49z"/>
		<path d="M132.421,146.864c-0.084,0.542-0.809,0.442-0.938,0.938C131.063,147.492,131.798,146.755,132.421,146.864z"/>
		<path d="M140.494,148.18c0.426,0.161,0.689,0.979,0.375,1.314C140.334,149.467,140.527,148.711,140.494,148.18z"/>
		<path d="M176.923,148.555c0.751,0.502,0.774,1.729,0.938,2.816C177.138,150.845,177.312,149.418,176.923,148.555z"/>
		<path d="M151.386,152.497c-0.409-0.466-0.764-0.987-1.877-0.75C149.847,150.878,151.646,151.544,151.386,152.497z"/>
		<path d="M179.177,151.747c0.23,0.082,0.386,0.239,0.375,0.563c-0.606-0.231-0.145,0.605-0.752,0.375
			C178.66,152.107,179.316,152.325,179.177,151.747z"/>
		<path d="M143.313,152.873c0.65,0.691-1.126,2.1-1.313,3.191C141.574,154.889,143.13,154.07,143.313,152.873z"/>
		<path d="M128.29,154.188c0.102-0.141,0.706,1.559,0.375,1.879C128.144,155.837,128.317,154.912,128.29,154.188z"/>
		<path d="M199.645,154.751c0.33,0.483-1.076,2.425-1.126,4.319c-0.091,3.33,1.839,5.125,4.13,6.195
			C198.529,165.422,196.618,157.949,199.645,154.751z"/>
		<path d="M184.997,155.689c-0.231,0.396-1.131,0.123-1.313,0.563C183.042,155.753,184.756,155.343,184.997,155.689z"/>
		<path d="M187.252,156.066c1.935,1.619,4.646,5.089,3.004,8.449c-0.229-1.134,0.186-3.138-0.377-4.507
			C189.26,158.499,187.465,157.537,187.252,156.066z"/>
		<path d="M100.125,160.384c0.507,0.399,0.018,1.384-0.188,1.69C99.056,161.725,100.171,161.046,100.125,160.384z"/>
		<path d="M161.526,160.572c0.371-0.539,1.171,0.063,1.689,0C162.823,161.132,162.229,160.323,161.526,160.572z"/>
		<path d="M154.016,161.698c0.629,0.172,0.093,0.35,0.188,0.938c0.514-0.071,0.801-0.864,1.313-0.375
			c-1.003,0.938-2.458,1.425-2.629,3.192C152.492,164.18,153.676,162.864,154.016,161.698z"/>
		<path d="M145.94,163.576c0.178,1.313-0.479,4.563,1.127,6.009c1.009,0.056,1.332,0.797,2.252,0.938
			C146.276,170.846,144.422,166.748,145.94,163.576z"/>
		<path d="M99.749,163.766c1.07,2.368,2.172,4.713,4.131,6.195C101.649,168.748,100.209,166.746,99.749,163.766z"/>
		<path d="M164.529,173.529c0.239,0.742,1.443-0.566,1.314,0.375c-2.822,0.176-5.083,0.592-7.323,1.688
			c0.982-1.71,4.311-1.074,5.821-2.253c-0.759-0.188-2.329,0.422-3.755,0.188c-0.984-0.271-0.904-1.603-2.253-1.504
			c0.389-0.914-0.313-1.307,0-2.064c0.5,1.002,0.545,2.46,2.253,2.253c-0.021,0.468-0.354,0.581,0,0.938
			c1.479,0.041,2.849-0.028,3.941-0.375c3.114-4.354-1.229-10.088-5.257-6.195c0.115-1.229,1.958-1.688,2.816-1.689
			C166.287,164.875,166.955,170.625,164.529,173.529z"/>
		<path d="M123.032,166.02c0.682,0.313-0.938,1.387-0.563,2.627C121.498,167.939,122.706,166.628,123.032,166.02z"/>
		<path d="M151.573,166.581c0.188,0,0.377,0,0.564,0c0.09,0.59-0.269,0.733-0.375,1.126
			C151.348,167.684,151.682,166.911,151.573,166.581z"/>
		<path d="M198.519,166.77c1.235,1.185,0.252,4.155-0.938,4.693C198.065,170.093,199.177,168.699,198.519,166.77z"/>
		<path d="M86.417,167.707c0.979,0.391,1.385,1.554,2.064,2.441c1.968,2.563,4.715,5.254,6.572,8.074
			C91.718,175.175,89.021,171.488,86.417,167.707z"/>
		<path d="M175.422,167.521c0.78,1.57-0.794,3.764-1.314,5.256C173.988,171.218,175.173,169.339,175.422,167.521z"/>
		<path d="M163.967,169.961c-0.38-1.37-2.071-2.227-3.755-1.689C161.169,167.003,164.581,168.467,163.967,169.961z"/>
		<path d="M156.268,168.083c0.528-0.026,0.542,0.46,0.564,0.938C156.244,169.107,156.23,168.621,156.268,168.083z"/>
		<path d="M107.071,169.021c3.757,0.25,1.584,6.429,3.005,9.014c-1.96-1.295-0.091-6.418-1.689-8.074
			C108.083,169.514,107.088,169.756,107.071,169.021z"/>
		<path d="M122.28,169.398c0.474,0.529,0.563,1.438,0.751,2.252C122.437,171.307,122.088,169.93,122.28,169.398z"/>
		<path d="M104.256,169.961c0.158-0.441,0.823,0.156,1.126,0.188C105.192,170.895,104.624,170.119,104.256,169.961z"/>
		<path d="M115.521,170.9c0.529,0.664-0.589,1.281-0.563,2.063C114.327,172.199,115.406,171.544,115.521,170.9z"/>
		<path d="M135.426,171.65c0.908,0.755-0.54,2.465,0.187,3.756C134.484,175.095,135.326,172.876,135.426,171.65z"/>
		<path d="M143.313,171.839c0.21,0.718-1.191,1.433-1.688,2.066c-0.1,1.503-0.017,2.532,0.376,3.942
			C140.15,176.232,141.622,172.325,143.313,171.839z"/>
		<path d="M183.119,173.904c0.957,0.371-0.396,1.969,0.188,2.628c-0.124,0-0.25,0-0.374,0c-0.127,0-0.251,0-0.377,0
			C182.76,175.673,183.114,174.963,183.119,173.904z"/>
		<path d="M130.544,176.157c-2.175,1.409-1.144,5.444,0.188,7.323C128.634,182.374,127.933,176.326,130.544,176.157z"/>
		<path d="M182.744,177.284c-0.239,0.513-0.754,0.748-1.128,1.126C181.275,178.057,182.137,177.313,182.744,177.284z"/>
		<path d="M142.186,178.035c0.38,0.308,0.749,0.628,0.751,1.313C142.254,179.343,142.111,178.797,142.186,178.035z"/>
		<path d="M157.02,178.41c0.802-0.43,2.109-0.045,2.629,0C159.403,179.053,157.749,178.467,157.02,178.41z"/>
		<path d="M181.055,178.6c-0.743,0.946-1.933,1.447-3.755,1.313C178.026,179.438,180.065,179.361,181.055,178.6z"/>
		<path d="M144.814,179.538c0.653,0.508,1.408-0.12,1.502,0.75C145.692,180.161,144.985,180.116,144.814,179.538z"/>
		<path d="M113.644,181.604c0.545,0.705,0.749,1.756,1.878,1.877c-0.639,0.504-1.383-0.487-1.878-0.75
			C113.644,182.354,113.644,181.979,113.644,181.604z"/>
		<path d="M131.106,184.044c0.038-0.263,1.229-0.119,1.127,0.375C131.585,184.568,131.441,184.211,131.106,184.044z"/>
		<path d="M118.714,184.607c-0.801-0.076-1.937,0.182-2.442-0.188C116.85,184.613,118.644,183.63,118.714,184.607z"/>
		<path d="M189.13,185.357c0.188,0,0.374,0,0.562,0c1.104,2.164,1.131,6.438-1.313,7.137
			C190.01,191.227,190.359,187.404,189.13,185.357z"/>
		<path d="M150.822,187.986c0.822,0.019,0.023,1.134,0,1.503c0.767,2.282,3.527,3.424,6.196,3.19
			C154.668,193.594,149.517,191.95,150.822,187.986z"/>
		<path d="M169.6,191.93c-0.468,0.911-2.214,0.682-3.191,0.377c-1.715-0.535-2.315-1.894-4.317-1.689
			c-0.818,0.083-1.327,0.896-2.253,0.563C163.292,188.211,166.215,193.23,169.6,191.93z"/>
		<path d="M182.181,191.743c0.763,0.301,0.925,1.205,1.503,1.688c0.619-0.132,1.2-0.302,1.878-0.375
			C184.359,194.256,182.173,193.402,182.181,191.743z"/>
		<path d="M76.465,192.682c9.157,30.463,26.146,53.096,43.562,75.297C102.194,246.193,85.086,223.682,76.465,192.682z"/>
		<path d="M184.246,195.498c-0.118,1.072-1.674,2.332-3.191,2.629C182.29,197.422,183.292,196.484,184.246,195.498z"/>
		<path d="M139.556,200.005c0.188,0,0.375,0,0.563,0c-0.495,0.579,0.481,1.474-0.563,1.502
			C139.556,201.006,139.556,200.505,139.556,200.005z"/>
		<path d="M174.857,200.943c1.238,4.435-3.245,6.389-6.571,7.511C171.259,206.732,174.889,205.669,174.857,200.943z"/>
		<path d="M140.119,202.258c0.395,0.061,0.67,1.188,0.375,1.313C139.932,203.548,139.893,202.506,140.119,202.258z"/>
		<path d="M73.648,204.511c0.219-0.03,0.334,0.042,0.375,0.188c1.006,6.603-0.242,12.959,0.188,19.904
			C73.171,218.484,74.857,211.564,73.648,204.511z"/>
		<path d="M165.656,207.891c-0.639,0.545-1.856-0.029-2.629-0.563C163.521,206.898,164.63,207.959,165.656,207.891z"/>
		<path d="M75.714,207.327c0.377-0.304,0.104,1.639,0.188,2.253C75.524,209.885,75.796,207.943,75.714,207.327z"/>
		<path d="M139.932,207.516c0.34,0.322-0.057,0.738-0.563,0.75C139.316,207.775,139.437,207.459,139.932,207.516z"/>
		<path d="M75.714,211.271c0.553,2.754,0.363,7.688,0.751,10.516c-0.548-0.188-0.526-1.814-0.563-2.629
			C75.794,216.802,75.82,213.82,75.714,211.271z"/>
		<path d="M155.518,211.271c0.188,0,0.375,0,0.563,0c0.053,0.489-0.068,0.807-0.563,0.75
			C155.518,211.771,155.518,211.521,155.518,211.271z"/>
		<path d="M154.202,214.275c0.053,0.49-0.067,0.808-0.563,0.75C153.586,214.535,153.709,214.219,154.202,214.275z"/>
		<path d="M151.949,219.721c2.383-0.178,6.217,1.07,9.576,1.127C159.063,221.223,154.824,220.18,151.949,219.721z"/>
		<path d="M166.031,221.787c-0.17-0.414,1.961-0.158,2.254,0.188C170.362,222.389,166.854,221.854,166.031,221.787z"/>
		<path d="M171.666,222.727c-0.442,0.004-0.555-0.324-1.127-0.188C170.547,221.973,171.873,221.992,171.666,222.727z"/>
		<path d="M74.023,224.979c0.402,1.668,0.729,4.287,0.564,6.572C74.354,229.404,74.082,227.298,74.023,224.979z"/>
		<path d="M165.656,226.105c-1.071,0.28-3.653-0.522-3.941-0.563C160.511,225.366,164,225.548,165.656,226.105z"/>
		<path d="M74.588,231.925c0.848,3.617,0.979,6.788,1.502,10.703C75.224,239.426,74.931,235.652,74.588,231.925z"/>
		<path d="M90.359,252.02c0.395,0.17,0.573,0.554,0.563,1.125C90.251,253.254,90.352,252.589,90.359,252.02z"/>
		<path d="M92.237,256.713c0.765-0.177,0.65,1.018,0.375,1.314C92.271,257.805,92.465,257.047,92.237,256.713z"/>
		<path d="M112.141,261.218c0.42,0.679-0.252,1.869-0.187,2.816C111.422,263.244,112.005,261.964,112.141,261.218z"/>
		<path d="M111.391,268.542c0.395,0.802-0.04,3.498,0.188,4.131C110.697,271.928,111.416,269.669,111.391,268.542z"/>
		<path d="M114.395,269.105c0.192,0.646,0.533,3.689,0.564,4.506C114.181,272.355,114.521,271.078,114.395,269.105z"/>
		<path d="M116.461,270.982c0.341,0.479,0.571,2.049,0.375,2.44C116.123,273.154,116.489,271.382,116.461,270.982z"/>
		<path d="M193.446,16.363c0.67,1.271,0.93,2.952,1.315,4.506C194.047,19.646,193.763,17.988,193.446,16.363z"/>
		<path d="M254.287,19.554c0.392,0.108-0.271,0.709-0.189,1.127c0.938-1.379,1.656-2.977,2.629-4.317
			c-1.308,4.495-4.848,8.96-6.945,14.458c-0.652,1.706-0.919,3.664-1.505,5.443c-1.547,4.717-4.014,9.926-5.633,14.647
			c-0.49,1.429-0.521,2.833-0.938,4.131c-0.484,1.509-1.466,2.674-1.69,4.507c-0.419,3.417,0.725,7.366,3.006,8.824
			c0.823,0.527,2.133,0.553,3.004,0.94c0.52,0.229,0.935,0.887,1.501,1.126c1.181,0.495,2.506,0.796,3.756,1.314
			c3.174,1.313,7.356,2.727,10.142,4.694c-1.24,0.918-2.477-0.544-3.756-1.127c-3.538-1.611-8.172-3.115-11.828-4.506
			c-4.793-1.824-7.525-4.992-6.761-11.079c-2.434,4.516-4.49,9.403-7.888,12.957c0.118-1.709,1.354-3.353,2.252-4.882
			c0.916-1.556,1.859-3.11,2.816-4.507c1.268-3.943,3.432-7.74,5.259-11.831c1.814-4.062,3.029-8.544,4.694-12.768
			c-2.046,2.585-3.753,7.137-5.446,10.703c0.011-0.521,0.215-1.24-0.374-1.877C245.242,38.427,249.721,28.947,254.287,19.554z"/>
		<path d="M107.822,30.257c0.786-0.563,3.136,0.474,4.509,0.564C111.106,31.102,109.115,30.531,107.822,30.257z"/>
		<path d="M112.517,30.821c0.731,0.257,2.365,0.267,3.38,0.75C115.554,31.994,113.192,31.308,112.517,30.821z"/>
		<path d="M199.457,38.52c2.539,4.909,3.294,11.601,5.443,16.899C202.292,50.176,201.478,44.139,199.457,38.52z"/>
		<path d="M151.386,39.458c1.084-0.828,1.641,1.298,2.253,1.878c0.997,0.944,2.963,1.643,4.694,2.442
			c4.567,2.108,9.314,4.788,13.707,7.321c4.379,2.527,9.024,5.067,13.333,7.887c1.916,1.256,3.772,1.723,4.882,3.381
			c0.288,0.099,0.011,0.196-0.188,0.188c-1.68-1.492-4.022-1.934-5.821-3.191c-0.335-0.235-0.412-0.856-0.752-1.126
			c-1.06-0.851-3.02-1.533-4.693-2.441c-4.305-2.333-9.371-5.512-13.707-7.698c-1.004-0.507-2.119-0.639-3.004-1.127
			c-0.849-0.466-1.443-1.242-2.253-1.688c-2.065-1.139-4.748-1.468-6.385-2.817c-0.407-0.335-0.701-1.202-1.126-1.689
			C151.964,40.356,150.849,40.146,151.386,39.458z"/>
		<path d="M41.727,45.091c6.677,2.704,13.824,4.759,20.091,7.887c7.771,3.877,14.567,8.454,19.904,14.834
			c0.997,1.19,1.786,2.321,2.629,3.567c2.23,3.298,3.969,7.114,6.572,10.141c2.646,0.417,4.458,1.812,7.135,2.628
			c-1.75-0.441-4.751-1.257-6.572-2.252c1.173,3.835,4.696,6.943,6.572,10.702c6.277,1.985,10.886,5.638,16.336,8.45
			c-0.511,0.185-1.181-0.285-1.688-0.563c-4.113-2.249-8.738-5.409-13.521-7.137c2.165,3.834,5.666,8.279,8.449,12.581
			c3.519,0.687,7.396,0.284,10.891,0.939c0.827,0.155,1.667,0.719,2.441,0.751c1.628,0.068,3.149-1.168,4.882-0.939
			c-0.514-1.051-2.051-1.078-3.005-1.689c1.387-0.413,2.413,1.114,3.756,1.502c1.8,0.521,3.911,0.146,5.82,0.376
			c3.832,0.462,6.365,2.38,8.638,4.131c1.53,0.078,2.854-0.137,3.943,0c-0.941-1.313-4.222-1.913-6.011-3.003
			c2.245,0.634,5.836,1.55,7.513,3.379c1.555,0.451,3.756,1.25,4.131,2.253c-1.344,0.52-2.693-1.223-4.506-1.689
			c-4.005-1.031-8.901,0.25-10.893,2.816c3.322,3.719,9.677,4.159,13.521,7.323c1.219,1.003,1.556,2.591,2.814,3.568
			c-1.561-0.337-1.881-2.232-3.004-3.192c-0.844-0.721-2.745-1.735-4.316-2.44c-1.523-0.683-3.09-1.456-4.508-2.065
			c-0.729-0.313-1.578-0.22-2.254-0.563c-1.767-0.896-2.699-2.673-4.316-3.567c-3.485-1.926-8.334-2.762-11.831-5.07
			c2.46,1.41,5.86,1.854,8.638,3.005c1.838,0.762,3.479,2.92,5.257,1.877c-2.212-1.73-5.276-2.607-7.696-4.131
			c2.525,0.603,5.381,2.504,8.072,3.568c0.648-0.229,1.098-0.657,1.69-0.939c-0.174-0.83-1.104-0.899-1.69-1.313
			c1.46,0.125,2.668,1.391,4.694,0.375c-2.046-2.5-7.124-4.357-11.642-3.944c1.157,0.989,2.837,0.421,4.131,0.752
			c0.983,0.251,2.045,0.911,3.004,1.314c1.009,0.423,2.186,0.726,2.814,1.502c-2.787-0.593-4.481-2.277-7.511-2.63
			c-0.2,0.275,1.024,0.722,1.503,0.939c-1.547-0.582-4.616-1.267-7.698-0.939c0.96-0.846,2.315-0.341,3.567-0.375
			c-2.061-2.202-4.764,0.221-7.324,0.188c-0.763-0.01-1.484-0.596-2.253-0.752c-3.334-0.679-7.254-0.275-10.89-0.938
			c1.352,2.101,6.009,1.049,8.261,1.877c4.132,1.521,7.714,5.037,12.771,5.258c2.066,0.592,3.618,2.306,5.444,3.191
			c3.37,1.638,6.454,2.436,8.825,5.07c1.5,1.668,2.476,3.406,4.694,4.507c-3.132-0.767-4.523-4.208-7.137-6.196
			c-2.087-1.588-4.699-1.968-7.136-3.381c-1.833,1.239-6.118,1.791-7.323-0.376c-3.01-0.773-6-0.668-8.263,1.315
			c-0.922,0.809-1.148,2.139-2.438,2.441c-3.103-3.972-5.512-8.636-8.45-12.77c-1.957-0.716-3.646-1.2-4.694-2.816
			c-1.341-2.061-1.002-5.146-2.253-7.511c-0.952,0.426-1.047,1.706-1.502,2.629c-0.3-0.867,0.515-2.236,1.126-2.817
			c-0.212-0.413-0.627-0.623-0.75-1.126c-1.292,1.524-1.344,4.288-2.629,5.82c-1.139,6.241,0.189,13.174,3.192,17.462
			c1.203,1.722,2.944,2.896,3.94,4.507c3.163,5.109,3.48,15.256,5.822,21.782c1.711,4.771,4.732,9.255,8.637,12.019
			c-8.736-3.607-9.849-15.715-12.392-26.664c-1.066-4.588-3.343-7.325-5.822-10.516c-3.476-4.478-5.404-13.238-3.566-19.341
			c1.188-0.816,1.371-3.918,2.44-5.446c-2.475-3.032-4.073-6.941-7.699-8.824C83.061,84.906,72,89.08,64.445,89.406
			c2.233,3.649,7.115,4.65,10.327,7.322c1.125-1.128,1.473-3.033,3.379-3.38c-3.896,2.233-5.078,11.148-1.126,14.083
			c0.017,0.885-0.053,0.847,0.751,1.502c0.563-1.877,1.172-3.709,2.441-4.882c-0.372,1.695-2.322,3.438-1.878,6.572
			c-0.331-0.045-0.429-0.323-0.375-0.75c-1.757,3.374,0.33,8.092,2.629,9.764c-2.589,0.35-3.692-3.401-4.319-6.196
			c-1.682,2.89-2.905,6.084-4.316,9.39c-3.805,8.895-6.855,19.614-8.826,30.981c-0.558,3.213-1.058,6.461-2.065,9.576
			c2.233-17.255,6.545-31.561,12.395-45.063c1.294-2.99,3.024-5.565,3.38-9.577c-0.989,0.648-1.65,1.83-2.253,2.817
			c-4.254,6.971-7.146,15.884-10.142,24.224c1.604-7.649,5.255-15.241,8.639-21.97c0.534-1.062,1.056-2.363,1.688-3.38
			c0.598-0.955,1.929-1.991,0.751-3.192c-4.905,6.583-8.283,14.564-11.267,23.097c-2.983,8.535-4.708,17.914-6.572,27.604
			c2.078-18.325,7.412-33.44,14.834-46.755c0.706-1.267,2.169-3.509,2.253-4.319c0.146-1.387-1.252-3.113-1.313-4.882
			c-0.052-1.439,0.511-2.021,0.563-3.379c-5.703,7.977-10.604,18.581-13.895,29.854c-0.674,2.306-0.623,4.99-1.877,7.135
			c3.009-14.892,8.682-27.118,15.584-38.117c-1.018-1.112-2.58-1.677-3.756-2.629c-3.674,4.714-6.848,9.928-9.576,15.585
			c-1.99,4.028-3.813,8.813-5.07,13.707c-0.402,1.565-0.63,3.204-1.313,4.507c2.43-13.907,8.581-24.09,15.209-33.799
			c-0.298-0.579-1.095-0.658-1.502-1.126c-5.009,5.319-7.985,12.668-11.643,19.341c2.696-7.382,6.467-13.688,10.893-19.341
			c-0.424-1.33-2.066-1.438-2.63-2.63c-3.246,2.138-5.394,5.373-8.072,8.075c1.633-3.062,4.96-6.055,7.696-8.638
			c-0.214-0.413-0.628-0.625-0.751-1.126c-5.524,3.111-9.263,8.012-12.204,13.707c-0.417-1.416,0.888-2.798,1.689-3.943
			c2.418-3.451,5.622-7.074,9.013-9.577c-2.867,0.07-4.432,2.285-6.009,3.755c-1.699,1.586-3.127,3.37-4.693,5.07
			c2.077-3.681,5.159-6.356,8.449-8.825c-4.355-1.122-6.319,1.505-8.637,4.318c-2.089,2.538-3.451,4.412-4.507,7.136
			c0.876,2.408,2.035,4.826,3.005,7.323c2.27,5.843,3.949,11.951,4.318,20.091c0.111,2.478,0.271,4.82,0.375,7.135
			c0.439,9.69-2.645,20.686-0.563,30.983c1.273-8.554,2.139-17.517,4.695-24.787c-2.354,11.468-6.584,27.337-2.066,40.185
			c0.107-12.367,2.008-24.328,4.883-34.927c-2.059,10.576-4.701,22.185-4.131,34.737c0.271,5.941,2.325,11.529,4.506,16.337
			c1.979,4.356,4.732,9.668,6.01,14.458c-0.72-15.925-2.317-36.054,2.63-49.197c-4.562,14.99-2.583,31.805-1.878,47.319
			c0.089,1.942-0.128,3.903,0,5.821c0.383,5.707,1.614,11.209,2.63,16.522c2.001,10.498,4.849,20.234,8.637,28.917
			c1.517,3.475,3.583,6.6,4.317,10.141c-0.079,0.805,1.392,0.726,0.938,1.313c-1.971,0.243-2.171-2.037-2.628-3.19
			c-3.669-9.291-8.125-19.002-10.892-29.481c-1.299-4.921-2.479-10.365-3.191-15.396c-0.735-5.174-0.76-9.572-1.878-13.707
			c-1.015-3.75-3.12-7.16-4.695-10.893c-4.521-10.71-7.768-21.684-9.013-34.55c-0.208-2.155-0.275-4.375-0.375-6.572
			c-0.432-9.498,1.013-17.198,0.938-25.913c-0.04-4.795-0.515-9.013-1.126-13.332c-1.72-12.105-8.79-20.861-11.643-31.732
			c-7.575-0.857-18.807-0.443-28.167-1.126c-1.232-0.091-2.353-0.65-3.567-0.751c-1.323-0.112-3.697,0.792-4.506-0.377
			c0.861-0.767,3.418-0.741,5.07-0.563c2.842,0.308,5.573,0.833,8.45,0.939c8.771,0.324,17.972,0.758,27.415,0.938
			c8.082,0.156,16.782,1.255,24.41,0.376c6.646-0.766,13.296-3.354,20.093-3.567c0.98,0.531,1.356,0.604,2.438,1.127
			c-0.442-1.874-3.994-1.699-5.819-1.69c-2.82,0.014-5.69,0.817-8.639,1.315c-5.793,0.978-11.307,1.521-17.087,2.064
			c-4.18,0.395-7.884,1.098-12.018,0c7.996,0.511,15.538-0.354,23.096-1.688c2.045-0.362,4.209-0.416,6.196-0.751
			c4.427-0.749,8.073-1.873,13.332-0.939c-0.047-0.828-0.764-0.989-0.938-1.689c-10.129-1.805-20.71,1.621-31.357,2.44
			c-9.445,0.729-17.724-1.592-26.288-1.503c10.083-0.232,20.276,2.103,29.854,0.751c8.892-1.253,17.85-3.384,27.04-2.253
			c-0.115-2.075-4.02-1.988-6.194-2.628c1.258-0.191,3.324,0.426,4.692,0.75c-0.213-3.037-6.062-3.662-9.013-3.38
			c2.417-0.966,5.924,0.199,7.886,0.938c-0.223-0.717-0.688-1.189-0.938-1.877c-5.854-1.539-12.549-0.718-19.719-1.314
			c6.152,0.054,12.137-0.486,18.967,0.563c-0.231-4.9-6.604-5.289-12.771-4.881c3.315-0.618,6.256-0.412,9.953,0.376
			c-0.859-3.353-6.627-4.365-10.516-4.694c2.73-0.543,5.463,0.682,7.887,1.503c-1.899-4.425-8.492-5.778-13.332-7.888
			c2.467,0.786,4.928,1.581,7.323,2.441c-5.753-5.889-16.487-8.424-25.727-11.455c5.545,0.588,10.421,3.475,15.773,4.883
			C56.836,51.464,49.117,48.44,41.727,45.091z M55.059,89.406c-4.788-0.675-8.742-0.6-13.708-0.751
			c0.948,4.561,2.875,8.142,4.694,11.831C48.445,96.189,51.184,92.229,55.059,89.406z M106.696,106.493
			c-0.271-1.042-1.72-0.909-2.253-1.689c0.728-0.208,0.668,0.663,1.126,0.188c-1.148-2.229-2.712-4.047-4.131-6.009
			C101.921,102.757,103.353,105.582,106.696,106.493z M115.146,116.821c-0.396,0.865,0.163,1.81,0.939,2.064
			c1.879-3.349,6.569-5.14,10.891-3.379c0.819,0.333,1.25,1.333,2.066,1.502c1.627,0.337,2.585-0.488,3.566-0.563
			c-2.7-3.56-9.759-2.76-12.582-6.196c-3.15-1.167-6.969-2.67-11.077-2.253C111.28,110.672,112.445,114.513,115.146,116.821z"/>
		<path d="M28.583,46.03c5.634,0.53,12.491,2.476,18.775,3.943C41.442,49.069,34.916,47.146,28.583,46.03z"/>
		<path d="M240.201,49.787c0.403,0.294-0.563,0.798-0.375,1.502c-0.203-0.046-0.126-0.374-0.375-0.376
			C239.419,50.254,240.086,50.295,240.201,49.787z"/>
		<path d="M236.445,55.42c-0.742,2.643-3.143,5.237-4.505,7.887c0.158-1.332,1.289-2.594,2.065-3.943
			C234.78,58.015,235.266,56.316,236.445,55.42z"/>
		<path d="M56.561,62.367c5.933-0.196,10.421,0.964,15.773,1.126C67.419,63.742,62.272,62.651,56.561,62.367z"/>
		<path d="M68.202,65.371c1.15-0.5,2.227,0.03,3.191,0C70.347,65.687,69.409,65.432,68.202,65.371z"/>
		<path d="M96.368,68.751c4.628,0.443,9.336,2.432,13.332,4.131C105.33,71.829,100.643,69.586,96.368,68.751z"/>
		<path d="M58.063,77.2c-0.699-0.26,0.554-0.027,0.375-0.375C61.156,76.766,59.135,77.159,58.063,77.2z"/>
		<path d="M46.233,77.389c2.334-0.049,6.458-0.362,9.576-0.375c2.765-0.066,0.743,0.289-0.938,0.375
			C51.994,77.536,48.597,77.691,46.233,77.389z"/>
		<path d="M143.876,83.398c2.55,0.33,5.37,2.016,8.073,2.815C149.356,85.927,146.43,84.348,143.876,83.398z"/>
		<path d="M152.888,86.777c-0.117-0.415,1.371,0.563,1.878,0.751C154.16,87.998,153.463,86.962,152.888,86.777z"/>
		<path d="M90.734,89.031c1.813,0.503,2.129,2.503,2.816,4.131C92.771,92.377,92.126,89.833,90.734,89.031z"/>
		<path d="M63.509,94.477c-2.388,3.871-5.642,8.505-7.887,13.144C57.589,102.578,60.091,98.068,63.509,94.477z"/>
		<path d="M128.479,96.917c0.179-0.257,2.307,0.663,3.004,1.126c0.335-0.053,0.386,0.178,0.188,0.188
			C130.596,97.803,129.533,97.363,128.479,96.917z"/>
		<path d="M112.893,101.987c-2.529-1.164-4.801-2.583-7.511-3.568c-0.708-0.737,3.095,0.937,3.567,1.502
			c0.572-0.136,0.552,0.324,1.126,0.188C110.729,101.021,112.233,101.081,112.893,101.987z"/>
		<path d="M132.046,98.419c9.273,3.12,18.186,8.229,26.852,12.581c0.401-0.087,0.358,0.27,0.376,0.563
			c5.315-2.65,11.884,1.049,13.896,5.634c0.32,0.007,0.484-0.141,0.563-0.375c0.118,0.883,0.765,1.24,1.502,1.502
			c-0.604,0.479-1.729-0.941-2.254-0.563c-0.55,0.159,0.113,0.604,0,0.938c0.824,0.803,2.958,0.298,3.756,1.126
			c-1.354,0.043-2.238-0.389-3.38-0.563c-0.434,0.387-0.129,1.622,0,2.065c-0.567-0.948-1.292-1.217-1.688-2.628
			c-0.302-0.739,0.811-0.065,0.751-0.563c0.08-0.393-0.129-0.498-0.188-0.751c-3.336-0.544-5.421-2.341-8.074-3.567
			c2.529,0.287,4.413,2.847,7.698,3.005c-2.645-3.691-5.918-6.351-11.079-4.883c-2.031,0.577-3.261,2.343-6.009,2.253
			c-1.22-0.04-3.252-0.303-3.38-1.502c2.404,1.192,5.95,0.392,7.511-0.938C150.658,106.594,141.32,102.538,132.046,98.419z
			 M172.793,120.014c0.157-0.612-0.318-1.541-0.752-0.938C172.363,119.315,172.273,119.968,172.793,120.014z"/>
		<path d="M110.639,124.708c1.066,0.546,3.062,0.498,4.694,0.188c-2.019,1.113-6.12,0.139-8.074,1.313
			c1.915,4.684,2.416,10.589,3.004,16.148c2.572-0.565,5.854-2.025,9.953-1.689c-1.377,0.663-3.524,0.324-4.507,0.939
			c1.788,0.384,3.501-0.424,5.068,0.375c1.688,0.859,2.534,3.438,4.508,3.756c-2.092,0.414-3.261-2.854-5.259-3.568
			c-3.166-1.13-6.512,0.688-9.013,1.689c0.137,2.117,0.741,3.766,1.69,5.07c4.021,4.428,9.167,7.731,12.204,13.145
			c-1.204-1.862-3.088-3.047-4.132-5.07c-3.734-4.087-9.938-5.709-9.951-13.52c0.658-0.342,1.325-0.676,2.064-0.938
			c-1.051-0.606-1.684,0.815-3.004,0.563c-0.864-5.675-0.832-12.791-3.568-17.086c1.201-0.49,2.619-0.763,4.132-0.94
			c-1.072-0.563-3.543,0.082-4.132,0c-1.384-1.929-2.61-3.916-4.131-5.82c-1.534-1.925-3.81-4.152-4.507-6.571
			c-0.875-3.041-0.373-7.35-0.187-11.079c0.375,2.423,0.048,3.746,0.187,6.196c0.438,7.665,6.068,11.05,8.826,16.712
			c2.484-0.183,5.523-0.24,9.014-0.563C113.988,124.454,112.436,124.966,110.639,124.708z M113.08,142.359
			c0.841-0.037,1.548-0.205,1.879-0.752C114.117,141.645,113.41,141.813,113.08,142.359z"/>
		<path d="M136.928,107.057c-1.346,0.028-3.02-1.236-4.319-1.878C133.242,105.132,135.644,106.508,136.928,107.057z"/>
		<path d="M166.971,106.118c5.306,2.956,10.655,7.496,15.961,11.079c-1.592-0.292-2.646-1.731-3.943-2.629
			C175.153,111.917,170.892,108.938,166.971,106.118z"/>
		<path d="M165.656,107.808c2.186,1.01,4.947,3.064,7.322,4.508C170.68,111.422,167.931,109.354,165.656,107.808z"/>
		<path d="M132.797,109.498c0.598-0.154,2.003,0.497,2.439,1.126C134.378,110.295,133.589,109.895,132.797,109.498z"/>
		<path d="M174.107,113.441c2.188,0.521,4.665,2.348,6.57,3.381c2.973,1.605,3.547,4.572,4.884,8.261c0.313,0,0.625,0,0.938,0
			c-0.458,0.698,0.499,0.559,0.752,0.751c-0.909,1.92-2.734-0.427-3.381-1.126c-0.271-5.086-2.825-7.438-7.138-7.699
			c-0.854-0.052-2.404,0.712-2.439-0.752c1.554-0.01,2.317-0.232,3.757,0C177.601,115.203,175.556,114.122,174.107,113.441z"/>
		<path d="M90.172,137.476c-0.442-0.87-0.792-1.836-1.689-2.253c-1.604,1.525-1.731,4.526-2.629,6.761
			c0.147-2.043,1.239-4.771,1.878-6.947c-0.43-0.197-0.666-0.586-1.313-0.563c-1.002,2.44-1.569,5.315-2.065,8.262
			c-0.308-2.643,1.14-5.403,1.502-8.449c-0.231-0.394-0.546-0.706-0.938-0.939c-1.349,2.909-1.214,7.3-2.63,10.141
			c0.14-4.353,3.616-9.417,0.751-12.77c-1.593,1.351-3.071,2.813-3.755,5.07c-0.118-2.374,2.094-4.041,3.566-5.446
			c-0.601-1.526-1.094-3.162-1.502-4.883c-3.416,8.18-6.148,17.99-7.323,27.791c-0.215-5.085,1.594-11.033,3.192-16.336
			c1.293-4.289,2.089-8.674,3.942-12.205c-0.334-1.085-0.559-2.708-0.188-3.943c-8.862,15.892-14.086,37.323-15.021,59.899
			c-0.471-2.084-0.243-5.008,0-7.511c1.893-19.373,6.388-37.482,14.083-51.074c0.042-1.273,0.64-1.99,1.313-2.629
			c0.688-1.379,1.007-3.124,2.629-3.567c-3.011,3.2-2.357,9.603-0.376,13.521c1.239-0.819,2.426-1.342,3.38-2.253
			c3.886-3.713,3.704-10.757,8.451-13.521c-0.565,2.724-3.882,4.561-4.131,8.45c-0.241,3.745,1.771,7.266,0.938,11.079
			c-0.478,2.186-1.805,4.221-0.938,6.947c-0.792-0.084-0.509-1.243-0.751-1.877c-1.343,0.722-1.342,2.79-2.441,3.756
			C88.249,141.415,89.449,138.711,90.172,137.476z M84.352,131.28c1.308,2.385,4.963,2.423,6.384,4.693
			c2.026-3.639,0.827-9.681,0-13.708c-0.938,4.005-4.847,5.042-6.759,8.075c2.204-0.497,3.584-3.418,5.633-4.693
			c0.241,0.321,0.896,0.232,0.939,0.75c-0.099,3.046,0.407,6.471,0,8.262c-0.61-2.125-0.332-5.646-0.751-8.45
			C87.837,127.755,85.813,129.237,84.352,131.28z"/>
		<path d="M102.189,113.817c1.933,0.955,4.375,1.729,6.948,1.502c0.055,1.51,1.462,1.668,1.314,3.38
			c-0.52-0.67-1.1-1.736-1.502-3.005C106.241,115.329,103.688,115.604,102.189,113.817z"/>
		<path d="M163.591,114.568c2.146,0.73,3.651,2.105,6.009,2.629c1.873,2.759,2.744,6.52,3.568,10.328
			c-1.206-2.187-1.591-6.52-3.005-8.639c-0.902-0.088-0.479,1.147-1.503,0.939c0.342-0.411,0.309-1.195,1.127-1.126
			C168.731,116.313,165.234,116.368,163.591,114.568z"/>
		<path d="M183.684,118.136c2.326,1.242,5.025,3.736,7.324,5.634c-0.072,0.894,0.445,1.403-0.189,1.877
			c4.66,1.073,5.842,2.755,5.822,8.073c-0.005,0.765,0.322,1.021,0.188,1.878c0.004,0.685,0.977,0.399,0.751,1.314
			c-2.113-0.94-1.438,2.893-3.193,2.253c0.177-0.576,0.96-0.543,1.126-1.127c-0.505-0.708-0.104-1.081,0.189-1.878
			c-0.031-0.531-0.347-0.782-0.377-1.314c2.034-5.175-2.854-9.783-8.072-7.697c0.39-1.174,1.484-1.644,3.189-1.502
			c-0.72-1.14-1.325-2.507-2.629-3.192c-1.025-0.542-2.975-0.107-3.189-1.69c0.73-0.501,1.25,0.55,2.252,0.375
			C186.042,119.909,184.772,119.112,183.684,118.136z"/>
		<path d="M155.518,129.778c0.365,0.698,0.452,1.677,0.563,2.628c-0.586-0.416-0.388-1.617-0.751-2.253
			c-1.739,0.765-2.503,2.505-3.756,3.755C152.108,132.487,153.663,130.501,155.518,129.778z"/>
		<path d="M156.268,130.341c1.004,0.623,0.686,2.57,2.066,2.816c-0.146,0.167-0.202,0.424-0.188,0.75
			c-0.499-0.518-0.658,0.139-1.126,0.188C158.331,132.99,156.267,131.848,156.268,130.341z"/>
		<path d="M138.616,132.03c-0.283,0.68-1.127-0.036-1.688,0.563C136.666,132.37,138.117,131.521,138.616,132.03z"/>
		<path d="M81.723,134.847c-1.624,8.518-4.002,17.905-4.882,27.792C77.199,152.857,79.604,143.494,81.723,134.847z"/>
		<path d="M129.604,137.476c-1.409,0.845-3.424,1.083-4.316,2.441C125.787,138.275,128.367,137.763,129.604,137.476z"/>
		<path d="M87.355,150.057c0.544-0.348,1.104,0.896,1.69,1.127c0.584-2.389-1.251-2.843-1.878-4.507
			c0.991,0.261,1.005,1.499,1.878,1.878c0.396-0.479,0.022-1.729,0.563-2.063c-0.563-0.814-1.381-1.374-1.688-2.442
			c1.01,0.182,1.012,1.368,1.878,1.69c0.602-1.339,0.044-2.017-0.75-2.817c0.464-0.968,0.738,0.674,1.313,0.75
			c0.455-0.546,0.366-1.636,0.939-2.064c0.171,3.006-2.284,7.031-0.751,11.267c1.229,3.401,3.828,7.05,9.013,5.633
			c-2.417,1.417-6.056,0.017-7.322-1.502c-2.084,4.501-1.573,13.506,3.942,14.646c1.335-0.793,0.898-3.357,2.817-3.567
			c-1.993,2.582-1.453,8.147,0.938,9.765c0.954-0.522,0.917,0.916,2.066,0.75c0.352,0.357,0.02,0.474,0,0.939
			c0.989,0.074,1.521,0.605,2.628,0.563c-2.843,0.877-5.481-1.635-7.135-3.19c-1.838,1.967-1.493,6.382,0.187,8.262
			c1.681,1.411,2.382,1.573,4.507,2.628c0.755-1.113-0.557-2.639,0-3.566c1.034,1.145,1.319,2.664,1.126,4.132
			c-0.225,1.725-1.604,3.269-0.375,5.444c1.913,3.385,9.313,2.857,12.205,0.563c-0.956,1.297-3.021,1.483-4.316,2.44
			c1.052,1.641,1.732,3.647,3.565,4.508c0.442-0.422,0.818,0.154,1.315,0.188c1.402,0.09,2.762-0.699,3.379-0.563
			c-1.248-2.163-2.113-6.844-0.563-9.766c-1.104,6.155,1.246,10.938,6.572,10.142c1.151-0.173,1.373-0.974,2.629-0.751
			c1.094-0.408,1.496-1.51,2.629-1.879c-1.849,2.006-3.455,4.022-7.322,3.567c-3.133,5.753,4.973,11.313,9.765,8.074
			c2.522,0.657,4.245-2.246,6.009-1.69c-0.683,1.26-2.673,1.209-3.755,2.066c1.729,5.992,11.587,9.796,16.712,5.257
			c-0.521-0.565-1.771,0.718-2.442,0c1.593-2.172,3.572-0.336,5.07,0.376c4.396,2.088,9.049,1.189,12.581-1.313
			c1.342-0.951,2.127-2.245,4.131-3.004c-0.435-0.977-1.945-1.768-1.313-3.192c3.293,5.935,14.646,3.719,14.271-4.131
			c-1.762-1.368-5.143-1.117-5.068-4.319c0.656,1.6,1.295,2.164,3.005,2.442c0.853,0.138,1.747,0.84,2.44,0.938
			c5.742,0.818,9.824-5.309,8.638-11.455c1.007,0.119,0.688,1.566,0.752,2.629c4.922-1.715,11.82-6.773,7.696-12.394
			c-1.951,0.339-2.378,2.429-3.565,3.005c-0.146,0.707,0.229,0.896,0.188,1.502c-1.127-0.587-0.413-2.338-0.188-2.814
			c0.726-1.543,3.179-2.41,4.317-3.568c0.858-0.873,1.275-2.752,1.878-4.131c0.057-0.127,0.534-0.114,0.563-0.188
			c1.215-3.123,2.434-9.488-2.629-9.39c-1.002,0.021-1.193,0.497-2.252,0.75c0.718-1.032,2.717-1.58,4.132-1.313
			c1.488-2.346-0.482-5.15-2.067-6.195c3.059,0.332,4.153,3.183,3.193,6.385c3.651,4.475,0.076,12.463-3.006,15.396
			c0.941,1.09,1.838,2.898,1.88,3.941c0.21,5.452-6.046,7.729-9.578,9.953c-1.172,4.961-3.771,8.497-9.389,9.014
			c0.281,1.808-0.229,2.896-0.938,4.131c0.49,0.824,1.335,1.293,2.255,1.689c-0.891,0.444-1.519-0.982-2.44-1.127
			c-2.516,2.51-5.135,4.016-9.391,3.755c-1.849-0.112-3.703-0.694-5.258,0.563c-0.394,0.318-0.202,0.725-0.563,1.127
			c-1.338,1.49-4.689,2.941-7.137,3.379c-3.06,0.548-5.692-0.635-8.638-2.064c-1.745,1.195-3.441,2.439-6.196,2.627
			c-0.235,0.047-0.188,0.375,0,0.377c-6.739-1.646-14.941-3.459-21.78-5.634c4.522,1.485,10.079,1.938,14.458,3.568
			c-1.566-1.563-4.401-3.485-5.258-6.386c-5.713,3.818-14.851-1.178-12.019-8.637c-0.368-0.636-1.646-0.355-2.065-0.938
			c-1.389,0.317-2.51,0.882-3.756,0.938c-3.587,0.159-4.999-2.562-6.759-5.07c-5.123,0.351-10.504-3.482-7.136-8.824
			c-5.333,0.479-9.183-6.707-5.82-11.455c-2.265-2.367-4.526-4.736-6.195-7.699c2.394,2.24,3.764,5.501,6.76,7.137
			c0.087-0.875-0.496-1.683-0.375-3.006c-0.729-0.476-2.688-1.326-3.756-2.253c-2.521-2.186-2.598-7.358-5.444-9.389
			c0.919,0.708,1.539,1.716,2.44,2.44c0.823-3.519-2.571-5.058-3.756-7.697c1.192,0.748,2.305,3.203,3.756,4.318
			c1.269-1.431-0.148-2.625-0.563-3.943c0.506,0.369,0.896,0.854,1.126,1.503c0.331-0.169,0.312-0.691,0.751-0.751
			C90.611,154.438,89.193,152.036,87.355,150.057z"/>
		<path d="M85.478,142.17c0.088,2.656-1.385,5.374-1.688,8.262C83.672,147.75,85.002,144.889,85.478,142.17z"/>
		<path d="M97.871,142.546c2.384,0.856,6.678,2.454,7.511,5.07c0.586,1.842-0.149,4.487,0.376,6.571
			c0.28,1.111,1.158,1.614,1.313,2.816c-2.642-2.007-1.221-5.68-2.064-9.013c-0.456-1.8-4.444-4.369-6.759-4.884
			c-1.238,1.143-1.928,2.832-2.63,4.508C95.636,145.943,97.024,144.016,97.871,142.546z"/>
		<path d="M61.817,144.611c0.292,0.427-0.541,1.328-0.376,2.253C60.725,146.381,61.553,145.238,61.817,144.611z"/>
		<path d="M138.806,146.677c0.378-0.243,1.167,0.703,1.502,1.126C139.697,148.277,139.486,146.754,138.806,146.677z"/>
		<path d="M156.644,147.992c0.913,1.09,1.139,2.867,2.253,3.755C157.172,151.469,157.283,149.355,156.644,147.992z"/>
		<path d="M185.185,149.494c1.936-0.055,4.246,1.135,5.634,2.253C189.586,151.1,187.23,149.954,185.185,149.494z"/>
		<path d="M128.479,152.873c-0.733-0.178-0.16-0.947-0.188-1.502c0.659-1.216,1.413-1.889,0.188,0.188
			C128.479,151.998,128.479,152.436,128.479,152.873z"/>
		<path d="M85.666,151.559c0.78,0.597,1.013,1.742,1.878,2.254C86.894,153.832,86.033,152.447,85.666,151.559z"/>
		<path d="M102.189,156.629c-0.056,0.824-1.51,1.868-1.688,3.191C100.022,158.464,101.496,157.439,102.189,156.629z"/>
		<path d="M129.418,157.193c0.755-0.25,0.771,1.852,2.063,1.688C130.289,159.568,129.912,157.828,129.418,157.193z"/>
		<path d="M167.347,158.693c-2.724-0.842-8.458-0.021-10.14,0.938C159.412,157.927,164.447,157.563,167.347,158.693z"/>
		<path d="M167.534,159.07c1.83-0.141,3.734,1.271,4.317,3.004C170.82,160.666,169.581,159.464,167.534,159.07z"/>
		<path d="M85.854,159.445c0.579,0.484,1.18,0.949,1.314,1.878C86.76,160.667,86.137,160.229,85.854,159.445z"/>
		<path d="M139.556,160.76c-1.651,0.915-3.538,1.596-3.004,4.694C135.182,162.979,137.574,161.125,139.556,160.76z"/>
		<path d="M168.285,163.952c0.962-0.147,1.363,0.263,2.254,0.188c-0.244-1.26-1.26-1.746-1.502-3.006
			c1.557,2.199,3.245,4.266,3.566,7.699c0.23-0.082,0.385-0.241,0.374-0.563c0.261,0.642-0.479,1.891-0.187,3.19
			c-0.178-0.138-0.285-0.341-0.376-0.563c-1.557,3.203-4.147,6.367-5.635,9.014c-3.512,1.339-10.354,1.133-12.58-1.502
			c1.756,0.898,3.486,2.066,7.136,2.066c1.453,0,2.897-0.303,4.317-0.377c2.992-2.328,4.316-6.324,6.572-9.39
			c0.27-1.115-0.025-2.999-0.563-4.319c-0.424,0.256-0.178,1.413,0.188,1.504c-0.184,0.525-0.501-0.271-0.751,0.188
			c-0.396,2.983-1.438,5.319-2.628,7.511c0.158-2.374,2.631-4.773,1.126-7.887c-1.591,2.791-2.604,6.159-4.507,8.638
			c-0.055,0.503,0.729-0.499,0.563,0.376c-2.228,0.275-3.784,1.223-5.819,1.689c0.234-0.516,2.571-0.721,1.688-1.126
			c2.98,0.409,4.849-3.573,6.196-6.761c1.127-2.662,2.757-5.498-1.126-6.195c1.007-1.23-2.427-2.008-3.005-2.253
			c0.331-0.568,2.173,0.308,3.566-0.188C167.4,162.71,167.969,163.206,168.285,163.952z M165.469,162.637
			c1.037,0.217,1.417,1.088,2.439,1.314C167.894,162.869,166.379,161.614,165.469,162.637z M170.539,166.77
			c-0.511-0.117-0.469-0.783-1.126-0.75c0.302,1.198,0.46,2.545,1.126,3.379c0.087-1.924,0.901-2.861,0.376-4.883
			c-0.564-0.25-1.438-0.189-2.255-0.188C168.754,165.675,170.264,165.604,170.539,166.77z"/>
		<path d="M155.893,163.2c-0.02,1.69-1.858,2.975-1.877,4.883c-0.024,2.558,2.331,4.136,4.506,5.069
			c-1.938,0.062-3.436-1.945-4.506-3.379c-0.333,2.684,1.913,6.301,4.13,5.819c0.279,0.082-0.074,0.24,0,0.563
			c0.799,0.33,2.124,0.13,2.442,0.938c-1.671-0.725-3.255-0.599-4.319-1.688c-0.459,0.021-0.039,0.621,0.188,0.563
			C152.928,173.891,152.69,166.294,155.893,163.2z"/>
		<path d="M136.552,166.205c0.452,0.925,1.557,1.197,2.253,1.878C137.79,167.721,136.646,167.486,136.552,166.205z"/>
		<path d="M83.037,167.707c-0.185-0.005-0.146-0.229-0.188-0.375c3.52,4.807,7.198,9.452,10.893,14.083
			c-2.275-1.788-3.896-4.319-5.634-6.572C86.335,172.543,84.281,170.438,83.037,167.707z"/>
		<path d="M151.386,168.459c1.092,2.414,0.11,6.9,2.44,8.074c-1.043,0.344-2.267-2.635-2.44-4.694
			C151.292,170.717,151.66,169.475,151.386,168.459z"/>
		<path d="M82.474,171.275c5.529,8.555,11.565,16.601,18.589,23.66c-5.05-3.59-8.902-10-13.332-14.836
			C86.108,177.029,83.824,174.618,82.474,171.275z"/>
		<path d="M149.884,172.59c1.312,5.813,6.161,8.699,12.205,9.2C155.842,181.652,150.708,178.775,149.884,172.59z"/>
		<path d="M81.723,174.655c4.802,7.463,9.913,14.458,15.773,20.843c4.411,4.807,8.774,9.482,13.706,13.896
			c1.58,1.412,3.475,2.543,4.694,4.316C102.599,202.598,90.464,190.325,81.723,174.655z"/>
		<path d="M82.66,179.912c-0.001-1.092,0.847,0.982,1.314,1.689c4.074,6.172,9.085,11.836,13.896,17.463
			c4.03,4.717,8.912,9.162,13.896,13.145c1.666,1.332,3.097,2.908,4.694,4.131c2.564,1.965,5.532,3.532,8.262,5.446
			c7.791,5.46,16.55,10.987,25.725,15.209c-1.603,0.233-3.341-1.136-5.068-2.065c-18.477-9.93-34.999-21.826-48.821-36.803
			c-5.146-5.575-9.905-11.709-13.896-18.025C82.66,180.038,82.66,179.977,82.66,179.912z"/>
		<path d="M183.684,180.479c0.129,1.069-1.141,2.361-1.877,3.19C181.716,183.355,183.299,181.555,183.684,180.479z"/>
		<path d="M140.119,191.555c-4.528,2.438-13.604,0.223-11.268-5.258C128.106,192.414,135.177,192.909,140.119,191.555z"/>
		<path d="M77.027,189.489c9.235,25.754,24.5,45.476,42.249,62.716C101.116,235.377,85.675,215.832,77.027,189.489z"/>
		<path d="M205.651,192.307c4.106,1.715,8.239,5.029,12.205,7.512C214.014,197.84,209.852,194.555,205.651,192.307z"/>
		<path d="M96.181,200.005c-2.275-1.543-4.438-4.823-6.384-7.323c-0.289-0.1-0.013-0.195,0.188-0.188
			C91.765,195.282,93.989,197.627,96.181,200.005z"/>
		<path d="M202.273,193.809c2.394,0.426,4.438,2.822,6.946,3.756C206.844,197.123,204.636,194.889,202.273,193.809z"/>
		<path d="M96.368,200.756c0.32-0.531,1.817,1.975,0.938,0.938C96.948,201.428,96.636,201.114,96.368,200.756z"/>
		<path d="M194.011,201.318c0.847,0.718,1.61,1.519,2.63,2.064C195.815,203.393,194.41,202.359,194.011,201.318z"/>
		<path d="M77.027,202.82c5.579,16.953,11.326,33.74,20.092,47.507c-1.421-0.989-2.368-3.058-3.38-4.884
			C86.895,233.077,81.201,218.045,77.027,202.82z"/>
		<path d="M196.827,203.76c1.192-0.064,2.226,1.652,3.566,2.065C199.189,205.902,197.969,204.373,196.827,203.76z"/>
		<path d="M140.871,204.511c0.563-0.116,2.312,0.188,2.629,0.938C142.572,205.188,141.798,204.773,140.871,204.511z"/>
		<path d="M200.771,206.389c0.482-0.187,3.612,2.08,1.503,0.75C201.942,206.932,201.337,206.734,200.771,206.389z"/>
		<path d="M186.5,211.271c-0.071-0.504,0.843-0.053,0.938,0c1.523,0.808,3.509,2.688,5.068,3.566
			C190.766,214.141,188.633,212.205,186.5,211.271z"/>
		<path d="M175.984,214.464c1.667,0.526,3.353,2.657,5.07,3.755C179.426,217.656,177.668,215.598,175.984,214.464z"/>
		<path d="M181.241,218.594c0.938-0.06,1.883,1.495,3.005,1.879C183.228,220.611,182.29,219.051,181.241,218.594z"/>
		<path d="M138.43,218.782c1.118,0.384,2.27,0.737,3.568,0.938C140.986,219.977,139.072,219.52,138.43,218.782z"/>
		<path d="M78.529,220.284c1.038,3.093,0.977,7.288,1.877,10.516C79.291,227.785,79.165,223.781,78.529,220.284z"/>
		<path d="M137.678,220.473c-0.107-0.525,1.357,0.311,2.065,0.188C139.133,221.258,138.42,220.366,137.678,220.473z"/>
		<path d="M150.071,220.473c0.609-0.414,1.53,0.465,2.254,0.563C152.944,221.491,150.686,220.593,150.071,220.473z"/>
		<path d="M184.436,221.035c1.381,0.168,2.671,2.183,1.126,0.938C185.345,221.799,185.05,221.141,184.436,221.035z"/>
		<path d="M163.216,221.411c0.46-0.568,1.222,0.142,1.877,0C164.666,221.947,163.993,221.146,163.216,221.411z"/>
		<path d="M145.002,222.161c0.167-0.534,1.782,0.544,2.629,0.563C146.841,223.195,145.978,222.13,145.002,222.161z"/>
		<path d="M79.845,242.254c-1.623-4.072-2.236-9.154-3.192-13.896c0.148-2.213-0.421-3.709-0.375-5.82
			c0.065-0.628,0.513,2.333,0.564,2.816c0.505,4.637,1.297,10.354,2.44,14.646c0.507,1.615,1.321,4.176,1.877,6.383
			c0.072,0.292,0.68,1.792,0,0.751c-0.061-0.629-0.192-1.183-0.563-1.502C80.563,244.29,79.837,243.639,79.845,242.254z"/>
		<path d="M148.007,223.1c-0.313-0.492,0.943,0.168,1.502,0c0.046,0.205,0.374,0.129,0.375,0.377
			c0.696-0.134,0.805,0.32,1.502,0.188C151.987,224.447,148.988,223.15,148.007,223.1z"/>
		<path d="M151.386,240.376c0.836,0.666,1.01,1.994,1.502,3.004C152.282,242.484,151.781,241.482,151.386,240.376z"/>
		<path d="M76.089,243.38c0.526,0.788,0.464,2.165,0.751,3.192C76.271,245.827,76.318,244.464,76.089,243.38z"/>
		<path d="M76.841,246.948c0.658,1.72,1.097,3.659,1.502,5.633C77.558,250.988,77.144,249.023,76.841,246.948z"/>
		<path d="M81.534,247.887c0.841,1.162,1.222,2.785,1.878,4.133C82.701,251.475,81.888,249.412,81.534,247.887z"/>
		<path d="M88.857,248.074c0.377,0.25,0.419,0.833,0.564,1.313C89.427,249.523,88.359,248.468,88.857,248.074z"/>
		<path d="M83.6,252.77c1.399,3.172,2.946,6.191,4.318,9.389C86.221,259.287,84.722,256.216,83.6,252.77z"/>
		<path d="M79.093,255.585c0.729,1.272,1.232,2.772,1.503,4.507C79.98,258.705,79.521,257.16,79.093,255.585z"/>
		<path d="M80.971,261.594c0.564-0.183,0.779,1.596,1.127,2.254C81.339,263.48,81.518,262.174,80.971,261.594z"/>
		<path d="M91.299,262.157c0.934,1.194,1.699,2.558,2.252,4.131C92.527,265.186,92.018,263.566,91.299,262.157z"/>
		<path d="M88.482,263.66c0.599,0.095,1.241,1.76,1.689,2.628C89.214,265.809,89.234,264.348,88.482,263.66z"/>
		<path d="M93.552,266.477c1.528,1.854,2.562,4.198,4.131,6.01C95.936,271.604,94.832,268.452,93.552,266.477z"/>
		<path d="M173.731,4.908c0.437,1.7-1.271,3.226-2.254,4.881c-2.365,3.988-4.617,10.181-8.449,13.333
			c-1.061,0.873-4.71,2.663-6.57,3.005c-9.699,1.779-17.419-3.574-27.229-4.883c3.641,3.232,7.083,7.967,10.141,12.581
			c1.667,2.515,3.641,5.196,4.132,8.075c-0.688,0.208-1.618-2.408-2.441-3.381c-3.505-4.139-10.34-6.657-16.899-8.449
			c-6.75-1.844-13.921-3.788-20.468-4.507c3.267-0.22,6.728,0.608,9.953,1.313c9.531,2.085,19.404,4.562,26.103,9.764
			c-2.007-2.649-5.685-4.637-9.016-6.195c-10.518-4.923-24.724-7.403-38.306-8.639c8.27-0.146,16.742,1.568,24.599,3.568
			c7.853,1.998,15.141,4.949,21.03,8.638c0.123-0.815-1.348-1.653-1.502-2.816c-7.711-3.933-16.678-6.605-25.351-9.577
			c7.244,1.669,16.554,4.912,23.849,8.262c0.41-0.668-1.105-1.018-0.939-2.065c-6.755-4.199-15.067-6.838-23.658-9.201
			c7.574,0.977,15.576,4.503,22.156,7.699c-1.331-2.487-4.125-3.513-5.634-5.822c-3.263-0.713-6.066-3.104-9.576-4.318
			c-3.152-1.091-7.442-1.679-11.266-2.44c-5.748-1.146-10.88-1.254-17.087-1.502c-9.648-0.385-20.122,0.234-30.232,1.316
			c-0.954,0.102-1.889,0.435-2.814,0.563c-10.566,1.476-20.554,2.303-30.42,4.317c-1.169,0.239-2.422,1.246-3.567,0.563
			c-0.061-0.436,0.029-0.721,0.188-0.938c13.502-2.283,28.098-5.161,43-6.009c7.552-0.43,14.604-1.12,22.722-0.75
			c3.495,0.158,6.629,0.232,9.764,0.375c9.655,0.439,18.325,2.416,25.727,6.009c3.588,1.742,7.218,3.036,12.205,4.131
			c4.322,0.95,8.764,2.787,13.145,3.381c5.961,0.808,12.522-1.107,15.396-4.695c0.813-1.012,1.413-2.468,2.253-3.755
			c2.382-3.646,4.616-8.41,6.947-12.018C173.573,4.691,173.69,4.762,173.731,4.908z"/>
	</g>
</g>
<g>
	<path d="M270.106,191.214c0-0.579,0.083-1.1,0.247-1.562c0.166-0.463,0.396-0.854,0.693-1.178c0.297-0.322,0.647-0.57,1.057-0.742
		c0.406-0.172,0.853-0.258,1.336-0.258c0.491,0,0.906,0.094,1.243,0.28s0.612,0.392,0.825,0.61l-0.528,0.583
		c-0.184-0.19-0.395-0.351-0.633-0.479s-0.537-0.191-0.896-0.191c-0.366,0-0.696,0.067-0.989,0.203
		c-0.294,0.137-0.545,0.33-0.754,0.584c-0.209,0.252-0.371,0.559-0.484,0.918c-0.113,0.358-0.17,0.763-0.17,1.209
		c0,0.455,0.053,0.863,0.159,1.228c0.105,0.363,0.261,0.673,0.462,0.929c0.201,0.258,0.451,0.455,0.748,0.594
		c0.297,0.14,0.64,0.209,1.028,0.209c0.257,0,0.503-0.039,0.736-0.115c0.234-0.077,0.426-0.182,0.572-0.313v-1.882h-1.529v-0.759
		h2.365v3.036c-0.234,0.235-0.547,0.433-0.936,0.594c-0.39,0.161-0.824,0.242-1.31,0.242c-0.477,0-0.913-0.084-1.309-0.253
		c-0.396-0.168-0.738-0.413-1.023-0.731c-0.286-0.319-0.51-0.711-0.672-1.177C270.188,192.327,270.106,191.801,270.106,191.214z"/>
	<path d="M277.201,186.99h0.901v6.82c0,0.146,0.025,0.25,0.076,0.308c0.052,0.059,0.111,0.088,0.177,0.088c0.029,0,0.058,0,0.083,0
		s0.063-0.007,0.115-0.022l0.121,0.683c-0.059,0.028-0.129,0.051-0.209,0.065c-0.081,0.016-0.185,0.022-0.31,0.022
		c-0.345,0-0.59-0.103-0.735-0.308c-0.147-0.207-0.221-0.506-0.221-0.902L277.201,186.99L277.201,186.99z"/>
	<path d="M279.742,193.436c0-0.586,0.262-1.035,0.785-1.347c0.524-0.312,1.358-0.53,2.503-0.655c0-0.168-0.017-0.332-0.05-0.494
		c-0.031-0.162-0.092-0.305-0.176-0.43c-0.085-0.125-0.196-0.226-0.335-0.302c-0.141-0.077-0.32-0.116-0.539-0.116
		c-0.315,0-0.606,0.059-0.875,0.176c-0.268,0.118-0.508,0.25-0.721,0.396l-0.363-0.627c0.25-0.161,0.555-0.316,0.914-0.467
		c0.358-0.15,0.754-0.227,1.188-0.227c0.651,0,1.125,0.2,1.419,0.6c0.293,0.4,0.439,0.934,0.439,1.602v3.278h-0.748l-0.078-0.638
		h-0.021c-0.257,0.213-0.533,0.395-0.83,0.545c-0.297,0.149-0.611,0.225-0.941,0.225c-0.454,0-0.83-0.132-1.127-0.396
		S279.742,193.92,279.742,193.436z M280.633,193.37c0,0.308,0.09,0.528,0.27,0.659c0.181,0.133,0.402,0.199,0.666,0.199
		c0.257,0,0.5-0.061,0.73-0.182s0.476-0.299,0.731-0.533v-1.486c-0.446,0.06-0.824,0.129-1.133,0.209
		c-0.309,0.082-0.557,0.177-0.743,0.287c-0.187,0.109-0.32,0.235-0.4,0.379C280.674,193.045,280.633,193.202,280.633,193.37z"/>
	<path d="M285.638,189.477h0.748l0.077,0.77h0.033c0.256-0.256,0.524-0.471,0.809-0.645c0.281-0.172,0.61-0.258,0.984-0.258
		c0.563,0,0.977,0.176,1.236,0.528c0.262,0.353,0.392,0.873,0.392,1.562v3.389h-0.902v-3.268c0-0.506-0.081-0.871-0.241-1.094
		c-0.162-0.225-0.418-0.335-0.771-0.335c-0.278,0-0.524,0.069-0.737,0.209s-0.455,0.345-0.726,0.616v3.872h-0.902V189.477
		L285.638,189.477z"/>
	<path d="M291.27,192.16c0-0.434,0.064-0.823,0.193-1.171c0.128-0.349,0.299-0.644,0.512-0.886c0.212-0.242,0.457-0.43,0.736-0.562
		c0.278-0.132,0.571-0.198,0.88-0.198c0.308,0,0.575,0.055,0.804,0.165c0.228,0.11,0.457,0.261,0.692,0.451l-0.044-0.913v-2.057
		h0.913v7.832h-0.748l-0.077-0.627h-0.033c-0.213,0.205-0.456,0.383-0.73,0.533s-0.569,0.226-0.887,0.226
		c-0.674,0-1.211-0.242-1.61-0.726C291.47,193.744,291.27,193.055,291.27,192.16z M292.205,192.148c0,0.646,0.128,1.147,0.385,1.508
		c0.257,0.359,0.619,0.539,1.089,0.539c0.249,0,0.484-0.062,0.704-0.182c0.221-0.121,0.438-0.307,0.66-0.556v-2.794
		c-0.229-0.205-0.445-0.35-0.654-0.434s-0.424-0.127-0.644-0.127c-0.214,0-0.413,0.049-0.601,0.148
		c-0.187,0.1-0.351,0.238-0.489,0.418c-0.14,0.18-0.25,0.395-0.329,0.645C292.245,191.563,292.205,191.841,292.205,192.148z"/>
	<path d="M297.684,189.477h0.912v3.267c0,0.506,0.079,0.871,0.235,1.095c0.158,0.225,0.413,0.335,0.766,0.335
		c0.278,0,0.523-0.071,0.737-0.214c0.213-0.143,0.446-0.373,0.703-0.688v-3.795h0.901v5.346h-0.748l-0.076-0.836h-0.032
		c-0.25,0.293-0.513,0.527-0.787,0.703c-0.274,0.177-0.601,0.265-0.974,0.265c-0.571,0-0.987-0.177-1.248-0.528
		c-0.262-0.352-0.391-0.873-0.391-1.562L297.684,189.477L297.684,189.477z"/>
	<path d="M303.743,186.99h0.902v6.82c0,0.146,0.025,0.25,0.076,0.308c0.051,0.059,0.109,0.088,0.176,0.088c0.029,0,0.057,0,0.083,0
		c0.025,0,0.063-0.007,0.115-0.022l0.121,0.683c-0.06,0.028-0.128,0.051-0.209,0.065c-0.081,0.016-0.185,0.022-0.309,0.022
		c-0.346,0-0.591-0.103-0.736-0.308c-0.147-0.207-0.221-0.506-0.221-0.902L303.743,186.99L303.743,186.99z"/>
	<path d="M306.284,193.436c0-0.586,0.263-1.035,0.785-1.347c0.525-0.312,1.359-0.53,2.503-0.655c0-0.168-0.017-0.332-0.05-0.494
		c-0.032-0.162-0.092-0.305-0.176-0.43s-0.195-0.226-0.335-0.302c-0.141-0.077-0.319-0.116-0.539-0.116
		c-0.315,0-0.606,0.059-0.874,0.176c-0.27,0.118-0.508,0.25-0.721,0.396l-0.363-0.627c0.249-0.161,0.554-0.316,0.913-0.467
		c0.357-0.15,0.755-0.227,1.188-0.227c0.652,0,1.125,0.2,1.418,0.6c0.293,0.4,0.44,0.934,0.44,1.602v3.278h-0.748l-0.077-0.638
		h-0.021c-0.259,0.213-0.533,0.395-0.831,0.545c-0.297,0.149-0.61,0.225-0.94,0.225c-0.455,0-0.83-0.132-1.127-0.396
		C306.434,194.294,306.284,193.92,306.284,193.436z M307.176,193.37c0,0.308,0.09,0.528,0.27,0.659
		c0.18,0.133,0.401,0.199,0.665,0.199c0.257,0,0.501-0.061,0.731-0.182c0.229-0.121,0.475-0.299,0.73-0.533v-1.486
		c-0.447,0.06-0.825,0.129-1.133,0.209c-0.308,0.082-0.556,0.177-0.743,0.287c-0.187,0.109-0.319,0.235-0.399,0.379
		C307.216,193.046,307.176,193.202,307.176,193.37z"/>
	<path d="M312.18,189.477h0.748l0.078,0.967h0.031c0.185-0.336,0.405-0.604,0.665-0.803c0.262-0.197,0.545-0.297,0.854-0.297
		c0.213,0,0.402,0.037,0.572,0.11l-0.178,0.792c-0.088-0.029-0.169-0.051-0.24-0.066c-0.074-0.015-0.166-0.021-0.275-0.021
		c-0.229,0-0.465,0.092-0.71,0.275s-0.46,0.502-0.645,0.957v3.432h-0.901V189.477z"/>
	<path d="M318.372,190.213h-0.791v-0.682l0.837-0.055l0.108-1.496h0.76v1.496h1.44v0.736h-1.44v2.971
		c0,0.33,0.061,0.584,0.182,0.765c0.121,0.18,0.335,0.27,0.644,0.27c0.097,0,0.198-0.015,0.31-0.044
		c0.108-0.029,0.209-0.063,0.297-0.099l0.176,0.682c-0.146,0.052-0.307,0.097-0.479,0.138c-0.172,0.041-0.344,0.061-0.512,0.061
		c-0.286,0-0.525-0.044-0.721-0.132c-0.195-0.089-0.353-0.209-0.473-0.363c-0.121-0.153-0.207-0.341-0.26-0.562
		c-0.052-0.219-0.077-0.461-0.077-0.726V190.213L318.372,190.213z"/>
	<path d="M322.398,188.376c-0.176,0-0.324-0.056-0.445-0.165s-0.182-0.25-0.182-0.418c0-0.176,0.061-0.316,0.182-0.424
		c0.121-0.105,0.271-0.159,0.445-0.159c0.177,0,0.325,0.054,0.446,0.159s0.182,0.248,0.182,0.424c0,0.168-0.061,0.309-0.182,0.418
		C322.724,188.32,322.574,188.376,322.398,188.376z M321.938,189.477h0.902v5.346h-0.902V189.477z"/>
	<path d="M324.5,193.611c0.233,0.191,0.475,0.346,0.721,0.463s0.529,0.176,0.853,0.176c0.354,0,0.616-0.081,0.792-0.242
		c0.176-0.16,0.265-0.359,0.265-0.594c0-0.139-0.037-0.26-0.109-0.363c-0.074-0.103-0.167-0.191-0.281-0.27
		c-0.112-0.077-0.244-0.146-0.391-0.204c-0.146-0.06-0.293-0.117-0.439-0.177c-0.19-0.065-0.381-0.141-0.571-0.226
		c-0.19-0.084-0.361-0.187-0.513-0.308c-0.15-0.121-0.272-0.262-0.368-0.424c-0.095-0.16-0.144-0.354-0.144-0.582
		c0-0.213,0.043-0.413,0.127-0.601c0.084-0.187,0.205-0.348,0.363-0.483c0.158-0.137,0.35-0.242,0.578-0.319
		c0.227-0.077,0.482-0.116,0.77-0.116c0.337,0,0.646,0.059,0.93,0.176c0.281,0.117,0.525,0.26,0.73,0.43l-0.428,0.572
		c-0.185-0.141-0.375-0.254-0.572-0.342c-0.198-0.088-0.414-0.132-0.649-0.132c-0.337,0-0.585,0.077-0.741,0.231
		c-0.158,0.154-0.237,0.334-0.237,0.539c0,0.125,0.033,0.23,0.1,0.318c0.067,0.088,0.154,0.17,0.265,0.242
		c0.109,0.073,0.235,0.137,0.38,0.191c0.144,0.056,0.292,0.113,0.445,0.171c0.189,0.073,0.384,0.149,0.576,0.231
		c0.195,0.08,0.369,0.182,0.523,0.303c0.153,0.121,0.279,0.27,0.379,0.444c0.1,0.177,0.148,0.39,0.148,0.638
		c0,0.221-0.042,0.426-0.127,0.617c-0.085,0.19-0.21,0.358-0.373,0.506c-0.166,0.146-0.371,0.262-0.616,0.346
		c-0.246,0.084-0.526,0.126-0.842,0.126c-0.383,0-0.744-0.07-1.09-0.209c-0.345-0.14-0.646-0.315-0.901-0.528L324.5,193.611z"/>
	<path d="M329.109,193.611c0.234,0.191,0.476,0.346,0.721,0.463s0.529,0.176,0.853,0.176c0.353,0,0.617-0.081,0.793-0.242
		c0.176-0.16,0.264-0.359,0.264-0.594c0-0.139-0.037-0.26-0.109-0.363c-0.073-0.103-0.167-0.191-0.28-0.27s-0.244-0.146-0.391-0.204
		c-0.146-0.06-0.294-0.117-0.439-0.177c-0.191-0.065-0.382-0.141-0.572-0.226c-0.19-0.084-0.36-0.187-0.512-0.308
		s-0.273-0.262-0.369-0.424c-0.095-0.16-0.143-0.354-0.143-0.582c0-0.213,0.043-0.413,0.127-0.601
		c0.084-0.187,0.205-0.348,0.362-0.483c0.157-0.137,0.351-0.242,0.577-0.319c0.229-0.077,0.483-0.116,0.771-0.116
		c0.336,0,0.646,0.059,0.929,0.176c0.282,0.117,0.526,0.26,0.731,0.43l-0.43,0.572c-0.184-0.141-0.374-0.254-0.571-0.342
		c-0.198-0.088-0.414-0.132-0.649-0.132c-0.337,0-0.584,0.077-0.742,0.231c-0.157,0.154-0.235,0.334-0.235,0.539
		c0,0.125,0.032,0.23,0.1,0.318c0.065,0.088,0.153,0.17,0.264,0.242c0.109,0.073,0.236,0.137,0.379,0.191
		c0.145,0.056,0.292,0.113,0.445,0.171c0.191,0.073,0.384,0.149,0.578,0.231c0.194,0.08,0.369,0.182,0.522,0.303
		c0.152,0.121,0.279,0.27,0.38,0.444c0.099,0.177,0.147,0.39,0.147,0.638c0,0.221-0.043,0.426-0.127,0.617
		c-0.084,0.19-0.209,0.358-0.374,0.506c-0.165,0.146-0.37,0.262-0.616,0.346c-0.245,0.084-0.524,0.126-0.842,0.126
		c-0.381,0-0.744-0.07-1.088-0.209c-0.346-0.14-0.646-0.315-0.902-0.528L329.109,193.611z"/>
	<path d="M333.783,189.477h0.913v3.267c0,0.506,0.078,0.871,0.236,1.095c0.158,0.225,0.412,0.335,0.764,0.335
		c0.279,0,0.525-0.071,0.738-0.214c0.212-0.143,0.447-0.373,0.703-0.688v-3.795h0.901v5.346h-0.747l-0.077-0.836h-0.032
		c-0.25,0.293-0.512,0.527-0.787,0.703c-0.275,0.177-0.6,0.265-0.974,0.265c-0.571,0-0.988-0.177-1.249-0.528
		s-0.391-0.873-0.391-1.562L333.783,189.477L333.783,189.477z"/>
	<path d="M339.448,192.16c0-0.439,0.067-0.834,0.203-1.184c0.136-0.348,0.315-0.643,0.539-0.885s0.479-0.427,0.765-0.556
		c0.286-0.128,0.583-0.192,0.892-0.192c0.337,0,0.64,0.059,0.907,0.176s0.491,0.287,0.672,0.506c0.18,0.221,0.315,0.484,0.412,0.793
		c0.096,0.308,0.143,0.652,0.143,1.033c0,0.198-0.011,0.363-0.033,0.496h-3.606c0.037,0.579,0.215,1.037,0.532,1.375
		c0.319,0.336,0.735,0.506,1.249,0.506c0.258,0,0.493-0.039,0.71-0.115c0.216-0.077,0.424-0.178,0.621-0.303l0.318,0.594
		c-0.234,0.146-0.494,0.275-0.781,0.385c-0.285,0.109-0.61,0.165-0.979,0.165c-0.359,0-0.695-0.063-1.006-0.192
		c-0.313-0.128-0.584-0.312-0.814-0.55c-0.229-0.237-0.412-0.53-0.545-0.875C339.515,192.993,339.448,192.6,339.448,192.16z
		 M343.189,191.753c0-0.55-0.116-0.97-0.348-1.26c-0.23-0.29-0.556-0.435-0.974-0.435c-0.19,0-0.373,0.039-0.545,0.115
		c-0.172,0.077-0.328,0.188-0.467,0.33c-0.141,0.143-0.256,0.319-0.348,0.528s-0.152,0.448-0.182,0.721H343.189z"/>
	<path d="M347.127,192.16c0-0.439,0.067-0.834,0.202-1.184c0.138-0.348,0.316-0.643,0.539-0.885
		c0.226-0.242,0.479-0.427,0.767-0.556c0.285-0.128,0.582-0.192,0.891-0.192c0.337,0,0.641,0.059,0.907,0.176
		c0.268,0.117,0.491,0.287,0.671,0.506c0.18,0.221,0.317,0.484,0.412,0.793c0.096,0.308,0.144,0.652,0.144,1.033
		c0,0.198-0.011,0.363-0.032,0.496h-3.608c0.037,0.579,0.215,1.037,0.534,1.375c0.318,0.336,0.734,0.506,1.249,0.506
		c0.256,0,0.492-0.039,0.709-0.115c0.216-0.077,0.424-0.178,0.621-0.303l0.318,0.594c-0.234,0.146-0.495,0.275-0.78,0.385
		c-0.286,0.109-0.612,0.165-0.979,0.165c-0.359,0-0.694-0.063-1.006-0.192c-0.313-0.128-0.583-0.312-0.814-0.55
		c-0.229-0.237-0.411-0.53-0.544-0.875C347.195,192.992,347.127,192.6,347.127,192.16z M350.866,191.753
		c0-0.55-0.114-0.97-0.347-1.26c-0.231-0.29-0.556-0.435-0.974-0.435c-0.19,0-0.372,0.039-0.545,0.115
		c-0.173,0.077-0.328,0.188-0.468,0.33s-0.255,0.319-0.347,0.528s-0.152,0.448-0.181,0.721H350.866z"/>
	<path d="M353.903,192.027l-1.616-2.551h0.979l0.715,1.176c0.08,0.146,0.165,0.296,0.253,0.445c0.088,0.15,0.18,0.299,0.274,0.446
		h0.045c0.08-0.147,0.161-0.295,0.242-0.446c0.08-0.149,0.159-0.299,0.241-0.445l0.648-1.176h0.945l-1.616,2.65l1.737,2.695h-0.979
		l-0.781-1.243c-0.096-0.161-0.189-0.322-0.285-0.483c-0.096-0.162-0.194-0.32-0.297-0.474h-0.045
		c-0.096,0.153-0.187,0.31-0.274,0.468s-0.177,0.321-0.265,0.489l-0.726,1.243h-0.946L353.903,192.027z"/>
	<path d="M357.963,190.213h-0.793v-0.682l0.836-0.055l0.109-1.496h0.76v1.496h1.44v0.736h-1.44v2.971
		c0,0.33,0.061,0.584,0.182,0.765c0.121,0.18,0.336,0.27,0.644,0.27c0.096,0,0.198-0.015,0.309-0.044
		c0.109-0.029,0.209-0.063,0.297-0.099l0.177,0.682c-0.146,0.052-0.307,0.097-0.479,0.138c-0.174,0.041-0.344,0.061-0.513,0.061
		c-0.286,0-0.525-0.044-0.721-0.132c-0.195-0.089-0.352-0.209-0.473-0.363c-0.121-0.153-0.208-0.341-0.26-0.562
		c-0.051-0.219-0.075-0.461-0.075-0.726V190.213L357.963,190.213z"/>
	<path d="M361.02,192.16c0-0.439,0.068-0.834,0.203-1.184c0.137-0.348,0.315-0.643,0.539-0.885c0.225-0.242,0.479-0.427,0.766-0.556
		c0.285-0.128,0.582-0.192,0.892-0.192c0.337,0,0.64,0.059,0.906,0.176c0.269,0.117,0.491,0.287,0.671,0.506
		c0.181,0.221,0.317,0.484,0.412,0.793c0.097,0.308,0.145,0.652,0.145,1.033c0,0.198-0.012,0.363-0.033,0.496h-3.608
		c0.037,0.579,0.216,1.037,0.534,1.375c0.319,0.336,0.735,0.506,1.249,0.506c0.256,0,0.492-0.039,0.709-0.115
		c0.216-0.077,0.424-0.178,0.621-0.303l0.319,0.594c-0.235,0.146-0.495,0.275-0.781,0.385s-0.612,0.165-0.979,0.165
		c-0.359,0-0.694-0.063-1.007-0.192c-0.313-0.128-0.583-0.312-0.813-0.55c-0.23-0.237-0.412-0.53-0.544-0.875
		S361.02,192.6,361.02,192.16z M364.76,191.753c0-0.55-0.115-0.97-0.348-1.26c-0.23-0.29-0.556-0.435-0.974-0.435
		c-0.19,0-0.372,0.039-0.545,0.115c-0.172,0.077-0.328,0.188-0.467,0.33c-0.141,0.143-0.255,0.319-0.348,0.528
		c-0.092,0.209-0.151,0.448-0.181,0.721H364.76z"/>
	<path d="M366.87,189.477h0.748l0.078,0.77h0.032c0.257-0.256,0.526-0.471,0.809-0.645c0.282-0.172,0.61-0.258,0.985-0.258
		c0.564,0,0.977,0.176,1.236,0.528c0.261,0.353,0.391,0.873,0.391,1.562v3.389h-0.902v-3.268c0-0.506-0.079-0.871-0.24-1.094
		s-0.418-0.335-0.771-0.335c-0.278,0-0.522,0.069-0.736,0.209c-0.213,0.14-0.454,0.345-0.727,0.616v3.872h-0.902V189.477
		L366.87,189.477z"/>
	<path d="M372.504,192.16c0-0.434,0.063-0.823,0.191-1.171c0.128-0.349,0.299-0.644,0.512-0.886s0.458-0.43,0.737-0.562
		c0.278-0.132,0.571-0.198,0.879-0.198c0.31,0,0.576,0.055,0.805,0.165c0.228,0.11,0.458,0.261,0.691,0.451l-0.043-0.913v-2.057
		h0.912v7.832h-0.748l-0.076-0.627h-0.033c-0.213,0.205-0.457,0.383-0.731,0.533s-0.569,0.226-0.885,0.226
		c-0.676,0-1.212-0.242-1.611-0.726C372.702,193.744,372.504,193.055,372.504,192.16z M373.439,192.148
		c0,0.646,0.127,1.147,0.385,1.508c0.256,0.359,0.619,0.539,1.088,0.539c0.25,0,0.484-0.062,0.705-0.182
		c0.221-0.121,0.439-0.307,0.66-0.556v-2.794c-0.229-0.205-0.445-0.35-0.654-0.434c-0.21-0.084-0.424-0.127-0.645-0.127
		c-0.213,0-0.412,0.049-0.6,0.148s-0.351,0.238-0.489,0.418s-0.249,0.395-0.329,0.645
		C373.479,191.563,373.439,191.841,373.439,192.148z"/>
	<path d="M379.454,188.376c-0.176,0-0.323-0.056-0.444-0.165s-0.183-0.25-0.183-0.418c0-0.176,0.062-0.316,0.183-0.424
		c0.121-0.105,0.27-0.159,0.444-0.159c0.178,0,0.325,0.054,0.446,0.159s0.182,0.248,0.182,0.424c0,0.168-0.061,0.309-0.182,0.418
		S379.632,188.376,379.454,188.376z M378.993,189.477h0.902v5.346h-0.902V189.477z"/>
	<path d="M381.698,189.477h0.748l0.078,0.77h0.032c0.257-0.256,0.525-0.471,0.809-0.645c0.282-0.172,0.61-0.258,0.985-0.258
		c0.563,0,0.977,0.176,1.236,0.528c0.261,0.353,0.391,0.873,0.391,1.562v3.389h-0.902v-3.268c0-0.506-0.08-0.871-0.241-1.094
		c-0.16-0.223-0.418-0.335-0.771-0.335c-0.278,0-0.523,0.069-0.736,0.209s-0.455,0.345-0.727,0.616v3.872h-0.902V189.477
		L381.698,189.477z"/>
	<path d="M387.311,195.846c0-0.229,0.068-0.445,0.209-0.65c0.139-0.205,0.33-0.391,0.571-0.561v-0.044
		c-0.132-0.081-0.243-0.192-0.335-0.335s-0.139-0.32-0.139-0.533c0-0.228,0.063-0.426,0.188-0.595s0.257-0.301,0.396-0.396v-0.045
		c-0.176-0.146-0.336-0.343-0.479-0.588c-0.144-0.246-0.215-0.531-0.215-0.854c0-0.293,0.053-0.557,0.16-0.792
		c0.104-0.234,0.25-0.435,0.434-0.599c0.184-0.166,0.398-0.293,0.645-0.381c0.245-0.088,0.505-0.132,0.775-0.132
		c0.146,0,0.283,0.013,0.412,0.039c0.128,0.026,0.244,0.058,0.346,0.093h1.859v0.693h-1.101c0.125,0.125,0.229,0.282,0.313,0.473
		c0.084,0.191,0.126,0.4,0.126,0.627c0,0.286-0.051,0.545-0.154,0.776c-0.102,0.231-0.24,0.425-0.418,0.583
		c-0.176,0.158-0.383,0.28-0.621,0.368c-0.237,0.088-0.492,0.132-0.764,0.132c-0.133,0-0.269-0.018-0.408-0.05
		c-0.139-0.033-0.271-0.079-0.396-0.138c-0.096,0.082-0.177,0.17-0.241,0.271c-0.066,0.099-0.1,0.222-0.1,0.368
		c0,0.169,0.065,0.308,0.196,0.418c0.133,0.109,0.382,0.165,0.748,0.165h1.035c0.623,0,1.09,0.101,1.402,0.303
		c0.312,0.202,0.467,0.526,0.467,0.974c0,0.25-0.063,0.485-0.188,0.709c-0.125,0.225-0.305,0.42-0.539,0.588
		s-0.519,0.303-0.853,0.401s-0.709,0.148-1.127,0.148c-0.33,0-0.631-0.031-0.902-0.093c-0.271-0.063-0.504-0.156-0.699-0.281
		c-0.192-0.125-0.344-0.275-0.45-0.451C387.363,196.285,387.311,196.08,387.311,195.846z M388.102,195.725
		c0,0.285,0.138,0.512,0.413,0.682c0.273,0.168,0.654,0.253,1.138,0.253c0.258,0,0.49-0.031,0.699-0.093
		c0.209-0.063,0.387-0.144,0.533-0.242c0.146-0.1,0.26-0.215,0.342-0.348c0.08-0.131,0.121-0.268,0.121-0.406
		c0-0.25-0.092-0.422-0.275-0.518c-0.183-0.095-0.451-0.143-0.803-0.143h-0.925c-0.104,0-0.214-0.006-0.335-0.018
		c-0.121-0.011-0.24-0.035-0.357-0.07c-0.19,0.139-0.33,0.285-0.418,0.439C388.146,195.417,388.102,195.57,388.102,195.725z
		 M389.521,192.523c0.153,0,0.299-0.029,0.434-0.088c0.137-0.06,0.258-0.144,0.363-0.254c0.106-0.109,0.189-0.244,0.248-0.4
		c0.059-0.157,0.088-0.336,0.088-0.534c0-0.396-0.109-0.702-0.33-0.918s-0.487-0.324-0.803-0.324c-0.316,0-0.584,0.108-0.804,0.324
		c-0.221,0.216-0.329,0.522-0.329,0.918c0,0.198,0.028,0.376,0.088,0.534c0.059,0.158,0.141,0.292,0.247,0.4
		c0.105,0.11,0.228,0.194,0.362,0.254C389.223,192.494,389.366,192.523,389.521,192.523z"/>
	<path d="M270.932,201.576c-0.176,0-0.324-0.055-0.445-0.165c-0.12-0.11-0.182-0.25-0.182-0.418c0-0.177,0.062-0.317,0.182-0.425
		c0.121-0.105,0.271-0.158,0.445-0.158s0.324,0.053,0.445,0.158c0.121,0.106,0.182,0.248,0.182,0.425
		c0,0.168-0.061,0.308-0.182,0.418S271.107,201.576,270.932,201.576z M270.469,202.676h0.902v5.346h-0.902V202.676z"/>
	<path d="M273.176,202.676h0.748l0.076,0.77h0.032c0.258-0.256,0.526-0.471,0.81-0.644c0.282-0.172,0.611-0.258,0.984-0.258
		c0.563,0,0.978,0.177,1.237,0.528s0.392,0.873,0.392,1.562v3.388h-0.902v-3.267c0-0.506-0.081-0.871-0.242-1.094
		c-0.162-0.224-0.418-0.335-0.77-0.335c-0.279,0-0.525,0.068-0.738,0.209c-0.212,0.139-0.454,0.345-0.725,0.615v3.873h-0.902
		V202.676L273.176,202.676z"/>
	<path d="M279.347,203.413h-0.792v-0.683l0.836-0.055l0.109-1.496h0.76v1.496h1.441v0.737h-1.441v2.97
		c0,0.33,0.061,0.585,0.182,0.766c0.121,0.18,0.335,0.27,0.644,0.27c0.096,0,0.199-0.016,0.309-0.044
		c0.11-0.029,0.209-0.063,0.297-0.099l0.177,0.682c-0.146,0.051-0.308,0.098-0.479,0.137c-0.172,0.041-0.343,0.061-0.512,0.061
		c-0.285,0-0.525-0.043-0.722-0.131c-0.192-0.088-0.352-0.209-0.473-0.363s-0.207-0.342-0.258-0.561
		c-0.052-0.221-0.077-0.463-0.077-0.727V203.413L279.347,203.413z"/>
	<path d="M282.404,205.359c0-0.446,0.068-0.844,0.203-1.192c0.138-0.349,0.317-0.644,0.545-0.886
		c0.229-0.242,0.49-0.426,0.787-0.551s0.609-0.187,0.939-0.187s0.645,0.063,0.94,0.187c0.298,0.125,0.56,0.309,0.786,0.551
		c0.229,0.242,0.409,0.537,0.544,0.886c0.138,0.349,0.204,0.746,0.204,1.192c0,0.44-0.066,0.834-0.204,1.184
		c-0.135,0.348-0.315,0.643-0.544,0.88c-0.228,0.238-0.488,0.42-0.786,0.544c-0.297,0.125-0.61,0.188-0.94,0.188
		s-0.644-0.063-0.939-0.188c-0.297-0.125-0.56-0.306-0.787-0.544c-0.227-0.237-0.407-0.532-0.545-0.88
		C282.473,206.193,282.404,205.8,282.404,205.359z M283.34,205.359c0,0.309,0.036,0.588,0.109,0.836
		c0.072,0.25,0.178,0.465,0.313,0.645s0.299,0.319,0.489,0.418c0.19,0.1,0.399,0.148,0.627,0.148s0.437-0.049,0.627-0.148
		c0.19-0.099,0.354-0.238,0.49-0.418c0.135-0.18,0.239-0.395,0.313-0.645c0.073-0.248,0.11-0.527,0.11-0.836
		c0-0.308-0.037-0.588-0.11-0.84c-0.073-0.254-0.179-0.472-0.313-0.655c-0.137-0.183-0.3-0.324-0.49-0.423
		c-0.19-0.1-0.399-0.148-0.627-0.148s-0.437,0.049-0.627,0.148c-0.19,0.099-0.354,0.24-0.489,0.423
		c-0.136,0.184-0.24,0.401-0.313,0.655C283.376,204.771,283.34,205.052,283.34,205.359z"/>
	<path d="M290.721,206.636c0-0.586,0.262-1.036,0.786-1.347s1.358-0.53,2.503-0.655c0-0.168-0.017-0.333-0.05-0.495
		c-0.032-0.162-0.092-0.304-0.176-0.429c-0.085-0.125-0.196-0.226-0.335-0.302c-0.142-0.077-0.32-0.116-0.539-0.116
		c-0.316,0-0.607,0.06-0.875,0.176c-0.269,0.118-0.509,0.25-0.722,0.396l-0.362-0.628c0.25-0.16,0.555-0.316,0.914-0.467
		c0.357-0.149,0.754-0.226,1.188-0.226c0.652,0,1.125,0.2,1.419,0.601c0.293,0.399,0.44,0.933,0.44,1.601v3.278h-0.748l-0.078-0.639
		h-0.021c-0.257,0.213-0.532,0.396-0.83,0.545c-0.297,0.15-0.61,0.226-0.94,0.226c-0.454,0-0.83-0.132-1.127-0.396
		C290.869,207.494,290.721,207.12,290.721,206.636z M291.611,206.57c0,0.308,0.091,0.527,0.271,0.66
		c0.18,0.131,0.402,0.197,0.666,0.197c0.256,0,0.5-0.06,0.729-0.181c0.231-0.121,0.477-0.299,0.732-0.534v-1.484
		c-0.447,0.059-0.825,0.127-1.133,0.209c-0.31,0.08-0.558,0.176-0.743,0.285c-0.188,0.11-0.321,0.236-0.401,0.379
		C291.652,206.245,291.611,206.4,291.611,206.57z"/>
	<path d="M297.617,205.229L296,202.676h0.979l0.715,1.178c0.081,0.146,0.165,0.295,0.253,0.444c0.089,0.15,0.181,0.3,0.275,0.446
		h0.043c0.082-0.146,0.162-0.295,0.242-0.446c0.081-0.149,0.162-0.299,0.241-0.444l0.649-1.178h0.946l-1.617,2.651l1.738,2.694
		h-0.979l-0.78-1.242c-0.096-0.161-0.19-0.322-0.286-0.484c-0.096-0.161-0.193-0.318-0.298-0.473h-0.042
		c-0.097,0.154-0.188,0.31-0.275,0.468s-0.176,0.321-0.264,0.489l-0.728,1.242h-0.945L297.617,205.229z"/>
	<path d="M301.984,201.576c-0.176,0-0.324-0.055-0.445-0.165c-0.12-0.11-0.182-0.25-0.182-0.418c0-0.177,0.062-0.317,0.182-0.425
		c0.121-0.105,0.271-0.158,0.445-0.158s0.324,0.053,0.445,0.158c0.121,0.106,0.182,0.248,0.182,0.425
		c0,0.168-0.061,0.308-0.182,0.418C302.309,201.521,302.159,201.576,301.984,201.576z M301.521,202.676h0.902v5.346h-0.902V202.676z
		"/>
	<path d="M304.229,200.189h0.902v6.82c0,0.147,0.024,0.25,0.075,0.309c0.052,0.059,0.11,0.088,0.177,0.088c0.028,0,0.057,0,0.083,0
		c0.024,0,0.063-0.008,0.114-0.022l0.121,0.683c-0.059,0.029-0.128,0.051-0.209,0.065s-0.184,0.022-0.308,0.022
		c-0.346,0-0.591-0.104-0.737-0.309s-0.22-0.506-0.22-0.902L304.229,200.189L304.229,200.189z"/>
	<path d="M307.032,200.189h0.902v6.82c0,0.147,0.025,0.25,0.076,0.309s0.109,0.088,0.176,0.088c0.029,0,0.057,0,0.083,0
		c0.025,0,0.063-0.008,0.115-0.022l0.121,0.683c-0.06,0.029-0.128,0.051-0.209,0.065s-0.185,0.022-0.309,0.022
		c-0.346,0-0.591-0.104-0.736-0.309c-0.147-0.205-0.221-0.506-0.221-0.902L307.032,200.189L307.032,200.189z"/>
	<path d="M309.573,206.636c0-0.586,0.263-1.036,0.785-1.347c0.525-0.313,1.359-0.53,2.503-0.655c0-0.168-0.017-0.333-0.05-0.495
		c-0.032-0.162-0.092-0.304-0.176-0.429s-0.195-0.226-0.335-0.302c-0.141-0.077-0.319-0.116-0.539-0.116
		c-0.315,0-0.606,0.06-0.874,0.176c-0.27,0.118-0.508,0.25-0.721,0.396l-0.363-0.628c0.249-0.16,0.554-0.316,0.913-0.467
		c0.357-0.149,0.755-0.226,1.188-0.226c0.652,0,1.125,0.2,1.418,0.601c0.293,0.399,0.44,0.933,0.44,1.601v3.278h-0.748l-0.077-0.639
		h-0.021c-0.259,0.213-0.533,0.396-0.831,0.545c-0.298,0.15-0.61,0.226-0.94,0.226c-0.455,0-0.83-0.132-1.127-0.396
		C309.723,207.494,309.573,207.12,309.573,206.636z M310.465,206.57c0,0.308,0.09,0.527,0.27,0.66
		c0.18,0.131,0.401,0.197,0.665,0.197c0.257,0,0.501-0.06,0.731-0.181c0.229-0.121,0.475-0.299,0.73-0.534v-1.484
		c-0.447,0.059-0.825,0.127-1.133,0.209c-0.308,0.08-0.556,0.176-0.743,0.285c-0.187,0.11-0.32,0.236-0.399,0.379
		C310.505,206.246,310.465,206.4,310.465,206.57z"/>
</g>
<line fill="none" stroke="#000000" stroke-miterlimit="10" x1="139" y1="197.5" x2="260" y2="197.5"/>
</svg>
