<?xml version="1.0" encoding="utf-8"?>
<!-- Generator: Adobe Illustrator 15.0.2, SVG Export Plug-In . SVG Version: 6.00 Build 0)  -->
<!DOCTYPE svg PUBLIC "-//W3C//DTD SVG 1.1//EN" "http://www.w3.org/Graphics/SVG/1.1/DTD/svg11.dtd">
<svg version="1.1" id="Layer_1" xmlns="http://www.w3.org/2000/svg" xmlns:xlink="http://www.w3.org/1999/xlink" x="0px" y="0px"
	 width="411.02px" height="220px" viewBox="0 0 411.02 220" enable-background="new 0 0 411.02 220" xml:space="preserve">
<metadata><?xpacket begin="﻿" id="W5M0MpCehiHzreSzNTczkc9d"?>
<x:xmpmeta xmlns:x="adobe:ns:meta/" x:xmptk="Adobe XMP Core 5.0-c060 61.134777, 2010/02/12-17:32:00        ">
   <rdf:RDF xmlns:rdf="http://www.w3.org/1999/02/22-rdf-syntax-ns#">
      <rdf:Description rdf:about=""
            xmlns:dc="http://purl.org/dc/elements/1.1/">
         <dc:format>image/svg+xml</dc:format>
         <dc:title>
            <rdf:Alt>
               <rdf:li xml:lang="x-default">Web</rdf:li>
            </rdf:Alt>
         </dc:title>
      </rdf:Description>
      <rdf:Description rdf:about=""
            xmlns:xmp="http://ns.adobe.com/xap/1.0/"
            xmlns:xmpGImg="http://ns.adobe.com/xap/1.0/g/img/">
         <xmp:CreatorTool>Adobe Illustrator CS5</xmp:CreatorTool>
         <xmp:CreateDate>2015-02-27T14:12:01+02:00</xmp:CreateDate>
         <xmp:ModifyDate>2015-02-27T14:12:01+02:00</xmp:ModifyDate>
         <xmp:MetadataDate>2015-02-27T14:12:01+02:00</xmp:MetadataDate>
         <xmp:Thumbnails>
            <rdf:Alt>
               <rdf:li rdf:parseType="Resource">
                  <xmpGImg:width>256</xmpGImg:width>
                  <xmpGImg:height>144</xmpGImg:height>
                  <xmpGImg:format>JPEG</xmpGImg:format>
                  <xmpGImg:image>/9j/4AAQSkZJRgABAgEB1QHVAAD/7QAsUGhvdG9zaG9wIDMuMAA4QklNA+0AAAAAABAB1QAAAAEA&#xA;AQHVAAAAAQAB/+4ADkFkb2JlAGTAAAAAAf/bAIQABgQEBAUEBgUFBgkGBQYJCwgGBggLDAoKCwoK&#xA;DBAMDAwMDAwQDA4PEA8ODBMTFBQTExwbGxscHx8fHx8fHx8fHwEHBwcNDA0YEBAYGhURFRofHx8f&#xA;Hx8fHx8fHx8fHx8fHx8fHx8fHx8fHx8fHx8fHx8fHx8fHx8fHx8fHx8fHx8f/8AAEQgAkAEAAwER&#xA;AAIRAQMRAf/EAaIAAAAHAQEBAQEAAAAAAAAAAAQFAwIGAQAHCAkKCwEAAgIDAQEBAQEAAAAAAAAA&#xA;AQACAwQFBgcICQoLEAACAQMDAgQCBgcDBAIGAnMBAgMRBAAFIRIxQVEGE2EicYEUMpGhBxWxQiPB&#xA;UtHhMxZi8CRygvElQzRTkqKyY3PCNUQnk6OzNhdUZHTD0uIIJoMJChgZhJRFRqS0VtNVKBry4/PE&#xA;1OT0ZXWFlaW1xdXl9WZ2hpamtsbW5vY3R1dnd4eXp7fH1+f3OEhYaHiImKi4yNjo+Ck5SVlpeYmZ&#xA;qbnJ2en5KjpKWmp6ipqqusra6voRAAICAQIDBQUEBQYECAMDbQEAAhEDBCESMUEFURNhIgZxgZEy&#xA;obHwFMHR4SNCFVJicvEzJDRDghaSUyWiY7LCB3PSNeJEgxdUkwgJChgZJjZFGidkdFU38qOzwygp&#xA;0+PzhJSktMTU5PRldYWVpbXF1eX1RlZmdoaWprbG1ub2R1dnd4eXp7fH1+f3OEhYaHiImKi4yNjo&#xA;+DlJWWl5iZmpucnZ6fkqOkpaanqKmqq6ytrq+v/aAAwDAQACEQMRAD8A7p5JmbQdYvfIlzUQWaG9&#xA;8tSMSRJpbtxMAJ/aspD6VP8AfZjPfFWa4q7FXYq7FXYq7FXYq7FXYq7FXYq7FXYq7FXYq7FXYq7F&#xA;XYq7FXYq7FXYq7FXYq7FXYq7FXYq7FXYqxX8wfLmoalp9tqmiBR5n0GU3uisx4rI3ErNaSN2juYi&#xA;Y28DRv2RiqZ+U/M+neZ/L9nren8lgulPKGQUkhlQlJYZF/ZeKRSjDxGKpvirsVdirsVdirsVdirs&#xA;VdirsVdirsVdirsVdirsVdirsVdirsVdirsVdirsVdirsVdirsVdirsVdirz65T/AAR57/SCfB5V&#xA;83zrHqC/sWmssAkM/gqXoAjf/i0Kf2jir0HFXYq7FXYq7FXYq7FXYq7FXYq7FXYq7FXYq7FXYq7F&#xA;XYq7FXYq7FXYq7FXYq7FXYq7FXYq7FXYq7FUDrmi6drmj3mkajH6tjfRNDOlSDxYdVYbqy9VYbg7&#xA;4qkfkTV9RaG58ua5J6nmHQSkNxO2xu7Zwfqt8v8AxmVSH8JFcdhirKsVdirsVdirsVdirsVdirsV&#xA;dirsVdirsVdirsVdirsVdirsVdirsVdirsVdirsVdirsVdirsVdirsVYh5/03ULdbbzdokTTa1oI&#xA;dpLSPZr3T3obq0PixCCSLwkUdi1VWSaRq2n6xpVpqunTC4sL6FLi1mXo0cihlO/TY4qi8VdirsVd&#xA;irsVdirsVdirsVdirsVdirsVdirsVdirsVdirsVdirsVdirsVdirsVdirsVdirsVdirsVYN5FhXy&#xA;/wCaPMXk5PhsI2j1vRY+yW2ovIJ4U7cYruKRgOwkUYqznFXYq7FXYq7FXYq7FXYq7FXYq7FXYq7F&#xA;XYq7FXYq7FXYq7FXYq7FXYq7FXYq7FXYq7FXYq7FXYq7FWLXtqq/mlo12pAaTQ9UilXuwju9PaM/&#xA;7H1H+/FWU4q7FXYq7FXYq7FXYq7FXYq7FXYq7FXYq7FXYq7FXYq7FXYq7FXYq7FXYq7FXYq7FXYq&#xA;7FXYq7FXYqw4XEtx+cBtyf3WmeXhIo8G1G9IP3jTxirMcVdirsVdirsVdiqB1rW9P0ey+t3rsFZ1&#xA;ihijVpJZZX+xFFGgLu7dgo9+gOKsSm866/NevZpbpZXaqC2mQwyarexqwqpumgeKztHK7qryuD2J&#xA;6Yqo+avOereV9Bu9Z1Kee1jtOFYrrT0nWT1HVFCva3KRqxZwBylHyOKsu0LVby+s4nv7QWVzKoeO&#xA;MSCRZEKq3OPkI5aDmAweNSDtuKEqpnirsVdirsVdirsVdirsVdirsVdirsVdirsVdirsVdirsVdi&#xA;rsVdirEtMML/AJseYyKNJFoeiIxpuvK71ViK+44nFWW4q7FXYq7FXYq7FWH+adeu4byyutJjt7iP&#xA;TdQSy1ZpY3kmBuVjCwWnxRL6sjTRqXJKpX4tuXFVGCS+llhtvKiWcWlTmW5vNZJFxGZXkPNIY43U&#xA;yTM/Iu7tRdtnNQFURpy6qmptCuuQalDCQL21lijFzGWX4eLwMioKivF4iT/MMVSmYXWsWUfl/Xp4&#xA;bHzh6Bv9PubSORI4pU+ES2ryM/qGFn4yry3VqMvB91U+8r6vLrHl+x1GeIQXU8Q+t24JIjuE+CaM&#xA;E7kJIrLXFU0xV2KuxV2KuxV2KuxV2KuxV2KuxV2KuxV2KuxV2KuxV2KuxV2KsI0ljB+cvmSFqf6Z&#xA;oekXEe+9Ibm/iIp33ff6MVZvirsVdirsVdirsVYXZRWv1TTZH+O3HmHU/XkfoGlmv4FDdK/vZFjX&#xA;/Y4qk2t2mheXY9L8jadppt9Agge7tbVpZHjncySN9XpJ6jSKkrKzLyNOS7UGKpDEb7RrZtW8rW0C&#xA;6nLLGVspbGWCktwwjaFmMkPwtI9AviQe1cKGTeZ1/MZdb0u3tb3S7u9tbXUdXs0GnyxCSW1iS1W2&#xA;Znv24iX9IV5VHHjvttgSmflvRvzEtdHiWfUtHtrmZ5rq6t49PuZkSe6me4lVZPr0fJfUlah4jFUy&#xA;+pef/wDq86V/3Crn/vI4q76l5/8A+rzpX/cKuf8AvI4q76l5/wD+rzpX/cKuf+8jirvqXn//AKvO&#xA;lf8AcKuf+8jirvqXn/8A6vOlf9wq5/7yOKqvnHRrzWfLF3pcErRz3QiRpoXMDhfVQyFHBqh4Bqb4&#xA;q8y/wx+bmm2jRLcPcapf3jxtfWTxRlgBqs6SyyPHL6UPqSWrcDUA/Ata0ZVfFon5xaobu+W5aG5t&#xA;L/Uxpv10ooDodTs7W4gi9McIhFNb05cuY+OlPtKvTfKFrrVr5dtINankuNRT1PVkl4F+JlYxqxRn&#xA;U8Iyq15EmlSa1xVOMVdirsVdirsVdirsVdirsVdirsVYVqFbP84tGnb+61fRL602/wB+2dzbzxg/&#xA;NJ5afLFWa4q7FXYq7FXYq7FWIajolxY3F9bxxtdaLr90kjxRmRJbG5ZSZLiN40kojSRI4NBwlJYm&#xA;jfCql2u2+sXWnR6X5js5Z5bZ0ksfM2nW5uo5Cp39ezhb6whlSqSoitGVJoy9FVXaLYeX7PWtNsdW&#xA;1eS+1q7Ml7punvBLarSFAvrNbtycFAlaytx5GqqG44qoLptzbi48qrrdxr3mK/kumutRl2bTdOvX&#xA;RpEPA0j+CMLAp+Jn+IDgrUVehxxxxRrHGoSNAFRRsAAKADFV2KuxV2KuxV2KqN9e2thZXF9eSCG0&#xA;tY3nuJm+ykcalnY+wUVxVKovPHk57W2ujrVnDFdwRXUAnmSBzDPT0nMcpR15E0+IA1264q3N5z8r&#xA;QzmFtUtmMckkNy6zRslvJDGZXW4YNSIhVP2qYqiZPMfl6PT5NSk1S0TToVRpb1p4hCiygNGWkLcQ&#xA;HDArU71GKoRPPPk8o7S6zZ2/ptKrrPcRRMBDcG1Z+LsDw9ZeIbodvHFVW683eW7WSJZtRtwkodjN&#xA;6qenGiI7l5X5URaRNufA4qvHmvysUkcaxYlIYkuJm+sw0SGWnpyMeWyPyHFjsa4q6181eV7uL1bX&#xA;WLG4i3/eRXMLrsEJ3ViOkqH/AGQ8RiqC1H8wfJljp8l8+sWk0UYmKx288UskhthWZY0Vqu0Y+0B0&#xA;74qq6t538s6Zp1xqEt/FPDa3UVhOls6Sut1NIsSQFVPwvykFQaUG52xVQ0/8xfJV7BPMNXtbZbVY&#xA;5LhLqWO3eOOVEdHdJGVlVhKoBYddsVTC280eWrqeO3ttWsp55pZYIoY7iJ3eWAAzRqqsSXjBHNRu&#xA;vfFUzxV2KuxVhX5nKLCDQ/NQov8AhvU4bi6c9rK7VrG7J/yUiufVP+pirNcVdirsVdirsVdirsVS&#xA;C58pBWLaNql5ofKvOGz9CS3JPhBdRXEce5qfSCVPWuKpPf8A5TeX9Y1p9W8wM2ozBBHAkYNpQcQr&#xA;PK8DI8kj8Ry+IJ4IMVTCy/LHyBYwCC00O2hiG/FFIqT1JNaknuTviqv/AIA8m/8AVpg+4/1xV3+A&#xA;PJv/AFaYPuP9cVd/gDyb/wBWmD7j/XFXf4A8m/8AVpg+4/1xV3+APJv/AFaYPuP9cVd/gDyb/wBW&#xA;mD7j/XFUfr2hWWt6NcaPds6WV0qx3CwkIXiDAvESQfgkUcGpvxJoQd8VYXF+UnkvUdMeGzvbz6ql&#xA;7OysDDJweF7y2lt+NxDKrxL9dnio6ttSh7lVXb8oNBiWeSPV9StSVZEmjlt42gt/9JYRI/oV4o19&#xA;IwZ6v05MRtiqNsPy80lPLlrplnqt01vDNDe6ffoLIyI8YqrIRb+i6sGP20br8NAFoqgbf8rPLlrq&#xA;Mn1XU7+HV3uW1VLofVmkSR5712ZVe3aAqTqs6cWQ0HGlGHLFXJ+TWiRtO0Or6pA820bxSWyNDGPX&#xA;pHGywA8R9af7VW6VJFaqq9h+V/lXQfLF9pj3twNNlktby8urmSBSg070nSrCNI1jpbjnVelaU7Ko&#xA;DXvyq8l2Wmyand6heabZaXaFry4iMFPqluPWl9QGCTY+kGYoA3w7HrVV035TeWrGCa1l1vUoo9ZR&#xA;9NeP/Q+LrKjmOKJBa8IFiJd0EQRa/a5DbFU28veQPLdpp91DYXNxLbzX8VwXcQq6SadfGdYAywxs&#xA;0aTxsvx8jStG3riqEsfyc8vWlxYyi/v5k01oHs7eRrbgjW7Wj1qkCO3qHToeXJj0PHjiqGg/Jmw0&#xA;y3gOga1fadqFgky6bd8LNzH6kCwRrKRbpJPHCI0YJJIeRUc+VBir0XFXYq7FUPqWn2epaddadexi&#xA;azvYZLe5iPR4pVKOp+asRirGPyx1a9uNAk0XVJPU1zy1O2kam7bNKYADBc08Li3aOX/ZEdsVZfir&#xA;sVdirsVdirsVdirsVdirsVdirsVdirsVdiqV+aNDGveXr/RzN9XF7EYjLx9QCu9GQleaHoy1+IVG&#xA;KvNbr/nHy2uTI51WKN5LeWFVis3jiiMtzLc+nBElyFW1JmKtA3Ko6MDviqN8nfk1+htb1O7u5rV7&#xA;SWI2dmkEDiWS3k06ytHWaSWWZvRV7V/TgPILXlyNaBVU0X8nZdGF9NDf2808+mTWESQ2n1Wry20F&#xA;vR5PVmPor9VV0jA+FmY1NQAqxjzJ+QWqSaHFFp81nPczSKt9YR2qW9ksJhaNhBA0rAVPEtV68i0q&#xA;nlxXFWQp+QuivBfTNNFZ6tqK3Xq39nboksLX0l+0oikqGoE1JYhXqsSVHYKqEX/OPmkrZGE3kKzt&#xA;BLbmSO0/dhJre/iZUSWaZ1jMuorNw9SnKJaU24qoe9/5x3tbu01eF9Utw+rySPITYs0aCdLlG4wt&#xA;cmPlB9cP1RwAYlUA+piqeebPydj8xeYdR1WTVfqMWoQxxNHbW49escfpgvPJJJVabemiIjAnmHNC&#xA;FUVoH5TafpWu2ettcpNf2c9xOkiW6xUW6n1O4khQ82KR8tX+zX/dS/QqzzFXYq7FXYq7FXYqwjzD&#xA;Enlnzna+bUHDS9XWHSfMbdFRw5Gn3beySSNC7fyupOyYqzfFXYq7FXYq7FXYq7FXYq7FXYq7FXYq&#xA;7FXYq7FXYq7FXYq7FXYq7FXYq7FXYq7FXYq7FXYq7FXYq7FVDULCz1GxuLC9hW4s7uNobiBxVXjk&#xA;BVlPzBxVgHljzy2j+b7r8vfMUrNNaCD9A61MfhvILhWMFvO56XQ9N1H+/eBYb1xV6NirsVdirsVd&#xA;irsVdirsVdirsVdirsVdirsVdirsVdirsVdirsVdirsVdirsVdirsVdirsVdirsVdirz7XtF0zU/&#xA;zOk0nV7ZbnTfMHl6jRPUAyaTfBlKsCCHT9JclZaMvUYqqR6j5t8kD0NYW58zeV02h1qBDNqdpGO1&#xA;7BGOVyij/d0Q5/zod2xVmGja5o+t6fHqOkXsN/Yy/YuLd1kQkdQSvRh3B3HfFUbirsVdirsVdirs&#xA;VdiqU3vmvy/Z61a6HNeK2sXm8NhCrzzBP9+yJErmKL/iySie+KptirsVdirsVdirsVdirsVdirsV&#xA;dirsVdirsVdirsVdirsVdirsVdirEvOEZt/NfkzVRsqX1xp852FIr2zlYdfGe3hGKstxViur/lxo&#xA;V3fSarpck/l7XZSGl1XSmWCSUjcfWYirwXI/4zRt7EYqgzf/AJqaJ8N1ptn5rtF6XWnyDT76g/mt&#xA;bktbufdbhf8AVGKuH5saPBtq2i69pBH2jcaTdzID4erZJdRf8Piq+3/Ob8rZpfSfzNZWkv8Avu+c&#xA;2Tdx0uhCe2Kp3F5y8oTRiSLXNPkjb7LpdQsDQ02IbFUHN+ZHkOORoU12zurlPtWtnKLufrT+5t/V&#xA;k6j+XFVB/Omr3nw6D5Y1G8J+zc36jSrYf64uqXY/2Nu2KrG0DzzrBP6b1tNJs266foSkSEeEl/cK&#xA;ZD/zyiib3xVOdA8reX/L8EkOj2MdqJm53Moq80z/AM80zlpZW/ynYnFU1xV2KuxV2KuxV2KuxV2K&#xA;uxV2KuxV2KuxV2KuxV2KuxV2KuxV2KuxVjP5iCQeX4LiJGeW11PSp1Cgk0TUYPU6eMZYE9gcVZNi&#xA;rsVdirsVWTQwzIY5o1kjPVHAYbexxVLj5U8rMSTo9iSdyTbQ1J/4HFUxhhhhQRwxrHGOiIAo39hi&#xA;q/FXYq7FXYq7FXYq7FXYq7FXYq7FXYq7FXYq7FXYq7FXYq7FX//Z</xmpGImg:image>
               </rdf:li>
            </rdf:Alt>
         </xmp:Thumbnails>
      </rdf:Description>
      <rdf:Description rdf:about=""
            xmlns:xmpMM="http://ns.adobe.com/xap/1.0/mm/"
            xmlns:stRef="http://ns.adobe.com/xap/1.0/sType/ResourceRef#"
            xmlns:stEvt="http://ns.adobe.com/xap/1.0/sType/ResourceEvent#">
         <xmpMM:RenditionClass>proof:pdf</xmpMM:RenditionClass>
         <xmpMM:OriginalDocumentID>uuid:65E6390686CF11DBA6E2D887CEACB407</xmpMM:OriginalDocumentID>
         <xmpMM:DocumentID>xmp.did:66CC58F471BEE411B15DD899516AEE35</xmpMM:DocumentID>
         <xmpMM:InstanceID>xmp.iid:66CC58F471BEE411B15DD899516AEE35</xmpMM:InstanceID>
         <xmpMM:DerivedFrom rdf:parseType="Resource">
            <stRef:instanceID>uuid:495d734b-595f-ed44-baa4-f7b96906a5ee</stRef:instanceID>
            <stRef:documentID>xmp.did:F87F11740720681186239FE77607E6FE</stRef:documentID>
            <stRef:originalDocumentID>uuid:65E6390686CF11DBA6E2D887CEACB407</stRef:originalDocumentID>
            <stRef:renditionClass>proof:pdf</stRef:renditionClass>
         </xmpMM:DerivedFrom>
         <xmpMM:History>
            <rdf:Seq>
               <rdf:li rdf:parseType="Resource">
                  <stEvt:action>saved</stEvt:action>
                  <stEvt:instanceID>xmp.iid:66CC58F471BEE411B15DD899516AEE35</stEvt:instanceID>
                  <stEvt:when>2015-02-27T14:12:01+02:00</stEvt:when>
                  <stEvt:softwareAgent>Adobe Illustrator CS5</stEvt:softwareAgent>
                  <stEvt:changed>/</stEvt:changed>
               </rdf:li>
            </rdf:Seq>
         </xmpMM:History>
      </rdf:Description>
      <rdf:Description rdf:about=""
            xmlns:illustrator="http://ns.adobe.com/illustrator/1.0/">
         <illustrator:StartupProfile>Web</illustrator:StartupProfile>
      </rdf:Description>
      <rdf:Description rdf:about=""
            xmlns:xmpTPg="http://ns.adobe.com/xap/1.0/t/pg/"
            xmlns:stDim="http://ns.adobe.com/xap/1.0/sType/Dimensions#"
            xmlns:xmpG="http://ns.adobe.com/xap/1.0/g/">
         <xmpTPg:NPages>1</xmpTPg:NPages>
         <xmpTPg:HasVisibleTransparency>True</xmpTPg:HasVisibleTransparency>
         <xmpTPg:HasVisibleOverprint>False</xmpTPg:HasVisibleOverprint>
         <xmpTPg:MaxPageSize rdf:parseType="Resource">
            <stDim:w>144.998557</stDim:w>
            <stDim:h>77.611111</stDim:h>
            <stDim:unit>Millimeters</stDim:unit>
         </xmpTPg:MaxPageSize>
         <xmpTPg:PlateNames>
            <rdf:Seq>
               <rdf:li>Cyan</rdf:li>
               <rdf:li>Magenta</rdf:li>
               <rdf:li>Yellow</rdf:li>
               <rdf:li>Black</rdf:li>
            </rdf:Seq>
         </xmpTPg:PlateNames>
         <xmpTPg:SwatchGroups>
            <rdf:Seq>
               <rdf:li rdf:parseType="Resource">
                  <xmpG:groupName>Default Swatch Group</xmpG:groupName>
                  <xmpG:groupType>0</xmpG:groupType>
               </rdf:li>
            </rdf:Seq>
         </xmpTPg:SwatchGroups>
      </rdf:Description>
      <rdf:Description rdf:about=""
            xmlns:pdf="http://ns.adobe.com/pdf/1.3/">
         <pdf:Producer>Adobe PDF library 9.90</pdf:Producer>
      </rdf:Description>
   </rdf:RDF>
</x:xmpmeta>
                                                                                                    
                                                                                                    
                                                                                                    
                                                                                                    
                                                                                                    
                                                                                                    
                                                                                                    
                                                                                                    
                                                                                                    
                                                                                                    
                                                                                                    
                                                                                                    
                                                                                                    
                                                                                                    
                                                                                                    
                                                                                                    
                                                                                                    
                                                                                                    
                                                                                                    
                                                                                                    
                           
<?xpacket end="w"?>
	</metadata>
<g>
	<g>
		<path d="M193.371,191.798c-1.976,2.009-4.725,3.233-7.223,4.461c-7.672,3.771-16.694,6.664-26.129,8.709
			c-6.929,1.501-13.588,2.658-20.816,2.337c-6.507-0.289-13.48-1.345-20.604-2.125c-10.814-1.183-19.726-5.393-28.251-9.559
			c-8.62-4.211-16.105-9.785-21.88-15.932c1.76,11.791,3.771,22.528,5.311,34.412c0.174,1.336,1.153,3.105,0,4.248
			c-1.52-0.642-0.884-3.205-1.063-4.886c-0.896-8.437-3.024-16.548-4.248-24.853c-0.507-3.437-0.661-7.116-1.7-9.983
			c-0.775-2.149-3.224-4.44-4.46-6.373c-4.084-6.377-7.835-13.233-10.833-21.03c-1.914-4.976-4.113-10.113-5.312-15.932
			c-1.171-5.684-2.05-11.921-2.55-18.693c-0.279-3.781,0.213-7.784,0.213-11.683c0-4.127,0.056-7.027,0.425-11.046
			c0.196-2.147,0.984-4.277,1.273-7.01c0.499-4.723-0.441-9.864-1.486-14.021c-1.038-4.126-3.157-7.702-4.886-10.833
			c-3.733-6.766-8.21-13.209-12.108-19.33C18.568,29.369,10.021,16.937,3.252,3.379c0.172-0.04,0.211-0.213,0.425-0.213
			C3.85,3.127,3.889,2.954,4.103,2.954c3.696,6.543,7.104,12.546,11.046,18.48c5.66,8.524,11.244,18.02,16.993,27.191
			c5.201,8.296,13.271,17.869,14.232,29.738c0.495,6.111-0.299,11.914-0.851,17.844c-1.103,11.846-0.632,25.374,1.912,38.236
			c1.598,8.074,4.382,14.93,7.859,22.092c1.667,3.433,3.03,6.959,4.886,10.195c1.696,2.961,3.531,6.388,5.947,8.922
			c0.438,0.461,1.08,0.633,1.485,1.063c1.087,1.145,2.292,2.792,3.611,4.035c5.209,4.911,10.81,9.156,17.843,12.745
			c10.08,5.146,18.831,9.444,33.139,10.622c7.165,0.589,13.307,1.947,19.543,2.124c6.228,0.175,12.65-0.896,18.691-2.337
			c9.022-2.15,17.776-4.9,25.492-8.709C188.258,194.05,190.493,191.95,193.371,191.798z"/>
		<path d="M164.057,95.784c-1.326-0.3-2.392-1.448-3.824-2.125c-1.313-0.62-2.976-1.395-4.46-1.699
			c-11.327-2.333-21.123,3.083-26.128,8.921C134.235,91.235,155.418,87.055,164.057,95.784z"/>
		<path d="M156.621,98.757c-2.594-2.733,2.255-5.432,2.976-2.548C159.952,97.638,158.629,98.943,156.621,98.757z M157.046,98.332
			c0.85-0.071,1.449-0.393,1.912-0.85c0.289-1.492-0.871-1.536-1.699-1.911C156.405,96.209,156.238,97.471,157.046,98.332z"/>
		<path d="M154.709,96.633c-7.259-2.308-14.61,0.171-18.27,4.461C138.661,95.907,148.649,93.402,154.709,96.633z"/>
		<path d="M165.544,98.12c5.66,2.672,8.794,9.973,7.646,18.057C172.991,107.808,170.357,101.872,165.544,98.12z"/>
		<path d="M156.409,105.343c-2.826-1.255-5.61-2.397-9.135-1.912c-3.274,0.452-5.167,3.257-7.224,4.673
			C141.605,102.706,152.282,100.938,156.409,105.343z"/>
		<path d="M132.829,103.431c0.558,0.641,1.014,1.297,0.638,2.336c-0.738-0.109-0.556-1.143-0.849-1.698
			c-1.125,0.009-1.852,0.416-1.912,1.486c-0.248,1.168,1.424,0.417,1.486,1.275c-0.885,0.035-1.772,0.073-2.125-0.425
			C129.908,104.332,130.54,103.052,132.829,103.431z"/>
		<path d="M160.232,103.431c1.448-0.032,2.672,0.16,2.763,1.487c-0.722,0.566-0.805-0.925-1.699-0.85
			c-0.807,0.114-1.248,0.594-1.063,1.698c0.033,0.395,0.721,0.131,0.851,0.425C159.151,107.55,159.2,104.408,160.232,103.431z"/>
		<path d="M134.741,105.979c-0.849,2.433-2.884,4.757-3.187,8.072c-1.01,11.031,7.517,18.23,18.056,18.481
			C134.803,134.911,125.509,116.191,134.741,105.979z"/>
		<path d="M162.994,107.253c3.048,1.271,5.056,3.584,4.673,8.285c-2.515,2.201-0.79,7.301-2.123,10.196
			c0.281-2.326-0.511-4.367-0.213-6.799c0.191-1.565,1.515-2.761,1.698-4.035C167.597,111.007,164.985,109.545,162.994,107.253z"/>
		<path d="M127.52,107.679c0.379-0.06,0.437,0.201,0.212,0.212c-1.979,3.473-2.915,8.087-2.337,12.533
			c0.529,4.067,2.833,7.059,4.674,9.561C123.884,126.945,122.898,113.248,127.52,107.679z"/>
		<path d="M138.142,110.652c0.184,0.815,0.389,1.815-0.639,1.912c0.168-0.828,0.221-1.103-0.212-1.698
			c-0.81-0.103-1.326,0.089-1.486,0.637c-0.032,1.253,0.939,2.09,2.125,1.487c-0.373,1.6-2.17,0.387-2.763-0.213
			C134.544,110.084,136.564,109.518,138.142,110.652z"/>
		<path d="M153.436,112.141c-0.539-1.104-2.338-1.788-3.397-0.639c-0.019,1.081-0.095,2.218,0.425,2.762
			c1.219,0.229,1.612-0.369,2.548-0.425c-0.256,1.083-2.045,1.306-3.186,0.849c-0.429-0.773-0.718-1.688-0.639-2.974
			c-3.431-0.812-5.088,1.992-6.797,3.611c0.949-2.521,3.127-4.944,6.797-4.036C149.724,109.684,154.56,109.787,153.436,112.141z"/>
		<path d="M150.673,111.927c0.611,0.251,0.595,0.979,1.487,0.425c0.351,1.114-1.253,0.978-1.699,0.639
			C150.395,112.496,150.495,112.174,150.673,111.927z"/>
		<path d="M154.285,112.141c0.006-0.207,0.259-0.166,0.424-0.214c1.113,0.374,1.549,1.425,1.7,2.761
			C155.101,114.439,155.51,112.473,154.285,112.141z"/>
		<path d="M148.549,115.751c-4.396,3.842,3.701,7.056,6.584,3.824c-1.086,1.877-6.028,3.075-7.858,0.849
			C146.323,119.268,146.011,115.947,148.549,115.751z"/>
		<path d="M170.854,116.389c1.618-0.182,2.298,0.904,1.91,2.125c-0.714,0.076-0.354-0.921-0.639-1.273
			c-1.293-0.182-1.857,0.841-1.484,1.697c0.144,0.89,1.234,0.018,1.484,0.427c-0.373,0.946-1.563,0.51-2.123,0
			C169.588,117.672,170.731,117.538,170.854,116.389z"/>
		<path d="M144.088,117.238c-6.354-0.915-1.339,7.744,1.912,2.762c-0.001,1.77-1.465,2.075-3.187,2.123
			c0.085,1.473,1.02,2.097,1.699,2.975c0.747-0.668,1.058-1.772,2.762-1.486c-0.048,0.945-1.339,0.645-1.699,1.273
			c-1.007,6.643,9.479,1.18,3.823-1.062c1.669-0.814,2.134,1.403,2.124,2.974c-0.849,2.352-7.437,3.174-6.797-1.063
			c-0.92-0.354-1.345-1.204-2.125-1.698c0.304-1.601-2.083-2.459-2.337-4.035C139.872,117.555,141.764,115.461,144.088,117.238z"/>
		<path d="M151.735,126.797c2.391-1.505,5.129-2.66,5.312-6.373c-0.322-0.598-1.377-0.464-1.699-1.063
			c-0.07-0.778,0.235-1.18,0.425-1.698c0.667,0.504-0.063,2.458,1.912,2.124c1.205-1.198-0.1-2.823-1.487-2.764
			c0.395-1.108,1.746,0.143,2.337,0.213c1.33,2.589-2.079,2.804-1.063,5.099C156.349,124.48,154.313,126.811,151.735,126.797z"/>
		<path d="M143.239,118.088c-0.545,0.563-0.925,1.421-0.212,2.124c-0.679,0.183-0.657-0.333-1.063-0.424
			C141.921,118.753,142.059,117.896,143.239,118.088z"/>
		<path d="M171.066,122.761c0.247-0.034,0.378,0.048,0.427,0.214c-1.348,6.125-5.479,11.123-10.623,13.383
			c-1.647,0.725-3.572,0.557-5.735,1.273c-2.146,0.713-3.26,2.932-6.584,2.549c2.417,0.04,4.257-2.878,6.372-3.186
			C163.649,135.723,168.835,130.927,171.066,122.761z"/>
		<path d="M162.781,125.311c0.979,1.338-0.268,3.16-2.125,2.974C158.912,127.188,160.385,123.996,162.781,125.311z M161.082,127.859
			c1.01-0.053,1.278-0.846,1.273-1.912C161.086,124.967,159.974,127.063,161.082,127.859z"/>
		<path d="M147.486,125.311c0.868-0.064-0.035,0.293,0.212,0.85c1.059,0.277,0.904-0.654,1.7-0.639
			c-0.031,1.103-0.941,1.324-2.124,1.274C146.954,126.361,146.546,125.393,147.486,125.311z"/>
		<path d="M134.317,130.408c-0.164,1.072-0.588-0.669-1.274-0.426c-1.657,0.063-1.826,1.177-1.273,2.55
			c0.939,0.231,1.058-0.36,1.698-0.427c-0.013,0.979-0.9,1.082-1.911,1.063c-0.873-0.708-1.068-2.511-0.426-3.61
			C132.569,129.605,133.871,129.07,134.317,130.408z"/>
		<path d="M155.772,132.533c-0.047,0.683,0.375,0.898,0.212,1.697c-1.027,0.107-0.357-1.481-1.274-1.485
			c-1.297-0.068-1.604,1.542-0.851,2.336c0.882,0.243,0.828-0.447,1.487-0.424c-0.507,2.085-3.42,0.723-2.549-1.701
			C153.588,132.211,154.639,131.932,155.772,132.533z"/>
		<path d="M148.336,138.479c-0.218,0.892-1.302,0.815-1.912,0.852c-3.968,0.229-8.899-2.989-11.471-4.673
			c0.663-0.651,1.387,0.541,1.912,0.849C139.487,137.043,144.061,138.992,148.336,138.479z"/>
	</g>
	
		<line fill="none" stroke="#000000" stroke-linecap="round" stroke-miterlimit="10" x1="150.115" y1="115.945" x2="243" y2="115.945"/>
	
		<line fill="none" stroke="#000000" stroke-linecap="round" stroke-miterlimit="10" x1="243" y1="135.945" x2="150.115" y2="135.945"/>
	<g opacity="0.5">
		<polygon fill="#BCBEC0" points="149.709,111.686 147.973,111.588 146.785,111.465 145.762,111.955 144.903,112.488 
			143.43,114.002 142.57,115.352 142.202,116.662 141.057,117.684 140.771,118.831 140.894,120.141 141.506,121.204 
			142.121,121.736 142.406,122.596 142.775,123.25 142.857,123.783 143.349,124.438 144.412,125.134 145.23,125.543 145.313,126.77 
			145.6,127.506 146.212,128.1 147.317,128.57 149.709,127.957 150.387,127.67 151.001,127.098 151.573,126.688 152.68,126.646 
			153.538,126.157 154.397,125.379 155.338,124.725 156.199,123.783 156.689,122.882 156.854,121.818 157.181,120.713 
			157.223,120.018 157.999,119.936 158.408,119.076 158.449,118.176 158.121,117.563 157.385,117.07 156.525,117.193 
			156.116,115.925 156.157,115.023 156.075,113.879 155.502,112.72 154.93,111.955 154.07,112.037 153.293,111.546 153.088,110.85 
			151.696,110.646 150.306,110.688 149.938,111.219 		"/>
	</g>
</g>
<g>
	<path d="M252.957,111.616h0.944l2.619,4.532l0.78,1.496h0.044c-0.021-0.367-0.047-0.746-0.076-1.14
		c-0.028-0.392-0.045-0.778-0.045-1.16v-3.729h0.869v7.216h-0.945l-2.606-4.543l-0.781-1.484h-0.044
		c0.021,0.366,0.046,0.738,0.071,1.115c0.024,0.378,0.039,0.757,0.039,1.139v3.773h-0.869V111.616L252.957,111.616z"/>
	<path d="M260.426,112.386c-0.176,0-0.324-0.055-0.445-0.165c-0.121-0.109-0.182-0.25-0.182-0.418c0-0.176,0.061-0.316,0.182-0.424
		c0.121-0.105,0.271-0.159,0.445-0.159s0.324,0.054,0.445,0.159s0.182,0.248,0.182,0.424c0,0.168-0.061,0.309-0.182,0.418
		C260.75,112.331,260.602,112.386,260.426,112.386z M259.964,113.486h0.902v5.346h-0.902V113.486z"/>
	<path d="M263.572,119.283v1.804h-0.901v-7.601h0.748l0.077,0.615h0.031c0.242-0.205,0.509-0.381,0.8-0.527
		c0.288-0.147,0.592-0.221,0.905-0.221c0.347,0,0.649,0.064,0.914,0.192s0.483,0.312,0.66,0.55c0.176,0.238,0.309,0.524,0.4,0.858
		c0.091,0.334,0.139,0.709,0.139,1.127c0,0.455-0.063,0.86-0.188,1.215c-0.125,0.356-0.294,0.659-0.507,0.908
		c-0.213,0.25-0.459,0.438-0.736,0.565c-0.278,0.129-0.571,0.192-0.88,0.192c-0.25,0-0.497-0.055-0.742-0.165
		c-0.246-0.109-0.494-0.26-0.742-0.451L263.572,119.283z M263.572,117.645c0.242,0.205,0.478,0.35,0.703,0.435
		c0.229,0.084,0.431,0.126,0.605,0.126c0.221,0,0.424-0.049,0.611-0.148c0.187-0.099,0.348-0.238,0.482-0.418
		s0.242-0.402,0.319-0.666c0.076-0.264,0.115-0.561,0.115-0.891c0-0.293-0.025-0.561-0.077-0.803
		c-0.053-0.242-0.135-0.449-0.247-0.621c-0.114-0.172-0.262-0.307-0.44-0.402c-0.18-0.095-0.394-0.143-0.644-0.143
		c-0.228,0-0.457,0.063-0.688,0.187c-0.229,0.125-0.479,0.306-0.742,0.539v2.806H263.572z"/>
	<path d="M269.678,119.283v1.804h-0.902v-7.601h0.748l0.076,0.615h0.033c0.242-0.205,0.508-0.381,0.798-0.527
		c0.29-0.147,0.592-0.221,0.907-0.221c0.345,0,0.647,0.064,0.913,0.192c0.265,0.128,0.482,0.312,0.66,0.55
		c0.176,0.238,0.31,0.524,0.4,0.858s0.139,0.709,0.139,1.127c0,0.455-0.063,0.86-0.188,1.215c-0.125,0.356-0.294,0.659-0.507,0.908
		c-0.212,0.25-0.458,0.438-0.737,0.565c-0.278,0.129-0.571,0.192-0.879,0.192c-0.25,0-0.498-0.055-0.743-0.165
		c-0.245-0.109-0.493-0.26-0.742-0.451L269.678,119.283z M269.678,117.645c0.241,0.205,0.477,0.35,0.703,0.435
		c0.228,0.084,0.43,0.126,0.604,0.126c0.221,0,0.425-0.049,0.61-0.148c0.186-0.099,0.349-0.238,0.483-0.418
		c0.137-0.18,0.241-0.402,0.318-0.666s0.116-0.561,0.116-0.891c0-0.293-0.026-0.561-0.078-0.803
		c-0.051-0.242-0.133-0.449-0.247-0.621c-0.113-0.172-0.261-0.307-0.439-0.402c-0.181-0.095-0.395-0.143-0.644-0.143
		c-0.228,0-0.457,0.063-0.688,0.187c-0.231,0.125-0.479,0.306-0.742,0.539v2.806H269.678z"/>
	<path d="M274.88,111h0.902v6.82c0,0.146,0.024,0.25,0.076,0.308c0.052,0.06,0.109,0.088,0.177,0.088c0.028,0,0.057,0,0.082,0
		c0.024,0,0.063-0.007,0.114-0.022l0.121,0.683c-0.059,0.028-0.128,0.051-0.209,0.065c-0.08,0.016-0.184,0.022-0.308,0.022
		c-0.346,0-0.591-0.103-0.737-0.308c-0.146-0.206-0.22-0.506-0.22-0.902L274.88,111L274.88,111z"/>
	<path d="M277.289,116.17c0-0.439,0.066-0.834,0.203-1.184c0.136-0.348,0.314-0.643,0.538-0.885
		c0.225-0.242,0.479-0.427,0.766-0.556c0.286-0.128,0.583-0.192,0.891-0.192c0.337,0,0.641,0.06,0.907,0.177
		c0.268,0.116,0.492,0.286,0.672,0.506s0.316,0.483,0.412,0.792c0.096,0.308,0.143,0.652,0.143,1.033
		c0,0.199-0.011,0.363-0.032,0.496h-3.607c0.037,0.58,0.215,1.037,0.533,1.375c0.319,0.336,0.735,0.506,1.249,0.506
		c0.257,0,0.493-0.038,0.71-0.115c0.215-0.077,0.423-0.178,0.621-0.303l0.317,0.594c-0.233,0.146-0.493,0.275-0.78,0.385
		c-0.285,0.11-0.611,0.165-0.979,0.165c-0.358,0-0.695-0.063-1.006-0.192c-0.313-0.127-0.584-0.312-0.814-0.549
		c-0.229-0.238-0.411-0.531-0.545-0.875C277.354,117.002,277.289,116.609,277.289,116.17z M281.029,115.764
		c0-0.551-0.115-0.971-0.348-1.261c-0.229-0.29-0.555-0.435-0.973-0.435c-0.191,0-0.373,0.039-0.545,0.115
		c-0.173,0.077-0.328,0.188-0.468,0.33c-0.141,0.144-0.256,0.319-0.348,0.528s-0.152,0.449-0.181,0.722H281.029z"/>
</g>
<g>
	<path d="M256.59,136.965h-2.629l-0.693,2.2h-0.935l2.441-7.216h1.033l2.442,7.216h-0.968L256.59,136.965z M256.359,136.229
		l-0.342-1.1c-0.125-0.402-0.245-0.805-0.363-1.205c-0.116-0.398-0.233-0.808-0.352-1.226h-0.044
		c-0.117,0.418-0.234,0.827-0.353,1.226c-0.117,0.4-0.238,0.801-0.362,1.205l-0.354,1.1H256.359z"/>
	<path d="M259.152,133.818h0.748l0.078,0.969h0.032c0.184-0.337,0.405-0.605,0.665-0.803c0.261-0.198,0.545-0.297,0.854-0.297
		c0.214,0,0.402,0.037,0.572,0.109l-0.177,0.792c-0.088-0.028-0.169-0.051-0.241-0.065c-0.074-0.016-0.166-0.022-0.274-0.022
		c-0.229,0-0.466,0.092-0.71,0.274c-0.245,0.185-0.461,0.502-0.645,0.957v3.433h-0.902V133.818z"/>
	<path d="M262.464,136.503c0-0.44,0.066-0.834,0.204-1.183c0.135-0.348,0.313-0.644,0.539-0.885
		c0.223-0.242,0.479-0.428,0.764-0.557c0.286-0.128,0.584-0.191,0.891-0.191c0.339,0,0.642,0.059,0.908,0.176
		c0.269,0.117,0.491,0.285,0.671,0.506c0.181,0.22,0.317,0.484,0.413,0.792c0.095,0.308,0.144,0.653,0.144,1.034
		c0,0.197-0.013,0.363-0.033,0.494h-3.607c0.036,0.58,0.214,1.039,0.533,1.375c0.318,0.338,0.734,0.506,1.248,0.506
		c0.257,0,0.493-0.037,0.71-0.114c0.216-0.077,0.423-0.179,0.621-0.304l0.319,0.595c-0.234,0.147-0.495,0.274-0.781,0.385
		c-0.285,0.11-0.612,0.165-0.979,0.165c-0.358,0-0.694-0.064-1.007-0.191c-0.312-0.129-0.583-0.313-0.813-0.551
		c-0.231-0.238-0.413-0.529-0.545-0.875C262.529,137.336,262.464,136.943,262.464,136.503z M266.204,136.098
		c0-0.551-0.116-0.971-0.348-1.261c-0.229-0.29-0.555-0.435-0.974-0.435c-0.19,0-0.372,0.039-0.544,0.115
		c-0.173,0.077-0.328,0.188-0.468,0.33c-0.141,0.144-0.255,0.319-0.348,0.528c-0.092,0.209-0.151,0.449-0.182,0.722H266.204z"/>
	<path d="M267.92,136.503c0-0.446,0.067-0.845,0.203-1.192c0.137-0.349,0.316-0.645,0.545-0.887c0.228-0.242,0.49-0.425,0.787-0.55
		s0.608-0.187,0.938-0.187s0.646,0.063,0.941,0.187c0.297,0.125,0.559,0.308,0.786,0.55s0.408,0.538,0.544,0.887
		c0.137,0.348,0.204,0.746,0.204,1.192c0,0.44-0.067,0.834-0.204,1.183c-0.136,0.349-0.316,0.643-0.544,0.881
		c-0.229,0.238-0.489,0.42-0.786,0.543c-0.297,0.125-0.611,0.188-0.941,0.188s-0.643-0.063-0.938-0.188
		c-0.297-0.125-0.561-0.305-0.787-0.543c-0.228-0.238-0.408-0.532-0.545-0.881C267.988,137.338,267.92,136.943,267.92,136.503z
		 M268.855,136.503c0,0.308,0.036,0.587,0.109,0.836c0.073,0.25,0.178,0.464,0.313,0.644c0.136,0.181,0.3,0.319,0.489,0.418
		c0.191,0.1,0.4,0.148,0.627,0.148c0.229,0,0.438-0.049,0.627-0.148c0.191-0.099,0.354-0.237,0.49-0.418
		c0.135-0.18,0.24-0.394,0.313-0.644c0.072-0.249,0.109-0.528,0.109-0.836s-0.037-0.588-0.109-0.841
		c-0.073-0.253-0.18-0.471-0.313-0.655c-0.136-0.183-0.299-0.323-0.49-0.423c-0.189-0.1-0.398-0.148-0.627-0.148
		c-0.227,0-0.436,0.049-0.627,0.148c-0.189,0.1-0.354,0.24-0.489,0.423c-0.136,0.185-0.239,0.402-0.313,0.655
		S268.855,136.195,268.855,136.503z"/>
	<path d="M274.277,131.333h0.902v6.819c0,0.147,0.025,0.25,0.077,0.309s0.11,0.088,0.177,0.088c0.029,0,0.058,0,0.082,0
		c0.025,0,0.064-0.007,0.115-0.021l0.121,0.682c-0.06,0.029-0.129,0.051-0.209,0.066c-0.08,0.015-0.185,0.021-0.31,0.021
		c-0.344,0-0.59-0.104-0.735-0.308c-0.146-0.206-0.222-0.507-0.222-0.902L274.277,131.333L274.277,131.333z"/>
	<path d="M276.818,137.779c0-0.586,0.263-1.036,0.787-1.348c0.523-0.312,1.358-0.529,2.502-0.654c0-0.168-0.016-0.334-0.049-0.495
		c-0.033-0.162-0.092-0.304-0.176-0.429c-0.085-0.125-0.197-0.227-0.336-0.303c-0.141-0.076-0.319-0.115-0.539-0.115
		c-0.315,0-0.607,0.059-0.875,0.176c-0.269,0.117-0.508,0.25-0.721,0.396l-0.362-0.627c0.249-0.161,0.554-0.317,0.913-0.467
		c0.358-0.149,0.755-0.226,1.188-0.226c0.652,0,1.126,0.199,1.42,0.6c0.293,0.4,0.439,0.934,0.439,1.602v3.277h-0.748l-0.077-0.639
		h-0.021c-0.257,0.214-0.533,0.396-0.83,0.546c-0.297,0.149-0.61,0.225-0.94,0.225c-0.454,0-0.831-0.132-1.128-0.396
		S276.818,138.264,276.818,137.779z M277.709,137.713c0,0.309,0.09,0.528,0.27,0.66c0.181,0.132,0.402,0.197,0.666,0.197
		c0.257,0,0.5-0.06,0.731-0.18c0.23-0.121,0.476-0.3,0.73-0.535v-1.484c-0.446,0.059-0.824,0.128-1.133,0.209
		s-0.556,0.176-0.742,0.286c-0.188,0.11-0.32,0.235-0.401,0.379C277.75,137.389,277.709,137.545,277.709,137.713z"/>
	<path d="M282.527,134.645c0-0.211,0.064-0.383,0.193-0.512c0.127-0.128,0.283-0.191,0.467-0.191c0.176,0,0.328,0.063,0.457,0.191
		c0.128,0.128,0.191,0.299,0.191,0.512c0,0.198-0.063,0.361-0.191,0.489c-0.129,0.128-0.281,0.193-0.457,0.193
		c-0.184,0-0.34-0.063-0.467-0.193C282.592,135.006,282.527,134.842,282.527,134.645z M282.527,138.616
		c0-0.214,0.064-0.384,0.193-0.513c0.127-0.127,0.283-0.191,0.467-0.191c0.176,0,0.328,0.064,0.457,0.191
		c0.128,0.129,0.191,0.299,0.191,0.513c0,0.198-0.063,0.36-0.191,0.489c-0.129,0.127-0.281,0.191-0.457,0.191
		c-0.184,0-0.34-0.064-0.467-0.191C282.592,138.977,282.527,138.813,282.527,138.616z"/>
	<path d="M287.279,136.503c0-0.446,0.07-0.845,0.209-1.192c0.14-0.349,0.326-0.645,0.562-0.887s0.508-0.425,0.82-0.55
		c0.312-0.125,0.64-0.187,0.983-0.187c0.353,0,0.654,0.063,0.907,0.191s0.472,0.277,0.655,0.446l-0.451,0.583
		c-0.162-0.139-0.328-0.253-0.501-0.342c-0.173-0.088-0.364-0.131-0.577-0.131c-0.242,0-0.466,0.049-0.672,0.147
		c-0.205,0.099-0.381,0.24-0.527,0.423c-0.146,0.184-0.262,0.402-0.347,0.655s-0.126,0.532-0.126,0.841s0.04,0.587,0.121,0.836
		c0.08,0.25,0.19,0.464,0.335,0.645c0.144,0.18,0.316,0.318,0.521,0.418c0.205,0.099,0.431,0.147,0.671,0.147
		c0.258,0,0.489-0.053,0.698-0.159c0.209-0.105,0.396-0.232,0.558-0.379l0.405,0.594c-0.241,0.213-0.512,0.381-0.809,0.506
		s-0.607,0.188-0.93,0.188c-0.353,0-0.683-0.063-0.99-0.188c-0.309-0.125-0.573-0.306-0.797-0.543
		c-0.225-0.238-0.4-0.532-0.527-0.881C287.344,137.338,287.279,136.943,287.279,136.503z"/>
	<path d="M293.153,132.72c-0.176,0-0.323-0.055-0.444-0.165c-0.121-0.109-0.183-0.25-0.183-0.418c0-0.176,0.062-0.316,0.183-0.424
		c0.121-0.105,0.27-0.158,0.444-0.158c0.178,0,0.325,0.053,0.446,0.158s0.183,0.248,0.183,0.424c0,0.168-0.062,0.309-0.183,0.418
		C293.479,132.665,293.33,132.72,293.153,132.72z M292.691,133.818h0.902v5.347h-0.902V133.818z"/>
	<path d="M295.397,133.818h0.748l0.077,0.969h0.033c0.184-0.337,0.404-0.605,0.665-0.803c0.261-0.198,0.545-0.297,0.853-0.297
		c0.213,0,0.403,0.037,0.572,0.109l-0.176,0.792c-0.088-0.028-0.169-0.051-0.242-0.065c-0.074-0.016-0.165-0.022-0.275-0.022
		c-0.227,0-0.464,0.092-0.709,0.274c-0.246,0.185-0.461,0.502-0.644,0.957v3.433h-0.902V133.818L295.397,133.818z"/>
	<path d="M298.709,136.503c0-0.446,0.068-0.845,0.209-1.192c0.139-0.349,0.325-0.645,0.561-0.887c0.234-0.242,0.508-0.425,0.82-0.55
		c0.311-0.125,0.639-0.187,0.983-0.187c0.353,0,0.654,0.063,0.906,0.191c0.254,0.128,0.472,0.277,0.655,0.446l-0.451,0.583
		c-0.161-0.139-0.328-0.253-0.501-0.342c-0.172-0.088-0.364-0.131-0.577-0.131c-0.241,0-0.466,0.049-0.671,0.147
		s-0.381,0.24-0.527,0.423c-0.146,0.184-0.263,0.402-0.348,0.655c-0.084,0.253-0.126,0.532-0.126,0.841s0.04,0.587,0.121,0.836
		c0.081,0.25,0.191,0.464,0.335,0.645c0.144,0.18,0.318,0.318,0.522,0.418c0.205,0.099,0.43,0.147,0.671,0.147
		c0.258,0,0.489-0.053,0.698-0.159c0.209-0.105,0.396-0.232,0.557-0.379l0.406,0.594c-0.241,0.213-0.512,0.381-0.809,0.506
		s-0.606,0.188-0.93,0.188c-0.353,0-0.683-0.063-0.99-0.188c-0.309-0.125-0.574-0.306-0.797-0.543
		c-0.225-0.238-0.4-0.532-0.528-0.881C298.772,137.338,298.709,136.943,298.709,136.503z"/>
	<path d="M304.044,133.818h0.912v3.268c0,0.506,0.078,0.871,0.236,1.096c0.158,0.224,0.412,0.334,0.764,0.334
		c0.279,0,0.525-0.072,0.738-0.214c0.212-0.143,0.447-0.372,0.703-0.688v-3.796h0.902v5.347h-0.748l-0.077-0.836h-0.032
		c-0.25,0.293-0.512,0.528-0.787,0.704c-0.274,0.176-0.6,0.264-0.974,0.264c-0.571,0-0.988-0.176-1.249-0.527
		c-0.26-0.353-0.39-0.873-0.39-1.563L304.044,133.818L304.044,133.818z"/>
	<path d="M310.104,131.333h0.902v6.819c0,0.147,0.024,0.25,0.076,0.309s0.109,0.088,0.177,0.088c0.028,0,0.057,0,0.082,0
		c0.024,0,0.063-0.007,0.114-0.021l0.121,0.682c-0.059,0.029-0.128,0.051-0.209,0.066c-0.08,0.015-0.184,0.021-0.308,0.021
		c-0.345,0-0.591-0.104-0.737-0.308c-0.146-0.206-0.22-0.507-0.22-0.902L310.104,131.333L310.104,131.333z"/>
	<path d="M312.646,137.779c0-0.586,0.262-1.036,0.786-1.348c0.523-0.311,1.359-0.529,2.502-0.654c0-0.168-0.016-0.334-0.049-0.495
		c-0.033-0.162-0.092-0.304-0.176-0.429s-0.196-0.227-0.337-0.303c-0.139-0.076-0.317-0.115-0.538-0.115
		c-0.314,0-0.606,0.059-0.874,0.176c-0.27,0.117-0.509,0.25-0.722,0.396l-0.361-0.627c0.248-0.161,0.553-0.317,0.911-0.467
		c0.359-0.149,0.757-0.226,1.188-0.226c0.652,0,1.126,0.199,1.419,0.6s0.439,0.934,0.439,1.602v3.277h-0.748l-0.076-0.639h-0.022
		c-0.257,0.214-0.533,0.396-0.831,0.546c-0.297,0.149-0.608,0.225-0.938,0.225c-0.455,0-0.831-0.132-1.128-0.396
		S312.646,138.264,312.646,137.779z M313.535,137.713c0,0.309,0.091,0.528,0.271,0.66s0.4,0.197,0.665,0.197
		c0.258,0,0.501-0.06,0.731-0.18c0.23-0.121,0.476-0.3,0.73-0.535v-1.484c-0.447,0.059-0.824,0.128-1.133,0.209
		s-0.556,0.176-0.742,0.286c-0.188,0.11-0.32,0.235-0.401,0.379S313.535,137.545,313.535,137.713z"/>
	<path d="M318.54,133.818h0.748l0.077,0.969h0.032c0.184-0.337,0.406-0.605,0.666-0.803c0.26-0.198,0.545-0.297,0.853-0.297
		c0.214,0,0.403,0.037,0.572,0.109l-0.177,0.792c-0.088-0.028-0.168-0.051-0.241-0.065c-0.073-0.016-0.165-0.022-0.273-0.022
		c-0.229,0-0.466,0.092-0.711,0.274c-0.245,0.185-0.459,0.502-0.644,0.957v3.433h-0.902V133.818L318.54,133.818z"/>
	<path d="M324.579,133.818h0.748l0.077,0.771h0.032c0.235-0.256,0.49-0.471,0.766-0.644c0.274-0.172,0.573-0.258,0.896-0.258
		c0.41,0,0.729,0.09,0.962,0.27s0.401,0.432,0.512,0.753c0.278-0.308,0.561-0.556,0.841-0.742c0.283-0.187,0.591-0.28,0.919-0.28
		c0.551,0,0.959,0.176,1.228,0.527c0.268,0.352,0.401,0.873,0.401,1.563v3.388h-0.902v-3.267c0-0.506-0.08-0.871-0.241-1.094
		c-0.161-0.224-0.411-0.336-0.748-0.336c-0.403,0-0.851,0.275-1.343,0.825v3.872h-0.901v-3.268c0-0.506-0.081-0.871-0.241-1.094
		c-0.161-0.223-0.414-0.335-0.76-0.335c-0.402,0-0.851,0.275-1.342,0.825v3.872h-0.902L324.579,133.818L324.579,133.818z"/>
	<path d="M333.622,133.818h0.912v3.268c0,0.506,0.079,0.871,0.236,1.096c0.158,0.224,0.413,0.334,0.765,0.334
		c0.278,0,0.524-0.072,0.737-0.214c0.213-0.143,0.447-0.372,0.704-0.688v-3.796h0.901v5.347h-0.748l-0.076-0.836h-0.033
		c-0.25,0.293-0.512,0.528-0.787,0.704c-0.273,0.176-0.6,0.264-0.973,0.264c-0.572,0-0.988-0.176-1.249-0.527
		c-0.261-0.353-0.391-0.873-0.391-1.563L333.622,133.818L333.622,133.818z"/>
	<path d="M339.539,137.956c0.235,0.19,0.477,0.345,0.722,0.462c0.245,0.118,0.53,0.176,0.853,0.176c0.353,0,0.616-0.08,0.792-0.242
		c0.176-0.16,0.266-0.358,0.266-0.594c0-0.139-0.037-0.26-0.111-0.363c-0.072-0.103-0.166-0.191-0.279-0.27
		c-0.113-0.077-0.244-0.145-0.391-0.204s-0.294-0.117-0.44-0.176c-0.189-0.065-0.382-0.142-0.57-0.226
		c-0.191-0.084-0.361-0.188-0.513-0.309c-0.15-0.121-0.272-0.262-0.368-0.423c-0.097-0.161-0.144-0.354-0.144-0.583
		c0-0.213,0.042-0.413,0.127-0.6c0.084-0.188,0.205-0.349,0.362-0.484c0.157-0.137,0.351-0.242,0.577-0.319
		c0.228-0.077,0.483-0.116,0.771-0.116c0.337,0,0.647,0.06,0.929,0.176c0.283,0.117,0.527,0.261,0.732,0.43l-0.43,0.572
		c-0.185-0.141-0.373-0.254-0.572-0.342c-0.197-0.088-0.414-0.131-0.648-0.131c-0.338,0-0.585,0.076-0.741,0.23
		c-0.158,0.154-0.236,0.334-0.236,0.539c0,0.125,0.033,0.23,0.099,0.318c0.066,0.088,0.153,0.17,0.266,0.242
		c0.108,0.073,0.235,0.137,0.379,0.192c0.143,0.055,0.291,0.112,0.444,0.17c0.191,0.073,0.384,0.149,0.578,0.231
		c0.193,0.08,0.368,0.182,0.521,0.303c0.154,0.121,0.281,0.27,0.38,0.445s0.148,0.389,0.148,0.638c0,0.22-0.042,0.425-0.126,0.616
		c-0.086,0.19-0.21,0.358-0.375,0.506c-0.164,0.146-0.369,0.262-0.615,0.346s-0.526,0.126-0.842,0.126
		c-0.382,0-0.744-0.069-1.09-0.209c-0.345-0.139-0.646-0.315-0.9-0.528L339.539,137.956z"/>
	<path d="M343.896,136.503c0-0.446,0.069-0.845,0.209-1.192c0.139-0.349,0.326-0.645,0.562-0.887
		c0.233-0.242,0.508-0.425,0.819-0.55s0.64-0.187,0.984-0.187c0.352,0,0.653,0.063,0.906,0.191c0.254,0.128,0.472,0.277,0.654,0.446
		l-0.451,0.583c-0.16-0.139-0.327-0.253-0.501-0.342c-0.172-0.088-0.363-0.131-0.576-0.131c-0.241,0-0.467,0.049-0.672,0.147
		c-0.204,0.099-0.381,0.24-0.526,0.423c-0.147,0.184-0.263,0.402-0.349,0.655c-0.084,0.253-0.126,0.532-0.126,0.841
		s0.04,0.587,0.121,0.836c0.081,0.25,0.192,0.464,0.335,0.645c0.145,0.18,0.318,0.318,0.523,0.418
		c0.205,0.099,0.429,0.147,0.67,0.147c0.258,0,0.49-0.053,0.699-0.159c0.209-0.105,0.395-0.232,0.556-0.379l0.407,0.594
		c-0.242,0.213-0.512,0.381-0.809,0.506c-0.298,0.125-0.607,0.188-0.931,0.188c-0.352,0-0.682-0.063-0.989-0.188
		c-0.31-0.125-0.574-0.306-0.798-0.543c-0.225-0.238-0.399-0.532-0.527-0.881C343.959,137.338,343.896,136.943,343.896,136.503z"/>
	<path d="M349.309,131.333h0.902v6.819c0,0.147,0.024,0.25,0.075,0.309c0.052,0.059,0.11,0.088,0.177,0.088c0.028,0,0.057,0,0.083,0
		c0.024,0,0.063-0.007,0.114-0.021l0.121,0.682c-0.059,0.029-0.128,0.051-0.209,0.066c-0.081,0.015-0.184,0.021-0.308,0.021
		c-0.347,0-0.591-0.104-0.737-0.308c-0.146-0.206-0.22-0.507-0.22-0.902L349.309,131.333L349.309,131.333z"/>
	<path d="M351.717,136.503c0-0.44,0.067-0.834,0.203-1.183c0.137-0.348,0.315-0.644,0.539-0.885
		c0.225-0.242,0.479-0.428,0.766-0.557c0.285-0.128,0.582-0.191,0.891-0.191c0.337,0,0.641,0.059,0.907,0.176
		c0.269,0.117,0.491,0.285,0.671,0.506c0.18,0.22,0.317,0.484,0.412,0.792c0.096,0.308,0.145,0.653,0.145,1.034
		c0,0.197-0.012,0.363-0.033,0.494h-3.608c0.037,0.58,0.215,1.039,0.534,1.375c0.319,0.338,0.735,0.506,1.249,0.506
		c0.256,0,0.492-0.037,0.709-0.114c0.216-0.077,0.424-0.179,0.621-0.304l0.319,0.595c-0.235,0.147-0.495,0.274-0.781,0.385
		s-0.612,0.165-0.979,0.165c-0.358,0-0.693-0.064-1.006-0.191c-0.313-0.129-0.583-0.313-0.813-0.551s-0.412-0.529-0.545-0.875
		C351.784,137.335,351.717,136.943,351.717,136.503z M355.456,136.098c0-0.551-0.114-0.971-0.347-1.261
		c-0.23-0.29-0.556-0.435-0.974-0.435c-0.19,0-0.372,0.039-0.545,0.115c-0.172,0.077-0.328,0.188-0.468,0.33
		c-0.14,0.144-0.255,0.319-0.347,0.528s-0.151,0.449-0.181,0.722H355.456z"/>
	<path d="M362.199,132.07c-0.197-0.088-0.398-0.133-0.604-0.133c-0.5,0-0.748,0.346-0.748,1.035v0.846h1.133v0.738h-1.133v4.608
		h-0.902v-4.608h-0.727v-0.683l0.727-0.056v-0.846c0-0.551,0.127-0.983,0.379-1.299c0.254-0.314,0.647-0.473,1.185-0.473
		c0.168,0,0.328,0.017,0.479,0.049c0.149,0.033,0.287,0.075,0.412,0.126L362.199,132.07z"/>
	<path d="M363.465,132.72c-0.177,0-0.324-0.055-0.445-0.165c-0.121-0.109-0.182-0.25-0.182-0.418c0-0.176,0.061-0.316,0.182-0.424
		c0.121-0.105,0.27-0.158,0.445-0.158c0.175,0,0.323,0.053,0.444,0.158s0.183,0.248,0.183,0.424c0,0.168-0.062,0.309-0.183,0.418
		C363.788,132.665,363.641,132.72,363.465,132.72z M363.003,133.818h0.901v5.347h-0.901V133.818z"/>
	<path d="M365.709,131.333h0.901v2.134l-0.021,0.969c0.24-0.213,0.506-0.392,0.791-0.535c0.286-0.143,0.58-0.213,0.881-0.213
		c0.344,0,0.647,0.063,0.912,0.191c0.264,0.128,0.485,0.313,0.666,0.551c0.18,0.237,0.313,0.523,0.405,0.857
		c0.093,0.334,0.14,0.706,0.14,1.115c0,0.455-0.063,0.863-0.188,1.222s-0.293,0.664-0.506,0.913
		c-0.213,0.25-0.459,0.438-0.737,0.566c-0.277,0.127-0.57,0.191-0.88,0.191c-0.25,0-0.508-0.057-0.774-0.17
		c-0.268-0.113-0.521-0.277-0.754-0.489h-0.033l-0.076,0.528h-0.727V131.333L365.709,131.333z M366.611,137.979
		c0.234,0.205,0.467,0.35,0.698,0.435c0.23,0.085,0.435,0.126,0.61,0.126c0.221,0,0.424-0.049,0.61-0.148
		c0.188-0.099,0.349-0.238,0.483-0.418s0.242-0.401,0.318-0.666c0.076-0.264,0.115-0.561,0.115-0.891
		c0-0.293-0.024-0.561-0.077-0.803c-0.052-0.242-0.134-0.449-0.247-0.621s-0.261-0.307-0.439-0.402
		c-0.18-0.095-0.395-0.143-0.645-0.143c-0.433,0-0.908,0.242-1.43,0.726v2.806H366.611z"/>
	<path d="M371.814,133.818h0.748l0.076,0.969h0.033c0.184-0.337,0.404-0.605,0.666-0.803c0.26-0.198,0.545-0.297,0.852-0.297
		c0.213,0,0.404,0.037,0.572,0.109l-0.177,0.792c-0.088-0.028-0.168-0.051-0.241-0.065c-0.073-0.016-0.164-0.022-0.274-0.022
		c-0.228,0-0.464,0.092-0.71,0.274c-0.246,0.185-0.46,0.502-0.643,0.957v3.433h-0.902V133.818L371.814,133.818z"/>
	<path d="M375.125,136.503c0-0.44,0.067-0.834,0.202-1.183c0.138-0.348,0.316-0.644,0.539-0.885
		c0.226-0.242,0.479-0.428,0.767-0.557c0.285-0.128,0.582-0.191,0.891-0.191c0.337,0,0.64,0.059,0.907,0.176
		s0.491,0.285,0.671,0.506c0.18,0.22,0.317,0.484,0.412,0.792c0.096,0.308,0.144,0.653,0.144,1.034c0,0.197-0.011,0.363-0.032,0.494
		h-3.608c0.037,0.58,0.215,1.039,0.534,1.375c0.318,0.338,0.734,0.506,1.249,0.506c0.256,0,0.491-0.037,0.709-0.114
		c0.216-0.077,0.424-0.179,0.621-0.304l0.318,0.595c-0.234,0.147-0.495,0.274-0.78,0.385c-0.286,0.11-0.612,0.165-0.979,0.165
		c-0.359,0-0.694-0.064-1.006-0.191c-0.313-0.129-0.583-0.313-0.814-0.551c-0.229-0.238-0.412-0.529-0.544-0.875
		C375.193,137.335,375.125,136.943,375.125,136.503z M378.865,136.098c0-0.551-0.114-0.971-0.347-1.261
		c-0.231-0.29-0.556-0.435-0.974-0.435c-0.19,0-0.372,0.039-0.546,0.115c-0.172,0.077-0.327,0.188-0.467,0.33
		c-0.14,0.144-0.255,0.319-0.347,0.528s-0.152,0.449-0.181,0.722H378.865z"/>
	<path d="M380.834,137.956c0.233,0.19,0.475,0.345,0.721,0.462c0.246,0.118,0.529,0.176,0.853,0.176c0.354,0,0.616-0.08,0.792-0.242
		c0.177-0.16,0.265-0.358,0.265-0.594c0-0.139-0.037-0.26-0.109-0.363c-0.074-0.103-0.167-0.191-0.281-0.27
		c-0.112-0.077-0.244-0.145-0.391-0.204s-0.293-0.117-0.439-0.176c-0.19-0.065-0.381-0.142-0.571-0.226s-0.361-0.188-0.513-0.309
		c-0.15-0.121-0.272-0.262-0.367-0.423c-0.096-0.161-0.145-0.354-0.145-0.583c0-0.213,0.043-0.413,0.127-0.6
		c0.084-0.188,0.205-0.349,0.363-0.484c0.158-0.137,0.35-0.242,0.578-0.319c0.227-0.077,0.482-0.116,0.77-0.116
		c0.337,0,0.646,0.06,0.931,0.176c0.28,0.117,0.524,0.261,0.729,0.43l-0.428,0.572c-0.185-0.141-0.375-0.254-0.572-0.342
		c-0.198-0.088-0.414-0.131-0.649-0.131c-0.337,0-0.585,0.076-0.741,0.23c-0.158,0.154-0.237,0.334-0.237,0.539
		c0,0.125,0.033,0.23,0.1,0.318c0.067,0.088,0.154,0.17,0.265,0.242c0.109,0.073,0.235,0.137,0.38,0.192
		c0.144,0.055,0.292,0.112,0.445,0.17c0.189,0.073,0.384,0.149,0.576,0.231c0.195,0.08,0.369,0.182,0.523,0.303
		c0.153,0.121,0.279,0.27,0.379,0.445s0.148,0.389,0.148,0.638c0,0.22-0.042,0.425-0.127,0.616c-0.084,0.19-0.209,0.358-0.373,0.506
		c-0.166,0.146-0.371,0.262-0.616,0.346c-0.246,0.084-0.526,0.126-0.842,0.126c-0.383,0-0.744-0.069-1.09-0.209
		c-0.345-0.139-0.646-0.315-0.901-0.528L380.834,137.956z"/>
	<path d="M385.2,140.507c0.31-0.139,0.55-0.323,0.728-0.55c0.176-0.229,0.264-0.491,0.264-0.792
		c-0.021,0.007-0.059,0.011-0.11,0.011c-0.176,0-0.327-0.053-0.455-0.16c-0.13-0.105-0.193-0.262-0.193-0.468
		c0-0.198,0.065-0.354,0.198-0.467c0.132-0.113,0.29-0.17,0.474-0.17c0.234,0,0.42,0.095,0.555,0.286
		c0.138,0.189,0.204,0.451,0.204,0.781c0,0.477-0.128,0.891-0.386,1.242c-0.256,0.353-0.608,0.623-1.056,0.814L385.2,140.507z"/>
	<path d="M252.85,149.703c0-0.434,0.064-0.823,0.193-1.171c0.128-0.349,0.299-0.644,0.512-0.886c0.212-0.242,0.457-0.43,0.736-0.562
		c0.278-0.132,0.571-0.198,0.88-0.198c0.308,0,0.575,0.055,0.804,0.165c0.228,0.11,0.457,0.261,0.692,0.451l-0.044-0.913v-2.057
		h0.913v7.832h-0.748l-0.077-0.627h-0.033c-0.213,0.205-0.456,0.383-0.731,0.533c-0.273,0.15-0.568,0.226-0.886,0.226
		c-0.674,0-1.211-0.242-1.61-0.726C253.05,151.287,252.85,150.598,252.85,149.703z M253.785,149.691
		c0,0.646,0.128,1.147,0.385,1.508c0.257,0.359,0.619,0.539,1.089,0.539c0.249,0,0.484-0.062,0.704-0.182
		c0.221-0.121,0.438-0.307,0.66-0.556v-2.794c-0.229-0.205-0.445-0.35-0.654-0.434s-0.424-0.127-0.644-0.127
		c-0.214,0-0.413,0.049-0.601,0.148c-0.187,0.1-0.351,0.238-0.489,0.418c-0.14,0.18-0.25,0.395-0.33,0.645
		C253.825,149.105,253.785,149.384,253.785,149.691z"/>
	<path d="M258.943,149.703c0-0.439,0.068-0.834,0.204-1.184c0.137-0.348,0.315-0.643,0.539-0.885
		c0.225-0.242,0.479-0.427,0.766-0.556c0.284-0.128,0.583-0.192,0.891-0.192c0.338,0,0.641,0.06,0.908,0.176
		c0.268,0.117,0.489,0.287,0.67,0.506c0.18,0.221,0.317,0.484,0.413,0.793c0.095,0.308,0.144,0.652,0.144,1.033
		c0,0.198-0.012,0.363-0.033,0.496h-3.607c0.036,0.579,0.214,1.037,0.534,1.375c0.317,0.336,0.733,0.506,1.248,0.506
		c0.256,0,0.491-0.039,0.709-0.115c0.217-0.077,0.424-0.178,0.621-0.303l0.319,0.594c-0.234,0.146-0.496,0.275-0.781,0.385
		s-0.612,0.165-0.979,0.165c-0.359,0-0.694-0.063-1.007-0.192c-0.313-0.128-0.582-0.312-0.813-0.55
		c-0.23-0.237-0.413-0.53-0.544-0.875C259.01,150.536,258.943,150.143,258.943,149.703z M262.684,149.296
		c0-0.55-0.115-0.97-0.346-1.26c-0.231-0.29-0.557-0.435-0.976-0.435c-0.188,0-0.37,0.039-0.544,0.115
		c-0.173,0.077-0.328,0.188-0.468,0.33c-0.139,0.143-0.254,0.319-0.346,0.528s-0.152,0.448-0.183,0.721H262.684z"/>
	<path d="M264.4,149.703c0-0.439,0.067-0.834,0.203-1.184c0.136-0.348,0.315-0.643,0.539-0.885c0.225-0.242,0.479-0.427,0.766-0.556
		c0.285-0.128,0.583-0.192,0.891-0.192c0.337,0,0.64,0.06,0.907,0.176c0.268,0.117,0.491,0.287,0.672,0.506
		c0.18,0.221,0.315,0.484,0.412,0.793c0.096,0.308,0.143,0.652,0.143,1.033c0,0.198-0.011,0.363-0.033,0.496h-3.606
		c0.037,0.579,0.215,1.037,0.533,1.375c0.318,0.336,0.734,0.506,1.249,0.506c0.257,0,0.492-0.039,0.71-0.115
		c0.215-0.077,0.423-0.178,0.62-0.303l0.318,0.594c-0.234,0.146-0.494,0.275-0.781,0.385c-0.285,0.109-0.61,0.165-0.979,0.165
		c-0.359,0-0.695-0.063-1.006-0.192c-0.313-0.128-0.584-0.312-0.814-0.55c-0.229-0.237-0.412-0.53-0.545-0.875
		C264.466,150.536,264.4,150.143,264.4,149.703z M268.141,149.296c0-0.55-0.116-0.97-0.348-1.26c-0.23-0.29-0.556-0.435-0.974-0.435
		c-0.19,0-0.373,0.039-0.545,0.115c-0.172,0.077-0.328,0.188-0.467,0.33c-0.141,0.143-0.256,0.319-0.348,0.528
		s-0.152,0.448-0.182,0.721H268.141z"/>
	<path d="M271.154,152.816v1.804h-0.901v-7.601H271l0.077,0.615h0.031c0.242-0.205,0.509-0.381,0.8-0.527
		c0.288-0.147,0.592-0.221,0.905-0.221c0.347,0,0.649,0.064,0.914,0.192s0.483,0.312,0.66,0.55c0.176,0.238,0.309,0.523,0.4,0.857
		c0.091,0.334,0.139,0.709,0.139,1.128c0,0.454-0.063,0.86-0.188,1.215c-0.125,0.356-0.294,0.659-0.507,0.907
		c-0.213,0.25-0.459,0.438-0.736,0.566c-0.278,0.129-0.571,0.192-0.88,0.192c-0.25,0-0.497-0.056-0.742-0.165
		c-0.246-0.11-0.494-0.26-0.742-0.451L271.154,152.816z M271.154,151.177c0.242,0.206,0.478,0.351,0.703,0.435
		c0.229,0.084,0.431,0.127,0.605,0.127c0.221,0,0.424-0.049,0.61-0.148c0.188-0.099,0.349-0.238,0.483-0.418
		s0.242-0.402,0.319-0.666c0.076-0.264,0.114-0.561,0.114-0.891c0-0.293-0.024-0.561-0.076-0.803
		c-0.053-0.242-0.135-0.449-0.247-0.621c-0.114-0.172-0.262-0.307-0.44-0.402c-0.18-0.096-0.394-0.143-0.644-0.143
		c-0.228,0-0.457,0.063-0.688,0.187c-0.229,0.125-0.479,0.306-0.742,0.539v2.805H271.154z"/>
	<path d="M278.733,147.756h-0.792v-0.682l0.836-0.055l0.109-1.496h0.76v1.496h1.441v0.736h-1.441v2.971
		c0,0.33,0.062,0.584,0.183,0.765c0.121,0.18,0.335,0.27,0.643,0.27c0.096,0,0.199-0.015,0.309-0.044
		c0.11-0.029,0.21-0.063,0.298-0.099l0.176,0.682c-0.146,0.052-0.308,0.097-0.479,0.138s-0.343,0.061-0.512,0.061
		c-0.285,0-0.525-0.044-0.721-0.132c-0.193-0.089-0.353-0.209-0.474-0.363c-0.121-0.153-0.207-0.341-0.258-0.562
		c-0.052-0.219-0.077-0.461-0.077-0.726V147.756L278.733,147.756z"/>
	<path d="M281.791,149.703c0-0.447,0.067-0.846,0.203-1.193c0.137-0.348,0.316-0.644,0.545-0.886
		c0.228-0.242,0.489-0.425,0.787-0.55c0.297-0.125,0.608-0.188,0.938-0.188s0.646,0.063,0.941,0.188
		c0.297,0.125,0.559,0.308,0.786,0.55s0.408,0.538,0.544,0.886c0.137,0.348,0.204,0.746,0.204,1.193
		c0,0.439-0.067,0.834-0.204,1.183c-0.136,0.349-0.316,0.642-0.544,0.88c-0.229,0.238-0.489,0.42-0.786,0.545
		s-0.611,0.187-0.941,0.187s-0.643-0.062-0.938-0.187c-0.298-0.125-0.561-0.307-0.787-0.545c-0.228-0.238-0.408-0.531-0.545-0.88
		C281.859,150.538,281.791,150.143,281.791,149.703z M282.727,149.703c0,0.308,0.036,0.587,0.109,0.836
		c0.073,0.25,0.178,0.464,0.313,0.645c0.136,0.18,0.299,0.318,0.489,0.418c0.191,0.099,0.4,0.147,0.627,0.147
		c0.229,0,0.438-0.049,0.627-0.147c0.191-0.1,0.354-0.238,0.49-0.418c0.135-0.181,0.24-0.395,0.313-0.645
		c0.073-0.249,0.11-0.528,0.11-0.836c0-0.309-0.037-0.588-0.11-0.842c-0.072-0.252-0.179-0.471-0.313-0.654
		c-0.136-0.184-0.299-0.324-0.49-0.423c-0.189-0.099-0.398-0.148-0.627-0.148c-0.227,0-0.436,0.05-0.627,0.148
		c-0.19,0.099-0.354,0.239-0.489,0.423s-0.239,0.402-0.313,0.654C282.763,149.115,282.727,149.395,282.727,149.703z"/>
	<path d="M291.273,152.816v1.804h-0.901v-7.601h0.748l0.076,0.615h0.032c0.242-0.205,0.508-0.381,0.799-0.527
		c0.289-0.147,0.593-0.221,0.906-0.221c0.346,0,0.649,0.064,0.914,0.192c0.264,0.128,0.483,0.312,0.66,0.55
		c0.176,0.238,0.309,0.523,0.4,0.857c0.091,0.334,0.139,0.709,0.139,1.128c0,0.454-0.063,0.86-0.188,1.215
		c-0.125,0.356-0.293,0.659-0.506,0.907c-0.213,0.25-0.459,0.438-0.736,0.566c-0.278,0.129-0.571,0.192-0.881,0.192
		c-0.25,0-0.497-0.056-0.741-0.165c-0.246-0.11-0.494-0.26-0.742-0.451L291.273,152.816z M291.273,151.177
		c0.242,0.206,0.478,0.351,0.703,0.435c0.229,0.084,0.43,0.127,0.605,0.127c0.221,0,0.424-0.049,0.61-0.148
		c0.188-0.099,0.349-0.238,0.483-0.418s0.242-0.402,0.319-0.666c0.075-0.264,0.114-0.561,0.114-0.891
		c0-0.293-0.024-0.561-0.076-0.803c-0.053-0.242-0.135-0.449-0.247-0.621c-0.114-0.172-0.262-0.307-0.44-0.402
		c-0.18-0.096-0.394-0.143-0.644-0.143c-0.228,0-0.457,0.063-0.688,0.187c-0.229,0.125-0.479,0.306-0.742,0.539v2.805H291.273z"/>
	<path d="M296.938,145.919c-0.176,0-0.324-0.055-0.444-0.165c-0.121-0.109-0.183-0.25-0.183-0.418c0-0.176,0.062-0.316,0.183-0.424
		c0.12-0.105,0.27-0.159,0.444-0.159c0.177,0,0.325,0.054,0.446,0.159s0.182,0.248,0.182,0.424c0,0.168-0.061,0.309-0.182,0.418
		C297.263,145.864,297.114,145.919,296.938,145.919z M296.477,147.02h0.902v5.346h-0.902V147.02z"/>
	<path d="M298.775,153.389c0-0.229,0.069-0.445,0.209-0.649c0.139-0.206,0.33-0.392,0.572-0.562v-0.044
		c-0.133-0.081-0.244-0.192-0.336-0.335s-0.138-0.32-0.138-0.533c0-0.228,0.063-0.426,0.188-0.595
		c0.124-0.169,0.257-0.301,0.396-0.396v-0.045c-0.177-0.146-0.337-0.342-0.479-0.588s-0.215-0.531-0.215-0.854
		c0-0.293,0.054-0.557,0.16-0.792c0.104-0.233,0.251-0.435,0.435-0.599c0.184-0.166,0.397-0.293,0.645-0.381
		c0.246-0.088,0.504-0.132,0.774-0.132c0.146,0,0.284,0.013,0.412,0.039c0.129,0.026,0.244,0.058,0.347,0.093h1.859v0.693h-1.101
		c0.125,0.125,0.229,0.282,0.313,0.473c0.084,0.191,0.126,0.4,0.126,0.627c0,0.287-0.052,0.545-0.154,0.776
		c-0.102,0.231-0.24,0.425-0.418,0.583c-0.176,0.158-0.384,0.28-0.62,0.368c-0.239,0.088-0.493,0.132-0.766,0.132
		c-0.132,0-0.268-0.018-0.407-0.05c-0.14-0.033-0.271-0.079-0.396-0.138c-0.096,0.082-0.176,0.17-0.242,0.271
		c-0.066,0.099-0.1,0.222-0.1,0.368c0,0.169,0.065,0.308,0.197,0.418c0.133,0.109,0.383,0.165,0.748,0.165h1.034
		c0.623,0,1.091,0.101,1.402,0.303c0.313,0.202,0.468,0.526,0.468,0.974c0,0.25-0.063,0.485-0.188,0.709
		c-0.125,0.225-0.305,0.42-0.538,0.588c-0.235,0.168-0.521,0.303-0.854,0.401s-0.709,0.148-1.127,0.148
		c-0.33,0-0.631-0.031-0.902-0.093c-0.271-0.063-0.504-0.156-0.697-0.281c-0.194-0.125-0.346-0.275-0.451-0.451
		C298.827,153.828,298.775,153.623,298.775,153.389z M299.567,153.268c0,0.285,0.138,0.513,0.413,0.682
		c0.274,0.168,0.654,0.253,1.138,0.253c0.257,0,0.489-0.031,0.698-0.093c0.209-0.063,0.387-0.144,0.533-0.242
		c0.146-0.1,0.261-0.215,0.342-0.348c0.08-0.131,0.121-0.268,0.121-0.406c0-0.25-0.092-0.422-0.275-0.518
		c-0.183-0.095-0.45-0.143-0.803-0.143h-0.924c-0.104,0-0.215-0.005-0.336-0.018c-0.121-0.011-0.24-0.035-0.357-0.07
		c-0.19,0.139-0.33,0.285-0.418,0.439S299.567,153.113,299.567,153.268z M300.986,150.066c0.154,0,0.299-0.029,0.436-0.088
		c0.136-0.06,0.257-0.144,0.361-0.254c0.107-0.109,0.189-0.244,0.248-0.4c0.06-0.157,0.088-0.335,0.088-0.534
		c0-0.396-0.108-0.702-0.33-0.918c-0.22-0.216-0.487-0.324-0.803-0.324c-0.314,0-0.583,0.108-0.803,0.324
		c-0.221,0.216-0.33,0.522-0.33,0.918c0,0.198,0.029,0.376,0.088,0.534c0.06,0.158,0.141,0.292,0.248,0.4
		c0.105,0.11,0.227,0.194,0.362,0.254C300.688,150.037,300.831,150.066,300.986,150.066z"/>
	<path d="M304.727,147.02h0.748l0.076,0.77h0.032c0.234-0.256,0.49-0.471,0.766-0.645c0.273-0.172,0.573-0.258,0.896-0.258
		c0.411,0,0.731,0.09,0.962,0.271c0.231,0.18,0.402,0.431,0.513,0.753c0.278-0.309,0.56-0.557,0.842-0.742
		c0.282-0.188,0.589-0.281,0.918-0.281c0.551,0,0.959,0.176,1.227,0.528c0.269,0.353,0.402,0.873,0.402,1.562v3.389h-0.902v-3.268
		c0-0.506-0.08-0.871-0.241-1.094c-0.161-0.224-0.41-0.335-0.748-0.335c-0.402,0-0.852,0.274-1.343,0.825v3.872h-0.901V149.1
		c0-0.507-0.08-0.871-0.242-1.095c-0.16-0.224-0.414-0.335-0.758-0.335c-0.404,0-0.853,0.275-1.342,0.825v3.872h-0.902
		L304.727,147.02L304.727,147.02z"/>
	<path d="M313.448,149.703c0-0.439,0.068-0.834,0.203-1.184c0.137-0.348,0.316-0.643,0.539-0.885
		c0.226-0.242,0.479-0.427,0.766-0.556c0.285-0.128,0.582-0.192,0.892-0.192c0.337,0,0.64,0.06,0.907,0.176
		c0.268,0.117,0.49,0.287,0.671,0.506c0.18,0.221,0.316,0.484,0.412,0.793c0.096,0.308,0.144,0.652,0.144,1.033
		c0,0.198-0.011,0.363-0.033,0.496h-3.607c0.037,0.579,0.215,1.037,0.534,1.375c0.318,0.336,0.734,0.506,1.248,0.506
		c0.257,0,0.492-0.039,0.709-0.115c0.217-0.077,0.425-0.178,0.621-0.303l0.319,0.594c-0.235,0.146-0.495,0.275-0.781,0.385
		s-0.611,0.165-0.979,0.165c-0.359,0-0.694-0.063-1.006-0.192c-0.313-0.128-0.583-0.312-0.814-0.55
		c-0.229-0.237-0.412-0.53-0.544-0.875S313.448,150.143,313.448,149.703z M317.189,149.296c0-0.55-0.115-0.97-0.347-1.26
		s-0.557-0.435-0.975-0.435c-0.189,0-0.372,0.039-0.545,0.115c-0.172,0.077-0.328,0.188-0.467,0.33
		c-0.14,0.143-0.255,0.319-0.347,0.528s-0.152,0.448-0.182,0.721H317.189z"/>
	<path d="M319.301,147.02h0.748l0.078,0.77h0.031c0.257-0.256,0.526-0.471,0.81-0.645c0.282-0.172,0.609-0.258,0.984-0.258
		c0.564,0,0.978,0.176,1.236,0.528c0.261,0.353,0.391,0.873,0.391,1.562v3.389h-0.901v-3.268c0-0.506-0.08-0.871-0.241-1.094
		s-0.418-0.335-0.771-0.335c-0.277,0-0.522,0.069-0.735,0.209s-0.455,0.345-0.728,0.616v3.872h-0.901V147.02L319.301,147.02z"/>
	<path d="M325.473,147.756h-0.792v-0.682l0.836-0.055l0.11-1.496h0.759v1.496h1.439v0.736h-1.439v2.971
		c0,0.33,0.06,0.584,0.181,0.765c0.121,0.18,0.336,0.27,0.646,0.27c0.095,0,0.196-0.015,0.308-0.044s0.209-0.063,0.297-0.099
		l0.177,0.682c-0.146,0.052-0.307,0.097-0.479,0.138c-0.173,0.041-0.344,0.061-0.512,0.061c-0.287,0-0.527-0.044-0.722-0.132
		c-0.194-0.089-0.352-0.209-0.473-0.363c-0.121-0.153-0.208-0.341-0.26-0.562c-0.052-0.219-0.076-0.461-0.076-0.726V147.756z"/>
	<path d="M328.53,149.703c0-0.439,0.067-0.834,0.204-1.184c0.135-0.348,0.314-0.643,0.539-0.885
		c0.223-0.242,0.479-0.427,0.764-0.556c0.286-0.128,0.584-0.192,0.892-0.192c0.338,0,0.641,0.06,0.908,0.176
		c0.268,0.117,0.49,0.287,0.671,0.506c0.18,0.221,0.316,0.484,0.413,0.793c0.095,0.308,0.143,0.652,0.143,1.033
		c0,0.198-0.012,0.363-0.033,0.496h-3.606c0.036,0.579,0.214,1.037,0.532,1.375c0.318,0.336,0.734,0.506,1.248,0.506
		c0.258,0,0.493-0.039,0.71-0.115c0.217-0.077,0.424-0.178,0.621-0.303l0.319,0.594c-0.234,0.146-0.495,0.275-0.781,0.385
		c-0.285,0.109-0.611,0.165-0.979,0.165c-0.359,0-0.695-0.063-1.007-0.192c-0.313-0.128-0.583-0.312-0.813-0.55
		c-0.23-0.237-0.413-0.53-0.545-0.875C328.596,150.536,328.53,150.143,328.53,149.703z M332.271,149.296
		c0-0.55-0.116-0.97-0.347-1.26s-0.556-0.435-0.975-0.435c-0.189,0-0.372,0.039-0.544,0.115c-0.173,0.077-0.328,0.188-0.468,0.33
		s-0.255,0.319-0.347,0.528s-0.152,0.448-0.183,0.721H332.271z"/>
	<path d="M333.997,149.703c0-0.434,0.063-0.823,0.191-1.171c0.129-0.349,0.299-0.644,0.512-0.886s0.459-0.43,0.737-0.562
		s0.571-0.198,0.88-0.198c0.31,0,0.576,0.055,0.803,0.165c0.229,0.11,0.459,0.261,0.693,0.451l-0.044-0.913v-2.057h0.913v7.832
		h-0.748l-0.077-0.627h-0.032c-0.213,0.205-0.457,0.383-0.731,0.533c-0.275,0.15-0.57,0.226-0.885,0.226
		c-0.677,0-1.214-0.242-1.611-0.726C334.197,151.287,333.997,150.598,333.997,149.703z M334.933,149.691
		c0,0.646,0.128,1.147,0.385,1.508c0.257,0.359,0.62,0.539,1.089,0.539c0.25,0,0.484-0.062,0.704-0.182
		c0.22-0.121,0.44-0.307,0.66-0.556v-2.794c-0.228-0.205-0.445-0.35-0.654-0.434c-0.21-0.084-0.424-0.127-0.644-0.127
		c-0.213,0-0.412,0.049-0.601,0.148c-0.188,0.1-0.351,0.238-0.489,0.418c-0.14,0.18-0.248,0.395-0.329,0.645
		C334.973,149.105,334.933,149.384,334.933,149.691z"/>
	<path d="M342.566,151.155c0.234,0.19,0.476,0.345,0.721,0.462c0.246,0.117,0.529,0.176,0.854,0.176
		c0.353,0,0.616-0.081,0.792-0.242c0.176-0.16,0.264-0.359,0.264-0.594c0-0.139-0.037-0.26-0.108-0.363
		c-0.074-0.103-0.167-0.191-0.281-0.27c-0.113-0.077-0.244-0.146-0.392-0.204c-0.146-0.06-0.293-0.117-0.438-0.177
		c-0.191-0.065-0.381-0.141-0.572-0.226c-0.189-0.084-0.36-0.187-0.512-0.308s-0.273-0.262-0.368-0.424
		c-0.095-0.16-0.144-0.354-0.144-0.582c0-0.213,0.043-0.413,0.127-0.6c0.084-0.188,0.205-0.349,0.362-0.484
		c0.158-0.137,0.351-0.242,0.578-0.319s0.483-0.116,0.771-0.116c0.337,0,0.646,0.059,0.93,0.176c0.281,0.117,0.525,0.26,0.73,0.43
		l-0.429,0.572c-0.184-0.141-0.375-0.254-0.571-0.342c-0.198-0.088-0.414-0.132-0.649-0.132c-0.337,0-0.585,0.077-0.742,0.231
		c-0.158,0.154-0.236,0.334-0.236,0.539c0,0.125,0.032,0.23,0.1,0.318s0.154,0.17,0.264,0.242c0.11,0.073,0.236,0.137,0.38,0.191
		c0.145,0.056,0.292,0.113,0.445,0.171c0.19,0.073,0.384,0.149,0.577,0.231c0.195,0.08,0.369,0.182,0.523,0.303
		c0.152,0.121,0.278,0.27,0.379,0.444c0.1,0.177,0.147,0.39,0.147,0.638c0,0.221-0.042,0.426-0.127,0.617
		c-0.084,0.19-0.209,0.358-0.373,0.506c-0.166,0.146-0.371,0.262-0.616,0.346c-0.246,0.084-0.525,0.126-0.842,0.126
		c-0.382,0-0.744-0.07-1.089-0.209c-0.345-0.14-0.646-0.315-0.902-0.528L342.566,151.155z"/>
	<path d="M347.318,144.533h0.892v5.302h0.032l2.277-2.815h1.001l-1.793,2.145l2.035,3.201h-0.99l-1.562-2.574l-1.003,1.166v1.408
		h-0.891L347.318,144.533L347.318,144.533z"/>
	<path d="M353.225,145.919c-0.176,0-0.324-0.055-0.445-0.165c-0.121-0.109-0.182-0.25-0.182-0.418c0-0.176,0.061-0.316,0.182-0.424
		c0.121-0.105,0.271-0.159,0.445-0.159c0.177,0,0.325,0.054,0.446,0.159s0.182,0.248,0.182,0.424c0,0.168-0.061,0.309-0.182,0.418
		C353.55,145.864,353.401,145.919,353.225,145.919z M352.764,147.02h0.902v5.346h-0.902V147.02z"/>
	<path d="M355.469,147.02h0.748l0.078,0.77h0.031c0.258-0.256,0.526-0.471,0.81-0.645c0.282-0.172,0.609-0.258,0.984-0.258
		c0.564,0,0.978,0.176,1.236,0.528c0.261,0.353,0.391,0.873,0.391,1.562v3.389h-0.901v-3.268c0-0.506-0.08-0.871-0.241-1.094
		s-0.418-0.335-0.771-0.335c-0.277,0-0.522,0.069-0.735,0.209s-0.455,0.345-0.728,0.616v3.872h-0.901V147.02L355.469,147.02z"/>
</g>
</svg>
