<?xml version="1.0" encoding="utf-8"?>
<!-- Generator: Adobe Illustrator 15.0.2, SVG Export Plug-In . SVG Version: 6.00 Build 0)  -->
<!DOCTYPE svg PUBLIC "-//W3C//DTD SVG 1.1//EN" "http://www.w3.org/Graphics/SVG/1.1/DTD/svg11.dtd">
<svg version="1.1" id="Layer_1" xmlns="http://www.w3.org/2000/svg" xmlns:xlink="http://www.w3.org/1999/xlink" x="0px" y="0px"
	 width="411.023px" height="281.183px" viewBox="-42.52 0 411.023 281.183" enable-background="new -42.52 0 411.023 281.183"
	 xml:space="preserve">
<metadata><?xpacket begin="﻿" id="W5M0MpCehiHzreSzNTczkc9d"?>
<x:xmpmeta xmlns:x="adobe:ns:meta/" x:xmptk="Adobe XMP Core 5.0-c060 61.134777, 2010/02/12-17:32:00        ">
   <rdf:RDF xmlns:rdf="http://www.w3.org/1999/02/22-rdf-syntax-ns#">
      <rdf:Description rdf:about=""
            xmlns:dc="http://purl.org/dc/elements/1.1/">
         <dc:format>image/svg+xml</dc:format>
         <dc:title>
            <rdf:Alt>
               <rdf:li xml:lang="x-default">breast-care-figure-two-col</rdf:li>
            </rdf:Alt>
         </dc:title>
      </rdf:Description>
      <rdf:Description rdf:about=""
            xmlns:xmp="http://ns.adobe.com/xap/1.0/"
            xmlns:xmpGImg="http://ns.adobe.com/xap/1.0/g/img/">
         <xmp:CreatorTool>Adobe Illustrator CS5.1</xmp:CreatorTool>
         <xmp:CreateDate>2015-02-13T11:46:40+02:00</xmp:CreateDate>
         <xmp:ModifyDate>2015-02-13T11:46:41+02:00</xmp:ModifyDate>
         <xmp:MetadataDate>2015-02-13T11:46:41+02:00</xmp:MetadataDate>
         <xmp:Thumbnails>
            <rdf:Alt>
               <rdf:li rdf:parseType="Resource">
                  <xmpGImg:width>256</xmpGImg:width>
                  <xmpGImg:height>180</xmpGImg:height>
                  <xmpGImg:format>JPEG</xmpGImg:format>
                  <xmpGImg:image>/9j/4AAQSkZJRgABAgEB1QHVAAD/7QAsUGhvdG9zaG9wIDMuMAA4QklNA+0AAAAAABAB1QAAAAEA&#xA;AQHVAAAAAQAB/+4ADkFkb2JlAGTAAAAAAf/bAIQABgQEBAUEBgUFBgkGBQYJCwgGBggLDAoKCwoK&#xA;DBAMDAwMDAwQDA4PEA8ODBMTFBQTExwbGxscHx8fHx8fHx8fHwEHBwcNDA0YEBAYGhURFRofHx8f&#xA;Hx8fHx8fHx8fHx8fHx8fHx8fHx8fHx8fHx8fHx8fHx8fHx8fHx8fHx8fHx8f/8AAEQgAtAEAAwER&#xA;AAIRAQMRAf/EAaIAAAAHAQEBAQEAAAAAAAAAAAQFAwIGAQAHCAkKCwEAAgIDAQEBAQEAAAAAAAAA&#xA;AQACAwQFBgcICQoLEAACAQMDAgQCBgcDBAIGAnMBAgMRBAAFIRIxQVEGE2EicYEUMpGhBxWxQiPB&#xA;UtHhMxZi8CRygvElQzRTkqKyY3PCNUQnk6OzNhdUZHTD0uIIJoMJChgZhJRFRqS0VtNVKBry4/PE&#xA;1OT0ZXWFlaW1xdXl9WZ2hpamtsbW5vY3R1dnd4eXp7fH1+f3OEhYaHiImKi4yNjo+Ck5SVlpeYmZ&#xA;qbnJ2en5KjpKWmp6ipqqusra6voRAAICAQIDBQUEBQYECAMDbQEAAhEDBCESMUEFURNhIgZxgZEy&#xA;obHwFMHR4SNCFVJicvEzJDRDghaSUyWiY7LCB3PSNeJEgxdUkwgJChgZJjZFGidkdFU38qOzwygp&#xA;0+PzhJSktMTU5PRldYWVpbXF1eX1RlZmdoaWprbG1ub2R1dnd4eXp7fH1+f3OEhYaHiImKi4yNjo&#xA;+DlJWWl5iZmpucnZ6fkqOkpaanqKmqq6ytrq+v/aAAwDAQACEQMRAD8A9U4q7FXYq7FXYq7FXYq7&#xA;FXYq7FXYq7FXYq7FXYq7FXYq7FXYq7FXYq7FXYq7FXYq7FXYq7FXYq7FXYq7FXYqlfmiHUZvL9/F&#xA;piu+ovERZrHL6B9U/YJkqpVQ27U341pU7Yq8ym0H85rW6a3try9vIoZY4472S4tQspj9ZYLhk5ow&#xA;iVDH9ZSnJ33VWG+Ksk8mN5+03SrUeY5Kzz30ULxXRSeco9pCsrLLBJ6ag3iTug4n4GUUWlMVZ7ir&#xA;sVdirsVdirsVdirsVdirsVdirsVdirsVdirsVdirsVdirsVdirsVdirsVYvrsnm/ULLX7TQp7a3u&#xA;oHS0s3dXWRecMM0kglrIvPhMwjBjoGoTUVGKsLh0z85eavIbn45rUgi5tgySKgEhkQyyRtao3KvD&#xA;jJJXeOqhiq9cxV2KuxV2KuxVKtf/AOlb/wAx0P8Axtiqa4q7FXYq7FXYq7FXYq7FXYq7FXYq7FXY&#xA;q7FXYq7FXEgAkmgG5OKob9J6f/y0R/8ABDFUQkiSIHRgyNuGHQ4q3irsVdiqT6/e3DRtpWmknVbp&#xA;DwZSVECHYzSMK8QO3cnpiqP0uC6t9OtoLuX17mONVmmqTyYDc1O++KoPRv8Ajo69/wAxyf8AUDbY&#xA;qmuKuxV2KuxVKvNXmSz8t6Bd61eRTTw2oQLb2yepPLJK6xRRRJUcnkkdUUeJxVhT/nfpK0dNOlnt&#xA;2jNxHcwzQtG9vFE8lzKtWU0j9MhBSr7UpvRVMNN88Wnmaz024js57RjqNsFjceqOEtrFexM0kXON&#xA;OUF3HszD4qgVpUqs6xV2KuxV2KuxV2KuxV2KuxV2KuxV2KuxV2KuxV2KrLj+4k/1W/VirBDPCJVh&#xA;MiiVhVYyRyIHcDrhQzPSf+Obb/6uBKLxV2KpXqerSRzrp2nqJ9UlXkFP93CnT1ZSOi+A6tiqI0vS&#xA;4rCJgGM1zMed1dP9uV/E+AHRVGwGKozFWHal5fvtbi812FtqctkLy5jhZQqlOP1O1L7qEmHqJWNi&#xA;sgop+Gjb4qw21/JvzXFcwyzX9nK0bW/qT87hXaSOaWX65xof31ukoghUk1Rd2AouKvY8VdirsVQ+&#xA;oadp+o2ctjqFtFeWU44z2twiyxOta0dHBVhUdxiqXv5M8nyTNO+hae87yRTPK1rAXMluCsLlileU&#xA;akhD1XtiqhfaTpemQafb6bZwWMD6jFK0VtGkSF2rycqgUcj3OKp/irsVdirsVdirsVdirsVdirsV&#xA;dirsVdirsVdirsVUL6aKCynmmYJFHGzO56AAYq81i05b+X9IXQeORhS1VWKNHH2J4/tNWuFDL9Ni&#xA;8x2djC9tJHqVtxr9Xn/czAeCyqCjf7JR88CUbB5k08yrBeB9Oum2EN2PT5H/ACJN43/2LYqs1LW2&#xA;Mq6fpJS51KUda8o4E6GSUjw7L1JxVFaTpMGnQMqsZriY87q6f+8lk/mb+A6AYqjsVdiqR2d9ZWNx&#xA;5hur24jtbWO+j9SeZ1jjXlZWqjkzEAVJAxVFt5l8uLcvatqtmt1HLHbyQG4iEizTAmKIryqHkCni&#xA;vU02xVMcVdiqV3fmOwtNbt9HuIrpbi6RXtp1tppLZiWZShnjVo0ZeNSHK7EYqmUkkcaGSRgiLuzM&#xA;QAB7k4qp/XbOtPXjryVac1+1IKoOvVgdvHFUt1uaKVdNeJ1kX6/COSkEVBYEVHgcVTjFXYq7FXYq&#xA;7FXYq7FXYq7FXYq7FXYq7FXYqlN9r31W6eD0OfCnxc6VqAenE+OKq+l6r9eaQel6fpgH7XKta+wx&#xA;VLr4nW7yW2U10rTiTckdJ7lRVYvdY+rf5W2KpJhQzDSf+Obb/wCrgSrz28FxE0NxGs0T7NG6hlPz&#xA;BxVA6H5f07RYZobFSFnkMrlqE1IACggD4RTYYqmWKuxV2KsQ1Dy0muwebtP+sSW7ajMlpLJzmZBE&#xA;1na86RJLEoZlqOQIPzG2KpXP+T9u87SJqsqRyTIZLYxK8PogKJPTjLcIriXgvOWMBdhSMHfFXoeK&#xA;uxV5L+YSaPD+cHlK/wBWms7aKKBvqtzdtcRskySMxCOh9D4kJHF+O9GJbiFCr0Lzh5f/AMQ+W77R&#xA;vUSI3iKokkEjKpV1cEiKSBz9n+f51FQVXnk/5ETSXJf9MxOnMD1ZbQG4aNvWMkjvHJEnroZ6QOqA&#xA;RqKcTXZVOPLvkIeU9N0+1lvPrUx1O3dTAsltAFS0hsx+4EkilmW0EjFq/GzEUrir0PFXYq7FXYq7&#xA;FXYq7FXYq7FXYq7FXYq7FXYqxPXf+OrP/sf+IDChD2V3d+o+m2B4314APW6iGIV5yn3FaKO5xVlM&#xA;FjbWOmC0tl4wwxlVHc7GpJ7kncnAlh+FDMNJ/wCObb/6uBKLxV2KuxV2KuxVj8eqWOlHzLqN/IYr&#xA;O2vEeeUI78UFla1YqgZqDqTTYbnbFVJvzJ8kLdG2/SqNKJY4RxSVlLSsyKwdUKGPnGyNIDwVgVYg&#xA;7YqyXFXYqwTzHqeu2v5k6Tp0VrFNo+s2TQTtNbxyBmhlLTRiYOjp+5k5UkDKaUVSxairO8VdiqVa&#xA;/wD9K3/mOh/42xVNcVdirsVdirsVdirsVdirsVdirsVdirsVdirCfN2owafeTzzVK1RVC9SxjBA/&#xA;DChFeRbdlFzczENc3Ko8jDoBvxRfZRiVDKbj+4k/1W/VgSwfChmGk/8AHNt/9XAlF4q7FXYq7FXY&#xA;qxS48saVr3+KrG8jVRf3EdtczpHC0rQfU7VjETKkilW6UI77UO+KoM/lF5Z+uG5S4vkqwAh9cMgg&#xA;M0lxLb1dWcxzTTM8hZi56Bgu2KpN+fM9vb6TpEtzJFFb/WnVnuSkkFWiPENbMkplb+VgPg6k0xVm&#xA;/kvl/g7QuXLl+jrSvqTLcvX0E+1OoCynxcCjdcVYf52sfLd3+Y2ipfRXS6qkUEtpd21zaJ6SrcPE&#xA;rmCUmfaWdFLItCG3NVoVWZ+bdS1fTPLl/faPYHU9Uhj/ANEsxT4pGYKGapWqpy5sAalQab0xV5cv&#xA;5o/mc7hhooj5NFytW0+7Lo7LIUtmkEvDlc8EZX6RcqNUkYqyLyz5k80a5pen3GtWIgkGqQL6oikt&#xA;Rxa1hnZRDMXf91cTS29a7+nXvir0XFXYq7FXYq7FXYq7FXYq7FXYq7FXYq7FXYq8+1RodW1y4uSB&#xA;JYQN6duCAVkkVQrye4FKL9+FDIfKwAecAUAVaD78VCe3H9xJ/qt+rAlg+FDMNJ/45tv/AKuBKG8w&#xA;XE8NtG0TtGxehKmm1DiqRpqWoF1BuJKVH7RwoZhgStaWJTRnVT4EgYq5ZomNFdWPgCDirGv09ZaV&#xA;L5puJK3EtlcLdTWcLRev6IsrYNJxkeMcRuakjpiqAP5t+W/rU9utveMbeWOOYhIgyI6hmnkhMgnj&#xA;jjDry5xqxr8IYBqKoP8AOLVLLTrLSpLpAge4kVL9bq5tZoSsLPxj+py21w4k40cK/EAVYYqyzyjJ&#xA;FJ5U0WSG2jsoXsLZo7OGVZ4oVMKkRRzKSsioPhDjZhvirCPOsrxfmz5UeKykuWKrE9wtikkcIkaW&#xA;nqXRkVhyVHZVCNxZA1VDMHVem4q7FUq1/wD6Vv8AzHQ/8bYqmuKuxV2KuxV2KuxV2KuxV2KuxV2K&#xA;pL5juJ4fq/pSNHy58uDFa049aYoQOk3l2+owo88jKSaqzMQdj2JwqmGu3E80kWjWblLm8BM8q9Yb&#xA;YbPJ7M32U9/lgSk2p20FteNbwII4YVjSNB0CrGoAwoTLyv8A3lx8l/WcVCeXH9xJ/qt+rAlg+FDM&#xA;NJ/45tv/AKuBKC8zf7yRf8ZP4HFBY9H/AHi/MYVZzgSxjzH/AMdAf8Y1/WcKFmgf8dOP5N/xE4qi&#xA;P0Np2tDzJpmoxtLZXF9F6saSSRE8LS0daPEyOPiUdDgSul8g+UppFmnsPXuFljnNxNLNJMzRfYV5&#xA;XdneMVJ9NiUrU0qcVQP5iWEc9tp9xLqFnpMMFx6b6hd/WkZDOpjRYprS6sWT1HKqQ0nFq+NMVZDo&#xA;ltb2ujWFtbtC1vBbQxwtbLwgKJGFUxKWl4pQfCObbdz1xVges6lawfmrY2+s6bGZZxBHpN7Bd3TK&#xA;6fvmjN5apEYFeOT1PRaRqEk8TyBCqs/1TU7PS9OuNRvWZLS1QyzukbylUX7TcI1dyANzQdMVSB/z&#xA;Q8irOYf0mGYPHHySG4dCZAxDLIsZRkXg3NweKUoxGKtN5p0HXrbTbnSrtbiL9IwxiqvExYIJdklV&#xA;HIaOVHVqUZWDCoIOKsqxV2KuxV2KuxV2KuxV2KuxV2KuxVIvNH/Ht/s/+NcUFJra+gsZlu56+nCC&#xA;xA3JPEgKo7ljsMKsi0Kwnijlvr0f7kr4iS4HURqBSOFfaNfvNTgSk+u/8dWf/Y/8QGFCN8r/AN5c&#xA;fJf1nFQnlx/cSf6rfqwJYPhQzDSf+Obb/wCrgSgvM3+8kX/GT+BxQWPR/wB4vzGFWc4EsY8x/wDH&#xA;QH/GNf1nChZoH/HTj+Tf8ROKrLzzEmip5rvAiNJZ3EdwRctLb27L9TtV4/WFimXmeioAWJoKb1wJ&#xA;Y5L+dwTUWtDo6oA4J9S9jWUQrczWkoaNY3X1/UtyY4lciRd+Y6YqnX5yRzyeQbxbf62Ln1bf6u9k&#xA;ZA6yesvBpRFHPI0IP94Fic8f2cVTjyFqMOoeTdGuIo7qICzhjeK/VxdI8cYV1mLpEWdWBDOFAY7j&#xA;bFUj17UJbb80NGh/RUdwJ7MiDUmsRLLE3qlZo4bwSK0dY35yKV4hV61ahVZZrmj22s6Rd6VdOyW1&#xA;5GYZygQko32lpIsi0YbGq9MVYnJ+TPktpCQt0sVQFt/XLIsJ5+tB8YZjHOZWaTkSxPQjFUTa+TdF&#xA;8tWen2unq7htSt5DNcMJJfggS2jXnQbJb28cY70UVqakqsxxV2KuxV2KuxV2KuxV2KuxV2KuxVIf&#xA;NJAFsTsB6lT/AMDigsd0YLqPmCAmjWdnJVe4ecAmvyj/AF/LCr0DAlieu/8AHVn/ANj/AMQGFCN8&#xA;r/3lx8l/WcVCeXH9xJ/qt+rAlg+FDMNJ/wCObb/6uBKC8zf7yRf8ZP4HFBY9H/eL8xhVnOBLGPMf&#xA;/HQH/GNf1nChZoH/AB04/k3/ABE4qmFhaWt3deYLe7hjuLd76PnDKodGpZWpFVYEGhFcCUcui6Mj&#xA;Ky2FurK6SqREgIkjHFHG32lGwPbFWI/nPqN3p/kiSe1ubmyc3MAN7Z3EVvJCA/MMTK8PqIzKEaNW&#xA;BYN4VxVknlG5N15U0W6aRpmnsLaUyvKJ2cvCrcmmCx+oTWvPivLrQYq878zaTcXX526K095NPFaw&#xA;w3ttCyxlIKySxcIuFuzpy4kyMZlL7Kaquyr1rFXYqlWv/wDSt/5jof8AjbFU1xV2KuxV2KuxV2Ku&#xA;xV2KuxV2KuxVinn6QtBa2ce8156sQHghC83P+qv44QgoTyxY29ld28EAIjDE7mpqVNcVZtgSxPXf&#xA;+OrP/sf+IDChG+V/7y4+S/rOKhPLj+4k/wBVv1YEsHwoZhpP/HNt/wDVwJQXmb/eSL/jJ/A4oLHo&#xA;/wC8X5jCrOcCWMeY/wDjoD/jGv6zhQs0D/jpx/Jv+InFVHVL3zBZ2PnS60iOE3VrynsmdXnZ7iPT&#xA;7dhH9XT0+QYCgIkrX9nxCUh1fzn+YVrrt9bW9j6llFfxQWUwsriSOZG/49+dY2V26tMV9JdqM1TR&#xA;VkH5keT9a81aZBp+nanHp0IdjeJLBHcJMjLwKMkqulOBYbr3r1GKsi0aw/R2j2On/D/odvFB8FeP&#xA;7pAnw8iWpt3OKvNPM+p2uo/nNoul23EXmltE95KjhmSJkaVUk/0yGOP1C4oht3kI3HwmoVeg+bF1&#xA;F/LmoJpsE1zfvEVtobaZbaUuSAOMzsgSnUmvTpvirzN9B/Od7oyLdXh5PE3qS3FuimQCX0ZWhhl4&#xA;JHEpjFzEhpI26hxviqeeWNO872WlafH5juGaX9KW7FLlhczkfVIVlImSTiqteLPIq0PwMq0SlAq9&#xA;GxV2KuxV2KuxV2KuxV2KuxV2KrZZY4onlkYJHGpZ3OwCgVJOKsMu1munTWZwVN4GW0ibb07ZaGPb&#xA;+aSvNvoHbChX0b/jpwfM/wDETirLsCWJ67/x1Z/9j/xAYUI3yv8A3lx8l/WcVCeXH9xJ/qt+rAlg&#xA;+FDMNJ/45tv/AKuBKC8zf7yRf8ZP4HFBY9H/AHi/MYVZzgSxjzH/AMdAf8Y1/WcKFmgf8dOP5N/x&#xA;E4qmujf8dHXv+Y5P+oG2wJTXFXYq7FVE2dmZ/rBgjM+x9UovOoFB8VK4qrYq7FUq1/8A6Vv/ADHQ&#xA;/wDG2KprirsVdirsVdirsVdirsVdirsVSTVidT1CPRU3tkCz6ow/33X93D85GFT/AJI98VWeaAAL&#xA;UDp8f/GuKCl+jf8AHTg+Z/4icKsuwJYnrv8Ax1Z/9j/xAYUI3yv/AHlx8l/WcVCeXH9xJ/qt+rAl&#xA;g+FDMNJ/45tv/q4EoLzN/vJF/wAZP4HFBY9H/eL8xhVnOBLGPMf/AB0B/wAY1/WcKFmgf8dOP5N/&#xA;xE4qpaknmN7TzmNFm9C/DM2myRCNpvra6fbtGtJ1khKsQF+Id+3XAljN9c/m+vmO6W1F2dN+t0gH&#xA;p2Rhr9Ym9JQxHq/VTaCEzN9sSbKRuMVeq4q7FXYql3mPWP0L5f1HWPQa6GnW0t01ujBWdYULsAzb&#xA;DZcVYZqn5yafp+p3Vk2mTSLayyr6qutWitWlS5kCUJ5I8B4J1cEEUxVEaV56tPNFnp08dpNayfpG&#xA;1X02VpUpLZw30ZMqL6a1hvE2Yj4uQFaYqzzFXYq7FXYq7FXYq7FXYqtkkjjQvIwRB1ZiAB9JxVAa&#xA;nr2n2NlLcmVJWQUjhR1LO5NFRd+5xVvRNOksrQm4YPfXLGe9lHQyt1A/yVFFX2GKoLzR/wAe3+z/&#xA;AONcUFLtG/46cHzP/EThVl2BLE9d/wCOrP8A7H/iAwoRvlf+8uPkv6zioTy4/uJP9Vv1YEsHwoZh&#xA;pP8Axzbf/VwJQXmb/eSL/jJ/A4oLHo/7xfmMKs5wJYx5j/46A/4xr+s4ULNA/wCOnH8m/wCInFU1&#xA;0b/jo69/zHJ/1A22BKa4q7FXYq7FVk0MM8MkE8aywyqUlicBlZWFGVlOxBHUYql8/lbyxPdPdz6R&#xA;ZS3Uk0dzJcPbxNI08IKxSlyvIvGGIVuo7Yqg7/S9M0y3062020hsrc6jFIYbeNIk5uWLNxQKKsdy&#xA;cVT/ABV2KuxV2KuxV2KuxV2KpT5nvrO00mU3EqxlyojUn4mIYGir1Y/LFWBWx1C81X1LmBo7GFS9&#xA;sHAB5mgBYVO9C1MKHqeBKReaP+Pb/Z/8a4oKXaN/x04Pmf8AiJwqy7Alieu/8dWf/Y/8QGFCN8r/&#xA;AN5cfJf1nFQnlx/cSf6rfqwJYPhQzDSf+Obb/wCrgSgvM3+8kX/GT+BxQWPR/wB4vzGFWc4EsY8x&#xA;/wDHQH/GNf1nChZoH/HTj+Tf8ROKoPXNA1LWbLzbZWF0yXFxdQLbwvIkMKyR29pIJGf0Lhz9mjIV&#xA;ZWHw0Fa4ErvInlLzFoeqanPql1DPb3KIkBgkmPqMk07iR4ZBwg4QyxwqqM3wpuemKs0xV2KuxV2K&#xA;uxVJtZuIJ006SCRZUGoRKXRgw5IWVhUdwwocVTkso6kD54qsSeF/sSK3b4SD+rFV+KrXmiQVd1Ue&#xA;5A/XiraujCqsGHiDXFWyQASeg3xVI7vznoFmyLczmMyV4VRjWnyxpWo9T1fV0B0uL6lZtt9fulq7&#xA;b0Jig/i9Pliq290Kxs7C4uDyub5goe9uD6kpHMbA9FHsoAxVI8KGd4EpF5o/49v9n/xrigpdo3/H&#xA;Tg+Z/wCInCrLsCWJ67/x1Z/9j/xAYUI3yv8A3lx8l/WcVCeXH9xJ/qt+rAlg+FDMNJ/45tv/AKuB&#xA;KC8zf7yRf8ZP4HFBY9H/AHi/MYVZzgSxjzH/AMdAf8Y1/WcKFmgf8dOP5N/xE4qmWmzwQXnmGaeR&#xA;YoY71GklchVVRY21SWOwGBKcAgio3B6HFXYq7FXYq7FWnTmjJUryBHJTQivcHFWCeWfyqg0fR4dP&#xA;m1GSYw3cN0rWvrWMfGCzgswgjinO7Lah2YsfjZiAK4qqavc+TLTXYtG1J9QTkErfTX90trHJKksk&#xA;cTyPcgh3S2dh8NNqE1IBVSCb/BekXUscM+slo51VpbSaPh6TRJMbpWRl5Qqky1O7+CnDasyfyYRK&#xA;HXWtVMKo/OIXchZmqpUhqilAGFKb16im4VhcNz5F1a7gtrq+1eBLmCO4a7vriMQJJIpdIJDIz0l4&#xA;Ly+zx/yq7YbVF/pnyjo+pDSSdaMrPHH6iXH7k27lFW65xTKpiBmQFR+8AYHhxIJCp75g0PQdI06+&#xA;1TUYL3UbSNhJ6ME8zSQwKih9mnT1ArK0m3xGvFQTQFVJNFj/ACt1N7n6vZzW9zA5+qxT3bwy3QDM&#xA;qSW1bncO0ZC8ip8QMVVvKXmbyP5gurax0r9LRpcQmaKWS9uli5hVleD4bpm9QRyq+wKEHZjiqr5m&#xA;v/K/leKwsNel1S8lvLeVo54725pPLaoHdfT+tKVd+q7cASAWG2KoS61r8rbTQ01a4uLqPlIsDaeN&#xA;QuXu0mMhjaNokuW3QqxY1oFUtWm+Kpr5dn0HzXaTy6TcapafVpoSXnvbomSBisquircv8E8VQpaj&#xA;CvQEYqlN75r/AC6fWp9JLapeTWEwgupo7y7aGEGWOCSUu1ytY4ppVjcqCQ1djxaiq+/1n8vtO1eO&#xA;wthf3108MU9u9lqUjLIbi5FnHHGXvIyz+syq1BxTkC7KDiqcEaGvl1/Nv1rU5dGk06K+gtVu70TB&#xA;SjTFt5x8UiOi8WIC067nFUo03Wvy71W8VZnvbQTQ+tBe3epSi3m4xwu6RTR3ciOyLdR1IPE1+EtQ&#xA;0VU9E80fl7f3cMGkjVZEubhrVrqO8uhGhD+nE8n+k8wkz/3fw1I+KgQhiqm/mCbyx5YhsY9bv7+W&#xA;XVb02lmBfXakmVndQ1bhVCRR/CWJ3oOrMAVUr0fU/wAvNW0ue9tUvluYFEn6Lm1KSK7eNrdLtHVX&#xA;vBHxa3mWSrOKD7VCCMVVvKet+VfM7PY6WusWEn1b17d7m8ulBBVC4VFunblC06Bw4G52rviq3zFq&#xA;nlzRtRj0bUrLW9Qu/q4uIZYL2V0mpRW4qb1TGx+IgSBQeLcSaYqhtc8x/lNo0enzT3l3PHqHNo3t&#xA;b29mMaxR+qxlVZ+SmlPhoW6mnFWKqsk0TT9P1mKPUIZdUtIYjcW11p1xe3YlW4jlCVZkuZFHD02p&#xA;xYhg1e2KpL5l1byLpXmOPQb2PVbrWJbaG5ghhu7tua3F0LSFAz3KKC8z0qSEX9plqKqpj5Zi8g62&#xA;kc+jXlw8zW8VyYRqF6s0cdwgdOaevVTRtx2OxxVW1X8vbe7sb6C3vJFku7y0vU+uNcXsANm9vII5&#xA;YZJx6oY2255A0NK7YqnvlzR10Ty9pejLM1yumWkFmLiT7cgt4lj5tud241OKpjirsVdirsVdirsV&#xA;S248taDc6qurXFlHLqCoIxM45fCvMLVT8JKiVwGpUBiO+KqV95S8t30iyXVhFI6yJMDuvxxoEWoU&#xA;iq8VA4nY06Yqm+KpPD5Q8sw3cd3Hp0IuIohbxsVqBGCSBxNVqKmjUrTatMVUT5F8qG4Nw2nq0puR&#xA;e1Z5GUXAIPMKW4j7C1AFDxWo+FaKpjq2jadq1sltfxGWFJY50VXeMiWJucbho2VqqwDDfrviqFtP&#xA;KPluzjuY7WwjiF2zvOy8g/KSvIq9eSdSfhIodxvirWl+T/LOlXiXmnadFbXSQmBZUBrwYgsTU/E7&#xA;FRyc/E3c4qqav5X0HWJVl1SzS8ZI3hjWUsyKsilWZUrxVyrMvMDkASK0OKqMnlXyjLZLo82nWktu&#xA;EqLWRFdiq7czyq53bduu/XFUVo/l/RtGjmj0u0jtEuJPWmWMGhegXvWgCgAKNgOmKpdqHk7yOs8u&#xA;sXum2cMkJFzc3jKsS0gb1eczDipVGXmee1RU9MVVrnyl5V1F/rMtlDOzKqRyKSAgjlEqmLgQI2Eq&#xA;K3JKGqjf4RiqPOj6b+iF0hIfR05IVt47eFmiCRIoVURoyrKFUADicVQFj5R8pWl5NPZ6bbRz8Vik&#xA;VFHFAERQoj+wlUjj6AVAXwGKqWn/AJf+TdOngnstKht5baV54WTkKSSUqxFaNSg4V+zQcaYqj9X8&#xA;u6JrDWj6pZRXbWEwuLQyCvCQArUfQdwdjiqGtfJflS002bTLfS4EsbhGimh41DRvGIihJq3H0gE4&#xA;1px+HpiqKs/L+jWep3Wp2tpHFf3tBczqDVqADp0FeIrQb0FemKqWqeVvL+q/WP0hZJO10sSzueQd&#xA;lty5iHNSGAQyvSh/abxOKqWpeS/KWpCAX2j2lwLbkIA0KUUOByWgG6ngpodqqp6qCFUfpelafpVm&#xA;tlp8IgtlZ3CAliXkcyOzMxLMzOxJJOKoHVPJ3lfVb4X+oabDPfBEjW6IKygRSCWMq6kMGjcVRgar&#xA;vQ7nFUfp+l6dp0KQWNultDHHHCkcY4qscK8I0A7BVFBiqKxV2KuxV2KuxV2KuxV2KuxV2KuxV2Ku&#xA;xV2KuxV2KuxV5155/LPVtY1a98w6brVxb6nJarYwWcVIomtErL6DSoySgyXNHd1dap8Gxo4VQulf&#xA;lb5yi0S9iufOF1HqOo6Ta2BHx3MNncRKnqyQGR1aQEq1Gf4/iJJ7BVbqX5M6rqHky98vT+ZZWur+&#xA;YzXmo+nMouGlsBZTtcRJcJzq5adVDhOXEMrAbqpT5h/J3z+ul38ejebbi5luTEtnZO01lBCQkiNK&#xA;8kE3qvx9YyBQR8aoTyVeBVZDcflVrg1CC+sfNl7bul2bqWORrmWJg8vOQBDcruY1EKj7CoW+CpUq&#xA;qjvKv5e6vompWt3ca9JfpCZXnidJAZXktre3BYtM4bibcuCVr8R+eKs4xV2KuxV2KuxV2KuxV2Ku&#xA;xV2KuxV2KuxV2KuxV2KuxV2KuxV2KuxV2KtOxVSwUsQCQopU+wrQYqxzVfNuo2SxGLQLyUyNxIcx&#xA;ig9vSM/40wqnVhfS3Qf1LKez4Up6/p/FWv2fTeTpTvgV5g/58wadqmpadremvFNHqU+n6MsPItcr&#xA;FLPDHI3IEKsklv6YcH7fIU+HFUz0L87tC1bUbPTl0+7hubqSygMhCGBZb2B5wFkLKzoioBzVaNyX&#xA;jscVejYq7FXYqker6veWt4YoioQKDuK9cUKmi6pdXdw6TEFVTkKCm9QMVYn5r/Nq18s3muS6k1vH&#xA;Y6I0Mf6PBZtRuhPHC4uIUqoEKvcenXiRyVqstMUqV7+eWgW0rRiwuZQJL+NZFaFYyNPiErt6jOEJ&#xA;fktEVi4qOSjcBV6HZXSXdnBdIKJcRpKo8A6hh+vFVbFXYq7FXYq7FXYq7FXYq7FXYq7FXYq7FXYq&#xA;7FXYq7FXYq7FXYq7FXYqoH6jy39LlyH8tefJqfTz5fTXFW4/qXwel6fb0+PHwNKU/wAmuKq2KuxV&#xA;2KqE31Dn++9Ln/l8a0+nFW4PqXI+h6fKm/p8a0+jFVbFXYq7FXYq7FXYq7FXYq7FXYq7FXYq7FX/&#xA;2Q==</xmpGImg:image>
               </rdf:li>
            </rdf:Alt>
         </xmp:Thumbnails>
      </rdf:Description>
      <rdf:Description rdf:about=""
            xmlns:xmpMM="http://ns.adobe.com/xap/1.0/mm/"
            xmlns:stRef="http://ns.adobe.com/xap/1.0/sType/ResourceRef#"
            xmlns:stEvt="http://ns.adobe.com/xap/1.0/sType/ResourceEvent#"
            xmlns:stMfs="http://ns.adobe.com/xap/1.0/sType/ManifestItem#">
         <xmpMM:RenditionClass>proof:pdf</xmpMM:RenditionClass>
         <xmpMM:OriginalDocumentID>uuid:65E6390686CF11DBA6E2D887CEACB407</xmpMM:OriginalDocumentID>
         <xmpMM:DocumentID>xmp.did:0A801174072068118083BCB8240ADB87</xmpMM:DocumentID>
         <xmpMM:InstanceID>xmp.iid:0A801174072068118083BCB8240ADB87</xmpMM:InstanceID>
         <xmpMM:DerivedFrom rdf:parseType="Resource">
            <stRef:instanceID>uuid:22871eaa-b530-4903-8f5c-1a8cf706721b</stRef:instanceID>
            <stRef:documentID>xmp.did:DECF64CBA0A7E311AD04B10BEB4FC0E2</stRef:documentID>
            <stRef:originalDocumentID>uuid:65E6390686CF11DBA6E2D887CEACB407</stRef:originalDocumentID>
            <stRef:renditionClass>proof:pdf</stRef:renditionClass>
         </xmpMM:DerivedFrom>
         <xmpMM:History>
            <rdf:Seq>
               <rdf:li rdf:parseType="Resource">
                  <stEvt:action>saved</stEvt:action>
                  <stEvt:instanceID>xmp.iid:FCDACBA380A7E311AD04B10BEB4FC0E2</stEvt:instanceID>
                  <stEvt:when>2014-03-09T13:47:49+02:00</stEvt:when>
                  <stEvt:softwareAgent>Adobe Illustrator CS5</stEvt:softwareAgent>
                  <stEvt:changed>/</stEvt:changed>
               </rdf:li>
               <rdf:li rdf:parseType="Resource">
                  <stEvt:action>saved</stEvt:action>
                  <stEvt:instanceID>xmp.iid:DECF64CBA0A7E311AD04B10BEB4FC0E2</stEvt:instanceID>
                  <stEvt:when>2014-03-09T17:46:27+02:00</stEvt:when>
                  <stEvt:softwareAgent>Adobe Illustrator CS5</stEvt:softwareAgent>
                  <stEvt:changed>/</stEvt:changed>
               </rdf:li>
               <rdf:li rdf:parseType="Resource">
                  <stEvt:action>saved</stEvt:action>
                  <stEvt:instanceID>xmp.iid:0A801174072068118083BCB8240ADB87</stEvt:instanceID>
                  <stEvt:when>2015-02-13T11:46:41+02:00</stEvt:when>
                  <stEvt:softwareAgent>Adobe Illustrator CS5.1</stEvt:softwareAgent>
                  <stEvt:changed>/</stEvt:changed>
               </rdf:li>
            </rdf:Seq>
         </xmpMM:History>
         <xmpMM:Manifest>
            <rdf:Seq>
               <rdf:li rdf:parseType="Resource">
                  <stMfs:linkForm>EmbedByReference</stMfs:linkForm>
                  <stMfs:reference rdf:parseType="Resource">
                     <stRef:filePath>C:\xampp\htdocs\bettercare\breast-care\images\2C0FCC31.png</stRef:filePath>
                  </stMfs:reference>
               </rdf:li>
            </rdf:Seq>
         </xmpMM:Manifest>
      </rdf:Description>
      <rdf:Description rdf:about=""
            xmlns:illustrator="http://ns.adobe.com/illustrator/1.0/">
         <illustrator:StartupProfile>Web</illustrator:StartupProfile>
      </rdf:Description>
      <rdf:Description rdf:about=""
            xmlns:xmpTPg="http://ns.adobe.com/xap/1.0/t/pg/"
            xmlns:stDim="http://ns.adobe.com/xap/1.0/sType/Dimensions#"
            xmlns:xmpG="http://ns.adobe.com/xap/1.0/g/">
         <xmpTPg:NPages>1</xmpTPg:NPages>
         <xmpTPg:HasVisibleTransparency>False</xmpTPg:HasVisibleTransparency>
         <xmpTPg:HasVisibleOverprint>False</xmpTPg:HasVisibleOverprint>
         <xmpTPg:MaxPageSize rdf:parseType="Resource">
            <stDim:w>144.999935</stDim:w>
            <stDim:h>99.194979</stDim:h>
            <stDim:unit>Millimeters</stDim:unit>
         </xmpTPg:MaxPageSize>
         <xmpTPg:PlateNames>
            <rdf:Seq>
               <rdf:li>Cyan</rdf:li>
               <rdf:li>Magenta</rdf:li>
               <rdf:li>Yellow</rdf:li>
               <rdf:li>Black</rdf:li>
            </rdf:Seq>
         </xmpTPg:PlateNames>
         <xmpTPg:SwatchGroups>
            <rdf:Seq>
               <rdf:li rdf:parseType="Resource">
                  <xmpG:groupName>Default Swatch Group</xmpG:groupName>
                  <xmpG:groupType>0</xmpG:groupType>
               </rdf:li>
            </rdf:Seq>
         </xmpTPg:SwatchGroups>
      </rdf:Description>
      <rdf:Description rdf:about=""
            xmlns:pdf="http://ns.adobe.com/pdf/1.3/">
         <pdf:Producer>Adobe PDF library 9.90</pdf:Producer>
      </rdf:Description>
   </rdf:RDF>
</x:xmpmeta>
                                                                                                    
                                                                                                    
                                                                                                    
                                                                                                    
                                                                                                    
                                                                                                    
                                                                                                    
                                                                                                    
                                                                                                    
                                                                                                    
                                                                                                    
                                                                                                    
                                                                                                    
                                                                                                    
                                                                                                    
                                                                                                    
                                                                                                    
                                                                                                    
                                                                                                    
                                                                                                    
                           
<?xpacket end="w"?>
	</metadata>
<g>
	<g>
		<g id="original" display="none">
			<defs>
				<rect id="SVGID_1_" x="-41.776" y="-6.893" width="410.084" height="288.282"/>
			</defs>
			<clipPath id="SVGID_2_" display="inline">
				<use xlink:href="#SVGID_1_"  overflow="visible"/>
			</clipPath>
			<g display="inline" clip-path="url(#SVGID_2_)">
				<g>
					<defs>
						<rect id="SVGID_3_" x="-41.776" y="-6.893" width="410.085" height="288.282"/>
					</defs>
					<clipPath id="SVGID_4_">
						<use xlink:href="#SVGID_3_"  overflow="visible"/>
					</clipPath>
					<g transform="matrix(1 0 0 1 -2.384186e-07 0)" clip-path="url(#SVGID_4_)">
					</g>
				</g>
			</g>
		</g>
		<g id="redraw">
			<g>
				<g>
					<rect x="16.793" y="223.633" fill="#D1D3D4" width="15.862" height="2.44"/>
				</g>
				<g>
					<rect x="50.958" y="223.633" fill="#D1D3D4" width="15.862" height="2.44"/>
				</g>
				<g>
					<rect x="86.343" y="219.973" fill="#D1D3D4" width="15.862" height="6.101"/>
				</g>
				<g>
					<rect x="121.728" y="196.789" fill="#D1D3D4" width="15.862" height="29.284"/>
				</g>
				<g>
					<rect x="180.294" y="266.339" fill="#D1D3D4" width="15.859" height="9.762"/>
				</g>
				<g>
					<rect x="157.114" y="110.155" fill="#D1D3D4" width="15.861" height="115.918"/>
				</g>
				<g>
					<rect x="192.493" y="63.789" fill="#D1D3D4" width="15.86" height="162.285"/>
				</g>
				<g>
					<rect x="226.654" y="29.624" fill="#D1D3D4" width="15.863" height="196.45"/>
				</g>
				<g>
					<rect x="260.819" y="97.953" fill="#D1D3D4" width="17.083" height="128.12"/>
				</g>
				<g>
					<rect x="296.205" y="107.715" fill="#D1D3D4" width="17.082" height="118.358"/>
				</g>
				<line fill="none" stroke="#000000" stroke-miterlimit="10" x1="6.422" y1="11.321" x2="6.422" y2="226.073"/>
				<line fill="none" stroke="#000000" stroke-miterlimit="10" x1="5.811" y1="226.684" x2="321.828" y2="226.684"/>
				<line fill="none" stroke="#000000" stroke-miterlimit="10" x1="321.219" y1="226.073" x2="321.219" y2="11.321"/>
				
					<line fill="none" stroke="#000000" stroke-linecap="round" stroke-miterlimit="10" x1="3.371" y1="11.931" x2="5.811" y2="11.931"/>
				
					<line fill="none" stroke="#000000" stroke-linecap="round" stroke-miterlimit="10" x1="3.371" y1="42.435" x2="5.811" y2="42.435"/>
				
					<line fill="none" stroke="#000000" stroke-linecap="round" stroke-miterlimit="10" x1="3.371" y1="72.939" x2="5.811" y2="72.939"/>
				
					<line fill="none" stroke="#000000" stroke-linecap="round" stroke-miterlimit="10" x1="3.371" y1="103.444" x2="5.811" y2="103.444"/>
				
					<line fill="none" stroke="#000000" stroke-linecap="round" stroke-miterlimit="10" x1="3.371" y1="133.948" x2="5.811" y2="133.948"/>
				
					<line fill="none" stroke="#000000" stroke-linecap="round" stroke-miterlimit="10" x1="3.371" y1="165.675" x2="5.811" y2="165.675"/>
				
					<line fill="none" stroke="#000000" stroke-linecap="round" stroke-miterlimit="10" x1="3.371" y1="196.179" x2="5.811" y2="196.179"/>
				
					<line fill="none" stroke="#000000" stroke-linecap="round" stroke-miterlimit="10" x1="3.371" y1="226.684" x2="5.811" y2="226.684"/>
				
					<line fill="none" stroke="#000000" stroke-linecap="round" stroke-miterlimit="10" x1="321.828" y1="226.684" x2="324.268" y2="226.684"/>
				
					<line fill="none" stroke="#000000" stroke-linecap="round" stroke-miterlimit="10" x1="321.828" y1="202.279" x2="324.268" y2="202.279"/>
				
					<line fill="none" stroke="#000000" stroke-linecap="round" stroke-miterlimit="10" x1="321.828" y1="179.097" x2="324.268" y2="179.097"/>
				
					<line fill="none" stroke="#000000" stroke-linecap="round" stroke-miterlimit="10" x1="321.828" y1="154.692" x2="324.268" y2="154.692"/>
				
					<line fill="none" stroke="#000000" stroke-linecap="round" stroke-miterlimit="10" x1="321.828" y1="131.508" x2="324.268" y2="131.508"/>
				
					<line fill="none" stroke="#000000" stroke-linecap="round" stroke-miterlimit="10" x1="321.828" y1="107.104" x2="324.268" y2="107.104"/>
				
					<line fill="none" stroke="#000000" stroke-linecap="round" stroke-miterlimit="10" x1="321.828" y1="83.921" x2="324.268" y2="83.921"/>
				
					<line fill="none" stroke="#000000" stroke-linecap="round" stroke-miterlimit="10" x1="321.828" y1="59.518" x2="324.268" y2="59.518"/>
				
					<line fill="none" stroke="#000000" stroke-linecap="round" stroke-miterlimit="10" x1="321.828" y1="35.114" x2="324.268" y2="35.114"/>
				
					<line fill="none" stroke="#000000" stroke-linecap="round" stroke-miterlimit="10" x1="321.828" y1="11.931" x2="324.268" y2="11.931"/>
				
					<line fill="none" stroke="#000000" stroke-linecap="round" stroke-miterlimit="10" x1="321.219" y1="227.293" x2="321.219" y2="229.733"/>
				
					<line fill="none" stroke="#000000" stroke-linecap="round" stroke-miterlimit="10" x1="285.833" y1="227.293" x2="285.833" y2="229.733"/>
				
					<line fill="none" stroke="#000000" stroke-linecap="round" stroke-miterlimit="10" x1="252.888" y1="227.293" x2="252.888" y2="229.733"/>
				
					<line fill="none" stroke="#000000" stroke-linecap="round" stroke-miterlimit="10" x1="217.504" y1="227.293" x2="217.504" y2="229.733"/>
				
					<line fill="none" stroke="#000000" stroke-linecap="round" stroke-miterlimit="10" x1="182.124" y1="227.293" x2="182.124" y2="229.733"/>
				
					<line fill="none" stroke="#000000" stroke-linecap="round" stroke-miterlimit="10" x1="147.962" y1="227.293" x2="147.962" y2="229.733"/>
				
					<line fill="none" stroke="#000000" stroke-linecap="round" stroke-miterlimit="10" x1="112.577" y1="227.293" x2="112.577" y2="229.733"/>
				
					<line fill="none" stroke="#000000" stroke-linecap="round" stroke-miterlimit="10" x1="77.192" y1="227.293" x2="77.192" y2="229.733"/>
				
					<line fill="none" stroke="#000000" stroke-linecap="round" stroke-miterlimit="10" x1="41.806" y1="227.293" x2="41.806" y2="229.733"/>
				
					<line fill="none" stroke="#000000" stroke-linecap="round" stroke-miterlimit="10" x1="6.422" y1="227.293" x2="6.422" y2="229.733"/>
				<rect x="22.894" y="223.633" fill="#939598" width="4.881" height="4.881"/>
				<rect x="57.059" y="223.633" fill="#939598" width="4.881" height="4.881"/>
				<rect x="92.444" y="221.192" fill="#939598" width="4.88" height="4.881"/>
				<rect x="127.829" y="202.89" fill="#939598" width="4.881" height="4.881"/>
				<rect x="161.994" y="146.762" fill="#939598" width="4.88" height="3.66"/>
				<rect x="197.373" y="91.853" fill="#939598" width="4.88" height="4.881"/>
				<rect x="232.756" y="43.045" fill="#939598" width="3.66" height="4.881"/>
				<rect x="266.921" y="56.467" fill="#939598" width="3.66" height="4.881"/>
				<rect x="302.305" y="21.082" fill="#939598" width="3.661" height="4.881"/>
				<polyline fill="none" stroke="#939598" stroke-width="2" stroke-linecap="round" stroke-miterlimit="10" points="304.068,24.18 
					268.799,59.151 234.666,45.349 199.398,94.197 164.134,148.771 130.003,205.64 94.733,224.43 59.465,227.293 25.334,227.293 
									"/>
				<g>
					<path d="M-14.722,8.548v0.594l-2.898,6.063h-0.932l2.888-5.889v-0.02h-3.256V8.548H-14.722z"/>
					<path d="M-9.356,11.805c0,2.263-0.851,3.513-2.315,3.513c-1.299,0-2.191-1.219-2.211-3.421c0-2.243,0.972-3.462,2.326-3.462
						C-10.165,8.435-9.356,9.684-9.356,11.805z M-12.971,11.908c0,1.73,0.531,2.714,1.35,2.714c0.912,0,1.353-1.075,1.353-2.776
						c0-1.638-0.409-2.713-1.353-2.713C-12.398,9.131-12.971,10.094-12.971,11.908z"/>
					<path d="M-4.104,11.805c0,2.263-0.851,3.513-2.314,3.513c-1.301,0-2.191-1.219-2.213-3.421c0-2.243,0.972-3.462,2.325-3.462
						C-4.913,8.435-4.104,9.684-4.104,11.805z M-7.719,11.908c0,1.73,0.533,2.714,1.351,2.714c0.912,0,1.352-1.075,1.352-2.776
						c0-1.638-0.409-2.713-1.352-2.713C-7.146,9.131-7.719,10.094-7.719,11.908z"/>
					<path d="M1.149,11.805c0,2.263-0.848,3.513-2.314,3.513c-1.301,0-2.191-1.219-2.213-3.421c0-2.243,0.974-3.462,2.325-3.462
						C0.341,8.435,1.149,9.684,1.149,11.805z M-2.467,11.908c0,1.73,0.533,2.714,1.351,2.714c0.913,0,1.353-1.075,1.353-2.776
						c0-1.638-0.409-2.713-1.353-2.713C-1.892,9.131-2.467,10.094-2.467,11.908z"/>
				</g>
				<g>
					<path d="M-15.093,39.761c-0.185-0.011-0.419,0.01-0.676,0.051c-1.424,0.226-2.161,1.25-2.315,2.356h0.021
						c0.317-0.431,0.88-0.779,1.617-0.779c1.18,0,2.009,0.86,2.009,2.151c0,1.23-0.83,2.356-2.224,2.356
						c-1.413,0-2.345-1.107-2.345-2.837c0-1.312,0.461-2.346,1.126-3.002c0.554-0.542,1.292-0.881,2.13-0.983
						c0.266-0.04,0.492-0.051,0.656-0.051L-15.093,39.761L-15.093,39.761z M-15.349,43.603c0-0.953-0.543-1.525-1.373-1.525
						c-0.543,0-1.056,0.328-1.301,0.819c-0.051,0.101-0.092,0.224-0.092,0.389c0.01,1.096,0.522,1.916,1.475,1.916
						C-15.87,45.201-15.349,44.556-15.349,43.603z"/>
					<path d="M-9.205,42.384c0,2.263-0.851,3.513-2.315,3.513c-1.3,0-2.191-1.219-2.211-3.422c0-2.243,0.972-3.461,2.325-3.461
						C-10.014,39.015-9.205,40.263-9.205,42.384z M-12.82,42.486c0,1.73,0.533,2.715,1.351,2.715c0.912,0,1.353-1.076,1.353-2.776
						c0-1.639-0.409-2.715-1.353-2.715C-12.247,39.71-12.82,40.673-12.82,42.486z"/>
					<path d="M-3.952,42.384c0,2.263-0.851,3.513-2.314,3.513c-1.301,0-2.191-1.219-2.213-3.422c0-2.243,0.972-3.461,2.326-3.461
						C-4.761,39.015-3.952,40.263-3.952,42.384z M-7.569,42.486c0,1.73,0.534,2.715,1.353,2.715c0.912,0,1.352-1.076,1.352-2.776
						c0-1.639-0.41-2.715-1.352-2.715C-6.996,39.71-7.569,40.673-7.569,42.486z"/>
					<path d="M1.299,42.384c0,2.263-0.85,3.513-2.314,3.513c-1.3,0-2.191-1.219-2.212-3.422c0-2.243,0.973-3.461,2.326-3.461
						C0.491,39.015,1.299,40.263,1.299,42.384z M-2.316,42.486c0,1.73,0.532,2.715,1.351,2.715c0.912,0,1.353-1.076,1.353-2.776
						c0-1.639-0.411-2.715-1.353-2.715C-1.742,39.71-2.316,40.673-2.316,42.486z"/>
				</g>
				<g>
					<path d="M-15.071,70.464h-2.539l-0.258,1.71c0.154-0.021,0.298-0.031,0.543-0.031c0.522,0,1.024,0.102,1.434,0.357
						c0.523,0.288,0.953,0.87,0.953,1.701c0,1.301-1.034,2.275-2.479,2.275c-0.727,0-1.331-0.205-1.659-0.411l0.225-0.685
						c0.278,0.163,0.819,0.368,1.434,0.368c0.84,0,1.578-0.554,1.568-1.445c0-0.861-0.583-1.465-1.905-1.465
						c-0.39,0-0.686,0.03-0.933,0.061l0.43-3.196h3.186L-15.071,70.464L-15.071,70.464z"/>
					<path d="M-9.356,72.963c0,2.264-0.851,3.514-2.315,3.514c-1.299,0-2.191-1.219-2.21-3.422c0-2.243,0.973-3.461,2.325-3.461
						C-10.165,69.594-9.356,70.843-9.356,72.963z M-12.971,73.065c0,1.732,0.531,2.715,1.35,2.715c0.912,0,1.353-1.075,1.353-2.774
						c0-1.639-0.409-2.715-1.353-2.715C-12.398,70.29-12.971,71.253-12.971,73.065z"/>
					<path d="M-4.104,72.963c0,2.264-0.851,3.514-2.314,3.514c-1.301,0-2.191-1.219-2.213-3.422c0-2.243,0.972-3.461,2.325-3.461
						C-4.914,69.594-4.104,70.843-4.104,72.963z M-7.719,73.065c0,1.732,0.533,2.715,1.351,2.715c0.913,0,1.352-1.075,1.352-2.774
						c0-1.639-0.409-2.715-1.352-2.715C-7.147,70.29-7.719,71.253-7.719,73.065z"/>
					<path d="M1.148,72.963c0,2.264-0.849,3.514-2.314,3.514c-1.301,0-2.191-1.219-2.212-3.422c0-2.243,0.974-3.461,2.325-3.461
						C0.341,69.594,1.148,70.843,1.148,72.963z M-2.468,73.065c0,1.732,0.532,2.715,1.352,2.715c0.912,0,1.353-1.075,1.353-2.774
						c0-1.639-0.409-2.715-1.353-2.715C-1.893,70.29-2.468,71.253-2.468,73.065z"/>
				</g>
				<g>
					<path d="M-16.24,107.138v-1.823h-3.092v-0.584l2.97-4.25h0.973v4.138h0.933v0.697h-0.933v1.823H-16.24z M-16.24,104.618v-2.223
						c0-0.348,0.011-0.695,0.031-1.044h-0.031c-0.205,0.389-0.368,0.676-0.553,0.983l-1.629,2.262v0.021L-16.24,104.618
						L-16.24,104.618z"/>
					<path d="M-9.337,103.737c0,2.263-0.85,3.513-2.314,3.513c-1.301,0-2.191-1.219-2.213-3.421c0-2.243,0.972-3.462,2.325-3.462
						C-10.147,100.366-9.337,101.616-9.337,103.737z M-12.954,103.839c0,1.73,0.534,2.713,1.353,2.713
						c0.912,0,1.352-1.075,1.352-2.774c0-1.639-0.409-2.715-1.352-2.715C-12.381,101.063-12.954,102.026-12.954,103.839z"/>
					<path d="M-4.085,103.737c0,2.263-0.851,3.513-2.315,3.513c-1.301,0-2.191-1.219-2.211-3.421c0-2.243,0.972-3.462,2.325-3.462
						C-4.894,100.366-4.085,101.616-4.085,103.737z M-7.701,103.839c0,1.73,0.534,2.713,1.352,2.713
						c0.912,0,1.353-1.075,1.353-2.774c0-1.639-0.41-2.715-1.353-2.715C-7.127,101.063-7.701,102.026-7.701,103.839z"/>
					<path d="M1.168,103.737c0,2.263-0.851,3.513-2.315,3.513c-1.299,0-2.191-1.219-2.21-3.421c0-2.243,0.972-3.462,2.325-3.462
						C0.359,100.366,1.168,101.616,1.168,103.737z M-2.448,103.839c0,1.73,0.531,2.713,1.35,2.713c0.912,0,1.353-1.075,1.353-2.774
						c0-1.639-0.409-2.715-1.353-2.715C-1.874,101.063-2.448,102.026-2.448,103.839z"/>
				</g>
				<g>
					<path d="M-18.81,136.993c0.256,0.153,0.839,0.41,1.474,0.41c1.146,0,1.517-0.728,1.506-1.291
						c-0.01-0.933-0.849-1.332-1.72-1.332h-0.502v-0.676h0.502c0.656,0,1.484-0.338,1.484-1.127c0-0.533-0.338-1.002-1.167-1.002
						c-0.534,0-1.045,0.235-1.331,0.44l-0.246-0.655c0.357-0.257,1.034-0.513,1.751-0.513c1.311,0,1.906,0.778,1.906,1.588
						c0,0.695-0.419,1.279-1.229,1.576v0.021c0.82,0.153,1.475,0.768,1.484,1.7c0,1.065-0.84,1.997-2.428,1.997
						c-0.749,0-1.402-0.234-1.73-0.45L-18.81,136.993z"/>
					<path d="M-9.337,134.617c0,2.264-0.85,3.513-2.314,3.513c-1.301,0-2.191-1.219-2.213-3.422c0-2.242,0.972-3.461,2.325-3.461
						C-10.147,131.247-9.337,132.496-9.337,134.617z M-12.954,134.72c0,1.73,0.534,2.716,1.353,2.716
						c0.912,0,1.352-1.077,1.352-2.776c0-1.64-0.409-2.716-1.352-2.716C-12.381,131.943-12.954,132.906-12.954,134.72z"/>
					<path d="M-4.085,134.617c0,2.264-0.851,3.513-2.315,3.513c-1.301,0-2.191-1.219-2.211-3.422c0-2.242,0.972-3.461,2.325-3.461
						C-4.894,131.247-4.085,132.496-4.085,134.617z M-7.701,134.72c0,1.73,0.534,2.716,1.352,2.716c0.912,0,1.353-1.077,1.353-2.776
						c0-1.64-0.41-2.716-1.353-2.716C-7.127,131.943-7.701,132.906-7.701,134.72z"/>
					<path d="M1.168,134.617c0,2.264-0.851,3.513-2.315,3.513c-1.299,0-2.191-1.219-2.21-3.422c0-2.242,0.972-3.461,2.325-3.461
						C0.359,131.247,1.168,132.496,1.168,134.617z M-2.448,134.72c0,1.73,0.531,2.716,1.35,2.716c0.912,0,1.353-1.077,1.353-2.776
						c0-1.64-0.409-2.716-1.353-2.716C-1.874,131.943-2.448,132.906-2.448,134.72z"/>
				</g>
				<g>
					<path d="M-19.025,168.749v-0.555l0.707-0.685c1.7-1.618,2.478-2.48,2.478-3.483c0-0.676-0.317-1.3-1.31-1.3
						c-0.605,0-1.107,0.308-1.415,0.563l-0.287-0.637c0.45-0.379,1.116-0.675,1.874-0.675c1.434,0,2.038,0.982,2.038,1.935
						c0,1.229-0.89,2.224-2.293,3.576l-0.522,0.491v0.021h2.98v0.747H-19.025z"/>
					<path d="M-9.337,165.349c0,2.262-0.85,3.514-2.314,3.514c-1.301,0-2.191-1.221-2.213-3.423c0-2.242,0.972-3.461,2.325-3.461
						C-10.147,161.979-9.337,163.229-9.337,165.349z M-12.954,165.451c0,1.73,0.534,2.715,1.353,2.715
						c0.912,0,1.352-1.075,1.352-2.775c0-1.639-0.409-2.714-1.352-2.714C-12.381,162.675-12.954,163.638-12.954,165.451z"/>
					<path d="M-4.085,165.349c0,2.262-0.851,3.514-2.315,3.514c-1.301,0-2.191-1.221-2.211-3.423c0-2.242,0.972-3.461,2.325-3.461
						C-4.894,161.979-4.085,163.229-4.085,165.349z M-7.701,165.451c0,1.73,0.534,2.715,1.352,2.715
						c0.912,0,1.353-1.075,1.353-2.775c0-1.639-0.41-2.714-1.353-2.714C-7.127,162.675-7.701,163.638-7.701,165.451z"/>
					<path d="M1.168,165.349c0,2.262-0.851,3.514-2.315,3.514c-1.299,0-2.191-1.221-2.21-3.423c0-2.242,0.972-3.461,2.325-3.461
						C0.359,161.979,1.168,163.229,1.168,165.349z M-2.448,165.451c0,1.73,0.531,2.715,1.35,2.715c0.912,0,1.353-1.075,1.353-2.775
						c0-1.639-0.409-2.714-1.353-2.714C-1.874,162.675-2.448,163.638-2.448,165.451z"/>
				</g>
				<g>
					<path d="M-17.069,193.51h-0.021l-1.157,0.626l-0.174-0.687l1.454-0.778h0.768v6.658h-0.87V193.51z"/>
					<path d="M-9.337,195.928c0,2.264-0.85,3.513-2.314,3.513c-1.301,0-2.191-1.22-2.213-3.423c0-2.242,0.972-3.46,2.325-3.46
						C-10.147,192.558-9.337,193.807-9.337,195.928z M-12.954,196.03c0,1.729,0.534,2.714,1.353,2.714
						c0.912,0,1.352-1.074,1.352-2.776c0-1.637-0.409-2.714-1.352-2.714C-12.381,193.254-12.954,194.216-12.954,196.03z"/>
					<path d="M-4.085,195.928c0,2.264-0.851,3.513-2.315,3.513c-1.301,0-2.191-1.22-2.211-3.423c0-2.242,0.972-3.46,2.325-3.46
						C-4.894,192.558-4.085,193.807-4.085,195.928z M-7.701,196.03c0,1.729,0.534,2.714,1.352,2.714
						c0.912,0,1.353-1.074,1.353-2.776c0-1.637-0.41-2.714-1.353-2.714C-7.127,193.254-7.701,194.216-7.701,196.03z"/>
					<path d="M1.168,195.928c0,2.264-0.851,3.513-2.315,3.513c-1.299,0-2.191-1.22-2.21-3.423c0-2.242,0.972-3.46,2.325-3.46
						C0.359,192.558,1.168,193.807,1.168,195.928z M-2.448,196.03c0,1.729,0.531,2.714,1.35,2.714c0.912,0,1.353-1.074,1.353-2.776
						c0-1.637-0.409-2.714-1.353-2.714C-1.874,193.254-2.448,194.216-2.448,196.03z"/>
				</g>
				<g>
					<path d="M1.168,226.657c0,2.263-0.851,3.514-2.315,3.514c-1.299,0-2.191-1.22-2.212-3.421c0-2.244,0.973-3.462,2.326-3.462
						C0.359,223.287,1.168,224.537,1.168,226.657z M-2.448,226.759c0,1.732,0.531,2.714,1.35,2.714c0.912,0,1.353-1.075,1.353-2.774
						c0-1.638-0.409-2.714-1.353-2.714C-1.874,223.984-2.448,224.947-2.448,226.759z"/>
				</g>
				<g>
					<path d="M331.149,226.663c0,2.263-0.85,3.513-2.315,3.513c-1.299,0-2.191-1.22-2.211-3.422c0-2.243,0.974-3.462,2.324-3.462
						C330.34,223.292,331.149,224.542,331.149,226.663z M327.534,226.766c0,1.73,0.532,2.714,1.35,2.714
						c0.913,0,1.353-1.077,1.353-2.776c0-1.638-0.408-2.714-1.353-2.714C328.107,223.989,327.534,224.952,327.534,226.766z"/>
				</g>
				<g>
					<path d="M330.689,200.061h-2.541l-0.256,1.712c0.153-0.021,0.297-0.031,0.542-0.031c0.523,0,1.024,0.103,1.434,0.358
						c0.523,0.287,0.953,0.87,0.953,1.702c0,1.3-1.036,2.273-2.479,2.273c-0.729,0-1.332-0.205-1.658-0.41l0.225-0.687
						c0.279,0.163,0.822,0.368,1.435,0.368c0.839,0,1.578-0.554,1.567-1.445c0-0.859-0.584-1.463-1.905-1.463
						c-0.39,0-0.687,0.03-0.933,0.061l0.43-3.196h3.188V200.061z"/>
					<path d="M336.401,202.56c0,2.263-0.85,3.513-2.313,3.513c-1.301,0-2.192-1.218-2.212-3.421c0-2.242,0.973-3.462,2.325-3.462
						C335.593,199.189,336.401,200.438,336.401,202.56z M332.786,202.662c0,1.732,0.533,2.715,1.352,2.715
						c0.91,0,1.353-1.075,1.353-2.774c0-1.639-0.41-2.714-1.353-2.714C333.359,199.886,332.786,200.849,332.786,202.662z"/>
				</g>
				<g>
					<path d="M297.209,235.446c-0.748-0.35-1.066-0.921-1.066-1.496c0-1.056,0.892-1.771,2.07-1.771c1.29,0,1.945,0.8,1.945,1.639
						c0,0.563-0.285,1.177-1.105,1.556v0.031c0.83,0.329,1.343,0.923,1.343,1.721c0,1.168-0.993,1.937-2.264,1.937
						c-1.394,0-2.233-0.818-2.233-1.792c0-0.841,0.503-1.443,1.321-1.792L297.209,235.446z M299.482,237.219
						c0-0.799-0.563-1.197-1.464-1.454c-0.778,0.226-1.199,0.748-1.199,1.382c-0.029,0.665,0.483,1.261,1.331,1.261
						C298.96,238.407,299.482,237.904,299.482,237.219z M297.003,233.889c-0.008,0.665,0.503,1.024,1.271,1.229
						c0.573-0.195,1.013-0.604,1.013-1.208c0-0.534-0.317-1.087-1.126-1.087C297.414,232.823,297.003,233.315,297.003,233.889z"/>
					<path d="M305.666,235.549c0,2.263-0.849,3.513-2.314,3.513c-1.3,0-2.191-1.219-2.211-3.421c0-2.243,0.972-3.462,2.324-3.462
						C304.857,232.18,305.666,233.429,305.666,235.549z M302.052,235.651c0,1.729,0.534,2.715,1.352,2.715
						c0.911,0,1.353-1.077,1.353-2.776c0-1.638-0.41-2.714-1.353-2.714C302.624,232.876,302.052,233.839,302.052,235.651z"/>
					<path d="M309.404,233.5v2.407h2.313v0.615h-2.313v2.427h-0.655v-2.427h-2.314v-0.615h2.314V233.5H309.404z"/>
				</g>
				<g>
					<path d="M261.045,232.292v0.595l-2.897,6.063h-0.934l2.888-5.89v-0.021h-3.257v-0.748H261.045z"/>
					<path d="M266.41,235.549c0,2.263-0.851,3.513-2.313,3.513c-1.3,0-2.19-1.219-2.212-3.421c0-2.243,0.973-3.462,2.325-3.462
						C265.601,232.18,266.41,233.429,266.41,235.549z M262.795,235.651c0,1.729,0.533,2.715,1.352,2.715
						c0.912,0,1.352-1.077,1.352-2.776c0-1.638-0.41-2.714-1.352-2.714C263.368,232.876,262.795,233.839,262.795,235.651z"/>
					<path d="M271.582,236.041v0.614h-4.508v-0.614H271.582z"/>
					<path d="M273.578,235.446c-0.75-0.35-1.066-0.921-1.066-1.496c0-1.056,0.891-1.771,2.069-1.771c1.289,0,1.945,0.8,1.945,1.639
						c0,0.563-0.285,1.177-1.105,1.556v0.031c0.831,0.329,1.342,0.923,1.342,1.721c0,1.168-0.993,1.937-2.263,1.937
						c-1.394,0-2.234-0.818-2.234-1.792c0-0.841,0.503-1.443,1.322-1.792L273.578,235.446z M275.85,237.219
						c0-0.799-0.563-1.197-1.464-1.454c-0.779,0.226-1.197,0.748-1.197,1.382c-0.031,0.665,0.48,1.261,1.331,1.261
						C275.328,238.407,275.85,237.904,275.85,237.219z M273.372,233.889c-0.01,0.665,0.503,1.024,1.27,1.229
						c0.573-0.195,1.015-0.604,1.015-1.208c0-0.534-0.317-1.087-1.126-1.087C273.781,232.823,273.372,233.315,273.372,233.889z"/>
					<path d="M282.033,235.549c0,2.263-0.847,3.513-2.313,3.513c-1.302,0-2.192-1.219-2.212-3.421c0-2.243,0.974-3.462,2.324-3.462
						C281.226,232.18,282.033,233.429,282.033,235.549z M278.418,235.651c0,1.729,0.535,2.715,1.353,2.715
						c0.913,0,1.353-1.077,1.353-2.776c0-1.638-0.408-2.714-1.353-2.714C278.992,232.876,278.418,233.839,278.418,235.651z"/>
				</g>
				<g>
					<path d="M225.878,232.926c-0.185-0.01-0.421,0.011-0.677,0.053c-1.424,0.225-2.162,1.249-2.315,2.355h0.021
						c0.319-0.43,0.883-0.778,1.618-0.778c1.179,0,2.009,0.86,2.009,2.151c0,1.229-0.832,2.355-2.224,2.355
						c-1.413,0-2.345-1.105-2.345-2.836c0-1.313,0.46-2.348,1.126-3.003c0.553-0.542,1.29-0.881,2.131-0.982
						c0.266-0.04,0.492-0.052,0.656-0.052V232.926z M225.62,236.768c0-0.953-0.543-1.525-1.371-1.525
						c-0.543,0-1.056,0.329-1.302,0.818c-0.051,0.102-0.093,0.226-0.093,0.39c0.013,1.097,0.524,1.916,1.478,1.916
						C225.098,238.366,225.62,237.721,225.62,236.768z"/>
					<path d="M231.764,235.549c0,2.263-0.85,3.513-2.315,3.513c-1.3,0-2.191-1.219-2.211-3.421c0-2.243,0.974-3.462,2.322-3.462
						C230.955,232.18,231.764,233.429,231.764,235.549z M228.147,235.651c0,1.729,0.534,2.715,1.352,2.715
						c0.913,0,1.353-1.077,1.353-2.776c0-1.638-0.409-2.714-1.353-2.714C228.722,232.876,228.147,233.839,228.147,235.651z"/>
					<path d="M236.933,236.041v0.614h-4.506v-0.614H236.933z"/>
					<path d="M242.022,232.292v0.595l-2.897,6.063h-0.933l2.888-5.89v-0.021h-3.257v-0.748H242.022z"/>
					<path d="M247.389,235.549c0,2.263-0.851,3.513-2.314,3.513c-1.3,0-2.192-1.219-2.211-3.421c0-2.243,0.972-3.462,2.324-3.462
						C246.58,232.18,247.389,233.429,247.389,235.549z M243.774,235.651c0,1.729,0.531,2.715,1.35,2.715
						c0.912,0,1.353-1.077,1.353-2.776c0-1.638-0.41-2.714-1.353-2.714C244.347,232.876,243.774,233.839,243.774,235.651z"/>
				</g>
				<g>
					<path d="M190.656,233.05h-2.539l-0.256,1.711c0.153-0.021,0.297-0.031,0.542-0.031c0.521,0,1.023,0.102,1.434,0.358
						c0.522,0.285,0.953,0.869,0.953,1.701c0,1.3-1.035,2.273-2.479,2.273c-0.727,0-1.332-0.205-1.658-0.41l0.227-0.687
						c0.277,0.165,0.819,0.37,1.433,0.37c0.839,0,1.578-0.553,1.568-1.444c0-0.86-0.585-1.466-1.906-1.466
						c-0.389,0-0.686,0.031-0.932,0.063l0.429-3.196h3.186V233.05L190.656,233.05z"/>
					<path d="M196.366,235.549c0,2.263-0.847,3.513-2.312,3.513c-1.302,0-2.192-1.219-2.212-3.421c0-2.243,0.974-3.462,2.323-3.462
						C195.557,232.18,196.366,233.429,196.366,235.549z M192.752,235.651c0,1.729,0.535,2.715,1.353,2.715
						c0.911,0,1.351-1.077,1.351-2.776c0-1.638-0.408-2.714-1.351-2.714C193.326,232.876,192.752,233.839,192.752,235.651z"/>
					<path d="M201.539,236.041v0.614h-4.505v-0.614H201.539z"/>
					<path d="M206.103,232.926c-0.185-0.01-0.419,0.011-0.675,0.053c-1.424,0.225-2.162,1.249-2.315,2.355h0.022
						c0.317-0.43,0.881-0.778,1.617-0.778c1.179,0,2.007,0.86,2.007,2.151c0,1.229-0.828,2.355-2.222,2.355
						c-1.413,0-2.345-1.105-2.345-2.836c0-1.313,0.461-2.348,1.126-3.003c0.555-0.542,1.292-0.881,2.131-0.982
						c0.267-0.04,0.491-0.052,0.654-0.052L206.103,232.926L206.103,232.926z M205.848,236.768c0-0.953-0.542-1.525-1.373-1.525
						c-0.542,0-1.055,0.329-1.3,0.818c-0.052,0.102-0.091,0.226-0.091,0.39c0.01,1.097,0.521,1.916,1.474,1.916
						C205.326,238.366,205.848,237.721,205.848,236.768z"/>
					<path d="M211.991,235.549c0,2.263-0.851,3.513-2.315,3.513c-1.298,0-2.189-1.219-2.21-3.421c0-2.243,0.972-3.462,2.323-3.462
						C211.181,232.18,211.991,233.429,211.991,235.549z M208.377,235.651c0,1.729,0.531,2.715,1.349,2.715
						c0.911,0,1.352-1.077,1.352-2.776c0-1.638-0.41-2.714-1.352-2.714C208.95,232.876,208.377,233.839,208.377,235.651z"/>
				</g>
				<g>
					<path d="M154.977,238.949v-1.824h-3.093v-0.584l2.971-4.25h0.974v4.138h0.932v0.696h-0.932v1.824H154.977z M154.977,236.429
						v-2.222c0-0.348,0.01-0.696,0.031-1.045h-0.031c-0.205,0.39-0.368,0.677-0.553,0.984l-1.629,2.263v0.02H154.977
						L154.977,236.429z"/>
					<path d="M161.879,235.549c0,2.263-0.851,3.513-2.315,3.513c-1.3,0-2.191-1.219-2.211-3.421c0-2.243,0.972-3.462,2.325-3.462
						C161.07,232.18,161.879,233.429,161.879,235.549z M158.263,235.651c0,1.729,0.531,2.715,1.35,2.715
						c0.913,0,1.352-1.077,1.352-2.776c0-1.638-0.409-2.714-1.352-2.714C158.836,232.876,158.263,233.839,158.263,235.651z"/>
					<path d="M167.051,236.041v0.614h-4.508v-0.614H167.051z"/>
					<path d="M171.788,233.05h-2.538l-0.256,1.711c0.153-0.021,0.296-0.031,0.542-0.031c0.522,0,1.024,0.102,1.434,0.358
						c0.522,0.285,0.952,0.869,0.952,1.701c0,1.3-1.035,2.273-2.478,2.273c-0.729,0-1.332-0.205-1.659-0.41l0.226-0.687
						c0.277,0.165,0.819,0.37,1.435,0.37c0.839,0,1.577-0.553,1.567-1.444c0-0.86-0.584-1.466-1.906-1.466
						c-0.39,0-0.685,0.031-0.932,0.063l0.431-3.196h3.185v0.758H171.788z"/>
					<path d="M177.5,235.549c0,2.263-0.848,3.513-2.313,3.513c-1.301,0-2.192-1.219-2.212-3.421c0-2.243,0.974-3.462,2.324-3.462
						C176.691,232.18,177.5,233.429,177.5,235.549z M173.886,235.651c0,1.729,0.534,2.715,1.351,2.715
						c0.913,0,1.352-1.077,1.352-2.776c0-1.638-0.409-2.714-1.352-2.714C174.458,232.876,173.886,233.839,173.886,235.651z"/>
				</g>
				<g>
					<path d="M117.76,237.926c0.256,0.153,0.84,0.41,1.475,0.41c1.147,0,1.516-0.728,1.506-1.292
						c-0.009-0.932-0.851-1.33-1.721-1.33h-0.502v-0.677h0.502c0.656,0,1.485-0.338,1.485-1.126c0-0.532-0.337-1.004-1.167-1.004
						c-0.533,0-1.044,0.235-1.331,0.44l-0.246-0.655c0.358-0.256,1.036-0.513,1.753-0.513c1.311,0,1.904,0.778,1.904,1.588
						c0,0.695-0.419,1.279-1.229,1.576v0.021c0.819,0.152,1.474,0.767,1.485,1.7c0,1.065-0.839,1.997-2.428,1.997
						c-0.747,0-1.403-0.235-1.73-0.449L117.76,237.926z"/>
					<path d="M127.232,235.549c0,2.263-0.85,3.513-2.314,3.513c-1.301,0-2.191-1.219-2.213-3.421c0-2.243,0.974-3.462,2.325-3.462
						C126.424,232.18,127.232,233.429,127.232,235.549z M123.617,235.651c0,1.729,0.533,2.715,1.351,2.715
						c0.912,0,1.353-1.077,1.353-2.776c0-1.638-0.41-2.714-1.353-2.714C124.191,232.876,123.617,233.839,123.617,235.651z"/>
					<path d="M132.404,236.041v0.614h-4.506v-0.614H132.404z"/>
					<path d="M135.956,238.949v-1.824h-3.093v-0.584l2.97-4.25h0.974v4.138h0.932v0.696h-0.932v1.824H135.956z M135.956,236.429
						v-2.222c0-0.348,0.009-0.696,0.031-1.045h-0.031c-0.205,0.39-0.368,0.677-0.554,0.984l-1.629,2.263v0.02H135.956
						L135.956,236.429z"/>
					<path d="M142.857,235.549c0,2.263-0.851,3.513-2.315,3.513c-1.3,0-2.191-1.219-2.212-3.421c0-2.243,0.973-3.462,2.324-3.462
						C142.048,232.18,142.857,233.429,142.857,235.549z M139.242,235.651c0,1.729,0.533,2.715,1.352,2.715
						c0.911,0,1.352-1.077,1.352-2.776c0-1.638-0.409-2.714-1.352-2.714C139.815,232.876,139.242,233.839,139.242,235.651z"/>
				</g>
				<g>
					<path d="M82.297,238.949v-0.554l0.705-0.687c1.702-1.617,2.48-2.478,2.48-3.481c0-0.676-0.317-1.302-1.312-1.302
						c-0.603,0-1.104,0.308-1.413,0.565l-0.287-0.637c0.45-0.379,1.116-0.676,1.874-0.676c1.434,0,2.038,0.983,2.038,1.936
						c0,1.229-0.891,2.222-2.293,3.574l-0.522,0.492v0.021h2.979v0.747H82.297L82.297,238.949z"/>
					<path d="M91.984,235.549c0,2.263-0.85,3.513-2.314,3.513c-1.301,0-2.191-1.219-2.213-3.421c0-2.243,0.972-3.462,2.325-3.462
						C91.175,232.18,91.984,233.429,91.984,235.549z M88.369,235.651c0,1.729,0.533,2.715,1.351,2.715
						c0.913,0,1.351-1.077,1.351-2.776c0-1.638-0.409-2.714-1.351-2.714C88.941,232.876,88.369,233.839,88.369,235.651z"/>
					<path d="M97.154,236.041v0.614h-4.507v-0.614H97.154z"/>
					<path d="M98.136,237.926c0.256,0.153,0.84,0.41,1.474,0.41c1.147,0,1.517-0.728,1.506-1.292c-0.01-0.932-0.85-1.33-1.721-1.33
						h-0.503v-0.677h0.503c0.655,0,1.484-0.338,1.484-1.126c0-0.532-0.338-1.004-1.167-1.004c-0.533,0-1.044,0.235-1.331,0.44
						l-0.246-0.655c0.357-0.256,1.036-0.513,1.753-0.513c1.31,0,1.904,0.778,1.904,1.588c0,0.695-0.419,1.279-1.229,1.576v0.021
						c0.818,0.152,1.474,0.767,1.484,1.7c0,1.065-0.839,1.997-2.428,1.997c-0.747,0-1.402-0.235-1.73-0.449L98.136,237.926z"/>
					<path d="M107.608,235.549c0,2.263-0.85,3.513-2.314,3.513c-1.3,0-2.191-1.219-2.213-3.421c0-2.243,0.974-3.462,2.326-3.462
						C106.8,232.18,107.608,233.429,107.608,235.549z M103.993,235.651c0,1.729,0.532,2.715,1.351,2.715
						c0.912,0,1.353-1.077,1.353-2.776c0-1.638-0.411-2.714-1.353-2.714C104.567,232.876,103.993,233.839,103.993,235.651z"/>
				</g>
				<g>
					<path d="M49.004,233.131h-0.021l-1.156,0.626l-0.175-0.686l1.455-0.779h0.768v6.658h-0.87V233.131z"/>
					<path d="M56.735,235.549c0,2.263-0.85,3.513-2.315,3.513c-1.3,0-2.191-1.219-2.212-3.421c0-2.243,0.973-3.462,2.324-3.462
						C55.927,232.18,56.735,233.429,56.735,235.549z M53.121,235.651c0,1.729,0.531,2.715,1.351,2.715
						c0.912,0,1.353-1.077,1.353-2.776c0-1.638-0.409-2.714-1.353-2.714C53.693,232.876,53.121,233.839,53.121,235.651z"/>
					<path d="M61.906,236.041v0.614H57.4v-0.614H61.906z"/>
					<path d="M62.674,238.949v-0.554l0.707-0.687c1.7-1.617,2.479-2.478,2.479-3.481c0-0.676-0.318-1.302-1.312-1.302
						c-0.603,0-1.104,0.308-1.413,0.565l-0.287-0.637c0.45-0.379,1.116-0.676,1.874-0.676c1.434,0,2.038,0.983,2.038,1.936
						c0,1.229-0.891,2.222-2.293,3.574l-0.522,0.492v0.021h2.979v0.747H62.674L62.674,238.949z"/>
					<path d="M72.36,235.549c0,2.263-0.851,3.513-2.314,3.513c-1.301,0-2.191-1.219-2.212-3.421c0-2.243,0.972-3.462,2.325-3.462
						C71.551,232.18,72.36,233.429,72.36,235.549z M68.745,235.651c0,1.729,0.532,2.715,1.351,2.715
						c0.912,0,1.351-1.077,1.351-2.776c0-1.638-0.409-2.714-1.351-2.714C69.318,232.876,68.745,233.839,68.745,235.651z"/>
				</g>
				<g>
					<path d="M18.56,235.549c0,2.263-0.851,3.513-2.315,3.513c-1.3,0-2.191-1.219-2.211-3.421c0-2.243,0.972-3.462,2.325-3.462
						C17.751,232.18,18.56,233.429,18.56,235.549z M14.944,235.651c0,1.729,0.533,2.715,1.351,2.715
						c0.912,0,1.353-1.077,1.353-2.776c0-1.638-0.409-2.714-1.353-2.714C15.518,232.876,14.944,233.839,14.944,235.651z"/>
					<path d="M23.732,236.041v0.614h-4.508v-0.614H23.732z"/>
					<path d="M26.453,233.131h-0.02l-1.157,0.626l-0.174-0.686l1.454-0.779h0.768v6.658h-0.87V233.131z"/>
					<path d="M34.184,235.549c0,2.263-0.848,3.513-2.314,3.513c-1.301,0-2.191-1.219-2.212-3.421c0-2.243,0.972-3.462,2.325-3.462
						C33.375,232.18,34.184,233.429,34.184,235.549z M30.569,235.651c0,1.729,0.533,2.715,1.352,2.715
						c0.913,0,1.351-1.077,1.351-2.776c0-1.638-0.409-2.714-1.351-2.714C31.142,232.876,30.569,233.839,30.569,235.651z"/>
				</g>
				<g>
					<path d="M328.671,176.643h-0.021l-1.157,0.626l-0.175-0.686l1.453-0.779h0.768v6.657h-0.869L328.671,176.643L328.671,176.643z"
						/>
					<path d="M336.401,179.061c0,2.263-0.85,3.513-2.313,3.513c-1.301,0-2.192-1.219-2.212-3.421c0-2.242,0.973-3.462,2.325-3.462
						C335.593,175.692,336.401,176.94,336.401,179.061z M332.786,179.163c0,1.731,0.533,2.716,1.352,2.716
						c0.91,0,1.353-1.075,1.353-2.775c0-1.639-0.41-2.716-1.353-2.716C333.359,176.388,332.786,177.351,332.786,179.163z"/>
					<path d="M341.655,179.061c0,2.263-0.851,3.513-2.314,3.513c-1.3,0-2.19-1.219-2.212-3.421c0-2.242,0.973-3.462,2.325-3.462
						C340.844,175.692,341.655,176.94,341.655,179.061z M338.04,179.163c0,1.731,0.531,2.716,1.35,2.716
						c0.912,0,1.352-1.075,1.352-2.775c0-1.639-0.41-2.716-1.352-2.716C338.613,176.388,338.04,177.351,338.04,179.163z"/>
				</g>
				<g>
					<path d="M328.671,152.392h-0.021l-1.157,0.625l-0.175-0.687l1.453-0.778h0.768v6.657h-0.869L328.671,152.392L328.671,152.392z"
						/>
					<path d="M335.94,152.31h-2.539l-0.258,1.71c0.155-0.021,0.298-0.03,0.544-0.03c0.521,0,1.024,0.103,1.435,0.359
						c0.521,0.286,0.952,0.869,0.952,1.701c0,1.299-1.036,2.272-2.479,2.272c-0.728,0-1.331-0.205-1.66-0.41l0.228-0.685
						c0.275,0.164,0.818,0.369,1.434,0.369c0.839,0,1.577-0.554,1.567-1.444c0-0.86-0.586-1.466-1.907-1.466
						c-0.387,0-0.685,0.031-0.932,0.063l0.431-3.196h3.185V152.31L335.94,152.31z"/>
					<path d="M341.655,154.809c0,2.264-0.851,3.513-2.314,3.513c-1.3,0-2.19-1.219-2.212-3.421c0-2.243,0.973-3.462,2.325-3.462
						C340.844,151.438,341.655,152.688,341.655,154.809z M338.04,154.911c0,1.729,0.531,2.714,1.35,2.714
						c0.912,0,1.352-1.074,1.352-2.775c0-1.638-0.41-2.713-1.352-2.713C338.613,152.137,338.04,153.098,338.04,154.911z"/>
				</g>
				<g>
					<path d="M326.714,134.708v-0.554l0.706-0.686c1.701-1.618,2.479-2.479,2.479-3.482c0-0.676-0.318-1.301-1.313-1.301
						c-0.603,0-1.104,0.308-1.412,0.564l-0.285-0.636c0.449-0.38,1.115-0.677,1.873-0.677c1.434,0,2.038,0.983,2.038,1.936
						c0,1.23-0.891,2.224-2.295,3.575l-0.522,0.491v0.021h2.979v0.747H326.714z"/>
					<path d="M336.401,131.31c0,2.262-0.85,3.513-2.313,3.513c-1.301,0-2.192-1.22-2.212-3.422c0-2.242,0.973-3.462,2.325-3.462
						C335.593,127.938,336.401,129.188,336.401,131.31z M332.786,131.41c0,1.731,0.533,2.715,1.352,2.715
						c0.91,0,1.353-1.075,1.353-2.774c0-1.639-0.41-2.715-1.353-2.715C333.359,128.636,332.786,129.598,332.786,131.41z"/>
					<path d="M341.655,131.31c0,2.262-0.851,3.513-2.314,3.513c-1.3,0-2.19-1.22-2.212-3.422c0-2.242,0.973-3.462,2.325-3.462
						C340.844,127.938,341.655,129.188,341.655,131.31z M338.04,131.41c0,1.731,0.531,2.715,1.35,2.715
						c0.912,0,1.352-1.075,1.352-2.774c0-1.639-0.41-2.715-1.352-2.715C338.613,128.636,338.04,129.598,338.04,131.41z"/>
				</g>
				<g>
					<path d="M326.714,110.909v-0.555l0.706-0.686c1.701-1.618,2.479-2.478,2.479-3.482c0-0.676-0.318-1.301-1.313-1.301
						c-0.603,0-1.104,0.308-1.412,0.564l-0.285-0.636c0.449-0.379,1.115-0.676,1.873-0.676c1.434,0,2.038,0.984,2.038,1.935
						c0,1.229-0.891,2.222-2.295,3.575l-0.522,0.492v0.021h2.979v0.748H326.714L326.714,110.909z"/>
					<path d="M335.94,105.008h-2.539l-0.258,1.71c0.155-0.021,0.298-0.03,0.544-0.03c0.521,0,1.024,0.102,1.435,0.357
						c0.521,0.286,0.952,0.872,0.952,1.701c0,1.299-1.036,2.274-2.479,2.274c-0.728,0-1.331-0.205-1.66-0.411l0.228-0.686
						c0.275,0.164,0.818,0.369,1.434,0.369c0.839,0,1.577-0.553,1.567-1.445c0-0.86-0.586-1.466-1.907-1.466
						c-0.387,0-0.685,0.032-0.932,0.063l0.431-3.196h3.185V105.008L335.94,105.008z"/>
					<path d="M341.655,107.508c0,2.264-0.851,3.514-2.314,3.514c-1.3,0-2.19-1.219-2.212-3.422c0-2.242,0.973-3.461,2.325-3.461
						C340.844,104.138,341.655,105.388,341.655,107.508z M338.04,107.611c0,1.73,0.531,2.714,1.35,2.714
						c0.912,0,1.352-1.075,1.352-2.775c0-1.639-0.41-2.715-1.352-2.715C338.613,104.835,338.04,105.797,338.04,107.611z"/>
				</g>
				<g>
					<path d="M326.928,85.933c0.257,0.154,0.839,0.41,1.475,0.41c1.146,0,1.517-0.728,1.505-1.291
						c-0.009-0.933-0.848-1.333-1.719-1.333h-0.503v-0.676h0.503c0.654,0,1.484-0.338,1.484-1.126c0-0.533-0.337-1.004-1.168-1.004
						c-0.532,0-1.043,0.235-1.331,0.44l-0.246-0.655c0.358-0.256,1.035-0.512,1.753-0.512c1.311,0,1.906,0.778,1.906,1.587
						c0,0.696-0.422,1.28-1.229,1.577v0.021c0.819,0.153,1.475,0.768,1.484,1.7c0,1.066-0.84,1.997-2.427,1.997
						c-0.749,0-1.404-0.235-1.731-0.45L326.928,85.933z"/>
					<path d="M336.401,83.556c0,2.263-0.85,3.513-2.313,3.513c-1.301,0-2.192-1.219-2.212-3.421c0-2.243,0.973-3.461,2.325-3.461
						C335.593,80.188,336.401,81.437,336.401,83.556z M332.786,83.659c0,1.73,0.533,2.715,1.352,2.715
						c0.91,0,1.353-1.075,1.353-2.776c0-1.639-0.41-2.714-1.353-2.714C333.359,80.884,332.786,81.847,332.786,83.659z"/>
					<path d="M341.655,83.556c0,2.263-0.851,3.513-2.314,3.513c-1.3,0-2.19-1.219-2.212-3.421c0-2.243,0.973-3.461,2.325-3.461
						C340.844,80.188,341.655,81.437,341.655,83.556z M338.04,83.659c0,1.73,0.531,2.715,1.35,2.715
						c0.912,0,1.352-1.075,1.352-2.776c0-1.639-0.41-2.714-1.352-2.714C338.613,80.884,338.04,81.847,338.04,83.659z"/>
				</g>
				<g>
					<path d="M326.928,61.831c0.257,0.154,0.839,0.411,1.475,0.411c1.146,0,1.517-0.728,1.505-1.291
						c-0.009-0.933-0.848-1.331-1.719-1.331h-0.503v-0.676h0.503c0.654,0,1.484-0.338,1.484-1.126c0-0.533-0.337-1.004-1.168-1.004
						c-0.532,0-1.043,0.235-1.331,0.44l-0.246-0.656c0.358-0.255,1.035-0.512,1.753-0.512c1.311,0,1.906,0.778,1.906,1.588
						c0,0.695-0.422,1.279-1.229,1.576v0.021c0.819,0.154,1.475,0.769,1.484,1.701c0,1.065-0.84,1.997-2.427,1.997
						c-0.749,0-1.404-0.235-1.731-0.451L326.928,61.831z"/>
					<path d="M335.94,56.957h-2.539l-0.258,1.71c0.155-0.021,0.298-0.03,0.544-0.03c0.521,0,1.024,0.101,1.435,0.357
						c0.521,0.287,0.952,0.87,0.952,1.701c0,1.301-1.036,2.274-2.479,2.274c-0.728,0-1.331-0.205-1.66-0.41l0.228-0.686
						c0.275,0.164,0.818,0.369,1.434,0.369c0.839,0,1.577-0.554,1.567-1.445c0-0.861-0.586-1.465-1.907-1.465
						c-0.387,0-0.685,0.03-0.932,0.061l0.431-3.196h3.185V56.957L335.94,56.957z"/>
					<path d="M341.655,59.455c0,2.264-0.851,3.513-2.314,3.513c-1.3,0-2.19-1.219-2.212-3.421c0-2.244,0.973-3.462,2.325-3.462
						C340.844,56.085,341.655,57.335,341.655,59.455z M338.04,59.557c0,1.731,0.531,2.715,1.35,2.715
						c0.912,0,1.352-1.075,1.352-2.774c0-1.639-0.41-2.715-1.352-2.715C338.613,56.782,338.04,57.745,338.04,59.557z"/>
				</g>
				<g>
					<path d="M329.5,38.905v-1.823h-3.092v-0.584l2.971-4.25h0.973v4.138h0.933v0.696h-0.933v1.823H329.5z M329.5,36.386v-2.224
						c0-0.348,0.012-0.695,0.031-1.044H329.5c-0.205,0.389-0.369,0.676-0.553,0.984l-1.628,2.262v0.021h2.181V36.386z"/>
					<path d="M336.401,35.504c0,2.264-0.85,3.513-2.313,3.513c-1.301,0-2.192-1.219-2.212-3.421c0-2.243,0.973-3.461,2.325-3.461
						C335.593,32.134,336.401,33.384,336.401,35.504z M332.786,35.607c0,1.731,0.533,2.715,1.352,2.715
						c0.91,0,1.353-1.075,1.353-2.775c0-1.639-0.41-2.714-1.353-2.714C333.359,32.831,332.786,33.794,332.786,35.607z"/>
					<path d="M341.655,35.504c0,2.264-0.851,3.513-2.314,3.513c-1.3,0-2.19-1.219-2.212-3.421c0-2.243,0.973-3.461,2.325-3.461
						C340.844,32.134,341.655,33.384,341.655,35.504z M338.04,35.607c0,1.731,0.531,2.715,1.35,2.715
						c0.912,0,1.352-1.075,1.352-2.775c0-1.639-0.41-2.714-1.352-2.714C338.613,32.831,338.04,33.794,338.04,35.607z"/>
				</g>
				<g>
					<path d="M329.5,15.255v-1.823h-3.092v-0.584l2.971-4.25h0.973v4.138h0.933v0.697h-0.933v1.823H329.5z M329.5,12.734v-2.222
						c0-0.348,0.012-0.697,0.031-1.044H329.5c-0.205,0.388-0.369,0.676-0.553,0.983l-1.628,2.263v0.021h2.181V12.734z"/>
					<path d="M335.94,9.354h-2.539l-0.258,1.711c0.155-0.021,0.298-0.031,0.544-0.031c0.521,0,1.024,0.103,1.435,0.357
						c0.521,0.287,0.952,0.872,0.952,1.701c0,1.299-1.036,2.273-2.479,2.273c-0.728,0-1.331-0.205-1.66-0.411l0.228-0.685
						c0.275,0.164,0.818,0.37,1.434,0.37c0.839,0,1.577-0.554,1.567-1.445c0-0.86-0.586-1.465-1.907-1.465
						c-0.387,0-0.685,0.032-0.932,0.062l0.431-3.196h3.185V9.354L335.94,9.354z"/>
					<path d="M341.655,11.854c0,2.264-0.851,3.514-2.314,3.514c-1.3,0-2.19-1.219-2.212-3.422c0-2.243,0.973-3.461,2.325-3.461
						C340.844,8.485,341.655,9.734,341.655,11.854z M338.04,11.958c0,1.73,0.531,2.714,1.35,2.714c0.912,0,1.352-1.075,1.352-2.775
						c0-1.639-0.41-2.715-1.352-2.715C338.613,9.181,338.04,10.144,338.04,11.958z"/>
				</g>
				<g>
					
						<line fill="none" stroke="#939598" stroke-width="2" stroke-linecap="round" stroke-miterlimit="10" x1="104.646" y1="271.22" x2="86.343" y2="271.22"/>
					<rect x="93.664" y="268.779" fill="#939598" width="4.88" height="4.881"/>
				</g>
				<g>
					<path d="M113.691,268.241c0.452-0.083,1.107-0.145,1.711-0.145c0.953,0,1.578,0.185,1.997,0.564
						c0.338,0.308,0.543,0.778,0.543,1.32c0,0.902-0.574,1.507-1.292,1.753v0.03c0.523,0.185,0.84,0.677,1.004,1.394
						c0.226,0.963,0.39,1.629,0.533,1.895h-0.922c-0.112-0.205-0.266-0.788-0.449-1.648c-0.205-0.954-0.585-1.312-1.394-1.342
						h-0.839v2.99h-0.892L113.691,268.241L113.691,268.241z M114.582,271.386h0.912c0.952,0,1.556-0.522,1.556-1.313
						c0-0.89-0.646-1.279-1.587-1.279c-0.429,0-0.727,0.029-0.88,0.072V271.386z"/>
					<path d="M122.775,273.864c0,0.43,0.02,0.851,0.071,1.188h-0.809l-0.071-0.624h-0.031c-0.276,0.39-0.809,0.737-1.516,0.737
						c-1.003,0-1.516-0.708-1.516-1.425c0-1.198,1.066-1.854,2.98-1.844v-0.102c0-0.4-0.113-1.146-1.127-1.137
						c-0.471,0-0.954,0.134-1.3,0.368l-0.206-0.604c0.411-0.257,1.014-0.432,1.64-0.432c1.517,0,1.885,1.035,1.885,2.019V273.864
						L122.775,273.864z M121.905,272.522c-0.984-0.021-2.101,0.154-2.101,1.117c0,0.594,0.39,0.859,0.84,0.859
						c0.657,0,1.076-0.409,1.219-0.829c0.03-0.103,0.042-0.205,0.042-0.287V272.522z"/>
					<path d="M125.272,268.905v1.188h1.29v0.687h-1.29v2.674c0,0.613,0.174,0.963,0.675,0.963c0.247,0,0.39-0.021,0.523-0.063
						l0.041,0.687c-0.174,0.061-0.45,0.124-0.798,0.124c-0.42,0-0.758-0.146-0.973-0.38c-0.246-0.278-0.347-0.718-0.347-1.3v-2.705
						h-0.77v-0.687h0.77v-0.92L125.272,268.905z"/>
					<path d="M128.016,272.736c0.02,1.221,0.788,1.724,1.7,1.724c0.646,0,1.045-0.113,1.373-0.258l0.165,0.646
						c-0.318,0.144-0.872,0.317-1.66,0.317c-1.526,0-2.438-1.016-2.438-2.51c0-1.496,0.88-2.664,2.326-2.664
						c1.628,0,2.047,1.413,2.047,2.326c0,0.184-0.01,0.316-0.031,0.419H128.016L128.016,272.736z M130.658,272.093
						c0.011-0.563-0.236-1.453-1.25-1.453c-0.922,0-1.311,0.829-1.382,1.453H130.658z"/>
					<path d="M132.52,274.141c0.278,0.164,0.749,0.349,1.199,0.349c0.646,0,0.953-0.316,0.953-0.737
						c0-0.431-0.256-0.655-0.911-0.901c-0.902-0.328-1.322-0.809-1.322-1.403c0-0.798,0.655-1.454,1.711-1.454
						c0.501,0,0.941,0.133,1.208,0.308l-0.214,0.655c-0.195-0.124-0.554-0.298-1.015-0.298c-0.532,0-0.819,0.308-0.819,0.676
						c0,0.41,0.287,0.595,0.932,0.85c0.851,0.318,1.301,0.748,1.301,1.486c0,0.88-0.686,1.495-1.843,1.495
						c-0.542,0-1.045-0.143-1.394-0.348L132.52,274.141z"/>
				</g>
				<g>
					<path d="M210.334,274.63c-0.318,0.163-0.983,0.328-1.822,0.328c-1.945,0-3.4-1.229-3.4-3.504c0-2.171,1.463-3.626,3.605-3.626
						c0.849,0,1.401,0.185,1.639,0.308l-0.227,0.729c-0.329-0.166-0.81-0.287-1.383-0.287c-1.618,0-2.693,1.034-2.693,2.848
						c0,1.7,0.973,2.775,2.643,2.775c0.552,0,1.104-0.113,1.463-0.289L210.334,274.63z"/>
					<path d="M214.838,273.656c0,0.431,0.021,0.851,0.072,1.188h-0.81l-0.071-0.625h-0.031c-0.275,0.39-0.81,0.738-1.516,0.738
						c-1.004,0-1.515-0.708-1.515-1.426c0-1.198,1.065-1.853,2.979-1.843v-0.103c0-0.399-0.111-1.147-1.126-1.138
						c-0.472,0-0.953,0.133-1.299,0.369l-0.207-0.604c0.411-0.256,1.014-0.43,1.64-0.43c1.516,0,1.885,1.034,1.885,2.017
						L214.838,273.656L214.838,273.656z M213.967,272.314c-0.983-0.02-2.101,0.155-2.101,1.117c0,0.595,0.39,0.86,0.84,0.86
						c0.656,0,1.076-0.409,1.219-0.83c0.03-0.103,0.041-0.205,0.041-0.287L213.967,272.314L213.967,272.314z"/>
					<path d="M216.169,273.933c0.275,0.165,0.747,0.349,1.197,0.349c0.644,0,0.952-0.317,0.952-0.736
						c0-0.432-0.256-0.656-0.911-0.901c-0.901-0.329-1.321-0.811-1.321-1.403c0-0.799,0.655-1.454,1.709-1.454
						c0.502,0,0.944,0.133,1.209,0.308l-0.215,0.655c-0.195-0.124-0.553-0.298-1.016-0.298c-0.531,0-0.819,0.308-0.819,0.676
						c0,0.41,0.288,0.595,0.933,0.85c0.853,0.318,1.301,0.748,1.301,1.485c0,0.881-0.686,1.496-1.844,1.496
						c-0.543,0-1.044-0.144-1.393-0.349L216.169,273.933z"/>
					<path d="M220.846,272.529c0.021,1.218,0.788,1.721,1.702,1.721c0.645,0,1.044-0.112,1.372-0.255l0.165,0.645
						c-0.319,0.143-0.871,0.316-1.66,0.316c-1.525,0-2.437-1.014-2.437-2.509c0-1.496,0.881-2.663,2.324-2.663
						c1.629,0,2.049,1.413,2.049,2.323c0,0.185-0.011,0.319-0.028,0.42h-3.487V272.529z M223.491,271.885
						c0.01-0.563-0.236-1.455-1.25-1.455c-0.921,0-1.311,0.829-1.384,1.455H223.491z"/>
					<path d="M225.352,273.933c0.276,0.165,0.747,0.349,1.197,0.349c0.645,0,0.953-0.317,0.953-0.736
						c0-0.432-0.256-0.656-0.911-0.901c-0.902-0.329-1.323-0.811-1.323-1.403c0-0.799,0.657-1.454,1.712-1.454
						c0.501,0,0.941,0.133,1.208,0.308l-0.216,0.655c-0.195-0.124-0.553-0.298-1.014-0.298c-0.533,0-0.82,0.308-0.82,0.676
						c0,0.41,0.287,0.595,0.932,0.85c0.852,0.318,1.303,0.748,1.303,1.485c0,0.881-0.688,1.496-1.845,1.496
						c-0.542,0-1.045-0.144-1.394-0.349L225.352,273.933z"/>
				</g>
				<g>
					<path d="M130.169,253.571l-0.717,2.174h-0.921l2.355-6.904h1.065l2.357,6.904h-0.953l-0.738-2.174H130.169z M132.443,252.877
						l-0.687-1.988c-0.154-0.451-0.256-0.86-0.359-1.259h-0.019c-0.103,0.398-0.205,0.829-0.349,1.248l-0.675,1.999H132.443z"/>
					<path d="M139.406,255.017c0,1.147-0.236,1.833-0.707,2.274c-0.492,0.441-1.188,0.594-1.813,0.594
						c-0.593,0-1.249-0.143-1.649-0.41l0.225-0.695c0.329,0.214,0.84,0.4,1.455,0.4c0.921,0,1.598-0.483,1.598-1.742v-0.544h-0.02
						c-0.266,0.46-0.809,0.831-1.577,0.831c-1.229,0-2.11-1.045-2.11-2.418c0-1.678,1.095-2.621,2.244-2.621
						c0.859,0,1.322,0.44,1.547,0.851h0.02l0.032-0.748h0.798c-0.031,0.348-0.042,0.759-0.042,1.351L139.406,255.017
						L139.406,255.017z M138.505,252.744c0-0.154-0.011-0.288-0.051-0.4c-0.164-0.532-0.595-0.963-1.26-0.963
						c-0.86,0-1.474,0.729-1.474,1.876c0,0.972,0.501,1.78,1.464,1.78c0.563,0,1.065-0.349,1.25-0.923
						c0.051-0.152,0.071-0.327,0.071-0.479L138.505,252.744L138.505,252.744z"/>
					<path d="M141.39,253.43c0.021,1.219,0.788,1.722,1.701,1.722c0.646,0,1.045-0.112,1.373-0.258l0.165,0.646
						c-0.318,0.143-0.873,0.316-1.66,0.316c-1.525,0-2.438-1.013-2.438-2.509s0.879-2.664,2.325-2.664
						c1.628,0,2.048,1.412,2.048,2.325c0,0.185-0.009,0.318-0.031,0.421H141.39L141.39,253.43z M144.033,252.783
						c0.009-0.563-0.236-1.454-1.25-1.454c-0.921,0-1.31,0.83-1.382,1.454H144.033z"/>
					<path d="M151.672,254.556c0,0.432,0.021,0.851,0.072,1.189h-0.81l-0.073-0.626h-0.03c-0.278,0.39-0.81,0.737-1.517,0.737
						c-1.005,0-1.517-0.708-1.517-1.425c0-1.197,1.066-1.853,2.981-1.842v-0.103c0-0.4-0.113-1.149-1.128-1.139
						c-0.471,0-0.951,0.133-1.3,0.37l-0.205-0.605c0.41-0.257,1.015-0.431,1.638-0.431c1.516,0,1.884,1.034,1.884,2.019v1.854
						H151.672z M150.802,253.214c-0.983-0.021-2.1,0.152-2.1,1.117c0,0.594,0.387,0.86,0.839,0.86c0.655,0,1.075-0.409,1.219-0.83
						c0.031-0.102,0.042-0.205,0.042-0.287V253.214z"/>
					<path d="M154.169,249.599v1.189h1.292v0.686h-1.292v2.673c0,0.615,0.175,0.963,0.677,0.963c0.245,0,0.388-0.021,0.522-0.061
						l0.04,0.686c-0.175,0.061-0.45,0.122-0.799,0.122c-0.419,0-0.758-0.142-0.972-0.379c-0.247-0.276-0.348-0.716-0.348-1.301
						v-2.703h-0.769v-0.686h0.769v-0.922L154.169,249.599z"/>
					<path d="M162.914,248.472v5.992c0,0.44,0.021,0.942,0.042,1.281h-0.8l-0.041-0.86h-0.031c-0.266,0.553-0.86,0.972-1.669,0.972
						c-1.198,0-2.13-1.015-2.13-2.52c-0.011-1.65,1.023-2.653,2.223-2.653c0.768,0,1.271,0.359,1.494,0.747h0.021v-2.959H162.914z
						 M162.023,252.804c0-0.112-0.01-0.265-0.041-0.379c-0.133-0.563-0.625-1.034-1.301-1.034c-0.932,0-1.485,0.819-1.485,1.905
						c0,1.005,0.502,1.834,1.465,1.834c0.605,0,1.158-0.41,1.321-1.075c0.031-0.124,0.041-0.245,0.041-0.388V252.804z"/>
					<path d="M165.423,249.394c0,0.308-0.216,0.553-0.576,0.553c-0.327,0-0.541-0.245-0.541-0.553c0-0.305,0.225-0.563,0.563-0.563
						C165.196,248.831,165.423,249.075,165.423,249.394z M164.419,255.745v-4.959h0.9v4.959H164.419z"/>
					<path d="M170.296,254.556c0,0.432,0.021,0.851,0.073,1.189h-0.811l-0.071-0.626h-0.031c-0.275,0.39-0.81,0.737-1.516,0.737
						c-1.004,0-1.514-0.708-1.514-1.425c0-1.197,1.063-1.853,2.978-1.842v-0.103c0-0.4-0.111-1.149-1.126-1.139
						c-0.472,0-0.951,0.133-1.299,0.37l-0.206-0.605c0.409-0.257,1.015-0.431,1.639-0.431c1.516,0,1.885,1.034,1.885,2.019
						L170.296,254.556L170.296,254.556z M169.424,253.214c-0.981-0.021-2.098,0.152-2.098,1.117c0,0.594,0.388,0.86,0.839,0.86
						c0.654,0,1.075-0.409,1.22-0.83c0.029-0.102,0.038-0.205,0.038-0.287L169.424,253.214L169.424,253.214z"/>
					<path d="M175.987,255.017c0,1.147-0.235,1.833-0.706,2.274c-0.49,0.441-1.188,0.594-1.813,0.594
						c-0.594,0-1.249-0.143-1.65-0.41l0.229-0.695c0.327,0.214,0.839,0.4,1.453,0.4c0.922,0,1.597-0.483,1.597-1.742v-0.544h-0.021
						c-0.267,0.46-0.808,0.831-1.576,0.831c-1.23,0-2.11-1.045-2.11-2.418c0-1.678,1.096-2.621,2.242-2.621
						c0.859,0,1.322,0.44,1.547,0.851h0.021l0.031-0.748h0.798c-0.029,0.348-0.041,0.759-0.041,1.351V255.017z M175.089,252.744
						c0-0.154-0.013-0.288-0.053-0.4c-0.163-0.532-0.594-0.963-1.259-0.963c-0.86,0-1.476,0.729-1.476,1.876
						c0,0.972,0.503,1.78,1.465,1.78c0.563,0,1.064-0.349,1.247-0.923c0.053-0.152,0.075-0.327,0.075-0.479V252.744z"/>
					<path d="M177.408,252.128c0-0.522-0.008-0.932-0.038-1.342h0.796l0.051,0.819h0.022c0.246-0.46,0.819-0.922,1.639-0.922
						c0.688,0,1.752,0.41,1.752,2.11v2.948h-0.898v-2.857c0-0.798-0.298-1.466-1.148-1.466c-0.583,0-1.044,0.42-1.209,0.923
						c-0.04,0.111-0.061,0.267-0.061,0.419v2.981h-0.901v-3.614H177.408z"/>
					<path d="M187.579,253.225c0,1.834-1.282,2.632-2.469,2.632c-1.332,0-2.375-0.982-2.375-2.55c0-1.649,1.095-2.621,2.458-2.621
						C186.615,250.684,187.579,251.719,187.579,253.225z M183.655,253.275c0,1.086,0.614,1.904,1.495,1.904
						c0.86,0,1.506-0.808,1.506-1.926c0-0.839-0.421-1.895-1.486-1.895C184.116,251.359,183.655,252.344,183.655,253.275z"/>
					<path d="M188.588,254.832c0.279,0.164,0.75,0.348,1.199,0.348c0.646,0,0.953-0.316,0.953-0.736c0-0.432-0.257-0.655-0.912-0.9
						c-0.901-0.329-1.322-0.811-1.322-1.404c0-0.797,0.656-1.453,1.71-1.453c0.503,0,0.942,0.133,1.209,0.307l-0.216,0.656
						c-0.193-0.124-0.553-0.298-1.013-0.298c-0.535,0-0.82,0.307-0.82,0.675c0,0.411,0.285,0.595,0.933,0.852
						c0.85,0.316,1.301,0.747,1.301,1.484c0,0.881-0.688,1.495-1.844,1.495c-0.543,0-1.045-0.142-1.396-0.347L188.588,254.832z"/>
					<path d="M193.769,249.394c0,0.308-0.216,0.553-0.573,0.553c-0.329,0-0.543-0.245-0.543-0.553c0-0.305,0.227-0.563,0.563-0.563
						C193.546,248.831,193.769,249.075,193.769,249.394z M192.766,255.745v-4.959h0.9v4.959H192.766z"/>
					<path d="M195.039,254.832c0.277,0.164,0.748,0.348,1.197,0.348c0.646,0,0.952-0.316,0.952-0.736c0-0.432-0.255-0.655-0.91-0.9
						c-0.902-0.329-1.322-0.811-1.322-1.404c0-0.797,0.655-1.453,1.71-1.453c0.501,0,0.942,0.133,1.209,0.307l-0.216,0.656
						c-0.195-0.124-0.554-0.298-1.014-0.298c-0.534,0-0.82,0.307-0.82,0.675c0,0.411,0.286,0.595,0.933,0.852
						c0.851,0.316,1.301,0.747,1.301,1.484c0,0.881-0.687,1.495-1.846,1.495c-0.541,0-1.042-0.142-1.393-0.347L195.039,254.832z"/>
				</g>
				<g>
					<path d="M-31.49,172.61h-6.903v-0.982l3.492-2.204c0.809-0.502,1.537-0.912,2.244-1.229l-0.011-0.029
						c-0.922,0.082-1.761,0.101-2.837,0.101h-2.887v-0.84h6.904v0.902l-3.503,2.191c-0.767,0.482-1.557,0.942-2.306,1.279
						l0.01,0.031c0.872-0.051,1.701-0.063,2.848-0.063h2.95V172.61z"/>
					<path d="M-32.852,161.755c0.522,0,0.972-0.009,1.362-0.04v0.798l-0.81,0.053v0.021c0.399,0.225,0.922,0.758,0.922,1.639
						c0,0.779-0.441,1.711-2.172,1.711h-2.898v-0.901h2.735c0.941,0,1.587-0.298,1.587-1.105c0-0.605-0.419-1.024-0.829-1.189
						c-0.124-0.051-0.287-0.081-0.46-0.081h-3.033v-0.903H-32.852z"/>
					<path d="M-35.106,160.264c-0.523,0-0.932,0.02-1.342,0.04v-0.789l0.809-0.04v-0.031c-0.471-0.276-0.912-0.736-0.912-1.567
						c0-0.665,0.41-1.178,0.994-1.393v-0.021c-0.287-0.152-0.492-0.357-0.646-0.563c-0.227-0.298-0.349-0.614-0.349-1.085
						c0-0.665,0.43-1.639,2.151-1.639h2.908v0.881h-2.793c-0.964,0-1.527,0.357-1.527,1.076c0,0.521,0.38,0.91,0.809,1.074
						c0.133,0.041,0.287,0.071,0.45,0.071h3.063v0.881h-2.97c-0.788,0-1.353,0.348-1.353,1.036c0,0.553,0.452,0.972,0.902,1.115
						c0.124,0.052,0.287,0.072,0.441,0.072h2.981v0.881H-35.106L-35.106,160.264z"/>
					<path d="M-38.763,151.722v-0.89h3.115v-0.021c-0.553-0.318-0.902-0.891-0.902-1.69c0-1.239,1.025-2.1,2.52-2.1
						c1.771,0,2.653,1.126,2.653,2.233c0,0.716-0.278,1.29-0.922,1.669v0.021l0.81,0.051v0.769c-0.338-0.021-0.84-0.042-1.281-0.042
						H-38.763z M-33.477,150.832c0.113,0,0.226-0.011,0.329-0.042c0.625-0.163,1.055-0.695,1.055-1.351
						c0-0.954-0.768-1.507-1.905-1.507c-0.993,0-1.843,0.512-1.843,1.485c0,0.604,0.43,1.177,1.107,1.361
						c0.112,0.03,0.235,0.052,0.379,0.052L-33.477,150.832L-33.477,150.832z"/>
					<path d="M-33.805,145.395c1.219-0.021,1.721-0.788,1.721-1.701c0-0.645-0.112-1.044-0.256-1.373l0.645-0.163
						c0.143,0.318,0.318,0.871,0.318,1.66c0,1.526-1.014,2.438-2.511,2.438c-1.496,0-2.663-0.882-2.663-2.324
						c0-1.629,1.413-2.049,2.326-2.049c0.184,0,0.317,0.01,0.419,0.03v3.482H-33.805z M-34.451,142.752
						c-0.563-0.012-1.454,0.236-1.454,1.249c0,0.922,0.829,1.311,1.454,1.382V142.752z"/>
					<path d="M-34.901,140.767c-0.584,0-1.086,0.01-1.547,0.041v-0.788l0.983-0.042v-0.029c-0.665-0.227-1.085-0.779-1.085-1.384
						c0-0.093,0.01-0.163,0.021-0.245h0.85c-0.021,0.092-0.021,0.185-0.021,0.308c0,0.634,0.471,1.087,1.146,1.208
						c0.124,0.021,0.277,0.031,0.419,0.031h2.643v0.9H-34.901z"/>
					<path d="M-34.01,130.76c1.834,0,2.633,1.281,2.633,2.469c0,1.331-0.984,2.376-2.55,2.376c-1.65,0-2.623-1.096-2.623-2.459
						C-36.551,131.724-35.516,130.76-34.01,130.76z M-33.959,134.683c1.085,0,1.904-0.613,1.904-1.495
						c0-0.86-0.808-1.507-1.925-1.507c-0.84,0-1.896,0.42-1.896,1.485C-35.875,134.222-34.889,134.683-33.959,134.683z"/>
					<path d="M-31.49,129.534h-4.271v0.686h-0.688v-0.686h-0.236c-0.696,0-1.331-0.165-1.731-0.574
						c-0.327-0.339-0.46-0.789-0.46-1.209c0-0.328,0.073-0.593,0.144-0.768l0.696,0.123c-0.061,0.134-0.112,0.308-0.112,0.574
						c0,0.769,0.665,0.963,1.434,0.963h0.266v-1.198h0.685v1.198h4.271v0.891H-31.49z"/>
					<path d="M-31.664,120.932c0.112,0.235,0.287,0.758,0.287,1.424c0,1.496-1.014,2.467-2.53,2.467
						c-1.525,0-2.643-1.044-2.643-2.662c0-0.533,0.133-1.004,0.266-1.249l0.686,0.203c-0.112,0.216-0.236,0.554-0.236,1.046
						c0,1.137,0.851,1.751,1.875,1.751c1.147,0,1.854-0.736,1.854-1.721c0-0.511-0.123-0.85-0.235-1.104L-31.664,120.932z"/>
					<path d="M-32.679,116.395c0.431,0,0.851-0.021,1.189-0.072v0.81l-0.625,0.072v0.03c0.39,0.275,0.738,0.809,0.738,1.516
						c0,1.003-0.707,1.515-1.424,1.515c-1.199,0-1.854-1.064-1.845-2.979h-0.102c-0.398,0-1.146,0.112-1.137,1.126
						c0,0.472,0.134,0.952,0.37,1.302l-0.605,0.204c-0.256-0.411-0.43-1.016-0.43-1.64c0-1.516,1.034-1.884,2.019-1.884
						L-32.679,116.395L-32.679,116.395z M-34.02,117.265c-0.021,0.983,0.153,2.101,1.117,2.101c0.593,0,0.86-0.39,0.86-0.84
						c0-0.655-0.409-1.075-0.831-1.219c-0.101-0.032-0.205-0.042-0.286-0.042H-34.02z"/>
					<path d="M-32.402,115.065c0.164-0.277,0.347-0.749,0.347-1.198c0-0.646-0.317-0.952-0.737-0.952
						c-0.431,0-0.655,0.255-0.9,0.911c-0.328,0.9-0.811,1.321-1.403,1.321c-0.798,0-1.455-0.655-1.455-1.709
						c0-0.503,0.133-0.941,0.307-1.209l0.655,0.216c-0.123,0.193-0.298,0.553-0.298,1.014c0,0.533,0.308,0.82,0.676,0.82
						c0.41,0,0.595-0.287,0.851-0.933c0.317-0.85,0.748-1.301,1.485-1.301c0.882,0,1.497,0.686,1.497,1.844
						c0,0.543-0.143,1.045-0.348,1.394L-32.402,115.065z"/>
					<path d="M-33.805,110.386c1.219-0.02,1.721-0.788,1.721-1.7c0-0.646-0.112-1.044-0.256-1.373l0.645-0.165
						c0.143,0.318,0.318,0.872,0.318,1.66c0,1.525-1.014,2.438-2.511,2.438c-1.496,0-2.663-0.88-2.663-2.325
						c0-1.627,1.413-2.049,2.326-2.049c0.184,0,0.317,0.01,0.419,0.031v3.483H-33.805z M-34.451,107.744
						c-0.563-0.01-1.454,0.235-1.454,1.249c0,0.921,0.829,1.311,1.454,1.383V107.744z"/>
					<path d="M-32.402,105.88c0.164-0.276,0.347-0.747,0.347-1.198c0-0.645-0.317-0.952-0.737-0.952c-0.431,0-0.655,0.255-0.9,0.912
						c-0.328,0.9-0.811,1.322-1.403,1.322c-0.798,0-1.455-0.655-1.455-1.71c0-0.502,0.133-0.942,0.307-1.209l0.655,0.216
						c-0.123,0.194-0.298,0.553-0.298,1.014c0,0.534,0.308,0.82,0.676,0.82c0.41,0,0.595-0.287,0.851-0.932
						c0.317-0.851,0.748-1.3,1.485-1.3c0.882,0,1.497,0.686,1.497,1.843c0,0.542-0.143,1.044-0.348,1.394L-32.402,105.88z"/>
					<path d="M-34.83,99.532c-0.636,0-1.147,0.02-1.618,0.041v-0.798l0.851-0.051v-0.022c-0.604-0.357-0.953-0.951-0.953-1.76
						c0-1.209,1.014-2.11,2.51-2.11c1.781,0,2.664,1.096,2.664,2.263c0,0.656-0.287,1.229-0.779,1.527v0.021h2.694v0.891
						L-34.83,99.532L-34.83,99.532z M-33.509,98.642c0.132,0,0.256-0.01,0.368-0.042c0.625-0.164,1.056-0.707,1.056-1.352
						c0-0.952-0.778-1.506-1.916-1.506c-0.983,0-1.834,0.522-1.834,1.476c0,0.613,0.431,1.197,1.107,1.361
						c0.112,0.03,0.246,0.061,0.357,0.061h0.861V98.642z"/>
					<path d="M-33.805,93.204c1.219-0.02,1.721-0.788,1.721-1.7c0-0.646-0.112-1.044-0.256-1.373l0.645-0.165
						c0.143,0.317,0.318,0.872,0.318,1.66c0,1.525-1.014,2.438-2.511,2.438c-1.496,0-2.663-0.88-2.663-2.325
						c0-1.629,1.413-2.049,2.326-2.049c0.184,0,0.317,0.01,0.419,0.032v3.482H-33.805z M-34.451,90.562
						c-0.563-0.01-1.454,0.235-1.454,1.249c0,0.921,0.829,1.312,1.454,1.382V90.562z"/>
					<path d="M-34.901,88.576c-0.584,0-1.086,0.01-1.547,0.041v-0.788l0.983-0.041v-0.03c-0.665-0.225-1.085-0.779-1.085-1.383
						c0-0.093,0.01-0.165,0.021-0.246h0.85c-0.021,0.092-0.021,0.185-0.021,0.306c0,0.636,0.471,1.086,1.146,1.209
						c0.124,0.022,0.277,0.032,0.419,0.032h2.643v0.9L-34.901,88.576L-34.901,88.576z"/>
					<path d="M-36.448,82.729l2.93-1.075c0.328-0.123,0.716-0.245,1.014-0.329v-0.02c-0.298-0.092-0.677-0.195-1.036-0.317
						l-2.909-0.983v-0.953l3.533,1.351c1.701,0.646,2.562,1.087,3.105,1.701c0.379,0.45,0.532,0.881,0.573,1.106l-0.748,0.225
						c-0.072-0.225-0.215-0.522-0.441-0.789c-0.194-0.245-0.542-0.542-1.003-0.757c-0.092-0.042-0.165-0.071-0.216-0.071
						s-0.123,0.021-0.235,0.071l-4.568,1.824V82.729z"/>
					<path d="M-33.805,77.833c1.219-0.021,1.721-0.788,1.721-1.701c0-0.645-0.112-1.044-0.256-1.373l0.645-0.165
						c0.143,0.318,0.318,0.871,0.318,1.66c0,1.525-1.014,2.438-2.511,2.438c-1.496,0-2.663-0.881-2.663-2.326
						c0-1.629,1.413-2.048,2.326-2.048c0.184,0,0.317,0.01,0.419,0.03v3.485H-33.805z M-34.451,75.19
						c-0.563-0.009-1.454,0.235-1.454,1.25c0,0.922,0.829,1.311,1.454,1.383V75.19z"/>
					<path d="M-32.679,69.723c0.431,0,0.851-0.021,1.189-0.072v0.809l-0.625,0.073v0.03c0.39,0.276,0.738,0.809,0.738,1.516
						c0,1.002-0.707,1.515-1.424,1.515c-1.199,0-1.854-1.063-1.845-2.98h-0.102c-0.398,0-1.146,0.112-1.137,1.126
						c0,0.471,0.134,0.952,0.37,1.301l-0.605,0.204c-0.256-0.41-0.43-1.014-0.43-1.639c0-1.515,1.034-1.884,2.019-1.884H-32.679z
						 M-34.02,70.593c-0.021,0.984,0.153,2.1,1.117,2.1c0.593,0,0.86-0.39,0.86-0.839c0-0.655-0.409-1.075-0.831-1.219
						c-0.101-0.031-0.205-0.042-0.286-0.042H-34.02z"/>
					<path d="M-34.901,68.271c-0.584,0-1.086,0.01-1.547,0.042v-0.789l0.983-0.041v-0.03c-0.665-0.226-1.085-0.779-1.085-1.383
						c0-0.092,0.01-0.165,0.021-0.246h0.85c-0.021,0.092-0.021,0.184-0.021,0.306c0,0.636,0.471,1.085,1.146,1.209
						c0.125,0.021,0.279,0.03,0.422,0.03h2.643v0.902H-34.901z"/>
				</g>
				<g>
					<path d="M350.036,153.652c-0.08-0.45-0.144-1.105-0.144-1.711c0-0.952,0.184-1.577,0.563-1.997
						c0.309-0.337,0.779-0.543,1.32-0.543c0.902,0,1.508,0.574,1.753,1.291h0.031c0.184-0.521,0.676-0.839,1.393-1.003
						c0.963-0.226,1.629-0.389,1.896-0.533v0.922c-0.207,0.111-0.788,0.266-1.649,0.45c-0.953,0.205-1.311,0.584-1.343,1.393v0.84
						h2.99v0.892H350.036L350.036,153.652z M353.18,152.761v-0.911c0-0.953-0.522-1.558-1.313-1.558
						c-0.889,0-1.279,0.646-1.279,1.588c0,0.43,0.03,0.728,0.073,0.881H353.18z"/>
					<path d="M355.659,144.568c0.431,0,0.851-0.021,1.188-0.072v0.81l-0.625,0.072v0.03c0.39,0.277,0.736,0.809,0.736,1.516
						c0,1.004-0.706,1.517-1.424,1.517c-1.198,0-1.854-1.065-1.844-2.981h-0.103c-0.4,0-1.146,0.114-1.138,1.128
						c0,0.472,0.132,0.953,0.369,1.301l-0.605,0.205c-0.255-0.41-0.429-1.015-0.429-1.64c0-1.516,1.034-1.885,2.018-1.885H355.659z
						 M354.317,145.44c-0.021,0.982,0.154,2.1,1.117,2.1c0.594,0,0.859-0.389,0.859-0.839c0-0.658-0.41-1.075-0.829-1.221
						c-0.103-0.029-0.206-0.04-0.287-0.04H354.317z"/>
					<path d="M350.702,142.071h1.188v-1.29h0.686v1.29h2.674c0.613,0,0.962-0.174,0.962-0.676c0-0.246-0.021-0.39-0.063-0.522
						l0.686-0.041c0.063,0.174,0.124,0.452,0.124,0.8c0,0.42-0.142,0.758-0.379,0.973c-0.276,0.246-0.718,0.348-1.302,0.348h-2.703
						v0.769h-0.686v-0.769h-0.922L350.702,142.071z"/>
					<path d="M354.532,139.326c1.218-0.021,1.721-0.789,1.721-1.701c0-0.646-0.112-1.044-0.258-1.373l0.646-0.163
						c0.145,0.316,0.318,0.871,0.318,1.659c0,1.527-1.015,2.438-2.51,2.438s-2.663-0.882-2.663-2.325
						c0-1.627,1.412-2.049,2.323-2.049c0.185,0,0.319,0.01,0.422,0.03L354.532,139.326L354.532,139.326z M353.887,136.685
						c-0.564-0.011-1.456,0.234-1.456,1.249c0,0.923,0.832,1.311,1.456,1.383V136.685z"/>
					<path d="M353.508,132.528c-0.636,0-1.146,0.021-1.618,0.041v-0.799l0.85-0.052v-0.021c-0.604-0.358-0.952-0.953-0.952-1.762
						c0-1.208,1.015-2.109,2.51-2.109c1.782,0,2.663,1.096,2.663,2.263c0,0.655-0.286,1.229-0.779,1.525v0.021h2.694v0.892
						L353.508,132.528L353.508,132.528z M354.829,131.638c0.132,0,0.257-0.011,0.37-0.042c0.624-0.164,1.054-0.706,1.054-1.352
						c0-0.952-0.78-1.507-1.916-1.507c-0.982,0-1.832,0.523-1.832,1.477c0,0.613,0.43,1.198,1.105,1.361
						c0.113,0.03,0.245,0.063,0.358,0.063H354.829z"/>
					<path d="M354.532,126.2c1.218-0.021,1.721-0.788,1.721-1.701c0-0.646-0.112-1.044-0.258-1.372l0.646-0.165
						c0.145,0.317,0.318,0.871,0.318,1.659c0,1.525-1.015,2.438-2.51,2.438s-2.663-0.88-2.663-2.324
						c0-1.629,1.412-2.049,2.323-2.049c0.185,0,0.319,0.012,0.422,0.032L354.532,126.2L354.532,126.2z M353.887,123.558
						c-0.564-0.011-1.456,0.235-1.456,1.249c0,0.921,0.832,1.313,1.456,1.383V123.558z"/>
					<path d="M353.436,121.572c-0.584,0-1.087,0.01-1.547,0.041v-0.788l0.982-0.041v-0.032c-0.664-0.226-1.085-0.778-1.085-1.383
						c0-0.093,0.01-0.163,0.021-0.245h0.851c-0.022,0.092-0.022,0.185-0.022,0.307c0,0.636,0.472,1.087,1.147,1.209
						c0.124,0.022,0.276,0.03,0.419,0.03h2.645v0.902H353.436z"/>
					<path d="M351.029,114.382v0.021l0.626,1.158l-0.687,0.173l-0.778-1.454v-0.768h6.657v0.87L351.029,114.382L351.029,114.382z"/>
					<path d="M353.447,106.651c2.263,0,3.513,0.85,3.513,2.314c0,1.3-1.218,2.191-3.421,2.212c-2.244,0-3.463-0.974-3.463-2.326
						C350.076,107.46,351.326,106.651,353.447,106.651z M353.549,110.268c1.731,0,2.715-0.534,2.715-1.353
						c0-0.913-1.074-1.352-2.774-1.352c-1.639,0-2.715,0.41-2.715,1.352C350.773,109.692,351.737,110.268,353.549,110.268z"/>
					<path d="M353.447,101.397c2.263,0,3.513,0.851,3.513,2.315c0,1.3-1.218,2.191-3.421,2.212c-2.244,0-3.463-0.974-3.463-2.325
						C350.076,102.207,351.326,101.397,353.447,101.397z M353.549,105.013c1.731,0,2.715-0.533,2.715-1.352
						c0-0.913-1.074-1.352-2.774-1.352c-1.639,0-2.715,0.41-2.715,1.352C350.773,104.439,351.737,105.013,353.549,105.013z"/>
					<path d="M353.447,93.973c2.263,0,3.513,0.851,3.513,2.315c0,1.3-1.218,2.191-3.421,2.212c-2.244,0-3.463-0.973-3.463-2.325
						C350.076,94.783,351.326,93.973,353.447,93.973z M353.549,97.589c1.731,0,2.715-0.533,2.715-1.352
						c0-0.913-1.074-1.352-2.774-1.352c-1.639,0-2.715,0.41-2.715,1.352C350.773,97.015,351.737,97.589,353.549,97.589z"/>
					<path d="M353.447,88.72c2.263,0,3.513,0.851,3.513,2.314c0,1.301-1.218,2.192-3.421,2.212c-2.244,0-3.463-0.974-3.463-2.325
						C350.076,89.529,351.326,88.72,353.447,88.72z M353.549,92.337c1.731,0,2.715-0.533,2.715-1.353
						c0-0.912-1.074-1.352-2.774-1.352c-1.639,0-2.715,0.41-2.715,1.352C350.773,91.762,351.737,92.337,353.549,92.337z"/>
					<path d="M353.447,83.466c2.263,0,3.513,0.851,3.513,2.315c0,1.301-1.218,2.191-3.421,2.212c-2.244,0-3.463-0.974-3.463-2.326
						C350.076,84.276,351.326,83.466,353.447,83.466z M353.549,87.084c1.731,0,2.715-0.535,2.715-1.352
						c0-0.913-1.074-1.352-2.774-1.352c-1.639,0-2.715,0.41-2.715,1.352C350.773,86.508,351.737,87.084,353.549,87.084z"/>
				</g>
			</g>
		</g>
	</g>
</g>
</svg>
