<?xml version="1.0" encoding="utf-8"?>
<!-- Generator: Adobe Illustrator 15.0.2, SVG Export Plug-In . SVG Version: 6.00 Build 0)  -->
<!DOCTYPE svg PUBLIC "-//W3C//DTD SVG 1.1//EN" "http://www.w3.org/Graphics/SVG/1.1/DTD/svg11.dtd">
<svg version="1.1" id="Layer_1" xmlns="http://www.w3.org/2000/svg" xmlns:xlink="http://www.w3.org/1999/xlink" x="0px" y="0px"
	 width="411.023px" height="551.371px" viewBox="-42.52 0 411.023 551.371" enable-background="new -42.52 0 411.023 551.371"
	 xml:space="preserve">
<metadata><?xpacket begin="﻿" id="W5M0MpCehiHzreSzNTczkc9d"?>
<x:xmpmeta xmlns:x="adobe:ns:meta/" x:xmptk="Adobe XMP Core 5.0-c060 61.134777, 2010/02/12-17:32:00        ">
   <rdf:RDF xmlns:rdf="http://www.w3.org/1999/02/22-rdf-syntax-ns#">
      <rdf:Description rdf:about=""
            xmlns:dc="http://purl.org/dc/elements/1.1/">
         <dc:format>image/svg+xml</dc:format>
         <dc:title>
            <rdf:Alt>
               <rdf:li xml:lang="x-default">1F-1</rdf:li>
            </rdf:Alt>
         </dc:title>
      </rdf:Description>
      <rdf:Description rdf:about=""
            xmlns:xmp="http://ns.adobe.com/xap/1.0/"
            xmlns:xmpGImg="http://ns.adobe.com/xap/1.0/g/img/">
         <xmp:CreatorTool>Adobe Illustrator CS5.1</xmp:CreatorTool>
         <xmp:CreateDate>2015-02-12T16:00:38+02:00</xmp:CreateDate>
         <xmp:ModifyDate>2015-02-12T16:00:38+02:00</xmp:ModifyDate>
         <xmp:MetadataDate>2015-02-12T16:00:38+02:00</xmp:MetadataDate>
         <xmp:Thumbnails>
            <rdf:Alt>
               <rdf:li rdf:parseType="Resource">
                  <xmpGImg:width>192</xmpGImg:width>
                  <xmpGImg:height>256</xmpGImg:height>
                  <xmpGImg:format>JPEG</xmpGImg:format>
                  <xmpGImg:image>/9j/4AAQSkZJRgABAgEB1QHVAAD/7QAsUGhvdG9zaG9wIDMuMAA4QklNA+0AAAAAABAB1QAAAAEA&#xA;AQHVAAAAAQAB/+4ADkFkb2JlAGTAAAAAAf/bAIQABgQEBAUEBgUFBgkGBQYJCwgGBggLDAoKCwoK&#xA;DBAMDAwMDAwQDA4PEA8ODBMTFBQTExwbGxscHx8fHx8fHx8fHwEHBwcNDA0YEBAYGhURFRofHx8f&#xA;Hx8fHx8fHx8fHx8fHx8fHx8fHx8fHx8fHx8fHx8fHx8fHx8fHx8fHx8fHx8f/8AAEQgBAADAAwER&#xA;AAIRAQMRAf/EAaIAAAAHAQEBAQEAAAAAAAAAAAQFAwIGAQAHCAkKCwEAAgIDAQEBAQEAAAAAAAAA&#xA;AQACAwQFBgcICQoLEAACAQMDAgQCBgcDBAIGAnMBAgMRBAAFIRIxQVEGE2EicYEUMpGhBxWxQiPB&#xA;UtHhMxZi8CRygvElQzRTkqKyY3PCNUQnk6OzNhdUZHTD0uIIJoMJChgZhJRFRqS0VtNVKBry4/PE&#xA;1OT0ZXWFlaW1xdXl9WZ2hpamtsbW5vY3R1dnd4eXp7fH1+f3OEhYaHiImKi4yNjo+Ck5SVlpeYmZ&#xA;qbnJ2en5KjpKWmp6ipqqusra6voRAAICAQIDBQUEBQYECAMDbQEAAhEDBCESMUEFURNhIgZxgZEy&#xA;obHwFMHR4SNCFVJicvEzJDRDghaSUyWiY7LCB3PSNeJEgxdUkwgJChgZJjZFGidkdFU38qOzwygp&#xA;0+PzhJSktMTU5PRldYWVpbXF1eX1RlZmdoaWprbG1ub2R1dnd4eXp7fH1+f3OEhYaHiImKi4yNjo&#xA;+DlJWWl5iZmpucnZ6fkqOkpaanqKmqq6ytrq+v/aAAwDAQACEQMRAD8A9U4q7FXYq7FXYq7FXYq7&#xA;FWI+avzBttNvP0FocH6c82zACDSYDVYQ/Se+lFVt4V6kt8R/ZDHFUb5I8qN5c0qeO5umv9W1K5fU&#xA;dZvm2E15Mqq7Rp0SNVjVI0HRVHfFWQ4q7FXYq7FXYqxLypcSaV5g1nyzfNR5bmfV9GdqATWl5J6s&#xA;6r/lQXUjq47KyH9rFWW4q7FXYq7FXYq7FXYq7FXYq7FXYq7FUo8w+b/K3lyJJNd1a100S7QrcSoj&#xA;yHwjQnm59lBxVKW/NbyLwDRX0tyzfYitrO8uJG2r8McULu30DFVL/FvnHVvh8veV5beJthqOvSCw&#xA;jHutsgnu2+TpH88VVZPJuv6qlPMXmW6kjb+8sNHX9F2xHgXRpr322uAD4YqnuieX9E0Ky+paPYw2&#xA;FryLtHAgTk7fadyN2Zu7NucVTDFXYq7FXYq7FXYqlmveX7LWbeJJnkt7q2cy2N/bsEuLeXiV9SJi&#xA;GH2WIKsCrDZgRtiqSDzF5u0XlDruizarbx04axoyrIHXxlsXcXEb+0Xqj3HTFUbpn5g+TdSnW2h1&#xA;SKC+bf8AR94Hsrv6ba5EM3/C4qyHFXYq7FXYq7FXYq7FXYq0zKqlmIVVFWY7AAdzirD/ANP6v5s5&#xA;weVJ/qWiBjHP5oKBzLxNGXTo3BSXfb13BjH7Ik3oqmXl/wAi+WdCne8s7T1dVmFLnWLpjcX03j6l&#xA;zLykp/kghR2AGKp/irsVdirsVdirsVdirsVdirsVdirsVQ9/p2n6hbtbX9rDeWz/AGoZ41lQ/NXB&#xA;GKpCPy78uW7BtI+s6Gy/YTS7mW2gHh/oisbVv9lEcVblsPPmnpy0/U7bWlXf6tqkQtpn9vrdmojT&#xA;/pFOKqmg+c7TUb99IvrabR/MEaeo+lXnDnJGNjNbyIWjnir1ZGqv7YU7YqyHFXYq7FXYq7FWC6s7&#xA;edvMN15biLDyto7qvmOZSQLy6KiRdOVh/upEZXuf5uSx93xVnEUUUUSRRIscUahY41AVVVRQAAbA&#xA;AYquxV2KuxV2KuxV2KuxV2KuxV2KuxV2KuxV2KuxV2KpV5j8s6Z5gsltr0PHLC3q2V9A3p3NrMAQ&#xA;s1vKN0cV+RGzAqSMVQHl7XtQj1F/LfmAr+moYzLaXiLwi1C1UgGeNeiyIWCzRj7JII+FlxVkmKux&#xA;V2Ksc8/+ZLrQfLskunos2t38ken6Hbt0kvrk8IeX+Qm8j/5CtiqL8o+WrXy15etNHt3aYwKWubqT&#xA;+8uLiVjJPcSHu8srM7fPFU4xV2KuxV2KuxV2KuxV2KuxV2KuxV2KuxV2KuxV2KuxV2KpJ5t8tjXd&#xA;MWOGb6nqtnILrSNRA5Nb3SAhHp+0jAlJF/aQsvfFXeUPMZ17R/rE0P1TUrWV7PVrGvI295AaSx17&#xA;qdnjb9pGVu+Kp3irsVYIv/Owfm45YctP8lWahAe+qaolS3/PGyAH/PXFWd4q7FXYq7FXYq7FXYq7&#xA;FXYq7FXYq7FXYq7FXYq7FXYq7FXYq7FWGasreXvP1jrKHjpfmXhpWqr0VL6MM1hcf89Byt28SYvD&#xA;FWZ4q7FWE/lFEZvK8/mCT++8z393rJbxhnk4WnXwtIoRirNsVdiriQCATQnYe564q7FXYq7FXYq7&#xA;FXYq7FXYq7FXYq7FXYq7FXYq7FXYq7FUo836CNf8tahpIf0prmI/VZx1iuIyJLeUe8cyK4+WKqnl&#xA;jV21ny5pmqtH6Ul9axTywnrHI6AvGfdGqpxVA/mJqU+m+RNfvLYE3cdjOtoB3nkjKQj6ZGXFU00T&#xA;S4NI0aw0q32t9PtobWEdPghjEa/guKo3FXYqxL8ybu7tdN0VrSQxTya9o8NQQC0cl9EsyivWsJev&#xA;tXFU507Wxql7cLYIJNOtHaCa+JPGSdNnjg/nEZ+F3rQN8IqwbiqmmKuxV2KuxV2KuxV2KuxV2Kux&#xA;V2KuxV2KuxV2KuxV2Ksa8iN6Vpq+lk/HperXsJH8qXMn1+FfksF4gHtiqj+Yp9bT9H03/q461psZ&#xA;HitvcreyD6Y7VgfbFWV4q7FXYq86/NqPVNU1Tyd5b0qZra7v9Tku57tTRoLSztZBLMmx/eI88Zjr&#xA;tz412xVnun6fZadYW9hYwrBZ2saw28KfZREHFVHyAxVEYq7FXYq7FXYq7FXYq7FXYq7FXYq7FXYq&#xA;x3X9bfQNVt768cnRLyNrecnpBcxK0sLCtAFnUNGan7YjA+0cVVPIn6Vfyjplxq1wbnUb2I3ty5NQ&#xA;rXbG49FP8iH1fTT/ACVGKp9irsVY3owMHnnzJaivCeDTtRPWnOZZ7RuwFeNivc4qoeaKz+dfJlp2&#xA;huL7USP+MFjJa1/6fvH+xVleKuxV2KsOtAb/APNnUJ6Vi0LR7e0jY/7+1Kd5pwPlHZwH6cVZjirs&#xA;VdirsVdirsVdirsVdirsVdirsVdirsVSrzX5etfMflvUtDuiVi1CB4RKPtRuRWOVD2aNwHU+IxVB&#xA;/l3dy3fkPy9NMONwdPtkuUBB4zRxKkq1H8rqRirIcVdirH4x6fn+c9PrOkw0/wAr6vcy9f8AV+sf&#xA;8NiqEu/335qaWKVFjod+3ya7u7MA7+1q1Ke/jirK8VdirsVYh5HQyeYfO969OcutJCtO0dvptmij&#xA;/guZ+nFWX4q7FXYq7FXYq7FXYq7FXYq7FXYq7FXYq7FXYqxX8tJ0k8t3EStUWmr6zaAE1IWDVbmN&#xA;Af8AYKuKsqxV2Kscu39P8xdKQV/0nR9RLbfCPq91Yhd/E/WDiqhZqZfzS1dyNrXRNNVG6itxd3xc&#xA;A9qCBa+NR4YqyrFXYq7FWK+REjjuvNcSLQprk7O1ACzS29vLX6BIF+jFWVYq7FUmbzp5QXWW0Q61&#xA;ZfpiM0l0/wCsRmdCQGAeMNyQkGo5dcVTnFXYq7FXYq7FXYq7FXYq7FWuS8uNRypXj3p44q3irsVY&#xA;b+VMZHlzULjfhea7rtxGCKHg+rXIWvzArirMsVdirG9aQp538tXFGo0OoWtQQB+8SKajDqf95sVQ&#xA;3l5hJ+Yfm5+Sn0odLtyg6jjFNL8W/U+v92KstxV2KuxVi3lxvq/nbzfYMfjuJLHVlB/kuLRbIU9u&#xA;WmtirKcVQuqrdNpd4toXW7MEgt2i4cxIUPAp6gKcuXTlt44q+ZPJo8r+V/KeoaffXcsnmKa6uLix&#xA;sHjjF9Lqcqi2tIlSRjeCdZPTeoi+GRT8bDjVV9M6RDcQadDFO/qOvLi1CKRliY1PIK1VSi7iu2++&#xA;KozFXYq7FXYq7FXYq7FVG8M4s5zb7TiNzEQoc8+J4/CStd+1Rir5z0rzTp2qeRbfU7/VtRt7/wDe&#xA;Sz39qHa4ju7j97cW9vMJR6TQvKqxxtIxZKq4Y1VFX0No36T/AEPY/pXh+lPq8X1/0/sfWOA9XjTt&#xA;zrTFV2ralbaXpV7qd0eNtYwS3M7eEcKF2P3LiqVeQdJn0nyVothcjjeRWkTXopT/AEmRfUnNO1ZW&#xA;bFU/xV2Ksd8zsE1zyk9QpbVJYmYmnwvpl4ePvV0XbFUu8k0m85ef7oAFRqtpaK4rv6GlWjspB/la&#xA;Y74qzPFXYq7FWFeabuHQfPflvW5nWOz1j1PL14zGn76b/SbBvokiljHvJirNcVdiqk9ravOlw8KN&#xA;PGCI5SoLqD1CsRUYqq4q7FXYq7FXYq7FXYq7FXYqkEf5feRotZ/Tcegaemr+qZ/rwtohKJj1lDcd&#xA;pD/P1xVP8VYt57P6Qi07yvGaya7cKt2o3pp9sVmvSw/lkQLb1/mlXFWU4q7FXYqxTz/KsLeWZSQr&#xA;LrtmqMabGVZIiBX+YSFfpxVv8v1V08xXQ+1da5fFyetbdltR+FuKe2KsqxV2KuxV51+b+hWHmS98&#xA;l+XL8N9V1DWZnkkRijp9X0m+kVkYbq6vRlbsQDiqb+SPM1/LNceVvMbqvmvSFHrNQIt9a14xX8C/&#xA;yydJFH2JKr041VZdirsVdiqX6zr+kaNDHLqNwIjM3p20ChpJ5n/kghjDSyv/AJKKTiqI067lu7KK&#xA;5ltZbJ5RyNrPw9VBXYP6bOoNN6BtsVRGKuxV2KuxV2KuxV2KobU9TsdMsZr6+lENtAvJ3NSfAKqi&#xA;pZmOyqBUnYb4qxP8vru/1rU9f17VbRrO9S7Gm2Vq5q0FlFDFMqNSq+q0szGbj+0AtTwBxVmuKuxV&#xA;2KsP/MyAyWWgPWnoeYNJkI8a3SpT/h8Vd+VKD/Cc1z8PO91fWrpyhJU+tqtyy0r/AJNBirMMVdir&#xA;sVYd5ygeTzp5BdSAIdTvXavgdJu02+l8VS784/L0WqWnlu4jmlsb+11yxjg1S0YRXcEd3J9XlEUh&#xA;DUDiQclIKmm4IxVGm1/NvSoFS2vNJ8zKnQ3yS6XcsB/NLbi6hdvcQoPbFVaLWfzSuW4L5Y02xWpB&#xA;mudWkkpQjdY4bN+Vfd1xVu80D8w9SREuPNEGlQt/fJpNgom4nqq3F5JdLX/KEIxVMPL3kjy/oUz3&#xA;ltFJc6rMvC41e9le6vZV68WnlLOFr+wtEHYDFU+xV2KuxV2KpTq/mnSNHnWPUjPBGyhhd/Vp5LYD&#xA;evOeNHijp/lsuKoOP8x/y8kBMfmjSWAJU0vrY0I6g/H1GKoWX81/y6VmS31611CVPtQ6aW1GUGtK&#xA;enZid6+1MVU5PN/mjU1KeWvLNwK7LqGtn9G2wrTf0SJL1iP5TAv+sMVSfyXo2s3PnjXJPNeqjXb7&#xA;SBZtZRqhgs7Oa4jeST6vbBnXkEKBZZC0n2twGIxVPfy5Jk0zV7oje413WNz1P1e/lteg/wCMFPxx&#xA;VleKuxV2KsV/MX/jnaP/ANtzSP8AqOixVv8AK3ifIGiyKSVnhM61FCBNI0lDuenOmKspxV2KuxVi&#xA;vmaj+dPJ0fQpPfT18eFlJHx/5LV+jFXefkMn+HIwOXLXLIlOtfT5ydP8nhy+iuKsqxV2KuxV2Kux&#xA;V2KuxV2KuxVRnsrO4YNPBHKwFAzorEDw3GKqqqqqFUBVUUVRsAB2GKt4qxPyaPU8yeeLipKnWIYY&#xA;+w4xaTY1ptX+8dxiqr+W0TxeVEEgo8l9qczHqSZdRuJORPi3KpxVk+KuxV2KsS/MYyG10CGMAmXX&#xA;tMDVNKLHcCYn7o8VRH5ZtC/5ceVpYRSOXSbGVdqf3luj1+muKslxV2KuxVjWtRxP548s8mpJHDqM&#xA;sa1FTRIkJp4D1MVUvOtG1ryVD09XXGo3h6WlX834+lTFWVYq7FXYq7FXYq7FXYq7FXYq7FXYq7FW&#xA;NeTYPSvfND8q+vrMklKUpS1tkp/wlcVWflksi+SNPWUESK1wHDdeQuZK1xVlGKuBB6Yq7FWJ+fub&#xA;XPlSFaD1det+RPYRQTzbfP0qYqi/y6VV/L7ywqgKq6TYhVGwAFsmwxVkOKuxVpl5KVqRUUqNj9GK&#xA;vMNSvPNnlXzXYav5mjOs+VdOs762XX7SHndwfW5bV0e+tYx9mJLZ1aaBSDyqUTeqqd63qGn6tr/k&#xA;G+0+6jvNPmv7q5triB1eKT/cVdoGDLUHaRsVZrirsVdirsVdirsVdirsVdirsVdirsVYz5OkkOpe&#xA;bIXIrb6yVAFNhJYWky1p3pLXFWO+U/zB8vaT5Xit9QuS+rG/1WCDR7dGnv5TBqVzFRLWINLT4PtE&#xA;AD9ojFU3az86eZ0pfs/lbRH+1ZW0ivqsyH9mW5jJjtQe6wl38JFOKsqsbG0sLOGys4lgtbdBHDCg&#xA;oqqooAMVV8VYx5yhaXVfKCKQGGtc9/CPTrxz+C4qo/lDMkv5U+TmQ1A0XT0PbdLWNW/EYqy3FXYq&#xA;7FXYq828x/lZPY6za+afIsiWOq2Nw95JoErMml3skkLwSkxrX6vM8ch/eIKE0LqeuKsq8pec9O8x&#xA;RTxLFLp+sWLCPVdFuwEurWQ9OSioeN+scqEo46Hriqf4q7FXYq7FXYq7FXYq7FXYq7FUv1vX9I0S&#xA;0F1qdytvG7COFKF5JZG+zFDEgaSWRuyIpY+GKsF03y7581PWfMF7DeN5X0DX7qG748Ek1c+nZw2b&#xA;8eRlt7USLbqQSHcdwjdFWW+VfI/ljytBKmjWSwz3TtLfXzky3VzK7FnkuLiQtLKzMSfib5YqnuKu&#xA;xV2Ksc8xwi58zeU4gtXtb25v61OyR6fcWpNP9a9UYqlf5RSLa+W7jyzJ8N75XvbnTJojsRCshls3&#xA;A68ZLWSNl+7tirN8VdirsVdirsVY75q8m2+tSwalZ3DaV5ksVI07WoFDSRgmpilQ/DNA/wC1E+3c&#xA;UajBVQ8q+cZ729l8v+YLddM82Wkfqz2asWguYOXEXVlI395Cx6j7UZ+Fh0JVZTirsVdirsVdirsV&#xA;dirsVYlrXnW4k1WTy55Ut01TX4wPrs0hIsdPDDZryRNy56rAnxt34r8WKozy/wCTrfTrr9K6jcPr&#xA;HmORCk2r3KgMqMatFbRCqW8Nf2E67Fyzb4qyHFXYq7FXYqsnngt4JJ55FigiUvLK5CoiKKszMdgA&#xA;NyTirG/LTXOt6rL5pmRorB4PqmgQOKObV2Ekt04O6/WmSPip6Iik0LFQqq+ZPLV3PcfpvQJksfMs&#xA;CBElkDG3uokJItrxV3aOrHg4+KMmq7FlZVd5T85WevrcW0kEmm67p5CarotzT17d2+ywI+GSJ6Vj&#xA;lT4WHvUBVkGKuxV2KuxV2KpB5u8mab5kgtnld7PV9OdptH1i32uLSZhQsh6MjUpJG1VcbMMVUfKn&#xA;mi6u7iXQdeiWy802CB7mBSfRuYa8VvLRj9qFz1H2o2+FuxZVkuKuxV2KuxV2KuxV59e+Ydb87Xk2&#xA;j+T7lrDQIHMOrebkALMyNxkttM5Di8m1GuKFE/Z5N0VZf5e8u6N5e0qLS9ItltrOKrcRVmd2NXkk&#xA;dqs7ud2ZiST1xVMsVdirsVdiqld3drZ20t1dzJb20Cl5p5WCIiqKlmZqAAYqxKC1vvOc6XepwNa+&#xA;UonEljpkoKzX7KapPeRsAUgBHKOA7ts0gH2MVZlirsVY75r8l2euyW+oW9xJpXmGwB/Rmt2wHrRV&#xA;IJjkU/DNA5HxxP8ACfY0IVQOj+d7u0v4dB8528ela1Mwjsr2Mt+jtQbt9Vlf7EppU28h5j9nmPix&#xA;VmGKuxV2KuxV2KpD5u8qjXLWGa0uDp2vaczTaPqyLye3lYUYMtR6kUgHGWM7MPcAhVDeS/OEms/W&#xA;tL1a3XTvNOkkR6rpoYlSD9i5tmajSW81Ko1Nt1PxA4qyfFUq8z3eoWmkG4sFkaZJ7US+jEZ5Bbtc&#xA;xrcskShmZlgLkUUn2PTFUzjkWSNZFBCuAwDKVahFd1YAg+xxVtmVVLMQqqKsx2AA7nFXns8t/wDm&#xA;RNNZ2ryWX5fIeFzfIWjn1gg/FFbuKFLKmzyjeXoh41Yqs9srKzsbSGzsoI7a0t0WO3t4VCRxoooq&#xA;oqgBQB0AxVWxV2KuxV2KpZr/AJk0jQbVJ9RmKtM3pWlrGrS3FxKRURQQoDJK58FHTc7b4qlNnpGr&#xA;a/cRaj5mgFrZQusuneXuSyBHRg0c9461WSZSKrGpMcZ3q7BWVVlOKuxV2KuxVC6rpOmatp82napa&#xA;xXtjcLwntp0EkbjrurVHXcYqxMad5u8orXSGl8y+XU/6VNzLXUrZB2tbmU0uVHaOdg/hIdlxVkHl&#xA;vzXoXmO0kuNKuPUMD+ld20itFcW8o6xXEEgWSJx4Mo+7FU2xV2KuxV2KsX86eTZNZaz1fSbkab5q&#xA;0gs+k6iQShD09S2uUWhkt5qAOvUbMu4xVW8necI9eiuLS8tm0zzFppWPWNHlILwu32XRthLBLSsc&#xA;q7MPAggKsixVbJJHFG0kjBI0BZ3YgKqgVJJPQDFXnsjX35kyiOLnZ/l5G59aU1SbWuJFEjFAUsSf&#xA;tN1mGw+A1ZV6FHHHFGscahI0AVEUAKqgUAAHQDFV2KuxV2KqV3d2tnbSXV3NHb20Kl5p5WCRoo6s&#xA;zMQAPnirFbbzhf8AmeNv8GxI+n83ibzJeKwtOUbFH+qwgpJdFWUjlVI69HahGKpponlHTtMun1GV&#xA;5dS1uZeE+r3hD3DLWvCPiFjhj/4riVV70rviqd4q7FXYq7FXYq7FXYq8z87+UdP8yfmbokNvcz6R&#xA;qdhpt3fXGr6cyw3lDLDDaRM5VhJHyaZijqV+GlNziqbJ5g86+WlEfmew/Temp/0v9GiYyqv811pw&#xA;Lyjbq1uZP9VRirJ9F17Rdbsxe6Rew31qSVMkDhwrDqjgbqw7q2474qj8VdirsVSDzP5QttakttQt&#xA;rh9N8wafy/RurwgM8fKnKORDRZoXp8cbdeoKtRgqlVv+ZWn6ZNJpfnVotB1qBGkUux+qXsaUrLYy&#xA;tvJ1FYf7xTtQ7MVXforU/OkiT65BJYeVFIkt9BlHGe+7q+oL+zD3Ft3/AN2/77CrM1VVUKoCqooq&#xA;jYADsMVbxV2KqdzdW1pby3N1KkFtCpeaeVgiIiipZmagAA7nFWOJ5p1LWhTytZetbHb9N3weGzp/&#xA;NBH8M114grxjbtJiqtbeTLOSeO912d9dv42DxPdhfq8LjcG3tV/cxlezkNJTq5xVCfl3WG38wWPa&#xA;z17UqDfb63N9e7k/8tdcVZZirsVdirsVdirsVdirsVYX5WrffmN501Qnkln+jtEhPYfV7c30gH+y&#xA;1EV+WKs0xVj+seRfL2pXp1IRPp+skAfpfT3a1uzQUAkeOgmUfyShl9sVQgH5haN1MHmqyX/UsNSA&#xA;/wCoOdv+RAxVXsfzB8tT3cen3ssmjapIaR6fqkZtJXbbaFpP3U/XrC7jFWSYqxzXPPOmafenSbCK&#xA;TWvMJWq6PY8XkQH7L3MjERW0f+VKwr+yGO2KpfpvknUdR1u18yecp4rzUrEl9J0i3BOn2DsKeohc&#xA;B57jjt6zgU/YRcVZnirsVad0RGd2CooJZiaAAbkknFWKN56Oqu9t5OtP03IrcJNTLGHS4jWjVuqN&#xA;67L/ACQK++zFOuKqtp5IW5uYtQ80Xja9fxMHhhkQRafbupqrW9nV15KfsySs8g7MOmKsnxV2KsS8&#xA;pKIPOPne2GwlvrO+ptSs2nW8BO2+5td64qy3FXYq7FXYq7FXYq7FXYqw78rR62hajqp66vrOqXa1&#xA;ABMS3klvAdq9YIEOKsxxV2KuxVLfMknl2PRLuXzGLX9Cxpyvfryo1vwB/bEgKnfoPHFXmPlvyZrG&#xA;u6k95pk2qeT/ACE8fC30lLmZbm+U9JVilZzpsNBskXCRh14Yq9Q0Py9omg2AsNGsobG0DFzFCoXk&#xA;7fadz1d2/aZiSe5xVMMVdirGNc84TpqbaD5ctBq/mBQpuUZ/TtLJHFVkvJgH41G6xIC7eAX4gqw/&#xA;U/L17a61FffmdqC+YPL108SW4RDaaVYXRICJc2XORZo5HNEmnd+LbELUNir1WOOOKNY41CRoAqIo&#xA;AVVAoAAOgGKrsVdirsVYnpY9L80fMUfa40jSJ126stxqET7+wVPvxVlmKuxV2KuxV2KuxV2KqF/d&#xA;x2djcXkn93bRPM/b4UUsf1Yqx78rrOS0/LfyxDL/AL0HTLWS4r/v6WFZJT0H+7HOKsoxV2KpN5m8&#xA;3aL5ctopNQkZri6Yxafp8CmW6upQK+nBCvxOfE/ZUbsQN8VYPpN9b6/pEv5iediING0g3FxpejVW&#xA;SzgS2Zl+tsyki7nbifTf7A/3WDXmyr0LQLrUrvRrO71O3W0vriJZp7RST6Jk+IREnqyAhWPcgkYq&#xA;j8Vdirzu+83XHmT8wJ/Jekap+irXS4vU1W7jStzdy0UvaWcjq0SegkiGdxV15qFC7sFWcaTo+maR&#xA;ZLZadbrbWyln4LUlnc8nd2NWd3bdmYkk7k4qh/NF/pWn+X7671eD6xpUcZF/EUWRfQchJWdGIBRU&#xA;Ys/+SD1xVj4s9f8AJcQOnibXPKsIA/Rp5S6jZRDb/RnNWuokH+6n/eAfZZ9kxVlWl6pp2q6fBqOm&#xA;3Ed3Y3K84LiJgyMvTYjwOxHY4qisVdirF1jdPzPeQLRLjREVm8TBdsQB8vXP34qyjFXYq7FXYq7F&#xA;XYq7FWNfmZeGy/LjzVdg0aDSL+RSG4nkts5UBuxJ6YqnmmWYstNtLMAAW0McIAJI/doF2J37Yqic&#xA;VdirGfNfkoa3cpe2l7+jdQFvJZTTi2t7kTWspq0MgmRm413+B1rU8uWKsO1T8u7i98z6Bo+qa9qO&#xA;s2oL6lqVvO0MFj9X09oxBbJZ2scMID3EkbVcM3GNlr8RxV6virsVSrzZr8Hl3yxquuzLzj021luf&#xA;THV2jQsqD3dqKPnirB5vLVzoPkbylLIOWvafq+mXN9cCvN7rVr1LbUmJG9HF/KT2pTwxV6biqH1L&#xA;T7TUtOutOvE9W0vYZLe4jPRo5VKOv0qcVYf5Q1DzXfeULSGzurQ6xozS6Tqq3sUr+rc2LmBpPUjk&#xA;Th6oQS/YbZsVRvlPyjqNhqNxrWszWcmqXCyIsGmW31S0iEzI8zUZpJZpZmhjLyO37IAUb1VZXirs&#xA;VYzdwFfzK0ueu0mjaigXuCl1Ymv/AA+KsmxV2KuxV2KuxV2KuxViP5t8j+W+vxrGJWntTAIyQATM&#xA;yx712/bxVl2KuxV2KuxVhfnHVovLXmnRfMd8yx6HcRy6PqV05CrbSXEkclpM5PSMyRtG57F1J2Bx&#xA;VPtY83eU9EIXWdasNMZlDKLy6htyVJoCPUZdq4qvg80eWp7Y3UGrWUtsoq06XETIAN6lg1MVY75q&#xA;urDzHrmj+U7adZ1ElvrmsJH8SfULZzJbAuPh/f3ccdFr8SK/bFUw/Mgyx+TL+8iDM2mtb6kVjHJy&#xA;un3Ed2wUUNTxhNBTFWQtcwLbm5Lj0AnqGTqOAHLl92KsL1rzF5jvtX0az0sto+k38siz388IF66R&#xA;QvMzxQXCkQxL6YVpJoySzKAgB54qjvyxtPR8pQ3ZEg/S09xqi+szPL6V7M00HqM5Lc/QZOVeh22G&#xA;wVZVirsVdiqQ3qMfPejvtxXS9TU7itTcaeRt17Yqn2KuxV2KuxV2KuxV2KsV/NL/AJQTU/8Anh/1&#xA;ER4qyrFXYq7FXYqxv8xI0/whfXbxesumGHVDFTkWGnzpdsoXqeSwlaDrWmKprBq2lveQadC6lp7X&#xA;63ahAPTkt1ZUJjI2IXmn/BDFViaB5aS8EqadZreLSUOIYhKDXZ6heXXviqW2Zjj/ADH1ZSoWS50f&#xA;TmVgACwgub4PU9Tx9ZfvxVb+YNrNqeiR+XYnMf8AiG4TTriQbFbVlaW8p4F7WGRFPZmGKslRERFR&#xA;FCooAVQKAAbAADFXlPne/m1R9UmtS3qaiy+TvLhWoZ5LyQHVrmMgH4Yki3Pb6u3iMVeqxxxxRrHG&#xA;oSNAFRRsAAKADFV2KuxV2Ksd1JpE8/aCwTlHJp+qQs1QOJaSykG3evpHFWRYq7FXYq7FXYq7FXYq&#xA;x38xLb6x5K1ZOLvwh9XjGCzH0WEmygEn7HQYqyLFXYq7FXYq4gMCCKg7EHoRirzh/J2ueT9VsNT8&#xA;uGXVvL1gJ4D5dbgbq1tbngXSwmkeNWiR4Y2EEhJAWiN0TFWT6XJaa7f2HmWwkuIEhhuLK4tLq3mt&#xA;nYSNG9HimWN1eJ4RQ0pRm8QcVWXVpMv5jabeIhMMuj38M71AAaO6s2hBHU1Ekny+nFVa/huJPOuj&#xA;NStpDY6jIxr0n9S0SPan++3lxVPHUOjKagMCDQlTv4EUIxVi/l/y7z1Vdbu7ZbWOzhay8vaYFAFp&#xA;aEjnKV7TXHBSf5ECr151VZTirsVdirsVSDXLCSXzP5avlRmS2lu45GH2VE1qxBbv1jpX+zFU/wAV&#xA;dirsVdir/9k=</xmpGImg:image>
               </rdf:li>
            </rdf:Alt>
         </xmp:Thumbnails>
      </rdf:Description>
      <rdf:Description rdf:about=""
            xmlns:xmpMM="http://ns.adobe.com/xap/1.0/mm/"
            xmlns:stRef="http://ns.adobe.com/xap/1.0/sType/ResourceRef#"
            xmlns:stEvt="http://ns.adobe.com/xap/1.0/sType/ResourceEvent#">
         <xmpMM:RenditionClass>proof:pdf</xmpMM:RenditionClass>
         <xmpMM:OriginalDocumentID>uuid:65E6390686CF11DBA6E2D887CEACB407</xmpMM:OriginalDocumentID>
         <xmpMM:DocumentID>xmp.did:FB7F11740720681188C69098C6AB8D67</xmpMM:DocumentID>
         <xmpMM:InstanceID>xmp.iid:FB7F11740720681188C69098C6AB8D67</xmpMM:InstanceID>
         <xmpMM:DerivedFrom rdf:parseType="Resource">
            <stRef:instanceID>uuid:64a4b16c-feea-4115-8bb7-dc0e65acbbc6</stRef:instanceID>
            <stRef:documentID>xmp.did:465849C1B991E411B302A3F1D496D077</stRef:documentID>
            <stRef:originalDocumentID>uuid:65E6390686CF11DBA6E2D887CEACB407</stRef:originalDocumentID>
            <stRef:renditionClass>proof:pdf</stRef:renditionClass>
         </xmpMM:DerivedFrom>
         <xmpMM:History>
            <rdf:Seq>
               <rdf:li rdf:parseType="Resource">
                  <stEvt:action>saved</stEvt:action>
                  <stEvt:instanceID>xmp.iid:FDDACBA380A7E311AD04B10BEB4FC0E2</stEvt:instanceID>
                  <stEvt:when>2014-03-09T13:47:55+02:00</stEvt:when>
                  <stEvt:softwareAgent>Adobe Illustrator CS5</stEvt:softwareAgent>
                  <stEvt:changed>/</stEvt:changed>
               </rdf:li>
               <rdf:li rdf:parseType="Resource">
                  <stEvt:action>saved</stEvt:action>
                  <stEvt:instanceID>xmp.iid:DFCF64CBA0A7E311AD04B10BEB4FC0E2</stEvt:instanceID>
                  <stEvt:when>2014-03-09T18:22:23+02:00</stEvt:when>
                  <stEvt:softwareAgent>Adobe Illustrator CS5</stEvt:softwareAgent>
                  <stEvt:changed>/</stEvt:changed>
               </rdf:li>
               <rdf:li rdf:parseType="Resource">
                  <stEvt:action>saved</stEvt:action>
                  <stEvt:instanceID>xmp.iid:465849C1B991E411B302A3F1D496D077</stEvt:instanceID>
                  <stEvt:when>2015-01-01T15:26:12+02:00</stEvt:when>
                  <stEvt:softwareAgent>Adobe Illustrator CS5</stEvt:softwareAgent>
                  <stEvt:changed>/</stEvt:changed>
               </rdf:li>
               <rdf:li rdf:parseType="Resource">
                  <stEvt:action>saved</stEvt:action>
                  <stEvt:instanceID>xmp.iid:FB7F11740720681188C69098C6AB8D67</stEvt:instanceID>
                  <stEvt:when>2015-02-12T16:00:38+02:00</stEvt:when>
                  <stEvt:softwareAgent>Adobe Illustrator CS5.1</stEvt:softwareAgent>
                  <stEvt:changed>/</stEvt:changed>
               </rdf:li>
            </rdf:Seq>
         </xmpMM:History>
      </rdf:Description>
      <rdf:Description rdf:about=""
            xmlns:illustrator="http://ns.adobe.com/illustrator/1.0/">
         <illustrator:StartupProfile>Web</illustrator:StartupProfile>
      </rdf:Description>
      <rdf:Description rdf:about=""
            xmlns:xmpTPg="http://ns.adobe.com/xap/1.0/t/pg/"
            xmlns:stDim="http://ns.adobe.com/xap/1.0/sType/Dimensions#"
            xmlns:xmpG="http://ns.adobe.com/xap/1.0/g/">
         <xmpTPg:NPages>1</xmpTPg:NPages>
         <xmpTPg:HasVisibleTransparency>False</xmpTPg:HasVisibleTransparency>
         <xmpTPg:HasVisibleOverprint>False</xmpTPg:HasVisibleOverprint>
         <xmpTPg:MaxPageSize rdf:parseType="Resource">
            <stDim:w>144.999935</stDim:w>
            <stDim:h>194.511297</stDim:h>
            <stDim:unit>Millimeters</stDim:unit>
         </xmpTPg:MaxPageSize>
         <xmpTPg:PlateNames>
            <rdf:Seq>
               <rdf:li>Cyan</rdf:li>
               <rdf:li>Magenta</rdf:li>
               <rdf:li>Yellow</rdf:li>
               <rdf:li>Black</rdf:li>
            </rdf:Seq>
         </xmpTPg:PlateNames>
         <xmpTPg:SwatchGroups>
            <rdf:Seq>
               <rdf:li rdf:parseType="Resource">
                  <xmpG:groupName>Default Swatch Group</xmpG:groupName>
                  <xmpG:groupType>0</xmpG:groupType>
               </rdf:li>
            </rdf:Seq>
         </xmpTPg:SwatchGroups>
      </rdf:Description>
      <rdf:Description rdf:about=""
            xmlns:pdf="http://ns.adobe.com/pdf/1.3/">
         <pdf:Producer>Adobe PDF library 9.90</pdf:Producer>
      </rdf:Description>
   </rdf:RDF>
</x:xmpmeta>
                                                                                                    
                                                                                                    
                                                                                                    
                                                                                                    
                                                                                                    
                                                                                                    
                                                                                                    
                                                                                                    
                                                                                                    
                                                                                                    
                                                                                                    
                                                                                                    
                                                                                                    
                                                                                                    
                                                                                                    
                                                                                                    
                                                                                                    
                                                                                                    
                                                                                                    
                                                                                                    
                           
<?xpacket end="w"?>
	</metadata>
<g>
	<path d="M288.306,407.648c3.928,30.396,6.568,62.375,6.388,94.608c-0.083,14.418,2.085,30.464,1.521,43.194
		c-1.754-0.578-0.833-2.936-0.913-3.952c-1.688-21.489-1.4-42.485-2.434-64.188c-1.106-23.216-3.279-45.657-6.084-68.753
		c-27.921,12.034-53.905,28.635-81.523,41.981c6.315,4.456,10.054,11.312,16.729,15.516c3.355,2.109,6.474,4.099,9.431,6.692
		c1.371,1.201,2.854,2.499,4.26,3.649c1.403,1.151,3.509,1.827,4.257,3.652c-4.442-0.573-6.792-4.342-9.734-6.694
		c-6.076-4.856-12.652-7.514-17.947-14.298c-1.926-2.467-5.894-7.156-8.82-7.3c-3.672-0.18-10.489,5.655-13.079,7.604
		c-6.715,5.056-12.827,7.83-17.642,13.993c4.234,3.604,7.16,9.154,7.303,16.731c0.099,5.326-0.138,11.282,0.91,15.82
		c0.44,1.9,1.79,3.604,1.827,5.173c0.09,4.04-4.413,11.185-5.476,15.21c-1.956,7.413-1.528,13.48-2.433,19.468
		c-1.863-1.053-0.799-4.583-0.608-6.688c0.947-10.49,4.022-19.413,7.298-27.38c-5.59-10.197,0.64-29.921-9.427-36.201
		c-3.671,4.179-4.913,10.083-6.693,15.515c-1.765,5.393-4.015,10.774-6.084,15.818c-0.762,1.863-2.513,3.82-3.041,5.78
		c-0.746,2.774-0.075,7.155,0.303,10.646c0.857,7.899,2.554,15.322,1.218,22.815c-1.014-8.288-2.118-17.074-2.738-27.379
		c-0.177-2.916-1.022-7.216-0.303-9.127c0.487-1.294,1.204,0.322,2.432-1.215c1.375-1.724,2.232-5.742,3.348-8.821
		c4.284-11.842,7.174-26.682,16.729-33.159c0.935-0.636,2.049-0.622,3.042-1.219c5.483-3.281,10.921-9.159,16.729-12.472
		c7.322-4.181,15.404-7.469,23.113-11.256c7.49-3.676,14.836-7.884,22.207-11.864c21.893-11.817,45.614-21.872,66.622-35.592
		c6.894-4.502,13.695-8.9,19.774-14.298c5.612-4.983,11.528-10.647,17.645-16.428c5.319-5.027,12.78-12.614,15.212-18.861
		c2.29-5.886,2.215-15.146,2.737-22.207c0.525-7.13-0.099-14.748,0.303-22.813c1.035-20.771,0.736-34.949,0.606-55.671
		c-0.177-29.019-3.149-48.626-4.257-78.181c-0.486-12.943-2.181-24.654-4.564-36.201c-1.29-6.262-1.958-12.088-3.952-17.645
		c-9.333-26.011-24.188-48.949-45.022-63.274c-9-6.187-20.458-8.044-32.245-10.951c-11.259-2.777-22.28-4.848-34.377-8.822
		c-8.863-4.86-18.748-13.082-21.598-23.729c-0.206-0.764-0.601-3.478,0-3.954c-0.087-0.492,0.285-0.523,0.305-0.913
		c0.35-0.05,0.541,0.066,0.604,0.303c1.393,12.851,11.124,22.663,21.902,27.075c3.276,1.342,7.083,1.919,10.649,3.043
		c9.976,3.145,21.644,5.249,32.245,8.213c7.532,2.107,14.293,3.203,20.383,6.693c5.197,2.979,10.14,7.134,14.904,11.865
		c9.395,9.318,16.84,18.366,23.425,30.725c3.21,6.023,6.005,12.086,8.518,18.556c2.537,6.532,3.545,13.095,5.172,20.99
		c1.735,8.401,3.206,16.646,3.956,25.554c0.708,8.435,0.736,17.198,1.52,25.856c0.804,8.874,1.33,18.103,1.826,27.378
		c0.481,8.962,1.76,17.955,2.131,27.076c0.375,9.283,0.041,19.261,0.303,28.595c0.445,16.003-0.832,34.678-1.217,54.15
		c-0.233,11.687-0.981,23.891-4.867,32.245c-9.04,12.976-21.332,22.651-32.853,33.159
		C316.501,392.114,302.213,399.217,288.306,407.648z"/>
	<path d="M263.361,205.045c-0.188,0.271-0.367,0.545,0,0.609c-1.304,0.896-1.274-0.678-3.347-0.305
		C260.629,204.177,262.649,204.62,263.361,205.045z"/>
	<path d="M258.796,204.743c0.305,0,0.608,0,0.913,0c-0.745,0.404,0.548,0.917-0.305,1.216c-0.203,0-0.406,0-0.608,0
		C258.796,205.554,258.796,205.146,258.796,204.743z"/>
	<path d="M255.451,206.567c-0.471,0.847-2.353,0.286-1.827,2.131c-0.505,0-1.013,0-1.521,0c0.307-0.688,2.304-1.598,0.913-2.131
		C253.96,205.525,254.18,206.556,255.451,206.567z"/>
	<path d="M96.966,206.871c0.095-0.412,0.763-0.252,1.218-0.305c0,0.406,0,0.811,0,1.217
		C96.994,208.265,97.554,206.993,96.966,206.871z"/>
	<path d="M92.405,207.783c0.914-0.306,0.539,0.678,0.607,1.218c-0.305,0-0.607,0-0.912,0
		C91.971,208.364,92.308,208.194,92.405,207.783z"/>
	<path d="M89.058,209.001c-0.598-0.604-1.737-0.195-2.434,0C86.264,207.67,89.419,207.67,89.058,209.001z"/>
	<path d="M257.276,208.392c-2.084,2.073-4.872,3.444-5.172,7.302c0.426,1.303,2.036,0.036,2.738,0.607
		c-0.132,2.164-2.618-0.985-3.043,1.217c1.118,0.138,0.544,1.327,0.912,2.737c0.245-0.159,0.493-0.315,0.91-0.303
		c-0.016,1.437,1.112,1.728,1.827,2.433c2.42-0.228,5.221,0.034,6.083-1.521c0.44,0.674,2.007,0.222,2.132,1.217
		c0.76-0.25,1.412-0.614,1.823-1.217c-0.044-0.679-0.765,0.395-1.521,0c-1.319-1.01-0.789-3.673,1.217-2.738
		c-0.169,0.439-0.474,0.742-0.912,0.913c-0.089,0.799,1.179,0.239,0.912,1.216c0.546,0.039,0.643-0.372,1.218-0.303
		c0.384-1.603-0.63-1.804-0.608-3.043c-0.757,0.032-0.942,0.57-1.521,0c0.699-2.358,2.185,0.323,3.347,0.305
		c-0.245,8.146-13.685,9.999-16.428,3.041c0.042-1.459-0.232-2.607-1.216-3.041c0.838-0.175,0.948-1.08,1.216-1.825
		c-0.827-1.837-1.441-2.964-1.824-4.563c0.709,0.1,1.258,0.366,1.824,0.609c-0.238,1.302,0.044,1.241-0.305,2.434
		c0.759-0.677,2.676-2.699,1.522-3.348C254.163,209.945,255.216,208.667,257.276,208.392z M255.451,223.602
		c2.437,0.488,5.78,0.352,7.909-1.521C260.378,223.423,257.511,222.544,255.451,223.602z"/>
	<path d="M99.4,209.304c1.037-0.225,0.502,1.122,1.218,1.217C99.933,211.572,99.415,209.927,99.4,209.304z"/>
	<path d="M91.492,209.609c0.271,0.643,0.926,0.899,0.913,1.825c-0.683-0.535-1.5-0.936-2.435-1.217
		C89.658,209.196,90.917,209.744,91.492,209.609z"/>
	<path d="M86.016,210.218c0.607,1.014,0.305,2.94,1.826,3.042C86.247,214.429,85.134,211.606,86.016,210.218z"/>
	<path d="M263.665,213.563c-1.348-1.16-2.259-3.074-4.869-2.129C260.315,209.352,263.665,211.318,263.665,213.563z"/>
	<path d="M265.186,210.521c0.096,0.706-0.051,1.169-0.305,1.521c-0.701,0.094-0.338-0.878-0.911-0.911
		C264.042,210.595,264.493,210.437,265.186,210.521z"/>
	<path d="M89.058,210.826c1.231-0.013,0.359,2.076,1.825,1.826C89.781,213.733,88.946,211.967,89.058,210.826z"/>
	<path d="M257.58,212.346c0.759,0.443-0.595,1.843-0.609,2.737c-0.057,3.264,3.402,3.382,6.085,2.434
		C259.814,221.447,253.816,216.251,257.58,212.346z"/>
	<path d="M100.314,214.477c-1.179-0.162-1.486,0.543-2.739,0.304C98.076,214.498,99.974,212.96,100.314,214.477z"/>
	<path d="M262.142,215.389c-0.134,0.696-1.841,1.376-2.433,0.609C259.665,215.036,261.219,215.979,262.142,215.389z"/>
	<path d="M96.36,218.126c-0.252-0.86,0.428-0.789,0.302-1.521c0.66-0.051,0.138,1.078,0.305,1.521
		c0.537-0.175,1.79,0.369,1.826-0.304C99.59,218.792,96.815,218.939,96.36,218.126z"/>
	<path d="M253.929,217.822c0.97-0.26,0.942,0.479,1.522,0.609c-0.224,0.542-0.555,0.042-0.913,0
		c-0.31,0.198-0.315,0.699-0.913,0.608C253.861,218.768,253.952,218.351,253.929,217.822z"/>
	<path d="M255.147,219.039c1.333,0.157,0.999,0.094,2.129,0.304c0.032,0.943-0.371,1.454-0.609,2.131
		c-0.389-0.522-0.999-0.827-1.823-0.914C254.745,219.855,254.892,219.393,255.147,219.039z"/>
	<path d="M88.448,222.691c0.203,0,0.406,0,0.609,0c-0.056,0.26,0.118,0.286,0.305,0.304c0,0.202,0,0.406,0,0.608
		c-0.26-0.056-0.287,0.119-0.305,0.305c-0.204,0-0.406,0-0.609,0c0.057-0.26-0.119-0.287-0.303-0.305c0-0.203,0-0.407,0-0.608
		C88.405,223.05,88.432,222.875,88.448,222.691z"/>
	<path d="M163.892,380.572c-2.447,2.774-3.665,10.192,3.042,9.128C160.677,393.198,158.858,382.038,163.892,380.572z"/>
	<path d="M117.35,468.184c0.206,2.009-1.453,3.525-2.435,5.476c-0.909,1.809-1.393,4.049-2.433,6.085
		c-2.505,4.907-6.065,10.148-6.388,15.818c-0.428,7.502,4.294,13.174,8.82,17.341c-2.199-0.132-3.284-1.378-4.561-2.434
		c1.387,6.447,1.784,12.791,4.259,17.646c2.289,4.492,6.616,6.263,10.038,9.429c-0.524-4.78-2.697-9.427-2.738-13.688
		c3.055,4.476,1.886,10.726,4.869,14.602c2.558,3.328,6.772,3.04,10.039,5.78c-0.736,0.583-2.445,0.192-3.652,0.305
		c-2.129-2.433-6.831-2.296-7.908-5.78c-4.041-2.223-8.485-3.982-10.951-7.91c-3.176-5.059-2.896-12.411-5.173-18.861
		c0.145-0.801,0.239-1.023,0.913-1.826c-12.039-12.135,0.005-30.842,6.388-41.979C116.74,468.184,117.045,468.184,117.35,468.184z"
		/>
	<path d="M100.314,471.835c0.969-0.26,0.94,0.479,1.521,0.609c-1.033,4.237-4.06,6.485-7.302,8.516
		C96.42,477.879,99.818,476.307,100.314,471.835z"/>
	<path d="M213.167,471.835c0.305,0,0.607,0,0.911,0c2.549,7.693,4.995,15.487,7.909,22.816c0.015,1.328-0.758,1.876-1.218,2.737
		c0.833,4.542-2.171,9.461-3.651,14.599c-1.301,4.521-1.839,9.945-3.648,13.689c-2.924,6.044-9.245,13.362-13.688,17.95
		c5.199-7.848,11.185-14.025,13.992-24.337c0.876-3.223,2.202-6.409,3.043-9.734c1.005-3.99,2.847-7.077,3.344-11.258
		c-8.21,3.35-13.901,9.219-22.204,12.475c1.227-1.955,4.129-2.36,6.693-3.957c2.187-1.362,3.84-3.817,6.083-5.17
		c2.176-1.315,5.204-1.521,7.3-3.045c0.753-0.767,1.043-1.999,2.128-2.432C218.402,487.684,214.407,479.825,213.167,471.835z"/>
	<path d="M242.367,478.224c0.305,0,0.609,0,0.913,0c1.396,3.896-3.13,7.688-6.995,8.819c-4.065,1.191-9.218-0.844-12.169-2.432
		c6.945,2.124,15.181,1.305,18.251-3.651C242.554,479.828,241.592,479.035,242.367,478.224z"/>
	<path d="M108.831,480.049c-1.105,2.83-6.107,4.184-10.039,4.865c-4.243,0.74-10.074,0.488-10.343-3.347
		C94.211,486.2,103.563,481.151,108.831,480.049z"/>
	<path d="M212.558,504.384c-1.51,5.468-3.343,10.824-5.475,15.818c-2.077,4.869-4.631,9.595-8.517,12.778
		c6.081-7.811,9.544-18.24,13.076-28.597C211.948,504.384,212.254,504.384,212.558,504.384z"/>
	<path d="M149.899,510.469c-8.312,5.794-18.802,0.696-30.115,0.608C128.447,507.682,140.06,514.957,149.899,510.469z"/>
	<path d="M139.252,527.503c1.419,3.347,2.02,7.514,3.65,10.648C140.154,536.324,139.076,531.25,139.252,527.503z"/>
	<path d="M134.384,249.458c-0.251,2.144-3.216,3.055-5.172,4.26c-2.163,1.334-4.499,2.489-6.085,3.956
		c-4.465,1.756-9.055,4.484-13.993,5.779c-2.295,0.604-4.837,0.374-7.3,0.913c-6.216,1.359-12.977,3.115-18.862,3.043
		c-6.379-0.08-12.196-2.791-18.556-3.955c-1.312-1.121-3.048-1.817-4.562-2.737c-0.063,23.781-2.676,47.663-1.826,69.056
		c13.646,11.577,27.435,22.058,39.547,35.286c3.979,4.348,8.048,8.574,12.168,12.775c16.458,16.794,31.257,35.285,51.41,48.368
		c19.638-14.28,35.427-32.566,53.227-48.672c17.783-16.086,36.333-31.41,58.407-43.196c-1.695-23.074-1.938-46.957,1.221-71.793
		c-17.864,9.021-47.245,15.641-68.444,6.389c2.711-0.469,5.253,0.966,7.908,1.521c15.762,3.293,33.037,0.392,45.933-3.65
		c5.429-1.7,9.692-4.188,13.994-6.692c1.244-0.724,2.565-0.89,3.65-1.521c6.171-3.592,13.809-13.978,17.036-20.686
		c7.638-15.874,11.508-36.801,10.038-58.712c-0.362-5.403-0.789-11.049-2.128-15.515c-2.729-9.078-7.635-16.483-10.952-24.032
		c4.024,5.914,7.6,12.275,10.343,19.469c-0.92-7.382,0.271-16.095,4.564-20.077c0.419,3.403-2.873,6.572-3.348,10.646
		c-0.708,6.095,1.03,13.141,1.825,19.47c0.801,6.373,1.559,12.771,1.824,18.861c0.501,11.427-1.916,21.669-4.257,31.333
		c-2.327,9.598-6.054,18.68-11.258,26.161c-1.914,23.609-5.087,56.896-1.521,79.398c10.86-4.858,23.365-10.702,32.854-17.949
		c-2.082,3.998-6.374,6.194-10.04,8.215c-11.485,6.329-23.843,12.631-35.593,18.557c-15.618,7.876-29.582,18.448-42.59,29.509
		c-13.035,11.087-25.988,22.034-37.717,34.375c-5.866,6.172-12.556,11.63-18.857,17.342c-6.288,5.694-13.695,10.148-19.164,16.73
		c-6.188,3.783-12.227,7.949-18.86,11.561c-6.491,3.529-13.444,6.713-18.557,11.864c-1.862,0.288-3.181,1.949-4.563,3.042
		c-6.859,5.416-13.729,11.57-20.989,17.036c-2.734,2.058-5.331,4.775-8.821,5.475c2.329-3.557,6.196-5.438,9.429-7.908
		c9.496-7.258,18.331-15.909,28.292-23.121c-28.752-10.793-58.01-21.083-83.05-35.592c-2.289,4.395-2.644,9.599-3.649,14.602
		c-3.482,17.315-6.593,35.182-8.213,53.54c-0.996,11.289-1.577,22.369-1.826,33.465c-0.193,8.61-0.445,17.54,0.305,27.682
		c0.052,0.712,1.688,2.744-0.305,3.044c-2.049,0.101-0.863-2.63-0.913-3.349c-3.052-44.547,3.363-92.159,12.473-129.894
		c-12.348-8.177-25.886-15.885-38.635-24.946c-10.25-7.284-20.915-16.315-29.813-25.553c-1.314-1.365-3.215-2.338-4.259-3.651
		c-7.626-9.596-5.667-30.725-5.475-46.239c0.242-19.731,0.897-40.435,2.433-58.103c1.975-22.688,2.991-44.259,4.867-67.534
		c1.911-23.716,5.008-45.964,9.43-67.533c2.146-10.468,5.107-21.351,9.127-30.42C-7.728,76.212-0.298,62.424,9.352,52.644
		c3.212-3.255,6.755-5.659,10.951-8.822c7.295-5.497,17.396-12.128,26.466-12.776c3.271-0.233,6.829,0.476,10.039,0
		c9.035-1.338,18.2-5.225,27.379-7.908c13.759-4.024,25.864-9.291,32.55-19.775c0.718-1.125,1.158-3.61,3.348-3.042
		c1.021,2.821-2.216,5.03-3.955,6.996c-1.948,2.205-3.774,4.521-5.779,6.085c-4.26,3.65-10.562,5.258-15.516,8.214
		c-13.014,2.797-26.359,9.838-38.634,11.256c-3.566,0.412-6.95-0.159-10.342,0.305c-6.221,0.848-12.646,4.056-17.95,6.996
		c-5.416,3.001-10.278,7.21-14.296,10.646C4.369,58.722-1.093,68.993-7.073,80.022c-15.002,29.782-20.446,70.997-23.729,111.949
		c-0.442,5.513-0.986,11.036-1.217,16.427c-0.4,9.367-0.593,18.729-1.521,28.292c-0.541,5.561-1.479,9.813-1.521,15.514
		c-0.067,8.82-1.369,17.591-1.827,26.771c-0.862,17.323-1.81,35.707-0.911,53.237c0.512,9.975,0.999,19.127,5.17,25.553
		c1.736,2.672,5.263,5.28,8.213,7.909c8.519,7.58,16.95,14.918,25.859,21.296c9.428,6.745,18.961,12.817,29.202,18.858
		c3.239,1.909,6.24,4.62,10.039,5.173c0.763,1.877,2.969,2.427,4.563,3.348c23.825,13.731,52.214,24.312,80.614,34.069
		c11.87-5.977,23.773-11.92,33.16-20.381c-5.67-6.075-12.419-10.711-18.558-16.123c-16.489-14.54-30.802-32.626-46.545-48.368
		c-1.404-1.405-2.827-3.271-4.867-3.65c-1.165-3.168-4.274-5.115-6.693-7.302c-11.755-10.634-24.895-20.639-38.634-29.812
		c-5.379-3.593-11.615-6.444-15.819-11.561c4.033,0.938,5.939,3.998,9.431,5.476c2.204-20.093,0.855-46,2.13-72.705
		c0.104-2.175,0.784-5.923,0.304-8.82c-0.306-1.848-1.536-3.885-2.129-5.78c-5.084-16.249-6.83-38.41-3.954-57.191
		c2.596-16.976,9.245-34.011,7.3-53.236c1.81,1.129,1.942,3.967,2.131,6.085c0.679,7.621-1.591,15.73-2.131,22.207
		c3.848-8.118,8.741-15.191,16.124-19.773c-6.377,5.195-11.089,12.127-15.514,20.381c-2.455,4.579-3.624,12.015-4.867,17.949
		c-5.605,26.724-3.163,58.801,9.734,77.877c7.144,10.562,15.341,20.115,31.638,20.686c1.496-0.483,0.455,1.571,1.824,1.217
		C103.042,265.168,120.193,258.793,134.384,249.458z M41.602,240.638c-0.554,24.36-1.5,48.34-2.434,71.487
		c-0.078,1.915,1.493,3.925,0,5.78c6.21,2.916,11.032,7.22,16.732,10.648c0.112-21.005,1.945-38.883,2.129-57.801
		c0.04-4.281-0.458-9.122-1.218-11.862c-6.118-5.341-10.476-12.442-15.209-19.166C41.602,240.029,41.602,240.333,41.602,240.638z
		 M282.525,255.543c-1.771,1.677-5.726,3.632-6.693,5.476c-0.838,1.597-0.614,5.111-0.91,8.213c-1.913,20.002-3.426,44.834,0,63.58
		c4.195-1.99,7.88-4.492,12.167-6.39c-1.521-28.299-0.927-52.904,2.13-77.572c-0.018-0.187-0.046-0.361-0.305-0.306
		C287.033,250.375,285.245,252.968,282.525,255.543z"/>
	<path d="M91.795,201.7c-0.908,1.052-2.917-0.525-3.649,0.304C88.262,201.096,90.775,201.515,91.795,201.7z"/>
	<path d="M79.932,206.261c0.768-0.91,3.459,0.029,3.65-2.129c0.958,1.12,1.115-0.162,1.521-1.216
		c2.437-0.524,4.139,0.974,7.604,0.912c-0.007,0.296-0.372,0.236-0.607,0.305c3.953,1.664,6.382,10.216,3.042,13.689
		c0.094,0.413,0.762,0.253,1.218,0.304c0.44,1.151-0.836,0.584-0.61,1.522c-0.392-0.418-1.32-0.301-2.129-0.305
		c-0.091,0.801,1.18,0.24,0.912,1.217c-0.539,0.07-1.525-0.306-1.218,0.609c0.265,0.458,0.456-0.085,1.218,0.304
		c-0.7,1.138-2.777,0.268-3.651,1.218c-0.966-0.891,1.308-1.109,2.129-1.218c-0.506-0.604,0.027-0.388,0-1.218
		c-0.819,1.064-1.901,0.187-2.129,1.521c-3.608,0.484-5.539-1.109-8.821-0.912c0.036-1.128,0.441-0.766,1.217-0.609
		c-0.034-0.778-1.018-0.604-1.826-0.607c0.563-1.196-1.545-2.013-2.433-2.737c1.442-1.114-0.704-4.109,0.912-5.476
		c-0.644-0.344-0.883-0.119-1.824-0.609c0.21-0.954,0.81-0.397,1.521-0.305c-0.132-0.477-0.959-0.258-0.609-1.217
		c0.716,0.007,0.895-0.523,1.825-0.303c-0.348-0.768,0.053-2.285-1.521-1.827c0.048-0.948,1.861-0.585,1.826,0.305
		c0.728,0.12-0.169-1.385,0.912-0.913C81.404,206.021,80.663,206.033,79.932,206.261z M86.928,205.045
		c-0.041,1.52-1.885,0.557-1.825,1.521c0.003,0.502,0.843,0.171,0.913,0.609c-1.457,0.07,0.234,1.079,0,1.827
		c-0.932,0.842-1.893,1.686-1.217,3.345c-0.444-0.435-0.963-0.233-0.912,0.609c0.478,0.029,1.053-0.042,0.912,0.608
		c-0.69-0.694-1.106,0.439-1.217,1.217c1.469-0.152,0.375,0.771,0.912,1.825c2.342,0.666,3.717,0.741,6.085-0.305
		c-2.418,3.771-7.786,1.044-8.213-3.043c1.699-0.125,0.671-2.977,1.825-3.649c-1.086-0.007-1.922,0.418-0.913,0.911
		c-1.1,0.703-0.869-0.296-2.129-0.608c0.266,0.977-0.79,0.632-0.913,1.217c0.825-0.217-0.218,1.434,0.608,1.217
		c0.084-0.276,1.134-1.021,1.218-0.305c-0.757-0.047-0.941,0.48-1.521,0.61c0.041,0.749,0.045,1.465-0.303,1.825
		c0.98,0.715,0.799,1.656,0.913,3.042c1.167-0.277,1.94,0.497,1.217,1.218c0.598,0.091,0.603-0.411,0.912-0.609
		c0,0.406,0,0.811,0,1.217c0.86,0.251,0.789-0.428,1.521-0.304c0.096,0.412,0.434,0.582,0.305,1.216
		c1.633-0.368,2.048-0.179,3.043,0.609c0.361-1.433,2.514,0.557,3.042-0.911c-1.016-0.187,0.207-2.146,0.609-0.914
		c-1.245-0.144-0.046,0.82,0.305,0.914c0.047-0.358-0.052-0.863,0.305-0.914c2.927-0.207,1.458-4.524,3.649-4.562
		c0.042-4.403-1.058-9.284-4.563-9.127c0.359,0.149,0.688,0.325,0.913,0.61C90.638,205.596,89.164,204.939,86.928,205.045z
		 M82.67,207.783c-0.049,0.359,0.052,0.863-0.304,0.914c-0.238,0.067-0.6,0.007-0.609,0.305c1.235,0.328,1.668-0.12,3.346,0
		c-0.012-0.42,0.144-0.669,0.305-0.915c-0.401-0.31-1.121-0.298-1.521-0.607C83.409,208.65,83.647,208.082,82.67,207.783z"/>
	<path d="M94.838,204.133c0.134,0.271,0.267,0.544,0.608,0.61c-0.204,0.116-1.77,0.203-2.129,0
		C93.575,204.289,94.297,204.302,94.838,204.133z"/>
	<path d="M269.141,212.346c-1.034,0.735-0.997,4.247-0.609,4.868c-0.474,0.939-1.553-1.651-0.607-2.131
		c-0.875-4.227-2.501-8.623-9.431-7.604c1.976-1.647,5.286,0.417,7.302-0.305c-0.352,0.451-0.352,0.767,0,1.217
		c0.31-0.198,0.314-0.701,0.913-0.609C266.165,209.638,267.953,211.261,269.141,212.346z"/>
	<path d="M98.792,210.521c1.003,0.013,0.524,1.505,1.825,1.218c-0.034,0.777-1.018,0.604-1.825,0.607
		C98.452,211.389,98.765,211.659,98.792,210.521z"/>
</g>
</svg>
