<?xml version="1.0" encoding="utf-8"?>
<!-- Generator: Adobe Illustrator 15.0.2, SVG Export Plug-In . SVG Version: 6.00 Build 0)  -->
<!DOCTYPE svg PUBLIC "-//W3C//DTD SVG 1.1//EN" "http://www.w3.org/Graphics/SVG/1.1/DTD/svg11.dtd">
<svg version="1.1" id="Layer_1" xmlns="http://www.w3.org/2000/svg" xmlns:xlink="http://www.w3.org/1999/xlink" x="0px" y="0px"
	 width="411.023px" height="411.745px" viewBox="-42.519 0 411.023 411.745" enable-background="new -42.519 0 411.023 411.745"
	 xml:space="preserve">
<metadata><?xpacket begin="﻿" id="W5M0MpCehiHzreSzNTczkc9d"?>
<x:xmpmeta xmlns:x="adobe:ns:meta/" x:xmptk="Adobe XMP Core 5.0-c060 61.134777, 2010/02/12-17:32:00        ">
   <rdf:RDF xmlns:rdf="http://www.w3.org/1999/02/22-rdf-syntax-ns#">
      <rdf:Description rdf:about=""
            xmlns:dc="http://purl.org/dc/elements/1.1/">
         <dc:format>image/svg+xml</dc:format>
         <dc:title>
            <rdf:Alt>
               <rdf:li xml:lang="x-default">1F-2</rdf:li>
            </rdf:Alt>
         </dc:title>
      </rdf:Description>
      <rdf:Description rdf:about=""
            xmlns:xmp="http://ns.adobe.com/xap/1.0/"
            xmlns:xmpGImg="http://ns.adobe.com/xap/1.0/g/img/">
         <xmp:CreatorTool>Adobe Illustrator CS5.1</xmp:CreatorTool>
         <xmp:CreateDate>2015-02-12T16:00:54+02:00</xmp:CreateDate>
         <xmp:ModifyDate>2015-02-12T16:00:54+02:00</xmp:ModifyDate>
         <xmp:MetadataDate>2015-02-12T16:00:54+02:00</xmp:MetadataDate>
         <xmp:Thumbnails>
            <rdf:Alt>
               <rdf:li rdf:parseType="Resource">
                  <xmpGImg:width>256</xmpGImg:width>
                  <xmpGImg:height>256</xmpGImg:height>
                  <xmpGImg:format>JPEG</xmpGImg:format>
                  <xmpGImg:image>/9j/4AAQSkZJRgABAgEB1QHVAAD/7QAsUGhvdG9zaG9wIDMuMAA4QklNA+0AAAAAABAB1QAAAAEA&#xA;AQHVAAAAAQAB/+4ADkFkb2JlAGTAAAAAAf/bAIQABgQEBAUEBgUFBgkGBQYJCwgGBggLDAoKCwoK&#xA;DBAMDAwMDAwQDA4PEA8ODBMTFBQTExwbGxscHx8fHx8fHx8fHwEHBwcNDA0YEBAYGhURFRofHx8f&#xA;Hx8fHx8fHx8fHx8fHx8fHx8fHx8fHx8fHx8fHx8fHx8fHx8fHx8fHx8fHx8f/8AAEQgBAAEAAwER&#xA;AAIRAQMRAf/EAaIAAAAHAQEBAQEAAAAAAAAAAAQFAwIGAQAHCAkKCwEAAgIDAQEBAQEAAAAAAAAA&#xA;AQACAwQFBgcICQoLEAACAQMDAgQCBgcDBAIGAnMBAgMRBAAFIRIxQVEGE2EicYEUMpGhBxWxQiPB&#xA;UtHhMxZi8CRygvElQzRTkqKyY3PCNUQnk6OzNhdUZHTD0uIIJoMJChgZhJRFRqS0VtNVKBry4/PE&#xA;1OT0ZXWFlaW1xdXl9WZ2hpamtsbW5vY3R1dnd4eXp7fH1+f3OEhYaHiImKi4yNjo+Ck5SVlpeYmZ&#xA;qbnJ2en5KjpKWmp6ipqqusra6voRAAICAQIDBQUEBQYECAMDbQEAAhEDBCESMUEFURNhIgZxgZEy&#xA;obHwFMHR4SNCFVJicvEzJDRDghaSUyWiY7LCB3PSNeJEgxdUkwgJChgZJjZFGidkdFU38qOzwygp&#xA;0+PzhJSktMTU5PRldYWVpbXF1eX1RlZmdoaWprbG1ub2R1dnd4eXp7fH1+f3OEhYaHiImKi4yNjo&#xA;+DlJWWl5iZmpucnZ6fkqOkpaanqKmqq6ytrq+v/aAAwDAQACEQMRAD8A9U4q7FXYq7FXYqxfzt5K&#xA;XXhaalp9x+jfNGkMZdG1ZQTwY/ahmUEepbzU4yR9xuKGhxVGeUvM36dsJDcW5sNYsZPq2saY55Nb&#xA;3KgEgNtzjcEPFINmQg+ICqeYq7FXYq7FXYq7FXYq7FXYq7FXYq7FXYq7FXYq7FXYqw/zX5r1ZtR/&#xA;wt5RjS48ySKr3d5MrNZ6ZA/Se5K05SOP7qEHk/U0UE4qnXlny8mh6atqby51G6c+peajeyNLPNKR&#xA;8TEk0Rf5Y0ARRsBiqbYq7FXYq7FXYq7FUq8teaNF8yacdQ0mcywpI8E8bo8U0M0Zo8U0UgWSN1/l&#xA;YA9+hxVNcVdirsVdirsVYj5x0PUba/g83+XojJrWnoIr+wSg/SNhy5PbmtB60dS9ux6NVfsu2Ksj&#xA;0jVtP1jTLbU9OmE9ldxiWCUVFVbsQd1YdGU7g7HfFUXirsVdirsVdirsVdirsVdirsVdirsVdirs&#xA;VdirGPPvmq50SxtrHSkS48za3L9T0Kzf7JlIrJPJTf0beOskh8BTqwxVMfK3ly38v6PFp8cr3M5L&#xA;TX1/LT1rq5k+Ka4lp+07b06AUA2AxVNsVdirsVdirsVdirsVYD560jU9C1Mef/LcTzXlsip5k0iL&#xA;/pY2EYNWVe91bL8UTdWFU7jFWaaXqlhqum2up6fOtzY3sST206GqvHIAysPmDiqKxV2KuxV2KuxV&#xA;g+qy/wCBtXk1kA/4R1WYHWYxWmn3cpAF6o7QTMaXH8rUk6GQ4qzgEEVG4PQ4q7FXYq7FXYq7FXYq&#xA;7FXYq7FXYq7FXYq7FXYqwzyxaJrnmvU/OU1Hht/U0XQB1C29vKReTj/KnukK17pGhH2jirM8Vdir&#xA;sVdirsVdirsVWtJGjIrMFaQ8YwSAWahag8TRScVXYqwHSifJHmttEmPDyp5inaXQZTslnqMpLz2B&#xA;7Klw3KWD/K5p/IMVZ9irsVdirsVdiqnc21vdW8ttcxLNbzo0c0MgDI6OOLKynYgg0IxVivlSSfy/&#xA;qH+Db6V5YEjaby3eSks01mhHK2dzUtLacgu+7x8W3IeirLsVdirsVdirsVdirsVdirsVdirsVdir&#xA;sVY3+YmvXmieUb6608ctXuOFjpCdeV9eSLb223cCWQM3sDiqaeXdEtNC0HT9FtP95tOt47aNj1YR&#xA;qF5N/lNSp98VTDFXYq7FXYq7FXYqg9Y1jS9G0u51XVbmOz06zjMtzcymiIg7n9QA3J2GKsN8r2Ws&#xA;ebNetvO2tJLY6VaK58q6FIOEiLMhja/u1/3/ACxsVjjO0aN/MTRVn2Kpf5g0HTdf0e60jUozJaXS&#xA;8W4ni6MpDJJGw3WSN1Dow6MAcVSHyL5nvbma88r683HzRoXFblyOIvLViRBfxDpxlA/eAfYk5L4V&#xA;VZdirsVdirsVWTTwQIHmkWJCyIGchQXkYIi1PdmYKB3O2KpV5r8v/pvS/Rhm+qanayLdaVfgVNvd&#xA;R19OSgIqpqUkWvxIzL0OKteUvMQ17SBcyw/VdQtpHtNVsa8jb3kB4yxV7rX4kb9pCrdDiqc4q7FX&#xA;Yq7FXYq7FXYq7FXYq7FXYq7FWF6ysevfmLo+lq6yWfliN9Y1JAa0vJ1a3sI3A7hGnlofBD3xVmmK&#xA;uxV2KuxV2KuxVDanqen6Xp9xqOo3EdpY2kbS3NzKwVERRUsxOKsC0zRdQ8+6vb+ZPMcMlv5WspFm&#xA;8teXZ1KNM6/Z1C/jP7XeGJvsD4mHLoq9GxV2KuxVhX5nabfQafF5w0SH1PMPlkPcwxqKtdWRobyy&#xA;bxEsa8k8JFUjFWVaRqtjq+lWeq2Enq2N/BHc2so/ailUOh+44qi8VdirsVYf+bpaP8vNVuwA36ON&#xA;tqLVAIC2F1FdMdyOghrirMMVYZrjR+WPOFnr4+HS/MMkOlayorxS7J4WF0ew5Mfqznvyj7JirM8V&#xA;dirsVdirsVdirsVdirsVdirsVYr50813thJbaD5fiS8826qCbG3feK2gVgst9dU3WCHl83aiLudl&#xA;Ud5Q8pWPlrSzawu11fXDm41TVJgPrF5dPvJPMR3PRV6KtFGwGKp5irsVdirsVdirTukaNJIwREBZ&#xA;3Y0AA3JJOKvO7G1k/MbVYNavlZfI2mzLNoNiQV/SVxETxv5wdzbo29unR/7xtuIxV6LirsVdirsV&#xA;dirBfJpi8q+YbryI4EWnzCXVPKzdFNs8nK6s1r+1azSclH++3X+U4qzrFXYq7FUv8x6SmseXtU0i&#xA;Snp6jaT2j13FJ4mjNf8AgsVQH5f6q2reRfL2pPUS3enWssqkUKyNCvNSOxVqjFU5u7O0vLdra7hS&#xA;4gehaKRQykqQymh7hgCPA4qrYq7FXYq7FXYq7FXYq7FXYq7FXYqxzyd5Vn0gXmparOt/5k1aT1dT&#xA;vlBChVJ9G1gB3WCBDxQdzyc/ExxVkeKuxV2KuxV2KuxVgvmp382+YT5HtmI0i1jjufN06kjlFJvB&#xA;pysOhuKc5fCIU/3YMVZxHHHFGscahI0AVEUAKqgUAAHQDFV2KuxV2KuxV2KsW/MPy9f6po8N/owU&#xA;eZNCmGo6IzHiHmjUq9u7f77uYmaJv9avbFU18r+Y9P8AMmgWWt6eW+rXsfMI44yRuCVkikX9l43U&#xA;o47EHFU0xV2KuxVhf5Q1i8mnT2FH0rUtV08gCgC22ozpHT29MLirNMVdirsVdirsVdirsVdirsVd&#xA;irsVdirsVdirsVdirsVdiqWeZ9fs/Lvl3UdcvN7bTreS4dAaM/BSQi/5TtRV9ziqV/l15fvNH8to&#xA;+qUbXtVkfU9ckHe9uqNIg/yYV4xJ/koMVZPirsVdirsVdirsVdirBYBb+TPOk0UjiHy75unElrX+&#xA;7t9Zb+9jr+yL1RzXt6it3cDFWdYq7FXYqwv8tGHqebogAqReY74KB/lpDKxPzaQ4qzTFXYq7FXYq&#xA;7FXYq7FXYq7FXYq7FXYq7FXYq7FXYqxuPXNXsvODaPq6RHTNTUyeX7+JSpMsacprOepYeqFUyxsK&#xA;ckDbVQ1VZJirC/zAX9Kax5W8rdYdQv8A9I6ih3DWekhbihHcNdtbKfY4qzTFXYq7FXYq7FXYq7FX&#xA;YqlnmXy7pnmPQrzRdSQvZ3icHKni6MCGSSNv2XjcB0bswBxVJPIfmHUJvrXljzBID5p0IIl3JTiL&#xA;y2baC/iH8swHxgfYkDL4VVZdirsVYp+XkKC2167QALe67qT1FDUwTm0bof5rYjFWV4q7FXYq7FXY&#xA;q7FXYq7FXYq7FXYq7FXYq7FXYq7FUu8w6LHrGlS2TSGCaqy2l0oq8FxEweGZfdHUGnQ9DscVW+Wt&#xA;Wl1XRoLueIQXg5wX1upqsd1A5hnRSeqrKjcT3FDiqR6eEvvzT1e6rVdG0q0sYvaW9mluLgfSkNvi&#xA;rL8VdirsVdirsVdirsVdirsVYZ+YvlvU7iOz80eXEB82eXi0tnHXiL22b/enT5T/ACzqPgr9mQK2&#xA;2+Ksi8u6/p3mDQ7LWtOcvZX0Qli5CjLXZkdf2XRgVZexBGKo+WWOKJ5ZGCxxqWdj0CgVJOKpN5Js&#xA;57Xyrpy3Ksl3cRm8vEb7S3F27XMyn5SSsMVTvFXYq7FXYq7FXYq7FXYq7FXYq7FXYq7FXYq7FXYq&#xA;7FUHp+nLZ3GoSLQLe3H1jiOgPoxxttTu0ZY/PFWOeQm+sap5y1AnkbjXHhQ1BASzs7a14ihNPjhc&#xA;/M4qy/FXYq7FXYq7FXYq7FXYq7FXYqwfSFTyv5+utEHwaR5q9XVNLX9mPUIqfX4B4CZCtwo8fVxV&#xA;mlxGZIHjARuYKkSDkhB2PJdqinbFVTFXYq7FXYq7FXYq7FXYq7FXYq7FXYq7FXYq7FXYq7FXYq7F&#xA;WFflLJJP5d1K8YUW713W5Y60rwGqXEa1p4BKYqzXFXYq7FXYq7FXYq7FXYq7FXYqwv8ANaBY9B0/&#xA;W12n8v6rp+oxtXifTFwsFyK/5VtPKMVZpirsVdirsVdirsVdirsVdirsVdirsVdirsVdirsVdirs&#xA;VdirsVYT+UcMlv5c1K1YsVtte1yOLnseH6UuGH38q/TirNsVdirsVdirsVdirsVdirsVdirFvzUt&#xA;3n/LPzXHH/e/om9eHoP3iW7vGd/8pRirJbadbi3inUELKiuoPUBhXfFVTFXYq7FXYq7FXYq7FXYq&#xA;7FXYq7FXYq7FXYq7FXYq7FXYq7FWIflXIs/la4vFrS81jW7gMTyqj6tdemepFPTC0pirL8VdirsV&#xA;dirsVdirsVdirsVdiqVebLX635V1m048/rFjcxcK05c4WWlaila4qo+RrsXvkny/eA1FzptnMCDy&#xA;FJIEb7Xfr1xVO8VdiqA1TXtG0pA+o3kVqlVBMjU48g7At/KtInPI7UU+GKo8EEVG4PQ4q7FXYq7F&#xA;XYq7FXYq7FXYq7FXYq7FXjFt+cH5i6/561DQ/K3l+x/RulyTK0+oTT8rsW8jRn0prZJbeAyNDIsf&#xA;qmh6ivBhir1nQtWh1jRNP1eBHih1G2hu4o5AA6rPGJFVgK7gNviqOxVB6zqdvpOj32qXH+89hby3&#xA;U3b4IUMjfguKpX+X2kPo/kjQ9PlPK4hs4TdPWvKeRRJM3f7UrMcVZBirsVdirsVdirsVdirsVdir&#xA;sVaZVZSrAMrCjKdwQexxVhv5OSN/yrbRbNyTNpKS6TMG+0r6bM9mQ3/IjFWZ4q7FXkOleWdSg/PP&#xA;VNa1eWJredDHYwFJvUlR4kSN14lonREZ4mDr8BDHYNVlXp+gaY2l6LZaaz+oLKFIEf8AyIxxQdBW&#xA;igCuKo/FXYq7FXYq7FXYq7FXYq7FXYq7FXlfkT8lpfJXnLWtT0i7i/Q+slpArBxd28jmVqLXlDIF&#xA;aQcS67AUpuxZV6bYWNrp9jbWFonpWtpEkFvGCSFjjUIi1O+yjFVfFWCfnB6uoeXbXyjan/TPNt5F&#xA;phpWq2lfWvpNuy2sUg+ZGKs7AAFBsB0GKuxV2KuxV2KuxV2KuxV2KuxV2KuxVhXlBP0P5280+XmH&#xA;GC9lj8wabX9pL0eldqP9S6hLn/jIMVZrirsVdirsVdirsVdirsVdirsVdirsVdirsVdirsVdirsV&#xA;YZ5b4eY/Nt/5rPx6dpyyaP5fJ3V+MgN/dp1FJZo1hVv5YiejYqzPFXYq7FXYq7FXYq7FXYq7FXYq&#xA;7FXYqw/8xYLuxt7Pzhp0LXF/5aMs89rH9u506VQL23UVFW4ossY7vGo74qn3lzzHovmTRbXWtFuk&#xA;vNNvE5wTp9xVgd1ZTsyncHY4qmWKuxV2KuxV2KuxV2KuxV2Ksc8xay3lq4GsXEZbQJiF1eZAWa0Y&#xA;UVLtgP8AdPEcZSPsAK32Q5xVkMUsUsSSxOskUiho5FIZWVhUEEbEEYquxV2KuxV2KtO6IjO7BUUE&#xA;sxNAANySTirybX/zRk82+ZbfyF5EaSUXyynWPNMYYW1rZxEJcGzlpxlmq4RXWqKzDrvRV6jpmm2O&#xA;l6da6bYQrb2VnEkFtAn2UjjUKqj5AYqicVdirsVdirsVdirsVdirsVdirsVdiqndW8dzbS28n93M&#xA;jRvSleLih618cVePflp5V1nTPIOg+YfJZhh1KSwt49d0C4ZkstQntUEEsocBmt7omI/vQpVz/eKe&#xA;oVZx5f8AzM8v6nerpGoCXQPMnR9D1QCCckbEwNUxXKeDwswp4Yqy3FXYq7FXYqxnV/O1smqNoGhR&#xA;jVvMdB6ttEawWit0lvphVYV8E+2/7K9wqySMSCNRIwaQAc2UFVLU3IUlqD2qcVXYq7FWmVWUqwDK&#xA;woyncEHscVYHL5R80eVJXufIckNxpLMXm8oXzmO3Uk1b9H3IDm2r/vplaLw4Yqug/OPyrbzJZ+aI&#xA;7ryjqDbehrUXoQk9CY71S9o616ES/RirLtN1vRtUj9TTL+2voyKh7aaOZabb1Qt4jFVa8v7GxhM9&#xA;7cRWsC/almdY0FN92YgYqwu//NjT7mQ2Xkuwn84ajUpysKLp8bDvPqL/AOjqPZC7f5OKtReRNf8A&#xA;Mbi4/MHUI7q16p5W07nHpg7gXLtSa8Ip+3xj/wCK8VV/y9toLzUNc8yJCsUFxcnSdHRVCrHp2lM1&#xA;uqxqNgr3PryClAVK+AxVmuKuxV2KuxV2KuxV2KuxV2KuxV2KuxV2KuxVhv5Ur9X8u3+m0p+jNa1e&#xA;2Su37s6hNNF2H+6pV6YqyXVtE0bWbRrPV7G31C0b7VvdRJNHXx4uGGKsUl/LS7sZfU8q+aNU0FB0&#xA;09nTUbEDwWC9ErRj2jkUYqiRZ/mzarxXU9E1MCvF5rO6sn/yeRjuLlT8wo+WKumk/N2TaC38v2ux&#xA;+N5r2537fAIrf/iWKoJ/IfnTWJD/AIp84ztYtu+laFB+ioWFd1e49S4vCp6fDKuKss0Ly9oegaem&#xA;naLYw2FkhLejAoUFj9p2PVmbuzVJ74qmGKuxV2KuxV2KrJoYZ4mimjWWJxR43AZSPAg7Yqxa+/KT&#xA;8rr6X1brylpEkp3aT6lArMTT7RVQW6d8VbsPyn/LDT5RNZ+U9JimUgrKLKAupH8rMpK/RirKY444&#xA;o1jjUJGgoqKAAAOwAxVKvOGuHQfKesa0F5vp1lPcxpSpZ4o2ZEA7lmAAxVvyjog0LytpOjA1bT7S&#xA;G3kfqWkRAHcnuWarE+OKptirsVdirsVdirsVdirsVdirsVdirsVdirsVYd5FX6v5i882NNk1pLmP&#xA;p9i602zc9DX+9D9cVZjirsVdirsVdirsVdirsVdirsVdirsVdirsVdirEfzOdZNCsNLP/S31fTLJ&#xA;hWlYzeRzTgV61ghkxVl2KuxV2KuxV2KuxV2KuxV2KuxV2KuxV2KuxV2KsS8voY/zF83IKcZbfSrj&#xA;YUPJkniNT32gGKstxV2KuxV2KuxV2KuxV2KuxV2KuxV2KuxV2KuxVhvnz05fMnkG0ZiC+uyTUHQi&#xA;30i/eh/2XHFWZYq7FXYq7FXYq7FXYq7FXYq7FXYq7FXYq7FXYqxTSEX/AJWd5mkQnidL0ZJFJNPU&#xA;WbUCWA6boyD6MVZXirsVdirsVdirsVdirsVdirsVdirsVdirsVdirDPzAYQa95DuwoLR6+YS5rQL&#xA;caXfQnp4sy098VZnirsVdirsVdirsVdirsVdirsVdirsVdirsVdirEvLUiz+fvOUoNfqx02xbpsY&#xA;7Y3NKDfpeDrirLcVdirsVdirsVdirsVdirsVdirsVdirsVdirsVYT+bZNv5e07VtgNG1rSr2Qn/f&#xA;X12OCYg9qRTP/ntirNsVdirsVdirsVdirsVdirsVdirsVdirsVdirsVYR+U8rX2m69rvWPW9d1C5&#xA;t3/mgt3FhC3+yislIxVm+KuxV2KuxV2KuxV2KuxV2KuxV2KuxV2KuxV2KpJ538vjzF5P1rQ+j6jZ&#xA;T28LVpxleMiNwfFXowxVT8g+Yx5k8l6Lrh/vb60ie5X+S4C8Z0Pukqsp+WKp/irsVdirsVdirsVd&#xA;irsVdirsVdirsVdirHvzB16fQfJer6pbKXvYrcx2EYNC93ORDbIP9aaRBiqJ8neXYfLflXSdBiPN&#xA;dMtIbYyD9t40Ad9+7tVj88VTjFXYq7FXYq7FXYq7FUotfMJufM99oa2cqx2EEU0l+1BE8kxJ9JB1&#xA;PFaEn3piqb4q7FXYq7FXYq7FXYq7FWB/lyp0jzF5v8psOENnfjV9MUbD6nq4aYhR4Jdx3C4qzzFX&#xA;Yq7FXYq7FXYq7FXYq7FXYq7FXYq7FWEeb2/S/nnyt5ZUcoLV5PMOp07R2NI7NDX+e7mWQf8AGI4q&#xA;zfFXYq7FXYq7FXYq7FXYqtEcYkaQKBIwCs9ByKqSVBPgORp88VXYq7FXYq7FXYq7FXYq7FWF+Z1O&#xA;lef/ACxr6ikGoCfy/qLeAuB9Zs3b/VntzGPeXFWaYq7FXYq7FXYq7FXYq7FXYq7FXYq7FXYqwX8v&#xA;/wDct5n83+a2PKO4vV0XTW60tNI5RuVPg95LcHbwGKs6xV2KuxV2KuxV2KuxV2KuxV2KuxV2KuxV&#xA;2KuxV2KuxVjf5jaHda35K1WxsttSWIXWmMBUre2jC4tWHymiTFUf5U8wWvmPyzpevWm1vqdrFdIv&#xA;Ur6qBih91JocVTXFXYq7FXYq7FXYq7FXYq7FXYq7FUm85+YF8u+U9X1sjm2n2ks8MdKl5VQ+lGB4&#xA;vJxUfPFVLyF5dPlvybo+iOeU9laxrdSVqXuGHOeQn/LlZm+nFU+xV2KuxV2KuxV2KuxV2KuxV2Ku&#xA;xV2KuxV2KuxV2KuxV2KsB/KINp9t5l8sN8I8va5dw2sZ6raXnHULf6At3xHyxVn2KuxV2KuxV2Ku&#xA;xV2KuxV2KuxV2KsN/MJRqN75Y8t9U1PVIrq8Q97XSwb5qjuGnihjP+tirMsVdirsVdirsVdirsVd&#xA;irsVdirsVdirsVdirsVdirsVdirsVYbokH1P81PNMY+xqOnaTfg9vUVru1k/4SCLFWZYq7FXYq7F&#xA;XYq7FXYq7FXYq7FXYqw9P9N/NyUkFk0LQkCtUcVk1a7YsKfzcNMX6D74qzDFXYq7FXYq7FXYq7FX&#xA;Yq7FXYq7FXYq7FXYq7FXYq7FXYq7FWKSqE/Na2YAE3GhThj3HoXkNN/f1zirK8VdirsVdirsVdir&#xA;sVdirsVdirsVYx5b069j83+b9SuYjHFc3FnbWTN/uyC3sonLr/k+tcSL81OKsnxV2KuxV2KuxV2K&#xA;uxV2KuxV2KuxV2KuxV2KuxV2KuxV2KuxVjMlvM/5lW9zwIht9Gmj9TsWnuomp/sRB+OKsmxV2Kux&#xA;V2KuxV//2Q==</xmpGImg:image>
               </rdf:li>
            </rdf:Alt>
         </xmp:Thumbnails>
      </rdf:Description>
      <rdf:Description rdf:about=""
            xmlns:xmpMM="http://ns.adobe.com/xap/1.0/mm/"
            xmlns:stRef="http://ns.adobe.com/xap/1.0/sType/ResourceRef#"
            xmlns:stEvt="http://ns.adobe.com/xap/1.0/sType/ResourceEvent#">
         <xmpMM:RenditionClass>proof:pdf</xmpMM:RenditionClass>
         <xmpMM:OriginalDocumentID>uuid:65E6390686CF11DBA6E2D887CEACB407</xmpMM:OriginalDocumentID>
         <xmpMM:DocumentID>xmp.did:FC7F11740720681188C69098C6AB8D67</xmpMM:DocumentID>
         <xmpMM:InstanceID>xmp.iid:FC7F11740720681188C69098C6AB8D67</xmpMM:InstanceID>
         <xmpMM:DerivedFrom rdf:parseType="Resource">
            <stRef:instanceID>uuid:49298f9f-daf2-4344-a058-23a928bb46eb</stRef:instanceID>
            <stRef:documentID>xmp.did:475849C1B991E411B302A3F1D496D077</stRef:documentID>
            <stRef:originalDocumentID>uuid:65E6390686CF11DBA6E2D887CEACB407</stRef:originalDocumentID>
            <stRef:renditionClass>proof:pdf</stRef:renditionClass>
         </xmpMM:DerivedFrom>
         <xmpMM:History>
            <rdf:Seq>
               <rdf:li rdf:parseType="Resource">
                  <stEvt:action>saved</stEvt:action>
                  <stEvt:instanceID>xmp.iid:FDDACBA380A7E311AD04B10BEB4FC0E2</stEvt:instanceID>
                  <stEvt:when>2014-03-09T13:47:55+02:00</stEvt:when>
                  <stEvt:softwareAgent>Adobe Illustrator CS5</stEvt:softwareAgent>
                  <stEvt:changed>/</stEvt:changed>
               </rdf:li>
               <rdf:li rdf:parseType="Resource">
                  <stEvt:action>saved</stEvt:action>
                  <stEvt:instanceID>xmp.iid:E0CF64CBA0A7E311AD04B10BEB4FC0E2</stEvt:instanceID>
                  <stEvt:when>2014-03-09T18:30:34+02:00</stEvt:when>
                  <stEvt:softwareAgent>Adobe Illustrator CS5</stEvt:softwareAgent>
                  <stEvt:changed>/</stEvt:changed>
               </rdf:li>
               <rdf:li rdf:parseType="Resource">
                  <stEvt:action>saved</stEvt:action>
                  <stEvt:instanceID>xmp.iid:475849C1B991E411B302A3F1D496D077</stEvt:instanceID>
                  <stEvt:when>2015-01-01T15:28:48+02:00</stEvt:when>
                  <stEvt:softwareAgent>Adobe Illustrator CS5</stEvt:softwareAgent>
                  <stEvt:changed>/</stEvt:changed>
               </rdf:li>
               <rdf:li rdf:parseType="Resource">
                  <stEvt:action>saved</stEvt:action>
                  <stEvt:instanceID>xmp.iid:FC7F11740720681188C69098C6AB8D67</stEvt:instanceID>
                  <stEvt:when>2015-02-12T16:00:54+02:00</stEvt:when>
                  <stEvt:softwareAgent>Adobe Illustrator CS5.1</stEvt:softwareAgent>
                  <stEvt:changed>/</stEvt:changed>
               </rdf:li>
            </rdf:Seq>
         </xmpMM:History>
      </rdf:Description>
      <rdf:Description rdf:about=""
            xmlns:illustrator="http://ns.adobe.com/illustrator/1.0/">
         <illustrator:StartupProfile>Web</illustrator:StartupProfile>
      </rdf:Description>
      <rdf:Description rdf:about=""
            xmlns:xmpTPg="http://ns.adobe.com/xap/1.0/t/pg/"
            xmlns:stDim="http://ns.adobe.com/xap/1.0/sType/Dimensions#"
            xmlns:xmpG="http://ns.adobe.com/xap/1.0/g/">
         <xmpTPg:NPages>1</xmpTPg:NPages>
         <xmpTPg:HasVisibleTransparency>False</xmpTPg:HasVisibleTransparency>
         <xmpTPg:HasVisibleOverprint>False</xmpTPg:HasVisibleOverprint>
         <xmpTPg:MaxPageSize rdf:parseType="Resource">
            <stDim:w>144.999935</stDim:w>
            <stDim:h>145.254355</stDim:h>
            <stDim:unit>Millimeters</stDim:unit>
         </xmpTPg:MaxPageSize>
         <xmpTPg:PlateNames>
            <rdf:Seq>
               <rdf:li>Cyan</rdf:li>
               <rdf:li>Magenta</rdf:li>
               <rdf:li>Yellow</rdf:li>
               <rdf:li>Black</rdf:li>
            </rdf:Seq>
         </xmpTPg:PlateNames>
         <xmpTPg:SwatchGroups>
            <rdf:Seq>
               <rdf:li rdf:parseType="Resource">
                  <xmpG:groupName>Default Swatch Group</xmpG:groupName>
                  <xmpG:groupType>0</xmpG:groupType>
               </rdf:li>
            </rdf:Seq>
         </xmpTPg:SwatchGroups>
      </rdf:Description>
      <rdf:Description rdf:about=""
            xmlns:pdf="http://ns.adobe.com/pdf/1.3/">
         <pdf:Producer>Adobe PDF library 9.90</pdf:Producer>
      </rdf:Description>
   </rdf:RDF>
</x:xmpmeta>
                                                                                                    
                                                                                                    
                                                                                                    
                                                                                                    
                                                                                                    
                                                                                                    
                                                                                                    
                                                                                                    
                                                                                                    
                                                                                                    
                                                                                                    
                                                                                                    
                                                                                                    
                                                                                                    
                                                                                                    
                                                                                                    
                                                                                                    
                                                                                                    
                                                                                                    
                                                                                                    
                           
<?xpacket end="w"?>
	</metadata>
<g>
	<path d="M29.954,0c0.679,0,1.361,0,2.042,0c4.975,4.889,8.719,11.044,13.382,15.651c4.896,7.278,10.206,14.141,15.878,20.642
		c7.384,11.291,15.797,21.461,22.229,34.023c1.3,2.544,3.27,4.936,3.403,7.94c-2.193-0.855-2.31-3.522-3.176-5.217
		C73.602,53.29,59.038,35.743,45.831,18.6C40.986,12.312,36.037,5.968,30.18,0.681C29.915,0.645,29.99,0.267,29.954,0z"/>
	<path d="M284.9,1.135c-4.933,3.837-9.019,8.524-14.063,12.248c-4.825,6.594-9.238,13.596-13.156,21.096
		c-3.802,10.11-6.979,20.842-11.341,30.395c0.233,0.762-0.705,0.354-1.135,0.454c-3.784,4.9-8.371,9.545-12.475,14.517
		c-1.24,1.502-2.042,3.86-4.083,4.309c-0.637-1.086,0.775-2.194,1.363-2.949c5.104-6.561,11.449-13.274,16.782-19.733
		c4.23-13.085,8.783-25.848,14.746-37.2c2.925-3.841,5.445-8.265,9.072-12.021c3.521-3.644,7.386-7.063,10.889-10.208
		C282.062,1.535,283.44,0.928,284.9,1.135z"/>
	<path d="M365.651,37.427c0.355,0.712,0.312,1.244,0.228,1.814c-0.244,1.663-4.311,5.542-5.899,7.258
		c-14.395,15.599-31.612,29.427-40.601,49.902c-2.552,6.171-4.74,12.195-6.577,19.279c-2.083,8.035-3.286,16.535-4.082,26.313
		c-0.97,11.899,0.585,25.205-1.135,37.654c-0.338,2.442-1.317,4.934-1.813,7.486c-0.529,2.705-0.448,5.641-1.135,8.165
		c-0.944,3.465-2.657,6.993-4.083,10.209c-1.444,3.255-3.199,6.323-4.765,9.298c-3.26,6.207-7.778,11.478-10.433,17.922
		c-2.67,6.479-4.844,14.201-6.351,22.001c-1.484,7.663-2.709,16.123-2.724,24.498c-0.016,8.441,0.897,17.284,2.271,25.178
		c1.368,7.872,4.044,14.963,6.121,22.004c2.126,7.196,4.299,14.37,6.807,21.547c2.419,6.918,4.989,14.367,6.124,22.003
		c1.704,11.484,3.33,27.072,1.135,38.789c-1.563-0.441-0.523-2.321-0.455-3.402c0.18-2.741,0.171-5.512,0.229-7.485
		c0.678-22.85-6.136-42.922-12.703-62.833c-3.166-9.598-6.693-19.257-8.619-29.487c-2.003-10.633-2.906-21.987-2.044-34.479
		c0.26-3.73,1.168-7.8,1.816-11.796c1.903-11.718,5.004-22.787,9.527-31.981c-10.743,5.327-21.009,13.785-34.707,16.332
		c-23.708,4.406-47.65-6.62-56.249-22.685c7.286,8.986,15.418,15.379,28.124,19.282c8.264,2.537,20.76,4.034,30.395,1.587
		c4.816-1.223,8.823-3.633,13.156-5.671c8.755-4.118,16.938-9.037,23.136-14.744c9.929-14.574,15.466-30.647,16.786-51.943
		c0.467-7.522-0.907-12.148-0.453-19.281c1.645-25.868,6.525-49.856,18.375-66.687c3.053-4.338,5.989-8.364,9.299-12.249
		c6.501-7.634,13.689-14.65,20.867-22.001c1.715-1.758,3.557-3.524,5.216-5.445C362.261,41.664,364.199,39.712,365.651,37.427z"/>
	<path d="M60.122,63.058c0.192-0.042,0.213,0.088,0.226,0.227c0.151,0,0.301,0,0.453,0c1.467,18.446,7.425,37.734,5.444,56.706
		c-0.786,7.533-2.105,16.044-4.537,21.776c3.353-13.613,4.641-28.447,2.495-43.323c-0.558-3.88-0.838-7.678-1.36-11.341
		c-1.104-7.757-3.208-15.973-3.176-23.817C59.933,63.322,60.072,63.235,60.122,63.058z"/>
	<path d="M282.405,106.609c3.089,1.006,4.357,4.152,6.578,7.713c3.367,5.4,8.666,13.162,7.484,21.321
		c0.035-1.808-0.013-3.603-0.452-5.216c-2.526-9.224-8.457-17.485-13.837-23.362C282.141,106.798,282.228,106.66,282.405,106.609z"
		/>
	<path d="M97.321,190.536c-0.065,0.615,0.32,1.681-0.679,1.361c0.396-0.462-0.169-0.445,0.227-0.908
		c-0.386-0.082-0.428,0.177-0.453,0.454C95.717,191.019,96.677,190.364,97.321,190.536z"/>
	<path d="M96.641,192.124c0.406-0.028,0.478,0.277,0.908,0.227c-0.062,0.467-0.845,0.213-0.908,0.68
		C96.076,192.996,96.574,192.261,96.641,192.124z"/>
	<path d="M92.331,194.845c0.83,0.05,0.871,0.311,1.588,0C94.269,195.73,91.918,195.963,92.331,194.845z"/>
	<path d="M94.826,198.022c0.083,0.521,0.993,0.216,0.909,0.907c-0.589-0.205-0.844-0.113-1.588,0
		C94.08,198.332,95.025,198.75,94.826,198.022z"/>
	<path d="M94.147,199.155c1.07,0.08-0.505,1.396,0.908,1.135c-0.35,1.024-0.912-0.237-1.361-0.453
		C93.839,199.605,94.214,199.601,94.147,199.155z"/>
	<path d="M97.094,202.103c0.588-0.237,0.654,1.524,0.908,0.228c0.183,0.12,0.368,0.236,0.679,0.229
		c-0.009,0.97-1.361,0.603-2.267,0.679c-0.01-0.581,0.169-0.276,0.452-0.227C97.175,202.94,97.057,202.443,97.094,202.103z"/>
	<path d="M193.946,217.528c0.78,0.807,1.177,2,1.588,3.176C194.586,220.061,194.408,218.651,193.946,217.528z"/>
	<path d="M171.946,327.085c-0.646,0.94-1.51,1.665-1.585,3.177c-0.76-0.882-0.159-1.852,0.452-2.723
		c-1.662-0.089-1.84,4.666,0,5.216C168.432,332.977,167.7,325.346,171.946,327.085z"/>
	<path d="M172.627,329.808c-0.151,0.321-1.387,0.699-0.682,1.135C170.991,331.75,171.308,329.322,172.627,329.808z"/>
	<path d="M152.667,234.766c-2.371,4.824-10.974,9.748-17.011,12.25c-8.399,3.477-20.085,3.646-30.396,2.042
		c-2.876-0.449-5.894-0.753-8.619-1.362c-3.063-0.687-6.169-2.336-9.3-3.4c-3.206-1.092-6.469-2.222-9.073-3.631
		c-5.771-3.125-10.261-7.415-14.746-10.662c1.972,18.974,4.908,36.606,4.991,54.667c0.064,13.894-1.407,28.678-5.217,40.148
		c-4.544,13.02-8.767,26.444-12.929,40.149c-3.063,10.088-6.236,20.17-7.711,32.209c-0.335,2.719-0.593,5.04-1.135,7.939
		c-0.099,0.524,0.62,2.53-0.908,2.269c-1.159-0.679-0.366-2.49-0.227-3.401c0.675-4.452,1.204-9.515,2.042-14.065
		c1.062-5.777,2.581-11.422,4.082-16.782c3.014-10.773,6.112-21.636,9.754-31.985c3.766-10.693,7.231-21.26,9.301-32.89
		c4.757-26.738-1.426-54.876-3.629-79.616c-4.45-7.675-8.273-15.459-10.434-24.725c-3.104-13.305-2.126-28.18-4.31-41.737
		c-0.745-4.627-2.429-9.157-4.309-13.154c-5.401-11.485-13.647-21.498-20.642-31.984c-7.408-10.629-13.301-22.052-19.732-33.57
		c-1.06-1.895-2.157-3.75-3.177-5.672c-2.161-4.074-3.693-8.329-6.351-12.021c-1.042-1.449-1.899-2.706-3.176-4.083
		c-1.428-1.543-2.432-3.896-3.856-5.898c-2.92-4.103-6.454-8.226-9.299-12.702c-3.792-5.962-7.881-11.738-12.476-16.785
		c-1.007-1.713-3.563-1.881-3.857-4.311c1.904-0.423,3.494,2.011,4.765,3.177c7.04,6.462,11.132,15.887,17.238,23.589
		c2.445,3.083,4.459,6.471,6.805,9.528c1.626,2.116,3.397,3.932,4.765,6.35c1.348,2.388,3.14,4.444,4.31,6.806
		c1.703,3.438,2.979,7.075,4.764,10.434c0.871,1.64,2.013,3.179,2.949,4.763c2.381,4.032,4.288,8.189,6.805,12.25
		c2.151,3.469,4.569,7.945,6.579,12.021c3.134,3.106,5.214,7.013,7.713,10.661c2.437,3.557,5.305,6.846,7.711,10.435
		c4.892,7.297,8.93,15.041,12.475,23.362c3.957,16.305,1.88,36.967,7.258,53.76c1.672,5.216,3.679,10.886,6.352,14.968
		c1.115,1.709,3.08,3.391,4.536,4.992c4.556,5.008,10.262,8.475,16.785,11.794c8.393,3.647,19.117,6.858,29.943,7.712
		C128.68,249.914,143.069,243.578,152.667,234.766z"/>
	<path d="M61.256,145.624c0.402-0.42-0.067,1.784-0.679,1.814C60.772,146.806,61.119,146.318,61.256,145.624z"/>
	<path d="M263.353,185.092c0.499-0.18-0.044-1.405,0.906-1.135c-1.548,1.087,1.911,2.486,2.044,1.813
		c0.329,0.577,0.369,1.446,1.359,1.362c0.689,1.452,0.983,4.091,0.453,6.351c-0.334,1.421-1.554,4.309-2.494,2.949
		c1.213,0.741,0.995-1.658,1.815-2.042c0.596-3.979,0.254-7.146-3.403-8.394c-0.739-0.058-0.655,0.707-1.136,0.909
		c-0.847,0.242-0.645-0.564-1.359-0.456c-0.265,1.035-1.11,0.088-1.135,1.361c-0.438-0.242-1.203-0.156-0.908-1.134
		c-0.323,0.293-0.742,1.271,0,1.36c-0.354,0.007-0.941,0.179-1.135,0.908c-0.927,0.106,0.009-0.57,0-0.908
		c-0.884,0.159-1.856,2.44-1.131,2.723c-0.072,0.309-0.569,0.188-0.908,0.227c0.188,0.263,0.299,0.609,0.225,1.135
		c1.709-0.335,3.609-1.564,3.178-3.857c0.632,0.766,1.306,0.773,2.495,0.228c0.265,0.567,0.792,0.872,0.679,1.814
		c-0.676-0.004-0.771-0.59-1.359-0.681c-1.749,0.479-1.945,2.41-0.908,3.629c0.992,0.159,1.277-0.387,2.268-0.228
		c-0.809,1.034-2.022,0.493-2.722,1.362c-0.01-1.201-0.786-1.633-1.359-2.269c-0.111,0.714,0.696,0.514,0.453,1.361
		c-0.433-0.099-0.571-0.489-1.135-0.455c-0.077,0.457,0.047,0.711,0.453,0.683c-0.278,0.69-0.864-0.332-1.135,0.227
		c-0.028,0.405,0.277,0.478,0.228,0.906c0.684-0.147,0.938-0.725,1.589-0.906c-0.234,0.297-0.223,0.836-0.453,1.134
		c-0.972,0.179-0.925-0.032-1.817,0.227c0.734,1.838,2.221,2.923,4.312,3.402c2.178,0.012,1.202,0.102,0,0.454
		c-2.532-0.718-4.819-1.683-5.445-4.311c-0.287,0.052-0.295,0.678,0,0.68c-0.484,0.617-0.409-1.237-1.132-1.133
		c0.064-0.525,0.604-0.522,0.907-0.227c0-0.303,0-0.606,0-0.908c0.163-0.616-1.069,0.162-0.907-0.454
		c0.671-0.337,1.201-0.774,1.132-2.041c-0.221-0.308-0.762-0.294-0.906-0.682c0.224-0.694,0.606,0.262,0.906,0.229
		c0.917-0.414,0.169-1.614,0.909-1.814c-0.097-0.509-1.205-0.005-1.363-0.454c0.692-0.214,0.856-0.959,0.909-1.813
		c0.076,0.273,0.841,1.336,0.907,0.226c0.635,0.223-0.331,0.606,0.226,0.909c0.416-0.561,0.565-0.818,1.135-0.227
		c0.145-0.826-0.47-0.892-1.135-0.908c0.016-0.665,0.864-0.497,0.682-1.36c0.598,0.996,0.553-0.529,1.588,0
		c-0.053,0.326-0.678,0.078-0.682,0.453c1.126,0.441,2.045-1.281,3.176-1.589C262.15,184.631,262.8,184.811,263.353,185.092z"/>
	<path d="M259.948,197.114c1.303-0.099,2.562-0.357,2.724,1.135c-0.307-0.223-0.453-0.605-0.681-0.907
		c-1.474-0.248-2.419,1.27-3.402-0.454c0.367-0.064,0.39,0.215,0.682,0.227c-0.181-0.851-0.794-0.014-1.135-0.453
		c0.036-0.263-0.05-0.403-0.228-0.453c0.669-0.958,1.455-0.587,2.269-1.135c0,0.227,0,0.453,0,0.682
		C259.18,195.183,259.618,196.604,259.948,197.114z"/>
	<path d="M96.187,190.082c3.113-2.185,7.595,3.031,6.125,8.847C101.968,194.979,101.424,189.467,96.187,190.082z"/>
	<path d="M93.238,192.35c-1.077,0.894-2.847,5.047-0.679,5.672c-0.282,1.028-0.659-0.392-1.132,0.227
		c0.943,1.828,1.3,2.908,2.268,4.536c1.346-0.429,1.029,0.013,2.269-0.226c-1.917,2.97-5.292-2.561-5.218-5.672
		c0.074-3.03,2.045-5.812,3.629-6.352c-0.549,0.281-0.456,1.207-1.361,1.136c-0.009,0.388,0.169,0.587,0.455,0.68
		c0.976,0.107,0.289-0.611,0.68-0.68c0.728-0.2,0.47,0.588,0.908,0.68c-0.495-0.147-0.79-0.043-0.908,1.136
		C93.418,193.533,93.594,192.674,93.238,192.35z"/>
	<path d="M96.641,193.257c-0.829,0.646-0.684,1.271-0.226,2.042c-0.408,0.028-0.478-0.276-0.909-0.227
		c0.652-1.03-0.253-1.249-1.134-1.36c0.18-0.5,1.067-0.295,1.134-0.907c0.661,0.197,0.256,0.339,0.229,0.907
		C96.184,193.708,96.023,193.092,96.641,193.257z"/>
	<path d="M93.011,193.938c-0.386-0.379,1.841,0.173,2.269,0.453c-1.648,1.695,0.679,3.154,2.042,3.856
		c-1.638,0.05-2.695-0.479-2.948-1.814c-0.397,0.129-1.332-0.274-1.361,0.226c0.524-0.157,0.711,0.606,1.588,0.681
		c0.071,0.527-0.038,0.871-0.228,1.135c-1.129-0.193-0.563-0.752-1.814-0.906c0.036-0.266,0.414-0.191,0.68-0.227
		c0.039-0.491-0.804-0.104-1.134-0.228c-0.163-0.693,0.232-0.826,0.226-1.36c0.464,0.539,0.898-0.313,1.361,0.227
		c0.489-0.193,0.366-0.995,0.68-1.361C94.062,193.78,93.438,194.66,93.011,193.938z"/>
	<path d="M261.537,196.433c0.194-0.343,0.339,0.063,0.906-0.227c0.229,0.301,0.215,0.844,0.682,0.907
		C262.618,197.75,262.293,196.295,261.537,196.433z"/>
</g>
</svg>
