<?xml version="1.0" encoding="utf-8"?>
<!-- Generator: Adobe Illustrator 15.0.2, SVG Export Plug-In . SVG Version: 6.00 Build 0)  -->
<!DOCTYPE svg PUBLIC "-//W3C//DTD SVG 1.1//EN" "http://www.w3.org/Graphics/SVG/1.1/DTD/svg11.dtd">
<svg version="1.1" id="Layer_1" xmlns="http://www.w3.org/2000/svg" xmlns:xlink="http://www.w3.org/1999/xlink" x="0px" y="0px"
	 width="411.023px" height="338.433px" viewBox="-42.019 0 411.023 338.433" enable-background="new -42.019 0 411.023 338.433"
	 xml:space="preserve">
<metadata><?xpacket begin="﻿" id="W5M0MpCehiHzreSzNTczkc9d"?>
<x:xmpmeta xmlns:x="adobe:ns:meta/" x:xmptk="Adobe XMP Core 5.0-c060 61.134777, 2010/02/12-17:32:00        ">
   <rdf:RDF xmlns:rdf="http://www.w3.org/1999/02/22-rdf-syntax-ns#">
      <rdf:Description rdf:about=""
            xmlns:dc="http://purl.org/dc/elements/1.1/">
         <dc:format>image/svg+xml</dc:format>
         <dc:title>
            <rdf:Alt>
               <rdf:li xml:lang="x-default">1F-4</rdf:li>
            </rdf:Alt>
         </dc:title>
      </rdf:Description>
      <rdf:Description rdf:about=""
            xmlns:xmp="http://ns.adobe.com/xap/1.0/"
            xmlns:xmpGImg="http://ns.adobe.com/xap/1.0/g/img/">
         <xmp:CreatorTool>Adobe Illustrator CS5.1</xmp:CreatorTool>
         <xmp:CreateDate>2015-02-12T16:01:12+02:00</xmp:CreateDate>
         <xmp:ModifyDate>2015-02-12T16:01:12+02:00</xmp:ModifyDate>
         <xmp:MetadataDate>2015-02-12T16:01:12+02:00</xmp:MetadataDate>
         <xmp:Thumbnails>
            <rdf:Alt>
               <rdf:li rdf:parseType="Resource">
                  <xmpGImg:width>256</xmpGImg:width>
                  <xmpGImg:height>212</xmpGImg:height>
                  <xmpGImg:format>JPEG</xmpGImg:format>
                  <xmpGImg:image>/9j/4AAQSkZJRgABAgEB1QHVAAD/7QAsUGhvdG9zaG9wIDMuMAA4QklNA+0AAAAAABAB1QAAAAEA&#xA;AQHVAAAAAQAB/+4ADkFkb2JlAGTAAAAAAf/bAIQABgQEBAUEBgUFBgkGBQYJCwgGBggLDAoKCwoK&#xA;DBAMDAwMDAwQDA4PEA8ODBMTFBQTExwbGxscHx8fHx8fHx8fHwEHBwcNDA0YEBAYGhURFRofHx8f&#xA;Hx8fHx8fHx8fHx8fHx8fHx8fHx8fHx8fHx8fHx8fHx8fHx8fHx8fHx8fHx8f/8AAEQgA1AEAAwER&#xA;AAIRAQMRAf/EAaIAAAAHAQEBAQEAAAAAAAAAAAQFAwIGAQAHCAkKCwEAAgIDAQEBAQEAAAAAAAAA&#xA;AQACAwQFBgcICQoLEAACAQMDAgQCBgcDBAIGAnMBAgMRBAAFIRIxQVEGE2EicYEUMpGhBxWxQiPB&#xA;UtHhMxZi8CRygvElQzRTkqKyY3PCNUQnk6OzNhdUZHTD0uIIJoMJChgZhJRFRqS0VtNVKBry4/PE&#xA;1OT0ZXWFlaW1xdXl9WZ2hpamtsbW5vY3R1dnd4eXp7fH1+f3OEhYaHiImKi4yNjo+Ck5SVlpeYmZ&#xA;qbnJ2en5KjpKWmp6ipqqusra6voRAAICAQIDBQUEBQYECAMDbQEAAhEDBCESMUEFURNhIgZxgZEy&#xA;obHwFMHR4SNCFVJicvEzJDRDghaSUyWiY7LCB3PSNeJEgxdUkwgJChgZJjZFGidkdFU38qOzwygp&#xA;0+PzhJSktMTU5PRldYWVpbXF1eX1RlZmdoaWprbG1ub2R1dnd4eXp7fH1+f3OEhYaHiImKi4yNjo&#xA;+DlJWWl5iZmpucnZ6fkqOkpaanqKmqq6ytrq+v/aAAwDAQACEQMRAD8A9U4q7FXYq7FUh13zLNBe&#xA;Lo2iwLqHmCVQ/oMxWG2iatLi7dQxSOqkKo+JzsopyZVVfy95f/RSXE9zctf6tfssmo6g6hDIyLxV&#xA;I0BIihjG0cYJpUklmLMVU3xV2KoDXNastF0yXUbzmYYmjQJEhkkeSaRYoo0Rd2aSR1VR4nFUul87&#xA;aZaTSRara3ullHZRLcW0j25UEgP9ZtxPbqGG4DSBqdQMVRWnebvKmpPw07WrC9cGnG3uYZTWtKUR&#xA;m74qm2KuxV2Kse84XnoNoUXri3F3q1tCTy4l6K8ojG4ryMVKeGKshxV2KuxV2KuxV2KuxV2KuxV2&#xA;KuxV2KuxV2KuxV2KuxV2KuxVRvLy0srWW7vJ47a1gUvNPKwSNFG5ZmagAGKsaOqeYvMg9PQ1k0bR&#xA;2+1rdxGPrUy/8uVtKDxB7Szr8o2BDYqnei6Dpei2rW9hFwEjmW4mdmkmmlbZpZpXLPI5p9pifDoM&#xA;VTDFXYqkPni7ntvLkvol1NzcWdnI8TmORYry7itpWjkUqUdY5WKvX4Tv2xVh+reVvKGreSf0no8v&#xA;6G06+jRb+BgzRPWVVdJrceoPrsMw+BuJcTLxbkOSlVb5e1ix8s6t+h/Muo30d5pcIIl+sTXOmmBl&#xA;IWeTlzmhXfrdMUVvhWRiMVZ/LZ+XNfs0mlgs9Ws5V/dyMsVzEymo+EkOpG5xVLf+VfeVod9Ntn0Z&#xA;h9k6VNLYqCBQVit2SJ/k6Ee2KqE2oeYPLAEurT/pjy+lfrGqlEivLRQCTLcpEFhmiH7UkaIUG5Rh&#xA;yZVWR2l9Y3ic7S4iuEoG5ROrijbqaqT17YqlXnLQ9D1bQ5f0yHEGn8r6G5iL+rbzQxvxuIuAZvUi&#xA;DFk+E79q0xVIoPMv5m266fDJ5Vg1iKWGJrjVrHUoI0JbZm9CdIiDT4+KMy70DHFU5/TXm1z+78uc&#xA;AOvr3sKV/wBX0xN+NMVQOtah+ZNtcqum6da3sMtWUqFAiFdllaW6gJandIyPliqXSa7+b8SmQ+Xb&#xA;a4C7mGJ4VdvYF7viMVVrHznr17fJYqdPs9SkUU0jUVu7O55BQZDE0i8bhQa/FEpUeOKptJqfnm0H&#xA;OfQ7S+hU/GLC9IuCP8iG5hgiNPecYqqWXnzypcy/VpL+Owvxs2nX/wDod0DWn9zPwdhUbMoKnsTi&#xA;qfggio3B6HFXYq7FXYq7FXYq7FXYq7FXYq7FUFrOsWOj6bNqN6xWCED4VBZ3d2CRxxoN3kkdgiKN&#xA;2YgDFUj03y/e6vcw615qjBnjYS6bofIPb2VN0eSlVnuu5c1VDtH3d1WU4q7FXYq7FULqmnWep6bd&#xA;afepztLuJ4Z1qVPBwQaMNwfAjpirAvI975VvdbudOurqG88w2ctWube4c2eomGnG8ECP9Va6Tion&#xA;HDnG4rspQ4qzXW/Lmka1FGt/DylgPO1u4maG4gc7c4Z4yskbePFt+h2xV55d6Xq2j6xfTaHKmoal&#xA;Zem93e2Kolz+8BZItXsYAkV0HVf72FVnUU4oerKs68pebdN8y6Yl1bhre9RVGo6XOCl1ZzkVaGeJ&#xA;growPSqjkNxtiqdkAggioOxB6UxV57oXlDyfa6jP5W1LRbIy2vO50C6aCMSyWLsDxilCh1ktHb0j&#xA;xbkE9NifixVMrqO98ntFdLez3vld5EhvoL2Qzy2Syngk8dxITK8Kuw9VZWbip5hgFKlVE2/lbXNJ&#xA;Jg8u6vFa6V/unTL60N3Fbj+S2aKa0kSPwR2cL0XitAFUqfVPO+naxd22savpsS+is+mXD2j21hMg&#xA;ZVmjkZp5ZIpkY/78IYMGCmjAKo3TPOF5p7NB5wWGx+sTM2n6rDJ6mmyxSN+6i+slYvTlFePGVV5f&#xA;sF98VZJq2opp2k3upMvqJZ28twUB3YRIXoDQ9aYqpT2Gma7pMUeq2MF3bXCJK9rOqzxhiKj7YoeN&#xA;djTFUtXyTawLTTtU1Wwp9kJey3Kr/qpem6QAdlC0FOlMVUrjRPN6xmD9JWOtWR6warZgTNXrymtm&#xA;SHpttbYqlc/k7XdNsIrnyzHDpOqhyJ7CzuXTTTH2paywyRV2FeCxN1+PFUxh846hp1nC3mnSLuxZ&#xA;UUXepQRpPZepT4mC281zPFHX9qVQq9274qya2ura7t4rm1lSe2mUPDPEwdHRhUMrLUEEdxiqpirs&#xA;VdirsVdirsVdirsVYusba550keX4tL8s8UhjPR9TniDtIR3+r20qhO3KRu6iirKMVdirsVdirDrb&#xA;VL/zDr+u2Wna8tgNBuIrVba1S2nLl7aKcyXHqCVuPOR4wq8DVDvirF7vy5568xxLqlrf6fr1o1zd&#xA;W7aXrsc0NkI7a4e35xQ2TGGdZfS5qbhJCARRsVZFeQ63d6RHpuv+UVuRCFaBtDvICsMif3clu902&#xA;mywsvYpuvQEjfFUNo/nbXtIu/wBG+aNJ1M2IVmtdea1EpVUp8F8LE3ESNv8A3qHg25KpTdVOvJ3l&#xA;/wAr2rXOtaHcrfw6mS0V0konjCE8pFidSwPqTcpJGryZjuaKoCqt5r0K0uYP0vEZrXWdOjL2eoWc&#xA;RluQqnkYTEu88UlKNEdj1FGAYKoLSNT/ADM1HTbae70bTtFuJY1aWKe7lupEYjcNFFFGi/ITNiqL&#xA;Ol+eZipn1rT4gOjW2myCVSRQ8Xmu5l/5J/0xVC6nD5ssLOY3Yh80aO8bR31gLcQ3phYEOYwHaG4+&#xA;Hb0uCct6NWi4qr6R5q02S+sLG2KNo+o2qvoOoK7OszQgia3fn8SyxqoYKx5MA/dGxVIhc6XcfmJr&#xA;+lXUKzeaTCkvl+a7tmnggsGtEHJT8ACG8SX1ArBm+EE/Zoqkui/lvreq2CajFfW+j2moRIy2cdpP&#xA;bzSIR/f3SWdzp9u0s6nm8Utu6oTx+KhqqmUfk658v+vCwvY7BFMlrrGhFkeMAgencaPH6lrM1OjQ&#xA;2zBt/wB2n7SqVat+dN7oU1tojRw63rGoVXSrvi2mhiCBS7t7sxem/wAW3B+LkGvpAbKp1oHmf80Z&#xA;RbnUNBeWFCxumt4oQ8oJYgJ9au7D0qbAfu5dh9pq8sVZno+sz6g08dxpd5pc0HGsd4sRDK/KjJJb&#xA;yTxN9ncB6jaoFRiqZYq7FWL3fl3UNHupNU8qhAJWMmoaA7cLa5LbtJAelvcHryA4Oftip5qqmmhe&#xA;ZNL1qOX6qzRXdsQl7p9wvpXVu5/ZmiO61/ZYVVhupI3xVNMVdirsVdirsVdirsVY7+X68/K9vfnd&#xA;9Xkn1RmNakX0zXEY33osciqK9gMVZFirsVdiqTap5V0/VbppdRnu7i2ICjTxcSRWu3XnFCY/VDdx&#xA;LyHtiqnfeStBnitBaRHSbjTkMWnXWm0tpIIyQTGgUem0ZIqY3RkP8uKoO3tPOuhwx29oLHWtMt0E&#xA;cMHEaddJGgoqr6Ye1kPgAkK4qrxee9EjlEGrpPoFySFWPVIxBGzHYLHdKXtJGP8AKkrHFWRAgio3&#xA;B6HFUj1jUNN8uws9nYpJqer3HG2srZUjkvLxk+07Afsxx8pJGrxRa9gMVTez+t/VIPrgjF56a/WR&#xA;CWMYk4jnwLANx5dK70xVVxV2KuxVKdQ8qaDfafdWMtqscV3N9bkeD91It1sRcxutCkqsoYOu9d8V&#xA;Ync295JfxaZrFxJaebbWGUeXPMlqEi+vxAc2idGBhMnwAzW7qVNPUjpT92qjNF84+ZY9F07VNb0x&#xA;b7Tr+2huf0po6yOYxNGHrNYuXnVRy6xNKfEKMVVNQ1OHzRqNlpdhqQi8vTwrc3V9ay8HvTI0ojs7&#xA;eZCCNraV5+B5hVA2qTirLXs7WS1NpJCklqV9MwOoZCgFOJU1BGKsY1D8s/LstnLb6Q935baQbSaJ&#xA;cy2Kg1Br6ETLASadTHX3GKoK6/JnyRdyRXc0NwurxRqg1SK7uhNVRTkPUllXrv8AEDiqa+X/ACbP&#xA;oi28cXmPWL2GEkyxX80N161a09SSSEyqBXYRuvTFWSYq7FUp1vyxpWrvFcTq9vqNsCLPU7VjDdQ1&#xA;IJCSr1QkDlG1Ub9pSMVS1Lrzvo3wXtsvmSxX7N5ZenbX4H/FttIyQSU7tHIpP7MeKphpPm7y/qly&#xA;bO2uvT1FRyfTblHtrxVH7Rt5xHLx/wArjxPY4qnGKuxV2KuxV2Ksf/Lv/wAl/wCWdqf7ibHbw/0Z&#xA;MVZBirsVdirsVdirsVWyxRSxtFKiyRuCrowBUg9QQeuKsVm8t3/l2t55RStolWuPLLNxtpFA/wCP&#xA;IseNrJ4KKRN+0qk8wqm+j3uh69Ha67aIJJokmt45JEKTwF3T6xA6N8Ubh4VDqd6riqa4q7FXYq7F&#xA;XYqxj8xoI5PK8zzxhrO3kjmvZlqJ7eFG+K7tnH2JrX++U0OykUqcVVPy+nP+FbPTpNrvRFGlXgA4&#xA;gy2aiMSKAAAk0YWVP8lhiqD80+QYL24TWtDf9G+YrS4S+hdCUtrqaIceF3GoIPqRlojKo9RVY0JF&#xA;VKqe+Xtdt9a04XUcb288btBe2UtPVt7iPaSGShI5L2I2YUZaqQcVTLFXYq7FXYq7FXYq7FUFq2ia&#xA;PrFsLbVbKC+gB5LHPGsgVh0ZeQPFh2YbjFUnPlbWdPFfL+uTQRg7WGphtStqd+Lu8d2te378qvZc&#xA;VUL3zV5r0ayefVfK9xqJiFS2gSxXlRWlfRuTZTV78UV/mcVWaP8Amr5P1G2WeaW40irmJ11a2msQ&#xA;kymjQvLMqwiVTsU58vbcYqy5HSRFkjYOjgMjqagg7ggjFW8VY95A+DynZW3/ACwNPYU32+pXEltT&#xA;fw9Knh4YqyHFXYq7FXYq7FXYq7FXYqxbXbS60LUpPNGmRSTwShV8wabEC7TRIOK3cKDczwKKELvJ&#xA;H8O7LHRVklnd2t7aQ3lpKs9rcIssE8ZDI6OOSspHUEGuKquKuxV2KuxVbJHHLG0cih43BV0YAqyk&#xA;UIIPUHFWLeS9NttJ1PXNKtS31e0axSMSMXcrHYQwK7sd2YrCAW70xVleKsc1zQdQh1H/ABD5e4Jq&#xA;4VUv7KRuEGoQJ0jkIB4TIP7qWm32Wqp2VR2g+ZdN1qORYOcF9bUW+024Hp3Vu5/Zljqdj+y61Rhu&#xA;rEb4qmuKuxV2KuxV2KuxV2KuxV2Ksb0uKEed/MaRKPq81rp0t0lPha6b6xHIzDuxt44FPsBircvk&#xA;LQ45TPo7T6BcE8i+lSehExrUs9qQ9pIx/meEnFWR4qx/ySOGn6hCPsxatqdD4+reyzGv0ykYqyDF&#xA;XYq7FXYq7FXYq7FXYq7FWKy6Rq3ly6mvfLsH13SbiRpr7y+GVHSRzyeawZysas7VLwuyoxPIMjcu&#xA;aqc6J5g0rWoHlsJSzwt6d1bSK0VxBJSvpzwyBZI2pvRhuNxscVTHFXYq7FXYqxfWJzoHmaPXJjTR&#xA;tTih0/UpD0tp45HNrO3hHIZ2ikbsfT/Z5EKsoxV2KpXrPlnRtYaKW8hZby3BFtf28j291EGILCOe&#xA;EpIqtQcl5cW/aBxVAjR/OdoStl5giuoRuF1SyWaX2US2klkoHu0bH54q36/5gxf8eWk3fUV+tXNr&#xA;XwNPq919344q79L+c4qev5ehl3o31S/WQexHrxWu2KtHzXqkQ5XflfVYYxs8sZsrhR8kguZJmH/P&#xA;PFUbo3mnQdZkkh0+7V7qABriylV4LqIE0BltpljmjqenJBiqa4q7FXYq7FWOeSj9ai1bWTWuq6lc&#xA;PHX/AHzaEWMPH/JdLX1B/rYqyPFXYqx3yI/r6Nc3gNY7zUtRmhI6NF9clSJ1NTUPGiuPnirIsVdi&#xA;rsVdirsVdirsVdirsVdiqReY/KsWqH69Y3D6V5hhjMdlrNuqmRB1EcqN8E8PLcxvt3Xi1GCqC8i6&#xA;9r98L3TfMhtY9e01lW4gtlkjqjV4TKshbnFJx+CRTQ7ghGDIFWVYq7FXYqp3VrbXdtLa3UST21wj&#xA;RTwSKGR43HFkZTsQwNCDirGfL91caFqCeVdTlaSFgx8u6hKxYzwIKm1kdutxbr4mskY57sslFWVY&#xA;q7FXYq7FXYq7FUr1zy1pWtJEbuMpd2xL2WoQn07q3c/tQyj4l9x9lhswI2xVLdJ1+/sL+LQfMzIL&#xA;+SiaZqqr6dvqFFqQBuIrgUJaKu4+JKjkEVZNirsVQOvarHpGh6jqsg5JYW010y7mohjL028eOKqP&#xA;lbS5dJ8s6Tpkx5TWVnBBM+3xSRxqrtt3ZgScVTTFUj856ld2eiNBp78NW1ORdP0xqVK3FxVfVp3E&#xA;CcpmH8qHFUz0vTbTS9MtNNsk9OzsoY7e3j/ljiUIg+4YqicVdirsVdiqTectRudO8r6lc2bcb/0W&#xA;isD/AMvU/wC6tx9MzqMVTLT7KOxsLayiZmitYkhRnPJisahQWJ6nbfFVfFXYq7FXYq7FUl8x+X5t&#xA;Q9C+024+o67YcjYXhBZCGpzguEBHqQS8RyWtRsykMoOKqnl3X11WCWKeH6lq9kwi1PTWYO0MhFVI&#xA;YAc45B8Ub0+IeBBUKptirsVdiqA1vRNO1rTnsL9C0TFXR0YpLFKh5RyxSLRkkRhyVl3BxVJ9I1zU&#xA;NNvYtB8zODeSMU0vWKBIb9VFQrAUWK6A+1H0ehaPbkqKsnxV2KuxV2KuxV2KoXU9L07VLGWw1G3S&#xA;6s5gBJDIKg0NQR4FSAVI3B3G+KsdafW/Kh/0p7jWvLI/4+iGn1CyH/FvEc7qAD9sAyr+16lSyqsn&#xA;tLy0vbWK7s5kuLWdRJBPEwdHRhUMrLUEH2xVit/d/wCLNTGj6eeeg6fcI+t6gv8AdzS27h1sYW/b&#xA;/eKpuG+yAPT3Zm4KsvxV2KsbuqX3n+xtyOUei2El64PQT3z/AFe3dfcRQXK/JsVZJirsVdirsVdi&#xA;rHfOIE8vl/TmFY77V7fnsdvqUcuop06fHZLirIsVdirsVdirsVdirsVSDzLod5NNFrei8I/MNghW&#xA;HmeMd1ATye0nP8j9Ub/db0bcclZVMNC1qz1rS4dQtOSpJyWSGQcZYpY2KSwyr+y8bqVYeIxVH4q7&#xA;FXYqhtT0zT9UsZbDUbdLqznFJYZByU0NQfYgioI3B3GKseUeZPLI48Z/MGgJ9kg+pqdso7Gp/wBM&#xA;RR/z2/4yscVT7SdY0vV7NbzTblLm3YlSyHdXX7SOpoyOvRkYBgdiMVRmKuxV2KuxV2KuxVgXmfyd&#xA;Ja3wvtMhupdAuDI+v+XtOnNuZ5GIIuI1BTl+160SOnqg1PMjiyrKvLmo6Be6VF+gmiFhb/uFtoU9&#xA;H0DGKGF4aI0LJ0KMoI8MVTPFXYqx3y0PX17zPfHet7FZwt/xVbWkTEfRPNNirIsVdirsVdirsVY9&#xA;qw9Xzp5eh6+lBqF3Tbb0xBByr/0dUp74qyHFXYq7FXYq7FXYq7FXYqxPWQPLGst5jiqui37JH5ii&#xA;H2YXACRahTtxFI5z/Jxc/wB2aqssxV2KuxV2KuxVI9W8oafe3p1O0ll0rWaKDqVkQkkip9lLhGDR&#xA;ToK7CVWp+zxO+KoE+Y/MWiEr5k0/61Yr01vSUkljA8biz+O4h+cfqqOrMuKsh03U9N1OyjvtNuor&#xA;2zmFYrmB1kjYezKSDiqJxV2KuxV2KuxVIda8p295efpXTZ20nX1UKupwKD6ir9mO6iNEuIv8lt1/&#xA;YZTviqlYeap7a7h0rzNAum6lMwjtbpCWsbtuwglb7Eh/3zJR+vHmByxVkeKse8hDl5fN1ufr97f3&#xA;qMakmO4vZpIq18ImUYqyHFXYq7FXYq7FWP3v/Kf6N/2ytV/6idOxVkGKuxV2KuxVTurq2tLaW6up&#xA;Ut7aBGknnlYJGiKKszs1AoA3JOKobSdb0bWLZrrSL+21G2V2jae0mjnjDr9pC0ZYch3GKo3FXYqt&#xA;mhimieGZFkikUpJG4DKysKFWB2IIxVjPlaabSL6XyleOzC1Qz6DcOSzTaeCF9NmO5ktWYRt3KGNi&#xA;SzNirKMVdirsVdirsVdirFfMWg+W9PefXk1GPytqEm8+rJJHBFK3/L1FL+4n2FOTjmB9llxVAaF+&#xA;Y9xcTy2d5ptzf+ivKPWtItbibTrha0+BmWqv3KBpFA/3YcVTY+fNFtyDqsV3o0TfYudQt3htyKVq&#xA;1wOUMXykdW9sVT+3uLe5gSe3lSaCUBo5Y2DoynoVYVBGKqmKuxV2KofUNOsNSsprHULeO7srheE9&#xA;tMoeN1PZlaoOKt2Fjb2FlDZ2/P0LdQkXqySTPxHSskrO7f7JjiqS/l0OP5f+WRWv+4mxqdt/9GTf&#xA;bFWQ4q7FXYq7FXYqx+9/5T/Rv+2Vqv8A1E6dirIMVdirsVdirzPzi+p3P5maRaNbNfWEUCEaUzxr&#xA;bXEc8v7y4lSUP6hs5oYH/drySoJqH+FVl8GhyQ+bE1qCCK2W8sZIdX9Misk8ckRtSaBefBGnHI70&#xA;IxVPcVQWt6vaaPpF3ql2T9Xs4mlcLuzcRsijuzH4VHc7Yq7Qxqo0ez/S5Q6o0KNfCKnprMwq6JTq&#xA;qseIPcYqg/NWhz6nYxS2Miwazp0ou9JuHrxWdARwkpv6UyM0UgH7LGm9DiqI8v63BrWlRX0SNA5L&#xA;R3NrJT1ILiJik0ElNuUbqVNNj1FQQcVTHFXYq7FXYqkvmjWrrT7e2tNNRJta1OX6tpsUtTGrULST&#xA;yhSG9KCMF2oRXZQQWGKrNJ8m6PY3CX9wranrQHxavfcZbmp6iMkBYU/yIlVfbFU9xVxAIodweoxV&#xA;j03kLy2J5LrT4X0a9kPJ7nS5GtC7/wA0scZEMx/4yo2KrRY+erD/AHl1K11qFfsw6jF9UuD7tdWg&#xA;aL7rTFXHzhcWVRrujXunIv2ryFPr1qT3PO25zIo7tLEgxVOtO1PTdTs473TbqG9s5d47m3kWWNvk&#xA;6Eg4qicVdirH/wAvDXyB5ZP/AGqbH/qGTFWQYq7FXYq7FXYqx++I/wCVgaKK7nSdVIHegudOxVkG&#xA;KuxV2KuxVBaromj6vbrb6rZQX0KNzSO4jWQK4FA68geLCuzDfFUaAFAAFANgB0AxV2KsUunHmbzK&#xA;ljH8eh+X5lm1CTqlxqMdHgtwe62xpNJ/xZ6Yr8LjFWV4ql2g6s2qWk8zxCGSC8vLRowSdrW5khRt&#xA;wP7xEV/pxVi2v63ZeVvOsV3GGNnqluZfMqRj4LVISsNvqUv8oqfRkPdBy+zC2Ks6BDAEGoO4I6EY&#xA;q7FXYq7FWMeWQNY1e+80SVaCr6doqnotrBJSeZa97mdK16NGkZHfFWT4q7FXYq7FXYq7FUi1HyZp&#xA;FzeyajaNNpGrSkGXUtPYQyyFenrIVeGfw/fRvTtiqegEAAmpHc9T92KuxVj/AOX3w+StGh/5ZbZL&#xA;Q16j6t+4ofcenvirIMVdirsVdirsVYdruu2lh5/04zw3cq2+k3fP6pZ3N5T61cW3Et9XjlI/3kNN&#xA;t8VTvSfNnl3Vp3tbG+je9jHKWwk5Q3SDxe2lCTIP9ZcVTbFXYq7FXYq7FWK32vX2vTS6T5Wm4RIT&#xA;HqHmJQHht+LcXitiQUmueo7pGft1I4Mqn+k6TYaTp0GnWEXo2luvGNKliakszMzVZmZiWZmNWJJO&#xA;+KovFWD6c/m5db802mi2+nrarqi8Ly8mmZonl0+0lc/VY4lEo5yE/wC9CVr2xVkOg+XINLiuXmmf&#xA;UNRv2D6lqE4XnMwHFV4qAqRouyRqKAeJLEqpPZ+t5Nu49Plq/lG4cJp9yWJOnSNsttKWP+8zttC/&#xA;7BPpn4eFFWX4q7FUk86393ZeWL57F/T1CdUs7CT+S6vJFtrdj7LLMpxVM9N0+103TrXTrNPTtLKG&#xA;O3t4614xxKEQV9lGKojFXYq7FXYq7FXYq7FXYq7FWPeRappF3bsfittU1ROPZUa/mkiUbnpFImKs&#xA;hxV2KuxV2KuxVj2lUm87eYLkdIbbT7E/60X1i5P/AAt4uKplrGgaNrMCwapZxXaRnnCZFq8b9OcT&#xA;j443HZkIIxVKBo3m3SP+OLqK6pZr9jTdYZzIoA2WPUEWSanj60crH+YYqvXzZqMAI1Py5qVqy7GS&#xA;BYb2Jj4p9Wkean+vEp9sVXN5300ikFhq08naMaXfxV/2U8MMf/DYqt/Tfm68FNP8umzB6zavcwxC&#xA;h/aSO0N6zf6rlPoxVY3lLUNT/wCUm1V7+BhR9Ls0NlYsD2kVXknlBGzLJMUb+TFWRW9vb20EdvbR&#xA;JDbwqEhhjUIiIooqqooAAOgGKqmKuxVj3lE+rP5gvBuLrVpqHb/j1iisz097bFWQ4qsuLeC4gkt7&#xA;iNZreZWjmhkUMjowoyspqCCDQg4qxP65eeTZTHqEj3PlBqfV79yXl03t6dy32ntv5ZjUp0k+H4wq&#xA;y5WVlDKQysKqw3BB7jFWPeaAZtX8sWZFY5NSaedexS2s7iRPunEbfRirIsVdirsVdirsVdirsVdi&#xA;rsVdirHvLf7nXvNFqagm+hu4l3p6U9lAlRXxmhlxVkOKuxV2KuxV2Kse8pn1L7zLdD7FxqzcOv8A&#xA;x72ltat1/wAu3OKshxV2KuxV2KuxV2KuxV2KuxVj3kP4vLomrUXN7qNyKdKXF/PMAD3Hx7HFWQ4q&#xA;7FWmVWUqwDKwoyncEHscVYi9nfeTnafTYpLzyqxL3OlxAvPYVJZpbNFBaSDerQDdf911/u8VRE99&#xA;Y6j5m8s3tlPHdWc9tfSQTxMHRgVhAZWFR3xVk+KuxV2KuxV2KuxV2KuxV2KuxVjsf+j/AJhTgjbU&#xA;9JiKH30+5kD/AIX6fhirIsVdirsVdirsVY95B+Py0l1+zf3V9fRnY/u7u9mnj3HX4JFxVkOKuxV2&#xA;KuxV2KuxV2KuxV2Kse8gsB5ajtq1Njc3tkR4fVLuWAeH7MYI8RvirIcVdirsVdirENV8mNZ61F5m&#xA;8tRpHqUTSte6W7tFa3izgCRqDksNx8AIlC/H9l67Miqb6L5q0zVJ3sqSWOrwryuNJvFEVyi1pyC1&#xA;ZZI6/wC7ImZD/NiqcYq7FXYq7FXYq7FXYq7FXYqx3X/9H81eWL0dZpbvTHP+RcWzXX/E7BMVZFir&#xA;sVdirsVUryc29pPOByMMbSBeleKk0xVKfI9v9W8leX7fly9HTbOPl0rxgQV7+GKp3irsVdirsVdi&#xA;rsVdirsVdirG9FJ0/wA3a5pTbRX/AKWr2XXfmot7pF/1JIUkb3lxVkmKuxV2KuxV2KpfrOgaPrUE&#xA;cOp2q3Ahf1beSrJLDINhJDKhWSJx/MjA++KpM0HnXQmLWrjzLpY/49Z2SDUo18I5zwguPACX028Z&#xA;GOKpjonmzRNZlktraZodRgHK50y6RoLuIHarwSBX416OKq3YnFU4xV2KuxV2KuxV2KuxVj3nisem&#xA;WV4v27PVNOkDb0CSXkcEpNPCGZ8VZDirsVdirsVUb6B57K4gQgPLG6KT0qykCtMVSvyTcJceTNAu&#xA;EFEm060kUHrRoEI6fPFU6xV2KuxV2KuxV2KuxV2KuxVjXnP/AEB9L8yJ8P6IuAl63StheEQ3NT/L&#xA;G3p3Df8AGLFWS4q7FXYq7FXYq7FXYql+seX9G1iNE1G1WdoTyt5wSk0LH9uGZCssTf5SMDiqULY+&#xA;cdFH+g3S+YLBTX6pfssN6i/yxXSL6ctOirKgJ/al74qmOh+ZtP1gzQxJPaX9tx+t6feRNDcRcq0J&#xA;U/C6mho8bMh7McVTbFXYq7FXYq7FUk88Wk135N1uCAVuWsbg23ekyRlojT2cA4qmtjeQXtlb3kBr&#xA;BcxpNET1KSKGX8DiqtirsVdirsVY95APDyra2f8A1bJLnTB1+zYXElqvXfdYQR7YqyHFXYq7FXYq&#xA;7FXYq7FXYq7FUPqWn2mpaddadeJ6tpewyW9xGejRyqUdfpU4qlnkm+u7zyrpsl83PUIovqt+/St1&#xA;asbe4NO372JsVTvFXYq7FXYq7FXYq7FXYqtliSWNo3FUcUNCQfoIoQfcYqluqjzHB6EmjLbXMUQK&#xA;3FldtJG8g24tHcj1eLKK7PG3L+ZeuKppirsVdirsVdirHPy/b0/LUOmE/vNFlm0plPUJZSNDCT/r&#xA;wLG/ybFWR4q7FXYq7FWJPd3HlTVtQnvYWk8talP9bF9Cpb6lMyIky3Ea1b0XZPV9YCilm58QAxVZ&#xA;TbXVtd28VzaypPbTKHhniYOjowqGVlqCCO4xVUxV2KuxV2KuxV2KuxV2KuxVj3kz91HrNkOlpq17&#xA;QeH1p/rp/G5rv+rFWQ4q7FXYq7FXYq7FXYq7FXYq7FXYq7FXYq7FXYqxq2rpfnu7gIItfMUC3kR7&#xA;C9slS3nBNOslv6HEf8VtirJcVdirsVdirsVY1deUp7G5k1DyrcLpl3KxkudPdS2nXLHdjJCtDFI3&#xA;+/YaGu7iSlMVVLDzla/WYtO1yBtD1eZuENtcsDDO/ha3IpFNXqF2kp9pFxVkOKuxV2KuxV2KuxV2&#xA;KuxVj/luq695sRvtNqUMyj/IbTLNAf8AgomxVkGKuxV2KuxV2KuxV2KuxV2KuxV2KuxV2KuxV2Kp&#xA;D5zsLyfSkv8ATojNqujzLqFhENmkaIFZYF954HkiHhyriqbabqNlqWn22o2Mons7yJJ7aZejxyKG&#xA;Vh8wcVRGKuxV2KuxV2Koe/06w1GzlstQtoruzmHGa2nRZI3HgyMCDirHG03X/LP73RjLrGiLvLo0&#xA;8nO6hXxsp5T8YH++Zm/1XWgUqp9o+taZrNil9p04nt3JUmhV0dTR45I3CvHIh2ZGAZTsRiqNxV2K&#xA;uxV2KuxV2Ksf00en5612MdJLHTbgn/KeS8iI+6AYqyDFXYq7FXYq7FXYq7FXYq7FXYq7FXYq7FXY&#xA;q7FXYqxO0p5W8wGweq+X9dnaTT3P2bXUJSXltv8AJjuWrJF4Scl/aRcVZZirsVdirsVdirsVdirH&#xA;Na8uXcd9Jr3lxkttcKgXUEhK2t+iCix3IWvFwNkmUck78k+Aqo/QPMVnrMUwjR7a+tH9LUNOnos9&#xA;vJ2V1BI4tSqOpKuN1JGKppirsVdirsVdirH9Oq/nrXJOgSw02CneqyXkhP3TDFWQYq7FXYq7FXYq&#xA;7FXYq7FXYq7FXYq7FXYq7FXYq7FUu8xfoT9DXP6c9P8ARlF9f1K0rzHp8ePxc/U48OPxcqcd6Yqm&#xA;OKuxV2KuxV2KuxV2KuxVK5f8P/4mg5en/iH6pJ6fGvrfU/UXlz4/7r9SnHn+1XjvXFU0xV2KuxV2&#xA;KuxVCW/6N/SV36HD6/xi+uU+3xo3pcvb7VMVReKuxV2KuxV2KuxV2KuxV2KuxV2KuxV2KuxV/9k=</xmpGImg:image>
               </rdf:li>
            </rdf:Alt>
         </xmp:Thumbnails>
      </rdf:Description>
      <rdf:Description rdf:about=""
            xmlns:xmpMM="http://ns.adobe.com/xap/1.0/mm/"
            xmlns:stRef="http://ns.adobe.com/xap/1.0/sType/ResourceRef#"
            xmlns:stEvt="http://ns.adobe.com/xap/1.0/sType/ResourceEvent#">
         <xmpMM:RenditionClass>proof:pdf</xmpMM:RenditionClass>
         <xmpMM:OriginalDocumentID>uuid:65E6390686CF11DBA6E2D887CEACB407</xmpMM:OriginalDocumentID>
         <xmpMM:DocumentID>xmp.did:FE7F11740720681188C69098C6AB8D67</xmpMM:DocumentID>
         <xmpMM:InstanceID>xmp.iid:FE7F11740720681188C69098C6AB8D67</xmpMM:InstanceID>
         <xmpMM:DerivedFrom rdf:parseType="Resource">
            <stRef:instanceID>uuid:c69f2f23-bae4-48fe-b1be-850f4c35ed88</stRef:instanceID>
            <stRef:documentID>xmp.did:495849C1B991E411B302A3F1D496D077</stRef:documentID>
            <stRef:originalDocumentID>uuid:65E6390686CF11DBA6E2D887CEACB407</stRef:originalDocumentID>
            <stRef:renditionClass>proof:pdf</stRef:renditionClass>
         </xmpMM:DerivedFrom>
         <xmpMM:History>
            <rdf:Seq>
               <rdf:li rdf:parseType="Resource">
                  <stEvt:action>saved</stEvt:action>
                  <stEvt:instanceID>xmp.iid:FDDACBA380A7E311AD04B10BEB4FC0E2</stEvt:instanceID>
                  <stEvt:when>2014-03-09T13:47:55+02:00</stEvt:when>
                  <stEvt:softwareAgent>Adobe Illustrator CS5</stEvt:softwareAgent>
                  <stEvt:changed>/</stEvt:changed>
               </rdf:li>
               <rdf:li rdf:parseType="Resource">
                  <stEvt:action>saved</stEvt:action>
                  <stEvt:instanceID>xmp.iid:E2CF64CBA0A7E311AD04B10BEB4FC0E2</stEvt:instanceID>
                  <stEvt:when>2014-03-09T18:33:31+02:00</stEvt:when>
                  <stEvt:softwareAgent>Adobe Illustrator CS5</stEvt:softwareAgent>
                  <stEvt:changed>/</stEvt:changed>
               </rdf:li>
               <rdf:li rdf:parseType="Resource">
                  <stEvt:action>saved</stEvt:action>
                  <stEvt:instanceID>xmp.iid:495849C1B991E411B302A3F1D496D077</stEvt:instanceID>
                  <stEvt:when>2015-01-01T15:30:05+02:00</stEvt:when>
                  <stEvt:softwareAgent>Adobe Illustrator CS5</stEvt:softwareAgent>
                  <stEvt:changed>/</stEvt:changed>
               </rdf:li>
               <rdf:li rdf:parseType="Resource">
                  <stEvt:action>saved</stEvt:action>
                  <stEvt:instanceID>xmp.iid:FE7F11740720681188C69098C6AB8D67</stEvt:instanceID>
                  <stEvt:when>2015-02-12T16:01:12+02:00</stEvt:when>
                  <stEvt:softwareAgent>Adobe Illustrator CS5.1</stEvt:softwareAgent>
                  <stEvt:changed>/</stEvt:changed>
               </rdf:li>
            </rdf:Seq>
         </xmpMM:History>
      </rdf:Description>
      <rdf:Description rdf:about=""
            xmlns:illustrator="http://ns.adobe.com/illustrator/1.0/">
         <illustrator:StartupProfile>Web</illustrator:StartupProfile>
      </rdf:Description>
      <rdf:Description rdf:about=""
            xmlns:xmpTPg="http://ns.adobe.com/xap/1.0/t/pg/"
            xmlns:stDim="http://ns.adobe.com/xap/1.0/sType/Dimensions#"
            xmlns:xmpG="http://ns.adobe.com/xap/1.0/g/">
         <xmpTPg:NPages>1</xmpTPg:NPages>
         <xmpTPg:HasVisibleTransparency>False</xmpTPg:HasVisibleTransparency>
         <xmpTPg:HasVisibleOverprint>False</xmpTPg:HasVisibleOverprint>
         <xmpTPg:MaxPageSize rdf:parseType="Resource">
            <stDim:w>144.999935</stDim:w>
            <stDim:h>119.391507</stDim:h>
            <stDim:unit>Millimeters</stDim:unit>
         </xmpTPg:MaxPageSize>
         <xmpTPg:PlateNames>
            <rdf:Seq>
               <rdf:li>Cyan</rdf:li>
               <rdf:li>Magenta</rdf:li>
               <rdf:li>Yellow</rdf:li>
               <rdf:li>Black</rdf:li>
            </rdf:Seq>
         </xmpTPg:PlateNames>
         <xmpTPg:SwatchGroups>
            <rdf:Seq>
               <rdf:li rdf:parseType="Resource">
                  <xmpG:groupName>Default Swatch Group</xmpG:groupName>
                  <xmpG:groupType>0</xmpG:groupType>
               </rdf:li>
            </rdf:Seq>
         </xmpTPg:SwatchGroups>
      </rdf:Description>
      <rdf:Description rdf:about=""
            xmlns:pdf="http://ns.adobe.com/pdf/1.3/">
         <pdf:Producer>Adobe PDF library 9.90</pdf:Producer>
      </rdf:Description>
   </rdf:RDF>
</x:xmpmeta>
                                                                                                    
                                                                                                    
                                                                                                    
                                                                                                    
                                                                                                    
                                                                                                    
                                                                                                    
                                                                                                    
                                                                                                    
                                                                                                    
                                                                                                    
                                                                                                    
                                                                                                    
                                                                                                    
                                                                                                    
                                                                                                    
                                                                                                    
                                                                                                    
                                                                                                    
                                                                                                    
                           
<?xpacket end="w"?>
	</metadata>
<g>
	<path d="M82.279,46.226c0.867,0.199,1.207,0.921,1.69,1.503l-0.468,0.469l0.095,0.658c-0.739-0.013-1.412-0.092-1.878-0.375
		l0.468-0.469l-0.468-0.47c0.053-0.303-0.179-0.324-0.188-0.563L82,46.696L82.279,46.226z"/>
	<path d="M112.51,172.416c1.378,0.026,1.068,2.438,2.629,1.689C114.403,175.445,112.778,173.364,112.51,172.416z"/>
	<path d="M302.35,268.937c1.298-0.415,2.329,1.051,3.383,1.502C304.663,270.627,303.419,269.375,302.35,268.937z"/>
	<path d="M108.192,169.224c-0.332-1.649-0.997-0.831-1.502-0.188c-0.329-0.222,0.433-0.932,0.375-1.502
		c0.512-0.138,0.377,0.373,0.751,0.375c0.365-0.412-0.494-0.77,0.187-1.314c0.802,0.605-0.151,2.992,1.691,2.065
		c-0.458,0.847,0.126,1.639-0.189,2.065c0.085-0.114-1.268-0.336-0.938,0.563c-0.407,0.032-0.085-0.666-0.189-0.938
		c-0.249,0.188-0.698,0.178-0.75,0.564C107.247,170.281,106.574,168.982,108.192,169.224z"/>
	<path d="M108.005,172.604c1.329,0.388,0.618,1.34,1.314,1.878c-0.141-0.11,1.079-0.149,0.751-0.939
		c-1.353,0.459-1.09-1.17-0.938-2.253c0.407,0.504,0.255,0.854,0.187,1.502c0.774-0.178,0.705-0.034,1.316-0.375
		c-0.001,1.094-0.595,2.649,0.374,2.817c-0.045,0.33-0.322,0.428-0.75,0.375c0.168,0.331,0.419,0.582,0.75,0.75
		c-1.181,0.368-2.535-1.297-2.441-2.253c-0.784,0.142-1.838,0.49-1.877-0.375c0.576,0.344,0.845-0.169,1.313,0.188
		C108.511,173.696,108.005,172.94,108.005,172.604z"/>
	<path d="M339.908,71.765c1.665,0.338,3.479,0.529,4.883,1.127l-0.096,0.421l0.284,0.33c0,0.126,0,0.25,0,0.375l-0.657,0.094
		l0.095,0.657c-1.98-0.21-3.67-0.711-5.072-1.501l0.557-0.647L339.908,71.765z"/>
	<g>
		<path fill="none" stroke="#000000" stroke-linecap="round" d="M-2.247,333.676c-3.616-4.988-7.043-9.504-9.788-13.842
			c-3.638-5.746-6.042-12.628-8.686-19.249c-6.685-16.742-7.701-33.747-10.446-50.264c-2.529-15.221-5.893-34.282-7.117-51.51
			c-0.885-12.484-1.603-24.707,0.321-36.764c1.431-8.965,2.549-18.999,5.256-28.356c0.081-0.278,0.129-0.655,0.189-0.936
			c1.735-7.933,7.43-16.192,8.319-24.644c1.907-18.132-5.336-36.388-0.052-54.806c0.941-3.281,1.753-5.762,3.428-9.033
			c9.52-18.602,26.769-21.806,40.954-35.197c2.601-2.459,6.892-4.982,9.286-8.576"/>
		<path fill="none" stroke="#000000" stroke-linecap="round" d="M148.201,12.227c1.598,2.054,2.658,4.608,4.873,6.208"/>
		<path fill="none" stroke="#000000" stroke-linecap="round" d="M147.345,15.147c0.445-0.945,0.037-2.123,0.856-2.921"/>
		<path fill="none" stroke="#000000" stroke-linecap="round" d="M148.201,12.227c-0.327-3.568,0.322-7.174,0.366-10.788"/>
		<path fill="none" stroke="#000000" stroke-linecap="round" d="M126.44,25.61c6.454-0.368,19.705,1.944,22.769,10.098
			c0.534,1.418,2.122,3.532,2.831,4.791"/>
		<path fill="none" stroke="#000000" stroke-linecap="round" d="M126.44,25.61c2.173,4.356,4.167,9.28,7.736,12.623"/>
		<path fill="none" stroke="#000000" stroke-linecap="round" d="M76.927,8.716c16.149,6.402,37.703,1.506,49.514,16.894"/>
		<path fill="none" stroke="#000000" stroke-linecap="round" d="M84.063,15.585c-3.135,0.469-7.89,1.534-9.483-2.223"/>
		<path fill="none" stroke="#000000" stroke-linecap="round" d="M60.776,16.463c3.807-5.737,9.887-0.885,12.583,3.192"/>
		<path fill="none" stroke="#000000" stroke-linecap="round" d="M83.499,48.198c3.063,1.046,6.246,1.94,8.797,4.001"/>
		<path fill="none" stroke="#000000" stroke-linecap="round" d="M64.925,45.632c-2.657,0.617-5.319-0.664-7.904-0.534"/>
		<path fill="none" stroke="#000000" stroke-linecap="round" d="M41.848,43.54c3.095-3.337,7.938,1.494,11.15-0.869"/>
		<path fill="none" stroke="#000000" stroke-linecap="round" d="M52.998,42.671c4.755-2.743,10.235-4.178,15.15-6.539"/>
		<path fill="none" stroke="#000000" stroke-linecap="round" d="M68.148,36.132c-4.37-5.082-9.732-10.717-8.185-18.105"/>
		<path fill="none" stroke="#000000" stroke-linecap="round" d="M68.148,36.132c4.602,3.464,9.146,7.2,13.849,10.563"/>
		<path fill="none" stroke="#000000" stroke-linecap="round" d="M52.998,42.671c3.572,1.613,8.732,0.609,11.926,2.961"/>
		<path fill="none" stroke="#000000" stroke-linecap="round" d="M64.925,45.632c5.645,1.43,11.524,1.457,17.259,2.375"/>
		<path fill="none" stroke="#000000" stroke-linecap="round" d="M179.267,19.091c8.376,0.123,16.688-0.613,24.971,0.374"/>
		<path fill="none" stroke="#000000" stroke-linecap="round" d="M206.302,18.903c5.136,0.524,11.805-0.044,17.51,1.445
			c3.759,0.98,9.439,4.689,12.531,4.738c5.377,0.087,13.682,4.422,18.593,6.493"/>
		<path fill="none" stroke="#000000" stroke-linecap="round" d="M162.368,20.782c4.919,0.43,9.906-0.462,14.832-0.095"/>
		<path fill="none" stroke="#000000" stroke-linecap="round" d="M162.368,20.782c-1.697,0.856-3.819,0.558-5.634,1.126"/>
		<path fill="none" stroke="#000000" stroke-linecap="round" d="M151.852,20.5c3.407-0.462,7.358-0.878,10.515,0.282"/>
		<path fill="none" stroke="#000000" stroke-linecap="round" d="M70.917,27.354c-4.263,2.121-7.145-3.157-8.638-6.385"/>
		<path fill="none" stroke="#000000" stroke-linecap="round" d="M183.209,21.156c5.733,0.165,11.893-1.047,17.631,0.291
			c5.218,1.219,10.103,3.849,15.213,5.817c4.306,1.657,8.812,1.036,13.969,2.574c4.043,1.204,7.498,2.134,11.315,2.292
			c0.875,0.035,1.587-0.2,2.521,0.011"/>
		<path fill="none" stroke="#000000" stroke-linecap="round" d="M150.914,22.941c1.763,7.278,9.971,9.413,16.421,7.896"/>
		<path fill="none" stroke="#000000" stroke-linecap="round" d="M167.335,30.838c1.566-0.973,3.594-0.711,5.361-0.479"/>
		<path fill="none" stroke="#000000" stroke-linecap="round" d="M167.335,30.838c1.75,1.72,3.02,3.881,4.379,5.947"/>
		<path fill="none" stroke="#000000" stroke-linecap="round" d="M72.514,26.039c0.613-0.904,1.554-1.817,1.47-3.005"/>
		<path fill="none" stroke="#000000" stroke-linecap="round" d="M179.926,32.742c4.446,2.772,9.31,6.484,14.409,7.266
			c5.936,0.91,10.79,3.691,16.081,7.232"/>
		<path fill="none" stroke="#000000" stroke-linecap="round" d="M210.416,47.242c2.569-1.512,4.765-3.722,7.688-4.544"/>
		<path fill="none" stroke="#000000" stroke-linecap="round" d="M210.416,47.242c-0.408,0.822-1.187,1.45-1.339,2.39"/>
		<path fill="none" stroke="#000000" stroke-linecap="round" d="M209.077,49.631c0.489,0.298,1.118,0.467,1.662,0.217"/>
		<path fill="none" stroke="#000000" stroke-linecap="round" d="M210.74,49.847c3.407-4.137,9.313-5.155,14.341-6.11"/>
		<path fill="none" stroke="#000000" stroke-linecap="round" d="M210.74,49.847c4.622,1.786,9.691,2.683,14.464,4.234"/>
		<path fill="none" stroke="#000000" stroke-linecap="round" d="M225.203,54.081c5.705-2.863,12.425,0.095,18.28,1.157"/>
		<path fill="none" stroke="#000000" stroke-linecap="round" d="M225.203,54.081c0.916,0.967,2.378,1.191,3.406,2.04"/>
		<path fill="none" stroke="#000000" stroke-linecap="round" d="M209.077,49.631c-2.907-0.471-6.425-0.17-8.97-1.809"/>
		<path fill="none" stroke="#000000" stroke-linecap="round" d="M174.198,31.297c1.854,0.668,3.851,0.93,5.729,1.445"/>
		<path fill="none" stroke="#000000" stroke-linecap="round" d="M179.926,32.742c0.011-1.029-0.02-2.093-0.002-3.136"/>
		<path fill="none" stroke="#000000" stroke-linecap="round" d="M202.266,38.152c-0.335-1.893-0.133-3.848,0.375-5.727"/>
		<path fill="none" stroke="#000000" stroke-linecap="round" d="M89.038,41.25c0.773-2.18,2.848-3.618,4.789-4.695"/>
		<path fill="none" stroke="#000000" stroke-linecap="round" d="M91.251,43.154c0.738-1.681,1.989-3.164,3.515-4.158"/>
		<path fill="none" stroke="#000000" stroke-linecap="round" d="M175.825,44.566c0.756-0.982,1.556-1.968,2.716-2.512"/>
		<path fill="none" stroke="#000000" stroke-linecap="round" d="M184.336,43.503c1.613-0.116,3.21,0.053,4.693,0.61"/>
		<path fill="none" stroke="#000000" stroke-linecap="round" d="M177.484,49.511c0.858-2.255,1.512-4.438,3.781-5.187
			c1.084-0.358,2.171,0.207,3.07-0.821"/>
		<path fill="none" stroke="#000000" stroke-linecap="round" d="M184.336,43.503c-0.942-0.96-2.4-0.491-3.567-0.375"/>
		<path fill="none" stroke="#000000" stroke-linecap="round" d="M50.449,51.952c2.091-1.192,1.901-4.111,1.19-6.071"/>
		<path fill="none" stroke="#000000" stroke-linecap="round" d="M216.251,48.01c5.744-0.474,12.735-2.698,17.78,0.438"/>
		<path fill="none" stroke="#000000" stroke-linecap="round" d="M232.59,51.859c6.169-0.126,11.882,2.493,17.84,3.38"/>
		<path fill="none" stroke="#000000" stroke-linecap="round" d="M195.131,62.281c0.604-4.302,3.988-7.815,7.659-9.897"/>
		<path fill="none" stroke="#000000" stroke-linecap="round" d="M94.671,65.473c1.742-3.261,4.156-6.166,7.136-8.356"/>
		<path fill="none" stroke="#000000" stroke-linecap="round" d="M178.232,80.12c-1.084-3.76-3.174-7.367-4.88-10.985"/>
		<path fill="none" stroke="#000000" stroke-linecap="round" d="M112.981,179.738c-4.642,0.183-8.751-4.54-7.062-9.03"/>
		<path fill="none" stroke="#000000" stroke-linecap="round" d="M310.897,272.785c1.941,1.048,3.906,1.977,5.915,2.913"/>
		<path fill="none" stroke="#000000" stroke-linecap="round" d="M102.466,36.272c5.046,2.212,9.259,5.839,12.849,9.939"/>
		<path fill="none" stroke="#000000" stroke-linecap="round" d="M115.316,46.212c4.554-1.622,10.511-1.809,15.662-2.339
			c4.943-0.51,9.213-1.81,13.329-0.338c4.038,1.446,8.45,5.787,11.113,9.169"/>
		<path fill="none" stroke="#000000" stroke-linecap="round" d="M115.316,46.212c-0.748,1.387-2.42,1.601-3.621,2.414"/>
		<path fill="none" stroke="#000000" stroke-linecap="round" d="M102.466,36.272c-3.611-0.48-8.329-3.872-12.829-6.476
			c-3.914-2.265-7.926-4.479-10.582-6.262"/>
		<path fill="none" stroke="#000000" stroke-linecap="round" d="M102.466,36.272c-1.335-4.111-5.806-8.357-11.589-10.456
			c-6.216-2.254-15.241-4.593-17.824-11.914c-0.6-1.707-0.904-4.193,1.621-4.67"/>
		<path fill="none" stroke="#000000" stroke-linecap="round" d="M110.351,167.252c0.989,0.276,1.75-1.928,2.554-2.327
			c1.84-0.912,4.931,0.438,6.123,2.072c1.064,1.456,1.535,4.777,1.182,6.828"/>
		<path fill="none" stroke="#000000" stroke-linecap="round" d="M367.794,80.559c-7.694-2.396-15.229-5.589-23.099-7.246"/>
		<path fill="none" stroke="#000000" stroke-linecap="round" d="M324.3,131.53c-0.812,0.691-0.554,1.543,0.442,2.339
			c1.413,1.122,2.357,1.783,4.319,3.005c8.624,5.358,22.011,14.735,28.405,18.925"/>
		<path fill="none" stroke="#000000" stroke-linecap="round" d="M273.472,162.615c3.072,0.884,7.046-0.551,10.384-0.057
			c1.432,0.214,3.011,1.065,4.687,1.646c5.675,1.959,11.749,3.997,17.619,5.778c9.583,2.911,19.854,4.982,28.331,9.146
			c2.666,1.308,5.322,2.5,8.139,3.71"/>
		<path fill="none" stroke="#000000" stroke-linecap="round" d="M235.732,233.232c0.383,1.938,4.72,4.478,7.666,6.16
			c11.921,6.813,33.725,17.495,45.634,22.914c2.808,1.277,6.055,3.235,9.003,4.564"/>
		<path fill="none" stroke="#000000" stroke-linecap="round" d="M185.606,186.529c-3.301,6.339-9.413,13.263-17.362,11.885"/>
		<path fill="none" stroke="#000000" stroke-linecap="round" d="M168.243,198.414c0.332,11.695-2.529,22.912-2.389,33.414
			c0.194,14.211,8.541,28.337,12.132,42.031c2.656,10.132,2.567,20.338,3.651,30.783c0.271,2.589,0.495,5.207,0.634,7.76
			c0.385,7.017-0.046,13.65-0.377,20.85"/>
		<path fill="none" stroke="#000000" stroke-linecap="round" d="M168.243,198.414c-0.223-4.559-1.236-8.961-1.65-13.511"/>
		<path fill="none" stroke="#000000" stroke-linecap="round" d="M28.339,54.677c4.505-1.093,8.982-2.645,13.097-4.883"/>
		<path fill="none" stroke="#000000" stroke-linecap="round" d="M41.435,49.792c-0.451-1.766-1.261-3.48-0.939-5.353"/>
		<path fill="none" stroke="#000000" stroke-linecap="round" d="M41.435,49.792c2.974,3.521,7.664,5.101,12.357,6.705
			c6.063,2.068,12.329,4.268,18.183,6.276c6.941,2.382,13.264,7.098,18.339,12.695c7.648,8.436,12.625,17.117,22.374,22.821
			c4.423,2.588,8.587,5.592,12.397,8.426"/>
		<path fill="none" stroke="#000000" stroke-linecap="round" d="M125.087,106.716c2.199-0.007,4.218,1.784,6.483,1.947"/>
		<path fill="none" stroke="#000000" stroke-linecap="round" d="M125.087,106.716c4.62,5.501,11.675,12.75,16.871,18.141
			c13.896,14.413,25.177,33.619,37.556,52.126c2.172,3.246,4.687,6.414,6.093,9.546"/>
		<path fill="none" stroke="#000000" stroke-linecap="round" d="M185.606,186.529c8.509,10.005,18.122,20.427,29.061,29.589
			c7.065,5.917,13.415,12.677,21.064,17.114"/>
		<path fill="none" stroke="#000000" stroke-linecap="round" d="M235.732,233.232c0.017-8.746-0.121-18.485,1.672-26.479
			c1.158-5.162,2.457-10.144,4.243-14.733c2.219-5.708,5.28-11.021,8.505-16.681c3.15-5.536,6.495-7.855,14.223-10.095
			c2.523-0.729,5.784-1.163,9.098-2.629"/>
		<path fill="none" stroke="#000000" stroke-linecap="round" d="M273.472,162.615c-13.509-8.945-30.353-15.243-45.003-24.463
			c-0.144-0.09-0.306-0.243-0.473-0.337c-14.044-7.741-27.373-19.598-36.64-32.462c-3.158-4.386-8.047-9.188-9.141-14.284
			c-0.888-4.141-0.229-9.371-0.891-12.984c-0.698-3.808-2.83-6.673-4.102-10.029"/>
		<path fill="none" stroke="#000000" stroke-linecap="round" d="M177.224,68.055c-6.418-8.292-15.871-14.315-21.053-23.615"/>
		<path fill="none" stroke="#000000" stroke-linecap="round" d="M177.224,68.055c0.82-3.831-0.074-7.833,0.212-11.689"/>
		<path fill="none" stroke="#000000" stroke-linecap="round" d="M177.436,56.366c-2.928-2.335-7.965-3.934-8.321-8.284"/>
		<path fill="none" stroke="#000000" stroke-linecap="round" d="M169.115,48.082c-2.034-3.533-0.955-8.078,3.188-9.562
			c4.648-1.664,8.109,1.241,13.375,2.025c5.477,0.816,9.705,5.411,12.741,6.9"/>
		<path fill="none" stroke="#000000" stroke-linecap="round" d="M169.115,48.082c1.3,0.1,1.583,1.74,2.743,1.958
			c0.703-0.602,0.424-1.705,0.743-2.501"/>
		<path fill="none" stroke="#000000" stroke-linecap="round" d="M177.436,56.366c8.065,2.693,15.593,7.635,22.871,12.083"/>
		<path fill="none" stroke="#000000" stroke-linecap="round" d="M200.309,68.448c-0.098-2.015-2.164-3.616-2.078-5.792"/>
		<path fill="none" stroke="#000000" stroke-linecap="round" d="M200.309,68.448c9.745,13.264,19.168,22.081,32.62,25.604
			c6.828,1.788,14.587,1.667,21.379,2.523c7.139,0.899,17.271,0.709,24.413,2.629c0.441,0.119,1.293,0.446,2.037,0.687
			c9.58,3.1,12.088,7.641,20.179,14.278c3.021,2.48,6.701,4.539,9.754,6.99c4.162,3.345,9.643,7.242,13.61,10.371"/>
		<path fill="none" stroke="#000000" stroke-linecap="round" d="M324.3,131.53c5.831-1.905,14.735-8.975,16.954-15.956
			c1.213-3.815,2.022-8.441,2.751-12.396c1.475-8,5.008-15.563,4.055-22.674c-0.372-2.774-1.655-4.417-3.738-6.395"/>
		<path fill="none" stroke="#000000" stroke-linecap="round" d="M248.926,32.799c4.259,0.578,8.613,0.833,12.515,2.183
			c7.851,2.719,14.394,10.435,22.955,15.647c5.9,3.589,11.529,6.827,17.797,9.142c11.501,4.246,23.194,9.018,34.737,12.392
			c0.994,0.292,2.208,0.573,2.972,0.457"/>
		<path fill="none" stroke="#000000" stroke-linecap="round" d="M43.239,201.24c10.577-0.766,20.716,6.457,30.455,9.858
			c8.269,2.888,17.94,3.978,28.144,2.041c6.302-1.194,11.991-2.907,17.834-5.252c14.543-5.835,25.854-19.116,32.431-34.931
			c0.409-0.985,0.661-2.09,1.197-2.945"/>
		<path fill="none" stroke="#000000" stroke-linecap="round" d="M108.474,333.629c-10.665-9.412-21.32-19.64-33.356-26.346
			c-3.425-1.907-7.029-3.543-10.551-5.632c-3.798-2.251-7.246-4.554-11.411-7.136c-3.665-2.271-10.374-5.513-12.38-9.158
			c-0.249-0.452-0.35-1.387-0.398-1.612c-2.929-13.704-4.639-27.448-2.438-41.616c1.303-8.387,2.225-16.786,3.193-25.351
			c0.574-5.087,1.278-10.326,2.104-15.538"/>
		<path fill="none" stroke="#000000" stroke-linecap="round" d="M43.239,201.24c1.19-11.481,0.928-23.328,1.113-34.914
			c0.114-7.226-0.388-14.666,0.35-21.843c1.005-9.754,2.799-19.05,5.466-28.354"/>
	</g>
</g>
</svg>
