<?xml version="1.0" encoding="utf-8"?>
<!-- Generator: Adobe Illustrator 15.0.2, SVG Export Plug-In . SVG Version: 6.00 Build 0)  -->
<!DOCTYPE svg PUBLIC "-//W3C//DTD SVG 1.1//EN" "http://www.w3.org/Graphics/SVG/1.1/DTD/svg11.dtd">
<svg version="1.1" id="Layer_1" xmlns="http://www.w3.org/2000/svg" xmlns:xlink="http://www.w3.org/1999/xlink" x="0px" y="0px"
	 width="411.023px" height="410.007px" viewBox="-42.52 0 411.023 410.007" enable-background="new -42.52 0 411.023 410.007"
	 xml:space="preserve">
<metadata><?xpacket begin="﻿" id="W5M0MpCehiHzreSzNTczkc9d"?>
<x:xmpmeta xmlns:x="adobe:ns:meta/" x:xmptk="Adobe XMP Core 5.0-c060 61.134777, 2010/02/12-17:32:00        ">
   <rdf:RDF xmlns:rdf="http://www.w3.org/1999/02/22-rdf-syntax-ns#">
      <rdf:Description rdf:about=""
            xmlns:dc="http://purl.org/dc/elements/1.1/">
         <dc:format>image/svg+xml</dc:format>
         <dc:title>
            <rdf:Alt>
               <rdf:li xml:lang="x-default">1F-6</rdf:li>
            </rdf:Alt>
         </dc:title>
      </rdf:Description>
      <rdf:Description rdf:about=""
            xmlns:xmp="http://ns.adobe.com/xap/1.0/"
            xmlns:xmpGImg="http://ns.adobe.com/xap/1.0/g/img/">
         <xmp:CreatorTool>Adobe Illustrator CS5.1</xmp:CreatorTool>
         <xmp:CreateDate>2015-02-12T16:01:30+02:00</xmp:CreateDate>
         <xmp:ModifyDate>2015-02-12T16:01:30+02:00</xmp:ModifyDate>
         <xmp:MetadataDate>2015-02-12T16:01:30+02:00</xmp:MetadataDate>
         <xmp:Thumbnails>
            <rdf:Alt>
               <rdf:li rdf:parseType="Resource">
                  <xmpGImg:width>256</xmpGImg:width>
                  <xmpGImg:height>256</xmpGImg:height>
                  <xmpGImg:format>JPEG</xmpGImg:format>
                  <xmpGImg:image>/9j/4AAQSkZJRgABAgEB1QHVAAD/7QAsUGhvdG9zaG9wIDMuMAA4QklNA+0AAAAAABAB1QAAAAEA&#xA;AQHVAAAAAQAB/+4ADkFkb2JlAGTAAAAAAf/bAIQABgQEBAUEBgUFBgkGBQYJCwgGBggLDAoKCwoK&#xA;DBAMDAwMDAwQDA4PEA8ODBMTFBQTExwbGxscHx8fHx8fHx8fHwEHBwcNDA0YEBAYGhURFRofHx8f&#xA;Hx8fHx8fHx8fHx8fHx8fHx8fHx8fHx8fHx8fHx8fHx8fHx8fHx8fHx8fHx8f/8AAEQgBAAEAAwER&#xA;AAIRAQMRAf/EAaIAAAAHAQEBAQEAAAAAAAAAAAQFAwIGAQAHCAkKCwEAAgIDAQEBAQEAAAAAAAAA&#xA;AQACAwQFBgcICQoLEAACAQMDAgQCBgcDBAIGAnMBAgMRBAAFIRIxQVEGE2EicYEUMpGhBxWxQiPB&#xA;UtHhMxZi8CRygvElQzRTkqKyY3PCNUQnk6OzNhdUZHTD0uIIJoMJChgZhJRFRqS0VtNVKBry4/PE&#xA;1OT0ZXWFlaW1xdXl9WZ2hpamtsbW5vY3R1dnd4eXp7fH1+f3OEhYaHiImKi4yNjo+Ck5SVlpeYmZ&#xA;qbnJ2en5KjpKWmp6ipqqusra6voRAAICAQIDBQUEBQYECAMDbQEAAhEDBCESMUEFURNhIgZxgZEy&#xA;obHwFMHR4SNCFVJicvEzJDRDghaSUyWiY7LCB3PSNeJEgxdUkwgJChgZJjZFGidkdFU38qOzwygp&#xA;0+PzhJSktMTU5PRldYWVpbXF1eX1RlZmdoaWprbG1ub2R1dnd4eXp7fH1+f3OEhYaHiImKi4yNjo&#xA;+DlJWWl5iZmpucnZ6fkqOkpaanqKmqq6ytrq+v/aAAwDAQACEQMRAD8A9U4q7FXYq7FXYqwq60vW&#xA;vKErX3lyF9Q8uV5X3lpatNbgmrS6ZXw6m2Pwn/dfE/CyrKdG1nTNa0yDU9LuFurG5XlDMlRWhoQQ&#xA;QGVlIIZWAIOxFcVRmKuxV2KuxV2KuxV2KuxV2KuxV2KuxV2KuxV2KuxV2KuxV2KuxV2KuxV2KuxV&#xA;2KuBBFRuD0OKuxV2KuxV2KuxVhusaPfeW9UuPM/l6J5rS4b1fMegwryNzQUN3aIOl0oHxKNpl2Px&#xA;hTirKdM1Kw1TT7fUdPnW5srqNZbedPssjCoP9hxVE4q7FXYq7FXYq7FXYq7FXYq7FXYq7FXYq7FX&#xA;Yq7FXYq7FXYq7FXYq7FXYq7FWH+V5p/Ld/F5O1KUyWxVj5YvpCay20YqbORj1ntl2Hd4wG6q9FWY&#xA;Yq7FXYq7FXYq7FWDakjeRdUm1q2QnyhqMvqa5aoBTT7hz8WoRLtSGQn/AElR9k/vf9+VVZwjpIiy&#xA;RsHRwGR1NQQdwQRireKuxV2KuxV2KuxV2KuxV2KuxV2KuxV2KuxV2KuxV2KuxV2KuxV2KuxV2KpX&#xA;5k8v2evaTJYXDPC9VltLyIgTW1xGeUU8LHo8bbjsehqCRiqC8n69e30FxpmsqkXmTSWWHVIowVjk&#xA;DAmK7hB39G4Ucl/lbkh+JDirIcVdirsVdirsVaZVZSrAMrCjKdwQexxVhSLd+QgERHu/JHIkBQXn&#xA;0lSa9N2lswT2+KEeMf8AdqszgnguII54JFlglUPFKhDI6MKqysNiCNwRiq/FXYq7FXYq7FXYq7FX&#xA;Yq7FXYq7FXYq7FXYq7FXYq7FXYq7FXYq7FXYq7FWNebtF1EyW/mLQUDeYNLVgtuSEW9tWIaWykY7&#xA;Dnx5RMfsSUP2SwKqbaFren65pNtqmnuXtblaqGBV0ZSVeORDukkbgq6ndWBBxVH4q7FXYq7FXYq7&#xA;FWHXOkax5UnkvvLVub7Q5GMl95aQqrxEmrzacW4qpPVrdiEY7oVavNVkOh6/pOuWC32mTieAko4I&#xA;ZJI5F2aOWNwrxyKdmRwCO4xVMMVdirsVdirsVdirFfMmoajeeZNI8t6RO0EqSR6prlxGQDFYQSVj&#xA;hPet3MnCneNZPChVZVirsVdirsVdirsVdirsVdirsVdirsVdirsVdirsVYneRDytrz6tF8Hl/WZV&#xA;GsR/s2161I4rwAfZSbaOfsDxfb94SqyzFXYq7FXYq7FXYq7FUj1XyrBc3x1bTZ20rXeIU38KhlmV&#xA;RRY7uEkJOg7Vo6/sMtcVQY85vpUgtvNtsNKNQserIWk0yWuwJnIH1dj/ACT8d9lZ+uKsmjkjljWS&#xA;Ng8bgMjqQVZSKggjqDiq7FXYq7FUJrGrWGj6VearqEghsbGF7i5lP7McalmPvsOmKsa/LbRtVgsL&#xA;zzDrymPzD5lmF9e27Gv1WALxtLIdv3ENA3i5c98VZhirsVdirsVdirsVdirsVQml6pbanbyXFsG9&#xA;KOe4tqsAKvazPBIRQnb1I2piqLxV2KuxV2KuxV2KuxVTura3u7aW1uYlmtp0aKeFwGR0ccWVgdiC&#xA;DQ4qxfyzqdzpetS+TdVkaSWGI3OgXshLNd2CsFZHc/antWZUkqaspR+rNRVlmKuxVTlm9Is0gCwK&#xA;vJpa9CD3FOlN64qqYq7FXYq7FWmVWUqwDKwoyncEHscVSFPIflaCRnsbR9NDnk8em3FxYRM1almi&#xA;tJIUYk9SRirH/MukefdBePVfLWuT3unQknUtF1CBdQYxbkyWzI1vcs690MpqPsgsAjKpnp2s+fLy&#xA;1gu7Sw0TULG4USRXkeo3UIZCoIIj+oz9T/l7YqjkvfPZcCTR9LVK/Ey6ncMQPYHT1r9+KpZrOgeb&#xA;/Md7a2erGwsPLUE8N1dW1tJNdXF29tKs0UTvJFbJHFzQFxxYsBx6E4qzHFXYq7FXYq7FXYq7FXYq&#xA;kvnPWpdH8uXl3bDnqMgW20yL/fl7csIbZPkZXXkewqe2Kq/lfQbfy/5d07RYHaWOwgSEzP8AbldR&#xA;8crnu8j1dj4nFUzxV2KuxV2KuxV2KuxV2KpB508v3WrabFPprrDr2lSi90a4f7IuIwQY3I39KdGa&#xA;KT/JYnqBiqP8v61ba3o1pqlurJHdRhmhfZ4pAeMkUg7PG4KMOxBxVMMVdiqDmD2ZnvPUkktgrSTW&#xA;wVpnqAN4qHl0B+AA1/ZAPVVEWtzb3VtFc20izW86LJDKhqrIwqrA+BGKqmKuxV2KuxV2KqTj0V5R&#xA;qqwqXeVVQljWrEqF6sW36b4qo6Vq+m6tZLe6fOtxbszJyAIKujFXR1YBkdGBDKwBB2IxVF4q7FXY&#xA;q7FXYq7FXYq7FXYqxO+4a1+YFlY/bs/LMH6Sul6g3t4HgtB844VncjsWQ+GKssxV2KuxV2KuxV2K&#xA;uxV2KuxV2KsU0l10bzvqOin4LPW421jTR2E6FYtQiXw+Jopqd2kc4qyvFXYq7FWPzNLoOrJJWuha&#xA;nLxmB/49LyVgEZf+KrhzxYfsyEHo7FVWQYq7FXYq7FXYq7FUpuvLVg91NfWTPpmpT09a8tOKtIRQ&#xA;AzRsHilIAoDIhIHQjFUC2pecNKf/AHI6fHrFiOt7plY7hR4vZTM3IKO8UzMe0eKptpOuaTq0cj6f&#xA;crMYW4XEVCksT9eE0ThZI2/yXUHFUdirsVdirsVdirsVUL++tbCxuL67kENpaRPPcSt0SONSzsfk&#xA;oriqQfl/pl5BpE2q6lAYNZ1+4fUtQic1eL1aLb27H/l3tkjiPaqk98VZNirsVdirsVdirsVdirsV&#xA;dirsVYr+YlvLDpFv5itkZ7zyzONTVE+1JborR3sQA3bnavJxX+cL4YqyeCeGeCOeFxJDKoeKRTVW&#xA;VhVSD4EYqvxV2KqV3aW15azWlzGJba4Ropom6MjijKfmDiqA0G4uVSbTLx2lvdPKo07/AGpoWBMM&#xA;5NBUsoKvt9tWptTFU0xV2KuxV2KuxV2KuxVLtV8vaTqbpNcw8byEcYL6FmhuYwd6JNGVkUHutaHu&#xA;DiqWNqWreXnYa1I2oaLsU1lUUTW47i9jjCrw7+tGoUD7aqF5sqyKOSOWNZI2DxuAyOpBVlIqCCOo&#xA;OKrsVdirsVdirEfzCtG1yGy8nJPLbDXWka/uLduE0dhaBXnaNqMAXleGH5SV7Yqp6H5h1fRb228t&#xA;+cJBJdTERaR5hVBHb6gabRygfDBd06x/Zk+1H3VVWZYq7FXYq7FXYq7FXYq7FXYq7FXEBgQRUHYg&#xA;9CMVYh+Wsj2mmX3liY/vvLF4+nxVrU2RAnsG360tZY0J/mVsVZfirsVdirG/Ok1zpdovmG0ZY5bB&#xA;Wju3kUvGLSYgSSugZOQt2CzHevFXUfaxViw8kfnlOxa4/MuC0HMn07TQ7VvhpsA88j03/wAk/PFW&#xA;0/LH8yeI9X80NTaQ7syWNgi/QvBqffiqrF+W35jRSB1/M7Uyw6B7HTnG4purREYquXyj+dFqoa3/&#xA;ADAtb9gKenf6LCoY77l7aaEj/gcVXLf/AJ96fVrnSfLuvRDotjd3enTNvt8NxHcxjb/LxVz/AJt3&#xA;mlKD5s8na3oka7zXsEMeqWcY/maWxeaQD3MYxVlXlnzn5U80WpuvL2rW2pxL/efV5FZ0r2kj+2h9&#xA;mAxVOcVdiqjZ2VpZQ+haRLDDyZhEmygueTcV6CpNaDFVbFXYq7FXYqx/SrK5m826zq9zGyRxR2+m&#xA;6dzFOUUam4mlSvaSWf0z/wAYhiqbappWnarp82n6jbpdWVwvCaGQVBH6wQdwRuDuMVYumr3/AJNk&#xA;istemkvPLkjrDYa89Xkti54pBqBFTxrQJc9D0ko3xuqzLFXYq7FXYq7FXYq7FXYq7FXYqxcw/Ufz&#xA;JWZBSLXdKZZ/5fW0ydTH/snjv3+hB4DFVf8AMPzPc+VvJGs+YrW2W8n0u1e4S3YlVbh/MRU0A3OK&#xA;p3Z3cN5ZwXcJrDcRpLET14uoZfwOKq2KqdzbQXVvLbXEay286NHNEwqrI44spHgQcVSfyXLN+go7&#xA;C4Yvd6S76dOz/bb6q3COVveaHhL/ALLFU8xVp3RFLOwVV3LE0AHzxVvFXYq7FWJeZvyp8ieYrr6/&#xA;eaYttrCktHrNgz2V8jn9oXFuY3Yj/KJHtiqTHQfzY8rKH0HWE846ZGd9J1wrBfhB2h1GFQjt/wAZ&#xA;ov8AZYqm3lv80fLuraiui3yT6B5lpvoWqoLe4enU27VMVwvg0Ttt4YqzDFXYq7FXYq7FXYq7FVk8&#xA;EFxBJBPGssEqlJYnAZHRhRlZTsQRsQcVYPZ/WvIN4ljcO9x5IupONleSuXfSpZD8NvO7kk2jNtFI&#xA;f7s/A3w8SFWd4q7FXYq7FXYq7FXYq7FXYqxjzc4g13yhc0p/uVktpG/yJ9PugB9Mqx4qmnmjRY9d&#xA;8tatosu0ep2c9mxPYTxNHX6OWKsb/JHVX1P8pvK1xJ/exWEdnNXc+pZVtXr78oTXFWb4q7FUr0/T&#xA;5bHUdZvZpEFvfTx3CKDTiI7aKF2ckAAn0vuAxVLxresa4Snl1FttOOx166QlXHjZwfCZR4SuVj6F&#xA;fUFcVRNl5Q0eGVLm8Emq6ghDC+1FvrEgb+aNSBFD8oUQe2Kp3irsVdirsVdiqV+Y/K3l3zLpzadr&#xA;2nw6haHcRzLUo388bijRsOzKQRirAprHzv8AlvIt3p9zfebvJANLvSp/9I1XT07S2s2z3US9DE9X&#xA;UU4k74qyv/lY3lKXyRe+dLC8Go6HYW011M9rRpKQIXeLg5TjLtTg/HfrTFWSQyepEknFk5qG4OKM&#xA;KitGHYjFV2KoS6l1deX1S2t5dxx9Wd4qjvXjDLTFUI1z5s4njptgWp8IN9MAT7n6mcVUIrzz0XAl&#xA;0jS1j/aZdTuGI+QNgv68VTKzm1VmAvbWGEGvxQTtMBSlK84oTv7Yqr3Ntb3VvLbXMSzW86NHNDIA&#xA;yOjjiysp2IINCMVYLpmqN5F1WPy5rVwR5Xuq/wCGtYuXJWBq/wDHNupnOxWv+jO5+JfgqWX4lWeo&#xA;6SIHjYOjCqspqCPEEYq3irsVdirsVdirsVdirFPzLrFoFnqA66bq2l3THwiF9FHOe3SCR8VZXirz&#xA;T8jZTBZ+b9CYcf0J5n1OCBPC3nkF1EegG/rHFXpeKtO6IjO7BUUEsxNAANySTirzPWPz3/KS3m1G&#xA;z13WrD9HwSC3SOpvHmkjJMpa3gWZljVwFUsPiIJA48WZVZB/zkL5SviDo2i+YtaQ9JLDSbiRfnVg&#xA;nyxVHJ+bl5JyMXkDzYyqePI2VrHX3Alukan0YqtvvzljsIfVu/JfmqNQAX46aJuPLsTDLIv44qgJ&#xA;P+cj/IcDlbux1u0C09Rp9LuVCV/m+EnFUy0f8/8A8ntVkMUXma1tJlFXi1HnYFdq0JulhX7jirNN&#xA;N1zRNUUtpmoW18oFS1tNHMKdK/AWxVG4q7FXYq8j/P3SdI0X8qvNUum2q2tx5jurNNReGo9SSe5h&#xA;hkkK14h2iBBIG53NcVeuYq7FXYq7FXYq7FXYqtliiljaKVFkjcFXRgCpB6gg9cVYs35Z+W7d3l0I&#xA;3PludzyZ9HlNtEWJrya1Ie0c1PV4TirS2/5k6TvHdWXma1H+67lDp17T/jNCJbaVvb0Yh/lDFUZp&#xA;HnXSr7URpF3HNpGu8PUGk34WOZ0HV4XRpIZ1HdoXanemKsgxV2KuxV2KuxVJfOukPrPk/W9JjH76&#xA;+sbiCEjqJHiYRsPcNQjFUR5Z1iPW/LelazHQR6nZwXigdAJ4lk/42xVgnkiP9HfnV+Ymn7LFqUOk&#xA;6tbICf2oZLec7+LxA4qhn/Mbz352na2/LLTYrfRVJjm846ykiW5IJDfUrX4ZJyOztRa7EYqlHmr8&#xA;lbXUobGw806/qfmrXdZuVhE1zM1vZ20SD1bqaCxtykUfGKMqnLkBIyVrir1HQ/InkrQVRdF0Kw08&#xA;pSj29tFG9V6EuF5E+5NcVTzFXYq7FXYqhr/TNN1CL0dQtIbyHcenPGkq0PXZwR2xVh2rfkZ+UuqS&#xA;erN5Ys7eevIT2KtYyBv5g9q0JriqWn8pPMukfH5O8+avpwUfBY6oU1ezoP2FS4AlQH/JkxVo+evz&#xA;P8rn/nc/K66tpin49d8sF5+C0+1Lp8v+kKB1ZkZgMVZr5W84eWfNemLqfl7UYdQsyeLNEfiRv5JY&#xA;2o8bf5LgHFWFf85CtIfItnbxpzku9b0mFBUChN5Gw6/6tMVem4q7FXYq7FXYq7FXYq7FXYq7FUHq&#xA;2jaVrFk9lqlpFeWr9YpVDAHsy13Vh2YbjtiqMxV2KuxV2KuxV2KsS/K8mLyxJpjV5aPqGo6coIp+&#xA;6t7yUW9Pb6uY8VSX1BH/AM5Gemtf9J8ocpN9v9H1Oi7U6/v23xV6PiqQQxrd+eLm4ajLpVhHbwEf&#xA;syXspluFP+wtrc/Tiqf4q7FXYq7FXYq7FXYq7FXYqwbzL+VGk32r/wCI/L1zJ5Z82LudWsVHC4Fa&#xA;8L22NI7lD35Ub/KxVjP5onzZN5L0OHzHb2q6qnmnSIlfTmkeGdPrUZSVEkHqRliSDGS1COpxV6/i&#xA;rsVdirsVdirsVdirsVdirsVdirsVdirsVdirsVdirEvJK+h5h872gBCLrMdxF9mnG40yzdun/FvP&#xA;rirH9af0f+ch/LLFDS58v6hCrjoSk8UhBPsB+OKvTcVSXy84fUfMMityRtSAXYinCyto2G5P7SHp&#xA;T+OKp1irsVdirsVdirsVdirsVdirsVYB+cn/ABzvK3/gV6F/1HJirP8AFXYq7FXYq7FXYq7FXYq7&#xA;FXYq7FXYq7FXYq7FXYq7FWL6BC0XnjzWTQLONPmAHf8AcNHyPv8AuqfRirGfPAMP55fllOOdLqHX&#xA;bVyD8Pw2kcyhh/sG+4Yq9OxVJvLkj/Wdbgfjyt9RdaKamkkEM68vekoxVOcVdirsVdiqS+YtdmsF&#xA;S2sVt31Gcco/rcvoW8al1jDyuAzfE7qqKBV2NNtyFUhX8wtYhsvrV35duGjtog961vJG7O/Mo4s4&#xA;gT63olW9bkyFKbc6glVmdpd215axXVrIs1vMoeKVCGVlPcEYqq4q7FXYq86/Oucx2Xk5KV9fzdoc&#xA;ZPhS6D1/4TFXouKuxV2KuxV2KuxV2KuxV2KuxV2KuxV2KuxV2KuxV2Ksb0yAR/mH5gcGpm03SnI8&#xA;CJr9Kf8ACYqxf81l+r+ePyy1On91rc1nyqV/3sspUpy9+HTviqZPafndAG9HU/Ll6Pi4iayvbduv&#xA;w1ZLmYHb/IxVjIT/AJyOttf1GDTv8IVvBFfytdfpPiXMYtSsXA1+FbZC1R1b3xVObM/85Gel/po8&#xA;oCavWE6mVI/2QqMVcJf+cjBNvbeUHhB7T6mjFe3+6XAP34qiPrP5+/8AVu8qf9J2o/8AZJiqjEf+&#xA;ciGRvVTyjE/7HFtTkHzNVjxVOdGi1aS01ifXYba11XnBbXl7A59FoYbeKRpovUZmiRHmmaNWO3U9&#xA;cVQb+VvKGj2MD39jatr10f3cUSx+pLcSVMkFqrL8MTB2Rgq/3X29gTiqU2MX5sr603k7/DaeVbia&#xA;efS7e9jvVn4Sys/PnA3penKxMqUT7LDFUUmof85AQFPX0byzeVB5m2v72Hft/e2zU/HFXL5v/OaM&#xA;IJ/y9tpiQeT22uQdR0+GWCPr/rHFV6/mN58gFdQ/LXV4xQMfql3pl2aD7Wy3CbjsO+Kof8zbs3+n&#xA;eQbx7Wa0a48zaRKbS6VVmiLCRuEiqXUOh2NGIr0OKvScVdirsVdirsVdirsVdirsVdirsVdirsVd&#xA;irsVdirsVY3Z8U/MfVqo3KfR9N4v+yRDdX9R16/vh2xVjX54r6dh5Pv/ANnTvNmjzvQVPF5Wgag/&#xA;1Zj1xV6TiqWa9qFxp0NvfKVFnDOg1Hltxt5KoZOR+z6TsrsTtwDYqmeKuxV2KuxVKr7ROcs8tl6E&#xA;f1401SCeH1obpPTEVHXklG9NQvLccdmVtqKr9R8v6dqFuLaYMtuUEU0cZ4GWEf7qkcD1OB7qGHLo&#xA;aioxVMURERURQqKAFUCgAGwAAxVvFXYq7FXn/wCb3/TFf+BXpn/M3FXoGKuxV2KuxV2KuxV2KqN1&#xA;cCFFAoZpW9OBCSAzkEgbAmlASdtgDirCvLzfmpqF5NLqzQ6XBa3nBIwsbx3loCPjSOjSwNx7NK2/&#xA;tirM4bh/XNtOKTBS6MNldQaEqKk/DUVr44qiMVdirsVdirsVdirsVYreEQfmjpRpQX+i36Fv8q1u&#xA;rRkX6VuHP0HFUh/5yHUr+Uur3aryk06Wxvl2J/3mvoZG2HX4A2KvR1ZWUMpDKwqrDcEHuMVWXFvB&#xA;c28tvcRrLBMjRzROKqyOKMrA9QQcVSXytPNarN5evHL3ekhVglcktPZNUW0xY7swVfTkPd1J6MMV&#xA;T7FXYq7FXYq7FXYq7FXYq7FXnX5yzmOXyElK+t5u0xCfCkc71/4TFXouKuxV2KuxV2KuxV2KoDWJ&#xA;Hjt+aSPC6rI0cyRmYCT02C1hQ85OtQq7kimKoC8na31G2VtJm1bUbW2EgvoY44/iPKM8XmaKIE/F&#xA;8Ik5AN0oScVVNN07VotUlvbq7lkivVSU2Dem8VpIsSo8UUoVHaN2HKhH2hXbpiqdYq7FXYq7FXYq&#xA;7FXYqxjzYot9f8qanT4YtQks53/livbWVF/4K4SFfpxVv8ztHOtfl15m0tV5y3WmXSQrSv730WMe&#xA;3+uBirDfK35qa1D5M8u6zdeW7zUvLt1pdq8usaWy3k0VwsQW4FxZgJNwSRG+OPn7gYqzvyt578n+&#xA;a7czeXtWt9QC/wB7FG1Jo+1JYH4yxn2dRiqr5g0WS8ktNSsiI9Y0tmks5CaLIjik1tIf99zKB/qs&#xA;FehKjFUw0+/hvrZZ4gV3KyRPQPHIpo8bgEgMp2O/4YqiMVdirsVdirsVdirsVUL+/sdPs5r2/uI7&#xA;Szt1Lz3M7rHGijqzOxCgfPFXmX5oajY6ze/lhPp9zHdabeeZbW7guYWDpII7Wd0KsNqGuKvVMVdi&#xA;rsVdirsVdirsVaZVYUYAioNDvuDUH78VSa80jX5bnnb6zwt+fNYpIAzLUFSqvE8AK0bYOrb774qi&#xA;9D0Sy0XTk0+yaZraNnZPrE0lw45sWI9SVnc7nucVVNW1Wz0qwlvrxitvFxB4gsxaRgiKoHUs7BQP&#xA;HFUXirsVdirsVdirsVSHz3pt5qPlLUoLActSijF3pq9a3lm63Nt0/wCLokxVH6BrNnrmh6frNka2&#xA;mpW0V3AT14TIHWvvRt8Veb/kU50OfzZ+XU3wP5W1SSXTY+36M1Em5tuPjQs/LwqMVZX5u/KzyP5q&#xA;kF1qenLHqif3Gr2bNa30Z7FbiEq5p2DVHtiqQ2vkf82PLzH9Aedl1qxX+607zNbeu9Pe/tmimJ/1&#xA;kPyxVLNS80fmNpmoHUr3yTe22oxARzXeiyxarYX0a9BNADBdpT9iRYi6eDLVWVZD5b/OvyFq8aRX&#xA;18vl/V+k2j6z/oNwrjYhVuPT9QeBXt1AO2Ks2tb2zu09S1njuEoDzidXFDuDVSeuKq2KuxV2KpRr&#xA;3nDyp5fiaXXNYs9MVRX/AEqeOInvsrEEn2AxV53d/n/a6zctpv5a6Fe+cNQJ4fXUje10yFulZrqY&#xA;LsPZd+xxVVi/JzVvNVxDqX5q6wdbeMiSHy1Yc7bR4G67qCJbgqejyH2oRiqp+ZVhaw+dPyr0+1jW&#xA;1sodXnMVtAojjUQWUjIqooCgClNh0xV6lirsVdirsVdirsVdirsVdirsVYTqU/8AizzdBo1qeeh+&#xA;W7mO81u4FCkt/FSS0slPcwtxuJf5SIx1JoqzbFXYq7FXYq7FXYq7FWGflvy05te8qyfCdD1CVrJf&#xA;Gw1Am7tqf5KGSSEf8Y8VY556H+Fvzh8pecF+DT9fV/K+tNUhRJKfWsHI6V9VWXkegxV6tirsVdiq&#xA;E1TR9J1a1a01Syt7+1b7VvdRJNGfmkgZcVeba7/zjH+TerTfWE0U6Xchgwm06aS3oQa7RgtEv0Ji&#xA;qBT/AJx0t7BDHofmXUtPUGsbm61BpFp9kVhvbZKAf5GKq3/KlPNBcr/jfV1Sh4y/pLVia02Jj+uD&#xA;v254qpN/zjtFfck1/wA1arqMT05hbu/Vztx6z3l0vTbdemKptoH/ADjl+T+jXAuhoMeoXdamfUCb&#xA;kE+Jib9zX34Yq9Ht7e3toEgt4khgiAWOKNQiKo6BVFABiqpirzv8wBBJ+Z35Ywybsb/U5VWpB/da&#xA;XM1dvBuOKvRMVdirsVdirsVdirsVdirsVYp5v1rVZ7qLyt5alEeu3q87u/4iRdNsyaNcupqplfdY&#xA;Eb7TVP2UbFU70DQdM0HSYNK0yL0rS3BpUlnd2PJ5JHO7yOxLOx3JNTiqYYq7FXYq7FXYq7FXYqwv&#xA;zOf0F540LzIBSz1Snl/Vz4GZzJp0p/1LgtD/AM9sVRH5qeTj5v8AIWr6HEeN9LF62myg8Sl5ARLb&#xA;sG6r+8QAnwJxVd+V/nJfOHkbStcccL2WL0tShI4tHeQH07hCv7P7xSQPCmKsqxV2KuxV2KuxV2Ku&#xA;xV2KqN7fWVhaS3l9cR2tpAvOa4ndY40UftM7EKo+eKsH0X839M8za7Fp3k/TLvXtPSQx6lr8a/V9&#xA;OtwNjxmm4mdwf2Ywdt64qo+dCW/OL8t4hHyCx67OZP5OFrDH+PrUxV6JirsVdiqD1TS4NRtxDK8k&#xA;Lo3OC5gcxyxSAEB0YexoQaqRswIJGKpJcap5q0FVF7ZSeYdPGzX9giLexgbAzWhZVl92gNa9IgMV&#xA;Rmj+dfK2rzm1sdRiN8v29Pm5W94lf57WcRzp/skxVO8Vad0jRpJGCIgLO7GgAG5JJxVhOpeeNQ1u&#xA;R9K8gJHqNzz9K78wuOWl2QrRyHBH1qZe0URND9tl7qsg8s+WbDy/YNbWzPPcTuZ9Q1Cchri6uGAD&#xA;zTOAKsaUAGyiiqAoAxVN8VdirsVdirsVdirsVdiqUeb/AC/H5i8salorv6TXsDJBOOsUw+KGZevx&#xA;RSqrj3GKrfJuuya75Y07VJk9G7mi430A/wB1XcJMVzF/zznR0+jFXnDxal5I/MrU9E066j0/SvzC&#xA;9S90K6mi9aC012JB9ZjeMNHUXKUkHxCrCgxVkM/mT839ImVL7ynZ+YLXiC95ot8sEgod/wDRb4JU&#xA;96LMfpxVtfzm8v26g65o+u6B2LX+lXTR1rSnrWq3MX08sVTKy/Nn8sLygg81aUJOnoy3cMMooK7x&#xA;Ssjj7sVTWPzj5RkQSR63p7o26st1CQR7ENirpfOPlGJDJLrmnxxr9p2uoQB8yWxVIdS/Ov8AKXTm&#xA;K3PmzTGcbFLe4S5YEVFOMHqGu3TFUG352+WbnbQNL1vzEx2rp2l3Xp195rlbeIfPnTFVOTWvzt1w&#xA;cNK0DTvKts3W81m5+u3PE/tJa2X7sMPB5vniqyD8lNP1K5ivvPus3nnS8iYSRW16Rb6ZG425R6fB&#xA;xh6bHnzrir0O0tLWzto7W0hjt7aFQkMEShI0UdFVVAAHyxV59rUf1n8/PLKBT/oOganclgRSktxb&#xA;Q7j6cVejYq7FXYq7FXYqlev+VvLfmG2Ftrul2upQrui3MSScT4oWBKn3XfFUmsPyx0DTQyabeatZ&#xA;25+zax6pfNClf5EllkCfRiqh5h8peS9I8v6jrOrWcmrwaXazXsiatc3GopS2jaUkJdyTop+GvwqM&#xA;VTH8utAl0DyPo2lzqqXcVusl8qqFX61OTNcUUdAZpH2xVkeKuxV2KuxV2KuxV2KuxV2KuxVhugE6&#xA;J591nQWAWy1tf07pXh6tUg1CIfKQxTe5lbFVX80vJH+MvJt3pUMpttUiZLzRb1TxaC/tjzgkVv2f&#xA;i+En+UnFVn5Ted5POXkm01S7j+r6vAz2OtWhFDDfWx4TIV/ZqaOB2DDFWYYqhrzTNNvl43tpDdKO&#xA;izRrIPH9oHFUkuPy0/Li5INz5U0ecgkgyafavuev2oziqiPyn/KwGo8m6GCP+1baf9U8VTvTfL2g&#xA;aX/xzNNtbH/mGgjh8f5FXxOKo/FXYq7FXYq89tW+t/n5fuoJTSvLNvbu/VVkvb55SvsSlup9/oxV&#xA;6FirsVdirsVdirsVdirHvzE0+81HyD5jsbIFry4027jtkH7chhbgh8QzfCR4Yqm2kalb6ppNlqds&#xA;a219BFcwnrVJkDr+DYqi8VdirsVdirsVdirsVdirsVdirDvzMI06w03zWgpJ5bvormdht/oNwfqt&#xA;8G/yVgmMtPFFxVmOKvNtE8ua55a/OXV57CzeTyl5utRfXkyn4LXVbY8HJHYXEZ5Hxb5Yq9JxV2Ku&#xA;xV2KuxV2KuxV2KuxVasUSu7qiq8lObAAFqCgqe9MVXYq7FXYq7FXYq7FXYq7FWK+QWWyi1TyyRxb&#xA;QLx4bZen+hXI+s2nEfyxxy+gPeM4qyrFXYq7FXYq7FXYq7FXYq7FXYqgtc0m21jRdQ0i63ttRtpr&#xA;ScUr+7njMbbfJsVSX8stXudW8gaFeXhrfi1S3vz/AMvVrW3uP+S0TYqyfFXYq7FXYq7FXYq7FXYq&#xA;7FXYq7FXYq7FXYq7FXYq7FXYq7FWIa1XSPzB0XVhRbTXYn0S/P8AxfGHu7FyfAcbiP5uoxVl+Kux&#xA;V2KuxV2KuxV2KuxV2KuxV2KsK/Lb/RLvzdoZ+H9G67cywx+EOpRx6ipHsZLqQfRirNcVdirsVdir&#xA;sVdirsVdirsVdirsVdirsVdirsVdirsVdirsVY5+YejXereUNQgsBXVbZUvtJNKkXtk63Nt/wUsS&#xA;qfYnFU20PV7XWdF0/WLQ1tNRtoru3P8AxXOgkX8GxVG4q7FXYq7FXYq7FXYq7FXYq7FWHacn1H81&#xA;9aiAIi1nSbG8Tw9azmnt5iP+ec0GKsxxV2KuxV2KuxV2KuxV2KuxV2KuxV2KuxV2KuxV2KuxV2Ku&#xA;xV2KsT/LdWtNL1LRGFP0Hql5Zxr4QSOLy1X/AGNtdRgYqyzFXYq7FXYq7FXYq7FXYq7FXYqxvU9O&#xA;vj5+0HVbeDnbRWGpWV7MNgizvaTRV8fjtiB8zirJMVdirsVdirsVdirsVdirsVdirsVdirsVdirs&#xA;VdirsVdirsVdirHdFt3tfOPmRODLFeiyv1cq3BnaFrV6N9ksFtEqOo2r1GKsixV//9k=</xmpGImg:image>
               </rdf:li>
            </rdf:Alt>
         </xmp:Thumbnails>
      </rdf:Description>
      <rdf:Description rdf:about=""
            xmlns:xmpMM="http://ns.adobe.com/xap/1.0/mm/"
            xmlns:stRef="http://ns.adobe.com/xap/1.0/sType/ResourceRef#"
            xmlns:stEvt="http://ns.adobe.com/xap/1.0/sType/ResourceEvent#">
         <xmpMM:RenditionClass>proof:pdf</xmpMM:RenditionClass>
         <xmpMM:OriginalDocumentID>uuid:65E6390686CF11DBA6E2D887CEACB407</xmpMM:OriginalDocumentID>
         <xmpMM:DocumentID>xmp.did:008011740720681188C69098C6AB8D67</xmpMM:DocumentID>
         <xmpMM:InstanceID>xmp.iid:008011740720681188C69098C6AB8D67</xmpMM:InstanceID>
         <xmpMM:DerivedFrom rdf:parseType="Resource">
            <stRef:instanceID>uuid:90d34ccc-9a47-4b5a-a535-54c2795faeb2</stRef:instanceID>
            <stRef:documentID>xmp.did:4B5849C1B991E411B302A3F1D496D077</stRef:documentID>
            <stRef:originalDocumentID>uuid:65E6390686CF11DBA6E2D887CEACB407</stRef:originalDocumentID>
            <stRef:renditionClass>proof:pdf</stRef:renditionClass>
         </xmpMM:DerivedFrom>
         <xmpMM:History>
            <rdf:Seq>
               <rdf:li rdf:parseType="Resource">
                  <stEvt:action>saved</stEvt:action>
                  <stEvt:instanceID>xmp.iid:FDDACBA380A7E311AD04B10BEB4FC0E2</stEvt:instanceID>
                  <stEvt:when>2014-03-09T13:47:55+02:00</stEvt:when>
                  <stEvt:softwareAgent>Adobe Illustrator CS5</stEvt:softwareAgent>
                  <stEvt:changed>/</stEvt:changed>
               </rdf:li>
               <rdf:li rdf:parseType="Resource">
                  <stEvt:action>saved</stEvt:action>
                  <stEvt:instanceID>xmp.iid:E4CF64CBA0A7E311AD04B10BEB4FC0E2</stEvt:instanceID>
                  <stEvt:when>2014-03-09T18:35:49+02:00</stEvt:when>
                  <stEvt:softwareAgent>Adobe Illustrator CS5</stEvt:softwareAgent>
                  <stEvt:changed>/</stEvt:changed>
               </rdf:li>
               <rdf:li rdf:parseType="Resource">
                  <stEvt:action>saved</stEvt:action>
                  <stEvt:instanceID>xmp.iid:4B5849C1B991E411B302A3F1D496D077</stEvt:instanceID>
                  <stEvt:when>2015-01-01T15:31:28+02:00</stEvt:when>
                  <stEvt:softwareAgent>Adobe Illustrator CS5</stEvt:softwareAgent>
                  <stEvt:changed>/</stEvt:changed>
               </rdf:li>
               <rdf:li rdf:parseType="Resource">
                  <stEvt:action>saved</stEvt:action>
                  <stEvt:instanceID>xmp.iid:008011740720681188C69098C6AB8D67</stEvt:instanceID>
                  <stEvt:when>2015-02-12T16:01:30+02:00</stEvt:when>
                  <stEvt:softwareAgent>Adobe Illustrator CS5.1</stEvt:softwareAgent>
                  <stEvt:changed>/</stEvt:changed>
               </rdf:li>
            </rdf:Seq>
         </xmpMM:History>
      </rdf:Description>
      <rdf:Description rdf:about=""
            xmlns:illustrator="http://ns.adobe.com/illustrator/1.0/">
         <illustrator:StartupProfile>Web</illustrator:StartupProfile>
      </rdf:Description>
      <rdf:Description rdf:about=""
            xmlns:xmpTPg="http://ns.adobe.com/xap/1.0/t/pg/"
            xmlns:stDim="http://ns.adobe.com/xap/1.0/sType/Dimensions#"
            xmlns:xmpG="http://ns.adobe.com/xap/1.0/g/">
         <xmpTPg:NPages>1</xmpTPg:NPages>
         <xmpTPg:HasVisibleTransparency>False</xmpTPg:HasVisibleTransparency>
         <xmpTPg:HasVisibleOverprint>False</xmpTPg:HasVisibleOverprint>
         <xmpTPg:MaxPageSize rdf:parseType="Resource">
            <stDim:w>144.999935</stDim:w>
            <stDim:h>144.641300</stDim:h>
            <stDim:unit>Millimeters</stDim:unit>
         </xmpTPg:MaxPageSize>
         <xmpTPg:PlateNames>
            <rdf:Seq>
               <rdf:li>Cyan</rdf:li>
               <rdf:li>Magenta</rdf:li>
               <rdf:li>Yellow</rdf:li>
               <rdf:li>Black</rdf:li>
            </rdf:Seq>
         </xmpTPg:PlateNames>
         <xmpTPg:SwatchGroups>
            <rdf:Seq>
               <rdf:li rdf:parseType="Resource">
                  <xmpG:groupName>Default Swatch Group</xmpG:groupName>
                  <xmpG:groupType>0</xmpG:groupType>
               </rdf:li>
            </rdf:Seq>
         </xmpTPg:SwatchGroups>
      </rdf:Description>
      <rdf:Description rdf:about=""
            xmlns:pdf="http://ns.adobe.com/pdf/1.3/">
         <pdf:Producer>Adobe PDF library 9.90</pdf:Producer>
      </rdf:Description>
   </rdf:RDF>
</x:xmpmeta>
                                                                                                    
                                                                                                    
                                                                                                    
                                                                                                    
                                                                                                    
                                                                                                    
                                                                                                    
                                                                                                    
                                                                                                    
                                                                                                    
                                                                                                    
                                                                                                    
                                                                                                    
                                                                                                    
                                                                                                    
                                                                                                    
                                                                                                    
                                                                                                    
                                                                                                    
                                                                                                    
                           
<?xpacket end="w"?>
	</metadata>
<g>
	<path d="M23.942,0c0.148,0,0.296,0,0.443,0c16.881,11.113,28.711,27.279,41.881,42.104c6.156,5.2,12.068,10.943,18.615,15.953
		c6.457,4.941,12.764,9.646,20.607,13.961c5.238,2.882,10.662,5.51,16.619,6.426c3.181,0.489,6.209,0.407,9.085,1.107
		c2.917,0.712,5.621,2.391,8.865,2.882c0.676,0.103,1.323-0.136,1.993,0c6.089,1.244,18.588,0.848,23.932,0.666
		c3.017-0.104,4.959-1.435,6.866-2.884c3.113-8.124,7.88-15.664,11.967-23.044c0.761-1.373,0.821-3.443,2.435-4.211
		c0.552,2.914-1.952,5.302-3.321,7.755c-1.419,2.544-2.283,5.479-3.767,7.98c-2.104,3.539-4.956,7.65-6.203,12.408
		c-1.141,0.782-2.285,1.557-3.324,2.438c-10.616,0.162-26.947,1.991-37.007-1.995c1.712,2.572,5.297,5.191,7.535,7.977
		c-4.267-2.142-7.088-8.185-12.409-9.528c-3.568-0.901-7.12-0.706-10.415-1.551c-8.747-2.246-14.694-6.607-21.495-10.859
		c-6.204-3.877-11.999-7.803-17.284-12.63c-5.067-4.626-11.032-9.303-15.735-14.183c-3.292-3.419-6.324-7.087-9.306-10.635
		c-3.075-3.661-6.076-7.135-9.308-10.638C38.945,12.705,31.894,6.781,24.164,0.664C23.906,0.628,23.977,0.26,23.942,0z"/>
	<path d="M294.278,71.796c1.223,0.941-0.345,3.36-0.885,4.876c-2.983,8.377-7.659,17.527-10.415,26.591
		c-1.324,1.767-1.857,4.001-2.882,6.425c-0.835,1.982-2.905,4.549-2.658,6.425c0.206,1.561,4.272,4.53,5.76,5.762
		c6.281,5.199,12.675,11.731,18.615,15.956c1.061,1.453,1.978,3.043,3.989,3.544c6.548,7.486,13.852,14.217,19.942,22.159
		c1.159,0.393,2.321,0.78,3.101,1.552c2.341,0.024,3.723,1.006,5.765,1.329c0.645-0.056,0.763,0.416,1.106,0.664
		c7.997,2.056,16.314,4.681,23.49,7.977c1.935,0.892,3.516,2.234,5.76,3.323c0.802,0.391,2.808,0.395,2.215,2.217
		c-1.4-0.077-2.033-0.92-2.658-1.771c-2.436-0.814-4.581-1.922-6.428-3.325c-10.496-4.497-23.049-6.938-33.682-11.301
		c-13.347-18.12-30.911-32.02-47.862-46.535c-1.946,4.439-3.764,9.445-5.319,14.181c-0.771,2.341-1.285,4.879-2.882,6.648
		c4.73-17.241,11.914-30.916,17.95-47.201c1.651-4.458,4.101-7.891,4.875-13.072c1.406-1.328,1.958-3.508,2.435-5.763
		c-0.061-0.357,0.212-0.382,0.223-0.665C293.987,71.796,294.134,71.796,294.278,71.796z"/>
	<path d="M42.556,83.541c0.424,0.388,1.363,0.26,1.329,1.107C43.418,84.302,42.656,84.253,42.556,83.541z"/>
	<path d="M146.041,94.399c0.716,0.17,1.16,0.614,1.329,1.329C146.984,95.229,146.108,95.219,146.041,94.399z"/>
	<path d="M125.212,152.457c-11.102,3.007-19.453,8.764-27.699,14.626c3.528-3.604,7.964-6.257,12.408-8.864
		C114.251,155.679,119.285,153.179,125.212,152.457z"/>
	<path d="M299.597,160.656c-12.773-1.007-29.647-0.016-42.102-0.222c-0.42-0.046-2.191,0.15-1.554-0.221c0.667,0,1.331,0,1.997,0
		C273.08,160.114,286.397,158.876,299.597,160.656z"/>
	<path d="M93.078,171.293c0.599,1.83-2.606,3.558-3.101,5.761c0.909-0.056,3.542-0.296,4.432-1.109
		c11.967-2.596,26.271-2.63,40.774-1.992c8.686,0.38,17.412,0.121,24.818,2.438c21.339,2.443,39.528,8.034,53.396,17.947
		c1.45,2.167,5.524,1.717,5.76,5.097c-6.255-2.624-11.556-6.693-17.728-9.75c-12.184-6.035-27.242-9.254-42.982-11.522
		c-7.636-1.102-15.294-0.964-23.267-1.771c-0.96-0.098-0.935-0.387-1.552-0.445c-17.349-1.607-31.51,1.371-45.649,3.989
		c-8.363,12.802-11.725,34.446-8.419,53.847c16.416,0.446,38.086,1.181,56.506,0.443c1.817-0.072,4.072-1.127,4.211,1.773
		c-21.401,1.521-39.883-0.308-59.831,0.885c0.182,1.664,0.789,2.905,0.887,4.654c-0.82-1.396-0.775-3.655-1.552-5.098
		c-3.584,0.134-8.863-0.628-13.074-0.886c-1.552-0.094-4.3,0.701-4.211-1.329c0.238-1.611,2.482-0.545,3.544-0.443
		c4.299,0.411,9.387,0.657,13.075,0.443c-3.393-17.829-0.207-41.117,7.535-53.847c-7.385,1.466-13.574,4.772-19.28,7.756
		c-1.57,0.821-2.977,2.931-5.096,1.994c-0.476-2.783,3.688-2.799,4.875-4.653c6.372-3.453,13.343-6.306,21.495-7.978
		C90.152,175.455,91.706,173.464,93.078,171.293z"/>
	<path d="M153.132,222.481c1.049-0.118,0.604,1.254,0.441,1.771C152.787,223.906,153.532,223.31,153.132,222.481z"/>
	<path d="M159.337,224.031c-0.788-0.173-1.275-0.645-1.993-0.885c-0.178-0.843,1.047-0.283,1.551-0.444
		C158.787,223.401,159.574,223.205,159.337,224.031z"/>
	<path d="M159.337,222.702c0.701,0.039,0.603,0.877,0.666,1.551C159.77,223.746,159.31,223.469,159.337,222.702z"/>
	<path d="M161.33,223.81c0.846,0.705,1.732,1.371,2.659,1.995c-0.917,0.007-0.608,0.551-1.108,1.106
		c-0.489-0.025-0.095-0.938-0.221-1.327c-0.41,0.032-0.136,0.75-0.444,0.886c-0.429-0.604-0.846-1.223-1.772-1.328
		c0.059-0.52,0.974-0.129,1.108,0C161.715,224.463,161.171,224.488,161.33,223.81z"/>
	<path d="M156.899,224.031c0.675-0.009,0.862,0.469,1.33,0.665C158.028,225.095,156.959,224.506,156.899,224.031z"/>
	<path d="M155.127,224.473c0,0.223,0,0.445,0,0.666c0.393-0.051,1.11,0.222,0.885-0.443c0.515-0.072,0.853,0.035,1.109,0.223
		c-0.539,0.71-0.271,0.78,0,1.551c-0.836,0.739-1.17-1.022-1.552,0c-0.651-0.188,0.288-0.559,0-1.108
		c-0.396-0.062-0.455,0.21-0.222,0.223c-0.417,0.557-0.805-0.177-0.442-0.665c-0.625,0.259-0.941,0.044-1.552-0.223
		C153.772,223.955,154.249,224.555,155.127,224.473z"/>
	<path d="M152.024,224.473c0,0.297,0,0.592,0,0.887c-0.635,0.043-1.209,0.027-1.108-0.664
		C151.451,224.786,151.399,224.292,152.024,224.473z"/>
	<path d="M145.82,225.361c0.484-0.039,0.705,0.184,0.665,0.665c-0.443,0-0.885,0-1.328,0
		C145.067,225.496,146.164,226.149,145.82,225.361z"/>
	<path d="M145.599,226.469c0.908-0.103-0.092,0.474,0.221,1.108c-1.339,0.369-2.139,3.316-3.324,5.098
		C142.662,229.737,144.573,228.548,145.599,226.469z"/>
	<path d="M161.33,226.469c-0.296,0.367-0.564,0.762-1.107,0.887C160.423,226.867,160.105,226.318,161.33,226.469z"/>
	<path d="M163.767,226.469c0.454,0.422,0.446,0.962,0.222,1.552C163.538,227.597,163.546,227.058,163.767,226.469z"/>
	<path d="M152.911,226.69c0.472-0.104,0.422,0.317,0.443,0.666c-0.37,0-0.739,0-1.107,0
		C152.314,226.477,153.015,227.603,152.911,226.69z"/>
	<path d="M149.364,227.578c-0.106,0.697,0.681,0.502,0.445,1.329c-0.86,0.192-0.363-0.967-1.33-0.665
		c-0.46,0.057-0.06,0.975-0.443,1.107C147.142,228.732,147.957,227.223,149.364,227.578z"/>
	<path d="M165.099,227.578c1.153,1.84,2.069,2.911,1.993,6.203c15.421,0.906,33.474,1.971,48.742,3.325
		c0.221,0.79,1.14,1.125,0.665,1.994c-15.68-1.154-33.958-2.313-49.629-3.102c-1.192,4.721-3.867,9.129-8.42,9.75
		c4.087-0.949,9.517-8.014,8.2-14.182C166.323,230.038,164.345,229.591,165.099,227.578z"/>
	<path d="M163.991,228.465c0,0.369,0,0.738,0,1.106c-1.037-0.036-0.735-0.569-1.772-0.221c0-0.221,0-0.442,0-0.664
		C162.54,228.343,163.352,228.491,163.991,228.465z"/>
	<path d="M164.212,229.795c1.014,0.065,0.107,1.417-0.665,1.106C163.566,230.329,164.494,230.668,164.212,229.795z"/>
	<path d="M157.123,231.122c-1.371,0.11-2.641,0.314-3.548,0.887c-0.406,0.627-0.66,1.407-1.107,1.996
		c-0.143,0.893,0.289,2.355-0.221,2.88c0-0.96,0-1.921,0-2.88c0.187-0.847,0.657-1.411,0.885-2.217
		C154.189,231.544,156.215,230.056,157.123,231.122z"/>
	<path d="M161.33,231.566c0.638,0.251,0.823,0.949,0.886,1.772C161.787,232.883,161.601,232.184,161.33,231.566z"/>
	<path d="M142.052,234.668c0.358-0.061,0.382,0.208,0.666,0.223c-0.894,0.885-1.277,2.937-0.223,3.987
		C140.72,238.718,141.385,235.525,142.052,234.668z"/>
	<path d="M149.143,234.668c0.318,0.354-0.312,1.984,0.221,2.66C148.609,237.167,148.867,235.163,149.143,234.668z"/>
	<path d="M162.883,235.554c0.775,3.368-3.229,6.956-7.091,6.426C159.397,241.083,162.725,239.903,162.883,235.554z"/>
	<path d="M142.496,240.65c0.188,1.364,0.6,2.503,1.108,3.545c-0.578-0.454-0.883-1.186-1.552-1.55
		C142.069,241.848,141.873,240.841,142.496,240.65z"/>
	<path d="M151.36,242.204c1.192-0.005,1.158,2.229-0.221,1.992C151.902,243.528,151.791,243.181,151.36,242.204z"/>
	<path d="M82.443,245.305c1.437,1.962,2.364,4.431,3.324,6.869c3.565,5.518,5.95,12.222,10.416,16.842
		c1.65,2.767,3.478,5.785,5.761,8.197c0.608,0.644,2.065,1.046,1.772,2.217C94.695,269.986,87.719,258.496,82.443,245.305z"/>
	<path d="M145.377,245.526c1.656,0.855,2.926,2.095,5.097,2.438C148.458,248.352,146.429,246.838,145.377,245.526z"/>
	<path d="M340.595,246.413c-2.31,0.746-4.513-0.938-6.872,0C335.402,245.021,338.302,246.132,340.595,246.413z"/>
	<path d="M333.281,245.969c-1.594,0.991-3.371,1.799-4.653,3.101C328.809,247.552,331.151,246.281,333.281,245.969z"/>
	<path d="M337.27,247.078c0.279,0.054,0.224,0.44,0,0.441c-0.069,0.588,1.24-0.208,0.885,0.665c-0.55,0.289-0.918-0.65-1.106,0
		C336.379,247.915,337.206,247.341,337.27,247.078z"/>
	<path d="M338.378,247.52c0.811,0.049,0.852,0.306,1.553,0c0.287,0.522-0.029,0.414,0.221,1.108
		C339.322,247.641,338.839,248.877,338.378,247.52z"/>
	<path d="M330.623,249.737c0.807-0.661,0.283,1.884-0.222,1.992C329.46,251.06,331.308,250.153,330.623,249.737z"/>
	<path d="M346.135,249.515c0.619,0.416,0.83,1.238,1.328,1.771C346.859,251.73,346.185,250.36,346.135,249.515z"/>
	<path d="M326.412,250.844c0.736,0.574-0.71,2.645-1.329,3.323C324.849,253.264,326.165,252.005,326.412,250.844z"/>
	<path d="M331.509,251.288c0.262,0.256,0.782,0.251,1.329,0.221C332.787,252.219,331.402,252.017,331.509,251.288z"/>
	<path d="M348.57,252.617c0.894,0.217,0.779,1.438,0.889,2.438C348.933,254.472,348.727,253.569,348.57,252.617z"/>
	<path d="M334.833,254.389c0.496,0.16,0.729,1.287-0.221,1.329C334.606,255.198,334.994,255.066,334.833,254.389z"/>
	<path d="M338.378,254.834c-0.45,0.805-1.5,1.011-1.994,1.771c-0.159-0.677,0.382-0.65,0.223-1.328
		C337.588,255.52,337.707,254.902,338.378,254.834z"/>
	<path d="M324.64,255.94c0.242,0.662-0.08,2.933-0.225,3.325C323.316,258.665,324.45,256.706,324.64,255.94z"/>
	<path d="M349.901,257.493c0.729,0.64,0.483,2.61-0.221,3.323C350.058,259.48,349.619,258.731,349.901,257.493z"/>
	<path d="M327.741,258.599c0.495,0.097,0.79,0.393,0.887,0.888c-0.988-0.547-0.699,0.412-0.887,0.665
		C326.643,260.039,327.867,259.138,327.741,258.599z"/>
	<path d="M329.959,258.599c0,0.371,0,0.74,0,1.109c-0.396-0.027-0.47,0.271-0.889,0.221c-0.542-0.295,0.245-0.824-0.222-0.886
		C329.037,258.716,329.563,258.722,329.959,258.599z"/>
	<path d="M343.031,260.816c0.523,2.336-4.476,3.573-6.206,1.772C339.107,263.535,342.457,262.913,343.031,260.816z"/>
	<path d="M349.901,261.925c0.603,0.619-0.261,1.648-0.442,2.217C348.925,263.594,349.793,262.564,349.901,261.925z"/>
	<path d="M323.973,262.147c0.512,0.449,0.597,1.326,0.667,2.216C323.988,264.051,323.958,263.123,323.973,262.147z"/>
	<path d="M335.941,263.919c-0.483,0.448-1.892-0.03-1.108,1.108c-0.795,0.13-0.674-0.657-0.667-1.33
		C334.862,263.353,335.405,263.555,335.941,263.919z"/>
	<path d="M336.384,263.919c0.667,0.012,0.643,1.574-0.222,1.329C336.418,264.987,336.413,264.466,336.384,263.919z"/>
	<path d="M325.748,265.913c0.432,0.456,0.616,1.154,0.886,1.772C325.731,267.701,325.677,266.866,325.748,265.913z"/>
	<path d="M345.248,269.903c-0.216,0.005-0.173,0.271-0.221,0.441c-0.442,0-0.887,0-1.33,0c0.145-0.298,0.474-0.412,0.888-0.441
		c0-0.296,0-0.593,0-0.885c-0.164-0.209-0.402-0.338-0.667-0.445c-0.582-0.067-0.726,0.308-0.665,0.887
		c-0.721,0.04-1.065-0.522-1.106,0.443c-0.601,0.158,0.159-1.045-0.443-0.885C342.887,268.064,345.157,267.662,345.248,269.903z"/>
	<path d="M330.623,270.788c3.168,0.728,7.397,1.844,11.523,0.665c-1.962,1.732-5.606,0.38-7.312,1.108
		C333.801,272.048,332.013,271.539,330.623,270.788z"/>
	<path d="M47.212,87.085c0.195-0.253,1.398,0.362,1.549,0.888C47.953,87.969,47.765,87.342,47.212,87.085z"/>
	<path d="M52.085,90.853c0.999-0.254,2.21,1.184,2.659,2.215C53.69,92.498,53.309,91.254,52.085,90.853z"/>
	<path d="M55.632,93.512c0.707,0.546,1.158,1.354,1.995,1.773C56.85,95.683,56,94.259,55.632,93.512z"/>
	<path d="M60.284,98.165c1.728,0.786,2.557,2.55,3.766,3.988c2.338,2.777,4.701,5.141,6.869,8.422
		c1.729,2.61,3.312,5.014,5.098,7.976c3.688,6.121,7.044,12.75,10.417,18.836c1.527,4.148,3.626,9.854,5.096,15.068
		c0.933,3.308,2.013,5.765-0.222,7.978c1.417-4.371-0.734-9.026-2.215-13.518C82.929,128.266,71.878,110.908,60.284,98.165z"/>
	<path d="M150.474,98.831c0.679-0.447,1.492,0.863,2.437,0.886c4.808,5.542,14.261,7.065,21.715,10.86
		c6.47,3.292,12.883,5.697,18.61,9.083c3.803,3.732,9.139,5.929,12.405,10.194c-3.492-3.301-9.128-6.379-13.07-9.971
		c-12.213-6.696-26.383-11.434-38.775-17.949C153.124,100.465,151.853,99.593,150.474,98.831z"/>
	<path d="M151.58,222.038c-0.356-0.873,1.043,0.839,0.888,0.443c0.487,0.027,0.094,0.939,0.221,1.329
		c-0.721,0.013,0.006-1.136-0.665-0.443C151.279,223.026,152.526,222.068,151.58,222.038z"/>
	<path d="M151.139,222.038c0.132,0.394-0.651,0.919,0,1.108c-1.158-0.027-3.872,0.765-3.768,2.438
		c-0.846-0.278,0.037-0.91-0.442-1.553C148.032,225.251,148.872,221.737,151.139,222.038z"/>
	<path d="M150.474,230.901c-0.517-1.246,1.626-1.575,2.659-1.994c-0.145-0.227-0.51-0.23-0.444-0.665
		c1.525,1.219,4.291,0.96,6.205,0.443c0.104,0.919,1.606,1.595,2.438,2.437C159.117,229.373,153.276,228.374,150.474,230.901z"/>
	<path d="M150.474,231.344c-0.317,1.086-0.79,2.018-1.109,3.102C149.156,233.716,149.606,231.739,150.474,231.344z"/>
	<path d="M149.587,242.646c-0.472-0.139-0.207-1.365,0-1.552c0.295,0,0.59,0,0.887,0c0.307,0.135,0.033,0.854,0.442,0.886
		C150.994,242.412,149.177,241.337,149.587,242.646z"/>
	<path d="M342.809,247.52c0.39-0.518,0.915,0.695,1.553,0.665C344.125,248.549,343.027,247.91,342.809,247.52z"/>
	<path d="M335.941,247.52c0.146,0,0.297,0,0.442,0c-0.04,0.189,0.086,0.209,0.223,0.224c-0.243,0.57-1.431,0.192-1.773,0.663
		c-0.33-0.095,0.086-0.283,0-0.663C335.396,247.5,335.973,248.5,335.941,247.52z"/>
	<path d="M332.394,249.292c-0.886-0.071-0.467,1.159-0.886,1.553c0.075-0.793-0.47-1.56-0.441-2.88
		c1.752-1.024,2.327,0.875,3.768,0.885c0.438,0.864-0.411,1.416-0.888,1.995c-0.29-0.226-0.817-0.217-1.108-0.442
		C333.374,249.887,332.662,249.638,332.394,249.292z M331.73,249.071c0.373-0.313,0.974,0.054,1.108-0.885
		C332.035,247.916,331.003,248.543,331.73,249.071z"/>
	<path d="M346.799,259.929c0.676-1.352-0.577-3.046-1.993-2.216C345.133,255.665,349.021,258.812,346.799,259.929z"/>
	<path d="M334.833,261.481c0.404-0.39,1.219,0.692,1.773,0.887C336.069,262.89,335.391,261.673,334.833,261.481z"/>
	<path d="M328.628,264.141c0.365,0.345-0.077,0.864-0.224,1.327c-0.213-0.005-0.171-0.271-0.222-0.441
		c-0.314-0.018-0.627-0.037-0.665,0.221C327.276,265.134,327.8,263.918,328.628,264.141z"/>
	<path d="M337.713,270.566c-0.153-0.521-0.506-1.404,0.442-1.327c-0.287,0.953,0.631,0.699,0.887,1.106
		C339.653,270.633,338.089,270.145,337.713,270.566z"/>
	<path d="M48.539,145.587c0.18,0.042,0.221,0.223,0.442,0.222c2.846,17.996,7.231,36.573,8.199,56.063
		c0.974,19.621,2.368,39.216,4.209,58.501c0.914,9.562,2.594,18.362,5.541,26.592c5.753,16.068,10.792,31.451,19.278,44.982
		c3.041,4.851,5.556,10.345,7.978,15.956c0.751,1.742,2.479,3.684,1.772,5.761c-2.376,0.54-2.972-2.134-3.545-3.546
		c-0.7-1.721-1.525-3.379-2.216-4.874c-3.592-7.772-7.853-15.107-11.965-23.047c-3.463-6.686-6.592-14.67-9.528-22.824
		c-2.233-6.203-4.857-12.486-6.425-18.836c-1.706-6.899-2.593-14.496-3.325-22.159c-1.388-14.536-2.813-29.744-3.766-46.091
		c-0.458-7.828-0.109-15.56-1.331-23.045c-1.205-7.381-2.479-14.769-3.322-21.938c-0.846-7.178-3.585-13.921-3.323-21.051
		C47.662,146.04,48.088,145.799,48.539,145.587z"/>
	<path d="M220.045,167.968c-1.89,0.376-2.62-1.719-3.768-2.659c-1.254-1.03-2.924-1.663-4.208-2.659
		c-1.3-1.008-2.174-2.496-3.545-3.324c-6.927-4.184-14.855-7.861-22.601-11.745c-3.574-1.791-8.007-3.163-12.184-4.654
		c-4.062-1.448-8.281-3.087-12.41-4.432c-6.525-2.129-14.048-3.092-21.271-4.211c-15.732-2.434-30.376-2.27-46.535-0.885
		c-2.293,0.195-4.871,0.84-7.091,0c0.362-2.833,4.521-2.187,7.091-2.438c22.163-2.163,43.104-0.332,64.705,4.654
		c5.744,1.326,11.405,3.829,17.061,5.761c4.197,1.434,8.243,3.053,12.186,4.875c4.288,1.982,8.024,3.989,12.187,6.205
		c2.916,1.552,6.035,2.625,8.419,4.211c2.251,1.495,4.189,3.731,6.425,5.318C216.694,163.539,220.087,164.694,220.045,167.968z"/>
	<path d="M227.138,160.656c0.146,0,0.292,0,0.441,0c-2.358,32.993-2.075,68.811-2.438,103.485
		c-0.146,14.05-0.873,28.559-1.328,42.103c-0.344,10.183-0.987,20.784-1.994,30.359c-0.239,2.262,0.076,7.073-2.881,7.312
		c-1.21-0.41-0.041-1.863,0.221-3.102c0.242-1.153,0.54-2.663,0.664-3.769c0.673-5.846,0.697-11.609,1.108-17.284
		c0.593-8.131,1.094-18.478,1.11-28.584c0.016-12.759,1.107-26.034,1.107-39.447c0-13.922,0.251-27.733,0.442-40.993
		c0.191-13.284-0.051-26.221,0.664-38.114c0.059-0.963,0.497-11.585,1.994-11.967C226.285,160.646,227.253,160.388,227.138,160.656z
		"/>
	<path d="M115.462,289.403c-3.198-2.938-9.19-6.17-11.524-9.972c3.125,2.521,6.265,5.515,9.972,7.976
		c1.204,0.8,2.22,1.911,3.324,2.438c1.955,0.935,5.309,1.4,8.199,1.995c2.99,0.615,6.227,0.613,9.084,0.885
		c5.854,0.562,11.938,1.324,17.063,1.553c13.144,0.584,27.174-0.594,38.774-4.212c8.889-2.77,17.813-7.779,24.816-12.407
		c0.985,0.346,1.717,0.942,1.995,1.994c-5.352,4.028-12.563,6.197-17.946,10.194c-12.484,4.863-26.776,9.063-42.321,9.085
		c-18.776,0.027-35.922-7.291-52.96-9.972c-3.557-2.104-9.633-2.695-14.181-4.211c-4.216-1.404-8.183-3.361-12.188-4.876
		c-4.037-1.525-7.927-3.313-11.743-5.097c0.148-0.589,0.349-1.127,0.663-1.551C81.679,279.751,97.571,285.576,115.462,289.403z
		 M133.411,295.163c14.038,4.086,32.747,3.982,46.975,0.224c0.248-0.32,0.239-0.542-0.222-0.665
		C165.532,297.592,147.182,296.252,133.411,295.163z"/>
	<path d="M213.177,313.113c-13.378,8.172-29.82,14.454-49.631,17.063c-6.259,0.823-12.689,1.979-18.835,1.994
		c-17.922,0.037-35.338-2.22-51.631-5.762c-0.102-1.394-8.219-1.443-7.756-3.323c0.433-1.752,2.443-0.058,3.325,0.221
		c1.697,0.537,3.751,0.718,4.431,0.886c6.247,1.555,10.917,2.634,17.063,3.546c3.167,0.472,6.354,1.313,9.307,1.551
		c14.816,1.2,28.092,1.448,40.995-0.887c10.497-0.624,21.225-3.548,30.798-7.091c3.479-1.287,6.817-2.716,9.97-4.432
		c3.357-1.826,6.896-3.077,9.526-4.655C211.705,311.648,212.621,311.656,213.177,313.113z"/>
	<path d="M366.077,275.885c0.188-0.04,0.208,0.087,0.222,0.222c-0.197,4.203-1.832,7.448-3.989,10.859
		c-3.146,4.977-6.688,8.359-10.192,12.853c-0.884,1.13-1.75,2.129-2.658,3.102c-3.125,3.349-6.962,7.058-10.192,10.417
		c-2.58,1.188-4.709,2.825-7.094,4.21c-1.075,6.493-4.418,11.394-3.324,18.392c1.384,8.827,5.403,18.065,8.422,26.592
		c4.623,13.071,9.459,26.258,10.192,41.881c-0.094,0.759,0.067,1.264,0.887,1.108c-0.094,0.495-1.093,0.09-1.551,0.222
		c-1.434-20.768-9.361-38.11-15.29-56.285c-1.678-5.142-3.88-10.143-3.989-14.847c-0.16-6.876,1.71-10.613,3.324-16.398
		c-7.669,1.946-15.967,4.367-24.818,2.659c-3.107-0.6-7.273-2.294-10.859-3.545c-4.653-1.624-8.831-2.649-11.301-5.098
		c-3.997-1.614-7.541-3.686-10.415-6.424c7.595,4.947,17.441,9.772,27.923,12.187c3.86,0.888,8.043,2.438,12.628,2.438
		c5.169,0,12.682-1.717,16.621-3.546c7.126-3.311,11.993-8.878,17.506-13.737c5.825-8.948,14.736-14.812,17.505-26.814
		C365.688,276.089,366.074,276.177,366.077,275.885z"/>
	<path d="M-39.656,25.262c0.187-0.042,0.208,0.085,0.221,0.221c3.909,6.947,10.225,13.025,14.847,19.722
		c4.217,6.106,8.928,11.978,13.296,17.948c4.374,5.98,8.441,12.486,13.074,18.393c9.599,12.241,14.904,25.334,21.274,41.438
		c3.003,7.594,6.228,15.416,7.977,23.268c1.981,8.896,2.619,18.178,3.988,27.258c1.301,8.622,3.396,17.277,4.875,25.925
		c3.309,19.35,1.513,38.531,3.766,57.616c1.091,9.242,1.84,18.883,4.655,26.813c3.465,9.758,6.06,19.932,10.192,29.027
		c2.407,5.294,4.199,11.328,6.427,17.063c2.902,7.475,6.24,14.827,8.642,22.604c3.763,12.18,5.91,25.358,8.199,38.779
		c0.373,2.19,0.601,4.537,0.885,6.868c0.25,2.03,1.136,4.688-0.221,6.648c-1.021-0.059-0.416-1.4-0.442-1.772
		c-0.373-4.802-1.068-9.409-1.995-14.181c-3.286-16.934-5.599-33.09-11.746-47.422c-3.974-9.27-7.079-19.021-11.079-28.364
		c-4.081-9.532-7.171-19.691-9.971-29.471c-2.979-10.397-4.441-21.405-5.096-32.575c-1.006-17.085-0.762-35.163-3.547-52.074
		c-1.751-10.638-4.445-21.379-5.761-33.24c-0.647-5.827-0.893-11.757-2.217-17.285c-1.469-6.135-3.769-11.99-5.763-17.948
		c-1.978-5.917-4.585-11.423-6.868-17.284c-2.307-5.918-4.501-11.55-7.534-16.619C-0.087,79.049-12.504,63.364-24.588,46.979
		c-3.505-4.756-6.455-8.55-10.414-13.52C-36.965,30.996-40.016,28.372-39.656,25.262z"/>
</g>
</svg>
