<?xml version="1.0" encoding="utf-8"?>
<!-- Generator: Adobe Illustrator 15.1.0, SVG Export Plug-In . SVG Version: 6.00 Build 0)  -->
<!DOCTYPE svg PUBLIC "-//W3C//DTD SVG 1.1//EN" "http://www.w3.org/Graphics/SVG/1.1/DTD/svg11.dtd">
<svg version="1.1" id="Layer_1" xmlns="http://www.w3.org/2000/svg" xmlns:xlink="http://www.w3.org/1999/xlink" x="0px" y="0px"
	 width="326.996px" height="334.081px" viewBox="-5.078 -3.543 326.996 334.081"
	 enable-background="new -5.078 -3.543 326.996 334.081" xml:space="preserve">
<metadata><?xpacket begin="﻿" id="W5M0MpCehiHzreSzNTczkc9d"?>
<x:xmpmeta xmlns:x="adobe:ns:meta/" x:xmptk="Adobe XMP Core 5.0-c060 61.134777, 2010/02/12-17:32:00        ">
   <rdf:RDF xmlns:rdf="http://www.w3.org/1999/02/22-rdf-syntax-ns#">
      <rdf:Description rdf:about=""
            xmlns:dc="http://purl.org/dc/elements/1.1/">
         <dc:format>image/svg+xml</dc:format>
         <dc:title>
            <rdf:Alt>
               <rdf:li xml:lang="x-default">3-7</rdf:li>
            </rdf:Alt>
         </dc:title>
      </rdf:Description>
      <rdf:Description rdf:about=""
            xmlns:xmp="http://ns.adobe.com/xap/1.0/"
            xmlns:xmpGImg="http://ns.adobe.com/xap/1.0/g/img/">
         <xmp:CreatorTool>Adobe Illustrator CS5.1</xmp:CreatorTool>
         <xmp:CreateDate>2015-02-13T12:12:18+02:00</xmp:CreateDate>
         <xmp:ModifyDate>2015-02-13T12:12:18+02:00</xmp:ModifyDate>
         <xmp:MetadataDate>2015-02-13T12:12:18+02:00</xmp:MetadataDate>
         <xmp:Thumbnails>
            <rdf:Alt>
               <rdf:li rdf:parseType="Resource">
                  <xmpGImg:width>252</xmpGImg:width>
                  <xmpGImg:height>256</xmpGImg:height>
                  <xmpGImg:format>JPEG</xmpGImg:format>
                  <xmpGImg:image>/9j/4AAQSkZJRgABAgEBMAEwAAD/7QAsUGhvdG9zaG9wIDMuMAA4QklNA+0AAAAAABABMMzNAAEA&#xA;AQEwzM0AAQAB/+4ADkFkb2JlAGTAAAAAAf/bAIQABgQEBAUEBgUFBgkGBQYJCwgGBggLDAoKCwoK&#xA;DBAMDAwMDAwQDA4PEA8ODBMTFBQTExwbGxscHx8fHx8fHx8fHwEHBwcNDA0YEBAYGhURFRofHx8f&#xA;Hx8fHx8fHx8fHx8fHx8fHx8fHx8fHx8fHx8fHx8fHx8fHx8fHx8fHx8fHx8f/8AAEQgBAAD8AwER&#xA;AAIRAQMRAf/EAaIAAAAHAQEBAQEAAAAAAAAAAAQFAwIGAQAHCAkKCwEAAgIDAQEBAQEAAAAAAAAA&#xA;AQACAwQFBgcICQoLEAACAQMDAgQCBgcDBAIGAnMBAgMRBAAFIRIxQVEGE2EicYEUMpGhBxWxQiPB&#xA;UtHhMxZi8CRygvElQzRTkqKyY3PCNUQnk6OzNhdUZHTD0uIIJoMJChgZhJRFRqS0VtNVKBry4/PE&#xA;1OT0ZXWFlaW1xdXl9WZ2hpamtsbW5vY3R1dnd4eXp7fH1+f3OEhYaHiImKi4yNjo+Ck5SVlpeYmZ&#xA;qbnJ2en5KjpKWmp6ipqqusra6voRAAICAQIDBQUEBQYECAMDbQEAAhEDBCESMUEFURNhIgZxgZEy&#xA;obHwFMHR4SNCFVJicvEzJDRDghaSUyWiY7LCB3PSNeJEgxdUkwgJChgZJjZFGidkdFU38qOzwygp&#xA;0+PzhJSktMTU5PRldYWVpbXF1eX1RlZmdoaWprbG1ub2R1dnd4eXp7fH1+f3OEhYaHiImKi4yNjo&#xA;+DlJWWl5iZmpucnZ6fkqOkpaanqKmqq6ytrq+v/aAAwDAQACEQMRAD8A9U4q7FXYq7FXYq7FXYq7&#xA;FXYq7FXYq7FXYq7FXYq7FXYq7FXYqwr81b+fRdH07zVEGaPy5qEN5fou5axlDWl2ad/ThuDL/sMV&#xA;ZnHJHLGskbB43AZHUgqykVBBHUHFV2KuxV2KuxV2KuxV2KuxV2KuxV2KuxV2KuxV2KuxV2KuxV2K&#xA;uxV2KuxV2KuxV2KuxV2KuxV2KuxVRvrK0v7K4sbyJZ7S6jeC4hfdXjkUq6t7Mppirz38qNSu9FuL&#xA;38tNalLal5cUNotxIfivdGdiLaUeLQ/3MlOhA8cVekYqxqXzHqFn+YEGg3qRjS9WsWn0e5VSH+t2&#xA;rf6VbyHkwblFIkibDZX60xVkuKuxV2KofUbWS70+5tY53tpLiJ4kuYjSSMupUOh/mWtRiqVeSvMT&#xA;69oEVzcIsOqWzyWWr2q/7pvbZvTnSnXjyHJPFCp74qnuKuxV2KuxV2KuxV2KuxV2Ksf8z2nmOGRN&#xA;Z8vSG4vLZONxos0hW3vIQSxVC3wwXAqeEnQ/Zeo4lFUb5b8x6V5i0mPU9NdmhdmjlikXhNDNGeMs&#xA;M0Z3SSNhxZT+rFUzxV2KuxV2KuxV2KuxV2KuxV2KuxV2KuxVh/5ieSbrXoLPVtDuF0/zfobtcaHq&#xA;DCqFmWklrPTcwTr8Ljt9odKYqiPInnu180Wc0U8DaZ5i01hDrmhTMDPaTfR9uKSnKKRfhZfeoCrv&#xA;zF8vahrHl8S6PxXzDpE8ep6G77D61b1PpMdqLPGXhf8AyXOKpj5T8z6f5m0C01mx5JHcKRLbyCks&#xA;EyHjLBKv7MkTgqw8Riqb4q7FXYq80803jeQPPMXmpzw8o+ZmhsfMp6JaX6gRWd+a7Kki0gmOwFEJ&#xA;xV6WCCKjcHocVdirsVdirsVdirsVdirsVdirBfNekax5e1aXzr5YtnvGdQPMnl+H7V9CgCi4twSF&#xA;F3Ag2/36vwHcLRVlPl7zDo/mLR7bWNHuVu9Pu15RSrt02ZWU7q6nZlO4OxxVMcVdirsVdirsVdir&#xA;sVYb5U8zXVvr955J1+cPrdmputLumoDf6a7ERyjpWaH+6mHiOfRtlWZYq7FXYq7FXYqxDzn+X0et&#xA;XkGvaNeNofm+xThZazCoYPHWptruLYTwMf2W3B3Ug4qgtA/MySHVIPLXnmzXy95mlPC1k5FtN1Aj&#xA;9qxuWoKt/vmSkgrTfFUD5nhuvy+8w3HnTTonl8q6m4PnHTogWNvJQKurQxjrQALcqvVaPSqnFXo1&#xA;tc291bxXNtKs1vOiyQzRkMjo45KysNiCDUHFVTFXYqg9Z0fTda0m70nU4FutPvomguYH6Mjih+R8&#xA;COhxV55+Wet6p5d1ub8r/M9w099YRG48r6pL11DS1NFVm73Ft9mQdSPi6VYqvT8VdirsVdirsVdi&#xA;rsVdirsVdirzzzD5a13yrrNz5u8k231uK8b1fMvlZTxW8IG93Z/speADcfZl7/FQ4qy3yt5r0LzR&#xA;o8WraLci4tJCUYEFJI5ENHiljajRuh2KsMVTbFXYq7FXYq7FUn8t66+qHVLe4RYr7Sb+axuo1rSg&#xA;CzW777/vLaaJ/mSMVed2nlX/AB9rHm3X/rUunXVlqkdj5S1eAD1bV9JiMMsqV2kikuZp0kjPwuoo&#xA;exxVk/lbz5cnUY/K/nCGPSfNoU+iFJ+p6iifansJWpy8Wib94ncU3xVmuKuxV2KuxV2Kpdr/AJd0&#xA;PzDpc2la3ZRX+nziklvMvIV7Mp6qw7MpBHbFXnLX2tfldcRWWvXU2t/lrdMIINWuv3t1pLSHisN6&#xA;/wDu60avFZWFU+y21DiqL8ryf4F82Q+UzIH8neYPUuPKFxXklrcU9WbTefT02Wstv7cl3oMVemYq&#xA;7FXYqw/8zfIr+atFhfTpxY+Z9HlF95d1MdYbpB9ljQ1ilHwSL0I3psMVRP5dedE83eW0v5YDY6ta&#xA;yPZa3pjfbtb6A8ZoTXtX4lPdSMVZPirsVdirsVWxyxSrzjdXWpXkpBFVJVhUeBFDiq7FXYq7FXYq&#xA;7FWA+avIurWesS+cfIkkdn5kcD9KaZKSljq0adEuAP7udR/dzjcdGqvRVOfI/nzSvNtlO0Ectjqt&#xA;g4g1jRrocLqznIrwkU9VPVHHwsOnfFWS4q7FXYq7FXkHmvzRe+XvzA8yaNo4EvmXzVZaR/h+3ArS&#xA;5kN7bTXUv/FdtDarI/stO+yr0zyz5fsfLvl+w0SxqbawhWJXbd3YbvI57vI5LMe5OKu8xeWdC8x6&#xA;a+m61Zx3toxDqr1DI6/ZkidSHjdf2XQhh2OKsM+pfmf5MFNOc+ePLqbizu5Vh1qBPCO4YCG7VR2l&#xA;4uenI4qm/lX81vJfmS7bTbe8aw12Pa40HUkazv427qYJaFqV6xlh74qy/FXYq7FXYqpXlpa3tpNZ&#xA;3cSz2twjRTwSAMjo44srA9QQaYq8ZHlo2FxcflJq13LHpd6p1H8uNdJLT2k1q3q/VBITyMlm9Hi3&#xA;+KKq17Yqz38vPOs2v2lzpusRLZebdEZbbX9OHRZKfBPDX7UE6jnGfo7Yqy7FXYq7FXm+uQL5N/My&#xA;w8ywD09E83tFo+voNlTUAD+j7sjxk3t3PumKvSMVdirsVdirC/MXlfXtNvJvMPkh449Skb1dS0Gc&#xA;8LLUv5iT/wAe9ye0y/a2EgIoVVTDyV580bzXaTG2WSz1SxYRatot2vp3lpNSvCWM9j1Vx8LDocVZ&#xA;JirsVdirsVdirB/Pn5fXGpXsPmryvOml+edOTjaXxB9G7hG5sr1R/eQv4/aQ/EvTFUx8g+ebXzZp&#xA;UkjW76drWnv9W1zRp9prS6AqyH+ZG+1G42Zd/EBVk+KuxV2KsB0HSbO6/OTzXrky/WLnT7DTNMs5&#xA;ZAtbcOJrm4iiI7P6kTnlvXvTbFWfYq7FXYqkXmzyL5Q822gtvMWlQagif3Mki0miNa1imXjLGf8A&#xA;UYYqw4+UvzH8lf6T5S1ibzRosW8nljW5Q9yEHay1AjkCBsqTAr74qzLyd5x0bzboy6ppbSKqyPBd&#xA;2k6GK4triI0kgnjO6SIeo+kbYqnmKuxV2KsU/MzyfN5n8sPBYSC31/TpE1Hy/e7Vhv7Y84TU/svv&#xA;G/8AkscVYr9Rm/MLy5o35g+Vpl0Tz3YwtEDIG9IyRuVu9Lvo/tND6ysBX4lNHX3VZd5A8823mvTJ&#xA;mkt203XNNlNrrmjTGstpcr1Un9uNx8UbjZl+kBVk+KuxVjn5i+Wz5l8j61oqVFxc2rmzcdUuov3t&#xA;u4/1ZkU4qiPI/mFfMnk7RdeFOWpWUFzIo/ZkkjBkT/YvVcVTvFXYq7FXYqwzzv8Al7+mLyDzDoF2&#xA;NF86WC8bLVlUlJogQxtL2MEetA9O+69V8Cqv8i+f/wBOSz6HrVr+h/OemIraro7moKsaC5tX6TW7&#xA;nowPw/ZbfqqzDFXYq7FXYq7FWBefvKGsJqUXnfyaqr5t0+P0rmzY8YtUsgeTWcxqArjrDJ+y2x26&#xA;Ksh8mecdH83aDDrGlswRi0VzaygLPbXEe0lvOlTwkQ7EfT0OKp5iq2SSOKNpJGCRoCzuxAVVAqSS&#xA;egGKsN/KpZrvQ77zNOhSXzTfzarErghxaMFt7EGu/wDvHBE304qzTFXYq7FXYq7FXlnnxD5C84W3&#xA;5i2QKaFqTw6d54t1rwEbHha6kQB9q3YhJD3Q/Tir1JWVlDKQysKqw3BB7jFW8VdirsVebaaB5O/N&#xA;y70zePQvPavqNiP2I9ZtlpeRjw+swBZd+rK1MVd+YtmvljzNpH5jWI9IJNBpHmiNRRZ9PvJVhime&#xA;nV7Wd0ZTSvEkVpir0nFXYq7FWDfk6v1byreaQB8Ojazq1hGdhWOO/meLYE0/dSLtirOcVYt5D84X&#xA;GuRX+natFHZ+aNDnNrrNjHyCAkloLiEOSxhuIqOhPuvVTirKcVdirsVYz528jWvmWG2ube5fSfMW&#xA;mMZdG123VTNbSEUYFW2lhkG0kTfCw96HFUJ5J87Xl/eT+WfM0Cad5y05A9zbIT6F3BXit7ZM27wu&#xA;eo+1G3wt2JVZjirsVdirsVdirzPzr5e1ryrr0v5heTrd7ppAP8W+XIv+ljAg4rcQLuBdQLuP9+Db&#xA;r9pVnPlrzJo3mXQ7TW9GuVutOvUEkMq9R/MjD9l1Pwsp3B2xVj/5lSPqFvpnk6B2SXzTcNbXjoaM&#xA;mnQIZr5qjpzjUQA+MgxVmMcccUaxxqEjQBURQAqqBQAAdAMVXYq7FWFat+c/5ZabMbX9Owahf1Ki&#xA;w0vlqNyXU8SnpWgmZW5bfFTFUtHm781/MdP8M+Vo/L9i3TVPM7lJSK0PDTrYtKD3HqSLiqoPy/8A&#xA;zHueUmo/mPerMR8MenWFjawp7BZEuXb/AGT4qlsTedNI1SPyb+YEkXmryl5kWSxtNfWBbeVJpEb/&#xA;AEW+hi+CkqgiOVKfF13OyqJ/KjWL7Rb69/LHX5zJqvl9BJod3L9q+0Zjxt5R4vB/dSfIdd8VemYq&#xA;7FXYqw/81PK175g8pSnSjw8xaRImq+X5h1W+tKvGvbaUViavZjirG/O/mmw84/8AOPOteYLMmJbn&#xA;SZbhoqjnBc245PC9R9qKaPiflir1TFXYq7FXkfkbzR/h/wDMfzh5X1VGSx1HXml0rUnZSpu7uyt7&#xA;k2cnEAIXRqwV+1RlPxAVVeuYqwbz95L1e51C283+UZY7bzjpcZiSOXa31C0J5PZXPgCd43/Yb8FU&#xA;Z5B/MnRfOEM9ukcmm+YdPomseX7scLu1k2ryUgc4zX4ZFFD7HbFWW4q7FXYqxvzt5Js/M9nAyzvp&#xA;2uac5n0XWoAPXtJ6UqK7PG4+GSNvhddj2IVQHkfz1c6jfXXlfzJDHp3nTS0DXlohPoXUB2S9smbd&#xA;4X7j7SN8Le6rM8VdirsVYv5n8+Wuk3yaNplnNrvmaZPUh0azKhkjJoJbmZ/3dvF/lOd/2QxxVf5c&#xA;H5kS3f1jzHJpFrZMppplhHczzKT9nleSyRIad6W+/jirDfM2lah+WuuXfnfy5btceVdQk9fznoMe&#xA;5jYnfUrNP9+D/dyD7Y367hVMYNasNY/Nvyzqljdx3mjX3lrU5NKnjPJGkN5YmQqabN6YAPcUocVe&#xA;jYq0zKqlmIVVFWY7AAdzirEvJa6trMrebtQvLhLXUFY6Jo6sY7eGxahhlljAUyXEyr6hL14BuCgU&#xA;JZVvzP51svL99Bomj6XJrPme/U3Fvo1kEipEDxa4up2pHBFy+Hm+5OygnFUh1r8wPzG0OyE+t6J5&#xA;e0aKQkJf32vGO3jO54uGs1d26bJ19sVTr8uvPbeaob3lLpV01kYwbvRb8X0D+py+0jJFNCw4fZZS&#xA;D2Y70VZTqNrLd6fc2sVzJZyzxPGl3Dx9WIupAdOYZeS9RUYq8xuvLmteffIeh+YYLqOw/MHQXnfS&#xA;tYjXjG1zbSvbTJItP957v0vjSmwPQ0oVWRflz+ZNr5riuNNvoDpPm/SaR69oM20kMnT1Iq19SF+q&#xA;OpOxFeuKs0xV2KuxV8+/mva3PkeHzjp0a/8AOp+f7G8lszvxtde9BmeHbot8qVX/AIsFNhvir3fS&#xA;NTtdV0qz1O0YPa30EdzA6moKSoHUg/I4qi8VdirxXzT5L1fzF+YvnLy5b6rFpttrGmaXqqCS0+sF&#xA;poXktlkVxLE0bQtbIQU+KpB7bqp5/jfzN/yrj6vzj/xz9f8A8L+tQel+kfV9D63x6cfR/wBK4+G2&#xA;KvTsVYZ59/KzQ/Nk1vqkc02i+aLAf7jfMVgfTuou4R6UEsVTuj+9KVOKsVT8y/PnkNltPzO0o32j&#xA;qeKeddGiaS3C9OV9aqOcB/mZRxrsoxV6X5f8y+X/ADFpyaloWoQalYvsJ7Z1kUHurU3Vh3U7jFUy&#xA;xV2KsW89+RoPMtrb3VpOdN8zaUzT6DrUYBktpyKcWH7cMn2ZYzsy+9Diqh5A89XOuG70XXrVdK84&#xA;6PxXVtMDVR1P2Lu1Y7yW8v7J6qfhO/VVmGKsW86eZ9QspbPQNAVJ/NOschZLIOUVrAlPWvrgAj91&#xA;DyFFr8blUHWoVRvlLyjp3lqwkggd7q+u39fVNUuCGubu4YfFLMw+5VHwqvwqABiqeYq8182E+ePO&#xA;9p5Ltzz8v6DJDqfm2UfYkmUiSx08nuWYCaUfyhR+1irFfNPk6f8ALTztpXnnSQ7fl/Zz3MutaPCp&#xA;Y6ab6IxT3Vsg3+rs/pySxqPh41UUJoq9tsb6yv7KC+sZ0ubO5RZbe4iYOjo4qrKw2IIxVIPzHndf&#xA;KN3ZxkrLq8lvpCMpoy/pKdLNnU9jGsxf6MVZJHHHFGscahI0AVFGwAAoAMVYB+TVul/ol752uKSa&#xA;p5uupb2SbqUs45GhsbdW/kigQH/WY4qnmneRNLi8wXnmLVCNW1ueVzaXdwgIs7atIre1QlliCqBz&#xA;ZaNI1WbsAqyXFWL+UNWlv9c82RRyNNptjqSW9tIxLATC0ha6iSv7KSsen7ZYdsVRvle/nvW1l5JW&#xA;lih1Ke3tmPQJCqIyr7LKHHzxVI/zD/LWPzHLba5ot2dD86aWCdK1yECpFP8Aee5Wn72B/wBpTWnb&#xA;uCqu/Ln8wZvMX1zRdds/0R500Xims6STVSG2S5tmP95BL1UitOh7Eqs1xV2KpN5y8p6T5t8tX3l/&#xA;VULWl9HwLr9uNx8UcsZPR43AZffFWF/kVenTtBufy/1CJbbX/J0ptrqNSeFxbzs01veQhiaRzKx+&#xA;EfZIpRRQYq9NxV2KvLvzFuvMekfmb5W1Dy3YwahqmsafqWj+jd3BtoAUaC8jd2VJCeCxSmirU4qm&#xA;X/KvvMH+EPT/AEnB/jT9Ifp39Jem31T9Icv7r068/q/of6P15cN+uKs/xV2KuIDAgioOxB6EYq89&#xA;1v8AI/ybd6i+s6Gbnypr7ddT0OU2hc1r+9hAMEgJ+1VKnxxVBmL8/wDy5tDLpXnuxTtMDpGosOy8&#xA;l9S0PzoMVWn877rTSE81eRvMOikf3l1FbLqFmnzuLVm/4jiqa6J+en5Sa0/p2fmeyjmrx9C8ZrKT&#xA;kOq8LoQmuKq/nryUnmaGy1/y9dx2Pm3Sv3uhayh5RsK1a2uOB/eW032WXtWo91UT5A8+ReaLS5tr&#xA;y3/RnmbSZPq+vaJIwaS3m7Mp/bhlHxRyDZh71xVZ5Bs/rv17zlcjleeYmD2hO/paXESLGJfAPGfX&#xA;f/LkPgMVZdirEvO/m69sZIfL3luNL3zjqaE2Nu28VrDXi99dkV4Qxdh1kb4F70VTDyX5RsvK2iLp&#xA;1vI91cyyPc6lqM399d3kx5TXEp3+J27dhRRsMVTuSOOWNo5FDxuCrowBVlIoQQeoOKvG4r5fyo8w&#xA;XkVg4u/yya4VdUtI+TyeXru6AlD8QCfqcvqBiv7HKop0ZVnHn2eB9L0LU45FlsIdY02eSeMh09Ga&#xA;YQpIGGxQNMrFugXfFWXYq8t0abVPym0XUYPMDR3PkHTplbR9Sg5td20V7dBRBcwkUKQNNX1Fb7Pb&#xA;sFXod35g0Gz01dUu9StbfTXUSJeyzRpAyEVDCRiFIp74qwG58+6356d9J/LlXi0xmMd/53njK2sS&#xA;dHXT0cA3M/UBv7tTvU4qyBxpfkTyzY6FoVubm/k5QaPYO5aa6uXJeSaeTduPJjLcSnoKnqQCqnPl&#xA;jRP0JodrpzTG5njDSXV0RQzXMztNcTEb09SaRnp74qmmKvP/AM1/J2qXsNr5v8qgR+dvLdZtPIH+&#xA;9lv1nsJafaSVa8R2bpSpOKsm8l+bdL83eWNP8w6Y1bW/iD+mT8cUg+GSJ6ftRuCre4xVOsVdirzD&#xA;814m8r67on5n2i0TSmXTPM6qN5dIvJAvNqbn6rOVkUfOu2KvTlZWUMpDKwqrDcEHuMVYR5me88x+&#xA;covJ1tf3WnafZWS6prdzp8zW9y/rStFZ2yzp+8iVjDK7lCGoqitGOKsc1aTULXzV5L0fUbt7vUtG&#xA;18R219Jx9W40++0q/wDSkloB+8BgeFyPtFOX7WKvW8VdirsVdirsVdirsVSnXPKPlXXkKa3o9lqa&#xA;kU/0u3imI7bF1Yj6MVYFd/8AOPXle0ke68l6nqfky/Y8+Wl3Uptmb/i21lZ0Zf8AJHEYq8t/Mv8A&#xA;5XV5Jv7XzNq0cGqz6YjQQeddLi9KR7V/tW2rWqD+6alQ6U9NviVmb4cVeu+QPzk/LbUPIdhqR1iz&#xA;0iGzgjtrqzvZ44ZIJIowPTo7DmCB8DLXkOm+2KrP+Vna15vdrH8tdOa5tz8M3m7UYpIdMhB6mBG4&#xA;S3cg7KoC1pVqYqyryd5LsfLVtOwnl1HV79hNq+s3RDXN1MBQFiNkROkca/Cg2HeqrIcVSTzn5qtP&#xA;K+gT6pPG1xNVYLCwj/vbq7lPGC3iG9Xkfb2FT0GKpd5D8nzaZ5UltPMHp32r628175kLKHilubwf&#xA;vYuJqpijTjCo6cFGKsIpd/k7dm1uhJqH5TahLwjkes0mhyStT05AQzPZOzbH9j/iSr0a4822ViRN&#xA;qai20qYLJaayjetZPG4qrSzKKQ9a1f4KEUcnYKpoy6bqmnsjCG+0+7jKsp4zQyxuKEEfErqw+jFW&#xA;EaZ+SH5L22oy3Vl5Z06S7hcCVWX11jegYD0pGdENCDTiMVT/AF/zKumNHo2iWq6h5gljBs9LjPCO&#xA;KMfCs1y6giCBadSKtTigZtsVVPLvlgadLLqWoXH6S8w3ihbzUnULRAai3t0FfRt0P2UBJP2mLNVi&#xA;qnuKuxV2KvJbcj8tPzOe3c+l5J8+XHO1Y7R2WusPjj/yUvQKr/limwxV61irsVQWt6RY6zo99pF+&#xA;nqWWoQSWtynjHMhRvwOKsN/JHVr258kro2pvz1nytczaDqJNQWaybhC+/X1IDG3LvXFVXyZGX/Mn&#xA;8w7tgKrc6XZK3cpDp0dwO38123fFUJd6LFrH51xtqUknDy7p1rqmjRRURGlumu7Sb19uUnpheSUI&#xA;489+uKvRcVdirsVdirsVdirsVdirsVWyRxyxtHIoeNwVdGAKspFCCD1BxV4r+Y35Z+W/KLaT5r8l&#xA;aLaxa7b3kdnHonpRm21JLyYl4GElRFIvJmjlX7A+H7OwVeneSvOWiebdETUtKLR+mxgvLGZfTuLS&#xA;4j2kt54jukiHan0jbFU+xVBazrWmaNp8moalOLe1joCxBZmZjxRERQWd3Y0VVBJOwGKse0fQb3WN&#xA;bg81+YYWhmtlYaDozkEWSSCjzTcaq11KuzbkRr8C9WZlWXYqpXVrbXdtLa3UST206NHPBIodHRxR&#xA;lZTUEEGhBxV5Q+n63+UUstzpkU2sfljI7SXelrymvNGDVLy21STLaDq8f2k6j9qqrKIvy6/K3Xre&#xA;LWLLSrR7fUFW5S7sC1sk6uKh2Ns0Qk5DryrXviqdWnkzyxY6fDp+nWCadaW5Zoo7FntSDJT1CWga&#xA;NmL0HKp+LviqN0nRNI0iBoNNtI7VJG5ymNfikelOcjn4nag+0xJxVG4qgtV1vRtIt/rOrX9tp1t/&#xA;v67mjgTb/KkKjFVPV/MvlzRYIbjWNVs9NguGCW8t5cRQJIxFQqNIyhjTsMVR0FxBcQpPbyLNBKoa&#xA;OWNgyMp3BVhUEHFUn86eUdI83+Wb7y/qqk2l6nESJtJFIp5RzRns8bgMv9MVYx+VnnDVppLzyR5t&#xA;cDzp5dVVnl3C6hZE8YNQhr9oSCgk/lfrStMVehYq7FXz3ba15x8meYPOPn2NTqflk+Ybm080aSsa&#xA;evBawJEsF/buvxN6UbgSIduO+25VV6Tc/l55c8w3c3mzQ9c1XTLnXFgumv8ASb+WOGcLAkcMrW7+&#xA;pbv+6RR8UeKpT+WVt5tuPPnmW+129t9Xt9JtrXQrLWrdBD9aeGSa5uOcSkqskf1hI5OHwcloNwwC&#xA;r1HFXYq7FXYqwi+8x6p5KuH/AE+s195SY1g15FMs1iCf7q/RQXaJf2bgV2/vN/jZVmNle2d9aQ3l&#xA;lPHc2lwokguIWDxujbhlZSQQfbFVbFXYq7FXYqwfzMf0l+Z/lHRyawadBf69cJ2MkKx2NvX6b6Rv&#xA;muKoHzr5T1zRdZm8/eR4vU1jgv6f0CpEOrW8Q7AV4Xca/wB1IBv9k1BxVOtE88t5q0K11Tylapdx&#xA;XSn1Jb2UW6W0ynjJBPGgmm9aM9U4AH+fviqK0vyiw1CPWNfuzrGtRVNtIU9K1tOQowtLbk4jJBoZ&#xA;HZ5CNufHbFWRYq7FXYqlPmDzJpOi/o6LUOTNrF7FptnEi8y804Yio/lCozMewGKvOP8AnHvzDpVx&#xA;Y+YNEsYza2dvq1/e6DbGvptpFxdSJDJbg7en60Uq0XYfTir13FUu1XzFoulXVhZ390sN3qk31fT7&#xA;cKzySybV4qgY8V5Dkx+Fe5GKoPzF5ZudbubTlrN9p1hbN6klpp0n1Z55AQV9adf3vpgD7CFa9yem&#xA;KovVvLXlzWJrafV9Ks9Rns+Rs5bu3ineEvTn6bSKxTlxFePWmKou7sLG8tXs7u3iubSReMlvKivG&#xA;y+BRgVIxVKNW8l6Ve6DDotnNd6HbWqhbF9HuJLFoOIovBYSsbKP5HVk9sVUrbzZpVh5gtPJ2o3U3&#xA;6aezjltLy7RIk1AoCsxhdOMbzJx5SRqooGqBToqlX5meQLrzBFZ655fuF03ztoLGbRNSI+Fqj95a&#xA;XH80EwqrDtWviCqq/lt+ZNn5ws7m2ubZtJ80aSwg17QZzSa3mH7S/wA8T9UcbEYqzPFWEaClvZfm&#xA;D5t0C4VWg1qO21y3hcBlkWSEWF2tD1Ctaxlx/wAWDxxVgflryl5vtPM2r/lfbeYZNG8n6YF1PTvq&#xA;yE6lPp1+7/6LFdOWEMdvNG6c1XnQih8FXsuiaJpWh6VbaTpNslpp9onCCBOgHUkk1LMxNWY7k7nf&#xA;FUdirsVdirsVcQGBBFQdiD0IxV5pqXlPVvId5N5h8iwPcaJI5m13yXFT03B3e50xTtDOvUxLRJBt&#xA;s1MVZ35f1/SPMOjWms6RcLdadexiW3nXuD1BB3VlOzKdwdjiqYYq7FXYqwiZwv52WkZqDJ5auWQ0&#xA;NCI7+3Db+3NcVZvirzfzZ5T1zy5rk/nryLB613NRvMvlpTxi1OJf93Q9kvEH2W/b6Hfqqy7yh5x0&#xA;DzdokWsaHcevauSkqMCksMq/bhmjPxJIndT8+lDiqdYq7FVk88FvBJPPIsUESl5ZXIVERRVmZjsA&#xA;BuScVfOusa5q/wCZXn6zk0Z3t7aSC4tPKblSGis5f3Wpa/IppxBSsFmG+0xrtQ4q9a1j8uLVNJ0h&#xA;fK0i6NrPlqH0dAuqFohFxVXtblBvJBMEHqftV+MHkMVVvLP5g22p/W9O1W0l0nzRpkRm1HQnBllK&#xA;KP761KA/WYX/AGGjHX4SA22KpvoUk+pWlprOp6Qumao0brFDIyS3EMErK3pvIFHBn4I0iKSAw6ml&#xA;cVTbFXYq7FXYqlXmaCD9Ez6gdLj1e90pJL7TbR1UubmFC0Yidg3puxHEMPHFUXpV8dQ0uzvzC9sb&#xA;uCOc28opJH6iB+Dg9GWtDirD/P35Ypr17B5j0C+bQPO+nrxsdahUMssY3+rXkfSaFvA7r1HgVUo0&#xA;v86f0NeQ6H+Z9h/hXWWPCLUzV9GvCP24LvcR1pUpLTiOprirKfMPlTyB5ytrTUtYt7bVLazSU2l6&#xA;JiERJQvqESxOooeCnr2rirzb8rNG0S5/NjVNX8lXd3L5Q0WzbSZJLi4kvLOa5uGSZ4rCSVmdUhMS&#xA;l/iZat8NK7qvccVdirsVdirsVdirsVea3sZ/Lvzj+lIjw8k+aLlY9Uh/3Xp+qzELHdL2SG6aiS9h&#xA;JxbucVelYq7FXYqwPziwsfzN8iamRxiujqejSybU5XNut1Erd92sSB88VZ5irsVeC+X/ACPrOnQ3&#xA;mseQHjsfOXlm6m0fW9Flollq1rbMXs/WUBeEz2kkTxzDuSrGlSFXqfkP8wNI846fNJbJJZapYP6G&#xA;s6NcjhdWdxTeORTSo68XGzfeAqmfmPzPoHlrS5NU12+isLKPYySndm7JGoqzueyqCTirxnz15n13&#xA;zbJaafdadNBYakSfL/kh6x3+rsh+G61XiQbTT4j8TRlgz0+LsuKonSvy6/OTyGNR8xaLq2leZ9Sv&#xA;1jm1XSbiya0Z1t4wqW1lcRSHisajhChRUH8uKsu/LD87vKnn1fqcayaR5ijUm40K9+GYcCVdoWIU&#xA;TKrKymgDCnxKuKsh84+R9J80W0JnaSy1Wxb1dK1m1IS7tJf5on7qejo1VYbEYqlHknzpq7axP5N8&#xA;4Rx2/muyiE1tdRfDbapaD4frduD9lgdpYv2T0+HoqznFXYq7FXYq7FUo0jzCNR1vXdLFq8X6Emgg&#xA;NwSCkxnto7iq0+zx9XiQfn3xVN8VQ2paZpuqWUljqVrDe2UwpLbXEayxOP8AKRwVOKvPZ/8AnG38&#xA;kprk3DeWIlZmDNHHcXccRK9P3KTLH3/lxVn+j6NpOi6dDpmk2cNhp9uvGC1t0EcajqaKtOp3J74q&#xA;jMVdirsVdirsVdirsVQWtaNput6ReaRqcK3Gn38L29zC3RkkFD8j4EdDirEfyw1nUYRqHknXZmm1&#xA;/wArskS3Un2r3TpAfqV5X9pmRfTlpWkimvXFWd4q7FWBfnUr2/kyPX4hym8sajY60o8Y7W4UXA2/&#xA;5dnkxVnisrKGUhlYVVhuCD3GKt4q8885vN5N80xee4lZtBvY49P83xKCfSjQn6rqIUf74LtHL/xW&#xA;1f2MVX+d/Isl9qlt5w8qyz2nmIRfV7u602e3gkvLF1rwb6zDc28rKQpjLgU68tgMVYrpvkTzjNq6&#xA;39roH1PWRUDzb5sv01m9twTStnZWzNbRt3Xi8Y8R2xV6N5P8h6V5Z+s3Syy6jruokPq2u3jB7u5Y&#xA;dAWACpGnRIkAVR0HfFWSYq8a1n8v/LOo/mdq3l3VIGgj122XzF5f1O1b0Luz1G3dbe+NrMN1Z/3E&#xA;xHQmpIOKo8eefNn5cyQWP5isNV8uSv6Nj5ztEo6niWCajaLVlbijH1YqrQbgbnFUR+ct7o7eS9N8&#xA;7abdwSX+iX1pe6BfwyKyzetOkM1ujofjS4hdlZVO+x7Yq9OxV2KuxV2KuxVKNE8yabq+oa1aWMcl&#xA;dGuxZXlwygRSXHoxysI2BJb01kVWqBQ7Yqm+KuxV2KuxV2KuxV2KuxV2KuxV2KuxV57+alndaNPp&#xA;/wCY2lwtLe+Ww6axBGByudGmIN3Gf5jBxE8e+xU+OKs8sb20v7K3vrOVZ7S6jSe3mTdXjkUMjL7M&#xA;priqtiqD1rSrXWNGv9JuxytdRt5bS4HjHOhjf/hWxVjP5P6tdaj+XekLfH/cnpqPpWpA/aF1p0jW&#xA;kpavdjDy+nFWZYqsngguIJIJ41lglUpLE4DI6MKMrKdiCNiDirzKyu5vyr1BNL1KRn/Li8kVNH1O&#xA;VuX6Hlc0FndOd/qrMaQysfg+w21Dir09WVlDKQysKqw3BB7jFUDfeYdAsLlLW+1K1tLmQVjgnnjj&#xA;kYb7qrMCemKo8EMAQag7gjoRirAPzTT9Hal5P82r8P6G1iK0vJD0Wy1cfUZa+wlkhb6MVTf8xrbR&#xA;x5d/TWqtcJB5bmXWVktAjSj6qreqAsnwMskDyRuD+yx6dcVSe9/Ij8odSnN5J5fh/ekyBLea4ht+&#xA;TqR6qwQyJAHo1Q4SvcHFVmjP548n6/ZaBfi58zeUr9zFp2u8TJfWD0+CHUOI/exGlFuKVB+344q9&#xA;DxV2KuxVK/MnmXSfLumHUdTkZYjJHBDFGpklmnmYJFDFGu7u7GgH0napxVGWNhZ2cTpawLbrNLJc&#xA;SqoA5SzOZJHanVmZiTiqIxV2KuxV2KuxV2KuxV2KuxV2KuxV2KtOiOjI6hkYEMpFQQdiCDirzb8u&#xA;JH8peZNS/LW6JFlArap5RlYn49OmkPq2oJ6taTNx614MvYYq9KxV2KvPvKJGh/mf5s8tseNvrKw+&#xA;ZdMj7VlAtb8D5TRI5/18Veg4q7FVK7tLW8tZbS7hS4tZ0Mc8Eqh0dGFGVlaoII7HFXkmvXvmb8ot&#xA;D1BbCJ9X8nmJ10J5G5S6RcupEFvcs5q9iZCAkhPKP7LVWhxVknlz8mvIVjpPp6pplp5j1S8Hq6rr&#xA;epwRXVxdzvu8heUOVUn7KqaKKfPFUi1/y3c/lZA3mnyfJMPKlowk8xeU5HeW3W1LD1bqw58mglhB&#xA;LsgPBlHQEDFWW/mnp36Y/LLzHb27VlfTp57Nx09aFDPAwP8AxkRTiqd6Lfwa35esL9kV4NTtIp2j&#xA;IqhS4iD8SG6ghu+KrNN1O7m1fVNMm097WDTzAbK6FTDcQzR1qp4qqvHIjoyAmg4t+1TFU0xV2Kux&#xA;V2Ksa8s3Wua3Ndajrujw6daW90f8PQzrzvVjVWie5lqSsTShjxVfiVDRjvirJcVdirsVdirsVdir&#xA;sVdirsVdirsVdirsVdirCvzU8sanqmkWutaAAPNnlmb9I6ISP71lXjPaN34XUVYyK9aHtiqfeUfN&#xA;GmeafLdhr+msTaX8QkCNs8bj4ZIpB2eNwUb3GKpvirzz82g2iz+XvP0QPHyzeenq3GpJ0rUKQXRI&#xA;HX0m9Ob/AGBxV6GCGAINQdwR0IxV2KuxVSurW2u7aW1uokntp0aOeCRQ6OjijKymoIINCDirBfJM&#xA;8/lXX5Py+v5XlsfSa88oXkzFmkslIEtkztu0lmWHHepiKn9k4qq/nJeSP5Ok8t2jf7lfN0i6FYp1&#xA;2uwVuZSP5Ybb1HJ9qd8VZk9jC+ntYbiBoTB4ngV4d/bFWK/kxK8n5S+T2c8iNIs1B9khVVH0AYqy&#xA;bWNLi1XTLnT5Zp7dLlChntZXgnjPUPHIhDKyncfjtiqQJN5w8seW4/ri3Hna9in4ySWcVtZ3X1Ug&#xA;0do5JkhlkSlDxKcq7Ltuqt1z8wX0qztLhfLOu373kaSRW9nZiWRGduPpzUekTL1bmQtO+Kph5m13&#xA;XdNaxh0jy/ca3PeScZGjmt7eC2RSvJ55JXDfZYlQiNXiRttVVt9N82SebY779MRw+WoYaDR47ZTL&#xA;NMwILTXLliFXZlWNV36mnVVPMVdirsVdirsVdirsVdirsVdirsVdirsVdirsVdirzCM/8q8/Mcwn&#xA;935N88XBaI9I7PXWHxJ0+FL5VqN/7wHpXFXp+KobU9Os9T06602+iE1lewvb3MLdHjlUo6n5qcVY&#xA;X+Ump3cGm3vkvVZTJrXk+VbB5H+3cWJXlYXX/PSCit/lq2Ks9xV2KuxVjP5geVrnX9FR9MlW28w6&#xA;TMuoaDeN0ju4QeKP/wAVTKWikH8rH2xVhfkfzFD59/NCfWJIXtl8qaRBbrpk4/eW2palNMt7y/yo&#xA;1svRr3FSNjir0nzLq8WjeXdU1eZwkWn2k907nsIY2fv/AKuKpR+VumTaX+WvlbT5wVnt9Ks0nRuq&#xA;yegpdfoYkYqyjFXYq7FXYq7FXYq7FXYq7FXYq7FXYq7FXYq7FXYq7FXYq7FXYq7FUn83+VdL81eW&#xA;77QNTUm0voynNftxyD4o5Yz2eNwHU+IxVjn5X+a9Uuo73yl5mcf4w8tFYb6T7IvbZv8Aee/iB6rM&#xA;o+P+V6g02GKs7xV57+Zdne6FqVh+Y+kwvNPo0bW3mGziBLXWju3KWijrJat++T/ZDvirO9Pv7LUb&#xA;G3v7GZbiyu41mtp4zVHjkAZWU+BBxVXxV2KuxVg3mDyRrNl5in83+R5LW1129SOLWtPvQ31PUY4Q&#xA;REXeMGSGaMEhJFBHZlPZVKtT0X8zPPTQaR5l06y8t+VVkSXV7e2vWv7q/WJg62wYQ26wwuwHqdWI&#xA;2HU4q9OAAFBsB0GKuxV2KuxV2KuxV2KuxV2KuxV2KuxV2KuxV2KuxV2KuxV2KuxV2KuxV2KsC/M7&#xA;yhrF09j5w8qBV85+XgzWkZoqX9o28+nzHusg3jJ+y+4pUnFWQeSfOWkecPLtvrelswjlrHcW0m01&#xA;vcJtLBMv7MkbbEfT0OKp6QGBBFQdiD0IxV5ZY3H/ACqzzEukXR4fl3rtwTo10SBHpN9MSz2cpJol&#xA;tM9WhborEqdqHFXqeKuxV2KuxV2KuxV2KuxV2KuxV2KuxV2KuxV2KuxV2KuxV2KuxV2KuxV2KuxV&#xA;2KuxV2KuxV2KvK/Omi6x5F8w3P5i+VLZ7vTroBvOvl6GgNxFGD/p9sDt9YiX7a7c199yq9E0DX9I&#xA;8waNaazo9yl3pt9GJbedDUFT2I7Mp2ZTuDscVVNY0fS9Z0u50rVbaO8068jMVzbSiqOh7H9YI3B3&#xA;GKvM7HXdX/Kq6i0TzRLLf+QZHWLRfNMh5yWHM8Y7PUT19Nekc/ToG/yVXq0M0U0STQuskUih45EI&#xA;ZWVhUMpGxBGKrsVdirsVdirsVdirsVdirsVdirsVdirsVdirsVdirsVdirsVdirsVdirsVdirsVd&#xA;irsVdiryXW/K/mH8udZufNXka2e/8s3knr+ZPJkIHIMft3mmg7LKBu0QoH+7iq9C8p+bvL/mzRIN&#xA;a0G7S8sLgbMuzIw+1HIh+JHXupxVM7uztL21ltLyFLi1nUxzwSqHR0YUKsrVBB98VeYnyZ50/L2V&#xA;7n8v/wDcz5YLGSfyXeTcWg5GrHTLp6+nvv6Mnw9aGpxVk/k38z/KnmqWSytJnsddt9r3QNQQ22oQ&#xA;ECpDwP8AEQP5kqvvirLMVdirsVdirsVdirsVdirsVdirsVdirsVdirsVdirsVdirsVdirsVdirsV&#xA;dirsVdirsVdirzPzX+Wms6brc3nL8tp49M8wy/FqujS7adqqg1ImQU9Ob+WVae/UnFU28ifmtonm&#xA;e4k0i8hk0HzbabX/AJcv6JcoQN3hJoJ4j1Dp23IFcVZtirHPN/5d+T/N0cX6c05Jrm3INpfxlobu&#xA;BgagxXERWVKHegamKsXXy1+cPlYf869r0Hm3S0+zpnmGsV8EH7MeoQD94x8Zo/pxVx/OtNJ+Dzt5&#xA;V1nyyy/3t59XOo6evyu7L1a/SgxVP9F/Nn8staRW03zRpszOKrC1zHFLT3ikKSD6VxVlUU0U0Yki&#xA;dZI2+y6EMDQ02IxVdirsVdirsVdirsVdirsVdirsVdirsVdirsVdirsVdirsVdirsVdirsVdirsV&#xA;dirGfOv5ceUPOcESa5YiS6tjystRhZobu3YGoaGeMh1o29OleoxVhn6K/O7yOC2lX0f5g6BF00/U&#xA;WFtrEcY7R3Y/dXBA3JkHI9AMVZR5F/NXyt5wmnsLYzabr9n/AL36BqMZtr6EjrWJvtL/AJSk+9MV&#xA;ZjirsVeY+dvyA8jeYLltVsLC103XKlzKbdJ7OdiakXNo1Ebl+1JHwk/y8VYp5f8Ayr/KC81p/Luu&#xA;+Vj5a84qhlSOyvb2K2vI4yC1xYSpLGkiiu6MvOPuO+Kss/6F78jJMktvea3bMn++dWvBWviTIzfc&#xA;cVV4vyB/LhXZpotSuQ/2km1XUSpr1rxnWv04q9As7O3srOCztk9O2to0hgjqW4pGoVRViSaAd8VV&#xA;sVdirsVdirsVdirsVdirsVdirsVdirsVdirsVdirsVdirsVdirsVdirsVdirC/zE/K7RvOMMV4kr&#xA;6T5osPj0fzFafBdW8grQFlKmSM1+JGNKE0od8VQv5cefdV1C9vPKHm+FLLzvoyhrhUqsF/a14pfW&#xA;tQKo/wC2o+y3h0CrPsVdiqS+avKOk+ZbW2hvvUinsbiO80+/tyqXNtPEwZXidlelacWFKFSQcVTr&#xA;FXYq7FXYq7FXYq7FXYq7FXYq7FXYq7FXYq7FXYq7FXYq7FXYq7FXYq7FXYq7FXYq7FXYqwj8z/JN&#xA;7rdna675eZbbzr5eY3WhXZoBIafvbObcVhuF+A1OxofGqqceRfONj5v8s2mt2iNA0vKO8spKiW2u&#xA;ojwnt5AQCGjcEbjfr3xVP8VdirsVdirsVdirsVdirsVdirsVdirsVdirsVdirsVdirsVdirsVdir&#xA;sVdirsVdirsVdirsVdirsVeWahT8v/zTh1NaReU/Pkq22ojpHba2q/uJ+tFF2gKNQbuAScVep4q7&#xA;FXYq7FXYq7FXYq7FXYq7FXYq7FXYq7FXYq7FXYq7FXYq7FXYq7FXYq7FXYq7FXYq7FXYq7FXYqkP&#xA;nvyhYecPKeo+Xr4lI76KkU6/ahmQh4Zk/wAqORQ2Kpb+VPmLXNb8nQN5gtpLXzBpssumauHRlWS5&#xA;s29N5omYAOkgAbku1SR2xVmGKuxV2KuxV2KuxV2KuxV2KuxV2KuxV2Kv/9k=</xmpGImg:image>
               </rdf:li>
            </rdf:Alt>
         </xmp:Thumbnails>
      </rdf:Description>
      <rdf:Description rdf:about=""
            xmlns:xmpMM="http://ns.adobe.com/xap/1.0/mm/"
            xmlns:stRef="http://ns.adobe.com/xap/1.0/sType/ResourceRef#"
            xmlns:stEvt="http://ns.adobe.com/xap/1.0/sType/ResourceEvent#">
         <xmpMM:RenditionClass>proof:pdf</xmpMM:RenditionClass>
         <xmpMM:OriginalDocumentID>uuid:65E6390686CF11DBA6E2D887CEACB407</xmpMM:OriginalDocumentID>
         <xmpMM:DocumentID>xmp.did:4FA4E5F00C2068118083BCB8240ADB87</xmpMM:DocumentID>
         <xmpMM:InstanceID>xmp.iid:4FA4E5F00C2068118083BCB8240ADB87</xmpMM:InstanceID>
         <xmpMM:DerivedFrom rdf:parseType="Resource">
            <stRef:instanceID>uuid:2e2f1899-35a2-47d0-9012-6311acb6304a</stRef:instanceID>
            <stRef:documentID>xmp.did:BC3F706BB3A7E311AD04B10BEB4FC0E2</stRef:documentID>
            <stRef:originalDocumentID>uuid:65E6390686CF11DBA6E2D887CEACB407</stRef:originalDocumentID>
            <stRef:renditionClass>proof:pdf</stRef:renditionClass>
         </xmpMM:DerivedFrom>
         <xmpMM:History>
            <rdf:Seq>
               <rdf:li rdf:parseType="Resource">
                  <stEvt:action>saved</stEvt:action>
                  <stEvt:instanceID>xmp.iid:FDDACBA380A7E311AD04B10BEB4FC0E2</stEvt:instanceID>
                  <stEvt:when>2014-03-09T13:47:55+02:00</stEvt:when>
                  <stEvt:softwareAgent>Adobe Illustrator CS5</stEvt:softwareAgent>
                  <stEvt:changed>/</stEvt:changed>
               </rdf:li>
               <rdf:li rdf:parseType="Resource">
                  <stEvt:action>saved</stEvt:action>
                  <stEvt:instanceID>xmp.iid:BC3F706BB3A7E311AD04B10BEB4FC0E2</stEvt:instanceID>
                  <stEvt:when>2014-03-09T19:51:19+02:00</stEvt:when>
                  <stEvt:softwareAgent>Adobe Illustrator CS5</stEvt:softwareAgent>
                  <stEvt:changed>/</stEvt:changed>
               </rdf:li>
               <rdf:li rdf:parseType="Resource">
                  <stEvt:action>saved</stEvt:action>
                  <stEvt:instanceID>xmp.iid:4FA4E5F00C2068118083BCB8240ADB87</stEvt:instanceID>
                  <stEvt:when>2015-02-13T12:12:18+02:00</stEvt:when>
                  <stEvt:softwareAgent>Adobe Illustrator CS5.1</stEvt:softwareAgent>
                  <stEvt:changed>/</stEvt:changed>
               </rdf:li>
            </rdf:Seq>
         </xmpMM:History>
      </rdf:Description>
      <rdf:Description rdf:about=""
            xmlns:illustrator="http://ns.adobe.com/illustrator/1.0/">
         <illustrator:StartupProfile>Web</illustrator:StartupProfile>
      </rdf:Description>
      <rdf:Description rdf:about=""
            xmlns:xmpTPg="http://ns.adobe.com/xap/1.0/t/pg/"
            xmlns:stDim="http://ns.adobe.com/xap/1.0/sType/Dimensions#"
            xmlns:xmpG="http://ns.adobe.com/xap/1.0/g/">
         <xmpTPg:NPages>1</xmpTPg:NPages>
         <xmpTPg:HasVisibleTransparency>False</xmpTPg:HasVisibleTransparency>
         <xmpTPg:HasVisibleOverprint>False</xmpTPg:HasVisibleOverprint>
         <xmpTPg:MaxPageSize rdf:parseType="Resource">
            <stDim:w>115.356955</stDim:w>
            <stDim:h>117.856200</stDim:h>
            <stDim:unit>Millimeters</stDim:unit>
         </xmpTPg:MaxPageSize>
         <xmpTPg:PlateNames>
            <rdf:Seq>
               <rdf:li>Cyan</rdf:li>
               <rdf:li>Magenta</rdf:li>
               <rdf:li>Yellow</rdf:li>
               <rdf:li>Black</rdf:li>
            </rdf:Seq>
         </xmpTPg:PlateNames>
         <xmpTPg:SwatchGroups>
            <rdf:Seq>
               <rdf:li rdf:parseType="Resource">
                  <xmpG:groupName>Default Swatch Group</xmpG:groupName>
                  <xmpG:groupType>0</xmpG:groupType>
               </rdf:li>
            </rdf:Seq>
         </xmpTPg:SwatchGroups>
      </rdf:Description>
      <rdf:Description rdf:about=""
            xmlns:pdf="http://ns.adobe.com/pdf/1.3/">
         <pdf:Producer>Adobe PDF library 9.90</pdf:Producer>
      </rdf:Description>
   </rdf:RDF>
</x:xmpmeta>
                                                                                                    
                                                                                                    
                                                                                                    
                                                                                                    
                                                                                                    
                                                                                                    
                                                                                                    
                                                                                                    
                                                                                                    
                                                                                                    
                                                                                                    
                                                                                                    
                                                                                                    
                                                                                                    
                                                                                                    
                                                                                                    
                                                                                                    
                                                                                                    
                                                                                                    
                                                                                                    
                           
<?xpacket end="w"?>
	</metadata>
<g>
	<g>
		<g>
			<path d="M26.618,144.352c2.033,3.067,4.858,5.265,7.812,7.398c4.405,3.18,8.54,6.028,12.156,10.151
				c7.781,8.873,13.267,19.017,18.912,29.278c10.528,19.139,21.233,38.205,34.906,55.321c6.726,8.42,14.173,16.042,22.525,22.847
				c4.042,3.292,8.167,6.671,12.559,9.485c4.417,2.831,9.439,4.717,14.181,6.916c17.629,8.179,26.82,27.867,35.308,44.284
				c0.626,1.211,2.16,0.002,1.586-1.098c-4.221-8.087-8.438-16.161-13.507-23.76c-4.84-7.257-10.714-14.691-18.373-19.104
				c-4.503-2.594-9.453-4.39-14.115-6.669c-4.987-2.438-9.277-5.905-13.64-9.292c-9.135-7.093-17.166-15.055-24.513-23.976
				c-14.353-17.43-25.371-37.352-36.308-57.013c-5.34-9.6-10.63-18.867-17.731-27.318c-2.89-3.44-5.942-6.202-9.651-8.716
				c-4.123-2.796-8.511-5.204-11.907-8.925C26.702,144.034,26.535,144.227,26.618,144.352L26.618,144.352z"/>
		</g>
	</g>
	<g>
		<g>
			<path d="M-4.996,84.757c8.572,17.033,29.314,27.146,46.706,32.651c16.502,5.225,35.593,4.548,48.9,16.951
				c0.756,0.704,1.667-0.329,1.209-1.131c-3.532-6.181-12.489-8.86-18.842-10.699c-8.658-2.506-17.619-3.747-26.383-5.798
				c-9.112-2.132-17.929-6.071-26.11-10.543c-9.647-5.274-19.148-12.316-24.438-22.184C-4.4,83.172-5.364,84.025-4.996,84.757
				L-4.996,84.757z"/>
		</g>
	</g>
	<g>
		<g>
			<path d="M17.066,58.928c10.75,9.248,21.57,18.268,31.73,28.184c10.054,9.812,19.639,20.09,29.189,30.388
				c9.551,10.298,19.015,20.678,28.733,30.818c4.781,4.988,9.63,9.909,14.577,14.733c5.294,5.162,11.303,9.413,16.103,15.099
				c0.754,0.894,1.786-0.523,1.115-1.32c-4.477-5.322-9.928-9.635-15.125-14.216c-5.17-4.556-9.9-9.706-14.692-14.651
				c-10.076-10.397-19.829-21.105-29.685-31.71C69.157,105.649,59.16,95.17,48.749,85.11c-9.807-9.477-20.045-19.119-31.482-26.612
				C17.004,58.325,16.876,58.765,17.066,58.928L17.066,58.928z"/>
		</g>
	</g>
	<g>
		<g>
			<path d="M51.249,19.126c5.37,4.655,9.759,10.337,14.52,15.581c5.208,5.736,10.959,10.997,16.802,16.074
				c5.505,4.784,11.061,9.499,16.088,14.794c5.879,6.193,11.349,12.818,17.081,19.151c11.255,12.437,22.767,24.639,34.297,36.82
				c4.526,4.781,9.031,9.434,13.952,13.809c3.504,3.116,8.464,6.548,10.561,10.875c0.425,0.878,1.722,0.151,1.386-0.693
				c-1.545-3.875-5.516-6.808-8.517-9.513c-4.573-4.12-9.012-8.228-13.252-12.693c-12.213-12.862-24.387-25.763-36.354-38.854
				c-5.811-6.356-11.467-12.849-17.25-19.229c-4.886-5.389-10.539-10.052-16.06-14.764C78.587,45.435,72.852,40.2,67.447,34.607
				c-5.251-5.433-9.891-11.291-15.958-15.865C51.277,18.583,51.076,18.976,51.249,19.126L51.249,19.126z"/>
		</g>
	</g>
	<g>
		<g>
			<path d="M137.382,179.657c7.663,5.819,18.405-3.712,23.721-8.878c4.153-4.035,7.797-8.631,10.825-13.563
				c1.677-2.733,4.159-6.788,3.482-10.176c-0.206-1.032-1.423-0.624-1.46,0.271c-0.331,7.858-7.651,15.767-12.724,21.149
				c-5.334,5.661-15.115,14.722-23.738,10.873C137.308,179.252,137.263,179.567,137.382,179.657L137.382,179.657z"/>
		</g>
	</g>
	<g>
		<g>
			<path d="M137.968,177.947c7.478,0.021,14.781-5.414,20.205-10.016c5.052-4.285,12.018-11.064,12.537-18.136
				c0.041-0.57-0.802-0.908-1.02-0.301c-2.489,6.946-6.679,12.267-12.193,17.152c-5.447,4.826-12.219,9.309-19.552,10.386
				C137.45,177.106,137.446,177.945,137.968,177.947L137.968,177.947z"/>
		</g>
	</g>
	<g>
		<g>
			<path d="M91.122,132.33c8.216,2.561,16.845-3.864,22.541-9.059c6.681-6.093,12.405-13.73,16.396-21.848
				c0.447-0.91-0.811-1.911-1.317-0.867c-6.999,14.438-20.409,30.809-37.595,31.497C91.004,132.059,90.994,132.29,91.122,132.33
				L91.122,132.33z"/>
		</g>
	</g>
	<g>
		<g>
			<path d="M89.207,127.159c-0.707-7.303,4.293-14.743,8.726-20.052c4.64-5.557,11.336-11.261,18.897-11.665
				c0.552-0.03,0.513-0.944-0.024-0.984c-7.72-0.571-14.967,6.483-19.596,11.833c-4.833,5.586-9.466,13.242-8.139,20.894
				C89.087,127.275,89.215,127.247,89.207,127.159L89.207,127.159z"/>
		</g>
	</g>
	<g>
		<g>
			<path d="M113.801,149.885c7.227-0.958,13.49-5.826,18.597-10.755c5.216-5.034,11.218-11.637,13.05-18.881
				c0.134-0.53-0.596-0.983-0.848-0.399c-5.412,12.555-17.084,26.222-30.821,29.886C113.71,149.754,113.725,149.895,113.801,149.885
				L113.801,149.885z"/>
		</g>
	</g>
	<g>
		<g>
			<path d="M174.345,145.288c0.404,6.472,5.143,11.315,9.815,15.33c6.071,5.215,13.091,9.782,16.775,17.139
				c1.468,2.931,1.357,7.96-3.225,7.277c-1.948-0.29-3.752-1.642-5.34-2.724c-3.056-2.082-6.157-4.094-9.191-6.207
				c-5.579-3.887-12.756-10.301-20.083-9.658c-1.09,0.096-1.037,2.056,0.049,1.957c4.759-0.436,9.256,2.632,13.075,5.096
				c3.939,2.542,7.638,5.449,11.688,7.82c3.189,1.869,13.427,10.24,15.205,1.907c1.436-6.723-5.499-13.159-10.042-17.044
				c-6.91-5.908-16.304-11.326-18.039-21.021C174.949,144.694,174.318,144.847,174.345,145.288L174.345,145.288z"/>
		</g>
	</g>
	<g>
		<g>
			<path d="M200.533,184.443c1.581,1.546,3.404,2.814,5.175,4.13c2.062,1.53,3.847,3.68,6,5.01c0.502,0.311,0.846-0.377,0.644-0.785
				c-0.962-1.939-3.177-3.356-4.872-4.63c-2.098-1.576-4.242-3.106-6.377-4.632C200.582,183.165,200.152,184.07,200.533,184.443
				L200.533,184.443z"/>
		</g>
	</g>
	<g>
		<g>
			<path d="M120.453,163.911c2.01,17.478,16.658,28.222,28.25,39.761c5.373,5.349,8.619,12.173,12.748,18.459
				c2.813,4.283,6.67,10.34,12.26,11.005c11.985,1.427,11.126-19.472,10.323-26.455c-0.688-5.984-1.892-11.835-3.431-17.662
				c-1.513-5.728-3.14-12.433-6.637-17.34c-0.553-0.775-1.138-1.464-1.928-2.002c-0.891-0.606-1.512,0.998-0.723,1.535
				c4.062,2.768,5.573,10.416,6.888,14.771c1.788,5.927,3.273,12.039,4.122,18.176c0.952,6.895,2.849,29.98-9.6,27.24
				c-5.99-1.319-10.384-10.229-13.26-14.908c-3.266-5.316-6.201-10.194-10.654-14.607c-11.482-11.379-24.558-21.242-27.593-38.112
				C121.128,163.264,120.397,163.421,120.453,163.911L120.453,163.911z"/>
		</g>
	</g>
	<g>
		<g>
			<path d="M150.529,202.131c-0.568,0.472-1.034,0.662-1.351,1.303c-0.144,0.291,0.03,0.677,0.366,0.695
				c0.167,0.01,0.335,0.02,0.503,0.029c0.21,0.012,0.36-0.195,0.404-0.375c1.368-5.567,4.637-9.287,10.697-7.74
				c5.115,1.305,11.062,5.616,10.008,11.464c-1.321,7.336-7.694,12.549-5.224,20.558c0.329,1.067,1.728,0.511,1.422-0.492
				c-2.939-9.64,10.306-18.59,3.174-27.51c-3.13-3.915-9.282-6.673-14.257-5.743c-2.08,0.39-3.74,1.961-4.845,3.668
				c-0.518,0.799-0.92,1.739-1.184,2.652c-0.057,0.196-0.551,2.543-0.659,2.55c0.893-0.052,0.713-0.249,0.975-1.033
				C150.564,202.14,150.544,202.118,150.529,202.131L150.529,202.131z"/>
		</g>
	</g>
	<g>
		<g>
			<path d="M151.791,30.212c7.855,15.522,23.285,23.602,38.542,30.318c4.091,1.801,8.571,3.27,12.203,5.913
				c3.792,2.759,6.298,7.106,8.562,11.103c4.364,7.704,8.405,14.836,14.763,21.129c3.34,3.306,6.937,6.343,10.321,9.604
				c3.94,3.795,6.877,7.958,9.616,12.672c5.01,8.621,10.444,16.984,16.845,24.644c5.122,6.129,10.835,11.839,17.731,15.937
				c5.007,2.975,11.564,5.812,17.401,3.782c2.73-0.949,4.473-3.4,5.551-5.949c0.466-1.102-1.069-2.211-1.588-0.99
				c-3.554,8.367-12.672,5.492-18.975,2.207c-7.505-3.912-13.449-10.111-18.881-16.48c-6.638-7.782-12.069-16.514-17.192-25.338
				c-4.857-8.366-11.801-14.205-18.77-20.76c-6.665-6.27-10.963-13.597-15.384-21.494c-3.896-6.958-8.213-11.954-15.618-15.106
				c-8.41-3.58-16.974-6.949-24.796-11.73c-8.27-5.054-14.39-11.905-19.817-19.833C152.045,29.456,151.605,29.844,151.791,30.212
				L151.791,30.212z"/>
		</g>
	</g>
	<g>
		<g>
			<path d="M156.045,37.555c-1.652,4.036-2.213,8.417-4.081,12.465c-2.07,4.485-5.016,8.297-7.847,12.293
				c-0.384,0.542,0.208,1.428,0.764,0.852c3.407-3.534,5.944-8.115,8.055-12.513c1.768-3.684,4.079-8.939,3.173-13.089
				C156.102,37.531,156.058,37.522,156.045,37.555L156.045,37.555z"/>
		</g>
	</g>
	<g>
		<g>
			<path d="M142.315,42.667c4.154,11.087,3.626,24.409-0.943,35.332c-2.067,4.941-4.78,9.404-5.71,14.749
				c-0.84,4.829,1.039,10.052,1.656,14.8c0.12,0.926,1.401,0.916,1.279-0.031c-0.715-5.553-2.43-10.921-1.313-16.539
				c1.188-5.976,5.151-11.126,6.784-16.996c2.719-9.771,3.842-22.366-1.429-31.485C142.519,42.291,142.237,42.46,142.315,42.667
				L142.315,42.667z"/>
		</g>
	</g>
	<g>
		<g>
			<path d="M96.778,138.614c-0.493,4.229-2.367,8.148-2.921,12.386c-0.622,4.746-0.376,9.668,0.289,14.394
				c1.471,10.45,4.255,20.823,7.237,30.937c5.484,18.598,13.737,36.131,26.794,50.618c23.978,26.603,62.396,37.711,97.372,33.478
				c0.876-0.106,0.864-1.596-0.037-1.535c-17.342,1.179-34.434,0.14-51.132-4.977c-17.25-5.286-32.92-14.973-45.174-28.22
				c-13.044-14.101-20.919-31.642-26.428-49.851c-2.785-9.204-5.214-18.665-6.846-28.144c-0.928-5.386-1.278-10.872-0.789-16.319
				c0.387-4.311,2.456-8.305,2.471-12.654C97.615,138.199,96.844,138.049,96.778,138.614L96.778,138.614z"/>
		</g>
	</g>
	<g>
		<g>
			<path d="M183.745,278.665c0.913,0.793,2.141,1.104,3.225,1.624c2.024,0.973,3.942,2.134,5.812,3.372
				c3.814,2.526,6.747,5.606,9.773,8.96c0.424,0.471,0.955-0.197,0.727-0.657c-1.821-3.661-5.881-6.435-9.15-8.721
				c-2.27-1.587-7.345-5.48-10.381-4.607C183.74,278.638,183.737,278.657,183.745,278.665L183.745,278.665z"/>
		</g>
	</g>
	<g>
		<g>
			<path d="M199.567-3.088c2.138,12.802,10.375,24.027,19.836,32.517c5.009,4.494,10.69,7.824,16.178,11.646
				c5.971,4.158,10.745,9.797,14.706,15.844c7.401,11.3,11.936,24.222,18.429,36.026c3.399,6.18,7.808,11.662,11.394,17.718
				c4.323,7.302,7.423,15.27,10.014,23.326c0.395,1.227,2.046,0.592,1.67-0.57c-2.267-7.022-4.926-13.875-8.316-20.435
				c-3.505-6.78-8.363-12.65-12.233-19.202c-6.882-11.652-11.436-24.511-18.506-36.066c-3.133-5.119-6.865-9.841-11.257-13.937
				c-4.875-4.545-10.866-7.562-16.195-11.509c-12.394-9.182-20.302-21.046-25.128-35.565C200.004-3.753,199.496-3.511,199.567-3.088
				L199.567-3.088z"/>
		</g>
	</g>
	<g>
		<g>
			<path d="M290.421,132.66c-1.912,2.328-1.382,6.656-0.994,9.42c0.614,4.38,1.843,8.559,3.496,12.654
				c0.082,0.202,0.348,0.384,0.569,0.361c3.878-0.395,7.82-0.032,9.982,3.677c0.371,0.636,1.34,0.325,1.237-0.425
				c-1.152-8.472-5.812-19.6-13.48-24.222c-0.645-0.388-1.104,0.609-0.666,1.065c6.396,6.684,11.49,13.732,12.809,23.189
				c0.412-0.142,0.824-0.284,1.237-0.425c-2.243-3.816-6.007-4.726-10.22-4.475c-1.653,0.099-3.182-8.181-3.441-9.37
				c-0.854-3.917,0.056-7.601-0.451-11.416C290.494,132.658,290.453,132.621,290.421,132.66L290.421,132.66z"/>
		</g>
	</g>
	<g>
		<g>
			<path d="M228.817,11.397c-0.046-0.534-0.691-0.359-0.576,0.118c0.104,0.425,0.427,0.879,0.615,1.271
				c0.661,1.375,1.283,2.771,1.912,4.161c1.551,3.431,2.918,6.545,5.046,9.693c3.268,4.836,7.163,9.228,10.833,13.756
				c3.938,4.859,6.741,10.251,10.278,15.345c5.687,8.189,16.636,14.661,18.003,25.231c0.593,4.583,0.137,9.276,0.409,13.883
				c0.181,3.044,0.652,6.605,3.056,8.74c0.777,0.689,1.642-0.552,0.971-1.185c-3.103-2.925-2.698-8.358-2.733-12.274
				c-0.037-4.125,0.218-8.383-0.875-12.403c-2.518-9.263-12.297-15.594-17.783-22.988c-3.229-4.35-5.562-9.259-8.911-13.574
				c-3.78-4.87-7.898-9.457-11.554-14.428c-2.496-3.394-4.046-6.73-5.788-10.489c-0.676-1.458-1.585-4.885-3.099-5.721
				c-0.298-0.165-0.552,0.097-0.556,0.397c-0.003,0.239,0.141,0.44,0.257,0.639C228.476,11.833,228.843,11.696,228.817,11.397
				L228.817,11.397z"/>
		</g>
	</g>
	<g>
		<g>
			<path d="M275.731,8.429c4.841,17.761,19.696,30.77,27.97,46.848c5.426,10.542,6.147,21.821,7.122,33.407
				c1.021,12.145,5.195,23.977,3.595,36.259c-0.129,0.985,1.241,1.486,1.396,0.408c1.725-11.955-2.203-23.528-3.433-35.322
				c-1.132-10.86-1.442-21.251-5.599-31.521c-7.432-18.357-23.322-31.767-30.811-50.208C275.903,8.128,275.69,8.279,275.731,8.429
				L275.731,8.429z"/>
		</g>
	</g>
	<g>
		<g>
			<path d="M314.366,125.561c-0.423-2.752-4.653-17.054-9.591-11.551c-4.323,4.82-4.353,14.089-4.388,20.213
				c-0.002,0.368,0.271,0.721,0.653,0.728c4.43,0.079,8.452,1.022,11.124,4.824c0.311,0.442,0.997,0.116,1.048-0.353
				c0.529-4.875,0.918-9.723-0.529-14.48c-0.272-0.895-1.41-0.428-1.176,0.412c1.273,4.569,0.984,9.044,0.477,13.704
				c0.35-0.118,0.699-0.235,1.048-0.353c-2.418-3.445-5.87-4.739-9.944-5.163c-0.893-0.093-1.433,0.457-1.421-0.218
				c0.013-0.769,0.047-1.537,0.082-2.305c0.101-2.222,0.321-4.436,0.623-6.639c0.376-2.751,1.094-9.902,4.757-10.251
				c3.566-0.34,6.145,9.115,6.722,11.611C313.946,126.153,314.423,125.924,314.366,125.561L314.366,125.561z"/>
		</g>
	</g>
	<g>
		<g>
			<path d="M311.832,139.069c-1.042,2.44-2.959,4.093-5.101,5.57c-1.741,1.201-4.014,1.843-5.536,3.291
				c-0.266,0.253-0.084,0.965,0.344,0.902c2.336-0.345,4.909-2.332,6.752-3.72c1.941-1.461,3.364-3.479,4.097-5.786
				C312.497,138.981,311.99,138.698,311.832,139.069L311.832,139.069z"/>
		</g>
	</g>
	<g>
		<g>
			<path d="M309.74,82.616c2.604,3.958,5.798,7.492,8.342,11.498c1.396,2.197,2.676,4.656,2.823,7.297
				c0.21,3.759-3.764,4.494-6.434,5.583c-0.487,0.199-0.434,1.119,0.154,1.102c6.202-0.188,8.626-5.273,6.585-10.58
				c-2.291-5.958-7.212-10.399-10.851-15.489C310.045,81.586,309.487,82.23,309.74,82.616L309.74,82.616z"/>
		</g>
	</g>
	<g>
		<g>
			<path d="M312.316,95.868c1.987-1.297,4.132-1.218,6.093,0.077c0.581,0.383,0.941-0.63,0.459-0.983
				c-2.19-1.604-4.83-1.524-6.991,0.077C311.457,95.35,311.813,96.195,312.316,95.868L312.316,95.868z"/>
		</g>
	</g>
	<g>
		<g>
			<path d="M168.543,91.996c-5.192,0.981-6.979,9.194-8.163,13.293c-1.332,4.613-2.968,12.926,0.563,17.042
				c0.217,0.252,0.49-0.118,0.367-0.35c-2.45-4.645-1.444-10.723-0.408-15.657c0.859-4.092,3.029-12.21,7.869-13.453
				C169.26,92.746,169.058,91.898,168.543,91.996L168.543,91.996z"/>
		</g>
	</g>
	<g>
		<g>
			<path d="M164.085,127.253c5.149,4.14,16.842,10.382,22.843,4.608c0.139-0.133-0.003-0.517-0.214-0.406
				c-7.019,3.669-16.57-0.013-22.543-4.386C164.066,126.991,163.999,127.184,164.085,127.253L164.085,127.253z"/>
		</g>
	</g>
	<g>
		<g>
			<path d="M188.26,133.319c3.832,1.442,6.883,0.778,10.176-1.546c3.724-2.628,7.084-6.132,10.559-9.097
				c6.325-5.396,9.004-11.312,8.277-19.682c-0.038-0.438-0.619-0.434-0.596,0.015c0.433,8.233-1.867,13.641-8.011,19.044
				c-2.771,2.438-5.615,4.748-8.305,7.283c-3.504,3.304-7.156,5.289-12.05,3.744C188.172,133.037,188.137,133.273,188.26,133.319
				L188.26,133.319z"/>
		</g>
	</g>
	<g>
		<g>
			<path d="M173.198,90.403c6.263,0.661,12.589-2.587,18.382-4.5c3.419-1.129,6.942-1.982,10.563-1.804
				c4.287,0.211,6.99,3.046,9.483,6.207c0.414,0.525,0.881-0.242,0.701-0.671c-6.924-16.536-27.91-0.055-39.153-0.205
				C172.619,89.423,172.671,90.348,173.198,90.403L173.198,90.403z"/>
		</g>
	</g>
	<g>
		<g>
			<path d="M212.749,93.362c2.316,1.653,2.926,4.304,2.143,6.955c-0.238,0.806,0.883,1.191,1.143,0.34
				c0.962-3.155,0.03-6.429-2.889-8.144C212.625,92.207,212.33,93.062,212.749,93.362L212.749,93.362z"/>
		</g>
	</g>
	<g>
		<g>
			<path d="M198.519,97.108c-1.796-1.313-3.979-2.16-6.25-1.73c-1.453,0.275-2.803,0.907-4.279,0.478
				c-0.943-0.273-1.949-0.308-2.922-0.29c-3.834,0.071-7.111,2.825-9.271,5.751c-3.536,4.792-5.519,15.163,2.262,17.06
				c0.93,0.227,1.119-1.244,0.324-1.557c-6.819-2.685-4.269-11.061-0.793-15.541c2.002-2.579,4.912-4.256,8.189-4.358
				c0.875-0.027,2.963,0.987,3.676,0.668c2.961-1.324,5.917-1.556,8.73,0.236C198.614,98.098,198.867,97.363,198.519,97.108
				L198.519,97.108z"/>
		</g>
	</g>
	<g>
		<g>
			<path d="M205.863,102.023c4.053,6.87-3.432,13.225-8.768,16.435c-2.883,1.734-6.182,3.082-9.542,3.449
				c-3.503,0.383-4.694-0.969-6.297-3.68c-0.29-0.491-1.036-0.418-1.114,0.199c-0.368,2.871,2.355,4.993,4.969,5.29
				c4.261,0.484,8.556-1.39,12.155-3.48c5.335-3.097,14.972-11.825,8.665-18.279C205.889,101.915,205.836,101.979,205.863,102.023
				L205.863,102.023z"/>
		</g>
	</g>
	<g>
		<g>
			<path d="M198.397,100.389c-4.624-2.878-11.953,0.273-14.061,4.851c-0.273,0.594,0.491,1.216,0.854,0.559
				c1.389-2.52,3.525-3.986,6.262-4.752c2.312-0.647,4.589-0.164,6.903-0.448C198.452,100.585,198.481,100.441,198.397,100.389
				L198.397,100.389z"/>
		</g>
	</g>
	<g>
		<g>
			<path d="M189.841,183.392c-0.467,1.87-0.063,4.059,1.786,5.056c0.391,0.211,0.687-0.286,0.502-0.621
				c-0.363-0.662-0.911-1.2-1.268-1.869c-0.379-0.713-0.265-1.539-0.104-2.292C190.897,183.009,190.017,182.69,189.841,183.392
				L189.841,183.392z"/>
		</g>
	</g>
	<g>
		<g>
			<path d="M191.907,191.088c-0.059,1.522-0.177,3.471,1.195,4.478c0.434,0.317,0.82-0.379,0.597-0.736
				c-0.756-1.213-0.927-2.35-0.983-3.761C192.692,190.463,191.931,190.495,191.907,191.088L191.907,191.088z"/>
		</g>
	</g>
	<g>
		<g>
			<path d="M195.885,200.297c0.396,1.259,0.854,2.537,1.539,3.671c0.409,0.676,1.088-0.016,0.848-0.613
				c-0.461-1.142-1.056-2.217-1.48-3.376C196.546,199.309,195.681,199.648,195.885,200.297L195.885,200.297z"/>
		</g>
	</g>
	<g>
		<g>
			<path d="M201.611,207.006c1.214,1.287,3.449,3.68,5.434,3.217c0.355-0.083,0.436-0.694,0.182-0.916
				c-0.666-0.581-1.563-0.726-2.355-1.1c-1.021-0.481-1.896-1.093-2.732-1.852C201.714,205.97,201.267,206.643,201.611,207.006
				L201.611,207.006z"/>
		</g>
	</g>
	<g>
		<g>
			<path d="M210.317,212.259c0.866,0.337,1.734,0.671,2.608,0.985c0.854,0.308,1.788,0.809,2.69,0.563
				c0.394-0.106,0.493-0.767,0.204-1.023c-0.712-0.635-1.699-0.682-2.608-0.903c-0.894-0.219-1.78-0.467-2.666-0.712
				C209.899,210.99,209.757,212.042,210.317,212.259L210.317,212.259z"/>
		</g>
	</g>
	<g>
		<g>
			<path d="M218.335,213.038c1.753,0.847,5.2,2.153,6.284-0.431c0.232-0.552-0.287-1.62-0.962-1.075
				c-0.631,0.511-0.999,1.003-1.857,1.15c-1.045,0.181-2.241-0.024-3.243-0.314C218.193,212.262,218.022,212.886,218.335,213.038
				L218.335,213.038z"/>
		</g>
	</g>
	<g>
		<g>
			<path d="M230.075,213.4c1.594,0.021,3.403-0.404,4.493-1.65c0.475-0.542-0.136-1.742-0.835-1.203
				c-1.147,0.884-2.216,1.416-3.691,1.494C229.28,212.082,229.313,213.389,230.075,213.4L230.075,213.4z"/>
		</g>
	</g>
	<g>
		<g>
			<path d="M238.837,211.057c0.766-0.248,1.516-0.532,2.253-0.856c0.651-0.286,1.471-0.544,1.591-1.346
				c0.044-0.293-0.038-0.551-0.275-0.734c-0.575-0.446-1.233,0.047-1.777,0.31c-0.727,0.351-1.476,0.65-2.236,0.92
				C237.48,209.673,237.845,211.379,238.837,211.057L238.837,211.057z"/>
		</g>
	</g>
	<g>
		<g>
			<path d="M246.228,203.399c0.156-0.056-0.24-0.07,0.021,0.007c0.135,0.039,0.388-0.062,0.52-0.108
				c0.441-0.154,0.917-0.662,1.259-0.97c0.471-0.424,0.95-0.849,1.399-1.295c0.384-0.382,0.941-0.809,0.871-1.413
				c-0.035-0.306-0.157-0.568-0.464-0.679c-0.566-0.203-1.017,0.433-1.368,0.779c-0.448,0.441-0.861,0.924-1.288,1.386
				c-0.344,0.372-0.807,0.841-1.023,1.304c-0.026,0.056-0.201,0.446-0.043,0.2c-0.055,0.085-0.112,0.168-0.134,0.27
				c-0.021,0.099-0.085,0.354,0.022,0.098c-0.008,0.02-0.016,0.039-0.024,0.058C245.908,203.195,246.011,203.477,246.228,203.399
				L246.228,203.399z"/>
		</g>
	</g>
	<g>
		<g>
			<path d="M252.291,195.94c0.909-0.459,1.639-1.244,2.333-1.975c0.555-0.585,2.03-1.764,1.535-2.696
				c-0.598-1.126-1.895,0.769-2.237,1.191c-0.746,0.919-1.438,1.93-1.978,2.98C251.844,195.637,252.012,196.082,252.291,195.94
				L252.291,195.94z"/>
		</g>
	</g>
	<g>
		<g>
			<path d="M257.933,186.171c0.152-0.315,0.488-0.655,0.679-0.971c0.282-0.468,0.564-0.946,0.795-1.44
				c0.381-0.813,0.862-1.655,1.021-2.547c0.145-0.815-0.827-1.44-1.282-0.597c-0.449,0.831-0.705,1.808-1.049,2.688
				c-0.347,0.889-0.366,1.778-0.568,2.678C257.47,186.238,257.803,186.444,257.933,186.171L257.933,186.171z"/>
		</g>
	</g>
	<g>
		<g>
			<path d="M259.64,174.22c0.58-1.681,0.853-3.294,0.307-5.027c-0.332-1.058-1.694-0.503-1.393,0.488
				c0.418,1.377,0.652,2.744,0.265,4.157C258.679,174.347,259.444,174.791,259.64,174.22L259.64,174.22z"/>
		</g>
	</g>
	<g>
		<g>
			<path d="M256.624,162.381c0.033-0.711,0.187-1.441,0.079-2.151c-0.114-0.757-0.438-1.444-0.952-2.014
				c-0.767-0.849-1.764,0.594-1.055,1.303c0.813,0.814,1.084,1.742,1.139,2.881C255.865,162.992,256.597,162.96,256.624,162.381
				L256.624,162.381z"/>
		</g>
	</g>
	<g>
		<g>
			<path d="M193.058,162.16c0.473-0.644,1.029-1.271,1.572-1.857c0.436-0.47,1.011-0.713,1.462-1.146
				c0.187-0.179,0.093-0.514-0.087-0.651c-0.59-0.449-1.322,0.087-1.74,0.532c-0.748,0.797-1.186,1.739-1.742,2.66
				C192.325,162.024,192.793,162.521,193.058,162.16L193.058,162.16z"/>
		</g>
	</g>
	<g>
		<g>
			<path d="M199.281,154.114c0.234-0.611,0.541-1.176,1.054-1.597c0.537-0.44,1.279-0.318,1.789-0.724
				c0.303-0.241,0.291-0.735-0.023-0.961c-0.702-0.504-1.782,0.098-2.349,0.576c-0.702,0.591-1.098,1.429-1.37,2.286
				C198.204,154.252,199.045,154.731,199.281,154.114L199.281,154.114z"/>
		</g>
	</g>
	<g>
		<g>
			<path d="M208.489,147.427c1.578-1.026,3.278-1.693,5.121-2.039c0.66-0.124,0.398-1.183-0.175-1.251
				c-2.077-0.245-4.005,1.497-5.115,3.046C208.237,147.299,208.333,147.528,208.489,147.427L208.489,147.427z"/>
		</g>
	</g>
	<g>
		<g>
			<path d="M219.655,143.901c0.948-0.188,1.904-0.291,2.863-0.402c0.8-0.092,1.651-0.158,2.336-0.61
				c0.519-0.342,0.318-1.375-0.35-1.368c-0.736,0.009-1.479,0.295-2.2,0.443c-1,0.204-1.996,0.392-2.979,0.667
				C218.621,142.829,218.91,144.048,219.655,143.901L219.655,143.901z"/>
		</g>
	</g>
	<g>
		<g>
			<path d="M230.523,141.949c1.996,0.613,3.9,1.551,5.918,2.095c0.921,0.249,1.108-1.244,0.322-1.557
				c-1.843-0.733-4.276-1.4-6.25-0.923C230.339,141.607,230.368,141.902,230.523,141.949L230.523,141.949z"/>
		</g>
	</g>
	<g>
		<g>
			<path d="M241.085,144.494c1.758,0.338,3.334,1.484,4.759,2.482c0.766,0.537,1.203-0.727,0.779-1.262
				c-0.667-0.841-1.676-1.368-2.682-1.698c-0.975-0.32-1.841-0.125-2.816,0.027C240.917,144.077,240.852,144.449,241.085,144.494
				L241.085,144.494z"/>
		</g>
	</g>
	<g>
		<g>
			<path d="M248.748,150.35c0.812,0.841,1.625,1.681,2.471,2.488c0.691,0.66,1.408,1.422,2.354,1.673
				c0.691,0.184,0.879-0.75,0.546-1.179c-0.568-0.732-1.377-1.225-2.082-1.817c-0.842-0.708-1.627-1.484-2.418-2.247
				C248.933,148.605,248.175,149.757,248.748,150.35L248.748,150.35z"/>
		</g>
	</g>
</g>
</svg>
