<?xml version="1.0" encoding="utf-8"?>
<!-- Generator: Adobe Illustrator 15.0.0, SVG Export Plug-In . SVG Version: 6.00 Build 0)  -->
<!DOCTYPE svg PUBLIC "-//W3C//DTD SVG 1.1//EN" "http://www.w3.org/Graphics/SVG/1.1/DTD/svg11.dtd">
<svg version="1.1" id="Layer_1" xmlns="http://www.w3.org/2000/svg" xmlns:xlink="http://www.w3.org/1999/xlink" x="0px" y="0px"
	 width="829.344px" height="795.479px" viewBox="69.465 -9.2 829.344 795.479" enable-background="new 69.465 -9.2 829.344 795.479"
	 xml:space="preserve">
<g>
	<g>
		<path fill="#D8D8D8" d="M91.339-7.221c52.783,0,105.565,0,158.349,0c0.959,11.569,1.919,23.135,3.125,37.66
			c-14.13-9.26-25.174-16.497-36.22-23.737c-1.253,1.879-2.507,3.762-3.761,5.642c1.847,0.932,3.772,1.723,5.526,2.821
			c43.415,27.154,77.253,64.314,106.865,107.362c14.182,20.622,35.01,36.392,53.771,53.18c21.964,19.654,45.347,37.538,67.391,57.1
			c20.823,18.473,41.584,37.202,60.791,57.487c25.533,26.964,51.52,54.595,57.643,94.547c4.688,30.593,7.11,61.573,10.543,92.38
			c-2.32,10.053-5.026,20.026-6.833,30.178c-1.363,7.661-1.577,15.553-2.304,23.34c-2.825-0.864-7.355-0.858-8.211-2.729
			c-7.392-16.17-14.626-32.466-20.916-49.142c-7.188-19.061-9.962-37.986-2.495-58.68c5.415-15,4.787-31.783-3.463-46.785
			c-1.572,14.022,1.375,28.861-2.153,41.72c-8.737,31.829,0.434,59.056,11.063,88.271c17.318,47.599,30.536,96.858,45.484,145.419
			c-1.71,1.127-3.543,3.375-5.107,3.184c-5.7-0.695-11.311-2.207-16.955-3.411c-0.969,0.812-1.938,1.617-2.909,2.428
			c-0.95,1.495-1.902,2.99-2.854,4.486c-3.088-3.25-7.393-5.931-9.046-9.859c-5.945-14.107-10.993-28.643-16.38-43.014
			c-13.546-29.933-26.924-59.949-40.892-89.661c-1.439-3.063-6.397-4.28-9.724-6.355c-1.781,3.497-5.297,7.131-5.058,10.465
			c1.367,18.98,3.629,37.894,5.588,56.83c0.275,5.123,0.552,10.243,0.828,15.367c0.407,11.393,1.513,22.812,1.09,34.169
			c-1.245,33.417-3.098,66.805-4.71,100.206c-1.239-3.437-3.063-6.771-3.611-10.323c-2.162-13.965-8.728-19.12-21.566-12.938
			c-1.046-7.34-2.094-14.679-3.14-22.018c-0.793-12.415-1.584-24.829-2.376-37.24c-6.452-36.847-12.706-73.733-19.652-110.475
			c-0.737-3.897-5.267-9.254-8.547-9.696c-3.019-0.403-8.212,4.176-9.832,7.849c-3.856,8.744-6.17,18.248-9.104,27.444
			c-2.88,21.058-5.76,42.111-8.641,63.164c-4.336,26.882-8.673,53.764-13.011,80.647c-0.873-3.035-2.207-6.021-2.541-9.125
			c-1.889-17.58-5.166-20.104-22.026-16.411c0.357-6.532,0.553-13.08,1.101-19.598c4.101-48.768,8.4-97.52,12.186-146.313
			c0.324-4.172-2.623-8.63-4.049-12.952c-3.539,1.697-8.578,2.359-10.37,5.261c-11.738,19.001-22.961,38.367-33.958,57.861
			c-5.196,9.213-8.824,19.479-14.545,28.265c-2.734,4.198-8.69,6.06-13.185,8.979c-0.614-5.777-2.779-11.95-1.557-17.257
			c4.013-17.43,9.255-34.54,14.025-51.774c8.161-33.596,28.7-62.812,31.135-98.457c1.44-21.075,4.231-42.123,4.372-63.199
			c0.081-11.979-0.579-26.667-6.818-35.447c-14.372-20.224-30.513-40.067-49.25-55.607c-42.504-35.249-87.008-67.807-130.7-101.461
			c-5.215-5.447-10.432-10.897-15.647-16.344c-9.572-20.561-19.146-41.118-28.718-61.675c-2.024-13.331-4.048-26.658-6.07-39.984
			c-0.792-2.45-1.583-4.899-2.374-7.349c-0.314-3.061-0.628-6.122-0.941-9.184c-0.734-2.366-1.468-4.732-2.202-7.099
			c-0.283-3.083-0.568-6.167-0.854-9.251c-0.785-1.463-1.57-2.927-2.356-4.387c-0.274-2.927-0.549-5.85-0.822-8.774
			C93,7.363,92.238,5.944,91.479,4.522c-0.168-2.741-0.338-5.485-0.506-8.226C91.093-4.874,91.216-6.049,91.339-7.221z"/>
		<path fill="#A7A7A7" d="M255.897-7.221c156.279,0,312.556,0,468.835,0c-1.072,8.626-2.78,17.23-3.073,25.886
			c-0.479,14.118-4.676,24.384-17.416,31.87c-13.88,8.159-26.516,18.928-38.944,29.536c-18.022,15.379-34.133,33.599-53.259,47.138
			c-49.255,34.861-99.615,68-149.95,101.118c-3.188,2.098-11.142-0.243-14.853-3.279c-19.906-16.279-37.865-35.601-58.979-49.741
			c-27.271-18.265-48.35-41.78-67.786-68.412c-15.978-21.893-35-41.291-52.389-62.063c-3.572-4.265-7.501-9.398-8.437-14.691
			C257.48,17.87,257.039,5.254,255.897-7.221z"/>
		<path fill="#D8D8D8" d="M727.837-7.221c52.783,0,105.565,0,158.349,0c-5.484,28.095-11.154,56.152-16.403,84.298
			c-5.586,29.952-10.898,59.927-36.676,79.428c-4.711,3.355-9.592,6.475-14.104,10.105
			c-54.794,44.118-112.146,83.687-173.896,116.508c-30.476,16.199-67.58,21.864-86.409,54.422
			c-32.336-32.453-64.461-64.691-99.726-100.081c28.123-19.401,54.185-37.547,80.403-55.431
			c32.488-22.158,67.717-40.849,96.969-67.013c32.104-28.716,64.104-56.683,100.826-78.406c9.515-5.626,18.881-11.531,28.315-17.311
			c-0.643-1.319-1.284-2.642-1.927-3.964c-11.603,5.959-23.203,11.918-35.723,18.348C727.837,18.809,727.837,5.792,727.837-7.221z"
			/>
		<path fill="#FEFEFE" d="M147.227,786.279c-25.826,0-51.653,0-77.55,0c0-264.502,0-529-0.021-793.5c5.144,0,10.309,0,15.475,0
			c0.838,3.676,1.677,7.352,2.515,11.025c0.417,2.972,0.835,5.943,1.252,8.918c0.726,2.613,1.453,5.226,2.177,7.838
			c0.241,2.824,0.483,5.648,0.725,8.473c0.793,2.462,1.586,4.925,2.378,7.384c0.285,1.928,0.57,3.852,0.855,5.776
			c0.813,1.617,1.625,3.231,2.438,4.848c2.959,18.338,5.92,36.676,8.879,55.015c2.916,22.895,12.644,42.085,28.3,58.05
			c5.233,5.421,10.468,10.842,15.702,16.264c16.613,11.755,21.302,27.947,19.208,48.694c-1.948,19.305-0.707,38.969-0.869,58.476
			c-0.75,7.547-1.871,15.072-2.192,22.639c-2.385,56.014-4.265,112.053-7.053,168.044c-1.188,23.868-4.173,47.642-6.343,71.458
			c-4.89,32.193-9.779,64.392-14.668,96.587c-3.547,26.331-7.536,52.613-10.247,79.04c-0.502,4.894,3.799,10.594,6.522,15.527
			c3.518,6.375,9.648,11.879,11.098,18.613C147.933,765.328,146.908,775.965,147.227,786.279z"/>
		<path fill="#FEFEFE" d="M892.396-7.221c2.069,1.092,5.538,1.796,5.929,3.359c0.891,3.577,0.28,7.57,0.28,11.396
			c0,259.583,0,519.162,0,778.745c-16.56,0-33.117,0-49.678,0c-0.026-10.313,0.176-20.633-0.133-30.934
			c-0.464-15.445-3.492-32.501,21.736-28.04c-5.456-47.43-10.642-92.491-15.824-137.555c-0.982-15.585-2.099-31.16-2.914-46.754
			c-0.985-18.796-1.718-37.608-2.559-56.417c-1.278-37.753-2.558-75.506-3.833-113.258c-0.755-8.018-1.513-16.039-2.268-24.057
			c-0.311-6.164-0.623-12.325-0.934-18.489c-1.795-16.772-3.59-33.548-5.386-50.321c-2.027-33.891-4.396-67.766-5.78-101.685
			c-0.253-6.222,3.486-12.623,5.384-18.943c20.687-12.184,29.062-32.94,33.817-55.694C877.976,67.099,885.044,29.904,892.396-7.221z
			"/>
		<path fill="#A7A7A7" d="M842.717,786.279c-106.601,0-213.2,0-319.801,0c-0.727-3.181-1.451-6.356-2.178-9.536
			c-0.796,0.096-1.593,0.188-2.392,0.281c-0.547,3.084-1.095,6.171-1.642,9.255c-121.09,0-242.18,0-363.27,0
			c0-13.424,0-26.851,0-42.079c10.142,0.857,19.181,1.624,28.215,2.393c4.983,0.16,9.97,0.323,14.955,0.483
			c7.43,0.954,14.86,1.905,22.291,2.858c21.035,1.162,42.101,3.728,63.099,3.222c63.68-1.53,127.336-4.245,191.001-6.503
			c45.677-2.232,91.354-4.461,137.028-6.689c7.308-0.901,14.615-1.806,21.926-2.709c11.17-0.149,22.342-0.301,33.514-0.451
			c13.676-0.938,27.354-1.877,41.03-2.813c40.239-1.396,80.478-2.793,120.719-4.188c11.996-0.61,15.942,5.949,15.44,17.899
			C842.114,760.534,842.65,773.419,842.717,786.279z"/>
		<path fill="#6D6D6D" d="M836.418,159.828c-1.896,6.321-5.637,12.722-5.384,18.943c1.385,33.919,3.753,67.794,5.781,101.688
			c-1.042,3.544-2.082,7.089-3.125,10.631c-3.821-38.486-7.642-76.972-11.723-118.096c-7.649,5.476-12.964,8.748-17.715,12.76
			c-65.511,55.348-139.459,95.351-215.386,131.596c-20.923,9.987-28.772,25.905-22.273,49.148c2.9,10.372,4.456,21.233,5.886,31.979
			c2.724,20.463,5.064,40.983,7.237,61.52c0.679,6.407,0.05,12.955,0.456,19.407c0.675,10.739-0.334,22.231,3.021,32.009
			c6.123,17.848,14.896,34.685,22.604,51.921c6.601,14.752,14.074,29.158,19.398,44.403c1.598,4.576-1.104,13.808-4.777,16.619
			c-3.688,2.823-11.968,2.192-16.584-0.313c-7.281-3.952-13.182-10.74-19.526-16.209c2.467,18.313,5.275,35.911,7.101,53.625
			c1.719,16.711-5.114,27.349-21.701,29.517c-7.083-8.616-16.367-16.147-20.75-26.094c-7.267-16.478-11.378-34.506-16.817-51.883
			c-0.987-1.249-1.978-2.498-2.964-3.747c-0.128-0.964-0.205-1.938-0.232-2.91c1.11-1.238,2.224-2.479,3.335-3.715
			c5.387,14.371,10.435,28.905,16.38,43.014c1.653,3.93,5.958,6.609,9.044,9.859c0.839,1.002,1.677,2.008,2.517,3.013
			c0.59,3.66,0.199,8.021,1.992,10.82c2.795,4.361,7.071,7.659,10.72,11.405c3.134-4.159,6.268-8.315,9.4-12.477
			c11.216-4.62,4.386-12.552,3.198-19.448c-14.948-48.561-28.166-97.82-45.484-145.419c-10.629-29.217-19.8-56.442-11.063-88.271
			c3.528-12.858,0.581-27.698,2.153-41.72c8.25,15.001,8.879,31.783,3.464,46.785c-7.468,20.691-4.692,39.618,2.494,58.679
			c6.29,16.676,13.524,32.972,20.916,49.142c0.854,1.87,5.386,1.864,8.212,2.729c0.764-1.124,1.525-2.248,2.289-3.372
			c3.167,3.029,6.334,6.062,9.501,9.091c1.546-0.999,3.091-2.001,4.636-3.004c-2.317-7.534-4.636-15.068-6.951-22.603
			c-0.113-11.208-0.229-22.418-0.339-33.63c-3.433-30.807-5.854-61.786-10.543-92.379c-6.123-39.952-32.108-67.583-57.643-94.547
			c-19.207-20.285-39.968-39.014-60.791-57.487c-22.044-19.562-45.427-37.445-67.391-57.1c-18.763-16.789-39.59-32.559-53.771-53.18
			c-29.61-43.048-63.45-80.208-106.865-107.362c-1.754-1.098-3.679-1.889-5.526-2.821c1.254-1.88,2.508-3.763,3.761-5.642
			c11.046,7.24,22.09,14.477,36.22,23.737c-1.206-14.524-2.165-26.09-3.125-37.66c2.069,0,4.14,0,6.209,0
			c1.142,12.476,1.583,25.091,3.752,37.362c0.935,5.293,4.865,10.426,8.437,14.691c17.388,20.771,36.411,40.17,52.39,62.063
			c19.436,26.632,40.513,50.147,67.785,68.412c21.112,14.141,39.072,33.462,58.979,49.741c3.711,3.036,11.664,5.376,14.853,3.279
			c50.334-33.119,100.695-66.257,149.95-101.118c19.126-13.539,35.235-31.758,53.259-47.138
			c12.431-10.608,25.064-21.377,38.944-29.536c12.74-7.486,16.938-17.752,17.416-31.87c0.293-8.655,2.001-17.259,3.073-25.886
			c1.035,0,2.068,0,3.104,0c0,13.013,0,26.03,0,40.903c12.521-6.43,24.12-12.389,35.724-18.348c0.642,1.322,1.283,2.645,1.926,3.964
			c-9.436,5.78-18.801,11.685-28.315,17.311c-36.722,21.723-68.723,49.69-100.825,78.406c-29.253,26.164-64.48,44.854-96.97,67.013
			c-26.22,17.884-52.279,36.03-80.402,55.431c35.264,35.39,67.389,67.628,99.725,100.081c18.829-32.559,55.935-38.223,86.41-54.422
			c61.749-32.821,119.103-72.39,173.896-116.508c4.513-3.631,9.394-6.75,14.104-10.105
			C834.209,157.612,835.314,158.72,836.418,159.828z M603.521,615.774c1.092-0.003,2.186-0.003,3.277-0.007
			c0.934,0.067,1.864,0.112,2.8,0.139c3.001-1.729,5.999-3.455,8.999-5.183c-3.948-5.962-7.898-11.921-11.849-17.88
			c0.056-0.894,0.097-1.783,0.124-2.677c-5.662-14.967-9.981-30.791-17.802-44.371c-2.354-4.086-14.438-1.922-25.19-2.908
			c7.63,28.832,19.386,50.817,36.659,69.703c1.047,1.108,2.093,2.219,3.137,3.327L603.521,615.774z"/>
		<path fill="#6B6B6B" d="M842.717,786.279c-0.065-12.86-0.603-25.745-0.063-38.579c0.502-11.95-3.444-18.511-15.442-17.895
			c-0.003-1.812-0.008-3.628-0.011-5.442c6.145-0.191,12.321-0.884,18.43-0.472c13.591,0.919,19.049-2.812,16.57-19.417
			c-4.853-32.518-7.05-65.473-10.349-98.246c0.951-5.49,1.901-10.985,2.854-16.478c5.184,45.063,10.368,90.125,15.824,137.555
			c-25.229-4.461-22.2,12.595-21.736,28.04c0.309,10.301,0.104,20.621,0.133,30.934
			C846.857,786.279,844.787,786.279,842.717,786.279z"/>
		<path fill="#6E6E6E" d="M181.655,746.589c-9.038-0.765-18.076-1.53-28.218-2.389c0,15.229,0,28.655,0,42.079
			c-2.07,0-4.141,0-6.21,0c-0.318-10.314,0.707-20.951-1.419-30.83c-1.449-6.734-7.58-12.238-11.098-18.613
			c-2.723-4.935-7.024-10.635-6.522-15.527c2.711-26.427,6.7-52.709,10.247-79.039c0.923,4.405,1.845,8.813,2.765,13.215
			c-2.045,19.463-3.878,38.957-6.207,58.384c-1.513,12.626,2.953,19.563,15.109,21.572c13.707,2.268,27.295,5.327,40.935,8.04
			C187.91,744.518,184.782,745.552,181.655,746.589z"/>
		<path fill="#737373" d="M836.418,159.828c-1.104-1.108-2.209-2.216-3.313-3.324c25.776-19.501,31.09-49.476,36.676-79.428
			C875.03,48.93,880.7,20.873,886.185-7.222c2.069,0,4.142,0,6.211,0c-7.353,37.125-14.42,74.32-22.16,111.355
			C865.479,126.888,857.104,147.644,836.418,159.828z"/>
		<path fill="#686868" d="M516.706,786.279c0.547-3.084,1.095-6.171,1.642-9.255c0.798-0.094,1.596-0.187,2.392-0.281
			c0.727,3.18,1.451,6.355,2.178,9.536C520.847,786.279,518.775,786.279,516.706,786.279z"/>
		<path fill="#808080" d="M87.645,3.804c-0.838-3.673-1.677-7.349-2.515-11.025c2.069,0,4.14,0,6.209,0
			c-0.123,1.172-0.246,2.347-0.368,3.519C89.862-1.201,88.754,1.303,87.645,3.804z"/>
		<path fill="#6D6D6D" d="M305.003,527c-4.77,17.234-10.012,34.346-14.025,51.774c-1.222,5.307,0.943,11.479,1.557,17.257
			c4.495-2.921,10.45-4.781,13.185-8.979c5.721-8.786,9.349-19.052,14.545-28.265c10.997-19.494,22.22-38.86,33.958-57.861
			c1.792-2.9,6.831-3.563,10.37-5.261c1.428,4.322,4.374,8.78,4.049,12.952c-3.785,48.793-8.085,97.545-12.186,146.313
			c-0.547,6.518-0.743,13.064-1.101,19.601c-0.059,1.182-0.115,2.366-0.174,3.548c-1.918,1.096-3.835,2.189-5.756,3.282
			c-0.04-3.317-0.076-6.639-0.114-9.955c0.893-7.688,1.786-15.38,2.68-23.071c1.186-14.262,2.371-28.523,3.557-42.786
			c-1.267-0.422-2.536-0.842-3.804-1.265c-4.165,7.194-8.138,14.521-12.536,21.554c-8.058,12.885-23.391,19.158-34.61,14.464
			c-25.481-10.66-29.683-16.9-24.938-39.744c2.861-13.766,5.82-27.708,10.677-40.763c5.381-14.464,5.696-25.646-9.686-32.453
			c1.018-2.181,2.035-4.358,3.05-6.539c3.163,1.013,6.324,2.021,9.488,3.033c0.894,1.287,1.789,2.574,0.249,0.358
			c2.532,1.054,1.057,0.438-0.42-0.178c2.123-2.094,4.245-4.188,6.367-6.281C301.257,520.82,303.131,523.91,305.003,527z
			 M324.396,632.849c1.118-1.063,2.233-2.123,3.35-3.187c1.073-1.191,2.146-2.382,3.22-3.573c0.838-1.259,1.677-2.521,2.518-3.778
			c29.077-33.76,20.2-77.566,28.056-117.496c-8.006,6.649-15.65,13.51-20.067,22.192c-12.589,24.759-23.863,50.26-35.656,75.47
			l-0.063-0.069c5.456,1.146,10.912,2.289,16.358,3.436c-1.604,0.198-3.207,0.4-4.81,0.599
			c-12.137-0.416-16.381,8.634-16.423,18.561c-0.039,8.848,6.648,11.034,14.31,7.429
			C318.257,632.569,321.327,632.711,324.396,632.849z M279.802,618.465c2.628,1.408,5.259,2.817,7.889,4.225
			c2.341-5.502,4.9-10.93,6.693-16.626c0.185-0.59-4.198-2.782-6.461-4.229C285.216,607.376,282.508,612.922,279.802,618.465z"/>
		<path fill="#6D6D6D" d="M305.003,527c-1.873-3.09-3.746-6.18-5.619-9.27c0.945-4.43,1.892-8.86,2.836-13.293
			c1.631-1.577,3.262-3.153,4.892-4.731c-0.676-0.487-1.352-0.974-2.025-1.46c-0.915,2.104-1.827,4.21-2.741,6.313
			c-1.957-0.048-3.915-0.097-5.872-0.145c-1.204-0.055-2.408-0.108-3.61-0.16c19.107-25.328,35.912-52.056,39.431-85.185
			c1.895-17.829,2.566-35.938,2.057-53.865c-0.325-11.521-0.52-25.607-6.529-33.875c-14.005-19.267-29.852-37.941-47.939-52.802
			c-29.276-24.054-60.936-44.877-91.639-66.987c-3.191-2.299-6.711-4.092-11.546-7.003c-0.487,5.2-0.776,8.31-1.067,11.418
			c-1.299,34.896-2.599,69.792-3.898,104.692c-1.014-12.37-2.028-24.739-3.042-37.109c0.162-19.507-1.08-39.171,0.869-58.476
			c2.094-20.747-2.596-36.939-19.208-48.694c1.129-1.182,2.261-2.36,3.39-3.542c43.692,33.654,88.196,66.212,130.7,101.461
			c18.738,15.54,34.878,35.383,49.25,55.607c6.239,8.78,6.899,23.468,6.818,35.447c-0.141,21.076-2.932,42.123-4.372,63.199
			C333.704,464.188,313.164,493.404,305.003,527z"/>
		<path fill="#6D6D6D" d="M349.43,681.359c1.918-1.093,3.835-2.188,5.755-3.282c0.148,1.307,0.296,2.616,0.444,3.923
			c-0.569,10.51-3.831,22.328,11.04,25.332c1.365-1.038,2.729-2.078,4.094-3.116l-0.066,0.021c3.076-1.391,6.151-2.782,9.228-4.173
			c4.337-26.885,8.675-53.767,13.011-80.647c1.782,10.83,3.564,21.666,5.348,32.498c0.211,1.848,0.42,3.695,0.631,5.55
			c2.92,1.508,5.841,3.01,8.761,4.512c5.423,2.172,10.844,4.346,16.267,6.521c2.952-0.18,5.907-0.355,8.86-0.535
			c0.146-8.799,0.291-17.599,0.438-26.4c0.525-8.64,1.15-17.271,1.562-25.922c1.427-29.978-3.725-58.692-13.144-86.57
			c-1.666-0.32-3.331-0.641-4.997-0.96c-4.097,11.706-8.192,23.416-12.289,35.123c-0.933-2.324-1.863-4.649-2.794-6.979
			c2.935-9.196,5.249-18.7,9.104-27.444c1.619-3.673,6.813-8.252,9.832-7.849c3.281,0.442,7.81,5.799,8.547,9.696
			c6.947,36.739,13.2,73.628,19.651,110.478c-1.032,5.738-2.063,11.47-3.097,17.202c-1.135-7.525-2.268-15.05-3.397-22.575
			c-5.688,14.679,4.442,35.453-14.392,41.808c-9.898,3.336-22.864-3.469-35.392-5.876c-0.848,4.102-2.152,12.667-4.424,20.94
			c-4.762,17.343-14.877,24.72-27.802,20.98C348.609,710.255,345.068,699.659,349.43,681.359z"/>
		<path fill="#6E6E6E" d="M479.404,723.646c1.612-33.401,3.465-66.789,4.71-100.206c0.423-11.357-0.683-22.776-1.09-34.169
			c0.991-2.366,1.985-4.733,2.979-7.101c2.032,17.513,4.063,35.021,6.093,52.537c0.789,2.456,1.579,4.912,2.367,7.364
			c1.233,1.134,2.465,2.268,3.698,3.399l-0.147-0.227c1.007,1.079,2.015,2.154,3.021,3.233c1.113,0.013,2.226,0.025,3.339,0.038
			c14.547,3.93,18.744,0.368,15.843-13.896c-0.843-4.144-2.899-8.008-4.4-12.001c1.36-0.112,2.722-0.225,4.083-0.337
			c0.908-1.963,1.818-3.922,2.729-5.885c1.215-3.458,2.428-6.917,3.639-10.375c0.318,4.604,0.64,9.209,0.957,13.811
			c0.541,0.891,1.176,1.694,1.9,2.418c0.021,5.979,0.369,11.979-0.001,17.933c-0.998,15.996-10.916,23.45-25.22,19.145
			c-3.297-0.992-6.481-2.411-11.992-4.492c0,9.859,0.668,17.93-0.149,25.824c-1.437,13.917-1.663,28.652-6.59,41.208
			c-2.694,6.862-13.584,12.789-21.504,14.051c-10.298,1.641-14.66-7.867-15.414-18.214c0.944-13.112,1.889-26.225,2.833-39.337
			c1.046,7.339,2.094,14.678,3.144,22.021c0.001,0.008,0.822,1.082,0.822,1.082c0.304,8.447,0.218,16.963,1.501,25.239
			c0.13,0.842,8.503,0.256,13.051,0.333C472.871,725.91,476.137,724.78,479.404,723.646z"/>
		<path fill="#717171" d="M526.267,606.027c-1.213,3.455-2.426,6.914-3.639,10.367c-2.75-36.916-18.046-68.383-37.504-99.49
			c0,16.619,0,31.533,0,46.445c-0.976,3.52-1.951,7.035-2.927,10.555c-1.959-18.938-4.222-37.85-5.588-56.83
			c-0.239-3.334,3.275-6.969,5.058-10.465c3.326,2.074,8.284,3.292,9.724,6.355c13.968,29.712,27.346,59.729,40.892,89.661
			c-1.111,1.236-2.225,2.476-3.334,3.711C528.06,606.175,527.167,606.072,526.267,606.027z"/>
		<path fill="#7C7C7C" d="M87.645,3.804c1.109-2.501,2.218-5.005,3.326-7.506c0.168,2.741,0.338,5.485,0.511,8.239
			C92.242,5.958,93,7.37,93.757,8.783c0.273,2.924,0.547,5.847,0.825,8.784c0.787,1.466,1.571,2.92,2.353,4.377
			c0.285,3.083,0.57,6.167,0.855,9.261c0.734,2.369,1.466,4.729,2.2,7.089c0.313,3.062,0.627,6.123,0.941,9.19
			c0.791,2.453,1.583,4.896,2.374,7.342c2.022,13.327,4.046,26.654,6.07,39.981c-1.008,2.415-2.017,4.832-3.026,7.25
			c-2.959-18.338-5.92-36.677-8.882-55.018c-0.814-1.617-1.624-3.231-2.435-4.845c-0.285-1.924-0.57-3.849-0.855-5.78
			c-0.792-2.462-1.585-4.921-2.378-7.381c-0.241-2.824-0.484-5.648-0.728-8.482c-0.728-2.616-1.451-5.223-2.174-7.829
			C88.479,9.747,88.061,6.775,87.645,3.804z"/>
		<path fill="#7A7A7A" d="M401.574,556.251c0.931,2.328,1.861,4.653,2.794,6.978c-2.028,29.563-4.058,59.123-6.087,88.686
			c-1.783-10.832-3.565-21.668-5.348-32.498C395.814,598.362,398.694,577.309,401.574,556.251z"/>
		<path fill="#767676" d="M106.349,102.056c1.01-2.417,2.018-4.835,3.026-7.25c9.572,20.561,19.146,41.118,28.718,61.678
			c-1.149,1.208-2.297,2.415-3.444,3.622C118.993,144.141,109.265,124.951,106.349,102.056z"/>
		<path fill="#767676" d="M451.087,678.369c-0.944,13.112-1.889,26.225-2.832,39.334c-0.879-19.792-1.76-39.581-2.64-59.369
			c1.03-5.732,2.062-11.464,3.094-17.202C449.502,653.54,450.294,665.954,451.087,678.369z"/>
		<path fill="#757575" d="M560.221,658.513c-0.84-1.005-1.678-2.011-2.517-3.013c0.952-1.496,1.904-2.991,2.851-4.483
			c0.968-0.807,1.94-1.616,2.914-2.431c5.646,1.204,11.255,2.716,16.955,3.411c1.564,0.19,3.397-2.057,5.107-3.185
			c1.188,6.897,8.018,14.829-3.2,19.449C577.778,657.889,574.346,644.677,560.221,658.513z"/>
		<path fill="#7B7B7B" d="M355.629,682c-0.148-1.307-0.296-2.616-0.444-3.923c0.057-1.183,0.114-2.366,0.172-3.548
			c16.86-3.695,20.138-1.172,22.026,16.408c0.333,3.104,1.667,6.09,2.541,9.125c-3.076,1.391-6.151,2.782-9.228,4.173
			c0.097-7.638,0.193-15.274,0.29-22.911C365.867,681.549,360.747,681.771,355.629,682z"/>
		<path fill="#777777" d="M479.404,723.646c-3.268,1.134-6.533,2.264-9.798,3.396c0.702-12.047,5.346-26.597-14.554-25.572
			c0,0-0.821-1.075-0.823-1.082c12.836-6.187,19.401-1.03,21.563,12.935C476.341,716.877,478.165,720.211,479.404,723.646z"/>
		<path fill="#7A7A7A" d="M575.359,477.221c0.11,11.211,0.226,22.421,0.339,33.629c-9.698,1.963-9.808,8.578-7.186,16.517
			c-0.764,1.124-1.525,2.248-2.29,3.372c0.727-7.787,0.939-15.678,2.304-23.34C570.333,497.247,573.039,487.272,575.359,477.221z"/>
		<path fill="#808080" d="M134.649,160.106c1.147-1.207,2.295-2.414,3.444-3.622c5.215,5.447,10.432,10.897,15.647,16.344
			c-1.129,1.181-2.261,2.36-3.39,3.542C145.118,170.949,139.883,165.528,134.649,160.106z"/>
		<path fill="#6B6B6B" d="M482.196,573.904c0.976-3.52,1.951-7.035,2.927-10.555c0.294,6.275,0.587,12.55,0.879,18.821
			c-0.993,2.366-1.987,4.733-2.979,7.1C482.748,584.146,482.472,579.027,482.196,573.904z"/>
		<path fill="#7E7E7E" d="M103.305,54.826c-0.792-2.447-1.583-4.89-2.374-7.342C101.722,49.926,102.514,52.376,103.305,54.826z"/>
		<path fill="#7E7E7E" d="M99.99,38.293c-0.734-2.36-1.466-4.72-2.2-7.089C98.522,33.561,99.256,35.927,99.99,38.293z"/>
		<path fill="#7E7E7E" d="M93.757,8.783c-0.758-1.412-1.516-2.824-2.275-4.246C92.236,5.946,92.998,7.364,93.757,8.783z"/>
		<path fill="#D1D1D1" d="M563.469,648.586c-0.974,0.813-1.946,1.624-2.914,2.431C561.529,650.203,562.5,649.396,563.469,648.586z"
			/>
		<path fill="#7E7E7E" d="M96.935,21.943c-0.782-1.457-1.566-2.911-2.353-4.377C95.364,19.017,96.149,20.48,96.935,21.943z"/>
		<path fill="#707070" d="M168.691,283.54c1.014,12.37,2.028,24.739,3.044,37.109c3.049,79.291-5.865,157.708-15.418,236.083
			c-1.07-3.684-2.142-7.368-3.214-11.051c2.169-23.816,5.154-47.59,6.343-71.458c2.788-55.991,4.668-112.031,7.053-168.044
			C166.82,298.612,167.94,291.087,168.691,283.54z"/>
		<path fill="#747474" d="M153.103,545.682c1.072,3.683,2.144,7.367,3.217,11.051c-5.04,32.921-10.079,65.838-15.118,98.756
			c-0.921-4.406-1.843-8.813-2.767-13.22C143.324,610.072,148.213,577.875,153.103,545.682z"/>
		<path fill="#7E7E7E" d="M91.798,29.033c0.793,2.459,1.586,4.918,2.378,7.381C93.384,33.958,92.591,31.495,91.798,29.033z"/>
		<path fill="#7E7E7E" d="M88.896,12.722c0.723,2.606,1.446,5.213,2.174,7.829C90.349,17.947,89.623,15.334,88.896,12.722z"/>
		<path fill="#7E7E7E" d="M95.032,42.193c0.811,1.614,1.621,3.228,2.435,4.845C96.657,45.424,95.845,43.811,95.032,42.193z"/>
		<path fill="#707070" d="M845.4,373.323c1.275,37.752,2.555,75.505,3.834,113.267c-1.023,23.379-2.046,46.747-3.074,70.116
			c-1.218-50.138-2.433-100.276-3.646-150.414C843.476,395.303,844.438,384.313,845.4,373.323z"/>
		<path fill="#767676" d="M846.163,556.706c1.025-23.369,2.048-46.737,3.071-70.116c0.84,18.8,1.571,37.612,2.558,56.408
			c0.815,15.594,1.932,31.169,2.914,46.754c-0.952,5.491-1.902,10.986-2.852,16.475c-1.936-12.143-3.869-24.28-5.806-36.421
			C846.088,565.438,846.125,561.07,846.163,556.706z"/>
		<path fill="#777777" d="M833.693,291.091c1.04-3.542,2.08-7.086,3.122-10.631c1.795,16.769,3.59,33.545,5.385,50.317
			c-0.913,5.472-1.825,10.944-2.736,16.414C837.541,328.488,835.617,309.791,833.693,291.091z"/>
		<path fill="#777777" d="M845.4,373.323c-0.964,10.989-1.926,21.979-2.886,32.966c-0.866-12.165-1.733-24.327-2.602-36.485
			c1.073-6.846,2.146-13.692,3.22-20.538C843.889,357.284,844.646,365.305,845.4,373.323z"/>
		<path fill="#707070" d="M843.134,349.266c-1.073,6.846-2.146,13.692-3.223,20.538c-0.15-7.538-0.299-15.076-0.449-22.61
			c0.913-5.473,1.825-10.945,2.738-16.417C842.511,336.941,842.823,343.102,843.134,349.266z"/>
		<path fill="#6A6A6A" d="M472.997,746.653c-63.665,2.258-127.321,4.973-191.001,6.503c-20.999,0.506-42.064-2.06-63.103-3.222
			c8.322-1.065,16.645-2.133,24.965-3.198c72.202-1.089,144.408-2.174,216.613-3.264
			C464.646,744.533,468.822,745.594,472.997,746.653z"/>
		<path fill="#6F6F6F" d="M472.997,746.653c-4.175-1.061-8.35-2.12-12.522-3.181c2.962-0.891,5.893-2.431,8.884-2.578
			c47.868-2.347,95.746-4.518,143.619-6.728c0,0.968-0.003,1.935-0.005,2.904c-0.979,0.961-1.963,1.925-2.942,2.889
			C564.351,742.192,518.674,744.421,472.997,746.653z"/>
		<path fill="#6C6C6C" d="M827.2,724.363c0.003,1.814,0.008,3.632,0.011,5.442c-40.239,1.391-80.478,2.786-120.72,4.18
			c-10.474-1.051-20.941-2.102-31.409-3.153c27.18-1.259,54.366-2.38,81.536-3.862c8.118-0.44,16.185-1.905,24.275-2.896
			c4.049-0.018,8.098-0.032,12.146-0.048C804.427,724.14,815.813,724.252,827.2,724.363z"/>
		<path fill="#717171" d="M675.082,730.835c10.468,1.05,20.937,2.101,31.409,3.15c-13.674,0.94-27.353,1.88-41.024,2.817
			c-7.274-1.057-14.554-2.12-21.828-3.18C654.122,732.695,664.602,731.764,675.082,730.835z"/>
		<path fill="#6E6E6E" d="M243.861,746.733c-8.323,1.068-16.646,2.136-24.968,3.201c-7.427-0.953-14.857-1.904-22.284-2.858
			c4.23-1.028,8.458-2.05,12.685-3.077C220.817,744.911,232.339,745.82,243.861,746.733z"/>
		<path fill="#6C6C6C" d="M643.636,733.624c7.277,1.06,14.557,2.123,21.831,3.18c-11.175,0.15-22.347,0.302-33.521,0.451
			c-6.326-0.061-12.649-0.121-18.975-0.183c0.002-0.971,0.004-1.938,0.005-2.907C623.196,733.982,633.416,733.804,643.636,733.624z"
			/>
		<path fill="#6A6A6A" d="M209.293,744.002c-4.227,1.024-8.455,2.046-12.685,3.074c-4.988-0.16-9.974-0.323-14.958-0.483
			c3.131-1.041,6.258-2.075,9.383-3.108C197.118,743.656,203.207,743.829,209.293,744.002z"/>
		<path fill="#717171" d="M612.972,737.072c6.324,0.062,12.647,0.122,18.975,0.183c-7.306,0.903-14.613,1.808-21.921,2.709
			C611.009,738.997,611.991,738.033,612.972,737.072z"/>
		<path fill="#A7A7A7" d="M793.039,724.024c-4.048,0.016-8.097,0.03-12.147,0.048c-25.127-3.313-50.176-7.989-75.396-9.556
			c-26.771-1.665-53.708-0.663-80.564-0.292c-25.641,0.355-50.847-0.586-76.438,8.107c-32.487,11.035-44.432,0.663-40.968-28.114
			c0.064-0.541-0.115-1.276,0.158-1.601c3.083-3.673,6.097-10.132,9.397-10.312c6.846-0.375,16.879,0.086,20.26,4.634
			c12.743,17.145,17.814,18.637,32.37,4.034c16.587-2.168,23.42-12.806,21.701-29.517c-1.824-17.714-4.634-35.313-7.101-53.625
			c6.346,5.469,12.245,12.257,19.526,16.209c4.616,2.507,12.896,3.138,16.584,0.313c3.674-2.812,6.375-12.043,4.777-16.619
			c-5.324-15.244-12.799-29.65-19.398-44.402c-7.71-17.236-16.481-34.073-22.604-51.921c-3.355-9.776-2.348-21.27-3.021-32.009
			c-0.406-6.452,0.223-13-0.456-19.407c-2.173-20.535-4.515-41.058-7.237-61.52c-1.43-10.746-2.984-21.607-5.886-31.979
			c-6.499-23.244,1.352-39.161,22.273-49.148c75.927-36.245,149.875-76.248,215.386-131.596c4.751-4.012,10.064-7.285,17.715-12.76
			c4.081,41.124,7.9,79.61,11.723,118.096c1.927,18.7,3.851,37.397,5.772,56.1c0.148,7.538,0.297,15.076,0.447,22.613
			c0.87,12.158,1.737,24.32,2.604,36.485c1.214,50.141,2.428,100.278,3.646,150.417c-0.037,4.364-0.074,8.731-0.114,13.1
			c-3.114,4.454-6.611,8.681-9.161,13.468c-1.119,2.104-0.463,5.36-0.346,8.079c1.232,28.399-2.354,56.893,8.576,84.791
			c7.561,19.299-0.341,27.881-20.574,28.149c-4.135,0.058-8.271,0.149-12.403,0.058C799.416,704.065,792.715,710.22,793.039,724.024
			z"/>
		<path fill="#A7A7A7" d="M569.71,690.976c-14.556,14.603-19.627,13.109-32.37-4.034c-3.381-4.547-13.414-5.009-20.26-4.634
			c-3.302,0.18-6.314,6.639-9.397,10.312c-0.273,0.323-0.094,1.06-0.158,1.601c-3.464,28.777,8.479,39.149,40.968,28.114
			c25.593-8.693,50.799-7.752,76.438-8.107c26.856-0.37,53.794-1.372,80.564,0.293c25.221,1.564,50.27,6.242,75.396,9.555
			c-8.089,0.992-16.154,2.456-24.272,2.896c-27.17,1.482-54.356,2.604-81.536,3.862c-10.479,0.932-20.96,1.863-31.443,2.792
			c-10.223,0.18-20.441,0.358-30.661,0.541c-47.875,2.213-95.752,4.384-143.62,6.73c-2.991,0.146-5.92,1.688-8.884,2.577
			c-72.208,1.089-144.414,2.175-216.616,3.264c-11.519-0.916-23.041-1.825-34.564-2.737c-6.087-0.17-12.175-0.343-18.259-0.516
			c-13.637-2.717-27.225-5.776-40.932-8.044c-12.156-2.009-16.622-8.946-15.109-21.572c2.329-19.427,4.162-38.921,6.207-58.384
			c5.041-32.914,10.08-65.831,15.12-98.752c9.55-78.374,18.464-156.793,15.415-236.083c1.298-34.899,2.597-69.795,3.894-104.695
			c7.1,7.022,14.202,14.044,19.211,18.998c-1.657,11.848-3.855,20.72-3.972,29.625c-0.432,32.642-0.164,65.293-0.176,97.942
			c-0.009,27.144,0.408,54.307-0.373,81.429c-0.203,7.086-4.291,14.016-6.372,21.089c-2.221,7.544-5.408,15.064-6.049,22.792
			c-3.581,43.113-6.44,86.293-9.815,129.425c-0.282,3.615-2.825,6.971-3.842,10.596c-2.705,9.651-6.401,19.241-7.388,29.113
			c-1.298,12.972-0.153,26.193-0.472,39.299c-0.42,17.26,6.328,27.08,22.536,27.288c51.487,0.666,102.987,0.247,155.713,0.247
			c-2.191-4.64-4.375-8.277-5.708-12.234c-8.234-24.465-0.288-41.673,19.824-43.324c0.187,1.057,0.376,2.109,0.567,3.167
			c0.035,3.316,0.072,6.638,0.111,9.955c-4.358,18.3-0.816,28.896,10.78,32.252c12.924,3.739,23.04-3.639,27.802-20.98
			c2.271-8.273,3.576-16.84,4.424-20.94c12.527,2.408,25.492,9.212,35.392,5.876c18.833-6.354,8.704-27.128,14.392-41.808
			c1.131,7.525,2.265,15.051,3.397,22.575c0.882,19.788,1.763,39.577,2.643,59.369c0.752,10.35,5.114,19.856,15.412,18.217
			c7.92-1.262,18.81-7.188,21.504-14.051c4.927-12.556,5.153-27.291,6.59-41.208c0.817-7.896,0.149-15.965,0.149-25.824
			c5.51,2.081,8.695,3.5,11.992,4.492c14.304,4.307,24.222-3.146,25.22-19.145c0.37-5.953,0.021-11.954,0.001-17.93
			c-0.583-0.849-1.217-1.655-1.9-2.421c-0.317-4.602-0.639-9.206-0.957-13.811c0.902,0.048,1.795,0.149,2.683,0.313
			c0.026,0.978,0.104,1.95,0.229,2.914c0.988,1.249,1.979,2.498,2.966,3.747c5.439,17.377,9.552,35.405,16.817,51.883
			C553.343,674.827,562.627,682.358,569.71,690.976z M416.888,700.867c-8.753-2.19-15.171-0.812-15.775,11.979
			c-0.605,12.773,7.344,10.829,14.342,11.041c8.99,0.275,16.783-1.357,17.175-13.539
			C433.042,697.563,424.676,700.38,416.888,700.867z"/>
		<path fill="#D7D7D7" d="M600.54,612.595c-17.273-18.889-29.029-40.874-36.659-69.706c10.752,0.986,22.838-1.178,25.19,2.908
			c7.819,13.58,12.14,29.404,17.8,44.367c-2.099,6.334-4.196,12.668-6.296,19.005C600.563,610.313,600.553,611.452,600.54,612.595z"
			/>
		<path fill="#D1D1D1" d="M560.221,658.513c14.125-13.836,17.559-0.624,22.11,9.75c-3.132,4.16-6.266,8.316-9.399,12.477
			c-3.646-3.746-7.924-7.044-10.719-11.405C560.42,666.534,560.81,662.173,560.221,658.513z"/>
		<path fill="#D1D1D1" d="M568.514,527.365c-2.622-7.938-2.514-14.553,7.186-16.517c2.315,7.534,4.634,15.068,6.951,22.604
			c-1.546,1.003-3.091,2.005-4.636,3.004C574.848,533.427,571.681,530.395,568.514,527.365z"/>
		<path fill="#D1D1D1" d="M606.749,592.845c3.949,5.959,7.899,11.918,11.849,17.88c-3,1.728-5.998,3.452-8.999,5.179
			c-1.766-2.407-3.532-4.815-5.302-7.225C605.114,603.402,605.932,598.122,606.749,592.845z"/>
		<path fill="#7D7D7D" d="M606.749,592.845c-0.817,5.277-1.635,10.559-2.452,15.834l-0.685,0.57
			c-1.016,0.055-2.025,0.028-3.037-0.08c2.1-6.337,4.198-12.671,6.296-19.005C606.846,591.063,606.805,591.951,606.749,592.845z"/>
		<path fill="#7E7E7E" d="M604.297,608.679c1.77,2.408,3.536,4.816,5.302,7.225c-0.936-0.021-1.866-0.066-2.802-0.134
			c-1.093,0.003-2.185,0.003-3.274,0.006l0.154,0.145c-0.021-2.226-0.044-4.448-0.063-6.67L604.297,608.679z"/>
		<path fill="#B3B3B3" d="M603.612,609.249c0.021,2.222,0.044,4.444,0.063,6.67c-1.044-1.108-2.09-2.219-3.137-3.327
			c0.013-1.14,0.022-2.279,0.035-3.423C601.587,609.277,602.598,609.304,603.612,609.249z"/>
		<path fill="#717171" d="M532.143,612.999c-0.987-1.249-1.978-2.498-2.966-3.747C530.165,610.501,531.154,611.75,532.143,612.999z"
			/>
		<path fill="#A5A5A5" d="M603.521,615.774c1.092-0.003,2.184-0.003,3.275-0.007C605.706,615.771,604.612,615.771,603.521,615.774z"
			/>
		<path fill="#A7A7A7" d="M793.039,724.024c-0.324-13.806,6.377-19.959,19.101-19.675c4.133,0.094,8.27,0,12.403-0.058
			c20.233-0.269,28.135-8.851,20.574-28.149c-10.931-27.898-7.344-56.392-8.576-84.791c-0.117-2.719-0.773-5.975,0.346-8.078
			c2.55-4.787,6.047-9.015,9.161-13.469c1.938,12.141,3.872,24.278,5.808,36.421c3.296,32.776,5.493,65.731,10.346,98.249
			c2.479,16.605-2.979,20.336-16.57,19.417c-6.107-0.413-12.285,0.279-18.43,0.472C815.813,724.252,804.427,724.14,793.039,724.024z
			"/>
		<path fill="#A7A7A7" d="M348.748,668.237c-20.112,1.651-28.059,18.859-19.824,43.323c1.333,3.958,3.517,7.597,5.708,12.235
			c-52.727,0-104.227,0.419-155.713-0.247c-16.208-0.208-22.956-10.028-22.536-27.288c0.318-13.104-0.826-26.327,0.472-39.299
			c0.987-9.872,4.683-19.462,7.388-29.113c1.017-3.625,3.56-6.979,3.842-10.596c3.375-43.132,6.234-86.312,9.815-129.425
			c0.641-7.728,3.828-15.248,6.049-22.792c2.082-7.073,6.169-14.003,6.372-21.089c0.781-27.122,0.364-54.285,0.373-81.429
			c0.012-32.648-0.256-65.3,0.176-97.942c0.117-8.905,2.315-17.778,3.972-29.625c-5.009-4.954-12.112-11.976-19.211-18.998
			c0.294-3.106,0.583-6.215,1.07-11.416c4.834,2.911,8.355,4.704,11.546,7.003c30.703,22.11,62.363,42.934,91.639,66.987
			c18.088,14.861,33.935,33.536,47.939,52.802c6.01,8.268,6.204,22.354,6.529,33.875c0.51,17.928-0.163,36.036-2.057,53.864
			c-3.521,33.13-20.324,59.856-39.428,85.186c-9.84,4.288-18.241,9.427-12.216,23.084c15.382,6.808,15.067,17.989,9.686,32.453
			c-4.857,13.055-7.816,26.997-10.677,40.763c-4.744,22.843-0.543,29.084,24.938,39.744c11.22,4.694,26.553-1.579,34.61-14.464
			c4.398-7.032,8.372-14.358,12.536-21.554c1.268,0.423,2.537,0.843,3.804,1.265c-1.186,14.263-2.371,28.524-3.555,42.786
			C350.912,654.972,349.83,661.604,348.748,668.237z"/>
		<path fill="#D7D7D7" d="M330.966,626.089c-1.073,1.191-2.146,2.382-3.22,3.57c-1.368-0.192-2.733-0.381-4.098-0.573
			c-0.511-7.746-1.02-15.495-1.528-23.244c-5.457-1.146-10.913-2.289-16.369-3.436l0.066,0.069
			c11.791-25.21,23.064-50.711,35.653-75.47c4.417-8.684,12.062-15.543,20.067-22.193c-7.855,39.931,1.021,83.737-28.056,117.497
			C332.643,623.568,331.804,624.83,330.966,626.089z"/>
		<path fill="#D3D3D3" d="M315.187,632.429c-7.661,3.605-14.349,1.419-14.31-7.429c0.042-9.927,4.286-18.976,16.427-18.563
			C327.444,616.085,319.847,624.126,315.187,632.429z"/>
		<path fill="#C8C8C8" d="M279.802,618.465c2.706-5.543,5.414-11.089,8.121-16.632c2.264,1.447,6.646,3.641,6.461,4.229
			c-1.793,5.696-4.353,11.123-6.693,16.625C285.061,621.282,282.431,619.873,279.802,618.465z"/>
		<path fill="#D1D1D1" d="M302.22,504.438c-0.943,4.433-1.89,8.863-2.835,13.293c-2.123,2.098-4.245,4.19-6.367,6.284l0.17-0.182
			c-3.163-1.013-6.324-2.021-9.485-3.033c4.257-5.462,8.514-10.922,12.771-16.385c1.957,0.048,3.915,0.097,5.872,0.145
			L302.22,504.438z"/>
		<path fill="#828282" d="M315.187,632.429c4.661-8.303,12.258-16.344,2.117-25.991c1.6-0.194,3.202-0.396,4.811-0.596
			c0.516,7.749,1.024,15.498,1.538,23.241c0.251,1.255,0.499,2.51,0.746,3.766C321.327,632.711,318.257,632.569,315.187,632.429z"/>
		<path fill="#7E7E7E" d="M296.474,504.416c-4.257,5.463-8.514,10.923-12.771,16.385c-1.017,2.182-2.034,4.358-3.052,6.539
			c-6.024-13.657,2.376-18.796,12.216-23.084C294.066,504.308,295.271,504.361,296.474,504.416z"/>
		<path fill="#7B7B7B" d="M348.748,668.237c1.083-6.636,2.165-13.267,3.246-19.904c-0.896,7.691-1.789,15.383-2.68,23.071
			C349.124,670.348,348.934,669.294,348.748,668.237z"/>
		<path fill="#D3D3D3" d="M293.018,524.016c1.477,0.615,2.952,1.23,0.42,0.178c1.54,2.216,0.646,0.929-0.249-0.358
			C293.188,523.834,293.018,524.016,293.018,524.016z"/>
		<path fill="#A7A7A7" d="M324.396,632.849c-0.246-1.256-0.493-2.511-0.745-3.766c1.36,0.195,2.727,0.384,4.095,0.576
			C326.63,630.726,325.514,631.785,324.396,632.849z"/>
		<path fill="#8D8D8D" d="M305.751,602.406c0,0,0.063,0.069,0.065,0.069S305.751,602.406,305.751,602.406z"/>
		<path fill="#A7A7A7" d="M330.966,626.089c0.838-1.259,1.677-2.521,2.518-3.778C332.643,623.568,331.804,624.83,330.966,626.089z"
			/>
		<path fill="#8B8B8B" d="M302.346,504.561c0.914-2.104,1.827-4.211,2.741-6.313c0.674,0.486,1.352,0.973,2.025,1.46
			c-1.63,1.578-3.261,3.154-4.892,4.732C302.22,504.438,302.346,504.561,302.346,504.561z"/>
		<path fill="#D7D7D7" d="M398.281,651.913c2.029-29.563,4.059-59.123,6.087-88.685c4.097-11.707,8.192-23.418,12.289-35.123
			c1.666,0.319,3.331,0.64,4.997,0.96c9.419,27.878,14.57,56.594,13.144,86.57c-0.411,8.649-1.036,17.282-1.563,25.925
			c-0.958,2.14-1.915,4.277-2.87,6.418c-3.29-3.148-6.58-6.297-9.869-9.443c-17.312-6.563-15.866,10.736-21.583,18.921
			C398.701,655.608,398.492,653.761,398.281,651.913z"/>
		<path fill="#D4D4D4" d="M355.629,682c5.118-0.229,10.238-0.451,15.356-0.676c-0.097,7.637-0.192,15.273-0.29,22.911l0.066-0.021
			c-1.364,1.041-2.729,2.078-4.094,3.116C351.798,704.328,355.06,692.51,355.629,682z"/>
		<path fill="#D4D4D4" d="M423.94,668.494c-5.424-2.175-10.845-4.35-16.267-6.523c0.009-9.864-0.438-20.051,12.911-20.586
			C421.704,650.421,422.822,659.457,423.94,668.494z"/>
		<path fill="#838383" d="M420.585,641.385c-13.349,0.535-12.901,10.722-12.911,20.586c-2.921-1.498-5.843-3-8.763-4.508
			c5.717-8.19,4.271-25.489,21.583-18.928C420.54,639.486,420.57,640.438,420.585,641.385z"/>
		<path fill="#727272" d="M420.585,641.385c-0.015-0.947-0.045-1.897-0.091-2.85c3.29,3.146,6.58,6.295,9.868,9.446
			c0.811,6.659,1.625,13.319,2.438,19.978c-2.953,0.18-5.908,0.355-8.86,0.535C422.822,659.457,421.704,650.421,420.585,641.385z"/>
		<path fill="#BCBCBC" d="M432.8,667.959c-0.813-6.657-1.627-13.317-2.438-19.979c0.957-2.143,1.914-4.28,2.872-6.42
			C433.091,650.36,432.946,659.16,432.8,667.959z"/>
		<path fill="#7B7B7B" d="M366.668,707.332c1.365-1.038,2.729-2.075,4.094-3.116C369.397,705.254,368.033,706.294,366.668,707.332z"
			/>
		<path fill="#D7D7D7" d="M486.003,582.172c-0.292-6.271-0.585-12.546-0.879-18.821c0-14.911,0-29.826,0-46.445
			c19.458,31.107,34.754,62.575,37.504,99.491c-0.911,1.967-1.821,3.926-2.729,5.889c-14.807-9.689-21.058,1.981-27.803,12.418
			C490.064,617.193,488.035,599.685,486.003,582.172z"/>
		<path fill="#D5D5D5" d="M515.814,622.621c1.501,3.993,3.559,7.856,4.4,12.001c2.901,14.266-1.296,17.826-15.843,13.896
			C499.401,626.867,500.103,625.285,515.814,622.621z"/>
		<path fill="#D4D4D4" d="M455.053,701.472c19.898-1.023,15.256,13.525,14.554,25.572c-4.549-0.077-12.922,0.509-13.053-0.333
			C455.27,718.434,455.356,709.919,455.053,701.472z"/>
		<path fill="#7D7D7D" d="M515.814,622.621c-15.713,2.664-16.413,4.246-11.441,25.897c-1.113-0.013-2.226-0.025-3.339-0.038
			c-1.006-1.075-2.013-2.154-3.021-3.233c0,0,0.147,0.227,0.146,0.224c-1.232-1.134-2.463-2.264-3.696-3.396
			c-0.788-2.452-1.578-4.908-2.367-7.364c6.745-10.442,12.996-22.114,27.803-12.425
			C518.536,622.396,517.176,622.509,515.814,622.621z"/>
		<path fill="#C4C4C4" d="M494.462,642.073c1.233,1.134,2.463,2.264,3.696,3.396C496.928,644.341,495.695,643.207,494.462,642.073z"
			/>
		<path fill="#A4A4A4" d="M498.013,645.247c1.01,1.079,2.017,2.158,3.021,3.233C500.026,647.401,499.02,646.326,498.013,645.247z"/>
		<path fill="#A7A7A7" d="M527.222,619.835c0.685,0.766,1.317,1.572,1.9,2.421C528.396,621.529,527.763,620.726,527.222,619.835z"/>
		<path fill="#A7A7A7" d="M416.888,700.867c7.788-0.487,16.154-3.305,15.741,9.479c-0.393,12.182-8.185,13.814-17.175,13.539
			c-6.998-0.212-14.947,1.732-14.342-11.041C401.717,700.057,408.134,698.677,416.888,700.867z"/>
	</g>
</g>
<g>
	<path fill="none" d="M91.148-8.5c52.783,0,105.565,0,158.349,0c1.014,11.636,2.03,23.272,3.29,37.736
		c-14.219-9.178-25.61-16.529-37.002-23.878c-0.755,1.262-1.509,2.523-2.264,3.784c2.589,2.178,4.994,4.676,7.795,6.488
		c39.319,25.437,72.338,57.887,98.134,98.326c16.413,25.729,37.516,45.664,62.013,62.972c22.992,16.244,43.952,35.847,64.984,54.982
		c16.341,14.871,29.877,33.642,47.42,46.463c25.086,18.328,42.678,42.93,57.938,69.231c7.984,13.763,10.769,31.416,13.75,47.75
		c3.696,20.244,5.841,40.888,7.394,61.461c1.392,18.443,5.28,37.492-7.715,54.228c-2.16,2.779,0.491,9.725,0.92,14.745l-0.33-0.409
		c-0.521,2.398-1.042,4.793-1.563,7.188c-11.158-17.029-19.647-34.708-26.787-52.979c-7.599-19.443-10.22-38.64-3.486-60.327
		c4.539-14.613,0.864-32.072,0.864-48.259c-1.67,0.026-3.34,0.052-5.01,0.077c0,4.474,0.133,8.95-0.024,13.417
		c-0.428,11.883,0.929,24.291-1.877,35.526c-5.867,23.493-2.491,44.985,6.017,66.921c12.896,33.239,25.356,66.725,36.462,100.667
		c7.167,21.904,11.58,44.814,17.229,67.274c-13.278-12.296-23.463-9.328-33.827,2.271c-2.188-4.863-3.996-8.688-5.646-12.584
		c-16.779-39.712-33.15-79.626-50.621-118.992c-3.47-7.819-11.129-13.567-16.857-20.272c-1.108,9.14-3.491,18.339-3.117,27.41
		c2.183,52.852,5.306,105.655,7.36,158.509c0.373,9.626-2.726,19.401-4.223,29.107c-10.242-25.662-10.695-26.053-26.282-20.587
		l0.372-0.368c-1.214-9.484-2.224-19.007-3.676-28.45c-7.264-47.263-14.477-94.538-22.296-141.698
		c-0.625-3.759-5.264-8.229-8.905-9.43c-2.188-0.721-7.242,3.566-8.934,6.812c-3.704,7.093-7.594,14.707-8.751,22.546
		c-5.965,40.402-11.02,80.955-16.57,121.429c-1.172,8.55-3.102,16.984-4.683,25.47c-1.303,0.104-2.606,0.201-3.91,0.305
		c1.519-17.003-2.802-28.203-21.401-24.502c0-5.495-0.312-9.844,0.047-14.129c4.154-49.326,8.408-98.648,12.636-147.974
		c0.141-1.63,0.803-3.472,0.312-4.854c-1.335-3.761-3.161-7.32-4.793-10.961c-3.096,1.571-7.423,2.264-9.089,4.859
		c-11.505,17.923-22.868,35.982-33.431,54.535c-6.536,11.479-11.855,23.772-17.215,35.946c-4.647,10.563-10.035,8.158-18.11,0.801
		c11.279-35.727,22.738-71.839,34.067-107.993c4.477-14.285,10.317-28.38,12.614-43.067c3.84-24.563,6.836-49.507,7.227-74.344
		c0.218-13.916-1.66-31.265-9.365-41.223c-16.423-21.227-36.115-40.174-56.532-57.308c-41.59-34.906-84.941-67.462-126.755-102.083
		c-17.829-14.761-29.977-34.966-34.783-58.69C104.841,67.539,98.215,29.47,91.148-8.5z"/>
	<path fill="none" d="M255.707-8.5c155.244,0,310.487,0,465.731,0c-0.375,7.076-0.845,14.149-1.105,21.232
		c-0.617,16.75-6.555,28.793-21.072,38.399c-19.559,12.939-36.982,29.476-55.305,44.493c-17.463,14.313-34.104,29.939-52.51,42.731
		c-42.16,29.293-85.32,56.972-127.72,85.89c-7.852,5.356-11.547,1.616-17.134-3.215c-20.301-17.551-40.037-36.174-61.932-51.237
		c-24.316-16.73-43.817-37.444-60.837-61.876c-12.482-17.916-25.777-35.585-40.92-50.933
		c-14.357-14.551-26.957-28.204-24.073-51.319C259.391,1.167,256.829-3.768,255.707-8.5z"/>
	<path fill="none" d="M727.646-8.5c52.783,0,105.566,0,158.35,0c-6.104,32.081-11.736,64.271-18.475,96.203
		c-4.586,21.723-8.112,44.745-26.313,59.517c-59.017,47.891-119.429,93.254-186.081,129.353
		c-33.867,18.341-75.174,24.752-96.782,59.855c-32.218-32.434-64.382-64.816-99.674-100.347
		c27.919-19.187,54.417-37.541,81.052-55.668c32.051-21.809,64.97-42.303,96.119-65.456c29.85-22.185,57.515-47.615,86.939-70.469
		c13.371-10.384,28.676-17.982,43.104-26.846c-0.586-1.262-1.172-2.523-1.758-3.785c-11.977,6.087-23.953,12.175-36.479,18.54
		C727.646,17.532,727.646,4.516,727.646-8.5z"/>
	<path fill="none" d="M147.036,785c-25.826,0-51.653,0-77.55,0c0-264.502,0-528.999-0.021-793.5c5.144,0,10.309,0,15.475,0
		c4.833,24.518,11.517,48.818,14.108,73.6c5.142,49.187,23.646,89.526,61.231,120.1c5.364,4.365,9.383,14.451,9.284,21.819
		c-0.897,66.536-1.193,133.158-5.006,199.543c-3.212,55.943-10.242,111.686-16.755,167.362
		c-5.567,47.583-13.129,94.9-18.881,142.461c-0.716,5.914,2.627,15.807,6.931,18.232c8.316,4.69,11.004,10.438,10.952,19.334
		C146.744,764.302,146.947,774.65,147.036,785z"/>
	<path d="M147.036,785c-0.089-10.35-0.292-20.698-0.232-31.048c0.052-8.896-2.636-14.644-10.952-19.334
		c-4.304-2.427-7.647-12.318-6.931-18.232c5.752-47.561,13.314-94.878,18.881-142.461c6.513-55.678,13.543-111.419,16.755-167.362
		c3.813-66.385,4.108-133.007,5.006-199.543c0.099-7.368-3.92-17.454-9.284-21.819c-37.586-30.573-56.089-70.913-61.231-120.1
		C96.457,40.319,89.773,16.018,84.94-8.5c2.069,0,4.14,0,6.209,0c7.066,37.97,13.693,76.039,21.358,113.875
		c4.806,23.725,16.954,43.93,34.783,58.69c41.814,34.621,85.166,67.177,126.755,102.083c20.417,17.134,40.108,36.081,56.532,57.308
		c7.705,9.958,9.583,27.307,9.365,41.223c-0.391,24.836-3.386,49.78-7.227,74.343c-2.297,14.688-8.138,28.782-12.614,43.067
		c-11.331,36.154-22.789,72.269-34.067,107.993c8.076,7.358,13.462,9.763,18.11-0.801c5.359-12.174,10.68-24.467,17.215-35.946
		c10.563-18.553,21.925-36.612,33.431-54.535c1.666-2.597,5.993-3.288,9.089-4.859c1.632,3.641,3.458,7.2,4.793,10.961
		c0.491,1.383-0.171,3.225-0.312,4.854c-4.228,49.324-8.481,98.646-12.636,147.975c-0.358,4.284-0.047,8.633-0.047,14.128
		c18.6-3.701,22.92,7.499,21.401,24.502c1.304-0.104,2.606-0.201,3.91-0.305c1.581-8.484,3.511-16.92,4.683-25.47
		c5.552-40.474,10.605-81.025,16.57-121.429c1.157-7.839,5.047-15.453,8.751-22.546c1.691-3.244,6.746-7.531,8.934-6.812
		c3.642,1.2,8.28,5.671,8.905,9.431c7.819,47.159,15.033,94.436,22.296,141.697c1.452,9.443,2.462,18.966,3.673,28.454
		c-1.081,3.603-3.521,7.47-2.938,10.736c1.078,6.039,3.48,11.998,6.431,17.313c0.571,1.028,8.679-0.399,9.007-1.81
		c1.502-6.471,3.302-14.041,1.309-19.792c-1.179-3.397-9.222-4.145-14.178-6.084c15.587-5.466,16.04-5.075,26.282,20.587
		c1.497-9.706,4.595-19.481,4.223-29.107c-2.055-52.854-5.178-105.657-7.36-158.509c-0.374-9.071,2.009-18.271,3.117-27.41
		c5.729,6.705,13.388,12.453,16.857,20.272c17.472,39.366,33.842,79.279,50.621,118.992c1.648,3.896,3.458,7.721,5.646,12.584
		c10.364-11.599,20.549-14.565,33.826-2.271c-5.646-22.46-10.061-45.37-17.228-67.274c-11.104-33.942-23.566-67.428-36.462-100.668
		c-8.508-21.935-11.884-43.427-6.018-66.92c2.807-11.235,1.45-23.645,1.878-35.526c0.157-4.467,0.024-8.943,0.024-13.417
		c1.67-0.025,3.34-0.051,5.01-0.077c0,16.187,3.675,33.646-0.864,48.259c-6.732,21.688-4.111,40.884,3.486,60.327
		c7.14,18.271,15.63,35.949,26.787,52.979c0.521-2.396,1.042-4.79,1.567-7.181c3.947,3.438,7.89,6.869,11.831,10.298
		c1.573-0.988,3.146-1.979,4.722-2.965c-2.431-7.717-4.862-15.431-7.295-23.146c-1.85,0.191-3.7,0.384-5.551,0.575
		c-1.127,5.214-2.255,10.427-3.381,15.64c-0.429-5.021-3.08-11.966-0.92-14.745c12.994-16.734,9.105-35.783,7.715-54.229
		c-1.553-20.572-3.696-41.217-7.394-61.46c-2.981-16.333-5.766-33.987-13.75-47.75c-15.262-26.302-32.854-50.903-57.938-69.231
		c-17.543-12.821-31.079-31.592-47.42-46.463c-21.032-19.136-41.992-38.738-64.984-54.982c-24.497-17.308-45.6-37.243-62.013-62.972
		c-25.795-40.439-58.815-72.89-98.134-98.326c-2.802-1.813-5.206-4.311-7.795-6.488c0.755-1.261,1.508-2.521,2.264-3.784
		c11.392,7.349,22.783,14.7,37.002,23.878c-1.26-14.464-2.275-26.101-3.29-37.736c2.069,0,4.14,0,6.209,0
		c1.122,4.732,3.684,9.667,3.123,14.166c-2.883,23.115,9.716,36.769,24.073,51.319c15.143,15.348,28.438,33.017,40.92,50.933
		c17.021,24.432,36.521,45.146,60.837,61.876c21.895,15.063,41.631,33.687,61.932,51.237c5.587,4.831,9.283,8.571,17.134,3.215
		c42.398-28.918,85.56-56.597,127.72-85.89c18.406-12.792,35.047-28.418,52.51-42.731c18.321-15.018,35.746-31.554,55.305-44.493
		c14.519-9.606,20.455-21.649,21.072-38.399c0.262-7.083,0.729-14.156,1.104-21.232c2.068,0,4.141,0,6.209,0
		c0,13.016,0,26.032,0,40.896c12.527-6.365,24.505-12.453,36.48-18.54c0.586,1.262,1.172,2.523,1.758,3.785
		c-14.428,8.863-29.731,16.462-43.104,26.846c-29.427,22.854-57.092,48.284-86.939,70.469
		c-31.15,23.153-64.068,43.647-96.119,65.456c-26.635,18.127-53.132,36.481-81.052,55.668
		c35.292,35.53,67.456,67.913,99.674,100.347c21.608-35.104,62.915-41.515,96.782-59.855
		c66.652-36.098,127.064-81.461,186.081-129.352c18.2-14.771,21.728-37.794,26.313-59.517c6.738-31.932,12.371-64.122,18.476-96.203
		c1.035,0,2.068,0,3.104,0c-4.428,27.361-8.123,54.883-13.473,82.04c-6.386,32.411-10.521,66.354-40.744,86.636
		c-2.746,1.841-4.822,7.278-4.723,10.97c0.79,28.918,1.502,57.871,3.534,86.716c4.602,65.262,10.356,130.437,14.867,195.704
		c4.361,63.104,7.308,126.313,11.774,189.406c1.91,26.983,6.1,53.792,9.473,82.56c-23.695-4.072-22.964,10.798-21.768,26.729
		c0.814,10.864,0.504,21.825,0.693,32.741c-3.104,0-6.21,0-9.313,0c0.024-13.087-0.329-26.19,0.188-39.258
		c0.484-12.293-4.788-16.854-15.896-15.594c-4.092,0.461-8.26,0.146-12.385,0.342c-67.533,3.177-135.066,6.323-202.595,9.588
		c-46.392,2.244-92.883,3.256-139.138,7.291c-83.513,7.287-166.976,8.37-250.553,2.744c-20.961-1.412-41.892-3.354-65.798-5.287
		c0,14.399,0,27.288,0,40.174C151.176,785,149.105,785,147.036,785z M497.66,644.003l0.377,0.266l-0.666-0.18
		c-0.06-0.894-0.117-1.786-0.176-2.68c-0.444,0.256-0.89,0.516-1.333,0.771C496.455,642.795,497.047,643.41,497.66,644.003z
		 M292.941,522.407c1.281,1.234,2.562,2.475,0.714,0.69c2.386,0.823,0.679,0.233-1.026-0.354
		c3.528-5.415,7.057-10.826,10.586-16.241c-1.359-1.258-2.718-2.517-4.077-3.771c-5.339,4.179-10.679,8.356-18.023,14.107
		C286.802,519.519,289.866,520.963,292.941,522.407z M603.396,607.739c0.614-8.121,1.229-16.244,1.846-24.364
		c1.47-0.045,2.938-0.09,4.408-0.135c-4.027-8.186-9.047-16.008-11.874-24.631c-5.779-17.624-16.298-21.349-33.647-13.503
		c8.371,26.059,19.16,50.395,39.236,69.226l0.455,0.483l-0.572-0.409c-0.061-2.36-0.123-4.722-0.174-7.062
		c4.287,2.087,8.574,4.179,12.858,6.271c0.546-3.439,2.432-7.5,1.318-10.17c-1.662-3.99-5.432-7.003-8.304-10.434
		C607.095,597.922,605.246,602.83,603.396,607.739z M402.105,656.472c0.089,0.749,0.179,1.498,0.202,1.713
		c-0.042-0.152-0.231-0.822-0.421-1.491c0.491-10.437,2.112-20.597,14.815-20.448c15.353,0.179,12.783,13.74,14.695,24.009
		c3.631-45.238,7.385-90.267-11.59-134.849c-2.665,3.26-4.862,4.931-5.743,7.179c-14.937,38.14-17.378,78.115-15.15,118.708
		C399.011,653.067,401.014,654.729,402.105,656.472z M352.383,613.5c-1.323-0.388-2.646-0.775-3.97-1.166
		c-3.772,5.678-7.148,11.717-11.396,16.965c-10.436,12.893-26.22,16.34-37.442,8.498c-3.399-2.373-6.2-7.198-9.681-7.688
		c-17.016-2.393-16.104-14.052-13.067-26.642c5.212-21.599,10.89-43.07,16.289-64.274c-21.477-17.381-20.317-20.303-2.08-39.939
		c12.724-13.702,24.253-30.343,31.236-47.923c13.458-33.888,11.177-70.621,9.718-106.597c-0.265-6.51-3.78-14.323-8.216-18.94
		c-18.271-19.014-36.439-38.428-56.604-55.047c-24.809-20.448-51.553-38.28-77.505-57.18c-3.179-2.314-6.622-4.224-11.646-7.399
		c-0.884,6.33-1.871,10.436-1.968,14.56c-1.255,54.048-2.414,108.096-3.532,162.146c-0.385,18.569,1.05,37.358-1.165,55.668
		c-10.664,88.17-22.278,176.207-33.582,264.287c-3.505,27.315-3.611,29.046,22.932,31.435
		c49.898,4.496,100.013,10.184,149.954,9.401c83.671-1.307,167.266-7.569,250.912-11.239c89.361-3.919,178.75-7.179,268.118-10.938
		c10.153-0.43,20.256-2.244,31.528-3.548c-0.784-8.544-1.416-15.521-2.065-22.494c-5.479-58.617-15.19-117.206-15.533-175.858
		c-0.667-113.786-14.969-226.377-20.783-339.647c-0.07-1.348-1.354-2.626-2.15-4.086c-1.798,0.74-3.426,1.012-4.575,1.944
		c-72.195,58.498-150.696,105.408-234.294,143.158c-13.432,6.064-17.766,24.515-15.171,40.525
		c6.078,37.483,13.15,75.149,14.653,112.969c1.038,26.164,6.315,49.133,17.881,71.624c9.846,19.147,19.204,38.689,26.982,58.832
		c2.026,5.245-0.685,16.334-4.785,19.379c-4.354,3.229-13.42,1.523-19.555-0.704c-5.324-1.938-9.426-7.621-16.925-14.128
		c1.851,8.258,3.226,12.772,3.827,17.396c1.815,13.952,5.581,28.228,4.077,41.816c-0.838,7.566-9.807,18.29-16.639,19.782
		c-6.785,1.481-16.772-5.349-22.937-11.319c-4.823-4.672-6.18-13.513-8.667-20.659c-4.216-12.104-8.107-24.34-13.14-39.553
		c-2.857,44.313-8.669,49.911-38.744,38.748c0,6.937,0.317,13.385-0.066,19.786c-0.781,13.01-0.35,26.417-3.326,38.883
		c-4.134,17.304-14.836,24.614-27.947,22.11c-14.863-2.841-15.887-15.979-16.511-27.781c-0.946-17.894-0.247-35.886-0.247-49.907
		c-5.727,6.164-11.69,17.683-20.094,20.23c-8.849,2.684-20.027-3.209-30.688-5.456c-1.729,6.66-3.29,15.286-6.21,23.364
		c-5.265,14.572-16.514,21.953-27.313,18.069c-13.964-5.021-15.796-16.036-14.033-30.27
		C349.164,661.086,350.423,637.243,352.383,613.5z M324.737,628.761c1.274,0.781,2.548,1.565,3.821,2.348
		c8.635-17.198,19.572-33.597,25.224-51.825c5.17-16.678,4.639-35.328,6.584-53.113c0.826-7.56,1.555-15.133,2.517-24.534
		c-34.327,24.979-33.623,68.006-57.087,96.744C327.204,604.255,328.121,605.844,324.737,628.761z M486.187,515.813
		c-1.329,0.285-2.66,0.567-3.991,0.854c2.95,37.666,5.899,75.328,8.672,110.725c11.299-4.815,20.441-8.713,29.362-12.514
		C523.41,576.721,501.824,547.476,486.187,515.813z M525.135,638.905c-5.914-7.15-10.188-12.318-14.465-17.49
		c-3.225,3.971-9.74,8.908-9.002,11.71c1.637,6.206,6.918,11.342,10.713,16.913C515.84,647.019,519.296,644.003,525.135,638.905z
		 M569.65,681.477c1.771-0.208,3.544-0.412,5.315-0.62c2.142-4.198,6.863-9.31,5.883-12.398
		c-2.023-6.379-7.091-11.675-10.905-17.416c-3.156,4.162-9.214,8.674-8.813,12.414C561.805,669.722,566.594,675.495,569.65,681.477z
		 M326.993,615.376c-6.733-4.723-13.311-10.243-13.896-9.609c-4.955,5.373-9.387,11.575-12.485,18.298
		c-0.579,1.258,7.613,9.014,8.195,8.567C314.572,628.229,319.585,622.731,326.993,615.376z M349.462,691.194
		c7.05,6.286,11.026,9.831,15.004,13.379c3.067-4.891,8.047-9.557,8.58-14.733c0.406-3.951-4.823-8.549-7.545-12.858
		C361.181,680.808,356.863,684.637,349.462,691.194z M430.677,655.447c-6.281-6.443-10.42-10.689-14.559-14.936
		c-2.996,4.249-8.897,9.018-8.318,12.625c0.9,5.637,6.194,10.484,9.628,15.668C421.038,665.165,424.649,661.524,430.677,655.447z
		 M279.587,617.947c2.326,1.265,4.651,2.528,6.979,3.795c2.695-5.613,5.591-11.145,7.765-16.976c0.208-0.558-4.097-2.99-6.307-4.55
		C285.212,606.129,282.399,612.039,279.587,617.947z"/>
	<path fill="none" d="M848.736,785c-0.19-10.916,0.121-21.877-0.694-32.741c-1.196-15.931-1.928-30.801,21.768-26.729
		c-3.372-28.768-7.563-55.575-9.473-82.56c-4.468-63.094-7.413-126.303-11.773-189.406c-4.512-65.268-10.268-130.441-14.867-195.704
		c-2.033-28.845-2.745-57.798-3.535-86.716c-0.1-3.691,1.977-9.129,4.723-10.97c30.225-20.282,34.358-54.225,40.744-86.636
		c5.351-27.157,9.045-54.679,13.474-82.04c10.675-3.026,9.389,4.325,9.386,11.476c-0.088,218.049-0.071,436.098-0.071,654.146
		c0,42.626,0,85.252,0,127.879C881.854,785,865.296,785,848.736,785z"/>
	<path fill="none" d="M153.246,785c0-12.886,0-25.773,0-40.174c23.906,1.935,44.837,3.875,65.798,5.287
		c83.577,5.626,167.04,4.543,250.553-2.744c46.255-4.035,92.746-5.047,139.139-7.291c67.526-3.264,135.061-6.411,202.594-9.588
		c4.125-0.195,8.293,0.119,12.385-0.342c11.109-1.26,16.382,3.301,15.897,15.594c-0.519,13.066-0.163,26.171-0.188,39.258
		c-105.564,0-211.131,0-316.697,0c-0.317-4.599-0.635-9.193-0.953-13.792c-1.752,0.145-3.504,0.288-5.256,0.433
		c0,4.451,0,8.905,0,13.359C395.426,785,274.336,785,153.246,785z"/>
	<path d="M516.516,785c0-4.454,0-8.908,0-13.359c1.752-0.145,3.505-0.288,5.257-0.433c0.317,4.599,0.635,9.193,0.952,13.792
		C520.656,785,518.585,785,516.516,785z"/>
	<path fill="none" d="M352.383,613.5c-1.96,23.743-3.22,47.586-6.145,71.194c-1.764,14.232,0.069,25.249,14.032,30.27
		c10.801,3.884,22.05-3.497,27.314-18.069c2.92-8.078,4.481-16.704,6.21-23.364c10.661,2.247,21.84,8.14,30.688,5.456
		c8.402-2.549,14.367-14.066,20.094-20.23c0,14.021-0.699,32.014,0.247,49.907c0.625,11.803,1.647,24.94,16.511,27.781
		c13.111,2.504,23.813-4.808,27.947-22.11c2.978-12.466,2.545-25.873,3.326-38.883c0.384-6.401,0.066-12.85,0.066-19.786
		c30.075,11.163,35.887,5.565,38.744-38.748c5.031,15.213,8.924,27.448,13.14,39.553c2.487,7.146,3.844,15.987,8.667,20.659
		c6.163,5.972,16.15,12.802,22.937,11.319c6.832-1.492,15.801-12.216,16.639-19.782c1.504-13.59-2.262-27.864-4.077-41.816
		c-0.603-4.623-1.978-9.139-3.827-17.396c7.499,6.507,11.601,12.19,16.925,14.128c6.135,2.229,15.199,3.935,19.555,0.704
		c4.102-3.045,6.813-14.134,4.785-19.379c-7.778-20.143-17.138-39.685-26.982-58.832c-11.564-22.491-16.843-45.46-17.881-71.624
		c-1.503-37.819-8.575-75.485-14.653-112.969c-2.595-16.011,1.739-34.461,15.171-40.525c83.598-37.75,162.099-84.66,234.293-143.158
		c1.15-0.933,2.778-1.204,4.576-1.944c0.797,1.46,2.08,2.738,2.15,4.086c5.814,113.271,20.116,225.861,20.783,339.647
		c0.343,58.652,10.056,117.241,15.533,175.858c0.649,6.974,1.281,13.95,2.065,22.493c-11.272,1.305-21.375,3.119-31.529,3.549
		c-89.367,3.76-178.756,7.02-268.117,10.938c-83.646,3.67-167.241,9.934-250.912,11.239c-49.941,0.781-100.056-4.905-149.954-9.401
		c-26.543-2.389-26.437-4.118-22.932-31.435c11.304-88.08,22.918-176.117,33.582-264.287c2.215-18.31,0.779-37.099,1.165-55.668
		c1.119-54.051,2.277-108.099,3.532-162.146c0.097-4.124,1.084-8.229,1.968-14.56c5.024,3.176,8.467,5.085,11.646,7.399
		c25.952,18.899,52.696,36.731,77.505,57.18c20.164,16.619,38.332,36.033,56.603,55.047c4.437,4.617,7.952,12.431,8.217,18.94
		c1.458,35.976,3.739,72.709-9.719,106.597c-6.982,17.58-18.512,34.221-31.235,47.923c-18.237,19.638-19.396,22.559,2.08,39.939
		c-5.399,21.203-11.077,42.677-16.289,64.274c-3.037,12.59-3.949,24.249,13.067,26.642c3.481,0.489,6.282,5.314,9.681,7.688
		c11.224,7.842,27.007,4.395,37.442-8.498c4.248-5.248,7.625-11.287,11.396-16.965C349.736,612.725,351.06,613.112,352.383,613.5z"
		/>
	<path fill="none" d="M402.13,656.446c-1.116-1.718-3.119-3.379-3.216-5.155c-2.229-40.593,0.214-80.568,15.15-118.708
		c0.881-2.248,3.078-3.919,5.743-7.179c18.975,44.582,15.221,89.609,11.59,134.849c-1.912-10.269,0.657-23.83-14.695-24.009
		c-12.703-0.147-14.324,10.013-14.815,20.448L402.13,656.446z"/>
	<path fill="none" d="M324.737,628.761c3.384-22.917,2.467-24.506-18.941-30.382c23.464-28.738,22.76-71.765,57.087-96.744
		c-0.961,9.401-1.689,16.976-2.517,24.534c-1.945,17.785-1.415,36.437-6.584,53.113c-5.65,18.229-16.588,34.627-25.224,51.825
		C327.285,630.326,326.012,629.542,324.737,628.761z"/>
	<path fill="none" d="M486.187,515.813c15.638,31.662,37.224,60.907,34.043,99.063c-8.921,3.801-18.063,7.697-29.362,12.514
		c-2.771-35.396-5.723-73.059-8.672-110.725C483.526,516.381,484.857,516.099,486.187,515.813z"/>
	<path fill="none" d="M603.361,614.342c-20.074-18.841-30.863-43.177-39.234-69.234c17.35-7.846,27.868-4.121,33.647,13.503
		c2.826,8.623,7.847,16.445,11.874,24.631c-1.471,0.045-2.938,0.09-4.408,0.135c-0.615,8.12-1.23,16.243-1.847,24.364l-0.332-0.41
		c0.062,2.355,0.123,4.717,0.185,7.077L603.361,614.342z"/>
	<path fill="none" d="M525.135,638.905c-5.839,5.098-9.295,8.112-12.754,11.133c-3.795-5.571-9.076-10.707-10.713-16.913
		c-0.738-2.802,5.777-7.739,9.002-11.71C514.945,626.587,519.221,631.755,525.135,638.905z"/>
	<path fill="none" d="M569.65,681.477c-3.058-5.98-7.847-11.755-8.521-18.021c-0.4-3.74,5.656-8.252,8.813-12.414
		c3.814,5.741,8.882,11.037,10.905,17.416c0.98,3.09-3.741,8.2-5.883,12.398C573.194,681.063,571.422,681.269,569.65,681.477z"/>
	<path fill="none" d="M326.993,615.376c-7.407,7.354-12.421,12.854-18.188,17.256c-0.582,0.445-8.774-7.311-8.195-8.567
		c3.099-6.723,7.531-12.925,12.485-18.298C313.683,605.133,320.26,610.653,326.993,615.376z"/>
	<path fill="none" d="M454.433,699.747c4.956,1.94,12.999,2.687,14.178,6.084c1.994,5.751,0.193,13.321-1.309,19.792
		c-0.328,1.409-8.436,2.838-9.007,1.81c-2.95-5.314-5.354-11.273-6.431-17.313c-0.584-3.268,1.856-7.135,2.938-10.736
		C454.805,699.379,454.433,699.747,454.433,699.747z"/>
	<path fill="none" d="M349.462,691.194c7.401-6.559,11.719-10.388,16.039-14.214c2.723,4.311,7.952,8.907,7.545,12.858
		c-0.532,5.178-5.513,9.844-8.58,14.733C360.488,701.025,356.512,697.48,349.462,691.194z"/>
	<path fill="none" d="M430.677,655.447c-6.027,6.077-9.639,9.718-13.249,13.357c-3.434-5.184-8.728-10.031-9.628-15.668
		c-0.579-3.607,5.323-8.376,8.318-12.625C420.257,644.758,424.396,649.004,430.677,655.447z"/>
	<path fill="none" d="M566.154,525.788c1.126-5.213,2.254-10.426,3.381-15.639c1.851-0.192,3.701-0.385,5.551-0.576
		c2.433,7.717,4.864,15.431,7.295,23.146c-1.574,0.986-3.147,1.977-4.722,2.966c-3.941-3.43-7.884-6.861-11.831-10.299
		C565.824,525.379,566.154,525.788,566.154,525.788z"/>
	<path fill="none" d="M603.396,607.739c1.852-4.909,3.699-9.817,5.552-14.728c2.872,3.431,6.642,6.442,8.304,10.434
		c1.112,2.67-0.773,6.729-1.318,10.17c-4.284-2.092-8.571-4.184-12.864-6.279C603.063,607.329,603.396,607.739,603.396,607.739z"/>
	<path fill="none" d="M279.587,617.947c2.812-5.908,5.625-11.818,8.437-17.729c2.21,1.56,6.514,3.992,6.307,4.55
		c-2.174,5.831-5.07,11.361-7.765,16.976C284.239,620.477,281.913,619.212,279.587,617.947z"/>
	<path fill="none" d="M292.93,522.407c-3.064-1.444-6.128-2.89-11.816-5.568c7.345-5.751,12.685-9.93,18.024-14.107
		c1.358,1.255,2.717,2.514,4.077,3.771c-3.529,5.415-7.059,10.826-10.586,16.241L292.93,522.407z"/>
	<path fill="none" d="M292.628,522.743c1.706,0.589,3.413,1.179,1.026,0.354c1.848,1.783,0.567,0.544-0.719-0.69
		C292.93,522.407,292.628,522.743,292.628,522.743z"/>
	<path fill="none" d="M497.639,644.028c-0.592-0.618-1.184-1.233-1.775-1.849c0.443-0.256,0.889-0.516,1.333-0.771
		c0.059,0.894,0.115,1.786,0.176,2.68L497.639,644.028z"/>
	<path fill="none" d="M401.887,656.692c0.189,0.669,0.379,1.339,0.421,1.491c-0.023-0.215-0.113-0.964-0.19-1.726
		C402.13,656.446,401.887,656.692,401.887,656.692z"/>
	<path fill="none" d="M603.246,614.406l0.572,0.409c0,0-0.455-0.483-0.456-0.478C603.361,614.342,603.246,614.406,603.246,614.406z"
		/>
	<path fill="none" d="M497.371,644.089l0.666,0.18c0,0-0.377-0.266-0.387-0.253C497.639,644.028,497.371,644.089,497.371,644.089z"
		/>
</g>
</svg>
