<?xml version="1.0" encoding="utf-8"?>
<!-- Generator: Adobe Illustrator 15.0.0, SVG Export Plug-In . SVG Version: 6.00 Build 0)  -->
<!DOCTYPE svg PUBLIC "-//W3C//DTD SVG 1.1//EN" "http://www.w3.org/Graphics/SVG/1.1/DTD/svg11.dtd">
<svg version="1.1" id="Layer_1" xmlns="http://www.w3.org/2000/svg" xmlns:xlink="http://www.w3.org/1999/xlink" x="0px" y="0px"
	 width="434.405px" height="575.633px" viewBox="-162.132 -215.04 434.405 575.633"
	 enable-background="new -162.132 -215.04 434.405 575.633" xml:space="preserve">
<g>
	<g>
		<path fill="#FEFEFE" d="M-162.132,360.593c0-191.777,0-383.563,0-575.633c144.594,0,289.27,0,434.405,0
			c0,191.68,0,383.66,0,575.633C127.696,360.593-17.183,360.593-162.132,360.593z"/>
		<path fill="#C3C3C3" d="M116.536-11.115c-2.23-2.801-2.754-6.059-2.551-9.512c3.074-6.723,0.91-12.418-3.457-17.688l0.172,0.148
			c-1.656-1.758-1.152-4.594-3.109-6.207l0.063,0.199c-1.785-2.621-2.84-5.789-5.668-7.637c-1.469-1.27-2.023-3.246-3.426-4.566
			l0.035,0.215c-0.566-0.801-0.934-1.715-1.461-2.523c-8.598-13.344-8.605-13.34,7.129-15.152c4.32,1.566,9.078,2.078,12.754,5.203
			c0.137,0.535,0.277,1.07,0.469,1.613c0.586,0.191,1.121,0.375,1.699,0.578c2.301,1.281,4.535,2.609,6.734,3.988l0.117-0.086
			c3.652,5.098,10.094,5.23,14.859,8.363c1.875,4.094,6.184,4.547,9.563,6.398c4.957,4.723,11.402,6.668,17.453,9.332l-0.156-0.094
			c1.148,1.305,2.898,1.695,4.195,2.773c1.383,1.184,2.871,1.641,4.59,0.738c3.48,1.199,6.844,2.617,9.492,5.305
			c2.375,7.227,9.938,6.145,14.871,9.277l-0.141-0.094c2.441,2.27,5.609,3.75,7.301,6.816c1.938,4.156,3.684,8.363,3.422,13.086
			c0.652,1.801,1.668,3.434,2.531,5.148c1.633,5.672,6.523,8.129,10.917,11.074l-0.242-0.113c0.996,1.152,2.066,2.227,3.22,3.215
			l-0.113-0.238c2.091,3.992,5.121,7.039,9.125,9.113l-0.012-0.094c1.823,4.91,5.723,8.277,9.022,12.094l-0.151-0.098
			c1.672,1.813,1.25,4.859,3.68,6.219c0.707,1.051,1.406,2.098,2.104,3.145c-3.344,4.84,0.48,8.715,2.634,11.848
			c5.301,7.703,4.991,15.215,1.573,23.203c-0.612,1.148-1.328,2.246-2.121,3.285c-0.602,1.152-1.116,2.348-1.565,3.578
			c0.285,5.27-4.767,9.316-3.422,14.832c-1.185,5.352-2.228,10.75-5.513,15.352c-1.68,0.594-2.577,1.348-0.504,2.66
			c-0.797,1.004-1.598,2.012-2.405,3.023c-1.461,0.918-2.595,2.164-3.521,3.613c-0.938,1.066-1.875,2.133-2.809,3.207
			c-0.621,0.066-1.242,0.137-1.859,0.207c-2.984,0.449-5.969,0.418-8.949-0.094c-0.578,0.027-1.151-0.031-1.729-0.008
			c-3.68,0.492-7.363,0.637-11.086,0.496c-1.391-0.223-2.664-0.691-3.855-1.434c-2.926-3.262-6.746-5.32-10.328-7.695
			c-1.105-0.992-1.953-2.184-2.66-3.48c-2.367-5.145-4.742-10.316-5.449-16.051c-0.27-1.406-0.445-2.824-0.594-4.25
			c-0.262-2.156-0.625-4.293-0.906-6.453c0.07-3.094,1.199-5.664,3.773-7.488c5.496-1.891,8.836-6.676,13.297-9.949
			c5.785,0.535,10.746-1.125,14.415-5.289c-0.263,0.223-0.074,0.078-0.281,0.262c-5.887,3.738-12.098,11.926-15.793-1.602
			c0.301-1.273,0.813-2.469,1.563-3.543c3.266-3.047,8.086-3.473,11.09-6.48c-0.219,0.137-0.777,0.516-0.902,0.621
			c-2.215,1.988-4.875,2.777-7.34,3.887c-1.074,0.523-2.059,1.215-2.895,2.082c-0.664,0.953-1.172,2-1.516,3.125
			c-0.461,1.059-0.828,2.156-1.117,3.289c-0.098,0.578-0.203,1.152-0.301,1.73c-0.051,1.191-0.141,2.375-0.305,3.566
			c-0.445,1.188-1.055,2.254-1.844,3.234c-2.563,2.27-5.555,3.594-8.898,4.227c-7.539-1.508-9.305-8.48-13-13.629
			c-2.797-5.645-7.27-9.5-12.926-12.094c-1.121-0.848-2.137-1.816-3.082-2.852c-0.859-1.086-1.582-2.258-2.184-3.5
			c-0.293-0.609-0.59-1.23-0.887-1.832c-0.586-1.172-1.227-2.328-1.906-3.414c-0.281-0.522-0.582-1.082-0.867-1.574
			c-0.402-0.84-0.82-1.754-1.129-2.379c0.098,0.277-0.23-0.566-0.16-0.305c-0.211,12.102,4.871,23.039,5.945,34.668
			c0.145,4.469,0.066,8.91-1.254,13.219c-4.871,7.355-1.258,20.219-14.387,22.25l0.168-0.082c-0.938-1.191-2.066-2.199-3.203-3.195
			l0.117,0.219c-1.656-1.762-1.16-4.609-3.125-6.227l0.082,0.211c-3.77-6.648-3.691-15.051-9.457-20.789
			c-0.758-2.164-1.512-4.324-2.266-6.488c1.848-2.074,2.27-4.004-0.551-5.613c-2.035-2.891-2.586-6.141-2.355-9.586
			c2.406-3.859,0.727-8.125,1.207-12.168c-0.078-0.543-0.145-1.105-0.223-1.656c-0.531-0.18-1.055-0.379-1.574-0.574
			c-2.84-3.832-2.762-8.223-2.414-12.664c1.688-5.84,2.527-11.656-0.523-17.352c-2.789-3.824-2.836-8.168-2.395-12.604
			C120.844,0.366,118.712-5.376,116.536-11.115z"/>
		<path fill="#C3C3C3" d="M-27.632-41.802c-1.086,3.383-2.145,6.773-4.652,9.453c-4.648,5.16-7.004,10.852-4.145,17.758
			c-0.77,2.18-1.539,4.359-2.309,6.535c-2.758,7.746-6.441,15.188-7.813,23.398c-2.422,5.094,0.305,10.395-0.633,15.547
			c-4.172,5.719,0.313,12.113-1.426,18.035c-1.773,9.734-1.785,19.453-0.039,29.18c0.07,2.488-0.559,4.758-2.086,6.758
			c-3.801,3.176-0.879,9.246-5.23,12.18c-2.145,7.598-5.43,15.105-1.789,23.148c-0.848,1.137-1.691,2.273-2.539,3.41
			c-0.879,0.91-1.723,1.852-2.52,2.832c-1.641,2.734-3.613,5.16-6.383,6.848c-1.637,1.043-3.414,1.668-5.352,1.926
			c-1.301,0.27-2.598,0.25-3.898,0.129c-10.035,1.246-16.676,9.117-25.375,12.918c-1.973,0.828-3.852,1.91-6.008,2.246
			c-1.441,0.117-2.863-0.043-4.246-0.434c-3.469-0.738-6.984-0.922-10.523-0.766c-3.055,0.422-5.664-0.406-7.719-2.762
			c-1.582-3.168-2.664-6.766-6.742-7.777c-0.66-1.117-1.324-2.238-1.984-3.352c1.594-8.262,2.547-16.625,4.023-24.906
			c2.969-4.457,5.34-9.238,7.652-14.047l-0.023,0.219c1.949-1.613,1.449-4.461,3.113-6.219l-0.105,0.211
			c1.945-1.609,1.438-4.453,3.105-6.199l-0.164,0.109c4.457-5.242,6.012-11.07,3.594-17.707c-0.359-3.414,0.188-6.598,2.387-9.363
			c3.039-2.148,1.199-5.355,1.746-8.043c0-1.773,0.434-3.43,1.332-4.977c0.617-1.051,1.156-2.129,1.637-3.25
			c2.953-6.422,4.668-13.289,7.41-19.766l-0.109,0.137c6.719-5.387,7.48-14.023,11.402-20.938
			c3.965-7.02,9.188-13.328,11.863-21.063c5.73-4.602,9.512-11.117,15.328-15.629c4.746-1.273,7.75-4.422,9.566-8.863
			c1.031-0.813,2.066-1.629,3.094-2.438c3.633,1.953,4.336-1.43,5.91-3.238l-0.145,0.105c5.277-2.672,11.02-4.563,15.176-9.102
			l-0.137,0.008c2.527-1.508,4.961-0.051,7.426,0.242c1.152,0.625,2.066,1.496,2.738,2.617c0.266,1.328-0.047,2.5-0.93,3.52
			l0.09-0.188C-26.245-49.814-30.323-46.853-27.632-41.802z"/>
		<path fill="#808080" d="M-12.663-167.396c6.734-31.738,31.293-49.586,62.93-44.406c14.418,2.358,22.332,14.391,28.445,26.16
			c5.195,10.008,7.914,21.367,7.57,33.035c-0.82,1.691-1.25,3.605-2.711,4.953c-1.168,0.609-2.406,0.887-3.719,0.887
			c-1.293-0.285-2.48-0.797-3.586-1.523c-1.715-1-3.434-1.984-5.18-2.945c-1.121-0.762-2.098-1.668-2.914-2.75
			c-15.555-14.887-17.363-15.094-35.027-4.422c-2.52,1.52-5.148,2.914-8.195,3.125c-1.797,0.176-3.566-0.137-5.301-0.496
			c-1.066,0.137-2.145,0.223-3.207,0.438c-2.777,0.871-5.039,2.684-7.563,4.039c-1.164,0.543-2.313,1.063-3.473,1.625
			c-1.199,0.647-2.379,1.272-3.563,1.934c-2.48,1.609-5.105,2.688-8.133,2.492c-3.426-0.246-5.93-1.789-7.246-5.051
			C-13.476-156.013-14.702-161.79-12.663-167.396z"/>
		<path fill="#C3C3C3" d="M56.997-7.982c-2.793,2.332-6.078,2.621-9.512,2.297C35.384-8.81,23.415-8.572,11.63-4.173
			C10.196-3.939,8.743-4.06,7.298-4.009C-11.109-3.325-11.097-3.314-7.781-22.466c0.242-1.406,0.063-2.896,0.113-4.348
			C-6.422-33.525-2.5-40.013-6.02-47.107c-0.203-3.422,0.23-6.676,2.492-9.445c4.969-15.969,8.234-16.168,24.469-1.66
			c1.137,0.34,2.102,0.992,3.039,1.613c1.492,0.551,2.922,1.25,4.453,1.734c1.195-0.004,2.258,0.34,3.348,0.672
			c1.262,0.047,2.379,0.441,3.52,0.844c0.637,0.113,1.18,0.391,1.801,0.492c4.188,1.641,7.906,0.953,11.148-2.113
			c0.797-0.926,1.801-1.555,2.848-2.086c1.406-0.891,2.781-1.836,4.086-2.887c0.723-0.832,1.48-1.629,2.184-2.477
			c0.984-1.469,1.859-2.988,2.754-4.523c1.633-2.188,3.766-3.566,6.445-4.074c3.789,0.824,7.805,0.672,11.367,2.535l0.012-0.059
			c0.895,3.828,2.605,7.039,6.434,8.684c1.922,3.078,1.715,7.5,5.82,9.195c1.57,1.867,2.297,4.039,2.336,6.465
			c-3.547,9.375,2.719,22.848-11.586,27.727c-4.156,0.105-7.613,2.41-11.422,3.613C65.548-10.712,60.149-12.236,56.997-7.982z"/>
		<path fill="#DEDEDE" d="M-132.355,144.456c3.063,0.035,6.121,0.074,9.188,0.113c1-0.996,2.172-1.332,3.547-0.895
			c3.676,2.727,3.262,6.629,3.094,10.391c0.215,0.75,0.438,1.578,0.828,2.242c0.094-0.141,0.809,0.703,0.914,0.559
			c0.82,0.055,1.48,0.379,2.184,0.688c0.988-0.016,1.805,0.285,2.637,0.668c2.063,0.57,3.902,1.539,5.742,2.563
			c1.16,0.398,2.258,0.855,3.398,1.297c1.281,0.258,2.426,0.773,3.52,1.473c2.656,2.012,4.516,4.637,6.039,7.547
			c1.043,1.625,1.703,3.418,2.195,5.293c0.41,3.195,0.34,6.367-0.871,9.426c-0.805,2.461-2.582,4.488-3.133,7.059
			c-0.172,3.344-2.738,7.484,2.98,8.836c1.691,2.066,1.563,4.086-0.141,6.074l0.133-0.137c-1.777,1.438-4.508,2.285-3.398,5.504
			c-2.473,4.918-1.879,11-5.871,15.332c-3.508-2.816-4.613-7.672-8.582-10.086c-1.559-2.477-2.633-5.258-4.574-7.223
			c-0.211-0.074,0.148,0.301,1.234,1.457c1.852,3.539,3.902,6.777,6.922,9.309c2.313,5.242,1.391,9.52-3.707,12.566
			c-2.379-0.188-4.477-1.008-6.145-2.77c-2.492-2.082-4.777,0.066-7.164,0.348c-2.043,0.004-3.766-0.719-5.152-2.238
			c-1.676-2.109-0.57-5.219-2.586-7.203c-4.289-6.508-7.391-13.523-8.996-21.168c2.211-4.914,2.234-9.836-0.016-14.75
			c2.016-7.098,4.035-14.203,6.051-21.301c1.918-2.016,1.414-3.938-0.215-5.82c-3.809-4.5-2.805-9.902-2.82-15.105
			C-134.218,143.147-133.296,143.069-132.355,144.456z"/>
		<path fill="#DEDEDE" d="M233.911,133.421c-2.802,7.414-5.043,15.148-11.759,20.301c-0.776,0.521-1.43,1.168-1.957,1.988
			c-0.168,1.105-0.163,2.168-0.012,3.277c0.746,5.156-1.395,10.52,1.398,15.434c-2.547,4.848-2.145,10.785-5.656,15.277
			c-6.555,3.816-11.594,9.023-15.293,15.711c-3.359,6.078-7.242,6.191-10.977,0.16c-0.168-1.25-0.035-2.484,0.418-3.645
			c0.664-0.918,1.566-1.586,2.516-1.898c0.418-0.098,0.871-0.438,1.008-0.82c-0.199,0.117,0.227,0.219,0.07,0.363
			c-0.16,0.141-1.469,0.508-1.617,0.543c-0.965,0.227-1.793,0.309-2.727,0.277c-1.754-0.438-2.992-1.461-4.012-2.854
			c-0.578-1.129-0.938-2.309-1.148-3.469c-0.195-0.891-0.145-1.844-0.023-2.605c-0.121,0.188-0.188-0.871-0.371-0.672
			c-0.183,0.199-0.648-0.434-0.84-0.258c-1,0.191-1.777,0.055-2.684-0.184c-1.25-0.25-2.25-0.75-3.242-1.449
			c-2.098-2.086-3.176-4.426-2.219-7.375c1.219-4.832,4.527-9.168,3.34-14.539c-0.48-8,3.801-14.781,5.594-22.223
			c0.488-1.344,1.281-2.5,2.211-3.559c2.555-3.387,3.371-7.797,6.301-11.016c2.25-2.516,5.031-3.922,8.426-4.043
			c3.344,0.438,6.43,1.512,9.113,3.609l-0.148-0.098c7.734,3.375,16.5-1.887,24.063,2.887L233.911,133.421z"/>
		<path fill="#DCDCDC" d="M68.661-68.407c-1.676,1.859-2.516,4.059-2.656,6.539c2.727,4.371-0.406,6.414-3.387,8.523l0.145-0.098
			c-1.609,1.887-4.441,1.348-6.125,3.082l0.148-0.113c-8.539,5.211-17.398,7.48-27.012,3l0.086,0.082
			C19.833-51.974,10.723-57.388,9.403-69.88c1.563-3.406-0.285-8.836,5.668-9.664c1.23-0.102,2.488-0.047,3.719,0.023
			c1.188-0.176,2.379-0.055,3.547,0.18c0.547,0.125,1.094,0.348,1.641,0.512c1.051,0.391,2.074,0.887,3.066,1.43
			c1.578,0.727,2.836,1.875,4.02,3.129c1.555,1.027,3.32,1.473,5.102,1.938c8.453,1.656,13.031-5.246,18.918-8.91
			c3.605-2.246,6.051-6.391,11.211-5.223c4.137,1.484,5.898,4.391,5.199,8.742c0.129,2.023,0.262,4.047,0.402,6.074
			C71.575-69.806,70.45-68.771,68.661-68.407z"/>
		<path fill="#ADADAD" d="M-72.089,216.741c0,45.289,0,90.581,0,135.883c-0.93,0.008-1.852,0.012-2.781,0.021
			c0-47.199,0-94.398,0-141.599C-69.663,210.854-70.265,213.495-72.089,216.741z"/>
		<path fill="#D1D1D1" d="M-12.663-167.396c0.152,6.012,0.305,12.027,0.457,18.039c3.273,2.441,8.809,1.629,10.035,6.992
			c0.559,2.715,1.16,5.426,1.918,8.094c1.168,3.957,2.766,7.746,4.742,11.383c1.98,3.977,5.383,7.227,5.965,11.906
			c-0.02,3.445-1.137,6.398-3.813,8.668c-12.496,4.199-15.754-3.559-17.367-13.406c-0.797-3.07,1.555-6.754-1.738-9.41
			C-16.609-139.193-17.042-153.282-12.663-167.396z"/>
		<path fill="#838383" d="M-9.515-119.064c0.246,9.789,8.168,11.871,15.059,14.988c5.387,1.949,8.082,5.707,7.711,11.512
			c-0.629,4.664-2.969,7.73-7.848,8.43c-8.895-1.25-15.047-7.719-16.988-19.113c-0.883-5.172-0.266-10.605-0.328-15.918
			c0.43-0.703,0.855-1.41,1.285-2.113C-10.253-120.54-9.886-119.802-9.515-119.064z"/>
		<path fill="#898989" d="M71.497-77.716c-1.801-1.918-3.602-3.84-5.406-5.762c-1.121-0.73-2.086-1.633-2.93-2.68
			c-0.957-1.852-1.184-3.789-0.727-5.82c1.09-3.098,4.27-5.09,4.59-8.617c0.305-1.328,0.699-2.613,1.156-3.895
			c0.84-2.77,2.152-5.188,4.848-6.59c2.734-1.121,5.469-2.004,8.191,0.016c0.859,1.367,0.699,2.602-0.473,3.711
			c-0.266,5.762-1.172,11.574,0.621,17.211c1.086,3.43-0.215,5.504-3.07,7.066c-0.875,0.766-1.754,1.535-2.645,2.293
			c-1.438,1-2.777,2.129-4.188,3.176L71.497-77.716z"/>
		<path fill="#AFAFAF" d="M74.501-83.064c1.266-0.008,2.535-0.012,3.801-0.02c2.809,1.77,5.617,3.547,8.426,5.32
			c1.723,1.867,3.602,2.484,5.77,0.711c3.918,1.066,7.84,2.141,11.754,3.211c-5.211,2.516-5.207,3.063-4.16,10.52
			c0.324,2.27-0.961,4.766-1.508,7.156c-6.797-4.68-11.664-11.207-16.32-17.801c-1.977-2.793-4.375-3.348-7.246-3.646
			C72.555-79.208,73.243-81.107,74.501-83.064z"/>
		<path fill="#A7A7A7" d="M-6.269-26.357c1.074,4.781,1.984,9.145-0.648,14.215c-1.906,3.68,4.25,7.613,5.395,5.5
			c6.207-11.43,8.988,1.098,13.277,1.266c0.656,0.539,0.871,1.082,0.652,1.625c-0.219,0.539-0.441,0.809-0.66,0.809
			c-1.465,0.227-2.926,0.445-4.387,0.68c-20.074,3.215-22.98-0.086-17.445-19.813c0.398-1.426,0.801-2.848,1.199-4.273
			C-8.019-27.88-7.14-27.81-6.269-26.357z"/>
		<path fill="#B8B8B8" d="M191.809,201.694c1.602,5.23,3.703,3.969,6.973,1.074c5.367-4.758,7.938-13.336,17.141-13.066
			c-3.641,6.246-11.293,9.703-12.336,17.75c-1.285,1.473-1.332,3.293-1.441,5.102c-0.324,1.191-0.781,2.316-1.41,3.383
			c-2.363,2.715-4.203,6.773-8.906,3.453c0.246-6.414-3.629-8.703-9.254-9.25c-0.375-0.535-0.754-1.07-1.133-1.605
			c-0.121-1.332,0.137-2.586,0.723-3.785c1.746-1.941,3.328-4.113,6.199-4.512C189.731,200.21,190.887,200.667,191.809,201.694z"/>
		<path fill="#C9C9C9" d="M-72.089,216.741c-0.93-1.902-1.852-3.797-2.781-5.699c-1.059-6.105,1.145-12.727-2.852-18.379
			c-1.023,1.125-2.09,1.223-3.207,0.129c2.07-3.875,4.266-7.629,10.016-9.633C-68.624,194.686-67.527,205.71-72.089,216.741z"/>
		<path fill="#AFAFAF" d="M11.7-71.275c0.078,12.504,10.746,16.957,18.16,23.887c-4.32,0.156-8.305-1.047-12.117-2.969l0.023,0.02
			c-1.434-1.926-2.777-3.938-4.328-5.766C4.899-66.181,4.884-66.165-3.527-56.548c0.012-3.914,0.031-7.824,0.047-11.73
			c0.277-1.023,0.859-1.832,1.73-2.434c0.973-0.352,1.977-0.559,3.008-0.605c0.516-0.004,1.027-0.012,1.543-0.023
			c1.93-0.047,3.859-0.09,5.789-0.145C9.759-73.415,10.79-73.353,11.7-71.275z"/>
		<path fill="#A8A8A8" d="M11.751-2.947c0.004-0.813,0.004-1.621,0.008-2.434c8.797-8.27,20.457-3.688,30.504-6.566
			c2.492-0.719,3.914,3.711,5.223,6.262C35.544-5.126,23.497-6.029,11.751-2.947z"/>
		<path fill="#AFAFAF" d="M-57.749,120.198c-1.16-4.102-10.492-1-7.672-6.234c3.051-5.664-1.902-15.066,7.891-17.34
			c0.508,0.313,1.016,0.629,1.527,0.941c0.332,1.715,0.188,3.59,1.637,4.938C-55.491,108.409-56.62,114.303-57.749,120.198z"/>
		<path fill="#A9A9A9" d="M80.759-17.185c1.215-1.531,2.598-2.961,3.613-4.613c6.203-10.082,6.172-10.102-1.254-19.125
			c2.438-3.105,6.555-1.41,9.414-3.262c0.152,3.461,0.066,6.953,0.508,10.375c1.262,9.879-2.406,16.324-12.391,18.656
			C80.692-15.833,80.723-16.509,80.759-17.185z"/>
		<path fill="#ABABAB" d="M251.637,87.589c0.035-1.008,0.066-2.012,0.098-3.016l-0.059,0.063c5.891-7.09,5.574-14.328,1.141-22.109
			c-2.375-4.164-5.569-8.727-1.254-13.711c1.215,3.266,1.879,6.891,3.75,9.723c6.539,9.883,6.427,19.531,0.086,29.32
			C254.066,88.878,252.813,88.784,251.637,87.589z"/>
		<path fill="#D4D4D4" d="M-131.933,300.725c-0.227-4.285-0.492-8.582,2.68-12.113c1.266-1.843,2.105-4.227,5.023-3.983
			c1.57,0.688,2.379,1.887,2.438,3.594c0.07,8.578,0.188,17.148-0.074,25.724c-10.453,3.426-5.852-5.724-7.832-9.371
			C-130.249,303.178-130.995,301.9-131.933,300.725z"/>
		<path fill="#C9C9C9" d="M206.723,300.632c-5.637-12.484-1.84-26.375-5.836-39.098c0.789-0.965,1.797-1.336,3.023-1.109
			c2.43,1.098,2.77,3.516,3.547,5.656c0.723,1.551,1.098,3.27,2.379,4.535c1.676,1.703,2.449,3.781,2.551,6.141
			c-0.855,1.027-1.566,2.145-2.125,3.359c-1.602,5.926,0.781,11.983-0.555,17.918C208.977,299.206,207.969,300.061,206.723,300.632z
			"/>
		<path fill="#CCCCCC" d="M191.809,201.694c-1.035-0.02-2.07-0.039-3.098-0.059c-1.973,1.973-3.93,3.953-5.879,5.945l-0.094,0.043
			c-2.285,3.02-6.531,0.063-8.879,2.91c-5.027-5.918-3.383-12.133-0.809-18.391c1.859-0.109,3.691-0.035,5.465,0.629
			c0.594,0.16,1.191,0.328,1.785,0.492c2.902,0.625,6.406-0.879,8.516,2.453c1,0.98,2,1.965,3,2.949
			c0.91,0.707,1.199,1.402,0.871,2.07c-0.324,0.664-0.645,0.992-0.961,0.992L191.809,201.694z"/>
		<path fill="#A9A9A9" d="M209.743,3.651c0.406-6.262-1.813-12.094-2.992-18.105c-0.973-0.574-1.309-1.16-1.004-1.766
			c0.309-0.613,0.621-0.918,0.941-0.918c8.004,9.832,7.906,24.18,18.242,32.715c-7.973-0.281-11.516-6.203-15.203-11.945
			L209.743,3.651z"/>
		<path fill="#A7A7A7" d="M-48.097,15.71c-2.391-4.277-7.84-8.68,1.508-11.793c5.32-1.773,1.434-10.414,7.855-11.973
			c-0.906,8.23-2.34,16.32-6.297,23.742C-46.042,17.218-47.062,17.225-48.097,15.71z"/>
		<path fill="#AAAAAA" d="M-135.257,111.624c2.125,1.355,5.004,3.887,3.059,5.609c-5.641,4.988-5.035,12.582-8.84,18.176
			c0.168-9.047-3.047-18.434,2.754-26.902C-136.37,108.663-135.956,110.284-135.257,111.624z"/>
		<path fill="#B4B4B4" d="M-51.214,45.667c0.637-5.09-10.188-12.504,3.051-15.039c0.344-0.734,0.688-1.469,1.035-2.199
			c0.445,0.672,0.898,1.348,1.352,2.02c0.277,7.293,1.641,14.699-2.168,21.582C-50.656,50.749-48.991,47.21-51.214,45.667z"/>
		<path fill="#A5A5A5" d="M143.61,114.87c4.023-5.781,3.758-11.582,0.633-17.754c-3.266-6.449-0.516-8.109,5.707-6.289
			c9.66,8.746,7.887,18.422,2.328,28.418c-0.844,0.457-1.688,0.922-2.535,1.383C146.79,119.678,145.036,117.452,143.61,114.87z"/>
		<path fill="#C8C8C8" d="M-128.948,255.659c-0.031-8.039-0.07-16.078-0.102-24.117c1.398-1.105,2.953-1.426,4.668-0.957
			c7.746,6.75,3.137,15.355,3.484,23.211c-0.711,1.57-1.883,2.645-3.508,3.223C-126.128,257.249-127.636,256.792-128.948,255.659z"
			/>
		<path fill="#B0B0B0" d="M-66.222-35.505c-2.027,4.707-6.852,7.582-7.434,13.508c-0.555,5.598-4.805,2.371-7.715,1.637
			c-0.629,1.707-1.34,1.738-2.121,0.094c4.168-7.469,9.887-13.414,17.375-17.602c1.094,0.574,1.445,1.113,1.051,1.625
			C-65.445-35.751-65.827-35.505-66.222-35.505z"/>
		<path fill="#B1B1B1" d="M176.739,198.694c-1.23-2.188-2.461-4.367-3.691-6.551c0.012-0.848,0.004-1.695-0.023-2.543
			c1.414-2.809,4.758-1.352,6.688-3.031c1.215-0.07,2.426-0.137,3.645-0.211c1.883,1.246,3.398,2.918,5.129,4.328
			c1.035,0.453,1.977,1.043,2.824,1.785c-0.832,1.086-1.664,2.16-2.496,3.242c-4.102,1.844-8.211,3.684-12.313,5.523
			c-0.629-0.629-0.805-1.219-0.527-1.762C176.243,198.956,176.501,198.694,176.739,198.694z"/>
		<path fill="#C2C2C2" d="M-131.933,300.725c0.891-0.055,1.781-0.098,2.672-0.133c2.266,10.66,3.16,21.605,6.723,31.996
			c0.859,2.305,1.043,4.559-0.523,6.68c-6.566-2.961-9.203-8.313-9.156-15.227C-132.159,316.268-132.034,308.495-131.933,300.725z"
			/>
		<path fill="#EBEBEB" d="M-126.159,255.62c0.914-0.059,1.832-0.121,2.746-0.18c1.715-0.172,2.992,0.547,3.918,1.965
			c0.773,1.34,0.996,2.973,2.215,4.074c0.074,3.34-0.449,6.512-2.594,9.227c-3.594,3.434-1.059,7.848-1.875,11.727
			c0.004,1.293-0.52,2.313-1.566,3.066c-0.961,0.043-1.922,0.082-2.887,0.102c-3.219-7.395-0.719-15.156-1.512-22.711
			C-127.573,260.389-128.234,257.71-126.159,255.62z"/>
		<path fill="#B4B4B4" d="M-105.55,216.643c9.07,0.289,5.148,7.355,6.18,11.84c-1.496,4.043-3.984,6.648-8.707,6.023
			c2.363-4.223,1.648-8.313-0.535-12.336C-109.484,219.276-107.605,217.917-105.55,216.643z"/>
		<path fill="#ACACAC" d="M-111.234,45.647c-1.051,1.047-2.102,2.094-3.156,3.137c-0.742,1.688-1.5,1.781-2.266,0.016
			c1.477-10.059,4.523-19.473,11.324-27.328c0.164,8.559-2.941,16.332-5.879,24.137L-111.234,45.647z"/>
		<path fill="#A8A8A8" d="M-93.245,0.62c-2.566,7.867,1.277,19.461-12.195,20.992c0.855-7.98,6.082-13.996,9.402-20.863
			c0.445-0.477,0.895-0.949,1.332-1.426C-94.218-0.243-93.734,0.182-93.245,0.62z"/>
		<path fill="#AFAFAF" d="M140.544-53.31c-5.918-2.813-11.93-0.5-17.59,0.707c-1.863-5.008,1.848-7.004,3.078-9.941
			c6.773,1.473,12.578,4.871,17.945,9.109C142.872-52.419,141.727-52.376,140.544-53.31z"/>
		<path fill="#BFBFBF" d="M-63.07,123.569c0.93,0.02,1.852,0.035,2.781,0.039c0.066,11.844-4.707,22.371-8.988,33.031
			c-1.59,0.992-3.113,0.902-4.582-0.266c-5.766-7.152-1.918-13.695,1.762-19.84C-69.409,132.038-65.749,128.124-63.07,123.569z"/>
		<path fill="#A6A6A6" d="M251.637,87.589c1.254,0.086,2.508,0.18,3.762,0.266c-0.746,6.477-3.852,12.055-6.746,17.707
			c-0.702-2.672-13.819-1.336-2.457-8.211C248.966,95.682,249.872,90.928,251.637,87.589z"/>
		<path fill="#BDBDBD" d="M-117.284,261.479c-1.039-1.008-2.086-2.02-3.125-3.027c-2.102-9.945-2.18-19.895-0.004-29.84
			c3.184-1.18,5.691-1.02,6.195,3.121C-119.921,241.167-116.019,251.589-117.284,261.479z"/>
		<path fill="#A7A7A7" d="M-83.491-20.263c0.707-0.027,1.414-0.059,2.121-0.094c-1.16,8.582-1.691,17.508-11.875,20.977l0.055,0.047
			c-0.879-0.66-1.23-1.375-1.047-2.156C-94.046-2.298-93.82-2.7-93.562-2.7C-91.738-9.427-86.96-14.474-83.491-20.263z"/>
		<path fill="#C4C4C4" d="M-123.32,285.495c0.074-1,0.168-1.996,0.266-2.988c0.82-1.664,1.656-1.754,2.512-0.027
			c0,13.094,0,26.191,0,39.285c-1.324,0.742-2.527,0.544-3.621-0.469c-0.957-2.047-0.914-3.944,0.824-5.599
			C-123.335,305.632-123.327,295.564-123.32,285.495z"/>
		<path fill="#A0A0A0" d="M80.747-107.357c-0.066-0.906-0.063-1.816,0.004-2.719c-1.117-0.957-2.109-2.027-2.992-3.199
			c-2.273-7.266,0.551-14.52,0.051-21.785c0.543-1.453,1.449-2.613,2.723-3.496c2.316-0.836,4.406-0.5,6.23,1.207
			C87.091-126.88,89.063-116.087,80.747-107.357z"/>
		<path fill="#C3C3C3" d="M-93.073,192.878c-1.973-2.176-1-4.406-0.125-6.637c5-5.773,3.277-18.438,16.348-15.949
			c0.617,0.48,1.23,0.965,1.84,1.449C-77.761,181.585-86.077,186.663-93.073,192.878z"/>
		<path fill="#ACACAC" d="M161.856,225.655c-5.016-9.391-2.652-19.637-3.418-29.52c-1.25-3.285-2.539-6.594,3.184-6.43
			c0.324,12.059-0.328,24.188,2.707,36.039C163.427,227.753,162.602,227.725,161.856,225.655z"/>
		<path fill="#AEAEAE" d="M245.93,39.553c-4.051-3.125-8.156,2.246-12.332,0.039c-1.41-4.816,3.367-7.832,3.31-12.133
			C241.794,30.085,244.859,34.081,245.93,39.553z"/>
		<path fill="#C3C3C3" d="M170.583,156.733c-8.148-6.113-10.066-15.938-14.445-24.293c1.168-1.254,2.609-1.953,4.32-2.105
			c12.066,4.434,16.145,12.754,12.168,25.004C171.95,155.803,171.266,156.264,170.583,156.733z"/>
		<path fill="#E8E8E8" d="M191.833,219.389c2.926-2.043,2.73-8.918,8.98-5.813c2.703,4.102,0.891,8.703,1.422,13.035
			c0.113,2.18-0.145,4.227-2.195,5.551c-5.605,1.121-2.313-5.621-5.691-6.469C193.512,223.589,192.673,221.487,191.833,219.389z"/>
		<path fill="#A7A7A7" d="M128.196,85.01c3.895-1.852,5.414,0.68,6.109,3.699c1.305,5.648,2.254,11.391,3.348,17.09
			C131.895,100.057,129.817,92.635,128.196,85.01z"/>
		<path fill="#A8A8A8" d="M110.528-38.318c11.199,3.48,11.199,3.48,3.457,17.688C112.833-26.525,111.68-32.419,110.528-38.318z"/>
		<path fill="#CBCBCB" d="M11.7-71.275c-1.035-0.074-2.078-0.137-3.109-0.211c0.152-4.52,0.281-9.031-3.18-12.645
			c1.254-2.766,2.5-5.539,3.754-8.313c5.402-1.203,6.75,2.359,7.73,6.414c0.508,1.59,1.043,3.199,1.844,4.746
			c1.102,2.434,1.199,4.758-0.84,6.781C14.731-75.532,12.247-75.267,11.7-71.275z"/>
		<path fill="#AFAFAF" d="M203.606,327.553c4.316,8.293,3.238,16.945,1.066,25.738c-1.129-8.613-2.258-17.227-3.391-25.844
			C202.149,325.366,202.927,325.404,203.606,327.553z"/>
		<path fill="#9E9E9E" d="M-51.214,45.667c1.09,2.121,2.18,4.246,3.27,6.363c-0.238,8.695-0.469,17.387-0.703,26.078
			C-53.816,67.635-50.003,56.456-51.214,45.667z"/>
		<path fill="#A3A3A3" d="M116.536-11.115c0.582-0.66,1.168-1.324,1.75-1.98c1.355,6.574,7.027,13.41-1.18,19.402
			C116.911,0.495,116.723-5.314,116.536-11.115z"/>
		<path fill="#A4A4A4" d="M167.903-38.454c-7.105-0.82-14.75-0.543-18.152-8.902c1.02-1.25,2.063-1.27,3.125-0.051
			C158.747-45.865,163.805-42.97,167.903-38.454z"/>
		<path fill="#AEAEAE" d="M83.903-59.349c-2.547,0.715-5.453,2.934-7.531-0.125c-2.148-3.16,0.379-6.129,1.57-9.055
			c3.773,2.172,6.422,5.324,8.141,9.293C85.27-57.654,84.544-57.689,83.903-59.349z"/>
		<path fill="#A7A7A7" d="M-135.257,111.624c-1.008-1.039-2.016-2.078-3.027-3.113c1.977-4.754,4.379-9.195,8.918-12.051
			C-125.913,103.624-132.269,106.968-135.257,111.624z"/>
		<path fill="#A8A8A8" d="M152.876-47.407c-1.043,0.016-2.086,0.035-3.125,0.051c-3.891-0.707-13.305,7.121-9.207-5.953
			c1.145-0.043,2.293-0.086,3.43-0.125C146.946-51.423,149.911-49.415,152.876-47.407z"/>
		<path fill="#A5A5A5" d="M-24.273-56.294c-3.035-1.082-6.078-2.168-9.113-3.25c4.117-4.52,9.184-7.348,15.172-8.543
			c0.996,0.883,1.434,1.965,1.23,3.289C-18.984-61.595-21.616-58.931-24.273-56.294z"/>
		<path fill="#9E9E9E" d="M119.497,18.913c0.145-0.945,0.176-1.93,0.465-2.832c0.418-1.27,2.02-2.973,2.238-0.727
			c0.676,7.031,2.168,14.336-2.18,20.91C119.844,30.479,119.673,24.694,119.497,18.913z"/>
		<path fill="#9E9E9E" d="M-18.292-65.247c0.02-0.949,0.047-1.895,0.078-2.84c3.773-1.953,7.676-3.438,11.996-3.539
			c0.75,0.734,0.996,1.469,0.746,2.203c-0.25,0.73-0.5,1.098-0.754,1.098c-3.98,3.25-7.961,6.496-11.938,9.742
			C-20.156-60.767-19.87-62.997-18.292-65.247z"/>
		<path fill="#A5A5A5" d="M200.895-20.454c-4.996,0.246-9.613-1.262-13.992-3.391c-2.773-1.344-2.75-3.598-0.879-5.887
			C190.872-26.47,196.864-25.025,200.895-20.454z"/>
		<path fill="#B0B0B0" d="M176.536-35.032c-0.375,0.859-0.586,1.855-1.152,2.559c-1.766,2.199-1.043,8.195-5.555,5.898
			c-3.469-1.766,0.039-5.813,0.914-8.789c-0.863-0.582-1.156-1.18-0.883-1.793c0.266-0.609,0.551-0.914,0.832-0.914
			C172.637-37.056,174.583-36.044,176.536-35.032z"/>
		<path fill="#C3C3C3" d="M206.559,234.698c0.148,4.953,0.293,9.91,0.441,14.863c1.09,2.598-0.324,3.793-2.547,4.547
			c-1.445,0.02-2.691-0.477-3.723-1.496c-0.824-2.043-1.648-4.086-2.477-6.121c0.813-1.043,1.469-2.172,2-3.383
			c0.859-3.09-0.227-6.773,2.801-9.207C204.411,233.362,205.575,233.624,206.559,234.698z"/>
		<path fill="#A4A4A4" d="M-33.249-59.556c-2.531,7.25-7.785,9.965-15.176,9.102C-44.847-55.954-39.531-58.556-33.249-59.556z"/>
		<path fill="#ABABAB" d="M-126.452,261.721c0.082,7.957,0.164,15.914,0.246,23.879c-1.012,1.004-2.027,2.008-3.043,3.011
			c0.117-8.964,0.23-17.925,0.344-26.891C-128.085,259.577-127.269,259.577-126.452,261.721z"/>
		<path fill="#A8A8A8" d="M-6.269-26.357c-0.871,0-1.746,0-2.613,0.004c0.957-6.914,1.91-13.836,2.863-20.754
			C-1.253-40.13-3.226-33.236-6.269-26.357z"/>
		<path fill="#9F9F9F" d="M-119.839,66.878c5.758,7.316,4.344,13.176-3.598,17.707c0.164-1.957,0.328-3.918,0.492-5.879
			c0.859-1.094,1.711-2.195,2.555-3.301C-120.21,72.565-120.027,69.721-119.839,66.878z"/>
		<path fill="#C1C1C1" d="M86.759-137.345c-1.926-0.082-3.859-0.164-5.789-0.246c-2.938-1.387-3.586-3.832-3.164-6.785
			c0.492-1.289,1.254-2.391,2.313-3.277c1.336-0.305,2.563-0.863,3.668-1.672c0.832-1.09,1.664-2.188,2.496-3.277
			C86.438-147.521,86.598-142.431,86.759-137.345z"/>
		<path fill="#9F9F9F" d="M80.759-17.185c-0.047,0.676-0.082,1.352-0.105,2.027c-3.594,2.379-7.406,4.109-11.859,3.855
			c-0.746-0.637-0.996-1.273-0.75-1.914c0.246-0.646,0.492-0.965,0.742-0.965C72.083-17.939,75.602-20.825,80.759-17.185z"/>
		<path fill="#A3A3A3" d="M-36.425-14.587c-4.223-7.23-3.977-13.414,4.145-17.758C-33.659-26.423-35.046-20.505-36.425-14.587z"/>
		<path fill="#D0D0D0" d="M221.579,174.421c-4.625-6.191-1.647-14.516-5.844-20.824l-0.023,0.023
			c2.146,0.031,4.293,0.066,6.438,0.098C221.962,160.62,221.77,167.518,221.579,174.421z"/>
		<path fill="#A5A5A5" d="M179.907,165.757c0.211,5.238-1.004,10.176-3.125,14.922c-1.086,0.984-2.168,1.016-3.23-0.043
			c1.25-5.973,4.016-11.891,0.594-18.02c0.832-0.98,1.898-1.543,3.16-1.75c1.281,0.109,2.371,0.641,3.289,1.527
			C181.044,163.655,180.813,164.776,179.907,165.757z"/>
		<path fill="#D5D5D5" d="M206.559,234.698c-0.945-0.047-1.891-0.078-2.832-0.086c-0.684,0.727-1.375,1.441-2.078,2.152
			c-1.207,1.094-2.641,1.262-4.184,1.023c-0.848-2.109-1.695-4.219-2.543-6.328c1.043-1.977,1.98-1.926,2.801,0.156
			c1.082-1.102,2.172-2.195,3.254-3.293c1.191-2.09,2.16-2,2.918,0.289C205.606,230.28,206.423,232.339,206.559,234.698z"/>
		<path fill="#989898" d="M-45.777,30.448c-0.797,0.055-1.594,0.113-2.387,0.18c-0.961-4.98-3.449-9.961,0.066-14.918
			c1.023-0.008,2.043-0.016,3.066-0.023C-45.281,20.608-45.531,25.526-45.777,30.448z"/>
		<path fill="#A4A4A4" d="M68.786-14.181c-0.004,0.961-0.004,1.922,0.008,2.879l0.137,0.156c-1.082,0.82-2.164,1.641-3.238,2.469
			c-2.902,0.238-5.801,0.469-8.703,0.699C58.177-15.275,64.137-13.474,68.786-14.181z"/>
		<path fill="#BABABA" d="M206.723,300.632c0.023-0.996,0.027-1.992,0.008-2.987c0.816-0.992,1.871-1.509,3.156-1.543
			c2.629,0.582,3.965,2.75,5.586,4.565c-0.059,2.228,0.781,5.473-1.938,5.938C209.583,307.275,208.501,303.249,206.723,300.632z"/>
		<path fill="#A2A2A2" d="M242.645,123.577c-0.979,0.008-2.008,0.188-2.944-0.012c-2.134-0.441-6.027,0.664-5.229-3.086
			c0.581-2.719,3.87-2.387,6.288-1.281c0.875,0.402,1.599,1.133,2.392,1.719C243.012,121.803,242.844,122.69,242.645,123.577z"/>
		<path fill="#E3E3E3" d="M203.872,252.628c1.043-1.023,2.082-2.047,3.129-3.07c0.891,2.047,1.777,4.094,2.676,6.141
			c-1.566,1.387-1.402,3.258-1.438,5.082c-0.336,2.297,0.902,4.996-1.727,6.695c-0.945-1.969-1.891-3.941-2.828-5.914
			C201.731,258.538,201.442,255.557,203.872,252.628z"/>
		<path fill="#A2A2A2" d="M101.68-53.333c5.117,1.008,5.984,4.801,5.969,9.156c-4.176-1.746-6.449-5.156-8.035-9.176
			C100.313-54.525,101.005-54.466,101.68-53.333z"/>
		<path fill="#939393" d="M-57.531,96.624c3.754-3.059,0.129-10.383,6.801-11.754c-0.469,4.113-0.242,8.402-3.016,11.926
			c-1.234,1.992-2.344,1.926-3.328-0.203L-57.531,96.624z"/>
		<path fill="#A0A0A0" d="M-66.222-35.505c0.043-0.789,0.082-1.574,0.105-2.359c2.945-2.336,5.887-4.676,8.832-7.016
			C-57.195-38.833-59.745-35.298-66.222-35.505z"/>
		<path fill="#B6B6B6" d="M161.618,189.706c-1.063,2.145-2.121,4.289-3.184,6.43c-1.68-2.402-2.641-5.059-2.566-7.992
			c0.188-7.391,3.379-3.172,5.895-1.492l-0.066-0.082C161.673,187.612,161.641,188.659,161.618,189.706z"/>
		<path fill="#CFCFCF" d="M173.552,180.639c1.074,0.016,2.152,0.031,3.23,0.043c0.977,1.961,1.953,3.926,2.93,5.891
			c-1.777,2.004-4.152,2.695-6.688,3.031c-0.859-0.863-1.719-1.73-2.578-2.59c0.078-1.199,0.117-2.402,0.121-3.602
			C171.563,182.483,172.555,181.565,173.552,180.639z"/>
		<path fill="#AEAEAE" d="M125.747,45.577c-0.41,5.996,1.359,12.32-2.727,17.746c-0.199-4.801-0.395-9.594-0.586-14.395
			c1.121-1.102,2.25-2.195,3.371-3.297L125.747,45.577z"/>
		<path fill="#AEAEAE" d="M-9.515-119.064c-0.797-0.063-1.594-0.094-2.395-0.102c-0.184-1.988-0.367-3.973-0.551-5.965
			c0.25-2.387,0.5-4.781,1.125-10.766C-8.671-128.107-9.456-123.54-9.515-119.064z"/>
		<path fill="#A7A7A7" d="M-123.058,321.706c0.836-0.013,1.676,0.016,2.516,0.063c-0.355,5.901,2.348,12.241-2.512,17.5
			c-0.098-1.97-0.199-3.931-0.297-5.898C-125.636,329.421-127.116,325.491-123.058,321.706z"/>
		<path fill="#AFAFAF" d="M-120.542,282.479l-1.254,0.035l-1.254-0.008c0.352-4.594-1.531-9.422,1.461-13.727
			c0.012-0.016,0.684,0.422,1.051,0.652c-1.719,1.023,2.664,1.285,0.664,1.27C-120.101,274.632-120.32,278.561-120.542,282.479z"/>
		<path fill="#C9C9C9" d="M215.477,300.667c-1.914-1.004-3.824-2.013-5.734-3.021c-2.047-1.78-1.488-3.891-0.77-6.022
			c1.266-1.008,2.547-1.065,3.824-0.031C215.184,294.178,215.727,297.307,215.477,300.667z"/>
		<path fill="#A1A1A1" d="M83.903-59.349c0.727,0.047,1.453,0.086,2.18,0.117c2.125,2.5,3.625,5.305,4.113,8.586
			C81.934-49.087,84.759-55.552,83.903-59.349z"/>
		<path fill="#9A9A9A" d="M197.36,309.693c3.691,3.109,4.289,7.711,5.719,11.91c-0.375,0.691-0.75,1.375-1.125,2.063
			c-0.324-0.711-0.648-1.418-0.977-2.133c-3.414-3.259-4.023-7.849-5.617-11.962C196.024,309.607,196.692,309.65,197.36,309.693z"/>
		<path fill="#B6B6B6" d="M-18.292-65.247c0.043,2.219,0.082,4.441,0.129,6.664c-0.793,0.777-1.582,1.559-2.371,2.344
			c-1.297,1.27-2.559,1.23-3.77-0.129l0.027,0.074C-23.781-60.279-21.921-63.353-18.292-65.247z"/>
		<path fill="#D0D0D0" d="M-138.132,186.729c3.672,4.914,3.703,9.828,0.016,14.75C-138.124,196.561-138.128,191.643-138.132,186.729
			z"/>
		<path fill="#ACACAC" d="M113.755-65.302c1.086-1.109,2.172-2.223,3.254-3.332c3.914,0.691,7.105,2.43,8.902,6.176
			c-4.07-0.965-8.145-1.93-12.215-2.898L113.755-65.302z"/>
		<path fill="#979797" d="M165.559,243.585c-1.047-3.996-2.094-7.996-3.141-11.996c0.352-0.668,0.703-1.34,1.055-2.012
			c0.344,0.676,0.691,1.348,1.035,2.023c2.375,3.668,3.563,7.637,3.059,12.035C166.895,243.62,166.227,243.604,165.559,243.585z"/>
		<path fill="#9E9E9E" d="M-27.632-41.802c-4.332-5.555-0.785-8.684,3.57-11.555C-25.249-49.505-26.441-45.654-27.632-41.802z"/>
		<path fill="#BEBEBE" d="M-6.222-68.325c0-1.098,0.004-2.199,0.004-3.301c3.102-2.906,6.098-2.477,9.016,0.281l0.063-0.082
			c-0.949,0.832-1.805,1.75-2.574,2.75c-1.258,0.133-2.516,0.262-3.773,0.395l-1.371,0.004L-6.222-68.325z"/>
		<path fill="#ADADAD" d="M176.501,270.647c-3.172-2.203-3.914-5.785-5.133-9.082c0.391-0.68,0.781-1.363,1.176-2.043
			c0.328,0.719,0.652,1.43,0.977,2.141c3.223,2.211,4.414,5.652,5.543,9.137C178.071,272.96,177.216,272.913,176.501,270.647z"/>
		<path fill="#A7A7A7" d="M125.376,72.909c1.902-1.176,3.902-1.293,4.582,1.078c0.91,3.148-1.582,3.98-4.031,4.539
			C125.743,76.651,125.559,74.776,125.376,72.909z"/>
		<path fill="#B1B1B1" d="M212.798,291.593c-0.949-0.03-1.91-0.073-2.863-0.104c-2.668-4.953-2.512-9.918-0.105-14.91
			c0.859,0.047,1.715,0.102,2.566,0.176C212.524,281.698,212.661,286.647,212.798,291.593z"/>
		<path fill="#9F9F9F" d="M182.329,279.686c3.211,2.172,4.266,5.691,5.617,9.023c-0.574-0.066-1.148-0.125-1.723-0.199
			c-3.32-2.102-4.469-5.594-5.754-9.008C181.091,279.565,181.708,279.624,182.329,279.686z"/>
		<path fill="#BDBDBD" d="M191.864,297.596c3.16,2.289,4.27,5.789,5.477,9.234c-1.02,1.188-1.922,1.059-2.738-0.223
			c-3.059-2.359-4.117-5.883-5.402-9.277C190.278,295.486,191.169,295.577,191.864,297.596z"/>
		<path fill="#A9A9A9" d="M236.919,27.553c-5.578-0.5-8.405-3.75-9.125-9.113C231.548,20.764,234.747,23.643,236.919,27.553z"/>
		<path fill="#B0B0B0" d="M203.899,228.608c-0.977-0.043-1.945-0.137-2.918-0.289c-0.055-4.914-0.109-9.828-0.172-14.746
			l-0.129,0.125c1.152-2.156,2.082-2.066,2.801,0.27C203.622,218.85,203.762,223.733,203.899,228.608z"/>
		<path fill="#939393" d="M-116.656,48.8c0.754-0.02,1.512-0.023,2.266-0.016c-0.805,2.988,2.406,7.383-3.066,8.729
			C-117.195,54.608-116.925,51.702-116.656,48.8z"/>
		<path fill="#9D9D9D" d="M155.829,129.514c-3.387-2.039-5.793-4.738-6.086-8.895l-0.012,0.012c6.254-1.559,7.871,1.707,7.41,7.129
			C156.704,128.346,156.262,128.928,155.829,129.514z"/>
		<path fill="#C6C6C6" d="M-69.429,162.534c-1.352,3.383-2.602,6.816-5.582,9.207l-0.359-0.254c-3.426-3.914-2.66-7.207,1.48-10
			C-72.226,161.073-70.738,161.421-69.429,162.534z"/>
		<path fill="#AFAFAF" d="M68.661-68.407c1.078-1.082,2.152-2.16,3.238-3.238c2.273,0.563,4.555,1.109,6.035,3.172
			C74.844-68.29,71.762-66.353,68.661-68.407z"/>
		<path fill="#B4B4B4" d="M170.571,183.409c0.234,0.828,0.57,1.645,0.648,2.488c0.031,0.344-0.496,0.742-0.77,1.113
			c-2.914-0.148-5.836-0.293-8.75-0.441l0.066,0.082C164.036,183.753,167.391,183.827,170.571,183.409z"/>
		<path fill="#B4B4B4" d="M197.469,237.784c1.027-1.051,2.051-2.105,3.07-3.16c2.602,4,2.48,8.008,0.063,12.035
			c-0.773-0.059-1.559-0.117-2.34-0.172C198.001,243.585,197.735,240.686,197.469,237.784z"/>
		<path fill="#999999" d="M165.559,243.585c0.668,0.012,1.336,0.031,2.004,0.051c2.82,2.395,3.27,5.559,2.91,8.984
			c-0.777,1.363-1.465,1.32-2.07-0.129C167.454,249.522,166.512,246.557,165.559,243.585z"/>
		<path fill="#A7A7A7" d="M168.403,252.491c0.691,0.027,1.379,0.078,2.07,0.129c2.754,2.426,3.305,5.598,3.047,9.043
			c-0.723-0.043-1.434-0.078-2.152-0.098C170.376,258.538,169.387,255.514,168.403,252.491z"/>
		<path fill="#AEAEAE" d="M206.516,267.475c0.121-2.914,0.246-5.832,0.375-8.75c0.832-1.262,1.66-1.254,2.48,0.016
			c0.156,3.953,0.309,7.914,0.465,11.871C208.723,269.573,207.618,268.522,206.516,267.475z"/>
		<path fill="#B0B0B0" d="M203.872,252.628c-0.066,2.98-0.121,5.957-0.188,8.934l-1.41,0.02c0,0-1.398-0.047-1.395-0.047
			c-0.047-2.977-0.098-5.949-0.148-8.926C201.782,252.612,202.833,252.62,203.872,252.628z"/>
		<path fill="#A1A1A1" d="M173.86,210.534c2.414-2.625,5.648-2.766,8.879-2.91c-0.063,0.84-0.113,1.676-0.156,2.516
			C179.677,210.268,176.766,210.405,173.86,210.534z"/>
		<path fill="#B0B0B0" d="M-132.355,144.456l-1.383,0.07l-1.383-0.027c-1.313-1.91-2.625-3.824-3.938-5.738
			C-135.511,139.112-133.152,140.87-132.355,144.456z"/>
		<path fill="#B0B0B0" d="M197.727,231.612c-0.938-0.012-1.867-0.066-2.801-0.156c-0.191-1.922-0.383-3.844-0.578-5.766
			C199.282,225.491,196.923,229.456,197.727,231.612z"/>
		<path fill="#BABABA" d="M176.868,162.526c-0.906,0.074-1.809,0.098-2.719,0.094c-2.031-1.449-3.125-3.469-3.566-5.891l0.246-0.23
			C175.626,155.721,177.739,157.628,176.868,162.526z"/>
		<path fill="#B4B4B4" d="M-126.093,231.624c-0.988-0.004-1.977-0.031-2.961-0.086c-0.023-2.961-0.047-5.93-0.07-8.898
			c1.125,2.082,2.25,4.156,3.375,6.234c0.848,0.73,1.082,1.379,0.695,1.949C-125.409,231.354-125.757,231.624-126.093,231.624z"/>
		<path fill="#B9B9B9" d="M-93.499,213.151c-2.598-4.137,0.473-4.777,3.398-5.504C-91.238,209.479-92.37,211.315-93.499,213.151z"/>
		<path fill="#919191" d="M191.864,297.596c-0.887-0.113-1.773-0.199-2.66-0.266c-0.848-1.906-1.691-3.813-2.535-5.719
			c0.555,0.035,1.105,0.074,1.664,0.108C190.489,293.089,191.532,295.128,191.864,297.596z"/>
		<path fill="#A5A5A5" d="M206.692-17.138c0.012,0.898,0.035,1.789,0.063,2.684c-2.73-1.309-4.695-3.375-5.996-6.094
			C203.266-20.341,205.302-19.306,206.692-17.138z"/>
		<path fill="#949494" d="M176.501,270.647c0.852,0.078,1.707,0.125,2.563,0.152c0.922,1.941,1.852,3.879,2.777,5.824
			c-0.563-0.047-1.117-0.086-1.68-0.129C177.977,275.147,176.903,273.108,176.501,270.647z"/>
		<path fill="#A0A0A0" d="M-48.281-50.56c-0.852,3.117-1.656,6.32-5.91,3.238C-52.218-48.396-50.249-49.478-48.281-50.56z"/>
		<path fill="#DCDCDC" d="M74.501-83.064c0.176,1.816,0.348,3.633,0.523,5.453c-1.184,0-2.371,0-3.555,0
			C71.782-79.818,72.403-81.849,74.501-83.064z"/>
		<path fill="#939393" d="M164.509,231.6c-0.699-0.008-1.398-0.012-2.086-0.012c-0.188-1.98-0.379-3.957-0.566-5.938
			c0.824,0.02,1.648,0.047,2.473,0.09C164.384,227.694,164.446,229.647,164.509,231.6z"/>
		<path fill="#919191" d="M-57.073,96.593c1.109,0.07,2.219,0.137,3.328,0.203c-0.203,1.906-0.41,3.805-0.617,5.711
			C-56.128,100.928-56.96,98.925-57.073,96.593z"/>
		<path fill="#A5A5A5" d="M137.567,105.589c1.832,1.68,2.82,3.781,3.125,6.227C138.524,110.311,137.727,108.108,137.567,105.589z"/>
		<path fill="#A6A6A6" d="M-90.234,207.784c0.047-2.023,0.094-4.047,0.141-6.074c0.973-0.133,1.949-0.141,2.922-0.02l-0.137-0.129
			C-87.37,204.065-87.976,206.311-90.234,207.784z"/>
		<path fill="#989898" d="M200.973,321.529c0.703,0.035,1.402,0.06,2.102,0.074c0.176,1.984,0.355,3.969,0.531,5.949
			c-0.77-0.039-1.551-0.074-2.324-0.105C201.184,325.475,201.079,323.499,200.973,321.529z"/>
		<path fill="#AFAFAF" d="M-69.429,162.534c-0.922,0.055-1.848,0.082-2.773,0.086c-1.891-2.043-1.57-4.012,0.207-5.93
			c0.906-0.035,1.813-0.051,2.723-0.051C-69.323,158.6-69.382,160.573-69.429,162.534z"/>
		<path fill="#C7C7C7" d="M-132.3,159.604c2.055,1.867,2.348,3.797,0.215,5.82C-132.152,163.487-132.23,161.546-132.3,159.604z"/>
		<path fill="#9F9F9F" d="M-123.277,84.471c-0.34,2.418-1.223,4.559-3.105,6.199C-126.206,88.175-125.425,85.979-123.277,84.471z"/>
		<path fill="#A1A1A1" d="M249.458,45.671c-2.176-1.508-3.293-3.648-3.681-6.219C248.109,40.874,248.73,43.303,249.458,45.671z"/>
		<path fill="#909090" d="M92.501-77.052c-2.223,2.176-4.09,1.484-5.77-0.711C88.649-77.525,90.575-77.29,92.501-77.052z"/>
		<path fill="#BFBFBF" d="M-126.452,261.721l-1.23-0.027l-1.227,0.027c-0.016-2.023-0.027-4.043-0.043-6.063
			c0.926-0.023,1.855-0.035,2.789-0.039C-126.257,257.651-126.359,259.686-126.452,261.721z"/>
		<path fill="#9F9F9F" d="M-126.277,90.46c-0.293,2.445-1.258,4.555-3.113,6.219C-129.245,94.159-128.597,91.893-126.277,90.46z"/>
		<path fill="#E8E8E8" d="M203.485,213.971c-0.926-0.129-1.867-0.219-2.801-0.27c0.965-2.082,1.934-4.172,2.906-6.25
			C203.552,209.624,203.524,211.8,203.485,213.971z"/>
		<path fill="#A3A3A3" d="M107.587-44.376c1.875,1.652,2.785,3.781,3.109,6.207C108.512-39.661,107.692-41.837,107.587-44.376z"/>
		<path fill="#A5A5A5" d="M158.598,132.608c-0.824-0.063-1.645-0.113-2.465-0.172c-0.246-0.957-0.352-1.93-0.313-2.922
			c0.008,0-0.184,0.156-0.184,0.156C158.469,128.792,159.372,129.854,158.598,132.608z"/>
		<path fill="#A2A2A2" d="M101.68-53.333c-0.691-0.012-1.379-0.016-2.066-0.02c-0.352-1.008-0.707-2.016-1.063-3.027
			C99.591-55.365,100.634-54.349,101.68-53.333z"/>
		<path fill="#B4B4B4" d="M-84.167,198.686c1.012-0.996,2.027-1.996,3.039-2.996l-0.164-0.145c-1.004,1.008-2.008,2.008-3.008,3.016
			L-84.167,198.686z"/>
		<path fill="#A9A9A9" d="M-80.925,192.792c1.066-0.043,2.137-0.09,3.207-0.129c-1.191,0.961-2.383,1.922-3.57,2.883l0.164,0.145
			C-81.214,194.718-81.144,193.749-80.925,192.792z"/>
		<path fill="#A6A6A6" d="M-84.3,198.561c-1,1-2.004,2.004-3.004,3.004l0.137,0.129c1-1.004,2.004-2.004,3.004-3.008L-84.3,198.561z
			"/>
		<path fill="#A4A4A4" d="M170.692-38.072c0.02,0.902,0.035,1.805,0.051,2.707c-0.996-1.059-1.996-2.121-2.992-3.18
			C168.759-38.587,169.739-38.431,170.692-38.072z"/>
		<path fill="#A2A2A2" d="M227.907,18.678c-1.07-1.07-2.146-2.145-3.22-3.215C225.762,16.534,226.841,17.608,227.907,18.678z"/>
		<path fill="#C3C3C3" d="M-93.562-2.7c0.125,1.125,0.25,2.242,0.371,3.363c-0.945,0.004-1.898,0.027-2.848,0.086
			C-95.214-0.404-94.386-1.552-93.562-2.7z"/>
		<path fill="#C3C3C3" d="M209.368,258.745l-1.246-0.031l-1.238,0.016c0.922-1.008,1.855-2.02,2.789-3.027
			C209.571,256.718,209.469,257.733,209.368,258.745z"/>
		<path fill="#C3C3C3" d="M65.696-8.677c1.078-0.82,2.16-1.645,3.238-2.469C67.856-10.322,66.77-9.501,65.696-8.677z"/>
		<path fill="#A5A5A5" d="M140.575,111.596c1.066,1.063,2.133,2.129,3.203,3.195C142.708,113.729,141.641,112.659,140.575,111.596z"
			/>
		<path fill="#909090" d="M180.161,276.495c0.559,0.066,1.117,0.105,1.68,0.129c0.16,1.02,0.324,2.039,0.488,3.063
			c-0.613-0.09-1.234-0.156-1.855-0.184C180.368,278.499,180.266,277.495,180.161,276.495z"/>
		<path fill="#C3C3C3" d="M-120.39,75.405c-0.852,1.098-1.703,2.203-2.555,3.301C-122.093,77.604-121.241,76.503-120.39,75.405z"/>
		<path fill="#909090" d="M188.333,291.725c-0.559-0.059-1.105-0.09-1.664-0.108c-0.145-1.035-0.293-2.07-0.441-3.103
			c0.57,0.105,1.145,0.172,1.723,0.203C188.075,289.718,188.2,290.718,188.333,291.725z"/>
		<path fill="#939393" d="M194.602,306.607c0.914,0.074,1.824,0.148,2.738,0.224c0.191,0.953,0.199,1.914,0.02,2.862
			c-0.672-0.059-1.34-0.098-2.008-0.125C195.102,308.585,194.856,307.593,194.602,306.607z"/>
		<path fill="#989898" d="M-24.3-56.368c1.25,0.039,2.504,0.086,3.762,0.129c-1.199,1.023-2.406,2.047-3.613,3.074
			C-24.206-54.232-24.253-55.302-24.3-56.368z"/>
		<path fill="#A5A5A5" d="M236.719,130.21c1.172-1.203,2.348-2.41,3.52-3.609C239.066,127.8,237.891,129.007,236.719,130.21z"/>
		<path fill="#FDFDFD" d="M158.598,132.608c-0.988-0.98-1.973-1.961-2.961-2.938c-0.527-3.953-2.141-7.199-5.906-9.039
			c0.074-9.934,0.145-19.875,0.219-29.809c2.898-3.809,2.816-8.18,2.398-12.617c-0.699-11.934-6.75-24.391,3.387-35.285
			l-0.145-0.328c1.086,1.043,2.211,2.047,3.191,3.195l-0.18-0.176c1.133,0.984,2.191,2.039,3.176,3.176l-0.184-0.184
			c1.137,0.996,2.203,2.059,3.195,3.199l-0.234-0.098c5.914,6.141,15.738,8.156,18.539,17.582c2.793,5.176,5.586,10.348,8.383,15.52
			c0.844,0.508,1.184,1.086,1.004,1.73c-0.184,0.676-0.398,1.016-0.641,1.016c0.078,2.363,0.93,4.383,2.613,6.051
			c2.082,1.723,1.965,3.656,0.543,5.715c0.004,1.215,0.008,2.434,0.012,3.648c2.352,5.727,1.762,11.879,2.594,17.824l-0.047-0.086
			c3.414,2.125,6.613,4.324,3.246,8.918c-1.801,1.465-2.773,3.375-3.063,5.66c-2.781,3.729,0.023,10.242-6.121,12.293l0.121-0.07
			c-6.348,2.902-7.668,10.008-12.125,14.488c-0.906,0.23-1.82,0.41-2.746,0.535c-2.012-2.004-4.027-4.016-6.039-6.023
			C168.559,147.612,164.68,139.546,158.598,132.608z"/>
		<path fill="#A2A2A2" d="M155.731,42.921c-6.09,11.281-1.359,23.605-3.387,35.285c-11.234-5.98-6.148-18.246-5.07-24.668
			c1.582-9.332,1.113-16.133-3.609-23.578c-1.297-2.047-2.473-5.039,0.25-6.59c3.086-1.754,3.664,1.074,4.965,3.414
			C151.755,31.956,154.809,36.952,155.731,42.921z"/>
		<path fill="#969696" d="M224.716,72.6c-7.281,0.977-11.82,11.469-20.949,6.039c-1.938,1.758-3.871,1.84-5.781-0.059
			c-0.988-1.059-1.984-2.117-2.977-3.176c0.922-0.945,1.832-1.918,2.727-2.898l-0.109,0.133c1.086-0.996,2.207-1.961,3.129-3.121
			l-0.141,0.043c0.934-1.219,1.883-1.168,2.84-0.027c1.605,5.723,5.23,4.863,9.238,2.852c3.945-1.984,7.234-5.383,11.989-5.668
			C226.512,68.671,226.509,70.628,224.716,72.6z"/>
		<path fill="#A5A5A5" d="M183.091,69.284c-5.504-6.578-14.875-9.066-18.539-17.582c7.461,0.086,11.484,7.402,19.598,8.16
			C191.368,60.538,184.649,66.026,183.091,69.284z"/>
		<path fill="#A5A5A5" d="M233.684,132.546c-8.065-0.598-16.531,2.145-24.063-2.887c6.109,0.695,9.746-4.875,15.141-5.992
			l-0.066-0.031C225.454,128.866,230.766,129.499,233.684,132.546z"/>
		<path fill="#9C9C9C" d="M224.594,60.487c-7.988-1.547-12.094,9.918-20.734,6.18l-0.156-0.145
			c2.504-4.957,7.629-6.422,11.941-8.957C219.438,56.073,223.622,53.366,224.594,60.487z"/>
		<path fill="#A7A7A7" d="M224.716,72.6c-0.016-1.961-0.03-3.918-0.043-5.879c4.699,0.941,9.513,1.652,13.315,5.824
			C232.82,76.741,228.837,72.432,224.716,72.6z"/>
		<path fill="#A7A7A7" d="M224.594,60.487c-2.516-2.391-5.668-2.848-8.945-2.922c7.21-7.898,11.25-1.391,16.585,2.676
			C228.891,63.159,226.794,61.147,224.594,60.487z"/>
		<path fill="#999999" d="M197.598,120.784c-4.84-5.363-2.395-11.785-2.594-17.824C199.169,108.421,200.93,114.233,197.598,120.784z
			"/>
		<path fill="#A2A2A2" d="M200.798,129.616c-1.082-2.973-2.164-5.945-3.246-8.918c5.805,0.688,9.602,4.07,12.219,9.063
			C206.778,129.71,203.786,129.663,200.798,129.616z"/>
		<path fill="#949494" d="M197.985,78.585c1.93,0.023,3.859,0.039,5.781,0.059c-2.848,4.48-6.098,8.422-11.93,8.91
			c-0.152-0.91-0.273-1.824-0.363-2.746C193.641,82.733,195.813,80.655,197.985,78.585z"/>
		<path fill="#ADADAD" d="M157.208-32.88c1.309-0.109,2.469,0.699,2.781,2.188c0.352,1.641-0.582,2.816-2.285,2.676
			c-0.789-0.063-1.82-0.832-2.188-1.559C154.809-30.978,155.196-32.279,157.208-32.88z"/>
		<path fill="#A9A9A9" d="M199.528,29.284c-0.613,0.68-1.234,1.883-1.754,1.84c-1.742-0.133-2.242-1.547-1.621-2.969
			c0.254-0.586,1.723-1.234,2.207-0.992C199.001,27.483,199.212,28.651,199.528,29.284z"/>
		<path fill="#ACACAC" d="M240.337,51.499c-0.539,0.652-0.983,1.738-1.629,1.863c-1.565,0.32-2.801-0.496-2.461-2.234
			c0.112-0.566,1.444-1.289,2.172-1.234C239.091,49.944,239.7,50.925,240.337,51.499z"/>
		<path fill="#A9A9A9" d="M223.216,34.932c-1.188-0.348-2.25-1.367-1.987-2.953c0.262-1.652,1.647-2.281,3.137-1.629
			c0.746,0.328,1.563,1.313,1.672,2.094C226.262,34.085,225.43,35.175,223.216,34.932z"/>
		<path fill="#AAAAAA" d="M190.118-13.173c-0.445,1.516-1.457,2.574-3.035,2.32c-1.645-0.262-2.27-1.641-1.617-3.125
			c0.324-0.742,1.297-1.539,2.082-1.664C189.212-15.904,190.177-14.947,190.118-13.173z"/>
		<path fill="#ABABAB" d="M211.094,117.01c-0.406,1.664-1.586,2.293-3.074,1.75c-1.426-0.527-2.262-1.84-1.598-3.336
			c0.289-0.656,1.484-1.371,2.191-1.305C210.134,114.268,211.04,115.385,211.094,117.01z"/>
		<path fill="#AEAEAE" d="M234.223,109.776c0.133,1.625-0.672,2.785-2.156,3.098c-1.633,0.348-2.801-0.582-2.664-2.281
			c0.066-0.785,0.828-1.805,1.552-2.184C232.38,107.663,233.602,108.198,234.223,109.776z"/>
		<path fill="#ADADAD" d="M208.036,104.499c-0.641-0.57-1.82-1.148-1.813-1.711c0.023-1.746,1.395-2.313,2.848-1.766
			c0.598,0.227,1.324,1.602,1.125,2.098C209.934,103.764,208.798,104.061,208.036,104.499z"/>
		<path fill="#ADADAD" d="M163.93-8.865c1.434,0.59,2.391,1.656,2,3.195c-0.414,1.652-1.863,2.039-3.25,1.301
			c-0.719-0.379-1.484-1.43-1.5-2.188C161.141-8.185,162.239-9.013,163.93-8.865z"/>
		<path fill="#A8A8A8" d="M220.387,106.573c0.727,0.504,1.449,1.008,2.172,1.512c-0.522,0.645-1.063,1.82-1.574,1.809
			c-0.733-0.023-1.44-0.906-2.168-1.418C219.348,107.839,219.868,107.206,220.387,106.573z"/>
		<path fill="#A9A9A9" d="M169.751,44.3c-0.332,1.137-1.211,1.754-2.141,1.117c-0.641-0.438-1.129-1.586-1.105-2.402
			c0.027-1.113,1.148-1.75,2.082-1.148C169.231,42.28,169.384,43.46,169.751,44.3z"/>
		<path fill="#A7A7A7" d="M209.591,33.565c-0.637-0.531-1.793-1.066-1.781-1.582c0.012-0.734,0.883-1.453,1.383-2.184
			c0.648,0.531,1.824,1.066,1.816,1.586C210.997,32.116,210.106,32.835,209.591,33.565z"/>
		<path fill="#A8A8A8" d="M137.821-6.232c0.41,0.734,1.258,1.602,1.09,2.172c-0.199,0.668-1.273,1.484-1.98,1.5
			c-1.078,0.02-1.648-1.09-1.102-2.109C136.192-5.349,137.134-5.724,137.821-6.232z"/>
		<path fill="#ABABAB" d="M174.727,37.339c-1.559-0.668-2.254-1.883-1.438-3.352c0.344-0.617,1.688-1.164,2.395-0.992
			c1.602,0.395,2.277,1.789,1.453,3.262C176.794,36.874,175.555,36.995,174.727,37.339z"/>
		<path fill="#ABABAB" d="M183.524,11.397c-0.496,1.609-1.629,2.418-3.164,1.766c-0.66-0.273-1.391-1.523-1.293-2.219
			c0.223-1.629,1.539-2.434,3.078-1.781C182.802,9.444,183.075,10.628,183.524,11.397z"/>
		<path fill="#ACACAC" d="M129.778,7.343c-1.566-0.668-2.266-1.883-1.43-3.359c0.348-0.621,1.695-1.164,2.402-0.992
			c1.617,0.395,2.305,1.789,1.465,3.27C131.864,6.889,130.614,7.003,129.778,7.343z"/>
		<path fill="#A8A8A8" d="M198.259-10.333c0.824,0.328,1.648,0.652,2.469,0.977c-0.492,0.746-0.852,1.887-1.52,2.113
			c-0.633,0.211-1.59-0.539-2.41-0.871C197.286-8.853,197.77-9.587,198.259-10.333z"/>
		<path fill="#AAAAAA" d="M225.759,44.885c0.82,0.352,2.056,0.48,2.396,1.105c0.809,1.484,0.129,2.875-1.484,3.258
			c-0.711,0.168-2.055-0.398-2.387-1.016C223.488,46.757,224.191,45.534,225.759,44.885z"/>
		<path fill="#ABABAB" d="M192.497,0.471c-0.523,0.453-1.238,1.512-1.758,1.426c-0.715-0.117-1.285-1.113-1.918-1.738
			c0.629-0.539,1.383-1.613,1.867-1.504C191.387-1.185,191.899-0.173,192.497,0.471z"/>
		<path fill="#A9A9A9" d="M186.887,36.823c-0.277,0.313-0.555,0.898-0.832,0.895c-1.254-0.012-1.648-0.707-0.988-1.727
			c0.172-0.266,0.902-0.438,1.207-0.297C186.587,35.839,186.696,36.428,186.887,36.823z"/>
		<path fill="#A3A3A3" d="M251.734,84.577c-1.229-0.707-2.772-1.156-3.59-2.188c-0.664-0.848,0.56-2.051,1.392-1.375
			c1.022,0.824,1.448,2.383,2.146,3.621L251.734,84.577z"/>
		<path fill="#9D9D9D" d="M201.313,41.608c0.16,0.43,0.508,0.906,0.418,1.281c-0.086,0.332-0.672,0.805-0.988,0.771
			c-1.348-0.152-1.637-0.922-0.723-1.934C200.235,41.491,200.872,41.639,201.313,41.608z"/>
		<path fill="#A7A7A7" d="M216.778,42.3c-0.18,0.402-0.258,0.973-0.57,1.16c-0.289,0.172-1.02,0.098-1.211-0.145
			c-0.801-1.02-0.469-1.742,0.836-1.813C216.134,41.491,216.462,42.022,216.778,42.3z"/>
		<path fill="#A0A0A0" d="M141.305,44.589c0.16,0.422,0.504,0.895,0.418,1.258c-0.082,0.332-0.664,0.805-0.973,0.771
			c-1.332-0.152-1.617-0.918-0.719-1.918C140.239,44.468,140.872,44.616,141.305,44.589z"/>
		<path fill="#A3A3A3" d="M179.637,49.768c-0.32-0.285-0.914-0.57-0.914-0.852c0.012-1.281,0.719-1.684,1.762-1.008
			c0.277,0.176,0.449,0.918,0.301,1.234C180.641,49.46,180.04,49.569,179.637,49.768z"/>
		<path fill="#A9A9A9" d="M192.973,52.432c-0.488-0.605-0.969-1.211-1.449-1.82c0.656-0.414,1.359-1.195,1.953-1.125
			c0.547,0.07,0.973,1.074,1.453,1.66C194.278,51.581,193.626,52.003,192.973,52.432z"/>
		<path fill="#A7A7A7" d="M206.669,52.78c-0.316-0.281-0.906-0.563-0.906-0.84c0.008-1.266,0.707-1.664,1.742-0.996
			c0.27,0.18,0.441,0.91,0.297,1.219C207.661,52.479,207.063,52.585,206.669,52.78z"/>
		<path fill="#9F9F9F" d="M132.747,55.21c-0.43,0.16-0.902,0.508-1.27,0.418c-0.332-0.086-0.801-0.668-0.766-0.984
			c0.152-1.336,0.914-1.625,1.922-0.715C132.868,54.139,132.719,54.772,132.747,55.21z"/>
		<path fill="#A7A7A7" d="M138.43,64.573c-0.418,0.023-1.047,0.242-1.234,0.047c-0.867-0.91-0.652-1.684,0.527-1.934
			c0.316-0.066,0.953,0.328,1.07,0.645C138.911,63.655,138.571,64.151,138.43,64.573z"/>
		<path fill="#ABABAB" d="M245.923,62.628c-0.479,0.621-0.897,1.652-1.457,1.734c-0.582,0.086-1.293-0.742-1.952-1.172
			c0.469-0.598,0.895-1.613,1.434-1.688C244.544,61.421,245.259,62.21,245.923,62.628z"/>
		<path fill="#A4A4A4" d="M141.489,79.585c-0.422,0.027-1.063,0.25-1.25,0.055c-0.875-0.914-0.656-1.707,0.539-1.965
			c0.32-0.066,0.969,0.332,1.086,0.648C141.981,78.655,141.634,79.155,141.489,79.585z"/>
		<path fill="#A5A5A5" d="M228.802,85.175c-0.413,0.152-0.883,0.488-1.241,0.402c-0.324-0.086-0.789-0.648-0.754-0.953
			c0.141-1.305,0.895-1.586,1.879-0.699C228.907,84.128,228.77,84.749,228.802,85.175z"/>
		<path fill="#ABABAB" d="M240.466,89.667c-0.68,0.395-1.354,0.781-2.03,1.168c-0.297-0.75-0.938-1.582-0.781-2.215
			c0.125-0.508,1.219-0.785,1.883-1.16C239.844,88.194,240.152,88.928,240.466,89.667z"/>
		<path fill="#A4A4A4" d="M204.813,90.327c-0.18,0.41-0.254,0.98-0.574,1.168c-0.285,0.172-1.027,0.094-1.219-0.148
			c-0.816-1.035-0.48-1.758,0.84-1.824C204.169,89.507,204.501,90.046,204.813,90.327z"/>
		<path fill="#A4A4A4" d="M219.238,92.655c0.152,0.418,0.492,0.883,0.406,1.25c-0.078,0.32-0.647,0.777-0.953,0.746
			c-1.309-0.148-1.589-0.898-0.711-1.883C218.188,92.534,218.809,92.682,219.238,92.655z"/>
		<path fill="#A9A9A9" d="M231.527,98.425c-0.602,0.488-1.211,0.977-1.813,1.461c-0.414-0.656-1.195-1.367-1.125-1.965
			c0.066-0.555,1.066-0.984,1.656-1.469C230.677,97.108,231.098,97.764,231.527,98.425z"/>
		<path fill="#A2A2A2" d="M113.7-65.357c-0.68,1.234-1.109,2.785-2.125,3.605c-0.832,0.668-2.051-0.539-1.391-1.379
			c0.805-1.023,2.348-1.469,3.574-2.168L113.7-65.357z"/>
		<path fill="#ABABAB" d="M115.415-47.548c1.137-0.215,1.895,0.25,2.086,1.438c0.066,0.43-0.078,1.047-0.363,1.348
			c-0.828,0.875-1.961,0.863-2.363-0.207C114.52-45.654,115.173-46.677,115.415-47.548z"/>
		<path fill="#A0A0A0" d="M129.309-45.365c0.156,0.426,0.5,0.895,0.414,1.262c-0.086,0.332-0.664,0.797-0.973,0.762
			c-1.332-0.152-1.617-0.91-0.715-1.91C128.243-45.486,128.876-45.337,129.309-45.365z"/>
		<path fill="#A7A7A7" d="M147.239-36.357c0.152,0.418,0.488,0.871,0.402,1.23c-0.078,0.324-0.641,0.781-0.945,0.746
			c-1.293-0.148-1.578-0.887-0.699-1.863C146.2-36.474,146.813-36.329,147.239-36.357z"/>
		<path fill="#A7A7A7" d="M132.731-31.767c-0.418,0.152-0.871,0.488-1.227,0.402c-0.316-0.074-0.773-0.648-0.742-0.949
			c0.152-1.289,0.902-1.566,1.867-0.695C132.86-32.81,132.708-32.193,132.731-31.767z"/>
		<path fill="#A3A3A3" d="M123.829-23.665c-0.184,0.41-0.262,0.984-0.578,1.172c-0.289,0.172-1.031,0.094-1.223-0.152
			c-0.82-1.031-0.48-1.758,0.84-1.824C123.177-24.482,123.509-23.943,123.829-23.665z"/>
		<path fill="#A1A1A1" d="M135.294-18.38c0.156,0.418,0.5,0.891,0.414,1.254c-0.082,0.328-0.656,0.797-0.969,0.762
			c-1.32-0.152-1.609-0.906-0.715-1.902C134.227-18.501,134.864-18.353,135.294-18.38z"/>
		<path fill="#A3A3A3" d="M162.321-18.372c0.152,0.414,0.492,0.879,0.406,1.242c-0.078,0.324-0.652,0.789-0.957,0.754
			c-1.309-0.152-1.586-0.902-0.703-1.887C161.266-18.497,161.891-18.349,162.321-18.372z"/>
		<path fill="#9C9C9C" d="M177.766-16.775c-0.43,0.16-0.91,0.508-1.285,0.414c-0.332-0.082-0.805-0.676-0.77-0.992
			c0.148-1.348,0.922-1.641,1.938-0.723C177.884-17.861,177.735-17.22,177.766-16.775z"/>
		<path fill="#9D9D9D" d="M125.805,45.632c0.445-1.68,0.547-3.656,2.906-3.828c0.273-0.02,0.871,0.566,0.852,0.844
			c-0.156,2.363-2.145,2.457-3.813,2.926L125.805,45.632z"/>
		<path fill="#A4A4A4" d="M150.852-8.626c-0.18,0.406-0.258,0.98-0.574,1.168c-0.289,0.176-1.027,0.09-1.219-0.152
			c-0.813-1.031-0.477-1.758,0.84-1.82C150.204-9.443,150.536-8.911,150.852-8.626z"/>
		<path fill="#9C9C9C" d="M177.77-4.775c-0.43,0.16-0.914,0.504-1.289,0.414c-0.332-0.082-0.809-0.672-0.773-0.996
			c0.152-1.352,0.926-1.648,1.941-0.727C177.887-5.865,177.739-5.22,177.77-4.775z"/>
		<path fill="#A7A7A7" d="M155.669,4.776c-0.316-0.281-0.91-0.566-0.91-0.844c0.004-1.266,0.703-1.664,1.738-0.988
			c0.273,0.18,0.445,0.906,0.305,1.219C156.661,4.479,156.059,4.581,155.669,4.776z"/>
		<path fill="#A9A9A9" d="M209.727,3.632c-0.965,1.602-1.762,3.586-4.145,3c-0.453-0.109-1.066-1.762-0.793-2.262
			c1.234-2.27,3.176-1.238,4.953-0.719L209.727,3.632z"/>
		<path fill="#9C9C9C" d="M143.434,5.518c0.418,0.188,1.016,0.27,1.211,0.594c0.184,0.301,0.098,1.066-0.156,1.266
			c-1.066,0.848-1.82,0.5-1.891-0.867C142.583,6.194,143.141,5.85,143.434,5.518z"/>
		<path fill="#9D9D9D" d="M167.427,5.526c0.422,0.184,1.012,0.27,1.207,0.59c0.18,0.301,0.102,1.063-0.152,1.258
			c-1.066,0.848-1.813,0.5-1.883-0.863C166.583,6.198,167.137,5.854,167.427,5.526z"/>
		<path fill="#A4A4A4" d="M135.27,14.675c0.152,0.422,0.492,0.883,0.406,1.246c-0.082,0.324-0.652,0.777-0.961,0.746
			c-1.305-0.148-1.586-0.895-0.695-1.875C134.223,14.561,134.844,14.706,135.27,14.675z"/>
		<path fill="#A4A4A4" d="M195.762,16.186c-0.414,0.152-0.879,0.488-1.238,0.402c-0.324-0.082-0.789-0.652-0.754-0.957
			c0.145-1.309,0.898-1.586,1.875-0.699C195.876,15.143,195.735,15.76,195.762,16.186z"/>
		<path fill="#A7A7A7" d="M161.313,18.436c0.414,0.676,1.211,1.418,1.102,2.004c-0.098,0.563-1.133,0.961-1.75,1.426
			c-0.391-0.684-1.141-1.414-1.055-2.031C159.692,19.3,160.708,18.901,161.313,18.436z"/>
		<path fill="#A3A3A3" d="M207.485,19.581c-0.426,0.027-1.066,0.25-1.254,0.051c-0.879-0.922-0.664-1.715,0.539-1.973
			c0.32-0.066,0.973,0.332,1.09,0.656C207.977,18.647,207.63,19.151,207.485,19.581z"/>
		<path fill="#A7A7A7" d="M174.516,22.663c-0.34,0.727-0.68,1.445-1.027,2.168c-0.641-0.414-1.711-0.738-1.82-1.262
			c-0.137-0.641,0.535-1.449,0.859-2.191C173.192,21.803,173.852,22.233,174.516,22.663z"/>
		<path fill="#A2A2A2" d="M219.516,22.573c-0.434,0.027-1.078,0.254-1.266,0.059c-0.879-0.926-0.66-1.719,0.543-1.98
			c0.324-0.066,0.977,0.332,1.094,0.656C220.009,21.639,219.661,22.139,219.516,22.573z"/>
		<path fill="#A3A3A3" d="M184.762,24.042c0.418-0.152,0.879-0.488,1.246-0.406c0.32,0.082,0.781,0.656,0.746,0.965
			c-0.148,1.313-0.902,1.586-1.887,0.699C184.637,25.096,184.786,24.475,184.762,24.042z"/>
		<path fill="#A5A5A5" d="M128.411,26.589c0.406,0.18,0.98,0.254,1.168,0.566c0.172,0.293,0.09,1.023-0.156,1.219
			c-1.027,0.82-1.75,0.488-1.816-0.828C127.591,27.241,128.13,26.909,128.411,26.589z"/>
		<path fill="#9D9D9D" d="M165.923,30.757c-0.293,0.332-0.582,0.941-0.875,0.941c-1.316-0.004-1.738-0.734-1.039-1.809
			c0.18-0.285,0.941-0.465,1.266-0.313C165.606,29.729,165.716,30.343,165.923,30.757z"/>
		<path fill="#A3A3A3" d="M136.77,33.053c0.418-0.152,0.883-0.492,1.246-0.406c0.324,0.082,0.777,0.656,0.746,0.961
			c-0.148,1.313-0.898,1.59-1.883,0.703C136.645,34.104,136.794,33.483,136.77,33.053z"/>
		<path fill="#A3A3A3" d="M126.255-9.138c-0.184,0.355-0.281,0.918-0.563,1.031c-1.012,0.406-1.547-0.07-1.293-1.164
			c0.059-0.258,0.664-0.543,1.016-0.535C125.7-9.798,125.973-9.376,126.255-9.138z"/>
		<path fill="#ABABAB" d="M224.762,123.667c-0.07-1.359-0.141-2.719-0.211-4.078c3.438,1.227,0.742,2.676,0.145,4.047
			L224.762,123.667z"/>
		<path fill="#A7A7A7" d="M147.219-19.974c-0.285-0.246-0.801-0.473-0.816-0.738c-0.066-1.109,0.516-1.441,1.441-0.82
			c0.254,0.172,0.441,0.77,0.344,1.055C148.098-20.224,147.559-20.138,147.219-19.974z"/>
		<path fill="#929292" d="M194.989,99.311c-0.18-1.906-0.359-3.813-0.539-5.715C196.782,95.296,197.282,97.171,194.989,99.311z"/>
		<path fill="#898989" d="M203.45,69.538c-0.945,0.016-1.895,0.027-2.84,0.027c1.031-1.012,2.066-2.031,3.094-3.047l0.156,0.145
			C203.798,67.635,203.665,68.593,203.45,69.538z"/>
		<path fill="#999999" d="M158.778,45.788c-1.063-1.066-2.129-2.129-3.191-3.195C156.649,43.659,157.716,44.721,158.778,45.788z"/>
		<path fill="#8A8A8A" d="M197.731,72.51c-0.914,0.965-1.82,1.93-2.727,2.898C195.911,74.44,196.821,73.475,197.731,72.51z"/>
		<path fill="#9D9D9D" d="M164.786,51.8c-1.066-1.066-2.125-2.133-3.195-3.199C162.661,49.667,163.719,50.737,164.786,51.8z"/>
		<path fill="#9C9C9C" d="M161.774,48.788c-1.059-1.059-2.113-2.121-3.176-3.176C159.661,46.667,160.716,47.729,161.774,48.788z"/>
		<path fill="#868686" d="M200.751,69.522c-1.043,1.043-2.082,2.082-3.129,3.121C198.669,71.604,199.708,70.569,200.751,69.522z"/>
		<path fill="#FDFDFD" d="M-71.995,156.686c-0.07,1.977-0.137,3.953-0.207,5.93c-2.461,2.453-3.113,5.555-3.168,8.871
			c-7.004,3.633-10.344,11.695-17.828,14.754c-0.027-3.215-0.621-6.238-2.898-8.699c-1.008-0.516-1.383-1.094-1.129-1.738
			c0.27-0.668,0.559-1.004,0.863-1.004c-1.207-2.703-3.086-4.781-5.719-6.16c-1-1.297-1.828-2.699-2.477-4.207
			c-2.129-4.387-4.813-8.652-2.945-13.879c5.125-15.801,21.074-14.742,32.445-20.809l-0.199,0.066
			c0.797-1.098,1.723-1.281,2.801-0.402c3.129-1.949,6.254-3.898,9.383-5.844C-64.015,135.155-70.386,145.276-71.995,156.686z"/>
		<path fill="#DDDDDD" d="M-102.456,150.206c0.016,5.188,0.031,10.371,0.047,15.559c-1.016,1.008-1.973,0.953-2.863-0.168
			l0.082,0.047c-3.02-2.199-6.039-2.199-9.063-0.008l0.047-0.023c-0.844,0.809-1.848,1.203-3.02,1.18
			c-1.711-0.18-3.406,0.227-5.113,0.098c-1.09-0.504-1.844-1.32-2.254-2.449c-0.141-1.77-0.031-3.465,1.363-4.801l0.016-0.023
			c4.281-4.695,3.969-13.059,11.863-14.863c1.965,0.016,3.926,0.031,5.891,0.047C-102.835,145.698-104.378,148.917-102.456,150.206z
			"/>
		<path fill="#A9A9A9" d="M-102.456,150.206c-1-1.801-2-3.605-3-5.41c5.98-11.719,16.262-16.809,30.402-15.051
			c-3.695,6.164-10.414,6.82-16.332,8.77C-97.292,140.468-102.421,142.839-102.456,150.206z"/>
		<path fill="#EAEAEA" d="M-111.347,144.753c-4.258,4.711-4.668,12.496-11.863,14.863c1.023-4.896,2.047-9.785,3.066-14.68
			c1.707-2.172,3.645-1.93,5.691-0.539C-113.417,144.51-112.382,144.632-111.347,144.753z"/>
		<path fill="#A5A5A5" d="M-69.253,24.12c-1.984-0.398-3.5-1.016-3.176-2.625c0.469-2.313,2.5-2.379,4.371-1.965
			c1.504,0.332,2.707,1.531,1.848,2.953C-66.784,23.448-68.472,23.741-69.253,24.12z"/>
		<path fill="#AEAEAE" d="M-99.757,28.44c0.59-1.426,1.656-2.371,3.184-2c1.66,0.402,2.027,1.844,1.297,3.223
			c-0.379,0.711-1.418,1.477-2.176,1.5C-99.07,31.206-99.906,30.128-99.757,28.44z"/>
		<path fill="#ADADAD" d="M-70.351,11.327c-0.57,0.641-1.148,1.816-1.719,1.813c-1.742-0.016-2.309-1.395-1.766-2.848
			c0.223-0.598,1.602-1.324,2.102-1.121C-71.089,9.432-70.796,10.569-70.351,11.327z"/>
		<path fill="#ABABAB" d="M-59.882,58.264c-0.699-0.479-1.832-0.836-2.004-1.465c-0.418-1.512,0.266-2.84,2.027-2.668
			c0.586,0.063,1.461,1.316,1.457,2.02C-58.409,56.858-59.351,57.561-59.882,58.264z"/>
		<path fill="#ABABAB" d="M-95.761,55.436c-0.813,0.344-1.727,1.109-2.418,0.941c-1.609-0.387-2.199-1.695-0.988-3
			c0.457-0.492,1.891-0.605,2.531-0.254C-96.085,53.421-96.034,54.624-95.761,55.436z"/>
		<path fill="#ADADAD" d="M-94.409,122.589c-0.648,0.539-1.375,1.602-1.922,1.52c-1.719-0.266-2.133-1.707-1.43-3.09
			c0.273-0.539,1.762-1.02,2.27-0.742C-94.894,120.608-94.749,121.78-94.409,122.589z"/>
		<path fill="#AAAAAA" d="M-107.761,118.436c-0.816,0.344-1.727,1.098-2.422,0.934c-1.605-0.387-2.199-1.695-0.988-3
			c0.453-0.496,1.887-0.602,2.531-0.25C-108.093,116.421-108.038,117.628-107.761,118.436z"/>
		<path fill="#AEAEAE" d="M-95.448,100.354c-0.84,0.953-2.184,0.938-3.363-0.113c-1.176-1.059-1.383-2.535-0.133-3.605
			c0.543-0.465,1.891-0.543,2.547-0.191C-95.077,97.151-94.296,98.389-95.448,100.354z"/>
		<path fill="#ACACAC" d="M-95.378,111.077c-0.527,0.629-1.074,1.789-1.582,1.777c-0.742-0.023-1.453-0.898-2.176-1.406
			c0.527-0.633,1.07-1.777,1.582-1.766C-96.816,109.702-96.101,110.569-95.378,111.077z"/>
		<path fill="#ADADAD" d="M-106.933,59.846c0.754,0.453,1.93,0.746,2.199,1.402c0.637,1.535-0.172,2.844-1.793,3.051
			c-0.691,0.09-1.918-0.656-2.195-1.316C-109.366,61.44-108.531,60.335-106.933,59.846z"/>
		<path fill="#ABABAB" d="M-106.738,125.788c1.641,0.383,2.535,1.449,2.02,3.035c-0.227,0.699-1.391,1.59-2.07,1.543
			c-1.609-0.105-2.57-1.336-2.031-2.938C-108.589,126.725-107.456,126.323-106.738,125.788z"/>
		<path fill="#ACACAC" d="M-111.21,45.612c2.137-0.711,4.418-2.164,6.297,0.223c1.012,1.285,0.418,2.91-1.098,3.313
			c-2.836,0.758-4-1.535-5.227-3.496L-111.21,45.612z"/>
		<path fill="#ABABAB" d="M-70.745-9.224c1.637,0.387,2.535,1.461,2.023,3.051c-0.227,0.695-1.391,1.594-2.074,1.543
			c-1.617-0.109-2.566-1.348-2.031-2.949C-72.593-8.282-71.464-8.689-70.745-9.224z"/>
		<path fill="#A9A9A9" d="M-128.464,131.37c-0.5,1.602-1.613,2.441-3.164,1.781c-0.66-0.281-1.383-1.531-1.285-2.234
			c0.223-1.621,1.527-2.449,3.082-1.789C-129.179,129.409-128.906,130.6-128.464,131.37z"/>
		<path fill="#ACACAC" d="M-84.679,33.682c0.613,0.641,1.594,1.223,1.703,1.934c0.078,0.52-0.992,1.219-1.555,1.836
			c-0.598-0.633-1.59-1.211-1.68-1.914C-86.277,34.999-85.23,34.311-84.679,33.682z"/>
		<path fill="#ABABAB" d="M-83.48,11.358c-0.5,1.621-1.641,2.43-3.18,1.766c-0.66-0.285-1.387-1.539-1.289-2.238
			c0.234-1.625,1.547-2.445,3.098-1.777C-84.195,9.393-83.925,10.585-83.48,11.358z"/>
		<path fill="#ACACAC" d="M-47.554-10.486c0.223,1.695-0.574,2.84-2.191,2.896c-0.684,0.02-1.813-0.896-2.023-1.598
			c-0.477-1.602,0.461-2.824,2.098-2.852C-48.976-12.06-48.257-11.032-47.554-10.486z"/>
		<path fill="#AAAAAA" d="M-84.308,92.878c-0.531,0.691-0.934,1.645-1.637,1.992c-1.031,0.504-2.098-0.121-2.027-1.207
			c0.043-0.707,0.832-1.617,1.523-1.969C-85.409,91.171-84.597,91.76-84.308,92.878z"/>
		<path fill="#ABABAB" d="M-114.452,144.397c-1.902,0.18-3.797,0.359-5.691,0.539c-1.008-0.121-2.016-0.246-3.023-0.363
			C-120.421,136.878-117.445,140.21-114.452,144.397z"/>
		<path fill="#ABABAB" d="M-116.406,98.112c-0.375,1.637-1.426,2.547-3.02,2.031c-0.695-0.23-1.586-1.398-1.535-2.082
			c0.102-1.605,1.32-2.582,2.926-2.043C-117.331,96.253-116.937,97.393-116.406,98.112z"/>
		<path fill="#A4A4A4" d="M-95.077,39.792c-0.281,0.316-0.566,0.91-0.848,0.906c-1.273-0.008-1.676-0.715-1.004-1.754
			c0.176-0.277,0.914-0.449,1.23-0.301C-95.382,38.788-95.277,39.389-95.077,39.792z"/>
		<path fill="#A4A4A4" d="M-60.585,41.565c0.406,0.18,0.98,0.262,1.172,0.578c0.176,0.289,0.102,1.031-0.145,1.223
			c-1.031,0.816-1.762,0.479-1.832-0.84C-61.402,42.221-60.87,41.885-60.585,41.565z"/>
		<path fill="#A5A5A5" d="M-87.484,47.565c0.402,0.176,0.98,0.25,1.164,0.563c0.172,0.289,0.082,1.02-0.164,1.219
			c-1.035,0.816-1.754,0.488-1.809-0.832C-88.304,48.206-87.769,47.878-87.484,47.565z"/>
		<path fill="#A4A4A4" d="M-71.706,47.651c0.152,0.418,0.492,0.879,0.406,1.238c-0.078,0.32-0.652,0.781-0.957,0.746
			c-1.305-0.148-1.582-0.895-0.699-1.875C-72.749,47.53-72.132,47.678-71.706,47.651z"/>
		<path fill="#A6A6A6" d="M-62.206,69.803c-0.609-0.48-1.641-0.906-1.723-1.461c-0.086-0.582,0.742-1.301,1.172-1.957
			c0.594,0.473,1.605,0.898,1.672,1.438C-61.011,68.428-61.792,69.139-62.206,69.803z"/>
		<path fill="#A0A0A0" d="M-97.281,69.065c0.422-0.156,0.895-0.5,1.262-0.414c0.332,0.086,0.801,0.668,0.77,0.977
			c-0.148,1.332-0.91,1.617-1.914,0.715C-97.398,70.128-97.249,69.499-97.281,69.065z"/>
		<path fill="#A3A3A3" d="M-107.531,76.514c-0.426,0.023-1.063,0.246-1.25,0.047c-0.879-0.926-0.66-1.715,0.539-1.957
			c0.324-0.074,0.969,0.332,1.086,0.656C-107.042,75.585-107.386,76.089-107.531,76.514z"/>
		<path fill="#A5A5A5" d="M-83.273,76.155c-0.418,0.148-0.879,0.484-1.238,0.402c-0.32-0.086-0.777-0.652-0.746-0.957
			c0.145-1.301,0.891-1.582,1.867-0.691C-83.156,75.112-83.3,75.729-83.273,76.155z"/>
		<path fill="#A5A5A5" d="M-72.304,76.753c-0.316-0.281-0.906-0.57-0.906-0.844c0.012-1.271,0.719-1.672,1.754-1.004
			c0.27,0.176,0.438,0.914,0.293,1.227C-71.312,76.448-71.909,76.557-72.304,76.753z"/>
		<path fill="#A0A0A0" d="M-95.136,81.319c-0.184,0.418-0.266,0.996-0.582,1.188c-0.293,0.176-1.043,0.094-1.238-0.156
			c-0.832-1.047-0.492-1.781,0.848-1.848C-95.8,80.487-95.46,81.03-95.136,81.319z"/>
		<path fill="#A5A5A5" d="M-62.445,82.546c-0.43,0.035-1.066,0.254-1.254,0.059c-0.871-0.918-0.656-1.703,0.539-1.957
			c0.324-0.07,0.965,0.328,1.082,0.648C-61.956,81.624-62.3,82.12-62.445,82.546z"/>
		<path fill="#A4A4A4" d="M-104.159,90.358c-0.18,0.41-0.262,0.98-0.578,1.164c-0.289,0.176-1.023,0.094-1.215-0.148
			c-0.809-1.031-0.473-1.754,0.84-1.816C-104.804,89.538-104.476,90.077-104.159,90.358z"/>
		<path fill="#A3A3A3" d="M-71.656,92.604c0.152,0.414,0.488,0.879,0.398,1.238c-0.078,0.328-0.652,0.789-0.961,0.758
			c-1.309-0.148-1.586-0.902-0.699-1.883C-72.714,92.487-72.089,92.628-71.656,92.604z"/>
		<path fill="#A7A7A7" d="M-83.71,101.678c0.152,0.414,0.484,0.867,0.402,1.227c-0.078,0.32-0.645,0.77-0.945,0.738
			c-1.289-0.148-1.563-0.887-0.688-1.855C-84.741,101.565-84.132,101.702-83.71,101.678z"/>
		<path fill="#A9A9A9" d="M-71.136,102.362c-0.18,0.402-0.258,0.961-0.566,1.145c-0.281,0.172-1.008,0.094-1.195-0.148
			c-0.797-1.012-0.465-1.727,0.832-1.781C-71.773,101.561-71.448,102.085-71.136,102.362z"/>
		<path fill="#A4A4A4" d="M-107.683,104.604c0.152,0.414,0.488,0.883,0.402,1.242c-0.082,0.328-0.652,0.789-0.961,0.754
			c-1.309-0.141-1.586-0.895-0.695-1.879C-108.73,104.491-108.113,104.632-107.683,104.604z"/>
		<path fill="#A3A3A3" d="M-119.073,111.749c-0.281,0.324-0.566,0.914-0.848,0.914c-1.277-0.008-1.684-0.719-1.008-1.758
			c0.176-0.273,0.918-0.445,1.23-0.301C-119.378,110.749-119.269,111.343-119.073,111.749z"/>
		<path fill="#A2A2A2" d="M-84.402,118.78c-0.32-0.281-0.914-0.574-0.914-0.852c0.008-1.281,0.719-1.691,1.766-1.016
			c0.277,0.18,0.449,0.922,0.305,1.242C-83.394,118.475-83.995,118.585-84.402,118.78z"/>
		<path fill="#A4A4A4" d="M-71.101,117.315c-0.18,0.41-0.262,0.98-0.57,1.168c-0.293,0.172-1.035,0.094-1.227-0.152
			c-0.82-1.035-0.484-1.758,0.836-1.824C-71.753,116.495-71.421,117.03-71.101,117.315z"/>
		<path fill="#A4A4A4" d="M-61.21-26.9c0.422-0.148,0.887-0.488,1.246-0.402c0.328,0.086,0.781,0.656,0.75,0.965
			c-0.145,1.309-0.891,1.586-1.875,0.691C-61.32-25.849-61.183-26.47-61.21-26.9z"/>
		<path fill="#A8A8A8" d="M-45.019-21.384c-0.477,0.613-0.895,1.637-1.449,1.719c-0.582,0.09-1.297-0.734-1.953-1.156
			c0.473-0.594,0.891-1.602,1.43-1.676C-46.39-22.575-45.683-21.798-45.019-21.384z"/>
		<path fill="#A5A5A5" d="M-62.05-14.224c-0.281,0.32-0.566,0.914-0.848,0.914c-1.27-0.004-1.672-0.703-1-1.746
			c0.18-0.277,0.918-0.453,1.23-0.309C-62.355-15.224-62.245-14.622-62.05-14.224z"/>
		<path fill="#A1A1A1" d="M-83.191,21.335c-0.184,0.414-0.262,0.996-0.578,1.184c-0.293,0.176-1.043,0.094-1.242-0.156
			c-0.824-1.043-0.484-1.781,0.852-1.848C-83.851,20.499-83.515,21.046-83.191,21.335z"/>
		<path fill="#A8A8A8" d="M-38.827-38.849c-0.246,0.285-0.48,0.797-0.742,0.813c-1.098,0.066-1.43-0.516-0.816-1.434
			c0.172-0.25,0.766-0.438,1.051-0.34C-39.085-39.72-38.988-39.189-38.827-38.849z"/>
		<path fill="#A5A5A5" d="M-74.777,64.018c-0.289-0.25-0.805-0.48-0.824-0.746c-0.07-1.109,0.516-1.441,1.445-0.816
			c0.254,0.176,0.449,0.77,0.348,1.055C-73.89,63.764-74.433,63.854-74.777,64.018z"/>
		<path fill="#A3A3A3" d="M-47.757-33.107c-0.18,0.355-0.277,0.918-0.555,1.031c-1.012,0.402-1.547-0.074-1.293-1.168
			c0.059-0.258,0.664-0.547,1.012-0.531C-48.312-33.767-48.038-33.345-47.757-33.107z"/>
		<path fill="#A1A1A1" d="M-119.929,126.546c-0.352,0.152-0.734,0.469-1.063,0.418c-0.258-0.043-0.66-0.559-0.629-0.816
			c0.152-1.109,0.809-1.379,1.66-0.676C-119.781,125.62-119.933,126.175-119.929,126.546z"/>
		<path fill="#B0B0B0" d="M-69.171,35.284c0.098,0.352,0.352,0.758,0.25,1.043c-0.102,0.293-0.57,0.672-0.836,0.645
			c-1.098-0.121-1.289-0.746-0.473-1.559C-70.034,35.221-69.534,35.319-69.171,35.284z"/>
		<path fill="#A4A4A4" d="M-63.589-0.47c0.363-0.102,0.785-0.363,1.086-0.262c0.293,0.094,0.684,0.582,0.652,0.859
			c-0.117,1.145-0.758,1.336-1.594,0.488C-63.652,0.409-63.55-0.099-63.589-0.47z"/>
		<path fill="#A2A2A2" d="M-72.452,129.413c-0.91,0.313-1.84,0.441-2.801,0.402C-74.437,128.866-73.523,128.596-72.452,129.413z"/>
		<path fill="#D4D4D4" d="M24.235-158.919c0.777-0.617,1.727-1.098,2.309-1.859c15.133-19.988,30.598-22.992,46.027,5.18
			c-0.008,5.172-3.656,7.219-7.758,7.215c-19.223-0.031-38.559,2.953-57.633-1.789c-1.82-1.348-2.164-3-1.039-4.965
			c2.875-3.086,5.75-6.172,8.621-9.254c0.93,0.543,1.5,1.352,1.773,2.383c0.629,1.461,1.563,2.617,3.129,3.147
			C21.188-158.693,22.712-158.88,24.235-158.919z"/>
		<path fill="#A0A0A0" d="M5.798-152.407c16.996,0.039,33.996,0.102,50.992,0.102c5.473,0,11.086,0.48,15.781-3.297
			c0.75,0.047,1.5,0.121,2.246,0.219c1.445,1.445,2.406,3.109,2.348,5.229c-0.313,1.313-0.922,2.469-1.824,3.473
			c-1.086,0.793-2.289,1.324-3.602,1.602c-1.316,0.191-2.633,0.391-3.945,0.594c-3.984,0.504-7.75,2.063-11.766,2.426
			c-1.363,0.027-2.719-0.043-4.07-0.219c-8.777-1.684-17.563-1.66-26.348-0.074c-1.355,0.168-2.719,0.203-4.082,0.098
			c-3.336-0.664-6.578-1.734-9.918-2.387c-1.336-0.25-2.648-0.609-3.926-1.066c-1.164-0.75-2.086-1.727-2.762-2.93
			C4.626-150.025,4.923-151.282,5.798-152.407z"/>
		<path fill="#949494" d="M-6.085-140.189c-0.461-4.109-3.805-6.297-6.121-9.168c2.988,0.004,5.977,0.008,8.965,0.012
			c2.617,0.078,4.574,1.285,5.984,3.457c2.074,5.211,1.484,10.684,1.684,16.113c-0.344,2.309-1.047,4.5-2.664,6.285
			c-0.672,0.387-1.34,0.77-2.008,1.152c-3.168-2.441-4.238-6.043-5.297-9.652C-4.57-134.798-4.019-137.579-6.085-140.189z"/>
		<path fill="#8F8F8F" d="M-0.679-146.407c-0.852-0.98-1.707-1.961-2.563-2.938c0.555-2.367,1.723-4.309,3.859-5.578l0.895,0.785
			l0.715-0.945c1.305-0.02,2.609-0.039,3.914-0.059c-0.203,0.902-0.32,1.813-0.344,2.734c0.07,1.113,0.137,2.23,0.203,3.348
			c1.031,0.867,1.953,0.727,2.793-0.289c1.055,0.055,2.105,0.113,3.16,0.168c0.914,1.055,1.516,2.258,1.766,3.629
			c-0.102,1.391-0.543,2.66-1.375,3.785C5.602-136.568,2.927-142.779-0.679-146.407z"/>
		<path fill="#D6D6D6" d="M24.235-158.919c-1.77,1.977-3.996,3.09-6.59,3.523c-1.289-1.348-1.41-2.98-1.125-4.707
			c0.453-0.332,0.914-0.668,1.367-1c2.004-2.102,4.008-4.199,6.066-6.359C26.93-164.376,23.684-161.65,24.235-158.919z"/>
		<path fill="#A0A0A0" d="M80.688-152.212c0.02,0.953,0.051,1.902,0.082,2.852c0.852,0.688,1.137,1.375,0.855,2.07
			c-0.273,0.695-0.563,1.039-0.844,1.039l0.078-0.063c-0.91,0.953-2.004,1.559-3.297,1.809c-1.309-0.117-2.473-0.582-3.473-1.453
			c-0.586-1.27-0.414-2.395,0.637-3.355l0.273-0.371C76.54-151.322,77.372-154.56,80.688-152.212z"/>
		<path fill="#8F8F8F" d="M80.688-152.212c-1.898,0.844-3.793,1.688-5.688,2.527c-0.066-1.898-0.121-3.805-0.184-5.699
			C76.77-154.329,78.727-153.267,80.688-152.212z"/>
		<path fill="#A7A7A7" d="M15.009-161.154c-0.086-1.082-0.164-2.164-0.246-3.246c0.398-0.699,0.992-2.055,1.156-2
			c2.852,0.883,1.422,3.461,1.969,5.293l0.078-0.172C17.067-159.126,16.083-159.083,15.009-161.154z"/>
		<path fill="#D4D4D4" d="M2.231-155.083l-0.766,0.668l-0.844-0.504C1.165-154.943,1.7-155.001,2.231-155.083z"/>
		<path fill="#8F8F8F" d="M80.782-146.247c-0.004-1.035-0.008-2.074-0.012-3.109c1.004,0.012,2.008,0.023,3.016,0.031
			C82.782-148.302,81.782-147.275,80.782-146.247z"/>
		<path fill="#A7A7A7" d="M29.774-47.47c9.262,1.328,18.012-1.961,27.012-3c-7.18,10.23-16.605,10.477-27.078,6.098l0.066,0.066
			C29.774-45.361,29.774-46.415,29.774-47.47z"/>
		<path fill="#A9A9A9" d="M63.087-22.743c-0.707-0.48-1.844-0.836-2.02-1.465c-0.426-1.523,0.281-2.844,2.043-2.668
			c0.59,0.059,1.469,1.32,1.465,2.02C64.567-24.15,63.622-23.447,63.087-22.743z"/>
		<path fill="#ABABAB" d="M4.856-23.654c0.652-0.602,1.25-1.586,1.961-1.684c0.543-0.07,1.234,1,1.859,1.563
			c-0.648,0.613-1.242,1.609-1.969,1.723C6.18-21.978,5.477-23.072,4.856-23.654z"/>
		<path fill="#ABABAB" d="M42.462-21.376c-0.672,1.551-1.895,2.223-3.352,1.414c-0.609-0.34-1.168-1.676-0.996-2.371
			c0.406-1.594,1.801-2.258,3.266-1.441C41.997-23.427,42.118-22.2,42.462-21.376z"/>
		<path fill="#999999" d="M62.618-53.341c1.125-2.84,2.254-5.68,3.387-8.523C69.591-57.154,67.563-54.669,62.618-53.341z"/>
		<path fill="#9D9D9D" d="M6.778-52.779c-0.426,0.156-0.902,0.508-1.273,0.418c-0.328-0.074-0.805-0.672-0.77-0.984
			c0.156-1.34,0.93-1.637,1.938-0.73C6.907-53.865,6.755-53.224,6.778-52.779z"/>
		<path fill="#A4A4A4" d="M75.919-47.228c-0.285,0.32-0.566,0.91-0.848,0.91c-1.277-0.004-1.68-0.711-1.004-1.75
			c0.18-0.277,0.914-0.449,1.23-0.305S75.719-47.63,75.919-47.228z"/>
		<path fill="#A2A2A2" d="M63.751-43.74c-0.414,0.152-0.887,0.492-1.246,0.402c-0.328-0.078-0.793-0.66-0.758-0.969
			c0.152-1.32,0.914-1.594,1.898-0.699C63.876-44.794,63.727-44.169,63.751-43.74z"/>
		<path fill="#A0A0A0" d="M29.708-44.372c-0.688,1.242-1.121,2.805-2.145,3.633c-0.84,0.676-2.063-0.535-1.395-1.387
			c0.813-1.031,2.371-1.48,3.602-2.184L29.708-44.372z"/>
		<path fill="#A7A7A7" d="M17.938-34.849c-0.496,0.586-0.949,1.582-1.492,1.633c-0.602,0.059-1.297-0.742-1.941-1.168
			c0.5-0.603,0.941-1.613,1.512-1.684C16.594-36.15,17.29-35.298,17.938-34.849z"/>
		<path fill="#A8A8A8" d="M50.368-35.607c0.418,0.672,1.23,1.414,1.129,2c-0.098,0.555-1.145,0.945-1.777,1.41
			c-0.398-0.676-1.164-1.41-1.082-2.02C48.716-34.751,49.751-35.154,50.368-35.607z"/>
		<path fill="#A3A3A3" d="M74.45-36.376c0.414,0.18,0.984,0.262,1.172,0.574c0.176,0.289,0.094,1.035-0.152,1.227
			c-1.035,0.82-1.758,0.484-1.824-0.84C73.63-35.724,74.173-36.056,74.45-36.376z"/>
		<path fill="#9E9E9E" d="M15.509-16.415c-0.441,0.027-1.09,0.254-1.289,0.051c-0.898-0.941-0.672-1.75,0.551-2.008
			c0.332-0.07,0.996,0.336,1.113,0.668C16.009-17.365,15.653-16.853,15.509-16.415z"/>
		<path fill="#A1A1A1" d="M51.868-17.642c-0.184,0.414-0.266,0.988-0.586,1.184c-0.293,0.18-1.039,0.098-1.23-0.145
			c-0.82-1.043-0.477-1.781,0.855-1.852C51.212-18.474,51.548-17.927,51.868-17.642z"/>
		<path fill="#A8A8A8" d="M26.938-22.064c-0.371,0.016-0.898,0.199-1.09,0.02c-0.832-0.773-0.695-1.461,0.336-1.688
			c0.281-0.063,0.832,0.277,0.969,0.574C27.282-22.888,27.028-22.431,26.938-22.064z"/>
		<path fill="#A5A5A5" d="M17.739-50.357c-0.52,1.246-0.793,2.711-1.645,3.656c-0.73,0.809-1.855-0.012-1.313-0.945
			c0.652-1.094,1.957-1.809,2.98-2.691L17.739-50.357z"/>
		<path fill="#A1A1A1" d="M4.032-40.384c-0.324,0.147-0.695,0.469-1.031,0.422c-0.258-0.027-0.684-0.535-0.652-0.781
			c0.137-1.121,0.793-1.414,1.656-0.746C4.188-41.345,4.032-40.771,4.032-40.384z"/>
		<path fill="#A6A6A6" d="M56.637-50.357c1.645-1.82,3.727-2.777,6.125-3.082C61.141-51.579,59.02-50.716,56.637-50.357z"/>
		<path fill="#C7C7C7" d="M-114.222,213.612c-3.852-8.586,3.91-14.16,4.438-24.379c4.113,9.699,5.406,16.105-1.43,21.402
			C-111.386,212.464-113.05,212.788-114.222,213.612z"/>
		<path fill="#FBFBFB" d="M-126.093,231.624c0.063-0.922,0.18-1.84,0.344-2.75c1.781-0.086,3.555-0.176,5.332-0.262
			c0,9.945,0.004,19.895,0.004,29.84c-1-1.004-2.004-2.008-3.004-3.012C-123.831,247.448-121.238,239.116-126.093,231.624z"/>
		<path fill="#F7F7F7" d="M-114.222,213.612c1.004-0.992,2.008-1.984,3.008-2.977c1.891,2,3.773,4.004,5.66,6.008
			c-1.02,1.84-2.039,3.684-3.059,5.527C-110.48,219.315-112.351,216.464-114.222,213.612z"/>
		<path fill="#C2C2C2" d="M-123.245,165.581c1.047-0.023,2.094-0.047,3.141-0.066c0.918-1.066,1.84-1.016,2.766-0.008
			c1.047,0.035,2.094,0.07,3.141,0.102c-4.027,3.41-8.035,3.508-12.023-0.07C-125.214,163.581-124.218,163.585-123.245,165.581z"/>
		<path fill="#CBCBCB" d="M-123.202,213.6c-1.668-2.207-3.766-4.316-1.688-7.531c2.813,2.102,1.113,5.082,1.66,7.563L-123.202,213.6
			z"/>
		<path fill="#C5C5C5" d="M-114.249,165.632c3.023-2.742,6.043-2.949,9.063,0.008C-108.21,165.639-111.23,165.635-114.249,165.632z"
			/>
		<path fill="#C7C7C7" d="M-123.23,213.632c0.719,1.219,1.801,2.375,2.063,3.688c0.238,1.219-1.004,1.629-1.43,0.566
			c-0.516-1.301-0.43-2.848-0.602-4.281L-123.23,213.632z"/>
		<path fill="#EAEAEA" d="M-123.245,165.581l-1.492,0.016l-1.492-0.055c1-1.965,2-3.934,3-5.906
			C-123.234,161.616-123.241,163.596-123.245,165.581z"/>
		<path fill="#C5C5C5" d="M-96.363,174.8c0.094,0.914,0.18,1.828,0.262,2.742c-1.07,0.656-1.961,0.406-1.813-0.633
			C-97.8,176.147-96.906,175.495-96.363,174.8z"/>
		<path fill="#C1C1C1" d="M-105.273,165.593c0.957,0.031,1.91,0.082,2.863,0.168c0.117,0.957,0.227,1.914,0.328,2.879
			C-103.144,167.624-104.21,166.608-105.273,165.593z"/>
		<path fill="#BABABA" d="M179.61,161.991c1.898-6.625,4.117-12.98,12.125-14.488c-3.941,6.086-7.883,12.168-11.828,18.254
			C179.809,164.499,179.708,163.249,179.61,161.991z"/>
		<path fill="#A8A8A8" d="M185.661,181.499c0.375-3.574-0.648-7.727,4.184-9.75c2.809,4.137,2.191,7.859-0.82,11.449
			C187.618,183.186,186.512,182.593,185.661,181.499z"/>
		<path fill="#B9B9B9" d="M191.614,147.573c2.039-4.098,4.082-8.199,6.121-12.293C196.739,139.897,202.165,147.71,191.614,147.573z"
			/>
		<path fill="#F3F3F3" d="M185.661,181.499c1.117,0.57,2.242,1.133,3.363,1.699c-0.063,2.215-0.117,4.422-0.176,6.633
			c0.855,0.711,1.094,1.352,0.723,1.93c-0.352,0.543-0.691,0.813-1.023,0.813c-2.57-1.375-4.617-3.172-5.188-6.215
			C184.126,184.745,184.891,183.12,185.661,181.499z"/>
		<path fill="#B3B3B3" d="M197.743,195.628c0.414-2.398,0.637-4.93,3.352-6.008c0.242-0.094,1.063,0.48,1.059,0.73
			c-0.074,2.902-2.273,4.074-4.426,5.258L197.743,195.628z"/>
		<path fill="#C8C8C8" d="M215.735,153.596c-1.434-0.172-2.973-0.082-4.27-0.594c-1.063-0.418-0.656-1.672,0.563-1.43
			c1.313,0.254,2.461,1.332,3.688,2.051L215.735,153.596z"/>
		<path fill="#A2A2A2" d="M188.544,192.577c0.098-0.918,0.199-1.828,0.301-2.746c0.824,0.879,1.641,1.762,2.465,2.645
			C190.391,192.514,189.466,192.546,188.544,192.577z"/>
		<path fill="#A5A5A5" d="M197.723,195.608c-1.008,0.984-2.016,1.965-3.023,2.949l0.098,0.117c0.98-1.016,1.961-2.031,2.941-3.051
			L197.723,195.608z"/>
		<path fill="#A5A5A5" d="M191.723,201.733c0.031-1.016,0.063-2.043,0.09-3.063c0.996-0.043,1.988-0.039,2.984,0.008l-0.098-0.117
			C193.708,199.616,192.716,200.675,191.723,201.733z"/>
		<path fill="#FCFCFC" d="M17.891-74.501c-0.25-2.328-1.152-4.324-2.992-5.832c-0.707-0.457-1.02-0.996-0.945-1.613
			c0.086-0.656,0.223-0.988,0.414-0.988c-1.738-3.168-3.477-6.336-5.215-9.504c-1.203-3.879-2.41-7.754-3.613-11.629
			c-0.082-3.285-0.16-6.57-0.242-9.848c-0.531-1.414-0.441-2.781,0.258-4.109c3.09-3.402,7.723-3.5,11.535-5.348
			c8.445-1.266,14.566-8.355,23.156-9.277c1.395,0.004,2.781,0.129,4.156,0.359c2,0.598,3.914,1.418,5.844,2.219
			c1.973,0.793,3.625,2.078,5.293,3.359c5.098,5.598,12.477,5.324,18.988,7.332c1.188,0.938,2.031,2.125,2.602,3.516
			c0.555,3.188-0.602,5.957-2.063,8.656c-0.633,2.23-1.141,4.523-3.152,6.039c-3.477-3.039-8.715-0.637-12.074-4.051
			c3.375,3.387,8.555,1.074,12.082,3.977c0.191,4.375-1.953,8.055-3.563,11.891c-0.836,1.176-1.84,2.254-2.207,3.703
			c0.066,0.73,0.043,1.457-0.074,2.176C57.165-73.341,48.731-62.15,32.462-68.126c-2.008,1.496-3.926,1.539-5.734-0.344
			c-1.074-0.898-2.145-1.793-3.215-2.691c-1.047,0.914-1.969,0.762-2.789-0.316l0.152,0.195c-1.129-1-2.094-2.16-3.184-3.195
			L17.891-74.501z"/>
		<path fill="#C5C5C5" d="M26.739-68.478c1.91,0.113,3.824,0.23,5.734,0.344C30.434-66.083,28.536-66.4,26.739-68.478z"/>
		<path fill="#B3B3B3" d="M17.7-74.486c1.063,1.07,2.121,2.129,3.184,3.191C19.829-72.357,18.762-73.415,17.7-74.486z"/>
		<path fill="#C1C1C1" d="M20.735-71.486c0.934,0.082,1.859,0.184,2.789,0.316C22.481-70.318,21.571-70.552,20.735-71.486z"/>
		<path fill="#9C9C9C" d="M5.821-116.243c-0.16,0.77-0.336,1.547-0.52,2.32c-3.602-1.648-5.289-4.559-5.547-8.418h-0.047
			c0.93-0.996,2.066-1.477,3.438-1.352c1.973,0.68,3.305,2.004,3.992,3.977C7.247-118.353,6.805-117.197,5.821-116.243z"/>
		<path fill="#808080" d="M-6.085-140.189c2.449,2.586,2.824,5.305,0.543,8.199C-5.722-134.72-5.902-137.454-6.085-140.189z"/>
		<path fill="#B9B9B9" d="M75.071-107.212c-0.09-2.84-0.18-5.684-0.273-8.523c-0.652-1.344-1.598-1.613-2.852-0.785
			c-7.688,0.414-14.855-1.094-21.203-5.68c-1.082-1.613-1.016-3.168,0.207-4.676c6.98-4.848,14.738-2.582,22.254-2.418
			c2.453,0.652,4.414,2.023,5.859,4.105c2.469,3.551-1.094,7.828,1.355,11.387c0.109,1.246,0.223,2.488,0.332,3.73
			C78.86-109.122,76.966-108.165,75.071-107.212z"/>
		<path fill="#DCDCDC" d="M66.169-85.657c0.734-1.23,1.465-2.469,2.203-3.703C67.634-88.126,66.899-86.888,66.169-85.657z"/>
		<path fill="#989898" d="M182.833,207.585c0.582-3.34,2.488-5.375,5.879-5.945C188.208,205.065,186.106,206.905,182.833,207.585z"
			/>
		<path fill="#FEFEFE" d="M0.286-68.673c0.855-0.914,1.715-1.836,2.574-2.75C2.005-70.509,1.141-69.587,0.286-68.673z"/>
		<path fill="#F2F2F2" d="M-123.058,321.706c-0.098,3.891-0.195,7.776-0.297,11.664c-5.68-3.048-5.832-8.431-5.852-13.867
			c-0.023-6.306-0.035-12.604-0.051-18.914c4.113,4.199,2.043,10.82,5.918,15.104C-123.249,317.697-123.152,319.702-123.058,321.706
			z"/>
		<path fill="#F1F1F1" d="M209.829,276.581c0.039,4.965,0.074,9.938,0.105,14.91c-0.063,2.055-0.129,4.108-0.191,6.159
			c-1.004,0-2.012,0-3.012-0.004C207.489,290.585,204.911,283.026,209.829,276.581z"/>
		<path fill="#979797" d="M176.739,198.694c-0.059,0.848-0.141,1.699-0.238,2.547c-0.172-0.603-0.43-1.199-0.477-1.809
			C176.012,199.202,176.485,198.94,176.739,198.694z"/>
		<path fill="#D0D0D0" d="M80.419-113.806c-2.348-2.348-2.535-5.363-2.609-8.418c-1.953-3.168-1.301-6.359-0.098-9.566
			c0.836-1.094,1.922-1.84,3.23-2.273C86.337-127.173,82.063-120.521,80.419-113.806z"/>
		<path fill="#8F8F8F" d="M80.938-134.068c-0.152,0.895-0.301,1.797-0.449,2.691c-1.738,0.906-3.27,0.645-4.605-0.789
			c-3.359-5.145-2.414-9.805,1.582-14.125c1.129-0.004,2.258-0.012,3.395-0.02c0.035,2.91,0.074,5.813,0.109,8.719
			C80.958-136.415,80.946-135.243,80.938-134.068z"/>
		<path fill="#ABABAB" d="M14.368-82.939c0.227,0.859,0.402,1.727,0.531,2.602c-0.324-0.563-0.715-1.098-0.934-1.699
			C13.891-82.259,14.223-82.634,14.368-82.939z"/>
		<path fill="#EFEFEF" d="M200.598,246.659c-0.02-4.012-0.043-8.021-0.063-12.035c1.063-0.004,2.125-0.008,3.191-0.016
			C203.653,238.878,203.954,243.245,200.598,246.659z"/>
		<path fill="#EAEAEA" d="M-117.347,165.507l-1.379,0.02l-1.383-0.012C-119.191,164.663-118.265,164.663-117.347,165.507z"/>
		<path fill="#808080" d="M15.009-161.154c0.98-0.086,1.965-0.129,2.953-0.121c-0.102,1.961-0.211,3.918-0.32,5.879
			C15.497-156.732,15.126-158.884,15.009-161.154z"/>
		<path fill="#D7D7D7" d="M23.93-146.564c9.91-4.383,19.801-4.516,29.688,0.066c0.48,1.93,1.895,3.309,2.934,4.918
			c0.465,1.25,0.629,2.539,0.508,3.863c-0.789,2.621-2.211,4.84-4.18,6.715c-2.359,1.512-4.914,2.152-7.699,1.684
			c-1.316-0.305-2.633-0.605-3.945-0.91c-4.129-2.234-7.691,1.875-11.695,1.039c-3.5-1.109-4.52-4.371-6.141-7.094
			c-0.453-1.117-0.738-2.293-0.852-3.492c-0.012-1.168,0.113-2.332,0.355-3.48C23.278-144.337,23.622-145.443,23.93-146.564z"/>
		<path fill="#CACACA" d="M77.466-146.29c0.117,4.98,0.238,9.961,0.352,14.941c1.535,2.625-0.137,3.469-2.25,4.059
			c-1.27-0.395-2.457-0.969-3.555-1.719c-3.414-3.113-7.09-5.758-11.715-6.816c-2.918-0.492-4.902-2.336-6.633-4.547l0.113,0.156
			c-1.48-2.418-0.004-3.59,1.926-4.566c3.613-3.438,8.949-2.027,12.891-4.574c1.059,0.016,2.121,0.031,3.184,0.047
			c1.098,0.875,2.086,1.855,2.949,2.969C75.637-146.31,76.552-146.294,77.466-146.29z"/>
		<path fill="#909090" d="M68.594-149.357c-3.164,3.703-8.117,3.598-12.055,5.648c-1-0.594-1.309-1.137-0.93-1.637
			c0.359-0.477,0.723-0.715,1.086-0.715C60.032-149.443,64.356-149.255,68.594-149.357z"/>
		<path fill="#6A6A6A" d="M56.7-146.064c-0.047,0.785-0.094,1.566-0.156,2.352c-0.922,1.164-1.844,2.332-2.762,3.492
			c-8.219-1.883-2.645-4.121-0.16-6.277C54.645-146.353,55.673-146.208,56.7-146.064z"/>
		<path fill="#6D6D6D" d="M11.759-146.435c0.004-0.922,0.07-1.832,0.191-2.746c3.289-0.113,6.359,0.438,8.809,2.883
			c-0.488,0.504-0.977,1.008-1.465,1.516C16.36-143.392,13.88-144.103,11.759-146.435z"/>
		<path fill="#636363" d="M23.93-146.564c1.434,0.66,2.652,1.504,2.906,3.223c-1.84,1.738-3.887,1.844-6.074,0.746
			c-1.047-1.309-0.957-2.582,0.117-3.82l-0.121,0.121C21.813-146.384,22.876-146.474,23.93-146.564z"/>
		<path fill="#D4D4D4" d="M74.727-146.341c-0.984-0.992-1.969-1.98-2.949-2.969c0.98-0.082,1.961-0.082,2.945,0
			C74.782-148.322,74.782-147.333,74.727-146.341z"/>
		<path fill="#D4D4D4" d="M8.79-149.345c-0.836,1.027-1.746,1.309-2.793,0.289C6.923-149.212,7.856-149.31,8.79-149.345z"/>
		<path fill="#D4D4D4" d="M-0.679-146.407c4.246-0.5,7.359,4.195,11.844,2.57c1.715-1.117,3.617-0.996,5.512-0.855
			c1.152,0.461,2.043,1.246,2.695,2.293c0.98,1.43,1.859,2.926,2.465,4.582c0.52,1.055,1.051,2.094,1.672,3.105
			c2.199,4,9.027,7.949,0.168,12.09c-8.617,0.887-17.805,4.199-23.676-5.867C-0.226-134.458-0.448-140.427-0.679-146.407z"/>
		<path fill="#B4B4B4" d="M0.001-128.486c8.398,4.738,17.574,2.668,26.473,3.043c1.949-1.543,0.641-4.867,3.301-6.016
			c3.98-1.563,7.953-3.902,11.984-0.113c1.813,0.98,1.84,2.008,0.086,3.082c-8.645,1.426-13.973,11.426-24,9.277
			c-0.656-0.027-1.313-0.051-1.969-0.078c-4.602-0.07-9.223-0.063-13.141-3.059c-1.008,0-2.02,0-3.027,0.004
			C-0.198-124.388-0.097-126.431,0.001-128.486z"/>
		<path fill="#BFBFBF" d="M17.673-143.298c-2.168-0.18-4.336-0.359-6.504-0.539c0.234-0.859,0.43-1.727,0.594-2.598
			c3.039,0.004,6.082,0.008,9.121,0.016c0.004,1.008,0.008,2.02,0.012,3.031C19.852-142.29,18.778-142.255,17.673-143.298z"/>
		<path fill="#BFBFBF" d="M71.93-101.247c-9.246-0.367-17.949-2.934-26.563-5.875c9.465-0.488,18.688-0.012,26.551,5.949
			L71.93-101.247z"/>
		<path fill="#B4B4B4" d="M5.821-116.243c-0.082-0.969-0.152-1.938-0.207-2.91c4.027-2.578,8.098-2.379,12.191-0.172l0.043,0.117
			C14.438-115.79,10.001-116.552,5.821-116.243z"/>
		<path fill="#BFBFBF" d="M20.844-104.255c2.063-2.359,4.512-3.137,7.945-2.27c-2.5,3.332-5.512,1.668-8.066,2.129L20.844-104.255z"
			/>
		<path fill="#BBBBBB" d="M20.723-104.4c-2.281,1.816-4.5,3.902-7.82,1.676c2.293-2.797,5.324-1.109,7.938-1.535L20.723-104.4z"/>
		<path fill="#BDBDBD" d="M51.579-90.38c0.066,1.195-0.535,1.691-1.777,1.375c-0.453-0.117-0.938-0.348-1.266-0.672
			c-1.023-1.008-0.773-1.867,0.656-1.859C49.989-91.532,50.786-90.79,51.579-90.38z"/>
		<path fill="#B5B5B5" d="M29.219-91.345c-0.043,0.363,0.039,0.902-0.168,1.055c-0.289,0.227-0.875,0.348-1.184,0.195
			c-1.215-0.578-1.141-1.211,0.184-1.57C28.387-91.751,28.829-91.466,29.219-91.345z"/>
		<path fill="#878787" d="M71.946-116.521c1.266-0.887,2.129-0.301,2.852,0.785C73.844-115.974,72.891-116.236,71.946-116.521z"/>
		<path fill="#909090" d="M50.634-125.271c0.039,1.02,0.074,2.043,0.109,3.066c-1.027-1.008-2.055-2.023-3.082-3.035
			c0.492-0.285,0.984-0.566,1.477-0.848C49.637-125.822,50.137-125.548,50.634-125.271z"/>
		<path fill="#898989" d="M47.661-125.243c-1.57-0.457-2.563-1.465-2.938-3.063c0.52-0.266,1.039-0.535,1.559-0.801
			c1.586,0.855,3.078,1.746,1.41,3.805L47.661-125.243z"/>
		<path fill="#898989" d="M41.844-128.49c-0.031-1.023-0.059-2.047-0.086-3.078c0.938,0.102,1.875,0.23,2.809,0.379
			c0.984,0.598,1.328,1.219,1.039,1.875c-0.293,0.668-0.59,1.004-0.906,1.004h0.023l-1.449,0.051L41.844-128.49z"/>
		<path fill="#CFCFCF" d="M17.802-119.325c-4.063,0.063-8.125,0.117-12.191,0.172c-0.961-1.063-1.914-2.129-2.875-3.191
			C7.927-122.173,13.356-123.181,17.802-119.325z"/>
		<path fill="#C6C6C6" d="M44.7-128.306c-0.016-0.957-0.063-1.918-0.133-2.879c2.086-1.055,4.18-2.117,6.27-3.172
			c1.43-1.461,3.305-1.973,5.215-2.414c2.598-0.035,5.074,0.914,7.656,1.012c1.266,0.147,2.508,0.461,3.703,0.918
			c2.789,1.629,4.848,4.086,7.164,6.254l0.289,0.348c0.688,0.742,0.852,1.406,0.5,1.996c-0.332,0.543-0.641,0.816-0.926,0.816
			c-7.926,0.051-15.863,0.098-23.801,0.152l-1.473-0.039l-1.477,0.008C46.692-126.302,45.696-127.306,44.7-128.306z"/>
		<path fill="#949494" d="M74.434-125.423c0.18-0.934,0.32-1.871,0.426-2.813c0.984-1.035,1.973-2.078,2.953-3.113
			c0.895,0,1.781-0.008,2.672-0.023c-0.895,3.051-1.781,6.102-2.68,9.152C76.688-123.294,75.559-124.357,74.434-125.423z"/>
		<path fill="#C1C1C1" d="M17.673-143.298c1.074-0.031,2.148-0.063,3.223-0.09c1.984,0.016,3.965,0.031,5.945,0.047l-0.086-0.152
			c0.797,0.789,1.055,1.578,0.781,2.352c-0.277,0.777-0.551,1.164-0.816,1.164c1.02,2.84,2.039,5.684,3.059,8.52
			c-0.363,2.41-1.359,4.473-3.301,6.016c-4.113-4-10.777-1.566-14.781-5.855c0,0,0.316-1.379,0.313-1.375
			c0.262-0.91,0.762-1.68,1.473-2.301c0.727-0.504,1.52-0.918,2.34-1.23c-0.012,0.004,1.016-0.813,1-0.809
			c-0.012,0.004,0.676-1.082,0.668-1.078c0.223-0.82,0.293-1.664,0.207-2.508C17.704-141.501,17.696-142.4,17.673-143.298z"/>
		<path fill="#848484" d="M56.184-133.927c-1.785-0.141-3.57-0.285-5.348-0.43c0.938-2.004,1.887-4.008,2.828-6.016
			c3.117-0.102,6.238-0.199,9.359-0.305c3.219-0.75,5.234,0.801,6.676,3.473c0.32,1.391,0.121,2.719-0.516,3.984
			c-0.996,1.016-2.211,1.578-3.625,1.695c-0.914,0.094-1.816,0.184-2.723,0.285C60.512-131.872,58.7-133.767,56.184-133.927z"/>
		<path fill="#636363" d="M26.712-139.982c0.012-1.172,0.023-2.344,0.035-3.516c0.277,0.785,0.672,1.555,0.777,2.355
			C27.567-140.794,27.001-140.368,26.712-139.982z"/>
		<path fill="#DBDBDB" d="M68.587-134.415c-0.992-2.852-2.996-4.813-5.566-6.262c11.066-2.363,11.066-2.363,11.551,12.094
			c-3.418,0.27-6.484-0.5-9.016-2.941c1.039-0.996,2.082-1.988,3.125-2.984L68.587-134.415z"/>
		<path fill="#737373" d="M23.841-134.271c-1.027-0.027-2.051-0.051-3.074-0.074c-1.781,1.723-4.172,0.523-6.156,1.297
			c-1.082,0.141-2.164,0.164-3.25,0.07c-1.043-0.418-1.813-1.121-2.277-2.152c1.723-3.629,4.938-4.914,8.609-5.473
			c3.145,1.043,5.621,2.738,6.137,6.336L23.841-134.271z"/>
		<path fill="#C1C1C1" d="M9.083-135.13c0.887,0.313,1.789,0.59,2.695,0.828c2.02,0.953,2.027,1.922,0.027,2.91l-0.113,0.09
			C10.821-132.575,9.95-133.849,9.083-135.13z"/>
		<path fill="#5E5E5E" d="M56.184-133.927c4.047-3.637,5.621-1.152,6.652,2.688C59.204-128.642,57.337-130.4,56.184-133.927z"/>
		<path fill="#323232" d="M14.61-134.169c1.992-2.215,4.078-1.094,6.156-0.172c-1.285,2.547-3.492,3.234-6.137,3.023
			c-0.902-0.625-1.207-1.258-0.914-1.895C14.016-133.849,14.305-134.169,14.61-134.169z"/>
		<path fill="#DCDCDC" d="M14.61-134.169c0.125,0.949,0.133,1.902,0.02,2.852c-0.941-0.039-1.887-0.063-2.828-0.07
			c-0.008-0.973-0.016-1.945-0.023-2.914C12.735-134.474,13.68-134.427,14.61-134.169z"/>
		<polygon fill="#ABABAB" points="68.587,-134.415 69.247,-133.833 68.684,-134.509 		"/>
	</g>
</g>
</svg>
