<?xml version="1.0" encoding="utf-8"?>
<!-- Generator: Adobe Illustrator 15.0.0, SVG Export Plug-In . SVG Version: 6.00 Build 0)  -->
<!DOCTYPE svg PUBLIC "-//W3C//DTD SVG 1.1//EN" "http://www.w3.org/Graphics/SVG/1.1/DTD/svg11.dtd">
<svg version="1.1" id="Layer_1" xmlns="http://www.w3.org/2000/svg" xmlns:xlink="http://www.w3.org/1999/xlink" x="0px" y="0px"
	 width="228.83px" height="284.989px" viewBox="0.502 2.544 228.83 284.989" enable-background="new 0.502 2.544 228.83 284.989"
	 xml:space="preserve">
<g>
	<g>
		<path fill="#FEFEFE" d="M46.912,286.401c-14.64,0-29.28,0-43.92,0c0-95.056,0-190.107,0-285.164
			c71.659,0,143.318,0.073,214.979-0.141c5.776-0.017,7.094,1.229,7.082,6.67c-0.212,91.063-0.13,182.13-0.31,273.189
			c-0.002,1.623,2.976,5.271-2.152,5.441c-5.295-3.707-5.237-9.135-5.702-14.615c-2.433-28.791-12.938-53.941-37.002-73.182
			c-5.089-4.068-11.537-5.646-16.496-9.687c-3.879-2.871-2.998-7.396-4.375-11.136c-0.444-1.636-0.063-3.25,0.137-4.858
			c-0.87-18.924-1.024-37.691,3.884-56.414c2.104-8.015,1.004-16.938-3.5-24.791c0.006-3.107-0.125-6.208-0.478-9.296
			c-0.283-4.056,0.457-8.114-0.063-12.167c-0.035-4.296-2.685-7.447-5.336-10.593c-2.078-4.25-2-8.768-1.853-13.278
			c-0.543-3.503-2.992-5.274-6.384-6.205c-3.594-0.84-7.307-1.345-10.215-3.779c-6.514-5.457-9.537-13.729-16.892-18.479
			c-2.021-1.925-4.03-3.885-6.515-5.325c-2.254-1.161-4.625-0.957-7.012-0.592c-2.809,0.099-5.549-1.436-8.406-0.327
			c-3.136,0.655-3.385,4.05-5.748,5.443c-1.62,0.857-3.032,1.965-4.252,3.293c-1.25,1.347-2.401,2.757-3.282,4.353
			c-4.01,4.882,0.196,10.113-0.741,15.126c-0.354,0.974-0.898,1.831-1.613,2.605c-2.229,1.503-4.901,2.181-7.23,3.491
			c-2.528,0.945-4.322,3.123-7.025,3.789c-2.65,0.242-5.3,0.521-7.842,1.358c-6.582,1.834-13.637,2.289-19.592,5.937
			C22.862,66.991,22.5,83.85,38.379,93.479c1.978,1.199,4.018,2.053,4.649,4.405c0.738,4.111,0.233,7.957-2.582,11.336
			c-1.489,1.712-2.871,3.535-4.983,4.629c-3.305,1.021-6.701,1.956-8.168,5.459c-2.743,6.423,2.34,10.655,4.964,15.532
			c6.77,4.914,11.335,11.222,13.642,18.968c0.366,1.561-0.104,3.043-0.42,4.543c-2.272,3.44-0.682,6.989-0.308,10.495
			c0.045,6.271-0.131,12.537-0.288,18.798c0.076,0.912,0.12,1.827,0.204,2.731c0.213,2.854,2.214,4.732,4.168,6.623
			c0.549,0.717,1.058,1.459,1.605,2.172c2.179,2.539,5.427,3.358,8.388,4.643c4.897,3.189,9.506,6.907,15.776,7.564
			c4.313,0.754,8.867,0.636,12.693,3.143c2.457,2.46,6.184,3.004,8.861,5.136c0.77,0.897,1.238,1.92,1.432,3.055
			c-0.414,5.684-3.365,10.615-7.257,14.371c-10.923,10.533-17.489,23.719-25.715,35.86
			C60.508,279.635,55.281,284.684,46.912,286.401z"/>
		<path fill="#AFAFAF" d="M166.941,186.773c45.861,19.684,55.707,57.201,55.65,99.628c-58.563,0-117.121,0-175.682,0
			c14.786-16.227,24.854-35.571,38.986-52.229c3.099-3.654,6.245-7.274,9.369-10.909c2.888-4.945,6.387-3.108,9.934-0.81
			c4.35,3.588,3.936,7.61,1.947,10.637c2.703-2.853,6.966-5.855,12.155-7.666c3.472-0.846,7.123-0.746,10.552-1.819
			c12.519-4.712,26.394-7.527,32.603-20.904c0.856-2.807,0.409-5.564-0.354-8.33C161.882,190.8,160.744,186.7,166.941,186.773z"/>
		<path fill="#E4E4E4" d="M158,60.046c3.504,2.097,5.168,5.413,6.617,8.871c-7.255,2.296-4.783,7.852-4.768,12.611
			c-0.205,1.11-0.609,2.121-1.229,3.079c-18.602,14.105-39.207,21.79-63.491,17.77c-15.561-5.573-31.222-1.56-46.852-0.36
			c-2.528-0.616-3.564-3.654-6.578-3.559c-0.818-0.385-1.525-0.873-2.165-1.443c-6.34-2.078-13.478-2.041-17.746-8.659
			c-7.31-11.334,3.688-33.849,19.66-38.924c5.457-1.738,11.122-2.796,16.963-2.514c3.317,2.057,4.774-1.162,7.004-2.188
			c2.266-0.725,4.53-1.452,6.796-2.176c5.37-0.345,4.45,4.125,5.888,6.398c-0.306-2.686-3.793-6.142,1.152-8.634l-0.104,0.079
			c10.297-7.196,13.597-7.075,18.938,1.104c-1.994-8.107,1.266-11.65,9.588-10.639c3.76,0.455,7.146,2.506,11.027,2.593
			c1.021,0.098,2.045,0.198,3.07,0.283c4.021,0.065,8.143-1.016,12.033,0.832c0.867,0.529,1.777,0.975,2.736,1.336
			c3.975,0.999,7.932,2.409,11.967,0.219c4.303,0.686,7.254,3.07,9.307,6.579C156.101,48.5,155.824,54.285,158,60.046z"/>
		<path fill="#DDDDDD" d="M121.265,230.116c-7.946,4.357-15.888,8.719-23.851,13.041c-0.207,0.112-0.649-0.162-1.237-0.328
			c1.455-5.996,9.424-9.979,6.313-17.371c-1.558-3.715-2.183-7.674-3.396-11.479c-0.203-2.729,0.916-5.033,2.549-7.182
			c1.742-2.002,3.767-3.752,5.697-5.584c2.726-1.678,4.934-4.092,8.133-5.096c12.961-6.197,28.414-7.91,38.612-19.08
			c2.884-1.172,5.658-0.918,8.345,0.537c1.504,3.063,3.006,6.125,4.508,9.19c-1.825,2.933,1.313,4.07,2.412,5.947
			c1.226,4.408,2.479,8.815-0.203,13.173c-8.584,12.88-23.252,17.354-36.679,23.551
			C128.903,232.083,125.071,230.932,121.265,230.116z"/>
		<path fill="#747474" d="M164.746,90.454c5.271,12.028,5.316,23.952,2.605,36.878c-2.53,12.078-7.949,25.006,0.938,37.437
			c1.063,1.487-4.566,6.356,3.401,6.432c-3.17,3.401-6.438,1.411-9.146,2.159c-10.683,6.033-13.955-1.532-17.563-8.454
			c-2.887-6.041,1.373-12.059,0.113-18.146c-0.967-4.674-2.197-9.487-8.655-6.137c-8.116,4.213-14.733,1.271-21.546-2.414
			c-2.184-1.612-4.275-3.326-6.416-4.994c-1.495-0.944-2.652-2.129-3.156-3.803c-0.527-3.824,1.955-5.942,4.979-7.732
			c16.717-9.884,34.041-18.909,49.083-31.146C160.892,89.305,162.939,89.467,164.746,90.454z"/>
		<path fill="#DCDCDC" d="M86.081,14.051c0.892-3.99,3.618-6.543,7.346-8.31c3.82,1.432,7.603,1.695,11.315-0.31
			c3.878-2.47,7.72-2.334,11.529,0.139c1.602,3.381,5.045,5.464,6.871,8.682c4.91,6.346,11.688,11.508,13.967,19.519
			c1.426,2.534-0.934,3.303-2.369,4.499l0.043-0.025c-4.646,1.7-9.285,1.703-13.932-0.002l0.049,0.016
			c-8.147-3.959-15.86-8.099-25.91-4.107c-5.13,2.036-7.34-3.563-9.58-7.207C84.354,22.581,86.499,18.375,86.081,14.051z"/>
		<path fill="#DDDDDD" d="M95.038,221.237c-2.99-0.718-5.98-1.432-8.968-2.146c-4.07-3.217-9.493,0.553-13.623-2.35
			c-6.495-0.934-11.295-4.796-16.266-8.359c-3.056-2.372-6.004-4.875-9.385-6.854l0.054,0.084c-0.801-1.145-0.774-2.271,0.082-3.364
			c15.836-4.438,32.128-6.996,48.234-10.306c4.678,1.688,6.071,5.726,7.713,9.575c1.742,6.985-2.203,13.239-2.967,19.91
			C98.97,219.475,97.171,220.545,95.038,221.237z"/>
		<path fill="#E8E8E8" d="M39.99,168.45c-0.138-3.656-0.257-7.313,2.218-10.479c2.901-2.507,5.518-1.871,7.636,0.87
			c2.062,2.677,4.531,4.732,7.858,5.82c2.015,1.008,4.077,0.563,6.141,0.142c1.653-0.409,3.248-0.24,4.796,0.401
			c4.221,3.871,10.55,3.02,15.188,5.998c2.601,1.787,4.883,3.752,4.864,7.119c-0.88,5.284-4.681,7.829-9.595,9.813
			c-7.451,3.01-15.313,4.824-22.85,7.564c-4.885,1.021-9.071-0.918-13.279-2.766c-1.088-0.689-2.117-1.456-3.09-2.291l0.097,0.075
			C38.124,183.295,38.053,175.874,39.99,168.45z"/>
		<path fill="#040404" d="M164.746,90.454c-16.466,16.776-37.555,27.396-58.125,38.707c-0.191,1.188-0.636,2.289-1.332,3.297
			c-3.962,4.019-7.939,8.375-14.026,2.947c-7.15-6.38-0.509-10.637,2.855-15.354c12.274-8.337,24.354-16.798,38.887-21.832
			c9.578-3.316,18.789-8.004,25.147-16.175l-0.384-0.388c1.639-1.231,3.173-1.142,4.605,0.314
			C163.164,84.798,163.955,87.625,164.746,90.454z"/>
		<path fill="#DCDCDC" d="M148.017,162.472c1.615,7.45,8.166,9.061,14.531,10.888c-0.039,1.407-0.076,2.813-0.113,4.218
			c-2.275,0.715-4.553,1.432-6.826,2.146c-7.076,6.649-16.504,9.104-25.438,12.241c-7.603,2.672-9.322-2.277-9.857-7.986
			c0.785-4.639,4.046-8.217,5.992-12.356c3.986-2.896,8.324-5.32,12.426-8.08C141.623,161.646,144.582,160.153,148.017,162.472z"/>
		<path fill="#C6C6C6" d="M88.563,27.352c3.231,1.701,7.899,8.455,7.57-2.041c-0.098-3.104-0.049-6.517,3.803-8.248
			c2.512,6.626,8.082,10.181,17.681,12.22c5.592,1.189-2.058,7.316,3.282,8.976c-1.146-0.132-2.444,0.021-3.413-0.439
			c-10.793-5.148-18.333-4.128-19.697,10.918c-2.541-13.601-11.695-8.12-18.643-8.34c-1.397-6.5-4.16-13.021,0.295-19.443
			c3.662-1.563,4.712,1.071,5.996,3.29c0.454,0.577,0.966,1.137,1.521,1.643C87.514,26.339,88.054,26.829,88.563,27.352z"/>
		<path fill="#F5F5F5" d="M26.256,140.556c-3.97-7.681-4.952-15.854-4.519-24.26c2.621-0.795,5.337-0.731,8.043-0.813
			c5.123-0.64,7.702,3.597,11.582,5.345c0.804,0.717,1.461,1.545,1.998,2.459c1.838,3.211,4.487,5.994,5.711,9.541
			c1.745,4.349,6.26,8.157,2.961,13.485c-1.822,1.599-4.069,1.72-6.375,1.614c-2.389-0.181-4.502-1.32-5.343-3.224
			C37.297,137.891,32.126,138.356,26.256,140.556z"/>
		<path fill="#BEBEBE" d="M47.076,99.071c7.762,0.695,14.854-2.104,22.075-3.972c9.095-2.348,17.706-1.292,26.201,2.074
			c-1.762,4.859-6.414,4.459-10.485,5.111c-4.861,0.779-10.075,0.149-14.365,3.187c-1.945,1.123-4.134,1.237-6.321,1.336
			c-2.113,0.158-4.212,0.438-6.28,0.902c-5.593,0.216-11.345-0.515-16.496,2.425c-1.739-0.178-3.147-0.855-3.988-2.374
			c2.001-3.356,2.638-6.954,2.123-10.75c0.917,0.023,1.84,0.047,2.762,0.071C43.667,98.23,45.913,97.495,47.076,99.071z"/>
		<path fill="#B0B0B0" d="M56.146,168.743c-5.594-2.502-7.878-8.804-13.939-10.771c0.034-1.456,0.069-2.91,0.106-4.364
			c-0.517-3.104-3.671-7.221,3.25-7.457c8.365,2.652,10.052,10.898,15.304,16.17C60.808,165.454,59.494,167.766,56.146,168.743z"/>
		<path fill="#C9C9C9" d="M162.375,81.971c-1.535-0.103-3.069-0.209-4.606-0.314c-0.106-2.797-9.021-2.672-2.229-8.382
			c4.203-3.53-3.551-4.734-5.299-7.762c5.844-2.46,9.039,4.802,14.375,3.402C163.871,73.268,163.121,77.619,162.375,81.971z"/>
		<path fill="#CDCDCD" d="M44.73,146.958c-0.806,2.215-1.611,4.434-2.417,6.651c-3.202-6.7-7.142-12.597-16.061-13.055
			c8.985-9.156,12.864,0.26,18.185,4.432c0.968,0.319,1.332,0.718,1.098,1.192C45.285,146.696,45.016,146.958,44.73,146.958z"/>
		<path fill="#CECECE" d="M79.25,40.317c0,4.986,0,9.97,0,14.951c-2.941-4.178-2.839-9.399-7.04-12.717
			C74.556,41.808,76.902,41.064,79.25,40.317z"/>
		<path fill="#B4B4B4" d="M28.319,118.895c-2.194-0.864-4.39-1.729-6.583-2.598c1.196-4.477,4.479-6.833,9.033-7.901
			c0.815,0.693,1.541,1.462,2.175,2.309c1.285,3.173,0.966,6.059-1.705,8.528C30.182,119.741,29.206,119.661,28.319,118.895z"/>
		<path fill="#A0A0A0" d="M95.038,221.237c0.922-1.497,1.849-2.995,2.772-4.495c1.207-1.127,1.793-3.43,4.334-2.027
			c2.17,3.522,0.787,7.146,0.347,10.744c-2.079-1.694-4.207-3.239-7.225-2.198C95.283,222.575,95.204,221.903,95.038,221.237z"/>
		<path fill="#C0C0C0" d="M39.99,168.45c-0.006,7.428-0.01,14.848-0.017,22.271C36.412,183.295,36.62,175.874,39.99,168.45z"/>
		<path fill="#C4C4C4" d="M65.412,44.729c-1.113,3.671-2.225,7.34-3.518,11.603c-1.296-3.5-2.391-6.456-3.485-9.416
			C60.743,46.187,63.078,45.458,65.412,44.729z"/>
		<path fill="#BBBBBB" d="M72.445,216.741c5.299,0.245,10.598,0.486,15.894,0.729c-0.047,0.292,0.006,0.772-0.156,0.851
			c-0.669,0.321-1.403,0.521-2.115,0.767C81.454,218.694,76.552,219.773,72.445,216.741z"/>
		<path fill="#CECECE" d="M158,60.046c-3.321-5.75-3.354-11.532-0.188-17.345C157.875,48.483,157.937,54.265,158,60.046z"/>
		<path fill="#BEBEBE" d="M88.563,27.352c-0.777-0.001-1.553-0.005-2.33-0.006c-3.28-1.743-2.019-4.806-2.427-7.385
			c0.008-0.459,0.017-0.917,0.027-1.373c0.75-1.512,1.499-3.021,2.247-4.534C89.146,18.113,88.36,22.816,88.563,27.352z"/>
		<path fill="#CECECE" d="M134.742,38.271c0.791-1.498,1.578-2.998,2.368-4.496c3.554,1.853,7.423,2.323,11.396,2.35
			C144.25,38.736,139.433,38.163,134.742,38.271z"/>
		<path fill="#AEAEAE" d="M30.713,109.9c0.021-0.505,0.039-1.006,0.054-1.505c2.217-0.208,4.434-0.419,6.651-0.631
			c1.574,0.069,3.147,0.136,4.723,0.202c1.9,0.382,3.076,1.376,3.167,3.301c-0.593,1.745-1.925,2.708-3.755,3.143
			C37.325,114.209,33.03,114.159,30.713,109.9z"/>
		<path fill="#C8C8C8" d="M39.874,190.649c0.807-0.012,1.611-0.021,2.417-0.03c1.291,1.455,3.175,2.207,4.623,3.476
			c1.215,1.71,1.438,3.438,0.128,5.202c-0.064,0.771-0.129,1.543-0.195,2.315C42.538,199.077,39.979,195.555,39.874,190.649z"/>
		<path fill="#D0D0D0" d="M123.142,14.254c-3.025-2.376-7.57-3.688-6.869-8.681C119.66,7.695,122.382,10.289,123.142,14.254z"/>
		<path fill="#BABABA" d="M83.832,29.509c-1.463-2.853-2.93-5.706-4.393-8.559c1.466-0.787,2.931-1.573,4.395-2.361
			c-0.001,0,0.033,0.018,0.033,0.018C85.674,22.245,85.738,25.88,83.832,29.509z"/>
		<path fill="#C6C6C6" d="M46.794,201.526c4.38,0.759,7.406,3.173,9.385,6.853C52.118,207.231,49.029,204.9,46.794,201.526z"/>
		<path fill="#C0C0C0" d="M104.743,5.433c-3.696,2.596-7.472,2.688-11.317,0.308C97.201,5.638,100.97,5.535,104.743,5.433z"/>
		<path fill="#A0A0A0" d="M169.148,205.89c0.068-4.388,0.139-8.781,0.205-13.173C172.269,197.148,172.382,201.543,169.148,205.89z"
			/>
		<path fill="#A1A1A1" d="M121.265,230.116c3.732-0.225,7.472-0.445,11.207-0.675C128.912,232.211,125.166,232.301,121.265,230.116z
			"/>
		<path fill="#929292" d="M86.825,250.848c-0.465,0.449-0.962,0.93-1.46,1.415c-0.428-0.396-0.855-0.794-1.284-1.192
			c0.505-0.475,1.01-0.95,1.515-1.427C86.015,250.053,86.433,250.461,86.825,250.848z"/>
		<path fill="#747474" d="M66.852,103.544c7.693-9.287,18.695-5.455,28.499-6.373c23.127,3.039,43.938-2.468,62.802-15.127
			c-2.056,6.38-7.821,9.77-13.097,12.999c-15.645,9.579-31.701,18.56-47.594,27.777c-5.15,0.537-9.732-1.481-14.485-2.784
			c-3.746-1.555-6.776-4.228-10.461-5.896c-1.962-0.853-4.079-1.464-5.422-3.233C65.425,108.495,64.503,106.065,66.852,103.544z"/>
		<path fill="#CECECE" d="M96.175,82.786c-0.7-9.248-2.117-15.386-3.819-21.461C99.607,66.225,101.535,72.254,96.175,82.786z"/>
		<path fill="#CCCCCC" d="M47.076,99.071c-1.592-0.662-3.184-1.326-4.773-1.986c1.546-2.708-2.498-4.318-1.539-7.128
			C46.07,91.133,46.305,95.27,47.076,99.071z"/>
		<path fill="#C7C7C7" d="M61.222,90.366c-0.438-2.999-0.875-5.997-1.314-8.996C63.412,83.858,63.166,86.981,61.222,90.366z"/>
		<path fill="#C8C8C8" d="M113.944,55.656c-2.888,2.691-6.531,4.797-7.921,8.661c-1.271-5.949,2.139-8.232,7.925-8.657
			L113.944,55.656z"/>
		<path fill="#C4C4C4" d="M123.083,72.904c4.539,3.444,4.317,5.89,3.06,8.844C125.367,79.504,124.593,77.267,123.083,72.904z"/>
		<path fill="#C2C2C2" d="M149.816,42.592c-0.586,0.579-1.137,1.361-1.344,1.29c-0.967-0.349-2.201-0.727-2.68-1.472
			c-0.99-1.556,0.611-1.591,1.479-1.367C148.183,41.277,148.943,42.034,149.816,42.592z"/>
		<path fill="#CECECE" d="M120.851,38.242c4.646,0,9.287,0,13.932,0.002C130.138,40.93,125.496,40.918,120.851,38.242z"/>
		<path fill="#C8C8C8" d="M113.948,55.66c1.192-1.628,2.047-3.621,4.557-3.827c0.148-0.011,0.556,0.559,0.49,0.758
			c-0.754,2.345-3.011,2.555-5.052,3.063L113.948,55.66z"/>
		<path fill="#B7B7B7" d="M125.585,183.944c-1.277,6.38,2.104,6.605,7.039,4.703c7.666-2.959,15.318-5.948,22.979-8.928
			c-1.361,6.443-7.32,7.941-12.529,9.947c-8.854,3.412-17.878,6.43-26.832,9.615c-1.762-1.113-2.729-2.689-3.057-4.644
			C114.259,187.924,116,181.897,125.585,183.944z"/>
		<path fill="#AEAEAE" d="M116.261,195.028c-0.006,1.418-0.014,2.837-0.02,4.255c-2.302,1.457-4.604,2.911-6.908,4.367
			c-2.888,0.234-4.438,1.742-4.756,4.43c-0.81,2.209-1.619,4.424-2.431,6.637c-1.447,0.677-2.893,1.354-4.338,2.027
			c0.43-4.543,4.429-9.048-2.039-13.399c-2.717-1.831,2.705-2.578,4.025-4.159c0.745-0.928,1.488-1.856,2.225-2.797
			C106.347,192.013,110.874,189.517,116.261,195.028z"/>
		<path fill="#D8D8D8" d="M104.578,208.077c-2.355-5.231-0.836-6.771,4.757-4.425C107.75,205.124,106.164,206.6,104.578,208.077z"/>
		<path fill="#DDDDDD" d="M116.261,195.028c-4.509,1.332-9.021,2.666-13.531,3.998c-4-2.38-3.438-8.506-8.943-9.651
			c-7.383-1.07-7.485-6.418-7.739-11.674c-1.498-1.404-2.997-2.81-4.496-4.211c-2.205-6.06,5.083-10.093,3.828-15.947
			c6.202-12.582,18.676-17.754,30.915-23.203c7.396,2.596,13.896,5.201,20.668-2.853c4.22-5.012,12.418-0.803,13.701,6.834
			c1.369,8.148,1.738,16.446-2.645,24.151c-1.313,2.122-2.627,4.243-3.936,6.364c-4.051,3.183-11.115-2.017-13.979,4.459
			c-0.022,4.108-2.194,7.408-4.519,10.646C121.291,186.747,119.167,191.183,116.261,195.028z"/>
		<path fill="#B8B8B8" d="M116.292,134.338c-8.021,9.162-20.286,13.937-27.684,23.746c-4.017-1.953-3.334-5.529-3.445-8.818
			c1.74-5.729,4.934-11.608-1.684-16.615c-0.739-4.396,0.116-8.921-1.218-13.265c0.271-0.992,0.792-1.846,1.571-2.562
			c7.361-3.686,8.985,4.2,13.628,5.996c-1.833,3.183-9.961,3.794-5.116,9.62c5.001,6.02,8.343-1.086,12.476-2.094
			c2.275,1.604,4.471,1.479,6.591-0.273C113.037,131.493,114.667,132.917,116.292,134.338z"/>
		<path fill="#D9D9D9" d="M111.411,130.071c-1.243,3.161-2.997,5.722-7.187,5.406c0.197-1.71,0.396-3.421,0.598-5.132
			c0.498-0.534,1.1-0.929,1.801-1.187C108.218,129.463,109.814,129.767,111.411,130.071z"/>
		<path fill="#B1B1B1" d="M136.155,118.479c1.14-0.508,2.354-1.053,3.573-1.599c0.148,0.563,0.604,1.474,0.402,1.633
			c-1.033,0.808-2.238,1.416-3.383,2.097C136.593,120.055,136.437,119.495,136.155,118.479z"/>
		<path fill="#E2E2E2" d="M86.047,177.7c3.074,3.563,6.147,7.129,9.221,10.692c1.408,0.738,1.406,1.474-0.011,2.202
			c-14.796,9.175-31.407,9.427-48.215,8.7c-0.822-1.439-1.646-2.875-2.468-4.313c1.443-7.107,8.667-0.73,11.584-4.402
			C65.421,184.844,78.012,185.959,86.047,177.7z"/>
		<path fill="#BDBDBD" d="M95.258,190.598c0.006-0.731,0.01-1.471,0.015-2.204c4.336,2.396,5.864,6.533,7.458,10.637
			c-0.973,0.049-1.952,0.102-2.932,0.151C98.283,196.321,96.771,193.458,95.258,190.598z"/>
		<path fill="#A7A7A7" d="M88.615,146.879c-0.001,3.733-0.003,7.468-0.004,11.205c0.404,6.254-2.773,11.051-7.06,15.398
			c-5.699,1.4-10.535,0.516-13.772-4.607c-0.224-3.656,2.761-5.401,5.062-7.553c8.697-13.246,8.516-17.666-1.227-28.945
			c-0.68-1.504-1.507-2.955-1.917-4.57c-0.134-1.166,0.047-2.274,0.521-3.354c0.636-1.011,1.45-1.865,2.433-2.578
			c1.083-0.588,2.252-0.877,3.499-0.885c8.875,0.758,7.215,9.438,11.54,13.623C91.408,138.473,91.096,142.606,88.615,146.879z"/>
		<path fill="#EFEFEF" d="M74.762,164.542c-1.39,2.787-3.9,3.971-6.982,4.334c-1.349-0.021-2.702-0.043-4.052-0.065
			c-4.073-0.415-4.12-3.853-5.395-6.37c-5.966-4.043-8.987-10.385-13.602-15.481c-0.098-0.657-0.195-1.313-0.29-1.969
			c2.312-0.039,4.625-0.082,6.938-0.123c6.799,2.192,11.812,7.28,18.419,9.938C73.731,156.388,75.869,160.047,74.762,164.542z"/>
		<path fill="#C3C3C3" d="M58.332,162.439c2.792,1.377,4.375,3.66,5.388,6.37c-2.537,1.664-5.068,1.906-7.576-0.063
			C56.875,166.641,57.604,164.54,58.332,162.439z"/>
		<path fill="#DDDDDD" d="M56.159,190.584c-3.86,1.468-7.722,2.938-11.583,4.404c-0.761-1.457-1.522-2.914-2.284-4.371
			C46.914,190.61,51.536,190.596,56.159,190.584z"/>
		<path fill="#B6B6B6" d="M130.103,173.297c0.656-12.604,9.925-1.291,13.979-4.461C139.421,170.323,134.763,171.81,130.103,173.297z
			"/>
		<path fill="#DADADA" d="M83.832,29.509c0.011-3.633,0.023-7.268,0.035-10.904c2.027,2.618,2.308,5.653,2.366,8.741
			c0.587,2.203,4.688,4.281,1.838,6.271C86.366,34.807,85.106,31.154,83.832,29.509z"/>
		<path fill="#DEDEDE" d="M74.762,164.542c-7.252-7.127-19.756-8.724-23.382-19.676c-2.208-3.683-4.413-7.365-6.618-11.045
			c0.893-1.482,1.67-3.046,3.17-4.113c4.033-1.73,8.328-0.896,12.514-1.123c4.821-0.406,9.559,0.746,14.36,0.685
			c9.837,7.604,10.015,17.742,8.41,28.356C82.515,162.247,79.713,164.545,74.762,164.542z"/>
		<path fill="#CFCFCF" d="M47.2,131.317c-0.814,0.836-1.628,1.67-2.442,2.504c-1.469-2.948-2.939-5.896-4.414-8.842
			c2.355-7.1,10.711-5.274,15.264-9.107c3.091-0.627,6.09-1.572,9.144-2.318c4.566,0.087,8.011-1.575,9.918-5.634
			c3.054,2.965,6.108,5.934,9.161,8.901c0.12,0.597,0.234,1.191,0.349,1.786c-1.151,5.268-6.062,3.608-9.538,4.594l0.022,0.172
			c-0.979,0.373-2.309,0.4-2.133,1.914c0.076,0.698,0.138,1.397,0.187,2.102c-3.324,3.673-7.858,1.75-11.859,2.279
			C56.251,129.784,51.532,129.12,47.2,131.317z"/>
		<path fill="#B5B5B5" d="M56.007,118.985c-2.667,7.917-11.24,2.158-15.663,5.998c-0.187-0.563-0.35-1.13-0.489-1.702
			c-1.289-1.578-1.533-3.271-0.632-5.09c1.708-2.188,4.213-2.502,6.82-2.581c1.898-0.04,3.796-0.002,5.679,0.26
			C53.653,116.294,55.172,117.222,56.007,118.985z"/>
		<path fill="#CCCCCC" d="M40.002,118.847c-0.05,1.479-0.098,2.954-0.149,4.431c-3.845-1.459-7.689-2.924-11.535-4.385
			c0.764-0.061,1.528-0.097,2.295-0.109C33.765,116.059,36.926,112.102,40.002,118.847z"/>
		<path fill="#DCDCDC" d="M44.482,110.113c-0.78-0.717-1.56-1.433-2.343-2.146c3.873-6.146,9.986-5.048,15.967-4.372
			c4.139,2.492,6.373,5.479,2.895,9.938C54.605,116.211,48.58,117.297,44.482,110.113z"/>
		<path fill="#D9D9D9" d="M66.852,103.544c1.076,2.154,2.15,4.306,3.226,6.457c1.602,0.956,3.194,2.48,2.2,4.042
			c-1.53,2.408-4.431,1.333-6.85,1.217c-1.878-0.654-3.087-1.849-3.425-3.752c-0.208-3.438-1.848-7.021,1.136-10.144
			C64.376,102.09,65.616,102.816,66.852,103.544z"/>
		<path fill="#989898" d="M63.14,101.363c-0.029,3.625-0.06,7.248-0.09,10.875c-0.737,0.508-1.477,0.535-2.217,0.009
			c-0.906-2.885-1.812-5.77-2.722-8.652C59.786,102.85,61.463,102.107,63.14,101.363z"/>
		<path fill="#E1E1E1" d="M40.002,118.847c-3.129-0.021-6.258-0.043-9.388-0.063c-1.725-2.978-1.633-5.938,0.097-8.885
			c4.057,0.017,7.988,0.546,11.57,2.509c2.281,1.569,11.268-1.195,4.529,6.21C44.542,118.694,42.271,118.77,40.002,118.847z"/>
		<path fill="#CCCCCC" d="M46.81,118.618c1.37-3.933-2.571-4.431-4.528-6.212c0.734-0.765,1.468-1.531,2.202-2.297
			c5.226,2.236,10.787,2.188,16.349,2.137c0.739,0.009,1.479,0.004,2.218-0.009c0.816,0.631,1.634,1.263,2.451,1.894
			c-1.082,1.792-2.95,2.573-4.835,3.329c-2.888,0.815-6.137-0.74-8.851,1.201C50.148,118.647,48.478,118.63,46.81,118.618z"/>
		<path fill="#A7A7A7" d="M60.951,116.431c1.517-0.765,3.034-1.527,4.552-2.296c3.254,0.317,5.333-0.516,4.576-4.134
			c1.532-0.692,3.061-1.385,4.594-2.082c0.259,6.261-3.278,8.891-9.572,8.882C63.602,117.813,62.194,117.939,60.951,116.431z"/>
		<path fill="#D2D2D2" d="M74.643,123.202c2.635-2.529,5.937-3.832,9.535-4.591c7.936,3.437,2.747,8.658,2.031,13.269
			c0.756,0.537,0.992,1.05,0.709,1.543c-0.275,0.484-0.543,0.727-0.811,0.727C82.63,130.18,79.581,125.813,74.643,123.202z"/>
		<path fill="#E9E9E9" d="M86.105,134.149c0.032-0.757,0.067-1.514,0.102-2.271c3.974,3.238,7.949,6.476,12.507,10.188
			c-4.188,1.998-7.146,3.406-10.101,4.815C87.778,142.636,86.943,138.393,86.105,134.149z"/>
		<path fill="#CFCFCF" d="M57.713,127.872c5-0.16,9.999-0.32,15.001-0.48c0.7,0.628,1.395,1.253,2.091,1.879
			c-4.378,3.101-9.432,2.62-14.434,2.407C59.067,130.667,57.306,129.941,57.713,127.872z"/>
		<path fill="#BABABA" d="M72.534,125.288c-0.812-0.595-2.41-1.549-2.315-1.729c1.269-2.464,2.912-0.545,4.448-0.188
			C73.953,124.013,73.244,124.653,72.534,125.288z"/>
		<path fill="#B4B4B4" d="M58.365,138.547c2.585,0.021,5.207-0.204,7.746,0.137c2.944,0.394,6.594,1.24,6.557,4.525
			c-0.05,4.787-4.62,3.187-7.63,3.61C60.223,145.915,57.556,143.475,58.365,138.547z"/>
		<path fill="#868686" d="M58.365,138.547c2.227,2.76,4.451,5.518,6.674,8.27C54.644,149.907,55.29,145.096,58.365,138.547z"/>
		<path fill="#727272" d="M57.713,127.872c0.887,1.27,1.772,2.539,2.661,3.804c-4.393-0.119-8.782-0.236-13.173-0.358
			C49.902,127.995,53.955,128.333,57.713,127.872z"/>
		<path fill="#EDEDED" d="M60.951,116.431c1.384,0.122,2.768,0.244,4.152,0.367c-3.032,0.729-6.063,1.457-9.094,2.188
			c-1.401-0.104-2.798-0.213-4.194-0.317C54.536,116.74,57.784,116.73,60.951,116.431z"/>
	</g>
</g>
<g>
	<path fill="none" stroke="#626262" stroke-miterlimit="10" d="M115.011,3.164c36.063,0,72.123,0.088,108.186-0.12
		c4.256-0.025,5.645,1.434,5.635,7.544c-0.139,89.63-0.138,179.256,0,268.883c0.01,6.08-1.345,7.572-5.623,7.562
		c-72.266-0.164-144.532-0.156-216.797-0.011c-4.067,0.009-5.417-1.438-5.409-7.237c0.122-89.82,0.122-179.646,0-269.473
		c-0.009-5.777,1.31-7.28,5.395-7.261C42.599,3.245,78.806,3.164,115.011,3.164z"/>
	<path fill="none" stroke="#626262" stroke-miterlimit="10" d="M177.675,283.375c0.344,0.158,0.68,0.365,1.029,0.43 M47.558,283.698
		c0.104,0.067,0.207,0.137,0.31,0.2c0.054-0.143,0.108-0.284,0.163-0.428"/>
	<path fill="none" stroke="#626262" stroke-miterlimit="10" d="M152.814,285.694c1.174-2.711,2.348-2.711,3.521,0
		C155.162,285.694,153.988,285.694,152.814,285.694z"/>
	<path fill="none" stroke="#626262" stroke-miterlimit="10" d="M178.705,283.803c-0.353-0.063-0.688-0.268-1.029-0.43"/>
	<path fill="none" stroke="#626262" stroke-miterlimit="10" d="M48.03,283.471c-0.054,0.144-0.108,0.285-0.163,0.428
		c-0.104-0.063-0.207-0.133-0.311-0.202"/>
	<path fill="none" stroke="#626262" stroke-miterlimit="10" d="M3.687,179.377c-0.307-0.422-0.614-0.84-0.92-1.262
		C3.074,178.54,3.38,178.959,3.687,179.377z"/>
</g>
</svg>
