<?xml version="1.0" encoding="utf-8"?>
<!-- Generator: Adobe Illustrator 15.0.0, SVG Export Plug-In . SVG Version: 6.00 Build 0)  -->
<!DOCTYPE svg PUBLIC "-//W3C//DTD SVG 1.1//EN" "http://www.w3.org/Graphics/SVG/1.1/DTD/svg11.dtd">
<svg version="1.1" id="Layer_1" xmlns="http://www.w3.org/2000/svg" xmlns:xlink="http://www.w3.org/1999/xlink" x="0px" y="0px"
	 width="928.731px" height="1172.252px" viewBox="-585.18 18.986 928.731 1172.252"
	 enable-background="new -585.18 18.986 928.731 1172.252" xml:space="preserve">
<path fill="#FFFFFF" stroke="#000000" stroke-width="1.2656" stroke-linecap="round" stroke-linejoin="round" d="M169.562,638.183
	l0.531,303.727"/>
<path fill="#FFFFFF" stroke="#000000" stroke-width="1.2656" stroke-linecap="round" stroke-linejoin="round" d="M293.366,933.877
	l1.973-223.05v-71.644"/>
<path fill="none" stroke="#000000" stroke-width="2.4889" stroke-linecap="round" stroke-linejoin="round" d="M273.142,861.428"/>
<path fill="none" stroke="#000000" stroke-width="2.4889" stroke-linecap="round" stroke-linejoin="round" d="M189.419,766.198"/>
<path fill="none" stroke="#000000" stroke-width="2.4889" stroke-linecap="round" stroke-linejoin="round" d="M274.327,767.714"/>
<path fill="none" stroke="#000000" stroke-width="2.4889" stroke-linecap="round" stroke-linejoin="round" d="M190.604,672.485"/>
<path fill="#CECECE" stroke="#000000" stroke-width="0.0422" stroke-linecap="round" stroke-linejoin="round" d="M218.362,884.063
	l-0.117,18.698l-8.063,4.032l-6.466,4.45l-5.879,5.88l-4.368,6.381l-3.275,7.979l-1.682,8.06l0.42,8.818l1.847,7.054l2.267,5.12
	l3.191,4.703l4.029,4.03l5.962,4.281l6.97,3.274l8.145,1.427l8.314-0.254l7.557-1.847l7.307-3.276l6.721-4.871l4.786-5.122
	l4.366-7.39l3.359-9.237l1.261-6.972l-0.673-7.894l-2.687-8.563l-4.448-7.306l-3.442-3.61l-3.441-3.105l-6.804-3.946l-1.764-0.757
	l-0.607-26.63C233.595,880.006,226.055,882.498,218.362,884.063z"/>
<path stroke="#000000" stroke-width="1.2656" stroke-linecap="round" stroke-linejoin="round" d="M169.994,880.154
	c-0.02,0.397-0.302,60.146-0.313,61.759c-0.018,2.266-0.028,4.877-0.027,5.444c0,28.175,20.242,47.189,47.261,51.717
	c4.104,0.688,9.17,34.426,13.539,34.426c3.849,0,6.844-33.739,10.562-34.417c26.455-4.823,48.565-26.014,51.332-52.19
	c0.192-1.821,1.18-65.15,1.18-67.019"/>
<path fill="none" stroke="#000000" stroke-width="1.2656" stroke-linecap="round" stroke-linejoin="round" d="M169.922,653.01
	c-0.047-1.458-0.075-12.037-0.075-13.511c0-45.243,32.86-80.133,65.991-80.133c33.133,0,59.992,39.958,59.992,89.246"/>
<path fill="none" stroke="#000000" stroke-width="2.4889" stroke-linecap="round" stroke-linejoin="round" d="M343.551,861.8"/>
<path fill="none" stroke="#000000" stroke-width="2.4889" stroke-linecap="round" stroke-linejoin="round" d="M139.964,687.941"/>
<path fill="none" stroke="#000000" stroke-width="2.1" d="M295.022,937.646"/>
<path fill="none" stroke="#000000" stroke-width="2.1" d="M295.034,861.423"/>
<path fill="none" stroke="#000000" stroke-width="2.2231" d="M289.215,674.521"/>
<path fill="#FFFFFF" stroke="#000000" stroke-width="1.2656" stroke-linecap="round" stroke-linejoin="round" d="M257.822,36.126
	c0-9.117-5.372-16.507-12-16.507h-29.84c-6.627,0-12,7.391-12,16.507v539.503c0,9.118,5.373,16.507,12,16.507h29.84
	c6.628,0,12-7.39,12-16.507V36.126z"/>
<path fill="none" stroke="#000000" stroke-width="2.1" d="M210.616,494.176l7.67,0.001"/>
<path fill="none" stroke="#000000" stroke-width="2.1" d="M210.616,483.834l7.67,0.001"/>
<path fill="none" stroke="#000000" stroke-width="2.1" d="M210.604,473.495h7.669"/>
<path fill="none" stroke="#000000" stroke-width="2.1" d="M210.604,463.152l7.67,0.001"/>
<path fill="none" stroke="#000000" stroke-width="2.1" d="M209.049,452.672l10.613-0.001"/>
<path fill="none" stroke="#000000" stroke-width="2.1" d="M210.649,442.123h7.669"/>
<path fill="none" stroke="#000000" stroke-width="2.1" d="M210.648,431.78h7.669"/>
<path fill="none" stroke="#000000" stroke-width="2.1" d="M210.639,421.438h7.669"/>
<path fill="none" stroke="#000000" stroke-width="2.1" d="M210.638,411.096l7.669,0.001"/>
<path fill="none" stroke="#000000" stroke-width="2.1" d="M209.083,400.62H219.7"/>
<path fill="none" stroke="#000000" stroke-width="2.1" d="M210.642,390.096l7.669-0.001"/>
<path fill="none" stroke="#000000" stroke-width="2.1" d="M210.629,379.753h7.67"/>
<path fill="none" stroke="#000000" stroke-width="2.1" d="M210.631,369.415h7.668"/>
<path fill="none" stroke="#000000" stroke-width="2.1" d="M209.075,358.934h10.613"/>
<path fill="none" stroke="#000000" stroke-width="2.1" d="M209.075,307.292h10.613"/>
<path fill="none" stroke="#000000" stroke-width="2.1" d="M210.665,348.6h7.67"/>
<path fill="none" stroke="#000000" stroke-width="2.1" d="M210.665,338.257h7.67"/>
<path fill="none" stroke="#000000" stroke-width="2.1" d="M210.653,327.915h7.67"/>
<path fill="none" stroke="#000000" stroke-width="2.1" d="M210.654,317.576h7.669"/>
<path fill="none" stroke="#000000" stroke-width="2.1" d="M210.685,296.969h7.67"/>
<path fill="none" stroke="#000000" stroke-width="2.1" d="M210.685,286.411l7.67,0.002"/>
<path fill="none" stroke="#000000" stroke-width="2.1" d="M210.676,276.069h7.669"/>
<path fill="none" stroke="#000000" stroke-width="2.1" d="M210.674,265.73h7.67"/>
<path fill="none" stroke="#000000" stroke-width="2.1" d="M209.118,255.25h10.614"/>
<path fill="none" stroke="#000000" stroke-width="2.1" d="M211.665,244.833h5.795"/>
<path fill="none" stroke="#000000" stroke-width="2.1" d="M211.606,244.861h5.796"/>
<path fill="none" stroke="#000000" stroke-width="2.1" d="M210.661,244.729l7.67-0.001"/>
<path fill="none" stroke="#000000" stroke-width="2.1" d="M210.661,234.387h7.67"/>
<path fill="none" stroke="#000000" stroke-width="2.1" d="M210.65,224.044h7.669"/>
<path fill="none" stroke="#000000" stroke-width="2.1" d="M210.65,213.704h7.669"/>
<path fill="none" stroke="#000000" stroke-width="2.1" d="M209.094,203.224h10.615"/>
<path fill="none" stroke="#000000" stroke-width="2.1" d="M210.668,193.026l7.67-0.001"/>
<path fill="none" stroke="#000000" stroke-width="2.1" d="M210.67,182.685h7.668"/>
<path fill="none" stroke="#000000" stroke-width="2.1" d="M210.659,172.343h7.668"/>
<path fill="none" stroke="#000000" stroke-width="2.1" d="M210.659,162.001h7.668"/>
<path fill="none" stroke="#000000" stroke-width="2.1" d="M209.102,151.522h10.615"/>
<path fill="none" stroke="#000000" stroke-width="1.9012" d="M211.648,141.427h5.795"/>
<path fill="none" stroke="#000000" stroke-width="2.1" d="M210.706,141.354h7.668"/>
<path fill="none" stroke="#000000" stroke-width="2.1" d="M210.706,131.014l7.668-0.001"/>
<path fill="none" stroke="#000000" stroke-width="2.1" d="M210.695,120.672l7.668,0.001"/>
<path fill="none" stroke="#000000" stroke-width="2.1" d="M210.695,110.33h7.668"/>
<path fill="none" stroke="#000000" stroke-width="2.1" d="M209.138,99.851h10.614"/>
<path fill="none" stroke="#000000" stroke-width="2.1" d="M209.139,50.818h10.613"/>
<path fill="none" stroke="#000000" stroke-width="2.1" d="M210.655,89.716h7.668"/>
<path fill="none" stroke="#000000" stroke-width="2.1" d="M210.654,79.376h7.669"/>
<path fill="none" stroke="#000000" stroke-width="2.1" d="M210.644,69.034h7.669"/>
<path fill="none" stroke="#000000" stroke-width="2.1" d="M210.645,58.693l7.669,0.001"/>
<path fill="none" stroke="#000000" stroke-width="2.2231" d="M206.689,58.156"/>
<path fill="none" stroke="#000000" stroke-width="2.1" d="M211.633,545.863l5.796-0.001"/>
<path fill="none" stroke="#000000" stroke-width="2.1" d="M211.577,545.887h5.795"/>
<path fill="none" stroke="#000000" stroke-width="2.1" d="M210.629,545.757h7.67"/>
<path fill="none" stroke="#000000" stroke-width="2.1" d="M210.629,535.415l7.67,0.001"/>
<path fill="none" stroke="#000000" stroke-width="2.1" d="M210.62,525.073h7.67"/>
<path fill="none" stroke="#000000" stroke-width="2.1" d="M210.62,514.733h7.67"/>
<path fill="none" stroke="#000000" stroke-width="2.1" d="M209.063,504.252l10.615,0.001"/>
<path fill="none" stroke="#000000" stroke-width="2.4889" stroke-linecap="round" stroke-linejoin="round" d="M234.689,145.304"/>
<path fill="none" stroke="#000000" stroke-width="2.4889" stroke-linecap="round" stroke-linejoin="round" d="M235.499,56.94"/>
<g>
	<path d="M238.357,197.616h-6.942v-2.142h8.975v1.538c-3.299,5.822-3.975,10.196-4.215,17.708h-1.855
		C234.559,207.48,235.606,202.895,238.357,197.616z"/>
	<path d="M242.27,205.037c0-6.456,1.682-9.925,4.477-9.925c2.772,0,4.455,3.469,4.455,9.925s-1.683,10.045-4.455,10.045
		C243.95,215.082,242.27,211.492,242.27,205.037z M249.454,205.037c0-5.641-1.093-7.934-2.709-7.934
		c-1.637,0-2.729,2.292-2.729,7.934s1.092,8.055,2.729,8.055C248.361,213.091,249.454,210.678,249.454,205.037z"/>
</g>
<g>
	<path d="M233.969,155.896v-0.121c-1.026-0.996-1.943-2.413-1.943-4.435c0-2.956,1.703-4.947,3.952-4.947
		c2.424,0,3.931,2.142,3.931,5.128c0,2.021-1.07,3.741-1.922,4.646v0.121c1.244,0.996,2.424,2.353,2.424,4.948
		c0,2.866-1.791,5.128-4.498,5.128c-2.619,0-4.563-2.232-4.563-5.279C231.349,158.582,232.659,156.862,233.969,155.896z
		 M235.956,164.524c1.615,0,2.729-1.388,2.729-3.379c0-2.474-1.769-3.378-3.776-4.495c-1.113,1.025-1.943,2.443-1.943,4.193
		C232.963,162.986,234.252,164.524,235.956,164.524z M238.357,151.643c0-1.9-0.896-3.409-2.424-3.409
		c-1.288,0-2.249,1.237-2.249,3.107c0,2.293,1.527,3.258,3.21,4.163C237.833,154.358,238.357,153.061,238.357,151.643z"/>
	<path d="M242.27,156.319c0-6.456,1.682-9.925,4.477-9.925c2.772,0,4.455,3.469,4.455,9.925s-1.683,10.045-4.455,10.045
		C243.95,166.364,242.27,162.774,242.27,156.319z M249.454,156.319c0-5.641-1.093-7.934-2.709-7.934
		c-1.637,0-2.729,2.292-2.729,7.934s1.092,8.055,2.729,8.055C248.361,164.374,249.454,161.96,249.454,156.319z"/>
</g>
<g>
	<path d="M231.872,313.919c0.83,1.146,1.879,2.202,3.517,2.202c1.702,0,3.058-1.719,3.058-4.404c0-2.655-1.18-4.223-2.97-4.223
		c-0.961,0-1.552,0.422-2.381,1.176l-0.96-0.845l0.457-9.261h6.967v2.142h-5.395l-0.371,5.702c0.656-0.483,1.289-0.785,2.141-0.785
		c2.38,0,4.322,1.871,4.322,6.034c0,4.163-2.271,6.516-4.693,6.516c-2.229,0-3.604-1.297-4.563-2.625L231.872,313.919z"/>
	<path d="M242.27,308.127c0-6.456,1.682-9.925,4.477-9.925c2.772,0,4.455,3.469,4.455,9.925s-1.683,10.045-4.455,10.045
		C243.95,318.173,242.27,314.583,242.27,308.127z M249.454,308.127c0-5.641-1.093-7.934-2.709-7.934
		c-1.637,0-2.729,2.292-2.729,7.934s1.092,8.055,2.729,8.055C248.361,316.182,249.454,313.769,249.454,308.127z"/>
</g>
<g>
	<path d="M224.225,58.039h3.188V43.86h-2.533v-1.599c1.268-0.302,2.185-0.784,2.949-1.417h1.375v17.195h2.883v2.051h-7.861V58.039z"
		/>
	<path d="M234.316,50.406c0-6.456,1.681-9.925,4.476-9.925c2.773,0,4.455,3.469,4.455,9.925c0,6.456-1.682,10.045-4.455,10.045
		C235.997,60.452,234.316,56.862,234.316,50.406z M241.5,50.406c0-5.641-1.092-7.934-2.709-7.934c-1.637,0-2.729,2.292-2.729,7.934
		c0,5.642,1.092,8.055,2.729,8.055C240.409,58.461,241.5,56.047,241.5,50.406z"/>
	<path d="M245.172,50.406c0-6.456,1.681-9.925,4.476-9.925c2.772,0,4.455,3.469,4.455,9.925c0,6.456-1.683,10.045-4.455,10.045
		C246.853,60.452,245.172,56.862,245.172,50.406z M252.355,50.406c0-5.641-1.092-7.934-2.708-7.934
		c-1.637,0-2.729,2.292-2.729,7.934c0,5.642,1.092,8.055,2.729,8.055C251.264,58.461,252.355,56.047,252.355,50.406z"/>
</g>
<g>
	<path d="M233.254,108.564c0.566,0.936,1.418,1.539,2.293,1.539c1.965,0,3.623-2.111,3.688-8.266
		c-0.873,1.539-2.118,2.474-3.274,2.474c-2.401,0-3.953-1.991-3.953-5.943c0-3.68,1.879-6.184,4.105-6.184
		c2.752,0,4.805,3.077,4.805,9.261c0,7.723-2.533,10.709-5.307,10.709c-1.484,0-2.599-0.875-3.363-2.021L233.254,108.564z
		 M239.193,99.876c-0.239-3.74-1.312-5.731-3.079-5.731c-1.354,0-2.424,1.689-2.424,4.223c0,2.504,0.852,4.073,2.576,4.073
		C237.163,102.441,238.254,101.717,239.193,99.876z"/>
	<path d="M242.952,102.109c0-6.456,1.682-9.925,4.477-9.925c2.773,0,4.455,3.469,4.455,9.925s-1.682,10.045-4.455,10.045
		C244.633,112.154,242.952,108.564,242.952,102.109z M250.136,102.109c0-5.641-1.093-7.934-2.708-7.934
		c-1.637,0-2.729,2.292-2.729,7.934s1.092,8.055,2.729,8.055C249.043,110.164,250.136,107.75,250.136,102.109z"/>
</g>
<g>
	<path d="M239.847,248.655c-0.567-0.936-1.419-1.508-2.292-1.508c-1.943,0-3.581,2.082-3.67,8.175
		c0.875-1.479,2.119-2.414,3.255-2.414c2.401,0,3.974,1.991,3.974,5.943c0,3.681-1.878,6.184-4.127,6.184
		c-2.729,0-4.804-3.077-4.804-9.261c0-7.723,2.532-10.709,5.308-10.709c1.506,0,2.575,0.875,3.361,2.051L239.847,248.655z
		 M239.411,258.851c0-2.504-0.853-4.072-2.576-4.072c-0.875,0-1.967,0.724-2.904,2.534c0.219,3.741,1.287,5.762,3.057,5.762
		C238.362,263.075,239.411,261.385,239.411,258.851z"/>
	<path d="M242.952,254.99c0-6.456,1.68-9.925,4.475-9.925c2.773,0,4.455,3.469,4.455,9.925s-1.682,10.045-4.455,10.045
		C244.631,265.035,242.952,261.445,242.952,254.99z M250.135,254.99c0-5.641-1.092-7.934-2.709-7.934
		c-1.637,0-2.729,2.292-2.729,7.934c0,5.642,1.092,8.055,2.729,8.055C249.043,263.044,250.135,260.631,250.135,254.99z"/>
</g>
<g>
	<path d="M240.012,363.515h-1.9v5.309h-1.703v-5.309h-6.267v-1.629l5.961-12.308h2.009v11.946h1.9V363.515z M236.409,361.523v-5.581
		c0-1.025,0.064-2.685,0.108-3.71h-0.087c-0.35,0.936-0.743,1.78-1.137,2.715l-3.254,6.576H236.409z"/>
	<path d="M241.586,359.14c0-6.456,1.682-9.925,4.477-9.925c2.773,0,4.455,3.469,4.455,9.925s-1.682,10.045-4.455,10.045
		C243.268,369.186,241.586,365.596,241.586,359.14z M248.771,359.14c0-5.641-1.092-7.934-2.708-7.934
		c-1.637,0-2.729,2.292-2.729,7.934s1.092,8.055,2.729,8.055C247.679,367.195,248.771,364.781,248.771,359.14z"/>
</g>
<g>
	<path d="M229.89,408.409c0.83,1.207,1.922,2.292,3.56,2.292c1.682,0,2.883-1.388,2.883-3.529c0-2.293-1.136-3.831-4.455-3.831
		v-1.901c2.971,0,3.953-1.568,3.953-3.59c0-1.87-0.918-3.046-2.401-3.046c-1.157,0-2.142,0.814-2.97,1.96l-0.961-1.568
		c1.069-1.388,2.357-2.414,3.996-2.414c2.424,0,4.17,1.78,4.17,4.887c0,2.323-1.026,3.801-2.533,4.585v0.121
		c1.682,0.543,3.014,2.232,3.014,4.887c0,3.409-2.029,5.49-4.585,5.49c-2.228,0-3.646-1.297-4.586-2.715L229.89,408.409z"/>
	<path d="M240.222,402.708c0-6.456,1.681-9.925,4.476-9.925c2.773,0,4.455,3.469,4.455,9.925s-1.682,10.045-4.455,10.045
		C241.902,412.753,240.222,409.163,240.222,402.708z M247.405,402.708c0-5.641-1.092-7.934-2.708-7.934
		c-1.637,0-2.729,2.292-2.729,7.934s1.093,8.055,2.729,8.055C246.313,410.762,247.405,408.349,247.405,402.708z"/>
</g>
<g>
	<path d="M229.278,462.971c4.192-5.762,6.551-9.23,6.551-12.338c0-2.202-0.873-3.771-2.642-3.771c-1.157,0-2.162,1.024-2.97,2.322
		l-1.026-1.418c1.157-1.75,2.401-2.926,4.214-2.926c2.577,0,4.172,2.263,4.172,5.671c0,3.62-2.381,7.21-5.678,11.977
		c0.764-0.09,1.615-0.182,2.336-0.182h4.039v2.143h-8.996V462.971z"/>
	<path d="M240.222,454.765c0-6.456,1.681-9.925,4.476-9.925c2.773,0,4.455,3.469,4.455,9.925s-1.682,10.045-4.455,10.045
		C241.902,464.811,240.222,461.221,240.222,454.765z M247.405,454.765c0-5.641-1.092-7.934-2.708-7.934
		c-1.637,0-2.729,2.292-2.729,7.934c0,5.643,1.093,8.056,2.729,8.056C246.313,462.82,247.405,460.406,247.405,454.765z"/>
</g>
<g>
	<path d="M228.765,515.2h3.188v-14.178h-2.533v-1.6c1.267-0.302,2.184-0.784,2.947-1.417h1.375V515.2h2.883v2.051h-7.86V515.2
		L228.765,515.2z"/>
	<path d="M238.856,507.567c0-6.456,1.682-9.926,4.477-9.926c2.772,0,4.455,3.47,4.455,9.926s-1.683,10.045-4.455,10.045
		C240.538,517.613,238.856,514.023,238.856,507.567z M246.04,507.567c0-5.642-1.092-7.935-2.707-7.935
		c-1.638,0-2.729,2.292-2.729,7.935c0,5.642,1.092,8.055,2.729,8.055C244.948,515.622,246.04,513.208,246.04,507.567z"/>
</g>
<g>
	<path d="M236.191,547.894c0-6.456,1.681-9.925,4.476-9.925c2.773,0,4.455,3.469,4.455,9.925s-1.682,10.046-4.455,10.046
		C237.872,557.939,236.191,554.35,236.191,547.894z M243.375,547.894c0-5.641-1.092-7.934-2.709-7.934
		c-1.637,0-2.729,2.292-2.729,7.934c0,5.643,1.092,8.056,2.729,8.056C242.284,555.949,243.375,553.535,243.375,547.894z"/>
</g>
<path fill="none" stroke="#000000" stroke-width="2.4889" stroke-linecap="round" stroke-linejoin="round" d="M-486.129,402.146"/>
<path fill="none" stroke="#000000" stroke-width="2.4889" stroke-linecap="round" stroke-linejoin="round" d="M-484.944,308.433"/>
<polyline fill="#C6C6C6" stroke="#000000" stroke-width="0.0422" stroke-linecap="round" stroke-linejoin="round" points="
	-515.847,757.783 -517.314,619.259 -538.465,619.777 -538.739,757.447 "/>
<path fill="none" d="M-514.835,147.403l-5.012,521.807l-18.586,6.047v-8l-0.355-519.602"/>
<path fill="none" stroke="#000000" stroke-width="2.1" d="M-534.714,677.286l11.237,0.001"/>
<path fill="none" stroke="#000000" stroke-width="2.1" d="M-534.713,666.318l11.236,0.001"/>
<path fill="none" stroke="#000000" stroke-width="2.1" d="M-534.729,655.354h11.235"/>
<path fill="none" stroke="#000000" stroke-width="2.1" d="M-534.729,644.383l11.237,0.002"/>
<path fill="none" stroke="#000000" stroke-width="2.1" d="M-537.009,633.27h15.552"/>
<path fill="none" stroke="#000000" stroke-width="2.1" d="M-534.663,622.082h11.235"/>
<path fill="none" stroke="#000000" stroke-width="2.1" d="M-534.664,611.112h11.235"/>
<path fill="none" stroke="#000000" stroke-width="2.1" d="M-534.679,600.146h11.235"/>
<path fill="none" stroke="#000000" stroke-width="2.1" d="M-534.68,589.176l11.235,0.001"/>
<path fill="none" stroke="#000000" stroke-width="2.1" d="M-536.96,578.065l15.555,0.001"/>
<path fill="none" stroke="#000000" stroke-width="2.1" d="M-534.675,566.904l11.235-0.001"/>
<path fill="none" stroke="#000000" stroke-width="2.1" d="M-534.691,555.936h11.235"/>
<path fill="none" stroke="#000000" stroke-width="2.1" d="M-534.689,544.971h11.234"/>
<path fill="none" stroke="#000000" stroke-width="2.1" d="M-536.972,533.855h15.551"/>
<path fill="none" stroke="#000000" stroke-width="2.1" d="M-534.64,522.896h11.235"/>
<path fill="none" stroke="#000000" stroke-width="2.1" d="M-534.641,511.927h11.237"/>
<path fill="none" stroke="#000000" stroke-width="2.1" d="M-534.657,500.958l11.237,0.001"/>
<path fill="none" stroke="#000000" stroke-width="2.1" d="M-534.656,489.993h11.236"/>
<path fill="none" stroke="#000000" stroke-width="2.1" d="M-536.938,478.878l15.553,0.001"/>
<path fill="none" stroke="#000000" stroke-width="2.1" d="M-534.611,468.139l11.237,0.001"/>
<path fill="none" stroke="#000000" stroke-width="2.1" d="M-534.612,456.942l11.237,0.001"/>
<path fill="none" stroke="#000000" stroke-width="2.1" d="M-534.625,445.974h11.235"/>
<path fill="none" stroke="#000000" stroke-width="2.1" d="M-534.627,435.009h11.236"/>
<path fill="none" stroke="#000000" stroke-width="2.1" d="M-536.906,423.895h15.551"/>
<path fill="none" stroke="#000000" stroke-width="2.1" d="M-533.177,412.846h8.49"/>
<path fill="none" stroke="#000000" stroke-width="2.1" d="M-533.261,412.876h8.491"/>
<path fill="none" stroke="#000000" stroke-width="2.1" d="M-534.646,412.736l11.235-0.001"/>
<path fill="none" stroke="#000000" stroke-width="2.1" d="M-534.646,401.769l11.235-0.001"/>
<path fill="none" stroke="#000000" stroke-width="2.1" d="M-534.661,390.799h11.235"/>
<path fill="none" stroke="#000000" stroke-width="2.1" d="M-534.661,379.833l11.235-0.001"/>
<path fill="none" stroke="#000000" stroke-width="2.1" d="M-536.942,368.718h15.552"/>
<path fill="none" stroke="#000000" stroke-width="2.1" d="M-534.635,357.902l11.235-0.001"/>
<path fill="none" stroke="#000000" stroke-width="2.1" d="M-534.634,346.935h11.235"/>
<path fill="none" stroke="#000000" stroke-width="2.1" d="M-534.65,335.967h11.235"/>
<path fill="none" stroke="#000000" stroke-width="2.1" d="M-534.65,325h11.236"/>
<path fill="none" stroke="#000000" stroke-width="2.1" d="M-536.932,313.887l15.553-0.001"/>
<path fill="none" stroke="#000000" stroke-width="1.9012" d="M-533.2,303.18h8.491"/>
<path fill="none" stroke="#000000" stroke-width="2.1" d="M-534.582,303.103l11.236-0.001"/>
<path fill="none" stroke="#000000" stroke-width="2.1" d="M-534.581,292.136l11.235-0.001"/>
<path fill="none" stroke="#000000" stroke-width="2.1" d="M-534.596,281.168l11.234,0.001"/>
<path fill="none" stroke="#000000" stroke-width="2.1" d="M-534.596,270.2h11.234"/>
<path fill="none" stroke="#000000" stroke-width="2.1" d="M-536.878,259.086h15.552"/>
<path fill="none" stroke="#000000" stroke-width="2.1" d="M-536.877,207.085h15.551"/>
<path fill="none" stroke="#000000" stroke-width="2.1" d="M-534.655,248.338h11.235"/>
<path fill="none" stroke="#000000" stroke-width="2.1" d="M-534.656,237.372l11.236-0.001"/>
<path fill="none" stroke="#000000" stroke-width="2.1" d="M-534.672,226.404h11.236"/>
<path fill="none" stroke="#000000" stroke-width="2.1" d="M-534.671,215.437h11.236"/>
<path fill="none" stroke="#000000" stroke-width="2.2231" d="M-540.465,214.866"/>
<path fill="none" stroke="#000000" stroke-width="2.1" d="M-533.223,732.102l8.492-0.001"/>
<path fill="none" stroke="#000000" stroke-width="2.1" d="M-533.306,732.128l8.491-0.001"/>
<path fill="none" stroke="#000000" stroke-width="2.1" d="M-534.691,731.991h11.235"/>
<path fill="none" stroke="#000000" stroke-width="2.1" d="M-534.692,721.021l11.237,0.002"/>
<path fill="none" stroke="#000000" stroke-width="2.1" d="M-534.708,710.054h11.237"/>
<path fill="none" stroke="#000000" stroke-width="2.1" d="M-534.708,699.087l11.237,0.001"/>
<path fill="none" stroke="#000000" stroke-width="2.1" d="M-536.988,687.973l15.553,0.001"/>
<g>
	<path d="M-564.475,362.395h-10.175v-2.272h13.151v1.632c-4.832,6.176-5.824,10.815-6.176,18.783h-2.72
		C-570.042,372.857-568.506,367.994-564.475,362.395z"/>
	<path d="M-558.746,370.266c0-6.847,2.464-10.527,6.56-10.527c4.064,0,6.528,3.68,6.528,10.527c0,6.848-2.464,10.655-6.528,10.655
		C-556.282,380.921-558.746,377.113-558.746,370.266z M-548.219,370.266c0-5.983-1.6-8.415-3.968-8.415c-2.4,0-4,2.432-4,8.415
		c0,5.984,1.6,8.543,4,8.543C-549.818,378.809-548.219,376.25-548.219,370.266z"/>
</g>
<g>
	<path d="M-570.906,318.151v-0.128c-1.504-1.056-2.848-2.56-2.848-4.704c0-3.136,2.496-5.248,5.792-5.248
		c3.552,0,5.76,2.271,5.76,5.438c0,2.145-1.568,3.968-2.816,4.928v0.128c1.824,1.056,3.552,2.496,3.552,5.248
		c0,3.04-2.624,5.439-6.591,5.439c-3.84,0-6.688-2.368-6.688-5.6C-574.746,320.999-572.826,319.175-570.906,318.151z
		 M-567.994,327.302c2.368,0,4-1.472,4-3.584c0-2.624-2.592-3.583-5.536-4.768c-1.632,1.088-2.848,2.592-2.848,4.448
		C-572.378,325.67-570.49,327.302-567.994,327.302z M-564.475,313.639c0-2.016-1.312-3.616-3.552-3.616
		c-1.888,0-3.295,1.312-3.295,3.296c0,2.432,2.24,3.456,4.704,4.416C-565.242,316.519-564.475,315.143-564.475,313.639z"/>
	<path d="M-558.746,318.599c0-6.847,2.464-10.527,6.56-10.527c4.064,0,6.528,3.68,6.528,10.527c0,6.848-2.464,10.655-6.528,10.655
		C-556.282,329.254-558.746,325.446-558.746,318.599z M-548.219,318.599c0-5.983-1.6-8.415-3.968-8.415c-2.4,0-4,2.432-4,8.415
		c0,5.984,1.6,8.543,4,8.543C-549.818,327.142-548.219,324.583-548.219,318.599z"/>
</g>
<g>
	<path d="M-573.977,485.741c1.216,1.216,2.751,2.336,5.151,2.336c2.496,0,4.479-1.824,4.479-4.671c0-2.816-1.728-4.48-4.352-4.48
		c-1.408,0-2.271,0.448-3.488,1.248l-1.408-0.896l0.672-9.823h10.208v2.271h-7.904l-0.544,6.048c0.96-0.513,1.888-0.832,3.136-0.832
		c3.488,0,6.336,1.983,6.336,6.399s-3.328,6.911-6.88,6.911c-3.264,0-5.279-1.375-6.688-2.784L-573.977,485.741z"/>
	<path d="M-558.745,479.598c0-6.847,2.464-10.526,6.56-10.526c4.064,0,6.528,3.68,6.528,10.526c0,6.849-2.464,10.655-6.528,10.655
		C-556.281,490.253-558.745,486.445-558.745,479.598z M-548.218,479.598c0-5.982-1.6-8.415-3.968-8.415c-2.4,0-4,2.433-4,8.415
		c0,5.984,1.6,8.543,4,8.543C-549.817,488.141-548.218,485.582-548.218,479.598z"/>
</g>
<g>
	<path d="M-585.18,214.368h4.672v-15.039h-3.712v-1.696c1.856-0.32,3.2-0.832,4.32-1.504h2.016v18.239h4.224v2.176h-11.519v-2.176
		H-585.18z"/>
	<path d="M-570.396,206.272c0-6.847,2.464-10.527,6.56-10.527c4.064,0,6.528,3.68,6.528,10.527c0,6.848-2.464,10.655-6.528,10.655
		C-567.933,216.928-570.396,213.12-570.396,206.272z M-559.869,206.272c0-5.983-1.6-8.415-3.968-8.415c-2.4,0-4,2.432-4,8.415
		c0,5.984,1.6,8.543,4,8.543C-561.469,214.816-559.869,212.256-559.869,206.272z"/>
	<path d="M-554.493,206.272c0-6.847,2.464-10.527,6.56-10.527c4.064,0,6.528,3.68,6.528,10.527c0,6.848-2.464,10.655-6.528,10.655
		C-552.029,216.928-554.493,213.12-554.493,206.272z M-543.965,206.272c0-5.983-1.6-8.415-3.968-8.415c-2.4,0-4,2.432-4,8.415
		c0,5.984,1.6,8.543,4,8.543C-545.565,214.816-543.965,212.256-543.965,206.272z"/>
</g>
<g>
	<path d="M-571.954,267.954c0.832,0.992,2.08,1.632,3.359,1.632c2.88,0,5.312-2.24,5.408-8.767c-1.28,1.632-3.104,2.624-4.8,2.624
		c-3.52,0-5.792-2.112-5.792-6.303c0-3.904,2.752-6.56,6.016-6.56c4.032,0,7.04,3.264,7.04,9.823c0,8.191-3.712,11.359-7.775,11.359
		c-2.176,0-3.808-0.928-4.928-2.144L-571.954,267.954z M-563.25,258.739c-0.352-3.968-1.92-6.08-4.512-6.08
		c-1.984,0-3.552,1.792-3.552,4.48c0,2.656,1.248,4.319,3.776,4.319C-566.226,261.458-564.626,260.691-563.25,258.739z"/>
	<path d="M-557.746,261.106c0-6.847,2.464-10.527,6.56-10.527c4.064,0,6.528,3.68,6.528,10.527c0,6.848-2.464,10.655-6.528,10.655
		C-555.282,271.762-557.746,267.954-557.746,261.106z M-547.219,261.106c0-5.983-1.6-8.415-3.968-8.415c-2.4,0-4,2.432-4,8.415
		c0,5.984,1.6,8.543,4,8.543C-548.818,269.65-547.219,267.09-547.219,261.106z"/>
</g>
<g>
	<path d="M-562.291,416.524c-0.832-0.992-2.08-1.6-3.36-1.6c-2.848,0-5.248,2.208-5.375,8.671c1.28-1.567,3.104-2.56,4.768-2.56
		c3.52,0,5.824,2.111,5.824,6.303c0,3.904-2.752,6.561-6.048,6.561c-4,0-7.039-3.265-7.039-9.823c0-8.191,3.711-11.359,7.775-11.359
		c2.208,0,3.775,0.928,4.927,2.176L-562.291,416.524z M-562.931,427.339c0-2.656-1.248-4.319-3.775-4.319
		c-1.28,0-2.88,0.769-4.256,2.688c0.32,3.968,1.888,6.112,4.479,6.112C-564.466,431.819-562.931,430.027-562.931,427.339z"/>
	<path d="M-557.746,423.243c0-6.847,2.464-10.527,6.56-10.527c4.064,0,6.528,3.68,6.528,10.527c0,6.848-2.464,10.655-6.528,10.655
		C-555.282,433.898-557.746,430.091-557.746,423.243z M-547.219,423.243c0-5.983-1.6-8.415-3.968-8.415c-2.4,0-4,2.432-4,8.415
		s1.6,8.543,4,8.543C-548.818,431.787-547.219,429.227-547.219,423.243z"/>
</g>
<g>
	<path d="M-562.051,538.339h-2.784v5.632h-2.496v-5.632h-9.184v-1.728l8.735-13.056h2.944v12.671h2.784v2.112H-562.051z
		 M-567.33,536.227v-5.919c0-1.088,0.096-2.848,0.16-3.936h-0.128c-0.512,0.992-1.088,1.888-1.664,2.88l-4.768,6.975H-567.33z"/>
	<path d="M-559.746,533.699c0-6.848,2.464-10.527,6.56-10.527c4.064,0,6.528,3.68,6.528,10.527s-2.464,10.654-6.528,10.654
		C-557.282,544.354-559.746,540.547-559.746,533.699z M-549.219,533.699c0-5.983-1.6-8.415-3.968-8.415c-2.4,0-4,2.432-4,8.415
		s1.6,8.543,4,8.543C-550.818,542.243-549.219,539.683-549.219,533.699z"/>
</g>
<g>
	<path d="M-576.882,585.953c1.216,1.28,2.816,2.432,5.216,2.432c2.464,0,4.224-1.472,4.224-3.744c0-2.432-1.664-4.063-6.528-4.063
		v-2.016c4.352,0,5.792-1.664,5.792-3.809c0-1.984-1.344-3.231-3.52-3.231c-1.696,0-3.136,0.863-4.352,2.079l-1.408-1.663
		c1.568-1.473,3.456-2.561,5.855-2.561c3.552,0,6.111,1.888,6.111,5.185c0,2.464-1.504,4.031-3.711,4.863v0.128
		c2.464,0.576,4.416,2.368,4.416,5.185c0,3.616-2.976,5.823-6.72,5.823c-3.264,0-5.343-1.375-6.719-2.88L-576.882,585.953z"/>
	<path d="M-561.746,579.905c0-6.848,2.464-10.527,6.56-10.527c4.064,0,6.528,3.68,6.528,10.527s-2.464,10.655-6.528,10.655
		C-559.282,590.561-561.746,586.753-561.746,579.905z M-551.219,579.905c0-5.983-1.6-8.415-3.968-8.415c-2.4,0-4,2.432-4,8.415
		s1.6,8.543,4,8.543C-552.818,588.449-551.219,585.889-551.219,579.905z"/>
</g>
<g>
	<path d="M-577.778,643.817c6.144-6.112,9.6-9.792,9.6-13.087c0-2.336-1.28-4-3.872-4c-1.696,0-3.167,1.088-4.352,2.464
		l-1.504-1.504c1.696-1.856,3.52-3.104,6.176-3.104c3.775,0,6.111,2.4,6.111,6.016c0,3.84-3.488,7.647-8.319,12.703
		c1.12-0.096,2.368-0.191,3.424-0.191h5.919v2.271h-13.183V643.817L-577.778,643.817z"/>
	<path d="M-561.746,635.113c0-6.848,2.464-10.527,6.56-10.527c4.064,0,6.528,3.68,6.528,10.527s-2.464,10.654-6.528,10.654
		C-559.282,645.769-561.746,641.961-561.746,635.113z M-551.219,635.113c0-5.983-1.6-8.415-3.968-8.415c-2.4,0-4,2.432-4,8.415
		s1.6,8.543,4,8.543C-552.818,643.657-551.219,641.097-551.219,635.113z"/>
</g>
<g>
	<path d="M-578.53,699.209h4.672V684.17h-3.712v-1.696c1.856-0.319,3.2-0.832,4.32-1.504h2.016v18.239h4.224v2.176h-11.519v-2.176
		H-578.53z"/>
	<path d="M-563.746,691.113c0-6.848,2.464-10.527,6.56-10.527c4.064,0,6.528,3.68,6.528,10.527s-2.464,10.654-6.528,10.654
		C-561.282,701.769-563.746,697.961-563.746,691.113z M-553.219,691.113c0-5.983-1.6-8.415-3.968-8.415c-2.4,0-4,2.432-4,8.415
		s1.6,8.543,4,8.543C-554.818,699.657-553.219,697.097-553.219,691.113z"/>
</g>
<g>
	<path d="M-567.65,733.883c0-6.847,2.464-10.526,6.56-10.526c4.064,0,6.528,3.68,6.528,10.526c0,6.849-2.464,10.655-6.528,10.655
		C-565.186,744.538-567.65,740.73-567.65,733.883z M-557.123,733.883c0-5.982-1.6-8.415-3.968-8.415c-2.4,0-4,2.433-4,8.415
		c0,5.984,1.6,8.543,4,8.543C-558.722,742.426-557.123,739.867-557.123,733.883z"/>
</g>
<path fill="none" stroke="#000000" stroke-width="2.4889" stroke-linecap="round" stroke-linejoin="round" d="M-499.442,307.291"/>
<path fill="none" stroke="#000000" stroke-width="2.4889" stroke-linecap="round" stroke-linejoin="round" d="M-498.258,213.578"/>
<g>
	<path d="M-494.065,362.768h-10.175v-2.272h13.151v1.632c-4.832,6.176-5.824,10.815-6.176,18.783h-2.72
		C-499.633,373.23-498.097,368.367-494.065,362.768z"/>
	<path d="M-488.337,370.639c0-6.847,2.464-10.527,6.56-10.527c4.064,0,6.528,3.68,6.528,10.527c0,6.848-2.464,10.655-6.528,10.655
		C-485.873,381.294-488.337,377.486-488.337,370.639z M-477.81,370.639c0-5.983-1.6-8.415-3.968-8.415c-2.4,0-4,2.432-4,8.415
		c0,5.984,1.6,8.543,4,8.543C-479.409,379.182-477.81,376.623-477.81,370.639z"/>
</g>
<g>
	<path d="M-500.497,318.524v-0.128c-1.504-1.056-2.848-2.56-2.848-4.704c0-3.136,2.496-5.248,5.792-5.248
		c3.552,0,5.76,2.271,5.76,5.439c0,2.144-1.568,3.968-2.816,4.928v0.128c1.824,1.056,3.552,2.496,3.552,5.248
		c0,3.04-2.624,5.439-6.591,5.439c-3.84,0-6.688-2.368-6.688-5.6C-504.336,321.372-502.417,319.548-500.497,318.524z
		 M-497.585,327.675c2.368,0,4-1.472,4-3.584c0-2.624-2.592-3.583-5.536-4.768c-1.632,1.088-2.848,2.592-2.848,4.448
		C-501.969,326.043-500.081,327.675-497.585,327.675z M-494.065,314.012c0-2.016-1.312-3.616-3.552-3.616
		c-1.888,0-3.295,1.312-3.295,3.296c0,2.432,2.24,3.456,4.704,4.416C-494.833,316.892-494.065,315.516-494.065,314.012z"/>
	<path d="M-488.337,318.972c0-6.847,2.464-10.527,6.56-10.527c4.064,0,6.528,3.68,6.528,10.527c0,6.848-2.464,10.655-6.528,10.655
		C-485.873,329.627-488.337,325.819-488.337,318.972z M-477.81,318.972c0-5.983-1.6-8.415-3.968-8.415c-2.4,0-4,2.432-4,8.415
		c0,5.984,1.6,8.543,4,8.543C-479.409,327.515-477.81,324.956-477.81,318.972z"/>
</g>
<g>
	<path d="M-503.568,486.115c1.216,1.216,2.751,2.336,5.151,2.336c2.496,0,4.479-1.824,4.479-4.671c0-2.816-1.728-4.48-4.352-4.48
		c-1.408,0-2.272,0.448-3.488,1.248l-1.408-0.896l0.672-9.823h10.208v2.271h-7.904l-0.544,6.048c0.96-0.513,1.888-0.832,3.136-0.832
		c3.488,0,6.336,1.983,6.336,6.399s-3.328,6.911-6.88,6.911c-3.264,0-5.279-1.375-6.688-2.784L-503.568,486.115z"/>
	<path d="M-488.337,479.972c0-6.847,2.464-10.526,6.56-10.526c4.064,0,6.528,3.68,6.528,10.526c0,6.849-2.464,10.655-6.528,10.655
		C-485.873,490.627-488.337,486.819-488.337,479.972z M-477.81,479.972c0-5.982-1.6-8.415-3.968-8.415c-2.4,0-4,2.433-4,8.415
		c0,5.984,1.6,8.543,4,8.543C-479.409,488.515-477.81,485.956-477.81,479.972z"/>
</g>
<g>
	<path d="M-514.772,214.741h4.672v-15.039h-3.712v-1.696c1.856-0.32,3.2-0.832,4.32-1.504h2.016v18.239h4.224v2.176h-11.519
		L-514.772,214.741L-514.772,214.741z"/>
	<path d="M-499.988,206.646c0-6.847,2.464-10.527,6.56-10.527c4.064,0,6.528,3.68,6.528,10.527c0,6.848-2.464,10.655-6.528,10.655
		C-497.524,217.301-499.988,213.493-499.988,206.646z M-489.461,206.646c0-5.983-1.6-8.415-3.968-8.415c-2.4,0-4,2.432-4,8.415
		c0,5.984,1.6,8.543,4,8.543C-491.061,215.189-489.461,212.629-489.461,206.646z"/>
	<path d="M-484.084,206.646c0-6.847,2.464-10.527,6.56-10.527c4.064,0,6.528,3.68,6.528,10.527c0,6.848-2.464,10.655-6.528,10.655
		C-481.621,217.301-484.084,213.493-484.084,206.646z M-473.557,206.646c0-5.983-1.6-8.415-3.968-8.415c-2.4,0-4,2.432-4,8.415
		c0,5.984,1.6,8.543,4,8.543C-475.157,215.189-473.557,212.629-473.557,206.646z"/>
</g>
<g>
	<path d="M-501.544,268.327c0.832,0.992,2.08,1.632,3.359,1.632c2.88,0,5.312-2.24,5.408-8.767c-1.28,1.632-3.104,2.624-4.8,2.624
		c-3.52,0-5.792-2.112-5.792-6.303c0-3.904,2.752-6.56,6.016-6.56c4.032,0,7.04,3.264,7.04,9.823c0,8.191-3.712,11.359-7.775,11.359
		c-2.176,0-3.808-0.928-4.928-2.144L-501.544,268.327z M-492.841,259.112c-0.352-3.968-1.92-6.08-4.512-6.08
		c-1.984,0-3.552,1.792-3.552,4.479c0,2.656,1.248,4.319,3.776,4.319C-495.817,261.832-494.217,261.064-492.841,259.112z"/>
	<path d="M-487.337,261.479c0-6.847,2.464-10.527,6.56-10.527c4.064,0,6.528,3.68,6.528,10.527c0,6.848-2.464,10.655-6.528,10.655
		C-484.873,272.135-487.337,268.327-487.337,261.479z M-476.81,261.479c0-5.983-1.6-8.415-3.968-8.415c-2.4,0-4,2.432-4,8.415
		c0,5.984,1.6,8.543,4,8.543C-478.409,270.023-476.81,267.463-476.81,261.479z"/>
</g>
<g>
	<path d="M-491.882,416.897c-0.832-0.992-2.08-1.6-3.36-1.6c-2.848,0-5.248,2.208-5.375,8.671c1.28-1.567,3.104-2.56,4.768-2.56
		c3.52,0,5.824,2.111,5.824,6.303c0,3.904-2.752,6.561-6.048,6.561c-4,0-7.039-3.265-7.039-9.823c0-8.191,3.711-11.359,7.775-11.359
		c2.208,0,3.775,0.928,4.927,2.176L-491.882,416.897z M-492.522,427.712c0-2.656-1.248-4.319-3.775-4.319
		c-1.28,0-2.88,0.769-4.256,2.688c0.32,3.968,1.888,6.112,4.479,6.112C-494.058,432.192-492.522,430.4-492.522,427.712z"/>
	<path d="M-487.337,423.616c0-6.847,2.464-10.527,6.56-10.527c4.064,0,6.528,3.68,6.528,10.527c0,6.848-2.464,10.655-6.528,10.655
		C-484.874,434.271-487.337,430.464-487.337,423.616z M-476.81,423.616c0-5.983-1.6-8.415-3.968-8.415c-2.4,0-4,2.432-4,8.415
		s1.6,8.543,4,8.543C-478.41,432.16-476.81,429.6-476.81,423.616z"/>
</g>
<g>
	<path d="M-491.642,538.712h-2.784v5.632h-2.496v-5.632h-9.184v-1.728l8.735-13.056h2.944V536.6h2.784L-491.642,538.712
		L-491.642,538.712z M-496.921,536.6v-5.919c0-1.088,0.096-2.848,0.16-3.936h-0.128c-0.512,0.992-1.088,1.888-1.664,2.88
		l-4.768,6.975H-496.921z"/>
	<path d="M-489.337,534.072c0-6.848,2.464-10.527,6.56-10.527c4.064,0,6.528,3.68,6.528,10.527s-2.464,10.654-6.528,10.654
		C-486.874,544.729-489.337,540.92-489.337,534.072z M-478.81,534.072c0-5.983-1.6-8.415-3.968-8.415c-2.4,0-4,2.432-4,8.415
		s1.6,8.543,4,8.543C-480.41,542.616-478.81,540.056-478.81,534.072z"/>
</g>
<g>
	<path d="M-506.473,586.326c1.216,1.28,2.816,2.432,5.216,2.432c2.464,0,4.224-1.472,4.224-3.744c0-2.432-1.664-4.063-6.528-4.063
		v-2.017c4.352,0,5.792-1.663,5.792-3.808c0-1.984-1.344-3.232-3.52-3.232c-1.696,0-3.136,0.864-4.352,2.08l-1.408-1.664
		c1.568-1.472,3.456-2.56,5.855-2.56c3.552,0,6.111,1.888,6.111,5.185c0,2.464-1.504,4.031-3.711,4.863v0.128
		c2.464,0.576,4.416,2.368,4.416,5.185c0,3.616-2.976,5.822-6.72,5.822c-3.264,0-5.343-1.375-6.719-2.879L-506.473,586.326z"/>
	<path d="M-491.337,580.278c0-6.848,2.464-10.527,6.56-10.527c4.064,0,6.528,3.68,6.528,10.527s-2.464,10.654-6.528,10.654
		C-488.874,590.934-491.337,587.126-491.337,580.278z M-480.81,580.278c0-5.983-1.6-8.415-3.968-8.415c-2.4,0-4,2.432-4,8.415
		s1.6,8.543,4,8.543C-482.41,588.822-480.81,586.262-480.81,580.278z"/>
</g>
<g>
	<path d="M-507.369,644.19c6.144-6.112,9.6-9.792,9.6-13.087c0-2.337-1.28-4-3.872-4c-1.696,0-3.167,1.088-4.352,2.464l-1.504-1.505
		c1.696-1.855,3.52-3.104,6.176-3.104c3.775,0,6.111,2.4,6.111,6.016c0,3.84-3.488,7.647-8.319,12.703
		c1.12-0.096,2.368-0.191,3.424-0.191h5.919v2.271h-13.183V644.19z"/>
	<path d="M-491.337,635.486c0-6.848,2.464-10.527,6.56-10.527c4.064,0,6.528,3.68,6.528,10.527s-2.464,10.654-6.528,10.654
		C-488.873,646.142-491.337,642.334-491.337,635.486z M-480.81,635.486c0-5.983-1.6-8.415-3.968-8.415c-2.4,0-4,2.432-4,8.415
		s1.6,8.543,4,8.543C-482.409,644.03-480.81,641.47-480.81,635.486z"/>
</g>
<g>
	<path d="M-508.121,699.582h4.672v-15.039h-3.712v-1.696c1.856-0.319,3.2-0.832,4.32-1.504h2.016v18.239h4.224v2.176h-11.519
		L-508.121,699.582L-508.121,699.582z"/>
	<path d="M-493.337,691.486c0-6.848,2.464-10.527,6.56-10.527c4.064,0,6.528,3.68,6.528,10.527s-2.464,10.654-6.528,10.654
		C-490.874,702.142-493.337,698.334-493.337,691.486z M-482.81,691.486c0-5.983-1.6-8.415-3.968-8.415c-2.4,0-4,2.432-4,8.415
		s1.6,8.543,4,8.543C-484.41,700.03-482.81,697.47-482.81,691.486z"/>
</g>
<g>
	<path d="M-497.241,734.256c0-6.847,2.464-10.527,6.56-10.527c4.064,0,6.528,3.681,6.528,10.527c0,6.848-2.464,10.655-6.528,10.655
		C-494.777,744.911-497.241,741.104-497.241,734.256z M-486.714,734.256c0-5.982-1.6-8.415-3.968-8.415c-2.4,0-4,2.433-4,8.415
		c0,5.984,1.6,8.543,4,8.543C-488.313,742.799-486.714,740.24-486.714,734.256z"/>
</g>
<polyline fill="#C6C6C6" stroke="#000000" stroke-width="0.0422" stroke-linecap="round" stroke-linejoin="round" points="
	-513.434,1191.217 -514.901,1052.692 -536.052,1053.211 -536.326,1190.881 "/>
<path fill="none" d="M-517.434,1102.645l-18.586,6.047v-8"/>
<path fill="none" stroke="#000000" stroke-width="2.1" d="M-532.301,1110.72l11.237,0.001"/>
<path fill="none" stroke="#000000" stroke-width="2.1" d="M-532.3,1099.752l11.236,0.001"/>
<path fill="none" stroke="#000000" stroke-width="2.1" d="M-532.315,1088.786h11.235"/>
<path fill="none" stroke="#000000" stroke-width="2.1" d="M-532.316,1077.816l11.237,0.002"/>
<path fill="none" stroke="#000000" stroke-width="2.1" d="M-534.596,1066.703l15.552-0.001"/>
<path fill="none" stroke="#000000" stroke-width="2.1" d="M-532.25,1055.516h11.235"/>
<path fill="none" stroke="#000000" stroke-width="2.1" d="M-532.251,1044.546h11.235"/>
<path fill="none" stroke="#000000" stroke-width="2.1" d="M-532.266,1033.579h11.235"/>
<path fill="none" stroke="#000000" stroke-width="2.1" d="M-532.267,1022.609l11.235,0.001"/>
<path fill="none" stroke="#000000" stroke-width="2.1" d="M-534.547,1011.499l15.555,0.001"/>
<path fill="none" stroke="#000000" stroke-width="2.1" d="M-532.262,1000.338l11.235-0.001"/>
<path fill="none" stroke="#000000" stroke-width="2.1" d="M-532.278,989.369h11.235"/>
<path fill="none" stroke="#000000" stroke-width="2.1" d="M-532.276,978.404h11.234"/>
<path fill="none" stroke="#000000" stroke-width="2.1" d="M-534.559,967.289h15.551"/>
<path fill="none" stroke="#000000" stroke-width="2.1" d="M-530.81,1165.535l8.492-0.001"/>
<path fill="none" stroke="#000000" stroke-width="2.1" d="M-530.893,1165.563l8.491-0.002"/>
<path fill="none" stroke="#000000" stroke-width="2.1" d="M-532.278,1165.425h11.235"/>
<path fill="none" stroke="#000000" stroke-width="2.1" d="M-532.279,1154.455l11.237,0.002"/>
<path fill="none" stroke="#000000" stroke-width="2.1" d="M-532.295,1143.487h11.237"/>
<path fill="none" stroke="#000000" stroke-width="2.1" d="M-532.295,1132.521h11.237"/>
<path fill="none" stroke="#000000" stroke-width="2.1" d="M-534.575,1121.406l15.553,0.001"/>
<g>
	<path d="M-559.638,971.771h-2.784v5.633h-2.496v-5.633h-9.184v-1.728l8.735-13.055h2.944v12.67h2.784L-559.638,971.771
		L-559.638,971.771z M-564.917,969.66v-5.919c0-1.088,0.096-2.849,0.16-3.937h-0.128c-0.512,0.991-1.088,1.889-1.664,2.88
		l-4.768,6.976H-564.917z"/>
	<path d="M-557.333,967.133c0-6.848,2.464-10.526,6.56-10.526c4.064,0,6.528,3.68,6.528,10.526c0,6.848-2.464,10.655-6.528,10.655
		C-554.869,977.788-557.333,973.98-557.333,967.133z M-546.806,967.133c0-5.982-1.6-8.415-3.968-8.415c-2.4,0-4,2.433-4,8.415
		c0,5.984,1.6,8.543,4,8.543C-548.405,975.676-546.806,973.117-546.806,967.133z"/>
</g>
<g>
	<path d="M-574.469,1019.387c1.216,1.279,2.816,2.433,5.216,2.433c2.464,0,4.224-1.473,4.224-3.744c0-2.433-1.664-4.063-6.528-4.063
		v-2.017c4.352,0,5.792-1.663,5.792-3.808c0-1.984-1.344-3.232-3.52-3.232c-1.696,0-3.136,0.865-4.352,2.08l-1.408-1.664
		c1.568-1.471,3.456-2.559,5.855-2.559c3.552,0,6.111,1.887,6.111,5.184c0,2.463-1.504,4.031-3.711,4.863v0.128
		c2.464,0.575,4.416,2.368,4.416,5.184c0,3.616-2.976,5.823-6.72,5.823c-3.264,0-5.343-1.375-6.719-2.879L-574.469,1019.387z"/>
	<path d="M-559.333,1013.339c0-6.847,2.464-10.526,6.56-10.526c4.064,0,6.528,3.681,6.528,10.526c0,6.849-2.464,10.655-6.528,10.655
		C-556.869,1023.994-559.333,1020.188-559.333,1013.339z M-548.806,1013.339c0-5.982-1.6-8.415-3.968-8.415c-2.4,0-4,2.433-4,8.415
		c0,5.983,1.6,8.544,4,8.544C-550.405,1021.883-548.806,1019.322-548.806,1013.339z"/>
</g>
<g>
	<path d="M-575.365,1077.25c6.144-6.111,9.6-9.791,9.6-13.086c0-2.336-1.28-4-3.872-4c-1.696,0-3.167,1.088-4.352,2.463
		l-1.504-1.504c1.696-1.855,3.52-3.104,6.176-3.104c3.775,0,6.111,2.4,6.111,6.017c0,3.84-3.488,7.647-8.319,12.703
		c1.12-0.097,2.368-0.191,3.424-0.191h5.919v2.271h-13.183V1077.25z"/>
	<path d="M-559.333,1068.547c0-6.848,2.464-10.527,6.56-10.527c4.064,0,6.528,3.681,6.528,10.527s-2.464,10.655-6.528,10.655
		C-556.869,1079.202-559.333,1075.395-559.333,1068.547z M-548.806,1068.547c0-5.982-1.6-8.415-3.968-8.415c-2.4,0-4,2.433-4,8.415
		c0,5.984,1.6,8.543,4,8.543C-550.405,1077.09-548.806,1074.531-548.806,1068.547z"/>
</g>
<g>
	<path d="M-576.117,1132.643h4.672v-15.039h-3.712v-1.694c1.856-0.32,3.2-0.832,4.32-1.504h2.016v18.237h4.224v2.177h-11.519
		L-576.117,1132.643L-576.117,1132.643z"/>
	<path d="M-561.333,1124.547c0-6.848,2.464-10.527,6.56-10.527c4.064,0,6.528,3.681,6.528,10.527s-2.464,10.655-6.528,10.655
		C-558.869,1135.202-561.333,1131.395-561.333,1124.547z M-550.806,1124.547c0-5.982-1.6-8.415-3.968-8.415c-2.4,0-4,2.433-4,8.415
		c0,5.984,1.6,8.543,4,8.543C-552.405,1133.09-550.806,1130.531-550.806,1124.547z"/>
</g>
<g>
	<path d="M-565.237,1167.316c0-6.849,2.464-10.527,6.56-10.527c4.064,0,6.528,3.68,6.528,10.527c0,6.847-2.464,10.654-6.528,10.654
		C-562.773,1177.972-565.237,1174.164-565.237,1167.316z M-554.709,1167.316c0-5.983-1.6-8.415-3.968-8.415c-2.4,0-4,2.432-4,8.415
		s1.6,8.543,4,8.543C-556.309,1175.859-554.709,1173.301-554.709,1167.316z"/>
</g>
<g>
	<path d="M-489.229,972.146h-2.784v5.632h-2.496v-5.632h-9.184v-1.729l8.735-13.055h2.944v12.67h2.784L-489.229,972.146
		L-489.229,972.146z M-494.508,970.033v-5.919c0-1.088,0.096-2.849,0.16-3.937h-0.128c-0.512,0.991-1.088,1.889-1.664,2.88
		l-4.768,6.976H-494.508z"/>
	<path d="M-486.924,967.506c0-6.848,2.464-10.527,6.56-10.527c4.064,0,6.528,3.681,6.528,10.527s-2.464,10.655-6.528,10.655
		C-484.46,978.161-486.924,974.354-486.924,967.506z M-476.397,967.506c0-5.982-1.6-8.415-3.968-8.415c-2.4,0-4,2.433-4,8.415
		c0,5.984,1.6,8.543,4,8.543C-477.997,976.049-476.397,973.49-476.397,967.506z"/>
</g>
<g>
	<path d="M-504.06,1019.76c1.216,1.279,2.816,2.433,5.216,2.433c2.464,0,4.224-1.473,4.224-3.744c0-2.433-1.664-4.063-6.528-4.063
		v-2.017c4.352,0,5.792-1.663,5.792-3.809c0-1.983-1.344-3.231-3.52-3.231c-1.696,0-3.136,0.865-4.352,2.08l-1.408-1.664
		c1.568-1.471,3.456-2.56,5.855-2.56c3.552,0,6.111,1.888,6.111,5.185c0,2.463-1.504,4.031-3.711,4.863v0.128
		c2.464,0.574,4.416,2.367,4.416,5.184c0,3.616-2.976,5.823-6.72,5.823c-3.264,0-5.343-1.375-6.719-2.879L-504.06,1019.76z"/>
	<path d="M-488.924,1013.712c0-6.847,2.464-10.526,6.56-10.526c4.064,0,6.528,3.681,6.528,10.526c0,6.848-2.464,10.655-6.528,10.655
		C-486.46,1024.367-488.924,1020.56-488.924,1013.712z M-478.397,1013.712c0-5.983-1.6-8.415-3.968-8.415c-2.4,0-4,2.432-4,8.415
		s1.6,8.544,4,8.544C-479.997,1022.256-478.397,1019.695-478.397,1013.712z"/>
</g>
<g>
	<path d="M-504.956,1077.623c6.144-6.111,9.6-9.791,9.6-13.086c0-2.336-1.28-4-3.872-4c-1.696,0-3.167,1.088-4.352,2.463
		l-1.504-1.504c1.696-1.855,3.52-3.104,6.176-3.104c3.775,0,6.111,2.4,6.111,6.017c0,3.84-3.488,7.647-8.319,12.703
		c1.12-0.097,2.368-0.191,3.424-0.191h5.919v2.271h-13.183V1077.623z"/>
	<path d="M-488.924,1068.92c0-6.848,2.464-10.527,6.56-10.527c4.064,0,6.528,3.681,6.528,10.527s-2.464,10.655-6.528,10.655
		C-486.46,1079.575-488.924,1075.768-488.924,1068.92z M-478.396,1068.92c0-5.982-1.6-8.415-3.968-8.415c-2.4,0-4,2.433-4,8.415
		c0,5.984,1.6,8.543,4,8.543C-479.996,1077.463-478.396,1074.904-478.396,1068.92z"/>
</g>
<g>
	<path d="M-505.708,1133.016h4.672v-15.039h-3.712v-1.694c1.856-0.32,3.2-0.832,4.32-1.504h2.016v18.237h4.224v2.177h-11.519
		L-505.708,1133.016L-505.708,1133.016z"/>
	<path d="M-490.924,1124.92c0-6.847,2.464-10.525,6.56-10.525c4.064,0,6.528,3.68,6.528,10.525c0,6.848-2.464,10.656-6.528,10.656
		C-488.46,1135.576-490.924,1131.768-490.924,1124.92z M-480.397,1124.92c0-5.982-1.6-8.414-3.968-8.414c-2.4,0-4,2.433-4,8.414
		c0,5.984,1.6,8.544,4,8.544C-481.997,1133.464-480.397,1130.904-480.397,1124.92z"/>
</g>
<g>
	<path d="M-494.828,1167.689c0-6.849,2.464-10.527,6.56-10.527c4.064,0,6.528,3.68,6.528,10.527c0,6.847-2.464,10.654-6.528,10.654
		C-492.364,1178.345-494.828,1174.537-494.828,1167.689z M-484.301,1167.689c0-5.983-1.6-8.416-3.968-8.416c-2.4,0-4,2.433-4,8.416
		s1.6,8.543,4,8.543C-485.9,1176.232-484.301,1173.674-484.301,1167.689z"/>
</g>
<polyline fill="#C6C6C6" stroke="#000000" stroke-width="0.0422" stroke-linecap="round" stroke-linejoin="round" points="
	244.483,880.246 244.016,741.722 221.866,742.24 221.59,879.91 "/>
<path fill="none" d="M240.483,791.673l-18.586,6.047v-8"/>
<path fill="none" stroke="#000000" stroke-width="2.1" d="M225.616,799.749l11.237,0.001"/>
<path fill="none" stroke="#000000" stroke-width="2.1" d="M225.618,788.781l11.235,0.001"/>
<path fill="none" stroke="#000000" stroke-width="2.1" d="M225.602,777.815h11.234"/>
<path fill="none" stroke="#000000" stroke-width="2.1" d="M225.601,766.846l11.237,0.002"/>
<path fill="none" stroke="#000000" stroke-width="2.1" d="M223.321,755.732l15.553-0.001"/>
<path fill="none" stroke="#000000" stroke-width="2.1" d="M225.667,744.545h11.235"/>
<path fill="none" stroke="#000000" stroke-width="2.1" d="M225.667,733.575h11.234"/>
<path fill="none" stroke="#000000" stroke-width="2.1" d="M225.651,722.608h11.235"/>
<path fill="none" stroke="#000000" stroke-width="2.1" d="M225.65,711.639l11.235,0.001"/>
<path fill="none" stroke="#000000" stroke-width="2.1" d="M223.37,700.528l15.555,0.001"/>
<path fill="none" stroke="#000000" stroke-width="2.1" d="M225.655,689.367l11.235-0.001"/>
<path fill="none" stroke="#000000" stroke-width="2.1" d="M225.639,678.398h11.234"/>
<path fill="none" stroke="#000000" stroke-width="2.1" d="M225.641,667.434h11.234"/>
<path fill="none" stroke="#000000" stroke-width="2.1" d="M223.358,656.318h15.551"/>
<path fill="none" stroke="#000000" stroke-width="2.1" d="M227.107,854.564l8.492-0.001"/>
<path fill="none" stroke="#000000" stroke-width="2.1" d="M227.024,854.591l8.491-0.001"/>
<path fill="none" stroke="#000000" stroke-width="2.1" d="M225.639,854.454h11.234"/>
<path fill="none" stroke="#000000" stroke-width="2.1" d="M225.638,843.484l11.237,0.002"/>
<path fill="none" stroke="#000000" stroke-width="2.1" d="M225.622,832.517h11.237"/>
<path fill="none" stroke="#000000" stroke-width="2.1" d="M225.622,821.55l11.237,0.001"/>
<path fill="none" stroke="#000000" stroke-width="2.1" d="M223.342,810.436l15.553,0.001"/>
<g>
	<path d="M198.28,660.802h-2.783v5.632h-2.496v-5.632h-9.184v-1.728l8.734-13.056h2.944v12.672h2.784L198.28,660.802L198.28,660.802
		z M193.001,658.69v-5.919c0-1.089,0.096-2.849,0.159-3.937h-0.128c-0.512,0.992-1.088,1.888-1.664,2.88l-4.768,6.976H193.001z"/>
	<path d="M200.584,656.162c0-6.847,2.463-10.527,6.56-10.527c4.063,0,6.528,3.681,6.528,10.527c0,6.848-2.465,10.655-6.528,10.655
		C203.047,666.817,200.584,663.01,200.584,656.162z M211.112,656.162c0-5.983-1.6-8.415-3.969-8.415
		c-2.398,0-3.999,2.432-3.999,8.415c0,5.984,1.601,8.543,3.999,8.543C209.513,664.706,211.112,662.146,211.112,656.162z"/>
</g>
<g>
	<path d="M183.448,708.416c1.217,1.28,2.816,2.432,5.217,2.432c2.463,0,4.223-1.472,4.223-3.744c0-2.432-1.664-4.063-6.527-4.063
		v-2.016c4.352,0,5.792-1.664,5.792-3.809c0-1.983-1.345-3.231-3.521-3.231c-1.695,0-3.135,0.863-4.352,2.08l-1.407-1.664
		c1.567-1.473,3.456-2.561,5.855-2.561c3.552,0,6.11,1.889,6.11,5.185c0,2.464-1.503,4.031-3.711,4.863v0.129
		c2.465,0.575,4.417,2.367,4.417,5.184c0,3.616-2.977,5.823-6.72,5.823c-3.264,0-5.343-1.375-6.72-2.879L183.448,708.416z"/>
	<path d="M198.584,702.368c0-6.847,2.463-10.527,6.56-10.527c4.063,0,6.528,3.681,6.528,10.527c0,6.848-2.465,10.655-6.528,10.655
		C201.047,713.023,198.584,709.216,198.584,702.368z M209.112,702.368c0-5.983-1.6-8.415-3.969-8.415
		c-2.398,0-3.999,2.432-3.999,8.415s1.601,8.543,3.999,8.543C207.513,710.912,209.112,708.352,209.112,702.368z"/>
</g>
<g>
	<path d="M182.553,766.279c6.144-6.111,9.6-9.791,9.6-13.086c0-2.336-1.28-4-3.872-4c-1.695,0-3.168,1.088-4.352,2.463l-1.504-1.504
		c1.695-1.855,3.52-3.104,6.176-3.104c3.775,0,6.11,2.4,6.11,6.017c0,3.84-3.487,7.647-8.318,12.702
		c1.12-0.096,2.368-0.19,3.424-0.19h5.919v2.271h-13.183V766.279L182.553,766.279z"/>
	<path d="M198.584,757.576c0-6.849,2.463-10.527,6.56-10.527c4.063,0,6.528,3.68,6.528,10.527c0,6.847-2.465,10.655-6.528,10.655
		C201.047,768.231,198.584,764.424,198.584,757.576z M209.112,757.576c0-5.983-1.6-8.415-3.969-8.415
		c-2.398,0-3.999,2.432-3.999,8.415s1.601,8.543,3.999,8.543C207.513,766.119,209.112,763.561,209.112,757.576z"/>
</g>
<g>
	<path d="M181.8,821.672h4.672v-15.039h-3.711v-1.695c1.855-0.319,3.199-0.831,4.319-1.504h2.016v18.238h4.224v2.176H181.8V821.672z
		"/>
	<path d="M196.584,813.576c0-6.849,2.463-10.527,6.56-10.527c4.063,0,6.526,3.68,6.526,10.527c0,6.847-2.463,10.655-6.526,10.655
		C199.047,824.231,196.584,820.424,196.584,813.576z M207.111,813.576c0-5.983-1.601-8.415-3.968-8.415c-2.4,0-4,2.432-4,8.415
		s1.6,8.543,4,8.543C205.512,822.119,207.111,819.561,207.111,813.576z"/>
</g>
<g>
	<path d="M192.681,856.346c0-6.848,2.463-10.526,6.56-10.526c4.063,0,6.527,3.68,6.527,10.526c0,6.848-2.464,10.655-6.527,10.655
		C195.144,867.001,192.681,863.193,192.681,856.346z M203.208,856.346c0-5.982-1.6-8.415-3.969-8.415
		c-2.398,0-3.998,2.433-3.998,8.415c0,5.984,1.6,8.543,3.998,8.543C201.608,864.889,203.208,862.33,203.208,856.346z"/>
</g>
<g>
	<path d="M268.688,661.175h-2.784v5.632h-2.495v-5.632h-9.184v-1.728l8.734-13.056h2.943v12.671h2.784L268.688,661.175
		L268.688,661.175z M263.409,659.063v-5.919c0-1.088,0.096-2.848,0.159-3.936h-0.128c-0.512,0.992-1.088,1.888-1.664,2.88
		l-4.768,6.975H263.409z"/>
	<path d="M270.993,656.535c0-6.848,2.463-10.527,6.559-10.527c4.064,0,6.529,3.68,6.529,10.527s-2.465,10.655-6.529,10.655
		C273.456,667.19,270.993,663.383,270.993,656.535z M281.521,656.535c0-5.983-1.601-8.415-3.97-8.415
		c-2.398,0-3.998,2.432-3.998,8.415s1.6,8.543,3.998,8.543C279.92,665.079,281.521,662.519,281.521,656.535z"/>
</g>
<g>
	<path d="M253.856,708.789c1.217,1.28,2.816,2.432,5.217,2.432c2.463,0,4.223-1.472,4.223-3.744c0-2.432-1.664-4.063-6.526-4.063
		v-2.016c4.353,0,5.792-1.664,5.792-3.809c0-1.983-1.346-3.231-3.521-3.231c-1.695,0-3.135,0.863-4.352,2.08l-1.407-1.664
		c1.567-1.473,3.456-2.561,5.854-2.561c3.553,0,6.111,1.888,6.111,5.185c0,2.464-1.504,4.031-3.711,4.863v0.128
		c2.465,0.576,4.416,2.368,4.416,5.185c0,3.616-2.977,5.823-6.721,5.823c-3.264,0-5.343-1.375-6.721-2.88L253.856,708.789z"/>
	<path d="M268.993,702.741c0-6.847,2.463-10.527,6.559-10.527c4.064,0,6.529,3.681,6.529,10.527c0,6.848-2.465,10.655-6.529,10.655
		C271.456,713.396,268.993,709.589,268.993,702.741z M279.521,702.741c0-5.983-1.601-8.415-3.97-8.415
		c-2.398,0-3.998,2.432-3.998,8.415s1.6,8.543,3.998,8.543C277.92,711.285,279.521,708.725,279.521,702.741z"/>
</g>
<g>
	<path d="M252.961,766.652c6.144-6.111,9.601-9.791,9.601-13.086c0-2.336-1.28-4-3.873-4c-1.694,0-3.167,1.088-4.353,2.463
		l-1.504-1.504c1.696-1.855,3.521-3.104,6.176-3.104c3.775,0,6.111,2.4,6.111,6.016c0,3.841-3.486,7.648-8.317,12.703
		c1.118-0.096,2.366-0.19,3.424-0.19h5.919v2.271h-13.184V766.652L252.961,766.652z"/>
	<path d="M268.993,757.949c0-6.849,2.465-10.527,6.561-10.527c4.063,0,6.527,3.68,6.527,10.527c0,6.847-2.465,10.654-6.527,10.654
		C271.458,768.604,268.993,764.797,268.993,757.949z M279.521,757.949c0-5.983-1.601-8.415-3.968-8.415
		c-2.399,0-3.999,2.432-3.999,8.415s1.6,8.543,3.999,8.543C277.92,766.492,279.521,763.934,279.521,757.949z"/>
</g>
<g>
	<path d="M252.209,822.045h4.672v-15.039h-3.713v-1.695c1.855-0.319,3.199-0.832,4.32-1.504h2.016v18.238h4.224v2.176h-11.519
		V822.045z"/>
	<path d="M266.993,813.949c0-6.849,2.463-10.527,6.559-10.527c4.064,0,6.529,3.68,6.529,10.527c0,6.847-2.465,10.654-6.529,10.654
		C269.456,824.604,266.993,820.797,266.993,813.949z M277.521,813.949c0-5.983-1.601-8.415-3.97-8.415
		c-2.398,0-3.998,2.432-3.998,8.415s1.6,8.543,3.998,8.543C275.92,822.492,277.521,819.934,277.521,813.949z"/>
</g>
<g>
	<path d="M263.088,856.719c0-6.848,2.465-10.526,6.561-10.526c4.063,0,6.527,3.68,6.527,10.526c0,6.848-2.465,10.655-6.527,10.655
		C265.553,867.374,263.088,863.566,263.088,856.719z M273.616,856.719c0-5.982-1.6-8.415-3.968-8.415
		c-2.399,0-3.999,2.433-3.999,8.415c0,5.984,1.6,8.543,3.999,8.543C272.017,865.262,273.616,862.703,273.616,856.719z"/>
</g>
<line fill="none" stroke="#000000" stroke-width="1.2656" stroke-linecap="round" stroke-linejoin="round" x1="168.264" y1="730.771" x2="117.664" y2="730.773"/>
<g>
	<rect x="26.603" y="709.618" fill="none" width="144" height="69.854"/>
	<path d="M28.763,710.961h4.681c3.192,0,5.4,1.08,5.4,3.84c0,1.562-0.888,2.953-2.736,3.434v0.096
		c2.304,0.36,3.648,1.607,3.648,3.769c0,3.097-2.448,4.608-5.977,4.608h-5.017L28.763,710.961L28.763,710.961z M33.083,717.681
		c2.688,0,3.793-0.96,3.793-2.712c0-1.705-1.248-2.424-3.697-2.424h-2.424v5.136H33.083z M33.491,725.122
		c2.712,0,4.297-0.984,4.297-3.121c0-1.944-1.537-2.832-4.297-2.832h-2.736v5.953H33.491L33.491,725.122z"/>
	<path d="M42.515,715.041h1.992v7.128c0,2.185,0.648,3.121,2.185,3.121c1.2,0,2.04-0.6,3.145-1.968v-8.281h1.968v11.665h-1.632
		l-0.168-1.824h-0.072c-1.08,1.272-2.232,2.112-3.841,2.112c-2.472,0-3.576-1.584-3.576-4.562L42.515,715.041L42.515,715.041z"/>
	<path d="M55.379,711.369c0-0.769,0.6-1.272,1.368-1.272s1.368,0.505,1.368,1.272c0,0.744-0.601,1.271-1.368,1.271
		C55.979,712.641,55.379,712.113,55.379,711.369z M55.738,715.041h1.969v11.665h-1.969V715.041z"/>
	<path d="M61.642,709.617h1.969v14.881c0,0.624,0.264,0.864,0.552,0.864c0.12,0,0.216,0,0.433-0.048l0.264,1.487
		c-0.264,0.12-0.601,0.192-1.128,0.192c-1.488,0-2.089-0.937-2.089-2.641L61.642,709.617L61.642,709.617z"/>
	<path d="M68.099,716.649H66.37v-1.488l1.824-0.12l0.24-3.264h1.655v3.264h3.145v1.608H70.09v6.479c0,1.44,0.456,2.256,1.801,2.256
		c0.408,0,0.936-0.168,1.32-0.312l0.384,1.487c-0.648,0.217-1.44,0.433-2.16,0.433c-2.496,0-3.336-1.584-3.336-3.889V716.649z"/>
	<path d="M74.267,719.938h5.521v1.513h-5.521V719.938z"/>
	<path d="M82.354,711.369c0-0.769,0.6-1.272,1.368-1.272s1.368,0.505,1.368,1.272c0,0.744-0.601,1.271-1.368,1.271
		C82.954,712.641,82.354,712.113,82.354,711.369z M82.714,715.041h1.969v11.665h-1.969V715.041z"/>
	<path d="M88.617,715.041h1.633l0.168,1.68h0.071c1.104-1.104,2.305-1.968,3.913-1.968c2.448,0,3.552,1.584,3.552,4.562v7.393
		h-1.968v-7.128c0-2.186-0.672-3.121-2.208-3.121c-1.2,0-2.017,0.624-3.192,1.8v8.449h-1.969V715.041z"/>
	<path d="M28.907,745.449h-1.729v-1.488l1.824-0.12l0.24-3.265h1.656v3.265h3.144v1.608h-3.144v6.479c0,1.439,0.455,2.256,1.8,2.256
		c0.407,0,0.937-0.168,1.319-0.313l0.385,1.488c-0.648,0.217-1.44,0.433-2.16,0.433c-2.496,0-3.336-1.584-3.336-3.888v-6.456H28.907
		z"/>
	<path d="M36.683,738.416h1.968v4.656l-0.071,2.399c1.104-1.056,2.279-1.92,3.888-1.92c2.448,0,3.553,1.584,3.553,4.562v7.393
		h-1.969v-7.129c0-2.184-0.672-3.12-2.208-3.12c-1.2,0-2.016,0.624-3.192,1.8v8.449h-1.968L36.683,738.416L36.683,738.416z"/>
	<path d="M54.107,743.553c2.976,0,4.656,2.138,4.656,5.474c0,0.407-0.024,0.792-0.072,1.08h-7.873
		c0.145,2.52,1.656,4.104,3.889,4.104c1.104,0,2.04-0.36,2.904-0.912l0.696,1.296c-1.008,0.648-2.257,1.2-3.841,1.2
		c-3.12,0-5.592-2.28-5.592-6.097C48.874,745.88,51.442,743.553,54.107,743.553z M57.035,748.809c0-2.375-1.056-3.694-2.88-3.694
		c-1.633,0-3.12,1.344-3.36,3.694H57.035z"/>
	<path d="M61.642,743.841h1.633l0.168,2.112h0.072c0.792-1.465,1.991-2.4,3.312-2.4c0.504,0,0.864,0.072,1.248,0.24l-0.384,1.729
		c-0.384-0.12-0.648-0.191-1.128-0.191c-0.984,0-2.16,0.72-2.952,2.688v7.488h-1.969V743.841z"/>
	<path d="M69.969,743.841h1.633l0.168,1.682h0.071c1.009-1.104,2.232-1.97,3.625-1.97c1.776,0,2.736,0.84,3.216,2.232
		c1.225-1.32,2.425-2.232,3.841-2.232c2.4,0,3.552,1.584,3.552,4.562v7.393h-1.968v-7.129c0-2.184-0.696-3.12-2.16-3.12
		c-0.912,0-1.849,0.602-2.929,1.8v8.449H77.05v-7.129c0-2.184-0.696-3.12-2.185-3.12c-0.863,0-1.848,0.602-2.928,1.8v8.449h-1.969
		v-11.666H69.969z"/>
	<path d="M94.401,743.553c2.855,0,5.4,2.232,5.4,6.146c0,3.864-2.545,6.097-5.4,6.097c-2.856,0-5.4-2.232-5.4-6.097
		C89.001,745.785,91.545,743.553,94.401,743.553z M94.401,754.162c2.016,0,3.36-1.801,3.36-4.465c0-2.688-1.345-4.513-3.36-4.513
		c-1.992,0-3.36,1.824-3.36,4.513C91.041,752.361,92.409,754.162,94.401,754.162z"/>
	<path d="M102.872,743.841h1.633l0.168,1.682h0.072c1.008-1.104,2.231-1.97,3.624-1.97c1.776,0,2.736,0.84,3.216,2.232
		c1.225-1.32,2.425-2.232,3.841-2.232c2.4,0,3.552,1.584,3.552,4.562v7.393h-1.968v-7.129c0-2.184-0.696-3.12-2.16-3.12
		c-0.912,0-1.849,0.602-2.929,1.8v8.449h-1.968v-7.129c0-2.184-0.696-3.12-2.185-3.12c-0.863,0-1.848,0.602-2.928,1.8v8.449h-1.969
		L102.872,743.841L102.872,743.841z"/>
	<path d="M127.137,743.553c2.976,0,4.656,2.138,4.656,5.474c0,0.407-0.024,0.792-0.072,1.08h-7.873
		c0.145,2.52,1.656,4.104,3.889,4.104c1.104,0,2.04-0.36,2.904-0.912l0.696,1.296c-1.008,0.648-2.257,1.2-3.841,1.2
		c-3.12,0-5.592-2.28-5.592-6.097C121.904,745.88,124.472,743.553,127.137,743.553z M130.064,748.809
		c0-2.375-1.056-3.694-2.88-3.694c-1.633,0-3.12,1.344-3.36,3.694H130.064z"/>
	<path d="M134.671,745.449h-1.728v-1.488l1.824-0.12l0.24-3.265h1.655v3.265h3.145v1.608h-3.145v6.479
		c0,1.439,0.456,2.256,1.801,2.256c0.408,0,0.936-0.168,1.32-0.313l0.384,1.488c-0.648,0.217-1.44,0.433-2.16,0.433
		c-2.496,0-3.337-1.584-3.337-3.888L134.671,745.449L134.671,745.449z"/>
	<path d="M146.576,743.553c2.976,0,4.656,2.138,4.656,5.474c0,0.407-0.024,0.792-0.072,1.08h-7.873
		c0.145,2.52,1.656,4.104,3.889,4.104c1.104,0,2.04-0.36,2.904-0.912l0.696,1.296c-1.008,0.648-2.257,1.2-3.841,1.2
		c-3.12,0-5.592-2.28-5.592-6.097C141.343,745.88,143.911,743.553,146.576,743.553z M149.504,748.809
		c0-2.375-1.056-3.694-2.88-3.694c-1.633,0-3.12,1.344-3.36,3.694H149.504z"/>
	<path d="M154.111,743.841h1.633l0.168,2.112h0.071c0.793-1.465,1.992-2.4,3.313-2.4c0.504,0,0.864,0.072,1.248,0.24l-0.384,1.729
		c-0.384-0.12-0.648-0.191-1.128-0.191c-0.984,0-2.16,0.72-2.952,2.688v7.488h-1.969V743.841z"/>
</g>
<g>
	<rect x="48.046" y="317.247" fill="none" width="125.899" height="83.373"/>
	<path d="M57.406,329.535H51.67l-1.513,4.8h-2.04l5.329-15.745h2.256l5.328,15.745h-2.136L57.406,329.535z M56.902,327.926
		l-0.744-2.4c-0.576-1.752-1.08-3.48-1.585-5.305h-0.096c-0.479,1.824-0.984,3.552-1.56,5.305l-0.744,2.4H56.902z"/>
	<path d="M63.069,317.246h1.969v14.881c0,0.624,0.264,0.864,0.551,0.864c0.121,0,0.217,0,0.434-0.048l0.264,1.488
		c-0.264,0.12-0.602,0.192-1.129,0.192c-1.488,0-2.088-0.936-2.088-2.64L63.069,317.246L63.069,317.246z"/>
	<path d="M73.942,322.382c1.535,0,2.615,0.648,3.408,1.392l-0.984,1.272c-0.695-0.6-1.416-1.032-2.352-1.032
		c-2.113,0-3.648,1.824-3.648,4.512c0,2.665,1.463,4.464,3.6,4.464c1.104,0,2.041-0.552,2.736-1.176l0.889,1.296
		c-1.057,0.936-2.4,1.512-3.793,1.512c-3.096,0-5.473-2.232-5.473-6.097C68.325,324.614,70.942,322.382,73.942,322.382z"/>
	<path d="M84.165,322.382c2.855,0,5.4,2.232,5.4,6.145c0,3.864-2.545,6.097-5.4,6.097s-5.4-2.232-5.4-6.097
		C78.765,324.614,81.31,322.382,84.165,322.382z M84.165,332.991c2.016,0,3.361-1.8,3.361-4.464c0-2.688-1.346-4.512-3.361-4.512
		c-1.992,0-3.359,1.824-3.359,4.512C80.806,331.191,82.173,332.991,84.165,332.991z"/>
	<path d="M92.636,317.246h1.969v4.656l-0.072,2.4c1.105-1.056,2.281-1.92,3.889-1.92c2.449,0,3.553,1.584,3.553,4.561v7.393h-1.969
		v-7.128c0-2.185-0.672-3.121-2.207-3.121c-1.201,0-2.018,0.624-3.193,1.8v8.449h-1.969L92.636,317.246L92.636,317.246z"/>
	<path d="M110.229,322.382c2.855,0,5.4,2.232,5.4,6.145c0,3.864-2.545,6.097-5.4,6.097c-2.857,0-5.4-2.232-5.4-6.097
		C104.829,324.614,107.372,322.382,110.229,322.382z M110.229,332.991c2.016,0,3.359-1.8,3.359-4.464
		c0-2.688-1.344-4.512-3.359-4.512c-1.992,0-3.361,1.824-3.361,4.512C106.868,331.191,108.237,332.991,110.229,332.991z"/>
	<path d="M118.7,317.246h1.969v14.881c0,0.624,0.264,0.864,0.551,0.864c0.121,0,0.217,0,0.434-0.048l0.264,1.488
		c-0.264,0.12-0.602,0.192-1.129,0.192c-1.488,0-2.088-0.936-2.088-2.64L118.7,317.246L118.7,317.246z"/>
	<path d="M51.981,364.119v3.937h-1.968V351.47h1.632l0.168,1.344h0.072c1.057-0.888,2.352-1.632,3.721-1.632
		c3,0,4.607,2.328,4.607,5.953c0,3.96-2.375,6.289-5.04,6.289c-1.08,0-2.16-0.504-3.24-1.344L51.981,364.119z M54.838,361.767
		c1.921,0,3.337-1.752,3.337-4.632c0-2.568-0.865-4.296-3.072-4.296c-0.984,0-1.969,0.552-3.121,1.584v6.121
		C53.038,361.431,54.069,361.767,54.838,361.767z"/>
	<path d="M67.702,351.182c2.977,0,4.656,2.136,4.656,5.473c0,0.408-0.023,0.792-0.072,1.08h-7.873
		c0.145,2.52,1.656,4.104,3.889,4.104c1.105,0,2.041-0.36,2.904-0.912l0.697,1.296c-1.008,0.648-2.258,1.2-3.842,1.2
		c-3.119,0-5.592-2.28-5.592-6.097C62.469,353.509,65.038,351.182,67.702,351.182z M70.63,356.438c0-2.376-1.055-3.696-2.879-3.696
		c-1.633,0-3.121,1.344-3.361,3.696H70.63z"/>
	<path d="M75.237,351.47h1.633l0.168,2.112h0.072c0.791-1.464,1.99-2.4,3.311-2.4c0.504,0,0.865,0.072,1.248,0.24l-0.383,1.728
		c-0.385-0.12-0.648-0.192-1.129-0.192c-0.984,0-2.16,0.72-2.951,2.688v7.489h-1.969V351.47z"/>
	<path d="M88.077,351.182c1.535,0,2.615,0.648,3.408,1.392l-0.984,1.272c-0.695-0.6-1.416-1.032-2.352-1.032
		c-2.113,0-3.648,1.824-3.648,4.512c0,2.665,1.463,4.464,3.6,4.464c1.104,0,2.041-0.552,2.736-1.176l0.889,1.296
		c-1.057,0.936-2.4,1.512-3.793,1.512c-3.096,0-5.473-2.232-5.473-6.097C82.46,353.414,85.077,351.182,88.077,351.182z"/>
	<path d="M98.132,351.182c2.977,0,4.656,2.136,4.656,5.473c0,0.408-0.023,0.792-0.072,1.08h-7.873
		c0.145,2.52,1.656,4.104,3.889,4.104c1.105,0,2.041-0.36,2.904-0.912l0.697,1.296c-1.008,0.648-2.258,1.2-3.842,1.2
		c-3.119,0-5.592-2.28-5.592-6.097C92.899,353.509,95.468,351.182,98.132,351.182z M101.06,356.438c0-2.376-1.055-3.696-2.879-3.696
		c-1.633,0-3.121,1.344-3.361,3.696H101.06z"/>
	<path d="M105.667,351.47h1.633l0.168,1.68h0.072c1.104-1.104,2.303-1.968,3.912-1.968c2.447,0,3.551,1.584,3.551,4.561v7.393
		h-1.967v-7.128c0-2.185-0.672-3.121-2.209-3.121c-1.199,0-2.016,0.624-3.191,1.8v8.449h-1.969V351.47z"/>
	<path d="M119.132,353.078h-1.729v-1.488l1.824-0.12l0.24-3.264h1.654v3.264h3.145v1.608h-3.145v6.48
		c0,1.44,0.457,2.256,1.801,2.256c0.408,0,0.936-0.168,1.32-0.312l0.385,1.488c-0.648,0.216-1.441,0.432-2.16,0.432
		c-2.496,0-3.336-1.584-3.336-3.888L119.132,353.078L119.132,353.078z"/>
	<path d="M133.075,355.742c0-1.488-0.504-2.928-2.398-2.928c-1.369,0-2.568,0.624-3.48,1.248l-0.793-1.368
		c1.08-0.696,2.713-1.512,4.584-1.512c2.857,0,4.057,1.896,4.057,4.8v7.153h-1.633l-0.168-1.392h-0.047
		c-1.129,0.912-2.424,1.68-3.865,1.68c-1.967,0-3.432-1.224-3.432-3.313C125.899,357.566,128.108,356.294,133.075,355.742z
		 M129.884,361.839c1.129,0,2.064-0.552,3.191-1.561v-3.24c-3.912,0.48-5.232,1.44-5.232,2.928
		C127.843,361.287,128.731,361.839,129.884,361.839z"/>
	<path d="M139.579,362.727v-0.096c-0.576-0.36-1.031-0.984-1.031-1.896c0-0.984,0.672-1.752,1.271-2.16v-0.096
		c-0.768-0.624-1.512-1.752-1.512-3.145c0-2.544,2.016-4.152,4.393-4.152c0.648,0,1.225,0.12,1.656,0.288h4.057v1.512h-2.4
		c0.551,0.528,0.959,1.416,0.959,2.4c0,2.496-1.896,4.056-4.271,4.056c-0.576,0-1.225-0.144-1.752-0.408
		c-0.408,0.36-0.744,0.744-0.744,1.392c0,0.744,0.48,1.272,2.064,1.272h2.256c2.711,0,4.08,0.84,4.08,2.784
		c0,2.16-2.279,4.032-5.904,4.032c-2.857,0-4.824-1.128-4.824-3.144C137.876,364.383,138.524,363.447,139.579,362.727z
		 M142.987,367.144c2.232,0,3.697-1.152,3.697-2.377c0-1.08-0.84-1.44-2.352-1.44h-2.018c-0.455,0-1.008-0.048-1.512-0.192
		c-0.84,0.6-1.199,1.296-1.199,1.968C139.604,366.351,140.876,367.144,142.987,367.144z M145.173,355.334
		c0-1.704-1.105-2.712-2.473-2.712c-1.369,0-2.473,1.008-2.473,2.712s1.129,2.784,2.473,2.784
		C144.044,358.118,145.173,357.038,145.173,355.334z"/>
	<path d="M154.892,351.182c2.977,0,4.656,2.136,4.656,5.473c0,0.408-0.023,0.792-0.072,1.08h-7.873
		c0.145,2.52,1.656,4.104,3.889,4.104c1.105,0,2.041-0.36,2.904-0.912l0.697,1.296c-1.008,0.648-2.258,1.2-3.842,1.2
		c-3.119,0-5.592-2.28-5.592-6.097C149.659,353.509,152.228,351.182,154.892,351.182z M157.819,356.438
		c0-2.376-1.055-3.696-2.879-3.696c-1.633,0-3.121,1.344-3.361,3.696H157.819z"/>
	<path d="M49.702,389.294c1.008,0.816,2.039,1.393,3.432,1.393c1.536,0,2.305-0.816,2.305-1.824c0-1.2-1.393-1.729-2.664-2.208
		c-1.656-0.601-3.48-1.393-3.48-3.36c0-1.872,1.488-3.313,4.008-3.313c1.465,0,2.736,0.601,3.625,1.32l-0.937,1.248
		c-0.792-0.6-1.632-1.032-2.665-1.032c-1.463,0-2.136,0.792-2.136,1.681c0,1.104,1.272,1.512,2.593,2.016
		c1.68,0.624,3.552,1.32,3.552,3.528c0,1.896-1.512,3.48-4.272,3.48c-1.656,0-3.24-0.696-4.344-1.608L49.702,389.294z"/>
	<path d="M64.821,379.981c1.537,0,2.617,0.648,3.408,1.393l-0.984,1.271c-0.695-0.6-1.416-1.032-2.352-1.032
		c-2.111,0-3.648,1.824-3.648,4.513c0,2.664,1.465,4.465,3.6,4.465c1.105,0,2.041-0.553,2.736-1.177l0.889,1.297
		c-1.057,0.936-2.4,1.512-3.793,1.512c-3.096,0-5.472-2.232-5.472-6.097C59.205,382.214,61.821,379.981,64.821,379.981z"/>
	<path d="M77.374,384.542c0-1.488-0.504-2.929-2.4-2.929c-1.367,0-2.568,0.624-3.48,1.248l-0.791-1.367
		c1.08-0.696,2.711-1.513,4.584-1.513c2.855,0,4.057,1.896,4.057,4.801v7.152H77.71l-0.168-1.393h-0.049
		c-1.127,0.912-2.424,1.681-3.863,1.681c-1.969,0-3.432-1.225-3.432-3.313C70.198,386.366,72.405,385.094,77.374,384.542z
		 M74.183,390.639c1.127,0,2.063-0.553,3.191-1.561v-3.24c-3.912,0.48-5.232,1.44-5.232,2.929
		C72.142,390.086,73.03,390.639,74.183,390.639z"/>
	<path d="M83.062,374.845h1.969v14.882c0,0.624,0.264,0.864,0.551,0.864c0.121,0,0.217,0,0.434-0.049l0.264,1.488
		c-0.264,0.12-0.602,0.192-1.129,0.192c-1.488,0-2.088-0.937-2.088-2.641L83.062,374.845L83.062,374.845z"/>
	<path d="M93.55,379.981c2.977,0,4.656,2.137,4.656,5.473c0,0.408-0.023,0.792-0.072,1.08h-7.873
		c0.145,2.521,1.656,4.104,3.889,4.104c1.105,0,2.041-0.36,2.904-0.912l0.697,1.296c-1.008,0.648-2.258,1.2-3.842,1.2
		c-3.119,0-5.592-2.28-5.592-6.097S90.886,379.981,93.55,379.981z M96.478,385.238c0-2.377-1.055-3.696-2.879-3.696
		c-1.633,0-3.121,1.344-3.361,3.696H96.478z"/>
</g>
<g>
	<rect x="224.314" y="618.333" fill="none" width="32.339" height="39.701"/>
	<path d="M238.072,620.096c3.159,0,5.64,1.521,7.158,3.239l-1.879,2.12c-1.36-1.479-3.04-2.439-5.239-2.439
		c-4.999,0-8.277,4.079-8.277,10.599c0,6.599,3.158,10.758,8.117,10.758c2.521,0,4.359-1.04,6.039-2.919l1.881,2.04
		c-2.08,2.398-4.641,3.799-8,3.799c-6.599,0-11.478-5.039-11.478-13.598C226.395,625.255,231.354,620.096,238.072,620.096z"/>
</g>
<ellipse fill="none" stroke="#000000" cx="220.866" cy="622.184" rx="3.549" ry="3.146"/>
<line fill="none" stroke="#000000" x1="136.995" y1="338.511" x2="203.756" y2="338.511"/>
<g>
	<rect x="39.223" y="898.95" fill="none" width="144" height="69.854"/>
	<path d="M39.774,900.293h2.064l1.656,8.568c0.288,1.704,0.624,3.385,0.912,5.088h0.096c0.36-1.703,0.744-3.408,1.104-5.088
		l2.185-8.568h1.824l2.184,8.568c0.384,1.655,0.768,3.385,1.152,5.088h0.096c0.288-1.703,0.576-3.408,0.888-5.088l1.656-8.568h1.921
		l-3.265,15.745h-2.4l-2.376-9.481c-0.288-1.224-0.528-2.352-0.768-3.575h-0.097c-0.239,1.225-0.528,2.353-0.792,3.575l-2.328,9.481
		H43.11L39.774,900.293z"/>
	<path d="M64.424,904.085c2.976,0,4.656,2.136,4.656,5.473c0,0.407-0.024,0.792-0.072,1.08h-7.873
		c0.145,2.521,1.656,4.104,3.889,4.104c1.104,0,2.04-0.36,2.904-0.912l0.696,1.296c-1.008,0.647-2.257,1.2-3.841,1.2
		c-3.12,0-5.592-2.28-5.592-6.097C59.191,906.412,61.759,904.085,64.424,904.085z M67.352,909.342c0-2.377-1.056-3.697-2.88-3.697
		c-1.633,0-3.12,1.346-3.36,3.697H67.352z"/>
	<path d="M71.599,900.701c0-0.77,0.6-1.272,1.368-1.272c0.768,0,1.368,0.504,1.368,1.272c0,0.744-0.601,1.271-1.368,1.271
		C72.198,901.973,71.599,901.445,71.599,900.701z M71.958,904.373h1.969v11.665h-1.969V904.373z"/>
	<path d="M78.678,915.63v-0.096c-0.576-0.36-1.032-0.984-1.032-1.896c0-0.982,0.672-1.752,1.272-2.159v-0.097
		c-0.769-0.624-1.513-1.753-1.513-3.145c0-2.544,2.017-4.152,4.393-4.152c0.648,0,1.225,0.12,1.656,0.288h4.057v1.512h-2.4
		c0.552,0.528,0.96,1.416,0.96,2.4c0,2.496-1.896,4.057-4.272,4.057c-0.576,0-1.224-0.145-1.752-0.408
		c-0.408,0.36-0.744,0.744-0.744,1.394c0,0.744,0.48,1.271,2.064,1.271h2.256c2.712,0,4.08,0.841,4.08,2.785
		c0,2.16-2.279,4.031-5.904,4.031c-2.856,0-4.824-1.127-4.824-3.144C76.974,917.286,77.622,916.35,78.678,915.63z M82.086,920.047
		c2.232,0,3.696-1.152,3.696-2.377c0-1.08-0.84-1.439-2.352-1.439h-2.017c-0.456,0-1.008-0.049-1.512-0.191
		c-0.841,0.601-1.2,1.296-1.2,1.968C78.702,919.254,79.974,920.047,82.086,920.047z M84.271,908.237
		c0-1.704-1.104-2.712-2.473-2.712c-1.369,0-2.472,1.008-2.472,2.712s1.128,2.784,2.472,2.784
		C83.143,911.021,84.271,909.941,84.271,908.237z"/>
	<path d="M89.957,898.949h1.969v4.656l-0.072,2.399c1.104-1.057,2.28-1.921,3.889-1.921c2.448,0,3.552,1.584,3.552,4.561v7.394
		h-1.968v-7.128c0-2.187-0.672-3.121-2.208-3.121c-1.2,0-2.017,0.624-3.192,1.801v8.448h-1.969L89.957,898.949L89.957,898.949z"/>
	<path d="M103.35,905.981h-1.729v-1.488l1.824-0.12l0.24-3.264h1.655v3.264h3.145v1.608h-3.145v6.479
		c0,1.44,0.456,2.256,1.801,2.256c0.408,0,0.936-0.168,1.32-0.312l0.384,1.487c-0.648,0.216-1.44,0.433-2.16,0.433
		c-2.496,0-3.336-1.584-3.336-3.89L103.35,905.981L103.35,905.981z"/>
	<path d="M115.254,904.085c2.976,0,4.656,2.136,4.656,5.473c0,0.407-0.024,0.792-0.072,1.08h-7.873
		c0.145,2.521,1.656,4.104,3.889,4.104c1.104,0,2.04-0.36,2.904-0.912l0.696,1.296c-1.008,0.647-2.257,1.2-3.841,1.2
		c-3.12,0-5.592-2.28-5.592-6.097C110.021,906.412,112.589,904.085,115.254,904.085z M118.182,909.342
		c0-2.377-1.056-3.697-2.88-3.697c-1.633,0-3.12,1.346-3.36,3.697H118.182z"/>
	<path d="M127.013,904.085c1.345,0,2.232,0.504,3.265,1.345l-0.097-1.992v-4.487h1.992v17.089h-1.632l-0.168-1.368h-0.072
		c-0.912,0.889-2.16,1.656-3.528,1.656c-2.928,0-4.824-2.208-4.824-6.097C121.948,906.438,124.349,904.085,127.013,904.085z
		 M127.205,914.67c1.08,0,2.016-0.527,2.976-1.607v-6.098c-0.983-0.888-1.872-1.224-2.832-1.224c-1.872,0-3.36,1.8-3.36,4.464
		C123.988,912.99,125.165,914.67,127.205,914.67z"/>
	<path d="M41.19,927.748h1.969v4.656l-0.049,2.112c1.057-0.937,2.354-1.633,3.648-1.633c3.025,0,4.633,2.328,4.633,5.929
		c0,3.984-2.376,6.313-5.041,6.313c-1.08,0-2.304-0.528-3.336-1.44h-0.072l-0.168,1.152H41.19V927.748z M46.015,943.47
		c1.921,0,3.337-1.752,3.337-4.632c0-2.568-0.864-4.297-3.072-4.297c-0.983,0-2.017,0.553-3.12,1.584v6.121
		C44.19,943.134,45.247,943.47,46.015,943.47z"/>
	<path d="M60.775,937.445c0-1.488-0.504-2.929-2.399-2.929c-1.368,0-2.568,0.623-3.48,1.248l-0.792-1.368
		c1.08-0.695,2.712-1.513,4.584-1.513c2.856,0,4.057,1.896,4.057,4.801v7.152h-1.633l-0.168-1.393h-0.048
		c-1.128,0.911-2.424,1.681-3.864,1.681c-1.968,0-3.432-1.224-3.432-3.313C53.6,939.27,55.808,937.997,60.775,937.445z
		 M57.584,943.542c1.128,0,2.063-0.552,3.191-1.561v-3.24c-3.912,0.479-5.232,1.439-5.232,2.929
		C55.543,942.99,56.432,943.542,57.584,943.542z"/>
	<path d="M66.151,942.197c1.008,0.815,2.04,1.393,3.433,1.393c1.536,0,2.304-0.815,2.304-1.824c0-1.199-1.392-1.729-2.664-2.208
		c-1.656-0.601-3.48-1.392-3.48-3.359c0-1.872,1.488-3.313,4.009-3.313c1.464,0,2.736,0.601,3.624,1.32l-0.937,1.248
		c-0.792-0.6-1.632-1.032-2.664-1.032c-1.464,0-2.136,0.792-2.136,1.682c0,1.104,1.271,1.512,2.592,2.016
		c1.681,0.624,3.553,1.32,3.553,3.528c0,1.896-1.513,3.479-4.272,3.479c-1.656,0-3.24-0.696-4.345-1.607L66.151,942.197z"/>
	<path d="M80.888,932.885c2.976,0,4.656,2.138,4.656,5.474c0,0.407-0.024,0.792-0.072,1.08h-7.873
		c0.145,2.52,1.656,4.104,3.889,4.104c1.104,0,2.04-0.36,2.904-0.912l0.696,1.296c-1.008,0.648-2.257,1.2-3.841,1.2
		c-3.12,0-5.592-2.28-5.592-6.097C75.655,935.212,78.223,932.885,80.888,932.885z M83.815,938.141c0-2.375-1.056-3.694-2.88-3.694
		c-1.633,0-3.12,1.344-3.36,3.694H83.815z"/>
</g>
<line fill="none" stroke="#000000" x1="117.664" y1="927.861" x2="174.173" y2="927.861"/>
</svg>
