<?xml version="1.0" encoding="utf-8"?>
<!-- Generator: Adobe Illustrator 15.1.0, SVG Export Plug-In . SVG Version: 6.00 Build 0)  -->
<!DOCTYPE svg PUBLIC "-//W3C//DTD SVG 1.1//EN" "http://www.w3.org/Graphics/SVG/1.1/DTD/svg11.dtd">
<svg version="1.1" id="Layer_4" xmlns="http://www.w3.org/2000/svg" xmlns:xlink="http://www.w3.org/1999/xlink" x="0px" y="0px"
	 width="325.984px" height="409.316px" viewBox="0 0 325.984 409.316" enable-background="new 0 0 325.984 409.316"
	 xml:space="preserve">
<metadata><?xpacket begin="﻿" id="W5M0MpCehiHzreSzNTczkc9d"?>
<x:xmpmeta xmlns:x="adobe:ns:meta/" x:xmptk="Adobe XMP Core 5.0-c060 61.134777, 2010/02/12-17:32:00        ">
   <rdf:RDF xmlns:rdf="http://www.w3.org/1999/02/22-rdf-syntax-ns#">
      <rdf:Description rdf:about=""
            xmlns:dc="http://purl.org/dc/elements/1.1/">
         <dc:format>image/svg+xml</dc:format>
         <dc:title>
            <rdf:Alt>
               <rdf:li xml:lang="x-default">7-1</rdf:li>
            </rdf:Alt>
         </dc:title>
      </rdf:Description>
      <rdf:Description rdf:about=""
            xmlns:xmp="http://ns.adobe.com/xap/1.0/"
            xmlns:xmpGImg="http://ns.adobe.com/xap/1.0/g/img/">
         <xmp:CreatorTool>Adobe Illustrator CS5.1</xmp:CreatorTool>
         <xmp:CreateDate>2015-02-12T16:48:53+02:00</xmp:CreateDate>
         <xmp:ModifyDate>2015-02-12T16:48:53+02:00</xmp:ModifyDate>
         <xmp:MetadataDate>2015-02-12T16:48:53+02:00</xmp:MetadataDate>
         <xmp:Thumbnails>
            <rdf:Alt>
               <rdf:li rdf:parseType="Resource">
                  <xmpGImg:width>204</xmpGImg:width>
                  <xmpGImg:height>256</xmpGImg:height>
                  <xmpGImg:format>JPEG</xmpGImg:format>
                  <xmpGImg:image>/9j/4AAQSkZJRgABAgEAyADIAAD/7QAsUGhvdG9zaG9wIDMuMAA4QklNA+0AAAAAABAAyAAAAAEA&#xA;AQDIAAAAAQAB/+4ADkFkb2JlAGTAAAAAAf/bAIQABgQEBAUEBgUFBgkGBQYJCwgGBggLDAoKCwoK&#xA;DBAMDAwMDAwQDA4PEA8ODBMTFBQTExwbGxscHx8fHx8fHx8fHwEHBwcNDA0YEBAYGhURFRofHx8f&#xA;Hx8fHx8fHx8fHx8fHx8fHx8fHx8fHx8fHx8fHx8fHx8fHx8fHx8fHx8fHx8f/8AAEQgBAADMAwER&#xA;AAIRAQMRAf/EAaIAAAAHAQEBAQEAAAAAAAAAAAQFAwIGAQAHCAkKCwEAAgIDAQEBAQEAAAAAAAAA&#xA;AQACAwQFBgcICQoLEAACAQMDAgQCBgcDBAIGAnMBAgMRBAAFIRIxQVEGE2EicYEUMpGhBxWxQiPB&#xA;UtHhMxZi8CRygvElQzRTkqKyY3PCNUQnk6OzNhdUZHTD0uIIJoMJChgZhJRFRqS0VtNVKBry4/PE&#xA;1OT0ZXWFlaW1xdXl9WZ2hpamtsbW5vY3R1dnd4eXp7fH1+f3OEhYaHiImKi4yNjo+Ck5SVlpeYmZ&#xA;qbnJ2en5KjpKWmp6ipqqusra6voRAAICAQIDBQUEBQYECAMDbQEAAhEDBCESMUEFURNhIgZxgZEy&#xA;obHwFMHR4SNCFVJicvEzJDRDghaSUyWiY7LCB3PSNeJEgxdUkwgJChgZJjZFGidkdFU38qOzwygp&#xA;0+PzhJSktMTU5PRldYWVpbXF1eX1RlZmdoaWprbG1ub2R1dnd4eXp7fH1+f3OEhYaHiImKi4yNjo&#xA;+DlJWWl5iZmpucnZ6fkqOkpaanqKmqq6ytrq+v/aAAwDAQACEQMRAD8A9FaVbWf6Ls/9wtf3Ee/C&#xA;13+Af5eKus7az+sX3+4Wv79f2LXb9xH/AJeKuktrP9KW/wDuF/3RNtwtf54v8vFXalbWf1dP9wtP&#xA;39v+xa/7/T/LxVFfVbP/AKsn/CWv/VTFULpVtZ/ouz/3C1/cR78LXf4B/l4q6ztrP6xff7ha/v1/&#xA;Ytdv3Ef+Xirry2s/rFj/ALhafv2/Ytd/3En+XirtVtrP9F3n+4Wn7iTfha7fAf8ALxVFfVbP/qyf&#xA;8Ja/9VMVQum21n9Xf/cLX9/cfsWv+/3/AMvFXR21n+lLj/cL/uiHbha/zy/5eKoe8uND+t20f6Ph&#xA;EkNwVljJswwYwSEKR6vWhrTwxVVv002bRrmaDSFkikt3eOVFtWUqUJDKyyGo+WKo36rZ/wDVk/4S&#xA;1/6qYqhdNtrP6u/+4Wv7+4/Ytf8Af7/5eKujtrP9KXH+4X/dEO3C1/nl/wAvFXXltZ/WLH/cLT9+&#xA;37Frv+4k/wAvFXarbWf6LvP9wtP3Em/C12+A/wCXiqK+q2f/AFZP+Etf+qmKoXTbaz+rv/uFr+/u&#xA;P2LX/f7/AOXiro7az/Slx/uF/wB0Q7cLX+eX/LxV15bWf1ix/wBwtP37fsWu/wC4k/y8VRX1Wz/6&#xA;sn/CWv8A1UxVC6VbWf6Ls/8AcLX9xHvwtd/gH+Xiqj6Ft9Y4/or4P0hX6vxg6/UftU58fxxVW0r9&#xA;Hfouzr9er6EfT67T7A8MVdZ/o76xff73f360/wB7f98R4q6T9HfpS3/3up6E3/LbX7cWKu1L9HfV&#xA;0p9e/v7fr9d/3+njiqK/3Hf8v3/T9iqF0r9Hfouzr9er6EfT67T7A8MVdZ/o76xff73f360/3t/3&#xA;xHirrz9HfWLH/e7+/av+9v8AviTFXar+jv0XeU+vV9CTr9dp9g+OKor/AHHf8v3/AE/YqhdN/R31&#xA;d6/Xv7+46fXf9/v4Yq6I6cNUnP8Ap39zB/y2/wA8uKsF8yflbo+sarf3N9fXX+5t2gcRWDRtFbki&#xA;5EangQSJYAefHkeT8q8tlWWw6bp2meV5bDneSmKK5dpFiuYFLzs8z0jjCoq85DxX9laDtiqb/wC4&#xA;7/l+/wCn7FULpv6O+rvX69/f3HT67/v9/DFXR/o79KXH+91PQh/5ba/blxV15+jvrFj/AL3f37V/&#xA;3t/3xJirtV/R36LvKfXq+hJ1+u0+wfHFUV/uO/5fv+n7FULpv6O+rvX69/f3HT67/v8AfwxV0f6O&#xA;/Slx/vdT0If+W2v25cVdefo76xY/73f37V/3t/3xJiqK/wBx3/L9/wBP2KoXSv0d+i7Ov16voR9P&#xA;rtPsDwxVR/0L6x/x9+n+kP8Al69Sv1H/AIOn4YqmGlR6p+i7OlxBT0I6fuH/AJB/xbirrOPVPrF9&#xA;/pEH9+tf3D/74i/4txV0keqfpS3/ANIgr6E/+6H/AJ4v+LcVdqUeqfV0rcQf39v/ALof/f6f8W4q&#xA;i/T1X/log/5EP/1WxVCaVHqn6Ls6XEFPQjp+4f8AkH/FuKus49U+sX3+kQf361/cP/viL/i3FXXk&#xA;eqfWLH/SIP79qfuH/wB8S/8AFuKu1WPVP0XeVuIKehJX9w/8h/4txVF+nqv/AC0Qf8iH/wCq2KoT&#xA;TY9U+rvS4g/v7j/dD/7/AH/4txV0ceqfpS4/0iCvoQf7of8Anl/4txV15Hqn1ix/0iD+/an7h/8A&#xA;fEv/ABbirtVj1T9F3lbiCnoSV/cP/If+LcVRfp6r/wAtEH/Ih/8AqtiqE02PVPq70uIP7+4/3Q/+&#xA;/wB/+LcVdHHqn6UuP9Igr6EH+6H/AJ5f+LcVdeR6p9Ysf9Ig/v2p+4f/AHxL/wAW4q7VY9U/Rd5W&#xA;4gp6Elf3D/yH/i3FUX6eq/8ALRB/yIf/AKrYqhNNj1T6u9LiD+/uP90P/v8Af/i3FXRx6p+lLj/S&#xA;IK+hB/uh/wCeX/i3FXXkeqfWLH/SIP79qfuH/wB8S/8AFuKov09V/wCWiD/kQ/8A1WxVCaVHqn6L&#xA;s6XEFPQjp+4f+Qf8W4qh+GofXaetF6v1/wC16TcafUf5fUr+OKrdKtrP9F2f+4Wv7iPfha7/AAD/&#xA;AC8VdZ21n9Yvv9wtf36/sWu37iP/AC8VdJbWf6Ut/wDcL/uibbha/wA8X+XirtStrP6un+4Wn7+3&#xA;/Ytf9/p/l4qivqtn/wBWT/hLX/qpiqF0q2s/0XZ/7ha/uI9+Frv8A/y8VdZ21n9Yvv8AcLX9+v7F&#xA;rt+4j/y8VdeW1n9Ysf8AcLT9+37Frv8AuJP8vFXarbWf6LvP9wtP3Em/C12+A/5eKor6rZ/9WT/h&#xA;LX/qpiqF022s/q7/AO4Wv7+4/Ytf9/v/AJeKujtrP9KXH+4X/dEO3C1/nl/y8VYP5283a1omqPb2&#xA;nk+31FbeeT6qYldmkUWqOleMQ+Nmnaqrzoqk70JVVlFnLFqHlBr640aITzQ3Ib0Y41QrGzxpKgmM&#xA;bhJVUSJUVocVTr6rZ/8AVk/4S1/6qYqhdNtrP6u/+4Wv7+4/Ytf9/v8A5eKujtrP9KXH+4X/AHRD&#xA;twtf55f8vFXXltZ/WLH/AHC0/ft+xa7/ALiT/LxV2q21n+i7z/cLT9xJvwtdvgP+XiqK+q2f/Vk/&#xA;4S1/6qYqhdNtrP6u/wDuFr+/uP2LX/f7/wCXiro7az/Slx/uF/3RDtwtf55f8vFXXltZ/WLH/cLT&#xA;9+37Frv+4k/y8VRX1Wz/AOrJ/wAJa/8AVTFULpVtZ/ouz/3C1/cR78LXf4B/l4qo+hbfWOP6K+D9&#xA;IV+r8YOv1H7VOfH8cVVtKubP9F2f+5qn7iPbna7fAP8AIxV1nc2f1i+/3NU/fr+3a7/uI/8AIxV0&#xA;lzZ/pS3/ANzX+6Jt+dr/ADxf5GKu1K5s/q6f7mq/v7f9u1/3+n+RiqK+tWf/AFe/+Htf+qeKoXSr&#xA;mz/Rdn/uap+4j252u3wD/IxV1nc2f1i+/wBzVP36/t2u/wC4j/yMVdeXNn9Ysf8Ac1X9+37drt+4&#xA;k/yMVdqtzZ/ou8/3NV/cSbc7Xf4D/kYqivrVn/1e/wDh7X/qniqF025s/q7/AO5qn7+4/btf9/v/&#xA;AJGKujubP9KXH+5r/dEO/O1/nl/yMVdeXNn9Ysf9zVf37ft2u37iT/IxV2q3Nn+i7z/c1X9xJtzt&#xA;d/gP+RiqK+tWf/V7/wCHtf8AqniqF025s/q7/wC5qn7+4/btf9/v/kYq6O5s/wBKXH+5r/dEO/O1&#xA;/nl/yMVdeXNn9Ysf9zVf37ft2u37iT/IxV2q3Nn+i7z/AHNV/cSbc7Xf4D/kYqivrVn/ANXv/h7X&#xA;/qniqF025s/q7/7mqfv7j9u1/wB/v/kYq6O5s/0pcf7mv90Q787X+eX/ACMVdeXNn9Ysf9zVf37f&#xA;t2u37iT/ACMVRX1qz/6vf/D2v/VPFULpVzZ/ouz/ANzVP3Ee3O12+Af5GKqPr231jl+lfg/SFPrH&#xA;KDr9R+zXhx/DFUw0qTVP0XZ0t4KehHT9+/8AIP8AirFXWcmqfWL7/R4P79a/v3/3xF/xVirpJNU/&#xA;Slv/AKPBX0J/93v/ADxf8VYq7UpNU+rpW3g/v7f/AHe/+/0/4qxVF+pqv/LPB/yPf/qjiqE0qTVP&#xA;0XZ0t4KehHT9+/8AIP8AirFXWcmqfWL7/R4P79a/v3/3xF/xVirryTVPrFj/AKPB/ftT9+/++Jf+&#xA;KsVdqsmqfou8rbwU9CSv79/5D/xViqL9TVf+WeD/AJHv/wBUcVQmmyap9XelvB/f3H+73/3+/wDx&#xA;Viro5NU/Slx/o8FfQg/3e/8APL/xViqE1PW1gu7VLibT4XiuCrpJehGDfVpH4kNGDXgwanhv0xVW&#xA;u7+6u9CuLm1W1uLWa2d4p4rkujoyEhlZYqMD7HFUw9TVf+WeD/ke/wD1RxVCabJqn1d6W8H9/cf7&#xA;vf8A3+//ABViro5NU/Slx/o8FfQg/wB3v/PL/wAVYq68k1T6xY/6PB/ftT9+/wDviX/irFXarJqn&#xA;6LvK28FPQkr+/f8AkP8AxViqL9TVf+WeD/ke/wD1RxVCabJqn1d6W8H9/cf7vf8A3+//ABViro5N&#xA;U/Slx/o8FfQg/wB3v/PL/wAVYq68k1T6xY/6PB/ftT9+/wDviX/irFUX6mq/8s8H/I9/+qOKoTSp&#xA;NU/RdnS3gp6EdP37/wAg/wCKsVQ/PUPrtfRi9X6/9n1W40+o/wA3p1/DFVulfo79F2dfr1fQj6fX&#xA;afYHhirrP9HfWL7/AHu/v1p/vb/viPFXSfo79KW/+91PQm/5ba/bixV2pfo76ulPr39/b9frv+/0&#xA;8cVRX+47/l+/6fsVQulfo79F2dfr1fQj6fXafYHhirrP9HfWL7/e7+/Wn+9v++I8Vdefo76xY/73&#xA;f37V/wB7f98SYq7Vf0d+i7yn16voSdfrtPsHxxVFf7jv+X7/AKfsVQum/o76u9fr39/cdPrv+/38&#xA;MVdH+jv0pcf73U9CH/ltr9uXFWJebfy18o67f+rcPqFt+kJZFuBawshIkt0WQkvA5LP9VSrdd28c&#xA;VZGtjpuneWJrBHvZRHHdTNMYriJnluGeaVmESRrQySEgUoOgxVNP9x3/AC/f9P2KoXTf0d9Xev17&#xA;+/uOn13/AH+/hiro/wBHfpS4/wB7qehD/wAttfty4q68/R31ix/3u/v2r/vb/viTFXar+jv0XeU+&#xA;vV9CTr9dp9g+OKor/cd/y/f9P2KoXTf0d9Xev17+/uOn13/f7+GKuj/R36UuP97qehD/AMttfty4&#xA;q68/R31ix/3u/v2r/vb/AL4kxVFf7jv+X7/p+xVC6V+jv0XZ1+vV9CPp9dp9geGKqP8AoX1j/j79&#xA;P9If8vXqV+o/8HT8MVVtKubP9F2f+5qn7iPbna7fAP8AIxV1nc2f1i+/3NU/fr+3a7/uI/8AIxV0&#xA;lzZ/pS3/ANzX+6Jt+dr/ADxf5GKu1K5s/q6f7mq/v7f9u1/3+n+RiqK+tWf/AFe/+Htf+qeKoXSr&#xA;mz/Rdn/uap+4j252u3wD/IxV1nc2f1i+/wBzVP36/t2u/wC4j/yMVdeXNn9Ysf8Ac1X9+37drt+4&#xA;k/yMVdqtzZ/ou8/3NV/cSbc7Xf4D/kYqivrVn/1e/wDh7X/qniqF025s/q7/AO5qn7+4/btf9/v/&#xA;AJGKujubP9KXH+5r/dEO/O1/nl/yMVdeXNn9Ysf9zVf37ft2u37iT/IxV2q3Nn+i7z/c1X9xJtzt&#xA;d/gP+RiqK+tWf/V7/wCHtf8AqniqF025s/q7/wC5qn7+4/btf9/v/kYq6O5s/wBKXH+5r/dEO/O1&#xA;/nl/yMVdeXNn9Ysf9zVf37ft2u37iT/IxV2q3Nn+i7z/AHNV/cSbc7Xf4D/kYqivrVn/ANXv/h7X&#xA;/qniqF025s/q7/7mqfv7j9u1/wB/v/kYq6O5s/0pcf7mv90Q787X+eX/ACMVdeXNn9Ysf9zVf37f&#xA;t2u37iT/ACMVRX1qz/6vf/D2v/VPFULpVzZ/ouz/ANzVP3Ee3O12+Af5GKqPr231jl+lfg/SFPrH&#xA;KDr9R+zXhx/DFUw0qTVP0XZ0t4KehHT9+/8AIP8AirFXWcmqfWL7/R4P79a/v3/3xF/xViqlNfXa&#xA;65aWzJarcvbztHCbhubKHiqQvpVxVV1KTVPq6Vt4P7+3/wB3v/v9P+KsVRD3WoI0avFbK0rcIla4&#xA;YFmCluK1i3PFSfkMVQ+lSap+i7OlvBT0I6fv3/kH/FWKus5NU+sX3+jwf361/fv/AL4i/wCKsVde&#xA;Sap9Ysf9Hg/v2p+/f/fEv/FWKqPmLUrix0O+ub1bW2tlhcPNJcMqgsOI3MQG5NMVTH1NV/5Z4P8A&#xA;ke//AFRxVCabJqn1d6W8H9/cf7vf/f7/APFWKpP5m1rUtMkEpjije4udItE4TOWY3OoekVA9LoVd&#xA;uXgtTiqT+b9a/NKyvZk0fSIdRiFxKbKcKoEaCwLRKUeaNpWa4Y8nWlFBXjUg4qn9jd+YrjyaZtQg&#xA;T668Fx6vq8rZygZxC7RBZODvEFZkr8JNMVTz1NV/5Z4P+R7/APVHFUJpsmqfV3pbwf39x/u9/wDf&#xA;7/8AFWKujk1T9KXH+jwV9CD/AHe/88v/ABVirryTVPrFj/o8H9+1P37/AO+Jf+KsVdqsmqfou8rb&#xA;wU9CSv79/wCQ/wDFWKov1NV/5Z4P+R7/APVHFUDpN3fSQzpFHbO8NzOkyrcMSjmVn4sBFseLq2/Y&#xA;g4qvjk1T9KXH+jwV9CD/AHe/88v/ABVirryTVPrFj/o8H9+1P37/AO+Jf+KsVRfqar/yzwf8j3/6&#xA;o4qhNKk1T9F2dLeCnoR0/fv/ACD/AIqxVD89Q+u19GL1fr/2fVbjT6j/ADenX8MVW6V+jv0XZ1+v&#xA;V9CPp9dp9geGKus/0d9Yvv8Ae7+/Wn+9v++I8VYXrdxolj+ZEOsyw3bGGwNjER9a+sSyljIsEZbj&#xA;vI00aqvLdvvxVMbjzdpcOkaG2sLcwX2pSqbgRPeGCEWx9SeUvIVPpqUC161YbdSFUgbVrm5l+sX8&#xA;t7bPo9+NacObz/R7KWGJI7eUmgXnDdXClj+0jUNBirOfLGoaRqPl3Tb2EagIp7aJ1VvroI+EbHiS&#xA;PuOKsbg8+aI1813Z/XLjRpEZ55FN4JRPLHGtpGoLAcpGt5o+J35lAOuKrYvPdq1zbrqFndRLYC8b&#xA;U7mGa8aNLuzSRWto1YKzExn1ORpsR4miq46Nql7pV/b+ZHvJ0trOb6vKfrRWae6t/wB4zIioAtsW&#xA;kijqPiRqtVhXFU38kR3EWjyQa1eX19qUVxKtxOPr3DkSGKx7AhELcUrvxpXFU2039HfV3r9e/v7j&#xA;p9d/3+/hirFvN8MM+uxi3hvrqSxsjqltaL9b9SW5s7hDGq8yu7JJIgqQKt1HXFUX5i82eX7Ty/Dr&#xA;Uct2hFlcatbxT/XamGGzeQsVB6KZEDcT364qnmsy6VHpN48j3iL6Ljk5vQKspAFTtuTTFWIaD5o0&#xA;e01fUpNUnvkt7yz/AE6bx2u1hhtDM0FulK1qYERiQKVr3O6qHu/NOopc6xpGmrdfpBb2miV+tn1h&#xA;FW6u4mB/yBw5djIuKrPK/nddZ83RcTdnTXS6glZGuyrrJLJc6XOp+3R7KJ6j+YnrSuKpp528zaZZ&#xA;XGjSWN1dkWlyuo6qgN43+4s2tyJJe5IojOvHc8MVQGna+lo9zpGq/X5NV1h7m5MbyXf+jounwTNG&#xA;EJJKRySekKeFSa9VU38weYrOZdI/QV3dPDNcw3F9cI14w+ox3CRTAE8qcncA/wCSH6EYqhfywfTp&#xA;LHV7yRrs3Gp6lLfPxN4SRNBAyiq9fTQpHXwAxVZY+fdJn8zNaGC7jgMr29xdtLd8EhhEjwzHoaT+&#xA;ogWu3XFV8nmuS90a3u7SzuU1c6j9XtrOZ77gUnRpLd3K/ED9UlSWRR0PIdsVZXpt/pOoWFvexC/V&#xA;J0D8D9d5KT9pGpUclPwn3xVrSv0d+i7Ov16voR9PrtPsDwxVR/0L6x/x9+n+kP8Al69Sv1H/AIOn&#xA;4YqmGlR6p+i7OlxBT0I6fuH/AJB/xbirrOPVPrF9/pEH9+tf3D/74i/4txVAfoCZdf8ArMslrPLN&#xA;JLfRGS2J9KVYbe25JWXZuCfa67kYqlWo+Q5ZbK6hv72O5t7m5tlhj9Bl9O3F8Ln0QfVOzPIUYjqg&#xA;UdRUqsqubK8ureW2uXtZ7adGingltmdHRxxZHVpSGVgaEHFXm2jL56mtn0+wmpaxvLozx+kVWD62&#xA;ProvuRk+IRWskaIP5jx8cVZroPl8aa2pQWItYIZLtZpEEEhBk9CH4vimNPsg/PfFV2uaHJqFxpX1&#xA;t4JPq96LiKkMi/vI4ZCpbjMOQ2HwnY0FcVRmqx6p+i7ytxBT0JK/uH/kP/FuKoXQY9U/3I0uIB/p&#xA;01f3L9fh/wCLcVRWmx6p9XelxB/f3H+6H/3+/wDxbiqReXv8Ran5ivtXu2tYYYofqul8I5GLwG4l&#xA;5SupkXiZPRQgVO2KvMXu7HVL5LXzDrcWnaf5aka2PqQNQReikDwTnlxEZa1jdw3X1VH7QGKp3Y3l&#xA;1rH5f6joM+sW+oXz3UP1qNBIzxrdMt7LGpeRXVYeM8aclBpH0HQKs7uPJM1zpul6fPeQyQackcMt&#xA;bY1uIoo+AR/3uw5hX28Kdziqr5Q0zXbPRvTu7u2lvXubuW6lWByDJJcyM1CZFNBso26AYqlOs+SL&#xA;m4e4g0p7WzuGSxSSVYpEpbqJrSTh+9ajpaSyBNutPniqReV/KGux+brPWneKK0s/r+g28U0Dcmtb&#xA;QrHZNx5iqgRXFDXo9f2jiqZefNKvNLvZPN8twkyxwram3jt2+AmC7iVgBKWZriW6hi/2K9gcVR/l&#xA;ryDe6bbX9neXFrc6ffWltaNZvAzRhIomE4K+oB+9lldz88VSzW/K2sR3lrq+l3AjnmuH0qSO2hdB&#xA;Db3M0sMtwoWX7SVib/nmvhiqeN5L0+afU7F4bUWt7a2UVxCkEiKUtTIsCrxmHH0wo40xVdqPlzVH&#xA;836XrIvoRGnKOS2+rtRpkhmEMtfV2KxzTKfGo/lxVHaJaazbNqVt6sSQR3ssluzW7jktwq3MjKfV&#xA;3HrTOPopiqJ0qPVP0XZ0uIKehHT9w/8AIP8Ai3FUPw1D67T1ovV+v/a9JuNPqP8AL6lfxxVbpVtZ&#xA;/ouz/wBwtf3Ee/C13+Af5eKus7az+sX3+4Wv79f2LXb9xH/l4q6S2s/0pb/7hf8AdE23C1/ni/y8&#xA;VdqVtZ/V0/3C0/f2/wCxa/7/AE/y8VRX1Wz/AOrJ/wAJa/8AVTFULpVtZ/ouz/3C1/cR78LXf4B/&#xA;l4q6ztrP6xff7ha/v1/Ytdv3Ef8Al4q68trP6xY/7hafv2/Ytd/3En+XirtVtrP9F3n+4Wn7iTfh&#xA;a7fAf8vFUh8qXsdz5g8y6a/l8LBp9zG0UvG35OZwxbYsF4rwAFCd+WKqnmKKzHlDU4Rp/wBTlvGu&#xA;LOC5AtldJLmd4UMZ9QH1AX+ADvirfkrTp7fSbOLVND4aj9QtWvIuNs3CZ2lZ1qXFaE0+jFVXzH5T&#xA;0XV7xHv9LvJPrsjrcRidFjctatEWKCXjyEacVPVamhqcVQ995L02COG6WxuXTTra7bhMbeRpri4D&#xA;k3EsjSc2f99LXsS9ewxVk31Wz/6sn/CWv/VTFULpttZ/V3/3C1/f3H7Fr/v9/wDLxV0dtZ/pS4/3&#xA;C/7oh24Wv88v+Xirry2s/rFj/uFp+/b9i13/AHEn+XirtVtbP9F3n+4Sn7iTfha7fAf8vFUV9Vs/&#xA;+rJ/wlr/ANVMVQum21n9Xf8A3C1/f3H7Fr/v9/8ALxV0dtZ/pS4/3C/7oh24Wv8APL/l4q68trP6&#xA;xY/7hafv2/Ytd/3En+XiqK+q2f8A1ZP+Etf+qmKoXSraz/Rdn/uFr+4j34Wu/wAA/wAvFVH0Lb6x&#xA;x/RXwfpCv1fjB1+o/apz4/jiqtpVzZ/ouz/3NU/cR7c7Xb4B/kYq6zubP6xff7mqfv1/btd/3Ef+&#xA;RirpLmz/AEpb/wC5r/dE2/O1/ni/yMVdqVzZ/V0/3NV/f2/7dr/v9P8AIxVFfWrP/q9/8Pa/9U8V&#xA;QulXNn+i7P8A3NU/cR7c7Xb4B/kYq6zubP6xff7mqfv1/btd/wBxH/kYq68ubP6xY/7mq/v2/btd&#xA;v3En+RirtVubP9F3n+5qv7iTbna7/Af8jFUDd3dtbeZbCb9LF4b+KSzeVXtapJGDcR8vg+yypJvT&#xA;Y08cVQ99d2gg09F1jlI+qsETnbVNJZXZh8H7KKz79h40GKptHc2f6UuP9zX+6Id+dr/PL/kYq68u&#xA;bP6xY/7mq/v2/btdv3En+RirtVubP9F3n+5qv7iTbna7/Af8jFUV9as/+r3/AMPa/wDVPFULptzZ&#xA;/V3/ANzVP39x+3a/7/f/ACMVdHc2f6UuP9zX+6Id+dr/ADy/5GKuvLmz+sWP+5qv79v27Xb9xJ/k&#xA;Yq7Vbmz/AEXef7mq/uJNudrv8B/yMVRX1qz/AOr3/wAPa/8AVPFULptzZ/V3/wBzVP39x+3a/wC/&#xA;3/yMVdHc2f6UuP8Ac1/uiHfna/zy/wCRirry5s/rFj/uar+/b9u12/cSf5GKor61Z/8AV7/4e1/6&#xA;p4qhdKubP9F2f+5qn7iPbna7fAP8jFVH17b6xy/SvwfpCn1jlB1+o/Zrw4/hiqYaVJqn6Ls6W8FP&#xA;Qjp+/f8AkH/FWKus5NU+sX3+jwf361/fv/viL/irFXSSap+lLf8A0eCvoT/7vf8Ani/4qxV2pSap&#xA;9XStvB/f2/8Au9/9/p/xViqL9TVf+WeD/ke//VHFUJpUmqfouzpbwU9COn79/wCQf8VYq6zk1T6x&#xA;ff6PB/frX9+/++Iv+KsVdeSap9Ysf9Hg/v2p+/f/AHxL/wAVYq7VZNU/Rd5W3gp6Elf37/yH/irF&#xA;UB5jv7q0uNGubtLaCCK8dnle4YKB9SuepMWKpB5f1zXNU8yvpk1vbctLvL7UEKSuOMBmuLCFH/dt&#xA;UySC4YN/kUpirLo5NU/Slx/o8FfQg/3e/wDPL/xVirDPOV5+bNtf3Y0KGK7UyudHBigVeXow8Y5D&#xA;LKGI4G5YspUlwo2SoKrI7SbzI3lF21KFWvDBciVpmEUpQM4haRIkeMSNDxLhdg1QNsVTv1NV/wCW&#xA;eD/ke/8A1RxVCabJqn1d6W8H9/cf7vf/AH+//FWKujk1T9KXH+jwV9CD/d7/AM8v/FWKuvJNU+sW&#xA;P+jwf37U/fv/AL4l/wCKsVdqsmqfou8rbwU9CSv79/5D/wAVYqi/U1X/AJZ4P+R7/wDVHFUJpsmq&#xA;fV3pbwf39x/u9/8Af7/8VYq6OTVP0pcf6PBX0IP93v8Azy/8VYq68k1T6xY/6PB/ftT9+/8AviX/&#xA;AIqxVF+pqv8Ayzwf8j3/AOqOKoTSpNU/RdnS3gp6EdP37/yD/irFUPz1D67X0YvV+v8A2fVbjT6j&#xA;/N6dfwxVbpVtZ/ouz/3C1/cR78LXf4B/l4q6ztrP6xff7ha/v1/Ytdv3Ef8Al4q6S2s/0pb/AO4X&#xA;/dE23C1/ni/y8VdqVtZ/V0/3C0/f2/7Fr/v9P8vFUV9Vs/8Aqyf8Ja/9VMVQulW1n+i7P/cLX9xH&#xA;vwtd/gH+XirrO2s/rF9/uFr+/X9i12/cR/5eKuvLaz+sWP8AuFp+/b9i13/cSf5eKu1W2s/0Xef7&#xA;hafuJN+Frt8B/wAvFUh/MXy3Z6p5ckY6Y1vHp/q3zhEtqyGK2mCIWElVAkdXNOvGnfFUX5Ps9ObT&#xA;bi4XQ1eSS/1FTMI7WrIuo3JReRcEheRp232xVM47az/Slx/uF/3RDtwtf55f8vFXXltZ/WLH/cLT&#xA;9+37Frv+4k/y8VdqttZ/ou8/3C0/cSb8LXb4D/l4qivqtn/1ZP8AhLX/AKqYqhdNtrP6u/8AuFr+&#xA;/uP2LX/f7/5eKujtrP8ASlx/uF/3RDtwtf55f8vFXXltZ/WLH/cLT9+37Frv+4k/y8VdqttZ/ou8&#xA;/wBwtP3Em/C12+A/5eKor6rZ/wDVk/4S1/6qYqhdNtrP6u/+4Wv7+4/Ytf8Af7/5eKujtrP9KXH+&#xA;4X/dEO3C1/nl/wAvFXXltZ/WLH/cLT9+37Frv+4k/wAvFUV9Vs/+rJ/wlr/1UxVC6VbWf6Ls/wDc&#xA;LX9xHvwtd/gH+Xiqj6Ft9Y4/or4P0hX6vxg6/UftU58fxxVW0q5s/wBF2f8Auap+4j252u3wD/Ix&#xA;V1nc2f1i+/3NU/fr+3a7/uI/8jFXSXNn+lLf/c1/uibfna/zxf5GKu1K5s/q6f7mq/v7f9u1/wB/&#xA;p/kYqivrVn/1e/8Ah7X/AKp4qhdKubP9F2f+5qn7iPbna7fAP8jFXWdzZ/WL7/c1T9+v7drv+4j/&#xA;AMjFXXlzZ/WLH/c1X9+37drt+4k/yMVdqtzZ/ou8/wBzVf3Em3O13+A/5GKoTzY7XHlbWYNP1ZZ7&#xA;+WxuUtIHktVV5mhYRoTwFAzUGKrvLUOnadosFhDrZ9K0MkKEvbVKxyMoJqhNTSuKomO5s/0pcf7m&#xA;v90Q787X+eX/ACMVSHzX570LQtdj0q91C+fULW3GpehBBBIWhcvBRaIPiFS5/wAkHvtirINXlgXS&#xA;bhn1d1Ets7xhzbqWVkNCAYwd8VRH1qz/AOr3/wAPa/8AVPFULptzZ/V3/wBzVP39x+3a/wC/3/yM&#xA;VdHc2f6UuP8Ac1/uiHfna/zy/wCRirry5s/rFj/uar+/b9u12/cSf5GKu1W5s/0Xef7mq/uJNudr&#xA;v8B/yMVRX1qz/wCr3/w9r/1TxVC6bc2f1d/9zVP39x+3a/7/AH/yMVdHc2f6UuP9zX+6Id+dr/PL&#xA;/kYq68ubP6xY/wC5qv79v27Xb9xJ/kYqivrVn/1e/wDh7X/qniqF0q5s/wBF2f8Auap+4j252u3w&#xA;D/IxVR9e2+scv0r8H6Qp9Y5QdfqP2a8OP4YqmGlSap+i7OlvBT0I6fv3/kH/ABVirrOTVPrF9/o8&#xA;H9+tf37/AO+Iv+KsVdJJqn6Ut/8AR4K+hP8A7vf+eL/irFXalJqn1dK28H9/b/7vf/f6f8VYqi/U&#xA;1X/lng/5Hv8A9UcVQmlSap+i7OlvBT0I6fv3/kH/ABVirrOTVPrF9/o8H9+tf37/AO+Iv+KsVdeS&#xA;ap9Ysf8AR4P79qfv3/3xL/xVirtVk1T9F3lbeCnoSV/fv/If+KsVRfqar/yzwf8AI9/+qOKoTTZN&#xA;U+rvS3g/v7j/AHe/+/3/AOKsVdHJqn6UuP8AR4K+hB/u9/55f+KsVSnzB5X03Vb63m1PQ9PvJbj/&#xA;AEWZ5mLl4VR5Qh5Q9Oag/h0xVNtUfUxpN2otoAogkAAmfYcD0HpYqi/U1X/lng/5Hv8A9UcVQmmy&#xA;ap9XelvB/f3H+73/AN/v/wAVYq6OTVP0pcf6PBX0IP8Ad7/zy/8AFWKuvJNU+sWP+jwf37U/fv8A&#xA;74l/4qxV2qyap+i7ytvBT0JK/v3/AJD/AMVYqi/U1X/lng/5Hv8A9UcVQmmyap9XelvB/f3H+73/&#xA;AN/v/wAVYq6OTVP0pcf6PBX0IP8Ad7/zy/8AFWKuvJNU+sWP+jwf37U/fv8A74l/4qxVF+pqv/LP&#xA;B/yPf/qjiqE0qTVP0XZ0t4KehHT9+/8AIP8AirFUPz1D67X0YvV+v/Z9VuNPqP8AN6dfwxVbpX6O&#xA;/RdnX69X0I+n12n2B4Yq6z/R31i+/wB7v79af72/74jxV0n6O/Slv/vdT0Jv+W2v24sVdqX6O+rp&#xA;T69/f2/X67/v9PHFUV/uO/5fv+n7FULpX6O/RdnX69X0I+n12n2B4Yq6z/R31i+/3u/v1p/vb/vi&#xA;PFXXn6O+sWP+939+1f8Ae3/fEmKu1X9Hfou8p9er6EnX67T7B8cVRX+47/l+/wCn7FULpv6O+rvX&#xA;69/f3HT67/v9/DFXR/o79KXH+91PQh/5ba/blxVu7FgbiyIF8QJiW/3u2HoyD9eKtar+jv0XeU+v&#xA;V9CTr9dp9g+OKor/AHHf8v3/AE/YqhdN/R31d6/Xv7+46fXf9/v4Yq6P9HfpS4/3up6EP/LbX7cu&#xA;KuvP0d9Ysf8Ae7+/av8Avb/viTFXar+jv0XeU+vV9CTr9dp9g+OKor/cd/y/f9P2KoXTf0d9Xev1&#xA;7+/uOn13/f7+GKuj/R36UuP97qehD/y21+3Lirrz9HfWLH/e7+/av+9v++JMVRX+47/l+/6fsVQu&#xA;lfo79F2dfr1fQj6fXafYHhiqj/oX1j/j79P9If8AL16lfqP/AAdPwxVMNKj1T9F2dLiCnoR0/cP/&#xA;ACD/AItxV1nHqn1i+/0iD+/Wv7h/98Rf8W4q6SPVP0pb/wCkQV9Cf/dD/wA8X/FuKu1KPVPq6VuI&#xA;P7+3/wB0P/v9P+LcVRfp6r/y0Qf8iH/6rYqhNKj1T9F2dLiCnoR0/cP/ACD/AItxV1nHqn1i+/0i&#xA;D+/Wv7h/98Rf8W4q68j1T6xY/wCkQf37U/cP/viX/i3FXarHqn6LvK3EFPQkr+4f+Q/8W4qi/T1X&#xA;/log/wCRD/8AVbFUJpseqfV3pcQf39x/uh/9/v8A8W4q6OPVP0pcf6RBX0IP90P/ADy/8W4qw7z7&#xA;5L836v5iN5putPbWNzZLZQ2P1m4t0E6yNMZCLdQw+FK8+dTQJSm4VZnq8V+NHuFSeM8bZxI0kZZm&#xA;YIat8LoBX5YqifT1X/log/5EP/1WxVCabHqn1d6XEH9/cf7of/f7/wDFuKujj1T9KXH+kQV9CD/d&#xA;D/zy/wDFuKuvI9U+sWP+kQf37U/cP/viX/i3FXarHqn6LvK3EFPQkr+4f+Q/8W4qi/T1X/log/5E&#xA;P/1WxVCabHqn1d6XEH9/cf7of/f7/wDFuKujj1T9KXH+kQV9CD/dD/zy/wDFuKuvI9U+sWP+kQf3&#xA;7U/cP/viX/i3FUX6eq/8tEH/ACIf/qtiqE0qPVP0XZ0uIKehHT9w/wDIP+LcVQ/DUPrtPWi9X6/9&#xA;r0m40+o/y+pX8cVbsbC2hsreGTRKyRxojkJakVVQD+3irrewto5blm0SqyyB0+C12AjRf5/FTirn&#xA;sLY3sUw0T92kciMOFrWrshH7f+QcVdeWFtLEqpolGEkTmqWo2SRWb9vwGKq/1Wz/AOrJ/wAJa/8A&#xA;VTFVCxsLaGyt4ZNErJHGiOQlqRVVAP7eKut7C2jluWbRKrLIHT4LXYCNF/n8VOKuuLC2kltmXRKL&#xA;FIXf4LXcGN1/n8WGKuvrC2msriGPRKSSRuiEpagVZSB+3iqv9Vs/+rJ/wlr/ANVMVULOwtoomV9E&#xA;qxklcUS1OzyMy/t+BxVyWFsL2WY6J+7eONFHC1rVGcn9v/LGKuuLC2kltmXRKLFIXf4LXcGN1/n8&#xA;WGKuvrC2msriGPRKSSRuiEpagVZSB+3iqv8AVbP/AKsn/CWv/VTFVCzsLaKJlfRKsZJXFEtTs8jM&#xA;v7fgcVclhbC9lmOifu3jjRRwta1RnJ/b/wAsYq64sLaSW2ZdEosUhd/gtdwY3X+fxYYq6+sLaayu&#xA;IY9EpJJG6ISlqBVlIH7eKq/1Wz/6sn/CWv8A1UxVQs7C2iiZX0SrGSVxRLU7PIzL+34HFXJYWwvZ&#xA;Zjon7t440UcLWtUZyf2/8sYq64sLaSW2ZdEosUhd/gtdwY3X+fxYYqr/AFWz/wCrJ/wlr/1UxVQs&#xA;bC2hsreGTRKyRxojkJakVVQD+3iq39GJz5/ooel9b9f0OMH2fqvpcqc+P2vfFU+xV2KuxV2KuxV2&#xA;KuxV2KuxV2KuxV2KuxV2KuxV2KuxV2KuxV2KuxV2KuxV2KuxV2KuxV2KuxV2KuxV2KuxV2KuxV2K&#xA;uxV2KpHqPnjynp19JYXmpwxXcMkEU8PxMY3uVZ4hJxBCcljLVagAoTSoqqj9G1rTNZ09NQ0ycXFp&#xA;IWVZAGU8o2KOpVwrKQykEEYqjcVdirsVdirsVdirsVdirsVdirsVdiqV6Zpmmvpto72kLO0MZZjG&#xA;hJJQEkkjFXWel6Ybi+Bs4CFnAUemmw9GM+HvirpNL0z9J26/U4OJgmJHppSoeKnb3xV2o6Xpi26F&#xA;bOAH14BURp0MyA9sVRX6J0r/AJYoP+RSf0xVC6dpemNbuWs4CfXnFTGnQTOB2xVFfonSv+WKD/kU&#xA;n9MVQt5pemC4sQLOABpyGHppuPRkPh7Yq7VNL0xdMvGWzgDCCQgiNAQQh9sVRX6J0r/lig/5FJ/T&#xA;FULp2l6Y1u5azgJ9ecVMadBM4HbFXR6Xpn6TuF+pwcRBCQPTSlS8te3tiqWeZfJPlvWL60l1C1Mr&#xA;SSQRMFkkjBjtEuJYkojKCvKZuSnZh16DFUQPLOjaT5bnsbaDnFDHcSI85M8vOXlI7GSTk5PI9z+r&#xA;FU1/ROlf8sUH/IpP6YqhbPS9MNxfA2cBCzgKPTTYejGfD3xV0ml6Z+k7dfqcHEwTEj00pUPFTt74&#xA;q7UdL0xbdCtnAD68AqI06GZAe2Kor9E6V/yxQf8AIpP6YqhdL0vTG0yzZrOAsYIySY0JJKD2xV1n&#xA;pemG4vgbOAhZwFHppsPRjPh74q6TS9M/Sduv1ODiYJiR6aUqHip298VdqOl6YtuhWzgB9eAVEadD&#xA;MgPbFUV+idK/5YoP+RSf0xVC6dpemNbuWs4CfXnFTGnQTOB2xVC/ozTf8T+n9Uh4fUuXD01pX1aV&#xA;pTFUVpel6Y2mWbNZwFjBGSTGhJJQe2KtWelaX9Yvv9Dg2nWn7tP98Re2Kuk0rS/0pbj6nBT0J9vT&#xA;T+eL2xV2paVpYt0pZwf39v8A7rT/AH+ntiqL/ROlf8sUH/IpP6YqhNN0rSzbvWzg/v7j/daf7/f2&#xA;xVF/onSv+WKD/kUn9MVQl5pWl/WLH/Q4N52r+7T/AHxL7Yq7VdK0saXeEWcAIgkofTT+Q+2Kov8A&#xA;ROlf8sUH/IpP6YqhNN0rSzbvWzg/v7j/AHWn+/39sVdHpWl/pS4H1OCnoQbemn88vtiqT+Zdb8i6&#xA;LqVhaam1tbXTt60dv6DO8iurwoqLHG/J3kaiJ9pqHiDQ4qmd1aaFd6BNeWlvbS21xatNbzJGhV0e&#xA;MsjKadCDUYqmH6J0r/lig/5FJ/TFUJZ6Vpf1i+/0ODadafu0/wB8Re2Kuk0rS/0pbj6nBT0J9vTT&#xA;+eL2xV2paVpYt0pZwf39v/utP9/p7Yqi/wBE6V/yxQf8ik/piqE0rStLOl2ZNnASYI6n00/kHtir&#xA;rPStL+sX3+hwbTrT92n++IvbFXSaVpf6Utx9Tgp6E+3pp/PF7Yq7UtK0sW6Us4P7+3/3Wn+/09sV&#xA;Rf6J0r/lig/5FJ/TFUJpulaWbd62cH9/cf7rT/f7+2KoX9FaX/imn1OCn1GtPTSlfW+WKt6Z/hj9&#xA;G2nqfUufox8+XpVrxFa1xVqz/wALfWL6v1GnrrT+56ehHirpP8LfpS3/AN4aehNX+5pXnFirtS/w&#xA;t9XSn1Gvr2/T0enrpXFUV/zqv/Lj/wAkcVQum/4W+rvX6jX17jr6PT13piqK/wCdV/5cf+SOKoW8&#xA;/wALfWLGn1GnrtX+56ehJirtV/wt+i7yn1GvoSUp6Na8DiqK/wCdV/5cf+SOKoXTf8LfV3r9Rr69&#xA;x19Hp670xV0f+Fv0pcf7w09CGn9zSvOXFUr80+XPI2u6tp1/qLxyXsLqkNxHdPE8RhWWaKRDHItH&#xA;jkJKn3+VFUxvYvKlvoD2kJs/Qs7M29qjNG5SKKMqiAsS2w98VRv/ADqv/Lj/AMkcVQtn/hb6xfV+&#xA;o09daf3PT0I8VdJ/hb9KW/8AvDT0Jq/3NK84sVdqX+Fvq6U+o19e36ej09dK4qiv+dV/5cf+SOKo&#xA;XSv8Lfouzr9Rr6Eda+jWvAYq6z/wt9Yvq/UaeutP7np6EeKuk/wt+lLf/eGnoTV/uaV5xYq7Uv8A&#xA;C31dKfUa+vb9PR6eulcVRX/Oq/8ALj/yRxVC6b/hb6u9fqNfXuOvo9PXemKoX/nWP8T/APHlw+pf&#xA;8VUr6uKprpeqaYumWateQBhBGCDIgIIQe+KtWeq6X9Yvv9Mg3nWn7xP98Re+Kuk1XS/0pbn65BT0&#xA;J9/UT+eL3xV2parpZt0peQf39v8A7sT/AH+nviqL/S2lf8tsH/I1P64qhNN1XSxbvW8g/v7j/dif&#xA;7/f3xVFfpfSa0+uwVG5Hqp/XFULearpf1ix/0yDadq/vE/3xL74q7VdV0s6XeAXkBJgkoPUT+Q++&#xA;Kov9LaV/y2wf8jU/riqE03VdLFu9byD+/uP92J/v9/fFXR6rpf6UuD9cgp6EG/qJ/PL74qk/mvz7&#xA;5d0PWdN028eV76Zklgt4U9RpDP6lvCigH7UkhIXtsakYqml1rmk3flw30VzGtvfWRubUyMEZopYu&#xA;SNxah3BxVH/pbSv+W2D/AJGp/XFUJZ6rpf1i+/0yDedafvE/3xF74q6TVdL/AEpbn65BT0J9/UT+&#xA;eL3xV2parpZt0peQf39v/uxP9/p74qi/0tpX/LbB/wAjU/riqE0rVdLGl2YN5ACII6j1E/kHvirr&#xA;PVdL+sX3+mQbzrT94n++IvfFXSarpf6Utz9cgp6E+/qJ/PF74q7UtV0s26UvIP7+3/3Yn+/098VR&#xA;f6W0r/ltg/5Gp/XFUJpuq6WLd63kH9/cf7sT/f7++KoX9K6X/imv1yCn1GlfUSlfW+eKovS9U0xd&#xA;Ms1a8gDCCMEGRAQQg98Vas9V0v6xff6ZBvOtP3if74i98VdJqul/pS3P1yCnoT7+on88XvirtS1X&#xA;SzbpS8g/v7f/AHYn+/098VRf6W0r/ltg/wCRqf1xVCabquli3et5B/f3H+7E/wB/v74q6PVdL/Sl&#xA;wfrkFPQg39RP55ffFXXmq6X9Ysf9Mg2nav7xP98S++Ku1XVdLOl3gF5ASYJKD1E/kPviqpeeY/L9&#xA;nAZ7rUraGIbcmlQVJ6KN9yewG5xVLvL3m7y3fRTRQX8azxzTs9vPW3mCtO9G9KYRvxNftUpiqNj1&#xA;XS/0pcH65BT0IN/UT+eX3xVLPMOneStXu7KTUksruQuYvUkdCwVY5HUhgQQyNujdVqaEVOKo+9vd&#xA;Dt9Dntra4tooIbV44YY3jVVRYyqqqg0AAFAMVR/6W0r/AJbYP+Rqf1xVCWeq6X9Yvv8ATIN51p+8&#xA;T/fEXvirpNV0v9KW5+uQU9Cff1E/ni98VdqWq6WbdKXkH9/b/wC7E/3+nviqL/S2lf8ALbB/yNT+&#xA;uKoTStV0saXZg3kAIgjqPUT+Qe+Kus9V0v6xff6ZBvOtP3if74i98VdJqul/pS3P1yCnoT7+on88&#xA;XvirtS1XSzbpS8g/v7f/AHYn+/098VRf6W0r/ltg/wCRqf1xVCabquli3et5B/f3H+7E/wB/v74q&#xA;hf0rpf8Aimv1yCn1GlfUSlfW+eKovS9Rt10yzUpPUQRg0gmI+wO4TFWrPUrf6xffBPvOv/HvP/vi&#xA;L/IxV0mpW/6Utzwn/uJ/+Pef+eL/ACMVdqWpW5t0+Cf+/t/+Pef/AH+n+RiqL/Sdt/JP/wBI8/8A&#xA;zRiqE03UrcW7/BP/AH9x/wAe8/8Av9/8jFXR6lb/AKUuDwn/ALiD/j3n/nl/yMVdealb/WLH4J9p&#xA;2/495/8AfEv+RirtV1K3Ol3g4T/3En/HvP8AyH/IxVK9Cn0/UZf8RXdvLNczu7aW720z+hZn4YvR&#xA;JT4fWRRK5G55cTUKKKopE0TULThfWTXIjuLh4jJaysUb13+JDwqre43xVBeWtSig1PVNOkF2TZmP&#xA;0PWhuHc28sk0kRDMpLIORRT/AJNOoOKoPzx+Y2naBq2m6eYGmvZlW5h9Vvq0IM0n1WJZJZFPEVld&#xA;3IBKKhJG61VT2TXLa/8AKceppHMkWo2H1mKP03dlWWEOA/AMFIDYqmP6Ttv5J/8ApHn/AOaMVQln&#xA;qVv9Yvvgn3nX/j3n/wB8Rf5GKuk1K3/SlueE/wDcT/8AHvP/ADxf5GKu1LUrc26fBP8A39v/AMe8&#xA;/wDv9P8AIxVF/pO2/kn/AOkef/mjFUJpWpW40uzHCf8AuI/+Pef+Qf5GKus9St/rF98E+86/8e8/&#xA;++Iv8jFXSalb/pS3PCf+4n/495/54v8AIxV2palbm3T4J/7+3/495/8Af6f5GKov9J238k//AEjz&#xA;/wDNGKoTTdStxbv8E/8Af3H/AB7z/wC/3/yMVQv6St/8U14T0+o0/wB556/33hwxVF6XqNuumWal&#xA;J6iCMGkExH2B3CYq1Z6lb/WL74J951/495/98Rf5GKuk1K3/AEpbnhP/AHE//HvP/PF/kYq7UtSt&#xA;zbp8E/8Af2//AB7z/wC/0/yMVRf6Ttv5J/8ApHn/AOaMVQmm6lbi3f4J/wC/uP8Aj3n/AN/v/kYq&#xA;6PUrf9KXB4T/ANxB/wAe8/8APL/kYq681K3+sWPwT7Tt/wAe8/8AviX/ACMVS/ztq0K+UNYVBOjy&#xA;2ksKP6M6FWlUxhgeH7PKuKpxFfWUUSRRRTJHGoVEW2nACgUAA4dsVQ+m6lbi3f4J/wC/uP8Aj3n/&#xA;AN/v/kYqk2rX1zZ6zd61p6yymGxhW8sHtp/38cTzunpuE5RyIXbjsVatCOjKqm1zq1hcfUWQSzW9&#xA;w53FvMyPG0EjD9ijA7HFV+q6lbfoq8AScfuJAP8AR5wPsH/IxVF/pO2/kn/6R5/+aMVQlnqVv9Yv&#xA;vgn3nX/j3n/3xF/kYq6TUrf9KW54T/3E/wDx7z/zxf5GKu1LUrc26fBP/f2//HvP/v8AT/IxVF/p&#xA;O2/kn/6R5/8AmjFUJpWpW40uzHCf+4j/AOPef+Qf5GKus9St/rF98E+86/8AHvP/AL4i/wAjFXSa&#xA;lb/pS3PCf+4n/wCPef8Ani/yMVdqWpW5t0+Cf+/t/wDj3n/3+n+RiqL/AEnbfyT/APSPP/zRiqE0&#xA;3UrcW7/BP/f3H/HvP/v9/wDIxVC/pK3/AMU14T0+o0/3nnr/AH3hwxVF6XqNuumWalJ6iCMGkExH&#xA;2B3CYq1Z6lb/AFi++Cfedf8Aj3n/AN8Rf5GKpPeeZdbTUIZ4dClljSGasHN1uWUvFX00MXolumzT&#xA;KPfxVb1HzZem2Qt5e1MAzwFQEhLCky/brKoBNNuJPX7lUT/ibWJ5KWmhzRIv22vzJCST2jFvFecq&#xA;dyePtXFUPp+p+Y5YWVYrexUTzlpDDe3pasz1XgI7Pj8+R+WKuTVfMlrqM8ktmmowGKIerBFdWsh4&#xA;tISqxSJMjEcu8y4qtvfM2sS3VkbfQbiOOOZiwvCYnc+jJtEsCXSnav22Xt7kKqeryXusWk0moxTW&#xA;Om26meHTlhleWWSIc4nuZAhRFRwGEcZO4BL0qmKsn/Sdt/JP/wBI8/8AzRiqE03UrcW7/BP/AH9x&#xA;/wAe8/8Av9/8jFXR6lb/AKUuDwn/ALiD/j3n/nl/yMVYZrPm6bybcafo/wCiZ9RtFdX0h7aWBCkV&#xA;w5toILiOd4nhSJ51i9QgrTj+1yCqpxd+crq+8rDULPQb9otRsvXtWkNuECzRBlMpilmkQUap+An2&#xA;J2xVEw615ptx6t5ZRXqPu1vZRXUcsR7Krzpwn/1j6X+qcVUbLzLrQnvY20KY3LzqVkVnNqoMEdPU&#xA;kMazA7b8YG9ieuKum80avHqMSvoF1JcCGcRtbnlbmrxcSZJRBKAP2v3Jp25Yq1f6t5njt42ktbe5&#xA;DywMYkS8gMTeutE5tDMJh0+LjH/qmtAqizrvmcfF+irdl2qizXvLvWhNiAT0oDT54qh9N1/XTptm&#xA;sGkAAQx8muJLhAfgFOPpW09fppiq/Tta1431yJdOhSFrlfWdZLx2VfRjrxQ2aBjTxZcVTOTUrf8A&#xA;SlueE/8AcT/8e8/88X+RirtS1K3NunwT/wB/b/8AHvP/AL/T/IxVF/pO2/kn/wCkef8A5oxVCabq&#xA;VuLd/gn/AL+4/wCPef8A3+/+RiqF/SVv/imvCen1Gn+889f77w4Yqi9LvLgaZZgWM7AQR0YGGh+A&#xA;eMgxVqzvLj6xff6DP/fr+1B/viL/AItxV0l5cfpS3/0Gf+4n25Qfzxf8W4q7Ury4+rp/oM4/f2/7&#xA;UH+/0/4txVF/Xbn/AJYJ/wDgoP8AqriqE028uPq7/wCgzn9/cftQf7/f/i3FUX9duf8Algn/AOCg&#xA;/wCquKoS8vLj6xY/6DP/AH7ftQf74l/4txV2q3lx+i7z/QZx+4k35QfyH/i3FUX9duf+WCf/AIKD&#xA;/qriqE028uPq7/6DOf39x+1B/v8Af/i3FXR3lx+lLj/QZ/7iDblB/PL/AMW4qh9Uhtrm8s5LnRjN&#xA;IztCzypbOxjMMhMdWkPwk706Yqr6ndTLpN2i6fMqi3kAAMAAAQ+EmKoz67c/8sE//BQf9VcVQlne&#xA;XH1i+/0Gf+/X9qD/AHxF/wAW4q6S8uP0pb/6DP8A3E+3KD+eL/i3FXaleXH1dP8AQZx+/t/2oP8A&#xA;f6f8W4qi/rtz/wAsE/8AwUH/AFVxVCaVeXH6Ls/9BnP7iPflB/IP+LcVdZ3lx9Yvv9Bn/v1/ag/3&#xA;xF/xbirpLy4/Slv/AKDP/cT7coP54v8Ai3FXaleXH1dP9BnH7+3/AGoP9/p/xbiqL+u3P/LBP/wU&#xA;H/VXFUJpt5cfV3/0Gc/v7j9qD/f7/wDFuKoX65cf4pr9Rnr9R6coK/33/GTFUdYzXcFlbwPYzc4o&#xA;kRqNBSqqAafvMVatp7yOa6drCeksodPig6CJE/374qcVc894b+GYWE/BIpUY8oOrtGR/u3/IOKuv&#xA;Z7yWFUSwnqJYXNWg6JKrn/dvguKoj67c/wDLBP8A8FB/1VxVD2U95FCyPYT1MszijQdHlZx/u3wb&#xA;FUR9duf+WCf/AIKD/qriqHuZ7ySa1dbCekUpd/ig6GJ0/wB++LDFXX895NYXMMdhOXlidEBaAbsp&#xA;A/3biqI+u3P/ACwT/wDBQf8AVXFUPZT3kULI9hPUyzOKNB0eVnH+7fBsVck94L+aY2E/B4okU8oO&#xA;qNIT/u3/ACxiqVec/Ms2ijQ5VsvrBvNQitirSemUMyMlBxWTnJ8XwpUA+OKp3q/1hrCeGC3ed5op&#xA;EUIYxQlaCvNk61xVd9duf+WCf/goP+quKoe2nvI5rp2sJ6Syh0+KDoIkT/fvipxVzz3hv4ZhYT8E&#xA;ilRjyg6u0ZH+7f8AIOKuvZ7yWFUSwnqJYXNWg6JKrn/dvguKoj67c/8ALBP/AMFB/wBVcVQ9hPeQ&#xA;2FtDJYTh4okRwGgO6qAf924q62nvI5rp2sJ6Syh0+KDoIkT/AH74qcVc894b+GYWE/BIpUY8oOrt&#xA;GR/u3/IOKuvZ7yWFUSwnqJYXNWg6JKrn/dvguKoj67c/8sE//BQf9VcVQ9lPeRQsj2E9TLM4o0HR&#xA;5Wcf7t8GxVQrf/p365+j5vQ+q+jXlBXn6nLp6vhir//Z</xmpGImg:image>
               </rdf:li>
            </rdf:Alt>
         </xmp:Thumbnails>
      </rdf:Description>
      <rdf:Description rdf:about=""
            xmlns:xmpMM="http://ns.adobe.com/xap/1.0/mm/"
            xmlns:stRef="http://ns.adobe.com/xap/1.0/sType/ResourceRef#"
            xmlns:stEvt="http://ns.adobe.com/xap/1.0/sType/ResourceEvent#">
         <xmpMM:DocumentID>xmp.did:E47C2C923820681188C69098C6AB8D67</xmpMM:DocumentID>
         <xmpMM:InstanceID>xmp.iid:E47C2C923820681188C69098C6AB8D67</xmpMM:InstanceID>
         <xmpMM:OriginalDocumentID>uuid:85A57CB5F225DF118833972942CE57BD</xmpMM:OriginalDocumentID>
         <xmpMM:DerivedFrom rdf:parseType="Resource">
            <stRef:instanceID>uuid:5c15ec67-49e3-456c-a302-8e585e8a9fe5</stRef:instanceID>
            <stRef:documentID>uuid:85A57CB5F225DF118833972942CE57BD</stRef:documentID>
            <stRef:originalDocumentID>uuid:85A57CB5F225DF118833972942CE57BD</stRef:originalDocumentID>
         </xmpMM:DerivedFrom>
         <xmpMM:History>
            <rdf:Seq>
               <rdf:li rdf:parseType="Resource">
                  <stEvt:action>saved</stEvt:action>
                  <stEvt:instanceID>xmp.iid:E47C2C923820681188C69098C6AB8D67</stEvt:instanceID>
                  <stEvt:when>2015-02-12T16:48:53+02:00</stEvt:when>
                  <stEvt:softwareAgent>Adobe Illustrator CS5.1</stEvt:softwareAgent>
                  <stEvt:changed>/</stEvt:changed>
               </rdf:li>
            </rdf:Seq>
         </xmpMM:History>
      </rdf:Description>
      <rdf:Description rdf:about=""
            xmlns:pdf="http://ns.adobe.com/pdf/1.3/">
         <pdf:Producer>Adobe PDF library 7.77</pdf:Producer>
      </rdf:Description>
      <rdf:Description rdf:about=""
            xmlns:xmpTPg="http://ns.adobe.com/xap/1.0/t/pg/"
            xmlns:stDim="http://ns.adobe.com/xap/1.0/sType/Dimensions#"
            xmlns:xmpG="http://ns.adobe.com/xap/1.0/g/">
         <xmpTPg:MaxPageSize rdf:parseType="Resource">
            <stDim:w>325.984375</stDim:w>
            <stDim:h>409.316406</stDim:h>
            <stDim:unit>Pixels</stDim:unit>
         </xmpTPg:MaxPageSize>
         <xmpTPg:NPages>1</xmpTPg:NPages>
         <xmpTPg:HasVisibleTransparency>False</xmpTPg:HasVisibleTransparency>
         <xmpTPg:HasVisibleOverprint>False</xmpTPg:HasVisibleOverprint>
         <xmpTPg:PlateNames>
            <rdf:Seq>
               <rdf:li>Cyan</rdf:li>
               <rdf:li>Magenta</rdf:li>
               <rdf:li>Yellow</rdf:li>
               <rdf:li>Black</rdf:li>
            </rdf:Seq>
         </xmpTPg:PlateNames>
         <xmpTPg:SwatchGroups>
            <rdf:Seq>
               <rdf:li rdf:parseType="Resource">
                  <xmpG:groupName>Default Swatch Group</xmpG:groupName>
                  <xmpG:groupType>0</xmpG:groupType>
               </rdf:li>
            </rdf:Seq>
         </xmpTPg:SwatchGroups>
      </rdf:Description>
   </rdf:RDF>
</x:xmpmeta>
                                                                                                    
                                                                                                    
                                                                                                    
                                                                                                    
                                                                                                    
                                                                                                    
                                                                                                    
                                                                                                    
                                                                                                    
                                                                                                    
                                                                                                    
                                                                                                    
                                                                                                    
                                                                                                    
                                                                                                    
                                                                                                    
                                                                                                    
                                                                                                    
                                                                                                    
                                                                                                    
                           
<?xpacket end="w"?>
	</metadata>
<g>
	<line fill="none" stroke="#000000" stroke-width="0.235" x1="0" y1="0" x2="324.899" y2="0"/>
	<line fill="none" stroke="#000000" stroke-width="0.235" x1="0" y1="7.887" x2="324.899" y2="7.887"/>
	<line fill="none" stroke="#000000" stroke-width="0.47" x1="0" y1="15.715" x2="324.899" y2="15.715"/>
	<line fill="none" stroke="#000000" stroke-width="0.235" x1="0" y1="23.542" x2="324.899" y2="23.542"/>
	<line fill="none" stroke="#000000" stroke-width="0.235" x1="0" y1="31.43" x2="324.899" y2="31.43"/>
	<line fill="none" stroke="#000000" stroke-width="0.235" x1="0" y1="39.257" x2="324.899" y2="39.257"/>
	<line fill="none" stroke="#000000" stroke-width="0.47" x1="0" y1="47.085" x2="324.899" y2="47.085"/>
	<line fill="none" stroke="#000000" stroke-width="0.235" x1="0" y1="54.973" x2="324.899" y2="54.973"/>
	<line fill="none" stroke="#000000" stroke-width="0.235" x1="0" y1="62.8" x2="324.899" y2="62.8"/>
	<line fill="none" stroke="#000000" stroke-width="0.235" x1="0" y1="70.627" x2="324.899" y2="70.627"/>
	<line fill="none" stroke="#000000" stroke-width="0.47" x1="0" y1="78.515" x2="324.899" y2="78.515"/>
	<line fill="none" stroke="#000000" stroke-width="0.235" x1="0" y1="86.343" x2="324.899" y2="86.343"/>
	<line fill="none" stroke="#000000" stroke-width="0.235" x1="0" y1="94.23" x2="324.899" y2="94.23"/>
	<line fill="none" stroke="#000000" stroke-width="0.235" x1="0" y1="102.058" x2="324.899" y2="102.058"/>
	<line fill="none" stroke="#000000" stroke-width="0.47" x1="0" y1="109.886" x2="324.899" y2="109.886"/>
	<line fill="none" stroke="#000000" stroke-width="0.235" x1="0" y1="117.773" x2="324.899" y2="117.773"/>
	<line fill="none" stroke="#000000" stroke-width="0.235" x1="0" y1="125.601" x2="324.899" y2="125.601"/>
	<line fill="none" stroke="#000000" stroke-width="0.235" x1="0" y1="133.428" x2="324.899" y2="133.428"/>
	<line fill="none" stroke="#000000" stroke-width="0.47" x1="0" y1="141.316" x2="324.899" y2="141.316"/>
	<line fill="none" stroke="#000000" stroke-width="0.235" x1="0" y1="149.143" x2="324.899" y2="149.143"/>
	<line fill="none" stroke="#000000" stroke-width="0.235" x1="0" y1="156.971" x2="324.899" y2="156.971"/>
	<line fill="none" stroke="#000000" stroke-width="0.235" x1="0" y1="164.859" x2="324.899" y2="164.859"/>
	<line fill="none" stroke="#000000" stroke-width="0.47" x1="0" y1="172.686" x2="324.899" y2="172.686"/>
	<line fill="none" stroke="#000000" stroke-width="0.235" x1="0" y1="180.514" x2="324.899" y2="180.514"/>
	<line fill="none" stroke="#000000" stroke-width="0.235" x1="0" y1="188.401" x2="324.899" y2="188.401"/>
	<line fill="none" stroke="#000000" stroke-width="0.235" x1="0" y1="196.229" x2="324.899" y2="196.229"/>
	<line fill="none" stroke="#000000" stroke-width="0.47" x1="0" y1="204.116" x2="324.899" y2="204.116"/>
	<line fill="none" stroke="#000000" stroke-width="0.235" x1="0" y1="211.884" x2="324.899" y2="211.884"/>
	<line fill="none" stroke="#000000" stroke-width="0.235" x1="0" y1="219.711" x2="324.899" y2="219.711"/>
	<line fill="none" stroke="#000000" stroke-width="0.235" x1="0" y1="227.598" x2="324.899" y2="227.598"/>
	<line fill="none" stroke="#000000" stroke-width="0.47" x1="0" y1="235.426" x2="324.899" y2="235.426"/>
	<line fill="none" stroke="#000000" stroke-width="0.235" x1="0" y1="243.254" x2="324.899" y2="243.254"/>
	<line fill="none" stroke="#000000" stroke-width="0.235" x1="0" y1="251.141" x2="324.899" y2="251.141"/>
	<line fill="none" stroke="#000000" stroke-width="0.47" x1="1.083" y1="282.331" x2="325.984" y2="282.331"/>
	<line fill="none" stroke="#000000" stroke-width="0.235" x1="1.083" y1="294.613" x2="325.984" y2="294.613"/>
	<line fill="none" stroke="#000000" stroke-width="0.47" x1="1.083" y1="306.958" x2="325.984" y2="306.958"/>
	<line fill="none" stroke="#000000" stroke-width="0.235" x1="1.083" y1="319.24" x2="325.984" y2="319.24"/>
	<line fill="none" stroke="#000000" stroke-width="0.47" x1="1.083" y1="331.585" x2="325.984" y2="331.585"/>
	<line fill="none" stroke="#000000" stroke-width="0.235" x1="1.083" y1="343.867" x2="325.984" y2="343.867"/>
	<line fill="none" stroke="#000000" stroke-width="0.47" x1="1.083" y1="356.21" x2="325.984" y2="356.21"/>
	<line fill="none" stroke="#000000" stroke-width="0.235" x1="1.083" y1="368.493" x2="325.984" y2="368.493"/>
	<line fill="none" stroke="#000000" stroke-width="0.47" x1="1.083" y1="380.837" x2="325.984" y2="380.837"/>
	<line fill="none" stroke="#000000" stroke-width="0.235" x1="1.083" y1="393.12" x2="325.984" y2="393.12"/>
	<line fill="none" stroke="#000000" stroke-width="0.47" x1="1.083" y1="405.464" x2="325.984" y2="405.464"/>
	<line fill="none" stroke="#000000" stroke-width="0.235" x1="0.902" y1="0" x2="0.902" y2="251.082"/>
	<line fill="none" stroke="#000000" stroke-width="0.235" x1="17.04" y1="0" x2="17.04" y2="251.082"/>
	<line fill="none" stroke="#000000" stroke-width="0.235" x1="33.176" y1="0" x2="33.176" y2="251.082"/>
	<line fill="none" stroke="#000000" stroke-width="0.235" x1="49.313" y1="0" x2="49.313" y2="251.082"/>
	<line fill="none" stroke="#000000" stroke-width="0.235" x1="65.389" y1="0" x2="65.389" y2="251.082"/>
	<line fill="none" stroke="#000000" stroke-width="0.235" x1="81.526" y1="0" x2="81.526" y2="251.082"/>
	<line fill="none" stroke="#000000" stroke-width="0.235" x1="97.663" y1="0" x2="97.663" y2="251.082"/>
	<line fill="none" stroke="#000000" stroke-width="0.235" x1="113.739" y1="0" x2="113.739" y2="251.082"/>
	<line fill="none" stroke="#000000" stroke-width="0.235" x1="129.875" y1="0" x2="129.875" y2="251.082"/>
	<line fill="none" stroke="#000000" stroke-width="0.235" x1="146.013" y1="0" x2="146.013" y2="251.082"/>
	<line fill="none" stroke="#000000" stroke-width="0.235" x1="162.149" y1="0" x2="162.149" y2="251.082"/>
	<line fill="none" stroke="#000000" stroke-width="0.235" x1="178.165" y1="0" x2="178.165" y2="251.082"/>
	<line fill="none" stroke="#000000" stroke-width="0.235" x1="194.302" y1="0" x2="194.302" y2="251.082"/>
	<line fill="none" stroke="#000000" stroke-width="0.235" x1="210.439" y1="0" x2="210.439" y2="251.082"/>
	<line fill="none" stroke="#000000" stroke-width="0.235" x1="226.574" y1="0" x2="226.574" y2="251.082"/>
	<line fill="none" stroke="#000000" stroke-width="0.235" x1="242.652" y1="0" x2="242.652" y2="251.082"/>
	<line fill="none" stroke="#000000" stroke-width="0.235" x1="258.788" y1="0" x2="258.788" y2="251.082"/>
	<line fill="none" stroke="#000000" stroke-width="0.235" x1="274.925" y1="0" x2="274.925" y2="251.082"/>
	<line fill="none" stroke="#000000" stroke-width="0.235" x1="291.001" y1="0" x2="291.001" y2="251.082"/>
	<line fill="none" stroke="#000000" stroke-width="0.235" x1="307.138" y1="0" x2="307.138" y2="251.082"/>
	<line fill="none" stroke="#000000" stroke-width="0.235" x1="323.275" y1="0" x2="323.275" y2="251.082"/>
	<line fill="none" stroke="#000000" stroke-width="0.235" x1="0.902" y1="282.271" x2="0.902" y2="405.344"/>
	<line fill="none" stroke="#000000" stroke-width="0.235" x1="17.16" y1="282.271" x2="17.16" y2="405.344"/>
	<line fill="none" stroke="#000000" stroke-width="0.235" x1="33.357" y1="282.271" x2="33.357" y2="405.344"/>
	<line fill="none" stroke="#000000" stroke-width="0.235" x1="49.554" y1="282.271" x2="49.554" y2="405.344"/>
	<line fill="none" stroke="#000000" stroke-width="0.235" x1="65.75" y1="282.271" x2="65.75" y2="405.344"/>
	<line fill="none" stroke="#000000" stroke-width="0.235" x1="81.947" y1="332.125" x2="81.947" y2="381.379"/>
	<line fill="none" stroke="#000000" stroke-width="0.235" x1="98.145" y1="282.271" x2="98.145" y2="405.344"/>
	<line fill="none" stroke="#000000" stroke-width="0.235" x1="114.341" y1="282.271" x2="114.341" y2="405.344"/>
	<line fill="none" stroke="#000000" stroke-width="0.235" x1="130.539" y1="282.271" x2="130.539" y2="405.344"/>
	<line fill="none" stroke="#000000" stroke-width="0.235" x1="146.734" y1="282.271" x2="146.734" y2="405.344"/>
	<line fill="none" stroke="#000000" stroke-width="0.235" x1="162.932" y1="282.271" x2="162.932" y2="405.344"/>
	<line fill="none" stroke="#000000" stroke-width="0.235" x1="179.068" y1="282.271" x2="179.068" y2="405.344"/>
	<line fill="none" stroke="#000000" stroke-width="0.235" x1="195.265" y1="282.271" x2="195.265" y2="405.344"/>
	<line fill="none" stroke="#000000" stroke-width="0.235" x1="211.521" y1="282.271" x2="211.521" y2="405.344"/>
	<line fill="none" stroke="#000000" stroke-width="0.235" x1="227.72" y1="282.271" x2="227.72" y2="405.344"/>
	<line fill="none" stroke="#000000" stroke-width="0.235" x1="243.916" y1="282.271" x2="243.916" y2="405.344"/>
	<line fill="none" stroke="#000000" stroke-width="0.235" x1="260.113" y1="282.271" x2="260.113" y2="405.344"/>
	<line fill="none" stroke="#000000" stroke-width="0.235" x1="276.31" y1="282.271" x2="276.31" y2="405.344"/>
	<line fill="none" stroke="#000000" stroke-width="0.235" x1="292.508" y1="282.271" x2="292.508" y2="405.344"/>
	<line fill="none" stroke="#000000" stroke-width="0.235" x1="308.704" y1="282.271" x2="308.704" y2="405.344"/>
	<line fill="none" stroke="#000000" stroke-width="0.235" x1="324.899" y1="282.271" x2="324.899" y2="405.344"/>
	<rect x="154.924" y="277.514" fill="#FFFFFF" width="17.401" height="8.311"/>
	<rect x="153.72" y="302.861" fill="#FFFFFF" width="17.4" height="8.251"/>
	<rect x="153.96" y="327.672" fill="#FFFFFF" width="17.4" height="8.248"/>
	<rect x="155.165" y="351.513" fill="#FFFFFF" width="17.4" height="8.25"/>
	<rect x="155.405" y="377.285" fill="#FFFFFF" width="17.462" height="8.248"/>
	<rect x="155.165" y="401.067" fill="#FFFFFF" width="17.461" height="8.249"/>
	<g>
		<path d="M159.259,284.859h-0.723v-4.695c-0.181,0.181-0.421,0.361-0.662,0.48c-0.302,0.182-0.542,0.301-0.783,0.422v-0.723
			c0.422-0.181,0.783-0.423,1.083-0.723c0.303-0.242,0.482-0.542,0.663-0.784h0.421L159.259,284.859L159.259,284.859z"/>
		<path d="M163.052,278.838c0.302,0,0.603,0.061,0.844,0.182c0.24,0.121,0.48,0.303,0.602,0.541
			c0.182,0.301,0.301,0.543,0.361,0.904c0.12,0.361,0.181,0.844,0.181,1.445c0,0.662-0.12,1.265-0.241,1.686
			c-0.119,0.422-0.358,0.782-0.661,1.023c-0.302,0.24-0.662,0.303-1.084,0.303v-0.604c0.36,0,0.603-0.12,0.844-0.481
			c0.24-0.302,0.359-0.964,0.359-1.927c0-1.023-0.119-1.686-0.359-1.988c-0.241-0.3-0.482-0.48-0.844-0.48L163.052,278.838
			L163.052,278.838z M161.186,281.91c0-0.723,0.06-1.266,0.18-1.746c0.181-0.423,0.361-0.723,0.663-0.963
			c0.301-0.241,0.662-0.363,1.022-0.363l0,0v0.604l0,0c-0.3,0-0.542,0.119-0.722,0.42c-0.301,0.363-0.421,1.025-0.421,2.05
			c0,0.963,0.121,1.625,0.361,1.927c0.24,0.361,0.542,0.48,0.781,0.48l0,0v0.604l0,0c-0.48,0-0.963-0.183-1.265-0.604
			C161.366,283.837,161.186,282.993,161.186,281.91z"/>
		<path d="M167.688,278.838c0.362,0,0.603,0.061,0.845,0.182c0.241,0.121,0.48,0.303,0.601,0.541
			c0.182,0.301,0.302,0.543,0.424,0.904c0.061,0.361,0.118,0.844,0.118,1.445c0,0.662-0.059,1.265-0.24,1.686
			c-0.12,0.422-0.359,0.782-0.66,1.023c-0.241,0.24-0.604,0.303-1.086,0.303v-0.604c0.363,0,0.664-0.12,0.905-0.481
			c0.181-0.302,0.301-0.964,0.301-1.927c0-1.023-0.12-1.686-0.301-1.988c-0.241-0.3-0.542-0.48-0.905-0.48L167.688,278.838
			L167.688,278.838z M165.762,281.91c0-0.723,0.06-1.266,0.239-1.746c0.12-0.423,0.361-0.723,0.604-0.963
			c0.301-0.241,0.662-0.363,1.083-0.363l0,0v0.604l0,0c-0.301,0-0.603,0.119-0.782,0.42c-0.241,0.363-0.361,1.025-0.361,2.05
			c0,0.963,0.062,1.625,0.302,1.927c0.24,0.361,0.542,0.48,0.843,0.48l0,0v0.604l0,0c-0.541,0-1.023-0.183-1.324-0.604
			C165.942,283.837,165.762,282.993,165.762,281.91z"/>
		<path d="M160.825,304.309c0.481,0,0.903,0.121,1.204,0.422c0.361,0.301,0.48,0.662,0.48,1.144c0,0.242-0.06,0.481-0.181,0.723
			c-0.181,0.183-0.361,0.362-0.662,0.483c0.361,0.12,0.662,0.301,0.843,0.541c0.182,0.302,0.242,0.603,0.242,0.964
			c0,0.54-0.182,0.963-0.542,1.324c-0.36,0.302-0.783,0.48-1.385,0.48l0,0v-0.602l0,0c0.361,0,0.603-0.121,0.843-0.303
			c0.241-0.239,0.361-0.542,0.361-0.901c0-0.361-0.121-0.662-0.361-0.843c-0.24-0.241-0.542-0.361-0.843-0.361v-0.603l0,0
			c0.241,0,0.481-0.12,0.662-0.302c0.181-0.121,0.3-0.36,0.3-0.604c0-0.302-0.12-0.54-0.3-0.724
			c-0.181-0.181-0.421-0.238-0.662-0.238V304.309z M159.982,307.079c-0.301-0.121-0.542-0.302-0.663-0.483
			c-0.181-0.24-0.241-0.479-0.241-0.781c0-0.422,0.181-0.783,0.481-1.084c0.302-0.301,0.723-0.422,1.265-0.422l0,0v0.604
			c-0.301,0-0.542,0.059-0.723,0.238c-0.182,0.184-0.303,0.423-0.303,0.664c0,0.302,0.121,0.481,0.303,0.662
			c0.181,0.182,0.421,0.302,0.723,0.302v0.603h-0.06c-0.302,0-0.604,0.12-0.844,0.361c-0.24,0.181-0.301,0.48-0.301,0.843
			c0,0.181,0,0.421,0.12,0.602c0.121,0.182,0.242,0.361,0.421,0.481c0.242,0.061,0.421,0.121,0.663,0.121v0.602
			c-0.602,0-1.084-0.18-1.446-0.48c-0.359-0.361-0.541-0.843-0.541-1.324c0-0.422,0.12-0.723,0.301-0.964
			C159.319,307.319,159.621,307.139,159.982,307.079z"/>
		<path d="M165.4,304.309c0.301,0,0.602,0.061,0.843,0.181c0.242,0.12,0.421,0.303,0.603,0.542c0.12,0.242,0.24,0.542,0.362,0.904
			c0.06,0.36,0.12,0.843,0.12,1.385c0,0.723-0.062,1.323-0.182,1.746c-0.182,0.42-0.361,0.723-0.661,0.963
			c-0.301,0.241-0.664,0.36-1.085,0.36v-0.602c0.301,0,0.602-0.181,0.843-0.481c0.242-0.302,0.361-0.964,0.361-1.986
			c0-0.965-0.119-1.627-0.361-1.928c-0.241-0.301-0.542-0.48-0.843-0.48V304.309z M163.413,307.319c0-0.662,0.121-1.267,0.241-1.687
			c0.12-0.423,0.361-0.783,0.662-0.963c0.301-0.24,0.662-0.363,1.084-0.363l0,0v0.604l0,0c-0.361,0-0.604,0.118-0.843,0.422
			c-0.241,0.358-0.361,1.021-0.361,1.986c0,1.022,0.12,1.686,0.361,1.986c0.181,0.302,0.48,0.481,0.843,0.481l0,0v0.602l0,0
			c-0.604,0-1.023-0.18-1.385-0.602C163.654,309.307,163.413,308.462,163.413,307.319z"/>
		<path d="M162.631,330.139l-0.723,0.062c-0.06-0.302-0.121-0.542-0.241-0.661c-0.241-0.181-0.48-0.301-0.783-0.301c0,0,0,0-0.06,0
			v-0.604c0.06,0,0.12,0,0.12,0c0.481,0,0.842,0.12,1.144,0.361C162.39,329.296,162.57,329.657,162.631,330.139L162.631,330.139z
			 M160.825,330.742c0.06,0,0.12,0,0.181,0c0.481,0,0.903,0.181,1.265,0.54c0.301,0.36,0.481,0.843,0.481,1.387
			c0,0.42-0.061,0.721-0.242,1.082c-0.181,0.303-0.36,0.543-0.661,0.724c-0.302,0.182-0.603,0.239-0.964,0.239h-0.06v-0.602h0.06
			c0.302,0,0.543-0.119,0.783-0.361c0.241-0.239,0.361-0.603,0.361-1.023c0-0.422-0.121-0.723-0.361-0.962
			c-0.181-0.241-0.48-0.362-0.843-0.362l0,0V330.742z M160.825,329.237c-0.181,0-0.361,0.059-0.542,0.179
			c-0.241,0.181-0.421,0.422-0.542,0.723c-0.12,0.361-0.181,0.784-0.181,1.386c0.181-0.241,0.361-0.421,0.602-0.602
			c0.242-0.062,0.421-0.122,0.663-0.181v0.66c-0.301,0-0.602,0.121-0.843,0.362c-0.183,0.239-0.301,0.54-0.301,0.903
			c0,0.299,0,0.542,0.119,0.782c0.121,0.181,0.303,0.36,0.482,0.479c0.181,0.122,0.361,0.182,0.542,0.182v0.602
			c-0.602,0-1.084-0.239-1.446-0.66c-0.359-0.422-0.541-1.206-0.541-2.229c0-1.145,0.182-1.986,0.603-2.528
			c0.359-0.422,0.843-0.662,1.385-0.662V329.237L160.825,329.237z"/>
		<path d="M165.4,328.634c0.301,0,0.602,0.062,0.843,0.182c0.242,0.119,0.421,0.301,0.603,0.543c0.12,0.238,0.24,0.54,0.362,0.9
			c0.06,0.361,0.12,0.846,0.12,1.445c0,0.662-0.062,1.264-0.182,1.686c-0.182,0.424-0.361,0.784-0.661,1.023
			c-0.301,0.181-0.664,0.301-1.085,0.301v-0.602c0.301,0,0.602-0.119,0.843-0.48c0.242-0.301,0.361-0.963,0.361-1.928
			c0-1.023-0.119-1.687-0.361-1.987c-0.241-0.301-0.542-0.479-0.843-0.479V328.634z M163.413,331.704
			c0-0.723,0.121-1.323,0.241-1.746c0.12-0.42,0.361-0.721,0.662-0.963c0.301-0.241,0.662-0.361,1.084-0.361l0,0v0.604l0,0
			c-0.361,0-0.604,0.12-0.843,0.42c-0.241,0.36-0.361,1.022-0.361,2.047c0,0.965,0.12,1.627,0.361,1.928
			c0.181,0.361,0.48,0.48,0.843,0.48l0,0v0.602l0,0c-0.604,0-1.023-0.179-1.385-0.602
			C163.654,333.632,163.413,332.789,163.413,331.704z"/>
		<path d="M161.186,358.439v-1.446h-0.903v-0.662h0.903v-2.71l-0.903,1.325v-1.023l1.023-1.505h0.602v3.913h0.844v0.662h-0.844
			v1.446H161.186z M160.283,356.993h-1.687v-0.662l1.687-2.408v1.023l-0.963,1.385h0.963V356.993z"/>
		<path d="M165.4,352.418c0.301,0,0.602,0.06,0.843,0.18c0.242,0.119,0.421,0.303,0.603,0.542c0.12,0.241,0.24,0.542,0.362,0.903
			c0.06,0.361,0.12,0.843,0.12,1.445c0,0.662-0.062,1.264-0.182,1.686c-0.182,0.421-0.361,0.784-0.661,0.963
			c-0.301,0.241-0.664,0.361-1.085,0.361v-0.602c0.301,0,0.602-0.119,0.843-0.482c0.242-0.299,0.361-0.963,0.361-1.926
			c0-1.024-0.119-1.688-0.361-1.987c-0.241-0.301-0.542-0.48-0.843-0.48V352.418z M163.413,355.488c0-0.724,0.121-1.325,0.241-1.746
			c0.12-0.422,0.361-0.783,0.662-0.964c0.301-0.24,0.662-0.36,1.084-0.36l0,0v0.603l0,0c-0.361,0-0.604,0.119-0.843,0.421
			c-0.241,0.36-0.361,1.022-0.361,2.048c0,0.963,0.12,1.627,0.361,1.926c0.181,0.363,0.48,0.482,0.843,0.482l0,0v0.602l0,0
			c-0.604,0-1.023-0.181-1.385-0.602C163.654,357.414,163.413,356.571,163.413,355.488z"/>
		<path d="M162.691,383.727v0.724h-3.914c-0.061-0.182,0-0.361,0.061-0.542c0.12-0.24,0.241-0.541,0.481-0.782
			s0.542-0.542,0.963-0.903c0.662-0.54,1.083-0.963,1.325-1.264c0.241-0.302,0.36-0.603,0.36-0.903c0-0.303-0.12-0.542-0.36-0.723
			c-0.182-0.181-0.482-0.301-0.783-0.301c-0.361,0-0.663,0.12-0.843,0.301c-0.242,0.241-0.361,0.54-0.361,0.903l-0.723-0.062
			c0.06-0.602,0.24-1.022,0.602-1.324c0.3-0.303,0.783-0.422,1.325-0.422c0.602,0,1.023,0.119,1.385,0.481
			c0.301,0.3,0.481,0.723,0.481,1.145c0,0.24-0.061,0.481-0.121,0.722c-0.12,0.241-0.301,0.482-0.481,0.724
			c-0.24,0.302-0.602,0.603-1.144,1.084c-0.481,0.361-0.722,0.603-0.843,0.723c-0.12,0.12-0.241,0.302-0.362,0.421L162.691,383.727
			L162.691,383.727z"/>
		<path d="M165.4,378.429c0.301,0,0.602,0.062,0.843,0.182c0.242,0.118,0.421,0.301,0.603,0.542c0.12,0.24,0.24,0.542,0.362,0.902
			c0.06,0.361,0.12,0.844,0.12,1.444c0,0.662-0.062,1.265-0.182,1.687c-0.182,0.422-0.361,0.782-0.661,0.964
			c-0.301,0.24-0.664,0.36-1.085,0.36v-0.603c0.301,0,0.602-0.12,0.843-0.481c0.242-0.301,0.361-0.963,0.361-1.927
			c0-1.023-0.119-1.686-0.361-1.986c-0.241-0.303-0.542-0.48-0.843-0.48V378.429z M163.413,381.499c0-0.724,0.121-1.324,0.241-1.747
			c0.12-0.42,0.361-0.721,0.662-0.962c0.301-0.242,0.662-0.361,1.084-0.361l0,0v0.604l0,0c-0.361,0-0.604,0.12-0.843,0.421
			c-0.241,0.36-0.361,1.022-0.361,2.047c0,0.964,0.12,1.626,0.361,1.927c0.181,0.361,0.48,0.481,0.843,0.481l0,0v0.603l0,0
			c-0.604,0-1.023-0.181-1.385-0.603C163.654,383.426,163.413,382.583,163.413,381.499z"/>
		<path d="M163.052,402.753c0.302,0,0.603,0.062,0.844,0.183c0.24,0.12,0.48,0.302,0.602,0.54c0.182,0.304,0.301,0.542,0.361,0.903
			c0.12,0.362,0.181,0.843,0.181,1.446c0,0.662-0.12,1.265-0.241,1.686c-0.119,0.422-0.358,0.782-0.661,1.023
			c-0.302,0.241-0.662,0.302-1.084,0.302v-0.603c0.36,0,0.603-0.12,0.844-0.483c0.24-0.301,0.359-0.962,0.359-1.925
			c0-1.023-0.119-1.627-0.359-1.986c-0.241-0.302-0.482-0.482-0.844-0.482L163.052,402.753L163.052,402.753z M161.186,405.825
			c0-0.724,0.06-1.266,0.18-1.746c0.181-0.423,0.361-0.724,0.663-0.963c0.301-0.241,0.662-0.363,1.022-0.363l0,0v0.604l0,0
			c-0.3,0-0.542,0.119-0.722,0.423c-0.301,0.36-0.421,1.022-0.421,2.047c0,0.963,0.121,1.624,0.361,1.925
			c0.24,0.363,0.542,0.483,0.781,0.483l0,0v0.603l0,0c-0.48,0-0.963-0.182-1.265-0.603
			C161.366,407.75,161.186,406.907,161.186,405.825z"/>
	</g>
	<path fill="none" stroke="#000000" stroke-width="0.94" d="M26.072,379.151c2.408,0,8.669-1.023,8.791-0.903
		c1.505,1.504,5.118,2.527,6.864,0.723c0.3-0.242,9.875,1.386,12.823,1.386c1.928,0,2.711-2.528,5.963-2.528
		c1.083,0,6.441,0.421,6.261,0.421c3.011,0,6.142-1.806,8.972-1.806c4.636,0,11.019,3.131,17.16,3.131
		c4.456,0,3.733-3.733,8.31-0.724c2.83,1.926,6.142-1.507,8.248-2.83c5.961-3.853,3.132-7.768,4.758-13.729
		c1.203-4.455,3.07-8.79,5.058-13.125c1.325-2.831,5.359-3.433,7.165-5.179c1.204-1.204,4.335-1.987,5.78-0.481
		c1.204,1.204,6.141,3.433,8.249,3.433c3.553,0,3.432,3.554,3.432,6.684c0.542,2.107,2.65,2.288,2.65,5.722
		c0,5.478,6.261,4.455,6.261,7.706c0,1.687,4.335,11.38,5.239,11.38c2.047,2.047,17.521,2.348,19.447,0.422
		c0.603-0.603,6.144-3.011,6.863-2.229c1.505,1.507,4.336,2.651,6.865,2.651c2.408-0.845,3.312-2.229,5.358-0.121
		c1.624,1.624,5.659-0.302,7.164-1.023c1.808-0.903,6.863,2.229,10.297,1.927c1.506-0.183,7.285-4.758,8.672-3.434
		c2.947,2.952,7.284,2.35,11.317,1.023c2.53-0.722,9.093,1.325,8.912,1.325c1.687,0,3.732,0,5.358,0
		c2.289,0,4.937-2.047,6.863-1.144c1.688,0.721,11.08,1.324,11.08-0.783"/>
	<rect x="153.358" y="10.476" fill="#FFFFFF" width="17.883" height="8.67"/>
	<rect x="154.141" y="41.907" fill="#FFFFFF" width="17.883" height="8.67"/>
	<rect x="154.924" y="74.12" fill="#FFFFFF" width="17.884" height="8.671"/>
	<rect x="154.322" y="104.948" fill="#FFFFFF" width="17.883" height="8.67"/>
	<rect x="153.72" y="137.162" fill="#FFFFFF" width="17.82" height="8.67"/>
	<rect x="153.66" y="167.99" fill="#FFFFFF" width="17.823" height="8.67"/>
	<rect x="153.599" y="198.757" fill="#FFFFFF" width="17.883" height="8.61"/>
	<rect x="153.539" y="229.525" fill="#FFFFFF" width="17.883" height="8.67"/>
	<g>
		<path d="M159.56,17.34v0.723h-3.975c0-0.181,0.062-0.361,0.121-0.542c0.061-0.241,0.241-0.542,0.481-0.783
			c0.181-0.241,0.542-0.542,0.963-0.903c0.662-0.542,1.084-0.963,1.325-1.264c0.181-0.301,0.3-0.602,0.3-0.903
			s-0.061-0.542-0.3-0.723c-0.182-0.181-0.482-0.302-0.783-0.302c-0.361,0-0.662,0.121-0.842,0.302
			c-0.242,0.24-0.362,0.542-0.362,0.902l-0.723-0.06c0-0.603,0.24-1.023,0.542-1.324c0.36-0.302,0.782-0.422,1.385-0.422
			c0.542,0,1.022,0.181,1.385,0.482c0.3,0.3,0.481,0.723,0.481,1.204c0,0.241-0.061,0.421-0.182,0.662
			c-0.06,0.24-0.24,0.482-0.48,0.723c-0.182,0.301-0.603,0.662-1.146,1.083c-0.421,0.361-0.722,0.603-0.843,0.723
			c-0.121,0.181-0.181,0.302-0.301,0.421L159.56,17.34L159.56,17.34z"/>
		<path d="M162.33,12.042c0.301,0,0.603,0.061,0.783,0.181c0.241,0.121,0.422,0.302,0.602,0.542c0.121,0.3,0.243,0.542,0.362,0.903
			c0.061,0.36,0.12,0.843,0.12,1.445c0,0.662-0.061,1.265-0.239,1.687c-0.122,0.421-0.362,0.782-0.604,1.023
			c-0.302,0.24-0.603,0.3-1.024,0.3v-0.602c0.301,0,0.603-0.121,0.783-0.481c0.181-0.301,0.301-0.963,0.301-1.927
			c0-1.023-0.12-1.625-0.301-1.987c-0.181-0.302-0.481-0.482-0.783-0.482V12.042z M160.343,15.113c0-0.723,0.062-1.265,0.24-1.746
			c0.121-0.421,0.362-0.723,0.663-0.964c0.241-0.241,0.603-0.361,1.023-0.361h0.06v0.602h-0.06c-0.302,0-0.603,0.121-0.783,0.421
			c-0.241,0.361-0.361,1.024-0.361,2.048c0,0.963,0.121,1.625,0.301,1.927c0.241,0.361,0.542,0.481,0.844,0.481h0.06v0.602h-0.06
			c-0.542,0-1.023-0.181-1.325-0.602C160.523,17.04,160.343,16.196,160.343,15.113z"/>
		<path d="M166.905,12.042c0.303,0,0.604,0.061,0.845,0.181c0.239,0.121,0.42,0.302,0.603,0.542c0.119,0.3,0.24,0.542,0.36,0.903
			c0.062,0.36,0.119,0.843,0.119,1.445c0,0.662-0.059,1.265-0.181,1.687c-0.181,0.421-0.361,0.782-0.662,1.023
			c-0.302,0.24-0.661,0.3-1.084,0.3v-0.602c0.303,0,0.604-0.121,0.845-0.481c0.239-0.301,0.359-0.963,0.359-1.927
			c0-1.023-0.12-1.625-0.359-1.987c-0.241-0.302-0.542-0.482-0.845-0.482V12.042z M164.919,15.113c0-0.723,0.12-1.265,0.24-1.746
			c0.122-0.421,0.361-0.723,0.662-0.964c0.301-0.241,0.664-0.361,1.084-0.361l0,0v0.602l0,0c-0.361,0-0.601,0.121-0.843,0.421
			c-0.241,0.361-0.361,1.024-0.361,2.048c0,0.963,0.12,1.625,0.361,1.927c0.181,0.361,0.48,0.481,0.843,0.481l0,0v0.602l0,0
			c-0.601,0-1.023-0.181-1.385-0.602C165.159,17.04,164.919,16.196,164.919,15.113z"/>
		<path d="M158.477,49.915h-0.724v-4.637c-0.181,0.121-0.421,0.301-0.722,0.482c-0.302,0.181-0.542,0.301-0.783,0.362V45.46
			c0.421-0.242,0.783-0.482,1.083-0.723c0.302-0.301,0.542-0.542,0.662-0.783h0.482L158.477,49.915L158.477,49.915z"/>
		<path d="M162.33,43.954c0.482,0,0.843,0.12,1.145,0.421c0.36,0.302,0.482,0.662,0.482,1.145c0,0.24-0.062,0.481-0.183,0.723
			c-0.182,0.18-0.361,0.36-0.662,0.421c0.361,0.12,0.662,0.36,0.845,0.601c0.18,0.302,0.239,0.603,0.239,0.964
			c0,0.481-0.181,0.963-0.542,1.264c-0.361,0.361-0.723,0.542-1.325,0.542l0,0v-0.602l0,0c0.361,0,0.603-0.121,0.783-0.361
			c0.241-0.181,0.361-0.482,0.361-0.843s-0.12-0.663-0.361-0.843c-0.181-0.241-0.481-0.362-0.783-0.362v-0.602l0,0
			c0.241,0,0.482-0.12,0.663-0.3c0.12-0.181,0.242-0.362,0.242-0.662c0-0.242-0.122-0.482-0.242-0.663
			c-0.181-0.181-0.422-0.241-0.663-0.241L162.33,43.954L162.33,43.954z M161.487,46.664c-0.301-0.061-0.542-0.242-0.662-0.421
			c-0.181-0.242-0.242-0.482-0.242-0.783c0-0.422,0.183-0.783,0.482-1.084c0.301-0.301,0.722-0.421,1.204-0.421h0.06v0.602
			c-0.301,0-0.542,0.06-0.722,0.241c-0.182,0.181-0.301,0.421-0.301,0.663c0,0.24,0.12,0.481,0.301,0.662
			c0.18,0.181,0.421,0.3,0.722,0.3v0.602h-0.06c-0.302,0-0.603,0.121-0.844,0.302c-0.24,0.241-0.36,0.542-0.36,0.903
			c0,0.18,0.06,0.421,0.181,0.601c0.12,0.181,0.241,0.362,0.421,0.421c0.241,0.121,0.421,0.182,0.662,0.182v0.602
			c-0.602,0-1.083-0.18-1.445-0.542c-0.36-0.301-0.542-0.783-0.542-1.264c0-0.422,0.121-0.723,0.302-1.024
			C160.825,46.965,161.125,46.784,161.487,46.664z"/>
		<path d="M166.905,43.954c0.303,0,0.604,0.06,0.845,0.18c0.239,0.121,0.42,0.301,0.603,0.543c0.119,0.241,0.24,0.541,0.36,0.902
			c0.062,0.362,0.119,0.843,0.119,1.385c0,0.722-0.059,1.265-0.181,1.746c-0.181,0.421-0.361,0.723-0.662,0.962
			c-0.302,0.242-0.661,0.362-1.084,0.362v-0.602c0.303,0,0.604-0.182,0.845-0.482c0.239-0.301,0.359-0.963,0.359-1.987
			c0-0.964-0.12-1.626-0.359-1.927c-0.241-0.36-0.542-0.481-0.845-0.481V43.954z M164.919,46.965c0-0.662,0.12-1.265,0.24-1.687
			c0.122-0.421,0.361-0.783,0.662-1.023c0.301-0.181,0.664-0.301,1.084-0.301l0,0v0.602l0,0c-0.361,0-0.601,0.121-0.843,0.421
			c-0.241,0.361-0.361,1.023-0.361,1.987c0,1.023,0.12,1.686,0.361,1.987c0.181,0.3,0.48,0.482,0.843,0.482l0,0v0.602l0,0
			c-0.601,0-1.023-0.18-1.385-0.602C165.159,48.952,164.919,48.109,164.919,46.965z"/>
		<path d="M158.477,81.526h-0.724V76.89c-0.181,0.121-0.421,0.301-0.722,0.481c-0.302,0.182-0.542,0.302-0.783,0.362V77.07
			c0.421-0.241,0.783-0.482,1.083-0.722c0.302-0.301,0.542-0.542,0.662-0.783h0.482L158.477,81.526L158.477,81.526z"/>
		<path d="M164.076,77.01l-0.723,0.06c-0.062-0.301-0.119-0.482-0.241-0.602c-0.181-0.241-0.421-0.302-0.722-0.302c0,0,0,0-0.062,0
			v-0.601c0.062,0,0.121,0,0.121,0c0.481,0,0.784,0.12,1.084,0.36C163.835,76.167,164.016,76.588,164.076,77.01L164.076,77.01z
			 M162.33,77.672c0.062,0,0.121,0,0.182,0c0.481,0,0.843,0.181,1.203,0.542c0.303,0.361,0.482,0.843,0.482,1.385
			c0,0.362-0.061,0.723-0.239,1.023c-0.183,0.362-0.362,0.602-0.664,0.783c-0.301,0.181-0.541,0.241-0.902,0.241h-0.062v-0.602
			h0.062c0.301,0,0.542-0.121,0.722-0.361c0.241-0.241,0.361-0.602,0.361-1.023s-0.12-0.723-0.361-0.963
			c-0.12-0.241-0.421-0.361-0.783-0.361l0,0V77.672L162.33,77.672z M162.33,76.167c-0.181,0-0.36,0.061-0.542,0.182
			c-0.24,0.18-0.421,0.421-0.541,0.722c-0.121,0.3-0.181,0.783-0.181,1.385c0.181-0.241,0.36-0.481,0.602-0.602
			s0.421-0.181,0.662-0.181v0.663c-0.301,0-0.602,0.12-0.843,0.361c-0.181,0.241-0.301,0.542-0.301,0.903
			c0,0.241,0,0.481,0.12,0.723c0.121,0.241,0.301,0.421,0.48,0.541c0.183,0.121,0.362,0.181,0.542,0.181v0.602
			c-0.602,0-1.083-0.241-1.445-0.662c-0.36-0.482-0.542-1.205-0.542-2.228c0-1.144,0.182-1.987,0.603-2.529
			c0.361-0.421,0.842-0.662,1.385-0.662L162.33,76.167L162.33,76.167z"/>
		<path d="M166.905,75.565c0.303,0,0.604,0.06,0.845,0.18c0.239,0.121,0.42,0.302,0.603,0.542c0.119,0.241,0.24,0.542,0.36,0.903
			c0.062,0.361,0.119,0.783,0.119,1.385c0,0.722-0.059,1.264-0.181,1.747c-0.181,0.421-0.361,0.722-0.662,0.962
			c-0.302,0.242-0.661,0.361-1.084,0.361v-0.602c0.303,0,0.604-0.181,0.845-0.481c0.239-0.362,0.359-0.964,0.359-1.987
			c0-0.963-0.12-1.626-0.359-1.927c-0.241-0.361-0.542-0.482-0.845-0.482V75.565z M164.919,78.576c0-0.663,0.12-1.265,0.24-1.686
			c0.122-0.421,0.361-0.783,0.662-1.023c0.301-0.24,0.664-0.301,1.084-0.301l0,0v0.601l0,0c-0.361,0-0.601,0.121-0.843,0.421
			c-0.241,0.361-0.361,1.024-0.361,1.988c0,1.023,0.12,1.686,0.361,1.987c0.181,0.3,0.48,0.481,0.843,0.481l0,0v0.602l0,0
			c-0.601,0-1.023-0.181-1.385-0.602C165.159,80.502,164.919,79.719,164.919,78.576z"/>
		<path d="M158.477,112.595h-0.724v-4.697c-0.181,0.181-0.421,0.362-0.722,0.542c-0.302,0.12-0.542,0.3-0.783,0.36v-0.722
			c0.421-0.181,0.783-0.421,1.083-0.662c0.302-0.302,0.542-0.542,0.662-0.844h0.482L158.477,112.595L158.477,112.595z"/>
		<path d="M162.691,112.595v-1.445h-0.904v-0.662h0.904v-2.709l-0.904,1.384v-1.023l1.024-1.504h0.542v3.854h0.843v0.662h-0.843
			v1.445h-0.662V112.595z M161.787,111.15h-1.685v-0.662l1.685-2.349v1.023l-0.962,1.325h0.962V111.15z"/>
		<path d="M166.905,106.574c0.303,0,0.604,0.061,0.845,0.181c0.239,0.181,0.42,0.361,0.603,0.602c0.119,0.241,0.24,0.542,0.36,0.904
			c0.062,0.3,0.119,0.783,0.119,1.385c0,0.722-0.059,1.264-0.181,1.686c-0.181,0.421-0.361,0.782-0.662,1.023
			c-0.302,0.241-0.661,0.361-1.084,0.361v-0.602c0.303,0,0.604-0.181,0.845-0.481c0.239-0.361,0.359-1.023,0.359-1.987
			s-0.12-1.626-0.359-1.987c-0.241-0.302-0.542-0.482-0.845-0.482V106.574z M164.919,109.645c0-0.723,0.12-1.265,0.24-1.687
			c0.122-0.481,0.361-0.783,0.662-1.023c0.301-0.24,0.664-0.361,1.084-0.361l0,0v0.602l0,0c-0.361,0-0.601,0.181-0.843,0.421
			c-0.241,0.361-0.361,1.084-0.361,2.048s0.12,1.625,0.361,1.987c0.181,0.301,0.48,0.481,0.843,0.481l0,0v0.602l0,0
			c-0.601,0-1.023-0.241-1.385-0.662C165.159,111.571,164.919,110.788,164.919,109.645z"/>
		<path d="M158.477,144.206h-0.724v-4.696c-0.181,0.18-0.421,0.361-0.722,0.542c-0.302,0.121-0.542,0.301-0.783,0.361v-0.723
			c0.421-0.18,0.783-0.421,1.083-0.722c0.302-0.241,0.542-0.542,0.662-0.783h0.482L158.477,144.206L158.477,144.206z"/>
		<path d="M164.136,143.484v0.722h-3.854c-0.06-0.181,0-0.36,0.06-0.481c0.121-0.301,0.24-0.542,0.482-0.843
			c0.241-0.241,0.542-0.542,0.962-0.904c0.663-0.542,1.085-0.963,1.266-1.264c0.24-0.301,0.36-0.602,0.36-0.903
			c0-0.241-0.12-0.481-0.36-0.722c-0.12-0.182-0.422-0.301-0.723-0.301c-0.36,0-0.662,0.12-0.843,0.361
			c-0.241,0.181-0.361,0.481-0.361,0.843l-0.722-0.06c0.06-0.542,0.241-1.024,0.602-1.265c0.302-0.3,0.782-0.481,1.324-0.481
			c0.603,0,0.963,0.181,1.325,0.481c0.303,0.302,0.481,0.723,0.481,1.205c0,0.241-0.061,0.481-0.12,0.722
			c-0.12,0.181-0.303,0.421-0.481,0.723c-0.241,0.241-0.542,0.602-1.084,1.023c-0.48,0.362-0.723,0.602-0.843,0.783
			c-0.121,0.12-0.241,0.241-0.361,0.362L164.136,143.484L164.136,143.484z"/>
		<path d="M166.905,138.185c0.303,0,0.604,0.06,0.845,0.181c0.239,0.181,0.42,0.361,0.603,0.602c0.119,0.241,0.24,0.542,0.36,0.843
			c0.062,0.361,0.119,0.843,0.119,1.445c0,0.723-0.059,1.265-0.181,1.686c-0.181,0.421-0.361,0.783-0.662,1.023
			c-0.302,0.241-0.661,0.362-1.084,0.362v-0.602c0.303,0,0.604-0.181,0.845-0.482c0.239-0.36,0.359-1.023,0.359-1.987
			c0-0.963-0.12-1.625-0.359-1.987c-0.241-0.301-0.542-0.481-0.845-0.481V138.185z M164.919,141.255c0-0.722,0.12-1.264,0.24-1.686
			c0.122-0.481,0.361-0.783,0.662-1.023c0.301-0.24,0.664-0.361,1.084-0.361l0,0v0.602l0,0c-0.361,0-0.601,0.181-0.843,0.421
			c-0.241,0.361-0.361,1.084-0.361,2.047s0.12,1.626,0.361,1.987c0.181,0.301,0.48,0.482,0.843,0.482l0,0v0.602l0,0
			c-0.601,0-1.023-0.241-1.385-0.662C165.159,143.182,164.919,142.399,164.919,141.255z"/>
		<path d="M158.477,176.118h-0.724v-4.696c-0.181,0.181-0.421,0.301-0.722,0.481c-0.302,0.182-0.542,0.302-0.783,0.421v-0.722
			c0.421-0.181,0.783-0.421,1.083-0.723c0.302-0.3,0.542-0.542,0.662-0.783h0.482L158.477,176.118L158.477,176.118z"/>
		<path d="M162.33,170.097c0.301,0,0.603,0.061,0.783,0.181c0.241,0.121,0.422,0.302,0.602,0.542
			c0.121,0.241,0.243,0.542,0.362,0.904c0.061,0.361,0.12,0.843,0.12,1.445c0,0.662-0.061,1.264-0.239,1.687
			c-0.122,0.421-0.362,0.782-0.604,0.962c-0.302,0.242-0.603,0.361-1.024,0.361v-0.602c0.301,0,0.603-0.121,0.783-0.482
			c0.181-0.301,0.301-0.963,0.301-1.926c0-1.023-0.12-1.687-0.301-1.987c-0.181-0.302-0.481-0.482-0.783-0.482V170.097z
			 M160.343,173.168c0-0.723,0.062-1.325,0.24-1.746c0.121-0.421,0.362-0.783,0.663-0.964c0.241-0.241,0.603-0.361,1.023-0.361h0.06
			v0.602h-0.06c-0.302,0-0.603,0.121-0.783,0.421c-0.241,0.361-0.361,1.024-0.361,2.048c0,0.963,0.121,1.625,0.301,1.926
			c0.241,0.361,0.542,0.482,0.844,0.482h0.06v0.602h-0.06c-0.542,0-1.023-0.181-1.325-0.602
			C160.523,175.094,160.343,174.251,160.343,173.168z"/>
		<path d="M166.905,170.097c0.303,0,0.604,0.061,0.845,0.181c0.239,0.121,0.42,0.302,0.603,0.542c0.119,0.241,0.24,0.542,0.36,0.904
			c0.062,0.361,0.119,0.843,0.119,1.445c0,0.662-0.059,1.264-0.181,1.687c-0.181,0.421-0.361,0.782-0.662,0.962
			c-0.302,0.242-0.661,0.361-1.084,0.361v-0.602c0.303,0,0.604-0.121,0.845-0.482c0.239-0.301,0.359-0.963,0.359-1.926
			c0-1.023-0.12-1.687-0.359-1.987c-0.241-0.302-0.542-0.482-0.845-0.482V170.097z M164.919,173.168c0-0.723,0.12-1.325,0.24-1.746
			c0.122-0.421,0.361-0.783,0.662-0.964c0.301-0.241,0.664-0.361,1.084-0.361l0,0v0.602l0,0c-0.361,0-0.601,0.121-0.843,0.421
			c-0.241,0.361-0.361,1.024-0.361,2.048c0,0.963,0.12,1.625,0.361,1.926c0.181,0.361,0.48,0.482,0.843,0.482l0,0v0.602l0,0
			c-0.601,0-1.023-0.181-1.385-0.602C165.159,175.094,164.919,174.251,164.919,173.168z"/>
		<path d="M159.982,200.564c0.542,0,0.963,0.181,1.264,0.482c0.301,0.301,0.481,0.662,0.481,1.083c0,0.301-0.061,0.542-0.241,0.723
			c-0.121,0.241-0.361,0.361-0.662,0.481c0.361,0.121,0.662,0.301,0.843,0.602c0.182,0.242,0.301,0.542,0.301,0.903
			c0,0.48-0.182,0.903-0.542,1.266c-0.36,0.361-0.844,0.541-1.444,0.541l0,0v-0.603l0,0c0.36,0,0.662-0.121,0.902-0.36
			c0.182-0.242,0.302-0.542,0.302-0.844c0-0.301-0.121-0.602-0.302-0.843c-0.24-0.241-0.542-0.361-0.902-0.361v-0.602l0,0
			c0.301,0,0.542-0.06,0.722-0.241c0.181-0.18,0.241-0.421,0.241-0.662c0-0.241-0.061-0.481-0.241-0.662
			c-0.241-0.181-0.421-0.301-0.722-0.301L159.982,200.564L159.982,200.564z M159.138,203.333c-0.301-0.121-0.542-0.241-0.662-0.481
			c-0.121-0.181-0.241-0.421-0.241-0.723c0-0.421,0.181-0.843,0.48-1.083c0.303-0.301,0.724-0.482,1.266-0.482l0,0v0.602
			c-0.301,0-0.542,0.121-0.724,0.301c-0.181,0.18-0.24,0.361-0.24,0.602c0,0.301,0.06,0.542,0.24,0.722
			c0.182,0.182,0.422,0.241,0.724,0.241v0.602l0,0c-0.361,0-0.663,0.12-0.844,0.361c-0.24,0.241-0.361,0.542-0.361,0.783
			c0,0.241,0.061,0.421,0.121,0.603c0.121,0.242,0.24,0.361,0.48,0.48c0.182,0.121,0.361,0.182,0.604,0.182v0.602
			c-0.604,0-1.084-0.179-1.446-0.539c-0.361-0.362-0.542-0.785-0.542-1.327c0-0.301,0.121-0.662,0.302-0.903
			C158.536,203.635,158.777,203.454,159.138,203.333z"/>
		<path d="M164.558,200.564c0.301,0,0.602,0.061,0.843,0.181c0.242,0.181,0.48,0.361,0.602,0.602
			c0.184,0.241,0.304,0.542,0.361,0.843c0.122,0.361,0.181,0.843,0.181,1.445c0,0.722-0.12,1.204-0.238,1.627
			c-0.12,0.42-0.362,0.781-0.662,1.023c-0.304,0.238-0.664,0.359-1.085,0.359v-0.603c0.36,0,0.602-0.181,0.843-0.481
			c0.242-0.361,0.361-0.962,0.361-1.927c0-0.963-0.119-1.626-0.361-1.987c-0.241-0.301-0.481-0.482-0.843-0.482L164.558,200.564
			L164.558,200.564z M162.691,203.635c0-0.723,0.061-1.265,0.182-1.686c0.12-0.481,0.3-0.783,0.602-1.023
			c0.301-0.24,0.662-0.361,1.084-0.361l0,0v0.602l0,0c-0.361,0-0.602,0.181-0.783,0.421c-0.301,0.361-0.421,1.084-0.421,2.047
			c0,0.964,0.12,1.564,0.359,1.928c0.243,0.301,0.542,0.48,0.845,0.48l0,0v0.602l0,0c-0.542,0-1.023-0.239-1.323-0.662
			C162.873,205.501,162.691,204.718,162.691,203.635z"/>
		<path d="M161.848,233.078l-0.724,0.061c-0.06-0.302-0.181-0.541-0.301-0.66c-0.181-0.184-0.421-0.304-0.723-0.304
			c-0.061,0-0.061,0-0.061,0v-0.603c0,0,0.061,0,0.12,0c0.421,0,0.844,0.121,1.146,0.361
			C161.607,232.234,161.787,232.598,161.848,233.078L161.848,233.078z M160.042,233.68c0,0,0.061,0,0.12,0
			c0.482,0,0.904,0.182,1.266,0.543c0.359,0.36,0.542,0.842,0.542,1.385c0,0.422-0.121,0.723-0.241,1.084
			c-0.182,0.301-0.421,0.543-0.723,0.724c-0.24,0.181-0.602,0.239-0.963,0.239l0,0v-0.602l0,0c0.302,0,0.603-0.119,0.844-0.361
			c0.181-0.241,0.301-0.604,0.301-1.022c0-0.423-0.121-0.724-0.301-0.965c-0.241-0.24-0.542-0.361-0.844-0.361l0,0L160.042,233.68
			L160.042,233.68z M160.042,232.175c-0.242,0-0.421,0.062-0.542,0.181c-0.241,0.182-0.421,0.422-0.542,0.724
			c-0.181,0.36-0.241,0.782-0.241,1.385c0.182-0.241,0.422-0.42,0.662-0.603c0.182-0.062,0.421-0.12,0.663-0.182v0.662
			c-0.36,0-0.602,0.121-0.843,0.361c-0.242,0.24-0.361,0.542-0.361,0.902c0,0.302,0.061,0.543,0.182,0.785
			c0.06,0.18,0.24,0.358,0.421,0.48c0.181,0.119,0.359,0.181,0.602,0.181v0.601c-0.602,0-1.084-0.238-1.445-0.661
			c-0.422-0.421-0.603-1.204-0.603-2.228c0-1.144,0.181-1.988,0.663-2.529c0.3-0.422,0.783-0.662,1.385-0.662V232.175
			L160.042,232.175z"/>
		<path d="M164.558,231.572c0.301,0,0.602,0.061,0.843,0.183c0.242,0.119,0.48,0.3,0.602,0.54c0.184,0.241,0.304,0.542,0.361,0.903
			c0.122,0.36,0.181,0.845,0.181,1.444c0,0.662-0.12,1.265-0.238,1.687c-0.12,0.421-0.362,0.784-0.662,0.963
			c-0.304,0.242-0.664,0.36-1.085,0.36v-0.601c0.36,0,0.602-0.12,0.843-0.481c0.242-0.301,0.361-0.965,0.361-1.928
			c0-1.021-0.119-1.687-0.361-1.986c-0.241-0.301-0.481-0.481-0.843-0.481L164.558,231.572L164.558,231.572z M162.691,234.643
			c0-0.722,0.061-1.322,0.182-1.744c0.12-0.42,0.3-0.724,0.602-0.965c0.301-0.24,0.662-0.36,1.084-0.36l0,0v0.603l0,0
			c-0.361,0-0.602,0.12-0.783,0.424c-0.301,0.358-0.421,1.022-0.421,2.045c0,0.963,0.12,1.627,0.359,1.929
			c0.243,0.36,0.542,0.481,0.845,0.481l0,0v0.601l0,0c-0.542,0-1.023-0.181-1.323-0.601
			C162.873,236.57,162.691,235.729,162.691,234.643z"/>
	</g>
	<path fill="none" stroke="#000000" stroke-width="0.94" d="M29.142,133.729c0-1.566,0-3.371,0-4.937c0-0.723,0-0.723,0.782-0.723
		c0.783,0,0.482-3.552,0.482-4.637c0-1.204,0.602-0.783,0.602-1.987c0-1.083,0.181-2.649,0.181-3.553
		c0-1.083,0.121-2.167,0.121-3.191c0-0.18,0.181,1.204,0.602,1.687c1.264,1.204,1.385-0.783,1.385-2.168
		c0-1.987,0.182,0.12,0.182,1.084c0,2.769,0,5.659,0,8.429c0,1.264,0,2.468,0.302,3.372c0.12,0.783,0.902,1.265,0.902,1.987
		c1.385-1.987,2.649-4.756,4.033-6.562c0.423-0.663,1.205-3.372,1.205-1.264c0,2.468-0.481,7.706,0.603,9.874
		c0.48,1.023,1.385,1.987,1.385,2.891c0,1.084,2.167-3.251,2.167-3.251c0.421-1.506,0.903-3.071,1.687-4.577
		c0-0.18,1.687-3.371,1.866-3.371c0,0,0,3.07,0,3.672c0,1.084,0.902,2.167,0.902,3.251c0,0.302,0,1.024,0,1.385
		c0,0.302,0.602,0.422,0.602,0.904c0.904-2.951,2.47-7.707,4.155-10.296c0.121-0.181,1.204-3.372,1.204-3.673
		c0-1.866,0.302,0.301,0.302,0.903c0,2.289,0.361,12.885,3.251,6.142c1.084-2.77,1.987-8.309,1.987-11.5
		c0,2.589,0.903,5.54,1.987,7.647c0.963,1.987-0.12,5.719,0.782,7.526c0.481,0.962,0.783,0,0.904-1.084
		c0-0.421,1.687-6.142,1.687-3.793c0,1.505,0.181,3.492,0.181,5.057c0,1.807,1.204,4.275,1.204,6.262
		c0,1.747,0.963,3.071,0.963,4.938c0.421-1.204,0.904-2.589,0.904-3.974c0-0.181,0.3-1.083,0.3-1.265
		c0.302-0.601,0.602-2.408,1.084-2.89c0.181-0.181,0.783-1.385,0.783-1.686c0-0.182,0.902,4.274,1.385,5.057
		c0.12,0.301,0.12,1.083,0.301,1.385c0,0.181,0.421,1.084,0.421,1.385c0.963-2.589,3.252-5.239,3.733-8.009
		c0.302-1.805,0.904-4.274,1.506-6.141c0-0.121,0.783,3.371,1.083,4.154c0,0.182,0.783,2.95,0.903,2.469
		c1.564-3.252,3.853-7.707,3.853-11.2c0.181,1.686,2.469,10.717,3.252,8.43c0.421-1.204,1.505-3.07,2.107-4.275
		c2.469-4.937,1.564-2.047,2.649,2.589c1.204,4.937,2.771-1.866,3.854-3.854c1.385-2.469,1.385,3.854,1.807,6.022
		c0.481,2.107,0.602,4.876,2.95-0.182c1.386-2.89,2.107-6.744,3.493-9.513c0.783-1.686,2.348,3.974,2.95,5.841
		c0.121,0.602,2.589-5.72,2.891-6.021c2.167-2.107,2.95-9.333,4.756-1.987c0.963,4.154,0.18,9.513,2.468,2.288
		c1.687-5.057,1.265,3.07,1.265,5.54l-0.181,28.119c0,3.251,2.588-10.898,2.588-4.275c0,2.891,0.663,5.841,0.663,8.912
		c0,1.083,0.422,2.468,0.422,3.672c0,0,0,1.385,0.48,1.204c1.204-0.602,0.903-1.385,1.204,0.301
		c0.301,1.385,0.482,2.951,0.482,4.335c0,0.602-0.301,3.553,0,3.553c-0.301,4.455-0.182,9.633-0.182,14.089
		c0,2.649,0.663,0,0.783-0.904c0.181-1.083,0.964-3.07,1.264-3.853c0.121-0.302,0.724-3.974,0.724-1.688l0.181,17.823
		c0,1.565,0,3.372,0,4.938c0,4.698,1.505-6.021,1.686-6.322c2.469-4.938,2.167-11.5,2.167-17.221c0-1.505,0.121-3.07,0.121-4.756
		c0-3.493,1.866-0.723,1.866,1.565c0,1.385,0.604,4.275,0.604,5.841c1.384-2.348,1.686-5.841,2.77-7.526
		c0.783-1.084,0.3-4.938,0.3-6.322c0-0.121,0.603-1.084,0.783-1.204c0.121-0.302,0.121-0.603,0.121-0.783
		c1.385-4.275,0.18,4.274,0.3-11.2c0.662,0.121,1.385,0.602,1.385-0.181c0-1.987,0.362-4.275,0.362-6.262
		c0-1.083,0.421-3.251,0.902-4.155c0-0.18,0-0.662,0.121,0.301c0.481,2.589,0.782,5.238,0.782,7.948
		c0,1.867,1.085-2.288,1.085-2.408c0.602-3.071-0.182-7.105,0.301-10.176c0.181-1.204,0.783-2.588,1.084-3.672
		c0.48-1.505,1.385,1.204,1.385,1.867c3.07-2.469,2.77-10.899,2.77-14.933c0-1.084,2.59-6.744,3.07-8.309
		c0.603-2.289,0.783-5.178,0.783-7.647c0,4.456-0.662,10.718,0.121,15.054c0.181,0.902,0.3,2.287,0.48,3.191
		c0.303,1.384-0.181,3.07,0.904,0.783c1.565-3.191,1.987,12.163,1.987,12.765c0,7.045,2.77-4.155,2.77-6.021
		c0-0.301,0.481,2.348,0.481,6.804c0,5.358,2.289-4.034,2.289-5.058c0.181-2.167,0.181-4.456,0.181-6.623
		c0-0.181,1.204,3.974,1.204,4.877c0,4.335,1.625,1.384,2.41-1.386c0.9-3.07,1.082-6.141,1.082-9.332
		c0,5.238,1.084,11.078,1.084,16.136c0,0.783,2.107-4.035,2.107-4.335c0.182-0.421,0-3.974,0.481-2.108
		c0.601,2.408,0.601,5.479,0.601,8.129c0,1.083,0,2.167,0.483,2.588c0.601,0.603,1.505-0.903,1.505-1.204
		c0.662-2.77,0.964,2.469,0.964,3.373c0,1.083,0.301,2.77,0.301,3.371c2.167-0.601,3.19-10.897,3.854-13.065
		c0.422-1.505,0-3.673,0.302-5.358c0.301-1.566,1.085,2.288,1.385,2.588c0.302,0.302,0.904,3.071,1.083,3.553
		c0-5.238,0.724-10.296,2.592-14.932c0.119-0.602,1.505-3.673,1.505-2.589c0,1.264,0.36,11.981,0.783,12.163
		c0.479,0.12,1.264-4.637,1.383-5.239c1.085-2.77,0.781,7.044,1.386,8.309c0.181,0.421,0.482,1.083,0.482,1.505
		c0.602,2.951,2.468-6.141,2.888-7.225c0.784-1.506,0.965,11.862,2.651,8.911c1.023-1.686,2.709-9.814,2.709-11.681
		c0-1.084,0.361-2.107,0.361-3.071c0.119-2.288,0.724,2.168,0.724,2.469c0,0.783,0.781,2.469,1.081,3.071
		c0.784,1.686,1.388,3.552,2.17,1.265c0.781-2.348,1.385-4.456,1.985-6.804c0.783-3.07,0.3-0.722,1.084,1.565
		c0.783,2.469,2.469,5.961,2.469,8.43c0-2.589,0.904-5.359,0.904-8.009c0-0.301,0.182-1.022,0.182-1.505c0-0.181,0-0.482,0-0.603
		c0-0.602,0-0.301,0,0.12c0.118,1.686,0.9,3.252,1.504,4.756c0.182,0.482,0.604,1.386,0.604,1.867c0,0.602,0.179,1.987,0.179,2.89
		c0,0.182,0.304,0.482,0.304,0.663v0.301c0.301,0.601,0.9-2.77,0.9-2.951c0.182-0.722,0.483-1.806,0.483-2.588
		c0-0.182,0.48-1.565,0.48-1.686c0.602-1.385,0.421-3.673,0.421-5.239c0.965,4.637,1.564,9.394,2.35,13.669
		c0,0.601,0.301,1.686,0.301,2.167c0,0.603,0.302,1.505,0.302,2.168c0,0.601,1.506-4.035,1.687-4.758
		c0.12-1.083,0.782-2.167,1.083-3.07c0-0.181,0.12-1.867,0.422-0.481c0.481,2.588,1.686,5.238,1.686,8.007c0,1.023,0,2.409,0,3.493
		c0,1.384,1.084-1.204,1.084-1.807c0-2.348,1.565-4.937,1.565-7.405c0-0.603,0.782-4.576,1.085-4.576
		c0,3.493,0.901,6.863,0.901,10.416c0,1.867,0.604-1.505,0.604-1.987c0-3.553,0.781-7.225,0.781-10.777
		c0-1.987,0.904-3.793,0.904-5.66c0.181,1.083,0.782,2.89,0.782,3.974c0,0.601,0.782,1.264,0.782,1.987
		c0,0.481,0.903,1.384,0.903,2.167c0,0.482,0,1.386,0,1.867c0,0.12,0,0.421,0,0.602s0.903-1.987,0.903-2.167
		c0.181-0.421,0.661-0.903,0.661-1.385c0-0.121,0.724-2.469,0.724-2.589c0.181-0.301,0.48-1.385,0.782-1.867
		c0.181-0.301,1.084-1.686,1.084-1.987c0,0,0.602-1.504,0.781-1.504c0.604,3.974,0.422,9.513,1.386,13.187
		c0.303,1.204,0.121,2.77,0.121,3.974c0,2.349,1.264-2.77,1.264-3.071c0.122-2.589,0.902-6.263,1.688-8.611
		c0.12-0.421,0,2.469,0,5.841c0,2.951,0.724,5.238,0.724,7.526c0,1.867,1.686,3.733,1.686,5.238c0,0.181,1.746-3.191,2.047-4.274
		c0.301-1.265,1.023-4.757,1.023-6.142c0-1.385,0.36-2.951,0.36-4.335c0-0.301,3.491,6.804,3.491,9.875
		c0-2.348,1.266-4.816,1.266-6.803c0-1.687,1.688-3.974,2.108-5.841c0.479-1.807,1.563-3.673,2.165-5.059
		c0,3.252,0.483,6.322,0.905,9.394c0.963,5.66,2.348-0.602,2.647-3.372c0.302-2.77,1.808-6.142,2.771-8.188
		c0.303-0.603,0.603-3.191,0.603-1.024v12.283c0,2.288,1.687,4.756,1.687,6.562c0,0.301,1.204-3.974,1.204-4.877
		c0-4.154,1.564,2.77,1.564,3.673c0.12,2.288,0.904,4.456,0.904,6.924c0.781-4.757,1.866-8.008,4.333-11.68
		c0.303-0.603,1.206-2.952,1.206-3.673c0-0.783,0.48-4.938,0.782-1.385c0.121,1.385,0.902,3.672,0.902,5.058
		c0,0.783,0.481,2.288,0.603,3.07c0,0,1.687-3.07,1.867-4.335c0.12-1.687,1.686-3.673,1.686-5.479c0-0.302,0.782,3.974,0.782,4.455
		c0.122,1.204,1.204,4.094,1.807,4.757c0.481,0.421,0.304,1.987,0.662,0.301c0.604-2.77,3.373-7.105,3.373-9.513
		c1.204,4.154,3.19,8.248,4.455,12.282c0.604,1.806,0.604,1.806,1.084-0.481c0.602-3.252,2.106-6.744,2.89-9.814
		c0.481-2.289,0.182-4.035,1.687-0.783c2.771,5.54,4.276,9.995,4.276,16.617"/>
</g>
</svg>
