<?xml version="1.0" encoding="utf-8"?>
<!-- Generator: Adobe Illustrator 15.1.0, SVG Export Plug-In . SVG Version: 6.00 Build 0)  -->
<!DOCTYPE svg PUBLIC "-//W3C//DTD SVG 1.1//EN" "http://www.w3.org/Graphics/SVG/1.1/DTD/svg11.dtd">
<svg version="1.1" id="Layer_1" xmlns="http://www.w3.org/2000/svg" xmlns:xlink="http://www.w3.org/1999/xlink" x="0px" y="0px"
	 width="326.232px" height="422.68px" viewBox="0 0 326.232 422.68" enable-background="new 0 0 326.232 422.68"
	 xml:space="preserve">
<metadata><?xpacket begin="﻿" id="W5M0MpCehiHzreSzNTczkc9d"?>
<x:xmpmeta xmlns:x="adobe:ns:meta/" x:xmptk="Adobe XMP Core 5.0-c060 61.134777, 2010/02/12-17:32:00        ">
   <rdf:RDF xmlns:rdf="http://www.w3.org/1999/02/22-rdf-syntax-ns#">
      <rdf:Description rdf:about=""
            xmlns:dc="http://purl.org/dc/elements/1.1/">
         <dc:format>image/svg+xml</dc:format>
      </rdf:Description>
      <rdf:Description rdf:about=""
            xmlns:xmp="http://ns.adobe.com/xap/1.0/"
            xmlns:xmpGImg="http://ns.adobe.com/xap/1.0/g/img/">
         <xmp:CreatorTool>Adobe Illustrator CS5.1</xmp:CreatorTool>
         <xmp:CreateDate>2015-02-12T16:49:02+02:00</xmp:CreateDate>
         <xmp:ModifyDate>2015-02-12T16:49:02+02:00</xmp:ModifyDate>
         <xmp:MetadataDate>2015-02-12T16:49:02+02:00</xmp:MetadataDate>
         <xmp:Thumbnails>
            <rdf:Alt>
               <rdf:li rdf:parseType="Resource">
                  <xmpGImg:width>200</xmpGImg:width>
                  <xmpGImg:height>256</xmpGImg:height>
                  <xmpGImg:format>JPEG</xmpGImg:format>
                  <xmpGImg:image>/9j/4AAQSkZJRgABAgEAyADIAAD/7QAsUGhvdG9zaG9wIDMuMAA4QklNA+0AAAAAABAAyAAAAAEA&#xA;AQDIAAAAAQAB/+4ADkFkb2JlAGTAAAAAAf/bAIQABgQEBAUEBgUFBgkGBQYJCwgGBggLDAoKCwoK&#xA;DBAMDAwMDAwQDA4PEA8ODBMTFBQTExwbGxscHx8fHx8fHx8fHwEHBwcNDA0YEBAYGhURFRofHx8f&#xA;Hx8fHx8fHx8fHx8fHx8fHx8fHx8fHx8fHx8fHx8fHx8fHx8fHx8fHx8fHx8f/8AAEQgBAADIAwER&#xA;AAIRAQMRAf/EAaIAAAAHAQEBAQEAAAAAAAAAAAQFAwIGAQAHCAkKCwEAAgIDAQEBAQEAAAAAAAAA&#xA;AQACAwQFBgcICQoLEAACAQMDAgQCBgcDBAIGAnMBAgMRBAAFIRIxQVEGE2EicYEUMpGhBxWxQiPB&#xA;UtHhMxZi8CRygvElQzRTkqKyY3PCNUQnk6OzNhdUZHTD0uIIJoMJChgZhJRFRqS0VtNVKBry4/PE&#xA;1OT0ZXWFlaW1xdXl9WZ2hpamtsbW5vY3R1dnd4eXp7fH1+f3OEhYaHiImKi4yNjo+Ck5SVlpeYmZ&#xA;qbnJ2en5KjpKWmp6ipqqusra6voRAAICAQIDBQUEBQYECAMDbQEAAhEDBCESMUEFURNhIgZxgZEy&#xA;obHwFMHR4SNCFVJicvEzJDRDghaSUyWiY7LCB3PSNeJEgxdUkwgJChgZJjZFGidkdFU38qOzwygp&#xA;0+PzhJSktMTU5PRldYWVpbXF1eX1RlZmdoaWprbG1ub2R1dnd4eXp7fH1+f3OEhYaHiImKi4yNjo&#xA;+DlJWWl5iZmpucnZ6fkqOkpaanqKmqq6ytrq+v/aAAwDAQACEQMRAD8A9GabbWh061J0b1CYY6yc&#xA;Lb4vhG+7g7++KrbO2s/rF9/uFr+/X9i12/cR/wCXirpLaz/Slv8A7hf90TbcLX+eL/LxV2pW1n9X&#xA;T/cLT9/b/sWv+/0/y8VRX1Wz/wCrJ/wlr/1UxVC6VbWf6Ls/9wtf3Ee/C13+Af5eKus7az+sX3+4&#xA;Wv79f2LXb9xH/l4q6O2s/wBKXH+4X/dEO3C1/nl/y8VdeW1n9Ysf9wtP37fsWu/7iT/LxV2q21n+&#xA;i7z/AHC0/cSb8LXb4D/l4qvmm0SG5htZtMijubmv1eB/qayScRVuCmSrU70xVL9N1LyybaI/VLZh&#xA;d3VxFasHsiJZBM/7uP8Ae/Ew8BiqNjtrP9KXH+4X/dEO3C1/nl/y8VdJbWf6Ut/9wv8Auibbha/z&#xA;xf5eKu1K2s/q6f7hafv7f9i1/wB/p/l4qivqtn/1ZP8AhLX/AKqYqhdKtrP9F2f+4Wv7iPfha7/A&#xA;P8vFXWdtZ/WL7/cLX9+v7Frt+4j/AMvFXSW1n+lLf/cL/uibbha/zxf5eKu1K2s/q6f7hafv7f8A&#xA;Ytf9/p/l4q7Vbaz/AEXef7hafuJN+Frt8B/y8VRX1Wz/AOrJ/wAJa/8AVTFULpttZ/V3/wBwtf39&#xA;x+xa/wC/3/y8VdHbWf6UuP8AcL/uiHbha/zy/wCXiqt6Nul/YGPTfqres373jAP90Sbfu2ZsVQNh&#xA;aW5sLYm91NSYkJVBNwHwjZaRkU8MVW2lnb/WL3/TtV/vh0Wf/fMfX91irpLO3/Sdv/p2q/3M2/Ge&#xA;v24v+KsVdqNnb/V0/wBO1U/voOqz/wC/k/4qxVE/Urb/AJb9V/4Gf/qliqG0uzt/0Zaf6dqo/cx7&#xA;BZ6fYHT91irrSzt/rF7/AKdqv98Oiz/75j6/usVdHZ2/6TuP9O1X+5h34z1+3L/xVirruzt/rFl/&#xA;p2q/3x6rP/vmTp+6xV2qWdv+jLv/AE7VT+5k2Kz0+wev7rFWI+efKWsa1rdnDaW5k0pbci41aUTr&#xA;qC3Ku5t/i+rOTDbs/q8FZebGhPEEMqxm2/LHzDK7XK21jAtyv1N7aJbwpZeiNNia7g5WoDys2lOe&#xA;PFeqfEfixV6pHZ2/6TuP9O1X+5h34z1+3L/xVirpLO3/AEnb/wCnar/czb8Z6/bi/wCKsVdqNnb/&#xA;AFdP9O1U/voOqz/7+T/irFUT9Stv+W/Vf+Bn/wCqWKobS7O3/Rlp/p2qj9zHsFnp9gdP3WKutLO3&#xA;+sXv+nar/fDos/8AvmPr+6xV0lnb/pO3/wBO1X+5m34z1+3F/wAVYq7UbO3+rp/p2qn99B1Wf/fy&#xA;f8VYq7VLO3/Rl3/p2qn9zJsVnp9g9f3WKon6lbf8t+q/8DP/ANUsVQ2nWdv9Xf8A07VR++n6LP8A&#xA;7+f/AIqxV0dnb/pO4/07Vf7mHfjPX7cv/FWKomG3hj1KwZLq+mPqv8FyJRH/AHEn86KK/TiqM0uP&#xA;U/0ZacbiEL6MfEGFyQOA6n1RirVnHqn1i+/0iD+/Wv7h/wDfEX/FuKukj1T9KW/+kQV9Cf8A3Q/8&#xA;8X/FuKu1KPVPq6VuIP7+3/3Q/wDv9P8Ai3FUX6eq/wDLRB/yIf8A6rYqhNKj1T9F2dLiCnoR0/cP&#xA;/IP+LcVdZx6p9Yvv9Ig/v1r+4f8A3xF/xbiro49U/Slx/pEFfQg/3Q/88v8AxbirryPVPrFj/pEH&#xA;9+1P3D/74l/4txV2qx6p+i7ytxBT0JK/uH/kP/FuKov09V/5aIP+RD/9VsVQmmx6p9XelxB/f3H+&#xA;6H/3+/8Axbiro49U/Slx/pEFfQg/3Q/88v8AxbirpI9U/Slv/pEFfQn/AN0P/PF/xbirtSj1T6ul&#xA;biD+/t/90P8A7/T/AItxVF+nqv8Ay0Qf8iH/AOq2KoTSo9U/RdnS4gp6EdP3D/yD/i3FXWceqfWL&#xA;7/SIP79a/uH/AN8Rf8W4q6SPVP0pb/6RBX0J/wDdD/zxf8W4q7Uo9U+rpW4g/v7f/dD/AO/0/wCL&#xA;cVdqseqfou8rcQU9CSv7h/5D/wAW4qi/T1X/AJaIP+RD/wDVbFUJpseqfV3pcQf39x/uh/8Af7/8&#xA;W4q6OPVP0pcf6RBX0IP90P8Azy/8W4qqTJfC8sDNNE6eu3wpEyGvoS9zI/6sVSmwdPqFt/zrM037&#xA;pP3wFhR/hHxDlOrb9dxXFVto6fWL3/nVpz++G1NP2/cx7f70Yq6R0/Sdv/zq0/8AczfDTT9/ji3/&#xA;AN6MVdqLp9XT/nVp1/fQb00//fybbXHfFUTzj/6lWf7tO/7KMVQ2lun6MtP+dWnb9zH8VNP3+Ab7&#xA;3GKutHT6xe/86tOf3w2pp+37mPb/AHoxV0bp+k7j/nVp/wC5h+Gmn7fHLv8A70Yq67dPrFl/zq04&#xA;/fHamn7/ALmTb/ejFXao6foy7/51adf3MnxU0/b4DvtcYqlvmj9JWt3ot7a2cdrYyvdx3ekm0hmu&#xA;ZJEsLqeImSOR04hrdaIu7EirDpiryfRvOHnE2NuLueP1lmY2pgtbK4j1C7f9GsLEzpaxoam7ueSx&#xA;okikU5N6TMyr2qN0/Sdx/wA6tP8A3MPw00/b45d/96MVdI6fpO3/AOdWn/uZvhpp+/xxb/70Yq7U&#xA;XT6un/OrTr++g3pp/wDv5NtrjviqJ5x/9SrP92nf9lGKobS3T9GWn/OrTt+5j+Kmn7/AN97jFXWj&#xA;p9Yvf+dWnP74bU0/b9zHt/vRirpHT9J2/wDzq0/9zN8NNP3+OLf/AHoxV2oun1dP+dWnX99BvTT/&#xA;APfybbXHfFXao6foy7/51adf3MnxU0/b4DvtcYqiecf/AFKs/wB2nf8AZRiqG050+rv/AM6tO376&#xA;femn/wC/n23uO2KujdP0ncf86tP/AHMPw00/b45d/wDejFUTCynUrCmhy6efVf8A0hxaAf3Enw/u&#xA;ZpH3+WKr9NubQadag6z6ZEMdY+dt8PwjbdCdvfFVtnc2f1i+/wBzVP36/t2u/wC4j/yMVdJc2f6U&#xA;t/8Ac1/uibfna/zxf5GKu1K5s/q6f7mq/v7f9u1/3+n+RiqK+tWf/V7/AOHtf+qeKoXSrmz/AEXZ&#xA;/wC5qn7iPbna7fAP8jFXWdzZ/WL7/c1T9+v7drv+4j/yMVdHc2f6UuP9zX+6Id+dr/PL/kYq68ub&#xA;P6xY/wC5qv79v27Xb9xJ/kYq7Vbmz/Rd5/uar+4k252u/wAB/wAjFUV9as/+r3/w9r/1TxVC6ddW&#xA;n1d663T99P8At23+/n/yMVdHc2f6UuP9zX+6Id+dr/PL/kYq6S5s/wBKW/8Aua/3RNvztf54v8jF&#xA;Xalc2f1dP9zVf39v+3a/7/T/ACMVRX1qz/6vf/D2v/VPFULpVzZ/ouz/ANzVP3Ee3O12+Af5GKus&#xA;7mz+sX3+5qn79f27Xf8AcR/5GKukubP9KW/+5r/dE2/O1/ni/wAjFXalc2f1dP8Ac1X9/b/t2v8A&#xA;v9P8jFXarc2f6LvP9zVf3Em3O13+A/5GKor61Z/9Xv8A4e1/6p4qhdNubP6u/wDuap+/uP27X/f7&#xA;/wCRiro7mz/Slx/ua/3RDvztf55f8jFVb1rd7+wEepfWm9Zv3XKA/wC6JN/3aq2Kqulyan+jLTjb&#xA;wlfRj4kzOCRwHUekcVas5NU+sX3+jwf361/fv/viL/irFXSSap+lLf8A0eCvoT/7vf8Ani/4qxV2&#xA;pSap9XStvB/f2/8Au9/9/p/xViqL9TVf+WeD/ke//VHFUJpUmqfouzpbwU9COn79/wCQf8VYq6zk&#xA;1T6xff6PB/frX9+/++Iv+KsVdHJqn6UuP9Hgr6EH+73/AJ5f+KsVdeSap9Ysf9Hg/v2p+/f/AHxL&#xA;/wAVYq7VZNU/Rd5W3gp6Elf37/yH/irFUJqfm+00vVLPS76S1hv75JpbeAzyE+nbxtLJI5ENEVVQ&#xA;7t17Yqx2w/Nny6lvb/GD9cuJvTrFerxjeaMieTlaj04f9MhHqtRatSuzUVZbHJqn6UuP9Hgr6EH+&#xA;73/nl/4qxV0kmqfpS3/0eCvoT/7vf+eL/irFXalJqn1dK28H9/b/AO73/wB/p/xViqL9TVf+WeD/&#xA;AJHv/wBUcVQmlSap+i7OlvBT0I6fv3/kH/FWKus5NU+sX3+jwf361/fv/viL/irFXSSap+lLf/R4&#xA;K+hP/u9/54v+KsVdqUmqfV0rbwf39v8A7vf/AH+n/FWKu1WTVP0XeVt4KehJX9+/8h/4qxVF+pqv&#xA;/LPB/wAj3/6o4qhNNk1T6u9LeD+/uP8Ad7/7/f8A4qxV0cmqfpS4/wBHgr6EH+73/nl/4qxVUme+&#xA;N5YCaGJE9dviSVnNfQl7GNP14qlNhoumPYWztpMzs0SFnEqAMSoNQPWHX5YqttND0s3F7/uHnNJh&#xA;T96m37mP/i/FXSaHpf6Ttx+h56ejNt6qfzxf8X4q7UdD0sW6U0ecfvoP92p/v5P+L8VRP6D0r/qz&#xA;z/8AI1P+q+KobS9D0s6ZaE6POSYY6n1U/kH/ABfirrTQ9LNxe/7h5zSYU/ept+5j/wCL8VdHoel/&#xA;pO4H6Hnp6MO3qp/PL/xfirrvQ9LFxZf7h5xWY1/epv8AuZP+L8Vdqmh6WNMuyNHnBEMlD6qfyH/i&#xA;/FWtZ8r2OqWMFg9hdQ2cUk8kkaPCS4ubOeydeTStT4Lkn5jFWEaT+TsUVuRDNcwRSyS21/bwQWUc&#xA;MtojW0fprGJKRyP+jUMkgryLvtuvFVnCaLpjapcV0ic1hhNPVTqXl/4uxV0mh6X+k7cfoeenozbe&#xA;qn88X/F+Ku1HQ9LFulNHnH76D/dqf7+T/i/FUT+g9K/6s8//ACNT/qviqG0vQ9LOmWhOjzkmGOp9&#xA;VP5B/wAX4q600PSzcXv+4ec0mFP3qbfuY/8Ai/FXSaHpf6Ttx+h56ejNt6qfzxf8X4q7UdD0sW6U&#xA;0ecfvoP92p/v5P8Ai/FXapoeljTLsjR5wRDJQ+qn8h/4vxVE/oPSv+rPP/yNT/qviqG07Q9LNu9d&#xA;HnP76f8A3an+/n/4vxV0eh6X+k7gfoeenow7eqn88v8AxfiqJh0yxttSsJIdPltn9Vx6rurChgk2&#xA;oJX/AFYqv025tBp1qDrPpkQx1j523w/CNt0J298VW2dzZ/WL7/c1T9+v7drv+4j/AMjFXSXNn+lL&#xA;f/c1/uibfna/zxf5GKu1K5s/q6f7mq/v7f8Abtf9/p/kYqivrVn/ANXv/h7X/qniqF0q5s/0XZ/7&#xA;mqfuI9udrt8A/wAjFXWdzZ/WL7/c1T9+v7drv+4j/wAjFXR3Nn+lLj/c1/uiHfna/wA8v+Rirry5&#xA;s/rFj/uar+/b9u12/cSf5GKu1W5s/wBF3n+5qv7iTbna7/Af8jFUV9as/wDq9/8AD2v/AFTxVC6b&#xA;c2f1d/8Ac1T9/cft2v8Av9/8jFXR3Nn+lLj/AHNf7oh352v88v8AkYq6S5s/0pb/AO5r/dE2/O1/&#xA;ni/yMVdqVzZ/V0/3NV/f2/7dr/v9P8jFUV9as/8Aq9/8Pa/9U8VQulXNn+i7P/c1T9xHtztdvgH+&#xA;RirrO5s/rF9/uap+/X9u13/cR/5GKukubP8ASlv/ALmv90Tb87X+eL/IxV2pXNn9XT/c1X9/b/t2&#xA;v+/0/wAjFXarc2f6LvP9zVf3Em3O13+A/wCRiqK+tWf/AFe/+Htf+qeKoXTbmz+rv/uap+/uP27X&#xA;/f7/AORiro7mz/Slx/ua/wB0Q787X+eX/IxVW9a3e/sBHqX1pvWb91ygP+6JN/3aq2Kqem3HmYad&#xA;aiKwsmjEMfBmvJVYrxFCVFq1D7VOKrbO580/WL6mn2NfXWv+mzdfQj/5dMVdJc+af0pb/wC4+xr6&#xA;E1B9dmpTnF/y6Yq7UrnzT9XSun2IHr2/S9mO/rpT/j0xVFfWfNX/AFbrH/pOm/7JMVQulXPmn9F2&#xA;dNPsSPQjoTezA04D/l0xV1nc+afrF9TT7GvrrX/TZuvoR/8ALpiro7nzT+lLj/cfY19CGo+uzUpz&#xA;l/5dMVdeXPmn6xY10+xr67U/02br6En/AC6Yq7VbnzT+i7yun2IHoSVIvZiacD/y6Yql/mHVvN+n&#xA;6ho13wjNk0t1Hd6PZKbma5KWFzcx8Z5Vh4/HbqoUIKsd2ptirzC1/Mj8ypoIjfSz6VfC8vBDZCyi&#xA;CXNyLuyEOmhnjkYqsVxMOSlZXoX5fCRir2BLjzP+lbnjp9kf3MPW9lG3OWn/AB6nFWpLnzT+lLf/&#xA;AHH2NfQmoPrs1Kc4v+XTFXalc+afq6V0+xA9e36Xsx39dKf8emKor6z5q/6t1j/0nTf9kmKoXSrn&#xA;zT+i7Omn2JHoR0JvZgacB/y6Yq6zufNP1i+pp9jX11r/AKbN19CP/l0xV0lz5p/Slv8A7j7GvoTU&#xA;H12alOcX/LpirtSufNP1dK6fYgevb9L2Y7+ulP8Aj0xV2q3Pmn9F3ldPsQPQkqRezE04H/l0xVFf&#xA;WfNX/Vusf+k6b/skxVC6bc+afq700+xI9e463sw39d6/8emKujufNP6UuP8AcfY19CGo+uzUpzl/&#xA;5dMVVvW1x7+wF7aWsMPrN8cNzJM1fQkoOLQQj/hsVYBdfnV+V+i3ceiajfX0epwG0tnjVbwRtJPw&#xA;U8JKrFxi5Vf4tgDQGlMVSH8x/ONpqWi3kvk3zLdwwxR6nqMuo6ZLLMWOlWEUqxM7c19MyunOlCRT&#xA;fjWqqcp+dX5e30kE2itqWt3sVpdS3emaf9bluLdY2jDPMrMjKgZaVAJNRQGuKqDWn5m6jpya/fzz&#xA;aRq1r9VW08swPeTWNyyyhpTdSunqIZiVEfA1i41PLky4qjrv8z47yzuIdA8v69d6pHauLiMJdD6l&#xA;qLBlgtbkM3+/E+N15Ko4sfhauKpHovnTzT5Oa20/zul7r66jBC+iS6LDe8wltGkdz68REXxHksp4&#xA;cgORUbAYqmWj6p+bqMb++0W0nSQr9b0e2u9TiuEdoY2LCeWNoiVVePDuzfbCjkVUPqvnT8xLz9Lx&#xA;6B5J1WwvTBAljeajctSMMz/vpYI5GrxpJ8COx2U78iFVZ1peraVrGk+X9XiF4I9RSK7UK16wCz2j&#xA;yDi3f7XUYqj9V/R36LvKfXq+hJ1+u0+wfHFUV/uO/wCX7/p+xVC6b+jvq71+vf39x0+u/wC/38MV&#xA;dH+jv0pcf73U9CH/AJba/blxV0n6O/Slv/vdT0Jv+W2v24sVdqX6O+rpT69/f2/X67/v9PHFUV/u&#xA;O/5fv+n7FWK6v508t+XtFsYz9cvtanitksdDhmnS8uTMyxj0UldAQNyTXjQHfFUhttM/NLVoryW4&#xA;1hfL04k9aGysbe+uXM3pRvFDc3E5dfTFfTl9OPk3HkrgNxCqIk8yefbTU7KW+8pXF1EYbiKaLS76&#xA;5lm5qY29cfWhaIIWpRV5F6ncDFVDVfzIub8JY6H5V8wia6khFjql9Ddx2Ks08apJNxdpUQESEhlV&#xA;vgoPtriqXJ52Ty5Yax5U1nUbzXvObXTx6RBM9zbyXkFzHFJ6wRAwihg9Z+Q4kqkbUDUxVNLfT/zj&#xA;ubuWa41e005C5gS3jtdTuYhCP3ouUrJFIZST6JRnC8Rz2bbFVKx1bz95bk9TV7K5806RczXDSS6P&#xA;FewXdpJ6jMy+hLIEkt0COVb1DISQtK/aVVJv0p501yaG3+v6V5KpbC5lkXU4NR1CFRLIfR+y0EEk&#xA;jKhLKHZVbjQMDirIdB8qjR9es5rfXNZvbWQkSWeqPPcKZ/SmLTerOvwkqQOCcV2qBiqJg0ny3daX&#xA;DDdpo0ySxq00VxaxSVZkIYvyk+JjzYEkdz44qgv8K+UrvXNX1S5bTHvL22Ok3bFTwlspIYg0TRic&#xA;J0+HlStNq02xVMLO00XTtZE9hNpVrNdR3ElzNDAiNI7SREl2WarEnxOKo7UtRrbp/uUsT+/t+i/8&#xA;Xp/xdiqK/SX/AGtbH/gf+v8AiqF0rUaaXZj9KWI/cR7Fd/sD/i7FXWeo/wCkX3+5SxFZ1/Z/4oj/&#xA;AOLsVdHqP+5S4P6Usf7iHfjt9uX/AIuxV515A813On60nkC5lWK20OaePRNVuYVjjurS2hCsqcZh&#xA;X0PrKIGpRh4kNir0XVdRrpd4P0pYn9xJsF3+wf8Ai7FVDUvNVxZanpliiG+/SbTql1bQFoUaC3ku&#xA;PTLmahkcQsFUH507qsQt/wA33tWltZtMmSeznnfVxSFktIQ9s8kjSLPxcxtqKK6L8SlX/lHJVm0e&#xA;o/7lLg/pSx/uId+O325f+LsVdJqP+5S3P6Usf7ibfjt9uL/i7FXalqNbdP8AcpYn9/b9F/4vT/i7&#xA;FUr82+frfQLRUiv7O/1q8DLpOkxIfVuZgVUCvrEIitIpkkbZFqx6YqgvInl+x0fTbe+uNUsrzX7u&#xA;KOTUNTn5SyFyrHhEXm/dxR+qyRogUBe1a4qyGz1H/SL7/cpYis6/s/8AFEf/ABdirpNR/wByluf0&#xA;pY/3E2/Hb7cX/F2Ku1LUa26f7lLE/v7fov8Axen/ABdiqE1SHSuN7qf1jSzqTWzRteCFfXKIjhV9&#xA;T1uVB6jU+ZxVNf0l/wBrWx/4H/r/AIqhdN1Glu/+5SxH7+46r/xe/wDxdiro9R/3KXB/Slj/AHEO&#xA;/Hb7cv8Axdiqt9c9W/sE+vWtx++Y+nCtG/uJN/7x/wBWKqem6fy061b9GWT1hjPNm+I1Ubn9ydz8&#xA;8VW2enf6Rff7i7E0nX9r/iiP/inFXSad/uUtx+i7H+4m25bfbi/4pxV2padS3T/cXYj9/b9G/wCL&#xA;0/4pxVFfo3/tVWP/AAX/AF4xVC6Vp1dLsz+i7E/uI9y2/wBgf8U4q6z07/SL7/cXYmk6/tf8UR/8&#xA;U4q6PTv9ylwP0XY/3EO3Lb7cv/FOKsP/ADj0K2PlC41X9F2cOpaPHPeaZeQsRNHPDbvMioyxKaPJ&#xA;EgZa0bo22Ksw1XTqaXeH9F2I/cSbht/sH/inFV2oaHJexW8ZtYrb6pJJNbvbXDwskktvLbF1Kw7E&#xA;R3DUPjQ4qxTSfyq0ldPs7eSKaeLTpZordX1CcVgFwjtBJwiX1I3ltkkYNWrV/mYFVlMenf7lLgfo&#xA;ux/uIduW325f+KcVdJp3+5S3H6Lsf7ibblt9uL/inFVuq2UcdsjPptgg9e3FS9P93JtvDirG/Jen&#xA;y67q1950k0m1Sxvoo7Py/DLWMiwiJdrngYaj63K3McgD6ax7YqybStOrpdmf0XYn9xHuW3+wP+Kc&#xA;VdZ6d/pF9/uLsTSdf2v+KI/+KcVdJp3+5S3H6Lsf7ibblt9uL/inFXalp1LdP9xdiP39v0b/AIvT&#xA;/inFXarp1NLvD+i7EfuJNw2/2D/xTiqK/Rv/AGqrH/gv+vGKoXTdOrbv/uLsT+/uOrf8Xv8A8U4q&#xA;6PTv9ylwP0XY/wBxDty2+3L/AMU4qrfU/Sv7B/qNrb/vmHqQtVv7iTb+7T9eKqem/o/9HWvL67y9&#xA;GOvH67xrxHTj8NPliq2z/R31i+/3u/v1p/vb/viPFXSfo79KW/8AvdT0Jv8Altr9uLFXal+jvq6U&#xA;+vf39v1+u/7/AE8cVRX+47/l+/6fsVQulfo79F2dfr1fQj6fXafYHhirrP8AR31i+/3u/v1p/vb/&#xA;AL4jxV0f6O/Slx/vdT0If+W2v25cVST8w9Ei13yveaNYy3cF7fw3EFrNKL4xrK9rKI2fZ/hD0rRT&#xA;t2xVC+UNQa98gSDVLi7u9UsP0hpl5dr9cpNLp1xNZmZlBIVpfQ9Rl7cqYqy//cd/y/f9P2KoXTf0&#xA;d9Xev17+/uOn13/f7+GKuj/R36UuP97qehD/AMttfty4q6T9HfpS3/3up6E3/LbX7cWKsJ862Gk+&#xA;ZfN1l5c1KCafQtPgh1S5t5frzPPcT3DWkS8f2UiT1Hr15leP2cVZ5b2+j21vFb28d5FBCixxRIL1&#xA;VVFFFVQOgAGKqOlfo79F2dfr1fQj6fXafYHhirrP9HfWL7/e7+/Wn+9v++I8VdJ+jv0pb/73U9Cb&#xA;/ltr9uLFXal+jvq6U+vf39v1+u/7/TxxV2q/o79F3lPr1fQk6/XafYPjiqK/3Hf8v3/T9iqF039H&#xA;fV3r9e/v7jp9d/3+/hiro/0d+lLj/e6noQ/8ttfty4qrf6H9fsPS+tc/Wb+++s8aehJ/v34cVU9N&#xA;t/Mx061MV/ZLGYY+CtZyswXiKAsLpan3oMVW2dt5p+sX1NQsa+utf9Cm6+hH/wAveKuktvNP6Ut/&#xA;9yFjX0JqH6lNSnOL/l7xV2pW3mn6uldQsSPXt+llMN/XSn/H3iqK+reav+rjY/8ASDN/2V4qhdKt&#xA;vNP6Ls6ahYgehHQGymJpwH/L3irrO280/WL6moWNfXWv+hTdfQj/AOXvFXR23mn9KXH+5Cxr6ENT&#xA;9SmpTnL/AMveKuvLbzT9Ysa6hY19dqf6FN19CT/l7xVidpZazpfmbzbpFrf2SJe2UWuSQLaS8BLd&#xA;evbzsifWvgMjWqux35MSetaqpz5tsPOfq6Rd6ZfSy3sJvIpbS3QQ2Tu9hdNBLOrGV/hnWFRykK1N&#xA;aVpRV5jaD8xHeH6q3mI2Zemj+u92zjUkXTVm+uljz+rCVbygnPo/bpt6WKvYY7bzT+lLj/chY19C&#xA;Gp+pTUpzl/5e8VQ+qT63p0v1+/1fTra0tLS5muLmSzlWOOKMxM7MTd9ABXFWOeTLLzJeaC3miW5t&#xA;IrzzJdQ3pMtpM8otDcj6jGWNyOKLAyt6dPhLN3JJVZr9W81f9XGx/wCkGb/srxVC6Vbeaf0XZ01C&#xA;xA9COgNlMTTgP+XvFXWdt5p+sX1NQsa+utf9Cm6+hH/y94q6S280/pS3/wByFjX0JqH6lNSnOL/l&#xA;7xV2pW3mn6uldQsSPXt+llMN/XSn/H3irtVtvNP6LvK6hYkehJUCymBpwP8Ay94qivq3mr/q42P/&#xA;AEgzf9leKoXTbbzT9XemoWIHr3HWymO/rvX/AI+8VdHbeaf0pcf7kLGvoQ1P1KalOcv/AC94qrej&#xA;riX9gb27tZofWb4IbaSFq+hJQ8mnmH/C4qp6bbWh061J0b1CYY6ycLb4vhG+7g7++KrbO2s/rF9/&#xA;uFr+/X9i12/cR/5eKuktrP8ASlv/ALhf90TbcLX+eL/LxV2pW1n9XT/cLT9/b/sWv+/0/wAvFUV9&#xA;Vs/+rJ/wlr/1UxVC6VbWf6Ls/wDcLX9xHvwtd/gH+XirrO2s/rF9/uFr+/X9i12/cR/5eKujtrP9&#xA;KXH+4X/dEO3C1/nl/wAvFXXltZ/WLH/cLT9+37Frv+4k/wAvFWO/mJ5be50d9X0fSxa67pEU01q7&#xA;JbelPEUPr2k4Dk+nMo2I3RwrjpQqsg0a60rVtIsdVtdEJttQt4rqAlLWvpzIJFr+88GxVdpttZ/V&#xA;3/3C1/f3H7Fr/v8Af/LxV0dtZ/pS4/3C/wC6IduFr/PL/l4qwfznc2vmHXB5N0ny/NJPHLAmt3fo&#xA;W4t4Lb1Le7mT1efH1WgCqF6/vFPSuKs31C0sltY1XRAoE1uAAlqBT1k22fFUX9Vs/wDqyf8ACWv/&#xA;AFUxVC6VbWf6Ls/9wtf3Ee/C13+Af5eKus7az+sX3+4Wv79f2LXb9xH/AJeKuktrP9KW/wDuF/3R&#xA;Ntwtf54v8vFXalbWf1dP9wtP39v+xa/7/T/LxV2q21n+i7z/AHC0/cSb8LXb4D/l4qivqtn/ANWT&#xA;/hLX/qpiqF022s/q7/7ha/v7j9i1/wB/v/l4q6O2s/0pcf7hf90Q7cLX+eX/AC8VVvRt0v7Ax6b9&#xA;Vb1m/e8YB/uiTb92zNiqBsNd0GOwtkk8yQwyJEivEZ7QFCFAKkMtdum+KrbTX/L4uL2vmeAVmFD6&#xA;9nv+5j3+zirpNf8AL/6Ttz/ieCghmq3r2e3xxbfZxV2o6/5fNulPM8B/fQbevZ9pk3+z2xVE/wCI&#xA;PL3/AFNEH/SRZf8ANOKobS9f8vjTLQHzPApEMdV9ez2+AbbrirrTX/L4uL2vmeAVmFD69nv+5j3+&#xA;ziro9f8AL/6TuD/ieChhho3r2e/xy7fZxV13r/l83FlTzPAaTGp9ez2/cyb/AGcVdqmv+Xzpl2B5&#xA;ngYmGSi+vZ7/AAHbZcVYXb+XPNXl+3m1ny55l/SvlrR7iR7Hy7bSW0cRsJEZ7iJ7iUNGJYZJA0IJ&#xA;VFROO3P4VWC2n5yfmhqemNFp0C6bcWk8mo316/pmL6jJ6EiW4hnt0naZJNRjEh4KrqpMTfGGCrMJ&#xA;rDzJrN3daR5l/MKwj0qSFXuLzSJY7G9kdvU4WwNW9OKGQsS4cs68VYD4iyrJ/LsflbQTDbR+bI7q&#xA;ecXV1f38txZGSe5mkiMkj0WgrSir0VQFGwxVN9R1/wAvm3SnmeA/voNvXs+0yb/Z7Yqif8QeXv8A&#xA;qaIP+kiy/wCacVQ2l6/5fGmWgPmeBSIY6r69nt8A23XFXWmv+XxcXtfM8ArMKH17Pf8Acx7/AGcV&#xA;dJr/AJf/AEnbn/E8FBDNVvXs9vji2+zirtR1/wAvm3SnmeA/voNvXs+0yb/Z7Yq7VNf8vnTLsDzP&#xA;AxMMlF9ez3+A7bLiqJ/xB5e/6miD/pIsv+acVQ2na/5fFu9fM8A/fT7evZ95n3+z3xV0ev8Al/8A&#xA;Sdwf8TwUMMNG9ez3+OXb7OKomHVdJutSsIrXW4r+X1XP1dJbZzQQSVakShtsVRmlyan+jLTjbwlf&#xA;Rj4kzOCRwHUekcVas5NU+sX3+jwf361/fv8A74i/4qxV0kmqfpS3/wBHgr6E/wDu9/54v+KsVdqU&#xA;mqfV0rbwf39v/u9/9/p/xViqL9TVf+WeD/ke/wD1RxVCaVJqn6Ls6W8FPQjp+/f+Qf8AFWKus5NU&#xA;+sX3+jwf361/fv8A74i/4qxV0cmqfpS4/wBHgr6EH+73/nl/4qxV15Jqn1ix/wBHg/v2p+/f/fEv&#xA;/FWKu1WTVP0XeVt4KehJX9+/8h/4qxVXnW/ngkgmtLeSGVSksbTOVZWFGBHo9CMVYnp/5d+Xnhie&#xA;TRLaWS2upZI5Zbu5dz6cqIqSOys0karaQgRuSvwLt8IxVkscmqfpS4/0eCvoQf7vf+eX/irFXSSa&#xA;p+lLf/R4K+hP/u9/54v+KsVdqUmqfV0rbwf39v8A7vf/AH+n/FWKov1NV/5Z4P8Ake//AFRxVCaV&#xA;Jqn6Ls6W8FPQjp+/f+Qf8VYq6zk1T6xff6PB/frX9+/++Iv+KsVdJJqn6Ut/9Hgr6E/+73/ni/4q&#xA;xV2pSap9XStvB/f2/wDu9/8Af6f8VYq7VZNU/Rd5W3gp6Elf37/yH/irFUX6mq/8s8H/ACPf/qji&#xA;qE02TVPq70t4P7+4/wB3v/v9/wDirFXRyap+lLj/AEeCvoQf7vf+eX/irFVSZ743lgJoYkT12+JJ&#xA;Wc19CXsY0/XiqD022tDp1qTo3qEwx1k4W3xfCN93B398VW2dtZ/WL7/cLX9+v7Frt+4j/wAvFXSW&#xA;1n+lLf8A3C/7om24Wv8APF/l4q7Uraz+rp/uFp+/t/2LX/f6f5eKor6rZ/8AVk/4S1/6qYqhdKtr&#xA;P9F2f+4Wv7iPfha7/AP8vFXWdtZ/WL7/AHC1/fr+xa7fuI/8vFXR21n+lLj/AHC/7oh24Wv88v8A&#xA;l4q68trP6xY/7hafv2/Ytd/3En+XirtVtrP9F3n+4Wn7iTfha7fAf8vFUV9Vs/8Aqyf8Ja/9VMVQ&#xA;dhFp6W556OAXuJ1Sq2oqfWf4RWTrtiq6O2s/0pcf7hf90Q7cLX+eX/LxV0ltZ/pS3/3C/wC6JtuF&#xA;r/PF/l4q7Uraz+rp/uFp+/t/2LX/AH+n+XiqK+q2f/Vk/wCEtf8AqpiqF0q2s/0XZ/7ha/uI9+Fr&#xA;v8A/y8VdZ21n9Yvv9wtf36/sWu37iP8Ay8VdJbWf6Ut/9wv+6JtuFr/PF/l4q7Uraz+rp/uFp+/t&#xA;/wBi1/3+n+XirtVtrP8ARd5/uFp+4k34Wu3wH/LxVFfVbP8A6sn/AAlr/wBVMVQum21n9Xf/AHC1&#xA;/f3H7Fr/AL/f/LxV0dtZ/pS4/wBwv+6IduFr/PL/AJeKq3o26X9gY9N+qt6zfveMA/3RJt+7ZmxV&#xA;A2CJ9Qtv+dmmh/dJ+5BsKJ8I+EcoGbbpua4qttET6xe/87TOP3w3rp+/7mPf/efFXSIn6Tt/+dpn&#xA;/uZvirp+3xxbf7z4q7UUT6un/O0zt++g2rp/+/k32t+2KonhH/1NU/36d/2T4qhtLRP0Zaf87TOv&#xA;7mP4a6ft8A23t8VdaIn1i9/52mcfvhvXT9/3Me/+8+KujRP0ncf87TP/AHMPxV0/f45dv958Vddo&#xA;n1iy/wCdpnP74710/b9zJv8A7z4q7VET9GXf/O0zt+5k+Gun7/AdtrfFUZevBLoN9p8WuK15cQTR&#xA;QX0skCyRvIhVG/dLGvwE1Hw4q8Q0v8t9aS2tkEenmNHaG1aS6tVlsbkNpwe/X0Y0jZg1hOEZV9Tj&#xA;wDfabiq9jjRP0ncf87TP/cw/FXT9/jl2/wB58VdIifpO3/52mf8AuZvirp+3xxbf7z4q7UUT6un/&#xA;ADtM7fvoNq6f/v5N9rftiqJ4R/8AU1T/AH6d/wBk+KobS0T9GWn/ADtM6/uY/hrp+3wDbe3xV1oi&#xA;fWL3/naZx++G9dP3/cx7/wC8+KukRP0nb/8AO0z/ANzN8VdP2+OLb/efFXaiifV0/wCdpnb99BtX&#xA;T/8Afyb7W/bFXaoifoy7/wCdpnb9zJ8NdP3+A7bW+KonhH/1NU/36d/2T4qhtORPq7/87TOv76fa&#xA;un/7+ffe374q6NE/Sdx/ztM/9zD8VdP3+OXb/efFUTCqjUrCmuS6gfVf/R3NoR/cSfF+5hjfb54q&#xA;mNqmqW9tFbiGBxCixhzM6khRStPSNK08cVagTVY5bh/QgPryCSnrPtSNUp/df5GKuZNVa7jn9CCk&#xA;cckfH1n35shr/dduGKuuk1WeJU9CBaSRyV9Zz/dyK9P7rvxxVW9TVf8Alng/5Hv/ANUcVUbNNVt7&#xA;SCAwQMYY1j5es4rxUCv91iroE1WOW4f0ID68gkp6z7UjVKf3X+RirlTVVu5J/QgpJHHHx9Z9uDOa&#xA;/wB1354q6dNVklt39CAehIZKes+9Y2Sn91/l4q68TVbi0ngEECmaNo+XrOaclIr/AHWKq3qar/yz&#xA;wf8AI9/+qOKqNqmqwRMnoQNWSSSvrOP7yRnp/dduWKuVNVW7kn9CCkkccfH1n24M5r/dd+eKuZNV&#xA;a7jn9CCkcckfH1n35shr/dduGKuuk1WeJU9CBaSRyV9Zz/dyK9P7rvxxVW9TVf8Alng/5Hv/ANUc&#xA;VUbNNVt7SCAwQMYY1j5es4rxUCv91iroE1WOW4f0ID68gkp6z7UjVKf3X+RirmTVWu45/QgpHHJH&#xA;x9Z9+bIa/wB124Yq66TVZ4lT0IFpJHJX1nP93Ir0/uu/HFXXiarcWk8AggUzRtHy9ZzTkpFf7rFV&#xA;b1NV/wCWeD/ke/8A1RxVRtU1WCJk9CBqySSV9Zx/eSM9P7rtyxVypqq3ck/oQUkjjj4+s+3BnNf7&#xA;rvzxVeY7+a4t2mjijjgcyEpIzk1jZKUMafz+OKo3FXYq7FXYq7FXYq7FWDebfLPnLUNd1C/0jUWt&#xA;YF0qOCwg9e5jDXhN36jKI50gRgskXxy28nQU+zirHJvKP5lT3i3dlcXthp1vdLPa6Zc6lPPdC3D2&#xA;ZkiaZbpomkYxXDqJ/WTi3A8a/CqyO7078wIvOX6RhmNz5eXUWmGnRvwlMDaVHAKu84jMYuwzel6Y&#xA;+L464qhNB8reedO8p6paXGpXVxrWoaSv1eczSSi2v1gZSFa5urhjK0jgsyGOL4RxVTXFWM2/lH81&#xA;LqKa21B9Tib6hcR2s8WqyxxevNcs9oshivPXX6nBwDMC7ytyDSlftqpxD5X/ADPsB5htdNvZpkks&#xA;ntdNvNQvZJmZgJFtpYOTSmOaOPgsjsqc3+M8sVSu78sfnPJG3oXU8On+jcQ2tr+kGkvYoX1eG4QT&#xA;EvH61x9RVoQ/1vZaj1FYlnVZZ+XelfmNZ6jeT+bp454p9P06K3WK5aZI57dZVuP3ZjjAdyytJJU8&#xA;jSmwAVVnWKuxV2KuxV2KuxV2KuxV2KuxVKv8Tad/vm+/7h99/wBUcVWp5p0uRFkSO+ZHAZWGn31C&#xA;DuCP3OKuXzTpbFgsd8Sh4uBp99saA0P7nwIxVx806WHEZjvubAsq/o++qQtAT/c9uQxVz+adLQVe&#xA;O+UEhQTp991Y0A/ue5OKrv8AE2nf75vv+4fff9UcVWp5p0uRFkSO+ZHAZWGn31CDuCP3OKuXzTpb&#xA;Fgsd8Sh4uBp99saA0P7nwIxVx806WHEZjvubAsq/o++qQtAT/c9uQxVzeadLUqGjvgXPFAdPvtzQ&#xA;mg/c+AOKsY8xfmBruna9faVBYQKnDSE0m5nd/jk1a9+pmSZBxKJE3RK8mIpUchiqXeVPzX1nWtZ0&#xA;+3nsbaGyuLttJuRG8jzC8jsJr55o9qG3K2xRduRqDXFWcJ5p0txVI75gCVJGn33VTQj+57EYq4ea&#xA;dLLmMR33NQGZf0ffVAaoB/ue/E4q5vNOlqVDR3wLnigOn325oTQfufAHFXP5p0uNGkeO+VEBZmOn&#xA;31ABuSf3OKrv8Tad/vm+/wC4fff9UcVWp5p0txVI75gCVJGn33VTQj+57EYq4eadLLmMR33NQGZf&#xA;0ffVAaoB/ue/E4q4+adLDiMx33NgWVf0ffVIWgJ/ue3IYq5/NOloKvHfKCQoJ0++6saAf3PcnFV3&#xA;+JtO/wB833/cPvv+qOKrU806XIiyJHfMjgMrDT76hB3BH7nFXL5p0tiwWO+JQ8XA0++2NAaH9z4E&#xA;YqibPWrO7mEMUd0rkE1mtLqBNv8ALljRfxxVU/Sdt/JP/wBI8/8AzRiqE0rUrcaXZjhP/cR/8e8/&#xA;8g/yMVdZ6lb/AFi++Cfedf8Aj3n/AN8Rf5GKuk1K3/SlueE/9xP/AMe8/wDPF/kYq7UtStzbp8E/&#xA;9/b/APHvP/v9P8jFUX+k7b+Sf/pHn/5oxVCaVqVuNLsxwn/uI/8Aj3n/AJB/kYq6z1K3+sX3wT7z&#xA;r/x7z/74i/yMVdJqVv8ApS3PCf8AuJ/+Pef+eL/IxV15qVv9Ysfgn2nb/j3n/wB8S/5GKoLzBbeX&#xA;b2w1CS800XTz2vpTevZySB44S0saOHjIISQlhXod8VXWei+TrK+t7+z0WK2vbWAWltcxWDpJHbqK&#xA;LEjLECqAbBRiqL03UrcW7/BP/f3H/HvP/v8Af/IxV0epW/6UuDwn/uIP+Pef+eX/ACMVdealb/WL&#xA;H4J9p2/495/98S/5GKu1XUrc6XeDhP8A3En/AB7z/wAh/wAjFUX+k7b+Sf8A6R5/+aMVQmm6lbi3&#xA;f4J/7+4/495/9/v/AJGKuj1K3/SlweE/9xB/x7z/AM8v+RirpNSt/wBKW54T/wBxP/x7z/zxf5GK&#xA;u1LUrc26fBP/AH9v/wAe8/8Av9P8jFUX+k7b+Sf/AKR5/wDmjFUJpWpW40uzHCf+4j/495/5B/kY&#xA;q6z1K3+sX3wT7zr/AMe8/wDviL/IxVHQ3sMz8EWUHrV4ZUH3uqjFUD/ibTv9833/AHD77/qjiqF0&#xA;rzJpw0uzBhvqiCMbafekfYHcQ4q6z8yacLi+Po3286kf7j73/fEY/wB84q6TzJp36Utz6N9QQTD/&#xA;AI597Xd4u3o4q7UvMmnG3QCG+/v7c76fejpOh7w4qiv8Tad/vm+/7h99/wBUcVQuleZNOGl2YMN9&#xA;UQRjbT70j7A7iHFXWfmTThcXx9G+3nUj/cfe/wC+Ix/vnFXSeZNO/SlufRvqCCYf8c+9ru8Xb0cV&#xA;deeZNONxYn0b7adif9x97/viQf75xVKfPn5haf5d1HR9GurVpxr5MTSCT02jjaaC2JClWq3K7U/F&#xA;xFAfirQFVE+RvPyeabaac2EliBa2mo2ylxMZLLUI2ktnIQArIVjblGK08TiqN03zJpwt3Bhvv7+4&#xA;O2n3p6zue0OKuj8yad+lLg+jfUMEI/4597XZ5e3o4q688yacbixPo3207E/7j73/AHxIP984q7Vf&#xA;MmnHS7wCG+qYJBvp96B9g9zDiqK/xNp3++b7/uH33/VHFULpvmTThbuDDff39wdtPvT1nc9ocVdH&#xA;5k079KXB9G+oYIR/xz72uzy9vRxV0nmTTv0pbn0b6ggmH/HPva7vF29HFXal5k0426AQ339/bnfT&#xA;70dJ0PeHFUV/ibTv9833/cPvv+qOKoXSvMmnDS7MGG+qIIxtp96R9gdxDirrPzJpwuL4+jfbzqR/&#xA;uPvf98Rj/fOKpjZ61Z3cwhijulcgms1pdQJt/lyxov44qqfpO2/kn/6R5/8AmjFUJpWpW40uzHCf&#xA;+4j/AOPef+Qf5GKus9St/rF98E+86/8AHvP/AL4i/wAjFXSalb/pS3PCf+4n/wCPef8Ani/yMVdq&#xA;WpW5t0+Cf+/t/wDj3n/3+n+RiqL/AEnbfyT/APSPP/zRiqE0rUrcaXZjhP8A3Ef/AB7z/wAg/wAj&#xA;FXWepW/1i++Cfedf+Pef/fEX+RirpNSt/wBKW54T/wBxP/x7z/zxf5GKuvNSt/rFj8E+07f8e8/+&#xA;+Jf8jFUq806R5a1ULqV9aXEt3p8TtAQl5EjqrLMI5lj4LNH6sKNwkqu3uaqq3lrQfKvlqOaPRrO5&#xA;t0n4Bw6Xk1EiBEUSGUOUijDHhGtFWpoMVR+m6lbi3f4J/wC/uP8Aj3n/AN/v/kYq6PUrf9KXB4T/&#xA;ANxB/wAe8/8APL/kYq681K3+sWPwT7Tt/wAe8/8AviX/ACMVdqupW50u8HCf+4k/495/5D/kYqi/&#xA;0nbfyT/9I8//ADRiqE03UrcW7/BP/f3H/HvP/v8Af/IxV0epW/6UuDwn/uIP+Pef+eX/ACMVdJqV&#xA;v+lLc8J/7if/AI95/wCeL/IxV2palbm3T4J/7+3/AOPef/f6f5GKov8ASdt/JP8A9I8//NGKoTSt&#xA;StxpdmOE/wDcR/8AHvP/ACD/ACMVdZ6lb/WL74J951/495/98Rf5GKo6G9hmfgiyg9avDKg+91UY&#xA;qgf8Tad/vm+/7h99/wBUcVQuleZNOGl2YMN9UQRjbT70j7A7iHFXWfmTThcXx9G+3nUj/cfe/wC+&#xA;Ix/vnFXSeZNO/SlufRvqCCYf8c+9ru8Xb0cVdqXmTTjboBDff39ud9PvR0nQ94cVVrnzdo1rby3N&#xA;wt5DbwqZJZXsL1VVFFWZiYdgBiqQaT5t1a7021+r2U2mwCFBHLd6fqFzM4CgVMEMcSIG6r++Jp1U&#xA;HbFVn+MNQ0ua7vbwPeaclwv170tL1C1eGL0Y+Vxyf1lZYxu6HieNWBJAVlU8k8yad+lLc+jfUEEw&#xA;/wCOfe13eLt6OKuvPMmnG4sT6N9tOxP+4+9/3xIP984qxv8AMXz5q2ia9pWk29mraXfQmfU7uWPn&#xA;SFrq3tGRB69sysPrQqyrIwqvwHfFVb8r/Per+Z7S4uNT+qsDZWGpwCxjkHpJqEckn1WXlJMZJYPT&#xA;ozKFrX7AxVPtN8yacLdwYb7+/uDtp96es7ntDiro/MmnfpS4Po31DBCP+Ofe12eXt6OKuvPMmnG4&#xA;sT6N9tOxP+4+9/3xIP8AfOKu1XzJpx0u8AhvqmCQb6fegfYPcw4qiv8AE2nf75vv+4fff9UcVQum&#xA;+ZNOFu4MN9/f3B20+9PWdz2hxV0fmTTv0pcH0b6hghH/ABz72uzy9vRxV0nmTTv0pbn0b6ggmH/H&#xA;Pva7vF29HFXal5k0426AQ339/bnfT70dJ0PeHFUV/ibTv9833/cPvv8AqjiqF0rzJpw0uzBhvqiC&#xA;MbafekfYHcQ4q6z8yacLi+Po3286kf7j73/fEY/3ziqY2etWd3MIYo7pXIJrNaXUCbf5csaL+OKq&#xA;n6Ttv5J/+kef/mjFUJpWpW40uzHCf+4j/wCPef8AkH+RirrPUrf6xffBPvOv/HvP/viL/IxV0mpW&#xA;/wClLc8J/wC4n/495/54v8jFXalqVubdPgn/AL+3/wCPef8A3+n+RiqB8yajbT/ouwKT8Ly/i9Q/&#xA;V5tltla8pQpuGNsEPscVR2lalbjS7McJ/wC4j/495/5B/kYq1bX9m8uoJJFM8bzAMjW0xBBgjBBH&#xA;DFUn0y5/RWv2ukmW4udP+ozvp5lt5jNEsMkCNE7cAZFUOnBiOXXkxNDiqc3mpW/1ix+Cfadv+Pef&#xA;/fEv+Riqjrcukz2pup7Mz3Ngrz2Us1nJI0MyqSJIy8Z4sKdRiqIsjotj6v1KyNr68hmn9Gzlj5yN&#xA;1d+MY5MadTiq3TdStxbv8E/9/cf8e8/+/wB/8jFXR6lb/pS4PCf+4g/495/55f8AIxV15qVv9Ysf&#xA;gn2nb/j3n/3xL/kYq7VdStzpd4OE/wDcSf8AHvP/ACH/ACMVRf6Ttv5J/wDpHn/5oxVCabqVuLd/&#xA;gn/v7j/j3n/3+/8AkYq6PUrf9KXB4T/3EH/HvP8Azy/5GKuk1K3/AEpbnhP/AHE//HvP/PF/kYq7&#xA;UtStzbp8E/8Af2//AB7z/wC/0/yMVRf6Ttv5J/8ApHn/AOaMVQmlalbjS7McJ/7iP/j3n/kH+Rir&#xA;rPUrf6xffBPvOv8Ax7z/AO+Iv8jFUdDewzPwRZQetXhlQfe6qMVQP6Z1H/qw33/B2P8A2U4qhdK1&#xA;jURpdmBoV8QII9w9lQ/APG5xV1nrGo/WL7/cFfGs61HOy2/cR/8ALzirpNY1H9KW5/QV9X0Jtudl&#xA;X7cX/LzirtS1jUTbpXQr4fv7fcvZf7/TwucVQMOtX9/5kkuI9FvWg0mJ7SgeyNbm49OSStbmn7uN&#xA;EAI/nYdsVR2laxqI0uzA0K+IEEe4eyofgHjc4q6z1jUfrF9/uCvjWdajnZbfuI/+XnFUs8wNqGqS&#xA;n0NDvYtSsbeSTTrn1LJXhuJto3DC5O1YiGG4ZTQgjbFUVD5oudQh0u8g0O+9OWVjxL2QYMIZVdGH&#xA;1moZGBDA9CCOuKpd+YnnXUtDv9A06106Wa21W8t4dTu2t55oY7aadIGiDQqy+vJ6tVBNKKe5UFVQ&#xA;/KzztrnmS3vJNTe2uXW1sb5Us14/V5L2ORpLByZHDSW7RULEqd9wMVZDpusaiLd6aFfH9/cbh7L/&#xA;AH+/jc4q6PWNR/Slwf0FfV9CHbnZV+3L/wAvOKuvNY1H6xY/7gr4Unag52W/7iT/AJecVdqusaid&#xA;LvAdCvgDBJuXsqD4D4XOKor9M6j/ANWG+/4Ox/7KcVQum6xqIt3poV8f39xuHsv9/v43OKuj1jUf&#xA;0pcH9BX1fQh252Vfty/8vOKuk1jUf0pbn9BX1fQm252Vftxf8vOKu1LWNRNuldCvh+/t9y9l/v8A&#xA;TwucVRX6Z1H/AKsN9/wdj/2U4qhdK1jURpdmBoV8QII9w9lQ/APG5xV1nrGo/WL7/cFfGs61HOy2&#xA;/cR/8vOKpjZ6jeTzCOXS7q0ShPrTNalNu37qaVt/9XFVT67c/wDLBP8A8FB/1VxVCaVeXH6Ls/8A&#xA;QZz+4j35QfyD/i3FXWd5cfWL7/QZ/wC/X9qD/fEX/FuKukvLj9KW/wDoM/8AcT7coP54v+LcVSvz&#xA;RreqlrXStOs5I765eOV7iT0XWCGOaNfU4CX4nMjqqKStfiNfhIKqaaXCNMsIrK2sLn0ogau7wM7u&#xA;zF3kdvU+J3dizHuSTirtKvLj9F2f+gzn9xHvyg/kH/FuKus7y4+sX3+gz/36/tQf74i/4txV0d5c&#xA;fpS4/wBBn/uINuUH88v/ABbiqUw3E1t5mntorGYRSyw3xjrDtLPDcxScR6lAG+rhj/lFj1O6qa6t&#xA;dTHTblm0+YtHG0kbEwHi6Asrj95sVIqDiqvDJ6BkMOlyRGVjJKU+rrydurNSTcnxxVR028uPq7/6&#xA;DOf39x+1B/v9/wDi3FXR3lx+lLj/AEGf+4g25Qfzy/8AFuKuvLy4+sWP+gz/AN+37UH++Jf+LcVd&#xA;qt5cfou8/wBBnH7iTflB/If+LcVRf125/wCWCf8A4KD/AKq4qhNNvLj6u/8AoM5/f3H7UH+/3/4t&#xA;xV0d5cfpS4/0Gf8AuINuUH88v/FuKukvLj9KW/8AoM/9xPtyg/ni/wCLcVdqV5cfV0/0Gcfv7f8A&#xA;ag/3+n/FuKov67c/8sE//BQf9VcVQmlXlx+i7P8A0Gc/uI9+UH8g/wCLcVdZ3lx9Yvv9Bn/v1/ag&#xA;/wB8Rf8AFuKo6G5mkfi9rLEP53MRH/COx/DFUD+mdR/6sN9/wdj/ANlOKpDZ+YfOjabaLZeVJRH6&#xA;MYE1zd2isPhADCKOSTl409RcVULO889W11d3EVlc6jK0wFzZT/ULWCphjoYHjmmljp4OZajuDviq&#xA;rJrHnwajBL+hAzmGalnygWg5RV/0j603L5+iPliq9bjzAks+oaho9ybm6eyhEMDWYijjguCyrya6&#xA;LO5aZqtRR0FNqlVPf0zqP/Vhvv8Ag7H/ALKcVQulaxqI0uzA0K+IEEe4eyofgHjc4q6z1jUfrF9/&#xA;uCvjWdajnZbfuI/+XnFXR6xqP6UuD+gr6voQ7c7Kv25f+XnFUq1m61+PXdP1Ww0K7eRz9WvLWWWy&#xA;RZI0jmeNkcTvR4zI+3RgxruBiqzzz5n1qw1DQtOsGtBPqzhZtKuEaWeWMPGLgmRZI44IoYXflIeV&#xA;X4KoNaMqhvyt8+az5nsbm4v/AKtcSfUrHUYo7JSnpNfxSO1i5eRw0kBjoWJWtd1GKoyw8w+ehbv6&#xA;flKoM89C2oW4pWZ+oAPT54q6HX/PEeqz8/K7XCmGHkyXdtE4HOXojSOp7/tjFVG41r8xUn0+aTQE&#xA;n5S1axEkEBjYwyclFz9ZnEvEE0rDHWnatAqqar5g8+HT7snypSIxSAob635BOB+PkCQW/wAin+yx&#xA;VFxa/wCelkWS48rs8DH95BBc2vqRgd1eSZFm5eBWOni2KrtO8y6yLdwPKmqt++nNRLpfeZzTe+HT&#xA;FVKHzJ5mGqTs/lK9IMMIZY7nT2cDlLQgNcIp/wCCxVdceZfMH6QhMPlPUjN6E4RZZ9MRCecW7Ml3&#xA;KQNuyk+2KuvvM2utaR+r5S1RH9aDlxm0tlqJkPwn66Ca9qge9MVXP5j88FyYfKD+n+z61/ao/wBK&#xA;oZV+5jiqzSPM3mGPSbX6x5T1A8YI/jt59PlQgINxzuYpD8uGKonSfMN7cG7nj0HUVWSYELJ9Uicf&#xA;uYxRkkuFYdPDFU2s9RvJ5hHLpd1aJQn1pmtSm3b91NK2/wDq4qqfXbn/AJYJ/wDgoP8AqriqE0q8&#xA;uP0XZ/6DOf3Ee/KD+Qf8W4q6zvLj6xff6DP/AH6/tQf74i/4txV0l5cfpS3/ANBn/uJ9uUH88X/F&#xA;uKu1K8uPq6f6DOP39v8AtQf7/T/i3FUX9duf+WCf/goP+quKoTSry4/Rdn/oM5/cR78oP5B/xbir&#xA;rO8uPrF9/oM/9+v7UH++Iv8Ai3FXR3lx+lLj/QZ/7iDblB/PL/xbirry8uPrFj/oM/8Aft+1B/vi&#xA;X/i3FUNrsFrc2c1zc6N61xbwyGCeVLZ3jIUsCrM5Iod9sVRtqsVoJBaaQ1uJnMswiFsnORvtO3GQ&#xA;VY9ycVU9NvLj6u/+gzn9/cftQf7/AH/4txV0d5cfpS4/0Gf+4g25Qfzy/wDFuKuvLy4+sWP+gz/3&#xA;7ftQf74l/wCLcVdqt5cfou8/0GcfuJN+UH8h/wCLcVRf125/5YJ/+Cg/6q4qhNNvLj6u/wDoM5/f&#xA;3H7UH+/3/wCLcVdHeXH6UuP9Bn/uINuUH88v/FuKukvLj9KW/wDoM/8AcT7coP54v+LcVdqV5cfV&#xA;0/0Gcfv7f9qD/f6f8W4qi/rtz/ywT/8ABQf9VcVQmlXlx+i7P/QZz+4j35QfyD/i3FXWd5cfWL7/&#xA;AEGf+/X9qD/fEX/FuKo6G5mkfi9rLEP53MRH/COx/DFUD+mdR/6sN9/wdj/2U4qoWOpapBZW8D6F&#xA;el4o0RiHsaVVQDStzirrfUtUjluXbQr0iaQOtHsegjRN/wDSfFMVc+paob2KcaFe8I45EI52Nauy&#xA;Ef8AHz/kHFXXmpapNEqLoV6CJIn3ex6RyK5/4+fBcVV/0zqP/Vhvv+Dsf+ynFVCx1LVILK3gfQr0&#xA;vFGiMQ9jSqqAaVucVdb6lqkcty7aFekTSB1o9j0EaJv/AKT4pirk1LVBeyznQr3hJHGgHOxrVGcn&#xA;/j5/yxirrjUtUkltnXQr0CGQu1XsehjdNv8ASfF8VQvn+51SLywJbAXMTPd2K3zWiGW5is3u4lu2&#xA;RYxISVgL8igJAqV3AxVV8h3OsTeTNNn1YTSX5iYsZ09K4kQOwhaVHEfGR4gpYMBRuuKqtnqWqQxM&#xA;jaFekmSV9nsekkjOP+PnwbFXJqWqC9lnOhXvCSONAOdjWqM5P/Hz/ljFXXGpapJLbOuhXoEMhdqv&#xA;Y9DG6bf6T4virr7UtUnsriBNCvQ8sbopL2NKspArS5xVX/TOo/8AVhvv+Dsf+ynFVCz1LVIYmRtC&#xA;vSTJK+z2PSSRnH/Hz4Nirk1LVBeyznQr3hJHGgHOxrVGcn/j5/yxirn1LVDexTjQr3hHHIhHOxrV&#xA;2Qj/AI+f8g4q681LVJolRdCvQRJE+72PSORXP/Hz4Liqv+mdR/6sN9/wdj/2U4qoWOpapBZW8D6F&#xA;el4o0RiHsaVVQDStzirrfUtUjluXbQr0iaQOtHsegjRN/wDSfFMVR1nqN5PMI5dLurRKE+tM1qU2&#xA;7fuppW3/ANXFX//Z</xmpGImg:image>
               </rdf:li>
            </rdf:Alt>
         </xmp:Thumbnails>
      </rdf:Description>
      <rdf:Description rdf:about=""
            xmlns:xmpMM="http://ns.adobe.com/xap/1.0/mm/"
            xmlns:stRef="http://ns.adobe.com/xap/1.0/sType/ResourceRef#"
            xmlns:stEvt="http://ns.adobe.com/xap/1.0/sType/ResourceEvent#">
         <xmpMM:DocumentID>xmp.did:42C0730B3B20681188C69098C6AB8D67</xmpMM:DocumentID>
         <xmpMM:InstanceID>xmp.iid:42C0730B3B20681188C69098C6AB8D67</xmpMM:InstanceID>
         <xmpMM:OriginalDocumentID>uuid:88A57CB5F225DF118833972942CE57BD</xmpMM:OriginalDocumentID>
         <xmpMM:DerivedFrom rdf:parseType="Resource">
            <stRef:instanceID>uuid:9e6516f5-c0b9-4425-a371-b210cf0bde41</stRef:instanceID>
            <stRef:documentID>uuid:88A57CB5F225DF118833972942CE57BD</stRef:documentID>
            <stRef:originalDocumentID>uuid:88A57CB5F225DF118833972942CE57BD</stRef:originalDocumentID>
         </xmpMM:DerivedFrom>
         <xmpMM:History>
            <rdf:Seq>
               <rdf:li rdf:parseType="Resource">
                  <stEvt:action>saved</stEvt:action>
                  <stEvt:instanceID>xmp.iid:42C0730B3B20681188C69098C6AB8D67</stEvt:instanceID>
                  <stEvt:when>2015-02-12T16:49:02+02:00</stEvt:when>
                  <stEvt:softwareAgent>Adobe Illustrator CS5.1</stEvt:softwareAgent>
                  <stEvt:changed>/</stEvt:changed>
               </rdf:li>
            </rdf:Seq>
         </xmpMM:History>
      </rdf:Description>
      <rdf:Description rdf:about=""
            xmlns:xmpTPg="http://ns.adobe.com/xap/1.0/t/pg/"
            xmlns:stDim="http://ns.adobe.com/xap/1.0/sType/Dimensions#"
            xmlns:xmpG="http://ns.adobe.com/xap/1.0/g/">
         <xmpTPg:MaxPageSize rdf:parseType="Resource">
            <stDim:w>326.232422</stDim:w>
            <stDim:h>422.679688</stDim:h>
            <stDim:unit>Pixels</stDim:unit>
         </xmpTPg:MaxPageSize>
         <xmpTPg:NPages>1</xmpTPg:NPages>
         <xmpTPg:HasVisibleTransparency>False</xmpTPg:HasVisibleTransparency>
         <xmpTPg:HasVisibleOverprint>False</xmpTPg:HasVisibleOverprint>
         <xmpTPg:PlateNames>
            <rdf:Seq>
               <rdf:li>Cyan</rdf:li>
               <rdf:li>Magenta</rdf:li>
               <rdf:li>Yellow</rdf:li>
               <rdf:li>Black</rdf:li>
            </rdf:Seq>
         </xmpTPg:PlateNames>
         <xmpTPg:SwatchGroups>
            <rdf:Seq>
               <rdf:li rdf:parseType="Resource">
                  <xmpG:groupName>Default Swatch Group</xmpG:groupName>
                  <xmpG:groupType>0</xmpG:groupType>
               </rdf:li>
            </rdf:Seq>
         </xmpTPg:SwatchGroups>
      </rdf:Description>
   </rdf:RDF>
</x:xmpmeta>
                                                                                                    
                                                                                                    
                                                                                                    
                                                                                                    
                                                                                                    
                                                                                                    
                                                                                                    
                                                                                                    
                                                                                                    
                                                                                                    
                                                                                                    
                                                                                                    
                                                                                                    
                                                                                                    
                                                                                                    
                                                                                                    
                                                                                                    
                                                                                                    
                                                                                                    
                                                                                                    
                           
<?xpacket end="w"?>
	</metadata>
<g id="Layer_1_1_">
</g>
<g id="Layer_4">
	<g>
		<line fill="none" stroke="#000000" stroke-width="0.485" x1="1.387" y1="0" x2="325.984" y2="0"/>
		<line fill="none" stroke="#000000" stroke-width="0.485" x1="1.387" y1="8.06" x2="325.984" y2="8.06"/>
		<line fill="none" stroke="#000000" stroke-width="0.9701" x1="1.387" y1="16.118" x2="325.984" y2="16.118"/>
		<line fill="none" stroke="#000000" stroke-width="0.485" x1="1.387" y1="24.178" x2="325.984" y2="24.178"/>
		<line fill="none" stroke="#000000" stroke-width="0.485" x1="1.387" y1="32.357" x2="325.984" y2="32.357"/>
		<line fill="none" stroke="#000000" stroke-width="0.485" x1="1.387" y1="40.416" x2="325.984" y2="40.416"/>
		<line fill="none" stroke="#000000" stroke-width="0.9701" x1="1.387" y1="48.475" x2="325.984" y2="48.475"/>
		<line fill="none" stroke="#000000" stroke-width="0.485" x1="1.387" y1="56.534" x2="325.984" y2="56.534"/>
		<line fill="none" stroke="#000000" stroke-width="0.485" x1="1.387" y1="64.593" x2="325.984" y2="64.593"/>
		<line fill="none" stroke="#000000" stroke-width="0.485" x1="1.387" y1="72.651" x2="325.984" y2="72.651"/>
		<line fill="none" stroke="#000000" stroke-width="0.9701" x1="1.387" y1="80.711" x2="325.984" y2="80.711"/>
		<line fill="none" stroke="#000000" stroke-width="0.485" x1="1.387" y1="88.77" x2="325.984" y2="88.77"/>
		<line fill="none" stroke="#000000" stroke-width="0.485" x1="1.387" y1="96.829" x2="325.984" y2="96.829"/>
		<line fill="none" stroke="#000000" stroke-width="0.485" x1="1.387" y1="105.008" x2="325.984" y2="105.008"/>
		<line fill="none" stroke="#000000" stroke-width="0.9701" x1="1.387" y1="113.068" x2="325.984" y2="113.068"/>
		<line fill="none" stroke="#000000" stroke-width="0.485" x1="1.387" y1="121.127" x2="325.984" y2="121.127"/>
		<line fill="none" stroke="#000000" stroke-width="0.485" x1="1.387" y1="129.186" x2="325.984" y2="129.186"/>
		<line fill="none" stroke="#000000" stroke-width="0.485" x1="1.387" y1="137.245" x2="325.984" y2="137.245"/>
		<line fill="none" stroke="#000000" stroke-width="0.9701" x1="1.387" y1="145.304" x2="325.984" y2="145.304"/>
		<line fill="none" stroke="#000000" stroke-width="0.485" x1="1.387" y1="153.363" x2="325.984" y2="153.363"/>
		<line fill="none" stroke="#000000" stroke-width="0.485" x1="1.387" y1="161.422" x2="325.984" y2="161.422"/>
		<line fill="none" stroke="#000000" stroke-width="0.485" x1="1.387" y1="169.481" x2="325.984" y2="169.481"/>
		<line fill="none" stroke="#000000" stroke-width="0.9701" x1="1.387" y1="177.66" x2="325.984" y2="177.66"/>
		<line fill="none" stroke="#000000" stroke-width="0.485" x1="1.387" y1="185.719" x2="325.984" y2="185.719"/>
		<line fill="none" stroke="#000000" stroke-width="0.485" x1="1.387" y1="193.779" x2="325.984" y2="193.779"/>
		<line fill="none" stroke="#000000" stroke-width="0.485" x1="1.387" y1="201.837" x2="325.984" y2="201.837"/>
		<line fill="none" stroke="#000000" stroke-width="0.9701" x1="1.387" y1="209.897" x2="325.984" y2="209.897"/>
		<line fill="none" stroke="#000000" stroke-width="0.485" x1="1.387" y1="217.955" x2="325.984" y2="217.955"/>
		<line fill="none" stroke="#000000" stroke-width="0.485" x1="1.387" y1="226.016" x2="325.984" y2="226.016"/>
		<line fill="none" stroke="#000000" stroke-width="0.485" x1="1.387" y1="234.072" x2="325.984" y2="234.072"/>
		<line fill="none" stroke="#000000" stroke-width="0.9701" x1="1.387" y1="242.133" x2="325.984" y2="242.133"/>
		<line fill="none" stroke="#000000" stroke-width="0.485" x1="1.387" y1="250.312" x2="325.984" y2="250.312"/>
		<line fill="none" stroke="#000000" stroke-width="0.485" x1="1.387" y1="258.371" x2="325.984" y2="258.371"/>
		<g>
			<line fill="none" stroke="#000000" stroke-width="0.485" x1="1.458" y1="0" x2="1.458" y2="257.527"/>
			<line fill="none" stroke="#000000" stroke-width="0.485" x1="17.696" y1="0" x2="17.696" y2="257.527"/>
			<line fill="none" stroke="#000000" stroke-width="0.485" x1="33.935" y1="0" x2="33.935" y2="257.527"/>
			<line fill="none" stroke="#000000" stroke-width="0.485" x1="50.173" y1="0" x2="50.173" y2="257.527"/>
			<line fill="none" stroke="#000000" stroke-width="0.485" x1="66.412" y1="0" x2="66.412" y2="257.527"/>
			<line fill="none" stroke="#000000" stroke-width="0.485" x1="82.65" y1="0" x2="82.65" y2="257.527"/>
			<line fill="none" stroke="#000000" stroke-width="0.485" x1="98.888" y1="0" x2="98.888" y2="257.527"/>
			<line fill="none" stroke="#000000" stroke-width="0.485" x1="115.126" y1="0" x2="115.126" y2="257.527"/>
			<line fill="none" stroke="#000000" stroke-width="0.485" x1="131.365" y1="0" x2="131.365" y2="257.527"/>
			<line fill="none" stroke="#000000" stroke-width="0.485" x1="147.483" y1="0" x2="147.483" y2="257.527"/>
			<line fill="none" stroke="#000000" stroke-width="0.485" x1="163.721" y1="0" x2="163.721" y2="257.527"/>
			<line fill="none" stroke="#000000" stroke-width="0.485" x1="179.96" y1="0" x2="179.96" y2="257.527"/>
			<line fill="none" stroke="#000000" stroke-width="0.485" x1="196.199" y1="0" x2="196.199" y2="257.527"/>
			<line fill="none" stroke="#000000" stroke-width="0.485" x1="212.436" y1="0" x2="212.436" y2="257.527"/>
			<line fill="none" stroke="#000000" stroke-width="0.485" x1="228.675" y1="0" x2="228.675" y2="257.527"/>
			<line fill="none" stroke="#000000" stroke-width="0.485" x1="244.913" y1="0" x2="244.913" y2="257.527"/>
			<line fill="none" stroke="#000000" stroke-width="0.485" x1="261.153" y1="0" x2="261.153" y2="257.527"/>
			<line fill="none" stroke="#000000" stroke-width="0.485" x1="277.39" y1="0" x2="277.39" y2="257.527"/>
			<line fill="none" stroke="#000000" stroke-width="0.485" x1="293.627" y1="0" x2="293.627" y2="257.527"/>
			<line fill="none" stroke="#000000" stroke-width="0.485" x1="309.867" y1="0" x2="309.867" y2="257.527"/>
			<line fill="none" stroke="#000000" stroke-width="0.485" x1="325.984" y1="0" x2="325.984" y2="257.527"/>
		</g>
		<line fill="none" stroke="#000000" stroke-width="0.485" x1="14.449" y1="288.081" x2="14.209" y2="417.508"/>
		<line fill="none" stroke="#000000" stroke-width="0.485" x1="30.808" y1="288.081" x2="30.567" y2="417.508"/>
		<line fill="none" stroke="#000000" stroke-width="0.485" x1="47.167" y1="288.081" x2="46.926" y2="417.508"/>
		<line fill="none" stroke="#000000" stroke-width="0.485" x1="63.404" y1="288.081" x2="63.164" y2="417.508"/>
		<line fill="none" stroke="#000000" stroke-width="0.485" x1="79.763" y1="288.081" x2="79.523" y2="417.508"/>
		<line fill="none" stroke="#000000" stroke-width="0.485" x1="96.122" y1="288.081" x2="95.881" y2="417.508"/>
		<line fill="none" stroke="#000000" stroke-width="0.485" x1="112.48" y1="288.081" x2="112.239" y2="417.508"/>
		<line fill="none" stroke="#000000" stroke-width="0.485" x1="128.719" y1="288.081" x2="128.479" y2="417.508"/>
		<line fill="none" stroke="#000000" stroke-width="0.485" x1="145.078" y1="288.081" x2="144.837" y2="417.508"/>
		<line fill="none" stroke="#000000" stroke-width="0.485" x1="161.437" y1="288.081" x2="161.196" y2="417.508"/>
		<line fill="none" stroke="#000000" stroke-width="0.485" x1="177.793" y1="288.081" x2="177.555" y2="417.508"/>
		<line fill="none" stroke="#000000" stroke-width="0.485" x1="194.033" y1="288.081" x2="193.792" y2="417.508"/>
		<line fill="none" stroke="#000000" stroke-width="0.485" x1="210.393" y1="288.081" x2="210.151" y2="417.508"/>
		<line fill="none" stroke="#000000" stroke-width="0.485" x1="226.75" y1="288.081" x2="226.51" y2="417.508"/>
		<line fill="none" stroke="#000000" stroke-width="0.485" x1="243.11" y1="288.081" x2="242.869" y2="417.508"/>
		<line fill="none" stroke="#000000" stroke-width="0.485" x1="259.347" y1="288.081" x2="259.108" y2="417.508"/>
		<line fill="none" stroke="#000000" stroke-width="0.485" x1="275.707" y1="288.081" x2="275.466" y2="417.508"/>
		<line fill="none" stroke="#000000" stroke-width="0.485" x1="292.065" y1="288.081" x2="291.825" y2="417.508"/>
		<line fill="none" stroke="#000000" stroke-width="0.485" x1="308.423" y1="288.081" x2="308.183" y2="417.508"/>
		<g>
			<line fill="none" stroke="#000000" stroke-width="0.9701" x1="0" y1="288.323" x2="325.984" y2="288.323"/>
			<line fill="none" stroke="#000000" stroke-width="0.485" x1="0" y1="301.312" x2="325.984" y2="301.312"/>
			<line fill="none" stroke="#000000" stroke-width="0.9701" x1="0" y1="314.425" x2="325.984" y2="314.425"/>
			<line fill="none" stroke="#000000" stroke-width="0.485" x1="0" y1="327.414" x2="325.984" y2="327.414"/>
			<line fill="none" stroke="#000000" stroke-width="0.9701" x1="0" y1="340.405" x2="325.984" y2="340.405"/>
			<line fill="none" stroke="#000000" stroke-width="0.485" x1="0" y1="353.395" x2="325.984" y2="353.395"/>
			<line fill="none" stroke="#000000" stroke-width="0.9701" x1="0" y1="366.267" x2="325.984" y2="366.267"/>
			<line fill="none" stroke="#000000" stroke-width="0.485" x1="0" y1="379.256" x2="325.984" y2="379.256"/>
			<line fill="none" stroke="#000000" stroke-width="0.9701" x1="0" y1="392.249" x2="325.984" y2="392.249"/>
			<line fill="none" stroke="#000000" stroke-width="0.485" x1="0" y1="405.238" x2="325.984" y2="405.238"/>
			<line fill="none" stroke="#000000" stroke-width="0.9701" x1="0" y1="418.229" x2="325.984" y2="418.229"/>
		</g>
		<g>
			<rect x="136.417" y="11.187" fill="#FFFFFF" width="22.013" height="11.428"/>
			<rect x="135.816" y="41.498" fill="#FFFFFF" width="22.132" height="11.428"/>
			<rect x="136.898" y="74.336" fill="#FFFFFF" width="22.012" height="11.308"/>
			<rect x="136.778" y="106.572" fill="#FFFFFF" width="22.132" height="11.427"/>
			<rect x="136.298" y="138.448" fill="#FFFFFF" width="22.012" height="11.307"/>
			<rect x="135.816" y="171.766" fill="#FFFFFF" width="22.012" height="11.307"/>
			<rect x="136.778" y="203.041" fill="#FFFFFF" width="22.012" height="11.307"/>
			<rect x="136.298" y="236.239" fill="#FFFFFF" width="22.012" height="11.427"/>
			<path d="M143.273,20.329v1.083h-6.134c0-0.361,0.118-0.602,0.118-0.842c0.241-0.361,0.482-0.842,0.843-1.203
				c0.24-0.362,0.843-0.843,1.443-1.444c0.962-0.842,1.685-1.443,2.045-1.924c0.361-0.481,0.48-0.963,0.48-1.444
				c0-0.361-0.119-0.723-0.48-1.083c-0.24-0.361-0.723-0.482-1.204-0.482c-0.601,0-0.962,0.121-1.322,0.482
				c-0.361,0.36-0.481,0.842-0.481,1.444l-1.203-0.121c0.12-0.963,0.361-1.563,0.961-2.044c0.482-0.481,1.203-0.722,2.045-0.722
				c0.964,0,1.564,0.24,2.166,0.722c0.481,0.601,0.723,1.202,0.723,1.924c0,0.361,0,0.723-0.241,1.083
				c-0.12,0.36-0.361,0.722-0.722,1.083c-0.36,0.481-0.961,0.962-1.805,1.684c-0.602,0.602-1.083,0.963-1.323,1.083
				c-0.12,0.24-0.36,0.481-0.48,0.722L143.273,20.329L143.273,20.329z"/>
			<path d="M147.604,12.029c0.48,0,0.843,0.119,1.204,0.361c0.48,0.119,0.721,0.481,0.962,0.842c0.24,0.361,0.479,0.842,0.601,1.323
				c0.121,0.601,0.241,1.323,0.241,2.286c0,1.083-0.12,1.924-0.362,2.646c-0.24,0.601-0.6,1.083-0.961,1.442
				c-0.48,0.482-1.083,0.602-1.685,0.602v-0.962c0.48,0,0.962-0.241,1.204-0.723c0.359-0.48,0.6-1.563,0.6-3.006
				c0-1.564-0.24-2.526-0.6-3.127c-0.242-0.481-0.724-0.723-1.204-0.723V12.029z M144.476,16.84c0-1.083,0.12-2.045,0.36-2.646
				c0.241-0.722,0.602-1.204,1.083-1.563c0.36-0.361,0.962-0.601,1.685-0.601l0,0v0.961h-0.12c-0.481,0-0.842,0.242-1.204,0.723
				c-0.36,0.481-0.601,1.563-0.601,3.127c0,1.443,0.24,2.526,0.601,3.006c0.362,0.482,0.723,0.723,1.324,0.723l0,0v0.962l0,0
				c-0.962,0-1.685-0.361-2.166-0.962C144.837,19.847,144.476,18.524,144.476,16.84z"/>
			<path d="M154.7,12.029c0.603,0,0.962,0.119,1.323,0.361c0.361,0.119,0.723,0.481,0.963,0.842c0.241,0.361,0.48,0.842,0.602,1.323
				c0.12,0.601,0.24,1.323,0.24,2.286c0,1.083-0.12,1.924-0.36,2.646c-0.24,0.601-0.603,1.083-1.082,1.442
				c-0.362,0.482-0.964,0.602-1.686,0.602v-0.962c0.603,0,0.962-0.241,1.323-0.723c0.362-0.48,0.603-1.563,0.603-3.006
				c0-1.564-0.24-2.526-0.603-3.127c-0.36-0.481-0.721-0.723-1.323-0.723V12.029L154.7,12.029z M151.693,16.84
				c0-1.083,0.121-2.045,0.361-2.646c0.24-0.722,0.602-1.204,0.963-1.563c0.48-0.361,1.083-0.601,1.684-0.601l0,0v0.961l0,0
				c-0.481,0-0.842,0.242-1.203,0.723c-0.36,0.481-0.602,1.563-0.602,3.127c0,1.443,0.241,2.526,0.48,3.006
				c0.362,0.482,0.842,0.723,1.324,0.723l0,0v0.962l0,0c-0.842,0-1.563-0.361-2.044-0.962
				C152.054,19.847,151.693,18.524,151.693,16.84z"/>
			<path d="M141.59,52.084h-1.083v-7.218c-0.36,0.24-0.722,0.481-1.083,0.722c-0.48,0.241-0.842,0.481-1.202,0.601v-1.083
				c0.602-0.36,1.202-0.721,1.684-1.082c0.481-0.481,0.722-0.842,0.962-1.323h0.723V52.084L141.59,52.084z"/>
			<path d="M147.604,42.702c0.722,0.12,1.443,0.24,1.925,0.721c0.479,0.481,0.721,1.083,0.721,1.804
				c0,0.361-0.119,0.721-0.359,1.083c-0.24,0.361-0.602,0.601-0.963,0.722c0.48,0.24,0.963,0.481,1.203,0.962
				c0.361,0.361,0.481,0.842,0.481,1.444c0,0.722-0.241,1.443-0.842,2.044c-0.603,0.481-1.323,0.722-2.166,0.722l0,0v-0.962l0,0
				c0.48,0,0.962-0.121,1.323-0.481c0.361-0.36,0.48-0.842,0.48-1.323c0-0.602-0.119-0.963-0.48-1.323
				c-0.361-0.362-0.843-0.602-1.323-0.602v-0.962l0,0c0.36,0,0.722-0.121,1.083-0.362c0.24-0.241,0.36-0.601,0.36-0.962
				c0-0.48-0.121-0.842-0.36-1.082c-0.361-0.362-0.723-0.482-1.083-0.482V42.702z M146.28,47.032
				c-0.48-0.121-0.842-0.361-1.083-0.722c-0.24-0.362-0.36-0.722-0.36-1.204c0-0.601,0.241-1.202,0.723-1.684
				c0.479-0.481,1.203-0.721,2.044-0.721l0,0v0.962c-0.481,0-0.842,0.12-1.083,0.482c-0.36,0.24-0.481,0.601-0.481,0.961
				c0,0.482,0.121,0.842,0.481,1.083c0.241,0.241,0.602,0.362,1.083,0.362v0.962h-0.12c-0.481,0-0.962,0.24-1.323,0.602
				c-0.361,0.36-0.48,0.721-0.48,1.323c0,0.24,0.12,0.602,0.24,0.962c0.12,0.24,0.36,0.481,0.723,0.601
				c0.239,0.241,0.601,0.241,0.962,0.241v0.962c-0.962,0-1.685-0.241-2.285-0.842c-0.481-0.481-0.843-1.203-0.843-1.924
				c0-0.602,0.239-1.203,0.48-1.563C145.319,47.513,145.679,47.152,146.28,47.032z"/>
			<path d="M154.7,42.702c0.603,0,0.962,0.12,1.323,0.361c0.361,0.24,0.723,0.481,0.963,0.842c0.241,0.36,0.48,0.842,0.602,1.443
				c0.12,0.482,0.24,1.204,0.24,2.166c0,1.082-0.12,1.925-0.36,2.646c-0.24,0.601-0.603,1.203-1.082,1.563
				c-0.362,0.361-0.964,0.481-1.686,0.481v-0.962c0.603,0,0.962-0.241,1.323-0.722c0.362-0.481,0.603-1.444,0.603-3.007
				c0-1.564-0.24-2.525-0.603-3.007c-0.36-0.601-0.721-0.842-1.323-0.842V42.702L154.7,42.702z M151.693,47.513
				c0-1.083,0.121-2.044,0.361-2.646c0.24-0.721,0.602-1.203,0.963-1.563c0.48-0.361,1.083-0.601,1.684-0.601l0,0v0.962l0,0
				c-0.481,0-0.842,0.241-1.203,0.722c-0.36,0.602-0.602,1.563-0.602,3.127c0,1.563,0.241,2.526,0.48,3.007
				c0.362,0.481,0.842,0.722,1.324,0.722l0,0v0.962l0,0c-0.842,0-1.563-0.241-2.044-0.962
				C152.054,50.52,151.693,49.197,151.693,47.513z"/>
			<path d="M141.59,84.801h-1.083v-7.217c-0.36,0.241-0.722,0.481-1.083,0.842c-0.48,0.241-0.842,0.362-1.202,0.481v-1.082
				c0.602-0.241,1.202-0.602,1.684-1.083c0.481-0.361,0.722-0.842,0.962-1.203h0.723V84.801L141.59,84.801z"/>
			<path d="M150.491,77.824l-1.203,0.121c-0.121-0.482-0.241-0.843-0.362-0.963c-0.36-0.361-0.721-0.481-1.202-0.481h-0.12v-0.962
				c0.12,0,0.12,0,0.241,0c0.721,0,1.322,0.24,1.805,0.602C150.009,76.501,150.37,77.103,150.491,77.824L150.491,77.824z
				 M147.604,78.787c0.12,0,0.12,0,0.241,0c0.721,0,1.443,0.36,1.925,0.842c0.601,0.601,0.842,1.323,0.842,2.165
				c0,0.602-0.12,1.204-0.362,1.685c-0.24,0.48-0.6,0.842-1.082,1.082c-0.359,0.361-0.961,0.481-1.442,0.481h-0.12V84.08h0.12
				c0.481,0,0.842-0.24,1.203-0.601c0.361-0.362,0.48-0.962,0.48-1.563c0-0.602-0.119-1.204-0.48-1.564
				c-0.361-0.362-0.722-0.481-1.323-0.481l0,0L147.604,78.787L147.604,78.787z M147.604,76.501c-0.361,0-0.602,0.12-0.842,0.24
				c-0.361,0.241-0.602,0.722-0.843,1.204c-0.24,0.48-0.36,1.202-0.36,2.165c0.36-0.481,0.602-0.722,1.083-0.963
				c0.239-0.12,0.601-0.241,0.962-0.36v1.082c-0.481,0-0.962,0.12-1.324,0.481c-0.36,0.36-0.48,0.842-0.48,1.443
				c0,0.481,0.12,0.842,0.24,1.204c0.121,0.361,0.361,0.601,0.723,0.842c0.24,0.119,0.601,0.24,0.842,0.24v0.962
				c-0.962,0-1.685-0.361-2.285-1.083c-0.604-0.721-0.843-1.803-0.843-3.487c0-1.805,0.36-3.007,0.962-3.849
				c0.602-0.722,1.324-1.083,2.166-1.083V76.501L147.604,76.501z"/>
			<path d="M154.7,75.539c0.603,0,0.962,0.121,1.323,0.24c0.361,0.241,0.723,0.602,0.963,0.963c0.241,0.361,0.48,0.842,0.602,1.323
				c0.12,0.602,0.24,1.324,0.24,2.166c0,1.083-0.12,2.044-0.36,2.646c-0.24,0.722-0.603,1.203-1.082,1.564
				c-0.362,0.361-0.964,0.602-1.686,0.602v-0.962c0.603,0,0.962-0.24,1.323-0.721c0.362-0.602,0.603-1.564,0.603-3.128
				c0-1.443-0.24-2.526-0.603-3.007c-0.36-0.481-0.721-0.721-1.323-0.721V75.539L154.7,75.539z M151.693,80.23
				c0-1.083,0.121-1.925,0.361-2.646c0.24-0.601,0.602-1.203,0.963-1.564c0.48-0.36,1.083-0.48,1.684-0.48l0,0v0.962l0,0
				c-0.481,0-0.842,0.24-1.203,0.601c-0.36,0.602-0.602,1.685-0.602,3.127c0,1.563,0.241,2.526,0.48,3.128
				c0.362,0.481,0.842,0.721,1.324,0.721l0,0v0.962l0,0c-0.842,0-1.563-0.361-2.044-0.962
				C152.054,83.237,151.693,82.034,151.693,80.23z"/>
			<path d="M141.59,118.12h-1.083v-7.216c-0.36,0.24-0.722,0.48-1.083,0.721c-0.48,0.24-0.842,0.481-1.202,0.602v-1.083
				c0.602-0.361,1.202-0.722,1.684-1.083c0.481-0.481,0.722-0.843,0.962-1.203h0.723V118.12L141.59,118.12z"/>
			<path d="M148.206,118.12v-2.165h-1.443v-1.083h1.443v-4.21l-1.443,2.044v-1.563l1.562-2.285h0.963v6.015h1.323v1.083h-1.323
				v2.165L148.206,118.12L148.206,118.12z M146.762,115.955h-2.646v-1.083l2.646-3.729v1.563l-1.443,2.167h1.443V115.955z"/>
			<path d="M154.7,108.858c0.603,0,0.962,0,1.323,0.241c0.361,0.24,0.723,0.481,0.963,0.842c0.241,0.361,0.48,0.842,0.602,1.443
				c0.12,0.481,0.24,1.204,0.24,2.166c0,1.083-0.12,1.924-0.36,2.646c-0.24,0.602-0.603,1.203-1.082,1.562
				c-0.362,0.362-0.964,0.482-1.686,0.482v-0.962c0.603,0,0.962-0.241,1.323-0.722c0.362-0.482,0.603-1.444,0.603-3.007
				s-0.24-2.526-0.603-3.007c-0.36-0.601-0.721-0.842-1.323-0.842V108.858L154.7,108.858z M151.693,113.549
				c0-1.083,0.121-2.045,0.361-2.646c0.24-0.723,0.602-1.204,0.963-1.564c0.48-0.361,1.083-0.481,1.684-0.481l0,0v0.842l0,0
				c-0.481,0-0.842,0.241-1.203,0.722c-0.36,0.601-0.602,1.564-0.602,3.127s0.241,2.525,0.48,3.007
				c0.362,0.481,0.842,0.722,1.324,0.722l0,0v0.962l0,0c-0.842,0-1.563-0.24-2.044-0.962
				C152.054,116.556,151.693,115.232,151.693,113.549z"/>
			<path d="M141.59,148.913h-1.083v-7.218c-0.36,0.241-0.722,0.481-1.083,0.723c-0.48,0.24-0.842,0.481-1.202,0.6v-1.082
				c0.602-0.361,1.202-0.722,1.684-1.083c0.481-0.481,0.722-0.842,0.962-1.323h0.723V148.913L141.59,148.913z"/>
			<path d="M150.491,147.829v1.084h-6.135c0-0.241,0-0.602,0.121-0.843c0.239-0.361,0.48-0.842,0.843-1.203
				c0.24-0.361,0.842-0.842,1.443-1.444c0.962-0.722,1.685-1.443,2.045-1.924c0.359-0.482,0.48-0.963,0.48-1.324
				c0-0.481-0.121-0.842-0.48-1.202c-0.242-0.241-0.724-0.482-1.204-0.482c-0.602,0-0.962,0.241-1.324,0.482
				c-0.36,0.36-0.48,0.842-0.48,1.443l-1.203-0.121c0.119-0.842,0.36-1.564,0.842-2.045c0.602-0.481,1.324-0.722,2.166-0.722
				c0.843,0,1.562,0.36,2.166,0.842c0.479,0.481,0.722,1.083,0.722,1.804c0,0.361-0.121,0.723-0.242,1.083
				c-0.119,0.361-0.359,0.722-0.721,1.082c-0.361,0.481-0.963,0.962-1.805,1.685c-0.602,0.602-1.082,0.961-1.323,1.203
				c-0.121,0.12-0.361,0.361-0.481,0.601L150.491,147.829L150.491,147.829z"/>
			<path d="M154.7,139.53c0.603,0,0.962,0.12,1.323,0.36c0.361,0.242,0.723,0.482,0.963,0.843c0.241,0.361,0.48,0.842,0.602,1.443
				c0.12,0.482,0.24,1.204,0.24,2.166c0,1.083-0.12,1.925-0.36,2.646c-0.24,0.602-0.603,1.203-1.082,1.564
				c-0.362,0.362-0.964,0.481-1.686,0.481v-0.962c0.603,0,0.962-0.241,1.323-0.722c0.362-0.481,0.603-1.444,0.603-3.007
				c0-1.564-0.24-2.525-0.603-3.007c-0.36-0.601-0.721-0.842-1.323-0.842V139.53L154.7,139.53z M151.693,144.341
				c0-1.082,0.121-2.044,0.361-2.646c0.24-0.721,0.602-1.203,0.963-1.563c0.48-0.361,1.083-0.602,1.684-0.602l0,0v0.962l0,0
				c-0.481,0-0.842,0.241-1.203,0.722c-0.36,0.602-0.602,1.563-0.602,3.127c0,1.563,0.241,2.526,0.48,3.007
				c0.362,0.48,0.842,0.722,1.324,0.722l0,0v0.962l0,0c-0.842,0-1.563-0.24-2.044-0.962
				C152.054,147.349,151.693,146.026,151.693,144.341z"/>
			<path d="M141.59,182.713h-1.083v-7.338c-0.36,0.241-0.722,0.602-1.083,0.842c-0.48,0.241-0.842,0.482-1.202,0.602v-1.083
				c0.602-0.361,1.202-0.721,1.684-1.083c0.481-0.481,0.722-0.842,0.962-1.323h0.723V182.713L141.59,182.713z"/>
			<path d="M147.604,173.33c0.48,0,0.843,0.12,1.204,0.361c0.48,0.12,0.721,0.481,0.962,0.842c0.24,0.361,0.479,0.842,0.601,1.324
				c0.121,0.601,0.241,1.323,0.241,2.285c0,1.083-0.12,1.925-0.362,2.526c-0.24,0.722-0.6,1.204-0.961,1.563
				c-0.48,0.361-1.083,0.601-1.685,0.601v-0.961c0.48,0,0.962-0.242,1.204-0.723c0.359-0.481,0.6-1.563,0.6-3.007
				c0-1.564-0.24-2.646-0.6-3.126c-0.242-0.482-0.724-0.723-1.204-0.723V173.33z M144.476,178.141c0-1.202,0.12-2.044,0.36-2.646
				c0.241-0.721,0.602-1.203,1.083-1.563c0.36-0.361,0.962-0.602,1.685-0.602l0,0v0.962h-0.12c-0.481,0-0.842,0.241-1.204,0.723
				c-0.36,0.48-0.601,1.562-0.601,3.126c0,1.444,0.24,2.526,0.601,3.007c0.362,0.481,0.723,0.723,1.324,0.723l0,0v0.961l0,0
				c-0.962,0-1.685-0.361-2.166-0.961C144.837,181.148,144.476,179.826,144.476,178.141z"/>
			<path d="M154.7,173.33c0.603,0,0.962,0.12,1.323,0.361c0.361,0.12,0.723,0.481,0.963,0.842c0.241,0.361,0.48,0.842,0.602,1.324
				c0.12,0.601,0.24,1.323,0.24,2.285c0,1.083-0.12,1.925-0.36,2.526c-0.24,0.722-0.603,1.204-1.082,1.563
				c-0.362,0.361-0.964,0.601-1.686,0.601v-0.961c0.603,0,0.962-0.242,1.323-0.723c0.362-0.481,0.603-1.563,0.603-3.007
				c0-1.564-0.24-2.646-0.603-3.126c-0.36-0.482-0.721-0.723-1.323-0.723V173.33L154.7,173.33z M151.693,178.141
				c0-1.202,0.121-2.044,0.361-2.646c0.24-0.721,0.602-1.203,0.963-1.563c0.48-0.361,1.083-0.602,1.684-0.602l0,0v0.962l0,0
				c-0.481,0-0.842,0.241-1.203,0.723c-0.36,0.48-0.602,1.562-0.602,3.126c0,1.444,0.241,2.526,0.48,3.007
				c0.362,0.481,0.842,0.723,1.324,0.723l0,0v0.961l0,0c-0.842,0-1.563-0.361-2.044-0.961
				C152.054,181.148,151.693,179.826,151.693,178.141z"/>
			<path d="M147.604,204.604c0.722,0,1.443,0.242,1.925,0.722c0.479,0.481,0.721,1.083,0.721,1.685c0,0.481-0.119,0.842-0.359,1.203
				c-0.24,0.24-0.602,0.481-0.963,0.722c0.48,0.121,0.963,0.481,1.203,0.842c0.361,0.481,0.481,0.963,0.481,1.564
				c0,0.723-0.241,1.444-0.842,1.926c-0.603,0.602-1.323,0.842-2.166,0.842l0,0v-0.963l0,0c0.48,0,0.962-0.119,1.323-0.481
				c0.361-0.36,0.48-0.842,0.48-1.323c0-0.601-0.119-1.083-0.48-1.443c-0.361-0.361-0.843-0.481-1.323-0.481v-0.963l0,0
				c0.36,0,0.722-0.12,1.083-0.36c0.24-0.241,0.36-0.602,0.36-1.083c0-0.362-0.121-0.722-0.36-0.963
				c-0.361-0.36-0.723-0.481-1.083-0.481V204.604z M146.28,208.934c-0.48-0.241-0.842-0.481-1.083-0.722
				c-0.24-0.361-0.36-0.722-0.36-1.203c0-0.601,0.241-1.204,0.723-1.685c0.479-0.48,1.203-0.722,2.044-0.722l0,0v0.962
				c-0.481,0-0.842,0.121-1.083,0.481c-0.36,0.241-0.481,0.601-0.481,0.963c0,0.361,0.121,0.722,0.481,1.083
				c0.241,0.24,0.602,0.36,1.083,0.36v0.963h-0.12c-0.481,0-0.962,0.121-1.323,0.481s-0.48,0.842-0.48,1.323
				c0,0.361,0.12,0.722,0.24,0.964c0.12,0.36,0.36,0.601,0.723,0.721c0.239,0.121,0.601,0.24,0.962,0.24v0.963
				c-0.962,0-1.685-0.24-2.285-0.842c-0.481-0.481-0.843-1.203-0.843-2.046c0-0.602,0.239-1.083,0.48-1.444
				C145.319,209.294,145.679,209.055,146.28,208.934z"/>
			<path d="M154.7,204.604c0.603,0,0.962,0.121,1.323,0.361c0.361,0.121,0.723,0.482,0.963,0.842
				c0.241,0.362,0.48,0.842,0.602,1.324c0.12,0.602,0.24,1.323,0.24,2.286c0,1.083-0.12,1.924-0.36,2.646
				c-0.24,0.602-0.603,1.082-1.082,1.444c-0.362,0.361-0.964,0.601-1.686,0.601v-0.963c0.603,0,0.962-0.24,1.323-0.721
				c0.362-0.48,0.603-1.563,0.603-3.007c0-1.564-0.24-2.527-0.603-3.127c-0.36-0.482-0.721-0.722-1.323-0.722V204.604L154.7,204.604
				z M151.693,209.416c0-1.083,0.121-2.045,0.361-2.646c0.24-0.722,0.602-1.203,0.963-1.564c0.48-0.36,1.083-0.602,1.684-0.602l0,0
				v0.962l0,0c-0.481,0-0.842,0.24-1.203,0.722c-0.36,0.481-0.602,1.563-0.602,3.127c0,1.443,0.241,2.526,0.48,3.007
				c0.362,0.48,0.842,0.721,1.324,0.721l0,0v0.963l0,0c-0.842,0-1.563-0.36-2.044-0.963
				C152.054,212.422,151.693,211.099,151.693,209.416z"/>
			<path d="M150.491,239.729l-1.203,0.119c-0.121-0.479-0.241-0.844-0.362-0.961c-0.36-0.363-0.721-0.603-1.202-0.603l-0.12,0.118
				v-0.961c0.12,0,0.12,0,0.241,0c0.721,0,1.322,0.119,1.805,0.601C150.009,238.402,150.37,239.004,150.491,239.729L150.491,239.729
				z M147.604,240.689c0.12,0,0.12,0,0.241,0c0.721,0,1.443,0.24,1.925,0.84c0.601,0.604,0.842,1.326,0.842,2.166
				c0,0.604-0.12,1.084-0.362,1.685c-0.24,0.481-0.6,0.843-1.082,1.082c-0.359,0.24-0.961,0.363-1.442,0.363h-0.12v-0.843h0.12
				c0.481,0,0.842-0.24,1.203-0.604c0.361-0.361,0.48-0.962,0.48-1.562c0-0.723-0.119-1.203-0.48-1.562
				c-0.361-0.361-0.722-0.604-1.323-0.604l0,0L147.604,240.689L147.604,240.689z M147.604,238.402c-0.361,0-0.602,0.121-0.842,0.242
				c-0.361,0.241-0.602,0.602-0.843,1.201c-0.24,0.482-0.36,1.202-0.36,2.045c0.36-0.361,0.602-0.722,1.083-0.843
				c0.239-0.237,0.601-0.358,0.962-0.358v0.961c-0.481,0.121-0.962,0.24-1.324,0.604c-0.36,0.359-0.48,0.842-0.48,1.441
				c0,0.361,0.12,0.842,0.24,1.205c0.121,0.238,0.361,0.6,0.723,0.721c0.24,0.24,0.601,0.361,0.842,0.361v0.843
				c-0.962,0-1.685-0.363-2.285-0.964c-0.604-0.723-0.843-1.924-0.843-3.488c0-1.805,0.36-3.127,0.962-3.85
				c0.602-0.722,1.324-1.082,2.166-1.082V238.402L147.604,238.402z"/>
			<path d="M154.7,237.441c0.603,0,0.962,0.119,1.323,0.24c0.361,0.24,0.723,0.48,0.963,0.842c0.241,0.479,0.48,0.844,0.602,1.443
				c0.12,0.481,0.24,1.202,0.24,2.165c0,1.083-0.12,1.925-0.36,2.646c-0.24,0.722-0.603,1.203-1.082,1.562
				c-0.362,0.36-0.964,0.483-1.686,0.483v-0.843c0.603,0,0.962-0.24,1.323-0.844c0.362-0.48,0.603-1.443,0.603-3.007
				s-0.24-2.526-0.603-3.008c-0.36-0.479-0.721-0.722-1.323-0.722V237.441L154.7,237.441z M151.693,242.133
				c0-1.084,0.121-1.925,0.361-2.646c0.24-0.6,0.602-1.201,0.963-1.562c0.48-0.361,1.083-0.48,1.684-0.48l0,0v0.961l0,0
				c-0.481,0-0.842,0.121-1.203,0.602c-0.36,0.604-0.602,1.564-0.602,3.129c0,1.563,0.241,2.525,0.48,3.008
				c0.362,0.603,0.842,0.842,1.324,0.842l0,0v0.844l0,0c-0.842,0-1.563-0.242-2.044-0.964
				C152.054,245.141,151.693,243.938,151.693,242.133z"/>
		</g>
		<path fill="none" stroke="#000000" stroke-width="1.4573" d="M3.021,133.035c0-1.443,1.925-6.856,2.767-3.849
			c0.36,1.443,0.481,4.451,0.842,2.406c0.36-1.684,0-3.85,1.806-1.324c1.684,2.767,0.12,2.887,1.684-1.083
			c1.203-2.767,1.203-0.842,1.203,0.723c0,4.089,0,3.247,2.766,1.323c2.406-1.805,3.85,1.323,5.774,3.247
			c2.165,2.045,0.842-13.472,2.286-11.908c3.006,3.007,1.323-2.286,2.524-1.082c1.805,1.805,0.962,7.698,0.962,10.223
			c0,4.692-0.119-0.601,1.203-0.601c1.083,0,0.361-4.571,1.805-1.684c1.925,4.089-0.36,6.014,2.646,0.842
			c1.324-2.044,0.241,3.368,2.166,1.443c2.044-2.044-0.361-3.487,3.969-3.487c1.323,0,1.083,4.811,2.285-0.722
			c1.805-7.458,1.686,4.209,4.932-2.285c3.128-6.375,3.007-2.165,5.414-1.444c0.36,0,5.411,7.097,6.855,7.097
			c1.082,0,2.886-2.525,2.886-3.848c0-1.564,4.21,2.165,2.407,2.165c1.443,0.121,1.563,0.121,2.285-0.481
			c0.361-0.361,1.443-2.766,1.562-3.608c0-0.361-0.12-2.044,0.24-2.044c1.685-0.482,1.204,3.006,2.406,3.006
			c0.962,0,1.804-1.804,1.804-2.887s0.482,0.121,0.482,0.121c0.241,0.36,0.241,2.405,0.601,3.126
			c0.361,0.602,1.443-0.24,1.443,0.962c0,0.482-0.12,1.443-0.12,1.925c0,0.842,0.962,0.481,1.082,0.602v1.684
			c0,0,1.204-2.406,1.204-2.768c0-0.48,0.601-1.562,0.962-1.323c0.601,0.722,1.083,1.805,1.562,2.646
			c0.361,0.481,1.563-2.166,1.806-2.406c0.24-0.721,0.962-1.684,0.962-2.525c0.48,0.361,1.083,0.842,1.324,1.323
			c0.119,0.361,1.082-1.563,1.082-1.563c0.12,0,1.442,0.963,1.442,0.963c0.12,0.119,0.481,0.119,0.603-0.242
			c0-0.12,0.48-0.24,0.48-0.24c0.241-0.241,0.603-1.323,0.603-1.323c0-0.121,0.239-0.121,0.239-0.121l0.962,1.083
			c0.36,0.481,0.843,0.843,0.843,1.323c0,0.481,0.601,0.602,0.601,1.083c0-3.247,3.488-0.602,4.21,0.24
			c0.842,0.723,1.202,1.444,1.805,0.723c1.805-1.805,1.924-4.451,3.127,0.481c0.239,1.443,1.202-4.812,3.487-1.684
			c1.443,2.044,2.646-1.564,2.767-2.767c1.082-6.135,3.127,12.75,3.367,12.51c2.406-1.084,1.806,0.24,1.806,4.089
			c0,2.406-0.361,3.368,0.842,0.963c2.045-4.21,2.045-0.843,2.887,0.961c0.481,0.963-0.12,3.369,1.443,3.369
			c5.172,0,3.248,9.382,3.248,13.952c0,0.963,0.601,7.939,0.601,4.571c0-0.48,0.843-3.127,0.963-3.247c0,0,1.925,4.451,2.405,4.932
			c0,1.203-0.48,6.496,0.722,6.496c1.925,0,1.323,6.134,2.767,7.578c0.48,0.481-0.241,2.405-0.241,3.247
			c0,2.166,2.887,0.843,2.887,3.609c0,1.083,4.932,4.691,4.932,8.179c0,5.052,2.887,4.089,2.887,7.938
			c0.481,0.842,0.361,2.045,1.083,0.962c1.443-2.044,4.57-6.254,4.57-0.962c0,0.962,1.083,1.924,1.805,2.526
			c1.083,1.203,1.805,1.203,2.767,0.241c0.602-0.722,3.126-5.654,3.126-1.323c0,1.924,3.97,3.127,4.571,1.562
			c0.481-0.961,1.685-7.698,3.849-3.126c0.361,0.601,0.843,2.525,1.203,1.203c0.12-0.602,2.767-2.165,2.767-2.165
			c0.121,1.202,2.045,1.924,3.008,2.887c0.962,0.962,4.21-4.691,6.374-5.654c0.242-0.24,0.962,2.886,0.962,2.886
			c1.083,2.286,5.172-6.014,5.172-7.938c0-1.563,1.687,0.361,2.405,0.361c2.287,0,3.852-5.894,4.212-8.06
			c0-0.842,0.24-6.375,1.562-2.285c0,0.24,2.405-6.496,2.767-6.856c0.603-0.602,0.603-2.044,0.603-3.488
			c0-1.443,2.166-0.722,2.166-1.924c2.526-1.324-1.204-7.458,2.403-8.3c1.563-0.361,0.481-6.135,1.926-5.533
			c0.36,0.241,2.768,1.684,3.127,1.684c0.962,0,0.24-3.608,0.962-3.849c2.166-1.202,3.73-5.051,4.692-6.976
			c0.601-1.324,1.202-2.286,1.684-3.729c0.723-2.286-0.239-2.406,1.927-1.926c2.044-0.48,6.854-9.742,7.335-9.742
			c3.85,0,0.962-0.602,2.888-2.525c0.843-0.842,3.248,2.286,4.812-2.887c0.842-2.526-0.12-2.286,1.685-0.481
			c0.962,0.962,2.404-4.089,2.888-4.089c0.6,0,1.321,3.247,1.922,1.805c0.725-1.324,0.962-1.926,2.405-1.685
			c2.647,0.722-0.24,1.685,2.407-1.083c2.164-2.165,3.247,0.842,3.247,1.925c0,1.443,2.404,0.601,2.404,0.601
			c0-1.443,0,2.767,2.768,0.962c2.286-1.443,4.21-2.646,4.21,1.082c0,2.406,2.889-3.126,4.934,0.723
			c2.163,4.691,1.924-0.963,3.97-0.963c1.804,0,0.963,4.209,2.646,0.963c2.404-4.933,0.24,2.405,3.126,0.962
			c0.843-0.241,0.843-4.33,2.646-4.33c0,0,4.212-3.608,3.851-3.608c0,3.248,0.24,4.209,1.323,6.736
			c0.359,0.601,0.841,4.45,1.083,4.811c0.359,0.361,1.201-1.203,1.201-1.203c0-0.24,0.843-1.684,0.843-1.924
			c0-0.121,1.083,1.803,1.202,2.165c0.48,0.962,2.288-5.654,2.767-5.654c1.205,0,1.806,0,2.647-0.842
			c0.963-0.962,1.442-2.525,2.046-0.481c0.119,0.601,0.479,1.323,0.479,1.925c0,1.684,2.646-4.812,2.887-4.451
			c0.842,0.723,1.804,2.166,2.405,2.887c0.48,0.482,0,0.722,0.962-0.241c1.686-1.562,1.083-2.045,2.647-0.962
			c0.841,0.481,0.962,1.443,1.803,0.722c0.603-0.722,2.285-1.924,2.285-1.924c0.241,0.48,2.526,3.367,2.646,3.127
			c0,0,0.482-0.602,0.722-0.722c0.482-0.481,0.241-1.203,1.084,0.482c0.479,1.082,0.842,2.043,1.441,2.766
			c0.723,0.602,1.687-0.722,1.927-1.443c0.24-0.602,2.525,2.886,2.525,2.886c0.119,0.24,3.006-1.324,3.127-1.443
			c0.844-1.324,1.564-2.766,2.526-3.729c1.202-1.323,0.479,0.601,1.924,0.601c1.204,0,1.204-0.962,1.564-1.805
			c0-0.12,1.081-1.563,1.322-1.924c0.362-0.36,0.962-0.963,1.443-1.444c0.36-0.361,1.202,2.166,1.803,2.166
			c1.443,0,1.927-3.127,4.212-0.842c0.359,0.361,0.359,1.443,0.842,1.925c0.481,0.482,2.404-0.121,2.404-0.842"/>
		<polygon points="97.565,273.406 97.565,265.948 102.617,265.948 102.617,266.91 98.528,266.91 98.528,269.198 102.016,269.198 
			102.016,270.039 98.528,270.039 98.528,273.406 		"/>
		<path d="M107.188,265.829L107.188,265.829c0.601,0,1.203,0.239,1.805,0.479c0.602,0.362,0.962,0.844,1.203,1.443
			c0.36,0.602,0.479,1.203,0.479,1.924c0,0.844-0.12,1.445-0.479,2.047c-0.241,0.602-0.722,1.08-1.203,1.322
			c-0.602,0.359-1.204,0.48-1.805,0.48v-0.84c0.722,0,1.323-0.242,1.805-0.725c0.481-0.604,0.721-1.322,0.721-2.286
			c0-0.6-0.119-1.081-0.359-1.562c-0.242-0.48-0.481-0.723-0.843-1.084c-0.481-0.241-0.843-0.358-1.323-0.358l0,0V265.829z
			 M103.579,269.798c0-1.202,0.362-2.164,0.962-2.888c0.723-0.721,1.564-1.081,2.646-1.081v0.843c-0.723,0-1.323,0.238-1.806,0.721
			c-0.48,0.481-0.842,1.324-0.842,2.405c0,0.964,0.241,1.562,0.723,2.165c0.48,0.48,1.083,0.725,1.924,0.725l0,0v0.84
			c-0.723,0-1.323-0.12-1.924-0.48c-0.602-0.359-0.964-0.843-1.203-1.443C103.7,271.122,103.579,270.398,103.579,269.798z"/>
		<path d="M114.886,265.948h0.361c0.722,0,1.203,0.12,1.563,0.241c0.239,0.119,0.601,0.36,0.722,0.721
			c0.24,0.361,0.36,0.724,0.36,1.083c0,0.603-0.12,0.963-0.481,1.323c-0.361,0.359-0.842,0.602-1.562,0.723
			c0.239,0.121,0.359,0.24,0.601,0.359c0.241,0.242,0.481,0.603,0.722,0.961l1.323,2.047h-1.203l-0.962-1.562
			c-0.362-0.361-0.602-0.722-0.723-0.964c-0.24-0.239-0.36-0.481-0.481-0.481c-0.119-0.118-0.119-0.118-0.241-0.118v-0.962h0.122
			c0.481,0,0.843-0.119,1.082-0.24c0.241,0,0.481-0.242,0.603-0.359c0.12-0.242,0.24-0.482,0.24-0.725
			c0-0.359-0.12-0.602-0.481-0.842c-0.241-0.241-0.601-0.362-1.203-0.362h-0.362v-0.842H114.886z M111.999,273.406v-7.458h2.888
			v0.841h-1.925v2.527h1.925v0.963c-0.12,0-0.12-0.119-0.24-0.119s-0.361,0-0.603,0h-1.082v3.246H111.999L111.999,273.406z"/>
		<polygon points="122.344,273.406 122.344,265.948 123.306,265.948 123.306,269.077 127.156,269.077 127.156,265.948 
			128.117,265.948 128.117,273.406 127.156,273.406 127.156,269.918 123.306,269.918 123.306,273.406 		"/>
		<rect x="129.921" y="272.324" width="1.083" height="1.082"/>
		<path d="M135.455,265.948c0.481,0,0.843,0.12,1.203,0.12c0.361,0.121,0.601,0.121,0.842,0.361c0.241,0.12,0.482,0.358,0.602,0.723
			c0.121,0.238,0.24,0.601,0.24,0.961c0,0.722-0.24,1.203-0.601,1.685c-0.361,0.362-1.083,0.601-2.166,0.601h-0.12v-0.84h0.12
			c0.603,0,1.083-0.121,1.323-0.359c0.242-0.242,0.481-0.604,0.481-0.965c0-0.359-0.121-0.601-0.239-0.842
			c-0.242-0.24-0.362-0.36-0.724-0.481c-0.119,0-0.36,0-0.842,0h-0.12V265.948L135.455,265.948z M132.688,273.406v-7.458h2.767l0,0
			v0.962h-1.805v2.646h1.805v0.842h-1.805v3.008H132.688z"/>
		<rect x="138.341" y="272.324" width="1.083" height="1.082"/>
		<path d="M146.04,272.805c0.24,0,0.361-0.117,0.603-0.238c0.239-0.121,0.36-0.241,0.48-0.481c0.12-0.239,0.24-0.481,0.361-0.843
			c0.12-0.361,0.12-0.723,0.12-1.081c0-0.121,0-0.121,0-0.242c-0.12,0.242-0.481,0.479-0.723,0.724
			c-0.239,0.119-0.602,0.238-0.842,0.238v-0.72l0,0c0.481,0,0.842-0.242,1.083-0.483c0.24-0.359,0.361-0.721,0.361-1.201
			c0-0.602-0.121-0.963-0.361-1.322c-0.36-0.242-0.602-0.48-1.083-0.48l0,0v-0.724c0.481,0,0.842,0.12,1.203,0.36
			c0.481,0.362,0.722,0.723,0.963,1.203s0.36,1.084,0.36,2.045c0,0.963-0.119,1.685-0.36,2.287
			c-0.241,0.601-0.481,0.959-0.963,1.201c-0.361,0.36-0.722,0.48-1.203,0.48V272.805z M143.754,271.723l0.962-0.119
			c0,0.48,0.121,0.722,0.362,0.963c0.241,0.121,0.481,0.238,0.842,0.238h0.12v0.723h-0.12c-0.601,0-1.083-0.12-1.443-0.48
			C144.115,272.688,143.875,272.324,143.754,271.723L143.754,271.723z M146.04,270.88c-0.12,0-0.12,0-0.24,0
			c-0.603,0-1.083-0.239-1.562-0.601c-0.362-0.481-0.603-1.081-0.603-1.805c0-0.723,0.24-1.322,0.722-1.804
			c0.36-0.481,0.963-0.724,1.563-0.724h0.12v0.724c-0.359,0.117-0.721,0.238-0.961,0.601c-0.362,0.24-0.481,0.722-0.481,1.203
			c0,0.48,0.119,0.842,0.36,1.201c0.362,0.241,0.723,0.362,1.083,0.483L146.04,270.88L146.04,270.88z"/>
		<path d="M154.218,272.564v0.842h-4.93c0-0.239,0-0.36,0.119-0.604c0.121-0.359,0.362-0.72,0.602-0.96
			c0.24-0.362,0.723-0.722,1.203-1.202c0.843-0.603,1.323-1.205,1.564-1.563c0.36-0.36,0.48-0.724,0.48-1.084
			c0-0.359-0.12-0.603-0.361-0.841c-0.24-0.363-0.602-0.48-1.082-0.48c-0.361,0-0.723,0.238-0.962,0.48
			c-0.36,0.238-0.481,0.601-0.481,1.082l-0.963-0.12c0.121-0.724,0.362-1.204,0.723-1.563c0.481-0.359,1.082-0.603,1.806-0.603
			c0.6,0,1.202,0.241,1.684,0.603c0.361,0.359,0.601,0.842,0.601,1.442c0,0.36-0.119,0.603-0.239,0.963
			c-0.121,0.242-0.241,0.479-0.604,0.842c-0.239,0.362-0.721,0.722-1.322,1.324c-0.602,0.479-0.963,0.722-1.082,0.962
			c-0.241,0.119-0.361,0.24-0.361,0.48H154.218L154.218,272.564z"/>
		<path d="M155.181,267.031v-0.963h4.812v0.721c-0.48,0.482-0.842,1.204-1.323,2.046c-0.48,0.842-0.842,1.685-1.082,2.524
			c-0.24,0.604-0.36,1.326-0.36,2.047h-0.963c0-0.604,0.121-1.322,0.361-2.047c0.239-0.84,0.48-1.684,0.962-2.403
			c0.361-0.843,0.843-1.442,1.323-1.925H155.181z"/>
		<path d="M163.36,265.948c0.361,0,0.723,0.12,1.083,0.241c0.241,0.119,0.48,0.36,0.723,0.721c0.239,0.242,0.36,0.724,0.481,1.083
			c0.119,0.481,0.119,1.084,0.119,1.805c0,0.843-0.119,1.562-0.24,2.046c-0.24,0.602-0.481,0.961-0.842,1.323
			c-0.36,0.239-0.843,0.36-1.324,0.36v-0.725c0.361,0,0.723-0.238,1.083-0.601c0.241-0.359,0.361-1.202,0.361-2.405
			c0-1.202-0.12-2.045-0.361-2.525c-0.36-0.361-0.722-0.601-1.083-0.601V265.948z M160.956,269.798c0-0.963,0.119-1.563,0.24-2.164
			c0.241-0.481,0.481-0.962,0.842-1.204c0.361-0.359,0.722-0.48,1.323-0.48l0,0v0.724l0,0c-0.481,0-0.721,0.238-0.962,0.601
			c-0.361,0.48-0.481,1.324-0.481,2.525c0,1.203,0.12,2.047,0.361,2.405c0.361,0.362,0.601,0.601,1.082,0.601l0,0v0.725l0,0
			c-0.721,0-1.323-0.241-1.685-0.725C161.196,272.203,160.956,271.122,160.956,269.798z"/>
		<rect x="166.608" y="270.279" width="2.768" height="0.962"/>
		<path d="M172.622,265.948c0.362,0,0.725,0.12,0.964,0.241c0.36,0.119,0.602,0.36,0.723,0.721c0.239,0.242,0.359,0.724,0.479,1.083
			c0.123,0.481,0.242,1.084,0.242,1.805c0,0.843-0.119,1.562-0.361,2.046c-0.12,0.602-0.359,0.961-0.722,1.323
			c-0.36,0.239-0.841,0.36-1.324,0.36v-0.725c0.362,0,0.725-0.238,0.964-0.601c0.36-0.359,0.481-1.202,0.481-2.405
			c0-1.202-0.121-2.045-0.481-2.525c-0.239-0.361-0.602-0.601-0.964-0.601V265.948L172.622,265.948z M170.097,269.798
			c0-0.963,0.119-1.563,0.359-2.164c0.119-0.481,0.361-0.962,0.723-1.204c0.36-0.359,0.843-0.48,1.441-0.48l0,0v0.724l0,0
			c-0.479,0-0.841,0.238-1.081,0.601c-0.24,0.48-0.48,1.324-0.48,2.525c0,1.203,0.12,2.047,0.48,2.405
			c0.24,0.362,0.602,0.601,1.081,0.601l0,0v0.725l0,0c-0.721,0-1.321-0.241-1.682-0.725
			C170.458,272.203,170.097,271.122,170.097,269.798z"/>
		<path d="M178.877,273.406v-1.805h-1.203v-0.842h1.203v-3.248l-1.203,1.564v-1.203l1.324-1.926h0.722v4.812h1.081v0.843h-1.081
			v1.804L178.877,273.406L178.877,273.406z M177.674,271.604h-2.043v-0.843l2.043-2.887v1.203l-1.201,1.684h1.201V271.604z"/>
		<path d="M184.17,265.948c0.601,0,1.081,0.241,1.442,0.603c0.48,0.359,0.603,0.842,0.603,1.323c0,0.36,0,0.722-0.239,0.961
			c-0.121,0.242-0.481,0.481-0.843,0.603c0.479,0.121,0.843,0.36,1.082,0.724c0.24,0.237,0.361,0.72,0.361,1.081
			c0,0.722-0.242,1.203-0.723,1.684c-0.36,0.361-0.963,0.604-1.685,0.604l0,0v-0.725l0,0c0.361,0,0.722-0.117,1.081-0.479
			c0.242-0.24,0.361-0.602,0.361-0.965c0-0.479-0.119-0.84-0.361-1.08c-0.359-0.361-0.72-0.481-1.081-0.481v-0.721l0,0
			c0.361,0,0.601-0.121,0.842-0.36c0.239-0.242,0.36-0.482,0.36-0.843s-0.121-0.603-0.36-0.843
			c-0.241-0.242-0.602-0.359-0.842-0.359L184.17,265.948L184.17,265.948z M183.088,269.438c-0.36-0.119-0.602-0.359-0.843-0.603
			c-0.24-0.239-0.24-0.601-0.24-0.961c0-0.481,0.119-0.964,0.602-1.323c0.36-0.359,0.843-0.603,1.443-0.603h0.12v0.724l0,0
			c-0.361,0-0.722,0.117-0.964,0.359c-0.239,0.24-0.359,0.48-0.359,0.843c0,0.36,0.12,0.601,0.359,0.843
			c0.242,0.239,0.603,0.36,0.964,0.36v0.721h-0.12c-0.36,0-0.723,0.12-0.962,0.362c-0.36,0.359-0.481,0.72-0.481,1.081
			c0,0.239,0.121,0.603,0.24,0.843c0.12,0.24,0.241,0.359,0.48,0.48c0.242,0.121,0.48,0.238,0.843,0.238v0.725
			c-0.843,0-1.323-0.241-1.805-0.604c-0.481-0.48-0.722-0.962-0.722-1.684c0-0.48,0.119-0.844,0.36-1.202
			C182.246,269.677,182.606,269.559,183.088,269.438z"/>
		<path d="M190.425,273.406v-1.805h-1.203v-0.842h1.203v-3.248l-1.203,1.564v-1.203l1.324-1.926h0.721v4.812h0.964v0.843h-0.964
			v1.804L190.425,273.406L190.425,273.406z M189.221,271.604h-2.047v-0.843l2.047-2.887v1.203l-1.201,1.684h1.201V271.604z"/>
		<path fill="none" stroke="#000000" stroke-width="0.9701" d="M13.366,391.887c3.488-0.602,11.307-1.081,14.434-3.488
			c5.533-4.21,6.135,1.926,10.226,1.926c2.405,0,3.969-1.082,7.457-1.082c3.608,0,13.472,3.246,13.472-4.69
			c0-2.646,3.128-9.021,6.016-9.021c4.57-5.773,7.697-11.188,9.383-18.284c2.887-12.148,1.322-18.284,15.997-21.17
			c11.668-2.405,12.51,2.286,15.999,9.382c1.924,3.85,6.496,1.325,6.496,9.384c0,3.729,5.772,3.488,5.772,8.179
			c0,4.45,5.533,8.3,5.533,13.473c0,8.661,0,9.502,5.413,14.795c7.579,0.964,9.864-1.685,17.201-1.685
			c6.496,0,5.772,3.849,13.23,1.321c4.09-1.321,6.376,0.604,10.947-0.962c5.051-1.562,7.696,1.324,14.072,1.324
			c1.563,0,0.963-1.925,2.283-2.286c3.13-0.962,9.022,1.807,8.66,1.807c5.174,1.683,7.099-2.888,11.188-0.603
			c6.013,3.488,8.66-4.211,13.471,0.603c1.924,1.925,21.17,0.359,25.62,0.359c2.286,0.601,13.111,2.284,14.795,0.601
			c2.168-2.164,6.495,0.723,8.661,0.723c6.134,0,11.187-1.924,17.439-1.924c3.368,0,16.602,1.924,19.246,3.247"/>
		<g>
			<rect x="133.29" y="281.466" fill="#FFFFFF" width="24.538" height="12.63"/>
			<rect x="132.929" y="308.648" fill="#FFFFFF" width="24.538" height="12.512"/>
			<rect x="132.929" y="333.909" fill="#FFFFFF" width="24.538" height="12.509"/>
			<rect x="132.929" y="359.169" fill="#FFFFFF" width="24.538" height="12.391"/>
			<rect x="133.049" y="385.511" fill="#FFFFFF" width="24.539" height="12.631"/>
			<rect x="133.049" y="410.17" fill="#FFFFFF" width="24.539" height="12.51"/>
			<g>
				<path d="M141.349,310.815c0.842,0,1.442,0.239,1.924,0.722c0.48,0.479,0.722,1.081,0.722,1.684c0,0.48-0.121,0.843-0.361,1.204
					c-0.12,0.238-0.481,0.48-0.962,0.72c0.603,0.121,0.962,0.48,1.323,0.844c0.241,0.479,0.36,0.964,0.36,1.562
					c0,0.722-0.24,1.443-0.842,1.925c-0.481,0.603-1.203,0.842-2.165,0.842l0,0v-0.963l0,0c0.602,0,0.961-0.119,1.322-0.48
					c0.361-0.359,0.603-0.841,0.603-1.322c0-0.6-0.241-1.083-0.603-1.443c-0.36-0.239-0.842-0.481-1.322-0.481v-0.962l0,0
					c0.479,0,0.842-0.119,1.083-0.359c0.239-0.24,0.48-0.603,0.48-1.083c0-0.359-0.241-0.722-0.48-0.963
					c-0.241-0.358-0.603-0.479-1.083-0.479L141.349,310.815L141.349,310.815z M140.025,315.145c-0.481-0.238-0.842-0.48-0.962-0.72
					c-0.24-0.361-0.361-0.724-0.361-1.204c0-0.603,0.241-1.203,0.722-1.684c0.481-0.481,1.083-0.722,1.926-0.722l0,0v0.962
					c-0.482,0-0.843,0.121-1.082,0.479c-0.242,0.241-0.482,0.604-0.482,0.963c0,0.361,0.24,0.722,0.482,1.083
					c0.239,0.24,0.6,0.359,1.082,0.359v0.962l0,0c-0.603,0-0.963,0.121-1.324,0.481c-0.36,0.36-0.602,0.845-0.602,1.324
					c0,0.36,0.12,0.721,0.241,0.961c0.24,0.361,0.36,0.603,0.722,0.724c0.24,0.239,0.602,0.239,0.963,0.239v0.962
					c-0.963,0-1.685-0.239-2.166-0.842c-0.602-0.48-0.843-1.202-0.843-2.044c0-0.604,0.121-1.085,0.361-1.443
					C139.063,315.506,139.544,315.266,140.025,315.145z"/>
				<path d="M148.565,310.815c0.481,0,0.963,0.12,1.324,0.358c0.359,0.121,0.602,0.481,0.842,0.843
					c0.241,0.361,0.48,0.844,0.602,1.324c0.12,0.601,0.24,1.321,0.24,2.283c0,1.084-0.12,1.926-0.361,2.646
					c-0.239,0.602-0.601,1.082-0.963,1.443c-0.479,0.481-1.082,0.602-1.684,0.602v-0.963c0.481,0,0.963-0.238,1.324-0.722
					c0.359-0.48,0.48-1.562,0.48-3.008c0-1.562-0.121-2.525-0.48-3.126c-0.361-0.481-0.843-0.722-1.324-0.722V310.815
					L148.565,310.815z M145.559,315.625c0-1.081,0.12-2.043,0.24-2.644c0.24-0.725,0.602-1.204,1.082-1.564
					c0.481-0.361,0.963-0.602,1.685-0.602l0,0v0.962l0,0c-0.602,0-0.962,0.239-1.323,0.722s-0.601,1.562-0.601,3.126
					c0,1.445,0.239,2.526,0.601,3.008c0.361,0.482,0.722,0.722,1.323,0.722l0,0v0.963l0,0c-0.962,0-1.685-0.36-2.165-0.963
					C145.8,318.633,145.559,317.311,145.559,315.625z"/>
				<path d="M144.236,337.397l-1.204,0.119c0-0.48-0.24-0.841-0.361-0.962c-0.36-0.359-0.721-0.601-1.203-0.601
					c0,0,0,0.119-0.119,0.119v-0.96c0.119,0,0.119,0,0.24,0c0.722,0,1.323,0.119,1.805,0.6
					C143.875,336.074,144.115,336.677,144.236,337.397L144.236,337.397z M141.349,338.36c0.12,0,0.24,0,0.24,0
					c0.843,0,1.443,0.239,2.044,0.842c0.481,0.601,0.722,1.322,0.722,2.165c0,0.601-0.119,1.081-0.36,1.684
					c-0.241,0.481-0.602,0.843-1.083,1.083c-0.361,0.24-0.843,0.36-1.444,0.36h-0.119v-0.841h0.119c0.482,0,0.843-0.241,1.203-0.604
					c0.361-0.359,0.603-0.962,0.603-1.563c0-0.721-0.241-1.2-0.603-1.562c-0.36-0.36-0.721-0.602-1.203-0.602h-0.119L141.349,338.36
					L141.349,338.36z M141.349,336.074c-0.24,0-0.603,0.121-0.843,0.242c-0.36,0.238-0.602,0.599-0.842,1.2
					c-0.121,0.48-0.241,1.204-0.241,2.045c0.241-0.359,0.602-0.72,0.963-0.841c0.36-0.241,0.602-0.36,0.963-0.36v0.962
					c-0.482,0.121-0.843,0.239-1.203,0.602c-0.361,0.362-0.603,0.843-0.603,1.443c0,0.36,0.121,0.843,0.241,1.202
					c0.24,0.241,0.482,0.603,0.722,0.722c0.24,0.241,0.603,0.362,0.843,0.362v0.841c-0.843,0-1.564-0.36-2.166-0.962
					c-0.602-0.722-0.961-1.925-0.961-3.488c0-1.804,0.36-3.129,1.083-3.849c0.48-0.723,1.202-1.081,2.045-1.081L141.349,336.074
					L141.349,336.074z"/>
				<path d="M148.565,335.114c0.481,0,0.963,0.119,1.324,0.237c0.359,0.24,0.602,0.481,0.842,0.844
					c0.241,0.48,0.48,0.841,0.602,1.442c0.12,0.48,0.24,1.204,0.24,2.164c0,1.082-0.12,1.926-0.361,2.646
					c-0.239,0.724-0.601,1.205-0.963,1.563c-0.479,0.361-1.082,0.481-1.684,0.481v-0.841c0.481,0,0.963-0.241,1.324-0.843
					c0.359-0.481,0.48-1.443,0.48-3.009c0-1.562-0.121-2.523-0.48-3.005c-0.361-0.48-0.843-0.724-1.324-0.724V335.114
					L148.565,335.114z M145.559,339.803c0-1.081,0.12-1.924,0.24-2.646c0.24-0.603,0.602-1.202,1.082-1.564
					c0.481-0.358,0.963-0.479,1.685-0.479l0,0v0.96l0,0c-0.602,0-0.962,0.121-1.323,0.603c-0.361,0.603-0.601,1.563-0.601,3.126
					c0,1.564,0.239,2.526,0.601,3.009c0.361,0.602,0.722,0.843,1.323,0.843l0,0v0.841l0,0c-0.962,0-1.685-0.239-2.165-0.962
					C145.8,342.812,145.559,341.607,145.559,339.803z"/>
				<path d="M141.951,370.355v-2.284h-1.444v-0.962h1.444v-4.092l-1.444,2.046V363.5l1.685-2.286h0.961v5.896h1.203v0.962h-1.203
					v2.284L141.951,370.355L141.951,370.355z M140.507,368.071h-2.524v-0.962l2.524-3.609v1.563l-1.442,2.046h1.442V368.071z"/>
				<path d="M148.565,361.095c0.481,0,0.963,0.119,1.324,0.359c0.359,0.241,0.602,0.48,0.842,0.843
					c0.241,0.361,0.48,0.843,0.602,1.443c0.12,0.479,0.24,1.204,0.24,2.164c0,0.964-0.12,1.805-0.361,2.525
					c-0.239,0.604-0.601,1.203-0.963,1.564c-0.479,0.359-1.082,0.48-1.684,0.48v-0.963c0.481,0,0.963-0.242,1.324-0.723
					c0.359-0.481,0.48-1.562,0.48-2.887c0-1.562-0.121-2.524-0.48-3.005c-0.361-0.604-0.843-0.844-1.324-0.844V361.095
					L148.565,361.095z M145.559,365.904c0-1.081,0.12-2.043,0.24-2.646c0.24-0.722,0.602-1.202,1.082-1.562
					c0.481-0.36,0.963-0.602,1.685-0.602l0,0v0.962l0,0c-0.602,0-0.962,0.24-1.323,0.723c-0.361,0.479-0.601,1.562-0.601,3.126
					c0,1.323,0.239,2.404,0.601,2.887c0.361,0.479,0.722,0.723,1.323,0.723l0,0v0.963l0,0c-0.962,0-1.685-0.359-2.165-0.963
					C145.8,368.791,145.559,367.469,145.559,365.904z"/>
				<path d="M144.236,395.976v1.083h-6.015c-0.121-0.358,0-0.601,0.119-0.841c0.121-0.36,0.361-0.843,0.723-1.204
					c0.36-0.48,0.842-0.841,1.442-1.442c1.083-0.841,1.685-1.442,2.045-1.924c0.361-0.482,0.602-0.963,0.602-1.443
					c0-0.361-0.24-0.723-0.48-1.083c-0.36-0.359-0.842-0.48-1.322-0.48c-0.482,0-0.963,0.121-1.324,0.48
					c-0.36,0.36-0.481,0.841-0.481,1.443l-1.203-0.121c0.121-0.962,0.361-1.564,0.964-2.045c0.48-0.479,1.202-0.722,2.045-0.722
					c0.961,0,1.684,0.241,2.165,0.722c0.48,0.479,0.723,1.203,0.723,1.926c0,0.36,0,0.721-0.241,1.083
					c-0.121,0.358-0.361,0.722-0.722,1.081c-0.361,0.36-0.963,0.962-1.685,1.686c-0.723,0.48-1.204,0.962-1.322,1.083
					c-0.242,0.239-0.362,0.479-0.482,0.72L144.236,395.976L144.236,395.976z"/>
				<path d="M148.565,387.677c0.481,0,0.963,0.12,1.324,0.36c0.359,0.121,0.602,0.48,0.842,0.841
					c0.241,0.363,0.48,0.845,0.602,1.325c0.12,0.603,0.24,1.322,0.24,2.284c0,1.083-0.12,1.926-0.361,2.646
					c-0.239,0.602-0.601,1.083-0.963,1.443c-0.479,0.361-1.082,0.602-1.684,0.602v-0.962c0.481,0,0.963-0.242,1.324-0.723
					c0.359-0.481,0.48-1.562,0.48-3.008c0-1.564-0.121-2.646-0.48-3.127c-0.361-0.482-0.843-0.722-1.324-0.722V387.677
					L148.565,387.677z M145.559,392.487c0-1.081,0.12-2.045,0.24-2.646c0.24-0.722,0.602-1.202,1.082-1.563
					c0.481-0.359,0.963-0.602,1.685-0.602l0,0v0.963l0,0c-0.602,0-0.962,0.238-1.323,0.722c-0.361,0.48-0.601,1.562-0.601,3.127
					c0,1.444,0.239,2.525,0.601,3.008c0.361,0.479,0.722,0.723,1.323,0.723l0,0v0.962l0,0c-0.962,0-1.685-0.36-2.165-0.962
					C145.8,395.495,145.559,394.173,145.559,392.487z"/>
				<path d="M144.957,411.975c0.481,0,0.963,0,1.323,0.24c0.362,0.24,0.602,0.48,0.843,0.841c0.24,0.361,0.481,0.844,0.602,1.443
					c0.121,0.48,0.24,1.204,0.24,2.166c0,1.083-0.119,1.924-0.36,2.646c-0.241,0.723-0.481,1.204-0.962,1.566
					c-0.481,0.357-1.083,0.479-1.686,0.479v-0.842c0.481,0,0.963-0.36,1.323-0.843c0.362-0.479,0.482-1.441,0.482-3.007
					s-0.12-2.526-0.482-3.007c-0.36-0.481-0.842-0.722-1.323-0.842V411.975z M141.951,416.665c0-1.083,0.119-1.924,0.24-2.646
					c0.241-0.722,0.602-1.202,1.083-1.563c0.48-0.361,0.963-0.48,1.684-0.48l0,0v0.843l0,0c-0.602,0-0.962,0.238-1.322,0.722
					c-0.361,0.601-0.603,1.562-0.603,3.127s0.241,2.526,0.603,3.007c0.36,0.481,0.721,0.843,1.322,0.843l0,0v0.842l0,0
					c-0.962,0-1.562-0.24-2.165-0.963C142.191,419.672,141.951,418.47,141.951,416.665z"/>
				<path d="M138.943,292.292h-1.083v-7.34c-0.24,0.362-0.603,0.603-1.083,0.845c-0.48,0.238-0.842,0.48-1.203,0.602v-1.082
					c0.602-0.363,1.203-0.724,1.684-1.084c0.482-0.48,0.843-0.842,0.964-1.322h0.722V292.292L138.943,292.292z"/>
				<path d="M144.957,282.909c0.481,0,0.963,0.118,1.323,0.36c0.362,0.119,0.602,0.48,0.843,0.842
					c0.24,0.361,0.481,0.841,0.602,1.322c0.121,0.602,0.24,1.324,0.24,2.287c0,1.082-0.119,1.924-0.36,2.646
					c-0.241,0.603-0.481,1.083-0.962,1.442c-0.481,0.482-1.083,0.604-1.686,0.604v-0.963c0.481,0,0.963-0.24,1.323-0.721
					c0.362-0.483,0.482-1.564,0.482-3.009c0-1.563-0.12-2.526-0.482-3.128c-0.36-0.48-0.842-0.722-1.323-0.722V282.909z
					 M141.951,287.721c0-1.082,0.119-2.045,0.24-2.646c0.241-0.723,0.602-1.202,1.083-1.562c0.48-0.361,0.963-0.602,1.684-0.602l0,0
					v0.962l0,0c-0.602,0-0.962,0.239-1.322,0.722c-0.361,0.48-0.603,1.563-0.603,3.129c0,1.442,0.241,2.523,0.603,3.008
					c0.36,0.479,0.721,0.721,1.322,0.721l0,0v0.963l0,0c-0.962,0-1.562-0.362-2.165-0.963
					C142.191,290.729,141.951,289.404,141.951,287.721z"/>
				<path d="M152.175,282.909c0.481,0,0.843,0.118,1.323,0.36c0.361,0.119,0.603,0.48,0.842,0.842
					c0.241,0.361,0.481,0.841,0.603,1.322c0.12,0.602,0.24,1.324,0.24,2.287c0,1.082-0.12,1.924-0.36,2.646
					c-0.241,0.603-0.603,1.083-0.962,1.442c-0.482,0.482-1.082,0.604-1.685,0.604v-0.963c0.481,0,0.962-0.24,1.323-0.721
					c0.361-0.483,0.481-1.564,0.481-3.009c0-1.563-0.121-2.526-0.481-3.128c-0.36-0.48-0.842-0.722-1.323-0.722L152.175,282.909
					L152.175,282.909z M149.167,287.721c0-1.082,0.121-2.045,0.24-2.646c0.242-0.723,0.602-1.202,1.083-1.562
					c0.36-0.361,0.962-0.602,1.684-0.602l0,0v0.962l0,0c-0.602,0-0.963,0.239-1.323,0.722c-0.36,0.48-0.603,1.563-0.603,3.129
					c0,1.442,0.242,2.523,0.603,3.008c0.36,0.479,0.722,0.721,1.323,0.721l0,0v0.963l0,0c-0.963,0-1.684-0.362-2.166-0.963
					C149.407,290.729,149.167,289.404,149.167,287.721z"/>
			</g>
		</g>
	</g>
</g>
</svg>
