<?xml version="1.0" encoding="utf-8"?>
<!-- Generator: Adobe Illustrator 15.1.0, SVG Export Plug-In . SVG Version: 6.00 Build 0)  -->
<!DOCTYPE svg PUBLIC "-//W3C//DTD SVG 1.1//EN" "http://www.w3.org/Graphics/SVG/1.1/DTD/svg11.dtd">
<svg version="1.1" id="Layer_4" xmlns="http://www.w3.org/2000/svg" xmlns:xlink="http://www.w3.org/1999/xlink" x="0px" y="0px"
	 width="325.984px" height="418.41px" viewBox="0 0 325.984 418.41" enable-background="new 0 0 325.984 418.41"
	 xml:space="preserve">
<metadata><?xpacket begin="﻿" id="W5M0MpCehiHzreSzNTczkc9d"?>
<x:xmpmeta xmlns:x="adobe:ns:meta/" x:xmptk="Adobe XMP Core 5.0-c060 61.134777, 2010/02/12-17:32:00        ">
   <rdf:RDF xmlns:rdf="http://www.w3.org/1999/02/22-rdf-syntax-ns#">
      <rdf:Description rdf:about=""
            xmlns:dc="http://purl.org/dc/elements/1.1/">
         <dc:format>image/svg+xml</dc:format>
         <dc:title>
            <rdf:Alt>
               <rdf:li xml:lang="x-default">7-3</rdf:li>
            </rdf:Alt>
         </dc:title>
      </rdf:Description>
      <rdf:Description rdf:about=""
            xmlns:xmp="http://ns.adobe.com/xap/1.0/"
            xmlns:xmpGImg="http://ns.adobe.com/xap/1.0/g/img/">
         <xmp:CreatorTool>Adobe Illustrator CS5.1</xmp:CreatorTool>
         <xmp:CreateDate>2015-02-12T16:49:09+02:00</xmp:CreateDate>
         <xmp:ModifyDate>2015-02-12T16:49:09+02:00</xmp:ModifyDate>
         <xmp:MetadataDate>2015-02-12T16:49:09+02:00</xmp:MetadataDate>
         <xmp:Thumbnails>
            <rdf:Alt>
               <rdf:li rdf:parseType="Resource">
                  <xmpGImg:width>200</xmpGImg:width>
                  <xmpGImg:height>256</xmpGImg:height>
                  <xmpGImg:format>JPEG</xmpGImg:format>
                  <xmpGImg:image>/9j/4AAQSkZJRgABAgEAyADIAAD/7QAsUGhvdG9zaG9wIDMuMAA4QklNA+0AAAAAABAAyAAAAAEA&#xA;AQDIAAAAAQAB/+4ADkFkb2JlAGTAAAAAAf/bAIQABgQEBAUEBgUFBgkGBQYJCwgGBggLDAoKCwoK&#xA;DBAMDAwMDAwQDA4PEA8ODBMTFBQTExwbGxscHx8fHx8fHx8fHwEHBwcNDA0YEBAYGhURFRofHx8f&#xA;Hx8fHx8fHx8fHx8fHx8fHx8fHx8fHx8fHx8fHx8fHx8fHx8fHx8fHx8fHx8f/8AAEQgBAADIAwER&#xA;AAIRAQMRAf/EAaIAAAAHAQEBAQEAAAAAAAAAAAQFAwIGAQAHCAkKCwEAAgIDAQEBAQEAAAAAAAAA&#xA;AQACAwQFBgcICQoLEAACAQMDAgQCBgcDBAIGAnMBAgMRBAAFIRIxQVEGE2EicYEUMpGhBxWxQiPB&#xA;UtHhMxZi8CRygvElQzRTkqKyY3PCNUQnk6OzNhdUZHTD0uIIJoMJChgZhJRFRqS0VtNVKBry4/PE&#xA;1OT0ZXWFlaW1xdXl9WZ2hpamtsbW5vY3R1dnd4eXp7fH1+f3OEhYaHiImKi4yNjo+Ck5SVlpeYmZ&#xA;qbnJ2en5KjpKWmp6ipqqusra6voRAAICAQIDBQUEBQYECAMDbQEAAhEDBCESMUEFURNhIgZxgZEy&#xA;obHwFMHR4SNCFVJicvEzJDRDghaSUyWiY7LCB3PSNeJEgxdUkwgJChgZJjZFGidkdFU38qOzwygp&#xA;0+PzhJSktMTU5PRldYWVpbXF1eX1RlZmdoaWprbG1ub2R1dnd4eXp7fH1+f3OEhYaHiImKi4yNjo&#xA;+DlJWWl5iZmpucnZ6fkqOkpaanqKmqq6ytrq+v/aAAwDAQACEQMRAD8A9KfVbP8A6sn/AAlr/wBV&#xA;MVQul21odMtCdF5EwR1bhbb/AADxkxV1pbWhuL6ui1pOKDhbbfuY/wDizFXSW1p+k7cfoXb0Jvh4&#xA;W388X/FmKu1G2tBbpTRafv4N+Ft/v5P+LMVRX1Wz/wCrJ/wlr/1UxVC6XbWh0y0J0XkTBHVuFtv8&#xA;A8ZMVdaW1obi+rotaTig4W237mP/AIsxV0ltafpO3H6F29Cb4eFt/PF/xZirtRtrQW6U0Wn7+Dfh&#xA;bf7+T/izFUV9Vs/+rJ/wlr/1UxVCabBZDSrV30YUEEZZytrT7AJJJkxVZF+jDqMpGlIUeKBY9rSh&#xA;ZjKwA/eUqV3+WKql3bWguLGmi0rOajhbb/uZP+LMVdqltaDTLsjReJEElG4W23wHwkxVFfVbP/qy&#xA;f8Ja/wDVTFULp1taG3eui1/fz78Lb/fz/wDFmKujtrT9J3A/Qu3oQ/Dwtv55f+LMVdd21oLixpot&#xA;Kzmo4W2/7mT/AIsxV2qW1oNMuyNF4kQSUbhbbfAfCTFUV9Vs/wDqyf8ACWv/AFUxVC6dbWht3rot&#xA;f38+/C2/38//ABZiro7a0/SdwP0Lt6EPw8Lb+eX/AIsxV13bWguLGmi0rOajhbb/ALmT/izFV9/B&#xA;arY3LJpHosIZCsvG3HE8DvVXLbe2Kq/+47/l+/6fsVQulfo79F2dfr1fQj6fXafYHhirrP8AR31i&#xA;+/3u/v1p/vb/AL4jxV0n6O/Slv8A73U9Cb/ltr9uLFXal+jvq6U+vf39v1+u/wC/08cVRX+47/l+&#xA;/wCn7FULpX6O/RdnX69X0I+n12n2B4Yq6z/R31i+/wB7v79af72/74jxV0n6O/Slv/vdT0Jv+W2v&#xA;24sVdqX6O+rpT69/f2/X67/v9PHFUV/uO/5fv+n7FUsFpY3vlc2Ktco15Y/Vy80FxdRr6kQWphmV&#xA;4np4MKYqwuw/KTy5ba3HOlxcIbRtPnWOKymUcbSQuqiRvUm5M8I+MuSFqB1JxVnt5+jvrFj/AL3f&#xA;37V/3t/3xJirtV/R36LvKfXq+hJ1+u0+wfHFUV/uO/5fv+n7FULpv6O+rvX69/f3HT67/v8AfwxV&#xA;0f6O/Slx/vdT0If+W2v25cVdefo76xY/73f37V/3t/3xJirtV/R36LvKfXq+hJ1+u0+wfHFUV/uO&#xA;/wCX7/p+xVC6b+jvq71+vf39x0+u/wC/38MVdH+jv0pcf73U9CH/AJba/blxV15+jvrFj/vd/ftX&#xA;/e3/AHxJiq+/+ofULrh9c5ejJx5/XONeB68/hp88VTL09V/5aIP+RD/9VsVQmlR6p+i7OlxBT0I6&#xA;fuH/AJB/xbirrOPVPrF9/pEH9+tf3D/74i/4txV0keqfpS3/ANIgr6E/+6H/AJ4v+LcVdqUeqfV0&#xA;rcQf39v/ALof/f6f8W4qi/T1X/log/5EP/1WxVCaVHqn6Ls6XEFPQjp+4f8AkH/FuKus49U+sX3+&#xA;kQf361/cP/viL/i3FXSR6p+lLf8A0iCvoT/7of8Ani/4txV2pR6p9XStxB/f2/8Auh/9/p/xbiqL&#xA;9PVf+WiD/kQ//VbFUJpUeqfouzpcQU9COn7h/wCQf8W4q6OPVP0pcf6RBX0IP90P/PL/AMW4q68j&#xA;1T6xY/6RB/ftT9w/++Jf+LcVdqseqfou8rcQU9CSv7h/5D/xbiqL9PVf+WiD/kQ//VbFUJpseqfV&#xA;3pcQf39x/uh/9/v/AMW4q6OPVP0pcf6RBX0IP90P/PL/AMW4q68j1T6xY/6RB/ftT9w/++Jf+LcV&#xA;dqseqfou8rcQU9CSv7h/5D/xbiqL9PVf+WiD/kQ//VbFUJpseqfV3pcQf39x/uh/9/v/AMW4q6OP&#xA;VP0pcf6RBX0IP90P/PL/AMW4q68j1T6xY/6RB/ftT9w/++Jf+LcVXanHqQ027Mk8LJ6MnJVhZSRw&#xA;PQmVqfdiq36rZ/8AVk/4S1/6qYqhdKtrP9F2f+4Wv7iPfha7/AP8vFXWdtZ/WL7/AHC1/fr+xa7f&#xA;uI/8vFXSW1n+lLf/AHC/7om24Wv88X+XirtStrP6un+4Wn7+3/Ytf9/p/l4qivqtn/1ZP+Etf+qm&#xA;KoXSraz/AEXZ/wC4Wv7iPfha7/AP8vFXWdtZ/WL7/cLX9+v7Frt+4j/y8VdJbWf6Ut/9wv8Auibb&#xA;ha/zxf5eKu1K2s/q6f7hafv7f9i1/wB/p/l4qivqtn/1ZP8AhLX/AKqYqgLaGGPy8k0GiRvcRWfq&#xA;QrMIUjeRYuSqzR+s6hmFKhDTwxVgemeedWufM31R/J8ccErWERmMZoyzyBXWMcNnjWdpzzoPTQ+z&#xA;FV6DeW1n9Ysf9wtP37fsWu/7iT/LxV2q21n+i7z/AHC0/cSb8LXb4D/l4qivqtn/ANWT/hLX/qpi&#xA;qF022s/q7/7ha/v7j9i1/wB/v/l4q6O2s/0pcf7hf90Q7cLX+eX/AC8VdeW1n9Ysf9wtP37fsWu/&#xA;7iT/AC8VdqttZ/ou8/3C0/cSb8LXb4D/AJeKor6rZ/8AVk/4S1/6qYqhdNtrP6u/+4Wv7+4/Ytf9&#xA;/v8A5eKujtrP9KXH+4X/AHRDtwtf55f8vFXXltZ/WLH/AHC0/ft+xa7/ALiT/LxVff29qthdFdI9&#xA;FhDJSXhbjj8B3+Fy33Yqr/WrP/q9/wDD2v8A1TxVC6Vc2f6Ls/8Ac1T9xHtztdvgH+RirrO5s/rF&#xA;9/uap+/X9u13/cR/5GKukubP9KW/+5r/AHRNvztf54v8jFXalc2f1dP9zVf39v8At2v+/wBP8jFU&#xA;V9as/wDq9/8AD2v/AFTxVC6Vc2f6Ls/9zVP3Ee3O12+Af5GKus7mz+sX3+5qn79f27Xf9xH/AJGK&#xA;ukubP9KW/wDua/3RNvztf54v8jFXalc2f1dP9zVf39v+3a/7/T/IxVFfWrP/AKvf/D2v/VPFULpV&#xA;zZ/ouz/3NU/cR7c7Xb4B/kYq3Hd2n6SnH6b+EQwkfHbUqXlr+xirV5c2f1ix/wBzVf37ft2u37iT&#xA;/IxV2q3Nn+i7z/c1X9xJtztd/gP+RiqK+tWf/V7/AOHtf+qeKoXTbmz+rv8A7mqfv7j9u1/3+/8A&#xA;kYq6O5s/0pcf7mv90Q787X+eX/IxV15c2f1ix/3NV/ft+3a7fuJP8jFXarc2f6LvP9zVf3Em3O13&#xA;+A/5GKor61Z/9Xv/AIe1/wCqeKoXTbmz+rv/ALmqfv7j9u1/3+/+Riro7mz/AEpcf7mv90Q787X+&#xA;eX/IxV15c2f1ix/3NV/ft+3a7fuJP8jFV9/cWrWF0F1f1mMMlIudueXwHb4UDfdiqZepqv8Ayzwf&#xA;8j3/AOqOKoTSpNU/RdnS3gp6EdP37/yD/irFXWcmqfWL7/R4P79a/v3/AN8Rf8VYq6STVP0pb/6P&#xA;BX0J/wDd7/zxf8VYq7UpNU+rpW3g/v7f/d7/AO/0/wCKsVRfqar/AMs8H/I9/wDqjiqE0qTVP0XZ&#xA;0t4KehHT9+/8g/4qxV1nJqn1i+/0eD+/Wv79/wDfEX/FWKukk1T9KW/+jwV9Cf8A3e/88X/FWKu1&#xA;KTVPq6Vt4P7+3/3e/wDv9P8AirFUX6mq/wDLPB/yPf8A6o4qhNKk1T9F2dLeCnoR0/fv/IP+KsVU&#xA;odQuW1OUqLQ+pFbrGRcmjMxldQv7rclfi+W+Kqt5Jqn1ix/0eD+/an79/wDfEv8AxVirtVk1T9F3&#xA;lbeCnoSV/fv/ACH/AIqxVF+pqv8Ayzwf8j3/AOqOKoTTZNU+rvS3g/v7j/d7/wC/3/4qxV0cmqfp&#xA;S4/0eCvoQf7vf+eX/irFXXkmqfWLH/R4P79qfv3/AN8S/wDFWKu1WTVP0XeVt4KehJX9+/8AIf8A&#xA;irFUX6mq/wDLPB/yPf8A6o4qhNNk1T6u9LeD+/uP93v/AL/f/irFXRyap+lLj/R4K+hB/u9/55f+&#xA;KsVdeSap9Ysf9Hg/v2p+/f8A3xL/AMVYqu1OTUjpt2JIIVT0ZOTLMzEDgegMS1+/FVv+47/l+/6f&#xA;sVQulfo79F2dfr1fQj6fXafYHhirrP8AR31i+/3u/v1p/vb/AL4jxV0n6O/Slv8A73U9Cb/ltr9u&#xA;LFXal+jvq6U+vf39v1+u/wC/08cVRX+47/l+/wCn7FULpX6O/RdnX69X0I+n12n2B4Yq6z/R31i+&#xA;/wB7v79af72/74jxV0n6O/Slv/vdT0Jv+W2v24sVdqX6O+rpT69/f2/X67/v9PHFUV/uO/5fv+n7&#xA;FUHp8WkTaNbwXEV1PBNarHNBKl3JE6PHxZWRgyspBpQjFWC6Z+U2gWetwTpfX0j2J0u4AktZXr9Q&#xA;4qoAZSELm1X4lA+Gq79cVZ5eHTjc2R/07+/av+9v++ZOmKu1X9Hfou8p9er6EnX67T7B8cVRX+47&#xA;/l+/6fsVQum/o76u9fr39/cdPrv+/wB/DFXR/o79KXH+91PQh/5ba/blxV15+jvrFj/vd/ftX/e3&#xA;/fEmKu1X9Hfou8p9er6EnX67T7B8cVRX+47/AJfv+n7FULpv6O+rvX69/f3HT67/AL/fwxV0f6O/&#xA;Slx/vdT0If8Altr9uXFXXn6O+sWP+939+1f97f8AfEmKr7/6h9QuuH1zl6MnHn9c414Hrz+GnzxV&#xA;MvT1X/log/5EP/1WxVCaVHqn6Ls6XEFPQjp+4f8AkH/FuKus49U+sX3+kQf361/cP/viL/i3FXSR&#xA;6p+lLf8A0iCvoT/7of8Ani/4txV2pR6p9XStxB/f2/8Auh/9/p/xbiqL9PVf+WiD/kQ//VbFUJpU&#xA;eqfouzpcQU9COn7h/wCQf8W4q6zj1T6xff6RB/frX9w/++Iv+LcVdJHqn6Ut/wDSIK+hP/uh/wCe&#xA;L/i3FXalHqn1dK3EH9/b/wC6H/3+n/FuKov09V/5aIP+RD/9VsVQmlR6p+i7OlxBT0I6fuH/AJB/&#xA;xbiro49U/Slx/pEFfQg/3Q/88v8AxbirryPVPrFj/pEH9+1P3D/74l/4txV2qx6p+i7ytxBT0JK/&#xA;uH/kP/FuKov09V/5aIP+RD/9VsVQmmx6p9XelxB/f3H+6H/3+/8Axbiro49U/Slx/pEFfQg/3Q/8&#xA;8v8AxbirryPVPrFj/pEH9+1P3D/74l/4txVAXGp313+ntPS5ti+mxBZqRPyrNB6oBHq7fCRiqden&#xA;qv8Ay0Qf8iH/AOq2KoTTY9U+rvS4g/v7j/dD/wC/3/4txV0ceqfpS4/0iCvoQf7of+eX/i3FXXke&#xA;qfWLH/SIP79qfuH/AN8S/wDFuKrtTj1IabdmSeFk9GTkqwspI4HoTK1PuxVb9Vs/+rJ/wlr/ANVM&#xA;VSO8k+p+VoJbLRoReyJa29rJcRwNCJbl44EZ1WRWZQ0gPEEE9Kjriqt5cuLLUbe6uf0EY3+stFNE&#xA;UtT6c0CJFKlRIQeMiMKg0OKoyS2s/wBKW/8AuF/3RNtwtf54v8vFVDUJNIaU2K6Uv1yJrSeSDja8&#xA;xFJcBEanqdGaNh9GKpj9Vs/+rJ/wlr/1UxVC6VbWf6Ls/wDcLX9xHvwtd/gH+XirVnBYm7v0/QwL&#xA;rMpKcbWoBhjpt6nehxVuS2s/0pb/AO4X/dE23C1/ni/y8VdqVtZ/V0/3C0/f2/7Fr/v9P8vFUV9V&#xA;s/8Aqyf8Ja/9VMVQVjaodEg+raJG1z9WX0PXECRGT0xx9R0MrqpbqQjEeBxVgWnecvMM+u2MU3kw&#xA;W0F5HpKzzyWkvEm6JFzwIUqnpGR3+KvwoeVCwoq9BvrSyF1ZAaMCBOwqEtqN+5l6VcfjirWq21n+&#xA;i7z/AHC0/cSb8LXb4D/l4qivqtn/ANWT/hLX/qpiqAtv0Zb2Zkn0fijXUkQYpbH45bpo0X7fdmAx&#xA;VVjtrP8ASlx/uF/3RDtwtf55f8vFVDWn0uxihvbjRilvbNJNMwjtieEdvKzbB99hiqQ6ZpS2p1n6&#xA;3o/+nXGmw3V4ALdgk00l47KpL/ZjqI0/yVGKsv8Aqtn/ANWT/hLX/qpiqF022s/q7/7ha/v7j9i1&#xA;/wB/v/l4q6O2s/0pcf7hf90Q7cLX+eX/AC8VdeW1n9Ysf9wtP37fsWu/7iT/AC8VX39varYXRXSP&#xA;RYQyUl4W44/Ad/hct92KpfrHmXT9Ku1mu9e9PTIbG8vLtx9Xdh9XaCnELGzE8ZGoqip7Yqh7m7sp&#xA;ND0aNdaDJNNYGoe2IAjdJgRRPGMYqu8rzWkMut2x1nj6OpzMDztviFxHHc13Q/7/AKYqmclzZ/pS&#xA;3/3Nf7om352v88X+RirD7i+03/Fr6zc60scR52MFy8lso9G2vLJKNVKD/SpJqHuKYqyDWvOOlabL&#xA;dWy6rJcXtvZPfJCjWvxnn6UMSn093lk+FQP4jFUh0rzTqFxZeVoYdZSMG3sZdclH1fjzuIPht4qp&#xA;sa1d6mqrxH7dQqhfy0uL2K/upta8yLcXGo2dk1s/qwFvThjZlDl0+KTjOCxHWhr0riqYf4r9PzSl&#xA;5qGuLa6MsF9a28Qe2dmkhvbW2ErERChlkk4qm9AK1+KgVT3zDremWVnbPJrfMz31lbRqr2xJeW6j&#xA;TtH+zux+WKpr9as/+r3/AMPa/wDVPFULpVzZ/ouz/wBzVP3Ee3O12+Af5GKujurT9J3H+5vb0YaH&#xA;nbfzy/5GKuvLmz+sWP8Auar+/b9u12/cSf5GKu1W5s/0Xef7mq/uJNudrv8AAf8AIxVFfWrP/q9/&#xA;8Pa/9U8VYd5k1KMR6Nawa0SZNaSa5Xlb0+rx3vEtXh/v2WLFWR2+o6ZJq14sevKxhjgjlpJani9Z&#xA;G4n4OvFwfpxVLvNstrcLpNius8he6hHHJV7bj6SRSTTK1E6PFEyfTirWoXdgmo69I+tAIulW5aQv&#xA;bAEK14SCeHbFU30/W9KvtPtb6HXGWG7hS4iWU20biN1DDkjRgqQGFQemKrNMvtPMBUa6vJ5bhkX1&#xA;LWpUTtVh8HT4h9+Kro7mz/Slx/ua/wB0Q787X+eX/IxV15c2f1ix/wBzVf37ft2u37iT/IxVTutW&#xA;0qeLUbOHWxcXVtAfWtg1uSPURiinigPxAdAa4qg/NXlvzJrWqaNPDJa21jYyh9QgLyM8yJcW91Gq&#xA;MIxx/e2ihqg1UnFUj8r+R/NNpfaJq0tzbTw2UUduloZJFVbKGzaG1Vf3R/eh5Hkkanxc6dEXFU/0&#xA;XU7iLzTr+lsluL+eeO/jgM71aAWlrAXX910DpQ++KojzB5gbQ2i1LU0ggsoozHLMZnKp69xbwqzU&#xA;h2UNIOR7Dc9MVYwtjdeZdB07ULVbWXSbi+uGlEkkoMttcaslyvFTEpBZoFX4v2Se+2Kp9pPlK/gn&#xA;hvtVEOpatA59O8aeVf3aoscasnpsDtGJGrt6pZ1A2AVQnlryY8Pka00O+Rb+OZIZrq5a4khkkdOD&#xA;JvHGCiosaRqA32FAqeuKu8w6XKX/AE41pEs3ly6W6hMc7DjB6MAuVC+kK1gU0pQ9ulQVULN5dvtY&#xA;0XT1NnbC/NhfzWLyzyBUmvOBDy8YjUhpAx6/F8XUA4qlMmi6/p1lZ6XdWqNYeXtRsrqK+eR+NxNd&#xA;38EhmVvT6xc7hZK/zA4qyabXtd1nULvy/a2wspoZf9KvIp3qtqtKlJPQokkr1RR9oLVx0GKo/wAq&#xA;6lqcnk/SL25S2AOn2808zTsqisCszN+6ovicVQ9t5z0iXV3SPUdKeWeO0ihjF+pZnn9SSFQvCtZU&#xA;cFNvi7Yqm15Jqn1ix/0eD+/an79/98S/8VYq7VZNU/Rd5W3gp6Elf37/AMh/4qxVETXWoQxPNNFb&#xA;RxRqXkke4ZVVVFSzExUAAxViUlpqesXGt2iwQM8NpNa27mZqRT3VxO77+l9oelA/amx+SrF0s/NF&#xA;tJdXF1YC2t2ubTzVqjPK3FI0f1GtGpGayRyIzd6CMV6jFWRQr5j1Lznb6zbyW8+hRXLQQ25mcoZY&#xA;7KQfWIHEXFlJmkif3Xbviqv5v8veZdTubmUtbQaJLaINRhjnl9ef6qZpEgr6IUQyGb95vVgvDoxx&#xA;VJ49B83Rpp8c+nhp9RsW0OfhMxS1tUEILSMqFRySKd1brydUxVb5Em1O68w2V40URTT7K+0aAGZw&#xA;nrx3MEt0y/uj9shUp1BibwxVn0cmqfpS4/0eCvoQf7vf+eX/AIqxVIvNPm260nU9ME0VoLSOSWTU&#xA;JTcN+5VUSPk5MahAouhIxb9gVxVLNHOswX2pSXOnFH1vShqF1cvI/GNvUuG9A1joZIo5446bfCo3&#xA;xVmH+47/AJfv+n7FULpX6O/RdnX69X0I+n12n2B4Yqxq90jTR580zW4jdpKJbjTrg0veckMtks6L&#xA;XwWSCuKovznaaPeQQWlzFdT2tw8EVxDKLwo8b39orqQ3UFSRTFU0ms9Es9Pit7SK8hgSeErGovQo&#xA;5XCs1B7kk4qmH+47/l+/6fsVQulfo79F2dfr1fQj6fXafYHhirrP9HfWL7/e7+/Wn+9v++I8VdJ+&#xA;jv0pb/73U9Cb/ltr9uLFUs88pZv5T1IQC+M/pAw/7219QMChFa7hqUxVW8uTaZdLqGoRm9MF7eSN&#xA;AR9dNUgRLXlUdQ5ty6+xGKpZ+V9lY6b5QtdOnku7u4tHniuGkjuSrh5GdOUYDJT0ZEoDX4aYqhbD&#xA;8uvK1trMcq3GqyNYppzQLJGWAjsT+4hFLYOI+dujkct2qduTclWVXh043Nkf9O/v2r/vb/vmTpir&#xA;tV/R36LvKfXq+hJ1+u0+wfHFWOatrGha7qMvlKNb8iSULqPL60yS2MahrkKpJ5o0hFrKKbcziqa+&#xA;VdH0TSdLe2gbUZK3E7STSm9aRyJWRS7ADkVjRU+QGKo5Bpx1O4B+vEGCHb/Tf55cVaul0xZrBUF6&#xA;qrMQFH10AAQSbDFW9V/R36LvKfXq+hJ1+u0+wfHFUV/uO/5fv+n7FWOyw6XbHS540u4oYtVufXKL&#xA;eDa6a4j9vt3EqFu5PviqcR/o79KXH+91PQh/5ba/blxVicXl7Rrvzpq+oXguLi2nmTTzaPHdtVDp&#xA;6ySeoTWobko406D32VZff/UPqF1w+ucvRk48/rnGvA9efw0+eKq/1qz/AOr3/wAPa/8AVPFULpVz&#xA;Z/ouz/3NU/cR7c7Xb4B/kYqxnzjcOsCXdlrTevZavbTVRrcngYFievFPslZCrdqbYqidVvtG1LzX&#xA;pNmNeMi2Es73UaywKFnjihmhWSiAMAJVkANRWh6jFU91K5s/q6f7mq/v7f8Abtf9/p/kYqivrVn/&#xA;ANXv/h7X/qniqF0q5s/0XZ/7mqfuI9udrt8A/wAjFXWdzZ/WL7/c1T9+v7drv+4j/wAjFXSXNn+l&#xA;Lf8A3Nf7om352v8APF/kYqt1aWwls/TfWeaPLArqXtqEGZAf2MVQ/lW0t9J8saRpcutj1bCyt7aT&#xA;jJbEc4olRjVkYncdSTirCrm5ibWYNMXWW+rA6RrNx6ckI/evcW1nAkhCUK0tpH4+KgnFWfx3Nn+l&#xA;Lj/c1/uiHfna/wA8v+Rirry5s/rFj/uar+/b9u12/cSf5GKpN59ktrvQ/wBGprrxm/k9MzRyW4ZB&#xA;DG90SCqAgn6vxHucVTPQre30/Sra3uNdSS8VWe7mja2VHuJmMtw6BkJCvKzNSuKq2m3Nn9Xf/c1T&#xA;9/cft2v+/wB/8jFXR3Nn+lLj/c1/uiHfna/zy/5GKuvLmz+sWP8Auar+/b9u12/cSf5GKu1W5s/0&#xA;Xef7mq/uJNudrv8AAf8AIxVFfWrP/q9/8Pa/9U8VY/q3q3Hl+VNO1VJb5L1ZoIpZLZYyYb8S1Y8K&#xA;0ASpp9GKrfJk0MWnW8M2vGSSGzghMrNbAt6ckyAn4PAYqv0u5tHlN0dZo1xqt1y+O2r+4jktVJ+D&#xA;+WAYqnF/cWrWF0F1f1mMMlIudueXwHb4UDfdiqZepqv/ACzwf8j3/wCqOKoTSpNU/RdnS3gp6EdP&#xA;37/yD/irFUs1watNoPmWJLaEvJDMqgTMTyNmgFKxYqlmjafPL591HXoY4zNJG9sUEzem8Zt9PlRt&#xA;4eXJe3z36DFWTalJqn1dK28H9/b/AO73/wB/p/xViqL9TVf+WeD/AJHv/wBUcVQmlSap+i7OlvBT&#xA;0I6fv3/kH/FWKus5NU+sX3+jwf361/fv/viL/irFXSSap+lLf/R4K+hP/u9/54v+KsVdqUmqfV0r&#xA;bwf39v8A7vf/AH+n/FWKov1NV/5Z4P8Ake//AFRxVhXnrWdU0X8s59aS2thJp0FndqzysQfq80Uq&#xA;hh6aVFR/MMVS3R/NP5pS+ZIYrzRUSzm+rJcy/VZ1K1n4vH6hl4ALbO9x6nHjy/c7virPb6TUvrVl&#xA;xghK/WG4kzOCR6MvUekaYqxHzTP5xk8328MUEEui29oZbmISMWhmktr9Em5+kPgYLwYH9rhSm+Ks&#xA;49TVf+WeD/ke/wD1RxVCabJqn1d6W8H9/cf7vf8A3+//ABViro5NU/Slx/o8FfQg/wB3v/PL/wAV&#xA;Yq68k1T6xY/6PB/ftT9+/wDviX/irFXarJqn6LvK28FPQkr+/f8AkP8AxViqL9TVf+WeD/ke/wD1&#xA;RxVCabJqn1d6W8H9/cf7vf8A3+//ABVirHtJ1uTR9OubrUBbw2lo/wBVknaWQKKahcWyM37o0Bal&#xA;T0HXpiqM0aTUxbW1IIT/ALldR6zN19e72/usVTfU5NSOm3YkghVPRk5MszMQOB6AxLX78VW/7jv+&#xA;X7/p+xVC6V+jv0XZ1+vV9CPp9dp9geGKtWq6Y01+ri9ZWmAKn66QQYI9jirGfy8iiGi6TdXovRdX&#xA;trJPJteCqfuI4DtX/dEaVxVk+pfo76ulPr39/b9frv8Av9PHFUV/uO/5fv8Ap+xVC6V+jv0XZ1+v&#xA;V9CPp9dp9geGKus/0d9Yvv8Ae7+/Wn+9v++I8VdJ+jv0pb/73U9Cb/ltr9uLFXal+jvq6U+vf39v&#xA;1+u/7/TxxVFf7jv+X7/p+xVj2tw6TN5AvY5Y7uRTpjko4vGSqwFhsfh2Iriqbx/o79KXH+91PQh/&#xA;5ba/blxVK/OZsv0VHHFJqEUlxMLdXRr5HBnR4hwbqrHnQEb1xVB6XHOLTXjqkV+txGgthckXgW5E&#xA;MG060/ZcOKj9luS9qlVlX+47/l+/6fsVQum/o76u9fr39/cdPrv+/wB/DFXR/o79KXH+91PQh/5b&#xA;a/blxV15+jvrFj/vd/ftX/e3/fEmKu1X9Hfou8p9er6EnX67T7B8cVRX+47/AJfv+n7FULpv6O+r&#xA;vX69/f3HT67/AL/fwxVh0sOl3nmDUfLRhu57Oe8inuI3F2ypaxqt5MWU9fUuplWh3o5PbFU+0jSr&#xA;XSrDTLGe4vrqWO6nZrgi9DP6gnkDN/lEP8XvXFU2v/qH1C64fXOXoycef1zjXgevP4afPFUy9PVf&#xA;+WiD/kQ//VbFUJpUeqfouzpcQU9COn7h/wCQf8W4q6zj1T6xff6RB/frX9w/++Iv+LcVdJHqn6Ut&#xA;/wDSIK+hP/uh/wCeL/i3FXalHqn1dK3EH9/b/wC6H/3+n/FuKov09V/5aIP+RD/9VsVQmlR6p+i7&#xA;OlxBT0I6fuH/AJB/xbirrOPVPrF9/pEH9+tf3D/74i/4txV0keqfpS3/ANIgr6E/+6H/AJ4v+LcV&#xA;dqUeqfV0rcQf39v/ALof/f6f8W4qi/T1X/log/5EP/1WxVIdSttam8jXUUDxzzSaXIsUEcDF3Zrc&#xA;hUWswHJjsMVYlJ+Yd7J5JbVbXV9NbzPd6VbBLGD05pEvyp9SMJ6zAmJ5gd1pTelMVRWqWnmzUPOd&#xA;tJb3iXGiyahbQTrwYxQGytRqMNxEplIpMZGifj1PA9sVZtqseqfou8rcQU9CSv7h/wCQ/wDFuKov&#xA;09V/5aIP+RD/APVbFUJpseqfV3pcQf39x/uh/wDf7/8AFuKujj1T9KXH+kQV9CD/AHQ/88v/ABbi&#xA;rryPVPrFj/pEH9+1P3D/AO+Jf+LcVdqseqfou8rcQU9CSv7h/wCQ/wDFuKov09V/5aIP+RD/APVb&#xA;FUJpseqfV3pcQf39x/uh/wDf7/8AFuKsY0NNRP5k+YwLiHmIrfkfRYj+5i7ert9+KsnvI9U+sWP+&#xA;kQf37U/cP/viX/i3FV2px6kNNuzJPCyejJyVYWUkcD0Jlan3Yqt+q2f/AFZP+Etf+qmKoXSraz/R&#xA;dn/uFr+4j34Wu/wD/LxV1nbWf1i+/wBwtf36/sWu37iP/LxV0ltZ/pS3/wBwv+6JtuFr/PF/l4q7&#xA;Uraz+rp/uFp+/t/2LX/f6f5eKor6rZ/9WT/hLX/qpiqF0q2s/wBF2f8AuFr+4j34Wu/wD/LxV1nb&#xA;Wf1i+/3C1/fr+xa7fuI/8vFXSW1n+lLf/cL/ALom24Wv88X+XirtStrP6un+4Wn7+3/Ytf8Af6f5&#xA;eKor6rZ/9WT/AIS1/wCqmKofR4bZNOspE0Yh1hiKuq2wNeA3B9SuKvMPLPkLRdN1Kyi0+0vRc/pX&#xA;63Ioe14E6bNcwrKyqQ1FSMx/a+1KS5duJxVn2neX9P0i00zT49JeVIriTjJItsXKtHMyqT6hrwBC&#xA;ivYYqj9VtrP9F3n+4Wn7iTfha7fAf8vFUV9Vs/8Aqyf8Ja/9VMVQum21n9Xf/cLX9/cfsWv+/wB/&#xA;8vFXR21n+lLj/cL/ALoh24Wv88v+Xirry2s/rFj/ALhafv2/Ytd/3En+XirtVtrP9F3n+4Wn7iTf&#xA;ha7fAf8ALxVFfVbP/qyf8Ja/9VMVQum21n9Xf/cLX9/cfsWv+/3/AMvFUm0vy+sPnbW7+bRuVvcQ&#xA;WrWgAtvh5KY5VZedOtupU+5xVOby2s/rFj/uFp+/b9i13/cSf5eKr7+3tVsLorpHosIZKS8Lccfg&#xA;O/wuW+7FVf61Z/8AV7/4e1/6p4qhdKubP9F2f+5qn7iPbna7fAP8jFXWdzZ/WL7/AHNU/fr+3a7/&#xA;ALiP/IxV0lzZ/pS3/wBzX+6Jt+dr/PF/kYq7Urmz+rp/uar+/t/27X/f6f5GKor61Z/9Xv8A4e1/&#xA;6p4qhdKubP8ARdn/ALmqfuI9udrt8A/yMVdZ3Nn9Yvv9zVP36/t2u/7iP/IxV0lzZ/pS3/3Nf7om&#xA;352v88X+RirtSubP6un+5qv7+3/btf8Af6f5GKor61Z/9Xv/AIe1/wCqeKoXSrmz/Rdn/uap+4j2&#xA;52u3wD/IxVjegxBfPGsPNqZhtLGIJYzl7ek36QkNzPxqlKI8YG3cn5YqyS8ubP6xY/7mq/v2/btd&#xA;v3En+RirtVubP9F3n+5qv7iTbna7/Af8jFUV9as/+r3/AMPa/wDVPFULptzZ/V3/ANzVP39x+3a/&#xA;7/f/ACMVdHc2f6UuP9zX+6Id+dr/ADy/5GKuvLmz+sWP+5qv79v27Xb9xJ/kYq7Vbmz/AEXef7mq&#xA;/uJNudrv8B/yMVRX1qz/AOr3/wAPa/8AVPFULptzZ/V3/wBzVP39x+3a/wC/3/yMVdHc2f6UuP8A&#xA;c1/uiHfna/zy/wCRirry5s/rFj/uar+/b9u12/cSf5GKr7+4tWsLoLq/rMYZKRc7c8vgO3woG+7F&#xA;Uy9TVf8Alng/5Hv/ANUcVQmlSap+i7OlvBT0I6fv3/kH/FWKus5NU+sX3+jwf361/fv/AL4i/wCK&#xA;sVdJJqn6Ut/9Hgr6E/8Au9/54v8AirFXalJqn1dK28H9/b/7vf8A3+n/ABViqL9TVf8Alng/5Hv/&#xA;ANUcVQmlSap+i7OlvBT0I6fv3/kH/FWKus5NU+sX3+jwf361/fv/AL4i/wCKsVdJJqn6Ut/9Hgr6&#xA;E/8Au9/54v8AirFXalJqn1dK28H9/b/7vf8A3+n/ABViqL9TVf8Alng/5Hv/ANUcVQ2jPqB06xDw&#xA;QrH6MdWWVmanAdjGv68VYV5Rf82T5p/52GMDT/UIlKmyKfVzFMwJEZ9cUnMaQf5AkMnxFcVZpfSa&#xA;n9asaW8JHrtxPrPv+4l6/usVa1WTVP0XeVt4KehJX9+/8h/4qxVF+pqv/LPB/wAj3/6o4qhNNk1T&#xA;6u9LeD+/uP8Ad7/7/f8A4qxV0cmqfpS4/wBHgr6EH+73/nl/4qxV15Jqn1ix/wBHg/v2p+/f/fEv&#xA;/FWKu1WTVP0XeVt4KehJX9+/8h/4qxVF+pqv/LPB/wAj3/6o4qhNNk1T6u9LeD+/uP8Ad7/7/f8A&#xA;4qxV0cmqfpS4/wBHgr6EH+73/nl/4qxV15Jqn1ix/wBHg/v2p+/f/fEv/FWKrtTk1I6bdiSCFU9G&#xA;TkyzMxA4HoDEtfvxVb/uO/5fv+n7FUPp8VlFYW0UgvlkjiRXX/TdmCgEbbYq62iskmu2YXwWSUNG&#xA;f9N3URItdvdTirnisjfwygX3prFKrN/puzM0ZUeP7JxV19FZSQqsYvmYSwsR/pv2UlVmO/gBiqI/&#xA;3Hf8v3/T9iqH0+KyisLaKQXyyRxIrr/puzBQCNtsVdbRWSTXbML4LJKGjP8Apu6iJFrt7qcVc8Vk&#xA;b+GUC+9NYpVZv9N2ZmjKjx/ZOKuvorKSFVjF8zCWFiP9N+ykqsx38AMVRH+47/l+/wCn7FUPp8Vl&#xA;FYW0UgvlkjiRXX/TdmCgEbbYq5IrIX80pF96bRRKrf6buytIWHj+0MVdcxWTzWjKL4rHKWkP+m7K&#xA;YnWu/uwxV2oRWUthcxRi+aSSJ1Rf9N3YqQBvtiqI/wBx3/L9/wBP2Koexiso4WWQXysZZmA/037L&#xA;ysynbxBxVyRWQv5pSL702iiVW/03dlaQsPH9oYq65isnmtGUXxWOUtIf9N2UxOtd/dhirtQispbC&#xA;5ijF80kkTqi/6buxUgDfbFUR/uO/5fv+n7FUPYxWUcLLIL5WMszAf6b9l5WZTt4g4q5IrIX80pF9&#xA;6bRRKrf6buytIWHj+0MVdcxWTzWjKL4rHKWkP+m7KYnWu/uwxVfdRWk1rNFALxppI3SNX+thSzKQ&#xA;AfU+Clf5tsVTrFXYq7FXYq7FXYq7FXYq7FXYq7FXYq7FXYq7FXYq7FXYq7FXYq7FXYq7FXYq7FXY&#xA;q7FXYq7FXYq7FXYq7FXYq7FXYqhdV1XTdI0641LU7mOzsLVDJcXMzBURR3JP3DxxVLrfzt5UuNUX&#xA;S4NTgk1B5prZbZSS3rW4rKnSnw0I+YIG4OKp3irsVdirsVdirsVdirsVdirsVdirsVQp0rS2JJs4&#xA;CTuSY0qT92KoXS9L0xtMs2azgLGCMkmNCSSg9sVdZ6XphuL4GzgIWcBR6abD0Yz4e+Kuk0vTP0nb&#xA;r9Tg4mCYkemlKh4qdvfFXajpemLboVs4AfXgFRGnQzID2xVFfonSv+WKD/kUn9MVQul6XpjaZZs1&#xA;nAWMEZJMaEklB7Yq6z0vTDcXwNnAQs4Cj002Hoxnw98VdJpemfpO3X6nBxMExI9NKVDxU7e+Ku1H&#xA;S9MW3QrZwA+vAKiNOhmQHtiqK/ROlf8ALFB/yKT+mKpdDoGk3/lv6lNbosV/Y/Vrh41VHMc8XB6M&#xA;BWpDYqlmn/l75XTXZ9UEMpure7llTlNI0dbiMSMpjJ48FeZyi0otdsVTqTS9M/Sduv1ODiYJiR6a&#xA;UqHip298VdqOl6YtuhWzgB9eAVEadDMgPbFUV+idK/5YoP8AkUn9MVQul6XpjaZZs1nAWMEZJMaE&#xA;klB7Yq6z0vTDcXwNnAQs4Cj002Hoxnw98VdJpemfpO3X6nBxMExI9NKVDxU7e+Ku1HS9MW3QrZwA&#xA;+vAKiNOhmQHtiqK/ROlf8sUH/IpP6YqhdL0vTG0yzZrOAsYIySY0JJKD2xV2naXpjW7lrOAn15xU&#xA;xp0EzgdsVdHpemfpO4X6nBxEEJA9NKVLy17e2Kt3Om6dHd2DR2sKMJyQyxqDtDIR0HiK4q0/+GOb&#xA;c/qXOp5V9Kte9a4qhNK/wt+i7Ov1GvoR1r6Na8BirrP/AAt9Yvq/UaeutP7np6EeKuk/wt+lLf8A&#xA;3hp6E1f7mlecWKu1L/C31dKfUa+vb9PR6eulcVRX/Oq/8uP/ACRxVC6V/hb9F2dfqNfQjrX0a14D&#xA;FXWf+FvrF9X6jT11p/c9PQjxV0n+Fv0pb/7w09Cav9zSvOLFXal/hb6ulPqNfXt+no9PXSuKor/n&#xA;Vf8Alx/5I4qhdMHlgaPBIVs2ENqssvFY3IVIwWYhQTtiqVeVPNH5eeYJ7ptHlt7tJedykn1WSNPT&#xA;gSGOX45Yo0qhdSwBqAynoRiqayf4W/Slv/vDT0Jq/wBzSvOLFXal/hb6ulPqNfXt+no9PXSuKor/&#xA;AJ1X/lx/5I4qhdK/wt+i7Ov1GvoR1r6Na8BirrP/AAt9Yvq/UaeutP7np6EeKuk/wt+lLf8A3hp6&#xA;E1f7mlecWKu1L/C31dKfUa+vb9PR6eulcVRX/Oq/8uP/ACRxVC6V/hb9F2dfqNfQjrX0a14DFXab&#xA;/hb6u9fqNfXuOvo9PXemKuj/AMLfpS4/3hp6ENP7mlecuKr5v8OfXdO9D6n6v1j4OHpcuXoyUpTe&#xA;temKpkdV0tSQbyAEbEGRKg/fiqE0rVdLGl2YN5ACII6j1E/kHvirrPVdL+sX3+mQbzrT94n++Ivf&#xA;FXSarpf6Utz9cgp6E+/qJ/PF74q7UtV0s26UvIP7+3/3Yn+/098VRf6W0r/ltg/5Gp/XFUJpWq6W&#xA;NLswbyAEQR1HqJ/IPfFXWeq6X9Yvv9Mg3nWn7xP98Re+Kuk1XS/0pbn65BT0J9/UT+eL3xV2parp&#xA;Zt0peQf39v8A7sT/AH+nviqL/S2lf8tsH/I1P64qgbG+0WfRLe3nubd4ZbZI5Y2kSjK0YDKRXuMV&#xA;Sry3o3kjRr67m030LeVGeJX+ss9VmEc0rfvJHHOSSnN/tNxUE/CKKpxJqul/pS3P1yCnoT7+on88&#xA;XvirtS1XSzbpS8g/v7f/AHYn+/098VRf6W0r/ltg/wCRqf1xVCaVquljS7MG8gBEEdR6ifyD3xV1&#xA;nqul/WL7/TIN51p+8T/fEXvirpNV0v8ASlufrkFPQn39RP54vfFXalqulm3Sl5B/f2/+7E/3+nvi&#xA;qL/S2lf8tsH/ACNT+uKoTStV0saXZg3kAIgjqPUT+Qe+Ku03VdLFu9byD+/uP92J/v8Af3xV0eq6&#xA;X+lLg/XIKehBv6ifzy++KrrnU9Nku9PRLuFma4ICrIpJJhkAFAcVRJ1XS1JBvIARsQZEqD9+KoTS&#xA;tV0saXZg3kAIgjqPUT+Qe+Kus9V0v6xff6ZBvOtP3if74i98VdJqul/pS3P1yCnoT7+on88Xvirt&#xA;S1XSzbpS8g/v7f8A3Yn+/wBPfFUX+ltK/wCW2D/kan9cVQmlarpY0uzBvIARBHUeon8g98VdZ6rp&#xA;f1i+/wBMg3nWn7xP98Re+Kuk1XS/0pbn65BT0J9/UT+eL3xV2parpZt0peQf39v/ALsT/f6e+Kov&#xA;9LaV/wAtsH/I1P64qg9P1jS4tCiuGuozHa2azTlGDlY44wWYhanbFUk8n/mJ5c8w3VyLEzR+p6k7&#xA;NcIqIptlginiLB3HOL1Yi3b4xQkhqKp5Jqul/pS3P1yCnoT7+on88XvirtS1XSzbpS8g/v7f/dif&#xA;7/T3xVF/pbSv+W2D/kan9cVQmlarpY0uzBvIARBHUeon8g98VdZ6rpf1i+/0yDedafvE/wB8Re+K&#xA;uk1XS/0pbn65BT0J9/UT+eL3xV2parpZt0peQf39v/uxP9/p74qi/wBLaV/y2wf8jU/riqE0rVdL&#xA;Gl2YN5ACII6j1E/kHvirtN1XSxbvW8g/v7j/AHYn+/398VdHqul/pS4P1yCnoQb+on88vviq651P&#xA;TZLvT0S7hZmuCAqyKSSYZABQHFUSdV0tSQbyAEbEGRKg/fiqE0rVdLGl2YN5ACII6j1E/kHviqCu&#xA;PNug6dLd+pdJNcTz0tbSBlkmlIgiqEWoFBUVdiFX9ogYqhpPM16dRgnFpa+iIZiIDfRfWSOcW3AK&#xA;YOXt69PfFUafM2iahpsdxDdRofrECywyuqyRuk6B0da7FfuPUEihxVNP0tpX/LbB/wAjU/riqE0r&#xA;VdLGl2YN5ACII6j1E/kHvirrPVdL+sX3+mQbzrT94n++IvfFXSarpf6Utz9cgp6E+/qJ/PF74qh/&#xA;MnmPR7HR5r17qKRbZ4pTFHIhd+EqHigruzdAPHFULa/XjbRzXPmcJfsoea3X6m9okh3ZFHpJM0ak&#xA;0FZOVAN61xVC2PmD6la6XBrF9p91pt/Elqzxp6PpStGPTWUPNOrJLQpX4fi4jflsqi9AsfJelXd4&#xA;+nRafZujeijwiGNvTZElZarQ/FIxY+J+QxVMZNV0v9KW5+uQU9Cff1E/ni98VdqWq6WbdKXkH9/b&#xA;/wC7E/3+nviqL/S2lf8ALbB/yNT+uKoTStV0saXZg3kAIgjqPUT+Qe+Kus9V0v6xff6ZBvOtP3if&#xA;74i98VQ2reZNGsJ0vJLqORYreakUTo0ju0kKpGg5CrOxCqK9cVSi9gXUbYX2qax9Tv3mtvqsFjdK&#xA;qWa+shI3rHO/87SIV2FFoN1UXaaxa6NqUltdXrXenXrxtb6hLcJN6dw49NoZBUNGrsqsnFeFWI+H&#xA;4QVU10rVdLGl2YN5ACII6j1E/kHvirtN1XSxbvW8g/v7j/dif7/f3xV0eq6X+lLg/XIKehBv6ifz&#xA;y++KrrnU9Nku9PRLuFma4ICrIpJJhkAFAcVRJ1K3BIKT1G21vOR94TFUDY6zYW2iW885lihhtkeW&#xA;VoJgqqsYLMTwpQAYqlXlW4WW61LWr63uI7++lURxNbz8oLURRmGGnD4Woecn+WaVIC4qnEmpW/6U&#xA;tzwn/uJ/+Pef+eL/ACMVSe51O0tfMF1AUnjTUvqV1DWCb95NDOsNwR8HVYhB8+3TFWR/pO2/kn/6&#xA;R5/+aMVQmlalbjS7McJ/7iP/AI95/wCQf5GKus9St/rF98E+86/8e8/++Iv8jFXSalb/AKUtzwn/&#xA;ALif/j3n/ni/yMVSfzVqkVzf6PpqJP6Ruor67rbzUMVpNF6a/Zry+sSxMPZTirI/0nbfyT/9I8//&#xA;ADRiqT3E9hdeS7mG4VxbfoxvX9WOSNeHofF8TKvbwxVI/wAvfzP0bzRQ2cNwfrUDXZuWWMqz2628&#xA;UyKkTO9V9eM/ZpUsOqnFWUyalb/pS3PCf+4n/wCPef8Ani/yMVdqWpW5t0+Cf+/t/wDj3n/3+n+R&#xA;iqL/AEnbfyT/APSPP/zRiqE0rUrcaXZjhP8A3Ef/AB7z/wAg/wAjFXWepW/1i++Cfedf+Pef/fEX&#xA;+RiqSavqKap5mstNhSZbSxUXWozG3mJLxzQzQQR0XZucaPISNkoBu9VVTvUtStzbp8E/9/b/APHv&#xA;P/v9P8jFUJ5n1OAaSJPSuWWC6s55eFrcORHDdxSSNxWMk8UUnbFUVo+q2jaRYsqzMrW8RVhbzkEF&#xA;B/kYq3pupW4t3+Cf+/uP+Pef/f7/AORiro9St/0pcHhP/cQf8e8/88v+Riq651CB7vT1CzAm4IHK&#xA;CZRvDIOpQDFUSdStwSCk9RttbzkfeExVjV5qFveWWiaKFmKXiJNer6E4JtLVEaQD4PiDytFG47oz&#xA;YqnVnqVv9Yvvgn3nX/j3n/3xF/kYq6TUrf8ASlueE/8AcT/8e8/88X+RiqB81ehf6bEIvWivba5t&#xA;57C4a2nIinWUKrEcBVSrMriu6kjviqM0fzLaajYJcGGeGcEx3Vt6MzmGeM8ZIiwSh4sKV79RscVX&#xA;aVqVuNLsxwn/ALiP/j3n/kH+RirrPUrf6xffBPvOv/HvP/viL/IxV0mpW/6Utzwn/uJ/+Pef+eL/&#xA;ACMVSn6/BLq2q3brNWK4sLGNfQmpwiMdxy+xszNdkEeCjFWQ/pO2/kn/AOkef/mjFUJpWpW40uzH&#xA;Cf8AuI/+Pef+Qf5GKpF5ROkaZqmt6dBavG1vNG9tItrIGFncJ6kcNVSoWOb1gq9AtO5OKp7JqVv+&#xA;lLc8J/7if/j3n/ni/wAjFXalqVubdPgn/v7f/j3n/wB/p/kYqi/0nbfyT/8ASPP/AM0YqhNK1K3G&#xA;l2Y4T/3Ef/HvP/IP8jFXWepW/wBYvvgn3nX/AI95/wDfEX+RiqT+X9Tt59RuNSCzmLUZbqaAehMR&#xA;6UQtrWNlPDdZFt/UB8GxVONS1K3NunwT/wB/b/8AHvP/AL/T/IxVWury1uLaWArcKJUZCwt56gMK&#xA;V+xiqS+StdaTRUs7uB459MENozwxTyJIBbQyrIKxqUqsoqp6eJFDiqaabqVuLd/gn/v7j/j3n/3+&#xA;/wDkYq6PUrf9KXB4T/3EH/HvP/PL/kYquudQge709QswJuCBygmUbwyDqUAxVAtr+v7oNHX1lJBZ&#xA;pbj0TTpxdbV3Nf8AjHiqh5ZaURQ6lqRdrl7WKC3t4be4MUEIAZgHaMM7yNQu1FFFUBdiWVTOz1K3&#xA;+sX3wT7zr/x7z/74i/yMVdJqVv8ApS3PCf8AuJ/+Pef+eL/IxV2palbm3T4J/wC/t/8Aj3n/AN/p&#xA;/kYqgtRV4rxtV0cSpfMALq0khnS3uwoAX1CInKSKoosijpswYAUVQ+k+a7oaZaKfL+q1WGMVEcBB&#xA;og3H77pirrPzXc/WL0/4f1XecbelBt+5jG/77FVs3mTVp9StxaaLc28nozAvfqUQAvF8QFsLpmp4&#xA;Hj8xiqKiNvYaWkLNcTzyXUU9zcG2nXnLLcq7kDieK1NEWpooAqaYqnH6Ttv5J/8ApHn/AOaMVQWn&#xA;6pBHocUvFx6FosrGVHhSiRgmskiqo+dcVYH5Q862XnPWHvNOjbTL5rea4jvrecXSzQwGFAJbb04y&#xA;8EnqgxFqScllUemQ1VWTHzDrVtqcC3mlS3tIZlSbT0kHIcovieG5EPp/JZJPniq/UfNdybdB/h/V&#xA;R+/g3MUHaZD/AL+xVEjzBr0hDRaOI4z+zcyXCSj5rFazp9z4qhdL8w65Dp1oZdHM0IhjFLR55Jfs&#xA;DfjNb20f/JTFVD9L6xqgv7S3sbvSI7iZVuLydGM8SNDGG9BLf11MnEfCzOApIajU44qnMVzp9rd2&#xA;NtbQzRW9vayxQxLbzgKiNCqqBw6ADFVTUtStzbp8E/8Af2//AB7z/wC/0/yMVRf6Ttv5J/8ApHn/&#xA;AOaMVY/aW0f1e3vtNubqwvJoYTcL9WlmtpmSNUVpYmQbhQF5RujEAAsQooqs0/U/M6wPCsVtIDNP&#xA;S/MN6nGsz1P1QRycqeH1gV9sVdb6/rVpqlyl5p0uoj0ovTuNPhkiJXnKRzhuWXh1p8MjV67dAqil&#xA;8xS3WpadA+j6haK07fv54oxGD6EtK8JHb8MVTLUNRu4LO5ljspuUUbsjVhpVVJBp6mKr4J5oII4Y&#xA;7C44RKEWrQE0UUH+7cVULO8uPrF9/oM/9+v7UH++Iv8Ai3FXSXlx+lLf/QZ/7ifblB/PF/xbirtS&#xA;vLj6un+gzj9/b/tQf7/T/i3FUX9duf8Algn/AOCg/wCquKoTSry4/Rdn/oM5/cR78oP5B/xbirrO&#xA;8uPrF9/oM/8Afr+1B/viL/i3FXSXlx+lLf8A0Gf+4n25Qfzxf8W4q7Ury4+rp/oM4/f2/wC1B/v9&#xA;P+LcVRf125/5YJ/+Cg/6q4qhNKvLj9F2f+gzn9xHvyg/kH/FuKt2d7c/WL6tjOaTKB8UGw9GM0/v&#xA;ffFWpLy4/Slv/oM/9xPtyg/ni/4txV2pXlx9XT/QZx+/t/2oP9/p/wAW4qi/rtz/AMsE/wDwUH/V&#xA;XFUJpV5cfouz/wBBnP7iPflB/IP+LcVdZ3lx9Yvv9Bn/AL9f2oP98Rf8W4q6S8uP0pb/AOgz/wBx&#xA;Ptyg/ni/4txV2pXlx9XT/QZx+/t/2oP9/p/xbiqL+u3P/LBP/wAFB/1VxVCaVeXH6Ls/9BnP7iPf&#xA;lB/IP+LcVdpt5cfV3/0Gc/v7j9qD/f7/APFuKujvLj9KXH+gz/3EG3KD+eX/AItxVdc3c7Xeng2c&#xA;yA3BBZjDQVhk32kJxVff3cM1nc26rMHkjeNSYJ+NWUjqEO2Kq36Ttv5J/wDpHn/5oxVC2moQrcXp&#xA;MdwA0wKn6vPuPRjH8niMVdJqEJ1KB/TuOIhmBP1eelS8VP2PbFXahqEL26BY7gn1oDQW8/QTIT+x&#xA;4DFUV+k7b+Sf/pHn/wCaMVQumahCmm2iNHcKywxhgbeeoIQV/YxV1pqEK3F6THcANMCp+rz7j0Yx&#xA;/J4jFXSahCdSgf07jiIZgT9XnpUvFT9j2xV2oahC9ugWO4J9aA0FvP0EyE/seAxVFfpO2/kn/wCk&#xA;ef8A5oxVR0a6jewtIeEqSLBGGEkMsYBCCoq6qMVSjyf5gv8AVLrXxd2DWa2d9JDE37w81jrEKhkX&#xA;4+ESueBZaMKE4qmcmoQnUoH9O44iGYE/V56VLxU/Y9sVdqGoQvboFjuCfWgNBbz9BMhP7HgMVRX6&#xA;Ttv5J/8ApHn/AOaMVQumahCmm2iNHcKywxhgbeeoIQV/YxV1pqEK3F6THcANMCp+rz7j0Yx/J4jF&#xA;XSahCdSgf07jiIZgT9XnpUvFT9j2xV2oahC9ugWO4J9aA0FvP0EyE/seAxVFfpO2/kn/AOkef/mj&#xA;FULpmoQpptojR3CssMYYG3nqCEFf2MVdp+oQpbuGjuAfWnNDbz9DM5H7HgcVdHqEI1Kd/TuOJhhA&#xA;P1eelQ8tf2PfFV1xfRSXVgEjn2nNSYJgBWGRaklAAKnvir//2Q==</xmpGImg:image>
               </rdf:li>
            </rdf:Alt>
         </xmp:Thumbnails>
      </rdf:Description>
      <rdf:Description rdf:about=""
            xmlns:xmpMM="http://ns.adobe.com/xap/1.0/mm/"
            xmlns:stRef="http://ns.adobe.com/xap/1.0/sType/ResourceRef#"
            xmlns:stEvt="http://ns.adobe.com/xap/1.0/sType/ResourceEvent#">
         <xmpMM:DocumentID>xmp.did:43C0730B3B20681188C69098C6AB8D67</xmpMM:DocumentID>
         <xmpMM:InstanceID>xmp.iid:43C0730B3B20681188C69098C6AB8D67</xmpMM:InstanceID>
         <xmpMM:OriginalDocumentID>uuid:8BA57CB5F225DF118833972942CE57BD</xmpMM:OriginalDocumentID>
         <xmpMM:DerivedFrom rdf:parseType="Resource">
            <stRef:instanceID>uuid:fe6c5302-da44-4dd0-9fbe-6eacc06ed966</stRef:instanceID>
            <stRef:documentID>uuid:8BA57CB5F225DF118833972942CE57BD</stRef:documentID>
            <stRef:originalDocumentID>uuid:8BA57CB5F225DF118833972942CE57BD</stRef:originalDocumentID>
         </xmpMM:DerivedFrom>
         <xmpMM:History>
            <rdf:Seq>
               <rdf:li rdf:parseType="Resource">
                  <stEvt:action>saved</stEvt:action>
                  <stEvt:instanceID>xmp.iid:43C0730B3B20681188C69098C6AB8D67</stEvt:instanceID>
                  <stEvt:when>2015-02-12T16:49:09+02:00</stEvt:when>
                  <stEvt:softwareAgent>Adobe Illustrator CS5.1</stEvt:softwareAgent>
                  <stEvt:changed>/</stEvt:changed>
               </rdf:li>
            </rdf:Seq>
         </xmpMM:History>
      </rdf:Description>
      <rdf:Description rdf:about=""
            xmlns:pdf="http://ns.adobe.com/pdf/1.3/">
         <pdf:Producer>Adobe PDF library 7.77</pdf:Producer>
      </rdf:Description>
      <rdf:Description rdf:about=""
            xmlns:xmpTPg="http://ns.adobe.com/xap/1.0/t/pg/"
            xmlns:stDim="http://ns.adobe.com/xap/1.0/sType/Dimensions#"
            xmlns:xmpG="http://ns.adobe.com/xap/1.0/g/">
         <xmpTPg:MaxPageSize rdf:parseType="Resource">
            <stDim:w>325.984375</stDim:w>
            <stDim:h>418.409668</stDim:h>
            <stDim:unit>Pixels</stDim:unit>
         </xmpTPg:MaxPageSize>
         <xmpTPg:NPages>1</xmpTPg:NPages>
         <xmpTPg:HasVisibleTransparency>False</xmpTPg:HasVisibleTransparency>
         <xmpTPg:HasVisibleOverprint>False</xmpTPg:HasVisibleOverprint>
         <xmpTPg:PlateNames>
            <rdf:Seq>
               <rdf:li>Cyan</rdf:li>
               <rdf:li>Magenta</rdf:li>
               <rdf:li>Yellow</rdf:li>
               <rdf:li>Black</rdf:li>
            </rdf:Seq>
         </xmpTPg:PlateNames>
         <xmpTPg:SwatchGroups>
            <rdf:Seq>
               <rdf:li rdf:parseType="Resource">
                  <xmpG:groupName>Default Swatch Group</xmpG:groupName>
                  <xmpG:groupType>0</xmpG:groupType>
               </rdf:li>
            </rdf:Seq>
         </xmpTPg:SwatchGroups>
      </rdf:Description>
   </rdf:RDF>
</x:xmpmeta>
                                                                                                    
                                                                                                    
                                                                                                    
                                                                                                    
                                                                                                    
                                                                                                    
                                                                                                    
                                                                                                    
                                                                                                    
                                                                                                    
                                                                                                    
                                                                                                    
                                                                                                    
                                                                                                    
                                                                                                    
                                                                                                    
                                                                                                    
                                                                                                    
                                                                                                    
                                                                                                    
                           
<?xpacket end="w"?>
	</metadata>
<g>
	<line fill="none" stroke="#000000" stroke-width="0.245" x1="0.361" y1="72.736" x2="324.659" y2="72.736"/>
	<g>
		<line fill="none" stroke="#000000" stroke-width="0.245" x1="0.361" y1="0" x2="324.659" y2="0"/>
		<line fill="none" stroke="#000000" stroke-width="0.245" x1="0.361" y1="8.068" x2="324.659" y2="8.068"/>
		<line fill="none" stroke="#000000" stroke-width="0.49" x1="0.361" y1="16.137" x2="324.659" y2="16.137"/>
		<line fill="none" stroke="#000000" stroke-width="0.245" x1="0.361" y1="24.205" x2="324.659" y2="24.205"/>
		<line fill="none" stroke="#000000" stroke-width="0.245" x1="0.361" y1="32.334" x2="324.659" y2="32.334"/>
		<line fill="none" stroke="#000000" stroke-width="0.245" x1="0.361" y1="40.402" x2="324.659" y2="40.402"/>
		<line fill="none" stroke="#000000" stroke-width="0.49" x1="0.361" y1="48.47" x2="324.659" y2="48.47"/>
		<line fill="none" stroke="#000000" stroke-width="0.245" x1="0.361" y1="56.598" x2="324.659" y2="56.598"/>
		<line fill="none" stroke="#000000" stroke-width="0.245" x1="0.361" y1="64.667" x2="324.659" y2="64.667"/>
		<line fill="none" stroke="#000000" stroke-width="0.49" x1="0.361" y1="80.864" x2="324.659" y2="80.864"/>
		<line fill="none" stroke="#000000" stroke-width="0.245" x1="0.361" y1="88.932" x2="324.659" y2="88.932"/>
		<line fill="none" stroke="#000000" stroke-width="0.245" x1="0.361" y1="97.001" x2="324.659" y2="97.001"/>
		<line fill="none" stroke="#000000" stroke-width="0.245" x1="0.361" y1="105.129" x2="324.659" y2="105.129"/>
		<line fill="none" stroke="#000000" stroke-width="0.49" x1="0.361" y1="113.198" x2="324.659" y2="113.198"/>
		<line fill="none" stroke="#000000" stroke-width="0.245" x1="0.361" y1="121.266" x2="324.659" y2="121.266"/>
		<line fill="none" stroke="#000000" stroke-width="0.245" x1="0.361" y1="129.395" x2="324.659" y2="129.395"/>
		<line fill="none" stroke="#000000" stroke-width="0.245" x1="0.361" y1="137.463" x2="324.659" y2="137.463"/>
		<line fill="none" stroke="#000000" stroke-width="0.49" x1="0.361" y1="145.531" x2="324.659" y2="145.531"/>
		<line fill="none" stroke="#000000" stroke-width="0.245" x1="0.361" y1="153.6" x2="324.659" y2="153.6"/>
		<line fill="none" stroke="#000000" stroke-width="0.245" x1="0.361" y1="161.728" x2="324.659" y2="161.728"/>
		<line fill="none" stroke="#000000" stroke-width="0.245" x1="0.361" y1="169.796" x2="324.659" y2="169.796"/>
		<line fill="none" stroke="#000000" stroke-width="0.49" x1="0.361" y1="177.864" x2="324.659" y2="177.864"/>
		<line fill="none" stroke="#000000" stroke-width="0.245" x1="0.361" y1="185.993" x2="324.659" y2="185.993"/>
		<line fill="none" stroke="#000000" stroke-width="0.245" x1="0.361" y1="194.061" x2="324.659" y2="194.061"/>
		<line fill="none" stroke="#000000" stroke-width="0.245" x1="0.361" y1="202.129" x2="324.659" y2="202.129"/>
		<line fill="none" stroke="#000000" stroke-width="0.49" x1="0.361" y1="210.257" x2="324.659" y2="210.257"/>
		<line fill="none" stroke="#000000" stroke-width="0.245" x1="0.361" y1="218.328" x2="324.659" y2="218.328"/>
		<line fill="none" stroke="#000000" stroke-width="0.245" x1="0.361" y1="226.335" x2="324.659" y2="226.335"/>
		<line fill="none" stroke="#000000" stroke-width="0.245" x1="0.361" y1="234.464" x2="324.659" y2="234.464"/>
		<line fill="none" stroke="#000000" stroke-width="0.49" x1="0.361" y1="242.53" x2="324.659" y2="242.53"/>
		<line fill="none" stroke="#000000" stroke-width="0.245" x1="0.361" y1="250.599" x2="324.659" y2="250.599"/>
		<line fill="none" stroke="#000000" stroke-width="0.245" x1="0.361" y1="258.728" x2="324.659" y2="258.728"/>
	</g>
	<line fill="none" stroke="#000000" stroke-width="0.49" x1="1.023" y1="288.533" x2="325.321" y2="288.533"/>
	<line fill="none" stroke="#000000" stroke-width="0.245" x1="1.023" y1="301.117" x2="325.321" y2="301.117"/>
	<line fill="none" stroke="#000000" stroke-width="0.49" x1="1.023" y1="313.761" x2="325.321" y2="313.761"/>
	<line fill="none" stroke="#000000" stroke-width="0.245" x1="1.023" y1="326.345" x2="325.321" y2="326.345"/>
	<line fill="none" stroke="#000000" stroke-width="0.49" x1="1.023" y1="338.992" x2="325.321" y2="338.992"/>
	<line fill="none" stroke="#000000" stroke-width="0.245" x1="1.023" y1="351.574" x2="325.321" y2="351.574"/>
	<line fill="none" stroke="#000000" stroke-width="0.49" x1="1.023" y1="364.218" x2="325.321" y2="364.218"/>
	<line fill="none" stroke="#000000" stroke-width="0.245" x1="1.023" y1="376.804" x2="325.321" y2="376.804"/>
	<line fill="none" stroke="#000000" stroke-width="0.49" x1="1.023" y1="389.447" x2="325.321" y2="389.447"/>
	<line fill="none" stroke="#000000" stroke-width="0.49" x1="1.023" y1="415.761" x2="325.321" y2="415.761"/>
	<line fill="none" stroke="#000000" stroke-width="0.245" x1="1.023" y1="401.429" x2="325.321" y2="401.429"/>
	<g>
		<line fill="none" stroke="#000000" stroke-width="0.245" x1="14.149" y1="0.542" x2="14.149" y2="258.126"/>
		<line fill="none" stroke="#000000" stroke-width="0.245" x1="30.588" y1="0.542" x2="30.588" y2="258.126"/>
		<line fill="none" stroke="#000000" stroke-width="0.245" x1="46.965" y1="0.542" x2="46.965" y2="258.126"/>
		<line fill="none" stroke="#000000" stroke-width="0.245" x1="63.403" y1="0.542" x2="63.403" y2="258.126"/>
		<line fill="none" stroke="#000000" stroke-width="0.245" x1="79.78" y1="0.542" x2="79.78" y2="258.126"/>
		<line fill="none" stroke="#000000" stroke-width="0.245" x1="96.218" y1="0.542" x2="96.218" y2="258.126"/>
		<line fill="none" stroke="#000000" stroke-width="0.245" x1="112.655" y1="0.542" x2="112.655" y2="258.126"/>
		<line fill="none" stroke="#000000" stroke-width="0.245" x1="129.033" y1="0.542" x2="129.033" y2="258.126"/>
		<line fill="none" stroke="#000000" stroke-width="0.245" x1="145.471" y1="0.542" x2="145.471" y2="258.126"/>
		<line fill="none" stroke="#000000" stroke-width="0.245" x1="161.908" y1="0.542" x2="161.908" y2="258.126"/>
		<line fill="none" stroke="#000000" stroke-width="0.245" x1="178.226" y1="0.542" x2="178.226" y2="258.126"/>
		<line fill="none" stroke="#000000" stroke-width="0.245" x1="194.664" y1="0.542" x2="194.664" y2="258.126"/>
		<line fill="none" stroke="#000000" stroke-width="0.245" x1="211.041" y1="0.542" x2="211.041" y2="258.126"/>
		<line fill="none" stroke="#000000" stroke-width="0.245" x1="227.478" y1="0.542" x2="227.478" y2="258.126"/>
		<line fill="none" stroke="#000000" stroke-width="0.245" x1="243.916" y1="0.542" x2="243.916" y2="258.126"/>
		<line fill="none" stroke="#000000" stroke-width="0.245" x1="260.292" y1="0.542" x2="260.292" y2="258.126"/>
		<line fill="none" stroke="#000000" stroke-width="0.245" x1="276.73" y1="0.542" x2="276.73" y2="258.126"/>
		<line fill="none" stroke="#000000" stroke-width="0.245" x1="293.169" y1="0.542" x2="293.169" y2="258.126"/>
		<line fill="none" stroke="#000000" stroke-width="0.245" x1="309.548" y1="0.542" x2="309.548" y2="258.126"/>
		<line fill="none" stroke="#000000" stroke-width="0.245" x1="325.984" y1="0.542" x2="325.984" y2="258.126"/>
	</g>
	<line fill="none" stroke="#000000" stroke-width="0.1058" x1="13.548" y1="288.593" x2="13.006" y2="413.412"/>
	<line fill="none" stroke="#000000" stroke-width="0.245" x1="29.925" y1="288.593" x2="29.925" y2="416.845"/>
	<line fill="none" stroke="#000000" stroke-width="0.245" x1="46.242" y1="288.593" x2="46.242" y2="416.845"/>
	<line fill="none" stroke="#000000" stroke-width="0.245" x1="62.56" y1="288.593" x2="62.56" y2="416.845"/>
	<line fill="none" stroke="#000000" stroke-width="0.245" x1="78.877" y1="288.593" x2="78.877" y2="416.845"/>
	<line fill="none" stroke="#000000" stroke-width="0.245" x1="95.194" y1="288.593" x2="95.194" y2="416.845"/>
	<line fill="none" stroke="#000000" stroke-width="0.245" x1="111.511" y1="288.593" x2="111.511" y2="416.845"/>
	<line fill="none" stroke="#000000" stroke-width="0.245" x1="127.829" y1="288.593" x2="127.829" y2="416.845"/>
	<line fill="none" stroke="#000000" stroke-width="0.245" x1="144.146" y1="288.593" x2="144.146" y2="416.845"/>
	<line fill="none" stroke="#000000" stroke-width="0.245" x1="160.463" y1="288.593" x2="160.463" y2="416.845"/>
	<line fill="none" stroke="#000000" stroke-width="0.245" x1="176.78" y1="288.593" x2="176.78" y2="416.845"/>
	<line fill="none" stroke="#000000" stroke-width="0.245" x1="193.098" y1="288.593" x2="193.098" y2="416.845"/>
	<line fill="none" stroke="#000000" stroke-width="0.245" x1="209.416" y1="288.593" x2="209.416" y2="416.845"/>
	<line fill="none" stroke="#000000" stroke-width="0.245" x1="225.732" y1="288.593" x2="225.732" y2="416.845"/>
	<line fill="none" stroke="#000000" stroke-width="0.245" x1="242.049" y1="288.593" x2="242.049" y2="416.845"/>
	<line fill="none" stroke="#000000" stroke-width="0.245" x1="258.367" y1="288.593" x2="258.367" y2="416.845"/>
	<line fill="none" stroke="#000000" stroke-width="0.245" x1="274.685" y1="288.593" x2="274.685" y2="416.845"/>
	<line fill="none" stroke="#000000" stroke-width="0.245" x1="291.001" y1="288.593" x2="291.001" y2="416.845"/>
	<line fill="none" stroke="#000000" stroke-width="0.245" x1="307.319" y1="288.593" x2="307.319" y2="416.845"/>
	<line fill="none" stroke="#000000" stroke-width="0.245" x1="323.697" y1="288.593" x2="323.697" y2="416.845"/>
	<rect x="152.876" y="284.138" fill="#FFFFFF" width="15.656" height="8.552"/>
	<rect x="152.516" y="309.066" fill="#FFFFFF" width="15.654" height="8.551"/>
	<rect x="152.094" y="333.992" fill="#FFFFFF" width="15.654" height="8.551"/>
	<rect x="151.732" y="358.921" fill="#FFFFFF" width="15.657" height="8.549"/>
	<rect x="152.456" y="384.39" fill="#FFFFFF" width="15.653" height="8.551"/>
	<rect x="153.178" y="409.859" fill="#FFFFFF" width="15.653" height="8.551"/>
	<g>
		<path d="M156.61,291.303h-0.723v-4.697c-0.182,0.183-0.422,0.362-0.724,0.544c-0.301,0.18-0.542,0.301-0.782,0.359v-0.723
			c0.422-0.182,0.782-0.422,1.084-0.66c0.302-0.303,0.542-0.543,0.662-0.846h0.482V291.303L156.61,291.303z"/>
		<path d="M160.463,285.28c0.303,0,0.604,0.062,0.844,0.183c0.24,0.182,0.422,0.361,0.602,0.603
			c0.121,0.239,0.241,0.541,0.361,0.903c0.06,0.3,0.12,0.781,0.12,1.385c0,0.723-0.061,1.266-0.181,1.686
			c-0.181,0.424-0.36,0.782-0.662,1.024c-0.302,0.24-0.663,0.36-1.084,0.36v-0.604c0.303,0,0.604-0.18,0.844-0.479
			c0.24-0.362,0.361-1.025,0.361-1.988c0-0.964-0.121-1.625-0.361-1.986c-0.241-0.302-0.542-0.482-0.844-0.482V285.28z
			 M158.477,288.353c0-0.723,0.12-1.266,0.24-1.686c0.12-0.422,0.362-0.783,0.663-1.023c0.241-0.241,0.603-0.363,1.083-0.363l0,0
			v0.604l0,0c-0.36,0-0.602,0.182-0.842,0.421c-0.241,0.424-0.362,1.085-0.362,2.049c0,0.963,0.121,1.626,0.362,1.987
			c0.18,0.301,0.481,0.479,0.842,0.479l0,0v0.604l0,0c-0.602,0-1.022-0.241-1.384-0.663
			C158.717,290.279,158.477,289.498,158.477,288.353z"/>
		<path d="M165.039,285.28c0.302,0,0.603,0.062,0.843,0.183c0.24,0.182,0.423,0.361,0.604,0.603c0.181,0.239,0.3,0.541,0.36,0.903
			c0.119,0.3,0.119,0.781,0.119,1.385c0,0.723-0.061,1.266-0.181,1.686c-0.18,0.424-0.359,0.782-0.663,1.024
			c-0.3,0.24-0.661,0.36-1.083,0.36v-0.604c0.361,0,0.603-0.18,0.843-0.479c0.24-0.362,0.362-1.025,0.362-1.988
			c0-0.964-0.122-1.625-0.362-1.986c-0.24-0.302-0.48-0.482-0.843-0.482V285.28L165.039,285.28z M163.113,288.353
			c0-0.723,0.06-1.266,0.18-1.686c0.182-0.422,0.362-0.783,0.662-1.023c0.302-0.241,0.662-0.363,1.084-0.363l0,0v0.604l0,0
			c-0.359,0-0.602,0.182-0.843,0.421c-0.241,0.424-0.361,1.085-0.361,2.049c0,0.963,0.12,1.626,0.361,1.987
			c0.241,0.301,0.482,0.479,0.843,0.479l0,0v0.604l0,0c-0.602,0-1.022-0.241-1.384-0.663
			C163.293,290.279,163.113,289.498,163.113,288.353z"/>
		<path d="M158.116,310.511c0.542,0,0.963,0.119,1.264,0.48c0.302,0.301,0.481,0.662,0.481,1.084c0,0.301-0.062,0.541-0.241,0.723
			c-0.121,0.182-0.362,0.361-0.663,0.48c0.362,0.121,0.663,0.303,0.842,0.604c0.182,0.242,0.303,0.541,0.303,0.902
			c0,0.543-0.182,0.963-0.542,1.326c-0.362,0.359-0.844,0.479-1.445,0.479l0,0v-0.602l0,0c0.361,0,0.662-0.061,0.903-0.303
			c0.239-0.238,0.36-0.539,0.36-0.902c0-0.299-0.121-0.602-0.36-0.842c-0.242-0.24-0.542-0.361-0.903-0.361v-0.602l0,0
			c0.301,0,0.542-0.061,0.722-0.242c0.183-0.18,0.242-0.42,0.242-0.66c0-0.301-0.06-0.482-0.242-0.662
			c-0.18-0.182-0.421-0.303-0.722-0.303v-0.6H158.116z M157.272,313.279c-0.301-0.119-0.481-0.299-0.662-0.48
			c-0.121-0.182-0.181-0.48-0.181-0.723c0-0.482,0.12-0.844,0.422-1.146c0.361-0.299,0.723-0.42,1.265-0.42l0,0v0.604
			c-0.241,0-0.483,0.061-0.663,0.24c-0.181,0.182-0.302,0.422-0.302,0.662c0,0.303,0.121,0.541,0.302,0.723
			c0.18,0.182,0.361,0.24,0.663,0.24v0.604l0,0c-0.362,0-0.603,0.121-0.844,0.361s-0.361,0.48-0.361,0.842
			c0,0.24,0.061,0.422,0.18,0.604c0.061,0.18,0.241,0.359,0.423,0.48c0.181,0.121,0.421,0.121,0.603,0.121v0.602
			c-0.603,0-1.024-0.121-1.385-0.48c-0.362-0.363-0.542-0.783-0.542-1.326c0-0.359,0.061-0.723,0.241-0.963
			C156.67,313.521,156.911,313.341,157.272,313.279z"/>
		<path d="M162.751,310.511c0.302,0,0.542,0.061,0.782,0.18c0.242,0.119,0.482,0.303,0.604,0.543
			c0.181,0.301,0.301,0.543,0.421,0.902c0.06,0.359,0.121,0.844,0.121,1.445c0,0.662-0.062,1.262-0.241,1.686
			c-0.12,0.422-0.361,0.781-0.662,1.023c-0.242,0.242-0.604,0.301-1.024,0.301v-0.602c0.302,0,0.603-0.121,0.782-0.482
			c0.242-0.301,0.362-0.963,0.362-1.926c0-1.023-0.12-1.627-0.362-1.988c-0.181-0.301-0.48-0.48-0.782-0.48V310.511z
			 M160.825,313.582c0-0.725,0.06-1.264,0.241-1.748c0.12-0.42,0.362-0.721,0.603-0.961c0.302-0.242,0.662-0.361,1.083-0.361l0,0
			v0.602l0,0c-0.302,0-0.603,0.121-0.783,0.422c-0.24,0.361-0.421,1.023-0.421,2.047c0,0.963,0.121,1.627,0.361,1.928
			c0.241,0.361,0.542,0.48,0.843,0.48l0,0v0.602l0,0c-0.542,0-1.022-0.18-1.324-0.602
			C161.005,315.507,160.825,314.664,160.825,313.582z"/>
		<path d="M159.981,337.185l-0.724,0.061c-0.06-0.24-0.18-0.482-0.301-0.604c-0.181-0.238-0.422-0.301-0.723-0.301h-0.061v-0.602
			c0,0,0.061,0,0.12,0c0.482,0,0.844,0.119,1.145,0.359C159.741,336.402,159.921,336.763,159.981,337.185L159.981,337.185z
			 M158.175,337.845c0.061,0,0.12,0,0.12,0c0.542,0,0.903,0.182,1.266,0.543c0.36,0.361,0.542,0.844,0.542,1.385
			c0,0.361-0.121,0.725-0.241,1.086c-0.181,0.299-0.422,0.539-0.663,0.721c-0.301,0.182-0.603,0.242-0.963,0.242h-0.061v-0.604l0,0
			c0.361,0,0.603-0.121,0.845-0.359c0.18-0.242,0.301-0.604,0.301-1.023c0-0.424-0.121-0.725-0.301-0.963
			c-0.242-0.242-0.483-0.363-0.845-0.363l0,0V337.845L158.175,337.845z M158.175,336.341c-0.24,0-0.421,0.062-0.542,0.182
			c-0.24,0.18-0.42,0.42-0.542,0.723c-0.119,0.361-0.24,0.781-0.24,1.385c0.181-0.242,0.421-0.48,0.663-0.604
			c0.181-0.119,0.421-0.182,0.661-0.182v0.662c-0.36,0-0.602,0.121-0.843,0.363c-0.241,0.24-0.36,0.541-0.36,0.902
			c0,0.24,0.06,0.541,0.18,0.723c0.121,0.24,0.241,0.422,0.422,0.541c0.181,0.121,0.361,0.182,0.602,0.182v0.604
			c-0.602,0-1.084-0.242-1.444-0.664c-0.422-0.48-0.604-1.203-0.604-2.227c0-1.145,0.241-1.988,0.663-2.527
			c0.361-0.424,0.783-0.664,1.385-0.664V336.341L158.175,336.341z"/>
		<path d="M162.751,335.74c0.302,0,0.542,0.059,0.782,0.18c0.242,0.119,0.482,0.301,0.604,0.541
			c0.181,0.242,0.301,0.543,0.421,0.904c0.06,0.359,0.121,0.842,0.121,1.385c0,0.723-0.062,1.324-0.241,1.746
			c-0.12,0.422-0.361,0.723-0.662,0.963c-0.242,0.242-0.604,0.363-1.024,0.363v-0.605c0.302,0,0.603-0.18,0.782-0.48
			c0.242-0.303,0.362-0.963,0.362-1.986c0-0.963-0.12-1.625-0.362-1.928c-0.181-0.361-0.48-0.48-0.782-0.48V335.74z M160.825,338.75
			c0-0.662,0.06-1.266,0.241-1.686c0.12-0.422,0.362-0.783,0.603-1.025c0.302-0.18,0.662-0.299,1.083-0.299l0,0v0.602l0,0
			c-0.302,0-0.603,0.119-0.783,0.422c-0.24,0.361-0.421,1.023-0.421,1.986c0,1.023,0.121,1.686,0.361,1.986
			c0.241,0.301,0.542,0.48,0.843,0.48l0,0v0.605l0,0c-0.542,0-1.022-0.184-1.324-0.605
			C161.005,340.736,160.825,339.894,160.825,338.75z"/>
		<path d="M158.536,366.929v-1.443h-0.963v-0.664h0.963v-2.711l-0.963,1.387v-1.023l1.084-1.506h0.602v3.855h0.783v0.662h-0.783
			v1.443H158.536L158.536,366.929z M157.573,365.484h-1.626v-0.662l1.626-2.35v1.023l-0.903,1.324h0.903V365.484z"/>
		<path d="M162.751,360.908c0.302,0,0.542,0.061,0.782,0.24c0.242,0.121,0.482,0.301,0.604,0.541
			c0.181,0.24,0.301,0.541,0.421,0.902c0.06,0.303,0.121,0.783,0.121,1.385c0,0.725-0.062,1.266-0.241,1.688
			c-0.12,0.482-0.361,0.783-0.662,1.023c-0.242,0.24-0.604,0.359-1.024,0.359v-0.6c0.302,0,0.603-0.184,0.782-0.484
			c0.242-0.357,0.362-1.021,0.362-1.986c0-0.963-0.12-1.627-0.362-1.926c-0.181-0.361-0.48-0.543-0.782-0.543V360.908z
			 M160.825,363.978c0-0.725,0.06-1.264,0.241-1.686c0.12-0.422,0.362-0.783,0.603-1.023c0.302-0.24,0.662-0.361,1.083-0.361l0,0
			v0.602l0,0c-0.302,0-0.603,0.182-0.783,0.482c-0.24,0.359-0.421,1.023-0.421,1.986s0.121,1.627,0.361,1.986
			c0.241,0.301,0.542,0.482,0.843,0.482l0,0v0.602l0,0c-0.542,0-1.022-0.24-1.324-0.602
			C161.005,365.904,160.825,365.121,160.825,363.978z"/>
		<path d="M160.042,391.435v0.723h-3.974c0-0.182,0-0.363,0.12-0.543c0.061-0.24,0.241-0.48,0.481-0.781
			c0.181-0.242,0.542-0.541,0.962-0.902c0.604-0.543,1.084-0.965,1.266-1.266c0.241-0.301,0.36-0.602,0.36-0.904
			c0-0.238-0.119-0.541-0.301-0.721c-0.181-0.182-0.48-0.303-0.842-0.303c-0.302,0-0.603,0.121-0.844,0.303
			c-0.182,0.242-0.301,0.541-0.301,0.902l-0.783-0.062c0.061-0.6,0.301-1.021,0.603-1.322c0.361-0.303,0.783-0.422,1.385-0.422
			c0.542,0,1.023,0.18,1.324,0.48c0.362,0.303,0.542,0.723,0.542,1.205c0,0.24-0.06,0.482-0.18,0.662
			c-0.062,0.24-0.241,0.48-0.481,0.781c-0.24,0.242-0.603,0.602-1.145,1.025c-0.421,0.359-0.722,0.602-0.843,0.781
			c-0.12,0.121-0.241,0.24-0.302,0.361h2.951V391.435z"/>
		<path d="M162.751,386.136c0.302,0,0.542,0.061,0.782,0.18c0.242,0.119,0.482,0.361,0.604,0.604
			c0.181,0.24,0.301,0.543,0.421,0.842c0.06,0.363,0.121,0.846,0.121,1.445c0,0.725-0.062,1.266-0.241,1.688
			c-0.12,0.422-0.361,0.783-0.662,1.023c-0.242,0.24-0.604,0.361-1.024,0.361v-0.604c0.302,0,0.603-0.182,0.782-0.541
			c0.242-0.301,0.362-0.965,0.362-1.928c0-1.023-0.12-1.625-0.362-1.986c-0.181-0.301-0.48-0.482-0.782-0.482V386.136z
			 M160.825,389.207c0-0.723,0.06-1.264,0.241-1.746c0.12-0.422,0.362-0.723,0.603-0.963c0.302-0.242,0.662-0.361,1.083-0.361l0,0
			v0.602l0,0c-0.302,0-0.603,0.182-0.783,0.422c-0.24,0.361-0.421,1.084-0.421,2.047s0.121,1.627,0.361,1.928
			c0.241,0.361,0.542,0.543,0.843,0.543l0,0v0.602l0,0c-0.542,0-1.022-0.238-1.324-0.662
			C161.005,391.134,160.825,390.351,160.825,389.207z"/>
		<path d="M160.463,411.365c0.303,0,0.604,0.061,0.844,0.182c0.24,0.119,0.422,0.299,0.602,0.539
			c0.121,0.242,0.241,0.543,0.361,0.904c0.06,0.359,0.12,0.844,0.12,1.443c0,0.664-0.061,1.266-0.181,1.688
			c-0.181,0.42-0.36,0.725-0.662,0.963c-0.302,0.242-0.663,0.363-1.084,0.363v-0.604c0.303,0,0.604-0.121,0.844-0.482
			c0.24-0.299,0.361-0.963,0.361-1.926c0-1.023-0.121-1.688-0.361-1.988c-0.241-0.299-0.542-0.48-0.844-0.48V411.365z
			 M158.477,414.435c0-0.723,0.12-1.322,0.24-1.744c0.12-0.424,0.362-0.783,0.663-0.967c0.241-0.238,0.603-0.359,1.083-0.359l0,0
			v0.602l0,0c-0.36,0-0.602,0.121-0.842,0.422c-0.241,0.361-0.362,1.023-0.362,2.047c0,0.965,0.121,1.629,0.362,1.928
			c0.18,0.361,0.481,0.482,0.842,0.482l0,0v0.604l0,0c-0.602,0-1.022-0.184-1.384-0.604
			C158.717,416.361,158.477,415.519,158.477,414.435z"/>
	</g>
	<path fill="none" stroke="#000000" stroke-width="0.98" d="M0,387.097c6.984,0,18.305,1.326,19.81-6.502
		c1.324-7.285,9.935-25.105,15.113-29.08c8.61-6.805,22.579-5.299,22.579,7.467c0,3.854,7.828,13.127,9.814,17.279
		c2.167,4.334,5.66,6.322,9.153,9.814c3.611,3.674,16.075,2.166,21.917,2.166c8.972-0.48,22.94,1.326,22.94-11.139
		c0-3.131,9.633-33.416,12.463-33.416c6.323,0,9.153,1.986,13.789,1.986c6.985,0,3.312,5.84,6.502,5.84
		c2.951,3.492,2.951,5.48,2.951,10.658c0,5.299,5.841,11.801,5.841,17.098c0,3.676,15.055,8.973,17.884,8.973
		c8.488,0,16.258-0.18,23.423-1.807c9.333-2.348,18.123,4.457,27.095,0c4.335-2.166,8.79-15.836,8.79-20.951
		c0.36-2.65,3.01-5.182,4.815-6.986c1.987-1.984,1.325-3.008,1.325-5.838c0-3.494,7.345-7.467,9.151-10.6
		c1.325-2.348,3.674,2.287,5.842,1.807c1.987-0.48,5.118-3.312,5.118,1.326c0,4.637,5.357,3.854,5.357,6.02v10.418
		c0,1.684,0.965,2.346,2.77,2.346c0.544,0,0.361,6.504,0.361,7.469c0,1.865,4.154,1.324,4.154,2.83c0,1.686-0.48,3.309-0.48,4.994
		c0,3.133,9.935,6.145,12.585,6.145c1.203,1.988,4.696,1.988,6.2,0.842c5.479-4.154,7.105,1.326,11.74,1.326h14.633"/>
	<rect x="152.516" y="11.682" fill="#FFFFFF" width="15.774" height="8.489"/>
	<rect x="153.359" y="44.256" fill="#FFFFFF" width="15.835" height="8.489"/>
	<rect x="154.261" y="76.769" fill="#FFFFFF" width="15.836" height="8.49"/>
	<rect x="155.165" y="109.284" fill="#FFFFFF" width="15.776" height="8.55"/>
	<rect x="154.322" y="141.256" fill="#FFFFFF" width="15.835" height="8.49"/>
	<rect x="155.225" y="173.83" fill="#FFFFFF" width="15.836" height="8.49"/>
	<rect x="154.984" y="205.802" fill="#FFFFFF" width="15.835" height="8.491"/>
	<rect x="154.743" y="237.714" fill="#FFFFFF" width="15.836" height="8.49"/>
	<g>
		<path d="M159.019,17.883v0.723h-3.976c0-0.181,0-0.362,0.062-0.542c0.12-0.242,0.301-0.542,0.542-0.783
			c0.181-0.301,0.542-0.604,0.902-0.903c0.663-0.542,1.145-0.963,1.325-1.264c0.241-0.301,0.361-0.602,0.361-0.903
			c0-0.301-0.12-0.542-0.301-0.723c-0.241-0.241-0.481-0.301-0.844-0.301c-0.36,0-0.603,0.12-0.842,0.301
			c-0.181,0.241-0.302,0.542-0.302,0.903l-0.783-0.121c0.061-0.542,0.241-0.963,0.604-1.264c0.36-0.301,0.782-0.422,1.384-0.422
			c0.542,0,1.023,0.121,1.325,0.482c0.36,0.301,0.542,0.662,0.542,1.144c0,0.241-0.062,0.481-0.183,0.723
			c-0.06,0.241-0.24,0.481-0.48,0.722c-0.241,0.241-0.604,0.603-1.145,1.084c-0.422,0.361-0.724,0.602-0.844,0.722
			s-0.241,0.301-0.301,0.422H159.019z"/>
		<path d="M161.728,12.584c0.36,0,0.602,0.06,0.842,0.181c0.241,0.121,0.422,0.301,0.542,0.542c0.18,0.241,0.301,0.542,0.361,0.903
			c0.119,0.362,0.181,0.843,0.181,1.445c0,0.663-0.121,1.265-0.241,1.686c-0.121,0.421-0.362,0.723-0.603,0.963
			c-0.241,0.241-0.603,0.361-1.083,0.361v-0.602c0.36,0,0.662-0.181,0.842-0.482c0.241-0.301,0.362-0.963,0.362-1.927
			c0-1.023-0.121-1.686-0.362-1.987c-0.181-0.301-0.481-0.481-0.842-0.481L161.728,12.584L161.728,12.584z M159.8,15.655
			c0-0.722,0.062-1.324,0.182-1.746c0.181-0.422,0.421-0.784,0.663-0.963c0.301-0.241,0.662-0.362,1.084-0.362l0,0v0.603l0,0
			c-0.301,0-0.604,0.12-0.783,0.422c-0.241,0.361-0.421,1.023-0.421,2.046c0,0.963,0.12,1.626,0.36,1.927
			c0.241,0.302,0.542,0.482,0.844,0.482l0,0v0.602l0,0c-0.542,0-1.024-0.181-1.325-0.602C159.981,17.582,159.8,16.739,159.8,15.655z
			"/>
		<path d="M166.364,12.584c0.302,0,0.602,0.06,0.843,0.181c0.242,0.121,0.422,0.301,0.603,0.542c0.12,0.241,0.241,0.542,0.361,0.903
			c0.061,0.362,0.12,0.843,0.12,1.445c0,0.663-0.061,1.265-0.24,1.686c-0.121,0.421-0.361,0.723-0.602,0.963
			c-0.302,0.241-0.664,0.361-1.085,0.361v-0.602c0.302,0,0.602-0.181,0.843-0.482c0.183-0.301,0.302-0.963,0.302-1.927
			c0-1.023-0.119-1.686-0.302-1.987c-0.241-0.301-0.541-0.481-0.843-0.481V12.584L166.364,12.584z M164.377,15.655
			c0-0.722,0.062-1.324,0.24-1.746c0.12-0.422,0.361-0.784,0.663-0.963c0.242-0.241,0.602-0.362,1.084-0.362l0,0v0.603h-0.061
			c-0.303,0-0.603,0.12-0.781,0.422c-0.242,0.361-0.363,1.023-0.363,2.046c0,0.963,0.121,1.626,0.302,1.927
			c0.241,0.302,0.541,0.482,0.903,0.482l0,0v0.602l0,0c-0.603,0-1.084-0.181-1.386-0.602
			C164.558,17.582,164.377,16.739,164.377,15.655z"/>
		<path d="M157.633,51.059h-0.781v-4.636c-0.181,0.12-0.362,0.301-0.663,0.481c-0.301,0.18-0.542,0.301-0.783,0.361v-0.662
			c0.422-0.242,0.783-0.482,1.083-0.723c0.302-0.301,0.542-0.542,0.663-0.783h0.48L157.633,51.059L157.633,51.059z"/>
		<path d="M161.427,45.098c0.542,0,0.962,0.12,1.264,0.422c0.301,0.301,0.421,0.663,0.421,1.144c0,0.241-0.062,0.482-0.121,0.723
			c-0.181,0.18-0.422,0.361-0.663,0.421c0.362,0.12,0.604,0.361,0.724,0.602c0.24,0.301,0.301,0.603,0.301,0.963
			c0,0.481-0.181,0.963-0.481,1.264c-0.36,0.361-0.843,0.542-1.445,0.542l0,0v-0.603h0.061c0.301,0,0.602-0.12,0.842-0.361
			c0.241-0.181,0.362-0.482,0.362-0.843c0-0.361-0.121-0.663-0.362-0.844c-0.241-0.24-0.542-0.361-0.902-0.361v-0.603h0.061
			c0.241,0,0.48-0.12,0.662-0.301c0.181-0.181,0.301-0.361,0.301-0.662c0-0.242-0.12-0.482-0.301-0.663
			c-0.18-0.181-0.421-0.241-0.723-0.241v-0.599H161.427z M160.644,47.808c-0.302-0.061-0.542-0.242-0.724-0.421
			c-0.121-0.241-0.181-0.482-0.181-0.783c0-0.421,0.121-0.783,0.482-1.084c0.301-0.302,0.722-0.422,1.203-0.422l0,0v0.603
			c-0.241,0-0.481,0.06-0.662,0.241c-0.182,0.18-0.303,0.421-0.303,0.663c0,0.241,0.121,0.481,0.303,0.662
			c0.18,0.181,0.421,0.301,0.662,0.301v0.603l0,0c-0.361,0-0.603,0.121-0.843,0.301c-0.241,0.241-0.36,0.542-0.36,0.903
			c0,0.181,0.06,0.421,0.18,0.602c0.06,0.181,0.241,0.361,0.422,0.421c0.181,0.121,0.421,0.181,0.603,0.181v0.603
			c-0.542,0-1.023-0.181-1.386-0.542c-0.36-0.301-0.542-0.783-0.542-1.264c0-0.421,0.062-0.723,0.301-1.023
			C159.981,48.109,160.283,47.928,160.644,47.808z"/>
		<path d="M166.062,45.098c0.302,0,0.604,0.06,0.843,0.181c0.242,0.121,0.422,0.301,0.604,0.542c0.12,0.241,0.24,0.542,0.36,0.903
			c0.061,0.361,0.12,0.842,0.12,1.385c0,0.722-0.061,1.264-0.24,1.746c-0.12,0.422-0.359,0.723-0.602,0.963
			c-0.302,0.241-0.662,0.362-1.085,0.362v-0.603c0.302,0,0.604-0.181,0.843-0.482c0.181-0.301,0.302-0.963,0.302-1.986
			c0-0.963-0.121-1.626-0.302-1.927c-0.239-0.362-0.541-0.482-0.843-0.482V45.098L166.062,45.098z M164.076,48.109
			c0-0.663,0.062-1.265,0.241-1.686c0.12-0.422,0.361-0.783,0.661-1.023c0.242-0.182,0.604-0.302,1.084-0.302l0,0v0.603h-0.062
			c-0.3,0-0.602,0.12-0.78,0.421c-0.242,0.362-0.362,1.024-0.362,1.988c0,1.023,0.12,1.686,0.301,1.986
			c0.241,0.301,0.543,0.482,0.903,0.482l0,0v0.603l0,0c-0.603,0-1.084-0.181-1.384-0.603
			C164.257,50.096,164.076,49.253,164.076,48.109z"/>
		<path d="M157.935,83.935h-0.723v-4.637c-0.181,0.12-0.422,0.302-0.724,0.482c-0.301,0.181-0.542,0.301-0.782,0.361v-0.723
			c0.421-0.18,0.782-0.421,1.084-0.662c0.301-0.301,0.542-0.542,0.663-0.843h0.481V83.935z"/>
		<path d="M163.594,79.418l-0.723,0.061c-0.061-0.301-0.121-0.481-0.241-0.602c-0.182-0.241-0.481-0.301-0.723-0.301
			c-0.06,0-0.06,0-0.12,0v-0.602c0.061,0,0.12-0.06,0.12-0.06c0.481,0,0.903,0.181,1.144,0.421
			C163.353,78.576,163.534,78.998,163.594,79.418L163.594,79.418z M161.788,80.081c0.061,0,0.12,0,0.182,0
			c0.48,0,0.902,0.181,1.203,0.542c0.302,0.361,0.482,0.842,0.482,1.385c0,0.361-0.062,0.722-0.241,1.023
			c-0.121,0.361-0.362,0.602-0.603,0.783c-0.302,0.181-0.603,0.241-0.963,0.241h-0.061v-0.602h0.061
			c0.301,0,0.602-0.121,0.782-0.362c0.241-0.241,0.361-0.602,0.361-1.023c0-0.421-0.12-0.723-0.361-0.963
			c-0.182-0.241-0.481-0.362-0.782-0.362h-0.061V80.081z M161.788,78.576c-0.181,0-0.36,0.06-0.542,0.181
			c-0.18,0.181-0.421,0.421-0.542,0.722c-0.12,0.301-0.18,0.783-0.18,1.385c0.18-0.241,0.36-0.482,0.662-0.604
			c0.181-0.12,0.422-0.181,0.603-0.181v0.662c-0.301,0-0.603,0.121-0.843,0.362c-0.18,0.241-0.301,0.542-0.301,0.903
			c0,0.241,0.06,0.482,0.121,0.722c0.12,0.241,0.301,0.422,0.48,0.542c0.183,0.12,0.362,0.181,0.542,0.181v0.602
			c-0.542,0-1.022-0.241-1.444-0.663c-0.361-0.481-0.543-1.204-0.543-2.228c0-1.144,0.182-1.987,0.604-2.529
			c0.362-0.421,0.843-0.662,1.385-0.662v0.604H161.788z"/>
		<path d="M166.364,77.914c0.302,0,0.602,0.121,0.843,0.241c0.242,0.121,0.422,0.302,0.603,0.542c0.181,0.241,0.3,0.542,0.361,0.903
			c0.12,0.361,0.12,0.782,0.12,1.384c0,0.722-0.061,1.265-0.183,1.746c-0.18,0.422-0.359,0.724-0.659,0.964
			c-0.302,0.241-0.664,0.361-1.085,0.361v-0.602c0.302,0,0.602-0.181,0.843-0.483c0.242-0.361,0.36-0.962,0.36-1.986
			c0-0.963-0.118-1.626-0.36-1.927c-0.241-0.361-0.48-0.482-0.843-0.482V77.914z M164.377,80.984c0-0.663,0.12-1.264,0.24-1.686
			c0.182-0.421,0.361-0.782,0.663-1.023c0.302-0.241,0.662-0.361,1.084-0.361l0,0v0.662l0,0c-0.362,0-0.603,0.121-0.842,0.422
			c-0.242,0.361-0.363,1.023-0.363,1.987c0,1.024,0.121,1.625,0.363,1.986c0.239,0.302,0.479,0.483,0.842,0.483l0,0v0.602l0,0
			c-0.603,0-1.023-0.181-1.386-0.602C164.617,82.911,164.377,82.128,164.377,80.984z"/>
		<path d="M157.814,116.208h-0.783v-4.696c-0.181,0.181-0.361,0.301-0.663,0.482c-0.301,0.18-0.542,0.301-0.782,0.361v-0.662
			c0.421-0.242,0.782-0.422,1.084-0.724c0.302-0.301,0.542-0.542,0.662-0.782h0.482V116.208z"/>
		<path d="M162.029,116.208v-1.445h-0.963v-0.662h0.963v-2.71l-0.963,1.325v-1.023l1.083-1.506h0.603v3.914h0.782v0.662h-0.782
			v1.445H162.029z M161.065,114.763h-1.626v-0.662l1.626-2.408v1.023l-0.903,1.385h0.903V114.763z"/>
		<path d="M166.244,110.187c0.3,0,0.603,0.06,0.842,0.181c0.241,0.121,0.423,0.301,0.604,0.542c0.12,0.241,0.24,0.542,0.361,0.903
			c0.059,0.361,0.12,0.843,0.12,1.445c0,0.662-0.062,1.264-0.241,1.686c-0.12,0.422-0.361,0.723-0.603,0.963
			c-0.302,0.241-0.661,0.362-1.083,0.362v-0.603c0.3,0,0.603-0.181,0.842-0.481c0.241-0.301,0.304-0.963,0.304-1.927
			c0-1.023-0.062-1.686-0.304-1.987c-0.239-0.302-0.542-0.481-0.842-0.481V110.187L166.244,110.187z M164.257,113.258
			c0-0.723,0.062-1.324,0.24-1.746c0.12-0.421,0.361-0.782,0.662-0.963c0.241-0.242,0.604-0.361,1.085-0.361l0,0v0.603h-0.061
			c-0.303,0-0.603,0.12-0.783,0.42c-0.241,0.362-0.361,1.024-0.361,2.048c0,0.963,0.12,1.625,0.302,1.927
			c0.241,0.361,0.541,0.481,0.903,0.481l0,0v0.603l0,0c-0.604,0-1.085-0.181-1.386-0.603
			C164.438,115.185,164.257,114.342,164.257,113.258z"/>
		<path d="M157.935,148.06h-0.723v-4.696c-0.181,0.181-0.422,0.361-0.663,0.542c-0.301,0.181-0.603,0.301-0.782,0.361v-0.722
			c0.421-0.181,0.722-0.422,1.083-0.663c0.301-0.301,0.48-0.542,0.603-0.843h0.481L157.935,148.06L157.935,148.06z"/>
		<path d="M163.655,147.338v0.722h-3.914c0-0.18,0-0.361,0.06-0.481c0.121-0.302,0.303-0.542,0.483-0.843
			c0.241-0.241,0.542-0.542,0.962-0.903c0.663-0.542,1.145-0.963,1.325-1.264c0.241-0.302,0.362-0.603,0.362-0.843
			c0-0.301-0.121-0.542-0.302-0.783c-0.241-0.181-0.481-0.301-0.843-0.301c-0.36,0-0.603,0.12-0.843,0.361
			c-0.18,0.181-0.301,0.482-0.301,0.843l-0.783-0.06c0.06-0.542,0.241-0.963,0.602-1.265c0.362-0.301,0.783-0.481,1.386-0.481
			c0.542,0,1.023,0.181,1.265,0.481c0.361,0.302,0.542,0.723,0.542,1.205c0,0.241-0.061,0.481-0.181,0.722
			c-0.061,0.181-0.241,0.422-0.481,0.723c-0.181,0.241-0.542,0.603-1.084,1.024c-0.421,0.361-0.723,0.662-0.843,0.783
			c-0.121,0.121-0.241,0.241-0.301,0.362h2.889V147.338z"/>
		<path d="M166.364,142.039c0.361,0,0.602,0.06,0.843,0.181c0.242,0.181,0.481,0.362,0.603,0.603c0.181,0.24,0.3,0.542,0.361,0.903
			c0.12,0.301,0.181,0.782,0.181,1.385c0,0.723-0.12,1.264-0.242,1.686c-0.119,0.421-0.359,0.783-0.659,1.023
			c-0.242,0.241-0.604,0.362-1.085,0.362v-0.602c0.361,0,0.661-0.181,0.843-0.482c0.242-0.361,0.36-1.024,0.36-1.987
			c0-0.963-0.118-1.625-0.36-1.987c-0.182-0.301-0.48-0.481-0.843-0.481L166.364,142.039L166.364,142.039z M164.438,145.109
			c0-0.723,0.06-1.264,0.18-1.686c0.182-0.481,0.361-0.782,0.663-1.023c0.302-0.241,0.662-0.362,1.084-0.362l0,0v0.603l0,0
			c-0.362,0-0.603,0.181-0.782,0.421c-0.302,0.422-0.423,1.084-0.423,2.047s0.121,1.626,0.363,1.987
			c0.239,0.301,0.54,0.482,0.842,0.482l0,0v0.602l0,0c-0.542,0-1.023-0.241-1.325-0.663
			C164.617,147.036,164.438,146.253,164.438,145.109z"/>
		<path d="M157.392,180.754h-0.723v-4.697c-0.182,0.181-0.421,0.301-0.663,0.482c-0.301,0.181-0.542,0.302-0.782,0.421v-0.722
			c0.422-0.181,0.782-0.422,1.084-0.723c0.301-0.241,0.542-0.542,0.663-0.782h0.421V180.754z"/>
		<path d="M161.246,174.734c0.362,0,0.604,0.06,0.843,0.181c0.241,0.12,0.481,0.301,0.604,0.542
			c0.181,0.241,0.301,0.542,0.301,0.903c0.121,0.361,0.181,0.843,0.181,1.446c0,0.662-0.12,1.264-0.181,1.686
			c-0.12,0.421-0.361,0.783-0.663,0.963c-0.301,0.241-0.662,0.361-1.084,0.361v-0.602c0.362,0,0.604-0.121,0.843-0.482
			c0.241-0.301,0.361-0.963,0.361-1.926c0-1.023-0.12-1.686-0.361-1.988c-0.181-0.301-0.48-0.481-0.843-0.481V174.734z
			 M159.32,177.805c0-0.723,0.06-1.325,0.18-1.747c0.182-0.42,0.362-0.782,0.663-0.963c0.301-0.241,0.663-0.361,1.083-0.361l0,0
			v0.602l0,0c-0.361,0-0.602,0.121-0.783,0.421c-0.301,0.362-0.421,1.024-0.421,2.048c0,0.963,0.121,1.625,0.361,1.926
			c0.241,0.361,0.542,0.482,0.843,0.482l0,0v0.602l0,0c-0.542,0-1.021-0.18-1.324-0.602
			C159.5,179.731,159.32,178.888,159.32,177.805z"/>
		<path d="M165.822,174.734c0.361,0,0.604,0.06,0.844,0.181c0.239,0.12,0.481,0.301,0.603,0.542c0.182,0.241,0.3,0.542,0.421,0.903
			c0.061,0.361,0.12,0.843,0.12,1.446c0,0.662-0.061,1.264-0.241,1.686c-0.118,0.421-0.36,0.783-0.662,0.963
			c-0.239,0.241-0.602,0.361-1.083,0.361v-0.602c0.361,0,0.663-0.121,0.903-0.482c0.18-0.301,0.3-0.963,0.3-1.926
			c0-1.023-0.12-1.686-0.3-1.988c-0.24-0.301-0.542-0.481-0.903-0.481L165.822,174.734L165.822,174.734z M163.896,177.805
			c0-0.723,0.06-1.325,0.241-1.747c0.119-0.42,0.359-0.782,0.601-0.963c0.302-0.241,0.663-0.361,1.085-0.361l0,0v0.602l0,0
			c-0.3,0-0.602,0.121-0.783,0.421c-0.24,0.362-0.359,1.024-0.359,2.048c0,0.963,0.059,1.625,0.3,1.926
			c0.242,0.361,0.544,0.482,0.844,0.482l0,0v0.602l0,0c-0.542,0-1.023-0.18-1.325-0.602
			C164.076,179.731,163.896,178.888,163.896,177.805z"/>
		<path d="M159.8,207.429c0.483,0,0.904,0.12,1.266,0.421c0.301,0.301,0.481,0.663,0.481,1.144c0,0.241-0.119,0.482-0.24,0.722
			c-0.121,0.182-0.361,0.363-0.662,0.482c0.36,0.12,0.662,0.301,0.843,0.541c0.181,0.301,0.301,0.604,0.301,0.963
			c0,0.543-0.181,0.965-0.542,1.325c-0.361,0.302-0.843,0.481-1.445,0.481l0,0v-0.602l0,0c0.362,0,0.663-0.121,0.904-0.303
			c0.182-0.24,0.301-0.542,0.301-0.902c0-0.361-0.121-0.662-0.36-0.843c-0.241-0.241-0.482-0.36-0.845-0.36v-0.603l0,0
			c0.303,0,0.542-0.12,0.725-0.302c0.18-0.12,0.241-0.361,0.241-0.602c0-0.301-0.062-0.542-0.303-0.722
			c-0.18-0.181-0.36-0.241-0.663-0.241L159.8,207.429L159.8,207.429z M158.958,210.199c-0.301-0.121-0.542-0.302-0.663-0.482
			c-0.18-0.241-0.24-0.482-0.24-0.783c0-0.421,0.181-0.783,0.48-1.084c0.301-0.301,0.723-0.421,1.264-0.421l0,0v0.602
			c-0.301,0-0.542,0.06-0.721,0.241c-0.181,0.181-0.242,0.421-0.242,0.662c0,0.301,0.062,0.482,0.242,0.662
			c0.18,0.182,0.42,0.302,0.721,0.302v0.603l0,0c-0.36,0-0.661,0.119-0.901,0.36c-0.182,0.181-0.302,0.481-0.302,0.843
			c0,0.182,0.061,0.422,0.12,0.604c0.12,0.182,0.241,0.361,0.481,0.422c0.181,0.119,0.362,0.18,0.602,0.18v0.602
			c-0.602,0-1.083-0.18-1.443-0.541c-0.362-0.301-0.542-0.781-0.542-1.266c0-0.42,0.121-0.72,0.302-0.963
			C158.295,210.438,158.596,210.257,158.958,210.199z"/>
		<path d="M164.377,207.429c0.303,0,0.603,0.06,0.845,0.18c0.239,0.121,0.42,0.301,0.602,0.542c0.18,0.241,0.3,0.542,0.361,0.903
			c0.12,0.362,0.12,0.843,0.12,1.385c0,0.725-0.061,1.325-0.183,1.747c-0.18,0.42-0.359,0.722-0.661,0.962
			c-0.302,0.243-0.662,0.361-1.084,0.361v-0.602c0.36,0,0.603-0.181,0.845-0.48c0.239-0.303,0.36-0.965,0.36-1.988
			c0-0.963-0.121-1.625-0.36-1.926c-0.242-0.301-0.483-0.482-0.845-0.482V207.429L164.377,207.429z M162.511,210.438
			c0-0.661,0.06-1.264,0.181-1.686c0.181-0.422,0.301-0.783,0.602-0.963c0.302-0.241,0.662-0.361,1.084-0.361l0,0v0.602l0,0
			c-0.36,0-0.602,0.12-0.843,0.422c-0.241,0.361-0.361,1.023-0.361,1.986c0,1.022,0.12,1.687,0.361,1.987
			c0.242,0.302,0.482,0.48,0.843,0.48l0,0v0.602l0,0c-0.602,0-1.023-0.18-1.385-0.602
			C162.691,212.427,162.511,211.583,162.511,210.438z"/>
		<path d="M161.487,240.365l-0.723,0.059c-0.062-0.299-0.121-0.48-0.241-0.602c-0.241-0.24-0.482-0.302-0.783-0.302c0,0,0,0-0.06,0
			v-0.603c0.06-0.061,0.06-0.061,0.119-0.061c0.483,0,0.845,0.182,1.146,0.421C161.246,239.521,161.427,239.942,161.487,240.365
			L161.487,240.365z M159.681,241.027c0.06,0,0.119,0,0.181,0c0.48,0,0.903,0.18,1.264,0.542c0.303,0.361,0.482,0.841,0.482,1.386
			c0,0.36-0.061,0.721-0.241,1.022c-0.181,0.358-0.361,0.603-0.662,0.78c-0.301,0.18-0.602,0.242-0.963,0.242h-0.06v-0.603h0.06
			c0.301,0,0.542-0.121,0.783-0.362c0.241-0.24,0.361-0.603,0.361-1.023c0-0.42-0.12-0.781-0.361-0.961
			c-0.241-0.242-0.482-0.362-0.843-0.362l0,0L159.681,241.027L159.681,241.027z M159.681,239.521c-0.182,0-0.361,0.062-0.542,0.18
			c-0.241,0.182-0.422,0.424-0.542,0.725c-0.12,0.302-0.181,0.783-0.181,1.385c0.181-0.239,0.361-0.48,0.604-0.602
			c0.239-0.121,0.42-0.181,0.662-0.181v0.661c-0.302,0-0.603,0.12-0.844,0.361c-0.24,0.181-0.301,0.541-0.301,0.904
			c0,0.239,0,0.479,0.121,0.721c0.12,0.24,0.241,0.423,0.481,0.541c0.181,0.121,0.36,0.183,0.542,0.183v0.603
			c-0.603,0-1.084-0.242-1.445-0.664c-0.361-0.479-0.604-1.203-0.604-2.229c0-1.143,0.242-1.984,0.663-2.525
			c0.362-0.422,0.844-0.664,1.386-0.664L159.681,239.521L159.681,239.521z"/>
		<path d="M164.257,238.858c0.302,0,0.603,0.12,0.843,0.242c0.241,0.12,0.424,0.3,0.604,0.542c0.12,0.238,0.24,0.54,0.36,0.9
			c0.06,0.361,0.121,0.783,0.121,1.388c0,0.722-0.062,1.264-0.183,1.745c-0.18,0.422-0.36,0.723-0.661,0.963
			c-0.302,0.242-0.661,0.361-1.084,0.361v-0.603c0.302,0,0.603-0.183,0.843-0.483c0.241-0.36,0.361-0.961,0.361-1.983
			c0-0.964-0.12-1.627-0.361-1.927c-0.24-0.361-0.541-0.483-0.843-0.483V238.858z M162.33,241.931c0-0.663,0.061-1.266,0.241-1.688
			c0.121-0.422,0.362-0.783,0.603-1.022c0.241-0.242,0.604-0.362,1.084-0.362l0,0v0.662l0,0c-0.36,0-0.662,0.122-0.843,0.422
			c-0.241,0.361-0.361,1.023-0.361,1.988c0,1.023,0.12,1.623,0.361,1.984c0.181,0.301,0.481,0.482,0.843,0.482l0,0v0.604l0,0
			c-0.602,0-1.023-0.183-1.324-0.604C162.57,243.857,162.33,243.074,162.33,241.931z"/>
	</g>
	<path fill="none" stroke="#000000" stroke-width="0.7362" d="M7.045,121.567c0,3.312-0.723,10.296,0.181,13.247
		c0.181,0.723,0,2.95,1.506,2.95c1.806,0,2.348-6.442,2.769-7.948c0-0.361,0.903-2.167,0.903-2.167
		c0.542,1.626,1.807,5.479,1.807,6.984c0,0.542,0.542,3.312,1.146,3.312c1.443,0,3.312-5.178,3.672-5.901
		c0,0,0.542-1.445,0.542-0.903c0,2.951,0.542,5.119,2.589,7.165c0.362-2.588,1.265-22.82,1.445-22.82
		c0.902,0,0.361-3.854,0.723-4.576c1.084-2.348,1.867-1.083,1.867,1.505c0,0.542,2.71,0.181,2.71,5.48
		c0,6.623,1.866,13.607,1.866,20.591c0,3.131,2.229,6.263,2.229,10.477c0,6.262,0.542-5.358,0.542-6.984
		c0-3.854,1.445,6.263,1.445,7.527c0,5.117,0.904,12.644,0.904,18.545v-7.527c0-2.769,1.505-0.542,1.686,1.084
		c0.362,3.312-0.181,7.526,0.362,10.837c1.083,7.346,2.228,15.836,2.228,23.182c0.723-4.034,2.891-8.49,2.891-12.524V167.87
		c0-2.77,2.408,5.539,2.77,6.262c2.409,4.938,0.542-16.919,2.771-14.692c1.626,1.626,0.902-14.149,0.902-17.642
		c0-6.804,1.867,4.576,2.047,3.853c0.902-4.576,1.265-7.526,2.349-0.18c0.602,3.853,0.782-13.608,0.782-14.511
		c0.724-5.178,3.493-9.935,3.493-15.475c0.361,1.325,1.986,3.733,1.986,5.178v10.116c0,1.445-0.181,6.442,0.723,7.346
		c0.542,0.542,2.047-2.047,2.047-2.589v-4.034c0-7.708,3.492,3.672,4.216,5.118c0.36,0.963,0.36,1.685,1.083,0
		c1.145-2.168,2.589-5.299,3.131-7.708c0.181-0.722,0.723-1.445,0.723-2.167c0.604-3.492,0.963,5.118,0.963,6.021
		c0.542,4.215,3.673-2.709,4.034-4.215c0.362-1.625,1.445-4.395,2.167-5.9c0.603-1.265,0,1.505,0,2.409
		c0,3.853,0.181,7.887,0.181,11.561c1.325-1.084,2.409-3.492,2.951-5.118c1.145-3.673,4.456-7.346,5.901-10.477
		c0.18-0.362,0.18,3.311,0.18,3.492c0,2.047,0,4.396,0,6.443c0,0.903,0.903,1.987,0.903,3.131c3.854-2.951,2.95-7.948,2.95-12.524
		c0-1.084,0.361-3.312,0.902-0.542c0.182,1.083,0.783,3.131,1.145,4.034c0.723,1.686,2.349-4.034,2.528-4.757
		c0-0.362,0.361-1.325,0.361-1.867c0-2.167,0-0.903,0,0.783c0,3.432,0.963,6.924,0.963,10.417c0,1.867,1.808,4.094,1.808,5.901
		c0-0.362-0.182-3.673,0-4.215c1.866-3.854,2.229,3.492,2.229,4.938c0,2.227,1.264,4.215,1.625,6.082
		c0.963,3.672,2.229-2.229,2.229-3.493c0-4.034,0.722-8.791,0.722-12.885c0-1.627,1.084-0.181,1.687-0.181
		c0,0,3.252-5.66,3.252-5.299c0.421,1.987,0.24,5.48,0.24,7.708c0,1.866,0.724,3.672,0.724,5.72c0,1.807,1.987-3.131,2.167-3.493
		c0-0.181,1.324-3.492,1.324-3.13v4.034c0,0.903,0.361,6.623,0.903,7.165c0.542,0.542,2.589-10.837,3.131-6.984
		c0.181,1.807,0.542,4.757,1.084,6.623c0.18,0.723,1.505,2.528,1.505,3.312c1.265-1.687,5.118-12.886,5.118-14.873
		c0-4.094,0.362,4.396,0.362,5.298c0,11.742,2.95,21.856,2.95,33.778c0-3.672,1.084-10.417,2.589-13.367
		c1.084-2.408,0.181-11.621,0.181-14.511c0-2.589,2.529,3.312,2.529,4.034c0,4.396,4.274-5.72,4.274-5.72
		c3.854-7.887,3.854,4.034,3.854,7.888v5.901c0,1.084,2.529-5.118,2.529-6.081c-2.35,7.165,1.865,16.016,1.865,23.181
		c0,8.249,2.229-2.409,2.229-4.576c0-1.325,2.348-3.914,3.251-4.817c0.421-0.361,0.421,6.443,0.421,8.491v14.51
		c0,3.493-0.421,5.118,1.084,0.542c0.361-1.325,0.361-5.359,0.361-4.034v13.547c0,4.094-0.542,8.309-0.542,12.163
		c-0.542,6.021,0.902,3.672,1.807,0c0.181-0.723,0.361-2.77,0.361-2.047l0.181,9.393c0.181,5.659,1.867,11.14,1.867,16.618
		c0,2.228,1.445,4.637,1.445,6.623c0.963-1.986,2.528-6.805,2.709-9.151c0.542-4.575,3.672-9.875,3.672-14.812
		c0-2.951,0.902-11.802,1.083-9.394l0.424,5.901c0.18,2.349,2.167,5.299,2.167,7.708c0,4.395,2.228-5.179,2.228-6.083
		c0.362-3.131,1.267-6.624,1.267-9.754c0-0.181,3.854,6.804,3.854,8.49c1.505-6.082,2.588-11.982,2.588-18.365
		c0-0.782,0-3.131,0.361-3.492c0.181-0.181,3.674,6.624,4.214,7.165c1.326,1.264,1.688,4.576,1.688,0.361
		c0-6.262,0.902-12.523,0.902-18.725c0-0.242,3.674,5.659,3.674,7.345c-0.902-4.636-0.544-15.654,1.264-19.328
		c0-0.181,0.544-3.492,0.544-3.492c0.239-0.182,2.768,5.9,2.768,5.9c0.362-2.228,2.229-7.707,3.132-9.754
		c0-0.181,0.362-2.589,0.544-2.167c0.179,0.361,2.228,8.068,3.129,4.215c0.902-3.854,2.409-6.804,4.034-10.116
		c0,0,0.543-3.492,0.725-2.77c0.421,1.687,1.866,3.853,2.408,5.179c2.407-3.132,3.672-6.082,4.032-9.755
		c0.966-7.346,4.638-16.377,4.638-23.723c0,4.456,0.18,9.032,0.18,13.428c0,2.046,1.807,4.395,1.807,7.526
		c0,1.083,1.085,9.032,1.867,3.672c0.361-2.589,1.808-7.707,2.71-10.477c0,0,0.361,6.624,0.783,9.032
		c1.264,7.165,3.491,0.542,4.575-2.951c0.543-1.685,0.902-5.9,1.445-3.311c0.542,3.311,0.18,17.28,5.538,10.296
		c1.987-2.589,1.625-5.901,1.625-9.212c0-2.349,0.967,2.951,1.688,3.312c0,0,2.167,2.589,2.167,2.77
		c-1.807-3.854,2.41-17.281,3.312-21.134c1.686-6.804,6.261-13.066,6.261-19.81c0,11.02,0.724,22.219,0.724,33.057v6.262
		c0,4.215,5.901-4.816,6.441-5.9c0-0.181,1.867-5.54,1.867-4.576c0,4.034,0.182,8.429,0.182,12.283c0,5.358,4.575-6.082,4.937-7.166
		c1.446-4.576,1.085,2.228,1.085,4.034c0,1.505,0.542,4.396,1.145,5.54c2.348-2.409,3.068-4.998,3.673-8.49
		c0-0.542,0.903-2.348,1.266-2.71c0.723-0.782,1.264,7.888,1.443,9.513c0.363,2.048-0.362,8.31,1.866,2.409
		c1.085-3.312,2.59-7.346,3.493-10.477c1.444-4.576,0.542,1.626,0.542,3.673c0,10.477,3.492,20.592,3.492,30.708
		c1.265-0.603,3.312-4.817,3.312-6.262c0-6.985,0.361,5.66,0.361,6.984c0,7.346,0.182,13.789,1.865,20.533
		c0.542,2.228,0.182,5.901,0.182,8.309c0.543,7.346-0.603,15.775,1.626,22.58c0.359,1.203,1.444-5.9,1.444-6.623
		c0-3.494-1.085-16.5,0.782-18.365c3.131-3.132,2.891-8.611,2.891-13.608c0-0.542,4.275,8.129,4.637,10.477
		c0.182,0.964,0.182-9.151,0.182-11.741c0-11.38,2.35-23.122,2.35-34.742c-0.905-2.71,1.143,1.144,1.143,1.686
		c0,1.083-0.18,3.854,0.181,4.757c0.903,1.867,1.808-4.576,1.808-5.479c0-2.409,0.182-4.818,0.182-7.166
		c0-3.913,3.13,2.348,3.13,3.072c0.183,1.686,0.725,3.312,0.725,4.998c0,0.722,3.13-8.671,3.913-10.838
		c0.54-1.867,1.805-3.854,2.349-5.72c0.722-2.589,0,1.505,0.359,2.95c0.724,2.951,0.182,6.623,0.964,9.574
		c0.723,3.492,1.626-2.409,2.168-3.493"/>
</g>
</svg>
