<?xml version="1.0" encoding="utf-8"?>
<!-- Generator: Adobe Illustrator 15.0.2, SVG Export Plug-In . SVG Version: 6.00 Build 0)  -->
<!DOCTYPE svg PUBLIC "-//W3C//DTD SVG 1.1//EN" "http://www.w3.org/Graphics/SVG/1.1/DTD/svg11.dtd">
<svg version="1.1" id="Layer_1" xmlns="http://www.w3.org/2000/svg" xmlns:xlink="http://www.w3.org/1999/xlink" x="0px" y="0px"
	 width="411.023px" height="75.391px" viewBox="-42.02 -97.904 411.023 75.391"
	 enable-background="new -42.02 -97.904 411.023 75.391" xml:space="preserve">
<metadata><?xpacket begin="﻿" id="W5M0MpCehiHzreSzNTczkc9d"?>
<x:xmpmeta xmlns:x="adobe:ns:meta/" x:xmptk="Adobe XMP Core 5.0-c060 61.134777, 2010/02/12-17:32:00        ">
   <rdf:RDF xmlns:rdf="http://www.w3.org/1999/02/22-rdf-syntax-ns#">
      <rdf:Description rdf:about=""
            xmlns:dc="http://purl.org/dc/elements/1.1/">
         <dc:format>image/svg+xml</dc:format>
         <dc:title>
            <rdf:Alt>
               <rdf:li xml:lang="x-default">7-4</rdf:li>
            </rdf:Alt>
         </dc:title>
      </rdf:Description>
      <rdf:Description rdf:about=""
            xmlns:xmp="http://ns.adobe.com/xap/1.0/"
            xmlns:xmpGImg="http://ns.adobe.com/xap/1.0/g/img/">
         <xmp:CreatorTool>Adobe Illustrator CS5.1</xmp:CreatorTool>
         <xmp:CreateDate>2015-02-12T16:49:17+02:00</xmp:CreateDate>
         <xmp:ModifyDate>2015-02-12T16:49:17+02:00</xmp:ModifyDate>
         <xmp:MetadataDate>2015-02-12T16:49:17+02:00</xmp:MetadataDate>
         <xmp:Thumbnails>
            <rdf:Alt>
               <rdf:li rdf:parseType="Resource">
                  <xmpGImg:width>256</xmpGImg:width>
                  <xmpGImg:height>48</xmpGImg:height>
                  <xmpGImg:format>JPEG</xmpGImg:format>
                  <xmpGImg:image>/9j/4AAQSkZJRgABAgEASABIAAD/7QAsUGhvdG9zaG9wIDMuMAA4QklNA+0AAAAAABAASAAAAAEA&#xA;AQBIAAAAAQAB/+4ADkFkb2JlAGTAAAAAAf/bAIQABgQEBAUEBgUFBgkGBQYJCwgGBggLDAoKCwoK&#xA;DBAMDAwMDAwQDA4PEA8ODBMTFBQTExwbGxscHx8fHx8fHx8fHwEHBwcNDA0YEBAYGhURFRofHx8f&#xA;Hx8fHx8fHx8fHx8fHx8fHx8fHx8fHx8fHx8fHx8fHx8fHx8fHx8fHx8fHx8f/8AAEQgAMAEAAwER&#xA;AAIRAQMRAf/EAaIAAAAHAQEBAQEAAAAAAAAAAAQFAwIGAQAHCAkKCwEAAgIDAQEBAQEAAAAAAAAA&#xA;AQACAwQFBgcICQoLEAACAQMDAgQCBgcDBAIGAnMBAgMRBAAFIRIxQVEGE2EicYEUMpGhBxWxQiPB&#xA;UtHhMxZi8CRygvElQzRTkqKyY3PCNUQnk6OzNhdUZHTD0uIIJoMJChgZhJRFRqS0VtNVKBry4/PE&#xA;1OT0ZXWFlaW1xdXl9WZ2hpamtsbW5vY3R1dnd4eXp7fH1+f3OEhYaHiImKi4yNjo+Ck5SVlpeYmZ&#xA;qbnJ2en5KjpKWmp6ipqqusra6voRAAICAQIDBQUEBQYECAMDbQEAAhEDBCESMUEFURNhIgZxgZEy&#xA;obHwFMHR4SNCFVJicvEzJDRDghaSUyWiY7LCB3PSNeJEgxdUkwgJChgZJjZFGidkdFU38qOzwygp&#xA;0+PzhJSktMTU5PRldYWVpbXF1eX1RlZmdoaWprbG1ub2R1dnd4eXp7fH1+f3OEhYaHiImKi4yNjo&#xA;+DlJWWl5iZmpucnZ6fkqOkpaanqKmqq6ytrq+v/aAAwDAQACEQMRAD8A9U4q7FVsssUSGSV1jjX7&#xA;TsQAPmTiqG/S+ldPrsFf+Mqf1xV36X0mlfrsFB39VP64q79L6V/y2wf8jU/rirv0vpX/AC2wf8jU&#xA;/rirv0vpO3+mwb9P3qf1xV36X0rp9dgr/wAZU/rirv0vpP8Ay2weH96n9cVd+l9K6fXYK/8AGVP6&#xA;4qxPXF0XWYZfU8xwafeKZoY5llhDx8LuKaFhRkPwfVtq/wAxxVb5VWPR5YYrnziNeecpE/rSxmix&#xA;RSEtQySEFmpUgj3rirLv0vpO/wDpsG3X96n9cVaXWdIZVZb63KtupEqEEHfbfFW/0vpXT67BX/jK&#xA;n9cVd+l9J/5bYPD+9T+uKu/S+ldPrsFf+Mqf1xV36X0mlfrsFB39VP64q79L6V/y2wf8jU/rirv0&#xA;vpX/AC2wf8jU/rirv0vpO3+mwb9P3qf1xV36X0rp9dgr/wAZU/rirv0vpP8Ay2weH96n9cVd+l9K&#xA;6fXYK/8AGVP64q79L6TSv12Cg7+qn9cVd+l9K/5bYP8Akan9cVd+l9K/5bYP+Rqf1xV36X0nb/TY&#xA;N+n71P64q79L6V0+uwV/4yp/XFXfpfSf+W2Dw/vU/riq5NT02R1jS7heRjRUWRCSfYA4q8+tLj88&#xA;zEbe7tbFWjs7nhdxmIvJdpbstvzBk4BZJ2ViFTtuQPtKoy11X85ZDdG40XToTHX6qiy8hISQBVvW&#xA;qABU/ZGKpnoF151uNKmPmu0trS6W+gFoLU1DQmWJgXHOWjBiV+12xVIPyev9bvLad9YmkluVmuQg&#xA;kuJ7r90FtgsiyTxQtSanq8VHEctlT7IVQ3mLUNXi892Vst88WkS2l96tokwVTOZbvjzhCMW9RV+E&#xA;safAd1P2lWWfmLd3Vn5amurS4Frcw82inLJGFYQyftyFFWvSpYfMdcVU/wAs729vfK8V1fXS3l7I&#xA;3+kzIwdfUEaK6BgBX0yOFd+nVupVYn5V1PW5fzPNlcNcfoyO25QK8rtAWFrCAFj/ALtCoYkUCn4m&#xA;5c9uKqM/NnU9b0+802XTJmhR5rdLxkmmhZISZuc4WGOT1PRWrcHqvij9Aqzb/pXf9H3/AGPYqi5P&#xA;+Orb/wDGCf8A4nDiqEf/AI4N/wD9Hv8AyckxVF3v+9Nh/wAZ2/5MS4qhLr/ePW/9n/1Cx4q8O8na&#xA;l5nTTdGtoLh4LCHyhbS2VybqcJHcnRY+K+l9Xkij9MgyclDt8XU/3aqovVZvONx+XWiyLLqSarIw&#xA;a8a2kvru5jKNeAq0kEHqtwpszABWClSwADKp/e6hrq+frizjkufqT+oQUnk9GOUzAqgiKPHXkhcE&#xA;Rlt68qfu8VTr8pr7VLzT+eoPO7xy3UcDXMrzO0Kra8HDSlpKPXnRnbcmhAoqqstf/jg3/wD0e/8A&#xA;JyTFUXe/702H/Gdv+TEuKusv96b/AP4zr/yYixVCWv8AvHon+w/6hZMVRcf/AB1bj/jBB/xObFUJ&#xA;/wBK7/o+/wCx7FUXJ/x1bf8A4wT/APE4cVQj/wDHBv8A/o9/5OSYqi73/emw/wCM7f8AJiXFXWX+&#xA;9N//AMZ1/wCTEWKoS1/3j0T/AGH/AFCyYqi4/wDjq3H/ABgg/wCJzYqhP+ld/wBH3/Y9iqLk/wCO&#xA;rb/8YJ/+Jw4qwK88rfm99Y1RLHzJbJYXt1LLbJKHaWCGWcn01kMbMAsHwqFIo24bb4lULbWP5pSO&#xA;Gn85aa8+lkfpVYRGscQO7mVPS2oi7c6d/s7EKso0+7uD5ZSPWNUt9Qvo5Y5ri6s2AUwNeH0mHpBC&#xA;KInGoHVT1xVvSNT8ta7fW02kX0l5C1mbhZUnueJiuDE0TBiwryAPTp0O+KpbqnmLynp0eoaPeX8s&#xA;OpCMzLbma5qyX1/JY25X4qNW4ojfy1BbY4qm/mi50PQrODVdVuprbT7aatxcGa5YIrRuvI8WYgAs&#xA;KnsOu2Kquh/orUW1GaznnlijvHgZvWuV/eQxojj4mFRyU0PQjcbYqx/QfM/lPVLjS9MtLu4a9gmn&#xA;t7iNpbheEllEIpASXoAXnTgejdBuCMVTXV9V8uaHrEUeqXc1udQWOG0JmuSHlUTycKhjQsqHiD1O&#xA;w3OKqlnBYXmhwXlvLO8FxdLLC3rziqPeAqaFwRscVTCTTbf9KW45z/3E/wDx8T/zxf5eKoV9Nt/0&#xA;FfnnPt9c/wCPiftJJ/l4qirzTbf6xY/HPvO3/HxP/viX/LxVC3Om2/1PWvjn25/8fE//ACyp/l4q&#xA;82/K7zx5ZufJnk3TON+t9aafaxzRBpvi9HTlHOJUkJZJHYqnEfaVl2pirK/8ceSEspfMQvrmTRJF&#xA;SFL5Hu2QvGLhzQg1NWiMa+MlEHxGmKr5Nb0qPV7fy40GoC/urj6zDJ6kvom3W8b1JC3q7CNwkbCn&#xA;IM6bUPIKony/rOna9rt3bwW9/btpPr2d4Z5plH1hXjLRoRIeVE4PyGxV1+hVMn023/QV+ec+31z/&#xA;AI+J+0kn+XiqKvNNt/rFj8c+87f8fE/++Jf8vFXWem2/1i++Ofadf+Pif/fEX+XiqFttNt/qei/H&#xA;Pvw/4+J/+WV/8vFUVHptv+lLgc5/7iD/AI+J/wCeX/LxVC/o23/R1ec/+91P96J/+W2n8+KoqTTb&#xA;f9KW45z/ANxP/wAfE/8APF/l4qhX023/AEFfnnPt9c/4+J+0kn+XiqKvdMtDcWIf1JFM5qkk0rqf&#xA;3Eh3VmIOKus9K0v6xff6HBtOtP3af74i9sVQttpWl/U9F/0ODfhX92m/+iv7Yqio9K0v9KXA+pwU&#xA;9CDb00/nl9sVQv6K0v8AR1fqcFfr1P7tOn12nhiqMOm6dHq9q0drCjLDMVZY1BBDxUIIGKqdr5v8&#xA;tXUMsseoRKIXmjlSUmGRWtmZJgY5Qj/A0bV27YqwO98q/lhdeYDrN3rL/W4XmumhEirGY3lS4mhl&#xA;R0blX1uBTZ+LcaYqqeT/AC75DsrW/s/Kmovcxyi0jeCWriJfXWPZuMRaoQbE1AoejDFWQaB5KtPL&#xA;mrsdI9G3F7C5mT05WSsRiUFVaYheVSzcerEsdyTiqE13yNpmqpfXmpQ21zfWMiTQXBilDJJaPJe2&#xA;7IVmHHi901f5ujVGKp5rulXOorZ2l5LBLbvcqzJ6LgExxvItaTdOSjFUP5U8tJoFte6bpH1e0sVu&#xA;3lSBYpCqtMiSMEDTHitW+FRso2G2KpdZeTNPtYNM1e3htY9SjVES6EUpk43l2lzMrEz/ABAzMWAP&#xA;2anjQE4qj9Z8q2+v3s1vrCWt5Atui+lJDJxpL6yNsJhvQ7HqDuKHFVS0sby00SG0t5YEt7e6WKFP&#xA;RkPFUvAqipmJNKd8VR8keqfpS3/0iCvoT/7of+eL/i3FULPHqi6dq8QuIOEXrU/cvX95EJW/3b/N&#xA;IcVRV5Hqn1ix/wBIg/v2p+4f/fEv/FuKoW5j1T6nrX+kQft1/cv/AMsqf8W4qwnyTpVjp35SeUde&#xA;Nvaerp+jafcRzra8rhFligknCOZV3k4Dl0riqFm1/TofLWjpZ6MZ9Mv7mzt9P0xopJHEts11fRyy&#xA;G0nvWf8AeWnI15Vb7ffFWWxTSS6pdWoEI1C0NvK92bc7w3Wpzqsat63LZ7UswpTcdeyqv5cvH1B4&#xA;buyNpbet9daaKKHrILhEaR+Moq0nHlU4qjHj1T9BX/8ApEFP9Mr+5f8A35J/xbiqKvI9U+sWP+kQ&#xA;f37U/cP/AL4l/wCLcVdZx6p9Yvv9Ig/v1r+4f/fEX/FuKoW3j1RdO0iU3EHCP0an0X29SExL/u3f&#xA;4pAMVRUceqfpS4/0iCvoQf7of+eX/i3FUL6eqfo7/eiCn17/AHy/X67/AMZcVRUkeqfpS3/0iCvo&#xA;T/7of+eL/i3FUK8eqfoK/wD9Igp/plf3L/78k/4txVFXkeqfWLH/AEiD+/an7h/98S/8W4q6zj1T&#xA;6xff6RB/frX9w/8AviL/AItxVCwR6oumaVN9Yg4xeht6L1/ep6I/3b29WuKoqOPVP0pcf6RBX0IP&#xA;90P/ADy/8W4qhfT1T9Hf70QU+vf75fr9d/4y4qjDHqI1e19SeFl9GbkFhZSRzirQmVsVSI/lN5Fb&#xA;WLzV3sC17eTSXDt6kgCyzxtHM6hSP7wOa8qjwpiqT33kv8mrCSbT9Qa2hu5HjlkSe6dZxMkLIsiV&#xA;cFGMUpqEopFNsVTDRdK8iRy39/5SmtmuJ57UXQt5PWijZp1+IIG+Hn6YqFIX4dt+VVU3i1VrnzLL&#xA;psF2sl7YQP8AWitlcG3jMnouI3uOfoiXgyOI+XLieVKYqiFtNTuBqkBuYFEsnps3oOacreMV/vff&#xA;FVS8j1T6xY/6RB/ftT9w/wDviX/i3FVaG01SOSdxdQH1nEhHoPtRFSn99/kYqk81+tlpGkx3+pW1&#xA;ubo2sdqhgkZ5JF4uFVVlJP2fiNKAbnbFUyjj1X9KXFLiCvoQf7ofpzl/4uxVTurTU4LNU+swMDdR&#xA;vX0HG8l0r/797csVRTWmqNcxz/WoKxo8YX0H35lTX++/yMVQq2mp3A1SA3MCiWT02b0HNOVvGK/3&#xA;vviqpeR6p9Ysf9Ig/v2p+4f/AHxL/wAW4qp6haanFp+pv9ZgPrRySMPQcUpCEoP3v+RirDPIt7G/&#xA;5ceRdCnmSaXUdE02RbVLOW4Agigg5NOyvwSOrBSz0rXboaKsij8oWDMdLmt7O6sbZLeaCC6t3uVS&#xA;QPNxZfWmcgjkQN+hp0xVde+V4EvItXeKyl1ZJYo4tQa0JnSN7syemshlLBQZm6eJ8cVSjTPM/lW3&#xA;8+TeUtNuLO015DObm0gsvTV3aK3unkcpKKsUkXc9Ty8MVZNDaanNaXtkbmBf3k0bMIHP9/8Avaj9&#xA;72EuKql5Hqn1ix/0iD+/an7h/wDfEv8AxbiqtDaapHJO4uoD6ziQj0H2oipT++/yMVQtlaanPo9k&#xA;n1mBQI7eQfuHP93xcD+9/wAnFVSOPVP0pcf6RBX0IP8AdD/zy/8AFuKqd1aanBZqn1mBgbqN6+g4&#xA;3kulf/fvbliqKa01RrmOf61BWNHjC+g+/Mqa/wB9/kYqhYrTU5re/svrMKr6ksfP0HJ/fqJSf73s&#xA;ZaYqqXkeqfWLH/SIP79qfuH/AN8S/wDFuKq0Npqkck7i6gPrOJCPQfaiKlP77/IxVC2Vpqc+j2Sf&#xA;WYFAjt5B+4c/3fFwP73/ACcVVI49U/Slx/pEFfQg/wB0P/PL/wAW4qp3VpqcFmqfWYGBuo3r6Dje&#xA;S6V/9+9uWKowWmoG8iuJLiErGjoUWFlJDlCdzK1PseGKo3FWKa5+WHlLW9XbVtQhne9dgzMk8sa7&#xA;RCLjxVgtKAH5iuKojRPIeg+X7a5h0KM2f1qSGaX1HlnXlA/Nfhd/o2P6sVRNp5dNpql5qlvLGl5f&#xA;kNdGlwY2YIkfIQm4MSsUiQFlUE03xVFw2eqRyTv9agPruJCPQfaiKlP77/IxV01nqkkkD/WoB6Dm&#xA;QD0H3qjJT++/y8VVfT1X/log/wCRD/8AVbFUnn8qT3FxpV1JehLrSEMcEsKSxc42MbOkgWb4kdoE&#xA;JHtT7JYFVM1s9UW6kn+tQVkRI+PoPtwLmv8Afd+eKuubPVJ4whuoFo8clfQc/wB24en99344qq+n&#xA;qv8Ay0Qf8iH/AOq2KqUNnqkck7/WoD67iQj0H2oipT++/wAjFXTWeqSSQP8AWoB6DmQD0H3qjJT+&#xA;+/y8VddWeqXFrNAbqBRMjRlvQc05Aiv99iqQeXvIKaRpvl+3eeG6vfL+n2+nW996MsZkS3iEQZ41&#xA;uODdCwDcuJJpiqfrZ6ot1JP9agrIiR8fQfbgXNf77vzxV1zZ6pPGEN1AtHjkr6Dn+7cPT++78cVS&#xA;uPyXp0etfptLezXV+fqG99CT1SwWVBVvW/luZBTp8XyxVNIbPVI5J3+tQH13EhHoPtRFSn99/kYq&#xA;6az1SSSB/rUA9BzIB6D71Rkp/ff5eKqvp6r/AMtEH/Ih/wDqtiqla2eqW9rDALqBhCixhvQcV4gC&#xA;v99irls9UW6kn+tQVkRI+PoPtwLmv99354q65s9UnjCG6gWjxyV9Bz/duHp/fd+OKqvp6r/y0Qf8&#xA;iH/6rYqpQ2eqRyTv9agPruJCPQfaiKlP77/IxV01nqkkkD/WoB6DmQD0H3qjJT++/wAvFVX09V/5&#xA;aIP+RD/9VsVUrWz1S3tYYBdQMIUWMN6DivEAV/vsVctnqi3Uk/1qCsiJHx9B9uBc1/vu/PFXXNnq&#xA;k8YQ3UC0eOSvoOf7tw9P77vxxVWSPUg4Mk8LJX4lWFlJHsTK1PuxV//Z</xmpGImg:image>
               </rdf:li>
            </rdf:Alt>
         </xmp:Thumbnails>
      </rdf:Description>
      <rdf:Description rdf:about=""
            xmlns:xmpMM="http://ns.adobe.com/xap/1.0/mm/"
            xmlns:stRef="http://ns.adobe.com/xap/1.0/sType/ResourceRef#"
            xmlns:stEvt="http://ns.adobe.com/xap/1.0/sType/ResourceEvent#">
         <xmpMM:DocumentID>xmp.did:44C0730B3B20681188C69098C6AB8D67</xmpMM:DocumentID>
         <xmpMM:InstanceID>xmp.iid:44C0730B3B20681188C69098C6AB8D67</xmpMM:InstanceID>
         <xmpMM:OriginalDocumentID>uuid:8DA57CB5F225DF118833972942CE57BD</xmpMM:OriginalDocumentID>
         <xmpMM:DerivedFrom rdf:parseType="Resource">
            <stRef:instanceID>uuid:b5485f6b-a59a-4ae1-8de4-a15fdeba77d6</stRef:instanceID>
            <stRef:documentID>uuid:8DA57CB5F225DF118833972942CE57BD</stRef:documentID>
            <stRef:originalDocumentID>uuid:8DA57CB5F225DF118833972942CE57BD</stRef:originalDocumentID>
         </xmpMM:DerivedFrom>
         <xmpMM:History>
            <rdf:Seq>
               <rdf:li rdf:parseType="Resource">
                  <stEvt:action>saved</stEvt:action>
                  <stEvt:instanceID>xmp.iid:44C0730B3B20681188C69098C6AB8D67</stEvt:instanceID>
                  <stEvt:when>2015-02-12T16:49:17+02:00</stEvt:when>
                  <stEvt:softwareAgent>Adobe Illustrator CS5.1</stEvt:softwareAgent>
                  <stEvt:changed>/</stEvt:changed>
               </rdf:li>
            </rdf:Seq>
         </xmpMM:History>
      </rdf:Description>
      <rdf:Description rdf:about=""
            xmlns:pdf="http://ns.adobe.com/pdf/1.3/">
         <pdf:Producer>Adobe PDF library 7.77</pdf:Producer>
      </rdf:Description>
      <rdf:Description rdf:about=""
            xmlns:xmpTPg="http://ns.adobe.com/xap/1.0/t/pg/"
            xmlns:stDim="http://ns.adobe.com/xap/1.0/sType/Dimensions#"
            xmlns:xmpG="http://ns.adobe.com/xap/1.0/g/">
         <xmpTPg:MaxPageSize rdf:parseType="Resource">
            <stDim:w>144.999935</stDim:w>
            <stDim:h>26.596309</stDim:h>
            <stDim:unit>Millimeters</stDim:unit>
         </xmpTPg:MaxPageSize>
         <xmpTPg:NPages>1</xmpTPg:NPages>
         <xmpTPg:HasVisibleTransparency>False</xmpTPg:HasVisibleTransparency>
         <xmpTPg:HasVisibleOverprint>False</xmpTPg:HasVisibleOverprint>
         <xmpTPg:PlateNames>
            <rdf:Seq>
               <rdf:li>Cyan</rdf:li>
               <rdf:li>Magenta</rdf:li>
               <rdf:li>Yellow</rdf:li>
               <rdf:li>Black</rdf:li>
            </rdf:Seq>
         </xmpTPg:PlateNames>
         <xmpTPg:SwatchGroups>
            <rdf:Seq>
               <rdf:li rdf:parseType="Resource">
                  <xmpG:groupName>Default Swatch Group</xmpG:groupName>
                  <xmpG:groupType>0</xmpG:groupType>
               </rdf:li>
            </rdf:Seq>
         </xmpTPg:SwatchGroups>
      </rdf:Description>
   </rdf:RDF>
</x:xmpmeta>
                                                                                                    
                                                                                                    
                                                                                                    
                                                                                                    
                                                                                                    
                                                                                                    
                                                                                                    
                                                                                                    
                                                                                                    
                                                                                                    
                                                                                                    
                                                                                                    
                                                                                                    
                                                                                                    
                                                                                                    
                                                                                                    
                                                                                                    
                                                                                                    
                                                                                                    
                                                                                                    
                           
<?xpacket end="w"?>
	</metadata>
<g>
	<polygon points="-38.223,-78.274 -36.633,-78.274 -36.633,-77.82 -37.768,-77.82 -37.768,-76.002 -36.633,-76.002 -36.633,-75.548 
		-37.768,-75.548 -37.768,-73.125 -38.223,-73.125 	"/>
	<path d="M-34.665-75.094c0-0.377-0.078-0.681-0.152-0.833c-0.075-0.228-0.227-0.302-0.377-0.302l0,0v-0.379l0,0
		c0.303,0,0.529,0.152,0.681,0.453c0.151,0.302,0.227,0.682,0.227,1.288v0.152h-0.907v-0.38L-34.665-75.094L-34.665-75.094z
		 M-35.194-73.05v-0.379l0,0c0.152,0,0.226-0.076,0.303-0.227c0.149-0.151,0.149-0.303,0.149-0.605h0.455
		c0,0.38-0.151,0.682-0.303,0.908C-34.741-73.125-34.969-73.05-35.194-73.05z M-35.194-76.229c-0.152,0-0.304,0.076-0.381,0.302
		c-0.152,0.152-0.152,0.455-0.227,0.833h0.606v0.38H-35.8v0.077c0,0.379,0.075,0.681,0.152,0.908
		c0.152,0.227,0.227,0.302,0.455,0.302v0.378l0,0c-0.381,0-0.605-0.151-0.757-0.454c-0.152-0.304-0.227-0.683-0.227-1.287
		c0-0.605,0.075-1.061,0.227-1.363c0.229-0.302,0.454-0.453,0.757-0.453L-35.194-76.229L-35.194-76.229z"/>
	<polygon points="-33.605,-76.229 -33.984,-76.229 -33.984,-76.607 -33.605,-76.607 -33.605,-77.516 -33.151,-77.516 
		-33.151,-76.607 -32.622,-76.607 -32.622,-76.229 -33.151,-76.229 -33.151,-73.125 -33.605,-73.125 	"/>
	<path d="M-31.409-73.354L-31.409-73.354c0.227,0,0.304-0.15,0.378-0.377c0.151-0.151,0.151-0.532,0.151-1.061
		c0-0.53,0-0.907-0.151-1.136c-0.075-0.228-0.152-0.302-0.378-0.302l0,0v-0.378c0.076,0,0.152,0.076,0.227,0.076
		c0.152,0.077,0.229,0.151,0.304,0.302v-0.378h0.377v3.481h-0.379v-0.302c-0.075,0.15-0.151,0.227-0.227,0.302
		c-0.078,0.076-0.229,0.076-0.304,0.076L-31.409-73.354L-31.409-73.354z M-31.938-74.791c0,0.529,0.075,0.908,0.149,1.136
		c0.078,0.152,0.229,0.302,0.381,0.302v0.303h-0.078c-0.304,0-0.529-0.151-0.681-0.378c-0.152-0.302-0.227-0.833-0.227-1.515
		c0-0.529,0.075-0.984,0.227-1.287c0.152-0.227,0.38-0.379,0.681-0.379h0.078v0.379c-0.152,0-0.304,0.076-0.381,0.302
		C-31.865-75.699-31.938-75.322-31.938-74.791z"/>
	<rect x="-29.67" y="-78.576" width="0.454" height="5.451"/>
	<path d="M-26.943-78.576h0.377v2.347c0.078-0.152,0.152-0.227,0.304-0.302c0.078-0.077,0.228-0.077,0.377-0.077
		c0.229,0,0.454,0.077,0.532,0.227c0.151,0.228,0.151,0.454,0.151,0.909v2.347h-0.38v-2.422c0-0.303-0.075-0.454-0.152-0.606
		c0-0.076-0.151-0.151-0.301-0.151c-0.152,0-0.304,0.076-0.38,0.228c-0.074,0.152-0.152,0.38-0.152,0.681v2.271h-0.377V-78.576z"/>
	<path d="M-23.007-75.094c-0.075-0.377-0.075-0.681-0.152-0.833c-0.151-0.228-0.227-0.302-0.378-0.302h-0.078v-0.379l0,0
		c0.38,0,0.605,0.152,0.756,0.453c0.151,0.303,0.227,0.682,0.227,1.288v0.152h-0.984v-0.38L-23.007-75.094L-23.007-75.094z
		 M-23.614-73.05v-0.379l0,0c0.152,0,0.304-0.076,0.38-0.227c0.075-0.151,0.152-0.303,0.152-0.605h0.377
		c0,0.38-0.078,0.682-0.229,0.908C-23.082-73.125-23.31-73.05-23.614-73.05z M-23.614-76.229c-0.152,0-0.303,0.076-0.378,0.302
		c-0.076,0.152-0.152,0.455-0.152,0.833h0.529v0.38h-0.529v0.077c0,0.379,0.078,0.681,0.152,0.908
		c0.075,0.227,0.227,0.302,0.378,0.302v0.378l0,0c-0.303,0-0.529-0.151-0.681-0.454c-0.227-0.304-0.303-0.683-0.303-1.287
		c0-0.605,0.078-1.061,0.303-1.363c0.152-0.302,0.379-0.453,0.681-0.453V-76.229z"/>
	<path d="M-21.266-73.354L-21.266-73.354c0.227,0,0.377-0.15,0.452-0.377c0.078-0.151,0.078-0.532,0.078-1.061
		c0-0.53,0-0.907-0.078-1.136c-0.075-0.228-0.227-0.302-0.452-0.302l0,0v-0.378c0.075,0,0.152,0.076,0.227,0.076
		c0.152,0.077,0.227,0.151,0.304,0.302v-0.378h0.377v3.481h-0.377v-0.302c-0.078,0.15-0.152,0.227-0.229,0.302
		c-0.075,0.076-0.149,0.076-0.301,0.076V-73.354z M-21.796-74.791c0,0.529,0.078,0.908,0.152,1.136
		c0.078,0.152,0.229,0.302,0.381,0.302v0.303h-0.079c-0.304,0-0.529-0.151-0.681-0.378c-0.15-0.302-0.15-0.833-0.15-1.515
		c0-0.529,0-0.984,0.15-1.287c0.152-0.227,0.379-0.379,0.681-0.379h0.078v0.379c-0.152,0-0.304,0.076-0.381,0.302
		C-21.721-75.699-21.796-75.322-21.796-74.791z"/>
	<path d="M-19.525-76.607h0.454v0.529c0.078-0.152,0.152-0.304,0.227-0.379c0.078-0.077,0.229-0.152,0.381-0.152v0.453
		c-0.229,0-0.381,0.076-0.456,0.228c-0.078,0.152-0.151,0.38-0.151,0.756v2.044h-0.454v-3.48H-19.525z"/>
	<polygon points="-17.936,-76.229 -18.314,-76.229 -18.314,-76.607 -17.936,-76.607 -17.936,-77.516 -17.481,-77.516 
		-17.481,-76.607 -16.876,-76.607 -16.876,-76.229 -17.481,-76.229 -17.481,-73.125 -17.936,-73.125 	"/>
	<path d="M-15.134-76.607h0.455v0.529c0.075-0.152,0.152-0.304,0.226-0.379c0.078-0.077,0.229-0.152,0.304-0.152v0.453
		c-0.152,0-0.304,0.076-0.377,0.228c-0.152,0.152-0.152,0.38-0.152,0.756v2.044h-0.455V-76.607z"/>
	<path d="M-12.789-73.354L-12.789-73.354c0.151,0,0.303-0.15,0.381-0.377c0.076-0.151,0.152-0.532,0.152-1.061
		c0-0.53-0.078-0.907-0.152-1.136c-0.078-0.228-0.229-0.302-0.381-0.302l0,0v-0.378c0.078,0,0.151,0.076,0.229,0.076
		c0.075,0.077,0.227,0.151,0.227,0.302v-0.378h0.454v3.481h-0.454v-0.302c0,0.15-0.076,0.227-0.227,0.302
		c-0.078,0.076-0.152,0.076-0.229,0.076V-73.354z M-13.318-74.791c0,0.529,0.078,0.908,0.152,1.136
		c0.075,0.152,0.151,0.302,0.377,0.302v0.303c-0.075,0-0.075,0-0.152,0c-0.301,0-0.453-0.151-0.604-0.378
		c-0.151-0.302-0.229-0.833-0.229-1.515c0-0.529,0.078-0.984,0.229-1.287c0.152-0.227,0.379-0.379,0.604-0.379
		c0.078,0,0.078,0,0.152,0v0.379c-0.227,0-0.304,0.076-0.377,0.302C-13.242-75.699-13.318-75.322-13.318-74.791z"/>
	<polygon points="-10.972,-76.229 -11.349,-76.229 -11.349,-76.607 -10.972,-76.607 -10.972,-77.516 -10.516,-77.516 
		-10.516,-76.607 -9.987,-76.607 -9.987,-76.229 -10.516,-76.229 -10.516,-73.125 -10.972,-73.125 	"/>
	<path d="M-8.246-75.094c0-0.377-0.075-0.681-0.152-0.833c-0.075-0.228-0.227-0.302-0.379-0.302l0,0v-0.379l0,0
		c0.304,0,0.529,0.152,0.681,0.453c0.152,0.303,0.304,0.682,0.304,1.288v0.152h-0.985v-0.38L-8.246-75.094L-8.246-75.094z
		 M-8.776-73.05v-0.379l0,0c0.152,0,0.227-0.076,0.378-0.227c0.078-0.151,0.078-0.303,0.078-0.605h0.451
		c0,0.38-0.075,0.682-0.303,0.908C-8.321-73.125-8.549-73.05-8.776-73.05z M-8.776-76.229c-0.152,0-0.304,0.076-0.38,0.302
		c-0.149,0.152-0.149,0.455-0.227,0.833h0.605v0.38h-0.605v0.077c0,0.379,0.078,0.681,0.151,0.908
		c0.152,0.227,0.304,0.302,0.454,0.302v0.378l0,0c-0.38,0-0.605-0.151-0.757-0.454c-0.152-0.304-0.227-0.683-0.227-1.287
		c0-0.605,0.075-1.061,0.227-1.363c0.229-0.302,0.454-0.453,0.757-0.453v0.376H-8.776z"/>
	<path d="M-34.817-62.529c0.152-0.077,0.227-0.226,0.304-0.377c0.151-0.229,0.227-0.833,0.227-1.59c0-0.908-0.075-1.514-0.227-1.817
		c-0.078-0.151-0.152-0.302-0.304-0.377v-0.455c0.304,0.078,0.53,0.228,0.681,0.53c0.229,0.379,0.378,1.06,0.378,2.044
		s-0.149,1.59-0.378,1.968c-0.152,0.303-0.379,0.454-0.681,0.53V-62.529z M-35.423-66.765v4.314h0.078c0.151,0,0.377,0,0.529-0.078
		v0.455c-0.151,0.077-0.377,0.077-0.529,0.077h-0.607v-5.148h0.606c0.152,0,0.377,0,0.529,0v0.456c-0.152,0-0.302-0.077-0.529-0.077
		h-0.077V-66.765z"/>
	<path d="M-31.713-63.965c0-0.38-0.078-0.681-0.152-0.908c-0.075-0.151-0.227-0.303-0.377-0.303h-0.077v-0.379h0.078
		c0.304,0,0.529,0.152,0.681,0.454c0.152,0.303,0.227,0.756,0.227,1.363v0.076h-0.986v-0.303H-31.713L-31.713-63.965z
		 M-32.319-61.922v-0.379l0,0c0.152,0,0.304-0.076,0.381-0.228c0.075-0.15,0.15-0.377,0.15-0.604h0.453
		c-0.076,0.38-0.152,0.681-0.302,0.833C-31.789-62.074-32.015-61.922-32.319-61.922z M-32.319-65.178
		c-0.151,0-0.227,0.152-0.378,0.304c-0.078,0.228-0.152,0.529-0.152,0.908h0.53v0.304h-0.529v0.15c0,0.38,0.076,0.682,0.152,0.908
		c0.075,0.152,0.227,0.303,0.379,0.303v0.379l0,0c-0.304,0-0.529-0.152-0.681-0.454c-0.152-0.301-0.227-0.755-0.227-1.361
		c0-0.53,0.075-0.984,0.227-1.363c0.152-0.303,0.379-0.453,0.681-0.453L-32.319-65.178L-32.319-65.178z"/>
	<path d="M-29.366-65.405v0.531c-0.076-0.077-0.152-0.152-0.227-0.229c0,0-0.078,0-0.229,0c-0.148,0-0.377,0.077-0.452,0.304
		c-0.078,0.227-0.152,0.604-0.152,1.136c0,0.453,0.075,0.756,0.152,0.984c0.075,0.227,0.303,0.302,0.452,0.302
		c0.078,0,0.229,0,0.303-0.076c0,0,0.078-0.078,0.152-0.152v0.454c-0.075,0.076-0.152,0.151-0.227,0.151c-0.078,0-0.152,0-0.303,0
		c-0.304,0-0.529-0.151-0.681-0.454c-0.229-0.302-0.304-0.681-0.304-1.212c0-0.605,0.076-1.061,0.304-1.363
		c0.152-0.38,0.454-0.531,0.754-0.531c0.152,0,0.229,0.077,0.229,0.077C-29.518-65.481-29.442-65.405-29.366-65.405z"/>
	<path d="M-27.474-63.965c0-0.38-0.078-0.681-0.151-0.908c-0.078-0.151-0.229-0.303-0.379-0.303l0,0v-0.379l0,0
		c0.301,0,0.529,0.152,0.681,0.454c0.15,0.303,0.227,0.756,0.227,1.363v0.076h-0.907v-0.303H-27.474L-27.474-63.965z
		 M-28.003-61.922v-0.379l0,0c0.149,0,0.227-0.076,0.301-0.228c0.152-0.15,0.152-0.377,0.152-0.604h0.455
		c0,0.38-0.152,0.681-0.303,0.833C-27.55-62.074-27.776-61.922-28.003-61.922z M-28.003-65.178c-0.151,0-0.303,0.152-0.381,0.304
		c-0.152,0.228-0.152,0.529-0.227,0.908h0.607v0.304h-0.604v0.15c0,0.38,0.075,0.682,0.152,0.908
		c0.151,0.152,0.227,0.303,0.454,0.303v0.379l0,0c-0.381,0-0.605-0.152-0.757-0.454c-0.152-0.301-0.227-0.755-0.227-1.361
		c0-0.53,0.075-0.984,0.227-1.363c0.227-0.303,0.454-0.453,0.757-0.453V-65.178z"/>
	<rect x="-26.489" y="-67.524" width="0.454" height="5.525"/>
	<path d="M-23.839-63.965c0-0.38-0.078-0.681-0.152-0.908c-0.075-0.151-0.227-0.303-0.379-0.303h-0.078v-0.379h0.078
		c0.304,0,0.531,0.152,0.681,0.454s0.227,0.756,0.227,1.363v0.076h-0.984v-0.303H-23.839L-23.839-63.965z M-24.446-61.922v-0.379
		l0,0c0.151,0,0.303-0.076,0.38-0.228c0.075-0.15,0.149-0.377,0.149-0.604h0.38c0,0.38-0.078,0.681-0.229,0.833
		C-23.916-62.074-24.143-61.922-24.446-61.922z M-24.446-65.178c-0.152,0-0.304,0.152-0.379,0.304
		c-0.078,0.228-0.152,0.529-0.152,0.908h0.529v0.304h-0.529v0.15c0,0.38,0.075,0.682,0.152,0.908
		c0.075,0.152,0.227,0.303,0.379,0.303v0.379l0,0c-0.304,0-0.529-0.152-0.681-0.454c-0.227-0.302-0.303-0.756-0.303-1.362
		c0-0.531,0.151-0.984,0.303-1.363c0.152-0.304,0.379-0.453,0.681-0.453V-65.178z"/>
	<path d="M-22.856-65.481h0.378v0.455c0.078-0.152,0.152-0.303,0.229-0.38c0.151-0.077,0.227-0.077,0.378-0.152v0.531
		c-0.227,0-0.378,0.076-0.454,0.151c-0.075,0.152-0.151,0.454-0.151,0.756V-62h-0.379L-22.856-65.481L-22.856-65.481z"/>
	<path d="M-20.585-62.301L-20.585-62.301c0.227,0,0.379-0.076,0.455-0.303c0.075-0.227,0.075-0.604,0.075-1.136
		c0-0.531,0-0.907-0.075-1.135c-0.078-0.151-0.229-0.303-0.455-0.303l0,0v-0.304c0.075,0,0.152,0,0.227,0.077
		c0.152,0,0.229,0.152,0.303,0.228v-0.303h0.379v3.482h-0.379v-0.302c-0.075,0.077-0.151,0.229-0.227,0.229
		c-0.078,0.076-0.152,0.152-0.304,0.152V-62.301z M-21.114-63.74c0,0.529,0.075,0.907,0.149,1.135
		c0.078,0.228,0.229,0.303,0.38,0.303v0.379h-0.078c-0.304,0-0.531-0.152-0.681-0.454c-0.15-0.301-0.152-0.756-0.152-1.437
		c0-0.606,0.078-1.061,0.152-1.287c0.152-0.303,0.379-0.454,0.681-0.454c0,0,0.078,0,0.078,0.078v0.302
		c-0.152,0-0.304,0.152-0.38,0.303C-21.039-64.647-21.114-64.269-21.114-63.74z"/>
	<polygon points="-18.769,-65.101 -19.071,-65.101 -19.071,-65.481 -18.769,-65.481 -18.769,-66.465 -18.314,-66.465 
		-18.314,-65.481 -17.709,-65.481 -17.709,-65.101 -18.314,-65.101 -18.314,-61.997 -18.769,-61.997 	"/>
	<path d="M-17.177-66.844c0.149,0,0.227,0,0.3,0.078c0,0.076,0.078,0.15,0.078,0.227c0,0.078-0.078,0.152-0.078,0.227
		c-0.076,0.078-0.152,0.078-0.3,0.078c-0.078,0-0.151,0-0.151-0.078c-0.078-0.076-0.152-0.15-0.152-0.227
		c0-0.076,0.075-0.15,0.075-0.227C-17.329-66.844-17.254-66.844-17.177-66.844L-17.177-66.844z M-17.329-65.481h0.378v3.482h-0.378
		V-65.481z"/>
	<path d="M-15.286-65.178L-15.286-65.178v-0.378l0,0c0.377,0,0.605,0.151,0.757,0.454c0.152,0.304,0.227,0.756,0.227,1.363
		c0,0.604-0.075,1.061-0.227,1.362c-0.152,0.303-0.381,0.454-0.757,0.454l0,0v-0.378l0,0c0.226,0,0.303-0.152,0.454-0.379
		c0.075-0.228,0.075-0.605,0.075-1.062c0-0.453,0-0.833-0.075-1.06C-14.983-65.101-15.06-65.178-15.286-65.178z M-15.286-65.178
		c-0.152,0-0.304,0.077-0.379,0.304c-0.152,0.228-0.152,0.604-0.152,1.136c0,0.53,0,0.833,0.152,1.061
		c0.075,0.227,0.227,0.378,0.379,0.378v0.379c-0.304,0-0.607-0.152-0.757-0.454c-0.148-0.301-0.227-0.756-0.227-1.362
		c0-0.606,0.078-1.061,0.227-1.363c0.151-0.302,0.455-0.453,0.757-0.453V-65.178z"/>
	<path d="M-13.62-65.481h0.381v0.303c0.076-0.076,0.227-0.228,0.301-0.228c0.152-0.077,0.229-0.152,0.38-0.152
		c0.304,0,0.455,0.152,0.531,0.304c0.151,0.151,0.227,0.454,0.227,0.833V-62h-0.453v-2.498c0-0.227,0-0.453-0.078-0.529
		c-0.075-0.152-0.227-0.152-0.379-0.152c-0.151,0-0.303,0.076-0.381,0.228c-0.075,0.152-0.149,0.377-0.149,0.604v2.348h-0.381
		L-13.62-65.481L-13.62-65.481z"/>
	<path d="M-11.198-62.678c0.077,0.075,0.152,0.227,0.302,0.227c0.075,0.077,0.227,0.152,0.304,0.152
		c0.151,0,0.303-0.077,0.378-0.152c0.152-0.152,0.227-0.227,0.227-0.454c0-0.152-0.227-0.378-0.529-0.682l-0.075-0.075
		c-0.303-0.228-0.454-0.454-0.529-0.53c-0.078-0.152-0.152-0.304-0.152-0.529c0-0.227,0.077-0.456,0.227-0.606
		c0.152-0.152,0.377-0.228,0.606-0.228c0.152,0,0.227,0,0.303,0.076c0.149,0,0.227,0.077,0.301,0.152v0.38
		c-0.075-0.076-0.152-0.152-0.227-0.152c-0.152-0.076-0.227-0.076-0.302-0.076c-0.152,0-0.227,0.076-0.379,0.152
		c-0.078,0.076-0.151,0.151-0.151,0.303c0,0.228,0.227,0.453,0.53,0.681v0.076c0.302,0.229,0.529,0.454,0.606,0.605
		c0.075,0.151,0.151,0.303,0.151,0.454c0,0.302-0.078,0.529-0.303,0.681c-0.152,0.228-0.377,0.304-0.606,0.304
		c-0.152,0-0.303,0-0.378-0.077c-0.152,0-0.229-0.077-0.303-0.152L-11.198-62.678L-11.198-62.678L-11.198-62.678z"/>
	<path d="M-22.325-58.137l0.454,0.15c-0.302,0.53-0.529,1.061-0.606,1.666c-0.152,0.529-0.227,1.135-0.227,1.739
		c0,0.532,0.075,1.136,0.227,1.667c0.078,0.604,0.304,1.135,0.606,1.666l-0.454,0.152c-0.227-0.606-0.454-1.135-0.604-1.74
		c-0.15-0.606-0.229-1.213-0.229-1.742c0-0.604,0.078-1.211,0.229-1.816C-22.781-57.002-22.553-57.531-22.325-58.137z"/>
	<polygon points="-20.813,-54.805 -21.796,-57.683 -21.342,-57.683 -20.585,-55.337 -19.904,-57.683 -19.374,-57.683 
		-20.358,-54.805 -20.358,-52.536 -20.813,-52.536 	"/>
	<path d="M-17.784-54.504c0-0.379,0-0.683-0.151-0.833c-0.078-0.228-0.226-0.38-0.378-0.38l0,0v-0.379l0,0
		c0.301,0,0.529,0.152,0.681,0.454c0.227,0.302,0.304,0.755,0.304,1.363v0.15h-0.985v-0.378L-17.784-54.504L-17.784-54.504z
		 M-18.314-52.461v-0.378l0,0c0.152,0,0.227-0.078,0.378-0.229c0.076-0.151,0.076-0.379,0.151-0.604h0.378
		c0,0.378-0.076,0.682-0.304,0.908C-17.86-52.536-18.087-52.461-18.314-52.461z M-18.314-55.716
		c-0.151,0.077-0.303,0.152-0.38,0.304c-0.076,0.227-0.151,0.53-0.151,0.907h0.531v0.379h-0.53v0.076c0,0.379,0,0.681,0.152,0.907
		c0.078,0.229,0.229,0.304,0.38,0.304v0.377l0,0c-0.304,0-0.606-0.15-0.757-0.453c-0.152-0.302-0.226-0.756-0.226-1.286
		c0-0.604,0.075-1.061,0.226-1.364c0.227-0.302,0.455-0.531,0.757-0.531v0.38H-18.314z"/>
	<path d="M-16.951-53.217c0.075,0.15,0.227,0.228,0.303,0.302c0.152,0.078,0.227,0.078,0.378,0.078c0.151,0,0.227-0.078,0.377-0.152
		c0.078-0.078,0.152-0.228,0.152-0.38c0-0.228-0.152-0.452-0.529-0.756l-0.074-0.075c-0.304-0.229-0.455-0.381-0.533-0.533
		c-0.076-0.149-0.152-0.3-0.152-0.453c0-0.301,0.078-0.453,0.229-0.604c0.227-0.227,0.378-0.302,0.681-0.302
		c0.076,0,0.152,0.077,0.304,0.077c0.075,0,0.152,0.076,0.303,0.152v0.454c-0.078-0.076-0.229-0.151-0.303-0.228
		c-0.078,0-0.229-0.077-0.304-0.077c-0.151,0-0.227,0.077-0.303,0.152c-0.152,0.077-0.152,0.229-0.152,0.302
		c0,0.229,0.152,0.455,0.455,0.756h0.076c0.303,0.228,0.455,0.454,0.605,0.604c0.078,0.151,0.078,0.303,0.078,0.532
		c0,0.228-0.078,0.453-0.229,0.681c-0.151,0.152-0.378,0.229-0.681,0.229c-0.152,0-0.227,0-0.378-0.077
		c-0.078,0-0.229-0.077-0.303-0.152V-53.217z"/>
	<polygon points="-13.469,-57.759 -13.091,-57.759 -15.286,-51.854 -15.665,-51.854 	"/>
	<path d="M-12.713-57.683h0.379l1.21,3.558c0,0,0,0.152,0.078,0.305c0.075,0.226,0.075,0.452,0.152,0.754
		c0-0.302-0.078-0.604-0.078-0.983c0-0.303,0-0.605,0-0.983v-2.651h0.381v5.148h-0.381l-1.135-3.482
		c-0.075-0.151-0.149-0.302-0.149-0.53c-0.078-0.152-0.152-0.377-0.152-0.604c0,0.38,0.076,0.681,0.076,0.984
		c0,0.379,0,0.682,0,0.907v2.724h-0.379v-5.146H-12.713z"/>
	<path d="M-8.852-55.716L-8.852-55.716v-0.378l0,0c0.38,0,0.606,0.152,0.756,0.454c0.152,0.302,0.227,0.755,0.227,1.363
		c0,0.608-0.075,1.061-0.227,1.363s-0.377,0.453-0.756,0.453l0,0v-0.378l0,0c0.229,0,0.38-0.078,0.454-0.303
		c0.078-0.302,0.152-0.606,0.152-1.135c0-0.455-0.075-0.833-0.152-1.061C-8.473-55.565-8.624-55.716-8.852-55.716z M-8.852-55.716
		c-0.152,0-0.303,0.152-0.379,0.38c-0.075,0.228-0.151,0.532-0.151,1.061c0,0.529,0.078,0.907,0.151,1.135
		c0.076,0.228,0.227,0.303,0.379,0.303v0.378c-0.303,0-0.529-0.151-0.755-0.453c-0.152-0.302-0.229-0.755-0.229-1.363
		c0-0.605,0.078-1.061,0.229-1.362c0.227-0.304,0.453-0.455,0.755-0.455V-55.716z"/>
	<path d="M-7.11-51.097l-0.377-0.152c0.226-0.531,0.451-1.061,0.603-1.666c0.152-0.531,0.228-1.135,0.228-1.667
		c0-0.604-0.078-1.212-0.228-1.739c-0.152-0.604-0.379-1.136-0.603-1.666l0.377-0.15c0.303,0.604,0.529,1.135,0.681,1.739
		c0.152,0.604,0.227,1.211,0.227,1.816c0,0.532-0.075,1.136-0.227,1.742C-6.581-52.233-6.808-51.703-7.11-51.097z"/>
	<polygon points="-36.33,-45.799 -37.087,-45.799 -37.087,-46.252 -35.042,-46.252 -35.042,-45.799 -35.8,-45.799 -35.8,-41.105 
		-36.33,-41.105 	"/>
	<path d="M-34.286-41.028l-0.907-3.558h0.452l0.455,2.045c0,0.228,0.078,0.379,0.078,0.53c0.075,0.227,0.075,0.379,0.075,0.531
		c0.078-0.228,0.151-0.531,0.151-0.757c0.078-0.229,0.078-0.379,0.152-0.452l0.379-1.893h0.454l-1.213,4.837h-0.455L-34.286-41.028z
		"/>
	<path d="M-31.637-41.332c0.152,0,0.302-0.15,0.38-0.378c0.075-0.152,0.152-0.532,0.152-1.061c0-0.604-0.078-0.984-0.152-1.136
		c-0.078-0.227-0.229-0.301-0.38-0.301v-0.38h0.078c0.304,0,0.529,0.15,0.681,0.38c0.152,0.301,0.226,0.755,0.226,1.362
		c0,0.682-0.075,1.136-0.226,1.364c-0.152,0.302-0.379,0.454-0.681,0.454h-0.078V-41.332z M-31.637-41.332L-31.637-41.332v0.304
		c-0.075,0-0.152,0-0.227-0.077c-0.075,0-0.227-0.077-0.303-0.229v1.666h-0.378v-4.92h0.378v0.302
		c0.078-0.075,0.229-0.152,0.303-0.228c0.075-0.077,0.152-0.077,0.227-0.077v0.38l0,0c-0.227,0-0.301,0.077-0.453,0.301
		c-0.078,0.228-0.078,0.605-0.078,1.136c0,0.529,0,0.907,0.078,1.061C-31.938-41.484-31.865-41.332-31.637-41.332z"/>
	<path d="M-28.685-43.076c0-0.378-0.075-0.68-0.151-0.832c-0.076-0.227-0.227-0.301-0.379-0.301l0,0v-0.38l0,0
		c0.303,0,0.529,0.15,0.681,0.38c0.151,0.301,0.229,0.755,0.229,1.362v0.151h-0.908v-0.381H-28.685L-28.685-43.076z M-29.215-41.028
		v-0.381l0,0c0.152,0,0.229-0.075,0.304-0.227c0.152-0.152,0.152-0.303,0.152-0.605h0.454c0,0.38-0.151,0.682-0.303,0.908
		C-28.76-41.105-28.988-41.028-29.215-41.028z M-29.215-44.209c-0.151,0-0.303,0.077-0.377,0.301
		c-0.153,0.152-0.153,0.455-0.23,0.832h0.605v0.381h-0.604v0.077c0,0.379,0.078,0.681,0.152,0.908
		c0.152,0.228,0.229,0.301,0.454,0.301v0.381l0,0c-0.377,0-0.606-0.152-0.754-0.454c-0.152-0.304-0.229-0.682-0.229-1.287
		s0.078-1.063,0.229-1.363c0.226-0.304,0.452-0.454,0.754-0.454L-29.215-44.209L-29.215-44.209z"/>
	<path d="M-25.429-46.707l0.455,0.15c-0.303,0.533-0.53,1.136-0.681,1.666c-0.078,0.606-0.152,1.136-0.152,1.742
		c0,0.605,0.075,1.135,0.152,1.739c0.15,0.532,0.377,1.062,0.681,1.59l-0.455,0.227c-0.304-0.603-0.453-1.211-0.604-1.817
		c-0.151-0.604-0.228-1.134-0.228-1.739c0-0.605,0.078-1.211,0.228-1.817C-25.885-45.497-25.733-46.1-25.429-46.707z"/>
	<path d="M-23.158-43.076c0-0.378-0.075-0.68-0.151-0.832c-0.075-0.227-0.227-0.301-0.379-0.301l0,0v-0.38l0,0
		c0.304,0,0.529,0.15,0.681,0.38c0.15,0.301,0.227,0.755,0.227,1.362v0.151h-0.907v-0.381H-23.158L-23.158-43.076z M-23.689-41.028
		v-0.381l0,0c0.152,0,0.227-0.075,0.304-0.227c0.151-0.152,0.151-0.303,0.151-0.605h0.453c0,0.38-0.077,0.682-0.301,0.908
		C-23.234-41.105-23.462-41.028-23.689-41.028z M-23.689-44.209c-0.152,0-0.303,0.077-0.379,0.301
		c-0.151,0.152-0.151,0.454-0.229,0.832h0.605v0.381h-0.605v0.077c0,0.379,0.078,0.681,0.151,0.908
		c0.152,0.228,0.227,0.301,0.454,0.301v0.381l0,0c-0.38,0-0.605-0.152-0.757-0.454c-0.152-0.304-0.227-0.682-0.227-1.287
		s0.075-1.063,0.227-1.363c0.229-0.304,0.454-0.454,0.757-0.454L-23.689-44.209L-23.689-44.209z"/>
	<path d="M-21.342-41.332L-21.342-41.332c0.151,0,0.303-0.15,0.378-0.378c0.078-0.152,0.152-0.532,0.152-1.061
		c0-0.531-0.075-0.908-0.152-1.136c-0.075-0.227-0.227-0.301-0.378-0.301l0,0v-0.38c0.078,0,0.151,0,0.229,0.077
		c0.075,0.076,0.227,0.153,0.227,0.303v-2.349h0.456v5.453h-0.456v-0.305c0,0.153-0.078,0.229-0.227,0.305
		c-0.078,0.077-0.152,0.077-0.229,0.077V-41.332z M-21.871-42.77c0,0.529,0,0.907,0.075,1.061c0.152,0.228,0.229,0.301,0.454,0.379
		v0.303c-0.075,0-0.075,0-0.152,0c-0.304,0-0.455-0.152-0.604-0.454c-0.151-0.228-0.229-0.757-0.229-1.438
		c0-0.604,0.078-0.984,0.229-1.285c0.149-0.229,0.301-0.38,0.604-0.38c0.078,0,0.078,0,0.152,0v0.38
		c-0.227,0-0.304,0.076-0.454,0.301C-21.871-43.755-21.871-43.376-21.871-42.77z"/>
	<polygon points="-18.238,-46.329 -17.86,-46.329 -20.055,-40.425 -20.433,-40.425 	"/>
	<path d="M-17.936-44.588h0.455l0.452,2.271c0,0.15,0.078,0.302,0.078,0.453c0,0.152,0.075,0.302,0.075,0.453
		c0-0.151,0.078-0.453,0.152-0.833v-0.075l0.454-2.271h0.455l-0.833,3.484h-0.455L-17.936-44.588z"/>
	<path d="M-14.605-41.332L-14.605-41.332c0.229,0,0.303-0.15,0.38-0.378c0.075-0.152,0.149-0.532,0.149-1.061
		c0-0.531-0.075-0.908-0.149-1.136c-0.078-0.227-0.151-0.301-0.38-0.301l0,0v-0.38c0.078,0,0.151,0,0.229,0.077
		c0.151,0.076,0.226,0.153,0.226,0.303v-2.349h0.455v5.453h-0.455v-0.305c0,0.153-0.075,0.229-0.226,0.305
		c-0.078,0.077-0.151,0.077-0.229,0.077V-41.332z M-15.134-42.77c0,0.529,0.075,0.907,0.151,1.061
		c0.075,0.228,0.152,0.301,0.378,0.379v0.303h-0.076c-0.303,0-0.529-0.152-0.681-0.454c-0.152-0.228-0.229-0.757-0.229-1.438
		c0-0.604,0.078-0.984,0.229-1.285c0.151-0.229,0.378-0.38,0.681-0.38h0.076v0.38c-0.227,0-0.304,0.076-0.378,0.301
		C-15.06-43.755-15.134-43.376-15.134-42.77z"/>
	<polygon points="-11.501,-46.329 -11.047,-46.329 -13.318,-40.425 -13.696,-40.425 	"/>
	<rect x="-10.82" y="-46.556" width="0.38" height="5.453"/>
	<path d="M-8.776-41.332L-8.776-41.332c0.227,0,0.303-0.15,0.378-0.378c0.152-0.152,0.152-0.532,0.152-1.061
		c0-0.531,0-0.908-0.152-1.136c-0.075-0.227-0.151-0.301-0.378-0.301l0,0v-0.38c0.075,0,0.152,0,0.227,0.077
		c0.151,0.076,0.229,0.153,0.302,0.303v-2.349h0.378v5.453h-0.378v-0.305c-0.075,0.153-0.152,0.229-0.227,0.305
		c-0.078,0.077-0.229,0.077-0.304,0.077L-8.776-41.332L-8.776-41.332z M-9.305-42.77c0,0.529,0.075,0.907,0.149,1.061
		c0.078,0.228,0.229,0.301,0.38,0.379v0.303h-0.078c-0.304,0-0.529-0.152-0.681-0.454c-0.152-0.228-0.227-0.757-0.227-1.438
		c0-0.604,0.075-0.984,0.227-1.285c0.152-0.229,0.379-0.38,0.681-0.38h0.078v0.38c-0.152,0-0.304,0.076-0.38,0.301
		C-9.23-43.755-9.305-43.376-9.305-42.77z"/>
	<path d="M-6.96-39.592l-0.377-0.227c0.301-0.53,0.453-1.061,0.603-1.59c0.152-0.603,0.229-1.134,0.229-1.738
		c0-0.606-0.078-1.211-0.229-1.742c-0.151-0.529-0.303-1.132-0.603-1.665l0.377-0.151c0.303,0.606,0.529,1.211,0.681,1.741
		c0.151,0.606,0.227,1.211,0.227,1.817c0,0.604-0.076,1.135-0.227,1.738C-6.429-40.802-6.656-40.196-6.96-39.592z"/>
	<polygon points="-22.174,-32.93 -21.721,-32.93 -21.721,-28.161 -20.585,-28.161 -20.585,-27.707 -22.174,-27.707 	"/>
	<rect x="-20.055" y="-32.93" width="0.455" height="5.224"/>
	<path d="M-17.177-28.236l-0.381-0.604v-0.228l0.229-0.151l0.452,0.681c0-0.152,0.078-0.38,0.078-0.681
		c0.075-0.303,0.075-0.682,0.075-1.136c0-0.756-0.075-1.286-0.227-1.667c-0.078-0.377-0.304-0.529-0.606-0.529v-0.455
		c0.454,0,0.758,0.228,0.985,0.684c0.229,0.453,0.303,1.061,0.303,1.968c0,0.53,0,0.985-0.075,1.363
		c-0.078,0.302-0.152,0.606-0.304,0.833l0.378,0.53l-0.378,0.229l-0.303-0.454c-0.078,0.077-0.152,0.077-0.304,0.152
		c-0.075,0-0.151,0-0.303,0v-0.38h0.078c0,0,0.075,0,0.152-0.078C-17.254-28.161-17.254-28.236-17.177-28.236z M-17.557-28.842
		l-0.075-0.152l0.075-0.077V-28.842L-17.557-28.842z M-17.557-32.552v-0.455l0,0c-0.378,0-0.755,0.228-0.905,0.684
		c-0.229,0.453-0.381,1.061-0.381,1.968c0,0.908,0.152,1.589,0.381,2.045c0.151,0.453,0.529,0.604,0.905,0.604l0,0v-0.38
		c-0.227,0-0.454-0.227-0.603-0.529c-0.078-0.38-0.152-0.908-0.152-1.741c0-0.756,0.075-1.286,0.152-1.667
		C-18.011-32.4-17.784-32.552-17.557-32.552L-17.557-32.552z"/>
	<path d="M-15.438-32.93h0.455v3.71c0,0.453,0.075,0.755,0.152,0.906c0.075,0.151,0.227,0.228,0.455,0.228
		c0.226,0,0.378-0.077,0.529-0.228c0.075-0.151,0.075-0.453,0.075-0.906v-3.71h0.532v3.71c0,0.604-0.078,0.983-0.303,1.211
		c-0.152,0.229-0.454,0.302-0.832,0.302c-0.381,0-0.685-0.076-0.833-0.302c-0.151-0.228-0.229-0.604-0.229-1.211L-15.438-32.93
		L-15.438-32.93z"/>
	<path d="M-11.198-28.086c0.302,0,0.529-0.227,0.606-0.529c0.151-0.38,0.227-0.908,0.227-1.741c0-0.756-0.076-1.286-0.227-1.667
		c-0.078-0.377-0.304-0.529-0.606-0.529v-0.455c0.454,0,0.756,0.228,0.984,0.684c0.227,0.453,0.302,1.061,0.302,1.968
		c0,0.908-0.078,1.589-0.302,2.045c-0.227,0.453-0.53,0.604-0.984,0.604V-28.086z M-11.198-32.552c-0.227,0-0.455,0.152-0.606,0.529
		c-0.075,0.381-0.151,0.908-0.151,1.667c0,0.757,0.078,1.363,0.151,1.741c0.152,0.302,0.38,0.529,0.606,0.529l0,0v0.38l0,0
		c-0.455,0-0.757-0.152-0.984-0.604c-0.152-0.454-0.304-1.135-0.304-2.045c0-0.907,0.152-1.515,0.304-1.968
		c0.227-0.456,0.529-0.684,0.984-0.684l0,0V-32.552L-11.198-32.552z"/>
	<path d="M-8.171-30.659c0.152,0,0.303-0.077,0.38-0.152c0.077-0.152,0.152-0.378,0.152-0.755c0-0.304-0.078-0.532-0.152-0.681
		c-0.078-0.076-0.228-0.152-0.38-0.229v-0.454c0.303,0.077,0.532,0.151,0.684,0.303c0.226,0.229,0.301,0.604,0.301,1.061
		c0,0.453-0.077,0.755-0.227,0.907c-0.152,0.228-0.378,0.378-0.681,0.378l1.136,2.574h-0.529l-0.684-1.589V-30.659L-8.171-30.659z
		 M-8.624-32.475v1.891h0.227c0.078,0,0.152,0,0.229-0.076v1.363l-0.454-1.135v2.724h-0.456v-5.224h0.531c0.151,0,0.302,0,0.38,0
		v0.454c-0.078,0-0.152,0-0.229,0L-8.624-32.475L-8.624-32.475z"/>
	<rect x="-2.416" y="-82.36" fill="none" stroke="#000000" stroke-width="0.5" width="369.409" height="57.455"/>
	<line fill="none" stroke="#000000" stroke-width="0.5" x1="15.598" y1="-82.285" x2="15.825" y2="-24.983"/>
	<line fill="none" stroke="#000000" stroke-width="0.5" x1="6.742" y1="-82.285" x2="6.97" y2="-38.154"/>
	<line fill="none" stroke="#000000" stroke-width="0.5" x1="24.455" y1="-82.285" x2="24.683" y2="-38.154"/>
	<line fill="none" stroke="#000000" stroke-width="0.5" x1="42.245" y1="-82.285" x2="42.472" y2="-38.154"/>
	<line fill="none" stroke="#000000" stroke-width="0.5" x1="60.034" y1="-82.285" x2="60.262" y2="-38.154"/>
	<line fill="none" stroke="#000000" stroke-width="0.5" x1="77.824" y1="-82.285" x2="78.051" y2="-38.154"/>
	<line fill="none" stroke="#000000" stroke-width="0.5" x1="95.613" y1="-82.285" x2="95.84" y2="-38.154"/>
	<line fill="none" stroke="#000000" stroke-width="0.5" x1="113.326" y1="-82.285" x2="113.554" y2="-38.154"/>
	<line fill="none" stroke="#000000" stroke-width="0.5" x1="131.116" y1="-82.285" x2="131.342" y2="-38.154"/>
	<line fill="none" stroke="#000000" stroke-width="0.5" x1="148.905" y1="-82.285" x2="149.132" y2="-38.154"/>
	<line fill="none" stroke="#000000" stroke-width="0.5" x1="166.618" y1="-82.285" x2="166.845" y2="-38.154"/>
	<line fill="none" stroke="#000000" stroke-width="0.5" x1="184.408" y1="-82.285" x2="184.559" y2="-38.154"/>
	<line fill="none" stroke="#000000" stroke-width="0.5" x1="202.122" y1="-82.285" x2="202.347" y2="-38.154"/>
	<line fill="none" stroke="#000000" stroke-width="0.5" x1="219.909" y1="-82.285" x2="220.135" y2="-38.154"/>
	<line fill="none" stroke="#000000" stroke-width="0.5" x1="237.699" y1="-82.285" x2="237.926" y2="-38.154"/>
	<line fill="none" stroke="#000000" stroke-width="0.5" x1="255.487" y1="-82.285" x2="255.715" y2="-38.154"/>
	<line fill="none" stroke="#000000" stroke-width="0.5" x1="273.201" y1="-82.285" x2="273.427" y2="-38.154"/>
	<line fill="none" stroke="#000000" stroke-width="0.5" x1="290.99" y1="-82.285" x2="291.217" y2="-38.154"/>
	<line fill="none" stroke="#000000" stroke-width="0.5" x1="308.78" y1="-82.285" x2="309.007" y2="-38.154"/>
	<line fill="none" stroke="#000000" stroke-width="0.5" x1="326.568" y1="-82.285" x2="326.796" y2="-38.154"/>
	<line fill="none" stroke="#000000" stroke-width="0.5" x1="344.358" y1="-82.285" x2="344.587" y2="-38.154"/>
	<line fill="none" stroke="#000000" stroke-width="0.5" x1="362.07" y1="-82.285" x2="362.3" y2="-38.154"/>
	<line fill="none" stroke="#000000" stroke-width="0.5" x1="33.388" y1="-82.285" x2="33.615" y2="-24.983"/>
	<line fill="none" stroke="#000000" stroke-width="0.5" x1="51.177" y1="-82.285" x2="51.406" y2="-24.983"/>
	<line fill="none" stroke="#000000" stroke-width="0.5" x1="68.89" y1="-82.285" x2="69.119" y2="-24.983"/>
	<line fill="none" stroke="#000000" stroke-width="0.5" x1="86.68" y1="-82.285" x2="86.907" y2="-24.983"/>
	<line fill="none" stroke="#000000" stroke-width="0.5" x1="104.469" y1="-82.285" x2="104.698" y2="-24.983"/>
	<line fill="none" stroke="#000000" stroke-width="0.5" x1="122.259" y1="-82.285" x2="122.485" y2="-24.983"/>
	<line fill="none" stroke="#000000" stroke-width="2.0001" x1="140.048" y1="-82.285" x2="140.275" y2="-24.983"/>
	<line fill="none" stroke="#000000" stroke-width="0.5" x1="157.686" y1="-82.285" x2="157.912" y2="-24.983"/>
	<line fill="none" stroke="#000000" stroke-width="0.5" x1="175.473" y1="-82.285" x2="175.703" y2="-24.983"/>
	<line fill="none" stroke="#000000" stroke-width="0.5" x1="193.264" y1="-82.285" x2="193.492" y2="-24.983"/>
	<line fill="none" stroke="#000000" stroke-width="0.5" x1="211.052" y1="-82.285" x2="211.282" y2="-24.983"/>
	<line fill="none" stroke="#000000" stroke-width="0.5" x1="228.765" y1="-82.285" x2="228.995" y2="-24.983"/>
	<line fill="none" stroke="#000000" stroke-width="0.5" x1="246.556" y1="-82.285" x2="246.783" y2="-24.983"/>
	<line fill="none" stroke="#000000" stroke-width="0.5" x1="264.344" y1="-82.285" x2="264.571" y2="-24.983"/>
	<line fill="none" stroke="#000000" stroke-width="0.5" x1="282.135" y1="-82.285" x2="282.36" y2="-24.983"/>
	<line fill="none" stroke="#000000" stroke-width="0.5" x1="299.923" y1="-82.285" x2="300.15" y2="-24.983"/>
	<line fill="none" stroke="#000000" stroke-width="0.5" x1="317.636" y1="-82.285" x2="317.863" y2="-24.983"/>
	<line fill="none" stroke="#000000" stroke-width="0.5" x1="335.427" y1="-82.285" x2="335.652" y2="-24.983"/>
	<line fill="none" stroke="#000000" stroke-width="0.5" x1="353.215" y1="-82.285" x2="353.441" y2="-24.983"/>
	<line fill="none" stroke="#000000" stroke-width="0.5" x1="-2.19" y1="-67.524" x2="366.992" y2="-67.675"/>
	<line fill="none" stroke="#000000" stroke-width="0.5" x1="-2.342" y1="-51.172" x2="366.842" y2="-51.324"/>
	<line fill="none" stroke="#000000" stroke-width="0.5" x1="-2.19" y1="-37.85" x2="366.992" y2="-38.076"/>
	<rect x="104.469" y="-91.368" fill="none" stroke="#000000" stroke-width="0.5" width="17.792" height="9.008"/>
	<rect x="106.437" y="-94.624" fill="#FFFFFF" width="13.856" height="5.981"/>
	<polygon points="107.951,-93.564 107.27,-93.564 107.346,-94.019 108.405,-94.019 108.405,-88.796 107.951,-88.796 	"/>
	<path d="M111.357-94.32h0.454v2.346c0.075-0.152,0.152-0.227,0.227-0.302c0.152-0.076,0.304-0.076,0.455-0.076
		c0.229,0,0.378,0.076,0.529,0.227c0.078,0.229,0.152,0.454,0.152,0.908v2.422h-0.452v-2.497c0-0.304,0-0.455-0.078-0.606
		c-0.075-0.076-0.152-0.151-0.303-0.151c-0.227,0-0.304,0.076-0.452,0.228c-0.078,0.152-0.078,0.379-0.078,0.681v2.346h-0.454
		L111.357-94.32L111.357-94.32z"/>
	<path d="M114.764-92.052L114.764-92.052v-0.301l0,0c0.304,0,0.606,0.151,0.757,0.453c0.152,0.303,0.227,0.756,0.227,1.287
		c0,0.604-0.075,1.061-0.227,1.363c-0.151,0.302-0.454,0.453-0.757,0.453l0,0v-0.302l0,0c0.152,0,0.304-0.15,0.379-0.377
		c0.151-0.228,0.151-0.606,0.151-1.061c0-0.53,0-0.908-0.151-1.136C115.067-91.9,114.915-92.052,114.764-92.052z M114.764-92.052
		c-0.227,0.077-0.302,0.152-0.454,0.38c-0.075,0.229-0.075,0.604-0.075,1.061c0,0.531,0,0.907,0.075,1.136
		c0.152,0.228,0.229,0.379,0.454,0.379v0.301c-0.302,0-0.606-0.151-0.757-0.453c-0.152-0.304-0.227-0.757-0.227-1.363
		c0-0.53,0.078-0.984,0.227-1.287c0.151-0.302,0.455-0.453,0.757-0.453V-92.052z"/>
	<path d="M116.355-92.277h0.455v2.27c0,0.302,0,0.53,0.075,0.682c0.075,0.076,0.227,0.15,0.379,0.15c0.229,0,0.303-0.075,0.381-0.15
		c0.075-0.152,0.151-0.38,0.151-0.682v-2.27h0.379v2.346c0,0.379-0.078,0.682-0.229,0.908c-0.149,0.15-0.379,0.227-0.681,0.227
		s-0.529-0.077-0.681-0.227c-0.152-0.227-0.227-0.531-0.227-0.908v-2.346H116.355z"/>
	<path d="M119.003-92.277h0.379v0.454c0.078-0.151,0.152-0.303,0.304-0.378c0.078-0.077,0.151-0.152,0.303-0.152v0.453
		c-0.227,0-0.379,0.077-0.455,0.229c-0.075,0.151-0.152,0.38-0.152,0.756v2.119h-0.379V-92.277z"/>
	<line fill="none" stroke="#FFFFFF" stroke-width="2.0001" x1="366.992" y1="-83.496" x2="366.992" y2="-22.56"/>
	<path d="M7.122-32.93c-0.229,0-0.304-0.078-0.454-0.301c-0.078-0.152-0.152-0.228-0.152-0.228c-0.075,0-0.227-0.078-0.454-0.078
		c-0.378,0-0.833,0.229-1.362,0.907c-0.606,0.756-0.984,1.59-0.984,2.271c0,0.379,0.151,0.682,0.378,0.986
		c0.229,0.226,0.454,0.377,0.832,0.377c0.304,0,0.532-0.077,0.833-0.228c0.152-0.077,0.455-0.227,0.757-0.531
		c0.152-0.076,0.304-0.15,0.379-0.15c0.078,0,0.229,0.076,0.302,0.15c0.076,0.08,0.076,0.155,0.076,0.307
		c0,0.15-0.078,0.228-0.151,0.301c-0.758,0.682-1.438,0.984-2.197,0.984c-0.604,0-1.06-0.227-1.436-0.681
		c-0.381-0.378-0.606-0.908-0.606-1.515c0-0.907,0.379-1.892,1.211-2.875c0.606-0.682,1.287-1.136,1.968-1.136
		c0.152,0,0.229,0,0.381,0c0.075,0.078,0.152,0.078,0.227,0.078c0.152-0.153,0.227-0.229,0.379-0.229c0.229,0,0.38,0.15,0.38,0.379
		c0.075,0.228,0.075,0.529,0.075,0.756c0,0.151,0,0.228-0.075,0.302C7.347-32.93,7.196-32.93,7.122-32.93z"/>
	<path d="M61.549-32.022c-0.228,0-0.38-0.076-0.454-0.301c-0.078-0.152-0.152-0.304-0.229-0.304c0-0.075-0.152-0.075-0.377-0.075
		c-0.456,0-0.833,0.302-1.363,0.907c-0.681,0.833-0.985,1.666-0.985,2.349c0,0.38,0.152,0.681,0.379,0.907
		c0.227,0.302,0.454,0.453,0.833,0.453c0.302,0,0.529-0.077,0.833-0.228c0.152-0.076,0.38-0.227,0.756-0.529
		c0.152-0.078,0.303-0.152,0.379-0.152c0.078,0,0.15,0.077,0.228,0.152c0.149,0.076,0.149,0.15,0.149,0.302
		c0,0.076-0.075,0.227-0.149,0.301c-0.757,0.684-1.438,0.984-2.197,0.984c-0.605,0-1.06-0.227-1.438-0.681
		c-0.377-0.38-0.604-0.907-0.604-1.514c0-0.908,0.379-1.892,1.212-2.876c0.605-0.834,1.287-1.135,1.968-1.135
		c0.15,0,0.227,0,0.377,0c0.078,0,0.152,0,0.229,0c0.151-0.078,0.227-0.153,0.377-0.153c0.227,0,0.303,0.153,0.378,0.305
		c0.078,0.227,0.078,0.528,0.078,0.832c0,0.152,0,0.229-0.078,0.302C61.775-32.022,61.624-32.022,61.549-32.022z"/>
	<path d="M149.282-33.233c-0.227,0-0.3-0.076-0.377-0.228c-0.075-0.153-0.152-0.303-0.227-0.303
		c-0.078-0.077-0.229-0.077-0.454-0.077c-0.378,0-0.833,0.302-1.362,0.832c-0.606,0.835-0.984,1.591-0.984,2.349
		c0,0.378,0.151,0.681,0.378,0.907c0.227,0.303,0.529,0.381,0.833,0.381c0.303,0,0.605-0.078,0.833-0.153
		c0.152-0.15,0.454-0.302,0.758-0.53c0.151-0.077,0.303-0.151,0.377-0.151c0.078,0,0.227,0,0.303,0.151
		c0.075,0.076,0.075,0.151,0.075,0.302c0,0.078,0,0.228-0.149,0.303c-0.684,0.604-1.438,0.983-2.197,0.983
		c-0.529,0-1.06-0.229-1.438-0.682c-0.379-0.453-0.604-0.907-0.604-1.514c0-0.907,0.452-1.892,1.21-2.801
		c0.681-0.833,1.287-1.214,1.968-1.214c0.152,0,0.226,0,0.377,0c0.078,0,0.229,0,0.304,0.078c0.078-0.15,0.229-0.228,0.378-0.228
		c0.15,0,0.302,0.15,0.302,0.378c0.078,0.229,0.078,0.532,0.078,0.833c0,0.076,0,0.153-0.078,0.229
		C149.51-33.306,149.434-33.233,149.282-33.233z"/>
	<path d="M186.45-28.615c-0.15,0-0.226-0.077-0.378-0.229c-0.077-0.152-0.151-0.378-0.151-0.682l-0.152-0.681
		c-0.151-0.454-0.302-1.437-0.604-2.952l-0.755,2.499l-0.304,0.756c-0.076,0.379-0.151,0.604-0.302,0.833
		c-0.076,0.15-0.228,0.302-0.454,0.302c-0.151,0-0.302-0.077-0.379-0.302c-0.077-0.077-0.151-0.229-0.151-0.454l-0.152-0.454
		c-0.301-0.984-0.529-1.969-0.756-3.103l-0.149,0.756l-0.531,2.194c0,0.229-0.075,0.606-0.152,1.136
		c-0.075,0.152-0.227,0.303-0.451,0.303c-0.152,0-0.229-0.077-0.303-0.151c-0.077-0.078-0.077-0.152-0.077-0.303
		c0-0.453,0.077-1.06,0.229-1.666l0.452-1.666l0.303-1.287c0.077-0.605,0.229-0.983,0.381-1.213
		c0.075-0.149,0.226-0.228,0.379-0.228c0.15,0,0.301,0.151,0.379,0.303c0.15,0.302,0.229,0.755,0.38,1.438
		c0.151,0.907,0.378,1.891,0.681,2.952c0.379-1.061,0.755-2.196,1.06-3.255l0.152-0.604c0-0.229,0.077-0.454,0.15-0.531
		c0.151-0.228,0.305-0.379,0.455-0.379c0.228,0,0.455,0.301,0.529,0.756c0.078,0.151,0.078,0.453,0.152,0.907
		c0.151,1.214,0.378,2.272,0.605,3.182l0.227,0.681c0.078,0.381,0.152,0.604,0.152,0.682c0,0.151,0,0.229-0.152,0.302
		C186.679-28.69,186.601-28.615,186.45-28.615z"/>
	<path d="M5.304-53.899c0,0.078-0.078,0.302-0.078,0.604C5.152-52.991,5-52.84,4.773-52.84c-0.152,0-0.301-0.078-0.529-0.304
		c-1.136-1.06-2.423-2.573-3.859-4.616v0.984v0.908c0,0.227,0,0.604,0,1.061c0,0.452,0,0.755,0,0.985
		c0,0.754-0.078,1.132-0.381,1.132c-0.152,0-0.303-0.075-0.377-0.149c-0.075-0.078-0.075-0.151-0.075-0.303c0-0.077,0-0.302,0-0.53
		c0-0.229,0-0.379,0-0.529c0-0.153,0-0.381,0-0.758c0.075-0.302,0.075-0.604,0.075-0.756c0-0.15,0-0.453,0-0.833
		c-0.075-0.377-0.075-0.604-0.075-0.833c0-0.152,0-0.453,0-0.755c-0.078-0.38-0.078-0.605-0.078-0.756
		c0-0.151,0.078-0.303,0.152-0.378c0.151-0.077,0.227-0.152,0.377-0.152c0.152,0,0.303,0.152,0.532,0.455
		c0.681,1.06,1.285,1.892,1.817,2.572c0.681,0.833,1.362,1.59,2.12,2.348c0-0.15,0-0.303,0-0.532v-0.528
		c0-1.211,0-2.196-0.152-2.876c0-0.076,0-0.228-0.078-0.454c-0.075-0.151-0.075-0.302-0.075-0.454c0-0.304,0.152-0.456,0.452-0.456
		c0.455,0,0.684,0.908,0.684,2.65c0,0.303,0,0.834,0,1.438C5.304-54.656,5.304-54.2,5.304-53.899z"/>
	<path d="M23.32-54.428c0,0.151-0.075,0.302-0.075,0.681c-0.075,0.229-0.227,0.38-0.455,0.38c-0.15,0-0.302-0.077-0.529-0.301
		c-1.136-1.062-2.423-2.575-3.861-4.619v0.985v0.908c0,0.229,0,0.604,0,1.061c0,0.454,0,0.755,0,1.061
		c0,0.681-0.076,1.061-0.378,1.061c-0.151,0-0.303,0-0.378-0.152c-0.078-0.077-0.078-0.152-0.078-0.301c0-0.078,0-0.303,0-0.53
		c0-0.229,0-0.381,0-0.533c0-0.149,0-0.378,0-0.753c0.078-0.305,0.078-0.607,0.078-0.759c0-0.151,0-0.453,0-0.833
		c-0.078-0.379-0.078-0.606-0.078-0.833c0-0.152,0-0.379,0-0.758c-0.076-0.301-0.076-0.604-0.076-0.755
		c0-0.152,0.076-0.229,0.152-0.379c0.152-0.076,0.227-0.152,0.379-0.152s0.302,0.152,0.529,0.453
		c0.684,1.062,1.287,1.893,1.816,2.575c0.684,0.832,1.364,1.589,2.12,2.345c0-0.152,0-0.301,0-0.529v-0.529
		c0-1.213,0-2.197-0.152-2.878c0-0.075,0-0.227-0.075-0.453c-0.075-0.152-0.075-0.303-0.075-0.455c0-0.302,0.149-0.453,0.453-0.453
		c0.454,0,0.681,0.908,0.681,2.724c0,0.304,0,0.756,0,1.363C23.32-55.186,23.32-54.732,23.32-54.428z"/>
	<path d="M41.336-54.277c0,0.151-0.075,0.379-0.075,0.681c-0.078,0.302-0.229,0.454-0.454,0.454c-0.151,0-0.303-0.152-0.529-0.302
		c-1.136-1.061-2.347-2.65-3.785-4.618l-0.078,0.907v0.984c0,0.229,0,0.531,0,0.983s0.078,0.833,0.078,1.061
		c0,0.756-0.152,1.136-0.455,1.136c-0.152,0-0.304-0.078-0.378-0.152c-0.078-0.077-0.078-0.228-0.078-0.302c0-0.152,0-0.304,0-0.53
		c0-0.227,0-0.454,0-0.531c0-0.152,0-0.454,0.078-0.756c0-0.378,0-0.604,0-0.756c0-0.228,0-0.454,0-0.833s-0.078-0.682-0.078-0.834
		c0-0.227,0-0.453,0-0.755c-0.075-0.379-0.075-0.606-0.075-0.833c0-0.076,0.075-0.228,0.152-0.303
		c0.152-0.151,0.227-0.151,0.377-0.151c0.152,0,0.304,0.151,0.529,0.454c0.681,1.06,1.288,1.892,1.816,2.572
		c0.681,0.834,1.366,1.59,2.121,2.271c0.078-0.077,0.078-0.229,0-0.453v-0.53c0-1.213,0-2.197-0.151-2.952
		c0-0.077,0-0.152-0.075-0.379c-0.078-0.227-0.078-0.379-0.078-0.454c0-0.303,0.152-0.455,0.454-0.455
		c0.456,0,0.681,0.834,0.681,2.651c0,0.302,0,0.756,0,1.364C41.336-55.033,41.336-54.58,41.336-54.277z"/>
	<path d="M58.672-54.805c0,0.149-0.075,0.377-0.075,0.68c-0.078,0.305-0.229,0.454-0.454,0.454c-0.151,0-0.302-0.149-0.529-0.302
		c-1.136-1.06-2.423-2.65-3.861-4.618v0.907v0.984c0,0.229,0,0.531,0,0.984c0,0.531,0,0.834,0,1.063
		c0,0.755-0.075,1.134-0.377,1.134c-0.152,0-0.303-0.077-0.381-0.149c-0.075-0.078-0.075-0.229-0.075-0.304c0-0.151,0-0.302,0-0.53
		c0-0.229,0-0.379,0-0.529c0-0.153,0-0.454,0-0.757c0.075-0.379,0.075-0.604,0.075-0.756c0-0.227,0-0.453,0-0.833
		c-0.075-0.377-0.075-0.681-0.075-0.833s0-0.454,0-0.755c-0.078-0.38-0.078-0.604-0.078-0.833c0-0.076,0.078-0.228,0.152-0.303
		c0.152-0.152,0.229-0.152,0.381-0.152c0.151,0,0.302,0.152,0.529,0.455c0.681,1.06,1.287,1.892,1.816,2.572
		c0.681,0.833,1.362,1.59,2.121,2.348c0-0.15,0-0.303,0-0.53v-0.531c0-1.212,0-2.196-0.152-2.875c0-0.077,0-0.228-0.075-0.454
		c-0.078-0.228-0.078-0.38-0.078-0.454c0-0.303,0.152-0.454,0.454-0.454c0.455,0,0.681,0.831,0.681,2.648c0,0.304,0,0.758,0,1.363
		C58.671-55.562,58.672-55.108,58.672-54.805z"/>
	<path d="M76.612-54.58c0,0.152,0,0.381,0,0.682c-0.076,0.229-0.227,0.379-0.453,0.379c-0.152,0-0.303-0.077-0.532-0.3
		c-1.136-1.063-2.42-2.575-3.859-4.619v0.984v0.907c0,0.229,0,0.606,0,1.061c0,0.454,0,0.833,0,1.06
		c0,0.681-0.152,1.061-0.377,1.061c-0.152,0-0.304,0-0.381-0.152c-0.075-0.077-0.152-0.149-0.152-0.3
		c0-0.078,0.078-0.305,0.078-0.533c0-0.228,0-0.38,0-0.529c0-0.15,0-0.38,0-0.755c0-0.303,0.076-0.607,0.076-0.757
		c0-0.152,0-0.454-0.076-0.833c0-0.378,0-0.604,0-0.833c0-0.152,0-0.379,0-0.756c-0.078-0.302-0.078-0.604-0.078-0.755
		c0-0.152,0.078-0.229,0.152-0.38c0.078-0.076,0.229-0.151,0.381-0.151c0.151,0,0.301,0.151,0.529,0.53
		c0.681,0.984,1.288,1.816,1.817,2.497c0.681,0.833,1.362,1.591,2.12,2.345c0-0.149,0-0.3,0-0.529v-0.534
		c0-1.211-0.078-2.196-0.152-2.875c0-0.075,0-0.227-0.078-0.453c-0.075-0.151-0.075-0.303-0.075-0.453
		c0-0.303,0.152-0.455,0.379-0.455c0.532,0,0.757,0.908,0.757,2.724c0,0.303,0,0.756,0,1.363
		C76.689-55.334,76.612-54.883,76.612-54.58z"/>
	<path d="M147.92-55.791c0,0.152-0.075,0.38-0.075,0.683c-0.078,0.303-0.229,0.377-0.454,0.377c-0.152,0-0.304-0.074-0.529-0.3
		c-1.136-1.061-2.423-2.574-3.861-4.542v0.906v0.984c0,0.228,0,0.53,0,0.984s0,0.834,0,1.062c0,0.755-0.076,1.134-0.379,1.134
		c-0.152,0-0.304-0.077-0.377-0.151c-0.078-0.078-0.078-0.228-0.078-0.303c0-0.151,0-0.302,0-0.529c0-0.229,0-0.454,0-0.531
		c0-0.228,0-0.454,0-0.756c0.078-0.38,0.078-0.606,0.078-0.833c0-0.152,0-0.454-0.078-0.757c0-0.379,0-0.681,0-0.833
		c0-0.228,0-0.455,0-0.833c-0.075-0.304-0.075-0.606-0.075-0.756c0-0.152,0.075-0.228,0.151-0.304
		c0.149-0.151,0.227-0.228,0.377-0.228c0.152,0,0.304,0.228,0.529,0.53c0.681,0.985,1.287,1.892,1.816,2.573
		c0.682,0.756,1.363,1.589,2.121,2.271c0-0.077,0-0.304,0-0.53v-0.529c0-1.213,0-2.12-0.152-2.876c0-0.077,0-0.228-0.075-0.38
		c-0.078-0.228-0.078-0.379-0.078-0.453c0-0.38,0.152-0.531,0.381-0.531c0.529,0,0.755,0.907,0.755,2.724c0,0.304,0,0.757,0,1.363
		C147.92-56.548,147.92-56.093,147.92-55.791z"/>
	<path d="M155.869-59.122c-0.078,0.077-0.152,0.229-0.229,0.453l-0.681,1.742c-0.303,0.681-0.53,1.287-0.833,1.74l-0.456,0.908
		l-0.227,0.455c-0.078,0.149-0.229,0.3-0.302,0.3c-0.077,0-0.227-0.077-0.304-0.15c-0.077-0.077-0.152-0.149-0.152-0.303
		c0-0.076,0.152-0.38,0.456-0.907l0.377-0.908c-0.377-0.604-0.681-1.135-0.833-1.514c-0.152-0.304-0.377-0.681-0.603-1.135
		c-0.456-0.605-0.684-0.908-0.758-1.061c0-0.076,0-0.151,0-0.227c0-0.076,0-0.228,0.075-0.303c0.078-0.077,0.229-0.077,0.304-0.077
		c0.152,0,0.228,0,0.38,0.152l0.301,0.529c0.303,0.455,0.455,0.681,0.532,0.907c0.227,0.304,0.303,0.606,0.451,0.908
		c0.078,0.228,0.304,0.53,0.532,0.908l0.985-2.27c0.075-0.228,0.227-0.455,0.451-0.908c0.078-0.152,0.152-0.229,0.381-0.229
		c0.075,0,0.152,0,0.304,0.077c0.075,0.077,0.075,0.152,0.075,0.302C156.096-59.575,156.021-59.425,155.869-59.122z"/>
	<path d="M164.878-59.197c-0.078,0.152-0.152,0.304-0.303,0.529l-0.681,1.742c-0.302,0.681-0.532,1.21-0.757,1.739l-0.529,0.908
		l-0.229,0.455c-0.075,0.149-0.152,0.226-0.301,0.226c-0.152,0-0.229,0-0.304-0.152c-0.078-0.074-0.152-0.15-0.152-0.227
		c0-0.152,0.152-0.454,0.378-0.907l0.529-0.908c-0.529-0.681-0.833-1.135-0.984-1.514c-0.075-0.303-0.303-0.681-0.603-1.135
		c-0.381-0.606-0.606-0.985-0.685-1.061c-0.076-0.077-0.076-0.152-0.076-0.227c0-0.152,0.076-0.229,0.152-0.304
		c0.075-0.076,0.152-0.151,0.302-0.151c0.075,0,0.227,0.076,0.304,0.228l0.3,0.453c0.303,0.454,0.532,0.758,0.605,0.908
		c0.227,0.379,0.378,0.682,0.454,0.984c0.152,0.229,0.304,0.531,0.604,0.908l0.909-2.347c0.152-0.152,0.304-0.454,0.454-0.832
		c0.075-0.228,0.227-0.303,0.377-0.303c0.152,0,0.228,0.076,0.304,0.151c0.075,0.077,0.152,0.152,0.152,0.304
		C165.104-59.652,165.028-59.425,164.878-59.197z"/>
	<path d="M173.809-60.258c-0.076,0.152-0.153,0.304-0.228,0.531l-0.683,1.739c-0.302,0.605-0.531,1.213-0.834,1.741l-0.452,0.908
		l-0.229,0.453c-0.075,0.151-0.227,0.229-0.379,0.229c-0.077,0-0.227-0.077-0.302-0.149c-0.076-0.078-0.151-0.153-0.151-0.304
		c0-0.078,0.151-0.378,0.453-0.833l0.454-0.984c-0.454-0.606-0.756-1.136-0.907-1.438c-0.152-0.38-0.378-0.756-0.606-1.136
		c-0.451-0.604-0.681-0.984-0.755-1.135c0-0.075,0-0.15,0-0.227c0-0.076,0-0.151,0.075-0.228c0.078-0.152,0.229-0.152,0.304-0.152
		c0.15,0,0.229,0.077,0.381,0.152l0.302,0.529c0.302,0.455,0.453,0.756,0.531,0.907c0.227,0.304,0.379,0.684,0.53,0.908
		c0.075,0.228,0.303,0.607,0.529,0.984l0.983-2.347c0.078-0.151,0.229-0.455,0.455-0.833c0.075-0.229,0.152-0.304,0.378-0.304
		c0.077,0,0.152,0,0.23,0.077c0.15,0.152,0.15,0.228,0.15,0.303C174.036-60.711,173.96-60.484,173.809-60.258z"/>
	<path d="M183.195-60.56c-0.076,0.077-0.15,0.229-0.227,0.456l-0.683,1.739c-0.301,0.681-0.531,1.287-0.833,1.741l-0.452,0.907
		l-0.229,0.454c-0.077,0.152-0.228,0.229-0.379,0.229c-0.075,0-0.227,0-0.304-0.077c-0.075-0.078-0.15-0.228-0.15-0.302
		c0-0.076,0.15-0.381,0.454-0.908l0.454-0.908c-0.454-0.681-0.758-1.136-0.908-1.514c-0.15-0.303-0.379-0.682-0.604-1.135
		c-0.454-0.606-0.682-0.908-0.757-1.061c0-0.077,0-0.152,0-0.229c0-0.151,0-0.228,0.077-0.302c0.076-0.075,0.229-0.151,0.301-0.151
		c0.152,0,0.229,0.076,0.382,0.228l0.302,0.53c0.302,0.379,0.452,0.681,0.53,0.833c0.228,0.377,0.379,0.681,0.529,0.984
		c0.078,0.228,0.228,0.529,0.531,0.908l0.984-2.271c0.076-0.228,0.229-0.529,0.452-0.908c0.078-0.152,0.152-0.304,0.381-0.304
		c0.076,0,0.15,0.077,0.228,0.152c0.152,0.076,0.152,0.152,0.152,0.302C183.424-61.013,183.347-60.863,183.195-60.56z"/>
	<path d="M164.424-48.22c-0.078,0-0.078,0-0.152-0.075c-0.454-0.077-0.909-0.152-1.363-0.152c-0.229,0-0.454,0-0.684,0.076
		c-0.301,0-0.604,0.077-0.906,0.151c0,0.153,0.075,0.303,0.075,0.454c0,0.379-0.075,0.907-0.075,1.589l1.816-0.227
		c0.529,0,0.833-0.078,0.984-0.078c0.075,0,0.226,0.078,0.304,0.15c0.075,0.078,0.075,0.152,0.075,0.305
		c0,0.226-0.075,0.377-0.378,0.377l-0.984,0.15l-1.893,0.152c0,0.152,0,0.38,0,0.531c0,0.228-0.075,0.378-0.075,0.53
		c0,0.604,0.075,0.908,0.152,1.061c0.075,0.078,0.303,0.078,0.681,0.078c0.151,0,0.378,0,0.757,0c0.377,0,0.603,0,0.755,0
		c0.078,0,0.152,0,0.229,0c0.152-0.078,0.227-0.078,0.3-0.078c0.303,0,0.381,0.149,0.381,0.454c0,0.228-0.078,0.378-0.304,0.454
		c-0.303,0-0.833,0.075-1.666,0.075c-0.909,0-1.438-0.151-1.666-0.379c-0.303-0.228-0.381-0.833-0.381-1.666c0-0.228,0-0.38,0-0.606
		c0-0.226,0-0.453,0-0.681c0-0.077,0-0.152,0-0.229c0-0.076,0-0.15,0.078-0.226c0-0.759,0.075-1.366,0.075-1.742
		c0-0.15-0.075-0.301-0.075-0.454c0-0.227,0-0.379,0-0.453c0-0.302,0.075-0.532,0.377-0.532c0.152,0,0.227,0.077,0.304,0.153
		c0.303-0.078,0.605-0.153,0.907-0.229c0.303,0,0.605-0.076,0.834-0.076c0.682,0,1.211,0.076,1.666,0.303
		c0.151,0.075,0.227,0.152,0.227,0.379c0,0.076,0,0.228-0.075,0.302C164.649-48.296,164.497-48.22,164.424-48.22z"/>
	<path d="M155.49-47.54c-0.077,0-0.077,0-0.152-0.076c-0.451-0.077-0.907-0.152-1.362-0.152c-0.227,0-0.454,0-0.681,0.077
		c-0.227,0-0.53,0.076-0.833,0.151c0.076,0.229,0.076,0.304,0.076,0.454c0,0.379-0.076,0.907-0.076,1.588l1.742-0.228
		c0.529,0,0.833-0.077,0.985-0.077c0.075,0,0.226,0.077,0.301,0.152c0.078,0.076,0.078,0.15,0.078,0.302
		c0,0.228-0.078,0.378-0.377,0.453l-0.984,0.077l-1.818,0.15c0,0.228,0,0.38,0,0.532c0,0.227,0,0.378,0,0.529
		c0,0.604,0,0.984,0.078,1.061c0.076,0.075,0.303,0.15,0.682,0.15c0.078,0,0.377,0,0.681-0.077c0.38,0,0.605,0,0.757,0
		c0.075,0,0.152,0,0.304,0c0.075,0,0.151-0.075,0.227-0.075c0.302,0,0.454,0.15,0.454,0.453c0,0.229-0.152,0.38-0.377,0.454
		c-0.303,0-0.833,0.077-1.668,0.077c-0.833,0-1.362-0.15-1.588-0.38c-0.303-0.229-0.38-0.755-0.38-1.666c0-0.15,0-0.379,0-0.604
		c0-0.229,0-0.455,0-0.683c0-0.077,0-0.151,0-0.151c0-0.15,0-0.228,0.078-0.302c0-0.755,0.077-1.363,0.077-1.739
		c0-0.151,0-0.229-0.077-0.454c0-0.229,0-0.38,0-0.453c0-0.303,0.077-0.532,0.379-0.532c0.152,0,0.228,0.076,0.303,0.151
		c0.302-0.076,0.681-0.151,0.833-0.228c0.302,0,0.605,0,0.832,0c0.681,0,1.214,0.077,1.666,0.228
		c0.152,0.077,0.229,0.151,0.229,0.38c0,0.076,0,0.227-0.078,0.301C155.719-47.615,155.565-47.54,155.49-47.54z"/>
	<path d="M182.591-43.376c-0.38,0.15-0.835,0.3-1.516,0.378c-0.604,0.151-1.136,0.151-1.515,0.151c-0.227,0-0.453,0-0.605-0.077
		c-0.151-0.153-0.227-0.379-0.227-0.682l0.075-1.362c0.077-1.212,0.151-2.65,0.151-4.165c0-0.151,0-0.229,0.078-0.302
		c0.076-0.077,0.15-0.152,0.304-0.152c0.151,0,0.227,0.078,0.302,0.152c0.076,0.076,0.076,0.151,0.076,0.302
		c0,1.515,0,2.952-0.076,4.238l-0.078,0.605c0,0.227,0,0.453,0,0.604c0.682,0,1.591-0.152,2.725-0.453
		c0.076-0.077,0.076-0.077,0.152-0.077s0.227,0.077,0.301,0.149c0.077,0.077,0.077,0.228,0.077,0.304
		C182.816-43.604,182.741-43.451,182.591-43.376z"/>
	<path d="M173.656-42.695c-0.302,0.152-0.832,0.302-1.513,0.38c-0.605,0.151-1.136,0.229-1.515,0.229
		c-0.229,0-0.454-0.077-0.604-0.153c-0.151-0.151-0.227-0.301-0.227-0.681l0.075-1.363c0.077-1.213,0.151-2.649,0.151-4.164
		c0-0.152,0-0.229,0.074-0.304c0.077-0.076,0.23-0.149,0.304-0.149c0.151,0,0.229,0.076,0.303,0.149
		c0.078,0.078,0.152,0.152,0.152,0.304c0,1.515-0.076,2.951-0.152,4.239l-0.076,0.604c0,0.229,0,0.455,0,0.605
		c0.755,0,1.666-0.15,2.723-0.454c0.078-0.076,0.078-0.076,0.152-0.076c0.077,0,0.229,0.076,0.303,0.152
		c0.077,0.076,0.077,0.228,0.077,0.3C173.885-42.922,173.809-42.77,173.656-42.695z"/>
	<path d="M22.185-71.385v0.605v0.681c0,0.152-0.078,0.229-0.078,0.302c0,0.075-0.076,0.152-0.227,0.152
		c-0.229,0-0.304-0.152-0.304-0.531v-0.151v-0.077c-0.078,0-0.229,0-0.454,0c-0.151,0-0.303,0-0.378,0c-0.304,0-0.681,0-1.213-0.077
		c-0.529,0-0.907-0.076-1.211,0c0.227,0.229,0.304,0.454,0.304,0.531s0,0.152-0.078,0.228c-0.076,0-0.151,0.077-0.227,0.077
		c-0.076,0-0.151-0.077-0.302-0.304c-0.075-0.076-0.227-0.228-0.378-0.454c-0.229-0.227-0.304-0.379-0.304-0.529
		c0-0.151,0.075-0.229,0.227-0.229c0.078,0,0.152,0,0.229,0c0.075,0,0.152,0.077,0.227,0.077c0.078,0,0.152-0.077,0.302-0.077
		s0.227,0,0.304,0c0.227,0,0.604,0.077,1.06,0.077c0.458,0.077,0.835,0.077,1.063,0.077c0.075,0,0.227,0,0.378,0
		c0.227,0,0.304,0,0.454,0v-0.379c0-0.077,0-0.15,0.075-0.227c0.078-0.077,0.152-0.077,0.229-0.077c0.075,0,0.152,0,0.227,0.077
		C22.109-71.535,22.185-71.46,22.185-71.385z"/>
	<path d="M20.822-75.094h1.136c0.152,0,0.303,0.077,0.303,0.304c0,0.228-0.151,0.303-0.455,0.303c-0.075,0-0.075,0-0.152,0
		c-0.075,0-0.151,0-0.151,0h-0.681l-0.075,1.362c0,0.303,0,0.53,0,0.605c-0.078,0.227-0.152,0.302-0.229,0.302
		c-0.075,0-0.227-0.076-0.379-0.151l-0.302-0.302l-0.603-0.454v-0.681c0.377,0.229,0.681,0.454,0.905,0.604l0.078-1.286h-0.984
		v-0.605h0.984c0-0.077,0-0.077,0-0.152c0-0.379,0.075-0.604,0.301-0.604c0.152,0,0.229,0.152,0.303,0.304
		C20.822-75.472,20.822-75.322,20.822-75.094z M19.233-73.125l-1.59-1.061c-0.229-0.152-0.304-0.377-0.304-0.529
		c0-0.304,0.075-0.38,0.304-0.38h1.59v0.605h-1.063c0.379,0.227,0.758,0.454,1.063,0.681V-73.125z"/>
	<path d="M22.336-77.743c0,0.53-0.227,0.984-0.604,1.287c-0.078,0-0.151,0.075-0.229,0.075c-0.076,0-0.152-0.075-0.152-0.15
		c-0.075,0-0.149-0.077-0.149-0.229c0-0.076,0.075-0.151,0.149-0.228c0.152-0.077,0.229-0.152,0.303-0.227
		c0.078-0.152,0.078-0.302,0.078-0.53c0-0.38-0.078-0.681-0.381-0.907c-0.227-0.229-0.604-0.38-0.907-0.38
		c-0.304,0-0.606,0.077-0.756,0.152c-0.227,0.152-0.379,0.302-0.379,0.604c0,0.229,0.078,0.38,0.078,0.531
		c0.075,0.152,0.149,0.228,0.301,0.378l0.38,0.304c0.075,0.152,0.075,0.228,0.075,0.302c0,0.077,0,0.152-0.075,0.228
		c-0.078,0.077-0.078,0.077-0.229,0.077c0,0-0.227,0-0.53-0.077c-0.606,0-1.059-0.076-1.287-0.076c-0.075,0-0.151,0-0.227,0.076
		c-0.078,0-0.151,0-0.151,0c-0.152,0-0.229-0.076-0.229-0.303c0,0,0-0.077,0-0.152c0-0.152,0.078-0.152,0.078-0.227
		c0-0.152-0.078-0.302-0.078-0.53c0-0.229,0-0.454,0-0.531c0-0.076,0-0.15,0-0.302c0-0.076,0-0.228,0-0.228c0-0.077,0-0.152,0-0.229
		c0-0.076,0-0.076,0-0.151c0-0.077,0-0.152,0.078-0.229c0.075-0.076,0.152-0.076,0.227-0.076c0.229,0,0.303,0.228,0.303,0.757
		c0,0.077,0,0.152,0,0.227c0,0.077,0,0.152,0,0.228v0.531v0.53c0.152,0,0.454,0,1.063,0.077c-0.229-0.304-0.304-0.681-0.304-1.136
		c0-0.454,0.152-0.833,0.529-1.061c0.227-0.227,0.682-0.302,1.136-0.302c0.529,0,0.984,0.15,1.362,0.454
		C22.185-78.803,22.336-78.349,22.336-77.743z"/>
	<path d="M4.774-71.687v0.604v0.604c0,0.152,0,0.303-0.076,0.303c0,0.152-0.078,0.152-0.227,0.152c-0.229,0-0.304-0.152-0.304-0.454
		v-0.151v-0.152c-0.078,0-0.229,0.077-0.454,0.077c-0.152,0-0.303,0-0.378,0c-0.304,0-0.684,0-1.213-0.077
		c-0.529,0-0.907-0.076-1.21-0.076c0.226,0.303,0.302,0.453,0.302,0.529c0,0.076,0,0.151-0.078,0.228
		c-0.075,0.077-0.075,0.077-0.226,0.077c-0.078,0-0.152-0.077-0.304-0.227C0.53-70.4,0.381-70.551,0.229-70.702
		C0-70.93-0.074-71.081-0.074-71.233c0-0.152,0.075-0.229,0.227-0.229c0.078,0,0.152,0,0.229,0c0.075,0,0.152,0.077,0.227,0.077
		s0.152-0.077,0.303-0.077c0.152,0,0.226,0,0.302,0c0.227,0,0.604,0.077,1.06,0.077c0.455,0.076,0.833,0.076,1.062,0.076
		c0.075,0,0.227,0,0.379,0c0.227,0,0.378,0,0.454-0.076v-0.302c0-0.077,0-0.152,0.075-0.229c0.078,0,0.151-0.076,0.229-0.076
		c0.075,0,0.151,0.076,0.227,0.076C4.698-71.839,4.774-71.763,4.774-71.687z"/>
	<path d="M3.412-75.322h1.136c0.152,0,0.302,0.077,0.302,0.304c0,0.228-0.152,0.303-0.454,0.303c-0.076,0-0.076,0-0.151,0
		c-0.074,0-0.152,0-0.152,0H3.412l-0.075,1.362c0,0.303,0,0.454,0,0.605c-0.078,0.152-0.078,0.229-0.229,0.229
		c-0.075,0-0.227,0-0.377-0.152l-0.304-0.228l-0.605-0.454v-0.756c0.38,0.304,0.684,0.532,0.909,0.682l0.075-1.287H1.821v-0.606
		h0.984c0,0,0-0.078,0-0.151c0-0.38,0.078-0.531,0.304-0.531c0.151,0,0.229,0.077,0.303,0.229
		C3.412-75.699,3.412-75.548,3.412-75.322z M1.822-73.354l-1.587-1.061c-0.229-0.151-0.304-0.302-0.304-0.531
		c0-0.227,0.152-0.379,0.304-0.379h1.587v0.606h-1.06c0.377,0.228,0.757,0.453,1.06,0.604V-73.354z"/>
	<path d="M4.849-78.045c0,0.605-0.302,1.06-0.833,1.363c-0.454,0.151-0.984,0.302-1.589,0.302v-0.606
		c0.606,0,1.062-0.077,1.362-0.303c0.304-0.151,0.454-0.453,0.454-0.755c0-0.454-0.227-0.756-0.681-0.984
		c-0.303-0.077-0.681-0.152-1.136-0.152v-0.604c0.758,0,1.362,0.152,1.741,0.379C4.622-79.106,4.849-78.651,4.849-78.045z
		 M2.427-76.381H2.276c-0.605,0-1.06-0.15-1.514-0.453c-0.529-0.304-0.833-0.756-0.833-1.363c0-0.529,0.227-0.908,0.755-1.211
		c0.381-0.302,0.835-0.379,1.438-0.379c0.078,0,0.229,0,0.303,0v0.604c-0.075,0-0.151,0-0.227,0c-0.532,0-0.985,0.077-1.213,0.229
		c-0.304,0.151-0.453,0.454-0.453,0.756c0,0.379,0.227,0.683,0.603,0.907c0.304,0.229,0.681,0.304,1.136,0.304c0,0,0.078,0,0.152,0
		v0.607H2.427z"/>
	<path d="M40.351-71.082v0.604v0.606c0,0.151,0,0.228,0,0.303c0,0.074-0.075,0.15-0.227,0.15c-0.227,0-0.303-0.15-0.303-0.453
		v-0.152v-0.15c-0.075,0-0.227,0-0.454,0c-0.152,0.077-0.304,0.077-0.452,0.077c-0.229,0-0.605-0.077-1.136-0.077
		c-0.533-0.077-0.909-0.077-1.214-0.077c0.229,0.227,0.304,0.454,0.304,0.531c0,0.076,0,0.152-0.076,0.227
		c-0.078,0-0.151,0.078-0.229,0.078c-0.076,0-0.227-0.078-0.303-0.304c-0.075-0.076-0.227-0.228-0.378-0.454
		c-0.227-0.152-0.304-0.378-0.304-0.529c0-0.152,0.078-0.152,0.229-0.152c0.075,0,0.152,0,0.227,0s0.152,0,0.227,0
		c0.078,0,0.152,0,0.302,0c0.152,0,0.229,0,0.304,0c0.227,0,0.605,0,1.062,0.076c0.452,0,0.754,0.077,0.984,0.077
		c0.149,0,0.3,0,0.452-0.077c0.152,0,0.303,0,0.454,0v-0.305c0-0.076,0-0.151,0.078-0.228c0-0.077,0.075-0.077,0.227-0.077
		c0.075,0,0.152,0,0.152,0.077C40.351-71.234,40.351-71.157,40.351-71.082z"/>
	<path d="M39.065-74.716h1.136c0.152,0,0.229,0.077,0.229,0.228c0,0.227-0.152,0.378-0.381,0.378c-0.075,0-0.149,0-0.227,0
		l-0.075-0.077L38.99-74.11v1.288c0,0.304,0,0.529,0,0.604c-0.075,0.229-0.152,0.304-0.226,0.304c-0.151,0-0.229-0.077-0.381-0.152
		l-0.302-0.303l-0.681-0.453v-0.682c0.455,0.227,0.757,0.454,0.984,0.681l0.078-1.288h-1.062v-0.604h1.062c0-0.077,0-0.077,0-0.152
		c0-0.38,0.075-0.604,0.304-0.604c0.152,0,0.226,0.15,0.226,0.302C39.065-75.094,39.065-74.943,39.065-74.716z M37.399-72.822
		l-1.514-1.061c-0.227-0.152-0.304-0.304-0.304-0.531s0.078-0.302,0.304-0.302h1.514v0.604h-0.984
		c0.381,0.229,0.757,0.38,0.984,0.606V-72.822z"/>
	<path d="M40.503-77.516c0,0.604-0.304,1.061-0.833,1.362c-0.455,0.228-0.984,0.304-1.59,0.38v-0.605
		c0.532-0.076,0.984-0.151,1.287-0.302c0.381-0.152,0.532-0.454,0.532-0.833c0-0.454-0.229-0.756-0.757-0.908
		c-0.304-0.152-0.681-0.227-1.063-0.227v-0.605c0.758,0.076,1.287,0.151,1.741,0.453C40.278-78.501,40.503-78.123,40.503-77.516z
		 M38.081-75.774h-0.149c-0.605,0-1.136-0.152-1.59-0.454c-0.454-0.378-0.758-0.833-0.758-1.363c0-0.53,0.229-0.984,0.681-1.287
		c0.38-0.228,0.908-0.38,1.438-0.38c0.152,0,0.229,0,0.38,0v0.606c-0.076,0-0.15,0-0.228,0c-0.529,0-0.984,0.076-1.288,0.302
		c-0.227,0.151-0.377,0.378-0.377,0.756c0,0.378,0.227,0.681,0.605,0.908c0.301,0.152,0.681,0.302,1.06,0.302
		c0.078,0,0.152,0,0.228,0v0.609H38.081z"/>
	<path d="M75.325-71.612v0.681v0.604c0,0.151,0,0.228,0,0.303c-0.078,0.077-0.152,0.152-0.303,0.152
		c-0.152,0-0.304-0.152-0.304-0.53v-0.151v-0.078c-0.078,0-0.229,0-0.377,0c-0.229,0-0.381,0-0.455,0c-0.229,0-0.681,0-1.213-0.076
		c-0.529,0-0.907,0-1.136,0c0.152,0.227,0.304,0.454,0.304,0.529c0,0.076-0.076,0.151-0.076,0.151
		c-0.078,0.077-0.151,0.152-0.229,0.152c-0.149,0-0.227-0.152-0.378-0.303c-0.075-0.077-0.227-0.229-0.378-0.456
		c-0.152-0.226-0.304-0.377-0.304-0.529c0-0.151,0.152-0.228,0.304-0.228c0,0,0.075,0,0.151,0.077c0.152,0,0.227,0,0.227,0
		c0.078,0,0.152,0,0.304,0s0.227-0.077,0.302-0.077c0.227,0,0.604,0.077,1.06,0.077c0.454,0.076,0.832,0.076,1.061,0.076
		c0.152,0,0.227,0,0.455,0c0.149,0,0.301,0,0.378,0v-0.378c0-0.076,0.075-0.151,0.075-0.151c0.078-0.076,0.152-0.076,0.229-0.076
		c0.075,0,0.151,0,0.227,0.076C75.325-71.763,75.325-71.687,75.325-71.612z"/>
	<path d="M73.962-75.245h1.135c0.229,0,0.303,0.152,0.303,0.302c0,0.228-0.151,0.304-0.454,0.304c0,0-0.075,0-0.151,0
		c-0.075,0-0.075,0-0.152,0h-0.681l-0.075,1.362c0,0.304,0,0.455,0,0.606c0,0.151-0.078,0.302-0.229,0.302
		c-0.075,0-0.227-0.077-0.301-0.227l-0.38-0.229l-0.604-0.455v-0.681c0.377,0.229,0.681,0.453,0.984,0.604v-1.287h-0.984v-0.602
		h0.984v-0.077c0-0.377,0.149-0.604,0.301-0.604c0.151,0,0.229,0.077,0.303,0.229C73.962-75.624,73.962-75.472,73.962-75.245z
		 M72.373-73.277l-1.59-1.06c-0.152-0.151-0.303-0.302-0.303-0.529c0-0.229,0.151-0.38,0.303-0.38h1.59v0.605H71.39
		c0.377,0.227,0.681,0.454,0.984,0.681L72.373-73.277L72.373-73.277z"/>
	<path d="M75.476-77.971c0,0.604-0.301,1.061-0.907,1.363c-0.378,0.227-0.909,0.302-1.59,0.302v-0.604
		c0.605,0,1.062-0.076,1.364-0.228c0.301-0.229,0.529-0.454,0.529-0.833c0-0.454-0.304-0.756-0.758-0.984
		c-0.303-0.077-0.681-0.152-1.136-0.152v-0.604c0.757,0,1.364,0.152,1.741,0.453C75.175-79.03,75.476-78.576,75.476-77.971z
		 M72.978-76.306h-0.075c-0.606,0-1.136-0.15-1.59-0.378c-0.529-0.379-0.757-0.833-0.757-1.363c0-0.604,0.229-0.985,0.683-1.288
		c0.379-0.302,0.833-0.377,1.437-0.377c0.078,0,0.229,0,0.303,0v0.604c-0.075,0-0.152,0-0.152,0c-0.604,0-0.984,0.076-1.288,0.228
		c-0.301,0.229-0.378,0.454-0.378,0.833c0,0.378,0.152,0.681,0.529,0.907c0.304,0.152,0.684,0.228,1.136,0.228
		c0.078,0,0.078,0,0.152,0V-76.306z"/>
	<path d="M58.368-71.687v0.604v0.604c0,0.152,0,0.303-0.075,0.303c0,0.152-0.078,0.152-0.229,0.152s-0.304-0.152-0.304-0.454v-0.151
		v-0.152c-0.075,0-0.226,0.077-0.377,0.077c-0.227,0-0.377,0-0.454,0c-0.301,0-0.681,0-1.211-0.077
		c-0.529,0-0.909-0.076-1.211-0.076c0.227,0.303,0.379,0.453,0.379,0.529c0,0.076-0.078,0.151-0.152,0.228
		c0,0.077-0.075,0.077-0.152,0.077c-0.152,0-0.226-0.077-0.377-0.227c-0.078-0.152-0.229-0.302-0.381-0.454
		c-0.149-0.228-0.3-0.379-0.3-0.53c0-0.152,0.075-0.229,0.3-0.229c0,0,0.078,0,0.152,0c0.152,0,0.152,0.077,0.229,0.077
		c0.075,0,0.152-0.077,0.302-0.077c0.152,0,0.227,0,0.301,0c0.229,0,0.605,0.077,1.062,0.077c0.454,0.076,0.833,0.076,1.06,0.076
		c0.078,0,0.229,0,0.454,0c0.152,0,0.304,0,0.377-0.076v-0.302c0-0.077,0-0.152,0.078-0.229c0.076,0,0.151-0.076,0.226-0.076
		c0.078,0,0.152,0.076,0.229,0.076C58.368-71.839,58.368-71.763,58.368-71.687z"/>
	<path d="M58.52-74.11c0,0.605-0.152,1.061-0.606,1.288c-0.075,0.075-0.152,0.075-0.152,0.075c-0.075,0-0.149,0-0.226-0.076
		c-0.077-0.077-0.077-0.152-0.077-0.229c0-0.076,0-0.151,0.077-0.228c0.152-0.077,0.226-0.228,0.303-0.228
		c0.076-0.151,0.151-0.302,0.151-0.604s-0.151-0.604-0.454-0.833c-0.227-0.227-0.529-0.379-0.907-0.379
		c-0.304,0-0.532,0.077-0.758,0.152c-0.227,0.152-0.303,0.379-0.303,0.606s0,0.377,0.078,0.529c0,0.151,0.075,0.227,0.227,0.378
		l0.375,0.305c0.078,0.077,0.152,0.229,0.152,0.304c0,0.077-0.077,0.152-0.152,0.228c0,0-0.075,0.077-0.152,0.077
		c-0.075,0-0.227-0.077-0.603-0.077c-0.606-0.076-1.063-0.076-1.214-0.076c-0.075,0-0.152,0-0.304,0
		c-0.075,0.076-0.075,0.076-0.152,0.076c-0.149,0-0.227-0.076-0.227-0.303c0-0.077,0.078-0.152,0.078-0.229c0-0.076,0-0.15,0-0.15
		c0-0.152,0-0.303,0-0.53c0-0.229-0.078-0.454-0.078-0.529c0-0.077,0-0.152,0.078-0.304c0-0.076,0-0.152,0-0.228
		c0,0,0-0.077-0.078-0.152c0-0.077,0-0.152,0-0.152c0-0.075,0-0.151,0.078-0.227c0.075-0.076,0.149-0.076,0.227-0.076
		c0.227,0,0.304,0.228,0.304,0.681c0,0.076,0,0.151,0,0.228c0,0.152,0,0.152,0,0.228v0.529l0.075,0.453
		c0.078,0,0.381,0.078,0.984,0.151c-0.227-0.302-0.303-0.682-0.303-1.136c0-0.454,0.152-0.756,0.532-1.06
		c0.301-0.152,0.681-0.304,1.136-0.304c0.529,0,0.984,0.229,1.362,0.531C58.368-75.094,58.52-74.639,58.52-74.11z"/>
	<path d="M58.445-78.045c0,0.605-0.229,1.06-0.833,1.363c-0.38,0.151-0.908,0.302-1.59,0.302v-0.606c0.606,0,1.06-0.077,1.362-0.303
		c0.303-0.151,0.529-0.453,0.529-0.755c0-0.454-0.301-0.756-0.755-0.984c-0.302-0.077-0.681-0.152-1.135-0.152v-0.604
		c0.755,0,1.362,0.152,1.738,0.379C58.217-79.106,58.445-78.651,58.445-78.045z M56.022-76.381H55.87
		c-0.53,0-1.062-0.15-1.514-0.453c-0.533-0.304-0.757-0.756-0.757-1.363c0-0.529,0.227-0.908,0.681-1.211
		c0.381-0.302,0.833-0.379,1.438-0.379c0.075,0,0.227,0,0.303,0v0.604c-0.078,0-0.152,0-0.229,0c-0.529,0-0.907,0.077-1.211,0.229
		c-0.305,0.151-0.454,0.454-0.454,0.756c0,0.379,0.229,0.683,0.606,0.907c0.303,0.229,0.681,0.304,1.136,0.304
		c0.075,0,0.075,0,0.152,0L56.022-76.381L56.022-76.381z"/>
	<path d="M147.768-71.687v0.604v0.604c0,0.152,0,0.228-0.075,0.303c0,0.077-0.078,0.152-0.229,0.152s-0.3-0.152-0.3-0.454v-0.151
		v-0.152c-0.078,0-0.229,0-0.381,0c-0.227,0.077-0.378,0.077-0.454,0.077c-0.301,0-0.681-0.077-1.212-0.077
		c-0.529-0.076-0.905-0.076-1.21-0.076c0.226,0.303,0.377,0.453,0.377,0.529c0,0.076-0.077,0.151-0.152,0.228
		c0,0-0.075,0.077-0.152,0.077c-0.151,0-0.227-0.077-0.377-0.304c-0.078-0.076-0.229-0.226-0.378-0.453
		c-0.152-0.152-0.304-0.379-0.304-0.531c0-0.151,0.075-0.151,0.227-0.151c0.078,0,0.152,0,0.227,0c0.152,0,0.152,0,0.229,0
		c0.075,0,0.151,0,0.303,0s0.226,0,0.304,0c0.226,0,0.603,0,1.059,0.078c0.455,0,0.833,0.075,1.062,0.075
		c0.075,0,0.227,0,0.452-0.075c0.152,0,0.303,0,0.381,0v-0.304c0-0.076,0-0.151,0.076-0.228c0.078-0.077,0.151-0.077,0.227-0.077
		c0.078,0,0.152,0,0.229,0.077C147.693-71.839,147.768-71.763,147.768-71.687z"/>
	<path d="M146.406-75.322h1.136c0.227,0,0.303,0.077,0.303,0.229c0,0.228-0.152,0.38-0.454,0.38c-0.075,0-0.075,0-0.151,0
		c-0.076,0-0.152,0-0.152,0h-0.681l-0.075,1.363c0,0.227,0,0.453,0,0.529c0,0.228-0.078,0.303-0.229,0.303
		c-0.075,0-0.227-0.076-0.377-0.151l-0.304-0.304l-0.605-0.454v-0.682c0.38,0.228,0.681,0.455,0.983,0.682v-1.287h-0.983v-0.604
		h0.983c0-0.078,0-0.078,0-0.152c0-0.38,0.078-0.53,0.303-0.53c0.152,0,0.229,0.076,0.304,0.228
		C146.406-75.699,146.406-75.548,146.406-75.322z M144.816-73.427l-1.588-1.06c-0.152-0.151-0.304-0.303-0.304-0.53
		s0.152-0.304,0.304-0.304h1.588v0.606h-0.984c0.302,0.228,0.681,0.379,0.984,0.604V-73.427z"/>
	<path d="M147.845-78.123c0,0.605-0.229,1.061-0.833,1.363c-0.381,0.229-0.909,0.304-1.59,0.379v-0.604
		c0.606-0.077,1.06-0.152,1.362-0.303c0.303-0.151,0.529-0.453,0.529-0.833c0-0.453-0.301-0.755-0.755-0.907
		c-0.303-0.152-0.681-0.228-1.136-0.228v-0.605c0.758,0.077,1.362,0.152,1.742,0.454C147.616-79.106,147.845-78.726,147.845-78.123z
		 M145.422-76.381h-0.151c-0.529,0-1.059-0.15-1.514-0.453c-0.529-0.304-0.757-0.756-0.757-1.363c0-0.529,0.229-0.984,0.681-1.286
		c0.38-0.228,0.833-0.38,1.438-0.38c0.078,0,0.227,0,0.303,0v0.604c-0.078,0-0.151,0-0.227,0c-0.532,0-0.91,0.077-1.214,0.304
		c-0.302,0.151-0.454,0.378-0.454,0.756c0,0.378,0.229,0.683,0.605,0.907c0.304,0.152,0.682,0.304,1.136,0.304c0,0,0.077,0,0.152,0
		L145.422-76.381L145.422-76.381z"/>
	<path d="M155.338-71.687v0.604v0.604c0,0.152,0,0.228,0,0.303c-0.075,0.077-0.151,0.152-0.301,0.152
		c-0.152,0-0.304-0.152-0.304-0.454v-0.151l0.075-0.152c-0.151,0-0.303,0-0.454,0c-0.227,0.077-0.379,0.077-0.453,0.077
		c-0.229,0-0.683-0.077-1.136-0.077c-0.532-0.076-0.908-0.076-1.136-0.076c0.152,0.303,0.304,0.453,0.304,0.529
		c0,0.076-0.078,0.151-0.078,0.228c-0.075,0-0.152,0.077-0.227,0.077c-0.15,0-0.229-0.077-0.38-0.304
		c-0.075-0.076-0.227-0.226-0.378-0.453c-0.151-0.152-0.227-0.379-0.227-0.531c0-0.151,0.075-0.151,0.227-0.151c0,0,0.078,0,0.152,0
		c0.152,0,0.227,0,0.227,0c0.078,0,0.152,0,0.304,0c0.151,0,0.229,0,0.303,0c0.229,0,0.606,0,1.063,0.078
		c0.378,0,0.755,0.075,0.984,0.075c0.152,0,0.227,0,0.453-0.075c0.152,0,0.304,0,0.38,0v-0.304c0-0.076,0.075-0.151,0.075-0.228
		c0.078-0.077,0.152-0.077,0.229-0.077c0.075,0,0.152,0,0.227,0.077C155.338-71.839,155.338-71.763,155.338-71.687z"/>
	<path d="M153.976-75.322h1.136c0.227,0,0.302,0.077,0.302,0.229c0,0.228-0.152,0.38-0.454,0.38c0,0-0.075,0-0.152,0
		c-0.075,0-0.075,0-0.151,0h-0.681v1.363c0,0.227-0.075,0.453-0.075,0.529c0,0.228-0.078,0.303-0.229,0.303
		c-0.075,0-0.227-0.076-0.304-0.151l-0.301-0.304l-0.606-0.454v-0.682c0.379,0.228,0.682,0.455,0.907,0.682v-1.287h-0.907v-0.604
		h0.907c0-0.078,0-0.078,0-0.152c0-0.38,0.152-0.53,0.304-0.53s0.229,0.076,0.303,0.228
		C153.976-75.699,153.976-75.548,153.976-75.322z M152.461-73.427l-1.589-1.06c-0.152-0.151-0.304-0.303-0.304-0.53
		s0.152-0.304,0.304-0.304h1.589v0.606h-0.983c0.377,0.228,0.681,0.379,0.983,0.604V-73.427z"/>
	<path d="M155.565-77.971c0,0.604-0.229,1.061-0.681,1.287c-0.078,0.076-0.152,0.076-0.152,0.076c-0.078,0-0.152,0-0.229-0.076
		c-0.075-0.077-0.075-0.152-0.075-0.229c0-0.076,0-0.152,0.152-0.228c0.075-0.152,0.151-0.229,0.227-0.304
		c0.078-0.076,0.152-0.302,0.152-0.529c0-0.378-0.152-0.604-0.455-0.833c-0.227-0.229-0.529-0.379-0.907-0.379
		c-0.302,0-0.454,0.077-0.681,0.152c-0.229,0.152-0.303,0.303-0.303,0.604c0,0.228,0,0.38,0.075,0.532
		c0,0.077,0.151,0.228,0.229,0.302l0.301,0.379c0.078,0.076,0.152,0.151,0.152,0.227c0,0.151-0.075,0.151-0.075,0.228
		c-0.078,0.077-0.152,0.077-0.152,0.077c-0.077,0-0.227,0-0.53,0c-0.681-0.077-1.135-0.152-1.287-0.152
		c-0.078,0-0.151,0.076-0.227,0.076c-0.151,0.077-0.151,0.077-0.229,0.077c-0.152,0-0.152-0.152-0.152-0.379c0,0,0-0.076,0-0.151
		c0-0.077,0-0.152,0-0.152c0-0.15,0-0.302,0-0.604c0-0.229,0-0.379,0-0.529c0,0,0-0.077,0-0.228c0-0.077,0-0.229,0-0.229
		c0-0.077,0-0.152-0.075-0.228c0-0.077,0-0.077,0-0.152c0-0.077,0.076-0.148,0.076-0.225c0.078,0,0.152-0.077,0.229-0.077
		c0.227,0,0.379,0.229,0.379,0.756c0,0.077,0,0.152,0,0.229c-0.078,0.076-0.078,0.151-0.078,0.151l0.078,0.529v0.531
		c0.075,0,0.378,0.075,0.984,0.15c-0.227-0.302-0.303-0.681-0.303-1.135c0-0.454,0.151-0.833,0.529-1.06
		c0.304-0.228,0.606-0.303,1.061-0.303c0.531,0,0.984,0.151,1.363,0.529C155.338-78.954,155.565-78.501,155.565-77.971z"/>
	<path d="M164.725-72.369v0.605v0.604c0,0.152,0,0.229,0,0.304c-0.077,0.076-0.151,0.152-0.229,0.152
		c-0.227,0-0.304-0.152-0.304-0.531v-0.152v-0.076c-0.151,0-0.301,0-0.451,0c-0.229,0-0.381,0-0.454,0c-0.229,0-0.681,0-1.214,0
		c-0.452-0.075-0.907-0.075-1.132-0.075c0.226,0.227,0.3,0.454,0.3,0.529c0,0.076,0,0.151-0.075,0.151
		c-0.078,0.077-0.152,0.152-0.226,0.152c-0.078,0-0.229-0.076-0.381-0.303c-0.076-0.077-0.152-0.229-0.378-0.454
		c-0.151-0.151-0.228-0.379-0.228-0.529c0-0.152,0.077-0.229,0.228-0.229c0,0,0.076,0,0.227,0.077c0.078,0,0.152,0,0.152,0
		c0.078,0,0.229,0,0.304,0c0.151,0,0.303,0,0.378,0c0.229,0,0.532,0,0.984,0.077c0.456,0,0.834,0.076,1.063,0.076
		c0.152,0,0.303-0.076,0.454-0.076c0.15,0,0.299,0,0.378,0v-0.304c0-0.15,0.075-0.15,0.075-0.227
		c0.078-0.076,0.152-0.076,0.229-0.076c0.075,0,0.152,0,0.226,0.076C164.725-72.52,164.725-72.52,164.725-72.369z"/>
	<path d="M164.953-74.791c0,0.604-0.228,0.984-0.682,1.287c-0.077,0-0.077,0.077-0.151,0.077c-0.078,0-0.152-0.077-0.227-0.15
		c-0.078-0.077-0.078-0.077-0.078-0.229c0-0.076,0.078-0.152,0.152-0.227c0.075-0.076,0.227-0.152,0.227-0.228
		c0.077-0.152,0.151-0.301,0.151-0.529c0-0.379-0.151-0.681-0.452-0.907c-0.229-0.229-0.532-0.304-0.908-0.304
		c-0.304,0-0.529,0-0.681,0.152c-0.303,0.077-0.379,0.304-0.379,0.53c0,0.226,0,0.454,0.076,0.604
		c0.078,0.077,0.151,0.229,0.227,0.303l0.381,0.302c0.075,0.151,0.152,0.228,0.152,0.303c0,0.077,0,0.152-0.078,0.229
		c-0.075,0.076-0.152,0.076-0.227,0.076c-0.078,0-0.229,0-0.531-0.076c-0.683-0.077-1.062-0.077-1.287-0.077
		c-0.078,0-0.152,0-0.229,0.077c-0.075,0-0.151,0-0.227,0c-0.078,0-0.151-0.077-0.151-0.304c0,0,0-0.077,0-0.152
		c0-0.076,0-0.152,0-0.228c0-0.077,0-0.301,0-0.529c0-0.229,0-0.379,0-0.531c0-0.076,0-0.15,0-0.227c0-0.152,0-0.229,0-0.304
		c0,0,0-0.077,0-0.152c-0.076-0.076-0.076-0.151-0.076-0.151c0-0.077,0.076-0.152,0.076-0.229c0.078-0.076,0.151-0.076,0.227-0.076
		c0.229,0,0.381,0.228,0.381,0.757c0,0,0,0.076,0,0.228c0,0.075,0,0.15,0,0.15v0.531v0.529c0.075,0,0.452,0,0.984,0.077
		c-0.229-0.229-0.303-0.605-0.303-1.137c0-0.453,0.152-0.756,0.529-0.984c0.303-0.228,0.681-0.302,1.136-0.302
		c0.529,0,1.06,0.151,1.362,0.453C164.725-75.774,164.953-75.322,164.953-74.791z"/>
	<path d="M164.878-78.803c0,0.604-0.303,1.061-0.908,1.363c-0.378,0.227-0.907,0.302-1.59,0.302v-0.605
		c0.605,0,1.062-0.077,1.364-0.229c0.378-0.228,0.53-0.454,0.53-0.833c0-0.454-0.229-0.756-0.758-0.907
		c-0.304-0.152-0.681-0.229-1.136-0.229v-0.604c0.757,0,1.364,0.152,1.816,0.453C164.648-79.788,164.878-79.408,164.878-78.803z
		 M162.378-77.138h-0.075c-0.605,0-1.136-0.077-1.59-0.379c-0.529-0.379-0.755-0.833-0.755-1.363c0-0.532,0.227-0.984,0.681-1.288
		c0.378-0.228,0.907-0.377,1.436-0.377c0.151,0,0.229,0,0.303,0v0.604c-0.075,0-0.075,0-0.152,0c-0.603,0-0.984,0.077-1.284,0.229
		c-0.229,0.228-0.381,0.453-0.381,0.833c0,0.377,0.151,0.681,0.529,0.907c0.381,0.152,0.758,0.229,1.136,0.229
		c0.078,0,0.152,0,0.152,0V-77.138z"/>
	<path d="M173.431-71.687v0.604v0.604c0,0.152,0,0.228,0,0.303c-0.077,0.077-0.151,0.152-0.229,0.152
		c-0.227,0-0.38-0.152-0.38-0.454l0.077-0.151v-0.152c-0.149,0-0.302,0-0.453,0c-0.229,0.077-0.381,0.077-0.454,0.077
		c-0.227,0-0.681-0.077-1.211-0.077c-0.532-0.076-0.908-0.076-1.136-0.076c0.152,0.303,0.302,0.453,0.302,0.529
		c0,0.076-0.076,0.151-0.076,0.228c-0.075,0-0.152,0.077-0.227,0.077c-0.078,0-0.229-0.077-0.381-0.304
		c-0.075-0.076-0.152-0.226-0.379-0.453c-0.15-0.152-0.228-0.379-0.228-0.531c0-0.151,0.077-0.151,0.228-0.151c0,0,0.075,0,0.227,0
		c0.078,0,0.152,0,0.152,0c0.077,0,0.229,0,0.303,0c0.151,0,0.304,0,0.304,0c0.304,0,0.606,0,1.062,0.078
		c0.452,0,0.834,0.075,1.061,0.075c0.151,0,0.303,0,0.454-0.075c0.151,0,0.304,0,0.378,0v-0.304c0-0.076,0.076-0.151,0.076-0.228
		c0.076-0.077,0.149-0.077,0.227-0.077s0.152,0,0.228,0.077C173.431-71.839,173.431-71.763,173.431-71.687z"/>
	<path d="M173.656-74.186c0,0.53-0.226,0.907-0.604,1.136c-0.228,0.152-0.529,0.303-0.905,0.303v-0.605
		c0.227,0,0.379-0.077,0.529-0.15c0.304-0.152,0.454-0.379,0.454-0.758c0-0.301-0.15-0.529-0.304-0.681
		c-0.226-0.152-0.453-0.227-0.68-0.227v-0.604c0.379,0,0.758,0.151,1.06,0.378C173.506-75.094,173.656-74.716,173.656-74.186z
		 M172.143-72.747c-0.151,0-0.229,0-0.378,0c-0.984,0-1.893-0.38-2.651-1.212l-0.301-0.304c-0.078-0.151-0.152-0.227-0.152-0.301
		c0-0.077,0-0.152,0.076-0.229c0.078-0.076,0.151-0.076,0.227-0.076c0.077,0,0.229,0.076,0.381,0.303l0.604,0.604
		c0.229,0.229,0.454,0.304,0.757,0.453c-0.076-0.151-0.076-0.302-0.151-0.453c0-0.151-0.075-0.228-0.075-0.378
		c0-0.454,0.15-0.833,0.379-1.061c0.302-0.302,0.681-0.379,1.135-0.379c0,0,0.075,0,0.151,0v0.604c-0.077,0-0.151,0-0.151,0
		c-0.302,0-0.53,0.077-0.681,0.227c-0.078,0.152-0.152,0.38-0.152,0.756c0,0.152,0,0.304,0.075,0.455
		c0,0.077,0.078,0.152,0.229,0.378c0.077,0,0.229,0,0.304,0c0.15,0,0.228,0,0.379,0L172.143-72.747L172.143-72.747z"/>
	<path d="M173.584-78.123c0,0.605-0.304,1.061-0.909,1.363c-0.379,0.229-0.906,0.304-1.589,0.379v-0.604
		c0.605-0.077,1.062-0.152,1.364-0.303c0.377-0.151,0.53-0.453,0.53-0.833c0-0.453-0.228-0.755-0.758-0.907
		c-0.3-0.152-0.681-0.228-1.134-0.228v-0.605c0.755,0.077,1.363,0.152,1.818,0.454C173.354-79.106,173.584-78.726,173.584-78.123z
		 M171.084-76.381h-0.076c-0.605,0-1.135-0.15-1.589-0.453c-0.53-0.304-0.755-0.756-0.755-1.363c0-0.529,0.227-0.984,0.681-1.286
		c0.378-0.228,0.907-0.38,1.438-0.38c0.151,0,0.227,0,0.301,0v0.604c-0.076,0-0.076,0-0.149,0c-0.605,0-0.984,0.077-1.286,0.304
		c-0.304,0.151-0.382,0.378-0.382,0.756c0,0.378,0.152,0.683,0.533,0.907c0.378,0.152,0.754,0.304,1.135,0.304
		c0.075,0,0.149,0,0.149,0V-76.381L171.084-76.381z"/>
	<path d="M181.757-71.687v0.604v0.604c0,0.152,0,0.228,0,0.303c0,0.077-0.075,0.152-0.227,0.152c-0.228,0-0.303-0.152-0.303-0.454
		v-0.151v-0.152c-0.075,0-0.227,0-0.451,0c-0.152,0.077-0.304,0.077-0.454,0.077c-0.23,0-0.605-0.077-1.138-0.077
		c-0.529-0.076-0.906-0.076-1.213-0.076c0.229,0.303,0.304,0.453,0.304,0.529c0,0.076,0,0.151-0.076,0.228
		c-0.078,0-0.15,0.077-0.229,0.077c-0.074,0-0.228-0.077-0.3-0.304c-0.078-0.076-0.229-0.226-0.38-0.453
		c-0.228-0.152-0.305-0.379-0.305-0.531c0-0.151,0.077-0.151,0.23-0.151c0.076,0,0.151,0,0.227,0c0.078,0,0.152,0,0.229,0
		c0.075,0,0.152,0,0.3,0c0.152,0,0.229,0,0.304,0c0.229,0,0.605,0,1.063,0.078c0.454,0,0.754,0.075,0.984,0.075
		c0.15,0,0.302,0,0.454-0.075c0.147,0,0.3,0,0.451,0v-0.304c0-0.076,0-0.151,0.078-0.228c0.076-0.077,0.076-0.077,0.227-0.077
		c0.078,0,0.152,0,0.152,0.077C181.757-71.839,181.757-71.763,181.757-71.687z"/>
	<path d="M181.985-74.186c0,0.53-0.153,0.907-0.532,1.136c-0.301,0.152-0.604,0.303-0.982,0.303v-0.605
		c0.227,0,0.378-0.077,0.53-0.15c0.302-0.152,0.452-0.379,0.452-0.758c0-0.301-0.076-0.529-0.301-0.681
		c-0.151-0.152-0.381-0.227-0.682-0.227v-0.604c0.451,0,0.755,0.151,1.06,0.378C181.832-75.094,181.985-74.716,181.985-74.186z
		 M180.471-72.747c-0.078,0-0.229,0-0.303,0c-1.062,0-1.893-0.38-2.649-1.212l-0.303-0.304c-0.15-0.151-0.23-0.227-0.23-0.301
		c0-0.077,0-0.152,0.078-0.229c0.073-0.076,0.15-0.076,0.227-0.076c0.078,0,0.229,0.076,0.453,0.303l0.605,0.604
		c0.151,0.229,0.379,0.304,0.755,0.453c-0.076-0.151-0.151-0.302-0.227-0.453c0-0.151,0-0.228,0-0.378
		c0-0.454,0.075-0.833,0.378-1.061c0.229-0.302,0.605-0.379,1.063-0.379c0.075,0,0.075,0,0.15,0v0.604c-0.077,0-0.077,0-0.15,0
		c-0.304,0-0.455,0.077-0.605,0.227c-0.152,0.152-0.228,0.38-0.228,0.756c0,0.152,0,0.304,0.075,0.455
		c0.078,0.077,0.152,0.152,0.228,0.378c0.151,0,0.229,0,0.381,0c0.075,0,0.228,0,0.303,0V-72.747L180.471-72.747z"/>
	<path d="M181.909-78.123c0,0.605-0.3,1.061-0.833,1.363c-0.452,0.229-0.984,0.304-1.587,0.379v-0.604
		c0.529-0.077,0.983-0.152,1.287-0.303c0.379-0.151,0.529-0.453,0.529-0.833c0-0.453-0.229-0.755-0.757-0.907
		c-0.303-0.152-0.682-0.228-1.06-0.228v-0.605c0.754,0.077,1.362,0.152,1.738,0.454C181.681-79.106,181.909-78.726,181.909-78.123z
		 M179.488-76.381h-0.151c-0.606,0-1.137-0.15-1.591-0.453c-0.453-0.304-0.758-0.756-0.758-1.363c0-0.529,0.231-0.984,0.686-1.286
		c0.451-0.228,0.905-0.38,1.512-0.38c0.077,0,0.153,0,0.305,0v0.604c-0.077,0-0.151,0-0.229,0c-0.53,0-0.984,0.077-1.287,0.304
		c-0.228,0.151-0.378,0.378-0.378,0.756c0,0.378,0.229,0.683,0.604,0.907c0.304,0.152,0.683,0.304,1.061,0.304
		c0.078,0,0.151,0,0.229,0L179.488-76.381L179.488-76.381z"/>
</g>
</svg>
