<?xml version="1.0" encoding="utf-8"?>
<!-- Generator: Adobe Illustrator 15.1.0, SVG Export Plug-In . SVG Version: 6.00 Build 0)  -->
<!DOCTYPE svg PUBLIC "-//W3C//DTD SVG 1.1//EN" "http://www.w3.org/Graphics/SVG/1.1/DTD/svg11.dtd">
<svg version="1.1" id="Layer_1" xmlns="http://www.w3.org/2000/svg" xmlns:xlink="http://www.w3.org/1999/xlink" x="0px" y="0px"
	 width="325.984px" height="225.033px" viewBox="0 0 325.984 225.033" enable-background="new 0 0 325.984 225.033"
	 xml:space="preserve">
<metadata><?xpacket begin="﻿" id="W5M0MpCehiHzreSzNTczkc9d"?>
<x:xmpmeta xmlns:x="adobe:ns:meta/" x:xmptk="Adobe XMP Core 5.0-c060 61.134777, 2010/02/12-17:32:00        ">
   <rdf:RDF xmlns:rdf="http://www.w3.org/1999/02/22-rdf-syntax-ns#">
      <rdf:Description rdf:about=""
            xmlns:dc="http://purl.org/dc/elements/1.1/">
         <dc:format>image/svg+xml</dc:format>
         <dc:title>
            <rdf:Alt>
               <rdf:li xml:lang="x-default">8A-1</rdf:li>
            </rdf:Alt>
         </dc:title>
      </rdf:Description>
      <rdf:Description rdf:about=""
            xmlns:xmp="http://ns.adobe.com/xap/1.0/"
            xmlns:xmpGImg="http://ns.adobe.com/xap/1.0/g/img/">
         <xmp:CreatorTool>Adobe Illustrator CS5.1</xmp:CreatorTool>
         <xmp:CreateDate>2015-02-12T17:05:25+02:00</xmp:CreateDate>
         <xmp:ModifyDate>2015-02-12T17:05:25+02:00</xmp:ModifyDate>
         <xmp:MetadataDate>2015-02-12T17:05:25+02:00</xmp:MetadataDate>
         <xmp:Thumbnails>
            <rdf:Alt>
               <rdf:li rdf:parseType="Resource">
                  <xmpGImg:width>256</xmpGImg:width>
                  <xmpGImg:height>180</xmpGImg:height>
                  <xmpGImg:format>JPEG</xmpGImg:format>
                  <xmpGImg:image>/9j/4AAQSkZJRgABAgEAyADIAAD/7QAsUGhvdG9zaG9wIDMuMAA4QklNA+0AAAAAABAAyAAAAAEA&#xA;AQDIAAAAAQAB/+4ADkFkb2JlAGTAAAAAAf/bAIQABgQEBAUEBgUFBgkGBQYJCwgGBggLDAoKCwoK&#xA;DBAMDAwMDAwQDA4PEA8ODBMTFBQTExwbGxscHx8fHx8fHx8fHwEHBwcNDA0YEBAYGhURFRofHx8f&#xA;Hx8fHx8fHx8fHx8fHx8fHx8fHx8fHx8fHx8fHx8fHx8fHx8fHx8fHx8fHx8f/8AAEQgAtAEAAwER&#xA;AAIRAQMRAf/EAaIAAAAHAQEBAQEAAAAAAAAAAAQFAwIGAQAHCAkKCwEAAgIDAQEBAQEAAAAAAAAA&#xA;AQACAwQFBgcICQoLEAACAQMDAgQCBgcDBAIGAnMBAgMRBAAFIRIxQVEGE2EicYEUMpGhBxWxQiPB&#xA;UtHhMxZi8CRygvElQzRTkqKyY3PCNUQnk6OzNhdUZHTD0uIIJoMJChgZhJRFRqS0VtNVKBry4/PE&#xA;1OT0ZXWFlaW1xdXl9WZ2hpamtsbW5vY3R1dnd4eXp7fH1+f3OEhYaHiImKi4yNjo+Ck5SVlpeYmZ&#xA;qbnJ2en5KjpKWmp6ipqqusra6voRAAICAQIDBQUEBQYECAMDbQEAAhEDBCESMUEFURNhIgZxgZEy&#xA;obHwFMHR4SNCFVJicvEzJDRDghaSUyWiY7LCB3PSNeJEgxdUkwgJChgZJjZFGidkdFU38qOzwygp&#xA;0+PzhJSktMTU5PRldYWVpbXF1eX1RlZmdoaWprbG1ub2R1dnd4eXp7fH1+f3OEhYaHiImKi4yNjo&#xA;+DlJWWl5iZmpucnZ6fkqOkpaanqKmqq6ytrq+v/aAAwDAQACEQMRAD8A9U4q7FXYq7FXlPmfyr5z&#xA;Gs6tY6Fbg6dWbzLpc7en6f6W9AxRWvF/hr9apd1b4eXU0qMVSi/8v/mdrnl/V7K9vNVEH6L1YWNu&#xA;RBbyXE7RQLawTlTJyDO0wFSpI67Dcqiifze+tamsT6jRw66Okkdv6Kt9ZhOnvLIG509Hl9aBXpzr&#xA;8XCqr0nyWNVHlfTxq/r/AKWEZGofWSpk+sBj6pBSi8OdfTptwpgVOsVdirsVdirsVdirsVdirsVd&#xA;irsVdirHvzD0671LyNrmn2cRmurqzlihiADFmZaAUOxxVgPnLQfPnl2xtLbyiksnw3NzPJpNra2i&#xA;POhh9FJIIwoY8A9Cz8exVjxwq3qS/m16dx9XfVEm+vP+k2UWbxC09Wf0P0copIax+jz+LlStfirg&#xA;VOteb8xP8KeXyhvmvxbsdYbT1tUvDdC3/wBHLo7PCFM/96EJWv8AkcsVQ11onni7/L7zeupPc3Wv&#xA;X8UsNlY1jaFCsQC/VVooo8jH7R7DpiqXrYfmpKbua1utViggivpdGhuWtRcSV+rJElzs0bSAtcvC&#xA;GIH2eW2KoS/k/Oq3aK60lL25sfWlnS1vvQFz9U04+vHDL6e3qXrSNDX7XBRXfCr1fy5balbaBp8G&#xA;qTm51NLeMX1w1PjnKgykU2A51oPDAqY4q7FXYq7FXYq7FWOeffM0/lzQV1CA26ySXdpaeteMUt4h&#xA;dTpCZZGFPhj58jvirBJvzj8xjS5tRj06ze2txawvIsjFGlu7ya1S4R3aJPqxW29ROTAtzUVHXCqF&#xA;H5+aoGjlk0iD0m0+a7W1ScSzSyw2s9xSMxGTijfV9iyceB5Byw4YqibL85vMl7ZXFxb6bZU06G7u&#xA;b6Qzc0ljtDa1EHotMoZvrZXdzQofHFUHY/nL5gtLix028eyvLuXU5bS+ZiY5Ylm1mewiBTlGP3Uc&#xA;Qei83Kj4go+MqrdI/OHXYNJhmvbmyuLmS2FxNe3Uno2heG3aaSBPTX4Z5CvGm+6sabccVZh5R8/6&#xA;5retW8N3p8Nnp99+kFtV5OblG0+WJD6oI4/F6xFB0K+9AFZ7irsVdirsVdirsVdirsVdirsVdirs&#xA;VeOeXvzo8yazNpFra2mnXM+qpbTmS1klljhWa0u7uW0cA1+tRrY041p8a1p3KoBP+cgtdk0Vr/8A&#xA;RVnAUaGR5HuEaNY57eWf06LJzLx+lR6fHQ8vS/ZxSmo/OvWbnWb/AE2y0qDkl0lpZGaWhBbVLbTg&#xA;86KTKqSi79VSY1psPirXFChcfm55js7+/F29hHIiRWtvZuWVPrEOpanZXE8ZYx1Vhp6njJIqrVRy&#xA;B+2ql9l+dHmN3k1a5WJrV4ba5ttMjdVWNZdKkuHaSSjM0ImQkt24mlaUxSn6fmz5glluFtrTT7q3&#xA;0zk19ewzSNDcKtzHB/ojAH/f3ViaMhXfqAh6rirsVdirsVdirsVdiqE1LStP1OGOC+hE8UU0VwiE&#xA;sB6kLiSMniRWjKNjse+Koj0IOJX014soRloKFQKBT7b4q70IeayemvqKOKvQVC+APhirQtrcLxES&#xA;BaFePEUoTUj5E4q0bS1LcjChapblxFakgk9PbFXC0tQpQQpwJ5FeIoSDWtKeOKrxFEG5BFDCpBAF&#xA;fi3b7++KrsVdirsVdirsVdirsVdirsVdirsVdiqC0rRdL0nTrTTtPtlgs7GNIbWMVYokaCJfiYsx&#xA;PAU5E1PfFUSba3ZSpiQqW5kFRQt/N8/fFWzDCWLGNSzcSxoKngarX/VPTFVrWlq1eUKNWtaqD1bm&#xA;e382/wA8VbW2t1cOsSBxsGCgEde/0nFXLbWyqEWJAgHEKFAFK1pT54qqYq7FXYq7FXYq7FXYq7FX&#xA;Yq7FXYq7FXYq7FXYq7FXYq7FXYq7FXYq7FXYq7FXYq7FXYq7FXYq7FXYq7FXYq7FXYq7FXYq7FXY&#xA;qsmmhgheaaRYoY1LySOQqqoFSWJ2AGKvKtT/ADwutY1KXRfyy0WTzTfxHhPqrEw6XAx7tMePOngC&#xA;tf2ScVUl/LT83vMQMvm/z5LpkTmv6L8up9XVFP7P1k8JG8PiDfPCqsP+ca/Ij/FeahrV/N3nub9i&#xA;5+lFQdd+mC1ab/nHPy7bVfQ/MfmDRbgfYe1v24g7dQV5Hp/MMbVSby1/zkB5W/eaJ5is/ONkm/6P&#xA;1eL6vckeCTo3xN7vIB7YVTHyt+eeiXuqp5f812M/lHzMSFFjqApDKSaD0bghVYN+zUCv7NcCvTMV&#xA;dirsVdirsVdirsVdirsVdirsVad0RGd2CooLMzGgAG5JJxV5VrX54Sajqcug/lrpD+bNXiPG4vlP&#xA;DTLcnoZJ9g/TswB7MemKoG78g/mPqls2o/mH+YbaJp/+7dP0RlsYI1b9hruTiW60+NW+Zwqlsf5M&#xA;fkncfG1nrmvSn/j9ZdQlDruarOkcULj/AFWOKXP+Tn5I23xJ+mfLEo+1fO19Zop7VubmNrevh8Xf&#xA;FU2j/Lr819EgS78kfmA+rWZAeKw15RdxyR0qoW6Xm9D24BfnihX0z88LzRtRi0b8ztEk8r30renB&#xA;qqVm0udvFZgW9P5EtT9ojFXq0M0M8KTQyLLDIoeORCGVlIqCpGxBwKvxV2KuxV2KuxVBa3relaHp&#xA;Vzq2rXKWmn2iGS4uJDRVUfiSTsANydhirxu107zV+dV2uoaubjQvyxjcNY6Wjenc6oFJpJOymqxm&#xA;nTp/LU/HhV7Jo2iaTomnQ6bpNpFY2FuKRW8KhUHidupPcnc4Fa1bUbuyjj+q6dPqM8rcVjgMSKv+&#xA;VI8rxqqj2qfAHFUuEXnq6+J7jTtKTvCkU1/JTxEzPZqp9vSbFV36G80Acl8wsZPCS0gMdf8AVXg/&#xA;y+PFVNrjzzYENNbWWtwdXNmWsbgDwSGd54nP+tOmKoHWNL8i/mJpdxo2r2onkg/vbO4QwXtq7dJF&#xA;DUkStNnX4Hp1YYqwXQfMPmD8qdftPKXnC7k1HybqMgh8t+ZZftW7nZbS7PYD9lu3X7NQhV7TgV2K&#xA;uxV2KuxV2KuxV2KuxVD6hqFjptjPf386W1lao0txcSEKiIoqWYnFXiwPmn87bxwklxoP5VwuVDp+&#xA;7u9XKGh67pDUeFPm32Cr1zSfLemaBoX6I8uW8GlwRRsLVVj5xrIVoJJFDI0hrQtV6t44FUNN8oaZ&#xA;bXS6hes+q6wvTUr0iSRPaBAFigX2iVa96nfFU8xV2KscuvKZs5XvvLEq6VfEl5LQA/ULlq1PrwLQ&#xA;Kzf79jo/83MDjiropdE836Ze6LrmnIZoaRaro10BJwJqUdTQc43pyilX8GBAVeYSxa3+R+pxzRyz&#xA;6r+Vl9MEmhcmSfSJZG2ZTuWhJP8Am1OZV7baXVtd2sN1ayrNbXCLLDMhDK6OKqykdQQcCquKuxV2&#xA;KuJAFT0xV4c0cv50+dZFdm/5Vh5ZuChVWIXVb9Ou6neJAfuP+X8JV7fHHHFGsUShI0AVEUAKqgUA&#xA;AHQDAq7FXYq7FXYq7FUr1zy9Zaukbuz2uoW1WsdStyEuIGPUo1DVT+0jAo3RgRirHdW0y1836RqX&#xA;kbzfCi30kJeOeEEJPGCBHe23LlweNyOcZJKNsaoyllUn/I7zLq0unal5K8wyc/Mnk+YWU8hNTPam&#xA;v1acV3IKClfChO5xV6dirsVdirsVdirsVdirsVeJeYZrr83vPUvlOzleP8v/AC3MD5iuoiV+vXiH&#xA;4bVHHVEI3p7t/IcKvZ7OztLK0hs7OFLe0t0WKCCNQqIiCiqqjYAAYFVsVdirsVdirsVSHzRpd0wi&#xA;1vSkrremAtEg2+s25IM1o58JAKpX7MgVulQVUay6N5l8v0kRbzR9XtgSjqeMkE6V3U0IqrfMYq8y&#xA;/J27v/KnmbWfyq1WZpo9MH6Q8s3Up+KXTpm3jrtUxMe3fl2UYVevYFdirsVebfn35i1HTvJaaLo7&#xA;f7nPNV1Fo2ngGjD6yeMrDw+D4a9iwOKsw8neVtO8q+WNO8v6eoFtYQrHzpQyP1kkan7Ujksfniqc&#xA;4q7FXYq7FXYq7FXYqkvmzSrm805bvTlH6a0xvrelsdqyoCGhY/yToWif2avUDFXmWtX1tpf5zeSf&#xA;OVhVdM872LaXfVBUl+Ky2rOD0diyL7BThV7PgV2KuxV2KuxV2KuxVg/50eb5/Kv5d6pqFmSNUuVW&#xA;x0wL9v6zcn01ZP8AKRSzj/VxVH/lj5JtvJfknTdCiUfWIoxLqEo39S6kAaZye/xbL/kgDFWU4q7F&#xA;XYq7FXYq7FXYqx7ysosr7WtFHwxWl39as08Le+HrfQBc+uqjsoGKsD/O1P0D5n8j+foRwbTtSXTN&#xA;TkHeyvgVbl7J8dPdsVeu4q7FXYq8l81INZ/5yH8oaW45waBpd3rDp1HqTsbdCfdWRGGKvWsVdirs&#xA;VdirsVdirsVdirsVeEfm+v1DyFZagp4y+VvNwuY3+zwja6kljWu9FVLhAPkPlhS93wIdirsVdirs&#xA;VdirsVeTfm8v6V/Mb8s/LTfFbzalPqlxH2P6OiEqV8di+KvWcVdirsVdirsVdirsVdiqRQDh56vS&#xA;P93aXaBx/wAYbi540/5HNirFf+ciNOS+/J3zChALwRw3EZPYwzxuaf7EEYhWbeWr99R8uaVqD153&#xA;lnb3DV61liVz3Pj44qmOKuxV5RpH7z/nJfXXfdoPLkEUXsj3Ebkf8Fir1fFXYq7FXYq7FXYq7FXY&#xA;q7FXhf54H1fyT80Xfa51p6f9G9+LX/sXwpe6YEOxV2KuxV2KuxV2KvKPMY9b/nI/ylH0+q6Lezg9&#xA;a+oXjp7U64q9XxV2KuxV2KuxV2KuxV2KpDan1fPOpEfZttNskJHQvLNcsVJ8VVFP+yxVKfzoaFfy&#xA;o80mUVX9HzAVFfiIon/DUxVMfy2SVPy68rJNX1V0iwElTU8hax13+eKsjxV2KvKLE/Vf+cm9RjbY&#xA;ah5YjmQkdTHdIlF9qK2KvV8VdirsVdirsVdirsVdiqB13VYtI0a+1SVS6WUEk3pr9pyikhF8WY/C&#xA;B44q8i/OzTJbL8rfK/lqZlkvdR1bTbK5YbiSeQtLM9K/tSqTv44Ve14FdirsVdirsVdirsVeUecS&#xA;Lf8A5yF8gztQLeWOpWwboaxwtJRvb4tvfFXq+KuxV2KuxV2KuxV2KuJABJNANyTirH/Jha7srvXG&#xA;FP05cteQA/8ALKqrBanfcc4IUkp2LHFWL/8AORWoCy/JzzC1aPOkFug8TLcRqw6H9knFWc+XrA6f&#xA;oGm2BHE2lrBAV329KNUpv8sVR+KuxV5N5yppn/OQfkXUm+GPV7C/0t326wqZkHju8oxV6zirsVdi&#xA;rsVdirsVdirsVY5rjjVPMOnaAnxQWxTVdVpQgRwv/okTeBkuE9Qe0TDvirCPzQrq/wCbf5beXUNV&#xA;t7m41q6HUKLRA0DH5ujDCr1rArsVdirsVdirsVdiryb87GGn+bPy18wN8Mdprn1CSTeirqCqrV/2&#xA;MROKvWcVdirsVdirsVdirsVY15mkbWLtfKlqx43CCXXJlJHo2LEj0qjpJdFTGvgnNuoFVWSKqooR&#xA;AFVQAqgUAA6ADFXk35/kakPJnlJd313XrczLXrbW285p7eopwq9awK7FXYq8l/5yHrp2meV/NqD4&#xA;vLeuWlxO3hbSHjKPkzKgwhXrQIIBBqDuCMCuxV2KuxV2KuxV2KoTVtUs9K0241G8YpbWqGSQqCzG&#xA;nRVUbszHZVG5O2KoDyrpl5bWk1/qahdZ1WT61fqCGEdQFit1YdVgiCpXoW5N+0cVee+UCPMf5++b&#xA;te+3Z+WrODQrNj09WRjLPT3SRXU/PCr1zArsVdirsVdirsVdirzT/nIvS5738qdTubYkXekyW+pW&#xA;7DqGt5V5t/sY2Y4hWe6BqsWsaFp2rQ09LULaG6jp04zRhx/xLFUdirsVdirsVdiqSeYPME1pNFpe&#xA;lxLea/eKWtrZiRHFGDRrm5YbpCh+lz8K79FUToGhQaPZtEJGubu4cz399IAJbidgA0j8QB0AVVGy&#xA;qAo2AxVMsVeP31zDr3/OR1rE7Vs/JWlPKRQt/p1+KBQoqSTBIrCg/Zwq9F8y23mDUvL+o22lSfo+&#xA;+nt5I7OctxlWVhRX5LyEfE7/ALX0YFYJrHkj8yrmK+06PU2n0+4jvILVpbySqQStd8Y5l48pXdJr&#xA;dVctVOB/2ZVZe+Q/zB1CUSvezWs1tLeXFjP+kZJGRpYLpLNEBjJT0RNDHKeR9TiSQf2grL/zU8un&#xA;zH+XXmDR1XnNcWcj26eM8P76Ef8AIyNcVUPye8xjzF+Wfl7Uy/OY2iQXLHqZrb9xIT82jJ+nFWY4&#xA;q7FXYq7FXYq7FWLp/wA7Lr4l3Og6FOfSP7F1qMdVLf5UdoageMu/WMVVTXzPrttoHl3Utbuv7jTb&#xA;aW5denL00LBR7sRQYqwf/nHvRLux/LmDVNQ31XzJcTazfSHqzXTVjP8Aso1VvpxV6XirsVdirsVd&#xA;irsVdiqC1zSoNX0W/wBJuP7jULaW1l7/AAzIUb8GxV59/wA46atcXX5bQaVebaj5durjSLxD1DQP&#xA;yUb+Ecir9GJV6dirsVdirsVSjzHrU+nxQWthEtzrOoMYtOtmrw5AVeaWm4hhX4nPyUfEygqqmg6D&#xA;b6TBIS5utRuiH1DUZP72eQV3brxRa0RB8KLsMVTKSSONC8jBEXdmY0A+ZOKoG71ExWk10aW9nbxt&#xA;LNdTAiiICzMsex2AO7U+kYq8z/5x4spr/Sdd89Xqk3nmzUp7iF3A5i0hcxwoSAPstz6bUpir1vFX&#xA;Yq7FXYq8i/JMf4d80+d/IEnwR6bqH6T0pD3s74BlC+Ijolfc4Veu4FdirsVdirsVY7r+oXd9fDy1&#xA;pErRXcqCTVL+M0NnauSBxbtPNQrF/Lu/7IDKp3YWFnp9lBY2USwWlsixQQp9lUQUAGKvLPz/ALm4&#xA;1aDy9+XljIVu/Nt/Gl2VoSljasJZ3+g8W9wpwq9WtraC1tora3QRwQIscMa9FRBxVR8gMCqmKuxV&#xA;2KuxV2KuxV2KuxV5F5SK+V/z780+Xm+Cz812sWuaeO3rxlkuFH+U7F3PsuFXruBXYq7FXEgCp6Yq&#xA;xbyjNDq99eeY5HVp7tFTTYCQXh0zk3oSceq/W2Rpq914r+xirIDdtKeNool7GY7RD5H9v5L8iRiq&#xA;6O0HMSzt60w3UkUVT/kJ0Hz3b3xV5x/zkHrl3a+R18vaYa6z5suotGsowdys7ATE/wCSU+A/62Ks&#xA;98u6JaaDoGnaLaf7zadbxW0RpQkRIF5H3alTiqY4q7FXYq7FXkH5igeVPzi8nedFPp2GscvLmsN0&#xA;WstXtmY/6+5J7JhV63Jc28UkccsqJJMSsKMwDOQKkKD1NPDAqTX+qahd6wNF0grG9uI5tVv3UOkM&#xA;btVYEWtGnlUE77IvxN1UMqnuKuxVJvNet3Gk6bG9rGr3l5PFZWsk1RbxS3DcEknYUpGG7dWaiDdh&#xA;iqI0HRINIsjCkjXFzM5nvr2XeW4nYAPK/wA6ABRsqgKtFAGKpjirx/8AL4/4z/OHzP53b95pWgqP&#xA;L2hP1RnQ87mVWHXcmh/lfFXsGKuxV2KuxV2KuxV2KuxV2KvI/wA+o5tDuPKv5i2oPPyxqCx6iV6m&#xA;wvSIpgaf8CP9fCr1qKWOWJJYmDxSKGR1NQysKggjsRgVdirsVYt+ZGs2un+XltZ5zbnWbiPTFkXk&#xA;ZAs9TOYggLtILdJCgUVLUAxV57oHk38w7Xz5qPm2CWRtJ1I8LjQ7yKO0t2tIAUtESlxJIpijp/eQ&#xA;rvyqu+FXoNl5rkvNUs7a8gutABkmiS3vYVAvZE+FVhnDOgA4u3AhXcAMvwVqFZVirx+zP+Nvz/uL&#xA;v+80X8vrY28J6o2p3YIkPzRQVPgyDCr2DArsVdirsVdirDPzi8oN5r/LvV9KhUtfrF9a04r9r6zb&#xA;n1Iwvu/Hh9OKqn5ZeaLbzt+X2ja1OqTzTRILxWAYC7tzwkPEjY+onJfoxVd5I025GgW2p2d0Yn1e&#xA;dtUuVnDXAeK6YNHGCzq6mO3EcaHltQVU9MVT2PU7iIRrqNq0Essvoxm39S6iNSODF0jUoDy6uqgE&#xA;HelCVUbBcQXESzQSLNC+6SRsGU9tiNsVU7+ws9Qsp7G9iWe0uUaKeF/ssjihBxVKPK15exm60HU5&#xA;WuNR0rhxun+1c2kvL6vO3+X8DRyf5aMdgRiqT/nJ5yfyl+X2palbk/pK4UWWlooq7XVz8CcR3KCr&#xA;0/ycVRf5WeTU8neRNK0IgfWoYhJfuN+V1L8cxr3ox4g+AGKsrxV2KuxV2KuxV2KuxV2KuxVKPN3l&#xA;218yeWNU0G5oItStpLfmRXgzL8EgHij0YfLFWG/kB5jutU/L+HS9Rqms+WppNG1GJvtK1qeMdf8A&#xA;nnxWvcg4q9JxV2KqNxHaArdXCR8rYMyTuBWMEfGQx+z8PXFUu+rHXED3kY/Q0qKY7GaN0lkcPyDz&#xA;qxWiUUUiZf8AW/lCqM1bSrHVtOn0++j9W2nWjDowINVdGG6ujAMrDcEVG+KsS1Hz1J5e/LDUPMWq&#xA;us19oyXNpKxAAnvLWdrSNuK04ieVFanYNiqG/Izync+X/wAv7STUKtrWtO+ratK/22nu6OA3usfE&#xA;EfzVxV6DirsVdirsVdirsVeP/luf8Hfmv5p8hyfu9N1c/wCIPL6nZaS/Dcxr/qsKAeCHCr07yxpk&#xA;+leWtJ0u4ZGnsLO3tpmjrwLwxKjFagHjVdqjAqZYqhH0qzMqyxBreQS+u5gdohI5oGMqoQsnJVA+&#xA;MH2xVRh/TdsIY5vT1FWkKy3CAW8iRmgRmjJZJD15lWX/ACUxVJtS1C0fzB5e1K2LxzyT3Gm3EEyP&#xA;DK0E0Jlb93KEY8J4YTypShNOu6rCPMf/ADu3566R5fHx6L5IiGramP2Wv5aG2jPaqfC49uQwq9hw&#xA;K7FXYq7FXYq7FXYq7FXYq7FXYq8fUnyT+f7Kf3eh/mFbVX+RdTsxv/wan6Wf2wq9gwKo3t7a2Vq9&#xA;1dSCKCOnJjU7khVUAVLMzEBVG5Ow3xVCrZzXlwJ79QsVvKXsoEZqUAosko2DN1KrSi17tuFUwxVp&#xA;mVFLuQqqCWYmgAHUk4q8B16vnbzP5T8jIC+n3lzc+bvMCmo/0GS4kksopV/ZLxOqsviynCl7/gQ7&#xA;FXYq7FXYq7FXYq8n/PzTrzTrXRPzE0uMtqXk+7WadV2MlhORHcRmm5HT5KWwq9P0zUbPU9OtdRsp&#xA;BLZ3sMdxbSjo0cqh0b6QcConFXYq0zKil3IVVBLMTQADqScVYJ5i8x6Tej9PMqzeWPKom1SbU6Ap&#xA;cXMUDpHDat/uwJ6hZpF25hVUk8gFUo/5x48vXVp5Mm8y6mGOs+bbhtTunkZnf0WJFsnJyzMvAlxU&#xA;k/FiVep4q7FXYq7FXYq7FXYq7FXYq7FXYq87/Pfyrd635ElvtMquueXZU1jSpU+2JbX4mA+cdaD+&#xA;YDFWQ+UPO2meYvJ+j+YkkRF1WJAkPIAm53WSBORFWWRGXr2xVM7C3vJpEv771IZni4DTvUV4ofjL&#xA;1PEANKQFDElgpHwGhJZVMMVdiqSebrOS80s2808droxq+uTMzBzZxqXkiSgpSWnCQkiicqb0IVef&#xA;fkLaTa0/mL8yL6MpceaLxk01WG8enWhMUKDw3XifHiDhV65gV2KuxV2KuxV2KuxVD6lp1nqWnXWn&#xA;XsYms7yJ7e5iPRo5VKOp+anFUk/L3yg3k/ylY+XTqEmpJYh1iuZUVG4M5cIFBOy8qCpOKsjxV2Kp&#xA;JP5N0O7unudRSXUi7mQQXk0s9shqWUJas31cca/CeFffFUP588kWHnHytP5burmeysrgxGRrXgpK&#xA;wuHVCGVhwqo2FMVT+2t4La3itrdBHBAixxRrsFRBxVR7ADFVTFXYq7FXYq7FXYq7FXYq7FXYq7FX&#xA;EAih6YqxHyD+W2keS7e8trGaS4tp72e8soJgpSzWfrDb7clXjQHffFWXYq7FXYqlnmbQLTzD5fv9&#xA;DvJZYbTUYWt55LdgkoRxRuLMHG423BxVU0DRbLQ9EsNGsV42enwR20APXjGoUE07mlT74qj8Vdir&#xA;sVdirsVdirsVdirsVdirsVdirsVdirsVdirsVdirsVdirsVdirsVdirsVdirsVdirsVdirsVdirs&#xA;VdirsVdirsVeQ2F9+Y9oltNDBqa3JtVTzVLexvdxR3rXEK+rptvy/eIkfr/DD8HHgSCwoSqzWvN3&#xA;5o2trHeSWcyPayTSzp9QkihjjXT7owM7JdOspklEZaL41RyF58uNVUbd+Z/zNl0e6sl065W9mhu2&#xA;s7+KydGaBIL8wSMvIiKd3gtv3Z+Ksn2eyhU485az57sJVm0C1kukks42Wts8vK6VZ2jhMQZPSEz8&#xA;FkkJ+AUr4hVIbjzX+dom1CFdDhSG0KiG99KVhKqXKW8zpGhkc8k5zx8VY8afCx2KqaLf/mdeeS9a&#xA;vLxPqerolqLC1tLduYpBBLcSIHbm5d5JVCUqvHju2KseuvMf50aVo/p2djJqNwIUuoJJ7OZnLu92&#xA;DayFDI1QIITUqPt0LIKHCrKri4/MK70DzTFKTb3TWEkmiSW9u8cqTGS7jESEueb+nDC4OxDPXpQY&#xA;FS2DV/zXSV7G3tAy2srIsk1vLQrBHeNHCJ5ZW9YTiC25Tn7JkP7RoiqH0vWvzjnRtSns41lhEUa6&#xA;f6E6x3IkuFjLH1fSaFoxI5Y8fsqD9nqqhU85fnZw07/cJG8sl2scyC2uVWSF3gVyzOq+kY/Ul+3w&#xA;Wihgz9GKsx/LS480XNjq1z5ha4aea+RrUXEDWvGL6ha80jhcsVRLj1V6/EQW74FZhirsVdirsVdi&#xA;qH1GS8j0+6ksoxNepE7W0THiryhSUUnsC1Biryu084+drP0XtGv9TtJorcand6rpsyfUrxop5JUS&#xA;C2ht5ZAzxxxcV5BCymp6Eqv1b8yvOVpHJdPZLbCK5jtjHLZ3vpw/WNRjs09UkL9YYRP6q+iwrWlO&#xA;hZVVn/MTzzcackUemtYagzq8lwbG6ljW2WOB/WCNx/vGaYBC3JQPEHAqP1rzF53svM2oW9vA9zpM&#xA;t9b21txhf1Il+qRTSOso+D0y4ZTVT8R+0KUxVI9G/Mzz5q1wLu3tIZLa0tVmuraO1ulV2n+pOYQX&#xA;bl6sQnkCyD4WALcfAqnXlDz1581vWbWzvtFXTLZjLJeSTW9ypQRrGfq4ZmCeoDIRz6NTZRgVJ7bz&#xA;r+Zmn3GqXF5bPqVvBJLCtsLGVZFZG1F42i4MocUtoFP8wZfiB3YpTryl5388aveWpvdLjtrEyLDc&#xA;lra4ilbnNeIJE5O6xqqWsLEHnXn9qnGoQl915y/MLR7jUV+pNqhea8nso2s7gco0uLqFIo3jPpqs&#xA;EdpFK3PeQSjjvSqrrvzh+Z0utvoZsEtZILu0jOpQ2lw0BU3Fssjnk5V4pEnk2DqwCH4q8uCqkfzR&#xA;/MBfV9by48NLS1lQraXM3GWZbQyMfjiV0DXMo48lK+mak0YAqmPkrzt5z17zDYR6np7abaNaPLcW&#xA;31W4Skht7WRWeaUcN5JZUWMfEvA8qnoFek4q7FXYq1J6fA+pTh+1y6fTXFW8VdirsVdirsVdirsV&#xA;dirsVdirsVdirsVdirsVdirsVUL36j6K/XfS9H1YuHrcePreqvoU5bc/V48O/KlN8VV8VdiqXaH/&#xA;AIe+qy/oL6p9V9Z/W+o+l6fr7c+XpfDz6cq74qmOKuxV2KuxV2KuxV2KuxV2Kv8A/9k=</xmpGImg:image>
               </rdf:li>
            </rdf:Alt>
         </xmp:Thumbnails>
      </rdf:Description>
      <rdf:Description rdf:about=""
            xmlns:xmpMM="http://ns.adobe.com/xap/1.0/mm/"
            xmlns:stRef="http://ns.adobe.com/xap/1.0/sType/ResourceRef#"
            xmlns:stEvt="http://ns.adobe.com/xap/1.0/sType/ResourceEvent#">
         <xmpMM:RenditionClass>proof:pdf</xmpMM:RenditionClass>
         <xmpMM:OriginalDocumentID>uuid:65E6390686CF11DBA6E2D887CEACB407</xmpMM:OriginalDocumentID>
         <xmpMM:DocumentID>xmp.did:47C0730B3B20681188C69098C6AB8D67</xmpMM:DocumentID>
         <xmpMM:InstanceID>xmp.iid:47C0730B3B20681188C69098C6AB8D67</xmpMM:InstanceID>
         <xmpMM:DerivedFrom rdf:parseType="Resource">
            <stRef:instanceID>uuid:e0e3b0a8-bcde-4555-acb9-caaabf63ffa6</stRef:instanceID>
            <stRef:documentID>xmp.did:6285147FAD98E41184D59CB023950750</stRef:documentID>
            <stRef:originalDocumentID>uuid:65E6390686CF11DBA6E2D887CEACB407</stRef:originalDocumentID>
            <stRef:renditionClass>proof:pdf</stRef:renditionClass>
         </xmpMM:DerivedFrom>
         <xmpMM:History>
            <rdf:Seq>
               <rdf:li rdf:parseType="Resource">
                  <stEvt:action>saved</stEvt:action>
                  <stEvt:instanceID>xmp.iid:6285147FAD98E41184D59CB023950750</stEvt:instanceID>
                  <stEvt:when>2015-01-10T11:46:05+02:00</stEvt:when>
                  <stEvt:softwareAgent>Adobe Illustrator CS5</stEvt:softwareAgent>
                  <stEvt:changed>/</stEvt:changed>
               </rdf:li>
               <rdf:li rdf:parseType="Resource">
                  <stEvt:action>saved</stEvt:action>
                  <stEvt:instanceID>xmp.iid:47C0730B3B20681188C69098C6AB8D67</stEvt:instanceID>
                  <stEvt:when>2015-02-12T17:05:25+02:00</stEvt:when>
                  <stEvt:softwareAgent>Adobe Illustrator CS5.1</stEvt:softwareAgent>
                  <stEvt:changed>/</stEvt:changed>
               </rdf:li>
            </rdf:Seq>
         </xmpMM:History>
      </rdf:Description>
      <rdf:Description rdf:about=""
            xmlns:illustrator="http://ns.adobe.com/illustrator/1.0/">
         <illustrator:StartupProfile>Web</illustrator:StartupProfile>
      </rdf:Description>
      <rdf:Description rdf:about=""
            xmlns:xmpTPg="http://ns.adobe.com/xap/1.0/t/pg/"
            xmlns:stDim="http://ns.adobe.com/xap/1.0/sType/Dimensions#"
            xmlns:xmpG="http://ns.adobe.com/xap/1.0/g/">
         <xmpTPg:NPages>1</xmpTPg:NPages>
         <xmpTPg:HasVisibleTransparency>False</xmpTPg:HasVisibleTransparency>
         <xmpTPg:HasVisibleOverprint>False</xmpTPg:HasVisibleOverprint>
         <xmpTPg:MaxPageSize rdf:parseType="Resource">
            <stDim:w>325.984375</stDim:w>
            <stDim:h>225.033203</stDim:h>
            <stDim:unit>Pixels</stDim:unit>
         </xmpTPg:MaxPageSize>
         <xmpTPg:PlateNames>
            <rdf:Seq>
               <rdf:li>Cyan</rdf:li>
               <rdf:li>Magenta</rdf:li>
               <rdf:li>Yellow</rdf:li>
               <rdf:li>Black</rdf:li>
            </rdf:Seq>
         </xmpTPg:PlateNames>
         <xmpTPg:SwatchGroups>
            <rdf:Seq>
               <rdf:li rdf:parseType="Resource">
                  <xmpG:groupName>Default Swatch Group</xmpG:groupName>
                  <xmpG:groupType>0</xmpG:groupType>
               </rdf:li>
            </rdf:Seq>
         </xmpTPg:SwatchGroups>
      </rdf:Description>
      <rdf:Description rdf:about=""
            xmlns:pdf="http://ns.adobe.com/pdf/1.3/">
         <pdf:Producer>Adobe PDF library 9.90</pdf:Producer>
      </rdf:Description>
   </rdf:RDF>
</x:xmpmeta>
                                                                                                    
                                                                                                    
                                                                                                    
                                                                                                    
                                                                                                    
                                                                                                    
                                                                                                    
                                                                                                    
                                                                                                    
                                                                                                    
                                                                                                    
                                                                                                    
                                                                                                    
                                                                                                    
                                                                                                    
                                                                                                    
                                                                                                    
                                                                                                    
                                                                                                    
                                                                                                    
                           
<?xpacket end="w"?>
	</metadata>
<g>
	<path fill="#1A171B" d="M45.264,8.003L42.167,0h1.146l2.083,5.782c0.203,0.471,0.335,0.943,0.403,1.347
		c0.135-0.471,0.271-0.876,0.472-1.347L48.425,0h1.073l-3.161,8.003H45.264z"/>
	<path fill="#1A171B" d="M53.669,6.12l1.011,0.135c-0.137,0.604-0.403,1.076-0.874,1.411c-0.405,0.337-1.01,0.472-1.684,0.472
		h-0.066V7.331h0.134c0.337,0,0.606-0.069,0.875-0.27C53.333,6.858,53.535,6.523,53.669,6.12 M52.055,2.084h0.066
		c0.739,0,1.412,0.271,1.883,0.74c0.472,0.538,0.74,1.278,0.74,2.288V5.38h-2.689V4.504h1.613c0-0.469-0.135-0.806-0.337-1.073
		c-0.336-0.338-0.739-0.539-1.21-0.539h-0.066V2.084z M52.055,8.138c-0.809,0-1.413-0.271-1.948-0.807
		c-0.473-0.473-0.742-1.211-0.742-2.152c0-1.01,0.271-1.748,0.81-2.287c0.469-0.537,1.142-0.808,1.882-0.808v0.808
		c-0.404,0-0.809,0.136-1.076,0.403c-0.337,0.336-0.469,0.74-0.537,1.209h1.613V5.38h-1.683c0.068,0.605,0.27,1.075,0.541,1.411
		c0.333,0.338,0.736,0.54,1.142,0.54L52.055,8.138L52.055,8.138z"/>
	<path fill="#1A171B" d="M55.956,8.003V2.22h0.875v0.873c0.201-0.403,0.403-0.672,0.605-0.807c0.203-0.135,0.402-0.202,0.672-0.202
		c0.337,0,0.673,0.067,1.01,0.271l-0.337,0.94c-0.269-0.133-0.538-0.202-0.739-0.202c-0.202,0-0.401,0.069-0.604,0.202
		C57.302,3.43,57.167,3.566,57.1,3.833c-0.135,0.336-0.201,0.74-0.201,1.144v3.026H55.956z"/>
	<path fill="#1A171B" d="M61.808,7.129l0.134,0.874C61.673,8.07,61.47,8.07,61.203,8.07c-0.337,0-0.604-0.067-0.808-0.135
		c-0.2-0.134-0.336-0.27-0.403-0.469c-0.067-0.205-0.135-0.608-0.135-1.146V2.959h-0.741V2.22h0.741V0.737l1.009-0.604V2.22h0.942
		v0.739h-0.942v3.43v0.538C60.933,6.996,61,7.062,61.067,7.062c0.067,0.067,0.203,0.067,0.337,0.067H61.808z"/>
	<path fill="#1A171B" d="M66.784,6.12l1.011,0.135c-0.137,0.604-0.472,1.076-0.875,1.411c-0.471,0.337-1.009,0.472-1.683,0.472
		H65.17V7.331h0.066c0.338,0,0.674-0.069,0.943-0.27C66.449,6.858,66.651,6.523,66.784,6.12 M65.17,2.084L65.17,2.084
		c0.809,0,1.413,0.271,1.885,0.74c0.536,0.538,0.739,1.278,0.739,2.288V5.38H65.17V4.504h1.613c-0.065-0.469-0.2-0.806-0.402-1.073
		c-0.271-0.338-0.674-0.539-1.211-0.539V2.084z M65.17,8.138c-0.807,0-1.479-0.271-1.949-0.807c-0.538-0.473-0.74-1.211-0.74-2.152
		c0-1.01,0.27-1.748,0.74-2.287c0.471-0.537,1.144-0.808,1.949-0.808v0.808c-0.471,0-0.807,0.136-1.143,0.403
		c-0.271,0.336-0.472,0.74-0.472,1.209h1.613V5.38H63.49c0,0.605,0.201,1.075,0.538,1.411c0.336,0.338,0.672,0.54,1.143,0.54
		L65.17,8.138L65.17,8.138z"/>
	<path fill="#1A171B" d="M68.398,8.003l2.084-3.026L68.534,2.22h1.211l0.941,1.346c0.134,0.268,0.267,0.471,0.402,0.671
		c0.135-0.269,0.268-0.471,0.404-0.671l1.009-1.346h1.142l-2.018,2.688l2.151,3.095h-1.144l-1.212-1.815l-0.334-0.471L69.54,8.003
		H68.398z"/>
	<path fill="#1A171B" d="M30.333,14.595h0.134c0.538,0,0.94,0.135,1.347,0.402c0.336,0.202,0.674,0.606,0.807,1.076
		c0.202,0.471,0.337,0.941,0.337,1.481c0,0.603-0.135,1.142-0.337,1.612c-0.201,0.471-0.538,0.875-0.94,1.144
		c-0.403,0.2-0.808,0.338-1.277,0.338h-0.067V19.84c0.472,0,0.808-0.203,1.145-0.539c0.336-0.403,0.471-0.94,0.471-1.747
		c0-0.741-0.135-1.281-0.471-1.614c-0.271-0.404-0.673-0.607-1.076-0.607h-0.067v-0.738H30.333z M27.911,22.732v-8.003h0.875v0.738
		c0.201-0.269,0.471-0.538,0.739-0.671c0.202-0.136,0.538-0.202,0.808-0.202v0.738c-0.403,0-0.74,0.203-1.076,0.607
		c-0.337,0.401-0.471,0.941-0.471,1.68c0,0.808,0.134,1.346,0.471,1.682c0.27,0.336,0.673,0.539,1.076,0.539v0.808
		c-0.27,0-0.538-0.07-0.808-0.203c-0.27-0.135-0.472-0.338-0.673-0.538v2.825H27.911z"/>
	<path fill="#1A171B" d="M34.099,20.513V14.73h0.874v0.874c0.268-0.404,0.471-0.674,0.671-0.807
		c0.203-0.135,0.403-0.203,0.606-0.203c0.336,0,0.672,0.068,1.007,0.336l-0.335,0.876c-0.2-0.135-0.471-0.202-0.738-0.202
		c-0.202,0-0.403,0.067-0.54,0.202c-0.2,0.133-0.335,0.268-0.403,0.536c-0.067,0.338-0.133,0.741-0.133,1.146v3.025H34.099z"/>
	<path fill="#1A171B" d="M41.833,18.629l1.012,0.135c-0.138,0.605-0.473,1.076-0.875,1.412c-0.403,0.337-1.01,0.472-1.684,0.472
		h-0.066V19.84h0.066c0.403,0,0.674-0.067,0.942-0.268C41.497,19.369,41.697,19.1,41.833,18.629 M40.218,14.595L40.218,14.595
		c0.81,0,1.414,0.268,1.95,0.808c0.472,0.469,0.741,1.277,0.741,2.219v0.269h-2.691v-0.808h1.614c0-0.538-0.136-0.873-0.336-1.144
		c-0.335-0.336-0.74-0.536-1.211-0.536h-0.067V14.595z M40.218,20.647c-0.808,0-1.479-0.27-1.948-0.808
		c-0.472-0.471-0.741-1.211-0.741-2.151c0-1.009,0.271-1.75,0.741-2.286c0.538-0.54,1.142-0.808,1.948-0.808v0.808
		c-0.402,0-0.808,0.133-1.074,0.469c-0.336,0.27-0.472,0.673-0.538,1.211h1.612v0.808h-1.681c0.067,0.605,0.202,1.144,0.538,1.479
		c0.335,0.271,0.673,0.471,1.143,0.471V20.647z"/>
	<path fill="#1A171B" d="M43.716,18.764l0.939-0.135c0.069,0.404,0.203,0.673,0.473,0.875c0.271,0.269,0.604,0.336,1.075,0.336
		c0.403,0,0.742-0.067,1.009-0.269c0.201-0.202,0.337-0.404,0.337-0.673c0-0.202-0.136-0.403-0.337-0.473
		c-0.134-0.133-0.471-0.2-1.009-0.333c-0.672-0.203-1.208-0.337-1.479-0.473c-0.271-0.135-0.474-0.336-0.673-0.605
		c-0.137-0.201-0.2-0.471-0.2-0.739c0-0.27,0.063-0.537,0.2-0.74c0.136-0.2,0.268-0.403,0.472-0.538
		c0.132-0.135,0.335-0.2,0.604-0.27c0.271-0.133,0.604-0.133,0.874-0.133c0.472,0,0.876,0.066,1.21,0.202
		c0.337,0.134,0.607,0.268,0.741,0.538c0.2,0.2,0.271,0.471,0.336,0.874l-0.939,0.133c-0.067-0.27-0.203-0.536-0.403-0.672
		c-0.204-0.201-0.473-0.268-0.876-0.268c-0.471,0-0.741,0.066-0.941,0.2c-0.199,0.136-0.336,0.336-0.336,0.538
		c0,0.135,0.066,0.269,0.137,0.336c0.066,0.135,0.199,0.203,0.399,0.27c0.07,0.067,0.403,0.136,0.875,0.269
		c0.675,0.202,1.146,0.338,1.412,0.471c0.338,0.067,0.538,0.271,0.674,0.472c0.135,0.269,0.269,0.538,0.269,0.875
		c0,0.335-0.134,0.604-0.333,0.94c-0.203,0.271-0.475,0.47-0.812,0.674c-0.335,0.134-0.738,0.201-1.21,0.201
		c-0.74,0-1.345-0.135-1.748-0.472C44.053,19.84,43.782,19.437,43.716,18.764"/>
	<path fill="#1A171B" d="M53.669,18.629l1.011,0.135c-0.137,0.605-0.472,1.076-0.874,1.412c-0.405,0.337-1.01,0.472-1.684,0.472
		h-0.066V19.84h0.066c0.403,0,0.674-0.067,0.941-0.268C53.333,19.369,53.535,19.1,53.669,18.629 M52.055,14.595L52.055,14.595
		c0.807,0,1.412,0.268,1.949,0.808c0.472,0.469,0.74,1.277,0.74,2.219v0.269h-2.689v-0.808h1.613c0-0.538-0.135-0.873-0.337-1.144
		c-0.336-0.336-0.739-0.536-1.21-0.536h-0.066V14.595z M52.055,20.647c-0.809,0-1.48-0.27-1.948-0.808
		c-0.473-0.471-0.742-1.211-0.742-2.151c0-1.009,0.271-1.75,0.742-2.286c0.535-0.54,1.141-0.808,1.948-0.808v0.808
		c-0.404,0-0.809,0.133-1.076,0.469c-0.337,0.27-0.47,0.673-0.537,1.211h1.613v0.808h-1.683c0.068,0.605,0.201,1.144,0.541,1.479
		c0.333,0.271,0.67,0.471,1.142,0.471V20.647z"/>
	<path fill="#1A171B" d="M55.956,20.513V14.73h0.875v0.806c0.403-0.605,1.009-0.941,1.815-0.941c0.403,0,0.673,0.068,1.01,0.203
		c0.269,0.133,0.471,0.268,0.672,0.471c0.135,0.201,0.202,0.47,0.271,0.738c0.066,0.203,0.066,0.471,0.066,0.94v3.566h-1.009v-3.496
		c0-0.404,0-0.741-0.067-0.943c-0.135-0.202-0.27-0.336-0.403-0.47c-0.201-0.135-0.472-0.135-0.739-0.135
		c-0.403,0-0.74,0.135-1.076,0.337c-0.27,0.268-0.471,0.807-0.471,1.547v3.16H55.956z"/>
	<path fill="#1A171B" d="M64.296,19.638l0.134,0.875c-0.269,0.067-0.47,0.067-0.738,0.067c-0.338,0-0.605,0-0.808-0.134
		c-0.201-0.137-0.338-0.271-0.403-0.472c-0.066-0.202-0.134-0.537-0.134-1.144v-3.362h-0.74v-0.739h0.74v-1.481l1.007-0.536v2.018
		h0.942v0.739h-0.942v3.43v0.539c0.068,0.066,0.137,0.134,0.202,0.2c0.067,0,0.202,0.067,0.338,0.067
		C64.026,19.705,64.162,19.638,64.296,19.638"/>
	<path fill="#1A171B" d="M69.069,19.84c-0.333,0.27-0.736,0.47-1.074,0.606c-0.134,0.066-0.337,0.134-0.471,0.134v-0.74
		c0.203,0,0.471-0.067,0.671-0.202c0.271-0.134,0.471-0.404,0.674-0.671c0.068-0.203,0.136-0.541,0.136-1.01V17.62
		c-0.339,0.136-0.874,0.27-1.479,0.337v-0.808c0.605-0.066,1.142-0.202,1.479-0.336v-0.201c0-0.403-0.066-0.741-0.269-0.875
		c-0.271-0.202-0.674-0.335-1.146-0.335h-0.066v-0.808h0.203c0.538,0,0.938,0.066,1.21,0.135c0.337,0.133,0.537,0.268,0.67,0.47
		c0.205,0.203,0.271,0.403,0.338,0.672c0,0.135,0.067,0.471,0.067,0.875v1.347c0,0.94,0,1.479,0.067,1.747
		c0,0.202,0.067,0.47,0.202,0.673h-1.009C69.207,20.31,69.138,20.109,69.069,19.84 M67.524,20.58
		c-0.201,0.067-0.402,0.067-0.604,0.067c-0.606,0-1.144-0.135-1.479-0.472c-0.336-0.269-0.471-0.672-0.471-1.209
		c0-0.271,0.066-0.541,0.2-0.741c0.135-0.269,0.271-0.403,0.471-0.605c0.203-0.135,0.471-0.202,0.74-0.268
		c0.202-0.07,0.472-0.136,0.873-0.203h0.271v0.808H67.39c-0.403,0.066-0.673,0.136-0.875,0.201c-0.135,0.067-0.27,0.202-0.404,0.338
		c-0.065,0.133-0.133,0.268-0.133,0.471c0,0.267,0.133,0.471,0.334,0.671c0.203,0.135,0.472,0.27,0.875,0.27
		c0.066,0,0.203,0,0.337-0.067V20.58z M67.524,15.402c-0.47,0-0.74,0.066-0.94,0.269c-0.202,0.135-0.402,0.401-0.473,0.806
		l-1.007-0.135c0.133-0.403,0.269-0.739,0.471-0.939c0.201-0.271,0.471-0.473,0.874-0.605c0.271-0.136,0.673-0.202,1.075-0.202
		V15.402z"/>
	<path fill="#1A171B" d="M73.643,19.638l0.136,0.875c-0.27,0.067-0.472,0.067-0.738,0.067c-0.338,0-0.607,0-0.809-0.134
		c-0.2-0.137-0.336-0.271-0.403-0.472c-0.069-0.202-0.134-0.537-0.134-1.144v-3.362h-0.742v-0.739h0.742v-1.481l1.008-0.536v2.018
		h0.94v0.739h-0.94v3.43v0.539c0.068,0.066,0.133,0.134,0.2,0.2c0.07,0,0.203,0.067,0.339,0.067
		C73.375,19.705,73.51,19.638,73.643,19.638"/>
	<path fill="#1A171B" d="M74.655,12.51h0.94v1.144h-0.94V12.51z M74.655,14.729h0.94v5.783h-0.94V14.729z"/>
	<path fill="#1A171B" d="M79.497,14.595L79.497,14.595c0.808,0,1.411,0.268,1.95,0.806c0.47,0.471,0.74,1.211,0.74,2.154
		c0,0.738-0.069,1.344-0.338,1.747c-0.202,0.402-0.538,0.74-0.941,1.009c-0.472,0.2-0.938,0.337-1.411,0.337v-0.807
		c0.473,0,0.873-0.203,1.209-0.539c0.336-0.403,0.471-0.94,0.471-1.682c0-0.74-0.135-1.278-0.471-1.682
		c-0.336-0.335-0.736-0.538-1.209-0.538V14.595z M76.739,17.62c0-1.076,0.336-1.883,0.94-2.421c0.471-0.402,1.075-0.604,1.816-0.604
		V15.4c-0.54,0-0.942,0.203-1.213,0.538c-0.335,0.403-0.538,0.941-0.538,1.682c0,0.741,0.203,1.278,0.538,1.682
		c0.271,0.336,0.673,0.539,1.213,0.539v0.807c-0.809,0-1.48-0.27-2.019-0.74C77.009,19.369,76.739,18.629,76.739,17.62"/>
	<path fill="#1A171B" d="M83.329,20.513V14.73h0.941v0.806c0.403-0.605,1.009-0.941,1.815-0.941c0.336,0,0.673,0.068,0.941,0.203
		c0.337,0.133,0.538,0.268,0.673,0.471c0.135,0.201,0.27,0.47,0.336,0.738c0,0.203,0.067,0.471,0.067,0.94v3.566h-1.009v-3.496
		c0-0.404-0.067-0.741-0.136-0.943c-0.064-0.202-0.201-0.336-0.402-0.47c-0.202-0.135-0.403-0.135-0.674-0.135
		c-0.402,0-0.807,0.135-1.075,0.337c-0.336,0.268-0.472,0.807-0.472,1.547v3.16H83.329z"/>
	<polygon fill="#1A171B" points="212.391,8.003 212.391,0 217.772,0 217.772,0.94 213.468,0.94 213.468,3.43 217.232,3.43 
		217.232,4.371 213.468,4.371 213.468,8.003 	"/>
	<path fill="#1A171B" d="M222.816,7.262c-0.336,0.338-0.672,0.54-1.01,0.674c-0.2,0.067-0.336,0.135-0.537,0.135V7.329
		c0.27,0,0.471-0.067,0.672-0.2c0.271-0.202,0.539-0.403,0.674-0.673c0.065-0.269,0.135-0.605,0.135-1.009V5.112
		c-0.337,0.133-0.809,0.2-1.479,0.335V4.641c0.672-0.137,1.144-0.202,1.479-0.335V4.035c0-0.402-0.068-0.673-0.27-0.806
		c-0.27-0.271-0.605-0.338-1.145-0.338h-0.066V2.084h0.201c0.539,0,0.941,0.067,1.21,0.136c0.338,0.135,0.54,0.27,0.74,0.47
		c0.136,0.135,0.202,0.402,0.269,0.673c0.068,0.135,0.068,0.471,0.068,0.874v1.346c0,0.874,0,1.479,0.065,1.747
		c0,0.203,0.138,0.473,0.271,0.674h-1.076C222.951,7.802,222.883,7.532,222.816,7.262 M221.269,8.07
		c-0.201,0.066-0.403,0.066-0.605,0.066c-0.604,0-1.077-0.134-1.411-0.471c-0.337-0.337-0.539-0.739-0.539-1.21
		c0-0.269,0.067-0.538,0.202-0.739c0.134-0.27,0.27-0.472,0.472-0.604c0.271-0.137,0.471-0.271,0.74-0.338
		c0.199,0,0.471-0.067,0.873-0.134h0.27v0.807h-0.134c-0.404,0.068-0.674,0.135-0.875,0.202c-0.134,0.067-0.271,0.201-0.339,0.337
		c-0.133,0.134-0.133,0.269-0.133,0.47c0,0.27,0.067,0.471,0.271,0.673c0.201,0.133,0.471,0.2,0.874,0.2h0.336L221.269,8.07
		L221.269,8.07z M221.269,2.892c-0.403,0-0.739,0.067-0.942,0.2c-0.199,0.203-0.404,0.473-0.47,0.876l-1.008-0.135
		c0.134-0.403,0.267-0.741,0.47-1.009c0.202-0.203,0.471-0.403,0.874-0.538c0.337-0.135,0.673-0.202,1.076-0.202V2.892z"/>
	<path fill="#1A171B" d="M229.07,5.851l0.943,0.135c-0.068,0.673-0.339,1.211-0.81,1.614c-0.403,0.335-0.94,0.538-1.612,0.538
		c-0.74,0-1.412-0.271-1.884-0.807c-0.472-0.473-0.74-1.21-0.74-2.22c0-0.607,0.136-1.144,0.338-1.614
		c0.199-0.47,0.537-0.875,0.94-1.076c0.402-0.27,0.873-0.337,1.412-0.337c0.604,0,1.143,0.136,1.546,0.471
		c0.403,0.337,0.606,0.74,0.74,1.347l-0.941,0.134c-0.134-0.404-0.271-0.672-0.47-0.875c-0.271-0.201-0.538-0.269-0.875-0.269
		c-0.472,0-0.875,0.136-1.212,0.539c-0.335,0.337-0.471,0.875-0.471,1.681c0,0.739,0.136,1.344,0.471,1.68
		c0.27,0.338,0.673,0.54,1.146,0.54c0.403,0,0.738-0.135,1.008-0.337C228.87,6.726,229.003,6.389,229.07,5.851"/>
	<path fill="#1A171B" d="M234.853,6.12l1.012,0.135c-0.137,0.604-0.472,1.076-0.875,1.411c-0.404,0.337-1.008,0.472-1.682,0.472
		h-0.067V7.331h0.067c0.402,0,0.674-0.069,0.94-0.27C234.518,6.858,234.72,6.523,234.853,6.12 M233.241,2.084L233.241,2.084
		c0.807,0,1.411,0.271,1.95,0.74c0.471,0.538,0.74,1.278,0.74,2.288V5.38h-2.69V4.504h1.612c0-0.469-0.133-0.806-0.335-1.073
		c-0.336-0.338-0.739-0.539-1.21-0.539h-0.067V2.084L233.241,2.084z M233.241,8.138c-0.808,0-1.479-0.271-1.949-0.807
		c-0.473-0.473-0.741-1.211-0.741-2.152c0-1.01,0.27-1.748,0.741-2.287c0.536-0.537,1.143-0.808,1.949-0.808v0.808
		c-0.403,0-0.808,0.136-1.075,0.403c-0.338,0.336-0.472,0.74-0.538,1.209h1.613V5.38h-1.682c0.067,0.605,0.201,1.075,0.539,1.411
		c0.335,0.338,0.672,0.54,1.143,0.54V8.138L233.241,8.138z"/>
	<path fill="#1A171B" d="M242.589,2.086L242.589,2.086c0.809,0,1.48,0.268,1.949,0.737c0.538,0.539,0.741,1.28,0.741,2.221
		c0,0.738-0.069,1.277-0.336,1.749c-0.203,0.403-0.539,0.739-0.943,1.009c-0.402,0.201-0.874,0.335-1.411,0.335V7.331
		c0.471,0,0.873-0.203,1.21-0.538c0.337-0.402,0.472-0.942,0.472-1.749c0-0.674-0.135-1.211-0.472-1.614
		c-0.337-0.337-0.739-0.538-1.21-0.538V2.086L242.589,2.086z M239.833,5.111c0-1.075,0.336-1.882,0.939-2.422
		c0.472-0.403,1.076-0.604,1.816-0.604v0.806c-0.471,0-0.874,0.201-1.212,0.538c-0.335,0.336-0.469,0.94-0.469,1.682
		c0,0.739,0.134,1.279,0.469,1.682c0.338,0.335,0.741,0.538,1.212,0.538v0.806c-0.807,0-1.479-0.27-1.949-0.806
		C240.1,6.859,239.833,6.053,239.833,5.111"/>
	<path fill="#1A171B" d="M246.422,8.003V2.22h0.941v0.873c0.202-0.403,0.404-0.672,0.604-0.807c0.202-0.135,0.403-0.202,0.605-0.202
		c0.336,0,0.673,0.067,1.009,0.271l-0.336,0.94c-0.202-0.133-0.471-0.202-0.673-0.202c-0.271,0-0.403,0.069-0.605,0.202
		c-0.2,0.135-0.269,0.271-0.336,0.538c-0.136,0.336-0.202,0.74-0.202,1.144v3.026H246.422z"/>
	<path fill="#1A171B" d="M255.77,2.084h0.135c0.336,0,0.673,0.067,1.009,0.202c0.338,0.135,0.538,0.336,0.809,0.605
		c0.2,0.271,0.336,0.538,0.471,0.941c0.068,0.336,0.136,0.74,0.136,1.144c0,1.01-0.203,1.814-0.741,2.354
		c-0.47,0.538-1.075,0.806-1.749,0.806h-0.066V7.331c0.404,0,0.808-0.202,1.078-0.54c0.335-0.4,0.471-0.941,0.471-1.679
		c0-0.807-0.136-1.347-0.405-1.683c-0.336-0.403-0.673-0.538-1.144-0.538V2.084H255.77z M254.225,8.003h-0.942V0h1.008v2.824
		c0.403-0.47,0.876-0.74,1.479-0.74v0.808c-0.403,0-0.807,0.201-1.076,0.538c-0.335,0.403-0.469,0.941-0.469,1.614
		c0,0.738,0.064,1.209,0.269,1.547c0.335,0.471,0.74,0.74,1.276,0.74v0.806c-0.672,0-1.145-0.335-1.545-0.875V8.003z"/>
	<path fill="#1A171B" d="M259.537,8.003V2.22h0.875v0.873c0.27-0.403,0.471-0.672,0.605-0.807c0.2-0.135,0.402-0.202,0.674-0.202
		c0.335,0,0.671,0.067,1.007,0.271l-0.336,0.94c-0.27-0.133-0.471-0.202-0.741-0.202c-0.2,0-0.401,0.069-0.537,0.202
		c-0.201,0.135-0.336,0.271-0.402,0.538c-0.136,0.336-0.136,0.74-0.136,1.144v3.026H259.537z"/>
	<path fill="#1A171B" d="M265.658,2.086L265.658,2.086c0.808,0,1.412,0.268,1.95,0.737c0.47,0.539,0.74,1.28,0.74,2.221
		c0,0.738-0.137,1.277-0.336,1.749c-0.203,0.403-0.538,0.739-0.942,1.009c-0.471,0.201-0.941,0.335-1.412,0.335V7.331
		c0.471,0,0.874-0.203,1.209-0.538c0.337-0.402,0.472-0.942,0.472-1.749c0-0.674-0.135-1.211-0.472-1.614
		c-0.335-0.337-0.738-0.538-1.209-0.538V2.086L265.658,2.086z M262.9,5.111c0-1.075,0.337-1.882,0.94-2.422
		c0.471-0.403,1.075-0.604,1.816-0.604v0.806c-0.538,0-0.941,0.201-1.278,0.538c-0.269,0.336-0.472,0.94-0.472,1.682
		c0,0.739,0.203,1.279,0.472,1.682c0.337,0.335,0.74,0.538,1.278,0.538v0.806c-0.808,0-1.479-0.27-2.017-0.806
		C263.17,6.859,262.9,6.053,262.9,5.111"/>
	<path fill="#1A171B" d="M270.568,8.003l-1.75-5.783h1.009l0.941,3.296l0.337,1.275c0-0.065,0.134-0.47,0.269-1.209l0.941-3.362
		h1.009l0.875,3.362l0.27,1.076l0.338-1.076l1.006-3.362h0.942l-1.815,5.783h-1.009l-0.941-3.497l-0.2-0.94l-1.145,4.438
		L270.568,8.003L270.568,8.003z"/>
	<path fill="#1A171B" d="M216.494,14.595h0.134c0.54,0,0.942,0.135,1.347,0.402c0.337,0.202,0.675,0.606,0.808,1.076
		c0.202,0.471,0.336,0.941,0.336,1.481c0,0.603-0.134,1.142-0.336,1.612c-0.2,0.471-0.538,0.875-0.941,1.144
		c-0.401,0.2-0.808,0.338-1.277,0.338h-0.067V19.84c0.471,0,0.809-0.203,1.145-0.539c0.27-0.403,0.471-0.94,0.471-1.747
		c0-0.741-0.135-1.281-0.471-1.614c-0.336-0.404-0.674-0.607-1.076-0.607h-0.067v-0.738H216.494z M214.073,22.732v-8.003h0.874
		v0.738c0.202-0.269,0.471-0.538,0.74-0.671c0.203-0.136,0.538-0.202,0.807-0.202v0.738c-0.403,0-0.739,0.203-1.076,0.607
		c-0.336,0.401-0.471,0.941-0.471,1.68c0,0.808,0.135,1.346,0.471,1.682c0.271,0.336,0.673,0.539,1.076,0.539v0.808
		c-0.269,0-0.538-0.07-0.807-0.203c-0.271-0.135-0.472-0.338-0.673-0.538v2.825H214.073z"/>
	<path fill="#1A171B" d="M220.26,20.513V14.73h0.875v0.874c0.27-0.404,0.47-0.674,0.672-0.807c0.202-0.135,0.404-0.203,0.605-0.203
		c0.335,0,0.673,0.068,1.009,0.336l-0.336,0.876c-0.199-0.135-0.471-0.202-0.74-0.202c-0.2,0-0.402,0.067-0.538,0.202
		c-0.202,0.133-0.335,0.268-0.402,0.536c-0.067,0.338-0.135,0.741-0.135,1.146v3.025H220.26z"/>
	<path fill="#1A171B" d="M227.994,18.629l1.01,0.135c-0.135,0.605-0.47,1.076-0.873,1.412c-0.404,0.337-1.01,0.472-1.684,0.472
		h-0.065V19.84h0.065c0.404,0,0.674-0.067,0.942-0.268C227.659,19.369,227.858,19.1,227.994,18.629 M226.381,14.595L226.381,14.595
		c0.808,0,1.411,0.268,1.95,0.808c0.47,0.469,0.74,1.277,0.74,2.219v0.269h-2.69v-0.808h1.612c0-0.538-0.136-0.873-0.335-1.144
		c-0.337-0.336-0.741-0.536-1.212-0.536h-0.065V14.595L226.381,14.595z M226.381,20.647c-0.809,0-1.479-0.27-1.95-0.808
		c-0.47-0.471-0.741-1.211-0.741-2.151c0-1.009,0.271-1.75,0.741-2.286c0.537-0.54,1.143-0.808,1.95-0.808v0.808
		c-0.402,0-0.809,0.133-1.075,0.469c-0.338,0.27-0.472,0.673-0.538,1.211h1.613v0.808h-1.683c0.068,0.605,0.203,1.144,0.539,1.479
		c0.335,0.271,0.671,0.471,1.144,0.471V20.647z"/>
	<path fill="#1A171B" d="M229.877,18.764l0.94-0.135c0.067,0.404,0.203,0.673,0.474,0.875c0.269,0.269,0.604,0.336,1.074,0.336
		c0.402,0,0.74-0.067,1.01-0.269c0.201-0.202,0.336-0.404,0.336-0.673c0-0.202-0.135-0.403-0.336-0.473
		c-0.135-0.133-0.472-0.2-1.01-0.333c-0.738-0.203-1.21-0.337-1.479-0.473c-0.269-0.135-0.472-0.336-0.672-0.605
		c-0.136-0.201-0.202-0.471-0.202-0.739c0-0.27,0.066-0.537,0.202-0.74c0.134-0.2,0.269-0.403,0.47-0.538
		c0.134-0.135,0.337-0.2,0.606-0.27c0.269-0.133,0.604-0.133,0.874-0.133c0.47,0,0.873,0.066,1.21,0.202
		c0.336,0.134,0.606,0.268,0.739,0.538c0.2,0.2,0.271,0.471,0.338,0.874l-0.943,0.133c-0.066-0.27-0.2-0.536-0.402-0.672
		c-0.202-0.201-0.472-0.268-0.874-0.268c-0.473,0-0.74,0.066-0.94,0.2c-0.203,0.136-0.338,0.336-0.338,0.538
		c0,0.135,0.067,0.269,0.135,0.336c0.067,0.135,0.203,0.203,0.403,0.27c0.067,0.067,0.403,0.136,0.874,0.269
		c0.673,0.202,1.144,0.338,1.413,0.471c0.336,0.067,0.536,0.271,0.674,0.472c0.133,0.269,0.268,0.538,0.268,0.875
		c0,0.335-0.135,0.604-0.335,0.94c-0.202,0.271-0.472,0.47-0.809,0.674c-0.336,0.134-0.739,0.201-1.211,0.201
		c-0.807,0-1.345-0.135-1.747-0.472C230.215,19.84,229.943,19.437,229.877,18.764"/>
	<path fill="#1A171B" d="M239.831,18.629l1.011,0.135c-0.135,0.605-0.471,1.076-0.875,1.412c-0.402,0.337-1.009,0.472-1.683,0.472
		h-0.064V19.84h0.064c0.403,0,0.674-0.067,0.941-0.268C239.495,19.369,239.698,19.1,239.831,18.629 M238.218,14.595L238.218,14.595
		c0.808,0,1.412,0.268,1.949,0.808c0.472,0.469,0.741,1.277,0.741,2.219v0.269h-2.69v-0.808h1.612c0-0.538-0.133-0.873-0.336-1.144
		c-0.335-0.336-0.738-0.536-1.211-0.536h-0.065V14.595z M238.218,20.647c-0.809,0-1.479-0.27-1.95-0.808
		c-0.472-0.471-0.741-1.211-0.741-2.151c0-1.009,0.271-1.75,0.741-2.286c0.538-0.54,1.143-0.808,1.95-0.808v0.808
		c-0.404,0-0.809,0.133-1.077,0.469c-0.335,0.27-0.471,0.673-0.536,1.211h1.613v0.808h-1.682c0.067,0.605,0.201,1.144,0.538,1.479
		c0.335,0.271,0.672,0.471,1.144,0.471V20.647L238.218,20.647z"/>
	<path fill="#1A171B" d="M242.119,20.513V14.73h0.875v0.806c0.403-0.605,1.007-0.941,1.814-0.941c0.402,0,0.673,0.068,1.009,0.203
		c0.27,0.133,0.471,0.268,0.673,0.471c0.136,0.201,0.201,0.47,0.269,0.738c0.069,0.203,0.069,0.471,0.069,0.94v3.566h-1.011v-3.496
		c0-0.404,0-0.741-0.065-0.943c-0.138-0.202-0.271-0.336-0.472-0.47c-0.137-0.135-0.403-0.135-0.674-0.135
		c-0.403,0-0.738,0.135-1.076,0.337c-0.271,0.268-0.471,0.807-0.471,1.547v3.16H242.119z"/>
	<path fill="#1A171B" d="M250.458,19.638l0.133,0.875c-0.268,0.067-0.47,0.067-0.737,0.067c-0.337,0-0.607,0-0.809-0.134
		c-0.199-0.137-0.336-0.271-0.402-0.472c-0.067-0.202-0.136-0.537-0.136-1.144v-3.362h-0.738v-0.739h0.738v-1.481l1.01-0.536v2.018
		h0.941v0.739h-0.941v3.43v0.539c0.065,0.066,0.135,0.134,0.201,0.2c0.067,0,0.202,0.067,0.337,0.067S250.324,19.638,250.458,19.638
		"/>
	<path fill="#1A171B" d="M255.234,19.84c-0.337,0.27-0.74,0.47-1.076,0.606c-0.134,0.066-0.338,0.134-0.471,0.134v-0.74
		c0.2,0,0.471-0.067,0.671-0.202c0.269-0.134,0.471-0.404,0.605-0.671c0.135-0.203,0.2-0.541,0.2-1.01V17.62
		c-0.336,0.136-0.874,0.27-1.478,0.337v-0.808c0.604-0.066,1.142-0.202,1.478-0.336v-0.201c0-0.403-0.065-0.741-0.268-0.875
		c-0.271-0.202-0.672-0.335-1.146-0.335h-0.064v-0.808h0.2c0.538,0,0.94,0.066,1.211,0.135c0.337,0.133,0.537,0.268,0.672,0.47
		c0.203,0.203,0.27,0.403,0.338,0.672c0,0.135,0.065,0.471,0.065,0.875v1.347c0,0.94,0,1.479,0.066,1.747
		c0,0.202,0.069,0.47,0.203,0.673h-1.009C255.299,20.31,255.234,20.109,255.234,19.84 M253.687,20.58
		c-0.202,0.067-0.404,0.067-0.605,0.067c-0.604,0-1.144-0.135-1.479-0.472c-0.336-0.269-0.472-0.672-0.472-1.209
		c0-0.271,0.067-0.541,0.202-0.741c0.133-0.269,0.27-0.403,0.472-0.605c0.199-0.135,0.471-0.202,0.739-0.268
		c0.2-0.07,0.472-0.136,0.873-0.203h0.271v0.808h-0.137c-0.401,0.066-0.672,0.136-0.873,0.201c-0.135,0.067-0.271,0.202-0.403,0.338
		c-0.067,0.133-0.135,0.268-0.135,0.471c0,0.267,0.135,0.471,0.337,0.671c0.201,0.135,0.47,0.27,0.874,0.27
		c0.065,0,0.2,0,0.337-0.067L253.687,20.58L253.687,20.58z M253.687,15.402c-0.473,0-0.741,0.066-0.943,0.269
		c-0.2,0.135-0.403,0.401-0.47,0.806l-1.009-0.135c0.135-0.403,0.268-0.739,0.471-0.939c0.202-0.271,0.471-0.473,0.875-0.605
		c0.269-0.136,0.672-0.202,1.076-0.202V15.402z"/>
	<path fill="#1A171B" d="M259.806,19.638l0.135,0.875c-0.271,0.067-0.47,0.067-0.739,0.067c-0.337,0-0.605,0-0.807-0.134
		c-0.202-0.137-0.338-0.271-0.403-0.472c-0.069-0.202-0.137-0.537-0.137-1.144v-3.362h-0.738v-0.739h0.738v-1.481l1.01-0.536v2.018
		h0.941v0.739h-0.941v3.43v0.539c0.066,0.066,0.133,0.134,0.2,0.2c0.068,0,0.203,0.067,0.338,0.067
		C259.537,19.705,259.671,19.638,259.806,19.638"/>
	<path fill="#1A171B" d="M260.815,12.51h0.939v1.144h-0.939V12.51z M260.815,14.729h0.939v5.783h-0.939V14.729z"/>
	<path fill="#1A171B" d="M265.658,14.595L265.658,14.595c0.808,0,1.412,0.268,1.95,0.806c0.47,0.471,0.74,1.211,0.74,2.154
		c0,0.738-0.068,1.344-0.336,1.747c-0.203,0.402-0.538,0.74-0.942,1.009c-0.471,0.2-0.941,0.337-1.412,0.337v-0.807
		c0.471,0,0.874-0.203,1.209-0.539c0.337-0.403,0.472-0.94,0.472-1.682c0-0.74-0.135-1.278-0.472-1.682
		c-0.335-0.335-0.738-0.538-1.209-0.538V14.595L265.658,14.595z M262.9,17.62c0-1.076,0.337-1.883,0.94-2.421
		c0.471-0.402,1.075-0.604,1.816-0.604V15.4c-0.538,0-0.941,0.203-1.211,0.538c-0.336,0.403-0.539,0.941-0.539,1.682
		c0,0.741,0.203,1.278,0.539,1.682c0.27,0.336,0.673,0.539,1.211,0.539v0.807c-0.808,0-1.479-0.27-2.017-0.74
		C263.17,19.369,262.9,18.629,262.9,17.62"/>
	<path fill="#1A171B" d="M269.492,20.513V14.73h0.94v0.806c0.403-0.605,1.009-0.941,1.814-0.941c0.338,0,0.675,0.068,0.942,0.203
		c0.336,0.133,0.538,0.268,0.672,0.471c0.135,0.201,0.271,0.47,0.337,0.738c0,0.203,0.067,0.471,0.067,0.94v3.566h-1.01v-3.496
		c0-0.404-0.066-0.741-0.135-0.943c-0.065-0.202-0.2-0.336-0.403-0.47c-0.2-0.135-0.403-0.135-0.673-0.135
		c-0.402,0-0.808,0.135-1.075,0.337c-0.338,0.268-0.472,0.807-0.472,1.547v3.16H269.492z"/>
	<path fill="none" stroke="#1A171B" stroke-width="2.712" d="M216.964,197.528c-28.381-63.76-35.376-106.398-19.839-128.39
		c17.891-25.222,42.304-32.014,65.707-23.809c27.508,9.685,40.219,37.999,27.171,83.8c-6.656,23.336-17.351,45.192-26.026,67.86"/>
	<path fill="none" stroke="#1A171B" stroke-width="2.712" d="M32.485,197.933C4.102,134.175-2.892,91.468,12.712,69.542
		c17.821-25.222,42.234-32.013,65.64-23.81c27.509,9.686,40.22,37.933,27.173,83.8c-6.658,23.338-17.354,45.195-26.029,67.861"/>
	<path fill="none" stroke="#1A171B" stroke-width="1.019" d="M46.675,58.78c15.806-6.995,33.156-5.851,47.551,8.475
		c19.1,19.034,12.308,50.239-26.096,93.35c13.987,17.822,16.61,31.406-5.649,35.646"/>
	<path fill="none" stroke="#1A171B" stroke-width="1.019" d="M31.341,179.302c-0.939-10.761,1.884-18.494,8.541-23.136"/>
	
		<line fill="none" stroke="#1A171B" stroke-width="0.678" stroke-dasharray="3.391,2.034" x1="26.296" y1="162.286" x2="82.859" y2="185.489"/>
	<path fill="none" stroke="#1A171B" stroke-width="1.019" d="M223.018,55.553c13.249-8.744,26.969-9.686,39.68-0.604
		c12.31,8.674,18.091,22.261,17.353,38.47c-0.739,14.728-8.003,27.038-21.79,39.749c-9.617,8.811-14.124,20.039-17.352,29.995
		c17.621-12.712,36.385,6.187,19.906,26.297"/>
	
		<line fill="none" stroke="#1A171B" stroke-width="0.678" stroke-dasharray="3.391,2.034" x1="262.43" y1="155.562" x2="216.562" y2="197.394"/>
	<path fill="#1A171B" d="M3.161,215.483h0.067c0.604,0,1.144,0.137,1.613,0.472c0.538,0.269,0.875,0.672,1.145,1.212
		c0.268,0.536,0.403,1.143,0.403,1.814s-0.137,1.278-0.403,1.815c-0.27,0.538-0.674,0.94-1.145,1.21
		c-0.537,0.27-1.075,0.404-1.682,0.404v-0.74c0.673,0,1.211-0.27,1.682-0.74c0.404-0.471,0.605-1.143,0.605-1.949
		c0-0.537-0.067-1.008-0.269-1.412c-0.136-0.471-0.404-0.74-0.808-1.008c-0.336-0.203-0.74-0.338-1.144-0.338H3.161V215.483z
		 M0,219.049c0-1.143,0.271-2.018,0.875-2.623c0.605-0.604,1.346-0.94,2.287-0.94v0.738c-0.604,0.068-1.143,0.271-1.547,0.674
		c-0.472,0.402-0.74,1.144-0.74,2.151c0,0.81,0.269,1.479,0.672,1.884c0.472,0.471,1.01,0.739,1.614,0.739v0.74
		c-0.604,0-1.143-0.136-1.681-0.472c-0.472-0.27-0.875-0.672-1.076-1.209C0.135,220.19,0,219.653,0,219.049"/>
	<path fill="#1A171B" d="M10.56,220.528l0.807,0.135c-0.067,0.537-0.271,0.941-0.674,1.277c-0.335,0.336-0.806,0.472-1.344,0.472
		c-0.607,0-1.145-0.201-1.548-0.672c-0.402-0.404-0.605-1.011-0.605-1.817c0-0.535,0.068-1.009,0.203-1.41
		c0.202-0.404,0.471-0.675,0.807-0.875c0.403-0.203,0.74-0.271,1.145-0.271c0.538,0,1.009,0.136,1.344,0.403
		c0.336,0.27,0.54,0.604,0.605,1.076l-0.807,0.135c-0.067-0.336-0.203-0.537-0.403-0.738c-0.201-0.137-0.403-0.203-0.673-0.203
		c-0.402,0-0.739,0.135-1.01,0.404c-0.268,0.334-0.402,0.807-0.402,1.412c0,0.672,0.136,1.143,0.402,1.412
		c0.203,0.336,0.54,0.472,0.943,0.472c0.336,0,0.604-0.136,0.804-0.269C10.358,221.269,10.56,220.933,10.56,220.528"/>
	<path fill="#1A171B" d="M15.267,220.528l0.809,0.135c-0.067,0.537-0.338,0.941-0.676,1.277c-0.402,0.336-0.806,0.472-1.345,0.472
		c-0.673,0-1.208-0.201-1.612-0.672c-0.403-0.404-0.605-1.011-0.605-1.817c0-0.535,0.067-1.009,0.269-1.41
		c0.203-0.404,0.402-0.675,0.809-0.875c0.336-0.203,0.739-0.271,1.142-0.271c0.539,0,0.941,0.136,1.278,0.403
		c0.338,0.27,0.539,0.604,0.674,1.076l-0.808,0.135c-0.066-0.336-0.203-0.537-0.403-0.738c-0.202-0.137-0.471-0.203-0.741-0.203
		c-0.401,0-0.737,0.135-1.009,0.404c-0.199,0.334-0.335,0.807-0.335,1.412c0,0.672,0.067,1.143,0.335,1.412
		c0.271,0.336,0.606,0.472,1.009,0.472c0.271,0,0.539-0.136,0.809-0.269C15.067,221.269,15.201,220.933,15.267,220.528"/>
	<path fill="#1A171B" d="M16.746,215.62h0.876v0.939h-0.876V215.62z M16.746,217.435h0.876v4.842h-0.876V217.435z"/>
	<path fill="#1A171B" d="M20.916,217.367h0.068c0.402,0,0.806,0.067,1.076,0.271c0.335,0.27,0.604,0.537,0.738,0.94
		c0.137,0.403,0.27,0.807,0.27,1.278s-0.133,0.94-0.27,1.345c-0.201,0.405-0.472,0.673-0.805,0.874
		c-0.338,0.201-0.674,0.337-1.079,0.337v-0.673c0.336,0,0.673-0.133,0.874-0.471c0.271-0.338,0.405-0.809,0.405-1.412
		c0-0.604-0.135-1.075-0.405-1.412c-0.201-0.271-0.538-0.471-0.874-0.471L20.916,217.367L20.916,217.367z M18.831,224.159v-6.725
		h0.742v0.672c0.199-0.27,0.401-0.469,0.604-0.604c0.2-0.067,0.471-0.135,0.738-0.135v0.606c-0.335,0-0.671,0.2-0.94,0.537
		c-0.269,0.271-0.401,0.74-0.401,1.411c0,0.604,0.134,1.075,0.401,1.347c0.271,0.338,0.539,0.471,0.874,0.471h0.066v0.673
		c-0.269,0-0.538-0.067-0.738-0.201c-0.202-0.067-0.404-0.203-0.536-0.403v2.353L18.831,224.159L18.831,224.159z"/>
	<path fill="#1A171B" d="M27.238,222.276v-0.67c-0.403,0.535-0.941,0.806-1.545,0.806c-0.338,0-0.607-0.067-0.81-0.136
		c-0.27-0.135-0.471-0.27-0.537-0.471c-0.135-0.135-0.202-0.334-0.269-0.604c-0.069-0.136-0.069-0.403-0.069-0.74v-3.026h0.809v2.69
		c0,0.472,0.066,0.74,0.066,0.873c0.067,0.203,0.135,0.403,0.338,0.539c0.134,0.135,0.335,0.135,0.604,0.135
		c0.271,0,0.471,0,0.673-0.135c0.27-0.136,0.403-0.336,0.47-0.539c0.137-0.2,0.137-0.537,0.137-0.94v-2.623h0.807v4.844h-0.673
		V222.276z"/>
	<path fill="#1A171B" d="M31.004,221.537l0.136,0.739c-0.201,0.067-0.403,0.067-0.605,0.067c-0.336,0-0.538,0-0.739-0.135
		c-0.135-0.067-0.268-0.202-0.337-0.336c-0.066-0.202-0.066-0.472-0.066-1.009v-2.758h-0.604v-0.674h0.604v-1.209l0.808-0.473v1.682
		h0.807v0.674h-0.807v2.826c0,0.199,0,0.402,0.067,0.469c0,0.068,0.067,0.068,0.136,0.135c0.064,0.066,0.133,0.066,0.268,0.066
		C30.736,221.604,30.871,221.604,31.004,221.537"/>
	<line fill="none" stroke="#1A171B" stroke-width="0.586" x1="34.838" y1="222.276" x2="34.838" y2="215.62"/>
	<path fill="#1A171B" d="M38.471,217.368L38.471,217.368c0.672,0,1.209,0.201,1.611,0.605c0.403,0.471,0.674,1.073,0.674,1.814
		c0,0.672-0.136,1.143-0.339,1.479c-0.132,0.403-0.399,0.674-0.807,0.875c-0.334,0.201-0.737,0.27-1.141,0.27v-0.674
		c0.402,0,0.735-0.133,1.009-0.471c0.269-0.336,0.402-0.808,0.402-1.412s-0.135-1.074-0.402-1.345
		c-0.272-0.337-0.605-0.472-1.009-0.472L38.471,217.368L38.471,217.368z M36.184,219.854c0-0.873,0.269-1.547,0.738-1.949
		c0.402-0.403,0.942-0.537,1.549-0.537v0.672c-0.404,0-0.741,0.135-1.012,0.473c-0.268,0.27-0.401,0.739-0.401,1.344
		c0,0.672,0.135,1.076,0.401,1.412c0.271,0.338,0.606,0.472,1.012,0.472v0.673c-0.676,0-1.215-0.202-1.683-0.673
		C36.385,221.336,36.184,220.663,36.184,219.854"/>
	<path fill="#1A171B" d="M42.573,222.276l-1.48-4.842h0.877l0.737,2.824l0.271,1.01c0.065,0,0.135-0.338,0.267-0.94l0.811-2.894
		h0.808l0.737,2.824l0.269,0.941l0.271-0.941l0.807-2.824h0.806l-1.546,4.842h-0.808l-0.808-2.893l-0.199-0.807l-0.943,3.699H42.573
		L42.573,222.276z"/>
	<path fill="#1A171B" d="M51.72,220.729l0.875,0.136c-0.138,0.471-0.403,0.875-0.742,1.143c-0.336,0.271-0.808,0.404-1.411,0.404
		v-0.672c0.335,0,0.604-0.069,0.808-0.269C51.45,221.336,51.653,221.065,51.72,220.729 M50.442,217.367L50.442,217.367
		c0.604,0,1.143,0.202,1.546,0.673c0.404,0.404,0.673,1.009,0.673,1.816c0,0.065-0.064,0.134-0.064,0.201h-2.153v-0.672h1.346
		c-0.066-0.404-0.135-0.674-0.338-0.875c-0.27-0.337-0.604-0.472-1.008-0.472L50.442,217.367L50.442,217.367z M50.442,222.412
		c-0.741,0-1.279-0.201-1.684-0.672c-0.4-0.404-0.604-1.011-0.604-1.817s0.203-1.479,0.604-1.883
		c0.472-0.471,1.011-0.673,1.684-0.673v0.673c-0.405,0-0.741,0.135-0.943,0.336c-0.269,0.271-0.402,0.605-0.469,1.012h1.412v0.67
		H49.03c0,0.539,0.133,0.941,0.403,1.278c0.268,0.269,0.604,0.404,1.009,0.404V222.412z"/>
	<path fill="#1A171B" d="M53.602,222.276v-4.842h0.742v0.739c0.199-0.337,0.4-0.536,0.536-0.673
		c0.134-0.066,0.335-0.134,0.536-0.134c0.271,0,0.538,0.065,0.812,0.271l-0.272,0.739c-0.2-0.137-0.402-0.203-0.604-0.203
		c-0.137,0-0.338,0.066-0.472,0.203c-0.136,0.065-0.271,0.269-0.271,0.403c-0.133,0.335-0.202,0.604-0.202,1.008v2.488H53.602
		L53.602,222.276z"/>
	<path fill="#1A171B" d="M61.135,221.537l0.134,0.739c-0.269,0.067-0.47,0.067-0.671,0.067c-0.271,0-0.472,0-0.674-0.135
		c-0.135-0.067-0.269-0.202-0.336-0.336c-0.065-0.202-0.135-0.472-0.135-1.009v-2.758h-0.538v-0.674h0.538v-1.209l0.874-0.473v1.682
		h0.808v0.674h-0.808v2.826v0.469l0.135,0.135c0.067,0.066,0.202,0.066,0.337,0.066C60.865,221.604,61,221.604,61.135,221.537"/>
	<path fill="#1A171B" d="M61.942,222.276v-6.656h0.808v2.42c0.403-0.471,0.874-0.672,1.479-0.672c0.337,0,0.672,0.066,0.94,0.201
		c0.202,0.134,0.404,0.336,0.538,0.604c0.135,0.203,0.201,0.606,0.201,1.077v3.025h-0.873v-3.025c0-0.402-0.066-0.74-0.27-0.943
		c-0.136-0.134-0.403-0.269-0.741-0.269c-0.269,0-0.471,0.067-0.673,0.201c-0.2,0.137-0.403,0.271-0.47,0.54
		c-0.066,0.199-0.135,0.471-0.135,0.873v2.623H61.942L61.942,222.276z"/>
	<path fill="#1A171B" d="M70.283,221.672c-0.27,0.271-0.608,0.472-0.874,0.604c-0.135,0-0.271,0.067-0.404,0.067v-0.604
		c0.202,0,0.337-0.067,0.537-0.202c0.271-0.136,0.403-0.336,0.539-0.539c0.064-0.2,0.135-0.47,0.135-0.806v-0.338
		c-0.271,0.136-0.674,0.203-1.211,0.338v-0.74c0.537-0.067,0.94-0.135,1.211-0.2v-0.271c0-0.336-0.069-0.537-0.201-0.674
		c-0.201-0.201-0.539-0.269-0.942-0.269h-0.066v-0.672h0.202c0.4,0,0.738,0,1.009,0.134c0.202,0.068,0.402,0.201,0.537,0.336
		c0.137,0.202,0.201,0.337,0.27,0.605v0.74v1.075c0,0.806,0.066,1.277,0.066,1.479c0.068,0.201,0.137,0.402,0.203,0.537h-0.81
		C70.348,222.144,70.283,221.94,70.283,221.672 M69.004,222.345c-0.2,0.067-0.337,0.067-0.471,0.067
		c-0.539,0-0.942-0.136-1.277-0.404c-0.27-0.269-0.403-0.606-0.403-1.01c0-0.2,0.066-0.401,0.135-0.604
		c0.135-0.201,0.27-0.402,0.471-0.471c0.134-0.134,0.334-0.199,0.537-0.27c0.2-0.066,0.403-0.135,0.739-0.135l0.271-0.066v0.74
		h-0.134c-0.337,0.066-0.538,0.066-0.74,0.136c-0.136,0.065-0.201,0.133-0.27,0.269c-0.069,0.135-0.134,0.27-0.134,0.401
		c0,0.203,0.063,0.403,0.268,0.539c0.136,0.135,0.403,0.202,0.673,0.202h0.337L69.004,222.345L69.004,222.345z M69.004,218.04
		c-0.402,0-0.605,0.066-0.81,0.201c-0.2,0.137-0.334,0.337-0.403,0.74l-0.805-0.133c0.067-0.338,0.2-0.607,0.334-0.875
		c0.203-0.203,0.406-0.336,0.742-0.473c0.27-0.066,0.604-0.134,0.94-0.134L69.004,218.04L69.004,218.04z"/>
	<path fill="#1A171B" d="M72.299,222.276v-4.842h0.741v0.739c0.4-0.536,0.874-0.807,1.546-0.807c0.336,0,0.604,0,0.808,0.134
		c0.27,0.137,0.473,0.27,0.537,0.402c0.136,0.203,0.202,0.404,0.269,0.606c0.067,0.134,0.067,0.402,0.067,0.806v2.961h-0.806v-2.894
		c0-0.337-0.067-0.604-0.136-0.807c-0.067-0.134-0.136-0.271-0.336-0.403c-0.136-0.066-0.337-0.135-0.537-0.135
		c-0.406,0-0.674,0.135-0.94,0.338c-0.271,0.268-0.337,0.67-0.337,1.275v2.623h-0.876V222.276z"/>
	<path fill="#1A171B" d="M80.303,222.276v-4.17h-0.741v-0.672h0.741v-0.472c0-0.337,0.065-0.604,0.065-0.739
		c0.134-0.201,0.27-0.404,0.471-0.537c0.201-0.137,0.472-0.203,0.81-0.203c0.2,0,0.469,0.066,0.738,0.066l-0.066,0.74
		c-0.203,0-0.336-0.066-0.539-0.066c-0.2,0-0.403,0.066-0.471,0.202c-0.135,0.067-0.2,0.269-0.2,0.604v0.402h0.941v0.674h-0.941
		v4.17H80.303L80.303,222.276z"/>
	<path fill="#1A171B" d="M84.674,217.368L84.674,217.368c0.673,0,1.21,0.201,1.614,0.605c0.471,0.471,0.672,1.073,0.672,1.814
		c0,0.672-0.134,1.143-0.269,1.479c-0.2,0.403-0.471,0.674-0.875,0.875c-0.336,0.201-0.739,0.27-1.144,0.27v-0.674
		c0.403,0,0.739-0.133,1.01-0.471c0.269-0.336,0.402-0.808,0.402-1.412s-0.135-1.074-0.402-1.345
		c-0.271-0.337-0.605-0.472-1.01-0.472L84.674,217.368L84.674,217.368z M82.387,219.854c0-0.873,0.271-1.547,0.738-1.949
		c0.473-0.403,0.943-0.537,1.548-0.537v0.672c-0.403,0-0.739,0.135-1.008,0.473c-0.271,0.27-0.402,0.739-0.402,1.344
		c0,0.672,0.133,1.076,0.402,1.412c0.269,0.338,0.604,0.472,1.008,0.472v0.673c-0.673,0-1.211-0.202-1.613-0.673
		C82.588,221.336,82.387,220.663,82.387,219.854"/>
	<path fill="#1A171B" d="M87.903,222.276v-4.842h0.739v0.739c0.202-0.337,0.337-0.536,0.538-0.673
		c0.135-0.066,0.337-0.134,0.471-0.134c0.337,0,0.604,0.065,0.875,0.271l-0.271,0.739c-0.2-0.137-0.402-0.203-0.604-0.203
		c-0.201,0-0.336,0.066-0.471,0.203c-0.137,0.065-0.27,0.269-0.336,0.403c-0.067,0.335-0.136,0.604-0.136,1.008v2.488H87.903
		L87.903,222.276z"/>
	<path fill="#1A171B" d="M94.36,220.729l0.807,0.136c-0.135,0.471-0.402,0.875-0.738,1.143c-0.339,0.271-0.81,0.404-1.413,0.404
		v-0.672h0.066c0.27,0,0.537-0.069,0.74-0.269C94.023,221.336,94.225,221.065,94.36,220.729 M93.014,217.367L93.014,217.367
		c0.604,0,1.143,0.202,1.546,0.673c0.472,0.404,0.674,1.009,0.674,1.816v0.201h-2.22v-0.672h1.346
		c-0.067-0.404-0.135-0.674-0.337-0.875c-0.27-0.337-0.605-0.472-1.009-0.472V217.367z M93.014,222.412
		c-0.74,0-1.279-0.201-1.684-0.672c-0.401-0.404-0.604-1.011-0.604-1.817s0.202-1.479,0.673-1.883
		c0.402-0.471,0.94-0.673,1.614-0.673v0.673c-0.403,0-0.674,0.135-0.941,0.336c-0.271,0.271-0.403,0.605-0.471,1.012h1.412v0.67
		h-1.412c0,0.539,0.133,0.941,0.471,1.278c0.201,0.269,0.538,0.404,0.941,0.404V222.412z"/>
	<path fill="#1A171B" d="M96.243,222.276v-6.656h0.808v2.42c0.337-0.471,0.874-0.672,1.411-0.672c0.404,0,0.675,0.066,0.942,0.201
		c0.267,0.134,0.471,0.336,0.604,0.604c0.067,0.203,0.134,0.606,0.134,1.077v3.025h-0.806v-3.025c0-0.402-0.067-0.74-0.269-0.943
		c-0.202-0.134-0.406-0.269-0.741-0.269c-0.27,0-0.473,0.067-0.673,0.201c-0.268,0.137-0.403,0.271-0.47,0.54
		c-0.135,0.199-0.135,0.471-0.135,0.873v2.623H96.243L96.243,222.276z"/>
	<path fill="#1A171B" d="M104.717,220.729l0.875,0.136c-0.138,0.471-0.402,0.875-0.742,1.143c-0.403,0.271-0.874,0.404-1.411,0.404
		h-0.066v-0.672h0.066c0.337,0,0.537-0.069,0.808-0.269C104.446,221.336,104.582,221.065,104.717,220.729 M103.372,217.367
		L103.372,217.367c0.671,0,1.21,0.202,1.612,0.673c0.405,0.404,0.607,1.009,0.607,1.816v0.201h-2.221v-0.672h1.346
		c0-0.404-0.136-0.674-0.271-0.875c-0.268-0.337-0.604-0.472-1.074-0.472V217.367z M103.372,222.412
		c-0.673,0-1.211-0.201-1.613-0.672c-0.402-0.404-0.604-1.011-0.604-1.817s0.202-1.479,0.604-1.883
		c0.402-0.471,0.94-0.673,1.613-0.673v0.673c-0.337,0-0.673,0.135-0.939,0.336c-0.271,0.271-0.406,0.605-0.406,1.012h1.347v0.67
		h-1.411c0.064,0.539,0.2,0.941,0.472,1.278c0.268,0.269,0.536,0.404,0.939,0.404L103.372,222.412L103.372,222.412z"/>
	<path fill="#1A171B" d="M109.761,221.672c-0.339,0.271-0.607,0.472-0.875,0.604c-0.134,0-0.271,0.067-0.473,0.067v-0.604
		c0.271,0,0.403-0.067,0.605-0.202c0.271-0.136,0.402-0.336,0.538-0.539c0.068-0.2,0.136-0.47,0.136-0.806v-0.338
		c-0.271,0.136-0.674,0.203-1.279,0.338v-0.74c0.605-0.067,1.009-0.135,1.279-0.2v-0.271c0-0.336-0.066-0.537-0.203-0.674
		c-0.27-0.201-0.538-0.269-0.941-0.269h-0.135v-0.672h0.201c0.472,0,0.808,0,1.012,0.134c0.268,0.068,0.471,0.201,0.604,0.336
		c0.135,0.202,0.202,0.337,0.271,0.605v0.74v1.075c0,0.806,0.067,1.277,0.067,1.479c0.065,0.201,0.134,0.402,0.2,0.537h-0.874
		C109.827,222.144,109.761,221.94,109.761,221.672 M108.415,222.345c-0.134,0.067-0.27,0.067-0.471,0.067
		c-0.47,0-0.94-0.136-1.211-0.404s-0.402-0.606-0.402-1.01c0-0.2,0.068-0.401,0.133-0.604c0.138-0.201,0.271-0.402,0.474-0.471
		c0.133-0.134,0.338-0.199,0.538-0.27c0.199-0.066,0.402-0.135,0.739-0.135l0.2-0.066v0.74h-0.066
		c-0.336,0.066-0.604,0.066-0.74,0.136c-0.133,0.065-0.2,0.133-0.269,0.269c-0.136,0.135-0.136,0.27-0.136,0.401
		c0,0.203,0.07,0.403,0.271,0.539c0.133,0.135,0.402,0.202,0.671,0.202h0.27L108.415,222.345L108.415,222.345z M108.415,218.04
		c-0.337,0-0.604,0.066-0.74,0.201c-0.199,0.137-0.335,0.337-0.399,0.74l-0.812-0.133c0.067-0.338,0.202-0.607,0.341-0.875
		c0.199-0.203,0.399-0.336,0.735-0.473c0.271-0.066,0.538-0.134,0.875-0.134V218.04z"/>
	<path fill="#1A171B" d="M114.939,222.276v-0.605c-0.271,0.473-0.74,0.741-1.278,0.741v-0.672c0.338,0,0.673-0.136,0.941-0.472
		c0.202-0.271,0.337-0.74,0.337-1.347s-0.135-1.144-0.403-1.411c-0.202-0.337-0.537-0.472-0.875-0.472v-0.673
		c0.202,0,0.471,0.066,0.673,0.136c0.202,0.136,0.403,0.335,0.539,0.537v-2.422h0.807v6.659H114.939L114.939,222.276z
		 M113.661,222.412h-0.064c-0.405,0-0.741-0.136-1.078-0.338c-0.336-0.2-0.605-0.47-0.739-0.874
		c-0.201-0.402-0.271-0.807-0.271-1.344c0-0.471,0.068-0.875,0.203-1.278c0.2-0.403,0.402-0.74,0.738-0.94
		c0.337-0.203,0.675-0.271,1.078-0.271h0.133v0.673h-0.064c-0.339,0-0.675,0.135-0.876,0.404c-0.271,0.334-0.403,0.807-0.403,1.412
		c0,0.672,0.134,1.143,0.403,1.412c0.269,0.336,0.604,0.472,0.94,0.472V222.412z"/>
	<path fill="#1A171B" d="M185.827,216.224L185.827,216.224c0.605,0,1.209,0.137,1.681,0.471c0.47,0.271,0.875,0.675,1.146,1.212
		c0.267,0.538,0.402,1.143,0.402,1.817c0,0.67-0.137,1.275-0.402,1.813c-0.271,0.538-0.676,0.942-1.212,1.21
		c-0.474,0.271-1.008,0.404-1.613,0.404v-0.738c0.673,0,1.209-0.271,1.681-0.741c0.403-0.471,0.606-1.142,0.606-1.948
		c0-0.539-0.07-1.076-0.271-1.479c-0.2-0.405-0.471-0.675-0.809-0.941c-0.335-0.202-0.739-0.338-1.209-0.338V216.224z
		 M182.666,219.789c0-1.144,0.27-2.017,0.874-2.624c0.605-0.604,1.347-0.941,2.287-0.941v0.74c-0.607,0-1.145,0.27-1.617,0.674
		c-0.402,0.4-0.67,1.143-0.67,2.151c0,0.808,0.202,1.412,0.67,1.883c0.406,0.472,0.943,0.741,1.617,0.741v0.738
		c-0.607,0-1.211-0.135-1.682-0.471c-0.473-0.269-0.876-0.74-1.145-1.209C182.798,220.933,182.666,220.394,182.666,219.789"/>
	<path fill="#1A171B" d="M193.223,221.269l0.81,0.067c-0.068,0.604-0.337,1.009-0.676,1.347c-0.333,0.336-0.804,0.469-1.345,0.469
		c-0.671,0-1.21-0.2-1.613-0.67c-0.403-0.405-0.604-1.01-0.604-1.817c0-0.537,0.134-1.008,0.269-1.411
		c0.2-0.402,0.47-0.674,0.807-0.874c0.337-0.203,0.741-0.271,1.144-0.271c0.541,0,0.94,0.136,1.276,0.404
		c0.34,0.27,0.607,0.603,0.675,1.074l-0.808,0.137c-0.067-0.339-0.203-0.539-0.403-0.742c-0.199-0.133-0.402-0.199-0.672-0.199
		c-0.402,0-0.738,0.133-1.011,0.402c-0.269,0.334-0.401,0.807-0.401,1.412c0,0.672,0.134,1.144,0.334,1.413
		c0.271,0.335,0.607,0.472,1.01,0.472c0.338,0,0.604-0.137,0.809-0.338C193.024,222.01,193.157,221.672,193.223,221.269"/>
	<path fill="#1A171B" d="M197.931,221.269l0.807,0.067c-0.134,0.604-0.336,1.009-0.739,1.347c-0.335,0.336-0.808,0.469-1.277,0.469
		c-0.674,0-1.209-0.2-1.613-0.67c-0.404-0.405-0.606-1.01-0.606-1.817c0-0.537,0.068-1.008,0.271-1.411
		c0.137-0.402,0.402-0.674,0.741-0.874c0.402-0.203,0.737-0.271,1.209-0.271c0.471,0,0.942,0.136,1.277,0.404
		c0.336,0.27,0.538,0.603,0.605,1.074l-0.739,0.137c-0.134-0.339-0.271-0.539-0.404-0.742c-0.199-0.133-0.47-0.199-0.739-0.199
		c-0.402,0-0.738,0.133-1.009,0.402c-0.269,0.334-0.402,0.807-0.402,1.412c0,0.672,0.135,1.144,0.402,1.413
		c0.271,0.335,0.537,0.472,0.94,0.472c0.338,0,0.607-0.137,0.808-0.338C197.731,222.01,197.865,221.672,197.931,221.269"/>
	<path fill="#1A171B" d="M199.411,216.358h0.81v0.94h-0.81V216.358z M199.411,218.175h0.81v4.844h-0.81V218.175z"/>
	<path fill="#1A171B" d="M203.514,218.108h0.136c0.402,0,0.738,0.066,1.074,0.268c0.337,0.271,0.538,0.538,0.738,0.941
		c0.138,0.404,0.203,0.809,0.203,1.279c0,0.469-0.065,0.939-0.27,1.344c-0.135,0.403-0.405,0.672-0.74,0.875
		c-0.336,0.201-0.674,0.334-1.077,0.334h-0.064v-0.67c0.402,0,0.674-0.136,0.94-0.471c0.27-0.338,0.403-0.81,0.403-1.412
		c0-0.676-0.135-1.078-0.403-1.414c-0.268-0.336-0.538-0.471-0.876-0.471h-0.064V218.108L203.514,218.108z M201.496,224.899v-6.725
		h0.741v0.672c0.201-0.269,0.402-0.472,0.604-0.604c0.201-0.067,0.404-0.136,0.674-0.136v0.604c-0.337,0-0.605,0.201-0.875,0.472
		c-0.27,0.336-0.402,0.807-0.402,1.479c0,0.605,0.134,1.076,0.402,1.347c0.201,0.335,0.538,0.472,0.875,0.472v0.67
		c-0.201,0-0.473-0.067-0.674-0.2c-0.201-0.066-0.402-0.271-0.536-0.403v2.354H201.496z"/>
	<path fill="#1A171B" d="M209.834,223.019v-0.674c-0.336,0.539-0.874,0.807-1.545,0.807c-0.27,0-0.538-0.067-0.74-0.2
		c-0.268-0.066-0.472-0.203-0.604-0.403c-0.067-0.134-0.203-0.337-0.203-0.605c-0.065-0.135-0.065-0.403-0.065-0.74v-3.023h0.808
		v2.688c0,0.471,0,0.739,0.066,0.874c0.066,0.201,0.136,0.402,0.337,0.537c0.135,0.068,0.337,0.137,0.604,0.137
		c0.271,0,0.47-0.068,0.673-0.137c0.202-0.135,0.402-0.336,0.474-0.537c0.064-0.202,0.133-0.539,0.133-0.943v-2.619h0.807v4.842
		h-0.743V223.019z"/>
	<path fill="#1A171B" d="M213.668,222.276l0.136,0.74c-0.269,0.066-0.472,0.066-0.605,0.066c-0.336,0-0.538,0-0.739-0.137
		c-0.134-0.064-0.27-0.199-0.335-0.334c-0.066-0.201-0.066-0.471-0.066-1.008v-2.758h-0.607v-0.674h0.607v-1.211l0.806-0.47v1.681
		h0.807v0.674h-0.807v2.823v0.472c0.067,0.066,0.067,0.066,0.135,0.135c0.068,0.066,0.201,0.066,0.336,0.066
		C213.399,222.345,213.536,222.345,213.668,222.276"/>
	<path fill="#1A171B" d="M217.099,223.019v-6.658h0.808v2.42c0.335-0.471,0.875-0.672,1.412-0.672c0.403,0,0.673,0.067,0.94,0.201
		c0.271,0.135,0.474,0.338,0.605,0.537c0.067,0.271,0.135,0.674,0.135,1.145v3.027h-0.808v-3.027c0-0.403-0.067-0.739-0.271-0.941
		c-0.199-0.135-0.4-0.27-0.737-0.27c-0.27,0-0.473,0.066-0.674,0.201c-0.27,0.136-0.402,0.271-0.469,0.539
		c-0.136,0.203-0.136,0.471-0.136,0.873v2.625H217.099L217.099,223.019z"/>
	<path fill="#1A171B" d="M222.278,216.358h0.808v0.94h-0.808V216.358z M222.278,218.175h0.808v4.844h-0.808V218.175z"/>
	<path fill="#1A171B" d="M226.179,224.295c0.337,0,0.604-0.067,0.808-0.201c0.2-0.137,0.335-0.335,0.403-0.606
		c0.066-0.2,0.066-0.536,0.066-1.073c-0.338,0.403-0.741,0.604-1.277,0.604v-0.674c0.402,0,0.739-0.135,0.939-0.402
		c0.271-0.338,0.403-0.741,0.403-1.411c0-0.54-0.133-1.011-0.403-1.347c-0.271-0.271-0.537-0.404-0.939-0.404v-0.672
		c0.536,0,1.008,0.201,1.344,0.672v-0.604h0.74v4.237c0,0.736-0.067,1.275-0.202,1.544c-0.133,0.338-0.403,0.606-0.739,0.742
		c-0.268,0.2-0.673,0.269-1.143,0.269V224.295z M224.162,223.421l0.808,0.135c0.066,0.27,0.135,0.401,0.269,0.538
		c0.201,0.134,0.538,0.201,0.875,0.201h0.067v0.673l-0.067,0.065c-0.605,0-1.076-0.134-1.412-0.403
		C224.362,224.362,224.162,223.957,224.162,223.421 M226.179,223.019h-0.067c-0.674,0-1.212-0.201-1.547-0.674
		c-0.336-0.537-0.539-1.076-0.539-1.748c0-0.471,0.068-0.873,0.271-1.279c0.134-0.402,0.403-0.67,0.673-0.94
		c0.335-0.2,0.738-0.269,1.144-0.269h0.067v0.672c-0.336,0-0.674,0.135-0.942,0.404c-0.269,0.336-0.404,0.737-0.404,1.347
		c0,0.604,0.137,1.073,0.404,1.411c0.27,0.269,0.606,0.402,0.942,0.402L226.179,223.019L226.179,223.019z"/>
	<path fill="#1A171B" d="M229.542,223.019v-6.658h0.81v2.42c0.402-0.471,0.874-0.672,1.478-0.672c0.338,0,0.673,0.067,0.942,0.201
		c0.2,0.135,0.402,0.338,0.538,0.537c0.133,0.271,0.201,0.674,0.201,1.145v3.027h-0.874v-3.027c0-0.403-0.068-0.739-0.269-0.941
		c-0.136-0.135-0.405-0.27-0.741-0.27c-0.202,0-0.471,0.066-0.673,0.201c-0.2,0.136-0.403,0.271-0.471,0.539
		c-0.066,0.203-0.133,0.471-0.133,0.873v2.625H229.542L229.542,223.019z"/>
	<path fill="#1A171B" d="M238.015,221.472l0.875,0.135c-0.137,0.47-0.403,0.875-0.739,1.143c-0.338,0.27-0.809,0.402-1.413,0.402
		h-0.067v-0.67h0.067c0.337,0,0.604-0.068,0.808-0.271C237.747,222.075,237.949,221.808,238.015,221.472 M236.67,218.106h0.067
		c0.604,0,1.144,0.201,1.546,0.605c0.403,0.473,0.606,1.076,0.606,1.885v0.2h-2.221v-0.672h1.413
		c-0.067-0.403-0.202-0.674-0.337-0.874c-0.269-0.338-0.605-0.471-1.009-0.471h-0.067L236.67,218.106L236.67,218.106z
		 M236.67,223.151c-0.672,0-1.21-0.27-1.613-0.672c-0.403-0.404-0.604-1.01-0.604-1.816s0.201-1.479,0.604-1.882
		c0.472-0.474,1.01-0.675,1.613-0.675v0.675c-0.336,0-0.672,0.133-0.874,0.333c-0.269,0.271-0.402,0.607-0.472,1.012h1.346v0.672
		h-1.346c0,0.538,0.136,0.941,0.403,1.277c0.271,0.27,0.605,0.404,0.941,0.404L236.67,223.151L236.67,223.151z"/>
	<path fill="#1A171B" d="M239.898,223.019v-4.843h0.741v0.738c0.199-0.335,0.401-0.538,0.536-0.671
		c0.137-0.135,0.337-0.135,0.539-0.135c0.269,0,0.537,0.066,0.809,0.268l-0.271,0.74c-0.201-0.135-0.403-0.202-0.604-0.202
		c-0.136,0-0.336,0.067-0.473,0.202c-0.135,0.066-0.268,0.201-0.337,0.402c-0.066,0.336-0.133,0.606-0.133,1.012v2.486h-0.808
		V223.019z"/>
	<path fill="#1A171B" d="M247.43,222.276l0.136,0.74c-0.271,0.066-0.471,0.066-0.673,0.066c-0.27,0-0.472,0-0.674-0.137
		c-0.134-0.064-0.268-0.199-0.336-0.334c-0.066-0.201-0.135-0.471-0.135-1.008v-2.758h-0.604v-0.674h0.604v-1.211l0.875-0.47v1.681
		h0.807v0.674h-0.807v2.823v0.472c0.065,0.066,0.065,0.066,0.136,0.135c0.067,0.066,0.2,0.066,0.269,0.066
		C247.163,222.345,247.296,222.345,247.43,222.276"/>
	<path fill="#1A171B" d="M248.239,223.019v-6.658h0.807v2.42c0.403-0.471,0.875-0.672,1.479-0.672c0.337,0,0.673,0.067,0.875,0.201
		c0.268,0.135,0.47,0.338,0.604,0.537c0.134,0.271,0.134,0.674,0.134,1.145v3.027h-0.807v-3.027c0-0.403-0.067-0.739-0.27-0.941
		c-0.134-0.135-0.404-0.27-0.741-0.27c-0.268,0-0.471,0.066-0.671,0.201c-0.202,0.136-0.403,0.271-0.471,0.539
		c-0.067,0.203-0.136,0.471-0.136,0.873v2.625H248.239L248.239,223.019z"/>
	<path fill="#1A171B" d="M256.578,222.413c-0.335,0.268-0.604,0.471-0.875,0.604c-0.133,0-0.268,0.065-0.469,0.065v-0.603
		c0.269,0,0.402-0.067,0.604-0.205c0.271-0.133,0.405-0.334,0.538-0.537c0.068-0.201,0.136-0.471,0.136-0.805v-0.338
		c-0.269,0.135-0.674,0.199-1.276,0.338v-0.742c0.604-0.065,1.009-0.133,1.276-0.201v-0.268c0-0.339-0.066-0.539-0.2-0.675
		c-0.271-0.202-0.54-0.271-0.943-0.271h-0.133v-0.67h0.201c0.47,0,0.808,0,1.009,0.135c0.269,0.064,0.47,0.199,0.604,0.336
		c0.135,0.134,0.201,0.335,0.269,0.604v0.738v1.077c0,0.739,0.067,1.276,0.067,1.481c0.068,0.199,0.136,0.402,0.201,0.537h-0.874
		C256.646,222.884,256.578,222.681,256.578,222.413 M255.234,223.083c-0.135,0.066-0.271,0.066-0.471,0.066
		c-0.473,0-0.875-0.133-1.214-0.402c-0.268-0.268-0.399-0.604-0.399-1.008c0-0.202,0.064-0.403,0.133-0.605
		c0.134-0.199,0.269-0.402,0.47-0.471c0.137-0.133,0.338-0.2,0.539-0.271c0.201-0.064,0.404-0.133,0.741-0.133l0.201-0.066v0.74
		h-0.067c-0.338,0-0.604,0.065-0.74,0.133c-0.135,0.067-0.2,0.135-0.269,0.271c-0.135,0.136-0.135,0.269-0.135,0.403
		c0,0.201,0.066,0.402,0.269,0.537c0.135,0.137,0.404,0.203,0.672,0.203h0.271L255.234,223.083L255.234,223.083z M255.234,218.778
		c-0.338,0-0.538,0.068-0.741,0.203c-0.201,0.135-0.335,0.336-0.402,0.672l-0.808-0.066c0.067-0.336,0.202-0.605,0.337-0.874
		c0.2-0.2,0.403-0.337,0.739-0.47c0.268-0.067,0.537-0.135,0.875-0.135V218.778z"/>
	<path fill="#1A171B" d="M258.596,223.019v-4.843h0.739v0.671c0.402-0.471,0.873-0.738,1.546-0.738c0.336,0,0.538,0,0.81,0.136
		c0.266,0.133,0.401,0.269,0.536,0.403c0.135,0.199,0.202,0.401,0.27,0.604c0.067,0.134,0.067,0.402,0.067,0.809v2.959h-0.809
		v-2.959c0-0.271-0.064-0.539-0.135-0.742c-0.065-0.133-0.134-0.269-0.335-0.402c-0.137-0.066-0.337-0.135-0.539-0.135
		c-0.402,0-0.673,0.135-0.939,0.337c-0.271,0.2-0.403,0.673-0.403,1.276v2.625H258.596z"/>
	<path fill="#1A171B" d="M266.599,223.019v-4.172h-0.741v-0.671h0.741v-0.471c0-0.337,0-0.606,0.065-0.741
		c0.068-0.199,0.271-0.402,0.403-0.538c0.202-0.134,0.539-0.2,0.876-0.2c0.2,0,0.471,0.066,0.739,0.066l-0.068,0.739
		c-0.2,0-0.335-0.067-0.538-0.067c-0.201,0-0.403,0.067-0.536,0.203c-0.068,0.064-0.137,0.268-0.137,0.605v0.402h0.943v0.672h-0.943
		v4.17h-0.805V223.019z"/>
	<path fill="#1A171B" d="M270.971,218.106L270.971,218.106c0.672,0,1.21,0.201,1.612,0.605c0.403,0.471,0.674,1.076,0.674,1.816
		c0,0.671-0.138,1.142-0.336,1.479c-0.135,0.337-0.404,0.674-0.809,0.809c-0.335,0.201-0.74,0.334-1.143,0.334v-0.67
		c0.401,0,0.739-0.136,1.008-0.473s0.404-0.808,0.404-1.41c0-0.606-0.137-1.078-0.404-1.347c-0.269-0.338-0.605-0.472-1.008-0.472
		L270.971,218.106L270.971,218.106z M268.684,220.597c0-0.875,0.27-1.548,0.739-1.949c0.402-0.403,0.94-0.539,1.548-0.539v0.672
		c-0.403,0-0.741,0.134-1.01,0.472c-0.269,0.269-0.404,0.739-0.404,1.347c0,0.604,0.137,1.073,0.404,1.41
		c0.269,0.338,0.605,0.473,1.01,0.473v0.67c-0.675,0-1.213-0.199-1.684-0.67C268.886,222.074,268.684,221.403,268.684,220.597"/>
	<path fill="#1A171B" d="M274.199,223.019v-4.843h0.741v0.738c0.2-0.335,0.335-0.538,0.536-0.671
		c0.134-0.135,0.335-0.135,0.472-0.135c0.269,0,0.604,0.066,0.875,0.268l-0.271,0.74c-0.201-0.135-0.403-0.202-0.604-0.202
		c-0.202,0-0.338,0.067-0.472,0.202c-0.201,0.066-0.27,0.201-0.336,0.402c-0.067,0.336-0.134,0.606-0.134,1.012v2.486h-0.808
		V223.019z"/>
	<path fill="#1A171B" d="M280.588,221.472l0.874,0.135c-0.134,0.47-0.402,0.875-0.74,1.143c-0.335,0.27-0.808,0.402-1.411,0.402
		v-0.67c0.337,0,0.604-0.068,0.808-0.271C280.318,222.075,280.521,221.808,280.588,221.472 M279.31,218.106L279.31,218.106
		c0.604,0,1.144,0.201,1.548,0.605c0.403,0.473,0.671,1.076,0.671,1.885c0,0.065-0.066,0.135-0.066,0.2h-2.151v-0.672h1.345
		c-0.066-0.403-0.134-0.674-0.337-0.874c-0.269-0.338-0.604-0.471-1.008-0.471L279.31,218.106L279.31,218.106z M279.31,223.151
		c-0.741,0-1.277-0.27-1.684-0.672c-0.399-0.404-0.604-1.01-0.604-1.816s0.203-1.479,0.604-1.882
		c0.474-0.474,1.012-0.675,1.684-0.675v0.675c-0.403,0-0.741,0.133-0.942,0.333c-0.268,0.271-0.404,0.607-0.47,1.012h1.412v0.672
		h-1.412c0,0.538,0.135,0.941,0.403,1.277c0.268,0.27,0.604,0.404,1.009,0.404V223.151L279.31,223.151z"/>
	<path fill="#1A171B" d="M282.471,223.019v-6.658h0.875v2.42c0.336-0.471,0.873-0.672,1.41-0.672c0.405,0,0.674,0.067,0.943,0.201
		c0.269,0.135,0.471,0.338,0.604,0.537c0.066,0.271,0.135,0.674,0.135,1.145v3.027h-0.807v-3.027c0-0.403-0.066-0.739-0.271-0.941
		c-0.2-0.135-0.403-0.27-0.738-0.27c-0.271,0-0.472,0.066-0.741,0.201c-0.2,0.136-0.337,0.271-0.403,0.539
		c-0.133,0.203-0.133,0.471-0.133,0.873v2.625H282.471L282.471,223.019z"/>
	<path fill="#1A171B" d="M291.012,221.472l0.875,0.135c-0.136,0.47-0.404,0.875-0.741,1.143c-0.402,0.27-0.873,0.402-1.413,0.402
		h-0.065v-0.67h0.065c0.271,0,0.54-0.068,0.741-0.271C290.744,222.075,290.878,221.808,291.012,221.472 M289.667,218.106
		L289.667,218.106c0.671,0,1.211,0.201,1.612,0.605c0.404,0.473,0.607,1.076,0.607,1.885v0.2h-2.221v-0.672h1.346
		c0-0.403-0.135-0.674-0.337-0.874c-0.201-0.338-0.536-0.471-1.009-0.471L289.667,218.106L289.667,218.106z M289.667,223.151
		c-0.672,0-1.212-0.27-1.613-0.672c-0.403-0.404-0.605-1.01-0.605-1.816s0.202-1.479,0.605-1.882
		c0.401-0.474,0.941-0.675,1.613-0.675v0.675c-0.338,0-0.672,0.133-0.94,0.333c-0.271,0.271-0.404,0.607-0.404,1.012h1.346v0.672
		h-1.411c0.065,0.538,0.199,0.941,0.471,1.277c0.27,0.27,0.538,0.404,0.94,0.404L289.667,223.151L289.667,223.151z"/>
	<path fill="#1A171B" d="M296.057,222.413c-0.336,0.268-0.605,0.471-0.876,0.604c-0.134,0-0.269,0.065-0.471,0.065v-0.603
		c0.202,0,0.404-0.067,0.605-0.205c0.268-0.133,0.404-0.334,0.537-0.537c0.067-0.201,0.136-0.471,0.136-0.805v-0.338
		c-0.269,0.135-0.74,0.199-1.278,0.338v-0.742c0.605-0.065,1.011-0.133,1.278-0.201v-0.268c0-0.339-0.067-0.539-0.269-0.675
		c-0.202-0.202-0.473-0.271-0.877-0.271h-0.134v-0.67h0.202c0.47,0,0.74,0,1.009,0.135c0.271,0.064,0.471,0.199,0.605,0.336
		c0.135,0.134,0.2,0.335,0.268,0.604v0.738v1.077c0,0.739,0,1.276,0.07,1.481c0.065,0.199,0.133,0.402,0.2,0.537h-0.874
		C296.125,222.884,296.057,222.681,296.057,222.413 M294.711,223.083c-0.133,0.066-0.27,0.066-0.471,0.066
		c-0.536,0-0.941-0.133-1.21-0.402c-0.27-0.268-0.404-0.604-0.404-1.008c0-0.202,0.069-0.403,0.136-0.605
		c0.135-0.199,0.27-0.402,0.402-0.471c0.202-0.133,0.404-0.2,0.605-0.271c0.2-0.064,0.402-0.133,0.74-0.133l0.2-0.066v0.74h-0.065
		c-0.338,0-0.605,0.065-0.74,0.133c-0.135,0.068-0.2,0.135-0.336,0.271c-0.069,0.136-0.069,0.269-0.069,0.403
		c0,0.201,0.069,0.402,0.205,0.537c0.2,0.137,0.469,0.203,0.737,0.203h0.27V223.083z M294.711,218.778
		c-0.337,0-0.604,0.068-0.74,0.203c-0.2,0.135-0.335,0.336-0.401,0.672l-0.808-0.066c0.066-0.336,0.201-0.605,0.336-0.874
		c0.201-0.2,0.401-0.337,0.739-0.47c0.271-0.067,0.537-0.135,0.874-0.135V218.778L294.711,218.778z"/>
	<path fill="#1A171B" d="M301.236,223.019v-0.605c-0.336,0.471-0.741,0.738-1.277,0.738v-0.67c0.335,0,0.671-0.137,0.874-0.472
		c0.268-0.271,0.403-0.741,0.403-1.347c0-0.673-0.137-1.145-0.403-1.411c-0.203-0.338-0.539-0.471-0.874-0.471v-0.675
		c0.2,0,0.471,0.067,0.671,0.137c0.203,0.135,0.403,0.335,0.54,0.538v-2.423h0.807v6.658h-0.74V223.019z M299.958,223.151h-0.068
		c-0.403,0-0.738-0.135-1.074-0.336c-0.338-0.203-0.606-0.472-0.74-0.875c-0.201-0.401-0.271-0.807-0.271-1.344
		c0-0.472,0.068-0.875,0.202-1.279c0.201-0.403,0.404-0.739,0.74-0.939c0.335-0.203,0.671-0.271,1.075-0.271h0.136v0.675h-0.068
		c-0.336,0-0.673,0.133-0.874,0.403c-0.269,0.334-0.403,0.806-0.403,1.412c0,0.672,0.136,1.074,0.403,1.412
		c0.271,0.335,0.538,0.471,0.942,0.471V223.151z"/>
	<path fill="#1A171B" d="M304.329,128.928v-4.841h0.741v0.737c0.401-0.537,0.872-0.806,1.546-0.806c0.338,0,0.605,0.067,0.808,0.133
		c0.27,0.136,0.472,0.269,0.604,0.406c0.067,0.199,0.201,0.402,0.201,0.603c0.066,0.202,0.066,0.471,0.066,0.809v2.959h-0.807
		v-2.894c0-0.335-0.066-0.604-0.134-0.738c-0.067-0.201-0.135-0.335-0.337-0.402c-0.135-0.136-0.336-0.203-0.536-0.203
		c-0.338,0-0.674,0.135-0.943,0.338c-0.202,0.269-0.336,0.672-0.336,1.275v2.624H304.329z"/>
	<path fill="#1A171B" d="M311.526,124.019L311.526,124.019c0.671,0,1.209,0.201,1.613,0.672c0.471,0.404,0.674,1.01,0.674,1.748
		c0,0.672-0.134,1.145-0.337,1.479c-0.135,0.403-0.404,0.673-0.81,0.874c-0.335,0.202-0.737,0.27-1.142,0.27v-0.672
		c0.403,0,0.74-0.134,1.009-0.472c0.271-0.269,0.403-0.74,0.403-1.411c0-0.605-0.134-1.076-0.403-1.347
		c-0.269-0.336-0.604-0.47-1.009-0.47L311.526,124.019L311.526,124.019z M309.239,126.507c0-0.876,0.27-1.546,0.74-1.949
		c0.401-0.338,0.939-0.539,1.547-0.539v0.672c-0.403,0-0.741,0.135-1.009,0.471c-0.271,0.271-0.405,0.74-0.405,1.347
		c0,0.671,0.136,1.144,0.405,1.411c0.268,0.338,0.604,0.471,1.009,0.471v0.674c-0.674,0-1.212-0.2-1.615-0.674
		C309.441,127.985,309.239,127.381,309.239,126.507"/>
	<path fill="#1A171B" d="M316.571,128.256l0.065,0.671c-0.202,0.068-0.403,0.068-0.605,0.068c-0.269,0-0.536,0-0.673-0.137
		c-0.201-0.066-0.269-0.2-0.334-0.334c-0.069-0.137-0.137-0.472-0.137-1.01v-2.756h-0.605v-0.675h0.605v-1.144l0.808-0.537v1.681
		h0.876v0.675h-0.876v2.823c0,0.269,0.067,0.401,0.067,0.471c0,0.066,0.066,0.136,0.136,0.136c0.064,0.066,0.133,0.066,0.268,0.066
		L316.571,128.256L316.571,128.256z"/>
	<path fill="#1A171B" d="M320.538,127.181l0.808,0.133c-0.137,0.537-0.337,0.94-0.741,1.277c-0.336,0.337-0.807,0.473-1.277,0.473
		c-0.672,0-1.21-0.201-1.613-0.674c-0.402-0.402-0.604-1.01-0.604-1.816c0-0.536,0.069-1.008,0.27-1.411
		c0.135-0.401,0.403-0.675,0.739-0.874c0.404-0.202,0.74-0.27,1.21-0.27c0.472,0,0.941,0.135,1.277,0.403
		c0.338,0.269,0.54,0.604,0.604,1.144l-0.737,0.067c-0.136-0.271-0.271-0.538-0.403-0.673c-0.202-0.2-0.471-0.27-0.741-0.27
		c-0.401,0-0.738,0.135-1.009,0.403c-0.268,0.335-0.404,0.806-0.404,1.412c0,0.673,0.139,1.144,0.404,1.479
		c0.271,0.268,0.539,0.402,0.941,0.402c0.338,0,0.605-0.068,0.809-0.27C320.335,127.919,320.47,127.583,320.538,127.181"/>
	<path fill="#1A171B" d="M322.017,128.928v-6.657h0.808v2.42c0.403-0.471,0.874-0.672,1.479-0.672c0.338,0,0.673,0.068,0.939,0.201
		c0.27,0.135,0.403,0.338,0.539,0.604c0.134,0.202,0.2,0.606,0.2,1.077v3.025h-0.873v-3.025c0-0.403-0.066-0.741-0.27-0.875
		c-0.135-0.202-0.404-0.336-0.74-0.336c-0.2,0-0.472,0.066-0.671,0.201c-0.202,0.135-0.337,0.336-0.474,0.539
		c-0.064,0.199-0.133,0.471-0.133,0.872v2.624L322.017,128.928L322.017,128.928z"/>
	<line fill="none" stroke="#1A171B" stroke-width="0.339" x1="302.647" y1="126.171" x2="247.164" y2="157.241"/>
	<path fill="#1A171B" d="M245.682,157.981l7.129-0.473c-2.151-1.344-3.495-3.16-4.103-5.783L245.682,157.981z"/>
	<path fill="none" stroke="#1A171B" stroke-width="0.029" stroke-linecap="round" stroke-linejoin="round" d="M245.682,157.981
		l7.129-0.473c-2.151-1.344-3.495-3.16-4.103-5.783L245.682,157.981z"/>
</g>
</svg>
