<?xml version="1.0" encoding="utf-8"?>
<!-- Generator: Adobe Illustrator 15.1.0, SVG Export Plug-In . SVG Version: 6.00 Build 0)  -->
<!DOCTYPE svg PUBLIC "-//W3C//DTD SVG 1.1//EN" "http://www.w3.org/Graphics/SVG/1.1/DTD/svg11.dtd">
<svg version="1.1" id="Layer_1" xmlns="http://www.w3.org/2000/svg" xmlns:xlink="http://www.w3.org/1999/xlink" x="0px" y="0px"
	 width="329.984px" height="135.764px" viewBox="0 0 329.984 135.764" enable-background="new 0 0 329.984 135.764"
	 xml:space="preserve">
<metadata><?xpacket begin="﻿" id="W5M0MpCehiHzreSzNTczkc9d"?>
<x:xmpmeta xmlns:x="adobe:ns:meta/" x:xmptk="Adobe XMP Core 5.0-c060 61.134777, 2010/02/12-17:32:00        ">
   <rdf:RDF xmlns:rdf="http://www.w3.org/1999/02/22-rdf-syntax-ns#">
      <rdf:Description rdf:about=""
            xmlns:dc="http://purl.org/dc/elements/1.1/">
         <dc:format>image/svg+xml</dc:format>
         <dc:title>
            <rdf:Alt>
               <rdf:li xml:lang="x-default">8B-1</rdf:li>
            </rdf:Alt>
         </dc:title>
      </rdf:Description>
      <rdf:Description rdf:about=""
            xmlns:xmp="http://ns.adobe.com/xap/1.0/"
            xmlns:xmpGImg="http://ns.adobe.com/xap/1.0/g/img/">
         <xmp:CreatorTool>Adobe Illustrator CS5.1</xmp:CreatorTool>
         <xmp:CreateDate>2015-02-12T17:05:46+02:00</xmp:CreateDate>
         <xmp:ModifyDate>2015-02-12T17:05:46+02:00</xmp:ModifyDate>
         <xmp:MetadataDate>2015-02-12T17:05:46+02:00</xmp:MetadataDate>
         <xmp:Thumbnails>
            <rdf:Alt>
               <rdf:li rdf:parseType="Resource">
                  <xmpGImg:width>256</xmpGImg:width>
                  <xmpGImg:height>104</xmpGImg:height>
                  <xmpGImg:format>JPEG</xmpGImg:format>
                  <xmpGImg:image>/9j/4AAQSkZJRgABAgEAyADIAAD/7QAsUGhvdG9zaG9wIDMuMAA4QklNA+0AAAAAABAAyAAAAAEA&#xA;AQDIAAAAAQAB/+4ADkFkb2JlAGTAAAAAAf/bAIQABgQEBAUEBgUFBgkGBQYJCwgGBggLDAoKCwoK&#xA;DBAMDAwMDAwQDA4PEA8ODBMTFBQTExwbGxscHx8fHx8fHx8fHwEHBwcNDA0YEBAYGhURFRofHx8f&#xA;Hx8fHx8fHx8fHx8fHx8fHx8fHx8fHx8fHx8fHx8fHx8fHx8fHx8fHx8fHx8f/8AAEQgAaAEAAwER&#xA;AAIRAQMRAf/EAaIAAAAHAQEBAQEAAAAAAAAAAAQFAwIGAQAHCAkKCwEAAgIDAQEBAQEAAAAAAAAA&#xA;AQACAwQFBgcICQoLEAACAQMDAgQCBgcDBAIGAnMBAgMRBAAFIRIxQVEGE2EicYEUMpGhBxWxQiPB&#xA;UtHhMxZi8CRygvElQzRTkqKyY3PCNUQnk6OzNhdUZHTD0uIIJoMJChgZhJRFRqS0VtNVKBry4/PE&#xA;1OT0ZXWFlaW1xdXl9WZ2hpamtsbW5vY3R1dnd4eXp7fH1+f3OEhYaHiImKi4yNjo+Ck5SVlpeYmZ&#xA;qbnJ2en5KjpKWmp6ipqqusra6voRAAICAQIDBQUEBQYECAMDbQEAAhEDBCESMUEFURNhIgZxgZEy&#xA;obHwFMHR4SNCFVJicvEzJDRDghaSUyWiY7LCB3PSNeJEgxdUkwgJChgZJjZFGidkdFU38qOzwygp&#xA;0+PzhJSktMTU5PRldYWVpbXF1eX1RlZmdoaWprbG1ub2R1dnd4eXp7fH1+f3OEhYaHiImKi4yNjo&#xA;+DlJWWl5iZmpucnZ6fkqOkpaanqKmqq6ytrq+v/aAAwDAQACEQMRAD8A9U4qxv8AMz6x/wAq381/&#xA;VnMdz+h9Q9CRSVZX+qycSGG4IPfFWIf84w6jPf8A5KaBLczSXFyjXqTTTMXdiL2Yj4mJJorAYq9T&#xA;xV2KuxV2KuxV2KuxVCarq+laRYyahq15Bp9hEVEt3cyLDEhdgi8ncqoqzACpxVEW9xBcQR3FvIs1&#xA;vMqyQzRsGR0YVVlYVBBBqCMVX4q7FXYq7FXYq7FXYqpXd5aWdtJdXk8dtbRDlLPMyxxqPFmYgDFV&#xA;lhqOn6jard6fdQ3lq9eFxbyLLG1NjR0JU4q8I/Lb/wBas/Mb/mBi/Va4q9/xV2KuxV2KuxV2KuxV&#xA;2Koez1HT75HeyuYrpI24O0LrIFYb8SVJocVRGKvm/wAyfnP+dGu+b/Nln+W+m2cujeSnaLUPXVXn&#xA;naNnVyoZ15VMEnBU3oOpJAxVnWi/mVaef/yD1vzKUW1uBpWow6nbqSUhuIbZ+YBP7JUq617EYqh/&#xA;+cUUdfyR0YspAea9KkjqPrUgqPpGKvXsVdirsVdirsVdirsVeDf85halcf4C0jy9aN/pWvarDCI9&#xA;/jjiVmpt/wAWtHir2/SdNt9L0qy023FLexgitoR/kQoEX8FxVFYq7FXYq7FXYq7FXYq+dfzrtr7z&#xA;9+d/lj8rrm8ks/LP1X9J6jHCaNOy+q5HhUJCFQn7PJjiql+UGl/8q6/5yD8x/l5p88r+W9QsV1Cw&#xA;glbkUlVY3Br/AJKtIlf2gFriqP8Ayn/f/wDOTP5m3T/3kUUcCgdOPKJd/f8AdDFX0BirsVdirsVd&#xA;irsVdirsVfP/APzhr+98k+Y7xP7ifXJvTJ67QQt0+TjFWf8AnP8APX8u/J/mqz8saxeSDU7v0/UE&#xA;MfqR24mNIzOwI4160AJpvShGKsA/5xMrdN5/1fdhf643x7AHjzk+z1H99irDvyumXSfyt/PHRVAF&#xA;npzahFAqmigzQT22wP8AxiXFXsP/ADjHA0P5G+WEYgkpdvt4SXs7j8GxV6hirsVdirsVdirsVdir&#xA;59/PMHWPz4/Kry+fijtrhtRkj7ECZJDXah2szir1X82fOD+Tvy613zFEQLqztiLPkKj6xMwhhqO4&#xA;EkikjFXz5/zjz5h8+6T+aOlaR5g1i61S2846MdYaC6lkl9JnDywyD1C3xNHFvxpUMPAYq+sMVdir&#xA;sVdirsVdir5+/Msfon/nKf8ALzWEPAajaPYSb0VifXi3rsT/AKSv3DFW7qtt/wA5lWfIVF7oZ9On&#xA;YLFJ1/5FHFUp/LDzRouifnJ+beuatO3CO/jsbdYUaaWaZ7iZEt4YYgzySt6NAqiuxPYnFXrp/MnW&#xA;1T6zL5C8wpp5FVmCWEk3bc2qXbTgf7GvtirIvLHmzQfM2nm/0a6FxFG7Q3ETK0U0EyfbinhkCyRS&#xA;L3V1B+jFU3xV2KuxV2KuxVSu5/q9rNcceXoxtJxrSvEE0rvirwn/AJwxiEH5TX8ruAsusXMpJ2Cg&#xA;W1um5/2FcVfOnm6NvOMWs+d5wWuPMPmpLDTHNS6wJDIzRgd6JNbr/scVfQ3/ADhjWb8vtevzs1zr&#xA;k1UHQUtrd+v/AD0xV5bqOqroOk/85AaWW9OS61S2SyhJG6TajOr05bn9y4OKvpn8qfqGgflb5Qsb&#xA;65htJm0y0PpzSKhMk0QkZRyO55ORtirOEdHRXRgyMAVYGoIO4IIxVvFXYq7FXYq7FXYq+fvMIW8/&#xA;5zJ8tBvi/R2iPQLvxJivD8fX/f8AX7sVX/8AOWuo3Goab5U8hWD0v/M+qxgqN/3cZEahh4GWdT/s&#xA;cVQs9ja2P/OXXlrT7NaW1h5e+rxoN+CRwXCoDT/Jpir6IxV2KuxV2KuxV2Kvn7/nJIG0/Mn8otVT&#xA;rDrJjloTyZTc2jBR26ch9OKtee3Gjf8AOW3kfU5zxs9V017IO3+/mFzEqj/ZyRffirzf8kY5de/O&#xA;bzNqdtctBcX+q3KRXiBWeAXZu7l7iJWBjEvpW8kKuVIX1Ttir6VtPLn5YXOqXOiW8cN3r1jGs15c&#xA;CaWbUoQ5IVpb7kbmN2IJAMobuNsVYtZR33lz817WU3LXMGp3TaDf3DhRLcKdP/SGny3HAKsk8DQz&#xA;w+rSpjZeVSCcVevYq7FXYqwz81vOdz5X8tK9hJHFq2oy/VLGeZeccAEbz3F1Ig3ZLa3hklI70A74&#xA;qxCw/KKC+s1vbzy3ZXV9Moka/wBfu7m51eZiK1mmiXjaP/kws6r29lUBN5g1ryL9atJpLqTQ2QWl&#xA;7ouozteTafLdq6WV1Z3z/vLmxnmHon1PjRqfZ3XFWI/k5rK+Wv8AnE/zLrPqcZOWoegx24zzIlrD&#xA;/wAlCuKsIh0FrXyr+RehMlJdc1mbU7tKGnCa8t0icjav7g1xV6t/zhYQn5a6zbP8M8OuTmRCNxW1&#xA;tlH4ocVYL/zkV+SPm5/PF75i0mSFfL3mO6sIp0aXgVvZXS1RHj+04aR+dR0qfDFWb/ldpfkDzhb3&#xA;UPl+PQr+7s6w3955ism1XWLrh+7M0sMklt9XhYj4ER3XjQfCfhCqZ6tZ6h+Wd2mr6bZrptpEWnv7&#xA;DTfUbSNRs4VMl0EtHLmwvIYFedAhKOqEFm3CqvbYZop4Y5oXEkUqh43XcMrCoIPuMVX4q7FXYqwv&#xA;8wvzCHluS00ywS2m1y/V5UN7OLaztLaMhHu7yY1KRB3VVAHJ2PFe9FWNR+dPP9vLE0WuaBrM8zAJ&#xA;pU9lfaIJXbcQ2d7PLcxyO1aKGQ19tzirzvRvOFhf/wDOWMOoXcMmkyHR5YL2zvuMUlrNb27ySpKa&#xA;8OISIuHUlShDdMVRvkOU/mx/zkJf+eo1Z/KXk+P6lo0jA8Jp6MqMtQOpeSbxHwVxVH6WTff85lax&#xA;x3/RWiJz4g7c4bf7Vf8AmJHTFX0DirsVdirsVdirsVfP3/OXg9HTfJWoUDfVdbQcOhPJOdK70/us&#xA;VZZ/zkD+U2q+fNE0y78u3C2nmrQLn6zpc7OYqqxUyIJFBKPyjR0bxXtWoVeWflh+VV15N1m58u6z&#xA;eyWs95Hpceq3+mzNE9tLqKatFAYpwKhvUWGEGm7N4Yqz38qPyCv/ACLrvmCKXV7m80jVBBNZ39vc&#xA;SWtxziMnOO5jQ0c/vaq4PjsK0xVfdaNFF560W6hu7y65+b/QtxPcSTK8VpoE4mejE1aOf1ELdgKY&#xA;q9oxV2KuxV49+Youte/NjQNGtFjlXSIkkcSsyxC5vHe7VZCgY0a30iRCKGok98VZf5mn87J5b1V7&#xA;qPTYLZbO4M80VxcrIkYibkyH01oyjcbjFXzVY6v+bWt+Rr//ABxbmVbW1s7DSZ7xTHfynVNTtJY+&#xA;ShD6nFdP51fiwX4viqMVYxpOvTa5+T/lT8qtDlEms+YNclkvo0NfSgWQCL1QOis59T2EdcVew+d9&#xA;NtE/5yS/KvypZrSz0TTRLbxmh4pAs5XqaVC2a9sVRv8AziFWHR/OVi2722uScnHQ1QLt/wAi8VZb&#xA;/wA5FSSL5N09YyRI2o84wtaloLG6nUin8pi5/RirHfJv5F+VfIfnDTde1EfpK71e4kEd8GkSKxv2&#xA;dprdIQjKDFNHyiJlrV1QD+844qzz81DDJZWdvLx9NItTu5uXT0o9KuoHqPCt0tT/AFxVPPIIlHkX&#xA;y4JeQlGl2XqBq8uX1dK1rvWuKp7irsVdirx38uYF84fmPr/nO5X1bG2nEWjM26mO3MtrbsldxxVZ&#xA;5x2b6wD1UYqxL89NQ/N7VNSl0zylqn17yff3kGj6kIrK34QXNzIIvQM8gkaZVcgSOlAjHgxrUYqg&#xA;9Z/JvRvzB/MDT9P1DU7tI7LTtQiGpxFDdT2um6itnbid3DB3KySx+pQlhGrGvLFX0B5M8meX/Jvl&#xA;+20HQbb6tp9tUgE8nd23eSRzuzsep+gbUGKvGfyfP6V/5yR/NHWgOQsgmm89jTjIsXGvxf8ALF49&#xA;ungq+gcVdirsVdirsVdirwD/AJzSRh+WOkzoCJYdbgKyr1UG1ud6jp8QGKvfkdHRXRgyMAVYGoIO&#xA;4IIxVgOn6bY6t+ZHnuzv4VnsptN0W0mhavxAfXZK1FCP74UI3BFRiqcp5f8AOFtF9Us/MoayoVWa&#xA;9s1ub6NTsAlwssMRKj7LSwOf5uWKpHrWk2ml+bfy40qzDC3tbzUZw7sXkd/0bcK7SO27PI1wzux3&#xA;LfPFXoWKuxV2KvLvK+k3nmPTvMXmqykRNU1DXZLvQp5CfTMOkEWFuj8QSIp1glDECvGQsN6Yqyoe&#xA;e4Ug4XOj6pDqwqv6LWzmkZ5AacY7lFNoy1/b9UKAQWK4qxAaPc3v5geX9J1VUlvU+t+bfMMS/FCJ&#xA;mjXTtPgBI+JYo3dQduXpcqVOKon8u/8AnHr8v/IfmO78waSlxPfzc1tPrTq62kcn20gCqh3B48mJ&#xA;PHbxqqwux/3Lf85lah+1+gNEFPbnDF8v+W33/oq3/wA4z0tPP35taSaKbXWuSD7NVNxdpVU7CiL9&#xA;4xV6P+YcUN55n8g6bOFaG41i5lkQ78lh0i+qtP5TzocVU7q11Cy8vzeVdctLy70pYxDpuv6cjXM6&#xA;RxkG2eaJOVwtzAVVhIiOrMvOqk8Qqx3zPceZbz8uPNPmnzBZtp11a+Wr7TbC3I4yM80RN1dlK1jS&#xA;aSKL042+JVTfdqBV6tpdoLLTLSzAAFtDHCACSB6aBdid+2KonFXYqxT80NbvdK8mXg0001nU2j0r&#xA;RxvX65fuLeJtv998zIfZTirGNM0C50LXB5E0+b9E6Bdw29xHqAYpc3KWdnBZy2VqwFFfjbrJJJXm&#xA;FY8Piq8arL9dubfy9oFtpOhW8UV/ccbHQbBEHBZSNpCg/wB1QLWWQ/yqf2iKqsZ/KjS7aTVdc1u2&#xA;LPptp6PlvQ5H3Z7bSC63E/IbMZ72SXk3fiDir0hmVVLMQqqKsx2AA7nFXz9/ziKG1K088ebGB5a5&#xA;rTVY9/TDT9wD/wAfmKvoLFXYq7FXYq7FXYq8M/5zIR2/KKMqpITVLYsQOg9OUVP0nFXs+iukmj2E&#xA;iEMj28TKw6EFAQRirFvKlX/Mrz1J04foqAD/AFLVpOX/ACWp9GKs1xVhPmaj/ml5IjpyKW+sTcet&#xA;AsVvHz+j1eNf8rFWbYq7FWO/mJ5gm8v+R9a1e3Ba8t7V1sUHVrqX91bIP9aZ0GKovyhoEXl3yrpG&#xA;hRHkum2kNsXH7TRoFd/mzVY4qm+KsF/L/wD3KeavOfmY7pNfpo1iev8Ao+kJ6bkH3u5p+nhirOsV&#xA;fPv5HH9Lfn5+a2u/aFpcLpyyDpQTPGKb+FmO39qrf5T/AO47/nJv8zNJpx+twpf8TUVq8UlaH/mL&#xA;xV6X5prJ+Z3kWEf7rTV7ogCppHbxQ19l/wBI++mKs2xVhP50Dl+WWtw0r9ZWC2oen7+5ii39vj3x&#xA;Vm2KuxV2KsD1H/nYPzY0/T/t6d5PtTqd0OqnUb8Nb2imveK3E7/7NcVZfrGi6TrNi1jqlrHd2rEP&#xA;6cg+y67q6MKMjqd1ZSCO2KsO832emeSPKmp6vodvJN5juYk03Sbi7uJ724a5u5FgtYllunmkEYmk&#xA;VigNNq4qyjyl5dtfLflnTNBtTyh022jtxIersi/HI3+U7VY+5xVLfzR1r9Cflx5m1QNxkttNumhI&#xA;2/etEyxf8OwxVhn/ADivox0z8ltHkZeMuoyXN7IKU+3M0aH6Y41OKvW8VdirsVdirsVdirxX/nL3&#xA;/wAk3c/8x1p/xI4q9V8pEHyroxG4NjbUP/PFcVY/5K+Lz3+YUjbsuo2ES+yLpNq4H/BStirNcVYV&#xA;rFZvzi8sRqKfVdE1mdye6yXGnRgD3rirNcVdirBfzBrqnmbyd5YXeO51BtYv16/6NpCiVAR4NdyW&#xA;+Ks6xVLfM2uW+g+XNU1u4p6OmWk124O1RDGXp9PGmKpX+Weh3GieQdD0+6/3uW2We/PSt3ck3Fyf&#xA;pmlfFWSSSJHG0kh4ogLMx6AAVJxV4F/zh9FJeeW/NXmWUES6zrUhJNakJGstd6/tXDd8VWr/ALif&#xA;+cy324/4g0T5cvThHuP+WH36fcq9Lv6z/nNoqNulj5f1OZR04vcXlkgPiarE2Ks2xVhP5wfH5Njt&#xA;Ru95q+iW6J05mTVrWqk9KMoINcVZtirsVUry7trO0nvLqQRW1tG008rdFjjUszH5AYqw38pLO4k8&#xA;uT+Zr6No9T823Ums3CP9uOGYBLKE13/dWiRLTxrirN8VYHr1Nf8AzS0LRAeVj5at31/UF2Km6m52&#xA;mnofAqPrEv8AsVxVnmKvGf8AnLbWxpv5NXtsG4vq93a2S0NDs/1lv+FtyMVek+QtEOheSNA0YqUf&#xA;T9PtbeRT19SOFVcn3LVxVPcVdirsVdirsVdirx//AJywA/5Ulq/tPZ0/6SUxV6B+Xn/KAeWf+2VY&#xA;/wDUMmKpT+W9G1bz5KB8L+ZJArePp6dYxt9zowxVm2KsKuPj/Omxr/ujy3ecB/xmv7XlX/kStMVZ&#xA;rirsVYL5ZprH5n+adc+1b6NDbeXrFx9n1FH129I/2c8KH/UxVnWKsG/NoG/0zRvK6fE3mXVrSznT&#xA;qTaW7G9vPoMFsyn/AFsVZzirFvzT1UaT+WvmjUK8Wg0u7MR/4saFlj+9yMVYd/zixpJ0/wDJTRHZ&#xA;eMl891duKU+3cOiH6Y41OKsY/N4/on/nJT8sNb+z9dV9M5dK8pHip1H/AC3Yq9LtqTfnTqJFCLLy&#xA;5ZrXrQ3V9dEj/J2tgffbwxVm2KsJ/NT47Py1b1P7/wAyaR8I6n0bkXG3y9Gp9hirNsVdirBPzZd9&#xA;S0/S/JcDET+bbxbO64mjLpsI9fUHr7wJ6XzkGKs6REjRY41CIgCoiigAGwAAxVzMqqWYhVUVZjsA&#xA;B3OKsF/KZW1Gx1bzlMD6vmu+ku7XlUEafbgW1gKeDQxer83OKs7xV8+f85M/7nPPH5Z+S1q0eoan&#xA;9ZvVHaISRRBqeyNLir6DxV2KuxV2KuxV2KuxV5V/zlGgf8i/Mvw8iv1Jl2qRS/t6kfRXFWVflM4f&#xA;8rPJzcuVdE06rVruLSMH8cVQn5YVY+bZiKCXzJqFF60EXpw/j6VcVZtirCY6N+dVx+0YfLcNB14+&#xA;rfy/dz9L6ePtirNsVQ+paha6bp11qN23C1s4ZLi4f+WOJS7n6FGKsW/KPT7m28hafd3qcdS1oy6z&#xA;qFevr6lI10VP+osoT5LirMcVYKxOsfnGq05WnlPSSxO9Be6vJQfMpbWh+iTFWdYq8j/5yq1f9H/k&#xA;rrEatxk1CW1tIzUftTrI4361jiYYqzb8sNI/Q/5c+WNNK8XttMtElAFP3noqZD9LknFVTzP+X/lT&#xA;zRqejanrdmbm88vzm60mVZZYjFMWjfn+6ZOXxQoaHbbFU2g0fTYNVu9WihC6hfRQQXc9WJeO1MjQ&#xA;rxJ4jiZ36Dvv2xVGYqg9S0fTdSNob2ETGxuEvLQksvCeMMFccSK0DnY7YqjMVdiqBk0PS5dbg1uS&#xA;ANqlrby2lvcFm+CGd0eRVSvD4miWrUrtStMVR2KqN9ZW19ZXFldJztrqN4Z0BZS0cilWHJSGFQeo&#xA;NcVasLG00+xtrCyiEFnaRJBbQr9lIolCIor2CimKq+KsW1b8tvLGq+etI87XaTNrmixNBZkSH0eD&#xA;CUfHEaqSDOxqKGtPDFWU4q7FXYq7FXYq7FXYqlnmby1o3mbQ7rQtagNzpd6FW6gDvHzVHWQDnGVc&#xA;fEo6HFVbRNF03RNIs9H0uH6vp1hElvaQcnfhHGKKvJyzmg7k1xV2l6LpulLdLYQ+it5cy3tyOTty&#xA;nnblI/xlqcj2G3hiqNxVBJoumprU2trDTU7i2isprjk/xQQSSSxpwrwHF53NQK779sVRuKoLXNF0&#xA;7XNHvNH1KMzaffwvb3USu8ZaOQcWXkhVhUeBxVGIiIioihUUAKoFAANgABireKoGw0TS7C+1G+tI&#xA;PTu9WlSfUJuTMZJI4kgQ/ETxCxxKAq0HelScVR2Kse88+QfK3njRk0fzLaNeWEcy3McayywlZkVk&#xA;VuUTITRZG2NR7YqyBEREVEUKigBVAoABsAAMVbxV2KuxV2KuxV2KuxV2KuxV2KuxV2KuxV2KuxV2&#xA;KuxV2KuxV2KuxV2KuxV2KuxV2KuxV2KuxV2KuxV2KuxV2KuxV2KvPfMM2tp51l9Y62YV/R/6Ci0q&#xA;NjaPWY/XPrT8Wt122f6wwpHvH8eKsb/xz+c9zZu0GlCGeGymuZS+k3ig3aQQt9RRHlBf05ZGVZlJ&#xA;WUD4ehOKoiXzr+b8Gq3+n3GmKLG1l9FtXh0u9nKRJKka3EcEbkXPrqWk4QuTF+10xVmv5d3/AJiv&#xA;dIu5vMAmS/N5KRFPbPa+nE6q6RorNIHVQ1OSuwr8NSQcVZTirsVdirsVdirsVdirsVdirsVdirsV&#xA;dirsVdirz3zxqPn6184afF5cjkNlc2wiuZnt5bm2iNZnZyqMiiT92iglu+KpFD5+/NRkie60yS0M&#xA;qxNeKmiX9yLRGijcSL6coa5eR3ZDFGtYurEcaMqsh82/njLb/Xn0uK3k+pXt0+ktp87lJ7ZbNYrf&#xA;1lm+MyPdSsvEVYRELXchVC6j50/OC70K5QWM9jdtYzPata6RevLM6Pdj1Azsv1ZxHBBxidC7F/hG&#xA;44qvaYX5wxvueSg1ZSh3Fd1ahX5HFV+KuxV2KuxV/9k=</xmpGImg:image>
               </rdf:li>
            </rdf:Alt>
         </xmp:Thumbnails>
      </rdf:Description>
      <rdf:Description rdf:about=""
            xmlns:xmpMM="http://ns.adobe.com/xap/1.0/mm/"
            xmlns:stRef="http://ns.adobe.com/xap/1.0/sType/ResourceRef#"
            xmlns:stEvt="http://ns.adobe.com/xap/1.0/sType/ResourceEvent#">
         <xmpMM:DocumentID>xmp.did:49C0730B3B20681188C69098C6AB8D67</xmpMM:DocumentID>
         <xmpMM:InstanceID>xmp.iid:49C0730B3B20681188C69098C6AB8D67</xmpMM:InstanceID>
         <xmpMM:OriginalDocumentID>uuid:C245393CF925DF118833972942CE57BD</xmpMM:OriginalDocumentID>
         <xmpMM:DerivedFrom rdf:parseType="Resource">
            <stRef:instanceID>uuid:bb3736fd-c9cc-4200-87df-6c5fec4851e2</stRef:instanceID>
            <stRef:documentID>uuid:C245393CF925DF118833972942CE57BD</stRef:documentID>
            <stRef:originalDocumentID>uuid:C245393CF925DF118833972942CE57BD</stRef:originalDocumentID>
         </xmpMM:DerivedFrom>
         <xmpMM:History>
            <rdf:Seq>
               <rdf:li rdf:parseType="Resource">
                  <stEvt:action>saved</stEvt:action>
                  <stEvt:instanceID>xmp.iid:49C0730B3B20681188C69098C6AB8D67</stEvt:instanceID>
                  <stEvt:when>2015-02-12T17:05:46+02:00</stEvt:when>
                  <stEvt:softwareAgent>Adobe Illustrator CS5.1</stEvt:softwareAgent>
                  <stEvt:changed>/</stEvt:changed>
               </rdf:li>
            </rdf:Seq>
         </xmpMM:History>
      </rdf:Description>
      <rdf:Description rdf:about=""
            xmlns:pdf="http://ns.adobe.com/pdf/1.3/">
         <pdf:Producer>Adobe PDF library 7.77</pdf:Producer>
      </rdf:Description>
      <rdf:Description rdf:about=""
            xmlns:xmpTPg="http://ns.adobe.com/xap/1.0/t/pg/"
            xmlns:stDim="http://ns.adobe.com/xap/1.0/sType/Dimensions#"
            xmlns:xmpG="http://ns.adobe.com/xap/1.0/g/">
         <xmpTPg:MaxPageSize rdf:parseType="Resource">
            <stDim:w>329.984375</stDim:w>
            <stDim:h>135.763672</stDim:h>
            <stDim:unit>Pixels</stDim:unit>
         </xmpTPg:MaxPageSize>
         <xmpTPg:NPages>1</xmpTPg:NPages>
         <xmpTPg:HasVisibleTransparency>False</xmpTPg:HasVisibleTransparency>
         <xmpTPg:HasVisibleOverprint>False</xmpTPg:HasVisibleOverprint>
         <xmpTPg:PlateNames>
            <rdf:Seq>
               <rdf:li>Cyan</rdf:li>
               <rdf:li>Magenta</rdf:li>
               <rdf:li>Yellow</rdf:li>
               <rdf:li>Black</rdf:li>
            </rdf:Seq>
         </xmpTPg:PlateNames>
         <xmpTPg:SwatchGroups>
            <rdf:Seq>
               <rdf:li rdf:parseType="Resource">
                  <xmpG:groupName>Default Swatch Group</xmpG:groupName>
                  <xmpG:groupType>0</xmpG:groupType>
               </rdf:li>
            </rdf:Seq>
         </xmpTPg:SwatchGroups>
      </rdf:Description>
   </rdf:RDF>
</x:xmpmeta>
                                                                                                    
                                                                                                    
                                                                                                    
                                                                                                    
                                                                                                    
                                                                                                    
                                                                                                    
                                                                                                    
                                                                                                    
                                                                                                    
                                                                                                    
                                                                                                    
                                                                                                    
                                                                                                    
                                                                                                    
                                                                                                    
                                                                                                    
                                                                                                    
                                                                                                    
                                                                                                    
                           
<?xpacket end="w"?>
	</metadata>
<g>
	<path fill="none" stroke="#000000" stroke-width="1.5024" d="M218.874,105.413c0.708-21.455,2.004-42.852,2.183-64.307
		c0.06-8.725,3.24-13.911,11.259-13.438c9.018,0.53,12.79,7.015,12.201,17.389c-1.12,20.101-1.771,40.198-2.652,60.356"/>
	<path fill="none" stroke="#000000" stroke-width="1.5024" d="M267.031,105.59c5.835-20.63,12.438-42.025,17.683-62.833
		c2.183-8.487,6.543-12.731,14.146-10.374c8.664,2.652,10.786,9.845,7.78,19.746c-5.896,19.273-9.138,34.011-14.854,53.345"/>
	<path fill="none" stroke="#000000" stroke-width="1.5024" d="M67.095,105.355c6.307-16.444,12.85-33.187,18.565-49.631
		c2.829-8.252,7.544-12.143,14.972-9.137c8.37,3.36,9.902,10.729,6.014,20.336c-5.601,13.97-9.549,25.582-14.205,38.432"/>
	<path fill="none" stroke="#000000" stroke-width="1.5024" d="M14.577,105.355c1.296-16.857,2.711-34.069,3.418-50.69
		c0.413-8.725,3.772-13.793,11.729-13.085c9.019,0.824,12.555,7.427,11.61,17.801c-1.53,16.858-1.886,30.18-2.888,45.977"/>
	<path fill="none" stroke="#000000" stroke-width="1.0001" d="M240.624,35.742c-5.479-5.306-10.964-5.363-16.387-0.235
		c-2.239,9.077-1.649,17.802,7.074,20.276C237.618,57.611,241.92,51.598,240.624,35.742z"/>
	<path fill="none" stroke="#000000" stroke-width="1.0001" d="M305.048,42.167c-4.064-6.425-9.369-7.84-15.854-4.126
		c-4.303,8.252-5.837,16.857,2.003,21.396C296.915,62.738,302.514,57.906,305.048,42.167z"/>
	<path fill="none" stroke="#000000" stroke-width="1.0001" d="M105.938,56.903c-3.537-6.777-8.665-8.604-15.502-5.481
		c-4.952,7.839-7.191,16.327,0.294,21.516C96.095,76.649,102.107,72.346,105.938,56.903z"/>
	<path fill="none" stroke="#000000" stroke-width="1.0001" d="M37.741,49.948c-5.246-5.481-10.728-5.776-16.387-0.825
		c-2.477,8.959-2.239,17.742,6.425,20.57C33.969,71.698,38.507,65.862,37.741,49.948z"/>
	<path fill="none" stroke="#000000" stroke-width="4" d="M220.819,0.023c-0.236,20.688-0.825,35.837-2.477,42.853
		c-1.711,7.19-3.948,1.649-4.655,0c-2.947-7.604-1.71-16.092-2.416-24.462c-0.648-7.486-5.07-9.372-8.548-4.42
		c-2.652,3.713-1.001,7.839-0.53,12.438c2.829,26.348,2.476,52.812,3.714,79.22"/>
	<path fill="none" stroke="#000000" stroke-width="4" d="M311.768,9.808c-0.473,11.376-0.886,22.163-1.181,33.539
		c-0.354,11.258,1.476,11.905,3.893,8.782c2.534-3.301,4.716-10.196,6.365-18.803c1.825-9.373,3.596-14.5,5.836-14.441
		c2.062,0.06,1.296,5.776,0.295,16.622c-2.417,24.874-5.719,47.271-9.313,70.143"/>
	<path fill="none" stroke="#000000" stroke-width="4" d="M21.237,0.73c0.59,15.502,0.295,29.59-2.122,41.497
		c-0.059,0.354-2.888,9.783-4.715,0.529c-2.123-11.021,0.117-19.923-3.893-25.816c-1.768-2.651-6.837-2.122-7.309,2.062
		c-3.124,28.765,0.413,57.824,4.185,86.646"/>
	<path fill="none" stroke="#000000" stroke-width="4" d="M112.835,9.336c-2.771,12.614-4.833,25.229-4.421,37.899
		c0.236,7.604,2.711,7.604,4.421,6.249c6.189-4.894,8.075-15.619,10.963-26.111c2.24-8.017,5.481-2.062,5.481-0.235
		c0.531,27.173-5.363,53.227-10.138,79.042"/>
	<g>
		<g enable-background="new    ">
			<path d="M49.801,130.13l0.928,0.234c-0.194,0.762-0.544,1.342-1.049,1.74c-0.506,0.4-1.122,0.601-1.852,0.601
				c-0.755,0-1.369-0.153-1.842-0.461c-0.473-0.309-0.833-0.752-1.08-1.335s-0.37-1.209-0.37-1.878c0-0.729,0.139-1.365,0.418-1.908
				s0.675-0.956,1.19-1.237c0.514-0.282,1.08-0.423,1.697-0.423c0.701,0,1.29,0.178,1.769,0.535
				c0.478,0.355,0.811,0.857,0.999,1.505l-0.913,0.215c-0.162-0.51-0.398-0.881-0.707-1.113c-0.309-0.231-0.697-0.349-1.166-0.349
				c-0.539,0-0.988,0.129-1.35,0.387c-0.362,0.258-0.616,0.604-0.763,1.039c-0.146,0.436-0.22,0.883-0.22,1.345
				c0,0.597,0.087,1.116,0.26,1.562c0.174,0.444,0.443,0.776,0.811,0.996c0.365,0.22,0.763,0.329,1.188,0.329
				c0.52,0,0.958-0.149,1.319-0.449S49.674,130.719,49.801,130.13z"/>
			<path d="M51.439,130.049c0-0.939,0.261-1.636,0.784-2.088c0.437-0.376,0.968-0.563,1.596-0.563c0.698,0,1.268,0.229,1.71,0.687
				s0.664,1.089,0.664,1.895c0,0.652-0.098,1.166-0.294,1.541c-0.196,0.374-0.481,0.664-0.855,0.871
				c-0.375,0.207-0.782,0.312-1.226,0.312c-0.71,0-1.284-0.229-1.722-0.684C51.658,131.561,51.439,130.906,51.439,130.049z
				 M52.323,130.049c0,0.65,0.142,1.137,0.425,1.46c0.284,0.323,0.641,0.484,1.07,0.484c0.427,0,0.782-0.162,1.064-0.487
				c0.284-0.324,0.426-0.819,0.426-1.485c0-0.628-0.144-1.103-0.429-1.427c-0.284-0.323-0.639-0.484-1.062-0.484
				c-0.43,0-0.787,0.161-1.07,0.482C52.465,128.914,52.323,129.399,52.323,130.049z"/>
			<path d="M57.192,132.586v-5.074h0.773v0.771c0.198-0.359,0.381-0.599,0.548-0.713c0.167-0.113,0.351-0.172,0.552-0.172
				c0.29,0,0.584,0.094,0.884,0.277l-0.296,0.798c-0.21-0.124-0.42-0.187-0.63-0.187c-0.188,0-0.357,0.057-0.506,0.17
				c-0.15,0.111-0.256,0.27-0.32,0.47c-0.096,0.307-0.143,0.641-0.143,1.004v2.656H57.192z"/>
			<path d="M60.45,132.586v-5.074h0.774v0.771c0.197-0.359,0.38-0.599,0.547-0.713c0.167-0.113,0.351-0.172,0.552-0.172
				c0.29,0,0.584,0.094,0.884,0.277l-0.296,0.798c-0.21-0.124-0.42-0.187-0.63-0.187c-0.188,0-0.357,0.057-0.506,0.17
				c-0.15,0.111-0.256,0.27-0.32,0.47c-0.096,0.307-0.143,0.641-0.143,1.004v2.656H60.45z"/>
			<path d="M67.191,130.952l0.889,0.108c-0.14,0.521-0.398,0.923-0.779,1.209c-0.379,0.287-0.862,0.431-1.451,0.431
				c-0.742,0-1.331-0.229-1.767-0.687c-0.435-0.457-0.651-1.098-0.651-1.923c0-0.854,0.22-1.516,0.658-1.987
				c0.439-0.471,1.011-0.707,1.71-0.707c0.679,0,1.232,0.23,1.663,0.692c0.432,0.462,0.646,1.112,0.646,1.949
				c0,0.052-0.001,0.128-0.005,0.229H64.32c0.032,0.559,0.188,0.984,0.473,1.28c0.284,0.297,0.638,0.444,1.062,0.444
				c0.314,0,0.584-0.082,0.807-0.248C66.884,131.579,67.061,131.315,67.191,130.952z M64.368,129.561h2.833
				c-0.038-0.427-0.146-0.747-0.325-0.96c-0.273-0.331-0.629-0.497-1.064-0.497c-0.396,0-0.728,0.132-0.997,0.396
				S64.396,129.119,64.368,129.561z"/>
			<path d="M72.471,130.727l0.846,0.109c-0.093,0.583-0.329,1.039-0.709,1.369c-0.381,0.33-0.849,0.494-1.402,0.494
				c-0.693,0-1.253-0.228-1.675-0.682s-0.633-1.104-0.633-1.951c0-0.548,0.091-1.026,0.271-1.438
				c0.183-0.411,0.458-0.719,0.829-0.924c0.371-0.206,0.775-0.31,1.211-0.31c0.552,0,1.001,0.141,1.353,0.418
				c0.35,0.278,0.575,0.676,0.673,1.188l-0.836,0.129c-0.08-0.341-0.221-0.598-0.423-0.771c-0.202-0.172-0.447-0.258-0.733-0.258
				c-0.433,0-0.785,0.155-1.056,0.466c-0.271,0.312-0.406,0.803-0.406,1.475c0,0.682,0.13,1.177,0.392,1.485
				c0.262,0.31,0.603,0.464,1.022,0.464c0.338,0,0.62-0.104,0.846-0.312C72.267,131.474,72.41,131.157,72.471,130.727z"/>
			<path d="M75.929,131.816l0.125,0.761c-0.242,0.051-0.459,0.075-0.65,0.075c-0.312,0-0.554-0.049-0.726-0.146
				c-0.173-0.099-0.294-0.229-0.363-0.39c-0.07-0.161-0.105-0.499-0.105-1.017v-2.919h-0.631v-0.669h0.631v-1.256l0.855-0.518v1.772
				h0.865v0.669h-0.865v2.967c0,0.246,0.015,0.403,0.045,0.475c0.03,0.07,0.08,0.126,0.147,0.167
				c0.068,0.041,0.166,0.062,0.293,0.062C75.648,131.85,75.774,131.839,75.929,131.816z"/>
		</g>
	</g>
	<g>
		<g enable-background="new    ">
			<path d="M241.773,132.586v-7.004h0.926v7.004H241.773z"/>
			<path d="M244.223,132.586v-5.074h0.773v0.722c0.372-0.558,0.91-0.836,1.614-0.836c0.306,0,0.587,0.056,0.843,0.165
				c0.257,0.109,0.449,0.254,0.576,0.433s0.217,0.391,0.268,0.636c0.031,0.159,0.049,0.438,0.049,0.836v3.12h-0.86V129.5
				c0-0.352-0.033-0.612-0.1-0.786c-0.067-0.174-0.187-0.312-0.356-0.416c-0.17-0.104-0.37-0.155-0.6-0.155
				c-0.366,0-0.684,0.116-0.948,0.35c-0.266,0.232-0.398,0.674-0.398,1.322v2.771H244.223z"/>
			<path d="M252.976,130.727l0.846,0.109c-0.093,0.583-0.329,1.039-0.709,1.369c-0.381,0.33-0.849,0.494-1.402,0.494
				c-0.694,0-1.254-0.228-1.676-0.682s-0.633-1.104-0.633-1.951c0-0.548,0.092-1.026,0.271-1.438
				c0.183-0.411,0.458-0.719,0.829-0.924c0.371-0.206,0.775-0.31,1.211-0.31c0.552,0,1.002,0.141,1.354,0.418
				c0.351,0.278,0.575,0.676,0.673,1.188l-0.836,0.129c-0.079-0.341-0.221-0.598-0.422-0.771c-0.203-0.172-0.447-0.258-0.734-0.258
				c-0.433,0-0.785,0.155-1.055,0.466c-0.271,0.312-0.406,0.803-0.406,1.475c0,0.682,0.13,1.177,0.392,1.485
				c0.262,0.31,0.603,0.464,1.022,0.464c0.338,0,0.619-0.104,0.846-0.312C252.772,131.475,252.916,131.157,252.976,130.727z"/>
			<path d="M254.238,130.049c0-0.939,0.261-1.636,0.783-2.088c0.437-0.376,0.969-0.563,1.596-0.563c0.697,0,1.269,0.229,1.711,0.687
				s0.664,1.089,0.664,1.895c0,0.652-0.099,1.166-0.295,1.541c-0.195,0.374-0.48,0.664-0.854,0.871
				c-0.373,0.207-0.781,0.312-1.226,0.312c-0.711,0-1.284-0.229-1.723-0.684C254.457,131.561,254.238,130.906,254.238,130.049z
				 M255.122,130.049c0,0.65,0.143,1.137,0.425,1.46c0.283,0.323,0.642,0.484,1.07,0.484c0.427,0,0.781-0.162,1.065-0.487
				c0.283-0.324,0.425-0.819,0.425-1.485c0-0.628-0.144-1.103-0.428-1.427c-0.285-0.323-0.64-0.484-1.062-0.484
				c-0.43,0-0.787,0.161-1.07,0.482C255.263,128.914,255.122,129.399,255.122,130.049z"/>
			<path d="M259.99,132.586v-5.074h0.773v0.771c0.196-0.359,0.38-0.599,0.547-0.713c0.168-0.113,0.352-0.172,0.553-0.172
				c0.289,0,0.584,0.094,0.883,0.277l-0.296,0.798c-0.21-0.124-0.421-0.187-0.63-0.187c-0.188,0-0.357,0.057-0.507,0.17
				c-0.149,0.111-0.257,0.27-0.32,0.47c-0.096,0.307-0.144,0.641-0.144,1.004v2.656H259.99z"/>
			<path d="M263.248,132.586v-5.074h0.773v0.771c0.198-0.359,0.381-0.599,0.548-0.713c0.167-0.113,0.351-0.172,0.552-0.172
				c0.289,0,0.584,0.094,0.884,0.277l-0.296,0.798c-0.211-0.124-0.421-0.187-0.631-0.187c-0.188,0-0.356,0.057-0.506,0.17
				c-0.15,0.111-0.257,0.27-0.32,0.47c-0.096,0.307-0.144,0.641-0.144,1.004v2.656H263.248z"/>
			<path d="M269.989,130.952l0.889,0.108c-0.14,0.521-0.398,0.923-0.777,1.209c-0.379,0.287-0.863,0.431-1.453,0.431
				c-0.742,0-1.33-0.229-1.767-0.687c-0.434-0.457-0.65-1.098-0.65-1.923c0-0.854,0.22-1.516,0.659-1.987
				c0.438-0.471,1.01-0.707,1.711-0.707c0.678,0,1.231,0.23,1.662,0.692c0.43,0.462,0.645,1.112,0.645,1.949
				c0,0.052-0.001,0.128-0.004,0.229h-3.784c0.032,0.559,0.189,0.984,0.473,1.28c0.284,0.297,0.639,0.444,1.062,0.444
				c0.313,0,0.584-0.082,0.807-0.248C269.684,131.577,269.859,131.315,269.989,130.952z M267.166,129.561h2.833
				c-0.038-0.427-0.146-0.747-0.325-0.96c-0.272-0.331-0.629-0.497-1.063-0.497c-0.396,0-0.729,0.132-0.997,0.396
				S267.194,129.119,267.166,129.561z"/>
			<path d="M275.269,130.727l0.846,0.109c-0.094,0.583-0.33,1.039-0.71,1.369c-0.381,0.33-0.849,0.494-1.402,0.494
				c-0.693,0-1.253-0.228-1.675-0.682s-0.633-1.104-0.633-1.951c0-0.548,0.091-1.026,0.271-1.438c0.183-0.411,0.46-0.719,0.83-0.924
				c0.371-0.206,0.774-0.31,1.211-0.31c0.552,0,1.003,0.141,1.353,0.418c0.351,0.278,0.575,0.676,0.674,1.188l-0.836,0.129
				c-0.08-0.341-0.221-0.598-0.423-0.771c-0.202-0.172-0.446-0.258-0.733-0.258c-0.434,0-0.785,0.155-1.056,0.466
				c-0.271,0.312-0.406,0.803-0.406,1.475c0,0.682,0.13,1.177,0.393,1.485c0.262,0.31,0.602,0.464,1.021,0.464
				c0.338,0,0.62-0.104,0.846-0.312C275.065,131.474,275.209,131.157,275.269,130.727z"/>
			<path d="M278.727,131.816l0.124,0.761c-0.242,0.051-0.459,0.075-0.649,0.075c-0.312,0-0.554-0.049-0.726-0.146
				c-0.173-0.099-0.294-0.229-0.363-0.39c-0.07-0.161-0.105-0.499-0.105-1.017v-2.919h-0.631v-0.669h0.631v-1.256l0.855-0.518v1.772
				h0.864v0.669h-0.864v2.967c0,0.246,0.015,0.403,0.045,0.475c0.03,0.07,0.08,0.126,0.148,0.167
				c0.067,0.041,0.166,0.062,0.293,0.062C278.445,131.85,278.572,131.839,278.727,131.816z"/>
		</g>
	</g>
	<path stroke="#000000" stroke-width="0.0618" stroke-linecap="round" stroke-linejoin="round" d="M21.944,48.415l-0.413,8.96
		c2.122-2.535,4.598-3.95,7.957-4.303L21.944,48.415z"/>
	<line fill="none" stroke="#000000" stroke-width="1.0001" x1="23.771" y1="52.247" x2="33.026" y2="69.576"/>
	<path stroke="#000000" stroke-width="0.0618" stroke-linecap="round" stroke-linejoin="round" d="M103.581,53.485l-8.782,1.945
		c2.947,1.414,5.012,3.359,6.248,6.542L103.581,53.485z"/>
	<line fill="none" stroke="#000000" stroke-width="1.0001" x1="100.339" y1="56.255" x2="86.016" y2="69.753"/>
	<path stroke="#000000" stroke-width="0.0618" stroke-linecap="round" stroke-linejoin="round" d="M224.768,43.641l7.722,4.539
		c-1.238-3.064-1.356-5.836-0.06-9.02L224.768,43.641z"/>
	<line fill="none" stroke="#000000" stroke-width="1.0001" x1="229.012" y1="43.818" x2="243.983" y2="43.818"/>
	<path stroke="#000000" stroke-width="0.0618" stroke-linecap="round" stroke-linejoin="round" d="M305.874,46.824l-7.722-4.539
		c1.18,3.064,1.297,5.835,0.06,9.02L305.874,46.824z"/>
	<line fill="none" stroke="#000000" stroke-width="1.0001" x1="301.571" y1="46.647" x2="286.659" y2="46.647"/>
</g>
</svg>
