<?xml version="1.0" encoding="utf-8"?>
<!-- Generator: Adobe Illustrator 15.1.0, SVG Export Plug-In . SVG Version: 6.00 Build 0)  -->
<!DOCTYPE svg PUBLIC "-//W3C//DTD SVG 1.1//EN" "http://www.w3.org/Graphics/SVG/1.1/DTD/svg11.dtd">
<svg version="1.1" id="Layer_7" xmlns="http://www.w3.org/2000/svg" xmlns:xlink="http://www.w3.org/1999/xlink" x="0px" y="0px"
	 width="327.324px" height="178.289px" viewBox="0 0 327.324 178.289" enable-background="new 0 0 327.324 178.289"
	 xml:space="preserve">
<metadata><?xpacket begin="﻿" id="W5M0MpCehiHzreSzNTczkc9d"?>
<x:xmpmeta xmlns:x="adobe:ns:meta/" x:xmptk="Adobe XMP Core 5.0-c060 61.134777, 2010/02/12-17:32:00        ">
   <rdf:RDF xmlns:rdf="http://www.w3.org/1999/02/22-rdf-syntax-ns#">
      <rdf:Description rdf:about=""
            xmlns:dc="http://purl.org/dc/elements/1.1/">
         <dc:format>image/svg+xml</dc:format>
         <dc:title>
            <rdf:Alt>
               <rdf:li xml:lang="x-default">8B-2</rdf:li>
            </rdf:Alt>
         </dc:title>
      </rdf:Description>
      <rdf:Description rdf:about=""
            xmlns:xmp="http://ns.adobe.com/xap/1.0/"
            xmlns:xmpGImg="http://ns.adobe.com/xap/1.0/g/img/">
         <xmp:CreatorTool>Adobe Illustrator CS5.1</xmp:CreatorTool>
         <xmp:CreateDate>2015-02-12T17:08:21+02:00</xmp:CreateDate>
         <xmp:ModifyDate>2015-02-12T17:08:21+02:00</xmp:ModifyDate>
         <xmp:MetadataDate>2015-02-12T17:08:21+02:00</xmp:MetadataDate>
         <xmp:Thumbnails>
            <rdf:Alt>
               <rdf:li rdf:parseType="Resource">
                  <xmpGImg:width>256</xmpGImg:width>
                  <xmpGImg:height>140</xmpGImg:height>
                  <xmpGImg:format>JPEG</xmpGImg:format>
                  <xmpGImg:image>/9j/4AAQSkZJRgABAgEAyADIAAD/7QAsUGhvdG9zaG9wIDMuMAA4QklNA+0AAAAAABAAyAAAAAEA&#xA;AQDIAAAAAQAB/+4ADkFkb2JlAGTAAAAAAf/bAIQABgQEBAUEBgUFBgkGBQYJCwgGBggLDAoKCwoK&#xA;DBAMDAwMDAwQDA4PEA8ODBMTFBQTExwbGxscHx8fHx8fHx8fHwEHBwcNDA0YEBAYGhURFRofHx8f&#xA;Hx8fHx8fHx8fHx8fHx8fHx8fHx8fHx8fHx8fHx8fHx8fHx8fHx8fHx8fHx8f/8AAEQgAjAEAAwER&#xA;AAIRAQMRAf/EAaIAAAAHAQEBAQEAAAAAAAAAAAQFAwIGAQAHCAkKCwEAAgIDAQEBAQEAAAAAAAAA&#xA;AQACAwQFBgcICQoLEAACAQMDAgQCBgcDBAIGAnMBAgMRBAAFIRIxQVEGE2EicYEUMpGhBxWxQiPB&#xA;UtHhMxZi8CRygvElQzRTkqKyY3PCNUQnk6OzNhdUZHTD0uIIJoMJChgZhJRFRqS0VtNVKBry4/PE&#xA;1OT0ZXWFlaW1xdXl9WZ2hpamtsbW5vY3R1dnd4eXp7fH1+f3OEhYaHiImKi4yNjo+Ck5SVlpeYmZ&#xA;qbnJ2en5KjpKWmp6ipqqusra6voRAAICAQIDBQUEBQYECAMDbQEAAhEDBCESMUEFURNhIgZxgZEy&#xA;obHwFMHR4SNCFVJicvEzJDRDghaSUyWiY7LCB3PSNeJEgxdUkwgJChgZJjZFGidkdFU38qOzwygp&#xA;0+PzhJSktMTU5PRldYWVpbXF1eX1RlZmdoaWprbG1ub2R1dnd4eXp7fH1+f3OEhYaHiImKi4yNjo&#xA;+DlJWWl5iZmpucnZ6fkqOkpaanqKmqq6ytrq+v/aAAwDAQACEQMRAD8A9U4q7FXYq7FUNqOp6dpl&#xA;lLf6ldQ2VlAvKe6uHWKJF8WdyFH04q8uufz9TWLuTT/y28uX3nK5jJSS/jH1PTI36Ua7mFCR1pSh&#xA;HQ4q4eWP+chfMX7zWfNeneUbVx/vBolr9bm4n9l7i5Pwt7oSMVXL/wA476PdgN5h82eZtekIpIt1&#xA;qTrCR4LHGFKih6csVXj/AJxd/JJiWuNBkupT1lmv78vToBVZ1xVr/oWf8tYAP0W+q6Qy/Yex1K5Q&#xA;qAagD1Gk6dsVSmD8t/zJ07zHe6Z5T/MnVUg0+0tbgDXUi1VZJLmS4UwlnCFAqQKagV+IYqj389/n&#xA;d5SFfN3lCHzJpsf95q3liRmlVB3ayn/eMadeJVRirL/JH5r+Q/OqlNC1SOS+jr6+lz1gvIyuzBoJ&#xA;KP8ACdiy1X3xVl2KuxV2KuxV2KuxV2KuxV2KuxV2KuxV2KuxV2KuxV2KuxV2KuxV2KuxV51+YH5w&#xA;2mg6pH5X8t2EnmbzxdD/AEfRbUjjCCP727l+zEg6mu/jQHliqS6R+Smq+Zb2HX/zb1P9P6gpElt5&#xA;cty0ekWh7KIgR6zDuzdeh5dcVes2VlZ2NrFaWUEdraQrxht4UWONFHZUUBQPliqtirsVdirsVY75&#xA;THr3/mLUqVS61NoYGP8AvuyhitGUewnhlP04qyLFWE+e/wAnvJPnIi6vbU2OuRHna69p5+rX0UgF&#xA;Fb1U+3x7B6jwxVha+d/zE/KydLP8wlfzJ5MLCO2852kZNzbAnio1CBakj/LG/u5NAq9h0zVNO1XT&#xA;4NR025jvLC6QSW9zCweN0PQqw2xVE4q7FXYq7FXYq7FXYq7FXYq7FXYq7FXYq7FXYq7FXYq7FXYq&#xA;8o/MP8w/MepeYz+XH5cGKTzPJEZNZ1mQ8rfSrdtuTUrWc1HFabbbGuyrKfy5/LLy75E0x7fTw11q&#xA;d2fV1bWbk87u7mO7PK5qaciSFrQe5qSqy7FXYq7FXYq7FWndI0aRyFRAWZj0AG5JxVj/AOXyOPJu&#xA;l3EgKzahEdRnU9RLfu13ID8nmOKshxV2KrLi3guIJLe4jWaCVSksUihkZWFCrKaggjtirxHWvLvm&#xA;D8mL+48z+T4pNR/LyZ/W8xeVQxaSyBJL3dhyOyr1dPDr8O6KvYdA1/SPMGjWms6Pcpd6bfRiW3nQ&#xA;1BU9iOzKdmU7g7HFUwxV2KuxV2KuxV2KuxV2KuxV2KuxV2KuxV2KuxV2KuxV51+cP5gapoNpYeW/&#xA;K8YuvPHmaQ2ui2+xEK0/e3cvgkS71PffcBsVTf8ALL8udM8ieXRp9u5u9TumNzrOrS7zXd2+7yux&#xA;q1Kk8QTsPcklVl2KuxV2KuxV2KuxVIPP0sqeTdXjgbhc3du1lauOonvKW0JH/PSVcVTyGGKCGOGJ&#xA;QkUShI0HQKooAPoxVfirsVdirTKrKVYBlYUZTuCD2OKvDp4n/JPzwl1BVfyt813QS6h6R6PqUv2Z&#xA;FHRbeXv2FP8AJUMq9yBBFRuD0OKuxV2KuxV2KuxV2KuxV2KuxV2KuxV2KuxV2KuxVDanqNlpmnXW&#xA;pX8qwWVlC9xdTt9lIolLux+SiuKvKfyU0i98y6rqf5t6/CV1DX62/ly2kG9ppEbERBR2aanJj36j&#xA;7RxV6/irsVdirsVdirsVdirHfN/7+48v6b1W91WF5R3C2Mcl+rU8PVtUH04qyLFXYq7FXYq7FUr8&#xA;0eWtI8z+X77QdXhE+n6hEYZ07iu6up7MjAMp7EYq8/8AyM8w6rb2+qfl15jl9TzH5MkFtHMwIN1p&#xA;rD/Q7la9fgop8BxrucVeqYq7FXYq7FXYqhrTUrG7uL23tpRJNp0wtr1ACPTlaGO4CGo3/dTo23ji&#xA;qJxVDNqViupR6Y0oF9LC9zHBQ1MUbqjvWlNmkUde+KrX1fTk1eLR2mA1Ke3ku4rehq0ELxxyPWnH&#xA;4XmQde+KqqXtu97LZKxNzBHHNInFgAkzOqHkRxNTC2wNR36jFVmmalY6pptpqdhKJ7G+hjubScAg&#xA;PFMgeNwGAPxKwO4xVdfX1nYWsl3eTLBbRAGSVzRRU0G/uTTFVfFXYq7FXkv5+3N3rCeXPy20+Qx3&#xA;PnK+Ed/Ih+OPTLOk12wp0JFKV2IqMVeqWVla2NnBZWkSw2lrGkNvCuypHGoVFHsFFMVVsVdirsVd&#xA;irsVdirsVYnc6lY3P5pWGk+qpu9O0e6v2tyfipdXEMEcgH+SIJVP+tirLMVdirsVdirsVdirxv8A&#xA;OGQeT/zB8pfmPasFj9QaD5kStFawu2PoyykfZWGapqep4+GKvWvqTS/HcyyFz+xFI8SL7DgVJ+bf&#xA;h0xV36Mtv55/+kif/mvFXfoy2/nn/wCkif8A5rxV36Mtv55/+kif/mvFV8NlDC/NGlJ6UeaVx9zs&#xA;wxVgeq6D57E3nay0uysntvMzvNZajPdyxmJ20m2sQskMUXOnq2v2kkqAa9RTFWAw/kR5sm0++tLu&#xA;KyWL6vrMmkQCdeNve31pYR2bqLe2s4k9K4s5JKpHVeVfiarFVMvMH5Ja3PqV3HpVpYLpri+i0mSW&#xA;5nifTjdizZLu3VI5KzRS28rgclqW+1ucVUn/ACX83nXp74w6dJVLpby6a5lWTWEm1i21BYrwCAmJ&#xA;WtoWgNC/QCnDbFVdfyi85t6cl5Fp99ZJJBI3luW6mFmYVuNYkW09b0CxW1XU7doz6dCY6UHFTiqY&#xA;ebfyo8yar+WXk/y5a/VJNT8vWlvBP60vGD1orH6tzUPb3KuFk3B4K4HxI6tiqG1X8r/PWoWd1pt1&#xA;Hp91aRfpCW3eS4lYXMl7c292iSRSQv6YjaBkDFn7HFW778r/ADrq0ken6lDYrocdzeu6R3UrvNBq&#xA;PmOx1eWJ0MKKojtLeWFaManwBxVNPI35X6/5d/MDUNblu1OlTfXFhjjlj+OGedHtIWgW0hdRaxJw&#xA;XncSAfsBQzAKvUcVeS+WB/iL/nIXzXrMlHtfKOnWuiWHdfWu63Nw6/5S7ofY4q9axV2KuxV2KuxV&#xA;2KuxVbLLFDE8srrHFGpeSRyFVVUVJJOwAGKvgLVfzy1Zfzzn/MXT2Z7eO69O3tGJQSaag9EQsPjC&#xA;mSIcj1o55dcVfd3lzzBpPmLQ7LXNInFzp2oRLNbyr/K3VWHZlNVZeoIIOKpjirsVdirsVQv1iW52&#xA;tDxh73VAQf8AjGP2j/lH4fn0xVjX5neT7fzF+W/mLQUj5y3lnK0Jb4ma5iHqwMxO5IljXFVv5PeZ&#xA;n8z/AJYeW9akf1J7iyjjuZP5p7esEzfTJE2KsxxV2KuxV2KuxV2KuxV2KuxV2KuxV2KuxV2KvJ/+&#xA;cd1+t6N5s8wNQvr3mbUrtHHQxK6xxqOoovFqYq9YxV2KuxV2KuxV2KuxV4r/AM5W/mGPK/5cSaPa&#xA;y8NV8ylrKIDqtqADdP0IoUYR/wCzqOmKvhXFXvH/ADjJ+ea+TNV/wx5gn4+V9SkrDcOfhsrlqD1C&#xA;T0ifo/gfi2+Kqr7bR1dQ6EMjAFWBqCD0IOKt4qwL86PzTsPy68mz6o/GXVrmtvo9mTvJcEfaI/kj&#xA;ryf7upGKrvyp85nz75OsdVvIriC4SNItQtZoJIFa4VR6jcmRElRj8QCfCAaNv0VZ3irsVeT/APOO&#xA;YFn5d8zeXgAqeXvMuqafCm/90siyId96EyGmKvWMVdirsVdirsVdirsVdirsVdirsVdirsVdiryr&#xA;/nF0FvyS0G4Y1lupL+aU9uZv51NAP9XFXquKuxV2KuxV2KuxVZPPDBDJPPIsUESl5ZXIVVVRVmZj&#xA;sAB1OKvgv8zb/wA6/nR+Yt9qflrR73VNJtWFjpRghcxpbRseLyOVVUMrMZDzO3KnbFU+8sf84bfm&#xA;ZqRSTW7my0KAtSSN5PrVwB4qkHKI/wDI0YqnHlf8j/yY038xbvyJ501a+fX7d4W04s8dpY38U0Sy&#xA;KFIVpEk5MU4GXcj4ScVfTGnflr5W02xgsLBtTtrK1QRW9vHq+qqiIOiqv1qgA7YqiT5G0am11qwP&#xA;Y/pjVDT77kjFULcflvoVzeQX1zcX017agi1upLqR5YgxBPpuastSo6HFUV/g22/6uuq/9J8//NWK&#xA;u/wbbf8AV11X/pPn/wCasVd/g22/6uuq/wDSfP8A81YqwL8jrNbHzb+ZtnHLLLFFroZTM5kYs8IZ&#xA;mLHqT3OKvXcVdirsVdirsVdirsVdirsVdirsVdirsVdiryn/AJxnpB+Wr6XTi2karqVi6bgKUuWk&#xA;oAen950xV6tirsVdirsVdiqjfX1nYWc17ezJbWlsjSzzysFREUVZmY7AAYqxUWN55zb1dUge08pg&#xA;1g0qZSk2oUNVkvEYBkgNPhgO7j+82/d4qy2C3gt4Ugt41hgiULHFGoVFUbAKooAMVX4qwDzT+S/l&#xA;HzN54h836vaxX91a2SWlvYXEYa2Z45WkEkymokqr8KMpoN9zSirOrR4Wt09FPTjQcBFQLw4fDwoN&#xA;hxpTbFVXFXYq7FXYq7FXlP5EH61qH5j6pSqXPm2/gic1JZLZY0Ugn9nfbwxV6tirsVdirsVdirsV&#xA;dirsVdirsVdirsVdirsVeTflAf0R+Yv5neVWHDjq0eu2w/mTVYg7lfZWRQcVes4q7FXYq7FUHq2r&#xA;6dpFi99qEwgtkKryoWZndgqIiKCzu7EKqqCSdhiqQWWj6h5hu4NX8xwG3s4GWbSfL7kMI2Aqtxe0&#xA;qsk46qgJSP8AynowVZXirsVdirsVQtx/o0pux/ctT60PAAbSfNejf5PyGKorFXYq7FXYqg9a1S30&#xA;nR7/AFW5NLbT7eW6mNafBChkbf5Lirz7/nG/TLiz/KTSbu7Wl9rMlxqt0RX4mu5mdG38YuGKvTcV&#xA;dirsVdirHbv8wfKNprUmjXN60d9FcQ2ktYLj0UuLlY3hie4EfoKzieOgL/tDucVZAZI1BZmAUGhJ&#xA;IpUmlMVQ1nq2nXst5Fa3CyyafOLS8Uf7rnMccvpmvfhMh+nFVWS7gjuYrZifWm5GMBWYUUVPJgCq&#xA;+3IivbFVUOhCkMKN9k167V2+jFUv0zzBpOqXF9BYytK+nTm0umMUqRidRV40kdVSUp0b02bidjQ4&#xA;qiL7UrGwiWa8mWGNpYIFZv8Aft1MsEK7fzyyKo9ziqIDoeVGB4Gj79DQGh8NjXFVsk0UcTSuwEaK&#xA;XZv8lRUnbFUDovmHRtbtjdaXdLcwBlQuoZfieJJ1FGCneKVW+nFXmXnyRfKX53eUPNxrHpnmSGTy&#xA;xq0n7Cys3rWTHtVpPhr2VcVevYq7FXYqluveYLHRbRZrkPNPO3pWVlAvO4uZuJYRQpUcmIUnegUV&#xA;ZiFBOKpInkxteWa884olzcXEUkNtpkbE29jFKpVvSccWa4Kn4p9iOicRXkq83/L/APKL8wfKv5mX&#xA;Ru/Meq6r5LtYTc6PbSX86xvK8gHpXEfIoWiFTSgWTY9OS4q9vgvIZXMdSk4FWgccXAGxND1Wu3Ja&#xA;j3xVWxV2KuxV2KoQaXaKKKZlUdFWeZVA8AA9APADFW/0Zbfzz/8ASRP/AM14q79GW388/wD0kT/8&#xA;14q79GW388//AEkT/wDNeKvLP+chpXXyfaeU9LlmGt+c76DR7MGaZ+MUjhriVkZ6FFjHFv8AWxV6&#xA;TpflvTdM0y00209aO1soY7e3QTzALHEgRAAHpsq4qiv0Zbfzz/8ASRP/AM14q79GW388/wD0kT/8&#xA;14q79GW388//AEkT/wDNeKuGm24IIeeo33uJyPuL4qxJPyzsbvzHrur6xLNNFf6nb6jp9nFdXC26&#xA;m1sbSCOSa2BWB5UntWdeSuKcD1FAq8+uPyG8zSaP9TEekK0MVlF6Ucsipe3NpFdRvqd0ZbS5iFxL&#xA;9aHJHgmBANX5BGRVS1P/AJx+803UU8ZuNNlE0xuJijG2WaabTrW0aVla1u+Bt5raWSLieTCVvjjb&#xA;cqptc/kbqz2t56U1iNRvb6/ub2+b1BJdwTlTBDcuI+bKRzSQVPEO3GtcVTvyR+VEmk+Z117VbPTV&#xA;9GO5/Ren2nKWLTWuZg/p2hkihAXgpq6ohqzAKFOKpRrH5KanMbr6hDpKteT6o0U8odHsGv7tZ4b+&#xA;14RHldRRIF4kr0AD8agquufyRvUiWazttKlvjO93dicuq3Ug1+HVYlmkEEjU+rRyQ8irceVACuKp&#xA;dov5EeZE8wG71kaVNps1xbTX9vEdrn6vdSTlniWzt1PMSkcZXkbrykblsqqQ/kV5lh1nSbtLy09H&#xA;T44IoyJCptYreSVjBbqbVnMcySBWpNHTequKUVQt9+QXm24s7KE6haMbdSgj9VlSGQ2tjCt3EzWs&#xA;zmVHsnoF9NqFaSL8QKr0381fI6edfIup6CreleyIJtMuK8TFeQH1IHDDdfjHFiP2ScVQv5Pee285&#xA;eSbW9uwYtcsWbT9etWoHivrb4JeSj7PP7YHvTtirN8VSfX/MkOlGC1hha/1i9qLDTIiBJJxIDyOx&#xA;qI4Y+Q9SRth03YqpVUdA8tzW1y2s6zMt95iuE4SXCgiG3jJqbe0Rt0ir9pj8Uh3Y7KFVT7FXYqpz&#xA;28M6BZV5AHkp6FW/mUjcH3GKqPG9t/sH61CP2CQJR8mNFb/ZUPucVVYLqGfkI2+NKc42BV1r05Ka&#xA;EV7Yqq4q7FXYq7FXYq7FXjfk6QfmH+cepedR+88s+Tkk0Xy49apNfSf723SUqCOJ4BuhXicVeyYq&#xA;7FXYq7FXYq7FXYq7FXYq7FXYq7FXYq7FXYq7FXivnaOf8rPzEH5h2cbHyb5kaO08528YqLe4rxg1&#xA;AKvarUf5nu4oq9I1bzXV4dO8urHqms3kKz24DE20EEgJjurqRK8Ymp8AHxSHZdgzKqivL/luDSvX&#xA;uppmv9YvaHUNUmAEkvGpWNQNo4Y6n04l2XruxZiqnGKuxV2KuxV2KqU9rBPxMi/GlfTkUlXWvXiw&#xA;oRXvTriqlyvbf7Q+tRfzCiyj5r8Kt9FPkcVVoLiCdS0ThuJow6Mp8GU7qfY4qqYq7FXYq8s/Ojzn&#xA;q4Nl+XnlB6+cvNFYvVUn/QLA7T3khXdaLUJ36kbgAqs48l+UdJ8oeV9O8uaUnGz0+IRqxADSOfik&#xA;len7Ujks3ucVTvFXYq7FXYq7FXYq7FXYq7FXYq7FXYq7FXYq7FXYqhdU0yw1XTbrTdQhW4sbyJ4L&#xA;mBxVXjkBVlIPscVeG+WLyT8ivMI8q6+3reQdcuOWh+Z3UCS2nKhBa6g6hVICIAj9gOy1CKve1ZWU&#xA;MpDKwqrDcEHuMVbxV2KuxV2KuxV2KuxVRntIZmDmqTKKLMh4uB1pXuK78WqPEYqp+reW/wDfL68Q&#xA;/wB2xA8x/rRitfmv/A4qrwzRTIJInDoe433HUYqwb81PzUsfJNjBaWkB1Xzbqp9LQdBiq0s8rHiH&#xA;cLusanqe/Qeyqj+VH5a3nlwX3mPzLcLqfnvzARLrOodViXYraW9fsxR0A2pWg7KtFXoWKuxV2Kux&#xA;V2KuxV2KuxV2KuxV2KuxV2KuxV2KuxV2KuxVAa7oWka/pF1o+sWqXum3qGO4t5BVWU/iCDuCNwdx&#xA;virx2OXzv+SbmKdbnzV+Vin9zOv7zUtHjr0cf7ut1HfsP5aUZV675a80+XvM+kxavoF/FqGnzfZm&#xA;hatDSpV1PxI4rurAEYqmmKuxV2KuxV2KuxV2KuxV5J53/NtJNafyt+W9p/iLzw/wzT25H1GxA+Ey&#xA;Xsw/dtw6cPoqGoCqmP5d/li3lbULrzJ5lnfzD5z1If6drxBkESnc29tCByiiB+EcF3HXiKKFXoH6&#xA;Ttv5J/8ApHn/AOaMVd+k7b+Sf/pHn/5oxV36Ttv5J/8ApHn/AOaMVd+k7b+Sf/pHn/5oxV36Ttv5&#xA;J/8ApHn/AOaMVd+k7b+Sf/pHn/5oxVw1K3JACT1O29vOB95TFXm+veefNmnefJUluIofKkF/Y2Au&#xA;I4Yri3BuViEsV7Mk31i1uDJcD0uUXp0KcjuSFVmifnnNrMyWVn5dkOo3clounQtccYZY7yG8uA7X&#xA;LRLH8Memy7xeojNQI7bkKpBqX56ebJtKuNX0PTbdrU6fc6gsV3JvAItHiv0FY1/egNIS245dAR1x&#xA;VN9b/O69g1C80aLS/qt7EJUgvllNzD69pLClxGSI0iNPWYDjIXFPjRDtirIfOP5qR+WfM0WjTaW8&#xA;tvJbrP8ApFpDFEZJPVCQI3pvH6n7n7LurHkOCvviqSax+dN/Dc6YdO0mKa2ksY9U1JJLjjIsU2m3&#xA;N+sUZCEc1FruSN/AVriqY6v+cIsNa/RsOjtcrGJJru4+sKgjtoLGC/mlC8GLssdzRUH2iPfZVO/I&#xA;HnuTzZBdtPpNzpE9qYW9K5SVQ8VxH6kboZY4Se6tRaAjYkUOKsrxV2KuxV2KuxVxAIodweoxV5Z5&#xA;i/Iu0j1aXzH+XuqS+S/Mkm831RQ+n3JrWlxaH92an+XbvxJxVAr+bX5ieT6QfmV5Rmks4hR/M/l4&#xA;G7syBt6ksBpJCPEsfkuKsz8rfm3+W3mlEOieYbO4lfpavIILj/kRN6cv/C4qy7FXYq7FUDq2u6Jo&#xA;1sbrV9QttOthuZrqZIU2/wAqQqMVeb6l/wA5F+T5Lt9M8nWV/wCdNXXb6vpEDtCp8ZLhwEVP8peQ&#xA;xVASeSvzh/MOv+N9VXyh5al+15a0SQPdyoeqXV7uPYhKqfAYq9L8peTPK/lHSU0ry7p0WnWS7ssY&#xA;JZ26cpJGJeRvdiTiqdYq7FXYq7FXYq7FXYq7FUluvJXlG712PX7nR7SbWYuJS/eJDLWMURixG7IP&#xA;ssdx2xVI9X/J7yPe6W9hY2EGkLJJE8klpbWr8xCGWON47iKeJkQSHipX4duNKYqj7L8tPJFrpFpp&#xA;R0m3uba0hW3RriNZJHUWwtCZGI+IvAODeI2xVfD+W3kGG4a5i0CyWdhQyCFeVCAD/wAFxHLxO53x&#xA;VHah5S8salqtvq1/pdrdalagLBdzRK8ihSxXcjfgXYrX7NTTriqBtfy28gWsAt7fy9p8cAkSYRi3&#xA;j4+pGrojUp+ykzoPBTx6bYqr6V5D8maQUOmaLZ2hT1OJihVT++RY5O37SRqp9gBiqL0Ly15f0C3k&#xA;t9F06306GVucsdtGsYZgAoJ4jsoCjwGw2xVMsVdirsVdirsVdirsVdiryP8AMz/oWj1Jf8bfoT69&#xA;v63p0+v9f2vqf+k9fHFXla/8qp4n/lX/APysf6vT9z/hj616HGhpT6x8XHFV7/8AK09/0f8A8rK9&#xA;PifrP1r6ry47f3XL9rr03xVz/Xfi/wAS/wDK3vqnw/3fH0KV39b0velO+Kpt5V/6FD+vj69X9M8v&#xA;3v8Aif656nt6n1n/AEbFX0L5d/w1+i4v8OfU/wBFf7p/R3pfV+g+z6PwdKdMVTLFXYq7FXYq7FXY&#xA;q7FXYq7FXYq7FXYq7FXYq7FXYq7FXYq7FXYq/wD/2Q==</xmpGImg:image>
               </rdf:li>
            </rdf:Alt>
         </xmp:Thumbnails>
      </rdf:Description>
      <rdf:Description rdf:about=""
            xmlns:xmpMM="http://ns.adobe.com/xap/1.0/mm/"
            xmlns:stRef="http://ns.adobe.com/xap/1.0/sType/ResourceRef#"
            xmlns:stEvt="http://ns.adobe.com/xap/1.0/sType/ResourceEvent#">
         <xmpMM:DocumentID>xmp.did:9DCC6E7E3D20681188C69098C6AB8D67</xmpMM:DocumentID>
         <xmpMM:InstanceID>xmp.iid:9DCC6E7E3D20681188C69098C6AB8D67</xmpMM:InstanceID>
         <xmpMM:OriginalDocumentID>uuid:8D63A1CF0126DF118833972942CE57BD</xmpMM:OriginalDocumentID>
         <xmpMM:RenditionClass>proof:pdf</xmpMM:RenditionClass>
         <xmpMM:DerivedFrom rdf:parseType="Resource">
            <stRef:instanceID>uuid:9cf51ab6-00cb-1b4b-9b74-ed7833d59133</stRef:instanceID>
            <stRef:documentID>xmp.did:9CCC6E7E3D20681188C69098C6AB8D67</stRef:documentID>
            <stRef:originalDocumentID>uuid:8D63A1CF0126DF118833972942CE57BD</stRef:originalDocumentID>
            <stRef:renditionClass>proof:pdf</stRef:renditionClass>
         </xmpMM:DerivedFrom>
         <xmpMM:History>
            <rdf:Seq>
               <rdf:li rdf:parseType="Resource">
                  <stEvt:action>saved</stEvt:action>
                  <stEvt:instanceID>xmp.iid:9CCC6E7E3D20681188C69098C6AB8D67</stEvt:instanceID>
                  <stEvt:when>2015-02-12T17:07:30+02:00</stEvt:when>
                  <stEvt:softwareAgent>Adobe Illustrator CS5.1</stEvt:softwareAgent>
                  <stEvt:changed>/</stEvt:changed>
               </rdf:li>
               <rdf:li rdf:parseType="Resource">
                  <stEvt:action>saved</stEvt:action>
                  <stEvt:instanceID>xmp.iid:9DCC6E7E3D20681188C69098C6AB8D67</stEvt:instanceID>
                  <stEvt:when>2015-02-12T17:08:21+02:00</stEvt:when>
                  <stEvt:softwareAgent>Adobe Illustrator CS5.1</stEvt:softwareAgent>
                  <stEvt:changed>/</stEvt:changed>
               </rdf:li>
            </rdf:Seq>
         </xmpMM:History>
      </rdf:Description>
      <rdf:Description rdf:about=""
            xmlns:pdf="http://ns.adobe.com/pdf/1.3/">
         <pdf:Producer>Adobe PDF library 9.90</pdf:Producer>
      </rdf:Description>
      <rdf:Description rdf:about=""
            xmlns:xmpTPg="http://ns.adobe.com/xap/1.0/t/pg/"
            xmlns:stDim="http://ns.adobe.com/xap/1.0/sType/Dimensions#"
            xmlns:xmpG="http://ns.adobe.com/xap/1.0/g/">
         <xmpTPg:NPages>1</xmpTPg:NPages>
         <xmpTPg:HasVisibleTransparency>False</xmpTPg:HasVisibleTransparency>
         <xmpTPg:HasVisibleOverprint>False</xmpTPg:HasVisibleOverprint>
         <xmpTPg:MaxPageSize rdf:parseType="Resource">
            <stDim:w>327.324219</stDim:w>
            <stDim:h>178.288574</stDim:h>
            <stDim:unit>Pixels</stDim:unit>
         </xmpTPg:MaxPageSize>
         <xmpTPg:PlateNames>
            <rdf:Seq>
               <rdf:li>Cyan</rdf:li>
               <rdf:li>Magenta</rdf:li>
               <rdf:li>Yellow</rdf:li>
               <rdf:li>Black</rdf:li>
            </rdf:Seq>
         </xmpTPg:PlateNames>
         <xmpTPg:SwatchGroups>
            <rdf:Seq>
               <rdf:li rdf:parseType="Resource">
                  <xmpG:groupName>Default Swatch Group</xmpG:groupName>
                  <xmpG:groupType>0</xmpG:groupType>
               </rdf:li>
            </rdf:Seq>
         </xmpTPg:SwatchGroups>
      </rdf:Description>
   </rdf:RDF>
</x:xmpmeta>
                                                                                                    
                                                                                                    
                                                                                                    
                                                                                                    
                                                                                                    
                                                                                                    
                                                                                                    
                                                                                                    
                                                                                                    
                                                                                                    
                                                                                                    
                                                                                                    
                                                                                                    
                                                                                                    
                                                                                                    
                                                                                                    
                                                                                                    
                                                                                                    
                                                                                                    
                                                                                                    
                           
<?xpacket end="w"?>
	</metadata>
<g>
	<path fill="none" stroke="#000000" stroke-width="2.68" d="M89.186,176.949c48.354,0,87.847-39.41,87.847-87.763
		c0-48.354-39.493-87.847-87.847-87.847C40.833,1.34,1.34,40.833,1.34,89.187C1.34,137.539,40.833,176.949,89.186,176.949z"/>
	<polyline fill="none" stroke="#000000" stroke-width="1.0066" points="20.495,146.569 92.73,82.267 107.329,4.124 	"/>
	<path fill="none" stroke="#000000" stroke-width="1.0066" d="M178.551,84.208c-28.86,0.253-57.468,0-85.906-1.52"/>
	<path stroke="#000000" stroke-width="1.0066" d="M81.338,92.393c5.569-9.451,10.717-20.59,15.61-32.827
		c4.726,8.776,10.127,17.046,17.384,24.05C103.278,86.064,92.308,88.849,81.338,92.393z"/>
	<polygon points="227.664,57.626 227.664,49.188 228.76,49.188 228.76,56.613 232.896,56.613 232.896,57.626 	"/>
	<path d="M238.126,56.866c-0.42,0.337-0.759,0.507-1.095,0.675c-0.254,0.085-0.422,0.085-0.592,0.169v-0.844
		c0.254,0,0.506-0.084,0.761-0.169c0.251-0.169,0.506-0.422,0.673-0.759c0.086-0.253,0.171-0.591,0.171-1.012v-0.338
		c-0.424,0.084-0.929,0.253-1.604,0.338v-0.845c0.676-0.083,1.181-0.253,1.604-0.337c0-0.169,0-0.253,0-0.253
		c0-0.422-0.171-0.759-0.338-0.928c-0.255-0.253-0.675-0.337-1.183-0.337h-0.084v-0.844c0.084,0,0.17,0,0.254,0
		c0.507,0,0.927,0.085,1.266,0.168c0.336,0.169,0.591,0.254,0.676,0.506c0.168,0.169,0.338,0.423,0.338,0.676
		c0.084,0.169,0.084,0.506,0.084,0.929v1.349c0,1.013,0,1.604,0.082,1.857c0,0.253,0.086,0.507,0.256,0.76h-1.1
		C238.213,57.373,238.126,57.119,238.126,56.866z M236.441,57.71c-0.17,0-0.422,0-0.592,0c-0.676,0-1.183-0.169-1.52-0.423
		c-0.336-0.336-0.592-0.759-0.592-1.265c0-0.337,0.084-0.591,0.256-0.844c0.082-0.253,0.336-0.422,0.505-0.591
		c0.253-0.168,0.506-0.252,0.759-0.337c0.17-0.083,0.508-0.083,0.93-0.169h0.254v0.845h-0.086c-0.422,0.083-0.76,0.168-0.928,0.253
		c-0.17,0-0.339,0.168-0.423,0.337c-0.085,0.084-0.169,0.253-0.169,0.422c0,0.337,0.169,0.506,0.338,0.675
		c0.254,0.253,0.508,0.338,0.928,0.338c0.086,0,0.254,0,0.34-0.085V57.71L236.441,57.71z M236.441,52.225
		c-0.422,0-0.76,0.084-0.93,0.253c-0.254,0.168-0.423,0.506-0.592,0.928l-0.926-0.168c0.082-0.422,0.167-0.759,0.42-1.013
		c0.169-0.253,0.506-0.507,0.928-0.591c0.34-0.168,0.678-0.253,1.1-0.253V52.225z"/>
	<path d="M240.66,57.626v-6.077h0.928v0.845c0.169-0.338,0.422-0.591,0.76-0.76c0.254-0.168,0.676-0.253,1.098-0.253
		c0.423,0,0.761,0.085,1.098,0.253c0.253,0.254,0.506,0.507,0.591,0.845c0.507-0.76,1.097-1.098,1.857-1.098
		c0.589,0,1.095,0.168,1.433,0.507c0.254,0.337,0.424,0.844,0.424,1.519v4.22h-1.015v-3.882c0-0.422,0-0.675-0.084-0.843
		c-0.083-0.169-0.169-0.338-0.336-0.422c-0.171-0.169-0.422-0.169-0.677-0.169c-0.422,0-0.76,0.084-1.014,0.422
		c-0.336,0.253-0.423,0.675-0.423,1.35v3.545h-1.013V53.66c0-0.507-0.082-0.845-0.251-1.013c-0.169-0.253-0.509-0.337-0.845-0.337
		c-0.338,0-0.59,0-0.846,0.169c-0.253,0.168-0.42,0.422-0.506,0.675c-0.084,0.337-0.169,0.759-0.169,1.266v3.207L240.66,57.626
		L240.66,57.626z"/>
	<path d="M252.98,51.381h0.084c0.422,0,0.761,0.085,1.099,0.253c0.336,0.084,0.589,0.338,0.842,0.591
		c0.17,0.253,0.339,0.59,0.507,1.013c0.086,0.337,0.168,0.76,0.168,1.265c0,1.013-0.252,1.772-0.758,2.363
		c-0.506,0.59-1.184,0.844-1.857,0.844h-0.084v-0.844c0.422,0,0.846-0.169,1.184-0.591c0.253-0.337,0.422-0.929,0.422-1.688
		c0-0.844-0.086-1.434-0.422-1.772c-0.338-0.421-0.678-0.59-1.184-0.59l0,0V51.381L252.98,51.381z M251.378,57.626h-1.015v-8.438
		h1.096v3.038c0.423-0.507,0.93-0.844,1.521-0.844v0.844c-0.422,0-0.844,0.169-1.183,0.59c-0.253,0.422-0.42,0.928-0.42,1.688
		c0,0.76,0.081,1.266,0.252,1.604c0.337,0.506,0.759,0.759,1.351,0.759l0,0v0.844c-0.676,0-1.269-0.254-1.603-0.844V57.626z"/>
	<path d="M260.829,57.626v-0.76c-0.339,0.507-0.845,0.844-1.604,0.844v-0.844l0,0c0.506,0,0.844-0.169,1.182-0.506
		c0.338-0.422,0.507-0.928,0.507-1.688c0-0.844-0.169-1.434-0.507-1.856c-0.338-0.337-0.676-0.59-1.182-0.59v-0.844
		c0.338,0,0.592,0.085,0.844,0.253c0.338,0.169,0.592,0.338,0.762,0.591v-3.038h1.011v8.438H260.829z M259.225,57.71h-0.084
		c-0.424,0-0.93-0.084-1.267-0.337c-0.422-0.338-0.761-0.676-1.013-1.181c-0.17-0.423-0.34-1.013-0.34-1.604
		c0-0.59,0.17-1.181,0.34-1.687c0.168-0.506,0.507-0.845,0.929-1.097c0.421-0.254,0.845-0.422,1.351-0.422h0.084v0.844l0,0
		c-0.42,0-0.843,0.169-1.182,0.59c-0.253,0.338-0.424,0.928-0.424,1.772c0,0.759,0.171,1.351,0.508,1.688
		c0.337,0.422,0.678,0.591,1.098,0.591V57.71L259.225,57.71z"/>
	<path d="M265.891,51.381L265.891,51.381c0.846,0,1.519,0.253,2.025,0.844c0.591,0.506,0.846,1.266,0.846,2.278
		c0,0.76-0.088,1.351-0.339,1.857c-0.255,0.422-0.591,0.759-1.015,1.013c-0.506,0.253-0.928,0.337-1.52,0.337l0,0v-0.844l0,0
		c0.508,0,0.93-0.169,1.268-0.591c0.338-0.337,0.507-0.929,0.507-1.772c0-0.759-0.169-1.265-0.507-1.688
		c-0.338-0.421-0.76-0.59-1.268-0.59l0,0v-0.844H265.891z M263.021,54.587c0-1.181,0.338-2.025,1.014-2.532
		c0.506-0.422,1.097-0.675,1.855-0.675v0.844c-0.507,0-0.929,0.169-1.267,0.59c-0.337,0.422-0.506,0.928-0.506,1.772
		c0,0.759,0.169,1.351,0.506,1.688c0.338,0.422,0.761,0.591,1.267,0.591v0.844c-0.844,0-1.518-0.254-2.024-0.759
		C263.359,56.36,263.021,55.601,263.021,54.587z"/>
	<path d="M269.941,50.368v-1.181h1.098v1.181H269.941L269.941,50.368z M269.941,57.626v-6.077h1.098v6.077H269.941z"/>
	<path d="M276.523,57.626v-0.76c-0.424,0.507-0.928,0.844-1.604,0.844v-0.844l0,0c0.422,0,0.844-0.169,1.1-0.506
		c0.336-0.422,0.504-0.928,0.504-1.688c0-0.844-0.168-1.434-0.504-1.856c-0.256-0.337-0.678-0.59-1.1-0.59v-0.844
		c0.254,0,0.592,0.085,0.844,0.253c0.256,0.169,0.506,0.338,0.676,0.591v-3.038h1.013v8.438H276.523z M274.92,57.71h-0.086
		c-0.504,0-0.928-0.084-1.35-0.337c-0.422-0.338-0.758-0.676-0.928-1.181c-0.252-0.423-0.339-1.013-0.339-1.604
		c0-0.59,0.087-1.181,0.253-1.687c0.256-0.506,0.508-0.845,0.93-1.097c0.422-0.254,0.845-0.422,1.352-0.422c0.082,0,0.082,0,0.168,0
		v0.844h-0.086c-0.422,0-0.842,0.169-1.096,0.59c-0.338,0.338-0.506,0.928-0.506,1.772c0,0.759,0.168,1.351,0.506,1.688
		c0.338,0.422,0.674,0.591,1.182,0.591V57.71L274.92,57.71z"/>
	<path d="M281.924,55.769l1.014-0.168c0.086,0.422,0.252,0.759,0.506,0.928c0.252,0.253,0.591,0.338,1.099,0.338
		c0.422,0,0.843-0.084,1.011-0.253c0.256-0.168,0.34-0.421,0.34-0.675c0-0.253-0.084-0.422-0.256-0.591
		c-0.166-0.083-0.504-0.168-1.095-0.337c-0.761-0.169-1.269-0.337-1.519-0.506c-0.34-0.083-0.508-0.336-0.678-0.59
		c-0.166-0.169-0.253-0.506-0.253-0.759c0-0.253,0.087-0.506,0.169-0.759c0.17-0.253,0.338-0.422,0.506-0.591
		c0.17-0.085,0.422-0.254,0.676-0.337c0.252-0.085,0.591-0.085,0.93-0.085c0.42,0,0.844,0.085,1.18,0.168
		c0.422,0.169,0.676,0.338,0.846,0.591c0.168,0.253,0.252,0.591,0.338,0.928l-1.014,0.169c0-0.337-0.17-0.591-0.423-0.759
		c-0.167-0.169-0.507-0.253-0.927-0.253c-0.422,0-0.762,0.084-1.014,0.253c-0.17,0.168-0.254,0.337-0.254,0.506
		c0,0.169,0,0.253,0.084,0.422c0.084,0.084,0.254,0.168,0.422,0.254c0.084,0,0.423,0.083,0.931,0.252
		c0.675,0.168,1.181,0.337,1.517,0.507c0.256,0.083,0.508,0.252,0.678,0.506c0.168,0.253,0.252,0.506,0.252,0.928
		c0,0.338-0.084,0.591-0.338,0.928c-0.17,0.337-0.506,0.506-0.842,0.675c-0.338,0.169-0.845,0.254-1.267,0.254
		c-0.847,0-1.437-0.169-1.856-0.507C282.346,56.951,282.008,56.444,281.924,55.769z"/>
	<path d="M292.218,57.626v-0.929c-0.504,0.676-1.181,1.013-1.94,1.013c-0.422,0-0.758-0.084-1.012-0.169
		c-0.336-0.168-0.591-0.337-0.675-0.506c-0.169-0.253-0.252-0.506-0.338-0.759c-0.084-0.253-0.084-0.59-0.084-1.012V51.55h1.015
		v3.376c0,0.506,0.082,0.843,0.082,1.012c0.084,0.337,0.168,0.506,0.422,0.675c0.168,0.169,0.506,0.253,0.76,0.253
		c0.339,0,0.591-0.084,0.844-0.253c0.339-0.168,0.506-0.337,0.592-0.675c0.169-0.253,0.169-0.675,0.169-1.181v-3.208h1.011v6.077
		H292.218z"/>
	<path d="M296.945,56.697l0.17,0.929c-0.256,0-0.508,0.084-0.76,0.084c-0.424,0-0.676-0.084-0.93-0.169
		c-0.169-0.168-0.338-0.337-0.423-0.506c-0.082-0.168-0.082-0.59-0.082-1.181V52.31h-0.761v-0.76h0.761v-1.519l1.011-0.675v2.193
		h1.014v0.76h-1.014v3.544c0,0.338,0,0.506,0.084,0.591c0,0.084,0.086,0.168,0.172,0.168c0.082,0.084,0.168,0.084,0.336,0.084
		C296.607,56.697,296.775,56.697,296.945,56.697z"/>
	<path d="M301.925,57.626v-0.929c-0.422,0.676-1.099,1.013-1.856,1.013c-0.422,0-0.76-0.084-1.014-0.169
		c-0.337-0.168-0.591-0.337-0.761-0.506c-0.083-0.253-0.252-0.506-0.252-0.759c-0.084-0.253-0.084-0.59-0.084-1.012V51.55h1.013
		v3.376c0,0.506,0,0.843,0.084,1.012c0.086,0.337,0.168,0.506,0.422,0.675c0.17,0.169,0.422,0.253,0.76,0.253
		s0.591-0.084,0.844-0.253c0.338-0.168,0.507-0.337,0.591-0.675c0.086-0.253,0.169-0.675,0.169-1.181v-3.208h1.014v6.077H301.925z"
		/>
	<path d="M304.455,57.626v-6.077h0.93v0.929c0.254-0.506,0.506-0.76,0.676-0.929c0.168-0.083,0.422-0.168,0.674-0.168
		c0.338,0,0.676,0.085,1.014,0.337l-0.338,0.929c-0.254-0.084-0.506-0.168-0.76-0.168c-0.168,0-0.422,0-0.59,0.168
		c-0.17,0.168-0.338,0.337-0.338,0.591c-0.17,0.337-0.17,0.76-0.17,1.182v3.207L304.455,57.626L304.455,57.626z"/>
	<path d="M312.557,55.601l1.096,0.168c-0.168,0.591-0.506,1.097-0.926,1.435c-0.508,0.337-1.099,0.507-1.772,0.507h-0.086v-0.844
		h0.086c0.338,0,0.675-0.084,0.928-0.253C312.219,56.36,312.389,56.107,312.557,55.601L312.557,55.601z M310.868,51.381
		L310.868,51.381c0.846,0,1.521,0.253,2.026,0.844c0.506,0.506,0.758,1.35,0.758,2.362c0,0,0,0.084,0,0.253h-2.784v-0.843h1.688
		c0-0.507-0.168-0.929-0.338-1.182c-0.338-0.421-0.76-0.59-1.352-0.59l0,0L310.868,51.381L310.868,51.381z M310.868,57.71
		c-0.843,0-1.517-0.254-2.024-0.759c-0.505-0.591-0.758-1.351-0.758-2.364c0-1.013,0.253-1.772,0.758-2.362
		c0.508-0.591,1.184-0.844,2.024-0.844v0.844c-0.423,0-0.843,0.169-1.181,0.506c-0.336,0.253-0.508,0.675-0.508,1.266h1.688v0.843
		h-1.771c0.082,0.676,0.254,1.182,0.59,1.52c0.338,0.337,0.676,0.506,1.181,0.506V57.71z"/>
	<path d="M230.956,110.283c0.507,0,0.927,0,1.181,0.084c0.422,0.086,0.76,0.17,1.098,0.338c0.254,0.254,0.507,0.506,0.676,0.846
		c0.168,0.336,0.253,0.758,0.253,1.18c0,0.676-0.253,1.268-0.675,1.771c-0.506,0.508-1.266,0.761-2.448,0.761h-0.083v-1.015h0.083
		c0.675,0,1.183-0.082,1.519-0.42c0.256-0.252,0.424-0.591,0.424-1.099c0-0.336-0.084-0.675-0.254-0.929
		c-0.17-0.252-0.422-0.422-0.674-0.506c-0.171,0-0.591,0-1.098,0l0,0L230.956,110.283L230.956,110.283z M227.749,118.637v-8.354
		h3.123h0.084v1.014h-2.11v2.953h2.11v1.014h-2.11v3.375L227.749,118.637L227.749,118.637z"/>
	<path d="M237.874,112.477L237.874,112.477c0.844,0,1.521,0.253,2.026,0.761c0.591,0.592,0.844,1.35,0.844,2.277
		c0,0.76-0.169,1.436-0.338,1.855c-0.254,0.422-0.59,0.844-1.012,1.014c-0.508,0.253-1.014,0.423-1.521,0.423l0,0v-0.845l0,0
		c0.508,0,0.93-0.17,1.266-0.592c0.34-0.422,0.508-1.011,0.508-1.771c0-0.761-0.168-1.353-0.508-1.688
		c-0.336-0.424-0.758-0.591-1.266-0.591l0,0L237.874,112.477L237.874,112.477z M235.005,115.6c0-1.099,0.337-1.942,1.015-2.448
		c0.504-0.505,1.097-0.675,1.854-0.675v0.845c-0.506,0-0.928,0.168-1.264,0.592c-0.34,0.336-0.508,0.928-0.508,1.688
		c0,0.761,0.168,1.35,0.508,1.771c0.336,0.422,0.758,0.59,1.264,0.59v0.846c-0.842,0-1.52-0.253-2.023-0.846
		C235.342,117.457,235.005,116.611,235.005,115.6z"/>
	<path d="M241.502,116.865l1.014-0.169c0.086,0.423,0.254,0.675,0.508,0.929c0.252,0.252,0.588,0.338,1.097,0.338
		c0.507,0,0.844-0.086,1.097-0.338c0.17-0.168,0.338-0.422,0.338-0.676c0-0.166-0.168-0.422-0.338-0.507
		c-0.169-0.082-0.506-0.252-1.012-0.337c-0.76-0.253-1.352-0.337-1.604-0.506c-0.34-0.169-0.509-0.338-0.676-0.592
		c-0.17-0.252-0.255-0.508-0.255-0.844c0-0.252,0.085-0.508,0.255-0.761c0.083-0.167,0.254-0.422,0.506-0.506
		c0.084-0.169,0.338-0.252,0.592-0.336c0.338-0.086,0.588-0.086,0.928-0.086c0.505,0,0.844,0,1.266,0.17
		c0.338,0.167,0.592,0.336,0.76,0.591c0.168,0.167,0.338,0.506,0.338,0.928l-1.015,0.084c0-0.252-0.167-0.506-0.336-0.674
		c-0.253-0.171-0.591-0.254-0.928-0.254c-0.509,0-0.845,0.083-1.013,0.167c-0.254,0.169-0.34,0.341-0.34,0.591
		c0,0.17,0.086,0.256,0.17,0.34c0.084,0.168,0.17,0.254,0.338,0.254c0.17,0.084,0.42,0.168,0.929,0.336
		c0.758,0.17,1.267,0.339,1.519,0.423c0.338,0.169,0.506,0.338,0.676,0.591c0.168,0.169,0.254,0.506,0.254,0.844
		s-0.086,0.676-0.254,1.012c-0.254,0.256-0.506,0.508-0.928,0.678c-0.339,0.169-0.76,0.253-1.267,0.253
		c-0.759,0-1.351-0.17-1.772-0.509C241.926,117.962,241.671,117.457,241.502,116.865z"/>
	<path d="M250.025,117.708l0.17,0.929c-0.254,0.086-0.508,0.086-0.76,0.086c-0.422,0-0.674-0.086-0.845-0.169
		c-0.253-0.086-0.422-0.256-0.507-0.422C248,117.876,248,117.457,248,116.865v-3.461h-0.76v-0.842H248v-1.52l1.014-0.592v2.11h1.012
		v0.842h-1.012v3.546c0,0.252,0,0.508,0.084,0.59c0,0.084,0.086,0.084,0.168,0.168c0.086,0.086,0.17,0.086,0.34,0.086
		C249.688,117.792,249.857,117.792,250.025,117.708z"/>
	<path d="M255.257,116.696l1.015,0.169c-0.17,0.592-0.506,1.098-0.928,1.434c-0.423,0.338-1.015,0.509-1.771,0.509l0,0v-0.845h0.082
		c0.34,0,0.676-0.086,0.931-0.338C254.835,117.457,255.09,117.119,255.257,116.696L255.257,116.696z M253.572,112.477
		L253.572,112.477c0.758,0,1.433,0.253,1.938,0.761c0.592,0.592,0.846,1.35,0.846,2.362c0,0.084,0,0.169-0.084,0.253h-2.699v-0.844
		h1.686c-0.082-0.508-0.167-0.844-0.422-1.098c-0.337-0.424-0.759-0.591-1.264-0.591l0,0V112.477z M253.572,118.807
		c-0.93,0-1.604-0.339-2.112-0.845c-0.505-0.506-0.758-1.267-0.758-2.278c0-1.013,0.253-1.854,0.844-2.362
		c0.507-0.592,1.181-0.845,2.026-0.845v0.845c-0.508,0-0.846,0.168-1.184,0.422c-0.338,0.336-0.507,0.758-0.591,1.266h1.772v0.845
		h-1.772c0,0.675,0.169,1.181,0.507,1.604c0.338,0.336,0.76,0.504,1.268,0.504V118.807z"/>
	<path d="M257.537,118.637v-6.074h0.928v0.927c0.253-0.421,0.508-0.676,0.676-0.843c0.168-0.17,0.422-0.17,0.676-0.17
		c0.338,0,0.674,0.086,1.014,0.337l-0.339,0.93c-0.253-0.168-0.505-0.254-0.761-0.254c-0.168,0-0.422,0.086-0.59,0.254
		c-0.168,0.086-0.336,0.254-0.336,0.506c-0.168,0.424-0.168,0.76-0.168,1.267v3.122L257.537,118.637L257.537,118.637z"/>
	<path d="M261.503,111.464v-1.182h1.011v1.182H261.503L261.503,111.464z M261.503,118.637v-6.074h1.011v6.074H261.503z"/>
	<path d="M266.566,112.477L266.566,112.477c0.843,0,1.52,0.253,2.024,0.761c0.505,0.592,0.845,1.35,0.845,2.277
		c0,0.76-0.17,1.436-0.422,1.855c-0.171,0.422-0.507,0.844-1.013,1.014c-0.422,0.253-0.931,0.423-1.435,0.423l0,0v-0.845l0,0
		c0.504,0,0.928-0.17,1.266-0.592c0.336-0.422,0.506-1.011,0.506-1.771c0-0.761-0.17-1.353-0.506-1.688
		c-0.338-0.424-0.762-0.591-1.266-0.591l0,0V112.477L266.566,112.477z M263.697,115.6c0-1.099,0.338-1.942,0.928-2.448
		c0.507-0.505,1.182-0.675,1.941-0.675v0.845c-0.508,0-0.928,0.168-1.267,0.592c-0.338,0.336-0.505,0.928-0.505,1.688
		c0,0.761,0.167,1.35,0.505,1.771c0.339,0.422,0.759,0.59,1.267,0.59v0.846c-0.844,0-1.52-0.253-2.111-0.846
		C263.951,117.457,263.697,116.611,263.697,115.6z"/>
	<path d="M270.617,118.637v-6.074h0.93v0.927c0.167-0.421,0.422-0.676,0.59-0.843c0.252-0.17,0.422-0.17,0.674-0.17
		c0.34,0,0.762,0.086,1.098,0.337l-0.336,0.93c-0.254-0.168-0.508-0.254-0.762-0.254c-0.252,0-0.422,0.086-0.674,0.254
		c-0.168,0.086-0.255,0.254-0.337,0.506c-0.086,0.424-0.171,0.76-0.171,1.267v3.122L270.617,118.637L270.617,118.637z"/>
	<path d="M278.042,118.637v-5.231h-0.929v-0.843h0.929v-0.591c0-0.422,0-0.762,0.084-0.928c0.086-0.256,0.253-0.508,0.506-0.678
		c0.255-0.168,0.591-0.252,1.099-0.252c0.254,0,0.592,0.084,0.929,0.084l-0.171,0.928c-0.166,0-0.422-0.082-0.59-0.082
		c-0.336,0-0.506,0.082-0.676,0.25c-0.168,0.086-0.168,0.338-0.168,0.761v0.508h1.184v0.843h-1.184v5.231H278.042z"/>
	<path d="M283.443,112.477L283.443,112.477c0.844,0,1.521,0.253,2.109,0.761c0.506,0.592,0.76,1.35,0.76,2.277
		c0,0.76-0.086,1.436-0.338,1.855c-0.252,0.422-0.592,0.844-1.012,1.014c-0.422,0.253-0.93,0.423-1.521,0.423l0,0v-0.845l0,0
		c0.592,0,1.014-0.17,1.351-0.592c0.34-0.422,0.507-1.011,0.507-1.771c0-0.761-0.167-1.353-0.507-1.688
		c-0.337-0.424-0.842-0.591-1.351-0.591l0,0v-0.844H283.443z M280.659,115.6c0-1.099,0.253-1.942,0.929-2.448
		c0.506-0.505,1.182-0.675,1.855-0.675v0.845c-0.506,0-0.928,0.168-1.264,0.592c-0.342,0.336-0.509,0.928-0.509,1.688
		c0,0.761,0.167,1.35,0.509,1.771c0.336,0.422,0.758,0.59,1.264,0.59v0.846c-0.844,0-1.52-0.253-2.024-0.846
		C280.912,117.457,280.659,116.611,280.659,115.6z"/>
	<path d="M287.577,118.637v-6.074h0.846v0.843c0.509-0.592,1.097-0.929,1.94-0.929c0.423,0,0.761,0,1.014,0.17
		c0.338,0.083,0.592,0.336,0.76,0.505c0.082,0.254,0.252,0.506,0.252,0.762c0.086,0.166,0.086,0.506,0.086,1.012v3.713h-1.015
		v-3.713c0-0.424-0.083-0.676-0.169-0.928c-0.083-0.168-0.167-0.34-0.422-0.508c-0.167-0.084-0.422-0.168-0.676-0.168
		c-0.422,0-0.844,0.168-1.182,0.422c-0.252,0.254-0.421,0.844-0.421,1.604v3.29L287.577,118.637L287.577,118.637z"/>
	<path d="M296.27,117.708l0.168,0.929c-0.25,0.086-0.506,0.086-0.758,0.086c-0.336,0-0.677-0.086-0.845-0.169
		c-0.253-0.086-0.422-0.256-0.506-0.422c-0.085-0.256-0.085-0.676-0.085-1.268v-3.461h-0.762v-0.842h0.762v-1.52l1.013-0.592v2.11
		h1.013v0.842h-1.013v3.546c0,0.252,0,0.508,0.087,0.59c0,0.084,0.082,0.084,0.166,0.168c0.086,0.086,0.17,0.086,0.338,0.086
		C295.932,117.792,296.102,117.792,296.27,117.708z"/>
	<path d="M301.249,117.876c-0.337,0.338-0.759,0.592-1.097,0.761c-0.17,0-0.338,0.086-0.506,0.086v-0.761
		c0.252,0,0.506-0.086,0.674-0.254c0.338-0.168,0.592-0.422,0.676-0.676c0.169-0.25,0.169-0.591,0.169-1.012V115.6
		c-0.338,0.169-0.845,0.253-1.519,0.422v-0.929c0.674-0.084,1.181-0.168,1.519-0.254c0-0.168,0-0.252,0-0.338
		c0-0.422-0.085-0.674-0.253-0.844c-0.254-0.254-0.676-0.337-1.182-0.337h-0.084v-0.845c0.084,0,0.168,0,0.252,0
		c0.508,0,0.929,0,1.267,0.17c0.339,0.083,0.506,0.252,0.675,0.422c0.169,0.169,0.253,0.42,0.337,0.76
		c0,0.168,0.085,0.42,0.085,0.928v1.351c0,0.929,0,1.603,0,1.856c0.086,0.252,0.17,0.422,0.338,0.675h-1.096
		C301.417,118.468,301.334,118.214,301.249,117.876z M299.646,118.723c-0.17,0.084-0.424,0.084-0.592,0.084
		c-0.675,0-1.183-0.17-1.519-0.509c-0.423-0.336-0.591-0.758-0.591-1.266c0-0.25,0.082-0.506,0.252-0.759
		c0.084-0.253,0.253-0.506,0.508-0.591c0.253-0.169,0.422-0.337,0.759-0.337c0.169-0.085,0.507-0.169,0.929-0.169l0.254-0.086v0.93
		h-0.17c-0.422,0-0.674,0.084-0.844,0.169c-0.169,0.084-0.339,0.17-0.422,0.337c-0.084,0.169-0.169,0.338-0.169,0.506
		c0,0.254,0.085,0.508,0.338,0.676c0.167,0.168,0.507,0.254,0.929,0.254c0.084,0,0.168,0,0.338,0V118.723L299.646,118.723z
		 M299.646,113.321c-0.424,0-0.76,0.083-1.014,0.255c-0.169,0.168-0.339,0.42-0.506,0.842l-1.014-0.084
		c0.084-0.422,0.254-0.758,0.508-1.097c0.168-0.255,0.506-0.424,0.843-0.591c0.338-0.084,0.759-0.17,1.183-0.17V113.321
		L299.646,113.321z"/>
	<path d="M303.863,118.637v-6.074h0.931v0.843c0.422-0.592,1.013-0.929,1.854-0.929c0.424,0,0.761,0,1.014,0.17
		c0.338,0.083,0.591,0.336,0.76,0.505c0.086,0.254,0.253,0.506,0.253,0.762c0.087,0.166,0.087,0.506,0.087,1.012v3.713h-1.015
		v-3.713c0-0.424-0.085-0.676-0.169-0.928c0-0.168-0.169-0.34-0.422-0.508c-0.17-0.084-0.422-0.168-0.676-0.168
		c-0.422,0-0.844,0.168-1.181,0.422c-0.254,0.254-0.423,0.844-0.423,1.604v3.29L303.863,118.637L303.863,118.637z"/>
	<path d="M314.499,116.696l1.097,0.169c-0.169,0.592-0.506,1.098-0.93,1.434c-0.506,0.338-1.096,0.509-1.771,0.509h-0.084v-0.845
		h0.084c0.422,0,0.678-0.086,1.014-0.338C314.16,117.457,314.329,117.119,314.499,116.696L314.499,116.696z M312.811,112.477
		L312.811,112.477c0.842,0,1.519,0.253,2.023,0.761c0.506,0.592,0.762,1.35,0.762,2.362c0,0.084,0,0.169,0,0.253h-2.785v-0.844
		h1.688c0-0.508-0.17-0.844-0.339-1.098c-0.339-0.424-0.761-0.591-1.267-0.591h-0.084v-0.844H312.811z M312.811,118.807
		c-0.845,0-1.52-0.339-2.024-0.845c-0.507-0.506-0.761-1.267-0.761-2.278c0-1.013,0.254-1.854,0.761-2.362
		c0.506-0.592,1.181-0.845,2.024-0.845v0.845c-0.422,0-0.845,0.168-1.183,0.422c-0.253,0.336-0.506,0.758-0.506,1.266h1.688v0.845
		h-1.772c0.085,0.675,0.254,1.181,0.591,1.604c0.338,0.336,0.76,0.504,1.182,0.504V118.807L312.811,118.807z"/>
	<rect x="316.861" y="110.283" width="1.013" height="8.354"/>
	<rect x="319.477" y="110.283" width="1.012" height="8.354"/>
	<path d="M326.227,116.696l1.098,0.169c-0.17,0.592-0.508,1.098-0.928,1.434c-0.506,0.338-1.098,0.509-1.772,0.509h-0.084v-0.845
		h0.084c0.422,0,0.676-0.086,1.013-0.338C325.891,117.457,326.059,117.119,326.227,116.696L326.227,116.696z M324.54,112.477
		L324.54,112.477c0.844,0,1.519,0.253,2.024,0.761c0.508,0.592,0.76,1.35,0.76,2.362c0,0.084,0,0.169,0,0.253h-2.784v-0.844h1.688
		c0-0.508-0.17-0.844-0.336-1.098c-0.34-0.424-0.762-0.591-1.353-0.591l0,0V112.477z M324.54,118.807
		c-0.845,0-1.519-0.339-2.024-0.845s-0.76-1.267-0.76-2.278c0-1.013,0.253-1.854,0.76-2.362c0.506-0.592,1.182-0.845,2.024-0.845
		v0.845c-0.422,0-0.845,0.168-1.181,0.422c-0.254,0.336-0.508,0.758-0.508,1.266h1.688v0.845h-1.771
		c0.084,0.675,0.252,1.181,0.59,1.604c0.338,0.336,0.76,0.504,1.182,0.504L324.54,118.807L324.54,118.807z"/>
	<path d="M227.327,162.433l1.097-0.083c0,0.422,0.169,0.76,0.338,1.013c0.17,0.338,0.424,0.506,0.846,0.676
		c0.336,0.168,0.842,0.254,1.266,0.254c0.42,0,0.842-0.086,1.098-0.17c0.336-0.168,0.588-0.338,0.758-0.506
		c0.17-0.254,0.254-0.507,0.254-0.762c0-0.252-0.084-0.505-0.254-0.675c-0.17-0.167-0.422-0.339-0.758-0.505
		c-0.17-0.086-0.678-0.256-1.521-0.422c-0.76-0.17-1.264-0.34-1.604-0.506c-0.338-0.17-0.675-0.508-0.844-0.762
		c-0.253-0.338-0.338-0.675-0.338-1.097c0-0.423,0.169-0.761,0.338-1.183c0.253-0.338,0.592-0.59,1.098-0.844
		c0.422-0.168,0.93-0.253,1.519-0.253c0.675,0,1.183,0.085,1.688,0.339c0.422,0.168,0.844,0.42,1.098,0.842
		c0.253,0.422,0.337,0.844,0.421,1.352l-1.097,0.086c-0.086-0.594-0.254-0.93-0.592-1.268c-0.337-0.254-0.845-0.338-1.434-0.338
		c-0.676,0-1.184,0.084-1.52,0.338c-0.252,0.252-0.424,0.506-0.424,0.929c0,0.253,0.086,0.506,0.338,0.675
		c0.17,0.255,0.76,0.422,1.688,0.59c0.845,0.254,1.521,0.424,1.854,0.594c0.424,0.166,0.846,0.506,1.016,0.842
		c0.253,0.338,0.421,0.761,0.421,1.183s-0.168,0.845-0.421,1.267c-0.254,0.422-0.592,0.674-1.1,0.928
		c-0.504,0.252-1.013,0.338-1.602,0.338c-0.76,0-1.436-0.086-1.941-0.338c-0.507-0.254-0.928-0.592-1.182-1.012
		C227.496,163.531,227.411,163.024,227.327,162.433z"/>
	<path d="M239.395,164.375c-0.422,0.338-0.761,0.59-1.1,0.676c-0.169,0.084-0.336,0.168-0.589,0.168v-0.76
		c0.253,0,0.507-0.084,0.76-0.252c0.337-0.17,0.507-0.422,0.673-0.676c0.086-0.253,0.17-0.593,0.17-1.099v-0.336
		c-0.336,0.169-0.843,0.253-1.603,0.336v-0.845c0.76-0.084,1.267-0.168,1.603-0.336c0-0.084,0-0.17,0-0.254
		c0-0.42-0.084-0.674-0.252-0.845c-0.34-0.251-0.676-0.335-1.184-0.335h-0.167v-0.846c0.084,0,0.167-0.084,0.253-0.084
		c0.591,0,1.014,0.084,1.266,0.253c0.338,0.086,0.592,0.253,0.76,0.422s0.252,0.422,0.338,0.675c0,0.256,0,0.508,0,1.014v1.351
		c0,0.929,0.085,1.604,0.085,1.771c0.084,0.338,0.168,0.508,0.253,0.76h-1.098C239.479,164.964,239.395,164.712,239.395,164.375z
		 M237.707,165.218c-0.169,0.085-0.339,0.085-0.591,0.085c-0.593,0-1.183-0.169-1.521-0.507s-0.507-0.76-0.507-1.266
		c0-0.253,0.085-0.593,0.169-0.844c0.17-0.169,0.338-0.422,0.592-0.591c0.17-0.084,0.422-0.255,0.674-0.337
		c0.256,0,0.509-0.086,0.929-0.086l0.255-0.086v0.845l-0.086,0.086c-0.42,0-0.76,0.084-0.928,0.169
		c-0.17,0.084-0.252,0.167-0.338,0.337c-0.168,0.169-0.168,0.338-0.168,0.507c0,0.254,0.084,0.506,0.336,0.676
		c0.17,0.168,0.508,0.252,0.845,0.252c0.17,0,0.253,0,0.339,0V165.218L237.707,165.218z M237.707,159.819
		c-0.422,0-0.762,0.084-0.928,0.251c-0.256,0.17-0.424,0.424-0.508,0.844l-1.014-0.082c0.084-0.424,0.254-0.846,0.424-1.099
		c0.252-0.252,0.506-0.422,0.928-0.591c0.336-0.085,0.676-0.169,1.098-0.169V159.819z"/>
	<path d="M244.287,166.738c0.424,0,0.761-0.086,0.93-0.253c0.338-0.169,0.506-0.508,0.592-0.846c0-0.168,0.084-0.591,0.084-1.267
		c-0.422,0.508-1.015,0.76-1.604,0.76v-0.842c0.424,0,0.846-0.17,1.185-0.508c0.336-0.422,0.506-1.013,0.506-1.771
		c0-0.761-0.17-1.267-0.506-1.688c-0.339-0.339-0.761-0.506-1.185-0.506v-0.846c0.677,0,1.185,0.255,1.688,0.846v-0.762h0.928v5.234
		c0,1.01-0.084,1.686-0.252,2.023c-0.254,0.422-0.508,0.76-0.93,0.928c-0.423,0.254-0.928,0.338-1.436,0.338V166.738
		L244.287,166.738z M241.756,165.64l1.014,0.169c0,0.338,0.168,0.508,0.336,0.677c0.256,0.167,0.592,0.254,1.015,0.254
		c0.085,0,0.085,0,0.167,0v0.844h-0.167c-0.675,0-1.267-0.17-1.688-0.424C241.926,166.821,241.756,166.316,241.756,165.64
		L241.756,165.64z M244.287,165.134c-0.082,0-0.082,0-0.082,0c-0.844,0-1.521-0.254-1.941-0.928
		c-0.507-0.592-0.676-1.269-0.676-2.109c0-0.592,0.084-1.1,0.253-1.604c0.253-0.508,0.507-0.93,0.931-1.183
		c0.422-0.254,0.842-0.422,1.435-0.422l0.082,0.084v0.846l0,0c-0.504,0-0.843,0.167-1.181,0.507
		c-0.336,0.422-0.506,0.928-0.506,1.688c0,0.759,0.17,1.35,0.506,1.771c0.254,0.338,0.677,0.508,1.181,0.508l0,0L244.287,165.134
		L244.287,165.134z"/>
	<path d="M248.506,157.962v-1.183h1.014v1.183H248.506L248.506,157.962z M248.506,165.134v-6.076h1.014v6.076H248.506z"/>
	<path d="M253.316,164.207l0.17,0.928c-0.336,0.084-0.592,0.084-0.76,0.084c-0.422,0-0.676-0.084-0.929-0.168
		c-0.168-0.086-0.339-0.254-0.42-0.506c-0.088-0.17-0.088-0.592-0.088-1.183v-3.459h-0.758v-0.846h0.758v-1.519l1.015-0.59v2.107
		h1.012v0.846h-1.012v3.543c0,0.254,0,0.422,0,0.508c0.084,0.084,0.084,0.168,0.17,0.252c0.084,0,0.252,0.086,0.42,0.086
		C252.98,164.292,253.15,164.292,253.316,164.207z"/>
	<path d="M256.609,164.207l0.084,0.928c-0.254,0.084-0.506,0.084-0.76,0.084c-0.336,0-0.677-0.084-0.844-0.168
		c-0.255-0.086-0.339-0.254-0.424-0.506c-0.082-0.17-0.168-0.592-0.168-1.183v-3.459h-0.76v-0.846h0.76v-1.519l1.012-0.59v2.107h1.1
		v0.846h-1.1v3.543c0,0.254,0,0.422,0.088,0.508c0,0.084,0.082,0.168,0.168,0.252c0.084,0,0.168,0.086,0.336,0.086
		C256.271,164.292,256.355,164.292,256.609,164.207z"/>
	<path d="M261.503,164.375c-0.337,0.338-0.675,0.59-1.099,0.676c-0.168,0.084-0.338,0.168-0.506,0.168v-0.76
		c0.254,0,0.506-0.084,0.677-0.252c0.336-0.17,0.591-0.422,0.673-0.676c0.171-0.253,0.171-0.593,0.171-1.099v-0.336
		c-0.338,0.169-0.844,0.253-1.521,0.336v-0.845c0.677-0.084,1.183-0.168,1.521-0.336c0.084-0.084,0.084-0.17,0.084-0.254
		c0-0.42-0.169-0.674-0.337-0.845c-0.255-0.251-0.678-0.335-1.182-0.335h-0.086v-0.846c0.086,0,0.168-0.084,0.254-0.084
		c0.506,0,0.929,0.084,1.267,0.253c0.337,0.086,0.591,0.253,0.675,0.422c0.167,0.169,0.254,0.422,0.338,0.675
		c0.082,0.256,0.082,0.508,0.082,1.014v1.351c0,0.929,0,1.604,0.086,1.771c0,0.338,0.084,0.508,0.254,0.76h-1.098
		C261.67,164.964,261.588,164.712,261.503,164.375z M259.898,165.218c-0.168,0.085-0.422,0.085-0.59,0.085
		c-0.674,0-1.182-0.169-1.519-0.507c-0.422-0.338-0.591-0.76-0.591-1.266c0-0.253,0.084-0.593,0.253-0.844
		c0.084-0.169,0.253-0.422,0.506-0.591c0.253-0.084,0.506-0.255,0.759-0.337c0.17,0,0.508-0.086,0.93-0.086l0.252-0.086v0.845
		l-0.084,0.086c-0.422,0-0.76,0.084-0.928,0.169c-0.17,0.084-0.338,0.167-0.423,0.337c-0.082,0.169-0.168,0.338-0.168,0.507
		c0,0.254,0.168,0.506,0.339,0.676c0.252,0.168,0.506,0.252,0.928,0.252c0.084,0,0.252,0,0.336,0V165.218L259.898,165.218z
		 M259.898,159.819c-0.422,0-0.758,0.084-1.012,0.251c-0.17,0.17-0.338,0.424-0.505,0.844l-1.014-0.082
		c0.168-0.424,0.251-0.846,0.506-1.099c0.169-0.252,0.508-0.422,0.931-0.591c0.336-0.085,0.672-0.169,1.094-0.169V159.819z"/>
	<rect x="264.035" y="156.78" width="1.097" height="8.354"/>
	<path d="M269.52,163.362l1.015-0.169c0.083,0.422,0.252,0.676,0.505,0.93c0.253,0.17,0.59,0.336,1.098,0.336
		c0.506,0,0.844-0.084,1.014-0.336c0.252-0.17,0.422-0.422,0.422-0.677c0-0.168-0.17-0.422-0.338-0.508
		c-0.17-0.084-0.506-0.251-1.098-0.336c-0.676-0.253-1.267-0.423-1.52-0.506c-0.338-0.169-0.508-0.337-0.676-0.593
		c-0.168-0.252-0.254-0.506-0.254-0.844c0-0.252,0.086-0.507,0.254-0.758c0.084-0.17,0.254-0.422,0.506-0.508
		c0.087-0.167,0.339-0.253,0.592-0.338c0.339-0.084,0.59-0.168,0.93-0.168c0.42,0,0.842,0.084,1.266,0.253
		c0.338,0.169,0.591,0.339,0.76,0.591c0.169,0.17,0.338,0.506,0.338,0.928l-1.014,0.086c0-0.252-0.168-0.508-0.338-0.677
		c-0.252-0.167-0.592-0.251-0.93-0.251c-0.504,0-0.843,0-1.012,0.167c-0.253,0.168-0.338,0.339-0.338,0.593
		c0,0.082,0.085,0.252,0.169,0.336c0.086,0.084,0.169,0.168,0.338,0.254c0.17,0.084,0.421,0.17,0.929,0.252
		c0.758,0.254,1.266,0.422,1.52,0.508c0.338,0.169,0.507,0.338,0.676,0.591c0.168,0.169,0.253,0.506,0.253,0.844
		c0,0.339-0.085,0.675-0.253,1.013c-0.254,0.252-0.507,0.506-0.93,0.676c-0.338,0.168-0.76,0.253-1.266,0.253
		c-0.759,0-1.351-0.169-1.771-0.507C269.941,164.458,269.688,163.953,269.52,163.362z"/>
	<path d="M279.814,165.134v-0.842c-0.506,0.672-1.098,1.011-1.94,1.011c-0.336,0-0.675-0.085-1.013-0.253
		c-0.338-0.086-0.506-0.254-0.676-0.506c-0.166-0.17-0.252-0.422-0.338-0.76c0-0.17-0.084-0.507-0.084-0.931v-3.797h1.098v3.375
		c0,0.506,0,0.93,0,1.099c0.084,0.254,0.252,0.506,0.422,0.676c0.255,0.086,0.506,0.168,0.76,0.168c0.337,0,0.59-0.082,0.93-0.252
		c0.252-0.086,0.42-0.338,0.59-0.592c0.084-0.253,0.17-0.677,0.17-1.182v-3.292h1.013v6.075h-0.931V165.134z"/>
	<path d="M284.625,164.207l0.083,0.928c-0.253,0.084-0.506,0.084-0.758,0.084c-0.339,0-0.677-0.084-0.845-0.168
		c-0.254-0.086-0.338-0.254-0.422-0.506c-0.086-0.17-0.17-0.592-0.17-1.183v-3.459h-0.759v-0.846h0.759v-1.519l1.014-0.59v2.107
		h1.098v0.846h-1.098v3.543c0,0.254,0,0.422,0.084,0.508c0,0.084,0.084,0.168,0.168,0.252c0.085,0,0.171,0.086,0.34,0.086
		C284.287,164.292,284.373,164.292,284.625,164.207z"/>
	<path d="M289.604,165.134v-0.842c-0.506,0.672-1.182,1.011-1.94,1.011c-0.337,0-0.675-0.085-1.015-0.253
		c-0.336-0.086-0.59-0.254-0.674-0.506c-0.168-0.17-0.252-0.422-0.338-0.76c-0.085-0.17-0.085-0.507-0.085-0.931v-3.797h1.015v3.375
		c0,0.506,0.082,0.93,0.082,1.099c0.086,0.254,0.256,0.506,0.424,0.676c0.17,0.086,0.505,0.168,0.76,0.168
		c0.338,0,0.591-0.082,0.928-0.252c0.254-0.086,0.424-0.338,0.506-0.592c0.17-0.253,0.17-0.677,0.17-1.182v-3.292h1.099v6.075
		h-0.931V165.134z"/>
	<path d="M292.137,165.134v-6.076h0.926v0.929c0.17-0.422,0.422-0.675,0.592-0.844c0.254-0.169,0.422-0.253,0.676-0.253
		c0.337,0,0.674,0.168,1.097,0.339l-0.423,1.011c-0.168-0.169-0.421-0.253-0.674-0.253c-0.254,0-0.508,0.084-0.676,0.253
		c-0.17,0.086-0.252,0.256-0.338,0.508c-0.168,0.422-0.168,0.758-0.168,1.182v3.205H292.137L292.137,165.134z"/>
	<path d="M300.152,163.193l1.097,0.169c-0.169,0.591-0.508,1.097-0.929,1.435c-0.506,0.338-1.012,0.506-1.772,0.506h-0.083v-0.844
		h0.083c0.425,0,0.761-0.084,1.015-0.336C299.814,163.953,299.982,163.615,300.152,163.193L300.152,163.193z M298.464,158.89h0.083
		c0.762,0,1.436,0.339,1.941,0.844c0.507,0.592,0.76,1.35,0.76,2.363c0,0.083,0,0.169,0,0.253h-2.784v-0.845h1.688
		c0-0.508-0.17-0.844-0.338-1.098c-0.338-0.422-0.76-0.589-1.268-0.589h-0.083V158.89L298.464,158.89z M298.464,165.302
		c-0.843,0-1.519-0.338-2.026-0.844c-0.506-0.506-0.758-1.35-0.758-2.278c0-1.011,0.252-1.854,0.758-2.36
		c0.508-0.591,1.185-0.846,2.026-0.93v0.93c-0.422,0-0.843,0.167-1.097,0.42c-0.34,0.34-0.508,0.76-0.592,1.266h1.688v0.846h-1.771
		c0.084,0.675,0.254,1.182,0.59,1.52c0.34,0.338,0.761,0.59,1.183,0.59V165.302z"/>
	<path stroke="#000000" stroke-width="0.03" stroke-linecap="round" stroke-linejoin="round" d="M137.792,82.773l9.874-2.532
		c-2.532-1.097-3.967-2.785-4.051-5.738L137.792,82.773z"/>
	<path stroke="#000000" stroke-width="0.03" stroke-linecap="round" stroke-linejoin="round" d="M104.713,87.076l2.447,9.958
		c1.097-2.617,2.869-3.967,5.738-3.967L104.713,87.076z"/>
	<path stroke="#000000" stroke-width="0.03" stroke-linecap="round" stroke-linejoin="round" d="M59.735,113.404l7.088,7.344
		c-0.336-2.785,0.506-4.896,2.954-6.414L59.735,113.404z"/>
	<polyline fill="none" stroke="#000000" stroke-width="0.335" points="221.588,53.575 178.637,53.575 138.72,82.351 	"/>
	<polyline fill="none" stroke="#000000" stroke-width="0.335" points="224.288,114.587 124.375,114.587 105.134,87.921 	"/>
	<polyline fill="none" stroke="#000000" stroke-width="0.335" points="224.288,161.589 151.547,161.589 60.663,113.576 	"/>
</g>
</svg>
