<?xml version="1.0" encoding="utf-8"?>
<!-- Generator: Adobe Illustrator 15.1.0, SVG Export Plug-In . SVG Version: 6.00 Build 0)  -->
<!DOCTYPE svg PUBLIC "-//W3C//DTD SVG 1.1//EN" "http://www.w3.org/Graphics/SVG/1.1/DTD/svg11.dtd">
<svg version="1.1" id="Layer_1" xmlns="http://www.w3.org/2000/svg" xmlns:xlink="http://www.w3.org/1999/xlink" x="0px" y="0px"
	 width="327.464px" height="213.309px" viewBox="0 0 327.464 213.309" enable-background="new 0 0 327.464 213.309"
	 xml:space="preserve">
<metadata><?xpacket begin="﻿" id="W5M0MpCehiHzreSzNTczkc9d"?>
<x:xmpmeta xmlns:x="adobe:ns:meta/" x:xmptk="Adobe XMP Core 5.0-c060 61.134777, 2010/02/12-17:32:00        ">
   <rdf:RDF xmlns:rdf="http://www.w3.org/1999/02/22-rdf-syntax-ns#">
      <rdf:Description rdf:about=""
            xmlns:dc="http://purl.org/dc/elements/1.1/">
         <dc:format>image/svg+xml</dc:format>
         <dc:title>
            <rdf:Alt>
               <rdf:li xml:lang="x-default">DW Fig 3-2C [Converted]</rdf:li>
            </rdf:Alt>
         </dc:title>
      </rdf:Description>
      <rdf:Description rdf:about=""
            xmlns:xmp="http://ns.adobe.com/xap/1.0/"
            xmlns:xmpGImg="http://ns.adobe.com/xap/1.0/g/img/">
         <xmp:CreatorTool>Adobe Illustrator CS5.1</xmp:CreatorTool>
         <xmp:CreateDate>2015-02-12T17:07:18+02:00</xmp:CreateDate>
         <xmp:ModifyDate>2015-02-12T17:07:19+02:00</xmp:ModifyDate>
         <xmp:MetadataDate>2015-02-12T17:07:19+02:00</xmp:MetadataDate>
         <xmp:Thumbnails>
            <rdf:Alt>
               <rdf:li rdf:parseType="Resource">
                  <xmpGImg:width>256</xmpGImg:width>
                  <xmpGImg:height>168</xmpGImg:height>
                  <xmpGImg:format>JPEG</xmpGImg:format>
                  <xmpGImg:image>/9j/4AAQSkZJRgABAgEAyADIAAD/7QAsUGhvdG9zaG9wIDMuMAA4QklNA+0AAAAAABAAyAAAAAEA&#xA;AQDIAAAAAQAB/+4ADkFkb2JlAGTAAAAAAf/bAIQABgQEBAUEBgUFBgkGBQYJCwgGBggLDAoKCwoK&#xA;DBAMDAwMDAwQDA4PEA8ODBMTFBQTExwbGxscHx8fHx8fHx8fHwEHBwcNDA0YEBAYGhURFRofHx8f&#xA;Hx8fHx8fHx8fHx8fHx8fHx8fHx8fHx8fHx8fHx8fHx8fHx8fHx8fHx8fHx8f/8AAEQgAqAEAAwER&#xA;AAIRAQMRAf/EAaIAAAAHAQEBAQEAAAAAAAAAAAQFAwIGAQAHCAkKCwEAAgIDAQEBAQEAAAAAAAAA&#xA;AQACAwQFBgcICQoLEAACAQMDAgQCBgcDBAIGAnMBAgMRBAAFIRIxQVEGE2EicYEUMpGhBxWxQiPB&#xA;UtHhMxZi8CRygvElQzRTkqKyY3PCNUQnk6OzNhdUZHTD0uIIJoMJChgZhJRFRqS0VtNVKBry4/PE&#xA;1OT0ZXWFlaW1xdXl9WZ2hpamtsbW5vY3R1dnd4eXp7fH1+f3OEhYaHiImKi4yNjo+Ck5SVlpeYmZ&#xA;qbnJ2en5KjpKWmp6ipqqusra6voRAAICAQIDBQUEBQYECAMDbQEAAhEDBCESMUEFURNhIgZxgZEy&#xA;obHwFMHR4SNCFVJicvEzJDRDghaSUyWiY7LCB3PSNeJEgxdUkwgJChgZJjZFGidkdFU38qOzwygp&#xA;0+PzhJSktMTU5PRldYWVpbXF1eX1RlZmdoaWprbG1ub2R1dnd4eXp7fH1+f3OEhYaHiImKi4yNjo&#xA;+DlJWWl5iZmpucnZ6fkqOkpaanqKmqq6ytrq+v/aAAwDAQACEQMRAD8A9U4q7FXYq7FXYq7FXnHn&#xA;L/nID8tvLF1+jvrr61rZJVNI0hPrc5cfskqfTVv8ln5e2KsfTzj/AM5F+a9/L3lOx8oae+y3vmCV&#xA;5LmniLeMK6H2eMj3xVePyb/NXWCZPNP5p6kOY+K20SFNOVfYSRleQ+ab98VX/wDQrnkGWp1LVde1&#xA;VzWsl5qLMxqd/sJH174q2f8AnE/8lKHhpVxG37LreXPJT2Iq5FRirTf84xeUYPi0fzD5j0aUHkj2&#xA;eolaNTqeSMfDoR0xVY35VfnZonx+V/zNmvVUUWy1+2W5VgB+1cH1ZPuSuKqTfmd+d/lM087eRV1n&#xA;T0+3q/lmQzUUdWNq5eT3JPAYqzHyN+dP5c+dWEGjasi6idm0u7H1e7BHUCN6c6d+BYYqzjFXYq7F&#xA;XYq7FXYq7FXYq7FXYq7FXYq7FXYq7FXYq7FXYq7FXYq7FWE/mR+b3lHyFbxpqMr3ms3VBp2h2Y9W&#xA;8nZjxWiD7CltuTfRU7YqwGPyX+cH5p0ufPN/J5N8oy1KeVtNal7PE3Rbuc9KilVIP+opxV6d5L/L&#xA;XyP5LtBb+W9IgsSRxkuQvO4k/wCMk78pG+Rag7DFWTYq7FXYq7FXYq7FXYqwrz3+Tf5e+d1aTWtL&#xA;RdRNDHq1p+4vEYfZYSqPi49g4Ye2KsAkb86/ymPqNJL+YnkWL+85VGsWcQ6tX4vWVR/rdP8AdYxV&#xA;6f5D/MXyj560cap5cvVuYloLi3b4J4HIrwmjO6n36HsTirJcVdirsVdirsVdirsVaZlVSzEKqirM&#xA;dgAO5xVShvbOeFJoJ45YZTxjkR1ZWPgpBoemKqvNOfp8hzpy4V3p0rTFW8VdirsVdirsVdirsVdi&#xA;ryX8x/zd1c67/gH8trdNX87Tgi7ujRrTS06NLcNuvNf5T0PUE0RlU0/LP8l9H8pXEmu6rcN5g87X&#xA;lXv/ADBd/FIGcUZbcMW9NafDXqR7bBV6NirsVdirsVdirsVdirsVdirsVdirybz/APknJLrH+Nfy&#xA;6ul8t+eIau5j+Gzv1O7RXMQHGr0+1Tc/aBNGVVMvys/N+DzZNceXteszoPnvSxx1TRJqjlxpWa3J&#xA;+3G1QaVNK9SKMVXo+KuxV2KuxVDyahbK5jQmaZdjFEC7A9g1Nkr4sQMVaV9QkYERpbx1qeZ9SQju&#xA;CqkKvz5NirC/zlg9Xy3pxuoZbnQYtWs5PMdtCjymTTlY+oHjj+J4xJ6bSLQ/ADtirBtTt/JupX9g&#xA;nkK3n0qzm8xaWbnWNPiSOxeb6tcqzWcUitD6kcYUSSCHiSVryIxVL4vMvnqa8saahJHqkrWmlSaw&#xA;LS2+stCvmqfTy7n0uJrbIGZacK/FQVxV67+Xs2snTtTtNVvpdRl0/VLu0t7y4WNJnt0cGLn6SRoz&#xA;BWpyCiuKspxV2KuxV2KuxV2KvJfzd/MfXTq9v+W3kGk/nbV0rdXYPwaXaMPiuJWH2X4mq9xsepQM&#xA;qyn8sPyw0D8vtA/R2nVuL64Il1XVZR+/up+7udyFBJ4rXb3JJKrMcVdirsVdirsVdirsVdirsVdi&#xA;qT3WoXiecNM09HpZ3Gn6hcTR0G8sE9kkTVpy+FZ36Hv8qKpxirsVeb/m5+Uaeb0ttd0K5/Q3nrRv&#xA;3mjazH8JJWpEE5APKNqnseNe4LKVV/5PfmlJ5wsbrSdct/0Z530Jvq+vaW44nkuwuIh/vuQ/cfYq&#xA;Sqz+e9tYXCSP+9IqIlBeQjxCKCxH0Yqp+tfS7RQCBf8Afk5BPzEaE1+llxV31ASb3Urz16oTwj36&#xA;jgtOS+z8sVREcccaCONQiLsqqAAB7AYquxV2KuxV2KuxV2KuxV2KuxV2KsJ/N78yLfyF5Rl1FI/r&#xA;Ws3jiz0PTgCzT3kuyDivxFU+01Pl1IxVL/yX/LO48paPcarrsn1zzt5gb635gv3IdhI1WFurDbjH&#xA;y347E+1KKvRsVdirsVdirsVdirsVdirsVdirsVY9qZMXnvQZX2ilsdTtVPjM8lnMo/5F20h+jFWQ&#xA;4qwryt+bnk7zP5k17RNJvI5/0D6Cy3QccZ5ZjIHW3XrIsZjALLWpO21CyrK/rdxL/vNbMR/vyesS&#xA;/QpBkr81A98VeQ/nX5B160uYPzR8qOT5t0BeWoWsAaJL/T0H72JwjF2ZU/yqkbDcLRV6R5C8z6B5&#xA;p8qWHmDQgqWGoR+r6YADJKPhkjkA/bRlKt8vDFWQYq7FXYq7FXYq7FXYq7FXYq7FXYq7FXYq8L8l&#xA;x/8AK0/zgv8Azzcj1fKPk2RtN8rITyinvRvPdqOhpsVNO6d1xV7pirsVdiqjcXtpby20U8qxyXch&#xA;htlbb1JBG0pRffhGzfIYqrYq7FXYq7FXYqp3Fzb20Dz3MqQQRisksjBEUeJZqAYqlS+dPJzzm3XX&#xA;dOadRVohdwFwDTcrzr3GKpwjpIgeNg6MKqymoI8QRiqS+btPvbjT4bzT09XU9IuEv7KGoBkaNWSW&#xA;EE7AzW8kkQJ6Fq4qg9c0zTPzB8mtaWmsXtjpmprxnudNeOK4aMVWW3dpo5jH8VVkWgYEFT3GKsR8&#xA;i/8AOOHkbyRrsWt6DfarFfR/C3O5QpJGSC0UqLEodGp0Pz64q9VxVxAIodweoxV4X5WUflX+dNz5&#xA;RoY/J3novf6AoFI7bUU/vrdewVh0p4xjxxV7pirsVdirsVdirsVdirsVdirsVdirsVecf85Aecrr&#xA;yx+W17+jqnW9adNI0hFNHM93VSV/ylj5sv8AlUxVkP5a+S7TyX5H0jy3bgE2MCi5kX/dlw/xzyf7&#xA;KRmI8BQYqybFXYq7FUj866dcXvl25azTnqViUv8ATV6E3VowmiSo3AkKem3+SxGKppp1/a6jp9tq&#xA;Fo/qWt5Ek9vIOjRyqHQ/SpxVEYq7FXYq7FWM/mRa2t35NvrS6hSeK6e3g9KUB0LS3MaJyVgQ1HYH&#xA;ievTFWPzaDY+SNc0uKxiX/BOt3P1C40eQGSCwvrjk1tNaowcRQzyVhkjBCh3QqB8VVWST+QPLXNp&#xA;9NgbRLxtzd6S31Ny1a8pEjpFN8pkce2KoY6x5h8tr/zsNNU0deuu2sXCWBf5r22Wo4j9qaHYdWjR&#xA;QWxVXn8ul7htb8r6iun3F9xnnogubC85KOMssIZPiK0/exOjMKciwAGKrhq3nO22vNAiu1H+7NNv&#xA;EZmHj6d2toFP+T6jf62Krj5l1wii+U9U5duU2lha+5F6xp8gcVT9SSoJHEkbr4e2KvNf+cg/J1x5&#xA;h/Lu6vNOJj1/y466zo1xH/eJNafGwTvVowaD+bj4Yqyn8u/N9v5w8k6P5kg4j9I2yyTIu4Sdfgmj&#xA;HX7EqsuKsixV2KuxV2KuxV2KuxV2KuxV2KuxV4x5xT/Ff/ORflPy8fj0/wAoWMvmC9UdPrMjiO3B&#xA;90dY3HsTir2fFXYq7FXYq7FWO+QV9Hy4tgNl0y6vNPiT+WC1upYrcf8AIhUxVkWKuxV2KuxVj3nG&#xA;s50LTegv9Wtqv4fUQ+pf8MbLj9OKqH5n6dfX/kPWE04O2pWsS6hp6RirtdafIt5bqtO7SwKBiqe6&#xA;Rqthq+l2mqafKJ7G+hS4tZl6NHIoZTQ7jY9MVReKsUsIv8NeZo9KiBXQddMsmnRD7FrfRqZZoE/l&#xA;jnjDzIvRWST+ZQFWT3Nzb2sD3FzKkEEQ5STSMERQO7M1ABirVpd2l5axXdnNHc2twiyQXELB43Rh&#xA;VWR1JVlI6EYqq4q4gMCCKg7EHoRirxf/AJx9r5d1zz3+XLkrH5f1X63pcbdRY36+pEo9lCqx92xV&#xA;7RirsVdiqR+bvOnl3yjp9vqGv3P1SzubmKyjm4M49aavDlxB4j4TVjsMVVf8V6H/AIs/wmLiuu/U&#xA;TqhtQrUFqJhBzL04/wB41ONa4qmizwNw4yKfUr6dCDyp1p44qk1z528sW2pPpj3ytfxNZLJAgZiv&#xA;6SlaG1NQONHdD0O3U0BFVU7R0kQPGwdGFVZTUEeIIxVvFXYq7FXjf5N11j81fzT80SEPTUodFtmp&#xA;9lNPRo5APZuKH8cVeyYq7FXjnkb/AJyg8kea/O0nlVbafTpJJGh0u9uSnp3LqxASgNY2f9gGtemx&#xA;oCq9jxV2Ksf8rDhqfmiEfYj1YFfH97p9pM3/AA0hxVkGKuxV2KuxVjnnOUWbaFq8u1npeppLev8A&#xA;yRXFvPZeofBUe7VnPZQTirI8VYdfflraxNNceWNWv/LN67yTKtpKZbD1pKlmfT5zJbUZjycRqhY7&#xA;8gd8VTHyT5hvta0uddUgjtdc0u5k07WIISxhFzDRvUhLgP6U0TpNHy3CuAd8VWfmAgTyzNqNPj0a&#xA;WDVFfuFspVmlpTf44VdD7E4q8W/OP/nG38wPNk8t9p/nW41Zas8ek6ufTjX9rjE1uqwgnoP3KjxO&#xA;Kvb/ACxpepW/lrSre6mms7mGzgjntB9WYROkSq0YZI2UhSKVBxVM/qVz/wAt8/8AwMH/AFSxV31K&#xA;5/5b5/8AgYP+qWKvHb61l0P/AJyh01kuZVTzZoEsEktIuTXFk5l6cOO0UKjpXFXsX1K5/wCW+f8A&#xA;4GD/AKpYq76lc/8ALfP/AMDB/wBUsVd9Suf+W+f/AIGD/qlirE/zM8k3HmvSNJ0h1N3ZjUkk1MyG&#xA;NGFo1vPFIRQICR6ooAK4q85P5TfmRqWmS3msGJvMl9pl5ZahIs4VJEhudKFtbFlJIS7g06dnI+yZ&#xA;Wr4YqmWk+SvOWleYrbzHpvlmKw0uHVJp7XylBcWsRtop9NFpJOCh+rr6ky83SNjtuAWJqql+l/k5&#xA;rpktYNX0O1nW6svLcep3KPAVDaVes99bvyPqOskRjO1QyoFO4AxV6f8Alx5Zn8t6ZqmnNbR2dm2r&#xA;X1xplrDxEUdpPMXiWNE+GNaH7ApTwxVleKuxV2KvHv8AnFz975B1XUiavquvajeSGpNWZkTr3/u+&#xA;uKvYcVdir4+/5yg/IqTQb2bz/wCVoTHpc8ok1e1hqDa3DtX6xGB9mN36/wArHbY7KvUv+cbfz2Tz&#xA;zpI8va7MB5s06IHm2312BAB6w/4sX/dg/wBkO9FXt+Ksf8rnlq3mqQfYfVl4nx4abZxt9zoRirIM&#xA;VQes6taaRps+oXfMwwAfBGpeR3dgkccaj7Tu7BVHcnFUkk85XlgY59f0W40jTJaA6g8sE6W7MaKL&#xA;sQu/pAn9tS8Y/aYYqycEEVG4PQ4qsngguIJIJ41lglUpLE4DI6MKMrKdiCNiDirHovLXmDTV9HQ9&#xA;c9OzH9zaanbm/WFf5I5FltZ+I7CSR6dAabYqmPljVpdY8t6Vq0qLFNqFnBcyxISVR5oldlBO/wAJ&#xA;NMVSPU9A8zaZ5kuvMPlYWl0uqJGus6NfSy2ySy26FIrqC4jjuPTl9PhG6tEVdVXdSKlVJvNHnmO6&#xA;8reYtB1zTZ9A1+fRtQktrO6aOSG6WO2cyGzuYi0c3AGrJ8MgG5QDfFXpGKuxV2KuxV49+cQ+qfmx&#xA;+Uuqr8LLqV5Yu47i7ijQKab/AM1PpxV7DirsVdirsVdirsVdirsVdirsVdirx/8A5xPI/wCVKaUl&#xA;fijuLxXXurfWXNCOxocVej3mq3dn5p0+ylK/o3VIJo4G40K3tv8AvQnKu/qweowFNvTPjiqc4qp3&#xA;Ntb3VtLa3MazW86NFNC4DK6OOLKwOxBBocVfDv52/lRrv5RecrXzT5Wklg0Ka59XSbyMktaXG7fV&#xA;pCe1K8OX2lqDWhxV9Q/kl+cGl/mT5YW7Xjb67ZBY9Y08H7MhG0sdd/SkpVfD7J6VKrJPI/7zTL67&#xA;P2rvVNRep7rHeSwRMD3BihUj2xVkOKsd/MQU8i67INpreymuLU9xcQKZYCPcSotPfFUy8w6Lba5o&#xA;l7pFyzJBfQtC7pQsoYdQGDKaeDAg99sVUPKegyaDoNvpUlz9a+rmTg6oY40R5GdIokZ5WWONWCIp&#xA;dqAU6UAVTfFXYqxS3tvMnlp5rewsBrWhSTSTWtvBLHDe23rNzaFVnaOCWIOzFSZUKLRaNSuKoiTX&#xA;vNlx+6sPLM1tMf8Ad+qXNpHAo8f9DlvZWI/l4iv8wxVKPM/5ZXPnHSn07zZrks1s7rIttp1tbW0c&#xA;ciGqSRvOl5cI6g8eSzCoJFKEjFWcqCFAJLEChY0qfc0oMVbxV2KuxV5B+ef/ACmX5Vf+BHH+pcVe&#xA;v4q7FXYq7FXYq7FXYq7FXYq7FXYq8e/5xib0PKPmHR2qJdG8x6jZujU5DiUap+liOg6Yq9K81aNN&#xA;qukPHassepWrpd6XM/2UuoDziLU34MRwenVGYd8VV/L+tW+taTBqMKNF6nJJ7d/7yGeJjHNBJ/lx&#xA;SKyN7jFUwxVLPMvlvR/MuhXmh6zbi506+jMc8R2NOoZT2ZTup7HFXw3r+i+d/wDnH/8ANKG7sJDN&#xA;bEs+n3JqIb6yLDnDMBT4hsHXs1GH7JxV9s+Qbae28kaDFcxNDd/ULZ7uJwVYTvErzcgejeozV98V&#xA;T7FUk872d3eeVNShs4jPdLD60FsBX1nhIlENNv73hw+nFUx0vU7HVNOttRsZRNZ3caywSDaqsKio&#xA;O4PiDuMVUPMWmXWqaHe6faXkmn3NzEyQ3kLMrxt1B5IUcA9DwZWp9llNCFUk8oazrVsLfy95qjaP&#xA;XVWU214GE0F7BE54sk6pFWVYivqK0aEmrKvHFWWYq7FXYq7FXYq7FXYq7FXjv5tEXv5z/lNpK0Z1&#xA;u9Rv5FIrQW0CSIaHb9ht+1MVexYq7FXYqhdS1XS9Ltjd6neQWNqCFM9zIkMYZug5OVFTiqzStb0b&#xA;V4Xn0q/ttQhjbhJLazRzKrUrxLRlgDQ9MVRuKuxV2KuxV2KuxV43+VTfoT87PzN8rvRVvZrbX7JR&#xA;QBluVrcN/wAjJUHzxV7JirE9XWXyxq0/mK3RpNDveJ8w20aszQyIoVdQjRak0QBJ1A+wFcbowdVl&#xA;UUsUsSSxOskUiho5FIZWVhUEEbEEYqkB8oTTbah5g1a9j/k9eKz7/wA2nxWb/wDDYqqWfkXyhaTp&#xA;cx6TbSXqEFb64T6zdVXoTcT+pMadqtiqe4q7FXYqx248niG7mvdB1CfRJ7mQzXUECxy2k0jbs8lv&#xA;KrKrMd2aIozH7ROKtnS/PMlFl1+zjjG3K201klO46tLdTpWn+Riro/K1/LqVhe6nrVxfLpszXNrb&#xA;+lbwr6zQyQcmaJFcgRzP8Nab74qyHFXYq7FXYq7FXYq7FXYq8aiY69/zlPMytW28oeXxGwG4W6vX&#xA;5fQWhm/DFXsuKqM97awuEkf96RURKC8hHiEUFiPoxVT9a+l2igEC/wC/JyCfmI0Jr9LLirBPzpgv&#xA;v8KaY8Ukpkt9ZsLia5is3vjCiSlnk+qQhnkRP5dzTvirFNW84a/o3laHzRo1/ca3Lpd81reWTaVc&#xA;aJHOuowi3tV+r3Cxeq0d76R5j9lmGKoVZfzb0nzzp2kTXt/eJZTaXb28vG5lt721aKP9IzTEWzwE&#xA;mQyktJOrR/CFBGzKvesVdirsVdirsVeLfmc3+E/zv8iedgOGn6yJPLOrydAPWJe1LH/jI/Ik9kxV&#xA;7TirsVY5YaFqeh6sq6O0cnl27dmuNMlYqbNyK+pZsAw9Jj9qA0AJ5IRupVZHirsVdirsVdirsVdi&#xA;rsVdirsVdirsVdirsVdiqHv9RsbC3e5vZ0t4I1Z2dyAKKOTU8aDwxV43/wA46DUdWt/NX5gPakTe&#xA;cdVlmtHmYIosbRmigUEc2JVmdacafD1xV7F9Tnk/3puXYfyQ1hT51UmT/h6e2Kq0FvBAhSCNYlJq&#xA;QgCgnxNO+KqmKuxVAanoGjapcWNzqNnHdTaZMLmweUcvSmAoJFHTkOx7Yqj8VdirsVdirsVdirB/&#xA;zp8jHzr+XGraNAtdRWMXelMNmF3b/HGFPbnQx18GxVd+Tfnsed/y90vWpW/3JKn1TVo+jJeQUSXk&#xA;tBx57SAeDDFWbYq7FXYq7FXYq7FXYq7FXYq7FXYq7FXYq7FVss0UMZkldY41+07kKBU03JxVD/Xn&#xA;k2tYHl8JG/dx/wDBMORB7FVOKu+r3kv9/P6an/dUA47HqGkarH2K8cVeV/8AOQ+syad5Pg8p6Elf&#xA;Mvne4TR7M1Jk9GRgLiR2NXKBGCEnpy9sVek+U/Llj5a8taZoFiKWumW0dtGaULcFAZzT9p2qx9zi&#xA;qa4q7FXYq7FXYq7FXYq7FXYq7FXYq7FXhbSf8qn/ADrd5KxeRvzEkqZDtFZ6zXfkeirNX2+14Jir&#xA;3TFXYq7FXYq7FXYqxX8yPzJ8ufl75eGu69672zzJbwwWqLJNJI4Joqu0a7KpJJYYqkvkb88fLHnb&#xA;TZNQ0PTtTlggf0rlfRieWJiKr6kUM0rgN+yab/QcVZF/ysDywhpdy3OnL3k1GyvLGIf89bmKKPbx&#xA;5UxVN9M1jSNVg+saXfW9/B/v22lSZP8AgkLDFUXirTMqqWYhVUVZjsAB3OKob9IxPtao90f5ogOF&#xA;PH1GKoaeANfbFXenqMv95Klsv8sI9R/nzkAX6OH04quisLSOQShOcy/ZmkJkkFRSgZySB7DbFURi&#xA;qncXEFtby3NxIsNvCjSTTOQqIiCrMzHYAAVJxV4n+VkU/wCZH5k6l+a18jfoHTeeleSYZARWNSy3&#xA;F3xPQvyIr/lFf2Bir3DFXYq7FXYq7FXYq7FXYq7FXYq7FXYq7FWN/mJ5E0jzz5SvvLmqCkV0tbe4&#xA;Aq0E67xTJ03Ru3cVHQ4qwn8lPP8ArEk93+XPnU+j528uD01kc7ahZLtFcxsaczxpy7kUbryoq9ax&#xA;V2KuxV2KuxVgHmzybon5g6rrGja1GZtKsLFLGNkoHjvLxluZXQkGkkUcNsyn/KYdCaqvka9tPzA/&#xA;5x7/ADNWaAmW3NRBMwK22o2RI5IwBNGG1R1Rt/Cqr7O8jfmX5U84+Uk8z6ddpFYohN+s7qhtHReU&#xA;iTkkBeHWvQjfpiryPSfzo/Ljz1+cX+HodJtpNNNrNHp+tGJYr261BZEZfQnBjkij9NZOPxBmPh0x&#xA;V60vlrzRbVbRtcmsoaUSz1P/AHKpv35u0dyrD3uHX28VVg1fUNMYN5o0eZ0T4v0tZM2oWykdGaFU&#xA;SeE9yVgKL3fxVZNp2p6dqVol5p11FeWkn93PA6yIadaMpIxVE4q7FXYq8O/NfzBqf5heal/KDylO&#xA;yW/wy+d9Zi+za2gIJtVbvI/7S+NFO3Piq9j0PRNM0PR7PR9LgFtp9hEsFtCu/FEFBudyfEnqcVR2&#xA;KuxV2KuxV2KuxV2KuxV2KuxV2KuxV2KuxV5x+b/5Vy+bILTXfL840vz3oJ9bQ9UWi8ip5G3n2PKN&#xA;96VB4k+BYFVr8o/zcTzelzoWu236G89aN+71nRpPhJK0BngBJ5RtUdzxr3BViq9IxV2Ksb1jULvQ&#xA;9ft9RuJmfy/qAjsrtWNUs7nmRBOP5Y5i/pSeDemenI4qyTFUq8vaPNp0d/Jcusl5qF9cXk8iVoQ7&#xA;cIF3A/u7aOKM/wCriqVfmV+W/l78wPLM2h6zHStXsrxQDLbT0IWVOn+yXow2xV8TRHzT+Svn240P&#xA;zHp8WqaPKyHU9InVZbHUrQNyjlVZFZCVI5IxWqtse4xV9ieR/L/5L+ZtCs/Mnlry1orWl0oaOSPT&#xA;7RJY3U1aOQKlUkRuor/XFWf4q7FVscUUfL00VOTFm4gCrHqTTucVXYq7FXkn5o/mjqsuq/8AKuvy&#xA;6pfeer4cbq6XeDSoDTnPO9GUOFbYdvnxVlWVfld+Wmk+QPLg020drvUblvrGr6rLX1ru5bdpGJLE&#xA;AVoq129ySSqzHFXYq7FXYq7FXYq7FXYq7FXYq7FXYq7FXYq7FXYq87/NP8n7Hzk1trWl3TaF510v&#xA;49J163+Fwy9Ip+O7xnp4rXuKqyqReTPzsvtO1ePyZ+atsvl/zSKJaamaLp2oAbCSKXZEZvD7Ndtj&#xA;8OKvYQQRUbg9DiqleWlre2k1ndxLPa3CNFPBIAyOjjiysD1BBpirF9L1K58tXsHl7W5ml0+dvS0D&#xA;Wpm5ep/LZ3TnpOo2jc/3qjr6laqstxV2KsG/N38p9C/Mjy02mX1LfUIKyaXqSqC8EpHQ92jf9te/&#xA;zAxV8t/knqn5iflh+csHki7tJTHql3FZ6npx5NGUdqLexEbURfj5jqlQfZV9u4q7FXYqp3Nzb2tv&#xA;Jc3MqQW8Kl5ZpGCIiqKlmZqAAeJxV4lr35rea/zD1S48p/lCtLWNvS1nzvKpFrbKftLa1+3IR9lh&#xA;v3UU+MKvQPy0/K3y55A0hrPTFa41C6Pqapq8/wAVzdS1J5SNvsCx4r29zUlVmOKuxV2KuxV2KuxV&#xA;2KuxV2KuxV2KuxV2KuxV2KuxV2KuxVJfN3kzyx5v0eTSPMVhHf2T7qrijxtSnOJxRkYeKnFXk6eU&#xA;vzl/Kw18m3R87+TIvs+XNQcJqFtGP2baelGAA2H3R13xVkvlH/nIb8u9euf0bqFxJ5Z19Dwm0jWk&#xA;+qSq9Psh3/dmv7I5Bj/Lir0W9srDU7CWzvIY7uxuk4SwyAPG6N2IOxGKsUvYvOPlyymh06R9Y0vg&#xA;RazzI13f2W23OL1IWv4l8PUWan+/WOKvBNb8r/nprPmjRtd1XV/8Z+S4dRt5L600vkkUccUo9SO4&#xA;0v8AcOXRftxkM29CeuKvqT09V/5aIP8AkQ//AFWxVaYNSLBzPb8wCA3oPUA0qK+r3oMVXenqv/LR&#xA;B/yIf/qtiqlcy3lrbyXF1fWsFvEOUs0sTIiqO7M0wAGKvKvMf/ORGjwXx0Xyap87eYm2jstKtpGg&#xA;B8ZLr1GQIO7IGp3piqXn8p/zP/MaWO9/NPV49P0dWWSLybpRcQGm4F1Kjguf9V2/yWXpir1zRtAX&#xA;RNNg0zSEs7DT7ZeMNtBbMiKPkJep6knc98VR3p6r/wAtEH/Ih/8AqtirvT1X/log/wCRD/8AVbFX&#xA;enqv/LRB/wAiH/6rYq709V/5aIP+RD/9VsVd6eq/8tEH/Ih/+q2Ku9PVf+WiD/kQ/wD1WxV3p6r/&#xA;AMtEH/Ih/wDqtirDPzevru08u6VHNeS2OlXmrWdp5h1G2drZobGUsHb1QeUKPL6aO4YcVY74qwbU&#xA;PMd15Y8y3eh/l7qa3Olypo0DfXJpdUs7G+1HUlswFdpTIC8D+o0XqjoGH2jiqGg87edNGvdbtrnV&#xA;7DVkm1u80y50xUmivAw0v6w91CwuXaGFHiqIguykn1K4qpaV+YXm3TVujHqcclxqH6Ct9Osnglu2&#xA;iSbSfrcqwLLcxqzEKatNMg+0xYtsVXof5QectU836OmtaiES5ntESSOE/uedvf39qZEUPMo9QW6s&#xA;eLsPBiKHFWEa5+ZHnrS44fMl79Su0CeYW0uzjS6hEKabN9XVrkpOyTghVkb92CorSnXFXWHnjzlY&#xA;+bNW01vMOlXEmoataWf+IZIpP0bbRjSWu+CW31miyStHwH7+h3P2tsVS9v8AnILz0LCxnhsLS5eO&#xA;xGo3sqJElvch7+4tAsUs97bNDHxgFHCSsXIBUD7Sr6IxV2KuxV2KuxV2Ksf82+QPJfm+2+r+ZNHt&#xA;tSQCiSSpSZB/xXMnGVP9iwxV5wP+cedT8vsZPy688at5aQEsumzkX9jy8BDIUA+bcjiq8XH/ADlR&#xA;oZ4Pa+XvNkAHwyRvJZ3Ldhy5GCFfkAfniq8fm5+cVoCmp/lLe816vZajBcg060CRn6PiNcVbP55+&#xA;daHj+VXmMt+yCgAr2qeJpirTfmp+d99WPSvynmib/f1/qdvEoNP5GWOo6dGxVTa0/wCcpte2kvfL&#xA;/lC2alTbpJe3Sg9f7wTQk/Ij+OKrrb/nG7TtUnS7/MHzPq3nK4Q8hbXEz21kD/kwRMWX/YyAe2Kv&#xA;T/L3lby35bsRY6DpltploKVito1j5Ed3IFXb3apxVNMVdirsVdirsVdirsVdirsVWT28FxC8FxGs&#xA;0EqlZIpFDIynYhlNQQcVQNn5c8vWVotlZaXaW1mkq3CW0MEUcQmRgyShFULzVlBDUqCMVb/w9oH1&#xA;2S+/Rlp9emVkluvQj9V0k+2rPx5EN3BO+KqN35Q8p3iFLvRLC5QpHGVltYXBSHaJaMp+GP8AZHbt&#xA;iqNsdM02wQx2NpDaRmtUgjWMGrM52UD9p2b5k+OKtfonSv3f+hQfuvVEX7pPhE5rNx229Q/b/m74&#xA;qkOs/l15evtJTTLBToNukolI0uK2iR6Ky8JYJYZreVP3hNJIzRqMKEVxVE6T5E8rabpWlacunw3c&#xA;ejD/AECe8RJ543JLNKJHWod2JZitN8Vf/9k=</xmpGImg:image>
               </rdf:li>
            </rdf:Alt>
         </xmp:Thumbnails>
      </rdf:Description>
      <rdf:Description rdf:about=""
            xmlns:xmpMM="http://ns.adobe.com/xap/1.0/mm/"
            xmlns:stRef="http://ns.adobe.com/xap/1.0/sType/ResourceRef#"
            xmlns:stEvt="http://ns.adobe.com/xap/1.0/sType/ResourceEvent#">
         <xmpMM:DocumentID>xmp.did:9BCC6E7E3D20681188C69098C6AB8D67</xmpMM:DocumentID>
         <xmpMM:InstanceID>xmp.iid:9BCC6E7E3D20681188C69098C6AB8D67</xmpMM:InstanceID>
         <xmpMM:DerivedFrom rdf:parseType="Resource">
            <stRef:instanceID>uuid:2aae59f4-d103-4b5d-80b6-050534f1abd7</stRef:instanceID>
            <stRef:documentID>uuid:8F63A1CF0126DF118833972942CE57BD</stRef:documentID>
            <stRef:originalDocumentID>uuid:8F63A1CF0126DF118833972942CE57BD</stRef:originalDocumentID>
         </xmpMM:DerivedFrom>
         <xmpMM:OriginalDocumentID>uuid:8F63A1CF0126DF118833972942CE57BD</xmpMM:OriginalDocumentID>
         <xmpMM:History>
            <rdf:Seq>
               <rdf:li rdf:parseType="Resource">
                  <stEvt:action>saved</stEvt:action>
                  <stEvt:instanceID>xmp.iid:9BCC6E7E3D20681188C69098C6AB8D67</stEvt:instanceID>
                  <stEvt:when>2015-02-12T17:07:19+02:00</stEvt:when>
                  <stEvt:softwareAgent>Adobe Illustrator CS5.1</stEvt:softwareAgent>
                  <stEvt:changed>/</stEvt:changed>
               </rdf:li>
            </rdf:Seq>
         </xmpMM:History>
      </rdf:Description>
      <rdf:Description rdf:about=""
            xmlns:pdf="http://ns.adobe.com/pdf/1.3/">
         <pdf:Producer>Adobe PDF library 7.77</pdf:Producer>
      </rdf:Description>
      <rdf:Description rdf:about=""
            xmlns:xmpTPg="http://ns.adobe.com/xap/1.0/t/pg/"
            xmlns:stDim="http://ns.adobe.com/xap/1.0/sType/Dimensions#"
            xmlns:xmpG="http://ns.adobe.com/xap/1.0/g/">
         <xmpTPg:MaxPageSize rdf:parseType="Resource">
            <stDim:w>327.464355</stDim:w>
            <stDim:h>213.308594</stDim:h>
            <stDim:unit>Pixels</stDim:unit>
         </xmpTPg:MaxPageSize>
         <xmpTPg:NPages>1</xmpTPg:NPages>
         <xmpTPg:HasVisibleTransparency>False</xmpTPg:HasVisibleTransparency>
         <xmpTPg:HasVisibleOverprint>False</xmpTPg:HasVisibleOverprint>
         <xmpTPg:PlateNames>
            <rdf:Seq>
               <rdf:li>Cyan</rdf:li>
               <rdf:li>Magenta</rdf:li>
               <rdf:li>Yellow</rdf:li>
               <rdf:li>Black</rdf:li>
            </rdf:Seq>
         </xmpTPg:PlateNames>
         <xmpTPg:SwatchGroups>
            <rdf:Seq>
               <rdf:li rdf:parseType="Resource">
                  <xmpG:groupName>Default Swatch Group</xmpG:groupName>
                  <xmpG:groupType>0</xmpG:groupType>
               </rdf:li>
            </rdf:Seq>
         </xmpTPg:SwatchGroups>
      </rdf:Description>
   </rdf:RDF>
</x:xmpmeta>
                                                                                                    
                                                                                                    
                                                                                                    
                                                                                                    
                                                                                                    
                                                                                                    
                                                                                                    
                                                                                                    
                                                                                                    
                                                                                                    
                                                                                                    
                                                                                                    
                                                                                                    
                                                                                                    
                                                                                                    
                                                                                                    
                                                                                                    
                                                                                                    
                                                                                                    
                                                                                                    
                           
<?xpacket end="w"?>
	</metadata>
<g>
	<g>
		<path d="M90.431,198.79l11.524,4.244c-1.819-2.932-2.022-5.559-0.101-8.49L90.431,198.79z"/>
		<path fill="none" stroke="#000000" stroke-width="0.0326" stroke-linecap="round" stroke-linejoin="round" d="M90.431,198.79
			l11.524,4.244c-1.819-2.932-2.022-5.559-0.101-8.49L90.431,198.79z"/>
		<path d="M109.94,175.136l12.23-0.302c-2.729-2.023-3.942-4.35-3.233-7.783L109.94,175.136z"/>
		<path fill="none" stroke="#000000" stroke-width="0.0333" stroke-linecap="round" stroke-linejoin="round" d="M109.94,175.136
			l12.23-0.302c-2.729-2.023-3.942-4.35-3.233-7.783L109.94,175.136z"/>
	</g>
	<g>
		<path fill="none" stroke="#000000" stroke-width="2.96" d="M106.706,211.829c57.918,0,105.225-47.205,105.225-105.124
			S164.625,1.48,106.706,1.48C48.787,1.48,1.48,48.787,1.48,106.705S48.787,211.829,106.706,211.829z"/>
		<path fill="none" stroke="#000000" stroke-width="1.1115" d="M114.69,118.531c-0.202-0.708-0.202-1.617-0.607-2.325
			c-0.707-1.313-1.92-2.324-2.628-1.717c-1.011,1.01-0.505,2.525,0.809,3.133c2.224,1.11,4.853,1.921,6.672,4.244
			c2.123,2.831,0.809,5.258-3.032,4.649c-3.335-0.606-8.188,1.111-13.141,0.404c-8.39-1.012-12.837-6.772-11.927-13.443
			c0.505-3.538,1.314-6.469,0.202-8.592c-0.91-1.819-1.212-4.346,1.517-5.863c3.235-1.817,6.469,0.102,8.896,2.933
			c-0.607,1.213-0.607,2.628,0,3.739c0.909,1.517,3.235,1.819,3.235,0.202c0-1.718-2.022-2.728-3.134-4.042"/>
	</g>
	<g>
		<path fill="none" stroke="#000000" stroke-width="1.1115" d="M121.463,61.623c0.303,5.559-0.202,10.815-1.415,15.768
			c-1.111,4.853-1.111,10.411,2.021,14.657c2.224,2.932,5.66,4.447,9.4,4.245c1.718-0.102,2.325,0.708,2.325,3.033
			c0,3.334,1.011,6.67,4.042,8.389c4.043,2.325,8.896,2.325,13.04,0.708c4.246-1.819,8.186-3.438,12.535-3.033
			c-3.337-4.042-6.672-6.771-10.006-7.176c-4.449-0.606-5.966-2.526-7.178-6.974c-1.214-4.751-4.852-6.773-7.783-7.076
			c-2.83-0.202-5.559-2.123-6.571-8.491C130.258,65.565,126.416,62.633,121.463,61.623z"/>
	</g>
	<g>
		<path fill="none" stroke="#000000" stroke-width="1.1115" d="M121.261,61.522c11.624-1.818,22.944,1.415,33.76,10.816
			c6.47,6.874,9.4,17.487,7.987,32.647c-3.236-3.84-6.369-6.367-9.604-6.771c-4.447-0.607-5.964-2.527-7.176-6.975
			c-1.214-4.751-4.852-6.773-7.783-7.076c-2.83-0.202-5.56-2.122-6.571-8.49c-1.616-10.108-5.458-13.041-10.411-14.051v0.403
			L121.261,61.522z"/>
		<path d="M32.208,88.409L32.208,88.409c1.416-1.112,3.336-0.91,4.549,0.404l24.461,29.109c1.111,1.314,0.91,3.337-0.404,4.448
			c-1.314,1.112-3.335,1.012-4.448-0.404l-24.46-29.009C30.794,91.543,30.895,89.623,32.208,88.409"/>
		<path fill="none" stroke="#000000" stroke-width="0.1598" d="M32.208,88.409L32.208,88.409c1.416-1.112,3.336-0.91,4.549,0.404
			l24.461,29.109c1.111,1.314,0.91,3.337-0.404,4.448c-1.314,1.112-3.335,1.012-4.448-0.404l-24.46-29.009
			C30.794,91.543,30.895,89.623,32.208,88.409z"/>
		<path d="M90.229,160.985L90.229,160.985c1.314-1.213,3.335-1.11,4.447,0.202l25.775,27.898c1.112,1.314,1.112,3.334-0.203,4.548
			c-1.313,1.111-3.335,1.111-4.447-0.202l-25.775-27.999C88.815,164.12,88.915,162.097,90.229,160.985"/>
		<path fill="none" stroke="#000000" stroke-width="0.1598" d="M90.229,160.985L90.229,160.985c1.314-1.213,3.335-1.11,4.447,0.202
			l25.775,27.898c1.112,1.314,1.112,3.334-0.203,4.548c-1.313,1.111-3.335,1.111-4.447-0.202l-25.775-27.999
			C88.815,164.12,88.915,162.097,90.229,160.985z"/>
		<path fill="none" stroke="#000000" stroke-width="1.1115" d="M14.924,105.795c4.447,13.847,12.332,25.066,23.653,33.762"/>
		<path fill="none" stroke="#000000" stroke-width="1.1115" d="M65.162,175.844c7.176,12.737,17.184,22.237,30.02,28.503"/>
		<path fill="none" stroke="#000000" stroke-width="1.1115" d="M41.104,126.212c6.67-0.809,13.241-1.92,19.913-4.446
			c4.852-22.237,5.458-43.363-3.235-62.062"/>
		<path fill="none" stroke="#000000" stroke-width="1.1115" d="M83.356,179.886c2.123-6.367,3.033-12.835,6.369-19.205
			c18.8,0.202,37.601,4.65,56.402,13.443"/>
		<polygon points="252.666,131.874 252.666,121.967 259.943,121.967 259.943,123.08 253.979,123.08 253.979,126.212 
			259.541,126.212 259.541,127.425 253.979,127.425 253.979,130.661 260.145,130.661 260.145,131.874 		"/>
		<path d="M261.762,134.703l-0.103-1.211c0.305,0.1,0.506,0.201,0.709,0.201c0.305,0,0.504-0.103,0.606-0.201
			c0.202-0.104,0.304-0.204,0.403-0.404c0.101-0.103,0.201-0.405,0.406-0.911c0,0,0.1-0.101,0.1-0.303l-2.729-7.177h1.313
			l1.516,4.145c0.202,0.506,0.405,1.111,0.508,1.719c0.199-0.606,0.303-1.213,0.504-1.719l1.617-4.145h1.213l-2.729,7.278
			c-0.305,0.809-0.605,1.413-0.708,1.718c-0.203,0.403-0.507,0.707-0.81,0.909c-0.303,0.101-0.605,0.202-1.011,0.202
			C262.369,134.805,262.066,134.805,261.762,134.703"/>
		<path d="M273.892,129.549l1.213,0.201c-0.203,0.708-0.505,1.312-1.111,1.718c-0.506,0.405-1.213,0.607-2.021,0.607h-0.104v-1.013
			h0.104c0.404,0,0.811-0.1,1.111-0.402C273.386,130.458,273.69,130.054,273.892,129.549 M271.869,124.495L271.869,124.495
			c1.014,0,1.721,0.405,2.327,1.01c0.706,0.708,1.013,1.619,1.013,2.831v0.304h-3.34v-1.012h2.023
			c-0.102-0.605-0.202-1.012-0.506-1.313c-0.404-0.506-0.91-0.708-1.518-0.708V124.495L271.869,124.495z M271.869,132.076
			c-1.01,0-1.818-0.403-2.425-1.013c-0.706-0.604-1.01-1.614-1.01-2.627c0-1.213,0.304-2.225,1.01-2.831
			c0.604-0.705,1.415-1.01,2.425-1.11v1.11c-0.604,0-1.01,0.202-1.412,0.506c-0.406,0.404-0.606,0.91-0.606,1.517h2.021v1.012
			h-2.121c0,0.708,0.301,1.313,0.707,1.718c0.303,0.405,0.809,0.707,1.414,0.707v1.012H271.869z"/>
		<path d="M257.012,195.25L257.012,195.25c1.01,0,1.819,0.202,2.526,0.708c0.811,0.403,1.313,1.012,1.717,1.818
			c0.404,0.809,0.608,1.721,0.608,2.729c0,1.011-0.204,1.921-0.608,2.729c-0.402,0.811-1.01,1.415-1.818,1.819
			c-0.707,0.406-1.516,0.605-2.425,0.605v-1.111c1.01,0,1.819-0.403,2.526-1.111c0.605-0.708,0.91-1.718,0.91-2.931
			c0-0.91-0.101-1.618-0.404-2.224c-0.305-0.605-0.709-1.013-1.213-1.415c-0.506-0.306-1.111-0.507-1.819-0.507V195.25
			L257.012,195.25z M252.26,200.609c0-1.72,0.405-3.032,1.315-3.941c0.908-0.91,2.021-1.416,3.437-1.416v1.111
			c-0.91,0-1.72,0.403-2.427,1.012c-0.606,0.605-1.01,1.718-1.01,3.234c0,1.213,0.402,2.121,1.01,2.829
			c0.606,0.708,1.517,1.111,2.427,1.111v1.111c-0.91,0-1.72-0.199-2.527-0.707c-0.708-0.404-1.313-1.112-1.616-1.819
			C252.462,202.327,252.26,201.417,252.26,200.609"/>
		<path d="M263.378,205.461v-7.278h1.115v1.112c0.301-0.506,0.604-0.811,0.805-1.012c0.205-0.202,0.507-0.202,0.811-0.202
			c0.404,0,0.811,0.102,1.214,0.302l-0.403,1.214c-0.305-0.202-0.605-0.302-0.912-0.302c-0.303,0-0.504,0.1-0.707,0.302
			c-0.2,0.101-0.404,0.304-0.504,0.605c-0.104,0.506-0.202,0.912-0.202,1.416v3.843H263.378z"/>
		<path d="M271.164,198.082h0.103c0.504,0,0.909,0,1.313,0.202c0.402,0.201,0.707,0.506,1.01,0.808
			c0.203,0.304,0.404,0.708,0.606,1.111c0.101,0.506,0.202,1.012,0.202,1.518c0,1.214-0.304,2.224-0.91,2.931
			c-0.605,0.606-1.415,1.011-2.223,1.011h-0.104v-1.011c0.506,0,1.012-0.304,1.416-0.707c0.403-0.506,0.506-1.214,0.506-2.121
			c0-0.911-0.103-1.619-0.506-2.125c-0.404-0.401-0.81-0.605-1.416-0.605v-1.011H271.164z M269.244,205.461h-1.214v-10.009h1.313
			v3.537c0.506-0.606,1.113-0.908,1.818-0.908v1.01c-0.506,0-1.01,0.204-1.412,0.708c-0.307,0.403-0.506,1.111-0.506,2.021
			c0,0.81,0.1,1.414,0.301,1.82c0.404,0.705,0.912,1.009,1.617,1.009v1.011c-0.808,0-1.516-0.403-1.918-1.111V205.461
			L269.244,205.461z"/>
		<path d="M275.914,195.453h1.213v1.417h-1.213V195.453z M275.914,198.182h1.213v7.277h-1.213V198.182z"/>
		<path d="M281.677,204.347l0.199,1.114c-0.303,0.1-0.605,0.1-0.91,0.1c-0.504,0-0.807-0.1-1.01-0.202
			c-0.304-0.1-0.506-0.304-0.604-0.604c-0.103-0.202-0.103-0.708-0.103-1.416v-4.146h-0.91v-1.01h0.91v-1.817l1.213-0.71v2.527
			h1.215v1.01h-1.215v4.245c0,0.305,0,0.506,0.103,0.607c0,0.102,0.101,0.202,0.2,0.302c0.104,0,0.201,0.104,0.406,0.104
			C281.271,204.45,281.473,204.45,281.677,204.347"/>
		<path d="M287.639,204.551c-0.404,0.404-0.91,0.708-1.313,0.808c-0.201,0.104-0.404,0.202-0.605,0.202v-0.908
			c0.303,0,0.605-0.102,0.808-0.306c0.404-0.2,0.708-0.504,0.81-0.806c0.203-0.307,0.203-0.71,0.203-1.214v-0.507
			c-0.403,0.202-1.013,0.304-1.819,0.404v-1.012c0.808-0.101,1.416-0.202,1.819-0.403v-0.303c0-0.505-0.103-0.81-0.305-1.011
			c-0.304-0.306-0.808-0.406-1.415-0.406h-0.101v-1.01h0.303c0.607,0,1.113,0,1.518,0.202c0.303,0.1,0.605,0.304,0.808,0.506
			s0.305,0.506,0.403,0.808c0,0.304,0.103,0.607,0.103,1.214v1.617v2.225c0.103,0.304,0.202,0.505,0.304,0.81h-1.213
			C287.742,205.259,287.742,204.956,287.639,204.551 M285.719,205.561c-0.304,0.103-0.507,0.103-0.71,0.103
			c-0.807,0-1.413-0.201-1.92-0.607c-0.402-0.402-0.604-0.908-0.604-1.514c0-0.307,0.101-0.71,0.202-0.911
			c0.201-0.303,0.402-0.606,0.707-0.708c0.202-0.202,0.504-0.404,0.91-0.404c0.201-0.102,0.605-0.201,1.012-0.201l0.402-0.103v1.012
			l-0.202,0.103c-0.507,0-0.81,0.101-1.011,0.199c-0.201,0.104-0.403,0.204-0.506,0.406s-0.201,0.403-0.201,0.607
			c0,0.302,0.1,0.604,0.404,0.806c0.2,0.204,0.606,0.306,1.112,0.306h0.403L285.719,205.561L285.719,205.561z M285.719,199.091
			c-0.507,0-0.909,0.102-1.214,0.304c-0.303,0.202-0.506,0.506-0.607,1.013l-1.211-0.103c0.1-0.504,0.304-1.01,0.605-1.312
			c0.203-0.304,0.604-0.507,1.012-0.708c0.402-0.102,0.908-0.202,1.415-0.202V199.091z"/>
		<line fill="none" stroke="#000000" stroke-width="0.6394" x1="291.278" y1="205.461" x2="291.278" y2="195.453"/>
		<path d="M297.748,205.461v-7.278h1.111v1.112c0.305-0.506,0.506-0.811,0.811-1.012c0.199-0.202,0.504-0.202,0.707-0.202
			c0.403,0,0.908,0.102,1.312,0.302l-0.404,1.214c-0.302-0.202-0.604-0.302-0.906-0.302c-0.305,0-0.508,0.1-0.709,0.302
			c-0.303,0.101-0.405,0.304-0.506,0.605c-0.102,0.506-0.201,0.912-0.201,1.416v3.843H297.748z"/>
		<path d="M302.397,195.453h1.212v1.417h-1.212V195.453z M302.397,198.182h1.212v7.277h-1.212V198.182z"/>
		<path d="M310.281,205.461v-0.91c-0.504,0.708-1.111,1.111-1.922,1.111v-1.013c0.506,0,1.012-0.2,1.314-0.707
			c0.404-0.403,0.606-1.111,0.606-2.021c0-1.012-0.202-1.72-0.606-2.123c-0.303-0.504-0.81-0.708-1.314-0.708v-1.01
			c0.307,0,0.71,0.102,1.012,0.202c0.305,0.201,0.608,0.403,0.811,0.706v-3.537h1.212v10.009H310.281z M308.359,205.663h-0.1
			c-0.607,0-1.111-0.201-1.617-0.506s-0.91-0.811-1.111-1.315c-0.305-0.605-0.404-1.211-0.404-2.021
			c0-0.706,0.101-1.313,0.303-1.921c0.304-0.604,0.607-1.11,1.111-1.415c0.506-0.303,1.012-0.403,1.619-0.403h0.199v1.01h-0.1
			c-0.506,0-1.012,0.204-1.313,0.607c-0.405,0.504-0.604,1.212-0.604,2.122c0,0.908,0.199,1.616,0.604,2.122
			c0.404,0.403,0.808,0.707,1.413,0.707V205.663z"/>
		<path d="M316.142,207.38c0.506,0,0.912-0.103,1.214-0.302c0.304-0.204,0.506-0.608,0.606-1.013c0-0.201,0.102-0.708,0.102-1.518
			c-0.504,0.606-1.212,0.912-1.922,0.912v-1.012c0.506,0,1.012-0.202,1.418-0.608c0.402-0.504,0.605-1.111,0.605-2.121
			c0-0.911-0.203-1.518-0.605-2.023c-0.406-0.4-0.912-0.604-1.418-0.604v-1.01c0.811,0,1.518,0.302,2.023,1.01v-0.908h1.11v6.268
			c0,1.211-0.103,2.021-0.304,2.425c-0.303,0.506-0.605,0.911-1.111,1.11c-0.506,0.305-1.01,0.406-1.72,0.406L316.142,207.38
			L316.142,207.38z M313.112,206.067l1.211,0.202c0,0.403,0.204,0.605,0.406,0.811c0.302,0.199,0.706,0.302,1.214,0.302h0.199v1.012
			h-0.1c-0.91,0-1.617-0.202-2.123-0.506C313.313,207.482,313.112,206.875,313.112,206.067 M316.142,205.461h-0.1
			c-1.013,0-1.819-0.305-2.326-1.114c-0.604-0.705-0.807-1.516-0.807-2.524c0-0.707,0.1-1.314,0.301-1.922
			c0.305-0.604,0.607-1.11,1.111-1.415c0.506-0.303,1.012-0.403,1.721-0.403h0.1v1.01c-0.605,0-1.01,0.204-1.413,0.604
			c-0.406,0.507-0.604,1.112-0.604,2.023c0,0.91,0.198,1.617,0.604,2.121c0.403,0.406,0.808,0.608,1.413,0.608V205.461
			L316.142,205.461z"/>
		<path d="M326.151,203.134l1.212,0.203c-0.199,0.708-0.504,1.312-1.111,1.718c-0.504,0.406-1.211,0.607-2.021,0.607h-0.103v-1.013
			h0.103c0.404,0,0.81-0.1,1.112-0.402C325.645,204.045,325.949,203.642,326.151,203.134 M324.128,198.082L324.128,198.082
			c1.011,0,1.819,0.302,2.426,0.908c0.607,0.709,0.91,1.618,0.91,2.832v0.303h-3.336v-1.01h2.021
			c-0.102-0.607-0.202-1.013-0.506-1.315c-0.404-0.504-0.91-0.708-1.516-0.708V198.082L324.128,198.082z M324.128,205.663
			c-1.012,0-1.818-0.403-2.426-1.013c-0.606-0.604-1.011-1.517-1.011-2.729c0-1.214,0.403-2.224,1.011-2.831
			c0.606-0.708,1.414-1.01,2.426-1.01v1.01c-0.604,0-1.012,0.204-1.414,0.506c-0.404,0.406-0.608,0.91-0.608,1.519h2.022v1.01
			h-2.123c0.101,0.81,0.305,1.415,0.709,1.818c0.402,0.403,0.81,0.707,1.414,0.707V205.663L324.128,205.663z"/>
		<path d="M163.917,84.972l11.523,4.246c-1.819-2.83-2.022-5.458-0.103-8.49L163.917,84.972z"/>
		<path fill="none" stroke="#000000" stroke-width="0.0326" stroke-linecap="round" stroke-linejoin="round" d="M163.917,84.972
			l11.523,4.246c-1.819-2.83-2.022-5.458-0.103-8.49L163.917,84.972z"/>
		<path d="M159.976,54.951l12.23-0.91c-2.83-1.819-4.146-4.146-3.64-7.581L159.976,54.951z"/>
		<path fill="none" stroke="#000000" stroke-width="0.0333" stroke-linecap="round" stroke-linejoin="round" d="M159.976,54.951
			l12.23-0.91c-2.83-1.819-4.146-4.146-3.64-7.581L159.976,54.951z"/>
		<path fill="none" stroke="#000000" stroke-width="1.1115" d="M149.26,33.421c-2.426,22.744,5.156,37.501,35.076,34.569"/>
		<path d="M259.841,26.75l1.312,0.303c-0.302,1.111-0.806,1.92-1.514,2.527c-0.71,0.505-1.619,0.808-2.629,0.808
			c-1.111,0-2.021-0.202-2.627-0.604c-0.709-0.507-1.215-1.112-1.619-1.921c-0.303-0.909-0.506-1.718-0.506-2.729
			c0-1.012,0.203-1.921,0.606-2.73c0.404-0.808,1.011-1.414,1.718-1.818s1.518-0.607,2.428-0.607c1.01,0,1.818,0.305,2.527,0.811
			c0.707,0.505,1.211,1.213,1.414,2.123l-1.312,0.303c-0.204-0.707-0.506-1.212-1.012-1.516c-0.405-0.405-1.012-0.506-1.617-0.506
			c-0.811,0-1.416,0.202-1.922,0.506c-0.605,0.403-0.909,0.908-1.111,1.516c-0.202,0.606-0.302,1.213-0.302,1.921
			c0,0.91,0.1,1.617,0.302,2.223c0.305,0.607,0.708,1.113,1.212,1.416c0.506,0.304,1.113,0.505,1.72,0.505
			c0.707,0,1.313-0.201,1.819-0.605C259.235,28.165,259.641,27.559,259.841,26.75"/>
		<path d="M262.673,30.289V20.18h1.212v3.639c0.506-0.707,1.312-1.011,2.122-1.011c0.606,0,1.011,0.102,1.416,0.304
			c0.404,0.202,0.707,0.506,0.908,0.91c0.103,0.304,0.203,0.91,0.203,1.617v4.65h-1.213v-4.65c0-0.606-0.104-1.112-0.404-1.312
			c-0.304-0.304-0.604-0.507-1.112-0.507c-0.404,0-0.706,0.102-1.011,0.304c-0.403,0.203-0.606,0.506-0.707,0.81
			c-0.203,0.303-0.203,0.81-0.203,1.313v4.044L262.673,30.289L262.673,30.289z"/>
		<path d="M270.457,20.179h1.213v1.415h-1.213V20.179z M270.457,23.011h1.213v7.278h-1.213V23.011z"/>
		<path d="M273.587,30.289V23.01h1.113v1.011c0.506-0.81,1.312-1.213,2.325-1.213c0.403,0,0.808,0.102,1.212,0.202
			c0.305,0.202,0.607,0.405,0.809,0.606c0.203,0.303,0.304,0.606,0.404,0.909v1.214v4.549h-1.213V25.84
			c0-0.506-0.101-0.91-0.101-1.112c-0.103-0.303-0.304-0.505-0.507-0.606c-0.303-0.202-0.604-0.304-0.908-0.304
			c-0.506,0-1.012,0.203-1.314,0.507c-0.404,0.403-0.606,1.01-0.606,1.92v4.044L273.587,30.289L273.587,30.289z"/>
		<path d="M252.566,89.117V79.11h2.02l2.428,7.076c0.201,0.708,0.402,1.112,0.402,1.517c0.203-0.404,0.306-0.91,0.606-1.617
			l2.427-6.976h1.719v10.007h-1.213v-8.39l-2.933,8.39h-1.212l-2.934-8.593v8.593L252.566,89.117L252.566,89.117z"/>
		<path d="M267.119,81.637L267.119,81.637c1.012,0,1.819,0.404,2.428,1.01c0.707,0.708,1.012,1.619,1.012,2.73
			c0,0.91-0.202,1.718-0.405,2.224c-0.303,0.505-0.708,0.91-1.214,1.213c-0.605,0.304-1.212,0.505-1.818,0.505v-1.011
			c0.606,0,1.112-0.304,1.518-0.707c0.402-0.506,0.607-1.213,0.607-2.123s-0.205-1.617-0.607-2.123
			c-0.404-0.403-0.91-0.708-1.518-0.708v-1.01H267.119z M263.684,85.478c0-1.313,0.401-2.325,1.211-3.033
			c0.608-0.505,1.315-0.808,2.224-0.808v1.01c-0.604,0-1.111,0.305-1.516,0.708c-0.404,0.506-0.605,1.213-0.605,2.123
			s0.201,1.617,0.605,2.123c0.404,0.403,0.91,0.707,1.516,0.707v1.011c-1.01,0-1.818-0.403-2.426-1.011
			C263.986,87.601,263.684,86.691,263.684,85.478"/>
		<path d="M276.723,89.117v-1.111c-0.507,0.91-1.315,1.313-2.224,1.313c-0.506,0-0.912-0.101-1.215-0.303
			c-0.402-0.102-0.707-0.304-0.908-0.605c-0.101-0.203-0.305-0.506-0.305-0.91c-0.102-0.202-0.102-0.607-0.102-1.112V81.84h1.213
			v4.042c0,0.607,0,1.113,0.102,1.313c0.102,0.305,0.202,0.607,0.506,0.708c0.203,0.203,0.504,0.304,0.91,0.304
			c0.403,0,0.707-0.101,1.01-0.304c0.404-0.201,0.607-0.403,0.709-0.708c0.102-0.403,0.201-0.808,0.201-1.414v-3.942h1.213v7.277
			L276.723,89.117L276.723,89.117z"/>
		<path d="M282.485,88.005l0.2,1.111c-0.402,0.102-0.708,0.102-0.908,0.102c-0.506,0-0.811-0.102-1.111-0.202
			c-0.203-0.203-0.405-0.304-0.506-0.605c-0.102-0.203-0.102-0.708-0.102-1.416v-4.246h-0.91v-0.91h0.91V80.02l1.213-0.708v2.527
			h1.214v0.91h-1.214v4.347v0.606c0.102,0.101,0.202,0.201,0.303,0.303c0.103,0,0.203,0.102,0.403,0.102
			C282.08,88.107,282.283,88.005,282.485,88.005"/>
		<path d="M283.697,89.117V79.11h1.213v3.538c0.606-0.605,1.313-1.011,2.227-1.011c0.504,0,1.01,0.101,1.412,0.404
			c0.406,0.202,0.606,0.506,0.811,0.809c0.202,0.405,0.303,0.91,0.303,1.616v4.65h-1.313v-4.65c0-0.605-0.101-1.01-0.304-1.313
			c-0.303-0.303-0.707-0.403-1.211-0.403c-0.306,0-0.709,0.101-1.013,0.304c-0.304,0.202-0.504,0.404-0.708,0.707
			c-0.102,0.405-0.201,0.81-0.201,1.416v3.941H283.697z"/>
		<line fill="none" stroke="#000000" stroke-width="0.37" x1="244.477" y1="24.526" x2="163.917" y2="53.234"/>
		<line fill="none" stroke="#000000" stroke-width="0.37" x1="248.319" y1="84.669" x2="168.061" y2="84.669"/>
		<line fill="none" stroke="#000000" stroke-width="0.37" x1="248.319" y1="126.212" x2="109.636" y2="175.44"/>
		<line fill="none" stroke="#000000" stroke-width="0.37" x1="247.108" y1="198.486" x2="91.038" y2="198.486"/>
	</g>
</g>
</svg>
