<?xml version="1.0" encoding="utf-8"?>
<!-- Generator: Adobe Illustrator 15.1.0, SVG Export Plug-In . SVG Version: 6.00 Build 0)  -->
<!DOCTYPE svg PUBLIC "-//W3C//DTD SVG 1.1//EN" "http://www.w3.org/Graphics/SVG/1.1/DTD/svg11.dtd">
<svg version="1.1" id="Layer_4" xmlns="http://www.w3.org/2000/svg" xmlns:xlink="http://www.w3.org/1999/xlink" x="0px" y="0px"
	 width="327.424px" height="191.107px" viewBox="0 0 327.424 191.107" enable-background="new 0 0 327.424 191.107"
	 xml:space="preserve">
<metadata><?xpacket begin="﻿" id="W5M0MpCehiHzreSzNTczkc9d"?>
<x:xmpmeta xmlns:x="adobe:ns:meta/" x:xmptk="Adobe XMP Core 5.0-c060 61.134777, 2010/02/12-17:32:00        ">
   <rdf:RDF xmlns:rdf="http://www.w3.org/1999/02/22-rdf-syntax-ns#">
      <rdf:Description rdf:about=""
            xmlns:dc="http://purl.org/dc/elements/1.1/">
         <dc:format>image/svg+xml</dc:format>
         <dc:title>
            <rdf:Alt>
               <rdf:li xml:lang="x-default">8B-4</rdf:li>
            </rdf:Alt>
         </dc:title>
      </rdf:Description>
      <rdf:Description rdf:about=""
            xmlns:xmp="http://ns.adobe.com/xap/1.0/"
            xmlns:xmpGImg="http://ns.adobe.com/xap/1.0/g/img/">
         <xmp:CreatorTool>Adobe Illustrator CS5.1</xmp:CreatorTool>
         <xmp:CreateDate>2015-02-12T17:06:47+02:00</xmp:CreateDate>
         <xmp:ModifyDate>2015-02-12T17:06:47+02:00</xmp:ModifyDate>
         <xmp:MetadataDate>2015-02-12T17:06:47+02:00</xmp:MetadataDate>
         <xmp:Thumbnails>
            <rdf:Alt>
               <rdf:li rdf:parseType="Resource">
                  <xmpGImg:width>256</xmpGImg:width>
                  <xmpGImg:height>152</xmpGImg:height>
                  <xmpGImg:format>JPEG</xmpGImg:format>
                  <xmpGImg:image>/9j/4AAQSkZJRgABAgEAyADIAAD/7QAsUGhvdG9zaG9wIDMuMAA4QklNA+0AAAAAABAAyAAAAAEA&#xA;AQDIAAAAAQAB/+4ADkFkb2JlAGTAAAAAAf/bAIQABgQEBAUEBgUFBgkGBQYJCwgGBggLDAoKCwoK&#xA;DBAMDAwMDAwQDA4PEA8ODBMTFBQTExwbGxscHx8fHx8fHx8fHwEHBwcNDA0YEBAYGhURFRofHx8f&#xA;Hx8fHx8fHx8fHx8fHx8fHx8fHx8fHx8fHx8fHx8fHx8fHx8fHx8fHx8fHx8f/8AAEQgAmAEAAwER&#xA;AAIRAQMRAf/EAaIAAAAHAQEBAQEAAAAAAAAAAAQFAwIGAQAHCAkKCwEAAgIDAQEBAQEAAAAAAAAA&#xA;AQACAwQFBgcICQoLEAACAQMDAgQCBgcDBAIGAnMBAgMRBAAFIRIxQVEGE2EicYEUMpGhBxWxQiPB&#xA;UtHhMxZi8CRygvElQzRTkqKyY3PCNUQnk6OzNhdUZHTD0uIIJoMJChgZhJRFRqS0VtNVKBry4/PE&#xA;1OT0ZXWFlaW1xdXl9WZ2hpamtsbW5vY3R1dnd4eXp7fH1+f3OEhYaHiImKi4yNjo+Ck5SVlpeYmZ&#xA;qbnJ2en5KjpKWmp6ipqqusra6voRAAICAQIDBQUEBQYECAMDbQEAAhEDBCESMUEFURNhIgZxgZEy&#xA;obHwFMHR4SNCFVJicvEzJDRDghaSUyWiY7LCB3PSNeJEgxdUkwgJChgZJjZFGidkdFU38qOzwygp&#xA;0+PzhJSktMTU5PRldYWVpbXF1eX1RlZmdoaWprbG1ub2R1dnd4eXp7fH1+f3OEhYaHiImKi4yNjo&#xA;+DlJWWl5iZmpucnZ6fkqOkpaanqKmqq6ytrq+v/aAAwDAQACEQMRAD8A9U4q7FXYq7FXYqwbz1+d&#xA;X5deSnNtq2prPqpIWPR7EfWbxnPRTGh+Amu3qFa4qxBPP35+ebwP8JeTrfyxpsmy6r5kkb1Sp35L&#xA;axhZF28Uce+Krx+TX5qayTL5r/NHUgHFHs9DiTT0UfyiSMryHzj+eKqn/QrP5dT/APHVv9b1hiau&#xA;19qDuW3qQ3prH1OKtn/nE/8AJWn7vS7mJ/2ZEvbjkp7EVcioxVa3/OM3l+1+PQPNXmXQph/d/VNR&#xA;PAE+KlOR/wCCHXFUnv8AQP8AnIPyhrVlYaP53ttesr5GFiuv2wRXuY6u1q08fqS+o8QLxkuA3Fx8&#xA;PEclUy/5Xz5q8qyLD+Z/kq80aCoV9e0w/XtPqf2mKVMYP8vNm9sVen+VvOflXzXp4v8Ay7qlvqdr&#xA;tzaBwWQncLJGaPG3+S6g4qnOKuxV2KuxV2KuxV2KuxV2KuxV2KuxV2KuxV2KuxV2KuxV2KuxV2Kp&#xA;P5s83+XPKWizaz5gvo7HT4djI5+J2IqEjQVZ3NNlUVxV5Cmr/m9+cBDaGZfIf5fS/Z1SQf7lb6I9&#xA;4VBHpIw6MCPHk/TFXoHkH8m/IHkaNW0bTlk1Kh9bV7uk95IT9omVh8Ne4QKPbFWbYq7FXYq7FXYq&#xA;81/5yP1CfTvyZ8wX9tK8F3bfU5LW4jNJI5fr0AR0YbqysagjcYq+H9Q/NX8zNRheC9816tPBIOMk&#xA;LXtx6bCtaMgfifpGKpRoPmXX/L+qx6tomoT6fqMZJW5gcq5r1DfzKe6tse+Kvqv8n/8AnLqx1R4d&#xA;F8/iOwvmokOuRDjbSE7D6wn+6if5h8H+qMVfQ2q+YtA0jTv0lqupW1jp5AZbu4mSOIgio4uxANR0&#xA;p1xVLPJf5g+WPOkN7deW7h72wsZhbSX3pvHC83EOyRGQKzcAy8jSm4pXFWR4q7FXYq7FXYqxv/H/&#xA;AJfHnaXyexlXUobQ3rzsqi2ovEtD6nKvqrG6yFeP2DWvXFVCX80/IIW2a31q1vhdXlvp6fVJo5uM&#xA;90CYg/FvhBCn7j3GKoqX8xfIMVnd3r+YtNFpYSrBezi6hKQyvXikjBjxZuJoD1pirdl598p3Jso3&#xA;1O2tbvUpJYrCznuIBNOYZngJiVZH5hnjPHifbY7YqhNU/NDyVZeVdS8zQalDqWm6W3p3BsZI5W9c&#xA;8eMA+JVEjc12Zh13xVEWX5g+UZ7d2n1WytLy2t47nUrB7q3ea0WQLUTem7qODSKpYHjuN9xiqh/y&#xA;tHyE17ZWsWt2k638d3NFdRTxNbqliA05kl5cV4qa/IE4qqn8zPy8FhFqDeZdNWxneSOK5a6iEZeH&#xA;iZE5FqckEilh2Br0xVfrv5g+UtGt9Ta41KCe80qxm1O40uCaJ7xreCEzsUhLqTWMVFaDcb0xVQ07&#xA;8zfJ13FzuL+LS2e+m023i1CWGB5p7dgrekC55Akinf2xVlOKuxVin5kfmR5f8g+X21XVWMs8p9LT&#xA;dNi3nu5z9mKJd/H4m7fcCq8+8nflT5h85a1D58/NtVnvV+PRPKR3s7CNqEGWMkh5DQEq3+yqdlVe&#xA;2AACg2A6DFXYq7FXYq7FXYq7FXjP/OXF28H5MX0SuVF1eWkLgdGAl9Wh+mMH6MVfCOKuxV2KvTPy&#xA;3/MTy2Da+WfzI05Nc8oisVrdPz+uabz/AGreVCJfRru0QNP2lFdmVfZH5Vflj5Q8paJPF5fuv0r5&#xA;f1OVb+wNwIZynqxqG9OdVXnG4VStRt4muKs2/ROlf8sUH/IpP6Yq79E6V/yxQf8AIpP6Yq79E6V/&#xA;yxQf8ik/pirv0TpX/LFB/wAik/piqrBaWtvy+rwxw8qcvTULWnStB74q84n/ACZEty+tjVZl81ya&#xA;tJqcl8Jbk2pimJga3+pmYwj/AEClv6nHlsDWnw4q1/yqG9gm0qWy1KGL9GadouniMwvwc6Q9wXf4&#xA;JEK+ot1Rd/hI74qh/K/5J3WjSacbjV47xNKbT47P91ccjb6c0joH9e5uFVmMgoIlRFoSF+KgVVP+&#xA;VOaislxFFrEK2GpywSasr2rPPxs9Tn1KEWsvrKsXI3PBuSNSnJaE4qn1l+X0tt+WsPk0XimSJFQ3&#xA;gjIUkXHrk8OXfp1xVj2qfkre6i8ttNq0DaTHPqN1ZQm1Y3BfVrkXFwl1MZmEyKeQUcBX4a/Z3VVd&#xA;d/KPWb6/1i6sNahszq9xfyP6lsZjHFf2VlbcV/eIOSvYcq+DbUIriqzQfyavbCW9mvdUjvJLw6k9&#xA;WS4lZG1KytLPeW6nuZn4CyNWZ6ty7Yql13+QN1NFf2qa2v1O8guzGskd08kd1eaW2mOwH1r6vwHM&#xA;vtDz4/u+XHFW7v8AIK6mmupY9bVP0g11HextHc8DbXU4nAVYLq3VnUgj96HQ7Hj8O6r2LFUn83+b&#xA;NF8peXL7zBrM3o6fYxl5CKFnbokaA0q7sQqjxxV5X+VPk7WvOXmFfzb8+Q8b2da+UtEf4o7CzNTH&#xA;KQQKyODyUkf5XUjiq9sxV2KuxV2KuxV2KuxV2KvB/wDnMyf0vymtU5U9fV7aOnjSCd6f8JXFXxHi&#xA;rsVdirsVfTf/ADjj+YnmDyPpei2/mfl/gDzRPNBpGpP/AHdlfRylHjdj9mOUiv8AKDVh0kxV9c4q&#xA;7FXYq7FXYq7FXYq7FXYq7FXYq7FXYq7FXYq7FXhOrofzg/N46Gw9X8vvIcok1ResV9qu4WE9mSKh&#xA;DD2av2xir3YAAUGwHQYq7FXYq7FXYq7FXYq7FXYq+cP+c3LyRPJfl6yD0jm1J5mjoN2hgZVatK7e&#xA;sfvxV8dYq7FXYq7FX3Z+VX5f6N5p/wCcadE8satHW1v7SaVZAPjilluZZo5k3+0jPX36HY0xVMPy&#xA;F84axNaal5A81N/ztvk2QWszsTW5sulvcrWhYcaAnw4k7tir1jFXYq7FXYq7FXYq7FXYq7FXYq7F&#xA;XYq7FXYqwX86/PT+Svy61PVrUn9KzgWWkIoqzXlz8EfEdygrJTvxxVV/J3yDH5G8g6borKP0k6/W&#xA;tYmryMl7MA0pLftcdkB8FGKs1xV2KuxV2KuxV2KuxV2KuxV8v/8AOcMrGw8n2q7tLNfOIwKklFgU&#xA;U/4PFXz15e/KL8zvMPpnSPLN/PFKwVLh4WhgJO399N6cfz+LbFXpWgf84bfmlf8Ax6pPp+jR7VSW&#xA;Yzy7+CwK6be7jFXpegf84S+ULch9d1++1Egf3drHHZpX35fWWI+RGKvSvL3/ADjx+Tmhem9t5atr&#xA;qaP/AHdf8rwsfEpOXjr8lxVPj5MbSC03k+dNHJ3fSWTnpkh/5h1KmBj/ADQFd92V8VePfm1rN75R&#xA;8+eVvzKudKn0q+tJRpXmdYuVxaXWnz7CSK5RQjeka0WVUkY8fhotcVfQ8UscsSSxMHjkUMjqagqR&#xA;UEH3xVdirsVdirsVdirsVdirsVdirsVdirsVdirxfz8g83/n55O8pU9TTfLFvJ5k1VRupl5CO1Vq&#xA;7fDIqH5OcVe0Yq7FXYq7FXYq7FXYq7FXYqluv69Z6LYi5uA0s0riCys4qGa5uHrwhiU0qzU77KKs&#xA;xCgkKpfoHlucXh1/X1hufMkylUdByjsoD/x62rMA3H/fklA0jbmihEVVkWKuxV2KuxV2KpJ528sW&#xA;vmnyjq/l26p6Wp2skAc9Edh+7k/2DgMPlirDf+ccvMtzrn5VabDfVGp6G8mjX6MasslkQqK3Xf0T&#xA;HX3xV6birsVdirsVdirsVdirsVdirsVdirsVdirxL8q761uPzF/Nvz3qMgWzsrxdLS4AZhHb6VEw&#xA;nKhQSQVRG+Eb4q9txV2KuxV2KuxV2KuxV2KoXVNRg02wmvp1keOBeRjhRpZWJNFVEQFmZiQABiqT&#xA;aBomoTXx8xeYUT9MyIY7OzQh49Pt3oTDG/7cr0BmkH2jQD4VGKsjxV2KuxV2KuxV2KuxV43+Uw/Q&#xA;n5y/mf5XrxguLm11yzQdP9MjL3DAf68iD6MVeyYq7FXYq7FXYq7FXYq7FXYq7FXYq7FXYq8Q/wCc&#xA;d9LTXPye18ybjzRqOrSSyNyo31kCAtX7VKL1xV635V1R9W8s6Tqcg4y3tnBPKp6q8kas6nwKsSDi&#xA;qaYq7FXYq7FXYq7FXYq7FXYq7FXYq7FXYq7FXYq7FXjzf6B/zlcvE0TV/KXxVqA0kV4enYsEh+44&#xA;q9hxV2KuxV2KuxV2KuxV2KuxV2KuxV2KuxV4/wD84nkf8qV0uP8Abiub1JF7q31hzQjsaHFWe+Tq&#xA;2cus6G5+LTr6Wa3qKVtr9jdxFR/KjyyQj/jHirI8VdirsVdirsVdirsVdirsVdirsVdirsVdirsV&#xA;dirx/WyH/wCcpvLqL8TReWbh5ABXirXEign2JFMVewYq7FXYq7FXYq7FXYq7FXYq7FXYq7FXYq8d&#xA;/wCcZm+q+X/NegPtNofmXUbUx1qQlUKn6W5YqzrzGx0fzBpvmNRSzm46VrTdOMMr1tJ29oLhingq&#xA;yu3bFWUYq7FXYq7FXYq7FXYq7FXYq7FXYq7FXYq7FXYq7FXjult+kv8AnKnWp/tJoXlmCyO/2ZLi&#xA;4S4Udv2JGxV7FirsVdirsVdirsVdirsVdirsVdirsVdirxryI48u/wDOQ/nvy7IOEHmO1tNf08HY&#xA;Ex/urjj4lpZGP+xxV6/fWVpf2U9jeRLPaXUbQ3EDiqvHICrKw8CDTFWP+VdQu7K5k8q6vM02o2Mf&#xA;qWF5Iate2AIVJiT9qWKojn/yqPsHUYqybFXYq7FXYq7FXYq7FXYq7FXYq7FXYq7FXYq7FXjX/OP7&#xA;fpzzD+Ynnr7UGt60bOwlPVrXTlKRMp8GWUDbuPbFXsuKuxV2KuxV2KuxV2KuxV2KuxV2KuxV2KvF&#xA;/wA+Vfyv5p8lfmhCtINEvP0brrKKn9H31ULnxEZL0H8zDFXs6OkiLJGwdHAZHU1BB3BBGKpV5k0G&#xA;DVrND65sr+zf6xpupIFL204BAcBtmVgSrodmUlT1xVFaRJqsmnQtq0UUOogFblLdi8JZWK84ywDc&#xA;XA5AHcVoemKozFXYq7FXYq7FXYq7FXYq7FXYq7FXYq7FWB/nl5z/AMI/llrOpQsRqFxF9Q0xVPxm&#xA;6uqxoU8SgJkp/k4qjfyk8m/4N/LnQvL7qFurW2D31Kf70zEyz796SOVB8BirL8VdirsVdirsVdir&#xA;sVdirsVdirsVdirsVSbzl5X0/wA1eVtU8u6gAbXU7d4GYivBiKxyAfzRuA6+4xV5R+Rkt3qml3nl&#xA;PXdRv9P85eS5Bpd6lvdyhJrSOq2s6wSc4WBT4eYjqQFJO4xV6cvkLQJJkn1P6xrMqMHQalPJcwq6&#xA;7qy2zH6srA7hljB98VZFirsVdirsVdirsVdirsVdirsVdirsVdirsVeHas4/M/8APW00eI+t5Q/L&#xA;si81Q9Y59Weoii8D6RXv/K474q9xxV2KuxV2KuxV2KuxV2KuxV2KuxV2KuxV2KuxV4v+dGgax5V8&#xA;x2P5w+VoDNd6Ugt/NenR1BvNMJAZzT9qId6bAK3RMVereWvMekeZNCstc0ecXOnX8YlglHWh2KsO&#xA;zK1VYdiKYqmWKuxVLjrcCeYBok0bRTS231q0manCdUfhMid+UNYywPZxSu9FUxxVZDPBPH6kEiyx&#xA;1ZeaEMOSMVYVHdWBB98VX4q7FXYq7FXYq7FXYq7FXm/51/mVc+VNFg0jQEN5528xN9T8v2KUZw7/&#xA;AAtcMDsFj5bV2LU7cqKpr+Un5dW/kLybbaP6gudUmZrrWb/ctcXku8jlm+IhfsrXsKneuKszxV2K&#xA;uxV2KuxV2KuxV2KuxV2KuxV2KuxV2KuxVp0SRGjkUOjgq6MKgg7EEHFXgF1DqX5C+aZL+zhku/yk&#xA;164Vr6BAzto11IePqIo5H0W27bii/aC81Xu+manp+qafb6jp1xHd2N3GsttcxMGR0YVDKRiqG8x6&#xA;x+htDu9RERuJYEpbWqmjTTyERwQqezSysqD3OKpNdeWJh5Utob/VOGuWMn16PW5CeMeoOxZ2VXIp&#xA;A7StH6VR+6bh74q80/MTyD59/M20uo9K84XGg31pwt9W8oTnhaxy0rX1rYJLJDLT1I2kR+Q/lIKq&#xA;q9E/LDy9r2gfl/oWjXaRWN5p9qltc2xVZ19SKqNIjxNGOMtPU3qfi33xVlHp6r/y0Qf8iH/6rYq7&#xA;1NV/5Z4P+R7/APVHFXevqCbyWiuvSkEoZq+4kWEU+n6MVd9duf8Algn/AOCg/wCquKu/SMQ2khnR&#xA;x1T0ZHp/sow6H6Dirv0naDdvUjXu8kMqIPmzKFH0nFXfpbSv+W2D/kan9cVYp+ZH5s+V/I3l9tTu&#xA;plvryZjDpml2zh5rq4PRFC8qKKjk1NvckAqsZ/KL8u9ffWLn8yvP4EnnXVk42dkw+DS7Nq8YIlJP&#xA;Fyp+LuBUdS9VXreKuxV2KuxV2KuxV2KuxV2KuxV2KuxV2KuxV2KuxV2KqF9Y2V/ZT2N9AlzZ3KNF&#xA;cW8qh0dHFGVlOxBGKvCrry952/JC9n1TynDN5i/LOZzNqHl3kz3emg1Ly2pYksg6n/hv9+Yq9Bt/&#xA;MugfmZ5St7zylqazol7YzzhSqz25guo5WEkbh+MkaoXQOpVmUdVxV5r5h/Ib8zj5/wBG80yeapfN&#xA;mnadfwXcmm3zC3mjVJeR+rx/FaFkHxDZBXtir2DXvKN3eXEWraZqctn5htI2jtLxkiaN423MFyio&#xA;hlhLb0rVT8SkHFVmi67JeXf6K1K4uNK19FLPp0v1dhKi/altZfSAni36qAy7c1U7Yqn31K5/5b5/&#xA;+Bg/6pYq76lc/wDLfP8A8DB/1SxV31K5/wCW+f8A4GD/AKpYq70dTGy3MRUdC8JLfSVkRa/JRirv&#xA;T1X/AJaIP+RD/wDVbFXenqv/AC0Qf8iH/wCq2KvN/wAyfznh8p3cegaT6fmPzreEJZeX7KF2cMRU&#xA;NcMsrektN6U5U3pT4gql3kX8nPMFxro8+fmPd2+q+cJlBtbF4zNZ6YlSVigUSKhZeXWhAO4JPxlV&#xA;6d+hP+K7H/pE/wCvmKu/RF5/y109gboD/qJxV36K1Nd4dQ9Ju7cZZNvCk00i/hXFXfo7Xv8Aq7/9&#xA;O8f9cVd9U8zr8KalaMo6GWzdn+kpcxr9y4qmFut0qUuZI5H7GNDGPuZ5P14q8n1fzr5wj0bzL5uh&#xA;1eKCDy3qtxYR+XBbxNHPFbXKwhJpW5T+vcIQ0RjZVHJaq2KqF3+b/neTWLG5sNBtjo7Q+YXNrJfh&#xA;HuF0O5hgaZnNsfRYESBIxyDchyZQK4qo2f50a+2p3V8trDJ5fjt9UuUiu7hbaetv+jPq6bQFVo2o&#xA;BacmZuTdSiq6rI/JP5lan5o8y2VpJZ/o2EW+sJfWn71g09hNpgglRrmCzuApjv32eJevQ0BxVI73&#xA;87dcgvbW8k0QRaXP+lbawgju0dru4sdTtdLjablbqbdfXnO4dqLUkGgxVRtvzq822UXmVb/Q4Ly/&#xA;0KTVLy7t1vVihgsNNWAenBN9X5XDs8xI5Roadd6LiqPf8+5WutRjtfLF7dW9n9citp0W5CzXdgCZ&#xA;IjI1qLcByrKhjlkckU4AlQVWbeQPOH+LNBOpNbJaTx3EttPbRyvKEeI9/WitZkJUg8ZYUYdxirJM&#xA;VdirsVdirsVdiryjzn+Q1ldaw/mryJqUnk7zfuzXVmP9EuSTUi5tx8J5EfEQKHqyscVSqL87PO3k&#xA;mRbH82fLMtvbqQiea9GVrnT5B0DSoPiiJp0+0f5AMVen+VvPfk7zXai58u6xa6nHTkyQyAyoP+LI&#xA;jSSM+zKMVR+saHpOs2n1TU7ZLmEMHTlUNG4+zJG6kPG69nQhh2OKpQNN846Sf9xl9FrNkPs2WqEx&#xA;XCDwS9iR+YA6CWJmPeTFVw86xW/w6xpOpaW/Qs1s95D03b1rH61Gq+8hX5DFWQxSpLEksZ5RyKGR&#xA;vEEVBxVdirAfOn55/ll5RZoNR1iO61IHiul6f/pV0z9AnCM8UY/8WMuKsMk1T89vzOBh0q0b8ufK&#xA;Uu0mo3dW1ieM9fSi+Ew1H+r7OcVZ/wDl1+U3k7yFaOuj2xl1K43v9Yuj6t5cMTVi8hGyk78VoO/X&#xA;fFWZYq7FXYq7FXYq7FXYqkV35F8m3eux6/c6NaTaxGyOt60SmTnEKRuT+06DZWO69sVUL/8ALjyL&#xA;qENrDfaJa3MVk9zJaxypyVGvpfWuiAT/ALuk3fx6dDTFV97+Xnki+YteaLazsZJ5SXSvx3SJHMf9&#xA;msSV/wBVT1AxVX0XyX5V0OcT6TpsNnMPW/eRggk3Po+uTUmpk+qRFz1JWp3riqybyL5Pnt1tp9Jt&#xA;5bdEu41hkTmnHUJRPdijVH72VQ7e+KsV8zfkR5L1myi0+2iXS9PH1j6xbwQW8nNrsIssivPHK8Up&#xA;EY+NCPE1IUhVk0v5eeRpry6vJdCsnub6J4LtzChEiSAK4K041cIoY0qaCvTFUy0TQNG0Kx+o6RZx&#xA;2VrzaVo4hTlI5qzsTUsx7kmuKo/FXYq7FXYq7FXYq7FWnRJEaORQ6OCrowqCDsQQcVea+Z/+cdfy&#xA;p1+4+uLpX6G1IEsl/o7mykVj+0FQejyrvUpXFUmX8ofze0Sv+FvzRvJIB9i01u2jv/hHYzyF2H+x&#xA;QYqvWL/nK6yoiz+UdVU1AklW9jbr1YIIV+6uKuGsf85VShUTQfK1u/VpZprp06dOMcvLFWjov/OU&#xA;+pf70+YfLmhI2/KwtprqRQa7cblGTbt8RxVTb/nHvWdcH/O9/mDrWvQtvJYWzLp9ox7hoVMqkdtq&#xA;Yqzryf8AlR+Xfk8KfL2hWtncKKfXCpmuff8Afyl5d/DlTFWWYq7FXYq7FXYq7FXYq7FXYq7FXYq7&#xA;FXYq7FXYq7FXYq7FXYq//9k=</xmpGImg:image>
               </rdf:li>
            </rdf:Alt>
         </xmp:Thumbnails>
      </rdf:Description>
      <rdf:Description rdf:about=""
            xmlns:xmpMM="http://ns.adobe.com/xap/1.0/mm/"
            xmlns:stRef="http://ns.adobe.com/xap/1.0/sType/ResourceRef#"
            xmlns:stEvt="http://ns.adobe.com/xap/1.0/sType/ResourceEvent#">
         <xmpMM:DocumentID>xmp.did:9ACC6E7E3D20681188C69098C6AB8D67</xmpMM:DocumentID>
         <xmpMM:InstanceID>xmp.iid:9ACC6E7E3D20681188C69098C6AB8D67</xmpMM:InstanceID>
         <xmpMM:OriginalDocumentID>uuid:9263A1CF0126DF118833972942CE57BD</xmpMM:OriginalDocumentID>
         <xmpMM:DerivedFrom rdf:parseType="Resource">
            <stRef:instanceID>uuid:326fe3a9-10e8-4fa8-b660-660d226bc36a</stRef:instanceID>
            <stRef:documentID>uuid:9263A1CF0126DF118833972942CE57BD</stRef:documentID>
            <stRef:originalDocumentID>uuid:9263A1CF0126DF118833972942CE57BD</stRef:originalDocumentID>
         </xmpMM:DerivedFrom>
         <xmpMM:History>
            <rdf:Seq>
               <rdf:li rdf:parseType="Resource">
                  <stEvt:action>saved</stEvt:action>
                  <stEvt:instanceID>xmp.iid:9ACC6E7E3D20681188C69098C6AB8D67</stEvt:instanceID>
                  <stEvt:when>2015-02-12T17:06:47+02:00</stEvt:when>
                  <stEvt:softwareAgent>Adobe Illustrator CS5.1</stEvt:softwareAgent>
                  <stEvt:changed>/</stEvt:changed>
               </rdf:li>
            </rdf:Seq>
         </xmpMM:History>
      </rdf:Description>
      <rdf:Description rdf:about=""
            xmlns:pdf="http://ns.adobe.com/pdf/1.3/">
         <pdf:Producer>Adobe PDF library 7.77</pdf:Producer>
      </rdf:Description>
      <rdf:Description rdf:about=""
            xmlns:xmpTPg="http://ns.adobe.com/xap/1.0/t/pg/"
            xmlns:stDim="http://ns.adobe.com/xap/1.0/sType/Dimensions#"
            xmlns:xmpG="http://ns.adobe.com/xap/1.0/g/">
         <xmpTPg:MaxPageSize rdf:parseType="Resource">
            <stDim:w>327.423828</stDim:w>
            <stDim:h>191.107422</stDim:h>
            <stDim:unit>Pixels</stDim:unit>
         </xmpTPg:MaxPageSize>
         <xmpTPg:NPages>1</xmpTPg:NPages>
         <xmpTPg:HasVisibleTransparency>False</xmpTPg:HasVisibleTransparency>
         <xmpTPg:HasVisibleOverprint>False</xmpTPg:HasVisibleOverprint>
         <xmpTPg:PlateNames>
            <rdf:Seq>
               <rdf:li>Cyan</rdf:li>
               <rdf:li>Magenta</rdf:li>
               <rdf:li>Yellow</rdf:li>
               <rdf:li>Black</rdf:li>
            </rdf:Seq>
         </xmpTPg:PlateNames>
         <xmpTPg:SwatchGroups>
            <rdf:Seq>
               <rdf:li rdf:parseType="Resource">
                  <xmpG:groupName>Default Swatch Group</xmpG:groupName>
                  <xmpG:groupType>0</xmpG:groupType>
               </rdf:li>
            </rdf:Seq>
         </xmpTPg:SwatchGroups>
      </rdf:Description>
   </rdf:RDF>
</x:xmpmeta>
                                                                                                    
                                                                                                    
                                                                                                    
                                                                                                    
                                                                                                    
                                                                                                    
                                                                                                    
                                                                                                    
                                                                                                    
                                                                                                    
                                                                                                    
                                                                                                    
                                                                                                    
                                                                                                    
                                                                                                    
                                                                                                    
                                                                                                    
                                                                                                    
                                                                                                    
                                                                                                    
                           
<?xpacket end="w"?>
	</metadata>
<g>
	<path fill="none" stroke="#000000" stroke-width="2.88" d="M95.6,189.667c51.828,0,94.157-42.241,94.157-94.068
		c0-51.919-42.33-94.158-94.157-94.158c-51.829,0-94.16,42.239-94.16,94.158C1.44,147.426,43.771,189.667,95.6,189.667z"/>
	<path d="M230.821,166.421L230.821,166.421c0.906,0,1.63,0.182,2.263,0.635c0.722,0.36,1.177,0.902,1.536,1.629
		c0.363,0.723,0.544,1.534,0.544,2.441c0,0.902-0.181,1.717-0.544,2.441c-0.359,0.724-0.902,1.266-1.627,1.629
		c-0.635,0.359-1.355,0.54-2.172,0.54v-0.993c0.906,0,1.63-0.361,2.263-0.995c0.543-0.633,0.813-1.539,0.813-2.622
		c0-0.813-0.092-1.446-0.362-1.992c-0.271-0.542-0.632-0.902-1.084-1.265c-0.453-0.271-0.995-0.453-1.63-0.453l0,0V166.421
		L230.821,166.421z M226.571,171.214c0-1.534,0.363-2.712,1.176-3.526c0.814-0.814,1.811-1.267,3.074-1.267v0.995
		c-0.813,0-1.537,0.363-2.17,0.905c-0.541,0.543-0.904,1.538-0.904,2.893c0,1.087,0.363,1.901,0.904,2.534
		c0.543,0.634,1.355,0.995,2.17,0.995l0,0v0.993c-0.813,0-1.537-0.181-2.26-0.632c-0.633-0.361-1.177-0.994-1.447-1.628
		C226.752,172.753,226.571,171.938,226.571,171.214z"/>
	<path d="M236.521,175.556v-6.512h0.996v0.993c0.271-0.451,0.543-0.722,0.723-0.904c0.182-0.179,0.453-0.179,0.726-0.179
		c0.361,0,0.724,0.09,1.085,0.27l-0.361,1.088c-0.271-0.182-0.545-0.273-0.814-0.273s-0.452,0.093-0.633,0.273
		c-0.18,0.088-0.362,0.271-0.451,0.543c-0.092,0.451-0.184,0.812-0.184,1.266v3.437L236.521,175.556L236.521,175.556z"/>
	<path d="M243.485,168.955h0.091c0.452,0,0.812,0,1.176,0.179c0.36,0.184,0.634,0.453,0.905,0.727
		c0.181,0.271,0.359,0.632,0.543,0.995c0.089,0.451,0.181,0.902,0.181,1.354c0,1.087-0.272,1.992-0.813,2.624
		c-0.543,0.542-1.267,0.903-1.99,0.903h-0.09v-0.903c0.451,0,0.902-0.271,1.266-0.632c0.361-0.453,0.451-1.086,0.451-1.9
		c0-0.813-0.09-1.445-0.451-1.9c-0.363-0.361-0.725-0.54-1.266-0.54l0,0v-0.905H243.485z M241.767,175.556h-1.084v-8.954h1.176
		v3.166c0.453-0.544,0.994-0.812,1.629-0.812v0.904c-0.453,0-0.905,0.179-1.268,0.632c-0.271,0.363-0.453,0.995-0.453,1.81
		c0,0.724,0.092,1.268,0.271,1.629c0.361,0.634,0.814,0.903,1.447,0.903l0,0v0.903c-0.725,0-1.357-0.361-1.719-0.993V175.556
		L241.767,175.556z"/>
	<path d="M247.737,167.869v-1.268h1.084v1.268H247.737L247.737,167.869z M247.737,175.556v-6.512h1.084v6.512H247.737z"/>
	<path d="M252.892,174.562l0.184,0.993c-0.271,0.092-0.542,0.092-0.814,0.092c-0.453,0-0.723-0.092-0.904-0.183
		c-0.272-0.091-0.451-0.27-0.543-0.542c-0.09-0.181-0.09-0.633-0.09-1.267v-3.709h-0.813v-0.903h0.813v-1.629l1.084-0.632v2.261
		h1.086v0.903h-1.086v3.8c0,0.271,0,0.453,0.092,0.543c0,0.091,0.09,0.18,0.182,0.271c0.09,0,0.182,0.09,0.361,0.09
		C252.532,174.652,252.711,174.652,252.892,174.562z"/>
	<path d="M258.229,174.743c-0.36,0.361-0.815,0.632-1.176,0.723c-0.183,0.091-0.363,0.183-0.543,0.183v-0.814
		c0.27,0,0.543-0.09,0.725-0.271c0.359-0.182,0.634-0.452,0.722-0.726c0.181-0.271,0.181-0.634,0.181-1.085v-0.452
		c-0.361,0.182-0.902,0.271-1.627,0.361v-0.904c0.725-0.091,1.266-0.181,1.627-0.362c0-0.089,0-0.182,0-0.27
		c0-0.454-0.088-0.727-0.269-0.907c-0.272-0.271-0.728-0.358-1.269-0.358h-0.091v-0.904c0.091,0,0.181,0,0.271,0
		c0.543,0,0.996,0,1.357,0.179c0.27,0.091,0.543,0.272,0.725,0.453c0.181,0.182,0.271,0.451,0.361,0.726
		c0,0.271,0.092,0.543,0.092,1.083v1.447c0,0.995,0,1.721,0,1.99c0.088,0.271,0.181,0.452,0.27,0.724h-1.084
		C258.317,175.375,258.317,175.104,258.229,174.743z M256.511,175.647c-0.271,0.089-0.453,0.089-0.634,0.089
		c-0.724,0-1.267-0.181-1.718-0.54c-0.362-0.363-0.543-0.814-0.543-1.358c0-0.271,0.09-0.634,0.181-0.813
		c0.183-0.271,0.362-0.542,0.634-0.632c0.182-0.184,0.451-0.363,0.814-0.363c0.181-0.09,0.541-0.181,0.904-0.181l0.36-0.091v0.904
		l-0.181,0.091c-0.453,0-0.725,0.09-0.904,0.182c-0.181,0.09-0.363,0.182-0.451,0.361c-0.093,0.182-0.184,0.361-0.184,0.542
		c0,0.272,0.091,0.544,0.363,0.726c0.181,0.181,0.541,0.271,0.994,0.271c0.092,0,0.182,0,0.361,0v0.813H256.511z M256.511,169.859
		c-0.453,0-0.814,0.089-1.085,0.271s-0.452,0.451-0.544,0.902l-1.085-0.09c0.091-0.452,0.272-0.905,0.543-1.176
		c0.181-0.271,0.542-0.451,0.905-0.635c0.359-0.089,0.812-0.179,1.266-0.179V169.859L256.511,169.859z"/>
	<rect x="260.942" y="166.602" width="1.086" height="8.954"/>
	<path d="M267.274,175.556v-6.512h0.994v0.993c0.271-0.451,0.451-0.722,0.724-0.904c0.182-0.179,0.452-0.179,0.634-0.179
		c0.361,0,0.814,0.09,1.176,0.27l-0.361,1.088c-0.271-0.182-0.543-0.273-0.813-0.273s-0.452,0.093-0.634,0.273
		c-0.271,0.088-0.361,0.271-0.452,0.543c-0.09,0.451-0.181,0.812-0.181,1.266v3.437L267.274,175.556L267.274,175.556z"/>
	<path d="M271.437,167.869v-1.268h1.084v1.268H271.437L271.437,167.869z M271.437,175.556v-6.512h1.084v6.512H271.437z"/>
	<path d="M278.491,175.556v-0.812c-0.453,0.632-0.995,0.993-1.721,0.993v-0.903l0,0c0.453,0,0.905-0.181,1.176-0.632
		c0.363-0.363,0.545-0.997,0.545-1.81c0-0.905-0.182-1.537-0.545-1.9c-0.271-0.453-0.723-0.632-1.176-0.632v-0.904
		c0.271,0,0.633,0.09,0.905,0.179c0.271,0.184,0.542,0.362,0.724,0.635v-3.166h1.086v8.954L278.491,175.556L278.491,175.556z
		 M276.771,175.736h-0.09c-0.543,0-0.994-0.181-1.447-0.451c-0.453-0.27-0.814-0.723-0.994-1.175
		c-0.272-0.543-0.362-1.087-0.362-1.811c0-0.634,0.09-1.175,0.272-1.719c0.27-0.544,0.541-0.995,0.992-1.266
		c0.453-0.271,0.905-0.361,1.447-0.361c0.092,0,0.092,0,0.182,0v0.904h-0.09c-0.453,0-0.904,0.179-1.176,0.54
		c-0.363,0.455-0.544,1.087-0.544,1.9c0,0.814,0.181,1.447,0.544,1.9c0.361,0.361,0.723,0.632,1.266,0.632V175.736z"/>
	<path d="M283.735,177.274c0.451,0,0.813-0.09,1.088-0.271c0.271-0.181,0.451-0.542,0.539-0.903c0-0.182,0.093-0.635,0.093-1.356
		c-0.453,0.542-1.087,0.812-1.72,0.812v-0.903c0.451,0,0.904-0.183,1.267-0.542c0.36-0.453,0.543-0.995,0.543-1.901
		c0-0.813-0.183-1.354-0.543-1.81c-0.36-0.361-0.813-0.54-1.267-0.54v-0.904c0.725,0,1.357,0.27,1.81,0.904v-0.814h0.995v5.607
		c0,1.084-0.09,1.81-0.271,2.171c-0.27,0.451-0.543,0.814-0.994,0.995c-0.45,0.271-0.905,0.361-1.539,0.361V177.274L283.735,177.274
		z M281.022,176.1l1.086,0.181c0,0.362,0.181,0.543,0.361,0.724c0.27,0.182,0.631,0.271,1.084,0.271c0.094,0,0.094,0,0.182,0v0.905
		h-0.088c-0.816,0-1.449-0.182-1.901-0.453C281.204,177.365,281.022,176.823,281.022,176.1L281.022,176.1z M283.735,175.556
		c-0.088,0-0.088,0-0.088,0c-0.908,0-1.629-0.271-2.082-0.993c-0.543-0.634-0.726-1.358-0.726-2.263
		c0-0.634,0.091-1.175,0.272-1.719c0.271-0.544,0.541-0.995,0.994-1.266c0.453-0.271,0.906-0.361,1.539-0.361h0.088v0.904l0,0
		c-0.541,0-0.903,0.179-1.266,0.54c-0.361,0.455-0.544,0.995-0.544,1.81c0,0.815,0.183,1.448,0.544,1.901
		c0.361,0.36,0.725,0.542,1.266,0.542l0,0v0.904H283.735z"/>
	<path d="M292.69,173.477l1.084,0.181c-0.18,0.634-0.451,1.176-0.992,1.539c-0.454,0.359-1.086,0.54-1.811,0.54h-0.091v-0.903h0.091
		c0.361,0,0.725-0.09,0.995-0.361C292.237,174.291,292.509,173.929,292.69,173.477L292.69,173.477z M290.882,168.955
		L290.882,168.955c0.905,0,1.627,0.27,2.172,0.812c0.541,0.632,0.813,1.445,0.813,2.532c0,0.092,0,0.182,0,0.271h-2.985v-0.905
		h1.811c-0.092-0.541-0.184-0.903-0.453-1.176c-0.361-0.453-0.814-0.632-1.356-0.632l0,0L290.882,168.955L290.882,168.955z
		 M290.882,175.736c-0.904,0-1.629-0.361-2.171-0.903c-0.543-0.542-0.903-1.355-0.903-2.44c0-1.086,0.36-1.992,0.903-2.532
		c0.542-0.636,1.267-0.904,2.171-0.904v0.904c-0.543,0-0.904,0.179-1.266,0.452c-0.363,0.359-0.545,0.813-0.545,1.354h1.811v0.905
		h-1.898c0.09,0.724,0.271,1.266,0.634,1.629c0.36,0.361,0.723,0.632,1.266,0.632L290.882,175.736L290.882,175.736z"/>
	<path d="M294.771,173.657l1.086-0.181c0.09,0.451,0.271,0.725,0.543,0.994c0.271,0.182,0.633,0.361,1.177,0.361
		c0.452,0,0.813-0.09,1.085-0.361c0.271-0.181,0.363-0.452,0.363-0.724c0-0.181-0.092-0.452-0.272-0.544
		c-0.181-0.089-0.542-0.271-1.176-0.361c-0.813-0.271-1.356-0.45-1.72-0.542c-0.271-0.181-0.543-0.361-0.633-0.634
		c-0.183-0.271-0.271-0.541-0.271-0.904c0-0.271,0.089-0.544,0.181-0.813c0.182-0.181,0.361-0.452,0.545-0.542
		c0.178-0.183,0.45-0.272,0.723-0.361c0.271-0.09,0.632-0.09,0.904-0.09c0.541,0,0.994,0,1.355,0.179
		c0.451,0.184,0.725,0.362,0.904,0.635c0.182,0.181,0.271,0.544,0.361,0.995l-1.086,0.092c-0.09-0.272-0.181-0.543-0.451-0.725
		c-0.181-0.183-0.543-0.271-0.994-0.271c-0.453,0-0.812,0.089-1.086,0.179c-0.182,0.181-0.272,0.361-0.272,0.634
		c0,0.092,0,0.271,0.092,0.361c0.091,0.093,0.271,0.272,0.454,0.272c0.088,0.089,0.449,0.181,0.993,0.36
		c0.724,0.182,1.266,0.361,1.629,0.453c0.271,0.181,0.542,0.361,0.724,0.633c0.18,0.182,0.271,0.543,0.271,0.904
		s-0.182,0.725-0.363,1.086c-0.182,0.272-0.542,0.542-0.904,0.723c-0.451,0.183-0.902,0.271-1.355,0.271
		c-0.905,0-1.539-0.181-1.99-0.54C295.133,174.833,294.862,174.291,294.771,173.657z"/>
	<path fill="none" stroke="#000000" stroke-width="1.0817" d="M9.309,79.589c1.99,17.909,7.869,34.823,23.608,49.839"/>
	<path fill="none" stroke="#000000" stroke-width="1.0817" d="M55.077,149.325c10.401,17.64,25.507,29.759,47.667,33.649"/>
	<path fill="none" stroke="#000000" stroke-width="1.0817" d="M30.022,133.045c-5.97,2.985-11.396,3.438-16.281,1.538"/>
	<path fill="none" stroke="#000000" stroke-width="1.0817" d="M53.63,154.843c-3.618,5.156-5.699,10.402-4.432,15.558"/>
	<path fill="none" stroke="#000000" stroke-width="1.0817" d="M115.317,2.795c15.197,24.062,36.814,44.142,67.836,58.343"/>
	<line fill="none" stroke="#000000" stroke-width="1.0817" x1="100.483" y1="80.765" x2="155.115" y2="22.424"/>
	<polygon stroke="#000000" stroke-width="0.1555" points="120.834,12.384 137.749,10.937 152.854,21.248 166.874,33.821 
		165.065,51.548 117.85,61.861 	"/>
	<path d="M230.099,16.726h0.543l3.709,8.954h-1.356l-0.995-2.714h-1.898v-0.994h1.537l-0.994-2.441
		c-0.272-0.725-0.451-1.267-0.543-1.719v-1.086H230.099z M225.938,25.68l3.436-8.954h0.725v1.085l-0.091-0.182
		c-0.09,0.634-0.271,1.176-0.45,1.72l-0.996,2.622h1.537v0.994H228.2l-0.997,2.714L225.938,25.68L225.938,25.68z"/>
	<path d="M235.164,25.68v-6.513h0.995v0.905c0.451-0.723,1.176-0.995,2.08-0.995c0.363,0,0.725,0,1.086,0.181
		c0.361,0.092,0.543,0.272,0.724,0.542c0.181,0.272,0.271,0.543,0.361,0.814c0,0.181,0.091,0.543,0.091,1.085v3.979h-1.176V21.7
		c0-0.452,0-0.723-0.092-0.995c-0.092-0.181-0.271-0.362-0.453-0.542c-0.178-0.09-0.45-0.181-0.811-0.181
		c-0.453,0-0.814,0.181-1.177,0.452c-0.362,0.271-0.543,0.904-0.543,1.719v3.527H235.164z"/>
	<path d="M244.571,24.686l0.181,0.994c-0.362,0.09-0.634,0.09-0.813,0.09c-0.451,0-0.725-0.09-0.996-0.182
		c-0.18-0.09-0.36-0.271-0.45-0.542c-0.091-0.181-0.091-0.633-0.091-1.266v-3.708h-0.814v-0.905h0.814V17.54l1.086-0.633v2.261
		h1.084v0.905h-1.084v3.799c0,0.271,0,0.453,0,0.542c0.09,0.09,0.09,0.181,0.181,0.272c0.09,0,0.271,0.089,0.451,0.089
		C244.208,24.775,244.39,24.775,244.571,24.686z"/>
	<path d="M250.089,23.599l1.176,0.182c-0.183,0.633-0.541,1.176-0.994,1.538c-0.545,0.361-1.086,0.543-1.9,0.543h-0.09v-0.905h0.09
		c0.453,0,0.814-0.09,1.086-0.362C249.726,24.414,249.908,24.052,250.089,23.599L250.089,23.599z M248.278,19.077L248.278,19.077
		c0.904,0,1.63,0.272,2.172,0.814c0.543,0.633,0.814,1.446,0.814,2.531c0,0.092,0,0.182,0,0.271h-2.986v-0.905h1.811
		c0-0.542-0.181-0.904-0.363-1.176c-0.361-0.452-0.813-0.633-1.355-0.633h-0.09v-0.903H248.278z M248.278,25.861
		c-0.904,0-1.629-0.362-2.17-0.905c-0.543-0.543-0.812-1.356-0.812-2.441c0-1.087,0.271-1.99,0.812-2.533
		c0.541-0.633,1.266-0.905,2.17-0.905v0.905c-0.451,0-0.904,0.181-1.266,0.452c-0.271,0.361-0.451,0.813-0.543,1.356h1.809v0.905
		h-1.897c0.089,0.724,0.271,1.266,0.632,1.628s0.814,0.633,1.268,0.633v0.905H248.278z"/>
	<path d="M252.621,25.68v-6.513h0.995v0.995c0.271-0.453,0.453-0.724,0.724-0.905c0.181-0.181,0.451-0.181,0.724-0.181
		c0.363,0,0.724,0.09,1.086,0.272l-0.362,1.084c-0.271-0.182-0.541-0.271-0.812-0.271c-0.272,0-0.453,0.09-0.635,0.271
		c-0.181,0.091-0.361,0.271-0.453,0.543c-0.09,0.451-0.181,0.812-0.181,1.266v3.438L252.621,25.68L252.621,25.68z"/>
	<path d="M256.78,17.992v-1.266h1.177v1.266H256.78L256.78,17.992z M256.78,25.68v-6.513h1.177v6.513H256.78z"/>
	<path d="M262.209,19.077h0.093c0.811,0,1.625,0.272,2.168,0.814c0.545,0.633,0.814,1.446,0.814,2.441
		c0,0.814-0.092,1.538-0.363,1.99c-0.27,0.451-0.632,0.812-1.083,1.085c-0.452,0.271-0.995,0.453-1.536,0.453h-0.093v-0.905h0.093
		c0.541,0,0.992-0.271,1.354-0.633c0.363-0.453,0.544-1.086,0.544-1.9c0-0.813-0.181-1.446-0.544-1.809
		c-0.361-0.452-0.812-0.633-1.354-0.633h-0.093V19.077z M259.224,22.424c0-1.176,0.272-2.081,0.996-2.624
		c0.543-0.542,1.268-0.723,1.989-0.723v0.905c-0.542,0-0.995,0.181-1.356,0.542c-0.36,0.453-0.541,1.085-0.541,1.898
		s0.181,1.447,0.541,1.9c0.361,0.362,0.814,0.633,1.356,0.633v0.905c-0.903,0-1.629-0.272-2.171-0.905
		C259.496,24.414,259.224,23.509,259.224,22.424z"/>
	<path d="M266.55,25.68v-6.513h0.995v0.995c0.272-0.453,0.542-0.724,0.726-0.905c0.271-0.181,0.451-0.181,0.723-0.181
		c0.361,0,0.724,0.09,1.177,0.272l-0.453,1.084c-0.271-0.182-0.542-0.271-0.812-0.271c-0.184,0-0.453,0.09-0.635,0.271
		c-0.183,0.091-0.271,0.271-0.36,0.543c-0.183,0.451-0.183,0.812-0.183,1.266v3.438L266.55,25.68L266.55,25.68z"/>
	<path d="M274.511,25.68v-5.607h-0.904v-0.905h0.904v-0.633c0-0.453,0.09-0.813,0.182-0.995c0.09-0.271,0.271-0.543,0.541-0.724
		c0.272-0.182,0.635-0.271,1.088-0.271c0.361,0,0.632,0,1.084,0.09l-0.182,0.995c-0.271-0.09-0.451-0.09-0.634-0.09
		c-0.36,0-0.633,0.09-0.723,0.271c-0.181,0.09-0.272,0.36-0.272,0.813v0.542h1.268v0.905h-1.268v5.607L274.511,25.68L274.511,25.68z
		"/>
	<path d="M280.39,19.077L280.39,19.077c0.904,0,1.629,0.272,2.172,0.814c0.633,0.633,0.903,1.446,0.903,2.441
		c0,0.814-0.181,1.538-0.362,1.99c-0.271,0.451-0.633,0.812-1.084,1.085c-0.543,0.271-1.088,0.453-1.629,0.453l0,0v-0.905l0,0
		c0.541,0,0.995-0.271,1.356-0.633c0.362-0.453,0.543-1.086,0.543-1.9c0-0.813-0.181-1.446-0.543-1.809
		c-0.361-0.452-0.815-0.633-1.356-0.633l0,0V19.077L280.39,19.077z M277.315,22.424c0-1.176,0.36-2.081,1.084-2.624
		c0.543-0.542,1.177-0.723,1.99-0.723v0.905c-0.545,0-0.996,0.181-1.359,0.542c-0.36,0.453-0.539,1.085-0.539,1.898
		s0.179,1.447,0.539,1.9c0.363,0.362,0.814,0.633,1.359,0.633v0.905c-0.904,0-1.629-0.272-2.172-0.905
		C277.677,24.414,277.315,23.509,277.315,22.424z"/>
	<path d="M284.729,25.68v-6.513h0.996v0.905c0.451-0.723,1.176-0.995,2.08-0.995c0.361,0,0.725,0,1.086,0.181
		c0.36,0.092,0.543,0.272,0.725,0.542c0.181,0.272,0.271,0.543,0.361,0.814c0,0.181,0.09,0.543,0.09,1.085v3.979h-1.084V21.7
		c0-0.452-0.092-0.723-0.183-0.995c-0.091-0.181-0.271-0.362-0.452-0.542c-0.182-0.09-0.453-0.181-0.724-0.181
		c-0.544,0-0.905,0.181-1.267,0.452c-0.36,0.271-0.543,0.904-0.543,1.719v3.527H284.729z"/>
	<path d="M294.138,24.686l0.182,0.994c-0.36,0.09-0.633,0.09-0.814,0.09c-0.451,0-0.722-0.09-0.994-0.182
		c-0.182-0.09-0.361-0.271-0.451-0.542c-0.09-0.181-0.09-0.633-0.09-1.266v-3.708h-0.814v-0.905h0.814V17.54l1.084-0.633v2.261
		h1.086v0.905h-1.086v3.799c0,0.271,0,0.453,0,0.542c0.09,0.09,0.182,0.181,0.271,0.272c0.091,0,0.181,0.089,0.363,0.089
		C293.774,24.775,293.958,24.775,294.138,24.686z"/>
	<path d="M299.476,24.866c-0.451,0.362-0.814,0.633-1.177,0.723c-0.181,0.091-0.362,0.182-0.634,0.182v-0.813
		c0.363,0,0.544-0.09,0.814-0.271c0.36-0.183,0.543-0.453,0.725-0.725c0.09-0.271,0.182-0.633,0.182-1.085v-0.452
		c-0.361,0.182-0.906,0.271-1.721,0.362v-0.904c0.814-0.091,1.357-0.182,1.721-0.361c0-0.091,0-0.182,0-0.271
		c0-0.453-0.092-0.724-0.273-0.905c-0.271-0.271-0.723-0.36-1.266-0.36h-0.182v-0.905c0.091,0,0.182,0,0.271,0
		c0.633,0,1.086,0,1.356,0.181c0.36,0.092,0.633,0.272,0.813,0.452c0.182,0.183,0.271,0.453,0.361,0.725c0,0.271,0,0.543,0,1.086
		v1.446c0,0.995,0.092,1.72,0.092,1.99c0.09,0.271,0.18,0.452,0.271,0.724h-1.177C299.565,25.499,299.476,25.228,299.476,24.866z
		 M297.665,25.77c-0.182,0.091-0.361,0.091-0.635,0.091c-0.631,0-1.176-0.182-1.627-0.543c-0.362-0.362-0.541-0.814-0.541-1.357
		c0-0.271,0.09-0.633,0.179-0.812c0.183-0.272,0.362-0.543,0.636-0.633c0.18-0.182,0.451-0.362,0.723-0.362
		c0.271-0.091,0.543-0.182,0.996-0.182l0.271-0.09v0.904l-0.09,0.09c-0.452,0-0.813,0.09-0.993,0.183
		c-0.184,0.09-0.273,0.18-0.363,0.36c-0.183,0.181-0.183,0.362-0.183,0.542c0,0.271,0.092,0.542,0.362,0.725
		c0.184,0.181,0.543,0.271,0.904,0.271c0.182,0,0.271,0,0.361,0V25.77L297.665,25.77z M297.665,19.982
		c-0.451,0-0.725,0.09-0.995,0.271c-0.271,0.182-0.45,0.452-0.542,0.905l-1.087-0.091c0.092-0.452,0.272-0.904,0.453-1.175
		c0.272-0.272,0.542-0.453,0.995-0.635c0.361-0.09,0.725-0.181,1.176-0.181V19.982z"/>
	<path d="M302.188,25.68v-6.513h0.994v0.905c0.543-0.723,1.178-0.995,2.08-0.995c0.452,0,0.814,0,1.088,0.181
		c0.359,0.092,0.633,0.272,0.723,0.542c0.181,0.272,0.271,0.543,0.363,0.814c0.088,0.181,0.088,0.543,0.088,1.085v3.979h-1.086V21.7
		c0-0.452-0.088-0.723-0.181-0.995c-0.09-0.181-0.181-0.362-0.45-0.542c-0.182-0.09-0.453-0.181-0.726-0.181
		c-0.542,0-0.903,0.181-1.267,0.452c-0.362,0.271-0.543,0.904-0.543,1.719v3.527H302.188z"/>
	<path d="M313.675,23.599l1.086,0.182c-0.181,0.633-0.453,1.176-0.994,1.538c-0.453,0.361-1.086,0.543-1.809,0.543h-0.091v-0.905
		h0.091c0.361,0,0.723-0.09,0.995-0.362C313.224,24.414,313.494,24.052,313.675,23.599L313.675,23.599z M311.867,19.077
		L311.867,19.077c0.903,0,1.627,0.272,2.169,0.814c0.544,0.633,0.814,1.446,0.814,2.531c0,0.092,0,0.182,0,0.271h-2.983v-0.905
		h1.808c-0.09-0.542-0.181-0.904-0.451-1.176c-0.363-0.452-0.813-0.633-1.355-0.633l0,0L311.867,19.077L311.867,19.077z
		 M311.867,25.861c-0.906,0-1.63-0.362-2.171-0.905c-0.543-0.543-0.906-1.356-0.906-2.441c0-1.087,0.363-1.99,0.906-2.533
		c0.541-0.633,1.265-0.905,2.171-0.905v0.905c-0.543,0-0.906,0.181-1.269,0.452c-0.361,0.361-0.541,0.813-0.541,1.356h1.81v0.905
		h-1.901c0.092,0.724,0.271,1.266,0.635,1.628c0.36,0.362,0.725,0.633,1.268,0.633L311.867,25.861L311.867,25.861z"/>
	<rect x="316.117" y="16.726" width="1.177" height="8.954"/>
	<rect x="318.922" y="16.726" width="1.177" height="8.954"/>
	<path d="M326.248,23.599l1.086,0.182c-0.183,0.633-0.452,1.176-0.995,1.538c-0.451,0.361-1.086,0.543-1.809,0.543h-0.092v-0.905
		h0.092c0.359,0,0.723-0.09,0.994-0.362C325.795,24.414,326.067,24.052,326.248,23.599L326.248,23.599z M324.438,19.077
		L324.438,19.077c0.904,0,1.629,0.272,2.17,0.814c0.543,0.633,0.814,1.446,0.814,2.531c0,0.092,0,0.182,0,0.271h-2.984v-0.905h1.81
		c-0.093-0.542-0.181-0.904-0.453-1.176c-0.36-0.452-0.813-0.633-1.356-0.633l0,0V19.077L324.438,19.077z M324.438,25.861
		c-0.902,0-1.627-0.362-2.172-0.905c-0.634-0.543-0.902-1.356-0.902-2.441c0-1.087,0.361-1.99,0.902-2.533
		c0.545-0.633,1.27-0.905,2.172-0.905v0.905c-0.543,0-0.902,0.181-1.267,0.452c-0.36,0.361-0.544,0.813-0.544,1.356h1.811v0.905
		h-1.897c0,0.724,0.271,1.266,0.632,1.628c0.363,0.362,0.725,0.633,1.266,0.633V25.861L324.438,25.861z"/>
	<line fill="none" stroke="#000000" stroke-width="0.36" x1="219.97" y1="20.795" x2="160.452" y2="20.795"/>
	<polyline fill="none" stroke="#000000" stroke-width="0.36" points="65.841,156.562 219.244,168.502 59.781,167.055 	"/>
	<path stroke="#000000" stroke-width="0.032" stroke-linecap="round" stroke-linejoin="round" d="M158.009,21.066l10.312,3.8
		c-1.629-2.533-1.719-4.884-0.09-7.507L158.009,21.066z"/>
	<path stroke="#000000" stroke-width="0.032" stroke-linecap="round" stroke-linejoin="round" d="M63.67,156.833l10.311,3.8
		c-1.628-2.531-1.809-4.885-0.09-7.6L63.67,156.833z"/>
	<path stroke="#000000" stroke-width="0.032" stroke-linecap="round" stroke-linejoin="round" d="M50.283,167.055l10.311,3.8
		c-1.628-2.533-1.809-4.885-0.09-7.601L50.283,167.055z"/>
</g>
</svg>
