<?xml version="1.0" encoding="utf-8"?>
<!-- Generator: Adobe Illustrator 15.1.0, SVG Export Plug-In . SVG Version: 6.00 Build 0)  -->
<!DOCTYPE svg PUBLIC "-//W3C//DTD SVG 1.1//EN" "http://www.w3.org/Graphics/SVG/1.1/DTD/svg11.dtd">
<svg version="1.1" id="Layer_7" xmlns="http://www.w3.org/2000/svg" xmlns:xlink="http://www.w3.org/1999/xlink" x="0px" y="0px"
	 width="327.375px" height="190.9px" viewBox="0 0 327.375 190.9" enable-background="new 0 0 327.375 190.9" xml:space="preserve">
<metadata><?xpacket begin="﻿" id="W5M0MpCehiHzreSzNTczkc9d"?>
<x:xmpmeta xmlns:x="adobe:ns:meta/" x:xmptk="Adobe XMP Core 5.0-c060 61.134777, 2010/02/12-17:32:00        ">
   <rdf:RDF xmlns:rdf="http://www.w3.org/1999/02/22-rdf-syntax-ns#">
      <rdf:Description rdf:about=""
            xmlns:dc="http://purl.org/dc/elements/1.1/">
         <dc:format>image/svg+xml</dc:format>
         <dc:title>
            <rdf:Alt>
               <rdf:li xml:lang="x-default">8B-5</rdf:li>
            </rdf:Alt>
         </dc:title>
      </rdf:Description>
      <rdf:Description rdf:about=""
            xmlns:xmp="http://ns.adobe.com/xap/1.0/"
            xmlns:xmpGImg="http://ns.adobe.com/xap/1.0/g/img/">
         <xmp:CreatorTool>Adobe Illustrator CS5.1</xmp:CreatorTool>
         <xmp:CreateDate>2015-02-12T17:06:40+02:00</xmp:CreateDate>
         <xmp:ModifyDate>2015-02-12T17:06:40+02:00</xmp:ModifyDate>
         <xmp:MetadataDate>2015-02-12T17:06:40+02:00</xmp:MetadataDate>
         <xmp:Thumbnails>
            <rdf:Alt>
               <rdf:li rdf:parseType="Resource">
                  <xmpGImg:width>256</xmpGImg:width>
                  <xmpGImg:height>152</xmpGImg:height>
                  <xmpGImg:format>JPEG</xmpGImg:format>
                  <xmpGImg:image>/9j/4AAQSkZJRgABAgEAyADIAAD/7QAsUGhvdG9zaG9wIDMuMAA4QklNA+0AAAAAABAAyAAAAAEA&#xA;AQDIAAAAAQAB/+4ADkFkb2JlAGTAAAAAAf/bAIQABgQEBAUEBgUFBgkGBQYJCwgGBggLDAoKCwoK&#xA;DBAMDAwMDAwQDA4PEA8ODBMTFBQTExwbGxscHx8fHx8fHx8fHwEHBwcNDA0YEBAYGhURFRofHx8f&#xA;Hx8fHx8fHx8fHx8fHx8fHx8fHx8fHx8fHx8fHx8fHx8fHx8fHx8fHx8fHx8f/8AAEQgAmAEAAwER&#xA;AAIRAQMRAf/EAaIAAAAHAQEBAQEAAAAAAAAAAAQFAwIGAQAHCAkKCwEAAgIDAQEBAQEAAAAAAAAA&#xA;AQACAwQFBgcICQoLEAACAQMDAgQCBgcDBAIGAnMBAgMRBAAFIRIxQVEGE2EicYEUMpGhBxWxQiPB&#xA;UtHhMxZi8CRygvElQzRTkqKyY3PCNUQnk6OzNhdUZHTD0uIIJoMJChgZhJRFRqS0VtNVKBry4/PE&#xA;1OT0ZXWFlaW1xdXl9WZ2hpamtsbW5vY3R1dnd4eXp7fH1+f3OEhYaHiImKi4yNjo+Ck5SVlpeYmZ&#xA;qbnJ2en5KjpKWmp6ipqqusra6voRAAICAQIDBQUEBQYECAMDbQEAAhEDBCESMUEFURNhIgZxgZEy&#xA;obHwFMHR4SNCFVJicvEzJDRDghaSUyWiY7LCB3PSNeJEgxdUkwgJChgZJjZFGidkdFU38qOzwygp&#xA;0+PzhJSktMTU5PRldYWVpbXF1eX1RlZmdoaWprbG1ub2R1dnd4eXp7fH1+f3OEhYaHiImKi4yNjo&#xA;+DlJWWl5iZmpucnZ6fkqOkpaanqKmqq6ytrq+v/aAAwDAQACEQMRAD8A9U4q7FXYq7FXYqwXz1+d&#xA;f5deSpPqurakJ9VJCppFiPrN4zHopjQ0Qnt6hWuKsRTz9+fnm8D/AAl5Ot/LGmybLqvmSRvVKnfk&#xA;trGFkXbxRx74qqD8nPzV1mr+a/zR1EB/t2mhwpp6L/kiWMryHzj+eKr/APoVr8vJqnU9R1zVnb7b&#xA;3uoM5YE1Ibgsf2q74q2f+cUPyYArDp11byihWaO9uA6n25Mw/DFVp/5xo0W0q/l/zf5m0OUf3Ytt&#xA;RJjHXqpQMev8+KpUdE/5yE8v+YDo/lvzpaeavq1qL24tdctBEI0eQxwxvPEXlZ5iknH41FENabVV&#xA;TBPz91/yzKtv+aPky+8vR1CHW7H/AE7TiT0LPHUpX+UM7e2KvUfLXm3yz5n09dQ8v6lb6naGlZLd&#xA;wxUnfjIv2kb/ACWAOKptirsVdirsVdirsVdirsVdirsVdirsVdirsVdirsVdirsVdirsVdiqT+bP&#xA;N/lzylos2s+YL6OwsIdvUkPxO5BIjjQVZ3NNlUVxV5Amq/m9+cBroxl8h/l9LsNRkH+5W+iNd4lH&#xA;90jDuCPZn6Yq9D8g/k95B8jRK2i6ajalT99q91Se9kY/aJmYfDy7qnFfbFWaYq7FXYq7FVK6ure0&#xA;tZrq5kWK2t0aWaVjRURAWZifAAVxVI/JFpcfoyXWb2Ixanr0v6Quo3FHiR1C20DDehht1RGA258j&#xA;3xVP5YopY2ilRZI3BV0YAqQeoIPXFXkvmf8A5x50X9Iv5i/L6/l8k+aFqVmsNrKU1rwmtfscGp0X&#xA;4e5VsVQvlv8AOzXPL2tQ+Uvzd09NE1WU8LDzFDU6Xe02rz6RMdq9v5gmwxV7KrKyhlIZWFVYbgg9&#xA;xireKuxV2KuxV2KuxV2KuxV2KuxV2KuxV2KuxV2KuxV2KuxVin5kfmR5f8g+X21XVWMs8p9LTdNi&#xA;3nu5z9mKJd/H4m7fcCq8/wDJn5UeYPN+tw+fPzaC3N+vx6H5UO9np8TUZfUjOzS+Iav+VU0Cqvaw&#xA;ABQbAdBiqV6r5o0HSrhLa+uwl06GVbZFeWX0wePqGOJXcJXbkRSuKorTdU03VLRLzTbqK8tHqFng&#xA;dZEJGxHJSRUHqMVRWKuxV2Ksb87AX0WneXRuNaulju12P+hW4NxdBgQapKsYgb/jIMVZJirsVdiq&#xA;VeaPKvl/zTos+i69ZR32nXA+OGQdGHR0YfEjr2ZTUYq8WstU80/kVqkGk67NPrn5U3cgj0/WmUvc&#xA;6SztRYp+Naxb06e60NUxV7za3Vtd20V1aypPbToskE8bB0dHFVZWFQQQagjFVXFXYq7FXYqhf0tp&#xA;X/LbB/yNT+uKrv0lp5gmnW5jaG3UvM6uGCKASS1K02BxVimhfmHd6mlhqE3l+7sfLmqQtcWesSyQ&#xA;sqQiMzJLdRIxaCOSNaqxJpUBuJOKoo/mj5AGn/pA6zD9WMpgUhZC7SCMzBVjC+o3KIc1ovxLuKjF&#xA;UNJ+avlWHUobWWcC0uVaWDUkZXt/QSyjvmmkYf3aelMpBbtv0xVRuvzd8q+kJNNl+vqFuDPUm2MR&#xA;t4VnpIs6oyiRGBViKEb4qnmmed/KuqazPothqMc+pW3q+pAocA/V3EU3B2UJJ6UhCvwY8TsaYqnm&#xA;KuxV2KuxV2KpP5v82aL5S8uX3mDWZvRsLCMySUoXduiRxgkVd2IVR44q8s/KjyZrfm/zAPza8+Q8&#xA;b+5WvlTQ3+KLT7M7xycWH96w+IH35dSAqr2vFXYqxryVDC/6a1JwDqN5ql5HdyH7XC0ma2tkqf2R&#xA;BEjADarE9ScVX6x5Vc3cms+X5V0zXyAZJKH6tecRRY72JftjsJB+8TsaVUqpLrf5z+TvLnl46r5l&#xA;eXTLmKV7W60v03nnS6iCl4h6Y4lSJFZJCQrKyt3xVBflR+denfmMNYu7HTbiz0zTpo4LaSQNLNKW&#xA;DMzOkKukfw8aDm3fFWf/AF923itJ5E/mokf/AAsrRt+GKsctbue98+3tz9SmZNHsIrOIAwVWW9k9&#xA;e5B/ed44LYjfFWR+vqLbpaoq9hNLxf6QiSr/AMNirvU1X/lng/5Hv/1RxV3HVW+L1YIq/wC6/TeS&#xA;n+z5x1/4EYq709V/5aIP+RD/APVbFUHq/l231rTLnTNWla6sb2MxXVqUh9JlbqAGR2Ht8VR41xV4&#xA;r5XuNW/J3ztbeQ9Z1GdvIGuSOfKWqv6Z+qzu3JrOd3RqAltjsKnlQVbiq92/RsB3aSdm7n15hU/J&#xA;WAH0DFXfoy2/nn/6SJ/+a8Vd+idL72cJPcmNST8yRU4q79E6V/yxQf8AIpP6YqisVWXEENxBJbzK&#xA;HhmVo5EPRlYUIPzGKvLpvyF069NlBquqteWGlWs1hpbfVLePUEtJbea1S3mvwDLLFDHcvxUBatRm&#xA;qcVTDyh+T1p5d1Czv/0h9ZuLO49cUt1iDKtnLZoD8Tty4zszNypXZVUYqg4/yRa30q3sbPzBPayw&#xA;2iWJu4oQJPTXSotLLIefwOfQWQNXY7b9cVQtp+QUMI1EyazVtRWRXEVsURDLbC2qvqTSu3wqG+Jy&#xA;Sa7+Cqc+WvymOjedj5pl1d76al+ojliPqsuoTLMRJM0r19L0wqBUVQv7PfFXoOKuxV2KuxV2KvCN&#xA;VT/lcP5utorfvfy+8hyiTUl6xX+q9BCd6MkW4PyYftjFXu4AAoNgOgxV2KuxVjFhINJ87X+nyVFt&#xA;5gQalYufs/WbeNLe7hHh+7SGVR+1WQ9jirJ8VYh5titdJ1e08wziMaXd8NK8xJKB6TQTNxtZ5A3w&#xA;n0Z34b7cJGJ+yMVS/wAty/lxo13e6h5S0W5RdR4m7n0uwu1spileDx8UW2k+0f3kVfnirK9H8zaL&#xA;q8ksNlOfrcADXFlPHJbXMasaKz286xyqrU+FitD2xVBeTqynXNQP/H9q1zT/AKMwmn/9if8An1xV&#xA;kOKuxV2KuxV2KsZ/MfyFpHnryje+XdSHFZ152tyBVoLhAfSmT3UnfxFR3xVin5D+edX1jRr7yr5n&#xA;PHzl5Sm/R+qBjVpo12huQTuwdRQt3py/axV6jirsVdirsVdirsVdirsVdirsVdirsVdirsVYL+df&#xA;nqTyV+XWpata1OqzgWOkIoqzXlzVIyo7lBWSnfjiqt+T3kGLyN5B03RWUfpJk+tavN1aS9nAaYlv&#xA;2uP2FP8AKoxVmmKuxV2KpN5s0e51LS+VgVTWLCQXmkytsq3MQPFWP++5VLRSf5DNiqW6d+Zfl3UL&#xA;aFrRbq6vHjV7uxtLaa5ltJGWrQ3RiVkhkQ7FHYHwGKoZ/R8566trd2dynl7SY457i0vraa3W6vpH&#xA;PpKyTIgljtlj57ckLup6pirNMVSfzJ5bg1iGKWKU2WsWRMml6rEAZbeQjfr9uN6Ukjb4XHvQhVLf&#xA;y0lvH8sOL+JINSXUdUN/bxkskc0moTysqlgpK/GCppuCDirKsVdirsVdirsVdirxH83UPkL8zPLX&#xA;5p2o9LTbx10Lzdx2Vreb+4nf/jHx3P8AkIMVe3Agio3B6HFXYq7FXYq7FXYq7FXYq7FXYq7FXYq7&#xA;FXYq8X8/IPN/5+eTvKVPU03yxbyeZNVUbqZeQjtVau3wyKh+TnFXtGKuxV2KuxVjnme8v7q9tPLW&#xA;lytbXOoI81/fx1D21jGVWRo26CaVnEcVenxPvwoVU40nSNM0iwi0/TLZLSzhrwhjFBViWZmPVmZi&#xA;WZjux3JriqLxV2KrZZYoonlldY4o1LSSMQqqqipJJ2AAxVj3kYvc2F9rJXhFrl7LfWqU4/6MUSC3&#xA;enb1YoFl8fi33rirI8VdirsVdirsVdirGPzN8ox+b/IOueXWUNLfWrralqUW4T95A2/hKqnFUk/I&#xA;LzZL5n/KnQr25LG/tIjp99zqX9azPo1ev7Toqufnir0LFXYq7FXYqhtM1Kx1TTbTU7CUT2N9DHc2&#xA;k4BAeKZA8bgMAfiVgdxiq2fV9Og1S00qWYLqF9FNPawUNXjtjGJmBAp8BnTqe+Kr7PULS8NwLdyx&#xA;tZmt56qy0kUAkDkBy2YbjbFUI/mXQo9OudRkvESxtJ3tbmdqqqTRy+gyGo6+r8O3U9MVRGravp2k&#xA;WEl/qMwt7OJkV5WBIBldY0FFBO7uBiqLxV2KofUdQtNOsZ7+7cpa2yNLM6qzkIoqSFQMzfIDFXWW&#xA;oWV6kr2kyzLDLJbysvRZYWKSJ81YEHFXkf5OD9M/mr+aPmtzzA1GHQ7R/wCVNPQxyhfZuMZ/HFXs&#xA;mKuxV2KuxVjUUqW35j3Ucw4nU9ItfqTno5sLm5NwvzUXsR96+2KslxV2KuxVJNe8v3Gt3MNteXAX&#xA;y+gD3dggIe7kB2imetPq9KFowPj6MeFVZVOwABQbAdBirsVSm41+ePUI7eLSb26tJOA/ScH1ZrZe&#xA;dKVBmExAruVjIGKpqjo68kYMtSKqaioNCNvA4q3irsVdirsVeOfkaP0N57/M/wAoAFILHWE1S0iO&#xA;wWPU4zJRfZVRMVety6hZRSGJ5l9YdYVPKTcV2RasdvbFVv12V/7i1lcHYO4ES19w5EgH+wOKupqk&#xA;nVobcdCoDTE+4Y+kB/wJxVWgikjBDzPMT0LhAR8uCpirwa3/ACa8+QzaQ9m1vZ30OhW2mT6m0qOb&#xA;eSLSDZH0WSJblSLg8uIkaJh8RTmMVRSfknc3tzai78uadp+mW2nanAlhDdSzqb64gs44rkhuEYZp&#xA;Ld25KoOyu3x9FUr8yfk3+Y+paVdWpitriWVrx7SWSdGkiuJ4LVI5q3EdwiUa3b44kEwP2XUMTirO&#xA;dW8ga5qP5Zaxodza29zqt3qcuowwTMhRg2oC6ALEMqs0dV+nFWKa3+Vf5hanpEelGytTbWZ1cRep&#xA;esouF1LWLbUIlkVIz6QjhiaMkFiD02pVVR1v8lvPFzaxrpyW1lZNJqEljoUVwgj0yS6Nv9Xkgkkt&#xA;5QOHou7NEFdGb92aE4qnN/8AlFqiGTUf0XZ63eXOo6jcanaXU3o/W1mLLp8xkCOA1tyLBKfDyYr8&#xA;QGKsf1H8lvzILXpja2u9Ru9HayvNWlnUvNN+i0tR6UnpR3KVuU5FZHaPj8YCuSMVR+p+RdWg8y22&#xA;h2Fsth+ntU1FdY+rK3pTaFc3SXrzuyKI45FEAtQGPL974Yqp/wDON/m3RbPyNqEryyXuravrV/qD&#xA;WFlHJdXDeoyxiRljDlEb09pJCq++KvWBd+edR3tbK10K3PSXUGN5c0p0NtbPHCvsfrLf6uKt/wCE&#xA;bq5/46uv6leA9YYZVsIwf8g2SwTU/wBaVsVb/wCVf+UG/wB6NOW9J+0b6SW8Lb1+I3DylqnrXFW/&#xA;+VfeSRvDotpanxtIxbGo6GsHpmvv1xVAaj+W1jO1tNY6rqdld2Mv1mxke7mvUjnCMitwvGnPDi5V&#xA;kRl5LVe+KouLzB5mtFWHVvL088y7NeaW8E1s533VJpYbhK03UoQOnNuuKomw1vXby9jjPl+4sbM1&#xA;M11ez2qsBxJHpxW8lyzGtBR+GKp3irsVdirTcuJ4kBqfCSKgH3FRiqVeUryS78tabLNarY3AgWK5&#xA;so0MccE0I9KWKND0SORGVfYbYqtsZb228wXemm0WPS3hW8sLmGMqnqvIwuopSPgD82WQHq/Nv5Sc&#xA;VS6f8yvKqee7XyPFdC41+eKW4nhjIK28cSc/3rV2duyDem5oKVVT/wDStgf7uX1/H0Faan+t6Yen&#xA;tXFXfWb1/wC6syvvPIqAj29P1j94GKu9DUJP7y5WJetIIxyB8C0hkBH+wGKvINEsIbf/AJyi8xWk&#xA;1bhNS8t299J6lGDPDPFbgutAvToKUxV7PFDFDGI4kWONfsogCgVNdgMVXYq7FXYq7FXYq7FXYq7F&#xA;XYq7FXYq7FXjv/OJyRp+TVhGFCzxXd4lyKUPqCdtmPchSMVexYq7FXYq7FXYq7FXYq7FXYq7FXYq&#xA;lT6nDZ+YIdMlMpfVI5bi2kcgxB7YRq8KdwxVvU496MexxVS85H0vLd/eA3NbG3nuALKZoJiBC6uU&#xA;IqrOqOWRWBHMKeoBCrzrSP8AnGT8t7HWrfzJYXmq/pRJfrUd8bsSM7v8RZi0bcw9fi5V5A74q9fx&#xA;V2KuxV5BZf8ArV9//wCAav8A3UIsVev4q7FXYq7FXYq7FXYq7FXYq7FXYq7FXYq8d/5xnP1PQ/Nv&#xA;l5/hm0PzNqFt6da0jJQqep2LBsVexYq7FXYq7FXYqp3NzDbQtNMSI0pyIVmO5oNlBJ3OKpUuoeY4&#xA;LqeTUbCyg0eESv8AWoLuaacRoCVZoDaxj4gNwshp25YqnIIIBHQ7jFXYqgpNYsEmaHnzlS4jtZEU&#xA;bpJKgkWtabFWBqMVV7W8trpHkt39REkkhZgDTnE5jkXfrxdSp98VWX9oZ443iWH63bv6tpNPF6oi&#xA;kKmNmUBkYExu6VDDYnttiqAk1W/urm60uLTbm1l4SLFqFzFDLZ/ZISQhJ1aRWP7Ao3jx64qm0UaR&#xA;RJHGqoiKFRFHFQAKAADoMVXYq7FXYq8d8mU1L/nJXz9qCDlHpGmafpnOn7U6rORX/WiYfRir2LFX&#xA;Yq7FXYq7FXYq7FXYq7FXYq7FXYq7FXjPkh18u/8AORfnjy+/wQeZrK012xB2BaKsU9PdpHc/7HFX&#xA;s2KuxV2KuxV2KpZ5lXVzoly+j1OpQhJ7aIFQZmhdZDBV6KPWCGMk9OXUYqmYJIBIoT2PUfdiqVaD&#xA;Hq8H1611J/WEd3K2n3JK8pLWUiVAwBqDCztDv1CA98VRuo8vqMyiGa45qUMNs4imIf4TwkLw8SAa&#xA;15gjtvirzywtLzWvNd3afpiaxbTbZKMws5L2SRZX4CZ43ngYWfL+QP8AvRz7MyqRn82fLvknQLfV&#xA;dZXUtQs4RJY20mkQpJpqiBuFVAnbi0oVXBunLmtV2JxVPfyf/ONfzG0zU9YXTH07TrW6FnaRj1Lm&#xA;Z2WNZJHkMcYRBSVQqgnvvir0D9J2v7QlRe7vDMqgeLMyAAe5xV36W0r/AJbYP+Rqf1xV36W0r/lt&#xA;g/5Gp/XFXfpbSv8Altg/5Gp/XFVr6zpCKXe+t1RQSzGVAAB1JNcVeQf845X1nf2Xm3zpdXEcUvmr&#xA;XLm4tlkdVP1SAlIB8Rr8JZ1+jFXsP6W0r/ltg/5Gp/XFXfpbSv8Altg/5Gp/XFVWC8tLgkQTxzFf&#xA;tCNlalfGhxVVxV5/on5yaBeR67c6nC+mWOkSK9rcnncfXLGW5ezhu4o4ozJxkuIXUKA23E1+LZVM&#xA;ofzX8jyWd5dyXstsun21xeX8Vxa3UU0MNnIIp2kiaMOCjkfDTkeoGKo/Q/PHl7XNWvdL06WaS4sW&#xA;mjlkaCZIWa2l9CcRTMojk9OX4W4tiqf4q7FXYq7FXYq7FXi/5++r5X8weTPzQt1b0tAvfqGtlAST&#xA;p998DFgOvAlgv+UwxV7NHJHLGskbB43AZHUgqykVBBHUHFV2KuxV2KuxV2KpNpF4YtY1HQzarbQ2&#xA;iw3OntGCEkt7gENv09RLiOTkB0Uof2sVb165l0+406/t7WKX1LuGyv5ihaZba5JjT02XcUuXiZq1&#xA;HHlt3CqazwxzwSQSiscqlHAJBKsKHcUI+jFWM3/kbT7q5ieW1tZrWCWBLOyaFBBb2kan1I0jIZeU&#xA;jsxYgCq8V/ZxVMtI8t2dhEgkVLi4ija1juStJDZhiYYJWqTII0IWrdevUnFW9D8peWdBuL240XTY&#xA;NNfUWR7xLZfSjd4wVVvSWkYajblVBPeuKptirsVdirsVeaf85DebZfL35Y6jDZktq+uldH0uFPtv&#xA;LeVRuPuIuZB8aYqyv8vvKkPlLyTovlyKh/RtrHFMy9HmI5TOP9eVmb6cVZBirsVUp7W1uABPCkwX&#xA;7IkUNSvhUYqhrvSYJNOvLSzb9HyXcLxC6tlRZI2ZSqyLtTknKq1GKsKH5GeSLY6YdHgGjNYQx21w&#xA;1jFDE17HDNBcJ9bYJWRxLaK3P7W7eOKu8wfkvpGsTanL+lb6ybWIb621AW/1ciSC/ZHaP97FJx4P&#xA;ECpWh6gnFUz0D8s9J0Xzhf8AmmC7uJby/WdGhdYEWlxMJ29R4oo5Z+DLxi9Z2KLUDFWYYq7FXYq7&#xA;FXYq7FUo83eWdP8ANHlnU/L2oD/RNTt3t5GAqULD4ZFr+0jUZfcYq88/5x6806hJod55B8wfu/NH&#xA;kmQafcoT/e2i7W0yeK8Bxr4BT+1ir1rFXYq7FXYq7FVC6hlcxyRSMskJZ1iDBUkJRlCSfCx41blt&#xA;vUD5YqgNObzHdE/pa2t9N9J0eIWN2116oHLmsnq2tvxX7NOO59u6qbYq7FUl1rSLy81fTbuzuZ7K&#xA;ayWU/WEcNAyPJCXt57ZiPU9VUPFxvHTYitCqj4NTt3nS1npaX0vrNDZSyRes8UMnAzKqO9UYFW8Q&#xA;GHIK22KovFXYq7FXYq8OtJf+Vn/nx9cj/e+UPy35RwSdY7jWJD8TKejCHgD7FAej4q9xxV2KuxV2&#xA;KuxV2KuxV2KuxV2KuxV2KuxV2KuxV4x+dfl7WPLOv2H5weVYDLqGjJ6HmewTb65pZpzJoN2iArU9&#xA;BRv2MVep+V/M2jeZ9Aste0acXOnX8YlgkHUdmRx+y6NVWXsRiqaYq7FXYq7FXYq7FXYq7FUoeyR/&#xA;NsF79YjL29hLD9V5fvVE80beoF7K3oUJ8RiqJ1bRNL1aOKO/gEv1eQTW0gZo5YpV6PFKhWSNqbVV&#xA;htt0xVDapq97o8Jubm1n1G1aVuT2EBeS3hoOJeEO8s1DWpiUt0+DqcVTSGaOaJJYzVHUMpoQaMKi&#xA;oNCNj3xVfiry387/AMxNS0eztPJ3lQev5680H6tpkSHe2haqyXb0+yEFeJPerdFOKsp/LPyBpnkP&#xA;ydY+XbD94YB6l7dUo09y9DLKfmdgOygDtirKcVdirsVdirsVdirsVdirsVdirsVdirsVdirsVaZV&#xA;ZSrAMrCjKdwQexxV4DqMGofkN5om1ixikuvyn124B1GxhXk+k3cpA9aNQP7lugA/1ftBeSr3bTNT&#xA;0/VNPt9R064ju7G7jWW2uYmDI6MKhlIxVE4q7FXYq7FXYq7FXYqllpdalL5g1KCWMpptvDai1coR&#xA;zmcytOQxADAL6Q26GuKpBr35x/ldoMixal5lshcOeItrd/rc9agUMNsJZBWu3w74qzCN+cauAVDA&#xA;HiwoRUVoQehxVBajo8N5BcLDLJp93chA2oWnBLgekax/Eyurcan4XVl3O2+KsJ/MP8zR+XWhWsd9&#xA;Kmu6/eiSHTLGMeneXdwzBbcLbRK4KfFSWQFdx8KksFCqC/J/8s9Y0y6vfPPnd1vPP2vDlcnZksbc&#xA;/ZtYeoFAAGoewUdKsq9SxV2KuxV2KuxV2KuxV2KuxV2KuxV2KuxV2KuxV2KuxVSu7O0vbWW0vIUu&#xA;LWdTHPBKodHRhQqytUEH3xV4VeeWPO/5K6jcav5Kt5vMP5dXDtNqnlfkXubEsatNZmhZkXw8PtV+&#xA;2FXq3kX8w/KPnnSF1Ty5fpdRCguID8M8Dn9iaI/Eh2PsexIxVkmKuxV2KuxV2KuxVLNBvbe+S+u7&#xA;czGNr24hImbkoezf6pIIhU8E525NP5qnvirzzzr/AM43fl15i1GHWLC1XQdct5knS6skUQSPGysP&#xA;XtfhjYHjvw4sa7k4q9M/RtuP7t5oyPscZpOK+FELFKDw409sVeX/AJh/nMmg6mvlfygZPNfnu5Pp&#xA;w6PEsTwwE9XupIhHw49SvL/W4jfFW/y6/KHWdL1uTzx5zuYfMPnu9X+/kdkg09CCPQtF4OvQ05BV&#xA;puB1JZV6f9avF2eydm7mF42T6C7RN/wuKu/SdsPtrLHT7TPDKFXxLOV4gDxrTFV8N/YzvwguIpXp&#xA;Xijqxp40BxVXxV2KuxV2KuxV2KuxV2KuxV2KuxV2KuxV2KuxV2KuxV5X51/IbTNQ1ZvNHku/k8n+&#xA;cRVv0hZClvOSastzbiitzP2iOvVg2KpNH+c35geRWFn+a/lmQ2SEKvm3RFM9k46Bpo9jET9BPZMV&#xA;emeVPzD8j+bYRL5c1q11EleRhikAnUeLwPxlT/ZKMVZDirsVdiqncXFvbW8tzcypBbwI0k00jBER&#xA;EHJmZmoAoAqScVUNLtxaabCjxQ28nEy3KW9fRE0hMkzIWCkhpGZqkVPU4qwTzh/zkB+WPlmT6o2p&#xA;jV9WLcI9K0kC8uGfpw+A+mrV7M4OKsTdPz5/M+kciH8tfKElRIOXqaxcRnt0Qw1/2BH+WMVekfl/&#xA;+WHk3yFpxsvL1kIpJafW7+U+pdXDDvLKRU+PEUUdgMVZVirsVdiqya3gnThPGsqVrxdQwr40OKqH&#xA;6LsR/dx+h4iBmhB+fplK/TirvqMi7R3k8adkqj0/2UiO5+lsVdw1Vd/Wgkp+wYnQn25c3p8+J+WK&#xA;tSy3i2lw80XFkjYxi2YyyEhSfhDIg5fy4q+dfLHm248tWV9Lpl+2p3KaWhudTha7lMczXltGX1ew&#xA;v5THb3nG4Zuf1gIoDll4KMVTzQ/zX863dvajUdVtbGON71IL8Wf1sajPb3EaQ2qiBlUs8EnP9zu/&#xA;2k+EGqqMu/zN846HoFzqWs6hE8+paPrN5okX1PgiX1lIqWlsCvIyMUq7Buu56DFXXXnD81nS7vbf&#xA;VLeG29PXJobZrASMiaOU9BQ/NatOzFWqPsfZo2+KvZ7OZ57OCZxxeWNHZR0BZQSN8VVsVdirsVdi&#xA;rsVdirsVdirsVaZVZSrAMrCjKdwQexxV5z5o/wCcevyn8wztdy6Kum6iTyW/0tms5Vb+fjFSIt7s&#xA;hxVIV/Jb8ztE/wCUR/NHUo4UqIrPWYI9RWnZfUkNFHyjxVUGnf8AOVdjvFqvlXVkWn+9MV1DI29K&#xA;cYURff7WKtm5/wCcsJB6YtfJ0PKg9UHUDxr33d/1HFULqPkb/nJLzFZXGna15w0TSrC8jaG6i0yy&#xA;a45ROCrLW4SNqMNj8Q64qrf9C4rrBDeevOuueaBsWtDN9Usz4/6Ohkp/sWGKvQPKX5b+RPKEfDy5&#xA;olrpzUo1wic52B7NPJzlYexbFWSYq7FXYq7FXYq7FXYq7FXYq7FXYq7FXYq7FXYq7FXYq7FXYq//&#xA;2Q==</xmpGImg:image>
               </rdf:li>
            </rdf:Alt>
         </xmp:Thumbnails>
      </rdf:Description>
      <rdf:Description rdf:about=""
            xmlns:xmpMM="http://ns.adobe.com/xap/1.0/mm/"
            xmlns:stRef="http://ns.adobe.com/xap/1.0/sType/ResourceRef#"
            xmlns:stEvt="http://ns.adobe.com/xap/1.0/sType/ResourceEvent#">
         <xmpMM:DocumentID>xmp.did:99CC6E7E3D20681188C69098C6AB8D67</xmpMM:DocumentID>
         <xmpMM:InstanceID>xmp.iid:99CC6E7E3D20681188C69098C6AB8D67</xmpMM:InstanceID>
         <xmpMM:OriginalDocumentID>uuid:9463A1CF0126DF118833972942CE57BD</xmpMM:OriginalDocumentID>
         <xmpMM:DerivedFrom rdf:parseType="Resource">
            <stRef:instanceID>uuid:a949c892-380a-4067-b726-2ef7d452b883</stRef:instanceID>
            <stRef:documentID>uuid:9463A1CF0126DF118833972942CE57BD</stRef:documentID>
            <stRef:originalDocumentID>uuid:9463A1CF0126DF118833972942CE57BD</stRef:originalDocumentID>
         </xmpMM:DerivedFrom>
         <xmpMM:History>
            <rdf:Seq>
               <rdf:li rdf:parseType="Resource">
                  <stEvt:action>saved</stEvt:action>
                  <stEvt:instanceID>xmp.iid:99CC6E7E3D20681188C69098C6AB8D67</stEvt:instanceID>
                  <stEvt:when>2015-02-12T17:06:40+02:00</stEvt:when>
                  <stEvt:softwareAgent>Adobe Illustrator CS5.1</stEvt:softwareAgent>
                  <stEvt:changed>/</stEvt:changed>
               </rdf:li>
            </rdf:Seq>
         </xmpMM:History>
      </rdf:Description>
      <rdf:Description rdf:about=""
            xmlns:pdf="http://ns.adobe.com/pdf/1.3/">
         <pdf:Producer>Adobe PDF library 7.77</pdf:Producer>
      </rdf:Description>
      <rdf:Description rdf:about=""
            xmlns:xmpTPg="http://ns.adobe.com/xap/1.0/t/pg/"
            xmlns:stDim="http://ns.adobe.com/xap/1.0/sType/Dimensions#"
            xmlns:xmpG="http://ns.adobe.com/xap/1.0/g/">
         <xmpTPg:MaxPageSize rdf:parseType="Resource">
            <stDim:w>327.375000</stDim:w>
            <stDim:h>190.900391</stDim:h>
            <stDim:unit>Pixels</stDim:unit>
         </xmpTPg:MaxPageSize>
         <xmpTPg:NPages>1</xmpTPg:NPages>
         <xmpTPg:HasVisibleTransparency>False</xmpTPg:HasVisibleTransparency>
         <xmpTPg:HasVisibleOverprint>False</xmpTPg:HasVisibleOverprint>
         <xmpTPg:PlateNames>
            <rdf:Seq>
               <rdf:li>Cyan</rdf:li>
               <rdf:li>Magenta</rdf:li>
               <rdf:li>Yellow</rdf:li>
               <rdf:li>Black</rdf:li>
            </rdf:Seq>
         </xmpTPg:PlateNames>
         <xmpTPg:SwatchGroups>
            <rdf:Seq>
               <rdf:li rdf:parseType="Resource">
                  <xmpG:groupName>Default Swatch Group</xmpG:groupName>
                  <xmpG:groupType>0</xmpG:groupType>
               </rdf:li>
            </rdf:Seq>
         </xmpTPg:SwatchGroups>
      </rdf:Description>
   </rdf:RDF>
</x:xmpmeta>
                                                                                                    
                                                                                                    
                                                                                                    
                                                                                                    
                                                                                                    
                                                                                                    
                                                                                                    
                                                                                                    
                                                                                                    
                                                                                                    
                                                                                                    
                                                                                                    
                                                                                                    
                                                                                                    
                                                                                                    
                                                                                                    
                                                                                                    
                                                                                                    
                                                                                                    
                                                                                                    
                           
<?xpacket end="w"?>
	</metadata>
<g>
	<path stroke="#000000" stroke-width="0.0332" stroke-linecap="round" stroke-linejoin="round" d="M141.961,95.134l10.917-0.091
		c-2.437-1.804-3.429-3.97-2.797-7.037L141.961,95.134z"/>
	<path stroke="#000000" stroke-width="0.0332" stroke-linecap="round" stroke-linejoin="round" d="M122.834,163.706l9.744,4.872
		c-1.263-2.707-1.173-5.054,0.723-7.489L122.834,163.706z"/>
	<path stroke="#000000" stroke-width="0.0332" stroke-linecap="round" stroke-linejoin="round" d="M117.33,120.938l10.286,3.882
		c-1.624-2.618-1.715-4.963-0.091-7.579L117.33,120.938z"/>
	<path stroke="#000000" stroke-width="0.0332" stroke-linecap="round" stroke-linejoin="round" d="M76.819,39.736l10.376,3.428
		c-1.715-2.436-1.985-4.782-0.361-7.489L76.819,39.736z"/>
	<path fill="none" stroke="#000000" stroke-width="2.96" d="M95.405,189.42c51.699,0,93.833-42.225,93.833-94.015
		c0-51.699-42.135-93.925-93.833-93.925C43.615,1.48,1.48,43.706,1.48,95.405C1.48,147.195,43.615,189.42,95.405,189.42z"/>
	<g>
		<line fill="none" stroke="#000000" stroke-width="0.7401" x1="110.112" y1="109.029" x2="110.112" y2="129.42"/>
		<line fill="none" stroke="#000000" stroke-width="0.7401" x1="105.06" y1="110.384" x2="115.254" y2="128.065"/>
		<line fill="none" stroke="#000000" stroke-width="0.7401" x1="101.27" y1="114.172" x2="118.953" y2="124.366"/>
		<line fill="none" stroke="#000000" stroke-width="0.7401" x1="99.917" y1="119.225" x2="120.307" y2="119.225"/>
		<line fill="none" stroke="#000000" stroke-width="0.7401" x1="101.27" y1="124.366" x2="118.953" y2="114.172"/>
		<line fill="none" stroke="#000000" stroke-width="0.7401" x1="105.06" y1="128.065" x2="115.254" y2="110.384"/>
		<path fill="#FFFFFF" stroke="#000000" stroke-width="0.7401" d="M110.472,123.465c1.985,0,3.699-1.714,3.699-3.789
			c0-1.983-1.714-3.698-3.699-3.698c-2.075,0-3.699,1.715-3.699,3.698C106.773,121.751,108.397,123.465,110.472,123.465z"/>
	</g>
	<path fill="#FFFFFF" stroke="#000000" stroke-width="1.1118" stroke-dasharray="5.5587,3.3352,1.1118,3.3352" d="M73.3,108.126
		L73.3,108.126c3.249-1.44,7.308,0.632,9.022,4.513l7.128,16.24c1.715,3.97,0.451,8.392-2.797,9.743l0,0
		c-3.249,1.444-7.398-0.54-9.113-4.511l-7.127-16.239C68.698,113.901,69.961,109.57,73.3,108.126z"/>
	<path fill="#FFFFFF" stroke="#000000" stroke-width="1.1118" stroke-dasharray="5.5587,3.3352,1.1118,3.3352" d="M126.442,79.074
		L126.442,79.074c3.248-1.443,7.398,0.632,9.113,4.511l7.127,16.239c1.715,3.973,0.452,8.393-2.887,9.746l0,0
		c-3.248,1.443-7.308-0.541-9.022-4.51l-7.128-16.242C121.931,84.848,123.194,80.518,126.442,79.074z"/>
	<path fill="none" stroke="#000000" stroke-width="1.1118" stroke-dasharray="5.5587,3.3352,1.1118,3.3352" d="M110.833,188.337
		c4.962-17.864,7.398-35.817,7.398-53.773c14.346,12.812,29.504,20.571,45.022,25.984"/>
	<path fill="none" stroke="#000000" stroke-width="1.1118" d="M1.391,92.789c19.128-8.392,38.346-13.083,57.473-7.85"/>
	<path fill="none" stroke="#000000" stroke-width="1.1118" d="M79.255,87.736c-8.481,2.436-17.233,3.519-22.736-7.939
		c-2.527-5.323-0.452-11.278,5.142-16.691c4.511-4.332,9.293-5.233,13.895-3.249c1.714-6.767,5.864-10.465,12.541-11.098
		c5.414-0.541,10.287,1.805,14.437,7.399c5.594,7.669,1.895,14.436-6.044,20.842"/>
	<path fill="none" stroke="#000000" stroke-width="1.1118" d="M103.886,58.051c0.361-19.397,6.677-36.991,15.79-53.863"/>
	<path fill="none" stroke="#000000" stroke-width="1.1118" d="M63.555,62.202C60.127,53.54,53.089,45.781,53.27,36.217
		c0.181-3.97,3.249-9.474,9.744-6.045c9.113,4.783,14.707,12.271,17.685,21.835"/>
	<path d="M239.314,31.796v-1.083h3.789v3.338c-0.541,0.451-1.174,0.812-1.806,0.992c-0.63,0.271-1.264,0.361-1.894,0.361
		c-0.902,0-1.715-0.18-2.437-0.542c-0.723-0.361-1.264-0.902-1.624-1.624c-0.361-0.722-0.541-1.534-0.541-2.437
		c0-0.812,0.18-1.624,0.541-2.436c0.36-0.722,0.901-1.263,1.624-1.624c0.63-0.361,1.441-0.542,2.345-0.542
		c0.633,0,1.265,0.09,1.713,0.271c0.543,0.18,0.994,0.541,1.265,0.9c0.271,0.361,0.543,0.812,0.724,1.444l-1.084,0.271
		c-0.179-0.452-0.359-0.812-0.541-1.083c-0.18-0.271-0.451-0.451-0.812-0.632c-0.36-0.089-0.812-0.18-1.265-0.18
		c-0.541,0-0.992,0.091-1.442,0.271c-0.36,0.09-0.632,0.36-0.901,0.631c-0.271,0.271-0.453,0.542-0.543,0.902
		c-0.271,0.542-0.359,1.083-0.359,1.805c0,0.812,0.09,1.444,0.359,1.984c0.271,0.542,0.723,0.903,1.264,1.173
		c0.451,0.271,1.084,0.452,1.625,0.452s0.992-0.181,1.535-0.361c0.448-0.18,0.81-0.36,1.08-0.632v-1.624h-2.615V31.796z"/>
	<path d="M249.148,33.24l1.172,0.09c-0.18,0.632-0.539,1.173-0.991,1.534c-0.54,0.361-1.083,0.542-1.896,0.542h-0.09v-0.902h0.09
		c0.451,0,0.812-0.09,1.084-0.271C248.789,33.961,248.969,33.691,249.148,33.24L249.148,33.24z M247.344,28.638h0.09
		c0.812,0,1.534,0.271,2.075,0.901c0.542,0.542,0.812,1.444,0.812,2.527c0,0,0,0.089,0,0.27h-2.977v-0.901h1.805
		c0-0.542-0.181-0.992-0.359-1.265c-0.362-0.451-0.812-0.632-1.354-0.632h-0.09v-0.9H247.344z M247.344,35.405
		c-0.902,0-1.623-0.271-2.166-0.812c-0.541-0.632-0.812-1.443-0.812-2.525c0-1.083,0.271-1.896,0.812-2.527
		c0.543-0.631,1.264-0.901,2.166-0.901v0.901c-0.451,0-0.902,0.182-1.172,0.542c-0.361,0.271-0.543,0.723-0.634,1.354h1.806v0.901
		h-1.806c0,0.723,0.183,1.265,0.542,1.624c0.361,0.36,0.812,0.542,1.264,0.542V35.405L247.344,35.405z"/>
	<path d="M251.675,35.315v-6.497h0.992v0.901c0.452-0.722,1.173-1.082,2.076-1.082c0.36,0,0.721,0.09,1.081,0.18
		c0.359,0.18,0.543,0.36,0.721,0.632c0.184,0.181,0.273,0.451,0.362,0.812c0.09,0.182,0.09,0.542,0.09,0.993v4.061h-1.082v-3.972
		c0-0.449-0.091-0.812-0.183-0.991c-0.088-0.271-0.27-0.451-0.449-0.542c-0.18-0.18-0.451-0.18-0.723-0.18
		c-0.539,0-0.901,0.089-1.264,0.451c-0.361,0.271-0.541,0.812-0.541,1.624v3.609L251.675,35.315L251.675,35.315z"/>
	<path d="M258.712,27.556v-1.264h1.083v1.264H258.712L258.712,27.556z M258.712,35.315v-6.497h1.083v6.497H258.712z"/>
	<path d="M263.855,34.322l0.181,0.993c-0.36,0-0.632,0.09-0.812,0.09c-0.449,0-0.722-0.09-0.992-0.18
		c-0.18-0.182-0.36-0.361-0.449-0.542c-0.094-0.182-0.094-0.633-0.094-1.265V29.63h-0.812v-0.812h0.812v-1.624l1.086-0.632v2.256
		h1.08v0.812h-1.08v3.789c0,0.36,0,0.542,0,0.632c0.088,0.091,0.088,0.181,0.179,0.181c0.091,0.09,0.271,0.09,0.45,0.09
		C263.495,34.322,263.675,34.322,263.855,34.322z"/>
	<path d="M269.178,34.503c-0.451,0.361-0.812,0.541-1.174,0.723c-0.179,0.09-0.359,0.09-0.63,0.18v-0.902
		c0.271,0,0.541-0.09,0.812-0.181c0.271-0.18,0.541-0.45,0.724-0.812c0.09-0.271,0.181-0.631,0.181-1.083v-0.359
		c-0.361,0.089-0.994,0.27-1.715,0.359v-0.901c0.812-0.09,1.354-0.271,1.715-0.361c0-0.18,0-0.27,0-0.27
		c0-0.451-0.091-0.812-0.361-0.993c-0.271-0.182-0.633-0.361-1.172-0.361h-0.182v-0.901c0.091,0,0.182,0,0.27,0
		c0.635,0,0.994,0.09,1.354,0.18c0.36,0.18,0.632,0.271,0.812,0.542c0.182,0.18,0.271,0.451,0.36,0.722c0,0.181,0,0.542,0,0.992
		v1.535c0,0.992,0,1.623,0.093,1.894c0.088,0.271,0.18,0.541,0.271,0.812h-1.175C269.27,35.044,269.178,34.773,269.178,34.503z
		 M267.375,35.405c-0.182,0-0.359,0-0.632,0c-0.724,0-1.265-0.18-1.624-0.451c-0.362-0.361-0.542-0.812-0.542-1.354
		c0-0.361,0.092-0.634,0.18-0.903c0.183-0.271,0.362-0.451,0.543-0.631c0.271-0.182,0.54-0.271,0.812-0.361
		c0.271-0.09,0.543-0.09,0.992-0.181h0.271v0.901h-0.09c-0.453,0.091-0.812,0.182-0.992,0.271c-0.182,0.09-0.271,0.181-0.453,0.361
		c-0.089,0.09-0.089,0.27-0.089,0.45c0,0.361,0.089,0.542,0.271,0.812c0.271,0.181,0.633,0.271,0.994,0.271
		c0.178,0,0.271,0,0.359-0.09V35.405L267.375,35.405z M267.375,29.54c-0.451,0-0.812,0.091-0.994,0.271
		c-0.27,0.181-0.449,0.542-0.541,0.993l-1.083-0.181c0.091-0.452,0.271-0.812,0.452-1.083c0.271-0.27,0.542-0.542,0.992-0.631
		c0.361-0.18,0.723-0.271,1.174-0.271V29.54L267.375,29.54z"/>
	<rect x="271.887" y="26.292" width="1.082" height="9.022"/>
	<path d="M274.682,27.556v-1.264h1.084v1.264H274.682L274.682,27.556z M274.682,35.315v-6.497h1.084v6.497H274.682z"/>
	<path d="M281.721,34.503c-0.451,0.361-0.812,0.541-1.173,0.723c-0.183,0.09-0.362,0.09-0.632,0.18v-0.902
		c0.27,0,0.541-0.09,0.811-0.181c0.271-0.18,0.543-0.45,0.724-0.812c0.091-0.271,0.18-0.631,0.18-1.083v-0.359
		c-0.36,0.089-0.991,0.27-1.713,0.359v-0.901c0.812-0.09,1.353-0.271,1.713-0.361c0-0.18,0-0.27,0-0.27
		c0-0.451-0.089-0.812-0.36-0.993c-0.271-0.182-0.631-0.361-1.172-0.361h-0.181v-0.901c0.089,0,0.181,0,0.271,0
		c0.541,0,0.994,0.09,1.354,0.18c0.359,0.18,0.63,0.271,0.811,0.542c0.183,0.18,0.271,0.451,0.361,0.722c0,0.181,0,0.542,0,0.992
		v1.535c0,0.992,0,1.623,0.092,1.894c0,0.271,0.178,0.541,0.27,0.812h-1.172C281.811,35.044,281.721,34.773,281.721,34.503z
		 M279.917,35.405c-0.181,0-0.362,0-0.632,0c-0.723,0-1.264-0.18-1.624-0.451c-0.362-0.361-0.542-0.812-0.542-1.354
		c0-0.361,0.091-0.634,0.18-0.903c0.182-0.271,0.362-0.451,0.541-0.631c0.271-0.182,0.542-0.271,0.812-0.361
		c0.272-0.09,0.543-0.09,0.994-0.181h0.271v0.901h-0.091c-0.452,0.091-0.812,0.182-0.992,0.271c-0.184,0.09-0.271,0.181-0.452,0.361
		c-0.089,0.09-0.089,0.27-0.089,0.45c0,0.361,0.089,0.542,0.27,0.812c0.271,0.181,0.633,0.271,0.992,0.271
		c0.182,0,0.271,0,0.362-0.09V35.405L279.917,35.405z M279.917,29.54c-0.453,0-0.813,0.091-0.992,0.271
		c-0.272,0.181-0.452,0.542-0.543,0.993l-1.083-0.181c0.092-0.452,0.271-0.812,0.451-1.083c0.271-0.27,0.543-0.542,0.992-0.631
		c0.361-0.18,0.722-0.271,1.175-0.271V29.54L279.917,29.54z"/>
	<rect x="235.346" y="69.42" width="1.17" height="9.022"/>
	<path d="M238.05,76.458l1.083-0.181c0,0.452,0.182,0.812,0.452,1.083c0.271,0.18,0.722,0.271,1.172,0.271
		c0.541,0,0.901-0.09,1.173-0.271s0.36-0.452,0.36-0.723c0-0.271-0.089-0.451-0.36-0.632c-0.091-0.091-0.541-0.181-1.08-0.36
		c-0.814-0.182-1.354-0.361-1.717-0.542c-0.271-0.09-0.54-0.271-0.723-0.541c-0.09-0.271-0.178-0.542-0.178-0.902
		c0-0.27,0-0.542,0.178-0.812c0.092-0.271,0.271-0.452,0.543-0.633c0.18-0.091,0.359-0.18,0.721-0.271
		c0.271-0.09,0.543-0.179,0.903-0.179c0.542,0,0.991,0.089,1.353,0.271c0.36,0.089,0.721,0.271,0.903,0.542
		c0.181,0.271,0.271,0.631,0.36,0.992l-1.082,0.18c-0.092-0.359-0.182-0.632-0.453-0.812c-0.27-0.18-0.539-0.271-0.99-0.271
		c-0.543,0-0.902,0.091-1.083,0.271c-0.181,0.181-0.362,0.36-0.362,0.633c0,0.09,0.092,0.271,0.182,0.36
		c0.091,0.09,0.271,0.18,0.451,0.271c0.09,0.09,0.361,0.181,0.901,0.271c0.812,0.271,1.354,0.36,1.624,0.541
		c0.36,0.09,0.633,0.271,0.812,0.542c0.091,0.271,0.182,0.632,0.182,0.992s-0.091,0.722-0.271,0.992
		c-0.182,0.36-0.541,0.632-0.901,0.812c-0.45,0.18-0.903,0.18-1.444,0.18c-0.812,0-1.443-0.09-1.895-0.452
		C238.411,77.721,238.141,77.179,238.05,76.458z"/>
	<path d="M248.969,76.007l1.082,0.181c-0.091,0.722-0.451,1.354-0.902,1.714c-0.543,0.452-1.082,0.632-1.805,0.632
		c-0.902,0-1.623-0.271-2.166-0.812c-0.541-0.633-0.812-1.444-0.812-2.526c0-0.722,0.183-1.264,0.36-1.804
		c0.272-0.542,0.633-0.903,1.084-1.174s0.992-0.45,1.533-0.45c0.723,0,1.262,0.179,1.715,0.541c0.451,0.36,0.723,0.901,0.901,1.533
		l-1.081,0.181c-0.091-0.451-0.273-0.812-0.543-0.992c-0.271-0.271-0.542-0.361-0.902-0.361c-0.631,0-1.082,0.182-1.354,0.631
		c-0.359,0.361-0.542,0.993-0.542,1.896c0,0.812,0.183,1.534,0.45,1.894c0.363,0.361,0.812,0.542,1.355,0.542
		c0.449,0,0.811-0.09,1.081-0.36C248.697,76.999,248.879,76.638,248.969,76.007z"/>
	<path d="M250.953,78.442V69.42h1.175v3.248c0.449-0.542,1.171-0.9,1.896-0.9c0.539,0,0.899,0.089,1.262,0.271
		c0.361,0.18,0.632,0.45,0.812,0.812c0.088,0.359,0.18,0.812,0.18,1.442v4.15h-1.084v-4.15c0-0.541-0.088-0.9-0.359-1.173
		c-0.271-0.27-0.541-0.36-0.992-0.36c-0.359,0-0.632,0.091-0.992,0.271c-0.271,0.09-0.449,0.361-0.543,0.631
		c-0.178,0.271-0.178,0.722-0.178,1.173v3.609h-1.176V78.442z"/>
	<path d="M257.991,70.773V69.42h1.081v1.354L257.991,70.773L257.991,70.773z M257.991,78.442v-6.497h1.081v6.497H257.991z"/>
	<path d="M265.027,77.631c-0.45,0.36-0.812,0.631-1.262,0.723c-0.181,0.09-0.361,0.18-0.543,0.18v-0.812
		c0.271-0.091,0.543-0.181,0.723-0.271c0.361-0.18,0.632-0.451,0.812-0.812c0.091-0.181,0.091-0.541,0.091-1.083v-0.36
		c-0.359,0.09-0.902,0.27-1.623,0.36v-0.902c0.721-0.09,1.264-0.181,1.623-0.361c0.092-0.181,0.092-0.271,0.092-0.271
		c0-0.451-0.183-0.812-0.361-0.992c-0.27-0.18-0.723-0.361-1.262-0.361h-0.092v-0.9c0.092,0,0.18,0,0.271,0
		c0.541,0,0.991,0.089,1.353,0.179c0.361,0.18,0.633,0.361,0.723,0.542c0.182,0.181,0.271,0.451,0.361,0.722
		c0.09,0.182,0.09,0.542,0.09,0.992v1.535c0,0.992,0,1.624,0.09,1.895c0,0.271,0.091,0.542,0.271,0.812h-1.172
		C265.119,78.172,265.027,77.901,265.027,77.631z M263.223,78.533c-0.18,0-0.449,0-0.631,0c-0.722,0-1.264-0.09-1.624-0.452
		c-0.36-0.359-0.632-0.812-0.632-1.353c0-0.361,0.092-0.632,0.271-0.903c0.09-0.271,0.27-0.451,0.543-0.631
		c0.27-0.181,0.539-0.271,0.812-0.361c0.179,0,0.541-0.09,0.991-0.18h0.271v0.902h-0.09c-0.451,0.09-0.812,0.181-0.994,0.271
		c-0.179,0.09-0.357,0.181-0.451,0.361c-0.088,0.09-0.178,0.271-0.178,0.542c0,0.271,0.178,0.541,0.359,0.721
		c0.27,0.181,0.541,0.271,0.992,0.271c0.09,0,0.271,0,0.359,0V78.533L263.223,78.533z M263.223,72.668
		c-0.449,0-0.812,0.091-1.082,0.271c-0.18,0.181-0.359,0.542-0.541,0.993l-1.084-0.181c0.182-0.452,0.271-0.812,0.543-1.083
		c0.18-0.271,0.541-0.542,0.992-0.631c0.36-0.181,0.723-0.181,1.172-0.271V72.668L263.223,72.668z"/>
	<rect x="267.645" y="69.42" width="1.172" height="9.022"/>
	<path d="M276.396,77.45l0.182,0.993c-0.362,0-0.633,0.09-0.903,0.09c-0.36,0-0.63-0.09-0.901-0.18
		c-0.18-0.181-0.359-0.361-0.451-0.542c-0.088-0.181-0.18-0.633-0.18-1.264v-3.79h-0.812v-0.812h0.812v-1.624l1.172-0.631v2.255
		h1.084v0.812h-1.084v3.79c0,0.36,0,0.541,0,0.631c0.09,0.091,0.09,0.182,0.182,0.271c0.091,0,0.271,0,0.361,0
		C276.037,77.45,276.215,77.45,276.396,77.45z"/>
	<path d="M281.721,78.442V77.45c-0.541,0.723-1.173,1.083-2.076,1.083c-0.359,0-0.721,0-1.082-0.18
		c-0.271-0.181-0.541-0.361-0.724-0.542c-0.179-0.271-0.271-0.542-0.36-0.812c0-0.271,0-0.542,0-1.083v-3.97h1.084v3.609
		c0,0.542,0,0.901,0,1.173c0.088,0.271,0.271,0.451,0.451,0.632c0.271,0.18,0.541,0.271,0.902,0.271c0.27,0,0.632-0.09,0.9-0.271
		c0.271-0.181,0.451-0.361,0.633-0.632c0.091-0.361,0.18-0.723,0.18-1.354v-3.429h1.083v6.497H281.721z"/>
	<path d="M287.225,71.767c0,0,0,0,0.09,0c0.359,0,0.812,0.089,1.082,0.271c0.36,0.18,0.722,0.36,0.902,0.631
		c0.27,0.361,0.45,0.724,0.541,1.083c0.182,0.451,0.182,0.902,0.182,1.354c0,1.083-0.271,1.984-0.812,2.526
		c-0.541,0.632-1.173,0.902-1.984,0.902l0,0v-0.902c0.45,0,0.812-0.181,1.174-0.542c0.359-0.45,0.539-1.082,0.539-1.894
		c0-0.903-0.18-1.534-0.539-1.896c-0.271-0.36-0.724-0.631-1.174-0.631l0,0V71.767L287.225,71.767z M285.419,78.442h-0.991V69.42
		h1.081v3.248c0.451-0.542,0.994-0.812,1.716-0.9v0.9c-0.541,0-0.904,0.271-1.265,0.631c-0.36,0.452-0.541,1.083-0.541,1.805
		c0,0.812,0.09,1.354,0.36,1.715c0.361,0.542,0.812,0.812,1.354,0.812h0.092v0.902c-0.813,0-1.354-0.271-1.806-0.902V78.442z"/>
	<path d="M295.884,76.367l1.085,0.09c-0.182,0.723-0.453,1.173-0.992,1.534c-0.453,0.361-1.084,0.542-1.806,0.542h-0.091v-0.902
		h0.091c0.36,0,0.722-0.09,0.992-0.271C295.436,77.179,295.705,76.819,295.884,76.367L295.884,76.367z M294.081,71.767
		L294.081,71.767c0.812,0,1.534,0.358,2.075,0.9c0.632,0.631,0.902,1.443,0.902,2.527c0,0,0,0.18,0,0.27h-2.979v-0.901h1.804
		c-0.089-0.542-0.18-0.992-0.448-1.265c-0.36-0.36-0.813-0.631-1.354-0.631l0,0V71.767z M294.081,78.533
		c-0.992,0-1.713-0.271-2.256-0.812c-0.541-0.633-0.812-1.444-0.812-2.526c0-1.083,0.271-1.896,0.901-2.527
		c0.541-0.542,1.265-0.9,2.165-0.9v0.9c-0.543,0-0.9,0.182-1.262,0.542c-0.362,0.361-0.543,0.812-0.633,1.354h1.895v0.901h-1.895
		c0,0.723,0.271,1.265,0.633,1.624c0.27,0.361,0.719,0.542,1.262,0.542L294.081,78.533L294.081,78.533z"/>
	<path d="M298.322,78.442v-6.497h0.992v0.992c0.271-0.451,0.541-0.812,0.722-0.901c0.271-0.181,0.45-0.271,0.721-0.271
		c0.362,0,0.724,0.179,1.175,0.358l-0.451,0.993c-0.271-0.09-0.541-0.181-0.812-0.181c-0.182,0-0.452,0.091-0.632,0.181
		c-0.181,0.18-0.271,0.361-0.36,0.632c-0.181,0.36-0.181,0.812-0.181,1.263v3.43L298.322,78.442L298.322,78.442z"/>
	<path d="M305.178,71.767L305.178,71.767c0.903,0,1.625,0.271,2.168,0.9c0.629,0.542,0.9,1.354,0.9,2.437
		c0,0.812-0.182,1.444-0.359,1.984c-0.271,0.452-0.633,0.812-1.176,1.083c-0.449,0.271-0.99,0.36-1.533,0.36l0,0V77.63l0,0
		c0.543,0,0.992-0.181,1.354-0.542c0.36-0.45,0.542-1.082,0.542-1.984c0-0.722-0.182-1.354-0.542-1.805
		c-0.361-0.36-0.812-0.631-1.354-0.631l0,0V71.767L305.178,71.767z M302.111,75.195c0-1.173,0.359-2.076,0.992-2.708
		c0.631-0.45,1.264-0.721,2.074-0.721v0.9c-0.541,0-0.992,0.271-1.353,0.631c-0.36,0.452-0.542,1.083-0.542,1.896
		c0,0.812,0.182,1.443,0.542,1.894c0.358,0.361,0.812,0.542,1.353,0.542v0.902c-0.9,0-1.623-0.271-2.164-0.812
		C302.38,77.089,302.111,76.277,302.111,75.195z"/>
	<path d="M309.059,76.458l1.082-0.181c0.092,0.452,0.271,0.812,0.541,1.083c0.271,0.18,0.633,0.271,1.174,0.271
		c0.451,0,0.901-0.09,1.082-0.271c0.271-0.181,0.36-0.452,0.36-0.723c0-0.271-0.089-0.451-0.271-0.632
		c-0.18-0.091-0.541-0.181-1.172-0.36c-0.812-0.182-1.354-0.361-1.623-0.542c-0.361-0.09-0.543-0.271-0.725-0.541
		c-0.179-0.271-0.27-0.542-0.27-0.902c0-0.27,0.091-0.542,0.182-0.812c0.18-0.271,0.359-0.452,0.541-0.633
		c0.18-0.091,0.449-0.18,0.721-0.271c0.271-0.09,0.633-0.179,0.992-0.179c0.451,0,0.903,0.089,1.354,0.271
		c0.361,0.089,0.634,0.271,0.812,0.542c0.183,0.271,0.271,0.631,0.362,0.992l-1.084,0.18c0-0.359-0.18-0.632-0.36-0.812
		c-0.271-0.18-0.632-0.271-0.991-0.271c-0.541,0-0.902,0.091-1.084,0.271c-0.271,0.181-0.359,0.36-0.359,0.633
		c0,0.09,0,0.271,0.089,0.36c0.092,0.09,0.271,0.18,0.452,0.271c0.089,0.09,0.451,0.181,0.992,0.271
		c0.812,0.271,1.354,0.36,1.623,0.541c0.271,0.09,0.543,0.271,0.724,0.542c0.18,0.271,0.271,0.632,0.271,0.992
		s-0.091,0.722-0.361,0.992c-0.18,0.36-0.449,0.632-0.9,0.812c-0.361,0.18-0.812,0.18-1.354,0.18c-0.812,0-1.533-0.09-1.895-0.452
		C309.508,77.721,309.148,77.179,309.059,76.458z"/>
	<path d="M315.826,70.773V69.42h1.08v1.354L315.826,70.773L315.826,70.773z M315.826,78.442v-6.497h1.08v6.497H315.826z"/>
	<path d="M320.968,77.45l0.181,0.993c-0.359,0-0.631,0.09-0.812,0.09c-0.45,0-0.722-0.09-0.994-0.18
		c-0.178-0.181-0.36-0.361-0.448-0.542c-0.092-0.181-0.092-0.633-0.092-1.264v-3.79h-0.811v-0.812h0.811v-1.624l1.084-0.631v2.255
		h1.082v0.812h-1.082v3.79c0,0.36,0,0.541,0,0.631c0.09,0.091,0.09,0.182,0.182,0.271c0.088,0,0.27,0,0.449,0
		C320.605,77.45,320.789,77.45,320.968,77.45z"/>
	<path d="M321.96,80.969l-0.089-1.083c0.27,0.092,0.449,0.092,0.63,0.092c0.271,0,0.451,0,0.542-0.092
		c0.18-0.089,0.27-0.179,0.359-0.359c0.093-0.09,0.271-0.36,0.361-0.812c0-0.091,0.092-0.181,0.092-0.271l-2.438-6.497h1.174
		l1.353,3.791c0.182,0.451,0.361,0.901,0.453,1.443c0.18-0.451,0.271-0.992,0.451-1.443l1.442-3.791h1.083l-2.438,6.587
		c-0.271,0.722-0.541,1.173-0.633,1.444c-0.18,0.359-0.449,0.632-0.721,0.812s-0.541,0.271-0.902,0.271
		C322.501,81.06,322.232,81.06,321.96,80.969z"/>
	<path d="M238.232,117.691h0.631l3.699,9.021h-1.354l-1.084-2.707h-1.893v-0.991h1.531l-0.902-2.527
		c-0.27-0.631-0.451-1.174-0.629-1.623V117.691L238.232,117.691z M234.17,126.714l3.43-9.021h0.633v1.173v-0.181
		c-0.183,0.541-0.272,1.081-0.543,1.713l-0.992,2.618h1.535v0.991h-1.807l-0.992,2.707H234.17z"/>
	<path d="M243.375,126.714v-6.497h0.99v0.902c0.451-0.723,1.173-1.083,2.076-1.083c0.359,0,0.721,0.09,1.082,0.181
		c0.271,0.181,0.541,0.36,0.722,0.542c0.181,0.271,0.271,0.541,0.36,0.812c0,0.27,0,0.63,0,1.083v4.06h-1.082v-3.971
		c0-0.451,0-0.812-0.09-0.992c-0.091-0.271-0.271-0.451-0.453-0.542c-0.27-0.181-0.539-0.181-0.81-0.181
		c-0.452,0-0.903,0.091-1.173,0.362c-0.361,0.359-0.542,0.9-0.542,1.713v3.609L243.375,126.714L243.375,126.714z"/>
	<path d="M254.561,126.714v-0.994c-0.451,0.723-1.172,1.085-2.074,1.085c-0.358,0-0.721-0.091-1.082-0.182
		c-0.27-0.182-0.541-0.359-0.723-0.542c-0.179-0.27-0.27-0.541-0.361-0.812c0-0.271,0-0.63,0-1.081v-3.972h1.084v3.608
		c0,0.541,0,0.902,0.09,1.083c0,0.36,0.182,0.542,0.451,0.721c0.183,0.184,0.453,0.273,0.812,0.273c0.271,0,0.632-0.091,0.902-0.273
		c0.271-0.179,0.541-0.451,0.632-0.721s0.182-0.721,0.182-1.262v-3.431h1.082v6.497L254.561,126.714L254.561,126.714z"/>
	<path d="M256.818,124.728l1.082-0.181c0.091,0.451,0.271,0.812,0.541,0.992c0.271,0.271,0.723,0.362,1.174,0.362
		c0.541,0,0.9-0.091,1.173-0.273c0.181-0.27,0.362-0.451,0.362-0.721s-0.183-0.451-0.362-0.63c-0.181-0.091-0.541-0.182-1.083-0.362
		c-0.812-0.181-1.441-0.361-1.714-0.541c-0.271-0.091-0.542-0.359-0.724-0.632c-0.18-0.271-0.271-0.542-0.271-0.812
		c0-0.271,0.091-0.541,0.271-0.812c0.092-0.271,0.271-0.451,0.541-0.632c0.183-0.091,0.362-0.271,0.633-0.361
		c0.361-0.09,0.631-0.09,0.992-0.09c0.543,0,0.993,0.09,1.354,0.181c0.361,0.181,0.632,0.36,0.812,0.633
		c0.182,0.271,0.36,0.632,0.36,0.991l-0.993,0.181c-0.092-0.36-0.271-0.63-0.451-0.812c-0.271-0.181-0.541-0.271-0.992-0.271
		c-0.541,0-0.901,0.091-1.084,0.271c-0.27,0.183-0.359,0.362-0.359,0.542c0,0.182,0.091,0.271,0.182,0.45
		c0.09,0.091,0.18,0.182,0.36,0.271c0.181,0,0.45,0.089,0.991,0.271c0.812,0.181,1.354,0.36,1.625,0.541
		c0.361,0.091,0.543,0.271,0.723,0.541c0.18,0.271,0.27,0.541,0.27,0.902c0,0.449-0.09,0.723-0.27,1.084
		c-0.271,0.359-0.542,0.54-0.993,0.721c-0.36,0.182-0.812,0.271-1.354,0.271c-0.812,0-1.442-0.181-1.895-0.54
		C257.268,125.991,256.998,125.45,256.818,124.728z"/>
	<path d="M234.713,180.849l1.081-0.092c0.093,0.451,0.181,0.812,0.452,1.083c0.18,0.271,0.451,0.541,0.9,0.723
		c0.362,0.18,0.812,0.271,1.354,0.271c0.451,0,0.812-0.091,1.172-0.18c0.36-0.183,0.632-0.36,0.812-0.543
		c0.183-0.271,0.183-0.54,0.183-0.812c0-0.271,0-0.542-0.183-0.723c-0.18-0.18-0.451-0.36-0.812-0.54
		c-0.271-0.091-0.812-0.271-1.624-0.452s-1.354-0.359-1.715-0.542c-0.449-0.27-0.719-0.541-0.99-0.812
		c-0.181-0.361-0.271-0.723-0.271-1.173c0-0.451,0.092-0.812,0.361-1.265c0.271-0.359,0.631-0.632,1.174-0.9
		c0.449-0.181,0.99-0.271,1.625-0.271c0.629,0,1.262,0.092,1.713,0.361c0.541,0.18,0.902,0.451,1.174,0.901
		c0.27,0.452,0.449,0.903,0.449,1.444l-1.082,0.089c-0.09-0.63-0.271-0.992-0.631-1.353c-0.361-0.271-0.902-0.36-1.623-0.36
		c-0.724,0-1.176,0.089-1.535,0.36c-0.362,0.271-0.543,0.541-0.543,0.9c0,0.362,0.181,0.634,0.361,0.812
		c0.271,0.272,0.812,0.452,1.805,0.634c0.992,0.271,1.625,0.451,1.984,0.63c0.543,0.183,0.903,0.542,1.174,0.903
		c0.271,0.36,0.359,0.812,0.359,1.263c0,0.45-0.088,0.901-0.359,1.354c-0.271,0.451-0.723,0.721-1.174,0.993
		c-0.541,0.179-1.173,0.359-1.804,0.359c-0.812,0-1.444-0.182-1.985-0.359c-0.541-0.272-0.992-0.634-1.353-1.086
		C234.893,182.021,234.713,181.48,234.713,180.849z"/>
	<path d="M247.616,182.923c-0.453,0.36-0.813,0.634-1.175,0.724c-0.27,0.089-0.451,0.18-0.631,0.18v-0.812
		c0.271-0.092,0.541-0.182,0.812-0.271c0.271-0.18,0.541-0.449,0.724-0.721c0.09-0.271,0.18-0.632,0.18-1.173v-0.36
		c-0.449,0.179-0.991,0.27-1.713,0.36v-0.902c0.722-0.09,1.264-0.181,1.713-0.361c0-0.091,0-0.182,0-0.271
		c0-0.45-0.18-0.723-0.361-0.901c-0.27-0.271-0.721-0.359-1.262-0.359h-0.09v-0.994c0.09,0,0.179,0,0.27,0
		c0.541,0,0.994,0.091,1.354,0.271c0.36,0.089,0.633,0.271,0.724,0.449c0.18,0.182,0.36,0.452,0.36,0.723
		c0.088,0.182,0.088,0.541,0.088,1.083v1.444c0,0.992,0,1.624,0.092,1.894c0,0.271,0.092,0.542,0.271,0.812h-1.175
		C247.705,183.556,247.616,183.283,247.616,182.923z M245.811,183.825c-0.182,0-0.451,0.091-0.633,0.091
		c-0.721,0-1.264-0.182-1.623-0.542c-0.361-0.359-0.633-0.812-0.633-1.353c0-0.271,0.092-0.632,0.271-0.903
		c0.091-0.27,0.359-0.451,0.541-0.63c0.271-0.091,0.539-0.271,0.812-0.362c0.18,0,0.54-0.089,0.99-0.089l0.271-0.091v0.902
		l-0.09,0.09c-0.451,0-0.812,0.091-0.994,0.18c-0.179,0.091-0.36,0.182-0.451,0.362c-0.09,0.179-0.18,0.359-0.18,0.541
		c0,0.271,0.18,0.541,0.361,0.721c0.27,0.181,0.542,0.271,0.992,0.271c0.089,0,0.271,0,0.361,0v0.812H245.811z M245.811,178.052
		c-0.451,0-0.812,0.09-0.992,0.271c-0.271,0.18-0.452,0.451-0.633,0.902l-0.992-0.092c0.092-0.541,0.183-0.901,0.451-1.173
		c0.182-0.271,0.541-0.451,0.992-0.631c0.362-0.09,0.723-0.181,1.174-0.271V178.052z"/>
	<path d="M254.561,181.39l1.086,0.091c-0.092,0.721-0.453,1.353-0.902,1.803c-0.543,0.362-1.084,0.633-1.807,0.633
		c-0.901,0-1.623-0.359-2.164-0.901c-0.541-0.543-0.812-1.443-0.812-2.525c0-0.632,0.092-1.264,0.359-1.806
		c0.271-0.541,0.543-0.903,1.084-1.174c0.451-0.27,0.994-0.45,1.533-0.45c0.723,0,1.264,0.182,1.715,0.542
		c0.451,0.359,0.722,0.9,0.902,1.532l-1.082,0.182c-0.091-0.45-0.271-0.723-0.543-0.992c-0.271-0.181-0.632-0.361-0.992-0.361
		c-0.539,0-0.992,0.271-1.354,0.633c-0.27,0.36-0.451,0.991-0.451,1.896c0,0.901,0.092,1.533,0.451,1.894
		c0.359,0.361,0.812,0.633,1.354,0.633c0.451,0,0.723-0.182,1.084-0.451C254.292,182.293,254.473,181.931,254.561,181.39z"/>
	<path d="M256.545,183.734v-6.494h0.994v0.991c0.27-0.452,0.451-0.812,0.723-0.901c0.18-0.181,0.45-0.271,0.721-0.271
		c0.363,0,0.723,0.182,1.082,0.359l-0.359,1.083c-0.271-0.18-0.541-0.271-0.812-0.271c-0.27,0-0.451,0.091-0.629,0.182
		c-0.183,0.18-0.363,0.36-0.453,0.63c-0.09,0.36-0.18,0.813-0.18,1.265v3.428L256.545,183.734L256.545,183.734z"/>
	<path d="M265.027,183.734v-0.992c-0.541,0.813-1.262,1.174-2.074,1.174c-0.359,0-0.723-0.091-1.082-0.271
		c-0.359-0.09-0.542-0.271-0.721-0.541c-0.183-0.183-0.273-0.451-0.362-0.812c-0.091-0.183-0.091-0.543-0.091-0.993v-4.06h1.084
		v3.608c0,0.541,0.09,0.991,0.09,1.173c0.091,0.271,0.27,0.541,0.451,0.632c0.271,0.18,0.541,0.27,0.812,0.27
		c0.36,0,0.633-0.09,0.992-0.27c0.27-0.184,0.45-0.36,0.542-0.632c0.179-0.362,0.179-0.723,0.179-1.265v-3.518h1.174v6.494h-0.994
		V183.734z"/>
	<path d="M267.734,183.734v-6.494h0.992v0.901c0.183-0.271,0.451-0.541,0.812-0.724c0.271-0.27,0.723-0.359,1.172-0.359
		c0.452,0,0.812,0.182,1.176,0.359c0.27,0.183,0.448,0.451,0.631,0.812c0.541-0.723,1.172-1.173,1.984-1.173
		c0.631,0,1.172,0.182,1.534,0.542c0.271,0.359,0.45,0.9,0.45,1.714v4.42h-1.084v-4.059c0-0.451,0-0.812-0.09-0.993
		s-0.181-0.36-0.359-0.451c-0.182-0.09-0.451-0.18-0.721-0.18c-0.453,0-0.812,0.18-1.086,0.449
		c-0.358,0.271-0.449,0.812-0.449,1.444v3.788h-1.084v-4.24c0-0.451-0.09-0.812-0.271-1.081c-0.18-0.271-0.54-0.36-0.901-0.36
		s-0.631,0.09-0.901,0.271c-0.271,0.18-0.45,0.36-0.541,0.721c-0.09,0.271-0.183,0.724-0.183,1.354v3.337L267.734,183.734
		L267.734,183.734z"/>
	<line fill="none" stroke="#000000" stroke-width="0.37" x1="230.02" y1="29.721" x2="78.443" y2="39.465"/>
	<line fill="none" stroke="#000000" stroke-width="0.37" x1="229.479" y1="74.292" x2="141.961" y2="94.683"/>
	<line fill="none" stroke="#000000" stroke-width="0.37" x1="230.02" y1="122.924" x2="119.676" y2="121.119"/>
	<line fill="none" stroke="#000000" stroke-width="0.37" x1="230.02" y1="180.037" x2="129.42" y2="164.247"/>
</g>
</svg>
