<?xml version="1.0" encoding="utf-8"?>
<!-- Generator: Adobe Illustrator 15.0.2, SVG Export Plug-In . SVG Version: 6.00 Build 0)  -->
<!DOCTYPE svg PUBLIC "-//W3C//DTD SVG 1.1//EN" "http://www.w3.org/Graphics/SVG/1.1/DTD/svg11.dtd">
<svg version="1.1" id="Layer_7" xmlns="http://www.w3.org/2000/svg" xmlns:xlink="http://www.w3.org/1999/xlink" x="0px" y="0px"
	 width="411.023px" height="223.391px" viewBox="-42.431 -39.536 411.023 223.391"
	 enable-background="new -42.431 -39.536 411.023 223.391" xml:space="preserve">
<metadata><?xpacket begin="﻿" id="W5M0MpCehiHzreSzNTczkc9d"?>
<x:xmpmeta xmlns:x="adobe:ns:meta/" x:xmptk="Adobe XMP Core 5.0-c060 61.134777, 2010/02/12-17:32:00        ">
   <rdf:RDF xmlns:rdf="http://www.w3.org/1999/02/22-rdf-syntax-ns#">
      <rdf:Description rdf:about=""
            xmlns:dc="http://purl.org/dc/elements/1.1/">
         <dc:format>image/svg+xml</dc:format>
         <dc:title>
            <rdf:Alt>
               <rdf:li xml:lang="x-default">8B-7</rdf:li>
            </rdf:Alt>
         </dc:title>
      </rdf:Description>
      <rdf:Description rdf:about=""
            xmlns:xmp="http://ns.adobe.com/xap/1.0/"
            xmlns:xmpGImg="http://ns.adobe.com/xap/1.0/g/img/">
         <xmp:CreatorTool>Adobe Illustrator CS5.1</xmp:CreatorTool>
         <xmp:CreateDate>2015-02-12T17:06:26+02:00</xmp:CreateDate>
         <xmp:ModifyDate>2015-02-12T17:06:26+02:00</xmp:ModifyDate>
         <xmp:MetadataDate>2015-02-12T17:06:26+02:00</xmp:MetadataDate>
         <xmp:Thumbnails>
            <rdf:Alt>
               <rdf:li rdf:parseType="Resource">
                  <xmpGImg:width>256</xmpGImg:width>
                  <xmpGImg:height>140</xmpGImg:height>
                  <xmpGImg:format>JPEG</xmpGImg:format>
                  <xmpGImg:image>/9j/4AAQSkZJRgABAgEASABIAAD/7QAsUGhvdG9zaG9wIDMuMAA4QklNA+0AAAAAABAASAAAAAEA&#xA;AQBIAAAAAQAB/+4ADkFkb2JlAGTAAAAAAf/bAIQABgQEBAUEBgUFBgkGBQYJCwgGBggLDAoKCwoK&#xA;DBAMDAwMDAwQDA4PEA8ODBMTFBQTExwbGxscHx8fHx8fHx8fHwEHBwcNDA0YEBAYGhURFRofHx8f&#xA;Hx8fHx8fHx8fHx8fHx8fHx8fHx8fHx8fHx8fHx8fHx8fHx8fHx8fHx8fHx8f/8AAEQgAjAEAAwER&#xA;AAIRAQMRAf/EAaIAAAAHAQEBAQEAAAAAAAAAAAQFAwIGAQAHCAkKCwEAAgIDAQEBAQEAAAAAAAAA&#xA;AQACAwQFBgcICQoLEAACAQMDAgQCBgcDBAIGAnMBAgMRBAAFIRIxQVEGE2EicYEUMpGhBxWxQiPB&#xA;UtHhMxZi8CRygvElQzRTkqKyY3PCNUQnk6OzNhdUZHTD0uIIJoMJChgZhJRFRqS0VtNVKBry4/PE&#xA;1OT0ZXWFlaW1xdXl9WZ2hpamtsbW5vY3R1dnd4eXp7fH1+f3OEhYaHiImKi4yNjo+Ck5SVlpeYmZ&#xA;qbnJ2en5KjpKWmp6ipqqusra6voRAAICAQIDBQUEBQYECAMDbQEAAhEDBCESMUEFURNhIgZxgZEy&#xA;obHwFMHR4SNCFVJicvEzJDRDghaSUyWiY7LCB3PSNeJEgxdUkwgJChgZJjZFGidkdFU38qOzwygp&#xA;0+PzhJSktMTU5PRldYWVpbXF1eX1RlZmdoaWprbG1ub2R1dnd4eXp7fH1+f3OEhYaHiImKi4yNjo&#xA;+DlJWWl5iZmpucnZ6fkqOkpaanqKmqq6ytrq+v/aAAwDAQACEQMRAD8A9U4q7FXYq7FXYq7FXYq7&#xA;FXYq7FXYq7FXYqknmHzv5P8ALgH6d1mz052p6cM8yLK9egSKvqOT/kqcVSL/AJWgb7by15Y1rWw3&#xA;93c/Vf0fan39bUWtar7orYq4Xv5z6h8UGmaHoMRNB9cubnUpqeJjt0tI/oEpxVv/AAf+Yt1Qah58&#xA;mgQ/bTStNs7Wor0DXQv2Hzrirf8Ayqy2lFL7zP5kvfGuqTWwO1NxZC1H+fyxV3/Kmfy8b+/sLm6r&#xA;1+tajqFzWnY+tcSVHscVb/5Ur+VBNZPK9jOexnj9an+r6hen0Yqm3l38v/JHlq6lu9A0Oy0u5mT0&#xA;pZrWFImZKhuJKgbVAOKp/irsVdirsVdirsVdirsVdirsVdirsVdirsVed+ffPevaD5v0bTbIQGyv&#xA;GtBcJIIzI6z3q28wjVpopWZYmLL6aPQ7sOOKsQj/AOcitTOmyxHRYBqMVrETeTXTQ24uGtZJX9ZD&#xA;A7RcpYhHClW9RnRaryriqNn/AD81Gzm1B59EjuLe1e3tkiiueMqys98son5xgRTyCzjMNvvyDqef&#xA;xbKvTvK+tahq2hpql/YrYGUu0NvHK1yxhUkIzfuoiHYCvAA08TiqNGraXTe7hU91Z1Vh7FWIIPsc&#xA;VRMUsUqCSJ1kjb7LqQQfkRiq7FUt1/zL5f8AL1g1/rmo2+m2a7etcyLGCf5Vqas3sN8VYr/j7zRr&#xA;vw+S/LU01u2y63rZfTbKm9HjhZXvJgabfulH+Viq8eQfM+sfH5t813c8Tj49K0UHSrOh6oZI2kvH&#xA;Hb+/FfDFU68u+QfJflw89E0a1spz9u6SMNcP/rzvylf/AGTHFU/xV2KuxV2KuxV2KuxV2KuxV2Ku&#xA;xV2KuxV2KuxV2KuxV2KuxV2KuxV2KuxV2KuxV2KoeXTtPlcyS2sMkjfado1JPzJGKvPb7WNY80an&#xA;c6L5A46fYWchh1XzW3M20cq7NDYW6MkdzOp2d2/dp0PI/Diqb6J+VPlvS75NVea61PzAoo+uam6X&#xA;l2T1+BpkdIQOywqgxVlP1a+TeO8LnuJ40ZfoEYhNfpxV5z+b11+aunto2o+VL6wtLazkkfV7q/Ih&#xA;sjE/BEilj5zTSFm+z6S8uy7tTFUK2sfmb52eDQYCvlRVRH1+8tC0l3HE4DKI2lRDbSTrvHEyGVFP&#xA;NylFWRV6bouj6fo2lW2l6fGYrO0ThEpZnbxLM7EszMSSzE1J3OKo3FXYq7FXYq7FXYq7FXYq7FXY&#xA;q7FXYq7FXYq7FXYq7FXiuk+RPzB8u3kNtpki2UOp3sEV9JbH1ibfjOb2eSVYYFVwDGYJJQ0paqu7&#xA;UXFUX/hL83bLTbEy6xc6jdOLSLUIY7z06tTTzcMkvpVQGRL34qfZZR4cVUJH5O/OLR7GNodZabVd&#xA;QlCXckRaaD6zcCKB7kx8I1jSONp5+w5rGKdsVav/ACJ+eDXN1Na63CSgvU0+aS4YzrHPcWckStJ6&#xA;Ktx4W78gjR9tvFVknmPSPzQuvMkR0i8+r2tvpdt60jXBS2luyt6s0axiFyWaQ27eptxC9NyCqlf+&#xA;C/zXm1ie+kvYYEur6K7nh+tGWL0Y7sSJCiPbEB441TjL/k04+KrNPy/03zjp/lhbTzPeR3errJIU&#xA;uFZ5h6Zpw5luLMa17/d9kKp76eq/8tEH/Ih/+q2KsK/Mq88xTppflDTL9LbUvNM0ls95BEyS21hA&#xA;nqXtwjGRqOEKxp/lOuKsC0TUPzo8junl1bLSZNLvbubTvJWkShUvhEnNo5pfqZMIghjpJOzEv78m&#xA;rirMNT/KfT20C/1PXtWvtQ81LbyzjzB9Znt/qsyoXVrOCF1igjjbcIFNR9otirJvLnmmv5caP5n1&#xA;xvRefSrS+vyFNfVmgR2VUAqWZ24qoFSdhiqRaiNYlmsdS1CBZPM+oStH5Y0SajwaahWsl3cKjESS&#xA;wx/FLJXYkRRkc+Tqsy0DQ7XRdNSygZpW5NLdXUlDLPPIeUs8pAFXdtz27CgAGKpjirsVdirsVdir&#xA;sVdirsVdirsVdirsVdirsVdirsVdirsVdirsVdirsVdirsVdirsVYRGguPzruGff9G+W4PQrvQ39&#xA;9N6pA7f7wpiqzy/ENX/NPzNq837xPL8Ntoem91RpoUv7xh/lP60KH/Upiq381tQmvdPt/IumSEa1&#xA;5t5WjMnW204U+v3T7GgWEmNK9XZQMVTGayt7/wA0WOixxhdI8tW8N60Arxa5cvFZJ4EQJDJJxP7R&#xA;jbqBiqt5ch+v69rOu3ArNHM2lWCnf0ra1I9Sng01xyZiOqhAfsjFWS4q7FXYq7FXYq7FXYq7FXYq&#xA;7FXYq7FXYq7FXYq7FXYq7FXYq7FXYq7FXYq7FXYq7FXYq8/843g8p+drHzpdKx8v3dl+htduEUsL&#xA;TjMZ7O6lpX9yrySxu37PMHpXFV82hecbbXNT13yTqGlT6d5kEFzcR34mkSO4igW3FzbvbNSRJIY4&#xA;6oabrUNviqbeUPJMehT3erajevrHmXUaDUdZmURn00JKW8EYLCCCOp4oCd92JOKu8oXUM1nrHmWa&#xA;RYrHVbuS8tp3YBBY28KW8MvI0AjlS39cez4qt8o3tumlat5huXWx0rUryXULZ7giJUtBFHEszl6c&#xA;Vm9EzDl0VxWnTFUF5R/MG685a1JP5esg/ku09SGTXrjmhvLlTQCxjp8UUZBDyvQE7L0JxVlVhrOl&#xA;ajNew2N1HcyadMbW+WJg3pThVcxuRsGCuKjtiqMxV2KuxV2KuxV2KuxV2KuxV2KuxV2KuxV2KuxV&#xA;2KuxV2KuxV2KoDVtf0TR40fVL6GzEp4wrK4V5GpXjGn2nb/JUE4qlK+ada1AH9BaBcSofsXmqE6Z&#xA;bsO/wOkt4D87YD3xVeNJ86Xe99r0dgp3EelWkYdT4Ga9N2r/ADEK/LFXf4NJHJ9d1d56g+t9aCbi&#xA;n+60RIe3ThirhoHmm3H+ieZ5p6DYajaWs4r/ANGyWLU+mvv4Kue18/KhD3mkXyMCGhNnc2oIO1C3&#xA;1m7rUf5OKsHl/L3WNMne50LTrzy48hMjQ+VdUhktmkO/J9P1SG2s1368APniqR+abL82L6z+o3Pm&#xA;C6NlIGS5sLvy/MfVUigWWfSHu1cb7rxEbdGDKaYqoWw18RxQ6jDpbmFgWudam8w3MIkUgrI2m3Fr&#xA;aWsZFAV4lQKDjQUxVLfzN0yw1nT9MfzL5ouvNlu1/E2r2OnKlpBBZojyE21kHT1HeVUjaSWWRlRm&#xA;KivRVG+aPzvtH0fT9G8pCLyv5blnh0251yWS2+s2dqynk9pp9u80qBVXiJZFUKSNv2gqzHQvPXkn&#xA;SdItvLf5Y2TeaLmIUSGwatsjMavPfag4MSFjVmJLSMeinFUwvLj87dPspNYkGh6iLdWlm8u2kN2k&#xA;0ka/EUgvpJSGmpsvK3Ck+HXFWZaBren67olhrWnSepYajBHc2znY8JVDAMBWjCtCOxxVH4q7FXYq&#xA;7FXYq7FXYq7FXYq7FXYq7FXYq7FXYq7FUj1LzjpFpfPplsJNU1lAGbS7BRLMgb7JmYlYrdW7NM6A&#xA;9jiqFFh5z1chtQvU0GyO/wBR07jPdMPCW7lTglehWKKo/Zk74qmOkeVtA0iV57KzUXkoCzX8pae7&#xA;kA3AluZi8z0rtyY4qmuKuxV2KuxV2KuxV2KuxV2KoK4iF1dyWszMLcQq3pqSnMuzq3IijUAUbA99&#xA;8VYX5i8t6ToWp6bqekoLHUJr2zid7ZY4TMkt/bQSxzCJU9dfQmk/veXH7QoRXFXoOKsI/J5RD5Su&#xA;bBaGLTdZ1qzgI2Hpw6pcBKDegC7D2xVm+KtO6RoXkYIiirMxoAPEk4qo2d/Y3sZlsrmK5iBKl4XW&#xA;RQw6iqkiuKq+KuxV2KuxV2KuxV2KuxV2KuxV2KuxVi7aP5n13l+nLs6TpzH4dK0uV1ndfC4vgEkF&#xA;e6wBKH/djjFU80nR9K0iyWy0u0isrRCWEMCBF5NuzGnVmO5Y7nviqMxV2KuxV2KuxV2KuxVhGq+Q&#xA;dan1C5u7LXpxFcSNN9XuLjVKozsSUja1v7WFI1/YX0DTuTiqF/wj+YkJ/wBG1yh2If6zKaEf5FzD&#xA;eg/fT2xV36J/OGIfudUt7hhX4rm6g4HwPCHSImHuOZ+eKu4fn4pojeWGTsZjfs/yrGkS/wDC4qpX&#xA;Nt+fE3H1I/Kj8akOp1JZF2/YYUIJ/wBYYqoaXZ+df0nFqWp6RFq99Zs31YW9wttaxSFWjaVfVWWS&#xA;WXizJyed+IqFC1NVWS23naaO7S21vR7nSvUkjhF4zRzWolmYpEjSIRIvNxxV2jCFqDlUgYqk/wCW&#xA;Op21t5SvdQkqyajr+uSWcMY5ySc9VueKqo6n4CfCm9aYqovr/n3zR5j1fy9pEtt5Vg0ZoFvbqdRe&#xA;6k63MSzRvBDUW0aEck9Rmk+JWHHbFUdD+Tnk2VxP5gF15puxuZ9cuHvE/wBjbHjaoPZIhiqW+Y9E&#xA;0ryH5h0fzXoVnBpej3E8WkeZrO1jSC3aC6cR2t2yIFQPb3DIvOleDsK0GKvSsVdirsVdirsVdirs&#xA;VdirsVdirsVdirsVdirsVdirsVdirsVdirsVdirsVdirsVdiqR3HmPQ9BgW21a9itFt1CJLI60ZV&#xA;XYmhJU8aV5Ae1cVea/mR+aujasieW/JLr5h8y6iqxW9vagvEiidHeaeUfDGkQiNWr8JavY4ql35e&#xA;eVPOk/k628z6DrMrXmmCSHy1psnBbC/tImpcS3CuvNX1KZJJVkDAoCnYGqrINU1mDWrC0/M7ypby&#xA;HzB5eD2nmHRCCt1JZoeV7p08ex9eBv3sNf2htUPir03StUsNW0y11PTplubC9iSe1nT7LxyKGVh9&#xA;BxVC+avL9r5i8tapoV1tBqdrLau3dfVQqHHupPIe+Kpb+WmvXOveRNG1G8r+kTALfUgeovLVjb3Q&#xA;/wCR0T4qybFXYq7FXYq7FXYq7FXYq7FXYq7FXYq7FXYq7FXYq7FXYq7FWD/mFp/5Z6To99rfmDRt&#xA;OknmDcZHhhjuZ5+JKhJyFdX+GvqchwA5llCkhVhfl2OXVNE0+z8p+XZtUEFrDFc+Z9QvLzTNMmmW&#xA;MCSa3jBa4uFdwzckiVT/ADYqma/k75qv/j1XzHbWwYUNpYWTzxpvvR9SnvQxp39MfKmxVXj/AJx9&#xA;0kkyya3ObmtUZNL0BItqU5RDTqN9+Ktn8iVXePWoHPf19B0J6f6vp2cP41xVpvyIEoKza1bopBH7&#xA;jQdDQmviZLSb8KYqjLH8gfJkDf6Vealex/tQfWFsYm3r8Uemx2Kn5EYqp/mPYeWPIX5Wa/D5b0+z&#xA;0q71G0ms7NYQsEk1xNE45GRVLySRpzk+L+XqOuKoeP8A5xz8j2nm3y75k0sNYy6EqrJaKFeCdooD&#xA;HDOI35LHMj8H5AUNK05fFiqb+avJPmSHVn82eT57eDzOIwl3DIGjtdShiB4QXaAsDIOkc6lWTpuu&#xA;2KsQ8jecdQ0qI6h5b0a41XyVqha8k0mBoY7jRr2Vq3NtHJO8NrLE03I+mJVaMk/DQjFWaf4x/MXU&#xA;VX9C+SXtY5RWK81rULSCMA9GMdk1/IR7bfPFU38h+WLzy9oktvfXEdzqN9eXWpX7wIY4FuL2ZppE&#xA;gRizCNWag5Gp6nrirI8VdirsVdirsVdirsVdirsVdirsVdirsVdirsVdirsVQOra7oujwpNq1/b2&#xA;EUjcI3uZUiDvSvFOZHJvYb4qxbX/AMxrpLWNfLej3GoXV3OlpZ3d4j2NkJpKkMWmVZpURFaRjFGy&#xA;8VPxDFWHeTPJEHn3Wz528yTSavosLtFoMF0oEd4I33vWg+xHbs6/6PBSnECR+bnlir2gAAUGwHQY&#xA;q7FVrSRp9tgtAWNSB8K9T8hXFUL9fac+nZoTIAGYzJJGoU1p9oAnkRTbp17UKqjO+pLT97S5kr/o&#xA;sSiQBa9VkcJQ0/afbwUnFUVY288MTCaQyO7c6EluNQBxBPXcV6D2AxV5/wDmBDpnm3yLqV+J4rS2&#xA;niNhoupXSBBHLPciA3QdpGRoJWEfA8FPEEglXGKoq3/NRdKVIPPmlz+WrjZTqVGutIlJpRo76IFY&#xA;w3UCcIRiqF89/mTcs2l+XvJHHUdb8zBk03V4Xjks7ZFr6lyXAdZvRVSzKvTYMQXQMqzLyl5Y03yt&#xA;5a07y/pqkWenQrCjGnJ2G7yPT9uRyXb3OKo19OtC7OiejIxLNJCTGzE71bgRy/2VcVbjhvI3H+k+&#xA;rF1YSoOf0MnBQP8AYn54qw782NP81XmlWY8vfXjcRSySPHYymHmwiYRLKyXNlIF50owdlBpzjda0&#xA;VY9FrX55tqd4k2ktBp6XHG2eMWdxIUH1oIBymt14OVtubE1+I0p8XBV31v8AOuTWNFs7u1kbTZTp&#xA;s+p3cP1eL029eGe6jIRw/GNQ8RoTzXqu9WVR9xq35q3fmzUbTS4eGjW908QuZooVQKkUEkSxMWLu&#xA;JGaVZWZPh+HjXfFUFaX3553QX1IvqMayRJ+8gtWlZZIlM7uElkRfSm5qnEnkvEnvVVc2p/npPDPS&#xA;yjs5wJpAfTt3SqQXjW8UP712ZZHjtfVMlCrMVXbdVVGwn/O+CU2PpySR/WLhDfTpbOBbvczlZg3q&#xA;cmkVTDwj4cfTrvyFAqzD8vdX8yarbalPrDRvBbXktjp08ShRcxWrshujSlDK3wlRsCppirLMVdir&#xA;sVdirsVdirsVdirsVUrma1t4nurmRIYYFLSTyEKqKBViWagA8cVeP/mTqmoeb7jSNK0PnHaatNLY&#xA;aXdtyjMwlhb9IX0RKkrFDY+rDHLT43mqooAWVenaVdWVjp0Fgto1ilkiW0VnErSIixqFSONlXei0&#xA;oNjTfpviqrcT6o6M68LG3CkmVwZpd6BQsYKgN12+LtsdwFVMrY+g8txPdIiPwERlkDIaV4/uW5Pt&#xA;8VWLUHgBsqq2ttpVyXkimW94so5mQS8OAJVOQNf2yfi3Nd9sVXfpT1uCWicpnY0WSqj0wCwl25fA&#xA;9KK3ifHbFURbwmFHkmcPM/xSy04ig6AAk0VR7+/fFWFefvzCsPLUI1HWWltfKsayJcXMMN211Ndx&#xA;yMggiMIT0FUxljJI1JBsvw1OKsQi88eWfzR1PTLu4tXTyPoFtJrOrxahDzje4k9WCzjnVfUj4RwL&#xA;JcNUkbp3BxVFt5Q1aPTJB+XGt3+g6Lcx8otJvrW6mtTydg6W6zQ/WbJWVaqyMVo1VQHfFUx/KFfL&#xA;N5Yy+crfy1b6FqeqcrWWOytS9FtZWilPrxRLz9WdGbl+0oSu4xV6L+k7b+Sf/pHn/wCaMVd+k7b+&#xA;Sf8A6R5/+aMVcNStyQAk9TtvbzgfeUxVB+YfNWh+XooZNVmkjFwzrCkME9zI3poZZG9O3SVwqIpL&#xA;MRQdziqmnnbye0TSnWrKNFaRGMs8cRBhmNvJs5U0Ey8K9CenXFW7nzj5XtUL3WpQwUkERjlJSQE3&#xA;P1QN6bAP6fr/AA+pTh+1XjviqpF5r8tS293cpqlr9VsHjju7lpUWKNpY0ljrIxCUdJkIINDXxxVe&#xA;3mXy4pmDarZqbd44rgG4iBjkm/u0f4vhZ/2QevbFVQa9oZhknGo2pgiYpLL60fBWWpZWatARwao9&#xA;jiqrYappmoxGXT7uG8iUgNJbyJKoLKGAJQkbqwPyxVE4q7FXYq7FWM/4m8yagXfQNAMtsgPC61ed&#xA;9MSUjoIovQurile8kSDuOWKutfPmmRSLaeY1/wAO6mSFFvfOqwSk9DbXW0M1f5QeY/aVcVRs3nTy&#xA;dAnOfXdOiStOT3cCivhUviqH/wCVheSG/wB59atb09eNk/1tvH7Nv6pxV3+M45jTTtF1a/fuv1N7&#xA;Lp/laibJfxxVTab8wNQBWG3sNChPSa4d9QuKf8YIvq0SN7+s49sVX23knTmnju9auJ9evYyHjkv2&#xA;VoY3XcNFaxrHbIQejCPn/lHFUpslOp/nHqdxIKxeXNHtrS1U0IE2qTSTXDr4fu7SFa/PFWWy2dx6&#xA;0r204gWcD1aIGYMBx5oSeIbjQfErDYbYq6LTYTILi5VJ7wGvr8KUAoQqAliqgitK9d+uKtCCzs3a&#xA;aWfiv72RBKyhU5EySlenzNSaDpQYqgpdY8q3UD3v1+3uYI0k9RoZhKrLbkeoGSNm9T0y4qKGlffF&#xA;V/6cnu9MN3o1jLdySJytkuhJYo5EnAhzMnqoP2q+karutajFVDUtItdQ00S+amhNnbqtzdWnqMtk&#xA;jRKxk9Vm9MTRCvKkq8fhBpiqReafzHltdaXypomiXGqeY7tSbaG5H1ayMSkCeaaVuUghjU/bERV2&#xA;+BSTWiryy1Tzb+Weu3l9qMVjaPe3H1mX1YFg8v3TlDGrWl5bxKdLuBH+7ZblGV/tFySTirK/NX5v&#xA;T6n5dl0q0s7ry1qF/HHHda5qElvHYWNtcA87qK+SV4Z29IMYBGxZmoaAYq9S8vaZpWl6Fp+naTEI&#xA;dMtLeKKzjAIpEqAJWtDWnWu9euKphirsVdirG/PPkWw84WEVle3MtvHCxYemlvKpLClSlzFOgdes&#xA;cigMjbg9aqsc1X8j9C1KzubWXVL9BO/JJlaIzIjPeO8ZkaMs6s2pyn4u/GtaEFVAxfkdGnmaO7bU&#xA;PV0QXH1+e2eONppbr6wJ6MxTaM8eJAanH9nl8eKp7L+U+kSeW7/y+L+6jsr6W2uAyeiHhltY4ola&#xA;JvTPHktule46qRiqUQ/kHoUV1NcjWtTkllYsrzm1nZeaXEbj99A6Hkl7Ku67bHrUlVMZ/wAndFml&#xA;tK390LS19FmsQsHoyyQLMokkrHzLMtywPxU9sVT3yh5J0vytFPFYO7LOEEgYIN0aRuXwBdz6tPoG&#xA;KshxV2KuxV2KuxVp0SRCkih0YUZWFQR4EHFVGGwsYH9SG2iifpyRFU0PuBiqvirsVdirsVYJpUq6&#xA;X+cGu2NxRB5j06z1DTmOwkewL211GCerojwtQfsnFWd4q7FXk7fmhp/mT0L6z0PzKtvaXE0dtqGm&#xA;W9teQyojmKVJoQ9xw5hKcZYlkUH4SK4qjR+bfluGXjPrkHl+3sXjN9Y65pV5Y3HpTyOYViM0lsq1&#xA;jjZFbg+6lqdsVWj83/J814lyvmwSWNtDLNNHZ6bcejcfV0knk4XLpMjBYF5FI25UVmrStFVO21vz&#xA;Jq1zb6r5Z8k3M18bcRwa/wCaLmOzjRSgAeOCI3U49Qbvwij5d8VSjyp5vl0zV77zrrljdT6br6R2&#xA;epajFCZ5NIvtLkltriymhgDyLa+opaORQfiJL/aBCrIj5481ecYpLbyVoXpaTODG3mXXo2htWRqq&#xA;Wt7E0uLgEdOfpr4nFUHcf843flhfeVdO0PUrAz3Onw+mmsQn6tdFy3N3/d/BQsTRGUqo2HQYq9Fh&#xA;0XTY4Y43t4pnRQrTPFEGcgULNwVVqepoAPbFV/6J0r/lig/5FJ/TFXfonSv+WKD/AJFJ/TFW10vT&#xA;FYMtpCrKaqwjQEEdxtirEvzI8n+YfME2k3Gh3y2F3pf1qaKZmYIZpIeEaSIv24pN0k8FNRvTFWMa&#xA;T5G/NyC1srCfWxDa2kCpI1vcmrtFautusYMIMaJKI1l+I+pu23TFWtW8l/nRHp08OjeYTJPK8gWS&#xA;8uWJWMRsIGVkjVg3qPyfelANmA4lVkK6T5/Hk7VdLs2Sy1+K6lvNN1FpQ0M7T30l4YnAXkqem3pP&#xA;8Pf4emKsU1LyF+eV3aizn8w215az2kttdo7NGS6rNCknwpSsyC3kb+WTnSg+2qyC58qfmbHYaVaW&#xA;OqwRwW0MkUkULvbOkrPCUmlmZboXCoizD0xHHXmO45BVLk8p/nVL+kb19cS1v1itxo9t9Yaa1EgC&#xA;pcm4X0k5VXky+DYqgPMPkH869Q0vX9KbXIbqxvhPBYgXMlvIYZIrqOFpX9GT7Ilg9VFpz4netWkV&#xA;ZB5y8vfmxdeYr668u6nFDpM1vDHDbTTyKVkWWIyFFjROFUST9qpr9sfZCqVQ+TfzpmsbSC98wFbw&#xA;Ipvr2G7Kq8iaZLGgSFbdeIW/KO5DfGu5Fdgqvbyj+ct5Pf3M+uGx9SOlhbW91yRH9G9+2WhAP79r&#xA;M1p9lWH+sq9axV2KuxV2KuxV2KuxVIPOXlGDzHZQcLh9P1fTpfrWjatCAZbW5ClQ3E7PG6krJG2z&#xA;Lt4EKpJo35jyWN5DoPn2CPQNfciO2vOR/Rd+381ncvsrNT+5lIkHbl1xVnWKsP1r8qvKWpalLrFs&#xA;lxomuzby6vo872Vw5JqTKIz6UxPf1UbFWM3P5Pa3p2t2HmHQ9Ui1bWbS4a4uJvMIlmluB6D28StP&#xA;CQqCFZWMYSEAFie+Kqus+RPzD83X1uPNkmjRaTaw3sKWentdmRzqFm9lIzyyBAOMU8nHinfriqLs&#xA;fyw85Q+mkn5ja19WjUKsMcWnhgF2A9RrZq7f5OKp95Z/Lry9oFj9VVrnU3M8t3Lc6lKbiSS4mf1H&#xA;mZaLFzLftKgxVlGKuxVSurq1tLd7m6mS3t4hylmlYIijxZmIAxVhcn5uaDeSPb+U7O8823anif0V&#xA;FW0Vq0+O/mMVoN/CQn2xVaLL83deFby+sfJ1k1D6Fgv6T1Dj3DXFwsdtGf8AVhf54qm/lnyDougX&#xA;kmopPe6lrE0Rgn1XUrqW6naIsH4AMfSjXkoPGNFGKskxV2KuxV2KuxV2KuxV2KuxV2KuxV2KuxV2&#xA;KuxV2KuxV2KuxVC6npWmarYy2Gp2kN9YzjjNa3CLLE48GRwQcVYaPywvtHA/wV5lvdBhXZNKuaan&#xA;poHWiwXJ9aIe0Uyj2xVU/S35waapF5oGla+vabS72SylNP8Al3vEdBX/AJiMVcPzUhtGK+YfLWu6&#xA;EqbPcS2Rvbcf89tNa9UD3amKoux/Nv8ALG+JSDzTpiyj7UE1zHBKPnHMY3H3YqnA82+VSKjWbEg9&#xA;D9Zh/wCasVQV/wDmN+X2nqWvvM2lWwG9Jb23U9CdgXqTt0GKpS35w+VLii6Db6l5klPQaTY3E0e/&#xA;Sty6xWo+mXFVn1383dePG1sLHydYtsbm+canqBHWqW8BS2jP+tM/+riq+0/KLy1LOl55mmuvN2oo&#xA;eSza1IJ4Eam5hslCWke/TjFX3xVm0UUUUaxRIscaAKiKAFAHQADpiq7FXYq7FXYq7FXYq7FXYq7F&#xA;XYq7FXYq7FXYq7FXYq7FXYq7FXYq7FXYq7FXYq7FUr1r/DHFf039S47cPrvpU70p6v04qxP/AJAF&#xA;/wB+p/3LsVTfQv8AlV3qJ+gf0H6vL4PqP1Tly26elvXpirKcVdirsVdirsVdirsVdirsVdirsVdi&#xA;rsVdirsVdirsVf/Z</xmpGImg:image>
               </rdf:li>
            </rdf:Alt>
         </xmp:Thumbnails>
      </rdf:Description>
      <rdf:Description rdf:about=""
            xmlns:xmpMM="http://ns.adobe.com/xap/1.0/mm/"
            xmlns:stRef="http://ns.adobe.com/xap/1.0/sType/ResourceRef#"
            xmlns:stEvt="http://ns.adobe.com/xap/1.0/sType/ResourceEvent#">
         <xmpMM:DocumentID>xmp.did:4CC0730B3B20681188C69098C6AB8D67</xmpMM:DocumentID>
         <xmpMM:InstanceID>xmp.iid:4CC0730B3B20681188C69098C6AB8D67</xmpMM:InstanceID>
         <xmpMM:OriginalDocumentID>uuid:5300BF6A0426DF118833972942CE57BD</xmpMM:OriginalDocumentID>
         <xmpMM:DerivedFrom rdf:parseType="Resource">
            <stRef:instanceID>uuid:92e87aec-9b37-495f-befd-cad9da433350</stRef:instanceID>
            <stRef:documentID>uuid:5300BF6A0426DF118833972942CE57BD</stRef:documentID>
            <stRef:originalDocumentID>uuid:5300BF6A0426DF118833972942CE57BD</stRef:originalDocumentID>
         </xmpMM:DerivedFrom>
         <xmpMM:History>
            <rdf:Seq>
               <rdf:li rdf:parseType="Resource">
                  <stEvt:action>saved</stEvt:action>
                  <stEvt:instanceID>xmp.iid:4CC0730B3B20681188C69098C6AB8D67</stEvt:instanceID>
                  <stEvt:when>2015-02-12T17:06:26+02:00</stEvt:when>
                  <stEvt:softwareAgent>Adobe Illustrator CS5.1</stEvt:softwareAgent>
                  <stEvt:changed>/</stEvt:changed>
               </rdf:li>
            </rdf:Seq>
         </xmpMM:History>
      </rdf:Description>
      <rdf:Description rdf:about=""
            xmlns:pdf="http://ns.adobe.com/pdf/1.3/">
         <pdf:Producer>Adobe PDF library 7.77</pdf:Producer>
      </rdf:Description>
      <rdf:Description rdf:about=""
            xmlns:xmpTPg="http://ns.adobe.com/xap/1.0/t/pg/"
            xmlns:stDim="http://ns.adobe.com/xap/1.0/sType/Dimensions#"
            xmlns:xmpG="http://ns.adobe.com/xap/1.0/g/">
         <xmpTPg:MaxPageSize rdf:parseType="Resource">
            <stDim:w>144.999935</stDim:w>
            <stDim:h>78.807421</stDim:h>
            <stDim:unit>Millimeters</stDim:unit>
         </xmpTPg:MaxPageSize>
         <xmpTPg:NPages>1</xmpTPg:NPages>
         <xmpTPg:HasVisibleTransparency>False</xmpTPg:HasVisibleTransparency>
         <xmpTPg:HasVisibleOverprint>False</xmpTPg:HasVisibleOverprint>
         <xmpTPg:PlateNames>
            <rdf:Seq>
               <rdf:li>Cyan</rdf:li>
               <rdf:li>Magenta</rdf:li>
               <rdf:li>Yellow</rdf:li>
               <rdf:li>Black</rdf:li>
            </rdf:Seq>
         </xmpTPg:PlateNames>
         <xmpTPg:SwatchGroups>
            <rdf:Seq>
               <rdf:li rdf:parseType="Resource">
                  <xmpG:groupName>Default Swatch Group</xmpG:groupName>
                  <xmpG:groupType>0</xmpG:groupType>
               </rdf:li>
            </rdf:Seq>
         </xmpTPg:SwatchGroups>
      </rdf:Description>
   </rdf:RDF>
</x:xmpmeta>
                                                                                                    
                                                                                                    
                                                                                                    
                                                                                                    
                                                                                                    
                                                                                                    
                                                                                                    
                                                                                                    
                                                                                                    
                                                                                                    
                                                                                                    
                                                                                                    
                                                                                                    
                                                                                                    
                                                                                                    
                                                                                                    
                                                                                                    
                                                                                                    
                                                                                                    
                                                                                                    
                           
<?xpacket end="w"?>
	</metadata>
<g>
	<path fill="none" stroke="#000000" stroke-width="1.0001" d="M97.728,45.221l-3.322-1.391c6.104-1.778,9.58-6.723,11.051-15.3
		c3.168-17.851,18.622-28.901,36.085-39.333c-9.735,9.427-17.927,18.932-23.568,29.905c-1.469,2.859-1.7,5.718-0.851,8.577
		c1.006,3.322,0.155,6.49-2.24,9.427c-2.705,3.399-6.183,4.636-10.2,3.941L97.728,45.221z"/>
	<path fill="none" stroke="#6D6E71" stroke-width="1.0001" d="M181.416,71.726c-11.901,2.086-15.532,15.455-19.086,39.41
		c-2.858,19.162-14.991,33.228-31.295,38.021c-12.365,3.633-25.346,2.242-38.018-0.544l-1.7,4.407
		c14.836,6.952,31.99,8.113,49.377,3.325c21.327-5.797,33.459-19.396,40.49-35.778c6.336-14.99,13.291-22.177,18.314-22.718"/>
	<path fill="none" stroke="#000000" stroke-width="2.0001" d="M222.215-35.684c-46.825-0.31-90.177,8.5-130.047,26.583
		c-14.296,6.413-23.955,18.313-23.104,35.7c0.618,14.217,15.299,16.691,34.232,19.164c9.581,1.237,20.091-3.941,31.526-13.6
		c-8.654,7.495-15.3,14.914-11.59,16.073c6.335,2.008,12.363-2.164,17.772-8.037c0.386-0.387,0.695-0.772,1.082-1.159
		c0.386-0.465,1.545-1.778,1.159-1.313c-6.644,6.336-9.118,10.199-7.495,11.359c3.556,2.474,7.572,2.242,11.901-0.54
		c7.805-5.178,13.678-5.41,16.612,0c3.399,6.104,2.243,11.669,2.474,16.922c0.463,13.909-1.7,21.328-11.281,24.572
		c-13.292,4.481-26.738,4.405-40.8,3.635c-28.823-1.547-44.124,7.726-51.077,21.636c-8.424,16.921-12.21,30.83-2.242,41.03
		c10.046,10.277,25.731,15.378,44.124,18.081c23.028,6.028,45.9,5.333,69.003-3.632c15.765-6.104,31.834-11.283,47.753-16.921"/>
	<path fill="none" stroke="#000000" stroke-width="0.5" d="M136.519,111.136c-3.477,1.78-6.104,5.408-8.577,9.736
		c-0.928,1.545-1.623,1.545-2.24,0.541c-0.464-0.696-1.083-0.696-1.702-0.465c-1.545,0.465-0.851,1.626-1.468,3.246
		c-0.695,2.09-3.401,3.399-4.636,0.619c-0.464-1.006-0.619-1.547-1.313-1.315c-1.004,0.464-1.468,1.546-2.395,3.092
		c-1.314,2.395-3.323,2.857-5.642,2.857c-1.313,0-1.7-0.463-2.858-3.244c-0.463-1.159-1.776-1.082-2.55,0.077
		c-0.387,0.694-0.773,0.927-1.469,1.005c-0.928,0.077-1.237-0.311-1.237-1.39c0-0.62-0.695-0.852-1.777-0.386
		c-1.545,0.617-2.086,2.238-3.015,4.017c-0.927,1.699-2.395,2.007-3.708,2.007c-1.469-0.078-1.7-0.463-1.006-2.007
		c1.314-3.091,1.392-5.332,0-5.487c-2.782-0.465-4.018,1.934-5.794,5.178c-0.542,1.081-1.545,0.386-1.624-0.544
		c-0.076-0.695-0.386-1.006-1.004-1.082c-0.773,0-1.701,0.464-2.241,1.7c-0.851,2.089-1.933,3.326-3.555,3.863
		c-1.082,0.388-0.618-2.936-1.469-2.318c-1.237,0.852-0.773,2.938-5.022,2.398c-1.159-0.077-1.855-1.161-2.086-3.091
		c-0.077-0.772-0.155-1.547-0.465-2.319c-1.7-4.095-4.173-5.794-6.645-6.721c1.468-0.234,3.091,0,4.404,1.234
		c0.773,0.774,1.392,1.546,2.473,2.089c2.706,1.471,4.946,2.318,5.873,0.852c0.928-1.392,1.701-2.164,2.474-1.237
		c0.54,0.697,1.236,0.62,2.704-1.469c0.387-1.699,1.314-0.927,1.391-0.388c0.232,1.082,0.465,1.545,1.777,1.007
		c0.851-0.387,1.161-1.161,0.928-1.854c-0.232-0.854,0-1.237,0.851-1.626c0.772-0.31,1.004-0.232,1.545,0.388
		c0.31,0.387,0.231,1.393,1.545,0.465c0.619-0.388,0.85-1.007,1.082-1.779c0.386-1.315,1.082-1.854,1.778-1.779
		c0.773,0.155,1.545,0.543,1.7,1.236c0.31,1.082,0.542,1.935,2.24,0.233c2.164-2.162,3.17-2.552,3.555-1.161
		c0.387,1.237,1.545,1.626,2.782,0.619c1.082-0.928,1.623-1.236,1.855-0.543c0.388,1.161,1.314,1.237,2.783,1.237
		c0.85,0,1.313-0.386,1.468-2.009c0.155-1.162,0.696-1.854,1.7-2.087c0.851-0.232,1.468,0.155,1.701,1.159
		c0.618,1.932,1.933,1.235,3.554-0.772c1.314-2.397,2.938-3.862,3.709-2.86c1.082,1.547,1.158,2.089,2.317,1.392
		c1.313-0.852,2.24-1.701,2.705-3.091c0.696-1.854,2.474-2.398,3.633-1.47c1.313,1.16,2.318,1.47,3.322,0.154
		c1.932-2.627,3.246-3.944,4.018-2.707c1.082,1.699,2.319,2.088,3.786,1.082c2.395-1.779,4.25-2.396,5.796-2.164
		c1.546,0.232,1.933,0.542,0.232,2.009c-1.005,0.927-2.164,1.78-3.554,2.397C138.298,110.13,137.447,110.671,136.519,111.136z"/>
	<path fill="#FFFFFF" stroke="#000000" stroke-width="2.0001" d="M182.42,76.901c-2.396-3.088-2.473-4.404,0.695-5.794
		c6.953-3.322,13.756-5.486,20.557-6.491c2.006-0.31,3.94,0.155,5.795,3.632c3.4,6.415,6.024,14.218,8.188,23.103
		c0.618,2.474-0.772,3.943-3.089,4.793c-3.862,1.391-7.807,1.932-11.669,2.394c-3.171,0.388-6.415-1.079-9.272-4.866
		C189.607,88.263,186.593,82.157,182.42,76.901z"/>
	<path fill="#FFFFFF" stroke="#000000" stroke-width="2.0001" d="M168.203,82.698c1.699-3.399,3.94-3.863,7.261,0.463
		c4.02,5.408,8.424,9.352,12.677,12.674c3.786,3.015,3.942,6.955,1.16,11.128c-1.391,2.009-2.859,4.016-4.097,6.18
		c-1.547,2.625-2.626,3.323-5.254,2.242c-4.791-1.854-10.042-3.246-15.145-6.336c-1.701-1.161-1.701-3.092-1.856-6.336
		C162.714,95.989,164.723,89.421,168.203,82.698z"/>
	<path fill="#FFFFFF" stroke="#000000" stroke-width="2.0001" d="M160.397,117.625c1.004-2.781,1.932-3.863,4.711-1.854
		c3.635,2.628,7.881,4.019,11.979,5.797c2.627,1.237,2.627,3.401,1.469,5.644c-1.004,1.932-2.316,3.787-3.17,5.796
		c-1.854,3.863-4.713,5.487-8.652,3.555c-3.478-1.78-6.799-3.401-9.891-5.255c-1.855-1.163-1.391-3.556-0.078-6.023
		C158.079,122.805,159.392,120.254,160.397,117.625z"/>
	<path fill="#FFFFFF" stroke="#000000" stroke-width="2.0001" d="M149.27,135.476c2.705-2.706,3.863-2.938,6.182-0.542
		c2.55,2.625,5.794,3.633,8.731,4.789c1.932,0.853,3.322,2.862,0.695,4.944c-3.246,2.628-7.572,3.553-11.205,5.642
		c-2.938,1.781-5.254,0-8.5-2.704C141.697,144.748,143.166,141.58,149.27,135.476z"/>
	<path fill="#FFFFFF" stroke="#000000" stroke-width="2.0001" d="M136.906,147.222c1.855-0.851,2.858-0.31,3.632,1.39
		c1.776,4.405,2.395,7.496-0.927,7.729c-3.864,0.153-7.729-0.156-11.593,0.153c-1.544,0.155-2.24-0.153-2.163-1.7
		c0-0.771-0.309-1.699,0.076-2.473c0.542-1.08-0.85-2.472,2.395-2.78C131.264,149.229,134.047,147.994,136.906,147.222z"/>
	<path fill="#FFFFFF" stroke="#000000" stroke-width="2.0001" d="M111.407,151.857c2.164,0,2.24,0.077,4.018-0.232
		c1.313-0.233,7.032-1.934,7.032-0.077s-0.542,3.709-0.542,5.486c0,2.553-7.572,2.243-9.581,2.243c-1.082,0-2.088-0.771-3.169-0.771
		c-0.309,0,0.232-4.098,0.31-4.792C109.628,152.552,110.788,152.244,111.407,151.857z"/>
	<path fill="#FFFFFF" stroke="#000000" stroke-width="2.0001" d="M90.387,149.926c-2.705,1.776,3.401,4.096,10.817,6.414
		c3.246,0,5.564-1.236,5.564-4.791c0-2.088-9.891-1.392-11.283-1.933C93.015,148.611,90.156,147.375,90.387,149.926z"/>
	<path fill="none" stroke="#000000" stroke-width="1.0001" stroke-dasharray="5.0003,3.0002,1.0001,3.0002" d="M165.108,88.804
		c-4.328,15.84-12.906,28.358-24.961,37.708c-12.595,9.737-26.35,13.06-40.799,13.369c-5.641,0.155-5.872,2.551-1.082,4.017
		c13.523,4.174,28.282,1.855,49.223-8.73c15.454-7.882,31.448-15.842,44.741-33.614"/>
	<g>
		<g>
			<g>
				<path id="SVGID_1_" fill="none" stroke="#000000" stroke-width="2.0001" d="M98.965,3.185c4.018,2.24,3.632,10.586-0.928,18.699
					C93.555,29.997,86.6,34.789,82.583,32.547c-4.019-2.241-3.556-10.663,0.926-18.776C87.991,5.735,94.947,0.944,98.965,3.185z"/>
			</g>
		</g>
	</g>
	<path fill="none" stroke="#000000" stroke-width="1.0001" d="M-37.499,72.653c15.997-8.732,32.069-16.458,48.295-22.177
		c13.986-4.946,30.678-9.891,39.332-8.037c10.431,2.319,21.327,2.087,32.067,4.328c13.523,2.858,27.123,3.477,40.8,3.709
		c16.923,0.232,26.582,2.163,26.659,6.49c0.155,10.741-5.022,13.523-16.382,13.292c-17.154-0.232-34.309-2.936-51.541-3.4
		c-7.882-0.233-1.004,2.936,0,3.091c21.869,1.623,43.736,1.392,65.681,2.165c6.337-0.311,14.142,0.153,15.222,5.252
		c1.392,6.797-3.94,10.972-9.504,11.514c-10.2,1.082-20.245,2.471-30.909,1.546c-9.426-0.853-17.85,0-25.964,0.772
		c-7.263,0.696-14.528,0.308-21.713-0.387c2.783,1.934,2.473,3.323,1.855,4.944c-1.933,5.488-7.341,7.884-11.823,11.05
		c-3.091,2.243-4.559,5.797-5.332,8.807c-2.164,8.271-6.337,10.123-11.437,12.596c-18.082,8.654-38.018,10.974-57.645,11.824
		c-4.328,0.153-9.119-1.083-12.905-4.172c-3.092-2.471-7.264-1.699-12.983,1.779l-1.778,0.694"/>
	<g>
		<line fill="none" stroke="#000000" stroke-width="1.0001" x1="74.623" y1="90.812" x2="65.969" y2="90.348"/>
		<path fill="none" stroke="#000000" stroke-width="1.0001" d="M62.57,108.738c-5.795,3.17-11.514,4.871-17.232,5.874"/>
	</g>
	<path fill="none" stroke="#000000" stroke-width="0.5" d="M145.716,55.421c-4.25,0.232-8.808-2.164-12.751,0.541
		c-2.009,1.469-1.7,4.019-0.773,6.413c1.778,4.174,6.646,4.792,13.292,2.474C145.561,61.912,147.57,58.744,145.716,55.421z"/>
	<path fill="none" stroke="#000000" stroke-width="0.5" d="M156.689,74.43c-5.024-0.927-10.51-1.78-14.914,1.082
		c-2.551,1.702-1.933,6.106-0.155,8.27c3.4,4.171,9.89,3.477,15.454,2.935C158.929,82.62,158.774,78.526,156.689,74.43z"/>
	<path stroke="#000000" stroke-width="0.0448" stroke-linecap="round" stroke-linejoin="round" d="M166.115,90.426l7.571,5.563
		c-0.772-2.55-0.31-4.481,1.699-6.259L166.115,90.426z"/>
	<path stroke="#000000" stroke-width="0.0448" stroke-linecap="round" stroke-linejoin="round" d="M85.751,7.512L76.942,4.19
		c1.391,2.163,1.468,4.172,0,6.413L85.751,7.512z"/>
	<path stroke="#000000" stroke-width="0.0448" stroke-linecap="round" stroke-linejoin="round" d="M129.024-4.389l-8.113-4.636
		c1.004,2.396,0.773,4.404-1.006,6.413L129.024-4.389z"/>
	<path stroke="#000000" stroke-width="0.0448" stroke-linecap="round" stroke-linejoin="round" d="M146.102,125.586l8.808,3.32
		c-1.39-2.159-1.545-4.168-0.076-6.411L146.102,125.586z"/>
	<path stroke="#000000" stroke-width="0.0448" stroke-linecap="round" stroke-linejoin="round" d="M168.896,141.271l8.731,3.322
		c-1.389-2.24-1.468-4.251,0-6.487L168.896,141.271z"/>
	<path d="M8.478-19.534h0.155c0.542,0,1.005,0.077,1.39,0.232c0.388,0.155,0.619,0.387,0.851,0.695
		c0.155,0.387,0.31,0.696,0.31,1.005c0,0.387-0.077,0.697-0.31,0.928c-0.155,0.31-0.463,0.542-0.773,0.771
		c0.463,0.078,0.773,0.31,1.082,0.697c0.231,0.309,0.386,0.696,0.386,1.158c0,0.31-0.077,0.695-0.231,1.005
		c-0.155,0.31-0.387,0.542-0.618,0.697c-0.232,0.155-0.465,0.309-0.851,0.387c-0.31,0.077-0.694,0.077-1.237,0.077H8.477v-0.85
		h0.155c0.387,0,0.619,0,0.696-0.077c0.231,0,0.465-0.077,0.619-0.155c0.155-0.155,0.31-0.309,0.386-0.463
		c0.077-0.155,0.155-0.387,0.155-0.619c0-0.309-0.076-0.541-0.232-0.772c-0.155-0.232-0.387-0.386-0.619-0.465
		c-0.232-0.076-0.618-0.076-1.082-0.076H8.477v-0.928c0.387,0,0.696-0.077,0.927-0.077c0.232-0.077,0.388-0.233,0.541-0.387
		c0.155-0.232,0.232-0.463,0.232-0.696c0-0.232-0.076-0.464-0.232-0.695c-0.077-0.155-0.232-0.31-0.463-0.387
		c-0.233-0.077-0.542-0.077-1.006-0.077v-0.928H8.478z M5.698-11.884v-7.65h2.781v0.927H8.246H6.777v2.319H8.4h0.078v0.928h-1.7
		v2.626h1.7v0.851L5.698-11.884L5.698-11.884z"/>
	<rect x="12.805" y="-19.534" width="0.928" height="7.65"/>
	<path d="M18.833-12.502c-0.387,0.233-0.696,0.463-1.006,0.618c-0.155,0-0.31,0.077-0.541,0.077v-0.697
		c0.231,0,0.465-0.077,0.696-0.232c0.31-0.155,0.464-0.31,0.619-0.618c0.078-0.232,0.155-0.541,0.155-0.927v-0.387
		c-0.309,0.155-0.771,0.232-1.468,0.387v-0.773c0.697-0.155,1.159-0.232,1.468-0.309c0-0.155,0-0.233,0-0.233
		c0-0.387-0.076-0.694-0.309-0.85c-0.232-0.233-0.541-0.31-1.004-0.31h-0.155v-0.773c0.077,0,0.155,0,0.232,0
		c0.541,0,0.849,0.076,1.159,0.155c0.31,0.077,0.541,0.231,0.695,0.386c0.155,0.233,0.232,0.387,0.31,0.695c0,0.155,0,0.463,0,0.85
		v1.237c0,0.928,0,1.469,0.078,1.701c0.076,0.233,0.155,0.463,0.232,0.618h-1.005C18.909-12.039,18.833-12.271,18.833-12.502z
		 M17.288-11.807c-0.155,0.077-0.31,0.077-0.54,0.077c-0.618,0-1.083-0.155-1.392-0.463c-0.309-0.31-0.463-0.695-0.463-1.16
		c0-0.232,0.076-0.463,0.155-0.695c0.155-0.232,0.309-0.387,0.463-0.542c0.231-0.155,0.463-0.232,0.695-0.31
		c0.233-0.077,0.463-0.077,0.851-0.155h0.231v0.773h-0.076c-0.388,0.077-0.696,0.077-0.851,0.155
		c-0.155,0.077-0.231,0.232-0.386,0.31c-0.077,0.155-0.077,0.31-0.077,0.463c0,0.233,0.077,0.465,0.232,0.618
		c0.231,0.155,0.54,0.31,0.85,0.31c0.155,0,0.232-0.077,0.31-0.077L17.288-11.807L17.288-11.807z M17.288-16.751
		c-0.386,0-0.695,0.077-0.85,0.231c-0.234,0.155-0.387,0.387-0.465,0.853l-0.927-0.155c0.077-0.387,0.231-0.697,0.386-0.927
		c0.232-0.309,0.465-0.463,0.851-0.618c0.31-0.078,0.619-0.155,1.005-0.155V-16.751z"/>
	<path d="M24.782-11.884v-0.695c-0.386,0.541-0.85,0.85-1.468,0.85v-0.773l0,0c0.386,0,0.773-0.155,1.004-0.542
		c0.31-0.31,0.463-0.85,0.463-1.467c0-0.773-0.155-1.392-0.463-1.7c-0.231-0.386-0.619-0.541-1.004-0.541v-0.773
		c0.232,0,0.541,0.076,0.773,0.231c0.231,0.077,0.463,0.31,0.618,0.543v-2.782h0.927v7.65H24.782L24.782-11.884z M23.315-11.73
		h-0.078c-0.463,0-0.85-0.155-1.237-0.387c-0.386-0.232-0.695-0.542-0.85-1.005c-0.233-0.464-0.31-0.928-0.31-1.546
		c0-0.542,0.076-1.005,0.231-1.468c0.233-0.465,0.465-0.773,0.851-1.082c0.386-0.233,0.773-0.31,1.237-0.31c0.076,0,0.076,0,0.155,0
		v0.773h-0.078c-0.386,0-0.773,0.155-1.004,0.541c-0.31,0.309-0.463,0.851-0.463,1.545c0,0.773,0.155,1.314,0.463,1.623
		c0.31,0.387,0.619,0.542,1.082,0.542V-11.73z"/>
	<path d="M30.732-11.884v-0.695c-0.31,0.541-0.85,0.85-1.468,0.85v-0.773l0,0c0.386,0,0.773-0.155,1.083-0.542
		c0.231-0.31,0.386-0.85,0.386-1.467c0-0.773-0.155-1.392-0.386-1.7c-0.31-0.386-0.697-0.541-1.083-0.541v-0.773
		c0.31,0,0.541,0.076,0.773,0.231c0.231,0.077,0.463,0.31,0.619,0.543v-2.782h0.927v7.65H30.732L30.732-11.884z M29.264-11.73
		h-0.077c-0.464,0-0.85-0.155-1.236-0.387c-0.387-0.232-0.618-0.542-0.851-1.005c-0.231-0.464-0.31-0.928-0.31-1.546
		c0-0.542,0.078-1.005,0.31-1.468c0.155-0.465,0.463-0.773,0.773-1.082c0.388-0.233,0.85-0.31,1.237-0.31c0.076,0,0.076,0,0.153,0
		v0.773l0,0c-0.463,0-0.772,0.155-1.082,0.541c-0.31,0.309-0.386,0.851-0.386,1.545c0,0.773,0.076,1.314,0.386,1.623
		c0.31,0.387,0.694,0.542,1.082,0.542V-11.73z"/>
	<path d="M36.915-13.661l1.005,0.155c-0.155,0.54-0.463,1.004-0.851,1.313c-0.465,0.31-1.004,0.463-1.623,0.463H35.37v-0.773h0.077
		c0.31,0,0.619-0.077,0.85-0.309C36.605-12.966,36.76-13.274,36.915-13.661L36.915-13.661z M35.37-17.524L35.37-17.524
		c0.773,0,1.392,0.231,1.854,0.773c0.464,0.464,0.697,1.158,0.697,2.086c0,0.077,0,0.155,0,0.31H35.37v-0.773h1.545
		c0-0.541-0.155-0.85-0.386-1.082c-0.232-0.386-0.619-0.541-1.159-0.541l0,0V-17.524z M35.37-11.73
		c-0.773,0-1.392-0.232-1.854-0.773c-0.464-0.463-0.696-1.159-0.696-2.087c0-0.927,0.232-1.623,0.696-2.164
		c0.464-0.543,1.082-0.773,1.854-0.773v0.773c-0.386,0-0.773,0.155-1.082,0.386c-0.31,0.31-0.464,0.695-0.464,1.237h1.546v0.773
		h-1.623c0.076,0.542,0.231,1.082,0.541,1.391c0.31,0.31,0.618,0.463,1.082,0.463V-11.73z"/>
	<path d="M39.078-11.884v-5.564h0.85v0.85c0.233-0.387,0.387-0.618,0.618-0.772c0.155-0.078,0.31-0.155,0.542-0.155
		c0.31,0,0.694,0.077,1.004,0.31l-0.31,0.85c-0.231-0.155-0.463-0.232-0.694-0.232c-0.232,0-0.387,0.076-0.542,0.232
		c-0.231,0.078-0.31,0.31-0.386,0.463c-0.079,0.387-0.155,0.773-0.155,1.163v2.859L39.078-11.884L39.078-11.884z"/>
	<path d="M-37.575,6.815l1.004-0.077c0,0.387,0.155,0.695,0.31,0.927c0.155,0.232,0.386,0.463,0.773,0.619
		c0.31,0.155,0.773,0.231,1.158,0.231c0.388,0,0.773-0.077,1.006-0.153c0.31-0.155,0.54-0.31,0.695-0.465
		c0.155-0.232,0.232-0.463,0.232-0.695s-0.078-0.463-0.232-0.619c-0.155-0.155-0.386-0.31-0.695-0.463
		c-0.155-0.077-0.618-0.233-1.392-0.387c-0.696-0.155-1.161-0.31-1.469-0.465c-0.31-0.231-0.617-0.463-0.772-0.694
		c-0.234-0.31-0.31-0.619-0.31-1.005s0.155-0.695,0.31-1.082c0.231-0.31,0.541-0.541,1.004-0.773
		c0.386-0.155,0.85-0.232,1.392-0.232c0.619,0,1.082,0.077,1.545,0.232c0.386,0.233,0.772,0.463,1.004,0.85s0.31,0.773,0.387,1.237
		l-1.005,0.077c-0.076-0.542-0.231-0.85-0.541-1.16c-0.31-0.232-0.773-0.309-1.314-0.309c-0.618,0-1.082,0.077-1.392,0.309
		c-0.231,0.233-0.386,0.464-0.386,0.773c0,0.31,0.076,0.542,0.31,0.696c0.155,0.231,0.694,0.387,1.545,0.541
		c0.773,0.232,1.392,0.386,1.7,0.541c0.386,0.155,0.773,0.465,0.927,0.773c0.232,0.309,0.386,0.695,0.386,1.082
		s-0.155,0.773-0.386,1.16c-0.232,0.387-0.541,0.618-1.006,0.85c-0.463,0.155-0.927,0.31-1.467,0.31
		c-0.697,0-1.315-0.155-1.779-0.31c-0.464-0.232-0.85-0.541-1.081-0.927C-37.421,7.82-37.499,7.357-37.575,6.815z"/>
	<path d="M-30.236,11.453l-0.077-0.928c0.232,0.077,0.387,0.077,0.542,0.077c0.231,0,0.386,0,0.541-0.077
		c0.078-0.077,0.155-0.155,0.309-0.309c0-0.078,0.155-0.31,0.232-0.697c0-0.077,0.076-0.155,0.076-0.231l-2.085-5.564h1.004
		l1.159,3.245c0.155,0.387,0.31,0.85,0.386,1.237c0.155-0.387,0.232-0.85,0.387-1.237l1.237-3.245h0.928l-2.087,5.641
		c-0.231,0.619-0.464,1.082-0.54,1.314c-0.155,0.31-0.387,0.542-0.618,0.618c-0.235,0.156-0.466,0.233-0.776,0.233
		C-29.771,11.53-30.003,11.53-30.236,11.453z"/>
	<path d="M-24.827,9.289V3.725h0.851v0.773c0.232-0.233,0.465-0.465,0.695-0.619c0.31-0.231,0.619-0.31,1.006-0.31
		c0.386,0,0.773,0.077,1.004,0.31c0.31,0.155,0.463,0.387,0.541,0.695c0.465-0.618,1.083-1.005,1.778-1.005
		c0.542,0,0.927,0.155,1.237,0.463c0.31,0.309,0.463,0.773,0.463,1.469v3.786h-0.928V5.812c0-0.387-0.076-0.697-0.076-0.85
		c-0.078-0.155-0.232-0.31-0.387-0.387c-0.155-0.077-0.31-0.155-0.541-0.155c-0.387,0-0.697,0.155-1.006,0.387
		c-0.232,0.232-0.386,0.695-0.386,1.236v3.246h-0.927V5.657c0-0.387-0.078-0.695-0.233-0.928c-0.154-0.232-0.386-0.31-0.772-0.31
		c-0.231,0-0.464,0.078-0.696,0.233c-0.232,0.077-0.387,0.31-0.463,0.618c-0.155,0.233-0.155,0.618-0.155,1.163v2.858L-24.827,9.289
		L-24.827,9.289z"/>
	<path d="M-13.468,3.571h0.077c0.463,0,0.927,0.155,1.237,0.387c0.386,0.232,0.696,0.619,0.85,1.082
		c0.155,0.387,0.31,0.927,0.31,1.392c0,0.619-0.155,1.082-0.31,1.545c-0.231,0.463-0.541,0.85-0.927,1.082
		c-0.386,0.232-0.773,0.387-1.237,0.387l0,0V8.672c0.387,0,0.773-0.232,1.005-0.542c0.31-0.387,0.465-0.927,0.465-1.7
		c0-0.697-0.155-1.237-0.465-1.545c-0.232-0.387-0.618-0.542-1.005-0.542l0,0V3.571z M-15.863,11.453V3.725h0.85V4.42
		c0.234-0.232,0.465-0.463,0.697-0.619c0.231-0.155,0.54-0.155,0.85-0.231v0.773c-0.386,0-0.772,0.155-1.082,0.542
		c-0.31,0.387-0.465,0.928-0.465,1.623c0,0.772,0.155,1.314,0.465,1.623c0.31,0.309,0.619,0.542,1.006,0.542h0.076v0.773
		c-0.31,0-0.619-0.077-0.85-0.232c-0.232-0.155-0.463-0.309-0.618-0.463v2.706h-0.929V11.453z"/>
	<path d="M-9.913,9.289v-7.65h1.006v2.705C-8.522,3.88-7.979,3.57-7.285,3.57c0.388,0,0.772,0.077,1.082,0.31
		c0.31,0.155,0.542,0.387,0.619,0.619c0.155,0.31,0.232,0.695,0.232,1.236v3.554h-0.927V5.735c0-0.465-0.155-0.773-0.31-1.004
		C-6.821,4.499-7.131,4.42-7.44,4.42s-0.54,0.078-0.85,0.233c-0.233,0.155-0.387,0.31-0.465,0.542
		c-0.155,0.31-0.155,0.619-0.155,1.082v3.014L-9.913,9.289L-9.913,9.289z"/>
	<path d="M-3.964,11.453l-0.076-0.928c0.155,0.077,0.386,0.077,0.541,0.077c0.155,0,0.387,0,0.464-0.077
		c0.155-0.077,0.232-0.155,0.31-0.309c0.078-0.078,0.155-0.31,0.309-0.697c0-0.077,0-0.155,0.078-0.231l-2.085-5.564h1.004
		l1.158,3.245c0.155,0.387,0.232,0.85,0.387,1.237c0.077-0.387,0.231-0.85,0.386-1.237l1.161-3.245h1.004l-2.164,5.641
		c-0.231,0.619-0.386,1.082-0.541,1.314c-0.155,0.31-0.31,0.542-0.541,0.618c-0.232,0.155-0.465,0.232-0.772,0.232
		C-3.499,11.53-3.73,11.53-3.964,11.453z"/>
	<path d="M1.06,7.666l0.928-0.155c0.076,0.309,0.231,0.618,0.463,0.85c0.231,0.154,0.54,0.309,1.004,0.309
		c0.388,0,0.773-0.155,0.928-0.309c0.232-0.155,0.309-0.387,0.309-0.618c0-0.232-0.077-0.387-0.231-0.465
		C4.307,7.201,3.997,7.046,3.456,6.969C2.761,6.737,2.297,6.583,2.064,6.506c-0.31-0.155-0.463-0.31-0.618-0.542
		C1.291,5.732,1.215,5.501,1.215,5.192c0-0.233,0.076-0.464,0.155-0.695c0.155-0.233,0.31-0.387,0.465-0.542
		C1.989,3.879,2.22,3.801,2.453,3.723c0.231-0.077,0.54-0.155,0.85-0.155c0.387,0,0.773,0.077,1.161,0.232
		c0.31,0.076,0.541,0.31,0.694,0.463c0.155,0.232,0.234,0.541,0.31,0.928L4.54,5.268c0-0.231-0.155-0.463-0.31-0.619
		c-0.232-0.232-0.541-0.31-0.85-0.31c-0.464,0-0.773,0.078-0.927,0.233c-0.232,0.155-0.31,0.31-0.31,0.541
		c0,0.078,0,0.234,0.076,0.31c0.077,0.077,0.232,0.155,0.387,0.233c0.076,0.076,0.386,0.155,0.85,0.231
		c0.696,0.232,1.159,0.388,1.391,0.464c0.233,0.077,0.465,0.31,0.618,0.463c0.155,0.233,0.232,0.542,0.232,0.85
		c0,0.31-0.077,0.619-0.309,0.85c-0.155,0.31-0.387,0.542-0.773,0.697c-0.31,0.155-0.696,0.231-1.159,0.231
		c-0.695,0-1.313-0.155-1.622-0.463C1.446,8.671,1.137,8.207,1.06,7.666z"/>
	<path d="M6.856,2.721V1.639h0.928v1.082H6.856L6.856,2.721z M6.856,9.289V3.725h0.928v5.564H6.856z"/>
	<path d="M8.787,7.666l1.006-0.155c0,0.309,0.154,0.618,0.386,0.85c0.232,0.154,0.618,0.309,1.005,0.309
		c0.465,0,0.773-0.155,1.005-0.309c0.155-0.155,0.31-0.387,0.31-0.618c0-0.232-0.076-0.387-0.31-0.465
		c-0.155-0.077-0.464-0.232-0.928-0.309c-0.695-0.232-1.237-0.387-1.467-0.463C9.56,6.351,9.329,6.196,9.176,5.964
		C9.021,5.732,8.943,5.501,8.943,5.192c0-0.233,0.078-0.464,0.232-0.695C9.252,4.264,9.406,4.11,9.639,3.956
		c0.155-0.077,0.309-0.155,0.541-0.233c0.31-0.077,0.542-0.155,0.851-0.155c0.463,0,0.85,0.077,1.158,0.232
		c0.31,0.076,0.542,0.31,0.696,0.463c0.155,0.232,0.31,0.541,0.386,0.928l-0.927,0.076c-0.076-0.231-0.232-0.463-0.386-0.619
		c-0.232-0.232-0.463-0.31-0.851-0.31c-0.464,0-0.773,0.078-0.927,0.233c-0.232,0.155-0.31,0.31-0.31,0.541
		c0,0.078,0.077,0.234,0.155,0.31c0.079,0.079,0.155,0.155,0.31,0.233c0.155,0.076,0.388,0.155,0.851,0.231
		c0.695,0.232,1.159,0.388,1.391,0.464c0.31,0.077,0.464,0.31,0.618,0.463c0.155,0.233,0.231,0.542,0.231,0.85
		c0,0.31-0.077,0.619-0.231,0.85c-0.232,0.31-0.463,0.542-0.851,0.697c-0.31,0.155-0.695,0.231-1.16,0.231
		c-0.696,0-1.237-0.155-1.624-0.463C9.175,8.672,8.942,8.207,8.787,7.666z"/>
	<path d="M19.915,3.571h0.076c0.542,0,0.927,0.155,1.314,0.387c0.309,0.232,0.619,0.619,0.772,1.082
		c0.231,0.387,0.31,0.927,0.31,1.392c0,0.619-0.077,1.082-0.31,1.545s-0.541,0.85-0.927,1.082c-0.387,0.232-0.773,0.387-1.237,0.387
		l0,0V8.672c0.386,0,0.773-0.232,1.082-0.542c0.231-0.387,0.386-0.927,0.386-1.7c0-0.697-0.077-1.237-0.386-1.545
		c-0.31-0.387-0.696-0.542-1.082-0.542l0,0L19.915,3.571L19.915,3.571z M17.52,11.453V3.725h0.849V4.42
		c0.231-0.232,0.464-0.463,0.695-0.619c0.234-0.155,0.542-0.155,0.851-0.231v0.773c-0.388,0-0.773,0.155-1.082,0.542
		s-0.464,0.928-0.464,1.623c0,0.772,0.155,1.314,0.464,1.623s0.618,0.542,1.082,0.542l0,0v0.773c-0.31,0-0.542-0.077-0.773-0.232
		c-0.31-0.155-0.463-0.309-0.619-0.463v2.706H17.52V11.453z"/>
	<path d="M27.179,9.289v-0.85c-0.465,0.695-1.006,1.005-1.778,1.005c-0.31,0-0.619-0.077-0.928-0.231
		c-0.31-0.077-0.464-0.232-0.619-0.463c-0.155-0.155-0.232-0.387-0.31-0.695c0-0.155-0.076-0.465-0.076-0.851V3.727h1.004v3.089
		c0,0.463,0,0.85,0,1.005c0.077,0.233,0.233,0.465,0.387,0.542c0.232,0.153,0.465,0.231,0.696,0.231c0.31,0,0.542-0.078,0.851-0.231
		c0.231-0.155,0.386-0.31,0.464-0.542c0.155-0.309,0.231-0.618,0.231-1.082V3.725h0.927v5.564H27.179z"/>
	<path d="M31.814,3.571c0.077,0,0.077,0,0.155,0c0.31,0,0.618,0.077,0.928,0.232c0.31,0.155,0.541,0.31,0.772,0.619
		c0.234,0.233,0.387,0.542,0.465,0.85c0.155,0.387,0.155,0.772,0.155,1.16c0,0.928-0.231,1.7-0.694,2.24
		c-0.465,0.463-1.006,0.773-1.701,0.773h-0.077V8.672c0.463,0,0.773-0.232,1.082-0.542c0.31-0.387,0.464-0.927,0.464-1.623
		c0-0.694-0.155-1.236-0.464-1.623c-0.31-0.31-0.618-0.542-1.004-0.542h-0.077V3.571H31.814z M30.347,9.289h-0.851v-7.65h0.927
		v2.705c0.387-0.464,0.851-0.695,1.392-0.773v0.773c-0.386,0.077-0.696,0.231-1.004,0.542c-0.31,0.387-0.463,0.928-0.463,1.545
		c0,0.695,0.076,1.158,0.231,1.468c0.31,0.465,0.773,0.773,1.237,0.773l0,0v0.773c-0.618-0.077-1.082-0.31-1.468-0.85V9.289z"/>
	<path d="M35.447,2.721V1.639h0.927v1.082H35.447L35.447,2.721z M35.447,9.289V3.725h0.927v5.564H35.447z"/>
	<path d="M37.456,7.666l0.927-0.155c0.076,0.309,0.232,0.618,0.463,0.85c0.231,0.154,0.541,0.309,1.005,0.309
		c0.386,0,0.773-0.155,0.927-0.309c0.231-0.155,0.31-0.387,0.31-0.618c0-0.232-0.078-0.387-0.232-0.465
		c-0.155-0.077-0.465-0.232-1.004-0.309c-0.696-0.232-1.16-0.387-1.392-0.463c-0.31-0.155-0.463-0.31-0.618-0.542
		c-0.155-0.231-0.231-0.463-0.231-0.771c0-0.233,0.076-0.464,0.155-0.695c0.155-0.233,0.309-0.387,0.463-0.542
		c0.155-0.077,0.386-0.155,0.618-0.233c0.231-0.077,0.541-0.155,0.85-0.155c0.386,0,0.773,0.077,1.082,0.232
		c0.386,0.076,0.619,0.31,0.773,0.463c0.155,0.232,0.231,0.541,0.31,0.928l-0.928,0.076c0-0.231-0.155-0.463-0.309-0.619
		c-0.233-0.232-0.542-0.31-0.928-0.31c-0.386,0-0.694,0.078-0.927,0.233c-0.155,0.155-0.232,0.31-0.232,0.541
		c0,0.078,0,0.234,0.078,0.31c0.077,0.077,0.232,0.155,0.387,0.233c0.076,0.076,0.386,0.155,0.85,0.231
		c0.618,0.232,1.158,0.388,1.39,0.464c0.232,0.077,0.464,0.31,0.619,0.463c0.155,0.233,0.231,0.542,0.231,0.85
		c0,0.31-0.076,0.619-0.31,0.85c-0.155,0.31-0.386,0.542-0.773,0.697c-0.31,0.155-0.773,0.231-1.158,0.231
		c-0.773,0-1.314-0.155-1.7-0.463C37.842,8.671,37.532,8.207,37.456,7.666z"/>
	<path d="M234.579,109.434l0.927-0.077c0.077,0.31,0.155,0.697,0.309,0.929c0.233,0.23,0.464,0.465,0.773,0.541
		c0.388,0.154,0.771,0.233,1.235,0.233c0.387,0,0.696,0,1.005-0.155c0.31-0.076,0.543-0.233,0.697-0.465
		c0.152-0.23,0.154-0.386,0.154-0.618c0-0.308,0-0.464-0.154-0.694c-0.155-0.155-0.388-0.311-0.697-0.388
		c-0.232-0.153-0.694-0.229-1.389-0.385c-0.696-0.233-1.161-0.388-1.47-0.543c-0.387-0.155-0.617-0.387-0.85-0.696
		c-0.157-0.233-0.233-0.617-0.233-0.927c0-0.388,0.077-0.772,0.31-1.081c0.232-0.387,0.542-0.617,1.004-0.773
		c0.387-0.154,0.853-0.309,1.391-0.309c0.544,0,1.082,0.154,1.471,0.309c0.463,0.156,0.772,0.465,1.006,0.773
		c0.233,0.386,0.387,0.771,0.387,1.235l-0.927,0.076c-0.077-0.464-0.233-0.853-0.542-1.081c-0.31-0.234-0.773-0.387-1.39-0.387
		c-0.617,0-1.007,0.076-1.316,0.308c-0.308,0.232-0.462,0.542-0.462,0.852c0,0.311,0.154,0.464,0.307,0.697
		c0.234,0.155,0.697,0.31,1.546,0.541c0.852,0.155,1.392,0.31,1.699,0.465c0.465,0.231,0.774,0.464,1.006,0.772
		c0.233,0.31,0.309,0.695,0.309,1.082c0,0.463-0.076,0.851-0.309,1.16c-0.232,0.388-0.619,0.697-1.006,0.853
		c-0.463,0.231-1.006,0.31-1.544,0.31c-0.695,0-1.234-0.078-1.699-0.31c-0.463-0.155-0.853-0.464-1.162-0.927
		C234.733,110.361,234.579,109.896,234.579,109.434z"/>
	<path d="M245.628,111.212c-0.386,0.233-0.695,0.464-1.08,0.618c-0.155,0.078-0.311,0.078-0.465,0.155v-0.773
		c0.233,0,0.465-0.076,0.618-0.153c0.31-0.232,0.542-0.388,0.697-0.697c0.076-0.232,0.155-0.542,0.155-0.928v-0.386
		c-0.388,0.154-0.853,0.308-1.471,0.386v-0.771c0.618-0.076,1.082-0.232,1.471-0.31c0-0.155,0-0.232,0-0.232
		c0-0.388-0.155-0.697-0.311-0.85c-0.232-0.234-0.617-0.311-1.082-0.311h-0.077v-0.771c0.077,0,0.155,0,0.233,0
		c0.463,0,0.85,0.076,1.158,0.154c0.311,0.153,0.544,0.231,0.62,0.463c0.153,0.154,0.309,0.31,0.309,0.617
		c0.077,0.157,0.077,0.465,0.077,0.852v1.237c0,0.926,0,1.467,0.076,1.699c0,0.232,0.077,0.463,0.232,0.697h-1.006
		C245.708,111.676,245.628,111.445,245.628,111.212z M244.083,111.985c-0.154,0-0.387,0-0.542,0c-0.617,0-1.082-0.155-1.39-0.465
		c-0.31-0.232-0.543-0.617-0.543-1.082c0-0.309,0.077-0.542,0.233-0.772c0.076-0.232,0.31-0.387,0.465-0.542
		c0.23-0.152,0.462-0.233,0.694-0.308c0.155-0.078,0.465-0.078,0.854-0.154h0.232v0.771h-0.077
		c-0.387,0.077-0.696,0.155-0.853,0.155c-0.155,0.076-0.309,0.231-0.387,0.308c-0.077,0.154-0.154,0.313-0.154,0.465
		c0,0.232,0.154,0.465,0.31,0.617c0.232,0.232,0.465,0.31,0.851,0.31c0.078,0,0.233-0.077,0.311-0.077L244.083,111.985
		L244.083,111.985z M244.083,106.963c-0.387,0-0.695,0.076-0.927,0.231c-0.155,0.153-0.309,0.463-0.463,0.851l-0.852-0.155
		c0.076-0.386,0.154-0.695,0.386-0.927c0.153-0.232,0.465-0.465,0.852-0.615c0.311-0.077,0.617-0.154,1.006-0.154L244.083,106.963
		L244.083,106.963z"/>
	<path d="M251.579,109.82l0.927,0.154c-0.153,0.619-0.386,1.084-0.772,1.471c-0.464,0.388-0.928,0.544-1.546,0.544
		c-0.772,0-1.389-0.234-1.854-0.696c-0.462-0.542-0.696-1.237-0.696-2.164c0-0.617,0.078-1.162,0.31-1.625
		c0.154-0.387,0.465-0.772,0.926-1.006c0.386-0.232,0.851-0.31,1.314-0.31c0.618,0,1.082,0.154,1.47,0.465
		c0.388,0.31,0.62,0.695,0.772,1.313l-0.927,0.155c-0.078-0.387-0.233-0.697-0.463-0.852c-0.233-0.232-0.543-0.308-0.853-0.308
		c-0.464,0-0.85,0.152-1.159,0.541c-0.234,0.31-0.388,0.854-0.388,1.547c0,0.771,0.077,1.315,0.388,1.7
		c0.31,0.309,0.695,0.462,1.159,0.462c0.31,0,0.618-0.077,0.928-0.309C251.346,110.671,251.502,110.285,251.579,109.82z"/>
	<path d="M253.278,111.908v-5.561h0.854v0.77c0.231-0.386,0.386-0.619,0.617-0.77c0.154-0.077,0.386-0.154,0.619-0.154
		c0.308,0,0.617,0.076,0.927,0.305l-0.31,0.854c-0.233-0.154-0.465-0.234-0.697-0.234c-0.23,0-0.386,0.078-0.541,0.234
		c-0.157,0.154-0.31,0.31-0.387,0.543c-0.076,0.31-0.154,0.696-0.154,1.084v2.937h-0.928V111.908L253.278,111.908z"/>
	<path d="M260.466,111.212c-0.31,0.233-0.617,0.464-1.006,0.618c-0.155,0.078-0.308,0.078-0.465,0.155v-0.773
		c0.235,0,0.465-0.076,0.62-0.153c0.31-0.232,0.541-0.388,0.617-0.697c0.154-0.232,0.154-0.542,0.154-0.928v-0.386
		c-0.31,0.154-0.771,0.308-1.392,0.386v-0.771c0.62-0.076,1.082-0.232,1.392-0.31c0.076-0.155,0.076-0.232,0.076-0.232
		c0-0.388-0.155-0.697-0.31-0.85c-0.232-0.234-0.618-0.311-1.082-0.311h-0.076v-0.771c0.076,0,0.157,0,0.235,0
		c0.459,0,0.849,0.076,1.159,0.154c0.308,0.153,0.539,0.231,0.617,0.463c0.154,0.154,0.232,0.31,0.31,0.617
		c0.076,0.157,0.076,0.465,0.076,0.852v1.237c0,0.926,0,1.467,0.077,1.699c0,0.232,0.076,0.463,0.232,0.697h-1.005
		C260.619,111.676,260.542,111.445,260.466,111.212z M258.995,111.985c-0.154,0-0.385,0-0.54,0c-0.617,0-1.081-0.155-1.392-0.465
		c-0.387-0.232-0.543-0.617-0.543-1.082c0-0.309,0.077-0.542,0.233-0.772c0.076-0.232,0.232-0.387,0.462-0.542
		c0.232-0.154,0.462-0.233,0.696-0.308c0.155-0.078,0.462-0.078,0.85-0.154h0.233v0.771h-0.076
		c-0.388,0.077-0.697,0.155-0.851,0.155c-0.155,0.076-0.31,0.231-0.386,0.308c-0.078,0.154-0.153,0.313-0.153,0.465
		c0,0.232,0.153,0.465,0.311,0.617c0.232,0.232,0.462,0.31,0.85,0.31c0.077,0,0.233-0.077,0.309-0.077v0.773L258.995,111.985
		L258.995,111.985z M258.995,106.963c-0.385,0-0.694,0.076-0.925,0.231c-0.154,0.153-0.31,0.463-0.465,0.851l-0.927-0.155
		c0.154-0.386,0.233-0.695,0.463-0.927c0.155-0.232,0.464-0.465,0.853-0.615c0.31-0.077,0.62-0.154,1.006-0.154v0.77H258.995
		L258.995,106.963z"/>
	<rect x="262.783" y="104.18" width="1.006" height="7.729"/>
	<path d="M270.591,106.188h0.074c0.465,0,0.928,0.076,1.237,0.386c0.386,0.233,0.696,0.543,0.851,1.006
		c0.155,0.462,0.31,0.927,0.31,1.471c0,0.543-0.154,1.08-0.31,1.544c-0.232,0.465-0.542,0.773-0.925,1.006
		c-0.387,0.31-0.771,0.387-1.234,0.387l0,0v-0.773c0.385,0,0.77-0.153,1.005-0.543c0.308-0.308,0.462-0.852,0.462-1.623
		c0-0.695-0.154-1.236-0.386-1.625c-0.31-0.31-0.697-0.542-1.079-0.542l0,0v-0.695h-0.005V106.188z M268.193,113.994v-7.651h0.851
		v0.696c0.232-0.31,0.465-0.543,0.695-0.618c0.234-0.155,0.544-0.232,0.854-0.232v0.695c-0.388,0.076-0.772,0.233-1.082,0.617
		c-0.31,0.387-0.465,0.928-0.465,1.626c0,0.695,0.155,1.236,0.465,1.544c0.31,0.388,0.62,0.543,1.006,0.543h0.077v0.773
		c-0.31,0-0.617-0.077-0.852-0.154c-0.231-0.155-0.463-0.311-0.617-0.542v2.705L268.193,113.994L268.193,113.994z"/>
	<path d="M274.142,111.908v-5.561h0.853v0.77c0.232-0.386,0.463-0.619,0.618-0.77c0.154-0.077,0.386-0.154,0.617-0.154
		c0.31,0,0.619,0.076,0.927,0.305l-0.308,0.854c-0.233-0.154-0.465-0.234-0.697-0.234c-0.154,0-0.386,0.078-0.541,0.234
		c-0.157,0.154-0.312,0.31-0.312,0.543c-0.153,0.31-0.231,0.696-0.231,1.084v2.937h-0.927L274.142,111.908L274.142,111.908z"/>
	<path d="M280.015,106.188L280.015,106.188c0.771,0,1.391,0.232,1.853,0.774c0.465,0.462,0.774,1.158,0.774,2.086
		c0,0.695-0.154,1.236-0.387,1.622c-0.153,0.465-0.464,0.774-0.924,1.007c-0.387,0.232-0.854,0.31-1.316,0.31l0,0v-0.773l0,0
		c0.461,0,0.852-0.153,1.158-0.543c0.31-0.308,0.464-0.851,0.464-1.622c0-0.696-0.154-1.236-0.464-1.546
		c-0.307-0.388-0.696-0.54-1.158-0.54l0,0V106.188L280.015,106.188z M277.388,109.124c0-1.082,0.309-1.854,0.851-2.318
		c0.465-0.388,1.082-0.617,1.78-0.617v0.774c-0.464,0-0.853,0.152-1.161,0.54c-0.31,0.31-0.465,0.852-0.465,1.624
		c0,0.697,0.155,1.236,0.465,1.544c0.308,0.388,0.696,0.543,1.161,0.543v0.773c-0.773,0-1.392-0.232-1.936-0.773
		C277.622,110.75,277.388,110.051,277.388,109.124z"/>
	<path d="M283.722,111.908v-5.561h0.852v0.77c0.155-0.31,0.387-0.542,0.697-0.695c0.308-0.155,0.617-0.233,1.003-0.233
		c0.388,0,0.697,0.077,1.008,0.233c0.232,0.153,0.464,0.464,0.542,0.695c0.465-0.619,1.007-0.924,1.7-0.924
		c0.543,0,1.007,0.154,1.316,0.46c0.311,0.31,0.387,0.771,0.387,1.392v3.863h-0.926v-3.554c0-0.386,0-0.619-0.076-0.772
		c-0.078-0.232-0.155-0.31-0.311-0.465c-0.152-0.076-0.387-0.154-0.542-0.154c-0.462,0-0.772,0.154-1.006,0.462
		c-0.233,0.233-0.387,0.62-0.387,1.237v3.246h-0.926v-3.633c0-0.463-0.076-0.772-0.232-0.928c-0.155-0.232-0.465-0.385-0.772-0.385
		c-0.233,0-0.543,0.076-0.772,0.231c-0.154,0.153-0.387,0.386-0.465,0.618c-0.077,0.309-0.154,0.697-0.154,1.159v2.937H283.722z"/>
	<path d="M294.929,106.188L294.929,106.188c0.771,0,1.389,0.232,1.854,0.774c0.465,0.462,0.772,1.158,0.772,2.086
		c0,0.695-0.155,1.236-0.388,1.622c-0.156,0.465-0.463,0.774-0.928,1.007c-0.387,0.232-0.852,0.31-1.315,0.31l0,0v-0.773l0,0
		c0.464,0,0.852-0.153,1.161-0.543c0.309-0.308,0.464-0.851,0.464-1.622c0-0.696-0.155-1.236-0.464-1.546
		c-0.31-0.388-0.695-0.54-1.161-0.54l0,0v-0.774H294.929L294.929,106.188z M292.301,109.124c0-1.082,0.31-1.854,0.854-2.318
		c0.461-0.388,1.079-0.617,1.776-0.617v0.774c-0.465,0-0.853,0.152-1.162,0.54c-0.306,0.31-0.461,0.852-0.461,1.624
		c0,0.697,0.155,1.236,0.461,1.544c0.31,0.388,0.697,0.543,1.162,0.543v0.773c-0.772,0-1.389-0.232-1.932-0.773
		C292.534,110.75,292.301,110.051,292.301,109.124z"/>
	<path d="M298.639,111.908v-5.561h0.849v0.77c0.387-0.619,1.007-0.924,1.781-0.924c0.308,0,0.617,0.076,0.927,0.154
		c0.232,0.15,0.463,0.306,0.617,0.46c0.155,0.233,0.232,0.465,0.311,0.697c0,0.232,0,0.542,0,0.927v3.48h-0.928v-3.4
		c0-0.386,0-0.695-0.077-0.852c-0.076-0.232-0.232-0.388-0.386-0.464c-0.233-0.153-0.463-0.233-0.697-0.233
		c-0.386,0-0.696,0.154-1.006,0.387c-0.308,0.311-0.465,0.773-0.465,1.472v3.091h-0.925L298.639,111.908L298.639,111.908z"/>
	<path d="M306.675,111.059l0.154,0.771c-0.31,0.078-0.541,0.078-0.771,0.078c-0.311,0-0.62,0-0.775-0.155
		c-0.154-0.077-0.309-0.233-0.386-0.388s-0.154-0.542-0.154-1.159v-3.171h-0.697v-0.697h0.697v-1.392l0.927-0.617v2.009h1.006v0.697
		h-1.006v3.245c0,0.309,0.076,0.465,0.076,0.543c0.077,0.076,0.077,0.155,0.153,0.155c0.078,0.076,0.233,0.076,0.311,0.076
		C306.366,111.059,306.519,111.059,306.675,111.059z"/>
	<path d="M309.845,106.188L309.845,106.188c0.771,0,1.389,0.232,1.854,0.774c0.462,0.462,0.772,1.158,0.772,2.086
		c0,0.695-0.155,1.236-0.388,1.622c-0.153,0.465-0.463,0.774-0.927,1.007c-0.386,0.232-0.851,0.31-1.313,0.31l0,0v-0.773l0,0
		c0.463,0,0.85-0.153,1.158-0.543c0.311-0.308,0.464-0.851,0.464-1.622c0-0.696-0.153-1.236-0.464-1.546
		c-0.309-0.388-0.695-0.54-1.158-0.54l0,0v-0.774H309.845z M307.216,109.124c0-1.082,0.307-1.854,0.85-2.318
		c0.464-0.388,1.081-0.617,1.78-0.617v0.774c-0.465,0-0.854,0.152-1.162,0.54c-0.31,0.31-0.464,0.852-0.464,1.624
		c0,0.697,0.154,1.236,0.464,1.544c0.309,0.388,0.697,0.543,1.162,0.543v0.773c-0.775,0-1.393-0.232-1.935-0.773
		C307.448,110.75,307.216,110.051,307.216,109.124z"/>
	<path d="M313.553,111.908v-5.561h0.852v0.77c0.233-0.386,0.388-0.619,0.618-0.77c0.155-0.077,0.388-0.154,0.544-0.154
		c0.305,0,0.694,0.076,1.004,0.305l-0.31,0.854c-0.232-0.154-0.465-0.234-0.694-0.234c-0.235,0-0.388,0.078-0.544,0.234
		c-0.232,0.154-0.31,0.31-0.386,0.543c-0.077,0.31-0.152,0.696-0.152,1.084v2.937h-0.93v-0.005h-0.002V111.908z"/>
	<path d="M317.106,113.994l-0.154-0.852c0.231,0.076,0.387,0.076,0.542,0.076c0.232,0,0.386-0.076,0.542-0.076
		c0.077-0.078,0.233-0.234,0.309-0.308c0.077-0.078,0.155-0.31,0.233-0.697c0.076-0.077,0.076-0.153,0.157-0.232l-2.164-5.563h1.006
		l1.159,3.169c0.155,0.462,0.311,0.85,0.463,1.314c0.076-0.465,0.232-0.853,0.386-1.314l1.161-3.169h0.927l-2.088,5.642
		c-0.232,0.617-0.386,1.005-0.542,1.235c-0.155,0.31-0.388,0.542-0.543,0.697c-0.232,0.154-0.543,0.232-0.853,0.232
		C317.493,114.149,317.338,114.071,317.106,113.994z"/>
	<path d="M234.579,129.834l0.927-0.078c0.077,0.311,0.155,0.697,0.309,0.928c0.233,0.232,0.464,0.464,0.773,0.542
		c0.388,0.152,0.771,0.232,1.235,0.232c0.387,0,0.696,0,1.005-0.154c0.31-0.076,0.543-0.233,0.697-0.465
		c0.153-0.23,0.154-0.386,0.154-0.617c0-0.309,0-0.463-0.154-0.695c-0.155-0.155-0.388-0.31-0.697-0.388
		c-0.232-0.154-0.694-0.232-1.389-0.387c-0.696-0.232-1.161-0.387-1.47-0.543c-0.387-0.154-0.617-0.387-0.85-0.696
		c-0.157-0.232-0.233-0.616-0.233-0.925c0-0.388,0.077-0.774,0.31-1.082c0.232-0.388,0.542-0.618,1.004-0.773
		c0.387-0.155,0.853-0.31,1.391-0.31c0.544,0,1.082,0.154,1.471,0.31c0.463,0.155,0.772,0.462,1.006,0.773
		c0.233,0.386,0.387,0.772,0.387,1.235l-0.927,0.076c-0.077-0.462-0.233-0.85-0.542-1.082c-0.31-0.23-0.773-0.386-1.39-0.386
		c-0.617,0-1.007,0.076-1.316,0.309c-0.308,0.232-0.462,0.541-0.462,0.85c0,0.31,0.154,0.464,0.307,0.697
		c0.234,0.155,0.697,0.31,1.546,0.541c0.852,0.156,1.392,0.31,1.699,0.465c0.465,0.233,0.774,0.463,1.006,0.771
		c0.233,0.311,0.309,0.696,0.309,1.084c0,0.463-0.076,0.85-0.309,1.161c-0.232,0.388-0.619,0.696-1.006,0.851
		c-0.463,0.234-1.006,0.309-1.544,0.309c-0.695,0-1.234-0.077-1.699-0.309c-0.463-0.154-0.853-0.463-1.162-0.927
		C234.733,130.761,234.579,130.298,234.579,129.834z"/>
	<path d="M244.009,131.456l0.152,0.773c-0.232,0.078-0.542,0.078-0.695,0.078c-0.387,0-0.618,0-0.853-0.155
		c-0.154-0.077-0.307-0.233-0.387-0.388c-0.076-0.154-0.076-0.542-0.076-1.161v-3.17h-0.697v-0.695h0.697v-1.389l0.927-0.618v2.009
		h0.927v0.696h-0.927v3.244c0,0.31,0,0.465,0.076,0.542c0,0.078,0.077,0.152,0.155,0.152c0.077,0.078,0.154,0.078,0.309,0.078
		C243.699,131.456,243.854,131.456,244.009,131.456z"/>
	<path d="M244.933,132.308v-5.563h0.853v0.771c0.233-0.387,0.387-0.616,0.618-0.771c0.154-0.078,0.387-0.154,0.617-0.154
		c0.31,0,0.618,0.076,0.928,0.309l-0.31,0.849c-0.232-0.153-0.464-0.232-0.696-0.232c-0.233,0-0.387,0.076-0.543,0.232
		c-0.155,0.156-0.309,0.31-0.386,0.542c-0.078,0.311-0.155,0.697-0.155,1.082v2.938h-0.927L244.933,132.308L244.933,132.308z"/>
	<path d="M252.119,131.612c-0.311,0.232-0.697,0.464-1.007,0.617c-0.155,0.078-0.311,0.078-0.465,0.155v-0.772
		c0.233,0,0.465-0.077,0.618-0.156c0.31-0.23,0.543-0.386,0.618-0.695c0.154-0.233,0.154-0.544,0.154-0.927v-0.388
		c-0.308,0.155-0.772,0.31-1.391,0.388v-0.772c0.618-0.077,1.083-0.233,1.391-0.31c0-0.155,0-0.234,0-0.234
		c0-0.386-0.077-0.695-0.232-0.853c-0.234-0.232-0.62-0.308-1.082-0.308h-0.078v-0.772c0.078,0,0.155,0,0.234,0
		c0.462,0,0.851,0.078,1.158,0.153c0.311,0.154,0.464,0.233,0.618,0.462c0.156,0.155,0.233,0.31,0.311,0.619
		c0,0.155,0.078,0.463,0.078,0.853v1.236c0,0.926,0,1.472,0,1.701c0.076,0.233,0.154,0.463,0.31,0.695h-1.006
		C252.273,132.076,252.197,131.843,252.119,131.612z M250.65,132.385c-0.153,0-0.386,0-0.541,0c-0.617,0-1.081-0.155-1.392-0.464
		c-0.387-0.23-0.542-0.618-0.542-1.083c0-0.308,0.077-0.54,0.233-0.771c0.076-0.233,0.233-0.387,0.463-0.541
		c0.232-0.155,0.386-0.233,0.695-0.31c0.154-0.078,0.464-0.078,0.853-0.155h0.232v0.772h-0.154
		c-0.386,0.076-0.618,0.154-0.773,0.154c-0.151,0.076-0.306,0.232-0.386,0.31c-0.075,0.155-0.155,0.308-0.155,0.463
		c0,0.232,0.155,0.465,0.311,0.619c0.154,0.232,0.462,0.311,0.853,0.311c0.076,0,0.152-0.078,0.307-0.078L250.65,132.385
		L250.65,132.385z M250.65,127.362c-0.386,0-0.695,0.076-0.927,0.231c-0.153,0.153-0.309,0.463-0.464,0.851l-0.926-0.155
		c0.078-0.386,0.232-0.695,0.465-0.923c0.155-0.233,0.461-0.464,0.771-0.619c0.309-0.077,0.696-0.153,1.08-0.153V127.362z"/>
	<path d="M254.514,125.662v-1.082h0.928v1.082H254.514L254.514,125.662z M254.514,132.308v-5.563h0.928v5.563H254.514z"/>
	<path d="M258.995,133.776c0.386-0.077,0.696-0.155,0.93-0.31c0.231-0.155,0.385-0.388,0.462-0.697
		c0.076-0.232,0.076-0.617,0.076-1.236c-0.386,0.464-0.852,0.696-1.47,0.774v-0.853c0.465,0,0.771-0.153,1.082-0.462
		c0.31-0.31,0.464-0.853,0.464-1.547s-0.154-1.235-0.464-1.544c-0.311-0.388-0.617-0.542-1.082-0.542v-0.771
		c0.617,0,1.16,0.309,1.546,0.771v-0.618h0.852v4.791c0,0.851-0.076,1.469-0.232,1.854c-0.155,0.31-0.465,0.62-0.854,0.851
		c-0.385,0.155-0.772,0.311-1.314,0.311v-0.771H258.995z M256.678,132.772l0.927,0.077c0.078,0.309,0.155,0.542,0.311,0.618
		c0.233,0.233,0.541,0.31,1.006,0.31h0.076v0.772h-0.076c-0.697,0-1.237-0.155-1.625-0.465
		C256.912,133.776,256.678,133.312,256.678,132.772L256.678,132.772z M258.995,132.308h-0.075c-0.771,0-1.392-0.311-1.781-0.854
		c-0.386-0.543-0.617-1.235-0.617-2.009c0-0.544,0.077-1.006,0.309-1.468c0.155-0.465,0.465-0.775,0.773-1.008
		c0.388-0.309,0.852-0.387,1.316-0.387h0.075v0.772l0,0c-0.461,0-0.771,0.152-1.079,0.543c-0.311,0.309-0.464,0.854-0.464,1.471
		c0,0.771,0.153,1.314,0.464,1.624c0.309,0.309,0.618,0.462,1.079,0.462l0,0V132.308L258.995,132.308z"/>
	<path d="M262.86,132.308v-7.728h0.928v2.782c0.462-0.543,1.004-0.772,1.699-0.772c0.386,0,0.695,0.076,1.004,0.231
		c0.31,0.153,0.544,0.388,0.697,0.697c0.155,0.231,0.155,0.695,0.155,1.235v3.556h-0.928v-3.556c0-0.465-0.077-0.852-0.31-1.007
		c-0.155-0.232-0.465-0.385-0.854-0.385c-0.309,0-0.542,0.076-0.771,0.231c-0.232,0.153-0.465,0.386-0.542,0.618
		c-0.078,0.232-0.153,0.542-0.153,1.007v3.094h-0.927L262.86,132.308L262.86,132.308z"/>
	<path d="M270.896,131.456l0.077,0.773c-0.233,0.078-0.464,0.078-0.696,0.078c-0.307,0-0.616,0-0.771-0.155
		c-0.232-0.077-0.31-0.233-0.387-0.388c-0.078-0.154-0.155-0.542-0.155-1.161v-3.17h-0.696v-0.695h0.696v-1.389l0.926-0.618v2.009
		h1.006v0.696h-1.006v3.244c0,0.31,0.076,0.465,0.076,0.542c0,0.079,0.077,0.152,0.155,0.152c0.077,0.078,0.153,0.078,0.309,0.078
		C270.584,131.453,270.664,131.456,270.896,131.456z"/>
	<path d="M274.375,130.605l0.925-0.152c0.076,0.385,0.232,0.696,0.464,0.85c0.232,0.232,0.543,0.31,1.006,0.31
		c0.464,0,0.773-0.077,0.928-0.232c0.233-0.233,0.387-0.387,0.387-0.619c0-0.233-0.152-0.388-0.308-0.544
		c-0.154-0.076-0.465-0.153-1.007-0.309c-0.618-0.154-1.158-0.31-1.392-0.464c-0.308-0.078-0.464-0.309-0.618-0.543
		c-0.154-0.232-0.23-0.462-0.23-0.695c0-0.309,0.076-0.544,0.23-0.696c0.077-0.232,0.233-0.387,0.387-0.542
		c0.153-0.077,0.387-0.232,0.617-0.309c0.311-0.076,0.543-0.076,0.852-0.076c0.387,0,0.773,0.076,1.161,0.155
		c0.308,0.154,0.543,0.307,0.696,0.54c0.153,0.231,0.31,0.463,0.31,0.852l-0.928,0.154c0-0.31-0.155-0.542-0.309-0.695
		c-0.232-0.154-0.543-0.233-0.853-0.233c-0.465,0-0.771,0.077-0.927,0.233c-0.233,0.153-0.31,0.31-0.31,0.463
		c0,0.155,0.076,0.232,0.154,0.311c0.076,0.154,0.155,0.232,0.311,0.309c0.076,0,0.386,0.076,0.851,0.233
		c0.697,0.154,1.161,0.31,1.391,0.465c0.31,0.076,0.463,0.23,0.619,0.462c0.154,0.232,0.233,0.465,0.233,0.772
		c0,0.31-0.077,0.619-0.233,0.927c-0.232,0.232-0.465,0.465-0.852,0.62c-0.311,0.154-0.697,0.232-1.162,0.232
		c-0.696,0-1.236-0.155-1.623-0.464C274.76,131.612,274.529,131.226,274.375,130.605z"/>
	<path d="M283.802,131.612c-0.387,0.232-0.696,0.464-1.006,0.617c-0.232,0.078-0.388,0.078-0.542,0.155v-0.772
		c0.233,0,0.463-0.077,0.696-0.156c0.232-0.23,0.465-0.386,0.618-0.695c0.077-0.233,0.154-0.544,0.154-0.927v-0.388
		c-0.387,0.155-0.851,0.31-1.469,0.388v-0.772c0.618-0.077,1.082-0.233,1.469-0.31c0-0.155,0-0.234,0-0.234
		c0-0.386-0.154-0.695-0.308-0.853c-0.233-0.232-0.619-0.308-1.082-0.308h-0.077v-0.772c0.077,0,0.154,0,0.233,0
		c0.465,0,0.852,0.078,1.161,0.153c0.309,0.154,0.542,0.233,0.697,0.462c0.076,0.155,0.232,0.31,0.232,0.619
		c0.077,0.155,0.077,0.463,0.077,0.853v1.236c0,0.926,0,1.472,0.076,1.701c0,0.233,0.077,0.463,0.233,0.695h-1.004
		C283.88,132.076,283.802,131.843,283.802,131.612z M282.256,132.385c-0.151,0-0.386,0-0.542,0c-0.617,0-1.08-0.155-1.39-0.464
		c-0.309-0.23-0.542-0.618-0.542-1.083c0-0.308,0.076-0.54,0.232-0.771c0.077-0.233,0.309-0.387,0.46-0.541
		c0.234-0.155,0.465-0.233,0.695-0.31c0.159-0.078,0.464-0.078,0.854-0.155h0.232v0.772h-0.076c-0.385,0.076-0.695,0.154-0.85,0.154
		c-0.155,0.076-0.31,0.232-0.388,0.31c-0.076,0.155-0.154,0.308-0.154,0.463c0,0.232,0.154,0.465,0.309,0.619
		c0.232,0.232,0.462,0.311,0.852,0.311c0.077,0,0.231-0.078,0.308-0.078V132.385L282.256,132.385z M282.256,127.362
		c-0.386,0-0.696,0.076-0.85,0.231c-0.232,0.153-0.386,0.463-0.542,0.851l-0.853-0.155c0.078-0.386,0.151-0.695,0.388-0.923
		c0.151-0.233,0.461-0.464,0.85-0.619c0.308-0.077,0.617-0.153,1.006-0.153L282.256,127.362L282.256,127.362z"/>
	<path d="M289.753,130.221l0.927,0.155c-0.077,0.618-0.387,1.08-0.771,1.469c-0.465,0.388-0.927,0.544-1.547,0.544
		c-0.772,0-1.39-0.233-1.854-0.696c-0.462-0.542-0.696-1.236-0.696-2.164c0-0.619,0.078-1.16,0.309-1.624
		c0.233-0.386,0.465-0.773,0.929-1.004c0.387-0.234,0.852-0.309,1.313-0.309c0.62,0,1.082,0.153,1.471,0.462
		c0.387,0.31,0.618,0.694,0.773,1.314l-0.928,0.154c-0.076-0.386-0.232-0.695-0.463-0.852c-0.232-0.233-0.542-0.308-0.853-0.308
		c-0.462,0-0.851,0.152-1.159,0.541c-0.232,0.309-0.386,0.853-0.386,1.545c0,0.772,0.076,1.316,0.386,1.701
		c0.309,0.308,0.697,0.464,1.159,0.464c0.387,0,0.696-0.077,0.928-0.311C289.519,131.07,289.675,130.685,289.753,130.221z"/>
	<path d="M291.455,132.308v-5.563h0.851v0.771c0.233-0.387,0.461-0.616,0.616-0.771c0.154-0.078,0.387-0.154,0.619-0.154
		c0.308,0,0.617,0.076,0.925,0.309l-0.308,0.849c-0.232-0.153-0.465-0.232-0.695-0.232c-0.234,0-0.388,0.076-0.544,0.232
		c-0.151,0.156-0.306,0.31-0.386,0.542c-0.078,0.311-0.155,0.697-0.155,1.082v2.938h-0.923V132.308L291.455,132.308z"/>
	<path d="M298.715,132.308v-0.854c-0.464,0.619-1.082,0.929-1.776,0.929c-0.311,0-0.62-0.078-0.928-0.155
		c-0.31-0.154-0.464-0.309-0.619-0.463c-0.152-0.231-0.233-0.464-0.31-0.696c0-0.232-0.078-0.543-0.078-0.93v-3.398h0.928v3.016
		c0,0.542,0.077,0.853,0.077,1.007c0.076,0.311,0.232,0.465,0.386,0.62c0.233,0.152,0.464,0.232,0.697,0.232
		c0.308,0,0.541-0.078,0.851-0.232c0.234-0.155,0.388-0.388,0.464-0.62c0.155-0.233,0.155-0.617,0.155-1.082v-2.935h1.005v5.563
		h-0.852V132.308z"/>
	<path d="M301.033,132.308v-5.563h0.852v0.771c0.154-0.308,0.386-0.543,0.695-0.697c0.233-0.154,0.62-0.232,1.007-0.232
		s0.696,0.078,1.006,0.232c0.233,0.154,0.388,0.464,0.542,0.697c0.465-0.616,1.006-0.925,1.702-0.925
		c0.541,0,1.002,0.154,1.312,0.463c0.232,0.31,0.386,0.771,0.386,1.392v3.863h-0.926v-3.556c0-0.388,0-0.617-0.077-0.772
		c-0.076-0.233-0.155-0.31-0.31-0.465c-0.155-0.077-0.387-0.152-0.617-0.152c-0.387,0-0.696,0.152-0.928,0.462
		c-0.309,0.232-0.386,0.62-0.386,1.237v3.246h-0.927v-3.636c0-0.464-0.077-0.772-0.232-0.929c-0.155-0.233-0.464-0.386-0.773-0.386
		c-0.309,0-0.542,0.076-0.773,0.232c-0.231,0.153-0.386,0.388-0.463,0.618c-0.077,0.31-0.154,0.696-0.154,1.163v2.937H301.033z"/>
	<polygon points="234.887,148.226 234.887,140.575 235.969,140.575 239.987,146.603 239.987,140.575 240.992,140.575 
		240.992,148.226 239.91,148.226 235.895,142.197 235.895,148.226 	"/>
	<path d="M244.781,142.585L244.781,142.585c0.772,0,1.39,0.23,1.934,0.771c0.463,0.465,0.697,1.159,0.697,2.009
		c0,0.772-0.077,1.314-0.31,1.698c-0.233,0.465-0.544,0.772-0.927,1.007c-0.388,0.231-0.854,0.309-1.393,0.309l0,0v-0.771l0,0
		c0.465,0,0.928-0.155,1.237-0.544c0.308-0.306,0.465-0.849,0.465-1.623c0-0.697-0.157-1.235-0.465-1.545
		c-0.388-0.387-0.772-0.544-1.237-0.544l0,0v-0.767H244.781L244.781,142.585z M242.228,145.443c0-1.005,0.233-1.777,0.851-2.241
		c0.465-0.388,1.006-0.617,1.702-0.617v0.771c-0.465,0-0.853,0.155-1.162,0.541c-0.309,0.31-0.463,0.851-0.463,1.546
		c0,0.774,0.154,1.314,0.463,1.624c0.31,0.387,0.697,0.543,1.162,0.543v0.772c-0.772,0-1.392-0.233-1.856-0.772
		C242.46,147.145,242.228,146.45,242.228,145.443z"/>
	<path d="M248.489,148.226v-5.563h0.85v0.85c0.234-0.385,0.465-0.617,0.619-0.772c0.153-0.076,0.387-0.152,0.618-0.152
		c0.31,0,0.617,0.077,0.927,0.308l-0.31,0.853c-0.232-0.154-0.463-0.233-0.696-0.233c-0.153,0-0.386,0.078-0.542,0.233
		c-0.152,0.077-0.308,0.31-0.308,0.544c-0.155,0.31-0.155,0.695-0.155,1.082v2.859h-1.007L248.489,148.226L248.489,148.226z"/>
	<path d="M252.119,148.226v-5.563h0.852v0.85c0.153-0.308,0.386-0.541,0.696-0.696c0.232-0.153,0.617-0.23,0.927-0.23
		c0.465,0,0.774,0.076,1.082,0.23c0.232,0.155,0.386,0.387,0.542,0.696c0.464-0.617,1.007-0.925,1.7-0.925
		c0.544,0,1.006,0.152,1.315,0.462c0.232,0.308,0.387,0.772,0.387,1.393v3.787h-0.928v-3.48c0-0.386,0-0.617-0.076-0.771
		c-0.077-0.232-0.154-0.311-0.31-0.465c-0.155-0.076-0.388-0.155-0.62-0.155c-0.387,0-0.696,0.155-0.924,0.388
		c-0.311,0.309-0.388,0.697-0.388,1.314v3.17h-1.005v-3.554c0-0.464-0.078-0.773-0.233-1.006c-0.076-0.155-0.386-0.31-0.695-0.31
		c-0.308,0-0.544,0.077-0.772,0.232c-0.233,0.154-0.387,0.387-0.465,0.618c-0.077,0.309-0.152,0.695-0.152,1.16v2.861h-0.93v-0.004
		h-0.003V148.226z"/>
	<path d="M264.637,147.608c-0.308,0.23-0.619,0.463-1.005,0.617c-0.155,0.076-0.31,0.076-0.465,0.154v-0.771
		c0.232,0,0.465-0.076,0.62-0.233c0.307-0.153,0.542-0.308,0.617-0.617c0.154-0.232,0.154-0.54,0.154-0.928v-0.386
		c-0.31,0.156-0.771,0.31-1.392,0.386v-0.771c0.62-0.155,1.082-0.232,1.392-0.311c0-0.154,0-0.232,0-0.232
		c0-0.387-0.077-0.694-0.233-0.85c-0.232-0.233-0.618-0.31-1.083-0.31h-0.076v-0.771c0.076,0,0.154,0,0.232,0
		c0.465,0,0.854,0.076,1.16,0.154c0.313,0.076,0.465,0.231,0.62,0.386c0.154,0.231,0.232,0.387,0.31,0.696
		c0.076,0.155,0.076,0.462,0.076,0.853v1.236c0,0.927,0,1.47,0.077,1.7c0,0.233,0.077,0.464,0.232,0.617h-1.004
		C264.792,148.071,264.715,147.839,264.637,147.608z M263.168,148.38c-0.152,0-0.387,0-0.542,0c-0.618,0-1.083-0.154-1.392-0.464
		c-0.387-0.308-0.542-0.617-0.542-1.081c0-0.31,0.076-0.542,0.232-0.773c0.077-0.231,0.233-0.386,0.464-0.541
		c0.232-0.155,0.388-0.233,0.697-0.31c0.155-0.078,0.465-0.078,0.853-0.152h0.233v0.771h-0.155
		c-0.387,0.076-0.617,0.076-0.771,0.152c-0.155,0.075-0.311,0.232-0.388,0.311c-0.076,0.154-0.155,0.31-0.155,0.465
		c0,0.231,0.155,0.462,0.311,0.617c0.153,0.154,0.463,0.31,0.852,0.31c0.076,0,0.232-0.077,0.31-0.077v0.771L263.168,148.38
		L263.168,148.38z M263.168,143.356c-0.387,0-0.697,0.079-0.927,0.233c-0.155,0.155-0.308,0.464-0.463,0.852l-0.929-0.155
		c0.076-0.386,0.232-0.696,0.465-0.927c0.154-0.308,0.464-0.465,0.851-0.617c0.233-0.076,0.618-0.155,1.007-0.155v0.77H263.168z"/>
	<rect x="266.956" y="140.575" width="1.006" height="7.65"/>
	<path d="M269.663,148.226v-1.007h1.082v1.007c0,0.463-0.077,0.773-0.234,1.004c-0.155,0.234-0.385,0.388-0.695,0.544l-0.233-0.388
		c0.152-0.076,0.308-0.232,0.463-0.386c0.076-0.153,0.076-0.386,0.154-0.773L269.663,148.226L269.663,148.226z"/>
	<path d="M276.385,148.226l-1.699-5.563h1.006l0.854,3.246l0.308,1.236c0-0.077,0.154-0.465,0.31-1.162l0.85-3.324h1.007l0.85,3.246
		l0.233,1.082l0.386-1.082l0.929-3.246h0.927l-1.78,5.562h-0.927l-0.927-3.323l-0.232-0.928l-1.082,4.251L276.385,148.226
		L276.385,148.226z"/>
	<path d="M286.892,146.45l1.007,0.152c-0.155,0.543-0.465,1.007-0.852,1.316c-0.464,0.31-0.929,0.465-1.624,0.465h-0.077v-0.772
		h0.077c0.387,0,0.695-0.077,0.928-0.231C286.584,147.145,286.738,146.835,286.892,146.45L286.892,146.45z M285.347,142.585h0.078
		c0.695,0,1.315,0.23,1.78,0.771c0.463,0.465,0.696,1.159,0.696,2.087c0,0.077,0,0.156,0,0.31h-2.551v-0.772h1.541
		c0-0.465-0.154-0.852-0.309-1.083c-0.311-0.386-0.695-0.541-1.16-0.541h-0.077L285.347,142.585L285.347,142.585z M285.347,148.38
		c-0.773,0-1.392-0.233-1.855-0.771c-0.463-0.464-0.695-1.161-0.695-2.088s0.232-1.627,0.695-2.164
		c0.464-0.543,1.082-0.771,1.855-0.771v0.771c-0.387,0-0.773,0.155-1.006,0.387c-0.31,0.309-0.462,0.695-0.543,1.236h1.546v0.772
		h-1.546c0,0.618,0.153,1.082,0.462,1.392c0.311,0.309,0.697,0.464,1.084,0.464L285.347,148.38L285.347,148.38z"/>
	<rect x="289.055" y="140.575" width="0.928" height="7.65"/>
	<rect x="291.455" y="140.575" width="0.924" height="7.65"/>
	<rect x="293.461" y="144.98" width="2.937" height="1.005"/>
	<path d="M301.033,146.218l0.928,0.153c-0.076,0.618-0.309,1.082-0.773,1.468c-0.387,0.388-0.926,0.544-1.546,0.544
		c-0.771,0-1.391-0.233-1.854-0.772c-0.464-0.463-0.695-1.16-0.695-2.09c0-0.617,0.155-1.159,0.308-1.624
		c0.232-0.462,0.542-0.771,0.927-1.007c0.387-0.232,0.853-0.308,1.314-0.308c0.62,0,1.161,0.155,1.471,0.465
		c0.386,0.308,0.696,0.696,0.772,1.314l-0.928,0.077c-0.077-0.31-0.233-0.617-0.462-0.772c-0.233-0.233-0.465-0.31-0.772-0.31
		c-0.465,0-0.853,0.155-1.161,0.465c-0.311,0.386-0.464,0.927-0.464,1.623c0,0.774,0.153,1.315,0.464,1.701
		c0.232,0.309,0.618,0.464,1.08,0.464c0.388,0,0.697-0.077,0.929-0.31C300.802,147.067,300.957,146.68,301.033,146.218z"/>
	<path d="M306.44,148.226v-0.772c-0.462,0.618-1.007,0.927-1.778,0.927c-0.31,0-0.619-0.077-0.929-0.154
		c-0.309-0.154-0.463-0.31-0.613-0.464c-0.155-0.233-0.234-0.463-0.31-0.772c0-0.154-0.078-0.464-0.078-0.852v-3.479h1.005v3.091
		c0,0.544,0,0.854,0,1.006c0.077,0.308,0.233,0.462,0.387,0.617c0.232,0.155,0.463,0.233,0.696,0.233
		c0.307,0,0.616-0.077,0.853-0.233c0.23-0.155,0.386-0.386,0.541-0.617c0.077-0.232,0.154-0.619,0.154-1.082v-3.016h0.927v5.563
		L306.44,148.226L306.44,148.226z"/>
	<path d="M308.76,148.226v-5.563h0.853v0.85c0.233-0.385,0.387-0.617,0.543-0.772c0.232-0.076,0.386-0.152,0.62-0.152
		c0.31,0,0.694,0.077,1.004,0.308l-0.31,0.853c-0.232-0.154-0.464-0.233-0.694-0.233c-0.234,0-0.388,0.078-0.544,0.233
		c-0.232,0.077-0.309,0.31-0.386,0.544c-0.078,0.31-0.155,0.695-0.155,1.082v2.859h-0.927v-0.005h-0.004V148.226z"/>
	<path d="M313.863,148.226l-2.089-5.563h1.007l1.159,3.399c0.155,0.31,0.233,0.696,0.388,1.083c0.076-0.31,0.152-0.619,0.308-1.083
		l1.234-3.399h1.007l-2.089,5.563H313.863z"/>
	<path d="M321.511,146.45l0.927,0.152c-0.152,0.543-0.387,1.007-0.851,1.316c-0.386,0.31-0.927,0.465-1.545,0.465h-0.076v-0.772
		h0.076c0.309,0,0.618-0.077,0.852-0.231C321.204,147.145,321.356,146.835,321.511,146.45L321.511,146.45z M319.967,142.585
		L319.967,142.585c0.771,0,1.389,0.23,1.854,0.771c0.463,0.465,0.696,1.159,0.696,2.087c0,0.077,0,0.156,0,0.31h-2.55v-0.772h1.544
		c-0.077-0.465-0.155-0.852-0.388-1.083c-0.232-0.386-0.694-0.541-1.156-0.541l0,0V142.585z M319.967,148.38
		c-0.775,0-1.395-0.233-1.856-0.771c-0.463-0.464-0.697-1.161-0.697-2.088s0.233-1.627,0.697-2.164
		c0.462-0.543,1.081-0.771,1.856-0.771v0.771c-0.465,0-0.775,0.155-1.085,0.387c-0.31,0.309-0.462,0.695-0.462,1.236h1.547v0.772
		h-1.627c0.077,0.618,0.233,1.082,0.543,1.392c0.311,0.309,0.62,0.464,1.085,0.464L319.967,148.38L319.967,148.38z"/>
	<path d="M327.305,148.226v-0.697c-0.388,0.543-0.854,0.852-1.545,0.852v-0.771h0.076c0.388,0,0.697-0.155,1.007-0.464
		c0.308-0.387,0.463-0.852,0.463-1.545c0-0.773-0.155-1.393-0.463-1.702c-0.31-0.386-0.619-0.541-1.08-0.541v-0.771
		c0.306,0,0.543,0.076,0.771,0.23c0.31,0.076,0.542,0.312,0.696,0.541v-2.781h0.928v7.653L327.305,148.226L327.305,148.226z
		 M325.76,148.38h-0.076c-0.387,0-0.854-0.077-1.16-0.387c-0.387-0.232-0.696-0.541-0.93-1.005c-0.154-0.465-0.308-0.928-0.308-1.47
		c0-0.618,0.153-1.082,0.308-1.545c0.156-0.465,0.465-0.774,0.854-1.006c0.386-0.309,0.771-0.386,1.235-0.386h0.077v0.77l0,0
		c-0.387,0-0.771,0.155-1.082,0.544c-0.232,0.31-0.386,0.853-0.386,1.625c0,0.696,0.155,1.237,0.465,1.543
		c0.31,0.388,0.619,0.544,1.006,0.544L325.76,148.38L325.76,148.38z"/>
	<path d="M332.254,146.603l0.927-0.152c0.076,0.387,0.155,0.697,0.465,0.852c0.232,0.232,0.542,0.31,0.927,0.31
		c0.463,0,0.772-0.077,1.006-0.231c0.233-0.232,0.31-0.388,0.31-0.618c0-0.233-0.076-0.387-0.31-0.542
		c-0.076-0.077-0.386-0.156-0.927-0.31c-0.696-0.155-1.161-0.309-1.471-0.465c-0.233-0.153-0.465-0.309-0.619-0.542
		c-0.078-0.232-0.155-0.462-0.155-0.696c0-0.31,0.077-0.543,0.155-0.695c0.077-0.233,0.232-0.388,0.465-0.544
		c0.154-0.154,0.31-0.233,0.619-0.309c0.232-0.077,0.542-0.077,0.77-0.077c0.465,0,0.853,0.077,1.162,0.152
		c0.31,0.155,0.616,0.31,0.771,0.544c0.155,0.233,0.235,0.463,0.308,0.851l-0.925,0.154c-0.076-0.307-0.153-0.542-0.386-0.696
		c-0.155-0.154-0.465-0.232-0.854-0.232c-0.385,0-0.694,0.077-0.926,0.232c-0.154,0.154-0.232,0.309-0.232,0.463
		c0,0.155,0,0.233,0.076,0.311c0.078,0.153,0.234,0.233,0.388,0.309c0.076,0,0.386,0.077,0.851,0.231
		c0.618,0.155,1.081,0.308,1.391,0.388c0.233,0.153,0.462,0.31,0.617,0.542s0.233,0.465,0.233,0.772c0,0.31-0.152,0.619-0.308,0.93
		c-0.154,0.232-0.464,0.46-0.771,0.617c-0.388,0.152-0.774,0.232-1.162,0.232c-0.773,0-1.315-0.155-1.7-0.465
		C332.561,147.608,332.329,147.222,332.254,146.603z"/>
	<path d="M341.602,147.608c-0.313,0.23-0.695,0.463-1.006,0.617c-0.154,0.076-0.309,0.076-0.463,0.154v-0.771
		c0.23,0,0.386-0.076,0.617-0.233c0.31-0.153,0.462-0.308,0.617-0.617c0.077-0.232,0.154-0.54,0.154-0.928v-0.386
		c-0.31,0.156-0.771,0.31-1.389,0.386v-0.771c0.616-0.155,1.079-0.232,1.389-0.311c0-0.154,0-0.232,0-0.232
		c0-0.387-0.076-0.694-0.232-0.85c-0.233-0.233-0.619-0.31-1.081-0.31h-0.077v-0.771c0.077,0,0.155,0,0.232,0
		c0.465,0,0.853,0.076,1.162,0.154c0.232,0.076,0.464,0.231,0.62,0.386c0.153,0.231,0.23,0.387,0.306,0.696c0,0.155,0,0.462,0,0.853
		v1.236c0,0.927,0.078,1.47,0.078,1.7c0.076,0.233,0.154,0.464,0.231,0.617h-0.926C341.68,148.071,341.602,147.839,341.602,147.608z
		 M340.135,148.38c-0.233,0-0.388,0-0.543,0c-0.617,0-1.082-0.154-1.471-0.464c-0.308-0.308-0.463-0.617-0.463-1.081
		c0-0.31,0.077-0.542,0.155-0.773c0.153-0.231,0.308-0.386,0.542-0.541c0.152-0.155,0.387-0.233,0.617-0.31
		c0.232-0.078,0.463-0.078,0.851-0.152h0.311v0.771h-0.155c-0.387,0.076-0.618,0.076-0.851,0.152
		c-0.155,0.076-0.232,0.232-0.31,0.311c-0.076,0.154-0.155,0.31-0.155,0.465c0,0.231,0.077,0.462,0.31,0.617
		c0.155,0.154,0.463,0.31,0.772,0.31c0.155,0,0.233-0.077,0.387-0.077L340.135,148.38L340.135,148.38z M340.135,143.356
		c-0.464,0-0.697,0.079-0.927,0.233c-0.233,0.155-0.388,0.464-0.465,0.852l-0.926-0.155c0.076-0.386,0.23-0.696,0.386-0.927
		c0.233-0.308,0.465-0.465,0.854-0.617c0.309-0.076,0.695-0.155,1.082-0.155L340.135,143.356L340.135,143.356z"/>
	<path d="M347.55,146.218l0.93,0.153c-0.076,0.618-0.311,1.082-0.774,1.468c-0.387,0.388-0.926,0.544-1.545,0.544
		c-0.694,0-1.314-0.233-1.776-0.772c-0.465-0.463-0.697-1.16-0.697-2.09c0-0.617,0.078-1.159,0.233-1.624
		c0.232-0.462,0.543-0.771,0.928-1.007c0.386-0.232,0.852-0.308,1.315-0.308c0.616,0,1.162,0.155,1.543,0.465
		c0.387,0.308,0.619,0.696,0.697,1.314l-0.928,0.077c-0.077-0.31-0.233-0.617-0.464-0.772c-0.232-0.233-0.463-0.31-0.772-0.31
		c-0.465,0-0.851,0.155-1.161,0.465c-0.309,0.386-0.463,0.927-0.463,1.623c0,0.774,0.154,1.315,0.463,1.701
		c0.234,0.309,0.619,0.464,1.082,0.464c0.388,0,0.697-0.077,0.928-0.31C347.321,147.067,347.475,146.68,347.55,146.218z"/>
	<path d="M349.33,148.226v-5.563h0.85v0.85c0.155-0.385,0.388-0.617,0.543-0.772c0.232-0.076,0.387-0.152,0.619-0.152
		c0.31,0,0.695,0.077,1.005,0.308l-0.31,0.853c-0.232-0.154-0.462-0.233-0.695-0.233c-0.234,0-0.388,0.078-0.619,0.233
		c-0.153,0.077-0.233,0.31-0.309,0.544c-0.077,0.31-0.154,0.695-0.154,1.082v2.859h-0.929L349.33,148.226L349.33,148.226z"/>
	<path d="M356.516,148.226v-0.772c-0.388,0.618-1.006,0.927-1.778,0.927c-0.31,0-0.618-0.077-0.927-0.154
		c-0.232-0.154-0.465-0.31-0.617-0.464c-0.155-0.233-0.232-0.463-0.232-0.772c-0.076-0.154-0.076-0.464-0.076-0.852v-3.479h0.926
		v3.091c0,0.544,0,0.854,0.077,1.006c0,0.308,0.155,0.462,0.387,0.617c0.154,0.155,0.387,0.233,0.696,0.233
		c0.232,0,0.543-0.077,0.775-0.233c0.232-0.155,0.462-0.386,0.542-0.617c0.077-0.232,0.153-0.619,0.153-1.082v-3.016h0.929v5.563
		L356.516,148.226L356.516,148.226z"/>
	<path d="M358.835,148.226v-5.563h0.85v0.85c0.155-0.308,0.388-0.541,0.697-0.696c0.31-0.153,0.618-0.23,1.006-0.23
		c0.387,0,0.771,0.076,1.007,0.23c0.309,0.155,0.464,0.387,0.541,0.696c0.462-0.617,1.007-0.925,1.78-0.925
		c0.542,0,0.927,0.152,1.236,0.462c0.311,0.308,0.464,0.772,0.464,1.393v3.787h-0.929v-3.48c0-0.386-0.077-0.617-0.077-0.771
		c-0.076-0.232-0.232-0.311-0.386-0.465c-0.155-0.076-0.31-0.155-0.544-0.155c-0.386,0-0.695,0.155-1.004,0.388
		c-0.233,0.309-0.388,0.697-0.388,1.314v3.17h-0.927v-3.554c0-0.464-0.076-0.773-0.231-1.006c-0.154-0.155-0.387-0.31-0.771-0.31
		c-0.235,0-0.465,0.077-0.697,0.232c-0.231,0.154-0.386,0.387-0.542,0.618c-0.078,0.309-0.155,0.695-0.155,1.16v2.861h-0.927v-0.004
		h-0.004V148.226z"/>
	<line fill="none" stroke="#000000" stroke-width="0.5" x1="77.869" y1="7.357" x2="48.891" y2="7.357"/>
	<line fill="none" stroke="#000000" stroke-width="0.5" x1="121.374" y1="-5.316" x2="49.125" y2="-13.353"/>
	<line fill="none" stroke="#000000" stroke-width="0.5" x1="151.896" y1="125.586" x2="226.39" y2="125.586"/>
	<line fill="none" stroke="#000000" stroke-width="0.5" x1="175.85" y1="141.192" x2="225.926" y2="141.192"/>
	<line fill="none" stroke="#000000" stroke-width="0.5" x1="224.999" y1="108.584" x2="171.37" y2="92.357"/>
</g>
</svg>
