<?xml version="1.0" encoding="utf-8"?>
<!-- Generator: Adobe Illustrator 15.0.2, SVG Export Plug-In . SVG Version: 6.00 Build 0)  -->
<!DOCTYPE svg PUBLIC "-//W3C//DTD SVG 1.1//EN" "http://www.w3.org/Graphics/SVG/1.1/DTD/svg11.dtd">
<svg version="1.1" id="Layer_7" xmlns="http://www.w3.org/2000/svg" xmlns:xlink="http://www.w3.org/1999/xlink" x="0px" y="0px"
	 width="411.023px" height="268.391px" viewBox="-42.058 -21.269 411.023 268.391"
	 enable-background="new -42.058 -21.269 411.023 268.391" xml:space="preserve">
<metadata><?xpacket begin="﻿" id="W5M0MpCehiHzreSzNTczkc9d"?>
<x:xmpmeta xmlns:x="adobe:ns:meta/" x:xmptk="Adobe XMP Core 5.0-c060 61.134777, 2010/02/12-17:32:00        ">
   <rdf:RDF xmlns:rdf="http://www.w3.org/1999/02/22-rdf-syntax-ns#">
      <rdf:Description rdf:about=""
            xmlns:dc="http://purl.org/dc/elements/1.1/">
         <dc:format>image/svg+xml</dc:format>
         <dc:title>
            <rdf:Alt>
               <rdf:li xml:lang="x-default">8B-9</rdf:li>
            </rdf:Alt>
         </dc:title>
      </rdf:Description>
      <rdf:Description rdf:about=""
            xmlns:xmp="http://ns.adobe.com/xap/1.0/"
            xmlns:xmpGImg="http://ns.adobe.com/xap/1.0/g/img/">
         <xmp:CreatorTool>Adobe Illustrator CS5.1</xmp:CreatorTool>
         <xmp:CreateDate>2015-02-13T17:10:27+02:00</xmp:CreateDate>
         <xmp:ModifyDate>2015-02-13T17:10:27+02:00</xmp:ModifyDate>
         <xmp:MetadataDate>2015-02-13T17:10:27+02:00</xmp:MetadataDate>
         <xmp:Thumbnails>
            <rdf:Alt>
               <rdf:li rdf:parseType="Resource">
                  <xmpGImg:width>256</xmpGImg:width>
                  <xmpGImg:height>168</xmpGImg:height>
                  <xmpGImg:format>JPEG</xmpGImg:format>
                  <xmpGImg:image>/9j/4AAQSkZJRgABAgEASABIAAD/7QAsUGhvdG9zaG9wIDMuMAA4QklNA+0AAAAAABAASAAAAAEA&#xA;AQBIAAAAAQAB/+4ADkFkb2JlAGTAAAAAAf/bAIQABgQEBAUEBgUFBgkGBQYJCwgGBggLDAoKCwoK&#xA;DBAMDAwMDAwQDA4PEA8ODBMTFBQTExwbGxscHx8fHx8fHx8fHwEHBwcNDA0YEBAYGhURFRofHx8f&#xA;Hx8fHx8fHx8fHx8fHx8fHx8fHx8fHx8fHx8fHx8fHx8fHx8fHx8fHx8fHx8f/8AAEQgAqAEAAwER&#xA;AAIRAQMRAf/EAaIAAAAHAQEBAQEAAAAAAAAAAAQFAwIGAQAHCAkKCwEAAgIDAQEBAQEAAAAAAAAA&#xA;AQACAwQFBgcICQoLEAACAQMDAgQCBgcDBAIGAnMBAgMRBAAFIRIxQVEGE2EicYEUMpGhBxWxQiPB&#xA;UtHhMxZi8CRygvElQzRTkqKyY3PCNUQnk6OzNhdUZHTD0uIIJoMJChgZhJRFRqS0VtNVKBry4/PE&#xA;1OT0ZXWFlaW1xdXl9WZ2hpamtsbW5vY3R1dnd4eXp7fH1+f3OEhYaHiImKi4yNjo+Ck5SVlpeYmZ&#xA;qbnJ2en5KjpKWmp6ipqqusra6voRAAICAQIDBQUEBQYECAMDbQEAAhEDBCESMUEFURNhIgZxgZEy&#xA;obHwFMHR4SNCFVJicvEzJDRDghaSUyWiY7LCB3PSNeJEgxdUkwgJChgZJjZFGidkdFU38qOzwygp&#xA;0+PzhJSktMTU5PRldYWVpbXF1eX1RlZmdoaWprbG1ub2R1dnd4eXp7fH1+f3OEhYaHiImKi4yNjo&#xA;+DlJWWl5iZmpucnZ6fkqOkpaanqKmqq6ytrq+v/aAAwDAQACEQMRAD8A9U4q7FXYqxPU/wAp/wAu&#xA;9Tv7jUbzQ7dr+6YyXF0heKR3P7bNEyHl/ldcVQv/ACp3ySm9r+k7J+qva6xqsPE+IVbkLX6MVd/y&#xA;q2BP95vNHmS3p0/3KTT0B6j/AEkT1+nFXf8AKvvMcO9l5/16M9KTppdyoXwHqWVa+5JOKuHlL8yY&#xA;6el58eTt/pGl2binj+69Df8AD2xVBXvmbz75LjF55tW01zy0hAvNb0yCW2ubNCR+/ubNpLhXhX9t&#xA;4nqo34UqcVZonmHQHRXTUrVkYAqwnjIIPQg8sVSfzT+YOiaHZQtbkavqt7KtrpekWUkb3FzO9SFX&#xA;eiKqgs7t8KqCTiqWw6X+cWoqLi913StB5Cq6fZWMl8Ur2kuZ5og58eMSj+Kq8eTPP709X8wb1af7&#xA;40/S0JPv6kE34Yq7/lWuouP9I88eZJtqCk9lDTx/uLSLr74q7/lU+jyf71635hu0OzRya1qEaFf5&#xA;SsEsQP68Vd/ypj8umNZtPnuiTVvrd/f3NdqDl688ladq9MVT3y35N8reWY549B0yDTlumVrkwrRp&#xA;GWvEuxqzEcj1OKpzirsVdirsVdirsVdirsVdirsVdirsVdirsVdirsVdirsVdirsVdirsVdiqy4t&#xA;4LiCS3nRZYJlaOWNhVWRhRlIPUEHFXzl5Kia38vpYFzINNuLzTkZjVvTsruW2j5e/CJckEMn/Ley&#xA;jvPzYuriYB/0PosbWgO/GTULmRJHXwbhZha+BOAqHtOBLsVdirsVdirsVdirsVdirsVdirsVdirs&#xA;VdirsVdirsVdirsVdirsVdirsVdirsVdirsVdirsVfOHk6cXOl3V5vW81PVbgs3VvU1Gdgx+Ypkg&#xA;hlX5WzcPzV1qAj++0KydT/xhvLkN/wAnhgKh7LgS7FXYq7FXYq7FXYq7FXYq7FXYq7FXYq7FXYq7&#xA;FXYq7FXYq7FXYq7FXYq7FXYq7FXYq7FXYqki6lc3HnRrCCQ/U9PsDJfoACpnu5V+rjl15JHbSkr4&#xA;OCeoxV8xaR5qu/L35fWV3Ho95qzlrouLVQwTjcyFjKal1HvwOFDIvyF81SeYvP0urXMbWrXnl6ZB&#xA;DbLLI0IXUeABYKauONeXEDAl7l5N8x/XvLGnS3nrPqMUK2+p0gmPG8t/3VyponVZkYYqnX6Ttv5J&#xA;/wDpHn/5oxV36Ttv5J/+kef/AJoxV36Ttv5J/wDpHn/5oxV36Ttv5J/+kef/AJoxV36Ttv5J/wDp&#xA;Hn/5oxV36Ttv5J/+kef/AJoxV36Ttv5J/wDpHn/5oxV36Ttv5J/+kef/AJoxV36Ttv5J/wDpHn/5&#xA;oxV36Ttv5J/+kef/AJoxV36Ttv5J/wDpHn/5oxVjv5hTaxceULo6FFeyX4dDHBaq8EsvAhzCzl7a&#xA;WNJePpmSNwy1r0BxVhg8xfnRqEd++jRWwi0+e6tIWaJZxPJbFpV+IyRVr6kdszK395HIe4oqgPMW&#xA;o/nfeSX3l60Q3Drbzxz3cMEVuvErdpBOswuA6yyNDbsqKtKO1SP2VUyk8wfnDFd6jpMBgv72wtpb&#xA;n14reNS7G7mtrWBk9QpG08Cx3IYk8d6rSilVMLbWPzH06w8w3F9aPFbWVhrF5YyS8ZCLlL65e0Vy&#xA;ZJWkD2vpMqpRUoVp9kBVK7bzD+c15pMtvdaLO5v1kW0vI47a3aOLmFLTILmQoSHPp8CTRQ3jirWi&#xA;al+dgmSW902X01mgtog6xRyNbepF6zPGtzcQI6n1eLnlyRRvVuQVew4q7FXYq7FXYq7FXYq7FXYq&#xA;kuv+ZotNlisLSA6jrt2pay0uJgrMo2Msz0YQwKftSMPZQzEKVUZf3mmaNp1/q956drbQRPeajcAf&#xA;swxfG7kCrcY4wPGgAxV5n+Uf5dQS/lvoN1qrzxX99bm9liRkAUXcjXCChQkEJIK++G1VLPQdP8pf&#xA;nfpbRuVtfMmiXlnbF6FmvbS4iuWUlVUfFAzMK/ynAr0DXdSudGgjvLbTmvLP1C2pC2qbiOMqazRw&#xA;qpM5VqclU8uP2Qx+Eqo7T9RsNSsob7T7iO6s7hecFxEwdHXxDDFURirsVdirsVdirsVdirsVdirs&#xA;VdirsVdirsVdirsVdirsVdirsVdirsVdirsVdiqlLSaOaGKcxS8SvqR8C8ZYbMA4dajqOSke2KvP&#xA;b3zh5U8n38/l7y9ZXXmfzpdAS3Wn2h+sXjtSiS6jeSHhbxgsorIw4qRwTjtiqnN5G85+cSkv5i39&#xA;taeX0dZz5Q0rkYJPTIkjGoXsgV5wh+1GiJGSAd8VTP695k83s935a1EaPodmT+j770kmOozp0LI3&#xA;Sx7VUq8v2kZVCs6qy5ttF/MXRJtE1yKbSte0uaOeRLeXhdWV3EzCG9sp6fEhKt6coFDurAEMoVQB&#xA;1n82fJqr+nbJPO+hR0D6rpEX1fVo1/nm0+pin3IH7hgaCvHFWQeTbvyPrzzeaPKl4s0d4WS/W2d4&#xA;43n2q1zatx4XCjqWRXI61FMVZLBdWtx6n1eZJvSdopfTYNxdTRkah2YdxiqrirsVdirsVdirsVdi&#xA;rsVdirsVdirsVdirsVdirsVdirsVdirsVdirsVdirEY5L/zfPLJHcy2HlOB2jjktnaG41F424u4m&#xA;WjxWoIIUxkNJ9oMI6c1WIWdzdebJp9B/LRI/LvkuGQxax5wtI1SW7kUlZYtLNKO+xV7tq0NSnIgE&#xA;qvQvKvk/yz5R0n9H6JZx2dsCZLiU/FLM/VpZ5mq8jnuzn8MVSf8AeeepO6eSUPuG1Zgfwsh/yX/4&#xA;xf3iqUebvzJfRPOdv5Yh0WVpr2OGOyuPX+rwzySzwQKHIim4QL9ZoZEq4KleFCpZVMtEmvvOOk2n&#xA;mKCwGgXsUUUugX3qJcF4Z4Y5JYpo0CVgMnwMhO/EOvFgrBVkWgeYI9T+sWs8f1TWLAqmpaezcmjZ&#xA;hVHRqL6kMgBMcgG/QgMGUKsd82flol1qTeZ/Kd0PLvnNF/3viWtteqP90ajAPhnRunP7abFT8IGK&#xA;pT5dvdG816jdadq2nt5T/MvS0El4bRljuGjLEJdW04HG8tHb9mRWUN8LrWhKrMvLeralLLdaRrKK&#xA;usafwMk8SlYLqCSvpXMIJbjy4MroSSjgjdeLMqnmKuxV2KuxV2KuxV2KuxV2KuxV2KuxV2KuxV2K&#xA;uxV2KuxV2KuxV2KuxV5h5ou738wfMd15E0adrfytphVPOmqwMVMzMK/oi3kWlGdf96GU/CvwGhJB&#xA;Vej2NjYaZYQWVlBHaWNpGsUEEShI440FAqgbAAYqxT9556k7p5JQ+4bVmB/CyH/Jf/jF/eKsyVVV&#xA;QqgKqiiqNgAOwxVLb/yv5c1CW5mvtMtrma8jSG5lliR3eKJxJGhYivFHAZR2bfriqPtra3tbeK2t&#xA;okgtoEWKCCJQiIiDiqIq0CqoFABiqT+Y/Lj6g8GpabOLHzBYhvqN9x5KVahe3uEBHqQSUHJa1Boy&#xA;kMAcVVPLnmNNWjnguIDY6zYFY9T01zyaJ2B4ujUHqQycSY5AKMPBgyhVKvzB8iL5ltLa8064Gmea&#xA;9Ic3Hl/WlFWgm/ajkp9uCYfBLGagg9MVX/l552bzPpc6X9t+jvMuky/U/MGkE/Fb3KivJa/ahmX4&#xA;4nFQy9yQcVZVirsVdirsVdirsVWTXEECc55FiStOTsFFfCpxVQ+vmTa2gkl7cyPSQE9CTJxJX3QN&#xA;iqQ/mLp+t6j5QubXSreSfU3MbRQQSxojPGwk4TNK8HKByvCQAhipNN8VYZbwfnyfNE7XrGLywdRg&#xA;eK3sJLB7lbQJOGSOS4jTlHyEBk5gSfaCk7kqq2nWv56LaW1je3RaaWK0nutVU6dyilkgQXdusQi4&#xA;H05+ZRuJHGgqcVZL+Xtl+YFp9dTzbfNfq6QPaSyC1VlkrKsyf6MkQ48FibcdScVZhirsVdirsVdi&#xA;rsVdirsVSPVde1BdWXRdFtI7vUREtzdyXEjQ29vA7MkZd0SVmeRkbggHRWJIoKqpH+a3nW+8teWI&#xA;4dOKf4o1lvqekpRpEjk4F57plCu5htYlaVjwPQAjfFXjh/5yX/LH8ufL0PlnyfZ3XmK6tOX1q/l5&#xA;WsdxdMaz3EskoeZ3klJZvg9gaUxV7hpPn7S5NKtG1V3j1J4Ua9ihs7z01lZQXRaxvUK21a74qix5&#xA;68rqABNOANgBZ3dAP+RWKu/x55Z/3/P/ANId3/1SxV3+PPLP+/5/+kO7/wCqWKu/x55Z/wB/z/8A&#xA;SHd/9UsVd/jzyz/v+f8A6Q7v/qlirv8AHXlepPrT1OxP1O7rQf8APLFXnv5qf85DWfkW60m4h09t&#xA;W0m/9WK6XjPaXEUkfFlZDNH6cisGPw7EU64qxqT85PJGsa3bfmN5Me5F/psXoec9Flt5Emn0bkC1&#xA;weAkgaWyZvVUrJXhyBNNsVe4area7JZQX3lsWV/Gyet6U8jotwjBWj9GePmqclrRijDpiqJ0PWbX&#xA;WdKt9StQ6Rzhg0Mo4yRSxsY5YZFBNHikVkcdmBxVHYqoz3trA4SSQCUiqxD4pCP8lFqx+gYqp/Wr&#xA;qT/ee1PHqHnb0lI9gA71/wBZRirvqt1J/vRdHj0KQL6Ske5Jd6/6rDFV8NjaQv6kcSiUihmPxSEe&#xA;7tVj9JxVXxV2KuxV2KuxV2KuxV2KuxV2KuxV2KuxVjnk9RJdeYb197m41WVJf8lLaOO3iUHw9OMP&#xA;TxY4qxrycp82fmLrfnKb49L0FpPL3llSDx5xkHUrta1WskwEKuh3VCMVTfzt+UP5dedVc6/osE12&#xA;woNQiHo3Q2oD60fFmp2DVHtiqC8keVLbV/K+l6lrtxc6olzaxSafa3Up9OC0ZAbdHii9KOSb0uJl&#xA;ldSS9eNFoAqmVtZz+WfMOn2VtcTTaDrJlt47W5ledrW7iia4T0ZJS8npSRQy8kZiFKrxoCRiq3VZ&#xA;vM4/MfR47Fbk6FJZ3KaoQo+rJJTlbyFm6tyBUqnxbr+zWqrDPLD/AJzafHp8EitcCVWvdXnv45rh&#xA;2keay5W8RNwBBSO4uOPEFR6f2cVS7y5+ZX5xa7qFnHp9pp13p0GoLZ65qUMEr28TKsMk0ULwTXPq&#xA;LSVwk1ANl5BanFXoPkfU/Pl1cmHzNbxoi2FpOZ4YGt0F3OpeeAiSSQsYqhapVetaHbFVSzspPNV1&#xA;e3uoT3EekWt1cWWn6dbzS26yG0laCae4aIxyOTNG4RC3AKA1CxqFWKfmF+UXlK91PQdS1WO61PQ7&#xA;S8jtZ9Euru4lt0fUJEt47iIM5kDCZogycuHGp4g1qqz6Wy8neWfLdzFJb2Oj+XII2+tx8Ire0WNh&#xA;wbmoCp8Q+Hfr0xVgv5LeZbS3sr/yalxJfw6EYpvL90qSu0+iX6etYFmcAhoVLQNyCheAGKso8qnU&#xA;Bqnmi3gjW3tY9VDRiY8mjaaxtZ5VEcZ4kNJK0lfU6sdtt1WRfUWfe4uJZe/BW9JAe9PT4tT2Zjiq&#xA;tBb28CFIIkiQmpVFCivStBiqpirsVdirsVdirsVdirsVdirsVdirsVdirsVdiqU+ZNck0u1hS0t/&#xA;ruq30n1bTLLlwEkxUuTI9G4RRorPI1DRRsCxVSqxzzHdXfkT8rtTuoZTd62kUrxT8amfVdQlpGQm&#xA;/wAL3c4Cp+ytF7Yqjvyo0zTtN/LTyxa6cQ9odNtpllFf3j3EYmklNe8kkjOfnirK8VYhpLa55Wtk&#xA;0V9LuNV0i0Hp6VfWRhZ0tl/uoLiGR4WDRLRFdOQYAFuJ2xVE2NprWs69baxqlo2mafpiyfozTpXj&#xA;kuHnmX03uZ/SaSNOMRZI0V22di1DQBVk2KuxV2KuxVikX6X8s316kenzaloF7cSXkDWfFri0muHM&#xA;lykkLsrSRvKzSK0fJgWK8aAHFWpxq/me/s4pNPm0zy/ZXEV7PJeBFuLua2cS26RwqztHGkyrIzSc&#xA;WJUKFoS2KoL8yfyf8s/mH9XXX7vUFt7ZSIrS1ufSg5kn960RV1MgrTkR0xViOq2Omfl55+/LmCyu&#xA;ri4ja1ufL99PdFJZv0c8kK2IldFjVVivJY0Q8a0Y9d8VZ7rpk8uarN5ojHPSLiOOPzBCB8USxHjH&#xA;fJ4iJG4zL3jAYbpxdVlWKuxV2KuxV2KuxV2KuxV2KuxV2KuxV2KuxV2KuxV2Ksd1fjF528u3Eihk&#xA;lt9Qs4u/GaQQXCsP+edrIK++KpP58H6T85eSfLlKxG9m1y8A/wB9aTGPSr7fW7mE/wCxxVGflmRb&#xA;aNfaCdn8vald6eF/lgL/AFmzFPa0uIRirLsVQGta5p+j2q3F6z/vHEVvBCjzTTStUiOKKMM7tQE7&#xA;DYAk0AJxVLovOVvHdW9vqunXui/XHEVnPerCYZJH2SP1beW4SN3OyrKVLHYVO2KsgxV2KuxVLtb1&#xA;+w0iKI3AkluLl/Ss7K3QyTzyUrxjQeA3ZjRVG7EDfFUBB5wRb23tNW0m+0VrtxFaTXgt3hklNOMf&#xA;q2k10iOxNFEhXkdlqcVZBirsVeU61ok3nHRvP+rW9TPKjaX5dkFdm0RmlWRfc6mJBUdQi4qybUvM&#xA;lvq/5R3XmOJBJDqGhSXqxDp++tDJwPWlOVDXp3xVldpCYLWGAtzMUaoW8SoAriqrirsVdirsVdir&#xA;sVdirsVdirsVdirsVdirsVdiqF1TVLHStPn1C+l9G0tl5yvQsadAFVQWZmOyqoqTsN8VSTRrLVdU&#xA;1aPzFq8DWKwwvFpGkswaSFJiDLNc8SU9dwiqFUkRrUciWaiqWaSP0h+cWv3hr6eiaRYabF4epeSy&#xA;3c//AAiQYqiYiNJ/NCaI/Db+Z9OWaPw+uaW3py/7KS3uY6e0RxVl+KsY1Z7a38+6FcXxVYZbS9tN&#xA;PlfZReSPBJ6Yr/uySGJuHsrDvuqqfmLPZx+StWiuF9R7u3e1s4Fp6kt1OOFvHD/xY0pXhTod+2Ks&#xA;ggEogjEzBpgoEjDYFqbkfTiq/FXYqxm9ktrX8wdPmvSEW80+Wz0uZ/sicSrLPCpOweWNUYDqwjP8&#xA;uKtfmVLD/g6/sqg6hqSfU9HiH22v5P8AeUxjrWOUCUsPshS3RcVZPiqReedeuND8rX1/ZoJNSKpb&#xA;aXCekl7dOsFqh2OzTSLX2xVFeWNBtvL/AJe07Rbdi8Wn28cHqt9qRlX45G/ynarN7nFWKflbYWcn&#xA;krU/Kt3EJ7PStR1TRpYXHwyWv1iRolI8DbTIMVTTSNR1TQry08v667XcE5MOja6SKzlFLrb3Y24X&#xA;HBTRx8EnEn4W+DFWVYq7FXYq7FXYqk3mjzNbeXrW0urmNpILi6jtpGWtYw4ZjJxUMzcQn2QKnFWO&#xA;Xf5y+VkjSWzivL+FXthdyQWtw4iW7h+sRceEbiRzEyPwTojcjQYqoTfn7+VkUV3M+rkQWQhM8xgm&#xA;CUnqFKsUHKhBBp32xVMX/NHRbWXTYdRt7i3fU1uniljQzQILW9isf3kgoVLyXMdPhoK7kbVVQl7+&#xA;dPkvTry7h1SWW0t4HMdvdmC4eOZ0iaRowyx8RJ+7cLHyLNxr3GKqY/Pj8tTafW0v55bYAM8sdndS&#xA;Kqel60jsUjI4xJvKf2Nq9RVVFXH5u+Wo9QjtYIrq8WSWW35W0EruJYJJIpQYyqnijwspI3r274qy&#xA;Ty95k0fzDYHUNIn+s2XMxpcAEI5ChiUJHxD4qVHeo7YqmeKuxVjnm4CTUfK1tJvbXGsD10JADehZ&#xA;XVzDWv8ALPBGw9xirI8VYT+WyifUvOurHd77zBPCH8Y9Pt4LEL/sXt3xVE/mXDPBocHmK1QveeWL&#xA;lNWVEFWe3jVo72NaAkl7OWUKB+1TFWVQTwzwRzwuJIZVDxSKaqysKqQfAjFVHUtM07U7KSx1G2ju&#xA;7OanqQTKHRqEMKhu4IqD2OKpdp/k3y7YXsd7DbPLdwKUtp7qee7eFSKFYDcvL6QI2olNsVTrFXYq&#xA;7FUNqWmadqdm9lqNrFeWktPUgnRZEPE1B4sCKgio8MVQOl+UvLmmXQu7OyRbtU9NLqQvNMkZ6okk&#xA;pd0U91U0OKpvirDtV/3OfmHpmlAcrHy3D+mL/uDd3Ae3sYz/AKqCeU+BCHFWY4qwnyaPqvn7z5p6&#xA;7Ry3VhqiJ4fWrFLdj/snsjiqaefwP8LzSAfvobizmtf+YiO7iaD75QoxVkWKuxV2KoZ9Qh5tHCrX&#xA;MikhkiAIBHUM5IRSPAtXFWvSvpv72QW8f++4fic/ORh0P+SoP+ViqzUdF03UrWO1vofXhiYPGGZ+&#xA;SuoKhw4IfkATvWuKpZZ/l/5Msrn6zZ6TBbzcERjECisIk9NCyghWZU+HkRyp3xVDS/lb+X8tlLYy&#xA;aJbtZTMryWvxiLmkXoBwgbirmIlCw3IJBrU4qjtS8keVNTtora/02G4ghWdIo2rQLcsHmXYjZ3VW&#xA;PuAeoGKoCT8qvy7l/vdAtJaRNbgSKXAjcFSAGJp8LEV6iuKq17+W/ka+hWG+0eC7RZBN+/5SsXWI&#xA;QVZnJZqxKEIJoRscVVH8heVeTzQ2EcF60nrrepUzLPz9RZebElmVgKcq7Cn2dsVRvlry7pvlzQrP&#xA;RdNUrZ2SFIy3HkxZi7u3EKvJ3Ys1ABU9MVTPFXYqhb/TbW+Fv64JNrOlzAykqVkj6Go7EEgjuDiq&#xA;KxVhP5NkTeQLS/ryOqXWoakX68vrt/PcKSe/wyDFWauiOjI6hkYEMpFQQdiCDirEPy5aTTYNQ8nX&#xA;BPq+W5RFYliSZNLnq9i4JJJCIGtyf5ojirMMVYwNV8z6ze3i6C1nYabYzPa/pC+gluzcTwtwnWKG&#xA;Ka14RxOGj5s5JcMONAGZVG+Xtavru4vdM1WBLfWNO9NpxCS0E0M/L0biEsAwV/TdSrbq6sKsAGZV&#xA;OsVdirEdNk80+ZLX9L22qfobTZyX0m3it4pnlgBIjnuXmD1WZfjVIwhVSKsTXFU18s6tf30N7bal&#xA;HGmp6VdGyvWg5CCRvSjnjliDksFeGdGKkni1Vq1KlVMr++tbCxuL68kWG0tInnuJmNFSONSzsT4B&#xA;RXFWN/lxZXP6Fl17UIvS1XzLOdVu42+1HHKqpawN7w2qRo3+UGPfFU903XdF1OS4i06+gu5bORob&#xA;uKKRXeGVGKMkqA8kYMpFGGKsXgP1b86LxB8I1Ty7byEfzNp97MpPzAvgMVZdf6dZ38KQXcfqxJND&#xA;cKtWWkttKs8TfCR9mSNWp023xVdLe2cLlJp443ChiruqkKSQDQnoSKYqp/Wriba2gIX/AH7ODGo+&#xA;SEcyR7gD3xV31D1d7uUz/wDFY+CL5cAfiH+uWxVEoiIioihUUAKoFAANgABireKuxV2KuxV2KuxV&#xA;2KuxV2KuxV5/5Duf8Ma9e/l7fNwhjMuoeU5nJpPp0r85LZWb7UllI5TjWvplD44qr+Vl+s/mh51u&#xA;rp2e7sBp1jYRljxjsZLVbglVrT95cvLU9+A8MVT/AM7a2uheTtc1ktxOnWFzcqa0+KKJmUD3LAAY&#xA;q8T81+Uf+cktP8i6LpHkm/so9MsNNtLZ7SzAttSrFAnPlLcF0Lcwd43Qnw3xVHf8446T+YVv5S1O&#xA;O/uo9P1/9IyNq0etafdXF87NGhjdpmu7cvGUPwfDTrvirKfOtl520LULPzv+lNNYWCfUdZZNOnRR&#xA;ps8il55VN8/MWjgS7FeKlzXsVWXLpvnR1Dtr9pVt/wBzp5CU7cQ9zI3/AAxxVisln+YnlX66I7tN&#xA;Q0FnuNQFzb29pHLA88j3NyJlu7u1T0+bs6uJD1oVAFSqhPLF9q148HmTVfNUGnS+ZLJJbGOO2jRF&#xA;srOULCry3Hweo0moVZeNatxBYLUqsmgkmuFVoPPMcqu3FDGlgwLc/SoKL19T4fnt1xVLf8R2ryzR&#xA;ReejM0Qh+KGCykVzcO8aCJlRhIQ0TcgteNN8VSvTtL806eF0zy35uj1TSfUe30pDeabBLE0S85Ld&#xA;gNNvPU9Lc/AQVWg4UHLFWR6D5F8wWMFxNd+b9Rk1PUJvrWoywQ6csTTemkK+mklpIVVYoUTrvTlQ&#xA;EnFUk846Bquq6tpvkz/E+pXMWph7zWo5ItN4pptsRUH07NN57ho4wGNGXnsQCMVZd/hnWv8AqbNV&#xA;/wCRWlf9kOKvnbUf+cc/zM8y/mrrHme31aTy3p73f+javI6DUJlhCxmdIbFbdF9Qx8xy4HpWpqcV&#xA;erpoeo+VPOXkE6hrV3rkk66po1xql96ayMbiCO8ijPpqlV5ae3HmWap+0dqKpX5kH/OQGofmZpup&#xA;aZpUNp5O0ieRVsnvIFlu0kjaF7iTiZAG4uTEhFFP2u+Ksj8yQ6dp35qeUr5JPTvGs9V/Sl3I/wD0&#xA;roYo3JmZjxWNLh0K9ApJpSpxVW/L9rjzJrmp+fpw6affRrp/lmF6qf0bC5droqaEG7mPMVFfTVMV&#xA;Z7irsVdirsVdirsVdirsVdirsVdirsVSLzh5P0/zPp8UE8stnfWcoudL1S2PG4tLlQQssTGo6GjK&#xA;1VZdiMVecO35peW/PtprupaCdbtJLNtM1rUtDKE3UMTGWzuGsZWjkjnjdnVgrOhVzQigGKp3rdxr&#xA;n5hfVNBi0K/0jy0bmG516+1WNLdpoLeQTJaW8HN5W9eSMCRmChUqNy1MVek4q7FVO4t4Lm3lt7iN&#xA;ZYJkaOaJxVWRxRlYHqCDirDfJ0+o6UuoeRpJl/SWjw+poF3chpFn06Sq2zuAyM5tnHoygMCaKxI5&#xA;jFUx1K80nUvJ+or5piWCK2ti3mCwhnLtDwQSsvO3YSUZQGTozKRUCtMVef6t5OEej6FqGsaTd2Wi&#xA;eXIblYbpNTF1qVta34T6xLdwS2zxNwjUq4Sd+CFuFSBxVT29/Ijylc3Mjx3d7aWlwwa7sLdoI4ZA&#xA;volF2h5IFNsD8BBqx3xVK7z8sPLfl+80kxXGq6trz2cel2VpbmzhMtlYuJR6tIoYoo4m9LnKKNUK&#xA;BVm4squ/LH8utC8sazaWAGoWOraalzcW0Vw1rIl1bSpFbGlzbxo00cISJWSTiwYIxWgQ4qznzLqN&#xA;pLLJo8txPZQx236S1PUIW9NYLWCVSUeTqv1hUkWq78Vc1BpiqB/L20uLyO+84X8bR33mVo5reGQU&#xA;e302IEWNuR2bg7TOO0kjDtirL8VdirGvzC8s3nmDy96WmypBren3EGpaLPLvGt5aOJIw9N+EgrG/&#xA;+SxxVK4/zL1VIlivPJHmCPUwtJbWCCCeL1B9oR3QmWFl5dGZlqN6Yqxe0/Lrzj5z8533mXzui6Po&#xA;M0MVlbeWIpEnnltIW9X0ru4iJQRyzHnLHGTzoqseK/Eq9fjjjijWONQkaAKiKAFVQKAADoBiq7FX&#xA;Yq7FXYq7FXYq7FXYq7FXYq7FXYq7FXYq7FXYq7FXYqxnzxoOoXlva6zogX/Euhu1zpoYhVnRhSey&#xA;kY9I7lPhr+y4R/2cVSrUxp/mry0uu6JAeOuQpYavKW9G6htayRueLssSz2M8hdhIDQK6dTiqJ1Cy&#xA;88a5osuhX0WnwW19EbbUNXt55H9S2kXjK1vbGJeDyoSBylIjJrV6bqsyxVIPMNlq8eradr2lwLfS&#xA;2MNzaXOnF1ieSC7aGRnhd6J6qPapRXKqQW3BpiqXXN7eR37+bdetG0jSdEs7iO3tJHjmu5XnaNpH&#xA;dbdpYx/cqkSJIxcsa0IXFUq1Wxvda1aPyZLdyXtvPMdZ81yvssdi0h+p6aqAuEE5iCsoPxJHITvJ&#xA;ir0XFXYq7FXYq7FXYq7FXYq7FXYq7FXYq7FXYq7FXYq7FXYq7FXYq7FXYq7FXYq7FXYqwTV1Hkrz&#xA;DLryD/nVNclVfMMP7FnePSNNQA7Ry/DHceHwyfznFWQeW4jp5uNAjtJYdP0tYRpdw7NKktrKp4or&#xA;kCjQujx8KkhAhJ+LFVS482aFDHLJHNJerBMbacafbz37RzKvNkkW0jnZCAf2h7dcVR9rqWn3c1xD&#xA;a3MU81o/pXcUbqzxPSvGRQaqSN9+2KsW82eaY7OR7qCdbq10iT0LnSok5T3eqTrGbCzjZ14VrKJG&#xA;4tyU8CaKGxVMfJXly50bS5H1GVbnXtTla91u7SvGS5kAHBK7iKFFWKMfyKO9cVZBirsVdirsVdir&#xA;sVdirsVdirsVdirsVdirsVdirsVdirsVdirsVdirsVdirsVdirsVU7m2t7q3ltrmJZredGjmhkAZ&#xA;HRxxZWU7EEGhGKvPdPtE8v69pflnWriYadHP6nkzVhK6sQEPPSrp6/GyIP3fP+8QD9tCSqyTzTq1&#xA;55V8uGfQfLdxrRtgEh0rTfQh4IP8lmT4R4Rox/yab4q8/wDy488a55/0/XtV1LTh5W1rTbkWifVo&#xA;4hf21vGBNS7e9K845GJHH0lX4WNa/ZVTnyfCfMGrReaxpsw0G1MreWIaQR+vLcFvrWrTIGjHqXBZ&#xA;hFt9gs3+7NlWf/Xbn/lgn/4KD/qrirvrtz/ywT/8FB/1VxV3125/5YJ/+Cg/6q4q767c/wDLBP8A&#xA;8FB/1VxV3125/wCWCf8A4KD/AKq4q767c/8ALBP/AMFB/wBVcVd9duf+WCf/AIKD/qrirvrtz/yw&#xA;T/8ABQf9VcVd9duf+WCf/goP+quKu9fUH3jtFRelJ5QrV9hGswp9P0Yq71NV/wCWeD/ke/8A1RxV&#xA;JPPWmavqOkWaWUBu0hvIJtS02Ob0GubZa+pCkpMa/aKvxYqrheJIBxVgFzpn55rql4NM52Hlz9yt&#xA;tp0Uun+vHa+pbfu7RnSQJcJF9YEjTSMjErwPcKolH/OSC9toJri6NzfalcJMvCxlgTTEb1kmgdIq&#xA;RyrDEsHGdgGkl5b8cVZV5VtvzPPlqGPW7+0h8wJM/wBanmt1u4XioPT9JbaWx40H2uX7XKg48cVS&#xA;Pzfp/wCc0mr6rPoN866ZJII7KzU2KFbVY9PZ3geWJmW4d/ryqZiyj4dhscVQUa/m/pXk7U5dSuLq&#xA;58w3d3oYtWtjZzBI55bW2vo4FaLhG4X1GkZ09IV5rT4sVSS60j/nIORBJq80c1nZ2tndIsTWzP8A&#xA;XLS4gn50RIy0nD1g6hSjEDj1CqqvutK/5yDvtMa3mkaexu49RSWGSWwFw0c9iI4I5THFbov+lMzo&#xA;yGqrRWpTdVbdeXP+cgmu5r61vXtpp5IoPrLHT7m7WyjlupFUx/6JaswkkjJpx+D4a1BGKvdMVdir&#xA;sVdirsVdirsVdiqA13QdI17S59K1a2W7sbgASRNUbqeSsrKQyurAFWUgg7jFWO29r+ZGhAWtq9p5&#xA;o05doJr+d7HUI1/ZWWSOG4iuKfz8Yz48juVVOXyz5q80SKvnCS1s9CUh28uadJJOtyQQQt7dyJAZ&#xA;Ix3hSNVb9pnXbFWaKqqoVQFVRRVGwAHYYq3irsVdirsVdirsVdirsVdirsVdirsVdirsVdirsVdi&#xA;rsVdirsVf//Z</xmpGImg:image>
               </rdf:li>
            </rdf:Alt>
         </xmp:Thumbnails>
      </rdf:Description>
      <rdf:Description rdf:about=""
            xmlns:xmpMM="http://ns.adobe.com/xap/1.0/mm/"
            xmlns:stRef="http://ns.adobe.com/xap/1.0/sType/ResourceRef#"
            xmlns:stEvt="http://ns.adobe.com/xap/1.0/sType/ResourceEvent#">
         <xmpMM:DocumentID>xmp.did:CC119786122068118083BCB8240ADB87</xmpMM:DocumentID>
         <xmpMM:InstanceID>xmp.iid:CC119786122068118083BCB8240ADB87</xmpMM:InstanceID>
         <xmpMM:RenditionClass>proof:pdf</xmpMM:RenditionClass>
         <xmpMM:OriginalDocumentID>uuid:5700BF6A0426DF118833972942CE57BD</xmpMM:OriginalDocumentID>
         <xmpMM:DerivedFrom rdf:parseType="Resource">
            <stRef:instanceID>uuid:beb5a009-0de6-ba45-9906-6e34b57c66ce</stRef:instanceID>
            <stRef:documentID>xmp.did:CB119786122068118083BCB8240ADB87</stRef:documentID>
            <stRef:originalDocumentID>uuid:5700BF6A0426DF118833972942CE57BD</stRef:originalDocumentID>
            <stRef:renditionClass>proof:pdf</stRef:renditionClass>
         </xmpMM:DerivedFrom>
         <xmpMM:History>
            <rdf:Seq>
               <rdf:li rdf:parseType="Resource">
                  <stEvt:action>saved</stEvt:action>
                  <stEvt:instanceID>xmp.iid:CB119786122068118083BCB8240ADB87</stEvt:instanceID>
                  <stEvt:when>2015-02-13T17:10:06+02:00</stEvt:when>
                  <stEvt:softwareAgent>Adobe Illustrator CS5.1</stEvt:softwareAgent>
                  <stEvt:changed>/</stEvt:changed>
               </rdf:li>
               <rdf:li rdf:parseType="Resource">
                  <stEvt:action>saved</stEvt:action>
                  <stEvt:instanceID>xmp.iid:CC119786122068118083BCB8240ADB87</stEvt:instanceID>
                  <stEvt:when>2015-02-13T17:10:27+02:00</stEvt:when>
                  <stEvt:softwareAgent>Adobe Illustrator CS5.1</stEvt:softwareAgent>
                  <stEvt:changed>/</stEvt:changed>
               </rdf:li>
            </rdf:Seq>
         </xmpMM:History>
      </rdf:Description>
      <rdf:Description rdf:about=""
            xmlns:pdf="http://ns.adobe.com/pdf/1.3/">
         <pdf:Producer>Adobe PDF library 9.90</pdf:Producer>
      </rdf:Description>
      <rdf:Description rdf:about=""
            xmlns:xmpTPg="http://ns.adobe.com/xap/1.0/t/pg/"
            xmlns:stDim="http://ns.adobe.com/xap/1.0/sType/Dimensions#"
            xmlns:xmpG="http://ns.adobe.com/xap/1.0/g/">
         <xmpTPg:NPages>1</xmpTPg:NPages>
         <xmpTPg:HasVisibleTransparency>False</xmpTPg:HasVisibleTransparency>
         <xmpTPg:HasVisibleOverprint>False</xmpTPg:HasVisibleOverprint>
         <xmpTPg:MaxPageSize rdf:parseType="Resource">
            <stDim:w>144.999935</stDim:w>
            <stDim:h>94.682421</stDim:h>
            <stDim:unit>Millimeters</stDim:unit>
         </xmpTPg:MaxPageSize>
         <xmpTPg:PlateNames>
            <rdf:Seq>
               <rdf:li>Cyan</rdf:li>
               <rdf:li>Magenta</rdf:li>
               <rdf:li>Yellow</rdf:li>
               <rdf:li>Black</rdf:li>
            </rdf:Seq>
         </xmpTPg:PlateNames>
         <xmpTPg:SwatchGroups>
            <rdf:Seq>
               <rdf:li rdf:parseType="Resource">
                  <xmpG:groupName>Default Swatch Group</xmpG:groupName>
                  <xmpG:groupType>0</xmpG:groupType>
               </rdf:li>
            </rdf:Seq>
         </xmpTPg:SwatchGroups>
      </rdf:Description>
   </rdf:RDF>
</x:xmpmeta>
                                                                                                    
                                                                                                    
                                                                                                    
                                                                                                    
                                                                                                    
                                                                                                    
                                                                                                    
                                                                                                    
                                                                                                    
                                                                                                    
                                                                                                    
                                                                                                    
                                                                                                    
                                                                                                    
                                                                                                    
                                                                                                    
                                                                                                    
                                                                                                    
                                                                                                    
                                                                                                    
                           
<?xpacket end="w"?>
	</metadata>
<g>
	<path fill="none" stroke="#000000" stroke-width="1.5024" d="M158.657,115.689c-14.547,41.044-28.814,78.9-56.601,116.666
		c-13.054,17.719-24.245,12.87-35.155-0.466c-29.747-36.273-48.209-72.172-57.255-116.014l-0.093-0.747
		c12.309-35.155,33.383-54.922,57.348-64.994c7.273-3.077,9.044-10.631,8.485-20.049c-0.373-7.739,0.652-15.479,0.652-23.126
		l5.875-1.491l10.071,2.518c0.094,7.366,1.026,14.732,0.653,22.1c-0.56,9.417,1.212,16.97,8.485,20.049
		C125.18,60.301,146.348,80.163,158.657,115.689z"/>
	<path fill="#A7A9AC" d="M72.777-7.118H95.25c-1.771,2.705-2.892,6.155-3.171,10.536c-0.467,8.859,1.026,17.811,0.56,26.67
		c-0.187,2.424-0.187,4.849,0.093,6.994H75.294c0.188-2.145,0.28-4.57,0.094-6.994c-0.467-8.859,1.026-17.811,0.56-26.67
		C75.667-0.962,74.548-4.414,72.777-7.118z"/>
	<g>
		<path fill="none" stroke="#000000" stroke-width="1.0001" d="M67.834,22.443c0.093,4.475-1.213,7.833-3.078,10.817"/>
		<path fill="none" stroke="#000000" stroke-width="1.0001" d="M60.654,39.226c-4.011,3.916-8.486,7.274-13.241,9.978"/>
		<path fill="none" stroke="#000000" stroke-width="1.0001" d="M40.792,57.875c-7.273,1.399-12.962,5.595-17.158,12.495"/>
		<path fill="none" stroke="#000000" stroke-width="1.0001" d="M10.579,89.86c-5.689-0.746-8.952,4.476-10.632,13.895
			c1.306,4.569-0.185,8.952-4.382,13.053c-3.264,3.172-4.475,6.9-3.73,11.19c2.332,5.409,0.467,10.269-5.408,14.466
			c-5.315,3.543-7.647,9.791-4.757,20.796"/>
	</g>
	<g>
		<path fill="none" stroke="#000000" stroke-width="1.0001" d="M99.444,21.976c-0.091,4.476,1.213,7.833,3.078,10.723"/>
		<path fill="none" stroke="#000000" stroke-width="1.0001" d="M106.625,38.761c4.011,3.917,8.487,7.18,13.241,9.883"/>
		<path fill="none" stroke="#000000" stroke-width="1.0001" d="M126.579,57.41c7.273,1.399,12.961,5.595,17.064,12.495"/>
		<path fill="none" stroke="#000000" stroke-width="1.0001" d="M156.698,89.393c5.689-0.838,8.953,4.476,10.63,13.895
			c-1.304,4.569,0.186,8.951,4.477,13.054c3.076,3.077,4.291,6.806,3.545,11.19c-2.332,5.407-0.469,10.271,5.5,14.464
			c5.223,3.545,7.647,9.791,4.661,20.793"/>
	</g>
	<path stroke="#000000" stroke-width="0.0448" stroke-linecap="round" stroke-linejoin="round" d="M81.356,232.17l10.629,4.008
		c-1.678-2.61-1.771-5.034,0-7.737L81.356,232.17z"/>
	<path stroke="#000000" stroke-width="0.0445" stroke-linecap="round" stroke-linejoin="round" d="M176.842,181.534l11.19-0.931
		c-2.613-1.68-3.824-3.823-3.357-6.995L176.842,181.534z"/>
	<path stroke="#000000" stroke-width="0.0448" stroke-linecap="round" stroke-linejoin="round" d="M142.245,112.239l11.19,0.933
		c-2.237-1.958-3.078-4.289-2.053-7.365L142.245,112.239z"/>
	<path stroke="#000000" stroke-width="0.0448" stroke-linecap="round" stroke-linejoin="round" d="M79.676,28.783l10.537,4.009
		c-1.678-2.612-1.771-5.036,0-7.739L79.676,28.783z"/>
	<path stroke="#000000" stroke-width="0.0672" stroke-linecap="round" stroke-linejoin="round" d="M-0.517,178.416l15.759,5.969
		c-2.423-3.918-2.611-7.553,0-11.656L-0.517,178.416z"/>
	<path stroke="#000000" stroke-width="0.0672" stroke-linecap="round" stroke-linejoin="round" d="M167.422,176.363l-15.851,6.063
		c2.518-4.013,2.705-7.646,0.093-11.658L167.422,176.363z"/>
	<path stroke="#000000" stroke-width="0.0672" stroke-linecap="round" stroke-linejoin="round" d="M146.068,94.429l-15.759,6.062
		c2.423-4.009,2.611-7.647,0-11.656L146.068,94.429z"/>
	<path stroke="#000000" stroke-width="0.0672" stroke-linecap="round" stroke-linejoin="round" d="M21.302,94.429l15.759,6.062
		c-2.425-4.009-2.61-7.647,0-11.656L21.302,94.429z"/>
	<polygon fill="none" stroke="#000000" stroke-width="0.5" points="75.667,55.546 82.66,48.458 89.655,55.546 82.66,62.54 	"/>
	<path fill="none" stroke="#000000" stroke-width="1.0001" d="M66.342,205.782c3.73,0,6.807-3.079,6.807-6.807
		c0-3.732-3.077-6.81-6.807-6.81c-3.731,0-6.808,3.077-6.808,6.81C59.534,202.703,62.612,205.782,66.342,205.782z"/>
	<path fill="none" stroke="#000000" stroke-width="1.0001" d="M100.005,206.714c3.73,0,6.807-3.08,6.807-6.808
		c0-3.729-3.077-6.807-6.807-6.807s-6.808,3.077-6.808,6.807C93.197,203.634,96.274,206.714,100.005,206.714z"/>
	<path fill="none" stroke="#000000" stroke-width="1.0001" d="M108.21,180.138c4.382,0,8.02-3.638,8.02-8.021
		c0-4.381-3.638-8.019-8.02-8.019c-4.382,0-8.019,3.638-8.019,8.019C100.191,176.5,103.829,180.138,108.21,180.138z"/>
	<path fill="none" stroke="#000000" stroke-width="1.0001" d="M58.508,181.35c4.476,0,8.021-3.638,8.021-8.021
		c0-4.383-3.545-8.018-8.021-8.018c-4.382,0-8.018,3.635-8.018,8.018C50.49,177.712,54.127,181.35,58.508,181.35z"/>
	<path fill="none" stroke="#000000" stroke-width="1.0001" d="M51.328,149.179c5.128,0,9.326-4.193,9.326-9.418
		c0-5.135-4.197-9.337-9.326-9.337c-5.222,0-9.417,4.2-9.417,9.337C41.91,144.982,46.107,149.179,51.328,149.179z"/>
	<path fill="none" stroke="#000000" stroke-width="1.0001" d="M46.386,118.207c5.688,0,10.444-4.755,10.444-10.351
		c0-5.781-4.755-10.443-10.444-10.443c-5.78,0-10.444,4.662-10.444,10.443C35.942,113.453,40.606,118.207,46.386,118.207z"/>
	<path fill="none" stroke="#000000" stroke-width="1.0001" d="M124.622,118.487c5.781,0,10.443-4.661,10.443-10.351
		s-4.662-10.444-10.443-10.444c-5.689,0-10.444,4.755-10.444,10.444S118.934,118.487,124.622,118.487z"/>
	<path fill="none" stroke="#000000" stroke-width="1.0001" d="M114.551,148.898c5.127,0,9.325-4.196,9.325-9.325
		c0-5.23-4.197-9.429-9.325-9.429c-5.222,0-9.417,4.198-9.417,9.429C105.133,144.702,109.328,148.898,114.551,148.898z"/>
	<path fill="none" stroke="#000000" stroke-width="1.0001" stroke-dasharray="5.0003,3.0002" d="M47.134,190.396
		c15.105,17.528,22.846,41.681,24.43,35.62c10.351-8.488,18.464-5.036,25.177,1.305c2.051,6.899,14.268-20.796,26.95-40.47"/>
	<polyline fill="none" stroke="#000000" stroke-width="1.0001" points="48.066,83.24 83.219,48.366 117.815,83.24 	"/>
	<line fill="none" stroke="#000000" stroke-width="1.0001" x1="29.694" y1="94.429" x2="141.687" y2="94.15"/>
	<line fill="none" stroke="#000000" stroke-width="1.0001" x1="4.89" y1="178.136" x2="160.056" y2="176.086"/>
	<path fill="none" stroke="#000000" stroke-width="2.0001" d="M-0.424-17.655c20.049,1.306,40.19,2.891,60.238,4.01
		c9.419,0.56,15.479,5.968,16.132,17.063c0.467,8.859-1.026,17.811-0.56,26.67c0.56,9.417-1.211,16.97-8.485,20.049
		C35.942,63.191,9.647,92.472,1.068,150.482c-3.543,23.872-3.357,42.988-12.588,44.2c-14.267,1.864-23.686-9.698-28.629-21.632"/>
	<path fill="none" stroke="#000000" stroke-width="2.0001" d="M168.448-17.655c-20.142,1.306-40.19,2.891-60.238,4.01
		c-9.418,0.56-15.479,5.968-16.132,17.063c-0.467,8.859,1.026,17.811,0.56,26.67c-0.56,9.417,1.211,16.97,8.485,20.049
		c30.958,13.054,57.161,42.334,65.833,100.345c3.451,23.872,3.357,42.988,12.403,44.2c14.36,1.864,23.778-9.698,28.627-21.632"/>
	<path fill="none" stroke="#000000" stroke-width="2.0001" d="M-18.794,194.31c-6.714-11.188-6.526-17.437-2.517-20.981"/>
	<path fill="none" stroke="#000000" stroke-width="2.0001" d="M191.201,193.285c6.715-11.189,6.622-17.438,2.611-20.98"/>
	<line fill="none" stroke="#000000" stroke-width="0.5" x1="256.576" y1="29.342" x2="87.882" y2="29.342"/>
	<line fill="none" stroke="#000000" stroke-width="0.5" x1="253.498" y1="77.646" x2="142.899" y2="111.401"/>
	<line fill="none" stroke="#000000" stroke-width="0.5" x1="253.498" y1="149.271" x2="183.368" y2="178.365"/>
	<line fill="none" stroke="#000000" stroke-width="0.5" x1="252.94" y1="231.329" x2="84.712" y2="232.355"/>
	<g>
		<path d="M260.981,28.2c0.454,0.291,1.109,0.513,1.808,0.513c1.038,0,1.643-0.537,1.643-1.341c0-0.723-0.422-1.154-1.481-1.551
			c-1.283-0.466-2.076-1.142-2.076-2.238c0-1.223,1.014-2.133,2.543-2.133c0.792,0,1.387,0.187,1.725,0.385l-0.279,0.829
			c-0.246-0.152-0.77-0.373-1.483-0.373c-1.071,0-1.479,0.642-1.479,1.177c0,0.736,0.477,1.096,1.56,1.516
			c1.329,0.525,1.994,1.154,1.994,2.309c0,1.212-0.885,2.273-2.736,2.273c-0.758,0-1.587-0.233-2.006-0.513L260.981,28.2z"/>
		<path d="M267.101,23.792l1.223,3.333c0.142,0.373,0.281,0.816,0.377,1.155h0.021c0.104-0.338,0.223-0.769,0.361-1.178l1.117-3.31
			h1.084l-1.536,4.022c-0.733,1.936-1.236,2.927-1.936,3.544c-0.512,0.432-1.006,0.606-1.261,0.653l-0.257-0.862
			c0.257-0.07,0.596-0.233,0.9-0.501c0.279-0.222,0.617-0.619,0.861-1.143c0.046-0.105,0.079-0.175,0.079-0.245
			c0-0.059-0.024-0.14-0.079-0.257l-2.076-5.211H267.101z"/>
		<path d="M272.219,25.32c0-0.595-0.024-1.061-0.046-1.527h0.897l0.049,0.91h0.032c0.314-0.537,0.84-1.039,1.787-1.039
			c0.754,0,1.338,0.467,1.584,1.131h0.026c0.175-0.326,0.407-0.559,0.641-0.734c0.338-0.257,0.7-0.397,1.236-0.397
			c0.757,0,1.863,0.491,1.863,2.449v3.323h-1.002V26.24c0-1.096-0.408-1.738-1.223-1.738c-0.597,0-1.038,0.432-1.224,0.921
			c-0.046,0.151-0.079,0.339-0.079,0.513v3.498h-1.006v-3.381c0-0.91-0.394-1.55-1.176-1.55c-0.631,0-1.109,0.513-1.272,1.026
			c-0.058,0.152-0.078,0.327-0.078,0.502v3.405h-1.006V25.32H272.219z"/>
		<path d="M281.941,25.635c0-0.723-0.013-1.306-0.047-1.842h0.919l0.061,0.967h0.024c0.406-0.701,1.082-1.096,1.994-1.096
			c1.376,0,2.402,1.154,2.402,2.868c0,2.029-1.247,3.032-2.566,3.032c-0.757,0-1.399-0.327-1.738-0.886h-0.025v3.067h-1.023V25.635
			L281.941,25.635z M282.965,27.138c0,0.14,0.014,0.292,0.049,0.419c0.175,0.712,0.805,1.201,1.527,1.201
			c1.084,0,1.714-0.886,1.714-2.181c0-1.131-0.584-2.098-1.666-2.098c-0.701,0-1.365,0.489-1.564,1.258
			c-0.022,0.141-0.06,0.292-0.06,0.419V27.138z"/>
		<path d="M288.573,21.157h1.024v3.522h0.026c0.163-0.291,0.42-0.561,0.734-0.724c0.302-0.186,0.665-0.291,1.049-0.291
			c0.758,0,1.972,0.467,1.972,2.415v3.357h-1.026v-3.242c0-0.92-0.338-1.679-1.307-1.679c-0.662,0-1.177,0.467-1.375,1.026
			c-0.059,0.14-0.073,0.291-0.073,0.489v3.405h-1.024V21.157L288.573,21.157z"/>
		<path d="M295.264,23.792l1.224,3.333c0.139,0.373,0.279,0.816,0.373,1.155h0.025c0.104-0.338,0.222-0.769,0.361-1.178l1.117-3.31
			h1.085l-1.539,4.022c-0.735,1.936-1.234,2.927-1.937,3.544c-0.512,0.432-1.003,0.606-1.259,0.653l-0.256-0.862
			c0.256-0.07,0.594-0.233,0.897-0.501c0.281-0.222,0.617-0.619,0.862-1.143c0.047-0.105,0.079-0.175,0.079-0.245
			c0-0.059-0.024-0.14-0.079-0.257l-2.077-5.211H295.264z"/>
		<path d="M300.196,28.398c0.315,0.186,0.852,0.397,1.365,0.397c0.737,0,1.084-0.362,1.084-0.84c0-0.489-0.29-0.758-1.038-1.037
			c-1.022-0.373-1.504-0.922-1.504-1.598c0-0.91,0.75-1.656,1.949-1.656c0.57,0,1.072,0.152,1.376,0.351l-0.243,0.734
			c-0.224-0.128-0.629-0.327-1.154-0.327c-0.606,0-0.933,0.349-0.933,0.771c0,0.478,0.326,0.688,1.061,0.967
			c0.968,0.362,1.481,0.851,1.481,1.702c0,1.004-0.781,1.703-2.098,1.703c-0.618,0-1.189-0.164-1.586-0.397L300.196,28.398z"/>
		<path d="M305.442,22.755c-0.385,0-0.641-0.303-0.641-0.664s0.268-0.653,0.665-0.653c0.393,0,0.65,0.291,0.65,0.653
			c0,0.362-0.258,0.664-0.666,0.664H305.442z M304.954,29.436v-5.643h1.023v5.643H304.954z"/>
		<path d="M307.538,28.398c0.315,0.186,0.854,0.397,1.367,0.397c0.734,0,1.082-0.362,1.082-0.84c0-0.489-0.289-0.758-1.035-1.037
			c-1.026-0.373-1.504-0.922-1.504-1.598c0-0.91,0.746-1.656,1.946-1.656c0.571,0,1.071,0.152,1.378,0.351l-0.244,0.734
			c-0.222-0.128-0.629-0.327-1.153-0.327c-0.607,0-0.934,0.349-0.934,0.771c0,0.478,0.326,0.688,1.061,0.967
			c0.968,0.362,1.483,0.851,1.483,1.702c0,1.004-0.782,1.703-2.101,1.703c-0.618,0-1.189-0.164-1.586-0.397L307.538,28.398z"/>
		<path d="M314.766,25.635c0-0.723-0.011-1.306-0.047-1.842h0.921l0.059,0.967h0.025c0.409-0.701,1.085-1.096,1.994-1.096
			c1.376,0,2.401,1.154,2.401,2.868c0,2.029-1.247,3.032-2.564,3.032c-0.759,0-1.399-0.327-1.738-0.886h-0.025v3.067h-1.025V25.635
			L314.766,25.635z M315.793,27.138c0,0.14,0.012,0.292,0.048,0.419c0.174,0.712,0.804,1.201,1.527,1.201
			c1.083,0,1.714-0.886,1.714-2.181c0-1.131-0.583-2.098-1.667-2.098c-0.699,0-1.365,0.489-1.563,1.258
			c-0.023,0.141-0.059,0.292-0.059,0.419V27.138z"/>
		<path d="M326.122,27.896c0,0.583,0.013,1.096,0.047,1.539h-0.911l-0.059-0.921h-0.025c-0.255,0.455-0.859,1.05-1.863,1.05
			c-0.888,0-1.949-0.502-1.949-2.471v-3.3h1.026v3.113c0,1.072,0.338,1.807,1.259,1.807c0.688,0,1.168-0.478,1.354-0.945
			c0.059-0.14,0.091-0.326,0.091-0.525v-3.451h1.026v4.104H326.122z"/>
		<path d="M327.821,21.157h1.025v3.534h0.025c0.361-0.629,1.014-1.026,1.924-1.026c1.399,0,2.378,1.166,2.378,2.868
			c0,2.028-1.281,3.032-2.543,3.032c-0.815,0-1.457-0.314-1.889-1.061h-0.024l-0.059,0.932h-0.888
			c0.035-0.384,0.048-0.956,0.048-1.458L327.821,21.157L327.821,21.157z M328.847,27.174c0,0.128,0.013,0.257,0.036,0.373
			c0.197,0.712,0.804,1.201,1.537,1.201c1.083,0,1.715-0.875,1.715-2.168c0-1.144-0.584-2.109-1.682-2.109
			c-0.699,0-1.353,0.489-1.55,1.259c-0.033,0.128-0.059,0.268-0.059,0.431L328.847,27.174L328.847,27.174z"/>
		<path d="M334.944,22.755c-0.386,0-0.644-0.303-0.644-0.664s0.269-0.653,0.665-0.653s0.651,0.291,0.651,0.653
			c0,0.362-0.255,0.664-0.663,0.664H334.944z M334.454,29.436v-5.643h1.026v5.643H334.454z"/>
		<path d="M337.042,28.398c0.314,0.186,0.851,0.397,1.365,0.397c0.733,0,1.082-0.362,1.082-0.84c0-0.489-0.289-0.758-1.036-1.037
			c-1.024-0.373-1.504-0.922-1.504-1.598c0-0.91,0.747-1.656,1.949-1.656c0.571,0,1.071,0.152,1.377,0.351l-0.246,0.734
			c-0.222-0.128-0.629-0.327-1.153-0.327c-0.605,0-0.934,0.349-0.934,0.771c0,0.478,0.328,0.688,1.063,0.967
			c0.965,0.362,1.48,0.851,1.48,1.702c0,1.004-0.78,1.703-2.097,1.703c-0.619,0-1.191-0.164-1.587-0.397L337.042,28.398z"/>
	</g>
	<g>
		<path d="M260.981,78.273c0.454,0.292,1.109,0.512,1.808,0.512c1.038,0,1.643-0.536,1.643-1.34c0-0.724-0.422-1.154-1.481-1.552
			c-1.283-0.467-2.076-1.142-2.076-2.238c0-1.225,1.014-2.133,2.543-2.133c0.792,0,1.387,0.186,1.725,0.386l-0.279,0.828
			c-0.246-0.153-0.77-0.373-1.483-0.373c-1.071,0-1.482,0.641-1.482,1.177c0,0.735,0.479,1.096,1.563,1.515
			c1.329,0.524,1.994,1.155,1.994,2.309c0,1.212-0.885,2.273-2.736,2.273c-0.758,0-1.587-0.233-2.006-0.513L260.981,78.273z"/>
		<path d="M270.854,78.156c0,0.49,0.022,0.969,0.079,1.353h-0.919l-0.094-0.711h-0.035c-0.301,0.443-0.921,0.839-1.725,0.839
			c-1.143,0-1.727-0.804-1.727-1.62c0-1.365,1.212-2.109,3.393-2.1v-0.115c0-0.467-0.129-1.318-1.281-1.306
			c-0.537,0-1.082,0.152-1.482,0.419l-0.232-0.688c0.466-0.291,1.153-0.491,1.865-0.491c1.738,0,2.157,1.179,2.157,2.31
			L270.854,78.156L270.854,78.156z M269.852,76.629c-1.119-0.024-2.392,0.174-2.392,1.27c0,0.677,0.441,0.979,0.957,0.979
			c0.748,0,1.225-0.466,1.386-0.943c0.037-0.105,0.049-0.221,0.049-0.326V76.629z"/>
		<path d="M276.516,79.311c-0.268,0.128-0.861,0.326-1.619,0.326c-1.703,0-2.811-1.153-2.811-2.891c0-1.737,1.189-3.008,3.03-3.008
			c0.607,0,1.144,0.152,1.424,0.304l-0.234,0.78c-0.243-0.128-0.629-0.268-1.189-0.268c-1.292,0-1.991,0.967-1.991,2.146
			c0,1.306,0.838,2.109,1.956,2.109c0.584,0,0.968-0.14,1.262-0.268L276.516,79.311z"/>
		<path d="M277.729,75.625c0-0.664-0.014-1.235-0.048-1.76h0.901l0.045,1.107h0.034c0.256-0.757,0.886-1.236,1.573-1.236
			c0.105,0,0.187,0.013,0.283,0.035v0.956c-0.117-0.012-0.222-0.023-0.36-0.023c-0.725,0-1.237,0.548-1.379,1.306
			c-0.024,0.151-0.033,0.314-0.033,0.489v3.008h-1.026L277.729,75.625z"/>
		<path d="M286.23,77.968c0,0.583,0.013,1.096,0.047,1.539h-0.911l-0.059-0.921h-0.025c-0.255,0.454-0.859,1.05-1.863,1.05
			c-0.888,0-1.949-0.5-1.949-2.472v-3.3h1.026v3.113c0,1.072,0.337,1.807,1.259,1.807c0.688,0,1.168-0.478,1.354-0.945
			c0.059-0.14,0.091-0.327,0.091-0.524v-3.452h1.026v4.104H286.23z"/>
		<path d="M287.928,75.392c0-0.595-0.024-1.061-0.048-1.528h0.899l0.047,0.91h0.033c0.315-0.537,0.84-1.039,1.785-1.039
			c0.757,0,1.34,0.467,1.586,1.131h0.022c0.177-0.326,0.408-0.56,0.642-0.735c0.338-0.256,0.701-0.396,1.236-0.396
			c0.758,0,1.864,0.49,1.864,2.447v3.324h-1.001v-3.195c0-1.096-0.408-1.737-1.224-1.737c-0.597,0-1.039,0.431-1.223,0.921
			c-0.047,0.151-0.081,0.338-0.081,0.513v3.498h-1.004v-3.381c0-0.91-0.396-1.55-1.176-1.55c-0.631,0-1.11,0.513-1.273,1.026
			c-0.059,0.152-0.079,0.327-0.079,0.501v3.405h-1.005L287.928,75.392L287.928,75.392z"/>
	</g>
	<g>
		<path d="M262.124,141.414v7.857h-1.026v-7.857H262.124z"/>
		<path d="M263.697,148.235c0.314,0.185,0.853,0.395,1.367,0.395c0.734,0,1.083-0.361,1.083-0.841c0-0.49-0.291-0.756-1.036-1.036
			c-1.026-0.376-1.505-0.922-1.505-1.597c0-0.912,0.746-1.656,1.947-1.656c0.571,0,1.071,0.151,1.377,0.349l-0.243,0.734
			c-0.223-0.129-0.63-0.327-1.156-0.327c-0.606,0-0.931,0.349-0.931,0.769c0,0.48,0.324,0.689,1.061,0.968
			c0.968,0.36,1.483,0.851,1.483,1.701c0,1.002-0.783,1.699-2.101,1.699c-0.619,0-1.191-0.163-1.586-0.393L263.697,148.235z"/>
		<path d="M272.475,149.071c-0.268,0.132-0.86,0.329-1.62,0.329c-1.702,0-2.811-1.155-2.811-2.892c0-1.735,1.189-3.006,3.031-3.006
			c0.606,0,1.144,0.151,1.424,0.303l-0.232,0.779c-0.246-0.126-0.63-0.268-1.191-0.268c-1.293,0-1.992,0.965-1.992,2.146
			c0,1.309,0.84,2.111,1.957,2.111c0.583,0,0.967-0.142,1.261-0.271L272.475,149.071z"/>
		<path d="M273.674,140.992h1.026v3.522h0.024c0.165-0.293,0.421-0.561,0.735-0.724c0.301-0.186,0.663-0.291,1.051-0.291
			c0.755,0,1.97,0.466,1.97,2.416v3.355h-1.026v-3.243c0-0.919-0.339-1.68-1.307-1.68c-0.663,0-1.177,0.466-1.376,1.026
			c-0.06,0.14-0.071,0.29-0.071,0.49v3.406h-1.026V140.992L273.674,140.992z"/>
		<path d="M280.727,146.623c0.023,1.388,0.899,1.961,1.923,1.961c0.736,0,1.189-0.13,1.563-0.281l0.186,0.722
			c-0.362,0.164-0.992,0.361-1.89,0.361c-1.725,0-2.775-1.153-2.775-2.843c0-1.714,1.013-3.055,2.657-3.055
			c1.845,0,2.32,1.621,2.32,2.657c0,0.21-0.012,0.373-0.033,0.49L280.727,146.623z M283.723,145.89
			c0.013-0.642-0.269-1.668-1.411-1.668c-1.049,0-1.489,0.956-1.574,1.668H283.723z"/>
		<path d="M289.959,147.918c0,0.49,0.026,0.968,0.081,1.354h-0.921l-0.094-0.712h-0.032c-0.303,0.443-0.921,0.841-1.727,0.841
			c-1.141,0-1.726-0.807-1.726-1.621c0-1.365,1.214-2.109,3.394-2.1v-0.117c0-0.465-0.13-1.318-1.282-1.307
			c-0.537,0-1.084,0.154-1.482,0.422l-0.233-0.689c0.466-0.29,1.154-0.49,1.865-0.49c1.738,0,2.157,1.178,2.157,2.309V147.918
			L289.959,147.918z M288.957,146.392c-1.117-0.024-2.39,0.176-2.39,1.272c0,0.676,0.442,0.978,0.958,0.978
			c0.746,0,1.223-0.465,1.386-0.943c0.034-0.107,0.046-0.222,0.046-0.326V146.392L288.957,146.392z"/>
		<path d="M291.602,140.992h1.024v8.279h-1.024V140.992z"/>
		<path d="M298.037,142.276v1.354h1.471v0.78h-1.471v3.042c0,0.702,0.196,1.098,0.769,1.098c0.28,0,0.442-0.024,0.597-0.071
			l0.047,0.783c-0.2,0.067-0.515,0.139-0.911,0.139c-0.478,0-0.862-0.166-1.107-0.435c-0.28-0.314-0.397-0.813-0.397-1.479v-3.079
			h-0.872v-0.782h0.872v-1.036L298.037,142.276z"/>
		<path d="M305.379,147.732c0,0.583,0.013,1.098,0.047,1.536h-0.911l-0.057-0.919h-0.024c-0.256,0.453-0.862,1.051-1.865,1.051
			c-0.888,0-1.949-0.502-1.949-2.473v-3.298h1.026v3.11c0,1.073,0.339,1.807,1.26,1.807c0.689,0,1.167-0.478,1.353-0.943
			c0.059-0.139,0.093-0.327,0.093-0.526v-3.45h1.025v4.104h0.003V147.732z"/>
		<path d="M307.082,140.992h1.022v3.532h0.026c0.36-0.629,1.013-1.024,1.923-1.024c1.399,0,2.377,1.168,2.377,2.867
			c0,2.028-1.279,3.033-2.54,3.033c-0.816,0-1.458-0.317-1.891-1.063h-0.024l-0.056,0.935h-0.888
			c0.033-0.386,0.045-0.956,0.045-1.458v-6.821H307.082L307.082,140.992z M308.104,147.011c0,0.127,0.012,0.256,0.034,0.373
			c0.2,0.71,0.806,1.2,1.541,1.2c1.081,0,1.712-0.873,1.712-2.17c0-1.142-0.584-2.106-1.68-2.106c-0.701,0-1.353,0.49-1.551,1.258
			c-0.032,0.129-0.059,0.269-0.059,0.434L308.104,147.011L308.104,147.011z"/>
		<path d="M314.308,146.623c0.021,1.388,0.896,1.961,1.921,1.961c0.736,0,1.189-0.13,1.564-0.281l0.185,0.722
			c-0.36,0.164-0.991,0.361-1.89,0.361c-1.726,0-2.776-1.153-2.776-2.843c0-1.714,1.014-3.055,2.659-3.055
			c1.844,0,2.32,1.621,2.32,2.657c0,0.21-0.013,0.373-0.035,0.49L314.308,146.623z M317.302,145.89
			c0.013-0.642-0.268-1.668-1.411-1.668c-1.048,0-1.491,0.956-1.572,1.668H317.302z"/>
		<path d="M319.575,145.388c0-0.663-0.012-1.233-0.049-1.758h0.899l0.047,1.106h0.036c0.256-0.758,0.885-1.236,1.572-1.236
			c0.105,0,0.188,0.013,0.281,0.034v0.956c-0.117-0.01-0.223-0.021-0.361-0.021c-0.723,0-1.234,0.546-1.377,1.304
			c-0.026,0.153-0.034,0.317-0.034,0.492v3.007h-1.025L319.575,145.388z"/>
		<path d="M325.605,149.4c-1.517,0-2.706-1.119-2.706-2.903c0-1.89,1.248-2.997,2.799-2.997c1.621,0,2.716,1.178,2.716,2.892
			c0,2.1-1.458,3.009-2.799,3.009H325.605z M325.638,148.63c0.979,0,1.714-0.919,1.714-2.204c0-0.958-0.479-2.157-1.689-2.157
			c-1.202,0-1.727,1.116-1.727,2.191c0,1.236,0.7,2.167,1.689,2.167L325.638,148.63L325.638,148.63z"/>
		<path d="M329.566,148.235c0.314,0.185,0.852,0.395,1.365,0.395c0.735,0,1.082-0.361,1.082-0.841c0-0.49-0.288-0.756-1.035-1.036
			c-1.026-0.376-1.504-0.922-1.504-1.597c0-0.912,0.748-1.656,1.948-1.656c0.572,0,1.071,0.151,1.377,0.349l-0.245,0.734
			c-0.222-0.129-0.628-0.327-1.154-0.327c-0.605,0-0.934,0.349-0.934,0.769c0,0.48,0.328,0.689,1.064,0.968
			c0.965,0.36,1.48,0.851,1.48,1.701c0,1.002-0.781,1.699-2.1,1.699c-0.617,0-1.19-0.163-1.588-0.393L329.566,148.235z"/>
		<path d="M334.812,142.591c-0.386,0-0.643-0.302-0.643-0.665c0-0.361,0.27-0.651,0.664-0.651c0.396,0,0.652,0.29,0.652,0.651
			c0,0.363-0.256,0.665-0.665,0.665H334.812z M334.323,149.271v-5.645h1.024v5.645H334.323z"/>
		<path d="M338.288,142.276v1.354h1.467v0.78h-1.467v3.042c0,0.702,0.195,1.098,0.768,1.098c0.28,0,0.442-0.024,0.595-0.071
			l0.049,0.783c-0.2,0.067-0.515,0.139-0.91,0.139c-0.479,0-0.863-0.166-1.108-0.435c-0.281-0.314-0.396-0.813-0.396-1.479v-3.079
			h-0.874v-0.782h0.874v-1.036L338.288,142.276z"/>
		<path d="M341.384,143.63l1.223,3.335c0.141,0.373,0.28,0.814,0.373,1.153h0.025c0.104-0.339,0.222-0.771,0.359-1.178l1.119-3.309
			h1.085l-1.538,4.022c-0.736,1.937-1.236,2.926-1.936,3.545c-0.513,0.432-1.002,0.604-1.261,0.651l-0.256-0.863
			c0.256-0.068,0.595-0.231,0.897-0.5c0.282-0.219,0.619-0.616,0.862-1.144c0.047-0.104,0.079-0.173,0.079-0.241
			c0-0.059-0.021-0.142-0.079-0.256l-2.074-5.212h1.119L341.384,143.63L341.384,143.63z"/>
	</g>
	<g>
		<path d="M266.59,232.109c-0.361,0.188-1.118,0.373-2.075,0.373c-2.215,0-3.871-1.397-3.871-3.986c0-2.47,1.667-4.127,4.103-4.127
			c0.967,0,1.598,0.209,1.865,0.349l-0.256,0.828c-0.374-0.185-0.919-0.329-1.575-0.329c-1.844,0-3.066,1.178-3.066,3.245
			c0,1.934,1.109,3.157,3.007,3.157c0.63,0,1.261-0.129,1.669-0.326L266.59,232.109z"/>
		<path d="M269.981,232.482c-1.515,0-2.706-1.119-2.706-2.901c0-1.89,1.249-2.994,2.799-2.994c1.621,0,2.718,1.176,2.718,2.89
			c0,2.099-1.458,3.006-2.799,3.006H269.981z M270.017,231.714c0.978,0,1.714-0.919,1.714-2.203c0-0.958-0.48-2.158-1.692-2.158
			c-1.199,0-1.725,1.119-1.725,2.192c0,1.235,0.702,2.167,1.69,2.167h0.013V231.714z"/>
		<path d="M278.117,232.158c-0.269,0.129-0.86,0.326-1.619,0.326c-1.701,0-2.812-1.153-2.812-2.891c0-1.736,1.189-3.007,3.034-3.007
			c0.604,0,1.143,0.151,1.422,0.3l-0.232,0.783c-0.246-0.129-0.632-0.269-1.189-0.269c-1.295,0-1.996,0.968-1.996,2.148
			c0,1.307,0.843,2.108,1.959,2.108c0.582,0,0.967-0.142,1.258-0.269L278.117,232.158z"/>
		<path d="M283.339,232.158c-0.269,0.129-0.86,0.326-1.619,0.326c-1.702,0-2.812-1.153-2.812-2.891c0-1.736,1.189-3.007,3.033-3.007
			c0.606,0,1.144,0.151,1.425,0.3l-0.235,0.783c-0.244-0.129-0.628-0.269-1.188-0.269c-1.295,0-1.994,0.968-1.994,2.148
			c0,1.307,0.841,2.108,1.96,2.108c0.58,0,0.966-0.142,1.258-0.269L283.339,232.158z"/>
		<path d="M285.119,226.712l1.225,3.335c0.14,0.373,0.279,0.816,0.373,1.153h0.022c0.108-0.337,0.226-0.766,0.361-1.176l1.119-3.308
			h1.088l-1.54,4.022c-0.735,1.936-1.237,2.926-1.937,3.545c-0.512,0.432-1.002,0.604-1.258,0.65l-0.259-0.86
			c0.259-0.07,0.596-0.234,0.899-0.502c0.281-0.22,0.617-0.617,0.863-1.144c0.046-0.104,0.078-0.173,0.078-0.244
			c0-0.059-0.023-0.137-0.078-0.256L284,226.717h1.119V226.712L285.119,226.712z"/>
		<path d="M290.715,226.712l0.805,1.201c0.211,0.327,0.387,0.605,0.572,0.922h0.034c0.187-0.326,0.374-0.619,0.571-0.922
			l0.782-1.201h1.119l-1.924,2.73l1.969,2.915h-1.164l-0.828-1.272c-0.223-0.326-0.407-0.641-0.604-0.979h-0.027
			c-0.186,0.339-0.384,0.644-0.594,0.979l-0.816,1.272h-1.13l2.003-2.881l-1.911-2.765H290.715z"/>
		<path d="M302.734,229.045v0.699h-5.13v-0.699H302.734z"/>
		<path d="M306.407,228.24c0-0.598-0.015-1.063-0.049-1.528h0.909l0.059,0.919h0.026c0.279-0.524,0.932-1.049,1.865-1.049
			c0.78,0,1.992,0.466,1.992,2.401v3.369h-1.024v-3.252c0-0.909-0.338-1.68-1.307-1.68c-0.664,0-1.188,0.479-1.375,1.051
			c-0.046,0.129-0.073,0.314-0.073,0.478v3.406h-1.023V228.24L306.407,228.24z"/>
		<path d="M315.171,232.482c-1.515,0-2.704-1.119-2.704-2.901c0-1.89,1.248-2.994,2.798-2.994c1.62,0,2.717,1.176,2.717,2.89
			c0,2.099-1.458,3.006-2.799,3.006H315.171z M315.207,231.714c0.978,0,1.714-0.919,1.714-2.203c0-0.958-0.479-2.158-1.691-2.158
			c-1.2,0-1.726,1.119-1.726,2.192c0,1.235,0.702,2.167,1.69,2.167h0.013V231.714z"/>
		<path d="M320.509,225.361v1.351h1.471v0.782h-1.471v3.045c0,0.7,0.197,1.095,0.771,1.095c0.28,0,0.441-0.024,0.595-0.07
			l0.047,0.779c-0.197,0.073-0.515,0.14-0.911,0.14c-0.478,0-0.86-0.163-1.106-0.432c-0.281-0.314-0.397-0.814-0.397-1.479v-3.079
			h-0.873v-0.783h0.873v-1.036L320.509,225.361z"/>
		<path d="M325.603,228.555c0-0.722-0.013-1.307-0.047-1.843h0.922l0.059,0.965h0.022c0.409-0.699,1.084-1.095,1.993-1.095
			c1.379,0,2.405,1.153,2.405,2.87c0,2.028-1.248,3.03-2.567,3.03c-0.756,0-1.399-0.327-1.736-0.885h-0.027v3.064h-1.023V228.555z
			 M326.627,230.059c0,0.14,0.015,0.29,0.048,0.42c0.177,0.712,0.806,1.201,1.529,1.201c1.083,0,1.714-0.885,1.714-2.182
			c0-1.129-0.585-2.099-1.667-2.099c-0.701,0-1.367,0.492-1.563,1.263c-0.026,0.137-0.062,0.287-0.062,0.419V230.059
			L326.627,230.059z"/>
		<path d="M336.213,231.005c0,0.49,0.023,0.966,0.078,1.351h-0.919l-0.093-0.709h-0.037c-0.301,0.44-0.917,0.838-1.724,0.838
			c-1.143,0-1.726-0.805-1.726-1.621c0-1.365,1.212-2.111,3.392-2.097v-0.119c0-0.466-0.127-1.319-1.28-1.307
			c-0.539,0-1.084,0.151-1.482,0.422l-0.234-0.69c0.468-0.29,1.156-0.49,1.865-0.49c1.741,0,2.159,1.176,2.159,2.31L336.213,231.005
			L336.213,231.005z M335.209,229.477c-1.119-0.024-2.391,0.175-2.391,1.272c0,0.675,0.441,0.978,0.957,0.978
			c0.747,0,1.224-0.468,1.387-0.946c0.034-0.104,0.047-0.222,0.047-0.326V229.477L335.209,229.477z"/>
		<path d="M337.854,224.076h1.024v8.279h-1.024V224.076z"/>
		<path d="M340.582,228.555c0-0.722-0.014-1.307-0.049-1.843h0.921l0.059,0.965h0.024c0.407-0.699,1.083-1.095,1.994-1.095
			c1.377,0,2.403,1.153,2.403,2.87c0,2.028-1.246,3.03-2.565,3.03c-0.758,0-1.399-0.327-1.739-0.885h-0.024v3.064h-1.023V228.555
			L340.582,228.555z M341.605,230.059c0,0.14,0.013,0.29,0.048,0.42c0.174,0.712,0.806,1.201,1.527,1.201
			c1.085,0,1.714-0.885,1.714-2.182c0-1.129-0.583-2.099-1.668-2.099c-0.699,0-1.363,0.492-1.563,1.263
			c-0.025,0.137-0.059,0.287-0.059,0.419V230.059L341.605,230.059z"/>
		<path d="M351.189,231.005c0,0.49,0.024,0.966,0.079,1.351h-0.918l-0.095-0.709h-0.034c-0.302,0.44-0.92,0.838-1.727,0.838
			c-1.141,0-1.724-0.805-1.724-1.621c0-1.365,1.212-2.111,3.392-2.097v-0.119c0-0.466-0.128-1.319-1.281-1.307
			c-0.538,0-1.084,0.151-1.483,0.422l-0.233-0.69c0.466-0.29,1.156-0.49,1.865-0.49c1.739,0,2.159,1.176,2.159,2.31V231.005
			L351.189,231.005z M350.185,229.477c-1.118-0.024-2.39,0.175-2.39,1.272c0,0.675,0.44,0.978,0.958,0.978
			c0.746,0,1.223-0.468,1.386-0.946c0.034-0.104,0.046-0.222,0.046-0.326V229.477L350.185,229.477z"/>
		<path d="M352.831,224.076h1.023v3.532h0.027c0.36-0.629,1.013-1.023,1.924-1.023c1.399,0,2.377,1.168,2.377,2.869
			c0,2.028-1.281,3.03-2.542,3.03c-0.814,0-1.458-0.314-1.891-1.061h-0.023l-0.057,0.932h-0.889
			c0.034-0.385,0.048-0.956,0.048-1.455L352.831,224.076L352.831,224.076z M353.854,230.093c0,0.132,0.013,0.256,0.037,0.373
			c0.197,0.712,0.805,1.202,1.537,1.202c1.084,0,1.714-0.873,1.714-2.167c0-1.142-0.585-2.109-1.68-2.109
			c-0.701,0-1.354,0.49-1.551,1.258c-0.033,0.13-0.059,0.269-0.059,0.435L353.854,230.093L353.854,230.093z"/>
		<path d="M359.464,224.076h1.024v8.279h-1.024V224.076z"/>
		<path d="M362.772,229.71c0.023,1.385,0.898,1.958,1.924,1.958c0.735,0,1.188-0.129,1.563-0.28l0.186,0.722
			c-0.363,0.163-0.992,0.36-1.89,0.36c-1.726,0-2.776-1.152-2.776-2.843c0-1.714,1.014-3.055,2.66-3.055
			c1.843,0,2.316,1.622,2.316,2.658c0,0.209-0.012,0.375-0.032,0.492L362.772,229.71z M365.769,228.977
			c0.011-0.644-0.269-1.67-1.412-1.67c-1.048,0-1.49,0.958-1.575,1.67H365.769z"/>
	</g>
	<g>
		<path d="M77.699,71.458c0.223,0.011,0.479,0,0.829-0.046c0.595-0.07,1.153-0.314,1.587-0.735c0.5-0.455,0.862-1.119,1.002-2.018
			h-0.035c-0.419,0.515-1.025,0.816-1.794,0.816c-1.364,0-2.238-1.026-2.238-2.333c0-1.422,1.05-2.681,2.6-2.681
			c1.551,0,2.506,1.248,2.506,3.195c0,1.667-0.56,2.835-1.306,3.568c-0.583,0.559-1.387,0.92-2.204,1.014
			c-0.375,0.045-0.711,0.069-0.945,0.057v-0.837H77.699z M79.554,65.243c-0.864,0-1.482,0.77-1.482,1.842
			c0,0.945,0.57,1.608,1.458,1.608c0.688,0,1.224-0.337,1.503-0.792c0.047-0.094,0.082-0.21,0.082-0.373
			c0.012-1.306-0.478-2.286-1.55-2.286H79.554z"/>
		<path d="M85.497,72.297c-1.48,0-2.496-1.387-2.519-3.895c0-2.554,1.107-3.94,2.646-3.94c1.586,0,2.506,1.421,2.506,3.835
			c0,2.576-0.968,4-2.624,4H85.497z M85.544,71.504c1.039,0,1.54-1.222,1.54-3.159c0-1.866-0.467-3.089-1.54-3.089
			c-0.933,0-1.538,1.189-1.538,3.089c-0.024,1.971,0.583,3.159,1.527,3.159H85.544z"/>
		<path d="M90.438,64.182c0.957,0,1.529,0.723,1.529,1.515c0,0.934-0.758,1.55-1.563,1.55c-0.91,0-1.528-0.687-1.528-1.504
			c0-0.886,0.688-1.563,1.552-1.563L90.438,64.182L90.438,64.182z M90.416,64.73c-0.595,0-0.897,0.524-0.897,1.014
			c0,0.537,0.384,0.956,0.909,0.956c0.535,0,0.92-0.419,0.92-0.991c0-0.432-0.256-0.98-0.92-0.98L90.416,64.73L90.416,64.73z"/>
	</g>
	<g>
		<path d="M65.694,105.108c0.291,0.175,0.957,0.467,1.68,0.467c1.305,0,1.725-0.828,1.714-1.47
			c-0.011-1.061-0.968-1.515-1.959-1.515h-0.572v-0.771h0.572c0.746,0,1.69-0.385,1.69-1.282c0-0.606-0.385-1.143-1.33-1.143
			c-0.607,0-1.19,0.268-1.515,0.501l-0.28-0.746c0.408-0.292,1.177-0.583,1.995-0.583c1.492,0,2.168,0.886,2.168,1.808
			c0,0.792-0.479,1.457-1.399,1.795v0.024c0.934,0.174,1.689,0.875,1.689,1.934c0,1.214-0.956,2.274-2.764,2.274
			c-0.851,0-1.598-0.268-1.971-0.512L65.694,105.108z"/>
		<path d="M74.318,106.274v-4.862h-0.781v-0.781h0.781v-0.269c0-0.792,0.187-1.515,0.664-1.971c0.385-0.373,0.897-0.524,1.364-0.524
			c0.373,0,0.676,0.082,0.874,0.162l-0.128,0.793c-0.165-0.07-0.362-0.127-0.665-0.127c-0.863,0-1.096,0.769-1.096,1.633v0.303
			h1.364v0.781h-1.353v4.862H74.318z"/>
		<path d="M78.117,99.593c-0.384,0-0.641-0.303-0.641-0.664s0.268-0.653,0.666-0.653c0.395,0,0.652,0.291,0.652,0.653
			c0,0.362-0.257,0.664-0.663,0.664H78.117z M77.628,106.274v-5.644h1.026v5.644H77.628L77.628,106.274z"/>
		<path d="M80.355,102.158c0-0.596-0.011-1.061-0.048-1.528h0.911l0.059,0.922h0.024c0.28-0.524,0.933-1.05,1.865-1.05
			c0.782,0,1.996,0.467,1.996,2.403v3.369h-1.026v-3.253c0-0.909-0.337-1.679-1.306-1.679c-0.664,0-1.189,0.478-1.377,1.048
			c-0.045,0.129-0.07,0.314-0.07,0.479v3.405h-1.026L80.355,102.158L80.355,102.158z"/>
		<path d="M91.653,105.447c0,1.305-0.27,2.087-0.805,2.588c-0.561,0.501-1.353,0.677-2.065,0.677c-0.676,0-1.422-0.163-1.877-0.467
			l0.257-0.792c0.373,0.244,0.956,0.454,1.655,0.454c1.048,0,1.819-0.549,1.819-1.982v-0.618h-0.023
			c-0.304,0.524-0.922,0.945-1.796,0.945c-1.399,0-2.401-1.189-2.401-2.764c0-1.911,1.247-2.984,2.553-2.984
			c0.98,0,1.504,0.502,1.761,0.969h0.023l0.035-0.84h0.91c-0.034,0.396-0.046,0.851-0.046,1.539V105.447z M90.626,102.846
			c0-0.162-0.011-0.313-0.059-0.455c-0.187-0.605-0.677-1.096-1.434-1.096c-0.98,0-1.679,0.828-1.679,2.146
			c0,1.096,0.572,2.028,1.667,2.028c0.641,0,1.213-0.396,1.422-1.061c0.058-0.163,0.082-0.362,0.082-0.548V102.846z"/>
		<path d="M93.924,103.628c0.024,1.386,0.898,1.958,1.924,1.958c0.734,0,1.19-0.128,1.562-0.28l0.187,0.723
			c-0.362,0.164-0.991,0.362-1.888,0.362c-1.726,0-2.775-1.154-2.775-2.844c0-1.715,1.015-3.056,2.657-3.056
			c1.843,0,2.321,1.622,2.321,2.659c0,0.209-0.011,0.373-0.035,0.489L93.924,103.628z M96.92,102.893
			c0.012-0.642-0.268-1.666-1.411-1.666c-1.048,0-1.492,0.956-1.575,1.666H96.92z"/>
		<path d="M99.192,102.391c0-0.664-0.012-1.235-0.046-1.76h0.897l0.047,1.107h0.035c0.256-0.758,0.886-1.235,1.574-1.235
			c0.105,0,0.186,0.012,0.28,0.035v0.956c-0.116-0.013-0.22-0.023-0.362-0.023c-0.723,0-1.236,0.546-1.375,1.305
			c-0.024,0.151-0.037,0.314-0.037,0.49v3.008h-1.025L99.192,102.391z"/>
		<path d="M102.852,105.236c0.313,0.186,0.851,0.397,1.364,0.397c0.734,0,1.085-0.362,1.085-0.84c0-0.489-0.291-0.758-1.039-1.039
			c-1.026-0.374-1.504-0.92-1.504-1.597c0-0.91,0.746-1.656,1.948-1.656c0.572,0,1.071,0.152,1.376,0.351l-0.245,0.734
			c-0.222-0.129-0.629-0.326-1.154-0.326c-0.605,0-0.933,0.349-0.933,0.77c0,0.479,0.328,0.688,1.062,0.968
			c0.967,0.362,1.481,0.851,1.481,1.702c0,1.004-0.781,1.702-2.099,1.702c-0.618,0-1.189-0.163-1.585-0.396L102.852,105.236z"/>
	</g>
	<g>
		<path d="M61.714,190.035v-2.063h-3.521v-0.665l3.38-4.85h1.109v4.721h1.061v0.794h-1.061v2.063H61.714z M61.714,187.179v-2.541
			c0-0.397,0.011-0.792,0.035-1.189h-0.035c-0.234,0.443-0.419,0.771-0.63,1.131l-1.854,2.577v0.022H61.714z"/>
		<path d="M68.344,186.983h0.024c0.14-0.2,0.327-0.456,0.49-0.644l1.667-1.948h1.225l-2.181,2.321l2.484,3.32h-1.249l-1.936-2.716
			l-0.525,0.595v2.121h-1.025v-8.276h1.025V186.983z"/>
		<path d="M72.991,185.923c0-0.598-0.011-1.063-0.048-1.528h0.91l0.057,0.919h0.024c0.279-0.524,0.933-1.049,1.866-1.049
			c0.781,0,1.993,0.466,1.993,2.401v3.369h-1.026v-3.252c0-0.909-0.338-1.68-1.306-1.68c-0.665,0-1.189,0.478-1.376,1.051
			c-0.048,0.129-0.071,0.314-0.071,0.478v3.406H72.99L72.991,185.923L72.991,185.923z"/>
		<path d="M84.183,188.497c0,0.583,0.011,1.098,0.046,1.538h-0.91l-0.058-0.919h-0.023c-0.257,0.454-0.863,1.049-1.865,1.049
			c-0.886,0-1.947-0.5-1.947-2.47v-3.301h1.025v3.113c0,1.072,0.339,1.806,1.259,1.806c0.688,0,1.167-0.478,1.352-0.943
			c0.06-0.141,0.094-0.326,0.094-0.526v-3.452h1.026V188.497z"/>
		<path d="M89.906,189.838c-0.268,0.13-0.864,0.327-1.621,0.327c-1.703,0-2.81-1.153-2.81-2.89c0-1.738,1.189-3.008,3.03-3.008
			c0.607,0,1.144,0.151,1.422,0.302l-0.233,0.783c-0.245-0.132-0.629-0.269-1.189-0.269c-1.293,0-1.993,0.966-1.993,2.146
			c0,1.307,0.839,2.106,1.958,2.106c0.584,0,0.968-0.137,1.261-0.266L89.906,189.838z"/>
		<path d="M92.132,186.983h0.023c0.14-0.2,0.328-0.456,0.491-0.644l1.667-1.948h1.224l-2.181,2.321l2.484,3.32h-1.248l-1.936-2.716
			l-0.524,0.595v2.121h-1.026v-8.276h1.026V186.983z"/>
		<path d="M96.78,181.759h1.026v8.279H96.78V181.759z"/>
		<path d="M100.09,187.391c0.023,1.387,0.897,1.957,1.923,1.957c0.735,0,1.19-0.129,1.563-0.28l0.185,0.722
			c-0.362,0.164-0.991,0.363-1.888,0.363c-1.726,0-2.774-1.155-2.774-2.845c0-1.714,1.013-3.055,2.658-3.055
			c1.842,0,2.318,1.621,2.318,2.657c0,0.212-0.011,0.375-0.034,0.492L100.09,187.391z M103.086,186.656
			c0.012-0.641-0.268-1.67-1.41-1.67c-1.05,0-1.492,0.958-1.574,1.67H103.086z"/>
		<path d="M105.207,188.999c0.313,0.186,0.852,0.396,1.364,0.396c0.735,0,1.084-0.361,1.084-0.841c0-0.49-0.29-0.756-1.039-1.036
			c-1.025-0.373-1.504-0.922-1.504-1.598c0-0.909,0.747-1.655,1.948-1.655c0.572,0,1.071,0.151,1.375,0.349l-0.244,0.736
			c-0.223-0.129-0.629-0.329-1.156-0.329c-0.604,0-0.933,0.352-0.933,0.771c0,0.478,0.328,0.688,1.062,0.968
			c0.966,0.361,1.481,0.851,1.481,1.699c0,1.005-0.781,1.702-2.099,1.702c-0.618,0-1.189-0.164-1.584-0.396L105.207,188.999z"/>
	</g>
</g>
</svg>
