<?xml version="1.0" encoding="utf-8"?>
<!-- Generator: Adobe Illustrator 15.1.0, SVG Export Plug-In . SVG Version: 6.00 Build 0)  -->
<!DOCTYPE svg PUBLIC "-//W3C//DTD SVG 1.1//EN" "http://www.w3.org/Graphics/SVG/1.1/DTD/svg11.dtd">
<svg version="1.1" id="Layer_7" xmlns="http://www.w3.org/2000/svg" xmlns:xlink="http://www.w3.org/1999/xlink" x="0px" y="0px"
	 width="325.984px" height="258.85px" viewBox="0 0 325.984 258.85" enable-background="new 0 0 325.984 258.85"
	 xml:space="preserve">
<metadata><?xpacket begin="﻿" id="W5M0MpCehiHzreSzNTczkc9d"?>
<x:xmpmeta xmlns:x="adobe:ns:meta/" x:xmptk="Adobe XMP Core 5.0-c060 61.134777, 2010/02/12-17:32:00        ">
   <rdf:RDF xmlns:rdf="http://www.w3.org/1999/02/22-rdf-syntax-ns#">
      <rdf:Description rdf:about=""
            xmlns:dc="http://purl.org/dc/elements/1.1/">
         <dc:format>image/svg+xml</dc:format>
         <dc:title>
            <rdf:Alt>
               <rdf:li xml:lang="x-default">9A-1</rdf:li>
            </rdf:Alt>
         </dc:title>
      </rdf:Description>
      <rdf:Description rdf:about=""
            xmlns:xmp="http://ns.adobe.com/xap/1.0/"
            xmlns:xmpGImg="http://ns.adobe.com/xap/1.0/g/img/">
         <xmp:CreatorTool>Adobe Illustrator CS5.1</xmp:CreatorTool>
         <xmp:CreateDate>2015-02-12T18:12:17+02:00</xmp:CreateDate>
         <xmp:ModifyDate>2015-02-12T18:12:17+02:00</xmp:ModifyDate>
         <xmp:MetadataDate>2015-02-12T18:12:17+02:00</xmp:MetadataDate>
         <xmp:Thumbnails>
            <rdf:Alt>
               <rdf:li rdf:parseType="Resource">
                  <xmpGImg:width>256</xmpGImg:width>
                  <xmpGImg:height>204</xmpGImg:height>
                  <xmpGImg:format>JPEG</xmpGImg:format>
                  <xmpGImg:image>/9j/4AAQSkZJRgABAgEAyADIAAD/7QAsUGhvdG9zaG9wIDMuMAA4QklNA+0AAAAAABAAyAAAAAEA&#xA;AQDIAAAAAQAB/+4ADkFkb2JlAGTAAAAAAf/bAIQABgQEBAUEBgUFBgkGBQYJCwgGBggLDAoKCwoK&#xA;DBAMDAwMDAwQDA4PEA8ODBMTFBQTExwbGxscHx8fHx8fHx8fHwEHBwcNDA0YEBAYGhURFRofHx8f&#xA;Hx8fHx8fHx8fHx8fHx8fHx8fHx8fHx8fHx8fHx8fHx8fHx8fHx8fHx8fHx8f/8AAEQgAzAEAAwER&#xA;AAIRAQMRAf/EAaIAAAAHAQEBAQEAAAAAAAAAAAQFAwIGAQAHCAkKCwEAAgIDAQEBAQEAAAAAAAAA&#xA;AQACAwQFBgcICQoLEAACAQMDAgQCBgcDBAIGAnMBAgMRBAAFIRIxQVEGE2EicYEUMpGhBxWxQiPB&#xA;UtHhMxZi8CRygvElQzRTkqKyY3PCNUQnk6OzNhdUZHTD0uIIJoMJChgZhJRFRqS0VtNVKBry4/PE&#xA;1OT0ZXWFlaW1xdXl9WZ2hpamtsbW5vY3R1dnd4eXp7fH1+f3OEhYaHiImKi4yNjo+Ck5SVlpeYmZ&#xA;qbnJ2en5KjpKWmp6ipqqusra6voRAAICAQIDBQUEBQYECAMDbQEAAhEDBCESMUEFURNhIgZxgZEy&#xA;obHwFMHR4SNCFVJicvEzJDRDghaSUyWiY7LCB3PSNeJEgxdUkwgJChgZJjZFGidkdFU38qOzwygp&#xA;0+PzhJSktMTU5PRldYWVpbXF1eX1RlZmdoaWprbG1ub2R1dnd4eXp7fH1+f3OEhYaHiImKi4yNjo&#xA;+DlJWWl5iZmpucnZ6fkqOkpaanqKmqq6ytrq+v/aAAwDAQACEQMRAD8A9G+Rru5u/J2izXcrTXn1&#xA;OFLuZzyZ540EcrMe5Lqa4qnmKuxV2KuxV2KuxV45/wA5V+T5df8Ayqur61DG+0CRb9OFatAPguF2&#xA;7BG9Q/6uKoH8nPOc/mb8vNJv3uGe7gj+p3vxNX1rf4CWJ7uvF/pxVn35d38qTaxoVxIXexuPrloX&#xA;bkxtL8tINz/LcLOijsoXFVfQyfLWsJ5Zm20e85yeW5SdoyoLy6ea/wC+lrJD/wAV1Uf3dSqyzFXg&#xA;X/OaMksf5W6W0bMh/TlvUqSDT6pdeGKsk8i3Nx/gjy9+9f8A45ln+0f+WdMUso8gzzSal5iEkjOE&#xA;ubcIGJNAbWM7VxQzHFXYq7FXYq7FXYq7FXYq7FXYq7FXYq7FXYq7FXYq7FWPeRfg0i7tT9q11PU4&#xA;yvXihvppIh1P+6ZExVkOKuxV2KuxV2KuxVRvbK1vrK4sruMS2t1G8NxEa0aORSrqaUO4OKvkr8jz&#xA;c+S/zK81/lrfuaRTPNYF6jmYTQMq/wDF1uySfJcVe3LdHS/Nei6qCRBPIdJvqdOF6V9Bjv1W6SNB&#xA;4B2xVnmv6Jba1pctjM7QsSslvcxbSwTxMHimjJ/ajdQwrsehqKjFUL5W1y51C2ms9SVIdd0xxb6r&#xA;AlQhelUniB39GdfjTw3U/ErYq8j/AOczP/JS2v8A217b/kzPirIPKIA8qaKAKAWFsAB/xhXFLI/y&#xA;+/46fmT/AJirf/qEjxQzTFXYq7FXYq7FXYq7FXYq7FXYq7FXYq7FXYq7FXYq7FWPeXD6PmDzRaHq&#xA;b2C8iXfaOeyhj/GW3kOKshxV2KuxV2KuxV2KuxV8t/8AOT+nTeTvzN8qfmZYoRFKy2upcCQWeDqG&#xA;P/F1s7J8kxV6nqNrb63oU0EMw9G+grbXSb8S68opkPipo6nFLOvKWttrnluw1ORRHcTxUu4VrSO5&#xA;jJjuIt/99zIy/RihB+adOvbe4h8zaRC02qaehjurOOnK9sSeUlv7yIf3kFf26rUK7Yq+av8AnJrz&#xA;bqPmrydb6kshg8vi+iGlWQpylUxy/wClXHcMw+xH+wp+L4jRVXsXlL/lFdG/5gbb/kyuKUjsda1z&#xA;RfN+varpzvcRx3cEN9pRI43FullA9IuRAjnUysUaoDfZfahVQ9k0TWtO1vS7fVNNl9azuV5RsQVY&#xA;EEqyOrAMrowKsrCoIocVR2KuxV2KuxV2KuxV2KuxV2KuxV2KuxV2KuxV2KuxVjw/0b8wmrv+ldJH&#xA;Hfp+jLk129/0kMVZDirsVdirsVdirsVdirz38/fJX+L/AMq9a06NA99axfX7DrX1rUF6LQHd05IP&#xA;9bFXmn/OPPmv9PflxaW8r8rzRmNhNU1JRAGgNPD0mC/7E4q9T8g3Rste1jQ3NIbnjq1gCf8AflIr&#xA;uNB4JKqSt7y4qzrFXyz/AM5ceU5tF8vC/sVH6E1TUo5ZYen1e9McrPwH++7gVc/yuG/nFFXqHlL/&#xA;AJRXRv8AmBtv+TK4pSCL/jv+Yv8AmOi/7p9rihGaFr58oay+oMePl7UXX9OR/swSUCJfqO1KBZ/8&#xA;ijfsbqvaQQRUbg9DirsVdirsVdirsVdirsVdirsVdirsVdirsVdirsVY75npbaz5b1Losd89lcP4&#xA;Q3sEiKP9lcpAMVZFirsVdiqE1TV9K0m0N5ql5DY2oYIZ7iRYk5MaKvJyBUnoO+KoXTPNnlrVLo2m&#xA;n6nbXF2F5/VkkX1eH83pkh+PvSmKprirsVdir5J8o2v/ACrn/nIfzD5NakWka9WfTFrRAGBuLcAt&#xA;SvFWkh/1vHFXsmpXR0rUtJ18GiafciK+I72V5SCfkf5ImaOdv+MeKvUsVeEf85mf+Sltf+2vbf8A&#xA;JmfFWQ+Uv+UV0b/mBtv+TK4pSCL/AI7/AJi/5jov+6fa4oRTokiMjqHRwVZWFQQdiCDirLfyo1uX&#xA;6rceV7xy9xo4VtPlc1aXT5CRFuerQMDC3sEY7tirPsVdirsVdirsVdirsVdirsVdirsVdirsVdir&#xA;sVSHz3az3HlLUTbIZLu0jW/s4x1a4sXW6gX6ZYVGKpza3UF3aw3Vu4kguEWWJx0ZHAZSPmDiqriq&#xA;C1vVrbSNHvdVuQzQWMElxIqbswjUtxUHqzUoB44qkFhpenaNAPM3m+7t/wBNFSZ9Qu5FWCz9Xc21&#xA;oZCFijXZKijSUq5JxVbqXmDyBr0cOn6k5MU8iCxuLiC5tUM7GkbWt26RKJan4Gik5V6b4qiNH1HU&#xA;dJ1WPy5rc7XQnDNomruFVrlUFXt5+NF+sxqC1QAJE+ICquAqybFXYq+b/wDnL7y/dWH+GfzF0wcb&#xA;7RbpLW4f/ILevbk/5KyK4P8Ar4qzywu9N8y+WoblVEunaxaBihNaxXEe6mnejUOKWY/l9q1xqXlW&#xA;0+uSepqViXsNQeu7XFoxiaQjt6oUSj/JYYoeV/8AOZn/AJKW1/7a9t/yZnxVkPlL/lFdG/5gbb/k&#xA;yuKUgi/47/mL/mOi/wC6fa4oRMssUMbSyuscSAs7uQqqB1JJ2GKsWtPzV8pWfnbR5dMv1vbyzkkX&#xA;UTbVkiTTpQBdNJKPg4x8Um+Ek8owMVfSuKuxV2KuxV2KuJIBIFSOw6n78VYzB+Y3lOW00i7a8EFv&#xA;rVvLd20k9IljhtwvrNOXIEXpvIsbcv2yFxVMbrzX5bto0aTU7UtLB9Zt4lmjMk0VCQ8S8quGpsR1&#xA;xV1p5r8t3UTSRana1jh+sTxtPEHiirQtKvKqBW2avQ7YqjrG/sb+1ju7G4iu7SUExXEDrJGwBoSr&#xA;qSp3HbFVfFXYq7FXYq7FXYqxzyCRBoTaMdn0G4m0vgeqwwNW0r/rWjwt9OKsjxVjv5hFV8m6nPJQ&#xA;w2sa3VwD09G3kWaWvt6aNiqB8s6PZXeu6xf6qpv9c0zUZoLe4uDzW3glVLi3W1j+xFS3nRWZBycg&#xA;8ieyrI9b0m11jR73Srqot76F4JGU0ZQ6kckPZl6qexxVIrCE+b/JEEepOYNTWsc9zDTnbanYSmJ5&#xA;oailY7mElaihGxFCRiqY+VdauNT090vo1g1iwlNpqtuleK3CAHkld/TlRlljr+wwrviqc4qx38xP&#xA;KUPm/wAj615blIB1G2eOFzsFmWjwudjssqqcVfP/APzjN5jmuvKN55bvSVv/AC9ctF6TU5LDMzMA&#xA;e/wyiQfdir2LyfdHT/Od9p7E/Vtctxew+AurQJBOPnJA0NB/xW2KsI/5zM/8lLa/9te2/wCTM+Ks&#xA;h8pf8oro3/MDbf8AJlcUscvNOvLK/wDMHmZHaTTE1KK01aHakCDT7Ro7tfBVaQrN/k8W2CNVQjZY&#xA;opomilRZInBV43AZWB6gg7HFWKf8qr8jLq66rBpsdvPxkSaGIAQSrKpUq8JBQUrUcAprir1z8ttI&#xA;8ual5L02S60qymvbVXsbyVreEu81lI1u8jfDWshi5/JsVZN/hPyr/wBWax/6Rof+acVd/hPyr/1Z&#xA;rH/pGh/5pxV3+E/Kv/Vmsf8ApGh/5pxV3+E/Kv8A1ZrH/pGh/wCacVRljpmm2CMlhaQ2iOausEaR&#xA;hiNqkIBXFXmuq/kpNc3mrXNrqyxrdXcVxpdtLCWS0hNw97eQo6SJIhuLuQyc4yrKFVR0xVikf5Le&#xA;a7PUNO0KCKG40pZIZ7vX2ii+EwWs8CrGZLprpK+qo9P03Fat6u5XFWSP+Rcq6Klna6lBBeg3zTXn&#xA;1UOZDeXFtMoYFq/Clp6fIHkKhloVGKs0/LvyhP5T8unSZ7pbyRru6uzMokA/0uZpyv72SaQ8S9OT&#xA;OSepxVk2KuxV2KuxV2KuxVjkP+47z5PF0t9es1uEG9BdWBEUpJ6cpIJoqDwjOKpjrfmDTdGiha8Z&#xA;2muX9K0tII3muJ5KFisUUYZmooqx6KN2IG+KpNqfmGS5025ttW8ravFpdzDJDdyBbO4/dSKUb9za&#xA;XNxcNVT0WMn2xVIfIXmJJ7rRtQkuBONds20q9uBsp1fRmkViB1DXMQmccv2Y1xV6TirHfKi+nqfm&#xA;m3U/uYdXrEnZfWsLS4kp/rSzO304qo69/uD8w2vmNPhsL309N1xQBQBnpZ3THt6UrmN/8iTkdkGK&#xA;soxV2KvlTzHbH8vP+coGlFY9F87Jz6gj1rlqN1pv9bSvsr4q9V8xTPYW9trsSlptCuE1AhRyYwIC&#xA;l2ijuz2skqr/AJVMVY5/zmTIkn5RWckbB0fVrZkdTUEGCcggjFWR+Uv+UV0b/mBtv+TK4pZF+X0M&#xA;Uw81QzIskUmqhJI3AZWVtMsgVYHYgjFDCNQ0SbyxrJ0KQs+nyK02h3LksWgU0a3dj1kt6gb/AGkK&#xA;nc8qKt4qyf8AKa59O88x6Yf2Z7fUUHYJdQ+hQf8APSydvmcVeh4q7FXYq7FXYq7FXYq7FXYq7FXY&#xA;q7FXYq7FXYqxzz1E8Wkxa3Che58vzrqaKo5M0Masl2igdWe0klVR/NTFUlPmWxj86aheehcapeBI&#xA;tL0azs41kbgtvFf3MqSO0cMYlF5AGLyLXgvhiqdG98+Xy/6Lp1lo8bfZm1CZrudP9a1teER+i6xV&#xA;iOhW82sajr3l/VnW01K6kGoRXNqnpmPUtOkW3kuYUYvxBiWyuAhY19Uhq1NVWViX8yZIfqv1fSbe&#xA;dfhbVDLcTRt2Ei2QjiYVG5Q3Hwnbk32sVTTQNEj0ewNv6z3VxNJJcXl5IAHmnmbk7kLQAdlUbKoC&#xA;jYYqi7+ws9QsbiwvYlns7uN4LmB91eORSrqfYg0xVJfJ1/d/V7nQtSlabVdDdbead9muLdhytbr3&#xA;9WMUc/78VwOmKshxV4T/AM5eeT5dU/L+18y2QI1HyxcrOJFpyFvOVSSnf4ZBG3yBxVOPI/mOHzR5&#xA;P0rWwARf26tOlNhKPgmX5CRWGKXlf55+YI7j8mpfKNw4TVPKur20KoxJM2n+lKLOVSR8RWGWNJN9&#xA;mFT9oYoehSazrWheQdKutM0OfXbuOytg1lBJHEwAhWpJarH5IrHFVH/nHrz35u8wTeb5b/SRb3CX&#xA;8DSaUW9CS2Y2yw1f1R6hLrbr1AFVNMVejeb9I1TzJoz2Mml+hdRMJ9PvRPEzW9ygPCQAgVG5V1r8&#xA;SFl74q8vtdS1tmntrrS/Q1CykNvfW3rL+7mUAmhIFUZSHRv2lIOKp55B1LV7fzzNHHp/Jr7THZo/&#xA;WQVFncIA1advrh+/FXp/6R17/q0f9PEf9MVd+kde/wCrR/08R/0xV36R17/q0f8ATxH/AExV36R1&#xA;7/q0f9PEf9MVRdjcX83P63Z/VeNOH7xZOVa1+z0pirw7SfzV1/Tr27uLnVl1t7iOZreFZbc2KA6h&#xA;BbrNPGsNvfaf9VS4/exzKwIB+PkN1UXrP53a7pM15cKlheJGiCV0ui9kvoNerLJBSNJ3Dm1HPj6h&#xA;XsrUqVUbF+eWpyaxqGlta6dbyJefVbG4luHMCRfWZIPrFxKisir+7UcGKOJGCFf2sVQb/nx5ol02&#xA;71W10nT1sbd7S3XncOXaW6gM5kj5CESxcY248aOwIYLtQqvX/LurJrPl/TNXQKE1G0gu1CFytJ41&#xA;kHEyLG9Pi25Ip8QOmKphirsVdirsVdiriAwIIqDsQehGKvI9C0+by5NqSTPyTy75mtmgFCn+4m90&#xA;630+3qSfiSBJaM3QmE+FMVeuYq8380qNF87Sa7GAsVtHa6nddgYKvYalIx2AVLd7aU/8YRir0jFX&#xA;Yq7FWL+bg2k3Vr5uhFE05TBrQFTz02QgySUHVrVwJgeyeoBu2KsoBDAEGoO4I6EYqgtc0ex1rRr7&#xA;R79OdlqEEltcqKVMcqlGpUEVodtsVfL/APzjteXui3/mf8u9UNL7QrySSJfFA/ozcf8AJ5qrD/Wx&#xA;VL/+cptJaHS7TV0QGK6aO0uH2BWWItJD70dGk5f6qeAxV7b5f/44Om/8wsH/ACbXFKe/lwiifzQ4&#xA;A5nVkBam5A02yoK+1TihmeKsA/M3y1KKeatNiaS7so/T1W1jHJrmzUluSqPtS29WdKbspZaElaKp&#xA;F5EmWbz9ps1swkil0q+f1FIKtC0tmQynvVuFKdsVeuYq7FXYq7FXYqoLYWKvNItvEJLgUncIoMg8&#xA;HNPi+nFWn03TniWF7WFok4FIzGpVTH9igIoOPbwxVt9PsHE6vbRMLoUuQUUiUUpSTb4tvHFXS2Fj&#xA;LE8MtvFJDIAHjZFKsFFACCKGmKq4AAoNgOgxV2KuxV2KuxV2KuxViHmrTLV9et0vFLaX5ms5tB1M&#xA;DY8uEk9q1aHiApuEr/M64qjfK3mEy6dLZazPHFrmjAQ6wHIjB4iiXa1p+5uFX1EboN1PxKwCqCsJ&#xA;tP8ANXmS5v7cJe+X7XT5dNjuh8UF1JeyI9ysTjaSNEt41LLVeRKg1VsVRvke7n/Rcuj3kjSajoMx&#xA;0+5kf7UiIoa2nJoKma3eN2I258h2xVkWKuxVp0R0ZHUMjAhlIqCDsQQcVYz5PdtLnuvKM7EtpSrL&#xA;pLsSTJpkpIgFT1a3ZWgbcmiox+3irJ8VfL3512f+A/z98u+eIx6eleY0FpqbU+H1ECwSkhTXaNon&#xA;HiVPXFVX/nJ9QfyyqRUrf25HsaOMVemeX/8Ajg6b/wAwsH/JtcUp/wDlx/e+Z/8AtrL/AN0yyxQz&#xA;HFXYq8t0XTNO8tfnG+nwxyJp91pryWDbehBNqE/qNaLQVUN+jZJY6mnVBTiKqvUsVdirsVdirsVd&#xA;irsVdirsVdirsVdirsVdirsVdiqV+Z9HfWNCurGGQQ3bBZbK4YVEV1A4mt5SB14TIrU9sVQWmQ+X&#xA;fNul6drV/pNtPdIrALdQxyy2txG5juIQzqxVo5kZGp3GKshACgACgGwA6AYqxnX2Gi69ZeYhtZXX&#xA;p6ZrRHRUdz9UuG9oZpCjeCyljsmKsmxV2KuxVjvnKzu44bXzBp0bS6lobNMIE+1cWkgAu7YAdS6K&#xA;HQf78RO2Kp5ZXtrfWcF7ZyrPaXUaTW86GqvHIoZHU+DKajFXmH/OTHkk+avyn1P0I+d/o1NUtNhy&#xA;pbg+soJp1hL7DqQMVeDefvNY8z/8436VqDvzu4rq3tL3rX1rcOhJr3dQH+nFXv3l/wD44Om/8wsH&#xA;/JtcUu8geaobTzr5h8v3iCJL++jl066rtJOunWvq27eDemgdP5qN/LuoeoYq7FWG+WIotZ1Hznfc&#xA;XgS5vzpVvdxgxStDYW0cLsr9apdvchWxVO9B1m4vpL+zvbZrS/064aGRDVkkib44J45OKh1kiI5U&#xA;HwvyXtiqb4q7FXYq7FXYq7FXYq7FXYq7FXYq7FXYq7FXYq7FWLRE6B5weFjTSfMrc7f+WLU4oyZY&#xA;/YXMKc17c0eu7jFWU4qoX1jaX9lcWN7Es9ndRvDcQOKq8cilXVh4EGmKpF5Tv7q2ln8sarM02p6Y&#xA;oa2upDVrywJpDcV/akX+7m/yxyoFdcVZJirsVdirBfLmv6fo3nTUfI7uwhZvrmjSN9gG4Vp57EH+&#xA;aL4pY1/323ECkeKs4kjjljaKVQ8bgq6MAVZSKEEHqDir8/PzAs7jyTL5z/Libl9Ui1KDUNMLf763&#xA;4Hwq8M0dfdcVfWvl/wD44Om/8wsH/JtcUsL1Oyu/03rUtxVNKvNThgtr2LaW11CGwtJYm5GtC+xi&#xA;amzpQ/aUYoet+QPNz69p0ltf8U17TeMWpRIOKvyB9K5jWp/dzBSR/KwZKkriqa+aNftfL3lzU9cu&#xA;hyg022luWSoBcxqSsa1/adqKvucVQ/kfSLrSPKemWN7U6gsIl1Fi3MteTkzXTcjWtZ5HOKq/mBL6&#xA;G1bU9Nga71CxRnhsRM8SzrsXjIHwFyqkRlwQG8Kk4qjdPvob+wt76AOsN1Gk0ayKY3CuoYB0ajKw&#xA;ruD0xVEYq7FXYq7FXYq7FXYq7FXYq7FXYq7FXYq7FXYql+vaLba1pU+nXDNGJeLRTx0EkM0bB4Zo&#xA;ya0eKRVdfcYqg/KuuXN/BPY6mqw69pbCDVIUqEYkVjuYgd/RuFHNPDdD8SNiqeYqkvmbQZ9Sggut&#xA;PmW01zTmM2l3jgsiuRR4pQKFoZl+GRfkw+JVIVX+XPMcGswTI8LWWqWTCLU9MlIMtvKRUbjZ43Hx&#xA;RyL8LruO4Cqb4qp3Nzb2tvLc3Miw28CNJNK5CqiIOTMxPQACpxV4HIbzVdT1iXU4JdPv7+4h1ixe&#xA;npzpbyxp9QnUGpSWFbcRsCPtxmopir1byB5vk12wktNR4x6/p3FNQiQUSRWr6dzEKn93MFO37LBl&#xA;341KrxH/AJzH/LS1uNGh/MC05Le2Xo2GpxqoKPbu59KVmAqGSRwlT1DAbUFVWX6V5t0iDQ9HEZlv&#xA;DNYQXNLSNpysBQASsEHQlTQfaNDQGhxVrRtf0WbU/Mnl7XkVvLevz2s1tqKMR6UlxZ28cEjt/utJ&#xA;JIP3Ew2EqEEg8cVQSNr3l3zA1CJPMmg/DKv92mo2Exqp8AJxHUdo5lI3ANVWc3HmDSvO2saFpGlz&#xA;PLpyxx+YNUcR/CEt5uFpazBx8Ej3cbOV+0PQYGmKs+xV2KpFdz3ek65bmK1efS9WlcX9wrSytbXA&#xA;jUQvw+JUgdYirFaBXIJ6scVT3FXYq7FXYq7FXYq7FXYq7FXYq7FXYq7FXYq7FXYqkHmTRLyWeDW9&#xA;G4Jr9grLErkrHdW7Hk9pMR0VyKo+/pv8VCOSsqivL/mbS9ctme0cx3UB9O+0+ai3NtKPtRTx1JVh&#xA;49GHxKSpBxVG6hqNhptnLe6hcR2lnAvKa4mYIijxLNQYqw6y0C/8xalcebvrF3oV5LElrofEBZBY&#xA;xsZC11bShkb6xI5bg68kQLTg5fFU3juvP1qPTuNP0/UwNhd29zLaFv8AWtpYpwn0TtiqhNovmHzB&#xA;KsfmIW9losbK7aRaSNcNdMjBlF1O8cIEYoOUKJ8X7TlaqVUu/NLy/cT2Vv5i0+Jpb/RgxuIIwS89&#xA;jJQzxqo+08fESxjrVSo+2cVYLHdXUNxZ+YNDdHv7ZedueVIrm3lo0kDsK/BKoFG34sFbtir0TWbL&#xA;RfzN/Le/0+N2jtNZtngPMUkt7hD9mRQTR4Jk+JfEeGKvlb8tPOHmjyjPfeTmid/NGn3X6LSyYxnn&#xA;a8pnYQmVWRZI5mPpsfhIkFQQBRV66935fn0Gw8w6Ygl0jT4TputWc6fGungBJ4riJgSJLVgHZW/Z&#xA;DgfaxVvzVLJounW8l5cGaLTiR5fv5C0kjxyUMmk3Djkz+qEH1WU/thVc93VZR+XC2XlTyhaeZL6Y&#xA;XA8xyRT6zdW8QWO1nuHenqFqSLDAXW3PIVUgswFXoq9TxV5d+cf5tebfI1tI+j+TL3WIggY6vVTZ&#xA;Rk0+2sBlm2Jp8Yj36E4qnnlHzTqfmTyRpeoX+jz3Z1exjmuXs2tY4D66cmWLldmRQvLjueW29Diq&#xA;K0XzD5jW4vNO1Dy7eK1q/Kxmie0KS2j1EXIvcn96nEpIOR6Bv2qBVNv0zqP/AFYb7/g7H/spxVba&#xA;eYmuNYGlSabdW1x6JuXeQ2zIkfLgpcwzSlebAhKj4uLU+ycVec6Z+cGv21jC97piX9rai1/SWo+u&#xA;Ip2N/dXMESw2yQ8G9P6uvKrrUHbfFUsX8+Nfs/XurzTba7N61q+m2VrdPNbwQPYteyc7iK1aQylQ&#xA;BxMdBu1eIxVmfkz80x5n813egxaclutnaR3r3X1pZOaXEcMkSJGqAl1E378V/dnhu3MUVY7pn56a&#xA;rqurjStO0K3luryaBNLaW7ngR4ZzdD1pDJaBuKfU+VYwytyorGlSqu0384Na17WvLlvaWUGnWV5f&#xA;2trqKtcrLcs9zpUmoFI4WhFYFqq+sGViykcaVxVW1785fMGn32tLa+Xra40/RhqjPNJfvHK66NDD&#xA;cTt6YtnUeolwFjHI/F12xVLtW/OPW4JHsbSNFNprkFrfXc80RumtpvMlxp/pWtsluFlX6vZOhJIZ&#xA;Qw+J3UsVUv8A+V4+ZY7xtbuooDoyWcGoLpFhNHdlopdMvbxUknMEbxycoo+dKheNQSCRir1D8vPO&#xA;j+bNGuL2a0FldWd09ncwq0jJzREk5KZo7eShWVdmjB/XirKMVdirsVdirsVSzVvLHl3V5El1PTbe&#xA;7njFIriSNTKg/wAiWnNP9icVQ9r5J8q211FeLp0ct3Awa3uLkvcyRMOjRtO0hQ+60xVO8VdirsVd&#xA;irx/zd5abynqLXdrGf8AC+oSljxHw6fcytuh/lt5nPwbURzx2UqFVQ+ja8/lLV5NVHI6JeFf07At&#xA;Tw4gKt6i/wA0agLLTdoxXcooKrC/+cnfLsXlnzX5b/N3SkSWl1BbarEpqJiiFoZAa0+KGNoyfZcV&#xA;ZpqF/wD862fMfle3s7lLwR6heJKFi+uW3pfGPVqqrL6YHFpKjbiaDcKpB+W1lpvnFjHrETXOgaXE&#xA;W8uaZexlWkt52mg+sToWZXaFFa3Su6j4zu60VegaCzeWNSh8sSac0/lPUYmjgvApuCly3NphfE/F&#xA;wlWn7xuVTXkQKYqyuy1UWetjy9ePM88sT3dheTLGqTp6rGSBPSCLytlZBQqCUIPxUY4qnmKrY444&#xA;14RqEUVIVQANzU7D3xVJvMV4NPvdHvRC0rS3a6fIVdl4R3YpyKj4XpIkfXoK4qjNa1UadaB0j+sX&#xA;k7iGxtAaGadgSq13ooALO37Kgt2xVbo+lnTrWV53+sX9yxuL+5Ap6kpAFEXeiIqhEXsoHU1JVeb+&#xA;XvzZ8qTxSSanoC6ZzkjOnW1rbzXtzMImupYneGO1j9NkW0kkHEuF3+IdSqjZvPf5JwwSWclvajTH&#xA;53LSjTHNlI9vB9bdlcQmJ5I45K8RVqtQDlUYqqj81/yotljv4VIKLdXDzw6fMWty0gS4MzLF+6aW&#xA;Xgp5EcyV67YqmkWqfl3YaTa+ZbfSkgGo3PG09HTXF7NdsXUhYUi9cyfA55U+zVq8d8VSez84+WLq&#xA;fXdX0ny7aTWXljSo76x1X0/QmmDQPOkEStbgwoqAivOoJI4Yqh9a/NX8vY7PU49O06HVtcj5R3Gm&#xA;fV3RJpLmeCzukaf0JA6rJLGkxVWrsKHFVaHzr5Yu/Kei+brjysvqXWptZxW4tvXuYZnu5C80IWEy&#xA;OzTx+p8KgltyaiuKq6+fvyis3geO1jgF/A96k66a6IwNvNPIGf0lHqeisvJetSVO7UKqlffm/wCQ&#xA;fL3la9uNFspi9jBdXEGiQWNxas31e3jui7oIP3ELLcQ1mZOI5gnvir0vFXYq7FXYq7FXYq7FXYq7&#xA;FXYq7FVk8EFxBJb3EazQTK0csUihkdGFGVlNQQQaEHFXknmTyXqXlYvPp8c2p+WSSTCoaa7sVJqR&#xA;T4nntx2pV0HXku6qsfibyTrnly28m+bdSWHyysv13y/frIoheAQyxvZtMQ6KIFlLxNUfBQD+7JKr&#xA;APyUupLy6vPy+1O/NxpWhyyXemIEeIajatL+7YmTi3oK37zhx+LmAfhUqVXqfnaHXrGax82aFW4v&#xA;NBWY3GkbBb2zmC/WIg4HJZAIw8fUclFVOKs00vUdJ8z+XYL6FfW0zVLcN6UooeEi/EjrU0YdGFeu&#xA;Koay1L9CDTvLer3l28Vw5i0nzDJwYrIGrFazyEH94yfCruvx068zirJ9F166vJ7uz1LT5dMvrOTg&#xA;Q59S3njct6UtvOAquHC7qQHU7MvQlVOMVY3e+YtPutUmtUkmis9EUXuqaovpraRsgqLZ3kDc2KMX&#xA;b0/sACrCoBVRWi2lzd3ba7qEbRXEqGPT7RxRra2YhqOD0mlIDSeFFT9nkyqdYqxSx/LLytZXkN3B&#xA;HMJoF4RkyEinC4j3FP5b2T8PDFWJr+QumSa3S6uOXleGGVLTSo2nVhJNbR2pkYmQxiRVi5c0Ucm3&#xA;oDyLqsmtPyr8tWtjdWsUt4GvLdra4uROVlKPIJWI4BUX4lA4qoWm3GhOKqtt+Wfly18s2Pl+0a4t&#xA;oNMuWvrC7hkVLiG6keR3lQqojXl68g4BOHFivGm2Kq+m/l55Z07R9Q0i0ikSy1O1Wyu1MjMxiWJo&#xA;ahmqeRVyS3jviqXWv5P+TbW7ubiFLhFuZfXMAlIjWQ3Md27KAASXmhVviJpuF4hjiqbWPkfRbPT7&#xA;XT4jM1pZX7anaRs4/dzPK83BaAfuw8rUB+/FWOSfkT5Ee9kuqXQaVWV0EooS8ElsW5FPU/upmXjy&#xA;478uPLfFUfrn5SeVNYmuZp2u4Jr2GS1u5LacxmW2mt4baW3bY/u5EtY+Q8RirNMVdirsVdirsVdi&#xA;rsVdirsVdirsVdirsVec+dvyY0HX9X0vVbGNLG5ttRS+1BFP7ifirgym2ZZLdp+TCjsm+/Ku2KvP&#xA;vzpsnEWmfml5eszba15JuTp3mTSwAr/UgQrIQppwVJOaEf7rkDdBirPdM1Kz1PTrXUbKQS2l5Ek9&#xA;vIP2kkUMp+44pYVp3lzXNA813E/liY84IxcSaBIXaG/0r1P3qwKOXC6spZDw4ijI8a0rWqh6ZpWs&#xA;aL5g0wXenXMd7ZyfCzRtUq4AJRwPijkSu6mjKcVU9K1GHTDZ+X/NFwl5HPc+loGo3CEs5VQ0MNxJ&#xA;Tgtyu4jeoMlP561VT6LyhoUYnRkuLiC5UrNa3V3dXVuVY1IWCeWSJR/qqNtumKodFXX9RUgf7gtM&#xA;mqgH2bq8hb7VOhit3G380ortwBZVkOKuxV2KuxV2KuxV2KuxV2KuxV2KuxV2KuxV2KuxV2KuxV2K&#xA;uxV2KuxV2KuxVi3nvSNR1Gfyw1lCZhY65bXd2QQOEEcUys5qR0LjpiqJ83va2Wm3Oo3kMl3pIheD&#xA;WLBFRo3tpyiTXEileb+hErEhW3TlsTTFXiv5dGTyf5m1T8sr6YyQWtdS8qXbGoudMuCXCo37ZiYm&#xA;tOvxdlxVA/nvefmFa2FnceVVjhaEykXdvJJ+kgGhdZlijCBRH6RJduROwOxAOKsz8sfl2ujWHlrz&#xA;V5JuAbOXTrWDzLpaLRNQjSAKLxFpVbyNt325SbqaN9pVk+jaz5W86+XVvLF4tU0i6+F0dagOjAlJ&#xA;I3HJHRgDQio2Phireg6t5g1e3uPL7yv60V1Ms2rqRy/RbPWBkZafvpVJhVh/I0h3orKs5tba3tba&#xA;K2to1ht4EWOGJBRVRRRVA8AMVVMVdirsVdirsVdirsVdirsVdirsVdirsVdirsVdirsVdirsVdir&#xA;sVdirsVdirEfzE1q60n/AA3NFdfU7abW7eDUJSwVDbNDMzrIzbBaqK4qoWP5yflrqevS6Fp+t297&#xA;dQRvLdyxGtrDGhCVe5akJ5M4UBWJxV5f+dtrNrVzpl35PS4v/NWhO+p6Fqkao1vdQcnkvLBZqRLL&#xA;6UYVkjRnZlqP5iFU0/LXzBp3mvRU8zxzetqFwvoXkJHH6o6Gr2yIS3EVoxY7vsTtxCqs4/LqU2Wp&#xA;a3oI/wB5UdNUsh2Rb5pBPEvyuIXlP/GTFXmfnfV/yo0X8xPMOh2VncnzFeWaXd1pFnfyWNlqV9Jy&#xA;IgmCtFGkgiZZGPNeYJFGbZlXp/5Oah5f1DyFY3miS+tDK0gunaKO3lFxG3pskkEfwxFFRVSMbKgV&#xA;R8IGKs2xV2KuxV2KuxV2KuxV2KuxV2KuxV2KuxV2KuxV2KuxV2KuxV2KuxV2KuxV2KuxVin5hXkE&#xA;cGh6ddWFpqVjrWrW+nXttfQieIxSRyyFgjHjzDRCnIEe2KvPk8v/AJafl/8AmnBP5X0aaC+nsrsa&#xA;utpIDZxBbd7yKMxSJMwmlFsSqwsnFQCdmAZVN9O/NPXdej0u3XQWgmvrpIL4WUt3LPYb2zL663Gn&#xA;2wRyly0vxgI0UblHY0GKsY1ryZ5k0jzHqPm/yZpLW2qs1PNPk9mK22oVDOl3p1xxEbSkBjSlftAq&#xA;GqGVZx+WX6R1jUbnzPdaXeaPam2SysbTUovq90xLmWeR4qtxTaNUqd6MelCVUt0L8ufy3t/N2pTa&#xA;TZjWvNjTG71XzDqSfXUt5ZHVzHVTDEkzKTwSEBkG7UFAVWVahok3lXRJZ/Ieg2Ul76lu93p4pbNd&#xA;QQIsRSOQcVEwiUCMv8O2/WuKsrUkqCQVJFSppUexpUYq3irsVdirsVdirsVdirsVdirsVdirsVdi&#xA;rsVdirsVdirsVdirsVdirsVdirsVSDzbqWlWMugrqFkLxrvVYLayJCn0Lh45WSccv5VVhtvviqjr&#xA;H5b+R9X1qPW73R7VtXjLFtQWGNLiTnAbb95Mq+o3GNvh+L4aCnQYqjPLXlPS/L0dwLN7iee7ZGub&#xA;u7me4mk9JBFGC7k/CiKFAHz6kkqpnc2drdKq3EKShGDx8wCVcdGU9mHiMVSyHyjoka3CMLm4hugF&#xA;lgury7uogAajhHPLIkf+wAxVOQoAoBQVJ28TucVdirsVdirsVdirsVdirsVdirsVdirsVdirsVdi&#xA;rsVdirsVdirsVdirsVdirsVdiqncXNvbRiW4lWKMukYdyFHOVxGi1PdnYKPc4qxLzVqfl25utHi1&#xA;P1Yp7LzDbW1oimlb1oGkhqVWSqNDLy3p4VBGKsistasrpUPIQmW4ntrZJCqtK9szq5jFasP3TMP8&#xA;kV6Yqj8VdirsVdirsVdirsVdirsVdirsVdirsVdirsVdirsVdirsVdirsVdirsVdirsVdirsVdir&#xA;sVYv5pvwHmtzIHtjE0N7p9/azLp86SLU1vViZYzxahJLrSo413Crza41nUtV1SWLSNLuPMVzoiw3&#xA;YuQ0Evoy25l+otJIZ1imlCyyhzE7s6hNuXJVVTryf5itb60t7rTrhIF+rR29pIVN3d29mtF9G3sY&#xA;Q0nqNw5TTSqBzp8MiKtFWe6h5v8ALWi6Ompa1qkenWfFgJ9R/wBEkcx7N+6lWJixp9lU37DcYqml&#xA;je219ZW97asXtrqNJoHKshKSKGUlWCsKg9CK4qrYq7FXYq7FXYq7FWKWf5neUbjUtfsZbr6l/hx4&#xA;kvru74xW7iVzFzhkLfEqTo0LkgUcU8CVUxsvO3lG9iSW01e1nRxCVKSqf96blrOH5F7lGiA/nBXr&#xA;iqI0PzN5e16KWXRdRt9QjhIWVreRZApYclrxPRl3U9x0xVMsVdirsVdirsVdirsVdirsVdirsVdi&#xA;rsVdirsVdirsVdirG/MVvetcMIWu5gyiWrXJsbG1VRRmeaD053rQtwq/vwUg4q87itfOdjqd7e+X&#xA;tTdZNTto6x3UPNpOTSLZTJ6zSPEZSsvASNIwUKZORPFVUz8naZcafp0NpBLd6hHbwRzxpBd3FvcS&#xA;W8gBiu7eMyLbzpJX40kAdGqGaQ8Syq3z5/zjj5A88Kb7UZL2LXJFNdYRwkrkj4PVgKLDRdhRY1Y9&#xA;zXfFXoel+XrGz0y0tLiGC5nt4Y4pbn0ET1HRArPx+LjyIrSpxVFfonSv+WKD/kUn9MVd+idK/wCW&#xA;KD/kUn9MVd+idK/5YoP+RSf0xV36J0r/AJYoP+RSf0xV36J0r/lig/5FJ/TFV8VlaQFmtoIoXIpy&#xA;RFH30pirzuL8itAt0sGtr+6S8hWmqXMjvN9eJuor6RnjkZo4i9zD6h9NR9pvHFURL+T9qdcl1SDV&#xA;poFuruC8vrcRRt6htNVbV7dAzV4BZ5WDUFWFMVTT8uvy7g8lW15bw6hLeR3Ri4RFRFDEsKcB6cKE&#xA;ojPWr8Aqk0oq4qy/FXYq7FXYq7FXYq7FXYq7FXYq7FXYq7FXYq7FXYq7FXYqgda/RX6Ok/S3H9H8&#xA;o/W9Svp/3i8edP2OVOXL4afa+GuKsfbh+krvnX63+m7f1a9PT+rp6PDvw4f8PzxVW8v/AKJ4WPqf&#xA;331zUP0J9v1PQ9WTn9n/AHRxpxr8FPS/a4YqyjFXYq7FXYq7FXYq7FXYq7FXYq7FXYq7FXYq7FXY&#xA;q7FX/9k=</xmpGImg:image>
               </rdf:li>
            </rdf:Alt>
         </xmp:Thumbnails>
      </rdf:Description>
      <rdf:Description rdf:about=""
            xmlns:xmpMM="http://ns.adobe.com/xap/1.0/mm/"
            xmlns:stRef="http://ns.adobe.com/xap/1.0/sType/ResourceRef#"
            xmlns:stEvt="http://ns.adobe.com/xap/1.0/sType/ResourceEvent#">
         <xmpMM:DocumentID>xmp.did:4F677B474620681188C69098C6AB8D67</xmpMM:DocumentID>
         <xmpMM:InstanceID>xmp.iid:4F677B474620681188C69098C6AB8D67</xmpMM:InstanceID>
         <xmpMM:RenditionClass>proof:pdf</xmpMM:RenditionClass>
         <xmpMM:OriginalDocumentID>uuid:7B175E9A718EDE11BD5C9D5001F7843B</xmpMM:OriginalDocumentID>
         <xmpMM:DerivedFrom rdf:parseType="Resource">
            <stRef:instanceID>uuid:da9d872b-15f4-6745-a3db-73b81c2757f1</stRef:instanceID>
            <stRef:documentID>xmp.did:31B96A684020681188C69098C6AB8D67</stRef:documentID>
            <stRef:originalDocumentID>uuid:7B175E9A718EDE11BD5C9D5001F7843B</stRef:originalDocumentID>
            <stRef:renditionClass>proof:pdf</stRef:renditionClass>
         </xmpMM:DerivedFrom>
         <xmpMM:History>
            <rdf:Seq>
               <rdf:li rdf:parseType="Resource">
                  <stEvt:action>saved</stEvt:action>
                  <stEvt:instanceID>xmp.iid:31B96A684020681188C69098C6AB8D67</stEvt:instanceID>
                  <stEvt:when>2015-02-12T18:07:20+02:00</stEvt:when>
                  <stEvt:softwareAgent>Adobe Illustrator CS5.1</stEvt:softwareAgent>
                  <stEvt:changed>/</stEvt:changed>
               </rdf:li>
               <rdf:li rdf:parseType="Resource">
                  <stEvt:action>saved</stEvt:action>
                  <stEvt:instanceID>xmp.iid:4F677B474620681188C69098C6AB8D67</stEvt:instanceID>
                  <stEvt:when>2015-02-12T18:12:17+02:00</stEvt:when>
                  <stEvt:softwareAgent>Adobe Illustrator CS5.1</stEvt:softwareAgent>
                  <stEvt:changed>/</stEvt:changed>
               </rdf:li>
            </rdf:Seq>
         </xmpMM:History>
      </rdf:Description>
      <rdf:Description rdf:about=""
            xmlns:xmpTPg="http://ns.adobe.com/xap/1.0/t/pg/"
            xmlns:stDim="http://ns.adobe.com/xap/1.0/sType/Dimensions#"
            xmlns:xmpG="http://ns.adobe.com/xap/1.0/g/">
         <xmpTPg:NPages>1</xmpTPg:NPages>
         <xmpTPg:HasVisibleTransparency>False</xmpTPg:HasVisibleTransparency>
         <xmpTPg:HasVisibleOverprint>False</xmpTPg:HasVisibleOverprint>
         <xmpTPg:MaxPageSize rdf:parseType="Resource">
            <stDim:w>325.984375</stDim:w>
            <stDim:h>258.849609</stDim:h>
            <stDim:unit>Pixels</stDim:unit>
         </xmpTPg:MaxPageSize>
         <xmpTPg:PlateNames>
            <rdf:Seq>
               <rdf:li>Cyan</rdf:li>
               <rdf:li>Magenta</rdf:li>
               <rdf:li>Yellow</rdf:li>
               <rdf:li>Black</rdf:li>
            </rdf:Seq>
         </xmpTPg:PlateNames>
         <xmpTPg:SwatchGroups>
            <rdf:Seq>
               <rdf:li rdf:parseType="Resource">
                  <xmpG:groupName>Default Swatch Group</xmpG:groupName>
                  <xmpG:groupType>0</xmpG:groupType>
               </rdf:li>
            </rdf:Seq>
         </xmpTPg:SwatchGroups>
      </rdf:Description>
      <rdf:Description rdf:about=""
            xmlns:pdf="http://ns.adobe.com/pdf/1.3/">
         <pdf:Producer>Adobe PDF library 9.90</pdf:Producer>
      </rdf:Description>
   </rdf:RDF>
</x:xmpmeta>
                                                                                                    
                                                                                                    
                                                                                                    
                                                                                                    
                                                                                                    
                                                                                                    
                                                                                                    
                                                                                                    
                                                                                                    
                                                                                                    
                                                                                                    
                                                                                                    
                                                                                                    
                                                                                                    
                                                                                                    
                                                                                                    
                                                                                                    
                                                                                                    
                                                                                                    
                                                                                                    
                           
<?xpacket end="w"?>
	</metadata>
<g>
	<path fill="#B0AFB0" stroke="#000000" stroke-width="1.0001" d="M139.362,174.814c-25.082-14.355-39.276-39.356-41.454-72.021
		c-2.581-40.486,16.049-67.665,40.889-88.553c23.065,17.501,39.438,42.099,41.374,82.343
		C177.589,133.682,161.621,157.313,139.362,174.814z"/>
	<path fill="#FFFFFF" d="M2.338,1.821l101.216-1.532l104.924,148.878c5.888,11.692,5,19.274-2.742,22.904
		c-8.951,4.759-17.581,0.969-25.809-11.13L119.198,77.63l15.001,28.308l53.229,77.907c11.048,10.806,11.21,20.001,0.563,27.663
		c-9.033,5.483-17.26,3.79-24.68-5.081l-30.485-45.647l-25.405-33.146c-3.467,19.034-12.42,26.13-29.517,15.565
		c-3.629,8.63-10.081,13.064-22.582,8.145c-14.353-14.273-23.709-32.581-30.08-53.227C12.339,69.082,5.646,36.419,2.338,1.821z"/>
	<path fill="none" stroke="#000000" stroke-width="1.0001" d="M103.554,0.288l104.924,148.878c5.888,11.692,5,19.274-2.742,22.904
		c-8.951,4.759-17.581,0.969-25.808-11.13L119.199,77.63l15.001,28.308l53.229,77.907c11.048,10.806,11.21,20.001,0.563,27.663
		c-9.033,5.483-17.26,3.79-24.68-5.081l-30.485-45.647l-25.405-33.146c-3.467,19.034-12.42,26.13-29.517,15.565
		c-3.629,8.63-10.081,13.064-22.582,8.145c-14.354-14.273-23.71-32.581-30.081-53.227C12.339,69.082,5.646,36.419,2.338,1.821"/>
	<g>
		<path fill="none" stroke="#FFFFFF" stroke-width="1.5024" d="M178.558,106.826l29.92,42.34c5.888,11.692,5,19.274-2.742,22.904
			c-8.951,4.759-17.581,0.969-25.808-11.13l-12.743-17.421c6.613-11.693,10.323-23.71,11.293-36.13L178.558,106.826L178.558,106.826
			z M163.799,149.167l23.632,34.68c11.048,10.806,11.21,20.001,0.563,27.663c-9.033,5.483-17.26,3.79-24.68-5.081l-21.453-32.179
			C150.976,166.103,158.234,157.796,163.799,149.167z"/>
	</g>
	<path fill="none" stroke="#000000" stroke-width="1.0001" stroke-dasharray="5.0003,3.0002,1.0001,3.0002" d="M178.558,106.826
		l29.92,42.34c5.888,11.692,5,19.274-2.742,22.904c-8.951,4.759-17.581,0.969-25.808-11.13l-12.743-17.421
		c6.613-11.693,10.323-23.71,11.293-36.13L178.558,106.826L178.558,106.826z M163.799,149.167l23.632,34.68
		c11.048,10.806,11.21,20.001,0.563,27.663c-9.033,5.483-17.26,3.79-24.68-5.081l-21.453-32.179
		C150.976,166.103,158.234,157.796,163.799,149.167z"/>
	<path fill="none" stroke="#000000" stroke-width="1.0001" d="M25.566,99.89c-1.048-10.483-0.081-18.629,5.403-21.049
		c4.678-2.096,9.436-1.209,14.113,2.42c8.388,27.985,19.194,48.873,33.146,61.615"/>
	<path fill="none" stroke="#000000" stroke-width="1.0001" d="M27.985,89.083l15.324-3.952c7.178,18.227,5,24.84-1.533,26.211
		C36.373,114.729,31.776,107.31,27.985,89.083z"/>
	<path fill="none" stroke="#000000" stroke-width="1.0001" d="M44.196,64.082c5.646-3.71,11.21-6.613,16.775-3.872
		c7.902,18.227,5.483,24.84-1.613,26.131C53.47,89.809,48.39,82.389,44.196,64.082z"/>
	<path fill="none" stroke="#000000" stroke-width="1.0001" d="M44.841,80.615c-5.726-14.598-5.483-25.001,3.308-29.195
		c8.791-5.967,18.872,1.613,30.082,22.905l28.873,52.986"/>
	<path fill="#CFCECE" stroke="#000000" stroke-width="1.0001" d="M94.521,0.853l38.469,106.618l14.759,29.116l48.391,49.599
		c3.95,4.113-5.081,11.613-9.033,7.581l-57.745-59.6L99.279,50.533L80.649,0.611"/>
	<path fill="#E5E5E5" stroke="#000000" stroke-width="1.0001" d="M162.024,151.183l34.115,35.002
		c3.95,4.113-5.081,11.613-9.033,7.581l-32.259-33.39C157.427,157.473,159.847,154.41,162.024,151.183z"/>
	<path fill="none" stroke="#FFFFFF" stroke-width="1.0001" d="M162.024,151.183l34.115,35.002c3.95,4.113-5.081,11.613-9.033,7.581
		l-32.259-33.39C157.427,157.473,159.847,154.41,162.024,151.183z"/>
	<path fill="none" stroke="#000000" stroke-width="1.0001" stroke-dasharray="5.0003,3.0002" d="M162.024,151.183l34.115,35.002
		c3.95,4.113-5.081,11.613-9.033,7.581l-32.259-33.39C157.427,157.473,159.847,154.41,162.024,151.183z"/>
	<path fill="#CFCECE" stroke="#000000" stroke-width="1.0001" d="M131.781,0.853v139.041l27.985,53.229l10.808,14.193l5.726,3.308
		c4.113-3.308,4.518-9.679-3.307-22.582l-26.13-48.793l0.323-138.395"/>
	
		<line fill="none" stroke="#000000" stroke-width="1.5024" stroke-dasharray="7.5118,4.5071" x1="140.813" y1="146.424" x2="140.813" y2="234.656"/>
	
		<line fill="none" stroke="#000000" stroke-width="1.5024" stroke-dasharray="7.5118,4.5071" x1="142.023" y1="147.473" x2="204.284" y2="209.815"/>
	<polygon stroke="#000000" stroke-width="0.216" points="82.746,0.288 130.329,131.424 130.571,131.747 130.571,137.634 
		127.909,134.73 78.552,0.611 	"/>
	<path stroke="#000000" stroke-width="0.216" d="M134.2,0.611h-4.194l0.564,138.312l1.533,5.727l29.518,53.874
		c4.438,5.97,8.952,10.242,13.469,12.985l2.098-1.774c-3.952,0.968-10.809-7.581-19.518-22.582l-24.033-48.229L134.2,0.611z"/>
	
		<radialGradient id="SVGID_1_" cx="133.1292" cy="157.6936" r="4.8161" gradientTransform="matrix(1 0 0 -1 7.9351 300.604)" gradientUnits="userSpaceOnUse">
		<stop  offset="0" style="stop-color:#FFFFFF"/>
		<stop  offset="1" style="stop-color:#808285"/>
	</radialGradient>
	<path fill="url(#SVGID_1_)" stroke="#000000" stroke-width="0.5" d="M141.056,145.86c1.854,0,3.387-1.53,3.387-3.388
		c0-1.854-1.533-3.387-3.387-3.387c-1.855,0-3.389,1.532-3.389,3.387C137.668,144.329,139.2,145.86,141.056,145.86z"/>
	<path fill="none" stroke="#000000" stroke-width="1.0001" d="M179.04,106.665c-4.515,31.372-19.516,52.342-39.678,68.148"/>
	<path fill="none" stroke="#000000" stroke-width="0.5" d="M140.491,202.637c17.743,1.532,29.438-5.242,35.083-20.405"/>
	<path d="M149.766,215.703v-1.937h-1.21v-0.888h1.21v-3.628l-1.21,1.854v-1.37l1.371-2.017h0.807v5.161h1.129v0.888h-1.129v1.937
		H149.766z M148.556,213.767h-2.259v-0.888l2.259-3.146v1.37l-1.29,1.774h1.29V213.767z"/>
	<path d="M152.83,213.605l1.048-0.08c0.081,0.484,0.243,0.888,0.564,1.129c0.243,0.243,0.564,0.403,0.968,0.403
		c0.484,0,0.887-0.16,1.21-0.563c0.322-0.322,0.483-0.807,0.483-1.37c0-0.565-0.162-1.049-0.483-1.372
		c-0.323-0.322-0.726-0.484-1.21-0.484c-0.323,0-0.563,0.082-0.887,0.243c-0.242,0.079-0.403,0.321-0.564,0.564l-0.968-0.162
		l0.807-4.113h4.032v0.968h-3.226l-0.483,2.099c0.483-0.323,1.048-0.484,1.532-0.484c0.726,0,1.29,0.242,1.774,0.726
		c0.483,0.483,0.726,1.13,0.726,1.855c0,0.727-0.161,1.371-0.646,1.937c-0.483,0.645-1.21,0.968-2.097,0.968
		c-0.726,0-1.29-0.242-1.773-0.646C153.153,214.815,152.911,214.25,152.83,213.605z"/>
	<path d="M160.653,207.557c0.564,0,0.968,0.161,1.291,0.564c0.322,0.321,0.483,0.887,0.483,1.451c0,0.646-0.161,1.21-0.483,1.531
		c-0.323,0.404-0.727,0.564-1.291,0.564l0,0v-0.727l0,0c0.323,0,0.564-0.08,0.726-0.321c0.161-0.242,0.242-0.565,0.242-1.05
		c0-0.401-0.081-0.726-0.242-0.968s-0.402-0.321-0.726-0.321l0,0V207.557L160.653,207.557z M160.653,211.669
		c-0.483,0-0.967-0.16-1.29-0.564c-0.323-0.321-0.484-0.806-0.484-1.451c0-0.645,0.161-1.21,0.484-1.531
		c0.323-0.403,0.807-0.564,1.29-0.564v0.727c-0.322,0-0.564,0.08-0.726,0.321c-0.162,0.161-0.242,0.565-0.242,0.969
		c0,0.482,0.08,0.807,0.242,1.049c0.241,0.242,0.403,0.321,0.726,0.321V211.669z"/>
	<path d="M237.753,65.937l-3.062-8.063h1.129l2.097,5.887c0.161,0.403,0.322,0.887,0.403,1.29c0.161-0.483,0.242-0.887,0.403-1.29
		l2.178-5.887h1.129l-3.146,8.063H237.753z"/>
	<path d="M245.818,65.21c-0.402,0.323-0.727,0.483-1.048,0.646c-0.162,0.081-0.403,0.081-0.564,0.162v-0.726
		c0.241-0.081,0.483-0.161,0.728-0.242c0.239-0.161,0.482-0.403,0.646-0.726c0.079-0.242,0.16-0.564,0.16-0.969v-0.322
		c-0.403,0.081-0.887,0.241-1.532,0.322v-0.807c0.646-0.081,1.21-0.242,1.532-0.323c0-0.161,0-0.242,0-0.242
		c0-0.402-0.081-0.726-0.322-0.887c-0.243-0.161-0.563-0.323-1.129-0.323h-0.081v-0.806c0.081,0,0.161,0,0.241,0
		c0.485,0,0.888,0.081,1.21,0.162c0.323,0.161,0.564,0.322,0.726,0.483c0.081,0.16,0.243,0.402,0.243,0.646
		c0.08,0.161,0.08,0.484,0.08,0.887v1.372c0,0.888,0,1.451,0.08,1.693c0,0.243,0.081,0.483,0.242,0.726h-1.048
		C245.899,65.695,245.818,65.453,245.818,65.21z M244.206,66.018c-0.162,0-0.323,0-0.563,0c-0.646,0-1.129-0.162-1.453-0.402
		c-0.321-0.323-0.483-0.727-0.483-1.21c0-0.322,0-0.564,0.162-0.808c0.161-0.242,0.321-0.403,0.483-0.563
		c0.241-0.161,0.483-0.242,0.727-0.323c0.161-0.08,0.483-0.08,0.887-0.161h0.242v0.807h-0.081c-0.402,0.081-0.726,0.162-0.887,0.242
		c-0.161,0.081-0.323,0.162-0.403,0.323c-0.081,0.081-0.081,0.242-0.081,0.403c0,0.321,0.081,0.483,0.242,0.726
		c0.242,0.161,0.483,0.242,0.887,0.242c0.081,0,0.242,0,0.323,0L244.206,66.018L244.206,66.018z M244.206,60.775
		c-0.402,0-0.727,0.081-0.888,0.242c-0.241,0.162-0.403,0.484-0.483,0.887l-0.968-0.16c0.081-0.404,0.242-0.727,0.403-0.969
		c0.242-0.241,0.482-0.482,0.887-0.563c0.322-0.161,0.646-0.242,1.049-0.242V60.775L244.206,60.775z"/>
	<path d="M250.496,67.469c0.404,0,0.646-0.08,0.888-0.322c0.242-0.162,0.402-0.402,0.483-0.726c0.081-0.242,0.081-0.646,0.081-1.29
		c-0.403,0.484-0.887,0.726-1.452,0.806V65.13c0.404,0,0.808-0.242,1.13-0.564c0.241-0.322,0.403-0.887,0.403-1.612
		c0-0.728-0.162-1.291-0.484-1.614c-0.241-0.403-0.645-0.564-1.049-0.564v-0.806c0.646,0,1.13,0.323,1.533,0.806V60.13h0.967v5
		c0,0.887-0.08,1.532-0.322,1.936c-0.16,0.323-0.482,0.646-0.888,0.888c-0.321,0.161-0.806,0.322-1.29,0.322V67.469L250.496,67.469z
		 M248.077,66.42l0.968,0.081c0,0.323,0.081,0.563,0.323,0.645c0.24,0.242,0.563,0.322,0.967,0.322c0.081,0,0.081,0,0.161,0v0.807
		h-0.161c-0.645,0-1.209-0.162-1.692-0.483C248.238,67.469,248.077,66.985,248.077,66.42L248.077,66.42z M250.496,65.937h-0.161
		c-0.807,0-1.371-0.321-1.854-0.887c-0.403-0.564-0.646-1.29-0.646-2.096c0-0.565,0.162-1.05,0.323-1.533
		c0.162-0.484,0.484-0.807,0.888-1.048c0.404-0.241,0.808-0.403,1.29-0.403h0.161v0.806h-0.08c-0.401,0-0.808,0.162-1.048,0.564
		c-0.323,0.323-0.483,0.887-0.483,1.533c0,0.807,0.16,1.371,0.402,1.693c0.321,0.323,0.728,0.564,1.209,0.564l0,0L250.496,65.937
		L250.496,65.937z"/>
	<path d="M254.448,59.001v-1.129h0.968v1.129H254.448L254.448,59.001z M254.448,65.937V60.13h0.968v5.806L254.448,65.937
		L254.448,65.937z"/>
	<path d="M256.948,65.937V60.13h0.888v0.806c0.402-0.645,1.048-0.968,1.854-0.968c0.323,0,0.646,0.081,0.97,0.162
		c0.322,0.161,0.483,0.322,0.645,0.563c0.161,0.161,0.242,0.403,0.322,0.727c0,0.161,0.081,0.483,0.081,0.887v3.629h-1.048v-3.549
		c0-0.403,0-0.726-0.082-0.887c-0.08-0.242-0.241-0.403-0.402-0.484c-0.241-0.161-0.402-0.161-0.726-0.161
		c-0.403,0-0.727,0.081-1.049,0.403c-0.323,0.242-0.485,0.726-0.485,1.451v3.226h-0.968V65.937z"/>
	<path d="M266.948,65.21c-0.322,0.323-0.726,0.483-1.048,0.646c-0.16,0.081-0.322,0.081-0.484,0.162v-0.726
		c0.242-0.081,0.484-0.161,0.646-0.242c0.322-0.161,0.563-0.403,0.646-0.726c0.162-0.242,0.162-0.564,0.162-0.969v-0.322
		c-0.324,0.081-0.808,0.241-1.453,0.322v-0.807c0.646-0.081,1.129-0.242,1.453-0.323c0-0.161,0-0.242,0-0.242
		c0-0.402-0.081-0.726-0.243-0.887c-0.241-0.161-0.646-0.323-1.129-0.323h-0.081v-0.806c0.081,0,0.162,0,0.242,0
		c0.484,0,0.887,0.081,1.211,0.162c0.321,0.161,0.483,0.322,0.646,0.483c0.159,0.16,0.239,0.402,0.32,0.646
		c0,0.161,0.081,0.484,0.081,0.887v1.372c0,0.888,0,1.451,0,1.693c0.08,0.243,0.162,0.483,0.241,0.726h-0.968
		C267.029,65.695,267.029,65.453,266.948,65.21z M265.416,66.018c-0.241,0-0.401,0-0.563,0c-0.646,0-1.129-0.162-1.451-0.402
		c-0.402-0.323-0.564-0.727-0.564-1.21c0-0.322,0.081-0.564,0.241-0.808c0.081-0.242,0.242-0.403,0.485-0.563
		c0.16-0.161,0.401-0.242,0.725-0.323c0.162-0.08,0.483-0.08,0.809-0.161h0.32v0.807h-0.16c-0.403,0.081-0.646,0.162-0.807,0.242
		c-0.162,0.081-0.322,0.162-0.403,0.323c-0.081,0.081-0.161,0.242-0.161,0.403c0,0.321,0.08,0.483,0.321,0.726
		c0.162,0.161,0.485,0.242,0.89,0.242c0.079,0,0.16,0,0.32,0L265.416,66.018L265.416,66.018z M265.416,60.775
		c-0.401,0-0.725,0.081-0.967,0.242c-0.162,0.162-0.322,0.484-0.484,0.887l-0.967-0.16c0.079-0.404,0.241-0.727,0.483-0.969
		c0.16-0.241,0.482-0.482,0.806-0.563c0.323-0.161,0.728-0.242,1.129-0.242V60.775L265.416,60.775z"/>
	<path d="M235.092,88.921l1.05-0.161c0,0.403,0.16,0.806,0.322,1.048c0.161,0.242,0.402,0.404,0.808,0.565
		c0.321,0.162,0.806,0.242,1.209,0.242c0.402,0,0.808,0,1.13-0.161c0.241-0.081,0.482-0.242,0.645-0.484
		c0.16-0.242,0.243-0.403,0.243-0.726c0-0.242-0.083-0.403-0.243-0.646c-0.16-0.162-0.402-0.323-0.727-0.483
		c-0.161-0.081-0.646-0.161-1.37-0.323c-0.807-0.242-1.291-0.403-1.613-0.564c-0.321-0.161-0.645-0.402-0.807-0.726
		c-0.241-0.323-0.323-0.646-0.323-0.968c0-0.403,0.162-0.807,0.404-1.13c0.16-0.402,0.563-0.645,0.968-0.807
		c0.402-0.161,0.967-0.323,1.451-0.323c0.646,0,1.129,0.162,1.613,0.323c0.402,0.162,0.807,0.484,1.049,0.807
		c0.241,0.403,0.322,0.807,0.403,1.291l-1.05,0.081c-0.08-0.483-0.241-0.887-0.563-1.13c-0.323-0.241-0.808-0.402-1.371-0.402
		c-0.646,0-1.13,0.081-1.452,0.322c-0.241,0.242-0.402,0.564-0.402,0.888c0,0.241,0.08,0.483,0.322,0.726
		c0.161,0.162,0.727,0.323,1.613,0.564c0.807,0.161,1.451,0.322,1.773,0.483c0.402,0.242,0.808,0.484,0.968,0.807
		c0.243,0.322,0.403,0.727,0.403,1.129c0,0.483-0.16,0.887-0.403,1.21c-0.241,0.402-0.564,0.726-1.048,0.887
		c-0.483,0.242-0.969,0.322-1.532,0.322c-0.727,0-1.372-0.081-1.855-0.322c-0.482-0.161-0.887-0.484-1.129-0.968
		C235.254,89.89,235.173,89.406,235.092,88.921z"/>
	<path d="M246.626,89.325l0.967,0.16c-0.079,0.646-0.401,1.13-0.807,1.532c-0.403,0.404-0.968,0.564-1.613,0.564
		c-0.806,0-1.45-0.242-1.935-0.807c-0.484-0.483-0.726-1.21-0.726-2.177c0-0.646,0.16-1.21,0.321-1.693
		c0.242-0.484,0.564-0.808,0.969-1.049c0.403-0.24,0.887-0.322,1.369-0.322c0.646,0,1.131,0.161,1.533,0.483
		c0.403,0.322,0.646,0.727,0.808,1.371l-0.969,0.08c-0.081-0.322-0.241-0.645-0.484-0.806c-0.241-0.242-0.481-0.322-0.807-0.322
		c-0.563,0-0.967,0.161-1.21,0.484c-0.321,0.402-0.482,0.967-0.482,1.692c0,0.808,0.161,1.371,0.402,1.774
		c0.323,0.323,0.727,0.483,1.209,0.483c0.405,0,0.728-0.081,0.97-0.322C246.383,90.212,246.545,89.809,246.626,89.325z"/>
	<path d="M248.48,84.567v-1.129h0.968v1.129H248.48L248.48,84.567z M248.48,91.422v-5.807h0.968v5.807H248.48z"/>
	<path d="M250.496,89.728l0.969-0.161c0.08,0.403,0.24,0.727,0.483,0.888c0.242,0.241,0.646,0.322,1.048,0.322
		c0.484,0,0.808-0.081,1.049-0.241c0.161-0.243,0.323-0.404,0.323-0.646s-0.162-0.403-0.323-0.563
		c-0.161-0.081-0.483-0.162-0.968-0.323c-0.726-0.161-1.291-0.323-1.532-0.484c-0.241-0.162-0.482-0.323-0.645-0.563
		c-0.162-0.242-0.243-0.484-0.243-0.727c0-0.323,0.081-0.563,0.243-0.726c0.08-0.242,0.242-0.404,0.482-0.564
		c0.161-0.161,0.321-0.242,0.564-0.322c0.321-0.081,0.564-0.081,0.888-0.081c0.483,0,0.888,0.081,1.209,0.161
		c0.323,0.161,0.564,0.323,0.727,0.564c0.162,0.242,0.322,0.484,0.402,0.887l-0.968,0.161c-0.081-0.322-0.241-0.563-0.402-0.726
		c-0.242-0.162-0.483-0.242-0.888-0.242c-0.483,0-0.807,0.08-0.968,0.242c-0.243,0.161-0.322,0.321-0.322,0.483
		c0,0.161,0.079,0.242,0.16,0.323c0.081,0.161,0.162,0.242,0.323,0.323c0.16,0,0.403,0.08,0.887,0.242
		c0.728,0.161,1.21,0.322,1.452,0.402c0.322,0.162,0.484,0.323,0.646,0.564c0.16,0.242,0.241,0.484,0.241,0.807
		c0,0.323-0.081,0.646-0.241,0.968c-0.241,0.242-0.483,0.484-0.888,0.646c-0.322,0.161-0.726,0.242-1.21,0.242
		c-0.727,0-1.291-0.161-1.693-0.483C250.9,90.779,250.657,90.374,250.496,89.728z"/>
	<path d="M256.142,89.728l0.968-0.161c0.081,0.403,0.241,0.727,0.484,0.888c0.241,0.241,0.563,0.322,1.048,0.322
		c0.403,0,0.727-0.081,0.969-0.241c0.241-0.243,0.322-0.404,0.322-0.646s-0.081-0.403-0.243-0.563
		c-0.16-0.081-0.482-0.162-1.048-0.323c-0.728-0.161-1.209-0.323-1.532-0.484c-0.242-0.162-0.483-0.323-0.564-0.563
		c-0.161-0.242-0.241-0.484-0.241-0.727c0-0.323,0.08-0.563,0.16-0.726c0.162-0.242,0.324-0.404,0.484-0.564
		c0.161-0.161,0.402-0.242,0.646-0.322c0.241-0.081,0.563-0.081,0.807-0.081c0.482,0,0.887,0.081,1.21,0.161
		c0.402,0.161,0.645,0.323,0.806,0.564c0.161,0.242,0.243,0.484,0.322,0.887l-0.967,0.161c-0.082-0.322-0.161-0.563-0.403-0.726
		c-0.161-0.162-0.484-0.242-0.887-0.242c-0.404,0-0.728,0.08-0.969,0.242c-0.162,0.161-0.241,0.321-0.241,0.483
		c0,0.161,0,0.242,0.079,0.323c0.082,0.161,0.243,0.242,0.403,0.323c0.081,0,0.403,0.08,0.888,0.242
		c0.646,0.161,1.13,0.322,1.453,0.402c0.24,0.162,0.481,0.323,0.644,0.564c0.162,0.242,0.243,0.484,0.243,0.807
		c0,0.323-0.162,0.646-0.322,0.968c-0.162,0.242-0.484,0.484-0.808,0.646c-0.402,0.161-0.807,0.242-1.21,0.242
		c-0.807,0-1.37-0.161-1.774-0.483C256.464,90.777,256.224,90.374,256.142,89.728z"/>
	<path d="M264.449,85.534L264.449,85.534c0.807,0,1.451,0.242,2.016,0.807c0.483,0.484,0.727,1.209,0.727,2.097
		c0,0.807-0.081,1.371-0.321,1.774c-0.243,0.482-0.564,0.806-0.969,1.048c-0.403,0.242-0.887,0.322-1.451,0.322l0,0v-0.807l0,0
		c0.483,0,0.967-0.161,1.291-0.563c0.321-0.323,0.482-0.887,0.482-1.694c0-0.726-0.161-1.291-0.482-1.613
		c-0.405-0.402-0.808-0.563-1.291-0.563l0,0L264.449,85.534L264.449,85.534z M261.787,88.519c0-1.049,0.242-1.854,0.888-2.339
		c0.483-0.403,1.049-0.646,1.774-0.646v0.807c-0.484,0-0.887,0.161-1.21,0.564c-0.322,0.322-0.484,0.887-0.484,1.612
		c0,0.808,0.162,1.371,0.484,1.694c0.323,0.403,0.726,0.563,1.21,0.563v0.807c-0.808,0-1.451-0.242-1.937-0.807
		C262.029,90.292,261.787,89.567,261.787,88.519z"/>
	<path d="M268.319,91.422v-5.807h0.888v0.887c0.242-0.404,0.484-0.646,0.646-0.808c0.161-0.08,0.402-0.161,0.645-0.161
		c0.323,0,0.646,0.081,0.968,0.322l-0.321,0.888c-0.242-0.161-0.484-0.242-0.727-0.242c-0.161,0-0.402,0.081-0.563,0.242
		c-0.161,0.081-0.322,0.322-0.322,0.563c-0.162,0.323-0.162,0.727-0.162,1.129v2.984h-1.051V91.422z"/>
	<path d="M271.707,89.728l0.968-0.161c0.081,0.403,0.161,0.727,0.483,0.888c0.242,0.241,0.564,0.322,1.05,0.322
		c0.402,0,0.726-0.081,0.968-0.241c0.24-0.243,0.321-0.404,0.321-0.646s-0.081-0.403-0.321-0.563
		c-0.08-0.081-0.402-0.162-0.968-0.323c-0.727-0.161-1.21-0.323-1.533-0.484c-0.241-0.162-0.482-0.323-0.563-0.563
		c-0.161-0.242-0.242-0.484-0.242-0.727c0-0.323,0.081-0.563,0.161-0.726c0.162-0.242,0.323-0.404,0.485-0.564
		c0.159-0.161,0.401-0.242,0.644-0.322c0.242-0.081,0.564-0.081,0.807-0.081c0.484,0,0.888,0.081,1.212,0.161
		c0.401,0.161,0.646,0.323,0.807,0.564c0.16,0.242,0.241,0.484,0.321,0.887l-0.968,0.161c-0.081-0.322-0.16-0.563-0.403-0.726
		c-0.16-0.162-0.483-0.242-0.888-0.242c-0.401,0-0.726,0.08-0.967,0.242c-0.162,0.161-0.243,0.321-0.243,0.483
		c0,0.161,0,0.242,0.081,0.323c0.081,0.161,0.241,0.242,0.403,0.323c0.08,0,0.402,0.08,0.888,0.242
		c0.645,0.161,1.129,0.322,1.451,0.402c0.242,0.162,0.483,0.323,0.646,0.564c0.161,0.242,0.242,0.484,0.242,0.807
		c0,0.323-0.161,0.646-0.322,0.968c-0.162,0.242-0.484,0.484-0.809,0.646c-0.401,0.161-0.806,0.242-1.208,0.242
		c-0.808,0-1.372-0.161-1.774-0.483C272.031,90.779,271.788,90.374,271.707,89.728z"/>
	<rect x="235.657" y="144.65" width="1.048" height="8.065"/>
	<path d="M238.479,152.715v-5.807h0.887v0.807c0.404-0.646,1.048-0.969,1.855-0.969c0.322,0,0.646,0.081,0.967,0.162
		c0.243,0.16,0.484,0.322,0.646,0.563c0.161,0.161,0.242,0.402,0.322,0.728c0,0.16,0,0.482,0,0.886v3.63h-0.969v-3.549
		c0-0.402,0-0.728-0.079-0.888c-0.081-0.241-0.242-0.403-0.404-0.482c-0.241-0.162-0.401-0.162-0.725-0.162
		c-0.404,0-0.728,0.081-1.048,0.403c-0.323,0.241-0.485,0.727-0.485,1.452v3.226H238.479L238.479,152.715z"/>
	<path d="M248.48,152.715v-0.728c-0.323,0.564-0.889,0.809-1.533,0.809v-0.809l0,0c0.404,0,0.808-0.159,1.13-0.482
		c0.242-0.403,0.403-0.887,0.403-1.613c0-0.807-0.161-1.371-0.484-1.773c-0.241-0.321-0.645-0.564-1.049-0.564v-0.807
		c0.243,0,0.565,0.081,0.808,0.241c0.241,0.162,0.483,0.322,0.646,0.564v-2.903h0.969v8.065H248.48L248.48,152.715z
		 M246.947,152.796h-0.08c-0.484,0-0.887-0.081-1.289-0.323c-0.405-0.322-0.727-0.645-0.889-1.13
		c-0.242-0.402-0.322-0.967-0.322-1.531c0-0.563,0.08-1.129,0.241-1.611c0.243-0.484,0.483-0.809,0.887-1.05
		c0.404-0.241,0.809-0.403,1.291-0.403c0.081,0,0.081,0,0.161,0v0.807h-0.08c-0.403,0-0.808,0.162-1.049,0.564
		c-0.323,0.321-0.483,0.887-0.483,1.693c0,0.728,0.16,1.29,0.483,1.612c0.323,0.404,0.727,0.563,1.129,0.563V152.796
		L246.947,152.796z"/>
	<path d="M254.933,150.861l0.967,0.08c-0.161,0.564-0.402,1.049-0.886,1.372c-0.404,0.322-0.97,0.483-1.613,0.483h-0.081v-0.809
		h0.081c0.322,0,0.645-0.079,0.887-0.239C254.529,151.505,254.771,151.264,254.933,150.861L254.933,150.861z M253.319,146.747
		L253.319,146.747c0.806,0,1.451,0.242,1.935,0.807c0.484,0.484,0.728,1.291,0.728,2.259c0,0,0,0.08,0,0.242h-2.661v-0.807h1.613
		c-0.081-0.483-0.162-0.888-0.403-1.13c-0.323-0.402-0.727-0.564-1.21-0.564l0,0L253.319,146.747L253.319,146.747z M253.319,152.796
		c-0.807,0-1.452-0.243-1.937-0.728c-0.563-0.563-0.806-1.291-0.806-2.258c0-0.968,0.322-1.693,0.806-2.259
		c0.484-0.565,1.13-0.807,1.937-0.807v0.807c-0.483,0-0.807,0.162-1.129,0.484c-0.323,0.322-0.485,0.727-0.485,1.21h1.614v0.807
		h-1.693c0,0.646,0.241,1.129,0.564,1.451c0.322,0.323,0.646,0.482,1.129,0.482V152.796z"/>
	<path d="M256.545,152.715l2.098-3.065l-1.936-2.74h1.208l0.889,1.37c0.161,0.241,0.322,0.484,0.403,0.646
		c0.161-0.242,0.322-0.485,0.403-0.646l0.967-1.37h1.21l-2.016,2.74l2.177,3.065h-1.21l-1.209-1.854l-0.322-0.483l-1.533,2.339
		L256.545,152.715L256.545,152.715z"/>
	<path d="M269.691,151.99c-0.403,0.323-0.728,0.483-1.048,0.646c-0.162,0.08-0.404,0.08-0.564,0.161v-0.728
		c0.24-0.081,0.483-0.16,0.726-0.24c0.241-0.161,0.483-0.404,0.646-0.728c0.081-0.161,0.161-0.562,0.161-0.967v-0.323
		c-0.403,0.08-0.888,0.242-1.531,0.323v-0.808c0.645-0.08,1.209-0.242,1.531-0.323c0-0.16,0-0.24,0-0.24
		c0-0.403-0.08-0.727-0.322-0.889c-0.242-0.16-0.564-0.322-1.13-0.322h-0.079v-0.807c0.079,0,0.16,0,0.24,0
		c0.484,0,0.888,0.081,1.211,0.162c0.322,0.16,0.563,0.322,0.726,0.482c0.08,0.161,0.241,0.404,0.241,0.646
		c0.081,0.161,0.081,0.482,0.081,0.888v1.37c0,0.888,0,1.453,0.08,1.692c0,0.243,0.082,0.484,0.242,0.728h-1.048
		C269.771,152.473,269.691,152.232,269.691,151.99z M268.079,152.796c-0.162,0-0.324,0-0.563,0c-0.646,0-1.13-0.161-1.453-0.404
		c-0.321-0.322-0.483-0.725-0.483-1.209c0-0.322,0-0.563,0.162-0.807c0.16-0.241,0.321-0.402,0.482-0.564
		c0.241-0.162,0.483-0.243,0.726-0.321c0.161-0.081,0.484-0.081,0.888-0.162h0.243v0.808h-0.082
		c-0.402,0.079-0.726,0.16-0.888,0.241c-0.161,0.08-0.321,0.162-0.402,0.323c-0.081,0.078-0.081,0.24-0.081,0.401
		c0,0.322,0.081,0.484,0.243,0.728c0.24,0.159,0.483,0.24,0.886,0.24c0.162,0,0.242,0,0.324,0L268.079,152.796L268.079,152.796z
		 M268.079,147.553c-0.404,0-0.727,0.081-0.889,0.243c-0.242,0.16-0.402,0.482-0.483,0.887l-0.967-0.162
		c0.08-0.402,0.24-0.725,0.402-0.968c0.241-0.242,0.482-0.483,0.887-0.564c0.323-0.16,0.646-0.241,1.05-0.241V147.553
		L268.079,147.553z"/>
	<path d="M272.11,152.715v-5.807h0.888v0.807c0.402-0.646,1.048-0.969,1.854-0.969c0.323,0,0.646,0.081,0.97,0.162
		c0.24,0.16,0.482,0.322,0.645,0.563c0.16,0.161,0.241,0.402,0.322,0.728c0,0.16,0,0.482,0,0.886v3.63h-0.967v-3.549
		c0-0.402,0-0.728-0.082-0.888c-0.08-0.241-0.242-0.403-0.402-0.482c-0.241-0.162-0.403-0.162-0.727-0.162
		c-0.402,0-0.727,0.081-1.048,0.403c-0.323,0.241-0.483,0.727-0.483,1.452v3.226H272.11L272.11,152.715z"/>
	<path d="M282.111,152.715v-0.728c-0.323,0.564-0.888,0.809-1.533,0.809v-0.809l0,0c0.404,0,0.809-0.159,1.13-0.482
		c0.241-0.403,0.403-0.887,0.403-1.613c0-0.807-0.162-1.371-0.484-1.773c-0.24-0.321-0.645-0.564-1.049-0.564v-0.807
		c0.243,0,0.565,0.081,0.809,0.241c0.24,0.162,0.482,0.322,0.645,0.564v-2.903h0.968v8.065H282.111L282.111,152.715z
		 M280.578,152.796h-0.08c-0.483,0-0.887-0.081-1.29-0.323c-0.403-0.322-0.727-0.645-0.888-1.13
		c-0.242-0.402-0.322-0.967-0.322-1.531c0-0.563,0.08-1.129,0.241-1.611c0.242-0.484,0.485-0.809,0.888-1.05
		c0.403-0.241,0.808-0.403,1.291-0.403c0.08,0,0.08,0,0.16,0v0.807h-0.08c-0.402,0-0.807,0.162-1.049,0.564
		c-0.322,0.321-0.484,0.887-0.484,1.693c0,0.728,0.162,1.29,0.484,1.612c0.323,0.404,0.726,0.563,1.129,0.563V152.796z"/>
	<path d="M287.677,152.715v-5.807h0.886v0.807c0.162-0.323,0.402-0.564,0.727-0.728c0.322-0.16,0.646-0.241,1.049-0.241
		c0.402,0,0.808,0.081,1.049,0.241c0.241,0.243,0.482,0.484,0.563,0.809c0.483-0.728,1.048-1.05,1.774-1.05
		c0.646,0,1.048,0.162,1.371,0.484c0.321,0.321,0.482,0.807,0.482,1.451v4.032h-1.048v-3.711c0-0.402,0-0.645-0.081-0.805
		c-0.08-0.162-0.161-0.324-0.323-0.403c-0.16-0.162-0.401-0.162-0.563-0.162c-0.402,0-0.807,0.081-1.048,0.403
		c-0.241,0.241-0.403,0.646-0.403,1.29v3.388h-0.967v-3.79c0-0.404-0.081-0.808-0.242-0.969c-0.162-0.241-0.403-0.322-0.809-0.322
		c-0.24,0-0.563,0.081-0.725,0.162c-0.243,0.16-0.404,0.403-0.563,0.644c-0.081,0.324-0.162,0.728-0.162,1.21v3.065L287.677,152.715
		L287.677,152.715z"/>
	<path d="M297.031,145.78v-1.13h0.968v1.13H297.031L297.031,145.78z M297.031,152.715v-5.807h0.968v5.807H297.031z"/>
	<path d="M303.241,152.715v-0.728c-0.322,0.564-0.806,0.809-1.532,0.809v-0.809l0,0c0.483,0,0.807-0.159,1.129-0.482
		c0.322-0.403,0.484-0.887,0.484-1.613c0-0.807-0.162-1.371-0.484-1.773c-0.322-0.321-0.646-0.564-1.129-0.564v-0.807
		c0.322,0,0.564,0.081,0.807,0.241c0.322,0.162,0.484,0.322,0.727,0.564v-2.903h0.967v8.065H303.241L303.241,152.715z
		 M301.709,152.796h-0.081c-0.482,0-0.888-0.081-1.291-0.323c-0.321-0.322-0.645-0.645-0.886-1.13
		c-0.243-0.402-0.324-0.967-0.324-1.531c0-0.563,0.081-1.129,0.324-1.611c0.16-0.484,0.483-0.809,0.886-1.05
		c0.324-0.241,0.809-0.403,1.291-0.403h0.081v0.807l0,0c-0.482,0-0.808,0.162-1.129,0.564c-0.243,0.321-0.403,0.887-0.403,1.693
		c0,0.728,0.16,1.29,0.484,1.612c0.24,0.404,0.646,0.563,1.048,0.563V152.796z"/>
	<path d="M309.532,152.715v-0.728c-0.403,0.564-0.889,0.809-1.613,0.809v-0.809H308c0.403,0,0.726-0.159,1.048-0.482
		c0.322-0.403,0.484-0.887,0.484-1.613c0-0.807-0.162-1.371-0.484-1.773c-0.322-0.321-0.645-0.564-1.129-0.564v-0.807
		c0.322,0,0.564,0.081,0.807,0.241c0.322,0.162,0.563,0.322,0.727,0.564v-2.903h0.967v8.065H309.532L309.532,152.715z
		 M307.919,152.796h-0.08c-0.403,0-0.889-0.081-1.211-0.323c-0.401-0.322-0.726-0.645-0.968-1.13
		c-0.161-0.402-0.322-0.967-0.322-1.531c0-0.563,0.161-1.129,0.322-1.611c0.162-0.484,0.484-0.809,0.887-1.05
		c0.403-0.241,0.809-0.403,1.292-0.403h0.08v0.807l0,0c-0.403,0-0.807,0.162-1.129,0.564c-0.243,0.321-0.403,0.887-0.403,1.693
		c0,0.728,0.16,1.29,0.483,1.612c0.323,0.404,0.646,0.563,1.049,0.563V152.796L307.919,152.796z"/>
	<rect x="311.952" y="144.65" width="0.967" height="8.065"/>
	<path d="M318.402,150.861l1.049,0.08c-0.162,0.564-0.482,1.049-0.887,1.372c-0.483,0.322-0.968,0.483-1.693,0.483h-0.081v-0.809
		h0.081c0.403,0,0.727-0.079,0.967-0.239C318.081,151.505,318.241,151.264,318.402,150.861L318.402,150.861z M316.79,146.747h0.081
		c0.727,0,1.37,0.242,1.854,0.807c0.484,0.484,0.727,1.291,0.727,2.259c0,0,0,0.08,0,0.242h-2.661v-0.807h1.612
		c0-0.483-0.161-0.888-0.321-1.13c-0.323-0.402-0.727-0.564-1.21-0.564h-0.081L316.79,146.747L316.79,146.747z M316.79,152.796
		c-0.806,0-1.451-0.243-1.935-0.728c-0.485-0.563-0.728-1.291-0.728-2.258c0-0.968,0.241-1.693,0.728-2.259
		c0.482-0.564,1.129-0.807,1.935-0.807v0.807c-0.402,0-0.806,0.162-1.049,0.484c-0.321,0.322-0.483,0.727-0.563,1.21h1.612v0.807
		h-1.692c0.08,0.646,0.241,1.129,0.563,1.451c0.323,0.323,0.727,0.482,1.129,0.482V152.796z"/>
	<path d="M235.576,165.216v-5.081h-0.806v-0.727h0.806v-0.646c0-0.403,0.081-0.646,0.161-0.887c0.081-0.243,0.241-0.404,0.484-0.564
		c0.241-0.162,0.563-0.243,0.967-0.243c0.323,0,0.563,0,0.969,0.081l-0.161,0.888c-0.243-0.08-0.403-0.08-0.563-0.08
		c-0.323,0-0.565,0.08-0.646,0.161c-0.161,0.161-0.242,0.402-0.242,0.727v0.563h1.129v0.727h-1.129v5.081H235.576z"/>
	<path d="M238.479,158.361v-1.21h0.968v1.21H238.479L238.479,158.361z M238.479,165.216v-5.808h0.968v5.808H238.479z"/>
	<path d="M240.98,165.216v-5.808h0.887v0.808c0.403-0.646,1.048-0.969,1.854-0.969c0.321,0,0.646,0.081,0.968,0.242
		c0.243,0.08,0.482,0.24,0.646,0.482c0.16,0.162,0.243,0.403,0.322,0.728c0,0.159,0,0.482,0,0.968v3.549h-0.968v-3.549
		c0-0.403,0-0.727-0.081-0.887c-0.08-0.243-0.241-0.323-0.402-0.485c-0.242-0.079-0.483-0.16-0.727-0.16
		c-0.402,0-0.807,0.081-1.048,0.402c-0.322,0.243-0.483,0.727-0.483,1.531v3.146L240.98,165.216L240.98,165.216z"/>
	<path d="M249.448,166.749c0.403,0,0.726-0.081,0.887-0.241c0.243-0.243,0.403-0.485,0.565-0.808c0-0.161,0-0.646,0-1.29
		c-0.404,0.482-0.887,0.807-1.452,0.807v-0.807c0.403,0,0.807-0.162,1.13-0.565c0.322-0.321,0.402-0.886,0.402-1.612
		c0-0.726-0.08-1.21-0.402-1.611c-0.323-0.324-0.727-0.564-1.13-0.564v-0.808c0.646,0.081,1.13,0.323,1.613,0.888v-0.727h0.887
		v5.001c0,0.888-0.081,1.532-0.322,1.936c-0.161,0.403-0.403,0.646-0.807,0.887c-0.403,0.242-0.888,0.323-1.371,0.323V166.749z
		 M247.028,165.7l0.968,0.161c0,0.241,0.161,0.483,0.323,0.646c0.241,0.16,0.563,0.241,0.968,0.241c0.081,0,0.081,0,0.161,0v0.807
		h-0.161c-0.646,0-1.21-0.161-1.694-0.483C247.19,166.749,247.028,166.345,247.028,165.7L247.028,165.7z M249.448,165.216
		c-0.08,0-0.08,0-0.08,0c-0.808,0-1.452-0.323-1.854-0.888c-0.484-0.564-0.728-1.29-0.728-2.098c0-0.482,0.161-1.049,0.323-1.531
		c0.242-0.404,0.482-0.808,0.887-1.05c0.404-0.241,0.808-0.402,1.372-0.402h0.08v0.808h-0.08c-0.404,0-0.808,0.24-1.049,0.564
		c-0.323,0.321-0.485,0.886-0.485,1.611c0,0.727,0.162,1.291,0.485,1.612c0.241,0.403,0.645,0.565,1.129,0.565l0,0V165.216z"/>
	<path d="M257.433,163.361l0.968,0.081c-0.162,0.646-0.403,1.05-0.888,1.37c-0.403,0.323-0.969,0.566-1.613,0.566h-0.08v-0.888
		l0.08,0.079c0.324,0,0.646-0.16,0.889-0.322C257.028,164.087,257.271,163.764,257.433,163.361L257.433,163.361z M255.819,159.248
		L255.819,159.248c0.807,0,1.371,0.322,1.854,0.808c0.564,0.564,0.809,1.29,0.809,2.258c0,0,0,0.161,0,0.241h-2.662v-0.806h1.613
		c-0.082-0.484-0.161-0.89-0.404-1.129c-0.321-0.324-0.726-0.564-1.209-0.564l0,0V159.248L255.819,159.248z M255.819,165.378
		c-0.806-0.081-1.532-0.323-2.017-0.809c-0.483-0.563-0.727-1.289-0.727-2.177c0-1.049,0.242-1.773,0.807-2.339
		c0.484-0.484,1.131-0.808,1.937-0.808v0.808c-0.484,0-0.806,0.161-1.13,0.482c-0.321,0.321-0.483,0.727-0.483,1.211h1.613v0.806
		h-1.694c0,0.646,0.243,1.129,0.564,1.452c0.243,0.322,0.646,0.483,1.13,0.483V165.378L255.819,165.378z"/>
	<path d="M259.61,165.216v-5.808h0.887v0.887c0.241-0.402,0.484-0.726,0.646-0.806c0.24-0.161,0.402-0.242,0.645-0.242
		c0.323,0,0.646,0.161,1.049,0.322l-0.401,0.968c-0.243-0.161-0.485-0.242-0.728-0.242c-0.161,0-0.403,0.081-0.563,0.162
		c-0.161,0.162-0.242,0.322-0.323,0.563c-0.16,0.323-0.16,0.728-0.16,1.129v3.065L259.61,165.216L259.61,165.216z"/>
	<path d="M262.998,163.442l0.967-0.081c0.081,0.322,0.241,0.646,0.484,0.888c0.242,0.162,0.564,0.322,1.048,0.322
		c0.403,0,0.727-0.16,0.968-0.322c0.242-0.16,0.323-0.403,0.323-0.645c0-0.243-0.081-0.404-0.243-0.484
		c-0.16-0.16-0.482-0.241-1.048-0.402c-0.727-0.162-1.21-0.322-1.532-0.403c-0.241-0.162-0.482-0.321-0.563-0.563
		c-0.161-0.243-0.242-0.484-0.242-0.808c0-0.241,0.081-0.483,0.161-0.726c0.162-0.243,0.322-0.404,0.484-0.565
		c0.16-0.079,0.401-0.16,0.646-0.241c0.242-0.08,0.564-0.161,0.807-0.161c0.484,0,0.888,0.081,1.209,0.242
		c0.404,0.081,0.646,0.321,0.808,0.482c0.161,0.243,0.243,0.564,0.322,0.887l-0.969,0.162c0-0.321-0.161-0.483-0.402-0.727
		c-0.161-0.16-0.482-0.24-0.889-0.24c-0.401,0-0.725,0.08-0.967,0.24c-0.162,0.162-0.241,0.324-0.241,0.563
		c0,0.082,0,0.243,0.079,0.323c0.081,0.081,0.243,0.162,0.404,0.241c0.081,0.081,0.403,0.162,0.887,0.243
		c0.646,0.242,1.129,0.323,1.451,0.482c0.242,0.081,0.484,0.323,0.646,0.483c0.16,0.243,0.241,0.563,0.241,0.889
		c0,0.321-0.081,0.646-0.32,0.888c-0.162,0.322-0.485,0.562-0.809,0.726c-0.402,0.162-0.807,0.243-1.21,0.243
		c-0.806,0-1.37-0.162-1.773-0.485C263.319,164.571,263.077,164.087,262.998,163.442z"/>
	<path d="M274.449,159.248L274.449,159.248c0.807,0,1.452,0.242,1.937,0.808c0.564,0.482,0.806,1.209,0.806,2.177
		c0,0.728-0.16,1.291-0.321,1.774c-0.243,0.403-0.564,0.727-1.048,0.967c-0.405,0.243-0.889,0.405-1.372,0.405l0,0v-0.809l0,0
		c0.483,0,0.888-0.241,1.21-0.563c0.323-0.402,0.483-0.968,0.483-1.774c0-0.646-0.16-1.21-0.483-1.611
		c-0.322-0.324-0.727-0.564-1.21-0.564l0,0L274.449,159.248L274.449,159.248z M271.707,162.313c0-1.049,0.322-1.854,0.888-2.42
		c0.563-0.402,1.129-0.646,1.854-0.646v0.808c-0.484,0-0.887,0.24-1.21,0.564c-0.322,0.401-0.483,0.967-0.483,1.692
		c0,0.727,0.161,1.291,0.483,1.693c0.323,0.322,0.726,0.483,1.21,0.563v0.809c-0.806,0-1.451-0.323-1.935-0.809
		C271.949,164.006,271.707,163.281,271.707,162.313z"/>
	<path d="M278.562,165.216v-5.081h-0.889v-0.727h0.889v-0.646c0-0.403,0-0.646,0.081-0.887c0.081-0.243,0.32-0.404,0.482-0.564
		c0.242-0.162,0.646-0.243,1.048-0.243c0.243,0,0.564,0,0.889,0.081l-0.161,0.888c-0.162-0.08-0.323-0.08-0.564-0.08
		s-0.484,0.08-0.646,0.161c-0.08,0.161-0.161,0.402-0.161,0.727v0.563h1.129v0.727h-1.129v5.081H278.562z"/>
	<rect x="284.53" y="157.151" width="0.968" height="8.065"/>
	<path d="M290.982,163.361l1.048,0.081c-0.161,0.646-0.483,1.05-0.886,1.37c-0.404,0.323-0.97,0.566-1.693,0.566h-0.081v-0.888
		l0.081,0.079c0.402,0,0.726-0.16,0.967-0.322C290.659,164.087,290.902,163.764,290.982,163.361L290.982,163.361z M289.37,159.248
		h0.081c0.725,0,1.369,0.322,1.854,0.808c0.483,0.564,0.726,1.29,0.726,2.258c0,0,0,0.161,0,0.241h-2.66v-0.806h1.693
		c-0.081-0.484-0.243-0.89-0.404-1.129c-0.321-0.324-0.726-0.564-1.208-0.564h-0.081L289.37,159.248L289.37,159.248z
		 M289.37,165.378c-0.808-0.081-1.452-0.323-1.937-0.809c-0.483-0.563-0.728-1.289-0.728-2.177c0-1.049,0.243-1.773,0.728-2.339
		c0.563-0.484,1.21-0.808,1.937-0.808v0.808c-0.404,0-0.808,0.161-1.049,0.482c-0.323,0.321-0.484,0.727-0.564,1.211h1.613v0.806
		h-1.613c0,0.646,0.161,1.129,0.484,1.452c0.321,0.322,0.725,0.483,1.129,0.483V165.378z"/>
	<path d="M293.482,165.216v-5.081h-0.888v-0.727h0.888v-0.646c0-0.403,0.08-0.646,0.161-0.887c0.081-0.243,0.242-0.404,0.482-0.564
		c0.243-0.162,0.565-0.243,0.97-0.243c0.321,0,0.563,0,0.968,0.081l-0.162,0.888c-0.241-0.08-0.402-0.08-0.563-0.08
		c-0.322,0-0.564,0.08-0.646,0.161c-0.161,0.161-0.242,0.402-0.242,0.727v0.563h1.129v0.727h-1.129v5.081H293.482z"/>
	<path d="M298.562,164.329l0.081,0.888c-0.241,0-0.483,0.081-0.726,0.081c-0.322,0-0.646-0.081-0.807-0.162
		c-0.243-0.162-0.324-0.242-0.403-0.483c-0.081-0.16-0.162-0.563-0.162-1.129v-3.388h-0.726v-0.727h0.726v-1.451l0.969-0.564v2.017
		h1.048v0.727h-1.048v3.388c0,0.321,0.081,0.483,0.081,0.564s0.079,0.16,0.161,0.241c0.08,0,0.161,0,0.321,0
		C298.24,164.329,298.322,164.329,298.562,164.329z"/>
	<path d="M302.596,165.216v-8.065h0.969v2.904c0.482-0.484,1.048-0.808,1.772-0.808c0.403,0,0.808,0.081,1.129,0.242
		c0.323,0.24,0.564,0.402,0.646,0.727c0.161,0.321,0.242,0.726,0.242,1.289v3.711h-0.969v-3.711c0-0.483-0.16-0.806-0.321-1.048
		c-0.242-0.241-0.565-0.322-0.969-0.322c-0.242,0-0.564,0.081-0.808,0.241c-0.241,0.081-0.401,0.323-0.563,0.564
		c-0.081,0.241-0.16,0.646-0.16,1.128v3.146L302.596,165.216L302.596,165.216z"/>
	<path d="M312.596,164.491c-0.322,0.32-0.726,0.563-1.049,0.645c-0.159,0.081-0.321,0.162-0.482,0.162v-0.728
		c0.242-0.079,0.482-0.16,0.645-0.241c0.322-0.16,0.564-0.403,0.646-0.726c0.162-0.162,0.162-0.484,0.162-0.97v-0.321
		c-0.324,0.081-0.809,0.241-1.452,0.321v-0.805c0.645-0.081,1.128-0.162,1.452-0.324c0-0.081,0-0.241,0-0.241
		c0-0.404-0.081-0.645-0.243-0.807c-0.242-0.241-0.646-0.402-1.129-0.402h-0.08v-0.808c0.08,0,0.161,0,0.242,0
		c0.482,0,0.886,0.081,1.21,0.161c0.321,0.161,0.482,0.321,0.644,0.483c0.162,0.162,0.243,0.402,0.323,0.646
		c0,0.162,0.081,0.483,0.081,0.887v1.372c0,0.887,0,1.451,0,1.694c0.081,0.241,0.16,0.481,0.322,0.726h-1.049
		C312.757,164.973,312.677,164.733,312.596,164.491z M311.064,165.297c-0.162,0-0.403,0.081-0.564,0.081
		c-0.646,0-1.13-0.162-1.452-0.485c-0.403-0.322-0.563-0.725-0.563-1.21c0-0.322,0.081-0.563,0.241-0.806
		c0.081-0.243,0.243-0.403,0.482-0.564c0.243-0.162,0.405-0.243,0.728-0.321c0.161,0,0.482-0.081,0.888-0.161h0.242v0.805h-0.162
		c-0.402,0.082-0.646,0.162-0.807,0.243s-0.322,0.161-0.402,0.321c-0.08,0.161-0.161,0.242-0.161,0.483
		c0,0.242,0.081,0.485,0.322,0.646c0.161,0.162,0.482,0.241,0.888,0.241c0.08,0,0.16,0,0.322,0L311.064,165.297L311.064,165.297z
		 M311.064,160.055c-0.403,0.08-0.728,0.161-0.969,0.24c-0.161,0.162-0.322,0.484-0.482,0.888l-0.97-0.161
		c0.081-0.401,0.243-0.727,0.484-0.967c0.16-0.243,0.484-0.484,0.807-0.564c0.322-0.161,0.727-0.161,1.13-0.242V160.055z"/>
	<path d="M315.097,165.216v-5.808h0.888v0.808c0.402-0.646,1.048-0.969,1.772-0.969c0.404,0,0.728,0.081,0.968,0.242
		c0.323,0.08,0.563,0.24,0.727,0.482c0.081,0.162,0.243,0.403,0.243,0.728c0.08,0.159,0.08,0.482,0.08,0.968v3.549h-0.969v-3.549
		c0-0.403-0.081-0.727-0.16-0.887c0-0.243-0.161-0.323-0.404-0.485c-0.16-0.079-0.403-0.16-0.645-0.16
		c-0.403,0-0.808,0.081-1.129,0.402c-0.242,0.243-0.404,0.727-0.404,1.531v3.146L315.097,165.216L315.097,165.216z"/>
	<path d="M325.097,165.216v-0.726c-0.403,0.563-0.888,0.807-1.612,0.888v-0.888l0.08,0.079c0.402,0,0.727-0.241,1.049-0.563
		c0.323-0.323,0.483-0.888,0.483-1.612c0-0.808-0.16-1.372-0.483-1.773c-0.322-0.324-0.646-0.564-1.129-0.564v-0.808
		c0.322,0,0.563,0.081,0.807,0.242c0.322,0.16,0.564,0.321,0.726,0.564v-2.904h0.969v8.065H325.097z M323.484,165.378h-0.081
		c-0.403,0-0.887-0.162-1.21-0.405c-0.403-0.24-0.725-0.645-0.968-1.048c-0.162-0.483-0.322-1.048-0.322-1.612
		c0-0.563,0.16-1.13,0.322-1.612c0.162-0.404,0.483-0.808,0.888-1.05c0.404-0.241,0.807-0.402,1.29-0.402h0.081v0.808l0,0
		c-0.403,0-0.807,0.24-1.13,0.564c-0.241,0.321-0.402,0.886-0.402,1.692c0,0.727,0.161,1.291,0.483,1.693
		c0.321,0.322,0.646,0.484,1.049,0.484V165.378L323.484,165.378z"/>
	<path d="M238.318,239.495h0.563l3.228,7.983h-1.21l-0.888-2.421h-1.693v-0.886h1.371l-0.889-2.179
		c-0.24-0.646-0.401-1.128-0.482-1.532V239.495z M234.608,247.479l3.063-7.983h0.646v0.967l-0.081-0.162
		c-0.08,0.485-0.241,1.05-0.402,1.533l-0.888,2.34h1.371v0.886h-1.693l-0.888,2.421L234.608,247.479L234.608,247.479z"/>
	<path d="M242.835,247.479v-5.808h0.888v0.808c0.402-0.646,1.049-0.97,1.855-0.97c0.321,0,0.645,0.082,0.967,0.243
		c0.322,0.08,0.483,0.241,0.646,0.482c0.161,0.162,0.241,0.403,0.322,0.727c0.079,0.161,0.079,0.483,0.079,0.969v3.549h-0.967
		v-3.549c0-0.403-0.081-0.727-0.162-0.887c-0.081-0.162-0.241-0.324-0.403-0.485c-0.16-0.079-0.402-0.16-0.645-0.16
		c-0.482,0-0.808,0.16-1.129,0.402c-0.323,0.243-0.483,0.727-0.483,1.532v3.146L242.835,247.479L242.835,247.479z"/>
	<path d="M252.916,247.479v-0.888c-0.483,0.726-1.13,1.048-1.854,1.048c-0.323,0-0.646-0.08-0.969-0.241
		c-0.322-0.081-0.564-0.322-0.646-0.483c-0.161-0.161-0.242-0.403-0.322-0.727c-0.081-0.161-0.081-0.482-0.081-0.887v-3.63h0.97
		v3.226c0,0.485,0.078,0.889,0.078,1.051c0.081,0.24,0.242,0.401,0.403,0.562c0.242,0.161,0.484,0.242,0.727,0.242
		c0.322,0,0.563-0.081,0.888-0.242c0.242-0.161,0.403-0.322,0.484-0.562c0.16-0.324,0.16-0.646,0.16-1.13v-3.146h1.049v5.808
		L252.916,247.479L252.916,247.479z"/>
	<path d="M254.933,245.705l0.967-0.082c0.081,0.324,0.162,0.646,0.483,0.888c0.242,0.161,0.564,0.323,1.05,0.323
		c0.402,0,0.726-0.162,0.968-0.323c0.241-0.161,0.322-0.403,0.322-0.645c0-0.243-0.081-0.404-0.322-0.483
		c-0.081-0.162-0.403-0.242-0.968-0.404c-0.727-0.16-1.209-0.321-1.533-0.402c-0.24-0.161-0.483-0.321-0.564-0.564
		c-0.161-0.242-0.24-0.483-0.24-0.807c0-0.242,0.079-0.484,0.159-0.726c0.162-0.243,0.323-0.404,0.484-0.564
		c0.161-0.081,0.403-0.161,0.646-0.242c0.241-0.08,0.563-0.162,0.807-0.162c0.482,0,0.887,0.082,1.21,0.243
		c0.402,0.08,0.646,0.321,0.807,0.482c0.161,0.243,0.242,0.564,0.322,0.888l-0.968,0.161c-0.08-0.322-0.161-0.483-0.403-0.727
		c-0.161-0.16-0.484-0.241-0.887-0.241c-0.404,0-0.728,0.081-0.969,0.241c-0.161,0.161-0.241,0.323-0.241,0.564
		c0,0.081,0,0.243,0.08,0.322c0.082,0.081,0.242,0.162,0.402,0.241c0.081,0.081,0.403,0.161,0.889,0.243
		c0.645,0.242,1.129,0.323,1.451,0.483c0.241,0.08,0.483,0.322,0.646,0.482c0.16,0.243,0.242,0.564,0.242,0.889
		c0,0.321-0.161,0.646-0.322,0.887c-0.162,0.323-0.484,0.563-0.808,0.727c-0.403,0.161-0.807,0.241-1.209,0.241
		c-0.808,0-1.371-0.16-1.773-0.483C255.254,246.833,255.014,246.349,254.933,245.705z"/>
	<line fill="none" stroke="#000000" stroke-width="0.5" x1="141.056" y1="228.203" x2="141.056" y2="258.85"/>
	<line fill="none" stroke="#000000" stroke-width="0.5" x1="135.813" y1="229.089" x2="146.297" y2="257.962"/>
	<line fill="none" stroke="#000000" stroke-width="0.5" x1="131.216" y1="231.751" x2="150.895" y2="255.301"/>
	<line fill="none" stroke="#000000" stroke-width="0.5" x1="127.748" y1="235.865" x2="154.282" y2="251.188"/>
	<line fill="none" stroke="#000000" stroke-width="0.5" x1="125.974" y1="240.866" x2="156.137" y2="246.188"/>
	<line fill="none" stroke="#000000" stroke-width="0.5" x1="125.974" y1="246.188" x2="156.137" y2="240.866"/>
	<line fill="none" stroke="#000000" stroke-width="0.5" x1="127.748" y1="251.188" x2="154.282" y2="235.865"/>
	<line fill="none" stroke="#000000" stroke-width="0.5" x1="131.216" y1="255.301" x2="150.895" y2="231.751"/>
	<line fill="none" stroke="#000000" stroke-width="0.5" x1="135.813" y1="257.962" x2="146.297" y2="229.089"/>
	<path fill="#FFFFFF" stroke="#000000" stroke-width="1.0001" d="M141.056,247.236c2.016,0,3.71-1.692,3.71-3.709
		c0-2.018-1.694-3.711-3.71-3.711c-2.018,0-3.71,1.693-3.71,3.711C137.346,245.542,139.039,247.236,141.056,247.236z"/>
	<line fill="none" stroke="#000000" stroke-width="0.5" x1="228.964" y1="61.339" x2="167.67" y2="61.339"/>
	<line fill="none" stroke="#000000" stroke-width="0.5" x1="229.528" y1="87.47" x2="140.491" y2="87.47"/>
	<polyline fill="none" stroke="#000000" stroke-width="0.5" points="191.461,148.683 231.222,148.683 189.444,203.444 	"/>
	<line fill="none" stroke="#000000" stroke-width="0.216" x1="230.657" y1="244.091" x2="161.459" y2="244.091"/>
	<path stroke="#000000" stroke-width="0.0448" stroke-linecap="round" stroke-linejoin="round" d="M155.895,244.333l9.112,3.468
		c-1.45-2.339-1.531-4.435-0.078-6.774L155.895,244.333z"/>
	<path stroke="#000000" stroke-width="0.0448" stroke-linecap="round" stroke-linejoin="round" d="M184.767,206.267l9.032-3.791
		c-2.58-0.727-4.192-2.097-4.678-4.839L184.767,206.267z"/>
	<path stroke="#000000" stroke-width="0.0448" stroke-linecap="round" stroke-linejoin="round" d="M141.378,202.798l9.113,3.469
		c-1.451-2.259-1.532-4.354,0-6.693L141.378,202.798z"/>
	<path stroke="#000000" stroke-width="0.0448" stroke-linecap="round" stroke-linejoin="round" d="M187.025,148.764l9.113,3.468
		c-1.371-2.258-1.532-4.355,0-6.693L187.025,148.764z"/>
	<path stroke="#000000" stroke-width="0.0448" stroke-linecap="round" stroke-linejoin="round" d="M139.442,87.792l9.113,3.468
		c-1.371-2.339-1.532-4.436,0-6.775L139.442,87.792z"/>
	<path stroke="#000000" stroke-width="0.0448" stroke-linecap="round" stroke-linejoin="round" d="M162.427,60.775l9.113,3.469
		c-1.452-2.259-1.532-4.355,0-6.694L162.427,60.775z"/>
	<path stroke="#000000" stroke-width="0.0448" stroke-linecap="round" stroke-linejoin="round" d="M175.492,182.475l-7.822,5.888
		c2.661,0,4.518,1.049,5.646,3.549L175.492,182.475z"/>
</g>
</svg>
