<?xml version="1.0" encoding="utf-8"?>
<!-- Generator: Adobe Illustrator 15.1.0, SVG Export Plug-In . SVG Version: 6.00 Build 0)  -->
<!DOCTYPE svg PUBLIC "-//W3C//DTD SVG 1.1//EN" "http://www.w3.org/Graphics/SVG/1.1/DTD/svg11.dtd">
<svg version="1.1" id="Layer_1" xmlns="http://www.w3.org/2000/svg" xmlns:xlink="http://www.w3.org/1999/xlink" x="0px" y="0px"
	 width="326.656px" height="260.852px" viewBox="0 0 326.656 260.852" enable-background="new 0 0 326.656 260.852"
	 xml:space="preserve">
<metadata><?xpacket begin="﻿" id="W5M0MpCehiHzreSzNTczkc9d"?>
<x:xmpmeta xmlns:x="adobe:ns:meta/" x:xmptk="Adobe XMP Core 5.0-c060 61.134777, 2010/02/12-17:32:00        ">
   <rdf:RDF xmlns:rdf="http://www.w3.org/1999/02/22-rdf-syntax-ns#">
      <rdf:Description rdf:about=""
            xmlns:xmp="http://ns.adobe.com/xap/1.0/"
            xmlns:xmpGImg="http://ns.adobe.com/xap/1.0/g/img/">
         <xmp:CreatorTool>Adobe Illustrator CS5.1</xmp:CreatorTool>
         <xmp:CreateDate>2015-02-12T18:11:31+02:00</xmp:CreateDate>
         <xmp:ModifyDate>2015-02-12T18:11:31+02:00</xmp:ModifyDate>
         <xmp:MetadataDate>2015-02-12T18:11:31+02:00</xmp:MetadataDate>
         <xmp:Thumbnails>
            <rdf:Alt>
               <rdf:li rdf:parseType="Resource">
                  <xmpGImg:width>256</xmpGImg:width>
                  <xmpGImg:height>208</xmpGImg:height>
                  <xmpGImg:format>JPEG</xmpGImg:format>
                  <xmpGImg:image>/9j/4AAQSkZJRgABAgEAyADIAAD/7QAsUGhvdG9zaG9wIDMuMAA4QklNA+0AAAAAABAAyAAAAAEA&#xA;AQDIAAAAAQAB/+4ADkFkb2JlAGTAAAAAAf/bAIQABgQEBAUEBgUFBgkGBQYJCwgGBggLDAoKCwoK&#xA;DBAMDAwMDAwQDA4PEA8ODBMTFBQTExwbGxscHx8fHx8fHx8fHwEHBwcNDA0YEBAYGhURFRofHx8f&#xA;Hx8fHx8fHx8fHx8fHx8fHx8fHx8fHx8fHx8fHx8fHx8fHx8fHx8fHx8fHx8f/8AAEQgA0AEAAwER&#xA;AAIRAQMRAf/EAaIAAAAHAQEBAQEAAAAAAAAAAAQFAwIGAQAHCAkKCwEAAgIDAQEBAQEAAAAAAAAA&#xA;AQACAwQFBgcICQoLEAACAQMDAgQCBgcDBAIGAnMBAgMRBAAFIRIxQVEGE2EicYEUMpGhBxWxQiPB&#xA;UtHhMxZi8CRygvElQzRTkqKyY3PCNUQnk6OzNhdUZHTD0uIIJoMJChgZhJRFRqS0VtNVKBry4/PE&#xA;1OT0ZXWFlaW1xdXl9WZ2hpamtsbW5vY3R1dnd4eXp7fH1+f3OEhYaHiImKi4yNjo+Ck5SVlpeYmZ&#xA;qbnJ2en5KjpKWmp6ipqqusra6voRAAICAQIDBQUEBQYECAMDbQEAAhEDBCESMUEFURNhIgZxgZEy&#xA;obHwFMHR4SNCFVJicvEzJDRDghaSUyWiY7LCB3PSNeJEgxdUkwgJChgZJjZFGidkdFU38qOzwygp&#xA;0+PzhJSktMTU5PRldYWVpbXF1eX1RlZmdoaWprbG1ub2R1dnd4eXp7fH1+f3OEhYaHiImKi4yNjo&#xA;+DlJWWl5iZmpucnZ6fkqOkpaanqKmqq6ytrq+v/aAAwDAQACEQMRAD8A9U4q7FXYq7FXYq8+8tfv&#xA;vzq87yMd7XTNEgQD+WQ3khr71xV6DirFtE03VIvzC80alcxuthdWulwWEhI4P9XFy0vEV2YNPRvo&#xA;xVlOKuxV2KuxV2KuxV2KuxV2KuxV2Kpfrcxit7dhqcelcru1T1pRGRLynVfqy+oVHK4r6S0+KrfD&#xA;viqYYqwf82NR1CxsPLbWVzLatP5l0a3naF2jLwzXiLJE/EjkjqaMp2I64qzjFXYqlOv+a9D0D6sN&#xA;Umkje8Zlto4oJ7h3KDk1EgSVth3piqPur62tbGW+nYrbQRNPKwVmYRovJjwUFyaDoBXFUG3mTRPr&#xA;trZJdJLcXc8lpGkZ58Z4oDcPHJxr6bCJeVGp28cVRWp6ja6bpt3qN2xS0soZLi4cAsRHEpdyANzR&#xA;VxVZperWOqW31mydni+HdkdPtxrKtOYWvwSKajFVmia5p2t6f9f06QyW3rXFvzZSh9S1ne2lFGAO&#xA;0sTD3xVH4q7FXYq7FXYq7FXYq8d0/wA+6BoX5t+f4JRc6hf3J0lbbTtNt5b24dorRhJ8MKsECFhy&#xA;MhUDxxVli+d/PNwPVtPIGoC3bdDeXunW8p+cSzzcfpNfbFUu0v8ANvQrfXr6x8ypqXl69aWCJ7fV&#xA;Ft3sLeV4wY40vLMzQoZlPOk0tSfs+GKvRwQRUbg9DirsVdirsVcSAKnYDqcVYC/nnzN5muZbb8v7&#xA;K3l0+B2in806mXFiXQ8WWzhipLd8T1cMkfgxxVXTyb+YUnxXX5g3aTU+JLLTdNhhG56LcQ3kn3yH&#xA;FUh0iD8zrzzV5g0ey85s9toJtIjdajptnOJZ7mH6w8ZS1WwoI4mj3D78/bFU4m1/81PL6G41vRbP&#xA;zFpyVM1xoDSQ3iKP2vqF0ziT5RzlvBcVZdoGvaRr+kW2saRcrd6deLzgnWoqASCCrAMrKwIZWFQd&#xA;jirF9T/ODyZaedrDyVb3S32v3kjrPDCy+laJEjSSNcyk8UYKhogqxOxArXFUV55toNc07TreyvbU&#xA;SWur6XqEvqTKo9GyvoriWlK/FwjPEeOKsj/S2lf8tsH/ACNT+uKsB/N7UtOlt/KMKXULB/NOkM7L&#xA;Ip4rDMZqmh6fu6fTirPv0tpX/LbB/wAjU/riqIililQSROskbfZdSCD8iMVYX+YvlbV9ZvtDu9Pt&#xA;2uk06S4a4hj1K60iUiaIIpW5tB6uxG61ocVeVn8p/NvmGbzJPb2MOl3Ml35hgj1Ga7uTLcQ39pNb&#xA;JaPC8XAwGeRJRLyP2SwXkScVZHZ/kTbTatcW+r6Rp0uh3OqyalcywsY5riKbTpIPSlRI4z+4uZGd&#xA;P3hHxltjWqqSj8hfOM9/Hf6jetcX8eh2+n21wl8qpFLHo/1GaB0ks5ZpIpbgvIxWdA3OpXku6qI8&#xA;z/kv+YN/ZWsOn3NhEbe8+uBmKrOkiWtikckU7W87pSSycMIyjEEfHSoxV6t+X+gX2geWxp18UNx9&#xA;e1K5rESy8LzULi6i3IG/pzLX3xVkeKuxVIvJnmy38zaS94sDWV5a3E1lqWnSkNJbXVu/F43IAB2o&#xA;ykdVIOKp7irsVS3zF5k0Ty5pUuq61dpZ2UVFMjVLM7bLHGigs7sdlVQSe2KsMSw87+fD6upyXPlL&#xA;yi9DFpUDelq94h73cyk/VI2/31EfU/mZemKoT8uNA0Xy3+aXnbRdHs49PsPqGiT29rECFPw3aSSb&#xA;1qSVHIk1J3O9cVeoYqxi08nRfp7zVc6iIb3S/Ma2gexkXntDbmCRZAw4lXAFB88VSjyAbny55g1L&#xA;8v7iZ57Gxgj1LyzNKxeT9GyuY3tmdixb6pMvFSxrwZPDFWfYq7FXYqwDz5JceZ/MNn+XtnM8NlPD&#xA;+kPNlxExV104NwitFdaFWvJAVJBBEav44qyXWdJ1oaPb6f5VvLTQ2hKRrJJZ/Wo47dEKiOGFZbdV&#xA;IPHiSSAB9nFXnGjwfmHefmP5k0RfPBF5pdjpkhc6bbNCwuGun4+iGqvAcd/U5Ny32UYqg/Jfk/8A&#xA;5yC8u+bfNV/Je6Jqen6tdi7RLozW4nfiI1aIQrM1vSJERg/qdBSu7Yq9M8t6n54vbqQa9oVpo9os&#xA;f7todQN7K8tRtxFvAqpSu/KvTYYqk/kWJLHzv570u2HGwF7aagkY+ylxfWitcKo7cnjEp93JxVAX&#xA;35GeUh+YWn+e9HiTTdWt5XbUrZUD2t5HNG0UpeKoCS0fkHXbkPiBO+Ksi8zweUrabRLbUrAO+oan&#xA;FBp4gXhS6SKW5UyFGjrGEt3JBqD0ocVTz9E6V/yxQf8AIpP6YqwD809M05tU8g2cVrCGuPM1u8iL&#xA;Gg5RW9pdTNU06BkU074qz/8AROlf8sUH/IpP6YqiIoookEcSLHGv2UUAAfIDFWN+cvN915dudFRN&#xA;PW4s9UvFs7rUJpjBBac6CMyMscxrKx4JUKpagLLUVVYVqf543kmi6fdaHpdu93fQ210y3Vw3pxJL&#xA;q8OlyRt6SFi4aatduO+xpxKqaaz+c9hpWl3l5LYiaewfVorm1iuFZlbRxycVKA/vAVIqooCPHFWv&#xA;Ln5s61q/ng+WJvKV5bQQySW19q6Gae2t7qK3FyY5JRbrb8aME5etXn+zxIYqvSMVdirsVdirAfNO&#xA;la35a8xyed/Ldo+ow3aRw+atCh/vbmKIcYry1B2NzAnwlP8AdibfaC4qyfy35t8t+ZrL65oeoQ30&#xA;IPGRYzSSJx1SaJqSROO6uoIxVKfMv5l+X9Iuv0VZc9c8yyD/AEfQNNpNck9A0xHwW8YP2pJSoA8e&#xA;mKoXy15I1K51WPzX52kivvMSVOnWERLWOlo23C2VvtzMP7ydhyPReK7FVm+KvPYiLX8/rhAeK6p5&#xA;Xjkp2Z7G/dSfnxuhir0LFWPrqOj23n59KSyKavqWmfXZdQAFJYLKcQrET1Jja7qP9bFUo81KLf8A&#xA;M7yNer8LXI1XTXYD7Sy2q3YUn/Wsqj6cVZvirsVdirB/y1iW41PznrMvxXl7rs9q7H9mDTkS1gjH&#xA;sAjP82OKsg8yv5wEECeWYtPad3IuZtSkmVI4wOqRwqWkYnsXX54q8F8mXH5nyfn15vktrjSZNTub&#xA;b0p5JrW6isZhpa2kTJBxnkljZWu15F+ft12VfQOgT69Ppkb69Z29jqfJllgtJ2uYaKxCusjxwN8Q&#xA;3oV2xVMSQBU7AdTirBPyqk/Sn+JPNo3g8xatJJp0nQPY2UUdjbuo/lk+rtIviGrirO8VY/5g07SL&#xA;/wAx+WTd3yw32nXNxqFhYErW5KWklrIeJ3pELsNUdDTxxVkGKvP/ADv+/wDzS/LizO6pLq1+ydv9&#xA;HsfRBI6bNdimKvQMVdiqW6v5a8v6zLaTatp1vfy2EnrWT3EayGKSqtyTkDQ1RT9AxVL1/LnyCovg&#xA;nl7T1Gph11DjbRD1xI6yOJKL8VXRW37iuKub8ufIT3F1ct5f083F7G0N5N9Xj5yxugjZHalWVkFC&#xA;DiqPXyx5dXW211dOt11lxxfUBGomYBeG7gVPwfD8tsVTPFXYq7FXYq7FWN69+W3kDzBdm91ny/YX&#xA;16RRrqWBDMw2FGkADsKClCem2Kpnoflvy9oFr9U0PTLXS7Y0LQ2kMcKkjuwQLU+5xVMcVdirz3zy&#xA;f0f+Z35fawfgguJdR0W4k6Am8thcQKfnJZ7Yq9CxVIdasdDj8xaHrd4Zl1GEz6bp5hR3Rvryq8iy&#xA;8Efiv+ighmKqD3qQMVST82GOn2OieaqH0vK+qw318VqSLKaOSyu2oOojiujIfZcVZwjo6K6MGRgC&#xA;rA1BB3BBGKt4q7FXn95Z+Z/JvmTU9Y0bTZNd8sa3Kt3qWl2zIL20vOCxy3FskhRZo5lRS8fIMGqy&#xA;1qRiqcaF+ZHlfWtQTTLZry31JgxNne2F7ZuvBeTcjPDGmw/yvlir55/KXzRbXf8AzkrehJyFvZ9Z&#xA;SCAMrI/q3NxOZgF2DGC0gUnqwA6rSir6H138y/JOhahJpup6j6eoRBWeziguLiajLyWiQRyM1V8B&#xA;irH9RvvNv5gQHStLsLzyz5XuBx1PWb9Pq1/cQHZ4LK1J9WL1F2M0oUqD8Kk7hV6Bp9hZ6dYW1hYw&#xA;rb2VpEkFtAgoqRxqFRV9gopiqvirH4vMU0/n658upBG1vY6XBfz3VSXSW6nliji8KMluzYqyDFXn&#xA;0g+u/n1APtR6L5adzT9mXUb1VWpHf07Ntjir0HFXYq7FXYq7FXYq7FXYq7FXYq7FXYq7FXYq7FXn&#xA;/wCedtcL5Am1u0Qve+WLu0163Uf8uEyyTf8AJD1MVZ5a3MF1bRXVu4kt50WWGQdGRxyVh8wcVSjz&#xA;td65ZeUdXvdCCNq9pay3FlHIvNXkhUv6dNvtheI9ziqK0y/0zzH5etb+JVudL1e0SZUkAZXguYw3&#xA;FlOxBVqEYqwixt/N35dA2FtZXPmjyRH/ALwLbMJdV02Ptb+nIVN3An+6yreoo+HiwAOKpin51/ld&#xA;Sl1r8GmzD7VtqSyWMynuDFcrE9R32xVa35v+XLshPLdlqfmec9BpdnKYAe3K7uBBarX/AIy4q3/i&#xA;b815FMsXke0jjG4iuNaRJyP9WK1nir/z1+nFU78v+Z7bXPL82o3FjPp7W7TQajp94q+pFLbkrKh4&#xA;lkddqqykhlIOKvBPy90LSNJsvy21yxtotP1Oa+s31m0aFFlKapY3UdvcQzLU/V5RPx41K8hQcJBI&#xA;GVfTGKuxV2KuxVKtJtbc6nquoHSzY300qW0105QtdQ2y1hkBRm+Aeq4UNQ9dsVTXFXnv5ef7kfPv&#xA;5ha8N4v0ha6LAf8AJ0y1UyU/573T/q7Yq9CxV2KuxV2KuxV2KuxV2KuxV2KuxV2KuxV2KuxVQv7K&#xA;2v7G4sbpBJa3UTwTxno0cilWU/MHFWD/AJJ39z/g0+Xb5y+qeUbqbQrstsWW0NLaSnXjJbNGwPfF&#xA;Wf4qgNKjvLf6xazxWtvbRyldKhtCw/0RY0A9RCqhXEhYUSq8ePfFUfirsVdirsVY3+Zeofo78uvN&#xA;F8DRrbSb2RP9dbd+I3B6tTFXzBoXmvSJNWa00m3u9S0zQLzy1eW2pszSrYPFc21veWwmDurWsm4X&#xA;ixFVXirIA6KvsPFXYq7FUDr2qfonQ9Q1T0nn+o20tyII1LPIYkLhFVQWJalAAMVQHkS11m18m6NF&#xA;rdxJdaybWOTUZpSS31iRfUkXfsjMVHsMVTTVNRtdM0y71K7bha2UMlzcP4RxIXc/cuKsP/JTT7u2&#xA;/LjTLy/XjqWtmbWr6vUy6nM11v7hZVX6MVZzirsVSvzD5hstCtbW5u0kkS7vbTToxEFJEt9cJbRM&#xA;3Jl+EPIC3enQHpiqjb+cdAl1LVdOluo7W60eVo7lLiSOPkkdrbXks0YLVMUcd7GHcgcW67UJVUZf&#xA;zE/L+IyCXzNpMZiYJKGvrYFWZigVqvsSyMPmDiqJl84+UYb650+bXNPjv7NBLd2j3UKzQxniA8kZ&#xA;bki/Gu7DuMVRek61o+sWYvdIvrfUbMsyC5tJUniLIaMvOMstQeoriqMxV2KuxV2KuxV2KuxV2Kux&#xA;V5tqJ/wj+cVpqR+DRfPkKadeN0WPV7JC1o7E/wC/7flEAOpUYq9JxVinm7y3qdxrmheZdC4DWNKn&#xA;9C6jkYxpc6ZdELdQsQDuhVJo6/tJT9rFWVggioNRuNvEbHFXYq7FXYqwP88nb/lWGrWyRNcSX8ln&#xA;YJbRlQ8v1y9htzGhYqvJhIepxV53+YV5aS/l9rDpqHqtbWMq6VrbABp1s63P6J1aI8Gju4WjJiLc&#xA;W5VpRi6Oq99gmSeCOaP7Eqh1rsaMKjFV+KuxVK9QvFl1S10q01SK01JeN9PZlVllmso29OQBSQUV&#xA;nZRzHTFWGfml+evk/wAgumnTSDUPMlxxFtpETBSvqbI9xIarCm9d/ip0U4qg/wA5/Nei3/lW38ra&#xA;fq9qbnzVe2+kyyRXETejaSNzvJXo2yC3jdSf8oYqzuHzN5Qghjhh1ewjiiUJGi3MICqooABy7DFV&#xA;/wDizyr/ANXmx/6SYf8AmrFUxtrq2uoEuLaVJ4JN0liYOjAGmzLUHFUj87+ULXzZpEGlXjRi0S+s&#xA;r24imiE8c0dncpO8DxsVUrMsfA1r16HpirAfNH5MWslxb6XoVmllpepa02oXxso4bS2s9NbToLG+&#xA;sjGp/efXfRqOEf2jU041ZVONR/JjSb4XnqzQF7tNcQyNaIzKdbZWVql6n6uEoP5v8nFUnvf+cfra&#xA;6m1dXv7cw6iZ5Le4kguZLiCW7EYnoPra2xRvSp/c8iKAn4alV6B5V8p2/l24157eRDDrWpvqawRx&#xA;CJYS9tBAyChIarW5ctQbt07lVPsVdirsVdirsVdirsVdirsVY95/8ow+bfKt7ozSm2uZAs2n3q/a&#xA;t7uBhJbzKRuOEiitO1RiqE/LPzjN5n8tLLqEYtvMGmyvp3mCy6GG+t/hloNvgk2kSn7LDFWWYqw2&#xA;/wBe0/yRqekaQ2mpY+VNQZ4YdUiJ9K31CeYusM6U/dpO0h4Scqc/hNKjFWZYq7FXYq82/Pa6ih0D&#xA;QYJ/rQt7nXbP13sAzXKR2qS3zSQhPiLxi15jjU7bAnYqvJ9Cv/M/mLUvPay2U09n5jtjLYvewPZW&#xA;2t2tvZR24mtYpwPSu1SNbqMpseRVwo4PGq+gPy5vvr/5feWb2tfrOlWMp6Dd7dGOw274qyHFVK8v&#xA;LSytZru8njtrS3RpZ7iZljjjRRVnd2IVVA3JOKpB5d8rvZ+Ydd8yXl0l7e6zJElrIgosGn26Ugt0&#xA;qW/beSR2GzM3sMVQH5i/lN5R8+Wsf6Vt/R1W1o2n6xAAtzA6nkvxftpy6o23yO+KpVoZPmv83dT1&#xA;okS6T5KhbRtOcD4W1O6CyahIu+xijEcJ+bYq9IxV2KuxVjH5ieYtZ0HQre50aO3k1G71Gw06AXgc&#xA;wg311Hbcn9Mq3w+pXbFXm1t+cP5jz3+qWqWuiloL2HTrOJ5OFxHK2tW+llri2W7luPTeOcycvSTg&#xA;3EfGDUqqd3+cv5kafHMbu10eR3bULS09JLpQLrSdVttNneTlKf3U31kugHxL3Ld1Wte/PTzdoRhs&#xA;b2HT31SDWbnTr1kt5Us57aCS3HOKaa6jMM3p3JPACc1FeIXfFXa1+bP5iLptzcLJpmn2l1Dq8un3&#xA;kdtNNLAND1WOynM6PNwZZIJOVVpx3xVnHkfz5e6z5x13QLzUdMvhp0NvcWL6WhZZYJV4vLJMLm4V&#xA;H9ZWX0WRSooQzg1CrPcVdirsVdirsVdirsVdirsVeZefLS78leZh+ZWkwvNpksaW3njT4VLNJaR7&#xA;RahGq7mW0r8fWsVenGuKvRrG+s7+ygvrKZLmzuo1mt7iMhkeNxyVlI6gg4q3e2VnfWstpewR3VpM&#xA;vGa3mRZI3U9mRgVI+eKpNq/mGLyzbXmq+ZL6NNHa5jS1lit5QLaKRFT/AEmRWlHH1AxMpCqoIriq&#xA;eQTwXEKTwSLLDKoeOVCGVlYVDKw2IOKr8VeZ/mrcovnDyPC93Jp6QS6lqJ1CNPUW3+r2ogWWZaH9&#xA;yGvAshNFCncqPiCqXrPp066naLHztLG5L6/pFizNPp14p5fpXSWUc+HJuckaitSSBz5pIqyH8i50&#xA;l/Kfy8iSrOlrDLZpMhBVls55LcEEdqRYqzvFWIWXmS98x+arzS9Ps4ZvKemrNaazqFyhZbm92U2t&#xA;qKhWWH4hO7AivwDcHFWXgACg2A6DFWKfmZ5wm8seWHnsIxca/qMiad5fstqzX9yeEIof2U3kf/JU&#xA;4qi/IPlGDyl5S0/Q45PXmt0L312alp7qUmS4mYncmSVmO/bbFWQYq7FXYq06I4AdQwBDAEVoQag/&#xA;QcVWm3gLM5jXk5Uu3EVJQ1Uk/wCT2xVabW1PWFDuTuo6sQzHp3IqcVba3t2VlaJCrHkwKggsdqn3&#xA;xVwt7cUpEgpyA+EdHNW/4I9cVbjhhjJMcaoSACVAFQooBt4DFV+KuxV2KuxV2KuxV2KuxV2KtMqs&#xA;pVgGVhRlO4IPY4q8mZrr8n9SJEclx+VuozFmCKzvoU8pqTQV/wBBkY1/4rP/AAyr1eCeC4gjngkW&#xA;WCVQ8UqEMjowqrKw2II3BGKtyRxyxtHIoeNwVdGAKspFCCD1BxVI9N8rW3l6wisPKkNvptm14Lm5&#xA;tZFlli9KRqzpboJFEJPVAvwKf2d8VQd5+ZXlrTdebRda+saNM0ohs7u/haKzuiwBHoXY5QnduPFm&#xA;Vq9sVYR+ZesX1p+ammS2Mkn17StDuJdPteKNBdXN/dxotnMzsqx/WVtGRHqvx8d2NEZVjv5bLr9t&#xA;d+bJ9W0ZPK+lQay1zp1xHKJbzSZpII4qXMIZlNi8UMXKhCAfEP3dJI1WY/l35m07yv5N1j9Putou&#xA;n+YdUtBDaxyzgyXF090kVtFGryOCJ/gAWtOtN8VZfpGoar5m0xLt7TUPLKR3iS28c4gW5uLaIq1J&#xA;omExhWU1VkNHp3WuKsjAA6YqpXl3a2VpNeXcqwWtujSzzyEKiIg5MzE9AAK4q838j2915380f8rG&#xA;1OFotGtUe28kWUoIYQSbT6i6HcPc0pHXpH864q9NxV2KuxV2KpN5p8xpoFnZ3LwG4F5qNjpoUNx4&#xA;m/uo7YSVoa8DLyp3xVL5/wAz/IkNlbXsmqqLa8t4Ly2kEUzc4LuT0oHAVCf3knwgUrXFWrX80fI9&#xA;5Hp72OoPffpSIz2aWlrdXEhiEjRF5I4YneEerGyfvAvxAr12xVAaV+cPlO/06DVGM9pp91aWt3ar&#xA;PBMbuRryWSOOKO1jjkeUkxfD6Rfl22FcVRb/AJt/l2lxYW761Gs2p+l9TQxzb+vNJbpz+CkX7+B4&#xA;29TjxccWoaYqjtW8++U9J1ZNJv70x3z+kDGkM8qo1wxSBZZIkeOJpmXjGrsC52UHFVL8vfN8/m7y&#xA;9+nWsvqNrcXEy6fGxkMj20b8ElkEkcPFn4luK8gBT4iagKslxV2KuxV2KuxV2KuxV2KuxVZPBBcQ&#xA;SQTxrLBKpSWJwGR0YUZWU7EEbEHFXlz6D5q/LKaS68qW0uveRXYyXXlZSXvdPqavJpjMf3sXc27G&#xA;tfsHc4qzvyp5w8uea9LXU9BvUvLUnhIFqskUg6xzRtR43HdWAOKpzirTKrCjAEeB36Yq8fvhDefn&#xA;B5sgUJdyyaZp1jLoNwFEWowqk89zHHI4VVuI0njZAWpSvKgPONVrStVW6nju9Nu5RNa3Emk6Rreo&#xA;pJH6zQvRtG1lWHqV5tSCdhz5df3nJZlU1/Jd7eDUfO+l29hLpcVvrEVwNOn+1bm40+2DxLQsvprJ&#xA;E3p8PhKUK/CRir03FVG9vbOxtJry9njtrS3RpLi4mYJHGiirM7MQFAHUnFXlvG+/N68jZ45bP8rb&#xA;WRJVSRTHNrssbB1JVgGSyVgDvvJ8uir1dESNFjjUIiAKiKKAAbAADFW8VdirsVdiqQ+ZfKv6futL&#xA;a4v5obDTruG/ksIli4zz2sqzW5eRlZ1VJEBopFcVYr5f/JHSdGe0I1nULyPTxaxafFcGErDb2N59&#xA;cggUrGrMqt8JLEmnhtiqa6R+WsGi642raRqt1Zm5kmbUrUJA8VzHLf3OoLGQ0ZZPTkvpUVkIPA+O&#xA;+KpdZfkzp9jZafDaaxeR3Wjx20OkXZWBmhSylneBWXhxkHp3TRNyG677Nviq+P8AJjQVtr6Fr+7k&#xA;k1GG3jvbhzEZJJYNTn1VpzRAOctxdPy2oFoABiqY6z+W9pqeuzaidSurazvpbK41XTIhF6dzLpsg&#xA;ktiZGRpYxVFDhGHIKOm9VU78q+XbXy35estEtZXmt7FCkcstOZBYtvxAH7Xhiqa4q7FXYq7FXYq7&#xA;FXYq7FXYq7FXYqwnzR+VelapqjeYNEu5vLPmwrT9N6cFBmp0W8t2/dXKdNnFfBhiqVp55/MHyqBD&#xA;548vtqdggp/iTy6j3KcR+3c2B/0iLbdjHzXw2xVlnlfz75M81Q+r5e1i11Gg5PFFIPWQf8WQtSVP&#xA;kyjFXk8r32o6z+Ys+lxx6nqS6sjjSXd7eeOOwtLa2i1Cxnhjlk9SCWOVXRFcnYABvgkVQ35ceW/N&#xA;mlz67H5i1Cz16fzRI2pxaZAFOnatazJzufq07iJBcxk/CpRfh+1VCrxKso/Lq7tNP8++a/W1T61p&#xA;8+maVd215efu54ooZb21eG8aTi3qwPH6bcxy2+P46kqptqH50eW5bqTTfKFvcec9ZTY22kKJLaNj&#xA;sDPfNS2iXxPMkeGKoa3/AC68xebbyHU/zMuYZ7SGQTWXk2xJOmxMpqjXbsA15Iv+UBGDWikHFXpK&#xA;qqqFUBVUUVRsAB2GKt4q7FXYq7FXYqwj8yNd13SL3y22m3FwltcagsOo2dna/WbieFyqDg7RTRos&#xA;bOGkB4sU5FWBWhVeaaVrH5hWWiwWUljcwXOn6mj6VaraGSI2Lw3bfWfVKcjK09UdDQIvDY8uRVZn&#xA;5N138x1sPMD680+pTRaJp+raYsNkltMLq6t52uLOJT8EjxywLxD7gtRsVYVo3nb879Y0SRlmuNOu&#xA;IY9auYriXTRLJMlpb2FzYRNzgtV5SNcyx8liHOjcRUBgqm+leZfOGufmJ5eTW4r22+oavJKdMGmy&#xA;LZx20miXSQXS3vE7ySzMjI79dgF4Hkq9txV2KuxV2KuxV2KuxV2KuxV2KuxV2KuxV2KuxVi/mb8s&#xA;PIPmacXOs6JbzXynkt/GGt7sEdCLmAxzbf62KvK7zSh+XXmGPQNSup4fLOqXct/5U821Mt3pmoSC&#xA;s9tdyPX1oZAtT6leSV5V4llVSPU9cs9V/NrTLFdA1Kae1t9Ti8xSaWri3trgywv+k9McgS19S1Ej&#xA;KOrH4Q7s3qKpl550zysde0HzZ5osLLV2tWQajfGNXstX0iZRGNQWP4o/rNkSjzR0/u+RFUC8VXrn&#xA;nFPM2j+SblPy70yxk1SFP9BsXpBAqUNTEiAIzj9lSVU+PYqsE/5x61v8xNR8n6nc69CLvW/0vcpq&#xA;P6RuJbeeKVI4h6XoC3kWNVTjRRQe2KvUPrPmr/q3WP8A0nTf9kmKu+s+av8Aq3WP/SdN/wBkmKu+&#xA;s+av+rdY/wDSdN/2SYq76z5q/wCrdY/9J03/AGSYq76z5q/6t1j/ANJ03/ZJiqKsZdWcv9ftreAC&#xA;npmCd5yT3rzhgp+OKofV/M2haPKItTvFtXa2ub0eoG4/V7NVa4fkBx/dq4JFa0xVK5fzM8jwtdpP&#xA;qYgksoo5545oZ43Mc0ghjMSuitLylYR0jDfF8PXbFUGPzd8ilmlGpx/o+KMvPeESD03F1FZ+myFO&#xA;QPrTqpr0PXFUZb/mX5IuIdMnh1NWg1ib6rp83pTBHn9UwCJmKUjcygoFk4knFUb5L8yf4m8r6frv&#xA;1f6p9ejMn1fn6nCjlac+KV+z/LiqdYq7FXYq7FXYq7FXYq7FXYq7FXYq7FXYq7FXYq7FUi87+UrT&#xA;zb5ZvNCuZ5LUXIVobyEIZYJYnEkcsZcNRlZRuKHwIO+KvJNNlvtGNx5b8zXD2195XX67Za1ax/vb&#xA;W3IKpqNtCoPqWEtPTurcVELVFPSK+kqkHlTUT5s82edrDUfLcjaHqcVvf3ccMLwmURr9Vk1LTEmS&#xA;OclpecnDg3NWO/P4JVXqn5La56ug3HlifUItTu/LLpaQajEwdbvTnXlYXNQWFWiHpv8AEaOjVxV6&#xA;EEVSxUAFjViB1NAKn6BireKuxV2KuxV2KuxVjnnbyJo3m+30+DU2kRdPululMJCmROLRy28lQaxT&#xA;xuUkXuPemKsI178h7D65ruu6Te3r6zqbieBPXigeKcXkN4siXTQzSExPAfTWTkoU8aD7WKojyr+T&#xA;csS/pLX7+V9ZnvDezLG8cijjq8OqxK7iGEM/K1RX4oq7txHQ4qr63+RHlvVtZstUmv7yN7G9l1CO&#xA;BfRaL1Zb4X/wq8b+n+8qpaPizJ8JamKs28q+XbXy35estEtZXmt7FCkcstOZBYtvxAH7Xhiqa4q7&#xA;FXYq7FXYq7FXYq7FXYq7FXYq7FXYq7FXYq7FXYqxXz/5Qudcs7bUNHmWy81aK7XOhX7D4RIwpJbz&#xA;U3aC4UcJF+R6qMVedQ+ZdOn8sy6rFa3mnny/My32m2sYn1Ly3fqD6gSP4RPpsoBqv2QnT4NoVWGf&#xA;l1e+YfLF+nm/W7GXRLm1uriLzPpc7MRNpGrXrzR6jAr1Kx2d1MFfgWXhVvhZm5qvqIEEVG4PQ4q7&#xA;FXYq7FXYq7FXYq83/OPzD590o6LB5Wng0+G7a6+u6pcwS3EaSRRqbaBhFBdFRMzMa8N+HEMCwxVh&#xA;Wr+evzEvL3WNPiuherGdVs7/AEeLTZlijto9NeWO6jvSF5cblRFxryPICnLfFVSWz886r5wtLOHW&#xA;r2HULTX5JrW5uLJZ4bC1uNAnaN4wURHjkdmh+JzRh/MTyVQ9r52/N7W5kg1L6vp1lPo8LXGlT2ly&#xA;k136+mvJczRMsEgR0uW4BTKoXhQj4hiq6y87+cvLkN0i210LKVb+2tTDZSXB+vRaJpcmnhgqOwBk&#xA;+sLWnGo+LpiqY2nmH84tUAaDWF09Lm6u7JFfTUkaIQact5FMGYgHnMGjaq0oaD4t8VeueWL+81Hy&#xA;1pOoXqeneXlnbz3MYUqFlliV3XidxRidsVTLFXYq7FXYq7FXYq7FXYq7FXYq7FXYq7FXYq7FXYq8&#xA;0/Mvy1rmlamv5ieToy+t2UYj1zS0BI1OwTcqUH2poRulPiI+Eb8Riryj80vPvkObyxoKWOpIunXt&#xA;7C40yKkt9pkE6lbpUiUj1LCeGTaJiFrRVqpCxKvY/wAndV1VdEuPKOvtXzB5UdLKeSpP1izZeVjd&#xA;KTuVkhHEk78latDtirP8VdirsVdirsVdirsVUbWys7T1vq0KQ+vI083AAc5X+07U6sadcVVsVdir&#xA;sVdirsVdirsVdirsVdirsVdirsVdirsVdirsVdirsVdirsVdirxvzLoA/L/zUPMGnGOz8t6vOBPN&#xA;IP8AR9PvppAwW4oNrG7lpU/7omPNaBmBVYPqv5iaZ5Q/PPQ5LKaSHTm0/wDR+v6NJRv0dA07Hisi&#xA;ijQwOfWTchYuXGiEBVU/1/8AMT81l/PTy/5e1fSZ9G8oS3U31NbOSNm1FobeVouV27Rx0aQKTBVd&#xA;tm5GmKvaP0zqP/Vhvv8Ag7H/ALKcVd+mdR/6sN9/wdj/ANlOKu/TOo/9WG+/4Ox/7KcVd+mdR/6s&#xA;N9/wdj/2U4qmNtLJNAkkkL27t1hlKF137mNpE+5sVY7+YvnP/B3ls6z9Xiuf9KtbXjcTm1hT61Ok&#xA;HqSzCOcqkfPk1EOwxVA+VPzW8u635Xt9cuSdPMlqt7NbEPPwgkuZLWKQSInxrJJCeOwan2lGKqN1&#xA;+c3ka3uJDJfCPTrWO+e8vpYrqMB9OlhhmjhBg4TFZJwrcXryoFDV2VS/zH+fPk3T/Kd5remPLqN1&#xA;BbXE6WP1a6Rke3kMJS7IiY2tZh6YMoFT0rirIvNP5meS/Kt6llrl89tcNEk5CW1zOqxSSGJHd4Y5&#xA;FUNKvAVP2iB3GKoe1/NvyDc6bcaimpMlvaWtzfXayW1ykkMFnL6FwZImj5q0cnwlKcvAUxVVl/M/&#xA;yihu1WW6me0vjpQSGyupGnvU5+pDbBYz67R+i/qenUIFq1BQ4qkh/PLydYfWj5gnbTAmoz2VorRX&#xA;DyNDBHA7XE8Yj5wKv1lQ/qAce/eir0bFXYq7FXYq7FXYq7FXYq7FXYq7FXYq7FXYq7FXYqh9R0+x&#xA;1KwuNPv4EubK7jaG5t5ByR43HFlYeBBxV4Rb+UtD8o603kXUbS0tBq0dzB5T8xPCkceo2t1tcaPq&#xA;jooZptwEl+0/wsPjqrqs8/KHV7jUdAm8s+YYS3mHyfcJY3cd0FeVo0HOxu+4Jkhp8YO7KxBpir0P&#xA;FXYq7FXYq7FUm82+V7bzLpSafPd3FiYbq2vYLu0MQmjns5lnhZfWjnjNJIxUMhrirDoPyF8rW1ra&#xA;W1pqmrW0cEL2936c8P8ApiveG+rcgwlSwnJIMYTYlem2KozU/wAlfKOpabBp13Ldvb2w1L0qvCSH&#xA;1W/j1GRyDEVJiuIEMQI402cPiqD1H8hvLN9aNbnVNRtDPYzaZfyWP1Gz+tWsspmVJore1jg/dO54&#xA;FI1O5DcqnFWS+YfIui+YLi+e7nnSS8t7S1nWF4xxSzumvIiAyPRmdqNX9npTrirHdc/Ivyxq8t9I&#xA;2p6pZnUxqCagLWaFBNFqcizSxNzhf4EkjDJTfsxYbYqjZ/yk02XW7rXV1rU4dYnvI7+C8iNmn1aS&#xA;OGW3pFF9W9Fw0Fw0TtMjuVC/F8IxVDXf5IeV7rUP0lNd3UmovPPPcXU0Wn3Pqm5EIkRori0mhArb&#xA;qwKIrAlqGhpir0PFXYq7FXYq7FXYq7FXYq7FXYq7FXYq7FXYq7FXYq7FWP8AnvyTo/nPy3c6Hqi0&#xA;SX47a5UAyW86/wB3NHXup7dGFVOxOKvDNM86eYPKHnXTpvNtfr2kFNB8yX4LMsum3T1sbuVmqWSK&#xA;b4o5jvwaWOQ+ooaVV9J4q7FXYq7FXYqxT80L3W7LyZe3OiXNxa6jGY2ia0tZLyZ1VwzwoscN0YzK&#xA;gKCUxMErUjFWCHzT+ZV9cz6CtrrdrPc3TyQ3z2MSCPTZvLryQxvdRxegs41RRyI3D/DULRcVUNI8&#xA;3/mNA2l6YkGt3MV43l57e7utMoY7d7v0tZjunFvGI2jT4TzHIJR1NPjxVCwah+d0Wo+WY7nVbwJd&#xA;29tdXUs+mn03upbopPZ3EdpYzmJUtlU1ZofiZpOVF4qqm3mu7/MTSvPuv3ej2t2mjXVmfRurO0+t&#xA;yS6jFp8n1VHVo5KQBwaugP7zgrUUmqqETVvzWsrv6prWoaq2hzSWM95rVppiNe24uLCV5LeGKK3m&#xA;Vo1vI0Vm9FmQNxY78sVSs6p+bVrYazfX17rUGtXOlaVeWdrFpzzwuUdluoYxDaXaWt1IoAIIPEuW&#xA;ZSFqir3bSppJ9Ls5pFmSSWCN3S6VUnBZASJVQBFk/mCilemKorFXYq7FXYq7FXYq7FXYq7FXYq7F&#xA;XYq7FXYq7FXYq7FXYqwT81vy+/xNpf17Too31+yhliiikPGK+tJR+/0+4P8AvuYfZbrHJxdaUNVU&#xA;s/5x/wDPf+JfJsml3bSjWvLEx0u/iuhxueEVRbvMvaQxrwk/4sV8VenYq7FXYq7FXYq7FXYq7FXY&#xA;q7FXYq7FXYq7FXYq7FXYq7FXYq7FXYq7FXYq7FXYq7FXYq7FXYq7FXYq8+1ryr/h3z9H5/0dCtvq&#xA;CLY+b7RPsyQdIb8D+e2anqH/AH1yPUbqvQcVdirsVdirsVdirsVdirsVdirsVdirsVdirsVdirsV&#xA;dirsVdirsVdirsVdirsVaZ0QVZgoJAqTTdjQD6ScVbxV2KuxV2KuxV2KuxV2KuxV2KuxV2KuxV2K&#xA;uxV2KuxV2KuxV2KuxV2KuxV2KuxV2KuxV2KuxV2KoHWL76naFylxweqNcWsYmeHkDSX06OzAHwRv&#xA;cca4qwO48yxyX1p9ZnhZ76bT4XnhdTbTtb3yTQXNuQT8M0Prc6k8Gj41NAzKozRvNSySrcpOyxXt&#xA;zJd3ARGmnuXZRHDZ28ADN+4h9L6w6iiMCDQ8yirPIXZ4kdo2iZlDNE/EspIrxbiWWo9iRiq7FXYq&#xA;7FXYq7FXYq7FXYq7FXYq7FXYq7FXYq7FXYq7FXYq7FXYq7FXYq7FXYq7FXYq7FXYqx/zVEVRbtlW&#xA;O3gWs1zLqdzpka/FRQxtw3OrH9rFXk9wunw+doL3XtDl8xadcxNbRWTW0LtFd3LqYpWiuPRMpmWJ&#xA;lEk6rIBTbgQcVRXkJXtraaRl+qWt3cyC0gluXsUhilkM9payaharNIxSGeP00lKq3IenzU7qvXLK&#xA;SDStHaXUCthDbB3uJbi6adEUEku1zOQxXvV6UGKpZ5H/ADB8v+dre/vfL7SXGmWFybMagyhIp5VR&#xA;Xf0QTzKqHX4mUAnpWmKslxV2KuxV2KuxV2KuxVIfPnmiLyt5O1fzBJ6fKwt3kgWU8Y2nb4IEdiVo&#xA;HlZVJr3xVhOnfnpZr5Q0vVbzTp9WvprbUJ9T/QQintoho88dvfTI0sykxVmWSKhYsh+9Vkt1+Z2h&#xA;wWr3CWl7dcbi8tUht4kklkksbVrtwicwTzjSidy1KgdcVTvyvr0XmDy/Y61DC1vDfxCaKJ3hlIRv&#xA;snnbvNEQw+IUbp1oagKppirsVdirsVdirsVdirsVdirsVdirsVdirsVdirsVQ97Zx3MakpEbiEmS&#xA;0lmjEoim4lVkC1U1HI9CDTauKsWn8q3EN1HJGrXAt5LNxcMQZp55r+Ka+nloabR28XDYBVBVQFAG&#xA;KozTPK729y7bRJDLLbgFVdLrTpaypBJHsFEDzNHH3AXwc1VRvmLyf5b8xeXpfL2r2EVxo8qLGLWn&#xA;BUCfYMfGnApT4SvTFWIfll+Sug+SNP1LSWjt9X02a8a702W7gje6ijkRVaGRytGClKqQB1O2Ksy/&#xA;wn5V/wCrNY/9I0P/ADTirv8ACflX/qzWP/SND/zTirv8J+Vf+rNY/wDSND/zTirv8J+Vf+rNY/8A&#xA;SND/AM04q7/CflX/AKs1j/0jQ/8ANOKu/wAJ+Vf+rNY/9I0P/NOKpjbWttawJb20SQQR7JFEoRFB&#xA;NdlWgGKofU9H07VI7eO/i9aO1uIbyFeTqBPbuJInIUry4OAwDVFQD2xVK5PIXlOS81C8exrcapHd&#xA;w3zCWYB0v0t47oBQ/FPUWyhqVANVqN2aqqBH5UeRV1ifWIrGWDUbnmXngvLyEq8sH1aSSMRzII5H&#xA;hopdKNsDWoriqe+XfL2k+XdHg0fSYWgsLYuY43kklblLI0sjNJKzuxaR2YknviqY4q7FXYq7FX//&#xA;2Q==</xmpGImg:image>
               </rdf:li>
            </rdf:Alt>
         </xmp:Thumbnails>
      </rdf:Description>
      <rdf:Description rdf:about=""
            xmlns:xmpTPg="http://ns.adobe.com/xap/1.0/t/pg/"
            xmlns:stDim="http://ns.adobe.com/xap/1.0/sType/Dimensions#"
            xmlns:xmpG="http://ns.adobe.com/xap/1.0/g/">
         <xmpTPg:NPages>1</xmpTPg:NPages>
         <xmpTPg:HasVisibleTransparency>False</xmpTPg:HasVisibleTransparency>
         <xmpTPg:HasVisibleOverprint>False</xmpTPg:HasVisibleOverprint>
         <xmpTPg:MaxPageSize rdf:parseType="Resource">
            <stDim:w>326.656250</stDim:w>
            <stDim:h>260.851562</stDim:h>
            <stDim:unit>Pixels</stDim:unit>
         </xmpTPg:MaxPageSize>
         <xmpTPg:PlateNames>
            <rdf:Seq>
               <rdf:li>Cyan</rdf:li>
               <rdf:li>Magenta</rdf:li>
               <rdf:li>Yellow</rdf:li>
               <rdf:li>Black</rdf:li>
            </rdf:Seq>
         </xmpTPg:PlateNames>
         <xmpTPg:SwatchGroups>
            <rdf:Seq>
               <rdf:li rdf:parseType="Resource">
                  <xmpG:groupName>Default Swatch Group</xmpG:groupName>
                  <xmpG:groupType>0</xmpG:groupType>
               </rdf:li>
            </rdf:Seq>
         </xmpTPg:SwatchGroups>
      </rdf:Description>
      <rdf:Description rdf:about=""
            xmlns:dc="http://purl.org/dc/elements/1.1/">
         <dc:format>image/svg+xml</dc:format>
      </rdf:Description>
      <rdf:Description rdf:about=""
            xmlns:xmpMM="http://ns.adobe.com/xap/1.0/mm/"
            xmlns:stRef="http://ns.adobe.com/xap/1.0/sType/ResourceRef#"
            xmlns:stEvt="http://ns.adobe.com/xap/1.0/sType/ResourceEvent#">
         <xmpMM:RenditionClass>proof:pdf</xmpMM:RenditionClass>
         <xmpMM:DocumentID>xmp.did:4E677B474620681188C69098C6AB8D67</xmpMM:DocumentID>
         <xmpMM:InstanceID>xmp.iid:4E677B474620681188C69098C6AB8D67</xmpMM:InstanceID>
         <xmpMM:OriginalDocumentID>uuid:ff597ab8-4dc8-4d6e-bada-d1087bc04ae2</xmpMM:OriginalDocumentID>
         <xmpMM:DerivedFrom rdf:parseType="Resource">
            <stRef:instanceID>uuid:ffb0bab1-8e8c-b849-a932-0a273b8f7e0e</stRef:instanceID>
            <stRef:documentID>uuid:ff597ab8-4dc8-4d6e-bada-d1087bc04ae2</stRef:documentID>
            <stRef:originalDocumentID>uuid:ff597ab8-4dc8-4d6e-bada-d1087bc04ae2</stRef:originalDocumentID>
            <stRef:renditionClass>proof:pdf</stRef:renditionClass>
         </xmpMM:DerivedFrom>
         <xmpMM:History>
            <rdf:Seq>
               <rdf:li rdf:parseType="Resource">
                  <stEvt:action>saved</stEvt:action>
                  <stEvt:instanceID>xmp.iid:4E677B474620681188C69098C6AB8D67</stEvt:instanceID>
                  <stEvt:when>2015-02-12T18:11:31+02:00</stEvt:when>
                  <stEvt:softwareAgent>Adobe Illustrator CS5.1</stEvt:softwareAgent>
                  <stEvt:changed>/</stEvt:changed>
               </rdf:li>
            </rdf:Seq>
         </xmpMM:History>
      </rdf:Description>
   </rdf:RDF>
</x:xmpmeta>
                                                                                                    
                                                                                                    
                                                                                                    
                                                                                                    
                                                                                                    
                                                                                                    
                                                                                                    
                                                                                                    
                                                                                                    
                                                                                                    
                                                                                                    
                                                                                                    
                                                                                                    
                                                                                                    
                                                                                                    
                                                                                                    
                                                                                                    
                                                                                                    
                                                                                                    
                                                                                                    
                           
<?xpacket end="w"?>
	</metadata>
<g>
	
		<polyline fill="none" stroke="#000000" stroke-width="1.5024" stroke-miterlimit="10" stroke-dasharray="7.5118,4.5071,1.5024,4.5071" points="
		75.138,0.392 74.61,6.817 74.458,11.58 74.382,16.267 74.458,20.954 74.61,25.641 74.987,30.253 75.517,34.79 76.199,39.25 
		76.955,43.634 77.861,47.944 78.996,52.253 80.204,56.336 81.565,60.418 83.076,64.35 84.74,68.204 86.556,71.909 88.446,75.463 
		90.488,78.94 92.754,82.267 95.097,85.442 97.592,88.541 100.238,91.414 102.958,94.211 105.908,96.857 109.007,99.353 
		112.334,101.771 115.737,103.964 119.365,106.005 123.221,107.971 127.228,109.71 131.461,111.222 134.864,112.281 
		138.189,112.733 142.272,112.961 146.128,112.961 149.756,112.583 153.159,112.054 156.333,111.222 159.357,110.163 
		162.306,108.878 165.105,107.366 167.751,105.627 170.32,103.662 172.892,101.393 175.309,98.899 177.728,96.102 179.921,93.002 
		182.115,89.675 184.307,86.047 186.273,82.115 188.238,77.882 190.051,73.346 191.715,68.659 193.228,63.593 194.587,58.377 
		195.875,52.858 196.931,47.188 197.915,41.215 198.67,35.092 199.275,28.817 199.728,22.315 200.032,15.662 200.181,8.858 
		200.106,0.392 	"/>
	<path fill="none" stroke="#000000" stroke-width="2.0001" stroke-miterlimit="10" d="M55.105,0.089
		c-5.143,57.606,16.856,116.35,75.675,132.979c60.783,10.058,90.948-50.878,89.285-131.618"/>
	<path fill="none" stroke="#000000" stroke-width="1.5024" stroke-miterlimit="10" d="M134.032,59.889
		c-0.907-3.932-6.274-4.764-15.802-1.663c-6.047,1.966-12.021,2.419-17.992,0c-8.164-3.326-12.398-9.902-12.7-19.202
		c-0.453-11.944-4.762-18.295-11.417-20.941C63.798,13.243,49.36,20.048,32.273,34.94c-11.114,9.753-22.302,9.753-31.602-8.997"/>
	<g>
		
			<line fill="none" stroke="#000000" stroke-width="0.5" stroke-miterlimit="10" x1="140.029" y1="232.124" x2="140.029" y2="260.851"/>
		
			<line fill="none" stroke="#000000" stroke-width="0.5" stroke-miterlimit="10" x1="144.943" y1="232.956" x2="135.115" y2="259.944"/>
		
			<line fill="none" stroke="#000000" stroke-width="0.5" stroke-miterlimit="10" x1="149.328" y1="235.45" x2="130.806" y2="257.451"/>
		
			<line fill="none" stroke="#000000" stroke-width="0.5" stroke-miterlimit="10" x1="152.503" y1="239.305" x2="127.63" y2="253.67"/>
		
			<line fill="none" stroke="#000000" stroke-width="0.5" stroke-miterlimit="10" x1="154.242" y1="243.992" x2="125.892" y2="248.983"/>
		
			<line fill="none" stroke="#000000" stroke-width="0.5" stroke-miterlimit="10" x1="154.242" y1="248.983" x2="125.892" y2="243.992"/>
		
			<line fill="none" stroke="#000000" stroke-width="0.5" stroke-miterlimit="10" x1="152.503" y1="253.67" x2="127.63" y2="239.305"/>
		
			<line fill="none" stroke="#000000" stroke-width="0.5" stroke-miterlimit="10" x1="149.328" y1="257.451" x2="130.806" y2="235.45"/>
		
			<line fill="none" stroke="#000000" stroke-width="0.5" stroke-miterlimit="10" x1="144.943" y1="259.944" x2="135.115" y2="232.956"/>
		<path fill="#FFFFFF" stroke="#000000" stroke-width="1.0001" stroke-miterlimit="10" d="M140.029,249.967
			c1.967,0,3.478-1.588,3.478-3.479s-1.511-3.479-3.478-3.479c-1.891,0-3.402,1.587-3.402,3.479
			C136.626,248.379,138.138,249.967,140.029,249.967z"/>
	</g>
	<path stroke="#000000" stroke-width="0.0448" stroke-linecap="round" stroke-linejoin="round" stroke-miterlimit="10" d="
		M158.841,253.499l7.115,4.902c-1.123-3.193-1.248-6.156-0.062-9.466L158.841,253.499z"/>
	<path stroke="#000000" stroke-width="0.0448" stroke-linecap="round" stroke-linejoin="round" stroke-miterlimit="10" d="
		M139.227,144.836l12.885,4.904c-2.053-3.308-2.165-6.271,0-9.578L139.227,144.836z"/>
	
		<line fill="none" stroke="#000000" stroke-width="0.5" stroke-miterlimit="10" x1="165.207" y1="253.612" x2="234.481" y2="253.612"/>
	
		<line fill="none" stroke="#000000" stroke-width="0.5" stroke-miterlimit="10" x1="189.662" y1="20.286" x2="234.539" y2="20.286"/>
	
		<line fill="none" stroke="#000000" stroke-width="0.5" stroke-miterlimit="10" x1="200.875" y1="80.602" x2="234.539" y2="80.602"/>
	
		<line fill="none" stroke="#000000" stroke-width="0.5" stroke-miterlimit="10" x1="173.25" y1="136.929" x2="237.706" y2="136.929"/>
	<g>
		<g>
			<g>
				<g>
					<defs>
						<polygon id="SVGID_2_" points="133.503,134.279 145.75,26.096 156.484,131.937 198.67,217.139 						"/>
					</defs>
					<clipPath id="SVGID_3_">
						<use xlink:href="#SVGID_2_"  overflow="visible"/>
					</clipPath>
					<g clip-path="url(#SVGID_3_)">
						<path fill="#FFFFFF" d="M134.18,26.077c21.393,21.675,42.892,43.246,64.493,64.711c0,1.427,0,2.854,0,4.279
							c-21.992-21.576-43.214-43.93-65.248-65.467C133.764,28.515,132.656,25.975,134.18,26.077z"/>
						<path d="M134.18,26.077c0.501,0,1.004,0,1.505,0c20.893,21.172,41.889,42.236,62.988,63.199c0,0.504,0,1.008,0,1.512
							C177.072,69.323,155.573,47.752,134.18,26.077z"/>
						<path fill="#FFFFFF" d="M135.685,26.077c1.423,0,2.844,0,4.268,0c19.47,19.745,39.042,39.384,58.723,58.92
							c0,1.427,0,2.854,0,4.279C177.574,68.314,156.578,47.249,135.685,26.077z"/>
						<path d="M139.953,26.077c0.5,0,1.004,0,1.504,0c18.969,19.24,38.041,38.378,57.219,57.407c0,0.505,0,1.008,0,1.513
							C178.995,65.461,159.422,45.823,139.953,26.077z"/>
						<path fill="#FFFFFF" d="M141.457,26.077c1.424,0,2.847,0,4.27,0c17.545,17.812,35.194,35.523,52.949,53.128
							c0,1.427,0,2.854,0,4.279C179.498,64.455,160.425,45.318,141.457,26.077z"/>
						<path d="M145.724,26.077c0.501,0,1.004,0,1.505,0c17.044,17.312,34.19,34.517,51.444,51.616c0,0.505,0,1.009,0,1.512
							C180.92,61.602,163.269,43.891,145.724,26.077z"/>
						<path fill="#FFFFFF" d="M147.229,26.077c1.423,0,2.845,0,4.267,0c15.621,15.884,31.351,31.663,47.18,47.337
							c0,1.427,0,2.854,0,4.279C181.421,60.594,164.273,43.388,147.229,26.077z"/>
						<path d="M151.496,26.077c0.502,0,1.004,0,1.506,0c15.119,15.38,30.346,30.654,45.674,45.825c0,0.504,0,1.009,0,1.512
							C182.844,57.74,167.117,41.961,151.496,26.077z"/>
						<path fill="#FFFFFF" d="M153.001,26.077c1.422,0,2.846,0,4.269,0c13.694,13.953,27.5,27.802,41.405,41.546
							c0,1.427,0,2.854,0,4.279C183.345,56.732,168.121,41.457,153.001,26.077z"/>
						<path d="M157.268,26.077c0.417,0,0.837,0,1.255,0c13.276,13.532,26.662,26.963,40.15,40.287c0,0.42,0,0.839,0,1.259
							C184.768,53.879,170.964,40.031,157.268,26.077z"/>
						<path fill="#FFFFFF" d="M158.523,26.077c1.506,0,3.011,0,4.518,0c11.771,12.022,23.652,23.94,35.635,35.755
							c0,1.511,0,3.021,0,4.532C185.185,53.04,171.801,39.61,158.523,26.077z"/>
						<path d="M163.041,26.077c0.417,0,0.836,0,1.254,0c11.355,11.604,22.815,23.103,34.381,34.495c0,0.42,0,0.84,0,1.26
							C186.693,50.019,174.812,38.101,163.041,26.077z"/>
						<path fill="#FFFFFF" d="M164.294,26.077c1.421,0,2.846,0,4.268,0c9.934,10.177,19.973,20.248,30.113,30.215
							c0,1.427,0,2.854,0,4.28C187.11,49.179,175.65,37.681,164.294,26.077z"/>
						<path d="M168.56,26.077c0.502,0,1.004,0,1.506,0c9.432,9.673,18.968,19.24,28.607,28.704c0,0.504,0,1.007,0,1.511
							C188.533,46.325,178.494,36.254,168.56,26.077z"/>
						<path fill="#FFFFFF" d="M170.066,26.077c1.422,0,2.844,0,4.266,0c8.01,8.246,16.125,16.388,24.344,24.424
							c0,1.427,0,2.854,0,4.28C189.034,45.318,179.498,35.75,170.066,26.077z"/>
						<path d="M174.332,26.077c0.503,0,1.004,0,1.506,0c7.51,7.741,15.12,15.38,22.838,22.913c0,0.503,0,1.007,0,1.511
							C190.457,42.465,182.341,34.323,174.332,26.077z"/>
						<path fill="#FFFFFF" d="M175.837,26.077c1.338,0,2.68,0,4.018,0c6.133,6.354,12.307,12.664,18.82,18.633
							c0,1.428,0,2.854,0,4.28C190.958,41.457,183.345,33.819,175.837,26.077z"/>
						<path d="M179.853,26.077c0.502,0,1.004,0,1.506,0c5.646,5.831,11.273,11.684,17.314,17.122c0,0.503,0,1.007,0,1.511
							C192.16,38.741,185.986,32.43,179.853,26.077z"/>
						<path fill="#FFFFFF" d="M181.359,26.077c1.422,0,2.845,0,4.266,0c4.285,4.346,8.352,8.914,13.051,12.842
							c0,1.428,0,2.854,0,4.28C192.634,37.76,187.007,31.908,181.359,26.077z"/>
						<path d="M185.625,26.077c0.503,0,1.004,0,1.507,0c3.743,3.966,7.593,7.825,11.544,11.583c0,0.419,0,0.839,0,1.259
							C193.974,34.991,189.91,30.423,185.625,26.077z"/>
						<path fill="#FFFFFF" d="M187.131,26.077c1.423,0,2.847,0,4.268,0c2.319,2.539,4.747,4.973,7.276,7.303c0,1.428,0,2.854,0,4.28
							C194.722,33.903,190.875,30.043,187.131,26.077z"/>
						<path d="M191.397,26.077c0.503,0,1.004,0,1.507,0c1.818,2.034,3.742,3.966,5.771,5.791c0,0.504,0,1.007,0,1.512
							C196.144,31.05,193.718,28.616,191.397,26.077z"/>
						<path fill="#FFFFFF" d="M192.904,26.077c1.421,0,2.844,0,4.266,0c0.396,0.609,0.898,1.112,1.506,1.511c0,1.428,0,2.854,0,4.28
							C196.646,30.043,194.722,28.112,192.904,26.077z"/>
						<path d="M197.169,26.077c0.502,0,1.003,0,1.506,0c0,0.504,0,1.007,0,1.511C198.068,27.19,197.565,26.688,197.169,26.077z"/>
						<path d="M133.427,29.602c22.032,21.537,43.254,43.891,65.246,65.467c0,0.504,0,1.008,0,1.512
							c-22.002-21.57-43.214-43.931-65.246-65.466C133.427,30.609,133.427,30.106,133.427,29.602z"/>
						<path fill="#FFFFFF" d="M133.427,31.113c22.032,21.536,43.244,43.896,65.246,65.467c0,1.427,0,2.854,0,4.279
							c-22.018-21.554-43.219-43.925-65.246-65.466C133.427,33.967,133.427,32.54,133.427,31.113z"/>
						<path d="M133.427,35.394c22.027,21.541,43.229,43.912,65.246,65.466c0,0.505,0,1.008,0,1.512
							c-22.021-21.549-43.222-43.921-65.246-65.466C133.427,36.4,133.427,35.897,133.427,35.394z"/>
						<path fill="#FFFFFF" d="M133.427,36.904c22.024,21.546,43.227,43.917,65.246,65.467c0,1.427,0,2.854,0,4.279
							c-22.027-21.541-43.23-43.909-65.246-65.466C133.427,39.758,133.427,38.331,133.427,36.904z"/>
						<path d="M133.427,41.185c22.016,21.557,43.219,43.925,65.246,65.466c0,0.419,0,0.84,0,1.26
							c-22.031-21.538-43.234-43.905-65.246-65.467C133.427,42.024,133.427,41.604,133.427,41.185z"/>
						<path fill="#FFFFFF" d="M133.427,42.443c22.012,21.562,43.215,43.929,65.246,65.467c0,1.511,0,3.021,0,4.532
							c-22.034-21.535-43.256-43.888-65.246-65.467C133.427,45.466,133.427,43.954,133.427,42.443z"/>
						<path d="M133.427,46.976c21.99,21.579,43.212,43.932,65.246,65.467c0,0.419,0,0.84,0,1.26
							c-22.034-21.536-43.262-43.883-65.246-65.468C133.427,47.815,133.427,47.396,133.427,46.976z"/>
						<path fill="#FFFFFF" d="M133.427,48.234c21.984,21.585,43.212,43.932,65.246,65.468c0,1.427,0,2.854,0,4.279
							c-22.031-21.539-43.283-43.857-65.246-65.466C133.427,51.089,133.427,49.661,133.427,48.234z"/>
						<path d="M133.427,52.516c21.963,21.606,43.215,43.927,65.246,65.466c0,0.504,0,1.008,0,1.512
							c-22.027-21.541-43.294-43.85-65.246-65.467C133.427,53.522,133.427,53.02,133.427,52.516z"/>
						<path fill="#FFFFFF" d="M133.427,54.026c21.952,21.617,43.219,43.926,65.246,65.467c0,1.426,0,2.854,0,4.278
							c-22.021-21.549-43.318-43.82-65.246-65.465C133.427,56.879,133.427,55.452,133.427,54.026z"/>
						<path d="M133.427,58.307c21.928,21.645,43.227,43.916,65.246,65.465c0,0.504,0,1.01,0,1.512
							c-22.018-21.554-43.329-43.812-65.246-65.466C133.427,59.313,133.427,58.811,133.427,58.307z"/>
						<path fill="#FFFFFF" d="M133.427,59.817c21.917,21.652,43.229,43.912,65.246,65.466c0,1.428,0,2.854,0,4.28
							c-22.004-21.567-43.361-43.777-65.246-65.466C133.427,62.671,133.427,61.244,133.427,59.817z"/>
						<path d="M133.427,64.098c21.885,21.688,43.242,43.896,65.246,65.466c0,0.419,0,0.84,0,1.26
							c-22.246-21.237-43.334-43.642-65.246-65.215C133.427,65.105,133.427,64.602,133.427,64.098z"/>
						<path fill="#FFFFFF" d="M133.427,65.608c21.912,21.573,43,43.978,65.246,65.215c0,1.427,0,2.854,0,4.28
							c-22.225-21.264-43.369-43.604-65.246-65.215C133.427,68.462,133.427,67.035,133.427,65.608z"/>
						<path d="M133.427,69.889c21.877,21.609,43.021,43.951,65.246,65.215c0,0.503,0,1.007,0,1.511
							c-22.213-21.273-43.387-43.589-65.246-65.215C133.427,70.896,133.427,70.393,133.427,69.889z"/>
						<path fill="#FFFFFF" d="M133.427,71.399c21.859,21.626,43.033,43.939,65.246,65.215c0,1.428,0,2.854,0,4.28
							c-21.896-21.592-43.354-43.623-65.246-65.215C133.427,74.253,133.427,72.826,133.427,71.399z"/>
						<path d="M133.427,75.68c21.895,21.592,43.352,43.624,65.246,65.215c0,0.504,0,1.007,0,1.512
							c-21.896-21.592-43.354-43.624-65.246-65.215C133.427,76.688,133.427,76.185,133.427,75.68z"/>
						<path fill="#FFFFFF" d="M133.427,77.191c21.895,21.591,43.352,43.623,65.246,65.214c0,1.427,0,2.854,0,4.281
							c-21.896-21.594-43.354-43.624-65.246-65.217C133.427,80.044,133.427,78.618,133.427,77.191z"/>
						<path d="M133.427,81.471c21.895,21.592,43.352,43.622,65.246,65.216c0,0.502,0,1.007,0,1.509
							c-21.896-21.59-43.354-43.621-65.246-65.213C133.427,82.479,133.427,81.975,133.427,81.471z"/>
						<path fill="#FFFFFF" d="M133.427,82.982c21.895,21.592,43.352,43.623,65.246,65.213c0,1.429,0,2.854,0,4.281
							c-21.896-21.592-43.354-43.623-65.246-65.214C133.427,85.836,133.427,84.409,133.427,82.982z"/>
						<path d="M133.427,87.263c21.895,21.591,43.352,43.622,65.246,65.214c0,0.419,0,0.84,0,1.259
							c-21.896-21.591-43.354-43.623-65.246-65.214C133.427,88.102,133.427,87.683,133.427,87.263z"/>
						<path fill="#FFFFFF" d="M133.427,88.521c21.895,21.591,43.352,43.623,65.246,65.214c0,1.513,0,3.021,0,4.532
							c-21.896-21.592-43.354-43.622-65.246-65.215C133.427,91.543,133.427,90.032,133.427,88.521z"/>
						<path d="M133.427,93.054c21.895,21.592,43.352,43.622,65.246,65.214c0,0.42,0,0.839,0,1.259
							c-21.896-21.591-43.354-43.621-65.246-65.214C133.427,93.893,133.427,93.474,133.427,93.054z"/>
						<path fill="#FFFFFF" d="M133.427,94.312c21.895,21.592,43.352,43.623,65.246,65.214c0,1.428,0,2.854,0,4.28
							c-21.896-21.591-43.354-43.623-65.246-65.215C133.427,97.166,133.427,95.74,133.427,94.312z"/>
						<path d="M133.427,98.593c21.895,21.592,43.352,43.624,65.246,65.215c0,0.505,0,1.007,0,1.512
							c-21.896-21.591-43.354-43.624-65.246-65.215C133.427,99.601,133.427,99.097,133.427,98.593z"/>
						<path fill="#FFFFFF" d="M133.427,100.104c21.895,21.591,43.352,43.624,65.246,65.215c0,1.427,0,2.854,0,4.28
							c-21.896-21.593-43.354-43.623-65.246-65.216C133.427,102.957,133.427,101.531,133.427,100.104z"/>
						<path d="M133.427,104.384c21.895,21.593,43.352,43.623,65.246,65.216c0,0.503,0,1.007,0,1.51
							c-21.896-21.591-43.354-43.622-65.246-65.213C133.427,105.392,133.427,104.888,133.427,104.384z"/>
						<path fill="#FFFFFF" d="M133.427,105.896c21.895,21.591,43.352,43.622,65.246,65.213c0,1.429,0,2.854,0,4.281
							c-21.896-21.592-43.354-43.624-65.246-65.215C133.427,108.749,133.427,107.323,133.427,105.896z"/>
						<path d="M133.427,110.176c21.895,21.591,43.352,43.623,65.246,65.215c0,0.419,0,0.84,0,1.259
							c-22.146-21.255-43.311-43.497-65.246-64.962C133.427,111.183,133.427,110.679,133.427,110.176z"/>
						<path fill="#FFFFFF" d="M133.427,111.687c21.938,21.465,43.101,43.707,65.246,64.962c0,1.429,0,2.854,0,4.281
							c-22.14-21.264-43.315-43.492-65.246-64.963C133.427,114.54,133.427,113.113,133.427,111.687z"/>
						<path d="M133.427,115.968c21.931,21.471,43.106,43.699,65.246,64.963c0,0.588,0,1.174,0,1.762
							c-21.896-21.591-43.354-43.622-65.246-65.215C133.427,116.975,133.427,116.469,133.427,115.968z"/>
						<path fill="#FFFFFF" d="M133.427,117.477c21.895,21.593,43.352,43.624,65.246,65.215c0,1.428,0,2.854,0,4.28
							c-21.676-21.896-43.369-43.771-65.246-65.467C133.427,120.163,133.427,118.821,133.427,117.477z"/>
						<path d="M133.427,121.506c21.877,21.695,43.57,43.569,65.246,65.467c0,0.505,0,1.007,0,1.512
							c-21.684-21.891-43.365-43.776-65.246-65.467C133.427,122.513,133.427,122.01,133.427,121.506z"/>
						<path fill="#FFFFFF" d="M133.427,123.017c21.881,21.688,43.562,43.576,65.246,65.467c0,1.427,0,2.854,0,4.279
							c-21.711-21.859-43.347-43.796-65.246-65.466C133.427,125.87,133.427,124.444,133.427,123.017z"/>
						<path d="M133.427,127.298c21.899,21.67,43.535,43.604,65.246,65.466c0,0.504,0,1.008,0,1.511
							c-21.723-21.85-43.34-43.801-65.246-65.466C133.427,128.305,133.427,127.801,133.427,127.298z"/>
						<path fill="#FFFFFF" d="M133.427,128.808c21.906,21.665,43.523,43.616,65.246,65.466c0,1.429,0,2.854,0,4.281
							c-21.752-21.821-43.318-43.821-65.246-65.468C133.427,131.662,133.427,130.235,133.427,128.808z"/>
						<path d="M133.427,133.088c21.928,21.646,43.494,43.646,65.246,65.468c0,0.419,0,0.84,0,1.259
							c-21.764-21.81-43.312-43.829-65.246-65.466C133.427,133.927,133.427,133.508,133.427,133.088z"/>
						<path fill="#FFFFFF" d="M133.427,134.348c21.936,21.637,43.482,43.656,65.246,65.466c0,1.512,0,3.021,0,4.531
							c-21.799-21.771-43.291-43.852-65.246-65.465C133.427,137.369,133.427,135.858,133.427,134.348z"/>
						<path d="M133.427,138.881c21.955,21.613,43.447,43.692,65.246,65.465c0,0.421,0,0.84,0,1.26
							c-21.809-21.766-43.285-43.855-65.246-65.465C133.427,139.719,133.427,139.3,133.427,138.881z"/>
						<path fill="#FFFFFF" d="M133.427,140.14c21.961,21.607,43.438,43.699,65.246,65.465c0,1.428,0,2.854,0,4.279
							c-21.844-21.727-43.266-43.877-65.246-65.466C133.427,142.993,133.427,141.565,133.427,140.14z"/>
						<path d="M133.427,144.419c21.98,21.589,43.402,43.739,65.246,65.466c0,0.506,0,1.008,0,1.513
							c-21.854-21.716-43.259-43.884-65.246-65.467C133.427,145.426,133.427,144.923,133.427,144.419z"/>
						<path fill="#FFFFFF" d="M133.427,145.93c21.987,21.583,43.392,43.751,65.246,65.467c0,1.427,0,2.854,0,4.278
							c-21.888-21.684-43.241-43.898-65.246-65.465C133.427,148.783,133.427,147.357,133.427,145.93z"/>
						<path d="M133.427,150.211c22.005,21.564,43.358,43.781,65.246,65.465c-0.146,0.443,0.305,1.479-0.252,1.512
							c-21.562-21.925-43.111-43.86-64.994-65.465C133.427,151.218,133.427,150.714,133.427,150.211z"/>
						<path fill="#FFFFFF" d="M133.427,151.722c21.883,21.604,43.434,43.54,64.994,65.465c-1.422,0-2.844,0-4.266,0
							c-20.129-20.508-40.275-41.004-60.729-61.187C133.427,154.575,133.427,153.147,133.427,151.722z"/>
						<path d="M133.427,156.001c20.453,20.183,40.602,40.679,60.729,61.187c-0.503,0-1.004,0-1.506,0
							c-19.624-20.011-39.271-39.993-59.227-59.674C133.427,157.008,133.427,156.506,133.427,156.001z"/>
						<path fill="#FFFFFF" d="M133.427,157.513c19.951,19.681,39.601,39.663,59.225,59.674c-1.422,0-2.845,0-4.266,0
							c-18.186-18.602-36.438-37.131-54.959-55.395C133.427,160.366,133.427,158.939,133.427,157.513z"/>
						<path d="M133.427,161.793c18.521,18.264,36.773,36.793,54.959,55.395c-0.506,0-1.006,0-1.509,0
							c-17.675-18.104-35.437-36.121-53.45-53.885C133.427,162.8,133.427,162.296,133.427,161.793z"/>
						<path fill="#FFFFFF" d="M133.427,163.302c18.016,17.764,35.775,35.779,53.45,53.885c-1.338,0-2.676,0-4.015,0
							c-16.473-16.624-32.883-33.312-49.438-49.854C133.427,165.99,133.427,164.646,133.427,163.302z"/>
						<path d="M133.427,167.332c16.555,16.542,32.965,33.229,49.438,49.854c-0.502,0-1.004,0-1.506,0
							c-15.969-16.123-31.886-32.298-47.932-48.345C133.427,168.339,133.427,167.836,133.427,167.332z"/>
						<path fill="#FFFFFF" d="M133.427,168.843c16.046,16.047,31.963,32.222,47.932,48.345c-1.422,0-2.844,0-4.269,0
							c-14.53-14.711-29.065-29.418-43.663-44.062C133.427,171.696,133.427,170.271,133.427,168.843z"/>
						<path d="M133.427,173.124c14.598,14.646,29.133,29.353,43.663,44.062c-0.501,0-1.004,0-1.505,0
							c-14.022-14.213-28.072-28.4-42.158-42.553C133.427,174.131,133.427,173.626,133.427,173.124z"/>
						<path fill="#FFFFFF" d="M133.427,174.635c14.086,14.15,28.136,28.34,42.158,42.553c-1.423,0-2.844,0-4.268,0
							c-12.586-12.802-25.256-25.521-37.895-38.271C133.427,177.488,133.427,176.061,133.427,174.635z"/>
						<path d="M133.427,178.914c12.637,12.752,25.307,25.472,37.893,38.271c-0.417,0-0.836,0-1.254,0
							c-12.16-12.391-24.436-24.668-36.639-37.015C133.427,179.754,133.427,179.335,133.427,178.914z"/>
						<path fill="#FFFFFF" d="M133.427,180.173c12.203,12.347,24.479,24.624,36.639,37.015c-1.506,0-3.012,0-4.52,0
							c-10.628-10.905-21.464-21.604-32.119-32.479C133.427,183.195,133.427,181.685,133.427,180.173z"/>
						<path d="M133.427,184.706c10.655,10.876,21.491,21.573,32.119,32.479c-0.418,0-0.836,0-1.254,0
							c-10.205-10.492-20.637-20.756-30.865-31.223C133.427,185.545,133.427,185.125,133.427,184.706z"/>
						<path fill="#FFFFFF" d="M133.427,185.965c10.229,10.467,20.66,20.729,30.865,31.223c-1.424,0-2.844,0-4.266,0
							c-8.748-9.102-17.845-17.852-26.604-26.94C133.427,188.818,133.427,187.392,133.427,185.965z"/>
						<path d="M133.427,190.245c8.757,9.091,17.854,17.841,26.602,26.94c-0.503,0-1.006,0-1.506,0
							c-8.234-8.607-16.855-16.828-25.096-25.432C133.427,191.253,133.427,190.749,133.427,190.245z"/>
						<path fill="#FFFFFF" d="M133.427,191.756c8.238,8.604,16.859,16.822,25.096,25.432c-1.422,0-2.845,0-4.268,0
							c-6.84-7.07-13.78-14.037-20.828-20.896C133.427,194.777,133.427,193.267,133.427,191.756z"/>
						<path d="M133.427,196.289c7.048,6.859,13.988,13.826,20.828,20.896c-0.504,0-1.004,0-1.507,0
							c-6.337-6.565-12.776-13.029-19.322-19.389C133.427,197.296,133.427,196.791,133.427,196.289z"/>
						<path fill="#FFFFFF" d="M133.427,197.799c6.545,6.357,12.984,12.821,19.321,19.389c-1.421,0-2.845,0-4.266,0
							c-4.915-5.142-9.937-10.178-15.06-15.106C133.427,200.653,133.427,199.226,133.427,197.799z"/>
						<path d="M133.427,202.079c5.121,4.931,10.143,9.967,15.058,15.106c-0.503,0-1.004,0-1.507,0
							c-4.412-4.638-8.932-9.168-13.551-13.597C133.427,203.086,133.427,202.584,133.427,202.079z"/>
						<path fill="#FFFFFF" d="M133.427,203.591c4.619,4.429,9.139,8.959,13.551,13.597c-1.421,0-2.846,0-4.268,0
							c-2.988-3.211-6.086-6.313-9.285-9.314C133.427,206.444,133.427,205.017,133.427,203.591z"/>
						<path d="M133.427,207.871c3.197,3.001,6.295,6.104,9.283,9.314c-0.502,0-1.004,0-1.506,0
							c-2.488-2.706-5.082-5.309-7.777-7.807C133.427,208.878,133.427,208.374,133.427,207.871z"/>
						<path fill="#FFFFFF" d="M133.427,209.381c2.695,2.498,5.289,5.101,7.777,7.807c-1.338,0-2.678,0-4.016,0
							c-1.15-1.363-2.404-2.623-3.766-3.775C133.427,212.067,133.427,210.725,133.427,209.381z"/>
						<path d="M133.427,213.41c1.357,1.152,2.611,2.412,3.764,3.775c-0.502,0-1.004,0-1.506,0c-0.646-0.858-1.399-1.616-2.258-2.267
							C133.427,214.417,133.427,213.914,133.427,213.41z"/>
						<path fill="#FFFFFF" d="M133.427,214.921c0.856,0.648,1.609,1.406,2.258,2.267c-0.752,0-1.505,0-2.258,0
							C133.427,216.432,133.427,215.676,133.427,214.921z"/>
					</g>
				</g>
			</g>
			<g>
				<polygon id="SVGID_1_" fill="none" stroke="#000000" stroke-width="1.5024" stroke-miterlimit="10" points="133.503,134.279 
					145.75,26.096 156.484,131.937 198.67,217.139 				"/>
			</g>
		</g>
	</g>
	<g>
		<path stroke="#000000" stroke-width="0.216" stroke-miterlimit="10" d="M157.543,25.264c-0.378,1.209-1.663,1.89-2.946,1.512
			c-1.285-0.452-1.967-1.737-1.588-2.947s1.662-1.813,2.945-1.438C157.166,22.769,157.922,24.055,157.543,25.264z"/>
		<path fill="none" stroke="#000000" stroke-width="1.5024" stroke-miterlimit="10" d="M167.522,25.793
			c-1.284,0.149-3.479,0.831-4.459,0.529c-1.438-0.454-3.933-0.982-5.745-1.589c-1.136-0.303-2.271-0.528-2.495-1.663
			c-0.379-2.57,0.528-5.52,1.284-8.09"/>
	</g>
	<g>
		<path stroke="#000000" stroke-width="0.216" stroke-miterlimit="10" d="M146.204,51.8c1.134,0,2.042-0.982,2.042-2.116
			c0-1.21-0.908-2.117-2.042-2.117s-2.042,0.907-2.042,2.117C144.162,50.816,145.07,51.8,146.204,51.8z"/>
		<path fill="none" stroke="#000000" stroke-width="1.5024" stroke-miterlimit="10" d="M145.673,42.576
			c0,1.36,0.151,3.629,0.151,5.293c0,1.058,0.151,2.114-0.755,2.568c-2.117,1.06-1.209,0.682-3.629,0.682"/>
	</g>
	<g>
		<path stroke="#000000" stroke-width="0.216" stroke-miterlimit="10" d="M145.75,70.775c1.132,0,2.04-0.981,2.04-2.115
			c0-1.21-0.908-2.117-2.04-2.117c-1.136,0-2.042,0.907-2.042,2.117C143.708,69.793,144.615,70.775,145.75,70.775z"/>
		<path fill="none" stroke="#000000" stroke-width="1.5024" stroke-miterlimit="10" d="M145.222,61.552
			c0,1.361,0.147,3.63,0.147,5.292c0,1.06,0.151,2.118-0.757,2.57c-2.115,1.061-1.207,0.681-3.628,0.681"/>
	</g>
	<g>
		<path stroke="#000000" stroke-width="0.216" stroke-miterlimit="10" d="M145.296,89.751c1.137,0,2.041-0.982,2.041-2.117
			c0-1.133-0.904-2.115-2.041-2.115c-1.135,0-2.041,0.982-2.041,2.115C143.255,88.768,144.162,89.751,145.296,89.751z"/>
		<path fill="none" stroke="#000000" stroke-width="1.5024" stroke-miterlimit="10" d="M144.767,80.527
			c0,1.361,0.149,3.63,0.149,5.292c0,1.06,0.151,2.116-0.757,2.571c-2.117,1.059-1.209,0.68-3.628,0.68"/>
	</g>
	<g>
		<path stroke="#000000" stroke-width="0.216" stroke-miterlimit="10" d="M144.843,108.727c1.135,0,2.039-0.981,2.039-2.117
			c0-1.134-0.904-2.115-2.039-2.115s-2.042,0.981-2.042,2.115C142.801,107.744,143.708,108.727,144.843,108.727z"/>
		<path fill="none" stroke="#000000" stroke-width="1.5024" stroke-miterlimit="10" d="M144.314,99.504
			c0,1.36,0.148,3.629,0.148,5.292c0,1.06,0.15,2.117-0.756,2.57c-2.117,1.059-1.209,0.68-3.628,0.68"/>
	</g>
	<g>
		<path stroke="#000000" stroke-width="0.216" stroke-miterlimit="10" d="M144.389,127.627c1.134,0,2.042-0.98,2.042-2.117
			c0-1.134-0.908-2.114-2.042-2.114c-1.136,0-2.042,0.98-2.042,2.114C142.347,126.646,143.255,127.627,144.389,127.627z"/>
		<path fill="none" stroke="#000000" stroke-width="1.5024" stroke-miterlimit="10" d="M143.861,118.406
			c0,1.358,0.151,3.628,0.151,5.29c0,1.059,0.147,2.117-0.759,2.57c-2.115,1.061-1.211,0.682-3.629,0.682"/>
	</g>
	<g>
		<path stroke="#000000" stroke-width="0.216" stroke-miterlimit="10" d="M147.716,140.705c1.135,0,2.04-0.98,2.04-2.117
			c0-1.132-0.905-2.114-2.04-2.114s-2.043,0.982-2.043,2.114C145.673,139.724,146.582,140.705,147.716,140.705z"/>
		<path fill="none" stroke="#000000" stroke-width="1.5024" stroke-miterlimit="10" d="M147.185,131.483
			c0,1.359,0.15,3.628,0.15,5.292c0,1.059,0.151,2.116-0.756,2.569c-2.117,1.059-1.21,0.68-3.629,0.68"/>
	</g>
	<g>
		<path stroke="#000000" stroke-width="0.216" stroke-miterlimit="10" d="M155.654,150.836c1.133,0,2.041-0.905,2.041-2.117
			c0-1.133-0.908-2.115-2.041-2.115c-1.135,0-2.041,0.982-2.041,2.115C153.613,149.93,154.519,150.836,155.654,150.836z"/>
		<path fill="none" stroke="#000000" stroke-width="1.5024" stroke-miterlimit="10" d="M155.125,141.613
			c0,1.361,0.15,3.629,0.15,5.292c0,1.06,0.148,2.116-0.756,2.569c-2.117,1.061-1.209,0.683-3.628,0.683"/>
	</g>
	<g>
		<path stroke="#000000" stroke-width="0.216" stroke-miterlimit="10" d="M163.943,160.163c1.135,0,2.042-0.907,2.042-2.117
			c0-1.134-0.907-2.116-2.042-2.116c-1.06,0-1.965,0.982-1.965,2.116C161.978,159.256,162.885,160.163,163.943,160.163z"/>
		<path fill="none" stroke="#000000" stroke-width="1.5024" stroke-miterlimit="10" d="M163.414,151.015
			c0,1.285,0.152,3.555,0.152,5.217c0,1.06,0.148,2.117-0.683,2.569c-2.114,1.061-1.283,0.682-3.702,0.682"/>
	</g>
	<g>
		<path stroke="#000000" stroke-width="0.216" stroke-miterlimit="10" d="M169.841,172.032c1.137,0,2.041-0.984,2.041-2.116
			c0-1.209-0.904-2.117-2.041-2.117s-2.043,0.908-2.043,2.117C167.798,171.048,168.705,172.032,169.841,172.032z"/>
		<path fill="none" stroke="#000000" stroke-width="1.5024" stroke-miterlimit="10" d="M169.31,162.81
			c0,1.36,0.149,3.627,0.149,5.292c0,1.058,0.151,2.115-0.757,2.568c-2.115,1.059-1.207,0.682-3.627,0.682"/>
	</g>
	<g>
		<path stroke="#000000" stroke-width="0.216" stroke-miterlimit="10" d="M177.4,182.994c1.06,0,1.966-0.981,1.966-2.115
			c0-1.136-0.906-2.119-1.966-2.119c-1.135,0-2.041,0.983-2.041,2.119C175.359,182.012,176.265,182.994,177.4,182.994z"/>
		<path fill="none" stroke="#000000" stroke-width="1.5024" stroke-miterlimit="10" d="M176.871,173.771
			c0,1.358,0.152,3.629,0.152,5.293c0,1.058,0.149,2.115-0.758,2.567c-2.115,1.061-1.283,0.682-3.703,0.682"/>
	</g>
	<path fill="none" stroke="#000000" stroke-width="1.5024" stroke-miterlimit="10" d="M153.916,24.961
		c-5.291-1.663-10.66-1.134-15.952-0.228"/>
	<path fill="none" stroke="#000000" stroke-width="1.5024" stroke-miterlimit="10" d="M137.359,36.15
		c5.67-1.966,11.34-1.814,16.936,0.378"/>
	<path fill="none" stroke="#000000" stroke-width="1.5024" stroke-miterlimit="10" d="M154.519,49.456
		c10.961,0.303,19.354-4.688,21.018-19.278c1.438-12.475-6.123-15.195-21.242-16.632c-9.525-0.906-20.188,0.453-27.369,13.685
		c-8.393,15.498,0.076,21.85,11.566,22"/>
	
		<line fill="none" stroke="#000000" stroke-width="0.5" stroke-miterlimit="10" x1="183.062" y1="178.76" x2="234.481" y2="178.76"/>
	<g enable-background="new    ">
		<path d="M252.809,12.538h-3.307v3.077h3.698v0.925h-4.812V8.004h4.623v0.925h-3.509v2.697h3.307V12.538z"/>
		<path d="M254.597,12.411c0-0.785-0.025-1.418-0.052-2.001h0.988l0.062,1.052h0.024c0.443-0.748,1.178-1.179,2.179-1.179
			c1.494,0,2.608,1.254,2.608,3.104c0,2.203-1.354,3.293-2.799,3.293c-0.812,0-1.521-0.354-1.887-0.963h-0.025v3.331h-1.102v-6.637
			H254.597z M255.699,14.045c0,0.165,0.013,0.315,0.051,0.456c0.203,0.771,0.873,1.305,1.672,1.305c1.179,0,1.861-0.963,1.861-2.368
			c0-1.216-0.646-2.268-1.824-2.268c-0.76,0-1.479,0.532-1.684,1.368c-0.038,0.14-0.076,0.304-0.076,0.442V14.045L255.699,14.045z"
			/>
		<path d="M263.047,8.687c0,0.38-0.266,0.686-0.709,0.686c-0.403,0-0.671-0.306-0.671-0.686s0.278-0.695,0.696-0.695
			C262.769,7.991,263.047,8.295,263.047,8.687z M261.806,16.54v-6.13h1.113v6.13H261.806z"/>
		<path d="M266.113,8.941v1.47h1.596v0.849h-1.596v3.306c0,0.761,0.215,1.19,0.836,1.19c0.304,0,0.48-0.025,0.646-0.076l0.051,0.849
			c-0.216,0.076-0.559,0.152-0.987,0.152c-0.52,0-0.938-0.178-1.203-0.469c-0.305-0.342-0.432-0.887-0.432-1.608v-3.344h-0.949
			V10.41h0.949V9.27L266.113,8.941z"/>
		<path d="M268.965,7.548h1.114v3.838h0.025c0.177-0.316,0.456-0.608,0.798-0.798c0.329-0.19,0.722-0.305,1.14-0.305
			c0.823,0,2.142,0.507,2.142,2.608v3.647h-1.114v-3.521c0-0.987-0.367-1.812-1.419-1.812c-0.722,0-1.279,0.507-1.494,1.102
			c-0.062,0.165-0.076,0.33-0.076,0.532v3.698h-1.114L268.965,7.548L268.965,7.548z"/>
		<path d="M276.617,13.677c0.025,1.507,0.975,2.128,2.103,2.128c0.799,0,1.293-0.14,1.696-0.315l0.203,0.798
			c-0.393,0.177-1.076,0.393-2.052,0.393c-1.888,0-3.016-1.254-3.016-3.104s1.091-3.293,2.875-3.293
			c2.015,0,2.533,1.748,2.533,2.875c0,0.229-0.013,0.393-0.038,0.52L276.617,13.677L276.617,13.677z M279.885,12.88
			c0.012-0.696-0.291-1.799-1.546-1.799c-1.141,0-1.62,1.025-1.711,1.799H279.885z"/>
		<path d="M282.344,7.548h1.113v8.992h-1.113V7.548z"/>
		<path d="M286.574,8.687c0,0.38-0.266,0.686-0.709,0.686c-0.404,0-0.671-0.306-0.671-0.686s0.278-0.695,0.696-0.695
			C286.297,7.991,286.574,8.295,286.574,8.687z M285.334,16.54v-6.13h1.114v6.13H285.334z"/>
		<path d="M292.603,15.071c0,0.531,0.024,1.052,0.09,1.47h-1.001l-0.089-0.772h-0.038c-0.342,0.481-1.001,0.912-1.874,0.912
			c-1.241,0-1.875-0.874-1.875-1.761c0-1.481,1.316-2.292,3.686-2.279v-0.127c0-0.494-0.139-1.419-1.393-1.406
			c-0.583,0-1.178,0.165-1.609,0.456l-0.252-0.747c0.506-0.315,1.253-0.531,2.025-0.531c1.875,0,2.33,1.278,2.33,2.494V15.071
			L292.603,15.071z M291.527,13.412c-1.216-0.025-2.596,0.188-2.596,1.38c0,0.733,0.479,1.063,1.038,1.063
			c0.811,0,1.329-0.507,1.507-1.025c0.039-0.126,0.051-0.253,0.051-0.354V13.412L291.527,13.412z"/>
		<path d="M294.404,7.548h1.115v8.992h-1.115V7.548z"/>
	</g>
	<g enable-background="new    ">
		<path d="M248.212,30.616c0.343,0.201,0.926,0.431,1.481,0.431c0.799,0,1.178-0.394,1.178-0.912c0-0.532-0.315-0.811-1.127-1.114
			c-1.114-0.404-1.633-1.001-1.633-1.734c0-0.988,0.811-1.8,2.114-1.8c0.62,0,1.165,0.165,1.495,0.381l-0.268,0.811
			c-0.241-0.151-0.684-0.367-1.254-0.367c-0.658,0-1.013,0.38-1.013,0.836c0,0.507,0.354,0.735,1.151,1.053
			c1.052,0.393,1.608,0.924,1.608,1.836c0,1.09-0.849,1.85-2.28,1.85c-0.671,0-1.291-0.178-1.722-0.431L248.212,30.616z"/>
		<path d="M258.51,30.058c0,0.646,0.014,1.203,0.051,1.686h-0.987l-0.062-1.001h-0.025c-0.278,0.493-0.938,1.141-2.026,1.141
			c-0.962,0-2.113-0.545-2.113-2.686v-3.585h1.112v3.383c0,1.165,0.367,1.963,1.368,1.963c0.747,0,1.268-0.521,1.47-1.026
			c0.062-0.15,0.103-0.354,0.103-0.569v-3.748h1.113v4.443H258.51z"/>
		<path d="M261.705,24.144v1.469h1.596v0.85h-1.596v3.306c0,0.76,0.215,1.19,0.836,1.19c0.304,0,0.48-0.025,0.646-0.076l0.05,0.849
			c-0.215,0.076-0.557,0.152-0.987,0.152c-0.519,0-0.937-0.178-1.203-0.469c-0.304-0.342-0.431-0.888-0.431-1.608v-3.344h-0.949
			v-0.85h0.949v-1.14L261.705,24.144z"/>
		<path d="M269.685,30.058c0,0.646,0.012,1.203,0.051,1.686h-0.988l-0.062-1.001h-0.025c-0.278,0.493-0.937,1.141-2.026,1.141
			c-0.963,0-2.114-0.545-2.114-2.686v-3.585h1.114v3.383c0,1.165,0.367,1.963,1.367,1.963c0.748,0,1.268-0.521,1.47-1.026
			c0.063-0.15,0.102-0.354,0.102-0.569v-3.748h1.115v4.443H269.685z"/>
		<path d="M271.537,27.525c0-0.722-0.013-1.342-0.051-1.912h0.975l0.052,1.217h0.037c0.278-0.823,0.964-1.344,1.71-1.344
			c0.113,0,0.203,0.014,0.305,0.025v1.052c-0.114-0.024-0.229-0.024-0.38-0.024c-0.785,0-1.343,0.582-1.494,1.418
			c-0.025,0.151-0.038,0.342-0.038,0.52v3.269h-1.114L271.537,27.525L271.537,27.525z"/>
		<path d="M276.174,28.881c0.025,1.507,0.976,2.128,2.103,2.128c0.799,0,1.293-0.14,1.697-0.316l0.202,0.799
			c-0.393,0.177-1.075,0.393-2.052,0.393c-1.888,0-3.015-1.254-3.015-3.104s1.09-3.294,2.875-3.294c2.014,0,2.533,1.748,2.533,2.875
			c0,0.229-0.014,0.394-0.038,0.521L276.174,28.881L276.174,28.881z M279.441,28.083c0.012-0.696-0.291-1.799-1.545-1.799
			c-1.142,0-1.621,1.025-1.711,1.799H279.441z"/>
	</g>
	<g enable-background="new    ">
		<path d="M251.271,67.258v3.571h4.129v-3.571h1.114v8.536H255.4v-4.002h-4.129v4.002h-1.115v-8.536H251.271z"/>
		<path d="M258.911,69.664l1.33,3.622c0.151,0.404,0.304,0.887,0.405,1.254h0.024c0.113-0.367,0.24-0.836,0.394-1.279l1.216-3.597
			h1.178l-1.672,4.369c-0.798,2.103-1.343,3.167-2.103,3.838c-0.558,0.469-1.089,0.657-1.367,0.709l-0.279-0.925
			c0.279-0.089,0.646-0.267,0.977-0.545c0.304-0.24,0.671-0.672,0.937-1.24c0.051-0.114,0.09-0.203,0.09-0.268
			c0-0.062-0.024-0.15-0.09-0.291l-2.254-5.647H258.911z"/>
		<path d="M264.472,71.323c0-0.646-0.024-1.152-0.051-1.659h0.977l0.051,1.001h0.037c0.342-0.583,0.912-1.128,1.938-1.128
			c0.824,0,1.457,0.507,1.724,1.229h0.024c0.189-0.354,0.443-0.606,0.697-0.798c0.367-0.278,0.76-0.431,1.342-0.431
			c0.823,0,2.026,0.531,2.026,2.66v3.597h-1.089v-3.457c0-1.191-0.443-1.888-1.33-1.888c-0.646,0-1.127,0.469-1.33,1.001
			c-0.051,0.164-0.088,0.354-0.088,0.557v3.787h-1.09v-3.673c0-0.977-0.431-1.672-1.279-1.672c-0.684,0-1.203,0.558-1.38,1.113
			c-0.063,0.152-0.089,0.355-0.089,0.545v3.687h-1.09V71.323L264.472,71.323z"/>
		<path d="M275.66,72.931c0.025,1.507,0.977,2.128,2.104,2.128c0.798,0,1.292-0.14,1.696-0.315l0.202,0.798
			c-0.393,0.177-1.076,0.393-2.051,0.393c-1.888,0-3.015-1.254-3.015-3.104s1.089-3.293,2.874-3.293
			c2.015,0,2.532,1.748,2.532,2.875c0,0.229-0.012,0.393-0.037,0.52L275.66,72.931L275.66,72.931z M278.927,72.134
			c0.013-0.696-0.291-1.799-1.546-1.799c-1.14,0-1.62,1.025-1.71,1.799H278.927z"/>
		<path d="M281.386,71.323c0-0.646-0.013-1.152-0.051-1.659h0.987l0.063,1.014h0.024c0.304-0.57,1.013-1.141,2.026-1.141
			c0.849,0,2.166,0.507,2.166,2.608v3.647h-1.115V72.26c0-0.988-0.367-1.812-1.418-1.812c-0.722,0-1.291,0.52-1.494,1.14
			c-0.051,0.14-0.076,0.33-0.076,0.52v3.687h-1.114L281.386,71.323L281.386,71.323z"/>
	</g>
	<g enable-background="new    ">
		<path d="M250.131,86.781c0-0.723-0.012-1.343-0.05-1.912h0.977l0.051,1.216h0.037c0.278-0.823,0.963-1.343,1.71-1.343
			c0.114,0,0.202,0.013,0.304,0.024v1.052c-0.113-0.024-0.228-0.024-0.38-0.024c-0.785,0-1.343,0.582-1.494,1.418
			c-0.024,0.151-0.038,0.342-0.038,0.52v3.269h-1.115L250.131,86.781L250.131,86.781z"/>
		<path d="M254.767,88.135c0.024,1.507,0.977,2.128,2.104,2.128c0.797,0,1.291-0.14,1.697-0.315l0.202,0.798
			c-0.394,0.177-1.077,0.393-2.053,0.393c-1.887,0-3.014-1.254-3.014-3.104s1.088-3.293,2.874-3.293
			c2.014,0,2.533,1.748,2.533,2.875c0,0.229-0.013,0.393-0.038,0.52L254.767,88.135L254.767,88.135z M258.035,87.338
			c0.014-0.696-0.291-1.799-1.545-1.799c-1.14,0-1.621,1.025-1.709,1.799H258.035z"/>
		<path d="M260.495,86.527c0-0.646-0.023-1.151-0.05-1.658h0.975l0.052,1.001h0.036c0.344-0.583,0.912-1.128,1.938-1.128
			c0.823,0,1.456,0.507,1.722,1.229h0.025c0.189-0.354,0.442-0.607,0.697-0.798c0.366-0.278,0.76-0.431,1.342-0.431
			c0.824,0,2.026,0.531,2.026,2.659v3.598h-1.09v-3.457c0-1.191-0.442-1.889-1.33-1.889c-0.646,0-1.127,0.47-1.329,1.001
			c-0.051,0.164-0.089,0.354-0.089,0.558v3.787h-1.089v-3.673c0-0.977-0.431-1.673-1.278-1.673c-0.686,0-1.203,0.559-1.381,1.114
			c-0.063,0.152-0.09,0.355-0.09,0.545v3.687h-1.089L260.495,86.527L260.495,86.527z"/>
		<path d="M271.061,86.527c0-0.646-0.014-1.151-0.05-1.658h0.986l0.063,1.014h0.024c0.305-0.57,1.014-1.141,2.025-1.141
			c0.85,0,2.166,0.507,2.166,2.608v3.647h-1.114v-3.533c0-0.988-0.367-1.812-1.419-1.812c-0.721,0-1.291,0.521-1.494,1.141
			c-0.051,0.14-0.076,0.33-0.076,0.52v3.687h-1.113L271.061,86.527L271.061,86.527z"/>
		<path d="M282.399,89.529c0,0.531,0.024,1.052,0.089,1.47h-1l-0.09-0.772h-0.037c-0.342,0.481-1.001,0.912-1.875,0.912
			c-1.24,0-1.874-0.874-1.874-1.761c0-1.481,1.317-2.292,3.686-2.279V86.97c0-0.494-0.14-1.419-1.394-1.406
			c-0.582,0-1.178,0.165-1.608,0.456l-0.253-0.747c0.506-0.315,1.254-0.531,2.026-0.531c1.874,0,2.33,1.278,2.33,2.494V89.529z
			 M281.323,87.87c-1.216-0.025-2.597,0.188-2.597,1.38c0,0.733,0.48,1.063,1.039,1.063c0.811,0,1.33-0.507,1.507-1.025
			c0.038-0.126,0.051-0.253,0.051-0.354V87.87z"/>
		<path d="M284.2,86.527c0-0.646-0.013-1.151-0.05-1.658h0.987l0.062,1.014h0.025c0.304-0.57,1.013-1.141,2.024-1.141
			c0.851,0,2.166,0.507,2.166,2.608v3.647h-1.114v-3.533c0-0.988-0.366-1.812-1.419-1.812c-0.721,0-1.291,0.521-1.493,1.141
			c-0.052,0.14-0.076,0.33-0.076,0.52v3.687H284.2V86.527z"/>
		<path d="M292.523,83.399v1.47h1.596v0.849h-1.596v3.306c0,0.761,0.216,1.19,0.836,1.19c0.305,0,0.48-0.025,0.646-0.076
			l0.052,0.849c-0.217,0.076-0.559,0.152-0.988,0.152c-0.521,0-0.938-0.178-1.203-0.469c-0.304-0.342-0.431-0.887-0.431-1.608
			v-3.344h-0.95v-0.849h0.95v-1.141L292.523,83.399z"/>
		<path d="M295.222,89.871c0.342,0.202,0.925,0.431,1.481,0.431c0.797,0,1.178-0.393,1.178-0.912c0-0.532-0.315-0.811-1.127-1.114
			c-1.114-0.404-1.635-1.001-1.635-1.734c0-0.988,0.812-1.799,2.115-1.799c0.621,0,1.165,0.165,1.494,0.38l-0.267,0.811
			c-0.239-0.15-0.684-0.367-1.254-0.367c-0.658,0-1.014,0.38-1.014,0.836c0,0.508,0.354,0.735,1.153,1.053
			c1.051,0.393,1.607,0.924,1.607,1.836c0,1.09-0.849,1.85-2.279,1.85c-0.672,0-1.293-0.178-1.723-0.431L295.222,89.871z"/>
	</g>
	<g enable-background="new    ">
		<path d="M250.136,106.662h1.114v5.712c0,2.267-1.114,2.964-2.584,2.964c-0.418,0-0.912-0.089-1.178-0.203l0.152-0.899
			c0.228,0.09,0.557,0.165,0.937,0.165c0.988,0,1.559-0.442,1.559-2.114V106.662z"/>
		<path d="M258.181,113.513c0,0.646,0.012,1.203,0.051,1.686h-0.988l-0.062-1.001h-0.025c-0.278,0.493-0.937,1.141-2.026,1.141
			c-0.963,0-2.114-0.545-2.114-2.687v-3.584h1.114v3.383c0,1.165,0.367,1.963,1.367,1.963c0.748,0,1.268-0.521,1.469-1.026
			c0.064-0.151,0.103-0.354,0.103-0.569v-3.749h1.115v4.444H258.181z"/>
		<path d="M260.033,110.727c0-0.646-0.013-1.151-0.051-1.659h0.988l0.062,1.015h0.025c0.305-0.57,1.014-1.142,2.025-1.142
			c0.85,0,2.166,0.508,2.166,2.609v3.647h-1.114v-3.533c0-0.988-0.366-1.812-1.419-1.812c-0.722,0-1.292,0.521-1.493,1.141
			c-0.052,0.14-0.076,0.33-0.076,0.52v3.687h-1.114L260.033,110.727L260.033,110.727z"/>
		<path d="M271.433,114.983c-0.291,0.14-0.938,0.354-1.761,0.354c-1.85,0-3.053-1.254-3.053-3.129c0-1.888,1.291-3.269,3.293-3.269
			c0.658,0,1.24,0.165,1.545,0.33l-0.254,0.85c-0.266-0.141-0.684-0.292-1.291-0.292c-1.406,0-2.166,1.052-2.166,2.317
			c0,1.418,0.912,2.292,2.128,2.292c0.633,0,1.052-0.151,1.368-0.291L271.433,114.983z"/>
		<path d="M274.248,107.599v1.469h1.597v0.85h-1.597v3.306c0,0.76,0.215,1.19,0.836,1.19c0.304,0,0.48-0.025,0.646-0.076l0.05,0.849
			c-0.215,0.076-0.557,0.152-0.987,0.152c-0.519,0-0.937-0.178-1.203-0.469c-0.304-0.343-0.431-0.888-0.431-1.608v-3.344h-0.949
			v-0.85h0.949v-1.14L274.248,107.599z"/>
		<path d="M278.34,107.345c0,0.38-0.266,0.686-0.709,0.686c-0.405,0-0.672-0.306-0.672-0.686s0.279-0.696,0.697-0.696
			C278.06,106.649,278.34,106.953,278.34,107.345z M277.097,115.198v-6.131h1.114v6.131H277.097z"/>
		<path d="M285.61,112.083c0,2.267-1.583,3.255-3.052,3.255c-1.646,0-2.938-1.216-2.938-3.154c0-2.039,1.354-3.242,3.04-3.242
			C284.42,108.941,285.61,110.22,285.61,112.083z M280.76,112.146c0,1.343,0.76,2.355,1.85,2.355c1.062,0,1.861-1.001,1.861-2.381
			c0-1.039-0.521-2.345-1.836-2.345C281.33,109.777,280.76,110.993,280.76,112.146z"/>
		<path d="M287.018,110.727c0-0.646-0.014-1.151-0.05-1.659h0.986l0.063,1.015h0.024c0.305-0.57,1.014-1.142,2.025-1.142
			c0.85,0,2.166,0.508,2.166,2.609v3.647h-1.114v-3.533c0-0.988-0.367-1.812-1.419-1.812c-0.721,0-1.291,0.521-1.494,1.141
			c-0.051,0.14-0.076,0.33-0.076,0.52v3.687h-1.113L287.018,110.727L287.018,110.727z"/>
		<path d="M302.283,112.083c0,2.267-1.582,3.255-3.052,3.255c-1.646,0-2.938-1.216-2.938-3.154c0-2.039,1.355-3.242,3.04-3.242
			C301.094,108.941,302.283,110.22,302.283,112.083z M297.433,112.146c0,1.343,0.76,2.355,1.849,2.355
			c1.063,0,1.862-1.001,1.862-2.381c0-1.039-0.521-2.345-1.837-2.345C298.003,109.777,297.433,110.993,297.433,112.146z"/>
		<path d="M303.806,115.198v-5.281h-0.851v-0.85h0.851v-0.291c0-0.86,0.201-1.646,0.709-2.141c0.418-0.405,0.975-0.569,1.493-0.569
			c0.405,0,0.734,0.089,0.949,0.178l-0.15,0.86c-0.165-0.076-0.38-0.14-0.709-0.14c-0.95,0-1.19,0.823-1.19,1.773v0.328h1.481v0.85
			h-1.481v5.281L303.806,115.198L303.806,115.198z"/>
	</g>
	<g enable-background="new    ">
		<path d="M248.212,129.275c0.343,0.202,0.926,0.432,1.481,0.432c0.799,0,1.178-0.394,1.178-0.912c0-0.532-0.315-0.812-1.127-1.114
			c-1.114-0.405-1.633-1.001-1.633-1.735c0-0.987,0.811-1.799,2.114-1.799c0.62,0,1.165,0.165,1.495,0.38l-0.268,0.812
			c-0.241-0.151-0.684-0.367-1.254-0.367c-0.658,0-1.013,0.38-1.013,0.836c0,0.507,0.354,0.735,1.151,1.052
			c1.052,0.394,1.608,0.925,1.608,1.836c0,1.091-0.849,1.851-2.28,1.851c-0.671,0-1.291-0.178-1.722-0.432L248.212,129.275z"/>
		<path d="M254.482,127.084h0.024c0.152-0.215,0.355-0.481,0.532-0.696l1.812-2.115h1.33l-2.356,2.521l2.698,3.608h-1.368
			l-2.104-2.938l-0.569,0.634v2.305h-1.103v-8.991h1.103V127.084L254.482,127.084z"/>
		<path d="M260.779,122.55c0,0.38-0.266,0.685-0.709,0.685c-0.404,0-0.671-0.305-0.671-0.685s0.278-0.696,0.696-0.696
			C260.502,121.853,260.779,122.157,260.779,122.55z M259.539,130.402v-6.13h1.114v6.13H259.539z"/>
		<path d="M262.503,125.931c0-0.646-0.013-1.152-0.05-1.659h0.987l0.062,1.015h0.025c0.304-0.57,1.013-1.142,2.025-1.142
			c0.85,0,2.165,0.507,2.165,2.609v3.646h-1.113v-3.532c0-0.988-0.367-1.812-1.419-1.812c-0.722,0-1.291,0.521-1.494,1.14
			c-0.051,0.141-0.076,0.33-0.076,0.521v3.686h-1.114L262.503,125.931L262.503,125.931z"/>
		<path d="M276.527,128.933c0,0.531,0.025,1.051,0.088,1.469h-1l-0.089-0.771h-0.038c-0.342,0.48-1,0.912-1.874,0.912
			c-1.241,0-1.874-0.874-1.874-1.761c0-1.481,1.316-2.292,3.687-2.279v-0.127c0-0.494-0.142-1.419-1.395-1.406
			c-0.583,0-1.179,0.165-1.608,0.456l-0.254-0.747c0.508-0.316,1.254-0.532,2.027-0.532c1.873,0,2.33,1.279,2.33,2.495V128.933
			L276.527,128.933z M275.45,127.274c-1.216-0.024-2.597,0.189-2.597,1.38c0,0.734,0.481,1.064,1.039,1.064
			c0.811,0,1.33-0.507,1.508-1.026c0.037-0.126,0.05-0.253,0.05-0.354V127.274z"/>
		<path d="M278.327,125.931c0-0.646-0.013-1.152-0.05-1.659h0.987l0.062,1.015h0.025c0.304-0.57,1.013-1.142,2.024-1.142
			c0.851,0,2.166,0.507,2.166,2.609v3.646h-1.113v-3.532c0-0.988-0.367-1.812-1.42-1.812c-0.721,0-1.291,0.521-1.493,1.14
			c-0.052,0.141-0.076,0.33-0.076,0.521v3.686h-1.114L278.327,125.931L278.327,125.931z"/>
		<path d="M290.64,121.41v7.408c0,0.546,0.024,1.165,0.051,1.583h-0.988l-0.051-1.062h-0.038c-0.329,0.684-1.062,1.203-2.062,1.203
			c-1.482,0-2.636-1.254-2.636-3.116c-0.013-2.039,1.267-3.28,2.748-3.28c0.949,0,1.57,0.443,1.851,0.925h0.024v-3.659
			L290.64,121.41L290.64,121.41z M289.539,126.767c0-0.14-0.014-0.329-0.051-0.469c-0.165-0.696-0.773-1.279-1.609-1.279
			c-1.151,0-1.836,1.015-1.836,2.355c0,1.241,0.621,2.268,1.812,2.268c0.748,0,1.432-0.507,1.635-1.33
			c0.037-0.15,0.051-0.304,0.051-0.48L289.539,126.767L289.539,126.767z"/>
	</g>
	<g enable-background="new    ">
		<path d="M248.795,139.475l1.203,3.434c0.202,0.568,0.367,1.075,0.494,1.583h0.037c0.14-0.508,0.316-1.015,0.52-1.583l1.19-3.434
			h1.165l-2.406,6.13h-1.062l-2.331-6.13H248.795z"/>
		<path d="M258.713,144.136c0,0.531,0.025,1.051,0.091,1.469h-1.001l-0.09-0.771h-0.038c-0.342,0.48-1.001,0.912-1.873,0.912
			c-1.241,0-1.875-0.874-1.875-1.762c0-1.48,1.316-2.292,3.686-2.278v-0.127c0-0.494-0.139-1.419-1.393-1.406
			c-0.583,0-1.179,0.165-1.609,0.456l-0.252-0.747c0.506-0.316,1.253-0.532,2.024-0.532c1.875,0,2.33,1.279,2.33,2.495V144.136z
			 M257.636,142.477c-1.217-0.024-2.597,0.189-2.597,1.38c0,0.734,0.48,1.064,1.038,1.064c0.812,0,1.33-0.507,1.507-1.026
			c0.039-0.126,0.052-0.253,0.052-0.354V142.477z"/>
		<path d="M265.758,144.706c0,1.419-0.292,2.268-0.875,2.812c-0.606,0.545-1.469,0.734-2.24,0.734c-0.734,0-1.545-0.177-2.039-0.506
			l0.277-0.861c0.406,0.266,1.039,0.494,1.8,0.494c1.14,0,1.976-0.596,1.976-2.153v-0.671h-0.025
			c-0.328,0.569-1.001,1.025-1.949,1.025c-1.521,0-2.609-1.292-2.609-2.989c0-2.076,1.355-3.242,2.773-3.242
			c1.063,0,1.635,0.545,1.912,1.052h0.024l0.039-0.925h0.987c-0.038,0.432-0.051,0.938-0.051,1.672V144.706L265.758,144.706z
			 M264.642,141.894c0-0.188-0.014-0.354-0.063-0.494c-0.202-0.657-0.733-1.189-1.558-1.189c-1.064,0-1.824,0.898-1.824,2.317
			c0,1.203,0.621,2.203,1.812,2.203c0.696,0,1.317-0.431,1.546-1.14c0.062-0.19,0.089-0.405,0.089-0.596L264.642,141.894
			L264.642,141.894z"/>
		<path d="M268.761,137.753c0,0.38-0.267,0.685-0.71,0.685c-0.405,0-0.672-0.305-0.672-0.685s0.279-0.696,0.697-0.696
			C268.482,137.056,268.761,137.36,268.761,137.753z M267.519,145.605v-6.13h1.114v6.13H267.519z"/>
		<path d="M270.484,141.135c0-0.646-0.012-1.152-0.05-1.659h0.986l0.063,1.015h0.024c0.305-0.57,1.014-1.142,2.026-1.142
			c0.849,0,2.166,0.507,2.166,2.609v3.646h-1.115v-3.533c0-0.987-0.366-1.812-1.418-1.812c-0.722,0-1.291,0.521-1.494,1.14
			c-0.051,0.141-0.075,0.33-0.075,0.521v3.686h-1.115L270.484,141.135L270.484,141.135z"/>
		<path d="M281.822,144.136c0,0.531,0.025,1.051,0.09,1.469h-1.001l-0.089-0.771h-0.038c-0.342,0.48-1.001,0.912-1.874,0.912
			c-1.241,0-1.875-0.874-1.875-1.762c0-1.48,1.317-2.292,3.687-2.278v-0.127c0-0.494-0.14-1.419-1.394-1.406
			c-0.583,0-1.178,0.165-1.608,0.456l-0.253-0.747c0.507-0.316,1.254-0.532,2.025-0.532c1.875,0,2.33,1.279,2.33,2.495V144.136
			L281.822,144.136z M280.746,142.477c-1.216-0.024-2.596,0.189-2.596,1.38c0,0.734,0.479,1.064,1.038,1.064
			c0.811,0,1.33-0.507,1.507-1.026c0.039-0.126,0.051-0.253,0.051-0.354V142.477L280.746,142.477z"/>
		<path d="M283.623,136.614h1.115v8.991h-1.115V136.614z"/>
	</g>
	<g enable-background="new    ">
		<path d="M248.984,157.948c0.024,1.507,0.976,2.128,2.103,2.128c0.799,0,1.292-0.141,1.697-0.316l0.202,0.798
			c-0.394,0.177-1.076,0.394-2.051,0.394c-1.889,0-3.016-1.254-3.016-3.104c0-1.849,1.089-3.293,2.874-3.293
			c2.016,0,2.533,1.748,2.533,2.875c0,0.229-0.012,0.394-0.037,0.521L248.984,157.948L248.984,157.948z M252.252,157.149
			c0.014-0.695-0.291-1.799-1.545-1.799c-1.14,0-1.621,1.026-1.71,1.799H252.252z"/>
		<path d="M254.711,156.68c0-0.785-0.023-1.418-0.05-2.001h0.987l0.062,1.052h0.025c0.443-0.748,1.179-1.179,2.179-1.179
			c1.494,0,2.609,1.254,2.609,3.104c0,2.202-1.355,3.293-2.799,3.293c-0.812,0-1.521-0.354-1.889-0.964h-0.024v3.331h-1.104v-6.637
			H254.711z M255.813,158.314c0,0.165,0.013,0.316,0.051,0.456c0.202,0.772,0.874,1.306,1.672,1.306
			c1.178,0,1.861-0.964,1.861-2.368c0-1.216-0.646-2.269-1.823-2.269c-0.76,0-1.482,0.532-1.685,1.368
			c-0.038,0.14-0.076,0.304-0.076,0.443V158.314z"/>
		<path d="M263.161,152.957c0,0.38-0.266,0.685-0.709,0.685c-0.405,0-0.671-0.305-0.671-0.685s0.278-0.696,0.696-0.696
			C262.883,152.26,263.161,152.564,263.161,152.957z M261.92,160.809v-6.13h1.115v6.13H261.92z"/>
		<path d="M266.227,153.211v1.469h1.596v0.849h-1.596v3.307c0,0.76,0.216,1.189,0.836,1.189c0.304,0,0.48-0.024,0.646-0.075
			l0.051,0.849c-0.215,0.076-0.557,0.152-0.987,0.152c-0.52,0-0.938-0.179-1.203-0.47c-0.303-0.342-0.43-0.887-0.43-1.607v-3.345
			h-0.95v-0.849h0.95v-1.14L266.227,153.211z"/>
		<path d="M269.078,151.817h1.115v3.838h0.024c0.179-0.315,0.456-0.607,0.799-0.798c0.329-0.189,0.722-0.305,1.14-0.305
			c0.823,0,2.141,0.507,2.141,2.609v3.646h-1.114v-3.521c0-0.988-0.367-1.812-1.418-1.812c-0.723,0-1.279,0.507-1.494,1.103
			c-0.063,0.165-0.076,0.33-0.076,0.531v3.698h-1.115L269.078,151.817L269.078,151.817z"/>
		<path d="M276.73,157.948c0.024,1.507,0.976,2.128,2.103,2.128c0.798,0,1.292-0.141,1.697-0.316l0.202,0.798
			c-0.394,0.177-1.076,0.394-2.051,0.394c-1.889,0-3.016-1.254-3.016-3.104c0-1.849,1.089-3.293,2.874-3.293
			c2.016,0,2.533,1.748,2.533,2.875c0,0.229-0.012,0.394-0.037,0.521L276.73,157.948L276.73,157.948z M279.998,157.149
			c0.014-0.695-0.291-1.799-1.545-1.799c-1.14,0-1.621,1.026-1.71,1.799H279.998z"/>
		<path d="M282.457,151.817h1.115v8.992h-1.115V151.817z"/>
		<path d="M286.688,152.957c0,0.38-0.267,0.685-0.709,0.685c-0.405,0-0.671-0.305-0.671-0.685s0.277-0.696,0.695-0.696
			C286.41,152.26,286.688,152.564,286.688,152.957z M285.447,160.809v-6.13h1.115v6.13H285.447z"/>
		<path d="M293.541,159.125c0,0.646,0.015,1.203,0.051,1.685h-0.986l-0.063-1.001h-0.024c-0.278,0.494-0.938,1.142-2.026,1.142
			c-0.962,0-2.114-0.546-2.114-2.687v-3.584h1.113v3.382c0,1.165,0.367,1.963,1.368,1.963c0.747,0,1.267-0.52,1.47-1.025
			c0.062-0.151,0.103-0.354,0.103-0.569v-3.749h1.112v4.444H293.541z"/>
		<path d="M295.392,156.339c0-0.646-0.024-1.152-0.051-1.659h0.977l0.051,1.001h0.037c0.342-0.583,0.912-1.128,1.938-1.128
			c0.823,0,1.456,0.507,1.723,1.229h0.024c0.189-0.354,0.443-0.607,0.697-0.799c0.367-0.277,0.76-0.431,1.342-0.431
			c0.823,0,2.026,0.532,2.026,2.66v3.597h-1.089v-3.457c0-1.19-0.443-1.888-1.33-1.888c-0.646,0-1.127,0.469-1.33,1.001
			c-0.051,0.164-0.088,0.354-0.088,0.557v3.787h-1.09v-3.673c0-0.976-0.431-1.672-1.279-1.672c-0.684,0-1.203,0.558-1.38,1.114
			c-0.063,0.151-0.089,0.354-0.089,0.545v3.686h-1.09V156.339L295.392,156.339z"/>
	</g>
	<g enable-background="new    ">
		<path d="M250.17,177.2c0.48-0.114,1.254-0.19,2.015-0.19c1.102,0,1.811,0.19,2.33,0.621c0.442,0.329,0.722,0.836,0.722,1.507
			c0,0.836-0.558,1.558-1.444,1.874v0.038c0.812,0.19,1.763,0.861,1.763,2.128c0,0.734-0.292,1.305-0.735,1.71
			c-0.583,0.544-1.545,0.798-2.938,0.798c-0.76,0-1.342-0.051-1.709-0.102V177.2H250.17z M251.271,180.695h1
			c1.151,0,1.837-0.619,1.837-1.442c0-0.988-0.747-1.395-1.862-1.395c-0.506,0-0.797,0.038-0.975,0.076V180.695z M251.271,184.773
			c0.229,0.038,0.531,0.052,0.924,0.052c1.141,0,2.191-0.418,2.191-1.659c0-1.152-1-1.646-2.203-1.646h-0.912V184.773z"/>
		<path d="M262.127,183.925c0,0.646,0.015,1.203,0.052,1.685h-0.987l-0.063-1.001h-0.024c-0.278,0.494-0.938,1.142-2.026,1.142
			c-0.962,0-2.114-0.545-2.114-2.687v-3.584h1.113v3.382c0,1.165,0.367,1.964,1.368,1.964c0.747,0,1.267-0.521,1.47-1.026
			c0.062-0.151,0.103-0.354,0.103-0.569v-3.749h1.112v4.444H262.127z"/>
		<path d="M263.979,181.391c0-0.722-0.014-1.342-0.05-1.912h0.975l0.051,1.216h0.037c0.279-0.822,0.963-1.343,1.711-1.343
			c0.113,0,0.202,0.014,0.304,0.025v1.052c-0.113-0.025-0.228-0.025-0.38-0.025c-0.785,0-1.343,0.582-1.494,1.419
			c-0.024,0.151-0.038,0.342-0.038,0.52v3.268h-1.114L263.979,181.391L263.979,181.391z"/>
		<path d="M269.414,177.757c0,0.38-0.266,0.685-0.709,0.685c-0.405,0-0.672-0.305-0.672-0.685s0.279-0.696,0.697-0.696
			C269.135,177.06,269.414,177.365,269.414,177.757z M268.173,185.609v-6.13h1.114v6.13H268.173z"/>
		<path d="M271.758,182.747c0.025,1.507,0.978,2.128,2.104,2.128c0.797,0,1.291-0.141,1.697-0.316l0.202,0.798
			c-0.394,0.178-1.077,0.394-2.053,0.394c-1.887,0-3.014-1.254-3.014-3.104c0-1.849,1.088-3.293,2.874-3.293
			c2.014,0,2.533,1.748,2.533,2.875c0,0.229-0.014,0.394-0.038,0.521L271.758,182.747L271.758,182.747z M275.025,181.949
			c0.014-0.696-0.291-1.8-1.545-1.8c-1.141,0-1.621,1.026-1.709,1.8H275.025z"/>
		<path d="M282.765,176.617v7.408c0,0.545,0.024,1.165,0.051,1.583h-0.987l-0.051-1.062h-0.038
			c-0.329,0.684-1.062,1.203-2.063,1.203c-1.481,0-2.635-1.254-2.635-3.116c-0.013-2.039,1.268-3.28,2.748-3.28
			c0.95,0,1.57,0.443,1.85,0.925h0.024v-3.659L282.765,176.617L282.765,176.617z M281.664,181.974c0-0.14-0.012-0.329-0.051-0.469
			c-0.164-0.696-0.771-1.279-1.607-1.279c-1.151,0-1.837,1.015-1.837,2.355c0,1.24,0.62,2.268,1.812,2.268
			c0.746,0,1.431-0.507,1.633-1.33c0.039-0.15,0.051-0.304,0.051-0.48L281.664,181.974L281.664,181.974z"/>
		<path d="M287.316,181.138c0-0.646-0.025-1.152-0.051-1.659h0.976l0.051,1.001h0.038c0.342-0.583,0.912-1.128,1.938-1.128
			c0.822,0,1.457,0.507,1.723,1.229h0.025c0.188-0.354,0.442-0.607,0.695-0.798c0.367-0.278,0.761-0.432,1.344-0.432
			c0.821,0,2.024,0.532,2.024,2.66v3.597h-1.088v-3.457c0-1.19-0.443-1.888-1.33-1.888c-0.646,0-1.127,0.469-1.33,1.001
			c-0.051,0.164-0.089,0.354-0.089,0.558v3.786h-1.089v-3.673c0-0.976-0.431-1.672-1.279-1.672c-0.684,0-1.203,0.559-1.381,1.114
			c-0.062,0.152-0.088,0.354-0.088,0.545v3.686h-1.09V181.138z"/>
		<path d="M303.012,183.925c0,0.646,0.013,1.203,0.051,1.685h-0.987l-0.063-1.001h-0.025c-0.277,0.494-0.938,1.142-2.025,1.142
			c-0.963,0-2.114-0.545-2.114-2.687v-3.584h1.113v3.382c0,1.165,0.367,1.964,1.368,1.964c0.747,0,1.267-0.521,1.469-1.026
			c0.063-0.151,0.103-0.354,0.103-0.569v-3.749h1.114v4.444H303.012z"/>
		<path d="M304.713,184.482c0.343,0.202,0.925,0.432,1.481,0.432c0.798,0,1.178-0.394,1.178-0.912c0-0.532-0.315-0.812-1.127-1.114
			c-1.114-0.405-1.634-1.001-1.634-1.735c0-0.987,0.811-1.799,2.115-1.799c0.62,0,1.165,0.165,1.494,0.38l-0.267,0.812
			c-0.241-0.151-0.684-0.367-1.254-0.367c-0.658,0-1.014,0.38-1.014,0.836c0,0.507,0.354,0.735,1.151,1.052
			c1.053,0.394,1.609,0.925,1.609,1.836c0,1.091-0.85,1.851-2.28,1.851c-0.671,0-1.292-0.178-1.723-0.432L304.713,184.482z"/>
		<path d="M314.251,185.394c-0.292,0.14-0.938,0.354-1.761,0.354c-1.849,0-3.052-1.254-3.052-3.129c0-1.888,1.292-3.269,3.292-3.269
			c0.659,0,1.242,0.165,1.546,0.33l-0.253,0.849c-0.268-0.14-0.686-0.292-1.293-0.292c-1.405,0-2.165,1.053-2.165,2.318
			c0,1.418,0.912,2.292,2.128,2.292c0.633,0,1.051-0.152,1.367-0.291L314.251,185.394z"/>
		<path d="M315.556,176.617h1.114v8.991h-1.114V176.617z"/>
		<path d="M319.168,182.747c0.025,1.507,0.977,2.128,2.104,2.128c0.798,0,1.292-0.141,1.696-0.316l0.202,0.798
			c-0.393,0.178-1.075,0.394-2.051,0.394c-1.888,0-3.015-1.254-3.015-3.104c0-1.849,1.089-3.293,2.874-3.293
			c2.015,0,2.532,1.748,2.532,2.875c0,0.229-0.012,0.394-0.036,0.521L319.168,182.747L319.168,182.747z M322.435,181.949
			c0.013-0.696-0.291-1.8-1.545-1.8c-1.141,0-1.621,1.026-1.71,1.8H322.435z"/>
	</g>
	<g enable-background="new    ">
		<path d="M249.979,199.686c0.342,0.202,0.925,0.432,1.48,0.432c0.799,0,1.179-0.394,1.179-0.912c0-0.532-0.316-0.812-1.127-1.114
			c-1.114-0.405-1.634-1.001-1.634-1.735c0-0.987,0.812-1.799,2.114-1.799c0.62,0,1.165,0.165,1.495,0.38l-0.267,0.812
			c-0.241-0.151-0.685-0.367-1.255-0.367c-0.657,0-1.013,0.38-1.013,0.836c0,0.507,0.354,0.735,1.152,1.052
			c1.051,0.394,1.607,0.924,1.607,1.836c0,1.09-0.849,1.851-2.279,1.851c-0.671,0-1.291-0.179-1.723-0.432L249.979,199.686z"/>
		<path d="M260.277,199.129c0,0.646,0.014,1.203,0.051,1.685h-0.987l-0.062-1.001h-0.025c-0.277,0.494-0.938,1.142-2.025,1.142
			c-0.962,0-2.114-0.545-2.114-2.687v-3.584h1.113v3.382c0,1.165,0.367,1.963,1.368,1.963c0.746,0,1.267-0.52,1.47-1.025
			c0.062-0.151,0.102-0.354,0.102-0.569v-3.749h1.113v4.444H260.277z"/>
		<path d="M263.472,193.215v1.469h1.596v0.85h-1.596v3.306c0,0.76,0.215,1.189,0.836,1.189c0.303,0,0.479-0.024,0.646-0.075
			l0.05,0.849c-0.215,0.076-0.557,0.152-0.986,0.152c-0.52,0-0.938-0.179-1.203-0.47c-0.305-0.342-0.432-0.887-0.432-1.607v-3.344
			h-0.948v-0.85h0.948v-1.14L263.472,193.215z"/>
		<path d="M271.453,199.129c0,0.646,0.012,1.203,0.051,1.685h-0.987l-0.063-1.001h-0.024c-0.278,0.494-0.938,1.142-2.026,1.142
			c-0.963,0-2.115-0.545-2.115-2.687v-3.584h1.115v3.382c0,1.165,0.367,1.963,1.367,1.963c0.748,0,1.267-0.52,1.469-1.025
			c0.064-0.151,0.102-0.354,0.102-0.569v-3.749h1.115v4.444H271.453z"/>
		<path d="M273.304,196.595c0-0.722-0.014-1.342-0.052-1.912h0.976l0.051,1.216h0.038c0.278-0.822,0.963-1.343,1.71-1.343
			c0.113,0,0.203,0.013,0.304,0.025v1.052c-0.114-0.025-0.228-0.025-0.38-0.025c-0.785,0-1.342,0.582-1.494,1.418
			c-0.024,0.152-0.038,0.343-0.038,0.521v3.268h-1.113L273.304,196.595L273.304,196.595z"/>
		<path d="M277.941,197.951c0.024,1.507,0.975,2.128,2.102,2.128c0.799,0,1.293-0.141,1.697-0.316l0.203,0.798
			c-0.394,0.178-1.076,0.394-2.052,0.394c-1.889,0-3.016-1.254-3.016-3.104c0-1.849,1.09-3.293,2.875-3.293
			c2.015,0,2.533,1.748,2.533,2.875c0,0.229-0.013,0.394-0.038,0.521L277.941,197.951L277.941,197.951z M281.209,197.153
			c0.013-0.695-0.291-1.799-1.545-1.799c-1.141,0-1.621,1.026-1.711,1.799H281.209z"/>
		<path d="M287.456,197.495h0.025c0.15-0.216,0.354-0.481,0.532-0.696l1.811-2.115h1.33l-2.355,2.521l2.697,3.608h-1.367
			l-2.104-2.938l-0.569,0.634v2.305h-1.103v-8.992h1.103V197.495L287.456,197.495z"/>
		<path d="M292.511,196.343c0-0.646-0.014-1.152-0.052-1.659h0.988l0.062,1.015h0.024c0.305-0.57,1.014-1.142,2.026-1.142
			c0.849,0,2.166,0.507,2.166,2.609v3.646h-1.114v-3.533c0-0.987-0.367-1.812-1.419-1.812c-0.722,0-1.292,0.52-1.494,1.14
			c-0.051,0.141-0.076,0.33-0.076,0.521v3.686h-1.114v-4.471H292.511z"/>
		<path d="M305.09,197.698c0,2.267-1.582,3.255-3.052,3.255c-1.646,0-2.938-1.217-2.938-3.154c0-2.039,1.354-3.242,3.04-3.242
			C303.9,194.556,305.09,195.836,305.09,197.698z M300.24,197.761c0,1.342,0.76,2.355,1.849,2.355c1.063,0,1.862-1.001,1.862-2.382
			c0-1.039-0.52-2.344-1.837-2.344C300.809,195.392,300.24,196.608,300.24,197.761z"/>
		<path d="M307.842,193.215v1.469h1.597v0.85h-1.597v3.306c0,0.76,0.216,1.189,0.837,1.189c0.303,0,0.479-0.024,0.646-0.075
			l0.05,0.849c-0.215,0.076-0.557,0.152-0.986,0.152c-0.52,0-0.938-0.179-1.203-0.47c-0.305-0.342-0.432-0.887-0.432-1.607v-3.344
			h-0.948v-0.85h0.948v-1.14L307.842,193.215z"/>
		<path d="M310.54,199.686c0.342,0.202,0.925,0.432,1.481,0.432c0.799,0,1.178-0.394,1.178-0.912c0-0.532-0.316-0.812-1.127-1.114
			c-1.114-0.405-1.633-1.001-1.633-1.735c0-0.987,0.811-1.799,2.114-1.799c0.619,0,1.165,0.165,1.494,0.38l-0.267,0.812
			c-0.241-0.151-0.684-0.367-1.254-0.367c-0.658,0-1.013,0.38-1.013,0.836c0,0.507,0.354,0.735,1.151,1.052
			c1.051,0.394,1.608,0.924,1.608,1.836c0,1.09-0.85,1.851-2.28,1.851c-0.671,0-1.291-0.179-1.722-0.432L310.54,199.686z"/>
	</g>
	<path stroke="#000000" stroke-width="0.0448" stroke-linecap="round" stroke-linejoin="round" stroke-miterlimit="10" d="
		M183.062,177.904l7.117,4.902c-1.124-3.19-1.249-6.156-0.062-9.466L183.062,177.904z"/>
	<path stroke="#000000" stroke-width="0.0448" stroke-linecap="round" stroke-linejoin="round" stroke-miterlimit="10" d="
		M168.5,136.929l7.117,4.901c-1.124-3.191-1.25-6.157-0.062-9.464L168.5,136.929z"/>
	<path stroke="#000000" stroke-width="0.0448" stroke-linecap="round" stroke-linejoin="round" stroke-miterlimit="10" d="
		M195.112,80.357l7.118,4.902c-1.125-3.191-1.25-6.156-0.064-9.465L195.112,80.357z"/>
	<path stroke="#000000" stroke-width="0.0448" stroke-linecap="round" stroke-linejoin="round" stroke-miterlimit="10" d="
		M182.935,20.52l7.114,4.901c-1.12-3.19-1.246-6.155-0.062-9.464L182.935,20.52z"/>
	<g enable-background="new    ">
		<path d="M251.55,252.448l-0.886,2.685h-1.141l2.913-8.536h1.316l2.912,8.536h-1.178l-0.911-2.685H251.55z M254.361,251.587
			l-0.848-2.457c-0.19-0.558-0.317-1.064-0.443-1.558h-0.025c-0.127,0.492-0.254,1.024-0.432,1.545l-0.836,2.47H254.361z"/>
		<path d="M257.847,250.662c0-0.646-0.014-1.152-0.052-1.659h0.988l0.062,1.014h0.024c0.305-0.569,1.015-1.141,2.026-1.141
			c0.849,0,2.166,0.507,2.166,2.608v3.647h-1.114v-3.533c0-0.988-0.367-1.812-1.419-1.812c-0.722,0-1.292,0.52-1.494,1.14
			c-0.051,0.14-0.076,0.33-0.076,0.521v3.686h-1.113L257.847,250.662L257.847,250.662z"/>
		<path d="M270.008,253.448c0,0.646,0.015,1.202,0.052,1.685h-0.987l-0.063-1.001h-0.024c-0.278,0.494-0.938,1.141-2.026,1.141
			c-0.962,0-2.113-0.545-2.113-2.686v-3.584h1.112v3.382c0,1.165,0.367,1.963,1.368,1.963c0.747,0,1.267-0.52,1.47-1.026
			c0.062-0.15,0.103-0.354,0.103-0.568v-3.749h1.113v4.444H270.008z"/>
		<path d="M271.708,254.006c0.342,0.202,0.925,0.431,1.481,0.431c0.799,0,1.178-0.393,1.178-0.912c0-0.531-0.316-0.811-1.127-1.113
			c-1.114-0.405-1.633-1.001-1.633-1.735c0-0.988,0.811-1.799,2.114-1.799c0.619,0,1.165,0.165,1.494,0.38l-0.267,0.811
			c-0.241-0.15-0.684-0.366-1.254-0.366c-0.658,0-1.013,0.38-1.013,0.836c0,0.507,0.354,0.734,1.151,1.052
			c1.052,0.393,1.608,0.924,1.608,1.836c0,1.09-0.849,1.85-2.28,1.85c-0.671,0-1.291-0.178-1.722-0.431L271.708,254.006z"/>
	</g>
</g>
</svg>
