<?xml version="1.0" encoding="utf-8"?>
<!-- Generator: Adobe Illustrator 19.2.0, SVG Export Plug-In . SVG Version: 6.00 Build 0)  -->
<svg version="1.1" xmlns="http://www.w3.org/2000/svg" xmlns:xlink="http://www.w3.org/1999/xlink" x="0px" y="0px"
	 viewBox="0 0 326 425.2" style="enable-background:new 0 0 326 425.2;" xml:space="preserve">
<style type="text/css">
	.st0{fill:#F1F2F2;}
	.st1{fill:none;stroke:#231F20;stroke-miterlimit:10;}
	.st2{fill:none;stroke:#231F20;stroke-miterlimit:10;stroke-dasharray:8.2477,8.2477;}
	.st3{fill:#231F20;}
	.st4{fill:none;stroke:#231F20;stroke-miterlimit:10;stroke-dasharray:8;}
	.st5{fill:none;stroke:#231F20;stroke-linecap:round;stroke-linejoin:round;stroke-miterlimit:10;}
</style>
<g id="artwork">
	<g>
		<g id="XMLID_1_">
			<g>
				<path class="st0" d="M214.7,83.8c85.5,15.6,21.1,168.6,21.1,168.6s0,0-2,5c-2,5-6.1,15.1-14.3,35.2c-16.3,40.3,0,83.4,0,83.4
					s6.7,20.4-19.7,22.8c0,0-19.2,1.2-16.3-22.5h-45.8c0,21.3-14.9,22.5-14.9,22.5c-26.9-1.2-19.5-22.8-19.5-22.8s16.3-43.2,0-83.4
					c-16.3-40.2-16.3-40.2-16.3-40.2s-4.7-12.5-9.3-30.7C66,176.3,54.4,95,115.5,83.8c4.6-0.8,14.1-1.1,18.7-2.3
					c7.7-2.2,18.7-8.3,30.9-8.3s23.2,6.1,30.9,8.3C200.6,82.8,210.1,83,214.7,83.8z"/>
			</g>
			<g>
				<path class="st1" d="M183.5,376.4c-2.9,23.6,16.3,22.5,16.3,22.5c26.4-2.3,19.7-22.8,19.7-22.8s-16.3-43.2,0-83.4
					c8.2-20.1,12.2-30.2,14.3-35.2c2-5,2-5,2-5s64.4-153-21.1-168.6c-4.6-0.8-14.1-1.1-18.7-2.3c-7.7-2.2-18.7-8.3-30.9-8.3
					s-23.2,6.1-30.9,8.3c-4.5,1.3-14,1.5-18.7,2.3C54.4,95,66,176.3,77.7,221.8c4.6,18.2,9.3,30.7,9.3,30.7s0,0,16.3,40.2
					c16.3,40.3,0,83.4,0,83.4s-7.4,21.6,19.5,22.8c0,0,14.9-1.2,14.9-22.5"/>
			</g>
		</g>
	</g>
	<path class="st1" d="M124.8,344.5C84.9,193.8,122.8,83,122.8,83l9.7-32.4"/>
	<path class="st1" d="M134.2,81.5"/>
	<g>
		<g>
			<path class="st1" d="M147.9,344.5c0-1.3,0-2.7,0.1-4"/>
			<path class="st2" d="M148.1,332.2c1.6-145.1-16.1-218.9-22.8-241.5"/>
			<path class="st1" d="M124.1,86.8c-0.8-2.5-1.3-3.8-1.3-3.8"/>
		</g>
	</g>
	<ellipse class="st1" cx="124.8" cy="346.3" rx="3.4" ry="1.8"/>
	<ellipse class="st1" cx="147.9" cy="346.3" rx="3.4" ry="1.8"/>
	<g>
		<g>
			<line class="st1" x1="95.7" y1="211" x2="98" y2="179"/>
			<g>
				<polygon class="st3" points="101.5,182.1 97.9,180.3 94.1,181.6 98.4,173.1 				"/>
			</g>
		</g>
	</g>
	<g>
		<g>
			<line class="st1" x1="173.3" y1="213.9" x2="175.6" y2="182"/>
			<g>
				<polygon class="st3" points="179.1,185 175.5,183.2 171.7,184.5 176,176 				"/>
			</g>
		</g>
	</g>
	<g>
		<g>
			<line class="st1" x1="137.1" y1="211" x2="135" y2="179"/>
			<g>
				<polygon class="st3" points="138.9,181.6 135.1,180.3 131.5,182.1 134.6,173.1 				"/>
			</g>
		</g>
	</g>
	<g>
		<g>
			<path class="st1" d="M214.6,171.5c0,0,0.7,21.1,0.3,35.2"/>
			<g>
				<polygon class="st3" points="211.2,203.7 214.8,205.4 218.6,204 214.6,212.6 				"/>
			</g>
		</g>
	</g>
	<path class="st1" d="M124.8,348.1c0,0,9.8,6.9,23.1,0"/>
	<path class="st4" d="M195.2,81.5c0,0,26.8,110.6-2.1,261.5"/>
	<path class="st1" d="M170,343c-21.8-173.4,25.2-261.5,25.2-261.5l14.3-30.9"/>
	<ellipse class="st1" cx="193.1" cy="344.8" rx="3.4" ry="1.8"/>
	<ellipse class="st1" cx="170" cy="344.8" rx="3.4" ry="1.8"/>
	<path class="st1" d="M193.1,346.6c0,0-9.8,6.9-23.1,0"/>
	<path class="st1" d="M176.6,18c0.4-3.1,0.8-8.7,0.2-11.2"/>
	<path class="st1" d="M196,81.5c0,0-6.6-21.4-15.7-26.5c-4.6-2.6-12.3-4.9-8.5-19.5c0.8-3.1,2.3-7.4,3.5-11.9"/>
	<path class="st1" d="M41.3,59c-2.4-0.1-7.2-0.6-10.4-1.8"/>
	<path class="st1" d="M122.8,83c0,0-10.9-36.4-42.5-42.1c-7.6-1.4-14.3-1.2-28,13.4c0,0-2.3,2.6-6.8,3.9"/>
	<path class="st5" d="M44.5,61.2c0,0,2.7-6.2-0.7-7.5c-2.2-0.9-2.7-1-5.3,8.1c0,0-5.4,14.9-10.5,12.5c0,0-4.2-0.9-5.5-18
		c0,0-5.2,21.9,7.3,23.9C29.8,80.1,37.5,81.7,44.5,61.2z"/>
	<path class="st5" d="M40.1,56.4c0,0,2.1-0.8,1.7,1.1c0,0-3.9,11.5-8.6,14.2"/>
	<path class="st5" d="M179.6,20.4c0,0,5.7-3.6,3.6-6.6c-1.4-2-1.7-2.4-8.9,3.7c0,0-12.8,9.4-15.7,4.5c0,0-3-3.1,5.5-18
		c0,0-16.5,15.3-7.3,23.8C156.9,27.9,162.4,33.5,179.6,20.4z"/>
	<path class="st5" d="M178.7,14c0,0,2.2,0.5,0.8,1.9c0,0-9.6,7.3-15,7"/>
</g>
<g id="text">
	<g>
		<path class="st3" d="M20.4,411.2H18v-0.9h6v0.9h-2.5v7.2h-1.1V411.2z"/>
		<path class="st3" d="M25.8,411c0,0.4-0.3,0.6-0.7,0.6c-0.4,0-0.6-0.3-0.6-0.6c0-0.4,0.3-0.7,0.7-0.7
			C25.6,410.3,25.8,410.6,25.8,411z M24.7,418.4v-5.8h1.1v5.8H24.7z"/>
		<path class="st3" d="M28.1,415.7c0,1.4,0.9,2,2,2c0.8,0,1.2-0.1,1.6-0.3l0.2,0.8c-0.4,0.2-1,0.4-1.9,0.4c-1.8,0-2.9-1.2-2.9-2.9
			s1-3.1,2.7-3.1c1.9,0,2.4,1.7,2.4,2.7c0,0.2,0,0.4,0,0.5H28.1z M31.2,415c0-0.7-0.3-1.7-1.5-1.7c-1.1,0-1.5,1-1.6,1.7H31.2z"/>
		<path class="st3" d="M39.3,418.4l-0.1-0.7h0c-0.3,0.5-0.9,0.9-1.8,0.9c-1.2,0-1.8-0.8-1.8-1.7c0-1.4,1.2-2.2,3.5-2.2v-0.1
			c0-0.5-0.1-1.3-1.3-1.3c-0.5,0-1.1,0.2-1.5,0.4L36,413c0.5-0.3,1.2-0.5,1.9-0.5c1.8,0,2.2,1.2,2.2,2.4v2.2c0,0.5,0,1,0.1,1.4H39.3
			z M39.1,415.5c-1.2,0-2.5,0.2-2.5,1.3c0,0.7,0.5,1,1,1c0.8,0,1.2-0.5,1.4-1c0-0.1,0.1-0.2,0.1-0.3V415.5z"/>
		<path class="st3" d="M47.6,418.4l-0.1-0.7h0c-0.3,0.5-0.9,0.9-1.8,0.9c-1.2,0-1.8-0.8-1.8-1.7c0-1.4,1.2-2.2,3.5-2.2v-0.1
			c0-0.5-0.1-1.3-1.3-1.3c-0.5,0-1.1,0.2-1.5,0.4l-0.2-0.7c0.5-0.3,1.2-0.5,1.9-0.5c1.8,0,2.2,1.2,2.2,2.4v2.2c0,0.5,0,1,0.1,1.4
			H47.6z M47.4,415.5c-1.2,0-2.5,0.2-2.5,1.3c0,0.7,0.5,1,1,1c0.8,0,1.2-0.5,1.4-1c0-0.1,0.1-0.2,0.1-0.3V415.5z"/>
		<path class="st3" d="M50.1,414.2c0-0.6,0-1.1,0-1.6H51l0.1,1h0c0.3-0.6,1-1.1,1.9-1.1c0.8,0,2.1,0.5,2.1,2.5v3.5H54v-3.3
			c0-0.9-0.3-1.7-1.3-1.7c-0.7,0-1.2,0.5-1.4,1.1c0,0.1-0.1,0.3-0.1,0.5v3.5h-1.1V414.2z"/>
		<path class="st3" d="M61.8,409.9v7c0,0.5,0,1.1,0,1.5h-0.9l0-1h0c-0.3,0.6-1,1.1-2,1.1c-1.4,0-2.5-1.2-2.5-3
			c0-1.9,1.2-3.1,2.6-3.1c0.9,0,1.5,0.4,1.8,0.9h0v-3.5H61.8z M60.8,415c0-0.1,0-0.3,0-0.4c-0.2-0.7-0.7-1.2-1.5-1.2
			c-1.1,0-1.7,1-1.7,2.2c0,1.2,0.6,2.1,1.7,2.1c0.7,0,1.4-0.5,1.5-1.3c0-0.1,0-0.3,0-0.5V415z"/>
		<path class="st3" d="M66.1,418.4c0-0.4,0-1,0-1.5v-7h1v3.6h0c0.4-0.6,1-1.1,2-1.1c1.4,0,2.5,1.2,2.4,3c0,2.1-1.3,3.1-2.6,3.1
			c-0.8,0-1.5-0.3-1.9-1.1h0l0,1H66.1z M67.2,416.1c0,0.1,0,0.3,0,0.4c0.2,0.7,0.8,1.2,1.6,1.2c1.1,0,1.8-0.9,1.8-2.2
			c0-1.2-0.6-2.2-1.7-2.2c-0.7,0-1.4,0.5-1.6,1.3c0,0.1-0.1,0.3-0.1,0.4V416.1z"/>
		<path class="st3" d="M76.8,411v1.7h1.5v0.8h-1.5v3.1c0,0.7,0.2,1.1,0.8,1.1c0.3,0,0.5,0,0.6-0.1l0,0.8c-0.2,0.1-0.5,0.1-0.9,0.1
			c-0.5,0-0.9-0.2-1.1-0.4c-0.3-0.3-0.4-0.8-0.4-1.5v-3.2h-0.9v-0.8h0.9v-1.4L76.8,411z"/>
		<path class="st3" d="M80.6,411c0,0.4-0.3,0.6-0.7,0.6c-0.4,0-0.6-0.3-0.6-0.6c0-0.4,0.3-0.7,0.7-0.7
			C80.4,410.3,80.6,410.6,80.6,411z M79.5,418.4v-5.8h1.1v5.8H79.5z"/>
		<path class="st3" d="M87.3,412.6c0,0.4,0,0.9,0,1.6v3.4c0,1.3-0.3,2.1-0.8,2.7c-0.6,0.5-1.4,0.7-2.1,0.7c-0.7,0-1.5-0.2-1.9-0.5
			l0.3-0.8c0.4,0.2,1,0.5,1.7,0.5c1.1,0,1.9-0.6,1.9-2v-0.6h0c-0.3,0.5-0.9,1-1.8,1c-1.4,0-2.5-1.2-2.5-2.8c0-2,1.3-3.1,2.6-3.1
			c1,0,1.6,0.5,1.8,1h0l0-0.9H87.3z M86.2,414.9c0-0.2,0-0.3-0.1-0.5c-0.2-0.6-0.7-1.1-1.5-1.1c-1,0-1.7,0.9-1.7,2.2
			c0,1.1,0.6,2.1,1.7,2.1c0.6,0,1.2-0.4,1.5-1.1c0.1-0.2,0.1-0.4,0.1-0.6V414.9z"/>
		<path class="st3" d="M89,409.9H90v3.6h0c0.2-0.3,0.4-0.6,0.8-0.7c0.3-0.2,0.7-0.3,1.1-0.3c0.8,0,2,0.5,2,2.5v3.5h-1.1v-3.3
			c0-0.9-0.3-1.7-1.3-1.7c-0.7,0-1.2,0.5-1.4,1.1c-0.1,0.1-0.1,0.3-0.1,0.5v3.5H89V409.9z"/>
		<path class="st3" d="M96.9,411v1.7h1.5v0.8h-1.5v3.1c0,0.7,0.2,1.1,0.8,1.1c0.3,0,0.5,0,0.6-0.1l0,0.8c-0.2,0.1-0.5,0.1-0.9,0.1
			c-0.5,0-0.9-0.2-1.1-0.4c-0.3-0.3-0.4-0.8-0.4-1.5v-3.2h-0.9v-0.8h0.9v-1.4L96.9,411z"/>
		<path class="st3" d="M99.6,409.9h1.1v8.5h-1.1V409.9z"/>
		<path class="st3" d="M102.8,412.6l1.3,3.4c0.1,0.4,0.3,0.8,0.4,1.2h0c0.1-0.3,0.2-0.8,0.4-1.2l1.2-3.4h1.1l-1.6,4.1
			c-0.8,2-1.3,3-2,3.6c-0.5,0.5-1,0.6-1.3,0.7l-0.3-0.9c0.3-0.1,0.6-0.3,0.9-0.5c0.3-0.2,0.6-0.6,0.9-1.2c0-0.1,0.1-0.2,0.1-0.3
			c0-0.1,0-0.1-0.1-0.3l-2.1-5.3H102.8z"/>
		<path class="st3" d="M111.9,411v1.7h1.5v0.8h-1.5v3.1c0,0.7,0.2,1.1,0.8,1.1c0.3,0,0.5,0,0.6-0.1l0,0.8c-0.2,0.1-0.5,0.1-0.9,0.1
			c-0.5,0-0.9-0.2-1.1-0.4c-0.3-0.3-0.4-0.8-0.4-1.5v-3.2h-0.9v-0.8h0.9v-1.4L111.9,411z"/>
		<path class="st3" d="M119.7,415.5c0,2.1-1.5,3.1-2.9,3.1c-1.6,0-2.8-1.2-2.8-3c0-1.9,1.3-3.1,2.9-3.1
			C118.6,412.5,119.7,413.7,119.7,415.5z M115.1,415.5c0,1.3,0.7,2.2,1.8,2.2c1,0,1.8-0.9,1.8-2.3c0-1-0.5-2.2-1.7-2.2
			C115.7,413.3,115.1,414.4,115.1,415.5z"/>
		<path class="st3" d="M126.1,412.6c0,0.4,0,0.9,0,1.6v3.4c0,1.3-0.3,2.1-0.8,2.7c-0.6,0.5-1.4,0.7-2.1,0.7c-0.7,0-1.5-0.2-1.9-0.5
			l0.3-0.8c0.4,0.2,1,0.5,1.7,0.5c1.1,0,1.9-0.6,1.9-2v-0.6h0c-0.3,0.5-0.9,1-1.8,1c-1.4,0-2.5-1.2-2.5-2.8c0-2,1.3-3.1,2.6-3.1
			c1,0,1.6,0.5,1.8,1h0l0-0.9H126.1z M125,414.9c0-0.2,0-0.3-0.1-0.5c-0.2-0.6-0.7-1.1-1.5-1.1c-1,0-1.7,0.9-1.7,2.2
			c0,1.1,0.6,2.1,1.7,2.1c0.6,0,1.2-0.4,1.5-1.1c0.1-0.2,0.1-0.4,0.1-0.6V414.9z"/>
		<path class="st3" d="M128.4,415.7c0,1.4,0.9,2,2,2c0.8,0,1.2-0.1,1.6-0.3l0.2,0.8c-0.4,0.2-1,0.4-1.9,0.4c-1.8,0-2.9-1.2-2.9-2.9
			s1-3.1,2.7-3.1c1.9,0,2.4,1.7,2.4,2.7c0,0.2,0,0.4,0,0.5H128.4z M131.5,415c0-0.7-0.3-1.7-1.5-1.7c-1.1,0-1.5,1-1.6,1.7H131.5z"/>
		<path class="st3" d="M135.1,411v1.7h1.5v0.8h-1.5v3.1c0,0.7,0.2,1.1,0.8,1.1c0.3,0,0.5,0,0.6-0.1l0,0.8c-0.2,0.1-0.5,0.1-0.9,0.1
			c-0.5,0-0.9-0.2-1.1-0.4c-0.3-0.3-0.4-0.8-0.4-1.5v-3.2h-0.9v-0.8h0.9v-1.4L135.1,411z"/>
		<path class="st3" d="M137.8,409.9h1.1v3.6h0c0.2-0.3,0.4-0.6,0.8-0.7c0.3-0.2,0.7-0.3,1.1-0.3c0.8,0,2,0.5,2,2.5v3.5h-1.1v-3.3
			c0-0.9-0.3-1.7-1.3-1.7c-0.7,0-1.2,0.5-1.4,1.1c-0.1,0.1-0.1,0.3-0.1,0.5v3.5h-1.1V409.9z"/>
		<path class="st3" d="M145,415.7c0,1.4,0.9,2,2,2c0.8,0,1.2-0.1,1.6-0.3l0.2,0.8c-0.4,0.2-1,0.4-1.9,0.4c-1.8,0-2.9-1.2-2.9-2.9
			s1-3.1,2.7-3.1c1.9,0,2.4,1.7,2.4,2.7c0,0.2,0,0.4,0,0.5H145z M148.1,415c0-0.7-0.3-1.7-1.5-1.7c-1.1,0-1.5,1-1.6,1.7H148.1z"/>
		<path class="st3" d="M150.4,414.4c0-0.7,0-1.3,0-1.8h0.9l0,1.1h0c0.3-0.8,0.9-1.3,1.6-1.3c0.1,0,0.2,0,0.3,0v1c-0.1,0-0.2,0-0.4,0
			c-0.7,0-1.3,0.6-1.4,1.4c0,0.1,0,0.3,0,0.5v3.1h-1V414.4z"/>
		<path class="st3" d="M160.1,418.4l-0.1-0.7h0c-0.3,0.5-0.9,0.9-1.8,0.9c-1.2,0-1.8-0.8-1.8-1.7c0-1.4,1.2-2.2,3.5-2.2v-0.1
			c0-0.5-0.1-1.3-1.3-1.3c-0.5,0-1.1,0.2-1.5,0.4l-0.2-0.7c0.5-0.3,1.2-0.5,1.9-0.5c1.8,0,2.2,1.2,2.2,2.4v2.2c0,0.5,0,1,0.1,1.4
			H160.1z M160,415.5c-1.2,0-2.5,0.2-2.5,1.3c0,0.7,0.5,1,1,1c0.8,0,1.2-0.5,1.4-1c0-0.1,0.1-0.2,0.1-0.3V415.5z"/>
		<path class="st3" d="M162.6,417.4c0.3,0.2,0.9,0.4,1.4,0.4c0.8,0,1.1-0.4,1.1-0.9c0-0.5-0.3-0.8-1.1-1.1c-1-0.4-1.5-0.9-1.5-1.6
			c0-0.9,0.8-1.7,2-1.7c0.6,0,1.1,0.2,1.4,0.4l-0.3,0.8c-0.2-0.1-0.6-0.3-1.2-0.3c-0.6,0-1,0.4-1,0.8c0,0.5,0.3,0.7,1.1,1
			c1,0.4,1.5,0.9,1.5,1.8c0,1-0.8,1.7-2.2,1.7c-0.6,0-1.2-0.2-1.6-0.4L162.6,417.4z"/>
		<path class="st3" d="M173.2,418.4l-0.1-0.7h0c-0.3,0.5-0.9,0.9-1.8,0.9c-1.2,0-1.8-0.8-1.8-1.7c0-1.4,1.2-2.2,3.5-2.2v-0.1
			c0-0.5-0.1-1.3-1.3-1.3c-0.5,0-1.1,0.2-1.5,0.4L170,413c0.5-0.3,1.2-0.5,1.9-0.5c1.8,0,2.2,1.2,2.2,2.4v2.2c0,0.5,0,1,0.1,1.4
			H173.2z M173,415.5c-1.2,0-2.5,0.2-2.5,1.3c0,0.7,0.5,1,1,1c0.8,0,1.2-0.5,1.4-1c0-0.1,0.1-0.2,0.1-0.3V415.5z"/>
		<path class="st3" d="M175.6,417.4c0.3,0.2,0.9,0.4,1.4,0.4c0.8,0,1.1-0.4,1.1-0.9c0-0.5-0.3-0.8-1.1-1.1c-1-0.4-1.5-0.9-1.5-1.6
			c0-0.9,0.8-1.7,2-1.7c0.6,0,1.1,0.2,1.4,0.4l-0.3,0.8c-0.2-0.1-0.6-0.3-1.2-0.3c-0.6,0-1,0.4-1,0.8c0,0.5,0.3,0.7,1.1,1
			c1,0.4,1.5,0.9,1.5,1.8c0,1-0.8,1.7-2.2,1.7c-0.6,0-1.2-0.2-1.6-0.4L175.6,417.4z"/>
		<path class="st3" d="M180.4,417.4c0.3,0.2,0.9,0.4,1.4,0.4c0.8,0,1.1-0.4,1.1-0.9c0-0.5-0.3-0.8-1.1-1.1c-1-0.4-1.5-0.9-1.5-1.6
			c0-0.9,0.8-1.7,2-1.7c0.6,0,1.1,0.2,1.4,0.4l-0.3,0.8c-0.2-0.1-0.6-0.3-1.2-0.3c-0.6,0-1,0.4-1,0.8c0,0.5,0.3,0.7,1.1,1
			c1,0.4,1.5,0.9,1.5,1.8c0,1-0.8,1.7-2.2,1.7c-0.6,0-1.2-0.2-1.6-0.4L180.4,417.4z"/>
		<path class="st3" d="M186.5,411c0,0.4-0.3,0.6-0.7,0.6c-0.4,0-0.6-0.3-0.6-0.6c0-0.4,0.3-0.7,0.7-0.7
			C186.2,410.3,186.5,410.6,186.5,411z M185.3,418.4v-5.8h1.1v5.8H185.3z"/>
		<path class="st3" d="M187.9,417.4c0.3,0.2,0.9,0.4,1.4,0.4c0.8,0,1.1-0.4,1.1-0.9c0-0.5-0.3-0.8-1.1-1.1c-1-0.4-1.5-0.9-1.5-1.6
			c0-0.9,0.8-1.7,2-1.7c0.6,0,1.1,0.2,1.4,0.4l-0.3,0.8c-0.2-0.1-0.6-0.3-1.2-0.3c-0.6,0-1,0.4-1,0.8c0,0.5,0.3,0.7,1.1,1
			c1,0.4,1.5,0.9,1.5,1.8c0,1-0.8,1.7-2.2,1.7c-0.6,0-1.2-0.2-1.6-0.4L187.9,417.4z"/>
		<path class="st3" d="M194.1,411v1.7h1.5v0.8h-1.5v3.1c0,0.7,0.2,1.1,0.8,1.1c0.3,0,0.5,0,0.6-0.1l0,0.8c-0.2,0.1-0.5,0.1-0.9,0.1
			c-0.5,0-0.9-0.2-1.1-0.4c-0.3-0.3-0.4-0.8-0.4-1.5v-3.2h-0.9v-0.8h0.9v-1.4L194.1,411z"/>
		<path class="st3" d="M200,418.4l-0.1-0.7h0c-0.3,0.5-0.9,0.9-1.8,0.9c-1.2,0-1.8-0.8-1.8-1.7c0-1.4,1.2-2.2,3.5-2.2v-0.1
			c0-0.5-0.1-1.3-1.3-1.3c-0.5,0-1.1,0.2-1.5,0.4l-0.2-0.7c0.5-0.3,1.2-0.5,1.9-0.5c1.8,0,2.2,1.2,2.2,2.4v2.2c0,0.5,0,1,0.1,1.4
			H200z M199.9,415.5c-1.2,0-2.5,0.2-2.5,1.3c0,0.7,0.5,1,1,1c0.8,0,1.2-0.5,1.4-1c0-0.1,0.1-0.2,0.1-0.3V415.5z"/>
		<path class="st3" d="M202.6,414.2c0-0.6,0-1.1,0-1.6h0.9l0.1,1h0c0.3-0.6,1-1.1,1.9-1.1c0.8,0,2.1,0.5,2.1,2.5v3.5h-1.1v-3.3
			c0-0.9-0.3-1.7-1.3-1.7c-0.7,0-1.2,0.5-1.4,1.1c0,0.1-0.1,0.3-0.1,0.5v3.5h-1.1V414.2z"/>
		<path class="st3" d="M210.5,411v1.7h1.5v0.8h-1.5v3.1c0,0.7,0.2,1.1,0.8,1.1c0.3,0,0.5,0,0.6-0.1l0,0.8c-0.2,0.1-0.5,0.1-0.9,0.1
			c-0.5,0-0.9-0.2-1.1-0.4c-0.3-0.3-0.4-0.8-0.4-1.5v-3.2h-0.9v-0.8h0.9v-1.4L210.5,411z"/>
		<path class="st3" d="M219.9,418.2c-0.3,0.1-0.9,0.3-1.7,0.3c-1.8,0-2.9-1.2-2.9-3c0-1.8,1.2-3.1,3.1-3.1c0.6,0,1.2,0.2,1.5,0.3
			l-0.2,0.8c-0.3-0.1-0.6-0.3-1.2-0.3c-1.3,0-2.1,1-2.1,2.2c0,1.3,0.9,2.2,2,2.2c0.6,0,1-0.2,1.3-0.3L219.9,418.2z"/>
		<path class="st3" d="M226.3,415.5c0,2.1-1.5,3.1-2.9,3.1c-1.6,0-2.8-1.2-2.8-3c0-1.9,1.3-3.1,2.9-3.1
			C225.2,412.5,226.3,413.7,226.3,415.5z M221.7,415.5c0,1.3,0.7,2.2,1.8,2.2c1,0,1.8-0.9,1.8-2.3c0-1-0.5-2.2-1.7-2.2
			S221.7,414.4,221.7,415.5z"/>
		<path class="st3" d="M227.6,414.2c0-0.6,0-1.1,0-1.6h0.9l0,0.9h0c0.3-0.6,0.9-1.1,1.8-1.1c0.8,0,1.4,0.5,1.6,1.2h0
			c0.2-0.3,0.4-0.6,0.6-0.8c0.3-0.3,0.7-0.4,1.3-0.4c0.8,0,1.9,0.5,1.9,2.5v3.4h-1v-3.3c0-1.1-0.4-1.8-1.3-1.8c-0.6,0-1.1,0.4-1.2,1
			c0,0.1-0.1,0.3-0.1,0.5v3.6h-1V415c0-0.9-0.4-1.6-1.2-1.6c-0.7,0-1.1,0.5-1.3,1.1c-0.1,0.2-0.1,0.3-0.1,0.5v3.5h-1V414.2z"/>
		<path class="st3" d="M237.6,414.5c0-0.7,0-1.3,0-1.9h0.9l0,1h0c0.4-0.7,1.1-1.1,2.1-1.1c1.4,0,2.5,1.2,2.5,3
			c0,2.1-1.3,3.1-2.6,3.1c-0.8,0-1.4-0.3-1.8-0.9h0v3.2h-1V414.5z M238.7,416.1c0,0.2,0,0.3,0,0.4c0.2,0.7,0.8,1.2,1.6,1.2
			c1.1,0,1.8-0.9,1.8-2.2c0-1.2-0.6-2.2-1.7-2.2c-0.7,0-1.4,0.5-1.6,1.3c0,0.1-0.1,0.3-0.1,0.4V416.1z"/>
		<path class="st3" d="M244.5,414.4c0-0.7,0-1.3,0-1.8h0.9l0,1.1h0c0.3-0.8,0.9-1.3,1.6-1.3c0.1,0,0.2,0,0.3,0v1c-0.1,0-0.2,0-0.4,0
			c-0.7,0-1.3,0.6-1.4,1.4c0,0.1,0,0.3,0,0.5v3.1h-1V414.4z"/>
		<path class="st3" d="M248.8,415.7c0,1.4,0.9,2,2,2c0.8,0,1.2-0.1,1.6-0.3l0.2,0.8c-0.4,0.2-1,0.4-1.9,0.4c-1.8,0-2.9-1.2-2.9-2.9
			s1-3.1,2.7-3.1c1.9,0,2.4,1.7,2.4,2.7c0,0.2,0,0.4,0,0.5H248.8z M251.9,415c0-0.7-0.3-1.7-1.5-1.7c-1.1,0-1.5,1-1.6,1.7H251.9z"/>
		<path class="st3" d="M254.1,417.4c0.3,0.2,0.9,0.4,1.4,0.4c0.8,0,1.1-0.4,1.1-0.9c0-0.5-0.3-0.8-1.1-1.1c-1-0.4-1.5-0.9-1.5-1.6
			c0-0.9,0.8-1.7,2-1.7c0.6,0,1.1,0.2,1.4,0.4l-0.3,0.8c-0.2-0.1-0.6-0.3-1.2-0.3c-0.6,0-1,0.4-1,0.8c0,0.5,0.3,0.7,1.1,1
			c1,0.4,1.5,0.9,1.5,1.8c0,1-0.8,1.7-2.2,1.7c-0.6,0-1.2-0.2-1.6-0.4L254.1,417.4z"/>
		<path class="st3" d="M258.9,417.4c0.3,0.2,0.9,0.4,1.4,0.4c0.8,0,1.1-0.4,1.1-0.9c0-0.5-0.3-0.8-1.1-1.1c-1-0.4-1.5-0.9-1.5-1.6
			c0-0.9,0.8-1.7,2-1.7c0.6,0,1.1,0.2,1.4,0.4l-0.3,0.8c-0.2-0.1-0.6-0.3-1.2-0.3c-0.6,0-1,0.4-1,0.8c0,0.5,0.3,0.7,1.1,1
			c1,0.4,1.5,0.9,1.5,1.8c0,1-0.8,1.7-2.2,1.7c-0.6,0-1.2-0.2-1.6-0.4L258.9,417.4z"/>
		<path class="st3" d="M264.4,415.7c0,1.4,0.9,2,2,2c0.8,0,1.2-0.1,1.6-0.3l0.2,0.8c-0.4,0.2-1,0.4-1.9,0.4c-1.8,0-2.9-1.2-2.9-2.9
			s1-3.1,2.7-3.1c1.9,0,2.4,1.7,2.4,2.7c0,0.2,0,0.4,0,0.5H264.4z M267.5,415c0-0.7-0.3-1.7-1.5-1.7c-1.1,0-1.5,1-1.6,1.7H267.5z"/>
		<path class="st3" d="M269.6,417.4c0.3,0.2,0.9,0.4,1.4,0.4c0.8,0,1.1-0.4,1.1-0.9c0-0.5-0.3-0.8-1.1-1.1c-1-0.4-1.5-0.9-1.5-1.6
			c0-0.9,0.8-1.7,2-1.7c0.6,0,1.1,0.2,1.4,0.4l-0.3,0.8c-0.2-0.1-0.6-0.3-1.2-0.3c-0.6,0-1,0.4-1,0.8c0,0.5,0.3,0.7,1.1,1
			c1,0.4,1.5,0.9,1.5,1.8c0,1-0.8,1.7-2.2,1.7c-0.6,0-1.2-0.2-1.6-0.4L269.6,417.4z"/>
		<path class="st3" d="M281.9,416.9c0,0.6,0,1.1,0,1.6H281l-0.1-0.9h0c-0.3,0.5-0.9,1.1-1.9,1.1c-0.9,0-2-0.5-2-2.5v-3.4h1.1v3.2
			c0,1.1,0.3,1.8,1.3,1.8c0.7,0,1.2-0.5,1.4-1c0.1-0.2,0.1-0.3,0.1-0.5v-3.6h1.1V416.9z"/>
		<path class="st3" d="M285,411v1.7h1.5v0.8H285v3.1c0,0.7,0.2,1.1,0.8,1.1c0.3,0,0.5,0,0.6-0.1l0,0.8c-0.2,0.1-0.5,0.1-0.9,0.1
			c-0.5,0-0.9-0.2-1.1-0.4c-0.3-0.3-0.4-0.8-0.4-1.5v-3.2H283v-0.8h0.9v-1.4L285,411z"/>
		<path class="st3" d="M288.2,415.7c0,1.4,0.9,2,2,2c0.8,0,1.2-0.1,1.6-0.3l0.2,0.8c-0.4,0.2-1,0.4-1.9,0.4c-1.8,0-2.9-1.2-2.9-2.9
			s1-3.1,2.7-3.1c1.9,0,2.4,1.7,2.4,2.7c0,0.2,0,0.4,0,0.5H288.2z M291.3,415c0-0.7-0.3-1.7-1.5-1.7c-1.1,0-1.5,1-1.6,1.7H291.3z"/>
		<path class="st3" d="M293.6,414.4c0-0.7,0-1.3,0-1.8h0.9l0,1.1h0c0.3-0.8,0.9-1.3,1.6-1.3c0.1,0,0.2,0,0.3,0v1c-0.1,0-0.2,0-0.4,0
			c-0.7,0-1.3,0.6-1.4,1.4c0,0.1,0,0.3,0,0.5v3.1h-1V414.4z"/>
		<path class="st3" d="M302.4,416.9c0,0.6,0,1.1,0,1.6h-0.9l-0.1-0.9h0c-0.3,0.5-0.9,1.1-1.9,1.1c-0.9,0-2-0.5-2-2.5v-3.4h1.1v3.2
			c0,1.1,0.3,1.8,1.3,1.8c0.7,0,1.2-0.5,1.4-1c0.1-0.2,0.1-0.3,0.1-0.5v-3.6h1.1V416.9z"/>
		<path class="st3" d="M304,417.4c0.3,0.2,0.9,0.4,1.4,0.4c0.8,0,1.1-0.4,1.1-0.9c0-0.5-0.3-0.8-1.1-1.1c-1-0.4-1.5-0.9-1.5-1.6
			c0-0.9,0.8-1.7,2-1.7c0.6,0,1.1,0.2,1.4,0.4l-0.3,0.8c-0.2-0.1-0.6-0.3-1.2-0.3c-0.6,0-1,0.4-1,0.8c0,0.5,0.3,0.7,1.1,1
			c1,0.4,1.5,0.9,1.5,1.8c0,1-0.8,1.7-2.2,1.7c-0.6,0-1.2-0.2-1.6-0.4L304,417.4z"/>
	</g>
	<g>
		<path class="st3" d="M108,74.3l-0.1-0.6h0c-0.3,0.4-0.8,0.8-1.6,0.8c-1,0-1.6-0.7-1.6-1.5c0-1.2,1.1-1.9,3.1-1.9v-0.1
			c0-0.4-0.1-1.2-1.2-1.2c-0.5,0-1,0.1-1.3,0.4l-0.2-0.6c0.4-0.3,1-0.5,1.7-0.5c1.6,0,1.9,1.1,1.9,2.1v1.9c0,0.4,0,0.9,0.1,1.2H108z
			 M107.9,71.7c-1,0-2.2,0.2-2.2,1.1c0,0.6,0.4,0.9,0.9,0.9c0.7,0,1.1-0.4,1.2-0.9c0-0.1,0.1-0.2,0.1-0.3V71.7z"/>
	</g>
	<g>
		<path class="st3" d="M130.9,74.3c0-0.3,0-0.9,0-1.3v-6.1h0.9V70h0c0.3-0.6,0.9-0.9,1.7-0.9c1.3,0,2.2,1,2.1,2.6
			c0,1.8-1.1,2.7-2.3,2.7c-0.7,0-1.3-0.3-1.7-1h0l0,0.8H130.9z M131.9,72.2c0,0.1,0,0.2,0,0.3c0.2,0.6,0.7,1.1,1.4,1.1
			c1,0,1.5-0.8,1.5-2c0-1-0.5-1.9-1.5-1.9c-0.6,0-1.2,0.4-1.4,1.1c0,0.1-0.1,0.2-0.1,0.4V72.2z"/>
	</g>
	<g>
		<path class="st3" d="M182.1,69.3l-0.1-0.6h0c-0.3,0.4-0.8,0.8-1.6,0.8c-1,0-1.6-0.7-1.6-1.5c0-1.2,1.1-1.9,3.1-1.9V66
			c0-0.4-0.1-1.2-1.2-1.2c-0.5,0-1,0.1-1.3,0.4l-0.2-0.6c0.4-0.3,1-0.5,1.7-0.5c1.6,0,1.9,1.1,1.9,2.1v1.9c0,0.4,0,0.9,0.1,1.2
			H182.1z M182,66.7c-1,0-2.2,0.2-2.2,1.1c0,0.6,0.4,0.9,0.9,0.9c0.7,0,1.1-0.4,1.2-0.9c0-0.1,0.1-0.2,0.1-0.3V66.7z"/>
	</g>
	<g>
		<path class="st3" d="M207.8,69.3c0-0.3,0-0.9,0-1.3v-6.1h0.9v3.2h0c0.3-0.6,0.9-0.9,1.7-0.9c1.3,0,2.2,1,2.1,2.6
			c0,1.8-1.1,2.7-2.3,2.7c-0.7,0-1.3-0.3-1.7-1h0l0,0.8H207.8z M208.8,67.3c0,0.1,0,0.2,0,0.3c0.2,0.6,0.7,1.1,1.4,1.1
			c1,0,1.5-0.8,1.5-2c0-1-0.5-1.9-1.5-1.9c-0.6,0-1.2,0.4-1.4,1.1c0,0.1-0.1,0.2-0.1,0.4V67.3z"/>
	</g>
	<g>
	</g>
	<g>
	</g>
	<g>
	</g>
	<g>
	</g>
	<g>
	</g>
	<g>
	</g>
	<g>
	</g>
</g>
</svg>
