<?xml version="1.0" encoding="utf-8"?>
<!-- Generator: Adobe Illustrator 15.0.2, SVG Export Plug-In . SVG Version: 6.00 Build 0)  -->
<!DOCTYPE svg PUBLIC "-//W3C//DTD SVG 1.1//EN" "http://www.w3.org/Graphics/SVG/1.1/DTD/svg11.dtd">
<svg version="1.1" id="Layer_10" xmlns="http://www.w3.org/2000/svg" xmlns:xlink="http://www.w3.org/1999/xlink" x="0px" y="0px"
	 width="386.082px" height="154.58px" viewBox="100.063 328.894 386.082 154.58"
	 enable-background="new 100.063 328.894 386.082 154.58" xml:space="preserve">
<g>
	<g>
		<path fill="#E6E7E8" stroke="#E6E7E8" stroke-width="0.5" stroke-miterlimit="10" d="M282.232,329.575h-45.648
			c2.016,2.305,3.528,3.528,5.112,5.112c4.32,4.32,17.712,8.208,23.976,8.208C273.592,342.896,282.232,336.991,282.232,329.575z"/>
		<path fill="#E6E7E8" stroke="#E6E7E8" stroke-width="0.5" stroke-miterlimit="10" d="M140.68,329.575h45.576
			c-1.944,2.305-3.528,3.528-5.112,5.112c-4.32,4.32-17.64,8.208-23.976,8.208C149.32,342.896,140.68,336.991,140.68,329.575z"/>
		<path fill="#E6E7E8" stroke="#E6E7E8" stroke-width="0.5" stroke-miterlimit="10" d="M235.792,483.224h-14.544h-76.68
			c0-5.544,2.376-18.072,2.376-24.408c0-6.696,3.168-12.96,3.168-19.224c0-3.528,1.728-5.904,2.376-9.072
			c0.144-0.792,4.32-4.68,5.472-4.68c-2.376-5.04-5.472-40.032-0.36-45.145c0.792-0.792,4.32-9.072,4.32-11.016
			c0-6.696-2.016-12.24-2.016-17.712c0-3.168-3.888-6.696-3.888-9.864l18.864-12.528h47.952h13.392h8.208l22.464,12.528
			c0,3.168-3.96,6.696-3.96,9.864c0,5.472-1.944,11.016-1.944,17.712c0,1.943,3.528,10.224,4.32,11.016
			c5.112,5.112,1.944,40.104-0.432,45.145c1.224,0,5.4,3.888,5.544,4.68c0.648,3.168,2.376,5.544,2.376,9.072
			c0,6.264,3.096,12.527,3.096,19.224c0,6.336,2.376,18.864,2.376,24.408H235.792z"/>
		<path fill="none" stroke="#000000" stroke-width="0.737" stroke-miterlimit="10" d="M236.584,329.575
			c2.016,2.305,3.528,3.528,5.112,5.112c4.32,4.32,17.712,8.208,23.976,8.208c7.92,0,16.56-5.904,16.56-13.32"/>
		<path fill="none" stroke="#000000" stroke-width="0.737" stroke-miterlimit="10" d="M266.896,342.752
			c0.144,3.023-3.384,5.832-3.96,9.216c-1.008,5.903-1.872,11.304-1.944,17.712c0,1.943,3.528,10.224,4.32,11.016
			c5.112,5.112,1.944,40.104-0.432,45.145c1.224,0,5.184,4.031,5.544,4.68c1.656,3.024,2.52,5.472,2.376,9.072
			c-0.36,6.264,3.096,12.527,3.096,19.224c0,6.336,2.376,18.864,2.376,24.408"/>
		<path fill="none" stroke="#000000" stroke-width="0.737" stroke-miterlimit="10" d="M265.312,425.84
			c-1.224,3.888-3.168,6.264-5.544,8.64c-0.72,0.792-10.512,10.728-10.944,11.376c-1.368,1.729-11.016,7.488-10.224,10.584"/>
		<path fill="none" stroke="#000000" stroke-width="0.737" stroke-miterlimit="10" d="M186.256,329.575
			c-1.944,2.305-3.528,3.528-5.112,5.112c-4.32,4.32-17.64,8.208-23.976,8.208c-7.848,0-16.488-5.904-16.488-13.32"/>
		<path fill="none" stroke="#000000" stroke-width="0.737" stroke-miterlimit="10" d="M156.016,342.968c0,3.168,3.888,5.832,3.888,9
			c0,5.472,2.016,11.016,2.016,17.712c0,1.943-3.528,10.224-4.32,11.016c-5.112,5.112-2.016,40.104,0.36,45.145
			c-1.152,0-5.112,3.96-5.472,4.68c-1.656,3.168-2.592,5.544-2.376,9.072c0.288,6.264-3.168,12.527-3.168,19.224
			c0,6.336-2.376,18.864-2.376,24.408"/>
		<path fill="none" stroke="#000000" stroke-width="0.737" stroke-miterlimit="10" d="M157.6,425.84
			c1.152,3.888,3.096,6.264,5.472,8.64c0.792,0.792,10.512,10.728,11.016,11.376c1.296,1.729,11.016,7.488,10.224,10.584"/>
		<g>
			<polygon fill="#FFFFFF" stroke="#000000" stroke-width="0.5" stroke-miterlimit="10" stroke-dasharray="2.5002,0.5" points="
				179.488,356.504 184.816,354.776 220.024,460.615 214.696,462.344 			"/>
			<g>
				
					<line fill="none" stroke="#000000" stroke-width="0.5" stroke-miterlimit="10" stroke-dasharray="2.5002,0.5" x1="213.328" y1="458.24" x2="218.512" y2="456.512"/>
				
					<line fill="none" stroke="#000000" stroke-width="0.5" stroke-miterlimit="10" stroke-dasharray="2.5002,0.5" x1="211.96" y1="454.207" x2="217.216" y2="452.48"/>
				
					<line fill="none" stroke="#000000" stroke-width="0.5" stroke-miterlimit="10" stroke-dasharray="2.5002,0.5" x1="210.592" y1="450.247" x2="215.848" y2="448.448"/>
				
					<line fill="none" stroke="#000000" stroke-width="0.5" stroke-miterlimit="10" stroke-dasharray="2.5002,0.5" x1="209.296" y1="446.216" x2="214.552" y2="444.488"/>
				
					<line fill="none" stroke="#000000" stroke-width="0.5" stroke-miterlimit="10" stroke-dasharray="2.5002,0.5" x1="207.928" y1="442.184" x2="213.184" y2="440.455"/>
				
					<line fill="none" stroke="#000000" stroke-width="0.5" stroke-miterlimit="10" stroke-dasharray="2.5002,0.5" x1="206.632" y1="438.152" x2="211.888" y2="436.424"/>
				
					<line fill="none" stroke="#000000" stroke-width="0.5" stroke-miterlimit="10" stroke-dasharray="2.5002,0.5" x1="205.264" y1="434.192" x2="210.52" y2="432.392"/>
				
					<line fill="none" stroke="#000000" stroke-width="0.5" stroke-miterlimit="10" stroke-dasharray="2.5002,0.5" x1="203.968" y1="430.159" x2="209.224" y2="428.432"/>
				
					<line fill="none" stroke="#000000" stroke-width="0.5" stroke-miterlimit="10" stroke-dasharray="2.5002,0.5" x1="202.6" y1="426.128" x2="207.856" y2="424.4"/>
				
					<line fill="none" stroke="#000000" stroke-width="0.5" stroke-miterlimit="10" stroke-dasharray="2.5002,0.5" x1="201.304" y1="422.096" x2="206.488" y2="420.44"/>
				
					<line fill="none" stroke="#000000" stroke-width="0.5" stroke-miterlimit="10" stroke-dasharray="2.5002,0.5" x1="199.936" y1="418.207" x2="205.192" y2="416.407"/>
				
					<line fill="none" stroke="#000000" stroke-width="0.5" stroke-miterlimit="10" stroke-dasharray="2.5002,0.5" x1="198.64" y1="414.176" x2="203.824" y2="412.448"/>
				
					<line fill="none" stroke="#000000" stroke-width="0.5" stroke-miterlimit="10" stroke-dasharray="2.5002,0.5" x1="197.272" y1="410.144" x2="202.528" y2="408.415"/>
				
					<line fill="none" stroke="#000000" stroke-width="0.5" stroke-miterlimit="10" stroke-dasharray="2.5002,0.5" x1="195.976" y1="406.112" x2="201.16" y2="404.384"/>
				
					<line fill="none" stroke="#000000" stroke-width="0.5" stroke-miterlimit="10" stroke-dasharray="2.5002,0.5" x1="194.608" y1="402.152" x2="199.864" y2="400.352"/>
				
					<line fill="none" stroke="#000000" stroke-width="0.5" stroke-miterlimit="10" stroke-dasharray="2.5002,0.5" x1="193.24" y1="398.119" x2="198.496" y2="396.392"/>
				
					<line fill="none" stroke="#000000" stroke-width="0.5" stroke-miterlimit="10" stroke-dasharray="2.5002,0.5" x1="191.944" y1="394.088" x2="197.2" y2="392.36"/>
				
					<line fill="none" stroke="#000000" stroke-width="0.5" stroke-miterlimit="10" stroke-dasharray="2.5002,0.5" x1="190.576" y1="390.056" x2="195.832" y2="388.327"/>
				
					<line fill="none" stroke="#000000" stroke-width="0.5" stroke-miterlimit="10" stroke-dasharray="2.5002,0.5" x1="189.28" y1="386.096" x2="194.536" y2="384.296"/>
				
					<line fill="none" stroke="#000000" stroke-width="0.5" stroke-miterlimit="10" stroke-dasharray="2.5002,0.5" x1="187.912" y1="382.064" x2="193.168" y2="380.336"/>
				
					<line fill="none" stroke="#000000" stroke-width="0.5" stroke-miterlimit="10" stroke-dasharray="2.5002,0.5" x1="186.616" y1="378.031" x2="191.872" y2="376.304"/>
				
					<line fill="none" stroke="#000000" stroke-width="0.5" stroke-miterlimit="10" stroke-dasharray="2.5002,0.5" x1="185.248" y1="374" x2="190.504" y2="372.272"/>
				
					<line fill="none" stroke="#000000" stroke-width="0.5" stroke-miterlimit="10" stroke-dasharray="2.5002,0.5" x1="183.952" y1="370.039" x2="189.136" y2="368.24"/>
				
					<line fill="none" stroke="#000000" stroke-width="0.5" stroke-miterlimit="10" stroke-dasharray="2.5002,0.5" x1="182.584" y1="366.008" x2="187.84" y2="364.28"/>
				
					<line fill="none" stroke="#000000" stroke-width="0.5" stroke-miterlimit="10" stroke-dasharray="2.5002,0.5" x1="181.288" y1="361.976" x2="186.472" y2="360.247"/>
				
					<line fill="none" stroke="#000000" stroke-width="0.5" stroke-miterlimit="10" stroke-dasharray="2.5002,0.5" x1="179.92" y1="357.944" x2="185.176" y2="356.216"/>
			</g>
		</g>
		<path fill="none" stroke="#000000" stroke-width="1.0001" stroke-miterlimit="10" d="M198.856,461.552
			c-21.24-29.16-31.176-58.681-18.072-85.968c7.776-16.345,19.008-26.353,28.656-25.561c19.8,1.584,33.12,16.704,36.216,38.88
			c3.528,25.92-4.896,50.185-17.712,73.08"/>
		<path fill="none" stroke="#000000" stroke-width="1.0001" stroke-miterlimit="10" stroke-dasharray="5.0003,3.0002" d="
			M196.336,460.472c-25.56-28.152-39.816-56.664-30.816-83.017c5.4-15.768,15.12-25.487,24.912-24.695
			c20.016,1.512,35.568,16.128,41.976,37.584c7.344,24.983,2.52,48.456-6.912,70.56"/>
		<g>
			
				<rect x="206.704" y="350.384" fill="#FFFFFF" stroke="#000000" stroke-width="0.5" stroke-miterlimit="10" width="5.544" height="112.752"/>
			<g>
				
					<line fill="none" stroke="#000000" stroke-width="0.5" stroke-miterlimit="10" x1="206.632" y1="458.743" x2="212.104" y2="458.743"/>
				
					<line fill="none" stroke="#000000" stroke-width="0.5" stroke-miterlimit="10" x1="206.632" y1="454.495" x2="212.104" y2="454.495"/>
				
					<line fill="none" stroke="#000000" stroke-width="0.5" stroke-miterlimit="10" x1="206.632" y1="450.176" x2="212.104" y2="450.176"/>
				
					<line fill="none" stroke="#000000" stroke-width="0.5" stroke-miterlimit="10" x1="206.632" y1="445.928" x2="212.104" y2="445.928"/>
				
					<line fill="none" stroke="#000000" stroke-width="0.5" stroke-miterlimit="10" x1="206.632" y1="441.608" x2="212.104" y2="441.608"/>
				
					<line fill="none" stroke="#000000" stroke-width="0.5" stroke-miterlimit="10" x1="206.632" y1="437.36" x2="212.104" y2="437.36"/>
				
					<line fill="none" stroke="#000000" stroke-width="0.5" stroke-miterlimit="10" x1="206.632" y1="433.112" x2="212.104" y2="433.112"/>
				
					<line fill="none" stroke="#000000" stroke-width="0.5" stroke-miterlimit="10" x1="206.632" y1="428.791" x2="212.104" y2="428.791"/>
				
					<line fill="none" stroke="#000000" stroke-width="0.5" stroke-miterlimit="10" x1="206.632" y1="424.544" x2="212.104" y2="424.544"/>
				
					<line fill="none" stroke="#000000" stroke-width="0.5" stroke-miterlimit="10" x1="206.632" y1="420.296" x2="212.104" y2="420.296"/>
				
					<line fill="none" stroke="#000000" stroke-width="0.5" stroke-miterlimit="10" x1="206.632" y1="416.048" x2="212.104" y2="416.048"/>
				
					<line fill="none" stroke="#000000" stroke-width="0.5" stroke-miterlimit="10" x1="206.632" y1="411.8" x2="212.104" y2="411.8"/>
				
					<line fill="none" stroke="#000000" stroke-width="0.5" stroke-miterlimit="10" x1="206.632" y1="407.48" x2="212.104" y2="407.48"/>
				
					<line fill="none" stroke="#000000" stroke-width="0.5" stroke-miterlimit="10" x1="206.632" y1="403.232" x2="212.104" y2="403.232"/>
				
					<line fill="none" stroke="#000000" stroke-width="0.5" stroke-miterlimit="10" x1="206.632" y1="398.911" x2="212.104" y2="398.911"/>
				
					<line fill="none" stroke="#000000" stroke-width="0.5" stroke-miterlimit="10" x1="206.632" y1="394.663" x2="212.104" y2="394.663"/>
				
					<line fill="none" stroke="#000000" stroke-width="0.5" stroke-miterlimit="10" x1="206.632" y1="390.415" x2="212.104" y2="390.415"/>
				
					<line fill="none" stroke="#000000" stroke-width="0.5" stroke-miterlimit="10" x1="206.632" y1="386.096" x2="212.104" y2="386.096"/>
				
					<line fill="none" stroke="#000000" stroke-width="0.5" stroke-miterlimit="10" x1="206.632" y1="381.848" x2="212.104" y2="381.848"/>
				
					<line fill="none" stroke="#000000" stroke-width="0.5" stroke-miterlimit="10" x1="206.632" y1="377.528" x2="212.104" y2="377.528"/>
				
					<line fill="none" stroke="#000000" stroke-width="0.5" stroke-miterlimit="10" x1="206.632" y1="373.28" x2="212.104" y2="373.28"/>
				
					<line fill="none" stroke="#000000" stroke-width="0.5" stroke-miterlimit="10" x1="206.632" y1="369.031" x2="212.104" y2="369.031"/>
				
					<line fill="none" stroke="#000000" stroke-width="0.5" stroke-miterlimit="10" x1="206.632" y1="364.712" x2="212.104" y2="364.712"/>
				
					<line fill="none" stroke="#000000" stroke-width="0.5" stroke-miterlimit="10" x1="206.632" y1="360.464" x2="212.104" y2="360.464"/>
				
					<line fill="none" stroke="#000000" stroke-width="0.5" stroke-miterlimit="10" x1="206.632" y1="356.144" x2="212.104" y2="356.144"/>
				
					<line fill="none" stroke="#000000" stroke-width="0.5" stroke-miterlimit="10" x1="206.632" y1="351.896" x2="212.104" y2="351.896"/>
			</g>
		</g>
		<path fill="none" stroke="#000000" stroke-width="0.737" stroke-miterlimit="10" d="M187.48,458.024
			c4.68,3.96,11.736,5.112,19.224,5.112c4.752,0,9.864,0,14.544,0c4.752,0,7.488-1.944,11.016-3.528"/>
		<g>
			<path d="M105.409,417.875l0.941,0.237c-0.198,0.773-0.553,1.362-1.065,1.769c-0.513,0.405-1.14,0.608-1.88,0.608
				c-0.767,0-1.39-0.155-1.87-0.468s-0.846-0.764-1.096-1.355c-0.251-0.593-0.376-1.228-0.376-1.906
				c0-0.741,0.142-1.387,0.425-1.938c0.283-0.551,0.686-0.97,1.208-1.256s1.097-0.43,1.725-0.43c0.711,0,1.31,0.181,1.795,0.543
				c0.485,0.362,0.823,0.872,1.014,1.528l-0.927,0.218c-0.165-0.519-0.404-0.895-0.718-1.13c-0.314-0.236-0.708-0.354-1.184-0.354
				c-0.546,0-1.003,0.131-1.37,0.394c-0.367,0.262-0.625,0.613-0.774,1.055c-0.149,0.44-0.223,0.896-0.223,1.366
				c0,0.604,0.088,1.133,0.264,1.584c0.176,0.451,0.451,0.788,0.822,1.011c0.372,0.223,0.775,0.335,1.208,0.335
				c0.527,0,0.974-0.152,1.339-0.456C105.032,418.924,105.28,418.473,105.409,417.875z"/>
			<path d="M107.073,417.791c0-0.953,0.265-1.66,0.795-2.119c0.443-0.383,0.983-0.572,1.621-0.572c0.708,0,1.287,0.231,1.737,0.696
				c0.45,0.464,0.674,1.104,0.674,1.924c0,0.663-0.099,1.185-0.298,1.563c-0.199,0.38-0.488,0.676-0.868,0.887
				c-0.38,0.21-0.795,0.314-1.245,0.314c-0.721,0-1.304-0.23-1.749-0.692C107.295,419.327,107.073,418.661,107.073,417.791z
				 M107.971,417.791c0,0.66,0.144,1.154,0.432,1.482c0.288,0.329,0.65,0.493,1.087,0.493c0.434,0,0.794-0.165,1.082-0.495
				c0.288-0.33,0.432-0.833,0.432-1.509c0-0.637-0.145-1.12-0.434-1.448c-0.29-0.328-0.649-0.492-1.08-0.492
				c-0.437,0-0.799,0.164-1.087,0.49C108.115,416.639,107.971,417.132,107.971,417.791z"/>
			<path d="M112.915,420.367v-5.151h0.786v0.78c0.2-0.365,0.385-0.605,0.555-0.723c0.17-0.116,0.357-0.174,0.561-0.174
				c0.294,0,0.593,0.094,0.897,0.281l-0.301,0.81c-0.213-0.126-0.427-0.188-0.641-0.188c-0.191,0-0.362,0.057-0.514,0.172
				c-0.152,0.114-0.26,0.273-0.325,0.478c-0.097,0.312-0.146,0.65-0.146,1.02v2.696H112.915z"/>
			<path d="M116.223,420.367v-5.151h0.786v0.78c0.201-0.365,0.386-0.605,0.556-0.723c0.169-0.116,0.356-0.174,0.56-0.174
				c0.294,0,0.594,0.094,0.897,0.281l-0.301,0.81c-0.213-0.126-0.427-0.188-0.64-0.188c-0.191,0-0.362,0.057-0.514,0.172
				c-0.152,0.114-0.261,0.273-0.325,0.478c-0.097,0.312-0.146,0.65-0.146,1.02v2.696H116.223z"/>
			<path d="M123.069,418.709l0.902,0.11c-0.143,0.527-0.406,0.938-0.791,1.229c-0.385,0.291-0.876,0.437-1.475,0.437
				c-0.754,0-1.351-0.231-1.792-0.696c-0.442-0.464-0.663-1.114-0.663-1.952c0-0.867,0.223-1.54,0.669-2.019
				c0.447-0.479,1.025-0.718,1.737-0.718c0.688,0,1.251,0.234,1.688,0.703c0.438,0.469,0.655,1.129,0.655,1.979
				c0,0.053-0.002,0.129-0.005,0.233h-3.843c0.033,0.565,0.192,1,0.48,1.3s0.647,0.451,1.077,0.451c0.32,0,0.593-0.084,0.82-0.252
				C122.757,419.346,122.936,419.077,123.069,418.709z M120.202,417.297h2.877c-0.039-0.435-0.149-0.76-0.33-0.977
				c-0.278-0.336-0.639-0.504-1.082-0.504c-0.401,0-0.738,0.134-1.011,0.403C120.382,416.489,120.23,416.848,120.202,417.297z"/>
			<path d="M128.43,418.481l0.859,0.111c-0.094,0.592-0.334,1.056-0.721,1.39c-0.386,0.335-0.861,0.502-1.424,0.502
				c-0.705,0-1.272-0.229-1.7-0.69c-0.429-0.462-0.643-1.122-0.643-1.982c0-0.556,0.092-1.043,0.276-1.46
				c0.185-0.417,0.465-0.73,0.842-0.939c0.377-0.208,0.787-0.313,1.23-0.313c0.56,0,1.017,0.141,1.373,0.424
				s0.584,0.686,0.684,1.206l-0.849,0.131c-0.081-0.346-0.224-0.605-0.429-0.781c-0.206-0.175-0.454-0.262-0.745-0.262
				c-0.44,0-0.797,0.158-1.072,0.473c-0.275,0.315-0.413,0.814-0.413,1.497c0,0.692,0.133,1.195,0.398,1.51
				c0.265,0.313,0.611,0.471,1.038,0.471c0.343,0,0.629-0.105,0.859-0.315C128.223,419.24,128.368,418.916,128.43,418.481z"/>
			<path d="M131.942,419.587l0.126,0.771c-0.246,0.052-0.466,0.078-0.66,0.078c-0.317,0-0.563-0.05-0.737-0.15
				c-0.175-0.1-0.298-0.231-0.369-0.396c-0.071-0.163-0.107-0.507-0.107-1.031v-2.964h-0.641v-0.679h0.641v-1.276l0.868-0.523v1.8
				h0.878v0.679h-0.878v3.013c0,0.249,0.016,0.409,0.046,0.48c0.03,0.071,0.081,0.128,0.15,0.17
				c0.069,0.042,0.169,0.063,0.298,0.063C131.656,419.62,131.784,419.61,131.942,419.587z"/>
		</g>
		<polyline fill="none" stroke="#000000" stroke-width="0.5" stroke-miterlimit="10" points="182.728,366.512 137.296,416.048 
			206.704,397.544 		"/>
	</g>
	<g>
		<path fill="#E6E7E8" stroke="#E6E7E8" stroke-width="0.5" stroke-miterlimit="10" d="M485.776,329.144H440.2
			c1.944,2.376,3.528,3.528,5.112,5.112c4.319,4.319,17.712,8.279,23.976,8.279C477.136,342.535,485.776,336.632,485.776,329.144z"
			/>
		<path fill="#E6E7E8" stroke="#E6E7E8" stroke-width="0.5" stroke-miterlimit="10" d="M344.296,329.144h45.576
			c-1.944,2.376-3.528,3.528-5.112,5.112c-4.32,4.319-17.712,8.279-23.976,8.279C352.936,342.535,344.296,336.632,344.296,329.144z"
			/>
		<path fill="#E6E7E8" stroke="#E6E7E8" stroke-width="0.5" stroke-miterlimit="10" d="M439.408,482.791h-14.544h-76.681
			c0-5.472,2.377-18.071,2.377-24.336c0-6.695,3.168-12.96,3.168-19.296c0-3.527,1.728-5.832,2.304-9
			c0.216-0.792,4.392-4.752,5.544-4.752c-2.376-5.04-5.544-40.032-0.432-45.144c0.791-0.792,4.392-9,4.392-11.017
			c0-6.695-2.017-12.168-2.017-17.712c0-3.096-3.888-6.624-3.888-9.792l18.864-12.6h47.952h13.392h8.208l22.464,12.6
			c0,3.168-3.96,6.696-3.96,9.792c0,5.544-1.943,11.017-1.943,17.712c0,2.017,3.527,10.225,4.319,11.017
			c5.112,5.111,1.944,40.104-0.432,45.144c1.224,0,5.4,3.96,5.544,4.752c0.576,3.168,2.304,5.473,2.304,9
			c0,6.336,3.168,12.601,3.168,19.296c0,6.265,2.376,18.864,2.376,24.336H439.408z"/>
		<path fill="none" stroke="#000000" stroke-width="0.737" stroke-miterlimit="10" d="M440.2,329.144
			c1.944,2.376,3.528,3.528,5.112,5.112c4.319,4.319,17.712,8.279,23.976,8.279c7.848,0,16.488-5.903,16.488-13.392"/>
		<path fill="none" stroke="#000000" stroke-width="0.737" stroke-miterlimit="10" d="M470.512,342.32
			c0.145,3.097-3.384,5.904-3.96,9.216c-1.008,5.904-1.943,11.376-1.943,17.712c-0.072,1.944,3.527,10.225,4.319,11.017
			c5.112,5.112,1.944,40.104-0.432,45.144c1.224,0,5.112,4.032,5.544,4.752c1.656,3.024,2.52,5.473,2.304,9
			c-0.288,6.265,3.168,12.601,3.168,19.296c0,6.265,2.376,18.864,2.376,24.337"/>
		<path fill="none" stroke="#000000" stroke-width="0.737" stroke-miterlimit="10" d="M468.928,425.407
			c-1.224,3.96-3.168,6.265-5.544,8.641c-0.792,0.792-10.512,10.8-11.016,11.447c-1.296,1.656-11.017,7.416-10.224,10.584"/>
		<path fill="none" stroke="#000000" stroke-width="0.737" stroke-miterlimit="10" d="M389.872,329.144
			c-1.944,2.376-3.528,3.528-5.112,5.112c-4.32,4.319-17.712,8.279-23.976,8.279c-7.849,0-16.488-5.903-16.488-13.392"/>
		<path fill="none" stroke="#000000" stroke-width="0.737" stroke-miterlimit="10" d="M359.632,342.608
			c0,3.168,3.888,5.832,3.888,8.928c0,5.544,2.017,11.017,2.017,17.712c0,2.017-3.601,10.225-4.392,11.017
			c-5.112,5.112-1.944,40.104,0.432,45.144c-1.152,0-5.184,4.032-5.544,4.752c-1.585,3.168-2.521,5.473-2.304,9
			c0.287,6.265-3.168,12.601-3.168,19.296c0,6.265-2.377,18.864-2.377,24.337"/>
		<path fill="none" stroke="#000000" stroke-width="0.737" stroke-miterlimit="10" d="M361.145,425.407
			c1.224,3.96,3.168,6.265,5.543,8.641c0.793,0.792,10.513,10.8,11.017,11.447c1.296,1.656,11.017,7.416,10.224,10.584"/>
		<path fill="none" stroke="#000000" stroke-width="1.0001" stroke-miterlimit="10" d="M399.952,460.112
			c-25.56-28.224-39.888-56.664-30.816-83.088c5.4-15.768,15.12-25.416,24.912-24.696c20.017,1.584,35.568,16.2,41.904,37.584
			c7.416,24.984,2.52,48.456-6.84,70.561"/>
		<g>
			
				<rect x="410.32" y="350.024" fill="#FFFFFF" stroke="#000000" stroke-width="0.5" stroke-miterlimit="10" width="5.472" height="112.752"/>
			<g>
				
					<line fill="none" stroke="#000000" stroke-width="0.5" stroke-miterlimit="10" x1="410.248" y1="458.312" x2="415.721" y2="458.312"/>
				
					<line fill="none" stroke="#000000" stroke-width="0.5" stroke-miterlimit="10" x1="410.248" y1="454.064" x2="415.721" y2="454.064"/>
				
					<line fill="none" stroke="#000000" stroke-width="0.5" stroke-miterlimit="10" x1="410.248" y1="449.816" x2="415.721" y2="449.816"/>
				
					<line fill="none" stroke="#000000" stroke-width="0.5" stroke-miterlimit="10" x1="410.248" y1="445.495" x2="415.721" y2="445.495"/>
				
					<line fill="none" stroke="#000000" stroke-width="0.5" stroke-miterlimit="10" x1="410.248" y1="441.247" x2="415.721" y2="441.247"/>
				
					<line fill="none" stroke="#000000" stroke-width="0.5" stroke-miterlimit="10" x1="410.248" y1="436.928" x2="415.721" y2="436.928"/>
				
					<line fill="none" stroke="#000000" stroke-width="0.5" stroke-miterlimit="10" x1="410.248" y1="432.68" x2="415.721" y2="432.68"/>
				
					<line fill="none" stroke="#000000" stroke-width="0.5" stroke-miterlimit="10" x1="410.248" y1="428.432" x2="415.721" y2="428.432"/>
				
					<line fill="none" stroke="#000000" stroke-width="0.5" stroke-miterlimit="10" x1="410.248" y1="424.112" x2="415.721" y2="424.112"/>
				
					<line fill="none" stroke="#000000" stroke-width="0.5" stroke-miterlimit="10" x1="410.248" y1="419.936" x2="415.721" y2="419.936"/>
				
					<line fill="none" stroke="#000000" stroke-width="0.5" stroke-miterlimit="10" x1="410.248" y1="415.615" x2="415.721" y2="415.615"/>
				
					<line fill="none" stroke="#000000" stroke-width="0.5" stroke-miterlimit="10" x1="410.248" y1="411.367" x2="415.721" y2="411.367"/>
				
					<line fill="none" stroke="#000000" stroke-width="0.5" stroke-miterlimit="10" x1="410.248" y1="407.119" x2="415.721" y2="407.119"/>
				
					<line fill="none" stroke="#000000" stroke-width="0.5" stroke-miterlimit="10" x1="410.248" y1="402.8" x2="415.721" y2="402.8"/>
				
					<line fill="none" stroke="#000000" stroke-width="0.5" stroke-miterlimit="10" x1="410.248" y1="398.552" x2="415.721" y2="398.552"/>
				
					<line fill="none" stroke="#000000" stroke-width="0.5" stroke-miterlimit="10" x1="410.248" y1="394.304" x2="415.721" y2="394.304"/>
				
					<line fill="none" stroke="#000000" stroke-width="0.5" stroke-miterlimit="10" x1="410.248" y1="389.984" x2="415.721" y2="389.984"/>
				
					<line fill="none" stroke="#000000" stroke-width="0.5" stroke-miterlimit="10" x1="410.248" y1="385.736" x2="415.721" y2="385.736"/>
				
					<line fill="none" stroke="#000000" stroke-width="0.5" stroke-miterlimit="10" x1="410.248" y1="381.415" x2="415.721" y2="381.415"/>
				
					<line fill="none" stroke="#000000" stroke-width="0.5" stroke-miterlimit="10" x1="410.248" y1="377.168" x2="415.721" y2="377.168"/>
				
					<line fill="none" stroke="#000000" stroke-width="0.5" stroke-miterlimit="10" x1="410.248" y1="372.92" x2="415.721" y2="372.92"/>
				
					<line fill="none" stroke="#000000" stroke-width="0.5" stroke-miterlimit="10" x1="410.248" y1="368.6" x2="415.721" y2="368.6"/>
				
					<line fill="none" stroke="#000000" stroke-width="0.5" stroke-miterlimit="10" x1="410.248" y1="364.352" x2="415.721" y2="364.352"/>
				
					<line fill="none" stroke="#000000" stroke-width="0.5" stroke-miterlimit="10" x1="410.248" y1="360.031" x2="415.721" y2="360.031"/>
				
					<line fill="none" stroke="#000000" stroke-width="0.5" stroke-miterlimit="10" x1="410.248" y1="355.783" x2="415.721" y2="355.783"/>
				
					<line fill="none" stroke="#000000" stroke-width="0.5" stroke-miterlimit="10" x1="410.248" y1="351.535" x2="415.721" y2="351.535"/>
			</g>
		</g>
		<path fill="none" stroke="#000000" stroke-width="0.737" stroke-miterlimit="10" d="M391.023,457.663
			c4.752,3.889,11.809,5.112,19.297,5.112c4.752,0,9.863,0,14.544,0c4.752,0,7.487-1.944,11.016-3.528"/>
		<g>
			<path d="M304.902,414.535v-7.111h0.941v7.111H304.902z"/>
			<path d="M307.393,414.535v-5.151h0.785v0.731c0.379-0.565,0.926-0.849,1.641-0.849c0.311,0,0.596,0.056,0.855,0.167
				c0.26,0.112,0.455,0.258,0.584,0.438c0.129,0.182,0.221,0.396,0.271,0.646c0.031,0.162,0.049,0.445,0.049,0.849v3.168h-0.874
				v-3.134c0-0.354-0.034-0.622-0.103-0.798c-0.067-0.176-0.188-0.317-0.361-0.422c-0.174-0.105-0.376-0.157-0.609-0.157
				c-0.372,0-0.693,0.118-0.963,0.354c-0.27,0.235-0.404,0.684-0.404,1.344v2.813H307.393L307.393,414.535z"/>
			<path d="M316.279,412.649l0.859,0.111c-0.095,0.592-0.334,1.056-0.721,1.39c-0.387,0.335-0.861,0.502-1.424,0.502
				c-0.706,0-1.271-0.229-1.701-0.69c-0.429-0.461-0.643-1.122-0.643-1.982c0-0.556,0.092-1.043,0.275-1.46s0.465-0.73,0.842-0.939
				c0.377-0.208,0.787-0.313,1.23-0.313c0.559,0,1.018,0.141,1.373,0.424s0.584,0.686,0.684,1.206l-0.849,0.131
				c-0.081-0.346-0.224-0.605-0.431-0.781c-0.205-0.175-0.453-0.262-0.744-0.262c-0.44,0-0.797,0.158-1.072,0.474
				c-0.275,0.314-0.412,0.813-0.412,1.496c0,0.692,0.133,1.195,0.396,1.51c0.267,0.313,0.611,0.471,1.039,0.471
				c0.344,0,0.629-0.105,0.858-0.315C316.073,413.408,316.218,413.085,316.279,412.649z"/>
			<path d="M317.561,411.96c0-0.954,0.266-1.661,0.795-2.12c0.443-0.383,0.983-0.572,1.621-0.572c0.709,0,1.287,0.232,1.737,0.696
				s0.675,1.104,0.675,1.924c0,0.663-0.101,1.185-0.299,1.563c-0.199,0.381-0.488,0.676-0.869,0.887
				c-0.38,0.21-0.793,0.314-1.244,0.314c-0.721,0-1.304-0.23-1.748-0.692C317.783,413.495,317.561,412.829,317.561,411.96z
				 M318.458,411.96c0,0.659,0.144,1.153,0.433,1.481c0.287,0.329,0.649,0.493,1.086,0.493c0.434,0,0.795-0.165,1.082-0.495
				c0.289-0.33,0.433-0.833,0.433-1.509c0-0.637-0.146-1.12-0.435-1.448s-0.648-0.492-1.08-0.492c-0.437,0-0.799,0.164-1.086,0.49
				C318.602,410.807,318.458,411.3,318.458,411.96z"/>
			<path d="M323.402,414.535v-5.151h0.785v0.78c0.201-0.365,0.387-0.605,0.557-0.723c0.17-0.116,0.355-0.174,0.561-0.174
				c0.295,0,0.594,0.094,0.897,0.281l-0.302,0.81c-0.213-0.126-0.426-0.188-0.641-0.188c-0.191,0-0.361,0.057-0.514,0.172
				c-0.152,0.114-0.26,0.273-0.325,0.478c-0.097,0.312-0.146,0.65-0.146,1.02v2.696H323.402z"/>
			<path d="M326.71,414.535v-5.151h0.786v0.78c0.199-0.365,0.386-0.605,0.555-0.723c0.17-0.116,0.357-0.174,0.561-0.174
				c0.295,0,0.594,0.094,0.897,0.281l-0.301,0.81c-0.213-0.126-0.427-0.188-0.64-0.188c-0.191,0-0.362,0.057-0.516,0.172
				c-0.152,0.114-0.26,0.273-0.324,0.478c-0.098,0.312-0.146,0.65-0.146,1.02v2.696H326.71z"/>
			<path d="M333.557,412.877l0.901,0.11c-0.144,0.527-0.406,0.938-0.791,1.229s-0.876,0.437-1.476,0.437
				c-0.754,0-1.351-0.231-1.793-0.696c-0.44-0.464-0.662-1.114-0.662-1.952c0-0.867,0.224-1.54,0.67-2.019
				c0.445-0.478,1.025-0.718,1.736-0.718c0.689,0,1.252,0.234,1.688,0.703s0.655,1.129,0.655,1.979c0,0.053-0.002,0.129-0.004,0.233
				h-3.844c0.032,0.565,0.192,1,0.48,1.3c0.288,0.301,0.646,0.451,1.077,0.451c0.319,0,0.593-0.084,0.819-0.252
				C333.244,413.514,333.423,413.245,333.557,412.877z M330.689,411.465h2.877c-0.039-0.435-0.149-0.76-0.33-0.977
				c-0.278-0.336-0.639-0.504-1.082-0.504c-0.401,0-0.738,0.134-1.012,0.403C330.869,410.656,330.718,411.016,330.689,411.465z"/>
			<path d="M338.917,412.649l0.858,0.111c-0.094,0.592-0.334,1.056-0.721,1.39c-0.386,0.335-0.861,0.502-1.424,0.502
				c-0.705,0-1.271-0.229-1.701-0.69c-0.428-0.461-0.643-1.122-0.643-1.982c0-0.556,0.092-1.043,0.275-1.46
				c0.186-0.417,0.465-0.73,0.842-0.939c0.378-0.208,0.787-0.313,1.23-0.313c0.561,0,1.018,0.141,1.373,0.424
				s0.583,0.686,0.684,1.206l-0.849,0.131c-0.081-0.346-0.224-0.605-0.429-0.781c-0.206-0.175-0.454-0.262-0.745-0.262
				c-0.438,0-0.797,0.158-1.071,0.474c-0.275,0.314-0.414,0.813-0.414,1.496c0,0.692,0.133,1.195,0.398,1.51
				c0.266,0.313,0.611,0.471,1.038,0.471c0.343,0,0.629-0.105,0.858-0.315C338.71,413.408,338.855,413.085,338.917,412.649z"/>
			<path d="M342.43,413.755l0.127,0.771c-0.246,0.052-0.467,0.078-0.66,0.078c-0.317,0-0.563-0.05-0.738-0.15
				c-0.174-0.1-0.297-0.231-0.369-0.396c-0.071-0.163-0.105-0.507-0.105-1.031v-2.964h-0.642v-0.679h0.642v-1.276l0.867-0.523v1.8
				h0.879v0.679h-0.879v3.013c0,0.249,0.016,0.409,0.047,0.48c0.029,0.071,0.08,0.128,0.149,0.17s0.169,0.063,0.298,0.063
				C342.143,413.788,342.271,413.778,342.43,413.755z"/>
		</g>
		<line fill="none" stroke="#000000" stroke-width="0.5" stroke-miterlimit="10" x1="344.8" y1="411.8" x2="410.32" y2="397.184"/>
	</g>
</g>
</svg>
